<?xml version="1.0" encoding="UTF-8" standalone="no"?>
<!DOCTYPE svg PUBLIC "-//W3C//DTD SVG 1.1//EN"
 "http://www.w3.org/Graphics/SVG/1.1/DTD/svg11.dtd">
<!-- Generated by graphviz version 12.2.1 (20241206.2353)
 -->
<!-- Title: fl::anonymous_namespace{five_bit_hd_gamma::cpp}::mymax Pages: 1 -->
<svg width="372pt" height="72pt"
 viewBox="0.00 0.00 372.25 72.25" xmlns="http://www.w3.org/2000/svg" xmlns:xlink="http://www.w3.org/1999/xlink">
<g id="graph0" class="graph" transform="scale(1 1) rotate(0) translate(4 68.25)">
<title>fl::anonymous_namespace{five_bit_hd_gamma::cpp}::mymax</title>
<!-- Node1 -->
<g id="Node000001" class="node">
<title>Node1</title>
<g id="a_Node000001"><a xlink:title=" ">
<polygon fill="#999999" stroke="#666666" points="364.25,-46.25 217,-46.25 217,0 364.25,0 364.25,-46.25"/>
<text text-anchor="start" x="225" y="-32.75" font-family="Helvetica,sans-Serif" font-size="10.00">fl::anonymous_namespace</text>
<text text-anchor="start" x="225" y="-20" font-family="Helvetica,sans-Serif" font-size="10.00">{five_bit_hd_gamma::cpp}</text>
<text text-anchor="middle" x="290.62" y="-7.25" font-family="Helvetica,sans-Serif" font-size="10.00">::mymax</text>
</a>
</g>
</g>
<!-- Node1&#45;&gt;Node1 -->
<g id="edge3_Node000001_Node000001" class="edge">
<title>Node1&#45;&gt;Node1</title>
<g id="a_edge3_Node000001_Node000001"><a xlink:title=" ">
<path fill="none" stroke="#63b8ff" d="M323.54,-56.99C317.84,-61.36 306.87,-64.25 290.62,-64.25 263.26,-64.25 250.87,-56.05 253.43,-46.38"/>
<polygon fill="#63b8ff" stroke="#63b8ff" points="326.75,-58.36 327.25,-47.78 320.26,-55.74 326.75,-58.36"/>
</a>
</g>
</g>
<!-- Node2 -->
<g id="Node000002" class="node">
<title>Node2</title>
<g id="a_Node000002"><a xlink:href="../../d9/d48/namespacefl_1_1anonymous__namespace_02five__bit__hd__gamma_8cpp_03.html#ac2fea0eec317c52cfa3add487d638e92" target="_top" xlink:title=" ">
<polygon fill="white" stroke="#666666" points="181,-39.88 0,-39.88 0,-6.38 181,-6.38 181,-39.88"/>
<text text-anchor="start" x="8" y="-26.38" font-family="Helvetica,sans-Serif" font-size="10.00">fl::anonymous_namespace</text>
<text text-anchor="middle" x="90.5" y="-13.62" font-family="Helvetica,sans-Serif" font-size="10.00">{five_bit_hd_gamma::cpp}::max3</text>
</a>
</g>
</g>
<!-- Node1&#45;&gt;Node2 -->
<g id="edge1_Node000001_Node000002" class="edge">
<title>Node1&#45;&gt;Node2</title>
<g id="a_edge1_Node000001_Node000002"><a xlink:title=" ">
<path fill="none" stroke="#63b8ff" d="M205.26,-23.12C197.38,-23.12 189.37,-23.12 181.44,-23.12"/>
<polygon fill="#63b8ff" stroke="#63b8ff" points="205.18,-26.63 215.18,-23.13 205.18,-19.63 205.18,-26.63"/>
</a>
</g>
</g>
<!-- Node2&#45;&gt;Node2 -->
<g id="edge2_Node000002_Node000002" class="edge">
<title>Node2&#45;&gt;Node2</title>
<g id="a_edge2_Node000002_Node000002"><a xlink:title=" ">
<path fill="none" stroke="#63b8ff" d="M124.1,-51.26C118.63,-55.22 107.43,-57.88 90.5,-57.88 60.4,-57.88 48.41,-49.49 54.52,-40.29"/>
<polygon fill="#63b8ff" stroke="#63b8ff" points="127.46,-52.28 126.16,-41.77 120.62,-50.8 127.46,-52.28"/>
</a>
</g>
</g>
</g>
</svg>
