<?xml version="1.0" encoding="UTF-8" standalone="no"?>
<!DOCTYPE svg PUBLIC "-//W3C//DTD SVG 1.1//EN"
 "http://www.w3.org/Graphics/SVG/1.1/DTD/svg11.dtd">
<!-- Generated by graphviz version 12.2.1 (20241206.2353)
 -->
<!-- Title: /home/runner/work/FastLED/FastLED/src/fx/fx.h Pages: 1 -->
<svg width="2559pt" height="371pt"
 viewBox="0.00 0.00 2558.50 370.50" xmlns="http://www.w3.org/2000/svg" xmlns:xlink="http://www.w3.org/1999/xlink">
<g id="graph0" class="graph" transform="scale(1 1) rotate(0) translate(4 366.5)">
<title>/home/runner/work/FastLED/FastLED/src/fx/fx.h</title>
<!-- Node1 -->
<g id="Node000001" class="node">
<title>Node1</title>
<g id="a_Node000001"><a xlink:title=" ">
<polygon fill="#999999" stroke="#666666" points="1714.75,-362.5 1565.25,-362.5 1565.25,-329 1714.75,-329 1714.75,-362.5"/>
<text text-anchor="start" x="1573.25" y="-349" font-family="Helvetica,sans-Serif" font-size="10.00">/home/runner/work/FastLED</text>
<text text-anchor="middle" x="1640" y="-336.25" font-family="Helvetica,sans-Serif" font-size="10.00">/FastLED/src/fx/fx.h</text>
</a>
</g>
</g>
<!-- Node2 -->
<g id="Node000002" class="node">
<title>Node2</title>
<g id="a_Node000002"><a xlink:href="../../df/d43/_overclock_8ino.html" target="_top" xlink:title="Demonstrates how to overclock a FastLED setup.">
<polygon fill="white" stroke="#666666" points="1575,-46.25 1415,-46.25 1415,0 1575,0 1575,-46.25"/>
<text text-anchor="start" x="1423" y="-32.75" font-family="Helvetica,sans-Serif" font-size="10.00">/home/runner/work/FastLED</text>
<text text-anchor="start" x="1423" y="-20" font-family="Helvetica,sans-Serif" font-size="10.00">/FastLED/examples/Overclock</text>
<text text-anchor="middle" x="1495" y="-7.25" font-family="Helvetica,sans-Serif" font-size="10.00">/Overclock.ino</text>
</a>
</g>
</g>
<!-- Node1&#45;&gt;Node2 -->
<g id="edge1_Node000001_Node000002" class="edge">
<title>Node1&#45;&gt;Node2</title>
<g id="a_edge1_Node000001_Node000002"><a xlink:title=" ">
<path fill="none" stroke="#63b8ff" d="M1617.57,-319.88C1610.97,-311.71 1604.15,-302.33 1599,-293 1551.49,-206.96 1572.72,-171.7 1532,-82.25 1526.35,-69.84 1518.39,-56.95 1511.31,-46.48"/>
<polygon fill="#63b8ff" stroke="#63b8ff" points="1614.73,-321.94 1623.85,-327.35 1620.09,-317.44 1614.73,-321.94"/>
</a>
</g>
</g>
<!-- Node3 -->
<g id="Node000003" class="node">
<title>Node3</title>
<g id="a_Node000003"><a xlink:href="../../d5/d6b/fx__compositor_8h.html" target="_top" xlink:title=" ">
<polygon fill="white" stroke="#666666" points="1728.75,-210.75 1579.25,-210.75 1579.25,-164.5 1728.75,-164.5 1728.75,-210.75"/>
<text text-anchor="start" x="1587.25" y="-197.25" font-family="Helvetica,sans-Serif" font-size="10.00">/home/runner/work/FastLED</text>
<text text-anchor="start" x="1587.25" y="-184.5" font-family="Helvetica,sans-Serif" font-size="10.00">/FastLED/src/fx/detail</text>
<text text-anchor="middle" x="1654" y="-171.75" font-family="Helvetica,sans-Serif" font-size="10.00">/fx_compositor.h</text>
</a>
</g>
</g>
<!-- Node1&#45;&gt;Node3 -->
<g id="edge2_Node000001_Node000003" class="edge">
<title>Node1&#45;&gt;Node3</title>
<g id="a_edge2_Node000001_Node000003"><a xlink:title=" ">
<path fill="none" stroke="#63b8ff" d="M1620.36,-319.23C1615.33,-311.26 1610.6,-302.14 1608,-293 1602.38,-273.23 1601.25,-266.16 1608,-246.75 1612.61,-233.5 1621.63,-221 1630.47,-211.01"/>
<polygon fill="#63b8ff" stroke="#63b8ff" points="1617.4,-321.09 1625.92,-327.38 1623.18,-317.14 1617.4,-321.09"/>
</a>
</g>
</g>
<!-- Node4 -->
<g id="Node000004" class="node">
<title>Node4</title>
<g id="a_Node000004"><a xlink:href="../../d9/d3c/fx__engine_8h.html" target="_top" xlink:title=" ">
<polygon fill="white" stroke="#666666" points="1728.75,-122.12 1579.25,-122.12 1579.25,-88.62 1728.75,-88.62 1728.75,-122.12"/>
<text text-anchor="start" x="1587.25" y="-108.62" font-family="Helvetica,sans-Serif" font-size="10.00">/home/runner/work/FastLED</text>
<text text-anchor="middle" x="1654" y="-95.88" font-family="Helvetica,sans-Serif" font-size="10.00">/FastLED/src/fx/fx_engine.h</text>
</a>
</g>
</g>
<!-- Node1&#45;&gt;Node4 -->
<g id="edge49_Node000001_Node000004" class="edge">
<title>Node1&#45;&gt;Node4</title>
<g id="a_edge49_Node000001_Node000004"><a xlink:title=" ">
<path fill="none" stroke="#63b8ff" d="M1725.73,-329.58C1745.4,-321.91 1764.03,-310.37 1776,-293 1794.98,-265.47 1756.76,-166.81 1755,-164.5 1740.75,-145.73 1718.55,-132 1698.59,-122.62"/>
<polygon fill="#63b8ff" stroke="#63b8ff" points="1724.74,-326.22 1716.48,-332.85 1727.07,-332.82 1724.74,-326.22"/>
</a>
</g>
</g>
<!-- Node10 -->
<g id="Node000010" class="node">
<title>Node10</title>
<g id="a_Node000010"><a xlink:href="../../d7/d2f/fx__layer_8h.html" target="_top" xlink:title=" ">
<polygon fill="white" stroke="#666666" points="1766.75,-293 1617.25,-293 1617.25,-246.75 1766.75,-246.75 1766.75,-293"/>
<text text-anchor="start" x="1625.25" y="-279.5" font-family="Helvetica,sans-Serif" font-size="10.00">/home/runner/work/FastLED</text>
<text text-anchor="start" x="1625.25" y="-266.75" font-family="Helvetica,sans-Serif" font-size="10.00">/FastLED/src/fx/detail</text>
<text text-anchor="middle" x="1692" y="-254" font-family="Helvetica,sans-Serif" font-size="10.00">/fx_layer.h</text>
</a>
</g>
</g>
<!-- Node1&#45;&gt;Node10 -->
<g id="edge9_Node000001_Node000010" class="edge">
<title>Node1&#45;&gt;Node10</title>
<g id="a_edge9_Node000001_Node000010"><a xlink:title=" ">
<path fill="none" stroke="#63b8ff" d="M1657.89,-319.33C1663.84,-310.88 1670.42,-301.53 1676.2,-293.32"/>
<polygon fill="#63b8ff" stroke="#63b8ff" points="1655.05,-317.29 1652.15,-327.48 1660.77,-321.32 1655.05,-317.29"/>
</a>
</g>
</g>
<!-- Node11 -->
<g id="Node000011" class="node">
<title>Node11</title>
<g id="a_Node000011"><a xlink:href="../../da/d81/fx1d_8h.html" target="_top" xlink:title=" ">
<polygon fill="white" stroke="#666666" points="935.75,-286.62 786.25,-286.62 786.25,-253.12 935.75,-253.12 935.75,-286.62"/>
<text text-anchor="start" x="794.25" y="-273.12" font-family="Helvetica,sans-Serif" font-size="10.00">/home/runner/work/FastLED</text>
<text text-anchor="middle" x="861" y="-260.38" font-family="Helvetica,sans-Serif" font-size="10.00">/FastLED/src/fx/fx1d.h</text>
</a>
</g>
</g>
<!-- Node1&#45;&gt;Node11 -->
<g id="edge12_Node000001_Node000011" class="edge">
<title>Node1&#45;&gt;Node11</title>
<g id="a_edge12_Node000001_Node000011"><a xlink:title=" ">
<path fill="none" stroke="#63b8ff" d="M1553.73,-336.57C1400.09,-322 1081.57,-291.79 936.24,-278.01"/>
<polygon fill="#63b8ff" stroke="#63b8ff" points="1553.16,-340.03 1563.45,-337.49 1553.82,-333.06 1553.16,-340.03"/>
</a>
</g>
</g>
<!-- Node36 -->
<g id="Node000036" class="node">
<title>Node36</title>
<g id="a_Node000036"><a xlink:href="../../d9/d43/fx2d_8h.html" target="_top" xlink:title=" ">
<polygon fill="white" stroke="#666666" points="2219.75,-204.38 2070.25,-204.38 2070.25,-170.88 2219.75,-170.88 2219.75,-204.38"/>
<text text-anchor="start" x="2078.25" y="-190.88" font-family="Helvetica,sans-Serif" font-size="10.00">/home/runner/work/FastLED</text>
<text text-anchor="middle" x="2145" y="-178.12" font-family="Helvetica,sans-Serif" font-size="10.00">/FastLED/src/fx/fx2d.h</text>
</a>
</g>
</g>
<!-- Node1&#45;&gt;Node36 -->
<g id="edge33_Node000001_Node000036" class="edge">
<title>Node1&#45;&gt;Node36</title>
<g id="a_edge33_Node000001_Node000036"><a xlink:title=" ">
<path fill="none" stroke="#63b8ff" d="M1703.8,-325.28C1735.45,-315.61 1774.25,-303.72 1809,-293 1909.54,-261.99 2026.9,-225.46 2092.93,-204.87"/>
<polygon fill="#63b8ff" stroke="#63b8ff" points="1702.91,-321.89 1694.37,-328.16 1704.95,-328.59 1702.91,-321.89"/>
</a>
</g>
</g>
<!-- Node3&#45;&gt;Node4 -->
<g id="edge3_Node000003_Node000004" class="edge">
<title>Node3&#45;&gt;Node4</title>
<g id="a_edge3_Node000003_Node000004"><a xlink:title=" ">
<path fill="none" stroke="#63b8ff" d="M1654,-152.82C1654,-142.32 1654,-131.22 1654,-122.5"/>
<polygon fill="#63b8ff" stroke="#63b8ff" points="1650.5,-152.76 1654,-162.76 1657.5,-152.76 1650.5,-152.76"/>
</a>
</g>
</g>
<!-- Node5 -->
<g id="Node000005" class="node">
<title>Node5</title>
<g id="a_Node000005"><a xlink:href="../../dd/d96/_fx_animartrix_8ino.html" target="_top" xlink:title=" ">
<polygon fill="white" stroke="#666666" points="2110.5,-46.25 1935.5,-46.25 1935.5,0 2110.5,0 2110.5,-46.25"/>
<text text-anchor="start" x="1943.5" y="-32.75" font-family="Helvetica,sans-Serif" font-size="10.00">/home/runner/work/FastLED</text>
<text text-anchor="start" x="1943.5" y="-20" font-family="Helvetica,sans-Serif" font-size="10.00">/FastLED/examples/FxAnimartrix</text>
<text text-anchor="middle" x="2023" y="-7.25" font-family="Helvetica,sans-Serif" font-size="10.00">/FxAnimartrix.ino</text>
</a>
</g>
</g>
<!-- Node4&#45;&gt;Node5 -->
<g id="edge4_Node000004_Node000005" class="edge">
<title>Node4&#45;&gt;Node5</title>
<g id="a_edge4_Node000004_Node000005"><a xlink:title=" ">
<path fill="none" stroke="#63b8ff" d="M1724.32,-85.48C1728.94,-84.35 1733.53,-83.26 1738,-82.25 1820.96,-63.4 1842.74,-63.71 1926,-46.25 1928.96,-45.63 1931.97,-44.99 1935,-44.34"/>
<polygon fill="#63b8ff" stroke="#63b8ff" points="1723.86,-81.98 1715,-87.79 1725.55,-88.78 1723.86,-81.98"/>
</a>
</g>
</g>
<!-- Node6 -->
<g id="Node000006" class="node">
<title>Node6</title>
<g id="a_Node000006"><a xlink:href="../../d6/d35/_fx_engine_8ino.html" target="_top" xlink:title="Demonstrates how to use the FxEngine to switch between different effects on a 2D LED matrix.">
<polygon fill="white" stroke="#666666" points="1917.12,-46.25 1760.88,-46.25 1760.88,0 1917.12,0 1917.12,-46.25"/>
<text text-anchor="start" x="1768.88" y="-32.75" font-family="Helvetica,sans-Serif" font-size="10.00">/home/runner/work/FastLED</text>
<text text-anchor="start" x="1768.88" y="-20" font-family="Helvetica,sans-Serif" font-size="10.00">/FastLED/examples/FxEngine</text>
<text text-anchor="middle" x="1839" y="-7.25" font-family="Helvetica,sans-Serif" font-size="10.00">/FxEngine.ino</text>
</a>
</g>
</g>
<!-- Node4&#45;&gt;Node6 -->
<g id="edge5_Node000004_Node000006" class="edge">
<title>Node4&#45;&gt;Node6</title>
<g id="a_edge5_Node000004_Node000006"><a xlink:title=" ">
<path fill="none" stroke="#63b8ff" d="M1701.83,-83.63C1727.89,-72.32 1760.19,-58.31 1786.9,-46.73"/>
<polygon fill="#63b8ff" stroke="#63b8ff" points="1700.61,-80.34 1692.83,-87.53 1703.39,-86.76 1700.61,-80.34"/>
</a>
</g>
</g>
<!-- Node7 -->
<g id="Node000007" class="node">
<title>Node7</title>
<g id="a_Node000007"><a xlink:href="../../d7/d35/_fx_sd_card_8ino.html" target="_top" xlink:title=" ">
<polygon fill="white" stroke="#666666" points="1214.88,-46.25 1057.12,-46.25 1057.12,0 1214.88,0 1214.88,-46.25"/>
<text text-anchor="start" x="1065.12" y="-32.75" font-family="Helvetica,sans-Serif" font-size="10.00">/home/runner/work/FastLED</text>
<text text-anchor="start" x="1065.12" y="-20" font-family="Helvetica,sans-Serif" font-size="10.00">/FastLED/examples/FxSdCard</text>
<text text-anchor="middle" x="1136" y="-7.25" font-family="Helvetica,sans-Serif" font-size="10.00">/FxSdCard.ino</text>
</a>
</g>
</g>
<!-- Node4&#45;&gt;Node7 -->
<g id="edge6_Node000004_Node000007" class="edge">
<title>Node4&#45;&gt;Node7</title>
<g id="a_edge6_Node000004_Node000007"><a xlink:title=" ">
<path fill="none" stroke="#63b8ff" d="M1567.91,-88.39C1555.86,-86.26 1543.63,-84.16 1532,-82.25 1422.29,-64.26 1295.03,-46.05 1215.01,-34.92"/>
<polygon fill="#63b8ff" stroke="#63b8ff" points="1566.95,-91.77 1577.41,-90.08 1568.18,-84.88 1566.95,-91.77"/>
</a>
</g>
</g>
<!-- Node8 -->
<g id="Node000008" class="node">
<title>Node8</title>
<g id="a_Node000008"><a xlink:href="../../d7/dd3/wasm_8ino.html" target="_top" xlink:title="Demonstrates an advanced ino file with multiple effects and UI elements.">
<polygon fill="white" stroke="#666666" points="1742.75,-46.25 1593.25,-46.25 1593.25,0 1742.75,0 1742.75,-46.25"/>
<text text-anchor="start" x="1601.25" y="-32.75" font-family="Helvetica,sans-Serif" font-size="10.00">/home/runner/work/FastLED</text>
<text text-anchor="start" x="1601.25" y="-20" font-family="Helvetica,sans-Serif" font-size="10.00">/FastLED/examples/wasm</text>
<text text-anchor="middle" x="1668" y="-7.25" font-family="Helvetica,sans-Serif" font-size="10.00">/wasm.ino</text>
</a>
</g>
</g>
<!-- Node4&#45;&gt;Node8 -->
<g id="edge7_Node000004_Node000008" class="edge">
<title>Node4&#45;&gt;Node8</title>
<g id="a_edge7_Node000004_Node000008"><a xlink:title=" ">
<path fill="none" stroke="#63b8ff" d="M1658.8,-76.89C1660.51,-67.05 1662.42,-56.1 1664.06,-46.73"/>
<polygon fill="#63b8ff" stroke="#63b8ff" points="1655.36,-76.19 1657.09,-86.64 1662.26,-77.39 1655.36,-76.19"/>
</a>
</g>
</g>
<!-- Node9 -->
<g id="Node000009" class="node">
<title>Node9</title>
<g id="a_Node000009"><a xlink:href="../../df/d8e/fx__engine_8cpp.html" target="_top" xlink:title=" ">
<polygon fill="white" stroke="#666666" points="939.25,-39.88 780.75,-39.88 780.75,-6.38 939.25,-6.38 939.25,-39.88"/>
<text text-anchor="start" x="788.75" y="-26.38" font-family="Helvetica,sans-Serif" font-size="10.00">/home/runner/work/FastLED</text>
<text text-anchor="middle" x="860" y="-13.62" font-family="Helvetica,sans-Serif" font-size="10.00">/FastLED/src/fx/fx_engine.cpp</text>
</a>
</g>
</g>
<!-- Node4&#45;&gt;Node9 -->
<g id="edge8_Node000004_Node000009" class="edge">
<title>Node4&#45;&gt;Node9</title>
<g id="a_edge8_Node000004_Node000009"><a xlink:title=" ">
<path fill="none" stroke="#63b8ff" d="M1568.02,-87.62C1555.96,-85.61 1543.69,-83.74 1532,-82.25 1318.03,-54.97 1262.72,-66.86 1048,-46.25 1012.34,-42.83 972.97,-38.31 939.5,-34.25"/>
<polygon fill="#63b8ff" stroke="#63b8ff" points="1567.09,-91.01 1577.53,-89.24 1568.27,-84.11 1567.09,-91.01"/>
</a>
</g>
</g>
<!-- Node10&#45;&gt;Node3 -->
<g id="edge10_Node000010_Node000003" class="edge">
<title>Node10&#45;&gt;Node3</title>
<g id="a_edge10_Node000010_Node000003"><a xlink:title=" ">
<path fill="none" stroke="#63b8ff" d="M1676.53,-236.21C1672.55,-227.79 1668.34,-218.91 1664.66,-211.14"/>
<polygon fill="#63b8ff" stroke="#63b8ff" points="1673.32,-237.61 1680.77,-245.15 1679.65,-234.62 1673.32,-237.61"/>
</a>
</g>
</g>
<!-- Node10&#45;&gt;Node4 -->
<g id="edge11_Node000010_Node000004" class="edge">
<title>Node10&#45;&gt;Node4</title>
<g id="a_edge11_Node000010_Node000004"><a xlink:title=" ">
<path fill="none" stroke="#63b8ff" d="M1722.73,-237.77C1728.97,-229.61 1734.65,-220.38 1738,-210.75 1744.75,-191.34 1747.54,-182.71 1738,-164.5 1728.2,-145.81 1709.36,-131.93 1692.01,-122.44"/>
<polygon fill="#63b8ff" stroke="#63b8ff" points="1720.16,-235.39 1716.49,-245.33 1725.55,-239.84 1720.16,-235.39"/>
</a>
</g>
</g>
<!-- Node12 -->
<g id="Node000012" class="node">
<title>Node12</title>
<g id="a_Node000012"><a xlink:href="../../db/d31/cylon_8h.html" target="_top" xlink:title=" ">
<polygon fill="white" stroke="#666666" points="1123.75,-204.38 974.25,-204.38 974.25,-170.88 1123.75,-170.88 1123.75,-204.38"/>
<text text-anchor="start" x="982.25" y="-190.88" font-family="Helvetica,sans-Serif" font-size="10.00">/home/runner/work/FastLED</text>
<text text-anchor="middle" x="1049" y="-178.12" font-family="Helvetica,sans-Serif" font-size="10.00">/FastLED/src/fx/1d/cylon.h</text>
</a>
</g>
</g>
<!-- Node11&#45;&gt;Node12 -->
<g id="edge13_Node000011_Node000012" class="edge">
<title>Node11&#45;&gt;Node12</title>
<g id="a_edge13_Node000011_Node000012"><a xlink:title=" ">
<path fill="none" stroke="#63b8ff" d="M909.39,-248.22C941.01,-234.72 981.72,-217.34 1011.01,-204.84"/>
<polygon fill="#63b8ff" stroke="#63b8ff" points="908.26,-244.9 900.44,-252.04 911.01,-251.33 908.26,-244.9"/>
</a>
</g>
</g>
<!-- Node14 -->
<g id="Node000014" class="node">
<title>Node14</title>
<g id="a_Node000014"><a xlink:href="../../d4/dc0/demoreel100_8h.html" target="_top" xlink:title=" ">
<polygon fill="white" stroke="#666666" points="1324.38,-204.38 1145.62,-204.38 1145.62,-170.88 1324.38,-170.88 1324.38,-204.38"/>
<text text-anchor="start" x="1153.62" y="-190.88" font-family="Helvetica,sans-Serif" font-size="10.00">/home/runner/work/FastLED</text>
<text text-anchor="middle" x="1235" y="-178.12" font-family="Helvetica,sans-Serif" font-size="10.00">/FastLED/src/fx/1d/demoreel100.h</text>
</a>
</g>
</g>
<!-- Node11&#45;&gt;Node14 -->
<g id="edge15_Node000011_Node000014" class="edge">
<title>Node11&#45;&gt;Node14</title>
<g id="a_edge15_Node000011_Node000014"><a xlink:title=" ">
<path fill="none" stroke="#63b8ff" d="M947.21,-250.52C1000.71,-239.12 1070.86,-224.13 1133,-210.75 1141.86,-208.84 1151.15,-206.84 1160.36,-204.84"/>
<polygon fill="#63b8ff" stroke="#63b8ff" points="946.59,-247.08 937.54,-252.59 948.05,-253.92 946.59,-247.08"/>
</a>
</g>
</g>
<!-- Node16 -->
<g id="Node000016" class="node">
<title>Node16</title>
<g id="a_Node000016"><a xlink:href="../../d5/dcb/fire2012_8h.html" target="_top" xlink:title=" ">
<polygon fill="white" stroke="#666666" points="768,-204.38 614,-204.38 614,-170.88 768,-170.88 768,-204.38"/>
<text text-anchor="start" x="622" y="-190.88" font-family="Helvetica,sans-Serif" font-size="10.00">/home/runner/work/FastLED</text>
<text text-anchor="middle" x="691" y="-178.12" font-family="Helvetica,sans-Serif" font-size="10.00">/FastLED/src/fx/1d/fire2012.h</text>
</a>
</g>
</g>
<!-- Node11&#45;&gt;Node16 -->
<g id="edge17_Node000011_Node000016" class="edge">
<title>Node11&#45;&gt;Node16</title>
<g id="a_edge17_Node000011_Node000016"><a xlink:title=" ">
<path fill="none" stroke="#63b8ff" d="M816.5,-247.87C788.01,-234.42 751.61,-217.23 725.35,-204.84"/>
<polygon fill="#63b8ff" stroke="#63b8ff" points="814.69,-250.89 825.23,-251.99 817.68,-244.56 814.69,-250.89"/>
</a>
</g>
</g>
<!-- Node18 -->
<g id="Node000018" class="node">
<title>Node18</title>
<g id="a_Node000018"><a xlink:href="../../d9/d2c/noisewave_8h.html" target="_top" xlink:title=" ">
<polygon fill="white" stroke="#666666" points="596.38,-204.38 429.62,-204.38 429.62,-170.88 596.38,-170.88 596.38,-204.38"/>
<text text-anchor="start" x="437.62" y="-190.88" font-family="Helvetica,sans-Serif" font-size="10.00">/home/runner/work/FastLED</text>
<text text-anchor="middle" x="513" y="-178.12" font-family="Helvetica,sans-Serif" font-size="10.00">/FastLED/src/fx/1d/noisewave.h</text>
</a>
</g>
</g>
<!-- Node11&#45;&gt;Node18 -->
<g id="edge19_Node000011_Node000018" class="edge">
<title>Node11&#45;&gt;Node18</title>
<g id="a_edge19_Node000011_Node000018"><a xlink:title=" ">
<path fill="none" stroke="#63b8ff" d="M777.3,-250.15C727.27,-238.89 662.45,-224.18 605,-210.75 596.84,-208.84 588.28,-206.82 579.81,-204.8"/>
<polygon fill="#63b8ff" stroke="#63b8ff" points="776.39,-253.54 786.91,-252.32 777.93,-246.71 776.39,-253.54"/>
</a>
</g>
</g>
<!-- Node19 -->
<g id="Node000019" class="node">
<title>Node19</title>
<g id="a_Node000019"><a xlink:href="../../dc/d70/pacifica_8h.html" target="_top" xlink:title=" ">
<polygon fill="white" stroke="#666666" points="1511.88,-204.38 1360.12,-204.38 1360.12,-170.88 1511.88,-170.88 1511.88,-204.38"/>
<text text-anchor="start" x="1368.12" y="-190.88" font-family="Helvetica,sans-Serif" font-size="10.00">/home/runner/work/FastLED</text>
<text text-anchor="middle" x="1436" y="-178.12" font-family="Helvetica,sans-Serif" font-size="10.00">/FastLED/src/fx/1d/pacifica.h</text>
</a>
</g>
</g>
<!-- Node11&#45;&gt;Node19 -->
<g id="edge20_Node000011_Node000019" class="edge">
<title>Node11&#45;&gt;Node19</title>
<g id="a_edge20_Node000011_Node000019"><a xlink:title=" ">
<path fill="none" stroke="#63b8ff" d="M947.36,-260.57C1042.26,-250.91 1199.02,-233.34 1333,-210.75 1343.19,-209.03 1353.9,-206.99 1364.4,-204.86"/>
<polygon fill="#63b8ff" stroke="#63b8ff" points="947.2,-257.07 937.6,-261.56 947.91,-264.04 947.2,-257.07"/>
</a>
</g>
</g>
<!-- Node21 -->
<g id="Node000021" class="node">
<title>Node21</title>
<g id="a_Node000021"><a xlink:href="../../d7/dc4/pride2015_8h.html" target="_top" xlink:title=" ">
<polygon fill="white" stroke="#666666" points="202.5,-204.38 39.5,-204.38 39.5,-170.88 202.5,-170.88 202.5,-204.38"/>
<text text-anchor="start" x="47.5" y="-190.88" font-family="Helvetica,sans-Serif" font-size="10.00">/home/runner/work/FastLED</text>
<text text-anchor="middle" x="121" y="-178.12" font-family="Helvetica,sans-Serif" font-size="10.00">/FastLED/src/fx/1d/pride2015.h</text>
</a>
</g>
</g>
<!-- Node11&#45;&gt;Node21 -->
<g id="edge22_Node000011_Node000021" class="edge">
<title>Node11&#45;&gt;Node21</title>
<g id="a_edge22_Node000011_Node000021"><a xlink:title=" ">
<path fill="none" stroke="#63b8ff" d="M774.94,-264.85C651,-258.2 415.34,-242.4 217,-210.75 206.87,-209.13 196.21,-207.06 185.83,-204.83"/>
<polygon fill="#63b8ff" stroke="#63b8ff" points="774.53,-268.33 784.71,-265.36 774.9,-261.34 774.53,-268.33"/>
</a>
</g>
</g>
<!-- Node23 -->
<g id="Node000023" class="node">
<title>Node23</title>
<g id="a_Node000023"><a xlink:href="../../d1/df6/twinklefox_8h.html" target="_top" xlink:title=" ">
<polygon fill="white" stroke="#666666" points="392,-204.38 226,-204.38 226,-170.88 392,-170.88 392,-204.38"/>
<text text-anchor="start" x="234" y="-190.88" font-family="Helvetica,sans-Serif" font-size="10.00">/home/runner/work/FastLED</text>
<text text-anchor="middle" x="309" y="-178.12" font-family="Helvetica,sans-Serif" font-size="10.00">/FastLED/src/fx/1d/twinklefox.h</text>
</a>
</g>
</g>
<!-- Node11&#45;&gt;Node23 -->
<g id="edge24_Node000011_Node000023" class="edge">
<title>Node11&#45;&gt;Node23</title>
<g id="a_edge24_Node000011_Node000023"><a xlink:title=" ">
<path fill="none" stroke="#63b8ff" d="M774.67,-259.12C685.78,-248.69 543.36,-230.9 421,-210.75 410.24,-208.98 398.94,-206.95 387.82,-204.85"/>
<polygon fill="#63b8ff" stroke="#63b8ff" points="774.2,-262.59 784.54,-260.27 775.02,-255.63 774.2,-262.59"/>
</a>
</g>
</g>
<!-- Node25 -->
<g id="Node000025" class="node">
<title>Node25</title>
<g id="a_Node000025"><a xlink:href="../../dd/d78/video_8h.html" target="_top" xlink:title=" ">
<polygon fill="white" stroke="#666666" points="935.75,-204.38 786.25,-204.38 786.25,-170.88 935.75,-170.88 935.75,-204.38"/>
<text text-anchor="start" x="794.25" y="-190.88" font-family="Helvetica,sans-Serif" font-size="10.00">/home/runner/work/FastLED</text>
<text text-anchor="middle" x="861" y="-178.12" font-family="Helvetica,sans-Serif" font-size="10.00">/FastLED/src/fx/video.h</text>
</a>
</g>
</g>
<!-- Node11&#45;&gt;Node25 -->
<g id="edge26_Node000011_Node000025" class="edge">
<title>Node11&#45;&gt;Node25</title>
<g id="a_edge26_Node000011_Node000025"><a xlink:title=" ">
<path fill="none" stroke="#63b8ff" d="M861,-241.25C861,-229.11 861,-215.28 861,-204.84"/>
<polygon fill="#63b8ff" stroke="#63b8ff" points="857.5,-241.12 861,-251.12 864.5,-241.12 857.5,-241.12"/>
</a>
</g>
</g>
<!-- Node13 -->
<g id="Node000013" class="node">
<title>Node13</title>
<g id="a_Node000013"><a xlink:href="../../db/d86/_fx_cylon_8ino.html" target="_top" xlink:title=" ">
<polygon fill="white" stroke="#666666" points="1134.5,-128.5 983.5,-128.5 983.5,-82.25 1134.5,-82.25 1134.5,-128.5"/>
<text text-anchor="start" x="991.5" y="-115" font-family="Helvetica,sans-Serif" font-size="10.00">/home/runner/work/FastLED</text>
<text text-anchor="start" x="991.5" y="-102.25" font-family="Helvetica,sans-Serif" font-size="10.00">/FastLED/examples/FxCylon</text>
<text text-anchor="middle" x="1059" y="-89.5" font-family="Helvetica,sans-Serif" font-size="10.00">/FxCylon.ino</text>
</a>
</g>
</g>
<!-- Node12&#45;&gt;Node13 -->
<g id="edge14_Node000012_Node000013" class="edge">
<title>Node12&#45;&gt;Node13</title>
<g id="a_edge14_Node000012_Node000013"><a xlink:title=" ">
<path fill="none" stroke="#63b8ff" d="M1052.43,-159.14C1053.65,-149.3 1055.02,-138.35 1056.18,-128.98"/>
<polygon fill="#63b8ff" stroke="#63b8ff" points="1048.97,-158.53 1051.21,-168.88 1055.92,-159.39 1048.97,-158.53"/>
</a>
</g>
</g>
<!-- Node15 -->
<g id="Node000015" class="node">
<title>Node15</title>
<g id="a_Node000015"><a xlink:href="../../d1/d8f/_fx_demo_reel100_8ino.html" target="_top" xlink:title=" ">
<polygon fill="white" stroke="#666666" points="1345.12,-128.5 1152.88,-128.5 1152.88,-82.25 1345.12,-82.25 1345.12,-128.5"/>
<text text-anchor="start" x="1160.88" y="-115" font-family="Helvetica,sans-Serif" font-size="10.00">/home/runner/work/FastLED</text>
<text text-anchor="start" x="1160.88" y="-102.25" font-family="Helvetica,sans-Serif" font-size="10.00">/FastLED/examples/FxDemoReel100</text>
<text text-anchor="middle" x="1249" y="-89.5" font-family="Helvetica,sans-Serif" font-size="10.00">/FxDemoReel100.ino</text>
</a>
</g>
</g>
<!-- Node14&#45;&gt;Node15 -->
<g id="edge16_Node000014_Node000015" class="edge">
<title>Node14&#45;&gt;Node15</title>
<g id="a_edge16_Node000014_Node000015"><a xlink:title=" ">
<path fill="none" stroke="#63b8ff" d="M1239.8,-159.14C1241.51,-149.3 1243.42,-138.35 1245.06,-128.98"/>
<polygon fill="#63b8ff" stroke="#63b8ff" points="1236.36,-158.44 1238.09,-168.89 1243.26,-159.64 1236.36,-158.44"/>
</a>
</g>
</g>
<!-- Node17 -->
<g id="Node000017" class="node">
<title>Node17</title>
<g id="a_Node000017"><a xlink:href="../../df/d57/_fx_fire2012_8ino.html" target="_top" xlink:title=" ">
<polygon fill="white" stroke="#666666" points="550.62,-128.5 385.38,-128.5 385.38,-82.25 550.62,-82.25 550.62,-128.5"/>
<text text-anchor="start" x="393.38" y="-115" font-family="Helvetica,sans-Serif" font-size="10.00">/home/runner/work/FastLED</text>
<text text-anchor="start" x="393.38" y="-102.25" font-family="Helvetica,sans-Serif" font-size="10.00">/FastLED/examples/FxFire2012</text>
<text text-anchor="middle" x="468" y="-89.5" font-family="Helvetica,sans-Serif" font-size="10.00">/FxFire2012.ino</text>
</a>
</g>
</g>
<!-- Node16&#45;&gt;Node17 -->
<g id="edge18_Node000016_Node000017" class="edge">
<title>Node16&#45;&gt;Node17</title>
<g id="a_edge18_Node000016_Node000017"><a xlink:title=" ">
<path fill="none" stroke="#63b8ff" d="M635.43,-166.63C603.66,-155.19 563.71,-140.82 530.8,-128.98"/>
<polygon fill="#63b8ff" stroke="#63b8ff" points="633.85,-169.78 644.45,-169.87 636.22,-163.19 633.85,-169.78"/>
</a>
</g>
</g>
<!-- Node20 -->
<g id="Node000020" class="node">
<title>Node20</title>
<g id="a_Node000020"><a xlink:href="../../dc/ded/_fx_pacifica_8ino.html" target="_top" xlink:title=" ">
<polygon fill="white" stroke="#666666" points="1523,-128.5 1363,-128.5 1363,-82.25 1523,-82.25 1523,-128.5"/>
<text text-anchor="start" x="1371" y="-115" font-family="Helvetica,sans-Serif" font-size="10.00">/home/runner/work/FastLED</text>
<text text-anchor="start" x="1371" y="-102.25" font-family="Helvetica,sans-Serif" font-size="10.00">/FastLED/examples/FxPacifica</text>
<text text-anchor="middle" x="1443" y="-89.5" font-family="Helvetica,sans-Serif" font-size="10.00">/FxPacifica.ino</text>
</a>
</g>
</g>
<!-- Node19&#45;&gt;Node20 -->
<g id="edge21_Node000019_Node000020" class="edge">
<title>Node19&#45;&gt;Node20</title>
<g id="a_edge21_Node000019_Node000020"><a xlink:title=" ">
<path fill="none" stroke="#63b8ff" d="M1438.4,-159.14C1439.26,-149.3 1440.21,-138.35 1441.03,-128.98"/>
<polygon fill="#63b8ff" stroke="#63b8ff" points="1434.93,-158.61 1437.55,-168.88 1441.9,-159.22 1434.93,-158.61"/>
</a>
</g>
</g>
<!-- Node22 -->
<g id="Node000022" class="node">
<title>Node22</title>
<g id="a_Node000022"><a xlink:href="../../d2/db0/_fx_pride2015_8ino.html" target="_top" xlink:title=" ">
<polygon fill="white" stroke="#666666" points="172,-128.5 0,-128.5 0,-82.25 172,-82.25 172,-128.5"/>
<text text-anchor="start" x="8" y="-115" font-family="Helvetica,sans-Serif" font-size="10.00">/home/runner/work/FastLED</text>
<text text-anchor="start" x="8" y="-102.25" font-family="Helvetica,sans-Serif" font-size="10.00">/FastLED/examples/FxPride2015</text>
<text text-anchor="middle" x="86" y="-89.5" font-family="Helvetica,sans-Serif" font-size="10.00">/FxPride2015.ino</text>
</a>
</g>
</g>
<!-- Node21&#45;&gt;Node22 -->
<g id="edge23_Node000021_Node000022" class="edge">
<title>Node21&#45;&gt;Node22</title>
<g id="a_edge23_Node000021_Node000022"><a xlink:title=" ">
<path fill="none" stroke="#63b8ff" d="M109.43,-160.1C105.04,-150.03 100.08,-138.66 95.86,-128.98"/>
<polygon fill="#63b8ff" stroke="#63b8ff" points="106.11,-161.23 113.31,-169 112.52,-158.43 106.11,-161.23"/>
</a>
</g>
</g>
<!-- Node24 -->
<g id="Node000024" class="node">
<title>Node24</title>
<g id="a_Node000024"><a xlink:href="../../dd/d4d/_fx_twinkle_fox_8ino.html" target="_top" xlink:title=" ">
<polygon fill="white" stroke="#666666" points="367.62,-128.5 190.38,-128.5 190.38,-82.25 367.62,-82.25 367.62,-128.5"/>
<text text-anchor="start" x="198.38" y="-115" font-family="Helvetica,sans-Serif" font-size="10.00">/home/runner/work/FastLED</text>
<text text-anchor="start" x="198.38" y="-102.25" font-family="Helvetica,sans-Serif" font-size="10.00">/FastLED/examples/FxTwinkleFox</text>
<text text-anchor="middle" x="279" y="-89.5" font-family="Helvetica,sans-Serif" font-size="10.00">/FxTwinkleFox.ino</text>
</a>
</g>
</g>
<!-- Node23&#45;&gt;Node24 -->
<g id="edge25_Node000023_Node000024" class="edge">
<title>Node23&#45;&gt;Node24</title>
<g id="a_edge25_Node000023_Node000024"><a xlink:title=" ">
<path fill="none" stroke="#63b8ff" d="M298.97,-159.78C295.23,-149.79 291.03,-138.55 287.45,-128.98"/>
<polygon fill="#63b8ff" stroke="#63b8ff" points="295.62,-160.83 302.4,-168.97 302.18,-158.38 295.62,-160.83"/>
</a>
</g>
</g>
<!-- Node25&#45;&gt;Node4 -->
<g id="edge31_Node000025_Node000004" class="edge">
<title>Node25&#45;&gt;Node4</title>
<g id="a_edge31_Node000025_Node000004"><a xlink:title=" ">
<path fill="none" stroke="#63b8ff" d="M941.53,-168.28C949.43,-166.85 957.36,-165.55 965,-164.5 1215.16,-130.14 1281.35,-159.08 1532,-128.5 1547.28,-126.64 1563.54,-124.09 1579.04,-121.38"/>
<polygon fill="#63b8ff" stroke="#63b8ff" points="941.06,-164.81 931.89,-170.11 942.36,-171.69 941.06,-164.81"/>
</a>
</g>
</g>
<!-- Node25&#45;&gt;Node7 -->
<g id="edge27_Node000025_Node000007" class="edge">
<title>Node25&#45;&gt;Node7</title>
<g id="a_edge27_Node000025_Node000007"><a xlink:title=" ">
<path fill="none" stroke="#63b8ff" d="M893.41,-163.85C907.1,-153.66 922.87,-141.1 936,-128.5 955.4,-109.88 952.94,-97.62 975,-82.25 999.39,-65.27 1029.29,-52.68 1056.67,-43.65"/>
<polygon fill="#63b8ff" stroke="#63b8ff" points="891.55,-160.88 885.55,-169.61 895.69,-166.53 891.55,-160.88"/>
</a>
</g>
</g>
<!-- Node25&#45;&gt;Node9 -->
<g id="edge30_Node000025_Node000009" class="edge">
<title>Node25&#45;&gt;Node9</title>
<g id="a_edge30_Node000025_Node000009"><a xlink:title=" ">
<path fill="none" stroke="#63b8ff" d="M790.67,-167.77C786.05,-166.64 781.46,-165.54 777,-164.5 697.95,-146.16 649.41,-191.28 598,-128.5 543.95,-62.49 684.86,-37.98 780.37,-29.06"/>
<polygon fill="#63b8ff" stroke="#63b8ff" points="789.43,-171.07 799.99,-170.11 791.14,-164.28 789.43,-171.07"/>
</a>
</g>
</g>
<!-- Node26 -->
<g id="Node000026" class="node">
<title>Node26</title>
<g id="a_Node000026"><a xlink:href="../../d9/d28/fl_2file__system_8h.html" target="_top" xlink:title=" ">
<polygon fill="#fff0f0" stroke="red" points="926.88,-122.12 775.12,-122.12 775.12,-88.62 926.88,-88.62 926.88,-122.12"/>
<text text-anchor="start" x="783.12" y="-108.62" font-family="Helvetica,sans-Serif" font-size="10.00">/home/runner/work/FastLED</text>
<text text-anchor="middle" x="851" y="-95.88" font-family="Helvetica,sans-Serif" font-size="10.00">/FastLED/src/fl/file_system.h</text>
</a>
</g>
</g>
<!-- Node25&#45;&gt;Node26 -->
<g id="edge28_Node000025_Node000026" class="edge">
<title>Node25&#45;&gt;Node26</title>
<g id="a_edge28_Node000025_Node000026"><a xlink:title=" ">
<path fill="none" stroke="#63b8ff" d="M857.56,-159C856.05,-146.86 854.32,-133.03 853.02,-122.59"/>
<polygon fill="#63b8ff" stroke="#63b8ff" points="854.08,-159.39 858.79,-168.88 861.03,-158.53 854.08,-159.39"/>
</a>
</g>
</g>
<!-- Node30 -->
<g id="Node000030" class="node">
<title>Node30</title>
<g id="a_Node000030"><a xlink:href="../../d0/d05/video_8cpp.html" target="_top" xlink:title=" ">
<polygon fill="white" stroke="#666666" points="756.75,-122.12 607.25,-122.12 607.25,-88.62 756.75,-88.62 756.75,-122.12"/>
<text text-anchor="start" x="615.25" y="-108.62" font-family="Helvetica,sans-Serif" font-size="10.00">/home/runner/work/FastLED</text>
<text text-anchor="middle" x="682" y="-95.88" font-family="Helvetica,sans-Serif" font-size="10.00">/FastLED/src/fx/video.cpp</text>
</a>
</g>
</g>
<!-- Node25&#45;&gt;Node30 -->
<g id="edge32_Node000025_Node000030" class="edge">
<title>Node25&#45;&gt;Node30</title>
<g id="a_edge32_Node000025_Node000030"><a xlink:title=" ">
<path fill="none" stroke="#63b8ff" d="M814.53,-165.79C784.48,-152.32 745.94,-135.04 718.17,-122.59"/>
<polygon fill="#63b8ff" stroke="#63b8ff" points="812.84,-168.87 823.4,-169.77 815.7,-162.48 812.84,-168.87"/>
</a>
</g>
</g>
<!-- Node26&#45;&gt;Node7 -->
<g id="edge29_Node000026_Node000007" class="edge">
<title>Node26&#45;&gt;Node7</title>
<g id="a_edge29_Node000026_Node000007"><a xlink:title=" ">
<path fill="none" stroke="#63b8ff" d="M919.73,-85.02C961.04,-73.39 1013.76,-58.54 1056.81,-46.42"/>
<polygon fill="#63b8ff" stroke="#63b8ff" points="918.81,-81.65 910.13,-87.72 920.71,-88.38 918.81,-81.65"/>
</a>
</g>
</g>
<!-- Node37 -->
<g id="Node000037" class="node">
<title>Node37</title>
<g id="a_Node000037"><a xlink:href="../../d3/dc3/animartrix_8hpp.html" target="_top" xlink:title=" ">
<polygon fill="white" stroke="#666666" points="2116.62,-122.12 1939.38,-122.12 1939.38,-88.62 2116.62,-88.62 2116.62,-122.12"/>
<text text-anchor="start" x="1947.38" y="-108.62" font-family="Helvetica,sans-Serif" font-size="10.00">/home/runner/work/FastLED</text>
<text text-anchor="middle" x="2028" y="-95.88" font-family="Helvetica,sans-Serif" font-size="10.00">/FastLED/src/fx/2d/animartrix.hpp</text>
</a>
</g>
</g>
<!-- Node36&#45;&gt;Node37 -->
<g id="edge34_Node000036_Node000037" class="edge">
<title>Node36&#45;&gt;Node37</title>
<g id="a_edge34_Node000036_Node000037"><a xlink:title=" ">
<path fill="none" stroke="#63b8ff" d="M2112.02,-164.01C2092.8,-150.82 2069,-134.5 2051.64,-122.59"/>
<polygon fill="#63b8ff" stroke="#63b8ff" points="2109.85,-166.76 2120.08,-169.53 2113.81,-160.99 2109.85,-166.76"/>
</a>
</g>
</g>
<!-- Node38 -->
<g id="Node000038" class="node">
<title>Node38</title>
<g id="a_Node000038"><a xlink:href="../../d6/d66/noisepalette_8cpp.html" target="_top" xlink:title=" ">
<polygon fill="white" stroke="#666666" points="2315.12,-39.88 2128.88,-39.88 2128.88,-6.38 2315.12,-6.38 2315.12,-39.88"/>
<text text-anchor="start" x="2136.88" y="-26.38" font-family="Helvetica,sans-Serif" font-size="10.00">/home/runner/work/FastLED</text>
<text text-anchor="middle" x="2222" y="-13.62" font-family="Helvetica,sans-Serif" font-size="10.00">/FastLED/src/fx/2d/noisepalette.cpp</text>
</a>
</g>
</g>
<!-- Node36&#45;&gt;Node38 -->
<g id="edge38_Node000036_Node000038" class="edge">
<title>Node36&#45;&gt;Node38</title>
<g id="a_edge38_Node000036_Node000038"><a xlink:title=" ">
<path fill="none" stroke="#63b8ff" d="M2145.95,-159.03C2147.69,-137.11 2152.42,-106.27 2165,-82.25 2173.66,-65.72 2188.54,-50.79 2200.93,-40.19"/>
<polygon fill="#63b8ff" stroke="#63b8ff" points="2142.46,-158.77 2145.33,-168.97 2149.44,-159.2 2142.46,-158.77"/>
</a>
</g>
</g>
<!-- Node39 -->
<g id="Node000039" class="node">
<title>Node39</title>
<g id="a_Node000039"><a xlink:href="../../d6/dc7/noisepalette_8h.html" target="_top" xlink:title="Demonstrates how to mix noise generation with color palettes on a 2D LED matrix.">
<polygon fill="white" stroke="#666666" points="1921.5,-122.12 1746.5,-122.12 1746.5,-88.62 1921.5,-88.62 1921.5,-122.12"/>
<text text-anchor="start" x="1754.5" y="-108.62" font-family="Helvetica,sans-Serif" font-size="10.00">/home/runner/work/FastLED</text>
<text text-anchor="middle" x="1834" y="-95.88" font-family="Helvetica,sans-Serif" font-size="10.00">/FastLED/src/fx/2d/noisepalette.h</text>
</a>
</g>
</g>
<!-- Node36&#45;&gt;Node39 -->
<g id="edge39_Node000036_Node000039" class="edge">
<title>Node36&#45;&gt;Node39</title>
<g id="a_edge39_Node000036_Node000039"><a xlink:title=" ">
<path fill="none" stroke="#63b8ff" d="M2071.02,-167.54C2017.94,-153.84 1947.19,-135.58 1896.84,-122.59"/>
<polygon fill="#63b8ff" stroke="#63b8ff" points="2070.04,-170.9 2080.6,-170.01 2071.79,-164.12 2070.04,-170.9"/>
</a>
</g>
</g>
<!-- Node40 -->
<g id="Node000040" class="node">
<title>Node40</title>
<g id="a_Node000040"><a xlink:href="../../d3/db8/redsquare_8h.html" target="_top" xlink:title=" ">
<polygon fill="white" stroke="#666666" points="2336.5,-122.12 2173.5,-122.12 2173.5,-88.62 2336.5,-88.62 2336.5,-122.12"/>
<text text-anchor="start" x="2181.5" y="-108.62" font-family="Helvetica,sans-Serif" font-size="10.00">/home/runner/work/FastLED</text>
<text text-anchor="middle" x="2255" y="-95.88" font-family="Helvetica,sans-Serif" font-size="10.00">/FastLED/src/fx/2d/redsquare.h</text>
</a>
</g>
</g>
<!-- Node36&#45;&gt;Node40 -->
<g id="edge45_Node000036_Node000040" class="edge">
<title>Node36&#45;&gt;Node40</title>
<g id="a_edge45_Node000036_Node000040"><a xlink:title=" ">
<path fill="none" stroke="#63b8ff" d="M2176.25,-163.83C2194.28,-150.67 2216.53,-134.44 2232.77,-122.59"/>
<polygon fill="#63b8ff" stroke="#63b8ff" points="2174.5,-160.77 2168.48,-169.49 2178.62,-166.43 2174.5,-160.77"/>
</a>
</g>
</g>
<!-- Node41 -->
<g id="Node000041" class="node">
<title>Node41</title>
<g id="a_Node000041"><a xlink:href="../../dc/d8c/scale__up_8cpp.html" target="_top" xlink:title=" ">
<polygon fill="white" stroke="#666666" points="2531.12,-39.88 2362.88,-39.88 2362.88,-6.38 2531.12,-6.38 2531.12,-39.88"/>
<text text-anchor="start" x="2370.88" y="-26.38" font-family="Helvetica,sans-Serif" font-size="10.00">/home/runner/work/FastLED</text>
<text text-anchor="middle" x="2447" y="-13.62" font-family="Helvetica,sans-Serif" font-size="10.00">/FastLED/src/fx/2d/scale_up.cpp</text>
</a>
</g>
</g>
<!-- Node36&#45;&gt;Node41 -->
<g id="edge46_Node000036_Node000041" class="edge">
<title>Node36&#45;&gt;Node41</title>
<g id="a_edge46_Node000036_Node000041"><a xlink:title=" ">
<path fill="none" stroke="#63b8ff" d="M2231,-173.37C2268.48,-164.76 2311.62,-150.83 2346,-128.5 2368.55,-113.86 2366.49,-101.76 2385,-82.25 2399.01,-67.48 2415.94,-51.74 2428.56,-40.37"/>
<polygon fill="#63b8ff" stroke="#63b8ff" points="2230.57,-169.88 2221.55,-175.44 2232.07,-176.72 2230.57,-169.88"/>
</a>
</g>
</g>
<!-- Node42 -->
<g id="Node000042" class="node">
<title>Node42</title>
<g id="a_Node000042"><a xlink:href="../../d2/d74/scale__up_8h.html" target="_top" xlink:title="Expands a grid using bilinear interpolation and scaling up.">
<polygon fill="white" stroke="#666666" points="2550.5,-122.12 2393.5,-122.12 2393.5,-88.62 2550.5,-88.62 2550.5,-122.12"/>
<text text-anchor="start" x="2401.5" y="-108.62" font-family="Helvetica,sans-Serif" font-size="10.00">/home/runner/work/FastLED</text>
<text text-anchor="middle" x="2472" y="-95.88" font-family="Helvetica,sans-Serif" font-size="10.00">/FastLED/src/fx/2d/scale_up.h</text>
</a>
</g>
</g>
<!-- Node36&#45;&gt;Node42 -->
<g id="edge47_Node000036_Node000042" class="edge">
<title>Node36&#45;&gt;Node42</title>
<g id="a_edge47_Node000036_Node000042"><a xlink:title=" ">
<path fill="none" stroke="#63b8ff" d="M2222.09,-167.71C2277.97,-153.99 2352.76,-135.64 2405.93,-122.59"/>
<polygon fill="#63b8ff" stroke="#63b8ff" points="2221.52,-164.24 2212.64,-170.02 2223.19,-171.04 2221.52,-164.24"/>
</a>
</g>
</g>
<!-- Node37&#45;&gt;Node5 -->
<g id="edge35_Node000037_Node000005" class="edge">
<title>Node37&#45;&gt;Node5</title>
<g id="a_edge35_Node000037_Node000005"><a xlink:title=" ">
<path fill="none" stroke="#63b8ff" d="M2026.29,-76.89C2025.67,-67.05 2024.99,-56.1 2024.41,-46.73"/>
<polygon fill="#63b8ff" stroke="#63b8ff" points="2022.78,-76.86 2026.89,-86.62 2029.77,-76.43 2022.78,-76.86"/>
</a>
</g>
</g>
<!-- Node37&#45;&gt;Node6 -->
<g id="edge36_Node000037_Node000006" class="edge">
<title>Node37&#45;&gt;Node6</title>
<g id="a_edge36_Node000037_Node000006"><a xlink:title=" ">
<path fill="none" stroke="#63b8ff" d="M1979.49,-83.78C1952.8,-72.45 1919.63,-58.36 1892.23,-46.73"/>
<polygon fill="#63b8ff" stroke="#63b8ff" points="1977.79,-86.86 1988.36,-87.54 1980.52,-80.41 1977.79,-86.86"/>
</a>
</g>
</g>
<!-- Node37&#45;&gt;Node8 -->
<g id="edge37_Node000037_Node000008" class="edge">
<title>Node37&#45;&gt;Node8</title>
<g id="a_edge37_Node000037_Node000008"><a xlink:title=" ">
<path fill="none" stroke="#63b8ff" d="M1946.83,-85.7C1941.48,-84.52 1936.16,-83.36 1931,-82.25 1851.66,-65.23 1831.05,-64.59 1752,-46.25 1749.06,-45.57 1746.07,-44.86 1743.05,-44.13"/>
<polygon fill="#63b8ff" stroke="#63b8ff" points="1945.85,-89.07 1956.37,-87.82 1947.37,-82.23 1945.85,-89.07"/>
</a>
</g>
</g>
<!-- Node39&#45;&gt;Node2 -->
<g id="edge42_Node000039_Node000002" class="edge">
<title>Node39&#45;&gt;Node2</title>
<g id="a_edge42_Node000039_Node000002"><a xlink:title=" ">
<path fill="none" stroke="#63b8ff" d="M1752.61,-85.59C1692.41,-71.67 1615.61,-53.85 1584,-46.25 1581.06,-45.54 1578.06,-44.82 1575.04,-44.08"/>
<polygon fill="#63b8ff" stroke="#63b8ff" points="1751.64,-88.96 1762.17,-87.8 1753.21,-82.14 1751.64,-88.96"/>
</a>
</g>
</g>
<!-- Node39&#45;&gt;Node6 -->
<g id="edge40_Node000039_Node000006" class="edge">
<title>Node39&#45;&gt;Node6</title>
<g id="a_edge40_Node000039_Node000006"><a xlink:title=" ">
<path fill="none" stroke="#63b8ff" d="M1835.71,-76.89C1836.33,-67.05 1837.01,-56.1 1837.59,-46.73"/>
<polygon fill="#63b8ff" stroke="#63b8ff" points="1832.23,-76.43 1835.11,-86.62 1839.22,-76.86 1832.23,-76.43"/>
</a>
</g>
</g>
<!-- Node39&#45;&gt;Node7 -->
<g id="edge41_Node000039_Node000007" class="edge">
<title>Node39&#45;&gt;Node7</title>
<g id="a_edge41_Node000039_Node000007"><a xlink:title=" ">
<path fill="none" stroke="#63b8ff" d="M1757.73,-85.85C1751.08,-84.52 1744.43,-83.3 1738,-82.25 1639.42,-66.2 1354.88,-41.9 1215.22,-30.48"/>
<polygon fill="#63b8ff" stroke="#63b8ff" points="1756.92,-89.26 1767.42,-87.86 1758.34,-82.4 1756.92,-89.26"/>
</a>
</g>
</g>
<!-- Node39&#45;&gt;Node8 -->
<g id="edge43_Node000039_Node000008" class="edge">
<title>Node39&#45;&gt;Node8</title>
<g id="a_edge43_Node000039_Node000008"><a xlink:title=" ">
<path fill="none" stroke="#63b8ff" d="M1790.15,-83.17C1766.92,-71.95 1738.39,-58.16 1714.75,-46.73"/>
<polygon fill="#63b8ff" stroke="#63b8ff" points="1788.52,-86.28 1799.04,-87.48 1791.56,-79.97 1788.52,-86.28"/>
</a>
</g>
</g>
<!-- Node39&#45;&gt;Node38 -->
<g id="edge44_Node000039_Node000038" class="edge">
<title>Node39&#45;&gt;Node38</title>
<g id="a_edge44_Node000039_Node000038"><a xlink:title=" ">
<path fill="none" stroke="#63b8ff" d="M1914,-85.69C1919.41,-84.5 1924.78,-83.35 1930,-82.25 2014.11,-64.6 2035.77,-63.36 2120,-46.25 2129.15,-44.39 2138.74,-42.39 2148.23,-40.37"/>
<polygon fill="#63b8ff" stroke="#63b8ff" points="1913.37,-82.24 1904.36,-87.83 1914.88,-89.08 1913.37,-82.24"/>
</a>
</g>
</g>
<!-- Node42&#45;&gt;Node41 -->
<g id="edge48_Node000042_Node000041" class="edge">
<title>Node42&#45;&gt;Node41</title>
<g id="a_edge48_Node000042_Node000041"><a xlink:title=" ">
<path fill="none" stroke="#63b8ff" d="M2463.63,-77.51C2459.79,-65.19 2455.37,-51 2452.05,-40.34"/>
<polygon fill="#63b8ff" stroke="#63b8ff" points="2460.17,-78.18 2466.49,-86.69 2466.86,-76.1 2460.17,-78.18"/>
</a>
</g>
</g>
</g>
</svg>
