<?xml version="1.0" encoding="UTF-8" standalone="no"?>
<!DOCTYPE svg PUBLIC "-//W3C//DTD SVG 1.1//EN"
 "http://www.w3.org/Graphics/SVG/1.1/DTD/svg11.dtd">
<!-- Generated by graphviz version 12.2.1 (20241206.2353)
 -->
<!-- Title: ChangePaletteAndSettingsPeriodically Pages: 1 -->
<svg width="441pt" height="119pt"
 viewBox="0.00 0.00 440.75 119.12" xmlns="http://www.w3.org/2000/svg" xmlns:xlink="http://www.w3.org/1999/xlink">
<g id="graph0" class="graph" transform="scale(1 1) rotate(0) translate(4 115.12)">
<title>ChangePaletteAndSettingsPeriodically</title>
<!-- Node1 -->
<g id="Node000001" class="node">
<title>Node1</title>
<g id="a_Node000001"><a xlink:title=" ">
<polygon fill="#999999" stroke="#666666" points="145,-66.12 0,-66.12 0,-32.62 145,-32.62 145,-66.12"/>
<text text-anchor="start" x="8" y="-52.62" font-family="Helvetica,sans-Serif" font-size="10.00">ChangePaletteAndSettings</text>
<text text-anchor="middle" x="72.5" y="-39.88" font-family="Helvetica,sans-Serif" font-size="10.00">Periodically</text>
</a>
</g>
</g>
<!-- Node2 -->
<g id="Node000002" class="node">
<title>Node2</title>
<g id="a_Node000002"><a xlink:href="../../d1/dc5/_color_palette_8ino.html#afea43f4d537a50569a537b9fa2bc2f26" target="_top" xlink:title=" ">
<polygon fill="white" stroke="#666666" points="335.38,-111.12 182.88,-111.12 182.88,-77.62 335.38,-77.62 335.38,-111.12"/>
<text text-anchor="start" x="190.88" y="-97.62" font-family="Helvetica,sans-Serif" font-size="10.00">SetupBlackAndWhiteStriped</text>
<text text-anchor="middle" x="259.12" y="-84.88" font-family="Helvetica,sans-Serif" font-size="10.00">Palette</text>
</a>
</g>
</g>
<!-- Node1&#45;&gt;Node2 -->
<g id="edge1_Node000001_Node000002" class="edge">
<title>Node1&#45;&gt;Node2</title>
<g id="a_edge1_Node000001_Node000002"><a xlink:title=" ">
<path fill="none" stroke="#63b8ff" d="M144.09,-66.58C154.67,-69.16 165.65,-71.83 176.43,-74.46"/>
<polygon fill="#63b8ff" stroke="#63b8ff" points="175.56,-77.85 186.1,-76.82 177.22,-71.05 175.56,-77.85"/>
</a>
</g>
</g>
<!-- Node4 -->
<g id="Node000004" class="node">
<title>Node4</title>
<g id="a_Node000004"><a xlink:href="../../d1/dc5/_color_palette_8ino.html#aea1a93f40934fd32c715042e04540d46" target="_top" xlink:title=" ">
<polygon fill="white" stroke="#666666" points="337.25,-59.75 181,-59.75 181,-39 337.25,-39 337.25,-59.75"/>
<text text-anchor="middle" x="259.12" y="-46.25" font-family="Helvetica,sans-Serif" font-size="10.00">SetupPurpleAndGreenPalette</text>
</a>
</g>
</g>
<!-- Node1&#45;&gt;Node4 -->
<g id="edge3_Node000001_Node000004" class="edge">
<title>Node1&#45;&gt;Node4</title>
<g id="a_edge3_Node000001_Node000004"><a xlink:title=" ">
<path fill="none" stroke="#63b8ff" d="M145.41,-49.38C153.25,-49.38 161.31,-49.38 169.32,-49.38"/>
<polygon fill="#63b8ff" stroke="#63b8ff" points="169.1,-52.88 179.1,-49.38 169.1,-45.88 169.1,-52.88"/>
</a>
</g>
</g>
<!-- Node5 -->
<g id="Node000005" class="node">
<title>Node5</title>
<g id="a_Node000005"><a xlink:href="../../da/dda/_noise_plus_palette_8ino.html#af5f045646a260d2cf4131fcdd548901f" target="_top" xlink:title=" ">
<polygon fill="white" stroke="#666666" points="318.12,-20.75 200.12,-20.75 200.12,0 318.12,0 318.12,-20.75"/>
<text text-anchor="middle" x="259.12" y="-7.25" font-family="Helvetica,sans-Serif" font-size="10.00">SetupRandomPalette</text>
</a>
</g>
</g>
<!-- Node1&#45;&gt;Node5 -->
<g id="edge4_Node000001_Node000005" class="edge">
<title>Node1&#45;&gt;Node5</title>
<g id="a_edge4_Node000001_Node000005"><a xlink:title=" ">
<path fill="none" stroke="#63b8ff" d="M145.41,-34.18C162.03,-30.67 179.57,-26.97 195.74,-23.55"/>
<polygon fill="#63b8ff" stroke="#63b8ff" points="196.15,-27.04 205.21,-21.55 194.7,-20.19 196.15,-27.04"/>
</a>
</g>
</g>
<!-- Node3 -->
<g id="Node000003" class="node">
<title>Node3</title>
<g id="a_Node000003"><a xlink:href="../../da/de3/group___color_fills.html#gac0bcd5712f9f57a186f2c5f96911af1d" target="_top" xlink:title="Fill a range of LEDs with a solid color.">
<polygon fill="white" stroke="#666666" points="431.25,-104.75 374.75,-104.75 374.75,-84 431.25,-84 431.25,-104.75"/>
<text text-anchor="middle" x="403" y="-91.25" font-family="Helvetica,sans-Serif" font-size="10.00">fill_solid</text>
</a>
</g>
</g>
<!-- Node2&#45;&gt;Node3 -->
<g id="edge2_Node000002_Node000003" class="edge">
<title>Node2&#45;&gt;Node3</title>
<g id="a_edge2_Node000002_Node000003"><a xlink:title=" ">
<path fill="none" stroke="#63b8ff" d="M335.63,-94.38C345.08,-94.38 354.41,-94.38 362.97,-94.38"/>
<polygon fill="#63b8ff" stroke="#63b8ff" points="362.96,-97.88 372.96,-94.38 362.96,-90.88 362.96,-97.88"/>
</a>
</g>
</g>
<!-- Node6 -->
<g id="Node000006" class="node">
<title>Node6</title>
<g id="a_Node000006"><a xlink:href="../../d2/d0d/group___random.html#ga4e63c74426f6516f28470dc1b814aefe" target="_top" xlink:title="Generate an 8&#45;bit random number.">
<polygon fill="white" stroke="#666666" points="432.75,-20.75 373.25,-20.75 373.25,0 432.75,0 432.75,-20.75"/>
<text text-anchor="middle" x="403" y="-7.25" font-family="Helvetica,sans-Serif" font-size="10.00">random8</text>
</a>
</g>
</g>
<!-- Node5&#45;&gt;Node6 -->
<g id="edge5_Node000005_Node000006" class="edge">
<title>Node5&#45;&gt;Node6</title>
<g id="a_edge5_Node000005_Node000006"><a xlink:title=" ">
<path fill="none" stroke="#63b8ff" d="M318.24,-10.38C332.8,-10.38 348.11,-10.38 361.59,-10.38"/>
<polygon fill="#63b8ff" stroke="#63b8ff" points="361.4,-13.88 371.4,-10.38 361.4,-6.88 361.4,-13.88"/>
</a>
</g>
</g>
</g>
</svg>
