<?xml version="1.0" encoding="UTF-8" standalone="no"?>
<!DOCTYPE svg PUBLIC "-//W3C//DTD SVG 1.1//EN"
 "http://www.w3.org/Graphics/SVG/1.1/DTD/svg11.dtd">
<!-- Generated by graphviz version 12.2.1 (20241206.2353)
 -->
<!-- Title: fillnoise8 Pages: 1 -->
<svg width="444pt" height="144pt"
 viewBox="0.00 0.00 444.25 143.75" xmlns="http://www.w3.org/2000/svg" xmlns:xlink="http://www.w3.org/1999/xlink">
<g id="graph0" class="graph" transform="scale(1 1) rotate(0) translate(4 139.75)">
<title>fillnoise8</title>
<!-- Node1 -->
<g id="Node000001" class="node">
<title>Node1</title>
<g id="a_Node000001"><a xlink:title=" ">
<polygon fill="#999999" stroke="#666666" points="60.25,-77.75 0,-77.75 0,-57 60.25,-57 60.25,-77.75"/>
<text text-anchor="middle" x="30.12" y="-64.25" font-family="Helvetica,sans-Serif" font-size="10.00">fillnoise8</text>
</a>
</g>
</g>
<!-- Node2 -->
<g id="Node000002" class="node">
<title>Node2</title>
<g id="a_Node000002"><a xlink:href="../../d8/df9/group___noise_generation.html#gaa521ccca6038d7b5e881fe2e8f35d3bc" target="_top" xlink:title="8&#45;Bit, fixed point implementation of Perlin&#39;s noise.">
<polygon fill="white" stroke="#666666" points="147.5,-134.75 96.25,-134.75 96.25,-114 147.5,-114 147.5,-134.75"/>
<text text-anchor="middle" x="121.88" y="-121.25" font-family="Helvetica,sans-Serif" font-size="10.00">inoise8</text>
</a>
</g>
</g>
<!-- Node1&#45;&gt;Node2 -->
<g id="edge1_Node000001_Node000002" class="edge">
<title>Node1&#45;&gt;Node2</title>
<g id="a_edge1_Node000001_Node000002"><a xlink:title=" ">
<path fill="none" stroke="#63b8ff" d="M48.01,-78.1C61.09,-86.4 79.45,-98.06 94.47,-107.6"/>
<polygon fill="#63b8ff" stroke="#63b8ff" points="92.17,-110.29 102.49,-112.7 95.92,-104.38 92.17,-110.29"/>
</a>
</g>
</g>
<!-- Node8 -->
<g id="Node000008" class="node">
<title>Node8</title>
<g id="a_Node000008"><a xlink:href="../../d0/da8/group___scaling.html#gad7535ccda9c92470c4e6ee0265585555" target="_top" xlink:title="Scale one byte by a second one, which is treated as the numerator of a fraction whose denominator is ...">
<polygon fill="white" stroke="#666666" points="436.25,-77.75 388.75,-77.75 388.75,-57 436.25,-57 436.25,-77.75"/>
<text text-anchor="middle" x="412.5" y="-64.25" font-family="Helvetica,sans-Serif" font-size="10.00">scale8</text>
</a>
</g>
</g>
<!-- Node1&#45;&gt;Node8 -->
<g id="edge9_Node000001_Node000008" class="edge">
<title>Node1&#45;&gt;Node8</title>
<g id="a_edge9_Node000001_Node000008"><a xlink:title=" ">
<path fill="none" stroke="#63b8ff" d="M60.66,-67.38C130.1,-67.38 303.47,-67.38 377.32,-67.38"/>
<polygon fill="#63b8ff" stroke="#63b8ff" points="377.17,-70.88 387.17,-67.38 377.17,-63.88 377.17,-70.88"/>
</a>
</g>
</g>
<!-- Node9 -->
<g id="Node000009" class="node">
<title>Node9</title>
<g id="a_Node000009"><a xlink:href="../../d5/d98/group___math.html#ga07133b3085824d0fcd4f5086d286c4b5" target="_top" xlink:title="Add one byte to another, saturating at 0xFF.">
<polygon fill="white" stroke="#666666" points="243.75,-96.75 197.75,-96.75 197.75,-76 243.75,-76 243.75,-96.75"/>
<text text-anchor="middle" x="220.75" y="-83.25" font-family="Helvetica,sans-Serif" font-size="10.00">qadd8</text>
</a>
</g>
</g>
<!-- Node1&#45;&gt;Node9 -->
<g id="edge7_Node000001_Node000009" class="edge">
<title>Node1&#45;&gt;Node9</title>
<g id="a_edge7_Node000001_Node000009"><a xlink:title=" ">
<path fill="none" stroke="#63b8ff" d="M60.6,-70.34C94.58,-73.77 150.32,-79.38 186,-82.98"/>
<polygon fill="#63b8ff" stroke="#63b8ff" points="185.47,-86.44 195.77,-83.96 186.17,-79.48 185.47,-86.44"/>
</a>
</g>
</g>
<!-- Node10 -->
<g id="Node000010" class="node">
<title>Node10</title>
<g id="a_Node000010"><a xlink:href="../../d5/d98/group___math.html#gae261576a4c8155d6c0ba8615b2d2ecb3" target="_top" xlink:title="Subtract one byte from another, saturating at 0x00.">
<polygon fill="white" stroke="#666666" points="144.5,-20.75 99.25,-20.75 99.25,0 144.5,0 144.5,-20.75"/>
<text text-anchor="middle" x="121.88" y="-7.25" font-family="Helvetica,sans-Serif" font-size="10.00">qsub8</text>
</a>
</g>
</g>
<!-- Node1&#45;&gt;Node10 -->
<g id="edge8_Node000001_Node000010" class="edge">
<title>Node1&#45;&gt;Node10</title>
<g id="a_edge8_Node000001_Node000010"><a xlink:title=" ">
<path fill="none" stroke="#63b8ff" d="M48.01,-56.65C61.09,-48.35 79.45,-36.69 94.47,-27.15"/>
<polygon fill="#63b8ff" stroke="#63b8ff" points="95.92,-30.37 102.49,-22.05 92.17,-24.46 95.92,-30.37"/>
</a>
</g>
</g>
<!-- Node3 -->
<g id="Node000003" class="node">
<title>Node3</title>
<g id="a_Node000003"><a xlink:href="../../d8/df9/group___noise_generation.html#ga6c57ed3ea69e819c29602578ecbabd71" target="_top" xlink:title="8&#45;bit, fixed point implementation of Perlin&#39;s noise without scaling.">
<polygon fill="white" stroke="#666666" points="258,-135.75 183.5,-135.75 183.5,-115 258,-115 258,-135.75"/>
<text text-anchor="middle" x="220.75" y="-122.25" font-family="Helvetica,sans-Serif" font-size="10.00">inoise8_raw</text>
</a>
</g>
</g>
<!-- Node2&#45;&gt;Node3 -->
<g id="edge2_Node000002_Node000003" class="edge">
<title>Node2&#45;&gt;Node3</title>
<g id="a_edge2_Node000002_Node000003"><a xlink:title=" ">
<path fill="none" stroke="#63b8ff" d="M147.82,-124.63C155.22,-124.71 163.59,-124.8 171.93,-124.88"/>
<polygon fill="#63b8ff" stroke="#63b8ff" points="171.65,-128.38 181.68,-124.98 171.72,-121.38 171.65,-128.38"/>
</a>
</g>
</g>
<!-- Node2&#45;&gt;Node9 -->
<g id="edge6_Node000002_Node000009" class="edge">
<title>Node2&#45;&gt;Node9</title>
<g id="a_edge6_Node000002_Node000009"><a xlink:title=" ">
<path fill="none" stroke="#63b8ff" d="M147.82,-114.59C159.7,-109.93 174.07,-104.29 186.83,-99.29"/>
<polygon fill="#63b8ff" stroke="#63b8ff" points="188.09,-102.55 196.12,-95.64 185.53,-96.04 188.09,-102.55"/>
</a>
</g>
</g>
<!-- Node4 -->
<g id="Node000004" class="node">
<title>Node4</title>
<g id="a_Node000004"><a xlink:href="../../d6/de8/noise_8cpp.html#a07165473858feff9f2415a77bf841731" target="_top" xlink:title=" ">
<polygon fill="#fff0f0" stroke="red" points="345.25,-135.75 301.5,-135.75 301.5,-115 345.25,-115 345.25,-135.75"/>
<text text-anchor="middle" x="323.38" y="-122.25" font-family="Helvetica,sans-Serif" font-size="10.00">grad8</text>
</a>
</g>
</g>
<!-- Node3&#45;&gt;Node4 -->
<g id="edge3_Node000003_Node000004" class="edge">
<title>Node3&#45;&gt;Node4</title>
<g id="a_edge3_Node000003_Node000004"><a xlink:title=" ">
<path fill="none" stroke="#63b8ff" d="M258.36,-125.38C268.7,-125.38 279.88,-125.38 289.95,-125.38"/>
<polygon fill="#63b8ff" stroke="#63b8ff" points="289.64,-128.88 299.64,-125.38 289.64,-121.88 289.64,-128.88"/>
</a>
</g>
</g>
<!-- Node7 -->
<g id="Node000007" class="node">
<title>Node7</title>
<g id="a_Node000007"><a xlink:href="../../d6/de8/noise_8cpp.html#ad89cf56a81ef482a0027a47eada176bb" target="_top" xlink:title=" ">
<polygon fill="white" stroke="#666666" points="352.75,-96.75 294,-96.75 294,-76 352.75,-76 352.75,-96.75"/>
<text text-anchor="middle" x="323.38" y="-83.25" font-family="Helvetica,sans-Serif" font-size="10.00">lerp7by8</text>
</a>
</g>
</g>
<!-- Node3&#45;&gt;Node7 -->
<g id="edge4_Node000003_Node000007" class="edge">
<title>Node3&#45;&gt;Node7</title>
<g id="a_edge4_Node000003_Node000007"><a xlink:title=" ">
<path fill="none" stroke="#63b8ff" d="M249.78,-114.51C260.36,-110.41 272.58,-105.67 283.94,-101.27"/>
<polygon fill="#63b8ff" stroke="#63b8ff" points="285.03,-104.6 293.08,-97.73 282.5,-98.08 285.03,-104.6"/>
</a>
</g>
</g>
<!-- Node7&#45;&gt;Node8 -->
<g id="edge5_Node000007_Node000008" class="edge">
<title>Node7&#45;&gt;Node8</title>
<g id="a_edge5_Node000007_Node000008"><a xlink:title=" ">
<path fill="none" stroke="#63b8ff" d="M352.9,-80.15C360.73,-78.45 369.29,-76.58 377.4,-74.81"/>
<polygon fill="#63b8ff" stroke="#63b8ff" points="377.92,-78.28 386.94,-72.73 376.43,-71.44 377.92,-78.28"/>
</a>
</g>
</g>
</g>
</svg>
