<?xml version="1.0" encoding="UTF-8" standalone="no"?>
<!DOCTYPE svg PUBLIC "-//W3C//DTD SVG 1.1//EN"
 "http://www.w3.org/Graphics/SVG/1.1/DTD/svg11.dtd">
<!-- Generated by graphviz version 12.2.1 (20241206.2353)
 -->
<!-- Title: mapNoiseToLEDsUsingPalette Pages: 1 -->
<svg width="653pt" height="212pt"
 viewBox="0.00 0.00 652.75 211.86" xmlns="http://www.w3.org/2000/svg" xmlns:xlink="http://www.w3.org/1999/xlink">
<g id="graph0" class="graph" transform="scale(1 1) rotate(0) translate(4 207.86)">
<title>mapNoiseToLEDsUsingPalette</title>
<!-- Node1 -->
<g id="Node000001" class="node">
<title>Node1</title>
<g id="a_Node000001"><a xlink:title=" ">
<polygon fill="#999999" stroke="#666666" points="161.5,-59.75 0,-59.75 0,-39 161.5,-39 161.5,-59.75"/>
<text text-anchor="middle" x="80.75" y="-46.25" font-family="Helvetica,sans-Serif" font-size="10.00">mapNoiseToLEDsUsingPalette</text>
</a>
</g>
</g>
<!-- Node2 -->
<g id="Node000002" class="node">
<title>Node2</title>
<g id="a_Node000002"><a xlink:href="../../d2/d73/group___palette_colors.html#gac46e65aff3dd6519b33e27f0998f17cd" target="_top" xlink:title="Get a color from a palette.">
<polygon fill="white" stroke="#666666" points="297.5,-117.75 197.5,-117.75 197.5,-97 297.5,-97 297.5,-117.75"/>
<text text-anchor="middle" x="247.5" y="-104.25" font-family="Helvetica,sans-Serif" font-size="10.00">ColorFromPalette</text>
</a>
</g>
</g>
<!-- Node1&#45;&gt;Node2 -->
<g id="edge1_Node000001_Node000002" class="edge">
<title>Node1&#45;&gt;Node2</title>
<g id="a_edge1_Node000001_Node000002"><a xlink:title=" ">
<path fill="none" stroke="#63b8ff" d="M112.35,-60.15C138.51,-69.36 176.38,-82.69 205.22,-92.84"/>
<polygon fill="#63b8ff" stroke="#63b8ff" points="203.76,-96.04 214.36,-96.06 206.08,-89.44 203.76,-96.04"/>
</a>
</g>
</g>
<!-- Node11 -->
<g id="Node000011" class="node">
<title>Node11</title>
<g id="a_Node000011"><a xlink:href="../../dc/d3e/group___dimming.html#gae51352a3522bb8eae5e17dbee97aa1aa" target="_top" xlink:title="Adjust a scaling value for dimming.">
<polygon fill="white" stroke="#666666" points="279.5,-59.75 215.5,-59.75 215.5,-39 279.5,-39 279.5,-59.75"/>
<text text-anchor="middle" x="247.5" y="-46.25" font-family="Helvetica,sans-Serif" font-size="10.00">dim8_raw</text>
</a>
</g>
</g>
<!-- Node1&#45;&gt;Node11 -->
<g id="edge11_Node000001_Node000011" class="edge">
<title>Node1&#45;&gt;Node11</title>
<g id="a_edge11_Node000001_Node000011"><a xlink:title=" ">
<path fill="none" stroke="#63b8ff" d="M161.71,-49.38C176.27,-49.38 190.94,-49.38 203.88,-49.38"/>
<polygon fill="#63b8ff" stroke="#63b8ff" points="203.71,-52.88 213.71,-49.38 203.71,-45.88 203.71,-52.88"/>
</a>
</g>
</g>
<!-- Node12 -->
<g id="Node000012" class="node">
<title>Node12</title>
<g id="a_Node000012"><a xlink:href="../../da/d2d/colorutils_8cpp.html#a7aa2d780d14ccc2f3ce3c493e01999eb" target="_top" xlink:title=" ">
<polygon fill="white" stroke="#666666" points="261.9,-20.75 233.1,-20.75 233.1,0 261.9,0 261.9,-20.75"/>
<text text-anchor="middle" x="247.5" y="-7.25" font-family="Helvetica,sans-Serif" font-size="10.00">XY</text>
</a>
</g>
</g>
<!-- Node1&#45;&gt;Node12 -->
<g id="edge13_Node000001_Node000012" class="edge">
<title>Node1&#45;&gt;Node12</title>
<g id="a_edge13_Node000001_Node000012"><a xlink:title=" ">
<path fill="none" stroke="#63b8ff" d="M127.64,-38.51C158.08,-31.31 196.85,-22.13 221.67,-16.25"/>
<polygon fill="#63b8ff" stroke="#63b8ff" points="222.25,-19.71 231.17,-14 220.63,-12.9 222.25,-19.71"/>
</a>
</g>
</g>
<!-- Node3 -->
<g id="Node000003" class="node">
<title>Node3</title>
<g id="a_Node000003"><a xlink:href="../../dc/db8/group___color_blends.html#ga4f06b4423f71f77346aaf5dabe7dd05c" target="_top" xlink:title="Computes a new color blended some fraction of the way between two other colors.">
<polygon fill="white" stroke="#666666" points="376.88,-174.75 333.88,-174.75 333.88,-154 376.88,-154 376.88,-174.75"/>
<text text-anchor="middle" x="355.38" y="-161.25" font-family="Helvetica,sans-Serif" font-size="10.00">blend</text>
</a>
</g>
</g>
<!-- Node2&#45;&gt;Node3 -->
<g id="edge2_Node000002_Node000003" class="edge">
<title>Node2&#45;&gt;Node3</title>
<g id="a_edge2_Node000002_Node000003"><a xlink:title=" ">
<path fill="none" stroke="#63b8ff" d="M268.41,-118.1C284.14,-126.56 306.33,-138.51 324.23,-148.15"/>
<polygon fill="#63b8ff" stroke="#63b8ff" points="322.39,-151.13 332.86,-152.79 325.71,-144.97 322.39,-151.13"/>
</a>
</g>
</g>
<!-- Node6 -->
<g id="Node000006" class="node">
<title>Node6</title>
<g id="a_Node000006"><a xlink:href="../../d0/da5/group___scaling_dirty.html#ga3fade00fb4cf5b937b973128198a7a79" target="_top" xlink:title="Clean up the r1 register after a series of *LEAVING_R1_DIRTY calls.">
<polygon fill="white" stroke="#666666" points="607.62,-202.75 535.38,-202.75 535.38,-182 607.62,-182 607.62,-202.75"/>
<text text-anchor="middle" x="571.5" y="-189.25" font-family="Helvetica,sans-Serif" font-size="10.00">cleanup_R1</text>
</a>
</g>
</g>
<!-- Node2&#45;&gt;Node6 -->
<g id="edge6_Node000002_Node000006" class="edge">
<title>Node2&#45;&gt;Node6</title>
<g id="a_edge6_Node000002_Node000006"><a xlink:title=" ">
<path fill="none" stroke="#63b8ff" d="M256.43,-118.22C269.96,-135.72 299.36,-169.59 333.5,-183.38 395.71,-208.49 474.74,-205.28 523.98,-199.63"/>
<polygon fill="#63b8ff" stroke="#63b8ff" points="524.22,-203.13 533.72,-198.42 523.36,-196.18 524.22,-203.13"/>
</a>
</g>
</g>
<!-- Node7 -->
<g id="Node000007" class="node">
<title>Node7</title>
<g id="a_Node000007"><a xlink:href="../../d0/da5/group___scaling_dirty.html#ga7386235cada3aca429b189681d2ec56d" target="_top" xlink:title="This version of scale8() does not clean up the R1 register on AVR.">
<polygon fill="white" stroke="#666666" points="644.75,-154.75 498.25,-154.75 498.25,-134 644.75,-134 644.75,-154.75"/>
<text text-anchor="middle" x="571.5" y="-141.25" font-family="Helvetica,sans-Serif" font-size="10.00">scale8_LEAVING_R1_DIRTY</text>
</a>
</g>
</g>
<!-- Node2&#45;&gt;Node7 -->
<g id="edge10_Node000002_Node000007" class="edge">
<title>Node2&#45;&gt;Node7</title>
<g id="a_edge10_Node000002_Node000007"><a xlink:title=" ">
<path fill="none" stroke="#63b8ff" d="M297.76,-113.03C347.9,-118.8 426.6,-127.84 486.59,-134.73"/>
<polygon fill="#63b8ff" stroke="#63b8ff" points="486.11,-138.2 496.44,-135.87 486.91,-131.25 486.11,-138.2"/>
</a>
</g>
</g>
<!-- Node8 -->
<g id="Node000008" class="node">
<title>Node8</title>
<g id="a_Node000008"><a xlink:href="../../da/d2d/colorutils_8cpp.html#ab445fd8641e95a3bbd1417d9783f6170" target="_top" xlink:title="Helper function to divide a number by 16, aka four logical shift right (LSR)&#39;s.">
<polygon fill="white" stroke="#666666" points="375.75,-98.75 335,-98.75 335,-78 375.75,-78 375.75,-98.75"/>
<text text-anchor="middle" x="355.38" y="-85.25" font-family="Helvetica,sans-Serif" font-size="10.00">lsrX4</text>
</a>
</g>
</g>
<!-- Node2&#45;&gt;Node8 -->
<g id="edge7_Node000002_Node000008" class="edge">
<title>Node2&#45;&gt;Node8</title>
<g id="a_edge7_Node000002_Node000008"><a xlink:title=" ">
<path fill="none" stroke="#63b8ff" d="M297.72,-98.54C306.5,-96.97 315.42,-95.37 323.5,-93.92"/>
<polygon fill="#63b8ff" stroke="#63b8ff" points="323.91,-97.4 333.14,-92.19 322.68,-90.51 323.91,-97.4"/>
</a>
</g>
</g>
<!-- Node9 -->
<g id="Node000009" class="node">
<title>Node9</title>
<g id="a_Node000009"><a xlink:href="../../d6/d19/group___linear_interpolation.html#gaf65357c7aeca9778e5a2f80a6bac2b5d" target="_top" xlink:title="Map from one full&#45;range 8&#45;bit value into a narrower range of 8&#45;bit values, possibly a range of hues.">
<polygon fill="white" stroke="#666666" points="377.25,-59.75 333.5,-59.75 333.5,-39 377.25,-39 377.25,-59.75"/>
<text text-anchor="middle" x="355.38" y="-46.25" font-family="Helvetica,sans-Serif" font-size="10.00">map8</text>
</a>
</g>
</g>
<!-- Node2&#45;&gt;Node9 -->
<g id="edge8_Node000002_Node000009" class="edge">
<title>Node2&#45;&gt;Node9</title>
<g id="a_edge8_Node000002_Node000009"><a xlink:title=" ">
<path fill="none" stroke="#63b8ff" d="M267.92,-96.74C283.79,-88.04 306.48,-75.61 324.64,-65.66"/>
<polygon fill="#63b8ff" stroke="#63b8ff" points="326.3,-68.74 333.39,-60.87 322.94,-62.6 326.3,-68.74"/>
</a>
</g>
</g>
<!-- Node4 -->
<g id="Node000004" class="node">
<title>Node4</title>
<g id="a_Node000004"><a xlink:href="../../dc/db8/group___color_blends.html#ga325120664a9c9b41abceee65303b0c4e" target="_top" xlink:title="Destructively modifies one color, blending in a given fraction of an overlay color.">
<polygon fill="#fff0f0" stroke="red" points="462.25,-174.75 413.25,-174.75 413.25,-154 462.25,-154 462.25,-174.75"/>
<text text-anchor="middle" x="437.75" y="-161.25" font-family="Helvetica,sans-Serif" font-size="10.00">nblend</text>
</a>
</g>
</g>
<!-- Node3&#45;&gt;Node4 -->
<g id="edge3_Node000003_Node000004" class="edge">
<title>Node3&#45;&gt;Node4</title>
<g id="a_edge3_Node000003_Node000004"><a xlink:title=" ">
<path fill="none" stroke="#63b8ff" d="M377.07,-164.38C384.53,-164.38 393.18,-164.38 401.53,-164.38"/>
<polygon fill="#63b8ff" stroke="#63b8ff" points="401.48,-167.88 411.48,-164.38 401.48,-160.88 401.48,-167.88"/>
</a>
</g>
</g>
<!-- Node4&#45;&gt;Node6 -->
<g id="edge4_Node000004_Node000006" class="edge">
<title>Node4&#45;&gt;Node6</title>
<g id="a_edge4_Node000004_Node000006"><a xlink:title=" ">
<path fill="none" stroke="#63b8ff" d="M462.61,-169.45C479.63,-173.06 503.07,-178.04 523.75,-182.44"/>
<polygon fill="#63b8ff" stroke="#63b8ff" points="522.91,-185.84 533.42,-184.49 524.37,-178.99 522.91,-185.84"/>
</a>
</g>
</g>
<!-- Node4&#45;&gt;Node7 -->
<g id="edge5_Node000004_Node000007" class="edge">
<title>Node4&#45;&gt;Node7</title>
<g id="a_edge5_Node000004_Node000007"><a xlink:title=" ">
<path fill="none" stroke="#63b8ff" d="M462.61,-160.75C470.04,-159.62 478.7,-158.31 487.82,-156.93"/>
<polygon fill="#63b8ff" stroke="#63b8ff" points="488.26,-160.4 497.62,-155.44 487.21,-153.48 488.26,-160.4"/>
</a>
</g>
</g>
<!-- Node10 -->
<g id="Node000010" class="node">
<title>Node10</title>
<g id="a_Node000010"><a xlink:href="../../d0/da8/group___scaling.html#gad7535ccda9c92470c4e6ee0265585555" target="_top" xlink:title="Scale one byte by a second one, which is treated as the numerator of a fraction whose denominator is ...">
<polygon fill="white" stroke="#666666" points="461.5,-40.75 414,-40.75 414,-20 461.5,-20 461.5,-40.75"/>
<text text-anchor="middle" x="437.75" y="-27.25" font-family="Helvetica,sans-Serif" font-size="10.00">scale8</text>
</a>
</g>
</g>
<!-- Node9&#45;&gt;Node10 -->
<g id="edge9_Node000009_Node000010" class="edge">
<title>Node9&#45;&gt;Node10</title>
<g id="a_edge9_Node000009_Node000010"><a xlink:title=" ">
<path fill="none" stroke="#63b8ff" d="M377.49,-44.38C385.1,-42.58 393.9,-40.5 402.35,-38.51"/>
<polygon fill="#63b8ff" stroke="#63b8ff" points="403.11,-41.92 412.04,-36.22 401.5,-35.11 403.11,-41.92"/>
</a>
</g>
</g>
<!-- Node11&#45;&gt;Node10 -->
<g id="edge12_Node000011_Node000010" class="edge">
<title>Node11&#45;&gt;Node10</title>
<g id="a_edge12_Node000011_Node000010"><a xlink:title=" ">
<path fill="none" stroke="#63b8ff" d="M279.71,-40.67C295.66,-36.67 315.46,-32.37 333.5,-30.38 356.33,-27.85 382.17,-27.86 402.29,-28.49"/>
<polygon fill="#63b8ff" stroke="#63b8ff" points="402.07,-31.98 412.19,-28.87 402.34,-24.99 402.07,-31.98"/>
</a>
</g>
</g>
</g>
</svg>
