<?xml version="1.0" encoding="UTF-8" standalone="no"?>
<!DOCTYPE svg PUBLIC "-//W3C//DTD SVG 1.1//EN"
 "http://www.w3.org/Graphics/SVG/1.1/DTD/svg11.dtd">
<!-- Generated by graphviz version 12.2.1 (20241206.2353)
 -->
<!-- Title: CountingButton::CountingButton Pages: 1 -->
<svg width="474pt" height="42pt"
 viewBox="0.00 0.00 473.75 41.50" xmlns="http://www.w3.org/2000/svg" xmlns:xlink="http://www.w3.org/1999/xlink">
<g id="graph0" class="graph" transform="scale(1 1) rotate(0) translate(4 37.5)">
<title>CountingButton::CountingButton</title>
<!-- Node1 -->
<g id="Node000001" class="node">
<title>Node1</title>
<g id="a_Node000001"><a xlink:title=" ">
<polygon fill="#999999" stroke="#666666" points="141.25,-33.5 0,-33.5 0,0 141.25,0 141.25,-33.5"/>
<text text-anchor="start" x="8" y="-20" font-family="Helvetica,sans-Serif" font-size="10.00">CountingButton::Counting</text>
<text text-anchor="middle" x="70.62" y="-7.25" font-family="Helvetica,sans-Serif" font-size="10.00">Button</text>
</a>
</g>
</g>
<!-- Node2 -->
<g id="Node000002" class="node">
<title>Node2</title>
<g id="a_Node000002"><a xlink:href="../../d6/d58/class_counting_button.html#a22f6cee1dc58bf651da93fd5ee66f7a0" target="_top" xlink:title=" ">
<polygon fill="white" stroke="#666666" points="299.75,-27.12 177.25,-27.12 177.25,-6.38 299.75,-6.38 299.75,-27.12"/>
<text text-anchor="middle" x="238.5" y="-13.62" font-family="Helvetica,sans-Serif" font-size="10.00">CountingButton::Read</text>
</a>
</g>
</g>
<!-- Node1&#45;&gt;Node2 -->
<g id="edge1_Node000001_Node000002" class="edge">
<title>Node1&#45;&gt;Node2</title>
<g id="a_edge1_Node000001_Node000002"><a xlink:title=" ">
<path fill="none" stroke="#63b8ff" d="M141.49,-16.75C149.4,-16.75 157.48,-16.75 165.42,-16.75"/>
<polygon fill="#63b8ff" stroke="#63b8ff" points="165.4,-20.25 175.4,-16.75 165.4,-13.25 165.4,-20.25"/>
</a>
</g>
</g>
<!-- Node3 -->
<g id="Node000003" class="node">
<title>Node3</title>
<g id="a_Node000003"><a xlink:href="../../d0/ddf/class_midi_shield_button.html#a364d02ef4b1cd8dfa97639c08a731dcf" target="_top" xlink:title=" ">
<polygon fill="white" stroke="#666666" points="465.75,-27.12 335.75,-27.12 335.75,-6.38 465.75,-6.38 465.75,-27.12"/>
<text text-anchor="middle" x="400.75" y="-13.62" font-family="Helvetica,sans-Serif" font-size="10.00">MidiShieldButton::Read</text>
</a>
</g>
</g>
<!-- Node2&#45;&gt;Node3 -->
<g id="edge2_Node000002_Node000003" class="edge">
<title>Node2&#45;&gt;Node3</title>
<g id="a_edge2_Node000002_Node000003"><a xlink:title=" ">
<path fill="none" stroke="#63b8ff" d="M300.08,-16.75C307.92,-16.75 316.01,-16.75 324.05,-16.75"/>
<polygon fill="#63b8ff" stroke="#63b8ff" points="323.83,-20.25 333.83,-16.75 323.83,-13.25 323.83,-20.25"/>
</a>
</g>
</g>
</g>
</svg>
