<?xml version="1.0" encoding="UTF-8" standalone="no"?>
<!DOCTYPE svg PUBLIC "-//W3C//DTD SVG 1.1//EN"
 "http://www.w3.org/Graphics/SVG/1.1/DTD/svg11.dtd">
<!-- Generated by graphviz version 12.2.1 (20241206.2353)
 -->
<!-- Title: CountingButton::Update Pages: 1 -->
<svg width="466pt" height="68pt"
 viewBox="0.00 0.00 465.50 67.75" xmlns="http://www.w3.org/2000/svg" xmlns:xlink="http://www.w3.org/1999/xlink">
<g id="graph0" class="graph" transform="scale(1 1) rotate(0) translate(4 63.75)">
<title>CountingButton::Update</title>
<!-- Node1 -->
<g id="Node000001" class="node">
<title>Node1</title>
<g id="a_Node000001"><a xlink:title=" ">
<polygon fill="#999999" stroke="#666666" points="133,-39.75 0,-39.75 0,-19 133,-19 133,-39.75"/>
<text text-anchor="middle" x="66.5" y="-26.25" font-family="Helvetica,sans-Serif" font-size="10.00">CountingButton::Update</text>
</a>
</g>
</g>
<!-- Node2 -->
<g id="Node000002" class="node">
<title>Node2</title>
<g id="a_Node000002"><a xlink:href="../../d3/d1d/classfl_1_1_u_i_button.html#a744c411f78146946d0f72366605e781a" target="_top" xlink:title=" ">
<polygon fill="white" stroke="#666666" points="285.5,-59.75 175,-59.75 175,-39 285.5,-39 285.5,-59.75"/>
<text text-anchor="middle" x="230.25" y="-46.25" font-family="Helvetica,sans-Serif" font-size="10.00">fl::UIButton::clicked</text>
</a>
</g>
</g>
<!-- Node1&#45;&gt;Node2 -->
<g id="edge1_Node000001_Node000002" class="edge">
<title>Node1&#45;&gt;Node2</title>
<g id="a_edge1_Node000001_Node000002"><a xlink:title=" ">
<path fill="none" stroke="#63b8ff" d="M133.29,-37.51C143.16,-38.73 153.34,-39.99 163.21,-41.21"/>
<polygon fill="#63b8ff" stroke="#63b8ff" points="162.77,-44.68 173.13,-42.44 163.63,-37.73 162.77,-44.68"/>
</a>
</g>
</g>
<!-- Node3 -->
<g id="Node000003" class="node">
<title>Node3</title>
<g id="a_Node000003"><a xlink:href="../../d6/d58/class_counting_button.html#a22f6cee1dc58bf651da93fd5ee66f7a0" target="_top" xlink:title=" ">
<polygon fill="white" stroke="#666666" points="291.5,-20.75 169,-20.75 169,0 291.5,0 291.5,-20.75"/>
<text text-anchor="middle" x="230.25" y="-7.25" font-family="Helvetica,sans-Serif" font-size="10.00">CountingButton::Read</text>
</a>
</g>
</g>
<!-- Node1&#45;&gt;Node3 -->
<g id="edge2_Node000001_Node000003" class="edge">
<title>Node1&#45;&gt;Node3</title>
<g id="a_edge2_Node000001_Node000003"><a xlink:title=" ">
<path fill="none" stroke="#63b8ff" d="M133.29,-21.65C141.26,-20.71 149.42,-19.75 157.47,-18.81"/>
<polygon fill="#63b8ff" stroke="#63b8ff" points="157.71,-22.3 167.23,-17.66 156.89,-15.35 157.71,-22.3"/>
</a>
</g>
</g>
<!-- Node4 -->
<g id="Node000004" class="node">
<title>Node4</title>
<g id="a_Node000004"><a xlink:href="../../d0/ddf/class_midi_shield_button.html#a364d02ef4b1cd8dfa97639c08a731dcf" target="_top" xlink:title=" ">
<polygon fill="white" stroke="#666666" points="457.5,-20.75 327.5,-20.75 327.5,0 457.5,0 457.5,-20.75"/>
<text text-anchor="middle" x="392.5" y="-7.25" font-family="Helvetica,sans-Serif" font-size="10.00">MidiShieldButton::Read</text>
</a>
</g>
</g>
<!-- Node3&#45;&gt;Node4 -->
<g id="edge3_Node000003_Node000004" class="edge">
<title>Node3&#45;&gt;Node4</title>
<g id="a_edge3_Node000003_Node000004"><a xlink:title=" ">
<path fill="none" stroke="#63b8ff" d="M291.83,-10.38C299.67,-10.38 307.76,-10.38 315.8,-10.38"/>
<polygon fill="#63b8ff" stroke="#63b8ff" points="315.58,-13.88 325.58,-10.38 315.58,-6.88 315.58,-13.88"/>
</a>
</g>
</g>
</g>
</svg>
