<?xml version="1.0" encoding="UTF-8" standalone="no"?>
<!DOCTYPE svg PUBLIC "-//W3C//DTD SVG 1.1//EN"
 "http://www.w3.org/Graphics/SVG/1.1/DTD/svg11.dtd">
<!-- Generated by graphviz version 12.2.1 (20241206.2353)
 -->
<!-- Title: /home/runner/work/FastLED/FastLED/src/fx/fx1d.h Pages: 1 -->
<svg width="2746pt" height="415pt"
 viewBox="0.00 0.00 2746.25 414.50" xmlns="http://www.w3.org/2000/svg" xmlns:xlink="http://www.w3.org/1999/xlink">
<g id="graph0" class="graph" transform="scale(1 1) rotate(0) translate(4 410.5)">
<title>/home/runner/work/FastLED/FastLED/src/fx/fx1d.h</title>
<!-- Node1 -->
<g id="Node000001" class="node">
<title>Node1</title>
<g id="a_Node000001"><a xlink:title=" ">
<polygon fill="#999999" stroke="#666666" points="790.25,-406.5 640.75,-406.5 640.75,-373 790.25,-373 790.25,-406.5"/>
<text text-anchor="start" x="648.75" y="-393" font-family="Helvetica,sans-Serif" font-size="10.00">/home/runner/work/FastLED</text>
<text text-anchor="middle" x="715.5" y="-380.25" font-family="Helvetica,sans-Serif" font-size="10.00">/FastLED/src/fx/fx1d.h</text>
</a>
</g>
</g>
<!-- Node2 -->
<g id="Node000002" class="node">
<title>Node2</title>
<g id="a_Node000002"><a xlink:href="../../db/d31/cylon_8h.html" target="_top" xlink:title=" ">
<polygon fill="white" stroke="#666666" points="154.25,-337 4.75,-337 4.75,-303.5 154.25,-303.5 154.25,-337"/>
<text text-anchor="start" x="12.75" y="-323.5" font-family="Helvetica,sans-Serif" font-size="10.00">/home/runner/work/FastLED</text>
<text text-anchor="middle" x="79.5" y="-310.75" font-family="Helvetica,sans-Serif" font-size="10.00">/FastLED/src/fx/1d/cylon.h</text>
</a>
</g>
</g>
<!-- Node1&#45;&gt;Node2 -->
<g id="edge1_Node000001_Node000002" class="edge">
<title>Node1&#45;&gt;Node2</title>
<g id="a_edge1_Node000001_Node000002"><a xlink:title=" ">
<path fill="none" stroke="#63b8ff" d="M629.2,-382.82C521.03,-374.89 330.05,-359.18 167.5,-337 163.19,-336.41 158.78,-335.76 154.33,-335.08"/>
<polygon fill="#63b8ff" stroke="#63b8ff" points="628.64,-386.29 638.86,-383.53 629.14,-379.31 628.64,-386.29"/>
</a>
</g>
</g>
<!-- Node4 -->
<g id="Node000004" class="node">
<title>Node4</title>
<g id="a_Node000004"><a xlink:href="../../d4/dc0/demoreel100_8h.html" target="_top" xlink:title=" ">
<polygon fill="white" stroke="#666666" points="354.88,-337 176.12,-337 176.12,-303.5 354.88,-303.5 354.88,-337"/>
<text text-anchor="start" x="184.12" y="-323.5" font-family="Helvetica,sans-Serif" font-size="10.00">/home/runner/work/FastLED</text>
<text text-anchor="middle" x="265.5" y="-310.75" font-family="Helvetica,sans-Serif" font-size="10.00">/FastLED/src/fx/1d/demoreel100.h</text>
</a>
</g>
</g>
<!-- Node1&#45;&gt;Node4 -->
<g id="edge3_Node000001_Node000004" class="edge">
<title>Node1&#45;&gt;Node4</title>
<g id="a_edge3_Node000001_Node000004"><a xlink:title=" ">
<path fill="none" stroke="#63b8ff" d="M629.11,-376.38C557.83,-366.09 454.05,-350.93 363.5,-337 360.77,-336.58 358.01,-336.15 355.21,-335.72"/>
<polygon fill="#63b8ff" stroke="#63b8ff" points="628.37,-379.81 638.77,-377.77 629.37,-372.88 628.37,-379.81"/>
</a>
</g>
</g>
<!-- Node6 -->
<g id="Node000006" class="node">
<title>Node6</title>
<g id="a_Node000006"><a xlink:href="../../d5/dcb/fire2012_8h.html" target="_top" xlink:title=" ">
<polygon fill="white" stroke="#666666" points="526.5,-337 372.5,-337 372.5,-303.5 526.5,-303.5 526.5,-337"/>
<text text-anchor="start" x="380.5" y="-323.5" font-family="Helvetica,sans-Serif" font-size="10.00">/home/runner/work/FastLED</text>
<text text-anchor="middle" x="449.5" y="-310.75" font-family="Helvetica,sans-Serif" font-size="10.00">/FastLED/src/fx/1d/fire2012.h</text>
</a>
</g>
</g>
<!-- Node1&#45;&gt;Node6 -->
<g id="edge5_Node000001_Node000006" class="edge">
<title>Node1&#45;&gt;Node6</title>
<g id="a_edge5_Node000001_Node000006"><a xlink:title=" ">
<path fill="none" stroke="#63b8ff" d="M640.7,-369.77C600.52,-359.57 551.5,-347.13 513.15,-337.4"/>
<polygon fill="#63b8ff" stroke="#63b8ff" points="639.77,-373.14 650.32,-372.21 641.49,-366.36 639.77,-373.14"/>
</a>
</g>
</g>
<!-- Node8 -->
<g id="Node000008" class="node">
<title>Node8</title>
<g id="a_Node000008"><a xlink:href="../../d9/d2c/noisewave_8h.html" target="_top" xlink:title=" ">
<polygon fill="white" stroke="#666666" points="710.88,-337 544.12,-337 544.12,-303.5 710.88,-303.5 710.88,-337"/>
<text text-anchor="start" x="552.12" y="-323.5" font-family="Helvetica,sans-Serif" font-size="10.00">/home/runner/work/FastLED</text>
<text text-anchor="middle" x="627.5" y="-310.75" font-family="Helvetica,sans-Serif" font-size="10.00">/FastLED/src/fx/1d/noisewave.h</text>
</a>
</g>
</g>
<!-- Node1&#45;&gt;Node8 -->
<g id="edge7_Node000001_Node000008" class="edge">
<title>Node1&#45;&gt;Node8</title>
<g id="a_edge7_Node000001_Node000008"><a xlink:title=" ">
<path fill="none" stroke="#63b8ff" d="M685.7,-365.89C673.48,-356.52 659.63,-345.9 648.51,-337.37"/>
<polygon fill="#63b8ff" stroke="#63b8ff" points="683.38,-368.52 693.44,-371.83 687.64,-362.97 683.38,-368.52"/>
</a>
</g>
</g>
<!-- Node9 -->
<g id="Node000009" class="node">
<title>Node9</title>
<g id="a_Node000009"><a xlink:href="../../dc/d70/pacifica_8h.html" target="_top" xlink:title=" ">
<polygon fill="white" stroke="#666666" points="880.38,-337 728.62,-337 728.62,-303.5 880.38,-303.5 880.38,-337"/>
<text text-anchor="start" x="736.62" y="-323.5" font-family="Helvetica,sans-Serif" font-size="10.00">/home/runner/work/FastLED</text>
<text text-anchor="middle" x="804.5" y="-310.75" font-family="Helvetica,sans-Serif" font-size="10.00">/FastLED/src/fx/1d/pacifica.h</text>
</a>
</g>
</g>
<!-- Node1&#45;&gt;Node9 -->
<g id="edge8_Node000001_Node000009" class="edge">
<title>Node1&#45;&gt;Node9</title>
<g id="a_edge8_Node000001_Node000009"><a xlink:title=" ">
<path fill="none" stroke="#63b8ff" d="M745.64,-365.89C758,-356.52 772,-345.9 783.25,-337.37"/>
<polygon fill="#63b8ff" stroke="#63b8ff" points="743.65,-363.01 737.8,-371.84 747.88,-368.58 743.65,-363.01"/>
</a>
</g>
</g>
<!-- Node11 -->
<g id="Node000011" class="node">
<title>Node11</title>
<g id="a_Node000011"><a xlink:href="../../d7/dc4/pride2015_8h.html" target="_top" xlink:title=" ">
<polygon fill="white" stroke="#666666" points="1061,-337 898,-337 898,-303.5 1061,-303.5 1061,-337"/>
<text text-anchor="start" x="906" y="-323.5" font-family="Helvetica,sans-Serif" font-size="10.00">/home/runner/work/FastLED</text>
<text text-anchor="middle" x="979.5" y="-310.75" font-family="Helvetica,sans-Serif" font-size="10.00">/FastLED/src/fx/1d/pride2015.h</text>
</a>
</g>
</g>
<!-- Node1&#45;&gt;Node11 -->
<g id="edge10_Node000001_Node000011" class="edge">
<title>Node1&#45;&gt;Node11</title>
<g id="a_edge10_Node000001_Node000011"><a xlink:title=" ">
<path fill="none" stroke="#63b8ff" d="M789.74,-369.77C829.62,-359.57 878.27,-347.13 916.32,-337.4"/>
<polygon fill="#63b8ff" stroke="#63b8ff" points="789.02,-366.34 780.2,-372.21 790.76,-373.12 789.02,-366.34"/>
</a>
</g>
</g>
<!-- Node13 -->
<g id="Node000013" class="node">
<title>Node13</title>
<g id="a_Node000013"><a xlink:href="../../d1/df6/twinklefox_8h.html" target="_top" xlink:title=" ">
<polygon fill="white" stroke="#666666" points="1250.5,-337 1084.5,-337 1084.5,-303.5 1250.5,-303.5 1250.5,-337"/>
<text text-anchor="start" x="1092.5" y="-323.5" font-family="Helvetica,sans-Serif" font-size="10.00">/home/runner/work/FastLED</text>
<text text-anchor="middle" x="1167.5" y="-310.75" font-family="Helvetica,sans-Serif" font-size="10.00">/FastLED/src/fx/1d/twinklefox.h</text>
</a>
</g>
</g>
<!-- Node1&#45;&gt;Node13 -->
<g id="edge12_Node000001_Node000013" class="edge">
<title>Node1&#45;&gt;Node13</title>
<g id="a_edge12_Node000001_Node000013"><a xlink:title=" ">
<path fill="none" stroke="#63b8ff" d="M801.69,-376.5C873.41,-366.22 978.15,-351.02 1069.5,-337 1074.27,-336.27 1079.17,-335.51 1084.11,-334.73"/>
<polygon fill="#63b8ff" stroke="#63b8ff" points="801.38,-373.01 791.97,-377.89 802.37,-379.94 801.38,-373.01"/>
</a>
</g>
</g>
<!-- Node15 -->
<g id="Node000015" class="node">
<title>Node15</title>
<g id="a_Node000015"><a xlink:href="../../dd/d78/video_8h.html" target="_top" xlink:title=" ">
<polygon fill="white" stroke="#666666" points="1645.25,-337 1495.75,-337 1495.75,-303.5 1645.25,-303.5 1645.25,-337"/>
<text text-anchor="start" x="1503.75" y="-323.5" font-family="Helvetica,sans-Serif" font-size="10.00">/home/runner/work/FastLED</text>
<text text-anchor="middle" x="1570.5" y="-310.75" font-family="Helvetica,sans-Serif" font-size="10.00">/FastLED/src/fx/video.h</text>
</a>
</g>
</g>
<!-- Node1&#45;&gt;Node15 -->
<g id="edge14_Node000001_Node000015" class="edge">
<title>Node1&#45;&gt;Node15</title>
<g id="a_edge14_Node000001_Node000015"><a xlink:title=" ">
<path fill="none" stroke="#63b8ff" d="M801.87,-381.93C969.71,-368.68 1337.25,-339.66 1495.54,-327.17"/>
<polygon fill="#63b8ff" stroke="#63b8ff" points="801.83,-378.42 792.14,-382.7 802.38,-385.4 801.83,-378.42"/>
</a>
</g>
</g>
<!-- Node3 -->
<g id="Node000003" class="node">
<title>Node3</title>
<g id="a_Node000003"><a xlink:href="../../db/d86/_fx_cylon_8ino.html" target="_top" xlink:title=" ">
<polygon fill="white" stroke="#666666" points="151,-267.5 0,-267.5 0,-221.25 151,-221.25 151,-267.5"/>
<text text-anchor="start" x="8" y="-254" font-family="Helvetica,sans-Serif" font-size="10.00">/home/runner/work/FastLED</text>
<text text-anchor="start" x="8" y="-241.25" font-family="Helvetica,sans-Serif" font-size="10.00">/FastLED/examples/FxCylon</text>
<text text-anchor="middle" x="75.5" y="-228.5" font-family="Helvetica,sans-Serif" font-size="10.00">/FxCylon.ino</text>
</a>
</g>
</g>
<!-- Node2&#45;&gt;Node3 -->
<g id="edge2_Node000002_Node000003" class="edge">
<title>Node2&#45;&gt;Node3</title>
<g id="a_edge2_Node000002_Node000003"><a xlink:title=" ">
<path fill="none" stroke="#63b8ff" d="M78.02,-291.89C77.59,-283.96 77.13,-275.41 76.72,-267.82"/>
<polygon fill="#63b8ff" stroke="#63b8ff" points="74.51,-291.91 78.55,-301.71 81.5,-291.53 74.51,-291.91"/>
</a>
</g>
</g>
<!-- Node5 -->
<g id="Node000005" class="node">
<title>Node5</title>
<g id="a_Node000005"><a xlink:href="../../d1/d8f/_fx_demo_reel100_8ino.html" target="_top" xlink:title=" ">
<polygon fill="white" stroke="#666666" points="361.62,-267.5 169.38,-267.5 169.38,-221.25 361.62,-221.25 361.62,-267.5"/>
<text text-anchor="start" x="177.38" y="-254" font-family="Helvetica,sans-Serif" font-size="10.00">/home/runner/work/FastLED</text>
<text text-anchor="start" x="177.38" y="-241.25" font-family="Helvetica,sans-Serif" font-size="10.00">/FastLED/examples/FxDemoReel100</text>
<text text-anchor="middle" x="265.5" y="-228.5" font-family="Helvetica,sans-Serif" font-size="10.00">/FxDemoReel100.ino</text>
</a>
</g>
</g>
<!-- Node4&#45;&gt;Node5 -->
<g id="edge4_Node000004_Node000005" class="edge">
<title>Node4&#45;&gt;Node5</title>
<g id="a_edge4_Node000004_Node000005"><a xlink:title=" ">
<path fill="none" stroke="#63b8ff" d="M265.5,-291.89C265.5,-283.96 265.5,-275.41 265.5,-267.82"/>
<polygon fill="#63b8ff" stroke="#63b8ff" points="262,-291.71 265.5,-301.71 269,-291.71 262,-291.71"/>
</a>
</g>
</g>
<!-- Node7 -->
<g id="Node000007" class="node">
<title>Node7</title>
<g id="a_Node000007"><a xlink:href="../../df/d57/_fx_fire2012_8ino.html" target="_top" xlink:title=" ">
<polygon fill="white" stroke="#666666" points="545.12,-267.5 379.88,-267.5 379.88,-221.25 545.12,-221.25 545.12,-267.5"/>
<text text-anchor="start" x="387.88" y="-254" font-family="Helvetica,sans-Serif" font-size="10.00">/home/runner/work/FastLED</text>
<text text-anchor="start" x="387.88" y="-241.25" font-family="Helvetica,sans-Serif" font-size="10.00">/FastLED/examples/FxFire2012</text>
<text text-anchor="middle" x="462.5" y="-228.5" font-family="Helvetica,sans-Serif" font-size="10.00">/FxFire2012.ino</text>
</a>
</g>
</g>
<!-- Node6&#45;&gt;Node7 -->
<g id="edge6_Node000006_Node000007" class="edge">
<title>Node6&#45;&gt;Node7</title>
<g id="a_edge6_Node000006_Node000007"><a xlink:title=" ">
<path fill="none" stroke="#63b8ff" d="M454.32,-291.89C455.71,-283.96 457.22,-275.41 458.55,-267.82"/>
<polygon fill="#63b8ff" stroke="#63b8ff" points="450.87,-291.27 452.58,-301.73 457.76,-292.49 450.87,-291.27"/>
</a>
</g>
</g>
<!-- Node10 -->
<g id="Node000010" class="node">
<title>Node10</title>
<g id="a_Node000010"><a xlink:href="../../dc/ded/_fx_pacifica_8ino.html" target="_top" xlink:title=" ">
<polygon fill="white" stroke="#666666" points="872.5,-267.5 712.5,-267.5 712.5,-221.25 872.5,-221.25 872.5,-267.5"/>
<text text-anchor="start" x="720.5" y="-254" font-family="Helvetica,sans-Serif" font-size="10.00">/home/runner/work/FastLED</text>
<text text-anchor="start" x="720.5" y="-241.25" font-family="Helvetica,sans-Serif" font-size="10.00">/FastLED/examples/FxPacifica</text>
<text text-anchor="middle" x="792.5" y="-228.5" font-family="Helvetica,sans-Serif" font-size="10.00">/FxPacifica.ino</text>
</a>
</g>
</g>
<!-- Node9&#45;&gt;Node10 -->
<g id="edge9_Node000009_Node000010" class="edge">
<title>Node9&#45;&gt;Node10</title>
<g id="a_edge9_Node000009_Node000010"><a xlink:title=" ">
<path fill="none" stroke="#63b8ff" d="M800.06,-291.89C798.77,-283.96 797.38,-275.41 796.15,-267.82"/>
<polygon fill="#63b8ff" stroke="#63b8ff" points="796.6,-292.42 801.65,-301.73 803.5,-291.29 796.6,-292.42"/>
</a>
</g>
</g>
<!-- Node12 -->
<g id="Node000012" class="node">
<title>Node12</title>
<g id="a_Node000012"><a xlink:href="../../d2/db0/_fx_pride2015_8ino.html" target="_top" xlink:title=" ">
<polygon fill="white" stroke="#666666" points="1062.5,-267.5 890.5,-267.5 890.5,-221.25 1062.5,-221.25 1062.5,-267.5"/>
<text text-anchor="start" x="898.5" y="-254" font-family="Helvetica,sans-Serif" font-size="10.00">/home/runner/work/FastLED</text>
<text text-anchor="start" x="898.5" y="-241.25" font-family="Helvetica,sans-Serif" font-size="10.00">/FastLED/examples/FxPride2015</text>
<text text-anchor="middle" x="976.5" y="-228.5" font-family="Helvetica,sans-Serif" font-size="10.00">/FxPride2015.ino</text>
</a>
</g>
</g>
<!-- Node11&#45;&gt;Node12 -->
<g id="edge11_Node000011_Node000012" class="edge">
<title>Node11&#45;&gt;Node12</title>
<g id="a_edge11_Node000011_Node000012"><a xlink:title=" ">
<path fill="none" stroke="#63b8ff" d="M978.39,-291.89C978.07,-283.96 977.72,-275.41 977.41,-267.82"/>
<polygon fill="#63b8ff" stroke="#63b8ff" points="974.88,-291.86 978.79,-301.71 981.88,-291.57 974.88,-291.86"/>
</a>
</g>
</g>
<!-- Node14 -->
<g id="Node000014" class="node">
<title>Node14</title>
<g id="a_Node000014"><a xlink:href="../../dd/d4d/_fx_twinkle_fox_8ino.html" target="_top" xlink:title=" ">
<polygon fill="white" stroke="#666666" points="1258.12,-267.5 1080.88,-267.5 1080.88,-221.25 1258.12,-221.25 1258.12,-267.5"/>
<text text-anchor="start" x="1088.88" y="-254" font-family="Helvetica,sans-Serif" font-size="10.00">/home/runner/work/FastLED</text>
<text text-anchor="start" x="1088.88" y="-241.25" font-family="Helvetica,sans-Serif" font-size="10.00">/FastLED/examples/FxTwinkleFox</text>
<text text-anchor="middle" x="1169.5" y="-228.5" font-family="Helvetica,sans-Serif" font-size="10.00">/FxTwinkleFox.ino</text>
</a>
</g>
</g>
<!-- Node13&#45;&gt;Node14 -->
<g id="edge13_Node000013_Node000014" class="edge">
<title>Node13&#45;&gt;Node14</title>
<g id="a_edge13_Node000013_Node000014"><a xlink:title=" ">
<path fill="none" stroke="#63b8ff" d="M1168.24,-291.89C1168.46,-283.96 1168.69,-275.41 1168.89,-267.82"/>
<polygon fill="#63b8ff" stroke="#63b8ff" points="1164.75,-291.62 1167.97,-301.71 1171.74,-291.81 1164.75,-291.62"/>
</a>
</g>
</g>
<!-- Node16 -->
<g id="Node000016" class="node">
<title>Node16</title>
<g id="a_Node000016"><a xlink:href="../../d7/d35/_fx_sd_card_8ino.html" target="_top" xlink:title=" ">
<polygon fill="white" stroke="#666666" points="2183.38,-185.25 2025.62,-185.25 2025.62,-139 2183.38,-139 2183.38,-185.25"/>
<text text-anchor="start" x="2033.62" y="-171.75" font-family="Helvetica,sans-Serif" font-size="10.00">/home/runner/work/FastLED</text>
<text text-anchor="start" x="2033.62" y="-159" font-family="Helvetica,sans-Serif" font-size="10.00">/FastLED/examples/FxSdCard</text>
<text text-anchor="middle" x="2104.5" y="-146.25" font-family="Helvetica,sans-Serif" font-size="10.00">/FxSdCard.ino</text>
</a>
</g>
</g>
<!-- Node15&#45;&gt;Node16 -->
<g id="edge15_Node000015_Node000016" class="edge">
<title>Node15&#45;&gt;Node16</title>
<g id="a_edge15_Node000015_Node000016"><a xlink:title=" ">
<path fill="none" stroke="#63b8ff" d="M1646.15,-300.2C1682.88,-290.74 1727.6,-278.91 1767.5,-267.5 1860.39,-240.93 1966.77,-207.47 2034.74,-185.7"/>
<polygon fill="#63b8ff" stroke="#63b8ff" points="1645.3,-296.8 1636.48,-302.68 1647.04,-303.58 1645.3,-296.8"/>
</a>
</g>
</g>
<!-- Node17 -->
<g id="Node000017" class="node">
<title>Node17</title>
<g id="a_Node000017"><a xlink:href="../../d9/d28/fl_2file__system_8h.html" target="_top" xlink:title=" ">
<polygon fill="white" stroke="#666666" points="2404.38,-261.12 2252.62,-261.12 2252.62,-227.62 2404.38,-227.62 2404.38,-261.12"/>
<text text-anchor="start" x="2260.62" y="-247.62" font-family="Helvetica,sans-Serif" font-size="10.00">/home/runner/work/FastLED</text>
<text text-anchor="middle" x="2328.5" y="-234.88" font-family="Helvetica,sans-Serif" font-size="10.00">/FastLED/src/fl/file_system.h</text>
</a>
</g>
</g>
<!-- Node15&#45;&gt;Node17 -->
<g id="edge16_Node000015_Node000017" class="edge">
<title>Node15&#45;&gt;Node17</title>
<g id="a_edge16_Node000015_Node000017"><a xlink:title=" ">
<path fill="none" stroke="#63b8ff" d="M1656.95,-310.82C1806.28,-296.27 2110.13,-266.66 2252.14,-252.82"/>
<polygon fill="#63b8ff" stroke="#63b8ff" points="1656.72,-307.33 1647.11,-311.78 1657.4,-314.3 1656.72,-307.33"/>
</a>
</g>
</g>
<!-- Node21 -->
<g id="Node000021" class="node">
<title>Node21</title>
<g id="a_Node000021"><a xlink:href="../../d0/d05/video_8cpp.html" target="_top" xlink:title=" ">
<polygon fill="white" stroke="#666666" points="2282.25,-33.5 2132.75,-33.5 2132.75,0 2282.25,0 2282.25,-33.5"/>
<text text-anchor="start" x="2140.75" y="-20" font-family="Helvetica,sans-Serif" font-size="10.00">/home/runner/work/FastLED</text>
<text text-anchor="middle" x="2207.5" y="-7.25" font-family="Helvetica,sans-Serif" font-size="10.00">/FastLED/src/fx/video.cpp</text>
</a>
</g>
</g>
<!-- Node15&#45;&gt;Node21 -->
<g id="edge32_Node000015_Node000021" class="edge">
<title>Node15&#45;&gt;Node21</title>
<g id="a_edge32_Node000015_Node000021"><a xlink:title=" ">
<path fill="none" stroke="#63b8ff" d="M1493.25,-299.93C1393.6,-271.46 1240.36,-213.48 1305.5,-139 1359.82,-76.89 1925.98,-35.42 2132.58,-22.25"/>
<polygon fill="#63b8ff" stroke="#63b8ff" points="1492.19,-303.27 1502.76,-302.6 1494.08,-296.53 1492.19,-303.27"/>
</a>
</g>
</g>
<!-- Node27 -->
<g id="Node000027" class="node">
<title>Node27</title>
<g id="a_Node000027"><a xlink:href="../../df/d8e/fx__engine_8cpp.html" target="_top" xlink:title=" ">
<polygon fill="white" stroke="#666666" points="1472.75,-178.88 1314.25,-178.88 1314.25,-145.38 1472.75,-145.38 1472.75,-178.88"/>
<text text-anchor="start" x="1322.25" y="-165.38" font-family="Helvetica,sans-Serif" font-size="10.00">/home/runner/work/FastLED</text>
<text text-anchor="middle" x="1393.5" y="-152.62" font-family="Helvetica,sans-Serif" font-size="10.00">/FastLED/src/fx/fx_engine.cpp</text>
</a>
</g>
</g>
<!-- Node15&#45;&gt;Node27 -->
<g id="edge25_Node000015_Node000027" class="edge">
<title>Node15&#45;&gt;Node27</title>
<g id="a_edge25_Node000015_Node000027"><a xlink:title=" ">
<path fill="none" stroke="#63b8ff" d="M1544.05,-295.92C1507.65,-263.82 1443.09,-206.86 1411.68,-179.16"/>
<polygon fill="#63b8ff" stroke="#63b8ff" points="1541.27,-298.14 1551.09,-302.13 1545.91,-292.89 1541.27,-298.14"/>
</a>
</g>
</g>
<!-- Node28 -->
<g id="Node000028" class="node">
<title>Node28</title>
<g id="a_Node000028"><a xlink:href="../../d9/d3c/fx__engine_8h.html" target="_top" xlink:title=" ">
<polygon fill="white" stroke="#666666" points="1758.25,-261.12 1608.75,-261.12 1608.75,-227.62 1758.25,-227.62 1758.25,-261.12"/>
<text text-anchor="start" x="1616.75" y="-247.62" font-family="Helvetica,sans-Serif" font-size="10.00">/home/runner/work/FastLED</text>
<text text-anchor="middle" x="1683.5" y="-234.88" font-family="Helvetica,sans-Serif" font-size="10.00">/FastLED/src/fx/fx_engine.h</text>
</a>
</g>
</g>
<!-- Node15&#45;&gt;Node28 -->
<g id="edge26_Node000015_Node000028" class="edge">
<title>Node15&#45;&gt;Node28</title>
<g id="a_edge26_Node000015_Node000028"><a xlink:title=" ">
<path fill="none" stroke="#63b8ff" d="M1604.59,-296.97C1622.03,-285.56 1642.87,-271.93 1658.76,-261.55"/>
<polygon fill="#63b8ff" stroke="#63b8ff" points="1603.02,-293.81 1596.57,-302.21 1606.85,-299.67 1603.02,-293.81"/>
</a>
</g>
</g>
<!-- Node17&#45;&gt;Node16 -->
<g id="edge17_Node000017_Node000016" class="edge">
<title>Node17&#45;&gt;Node16</title>
<g id="a_edge17_Node000017_Node000016"><a xlink:title=" ">
<path fill="none" stroke="#63b8ff" d="M2272.68,-223.38C2240.77,-211.94 2200.64,-197.57 2167.59,-185.73"/>
<polygon fill="#63b8ff" stroke="#63b8ff" points="2271.15,-226.55 2281.75,-226.62 2273.51,-219.96 2271.15,-226.55"/>
</a>
</g>
</g>
<!-- Node18 -->
<g id="Node000018" class="node">
<title>Node18</title>
<g id="a_Node000018"><a xlink:href="../../d6/d8d/file__system_8h.html" target="_top" xlink:title=" ">
<polygon fill="white" stroke="#666666" points="2738.25,-178.88 2588.75,-178.88 2588.75,-145.38 2738.25,-145.38 2738.25,-178.88"/>
<text text-anchor="start" x="2596.75" y="-165.38" font-family="Helvetica,sans-Serif" font-size="10.00">/home/runner/work/FastLED</text>
<text text-anchor="middle" x="2663.5" y="-152.62" font-family="Helvetica,sans-Serif" font-size="10.00">/FastLED/src/file_system.h</text>
</a>
</g>
</g>
<!-- Node17&#45;&gt;Node18 -->
<g id="edge18_Node000017_Node000018" class="edge">
<title>Node17&#45;&gt;Node18</title>
<g id="a_edge18_Node000017_Node000018"><a xlink:title=" ">
<path fill="none" stroke="#63b8ff" d="M2412.91,-224.66C2461.93,-213.6 2524.82,-199.09 2580.5,-185.25 2588.03,-183.38 2595.92,-181.36 2603.72,-179.32"/>
<polygon fill="#63b8ff" stroke="#63b8ff" points="2412.18,-221.23 2403.19,-226.84 2413.71,-228.06 2412.18,-221.23"/>
</a>
</g>
</g>
<!-- Node19 -->
<g id="Node000019" class="node">
<title>Node19</title>
<g id="a_Node000019"><a xlink:href="../../d4/d37/file__system_8cpp.html" target="_top" xlink:title=" ">
<polygon fill="white" stroke="#666666" points="2571,-178.88 2408,-178.88 2408,-145.38 2571,-145.38 2571,-178.88"/>
<text text-anchor="start" x="2416" y="-165.38" font-family="Helvetica,sans-Serif" font-size="10.00">/home/runner/work/FastLED</text>
<text text-anchor="middle" x="2489.5" y="-152.62" font-family="Helvetica,sans-Serif" font-size="10.00">/FastLED/src/fl/file_system.cpp</text>
</a>
</g>
</g>
<!-- Node17&#45;&gt;Node19 -->
<g id="edge19_Node000017_Node000019" class="edge">
<title>Node17&#45;&gt;Node19</title>
<g id="a_edge19_Node000017_Node000019"><a xlink:title=" ">
<path fill="none" stroke="#63b8ff" d="M2371.36,-222.01C2398.23,-208.62 2432.32,-191.63 2456.97,-179.34"/>
<polygon fill="#63b8ff" stroke="#63b8ff" points="2369.82,-218.87 2362.44,-226.46 2372.95,-225.13 2369.82,-218.87"/>
</a>
</g>
</g>
<!-- Node20 -->
<g id="Node000020" class="node">
<title>Node20</title>
<g id="a_Node000020"><a xlink:href="../../d3/dfa/pixel__stream_8h.html" target="_top" xlink:title=" ">
<polygon fill="#fff0f0" stroke="red" points="2351.25,-185.25 2201.75,-185.25 2201.75,-139 2351.25,-139 2351.25,-185.25"/>
<text text-anchor="start" x="2209.75" y="-171.75" font-family="Helvetica,sans-Serif" font-size="10.00">/home/runner/work/FastLED</text>
<text text-anchor="start" x="2209.75" y="-159" font-family="Helvetica,sans-Serif" font-size="10.00">/FastLED/src/fx/video/pixel</text>
<text text-anchor="middle" x="2276.5" y="-146.25" font-family="Helvetica,sans-Serif" font-size="10.00">_stream.h</text>
</a>
</g>
</g>
<!-- Node17&#45;&gt;Node20 -->
<g id="edge20_Node000017_Node000020" class="edge">
<title>Node17&#45;&gt;Node20</title>
<g id="a_edge20_Node000017_Node000020"><a xlink:title=" ">
<path fill="none" stroke="#63b8ff" d="M2311.73,-217.49C2305.1,-207.26 2297.55,-195.61 2291.14,-185.73"/>
<polygon fill="#63b8ff" stroke="#63b8ff" points="2308.78,-219.38 2317.15,-225.87 2314.65,-215.57 2308.78,-219.38"/>
</a>
</g>
</g>
<!-- Node24 -->
<g id="Node000024" class="node">
<title>Node24</title>
<g id="a_Node000024"><a xlink:href="../../d5/d82/video__impl_8h.html" target="_top" xlink:title=" ">
<polygon fill="#fff0f0" stroke="red" points="2419.12,-103 2235.88,-103 2235.88,-69.5 2419.12,-69.5 2419.12,-103"/>
<text text-anchor="start" x="2243.88" y="-89.5" font-family="Helvetica,sans-Serif" font-size="10.00">/home/runner/work/FastLED</text>
<text text-anchor="middle" x="2327.5" y="-76.75" font-family="Helvetica,sans-Serif" font-size="10.00">/FastLED/src/fx/video/video_impl.h</text>
</a>
</g>
</g>
<!-- Node17&#45;&gt;Node24 -->
<g id="edge24_Node000017_Node000024" class="edge">
<title>Node17&#45;&gt;Node24</title>
<g id="a_edge24_Node000017_Node000024"><a xlink:title=" ">
<path fill="none" stroke="#63b8ff" d="M2346.06,-218.05C2351.85,-208.26 2357.56,-196.68 2360.5,-185.25 2365.62,-165.34 2366.26,-158.73 2360.5,-139 2356.68,-125.91 2348.43,-112.97 2341.14,-103.3"/>
<polygon fill="#63b8ff" stroke="#63b8ff" points="2343.27,-215.91 2340.91,-226.24 2349.2,-219.64 2343.27,-215.91"/>
</a>
</g>
</g>
<!-- Node20&#45;&gt;Node21 -->
<g id="edge21_Node000020_Node000021" class="edge">
<title>Node20&#45;&gt;Node21</title>
<g id="a_edge21_Node000020_Node000021"><a xlink:title=" ">
<path fill="none" stroke="#63b8ff" d="M2245.07,-130.22C2238.08,-121.95 2231.32,-112.61 2226.5,-103 2215.28,-80.64 2210.63,-51.69 2208.74,-33.93"/>
<polygon fill="#63b8ff" stroke="#63b8ff" points="2242.39,-132.48 2251.66,-137.61 2247.62,-127.82 2242.39,-132.48"/>
</a>
</g>
</g>
<!-- Node20&#45;&gt;Node24 -->
<g id="edge22_Node000020_Node000024" class="edge">
<title>Node20&#45;&gt;Node24</title>
<g id="a_edge22_Node000020_Node000024"><a xlink:title=" ">
<path fill="none" stroke="#63b8ff" d="M2298.58,-129.14C2304.73,-120.23 2311.16,-110.92 2316.38,-103.35"/>
<polygon fill="#63b8ff" stroke="#63b8ff" points="2295.74,-127.1 2292.94,-137.31 2301.5,-131.07 2295.74,-127.1"/>
</a>
</g>
</g>
<!-- Node24&#45;&gt;Node21 -->
<g id="edge23_Node000024_Node000021" class="edge">
<title>Node24&#45;&gt;Node21</title>
<g id="a_edge23_Node000024_Node000021"><a xlink:title=" ">
<path fill="none" stroke="#63b8ff" d="M2288.99,-63.59C2271.78,-53.91 2251.85,-42.7 2236.01,-33.79"/>
<polygon fill="#63b8ff" stroke="#63b8ff" points="2287.01,-66.49 2297.44,-68.34 2290.44,-60.39 2287.01,-66.49"/>
</a>
</g>
</g>
<!-- Node28&#45;&gt;Node16 -->
<g id="edge29_Node000028_Node000016" class="edge">
<title>Node28&#45;&gt;Node16</title>
<g id="a_edge29_Node000028_Node000016"><a xlink:title=" ">
<path fill="none" stroke="#63b8ff" d="M1769.52,-230.14C1836.95,-219.34 1933.03,-203 2016.5,-185.25 2019.43,-184.63 2022.41,-183.98 2025.41,-183.3"/>
<polygon fill="#63b8ff" stroke="#63b8ff" points="1769.35,-226.63 1760.02,-231.66 1770.45,-233.54 1769.35,-226.63"/>
</a>
</g>
</g>
<!-- Node28&#45;&gt;Node27 -->
<g id="edge31_Node000028_Node000027" class="edge">
<title>Node28&#45;&gt;Node27</title>
<g id="a_edge31_Node000028_Node000027"><a xlink:title=" ">
<path fill="none" stroke="#63b8ff" d="M1613.89,-224.11C1564.47,-210.44 1498.85,-192.28 1452.1,-179.34"/>
<polygon fill="#63b8ff" stroke="#63b8ff" points="1612.78,-227.44 1623.36,-226.73 1614.65,-220.69 1612.78,-227.44"/>
</a>
</g>
</g>
<!-- Node29 -->
<g id="Node000029" class="node">
<title>Node29</title>
<g id="a_Node000029"><a xlink:href="../../dd/d96/_fx_animartrix_8ino.html" target="_top" xlink:title=" ">
<polygon fill="white" stroke="#666666" points="1833,-185.25 1658,-185.25 1658,-139 1833,-139 1833,-185.25"/>
<text text-anchor="start" x="1666" y="-171.75" font-family="Helvetica,sans-Serif" font-size="10.00">/home/runner/work/FastLED</text>
<text text-anchor="start" x="1666" y="-159" font-family="Helvetica,sans-Serif" font-size="10.00">/FastLED/examples/FxAnimartrix</text>
<text text-anchor="middle" x="1745.5" y="-146.25" font-family="Helvetica,sans-Serif" font-size="10.00">/FxAnimartrix.ino</text>
</a>
</g>
</g>
<!-- Node28&#45;&gt;Node29 -->
<g id="edge27_Node000028_Node000029" class="edge">
<title>Node28&#45;&gt;Node29</title>
<g id="a_edge27_Node000028_Node000029"><a xlink:title=" ">
<path fill="none" stroke="#63b8ff" d="M1703,-218.13C1711.02,-207.75 1720.24,-195.82 1728.04,-185.73"/>
<polygon fill="#63b8ff" stroke="#63b8ff" points="1700.32,-215.88 1696.97,-225.94 1705.86,-220.16 1700.32,-215.88"/>
</a>
</g>
</g>
<!-- Node30 -->
<g id="Node000030" class="node">
<title>Node30</title>
<g id="a_Node000030"><a xlink:href="../../d6/d35/_fx_engine_8ino.html" target="_top" xlink:title="Demonstrates how to use the FxEngine to switch between different effects on a 2D LED matrix.">
<polygon fill="white" stroke="#666666" points="2007.62,-185.25 1851.38,-185.25 1851.38,-139 2007.62,-139 2007.62,-185.25"/>
<text text-anchor="start" x="1859.38" y="-171.75" font-family="Helvetica,sans-Serif" font-size="10.00">/home/runner/work/FastLED</text>
<text text-anchor="start" x="1859.38" y="-159" font-family="Helvetica,sans-Serif" font-size="10.00">/FastLED/examples/FxEngine</text>
<text text-anchor="middle" x="1929.5" y="-146.25" font-family="Helvetica,sans-Serif" font-size="10.00">/FxEngine.ino</text>
</a>
</g>
</g>
<!-- Node28&#45;&gt;Node30 -->
<g id="edge28_Node000028_Node000030" class="edge">
<title>Node28&#45;&gt;Node30</title>
<g id="a_edge28_Node000028_Node000030"><a xlink:title=" ">
<path fill="none" stroke="#63b8ff" d="M1743.89,-223.68C1779.08,-212.19 1823.6,-197.67 1860.22,-185.73"/>
<polygon fill="#63b8ff" stroke="#63b8ff" points="1743.14,-220.24 1734.72,-226.67 1745.31,-226.89 1743.14,-220.24"/>
</a>
</g>
</g>
<!-- Node31 -->
<g id="Node000031" class="node">
<title>Node31</title>
<g id="a_Node000031"><a xlink:href="../../d7/dd3/wasm_8ino.html" target="_top" xlink:title="Demonstrates an advanced ino file with multiple effects and UI elements.">
<polygon fill="white" stroke="#666666" points="1640.25,-185.25 1490.75,-185.25 1490.75,-139 1640.25,-139 1640.25,-185.25"/>
<text text-anchor="start" x="1498.75" y="-171.75" font-family="Helvetica,sans-Serif" font-size="10.00">/home/runner/work/FastLED</text>
<text text-anchor="start" x="1498.75" y="-159" font-family="Helvetica,sans-Serif" font-size="10.00">/FastLED/examples/wasm</text>
<text text-anchor="middle" x="1565.5" y="-146.25" font-family="Helvetica,sans-Serif" font-size="10.00">/wasm.ino</text>
</a>
</g>
</g>
<!-- Node28&#45;&gt;Node31 -->
<g id="edge30_Node000028_Node000031" class="edge">
<title>Node28&#45;&gt;Node31</title>
<g id="a_edge30_Node000028_Node000031"><a xlink:title=" ">
<path fill="none" stroke="#63b8ff" d="M1650.53,-220.95C1634.36,-209.96 1614.93,-196.74 1598.73,-185.73"/>
<polygon fill="#63b8ff" stroke="#63b8ff" points="1648.13,-223.55 1658.37,-226.28 1652.07,-217.77 1648.13,-223.55"/>
</a>
</g>
</g>
</g>
</svg>
