<?xml version="1.0" encoding="UTF-8" standalone="no"?>
<!DOCTYPE svg PUBLIC "-//W3C//DTD SVG 1.1//EN"
 "http://www.w3.org/Graphics/SVG/1.1/DTD/svg11.dtd">
<!-- Generated by graphviz version 12.2.1 (20241206.2353)
 -->
<!-- Title: gen.generate_black_points Pages: 1 -->
<svg width="236pt" height="53pt"
 viewBox="0.00 0.00 235.75 53.12" xmlns="http://www.w3.org/2000/svg" xmlns:xlink="http://www.w3.org/1999/xlink">
<g id="graph0" class="graph" transform="scale(1 1) rotate(0) translate(4 49.12)">
<title>gen.generate_black_points</title>
<!-- Node1 -->
<g id="Node000001" class="node">
<title>Node1</title>
<g id="a_Node000001"><a xlink:title=" ">
<polygon fill="#999999" stroke="#666666" points="227.75,-33.5 115.75,-33.5 115.75,0 227.75,0 227.75,-33.5"/>
<text text-anchor="start" x="123.75" y="-20" font-family="Helvetica,sans-Serif" font-size="10.00">gen.generate_black</text>
<text text-anchor="middle" x="171.75" y="-7.25" font-family="Helvetica,sans-Serif" font-size="10.00">_points</text>
</a>
</g>
</g>
<!-- Node2 -->
<g id="Node000002" class="node">
<title>Node2</title>
<g id="a_Node000002"><a xlink:href="../../dc/d8e/namespacegen.html#a800a34abf73dcc872d14ea222660619c" target="_top" xlink:title=" ">
<polygon fill="white" stroke="#666666" points="79.75,-27.12 0,-27.12 0,-6.38 79.75,-6.38 79.75,-27.12"/>
<text text-anchor="middle" x="39.88" y="-13.62" font-family="Helvetica,sans-Serif" font-size="10.00">gen.unit_test</text>
</a>
</g>
</g>
<!-- Node1&#45;&gt;Node2 -->
<g id="edge1_Node000001_Node000002" class="edge">
<title>Node1&#45;&gt;Node2</title>
<g id="a_edge1_Node000001_Node000002"><a xlink:title=" ">
<path fill="none" stroke="#63b8ff" d="M103.82,-16.75C95.69,-16.75 87.59,-16.75 80.05,-16.75"/>
<polygon fill="#63b8ff" stroke="#63b8ff" points="103.78,-20.25 113.78,-16.75 103.78,-13.25 103.78,-20.25"/>
</a>
</g>
</g>
<!-- Node2&#45;&gt;Node2 -->
<g id="edge2_Node000002_Node000002" class="edge">
<title>Node2&#45;&gt;Node2</title>
<g id="a_edge2_Node000002_Node000002"><a xlink:title=" ">
<path fill="none" stroke="#63b8ff" d="M63.08,-38.61C60.01,-42.45 52.27,-45.12 39.88,-45.12 17.21,-45.12 10.13,-36.18 18.63,-27.52"/>
<polygon fill="#63b8ff" stroke="#63b8ff" points="66.57,-38.25 61.39,-29.01 59.68,-39.47 66.57,-38.25"/>
</a>
</g>
</g>
</g>
</svg>
