<?xml version="1.0" encoding="UTF-8" standalone="no"?>
<!DOCTYPE svg PUBLIC "-//W3C//DTD SVG 1.1//EN"
 "http://www.w3.org/Graphics/SVG/1.1/DTD/svg11.dtd">
<!-- Generated by graphviz version 12.2.1 (20241206.2353)
 -->
<!-- Title: gen.two_angle_test2 Pages: 1 -->
<svg width="483pt" height="29pt"
 viewBox="0.00 0.00 483.00 28.75" xmlns="http://www.w3.org/2000/svg" xmlns:xlink="http://www.w3.org/1999/xlink">
<g id="graph0" class="graph" transform="scale(1 1) rotate(0) translate(4 24.75)">
<title>gen.two_angle_test2</title>
<!-- Node1 -->
<g id="Node000001" class="node">
<title>Node1</title>
<g id="a_Node000001"><a xlink:title=" ">
<polygon fill="#999999" stroke="#666666" points="117.25,-20.75 0,-20.75 0,0 117.25,0 117.25,-20.75"/>
<text text-anchor="middle" x="58.62" y="-7.25" font-family="Helvetica,sans-Serif" font-size="10.00">gen.two_angle_test2</text>
</a>
</g>
</g>
<!-- Node2 -->
<g id="Node000002" class="node">
<title>Node2</title>
<g id="a_Node000002"><a xlink:href="../../dc/d8e/namespacegen.html#abcd6c0f8a022a7f642eabd9c662e5ad9" target="_top" xlink:title=" ">
<polygon fill="white" stroke="#666666" points="243.5,-20.75 153.25,-20.75 153.25,0 243.5,0 243.5,-20.75"/>
<text text-anchor="middle" x="198.38" y="-7.25" font-family="Helvetica,sans-Serif" font-size="10.00">gen.gen_points</text>
</a>
</g>
</g>
<!-- Node1&#45;&gt;Node2 -->
<g id="edge1_Node000001_Node000002" class="edge">
<title>Node1&#45;&gt;Node2</title>
<g id="a_edge1_Node000001_Node000002"><a xlink:title=" ">
<path fill="none" stroke="#63b8ff" d="M117.64,-10.38C125.55,-10.38 133.65,-10.38 141.51,-10.38"/>
<polygon fill="#63b8ff" stroke="#63b8ff" points="141.3,-13.88 151.3,-10.38 141.3,-6.88 141.3,-13.88"/>
</a>
</g>
</g>
<!-- Node3 -->
<g id="Node000003" class="node">
<title>Node3</title>
<g id="a_Node000003"><a xlink:href="../../dc/d8e/namespacegen.html#a4fc5b1da59ed64885db8585feea6794a" target="_top" xlink:title=" ">
<polygon fill="white" stroke="#666666" points="368.25,-20.75 279.5,-20.75 279.5,0 368.25,0 368.25,-20.75"/>
<text text-anchor="middle" x="323.88" y="-7.25" font-family="Helvetica,sans-Serif" font-size="10.00">gen.next_point</text>
</a>
</g>
</g>
<!-- Node2&#45;&gt;Node3 -->
<g id="edge2_Node000002_Node000003" class="edge">
<title>Node2&#45;&gt;Node3</title>
<g id="a_edge2_Node000002_Node000003"><a xlink:title=" ">
<path fill="none" stroke="#63b8ff" d="M243.96,-10.38C251.67,-10.38 259.76,-10.38 267.71,-10.38"/>
<polygon fill="#63b8ff" stroke="#63b8ff" points="267.67,-13.88 277.67,-10.38 267.67,-6.88 267.67,-13.88"/>
</a>
</g>
</g>
<!-- Node4 -->
<g id="Node000004" class="node">
<title>Node4</title>
<g id="a_Node000004"><a xlink:href="../../dc/d8e/namespacegen.html#abe8bcb9c211028969da2d65b3f1d42fd" target="_top" xlink:title=" ">
<polygon fill="white" stroke="#666666" points="475,-20.75 404.25,-20.75 404.25,0 475,0 475,-20.75"/>
<text text-anchor="middle" x="439.62" y="-7.25" font-family="Helvetica,sans-Serif" font-size="10.00">gen.toRads</text>
</a>
</g>
</g>
<!-- Node3&#45;&gt;Node4 -->
<g id="edge3_Node000003_Node000004" class="edge">
<title>Node3&#45;&gt;Node4</title>
<g id="a_edge3_Node000003_Node000004"><a xlink:title=" ">
<path fill="none" stroke="#63b8ff" d="M368.53,-10.38C376.44,-10.38 384.72,-10.38 392.69,-10.38"/>
<polygon fill="#63b8ff" stroke="#63b8ff" points="392.58,-13.88 402.58,-10.38 392.58,-6.88 392.58,-13.88"/>
</a>
</g>
</g>
</g>
</svg>
