<?xml version="1.0" encoding="UTF-8" standalone="no"?>
<!DOCTYPE svg PUBLIC "-//W3C//DTD SVG 1.1//EN"
 "http://www.w3.org/Graphics/SVG/1.1/DTD/svg11.dtd">
<!-- Generated by graphviz version 12.2.1 (20241206.2353)
 -->
<!-- Title: gen.generate_red_points Pages: 1 -->
<svg width="503pt" height="29pt"
 viewBox="0.00 0.00 502.50 28.75" xmlns="http://www.w3.org/2000/svg" xmlns:xlink="http://www.w3.org/1999/xlink">
<g id="graph0" class="graph" transform="scale(1 1) rotate(0) translate(4 24.75)">
<title>gen.generate_red_points</title>
<!-- Node1 -->
<g id="Node000001" class="node">
<title>Node1</title>
<g id="a_Node000001"><a xlink:title=" ">
<polygon fill="#999999" stroke="#666666" points="136.75,-20.75 0,-20.75 0,0 136.75,0 136.75,-20.75"/>
<text text-anchor="middle" x="68.38" y="-7.25" font-family="Helvetica,sans-Serif" font-size="10.00">gen.generate_red_points</text>
</a>
</g>
</g>
<!-- Node2 -->
<g id="Node000002" class="node">
<title>Node2</title>
<g id="a_Node000002"><a xlink:href="../../dc/d8e/namespacegen.html#abcd6c0f8a022a7f642eabd9c662e5ad9" target="_top" xlink:title=" ">
<polygon fill="white" stroke="#666666" points="263,-20.75 172.75,-20.75 172.75,0 263,0 263,-20.75"/>
<text text-anchor="middle" x="217.88" y="-7.25" font-family="Helvetica,sans-Serif" font-size="10.00">gen.gen_points</text>
</a>
</g>
</g>
<!-- Node1&#45;&gt;Node2 -->
<g id="edge1_Node000001_Node000002" class="edge">
<title>Node1&#45;&gt;Node2</title>
<g id="a_edge1_Node000001_Node000002"><a xlink:title=" ">
<path fill="none" stroke="#63b8ff" d="M137.08,-10.38C145.12,-10.38 153.26,-10.38 161.1,-10.38"/>
<polygon fill="#63b8ff" stroke="#63b8ff" points="160.83,-13.88 170.83,-10.38 160.83,-6.88 160.83,-13.88"/>
</a>
</g>
</g>
<!-- Node3 -->
<g id="Node000003" class="node">
<title>Node3</title>
<g id="a_Node000003"><a xlink:href="../../dc/d8e/namespacegen.html#a4fc5b1da59ed64885db8585feea6794a" target="_top" xlink:title=" ">
<polygon fill="white" stroke="#666666" points="387.75,-20.75 299,-20.75 299,0 387.75,0 387.75,-20.75"/>
<text text-anchor="middle" x="343.38" y="-7.25" font-family="Helvetica,sans-Serif" font-size="10.00">gen.next_point</text>
</a>
</g>
</g>
<!-- Node2&#45;&gt;Node3 -->
<g id="edge2_Node000002_Node000003" class="edge">
<title>Node2&#45;&gt;Node3</title>
<g id="a_edge2_Node000002_Node000003"><a xlink:title=" ">
<path fill="none" stroke="#63b8ff" d="M263.46,-10.38C271.17,-10.38 279.26,-10.38 287.21,-10.38"/>
<polygon fill="#63b8ff" stroke="#63b8ff" points="287.17,-13.88 297.17,-10.38 287.17,-6.88 287.17,-13.88"/>
</a>
</g>
</g>
<!-- Node4 -->
<g id="Node000004" class="node">
<title>Node4</title>
<g id="a_Node000004"><a xlink:href="../../dc/d8e/namespacegen.html#abe8bcb9c211028969da2d65b3f1d42fd" target="_top" xlink:title=" ">
<polygon fill="white" stroke="#666666" points="494.5,-20.75 423.75,-20.75 423.75,0 494.5,0 494.5,-20.75"/>
<text text-anchor="middle" x="459.12" y="-7.25" font-family="Helvetica,sans-Serif" font-size="10.00">gen.toRads</text>
</a>
</g>
</g>
<!-- Node3&#45;&gt;Node4 -->
<g id="edge3_Node000003_Node000004" class="edge">
<title>Node3&#45;&gt;Node4</title>
<g id="a_edge3_Node000003_Node000004"><a xlink:title=" ">
<path fill="none" stroke="#63b8ff" d="M388.03,-10.38C395.94,-10.38 404.22,-10.38 412.19,-10.38"/>
<polygon fill="#63b8ff" stroke="#63b8ff" points="412.08,-13.88 422.08,-10.38 412.08,-6.88 412.08,-13.88"/>
</a>
</g>
</g>
</g>
</svg>
