<?xml version="1.0" encoding="UTF-8" standalone="no"?>
<!DOCTYPE svg PUBLIC "-//W3C//DTD SVG 1.1//EN"
 "http://www.w3.org/Graphics/SVG/1.1/DTD/svg11.dtd">
<!-- Generated by graphviz version 12.2.1 (20241206.2353)
 -->
<!-- Title: gen.generate_red_points Pages: 1 -->
<svg width="261pt" height="47pt"
 viewBox="0.00 0.00 260.50 46.75" xmlns="http://www.w3.org/2000/svg" xmlns:xlink="http://www.w3.org/1999/xlink">
<g id="graph0" class="graph" transform="scale(1 1) rotate(0) translate(4 42.75)">
<title>gen.generate_red_points</title>
<!-- Node1 -->
<g id="Node000001" class="node">
<title>Node1</title>
<g id="a_Node000001"><a xlink:title=" ">
<polygon fill="#999999" stroke="#666666" points="252.5,-20.75 115.75,-20.75 115.75,0 252.5,0 252.5,-20.75"/>
<text text-anchor="middle" x="184.12" y="-7.25" font-family="Helvetica,sans-Serif" font-size="10.00">gen.generate_red_points</text>
</a>
</g>
</g>
<!-- Node2 -->
<g id="Node000002" class="node">
<title>Node2</title>
<g id="a_Node000002"><a xlink:href="../../dc/d8e/namespacegen.html#a800a34abf73dcc872d14ea222660619c" target="_top" xlink:title=" ">
<polygon fill="white" stroke="#666666" points="79.75,-20.75 0,-20.75 0,0 79.75,0 79.75,-20.75"/>
<text text-anchor="middle" x="39.88" y="-7.25" font-family="Helvetica,sans-Serif" font-size="10.00">gen.unit_test</text>
</a>
</g>
</g>
<!-- Node1&#45;&gt;Node2 -->
<g id="edge1_Node000001_Node000002" class="edge">
<title>Node1&#45;&gt;Node2</title>
<g id="a_edge1_Node000001_Node000002"><a xlink:title=" ">
<path fill="none" stroke="#63b8ff" d="M103.93,-10.38C95.61,-10.38 87.44,-10.38 79.87,-10.38"/>
<polygon fill="#63b8ff" stroke="#63b8ff" points="103.82,-13.88 113.82,-10.38 103.82,-6.88 103.82,-13.88"/>
</a>
</g>
</g>
<!-- Node2&#45;&gt;Node2 -->
<g id="edge2_Node000002_Node000002" class="edge">
<title>Node2&#45;&gt;Node2</title>
<g id="a_edge2_Node000002_Node000002"><a xlink:title=" ">
<path fill="none" stroke="#63b8ff" d="M65.26,-32.24C61.89,-36.08 53.43,-38.75 39.88,-38.75 15.08,-38.75 7.33,-29.81 16.63,-21.15"/>
<polygon fill="#63b8ff" stroke="#63b8ff" points="68.74,-31.79 63.41,-22.63 61.86,-33.12 68.74,-31.79"/>
</a>
</g>
</g>
</g>
</svg>
