<?xml version="1.0" encoding="UTF-8" standalone="no"?>
<!DOCTYPE svg PUBLIC "-//W3C//DTD SVG 1.1//EN"
 "http://www.w3.org/Graphics/SVG/1.1/DTD/svg11.dtd">
<!-- Generated by graphviz version 12.2.1 (20241206.2353)
 -->
<!-- Title: /home/runner/work/FastLED/FastLED/examples/LuminescentGrand/arduino/midi_Platform.h Pages: 1 -->
<svg width="216pt" height="168pt"
 viewBox="0.00 0.00 216.25 167.75" xmlns="http://www.w3.org/2000/svg" xmlns:xlink="http://www.w3.org/1999/xlink">
<g id="graph0" class="graph" transform="scale(1 1) rotate(0) translate(4 163.75)">
<title>/home/runner/work/FastLED/FastLED/examples/LuminescentGrand/arduino/midi_Platform.h</title>
<!-- Node1 -->
<g id="Node000001" class="node">
<title>Node1</title>
<g id="a_Node000001"><a xlink:title="MIDI Library for the Arduino &#45; Platform @license MIT &#45; Copyright (c) 2015 Francois Best.">
<polygon fill="#999999" stroke="#666666" points="208.25,-159.75 5.5,-159.75 5.5,-113.5 208.25,-113.5 208.25,-159.75"/>
<text text-anchor="start" x="13.5" y="-146.25" font-family="Helvetica,sans-Serif" font-size="10.00">/home/runner/work/FastLED</text>
<text text-anchor="start" x="13.5" y="-133.5" font-family="Helvetica,sans-Serif" font-size="10.00">/FastLED/examples/LuminescentGrand</text>
<text text-anchor="middle" x="106.88" y="-120.75" font-family="Helvetica,sans-Serif" font-size="10.00">/arduino/midi_Platform.h</text>
</a>
</g>
</g>
<!-- Node2 -->
<g id="Node000002" class="node">
<title>Node2</title>
<g id="a_Node000002"><a xlink:href="../../d8/dd0/midi___defs_8h.html" target="_top" xlink:title="MIDI Library for the Arduino &#45; Definitions.">
<polygon fill="white" stroke="#666666" points="144.12,-77.5 69.62,-77.5 69.62,-56.75 144.12,-56.75 144.12,-77.5"/>
<text text-anchor="middle" x="106.88" y="-64" font-family="Helvetica,sans-Serif" font-size="10.00">midi_Defs.h</text>
</a>
</g>
</g>
<!-- Node1&#45;&gt;Node2 -->
<g id="edge1_Node000001_Node000002" class="edge">
<title>Node1&#45;&gt;Node2</title>
<g id="a_edge1_Node000001_Node000002"><a xlink:title=" ">
<path fill="none" stroke="#63b8ff" d="M106.88,-113.15C106.88,-105.48 106.88,-96.94 106.88,-89.38"/>
<polygon fill="#63b8ff" stroke="#63b8ff" points="110.38,-89.4 106.88,-79.4 103.38,-89.4 110.38,-89.4"/>
</a>
</g>
</g>
<!-- Node3 -->
<g id="Node000003" class="node">
<title>Node3</title>
<g id="a_Node000003"><a xlink:href="../../df/dce/midi___namespace_8h.html" target="_top" xlink:title="MIDI Library for the Arduino &#45; Namespace declaration.">
<polygon fill="white" stroke="#666666" points="109.75,-20.75 0,-20.75 0,0 109.75,0 109.75,-20.75"/>
<text text-anchor="middle" x="54.88" y="-7.25" font-family="Helvetica,sans-Serif" font-size="10.00">midi_Namespace.h</text>
</a>
</g>
</g>
<!-- Node2&#45;&gt;Node3 -->
<g id="edge2_Node000002_Node000003" class="edge">
<title>Node2&#45;&gt;Node3</title>
<g id="a_edge2_Node000002_Node000003"><a xlink:title=" ">
<path fill="none" stroke="#63b8ff" d="M97.58,-56.34C90.48,-48.86 80.5,-38.36 71.97,-29.38"/>
<polygon fill="#63b8ff" stroke="#63b8ff" points="74.56,-27.02 65.13,-22.18 69.48,-31.84 74.56,-27.02"/>
</a>
</g>
</g>
<!-- Node4 -->
<g id="Node000004" class="node">
<title>Node4</title>
<g id="a_Node000004"><a xlink:title=" ">
<polygon fill="#e0e0e0" stroke="#999999" points="192.25,-20.75 127.5,-20.75 127.5,0 192.25,0 192.25,-20.75"/>
<text text-anchor="middle" x="159.88" y="-7.25" font-family="Helvetica,sans-Serif" font-size="10.00">inttypes.h</text>
</a>
</g>
</g>
<!-- Node2&#45;&gt;Node4 -->
<g id="edge3_Node000002_Node000004" class="edge">
<title>Node2&#45;&gt;Node4</title>
<g id="a_edge3_Node000002_Node000004"><a xlink:title=" ">
<path fill="none" stroke="#63b8ff" d="M116.35,-56.34C123.66,-48.78 133.97,-38.14 142.72,-29.1"/>
<polygon fill="#63b8ff" stroke="#63b8ff" points="144.99,-31.79 149.43,-22.17 139.96,-26.92 144.99,-31.79"/>
</a>
</g>
</g>
</g>
</svg>
