<?xml version="1.0" encoding="UTF-8" standalone="no"?>
<!DOCTYPE svg PUBLIC "-//W3C//DTD SVG 1.1//EN"
 "http://www.w3.org/Graphics/SVG/1.1/DTD/svg11.dtd">
<!-- Generated by graphviz version 12.2.1 (20241206.2353)
 -->
<!-- Title: fl::FastLEDANIMartRIX Pages: 1 -->
<svg width="1265pt" height="332pt"
 viewBox="0.00 0.00 1265.25 331.75" xmlns="http://www.w3.org/2000/svg" xmlns:xlink="http://www.w3.org/1999/xlink">
<g id="graph0" class="graph" transform="scale(1 1) rotate(0) translate(4 327.75)">
<title>fl::FastLEDANIMartRIX</title>
<!-- Node1 -->
<g id="Node000001" class="node">
<title>Node1</title>
<g id="a_Node000001"><a xlink:title=" ">
<polygon fill="#999999" stroke="#666666" points="809.75,-134.75 687.25,-134.75 687.25,-114 809.75,-114 809.75,-134.75"/>
<text text-anchor="middle" x="748.5" y="-121.25" font-family="Helvetica,sans-Serif" font-size="10.00">fl::FastLEDANIMartRIX</text>
</a>
</g>
</g>
<!-- Node27 -->
<g id="Node000027" class="node">
<title>Node27</title>
<g id="a_Node000027"><a xlink:href="../../df/d0b/classfl_1_1scoped__ptr.html" target="_top" xlink:title=" ">
<polygon fill="white" stroke="#666666" points="1116.75,-201.12 989,-201.12 989,-167.62 1116.75,-167.62 1116.75,-201.12"/>
<text text-anchor="start" x="997" y="-187.62" font-family="Helvetica,sans-Serif" font-size="10.00">fl::scoped_ptr&lt; fl</text>
<text text-anchor="middle" x="1052.88" y="-174.88" font-family="Helvetica,sans-Serif" font-size="10.00">::FastLEDANIMartRIX &gt;</text>
</a>
</g>
</g>
<!-- Node1&#45;&gt;Node27 -->
<g id="edge14_Node000027_Node000001" class="edge">
<title>Node1&#45;&gt;Node27</title>
<g id="a_edge14_Node000027_Node000001"><a xlink:title=" ">
<path fill="none" stroke="#9a32cd" stroke-dasharray="5,2" d="M821.3,-135.06C864.81,-141.96 921.32,-151.68 971,-162.62 977.25,-164 983.74,-165.55 990.2,-167.16"/>
<polygon fill="#9a32cd" stroke="#9a32cd" points="821.88,-131.61 811.45,-133.52 820.79,-138.53 821.88,-131.61"/>
</a>
</g>
<text text-anchor="middle" x="905" y="-165.88" font-family="Helvetica,sans-Serif" font-size="10.00" fill="grey"> ptr_</text>
</g>
<!-- Node2 -->
<g id="Node000002" class="node">
<title>Node2</title>
<g id="a_Node000002"><a xlink:href="../../df/d5e/classanimartrix__detail_1_1_a_n_i_mart_r_i_x.html" target="_top" xlink:title=" ">
<polygon fill="white" stroke="#666666" points="639,-141.12 533,-141.12 533,-107.62 639,-107.62 639,-141.12"/>
<text text-anchor="start" x="541" y="-127.62" font-family="Helvetica,sans-Serif" font-size="10.00">animartrix_detail::</text>
<text text-anchor="middle" x="586" y="-114.88" font-family="Helvetica,sans-Serif" font-size="10.00">ANIMartRIX</text>
</a>
</g>
</g>
<!-- Node2&#45;&gt;Node1 -->
<g id="edge1_Node000001_Node000002" class="edge">
<title>Node2&#45;&gt;Node1</title>
<g id="a_edge1_Node000001_Node000002"><a xlink:title=" ">
<path fill="none" stroke="#63b8ff" d="M650.45,-124.38C662.49,-124.38 675.06,-124.38 687,-124.38"/>
<polygon fill="#63b8ff" stroke="#63b8ff" points="650.62,-120.88 640.62,-124.38 650.62,-127.88 650.62,-120.88"/>
</a>
</g>
</g>
<!-- Node3 -->
<g id="Node000003" class="node">
<title>Node3</title>
<g id="a_Node000003"><a xlink:href="../../d6/d74/namespaceanimartrix__detail.html#d5/df4/structanimartrix__detail_1_1render__parameters" target="_top" xlink:title=" ">
<polygon fill="white" stroke="#666666" points="429.12,-245.12 320.12,-245.12 320.12,-211.62 429.12,-211.62 429.12,-245.12"/>
<text text-anchor="start" x="328.12" y="-231.62" font-family="Helvetica,sans-Serif" font-size="10.00">animartrix_detail::</text>
<text text-anchor="middle" x="374.62" y="-218.88" font-family="Helvetica,sans-Serif" font-size="10.00">render_parameters</text>
</a>
</g>
</g>
<!-- Node3&#45;&gt;Node2 -->
<g id="edge2_Node000002_Node000003" class="edge">
<title>Node3&#45;&gt;Node2</title>
<g id="a_edge2_Node000002_Node000003"><a xlink:title=" ">
<path fill="none" stroke="#9a32cd" stroke-dasharray="5,2" d="M429.97,-207.04C433.88,-205.47 437.75,-203.91 441.5,-202.38 474.32,-188.98 483.81,-188.22 515,-171.38 531.36,-162.54 548.71,-150.9 562.05,-141.42"/>
<polygon fill="#9a32cd" stroke="#9a32cd" points="429.01,-203.65 421.03,-210.61 431.61,-210.15 429.01,-203.65"/>
</a>
</g>
<text text-anchor="middle" x="487.25" y="-198.31" font-family="Helvetica,sans-Serif" font-size="10.00" fill="grey"> animation</text>
</g>
<!-- Node4 -->
<g id="Node000004" class="node">
<title>Node4</title>
<g id="a_Node000004"><a xlink:href="../../d6/d74/namespaceanimartrix__detail.html#d5/d40/structanimartrix__detail_1_1oscillators" target="_top" xlink:title=" ">
<polygon fill="white" stroke="#666666" points="427.62,-193.12 321.62,-193.12 321.62,-159.62 427.62,-159.62 427.62,-193.12"/>
<text text-anchor="start" x="329.62" y="-179.62" font-family="Helvetica,sans-Serif" font-size="10.00">animartrix_detail::</text>
<text text-anchor="middle" x="374.62" y="-166.88" font-family="Helvetica,sans-Serif" font-size="10.00">oscillators</text>
</a>
</g>
</g>
<!-- Node4&#45;&gt;Node2 -->
<g id="edge3_Node000002_Node000004" class="edge">
<title>Node4&#45;&gt;Node2</title>
<g id="a_edge3_Node000002_Node000004"><a xlink:title=" ">
<path fill="none" stroke="#9a32cd" stroke-dasharray="5,2" d="M438.7,-160.71C468.71,-153.26 504.16,-144.45 532.65,-137.38"/>
<polygon fill="#9a32cd" stroke="#9a32cd" points="438.25,-157.22 429.39,-163.02 439.94,-164.01 438.25,-157.22"/>
</a>
</g>
<text text-anchor="middle" x="487.25" y="-158.28" font-family="Helvetica,sans-Serif" font-size="10.00" fill="grey"> timings</text>
</g>
<!-- Node5 -->
<g id="Node000005" class="node">
<title>Node5</title>
<g id="a_Node000005"><a xlink:href="../../d6/d74/namespaceanimartrix__detail.html#df/dfa/structanimartrix__detail_1_1modulators" target="_top" xlink:title=" ">
<polygon fill="white" stroke="#666666" points="427.62,-141.12 321.62,-141.12 321.62,-107.62 427.62,-107.62 427.62,-141.12"/>
<text text-anchor="start" x="329.62" y="-127.62" font-family="Helvetica,sans-Serif" font-size="10.00">animartrix_detail::</text>
<text text-anchor="middle" x="374.62" y="-114.88" font-family="Helvetica,sans-Serif" font-size="10.00">modulators</text>
</a>
</g>
</g>
<!-- Node5&#45;&gt;Node2 -->
<g id="edge4_Node000002_Node000005" class="edge">
<title>Node5&#45;&gt;Node2</title>
<g id="a_edge4_Node000002_Node000005"><a xlink:title=" ">
<path fill="none" stroke="#9a32cd" stroke-dasharray="5,2" d="M439.1,-124.38C469.02,-124.38 504.28,-124.38 532.65,-124.38"/>
<polygon fill="#9a32cd" stroke="#9a32cd" points="439.43,-120.88 429.43,-124.38 439.43,-127.88 439.43,-120.88"/>
</a>
</g>
<text text-anchor="middle" x="487.25" y="-127.62" font-family="Helvetica,sans-Serif" font-size="10.00" fill="grey"> move</text>
</g>
<!-- Node6 -->
<g id="Node000006" class="node">
<title>Node6</title>
<g id="a_Node000006"><a xlink:href="../../d6/d74/namespaceanimartrix__detail.html#d1/d5c/structanimartrix__detail_1_1rgb" target="_top" xlink:title=" ">
<polygon fill="white" stroke="#666666" points="435.5,-89.75 313.75,-89.75 313.75,-69 435.5,-69 435.5,-89.75"/>
<text text-anchor="middle" x="374.62" y="-76.25" font-family="Helvetica,sans-Serif" font-size="10.00">animartrix_detail::rgb</text>
</a>
</g>
</g>
<!-- Node6&#45;&gt;Node2 -->
<g id="edge5_Node000002_Node000006" class="edge">
<title>Node6&#45;&gt;Node2</title>
<g id="a_edge5_Node000002_Node000006"><a xlink:title=" ">
<path fill="none" stroke="#9a32cd" stroke-dasharray="5,2" d="M442.39,-92.41C465.43,-97.05 491.38,-102.41 515,-107.62 520.73,-108.89 526.72,-110.26 532.68,-111.64"/>
<polygon fill="#9a32cd" stroke="#9a32cd" points="443.31,-89.03 432.82,-90.5 441.94,-95.89 443.31,-89.03"/>
</a>
</g>
<text text-anchor="middle" x="487.25" y="-110.88" font-family="Helvetica,sans-Serif" font-size="10.00" fill="grey"> pixel</text>
</g>
<!-- Node7 -->
<g id="Node000007" class="node">
<title>Node7</title>
<g id="a_Node000007"><a xlink:href="../../db/ddd/classfl_1_1_heap_vector.html" target="_top" xlink:title=" ">
<polygon fill="white" stroke="#666666" points="441.5,-49.12 307.75,-49.12 307.75,-15.62 441.5,-15.62 441.5,-49.12"/>
<text text-anchor="start" x="315.75" y="-35.62" font-family="Helvetica,sans-Serif" font-size="10.00">fl::HeapVector&lt; fl</text>
<text text-anchor="middle" x="374.62" y="-22.88" font-family="Helvetica,sans-Serif" font-size="10.00">::HeapVector&lt; float &gt; &gt;</text>
</a>
</g>
</g>
<!-- Node7&#45;&gt;Node2 -->
<g id="edge6_Node000002_Node000007" class="edge">
<title>Node7&#45;&gt;Node2</title>
<g id="a_edge6_Node000002_Node000007"><a xlink:title=" ">
<path fill="none" stroke="#9a32cd" stroke-dasharray="5,2" d="M453.01,-45.08C473.81,-50.2 495.83,-57.25 515,-66.88 535.52,-77.17 555.4,-94.43 568.7,-107.35"/>
<polygon fill="#9a32cd" stroke="#9a32cd" points="453.94,-41.71 443.41,-42.85 452.36,-48.52 453.94,-41.71"/>
</a>
</g>
<text text-anchor="middle" x="487.25" y="-82.88" font-family="Helvetica,sans-Serif" font-size="10.00" fill="grey"> distance</text>
<text text-anchor="middle" x="487.25" y="-70.12" font-family="Helvetica,sans-Serif" font-size="10.00" fill="grey">polar_theta</text>
</g>
<!-- Node8 -->
<g id="Node000008" class="node">
<title>Node8</title>
<g id="a_Node000008"><a xlink:href="../../d3/d92/classfl_1_1scoped__array.html" target="_top" xlink:title=" ">
<polygon fill="#fff0f0" stroke="red" points="133.75,-72.12 0,-72.12 0,-38.62 133.75,-38.62 133.75,-72.12"/>
<text text-anchor="start" x="8" y="-58.62" font-family="Helvetica,sans-Serif" font-size="10.00">fl::scoped_array&lt; fl</text>
<text text-anchor="middle" x="66.88" y="-45.88" font-family="Helvetica,sans-Serif" font-size="10.00">::HeapVector&lt; float &gt; &gt;</text>
</a>
</g>
</g>
<!-- Node8&#45;&gt;Node7 -->
<g id="edge7_Node000007_Node000008" class="edge">
<title>Node8&#45;&gt;Node7</title>
<g id="a_edge7_Node000007_Node000008"><a xlink:title=" ">
<path fill="none" stroke="#9a32cd" stroke-dasharray="5,2" d="M145.63,-49.53C195.61,-45.77 259.86,-40.93 307.41,-37.36"/>
<polygon fill="#9a32cd" stroke="#9a32cd" points="145.44,-46.03 135.73,-50.27 145.96,-53.01 145.44,-46.03"/>
</a>
</g>
<text text-anchor="middle" x="220.75" y="-51.83" font-family="Helvetica,sans-Serif" font-size="10.00" fill="grey"> mArray</text>
</g>
<!-- Node14 -->
<g id="Node000014" class="node">
<title>Node14</title>
<g id="a_Node000014"><a xlink:href="../../db/ddd/classfl_1_1_heap_vector.html" target="_top" xlink:title=" ">
<polygon fill="white" stroke="#666666" points="123.25,-20.75 10.5,-20.75 10.5,0 123.25,0 123.25,-20.75"/>
<text text-anchor="middle" x="66.88" y="-7.25" font-family="Helvetica,sans-Serif" font-size="10.00">fl::HeapVector&lt; T &gt;</text>
</a>
</g>
</g>
<!-- Node14&#45;&gt;Node7 -->
<g id="edge8_Node000007_Node000014" class="edge">
<title>Node14&#45;&gt;Node7</title>
<g id="a_edge8_Node000007_Node000014"><a xlink:title=" ">
<path fill="none" stroke="orange" stroke-dasharray="5,2" d="M135.04,-11.85C179.1,-13.22 237.94,-15.81 289.75,-20.62 295.46,-21.16 301.38,-21.8 307.3,-22.5"/>
<polygon fill="orange" stroke="orange" points="135.21,-8.36 125.11,-11.56 135,-15.35 135.21,-8.36"/>
</a>
</g>
<text text-anchor="middle" x="220.75" y="-23.88" font-family="Helvetica,sans-Serif" font-size="10.00" fill="grey"> &lt; fl::HeapVector&lt; float &gt; &gt;</text>
</g>
<!-- Node16 -->
<g id="Node000016" class="node">
<title>Node16</title>
<g id="a_Node000016"><a xlink:href="../../d8/df5/classfl_1_1_animartrix.html" target="_top" xlink:title=" ">
<polygon fill="white" stroke="#666666" points="1257.25,-220.75 1177.5,-220.75 1177.5,-200 1257.25,-200 1257.25,-220.75"/>
<text text-anchor="middle" x="1217.38" y="-207.25" font-family="Helvetica,sans-Serif" font-size="10.00">fl::Animartrix</text>
</a>
</g>
</g>
<!-- Node16&#45;&gt;Node1 -->
<g id="edge9_Node000001_Node000016" class="edge">
<title>Node16&#45;&gt;Node1</title>
<g id="a_edge9_Node000001_Node000016"><a xlink:title=" ">
<path fill="none" stroke="#9a32cd" stroke-dasharray="5,2" d="M1195.54,-192.32C1176.44,-176.94 1146.67,-155.76 1116.75,-145.62 1013.47,-110.63 884.58,-112.86 810.19,-118.23"/>
<polygon fill="#9a32cd" stroke="#9a32cd" points="1193.15,-194.89 1203.08,-198.58 1197.62,-189.5 1193.15,-194.89"/>
</a>
</g>
<text text-anchor="middle" x="1052.88" y="-148.88" font-family="Helvetica,sans-Serif" font-size="10.00" fill="grey"> data</text>
</g>
<!-- Node17 -->
<g id="Node000017" class="node">
<title>Node17</title>
<g id="a_Node000017"><a xlink:href="../../d7/d3e/classfl_1_1_fx2d.html" target="_top" xlink:title=" ">
<polygon fill="white" stroke="#666666" points="1078.88,-284.75 1026.88,-284.75 1026.88,-264 1078.88,-264 1078.88,-284.75"/>
<text text-anchor="middle" x="1052.88" y="-271.25" font-family="Helvetica,sans-Serif" font-size="10.00">fl::Fx2d</text>
</a>
</g>
</g>
<!-- Node17&#45;&gt;Node16 -->
<g id="edge10_Node000016_Node000017" class="edge">
<title>Node17&#45;&gt;Node16</title>
<g id="a_edge10_Node000016_Node000017"><a xlink:title=" ">
<path fill="none" stroke="#63b8ff" d="M1090.06,-262.2C1110.59,-255.08 1136.66,-245.69 1159.5,-236.38 1170.96,-231.7 1183.49,-226.04 1193.87,-221.19"/>
<polygon fill="#63b8ff" stroke="#63b8ff" points="1089.03,-258.85 1080.71,-265.41 1091.31,-265.47 1089.03,-258.85"/>
</a>
</g>
</g>
<!-- Node18 -->
<g id="Node000018" class="node">
<title>Node18</title>
<g id="a_Node000018"><a xlink:href="../../da/d5d/classfl_1_1_fx.html" target="_top" xlink:title=" ">
<polygon fill="#fff0f0" stroke="red" points="768.5,-323.75 728.5,-323.75 728.5,-303 768.5,-303 768.5,-323.75"/>
<text text-anchor="middle" x="748.5" y="-310.25" font-family="Helvetica,sans-Serif" font-size="10.00">fl::Fx</text>
</a>
</g>
</g>
<!-- Node18&#45;&gt;Node17 -->
<g id="edge11_Node000017_Node000018" class="edge">
<title>Node18&#45;&gt;Node17</title>
<g id="a_edge11_Node000017_Node000018"><a xlink:title=" ">
<path fill="none" stroke="#63b8ff" d="M780.15,-311.38C823.03,-308.36 903.25,-301.83 971,-291.38 989.72,-288.49 1010.63,-284.06 1026.51,-280.44"/>
<polygon fill="#63b8ff" stroke="#63b8ff" points="780.09,-307.88 770.36,-312.06 780.57,-314.86 780.09,-307.88"/>
</a>
</g>
</g>
<!-- Node26 -->
<g id="Node000026" class="node">
<title>Node26</title>
<g id="a_Node000026"><a xlink:href="../../d0/dce/classfl_1_1_x_y_map.html" target="_top" xlink:title=" ">
<polygon fill="white" stroke="#666666" points="779.38,-284.75 717.62,-284.75 717.62,-264 779.38,-264 779.38,-284.75"/>
<text text-anchor="middle" x="748.5" y="-271.25" font-family="Helvetica,sans-Serif" font-size="10.00">fl::XYMap</text>
</a>
</g>
</g>
<!-- Node26&#45;&gt;Node17 -->
<g id="edge12_Node000017_Node000026" class="edge">
<title>Node26&#45;&gt;Node17</title>
<g id="a_edge12_Node000017_Node000026"><a xlink:title=" ">
<path fill="none" stroke="#9a32cd" stroke-dasharray="5,2" d="M790.79,-274.38C854.41,-274.38 974.51,-274.38 1026.65,-274.38"/>
<polygon fill="#9a32cd" stroke="#9a32cd" points="791.11,-270.88 781.11,-274.38 791.11,-277.88 791.11,-270.88"/>
</a>
</g>
<text text-anchor="middle" x="905" y="-277.62" font-family="Helvetica,sans-Serif" font-size="10.00" fill="grey"> mXyMap</text>
</g>
<!-- Node27&#45;&gt;Node16 -->
<g id="edge13_Node000016_Node000027" class="edge">
<title>Node27&#45;&gt;Node16</title>
<g id="a_edge13_Node000016_Node000027"><a xlink:title=" ">
<path fill="none" stroke="#9a32cd" stroke-dasharray="5,2" d="M1128.3,-195.66C1138.78,-197.3 1149.41,-198.98 1159.5,-200.62 1165.24,-201.56 1171.29,-202.57 1177.23,-203.57"/>
<polygon fill="#9a32cd" stroke="#9a32cd" points="1128.93,-192.22 1118.51,-194.14 1127.86,-199.13 1128.93,-192.22"/>
</a>
</g>
<text text-anchor="middle" x="1147.12" y="-203.88" font-family="Helvetica,sans-Serif" font-size="10.00" fill="grey"> impl</text>
</g>
<!-- Node28 -->
<g id="Node000028" class="node">
<title>Node28</title>
<g id="a_Node000028"><a xlink:href="../../d8/d3d/structfl_1_1_pointer_deleter.html" target="_top" xlink:title=" ">
<polygon fill="#fff0f0" stroke="red" points="821,-246.12 676,-246.12 676,-212.62 821,-212.62 821,-246.12"/>
<text text-anchor="start" x="684" y="-232.62" font-family="Helvetica,sans-Serif" font-size="10.00">fl::PointerDeleter</text>
<text text-anchor="middle" x="748.5" y="-219.88" font-family="Helvetica,sans-Serif" font-size="10.00">&lt; fl::FastLEDANIMartRIX &gt;</text>
</a>
</g>
</g>
<!-- Node28&#45;&gt;Node27 -->
<g id="edge15_Node000027_Node000028" class="edge">
<title>Node28&#45;&gt;Node27</title>
<g id="a_edge15_Node000027_Node000028"><a xlink:title=" ">
<path fill="none" stroke="#9a32cd" stroke-dasharray="5,2" d="M832.65,-219.09C874.27,-213.69 925.37,-206.69 971,-199.38 976.78,-198.45 982.78,-197.43 988.79,-196.38"/>
<polygon fill="#9a32cd" stroke="#9a32cd" points="832.43,-215.59 822.96,-220.34 833.32,-222.53 832.43,-215.59"/>
</a>
</g>
<text text-anchor="middle" x="905" y="-221.45" font-family="Helvetica,sans-Serif" font-size="10.00" fill="grey"> deleter_</text>
</g>
<!-- Node30 -->
<g id="Node000030" class="node">
<title>Node30</title>
<g id="a_Node000030"><a xlink:href="../../df/d0b/classfl_1_1scoped__ptr.html" target="_top" xlink:title=" ">
<polygon fill="white" stroke="#666666" points="799.25,-194.12 697.75,-194.12 697.75,-160.62 799.25,-160.62 799.25,-194.12"/>
<text text-anchor="start" x="705.75" y="-180.62" font-family="Helvetica,sans-Serif" font-size="10.00">fl::scoped_ptr&lt; T,</text>
<text text-anchor="middle" x="748.5" y="-167.88" font-family="Helvetica,sans-Serif" font-size="10.00"> Deleter &gt;</text>
</a>
</g>
</g>
<!-- Node30&#45;&gt;Node27 -->
<g id="edge16_Node000027_Node000030" class="edge">
<title>Node30&#45;&gt;Node27</title>
<g id="a_edge16_Node000027_Node000030"><a xlink:title=" ">
<path fill="none" stroke="orange" stroke-dasharray="5,2" d="M810.78,-178.79C862.56,-179.99 936.44,-181.7 988.73,-182.91"/>
<polygon fill="orange" stroke="orange" points="811.02,-175.3 800.94,-178.57 810.86,-182.3 811.02,-175.3"/>
</a>
</g>
<text text-anchor="middle" x="905" y="-185.75" font-family="Helvetica,sans-Serif" font-size="10.00" fill="grey"> &lt; fl::FastLEDANIMartRIX &gt;</text>
</g>
<!-- Node31 -->
<g id="Node000031" class="node">
<title>Node31</title>
<g id="a_Node000031"><a xlink:href="../../db/d87/group___pixel_types.html#d7/d82/struct_c_r_g_b" target="_top" xlink:title="Representation of an RGB pixel (Red, Green, Blue)">
<polygon fill="white" stroke="#666666" points="1074.75,-239.75 1031,-239.75 1031,-219 1074.75,-219 1074.75,-239.75"/>
<text text-anchor="middle" x="1052.88" y="-226.25" font-family="Helvetica,sans-Serif" font-size="10.00">CRGB</text>
</a>
</g>
</g>
<!-- Node31&#45;&gt;Node16 -->
<g id="edge17_Node000016_Node000031" class="edge">
<title>Node31&#45;&gt;Node16</title>
<g id="a_edge17_Node000016_Node000031"><a xlink:title=" ">
<path fill="none" stroke="#9a32cd" stroke-dasharray="5,2" d="M1086.3,-225.58C1112.42,-222.53 1149.25,-218.22 1177.05,-214.97"/>
<polygon fill="#9a32cd" stroke="#9a32cd" points="1086.15,-222.08 1076.62,-226.72 1086.96,-229.03 1086.15,-222.08"/>
</a>
</g>
<text text-anchor="middle" x="1147.12" y="-223.12" font-family="Helvetica,sans-Serif" font-size="10.00" fill="grey"> leds</text>
</g>
</g>
</svg>
