<?xml version="1.0" encoding="UTF-8" standalone="no"?>
<!DOCTYPE svg PUBLIC "-//W3C//DTD SVG 1.1//EN"
 "http://www.w3.org/Graphics/SVG/1.1/DTD/svg11.dtd">
<!-- Generated by graphviz version 12.2.1 (20241206.2353)
 -->
<!-- Title: SPIOutput&lt; _DATA_PIN, _CLOCK_PIN, _SPI_CLOCK_DIVIDER &gt; Pages: 1 -->
<svg width="959pt" height="368pt"
 viewBox="0.00 0.00 958.75 367.85" xmlns="http://www.w3.org/2000/svg" xmlns:xlink="http://www.w3.org/1999/xlink">
<g id="graph0" class="graph" transform="scale(1 1) rotate(0) translate(4 363.85)">
<title>SPIOutput&lt; _DATA_PIN, _CLOCK_PIN, _SPI_CLOCK_DIVIDER &gt;</title>
<!-- Node1 -->
<g id="Node000001" class="node">
<title>Node1</title>
<g id="a_Node000001"><a xlink:title="Hardware SPI output.">
<polygon fill="#999999" stroke="#666666" points="646.75,-206.25 503.25,-206.25 503.25,-160 646.75,-160 646.75,-206.25"/>
<text text-anchor="start" x="511.25" y="-192.75" font-family="Helvetica,sans-Serif" font-size="10.00">SPIOutput&lt; _DATA_PIN,</text>
<text text-anchor="start" x="511.25" y="-180" font-family="Helvetica,sans-Serif" font-size="10.00"> _CLOCK_PIN, _SPI_CLOCK</text>
<text text-anchor="middle" x="575" y="-167.25" font-family="Helvetica,sans-Serif" font-size="10.00">_DIVIDER &gt;</text>
</a>
</g>
</g>
<!-- Node4 -->
<g id="Node000004" class="node">
<title>Node4</title>
<g id="a_Node000004"><a xlink:href="../../d3/d97/class_s_p_i_output.html" target="_top" xlink:title=" ">
<polygon fill="white" stroke="#666666" points="950.75,-353.88 808,-353.88 808,-320.38 950.75,-320.38 950.75,-353.88"/>
<text text-anchor="start" x="816" y="-340.38" font-family="Helvetica,sans-Serif" font-size="10.00">SPIOutput&lt; DATA_PIN,</text>
<text text-anchor="middle" x="879.38" y="-327.62" font-family="Helvetica,sans-Serif" font-size="10.00"> CLOCK_PIN, SPI_SPEED &gt;</text>
</a>
</g>
</g>
<!-- Node1&#45;&gt;Node4 -->
<g id="edge3_Node000001_Node000004" class="edge">
<title>Node1&#45;&gt;Node4</title>
<g id="a_edge3_Node000001_Node000004"><a xlink:title=" ">
<path fill="none" stroke="orange" stroke-dasharray="5,2" d="M593.04,-216.4C608.23,-242.58 632.98,-277.77 664.75,-297.12 707.77,-323.33 764.01,-333.09 807.99,-336.42"/>
<polygon fill="orange" stroke="orange" points="596.18,-214.84 588.23,-207.82 590.07,-218.26 596.18,-214.84"/>
</a>
</g>
<text text-anchor="start" x="664.75" y="-350.35" font-family="Helvetica,sans-Serif" font-size="10.00" fill="grey"> &lt; DATA_PIN, CLOCK_PIN,</text>
<text text-anchor="middle" x="727.38" y="-337.6" font-family="Helvetica,sans-Serif" font-size="10.00" fill="grey"> SPI_SPEED &gt;</text>
</g>
<!-- Node5 -->
<g id="Node000005" class="node">
<title>Node5</title>
<g id="a_Node000005"><a xlink:href="../../d3/d97/class_s_p_i_output.html" target="_top" xlink:title=" ">
<polygon fill="white" stroke="#666666" points="947,-302.25 811.75,-302.25 811.75,-256 947,-256 947,-302.25"/>
<text text-anchor="start" x="819.75" y="-288.75" font-family="Helvetica,sans-Serif" font-size="10.00">SPIOutput&lt; DATA_PIN,</text>
<text text-anchor="start" x="819.75" y="-276" font-family="Helvetica,sans-Serif" font-size="10.00"> CLOCK_PIN, DATA_RATE</text>
<text text-anchor="middle" x="879.38" y="-263.25" font-family="Helvetica,sans-Serif" font-size="10.00">_MHZ(6) &gt;</text>
</a>
</g>
</g>
<!-- Node1&#45;&gt;Node5 -->
<g id="edge4_Node000001_Node000005" class="edge">
<title>Node1&#45;&gt;Node5</title>
<g id="a_edge4_Node000001_Node000005"><a xlink:title=" ">
<path fill="none" stroke="orange" stroke-dasharray="5,2" d="M619.84,-212.63C633.73,-220.91 649.46,-229.25 664.75,-235.12 712.12,-253.31 768.43,-264.51 811.34,-271.06"/>
<polygon fill="orange" stroke="orange" points="621.73,-209.68 611.37,-207.43 618.06,-215.64 621.73,-209.68"/>
</a>
</g>
<text text-anchor="start" x="664.75" y="-283.57" font-family="Helvetica,sans-Serif" font-size="10.00" fill="grey"> &lt; DATA_PIN, CLOCK_PIN,</text>
<text text-anchor="middle" x="727.38" y="-270.82" font-family="Helvetica,sans-Serif" font-size="10.00" fill="grey"> DATA_RATE_MHZ(6) &gt;</text>
</g>
<!-- Node6 -->
<g id="Node000006" class="node">
<title>Node6</title>
<g id="a_Node000006"><a xlink:href="../../d3/d97/class_s_p_i_output.html" target="_top" xlink:title=" ">
<polygon fill="white" stroke="#666666" points="947,-238.25 811.75,-238.25 811.75,-192 947,-192 947,-238.25"/>
<text text-anchor="start" x="819.75" y="-224.75" font-family="Helvetica,sans-Serif" font-size="10.00">SPIOutput&lt; DATA_PIN,</text>
<text text-anchor="start" x="819.75" y="-212" font-family="Helvetica,sans-Serif" font-size="10.00"> CLOCK_PIN, DATA_RATE</text>
<text text-anchor="middle" x="879.38" y="-199.25" font-family="Helvetica,sans-Serif" font-size="10.00">_MHZ(12) &gt;</text>
</a>
</g>
</g>
<!-- Node1&#45;&gt;Node6 -->
<g id="edge5_Node000001_Node000006" class="edge">
<title>Node1&#45;&gt;Node6</title>
<g id="a_edge5_Node000001_Node000006"><a xlink:title=" ">
<path fill="none" stroke="orange" stroke-dasharray="5,2" d="M658.21,-191.82C706.25,-196.91 766.12,-203.25 811.3,-208.03"/>
<polygon fill="orange" stroke="orange" points="658.71,-188.36 648.4,-190.79 657.97,-195.32 658.71,-188.36"/>
</a>
</g>
<text text-anchor="start" x="664.75" y="-221.67" font-family="Helvetica,sans-Serif" font-size="10.00" fill="grey"> &lt; DATA_PIN, CLOCK_PIN,</text>
<text text-anchor="middle" x="727.38" y="-208.92" font-family="Helvetica,sans-Serif" font-size="10.00" fill="grey"> DATA_RATE_MHZ(12) &gt;</text>
</g>
<!-- Node7 -->
<g id="Node000007" class="node">
<title>Node7</title>
<g id="a_Node000007"><a xlink:href="../../d3/d97/class_s_p_i_output.html" target="_top" xlink:title=" ">
<polygon fill="white" stroke="#666666" points="947,-174.25 811.75,-174.25 811.75,-128 947,-128 947,-174.25"/>
<text text-anchor="start" x="819.75" y="-160.75" font-family="Helvetica,sans-Serif" font-size="10.00">SPIOutput&lt; DATA_PIN,</text>
<text text-anchor="start" x="819.75" y="-148" font-family="Helvetica,sans-Serif" font-size="10.00"> CLOCK_PIN, DATA_RATE</text>
<text text-anchor="middle" x="879.38" y="-135.25" font-family="Helvetica,sans-Serif" font-size="10.00">_MHZ(10) &gt;</text>
</a>
</g>
</g>
<!-- Node1&#45;&gt;Node7 -->
<g id="edge6_Node000001_Node000007" class="edge">
<title>Node1&#45;&gt;Node7</title>
<g id="a_edge6_Node000001_Node000007"><a xlink:title=" ">
<path fill="none" stroke="orange" stroke-dasharray="5,2" d="M658.17,-163.62C660.38,-163.27 662.58,-162.93 664.75,-162.62 713.66,-155.71 769.41,-152.88 811.69,-151.75"/>
<polygon fill="orange" stroke="orange" points="657.74,-160.14 648.5,-165.32 658.95,-167.04 657.74,-160.14"/>
</a>
</g>
<text text-anchor="start" x="664.75" y="-178.62" font-family="Helvetica,sans-Serif" font-size="10.00" fill="grey"> &lt; DATA_PIN, CLOCK_PIN,</text>
<text text-anchor="middle" x="727.38" y="-165.88" font-family="Helvetica,sans-Serif" font-size="10.00" fill="grey"> DATA_RATE_MHZ(10) &gt;</text>
</g>
<!-- Node8 -->
<g id="Node000008" class="node">
<title>Node8</title>
<g id="a_Node000008"><a xlink:href="../../d3/d97/class_s_p_i_output.html" target="_top" xlink:title=" ">
<polygon fill="white" stroke="#666666" points="947,-110.25 811.75,-110.25 811.75,-64 947,-64 947,-110.25"/>
<text text-anchor="start" x="819.75" y="-96.75" font-family="Helvetica,sans-Serif" font-size="10.00">SPIOutput&lt; DATA_PIN,</text>
<text text-anchor="start" x="819.75" y="-84" font-family="Helvetica,sans-Serif" font-size="10.00"> CLOCK_PIN, DATA_RATE</text>
<text text-anchor="middle" x="879.38" y="-71.25" font-family="Helvetica,sans-Serif" font-size="10.00">_MHZ(16) &gt;</text>
</a>
</g>
</g>
<!-- Node1&#45;&gt;Node8 -->
<g id="edge7_Node000001_Node000008" class="edge">
<title>Node1&#45;&gt;Node8</title>
<g id="a_edge7_Node000001_Node000008"><a xlink:title=" ">
<path fill="none" stroke="orange" stroke-dasharray="5,2" d="M612.81,-152.73C628.04,-141.62 646.4,-129.98 664.75,-122.62 711.68,-103.8 768.27,-94.95 811.41,-90.8"/>
<polygon fill="orange" stroke="orange" points="610.86,-149.82 604.97,-158.63 615.06,-155.41 610.86,-149.82"/>
</a>
</g>
<text text-anchor="start" x="664.75" y="-138.62" font-family="Helvetica,sans-Serif" font-size="10.00" fill="grey"> &lt; DATA_PIN, CLOCK_PIN,</text>
<text text-anchor="middle" x="727.38" y="-125.88" font-family="Helvetica,sans-Serif" font-size="10.00" fill="grey"> DATA_RATE_MHZ(16) &gt;</text>
</g>
<!-- Node9 -->
<g id="Node000009" class="node">
<title>Node9</title>
<g id="a_Node000009"><a xlink:href="../../d3/d97/class_s_p_i_output.html" target="_top" xlink:title=" ">
<polygon fill="white" stroke="#666666" points="947,-46.25 811.75,-46.25 811.75,0 947,0 947,-46.25"/>
<text text-anchor="start" x="819.75" y="-32.75" font-family="Helvetica,sans-Serif" font-size="10.00">SPIOutput&lt; DATA_PIN,</text>
<text text-anchor="start" x="819.75" y="-20" font-family="Helvetica,sans-Serif" font-size="10.00"> CLOCK_PIN, DATA_RATE</text>
<text text-anchor="middle" x="879.38" y="-7.25" font-family="Helvetica,sans-Serif" font-size="10.00">_MHZ(1) &gt;</text>
</a>
</g>
</g>
<!-- Node1&#45;&gt;Node9 -->
<g id="edge8_Node000001_Node000009" class="edge">
<title>Node1&#45;&gt;Node9</title>
<g id="a_edge8_Node000001_Node000009"><a xlink:title=" ">
<path fill="none" stroke="orange" stroke-dasharray="5,2" d="M591.93,-149.62C606.83,-122.07 631.74,-84.31 664.75,-63.62 708.73,-36.07 767.1,-26.43 811.71,-23.41"/>
<polygon fill="orange" stroke="orange" points="588.93,-147.8 587.41,-158.28 595.14,-151.03 588.93,-147.8"/>
</a>
</g>
<text text-anchor="start" x="664.75" y="-79.62" font-family="Helvetica,sans-Serif" font-size="10.00" fill="grey"> &lt; DATA_PIN, CLOCK_PIN,</text>
<text text-anchor="middle" x="727.38" y="-66.88" font-family="Helvetica,sans-Serif" font-size="10.00" fill="grey"> DATA_RATE_MHZ(1) &gt;</text>
</g>
<!-- Node2 -->
<g id="Node000002" class="node">
<title>Node2</title>
<g id="a_Node000002"><a xlink:href="../../dc/d57/class_a_v_r_software_s_p_i_output.html" target="_top" xlink:title=" ">
<polygon fill="white" stroke="#666666" points="466.25,-206.25 317.5,-206.25 317.5,-160 466.25,-160 466.25,-206.25"/>
<text text-anchor="start" x="325.5" y="-192.75" font-family="Helvetica,sans-Serif" font-size="10.00">AVRSoftwareSPIOutput</text>
<text text-anchor="start" x="325.5" y="-180" font-family="Helvetica,sans-Serif" font-size="10.00">&lt; _DATA_PIN, _CLOCK_PIN,</text>
<text text-anchor="middle" x="391.88" y="-167.25" font-family="Helvetica,sans-Serif" font-size="10.00"> _SPI_CLOCK_DIVIDER &gt;</text>
</a>
</g>
</g>
<!-- Node2&#45;&gt;Node1 -->
<g id="edge1_Node000001_Node000002" class="edge">
<title>Node2&#45;&gt;Node1</title>
<g id="a_edge1_Node000001_Node000002"><a xlink:title=" ">
<path fill="none" stroke="#63b8ff" d="M477.93,-183.12C486.33,-183.12 494.8,-183.12 503.03,-183.12"/>
<polygon fill="#63b8ff" stroke="#63b8ff" points="478.06,-179.63 468.06,-183.13 478.06,-186.63 478.06,-179.63"/>
</a>
</g>
</g>
<!-- Node3 -->
<g id="Node000003" class="node">
<title>Node3</title>
<g id="a_Node000003"><a xlink:href="../../dc/d57/class_a_v_r_software_s_p_i_output.html" target="_top" xlink:title="Software SPI (aka bit&#45;banging) support Includes aggressive optimizations for when the clock and data ...">
<polygon fill="white" stroke="#666666" points="138.25,-206.25 0,-206.25 0,-160 138.25,-160 138.25,-206.25"/>
<text text-anchor="start" x="8" y="-192.75" font-family="Helvetica,sans-Serif" font-size="10.00">AVRSoftwareSPIOutput</text>
<text text-anchor="start" x="8" y="-180" font-family="Helvetica,sans-Serif" font-size="10.00">&lt; DATA_PIN, CLOCK_PIN,</text>
<text text-anchor="middle" x="69.12" y="-167.25" font-family="Helvetica,sans-Serif" font-size="10.00"> SPI_SPEED &gt;</text>
</a>
</g>
</g>
<!-- Node3&#45;&gt;Node2 -->
<g id="edge2_Node000002_Node000003" class="edge">
<title>Node3&#45;&gt;Node2</title>
<g id="a_edge2_Node000002_Node000003"><a xlink:title=" ">
<path fill="none" stroke="orange" stroke-dasharray="5,2" d="M149.9,-183.12C201.16,-183.12 267.26,-183.12 317.26,-183.12"/>
<polygon fill="orange" stroke="orange" points="150.05,-179.63 140.05,-183.13 150.05,-186.63 150.05,-179.63"/>
</a>
</g>
<text text-anchor="start" x="156.25" y="-199.12" font-family="Helvetica,sans-Serif" font-size="10.00" fill="grey"> &lt; _DATA_PIN, _CLOCK</text>
<text text-anchor="middle" x="227.88" y="-186.38" font-family="Helvetica,sans-Serif" font-size="10.00" fill="grey">_PIN, _SPI_CLOCK_DIVIDER &gt;</text>
</g>
</g>
</svg>
