<?xml version="1.0" encoding="UTF-8" standalone="no"?>
<!DOCTYPE svg PUBLIC "-//W3C//DTD SVG 1.1//EN"
 "http://www.w3.org/Graphics/SVG/1.1/DTD/svg11.dtd">
<!-- Generated by graphviz version 12.2.1 (20241206.2353)
 -->
<!-- Title: Interp Pages: 1 -->
<svg width="612pt" height="144pt"
 viewBox="0.00 0.00 612.00 143.75" xmlns="http://www.w3.org/2000/svg" xmlns:xlink="http://www.w3.org/1999/xlink">
<g id="graph0" class="graph" transform="scale(1 1) rotate(0) translate(4 139.75)">
<title>Interp</title>
<!-- Node1 -->
<g id="Node000001" class="node">
<title>Node1</title>
<g id="a_Node000001"><a xlink:title=" ">
<polygon fill="#999999" stroke="#666666" points="604,-78.75 559.5,-78.75 559.5,-58 604,-58 604,-78.75"/>
<text text-anchor="middle" x="581.75" y="-65.25" font-family="Helvetica,sans-Serif" font-size="10.00">Interp</text>
</a>
</g>
</g>
<!-- Node2 -->
<g id="Node000002" class="node">
<title>Node2</title>
<g id="a_Node000002"><a xlink:href="../../df/d2d/util_8cpp.html#ab012c9273eb4809f6a69a63f6c2ce1dd" target="_top" xlink:title=" ">
<polygon fill="white" stroke="#666666" points="523.5,-135.75 412.25,-135.75 412.25,-115 523.5,-115 523.5,-135.75"/>
<text text-anchor="middle" x="467.88" y="-122.25" font-family="Helvetica,sans-Serif" font-size="10.00">AttackRemapFactor</text>
</a>
</g>
</g>
<!-- Node1&#45;&gt;Node2 -->
<g id="edge1_Node000001_Node000002" class="edge">
<title>Node1&#45;&gt;Node2</title>
<g id="a_edge1_Node000001_Node000002"><a xlink:title=" ">
<path fill="none" stroke="#63b8ff" d="M553.61,-84.82C544.2,-90.31 533.5,-96.32 523.5,-101.38 514.35,-106 504.11,-110.64 494.99,-114.59"/>
<polygon fill="#63b8ff" stroke="#63b8ff" points="555.1,-88.01 561.93,-79.91 551.54,-81.99 555.1,-88.01"/>
</a>
</g>
</g>
<!-- Node3 -->
<g id="Node000003" class="node">
<title>Node3</title>
<g id="a_Node000003"><a xlink:href="../../dc/d9f/namespaceanonymous__namespace_02_painter_8cpp_03.html#afac2eea34857897444e6a1dd09bab603" target="_top" xlink:title=" ">
<polygon fill="white" stroke="#666666" points="376.25,-111.12 201.25,-111.12 201.25,-77.62 376.25,-77.62 376.25,-111.12"/>
<text text-anchor="start" x="209.25" y="-97.62" font-family="Helvetica,sans-Serif" font-size="10.00">anonymous_namespace</text>
<text text-anchor="middle" x="288.75" y="-84.88" font-family="Helvetica,sans-Serif" font-size="10.00">{Painter::cpp}::LuminanceDecay</text>
</a>
</g>
</g>
<!-- Node1&#45;&gt;Node3 -->
<g id="edge2_Node000001_Node000003" class="edge">
<title>Node1&#45;&gt;Node3</title>
<g id="a_edge2_Node000001_Node000003"><a xlink:title=" ">
<path fill="none" stroke="#63b8ff" d="M548.11,-71.29C506.9,-74.97 434.43,-81.45 376.71,-86.61"/>
<polygon fill="#63b8ff" stroke="#63b8ff" points="548.2,-74.8 557.84,-70.42 547.57,-67.83 548.2,-74.8"/>
</a>
</g>
</g>
<!-- Node5 -->
<g id="Node000005" class="node">
<title>Node5</title>
<g id="a_Node000005"><a xlink:href="../../df/d2d/util_8cpp.html#aee747f0ac88c4cf7788a0c9d9b80268d" target="_top" xlink:title=" ">
<polygon fill="white" stroke="#666666" points="514.12,-59.75 421.62,-59.75 421.62,-39 514.12,-39 514.12,-59.75"/>
<text text-anchor="middle" x="467.88" y="-46.25" font-family="Helvetica,sans-Serif" font-size="10.00">MapDecayTime</text>
</a>
</g>
</g>
<!-- Node1&#45;&gt;Node5 -->
<g id="edge4_Node000001_Node000005" class="edge">
<title>Node1&#45;&gt;Node5</title>
<g id="a_edge4_Node000001_Node000005"><a xlink:title=" ">
<path fill="none" stroke="#63b8ff" d="M548,-62.81C537.51,-61.03 525.69,-59.02 514.46,-57.12"/>
<polygon fill="#63b8ff" stroke="#63b8ff" points="547.24,-66.23 557.69,-64.46 548.41,-59.33 547.24,-66.23"/>
</a>
</g>
</g>
<!-- Node11 -->
<g id="Node000011" class="node">
<title>Node11</title>
<g id="a_Node000011"><a xlink:href="../../df/d2d/util_8cpp.html#ab2d4e7dba14588151a9603ebb0b13cf3" target="_top" xlink:title=" ">
<polygon fill="white" stroke="#666666" points="507,-20.75 428.75,-20.75 428.75,0 507,0 507,-20.75"/>
<text text-anchor="middle" x="467.88" y="-7.25" font-family="Helvetica,sans-Serif" font-size="10.00">ToBrightness</text>
</a>
</g>
</g>
<!-- Node1&#45;&gt;Node11 -->
<g id="edge8_Node000001_Node000011" class="edge">
<title>Node1&#45;&gt;Node11</title>
<g id="a_edge8_Node000001_Node000011"><a xlink:title=" ">
<path fill="none" stroke="#63b8ff" d="M557.41,-51.08C547.31,-44.08 535.16,-36.27 523.5,-30.38 516.83,-27 509.45,-23.91 502.33,-21.21"/>
<polygon fill="#63b8ff" stroke="#63b8ff" points="555.32,-53.89 565.5,-56.83 559.38,-48.18 555.32,-53.89"/>
</a>
</g>
</g>
<!-- Node4 -->
<g id="Node000004" class="node">
<title>Node4</title>
<g id="a_Node000004"><a xlink:href="../../dc/d9f/namespaceanonymous__namespace_02_painter_8cpp_03.html#a2932f71ebf495b07e5cf1a8a71e5c198" target="_top" xlink:title=" ">
<polygon fill="white" stroke="#666666" points="165.25,-111.12 0,-111.12 0,-77.62 165.25,-77.62 165.25,-111.12"/>
<text text-anchor="start" x="8" y="-97.62" font-family="Helvetica,sans-Serif" font-size="10.00">anonymous_namespace</text>
<text text-anchor="middle" x="82.62" y="-84.88" font-family="Helvetica,sans-Serif" font-size="10.00">{Painter::cpp}::CalcLuminance</text>
</a>
</g>
</g>
<!-- Node3&#45;&gt;Node4 -->
<g id="edge3_Node000003_Node000004" class="edge">
<title>Node3&#45;&gt;Node4</title>
<g id="a_edge3_Node000003_Node000004"><a xlink:title=" ">
<path fill="none" stroke="#63b8ff" d="M189.56,-94.38C181.52,-94.38 173.45,-94.38 165.55,-94.38"/>
<polygon fill="#63b8ff" stroke="#63b8ff" points="189.37,-97.88 199.37,-94.38 189.37,-90.88 189.37,-97.88"/>
</a>
</g>
</g>
<!-- Node6 -->
<g id="Node000006" class="node">
<title>Node6</title>
<g id="a_Node000006"><a xlink:href="../../df/d2d/util_8cpp.html#a0f02f59740c07ab03cedef15f4db1fb5" target="_top" xlink:title=" ">
<polygon fill="white" stroke="#666666" points="337.25,-59.75 240.25,-59.75 240.25,-39 337.25,-39 337.25,-59.75"/>
<text text-anchor="middle" x="288.75" y="-46.25" font-family="Helvetica,sans-Serif" font-size="10.00">CalcDecayFactor</text>
</a>
</g>
</g>
<!-- Node5&#45;&gt;Node6 -->
<g id="edge5_Node000005_Node000006" class="edge">
<title>Node5&#45;&gt;Node6</title>
<g id="a_edge5_Node000005_Node000006"><a xlink:title=" ">
<path fill="none" stroke="#63b8ff" d="M409.79,-49.38C386.52,-49.38 359.92,-49.38 337.69,-49.38"/>
<polygon fill="#63b8ff" stroke="#63b8ff" points="409.75,-52.88 419.75,-49.38 409.75,-45.88 409.75,-52.88"/>
</a>
</g>
</g>
<!-- Node6&#45;&gt;Node4 -->
<g id="edge7_Node000006_Node000004" class="edge">
<title>Node6&#45;&gt;Node4</title>
<g id="a_edge7_Node000006_Node000004"><a xlink:title=" ">
<path fill="none" stroke="#63b8ff" d="M228.99,-62.27C219.71,-64.31 210.22,-66.4 201.25,-68.38 188.38,-71.21 174.73,-74.22 161.45,-77.16"/>
<polygon fill="#63b8ff" stroke="#63b8ff" points="229.66,-65.71 238.68,-60.14 228.16,-58.87 229.66,-65.71"/>
</a>
</g>
</g>
<!-- Node7 -->
<g id="Node000007" class="node">
<title>Node7</title>
<g id="a_Node000007"><a xlink:href="../../db/d42/struct_key.html#abbe629a5358df091d6202309e8327b23" target="_top" xlink:title=" ">
<polygon fill="#fff0f0" stroke="red" points="158.5,-59.75 6.75,-59.75 6.75,-39 158.5,-39 158.5,-59.75"/>
<text text-anchor="middle" x="82.62" y="-46.25" font-family="Helvetica,sans-Serif" font-size="10.00">Key::CalcAttackDecayFactor</text>
</a>
</g>
</g>
<!-- Node6&#45;&gt;Node7 -->
<g id="edge6_Node000006_Node000007" class="edge">
<title>Node6&#45;&gt;Node7</title>
<g id="a_edge6_Node000006_Node000007"><a xlink:title=" ">
<path fill="none" stroke="#63b8ff" d="M228.48,-49.38C206.7,-49.38 181.74,-49.38 158.74,-49.38"/>
<polygon fill="#63b8ff" stroke="#63b8ff" points="228.38,-52.88 238.38,-49.38 228.38,-45.88 228.38,-52.88"/>
</a>
</g>
</g>
<!-- Node12 -->
<g id="Node000012" class="node">
<title>Node12</title>
<g id="a_Node000012"><a xlink:href="../../db/d37/class_keyboard_state.html#a6327c48f59e01741fbb2db535ad49c35" target="_top" xlink:title=" ">
<polygon fill="white" stroke="#666666" points="371,-20.75 206.5,-20.75 206.5,0 371,0 371,-20.75"/>
<text text-anchor="middle" x="288.75" y="-7.25" font-family="Helvetica,sans-Serif" font-size="10.00">KeyboardState::HandleNoteOn</text>
</a>
</g>
</g>
<!-- Node11&#45;&gt;Node12 -->
<g id="edge9_Node000011_Node000012" class="edge">
<title>Node11&#45;&gt;Node12</title>
<g id="a_edge9_Node000011_Node000012"><a xlink:title=" ">
<path fill="none" stroke="#63b8ff" d="M416.95,-10.38C402.76,-10.38 386.93,-10.38 371.38,-10.38"/>
<polygon fill="#63b8ff" stroke="#63b8ff" points="416.93,-13.88 426.93,-10.38 416.93,-6.88 416.93,-13.88"/>
</a>
</g>
</g>
</g>
</svg>
