<?xml version="1.0" encoding="UTF-8" standalone="no"?>
<!DOCTYPE svg PUBLIC "-//W3C//DTD SVG 1.1//EN"
 "http://www.w3.org/Graphics/SVG/1.1/DTD/svg11.dtd">
<!-- Generated by graphviz version 12.2.1 (20241206.2353)
 -->
<!-- Title: /home/runner/work/FastLED/FastLED/src/sensors/digital_pin.h Pages: 1 -->
<svg width="416pt" height="206pt"
 viewBox="0.00 0.00 415.88 206.00" xmlns="http://www.w3.org/2000/svg" xmlns:xlink="http://www.w3.org/1999/xlink">
<g id="graph0" class="graph" transform="scale(1 1) rotate(0) translate(4 202)">
<title>/home/runner/work/FastLED/FastLED/src/sensors/digital_pin.h</title>
<!-- Node1 -->
<g id="Node000001" class="node">
<title>Node1</title>
<g id="a_Node000001"><a xlink:title=" ">
<polygon fill="#999999" stroke="#666666" points="247.75,-198 69.75,-198 69.75,-164.5 247.75,-164.5 247.75,-198"/>
<text text-anchor="start" x="77.75" y="-184.5" font-family="Helvetica,sans-Serif" font-size="10.00">/home/runner/work/FastLED</text>
<text text-anchor="middle" x="158.75" y="-171.75" font-family="Helvetica,sans-Serif" font-size="10.00">/FastLED/src/sensors/digital_pin.h</text>
</a>
</g>
</g>
<!-- Node2 -->
<g id="Node000002" class="node">
<title>Node2</title>
<g id="a_Node000002"><a xlink:href="../../de/d2b/digital__pin_8cpp.html" target="_top" xlink:title=" ">
<polygon fill="white" stroke="#666666" points="149.5,-128.5 0,-128.5 0,-82.25 149.5,-82.25 149.5,-128.5"/>
<text text-anchor="start" x="8" y="-115" font-family="Helvetica,sans-Serif" font-size="10.00">/home/runner/work/FastLED</text>
<text text-anchor="start" x="8" y="-102.25" font-family="Helvetica,sans-Serif" font-size="10.00">/FastLED/src/sensors/digital</text>
<text text-anchor="middle" x="74.75" y="-89.5" font-family="Helvetica,sans-Serif" font-size="10.00">_pin.cpp</text>
</a>
</g>
</g>
<!-- Node1&#45;&gt;Node2 -->
<g id="edge1_Node000001_Node000002" class="edge">
<title>Node1&#45;&gt;Node2</title>
<g id="a_edge1_Node000001_Node000002"><a xlink:title=" ">
<path fill="none" stroke="#63b8ff" d="M132.02,-156.74C121.86,-147.81 110.32,-137.65 100.27,-128.82"/>
<polygon fill="#63b8ff" stroke="#63b8ff" points="129.57,-159.24 139.39,-163.22 134.19,-153.99 129.57,-159.24"/>
</a>
</g>
</g>
<!-- Node3 -->
<g id="Node000003" class="node">
<title>Node3</title>
<g id="a_Node000003"><a xlink:href="../../d9/dd3/pir_8h.html" target="_top" xlink:title=" ">
<polygon fill="white" stroke="#666666" points="317.5,-122.12 168,-122.12 168,-88.62 317.5,-88.62 317.5,-122.12"/>
<text text-anchor="start" x="176" y="-108.62" font-family="Helvetica,sans-Serif" font-size="10.00">/home/runner/work/FastLED</text>
<text text-anchor="middle" x="242.75" y="-95.88" font-family="Helvetica,sans-Serif" font-size="10.00">/FastLED/src/sensors/pir.h</text>
</a>
</g>
</g>
<!-- Node1&#45;&gt;Node3 -->
<g id="edge2_Node000001_Node000003" class="edge">
<title>Node1&#45;&gt;Node3</title>
<g id="a_edge2_Node000001_Node000003"><a xlink:title=" ">
<path fill="none" stroke="#63b8ff" d="M185.39,-156.82C198.16,-145.59 213.12,-132.44 224.56,-122.37"/>
<polygon fill="#63b8ff" stroke="#63b8ff" points="183.31,-153.99 178.11,-163.22 187.93,-159.24 183.31,-153.99"/>
</a>
</g>
</g>
<!-- Node4 -->
<g id="Node000004" class="node">
<title>Node4</title>
<g id="a_Node000004"><a xlink:href="../../d3/dac/_fx_noise_ring_8ino.html" target="_top" xlink:title=" ">
<polygon fill="white" stroke="#666666" points="239.12,-46.25 66.38,-46.25 66.38,0 239.12,0 239.12,-46.25"/>
<text text-anchor="start" x="74.38" y="-32.75" font-family="Helvetica,sans-Serif" font-size="10.00">/home/runner/work/FastLED</text>
<text text-anchor="start" x="74.38" y="-20" font-family="Helvetica,sans-Serif" font-size="10.00">/FastLED/examples/FxNoiseRing</text>
<text text-anchor="middle" x="152.75" y="-7.25" font-family="Helvetica,sans-Serif" font-size="10.00">/FxNoiseRing.ino</text>
</a>
</g>
</g>
<!-- Node3&#45;&gt;Node4 -->
<g id="edge3_Node000003_Node000004" class="edge">
<title>Node3&#45;&gt;Node4</title>
<g id="a_edge3_Node000003_Node000004"><a xlink:title=" ">
<path fill="none" stroke="#63b8ff" d="M216.21,-80.71C204.17,-69.97 189.99,-57.33 178.1,-46.73"/>
<polygon fill="#63b8ff" stroke="#63b8ff" points="213.61,-83.09 223.41,-87.13 218.27,-77.86 213.61,-83.09"/>
</a>
</g>
</g>
<!-- Node5 -->
<g id="Node000005" class="node">
<title>Node5</title>
<g id="a_Node000005"><a xlink:href="../../d2/da7/pir_8cpp.html" target="_top" xlink:title=" ">
<polygon fill="white" stroke="#666666" points="407.88,-39.88 257.62,-39.88 257.62,-6.38 407.88,-6.38 407.88,-39.88"/>
<text text-anchor="start" x="265.62" y="-26.38" font-family="Helvetica,sans-Serif" font-size="10.00">/home/runner/work/FastLED</text>
<text text-anchor="middle" x="332.75" y="-13.62" font-family="Helvetica,sans-Serif" font-size="10.00">/FastLED/src/sensors/pir.cpp</text>
</a>
</g>
</g>
<!-- Node3&#45;&gt;Node5 -->
<g id="edge4_Node000003_Node000005" class="edge">
<title>Node3&#45;&gt;Node5</title>
<g id="a_edge4_Node000003_Node000005"><a xlink:title=" ">
<path fill="none" stroke="#63b8ff" d="M269.54,-80.48C284.07,-67.53 301.64,-51.86 314.56,-40.34"/>
<polygon fill="#63b8ff" stroke="#63b8ff" points="267.23,-77.86 262.09,-87.13 271.89,-83.09 267.23,-77.86"/>
</a>
</g>
</g>
</g>
</svg>
