<?xml version="1.0" encoding="UTF-8" standalone="no"?>
<!DOCTYPE svg PUBLIC "-//W3C//DTD SVG 1.1//EN"
 "http://www.w3.org/Graphics/SVG/1.1/DTD/svg11.dtd">
<!-- Generated by graphviz version 12.2.1 (20241206.2353)
 -->
<!-- Title: CPixelView::CPixelView Pages: 1 -->
<svg width="297pt" height="68pt"
 viewBox="0.00 0.00 297.25 67.75" xmlns="http://www.w3.org/2000/svg" xmlns:xlink="http://www.w3.org/1999/xlink">
<g id="graph0" class="graph" transform="scale(1 1) rotate(0) translate(4 63.75)">
<title>CPixelView::CPixelView</title>
<!-- Node1 -->
<g id="Node000001" class="node">
<title>Node1</title>
<g id="a_Node000001"><a xlink:title="PixelSet copy constructor.">
<polygon fill="#999999" stroke="#666666" points="289.25,-39.75 160,-39.75 160,-19 289.25,-19 289.25,-39.75"/>
<text text-anchor="middle" x="224.62" y="-26.25" font-family="Helvetica,sans-Serif" font-size="10.00">CPixelView::CPixelView</text>
</a>
</g>
</g>
<!-- Node2 -->
<g id="Node000002" class="node">
<title>Node2</title>
<g id="a_Node000002"><a xlink:href="../../de/d64/group___pixel_set.html#aa2b10d01a183235fcf62e50049c49dd4" target="_top" xlink:title="Access an inclusive subset of the LEDs in this set.">
<polygon fill="white" stroke="#666666" points="124,-59.75 0,-59.75 0,-39 124,-39 124,-59.75"/>
<text text-anchor="middle" x="62" y="-46.25" font-family="Helvetica,sans-Serif" font-size="10.00">CPixelView::operator()</text>
</a>
</g>
</g>
<!-- Node1&#45;&gt;Node2 -->
<g id="edge1_Node000001_Node000002" class="edge">
<title>Node1&#45;&gt;Node2</title>
<g id="a_edge1_Node000001_Node000002"><a xlink:title=" ">
<path fill="none" stroke="#63b8ff" d="M148.39,-38.74C140.34,-39.75 132.23,-40.76 124.37,-41.73"/>
<polygon fill="#63b8ff" stroke="#63b8ff" points="148.69,-42.23 158.18,-37.52 147.82,-35.29 148.69,-42.23"/>
</a>
</g>
</g>
<!-- Node3 -->
<g id="Node000003" class="node">
<title>Node3</title>
<g id="a_Node000003"><a xlink:href="../../de/d64/group___pixel_set.html#ad6e7a725732d4fff0dc4fa5c29015127" target="_top" xlink:title="Return the reverse ordering of this set.">
<polygon fill="white" stroke="#666666" points="122.12,-20.75 1.88,-20.75 1.88,0 122.12,0 122.12,-20.75"/>
<text text-anchor="middle" x="62" y="-7.25" font-family="Helvetica,sans-Serif" font-size="10.00">CPixelView::operator&#45;</text>
</a>
</g>
</g>
<!-- Node1&#45;&gt;Node3 -->
<g id="edge2_Node000001_Node000003" class="edge">
<title>Node1&#45;&gt;Node3</title>
<g id="a_edge2_Node000001_Node000003"><a xlink:title=" ">
<path fill="none" stroke="#63b8ff" d="M148.37,-20.47C139.71,-19.45 130.97,-18.41 122.55,-17.42"/>
<polygon fill="#63b8ff" stroke="#63b8ff" points="147.84,-23.93 158.18,-21.63 148.66,-16.98 147.84,-23.93"/>
</a>
</g>
</g>
</g>
</svg>
