<?xml version="1.0" encoding="UTF-8" standalone="no"?>
<!DOCTYPE svg PUBLIC "-//W3C//DTD SVG 1.1//EN"
 "http://www.w3.org/Graphics/SVG/1.1/DTD/svg11.dtd">
<!-- Generated by graphviz version 12.2.1 (20241206.2353)
 -->
<!-- Title: CPixelView::operator|= Pages: 1 -->
<svg width="274pt" height="68pt"
 viewBox="0.00 0.00 274.00 67.75" xmlns="http://www.w3.org/2000/svg" xmlns:xlink="http://www.w3.org/1999/xlink">
<g id="graph0" class="graph" transform="scale(1 1) rotate(0) translate(4 63.75)">
<title>CPixelView::operator|=</title>
<!-- Node1 -->
<g id="Node000001" class="node">
<title>Node1</title>
<g id="a_Node000001"><a xlink:title="Apply the PIXEL_TYPE |= operator to every pixel in this set.">
<polygon fill="#999999" stroke="#666666" points="127.75,-39.75 0,-39.75 0,-19 127.75,-19 127.75,-39.75"/>
<text text-anchor="middle" x="63.88" y="-26.25" font-family="Helvetica,sans-Serif" font-size="10.00">CPixelView::operator|=</text>
</a>
</g>
</g>
<!-- Node2 -->
<g id="Node000002" class="node">
<title>Node2</title>
<g id="a_Node000002"><a xlink:href="../../de/d64/group___pixel_set.html#af3254e14aaccb1e8b38272ddeb6d8013" target="_top" xlink:title="Makes an iterator instance for the start of the LED set.">
<polygon fill="white" stroke="#666666" points="266,-59.75 163.75,-59.75 163.75,-39 266,-39 266,-59.75"/>
<text text-anchor="middle" x="214.88" y="-46.25" font-family="Helvetica,sans-Serif" font-size="10.00">CPixelView::begin</text>
</a>
</g>
</g>
<!-- Node1&#45;&gt;Node2 -->
<g id="edge1_Node000001_Node000002" class="edge">
<title>Node1&#45;&gt;Node2</title>
<g id="a_edge1_Node000001_Node000002"><a xlink:title=" ">
<path fill="none" stroke="#63b8ff" d="M128.06,-37.86C136.15,-38.94 144.42,-40.05 152.48,-41.13"/>
<polygon fill="#63b8ff" stroke="#63b8ff" points="151.81,-44.58 162.19,-42.44 152.74,-37.64 151.81,-44.58"/>
</a>
</g>
</g>
<!-- Node3 -->
<g id="Node000003" class="node">
<title>Node3</title>
<g id="a_Node000003"><a xlink:href="../../de/d64/group___pixel_set.html#a5492e41e8b06dc599ab81b465c4236ed" target="_top" xlink:title="Makes an iterator instance for the end of the LED set.">
<polygon fill="white" stroke="#666666" points="261.5,-20.75 168.25,-20.75 168.25,0 261.5,0 261.5,-20.75"/>
<text text-anchor="middle" x="214.88" y="-7.25" font-family="Helvetica,sans-Serif" font-size="10.00">CPixelView::end</text>
</a>
</g>
</g>
<!-- Node1&#45;&gt;Node3 -->
<g id="edge2_Node000001_Node000003" class="edge">
<title>Node1&#45;&gt;Node3</title>
<g id="a_edge2_Node000001_Node000003"><a xlink:title=" ">
<path fill="none" stroke="#63b8ff" d="M128.06,-21.32C137.54,-20.11 147.26,-18.87 156.6,-17.68"/>
<polygon fill="#63b8ff" stroke="#63b8ff" points="156.79,-21.18 166.26,-16.45 155.9,-14.24 156.79,-21.18"/>
</a>
</g>
</g>
</g>
</svg>
