<?xml version="1.0" encoding="UTF-8" standalone="no"?>
<!DOCTYPE svg PUBLIC "-//W3C//DTD SVG 1.1//EN"
 "http://www.w3.org/Graphics/SVG/1.1/DTD/svg11.dtd">
<!-- Generated by graphviz version 12.2.1 (20241206.2353)
 -->
<!-- Title: CPixelView::operator%= Pages: 1 -->
<svg width="281pt" height="68pt"
 viewBox="0.00 0.00 280.75 67.75" xmlns="http://www.w3.org/2000/svg" xmlns:xlink="http://www.w3.org/1999/xlink">
<g id="graph0" class="graph" transform="scale(1 1) rotate(0) translate(4 63.75)">
<title>CPixelView::operator%=</title>
<!-- Node1 -->
<g id="Node000001" class="node">
<title>Node1</title>
<g id="a_Node000001"><a xlink:title="Scale down every LED by the given scale.">
<polygon fill="#999999" stroke="#666666" points="134.5,-39.75 0,-39.75 0,-19 134.5,-19 134.5,-39.75"/>
<text text-anchor="middle" x="67.25" y="-26.25" font-family="Helvetica,sans-Serif" font-size="10.00">CPixelView::operator%=</text>
</a>
</g>
</g>
<!-- Node2 -->
<g id="Node000002" class="node">
<title>Node2</title>
<g id="a_Node000002"><a xlink:href="../../de/d64/group___pixel_set.html#af3254e14aaccb1e8b38272ddeb6d8013" target="_top" xlink:title="Makes an iterator instance for the start of the LED set.">
<polygon fill="white" stroke="#666666" points="272.75,-59.75 170.5,-59.75 170.5,-39 272.75,-39 272.75,-59.75"/>
<text text-anchor="middle" x="221.62" y="-46.25" font-family="Helvetica,sans-Serif" font-size="10.00">CPixelView::begin</text>
</a>
</g>
</g>
<!-- Node1&#45;&gt;Node2 -->
<g id="edge1_Node000001_Node000002" class="edge">
<title>Node1&#45;&gt;Node2</title>
<g id="a_edge1_Node000001_Node000002"><a xlink:title=" ">
<path fill="none" stroke="#63b8ff" d="M134.64,-38.09C142.62,-39.14 150.74,-40.2 158.64,-41.24"/>
<polygon fill="#63b8ff" stroke="#63b8ff" points="158.17,-44.71 168.54,-42.54 159.08,-37.77 158.17,-44.71"/>
</a>
</g>
</g>
<!-- Node3 -->
<g id="Node000003" class="node">
<title>Node3</title>
<g id="a_Node000003"><a xlink:href="../../de/d64/group___pixel_set.html#a5492e41e8b06dc599ab81b465c4236ed" target="_top" xlink:title="Makes an iterator instance for the end of the LED set.">
<polygon fill="white" stroke="#666666" points="268.25,-20.75 175,-20.75 175,0 268.25,0 268.25,-20.75"/>
<text text-anchor="middle" x="221.62" y="-7.25" font-family="Helvetica,sans-Serif" font-size="10.00">CPixelView::end</text>
</a>
</g>
</g>
<!-- Node1&#45;&gt;Node3 -->
<g id="edge2_Node000001_Node000003" class="edge">
<title>Node1&#45;&gt;Node3</title>
<g id="a_edge2_Node000001_Node000003"><a xlink:title=" ">
<path fill="none" stroke="#63b8ff" d="M134.64,-21.1C144.22,-19.9 154.01,-18.68 163.39,-17.51"/>
<polygon fill="#63b8ff" stroke="#63b8ff" points="163.59,-21.01 173.08,-16.3 162.73,-14.07 163.59,-21.01"/>
</a>
</g>
</g>
</g>
</svg>
