<?xml version="1.0" encoding="UTF-8" standalone="no"?>
<!DOCTYPE svg PUBLIC "-//W3C//DTD SVG 1.1//EN"
 "http://www.w3.org/Graphics/SVG/1.1/DTD/svg11.dtd">
<!-- Generated by graphviz version 12.2.1 (20241206.2353)
 -->
<!-- Title: CPixelView::nblend Pages: 1 -->
<svg width="255pt" height="68pt"
 viewBox="0.00 0.00 254.50 67.75" xmlns="http://www.w3.org/2000/svg" xmlns:xlink="http://www.w3.org/1999/xlink">
<g id="graph0" class="graph" transform="scale(1 1) rotate(0) translate(4 63.75)">
<title>CPixelView::nblend</title>
<!-- Node1 -->
<g id="Node000001" class="node">
<title>Node1</title>
<g id="a_Node000001"><a xlink:title="Destructively modifies all LEDs, blending in a given fraction of an overlay color.">
<polygon fill="#999999" stroke="#666666" points="108.25,-39.75 0,-39.75 0,-19 108.25,-19 108.25,-39.75"/>
<text text-anchor="middle" x="54.12" y="-26.25" font-family="Helvetica,sans-Serif" font-size="10.00">CPixelView::nblend</text>
</a>
</g>
</g>
<!-- Node2 -->
<g id="Node000002" class="node">
<title>Node2</title>
<g id="a_Node000002"><a xlink:href="../../de/d64/group___pixel_set.html#af3254e14aaccb1e8b38272ddeb6d8013" target="_top" xlink:title="Makes an iterator instance for the start of the LED set.">
<polygon fill="white" stroke="#666666" points="246.5,-59.75 144.25,-59.75 144.25,-39 246.5,-39 246.5,-59.75"/>
<text text-anchor="middle" x="195.38" y="-46.25" font-family="Helvetica,sans-Serif" font-size="10.00">CPixelView::begin</text>
</a>
</g>
</g>
<!-- Node1&#45;&gt;Node2 -->
<g id="edge1_Node000001_Node000002" class="edge">
<title>Node1&#45;&gt;Node2</title>
<g id="a_edge1_Node000001_Node000002"><a xlink:title=" ">
<path fill="none" stroke="#63b8ff" d="M108.56,-37.05C116.49,-38.19 124.71,-39.37 132.78,-40.53"/>
<polygon fill="#63b8ff" stroke="#63b8ff" points="132.16,-43.97 142.56,-41.93 133.15,-37.05 132.16,-43.97"/>
</a>
</g>
</g>
<!-- Node3 -->
<g id="Node000003" class="node">
<title>Node3</title>
<g id="a_Node000003"><a xlink:href="../../de/d64/group___pixel_set.html#a5492e41e8b06dc599ab81b465c4236ed" target="_top" xlink:title="Makes an iterator instance for the end of the LED set.">
<polygon fill="white" stroke="#666666" points="242,-20.75 148.75,-20.75 148.75,0 242,0 242,-20.75"/>
<text text-anchor="middle" x="195.38" y="-7.25" font-family="Helvetica,sans-Serif" font-size="10.00">CPixelView::end</text>
</a>
</g>
</g>
<!-- Node1&#45;&gt;Node3 -->
<g id="edge2_Node000001_Node000003" class="edge">
<title>Node1&#45;&gt;Node3</title>
<g id="a_edge2_Node000001_Node000003"><a xlink:title=" ">
<path fill="none" stroke="#63b8ff" d="M108.56,-22.08C117.94,-20.8 127.74,-19.47 137.21,-18.17"/>
<polygon fill="#63b8ff" stroke="#63b8ff" points="137.63,-21.65 147.06,-16.83 136.68,-14.71 137.63,-21.65"/>
</a>
</g>
</g>
</g>
</svg>
