<?xml version="1.0" encoding="UTF-8" standalone="no"?>
<!DOCTYPE svg PUBLIC "-//W3C//DTD SVG 1.1//EN"
 "http://www.w3.org/Graphics/SVG/1.1/DTD/svg11.dtd">
<!-- Generated by graphviz version 12.2.1 (20241206.2353)
 -->
<!-- Title: CPixelView::operator&#45;= Pages: 1 -->
<svg width="275pt" height="68pt"
 viewBox="0.00 0.00 274.75 67.75" xmlns="http://www.w3.org/2000/svg" xmlns:xlink="http://www.w3.org/1999/xlink">
<g id="graph0" class="graph" transform="scale(1 1) rotate(0) translate(4 63.75)">
<title>CPixelView::operator&#45;=</title>
<!-- Node1 -->
<g id="Node000001" class="node">
<title>Node1</title>
<g id="a_Node000001"><a xlink:title="Subtract every pixel in the other set from this set.">
<polygon fill="#999999" stroke="#666666" points="128.5,-39.75 0,-39.75 0,-19 128.5,-19 128.5,-39.75"/>
<text text-anchor="middle" x="64.25" y="-26.25" font-family="Helvetica,sans-Serif" font-size="10.00">CPixelView::operator&#45;=</text>
</a>
</g>
</g>
<!-- Node2 -->
<g id="Node000002" class="node">
<title>Node2</title>
<g id="a_Node000002"><a xlink:href="../../de/d64/group___pixel_set.html#af3254e14aaccb1e8b38272ddeb6d8013" target="_top" xlink:title="Makes an iterator instance for the start of the LED set.">
<polygon fill="white" stroke="#666666" points="266.75,-59.75 164.5,-59.75 164.5,-39 266.75,-39 266.75,-59.75"/>
<text text-anchor="middle" x="215.62" y="-46.25" font-family="Helvetica,sans-Serif" font-size="10.00">CPixelView::begin</text>
</a>
</g>
</g>
<!-- Node1&#45;&gt;Node2 -->
<g id="edge1_Node000001_Node000002" class="edge">
<title>Node1&#45;&gt;Node2</title>
<g id="a_edge1_Node000001_Node000002"><a xlink:title=" ">
<path fill="none" stroke="#63b8ff" d="M128.6,-37.86C136.71,-38.94 144.99,-40.05 153.07,-41.13"/>
<polygon fill="#63b8ff" stroke="#63b8ff" points="152.43,-44.58 162.81,-42.44 153.36,-37.64 152.43,-44.58"/>
</a>
</g>
</g>
<!-- Node3 -->
<g id="Node000003" class="node">
<title>Node3</title>
<g id="a_Node000003"><a xlink:href="../../de/d64/group___pixel_set.html#a5492e41e8b06dc599ab81b465c4236ed" target="_top" xlink:title="Makes an iterator instance for the end of the LED set.">
<polygon fill="white" stroke="#666666" points="262.25,-20.75 169,-20.75 169,0 262.25,0 262.25,-20.75"/>
<text text-anchor="middle" x="215.62" y="-7.25" font-family="Helvetica,sans-Serif" font-size="10.00">CPixelView::end</text>
</a>
</g>
</g>
<!-- Node1&#45;&gt;Node3 -->
<g id="edge2_Node000001_Node000003" class="edge">
<title>Node1&#45;&gt;Node3</title>
<g id="a_edge2_Node000001_Node000003"><a xlink:title=" ">
<path fill="none" stroke="#63b8ff" d="M128.6,-21.32C138.21,-20.09 148.08,-18.84 157.54,-17.64"/>
<polygon fill="#63b8ff" stroke="#63b8ff" points="157.87,-21.12 167.35,-16.39 156.98,-14.18 157.87,-21.12"/>
</a>
</g>
</g>
</g>
</svg>
