<?xml version="1.0" encoding="UTF-8" standalone="no"?>
<!DOCTYPE svg PUBLIC "-//W3C//DTD SVG 1.1//EN"
 "http://www.w3.org/Graphics/SVG/1.1/DTD/svg11.dtd">
<!-- Generated by graphviz version 12.2.1 (20241206.2353)
 -->
<!-- Title: CPixelView::fadeToBlackBy Pages: 1 -->
<svg width="442pt" height="68pt"
 viewBox="0.00 0.00 442.25 67.75" xmlns="http://www.w3.org/2000/svg" xmlns:xlink="http://www.w3.org/1999/xlink">
<g id="graph0" class="graph" transform="scale(1 1) rotate(0) translate(4 63.75)">
<title>CPixelView::fadeToBlackBy</title>
<!-- Node1 -->
<g id="Node000001" class="node">
<title>Node1</title>
<g id="a_Node000001"><a xlink:title="Fade every LED down by the given scale.">
<polygon fill="#999999" stroke="#666666" points="147.25,-39.75 0,-39.75 0,-19 147.25,-19 147.25,-39.75"/>
<text text-anchor="middle" x="73.62" y="-26.25" font-family="Helvetica,sans-Serif" font-size="10.00">CPixelView::fadeToBlackBy</text>
</a>
</g>
</g>
<!-- Node2 -->
<g id="Node000002" class="node">
<title>Node2</title>
<g id="a_Node000002"><a xlink:href="../../de/d64/group___pixel_set.html#a96e9aee963f15b008d91ba1cbd9b6f6a" target="_top" xlink:title="Scale every LED by the given scale.">
<polygon fill="white" stroke="#666666" points="296,-39.75 183.25,-39.75 183.25,-19 296,-19 296,-39.75"/>
<text text-anchor="middle" x="239.62" y="-26.25" font-family="Helvetica,sans-Serif" font-size="10.00">CPixelView::nscale8</text>
</a>
</g>
</g>
<!-- Node1&#45;&gt;Node2 -->
<g id="edge1_Node000001_Node000002" class="edge">
<title>Node1&#45;&gt;Node2</title>
<g id="a_edge1_Node000001_Node000002"><a xlink:title=" ">
<path fill="none" stroke="#63b8ff" d="M147.51,-29.38C155.56,-29.38 163.73,-29.38 171.69,-29.38"/>
<polygon fill="#63b8ff" stroke="#63b8ff" points="171.68,-32.88 181.68,-29.38 171.68,-25.88 171.68,-32.88"/>
</a>
</g>
</g>
<!-- Node3 -->
<g id="Node000003" class="node">
<title>Node3</title>
<g id="a_Node000003"><a xlink:href="../../de/d64/group___pixel_set.html#af3254e14aaccb1e8b38272ddeb6d8013" target="_top" xlink:title="Makes an iterator instance for the start of the LED set.">
<polygon fill="white" stroke="#666666" points="434.25,-59.75 332,-59.75 332,-39 434.25,-39 434.25,-59.75"/>
<text text-anchor="middle" x="383.12" y="-46.25" font-family="Helvetica,sans-Serif" font-size="10.00">CPixelView::begin</text>
</a>
</g>
</g>
<!-- Node2&#45;&gt;Node3 -->
<g id="edge2_Node000002_Node000003" class="edge">
<title>Node2&#45;&gt;Node3</title>
<g id="a_edge2_Node000002_Node000003"><a xlink:title=" ">
<path fill="none" stroke="#63b8ff" d="M296.14,-37.22C304.14,-38.35 312.41,-39.52 320.52,-40.67"/>
<polygon fill="#63b8ff" stroke="#63b8ff" points="319.94,-44.12 330.33,-42.05 320.92,-37.19 319.94,-44.12"/>
</a>
</g>
</g>
<!-- Node4 -->
<g id="Node000004" class="node">
<title>Node4</title>
<g id="a_Node000004"><a xlink:href="../../de/d64/group___pixel_set.html#a5492e41e8b06dc599ab81b465c4236ed" target="_top" xlink:title="Makes an iterator instance for the end of the LED set.">
<polygon fill="white" stroke="#666666" points="429.75,-20.75 336.5,-20.75 336.5,0 429.75,0 429.75,-20.75"/>
<text text-anchor="middle" x="383.12" y="-7.25" font-family="Helvetica,sans-Serif" font-size="10.00">CPixelView::end</text>
</a>
</g>
</g>
<!-- Node2&#45;&gt;Node4 -->
<g id="edge3_Node000002_Node000004" class="edge">
<title>Node2&#45;&gt;Node4</title>
<g id="a_edge3_Node000002_Node000004"><a xlink:title=" ">
<path fill="none" stroke="#63b8ff" d="M296.14,-21.92C305.61,-20.65 315.46,-19.33 324.97,-18.05"/>
<polygon fill="#63b8ff" stroke="#63b8ff" points="325.41,-21.52 334.85,-16.72 324.48,-14.58 325.41,-21.52"/>
</a>
</g>
</g>
</g>
</svg>
