<?xml version="1.0" encoding="UTF-8" standalone="no"?>
<!DOCTYPE svg PUBLIC "-//W3C//DTD SVG 1.1//EN"
 "http://www.w3.org/Graphics/SVG/1.1/DTD/svg11.dtd">
<!-- Generated by graphviz version 12.2.1 (20241206.2353)
 -->
<!-- Title: /home/runner/work/FastLED/FastLED/src/lib8tion/intmap.h Pages: 1 -->
<svg width="1233pt" height="471pt"
 viewBox="0.00 0.00 1232.50 471.25" xmlns="http://www.w3.org/2000/svg" xmlns:xlink="http://www.w3.org/1999/xlink">
<g id="graph0" class="graph" transform="scale(1 1) rotate(0) translate(4 467.25)">
<title>/home/runner/work/FastLED/FastLED/src/lib8tion/intmap.h</title>
<!-- Node1 -->
<g id="Node000001" class="node">
<title>Node1</title>
<g id="a_Node000001"><a xlink:title="Defines integer mapping functions.">
<polygon fill="#999999" stroke="#666666" points="1153.12,-463.25 992.38,-463.25 992.38,-429.75 1153.12,-429.75 1153.12,-463.25"/>
<text text-anchor="start" x="1000.38" y="-449.75" font-family="Helvetica,sans-Serif" font-size="10.00">/home/runner/work/FastLED</text>
<text text-anchor="middle" x="1072.75" y="-437" font-family="Helvetica,sans-Serif" font-size="10.00">/FastLED/src/lib8tion/intmap.h</text>
</a>
</g>
</g>
<!-- Node2 -->
<g id="Node000002" class="node">
<title>Node2</title>
<g id="a_Node000002"><a xlink:href="../../dd/d05/five__bit__hd__gamma_8cpp.html" target="_top" xlink:title="Defines functions for five&#45;bit gamma correction.">
<polygon fill="white" stroke="#666666" points="1224.5,-46.25 1075,-46.25 1075,0 1224.5,0 1224.5,-46.25"/>
<text text-anchor="start" x="1083" y="-32.75" font-family="Helvetica,sans-Serif" font-size="10.00">/home/runner/work/FastLED</text>
<text text-anchor="start" x="1083" y="-20" font-family="Helvetica,sans-Serif" font-size="10.00">/FastLED/src/fl/five_bit</text>
<text text-anchor="middle" x="1149.75" y="-7.25" font-family="Helvetica,sans-Serif" font-size="10.00">_hd_gamma.cpp</text>
</a>
</g>
</g>
<!-- Node1&#45;&gt;Node2 -->
<g id="edge1_Node000001_Node000002" class="edge">
<title>Node1&#45;&gt;Node2</title>
<g id="a_edge1_Node000001_Node000002"><a xlink:title=" ">
<path fill="none" stroke="#63b8ff" d="M1094.13,-420.72C1114.39,-394.62 1141.75,-351.43 1141.75,-308.5 1141.75,-308.5 1141.75,-308.5 1141.75,-167.5 1141.75,-124.62 1145.36,-74.64 1147.73,-46.45"/>
<polygon fill="#63b8ff" stroke="#63b8ff" points="1091.53,-418.36 1088,-428.35 1096.99,-422.74 1091.53,-418.36"/>
</a>
</g>
</g>
<!-- Node3 -->
<g id="Node000003" class="node">
<title>Node3</title>
<g id="a_Node000003"><a xlink:href="../../d5/dd1/math8_8h.html" target="_top" xlink:title="Fast, efficient 8&#45;bit math functions specifically designed for high&#45;performance LED programming.">
<polygon fill="white" stroke="#666666" points="1098.62,-393.75 940.88,-393.75 940.88,-360.25 1098.62,-360.25 1098.62,-393.75"/>
<text text-anchor="start" x="948.88" y="-380.25" font-family="Helvetica,sans-Serif" font-size="10.00">/home/runner/work/FastLED</text>
<text text-anchor="middle" x="1019.75" y="-367.5" font-family="Helvetica,sans-Serif" font-size="10.00">/FastLED/src/lib8tion/math8.h</text>
</a>
</g>
</g>
<!-- Node1&#45;&gt;Node3 -->
<g id="edge2_Node000001_Node000003" class="edge">
<title>Node1&#45;&gt;Node3</title>
<g id="a_edge2_Node000001_Node000003"><a xlink:title=" ">
<path fill="none" stroke="#63b8ff" d="M1053.22,-420.63C1046.2,-411.69 1038.48,-401.85 1032.22,-393.88"/>
<polygon fill="#63b8ff" stroke="#63b8ff" points="1050.33,-422.61 1059.26,-428.31 1055.83,-418.29 1050.33,-422.61"/>
</a>
</g>
</g>
<!-- Node3&#45;&gt;Node2 -->
<g id="edge4_Node000003_Node000002" class="edge">
<title>Node3&#45;&gt;Node2</title>
<g id="a_edge4_Node000003_Node000002"><a xlink:title=" ">
<path fill="none" stroke="#63b8ff" d="M1034.09,-350.01C1047.59,-323.08 1065.75,-279.35 1065.75,-239 1065.75,-239 1065.75,-239 1065.75,-167.5 1065.75,-119.32 1101.5,-72.99 1126.35,-46.59"/>
<polygon fill="#63b8ff" stroke="#63b8ff" points="1031.04,-348.3 1029.54,-358.79 1037.25,-351.53 1031.04,-348.3"/>
</a>
</g>
</g>
<!-- Node4 -->
<g id="Node000004" class="node">
<title>Node4</title>
<g id="a_Node000004"><a xlink:href="../../d0/de3/crgb_8cpp.html" target="_top" xlink:title="Utility functions for the red, green, and blue (RGB) pixel struct.">
<polygon fill="white" stroke="#666666" points="1056.5,-39.88 907,-39.88 907,-6.38 1056.5,-6.38 1056.5,-39.88"/>
<text text-anchor="start" x="915" y="-26.38" font-family="Helvetica,sans-Serif" font-size="10.00">/home/runner/work/FastLED</text>
<text text-anchor="middle" x="981.75" y="-13.62" font-family="Helvetica,sans-Serif" font-size="10.00">/FastLED/src/crgb.cpp</text>
</a>
</g>
</g>
<!-- Node3&#45;&gt;Node4 -->
<g id="edge3_Node000003_Node000004" class="edge">
<title>Node3&#45;&gt;Node4</title>
<g id="a_edge3_Node000003_Node000004"><a xlink:title=" ">
<path fill="none" stroke="#63b8ff" d="M1010.28,-349.15C1001.49,-321.8 989.75,-277.99 989.75,-239 989.75,-239 989.75,-239 989.75,-167.5 989.75,-121.13 985.53,-66.45 983.22,-40.02"/>
<polygon fill="#63b8ff" stroke="#63b8ff" points="1006.87,-349.98 1013.35,-358.37 1013.51,-347.77 1006.87,-349.98"/>
</a>
</g>
</g>
<!-- Node5 -->
<g id="Node000005" class="node">
<title>Node5</title>
<g id="a_Node000005"><a xlink:href="../../df/da5/lib8tion_8h.html" target="_top" xlink:title="Fast, efficient 8&#45;bit math functions specifically designed for high&#45;performance LED programming.">
<polygon fill="white" stroke="#666666" points="635.5,-324.25 486,-324.25 486,-290.75 635.5,-290.75 635.5,-324.25"/>
<text text-anchor="start" x="494" y="-310.75" font-family="Helvetica,sans-Serif" font-size="10.00">/home/runner/work/FastLED</text>
<text text-anchor="middle" x="560.75" y="-298" font-family="Helvetica,sans-Serif" font-size="10.00">/FastLED/src/lib8tion.h</text>
</a>
</g>
</g>
<!-- Node3&#45;&gt;Node5 -->
<g id="edge5_Node000003_Node000005" class="edge">
<title>Node3&#45;&gt;Node5</title>
<g id="a_edge5_Node000003_Node000005"><a xlink:title=" ">
<path fill="none" stroke="#63b8ff" d="M929.29,-362.7C843.53,-350.08 716.19,-331.36 635.87,-319.55"/>
<polygon fill="#63b8ff" stroke="#63b8ff" points="928.68,-366.15 939.09,-364.14 929.7,-359.22 928.68,-366.15"/>
</a>
</g>
</g>
<!-- Node6 -->
<g id="Node000006" class="node">
<title>Node6</title>
<g id="a_Node000006"><a xlink:href="../../dd/d0f/_apa102_8ino.html" target="_top" xlink:title=" ">
<polygon fill="white" stroke="#666666" points="149.5,-46.25 0,-46.25 0,0 149.5,0 149.5,-46.25"/>
<text text-anchor="start" x="8" y="-32.75" font-family="Helvetica,sans-Serif" font-size="10.00">/home/runner/work/FastLED</text>
<text text-anchor="start" x="8" y="-20" font-family="Helvetica,sans-Serif" font-size="10.00">/FastLED/examples/Apa102</text>
<text text-anchor="middle" x="74.75" y="-7.25" font-family="Helvetica,sans-Serif" font-size="10.00">/Apa102.ino</text>
</a>
</g>
</g>
<!-- Node5&#45;&gt;Node6 -->
<g id="edge6_Node000005_Node000006" class="edge">
<title>Node5&#45;&gt;Node6</title>
<g id="a_edge6_Node000005_Node000006"><a xlink:title=" ">
<path fill="none" stroke="#63b8ff" d="M520.96,-284.92C504.17,-275.73 484.45,-264.82 466.75,-254.75 335.69,-180.14 181.98,-88.48 112.38,-46.75"/>
<polygon fill="#63b8ff" stroke="#63b8ff" points="519.21,-287.95 529.67,-289.67 522.57,-281.81 519.21,-287.95"/>
</a>
</g>
</g>
<!-- Node7 -->
<g id="Node000007" class="node">
<title>Node7</title>
<g id="a_Node000007"><a xlink:href="../../d1/d75/_apa102_h_d_8ino.html" target="_top" xlink:title="Example showing how to use the APA102HD gamma correction.">
<polygon fill="white" stroke="#666666" points="330.25,-46.25 167.25,-46.25 167.25,0 330.25,0 330.25,-46.25"/>
<text text-anchor="start" x="175.25" y="-32.75" font-family="Helvetica,sans-Serif" font-size="10.00">/home/runner/work/FastLED</text>
<text text-anchor="start" x="175.25" y="-20" font-family="Helvetica,sans-Serif" font-size="10.00">/FastLED/examples/Apa102HD</text>
<text text-anchor="middle" x="248.75" y="-7.25" font-family="Helvetica,sans-Serif" font-size="10.00">/Apa102HD.ino</text>
</a>
</g>
</g>
<!-- Node5&#45;&gt;Node7 -->
<g id="edge7_Node000005_Node000007" class="edge">
<title>Node5&#45;&gt;Node7</title>
<g id="a_edge7_Node000005_Node000007"><a xlink:title=" ">
<path fill="none" stroke="#63b8ff" d="M534.66,-282.89C475.51,-229.35 331.83,-99.32 273.74,-46.74"/>
<polygon fill="#63b8ff" stroke="#63b8ff" points="532.2,-285.38 541.96,-289.49 536.89,-280.19 532.2,-285.38"/>
</a>
</g>
</g>
<!-- Node8 -->
<g id="Node000008" class="node">
<title>Node8</title>
<g id="a_Node000008"><a xlink:href="../../d3/d6e/_apa102_h_d_override_8ino.html" target="_top" xlink:title=" ">
<polygon fill="white" stroke="#666666" points="553.25,-46.25 348.25,-46.25 348.25,0 553.25,0 553.25,-46.25"/>
<text text-anchor="start" x="356.25" y="-32.75" font-family="Helvetica,sans-Serif" font-size="10.00">/home/runner/work/FastLED</text>
<text text-anchor="start" x="356.25" y="-20" font-family="Helvetica,sans-Serif" font-size="10.00">/FastLED/examples/Apa102HDOverride</text>
<text text-anchor="middle" x="450.75" y="-7.25" font-family="Helvetica,sans-Serif" font-size="10.00">/Apa102HDOverride.ino</text>
</a>
</g>
</g>
<!-- Node5&#45;&gt;Node8 -->
<g id="edge8_Node000005_Node000008" class="edge">
<title>Node5&#45;&gt;Node8</title>
<g id="a_edge8_Node000005_Node000008"><a xlink:title=" ">
<path fill="none" stroke="#63b8ff" d="M549.38,-280.29C545.9,-272.13 542.11,-263.09 538.75,-254.75 508.14,-178.84 474.22,-87.82 458.97,-46.5"/>
<polygon fill="#63b8ff" stroke="#63b8ff" points="546.1,-281.51 553.26,-289.32 552.53,-278.75 546.1,-281.51"/>
</a>
</g>
</g>
<!-- Node9 -->
<g id="Node000009" class="node">
<title>Node9</title>
<g id="a_Node000009"><a xlink:href="../../dd/db4/_h_d107_8ino.html" target="_top" xlink:title="Example showing how to use the HD107 and HD which has built in gamma correction.">
<polygon fill="white" stroke="#666666" points="888.5,-46.25 739,-46.25 739,0 888.5,0 888.5,-46.25"/>
<text text-anchor="start" x="747" y="-32.75" font-family="Helvetica,sans-Serif" font-size="10.00">/home/runner/work/FastLED</text>
<text text-anchor="start" x="747" y="-20" font-family="Helvetica,sans-Serif" font-size="10.00">/FastLED/examples/HD107</text>
<text text-anchor="middle" x="813.75" y="-7.25" font-family="Helvetica,sans-Serif" font-size="10.00">/HD107.ino</text>
</a>
</g>
</g>
<!-- Node5&#45;&gt;Node9 -->
<g id="edge9_Node000005_Node000009" class="edge">
<title>Node5&#45;&gt;Node9</title>
<g id="a_edge9_Node000005_Node000009"><a xlink:title=" ">
<path fill="none" stroke="#63b8ff" d="M646.93,-295.29C698.05,-286.84 756.22,-273.49 773.75,-254.75 828.16,-196.59 822.7,-92.3 817.16,-46.61"/>
<polygon fill="#63b8ff" stroke="#63b8ff" points="646.62,-291.79 637.3,-296.83 647.73,-298.71 646.62,-291.79"/>
</a>
</g>
</g>
<!-- Node10 -->
<g id="Node000010" class="node">
<title>Node10</title>
<g id="a_Node000010"><a xlink:href="../../db/d97/_fast_l_e_d_8h.html" target="_top" xlink:title="central include file for FastLED, defines the CFastLED class/object">
<polygon fill="#fff0f0" stroke="red" points="720.5,-115.75 571,-115.75 571,-82.25 720.5,-82.25 720.5,-115.75"/>
<text text-anchor="start" x="579" y="-102.25" font-family="Helvetica,sans-Serif" font-size="10.00">/home/runner/work/FastLED</text>
<text text-anchor="middle" x="645.75" y="-89.5" font-family="Helvetica,sans-Serif" font-size="10.00">/FastLED/src/FastLED.h</text>
</a>
</g>
</g>
<!-- Node5&#45;&gt;Node10 -->
<g id="edge10_Node000005_Node000010" class="edge">
<title>Node5&#45;&gt;Node10</title>
<g id="a_edge10_Node000005_Node000010"><a xlink:title=" ">
<path fill="none" stroke="#63b8ff" d="M554.1,-279.22C552.32,-246.85 557.33,-192.19 579.75,-151.75 587.59,-137.61 600.76,-125.27 613.41,-116.2"/>
<polygon fill="#63b8ff" stroke="#63b8ff" points="550.59,-279.3 554.96,-288.95 557.57,-278.68 550.59,-279.3"/>
</a>
</g>
</g>
<!-- Node73 -->
<g id="Node000073" class="node">
<title>Node73</title>
<g id="a_Node000073"><a xlink:href="../../d6/ddc/fastspi_8h.html" target="_top" xlink:title="Serial peripheral interface (SPI) definitions per platform.">
<polygon fill="white" stroke="#666666" points="720.5,-39.88 571,-39.88 571,-6.38 720.5,-6.38 720.5,-39.88"/>
<text text-anchor="start" x="579" y="-26.38" font-family="Helvetica,sans-Serif" font-size="10.00">/home/runner/work/FastLED</text>
<text text-anchor="middle" x="645.75" y="-13.62" font-family="Helvetica,sans-Serif" font-size="10.00">/FastLED/src/fastspi.h</text>
</a>
</g>
</g>
<!-- Node5&#45;&gt;Node73 -->
<g id="edge23_Node000005_Node000073" class="edge">
<title>Node5&#45;&gt;Node73</title>
<g id="a_edge23_Node000005_Node000073"><a xlink:title=" ">
<path fill="none" stroke="#63b8ff" d="M553.1,-279.28C542.25,-234.95 527.31,-145.73 561.75,-82.25 571.81,-63.7 590.67,-49.84 607.97,-40.31"/>
<polygon fill="#63b8ff" stroke="#63b8ff" points="549.67,-280.02 555.56,-288.83 556.45,-278.27 549.67,-280.02"/>
</a>
</g>
</g>
<!-- Node113 -->
<g id="Node000113" class="node">
<title>Node113</title>
<g id="a_Node000113"><a xlink:href="../../d0/d4b/crgb_8hpp.html" target="_top" xlink:title="Defines utility functions for the red, green, and blue (RGB) pixel struct.">
<polygon fill="white" stroke="#666666" points="747.5,-254.75 598,-254.75 598,-221.25 747.5,-221.25 747.5,-254.75"/>
<text text-anchor="start" x="606" y="-241.25" font-family="Helvetica,sans-Serif" font-size="10.00">/home/runner/work/FastLED</text>
<text text-anchor="middle" x="672.75" y="-228.5" font-family="Helvetica,sans-Serif" font-size="10.00">/FastLED/src/crgb.hpp</text>
</a>
</g>
</g>
<!-- Node5&#45;&gt;Node113 -->
<g id="edge20_Node000005_Node000113" class="edge">
<title>Node5&#45;&gt;Node113</title>
<g id="a_edge20_Node000005_Node000113"><a xlink:title=" ">
<path fill="none" stroke="#63b8ff" d="M597.14,-284.57C613.1,-274.95 631.49,-263.86 646.14,-255.04"/>
<polygon fill="#63b8ff" stroke="#63b8ff" points="595.63,-281.39 588.87,-289.55 599.24,-287.39 595.63,-281.39"/>
</a>
</g>
</g>
<!-- Node114 -->
<g id="Node000114" class="node">
<title>Node114</title>
<g id="a_Node000114"><a xlink:href="../../d2/dba/pixeltypes_8h.html" target="_top" xlink:title="Includes defintions for RGB and HSV pixels.">
<polygon fill="#fff0f0" stroke="red" points="747.5,-185.25 598,-185.25 598,-151.75 747.5,-151.75 747.5,-185.25"/>
<text text-anchor="start" x="606" y="-171.75" font-family="Helvetica,sans-Serif" font-size="10.00">/home/runner/work/FastLED</text>
<text text-anchor="middle" x="672.75" y="-159" font-family="Helvetica,sans-Serif" font-size="10.00">/FastLED/src/pixeltypes.h</text>
</a>
</g>
</g>
<!-- Node5&#45;&gt;Node114 -->
<g id="edge24_Node000005_Node000114" class="edge">
<title>Node5&#45;&gt;Node114</title>
<g id="a_edge24_Node000005_Node000114"><a xlink:title=" ">
<path fill="none" stroke="#63b8ff" d="M647.02,-294.27C692.98,-285.8 742.86,-272.78 756.75,-254.75 765.84,-242.95 764.01,-234.25 756.75,-221.25 747.9,-205.4 731.97,-193.8 716.35,-185.65"/>
<polygon fill="#63b8ff" stroke="#63b8ff" points="646.47,-290.81 637.24,-296.01 647.7,-297.71 646.47,-290.81"/>
</a>
</g>
</g>
<!-- Node10&#45;&gt;Node2 -->
<g id="edge18_Node000010_Node000002" class="edge">
<title>Node10&#45;&gt;Node2</title>
<g id="a_edge18_Node000010_Node000002"><a xlink:title=" ">
<path fill="none" stroke="#63b8ff" d="M732.41,-90.77C817.7,-82.84 951.42,-68.25 1065.75,-46.25 1068.71,-45.68 1071.72,-45.06 1074.76,-44.41"/>
<polygon fill="#63b8ff" stroke="#63b8ff" points="732.1,-87.28 722.46,-91.68 732.74,-94.25 732.1,-87.28"/>
</a>
</g>
</g>
<!-- Node10&#45;&gt;Node4 -->
<g id="edge15_Node000010_Node000004" class="edge">
<title>Node10&#45;&gt;Node4</title>
<g id="a_edge15_Node000010_Node000004"><a xlink:title=" ">
<path fill="none" stroke="#63b8ff" d="M732.11,-81.48C780.89,-71.85 842.88,-59.1 897.75,-46.25 905.53,-44.43 913.69,-42.41 921.74,-40.36"/>
<polygon fill="#63b8ff" stroke="#63b8ff" points="731.59,-78.02 722.45,-83.39 732.94,-84.89 731.59,-78.02"/>
</a>
</g>
</g>
<!-- Node10&#45;&gt;Node5 -->
<g id="edge19_Node000010_Node000005" class="edge">
<title>Node10&#45;&gt;Node5</title>
<g id="a_edge19_Node000010_Node000005"><a xlink:title=" ">
<path fill="none" stroke="#63b8ff" d="M621.11,-123.59C612.51,-131.55 603.63,-141.14 597.75,-151.75 572.46,-197.36 569.32,-261.05 565.62,-290.46"/>
<polygon fill="#63b8ff" stroke="#63b8ff" points="623.18,-126.43 628.37,-117.2 618.55,-121.18 623.18,-126.43"/>
</a>
</g>
</g>
<!-- Node10&#45;&gt;Node6 -->
<g id="edge11_Node000010_Node000006" class="edge">
<title>Node10&#45;&gt;Node6</title>
<g id="a_edge11_Node000010_Node000006"><a xlink:title=" ">
<path fill="none" stroke="#63b8ff" d="M559.5,-92.91C461.53,-86.18 297.16,-72.06 157.75,-46.25 155.11,-45.76 152.43,-45.23 149.73,-44.67"/>
<polygon fill="#63b8ff" stroke="#63b8ff" points="559.1,-96.39 569.31,-93.57 559.57,-89.4 559.1,-96.39"/>
</a>
</g>
</g>
<!-- Node10&#45;&gt;Node7 -->
<g id="edge12_Node000010_Node000007" class="edge">
<title>Node10&#45;&gt;Node7</title>
<g id="a_edge12_Node000010_Node000007"><a xlink:title=" ">
<path fill="none" stroke="#63b8ff" d="M559.46,-85.2C497.76,-75.63 412.87,-61.59 338.75,-46.25 336.07,-45.7 333.35,-45.12 330.61,-44.52"/>
<polygon fill="#63b8ff" stroke="#63b8ff" points="558.79,-88.64 569.21,-86.71 559.86,-81.72 558.79,-88.64"/>
</a>
</g>
</g>
<!-- Node10&#45;&gt;Node8 -->
<g id="edge13_Node000010_Node000008" class="edge">
<title>Node10&#45;&gt;Node8</title>
<g id="a_edge13_Node000010_Node000008"><a xlink:title=" ">
<path fill="none" stroke="#63b8ff" d="M592.42,-77.8C567.04,-68.18 536.6,-56.65 510.46,-46.74"/>
<polygon fill="#63b8ff" stroke="#63b8ff" points="590.95,-80.98 601.54,-81.25 593.43,-74.44 590.95,-80.98"/>
</a>
</g>
</g>
<!-- Node10&#45;&gt;Node9 -->
<g id="edge14_Node000010_Node000009" class="edge">
<title>Node10&#45;&gt;Node9</title>
<g id="a_edge14_Node000010_Node000009"><a xlink:title=" ">
<path fill="none" stroke="#63b8ff" d="M692.87,-77.28C714.5,-67.77 740.19,-56.47 762.31,-46.74"/>
<polygon fill="#63b8ff" stroke="#63b8ff" points="691.75,-73.95 684,-81.18 694.57,-80.36 691.75,-73.95"/>
</a>
</g>
</g>
<!-- Node10&#45;&gt;Node73 -->
<g id="edge16_Node000010_Node000073" class="edge">
<title>Node10&#45;&gt;Node73</title>
<g id="a_edge16_Node000010_Node000073"><a xlink:title=" ">
<path fill="none" stroke="#63b8ff" d="M639.2,-70.61C638.76,-60.35 639.05,-49.02 640.08,-40.12"/>
<polygon fill="#63b8ff" stroke="#63b8ff" points="635.71,-70.76 639.96,-80.46 642.69,-70.22 635.71,-70.76"/>
</a>
</g>
</g>
<!-- Node73&#45;&gt;Node10 -->
<g id="edge17_Node000073_Node000010" class="edge">
<title>Node73&#45;&gt;Node10</title>
<g id="a_edge17_Node000073_Node000010"><a xlink:title=" ">
<path fill="none" stroke="#63b8ff" d="M652.29,-51.48C652.74,-61.74 652.46,-73.06 651.43,-81.97"/>
<polygon fill="#63b8ff" stroke="#63b8ff" points="655.79,-51.34 651.54,-41.63 648.81,-51.87 655.79,-51.34"/>
</a>
</g>
</g>
<!-- Node113&#45;&gt;Node114 -->
<g id="edge21_Node000113_Node000114" class="edge">
<title>Node113&#45;&gt;Node114</title>
<g id="a_edge21_Node000113_Node000114"><a xlink:title=" ">
<path fill="none" stroke="#63b8ff" d="M672.75,-209.56C672.75,-201.34 672.75,-192.59 672.75,-185.38"/>
<polygon fill="#63b8ff" stroke="#63b8ff" points="669.25,-209.49 672.75,-219.49 676.25,-209.49 669.25,-209.49"/>
</a>
</g>
</g>
<!-- Node114&#45;&gt;Node10 -->
<g id="edge22_Node000114_Node000010" class="edge">
<title>Node114&#45;&gt;Node10</title>
<g id="a_edge22_Node000114_Node000010"><a xlink:title=" ">
<path fill="none" stroke="#63b8ff" d="M662.12,-140.92C658.73,-132.45 655.09,-123.35 652.1,-115.88"/>
<polygon fill="#63b8ff" stroke="#63b8ff" points="658.83,-142.11 665.79,-150.1 665.32,-139.51 658.83,-142.11"/>
</a>
</g>
</g>
</g>
</svg>
