<?xml version="1.0" encoding="UTF-8" standalone="no"?>
<!DOCTYPE svg PUBLIC "-//W3C//DTD SVG 1.1//EN"
 "http://www.w3.org/Graphics/SVG/1.1/DTD/svg11.dtd">
<!-- Generated by graphviz version 12.2.1 (20241206.2353)
 -->
<!-- Title: fl::ArrayDeleter&lt; T &gt; Pages: 1 -->
<svg width="462pt" height="250pt"
 viewBox="0.00 0.00 461.50 250.23" xmlns="http://www.w3.org/2000/svg" xmlns:xlink="http://www.w3.org/1999/xlink">
<g id="graph0" class="graph" transform="scale(1 1) rotate(0) translate(4 246.23)">
<title>fl::ArrayDeleter&lt; T &gt;</title>
<!-- Node1 -->
<g id="Node000001" class="node">
<title>Node1</title>
<g id="a_Node000001"><a xlink:title=" ">
<polygon fill="#999999" stroke="#666666" points="118.75,-134.75 0,-134.75 0,-114 118.75,-114 118.75,-134.75"/>
<text text-anchor="middle" x="59.38" y="-121.25" font-family="Helvetica,sans-Serif" font-size="10.00">fl::ArrayDeleter&lt; T &gt;</text>
</a>
</g>
</g>
<!-- Node2 -->
<g id="Node000002" class="node">
<title>Node2</title>
<g id="a_Node000002"><a xlink:href="../../df/db6/structfl_1_1_array_deleter.html" target="_top" xlink:title=" ">
<polygon fill="white" stroke="#666666" points="443.38,-239.75 302.88,-239.75 302.88,-219 443.38,-219 443.38,-239.75"/>
<text text-anchor="middle" x="373.12" y="-226.25" font-family="Helvetica,sans-Serif" font-size="10.00">fl::ArrayDeleter&lt; CRGB &gt;</text>
</a>
</g>
</g>
<!-- Node1&#45;&gt;Node2 -->
<g id="edge1_Node000001_Node000002" class="edge">
<title>Node1&#45;&gt;Node2</title>
<g id="a_edge1_Node000001_Node000002"><a xlink:title=" ">
<path fill="none" stroke="orange" stroke-dasharray="5,2" d="M74.86,-143.93C88.71,-161.06 111.24,-185.08 136.75,-197.38 188.58,-222.34 253.81,-229.6 302.46,-231.04"/>
<polygon fill="orange" stroke="orange" points="77.93,-142.17 69.02,-136.44 72.4,-146.48 77.93,-142.17"/>
</a>
</g>
<text text-anchor="middle" x="205.75" y="-232.73" font-family="Helvetica,sans-Serif" font-size="10.00" fill="grey"> &lt; CRGB &gt;</text>
</g>
<!-- Node3 -->
<g id="Node000003" class="node">
<title>Node3</title>
<g id="a_Node000003"><a xlink:href="../../df/db6/structfl_1_1_array_deleter.html" target="_top" xlink:title=" ">
<polygon fill="white" stroke="#666666" points="440.38,-200.75 305.88,-200.75 305.88,-180 440.38,-180 440.38,-200.75"/>
<text text-anchor="middle" x="373.12" y="-187.25" font-family="Helvetica,sans-Serif" font-size="10.00">fl::ArrayDeleter&lt; float &gt;</text>
</a>
</g>
</g>
<!-- Node1&#45;&gt;Node3 -->
<g id="edge2_Node000001_Node000003" class="edge">
<title>Node1&#45;&gt;Node3</title>
<g id="a_edge2_Node000001_Node000003"><a xlink:title=" ">
<path fill="none" stroke="orange" stroke-dasharray="5,2" d="M93.44,-139.8C106.66,-145.44 122.19,-151.4 136.75,-155.38 192.64,-170.64 257.94,-179.68 305.56,-184.74"/>
<polygon fill="orange" stroke="orange" points="94.89,-136.62 84.33,-135.8 92.08,-143.03 94.89,-136.62"/>
</a>
</g>
<text text-anchor="middle" x="205.75" y="-183.77" font-family="Helvetica,sans-Serif" font-size="10.00" fill="grey"> &lt; float &gt;</text>
</g>
<!-- Node4 -->
<g id="Node000004" class="node">
<title>Node4</title>
<g id="a_Node000004"><a xlink:href="../../df/db6/structfl_1_1_array_deleter.html" target="_top" xlink:title=" ">
<polygon fill="white" stroke="#666666" points="440,-162.12 306.25,-162.12 306.25,-128.62 440,-128.62 440,-162.12"/>
<text text-anchor="start" x="314.25" y="-148.62" font-family="Helvetica,sans-Serif" font-size="10.00">fl::ArrayDeleter&lt; fl</text>
<text text-anchor="middle" x="373.12" y="-135.88" font-family="Helvetica,sans-Serif" font-size="10.00">::HeapVector&lt; float &gt; &gt;</text>
</a>
</g>
</g>
<!-- Node1&#45;&gt;Node4 -->
<g id="edge3_Node000001_Node000004" class="edge">
<title>Node1&#45;&gt;Node4</title>
<g id="a_edge3_Node000001_Node000004"><a xlink:title=" ">
<path fill="none" stroke="orange" stroke-dasharray="5,2" d="M130.26,-129.08C182.79,-132.62 254.3,-137.44 305.92,-140.92"/>
<polygon fill="orange" stroke="orange" points="130.74,-125.61 120.52,-128.43 130.27,-132.59 130.74,-125.61"/>
</a>
</g>
<text text-anchor="middle" x="205.75" y="-141.83" font-family="Helvetica,sans-Serif" font-size="10.00" fill="grey"> &lt; fl::HeapVector&lt; float &gt; &gt;</text>
</g>
<!-- Node5 -->
<g id="Node000005" class="node">
<title>Node5</title>
<g id="a_Node000005"><a xlink:href="../../df/db6/structfl_1_1_array_deleter.html" target="_top" xlink:title=" ">
<polygon fill="white" stroke="#666666" points="446.38,-110.75 299.88,-110.75 299.88,-90 446.38,-90 446.38,-110.75"/>
<text text-anchor="middle" x="373.12" y="-97.25" font-family="Helvetica,sans-Serif" font-size="10.00">fl::ArrayDeleter&lt; uint8_t &gt;</text>
</a>
</g>
</g>
<!-- Node1&#45;&gt;Node5 -->
<g id="edge4_Node000001_Node000005" class="edge">
<title>Node1&#45;&gt;Node5</title>
<g id="a_edge4_Node000001_Node000005"><a xlink:title=" ">
<path fill="none" stroke="orange" stroke-dasharray="5,2" d="M130.49,-114.27C132.6,-114.04 134.69,-113.83 136.75,-113.62 191.23,-108.27 253.03,-104.89 299.63,-102.89"/>
<polygon fill="orange" stroke="orange" points="130.14,-110.79 120.61,-115.43 130.95,-117.74 130.14,-110.79"/>
</a>
</g>
<text text-anchor="middle" x="205.75" y="-116.88" font-family="Helvetica,sans-Serif" font-size="10.00" fill="grey"> &lt; uint8_t &gt;</text>
</g>
<!-- Node6 -->
<g id="Node000006" class="node">
<title>Node6</title>
<g id="a_Node000006"><a xlink:href="../../df/db6/structfl_1_1_array_deleter.html" target="_top" xlink:title=" ">
<polygon fill="white" stroke="#666666" points="440.75,-72.12 305.5,-72.12 305.5,-38.62 440.75,-38.62 440.75,-72.12"/>
<text text-anchor="start" x="313.5" y="-58.62" font-family="Helvetica,sans-Serif" font-size="10.00">fl::ArrayDeleter&lt; fl</text>
<text text-anchor="middle" x="373.12" y="-45.88" font-family="Helvetica,sans-Serif" font-size="10.00">::SortedHeapMap::Pair &gt;</text>
</a>
</g>
</g>
<!-- Node1&#45;&gt;Node6 -->
<g id="edge5_Node000001_Node000006" class="edge">
<title>Node1&#45;&gt;Node6</title>
<g id="a_edge5_Node000001_Node000006"><a xlink:title=" ">
<path fill="none" stroke="orange" stroke-dasharray="5,2" d="M81.26,-106.76C95.83,-95.55 116.26,-81.87 136.75,-74.88 191.37,-56.24 257.08,-52.2 305.17,-52.34"/>
<polygon fill="orange" stroke="orange" points="79.41,-103.76 73.78,-112.73 83.78,-109.23 79.41,-103.76"/>
</a>
</g>
<text text-anchor="start" x="153.62" y="-90.88" font-family="Helvetica,sans-Serif" font-size="10.00" fill="grey"> &lt; fl::SortedHeapMap</text>
<text text-anchor="middle" x="205.75" y="-78.12" font-family="Helvetica,sans-Serif" font-size="10.00" fill="grey">::Pair &gt;</text>
</g>
<!-- Node7 -->
<g id="Node000007" class="node">
<title>Node7</title>
<g id="a_Node000007"><a xlink:href="../../df/db6/structfl_1_1_array_deleter.html" target="_top" xlink:title=" ">
<polygon fill="white" stroke="#666666" points="453.5,-20.75 292.75,-20.75 292.75,0 453.5,0 453.5,-20.75"/>
<text text-anchor="middle" x="373.12" y="-7.25" font-family="Helvetica,sans-Serif" font-size="10.00">fl::ArrayDeleter&lt; DrawItem &gt;</text>
</a>
</g>
</g>
<!-- Node1&#45;&gt;Node7 -->
<g id="edge6_Node000001_Node000007" class="edge">
<title>Node1&#45;&gt;Node7</title>
<g id="a_edge6_Node000001_Node000007"><a xlink:title=" ">
<path fill="none" stroke="orange" stroke-dasharray="5,2" d="M71.76,-103.71C84.57,-82.66 107.48,-51 136.75,-35.62 184.33,-10.64 244.7,-4.59 292.39,-4.65"/>
<polygon fill="orange" stroke="orange" points="68.76,-101.9 66.76,-112.3 74.81,-105.42 68.76,-101.9"/>
</a>
</g>
<text text-anchor="middle" x="205.75" y="-38.88" font-family="Helvetica,sans-Serif" font-size="10.00" fill="grey"> &lt; DrawItem &gt;</text>
</g>
</g>
</svg>
