<?xml version="1.0" encoding="UTF-8" standalone="no"?>
<!DOCTYPE svg PUBLIC "-//W3C//DTD SVG 1.1//EN"
 "http://www.w3.org/Graphics/SVG/1.1/DTD/svg11.dtd">
<!-- Generated by graphviz version 12.2.1 (20241206.2353)
 -->
<!-- Title: loop Pages: 1 -->
<svg width="839pt" height="892pt"
 viewBox="0.00 0.00 838.50 891.56" xmlns="http://www.w3.org/2000/svg" xmlns:xlink="http://www.w3.org/1999/xlink">
<g id="graph0" class="graph" transform="scale(1 1) rotate(0) translate(4 887.56)">
<title>loop</title>
<!-- Node1 -->
<g id="Node000001" class="node">
<title>Node1</title>
<g id="a_Node000001"><a xlink:title=" ">
<polygon fill="#999999" stroke="#666666" points="37,-454.56 0,-454.56 0,-433.81 37,-433.81 37,-454.56"/>
<text text-anchor="middle" x="18.5" y="-441.06" font-family="Helvetica,sans-Serif" font-size="10.00">loop</text>
</a>
</g>
</g>
<!-- Node2 -->
<g id="Node000002" class="node">
<title>Node2</title>
<g id="a_Node000002"><a xlink:href="../../d2/db2/classfl_1_1_pacifica.html#a264d0c1db5db60028b6fab87af13d700" target="_top" xlink:title=" ">
<polygon fill="white" stroke="#666666" points="167.75,-653.56 73,-653.56 73,-632.81 167.75,-632.81 167.75,-653.56"/>
<text text-anchor="middle" x="120.38" y="-640.06" font-family="Helvetica,sans-Serif" font-size="10.00">fl::Pacifica::draw</text>
</a>
</g>
</g>
<!-- Node1&#45;&gt;Node2 -->
<g id="edge1_Node000001_Node000002" class="edge">
<title>Node1&#45;&gt;Node2</title>
<g id="a_edge1_Node000001_Node000002"><a xlink:title=" ">
<path fill="none" stroke="#63b8ff" d="M24.87,-454.88C40.75,-486.53 87.73,-580.12 108.86,-622.24"/>
<polygon fill="#63b8ff" stroke="#63b8ff" points="105.69,-623.71 113.3,-631.08 111.94,-620.57 105.69,-623.71"/>
</a>
</g>
</g>
<!-- Node25 -->
<g id="Node000025" class="node">
<title>Node25</title>
<g id="a_Node000025"><a xlink:href="../../dd/dbb/class_c_fast_l_e_d.html#a83afdd1e2a21f33ac4f8d2610d6e331b" target="_top" xlink:title="Update all our controllers with the current led colors, using the passed in brightness.">
<polygon fill="white" stroke="#666666" points="166.62,-267.56 74.12,-267.56 74.12,-246.81 166.62,-246.81 166.62,-267.56"/>
<text text-anchor="middle" x="120.38" y="-254.06" font-family="Helvetica,sans-Serif" font-size="10.00">CFastLED::show</text>
</a>
</g>
</g>
<!-- Node1&#45;&gt;Node25 -->
<g id="edge26_Node000001_Node000025" class="edge">
<title>Node1&#45;&gt;Node25</title>
<g id="a_edge26_Node000001_Node000025"><a xlink:title=" ">
<path fill="none" stroke="#63b8ff" d="M25.3,-433.32C41.48,-403.03 87.28,-317.27 108.43,-277.68"/>
<polygon fill="#63b8ff" stroke="#63b8ff" points="111.47,-279.42 113.09,-268.95 105.29,-276.12 111.47,-279.42"/>
</a>
</g>
</g>
<!-- Node3 -->
<g id="Node000003" class="node">
<title>Node3</title>
<g id="a_Node000003"><a xlink:href="../../d6/d6c/group___beat_generators.html#gade6acbf6fd3c9d346148bccfcafb2fe2" target="_top" xlink:title="Generates a 16&#45;bit &quot;sawtooth&quot; wave at a given BPM.">
<polygon fill="white" stroke="#666666" points="744.75,-615.56 695,-615.56 695,-594.81 744.75,-594.81 744.75,-615.56"/>
<text text-anchor="middle" x="719.88" y="-602.06" font-family="Helvetica,sans-Serif" font-size="10.00">beat16</text>
</a>
</g>
</g>
<!-- Node2&#45;&gt;Node3 -->
<g id="edge2_Node000002_Node000003" class="edge">
<title>Node2&#45;&gt;Node3</title>
<g id="a_edge2_Node000002_Node000003"><a xlink:title=" ">
<path fill="none" stroke="#63b8ff" d="M168.21,-642.61C250.67,-641.3 427.12,-637.09 575.5,-624.18 612.44,-620.97 654.46,-615.14 683.42,-610.79"/>
<polygon fill="#63b8ff" stroke="#63b8ff" points="683.74,-614.28 693.1,-609.31 682.68,-607.36 683.74,-614.28"/>
</a>
</g>
</g>
<!-- Node5 -->
<g id="Node000005" class="node">
<title>Node5</title>
<g id="a_Node000005"><a xlink:href="../../d6/d6c/group___beat_generators.html#gaa46e5de1c4c27833359e7a97a18c839b" target="_top" xlink:title="Generates a 16&#45;bit sine wave at a given BPM that oscillates within a given range.">
<polygon fill="white" stroke="#666666" points="325.12,-563.56 261.12,-563.56 261.12,-542.81 325.12,-542.81 325.12,-563.56"/>
<text text-anchor="middle" x="293.12" y="-550.06" font-family="Helvetica,sans-Serif" font-size="10.00">beatsin16</text>
</a>
</g>
</g>
<!-- Node2&#45;&gt;Node5 -->
<g id="edge4_Node000002_Node000005" class="edge">
<title>Node2&#45;&gt;Node5</title>
<g id="a_edge4_Node000002_Node000005"><a xlink:title=" ">
<path fill="none" stroke="#63b8ff" d="M130.56,-632.39C144.64,-616.59 173.15,-587.4 203.75,-572.18 217.97,-565.11 234.76,-560.66 249.86,-557.87"/>
<polygon fill="#63b8ff" stroke="#63b8ff" points="250.22,-561.35 259.52,-556.28 249.08,-554.45 250.22,-561.35"/>
</a>
</g>
</g>
<!-- Node7 -->
<g id="Node000007" class="node">
<title>Node7</title>
<g id="a_Node000007"><a xlink:href="../../d6/d6c/group___beat_generators.html#gaecd7cbfc2640407cabf75afcc7d9ddf4" target="_top" xlink:title="Generates an 8&#45;bit sine wave at a given BPM that oscillates within a given range.">
<polygon fill="white" stroke="#666666" points="526,-691.56 468,-691.56 468,-670.81 526,-670.81 526,-691.56"/>
<text text-anchor="middle" x="497" y="-678.06" font-family="Helvetica,sans-Serif" font-size="10.00">beatsin8</text>
</a>
</g>
</g>
<!-- Node2&#45;&gt;Node7 -->
<g id="edge7_Node000002_Node000007" class="edge">
<title>Node2&#45;&gt;Node7</title>
<g id="a_edge7_Node000002_Node000007"><a xlink:title=" ">
<path fill="none" stroke="#63b8ff" d="M167.88,-651.81C179.56,-653.78 192.09,-655.72 203.75,-657.18 293.82,-668.52 400.21,-675.71 456.48,-679.03"/>
<polygon fill="#63b8ff" stroke="#63b8ff" points="456.01,-682.5 466.19,-679.59 456.41,-675.52 456.01,-682.5"/>
</a>
</g>
</g>
<!-- Node10 -->
<g id="Node000010" class="node">
<title>Node10</title>
<g id="a_Node000010"><a xlink:href="../../d6/d6c/group___beat_generators.html#gaf917825ff26c8e1174c5b674a2f3c631" target="_top" xlink:title="Generates a 16&#45;bit sine wave at a given BPM that oscillates within a given range.">
<polygon fill="white" stroke="#666666" points="325.12,-524.56 261.12,-524.56 261.12,-503.81 325.12,-503.81 325.12,-524.56"/>
<text text-anchor="middle" x="293.12" y="-511.06" font-family="Helvetica,sans-Serif" font-size="10.00">beatsin88</text>
</a>
</g>
</g>
<!-- Node2&#45;&gt;Node10 -->
<g id="edge11_Node000002_Node000010" class="edge">
<title>Node2&#45;&gt;Node10</title>
<g id="a_edge11_Node000002_Node000010"><a xlink:title=" ">
<path fill="none" stroke="#63b8ff" d="M126.23,-632.52C136.87,-610.41 164.49,-559.52 203.75,-534.18 217.23,-525.48 234,-520.54 249.3,-517.74"/>
<polygon fill="#63b8ff" stroke="#63b8ff" points="249.78,-521.21 259.13,-516.23 248.71,-514.29 249.78,-521.21"/>
</a>
</g>
</g>
<!-- Node11 -->
<g id="Node000011" class="node">
<title>Node11</title>
<g id="a_Node000011"><a xlink:href="../../da/de3/group___color_fills.html#gac0bcd5712f9f57a186f2c5f96911af1d" target="_top" xlink:title="Fill a range of LEDs with a solid color.">
<polygon fill="white" stroke="#666666" points="321.38,-805.56 264.88,-805.56 264.88,-784.81 321.38,-784.81 321.38,-805.56"/>
<text text-anchor="middle" x="293.12" y="-792.06" font-family="Helvetica,sans-Serif" font-size="10.00">fill_solid</text>
</a>
</g>
</g>
<!-- Node2&#45;&gt;Node11 -->
<g id="edge14_Node000002_Node000011" class="edge">
<title>Node2&#45;&gt;Node11</title>
<g id="a_edge14_Node000002_Node000011"><a xlink:title=" ">
<path fill="none" stroke="#63b8ff" d="M125.21,-654.03C134.55,-678.79 160.89,-739.8 203.75,-771.18 218.13,-781.72 236.87,-787.63 253.39,-790.94"/>
<polygon fill="#63b8ff" stroke="#63b8ff" points="252.45,-794.33 262.9,-792.59 253.64,-787.44 252.45,-794.33"/>
</a>
</g>
</g>
<!-- Node12 -->
<g id="Node000012" class="node">
<title>Node12</title>
<g id="a_Node000012"><a xlink:href="../../dc/d25/_pacifica_8ino.html#a638fb6ae6610fed66077161e7e044f26" target="_top" xlink:title=" ">
<polygon fill="white" stroke="#666666" points="358.88,-729.56 227.38,-729.56 227.38,-708.81 358.88,-708.81 358.88,-729.56"/>
<text text-anchor="middle" x="293.12" y="-716.06" font-family="Helvetica,sans-Serif" font-size="10.00">pacifica_add_whitecaps</text>
</a>
</g>
</g>
<!-- Node2&#45;&gt;Node12 -->
<g id="edge15_Node000002_Node000012" class="edge">
<title>Node2&#45;&gt;Node12</title>
<g id="a_edge15_Node000002_Node000012"><a xlink:title=" ">
<path fill="none" stroke="#63b8ff" d="M135.52,-653.97C151.37,-665.6 178.2,-683.96 203.75,-695.18 212.43,-699 221.87,-702.34 231.23,-705.22"/>
<polygon fill="#63b8ff" stroke="#63b8ff" points="230.11,-708.54 240.69,-707.97 232.07,-701.82 230.11,-708.54"/>
</a>
</g>
</g>
<!-- Node17 -->
<g id="Node000017" class="node">
<title>Node17</title>
<g id="a_Node000017"><a xlink:href="../../dc/d25/_pacifica_8ino.html#a4c00a661fc55f1df61fc874119c746df" target="_top" xlink:title=" ">
<polygon fill="white" stroke="#666666" points="561.62,-883.56 432.38,-883.56 432.38,-862.81 561.62,-862.81 561.62,-883.56"/>
<text text-anchor="middle" x="497" y="-870.06" font-family="Helvetica,sans-Serif" font-size="10.00">pacifica_deepen_colors</text>
</a>
</g>
</g>
<!-- Node2&#45;&gt;Node17 -->
<g id="edge21_Node000002_Node000017" class="edge">
<title>Node2&#45;&gt;Node17</title>
<g id="a_edge21_Node000002_Node000017"><a xlink:title=" ">
<path fill="none" stroke="#63b8ff" d="M127.48,-654.04C139.36,-674.1 167.65,-716.89 203.75,-738.18 273.71,-779.45 318.91,-725.66 382.5,-776.18 412.08,-799.69 389.44,-829.05 418.5,-853.18 420.18,-854.58 421.95,-855.88 423.79,-857.1"/>
<polygon fill="#63b8ff" stroke="#63b8ff" points="421.71,-859.95 432.16,-861.71 425.09,-853.82 421.71,-859.95"/>
</a>
</g>
</g>
<!-- Node18 -->
<g id="Node000018" class="node">
<title>Node18</title>
<g id="a_Node000018"><a xlink:href="../../d2/db2/classfl_1_1_pacifica.html#ac949d5e9a88b724a060954658b892ebc" target="_top" xlink:title=" ">
<polygon fill="white" stroke="#666666" points="347.25,-614.93 239,-614.93 239,-581.43 347.25,-581.43 347.25,-614.93"/>
<text text-anchor="start" x="247" y="-601.43" font-family="Helvetica,sans-Serif" font-size="10.00">fl::Pacifica::pacifica</text>
<text text-anchor="middle" x="293.12" y="-588.68" font-family="Helvetica,sans-Serif" font-size="10.00">_one_layer</text>
</a>
</g>
</g>
<!-- Node2&#45;&gt;Node18 -->
<g id="edge23_Node000002_Node000018" class="edge">
<title>Node2&#45;&gt;Node18</title>
<g id="a_edge23_Node000002_Node000018"><a xlink:title=" ">
<path fill="none" stroke="#63b8ff" d="M162.27,-632.41C181.86,-627.25 205.77,-620.94 227.71,-615.16"/>
<polygon fill="#63b8ff" stroke="#63b8ff" points="228.39,-618.6 237.17,-612.67 226.61,-611.83 228.39,-618.6"/>
</a>
</g>
</g>
<!-- Node4 -->
<g id="Node000004" class="node">
<title>Node4</title>
<g id="a_Node000004"><a xlink:href="../../d6/d6c/group___beat_generators.html#ga1b48fc520db5f40910caf79974992395" target="_top" xlink:title="Generates a 16&#45;bit &quot;sawtooth&quot; wave at a given BPM, with BPM specified in Q8.8 fixed&#45;point format.">
<polygon fill="white" stroke="#666666" points="830.5,-539.56 780.75,-539.56 780.75,-518.81 830.5,-518.81 830.5,-539.56"/>
<text text-anchor="middle" x="805.62" y="-526.06" font-family="Helvetica,sans-Serif" font-size="10.00">beat88</text>
</a>
</g>
</g>
<!-- Node3&#45;&gt;Node4 -->
<g id="edge3_Node000003_Node000004" class="edge">
<title>Node3&#45;&gt;Node4</title>
<g id="a_edge3_Node000003_Node000004"><a xlink:title=" ">
<path fill="none" stroke="#63b8ff" d="M732.52,-594.62C745.94,-582.43 768.25,-562.2 784.5,-547.45"/>
<polygon fill="#63b8ff" stroke="#63b8ff" points="786.63,-550.24 791.69,-540.92 781.93,-545.05 786.63,-550.24"/>
</a>
</g>
</g>
<!-- Node5&#45;&gt;Node3 -->
<g id="edge5_Node000005_Node000003" class="edge">
<title>Node5&#45;&gt;Node3</title>
<g id="a_edge5_Node000005_Node000003"><a xlink:title=" ">
<path fill="none" stroke="#63b8ff" d="M325.37,-556.69C377.32,-562.56 484.72,-574.85 575.5,-586.18 612.29,-590.78 654.34,-596.39 683.34,-600.32"/>
<polygon fill="#63b8ff" stroke="#63b8ff" points="682.66,-603.76 693.04,-601.64 683.6,-596.83 682.66,-603.76"/>
</a>
</g>
</g>
<!-- Node6 -->
<g id="Node000006" class="node">
<title>Node6</title>
<g id="a_Node000006"><a xlink:href="../../d0/da8/group___scaling.html#ga1ff8ac00ad78e22acc7bb7445bfdb145" target="_top" xlink:title="Scale a 16&#45;bit unsigned value by an 16&#45;bit value, which is treated as the numerator of a fraction who...">
<polygon fill="white" stroke="#666666" points="523.75,-539.56 470.25,-539.56 470.25,-518.81 523.75,-518.81 523.75,-539.56"/>
<text text-anchor="middle" x="497" y="-526.06" font-family="Helvetica,sans-Serif" font-size="10.00">scale16</text>
</a>
</g>
</g>
<!-- Node5&#45;&gt;Node6 -->
<g id="edge6_Node000005_Node000006" class="edge">
<title>Node5&#45;&gt;Node6</title>
<g id="a_edge6_Node000005_Node000006"><a xlink:title=" ">
<path fill="none" stroke="#63b8ff" d="M325.23,-549.49C361.21,-545.21 420.42,-538.17 458.81,-533.61"/>
<polygon fill="#63b8ff" stroke="#63b8ff" points="458.98,-537.11 468.5,-532.45 458.16,-530.16 458.98,-537.11"/>
</a>
</g>
</g>
<!-- Node8 -->
<g id="Node000008" class="node">
<title>Node8</title>
<g id="a_Node000008"><a xlink:href="../../d6/d6c/group___beat_generators.html#ga12014943214a72eec31433d9682d4ebe" target="_top" xlink:title="Generates an 8&#45;bit &quot;sawtooth&quot; wave at a given BPM.">
<polygon fill="white" stroke="#666666" points="657.12,-691.56 613.38,-691.56 613.38,-670.81 657.12,-670.81 657.12,-691.56"/>
<text text-anchor="middle" x="635.25" y="-678.06" font-family="Helvetica,sans-Serif" font-size="10.00">beat8</text>
</a>
</g>
</g>
<!-- Node7&#45;&gt;Node8 -->
<g id="edge8_Node000007_Node000008" class="edge">
<title>Node7&#45;&gt;Node8</title>
<g id="a_edge8_Node000007_Node000008"><a xlink:title=" ">
<path fill="none" stroke="#63b8ff" d="M526.23,-681.18C548.27,-681.18 578.9,-681.18 601.92,-681.18"/>
<polygon fill="#63b8ff" stroke="#63b8ff" points="601.67,-684.68 611.67,-681.18 601.67,-677.68 601.67,-684.68"/>
</a>
</g>
</g>
<!-- Node9 -->
<g id="Node000009" class="node">
<title>Node9</title>
<g id="a_Node000009"><a xlink:href="../../d0/da8/group___scaling.html#gad7535ccda9c92470c4e6ee0265585555" target="_top" xlink:title="Scale one byte by a second one, which is treated as the numerator of a fraction whose denominator is ...">
<polygon fill="white" stroke="#666666" points="659,-767.56 611.5,-767.56 611.5,-746.81 659,-746.81 659,-767.56"/>
<text text-anchor="middle" x="635.25" y="-754.06" font-family="Helvetica,sans-Serif" font-size="10.00">scale8</text>
</a>
</g>
</g>
<!-- Node7&#45;&gt;Node9 -->
<g id="edge10_Node000007_Node000009" class="edge">
<title>Node7&#45;&gt;Node9</title>
<g id="a_edge10_Node000007_Node000009"><a xlink:title=" ">
<path fill="none" stroke="#63b8ff" d="M517.23,-691.91C540.16,-704.7 578.69,-726.2 605.24,-741"/>
<polygon fill="#63b8ff" stroke="#63b8ff" points="603.36,-743.96 613.79,-745.77 606.77,-737.85 603.36,-743.96"/>
</a>
</g>
</g>
<!-- Node8&#45;&gt;Node3 -->
<g id="edge9_Node000008_Node000003" class="edge">
<title>Node8&#45;&gt;Node3</title>
<g id="a_edge9_Node000008_Node000003"><a xlink:title=" ">
<path fill="none" stroke="#63b8ff" d="M647.74,-670.62C660.98,-658.43 682.98,-638.2 699.02,-623.45"/>
<polygon fill="#63b8ff" stroke="#63b8ff" points="701.11,-626.28 706.1,-616.93 696.37,-621.13 701.11,-626.28"/>
</a>
</g>
</g>
<!-- Node10&#45;&gt;Node4 -->
<g id="edge12_Node000010_Node000004" class="edge">
<title>Node10&#45;&gt;Node4</title>
<g id="a_edge12_Node000010_Node000004"><a xlink:title=" ">
<path fill="none" stroke="#63b8ff" d="M325.55,-512.89C350.7,-511.93 386.85,-510.69 418.5,-510.18 488.27,-509.06 505.78,-507.3 575.5,-510.18 644.14,-513.03 724.06,-520.64 769.06,-525.32"/>
<polygon fill="#63b8ff" stroke="#63b8ff" points="768.43,-528.77 778.75,-526.34 769.17,-521.81 768.43,-528.77"/>
</a>
</g>
</g>
<!-- Node10&#45;&gt;Node6 -->
<g id="edge13_Node000010_Node000006" class="edge">
<title>Node10&#45;&gt;Node6</title>
<g id="a_edge13_Node000010_Node000006"><a xlink:title=" ">
<path fill="none" stroke="#63b8ff" d="M325.23,-516.5C361.21,-519.17 420.42,-523.57 458.81,-526.42"/>
<polygon fill="#63b8ff" stroke="#63b8ff" points="458.26,-529.89 468.49,-527.14 458.78,-522.91 458.26,-529.89"/>
</a>
</g>
</g>
<!-- Node12&#45;&gt;Node7 -->
<g id="edge17_Node000012_Node000007" class="edge">
<title>Node12&#45;&gt;Node7</title>
<g id="a_edge17_Node000012_Node000007"><a xlink:title=" ">
<path fill="none" stroke="#63b8ff" d="M351.7,-708.35C385.24,-702.03 426.67,-694.24 456.52,-688.62"/>
<polygon fill="#63b8ff" stroke="#63b8ff" points="457.08,-692.07 466.26,-686.78 455.79,-685.19 457.08,-692.07"/>
</a>
</g>
</g>
<!-- Node12&#45;&gt;Node8 -->
<g id="edge16_Node000012_Node000008" class="edge">
<title>Node12&#45;&gt;Node8</title>
<g id="a_edge16_Node000012_Node000008"><a xlink:title=" ">
<path fill="none" stroke="#63b8ff" d="M359.24,-719.29C416.65,-718.32 502.3,-714.27 575.5,-700.18 584.36,-698.48 593.74,-695.84 602.34,-693.07"/>
<polygon fill="#63b8ff" stroke="#63b8ff" points="603.32,-696.44 611.66,-689.91 601.07,-689.81 603.32,-696.44"/>
</a>
</g>
</g>
<!-- Node12&#45;&gt;Node9 -->
<g id="edge20_Node000012_Node000009" class="edge">
<title>Node12&#45;&gt;Node9</title>
<g id="a_edge20_Node000012_Node000009"><a xlink:title=" ">
<path fill="none" stroke="#63b8ff" d="M359.3,-726.47C431.01,-734.48 543.52,-747.05 599.79,-753.33"/>
<polygon fill="#63b8ff" stroke="#63b8ff" points="599.4,-756.81 609.73,-754.44 600.18,-749.86 599.4,-756.81"/>
</a>
</g>
</g>
<!-- Node13 -->
<g id="Node000013" class="node">
<title>Node13</title>
<g id="a_Node000013"><a xlink:href="../../db/d87/group___pixel_types.html#a940908cc69606bdabe3b2d32a9097356" target="_top" xlink:title="Get the average of the R, G, and B values.">
<polygon fill="#fff0f0" stroke="red" points="561.62,-844.56 432.38,-844.56 432.38,-823.81 561.62,-823.81 561.62,-844.56"/>
<text text-anchor="middle" x="497" y="-831.06" font-family="Helvetica,sans-Serif" font-size="10.00">CRGB::getAverageLight</text>
</a>
</g>
</g>
<!-- Node12&#45;&gt;Node13 -->
<g id="edge18_Node000012_Node000013" class="edge">
<title>Node12&#45;&gt;Node13</title>
<g id="a_edge18_Node000012_Node000013"><a xlink:title=" ">
<path fill="none" stroke="#63b8ff" d="M359.02,-729.95C367.48,-733.25 375.6,-737.56 382.5,-743.18 409.94,-765.52 390.92,-792.02 418.5,-814.18 420.25,-815.59 422.08,-816.89 423.98,-818.11"/>
<polygon fill="#63b8ff" stroke="#63b8ff" points="422.19,-821.12 432.66,-822.75 425.49,-814.95 422.19,-821.12"/>
</a>
</g>
</g>
<!-- Node16 -->
<g id="Node000016" class="node">
<title>Node16</title>
<g id="a_Node000016"><a xlink:href="../../d5/d98/group___math.html#ga07133b3085824d0fcd4f5086d286c4b5" target="_top" xlink:title="Add one byte to another, saturating at 0xFF.">
<polygon fill="white" stroke="#666666" points="520,-805.56 474,-805.56 474,-784.81 520,-784.81 520,-805.56"/>
<text text-anchor="middle" x="497" y="-792.06" font-family="Helvetica,sans-Serif" font-size="10.00">qadd8</text>
</a>
</g>
</g>
<!-- Node12&#45;&gt;Node16 -->
<g id="edge19_Node000012_Node000016" class="edge">
<title>Node12&#45;&gt;Node16</title>
<g id="a_edge19_Node000012_Node000016"><a xlink:title=" ">
<path fill="none" stroke="#63b8ff" d="M347.26,-729.96C359.19,-733.37 371.55,-737.72 382.5,-743.18 400.63,-752.24 400.53,-761.81 418.5,-771.18 432.4,-778.43 448.85,-783.91 463.02,-787.79"/>
<polygon fill="#63b8ff" stroke="#63b8ff" points="461.77,-791.09 472.33,-790.19 463.52,-784.31 461.77,-791.09"/>
</a>
</g>
</g>
<!-- Node17&#45;&gt;Node9 -->
<g id="edge22_Node000017_Node000009" class="edge">
<title>Node17&#45;&gt;Node9</title>
<g id="a_edge22_Node000017_Node000009"><a xlink:title=" ">
<path fill="none" stroke="#63b8ff" d="M558.91,-862.4C564.82,-859.93 570.47,-856.9 575.5,-853.18 601.06,-834.27 617.87,-800.6 626.72,-778.59"/>
<polygon fill="#63b8ff" stroke="#63b8ff" points="629.92,-780.01 630.19,-769.42 623.38,-777.53 629.92,-780.01"/>
</a>
</g>
</g>
<!-- Node18&#45;&gt;Node6 -->
<g id="edge25_Node000018_Node000006" class="edge">
<title>Node18&#45;&gt;Node6</title>
<g id="a_edge25_Node000018_Node000006"><a xlink:title=" ">
<path fill="none" stroke="#63b8ff" d="M347.61,-583.16C359.16,-579.72 371.28,-575.95 382.5,-572.18 408.47,-563.46 437.34,-552.5 459.47,-543.83"/>
<polygon fill="#63b8ff" stroke="#63b8ff" points="460.63,-547.14 468.65,-540.21 458.06,-540.63 460.63,-547.14"/>
</a>
</g>
</g>
<!-- Node19 -->
<g id="Node000019" class="node">
<title>Node19</title>
<g id="a_Node000019"><a xlink:href="../../d2/d73/group___palette_colors.html#gac46e65aff3dd6519b33e27f0998f17cd" target="_top" xlink:title="Get a color from a palette.">
<polygon fill="#fff0f0" stroke="red" points="547,-615.56 447,-615.56 447,-594.81 547,-594.81 547,-615.56"/>
<text text-anchor="middle" x="497" y="-602.06" font-family="Helvetica,sans-Serif" font-size="10.00">ColorFromPalette</text>
</a>
</g>
</g>
<!-- Node18&#45;&gt;Node19 -->
<g id="edge24_Node000018_Node000019" class="edge">
<title>Node18&#45;&gt;Node19</title>
<g id="a_edge24_Node000018_Node000019"><a xlink:title=" ">
<path fill="none" stroke="#63b8ff" d="M347.69,-600.04C374.69,-600.98 407.54,-602.12 435.46,-603.09"/>
<polygon fill="#63b8ff" stroke="#63b8ff" points="435.06,-606.57 445.17,-603.42 435.3,-599.58 435.06,-606.57"/>
</a>
</g>
</g>
<!-- Node26 -->
<g id="Node000026" class="node">
<title>Node26</title>
<g id="a_Node000026"><a xlink:href="../../d6/d2c/class_c_l_e_d_controller.html#af9962ef739bdb3b590ee66f3780765d6" target="_top" xlink:title=" ">
<polygon fill="white" stroke="#666666" points="378.75,-101.56 207.5,-101.56 207.5,-80.81 378.75,-80.81 378.75,-101.56"/>
<text text-anchor="middle" x="293.12" y="-88.06" font-family="Helvetica,sans-Serif" font-size="10.00">CLEDController::beginShowLeds</text>
</a>
</g>
</g>
<!-- Node25&#45;&gt;Node26 -->
<g id="edge27_Node000025_Node000026" class="edge">
<title>Node25&#45;&gt;Node26</title>
<g id="a_edge27_Node000025_Node000026"><a xlink:title=" ">
<path fill="none" stroke="#63b8ff" d="M124.03,-246.65C131.47,-219.35 155.26,-145.98 203.75,-110.18 205.13,-109.17 206.56,-108.2 208.02,-107.28"/>
<polygon fill="#63b8ff" stroke="#63b8ff" points="209.6,-110.4 216.8,-102.63 206.32,-104.22 209.6,-110.4"/>
</a>
</g>
</g>
<!-- Node28 -->
<g id="Node000028" class="node">
<title>Node28</title>
<g id="a_Node000028"><a xlink:href="../../d6/d2c/class_c_l_e_d_controller.html#a63f75cf7e55cf8da46db5fd27110bb3e" target="_top" xlink:title="How many LEDs does this controller manage?">
<polygon fill="white" stroke="#666666" points="554.5,-43.56 439.5,-43.56 439.5,-22.81 554.5,-22.81 554.5,-43.56"/>
<text text-anchor="middle" x="497" y="-30.06" font-family="Helvetica,sans-Serif" font-size="10.00">CLEDController::size</text>
</a>
</g>
</g>
<!-- Node25&#45;&gt;Node28 -->
<g id="edge48_Node000025_Node000028" class="edge">
<title>Node25&#45;&gt;Node28</title>
<g id="a_edge48_Node000025_Node000028"><a xlink:title=" ">
<path fill="none" stroke="#63b8ff" d="M121.4,-246.5C122.13,-209.23 130.18,-84.52 203.75,-33.18 278.37,18.88 391.87,-2 453.15,-19.18"/>
<polygon fill="#63b8ff" stroke="#63b8ff" points="451.93,-22.47 462.51,-21.9 453.88,-15.75 451.93,-22.47"/>
</a>
</g>
</g>
<!-- Node29 -->
<g id="Node000029" class="node">
<title>Node29</title>
<g id="a_Node000029"><a xlink:href="../../dd/dbb/class_c_fast_l_e_d.html#a61d27e179c9b68bde89d220aebc0de32" target="_top" xlink:title="For debugging, this will keep track of time between calls to countFPS().">
<polygon fill="white" stroke="#666666" points="349.12,-62.56 237.12,-62.56 237.12,-41.81 349.12,-41.81 349.12,-62.56"/>
<text text-anchor="middle" x="293.12" y="-49.06" font-family="Helvetica,sans-Serif" font-size="10.00">CFastLED::countFPS</text>
</a>
</g>
</g>
<!-- Node25&#45;&gt;Node29 -->
<g id="edge30_Node000025_Node000029" class="edge">
<title>Node25&#45;&gt;Node29</title>
<g id="a_edge30_Node000025_Node000029"><a xlink:title=" ">
<path fill="none" stroke="#63b8ff" d="M122.8,-246.41C127.63,-214.41 146.41,-119.25 203.75,-72.18 210.19,-66.9 217.74,-62.95 225.67,-60"/>
<polygon fill="#63b8ff" stroke="#63b8ff" points="226.71,-63.34 235.21,-57.03 224.63,-56.66 226.71,-63.34"/>
</a>
</g>
</g>
<!-- Node30 -->
<g id="Node000030" class="node">
<title>Node30</title>
<g id="a_Node000030"><a xlink:href="../../d6/d2c/class_c_l_e_d_controller.html#a49b221af013bf196c2068e2cbd1c299d" target="_top" xlink:title=" ">
<polygon fill="white" stroke="#666666" points="374.25,-191.56 212,-191.56 212,-170.81 374.25,-170.81 374.25,-191.56"/>
<text text-anchor="middle" x="293.12" y="-178.06" font-family="Helvetica,sans-Serif" font-size="10.00">CLEDController::endShowLeds</text>
</a>
</g>
</g>
<!-- Node25&#45;&gt;Node30 -->
<g id="edge31_Node000025_Node000030" class="edge">
<title>Node25&#45;&gt;Node30</title>
<g id="a_edge31_Node000025_Node000030"><a xlink:title=" ">
<path fill="none" stroke="#63b8ff" d="M135.52,-246.4C151.37,-234.77 178.2,-216.41 203.75,-205.18 212.43,-201.37 221.87,-198.03 231.23,-195.15"/>
<polygon fill="#63b8ff" stroke="#63b8ff" points="232.07,-198.55 240.69,-192.4 230.11,-191.83 232.07,-198.55"/>
</a>
</g>
</g>
<!-- Node31 -->
<g id="Node000031" class="node">
<title>Node31</title>
<g id="a_Node000031"><a xlink:href="../../d6/d2c/class_c_l_e_d_controller.html#a2a231accbeb00e6a6080a7e55274a279" target="_top" xlink:title="Set the dithering mode for this controller to use.">
<polygon fill="white" stroke="#666666" points="567.25,-203.56 426.75,-203.56 426.75,-182.81 567.25,-182.81 567.25,-203.56"/>
<text text-anchor="middle" x="497" y="-190.06" font-family="Helvetica,sans-Serif" font-size="10.00">CLEDController::setDither</text>
</a>
</g>
</g>
<!-- Node25&#45;&gt;Node31 -->
<g id="edge45_Node000025_Node000031" class="edge">
<title>Node25&#45;&gt;Node31</title>
<g id="a_edge45_Node000025_Node000031"><a xlink:title=" ">
<path fill="none" stroke="#63b8ff" d="M165.71,-246.33C177.99,-243.49 191.35,-240.57 203.75,-238.18 274.91,-224.52 356.45,-212.24 415.28,-203.98"/>
<polygon fill="#63b8ff" stroke="#63b8ff" points="415.45,-207.49 424.87,-202.64 414.48,-200.56 415.45,-207.49"/>
</a>
</g>
</g>
<!-- Node32 -->
<g id="Node000032" class="node">
<title>Node32</title>
<g id="a_Node000032"><a xlink:href="../../d6/d2c/class_c_l_e_d_controller.html#a6bd253f670640ea4d1bd0d71b8029f2a" target="_top" xlink:title=" ">
<polygon fill="white" stroke="#666666" points="368.25,-423.56 218,-423.56 218,-402.81 368.25,-402.81 368.25,-423.56"/>
<text text-anchor="middle" x="293.12" y="-410.06" font-family="Helvetica,sans-Serif" font-size="10.00">CLEDController::getEnabled</text>
</a>
</g>
</g>
<!-- Node25&#45;&gt;Node32 -->
<g id="edge33_Node000025_Node000032" class="edge">
<title>Node25&#45;&gt;Node32</title>
<g id="a_edge33_Node000025_Node000032"><a xlink:title=" ">
<path fill="none" stroke="#63b8ff" d="M124.66,-268.05C133.13,-294.1 158.29,-360.43 203.75,-393.18 205.82,-394.68 207.99,-396.06 210.23,-397.35"/>
<polygon fill="#63b8ff" stroke="#63b8ff" points="208.57,-400.43 219.09,-401.69 211.65,-394.15 208.57,-400.43"/>
</a>
</g>
</g>
<!-- Node33 -->
<g id="Node000033" class="node">
<title>Node33</title>
<g id="a_Node000033"><a xlink:href="../../d6/d2c/class_c_l_e_d_controller.html#a8b412ff1fd4833d0db63a175d40a2ee0" target="_top" xlink:title="Get the first LED controller in the linked list of controllers.">
<polygon fill="white" stroke="#666666" points="352.88,-384.56 233.38,-384.56 233.38,-363.81 352.88,-363.81 352.88,-384.56"/>
<text text-anchor="middle" x="293.12" y="-371.06" font-family="Helvetica,sans-Serif" font-size="10.00">CLEDController::head</text>
</a>
</g>
</g>
<!-- Node25&#45;&gt;Node33 -->
<g id="edge34_Node000025_Node000033" class="edge">
<title>Node25&#45;&gt;Node33</title>
<g id="a_edge34_Node000025_Node000033"><a xlink:title=" ">
<path fill="none" stroke="#63b8ff" d="M127.26,-267.9C138.98,-288.18 167.28,-332.09 203.75,-354.18 209.44,-357.63 215.66,-360.48 222.08,-362.85"/>
<polygon fill="#63b8ff" stroke="#63b8ff" points="220.99,-366.17 231.58,-365.91 223.14,-359.51 220.99,-366.17"/>
</a>
</g>
</g>
<!-- Node34 -->
<g id="Node000034" class="node">
<title>Node34</title>
<g id="a_Node000034"><a xlink:href="../../d6/d2c/class_c_l_e_d_controller.html#a21a4d2b3415dd7b24175ebdb51c9ced0" target="_top" xlink:title="Get the next controller in the linked list after this one.">
<polygon fill="white" stroke="#666666" points="351.75,-345.56 234.5,-345.56 234.5,-324.81 351.75,-324.81 351.75,-345.56"/>
<text text-anchor="middle" x="293.12" y="-332.06" font-family="Helvetica,sans-Serif" font-size="10.00">CLEDController::next</text>
</a>
</g>
</g>
<!-- Node25&#45;&gt;Node34 -->
<g id="edge35_Node000025_Node000034" class="edge">
<title>Node25&#45;&gt;Node34</title>
<g id="a_edge35_Node000025_Node000034"><a xlink:title=" ">
<path fill="none" stroke="#63b8ff" d="M133.28,-267.88C148.52,-280.99 176.26,-302.97 203.75,-315.18 209.98,-317.95 216.63,-320.35 223.38,-322.44"/>
<polygon fill="#63b8ff" stroke="#63b8ff" points="221.99,-325.68 232.57,-325.04 223.9,-318.95 221.99,-325.68"/>
</a>
</g>
</g>
<!-- Node35 -->
<g id="Node000035" class="node">
<title>Node35</title>
<g id="a_Node000035"><a xlink:href="../../de/dca/classfl_1_1_engine_events.html#a7147debfba714b8ab0925af1a7c935c0" target="_top" xlink:title=" ">
<polygon fill="white" stroke="#666666" points="363,-474.93 223.25,-474.93 223.25,-441.43 363,-441.43 363,-474.93"/>
<text text-anchor="start" x="231.25" y="-461.43" font-family="Helvetica,sans-Serif" font-size="10.00">fl::EngineEvents::onBegin</text>
<text text-anchor="middle" x="293.12" y="-448.68" font-family="Helvetica,sans-Serif" font-size="10.00">Frame</text>
</a>
</g>
</g>
<!-- Node25&#45;&gt;Node35 -->
<g id="edge36_Node000025_Node000035" class="edge">
<title>Node25&#45;&gt;Node35</title>
<g id="a_edge36_Node000025_Node000035"><a xlink:title=" ">
<path fill="none" stroke="#63b8ff" d="M123.21,-267.66C129.08,-297.94 150.2,-386.3 203.75,-432.18 206.6,-434.63 209.68,-436.85 212.91,-438.85"/>
<polygon fill="#63b8ff" stroke="#63b8ff" points="211.21,-441.91 221.67,-443.56 214.52,-435.74 211.21,-441.91"/>
</a>
</g>
</g>
<!-- Node39 -->
<g id="Node000039" class="node">
<title>Node39</title>
<g id="a_Node000039"><a xlink:href="../../de/dca/classfl_1_1_engine_events.html#ab7d24c4783214392de84947cd7df5570" target="_top" xlink:title=" ">
<polygon fill="white" stroke="#666666" points="373.5,-306.56 212.75,-306.56 212.75,-285.81 373.5,-285.81 373.5,-306.56"/>
<text text-anchor="middle" x="293.12" y="-293.06" font-family="Helvetica,sans-Serif" font-size="10.00">fl::EngineEvents::onEndFrame</text>
</a>
</g>
</g>
<!-- Node25&#45;&gt;Node39 -->
<g id="edge39_Node000025_Node000039" class="edge">
<title>Node25&#45;&gt;Node39</title>
<g id="a_edge39_Node000025_Node000039"><a xlink:title=" ">
<path fill="none" stroke="#63b8ff" d="M167.12,-267.77C179.04,-270.52 191.87,-273.47 203.75,-276.18 213.12,-278.33 223.05,-280.58 232.74,-282.78"/>
<polygon fill="#63b8ff" stroke="#63b8ff" points="231.95,-286.19 242.48,-284.99 233.5,-279.36 231.95,-286.19"/>
</a>
</g>
</g>
<!-- Node41 -->
<g id="Node000041" class="node">
<title>Node41</title>
<g id="a_Node000041"><a xlink:href="../../de/dca/classfl_1_1_engine_events.html#af1bb9a46fdc6694a1b5c87a49c516ae8" target="_top" xlink:title=" ">
<polygon fill="white" stroke="#666666" points="382.5,-267.56 203.75,-267.56 203.75,-246.81 382.5,-246.81 382.5,-267.56"/>
<text text-anchor="middle" x="293.12" y="-254.06" font-family="Helvetica,sans-Serif" font-size="10.00">fl::EngineEvents::onEndShowLeds</text>
</a>
</g>
</g>
<!-- Node25&#45;&gt;Node41 -->
<g id="edge42_Node000025_Node000041" class="edge">
<title>Node25&#45;&gt;Node41</title>
<g id="a_edge42_Node000025_Node000041"><a xlink:title=" ">
<path fill="none" stroke="#63b8ff" d="M166.68,-257.18C174.67,-257.18 183.27,-257.18 192.08,-257.18"/>
<polygon fill="#63b8ff" stroke="#63b8ff" points="191.81,-260.68 201.81,-257.18 191.81,-253.68 191.81,-260.68"/>
</a>
</g>
</g>
<!-- Node43 -->
<g id="Node000043" class="node">
<title>Node43</title>
<g id="a_Node000043"><a xlink:href="../../d6/d2c/class_c_l_e_d_controller.html#ac5355e980ac13d9ae97561f183f73990" target="_top" xlink:title="Write the data to the LEDs managed by this controller.">
<polygon fill="white" stroke="#666666" points="364.88,-152.93 221.38,-152.93 221.38,-119.43 364.88,-119.43 364.88,-152.93"/>
<text text-anchor="start" x="229.38" y="-139.43" font-family="Helvetica,sans-Serif" font-size="10.00">CLEDController::showLeds</text>
<text text-anchor="middle" x="293.12" y="-126.68" font-family="Helvetica,sans-Serif" font-size="10.00">Internal</text>
</a>
</g>
</g>
<!-- Node25&#45;&gt;Node43 -->
<g id="edge46_Node000025_Node000043" class="edge">
<title>Node25&#45;&gt;Node43</title>
<g id="a_edge46_Node000025_Node000043"><a xlink:title=" ">
<path fill="none" stroke="#63b8ff" d="M127.64,-246.59C139.79,-226.95 168.49,-184.85 203.75,-162.18 206.02,-160.73 208.38,-159.35 210.79,-158.04"/>
<polygon fill="#63b8ff" stroke="#63b8ff" points="212.2,-161.25 219.68,-153.75 209.15,-154.95 212.2,-161.25"/>
</a>
</g>
</g>
<!-- Node27 -->
<g id="Node000027" class="node">
<title>Node27</title>
<g id="a_Node000027"><a xlink:href="../../d6/d2c/class_c_l_e_d_controller.html#a676f705adf93898739a405b85150a3e7" target="_top" xlink:title="Get the dithering option currently set for this controller.">
<polygon fill="white" stroke="#666666" points="567.62,-101.56 426.38,-101.56 426.38,-80.81 567.62,-80.81 567.62,-101.56"/>
<text text-anchor="middle" x="497" y="-88.06" font-family="Helvetica,sans-Serif" font-size="10.00">CLEDController::getDither</text>
</a>
</g>
</g>
<!-- Node26&#45;&gt;Node27 -->
<g id="edge28_Node000026_Node000027" class="edge">
<title>Node26&#45;&gt;Node27</title>
<g id="a_edge28_Node000026_Node000027"><a xlink:title=" ">
<path fill="none" stroke="#63b8ff" d="M379.15,-91.18C390.87,-91.18 402.88,-91.18 414.54,-91.18"/>
<polygon fill="#63b8ff" stroke="#63b8ff" points="414.53,-94.68 424.53,-91.18 414.53,-87.68 414.53,-94.68"/>
</a>
</g>
</g>
<!-- Node26&#45;&gt;Node28 -->
<g id="edge29_Node000026_Node000028" class="edge">
<title>Node26&#45;&gt;Node28</title>
<g id="a_edge29_Node000026_Node000028"><a xlink:title=" ">
<path fill="none" stroke="#63b8ff" d="M346.21,-80.31C358.19,-77.56 370.84,-74.45 382.5,-71.18 407.04,-64.32 434.11,-55.31 455.66,-47.79"/>
<polygon fill="#63b8ff" stroke="#63b8ff" points="456.69,-51.14 464.95,-44.51 454.36,-44.54 456.69,-51.14"/>
</a>
</g>
</g>
<!-- Node30&#45;&gt;Node31 -->
<g id="edge32_Node000030_Node000031" class="edge">
<title>Node30&#45;&gt;Node31</title>
<g id="a_edge32_Node000030_Node000031"><a xlink:title=" ">
<path fill="none" stroke="#63b8ff" d="M374.49,-185.96C387.89,-186.76 401.8,-187.59 415.21,-188.38"/>
<polygon fill="#63b8ff" stroke="#63b8ff" points="414.64,-191.85 424.83,-188.95 415.05,-184.87 414.64,-191.85"/>
</a>
</g>
</g>
<!-- Node36 -->
<g id="Node000036" class="node">
<title>Node36</title>
<g id="a_Node000036"><a xlink:href="../../de/dca/classfl_1_1_engine_events.html#a9dfab83407c4cb0c15065e242d49de62" target="_top" xlink:title=" ">
<polygon fill="white" stroke="#666666" points="547,-462.93 447,-462.93 447,-429.43 547,-429.43 547,-462.93"/>
<text text-anchor="start" x="455" y="-449.43" font-family="Helvetica,sans-Serif" font-size="10.00">fl::EngineEvents::</text>
<text text-anchor="middle" x="497" y="-436.68" font-family="Helvetica,sans-Serif" font-size="10.00">_onBeginFrame</text>
</a>
</g>
</g>
<!-- Node35&#45;&gt;Node36 -->
<g id="edge37_Node000035_Node000036" class="edge">
<title>Node35&#45;&gt;Node36</title>
<g id="a_edge37_Node000035_Node000036"><a xlink:title=" ">
<path fill="none" stroke="#63b8ff" d="M363.32,-454.07C386.75,-452.68 412.73,-451.13 435.44,-449.78"/>
<polygon fill="#63b8ff" stroke="#63b8ff" points="435.35,-453.3 445.13,-449.21 434.94,-446.31 435.35,-453.3"/>
</a>
</g>
</g>
<!-- Node37 -->
<g id="Node000037" class="node">
<title>Node37</title>
<g id="a_Node000037"><a xlink:href="../../de/dca/classfl_1_1_engine_events.html#a34a4625c4fbcf754f70820bc4f0e418b" target="_top" xlink:title=" ">
<polygon fill="#fff0f0" stroke="red" points="575.5,-306.56 418.5,-306.56 418.5,-285.81 575.5,-285.81 575.5,-306.56"/>
<text text-anchor="middle" x="497" y="-293.06" font-family="Helvetica,sans-Serif" font-size="10.00">fl::EngineEvents::getInstance</text>
</a>
</g>
</g>
<!-- Node35&#45;&gt;Node37 -->
<g id="edge38_Node000035_Node000037" class="edge">
<title>Node35&#45;&gt;Node37</title>
<g id="a_edge38_Node000035_Node000037"><a xlink:title=" ">
<path fill="none" stroke="#63b8ff" d="M363.09,-445.48C370.25,-442.04 376.92,-437.69 382.5,-432.18 421.21,-393.95 378.93,-352.52 418.5,-315.18 419.14,-314.58 419.8,-313.99 420.47,-313.42"/>
<polygon fill="#63b8ff" stroke="#63b8ff" points="422.41,-316.34 428.71,-307.83 418.48,-310.55 422.41,-316.34"/>
</a>
</g>
</g>
<!-- Node39&#45;&gt;Node37 -->
<g id="edge41_Node000039_Node000037" class="edge">
<title>Node39&#45;&gt;Node37</title>
<g id="a_edge41_Node000039_Node000037"><a xlink:title=" ">
<path fill="none" stroke="#63b8ff" d="M373.91,-296.18C384.71,-296.18 395.84,-296.18 406.79,-296.18"/>
<polygon fill="#63b8ff" stroke="#63b8ff" points="406.6,-299.68 416.6,-296.18 406.6,-292.68 406.6,-299.68"/>
</a>
</g>
</g>
<!-- Node40 -->
<g id="Node000040" class="node">
<title>Node40</title>
<g id="a_Node000040"><a xlink:href="../../de/dca/classfl_1_1_engine_events.html#a643d9a8597b79d76daed94c29845e886" target="_top" xlink:title=" ">
<polygon fill="white" stroke="#666666" points="547,-357.93 447,-357.93 447,-324.43 547,-324.43 547,-357.93"/>
<text text-anchor="start" x="455" y="-344.43" font-family="Helvetica,sans-Serif" font-size="10.00">fl::EngineEvents::</text>
<text text-anchor="middle" x="497" y="-331.68" font-family="Helvetica,sans-Serif" font-size="10.00">_onEndFrame</text>
</a>
</g>
</g>
<!-- Node39&#45;&gt;Node40 -->
<g id="edge40_Node000039_Node000040" class="edge">
<title>Node39&#45;&gt;Node40</title>
<g id="a_edge40_Node000039_Node000040"><a xlink:title=" ">
<path fill="none" stroke="#63b8ff" d="M342.74,-307.02C370.67,-313.25 405.99,-321.12 435.68,-327.74"/>
<polygon fill="#63b8ff" stroke="#63b8ff" points="434.76,-331.12 445.28,-329.88 436.28,-324.29 434.76,-331.12"/>
</a>
</g>
</g>
<!-- Node41&#45;&gt;Node37 -->
<g id="edge44_Node000041_Node000037" class="edge">
<title>Node41&#45;&gt;Node37</title>
<g id="a_edge44_Node000041_Node000037"><a xlink:title=" ">
<path fill="none" stroke="#63b8ff" d="M350.36,-268.05C374.65,-272.74 403.26,-278.27 428.67,-283.18"/>
<polygon fill="#63b8ff" stroke="#63b8ff" points="427.75,-286.56 438.23,-285.02 429.08,-279.69 427.75,-286.56"/>
</a>
</g>
</g>
<!-- Node42 -->
<g id="Node000042" class="node">
<title>Node42</title>
<g id="a_Node000042"><a xlink:href="../../de/dca/classfl_1_1_engine_events.html#ae6b4037ab7b73bf0d69e07c4956f9450" target="_top" xlink:title=" ">
<polygon fill="white" stroke="#666666" points="547,-267.93 447,-267.93 447,-234.43 547,-234.43 547,-267.93"/>
<text text-anchor="start" x="455" y="-254.43" font-family="Helvetica,sans-Serif" font-size="10.00">fl::EngineEvents::</text>
<text text-anchor="middle" x="497" y="-241.68" font-family="Helvetica,sans-Serif" font-size="10.00">_onEndShowLeds</text>
</a>
</g>
</g>
<!-- Node41&#45;&gt;Node42 -->
<g id="edge43_Node000041_Node000042" class="edge">
<title>Node41&#45;&gt;Node42</title>
<g id="a_edge43_Node000041_Node000042"><a xlink:title=" ">
<path fill="none" stroke="#63b8ff" d="M382.96,-254.54C400.76,-254.02 419.06,-253.47 435.61,-252.98"/>
<polygon fill="#63b8ff" stroke="#63b8ff" points="435.36,-256.49 445.25,-252.69 435.15,-249.49 435.36,-256.49"/>
</a>
</g>
</g>
<!-- Node44 -->
<g id="Node000044" class="node">
<title>Node44</title>
<g id="a_Node000044"><a xlink:href="../../d6/d2c/class_c_l_e_d_controller.html#afc8fb063666d03527aabc86d8531e007" target="_top" xlink:title="Write the passed in RGB data out to the LEDs managed by this controller.">
<polygon fill="white" stroke="#666666" points="557.5,-146.56 436.5,-146.56 436.5,-125.81 557.5,-125.81 557.5,-146.56"/>
<text text-anchor="middle" x="497" y="-133.06" font-family="Helvetica,sans-Serif" font-size="10.00">CLEDController::show</text>
</a>
</g>
</g>
<!-- Node43&#45;&gt;Node44 -->
<g id="edge47_Node000043_Node000044" class="edge">
<title>Node43&#45;&gt;Node44</title>
<g id="a_edge47_Node000043_Node000044"><a xlink:title=" ">
<path fill="none" stroke="#63b8ff" d="M365.3,-136.18C384.57,-136.18 405.42,-136.18 424.7,-136.18"/>
<polygon fill="#63b8ff" stroke="#63b8ff" points="424.64,-139.68 434.64,-136.18 424.64,-132.68 424.64,-139.68"/>
</a>
</g>
</g>
</g>
</svg>
