<?xml version="1.0" encoding="UTF-8" standalone="no"?>
<!DOCTYPE svg PUBLIC "-//W3C//DTD SVG 1.1//EN"
 "http://www.w3.org/Graphics/SVG/1.1/DTD/svg11.dtd">
<!-- Generated by graphviz version 12.2.1 (20241206.2353)
 -->
<!-- Title: rgb_2_rgbw_exact Pages: 1 -->
<svg width="283pt" height="80pt"
 viewBox="0.00 0.00 283.00 80.12" xmlns="http://www.w3.org/2000/svg" xmlns:xlink="http://www.w3.org/1999/xlink">
<g id="graph0" class="graph" transform="scale(1 1) rotate(0) translate(4 76.12)">
<title>rgb_2_rgbw_exact</title>
<!-- Node1 -->
<g id="Node000001" class="node">
<title>Node1</title>
<g id="a_Node000001"><a xlink:title="Converts RGB to RGBW using a color transfer method from saturated color channels to white.">
<polygon fill="#999999" stroke="#666666" points="104.5,-42.75 0,-42.75 0,-22 104.5,-22 104.5,-42.75"/>
<text text-anchor="middle" x="52.25" y="-29.25" font-family="Helvetica,sans-Serif" font-size="10.00">rgb_2_rgbw_exact</text>
</a>
</g>
</g>
<!-- Node2 -->
<g id="Node000002" class="node">
<title>Node2</title>
<g id="a_Node000002"><a xlink:href="../../d5/d9e/namespaceanonymous__namespace_02rgbw_8cpp_03.html#a81ced55db6e7d50e84ce729e6bf3223d" target="_top" xlink:title=" ">
<polygon fill="white" stroke="#666666" points="275,-72.12 140.5,-72.12 140.5,-38.62 275,-38.62 275,-72.12"/>
<text text-anchor="start" x="148.5" y="-58.62" font-family="Helvetica,sans-Serif" font-size="10.00">anonymous_namespace</text>
<text text-anchor="middle" x="207.75" y="-45.88" font-family="Helvetica,sans-Serif" font-size="10.00">{rgbw::cpp}::min3</text>
</a>
</g>
</g>
<!-- Node1&#45;&gt;Node2 -->
<g id="edge1_Node000001_Node000002" class="edge">
<title>Node1&#45;&gt;Node2</title>
<g id="a_edge1_Node000001_Node000002"><a xlink:title=" ">
<path fill="none" stroke="#63b8ff" d="M104.79,-40.1C112.57,-41.26 120.75,-42.49 128.94,-43.72"/>
<polygon fill="#63b8ff" stroke="#63b8ff" points="128.18,-47.14 138.58,-45.16 129.21,-40.22 128.18,-47.14"/>
</a>
</g>
</g>
<!-- Node3 -->
<g id="Node000003" class="node">
<title>Node3</title>
<g id="a_Node000003"><a xlink:href="../../d0/da8/group___scaling.html#gad7535ccda9c92470c4e6ee0265585555" target="_top" xlink:title="Scale one byte by a second one, which is treated as the numerator of a fraction whose denominator is ...">
<polygon fill="white" stroke="#666666" points="231.5,-20.75 184,-20.75 184,0 231.5,0 231.5,-20.75"/>
<text text-anchor="middle" x="207.75" y="-7.25" font-family="Helvetica,sans-Serif" font-size="10.00">scale8</text>
</a>
</g>
</g>
<!-- Node1&#45;&gt;Node3 -->
<g id="edge2_Node000001_Node000003" class="edge">
<title>Node1&#45;&gt;Node3</title>
<g id="a_edge2_Node000001_Node000003"><a xlink:title=" ">
<path fill="none" stroke="#63b8ff" d="M104.79,-24.99C127.11,-21.79 152.63,-18.13 172.55,-15.28"/>
<polygon fill="#63b8ff" stroke="#63b8ff" points="172.96,-18.75 182.37,-13.87 171.97,-11.82 172.96,-18.75"/>
</a>
</g>
</g>
</g>
</svg>
