<?xml version="1.0" encoding="UTF-8" standalone="no"?>
<!DOCTYPE svg PUBLIC "-//W3C//DTD SVG 1.1//EN"
 "http://www.w3.org/Graphics/SVG/1.1/DTD/svg11.dtd">
<!-- Generated by graphviz version 12.2.1 (20241206.2353)
 -->
<!-- Title: rgb_2_rgbw_white_boosted Pages: 1 -->
<svg width="611pt" height="80pt"
 viewBox="0.00 0.00 611.25 80.12" xmlns="http://www.w3.org/2000/svg" xmlns:xlink="http://www.w3.org/1999/xlink">
<g id="graph0" class="graph" transform="scale(1 1) rotate(0) translate(4 76.12)">
<title>rgb_2_rgbw_white_boosted</title>
<!-- Node1 -->
<g id="Node000001" class="node">
<title>Node1</title>
<g id="a_Node000001"><a xlink:title="Converts RGB to RGBW with a boosted white channel.">
<polygon fill="#999999" stroke="#666666" points="603.25,-42.75 454.5,-42.75 454.5,-22 603.25,-22 603.25,-42.75"/>
<text text-anchor="middle" x="528.88" y="-29.25" font-family="Helvetica,sans-Serif" font-size="10.00">rgb_2_rgbw_white_boosted</text>
</a>
</g>
</g>
<!-- Node2 -->
<g id="Node000002" class="node">
<title>Node2</title>
<g id="a_Node000002"><a xlink:href="../../d7/dbb/rgbw_8h.html#ae9cf94c7bddcd484c4f03b0c69b7770a" target="_top" xlink:title="Converts RGB to RGBW using one of the functions.">
<polygon fill="white" stroke="#666666" points="418.5,-42.75 346.25,-42.75 346.25,-22 418.5,-22 418.5,-42.75"/>
<text text-anchor="middle" x="382.38" y="-29.25" font-family="Helvetica,sans-Serif" font-size="10.00">rgb_2_rgbw</text>
</a>
</g>
</g>
<!-- Node1&#45;&gt;Node2 -->
<g id="edge1_Node000001_Node000002" class="edge">
<title>Node1&#45;&gt;Node2</title>
<g id="a_edge1_Node000001_Node000002"><a xlink:title=" ">
<path fill="none" stroke="#63b8ff" d="M443.07,-32.38C434.55,-32.38 426.28,-32.38 418.74,-32.38"/>
<polygon fill="#63b8ff" stroke="#63b8ff" points="442.84,-35.88 452.84,-32.38 442.84,-28.88 442.84,-35.88"/>
</a>
</g>
</g>
<!-- Node3 -->
<g id="Node000003" class="node">
<title>Node3</title>
<g id="a_Node000003"><a xlink:href="../../d0/dee/struct_pixel_controller.html#aa75c347910343e54b608faf4f4a002bd" target="_top" xlink:title=" ">
<polygon fill="white" stroke="#666666" points="310.25,-72.12 177.25,-72.12 177.25,-38.62 310.25,-38.62 310.25,-72.12"/>
<text text-anchor="start" x="185.25" y="-58.62" font-family="Helvetica,sans-Serif" font-size="10.00">PixelController::loadAnd</text>
<text text-anchor="middle" x="243.75" y="-45.88" font-family="Helvetica,sans-Serif" font-size="10.00">ScaleRGBW</text>
</a>
</g>
</g>
<!-- Node2&#45;&gt;Node3 -->
<g id="edge2_Node000002_Node000003" class="edge">
<title>Node2&#45;&gt;Node3</title>
<g id="a_edge2_Node000002_Node000003"><a xlink:title=" ">
<path fill="none" stroke="#63b8ff" d="M334.49,-40.27C326.77,-41.57 318.64,-42.94 310.56,-44.3"/>
<polygon fill="#63b8ff" stroke="#63b8ff" points="335.06,-43.72 344.34,-38.61 333.9,-36.82 335.06,-43.72"/>
</a>
</g>
</g>
<!-- Node5 -->
<g id="Node000005" class="node">
<title>Node5</title>
<g id="a_Node000005"><a xlink:href="../../d7/dbb/rgbw_8h.html#a805fb8e51eafd6f8bd25ea28e0f0990c" target="_top" xlink:title=" ">
<polygon fill="white" stroke="#666666" points="279.88,-20.75 207.62,-20.75 207.62,0 279.88,0 279.88,-20.75"/>
<text text-anchor="middle" x="243.75" y="-7.25" font-family="Helvetica,sans-Serif" font-size="10.00">rgb_2_rgbw</text>
</a>
</g>
</g>
<!-- Node2&#45;&gt;Node5 -->
<g id="edge4_Node000002_Node000005" class="edge">
<title>Node2&#45;&gt;Node5</title>
<g id="a_edge4_Node000002_Node000005"><a xlink:title=" ">
<path fill="none" stroke="#63b8ff" d="M334.5,-24.83C316.68,-21.96 296.69,-18.74 280.11,-16.07"/>
<polygon fill="#63b8ff" stroke="#63b8ff" points="333.91,-28.28 344.34,-26.41 335.02,-21.37 333.91,-28.28"/>
</a>
</g>
</g>
<!-- Node4 -->
<g id="Node000004" class="node">
<title>Node4</title>
<g id="a_Node000004"><a xlink:href="../../d4/d28/group___chipsets.html#aba9a2f023f2950dbcdf3c2482f765350" target="_top" xlink:title="Send the LED data to the strip.">
<polygon fill="white" stroke="#666666" points="141.25,-72.12 0,-72.12 0,-38.62 141.25,-38.62 141.25,-72.12"/>
<text text-anchor="start" x="8" y="-58.62" font-family="Helvetica,sans-Serif" font-size="10.00">RGBWEmulatedController</text>
<text text-anchor="middle" x="70.62" y="-45.88" font-family="Helvetica,sans-Serif" font-size="10.00">::showPixels</text>
</a>
</g>
</g>
<!-- Node3&#45;&gt;Node4 -->
<g id="edge3_Node000003_Node000004" class="edge">
<title>Node3&#45;&gt;Node4</title>
<g id="a_edge3_Node000003_Node000004"><a xlink:title=" ">
<path fill="none" stroke="#63b8ff" d="M165.81,-55.38C157.77,-55.38 149.63,-55.38 141.67,-55.38"/>
<polygon fill="#63b8ff" stroke="#63b8ff" points="165.56,-58.88 175.56,-55.38 165.56,-51.88 165.56,-58.88"/>
</a>
</g>
</g>
</g>
</svg>
