<?xml version="1.0" encoding="UTF-8" standalone="no"?>
<!DOCTYPE svg PUBLIC "-//W3C//DTD SVG 1.1//EN"
 "http://www.w3.org/Graphics/SVG/1.1/DTD/svg11.dtd">
<!-- Generated by graphviz version 12.2.1 (20241206.2353)
 -->
<!-- Title: fl::string_functions::itoa Pages: 1 -->
<svg width="370pt" height="146pt"
 viewBox="0.00 0.00 370.25 145.75" xmlns="http://www.w3.org/2000/svg" xmlns:xlink="http://www.w3.org/1999/xlink">
<g id="graph0" class="graph" transform="scale(1 1) rotate(0) translate(4 141.75)">
<title>fl::string_functions::itoa</title>
<!-- Node1 -->
<g id="Node000001" class="node">
<title>Node1</title>
<g id="a_Node000001"><a xlink:title=" ">
<polygon fill="#999999" stroke="#666666" points="362.25,-85.12 256.25,-85.12 256.25,-51.62 362.25,-51.62 362.25,-85.12"/>
<text text-anchor="start" x="264.25" y="-71.62" font-family="Helvetica,sans-Serif" font-size="10.00">fl::string_functions</text>
<text text-anchor="middle" x="309.25" y="-58.88" font-family="Helvetica,sans-Serif" font-size="10.00">::itoa</text>
</a>
</g>
</g>
<!-- Node2 -->
<g id="Node000002" class="node">
<title>Node2</title>
<g id="a_Node000002"><a xlink:href="../../d4/d8d/classfl_1_1_string_formatter.html#acd7b5af842e428c45d43fd7b88c8487a" target="_top" xlink:title=" ">
<polygon fill="white" stroke="#666666" points="220.25,-85.12 115.75,-85.12 115.75,-51.62 220.25,-51.62 220.25,-85.12"/>
<text text-anchor="start" x="123.75" y="-71.62" font-family="Helvetica,sans-Serif" font-size="10.00">fl::StringFormatter</text>
<text text-anchor="middle" x="168" y="-58.88" font-family="Helvetica,sans-Serif" font-size="10.00">::append</text>
</a>
</g>
</g>
<!-- Node1&#45;&gt;Node2 -->
<g id="edge1_Node000001_Node000002" class="edge">
<title>Node1&#45;&gt;Node2</title>
<g id="a_edge1_Node000001_Node000002"><a xlink:title=" ">
<path fill="none" stroke="#63b8ff" d="M244.71,-68.38C236.64,-68.38 228.47,-68.38 220.62,-68.38"/>
<polygon fill="#63b8ff" stroke="#63b8ff" points="244.49,-71.88 254.49,-68.38 244.49,-64.88 244.49,-71.88"/>
</a>
</g>
</g>
<!-- Node3 -->
<g id="Node000003" class="node">
<title>Node3</title>
<g id="a_Node000003"><a xlink:href="../../dc/d96/classfl_1_1_str_n.html#ac15fe63535c140330dc642f14a37c75e" target="_top" xlink:title=" ">
<polygon fill="white" stroke="#666666" points="79.75,-137.75 0,-137.75 0,-117 79.75,-117 79.75,-137.75"/>
<text text-anchor="middle" x="39.88" y="-124.25" font-family="Helvetica,sans-Serif" font-size="10.00">fl::StrN::write</text>
</a>
</g>
</g>
<!-- Node2&#45;&gt;Node3 -->
<g id="edge2_Node000002_Node000003" class="edge">
<title>Node2&#45;&gt;Node3</title>
<g id="a_edge2_Node000002_Node000003"><a xlink:title=" ">
<path fill="none" stroke="#63b8ff" d="M119.85,-90.43C100.78,-99.35 79.64,-109.24 64.03,-116.54"/>
<polygon fill="#63b8ff" stroke="#63b8ff" points="121.23,-93.65 128.81,-86.24 118.27,-87.31 121.23,-93.65"/>
</a>
</g>
</g>
<!-- Node4 -->
<g id="Node000004" class="node">
<title>Node4</title>
<g id="a_Node000004"><a xlink:href="../../dc/d96/classfl_1_1_str_n.html#a452e5a4069afb93ada694dfc2e929ef7" target="_top" xlink:title=" ">
<polygon fill="white" stroke="#666666" points="79.75,-98.75 0,-98.75 0,-78 79.75,-78 79.75,-98.75"/>
<text text-anchor="middle" x="39.88" y="-85.25" font-family="Helvetica,sans-Serif" font-size="10.00">fl::StrN::write</text>
</a>
</g>
</g>
<!-- Node2&#45;&gt;Node4 -->
<g id="edge3_Node000002_Node000004" class="edge">
<title>Node2&#45;&gt;Node4</title>
<g id="a_edge3_Node000002_Node000004"><a xlink:title=" ">
<path fill="none" stroke="#63b8ff" d="M104.13,-78.34C95.87,-79.65 87.61,-80.96 79.91,-82.19"/>
<polygon fill="#63b8ff" stroke="#63b8ff" points="104.51,-81.83 113.84,-76.8 103.42,-74.91 104.51,-81.83"/>
</a>
</g>
</g>
<!-- Node5 -->
<g id="Node000005" class="node">
<title>Node5</title>
<g id="a_Node000005"><a xlink:href="../../dc/d96/classfl_1_1_str_n.html#a32e001ede143c2c32b59f00f95cf5eb7" target="_top" xlink:title=" ">
<polygon fill="white" stroke="#666666" points="79.75,-59.75 0,-59.75 0,-39 79.75,-39 79.75,-59.75"/>
<text text-anchor="middle" x="39.88" y="-46.25" font-family="Helvetica,sans-Serif" font-size="10.00">fl::StrN::write</text>
</a>
</g>
</g>
<!-- Node2&#45;&gt;Node5 -->
<g id="edge4_Node000002_Node000005" class="edge">
<title>Node2&#45;&gt;Node5</title>
<g id="a_edge4_Node000002_Node000005"><a xlink:title=" ">
<path fill="none" stroke="#63b8ff" d="M104.13,-58.9C95.87,-57.66 87.61,-56.41 79.91,-55.25"/>
<polygon fill="#63b8ff" stroke="#63b8ff" points="103.43,-62.34 113.84,-60.37 104.47,-55.42 103.43,-62.34"/>
</a>
</g>
</g>
<!-- Node6 -->
<g id="Node000006" class="node">
<title>Node6</title>
<g id="a_Node000006"><a xlink:href="../../dc/d96/classfl_1_1_str_n.html#ac5a54b78b9111d43f66bab42ba38a017" target="_top" xlink:title=" ">
<polygon fill="white" stroke="#666666" points="79.75,-20.75 0,-20.75 0,0 79.75,0 79.75,-20.75"/>
<text text-anchor="middle" x="39.88" y="-7.25" font-family="Helvetica,sans-Serif" font-size="10.00">fl::StrN::write</text>
</a>
</g>
</g>
<!-- Node2&#45;&gt;Node6 -->
<g id="edge5_Node000002_Node000006" class="edge">
<title>Node2&#45;&gt;Node6</title>
<g id="a_edge5_Node000002_Node000006"><a xlink:title=" ">
<path fill="none" stroke="#63b8ff" d="M119.27,-46.42C100.4,-37.75 79.59,-28.18 64.16,-21.08"/>
<polygon fill="#63b8ff" stroke="#63b8ff" points="117.58,-49.5 128.12,-50.5 120.5,-43.14 117.58,-49.5"/>
</a>
</g>
</g>
</g>
</svg>
