<?xml version="1.0" encoding="UTF-8" standalone="no"?>
<!DOCTYPE svg PUBLIC "-//W3C//DTD SVG 1.1//EN"
 "http://www.w3.org/Graphics/SVG/1.1/DTD/svg11.dtd">
<!-- Generated by graphviz version 12.2.1 (20241206.2353)
 -->
<!-- Title: fl::string_functions::atoff Pages: 1 -->
<svg width="380pt" height="42pt"
 viewBox="0.00 0.00 380.00 41.50" xmlns="http://www.w3.org/2000/svg" xmlns:xlink="http://www.w3.org/1999/xlink">
<g id="graph0" class="graph" transform="scale(1 1) rotate(0) translate(4 37.5)">
<title>fl::string_functions::atoff</title>
<!-- Node1 -->
<g id="Node000001" class="node">
<title>Node1</title>
<g id="a_Node000001"><a xlink:title=" ">
<polygon fill="#999999" stroke="#666666" points="372,-33.5 266,-33.5 266,0 372,0 372,-33.5"/>
<text text-anchor="start" x="274" y="-20" font-family="Helvetica,sans-Serif" font-size="10.00">fl::string_functions</text>
<text text-anchor="middle" x="319" y="-7.25" font-family="Helvetica,sans-Serif" font-size="10.00">::atoff</text>
</a>
</g>
</g>
<!-- Node2 -->
<g id="Node000002" class="node">
<title>Node2</title>
<g id="a_Node000002"><a xlink:href="../../d4/d8d/classfl_1_1_string_formatter.html#a563cb1110196a63cc6baeeb65ccd39af" target="_top" xlink:title=" ">
<polygon fill="white" stroke="#666666" points="230,-33.5 125.5,-33.5 125.5,0 230,0 230,-33.5"/>
<text text-anchor="start" x="133.5" y="-20" font-family="Helvetica,sans-Serif" font-size="10.00">fl::StringFormatter</text>
<text text-anchor="middle" x="177.75" y="-7.25" font-family="Helvetica,sans-Serif" font-size="10.00">::parseFloat</text>
</a>
</g>
</g>
<!-- Node1&#45;&gt;Node2 -->
<g id="edge1_Node000001_Node000002" class="edge">
<title>Node1&#45;&gt;Node2</title>
<g id="a_edge1_Node000001_Node000002"><a xlink:title=" ">
<path fill="none" stroke="#63b8ff" d="M254.46,-16.75C246.39,-16.75 238.22,-16.75 230.37,-16.75"/>
<polygon fill="#63b8ff" stroke="#63b8ff" points="254.24,-20.25 264.24,-16.75 254.24,-13.25 254.24,-20.25"/>
</a>
</g>
</g>
<!-- Node3 -->
<g id="Node000003" class="node">
<title>Node3</title>
<g id="a_Node000003"><a xlink:href="../../dc/d96/classfl_1_1_str_n.html#ada1fdbf136adbc7c46b658a28f3b058a" target="_top" xlink:title=" ">
<polygon fill="white" stroke="#666666" points="89.5,-27.12 0,-27.12 0,-6.38 89.5,-6.38 89.5,-27.12"/>
<text text-anchor="middle" x="44.75" y="-13.62" font-family="Helvetica,sans-Serif" font-size="10.00">fl::StrN::toFloat</text>
</a>
</g>
</g>
<!-- Node2&#45;&gt;Node3 -->
<g id="edge2_Node000002_Node000003" class="edge">
<title>Node2&#45;&gt;Node3</title>
<g id="a_edge2_Node000002_Node000003"><a xlink:title=" ">
<path fill="none" stroke="#63b8ff" d="M113.91,-16.75C105.76,-16.75 97.55,-16.75 89.79,-16.75"/>
<polygon fill="#63b8ff" stroke="#63b8ff" points="113.84,-20.25 123.84,-16.75 113.84,-13.25 113.84,-20.25"/>
</a>
</g>
</g>
</g>
</svg>
