<?xml version="1.0" encoding="UTF-8" standalone="no"?>
<!DOCTYPE svg PUBLIC "-//W3C//DTD SVG 1.1//EN"
 "http://www.w3.org/Graphics/SVG/1.1/DTD/svg11.dtd">
<!-- Generated by graphviz version 12.2.1 (20241206.2353)
 -->
<!-- Title: /home/runner/work/FastLED/FastLED/src/sensors/digital_pin.h Pages: 1 -->
<svg width="746pt" height="212pt"
 viewBox="0.00 0.00 745.98 211.75" xmlns="http://www.w3.org/2000/svg" xmlns:xlink="http://www.w3.org/1999/xlink">
<g id="graph0" class="graph" transform="scale(1 1) rotate(0) translate(4 207.75)">
<title>/home/runner/work/FastLED/FastLED/src/sensors/digital_pin.h</title>
<!-- Node1 -->
<g id="Node000001" class="node">
<title>Node1</title>
<g id="a_Node000001"><a xlink:title=" ">
<polygon fill="#999999" stroke="#666666" points="551.48,-203.75 373.48,-203.75 373.48,-170.25 551.48,-170.25 551.48,-203.75"/>
<text text-anchor="start" x="381.48" y="-190.25" font-family="Helvetica,sans-Serif" font-size="10.00">/home/runner/work/FastLED</text>
<text text-anchor="middle" x="462.48" y="-177.5" font-family="Helvetica,sans-Serif" font-size="10.00">/FastLED/src/sensors/digital_pin.h</text>
</a>
</g>
</g>
<!-- Node2 -->
<g id="Node000002" class="node">
<title>Node2</title>
<g id="a_Node000002"><a xlink:title=" ">
<polygon fill="#e0e0e0" stroke="#999999" points="384.85,-20.75 332.1,-20.75 332.1,0 384.85,0 384.85,-20.75"/>
<text text-anchor="middle" x="358.48" y="-7.25" font-family="Helvetica,sans-Serif" font-size="10.00">stdint.h</text>
</a>
</g>
</g>
<!-- Node1&#45;&gt;Node2 -->
<g id="edge1_Node000001_Node000002" class="edge">
<title>Node1&#45;&gt;Node2</title>
<g id="a_edge1_Node000001_Node000002"><a xlink:title=" ">
<path fill="none" stroke="#63b8ff" d="M373.14,-177.78C253.1,-164.67 49.55,-134.51 4.48,-77.5 -1.24,-70.27 -1.62,-63.67 4.48,-56.75 25.12,-33.29 233.11,-18.62 320.32,-13.46"/>
<polygon fill="#63b8ff" stroke="#63b8ff" points="320.5,-16.96 330.28,-12.89 320.09,-9.97 320.5,-16.96"/>
</a>
</g>
</g>
<!-- Node3 -->
<g id="Node000003" class="node">
<title>Node3</title>
<g id="a_Node000003"><a xlink:href="../../d9/d3b/ui_8h.html" target="_top" xlink:title=" ">
<polygon fill="white" stroke="#666666" points="379.98,-134.25 336.98,-134.25 336.98,-113.5 379.98,-113.5 379.98,-134.25"/>
<text text-anchor="middle" x="358.48" y="-120.75" font-family="Helvetica,sans-Serif" font-size="10.00">fl/ui.h</text>
</a>
</g>
</g>
<!-- Node1&#45;&gt;Node3 -->
<g id="edge2_Node000001_Node000003" class="edge">
<title>Node1&#45;&gt;Node3</title>
<g id="a_edge2_Node000001_Node000003"><a xlink:title=" ">
<path fill="none" stroke="#63b8ff" d="M434.88,-169.78C419.43,-160.7 400.26,-149.43 384.99,-140.46"/>
<polygon fill="#63b8ff" stroke="#63b8ff" points="386.83,-137.48 376.44,-135.43 383.29,-143.52 386.83,-137.48"/>
</a>
</g>
</g>
<!-- Node5 -->
<g id="Node000005" class="node">
<title>Node5</title>
<g id="a_Node000005"><a xlink:href="../../df/d2a/namespace_8h.html" target="_top" xlink:title="Implements the FastLED namespace macros.">
<polygon fill="white" stroke="#666666" points="611.6,-20.75 521.35,-20.75 521.35,0 611.6,0 611.6,-20.75"/>
<text text-anchor="middle" x="566.48" y="-7.25" font-family="Helvetica,sans-Serif" font-size="10.00">fl/namespace.h</text>
</a>
</g>
</g>
<!-- Node1&#45;&gt;Node5 -->
<g id="edge18_Node000001_Node000005" class="edge">
<title>Node1&#45;&gt;Node5</title>
<g id="a_edge18_Node000001_Node000005"><a xlink:title=" ">
<path fill="none" stroke="#63b8ff" d="M478.55,-169.76C497.56,-149.69 528.97,-113.73 547.48,-77.5 554.8,-63.17 559.67,-45.6 562.65,-32.18"/>
<polygon fill="#63b8ff" stroke="#63b8ff" points="566.02,-33.21 564.57,-22.71 559.16,-31.82 566.02,-33.21"/>
</a>
</g>
</g>
<!-- Node9 -->
<g id="Node000009" class="node">
<title>Node9</title>
<g id="a_Node000009"><a xlink:href="../../d7/df1/fl_2ptr_8h.html" target="_top" xlink:title=" ">
<polygon fill="white" stroke="#666666" points="640.85,-134.25 594.1,-134.25 594.1,-113.5 640.85,-113.5 640.85,-134.25"/>
<text text-anchor="middle" x="617.48" y="-120.75" font-family="Helvetica,sans-Serif" font-size="10.00">fl/ptr.h</text>
</a>
</g>
</g>
<!-- Node1&#45;&gt;Node9 -->
<g id="edge11_Node000001_Node000009" class="edge">
<title>Node1&#45;&gt;Node9</title>
<g id="a_edge11_Node000001_Node000009"><a xlink:title=" ">
<path fill="none" stroke="#63b8ff" d="M503.61,-169.78C528.54,-159.95 559.96,-147.56 583.48,-138.28"/>
<polygon fill="#63b8ff" stroke="#63b8ff" points="584.58,-141.61 592.59,-134.69 582.01,-135.1 584.58,-141.61"/>
</a>
</g>
</g>
<!-- Node3&#45;&gt;Node2 -->
<g id="edge3_Node000003_Node000002" class="edge">
<title>Node3&#45;&gt;Node2</title>
<g id="a_edge3_Node000003_Node000002"><a xlink:title=" ">
<path fill="none" stroke="#63b8ff" d="M358.48,-113.37C358.48,-95.6 358.48,-56.97 358.48,-32.68"/>
<polygon fill="#63b8ff" stroke="#63b8ff" points="361.98,-32.69 358.48,-22.69 354.98,-32.69 361.98,-32.69"/>
</a>
</g>
</g>
<!-- Node4 -->
<g id="Node000004" class="node">
<title>Node4</title>
<g id="a_Node000004"><a xlink:title=" ">
<polygon fill="#e0e0e0" stroke="#999999" points="123.73,-77.5 13.23,-77.5 13.23,-56.75 123.73,-56.75 123.73,-77.5"/>
<text text-anchor="middle" x="68.48" y="-64" font-family="Helvetica,sans-Serif" font-size="10.00">platforms/ui_defs.h</text>
</a>
</g>
</g>
<!-- Node3&#45;&gt;Node4 -->
<g id="edge4_Node000003_Node000004" class="edge">
<title>Node3&#45;&gt;Node4</title>
<g id="a_edge4_Node000003_Node000004"><a xlink:title=" ">
<path fill="none" stroke="#63b8ff" d="M336.68,-118.76C293.75,-110.65 196.79,-92.35 131.99,-80.12"/>
<polygon fill="#63b8ff" stroke="#63b8ff" points="132.64,-76.68 122.17,-78.26 131.34,-83.56 132.64,-76.68"/>
</a>
</g>
</g>
<!-- Node3&#45;&gt;Node5 -->
<g id="edge5_Node000003_Node000005" class="edge">
<title>Node3&#45;&gt;Node5</title>
<g id="a_edge5_Node000003_Node000005"><a xlink:title=" ">
<path fill="none" stroke="#63b8ff" d="M364.21,-113.26C373.29,-98.85 392.34,-71.77 415.48,-56.75 443.88,-38.32 480.09,-27.1 509.93,-20.44"/>
<polygon fill="#63b8ff" stroke="#63b8ff" points="510.48,-23.9 519.54,-18.41 509.04,-17.05 510.48,-23.9"/>
</a>
</g>
</g>
<!-- Node6 -->
<g id="Node000006" class="node">
<title>Node6</title>
<g id="a_Node000006"><a xlink:href="../../d0/d19/fl_2math__macros_8h.html" target="_top" xlink:title=" ">
<polygon fill="white" stroke="#666666" points="242.85,-77.5 142.1,-77.5 142.1,-56.75 242.85,-56.75 242.85,-77.5"/>
<text text-anchor="middle" x="192.48" y="-64" font-family="Helvetica,sans-Serif" font-size="10.00">fl/math_macros.h</text>
</a>
</g>
</g>
<!-- Node3&#45;&gt;Node6 -->
<g id="edge6_Node000003_Node000006" class="edge">
<title>Node3&#45;&gt;Node6</title>
<g id="a_edge6_Node000003_Node000006"><a xlink:title=" ">
<path fill="none" stroke="#63b8ff" d="M336.77,-115.72C310.48,-107.05 265.65,-92.26 232.92,-81.46"/>
<polygon fill="#63b8ff" stroke="#63b8ff" points="234.35,-78.25 223.76,-78.44 232.16,-84.9 234.35,-78.25"/>
</a>
</g>
</g>
<!-- Node7 -->
<g id="Node000007" class="node">
<title>Node7</title>
<g id="a_Node000007"><a xlink:href="../../d8/d0c/template__magic_8h.html" target="_top" xlink:title=" ">
<polygon fill="white" stroke="#666666" points="538.23,-77.5 424.73,-77.5 424.73,-56.75 538.23,-56.75 538.23,-77.5"/>
<text text-anchor="middle" x="481.48" y="-64" font-family="Helvetica,sans-Serif" font-size="10.00">fl/template_magic.h</text>
</a>
</g>
</g>
<!-- Node3&#45;&gt;Node7 -->
<g id="edge7_Node000003_Node000007" class="edge">
<title>Node3&#45;&gt;Node7</title>
<g id="a_edge7_Node000003_Node000007"><a xlink:title=" ">
<path fill="none" stroke="#63b8ff" d="M380.47,-113.09C399.62,-104.56 427.64,-92.09 449.31,-82.44"/>
<polygon fill="#63b8ff" stroke="#63b8ff" points="450.58,-85.71 458.29,-78.44 447.73,-79.31 450.58,-85.71"/>
</a>
</g>
</g>
<!-- Node8 -->
<g id="Node000008" class="node">
<title>Node8</title>
<g id="a_Node000008"><a xlink:href="../../d8/d4b/unused_8h.html" target="_top" xlink:title=" ">
<polygon fill="white" stroke="#666666" points="330.1,-77.5 260.85,-77.5 260.85,-56.75 330.1,-56.75 330.1,-77.5"/>
<text text-anchor="middle" x="295.48" y="-64" font-family="Helvetica,sans-Serif" font-size="10.00">fl/unused.h</text>
</a>
</g>
</g>
<!-- Node3&#45;&gt;Node8 -->
<g id="edge10_Node000003_Node000008" class="edge">
<title>Node3&#45;&gt;Node8</title>
<g id="a_edge10_Node000003_Node000008"><a xlink:title=" ">
<path fill="none" stroke="#63b8ff" d="M347.21,-113.09C338.34,-105.38 325.76,-94.45 315.23,-85.29"/>
<polygon fill="#63b8ff" stroke="#63b8ff" points="317.63,-82.74 307.78,-78.82 313.04,-88.02 317.63,-82.74"/>
</a>
</g>
</g>
<!-- Node7&#45;&gt;Node2 -->
<g id="edge8_Node000007_Node000002" class="edge">
<title>Node7&#45;&gt;Node2</title>
<g id="a_edge8_Node000007_Node000002"><a xlink:title=" ">
<path fill="none" stroke="#63b8ff" d="M459.49,-56.34C440.33,-47.81 412.32,-35.34 390.64,-25.69"/>
<polygon fill="#63b8ff" stroke="#63b8ff" points="392.22,-22.56 381.66,-21.69 389.37,-28.96 392.22,-22.56"/>
</a>
</g>
</g>
<!-- Node7&#45;&gt;Node5 -->
<g id="edge9_Node000007_Node000005" class="edge">
<title>Node7&#45;&gt;Node5</title>
<g id="a_edge9_Node000007_Node000005"><a xlink:title=" ">
<path fill="none" stroke="#63b8ff" d="M496.67,-56.34C509.24,-48.24 527.34,-36.58 541.96,-27.17"/>
<polygon fill="#63b8ff" stroke="#63b8ff" points="543.63,-30.26 550.14,-21.9 539.84,-24.37 543.63,-30.26"/>
</a>
</g>
</g>
<!-- Node9&#45;&gt;Node5 -->
<g id="edge13_Node000009_Node000005" class="edge">
<title>Node9&#45;&gt;Node5</title>
<g id="a_edge13_Node000009_Node000005"><a xlink:title=" ">
<path fill="none" stroke="#63b8ff" d="M613.13,-113.37C604.85,-95.27 586.67,-55.53 575.61,-31.35"/>
<polygon fill="#63b8ff" stroke="#63b8ff" points="578.93,-30.19 571.59,-22.55 572.57,-33.1 578.93,-30.19"/>
</a>
</g>
</g>
<!-- Node9&#45;&gt;Node7 -->
<g id="edge17_Node000009_Node000007" class="edge">
<title>Node9&#45;&gt;Node7</title>
<g id="a_edge17_Node000009_Node000007"><a xlink:title=" ">
<path fill="none" stroke="#63b8ff" d="M593.79,-113.34C572.4,-104.73 540.67,-91.95 516.38,-82.18"/>
<polygon fill="#63b8ff" stroke="#63b8ff" points="517.8,-78.97 507.21,-78.49 515.18,-85.47 517.8,-78.97"/>
</a>
</g>
</g>
<!-- Node10 -->
<g id="Node000010" class="node">
<title>Node10</title>
<g id="a_Node000010"><a xlink:title=" ">
<polygon fill="#e0e0e0" stroke="#999999" points="737.98,-20.75 682.98,-20.75 682.98,0 737.98,0 737.98,-20.75"/>
<text text-anchor="middle" x="710.48" y="-7.25" font-family="Helvetica,sans-Serif" font-size="10.00">stddef.h</text>
</a>
</g>
</g>
<!-- Node9&#45;&gt;Node10 -->
<g id="edge12_Node000009_Node000010" class="edge">
<title>Node9&#45;&gt;Node10</title>
<g id="a_edge12_Node000009_Node000010"><a xlink:title=" ">
<path fill="none" stroke="#63b8ff" d="M641.16,-120.63C667.32,-116.74 708.29,-106.17 727.48,-77.5 736.83,-63.53 730.6,-44.74 723.18,-30.76"/>
<polygon fill="#63b8ff" stroke="#63b8ff" points="726.39,-29.3 718.29,-22.47 720.36,-32.86 726.39,-29.3"/>
</a>
</g>
</g>
<!-- Node11 -->
<g id="Node000011" class="node">
<title>Node11</title>
<g id="a_Node000011"><a xlink:href="../../df/d28/fl_2scoped__ptr_8h.html" target="_top" xlink:title=" ">
<polygon fill="white" stroke="#666666" points="718.73,-77.5 632.23,-77.5 632.23,-56.75 718.73,-56.75 718.73,-77.5"/>
<text text-anchor="middle" x="675.48" y="-64" font-family="Helvetica,sans-Serif" font-size="10.00">fl/scoped_ptr.h</text>
</a>
</g>
</g>
<!-- Node9&#45;&gt;Node11 -->
<g id="edge14_Node000009_Node000011" class="edge">
<title>Node9&#45;&gt;Node11</title>
<g id="a_edge14_Node000009_Node000011"><a xlink:title=" ">
<path fill="none" stroke="#63b8ff" d="M627.85,-113.09C635.93,-105.46 647.36,-94.67 657,-85.57"/>
<polygon fill="#63b8ff" stroke="#63b8ff" points="659.23,-88.28 664.1,-78.87 654.42,-83.19 659.23,-88.28"/>
</a>
</g>
</g>
<!-- Node11&#45;&gt;Node5 -->
<g id="edge16_Node000011_Node000005" class="edge">
<title>Node11&#45;&gt;Node5</title>
<g id="a_edge16_Node000011_Node000005"><a xlink:title=" ">
<path fill="none" stroke="#63b8ff" d="M655.99,-56.34C639.33,-47.97 615.09,-35.79 596.04,-26.22"/>
<polygon fill="#63b8ff" stroke="#63b8ff" points="597.65,-23.12 587.15,-21.76 594.51,-29.37 597.65,-23.12"/>
</a>
</g>
</g>
<!-- Node11&#45;&gt;Node10 -->
<g id="edge15_Node000011_Node000010" class="edge">
<title>Node11&#45;&gt;Node10</title>
<g id="a_edge15_Node000011_Node000010"><a xlink:title=" ">
<path fill="none" stroke="#63b8ff" d="M681.73,-56.34C686.31,-49.17 692.67,-39.23 698.25,-30.51"/>
<polygon fill="#63b8ff" stroke="#63b8ff" points="701.02,-32.66 703.46,-22.35 695.12,-28.89 701.02,-32.66"/>
</a>
</g>
</g>
</g>
</svg>
