<?xml version="1.0" encoding="UTF-8" standalone="no"?>
<!DOCTYPE svg PUBLIC "-//W3C//DTD SVG 1.1//EN"
 "http://www.w3.org/Graphics/SVG/1.1/DTD/svg11.dtd">
<!-- Generated by graphviz version 12.2.1 (20241206.2353)
 -->
<!-- Title: grad8 Pages: 1 -->
<svg width="425pt" height="204pt"
 viewBox="0.00 0.00 425.25 203.75" xmlns="http://www.w3.org/2000/svg" xmlns:xlink="http://www.w3.org/1999/xlink">
<g id="graph0" class="graph" transform="scale(1 1) rotate(0) translate(4 199.75)">
<title>grad8</title>
<!-- Node1 -->
<g id="Node000001" class="node">
<title>Node1</title>
<g id="a_Node000001"><a xlink:title=" ">
<polygon fill="#999999" stroke="#666666" points="417.25,-156.75 373.5,-156.75 373.5,-136 417.25,-136 417.25,-156.75"/>
<text text-anchor="middle" x="395.38" y="-143.25" font-family="Helvetica,sans-Serif" font-size="10.00">grad8</text>
</a>
</g>
</g>
<!-- Node2 -->
<g id="Node000002" class="node">
<title>Node2</title>
<g id="a_Node000002"><a xlink:href="../../d8/df9/group___noise_generation.html#gabf6fbef9588c6d6ee35b7ad79fe14ace" target="_top" xlink:title="8&#45;bit, fixed point implementation of Perlin&#39;s noise without scaling.">
<polygon fill="white" stroke="#666666" points="337.5,-195.75 263,-195.75 263,-175 337.5,-175 337.5,-195.75"/>
<text text-anchor="middle" x="300.25" y="-182.25" font-family="Helvetica,sans-Serif" font-size="10.00">inoise8_raw</text>
</a>
</g>
</g>
<!-- Node1&#45;&gt;Node2 -->
<g id="edge1_Node000001_Node000002" class="edge">
<title>Node1&#45;&gt;Node2</title>
<g id="a_edge1_Node000001_Node000002"><a xlink:title=" ">
<path fill="none" stroke="#63b8ff" d="M362.98,-159.52C351.26,-164.43 338.09,-169.95 326.94,-174.61"/>
<polygon fill="#63b8ff" stroke="#63b8ff" points="363.98,-162.9 371.85,-155.81 361.27,-156.44 363.98,-162.9"/>
</a>
</g>
</g>
<!-- Node3 -->
<g id="Node000003" class="node">
<title>Node3</title>
<g id="a_Node000003"><a xlink:href="../../d8/df9/group___noise_generation.html#gae8a7338d2f14deb11f62086adf81dfe2" target="_top" xlink:title="8&#45;bit, fixed point implementation of Perlin&#39;s noise without scaling.">
<polygon fill="white" stroke="#666666" points="337.5,-156.75 263,-156.75 263,-136 337.5,-136 337.5,-156.75"/>
<text text-anchor="middle" x="300.25" y="-143.25" font-family="Helvetica,sans-Serif" font-size="10.00">inoise8_raw</text>
</a>
</g>
</g>
<!-- Node1&#45;&gt;Node3 -->
<g id="edge2_Node000001_Node000003" class="edge">
<title>Node1&#45;&gt;Node3</title>
<g id="a_edge2_Node000001_Node000003"><a xlink:title=" ">
<path fill="none" stroke="#63b8ff" d="M361.93,-146.38C354.09,-146.38 345.66,-146.38 337.65,-146.38"/>
<polygon fill="#63b8ff" stroke="#63b8ff" points="361.73,-149.88 371.73,-146.38 361.73,-142.88 361.73,-149.88"/>
</a>
</g>
</g>
<!-- Node4 -->
<g id="Node000004" class="node">
<title>Node4</title>
<g id="a_Node000004"><a xlink:href="../../d8/df9/group___noise_generation.html#ga6c57ed3ea69e819c29602578ecbabd71" target="_top" xlink:title="8&#45;bit, fixed point implementation of Perlin&#39;s noise without scaling.">
<polygon fill="white" stroke="#666666" points="337.5,-117.75 263,-117.75 263,-97 337.5,-97 337.5,-117.75"/>
<text text-anchor="middle" x="300.25" y="-104.25" font-family="Helvetica,sans-Serif" font-size="10.00">inoise8_raw</text>
</a>
</g>
</g>
<!-- Node1&#45;&gt;Node4 -->
<g id="edge3_Node000001_Node000004" class="edge">
<title>Node1&#45;&gt;Node4</title>
<g id="a_edge3_Node000001_Node000004"><a xlink:title=" ">
<path fill="none" stroke="#63b8ff" d="M362.98,-133.23C351.26,-128.32 338.09,-122.8 326.94,-118.14"/>
<polygon fill="#63b8ff" stroke="#63b8ff" points="361.27,-136.31 371.85,-136.94 363.98,-129.85 361.27,-136.31"/>
</a>
</g>
</g>
<!-- Node5 -->
<g id="Node000005" class="node">
<title>Node5</title>
<g id="a_Node000005"><a xlink:href="../../d8/df9/group___noise_generation.html#gab9d952a5258caa93c05ebdde0140cf0e" target="_top" xlink:title="8&#45;Bit, fixed point implementation of Perlin&#39;s noise.">
<polygon fill="white" stroke="#666666" points="227,-156.75 175.75,-156.75 175.75,-136 227,-136 227,-156.75"/>
<text text-anchor="middle" x="201.38" y="-143.25" font-family="Helvetica,sans-Serif" font-size="10.00">inoise8</text>
</a>
</g>
</g>
<!-- Node4&#45;&gt;Node5 -->
<g id="edge4_Node000004_Node000005" class="edge">
<title>Node4&#45;&gt;Node5</title>
<g id="a_edge4_Node000004_Node000005"><a xlink:title=" ">
<path fill="none" stroke="#63b8ff" d="M261.93,-122.4C250.3,-127.08 237.78,-132.12 227.22,-136.37"/>
<polygon fill="#63b8ff" stroke="#63b8ff" points="262.89,-125.79 270.86,-118.8 260.28,-119.29 262.89,-125.79"/>
</a>
</g>
</g>
<!-- Node6 -->
<g id="Node000006" class="node">
<title>Node6</title>
<g id="a_Node000006"><a xlink:href="../../d8/df9/group___noise_generation.html#ga9641aa87f0a5557f73004fb73f81bba5" target="_top" xlink:title="8&#45;Bit, fixed point implementation of Perlin&#39;s noise.">
<polygon fill="white" stroke="#666666" points="227,-117.75 175.75,-117.75 175.75,-97 227,-97 227,-117.75"/>
<text text-anchor="middle" x="201.38" y="-104.25" font-family="Helvetica,sans-Serif" font-size="10.00">inoise8</text>
</a>
</g>
</g>
<!-- Node4&#45;&gt;Node6 -->
<g id="edge5_Node000004_Node000006" class="edge">
<title>Node4&#45;&gt;Node6</title>
<g id="a_edge5_Node000004_Node000006"><a xlink:title=" ">
<path fill="none" stroke="#63b8ff" d="M251.38,-107.38C243.05,-107.38 234.7,-107.38 227.31,-107.38"/>
<polygon fill="#63b8ff" stroke="#63b8ff" points="251.11,-110.88 261.11,-107.38 251.11,-103.88 251.11,-110.88"/>
</a>
</g>
</g>
<!-- Node7 -->
<g id="Node000007" class="node">
<title>Node7</title>
<g id="a_Node000007"><a xlink:href="../../d8/df9/group___noise_generation.html#gaa521ccca6038d7b5e881fe2e8f35d3bc" target="_top" xlink:title="8&#45;Bit, fixed point implementation of Perlin&#39;s noise.">
<polygon fill="white" stroke="#666666" points="227,-78.75 175.75,-78.75 175.75,-58 227,-58 227,-78.75"/>
<text text-anchor="middle" x="201.38" y="-65.25" font-family="Helvetica,sans-Serif" font-size="10.00">inoise8</text>
</a>
</g>
</g>
<!-- Node4&#45;&gt;Node7 -->
<g id="edge6_Node000004_Node000007" class="edge">
<title>Node4&#45;&gt;Node7</title>
<g id="a_edge6_Node000004_Node000007"><a xlink:title=" ">
<path fill="none" stroke="#63b8ff" d="M261.93,-92.35C250.3,-87.67 237.78,-82.63 227.22,-78.38"/>
<polygon fill="#63b8ff" stroke="#63b8ff" points="260.28,-95.46 270.86,-95.95 262.89,-88.96 260.28,-95.46"/>
</a>
</g>
</g>
<!-- Node8 -->
<g id="Node000008" class="node">
<title>Node8</title>
<g id="a_Node000008"><a xlink:href="../../de/da4/group___noise_fill.html#ga3dc6c55a3f8495a7bc6dc0124434c688" target="_top" xlink:title="Fill a 2D 8&#45;bit buffer with noise, using inoise8()">
<polygon fill="#fff0f0" stroke="red" points="120.25,-137.75 19.5,-137.75 19.5,-117 120.25,-117 120.25,-137.75"/>
<text text-anchor="middle" x="69.88" y="-124.25" font-family="Helvetica,sans-Serif" font-size="10.00">fill_raw_2dnoise8</text>
</a>
</g>
</g>
<!-- Node7&#45;&gt;Node8 -->
<g id="edge7_Node000007_Node000008" class="edge">
<title>Node7&#45;&gt;Node8</title>
<g id="a_edge7_Node000007_Node000008"><a xlink:title=" ">
<path fill="none" stroke="#63b8ff" d="M176.9,-85.74C166.02,-93.19 152.66,-101.5 139.75,-107.38 132.04,-110.88 123.57,-113.94 115.28,-116.53"/>
<polygon fill="#63b8ff" stroke="#63b8ff" points="178.72,-88.74 184.87,-80.12 174.68,-83.02 178.72,-88.74"/>
</a>
</g>
</g>
<!-- Node13 -->
<g id="Node000013" class="node">
<title>Node13</title>
<g id="a_Node000013"><a xlink:href="../../de/da4/group___noise_fill.html#ga1e4dba9289b03333697e70d4b7f3b006" target="_top" xlink:title="Fill a 1D 8&#45;bit buffer with noise, using inoise8()">
<polygon fill="#fff0f0" stroke="red" points="114.25,-98.75 25.5,-98.75 25.5,-78 114.25,-78 114.25,-98.75"/>
<text text-anchor="middle" x="69.88" y="-85.25" font-family="Helvetica,sans-Serif" font-size="10.00">fill_raw_noise8</text>
</a>
</g>
</g>
<!-- Node7&#45;&gt;Node13 -->
<g id="edge9_Node000007_Node000013" class="edge">
<title>Node7&#45;&gt;Node13</title>
<g id="a_edge9_Node000007_Node000013"><a xlink:title=" ">
<path fill="none" stroke="#63b8ff" d="M164.25,-73.95C148.86,-76.33 130.78,-79.12 114.65,-81.61"/>
<polygon fill="#63b8ff" stroke="#63b8ff" points="164.56,-77.45 173.91,-72.46 163.49,-70.53 164.56,-77.45"/>
</a>
</g>
</g>
<!-- Node16 -->
<g id="Node000016" class="node">
<title>Node16</title>
<g id="a_Node000016"><a xlink:href="../../d6/d9d/_noise_8ino.html#a695b396822bbfb2d9b29c121cf13e8f3" target="_top" xlink:title=" ">
<polygon fill="#fff0f0" stroke="red" points="100,-59.75 39.75,-59.75 39.75,-39 100,-39 100,-59.75"/>
<text text-anchor="middle" x="69.88" y="-46.25" font-family="Helvetica,sans-Serif" font-size="10.00">fillnoise8</text>
</a>
</g>
</g>
<!-- Node7&#45;&gt;Node16 -->
<g id="edge10_Node000007_Node000016" class="edge">
<title>Node7&#45;&gt;Node16</title>
<g id="a_edge10_Node000007_Node000016"><a xlink:title=" ">
<path fill="none" stroke="#63b8ff" d="M164.15,-63.06C144,-60.1 119.25,-56.47 100.3,-53.69"/>
<polygon fill="#63b8ff" stroke="#63b8ff" points="163.51,-66.5 173.91,-64.49 164.52,-59.58 163.51,-66.5"/>
</a>
</g>
</g>
<!-- Node18 -->
<g id="Node000018" class="node">
<title>Node18</title>
<g id="a_Node000018"><a xlink:href="../../d9/d41/classfl_1_1_noise_palette.html#a22d1820b5a78e9ccfb4123ef9161f738" target="_top" xlink:title=" ">
<polygon fill="#fff0f0" stroke="red" points="139.75,-20.75 0,-20.75 0,0 139.75,0 139.75,-20.75"/>
<text text-anchor="middle" x="69.88" y="-7.25" font-family="Helvetica,sans-Serif" font-size="10.00">fl::NoisePalette::fillnoise8</text>
</a>
</g>
</g>
<!-- Node7&#45;&gt;Node18 -->
<g id="edge11_Node000007_Node000018" class="edge">
<title>Node7&#45;&gt;Node18</title>
<g id="a_edge11_Node000007_Node000018"><a xlink:title=" ">
<path fill="none" stroke="#63b8ff" d="M176.84,-51.48C165.95,-44.24 152.6,-36.13 139.75,-30.38 131.91,-26.86 123.29,-23.79 114.89,-21.18"/>
<polygon fill="#63b8ff" stroke="#63b8ff" points="174.59,-54.19 184.82,-56.95 178.55,-48.41 174.59,-54.19"/>
</a>
</g>
</g>
<!-- Node8&#45;&gt;Node8 -->
<g id="edge8_Node000008_Node000008" class="edge">
<title>Node8&#45;&gt;Node8</title>
<g id="a_edge8_Node000008_Node000008"><a xlink:title=" ">
<path fill="none" stroke="#63b8ff" d="M93.01,-149.24C89.95,-153.08 82.24,-155.75 69.88,-155.75 47.27,-155.75 40.21,-146.81 48.69,-138.15"/>
<polygon fill="#63b8ff" stroke="#63b8ff" points="96.51,-148.88 91.33,-139.64 89.61,-150.09 96.51,-148.88"/>
</a>
</g>
</g>
</g>
</svg>
