<?xml version="1.0" encoding="UTF-8" standalone="no"?>
<!DOCTYPE svg PUBLIC "-//W3C//DTD SVG 1.1//EN"
 "http://www.w3.org/Graphics/SVG/1.1/DTD/svg11.dtd">
<!-- Generated by graphviz version 12.2.1 (20241206.2353)
 -->
<!-- Title: /home/runner/work/FastLED/FastLED/examples/LuminescentGrand/shared/util.h Pages: 1 -->
<svg width="1040pt" height="301pt"
 viewBox="0.00 0.00 1039.75 301.00" xmlns="http://www.w3.org/2000/svg" xmlns:xlink="http://www.w3.org/1999/xlink">
<g id="graph0" class="graph" transform="scale(1 1) rotate(0) translate(4 297)">
<title>/home/runner/work/FastLED/FastLED/examples/LuminescentGrand/shared/util.h</title>
<!-- Node1 -->
<g id="Node000001" class="node">
<title>Node1</title>
<g id="a_Node000001"><a xlink:title=" ">
<polygon fill="#999999" stroke="#666666" points="524.75,-293 322,-293 322,-246.75 524.75,-246.75 524.75,-293"/>
<text text-anchor="start" x="330" y="-279.5" font-family="Helvetica,sans-Serif" font-size="10.00">/home/runner/work/FastLED</text>
<text text-anchor="start" x="330" y="-266.75" font-family="Helvetica,sans-Serif" font-size="10.00">/FastLED/examples/LuminescentGrand</text>
<text text-anchor="middle" x="423.38" y="-254" font-family="Helvetica,sans-Serif" font-size="10.00">/shared/util.h</text>
</a>
</g>
</g>
<!-- Node2 -->
<g id="Node000002" class="node">
<title>Node2</title>
<g id="a_Node000002"><a xlink:href="../../d9/d5c/_keyboard_8cpp.html" target="_top" xlink:title=" ">
<polygon fill="white" stroke="#666666" points="202.75,-128.5 0,-128.5 0,-82.25 202.75,-82.25 202.75,-128.5"/>
<text text-anchor="start" x="8" y="-115" font-family="Helvetica,sans-Serif" font-size="10.00">/home/runner/work/FastLED</text>
<text text-anchor="start" x="8" y="-102.25" font-family="Helvetica,sans-Serif" font-size="10.00">/FastLED/examples/LuminescentGrand</text>
<text text-anchor="middle" x="101.38" y="-89.5" font-family="Helvetica,sans-Serif" font-size="10.00">/shared/Keyboard.cpp</text>
</a>
</g>
</g>
<!-- Node1&#45;&gt;Node2 -->
<g id="edge1_Node000001_Node000002" class="edge">
<title>Node1&#45;&gt;Node2</title>
<g id="a_edge1_Node000001_Node000002"><a xlink:title=" ">
<path fill="none" stroke="#63b8ff" d="M310.22,-260.39C235.58,-252.39 146.86,-237.49 120.38,-210.75 99.12,-189.29 97.3,-152.49 98.74,-128.81"/>
<polygon fill="#63b8ff" stroke="#63b8ff" points="309.79,-263.86 320.09,-261.41 310.51,-256.9 309.79,-263.86"/>
</a>
</g>
</g>
<!-- Node3 -->
<g id="Node000003" class="node">
<title>Node3</title>
<g id="a_Node000003"><a xlink:href="../../df/d85/_keyboard_8h.html" target="_top" xlink:title=" ">
<polygon fill="white" stroke="#666666" points="331.75,-210.75 129,-210.75 129,-164.5 331.75,-164.5 331.75,-210.75"/>
<text text-anchor="start" x="137" y="-197.25" font-family="Helvetica,sans-Serif" font-size="10.00">/home/runner/work/FastLED</text>
<text text-anchor="start" x="137" y="-184.5" font-family="Helvetica,sans-Serif" font-size="10.00">/FastLED/examples/LuminescentGrand</text>
<text text-anchor="middle" x="230.38" y="-171.75" font-family="Helvetica,sans-Serif" font-size="10.00">/shared/Keyboard.h</text>
</a>
</g>
</g>
<!-- Node1&#45;&gt;Node3 -->
<g id="edge2_Node000001_Node000003" class="edge">
<title>Node1&#45;&gt;Node3</title>
<g id="a_edge2_Node000001_Node000003"><a xlink:title=" ">
<path fill="none" stroke="#63b8ff" d="M358.64,-241.96C334.59,-231.96 307.59,-220.73 284.58,-211.16"/>
<polygon fill="#63b8ff" stroke="#63b8ff" points="357.13,-245.12 367.7,-245.73 359.81,-238.66 357.13,-245.12"/>
</a>
</g>
</g>
<!-- Node5 -->
<g id="Node000005" class="node">
<title>Node5</title>
<g id="a_Node000005"><a xlink:href="../../dc/db0/_painter_8h.html" target="_top" xlink:title=" ">
<polygon fill="white" stroke="#666666" points="460.75,-128.5 258,-128.5 258,-82.25 460.75,-82.25 460.75,-128.5"/>
<text text-anchor="start" x="266" y="-115" font-family="Helvetica,sans-Serif" font-size="10.00">/home/runner/work/FastLED</text>
<text text-anchor="start" x="266" y="-102.25" font-family="Helvetica,sans-Serif" font-size="10.00">/FastLED/examples/LuminescentGrand</text>
<text text-anchor="middle" x="359.38" y="-89.5" font-family="Helvetica,sans-Serif" font-size="10.00">/shared/Painter.h</text>
</a>
</g>
</g>
<!-- Node1&#45;&gt;Node5 -->
<g id="edge7_Node000001_Node000005" class="edge">
<title>Node1&#45;&gt;Node5</title>
<g id="a_edge7_Node000001_Node000005"><a xlink:title=" ">
<path fill="none" stroke="#63b8ff" d="M394.86,-237.65C388.58,-229.4 382.57,-220.15 378.38,-210.75 366.52,-184.17 362.06,-150.64 360.39,-128.87"/>
<polygon fill="#63b8ff" stroke="#63b8ff" points="392.03,-239.72 401.02,-245.33 397.49,-235.34 392.03,-239.72"/>
</a>
</g>
</g>
<!-- Node6 -->
<g id="Node000006" class="node">
<title>Node6</title>
<g id="a_Node000006"><a xlink:href="../../d3/d03/color_8cpp.html" target="_top" xlink:title=" ">
<polygon fill="white" stroke="#666666" points="589.75,-210.75 387,-210.75 387,-164.5 589.75,-164.5 589.75,-210.75"/>
<text text-anchor="start" x="395" y="-197.25" font-family="Helvetica,sans-Serif" font-size="10.00">/home/runner/work/FastLED</text>
<text text-anchor="start" x="395" y="-184.5" font-family="Helvetica,sans-Serif" font-size="10.00">/FastLED/examples/LuminescentGrand</text>
<text text-anchor="middle" x="488.38" y="-171.75" font-family="Helvetica,sans-Serif" font-size="10.00">/shared/color.cpp</text>
</a>
</g>
</g>
<!-- Node1&#45;&gt;Node6 -->
<g id="edge8_Node000001_Node000006" class="edge">
<title>Node1&#45;&gt;Node6</title>
<g id="a_edge8_Node000001_Node000006"><a xlink:title=" ">
<path fill="none" stroke="#63b8ff" d="M448.7,-237.61C455.85,-228.78 463.49,-219.35 470.14,-211.14"/>
<polygon fill="#63b8ff" stroke="#63b8ff" points="446.01,-235.37 442.43,-245.34 451.45,-239.78 446.01,-235.37"/>
</a>
</g>
</g>
<!-- Node7 -->
<g id="Node000007" class="node">
<title>Node7</title>
<g id="a_Node000007"><a xlink:href="../../d4/df0/color__mapper_8cpp.html" target="_top" xlink:title=" ">
<polygon fill="white" stroke="#666666" points="810.75,-210.75 608,-210.75 608,-164.5 810.75,-164.5 810.75,-210.75"/>
<text text-anchor="start" x="616" y="-197.25" font-family="Helvetica,sans-Serif" font-size="10.00">/home/runner/work/FastLED</text>
<text text-anchor="start" x="616" y="-184.5" font-family="Helvetica,sans-Serif" font-size="10.00">/FastLED/examples/LuminescentGrand</text>
<text text-anchor="middle" x="709.38" y="-171.75" font-family="Helvetica,sans-Serif" font-size="10.00">/shared/color_mapper.cpp</text>
</a>
</g>
</g>
<!-- Node1&#45;&gt;Node7 -->
<g id="edge9_Node000001_Node000007" class="edge">
<title>Node1&#45;&gt;Node7</title>
<g id="a_edge9_Node000001_Node000007"><a xlink:title=" ">
<path fill="none" stroke="#63b8ff" d="M514.53,-243.3C551.33,-232.97 593.43,-221.16 629.06,-211.16"/>
<polygon fill="#63b8ff" stroke="#63b8ff" points="513.94,-239.83 505.26,-245.9 515.83,-246.57 513.94,-239.83"/>
</a>
</g>
</g>
<!-- Node8 -->
<g id="Node000008" class="node">
<title>Node8</title>
<g id="a_Node000008"><a xlink:href="../../df/d2d/util_8cpp.html" target="_top" xlink:title=" ">
<polygon fill="white" stroke="#666666" points="1031.75,-210.75 829,-210.75 829,-164.5 1031.75,-164.5 1031.75,-210.75"/>
<text text-anchor="start" x="837" y="-197.25" font-family="Helvetica,sans-Serif" font-size="10.00">/home/runner/work/FastLED</text>
<text text-anchor="start" x="837" y="-184.5" font-family="Helvetica,sans-Serif" font-size="10.00">/FastLED/examples/LuminescentGrand</text>
<text text-anchor="middle" x="930.38" y="-171.75" font-family="Helvetica,sans-Serif" font-size="10.00">/shared/util.cpp</text>
</a>
</g>
</g>
<!-- Node1&#45;&gt;Node8 -->
<g id="edge10_Node000001_Node000008" class="edge">
<title>Node1&#45;&gt;Node8</title>
<g id="a_edge10_Node000001_Node000008"><a xlink:title=" ">
<path fill="none" stroke="#63b8ff" d="M535.93,-253.91C615.32,-242.98 724.06,-227.23 819.38,-210.75 822.47,-210.21 825.62,-209.66 828.79,-209.09"/>
<polygon fill="#63b8ff" stroke="#63b8ff" points="535.86,-250.39 526.43,-255.22 536.81,-257.32 535.86,-250.39"/>
</a>
</g>
</g>
<!-- Node3&#45;&gt;Node2 -->
<g id="edge3_Node000003_Node000002" class="edge">
<title>Node3&#45;&gt;Node2</title>
<g id="a_edge3_Node000003_Node000002"><a xlink:title=" ">
<path fill="none" stroke="#63b8ff" d="M184.67,-158.2C169.15,-148.54 152.04,-137.89 137.38,-128.77"/>
<polygon fill="#63b8ff" stroke="#63b8ff" points="182.47,-160.95 192.81,-163.26 186.17,-155 182.47,-160.95"/>
</a>
</g>
</g>
<!-- Node4 -->
<g id="Node000004" class="node">
<title>Node4</title>
<g id="a_Node000004"><a xlink:href="../../db/d33/_painter_8cpp.html" target="_top" xlink:title=" ">
<polygon fill="white" stroke="#666666" points="395.75,-46.25 193,-46.25 193,0 395.75,0 395.75,-46.25"/>
<text text-anchor="start" x="201" y="-32.75" font-family="Helvetica,sans-Serif" font-size="10.00">/home/runner/work/FastLED</text>
<text text-anchor="start" x="201" y="-20" font-family="Helvetica,sans-Serif" font-size="10.00">/FastLED/examples/LuminescentGrand</text>
<text text-anchor="middle" x="294.38" y="-7.25" font-family="Helvetica,sans-Serif" font-size="10.00">/shared/Painter.cpp</text>
</a>
</g>
</g>
<!-- Node3&#45;&gt;Node4 -->
<g id="edge4_Node000003_Node000004" class="edge">
<title>Node3&#45;&gt;Node4</title>
<g id="a_edge4_Node000003_Node000004"><a xlink:title=" ">
<path fill="none" stroke="#63b8ff" d="M232.43,-152.84C234.68,-131.8 239.42,-104.57 249.38,-82.25 255.14,-69.31 264.37,-56.67 272.97,-46.49"/>
<polygon fill="#63b8ff" stroke="#63b8ff" points="228.96,-152.35 231.52,-162.63 235.93,-152.99 228.96,-152.35"/>
</a>
</g>
</g>
<!-- Node3&#45;&gt;Node5 -->
<g id="edge5_Node000003_Node000005" class="edge">
<title>Node3&#45;&gt;Node5</title>
<g id="a_edge5_Node000003_Node000005"><a xlink:title=" ">
<path fill="none" stroke="#63b8ff" d="M276.08,-158.2C291.6,-148.54 308.71,-137.89 323.37,-128.77"/>
<polygon fill="#63b8ff" stroke="#63b8ff" points="274.58,-155 267.94,-163.26 278.28,-160.95 274.58,-155"/>
</a>
</g>
</g>
<!-- Node5&#45;&gt;Node4 -->
<g id="edge6_Node000005_Node000004" class="edge">
<title>Node5&#45;&gt;Node4</title>
<g id="a_edge6_Node000005_Node000004"><a xlink:title=" ">
<path fill="none" stroke="#63b8ff" d="M334.05,-73.11C326.9,-64.28 319.26,-54.85 312.61,-46.64"/>
<polygon fill="#63b8ff" stroke="#63b8ff" points="331.3,-75.28 340.32,-80.84 336.74,-70.87 331.3,-75.28"/>
</a>
</g>
</g>
</g>
</svg>
