<?xml version="1.0" encoding="UTF-8" standalone="no"?>
<!DOCTYPE svg PUBLIC "-//W3C//DTD SVG 1.1//EN"
 "http://www.w3.org/Graphics/SVG/1.1/DTD/svg11.dtd">
<!-- Generated by graphviz version 12.2.1 (20241206.2353)
 -->
<!-- Title: animartrix_detail::ANIMartRIX Pages: 1 -->
<svg width="1052pt" height="351pt"
 viewBox="0.00 0.00 1051.75 350.50" xmlns="http://www.w3.org/2000/svg" xmlns:xlink="http://www.w3.org/1999/xlink">
<g id="graph0" class="graph" transform="scale(1 1) rotate(0) translate(4 346.5)">
<title>animartrix_detail::ANIMartRIX</title>
<!-- Node1 -->
<g id="Node000001" class="node">
<title>Node1</title>
<g id="a_Node000001"><a xlink:title=" ">
<polygon fill="#999999" stroke="#666666" points="1043.75,-238.5 937.75,-238.5 937.75,-205 1043.75,-205 1043.75,-238.5"/>
<text text-anchor="start" x="945.75" y="-225" font-family="Helvetica,sans-Serif" font-size="10.00">animartrix_detail::</text>
<text text-anchor="middle" x="990.75" y="-212.25" font-family="Helvetica,sans-Serif" font-size="10.00">ANIMartRIX</text>
</a>
</g>
</g>
<!-- Node2 -->
<g id="Node000002" class="node">
<title>Node2</title>
<g id="a_Node000002"><a xlink:href="../../d6/d74/namespaceanimartrix__detail.html#d5/df4/structanimartrix__detail_1_1render__parameters" target="_top" xlink:title=" ">
<polygon fill="white" stroke="#666666" points="833.88,-342.5 724.88,-342.5 724.88,-309 833.88,-309 833.88,-342.5"/>
<text text-anchor="start" x="732.88" y="-329" font-family="Helvetica,sans-Serif" font-size="10.00">animartrix_detail::</text>
<text text-anchor="middle" x="779.38" y="-316.25" font-family="Helvetica,sans-Serif" font-size="10.00">render_parameters</text>
</a>
</g>
</g>
<!-- Node2&#45;&gt;Node1 -->
<g id="edge1_Node000001_Node000002" class="edge">
<title>Node2&#45;&gt;Node1</title>
<g id="a_edge1_Node000001_Node000002"><a xlink:title=" ">
<path fill="none" stroke="#9a32cd" stroke-dasharray="5,2" d="M834.72,-304.42C838.63,-302.85 842.5,-301.28 846.25,-299.75 879.07,-286.35 888.56,-285.6 919.75,-268.75 936.11,-259.92 953.46,-248.28 966.8,-238.8"/>
<polygon fill="#9a32cd" stroke="#9a32cd" points="833.76,-301.03 825.78,-307.99 836.36,-307.53 833.76,-301.03"/>
</a>
</g>
<text text-anchor="middle" x="892" y="-295.69" font-family="Helvetica,sans-Serif" font-size="10.00" fill="grey"> animation</text>
</g>
<!-- Node3 -->
<g id="Node000003" class="node">
<title>Node3</title>
<g id="a_Node000003"><a xlink:href="../../d6/d74/namespaceanimartrix__detail.html#d5/d40/structanimartrix__detail_1_1oscillators" target="_top" xlink:title=" ">
<polygon fill="white" stroke="#666666" points="832.38,-290.5 726.38,-290.5 726.38,-257 832.38,-257 832.38,-290.5"/>
<text text-anchor="start" x="734.38" y="-277" font-family="Helvetica,sans-Serif" font-size="10.00">animartrix_detail::</text>
<text text-anchor="middle" x="779.38" y="-264.25" font-family="Helvetica,sans-Serif" font-size="10.00">oscillators</text>
</a>
</g>
</g>
<!-- Node3&#45;&gt;Node1 -->
<g id="edge2_Node000001_Node000003" class="edge">
<title>Node3&#45;&gt;Node1</title>
<g id="a_edge2_Node000001_Node000003"><a xlink:title=" ">
<path fill="none" stroke="#9a32cd" stroke-dasharray="5,2" d="M843.45,-258.08C873.46,-250.63 908.91,-241.83 937.4,-234.75"/>
<polygon fill="#9a32cd" stroke="#9a32cd" points="843,-254.59 834.14,-260.4 844.69,-261.38 843,-254.59"/>
</a>
</g>
<text text-anchor="middle" x="892" y="-255.66" font-family="Helvetica,sans-Serif" font-size="10.00" fill="grey"> timings</text>
</g>
<!-- Node4 -->
<g id="Node000004" class="node">
<title>Node4</title>
<g id="a_Node000004"><a xlink:href="../../d6/d74/namespaceanimartrix__detail.html#df/dfa/structanimartrix__detail_1_1modulators" target="_top" xlink:title=" ">
<polygon fill="white" stroke="#666666" points="832.38,-238.5 726.38,-238.5 726.38,-205 832.38,-205 832.38,-238.5"/>
<text text-anchor="start" x="734.38" y="-225" font-family="Helvetica,sans-Serif" font-size="10.00">animartrix_detail::</text>
<text text-anchor="middle" x="779.38" y="-212.25" font-family="Helvetica,sans-Serif" font-size="10.00">modulators</text>
</a>
</g>
</g>
<!-- Node4&#45;&gt;Node1 -->
<g id="edge3_Node000001_Node000004" class="edge">
<title>Node4&#45;&gt;Node1</title>
<g id="a_edge3_Node000001_Node000004"><a xlink:title=" ">
<path fill="none" stroke="#9a32cd" stroke-dasharray="5,2" d="M843.85,-221.75C873.77,-221.75 909.03,-221.75 937.4,-221.75"/>
<polygon fill="#9a32cd" stroke="#9a32cd" points="844.18,-218.25 834.18,-221.75 844.18,-225.25 844.18,-218.25"/>
</a>
</g>
<text text-anchor="middle" x="892" y="-225" font-family="Helvetica,sans-Serif" font-size="10.00" fill="grey"> move</text>
</g>
<!-- Node5 -->
<g id="Node000005" class="node">
<title>Node5</title>
<g id="a_Node000005"><a xlink:href="../../d6/d74/namespaceanimartrix__detail.html#d1/d5c/structanimartrix__detail_1_1rgb" target="_top" xlink:title=" ">
<polygon fill="white" stroke="#666666" points="840.25,-187.12 718.5,-187.12 718.5,-166.38 840.25,-166.38 840.25,-187.12"/>
<text text-anchor="middle" x="779.38" y="-173.62" font-family="Helvetica,sans-Serif" font-size="10.00">animartrix_detail::rgb</text>
</a>
</g>
</g>
<!-- Node5&#45;&gt;Node1 -->
<g id="edge4_Node000001_Node000005" class="edge">
<title>Node5&#45;&gt;Node1</title>
<g id="a_edge4_Node000001_Node000005"><a xlink:title=" ">
<path fill="none" stroke="#9a32cd" stroke-dasharray="5,2" d="M847.14,-189.79C870.18,-194.42 896.13,-199.78 919.75,-205 925.48,-206.27 931.47,-207.63 937.43,-209.02"/>
<polygon fill="#9a32cd" stroke="#9a32cd" points="848.06,-186.4 837.57,-187.88 846.69,-193.27 848.06,-186.4"/>
</a>
</g>
<text text-anchor="middle" x="892" y="-208.25" font-family="Helvetica,sans-Serif" font-size="10.00" fill="grey"> pixel</text>
</g>
<!-- Node6 -->
<g id="Node000006" class="node">
<title>Node6</title>
<g id="a_Node000006"><a xlink:href="../../db/ddd/classfl_1_1_heap_vector.html" target="_top" xlink:title=" ">
<polygon fill="white" stroke="#666666" points="846.25,-146.5 712.5,-146.5 712.5,-113 846.25,-113 846.25,-146.5"/>
<text text-anchor="start" x="720.5" y="-133" font-family="Helvetica,sans-Serif" font-size="10.00">fl::HeapVector&lt; fl</text>
<text text-anchor="middle" x="779.38" y="-120.25" font-family="Helvetica,sans-Serif" font-size="10.00">::HeapVector&lt; float &gt; &gt;</text>
</a>
</g>
</g>
<!-- Node6&#45;&gt;Node1 -->
<g id="edge5_Node000001_Node000006" class="edge">
<title>Node6&#45;&gt;Node1</title>
<g id="a_edge5_Node000001_Node000006"><a xlink:title=" ">
<path fill="none" stroke="#9a32cd" stroke-dasharray="5,2" d="M857.76,-142.46C878.56,-147.58 900.58,-154.63 919.75,-164.25 940.27,-174.55 960.15,-191.8 973.45,-204.73"/>
<polygon fill="#9a32cd" stroke="#9a32cd" points="858.69,-139.08 848.16,-140.22 857.11,-145.9 858.69,-139.08"/>
</a>
</g>
<text text-anchor="middle" x="892" y="-180.25" font-family="Helvetica,sans-Serif" font-size="10.00" fill="grey"> distance</text>
<text text-anchor="middle" x="892" y="-167.5" font-family="Helvetica,sans-Serif" font-size="10.00" fill="grey">polar_theta</text>
</g>
<!-- Node7 -->
<g id="Node000007" class="node">
<title>Node7</title>
<g id="a_Node000007"><a xlink:href="../../d3/d92/classfl_1_1scoped__array.html" target="_top" xlink:title=" ">
<polygon fill="white" stroke="#666666" points="637.5,-104.5 503.75,-104.5 503.75,-71 637.5,-71 637.5,-104.5"/>
<text text-anchor="start" x="511.75" y="-91" font-family="Helvetica,sans-Serif" font-size="10.00">fl::scoped_array&lt; fl</text>
<text text-anchor="middle" x="570.62" y="-78.25" font-family="Helvetica,sans-Serif" font-size="10.00">::HeapVector&lt; float &gt; &gt;</text>
</a>
</g>
</g>
<!-- Node7&#45;&gt;Node6 -->
<g id="edge6_Node000006_Node000007" class="edge">
<title>Node7&#45;&gt;Node6</title>
<g id="a_edge6_Node000006_Node000007"><a xlink:title=" ">
<path fill="none" stroke="#9a32cd" stroke-dasharray="5,2" d="M648.93,-103.45C669.72,-107.68 692,-112.2 712.13,-116.29"/>
<polygon fill="#9a32cd" stroke="#9a32cd" points="649.87,-100.07 639.38,-101.51 648.48,-106.93 649.87,-100.07"/>
</a>
</g>
<text text-anchor="middle" x="675" y="-115.76" font-family="Helvetica,sans-Serif" font-size="10.00" fill="grey"> mArray</text>
</g>
<!-- Node8 -->
<g id="Node000008" class="node">
<title>Node8</title>
<g id="a_Node000008"><a xlink:href="../../db/ddd/classfl_1_1_heap_vector.html" target="_top" xlink:title=" ">
<polygon fill="#fff0f0" stroke="red" points="327.12,-124.12 198.62,-124.12 198.62,-103.38 327.12,-103.38 327.12,-124.12"/>
<text text-anchor="middle" x="262.88" y="-110.62" font-family="Helvetica,sans-Serif" font-size="10.00">fl::HeapVector&lt; float &gt;</text>
</a>
</g>
</g>
<!-- Node8&#45;&gt;Node7 -->
<g id="edge7_Node000007_Node000008" class="edge">
<title>Node8&#45;&gt;Node7</title>
<g id="a_edge7_Node000007_Node000008"><a xlink:title=" ">
<path fill="none" stroke="#9a32cd" stroke-dasharray="5,2" d="M339.06,-107.36C389.38,-103.08 454.98,-97.5 503.34,-93.39"/>
<polygon fill="#9a32cd" stroke="#9a32cd" points="338.77,-103.87 329.11,-108.2 339.37,-110.84 338.77,-103.87"/>
</a>
</g>
<text text-anchor="middle" x="416.75" y="-109.32" font-family="Helvetica,sans-Serif" font-size="10.00" fill="grey"> arr_</text>
</g>
<!-- Node13 -->
<g id="Node000013" class="node">
<title>Node13</title>
<g id="a_Node000013"><a xlink:href="../../db/ddd/classfl_1_1_heap_vector.html" target="_top" xlink:title=" ">
<polygon fill="white" stroke="#666666" points="112.75,-143.12 0,-143.12 0,-122.38 112.75,-122.38 112.75,-143.12"/>
<text text-anchor="middle" x="56.38" y="-129.62" font-family="Helvetica,sans-Serif" font-size="10.00">fl::HeapVector&lt; T &gt;</text>
</a>
</g>
</g>
<!-- Node13&#45;&gt;Node6 -->
<g id="edge11_Node000006_Node000013" class="edge">
<title>Node13&#45;&gt;Node6</title>
<g id="a_edge11_Node000006_Node000013"><a xlink:title=" ">
<path fill="none" stroke="orange" stroke-dasharray="5,2" d="M124.48,-137.51C126.59,-137.6 128.69,-137.68 130.75,-137.75 151.74,-138.46 157,-137.89 178,-137.75 372.14,-136.46 601.58,-132.81 712.19,-130.92"/>
<polygon fill="orange" stroke="orange" points="124.71,-134.02 114.55,-137.02 124.37,-141.01 124.71,-134.02"/>
</a>
</g>
<text text-anchor="middle" x="416.75" y="-139.41" font-family="Helvetica,sans-Serif" font-size="10.00" fill="grey"> &lt; fl::HeapVector&lt; float &gt; &gt;</text>
</g>
<!-- Node13&#45;&gt;Node8 -->
<g id="edge8_Node000008_Node000013" class="edge">
<title>Node13&#45;&gt;Node8</title>
<g id="a_edge8_Node000008_Node000013"><a xlink:title=" ">
<path fill="none" stroke="orange" stroke-dasharray="5,2" d="M124.48,-125.61C126.59,-125.4 128.69,-125.2 130.75,-125 152.7,-122.9 176.73,-120.78 198.16,-118.96"/>
<polygon fill="orange" stroke="orange" points="124.16,-122.12 114.56,-126.6 124.86,-129.09 124.16,-122.12"/>
</a>
</g>
<text text-anchor="middle" x="154.38" y="-128.25" font-family="Helvetica,sans-Serif" font-size="10.00" fill="grey"> &lt; float &gt;</text>
</g>
<!-- Node14 -->
<g id="Node000014" class="node">
<title>Node14</title>
<g id="a_Node000014"><a xlink:href="../../df/db6/structfl_1_1_array_deleter.html" target="_top" xlink:title=" ">
<polygon fill="#fff0f0" stroke="red" points="329.75,-85.5 196,-85.5 196,-52 329.75,-52 329.75,-85.5"/>
<text text-anchor="start" x="204" y="-72" font-family="Helvetica,sans-Serif" font-size="10.00">fl::ArrayDeleter&lt; fl</text>
<text text-anchor="middle" x="262.88" y="-59.25" font-family="Helvetica,sans-Serif" font-size="10.00">::HeapVector&lt; float &gt; &gt;</text>
</a>
</g>
</g>
<!-- Node14&#45;&gt;Node7 -->
<g id="edge9_Node000007_Node000014" class="edge">
<title>Node14&#45;&gt;Node7</title>
<g id="a_edge9_Node000007_Node000014"><a xlink:title=" ">
<path fill="none" stroke="#9a32cd" stroke-dasharray="5,2" d="M341.46,-68.61C384.11,-69.11 437.94,-70.71 485.75,-75 491.47,-75.51 497.4,-76.17 503.33,-76.9"/>
<polygon fill="#9a32cd" stroke="#9a32cd" points="341.57,-65.11 331.53,-68.51 341.5,-72.11 341.57,-65.11"/>
</a>
</g>
<text text-anchor="middle" x="416.75" y="-78.25" font-family="Helvetica,sans-Serif" font-size="10.00" fill="grey"> deleter_</text>
</g>
<!-- Node12 -->
<g id="Node000012" class="node">
<title>Node12</title>
<g id="a_Node000012"><a xlink:href="../../d3/d92/classfl_1_1scoped__array.html" target="_top" xlink:title=" ">
<polygon fill="white" stroke="#666666" points="319.62,-33.5 206.12,-33.5 206.12,0 319.62,0 319.62,-33.5"/>
<text text-anchor="start" x="214.12" y="-20" font-family="Helvetica,sans-Serif" font-size="10.00">fl::scoped_array&lt; T,</text>
<text text-anchor="middle" x="262.88" y="-7.25" font-family="Helvetica,sans-Serif" font-size="10.00"> Deleter &gt;</text>
</a>
</g>
</g>
<!-- Node12&#45;&gt;Node7 -->
<g id="edge10_Node000007_Node000012" class="edge">
<title>Node12&#45;&gt;Node7</title>
<g id="a_edge10_Node000007_Node000012"><a xlink:title=" ">
<path fill="none" stroke="orange" stroke-dasharray="5,2" d="M331.13,-23.09C375.61,-28.34 434.89,-37.36 485.75,-52 502.33,-56.77 520,-63.96 534.82,-70.64"/>
<polygon fill="orange" stroke="orange" points="331.7,-19.63 321.37,-21.98 330.91,-26.59 331.7,-19.63"/>
</a>
</g>
<text text-anchor="middle" x="416.75" y="-55.25" font-family="Helvetica,sans-Serif" font-size="10.00" fill="grey"> &lt; fl::HeapVector&lt; float &gt; &gt;</text>
</g>
</g>
</svg>
