<?xml version="1.0" encoding="UTF-8" standalone="no"?>
<!DOCTYPE svg PUBLIC "-//W3C//DTD SVG 1.1//EN"
 "http://www.w3.org/Graphics/SVG/1.1/DTD/svg11.dtd">
<!-- Generated by graphviz version 12.2.1 (20241206.2353)
 -->
<!-- Title: fl::FixedVector::empty Pages: 1 -->
<svg width="587pt" height="224pt"
 viewBox="0.00 0.00 587.25 223.75" xmlns="http://www.w3.org/2000/svg" xmlns:xlink="http://www.w3.org/1999/xlink">
<g id="graph0" class="graph" transform="scale(1 1) rotate(0) translate(4 219.75)">
<title>fl::FixedVector::empty</title>
<!-- Node1 -->
<g id="Node000001" class="node">
<title>Node1</title>
<g id="a_Node000001"><a xlink:title=" ">
<polygon fill="#999999" stroke="#666666" points="579.25,-98.75 457.5,-98.75 457.5,-78 579.25,-78 579.25,-98.75"/>
<text text-anchor="middle" x="518.38" y="-85.25" font-family="Helvetica,sans-Serif" font-size="10.00">fl::FixedVector::empty</text>
</a>
</g>
</g>
<!-- Node2 -->
<g id="Node000002" class="node">
<title>Node2</title>
<g id="a_Node000002"><a xlink:href="../../d2/df3/classfl_1_1_fixed_map.html#aaa4e5e58299a89ab5a6784b011b2b2a7" target="_top" xlink:title=" ">
<polygon fill="white" stroke="#666666" points="421.5,-137.75 309.5,-137.75 309.5,-117 421.5,-117 421.5,-137.75"/>
<text text-anchor="middle" x="365.5" y="-124.25" font-family="Helvetica,sans-Serif" font-size="10.00">fl::FixedMap::empty</text>
</a>
</g>
</g>
<!-- Node1&#45;&gt;Node2 -->
<g id="edge1_Node000001_Node000002" class="edge">
<title>Node1&#45;&gt;Node2</title>
<g id="a_edge1_Node000001_Node000002"><a xlink:title=" ">
<path fill="none" stroke="#63b8ff" d="M464.27,-102.1C446.01,-106.82 425.82,-112.04 408.56,-116.5"/>
<polygon fill="#63b8ff" stroke="#63b8ff" points="465.08,-105.51 473.88,-99.62 463.32,-98.73 465.08,-105.51"/>
</a>
</g>
</g>
<!-- Node12 -->
<g id="Node000012" class="node">
<title>Node12</title>
<g id="a_Node000012"><a xlink:href="../../dd/d44/classfl_1_1_fixed_set.html#adda91ee1f58ce57685107d939d674aa5" target="_top" xlink:title=" ">
<polygon fill="white" stroke="#666666" points="418.88,-59.75 312.12,-59.75 312.12,-39 418.88,-39 418.88,-59.75"/>
<text text-anchor="middle" x="365.5" y="-46.25" font-family="Helvetica,sans-Serif" font-size="10.00">fl::FixedSet::empty</text>
</a>
</g>
</g>
<!-- Node1&#45;&gt;Node12 -->
<g id="edge10_Node000001_Node000012" class="edge">
<title>Node1&#45;&gt;Node12</title>
<g id="a_edge10_Node000001_Node000012"><a xlink:title=" ">
<path fill="none" stroke="#63b8ff" d="M464.27,-74.65C446.01,-69.93 425.82,-64.71 408.56,-60.25"/>
<polygon fill="#63b8ff" stroke="#63b8ff" points="463.32,-78.02 473.88,-77.13 465.08,-71.24 463.32,-78.02"/>
</a>
</g>
</g>
<!-- Node3 -->
<g id="Node000003" class="node">
<title>Node3</title>
<g id="a_Node000003"><a xlink:href="../../d4/d60/classfl_1_1_fx_engine.html#a1e840a27e09686190e44844b3f062642" target="_top" xlink:title="Adds a new effect to the engine.">
<polygon fill="white" stroke="#666666" points="273.5,-215.75 164.5,-215.75 164.5,-195 273.5,-195 273.5,-215.75"/>
<text text-anchor="middle" x="219" y="-202.25" font-family="Helvetica,sans-Serif" font-size="10.00">fl::FxEngine::addFx</text>
</a>
</g>
</g>
<!-- Node2&#45;&gt;Node3 -->
<g id="edge2_Node000002_Node000003" class="edge">
<title>Node2&#45;&gt;Node3</title>
<g id="a_edge2_Node000002_Node000003"><a xlink:title=" ">
<path fill="none" stroke="#63b8ff" d="M340.25,-144.81C322.38,-157.17 297.16,-173.58 273.5,-185.38 266.76,-188.74 259.3,-191.87 252.15,-194.6"/>
<polygon fill="#63b8ff" stroke="#63b8ff" points="342.2,-147.72 348.38,-139.11 338.18,-141.99 342.2,-147.72"/>
</a>
</g>
</g>
<!-- Node5 -->
<g id="Node000005" class="node">
<title>Node5</title>
<g id="a_Node000005"><a xlink:href="../../d4/d60/classfl_1_1_fx_engine.html#aa0b3b17d66712b3c2184d8c59c6b55f1" target="_top" xlink:title="Renders the current effect or transition to the output buffer.">
<polygon fill="white" stroke="#666666" points="270.5,-176.75 167.5,-176.75 167.5,-156 270.5,-156 270.5,-176.75"/>
<text text-anchor="middle" x="219" y="-163.25" font-family="Helvetica,sans-Serif" font-size="10.00">fl::FxEngine::draw</text>
</a>
</g>
</g>
<!-- Node2&#45;&gt;Node5 -->
<g id="edge4_Node000002_Node000005" class="edge">
<title>Node2&#45;&gt;Node5</title>
<g id="a_edge4_Node000002_Node000005"><a xlink:title=" ">
<path fill="none" stroke="#63b8ff" d="M313.14,-141.24C295.78,-145.92 276.66,-151.08 260.29,-155.5"/>
<polygon fill="#63b8ff" stroke="#63b8ff" points="314.04,-144.62 322.79,-138.63 312.22,-137.86 314.04,-144.62"/>
</a>
</g>
</g>
<!-- Node7 -->
<g id="Node000007" class="node">
<title>Node7</title>
<g id="a_Node000007"><a xlink:href="../../d2/df3/classfl_1_1_fixed_map.html#a86e9680f024d9fb7a7fa9f96a90f4a1e" target="_top" xlink:title=" ">
<polygon fill="white" stroke="#666666" points="270.12,-137.75 167.88,-137.75 167.88,-117 270.12,-117 270.12,-137.75"/>
<text text-anchor="middle" x="219" y="-124.25" font-family="Helvetica,sans-Serif" font-size="10.00">fl::FixedMap::next</text>
</a>
</g>
</g>
<!-- Node2&#45;&gt;Node7 -->
<g id="edge6_Node000002_Node000007" class="edge">
<title>Node2&#45;&gt;Node7</title>
<g id="a_edge6_Node000002_Node000007"><a xlink:title=" ">
<path fill="none" stroke="#63b8ff" d="M297.55,-127.38C288.4,-127.38 279.13,-127.38 270.34,-127.38"/>
<polygon fill="#63b8ff" stroke="#63b8ff" points="297.53,-130.88 307.53,-127.38 297.53,-123.88 297.53,-130.88"/>
</a>
</g>
</g>
<!-- Node11 -->
<g id="Node000011" class="node">
<title>Node11</title>
<g id="a_Node000011"><a xlink:href="../../d2/df3/classfl_1_1_fixed_map.html#a35706a466e8c68cf3c5e9b8c94f8e17d" target="_top" xlink:title=" ">
<polygon fill="white" stroke="#666666" points="270.12,-98.75 167.88,-98.75 167.88,-78 270.12,-78 270.12,-98.75"/>
<text text-anchor="middle" x="219" y="-85.25" font-family="Helvetica,sans-Serif" font-size="10.00">fl::FixedMap::prev</text>
</a>
</g>
</g>
<!-- Node2&#45;&gt;Node11 -->
<g id="edge9_Node000002_Node000011" class="edge">
<title>Node2&#45;&gt;Node11</title>
<g id="a_edge9_Node000002_Node000011"><a xlink:title=" ">
<path fill="none" stroke="#63b8ff" d="M313.14,-113.51C295.78,-108.83 276.66,-103.67 260.29,-99.25"/>
<polygon fill="#63b8ff" stroke="#63b8ff" points="312.22,-116.89 322.79,-116.12 314.04,-110.13 312.22,-116.89"/>
</a>
</g>
</g>
<!-- Node4 -->
<g id="Node000004" class="node">
<title>Node4</title>
<g id="a_Node000004"><a xlink:href="../../d6/d35/_fx_engine_8ino.html#a4fc01d736fe50cf5b977f755b675f11d" target="_top" xlink:title=" ">
<polygon fill="white" stroke="#666666" points="85.75,-215.75 42.75,-215.75 42.75,-195 85.75,-195 85.75,-215.75"/>
<text text-anchor="middle" x="64.25" y="-202.25" font-family="Helvetica,sans-Serif" font-size="10.00">setup</text>
</a>
</g>
</g>
<!-- Node3&#45;&gt;Node4 -->
<g id="edge3_Node000003_Node000004" class="edge">
<title>Node3&#45;&gt;Node4</title>
<g id="a_edge3_Node000003_Node000004"><a xlink:title=" ">
<path fill="none" stroke="#63b8ff" d="M152.89,-205.38C128.88,-205.38 103.35,-205.38 86.08,-205.38"/>
<polygon fill="#63b8ff" stroke="#63b8ff" points="152.63,-208.88 162.63,-205.38 152.63,-201.88 152.63,-208.88"/>
</a>
</g>
</g>
<!-- Node6 -->
<g id="Node000006" class="node">
<title>Node6</title>
<g id="a_Node000006"><a xlink:href="../../dd/d96/_fx_animartrix_8ino.html#afe461d27b9c48d5921c00d521181f12f" target="_top" xlink:title=" ">
<polygon fill="white" stroke="#666666" points="82.75,-176.75 45.75,-176.75 45.75,-156 82.75,-156 82.75,-176.75"/>
<text text-anchor="middle" x="64.25" y="-163.25" font-family="Helvetica,sans-Serif" font-size="10.00">loop</text>
</a>
</g>
</g>
<!-- Node5&#45;&gt;Node6 -->
<g id="edge5_Node000005_Node000006" class="edge">
<title>Node5&#45;&gt;Node6</title>
<g id="a_edge5_Node000005_Node000006"><a xlink:title=" ">
<path fill="none" stroke="#63b8ff" d="M155.69,-166.38C129.48,-166.38 100.98,-166.38 83.12,-166.38"/>
<polygon fill="#63b8ff" stroke="#63b8ff" points="155.62,-169.88 165.62,-166.38 155.62,-162.88 155.62,-169.88"/>
</a>
</g>
</g>
<!-- Node8 -->
<g id="Node000008" class="node">
<title>Node8</title>
<g id="a_Node000008"><a xlink:href="../../d4/d60/classfl_1_1_fx_engine.html#a478ed2a69d36050013ef81ffb59799a0" target="_top" xlink:title="Transitions to the next effect in the sequence.">
<polygon fill="#fff0f0" stroke="red" points="120.62,-137.75 7.88,-137.75 7.88,-117 120.62,-117 120.62,-137.75"/>
<text text-anchor="middle" x="64.25" y="-124.25" font-family="Helvetica,sans-Serif" font-size="10.00">fl::FxEngine::nextFx</text>
</a>
</g>
</g>
<!-- Node7&#45;&gt;Node8 -->
<g id="edge7_Node000007_Node000008" class="edge">
<title>Node7&#45;&gt;Node8</title>
<g id="a_edge7_Node000007_Node000008"><a xlink:title=" ">
<path fill="none" stroke="#63b8ff" d="M156.11,-127.38C144.46,-127.38 132.35,-127.38 120.91,-127.38"/>
<polygon fill="#63b8ff" stroke="#63b8ff" points="156.05,-130.88 166.05,-127.38 156.05,-123.88 156.05,-130.88"/>
</a>
</g>
</g>
<!-- Node10 -->
<g id="Node000010" class="node">
<title>Node10</title>
<g id="a_Node000010"><a xlink:href="../../d4/d60/classfl_1_1_fx_engine.html#acb1a08ee3735bf9269d8a60370b02315" target="_top" xlink:title="Requests removal of an effect from the engine, which might not happen immediately (for example the Fx...">
<polygon fill="white" stroke="#666666" points="128.5,-98.75 0,-98.75 0,-78 128.5,-78 128.5,-98.75"/>
<text text-anchor="middle" x="64.25" y="-85.25" font-family="Helvetica,sans-Serif" font-size="10.00">fl::FxEngine::removeFx</text>
</a>
</g>
</g>
<!-- Node7&#45;&gt;Node10 -->
<g id="edge8_Node000007_Node000010" class="edge">
<title>Node7&#45;&gt;Node10</title>
<g id="a_edge8_Node000007_Node000010"><a xlink:title=" ">
<path fill="none" stroke="#63b8ff" d="M164.49,-113.71C145.94,-108.98 125.39,-103.73 107.84,-99.25"/>
<polygon fill="#63b8ff" stroke="#63b8ff" points="163.43,-117.05 173.98,-116.14 165.16,-110.27 163.43,-117.05"/>
</a>
</g>
</g>
<!-- Node13 -->
<g id="Node000013" class="node">
<title>Node13</title>
<g id="a_Node000013"><a xlink:href="../../dd/d44/classfl_1_1_fixed_set.html#a18926c88fdd3f536415854e43e24ad4a" target="_top" xlink:title=" ">
<polygon fill="white" stroke="#666666" points="267.5,-59.75 170.5,-59.75 170.5,-39 267.5,-39 267.5,-59.75"/>
<text text-anchor="middle" x="219" y="-46.25" font-family="Helvetica,sans-Serif" font-size="10.00">fl::FixedSet::next</text>
</a>
</g>
</g>
<!-- Node12&#45;&gt;Node13 -->
<g id="edge11_Node000012_Node000013" class="edge">
<title>Node12&#45;&gt;Node13</title>
<g id="a_edge11_Node000012_Node000013"><a xlink:title=" ">
<path fill="none" stroke="#63b8ff" d="M300.63,-49.38C289.67,-49.38 278.44,-49.38 267.98,-49.38"/>
<polygon fill="#63b8ff" stroke="#63b8ff" points="300.41,-52.88 310.41,-49.38 300.41,-45.88 300.41,-52.88"/>
</a>
</g>
</g>
<!-- Node14 -->
<g id="Node000014" class="node">
<title>Node14</title>
<g id="a_Node000014"><a xlink:href="../../dd/d44/classfl_1_1_fixed_set.html#a7db056ad59839116b456b6d378cbbab6" target="_top" xlink:title=" ">
<polygon fill="white" stroke="#666666" points="267.5,-20.75 170.5,-20.75 170.5,0 267.5,0 267.5,-20.75"/>
<text text-anchor="middle" x="219" y="-7.25" font-family="Helvetica,sans-Serif" font-size="10.00">fl::FixedSet::prev</text>
</a>
</g>
</g>
<!-- Node12&#45;&gt;Node14 -->
<g id="edge12_Node000012_Node000014" class="edge">
<title>Node12&#45;&gt;Node14</title>
<g id="a_edge12_Node000012_Node000014"><a xlink:title=" ">
<path fill="none" stroke="#63b8ff" d="M313.14,-35.51C295.78,-30.83 276.66,-25.67 260.29,-21.25"/>
<polygon fill="#63b8ff" stroke="#63b8ff" points="312.22,-38.89 322.79,-38.12 314.04,-32.13 312.22,-38.89"/>
</a>
</g>
</g>
</g>
</svg>
