<?xml version="1.0" encoding="UTF-8" standalone="no"?>
<!DOCTYPE svg PUBLIC "-//W3C//DTD SVG 1.1//EN"
 "http://www.w3.org/Graphics/SVG/1.1/DTD/svg11.dtd">
<!-- Generated by graphviz version 12.2.1 (20241206.2353)
 -->
<!-- Title: fl::FixedVector::FixedVector Pages: 1 -->
<svg width="663pt" height="68pt"
 viewBox="0.00 0.00 663.00 67.75" xmlns="http://www.w3.org/2000/svg" xmlns:xlink="http://www.w3.org/1999/xlink">
<g id="graph0" class="graph" transform="scale(1 1) rotate(0) translate(4 63.75)">
<title>fl::FixedVector::FixedVector</title>
<!-- Node1 -->
<g id="Node000001" class="node">
<title>Node1</title>
<g id="a_Node000001"><a xlink:title=" ">
<polygon fill="#999999" stroke="#666666" points="146.5,-39.75 0,-39.75 0,-19 146.5,-19 146.5,-39.75"/>
<text text-anchor="middle" x="73.25" y="-26.25" font-family="Helvetica,sans-Serif" font-size="10.00">fl::FixedVector::FixedVector</text>
</a>
</g>
</g>
<!-- Node2 -->
<g id="Node000002" class="node">
<title>Node2</title>
<g id="a_Node000002"><a xlink:href="../../d3/d73/classfl_1_1_fixed_vector.html#aecba9f7532d2a2ac32746c592efba0ab" target="_top" xlink:title=" ">
<polygon fill="white" stroke="#666666" points="304.25,-39.75 182.5,-39.75 182.5,-19 304.25,-19 304.25,-39.75"/>
<text text-anchor="middle" x="243.38" y="-26.25" font-family="Helvetica,sans-Serif" font-size="10.00">fl::FixedVector::assign</text>
</a>
</g>
</g>
<!-- Node1&#45;&gt;Node2 -->
<g id="edge1_Node000001_Node000002" class="edge">
<title>Node1&#45;&gt;Node2</title>
<g id="a_edge1_Node000001_Node000002"><a xlink:title=" ">
<path fill="none" stroke="#63b8ff" d="M146.53,-29.38C154.48,-29.38 162.58,-29.38 170.52,-29.38"/>
<polygon fill="#63b8ff" stroke="#63b8ff" points="170.51,-32.88 180.51,-29.38 170.51,-25.88 170.51,-32.88"/>
</a>
</g>
</g>
<!-- Node3 -->
<g id="Node000003" class="node">
<title>Node3</title>
<g id="a_Node000003"><a xlink:href="../../d3/d73/classfl_1_1_fixed_vector.html#a624562170056be2d8e67a9a577c130b8" target="_top" xlink:title=" ">
<polygon fill="white" stroke="#666666" points="468.38,-59.75 354.12,-59.75 354.12,-39 468.38,-39 468.38,-59.75"/>
<text text-anchor="middle" x="411.25" y="-46.25" font-family="Helvetica,sans-Serif" font-size="10.00">fl::FixedVector::clear</text>
</a>
</g>
</g>
<!-- Node2&#45;&gt;Node3 -->
<g id="edge2_Node000002_Node000003" class="edge">
<title>Node2&#45;&gt;Node3</title>
<g id="a_edge2_Node000002_Node000003"><a xlink:title=" ">
<path fill="none" stroke="#63b8ff" d="M304.73,-36.65C317,-38.13 329.98,-39.7 342.49,-41.2"/>
<polygon fill="#63b8ff" stroke="#63b8ff" points="341.96,-44.67 352.3,-42.39 342.79,-37.72 341.96,-44.67"/>
</a>
</g>
</g>
<!-- Node5 -->
<g id="Node000005" class="node">
<title>Node5</title>
<g id="a_Node000005"><a xlink:href="../../d3/d73/classfl_1_1_fixed_vector.html#ad54b97a02650df09aee087d758e0352a" target="_top" xlink:title=" ">
<polygon fill="white" stroke="#666666" points="482.25,-20.75 340.25,-20.75 340.25,0 482.25,0 482.25,-20.75"/>
<text text-anchor="middle" x="411.25" y="-7.25" font-family="Helvetica,sans-Serif" font-size="10.00">fl::FixedVector::push_back</text>
</a>
</g>
</g>
<!-- Node2&#45;&gt;Node5 -->
<g id="edge4_Node000002_Node000005" class="edge">
<title>Node2&#45;&gt;Node5</title>
<g id="a_edge4_Node000002_Node000005"><a xlink:title=" ">
<path fill="none" stroke="#63b8ff" d="M304.73,-22.46C312.47,-21.57 320.5,-20.66 328.52,-19.74"/>
<polygon fill="#63b8ff" stroke="#63b8ff" points="328.76,-23.23 338.3,-18.62 327.97,-16.28 328.76,-23.23"/>
</a>
</g>
</g>
<!-- Node4 -->
<g id="Node000004" class="node">
<title>Node4</title>
<g id="a_Node000004"><a xlink:href="../../d3/d73/classfl_1_1_fixed_vector.html#a86ca6e866b11e1089e3ac0c043f00e0b" target="_top" xlink:title=" ">
<polygon fill="white" stroke="#666666" points="655,-59.75 518.25,-59.75 518.25,-39 655,-39 655,-59.75"/>
<text text-anchor="middle" x="586.62" y="-46.25" font-family="Helvetica,sans-Serif" font-size="10.00">fl::FixedVector::pop_back</text>
</a>
</g>
</g>
<!-- Node3&#45;&gt;Node4 -->
<g id="edge3_Node000003_Node000004" class="edge">
<title>Node3&#45;&gt;Node4</title>
<g id="a_edge3_Node000003_Node000004"><a xlink:title=" ">
<path fill="none" stroke="#63b8ff" d="M468.54,-49.38C480.7,-49.38 493.77,-49.38 506.62,-49.38"/>
<polygon fill="#63b8ff" stroke="#63b8ff" points="506.31,-52.88 516.31,-49.38 506.31,-45.88 506.31,-52.88"/>
</a>
</g>
</g>
</g>
</svg>
