<?xml version="1.0" encoding="UTF-8" standalone="no"?>
<!DOCTYPE svg PUBLIC "-//W3C//DTD SVG 1.1//EN"
 "http://www.w3.org/Graphics/SVG/1.1/DTD/svg11.dtd">
<!-- Generated by graphviz version 12.2.1 (20241206.2353)
 -->
<!-- Title: fl::FixedVector::assign Pages: 1 -->
<svg width="481pt" height="146pt"
 viewBox="0.00 0.00 480.50 145.75" xmlns="http://www.w3.org/2000/svg" xmlns:xlink="http://www.w3.org/1999/xlink">
<g id="graph0" class="graph" transform="scale(1 1) rotate(0) translate(4 141.75)">
<title>fl::FixedVector::assign</title>
<!-- Node1 -->
<g id="Node000001" class="node">
<title>Node1</title>
<g id="a_Node000001"><a xlink:title=" ">
<polygon fill="#999999" stroke="#666666" points="121.75,-78.75 0,-78.75 0,-58 121.75,-58 121.75,-78.75"/>
<text text-anchor="middle" x="60.88" y="-65.25" font-family="Helvetica,sans-Serif" font-size="10.00">fl::FixedVector::assign</text>
</a>
</g>
</g>
<!-- Node2 -->
<g id="Node000002" class="node">
<title>Node2</title>
<g id="a_Node000002"><a xlink:href="../../d3/d73/classfl_1_1_fixed_vector.html#a7ae4440fe977cc6495819cac64b7ad1a" target="_top" xlink:title=" ">
<polygon fill="white" stroke="#666666" points="287.38,-137.75 170.12,-137.75 170.12,-117 287.38,-117 287.38,-137.75"/>
<text text-anchor="middle" x="228.75" y="-124.25" font-family="Helvetica,sans-Serif" font-size="10.00">fl::FixedVector::begin</text>
</a>
</g>
</g>
<!-- Node1&#45;&gt;Node2 -->
<g id="edge1_Node000001_Node000002" class="edge">
<title>Node1&#45;&gt;Node2</title>
<g id="a_edge1_Node000001_Node000002"><a xlink:title=" ">
<path fill="none" stroke="#63b8ff" d="M86.43,-79.22C105.63,-87.49 133.12,-98.87 157.75,-107.38 163.8,-109.46 170.19,-111.51 176.55,-113.44"/>
<polygon fill="#63b8ff" stroke="#63b8ff" points="175.14,-116.67 185.72,-116.16 177.12,-109.96 175.14,-116.67"/>
</a>
</g>
</g>
<!-- Node3 -->
<g id="Node000003" class="node">
<title>Node3</title>
<g id="a_Node000003"><a xlink:href="../../d3/d73/classfl_1_1_fixed_vector.html#a624562170056be2d8e67a9a577c130b8" target="_top" xlink:title=" ">
<polygon fill="white" stroke="#666666" points="285.88,-98.75 171.62,-98.75 171.62,-78 285.88,-78 285.88,-98.75"/>
<text text-anchor="middle" x="228.75" y="-85.25" font-family="Helvetica,sans-Serif" font-size="10.00">fl::FixedVector::clear</text>
</a>
</g>
</g>
<!-- Node1&#45;&gt;Node3 -->
<g id="edge2_Node000001_Node000003" class="edge">
<title>Node1&#45;&gt;Node3</title>
<g id="a_edge2_Node000001_Node000003"><a xlink:title=" ">
<path fill="none" stroke="#63b8ff" d="M122.23,-75.65C134.5,-77.13 147.48,-78.7 159.99,-80.2"/>
<polygon fill="#63b8ff" stroke="#63b8ff" points="159.46,-83.67 169.8,-81.39 160.29,-76.72 159.46,-83.67"/>
</a>
</g>
</g>
<!-- Node5 -->
<g id="Node000005" class="node">
<title>Node5</title>
<g id="a_Node000005"><a xlink:href="../../d3/d73/classfl_1_1_fixed_vector.html#af8f3eb485dff77110efec26993f206c4" target="_top" xlink:title=" ">
<polygon fill="white" stroke="#666666" points="282.88,-59.75 174.62,-59.75 174.62,-39 282.88,-39 282.88,-59.75"/>
<text text-anchor="middle" x="228.75" y="-46.25" font-family="Helvetica,sans-Serif" font-size="10.00">fl::FixedVector::end</text>
</a>
</g>
</g>
<!-- Node1&#45;&gt;Node5 -->
<g id="edge4_Node000001_Node000005" class="edge">
<title>Node1&#45;&gt;Node5</title>
<g id="a_edge4_Node000001_Node000005"><a xlink:title=" ">
<path fill="none" stroke="#63b8ff" d="M122.23,-61.46C135.54,-59.94 149.7,-58.32 163.18,-56.77"/>
<polygon fill="#63b8ff" stroke="#63b8ff" points="163.26,-60.28 172.8,-55.67 162.47,-53.33 163.26,-60.28"/>
</a>
</g>
</g>
<!-- Node6 -->
<g id="Node000006" class="node">
<title>Node6</title>
<g id="a_Node000006"><a xlink:href="../../d3/d73/classfl_1_1_fixed_vector.html#ad54b97a02650df09aee087d758e0352a" target="_top" xlink:title=" ">
<polygon fill="white" stroke="#666666" points="299.75,-20.75 157.75,-20.75 157.75,0 299.75,0 299.75,-20.75"/>
<text text-anchor="middle" x="228.75" y="-7.25" font-family="Helvetica,sans-Serif" font-size="10.00">fl::FixedVector::push_back</text>
</a>
</g>
</g>
<!-- Node1&#45;&gt;Node6 -->
<g id="edge5_Node000001_Node000006" class="edge">
<title>Node1&#45;&gt;Node6</title>
<g id="a_edge5_Node000001_Node000006"><a xlink:title=" ">
<path fill="none" stroke="#63b8ff" d="M87.26,-57.52C106.43,-49.51 133.51,-38.62 157.75,-30.38 163.81,-28.32 170.2,-26.29 176.57,-24.36"/>
<polygon fill="#63b8ff" stroke="#63b8ff" points="177.14,-27.84 185.74,-21.65 175.16,-21.13 177.14,-27.84"/>
</a>
</g>
</g>
<!-- Node4 -->
<g id="Node000004" class="node">
<title>Node4</title>
<g id="a_Node000004"><a xlink:href="../../d3/d73/classfl_1_1_fixed_vector.html#a86ca6e866b11e1089e3ac0c043f00e0b" target="_top" xlink:title=" ">
<polygon fill="white" stroke="#666666" points="472.5,-98.75 335.75,-98.75 335.75,-78 472.5,-78 472.5,-98.75"/>
<text text-anchor="middle" x="404.12" y="-85.25" font-family="Helvetica,sans-Serif" font-size="10.00">fl::FixedVector::pop_back</text>
</a>
</g>
</g>
<!-- Node3&#45;&gt;Node4 -->
<g id="edge3_Node000003_Node000004" class="edge">
<title>Node3&#45;&gt;Node4</title>
<g id="a_edge3_Node000003_Node000004"><a xlink:title=" ">
<path fill="none" stroke="#63b8ff" d="M286.04,-88.38C298.2,-88.38 311.27,-88.38 324.12,-88.38"/>
<polygon fill="#63b8ff" stroke="#63b8ff" points="323.81,-91.88 333.81,-88.38 323.81,-84.88 323.81,-91.88"/>
</a>
</g>
</g>
</g>
</svg>
