<?xml version="1.0" encoding="UTF-8" standalone="no"?>
<!DOCTYPE svg PUBLIC "-//W3C//DTD SVG 1.1//EN"
 "http://www.w3.org/Graphics/SVG/1.1/DTD/svg11.dtd">
<!-- Generated by graphviz version 12.2.1 (20241206.2353)
 -->
<!-- Title: fl::FixedVector::end Pages: 1 -->
<svg width="761pt" height="1245pt"
 viewBox="0.00 0.00 760.75 1244.91" xmlns="http://www.w3.org/2000/svg" xmlns:xlink="http://www.w3.org/1999/xlink">
<g id="graph0" class="graph" transform="scale(1 1) rotate(0) translate(4 1240.91)">
<title>fl::FixedVector::end</title>
<!-- Node1 -->
<g id="Node000001" class="node">
<title>Node1</title>
<g id="a_Node000001"><a xlink:title=" ">
<polygon fill="#999999" stroke="#666666" points="752.75,-251.75 644.5,-251.75 644.5,-231 752.75,-231 752.75,-251.75"/>
<text text-anchor="middle" x="698.62" y="-238.25" font-family="Helvetica,sans-Serif" font-size="10.00">fl::FixedVector::end</text>
</a>
</g>
</g>
<!-- Node2 -->
<g id="Node000002" class="node">
<title>Node2</title>
<g id="a_Node000002"><a xlink:href="../../d3/d73/classfl_1_1_fixed_vector.html#a72779714d75525dfbc46af7a4f318d9d" target="_top" xlink:title=" ">
<polygon fill="white" stroke="#666666" points="608.5,-931.75 486.75,-931.75 486.75,-911 608.5,-911 608.5,-931.75"/>
<text text-anchor="middle" x="547.62" y="-918.25" font-family="Helvetica,sans-Serif" font-size="10.00">fl::FixedVector::assign</text>
</a>
</g>
</g>
<!-- Node1&#45;&gt;Node2 -->
<g id="edge1_Node000001_Node000002" class="edge">
<title>Node1&#45;&gt;Node2</title>
<g id="a_edge1_Node000001_Node000002"><a xlink:title=" ">
<path fill="none" stroke="#63b8ff" d="M697.67,-263.16C697.45,-365.88 691.56,-801 608.5,-901.38 605.43,-905.09 601.64,-908.12 597.48,-910.59"/>
<polygon fill="#63b8ff" stroke="#63b8ff" points="701.17,-263.37 697.67,-253.37 694.17,-263.37 701.17,-263.37"/>
</a>
</g>
</g>
<!-- Node3 -->
<g id="Node000003" class="node">
<title>Node3</title>
<g id="a_Node000003"><a xlink:href="../../d2/df3/classfl_1_1_fixed_map.html#a25851b559aa5ae81d52c0c5792d10bf5" target="_top" xlink:title=" ">
<polygon fill="white" stroke="#666666" points="596.88,-892.75 498.38,-892.75 498.38,-872 596.88,-872 596.88,-892.75"/>
<text text-anchor="middle" x="547.62" y="-879.25" font-family="Helvetica,sans-Serif" font-size="10.00">fl::FixedMap::end</text>
</a>
</g>
</g>
<!-- Node1&#45;&gt;Node3 -->
<g id="edge2_Node000001_Node000003" class="edge">
<title>Node1&#45;&gt;Node3</title>
<g id="a_edge2_Node000001_Node000003"><a xlink:title=" ">
<path fill="none" stroke="#63b8ff" d="M692.52,-263.34C668.59,-366.27 568.01,-798.96 551.06,-871.91"/>
<polygon fill="#63b8ff" stroke="#63b8ff" points="695.9,-264.24 694.76,-253.71 689.09,-262.65 695.9,-264.24"/>
</a>
</g>
</g>
<!-- Node18 -->
<g id="Node000018" class="node">
<title>Node18</title>
<g id="a_Node000018"><a xlink:href="../../d2/df3/classfl_1_1_fixed_map.html#a0c2f74febc0761d26128a3a63d225cf2" target="_top" xlink:title=" ">
<polygon fill="#fff0f0" stroke="red" points="278,-668.75 169.75,-668.75 169.75,-648 278,-648 278,-668.75"/>
<text text-anchor="middle" x="223.88" y="-655.25" font-family="Helvetica,sans-Serif" font-size="10.00">fl::FixedMap::insert</text>
</a>
</g>
</g>
<!-- Node1&#45;&gt;Node18 -->
<g id="edge62_Node000001_Node000018" class="edge">
<title>Node1&#45;&gt;Node18</title>
<g id="a_edge62_Node000001_Node000018"><a xlink:title=" ">
<path fill="none" stroke="#63b8ff" d="M691.81,-262.66C680.7,-300.3 653.47,-379.6 608.5,-432.38 508.23,-550.05 330.49,-621.8 257.52,-647.56"/>
<polygon fill="#63b8ff" stroke="#63b8ff" points="695.06,-264.03 694.44,-253.45 688.33,-262.11 695.06,-264.03"/>
</a>
</g>
</g>
<!-- Node35 -->
<g id="Node000035" class="node">
<title>Node35</title>
<g id="a_Node000035"><a xlink:href="../../d2/df3/classfl_1_1_fixed_map.html#aec5a56d6c425dcc1584330127aab3ba5" target="_top" xlink:title=" ">
<polygon fill="white" stroke="#666666" points="596.88,-423.75 498.38,-423.75 498.38,-403 596.88,-403 596.88,-423.75"/>
<text text-anchor="middle" x="547.62" y="-410.25" font-family="Helvetica,sans-Serif" font-size="10.00">fl::FixedMap::end</text>
</a>
</g>
</g>
<!-- Node1&#45;&gt;Node35 -->
<g id="edge35_Node000001_Node000035" class="edge">
<title>Node1&#45;&gt;Node35</title>
<g id="a_edge35_Node000001_Node000035"><a xlink:title=" ">
<path fill="none" stroke="#63b8ff" d="M690.71,-262.55C678.98,-295.27 652.09,-358.02 608.5,-393.38 603.9,-397.1 598.58,-400.15 593.05,-402.63"/>
<polygon fill="#63b8ff" stroke="#63b8ff" points="693.92,-263.99 693.86,-253.39 687.3,-261.71 693.92,-263.99"/>
</a>
</g>
</g>
<!-- Node36 -->
<g id="Node000036" class="node">
<title>Node36</title>
<g id="a_Node000036"><a xlink:href="../../dd/d44/classfl_1_1_fixed_set.html#a56d8655dc1ed6607bac0ba0790a276fb" target="_top" xlink:title=" ">
<polygon fill="white" stroke="#666666" points="594.25,-384.75 501,-384.75 501,-364 594.25,-364 594.25,-384.75"/>
<text text-anchor="middle" x="547.62" y="-371.25" font-family="Helvetica,sans-Serif" font-size="10.00">fl::FixedSet::end</text>
</a>
</g>
</g>
<!-- Node1&#45;&gt;Node36 -->
<g id="edge36_Node000001_Node000036" class="edge">
<title>Node1&#45;&gt;Node36</title>
<g id="a_edge36_Node000001_Node000036"><a xlink:title=" ">
<path fill="none" stroke="#63b8ff" d="M677.22,-259.59C645.68,-287.74 586.07,-340.95 560.62,-363.67"/>
<polygon fill="#63b8ff" stroke="#63b8ff" points="679.42,-262.31 684.55,-253.04 674.76,-257.09 679.42,-262.31"/>
</a>
</g>
</g>
<!-- Node45 -->
<g id="Node000045" class="node">
<title>Node45</title>
<g id="a_Node000045"><a xlink:href="../../dd/d44/classfl_1_1_fixed_set.html#a444989952b00bdc5b2bd91f821d71af6" target="_top" xlink:title=" ">
<polygon fill="white" stroke="#666666" points="594.25,-137.75 501,-137.75 501,-117 594.25,-117 594.25,-137.75"/>
<text text-anchor="middle" x="547.62" y="-124.25" font-family="Helvetica,sans-Serif" font-size="10.00">fl::FixedSet::end</text>
</a>
</g>
</g>
<!-- Node1&#45;&gt;Node45 -->
<g id="edge50_Node000001_Node000045" class="edge">
<title>Node1&#45;&gt;Node45</title>
<g id="a_edge50_Node000001_Node000045"><a xlink:title=" ">
<path fill="none" stroke="#63b8ff" d="M682.27,-221.69C665.84,-201.71 638.1,-171.02 608.5,-151.38 600.57,-146.11 591.3,-141.7 582.46,-138.15"/>
<polygon fill="#63b8ff" stroke="#63b8ff" points="679.45,-223.76 688.44,-229.36 684.9,-219.37 679.45,-223.76"/>
</a>
</g>
</g>
<!-- Node46 -->
<g id="Node000046" class="node">
<title>Node46</title>
<g id="a_Node000046"><a xlink:href="../../d3/d73/classfl_1_1_fixed_vector.html#a9c810e60da5a65bd52f663481e3448f8" target="_top" xlink:title=" ">
<polygon fill="white" stroke="#666666" points="450.75,-213.75 333.5,-213.75 333.5,-193 450.75,-193 450.75,-213.75"/>
<text text-anchor="middle" x="392.12" y="-200.25" font-family="Helvetica,sans-Serif" font-size="10.00">fl::FixedVector::erase</text>
</a>
</g>
</g>
<!-- Node1&#45;&gt;Node46 -->
<g id="edge51_Node000001_Node000046" class="edge">
<title>Node1&#45;&gt;Node46</title>
<g id="a_edge51_Node000001_Node000046"><a xlink:title=" ">
<path fill="none" stroke="#63b8ff" d="M632.72,-237.39C590.91,-234.36 535.46,-229.49 486.75,-222.38 471.82,-220.19 455.67,-217.16 441.06,-214.16"/>
<polygon fill="#63b8ff" stroke="#63b8ff" points="632.4,-240.87 642.62,-238.09 632.9,-233.89 632.4,-240.87"/>
</a>
</g>
</g>
<!-- Node47 -->
<g id="Node000047" class="node">
<title>Node47</title>
<g id="a_Node000047"><a xlink:href="../../d3/d73/classfl_1_1_fixed_vector.html#ad6ba1f77947ca05fd915d93998d4101c" target="_top" xlink:title=" ">
<polygon fill="white" stroke="#666666" points="606.25,-289.75 489,-289.75 489,-269 606.25,-269 606.25,-289.75"/>
<text text-anchor="middle" x="547.62" y="-276.25" font-family="Helvetica,sans-Serif" font-size="10.00">fl::FixedVector::erase</text>
</a>
</g>
</g>
<!-- Node1&#45;&gt;Node47 -->
<g id="edge52_Node000001_Node000047" class="edge">
<title>Node1&#45;&gt;Node47</title>
<g id="a_edge52_Node000001_Node000047"><a xlink:title=" ">
<path fill="none" stroke="#63b8ff" d="M644.64,-254.89C627.05,-259.37 607.71,-264.31 591.03,-268.56"/>
<polygon fill="#63b8ff" stroke="#63b8ff" points="645.03,-258.4 653.86,-252.54 643.3,-251.62 645.03,-258.4"/>
</a>
</g>
</g>
<!-- Node48 -->
<g id="Node000048" class="node">
<title>Node48</title>
<g id="a_Node000048"><a xlink:href="../../d3/d73/classfl_1_1_fixed_vector.html#ae27c19abd3cc3e8c6d78b9b42085918c" target="_top" xlink:title=" ">
<polygon fill="white" stroke="#666666" points="601.75,-213.75 493.5,-213.75 493.5,-193 601.75,-193 601.75,-213.75"/>
<text text-anchor="middle" x="547.62" y="-200.25" font-family="Helvetica,sans-Serif" font-size="10.00">fl::FixedVector::find</text>
</a>
</g>
</g>
<!-- Node1&#45;&gt;Node48 -->
<g id="edge56_Node000001_Node000048" class="edge">
<title>Node1&#45;&gt;Node48</title>
<g id="a_edge56_Node000001_Node000048"><a xlink:title=" ">
<path fill="none" stroke="#63b8ff" d="M644.64,-227.86C627.05,-223.38 607.71,-218.44 591.03,-214.19"/>
<polygon fill="#63b8ff" stroke="#63b8ff" points="643.3,-231.13 653.86,-230.21 645.03,-224.35 643.3,-231.13"/>
</a>
</g>
</g>
<!-- Node49 -->
<g id="Node000049" class="node">
<title>Node49</title>
<g id="a_Node000049"><a xlink:href="../../d3/d73/classfl_1_1_fixed_vector.html#a852557bd96bddce07ddfcb63ba9bb52c" target="_top" xlink:title=" ">
<polygon fill="white" stroke="#666666" points="445.88,-174.75 338.38,-174.75 338.38,-154 445.88,-154 445.88,-174.75"/>
<text text-anchor="middle" x="392.12" y="-161.25" font-family="Helvetica,sans-Serif" font-size="10.00">fl::FixedVector::has</text>
</a>
</g>
</g>
<!-- Node1&#45;&gt;Node49 -->
<g id="edge61_Node000001_Node000049" class="edge">
<title>Node1&#45;&gt;Node49</title>
<g id="a_edge61_Node000001_Node000049"><a xlink:title=" ">
<path fill="none" stroke="#63b8ff" d="M676.44,-223.66C659.27,-210.39 633.86,-193.08 608.5,-184.38 555.4,-166.14 490.87,-162.38 446.37,-162.41"/>
<polygon fill="#63b8ff" stroke="#63b8ff" points="673.88,-226.1 683.89,-229.6 678.25,-220.63 673.88,-226.1"/>
</a>
</g>
</g>
<!-- Node50 -->
<g id="Node000050" class="node">
<title>Node50</title>
<g id="a_Node000050"><a xlink:href="../../d3/d73/classfl_1_1_fixed_vector.html#a828af7b40780d72c46fdd71237f5d9ec" target="_top" xlink:title=" ">
<polygon fill="white" stroke="#666666" points="601.75,-98.75 493.5,-98.75 493.5,-78 601.75,-78 601.75,-98.75"/>
<text text-anchor="middle" x="547.62" y="-85.25" font-family="Helvetica,sans-Serif" font-size="10.00">fl::FixedVector::find</text>
</a>
</g>
</g>
<!-- Node1&#45;&gt;Node50 -->
<g id="edge59_Node000001_Node000050" class="edge">
<title>Node1&#45;&gt;Node50</title>
<g id="a_edge59_Node000001_Node000050"><a xlink:title=" ">
<path fill="none" stroke="#63b8ff" d="M688.88,-220.37C675.67,-191.15 647.92,-138.43 608.5,-108.38 603.71,-104.72 598.21,-101.71 592.53,-99.24"/>
<polygon fill="#63b8ff" stroke="#63b8ff" points="685.55,-221.51 692.76,-229.27 691.97,-218.71 685.55,-221.51"/>
</a>
</g>
</g>
<!-- Node51 -->
<g id="Node000051" class="node">
<title>Node51</title>
<g id="a_Node000051"><a xlink:href="../../d3/d73/classfl_1_1_fixed_vector.html#a18f2e8f0e51b9c488721f238dba5bb96" target="_top" xlink:title=" ">
<polygon fill="white" stroke="#666666" points="607.75,-59.75 487.5,-59.75 487.5,-39 607.75,-39 607.75,-59.75"/>
<text text-anchor="middle" x="547.62" y="-46.25" font-family="Helvetica,sans-Serif" font-size="10.00">fl::FixedVector::find_if</text>
</a>
</g>
</g>
<!-- Node1&#45;&gt;Node51 -->
<g id="edge60_Node000001_Node000051" class="edge">
<title>Node1&#45;&gt;Node51</title>
<g id="a_edge60_Node000001_Node000051"><a xlink:title=" ">
<path fill="none" stroke="#63b8ff" d="M692.23,-219.98C682.03,-183.79 656.49,-110.42 608.5,-69.38 604.17,-65.67 599.13,-62.65 593.84,-60.18"/>
<polygon fill="#63b8ff" stroke="#63b8ff" points="688.75,-220.52 694.73,-229.27 695.52,-218.7 688.75,-220.52"/>
</a>
</g>
</g>
<!-- Node52 -->
<g id="Node000052" class="node">
<title>Node52</title>
<g id="a_Node000052"><a xlink:href="../../d3/d73/classfl_1_1_fixed_vector.html#ae111712adb74af448c39d9c6d6a1fafa" target="_top" xlink:title=" ">
<polygon fill="white" stroke="#666666" points="606.62,-20.75 488.62,-20.75 488.62,0 606.62,0 606.62,-20.75"/>
<text text-anchor="middle" x="547.62" y="-7.25" font-family="Helvetica,sans-Serif" font-size="10.00">fl::FixedVector::insert</text>
</a>
</g>
</g>
<!-- Node1&#45;&gt;Node52 -->
<g id="edge63_Node000001_Node000052" class="edge">
<title>Node1&#45;&gt;Node52</title>
<g id="a_edge63_Node000001_Node000052"><a xlink:title=" ">
<path fill="none" stroke="#63b8ff" d="M694.48,-219.7C687.19,-177.28 665.22,-82.87 608.5,-30.38 604.48,-26.65 599.74,-23.62 594.73,-21.15"/>
<polygon fill="#63b8ff" stroke="#63b8ff" points="690.99,-220.05 696.02,-229.37 697.9,-218.95 690.99,-220.05"/>
</a>
</g>
</g>
<!-- Node4 -->
<g id="Node000004" class="node">
<title>Node4</title>
<g id="a_Node000004"><a xlink:href="../../d2/df3/classfl_1_1_fixed_map.html#a85134d13ee9474e0ac60284e965ccbb3" target="_top" xlink:title=" ">
<polygon fill="white" stroke="#666666" points="441.38,-835.75 342.88,-835.75 342.88,-815 441.38,-815 441.38,-835.75"/>
<text text-anchor="middle" x="392.12" y="-822.25" font-family="Helvetica,sans-Serif" font-size="10.00">fl::FixedMap::find</text>
</a>
</g>
</g>
<!-- Node3&#45;&gt;Node4 -->
<g id="edge3_Node000003_Node000004" class="edge">
<title>Node3&#45;&gt;Node4</title>
<g id="a_edge3_Node000003_Node000004"><a xlink:title=" ">
<path fill="none" stroke="#63b8ff" d="M506.93,-867.64C480.45,-857.8 446.22,-845.09 422.25,-836.19"/>
<polygon fill="#63b8ff" stroke="#63b8ff" points="505.38,-870.79 515.97,-870.99 507.82,-864.23 505.38,-870.79"/>
</a>
</g>
</g>
<!-- Node5 -->
<g id="Node000005" class="node">
<title>Node5</title>
<g id="a_Node000005"><a xlink:href="../../d2/df3/classfl_1_1_fixed_map.html#aad1402bd34a5c134fa39bc0593ffd5ba" target="_top" xlink:title=" ">
<polygon fill="white" stroke="#666666" points="105.25,-707.75 9,-707.75 9,-687 105.25,-687 105.25,-707.75"/>
<text text-anchor="middle" x="57.12" y="-694.25" font-family="Helvetica,sans-Serif" font-size="10.00">fl::FixedMap::get</text>
</a>
</g>
</g>
<!-- Node3&#45;&gt;Node5 -->
<g id="edge17_Node000003_Node000005" class="edge">
<title>Node3&#45;&gt;Node5</title>
<g id="a_edge17_Node000003_Node000005"><a xlink:title=" ">
<path fill="none" stroke="#63b8ff" d="M544.62,-860.26C539.09,-813.51 519.15,-704.79 450.75,-654.38 343.11,-575.04 278.73,-602.3 150.25,-639.38 118.29,-648.6 86.73,-672.55 70.13,-686.62"/>
<polygon fill="#63b8ff" stroke="#63b8ff" points="541.14,-860.62 545.67,-870.2 548.1,-859.89 541.14,-860.62"/>
</a>
</g>
</g>
<!-- Node6 -->
<g id="Node000006" class="node">
<title>Node6</title>
<g id="a_Node000006"><a xlink:href="../../d2/df3/classfl_1_1_fixed_map.html#ac2c703c3d250cdb2c30101766c1810d6" target="_top" xlink:title=" ">
<polygon fill="#fff0f0" stroke="red" points="272,-797.75 175.75,-797.75 175.75,-777 272,-777 272,-797.75"/>
<text text-anchor="middle" x="223.88" y="-784.25" font-family="Helvetica,sans-Serif" font-size="10.00">fl::FixedMap::get</text>
</a>
</g>
</g>
<!-- Node3&#45;&gt;Node6 -->
<g id="edge18_Node000003_Node000006" class="edge">
<title>Node3&#45;&gt;Node6</title>
<g id="a_edge18_Node000003_Node000006"><a xlink:title=" ">
<path fill="none" stroke="#63b8ff" d="M529.57,-863.55C511.84,-845.4 482.32,-818.88 450.75,-806.38 392.39,-783.26 319.07,-781.57 272.09,-783.59"/>
<polygon fill="#63b8ff" stroke="#63b8ff" points="526.82,-865.74 536.24,-870.6 531.9,-860.93 526.82,-865.74"/>
</a>
</g>
</g>
<!-- Node12 -->
<g id="Node000012" class="node">
<title>Node12</title>
<g id="a_Node000012"><a xlink:href="../../de/d10/classfl_1_1_rectangular_draw_buffer.html#ad2a4686bb98c39141431b31ba9d58150" target="_top" xlink:title=" ">
<polygon fill="white" stroke="#666666" points="297.5,-759.12 150.25,-759.12 150.25,-725.62 297.5,-725.62 297.5,-759.12"/>
<text text-anchor="start" x="158.25" y="-745.62" font-family="Helvetica,sans-Serif" font-size="10.00">fl::RectangularDrawBuffer</text>
<text text-anchor="middle" x="223.88" y="-732.88" font-family="Helvetica,sans-Serif" font-size="10.00">::getLedsBufferBytesForPin</text>
</a>
</g>
</g>
<!-- Node3&#45;&gt;Node12 -->
<g id="edge19_Node000003_Node000012" class="edge">
<title>Node3&#45;&gt;Node12</title>
<g id="a_edge19_Node000003_Node000012"><a xlink:title=" ">
<path fill="none" stroke="#63b8ff" d="M533.73,-862.12C517.45,-838.39 487.15,-799.86 450.75,-780.38 403.77,-755.23 344.09,-745.99 297.87,-742.91"/>
<polygon fill="#63b8ff" stroke="#63b8ff" points="530.72,-863.92 539.17,-870.31 536.55,-860.04 530.72,-863.92"/>
</a>
</g>
</g>
<!-- Node13 -->
<g id="Node000013" class="node">
<title>Node13</title>
<g id="a_Node000013"><a xlink:href="../../d2/df3/classfl_1_1_fixed_map.html#a460e3d43563610531faa13038b8f3682" target="_top" xlink:title=" ">
<polygon fill="#fff0f0" stroke="red" points="272.75,-707.75 175,-707.75 175,-687 272.75,-687 272.75,-707.75"/>
<text text-anchor="middle" x="223.88" y="-694.25" font-family="Helvetica,sans-Serif" font-size="10.00">fl::FixedMap::has</text>
</a>
</g>
</g>
<!-- Node3&#45;&gt;Node13 -->
<g id="edge20_Node000003_Node000013" class="edge">
<title>Node3&#45;&gt;Node13</title>
<g id="a_edge20_Node000003_Node000013"><a xlink:title=" ">
<path fill="none" stroke="#63b8ff" d="M538.13,-861.05C524.58,-829.93 494.99,-772.61 450.75,-743.38 397,-707.85 321.52,-698.82 272.9,-697"/>
<polygon fill="#63b8ff" stroke="#63b8ff" points="534.87,-862.31 541.96,-870.18 541.32,-859.61 534.87,-862.31"/>
</a>
</g>
</g>
<!-- Node3&#45;&gt;Node18 -->
<g id="edge25_Node000003_Node000018" class="edge">
<title>Node3&#45;&gt;Node18</title>
<g id="a_edge25_Node000003_Node000018"><a xlink:title=" ">
<path fill="none" stroke="#63b8ff" d="M542,-860.86C532.37,-821.72 506.31,-739.13 450.75,-698.38 400.66,-661.63 327.74,-654.81 278.41,-655.1"/>
<polygon fill="#63b8ff" stroke="#63b8ff" points="538.55,-861.51 544.22,-870.46 545.37,-859.93 538.55,-861.51"/>
</a>
</g>
</g>
<!-- Node25 -->
<g id="Node000025" class="node">
<title>Node25</title>
<g id="a_Node000025"><a xlink:href="../../d2/df3/classfl_1_1_fixed_map.html#aa0d6bdcd0a910553c308d92c6ead41b0" target="_top" xlink:title=" ">
<polygon fill="white" stroke="#666666" points="114.25,-873.75 0,-873.75 0,-853 114.25,-853 114.25,-873.75"/>
<text text-anchor="middle" x="57.12" y="-860.25" font-family="Helvetica,sans-Serif" font-size="10.00">fl::FixedMap::update</text>
</a>
</g>
</g>
<!-- Node3&#45;&gt;Node25 -->
<g id="edge34_Node000003_Node000025" class="edge">
<title>Node3&#45;&gt;Node25</title>
<g id="a_edge34_Node000003_Node000025"><a xlink:title=" ">
<path fill="none" stroke="#63b8ff" d="M488.89,-899.96C488.14,-900.73 487.43,-901.54 486.75,-902.38 441.74,-958.01 504.1,-1174.69 450.75,-1222.38 398.41,-1269.16 156.43,-1185.24 150.25,-1179.38 58.19,-1092.09 56.52,-918.55 57.7,-874"/>
<polygon fill="#63b8ff" stroke="#63b8ff" points="491.02,-902.74 496.78,-893.85 486.73,-897.21 491.02,-902.74"/>
</a>
</g>
</g>
<!-- Node26 -->
<g id="Node000026" class="node">
<title>Node26</title>
<g id="a_Node000026"><a xlink:href="../../d2/df3/classfl_1_1_fixed_map.html#a86e9680f024d9fb7a7fa9f96a90f4a1e" target="_top" xlink:title=" ">
<polygon fill="#fff0f0" stroke="red" points="275,-1028.75 172.75,-1028.75 172.75,-1008 275,-1008 275,-1028.75"/>
<text text-anchor="middle" x="223.88" y="-1015.25" font-family="Helvetica,sans-Serif" font-size="10.00">fl::FixedMap::next</text>
</a>
</g>
</g>
<!-- Node3&#45;&gt;Node26 -->
<g id="edge30_Node000003_Node000026" class="edge">
<title>Node3&#45;&gt;Node26</title>
<g id="a_edge30_Node000003_Node000026"><a xlink:title=" ">
<path fill="none" stroke="#63b8ff" d="M491.43,-898.76C489.79,-899.89 488.23,-901.09 486.75,-902.38 459.73,-925.82 479.24,-952.73 450.75,-974.38 400.01,-1012.93 324.82,-1020.52 275.34,-1020.77"/>
<polygon fill="#63b8ff" stroke="#63b8ff" points="493.08,-901.85 500.04,-893.87 489.62,-895.76 493.08,-901.85"/>
</a>
</g>
</g>
<!-- Node27 -->
<g id="Node000027" class="node">
<title>Node27</title>
<g id="a_Node000027"><a xlink:href="../../d2/df3/classfl_1_1_fixed_map.html#a5c2aef379d79a375b2dd6ed22bef7beb" target="_top" xlink:title=" ">
<polygon fill="white" stroke="#666666" points="288.5,-989.75 159.25,-989.75 159.25,-969 288.5,-969 288.5,-989.75"/>
<text text-anchor="middle" x="223.88" y="-976.25" font-family="Helvetica,sans-Serif" font-size="10.00">fl::FixedMap::operator[]</text>
</a>
</g>
</g>
<!-- Node3&#45;&gt;Node27 -->
<g id="edge31_Node000003_Node000027" class="edge">
<title>Node3&#45;&gt;Node27</title>
<g id="a_edge31_Node000003_Node000027"><a xlink:title=" ">
<path fill="none" stroke="#63b8ff" d="M494.3,-897.94C491.68,-899.31 489.15,-900.78 486.75,-902.38 466.55,-915.79 471.98,-931.66 450.75,-943.38 401.03,-970.81 336.38,-978.82 288.99,-980.56"/>
<polygon fill="#63b8ff" stroke="#63b8ff" points="495.68,-901.16 503.33,-893.82 492.78,-894.79 495.68,-901.16"/>
</a>
</g>
</g>
<!-- Node28 -->
<g id="Node000028" class="node">
<title>Node28</title>
<g id="a_Node000028"><a xlink:href="../../d2/df3/classfl_1_1_fixed_map.html#aa32e21164660946c105d35b3d20ee3bc" target="_top" xlink:title=" ">
<polygon fill="white" stroke="#666666" points="288.5,-950.75 159.25,-950.75 159.25,-930 288.5,-930 288.5,-950.75"/>
<text text-anchor="middle" x="223.88" y="-937.25" font-family="Helvetica,sans-Serif" font-size="10.00">fl::FixedMap::operator[]</text>
</a>
</g>
</g>
<!-- Node3&#45;&gt;Node28 -->
<g id="edge32_Node000003_Node000028" class="edge">
<title>Node3&#45;&gt;Node28</title>
<g id="a_edge32_Node000003_Node000028"><a xlink:title=" ">
<path fill="none" stroke="#63b8ff" d="M500.96,-896.88C496.13,-898.64 491.32,-900.48 486.75,-902.38 470.23,-909.23 467.96,-915.5 450.75,-920.38 397.53,-935.45 334.69,-940 288.82,-941.04"/>
<polygon fill="#63b8ff" stroke="#63b8ff" points="501.78,-900.3 510.06,-893.69 499.47,-893.69 501.78,-900.3"/>
</a>
</g>
</g>
<!-- Node29 -->
<g id="Node000029" class="node">
<title>Node29</title>
<g id="a_Node000029"><a xlink:href="../../d2/df3/classfl_1_1_fixed_map.html#a35706a466e8c68cf3c5e9b8c94f8e17d" target="_top" xlink:title=" ">
<polygon fill="white" stroke="#666666" points="275,-911.75 172.75,-911.75 172.75,-891 275,-891 275,-911.75"/>
<text text-anchor="middle" x="223.88" y="-898.25" font-family="Helvetica,sans-Serif" font-size="10.00">fl::FixedMap::prev</text>
</a>
</g>
</g>
<!-- Node3&#45;&gt;Node29 -->
<g id="edge33_Node000003_Node000029" class="edge">
<title>Node3&#45;&gt;Node29</title>
<g id="a_edge33_Node000003_Node000029"><a xlink:title=" ">
<path fill="none" stroke="#63b8ff" d="M486.93,-879.62C444.14,-878.32 385.16,-877.89 333.5,-882.38 314.43,-884.03 293.68,-887.29 275.48,-890.65"/>
<polygon fill="#63b8ff" stroke="#63b8ff" points="486.65,-883.11 496.76,-879.95 486.88,-876.12 486.65,-883.11"/>
</a>
</g>
</g>
<!-- Node30 -->
<g id="Node000030" class="node">
<title>Node30</title>
<g id="a_Node000030"><a xlink:href="../../d2/df3/classfl_1_1_fixed_map.html#a8bcf77d4d868a69200434b127876d928" target="_top" xlink:title=" ">
<polygon fill="white" stroke="#666666" points="441.38,-911.75 342.88,-911.75 342.88,-891 441.38,-891 441.38,-911.75"/>
<text text-anchor="middle" x="392.12" y="-898.25" font-family="Helvetica,sans-Serif" font-size="10.00">fl::FixedMap::find</text>
</a>
</g>
</g>
<!-- Node3&#45;&gt;Node30 -->
<g id="edge16_Node000003_Node000030" class="edge">
<title>Node3&#45;&gt;Node30</title>
<g id="a_edge16_Node000003_Node000030"><a xlink:title=" ">
<path fill="none" stroke="#63b8ff" d="M486.83,-889.78C471.86,-891.63 455.99,-893.59 441.64,-895.37"/>
<polygon fill="#63b8ff" stroke="#63b8ff" points="487.06,-893.27 496.55,-888.57 486.2,-886.33 487.06,-893.27"/>
</a>
</g>
</g>
<!-- Node31 -->
<g id="Node000031" class="node">
<title>Node31</title>
<g id="a_Node000031"><a xlink:href="../../d2/df3/classfl_1_1_fixed_map.html#a8e3ea2bf1427c91405418b7b1a629f47" target="_top" xlink:title=" ">
<polygon fill="white" stroke="#666666" points="450.38,-1063.75 333.88,-1063.75 333.88,-1043 450.38,-1043 450.38,-1063.75"/>
<text text-anchor="middle" x="392.12" y="-1050.25" font-family="Helvetica,sans-Serif" font-size="10.00">fl::FixedMap::highest</text>
</a>
</g>
</g>
<!-- Node3&#45;&gt;Node31 -->
<g id="edge21_Node000003_Node000031" class="edge">
<title>Node3&#45;&gt;Node31</title>
<g id="a_edge21_Node000003_Node000031"><a xlink:title=" ">
<path fill="none" stroke="#63b8ff" d="M489.91,-899.39C488.81,-900.33 487.75,-901.33 486.75,-902.38 446.23,-944.81 489.71,-985.51 450.75,-1029.38 445.78,-1034.97 439.31,-1039.29 432.5,-1042.62"/>
<polygon fill="#63b8ff" stroke="#63b8ff" points="491.58,-902.49 497.92,-894 487.67,-896.68 491.58,-902.49"/>
</a>
</g>
</g>
<!-- Node32 -->
<g id="Node000032" class="node">
<title>Node32</title>
<g id="a_Node000032"><a xlink:href="../../d2/df3/classfl_1_1_fixed_map.html#a6c64dfe45f7f5f20f5c7cf0990c7e140" target="_top" xlink:title=" ">
<polygon fill="white" stroke="#666666" points="282.12,-1106.75 165.62,-1106.75 165.62,-1086 282.12,-1086 282.12,-1106.75"/>
<text text-anchor="middle" x="223.88" y="-1093.25" font-family="Helvetica,sans-Serif" font-size="10.00">fl::FixedMap::highest</text>
</a>
</g>
</g>
<!-- Node3&#45;&gt;Node32 -->
<g id="edge24_Node000003_Node000032" class="edge">
<title>Node3&#45;&gt;Node32</title>
<g id="a_edge24_Node000003_Node000032"><a xlink:title=" ">
<path fill="none" stroke="#63b8ff" d="M489.31,-899.72C488.42,-900.56 487.56,-901.45 486.75,-902.38 430.73,-966.4 515.59,-1035.3 450.75,-1090.38 396.93,-1136.08 307.13,-1120.48 258.55,-1107.19"/>
<polygon fill="#63b8ff" stroke="#63b8ff" points="491.04,-902.79 497.05,-894.07 486.91,-897.14 491.04,-902.79"/>
</a>
</g>
</g>
<!-- Node33 -->
<g id="Node000033" class="node">
<title>Node33</title>
<g id="a_Node000033"><a xlink:href="../../d2/df3/classfl_1_1_fixed_map.html#a3df8268f2e6f56bf468676209b3de6fe" target="_top" xlink:title=" ">
<polygon fill="white" stroke="#666666" points="448.5,-1195.75 335.75,-1195.75 335.75,-1175 448.5,-1175 448.5,-1195.75"/>
<text text-anchor="middle" x="392.12" y="-1182.25" font-family="Helvetica,sans-Serif" font-size="10.00">fl::FixedMap::lowest</text>
</a>
</g>
</g>
<!-- Node3&#45;&gt;Node33 -->
<g id="edge26_Node000003_Node000033" class="edge">
<title>Node3&#45;&gt;Node33</title>
<g id="a_edge26_Node000003_Node000033"><a xlink:title=" ">
<path fill="none" stroke="#63b8ff" d="M488.92,-899.99C488.16,-900.75 487.44,-901.55 486.75,-902.38 412.48,-991.77 521.74,-1069.36 450.75,-1161.38 446.45,-1166.95 440.61,-1171.24 434.31,-1174.54"/>
<polygon fill="#63b8ff" stroke="#63b8ff" points="491.04,-902.77 496.87,-893.93 486.8,-897.21 491.04,-902.77"/>
</a>
</g>
</g>
<!-- Node34 -->
<g id="Node000034" class="node">
<title>Node34</title>
<g id="a_Node000034"><a xlink:href="../../d2/df3/classfl_1_1_fixed_map.html#a66dd6159f6d84daf24be85c42a225a91" target="_top" xlink:title=" ">
<polygon fill="white" stroke="#666666" points="280.25,-1170.75 167.5,-1170.75 167.5,-1150 280.25,-1150 280.25,-1170.75"/>
<text text-anchor="middle" x="223.88" y="-1157.25" font-family="Helvetica,sans-Serif" font-size="10.00">fl::FixedMap::lowest</text>
</a>
</g>
</g>
<!-- Node3&#45;&gt;Node34 -->
<g id="edge29_Node000003_Node000034" class="edge">
<title>Node3&#45;&gt;Node34</title>
<g id="a_edge29_Node000003_Node000034"><a xlink:title=" ">
<path fill="none" stroke="#63b8ff" d="M489.28,-899.69C488.4,-900.54 487.55,-901.44 486.75,-902.38 423.29,-976.74 519.35,-1049.72 450.75,-1119.38 406.84,-1163.95 331.83,-1169.28 280.39,-1166.72"/>
<polygon fill="#63b8ff" stroke="#63b8ff" points="491.01,-902.76 496.96,-893.99 486.84,-897.14 491.01,-902.76"/>
</a>
</g>
</g>
<!-- Node4&#45;&gt;Node5 -->
<g id="edge4_Node000004_Node000005" class="edge">
<title>Node4&#45;&gt;Node5</title>
<g id="a_edge4_Node000004_Node000005"><a xlink:title=" ">
<path fill="none" stroke="#63b8ff" d="M331.32,-832.99C280.36,-836.7 206.64,-835.3 150.25,-806.38 106.6,-783.99 75.36,-731.03 63.45,-708.18"/>
<polygon fill="#63b8ff" stroke="#63b8ff" points="331.29,-836.51 340.97,-832.2 330.71,-829.53 331.29,-836.51"/>
</a>
</g>
</g>
<!-- Node4&#45;&gt;Node6 -->
<g id="edge5_Node000004_Node000006" class="edge">
<title>Node4&#45;&gt;Node6</title>
<g id="a_edge5_Node000004_Node000006"><a xlink:title=" ">
<path fill="none" stroke="#63b8ff" d="M332.84,-812.05C312.99,-807.52 291.07,-802.5 272.19,-798.19"/>
<polygon fill="#63b8ff" stroke="#63b8ff" points="331.93,-815.43 342.45,-814.25 333.48,-808.61 331.93,-815.43"/>
</a>
</g>
</g>
<!-- Node4&#45;&gt;Node12 -->
<g id="edge6_Node000004_Node000012" class="edge">
<title>Node4&#45;&gt;Node12</title>
<g id="a_edge6_Node000004_Node000012"><a xlink:title=" ">
<path fill="none" stroke="#63b8ff" d="M366.37,-808.39C347.93,-796.22 321.84,-779.99 297.5,-768.38 290.97,-765.26 283.97,-762.3 276.98,-759.57"/>
<polygon fill="#63b8ff" stroke="#63b8ff" points="364.25,-811.19 374.51,-813.84 368.15,-805.37 364.25,-811.19"/>
</a>
</g>
</g>
<!-- Node4&#45;&gt;Node13 -->
<g id="edge7_Node000004_Node000013" class="edge">
<title>Node4&#45;&gt;Node13</title>
<g id="a_edge7_Node000004_Node000013"><a xlink:title=" ">
<path fill="none" stroke="#63b8ff" d="M379.14,-805.04C363.51,-780.31 333.8,-739.06 297.5,-716.38 290.09,-711.75 281.59,-708.24 273.07,-705.59"/>
<polygon fill="#63b8ff" stroke="#63b8ff" points="376.14,-806.84 384.35,-813.53 382.11,-803.18 376.14,-806.84"/>
</a>
</g>
</g>
<!-- Node4&#45;&gt;Node18 -->
<g id="edge9_Node000004_Node000018" class="edge">
<title>Node4&#45;&gt;Node18</title>
<g id="a_edge9_Node000004_Node000018"><a xlink:title=" ">
<path fill="none" stroke="#63b8ff" d="M383.4,-804.14C370.61,-771.97 341.94,-711.2 297.5,-678.38 291.71,-674.1 285.06,-670.74 278.18,-668.1"/>
<polygon fill="#63b8ff" stroke="#63b8ff" points="380.02,-805.08 386.86,-813.17 386.56,-802.58 380.02,-805.08"/>
</a>
</g>
</g>
<!-- Node4&#45;&gt;Node25 -->
<g id="edge15_Node000004_Node000025" class="edge">
<title>Node4&#45;&gt;Node25</title>
<g id="a_edge15_Node000004_Node000025"><a xlink:title=" ">
<path fill="none" stroke="#63b8ff" d="M331.5,-834.73C320.22,-836.38 308.51,-838 297.5,-839.38 234.92,-847.19 162.88,-854.13 114.32,-858.52"/>
<polygon fill="#63b8ff" stroke="#63b8ff" points="331.72,-838.24 341.1,-833.31 330.69,-831.32 331.72,-838.24"/>
</a>
</g>
</g>
<!-- Node4&#45;&gt;Node26 -->
<g id="edge11_Node000004_Node000026" class="edge">
<title>Node4&#45;&gt;Node26</title>
<g id="a_edge11_Node000004_Node000026"><a xlink:title=" ">
<path fill="none" stroke="#63b8ff" d="M368.28,-843.24C356.43,-853.55 342.58,-867.42 333.5,-882.38 305.47,-928.51 336.28,-960.82 297.5,-998.38 291.3,-1004.38 283.47,-1008.62 275.26,-1011.6"/>
<polygon fill="#63b8ff" stroke="#63b8ff" points="370.25,-846.15 375.67,-837.06 365.76,-840.78 370.25,-846.15"/>
</a>
</g>
</g>
<!-- Node4&#45;&gt;Node27 -->
<g id="edge12_Node000004_Node000027" class="edge">
<title>Node4&#45;&gt;Node27</title>
<g id="a_edge12_Node000004_Node000027"><a xlink:title=" ">
<path fill="none" stroke="#63b8ff" d="M369.51,-843.36C357.81,-853.87 343.71,-867.89 333.5,-882.38 311.73,-913.25 326.37,-935.01 297.5,-959.38 293.1,-963.09 288.07,-966.11 282.75,-968.58"/>
<polygon fill="#63b8ff" stroke="#63b8ff" points="371.51,-846.26 376.75,-837.05 366.91,-840.98 371.51,-846.26"/>
</a>
</g>
</g>
<!-- Node4&#45;&gt;Node28 -->
<g id="edge13_Node000004_Node000028" class="edge">
<title>Node4&#45;&gt;Node28</title>
<g id="a_edge13_Node000004_Node000028"><a xlink:title=" ">
<path fill="none" stroke="#63b8ff" d="M372.05,-843.94C360.75,-855.01 346.21,-869.39 333.5,-882.38 317.23,-899 317.45,-908.4 297.5,-920.38 291.33,-924.08 284.46,-927.11 277.48,-929.59"/>
<polygon fill="#63b8ff" stroke="#63b8ff" points="374.18,-846.75 378.89,-837.25 369.29,-841.74 374.18,-846.75"/>
</a>
</g>
</g>
<!-- Node4&#45;&gt;Node29 -->
<g id="edge14_Node000004_Node000029" class="edge">
<title>Node4&#45;&gt;Node29</title>
<g id="a_edge14_Node000004_Node000029"><a xlink:title=" ">
<path fill="none" stroke="#63b8ff" d="M350.43,-840.71C344.63,-843.36 338.82,-846.27 333.5,-849.38 315.99,-859.58 315.38,-867.83 297.5,-877.38 287.66,-882.63 276.46,-887.01 265.85,-890.54"/>
<polygon fill="#63b8ff" stroke="#63b8ff" points="351.6,-844.02 359.4,-836.84 348.83,-837.59 351.6,-844.02"/>
</a>
</g>
</g>
<!-- Node13&#45;&gt;Node5 -->
<g id="edge8_Node000013_Node000005" class="edge">
<title>Node13&#45;&gt;Node5</title>
<g id="a_edge8_Node000013_Node000005"><a xlink:title=" ">
<path fill="none" stroke="#63b8ff" d="M163.53,-697.38C144.53,-697.38 123.76,-697.38 105.71,-697.38"/>
<polygon fill="#63b8ff" stroke="#63b8ff" points="163.27,-700.88 173.27,-697.38 163.27,-693.88 163.27,-700.88"/>
</a>
</g>
</g>
<!-- Node18&#45;&gt;Node25 -->
<g id="edge10_Node000018_Node000025" class="edge">
<title>Node18&#45;&gt;Node25</title>
<g id="a_edge10_Node000018_Node000025"><a xlink:title=" ">
<path fill="none" stroke="#63b8ff" d="M159.39,-672.17C156.15,-673.99 153.08,-676.05 150.25,-678.38 91.8,-726.49 67.12,-820.97 60.25,-852.7"/>
<polygon fill="#63b8ff" stroke="#63b8ff" points="160.59,-675.48 168.14,-668.05 157.6,-669.15 160.59,-675.48"/>
</a>
</g>
</g>
<!-- Node31&#45;&gt;Node31 -->
<g id="edge22_Node000031_Node000031" class="edge">
<title>Node31&#45;&gt;Node31</title>
<g id="a_edge22_Node000031_Node000031"><a xlink:title=" ">
<path fill="none" stroke="#63b8ff" d="M419.49,-1075.24C415.86,-1079.08 406.74,-1081.75 392.12,-1081.75 365.4,-1081.75 357.05,-1072.81 367.07,-1064.15"/>
<polygon fill="#63b8ff" stroke="#63b8ff" points="422.95,-1074.71 417.49,-1065.63 416.1,-1076.13 422.95,-1074.71"/>
</a>
</g>
</g>
<!-- Node31&#45;&gt;Node32 -->
<g id="edge23_Node000031_Node000032" class="edge">
<title>Node31&#45;&gt;Node32</title>
<g id="a_edge23_Node000031_Node000032"><a xlink:title=" ">
<path fill="none" stroke="#63b8ff" d="M338.18,-1067.07C315.12,-1073.03 288.47,-1079.93 266.81,-1085.53"/>
<polygon fill="#63b8ff" stroke="#63b8ff" points="338.9,-1070.5 347.71,-1064.6 337.15,-1063.72 338.9,-1070.5"/>
</a>
</g>
</g>
<!-- Node33&#45;&gt;Node33 -->
<g id="edge27_Node000033_Node000033" class="edge">
<title>Node33&#45;&gt;Node33</title>
<g id="a_edge27_Node000033_Node000033"><a xlink:title=" ">
<path fill="none" stroke="#63b8ff" d="M419.49,-1207.24C415.86,-1211.08 406.74,-1213.75 392.12,-1213.75 365.4,-1213.75 357.05,-1204.81 367.07,-1196.15"/>
<polygon fill="#63b8ff" stroke="#63b8ff" points="422.95,-1206.71 417.49,-1197.63 416.1,-1208.13 422.95,-1206.71"/>
</a>
</g>
</g>
<!-- Node33&#45;&gt;Node34 -->
<g id="edge28_Node000033_Node000034" class="edge">
<title>Node33&#45;&gt;Node34</title>
<g id="a_edge28_Node000033_Node000034"><a xlink:title=" ">
<path fill="none" stroke="#63b8ff" d="M323.93,-1175.27C309.53,-1173.1 294.46,-1170.84 280.55,-1168.75"/>
<polygon fill="#63b8ff" stroke="#63b8ff" points="323.4,-1178.73 333.81,-1176.76 324.44,-1171.81 323.4,-1178.73"/>
</a>
</g>
</g>
<!-- Node37 -->
<g id="Node000037" class="node">
<title>Node37</title>
<g id="a_Node000037"><a xlink:href="../../dd/d44/classfl_1_1_fixed_set.html#a6a6213c4cb7bb8233a79b4df94cafeb3" target="_top" xlink:title=" ">
<polygon fill="white" stroke="#666666" points="275,-327.75 172.75,-327.75 172.75,-307 275,-307 275,-327.75"/>
<text text-anchor="middle" x="223.88" y="-314.25" font-family="Helvetica,sans-Serif" font-size="10.00">fl::FixedSet::erase</text>
</a>
</g>
</g>
<!-- Node36&#45;&gt;Node37 -->
<g id="edge37_Node000036_Node000037" class="edge">
<title>Node36&#45;&gt;Node37</title>
<g id="a_edge37_Node000036_Node000037"><a xlink:title=" ">
<path fill="none" stroke="#63b8ff" d="M514.4,-358.85C496.15,-350.76 472.65,-341.52 450.75,-336.38 391.56,-322.48 321.54,-318.43 275.33,-317.41"/>
<polygon fill="#63b8ff" stroke="#63b8ff" points="512.82,-361.98 523.37,-362.93 515.72,-355.61 512.82,-361.98"/>
</a>
</g>
</g>
<!-- Node38 -->
<g id="Node000038" class="node">
<title>Node38</title>
<g id="a_Node000038"><a xlink:href="../../dd/d44/classfl_1_1_fixed_set.html#a58282b747ed98977aa8980bfc71e416c" target="_top" xlink:title=" ">
<polygon fill="white" stroke="#666666" points="443.25,-289.75 341,-289.75 341,-269 443.25,-269 443.25,-289.75"/>
<text text-anchor="middle" x="392.12" y="-276.25" font-family="Helvetica,sans-Serif" font-size="10.00">fl::FixedSet::erase</text>
</a>
</g>
</g>
<!-- Node36&#45;&gt;Node38 -->
<g id="edge38_Node000036_Node000038" class="edge">
<title>Node36&#45;&gt;Node38</title>
<g id="a_edge38_Node000036_Node000038"><a xlink:title=" ">
<path fill="none" stroke="#63b8ff" d="M525.67,-356.52C506.9,-341.11 478.18,-318.94 450.75,-303.38 442.08,-298.46 432.2,-293.97 423.1,-290.25"/>
<polygon fill="#63b8ff" stroke="#63b8ff" points="523.19,-359.01 533.11,-362.72 527.67,-353.63 523.19,-359.01"/>
</a>
</g>
</g>
<!-- Node39 -->
<g id="Node000039" class="node">
<title>Node39</title>
<g id="a_Node000039"><a xlink:href="../../dd/d44/classfl_1_1_fixed_set.html#a019cb08f32a7590c69a40f119c7ebb64" target="_top" xlink:title=" ">
<polygon fill="white" stroke="#666666" points="438.75,-441.75 345.5,-441.75 345.5,-421 438.75,-421 438.75,-441.75"/>
<text text-anchor="middle" x="392.12" y="-428.25" font-family="Helvetica,sans-Serif" font-size="10.00">fl::FixedSet::find</text>
</a>
</g>
</g>
<!-- Node36&#45;&gt;Node39 -->
<g id="edge39_Node000036_Node000039" class="edge">
<title>Node36&#45;&gt;Node39</title>
<g id="a_edge39_Node000036_Node000039"><a xlink:title=" ">
<path fill="none" stroke="#63b8ff" d="M502.48,-388.82C497.16,-390.65 491.82,-392.53 486.75,-394.38 463.76,-402.75 437.91,-413.03 419.21,-420.63"/>
<polygon fill="#63b8ff" stroke="#63b8ff" points="503.48,-392.18 511.83,-385.65 501.23,-385.55 503.48,-392.18"/>
</a>
</g>
</g>
<!-- Node40 -->
<g id="Node000040" class="node">
<title>Node40</title>
<g id="a_Node000040"><a xlink:href="../../dd/d44/classfl_1_1_fixed_set.html#a19fc82e906d54a3a5cd0a8ce9e9607d9" target="_top" xlink:title=" ">
<polygon fill="white" stroke="#666666" points="270.12,-553.75 177.62,-553.75 177.62,-533 270.12,-533 270.12,-553.75"/>
<text text-anchor="middle" x="223.88" y="-540.25" font-family="Helvetica,sans-Serif" font-size="10.00">fl::FixedSet::has</text>
</a>
</g>
</g>
<!-- Node36&#45;&gt;Node40 -->
<g id="edge46_Node000036_Node000040" class="edge">
<title>Node36&#45;&gt;Node40</title>
<g id="a_edge46_Node000036_Node000040"><a xlink:title=" ">
<path fill="none" stroke="#63b8ff" d="M491.08,-390.56C489.55,-391.74 488.1,-393.01 486.75,-394.38 450.49,-430.86 489.67,-470.74 450.75,-504.38 400.77,-547.57 320.64,-551.15 270.47,-548.32"/>
<polygon fill="#63b8ff" stroke="#63b8ff" points="492.59,-393.74 499.23,-385.48 488.89,-387.8 492.59,-393.74"/>
</a>
</g>
</g>
<!-- Node41 -->
<g id="Node000041" class="node">
<title>Node41</title>
<g id="a_Node000041"><a xlink:href="../../dd/d44/classfl_1_1_fixed_set.html#a431acf10e9883de98dabb9f12dd22083" target="_top" xlink:title=" ">
<polygon fill="white" stroke="#666666" points="275.38,-505.75 172.38,-505.75 172.38,-485 275.38,-485 275.38,-505.75"/>
<text text-anchor="middle" x="223.88" y="-492.25" font-family="Helvetica,sans-Serif" font-size="10.00">fl::FixedSet::insert</text>
</a>
</g>
</g>
<!-- Node36&#45;&gt;Node41 -->
<g id="edge47_Node000036_Node000041" class="edge">
<title>Node36&#45;&gt;Node41</title>
<g id="a_edge47_Node000036_Node000041"><a xlink:title=" ">
<path fill="none" stroke="#63b8ff" d="M491.27,-390.76C489.69,-391.89 488.18,-393.09 486.75,-394.38 458.07,-420.19 482.15,-450.95 450.75,-473.38 399.77,-509.78 324.98,-509.45 275.63,-503.97"/>
<polygon fill="#63b8ff" stroke="#63b8ff" points="492.75,-393.95 499.62,-385.88 489.22,-387.91 492.75,-393.95"/>
</a>
</g>
</g>
<!-- Node42 -->
<g id="Node000042" class="node">
<title>Node42</title>
<g id="a_Node000042"><a xlink:href="../../dd/d44/classfl_1_1_fixed_set.html#a18926c88fdd3f536415854e43e24ad4a" target="_top" xlink:title=" ">
<polygon fill="white" stroke="#666666" points="272.38,-449.75 175.38,-449.75 175.38,-429 272.38,-429 272.38,-449.75"/>
<text text-anchor="middle" x="223.88" y="-436.25" font-family="Helvetica,sans-Serif" font-size="10.00">fl::FixedSet::next</text>
</a>
</g>
</g>
<!-- Node36&#45;&gt;Node42 -->
<g id="edge48_Node000036_Node000042" class="edge">
<title>Node36&#45;&gt;Node42</title>
<g id="a_edge48_Node000036_Node000042"><a xlink:title=" ">
<path fill="none" stroke="#63b8ff" d="M492.87,-390.19C490.73,-391.48 488.68,-392.87 486.75,-394.38 463.39,-412.54 476.72,-436.2 450.75,-450.38 388.03,-484.62 300.33,-464.61 254.86,-450.18"/>
<polygon fill="#63b8ff" stroke="#63b8ff" points="494.01,-393.54 501.31,-385.85 490.81,-387.31 494.01,-393.54"/>
</a>
</g>
</g>
<!-- Node43 -->
<g id="Node000043" class="node">
<title>Node43</title>
<g id="a_Node000043"><a xlink:href="../../dd/d44/classfl_1_1_fixed_set.html#a7db056ad59839116b456b6d378cbbab6" target="_top" xlink:title=" ">
<polygon fill="white" stroke="#666666" points="272.38,-407.75 175.38,-407.75 175.38,-387 272.38,-387 272.38,-407.75"/>
<text text-anchor="middle" x="223.88" y="-394.25" font-family="Helvetica,sans-Serif" font-size="10.00">fl::FixedSet::prev</text>
</a>
</g>
</g>
<!-- Node36&#45;&gt;Node43 -->
<g id="edge49_Node000036_Node000043" class="edge">
<title>Node36&#45;&gt;Node43</title>
<g id="a_edge49_Node000036_Node000043"><a xlink:title=" ">
<path fill="none" stroke="#63b8ff" d="M489.05,-378.49C427.32,-382.9 330.42,-389.83 272.73,-393.95"/>
<polygon fill="#63b8ff" stroke="#63b8ff" points="489.29,-381.98 499.02,-377.78 488.79,-375 489.29,-381.98"/>
</a>
</g>
</g>
<!-- Node44 -->
<g id="Node000044" class="node">
<title>Node44</title>
<g id="a_Node000044"><a xlink:href="../../dd/d44/classfl_1_1_fixed_set.html#a311f2810d1e9a2e17a7d34d9b7edb333" target="_top" xlink:title=" ">
<polygon fill="white" stroke="#666666" points="438.75,-365.75 345.5,-365.75 345.5,-345 438.75,-345 438.75,-365.75"/>
<text text-anchor="middle" x="392.12" y="-352.25" font-family="Helvetica,sans-Serif" font-size="10.00">fl::FixedSet::find</text>
</a>
</g>
</g>
<!-- Node36&#45;&gt;Node44 -->
<g id="edge45_Node000036_Node000044" class="edge">
<title>Node36&#45;&gt;Node44</title>
<g id="a_edge45_Node000036_Node000044"><a xlink:title=" ">
<path fill="none" stroke="#63b8ff" d="M489.35,-367.29C472.79,-365.24 454.93,-363.03 439.15,-361.07"/>
<polygon fill="#63b8ff" stroke="#63b8ff" points="488.71,-370.73 499.07,-368.49 489.57,-363.79 488.71,-370.73"/>
</a>
</g>
</g>
<!-- Node39&#45;&gt;Node37 -->
<g id="edge40_Node000039_Node000037" class="edge">
<title>Node39&#45;&gt;Node37</title>
<g id="a_edge40_Node000039_Node000037"><a xlink:title=" ">
<path fill="none" stroke="#63b8ff" d="M366.04,-414.17C331.28,-390.34 269.49,-347.97 240.59,-328.15"/>
<polygon fill="#63b8ff" stroke="#63b8ff" points="364.01,-417.03 374.24,-419.79 367.97,-411.25 364.01,-417.03"/>
</a>
</g>
</g>
<!-- Node39&#45;&gt;Node40 -->
<g id="edge41_Node000039_Node000040" class="edge">
<title>Node39&#45;&gt;Node40</title>
<g id="a_edge41_Node000039_Node000040"><a xlink:title=" ">
<path fill="none" stroke="#63b8ff" d="M373.64,-450.29C355.89,-468.62 326.89,-496.25 297.5,-514.38 285.6,-521.72 271.52,-527.84 258.94,-532.55"/>
<polygon fill="#63b8ff" stroke="#63b8ff" points="376.01,-452.88 380.37,-443.22 370.94,-448.05 376.01,-452.88"/>
</a>
</g>
</g>
<!-- Node39&#45;&gt;Node41 -->
<g id="edge42_Node000039_Node000041" class="edge">
<title>Node39&#45;&gt;Node41</title>
<g id="a_edge42_Node000039_Node000041"><a xlink:title=" ">
<path fill="none" stroke="#63b8ff" d="M352.26,-446.34C321.82,-458.05 280.2,-474.08 252.94,-484.57"/>
<polygon fill="#63b8ff" stroke="#63b8ff" points="353.44,-449.63 361.51,-442.78 350.92,-443.1 353.44,-449.63"/>
</a>
</g>
</g>
<!-- Node39&#45;&gt;Node42 -->
<g id="edge43_Node000039_Node000042" class="edge">
<title>Node39&#45;&gt;Node42</title>
<g id="a_edge43_Node000039_Node000042"><a xlink:title=" ">
<path fill="none" stroke="#63b8ff" d="M333.81,-434.13C313.86,-435.09 291.71,-436.16 272.62,-437.08"/>
<polygon fill="#63b8ff" stroke="#63b8ff" points="333.92,-437.63 343.74,-433.65 333.59,-430.64 333.92,-437.63"/>
</a>
</g>
</g>
<!-- Node39&#45;&gt;Node43 -->
<g id="edge44_Node000039_Node000043" class="edge">
<title>Node39&#45;&gt;Node43</title>
<g id="a_edge44_Node000039_Node000043"><a xlink:title=" ">
<path fill="none" stroke="#63b8ff" d="M334.09,-419.71C314.07,-415.62 291.8,-411.06 272.62,-407.14"/>
<polygon fill="#63b8ff" stroke="#63b8ff" points="333.28,-423.12 343.77,-421.69 334.68,-416.26 333.28,-423.12"/>
</a>
</g>
</g>
<!-- Node47&#45;&gt;Node37 -->
<g id="edge53_Node000047_Node000037" class="edge">
<title>Node47&#45;&gt;Node37</title>
<g id="a_edge53_Node000047_Node000037"><a xlink:title=" ">
<path fill="none" stroke="#63b8ff" d="M497.16,-265.9C453.51,-256.14 388.46,-246.83 333.5,-260.38 297.31,-269.29 259.84,-292.65 239.75,-306.55"/>
<polygon fill="#63b8ff" stroke="#63b8ff" points="496.31,-269.3 506.85,-268.17 497.91,-262.48 496.31,-269.3"/>
</a>
</g>
</g>
<!-- Node47&#45;&gt;Node38 -->
<g id="edge54_Node000047_Node000038" class="edge">
<title>Node47&#45;&gt;Node38</title>
<g id="a_edge54_Node000047_Node000038"><a xlink:title=" ">
<path fill="none" stroke="#63b8ff" d="M477.37,-279.38C466.03,-279.38 454.47,-279.38 443.7,-279.38"/>
<polygon fill="#63b8ff" stroke="#63b8ff" points="477.08,-282.88 487.08,-279.38 477.08,-275.88 477.08,-282.88"/>
</a>
</g>
</g>
<!-- Node47&#45;&gt;Node46 -->
<g id="edge55_Node000047_Node000046" class="edge">
<title>Node47&#45;&gt;Node46</title>
<g id="a_edge55_Node000047_Node000046"><a xlink:title=" ">
<path fill="none" stroke="#63b8ff" d="M504.58,-264.27C498.46,-261.57 492.35,-258.59 486.75,-255.38 469.17,-245.28 468.26,-237.58 450.75,-227.38 442.23,-222.41 432.49,-217.94 423.46,-214.24"/>
<polygon fill="#63b8ff" stroke="#63b8ff" points="502.8,-267.32 513.38,-267.94 505.49,-260.86 502.8,-267.32"/>
</a>
</g>
</g>
<!-- Node48&#45;&gt;Node46 -->
<g id="edge57_Node000048_Node000046" class="edge">
<title>Node48&#45;&gt;Node46</title>
<g id="a_edge57_Node000048_Node000046"><a xlink:title=" ">
<path fill="none" stroke="#63b8ff" d="M481.94,-203.38C471.67,-203.38 461.1,-203.38 451,-203.38"/>
<polygon fill="#63b8ff" stroke="#63b8ff" points="481.86,-206.88 491.86,-203.38 481.86,-199.88 481.86,-206.88"/>
</a>
</g>
</g>
<!-- Node48&#45;&gt;Node49 -->
<g id="edge58_Node000048_Node000049" class="edge">
<title>Node48&#45;&gt;Node49</title>
<g id="a_edge58_Node000048_Node000049"><a xlink:title=" ">
<path fill="none" stroke="#63b8ff" d="M492.86,-189.71C474.21,-184.98 453.56,-179.73 435.92,-175.25"/>
<polygon fill="#63b8ff" stroke="#63b8ff" points="491.85,-193.07 502.4,-192.14 493.57,-186.28 491.85,-193.07"/>
</a>
</g>
</g>
</g>
</svg>
