<?xml version="1.0" encoding="UTF-8" standalone="no"?>
<!DOCTYPE svg PUBLIC "-//W3C//DTD SVG 1.1//EN"
 "http://www.w3.org/Graphics/SVG/1.1/DTD/svg11.dtd">
<!-- Generated by graphviz version 12.2.1 (20241206.2353)
 -->
<!-- Title: fl::FixedVector::size Pages: 1 -->
<svg width="638pt" height="330pt"
 viewBox="0.00 0.00 637.50 329.75" xmlns="http://www.w3.org/2000/svg" xmlns:xlink="http://www.w3.org/1999/xlink">
<g id="graph0" class="graph" transform="scale(1 1) rotate(0) translate(4 325.75)">
<title>fl::FixedVector::size</title>
<!-- Node1 -->
<g id="Node000001" class="node">
<title>Node1</title>
<g id="a_Node000001"><a xlink:title=" ">
<polygon fill="#999999" stroke="#666666" points="629.5,-117.75 519.75,-117.75 519.75,-97 629.5,-97 629.5,-117.75"/>
<text text-anchor="middle" x="574.62" y="-104.25" font-family="Helvetica,sans-Serif" font-size="10.00">fl::FixedVector::size</text>
</a>
</g>
</g>
<!-- Node2 -->
<g id="Node000002" class="node">
<title>Node2</title>
<g id="a_Node000002"><a xlink:href="../../d2/df3/classfl_1_1_fixed_map.html#a0c2f74febc0761d26128a3a63d225cf2" target="_top" xlink:title=" ">
<polygon fill="white" stroke="#666666" points="483.75,-233.75 375.5,-233.75 375.5,-213 483.75,-213 483.75,-233.75"/>
<text text-anchor="middle" x="429.62" y="-220.25" font-family="Helvetica,sans-Serif" font-size="10.00">fl::FixedMap::insert</text>
</a>
</g>
</g>
<!-- Node1&#45;&gt;Node2 -->
<g id="edge1_Node000001_Node000002" class="edge">
<title>Node1&#45;&gt;Node2</title>
<g id="a_edge1_Node000001_Node000002"><a xlink:title=" ">
<path fill="none" stroke="#63b8ff" d="M551.51,-125.31C521.37,-149.76 468.35,-192.78 443.79,-212.7"/>
<polygon fill="#63b8ff" stroke="#63b8ff" points="553.69,-128.05 559.25,-119.03 549.28,-122.62 553.69,-128.05"/>
</a>
</g>
</g>
<!-- Node12 -->
<g id="Node000012" class="node">
<title>Node12</title>
<g id="a_Node000012"><a xlink:href="../../dd/d44/classfl_1_1_fixed_set.html#a431acf10e9883de98dabb9f12dd22083" target="_top" xlink:title=" ">
<polygon fill="white" stroke="#666666" points="481.12,-137.75 378.12,-137.75 378.12,-117 481.12,-117 481.12,-137.75"/>
<text text-anchor="middle" x="429.62" y="-124.25" font-family="Helvetica,sans-Serif" font-size="10.00">fl::FixedSet::insert</text>
</a>
</g>
</g>
<!-- Node1&#45;&gt;Node12 -->
<g id="edge10_Node000001_Node000012" class="edge">
<title>Node1&#45;&gt;Node12</title>
<g id="a_edge10_Node000001_Node000012"><a xlink:title=" ">
<path fill="none" stroke="#63b8ff" d="M508.28,-116.51C499.28,-117.77 490.15,-119.05 481.46,-120.27"/>
<polygon fill="#63b8ff" stroke="#63b8ff" points="508.65,-120 518.06,-115.15 507.68,-113.06 508.65,-120"/>
</a>
</g>
</g>
<!-- Node13 -->
<g id="Node000013" class="node">
<title>Node13</title>
<g id="a_Node000013"><a xlink:href="../../d2/df3/classfl_1_1_fixed_map.html#a35706a466e8c68cf3c5e9b8c94f8e17d" target="_top" xlink:title=" ">
<polygon fill="white" stroke="#666666" points="480.75,-98.75 378.5,-98.75 378.5,-78 480.75,-78 480.75,-98.75"/>
<text text-anchor="middle" x="429.62" y="-85.25" font-family="Helvetica,sans-Serif" font-size="10.00">fl::FixedMap::prev</text>
</a>
</g>
</g>
<!-- Node1&#45;&gt;Node13 -->
<g id="edge11_Node000001_Node000013" class="edge">
<title>Node1&#45;&gt;Node13</title>
<g id="a_edge11_Node000001_Node000013"><a xlink:title=" ">
<path fill="none" stroke="#63b8ff" d="M508.44,-98.71C499.22,-97.49 489.87,-96.25 480.99,-95.07"/>
<polygon fill="#63b8ff" stroke="#63b8ff" points="507.69,-102.14 518.06,-99.99 508.61,-95.21 507.69,-102.14"/>
</a>
</g>
</g>
<!-- Node14 -->
<g id="Node000014" class="node">
<title>Node14</title>
<g id="a_Node000014"><a xlink:href="../../dd/d44/classfl_1_1_fixed_set.html#a7db056ad59839116b456b6d378cbbab6" target="_top" xlink:title=" ">
<polygon fill="white" stroke="#666666" points="478.12,-59.75 381.12,-59.75 381.12,-39 478.12,-39 478.12,-59.75"/>
<text text-anchor="middle" x="429.62" y="-46.25" font-family="Helvetica,sans-Serif" font-size="10.00">fl::FixedSet::prev</text>
</a>
</g>
</g>
<!-- Node1&#45;&gt;Node14 -->
<g id="edge12_Node000001_Node000014" class="edge">
<title>Node1&#45;&gt;Node14</title>
<g id="a_edge12_Node000001_Node000014"><a xlink:title=" ">
<path fill="none" stroke="#63b8ff" d="M538.62,-92.19C522.05,-85.1 501.95,-76.64 483.75,-69.38 476.06,-66.3 467.7,-63.1 459.93,-60.17"/>
<polygon fill="#63b8ff" stroke="#63b8ff" points="536.98,-95.3 547.55,-96.03 539.74,-88.86 536.98,-95.3"/>
</a>
</g>
</g>
<!-- Node15 -->
<g id="Node000015" class="node">
<title>Node15</title>
<g id="a_Node000015"><a xlink:href="../../d2/df3/classfl_1_1_fixed_map.html#a65fd146436a271b9e1cc162296d822b4" target="_top" xlink:title=" ">
<polygon fill="white" stroke="#666666" points="322.25,-165.75 222.25,-165.75 222.25,-145 322.25,-145 322.25,-165.75"/>
<text text-anchor="middle" x="272.25" y="-152.25" font-family="Helvetica,sans-Serif" font-size="10.00">fl::FixedMap::size</text>
</a>
</g>
</g>
<!-- Node1&#45;&gt;Node15 -->
<g id="edge13_Node000001_Node000015" class="edge">
<title>Node1&#45;&gt;Node15</title>
<g id="a_edge13_Node000001_Node000015"><a xlink:title=" ">
<path fill="none" stroke="#63b8ff" d="M544.41,-123.31C527.27,-131.82 504.89,-141.51 483.75,-146.38 429.57,-158.84 365.52,-159.67 322.42,-158.3"/>
<polygon fill="#63b8ff" stroke="#63b8ff" points="545.7,-126.58 553,-118.91 542.51,-120.35 545.7,-126.58"/>
</a>
</g>
</g>
<!-- Node16 -->
<g id="Node000016" class="node">
<title>Node16</title>
<g id="a_Node000016"><a xlink:href="../../dd/d44/classfl_1_1_fixed_set.html#a0dba8190d77869606fcd455309b6e54e" target="_top" xlink:title=" ">
<polygon fill="white" stroke="#666666" points="477,-20.75 382.25,-20.75 382.25,0 477,0 477,-20.75"/>
<text text-anchor="middle" x="429.62" y="-7.25" font-family="Helvetica,sans-Serif" font-size="10.00">fl::FixedSet::size</text>
</a>
</g>
</g>
<!-- Node1&#45;&gt;Node16 -->
<g id="edge16_Node000001_Node000016" class="edge">
<title>Node1&#45;&gt;Node16</title>
<g id="a_edge16_Node000001_Node000016"><a xlink:title=" ">
<path fill="none" stroke="#63b8ff" d="M555.49,-88.44C538.32,-71.39 511.16,-46.59 483.75,-30.38 477.81,-26.86 471.15,-23.78 464.6,-21.14"/>
<polygon fill="#63b8ff" stroke="#63b8ff" points="552.93,-90.83 562.44,-95.49 557.91,-85.91 552.93,-90.83"/>
</a>
</g>
</g>
<!-- Node3 -->
<g id="Node000003" class="node">
<title>Node3</title>
<g id="a_Node000003"><a xlink:href="../../d4/d60/classfl_1_1_fx_engine.html#a1e840a27e09686190e44844b3f062642" target="_top" xlink:title="Adds a new effect to the engine.">
<polygon fill="white" stroke="#666666" points="326.75,-301.75 217.75,-301.75 217.75,-281 326.75,-281 326.75,-301.75"/>
<text text-anchor="middle" x="272.25" y="-288.25" font-family="Helvetica,sans-Serif" font-size="10.00">fl::FxEngine::addFx</text>
</a>
</g>
</g>
<!-- Node2&#45;&gt;Node3 -->
<g id="edge2_Node000002_Node000003" class="edge">
<title>Node2&#45;&gt;Node3</title>
<g id="a_edge2_Node000002_Node000003"><a xlink:title=" ">
<path fill="none" stroke="#63b8ff" d="M393.47,-238.76C364.38,-251.49 323.79,-269.26 298.01,-280.54"/>
<polygon fill="#63b8ff" stroke="#63b8ff" points="394.86,-241.97 402.62,-234.76 392.05,-235.56 394.86,-241.97"/>
</a>
</g>
</g>
<!-- Node5 -->
<g id="Node000005" class="node">
<title>Node5</title>
<g id="a_Node000005"><a xlink:href="../../d2/d78/classfl_1_1_screen_map.html#a9f8cd0b572681ab80ae7a5f781957279" target="_top" xlink:title=" ">
<polygon fill="white" stroke="#666666" points="339.5,-243.75 205,-243.75 205,-223 339.5,-223 339.5,-243.75"/>
<text text-anchor="middle" x="272.25" y="-230.25" font-family="Helvetica,sans-Serif" font-size="10.00">fl::ScreenMap::ParseJson</text>
</a>
</g>
</g>
<!-- Node2&#45;&gt;Node5 -->
<g id="edge4_Node000002_Node000005" class="edge">
<title>Node2&#45;&gt;Node5</title>
<g id="a_edge4_Node000002_Node000005"><a xlink:title=" ">
<path fill="none" stroke="#63b8ff" d="M363.8,-227.55C355.93,-228.05 347.89,-228.57 340,-229.08"/>
<polygon fill="#63b8ff" stroke="#63b8ff" points="363.89,-231.05 373.64,-226.91 363.44,-224.06 363.89,-231.05"/>
</a>
</g>
</g>
<!-- Node11 -->
<g id="Node000011" class="node">
<title>Node11</title>
<g id="a_Node000011"><a xlink:href="../../d2/df3/classfl_1_1_fixed_map.html#aa0d6bdcd0a910553c308d92c6ead41b0" target="_top" xlink:title=" ">
<polygon fill="white" stroke="#666666" points="329.38,-204.75 215.12,-204.75 215.12,-184 329.38,-184 329.38,-204.75"/>
<text text-anchor="middle" x="272.25" y="-191.25" font-family="Helvetica,sans-Serif" font-size="10.00">fl::FixedMap::update</text>
</a>
</g>
</g>
<!-- Node2&#45;&gt;Node11 -->
<g id="edge9_Node000002_Node000011" class="edge">
<title>Node2&#45;&gt;Node11</title>
<g id="a_edge9_Node000002_Node000011"><a xlink:title=" ">
<path fill="none" stroke="#63b8ff" d="M363.96,-211.3C352.59,-209.18 340.85,-206.99 329.73,-204.92"/>
<polygon fill="#63b8ff" stroke="#63b8ff" points="363.19,-214.72 373.67,-213.12 364.48,-207.84 363.19,-214.72"/>
</a>
</g>
</g>
<!-- Node4 -->
<g id="Node000004" class="node">
<title>Node4</title>
<g id="a_Node000004"><a xlink:href="../../d6/d35/_fx_engine_8ino.html#a4fc01d736fe50cf5b977f755b675f11d" target="_top" xlink:title=" ">
<polygon fill="white" stroke="#666666" points="106,-321.75 63,-321.75 63,-301 106,-301 106,-321.75"/>
<text text-anchor="middle" x="84.5" y="-308.25" font-family="Helvetica,sans-Serif" font-size="10.00">setup</text>
</a>
</g>
</g>
<!-- Node3&#45;&gt;Node4 -->
<g id="edge3_Node000003_Node000004" class="edge">
<title>Node3&#45;&gt;Node4</title>
<g id="a_edge3_Node000003_Node000004"><a xlink:title=" ">
<path fill="none" stroke="#63b8ff" d="M206.4,-298.36C171.42,-302.12 130.58,-306.52 106.44,-309.12"/>
<polygon fill="#63b8ff" stroke="#63b8ff" points="206.45,-301.87 216.02,-297.32 205.7,-294.91 206.45,-301.87"/>
</a>
</g>
</g>
<!-- Node6 -->
<g id="Node000006" class="node">
<title>Node6</title>
<g id="a_Node000006"><a xlink:href="../../d2/d78/classfl_1_1_screen_map.html#a01e5310537235df9e8dc911692339a9b" target="_top" xlink:title=" ">
<polygon fill="white" stroke="#666666" points="151.75,-165.75 17.25,-165.75 17.25,-145 151.75,-145 151.75,-165.75"/>
<text text-anchor="middle" x="84.5" y="-152.25" font-family="Helvetica,sans-Serif" font-size="10.00">fl::ScreenMap::ParseJson</text>
</a>
</g>
</g>
<!-- Node5&#45;&gt;Node6 -->
<g id="edge5_Node000005_Node000006" class="edge">
<title>Node5&#45;&gt;Node6</title>
<g id="a_edge5_Node000005_Node000006"><a xlink:title=" ">
<path fill="none" stroke="#63b8ff" d="M213.75,-218.11C210.72,-216.67 207.78,-215.09 205,-213.38 185.2,-201.16 189.15,-187.01 169,-175.38 162.55,-171.65 155.43,-168.61 148.15,-166.14"/>
<polygon fill="#63b8ff" stroke="#63b8ff" points="212.33,-221.32 222.91,-221.97 215.05,-214.87 212.33,-221.32"/>
</a>
</g>
</g>
<!-- Node7 -->
<g id="Node000007" class="node">
<title>Node7</title>
<g id="a_Node000007"><a xlink:href="../../df/d37/classfl_1_1_file_system.html#a456623ea357257e417994ecb4daf7408" target="_top" xlink:title=" ">
<polygon fill="#fff0f0" stroke="red" points="166.38,-282.75 2.62,-282.75 2.62,-262 166.38,-262 166.38,-282.75"/>
<text text-anchor="middle" x="84.5" y="-269.25" font-family="Helvetica,sans-Serif" font-size="10.00">fl::FileSystem::readScreenMap</text>
</a>
</g>
</g>
<!-- Node5&#45;&gt;Node7 -->
<g id="edge6_Node000005_Node000007" class="edge">
<title>Node5&#45;&gt;Node7</title>
<g id="a_edge6_Node000005_Node000007"><a xlink:title=" ">
<path fill="none" stroke="#63b8ff" d="M208.4,-246.57C185.26,-251.43 159.34,-256.87 137.29,-261.5"/>
<polygon fill="#63b8ff" stroke="#63b8ff" points="208.96,-250.03 218.03,-244.55 207.52,-243.18 208.96,-250.03"/>
</a>
</g>
</g>
<!-- Node9 -->
<g id="Node000009" class="node">
<title>Node9</title>
<g id="a_Node000009"><a xlink:href="../../df/d37/classfl_1_1_file_system.html#a65df0d1c647d87b65a58e66e630b071d" target="_top" xlink:title=" ">
<polygon fill="white" stroke="#666666" points="169,-243.75 0,-243.75 0,-223 169,-223 169,-243.75"/>
<text text-anchor="middle" x="84.5" y="-230.25" font-family="Helvetica,sans-Serif" font-size="10.00">fl::FileSystem::readScreenMaps</text>
</a>
</g>
</g>
<!-- Node5&#45;&gt;Node9 -->
<g id="edge7_Node000005_Node000009" class="edge">
<title>Node5&#45;&gt;Node9</title>
<g id="a_edge7_Node000005_Node000009"><a xlink:title=" ">
<path fill="none" stroke="#63b8ff" d="M193.28,-233.38C185.39,-233.38 177.35,-233.38 169.39,-233.38"/>
<polygon fill="#63b8ff" stroke="#63b8ff" points="193.2,-236.88 203.2,-233.38 193.2,-229.88 193.2,-236.88"/>
</a>
</g>
</g>
<!-- Node10 -->
<g id="Node000010" class="node">
<title>Node10</title>
<g id="a_Node000010"><a xlink:href="../../d1/ddb/_chromancer_8ino.html#a4fc01d736fe50cf5b977f755b675f11d" target="_top" xlink:title=" ">
<polygon fill="white" stroke="#666666" points="106,-204.75 63,-204.75 63,-184 106,-184 106,-204.75"/>
<text text-anchor="middle" x="84.5" y="-191.25" font-family="Helvetica,sans-Serif" font-size="10.00">setup</text>
</a>
</g>
</g>
<!-- Node5&#45;&gt;Node10 -->
<g id="edge8_Node000005_Node000010" class="edge">
<title>Node5&#45;&gt;Node10</title>
<g id="a_edge8_Node000005_Node000010"><a xlink:title=" ">
<path fill="none" stroke="#63b8ff" d="M208.28,-220.15C172.88,-212.72 131.01,-203.93 106.44,-198.77"/>
<polygon fill="#63b8ff" stroke="#63b8ff" points="207.52,-223.57 218.03,-222.2 208.96,-216.72 207.52,-223.57"/>
</a>
</g>
</g>
<!-- Node15&#45;&gt;Node6 -->
<g id="edge14_Node000015_Node000006" class="edge">
<title>Node15&#45;&gt;Node6</title>
<g id="a_edge14_Node000015_Node000006"><a xlink:title=" ">
<path fill="none" stroke="#63b8ff" d="M210.61,-155.38C191.92,-155.38 171.24,-155.38 152.16,-155.38"/>
<polygon fill="#63b8ff" stroke="#63b8ff" points="210.45,-158.88 220.45,-155.38 210.45,-151.88 210.45,-158.88"/>
</a>
</g>
</g>
<!-- Node15&#45;&gt;Node10 -->
<g id="edge15_Node000015_Node000010" class="edge">
<title>Node15&#45;&gt;Node10</title>
<g id="a_edge15_Node000015_Node000010"><a xlink:title=" ">
<path fill="none" stroke="#63b8ff" d="M211.02,-168.02C174.89,-175.61 131.21,-184.78 106.07,-190.06"/>
<polygon fill="#63b8ff" stroke="#63b8ff" points="211.41,-171.52 220.48,-166.03 209.97,-164.66 211.41,-171.52"/>
</a>
</g>
</g>
</g>
</svg>
