<?xml version="1.0" encoding="UTF-8" standalone="no"?>
<!DOCTYPE svg PUBLIC "-//W3C//DTD SVG 1.1//EN"
 "http://www.w3.org/Graphics/SVG/1.1/DTD/svg11.dtd">
<!-- Generated by graphviz version 12.2.1 (20241206.2353)
 -->
<!-- Title: fl::FixedVector::begin Pages: 1 -->
<svg width="770pt" height="779pt"
 viewBox="0.00 0.00 769.75 778.75" xmlns="http://www.w3.org/2000/svg" xmlns:xlink="http://www.w3.org/1999/xlink">
<g id="graph0" class="graph" transform="scale(1 1) rotate(0) translate(4 774.75)">
<title>fl::FixedVector::begin</title>
<!-- Node1 -->
<g id="Node000001" class="node">
<title>Node1</title>
<g id="a_Node000001"><a xlink:title=" ">
<polygon fill="#999999" stroke="#666666" points="761.75,-195.75 644.5,-195.75 644.5,-175 761.75,-175 761.75,-195.75"/>
<text text-anchor="middle" x="703.12" y="-182.25" font-family="Helvetica,sans-Serif" font-size="10.00">fl::FixedVector::begin</text>
</a>
</g>
</g>
<!-- Node2 -->
<g id="Node000002" class="node">
<title>Node2</title>
<g id="a_Node000002"><a xlink:href="../../d3/d73/classfl_1_1_fixed_vector.html#a72779714d75525dfbc46af7a4f318d9d" target="_top" xlink:title=" ">
<polygon fill="white" stroke="#666666" points="608.5,-601.75 486.75,-601.75 486.75,-581 608.5,-581 608.5,-601.75"/>
<text text-anchor="middle" x="547.62" y="-588.25" font-family="Helvetica,sans-Serif" font-size="10.00">fl::FixedVector::assign</text>
</a>
</g>
</g>
<!-- Node1&#45;&gt;Node2 -->
<g id="edge1_Node000001_Node000002" class="edge">
<title>Node1&#45;&gt;Node2</title>
<g id="a_edge1_Node000001_Node000002"><a xlink:title=" ">
<path fill="none" stroke="#63b8ff" d="M699.62,-207.16C690.76,-280.47 658.78,-516.66 608.5,-571.38 605.09,-575.09 600.97,-578.11 596.51,-580.57"/>
<polygon fill="#63b8ff" stroke="#63b8ff" points="703.04,-207.99 700.74,-197.64 696.09,-207.16 703.04,-207.99"/>
</a>
</g>
</g>
<!-- Node3 -->
<g id="Node000003" class="node">
<title>Node3</title>
<g id="a_Node000003"><a xlink:href="../../d2/df3/classfl_1_1_fixed_map.html#a5bcfb52c7949403994eed767316e237b" target="_top" xlink:title=" ">
<polygon fill="white" stroke="#666666" points="601.38,-562.75 493.88,-562.75 493.88,-542 601.38,-542 601.38,-562.75"/>
<text text-anchor="middle" x="547.62" y="-549.25" font-family="Helvetica,sans-Serif" font-size="10.00">fl::FixedMap::begin</text>
</a>
</g>
</g>
<!-- Node1&#45;&gt;Node3 -->
<g id="edge2_Node000001_Node000003" class="edge">
<title>Node1&#45;&gt;Node3</title>
<g id="a_edge2_Node000001_Node000003"><a xlink:title=" ">
<path fill="none" stroke="#63b8ff" d="M693.36,-206.32C664.68,-274.9 574.21,-491.21 553.07,-541.74"/>
<polygon fill="#63b8ff" stroke="#63b8ff" points="696.48,-207.94 697.11,-197.36 690.02,-205.23 696.48,-207.94"/>
</a>
</g>
</g>
<!-- Node35 -->
<g id="Node000035" class="node">
<title>Node35</title>
<g id="a_Node000035"><a xlink:href="../../d2/df3/classfl_1_1_fixed_map.html#a31655c87bbc5fcdb001f9663566f7e42" target="_top" xlink:title=" ">
<polygon fill="white" stroke="#666666" points="601.38,-293.75 493.88,-293.75 493.88,-273 601.38,-273 601.38,-293.75"/>
<text text-anchor="middle" x="547.62" y="-280.25" font-family="Helvetica,sans-Serif" font-size="10.00">fl::FixedMap::begin</text>
</a>
</g>
</g>
<!-- Node1&#45;&gt;Node35 -->
<g id="edge27_Node000001_Node000035" class="edge">
<title>Node1&#45;&gt;Node35</title>
<g id="a_edge27_Node000001_Node000035"><a xlink:title=" ">
<path fill="none" stroke="#63b8ff" d="M684.06,-204C666.25,-221.44 637.56,-247.18 608.5,-263.38 602.09,-266.95 594.93,-270.02 587.86,-272.61"/>
<polygon fill="#63b8ff" stroke="#63b8ff" points="686.21,-206.8 690.81,-197.26 681.26,-201.85 686.21,-206.8"/>
</a>
</g>
</g>
<!-- Node36 -->
<g id="Node000036" class="node">
<title>Node36</title>
<g id="a_Node000036"><a xlink:href="../../dd/d44/classfl_1_1_fixed_set.html#a59ddf690c91b87bb207d2cb6d45b91be" target="_top" xlink:title=" ">
<polygon fill="white" stroke="#666666" points="598.75,-254.75 496.5,-254.75 496.5,-234 598.75,-234 598.75,-254.75"/>
<text text-anchor="middle" x="547.62" y="-241.25" font-family="Helvetica,sans-Serif" font-size="10.00">fl::FixedSet::begin</text>
</a>
</g>
</g>
<!-- Node1&#45;&gt;Node36 -->
<g id="edge28_Node000001_Node000036" class="edge">
<title>Node1&#45;&gt;Node36</title>
<g id="a_edge28_Node000001_Node000036"><a xlink:title=" ">
<path fill="none" stroke="#63b8ff" d="M667.35,-200.56C649.82,-208.04 628.16,-217.01 608.5,-224.38 600.08,-227.53 590.92,-230.71 582.34,-233.59"/>
<polygon fill="#63b8ff" stroke="#63b8ff" points="668.48,-203.89 676.29,-196.73 665.72,-197.46 668.48,-203.89"/>
</a>
</g>
</g>
<!-- Node44 -->
<g id="Node000044" class="node">
<title>Node44</title>
<g id="a_Node000044"><a xlink:href="../../dd/d44/classfl_1_1_fixed_set.html#a8f703d838931f7c3d9b9d2afe7ffd9e1" target="_top" xlink:title=" ">
<polygon fill="white" stroke="#666666" points="598.75,-215.75 496.5,-215.75 496.5,-195 598.75,-195 598.75,-215.75"/>
<text text-anchor="middle" x="547.62" y="-202.25" font-family="Helvetica,sans-Serif" font-size="10.00">fl::FixedSet::begin</text>
</a>
</g>
</g>
<!-- Node1&#45;&gt;Node44 -->
<g id="edge38_Node000001_Node000044" class="edge">
<title>Node1&#45;&gt;Node44</title>
<g id="a_edge38_Node000001_Node000044"><a xlink:title=" ">
<path fill="none" stroke="#63b8ff" d="M632.87,-194.4C621.53,-195.88 609.97,-197.38 599.2,-198.79"/>
<polygon fill="#63b8ff" stroke="#63b8ff" points="633.13,-197.89 642.59,-193.13 632.22,-190.95 633.13,-197.89"/>
</a>
</g>
</g>
<!-- Node45 -->
<g id="Node000045" class="node">
<title>Node45</title>
<g id="a_Node000045"><a xlink:href="../../d3/d73/classfl_1_1_fixed_vector.html#a58a6522299bd6edb3188cef085a11595" target="_top" xlink:title=" ">
<polygon fill="white" stroke="#666666" points="603.62,-176.75 491.62,-176.75 491.62,-156 603.62,-156 603.62,-176.75"/>
<text text-anchor="middle" x="547.62" y="-163.25" font-family="Helvetica,sans-Serif" font-size="10.00">fl::FixedVector::data</text>
</a>
</g>
</g>
<!-- Node1&#45;&gt;Node45 -->
<g id="edge39_Node000001_Node000045" class="edge">
<title>Node1&#45;&gt;Node45</title>
<g id="a_edge39_Node000001_Node000045"><a xlink:title=" ">
<path fill="none" stroke="#63b8ff" d="M632.84,-176.8C623.16,-175.6 613.32,-174.38 603.95,-173.22"/>
<polygon fill="#63b8ff" stroke="#63b8ff" points="632.24,-180.25 642.59,-178.01 633.1,-173.3 632.24,-180.25"/>
</a>
</g>
</g>
<!-- Node46 -->
<g id="Node000046" class="node">
<title>Node46</title>
<g id="a_Node000046"><a xlink:href="../../d3/d73/classfl_1_1_fixed_vector.html#aa7fb16157f2954aeb3a45d804545dc19" target="_top" xlink:title=" ">
<polygon fill="white" stroke="#666666" points="603.62,-137.75 491.62,-137.75 491.62,-117 603.62,-117 603.62,-137.75"/>
<text text-anchor="middle" x="547.62" y="-124.25" font-family="Helvetica,sans-Serif" font-size="10.00">fl::FixedVector::data</text>
</a>
</g>
</g>
<!-- Node1&#45;&gt;Node46 -->
<g id="edge40_Node000001_Node000046" class="edge">
<title>Node1&#45;&gt;Node46</title>
<g id="a_edge40_Node000001_Node000046"><a xlink:title=" ">
<path fill="none" stroke="#63b8ff" d="M666.58,-170.33C649.18,-163.12 627.85,-154.53 608.5,-147.38 600.07,-144.26 590.9,-141.09 582.32,-138.22"/>
<polygon fill="#63b8ff" stroke="#63b8ff" points="664.89,-173.42 675.47,-174.03 667.58,-166.96 664.89,-173.42"/>
</a>
</g>
</g>
<!-- Node47 -->
<g id="Node000047" class="node">
<title>Node47</title>
<g id="a_Node000047"><a xlink:href="../../d3/d73/classfl_1_1_fixed_vector.html#ae27c19abd3cc3e8c6d78b9b42085918c" target="_top" xlink:title=" ">
<polygon fill="white" stroke="#666666" points="601.75,-98.75 493.5,-98.75 493.5,-78 601.75,-78 601.75,-98.75"/>
<text text-anchor="middle" x="547.62" y="-85.25" font-family="Helvetica,sans-Serif" font-size="10.00">fl::FixedVector::find</text>
</a>
</g>
</g>
<!-- Node1&#45;&gt;Node47 -->
<g id="edge41_Node000001_Node000047" class="edge">
<title>Node1&#45;&gt;Node47</title>
<g id="a_edge41_Node000001_Node000047"><a xlink:title=" ">
<path fill="none" stroke="#63b8ff" d="M684.01,-167C666.17,-149.79 637.46,-124.4 608.5,-108.38 602.07,-104.82 594.91,-101.76 587.84,-99.17"/>
<polygon fill="#63b8ff" stroke="#63b8ff" points="681.19,-169.13 690.77,-173.65 686.1,-164.14 681.19,-169.13"/>
</a>
</g>
</g>
<!-- Node50 -->
<g id="Node000050" class="node">
<title>Node50</title>
<g id="a_Node000050"><a xlink:href="../../d3/d73/classfl_1_1_fixed_vector.html#a828af7b40780d72c46fdd71237f5d9ec" target="_top" xlink:title=" ">
<polygon fill="white" stroke="#666666" points="601.75,-59.75 493.5,-59.75 493.5,-39 601.75,-39 601.75,-59.75"/>
<text text-anchor="middle" x="547.62" y="-46.25" font-family="Helvetica,sans-Serif" font-size="10.00">fl::FixedVector::find</text>
</a>
</g>
</g>
<!-- Node1&#45;&gt;Node50 -->
<g id="edge44_Node000001_Node000050" class="edge">
<title>Node1&#45;&gt;Node50</title>
<g id="a_edge44_Node000001_Node000050"><a xlink:title=" ">
<path fill="none" stroke="#63b8ff" d="M690.65,-164.87C675.19,-139.04 645.33,-94.95 608.5,-69.38 603.19,-65.69 597.15,-62.64 590.99,-60.12"/>
<polygon fill="#63b8ff" stroke="#63b8ff" points="687.56,-166.52 695.61,-173.4 693.61,-163 687.56,-166.52"/>
</a>
</g>
</g>
<!-- Node51 -->
<g id="Node000051" class="node">
<title>Node51</title>
<g id="a_Node000051"><a xlink:href="../../d3/d73/classfl_1_1_fixed_vector.html#a18f2e8f0e51b9c488721f238dba5bb96" target="_top" xlink:title=" ">
<polygon fill="white" stroke="#666666" points="607.75,-20.75 487.5,-20.75 487.5,0 607.75,0 607.75,-20.75"/>
<text text-anchor="middle" x="547.62" y="-7.25" font-family="Helvetica,sans-Serif" font-size="10.00">fl::FixedVector::find_if</text>
</a>
</g>
</g>
<!-- Node1&#45;&gt;Node51 -->
<g id="edge45_Node000001_Node000051" class="edge">
<title>Node1&#45;&gt;Node51</title>
<g id="a_edge45_Node000001_Node000051"><a xlink:title=" ">
<path fill="none" stroke="#63b8ff" d="M694.68,-163.78C682.11,-130.41 653.53,-66.41 608.5,-30.38 603.88,-26.68 598.54,-23.65 593,-21.17"/>
<polygon fill="#63b8ff" stroke="#63b8ff" points="691.38,-164.94 698.08,-173.15 697.96,-162.56 691.38,-164.94"/>
</a>
</g>
</g>
<!-- Node4 -->
<g id="Node000004" class="node">
<title>Node4</title>
<g id="a_Node000004"><a xlink:href="../../d2/df3/classfl_1_1_fixed_map.html#a85134d13ee9474e0ac60284e965ccbb3" target="_top" xlink:title=" ">
<polygon fill="white" stroke="#666666" points="441.38,-505.75 342.88,-505.75 342.88,-485 441.38,-485 441.38,-505.75"/>
<text text-anchor="middle" x="392.12" y="-492.25" font-family="Helvetica,sans-Serif" font-size="10.00">fl::FixedMap::find</text>
</a>
</g>
</g>
<!-- Node3&#45;&gt;Node4 -->
<g id="edge3_Node000003_Node000004" class="edge">
<title>Node3&#45;&gt;Node4</title>
<g id="a_edge3_Node000003_Node000004"><a xlink:title=" ">
<path fill="none" stroke="#63b8ff" d="M506.93,-537.64C480.45,-527.8 446.22,-515.09 422.25,-506.19"/>
<polygon fill="#63b8ff" stroke="#63b8ff" points="505.38,-540.79 515.97,-540.99 507.82,-534.23 505.38,-540.79"/>
</a>
</g>
</g>
<!-- Node26 -->
<g id="Node000026" class="node">
<title>Node26</title>
<g id="a_Node000026"><a xlink:href="../../d2/df3/classfl_1_1_fixed_map.html#a86e9680f024d9fb7a7fa9f96a90f4a1e" target="_top" xlink:title=" ">
<polygon fill="#fff0f0" stroke="red" points="275,-312.75 172.75,-312.75 172.75,-292 275,-292 275,-312.75"/>
<text text-anchor="middle" x="223.88" y="-299.25" font-family="Helvetica,sans-Serif" font-size="10.00">fl::FixedMap::next</text>
</a>
</g>
</g>
<!-- Node3&#45;&gt;Node26 -->
<g id="edge25_Node000003_Node000026" class="edge">
<title>Node3&#45;&gt;Node26</title>
<g id="a_edge25_Node000003_Node000026"><a xlink:title=" ">
<path fill="none" stroke="#63b8ff" d="M531.04,-532.61C494.91,-488.15 400.59,-379.65 297.5,-322.38 290.64,-318.56 283.01,-315.44 275.34,-312.89"/>
<polygon fill="#63b8ff" stroke="#63b8ff" points="528.28,-534.77 537.27,-540.37 533.74,-530.38 528.28,-534.77"/>
</a>
</g>
</g>
<!-- Node29 -->
<g id="Node000029" class="node">
<title>Node29</title>
<g id="a_Node000029"><a xlink:href="../../d2/df3/classfl_1_1_fixed_map.html#a35706a466e8c68cf3c5e9b8c94f8e17d" target="_top" xlink:title=" ">
<polygon fill="white" stroke="#666666" points="275,-672.75 172.75,-672.75 172.75,-652 275,-652 275,-672.75"/>
<text text-anchor="middle" x="223.88" y="-659.25" font-family="Helvetica,sans-Serif" font-size="10.00">fl::FixedMap::prev</text>
</a>
</g>
</g>
<!-- Node3&#45;&gt;Node29 -->
<g id="edge26_Node000003_Node000029" class="edge">
<title>Node3&#45;&gt;Node29</title>
<g id="a_edge26_Node000003_Node000029"><a xlink:title=" ">
<path fill="none" stroke="#63b8ff" d="M496.83,-539.27C450.42,-530.13 381.37,-524.7 333.5,-557.38 299.28,-580.73 328.78,-616.21 297.5,-643.38 291.1,-648.93 283.27,-652.89 275.15,-655.7"/>
<polygon fill="#63b8ff" stroke="#63b8ff" points="495.83,-542.64 506.34,-541.28 497.27,-535.79 495.83,-542.64"/>
</a>
</g>
</g>
<!-- Node30 -->
<g id="Node000030" class="node">
<title>Node30</title>
<g id="a_Node000030"><a xlink:href="../../d2/df3/classfl_1_1_fixed_map.html#a8bcf77d4d868a69200434b127876d928" target="_top" xlink:title=" ">
<polygon fill="white" stroke="#666666" points="441.38,-713.75 342.88,-713.75 342.88,-693 441.38,-693 441.38,-713.75"/>
<text text-anchor="middle" x="392.12" y="-700.25" font-family="Helvetica,sans-Serif" font-size="10.00">fl::FixedMap::find</text>
</a>
</g>
</g>
<!-- Node3&#45;&gt;Node30 -->
<g id="edge16_Node000003_Node000030" class="edge">
<title>Node3&#45;&gt;Node30</title>
<g id="a_edge16_Node000003_Node000030"><a xlink:title=" ">
<path fill="none" stroke="#63b8ff" d="M490.05,-569.4C488.9,-570.34 487.8,-571.33 486.75,-572.38 451.23,-607.82 484.96,-642.67 450.75,-679.38 445.58,-684.92 438.92,-689.23 431.99,-692.56"/>
<polygon fill="#63b8ff" stroke="#63b8ff" points="491.9,-572.37 498.38,-563.99 488.09,-566.5 491.9,-572.37"/>
</a>
</g>
</g>
<!-- Node31 -->
<g id="Node000031" class="node">
<title>Node31</title>
<g id="a_Node000031"><a xlink:href="../../d2/df3/classfl_1_1_fixed_map.html#a8e3ea2bf1427c91405418b7b1a629f47" target="_top" xlink:title=" ">
<polygon fill="white" stroke="#666666" points="450.38,-752.75 333.88,-752.75 333.88,-732 450.38,-732 450.38,-752.75"/>
<text text-anchor="middle" x="392.12" y="-739.25" font-family="Helvetica,sans-Serif" font-size="10.00">fl::FixedMap::highest</text>
</a>
</g>
</g>
<!-- Node3&#45;&gt;Node31 -->
<g id="edge17_Node000003_Node000031" class="edge">
<title>Node3&#45;&gt;Node31</title>
<g id="a_edge17_Node000003_Node000031"><a xlink:title=" ">
<path fill="none" stroke="#63b8ff" d="M489.43,-569.72C488.5,-570.56 487.6,-571.45 486.75,-572.38 440.42,-622.91 496.78,-671.57 450.75,-722.38 447.41,-726.06 443.35,-729.07 438.95,-731.53"/>
<polygon fill="#63b8ff" stroke="#63b8ff" points="491.33,-572.66 497.49,-564.04 487.3,-566.93 491.33,-572.66"/>
</a>
</g>
</g>
<!-- Node32 -->
<g id="Node000032" class="node">
<title>Node32</title>
<g id="a_Node000032"><a xlink:href="../../d2/df3/classfl_1_1_fixed_map.html#a6c64dfe45f7f5f20f5c7cf0990c7e140" target="_top" xlink:title=" ">
<polygon fill="white" stroke="#666666" points="282.12,-751.75 165.62,-751.75 165.62,-731 282.12,-731 282.12,-751.75"/>
<text text-anchor="middle" x="223.88" y="-738.25" font-family="Helvetica,sans-Serif" font-size="10.00">fl::FixedMap::highest</text>
</a>
</g>
</g>
<!-- Node3&#45;&gt;Node32 -->
<g id="edge20_Node000003_Node000032" class="edge">
<title>Node3&#45;&gt;Node32</title>
<g id="a_edge20_Node000003_Node000032"><a xlink:title=" ">
<path fill="none" stroke="#63b8ff" d="M491.31,-568.81C489.72,-569.92 488.19,-571.11 486.75,-572.38 459.26,-596.5 478.35,-622.38 450.75,-646.38 409.41,-682.32 380.22,-655.77 333.5,-684.38 314.2,-696.19 316.98,-708.87 297.5,-720.38 290.49,-724.51 282.62,-727.88 274.71,-730.6"/>
<polygon fill="#63b8ff" stroke="#63b8ff" points="492.79,-572 499.7,-563.97 489.29,-565.93 492.79,-572"/>
</a>
</g>
</g>
<!-- Node33 -->
<g id="Node000033" class="node">
<title>Node33</title>
<g id="a_Node000033"><a xlink:href="../../d2/df3/classfl_1_1_fixed_map.html#a3df8268f2e6f56bf468676209b3de6fe" target="_top" xlink:title=" ">
<polygon fill="white" stroke="#666666" points="448.5,-619.75 335.75,-619.75 335.75,-599 448.5,-599 448.5,-619.75"/>
<text text-anchor="middle" x="392.12" y="-606.25" font-family="Helvetica,sans-Serif" font-size="10.00">fl::FixedMap::lowest</text>
</a>
</g>
</g>
<!-- Node3&#45;&gt;Node33 -->
<g id="edge21_Node000003_Node000033" class="edge">
<title>Node3&#45;&gt;Node33</title>
<g id="a_edge21_Node000003_Node000033"><a xlink:title=" ">
<path fill="none" stroke="#63b8ff" d="M502.48,-566.82C497.16,-568.65 491.82,-570.53 486.75,-572.38 463.76,-580.75 437.91,-591.03 419.21,-598.63"/>
<polygon fill="#63b8ff" stroke="#63b8ff" points="503.48,-570.18 511.83,-563.65 501.23,-563.55 503.48,-570.18"/>
</a>
</g>
</g>
<!-- Node34 -->
<g id="Node000034" class="node">
<title>Node34</title>
<g id="a_Node000034"><a xlink:href="../../d2/df3/classfl_1_1_fixed_map.html#a66dd6159f6d84daf24be85c42a225a91" target="_top" xlink:title=" ">
<polygon fill="white" stroke="#666666" points="280.25,-711.75 167.5,-711.75 167.5,-691 280.25,-691 280.25,-711.75"/>
<text text-anchor="middle" x="223.88" y="-698.25" font-family="Helvetica,sans-Serif" font-size="10.00">fl::FixedMap::lowest</text>
</a>
</g>
</g>
<!-- Node3&#45;&gt;Node34 -->
<g id="edge24_Node000003_Node000034" class="edge">
<title>Node3&#45;&gt;Node34</title>
<g id="a_edge24_Node000003_Node000034"><a xlink:title=" ">
<path fill="none" stroke="#63b8ff" d="M482.31,-556.98C428.08,-562.08 355.85,-572.11 333.5,-590.38 299.82,-617.9 329.87,-652.32 297.5,-681.38 292.54,-685.83 286.67,-689.3 280.45,-692.01"/>
<polygon fill="#63b8ff" stroke="#63b8ff" points="482.43,-560.49 492.07,-556.11 481.8,-553.52 482.43,-560.49"/>
</a>
</g>
</g>
<!-- Node5 -->
<g id="Node000005" class="node">
<title>Node5</title>
<g id="a_Node000005"><a xlink:href="../../d2/df3/classfl_1_1_fixed_map.html#aad1402bd34a5c134fa39bc0593ffd5ba" target="_top" xlink:title=" ">
<polygon fill="white" stroke="#666666" points="105.25,-467.75 9,-467.75 9,-447 105.25,-447 105.25,-467.75"/>
<text text-anchor="middle" x="57.12" y="-454.25" font-family="Helvetica,sans-Serif" font-size="10.00">fl::FixedMap::get</text>
</a>
</g>
</g>
<!-- Node4&#45;&gt;Node5 -->
<g id="edge4_Node000004_Node000005" class="edge">
<title>Node4&#45;&gt;Node5</title>
<g id="a_edge4_Node000004_Node000005"><a xlink:title=" ">
<path fill="none" stroke="#63b8ff" d="M331.14,-493.21C282.26,-490.89 211.53,-486.27 150.25,-477.38 134.38,-475.07 117.16,-471.6 101.95,-468.19"/>
<polygon fill="#63b8ff" stroke="#63b8ff" points="330.8,-496.7 340.95,-493.66 331.12,-489.71 330.8,-496.7"/>
</a>
</g>
</g>
<!-- Node6 -->
<g id="Node000006" class="node">
<title>Node6</title>
<g id="a_Node000006"><a xlink:href="../../d2/df3/classfl_1_1_fixed_map.html#ac2c703c3d250cdb2c30101766c1810d6" target="_top" xlink:title=" ">
<polygon fill="#fff0f0" stroke="red" points="272,-351.75 175.75,-351.75 175.75,-331 272,-331 272,-351.75"/>
<text text-anchor="middle" x="223.88" y="-338.25" font-family="Helvetica,sans-Serif" font-size="10.00">fl::FixedMap::get</text>
</a>
</g>
</g>
<!-- Node4&#45;&gt;Node6 -->
<g id="edge5_Node000004_Node000006" class="edge">
<title>Node4&#45;&gt;Node6</title>
<g id="a_edge5_Node000004_Node000006"><a xlink:title=" ">
<path fill="none" stroke="#63b8ff" d="M382.12,-474.36C368.31,-444.64 339.05,-390.71 297.5,-361.38 290.02,-356.09 281.2,-352.21 272.34,-349.34"/>
<polygon fill="#63b8ff" stroke="#63b8ff" points="378.9,-475.72 386.18,-483.41 385.28,-472.86 378.9,-475.72"/>
</a>
</g>
</g>
<!-- Node12 -->
<g id="Node000012" class="node">
<title>Node12</title>
<g id="a_Node000012"><a xlink:href="../../de/d10/classfl_1_1_rectangular_draw_buffer.html#ad2a4686bb98c39141431b31ba9d58150" target="_top" xlink:title=" ">
<polygon fill="white" stroke="#666666" points="297.5,-634.12 150.25,-634.12 150.25,-600.62 297.5,-600.62 297.5,-634.12"/>
<text text-anchor="start" x="158.25" y="-620.62" font-family="Helvetica,sans-Serif" font-size="10.00">fl::RectangularDrawBuffer</text>
<text text-anchor="middle" x="223.88" y="-607.88" font-family="Helvetica,sans-Serif" font-size="10.00">::getLedsBufferBytesForPin</text>
</a>
</g>
</g>
<!-- Node4&#45;&gt;Node12 -->
<g id="edge6_Node000004_Node000012" class="edge">
<title>Node4&#45;&gt;Node12</title>
<g id="a_edge6_Node000004_Node000012"><a xlink:title=" ">
<path fill="none" stroke="#63b8ff" d="M344.43,-511.41C340.51,-513.75 336.79,-516.39 333.5,-519.38 308.45,-542.07 322.45,-563.57 297.5,-586.38 291.53,-591.83 284.45,-596.42 277.1,-600.25"/>
<polygon fill="#63b8ff" stroke="#63b8ff" points="345.85,-514.62 353.13,-506.91 342.64,-508.4 345.85,-514.62"/>
</a>
</g>
</g>
<!-- Node13 -->
<g id="Node000013" class="node">
<title>Node13</title>
<g id="a_Node000013"><a xlink:href="../../d2/df3/classfl_1_1_fixed_map.html#a460e3d43563610531faa13038b8f3682" target="_top" xlink:title=" ">
<polygon fill="#fff0f0" stroke="red" points="272.75,-390.75 175,-390.75 175,-370 272.75,-370 272.75,-390.75"/>
<text text-anchor="middle" x="223.88" y="-377.25" font-family="Helvetica,sans-Serif" font-size="10.00">fl::FixedMap::has</text>
</a>
</g>
</g>
<!-- Node4&#45;&gt;Node13 -->
<g id="edge7_Node000004_Node000013" class="edge">
<title>Node4&#45;&gt;Node13</title>
<g id="a_edge7_Node000004_Node000013"><a xlink:title=" ">
<path fill="none" stroke="#63b8ff" d="M376.99,-475.82C360.35,-454.21 330.75,-419.89 297.5,-400.38 290.06,-396.01 281.62,-392.56 273.21,-389.85"/>
<polygon fill="#63b8ff" stroke="#63b8ff" points="373.98,-477.64 382.78,-483.54 379.58,-473.44 373.98,-477.64"/>
</a>
</g>
</g>
<!-- Node18 -->
<g id="Node000018" class="node">
<title>Node18</title>
<g id="a_Node000018"><a xlink:href="../../d2/df3/classfl_1_1_fixed_map.html#a0c2f74febc0761d26128a3a63d225cf2" target="_top" xlink:title=" ">
<polygon fill="#fff0f0" stroke="red" points="278,-544.75 169.75,-544.75 169.75,-524 278,-524 278,-544.75"/>
<text text-anchor="middle" x="223.88" y="-531.25" font-family="Helvetica,sans-Serif" font-size="10.00">fl::FixedMap::insert</text>
</a>
</g>
</g>
<!-- Node4&#45;&gt;Node18 -->
<g id="edge9_Node000004_Node000018" class="edge">
<title>Node4&#45;&gt;Node18</title>
<g id="a_edge9_Node000004_Node000018"><a xlink:title=" ">
<path fill="none" stroke="#63b8ff" d="M333.74,-508.84C313.32,-513.63 290.6,-518.96 271.22,-523.5"/>
<polygon fill="#63b8ff" stroke="#63b8ff" points="334.41,-512.28 343.34,-506.58 332.81,-505.46 334.41,-512.28"/>
</a>
</g>
</g>
<!-- Node25 -->
<g id="Node000025" class="node">
<title>Node25</title>
<g id="a_Node000025"><a xlink:href="../../d2/df3/classfl_1_1_fixed_map.html#aa0d6bdcd0a910553c308d92c6ead41b0" target="_top" xlink:title=" ">
<polygon fill="white" stroke="#666666" points="114.25,-563.75 0,-563.75 0,-543 114.25,-543 114.25,-563.75"/>
<text text-anchor="middle" x="57.12" y="-550.25" font-family="Helvetica,sans-Serif" font-size="10.00">fl::FixedMap::update</text>
</a>
</g>
</g>
<!-- Node4&#45;&gt;Node25 -->
<g id="edge15_Node000004_Node000025" class="edge">
<title>Node4&#45;&gt;Node25</title>
<g id="a_edge15_Node000004_Node000025"><a xlink:title=" ">
<path fill="none" stroke="#63b8ff" d="M348.98,-510.81C343.61,-513.39 338.32,-516.25 333.5,-519.38 315.04,-531.36 317.95,-545.24 297.5,-553.38 236.87,-577.48 160.57,-572.02 110.63,-564.19"/>
<polygon fill="#63b8ff" stroke="#63b8ff" points="350.18,-514.11 357.9,-506.85 347.34,-507.71 350.18,-514.11"/>
</a>
</g>
</g>
<!-- Node4&#45;&gt;Node26 -->
<g id="edge11_Node000004_Node000026" class="edge">
<title>Node4&#45;&gt;Node26</title>
<g id="a_edge11_Node000004_Node000026"><a xlink:title=" ">
<path fill="none" stroke="#63b8ff" d="M378.76,-474.83C366.82,-454.76 348.39,-423.26 333.5,-395.38 316.46,-363.46 325.38,-345.42 297.5,-322.38 291.05,-317.04 283.28,-313.13 275.27,-310.25"/>
<polygon fill="#63b8ff" stroke="#63b8ff" points="375.76,-476.62 383.89,-483.4 381.76,-473.02 375.76,-476.62"/>
</a>
</g>
</g>
<!-- Node27 -->
<g id="Node000027" class="node">
<title>Node27</title>
<g id="a_Node000027"><a xlink:href="../../d2/df3/classfl_1_1_fixed_map.html#a5c2aef379d79a375b2dd6ed22bef7beb" target="_top" xlink:title=" ">
<polygon fill="white" stroke="#666666" points="288.5,-468.75 159.25,-468.75 159.25,-448 288.5,-448 288.5,-468.75"/>
<text text-anchor="middle" x="223.88" y="-455.25" font-family="Helvetica,sans-Serif" font-size="10.00">fl::FixedMap::operator[]</text>
</a>
</g>
</g>
<!-- Node4&#45;&gt;Node27 -->
<g id="edge12_Node000004_Node000027" class="edge">
<title>Node4&#45;&gt;Node27</title>
<g id="a_edge12_Node000004_Node000027"><a xlink:title=" ">
<path fill="none" stroke="#63b8ff" d="M331.61,-482.13C312.54,-477.88 291.66,-473.24 273.47,-469.19"/>
<polygon fill="#63b8ff" stroke="#63b8ff" points="330.59,-485.49 341.11,-484.24 332.11,-478.66 330.59,-485.49"/>
</a>
</g>
</g>
<!-- Node28 -->
<g id="Node000028" class="node">
<title>Node28</title>
<g id="a_Node000028"><a xlink:href="../../d2/df3/classfl_1_1_fixed_map.html#aa32e21164660946c105d35b3d20ee3bc" target="_top" xlink:title=" ">
<polygon fill="white" stroke="#666666" points="288.5,-429.75 159.25,-429.75 159.25,-409 288.5,-409 288.5,-429.75"/>
<text text-anchor="middle" x="223.88" y="-416.25" font-family="Helvetica,sans-Serif" font-size="10.00">fl::FixedMap::operator[]</text>
</a>
</g>
</g>
<!-- Node4&#45;&gt;Node28 -->
<g id="edge13_Node000004_Node000028" class="edge">
<title>Node4&#45;&gt;Node28</title>
<g id="a_edge13_Node000004_Node000028"><a xlink:title=" ">
<path fill="none" stroke="#63b8ff" d="M366.58,-478.17C348.24,-465.96 322.19,-449.93 297.5,-439.38 289.32,-435.88 280.37,-432.83 271.62,-430.24"/>
<polygon fill="#63b8ff" stroke="#63b8ff" points="364.42,-480.94 374.66,-483.66 368.35,-475.15 364.42,-480.94"/>
</a>
</g>
</g>
<!-- Node4&#45;&gt;Node29 -->
<g id="edge14_Node000004_Node000029" class="edge">
<title>Node4&#45;&gt;Node29</title>
<g id="a_edge14_Node000004_Node000029"><a xlink:title=" ">
<path fill="none" stroke="#63b8ff" d="M341.95,-511.92C338.86,-514.12 335.99,-516.59 333.5,-519.38 295.26,-562.16 338.62,-603.34 297.5,-643.38 291.34,-649.38 283.52,-653.55 275.32,-656.43"/>
<polygon fill="#63b8ff" stroke="#63b8ff" points="343.62,-515 350.47,-506.93 340.08,-508.97 343.62,-515"/>
</a>
</g>
</g>
<!-- Node13&#45;&gt;Node5 -->
<g id="edge8_Node000013_Node000005" class="edge">
<title>Node13&#45;&gt;Node5</title>
<g id="a_edge8_Node000013_Node000005"><a xlink:title=" ">
<path fill="none" stroke="#63b8ff" d="M165.4,-394.55C160.21,-396.32 155.09,-398.26 150.25,-400.38 121.12,-413.09 90.3,-433.86 72.72,-446.5"/>
<polygon fill="#63b8ff" stroke="#63b8ff" points="166.18,-397.97 174.65,-391.6 164.06,-391.3 166.18,-397.97"/>
</a>
</g>
</g>
<!-- Node18&#45;&gt;Node25 -->
<g id="edge10_Node000018_Node000025" class="edge">
<title>Node18&#45;&gt;Node25</title>
<g id="a_edge10_Node000018_Node000025"><a xlink:title=" ">
<path fill="none" stroke="#63b8ff" d="M158.1,-541.85C143.78,-543.5 128.71,-545.23 114.75,-546.84"/>
<polygon fill="#63b8ff" stroke="#63b8ff" points="158.35,-545.34 167.88,-540.72 157.55,-538.39 158.35,-545.34"/>
</a>
</g>
</g>
<!-- Node31&#45;&gt;Node31 -->
<g id="edge18_Node000031_Node000031" class="edge">
<title>Node31&#45;&gt;Node31</title>
<g id="a_edge18_Node000031_Node000031"><a xlink:title=" ">
<path fill="none" stroke="#63b8ff" d="M419.49,-764.24C415.86,-768.08 406.74,-770.75 392.12,-770.75 365.4,-770.75 357.05,-761.81 367.07,-753.15"/>
<polygon fill="#63b8ff" stroke="#63b8ff" points="422.95,-763.71 417.49,-754.63 416.1,-765.13 422.95,-763.71"/>
</a>
</g>
</g>
<!-- Node31&#45;&gt;Node32 -->
<g id="edge19_Node000031_Node000032" class="edge">
<title>Node31&#45;&gt;Node32</title>
<g id="a_edge19_Node000031_Node000032"><a xlink:title=" ">
<path fill="none" stroke="#63b8ff" d="M322.03,-741.96C308.87,-741.88 295.21,-741.8 282.45,-741.72"/>
<polygon fill="#63b8ff" stroke="#63b8ff" points="321.91,-745.46 331.93,-742.02 321.95,-738.46 321.91,-745.46"/>
</a>
</g>
</g>
<!-- Node33&#45;&gt;Node33 -->
<g id="edge22_Node000033_Node000033" class="edge">
<title>Node33&#45;&gt;Node33</title>
<g id="a_edge22_Node000033_Node000033"><a xlink:title=" ">
<path fill="none" stroke="#63b8ff" d="M419.49,-631.24C415.86,-635.08 406.74,-637.75 392.12,-637.75 365.4,-637.75 357.05,-628.81 367.07,-620.15"/>
<polygon fill="#63b8ff" stroke="#63b8ff" points="422.95,-630.71 417.49,-621.63 416.1,-632.13 422.95,-630.71"/>
</a>
</g>
</g>
<!-- Node33&#45;&gt;Node34 -->
<g id="edge23_Node000033_Node000034" class="edge">
<title>Node33&#45;&gt;Node34</title>
<g id="a_edge23_Node000033_Node000034"><a xlink:title=" ">
<path fill="none" stroke="#63b8ff" d="M366.51,-626.78C356.2,-634.21 344.15,-643.07 333.5,-651.38 317.08,-664.18 315.96,-671.73 297.5,-681.38 290.55,-685.01 282.86,-688.04 275.17,-690.55"/>
<polygon fill="#63b8ff" stroke="#63b8ff" points="368.43,-629.71 374.53,-621.04 364.36,-624.02 368.43,-629.71"/>
</a>
</g>
</g>
<!-- Node37 -->
<g id="Node000037" class="node">
<title>Node37</title>
<g id="a_Node000037"><a xlink:href="../../dd/d44/classfl_1_1_fixed_set.html#a019cb08f32a7590c69a40f119c7ebb64" target="_top" xlink:title=" ">
<polygon fill="white" stroke="#666666" points="438.75,-196.75 345.5,-196.75 345.5,-176 438.75,-176 438.75,-196.75"/>
<text text-anchor="middle" x="392.12" y="-183.25" font-family="Helvetica,sans-Serif" font-size="10.00">fl::FixedSet::find</text>
</a>
</g>
</g>
<!-- Node36&#45;&gt;Node37 -->
<g id="edge29_Node000036_Node000037" class="edge">
<title>Node36&#45;&gt;Node37</title>
<g id="a_edge29_Node000036_Node000037"><a xlink:title=" ">
<path fill="none" stroke="#63b8ff" d="M500.96,-229.87C496.13,-228.11 491.32,-226.27 486.75,-224.38 470.23,-217.52 467.23,-213.32 450.75,-206.38 443.04,-203.13 434.6,-199.98 426.62,-197.18"/>
<polygon fill="#63b8ff" stroke="#63b8ff" points="499.47,-233.06 510.06,-233.06 501.78,-226.45 499.47,-233.06"/>
</a>
</g>
</g>
<!-- Node41 -->
<g id="Node000041" class="node">
<title>Node41</title>
<g id="a_Node000041"><a xlink:href="../../dd/d44/classfl_1_1_fixed_set.html#a18926c88fdd3f536415854e43e24ad4a" target="_top" xlink:title=" ">
<polygon fill="white" stroke="#666666" points="272.38,-117.75 175.38,-117.75 175.38,-97 272.38,-97 272.38,-117.75"/>
<text text-anchor="middle" x="223.88" y="-104.25" font-family="Helvetica,sans-Serif" font-size="10.00">fl::FixedSet::next</text>
</a>
</g>
</g>
<!-- Node36&#45;&gt;Node41 -->
<g id="edge36_Node000036_Node000041" class="edge">
<title>Node36&#45;&gt;Node41</title>
<g id="a_edge36_Node000036_Node000041"><a xlink:title=" ">
<path fill="none" stroke="#63b8ff" d="M492.85,-228.58C490.72,-227.29 488.68,-225.89 486.75,-224.38 463.17,-205.89 474.9,-185.11 450.75,-167.38 397.78,-128.46 321.4,-114.77 272.45,-109.96"/>
<polygon fill="#63b8ff" stroke="#63b8ff" points="490.79,-231.45 501.28,-232.93 494,-225.23 490.79,-231.45"/>
</a>
</g>
</g>
<!-- Node42 -->
<g id="Node000042" class="node">
<title>Node42</title>
<g id="a_Node000042"><a xlink:href="../../dd/d44/classfl_1_1_fixed_set.html#a7db056ad59839116b456b6d378cbbab6" target="_top" xlink:title=" ">
<polygon fill="white" stroke="#666666" points="272.38,-273.75 175.38,-273.75 175.38,-253 272.38,-253 272.38,-273.75"/>
<text text-anchor="middle" x="223.88" y="-260.25" font-family="Helvetica,sans-Serif" font-size="10.00">fl::FixedSet::prev</text>
</a>
</g>
</g>
<!-- Node36&#45;&gt;Node42 -->
<g id="edge37_Node000036_Node000042" class="edge">
<title>Node36&#45;&gt;Node42</title>
<g id="a_edge37_Node000036_Node000042"><a xlink:title=" ">
<path fill="none" stroke="#63b8ff" d="M485.19,-248C423.34,-251.66 329.2,-257.21 272.7,-260.55"/>
<polygon fill="#63b8ff" stroke="#63b8ff" points="485.06,-251.52 494.84,-247.43 484.65,-244.53 485.06,-251.52"/>
</a>
</g>
</g>
<!-- Node43 -->
<g id="Node000043" class="node">
<title>Node43</title>
<g id="a_Node000043"><a xlink:href="../../dd/d44/classfl_1_1_fixed_set.html#a311f2810d1e9a2e17a7d34d9b7edb333" target="_top" xlink:title=" ">
<polygon fill="white" stroke="#666666" points="438.75,-235.75 345.5,-235.75 345.5,-215 438.75,-215 438.75,-235.75"/>
<text text-anchor="middle" x="392.12" y="-222.25" font-family="Helvetica,sans-Serif" font-size="10.00">fl::FixedSet::find</text>
</a>
</g>
</g>
<!-- Node36&#45;&gt;Node43 -->
<g id="edge35_Node000036_Node000043" class="edge">
<title>Node36&#45;&gt;Node43</title>
<g id="a_edge35_Node000036_Node000043"><a xlink:title=" ">
<path fill="none" stroke="#63b8ff" d="M485.32,-236.79C469.9,-234.88 453.61,-232.86 439.09,-231.06"/>
<polygon fill="#63b8ff" stroke="#63b8ff" points="484.51,-240.21 494.86,-237.97 485.37,-233.27 484.51,-240.21"/>
</a>
</g>
</g>
<!-- Node38 -->
<g id="Node000038" class="node">
<title>Node38</title>
<g id="a_Node000038"><a xlink:href="../../dd/d44/classfl_1_1_fixed_set.html#a6a6213c4cb7bb8233a79b4df94cafeb3" target="_top" xlink:title=" ">
<polygon fill="white" stroke="#666666" points="275,-195.75 172.75,-195.75 172.75,-175 275,-175 275,-195.75"/>
<text text-anchor="middle" x="223.88" y="-182.25" font-family="Helvetica,sans-Serif" font-size="10.00">fl::FixedSet::erase</text>
</a>
</g>
</g>
<!-- Node37&#45;&gt;Node38 -->
<g id="edge30_Node000037_Node000038" class="edge">
<title>Node37&#45;&gt;Node38</title>
<g id="a_edge30_Node000037_Node000038"><a xlink:title=" ">
<path fill="none" stroke="#63b8ff" d="M333.99,-186.03C314.91,-185.92 293.79,-185.79 275.26,-185.68"/>
<polygon fill="#63b8ff" stroke="#63b8ff" points="333.72,-189.53 343.74,-186.09 333.76,-182.53 333.72,-189.53"/>
</a>
</g>
</g>
<!-- Node39 -->
<g id="Node000039" class="node">
<title>Node39</title>
<g id="a_Node000039"><a xlink:href="../../dd/d44/classfl_1_1_fixed_set.html#a19fc82e906d54a3a5cd0a8ce9e9607d9" target="_top" xlink:title=" ">
<polygon fill="white" stroke="#666666" points="270.12,-156.75 177.62,-156.75 177.62,-136 270.12,-136 270.12,-156.75"/>
<text text-anchor="middle" x="223.88" y="-143.25" font-family="Helvetica,sans-Serif" font-size="10.00">fl::FixedSet::has</text>
</a>
</g>
</g>
<!-- Node37&#45;&gt;Node39 -->
<g id="edge31_Node000037_Node000039" class="edge">
<title>Node37&#45;&gt;Node39</title>
<g id="a_edge31_Node000037_Node000039"><a xlink:title=" ">
<path fill="none" stroke="#63b8ff" d="M334.99,-172.87C313.79,-167.77 289.96,-162.03 269.9,-157.21"/>
<polygon fill="#63b8ff" stroke="#63b8ff" points="334.12,-176.26 344.66,-175.2 335.76,-169.45 334.12,-176.26"/>
</a>
</g>
</g>
<!-- Node40 -->
<g id="Node000040" class="node">
<title>Node40</title>
<g id="a_Node000040"><a xlink:href="../../dd/d44/classfl_1_1_fixed_set.html#a431acf10e9883de98dabb9f12dd22083" target="_top" xlink:title=" ">
<polygon fill="white" stroke="#666666" points="275.38,-234.75 172.38,-234.75 172.38,-214 275.38,-214 275.38,-234.75"/>
<text text-anchor="middle" x="223.88" y="-221.25" font-family="Helvetica,sans-Serif" font-size="10.00">fl::FixedSet::insert</text>
</a>
</g>
</g>
<!-- Node37&#45;&gt;Node40 -->
<g id="edge32_Node000037_Node000040" class="edge">
<title>Node37&#45;&gt;Node40</title>
<g id="a_edge32_Node000037_Node000040"><a xlink:title=" ">
<path fill="none" stroke="#63b8ff" d="M334.04,-199.42C313.93,-204.02 291.56,-209.13 272.33,-213.53"/>
<polygon fill="#63b8ff" stroke="#63b8ff" points="334.81,-202.84 343.78,-197.2 333.25,-196.01 334.81,-202.84"/>
</a>
</g>
</g>
<!-- Node37&#45;&gt;Node41 -->
<g id="edge33_Node000037_Node000041" class="edge">
<title>Node37&#45;&gt;Node41</title>
<g id="a_edge33_Node000037_Node000041"><a xlink:title=" ">
<path fill="none" stroke="#63b8ff" d="M350.36,-170.82C344.52,-167.99 338.73,-164.83 333.5,-161.38 315.13,-149.26 316.68,-138.17 297.5,-127.38 289.86,-123.08 281.25,-119.66 272.7,-116.95"/>
<polygon fill="#63b8ff" stroke="#63b8ff" points="348.86,-173.98 359.41,-174.92 351.74,-167.61 348.86,-173.98"/>
</a>
</g>
</g>
<!-- Node37&#45;&gt;Node42 -->
<g id="edge34_Node000037_Node000042" class="edge">
<title>Node37&#45;&gt;Node42</title>
<g id="a_edge34_Node000037_Node000042"><a xlink:title=" ">
<path fill="none" stroke="#63b8ff" d="M341.53,-201.84C338.75,-203.24 336.05,-204.75 333.5,-206.38 314.14,-218.69 317.25,-231.7 297.5,-243.38 289.96,-247.83 281.39,-251.33 272.85,-254.06"/>
<polygon fill="#63b8ff" stroke="#63b8ff" points="342.77,-205.12 350.47,-197.85 339.91,-198.73 342.77,-205.12"/>
</a>
</g>
</g>
<!-- Node48 -->
<g id="Node000048" class="node">
<title>Node48</title>
<g id="a_Node000048"><a xlink:href="../../d3/d73/classfl_1_1_fixed_vector.html#a9c810e60da5a65bd52f663481e3448f8" target="_top" xlink:title=" ">
<polygon fill="white" stroke="#666666" points="450.75,-99.75 333.5,-99.75 333.5,-79 450.75,-79 450.75,-99.75"/>
<text text-anchor="middle" x="392.12" y="-86.25" font-family="Helvetica,sans-Serif" font-size="10.00">fl::FixedVector::erase</text>
</a>
</g>
</g>
<!-- Node47&#45;&gt;Node48 -->
<g id="edge42_Node000047_Node000048" class="edge">
<title>Node47&#45;&gt;Node48</title>
<g id="a_edge42_Node000047_Node000048"><a xlink:title=" ">
<path fill="none" stroke="#63b8ff" d="M481.94,-88.8C471.67,-88.86 461.1,-88.93 451,-89"/>
<polygon fill="#63b8ff" stroke="#63b8ff" points="481.88,-92.3 491.86,-88.73 481.83,-85.3 481.88,-92.3"/>
</a>
</g>
</g>
<!-- Node49 -->
<g id="Node000049" class="node">
<title>Node49</title>
<g id="a_Node000049"><a xlink:href="../../d3/d73/classfl_1_1_fixed_vector.html#a852557bd96bddce07ddfcb63ba9bb52c" target="_top" xlink:title=" ">
<polygon fill="white" stroke="#666666" points="445.88,-60.75 338.38,-60.75 338.38,-40 445.88,-40 445.88,-60.75"/>
<text text-anchor="middle" x="392.12" y="-47.25" font-family="Helvetica,sans-Serif" font-size="10.00">fl::FixedVector::has</text>
</a>
</g>
</g>
<!-- Node47&#45;&gt;Node49 -->
<g id="edge43_Node000047_Node000049" class="edge">
<title>Node47&#45;&gt;Node49</title>
<g id="a_edge43_Node000047_Node000049"><a xlink:title=" ">
<path fill="none" stroke="#63b8ff" d="M492.04,-74.86C473.92,-70.38 454,-65.44 436.81,-61.19"/>
<polygon fill="#63b8ff" stroke="#63b8ff" points="491.03,-78.22 501.58,-77.22 492.71,-71.42 491.03,-78.22"/>
</a>
</g>
</g>
</g>
</svg>
