<?xml version="1.0" encoding="UTF-8" standalone="no"?>
<!DOCTYPE svg PUBLIC "-//W3C//DTD SVG 1.1//EN"
 "http://www.w3.org/Graphics/SVG/1.1/DTD/svg11.dtd">
<!-- Generated by graphviz version 12.2.1 (20241206.2353)
 -->
<!-- Title: Key::Update Pages: 1 -->
<svg width="567pt" height="106pt"
 viewBox="0.00 0.00 567.00 105.75" xmlns="http://www.w3.org/2000/svg" xmlns:xlink="http://www.w3.org/1999/xlink">
<g id="graph0" class="graph" transform="scale(1 1) rotate(0) translate(4 101.75)">
<title>Key::Update</title>
<!-- Node1 -->
<g id="Node000001" class="node">
<title>Node1</title>
<g id="a_Node000001"><a xlink:title=" ">
<polygon fill="#999999" stroke="#666666" points="74.5,-77.75 0,-77.75 0,-57 74.5,-57 74.5,-77.75"/>
<text text-anchor="middle" x="37.25" y="-64.25" font-family="Helvetica,sans-Serif" font-size="10.00">Key::Update</text>
</a>
</g>
</g>
<!-- Node2 -->
<g id="Node000002" class="node">
<title>Node2</title>
<g id="a_Node000002"><a xlink:href="../../db/d42/struct_key.html#a03534d492ab55aa8e9c24165e76b4356" target="_top" xlink:title=" ">
<polygon fill="white" stroke="#666666" points="203.75,-97.75 134.5,-97.75 134.5,-77 203.75,-77 203.75,-97.75"/>
<text text-anchor="middle" x="169.12" y="-84.25" font-family="Helvetica,sans-Serif" font-size="10.00">Key::SetOff</text>
</a>
</g>
</g>
<!-- Node1&#45;&gt;Node2 -->
<g id="edge1_Node000001_Node000002" class="edge">
<title>Node1&#45;&gt;Node2</title>
<g id="a_edge1_Node000001_Node000002"><a xlink:title=" ">
<path fill="none" stroke="#63b8ff" d="M74.77,-73C89.75,-75.31 107.23,-78 122.99,-80.42"/>
<polygon fill="#63b8ff" stroke="#63b8ff" points="122.19,-83.84 132.61,-81.91 123.26,-76.92 122.19,-83.84"/>
</a>
</g>
</g>
<!-- Node3 -->
<g id="Node000003" class="node">
<title>Node3</title>
<g id="a_Node000003"><a xlink:href="../../db/d42/struct_key.html#af13ad91740bfcfc76380b4684a2668c1" target="_top" xlink:title=" ">
<polygon fill="white" stroke="#666666" points="227.75,-58.75 110.5,-58.75 110.5,-38 227.75,-38 227.75,-58.75"/>
<text text-anchor="middle" x="169.12" y="-45.25" font-family="Helvetica,sans-Serif" font-size="10.00">Key::UpdateIntensity</text>
</a>
</g>
</g>
<!-- Node1&#45;&gt;Node3 -->
<g id="edge2_Node000001_Node000003" class="edge">
<title>Node1&#45;&gt;Node3</title>
<g id="a_edge2_Node000001_Node000003"><a xlink:title=" ">
<path fill="none" stroke="#63b8ff" d="M74.77,-62.03C82.3,-60.93 90.47,-59.74 98.73,-58.53"/>
<polygon fill="#63b8ff" stroke="#63b8ff" points="99.12,-62.01 108.51,-57.1 98.11,-55.08 99.12,-62.01"/>
</a>
</g>
</g>
<!-- Node4 -->
<g id="Node000004" class="node">
<title>Node4</title>
<g id="a_Node000004"><a xlink:href="../../db/d42/struct_key.html#a7f137c239dd54c73259f0df8731b5164" target="_top" xlink:title=" ">
<polygon fill="white" stroke="#666666" points="406.88,-97.75 272.38,-97.75 272.38,-77 406.88,-77 406.88,-97.75"/>
<text text-anchor="middle" x="339.62" y="-84.25" font-family="Helvetica,sans-Serif" font-size="10.00">Key::AttackRemapFactor</text>
</a>
</g>
</g>
<!-- Node3&#45;&gt;Node4 -->
<g id="edge3_Node000003_Node000004" class="edge">
<title>Node3&#45;&gt;Node4</title>
<g id="a_edge3_Node000003_Node000004"><a xlink:title=" ">
<path fill="none" stroke="#63b8ff" d="M217.06,-59.24C236.79,-63.8 259.94,-69.16 280.71,-73.97"/>
<polygon fill="#63b8ff" stroke="#63b8ff" points="279.64,-77.32 290.17,-76.16 281.22,-70.5 279.64,-77.32"/>
</a>
</g>
</g>
<!-- Node5 -->
<g id="Node000005" class="node">
<title>Node5</title>
<g id="a_Node000005"><a xlink:href="../../db/d42/struct_key.html#abbe629a5358df091d6202309e8327b23" target="_top" xlink:title=" ">
<polygon fill="white" stroke="#666666" points="415.5,-58.75 263.75,-58.75 263.75,-38 415.5,-38 415.5,-58.75"/>
<text text-anchor="middle" x="339.62" y="-45.25" font-family="Helvetica,sans-Serif" font-size="10.00">Key::CalcAttackDecayFactor</text>
</a>
</g>
</g>
<!-- Node3&#45;&gt;Node5 -->
<g id="edge4_Node000003_Node000005" class="edge">
<title>Node3&#45;&gt;Node5</title>
<g id="a_edge4_Node000003_Node000005"><a xlink:title=" ">
<path fill="none" stroke="#63b8ff" d="M228.11,-48.38C235.81,-48.38 243.84,-48.38 251.89,-48.38"/>
<polygon fill="#63b8ff" stroke="#63b8ff" points="251.76,-51.88 261.76,-48.38 251.76,-44.88 251.76,-51.88"/>
</a>
</g>
</g>
<!-- Node12 -->
<g id="Node000012" class="node">
<title>Node12</title>
<g id="a_Node000012"><a xlink:href="../../db/d42/struct_key.html#ad1ebc123a10761ef1d1273e4afa30f61" target="_top" xlink:title=" ">
<polygon fill="white" stroke="#666666" points="559,-20.75 451.5,-20.75 451.5,0 559,0 559,-20.75"/>
<text text-anchor="middle" x="505.25" y="-7.25" font-family="Helvetica,sans-Serif" font-size="10.00">Key::VelocityFactor</text>
</a>
</g>
</g>
<!-- Node3&#45;&gt;Node12 -->
<g id="edge7_Node000003_Node000012" class="edge">
<title>Node3&#45;&gt;Node12</title>
<g id="a_edge7_Node000003_Node000012"><a xlink:title=" ">
<path fill="none" stroke="#63b8ff" d="M217.56,-37.59C232.3,-34.55 248.64,-31.5 263.75,-29.38 323.08,-21.04 391.18,-16.09 439.74,-13.34"/>
<polygon fill="#63b8ff" stroke="#63b8ff" points="439.73,-16.85 449.52,-12.81 439.34,-9.86 439.73,-16.85"/>
</a>
</g>
</g>
<!-- Node6 -->
<g id="Node000006" class="node">
<title>Node6</title>
<g id="a_Node000006"><a xlink:href="../../df/d2d/util_8cpp.html#a0f02f59740c07ab03cedef15f4db1fb5" target="_top" xlink:title=" ">
<polygon fill="#fff0f0" stroke="red" points="553.75,-59.75 456.75,-59.75 456.75,-39 553.75,-39 553.75,-59.75"/>
<text text-anchor="middle" x="505.25" y="-46.25" font-family="Helvetica,sans-Serif" font-size="10.00">CalcDecayFactor</text>
</a>
</g>
</g>
<!-- Node5&#45;&gt;Node6 -->
<g id="edge5_Node000005_Node000006" class="edge">
<title>Node5&#45;&gt;Node6</title>
<g id="a_edge5_Node000005_Node000006"><a xlink:title=" ">
<path fill="none" stroke="#63b8ff" d="M415.73,-48.83C425.53,-48.89 435.45,-48.95 444.94,-49.01"/>
<polygon fill="#63b8ff" stroke="#63b8ff" points="444.72,-52.51 454.74,-49.07 444.76,-45.51 444.72,-52.51"/>
</a>
</g>
</g>
<!-- Node5&#45;&gt;Node12 -->
<g id="edge6_Node000005_Node000012" class="edge">
<title>Node5&#45;&gt;Node12</title>
<g id="a_edge6_Node000005_Node000012"><a xlink:title=" ">
<path fill="none" stroke="#63b8ff" d="M387.08,-37.59C405.56,-33.3 427.02,-28.31 446.49,-23.79"/>
<polygon fill="#63b8ff" stroke="#63b8ff" points="447.26,-27.2 456.21,-21.53 445.68,-20.38 447.26,-27.2"/>
</a>
</g>
</g>
</g>
</svg>
