<?xml version="1.0" encoding="UTF-8" standalone="no"?>
<!DOCTYPE svg PUBLIC "-//W3C//DTD SVG 1.1//EN"
 "http://www.w3.org/Graphics/SVG/1.1/DTD/svg11.dtd">
<!-- Generated by graphviz version 12.2.1 (20241206.2353)
 -->
<!-- Title: Key::SetOff Pages: 1 -->
<svg width="479pt" height="68pt"
 viewBox="0.00 0.00 479.00 67.75" xmlns="http://www.w3.org/2000/svg" xmlns:xlink="http://www.w3.org/1999/xlink">
<g id="graph0" class="graph" transform="scale(1 1) rotate(0) translate(4 63.75)">
<title>Key::SetOff</title>
<!-- Node1 -->
<g id="Node000001" class="node">
<title>Node1</title>
<g id="a_Node000001"><a xlink:title=" ">
<polygon fill="#999999" stroke="#666666" points="471,-39.75 401.75,-39.75 401.75,-19 471,-19 471,-39.75"/>
<text text-anchor="middle" x="436.38" y="-26.25" font-family="Helvetica,sans-Serif" font-size="10.00">Key::SetOff</text>
</a>
</g>
</g>
<!-- Node2 -->
<g id="Node000002" class="node">
<title>Node2</title>
<g id="a_Node000002"><a xlink:href="../../db/d37/class_keyboard_state.html#af3b786ba848c2366f40115cd8765a697" target="_top" xlink:title=" ">
<polygon fill="white" stroke="#666666" points="365.75,-59.75 200.5,-59.75 200.5,-39 365.75,-39 365.75,-59.75"/>
<text text-anchor="middle" x="283.12" y="-46.25" font-family="Helvetica,sans-Serif" font-size="10.00">KeyboardState::HandleNoteOff</text>
</a>
</g>
</g>
<!-- Node1&#45;&gt;Node2 -->
<g id="edge1_Node000001_Node000002" class="edge">
<title>Node1&#45;&gt;Node2</title>
<g id="a_edge1_Node000001_Node000002"><a xlink:title=" ">
<path fill="none" stroke="#63b8ff" d="M390.23,-35.34C382.57,-36.36 374.4,-37.44 366.13,-38.53"/>
<polygon fill="#63b8ff" stroke="#63b8ff" points="390.48,-38.84 399.93,-34.06 389.56,-31.9 390.48,-38.84"/>
</a>
</g>
</g>
<!-- Node4 -->
<g id="Node000004" class="node">
<title>Node4</title>
<g id="a_Node000004"><a xlink:href="../../db/d42/struct_key.html#ac841a3966fde8cd5df0eafa0bdcf0cca" target="_top" xlink:title=" ">
<polygon fill="white" stroke="#666666" points="320.38,-20.75 245.88,-20.75 245.88,0 320.38,0 320.38,-20.75"/>
<text text-anchor="middle" x="283.12" y="-7.25" font-family="Helvetica,sans-Serif" font-size="10.00">Key::Update</text>
</a>
</g>
</g>
<!-- Node1&#45;&gt;Node4 -->
<g id="edge3_Node000001_Node000004" class="edge">
<title>Node1&#45;&gt;Node4</title>
<g id="a_edge3_Node000001_Node000004"><a xlink:title=" ">
<path fill="none" stroke="#63b8ff" d="M390.28,-23.71C368.13,-20.93 341.77,-17.62 320.86,-14.99"/>
<polygon fill="#63b8ff" stroke="#63b8ff" points="389.57,-27.15 399.93,-24.92 390.44,-20.2 389.57,-27.15"/>
</a>
</g>
</g>
<!-- Node3 -->
<g id="Node000003" class="node">
<title>Node3</title>
<g id="a_Node000003"><a xlink:href="../../db/d37/class_keyboard_state.html#a6327c48f59e01741fbb2db535ad49c35" target="_top" xlink:title=" ">
<polygon fill="white" stroke="#666666" points="164.5,-59.75 0,-59.75 0,-39 164.5,-39 164.5,-59.75"/>
<text text-anchor="middle" x="82.25" y="-46.25" font-family="Helvetica,sans-Serif" font-size="10.00">KeyboardState::HandleNoteOn</text>
</a>
</g>
</g>
<!-- Node2&#45;&gt;Node3 -->
<g id="edge2_Node000002_Node000003" class="edge">
<title>Node2&#45;&gt;Node3</title>
<g id="a_edge2_Node000002_Node000003"><a xlink:title=" ">
<path fill="none" stroke="#63b8ff" d="M188.8,-49.38C180.78,-49.38 172.7,-49.38 164.78,-49.38"/>
<polygon fill="#63b8ff" stroke="#63b8ff" points="188.57,-52.88 198.57,-49.38 188.57,-45.88 188.57,-52.88"/>
</a>
</g>
</g>
<!-- Node5 -->
<g id="Node000005" class="node">
<title>Node5</title>
<g id="a_Node000005"><a xlink:href="../../db/d37/class_keyboard_state.html#a12563a96cac7c1069fd1fdcbed1ed3c0" target="_top" xlink:title=" ">
<polygon fill="white" stroke="#666666" points="146.5,-20.75 18,-20.75 18,0 146.5,0 146.5,-20.75"/>
<text text-anchor="middle" x="82.25" y="-7.25" font-family="Helvetica,sans-Serif" font-size="10.00">KeyboardState::Update</text>
</a>
</g>
</g>
<!-- Node4&#45;&gt;Node5 -->
<g id="edge4_Node000004_Node000005" class="edge">
<title>Node4&#45;&gt;Node5</title>
<g id="a_edge4_Node000004_Node000005"><a xlink:title=" ">
<path fill="none" stroke="#63b8ff" d="M234.47,-10.38C208.22,-10.38 175.29,-10.38 146.87,-10.38"/>
<polygon fill="#63b8ff" stroke="#63b8ff" points="234.13,-13.88 244.13,-10.38 234.13,-6.88 234.13,-13.88"/>
</a>
</g>
</g>
</g>
</svg>
