<?xml version="1.0" encoding="UTF-8" standalone="no"?>
<!DOCTYPE svg PUBLIC "-//W3C//DTD SVG 1.1//EN"
 "http://www.w3.org/Graphics/SVG/1.1/DTD/svg11.dtd">
<!-- Generated by graphviz version 12.2.1 (20241206.2353)
 -->
<!-- Title: Key::CalcAttackDecayFactor Pages: 1 -->
<svg width="512pt" height="87pt"
 viewBox="0.00 0.00 512.25 86.75" xmlns="http://www.w3.org/2000/svg" xmlns:xlink="http://www.w3.org/1999/xlink">
<g id="graph0" class="graph" transform="scale(1 1) rotate(0) translate(4 82.75)">
<title>Key::CalcAttackDecayFactor</title>
<!-- Node1 -->
<g id="Node000001" class="node">
<title>Node1</title>
<g id="a_Node000001"><a xlink:title=" ">
<polygon fill="#999999" stroke="#666666" points="151.75,-39.75 0,-39.75 0,-19 151.75,-19 151.75,-39.75"/>
<text text-anchor="middle" x="75.88" y="-26.25" font-family="Helvetica,sans-Serif" font-size="10.00">Key::CalcAttackDecayFactor</text>
</a>
</g>
</g>
<!-- Node2 -->
<g id="Node000002" class="node">
<title>Node2</title>
<g id="a_Node000002"><a xlink:href="../../df/d2d/util_8cpp.html#a0f02f59740c07ab03cedef15f4db1fb5" target="_top" xlink:title=" ">
<polygon fill="white" stroke="#666666" points="290,-59.75 193,-59.75 193,-39 290,-39 290,-59.75"/>
<text text-anchor="middle" x="241.5" y="-46.25" font-family="Helvetica,sans-Serif" font-size="10.00">CalcDecayFactor</text>
</a>
</g>
</g>
<!-- Node1&#45;&gt;Node2 -->
<g id="edge1_Node000001_Node000002" class="edge">
<title>Node1&#45;&gt;Node2</title>
<g id="a_edge1_Node000001_Node000002"><a xlink:title=" ">
<path fill="none" stroke="#63b8ff" d="M151.98,-38.56C161.78,-39.75 171.7,-40.97 181.19,-42.13"/>
<polygon fill="#63b8ff" stroke="#63b8ff" points="180.65,-45.59 191,-43.32 181.5,-38.64 180.65,-45.59"/>
</a>
</g>
</g>
<!-- Node8 -->
<g id="Node000008" class="node">
<title>Node8</title>
<g id="a_Node000008"><a xlink:href="../../db/d42/struct_key.html#ad1ebc123a10761ef1d1273e4afa30f61" target="_top" xlink:title=" ">
<polygon fill="white" stroke="#666666" points="295.25,-20.75 187.75,-20.75 187.75,0 295.25,0 295.25,-20.75"/>
<text text-anchor="middle" x="241.5" y="-7.25" font-family="Helvetica,sans-Serif" font-size="10.00">Key::VelocityFactor</text>
</a>
</g>
</g>
<!-- Node1&#45;&gt;Node8 -->
<g id="edge5_Node000001_Node000008" class="edge">
<title>Node1&#45;&gt;Node8</title>
<g id="a_edge5_Node000001_Node000008"><a xlink:title=" ">
<path fill="none" stroke="#63b8ff" d="M151.98,-20.65C160,-19.72 168.1,-18.78 175.98,-17.87"/>
<polygon fill="#63b8ff" stroke="#63b8ff" points="176.29,-21.35 185.82,-16.72 175.48,-14.4 176.29,-21.35"/>
</a>
</g>
</g>
<!-- Node3 -->
<g id="Node000003" class="node">
<title>Node3</title>
<g id="a_Node000003"><a xlink:href="../../df/d2d/util_8cpp.html#aee747f0ac88c4cf7788a0c9d9b80268d" target="_top" xlink:title=" ">
<polygon fill="white" stroke="#666666" points="423.75,-78.75 331.25,-78.75 331.25,-58 423.75,-58 423.75,-78.75"/>
<text text-anchor="middle" x="377.5" y="-65.25" font-family="Helvetica,sans-Serif" font-size="10.00">MapDecayTime</text>
</a>
</g>
</g>
<!-- Node2&#45;&gt;Node3 -->
<g id="edge2_Node000002_Node000003" class="edge">
<title>Node2&#45;&gt;Node3</title>
<g id="a_edge2_Node000002_Node000003"><a xlink:title=" ">
<path fill="none" stroke="#63b8ff" d="M290.5,-56.18C300,-57.53 310.05,-58.95 319.81,-60.34"/>
<polygon fill="#63b8ff" stroke="#63b8ff" points="319.18,-63.78 329.58,-61.72 320.17,-56.85 319.18,-63.78"/>
</a>
</g>
</g>
<!-- Node7 -->
<g id="Node000007" class="node">
<title>Node7</title>
<g id="a_Node000007"><a xlink:href="../../df/d2d/util_8cpp.html#a06d59f8f94c4693a77270d804881f468" target="_top" xlink:title=" ">
<polygon fill="white" stroke="#666666" points="398.25,-39.75 356.75,-39.75 356.75,-19 398.25,-19 398.25,-39.75"/>
<text text-anchor="middle" x="377.5" y="-26.25" font-family="Helvetica,sans-Serif" font-size="10.00">mapf</text>
</a>
</g>
</g>
<!-- Node2&#45;&gt;Node7 -->
<g id="edge4_Node000002_Node000007" class="edge">
<title>Node2&#45;&gt;Node7</title>
<g id="a_edge4_Node000002_Node000007"><a xlink:title=" ">
<path fill="none" stroke="#63b8ff" d="M290.5,-42.21C308.75,-39.49 329.05,-36.46 345.34,-34.03"/>
<polygon fill="#63b8ff" stroke="#63b8ff" points="345.54,-37.53 354.91,-32.6 344.51,-30.61 345.54,-37.53"/>
</a>
</g>
</g>
<!-- Node4 -->
<g id="Node000004" class="node">
<title>Node4</title>
<g id="a_Node000004"><a xlink:href="../../d7/dd8/_approximating_function_8h.html#a5b61be736266623d9b4da9a66be9fa8e" target="_top" xlink:title=" ">
<polygon fill="#fff0f0" stroke="red" points="504.25,-78.75 459.75,-78.75 459.75,-58 504.25,-58 504.25,-78.75"/>
<text text-anchor="middle" x="482" y="-65.25" font-family="Helvetica,sans-Serif" font-size="10.00">Interp</text>
</a>
</g>
</g>
<!-- Node3&#45;&gt;Node4 -->
<g id="edge3_Node000003_Node000004" class="edge">
<title>Node3&#45;&gt;Node4</title>
<g id="a_edge3_Node000003_Node000004"><a xlink:title=" ">
<path fill="none" stroke="#63b8ff" d="M424.05,-68.38C432.13,-68.38 440.39,-68.38 448.02,-68.38"/>
<polygon fill="#63b8ff" stroke="#63b8ff" points="447.88,-71.88 457.88,-68.38 447.88,-64.88 447.88,-71.88"/>
</a>
</g>
</g>
</g>
</svg>
