<?xml version="1.0" encoding="UTF-8" standalone="no"?>
<!DOCTYPE svg PUBLIC "-//W3C//DTD SVG 1.1//EN"
 "http://www.w3.org/Graphics/SVG/1.1/DTD/svg11.dtd">
<!-- Generated by graphviz version 12.2.1 (20241206.2353)
 -->
<!-- Title: Key::AttackRemapFactor Pages: 1 -->
<svg width="571pt" height="29pt"
 viewBox="0.00 0.00 570.75 28.75" xmlns="http://www.w3.org/2000/svg" xmlns:xlink="http://www.w3.org/1999/xlink">
<g id="graph0" class="graph" transform="scale(1 1) rotate(0) translate(4 24.75)">
<title>Key::AttackRemapFactor</title>
<!-- Node1 -->
<g id="Node000001" class="node">
<title>Node1</title>
<g id="a_Node000001"><a xlink:title=" ">
<polygon fill="#999999" stroke="#666666" points="562.75,-20.75 428.25,-20.75 428.25,0 562.75,0 562.75,-20.75"/>
<text text-anchor="middle" x="495.5" y="-7.25" font-family="Helvetica,sans-Serif" font-size="10.00">Key::AttackRemapFactor</text>
</a>
</g>
</g>
<!-- Node2 -->
<g id="Node000002" class="node">
<title>Node2</title>
<g id="a_Node000002"><a xlink:href="../../db/d42/struct_key.html#af13ad91740bfcfc76380b4684a2668c1" target="_top" xlink:title=" ">
<polygon fill="white" stroke="#666666" points="392.25,-20.75 275,-20.75 275,0 392.25,0 392.25,-20.75"/>
<text text-anchor="middle" x="333.62" y="-7.25" font-family="Helvetica,sans-Serif" font-size="10.00">Key::UpdateIntensity</text>
</a>
</g>
</g>
<!-- Node1&#45;&gt;Node2 -->
<g id="edge1_Node000001_Node000002" class="edge">
<title>Node1&#45;&gt;Node2</title>
<g id="a_edge1_Node000001_Node000002"><a xlink:title=" ">
<path fill="none" stroke="#63b8ff" d="M416.7,-10.38C408.61,-10.38 400.5,-10.38 392.68,-10.38"/>
<polygon fill="#63b8ff" stroke="#63b8ff" points="416.57,-13.88 426.57,-10.38 416.57,-6.88 416.57,-13.88"/>
</a>
</g>
</g>
<!-- Node3 -->
<g id="Node000003" class="node">
<title>Node3</title>
<g id="a_Node000003"><a xlink:href="../../db/d42/struct_key.html#ac841a3966fde8cd5df0eafa0bdcf0cca" target="_top" xlink:title=" ">
<polygon fill="white" stroke="#666666" points="239,-20.75 164.5,-20.75 164.5,0 239,0 239,-20.75"/>
<text text-anchor="middle" x="201.75" y="-7.25" font-family="Helvetica,sans-Serif" font-size="10.00">Key::Update</text>
</a>
</g>
</g>
<!-- Node2&#45;&gt;Node3 -->
<g id="edge2_Node000002_Node000003" class="edge">
<title>Node2&#45;&gt;Node3</title>
<g id="a_edge2_Node000002_Node000003"><a xlink:title=" ">
<path fill="none" stroke="#63b8ff" d="M263.21,-10.38C254.92,-10.38 246.73,-10.38 239.18,-10.38"/>
<polygon fill="#63b8ff" stroke="#63b8ff" points="263.01,-13.88 273.01,-10.38 263.01,-6.88 263.01,-13.88"/>
</a>
</g>
</g>
<!-- Node4 -->
<g id="Node000004" class="node">
<title>Node4</title>
<g id="a_Node000004"><a xlink:href="../../db/d37/class_keyboard_state.html#a12563a96cac7c1069fd1fdcbed1ed3c0" target="_top" xlink:title=" ">
<polygon fill="white" stroke="#666666" points="128.5,-20.75 0,-20.75 0,0 128.5,0 128.5,-20.75"/>
<text text-anchor="middle" x="64.25" y="-7.25" font-family="Helvetica,sans-Serif" font-size="10.00">KeyboardState::Update</text>
</a>
</g>
</g>
<!-- Node3&#45;&gt;Node4 -->
<g id="edge3_Node000003_Node000004" class="edge">
<title>Node3&#45;&gt;Node4</title>
<g id="a_edge3_Node000003_Node000004"><a xlink:title=" ">
<path fill="none" stroke="#63b8ff" d="M152.7,-10.38C144.97,-10.38 136.86,-10.38 128.84,-10.38"/>
<polygon fill="#63b8ff" stroke="#63b8ff" points="152.57,-13.88 162.57,-10.38 152.57,-6.88 152.57,-13.88"/>
</a>
</g>
</g>
</g>
</svg>
