<?xml version="1.0" encoding="UTF-8" standalone="no"?>
<!DOCTYPE svg PUBLIC "-//W3C//DTD SVG 1.1//EN"
 "http://www.w3.org/Graphics/SVG/1.1/DTD/svg11.dtd">
<!-- Generated by graphviz version 12.2.1 (20241206.2353)
 -->
<!-- Title: Ripple::renderLed Pages: 1 -->
<svg width="313pt" height="29pt"
 viewBox="0.00 0.00 312.50 28.75" xmlns="http://www.w3.org/2000/svg" xmlns:xlink="http://www.w3.org/1999/xlink">
<g id="graph0" class="graph" transform="scale(1 1) rotate(0) translate(4 24.75)">
<title>Ripple::renderLed</title>
<!-- Node1 -->
<g id="Node000001" class="node">
<title>Node1</title>
<g id="a_Node000001"><a xlink:title=" ">
<polygon fill="#999999" stroke="#666666" points="304.5,-20.75 203,-20.75 203,0 304.5,0 304.5,-20.75"/>
<text text-anchor="middle" x="253.75" y="-7.25" font-family="Helvetica,sans-Serif" font-size="10.00">Ripple::renderLed</text>
</a>
</g>
</g>
<!-- Node2 -->
<g id="Node000002" class="node">
<title>Node2</title>
<g id="a_Node000002"><a xlink:href="../../d1/d85/class_ripple.html#a8e381b2bdc3568c72a4a674b63a353ee" target="_top" xlink:title=" ">
<polygon fill="white" stroke="#666666" points="167,-20.75 73,-20.75 73,0 167,0 167,-20.75"/>
<text text-anchor="middle" x="120" y="-7.25" font-family="Helvetica,sans-Serif" font-size="10.00">Ripple::advance</text>
</a>
</g>
</g>
<!-- Node1&#45;&gt;Node2 -->
<g id="edge1_Node000001_Node000002" class="edge">
<title>Node1&#45;&gt;Node2</title>
<g id="a_edge1_Node000001_Node000002"><a xlink:title=" ">
<path fill="none" stroke="#63b8ff" d="M191.22,-10.38C183.12,-10.38 174.93,-10.38 167.15,-10.38"/>
<polygon fill="#63b8ff" stroke="#63b8ff" points="191.05,-13.88 201.05,-10.38 191.05,-6.88 191.05,-13.88"/>
</a>
</g>
</g>
<!-- Node3 -->
<g id="Node000003" class="node">
<title>Node3</title>
<g id="a_Node000003"><a xlink:href="../../d1/ddb/_chromancer_8ino.html#afe461d27b9c48d5921c00d521181f12f" target="_top" xlink:title=" ">
<polygon fill="white" stroke="#666666" points="37,-20.75 0,-20.75 0,0 37,0 37,-20.75"/>
<text text-anchor="middle" x="18.5" y="-7.25" font-family="Helvetica,sans-Serif" font-size="10.00">loop</text>
</a>
</g>
</g>
<!-- Node2&#45;&gt;Node3 -->
<g id="edge2_Node000002_Node000003" class="edge">
<title>Node2&#45;&gt;Node3</title>
<g id="a_edge2_Node000002_Node000003"><a xlink:title=" ">
<path fill="none" stroke="#63b8ff" d="M61.25,-10.38C52.58,-10.38 44.24,-10.38 37.33,-10.38"/>
<polygon fill="#63b8ff" stroke="#63b8ff" points="61.23,-13.88 71.23,-10.38 61.23,-6.88 61.23,-13.88"/>
</a>
</g>
</g>
</g>
</svg>
