<?xml version="1.0" encoding="UTF-8" standalone="no"?>
<!DOCTYPE svg PUBLIC "-//W3C//DTD SVG 1.1//EN"
 "http://www.w3.org/Graphics/SVG/1.1/DTD/svg11.dtd">
<!-- Generated by graphviz version 12.2.1 (20241206.2353)
 -->
<!-- Title: /home/runner/work/FastLED/FastLED/src/fx/2d/bilinear_expansion.h Pages: 1 -->
<svg width="371pt" height="206pt"
 viewBox="0.00 0.00 371.25 206.00" xmlns="http://www.w3.org/2000/svg" xmlns:xlink="http://www.w3.org/1999/xlink">
<g id="graph0" class="graph" transform="scale(1 1) rotate(0) translate(4 202)">
<title>/home/runner/work/FastLED/FastLED/src/fx/2d/bilinear_expansion.h</title>
<!-- Node1 -->
<g id="Node000001" class="node">
<title>Node1</title>
<g id="a_Node000001"><a xlink:title="Demonstrates how to mix noise generation with color palettes on a 2D LED matrix.">
<polygon fill="#999999" stroke="#666666" points="252.5,-198 103,-198 103,-151.75 252.5,-151.75 252.5,-198"/>
<text text-anchor="start" x="111" y="-184.5" font-family="Helvetica,sans-Serif" font-size="10.00">/home/runner/work/FastLED</text>
<text text-anchor="start" x="111" y="-171.75" font-family="Helvetica,sans-Serif" font-size="10.00">/FastLED/src/fx/2d/bilinear</text>
<text text-anchor="middle" x="177.75" y="-159" font-family="Helvetica,sans-Serif" font-size="10.00">_expansion.h</text>
</a>
</g>
</g>
<!-- Node2 -->
<g id="Node000002" class="node">
<title>Node2</title>
<g id="a_Node000002"><a xlink:href="../../de/d80/bilinear__expansion_8cpp.html" target="_top" xlink:title="Demonstrates how to mix noise generation with color palettes on a 2D LED matrix.">
<polygon fill="white" stroke="#666666" points="149.5,-115.75 0,-115.75 0,-69.5 149.5,-69.5 149.5,-115.75"/>
<text text-anchor="start" x="8" y="-102.25" font-family="Helvetica,sans-Serif" font-size="10.00">/home/runner/work/FastLED</text>
<text text-anchor="start" x="8" y="-89.5" font-family="Helvetica,sans-Serif" font-size="10.00">/FastLED/src/fx/2d/bilinear</text>
<text text-anchor="middle" x="74.75" y="-76.75" font-family="Helvetica,sans-Serif" font-size="10.00">_expansion.cpp</text>
</a>
</g>
</g>
<!-- Node1&#45;&gt;Node2 -->
<g id="edge1_Node000001_Node000002" class="edge">
<title>Node1&#45;&gt;Node2</title>
<g id="a_edge1_Node000001_Node000002"><a xlink:title=" ">
<path fill="none" stroke="#63b8ff" d="M139.85,-144.35C127.84,-134.99 114.76,-124.8 103.5,-116.02"/>
<polygon fill="#63b8ff" stroke="#63b8ff" points="137.55,-146.99 147.59,-150.38 141.85,-141.47 137.55,-146.99"/>
</a>
</g>
</g>
<!-- Node3 -->
<g id="Node000003" class="node">
<title>Node3</title>
<g id="a_Node000003"><a xlink:href="../../dc/d8c/scale__up_8cpp.html" target="_top" xlink:title=" ">
<polygon fill="white" stroke="#666666" points="314.88,-33.5 146.62,-33.5 146.62,0 314.88,0 314.88,-33.5"/>
<text text-anchor="start" x="154.62" y="-20" font-family="Helvetica,sans-Serif" font-size="10.00">/home/runner/work/FastLED</text>
<text text-anchor="middle" x="230.75" y="-7.25" font-family="Helvetica,sans-Serif" font-size="10.00">/FastLED/src/fx/2d/scale_up.cpp</text>
</a>
</g>
</g>
<!-- Node1&#45;&gt;Node3 -->
<g id="edge2_Node000001_Node000003" class="edge">
<title>Node1&#45;&gt;Node3</title>
<g id="a_edge2_Node000001_Node000003"><a xlink:title=" ">
<path fill="none" stroke="#63b8ff" d="M180.9,-140.39C183.66,-119.46 188.7,-92.25 197.75,-69.5 202.87,-56.63 211.3,-43.48 218.36,-33.66"/>
<polygon fill="#63b8ff" stroke="#63b8ff" points="177.45,-139.76 179.74,-150.1 184.4,-140.59 177.45,-139.76"/>
</a>
</g>
</g>
<!-- Node4 -->
<g id="Node000004" class="node">
<title>Node4</title>
<g id="a_Node000004"><a xlink:href="../../d2/d74/scale__up_8h.html" target="_top" xlink:title="Expands a grid using bilinear interpolation and scaling up.">
<polygon fill="white" stroke="#666666" points="363.25,-109.38 206.25,-109.38 206.25,-75.88 363.25,-75.88 363.25,-109.38"/>
<text text-anchor="start" x="214.25" y="-95.88" font-family="Helvetica,sans-Serif" font-size="10.00">/home/runner/work/FastLED</text>
<text text-anchor="middle" x="284.75" y="-83.12" font-family="Helvetica,sans-Serif" font-size="10.00">/FastLED/src/fx/2d/scale_up.h</text>
</a>
</g>
</g>
<!-- Node1&#45;&gt;Node4 -->
<g id="edge3_Node000001_Node000004" class="edge">
<title>Node1&#45;&gt;Node4</title>
<g id="a_edge3_Node000001_Node000004"><a xlink:title=" ">
<path fill="none" stroke="#63b8ff" d="M216.84,-144.56C232.55,-132.77 250.06,-119.65 263.36,-109.67"/>
<polygon fill="#63b8ff" stroke="#63b8ff" points="214.95,-141.6 209.05,-150.4 219.15,-147.2 214.95,-141.6"/>
</a>
</g>
</g>
<!-- Node4&#45;&gt;Node3 -->
<g id="edge4_Node000004_Node000003" class="edge">
<title>Node4&#45;&gt;Node3</title>
<g id="a_edge4_Node000004_Node000003"><a xlink:title=" ">
<path fill="none" stroke="#63b8ff" d="M266.43,-66.56C258.5,-55.71 249.45,-43.33 242.44,-33.75"/>
<polygon fill="#63b8ff" stroke="#63b8ff" points="263.41,-68.37 272.14,-74.37 269.06,-64.23 263.41,-68.37"/>
</a>
</g>
</g>
</g>
</svg>
