<?xml version="1.0" encoding="UTF-8" standalone="no"?>
<!DOCTYPE svg PUBLIC "-//W3C//DTD SVG 1.1//EN"
 "http://www.w3.org/Graphics/SVG/1.1/DTD/svg11.dtd">
<!-- Generated by graphviz version 12.2.1 (20241206.2353)
 -->
<!-- Title: fl::Animartrix Pages: 1 -->
<svg width="88pt" height="199pt"
 viewBox="0.00 0.00 87.75 199.00" xmlns="http://www.w3.org/2000/svg" xmlns:xlink="http://www.w3.org/1999/xlink">
<g id="graph0" class="graph" transform="scale(1 1) rotate(0) translate(4 195)">
<title>fl::Animartrix</title>
<!-- Node1 -->
<g id="Node000001" class="node">
<title>Node1</title>
<g id="a_Node000001"><a xlink:title=" ">
<polygon fill="#999999" stroke="#666666" points="79.75,-20.75 0,-20.75 0,0 79.75,0 79.75,-20.75"/>
<text text-anchor="middle" x="39.88" y="-7.25" font-family="Helvetica,sans-Serif" font-size="10.00">fl::Animartrix</text>
</a>
</g>
</g>
<!-- Node2 -->
<g id="Node000002" class="node">
<title>Node2</title>
<g id="a_Node000002"><a xlink:href="../../d7/d3e/classfl_1_1_fx2d.html" target="_top" xlink:title=" ">
<polygon fill="white" stroke="#666666" points="65.88,-77.5 13.88,-77.5 13.88,-56.75 65.88,-56.75 65.88,-77.5"/>
<text text-anchor="middle" x="39.88" y="-64" font-family="Helvetica,sans-Serif" font-size="10.00">fl::Fx2d</text>
</a>
</g>
</g>
<!-- Node2&#45;&gt;Node1 -->
<g id="edge1_Node000001_Node000002" class="edge">
<title>Node2&#45;&gt;Node1</title>
<g id="a_edge1_Node000001_Node000002"><a xlink:title=" ">
<path fill="none" stroke="#63b8ff" d="M39.88,-44.88C39.88,-36.66 39.88,-27.68 39.88,-21.08"/>
<polygon fill="#63b8ff" stroke="#63b8ff" points="36.38,-44.82 39.88,-54.82 43.38,-44.82 36.38,-44.82"/>
</a>
</g>
</g>
<!-- Node3 -->
<g id="Node000003" class="node">
<title>Node3</title>
<g id="a_Node000003"><a xlink:href="../../da/d5d/classfl_1_1_fx.html" target="_top" xlink:title=" ">
<polygon fill="white" stroke="#666666" points="59.88,-134.25 19.88,-134.25 19.88,-113.5 59.88,-113.5 59.88,-134.25"/>
<text text-anchor="middle" x="39.88" y="-120.75" font-family="Helvetica,sans-Serif" font-size="10.00">fl::Fx</text>
</a>
</g>
</g>
<!-- Node3&#45;&gt;Node2 -->
<g id="edge2_Node000002_Node000003" class="edge">
<title>Node3&#45;&gt;Node2</title>
<g id="a_edge2_Node000002_Node000003"><a xlink:title=" ">
<path fill="none" stroke="#63b8ff" d="M39.88,-101.63C39.88,-93.41 39.88,-84.43 39.88,-77.83"/>
<polygon fill="#63b8ff" stroke="#63b8ff" points="36.38,-101.57 39.88,-111.57 43.38,-101.57 36.38,-101.57"/>
</a>
</g>
</g>
<!-- Node4 -->
<g id="Node000004" class="node">
<title>Node4</title>
<g id="a_Node000004"><a xlink:href="../../d6/d16/classfl_1_1_referent.html" target="_top" xlink:title=" ">
<polygon fill="white" stroke="#666666" points="74.88,-191 4.88,-191 4.88,-170.25 74.88,-170.25 74.88,-191"/>
<text text-anchor="middle" x="39.88" y="-177.5" font-family="Helvetica,sans-Serif" font-size="10.00">fl::Referent</text>
</a>
</g>
</g>
<!-- Node4&#45;&gt;Node3 -->
<g id="edge3_Node000003_Node000004" class="edge">
<title>Node4&#45;&gt;Node3</title>
<g id="a_edge3_Node000003_Node000004"><a xlink:title=" ">
<path fill="none" stroke="#63b8ff" d="M39.88,-158.38C39.88,-150.16 39.88,-141.18 39.88,-134.58"/>
<polygon fill="#63b8ff" stroke="#63b8ff" points="36.38,-158.32 39.88,-168.32 43.38,-158.32 36.38,-158.32"/>
</a>
</g>
</g>
</g>
</svg>
