<?xml version="1.0" encoding="UTF-8" standalone="no"?>
<!DOCTYPE svg PUBLIC "-//W3C//DTD SVG 1.1//EN"
 "http://www.w3.org/Graphics/SVG/1.1/DTD/svg11.dtd">
<!-- Generated by graphviz version 12.2.1 (20241206.2353)
 -->
<!-- Title: WS2801Controller::showPixels Pages: 1 -->
<svg width="302pt" height="68pt"
 viewBox="0.00 0.00 301.75 67.75" xmlns="http://www.w3.org/2000/svg" xmlns:xlink="http://www.w3.org/1999/xlink">
<g id="graph0" class="graph" transform="scale(1 1) rotate(0) translate(4 63.75)">
<title>WS2801Controller::showPixels</title>
<!-- Node1 -->
<g id="Node000001" class="node">
<title>Node1</title>
<g id="a_Node000001"><a xlink:title="Send the LED data to the strip.">
<polygon fill="#999999" stroke="#666666" points="163.75,-39.75 0,-39.75 0,-19 163.75,-19 163.75,-39.75"/>
<text text-anchor="middle" x="81.88" y="-26.25" font-family="Helvetica,sans-Serif" font-size="10.00">WS2801Controller::showPixels</text>
</a>
</g>
</g>
<!-- Node2 -->
<g id="Node000002" class="node">
<title>Node2</title>
<g id="a_Node000002"><a xlink:href="../../d1/d6d/class_c_min_wait.html#a9e1941c949810958262ff98f7b591b96" target="_top" xlink:title="Reset the timestamp that marks the start of the wait period.">
<polygon fill="white" stroke="#666666" points="293.75,-59.75 199.75,-59.75 199.75,-39 293.75,-39 293.75,-59.75"/>
<text text-anchor="middle" x="246.75" y="-46.25" font-family="Helvetica,sans-Serif" font-size="10.00">CMinWait::mark</text>
</a>
</g>
</g>
<!-- Node1&#45;&gt;Node2 -->
<g id="edge1_Node000001_Node000002" class="edge">
<title>Node1&#45;&gt;Node2</title>
<g id="a_edge1_Node000001_Node000002"><a xlink:title=" ">
<path fill="none" stroke="#63b8ff" d="M163.84,-39.32C172.1,-40.33 180.36,-41.35 188.3,-42.32"/>
<polygon fill="#63b8ff" stroke="#63b8ff" points="187.79,-45.78 198.14,-43.53 188.64,-38.84 187.79,-45.78"/>
</a>
</g>
</g>
<!-- Node3 -->
<g id="Node000003" class="node">
<title>Node3</title>
<g id="a_Node000003"><a xlink:href="../../d1/d6d/class_c_min_wait.html#ace3c87d9015aa537d3ee2972657afad3" target="_top" xlink:title="Blocking delay until WAIT time since mark() has passed.">
<polygon fill="white" stroke="#666666" points="291.5,-20.75 202,-20.75 202,0 291.5,0 291.5,-20.75"/>
<text text-anchor="middle" x="246.75" y="-7.25" font-family="Helvetica,sans-Serif" font-size="10.00">CMinWait::wait</text>
</a>
</g>
</g>
<!-- Node1&#45;&gt;Node3 -->
<g id="edge2_Node000001_Node000003" class="edge">
<title>Node1&#45;&gt;Node3</title>
<g id="a_edge2_Node000001_Node000003"><a xlink:title=" ">
<path fill="none" stroke="#63b8ff" d="M163.84,-19.93C172.84,-18.88 181.85,-17.83 190.42,-16.83"/>
<polygon fill="#63b8ff" stroke="#63b8ff" points="190.78,-20.31 200.31,-15.68 189.97,-13.36 190.78,-20.31"/>
</a>
</g>
</g>
</g>
</svg>
