<?xml version="1.0" encoding="UTF-8" standalone="no"?>
<!DOCTYPE svg PUBLIC "-//W3C//DTD SVG 1.1//EN"
 "http://www.w3.org/Graphics/SVG/1.1/DTD/svg11.dtd">
<!-- Generated by graphviz version 12.2.1 (20241206.2353)
 -->
<!-- Title: APA102Controller::writeLed Pages: 1 -->
<svg width="767pt" height="107pt"
 viewBox="0.00 0.00 766.75 106.75" xmlns="http://www.w3.org/2000/svg" xmlns:xlink="http://www.w3.org/1999/xlink">
<g id="graph0" class="graph" transform="scale(1 1) rotate(0) translate(4 102.75)">
<title>APA102Controller::writeLed</title>
<!-- Node1 -->
<g id="Node000001" class="node">
<title>Node1</title>
<g id="a_Node000001"><a xlink:title=" ">
<polygon fill="#999999" stroke="#666666" points="148.75,-59.75 0,-59.75 0,-39 148.75,-39 148.75,-59.75"/>
<text text-anchor="middle" x="74.38" y="-46.25" font-family="Helvetica,sans-Serif" font-size="10.00">APA102Controller::writeLed</text>
</a>
</g>
</g>
<!-- Node2 -->
<g id="Node000002" class="node">
<title>Node2</title>
<g id="a_Node000002"><a xlink:href="../../dc/d57/class_a_v_r_software_s_p_i_output.html#a58393081ec8c54bd6968642b89e8bd43" target="_top" xlink:title="Write a single byte over SPI.">
<polygon fill="white" stroke="#666666" points="473.25,-66.12 347,-66.12 347,-32.62 473.25,-32.62 473.25,-66.12"/>
<text text-anchor="start" x="355" y="-52.62" font-family="Helvetica,sans-Serif" font-size="10.00">AVRSoftwareSPIOutput</text>
<text text-anchor="middle" x="410.12" y="-39.88" font-family="Helvetica,sans-Serif" font-size="10.00">::writeByte</text>
</a>
</g>
</g>
<!-- Node1&#45;&gt;Node2 -->
<g id="edge1_Node000001_Node000002" class="edge">
<title>Node1&#45;&gt;Node2</title>
<g id="a_edge1_Node000001_Node000002"><a xlink:title=" ">
<path fill="none" stroke="#63b8ff" d="M149.2,-52.44C161.09,-52.83 173.26,-53.16 184.75,-53.38 240.85,-54.4 254.9,-54.52 311,-53.38 318.82,-53.22 326.99,-52.98 335.13,-52.71"/>
<polygon fill="#63b8ff" stroke="#63b8ff" points="335.2,-56.21 345.07,-52.36 334.95,-49.22 335.2,-56.21"/>
</a>
</g>
</g>
<!-- Node7 -->
<g id="Node000007" class="node">
<title>Node7</title>
<g id="a_Node000007"><a xlink:href="../../dc/d57/class_a_v_r_software_s_p_i_output.html#a34421832d232a692d08d39d87733acd8" target="_top" xlink:title="Write a word (two bytes) over SPI.">
<polygon fill="white" stroke="#666666" points="311,-44.12 184.75,-44.12 184.75,-10.62 311,-10.62 311,-44.12"/>
<text text-anchor="start" x="192.75" y="-30.62" font-family="Helvetica,sans-Serif" font-size="10.00">AVRSoftwareSPIOutput</text>
<text text-anchor="middle" x="247.88" y="-17.88" font-family="Helvetica,sans-Serif" font-size="10.00">::writeWord</text>
</a>
</g>
</g>
<!-- Node1&#45;&gt;Node7 -->
<g id="edge6_Node000001_Node000007" class="edge">
<title>Node1&#45;&gt;Node7</title>
<g id="a_edge6_Node000001_Node000007"><a xlink:title=" ">
<path fill="none" stroke="#63b8ff" d="M149.1,-39.92C156.97,-38.91 164.98,-37.88 172.85,-36.87"/>
<polygon fill="#63b8ff" stroke="#63b8ff" points="173.28,-40.34 182.75,-35.6 172.39,-33.4 173.28,-40.34"/>
</a>
</g>
</g>
<!-- Node3 -->
<g id="Node000003" class="node">
<title>Node3</title>
<g id="a_Node000003"><a xlink:href="../../dc/d57/class_a_v_r_software_s_p_i_output.html#ad13d8cd559302413e8c885aab5ad7497" target="_top" xlink:title="Write the BIT&#39;th bit out via SPI, setting the data pin then strobing the clock.">
<polygon fill="white" stroke="#666666" points="635.5,-66.12 509.25,-66.12 509.25,-32.62 635.5,-32.62 635.5,-66.12"/>
<text text-anchor="start" x="517.25" y="-52.62" font-family="Helvetica,sans-Serif" font-size="10.00">AVRSoftwareSPIOutput</text>
<text text-anchor="middle" x="572.38" y="-39.88" font-family="Helvetica,sans-Serif" font-size="10.00">::writeBit</text>
</a>
</g>
</g>
<!-- Node2&#45;&gt;Node3 -->
<g id="edge2_Node000002_Node000003" class="edge">
<title>Node2&#45;&gt;Node3</title>
<g id="a_edge2_Node000002_Node000003"><a xlink:title=" ">
<path fill="none" stroke="#63b8ff" d="M473.54,-49.38C481.43,-49.38 489.55,-49.38 497.59,-49.38"/>
<polygon fill="#63b8ff" stroke="#63b8ff" points="497.35,-52.88 507.35,-49.38 497.35,-45.88 497.35,-52.88"/>
</a>
</g>
</g>
<!-- Node4 -->
<g id="Node000004" class="node">
<title>Node4</title>
<g id="a_Node000004"><a xlink:href="../../db/d3b/class_fast_pin.html#add52474362013eb37903fc832e2abdc2" target="_top" xlink:title="Set the pin state to HIGH">
<polygon fill="white" stroke="#666666" points="747.88,-98.75 682.38,-98.75 682.38,-78 747.88,-78 747.88,-98.75"/>
<text text-anchor="middle" x="715.12" y="-85.25" font-family="Helvetica,sans-Serif" font-size="10.00">FastPin::hi</text>
</a>
</g>
</g>
<!-- Node3&#45;&gt;Node4 -->
<g id="edge3_Node000003_Node000004" class="edge">
<title>Node3&#45;&gt;Node4</title>
<g id="a_edge3_Node000003_Node000004"><a xlink:title=" ">
<path fill="none" stroke="#63b8ff" d="M635.52,-66.59C647.56,-69.93 659.93,-73.36 671.18,-76.48"/>
<polygon fill="#63b8ff" stroke="#63b8ff" points="669.99,-79.78 680.56,-79.07 671.86,-73.03 669.99,-79.78"/>
</a>
</g>
</g>
<!-- Node5 -->
<g id="Node000005" class="node">
<title>Node5</title>
<g id="a_Node000005"><a xlink:href="../../db/d3b/class_fast_pin.html#aa7420ec06218b5201f7f54cf6f4bfb86" target="_top" xlink:title="Set the pin state to LOW">
<polygon fill="white" stroke="#666666" points="747.88,-59.75 682.38,-59.75 682.38,-39 747.88,-39 747.88,-59.75"/>
<text text-anchor="middle" x="715.12" y="-46.25" font-family="Helvetica,sans-Serif" font-size="10.00">FastPin::lo</text>
</a>
</g>
</g>
<!-- Node3&#45;&gt;Node5 -->
<g id="edge4_Node000003_Node000005" class="edge">
<title>Node3&#45;&gt;Node5</title>
<g id="a_edge4_Node000003_Node000005"><a xlink:title=" ">
<path fill="none" stroke="#63b8ff" d="M635.93,-49.38C647.68,-49.38 659.73,-49.38 670.74,-49.38"/>
<polygon fill="#63b8ff" stroke="#63b8ff" points="670.7,-52.88 680.7,-49.38 670.7,-45.88 670.7,-52.88"/>
</a>
</g>
</g>
<!-- Node6 -->
<g id="Node000006" class="node">
<title>Node6</title>
<g id="a_Node000006"><a xlink:href="../../db/d3b/class_fast_pin.html#a25b537b13a05155051cc663b4877f79f" target="_top" xlink:title="Toggle the pin.">
<polygon fill="white" stroke="#666666" points="758.75,-20.75 671.5,-20.75 671.5,0 758.75,0 758.75,-20.75"/>
<text text-anchor="middle" x="715.12" y="-7.25" font-family="Helvetica,sans-Serif" font-size="10.00">FastPin::toggle</text>
</a>
</g>
</g>
<!-- Node3&#45;&gt;Node6 -->
<g id="edge5_Node000003_Node000006" class="edge">
<title>Node3&#45;&gt;Node6</title>
<g id="a_edge5_Node000003_Node000006"><a xlink:title=" ">
<path fill="none" stroke="#63b8ff" d="M635.52,-32.16C645.05,-29.52 654.78,-26.82 664.01,-24.26"/>
<polygon fill="#63b8ff" stroke="#63b8ff" points="664.8,-27.67 673.5,-21.63 662.93,-20.93 664.8,-27.67"/>
</a>
</g>
</g>
<!-- Node7&#45;&gt;Node2 -->
<g id="edge7_Node000007_Node000002" class="edge">
<title>Node7&#45;&gt;Node2</title>
<g id="a_edge7_Node000007_Node000002"><a xlink:title=" ">
<path fill="none" stroke="#63b8ff" d="M311.29,-35.94C319.18,-37.03 327.3,-38.14 335.34,-39.25"/>
<polygon fill="#63b8ff" stroke="#63b8ff" points="334.73,-42.69 345.12,-40.59 335.69,-35.76 334.73,-42.69"/>
</a>
</g>
</g>
</g>
</svg>
