<?xml version="1.0" encoding="UTF-8" standalone="no"?>
<!DOCTYPE svg PUBLIC "-//W3C//DTD SVG 1.1//EN"
 "http://www.w3.org/Graphics/SVG/1.1/DTD/svg11.dtd">
<!-- Generated by graphviz version 12.2.1 (20241206.2353)
 -->
<!-- Title: APA102Controller::write2Bytes Pages: 1 -->
<svg width="756pt" height="107pt"
 viewBox="0.00 0.00 755.50 106.75" xmlns="http://www.w3.org/2000/svg" xmlns:xlink="http://www.w3.org/1999/xlink">
<g id="graph0" class="graph" transform="scale(1 1) rotate(0) translate(4 102.75)">
<title>APA102Controller::write2Bytes</title>
<!-- Node1 -->
<g id="Node000001" class="node">
<title>Node1</title>
<g id="a_Node000001"><a xlink:title=" ">
<polygon fill="#999999" stroke="#666666" points="137.5,-66.12 0,-66.12 0,-32.62 137.5,-32.62 137.5,-66.12"/>
<text text-anchor="start" x="8" y="-52.62" font-family="Helvetica,sans-Serif" font-size="10.00">APA102Controller::write2</text>
<text text-anchor="middle" x="68.75" y="-39.88" font-family="Helvetica,sans-Serif" font-size="10.00">Bytes</text>
</a>
</g>
</g>
<!-- Node2 -->
<g id="Node000002" class="node">
<title>Node2</title>
<g id="a_Node000002"><a xlink:href="../../dc/d57/class_a_v_r_software_s_p_i_output.html#a58393081ec8c54bd6968642b89e8bd43" target="_top" xlink:title="Write a single byte over SPI.">
<polygon fill="white" stroke="#666666" points="462,-66.12 335.75,-66.12 335.75,-32.62 462,-32.62 462,-66.12"/>
<text text-anchor="start" x="343.75" y="-52.62" font-family="Helvetica,sans-Serif" font-size="10.00">AVRSoftwareSPIOutput</text>
<text text-anchor="middle" x="398.88" y="-39.88" font-family="Helvetica,sans-Serif" font-size="10.00">::writeByte</text>
</a>
</g>
</g>
<!-- Node1&#45;&gt;Node2 -->
<g id="edge1_Node000001_Node000002" class="edge">
<title>Node1&#45;&gt;Node2</title>
<g id="a_edge1_Node000001_Node000002"><a xlink:title=" ">
<path fill="none" stroke="#63b8ff" d="M137.83,-52.37C149.71,-52.79 161.97,-53.15 173.5,-53.38 229.6,-54.46 243.65,-54.52 299.75,-53.38 307.57,-53.22 315.74,-52.98 323.88,-52.71"/>
<polygon fill="#63b8ff" stroke="#63b8ff" points="323.95,-56.21 333.82,-52.36 323.7,-49.22 323.95,-56.21"/>
</a>
</g>
</g>
<!-- Node7 -->
<g id="Node000007" class="node">
<title>Node7</title>
<g id="a_Node000007"><a xlink:href="../../dc/d57/class_a_v_r_software_s_p_i_output.html#a34421832d232a692d08d39d87733acd8" target="_top" xlink:title="Write a word (two bytes) over SPI.">
<polygon fill="white" stroke="#666666" points="299.75,-44.12 173.5,-44.12 173.5,-10.62 299.75,-10.62 299.75,-44.12"/>
<text text-anchor="start" x="181.5" y="-30.62" font-family="Helvetica,sans-Serif" font-size="10.00">AVRSoftwareSPIOutput</text>
<text text-anchor="middle" x="236.62" y="-17.88" font-family="Helvetica,sans-Serif" font-size="10.00">::writeWord</text>
</a>
</g>
</g>
<!-- Node1&#45;&gt;Node7 -->
<g id="edge6_Node000001_Node000007" class="edge">
<title>Node1&#45;&gt;Node7</title>
<g id="a_edge6_Node000001_Node000007"><a xlink:title=" ">
<path fill="none" stroke="#63b8ff" d="M137.7,-40.36C145.66,-39.31 153.82,-38.22 161.86,-37.16"/>
<polygon fill="#63b8ff" stroke="#63b8ff" points="162.17,-40.65 171.62,-35.86 161.25,-33.71 162.17,-40.65"/>
</a>
</g>
</g>
<!-- Node3 -->
<g id="Node000003" class="node">
<title>Node3</title>
<g id="a_Node000003"><a xlink:href="../../dc/d57/class_a_v_r_software_s_p_i_output.html#ad13d8cd559302413e8c885aab5ad7497" target="_top" xlink:title="Write the BIT&#39;th bit out via SPI, setting the data pin then strobing the clock.">
<polygon fill="white" stroke="#666666" points="624.25,-66.12 498,-66.12 498,-32.62 624.25,-32.62 624.25,-66.12"/>
<text text-anchor="start" x="506" y="-52.62" font-family="Helvetica,sans-Serif" font-size="10.00">AVRSoftwareSPIOutput</text>
<text text-anchor="middle" x="561.12" y="-39.88" font-family="Helvetica,sans-Serif" font-size="10.00">::writeBit</text>
</a>
</g>
</g>
<!-- Node2&#45;&gt;Node3 -->
<g id="edge2_Node000002_Node000003" class="edge">
<title>Node2&#45;&gt;Node3</title>
<g id="a_edge2_Node000002_Node000003"><a xlink:title=" ">
<path fill="none" stroke="#63b8ff" d="M462.29,-49.38C470.18,-49.38 478.3,-49.38 486.34,-49.38"/>
<polygon fill="#63b8ff" stroke="#63b8ff" points="486.1,-52.88 496.1,-49.38 486.1,-45.88 486.1,-52.88"/>
</a>
</g>
</g>
<!-- Node4 -->
<g id="Node000004" class="node">
<title>Node4</title>
<g id="a_Node000004"><a xlink:href="../../db/d3b/class_fast_pin.html#add52474362013eb37903fc832e2abdc2" target="_top" xlink:title="Set the pin state to HIGH">
<polygon fill="white" stroke="#666666" points="736.62,-98.75 671.12,-98.75 671.12,-78 736.62,-78 736.62,-98.75"/>
<text text-anchor="middle" x="703.88" y="-85.25" font-family="Helvetica,sans-Serif" font-size="10.00">FastPin::hi</text>
</a>
</g>
</g>
<!-- Node3&#45;&gt;Node4 -->
<g id="edge3_Node000003_Node000004" class="edge">
<title>Node3&#45;&gt;Node4</title>
<g id="a_edge3_Node000003_Node000004"><a xlink:title=" ">
<path fill="none" stroke="#63b8ff" d="M624.27,-66.59C636.31,-69.93 648.68,-73.36 659.93,-76.48"/>
<polygon fill="#63b8ff" stroke="#63b8ff" points="658.74,-79.78 669.31,-79.07 660.61,-73.03 658.74,-79.78"/>
</a>
</g>
</g>
<!-- Node5 -->
<g id="Node000005" class="node">
<title>Node5</title>
<g id="a_Node000005"><a xlink:href="../../db/d3b/class_fast_pin.html#aa7420ec06218b5201f7f54cf6f4bfb86" target="_top" xlink:title="Set the pin state to LOW">
<polygon fill="white" stroke="#666666" points="736.62,-59.75 671.12,-59.75 671.12,-39 736.62,-39 736.62,-59.75"/>
<text text-anchor="middle" x="703.88" y="-46.25" font-family="Helvetica,sans-Serif" font-size="10.00">FastPin::lo</text>
</a>
</g>
</g>
<!-- Node3&#45;&gt;Node5 -->
<g id="edge4_Node000003_Node000005" class="edge">
<title>Node3&#45;&gt;Node5</title>
<g id="a_edge4_Node000003_Node000005"><a xlink:title=" ">
<path fill="none" stroke="#63b8ff" d="M624.68,-49.38C636.43,-49.38 648.48,-49.38 659.49,-49.38"/>
<polygon fill="#63b8ff" stroke="#63b8ff" points="659.45,-52.88 669.45,-49.38 659.45,-45.88 659.45,-52.88"/>
</a>
</g>
</g>
<!-- Node6 -->
<g id="Node000006" class="node">
<title>Node6</title>
<g id="a_Node000006"><a xlink:href="../../db/d3b/class_fast_pin.html#a25b537b13a05155051cc663b4877f79f" target="_top" xlink:title="Toggle the pin.">
<polygon fill="white" stroke="#666666" points="747.5,-20.75 660.25,-20.75 660.25,0 747.5,0 747.5,-20.75"/>
<text text-anchor="middle" x="703.88" y="-7.25" font-family="Helvetica,sans-Serif" font-size="10.00">FastPin::toggle</text>
</a>
</g>
</g>
<!-- Node3&#45;&gt;Node6 -->
<g id="edge5_Node000003_Node000006" class="edge">
<title>Node3&#45;&gt;Node6</title>
<g id="a_edge5_Node000003_Node000006"><a xlink:title=" ">
<path fill="none" stroke="#63b8ff" d="M624.27,-32.16C633.8,-29.52 643.53,-26.82 652.76,-24.26"/>
<polygon fill="#63b8ff" stroke="#63b8ff" points="653.55,-27.67 662.25,-21.63 651.68,-20.93 653.55,-27.67"/>
</a>
</g>
</g>
<!-- Node7&#45;&gt;Node2 -->
<g id="edge7_Node000007_Node000002" class="edge">
<title>Node7&#45;&gt;Node2</title>
<g id="a_edge7_Node000007_Node000002"><a xlink:title=" ">
<path fill="none" stroke="#63b8ff" d="M300.04,-35.94C307.93,-37.03 316.05,-38.14 324.09,-39.25"/>
<polygon fill="#63b8ff" stroke="#63b8ff" points="323.48,-42.69 333.87,-40.59 324.44,-35.76 323.48,-42.69"/>
</a>
</g>
</g>
</g>
</svg>
