<?xml version="1.0" encoding="UTF-8" standalone="no"?>
<!DOCTYPE svg PUBLIC "-//W3C//DTD SVG 1.1//EN"
 "http://www.w3.org/Graphics/SVG/1.1/DTD/svg11.dtd">
<!-- Generated by graphviz version 12.2.1 (20241206.2353)
 -->
<!-- Title: APA102Controller::writeLed Pages: 1 -->
<svg width="550pt" height="94pt"
 viewBox="0.00 0.00 550.25 93.50" xmlns="http://www.w3.org/2000/svg" xmlns:xlink="http://www.w3.org/1999/xlink">
<g id="graph0" class="graph" transform="scale(1 1) rotate(0) translate(4 89.5)">
<title>APA102Controller::writeLed</title>
<!-- Node1 -->
<g id="Node000001" class="node">
<title>Node1</title>
<g id="a_Node000001"><a xlink:title=" ">
<polygon fill="#999999" stroke="#666666" points="542.25,-53.12 393.5,-53.12 393.5,-32.38 542.25,-32.38 542.25,-53.12"/>
<text text-anchor="middle" x="467.88" y="-39.62" font-family="Helvetica,sans-Serif" font-size="10.00">APA102Controller::writeLed</text>
</a>
</g>
</g>
<!-- Node2 -->
<g id="Node000002" class="node">
<title>Node2</title>
<g id="a_Node000002"><a xlink:href="../../df/d0d/group___clocked_chipsets.html#a632117bec47c6b4ba7e3ed1703478a42" target="_top" xlink:title=" ">
<polygon fill="white" stroke="#666666" points="357.5,-85.5 196.75,-85.5 196.75,-52 357.5,-52 357.5,-85.5"/>
<text text-anchor="start" x="204.75" y="-72" font-family="Helvetica,sans-Serif" font-size="10.00">APA102Controller::showPixels</text>
<text text-anchor="middle" x="277.12" y="-59.25" font-family="Helvetica,sans-Serif" font-size="10.00">Default</text>
</a>
</g>
</g>
<!-- Node1&#45;&gt;Node2 -->
<g id="edge1_Node000001_Node000002" class="edge">
<title>Node1&#45;&gt;Node2</title>
<g id="a_edge1_Node000001_Node000002"><a xlink:title=" ">
<path fill="none" stroke="#63b8ff" d="M381.85,-54.46C373.84,-55.57 365.74,-56.68 357.79,-57.78"/>
<polygon fill="#63b8ff" stroke="#63b8ff" points="382.16,-57.95 391.59,-53.12 381.2,-51.02 382.16,-57.95"/>
</a>
</g>
</g>
<!-- Node4 -->
<g id="Node000004" class="node">
<title>Node4</title>
<g id="a_Node000004"><a xlink:href="../../df/d0d/group___clocked_chipsets.html#a040f761b3d3bb30a9275f96548ec5ef7" target="_top" xlink:title=" ">
<polygon fill="white" stroke="#666666" points="357.5,-33.5 196.75,-33.5 196.75,0 357.5,0 357.5,-33.5"/>
<text text-anchor="start" x="204.75" y="-20" font-family="Helvetica,sans-Serif" font-size="10.00">APA102Controller::showPixels</text>
<text text-anchor="middle" x="277.12" y="-7.25" font-family="Helvetica,sans-Serif" font-size="10.00">GammaBitShift</text>
</a>
</g>
</g>
<!-- Node1&#45;&gt;Node4 -->
<g id="edge3_Node000001_Node000004" class="edge">
<title>Node1&#45;&gt;Node4</title>
<g id="a_edge3_Node000001_Node000004"><a xlink:title=" ">
<path fill="none" stroke="#63b8ff" d="M381.85,-31.04C373.84,-29.93 365.74,-28.82 357.79,-27.72"/>
<polygon fill="#63b8ff" stroke="#63b8ff" points="381.2,-34.48 391.59,-32.38 382.16,-27.55 381.2,-34.48"/>
</a>
</g>
</g>
<!-- Node3 -->
<g id="Node000003" class="node">
<title>Node3</title>
<g id="a_Node000003"><a xlink:href="../../df/d0d/group___clocked_chipsets.html#a523f76b88c07e29cba6c40bd0cefe4b3" target="_top" xlink:title="Send the LED data to the strip.">
<polygon fill="white" stroke="#666666" points="160.75,-53.12 0,-53.12 0,-32.38 160.75,-32.38 160.75,-53.12"/>
<text text-anchor="middle" x="80.38" y="-39.62" font-family="Helvetica,sans-Serif" font-size="10.00">APA102Controller::showPixels</text>
</a>
</g>
</g>
<!-- Node2&#45;&gt;Node3 -->
<g id="edge2_Node000002_Node000003" class="edge">
<title>Node2&#45;&gt;Node3</title>
<g id="a_edge2_Node000002_Node000003"><a xlink:title=" ">
<path fill="none" stroke="#63b8ff" d="M185.06,-56.59C177.03,-55.52 168.95,-54.44 161.03,-53.38"/>
<polygon fill="#63b8ff" stroke="#63b8ff" points="184.48,-60.05 194.85,-57.9 185.4,-53.11 184.48,-60.05"/>
</a>
</g>
</g>
<!-- Node4&#45;&gt;Node3 -->
<g id="edge4_Node000004_Node000003" class="edge">
<title>Node4&#45;&gt;Node3</title>
<g id="a_edge4_Node000004_Node000003"><a xlink:title=" ">
<path fill="none" stroke="#63b8ff" d="M185.06,-28.91C177.03,-29.98 168.95,-31.06 161.03,-32.12"/>
<polygon fill="#63b8ff" stroke="#63b8ff" points="185.4,-32.39 194.85,-27.6 184.48,-25.45 185.4,-32.39"/>
</a>
</g>
</g>
</g>
</svg>
