<?xml version="1.0" encoding="UTF-8" standalone="no"?>
<!DOCTYPE svg PUBLIC "-//W3C//DTD SVG 1.1//EN"
 "http://www.w3.org/Graphics/SVG/1.1/DTD/svg11.dtd">
<!-- Generated by graphviz version 12.2.1 (20241206.2353)
 -->
<!-- Title: P9813Controller::writeBoundary Pages: 1 -->
<svg width="666pt" height="42pt"
 viewBox="0.00 0.00 666.00 41.50" xmlns="http://www.w3.org/2000/svg" xmlns:xlink="http://www.w3.org/1999/xlink">
<g id="graph0" class="graph" transform="scale(1 1) rotate(0) translate(4 37.5)">
<title>P9813Controller::writeBoundary</title>
<!-- Node1 -->
<g id="Node000001" class="node">
<title>Node1</title>
<g id="a_Node000001"><a xlink:title=" ">
<polygon fill="#999999" stroke="#666666" points="171.25,-27.12 0,-27.12 0,-6.38 171.25,-6.38 171.25,-27.12"/>
<text text-anchor="middle" x="85.62" y="-13.62" font-family="Helvetica,sans-Serif" font-size="10.00">P9813Controller::writeBoundary</text>
</a>
</g>
</g>
<!-- Node2 -->
<g id="Node000002" class="node">
<title>Node2</title>
<g id="a_Node000002"><a xlink:href="../../dc/d57/class_a_v_r_software_s_p_i_output.html#a34421832d232a692d08d39d87733acd8" target="_top" xlink:title="Write a word (two bytes) over SPI.">
<polygon fill="white" stroke="#666666" points="333.5,-33.5 207.25,-33.5 207.25,0 333.5,0 333.5,-33.5"/>
<text text-anchor="start" x="215.25" y="-20" font-family="Helvetica,sans-Serif" font-size="10.00">AVRSoftwareSPIOutput</text>
<text text-anchor="middle" x="270.38" y="-7.25" font-family="Helvetica,sans-Serif" font-size="10.00">::writeWord</text>
</a>
</g>
</g>
<!-- Node1&#45;&gt;Node2 -->
<g id="edge1_Node000001_Node000002" class="edge">
<title>Node1&#45;&gt;Node2</title>
<g id="a_edge1_Node000001_Node000002"><a xlink:title=" ">
<path fill="none" stroke="#63b8ff" d="M171.58,-16.75C179.6,-16.75 187.68,-16.75 195.58,-16.75"/>
<polygon fill="#63b8ff" stroke="#63b8ff" points="195.48,-20.25 205.48,-16.75 195.48,-13.25 195.48,-20.25"/>
</a>
</g>
</g>
<!-- Node3 -->
<g id="Node000003" class="node">
<title>Node3</title>
<g id="a_Node000003"><a xlink:href="../../dc/d57/class_a_v_r_software_s_p_i_output.html#a58393081ec8c54bd6968642b89e8bd43" target="_top" xlink:title="Write a single byte over SPI.">
<polygon fill="white" stroke="#666666" points="495.75,-33.5 369.5,-33.5 369.5,0 495.75,0 495.75,-33.5"/>
<text text-anchor="start" x="377.5" y="-20" font-family="Helvetica,sans-Serif" font-size="10.00">AVRSoftwareSPIOutput</text>
<text text-anchor="middle" x="432.62" y="-7.25" font-family="Helvetica,sans-Serif" font-size="10.00">::writeByte</text>
</a>
</g>
</g>
<!-- Node2&#45;&gt;Node3 -->
<g id="edge2_Node000002_Node000003" class="edge">
<title>Node2&#45;&gt;Node3</title>
<g id="a_edge2_Node000002_Node000003"><a xlink:title=" ">
<path fill="none" stroke="#63b8ff" d="M333.79,-16.75C341.68,-16.75 349.8,-16.75 357.84,-16.75"/>
<polygon fill="#63b8ff" stroke="#63b8ff" points="357.6,-20.25 367.6,-16.75 357.6,-13.25 357.6,-20.25"/>
</a>
</g>
</g>
<!-- Node4 -->
<g id="Node000004" class="node">
<title>Node4</title>
<g id="a_Node000004"><a xlink:href="../../dc/d57/class_a_v_r_software_s_p_i_output.html#ad13d8cd559302413e8c885aab5ad7497" target="_top" xlink:title="Write the BIT&#39;th bit out via SPI, setting the data pin then strobing the clock.">
<polygon fill="#fff0f0" stroke="red" points="658,-33.5 531.75,-33.5 531.75,0 658,0 658,-33.5"/>
<text text-anchor="start" x="539.75" y="-20" font-family="Helvetica,sans-Serif" font-size="10.00">AVRSoftwareSPIOutput</text>
<text text-anchor="middle" x="594.88" y="-7.25" font-family="Helvetica,sans-Serif" font-size="10.00">::writeBit</text>
</a>
</g>
</g>
<!-- Node3&#45;&gt;Node4 -->
<g id="edge3_Node000003_Node000004" class="edge">
<title>Node3&#45;&gt;Node4</title>
<g id="a_edge3_Node000003_Node000004"><a xlink:title=" ">
<path fill="none" stroke="#63b8ff" d="M496.04,-16.75C503.93,-16.75 512.05,-16.75 520.09,-16.75"/>
<polygon fill="#63b8ff" stroke="#63b8ff" points="519.85,-20.25 529.85,-16.75 519.85,-13.25 519.85,-20.25"/>
</a>
</g>
</g>
</g>
</svg>
