<?xml version="1.0" encoding="UTF-8" standalone="no"?>
<!DOCTYPE svg PUBLIC "-//W3C//DTD SVG 1.1//EN"
 "http://www.w3.org/Graphics/SVG/1.1/DTD/svg11.dtd">
<!-- Generated by graphviz version 12.2.1 (20241206.2353)
 -->
<!-- Title: APA102Controller::showPixelsGammaBitShift Pages: 1 -->
<svg width="919pt" height="467pt"
 viewBox="0.00 0.00 919.00 467.12" xmlns="http://www.w3.org/2000/svg" xmlns:xlink="http://www.w3.org/1999/xlink">
<g id="graph0" class="graph" transform="scale(1 1) rotate(0) translate(4 463.12)">
<title>APA102Controller::showPixelsGammaBitShift</title>
<!-- Node1 -->
<g id="Node000001" class="node">
<title>Node1</title>
<g id="a_Node000001"><a xlink:title=" ">
<polygon fill="#999999" stroke="#666666" points="160.75,-240.5 0,-240.5 0,-207 160.75,-207 160.75,-240.5"/>
<text text-anchor="start" x="8" y="-227" font-family="Helvetica,sans-Serif" font-size="10.00">APA102Controller::showPixels</text>
<text text-anchor="middle" x="80.38" y="-214.25" font-family="Helvetica,sans-Serif" font-size="10.00">GammaBitShift</text>
</a>
</g>
</g>
<!-- Node2 -->
<g id="Node000002" class="node">
<title>Node2</title>
<g id="a_Node000002"><a xlink:href="../../d0/dee/struct_pixel_controller.html#ab44f62f166d162bd1e3b095b368feef2" target="_top" xlink:title="Advance the data pointer forward, adjust position counter.">
<polygon fill="white" stroke="#666666" points="363.5,-459.12 205.75,-459.12 205.75,-438.38 363.5,-438.38 363.5,-459.12"/>
<text text-anchor="middle" x="284.62" y="-445.62" font-family="Helvetica,sans-Serif" font-size="10.00">PixelController::advanceData</text>
</a>
</g>
</g>
<!-- Node1&#45;&gt;Node2 -->
<g id="edge1_Node000001_Node000002" class="edge">
<title>Node1&#45;&gt;Node2</title>
<g id="a_edge1_Node000001_Node000002"><a xlink:title=" ">
<path fill="none" stroke="#63b8ff" d="M85.73,-240.8C96.85,-280.69 130.23,-380.45 196.75,-429.75 198.11,-430.76 199.51,-431.71 200.94,-432.62"/>
<polygon fill="#63b8ff" stroke="#63b8ff" points="199.08,-435.59 209.55,-437.2 202.37,-429.41 199.08,-435.59"/>
</a>
</g>
</g>
<!-- Node3 -->
<g id="Node000003" class="node">
<title>Node3</title>
<g id="a_Node000003"><a xlink:href="../../df/d0d/group___clocked_chipsets.html#ac9676b78658ebcab74033429c5c046f8" target="_top" xlink:title=" ">
<polygon fill="white" stroke="#666666" points="579.75,-328.12 408.5,-328.12 408.5,-307.38 579.75,-307.38 579.75,-328.12"/>
<text text-anchor="middle" x="494.12" y="-314.62" font-family="Helvetica,sans-Serif" font-size="10.00">APA102Controller::endBoundary</text>
</a>
</g>
</g>
<!-- Node1&#45;&gt;Node3 -->
<g id="edge2_Node000001_Node000003" class="edge">
<title>Node1&#45;&gt;Node3</title>
<g id="a_edge2_Node000001_Node000003"><a xlink:title=" ">
<path fill="none" stroke="#63b8ff" d="M99.64,-240.81C121.04,-259.61 158.48,-288.89 196.75,-301.75 261.11,-323.38 337.73,-326.98 396.94,-325.38"/>
<polygon fill="#63b8ff" stroke="#63b8ff" points="396.77,-328.89 406.65,-325.06 396.54,-321.9 396.77,-328.89"/>
</a>
</g>
</g>
<!-- Node9 -->
<g id="Node000009" class="node">
<title>Node9</title>
<g id="a_Node000009"><a xlink:href="../../d0/dee/struct_pixel_controller.html#ac13f3e00855fcf6125ea27543c2fb48c" target="_top" xlink:title="Do we have n pixels left to process?">
<polygon fill="white" stroke="#666666" points="339.88,-369.12 229.38,-369.12 229.38,-348.38 339.88,-348.38 339.88,-369.12"/>
<text text-anchor="middle" x="284.62" y="-355.62" font-family="Helvetica,sans-Serif" font-size="10.00">PixelController::has</text>
</a>
</g>
</g>
<!-- Node1&#45;&gt;Node9 -->
<g id="edge5_Node000001_Node000009" class="edge">
<title>Node1&#45;&gt;Node9</title>
<g id="a_edge5_Node000001_Node000009"><a xlink:title=" ">
<path fill="none" stroke="#63b8ff" d="M94.35,-240.74C113.9,-265.17 153.28,-309.99 196.75,-334.75 203.5,-338.59 210.89,-341.85 218.43,-344.6"/>
<polygon fill="#63b8ff" stroke="#63b8ff" points="217.1,-347.84 227.69,-347.68 219.31,-341.2 217.1,-347.84"/>
</a>
</g>
</g>
<!-- Node10 -->
<g id="Node000010" class="node">
<title>Node10</title>
<g id="a_Node000010"><a xlink:href="../../d0/dee/struct_pixel_controller.html#a07853a147d535144f71b3f2640f4b0d5" target="_top" xlink:title=" ">
<polygon fill="white" stroke="#666666" points="351.12,-420.5 218.12,-420.5 218.12,-387 351.12,-387 351.12,-420.5"/>
<text text-anchor="start" x="226.12" y="-407" font-family="Helvetica,sans-Serif" font-size="10.00">PixelController::loadAnd</text>
<text text-anchor="middle" x="284.62" y="-394.25" font-family="Helvetica,sans-Serif" font-size="10.00">Scale_APA102_HD</text>
</a>
</g>
</g>
<!-- Node1&#45;&gt;Node10 -->
<g id="edge6_Node000001_Node000010" class="edge">
<title>Node1&#45;&gt;Node10</title>
<g id="a_edge6_Node000001_Node000010"><a xlink:title=" ">
<path fill="none" stroke="#63b8ff" d="M89.54,-240.93C105.55,-272.77 144.15,-341.04 196.75,-377.75 200.18,-380.14 203.83,-382.32 207.63,-384.3"/>
<polygon fill="#63b8ff" stroke="#63b8ff" points="206.02,-387.41 216.56,-388.45 208.97,-381.06 206.02,-387.41"/>
</a>
</g>
</g>
<!-- Node20 -->
<g id="Node000020" class="node">
<title>Node20</title>
<g id="a_Node000020"><a xlink:href="../../dc/d57/class_a_v_r_software_s_p_i_output.html#a677ab5b52bbd6011d48c3a14e3ebdcb2" target="_top" xlink:title="Release the SPI chip select line.">
<polygon fill="white" stroke="#666666" points="347.75,-292.5 221.5,-292.5 221.5,-259 347.75,-259 347.75,-292.5"/>
<text text-anchor="start" x="229.5" y="-279" font-family="Helvetica,sans-Serif" font-size="10.00">AVRSoftwareSPIOutput</text>
<text text-anchor="middle" x="284.62" y="-266.25" font-family="Helvetica,sans-Serif" font-size="10.00">::release</text>
</a>
</g>
</g>
<!-- Node1&#45;&gt;Node20 -->
<g id="edge9_Node000001_Node000020" class="edge">
<title>Node1&#45;&gt;Node20</title>
<g id="a_edge9_Node000001_Node000020"><a xlink:title=" ">
<path fill="none" stroke="#63b8ff" d="M148.44,-240.99C168.23,-246.08 190,-251.68 210.17,-256.86"/>
<polygon fill="#63b8ff" stroke="#63b8ff" points="209.16,-260.22 219.72,-259.32 210.91,-253.44 209.16,-260.22"/>
</a>
</g>
</g>
<!-- Node22 -->
<g id="Node000022" class="node">
<title>Node22</title>
<g id="a_Node000022"><a xlink:href="../../dc/d57/class_a_v_r_software_s_p_i_output.html#a15872bb6ae69fd5a5c04b246fe73740e" target="_top" xlink:title="Select the SPI output (chip select)">
<polygon fill="white" stroke="#666666" points="347.75,-240.5 221.5,-240.5 221.5,-207 347.75,-207 347.75,-240.5"/>
<text text-anchor="start" x="229.5" y="-227" font-family="Helvetica,sans-Serif" font-size="10.00">AVRSoftwareSPIOutput</text>
<text text-anchor="middle" x="284.62" y="-214.25" font-family="Helvetica,sans-Serif" font-size="10.00">::select</text>
</a>
</g>
</g>
<!-- Node1&#45;&gt;Node22 -->
<g id="edge11_Node000001_Node000022" class="edge">
<title>Node1&#45;&gt;Node22</title>
<g id="a_edge11_Node000001_Node000022"><a xlink:title=" ">
<path fill="none" stroke="#63b8ff" d="M161.02,-223.75C177.12,-223.75 193.98,-223.75 209.87,-223.75"/>
<polygon fill="#63b8ff" stroke="#63b8ff" points="209.73,-227.25 219.73,-223.75 209.73,-220.25 209.73,-227.25"/>
</a>
</g>
</g>
<!-- Node24 -->
<g id="Node000024" class="node">
<title>Node24</title>
<g id="a_Node000024"><a xlink:href="../../d0/dee/struct_pixel_controller.html#a85305135ad8ad18edcd32dfc7431c660" target="_top" xlink:title="Get the length of the LED strip.">
<polygon fill="white" stroke="#666666" points="341,-189.12 228.25,-189.12 228.25,-168.38 341,-168.38 341,-189.12"/>
<text text-anchor="middle" x="284.62" y="-175.62" font-family="Helvetica,sans-Serif" font-size="10.00">PixelController::size</text>
</a>
</g>
</g>
<!-- Node1&#45;&gt;Node24 -->
<g id="edge13_Node000001_Node000024" class="edge">
<title>Node1&#45;&gt;Node24</title>
<g id="a_edge13_Node000001_Node000024"><a xlink:title=" ">
<path fill="none" stroke="#63b8ff" d="M157.38,-206.55C170.51,-203.6 184.02,-200.58 196.75,-197.75 205.23,-195.87 214.17,-193.9 222.97,-191.96"/>
<polygon fill="#63b8ff" stroke="#63b8ff" points="223.5,-195.43 232.52,-189.87 222,-188.59 223.5,-195.43"/>
</a>
</g>
</g>
<!-- Node25 -->
<g id="Node000025" class="node">
<title>Node25</title>
<g id="a_Node000025"><a xlink:href="../../df/d0d/group___clocked_chipsets.html#ab8d200f508aa910564b8db24c451c28b" target="_top" xlink:title=" ">
<polygon fill="white" stroke="#666666" points="372.5,-72.12 196.75,-72.12 196.75,-51.38 372.5,-51.38 372.5,-72.12"/>
<text text-anchor="middle" x="284.62" y="-58.62" font-family="Helvetica,sans-Serif" font-size="10.00">APA102Controller::startBoundary</text>
</a>
</g>
</g>
<!-- Node1&#45;&gt;Node25 -->
<g id="edge14_Node000001_Node000025" class="edge">
<title>Node1&#45;&gt;Node25</title>
<g id="a_edge14_Node000001_Node000025"><a xlink:title=" ">
<path fill="none" stroke="#63b8ff" d="M90.21,-206.67C106.79,-176.43 145.53,-113.67 196.75,-81.75 199.52,-80.02 202.42,-78.45 205.42,-77"/>
<polygon fill="#63b8ff" stroke="#63b8ff" points="206.64,-80.29 214.51,-73.19 203.93,-73.83 206.64,-80.29"/>
</a>
</g>
</g>
<!-- Node27 -->
<g id="Node000027" class="node">
<title>Node27</title>
<g id="a_Node000027"><a xlink:href="../../d0/dee/struct_pixel_controller.html#ac7cb7840989882cce60218ac43dbe8ef" target="_top" xlink:title="Step the dithering forward.">
<polygon fill="white" stroke="#666666" points="364.25,-111.12 205,-111.12 205,-90.38 364.25,-90.38 364.25,-111.12"/>
<text text-anchor="middle" x="284.62" y="-97.62" font-family="Helvetica,sans-Serif" font-size="10.00">PixelController::stepDithering</text>
</a>
</g>
</g>
<!-- Node1&#45;&gt;Node27 -->
<g id="edge17_Node000001_Node000027" class="edge">
<title>Node1&#45;&gt;Node27</title>
<g id="a_edge17_Node000001_Node000027"><a xlink:title=" ">
<path fill="none" stroke="#63b8ff" d="M95.5,-206.62C115.54,-183.47 154.54,-142.59 196.75,-120.75 200.66,-118.73 204.77,-116.91 208.99,-115.27"/>
<polygon fill="#63b8ff" stroke="#63b8ff" points="209.94,-118.65 218.23,-112.06 207.64,-112.03 209.94,-118.65"/>
</a>
</g>
</g>
<!-- Node28 -->
<g id="Node000028" class="node">
<title>Node28</title>
<g id="a_Node000028"><a xlink:href="../../dc/d57/class_a_v_r_software_s_p_i_output.html#abc475d3c1bd94b5d61e699f7f77af905" target="_top" xlink:title="Wait until the SPI subsystem is ready for more data to write.">
<polygon fill="white" stroke="#666666" points="347.75,-33.5 221.5,-33.5 221.5,0 347.75,0 347.75,-33.5"/>
<text text-anchor="start" x="229.5" y="-20" font-family="Helvetica,sans-Serif" font-size="10.00">AVRSoftwareSPIOutput</text>
<text text-anchor="middle" x="284.62" y="-7.25" font-family="Helvetica,sans-Serif" font-size="10.00">::waitFully</text>
</a>
</g>
</g>
<!-- Node1&#45;&gt;Node28 -->
<g id="edge18_Node000001_Node000028" class="edge">
<title>Node1&#45;&gt;Node28</title>
<g id="a_edge18_Node000001_Node000028"><a xlink:title=" ">
<path fill="none" stroke="#63b8ff" d="M87.5,-206.67C101.24,-170.76 138.03,-87.12 196.75,-42.75 201.08,-39.48 205.81,-36.62 210.76,-34.12"/>
<polygon fill="#63b8ff" stroke="#63b8ff" points="212.09,-37.36 219.8,-30.09 209.24,-30.97 212.09,-37.36"/>
</a>
</g>
</g>
<!-- Node30 -->
<g id="Node000030" class="node">
<title>Node30</title>
<g id="a_Node000030"><a xlink:href="../../df/d0d/group___clocked_chipsets.html#a3e85825537bbd044569052476051a970" target="_top" xlink:title=" ">
<polygon fill="white" stroke="#666666" points="359,-150.12 210.25,-150.12 210.25,-129.38 359,-129.38 359,-150.12"/>
<text text-anchor="middle" x="284.62" y="-136.62" font-family="Helvetica,sans-Serif" font-size="10.00">APA102Controller::writeLed</text>
</a>
</g>
</g>
<!-- Node1&#45;&gt;Node30 -->
<g id="edge20_Node000001_Node000030" class="edge">
<title>Node1&#45;&gt;Node30</title>
<g id="a_edge20_Node000001_Node000030"><a xlink:title=" ">
<path fill="none" stroke="#63b8ff" d="M107.38,-206.54C130.12,-192.18 164.46,-172.14 196.75,-159.75 202.77,-157.44 209.13,-155.35 215.55,-153.48"/>
<polygon fill="#63b8ff" stroke="#63b8ff" points="216.21,-156.93 224.93,-150.92 214.36,-150.18 216.21,-156.93"/>
</a>
</g>
</g>
<!-- Node4 -->
<g id="Node000004" class="node">
<title>Node4</title>
<g id="a_Node000004"><a xlink:href="../../dc/d57/class_a_v_r_software_s_p_i_output.html#a58393081ec8c54bd6968642b89e8bd43" target="_top" xlink:title="Write a single byte over SPI.">
<polygon fill="white" stroke="#666666" points="745.38,-179.5 619.12,-179.5 619.12,-146 745.38,-146 745.38,-179.5"/>
<text text-anchor="start" x="627.12" y="-166" font-family="Helvetica,sans-Serif" font-size="10.00">AVRSoftwareSPIOutput</text>
<text text-anchor="middle" x="682.25" y="-153.25" font-family="Helvetica,sans-Serif" font-size="10.00">::writeByte</text>
</a>
</g>
</g>
<!-- Node3&#45;&gt;Node4 -->
<g id="edge3_Node000003_Node000004" class="edge">
<title>Node3&#45;&gt;Node4</title>
<g id="a_edge3_Node000003_Node000004"><a xlink:title=" ">
<path fill="none" stroke="#63b8ff" d="M554.64,-306.89C563.48,-303.8 572.16,-299.83 579.75,-294.75 619.92,-267.83 650.93,-219.73 667.6,-189.63"/>
<polygon fill="#63b8ff" stroke="#63b8ff" points="670.52,-191.59 672.17,-181.12 664.36,-188.27 670.52,-191.59"/>
</a>
</g>
</g>
<!-- Node5 -->
<g id="Node000005" class="node">
<title>Node5</title>
<g id="a_Node000005"><a xlink:href="../../dc/d57/class_a_v_r_software_s_p_i_output.html#ad13d8cd559302413e8c885aab5ad7497" target="_top" xlink:title="Write the BIT&#39;th bit out via SPI, setting the data pin then strobing the clock.">
<polygon fill="#fff0f0" stroke="red" points="911,-179.5 784.75,-179.5 784.75,-146 911,-146 911,-179.5"/>
<text text-anchor="start" x="792.75" y="-166" font-family="Helvetica,sans-Serif" font-size="10.00">AVRSoftwareSPIOutput</text>
<text text-anchor="middle" x="847.88" y="-153.25" font-family="Helvetica,sans-Serif" font-size="10.00">::writeBit</text>
</a>
</g>
</g>
<!-- Node4&#45;&gt;Node5 -->
<g id="edge4_Node000004_Node000005" class="edge">
<title>Node4&#45;&gt;Node5</title>
<g id="a_edge4_Node000004_Node000005"><a xlink:title=" ">
<path fill="none" stroke="#63b8ff" d="M745.58,-162.75C754.53,-162.75 763.81,-162.75 772.97,-162.75"/>
<polygon fill="#63b8ff" stroke="#63b8ff" points="772.94,-166.25 782.94,-162.75 772.94,-159.25 772.94,-166.25"/>
</a>
</g>
</g>
<!-- Node11 -->
<g id="Node000011" class="node">
<title>Node11</title>
<g id="a_Node000011"><a xlink:href="../../d4/d36/namespacefl.html#aeae140ba48d511d1b20d6bd1b383b22b" target="_top" xlink:title=" ">
<polygon fill="white" stroke="#666666" points="556.12,-420.5 432.12,-420.5 432.12,-387 556.12,-387 556.12,-420.5"/>
<text text-anchor="start" x="440.12" y="-407" font-family="Helvetica,sans-Serif" font-size="10.00">fl::five_bit_hd_gamma</text>
<text text-anchor="middle" x="494.12" y="-394.25" font-family="Helvetica,sans-Serif" font-size="10.00">_bitshift</text>
</a>
</g>
</g>
<!-- Node10&#45;&gt;Node11 -->
<g id="edge7_Node000010_Node000011" class="edge">
<title>Node10&#45;&gt;Node11</title>
<g id="a_edge7_Node000010_Node000011"><a xlink:title=" ">
<path fill="none" stroke="#63b8ff" d="M351.56,-403.75C373.49,-403.75 398.03,-403.75 420.44,-403.75"/>
<polygon fill="#63b8ff" stroke="#63b8ff" points="420.43,-407.25 430.43,-403.75 420.43,-400.25 420.43,-407.25"/>
</a>
</g>
</g>
<!-- Node12 -->
<g id="Node000012" class="node">
<title>Node12</title>
<g id="a_Node000012"><a xlink:href="../../d4/d36/namespacefl.html#a702e9f65198e3877e48031e793eac2ff" target="_top" xlink:title=" ">
<polygon fill="#fff0f0" stroke="red" points="748.75,-420.5 615.75,-420.5 615.75,-387 748.75,-387 748.75,-420.5"/>
<text text-anchor="start" x="623.75" y="-407" font-family="Helvetica,sans-Serif" font-size="10.00">fl::__builtin_five</text>
<text text-anchor="middle" x="682.25" y="-394.25" font-family="Helvetica,sans-Serif" font-size="10.00">_bit_hd_gamma_bitshift</text>
</a>
</g>
</g>
<!-- Node11&#45;&gt;Node12 -->
<g id="edge8_Node000011_Node000012" class="edge">
<title>Node11&#45;&gt;Node12</title>
<g id="a_edge8_Node000011_Node000012"><a xlink:title=" ">
<path fill="none" stroke="#63b8ff" d="M556.59,-403.75C571.75,-403.75 588.19,-403.75 604,-403.75"/>
<polygon fill="#63b8ff" stroke="#63b8ff" points="603.86,-407.25 613.86,-403.75 603.86,-400.25 603.86,-407.25"/>
</a>
</g>
</g>
<!-- Node21 -->
<g id="Node000021" class="node">
<title>Node21</title>
<g id="a_Node000021"><a xlink:href="../../dd/da1/class_selectable.html#a190c264a07995c20d72ea5d52eb60e47" target="_top" xlink:title="Release this object.">
<polygon fill="white" stroke="#666666" points="548.62,-286.12 439.62,-286.12 439.62,-265.38 548.62,-265.38 548.62,-286.12"/>
<text text-anchor="middle" x="494.12" y="-272.62" font-family="Helvetica,sans-Serif" font-size="10.00">Selectable::release</text>
</a>
</g>
</g>
<!-- Node20&#45;&gt;Node21 -->
<g id="edge10_Node000020_Node000021" class="edge">
<title>Node20&#45;&gt;Node21</title>
<g id="a_edge10_Node000020_Node000021"><a xlink:title=" ">
<path fill="none" stroke="#63b8ff" d="M348.16,-275.75C373.31,-275.75 402.31,-275.75 427.74,-275.75"/>
<polygon fill="#63b8ff" stroke="#63b8ff" points="427.63,-279.25 437.63,-275.75 427.63,-272.25 427.63,-279.25"/>
</a>
</g>
</g>
<!-- Node23 -->
<g id="Node000023" class="node">
<title>Node23</title>
<g id="a_Node000023"><a xlink:href="../../dd/da1/class_selectable.html#a5536adac637a1c55c3778158c7f38840" target="_top" xlink:title="Select this object.">
<polygon fill="white" stroke="#666666" points="545.25,-234.12 443,-234.12 443,-213.38 545.25,-213.38 545.25,-234.12"/>
<text text-anchor="middle" x="494.12" y="-220.62" font-family="Helvetica,sans-Serif" font-size="10.00">Selectable::select</text>
</a>
</g>
</g>
<!-- Node22&#45;&gt;Node23 -->
<g id="edge12_Node000022_Node000023" class="edge">
<title>Node22&#45;&gt;Node23</title>
<g id="a_edge12_Node000022_Node000023"><a xlink:title=" ">
<path fill="none" stroke="#63b8ff" d="M348.16,-223.75C374.46,-223.75 404.98,-223.75 431.21,-223.75"/>
<polygon fill="#63b8ff" stroke="#63b8ff" points="431.03,-227.25 441.03,-223.75 431.03,-220.25 431.03,-227.25"/>
</a>
</g>
</g>
<!-- Node26 -->
<g id="Node000026" class="node">
<title>Node26</title>
<g id="a_Node000026"><a xlink:href="../../dc/d57/class_a_v_r_software_s_p_i_output.html#a34421832d232a692d08d39d87733acd8" target="_top" xlink:title="Write a word (two bytes) over SPI.">
<polygon fill="white" stroke="#666666" points="557.25,-134.5 431,-134.5 431,-101 557.25,-101 557.25,-134.5"/>
<text text-anchor="start" x="439" y="-121" font-family="Helvetica,sans-Serif" font-size="10.00">AVRSoftwareSPIOutput</text>
<text text-anchor="middle" x="494.12" y="-108.25" font-family="Helvetica,sans-Serif" font-size="10.00">::writeWord</text>
</a>
</g>
</g>
<!-- Node25&#45;&gt;Node26 -->
<g id="edge15_Node000025_Node000026" class="edge">
<title>Node25&#45;&gt;Node26</title>
<g id="a_edge15_Node000025_Node000026"><a xlink:title=" ">
<path fill="none" stroke="#63b8ff" d="M334.92,-72.52C347.23,-75.37 360.38,-78.55 372.5,-81.75 390.35,-86.46 409.55,-91.98 427.27,-97.27"/>
<polygon fill="#63b8ff" stroke="#63b8ff" points="426.05,-100.56 436.64,-100.08 428.07,-93.85 426.05,-100.56"/>
</a>
</g>
</g>
<!-- Node26&#45;&gt;Node4 -->
<g id="edge16_Node000026_Node000004" class="edge">
<title>Node26&#45;&gt;Node4</title>
<g id="a_edge16_Node000026_Node000004"><a xlink:title=" ">
<path fill="none" stroke="#63b8ff" d="M557.62,-132.86C573.82,-136.78 591.41,-141.03 608.1,-145.07"/>
<polygon fill="#63b8ff" stroke="#63b8ff" points="606.91,-148.38 617.45,-147.32 608.55,-141.57 606.91,-148.38"/>
</a>
</g>
</g>
<!-- Node29 -->
<g id="Node000029" class="node">
<title>Node29</title>
<g id="a_Node000029"><a xlink:href="../../dc/d57/class_a_v_r_software_s_p_i_output.html#a15951c5c76cc43be5b8812d29da716dc" target="_top" xlink:title="Wait until the SPI subsystem is ready for more data to write.">
<polygon fill="white" stroke="#666666" points="557.25,-33.5 431,-33.5 431,0 557.25,0 557.25,-33.5"/>
<text text-anchor="start" x="439" y="-20" font-family="Helvetica,sans-Serif" font-size="10.00">AVRSoftwareSPIOutput</text>
<text text-anchor="middle" x="494.12" y="-7.25" font-family="Helvetica,sans-Serif" font-size="10.00">::wait</text>
</a>
</g>
</g>
<!-- Node28&#45;&gt;Node29 -->
<g id="edge19_Node000028_Node000029" class="edge">
<title>Node28&#45;&gt;Node29</title>
<g id="a_edge19_Node000028_Node000029"><a xlink:title=" ">
<path fill="none" stroke="#63b8ff" d="M348.16,-16.75C370.62,-16.75 396.16,-16.75 419.47,-16.75"/>
<polygon fill="#63b8ff" stroke="#63b8ff" points="419.2,-20.25 429.2,-16.75 419.2,-13.25 419.2,-20.25"/>
</a>
</g>
</g>
<!-- Node30&#45;&gt;Node4 -->
<g id="edge21_Node000030_Node000004" class="edge">
<title>Node30&#45;&gt;Node4</title>
<g id="a_edge21_Node000030_Node000004"><a xlink:title=" ">
<path fill="none" stroke="#63b8ff" d="M359.11,-144.02C430.06,-148.15 536.9,-154.36 607.83,-158.48"/>
<polygon fill="#63b8ff" stroke="#63b8ff" points="607.2,-161.95 617.38,-159.04 607.6,-154.96 607.2,-161.95"/>
</a>
</g>
</g>
<!-- Node30&#45;&gt;Node26 -->
<g id="edge22_Node000030_Node000026" class="edge">
<title>Node30&#45;&gt;Node26</title>
<g id="a_edge22_Node000030_Node000026"><a xlink:title=" ">
<path fill="none" stroke="#63b8ff" d="M359.37,-131.93C378.84,-129.87 399.86,-127.64 419.34,-125.57"/>
<polygon fill="#63b8ff" stroke="#63b8ff" points="419.52,-129.07 429.1,-124.54 418.79,-122.11 419.52,-129.07"/>
</a>
</g>
</g>
</g>
</svg>
