<?xml version="1.0" encoding="UTF-8" standalone="no"?>
<!DOCTYPE svg PUBLIC "-//W3C//DTD SVG 1.1//EN"
 "http://www.w3.org/Graphics/SVG/1.1/DTD/svg11.dtd">
<!-- Generated by graphviz version 12.2.1 (20241206.2353)
 -->
<!-- Title: LPD8806Controller::LPD8806_ADJUST::postBlock Pages: 1 -->
<svg width="649pt" height="197pt"
 viewBox="0.00 0.00 648.75 197.12" xmlns="http://www.w3.org/2000/svg" xmlns:xlink="http://www.w3.org/1999/xlink">
<g id="graph0" class="graph" transform="scale(1 1) rotate(0) translate(4 193.12)">
<title>LPD8806Controller::LPD8806_ADJUST::postBlock</title>
<!-- Node1 -->
<g id="Node000001" class="node">
<title>Node1</title>
<g id="a_Node000001"><a xlink:title=" ">
<polygon fill="#999999" stroke="#666666" points="154,-117.5 0,-117.5 0,-84 154,-84 154,-117.5"/>
<text text-anchor="start" x="8" y="-104" font-family="Helvetica,sans-Serif" font-size="10.00">LPD8806Controller::</text>
<text text-anchor="middle" x="77" y="-91.25" font-family="Helvetica,sans-Serif" font-size="10.00">LPD8806_ADJUST::postBlock</text>
</a>
</g>
</g>
<!-- Node2 -->
<g id="Node000002" class="node">
<title>Node2</title>
<g id="a_Node000002"><a xlink:href="../../dc/d57/class_a_v_r_software_s_p_i_output.html#abada62794ed922c2798bf462a98b57f0" target="_top" xlink:title="Write multiple bytes of the given value over SPI, without selecting the interface.">
<polygon fill="white" stroke="#666666" points="316.25,-117.5 190,-117.5 190,-84 316.25,-84 316.25,-117.5"/>
<text text-anchor="start" x="198" y="-104" font-family="Helvetica,sans-Serif" font-size="10.00">AVRSoftwareSPIOutput</text>
<text text-anchor="middle" x="253.12" y="-91.25" font-family="Helvetica,sans-Serif" font-size="10.00">::writeBytesValueRaw</text>
</a>
</g>
</g>
<!-- Node1&#45;&gt;Node2 -->
<g id="edge1_Node000001_Node000002" class="edge">
<title>Node1&#45;&gt;Node2</title>
<g id="a_edge1_Node000001_Node000002"><a xlink:title=" ">
<path fill="none" stroke="#63b8ff" d="M154.37,-100.75C162.29,-100.75 170.33,-100.75 178.23,-100.75"/>
<polygon fill="#63b8ff" stroke="#63b8ff" points="178.14,-104.25 188.14,-100.75 178.14,-97.25 178.14,-104.25"/>
</a>
</g>
</g>
<!-- Node3 -->
<g id="Node000003" class="node">
<title>Node3</title>
<g id="a_Node000003"><a xlink:href="../../db/d3b/class_fast_pin.html#a2270a3882cf8646ce8abcae29cf6923a" target="_top" xlink:title="Gets the state of the port with this pin HIGH">
<polygon fill="white" stroke="#666666" points="455.62,-189.12 375.12,-189.12 375.12,-168.38 455.62,-168.38 455.62,-189.12"/>
<text text-anchor="middle" x="415.38" y="-175.62" font-family="Helvetica,sans-Serif" font-size="10.00">FastPin::hival</text>
</a>
</g>
</g>
<!-- Node2&#45;&gt;Node3 -->
<g id="edge2_Node000002_Node000003" class="edge">
<title>Node2&#45;&gt;Node3</title>
<g id="a_edge2_Node000002_Node000003"><a xlink:title=" ">
<path fill="none" stroke="#63b8ff" d="M279.52,-117.89C298.85,-130.41 326.44,-147.14 352.25,-158.75 356.49,-160.66 360.97,-162.47 365.51,-164.16"/>
<polygon fill="#63b8ff" stroke="#63b8ff" points="364.07,-167.37 374.66,-167.4 366.4,-160.77 364.07,-167.37"/>
</a>
</g>
</g>
<!-- Node4 -->
<g id="Node000004" class="node">
<title>Node4</title>
<g id="a_Node000004"><a xlink:href="../../db/d3b/class_fast_pin.html#a5148b7a0cd5fd551da455c03afc09003" target="_top" xlink:title="Gets the state of the port with this pin LOW">
<polygon fill="white" stroke="#666666" points="455.62,-150.12 375.12,-150.12 375.12,-129.38 455.62,-129.38 455.62,-150.12"/>
<text text-anchor="middle" x="415.38" y="-136.62" font-family="Helvetica,sans-Serif" font-size="10.00">FastPin::loval</text>
</a>
</g>
</g>
<!-- Node2&#45;&gt;Node4 -->
<g id="edge3_Node000002_Node000004" class="edge">
<title>Node2&#45;&gt;Node4</title>
<g id="a_edge3_Node000002_Node000004"><a xlink:title=" ">
<path fill="none" stroke="#63b8ff" d="M316.54,-115.94C332.23,-119.76 348.87,-123.81 363.89,-127.46"/>
<polygon fill="#63b8ff" stroke="#63b8ff" points="363,-130.85 373.55,-129.81 364.66,-124.05 363,-130.85"/>
</a>
</g>
</g>
<!-- Node5 -->
<g id="Node000005" class="node">
<title>Node5</title>
<g id="a_Node000005"><a xlink:href="../../db/d3b/class_fast_pin.html#a97fd678e7bc05979582254783a1b5e57" target="_top" xlink:title="Get the pin mask.">
<polygon fill="white" stroke="#666666" points="457.12,-111.12 373.62,-111.12 373.62,-90.38 457.12,-90.38 457.12,-111.12"/>
<text text-anchor="middle" x="415.38" y="-97.62" font-family="Helvetica,sans-Serif" font-size="10.00">FastPin::mask</text>
</a>
</g>
</g>
<!-- Node2&#45;&gt;Node5 -->
<g id="edge4_Node000002_Node000005" class="edge">
<title>Node2&#45;&gt;Node5</title>
<g id="a_edge4_Node000002_Node000005"><a xlink:title=" ">
<path fill="none" stroke="#63b8ff" d="M316.54,-100.75C331.66,-100.75 347.66,-100.75 362.25,-100.75"/>
<polygon fill="#63b8ff" stroke="#63b8ff" points="362.08,-104.25 372.08,-100.75 362.08,-97.25 362.08,-104.25"/>
</a>
</g>
</g>
<!-- Node6 -->
<g id="Node000006" class="node">
<title>Node6</title>
<g id="a_Node000006"><a xlink:href="../../db/d3b/class_fast_pin.html#ab005abe848eadb60051daccb4eb7dbe8" target="_top" xlink:title="Get the output state of the port.">
<polygon fill="white" stroke="#666666" points="453.38,-72.12 377.38,-72.12 377.38,-51.38 453.38,-51.38 453.38,-72.12"/>
<text text-anchor="middle" x="415.38" y="-58.62" font-family="Helvetica,sans-Serif" font-size="10.00">FastPin::port</text>
</a>
</g>
</g>
<!-- Node2&#45;&gt;Node6 -->
<g id="edge5_Node000002_Node000006" class="edge">
<title>Node2&#45;&gt;Node6</title>
<g id="a_edge5_Node000002_Node000006"><a xlink:title=" ">
<path fill="none" stroke="#63b8ff" d="M316.54,-85.56C332.95,-81.57 350.4,-77.32 365.95,-73.54"/>
<polygon fill="#63b8ff" stroke="#63b8ff" points="366.53,-77 375.42,-71.23 364.88,-70.19 366.53,-77"/>
</a>
</g>
</g>
<!-- Node7 -->
<g id="Node000007" class="node">
<title>Node7</title>
<g id="a_Node000007"><a xlink:href="../../dc/d57/class_a_v_r_software_s_p_i_output.html#a58393081ec8c54bd6968642b89e8bd43" target="_top" xlink:title="Write a single byte over SPI.">
<polygon fill="white" stroke="#666666" points="478.5,-33.5 352.25,-33.5 352.25,0 478.5,0 478.5,-33.5"/>
<text text-anchor="start" x="360.25" y="-20" font-family="Helvetica,sans-Serif" font-size="10.00">AVRSoftwareSPIOutput</text>
<text text-anchor="middle" x="415.38" y="-7.25" font-family="Helvetica,sans-Serif" font-size="10.00">::writeByte</text>
</a>
</g>
</g>
<!-- Node2&#45;&gt;Node7 -->
<g id="edge6_Node000002_Node000007" class="edge">
<title>Node2&#45;&gt;Node7</title>
<g id="a_edge6_Node000002_Node000007"><a xlink:title=" ">
<path fill="none" stroke="#63b8ff" d="M280.64,-83.73C300.08,-71.59 327.31,-55.26 352.25,-42.75 355.09,-41.32 358.03,-39.91 361.01,-38.52"/>
<polygon fill="#63b8ff" stroke="#63b8ff" points="362.2,-41.82 369.87,-34.52 359.32,-35.44 362.2,-41.82"/>
</a>
</g>
</g>
<!-- Node8 -->
<g id="Node000008" class="node">
<title>Node8</title>
<g id="a_Node000008"><a xlink:href="../../dc/d57/class_a_v_r_software_s_p_i_output.html#ad13d8cd559302413e8c885aab5ad7497" target="_top" xlink:title="Write the BIT&#39;th bit out via SPI, setting the data pin then strobing the clock.">
<polygon fill="#fff0f0" stroke="red" points="640.75,-33.5 514.5,-33.5 514.5,0 640.75,0 640.75,-33.5"/>
<text text-anchor="start" x="522.5" y="-20" font-family="Helvetica,sans-Serif" font-size="10.00">AVRSoftwareSPIOutput</text>
<text text-anchor="middle" x="577.62" y="-7.25" font-family="Helvetica,sans-Serif" font-size="10.00">::writeBit</text>
</a>
</g>
</g>
<!-- Node7&#45;&gt;Node8 -->
<g id="edge7_Node000007_Node000008" class="edge">
<title>Node7&#45;&gt;Node8</title>
<g id="a_edge7_Node000007_Node000008"><a xlink:title=" ">
<path fill="none" stroke="#63b8ff" d="M478.79,-16.75C486.68,-16.75 494.8,-16.75 502.84,-16.75"/>
<polygon fill="#63b8ff" stroke="#63b8ff" points="502.6,-20.25 512.6,-16.75 502.6,-13.25 502.6,-20.25"/>
</a>
</g>
</g>
</g>
</svg>
