<?xml version="1.0" encoding="UTF-8" standalone="no"?>
<!DOCTYPE svg PUBLIC "-//W3C//DTD SVG 1.1//EN"
 "http://www.w3.org/Graphics/SVG/1.1/DTD/svg11.dtd">
<!-- Generated by graphviz version 12.2.1 (20241206.2353)
 -->
<!-- Title: MapDecayTime Pages: 1 -->
<svg width="588pt" height="80pt"
 viewBox="0.00 0.00 588.00 80.12" xmlns="http://www.w3.org/2000/svg" xmlns:xlink="http://www.w3.org/1999/xlink">
<g id="graph0" class="graph" transform="scale(1 1) rotate(0) translate(4 76.12)">
<title>MapDecayTime</title>
<!-- Node1 -->
<g id="Node000001" class="node">
<title>Node1</title>
<g id="a_Node000001"><a xlink:title=" ">
<polygon fill="#999999" stroke="#666666" points="580,-49.12 487.5,-49.12 487.5,-28.38 580,-28.38 580,-49.12"/>
<text text-anchor="middle" x="533.75" y="-35.62" font-family="Helvetica,sans-Serif" font-size="10.00">MapDecayTime</text>
</a>
</g>
</g>
<!-- Node2 -->
<g id="Node000002" class="node">
<title>Node2</title>
<g id="a_Node000002"><a xlink:href="../../df/d2d/util_8cpp.html#a0f02f59740c07ab03cedef15f4db1fb5" target="_top" xlink:title=" ">
<polygon fill="white" stroke="#666666" points="451.5,-49.12 354.5,-49.12 354.5,-28.38 451.5,-28.38 451.5,-49.12"/>
<text text-anchor="middle" x="403" y="-35.62" font-family="Helvetica,sans-Serif" font-size="10.00">CalcDecayFactor</text>
</a>
</g>
</g>
<!-- Node1&#45;&gt;Node2 -->
<g id="edge1_Node000001_Node000002" class="edge">
<title>Node1&#45;&gt;Node2</title>
<g id="a_edge1_Node000001_Node000002"><a xlink:title=" ">
<path fill="none" stroke="#63b8ff" d="M476,-38.75C467.86,-38.75 459.54,-38.75 451.6,-38.75"/>
<polygon fill="#63b8ff" stroke="#63b8ff" points="475.84,-42.25 485.84,-38.75 475.84,-35.25 475.84,-42.25"/>
</a>
</g>
</g>
<!-- Node3 -->
<g id="Node000003" class="node">
<title>Node3</title>
<g id="a_Node000003"><a xlink:href="../../db/d42/struct_key.html#abbe629a5358df091d6202309e8327b23" target="_top" xlink:title=" ">
<polygon fill="white" stroke="#666666" points="311.75,-72.12 160,-72.12 160,-51.38 311.75,-51.38 311.75,-72.12"/>
<text text-anchor="middle" x="235.88" y="-58.62" font-family="Helvetica,sans-Serif" font-size="10.00">Key::CalcAttackDecayFactor</text>
</a>
</g>
</g>
<!-- Node2&#45;&gt;Node3 -->
<g id="edge2_Node000002_Node000003" class="edge">
<title>Node2&#45;&gt;Node3</title>
<g id="a_edge2_Node000002_Node000003"><a xlink:title=" ">
<path fill="none" stroke="#63b8ff" d="M342.85,-46.99C332.91,-48.37 322.49,-49.82 312.22,-51.26"/>
<polygon fill="#63b8ff" stroke="#63b8ff" points="343.32,-50.46 352.74,-45.61 342.35,-43.52 343.32,-50.46"/>
</a>
</g>
</g>
<!-- Node7 -->
<g id="Node000007" class="node">
<title>Node7</title>
<g id="a_Node000007"><a xlink:href="../../dc/d9f/namespaceanonymous__namespace_02_painter_8cpp_03.html#a2932f71ebf495b07e5cf1a8a71e5c198" target="_top" xlink:title=" ">
<polygon fill="white" stroke="#666666" points="318.5,-33.5 153.25,-33.5 153.25,0 318.5,0 318.5,-33.5"/>
<text text-anchor="start" x="161.25" y="-20" font-family="Helvetica,sans-Serif" font-size="10.00">anonymous_namespace</text>
<text text-anchor="middle" x="235.88" y="-7.25" font-family="Helvetica,sans-Serif" font-size="10.00">{Painter::cpp}::CalcLuminance</text>
</a>
</g>
</g>
<!-- Node2&#45;&gt;Node7 -->
<g id="edge4_Node000002_Node000007" class="edge">
<title>Node2&#45;&gt;Node7</title>
<g id="a_edge4_Node000002_Node000007"><a xlink:title=" ">
<path fill="none" stroke="#63b8ff" d="M342.97,-30.89C335.1,-29.84 326.93,-28.75 318.76,-27.66"/>
<polygon fill="#63b8ff" stroke="#63b8ff" points="342.36,-34.34 352.74,-32.19 343.29,-27.4 342.36,-34.34"/>
</a>
</g>
</g>
<!-- Node4 -->
<g id="Node000004" class="node">
<title>Node4</title>
<g id="a_Node000004"><a xlink:href="../../db/d42/struct_key.html#af13ad91740bfcfc76380b4684a2668c1" target="_top" xlink:title=" ">
<polygon fill="#fff0f0" stroke="red" points="117.25,-72.12 0,-72.12 0,-51.38 117.25,-51.38 117.25,-72.12"/>
<text text-anchor="middle" x="58.62" y="-58.62" font-family="Helvetica,sans-Serif" font-size="10.00">Key::UpdateIntensity</text>
</a>
</g>
</g>
<!-- Node3&#45;&gt;Node4 -->
<g id="edge3_Node000003_Node000004" class="edge">
<title>Node3&#45;&gt;Node4</title>
<g id="a_edge3_Node000003_Node000004"><a xlink:title=" ">
<path fill="none" stroke="#63b8ff" d="M148.31,-61.75C137.93,-61.75 127.53,-61.75 117.7,-61.75"/>
<polygon fill="#63b8ff" stroke="#63b8ff" points="148.02,-65.25 158.02,-61.75 148.02,-58.25 148.02,-65.25"/>
</a>
</g>
</g>
</g>
</svg>
