<?xml version="1.0" encoding="UTF-8" standalone="no"?>
<!DOCTYPE svg PUBLIC "-//W3C//DTD SVG 1.1//EN"
 "http://www.w3.org/Graphics/SVG/1.1/DTD/svg11.dtd">
<!-- Generated by graphviz version 12.2.1 (20241206.2353)
 -->
<!-- Title: fl::Cylon::draw Pages: 1 -->
<svg width="501pt" height="68pt"
 viewBox="0.00 0.00 501.00 67.75" xmlns="http://www.w3.org/2000/svg" xmlns:xlink="http://www.w3.org/1999/xlink">
<g id="graph0" class="graph" transform="scale(1 1) rotate(0) translate(4 63.75)">
<title>fl::Cylon::draw</title>
<!-- Node1 -->
<g id="Node000001" class="node">
<title>Node1</title>
<g id="a_Node000001"><a xlink:title=" ">
<polygon fill="#999999" stroke="#666666" points="85.75,-39.75 0,-39.75 0,-19 85.75,-19 85.75,-39.75"/>
<text text-anchor="middle" x="42.88" y="-26.25" font-family="Helvetica,sans-Serif" font-size="10.00">fl::Cylon::draw</text>
</a>
</g>
</g>
<!-- Node2 -->
<g id="Node000002" class="node">
<title>Node2</title>
<g id="a_Node000002"><a xlink:href="../../db/d87/group___pixel_types.html#a5a3c3370a7de840ac31c07f6dc9bdb63" target="_top" xlink:title="Scale down a RGB to N/256ths of its current brightness, using &quot;plain math&quot; dimming rules.">
<polygon fill="white" stroke="#666666" points="209,-39.75 121.75,-39.75 121.75,-19 209,-19 209,-39.75"/>
<text text-anchor="middle" x="165.38" y="-26.25" font-family="Helvetica,sans-Serif" font-size="10.00">CRGB::nscale8</text>
</a>
</g>
</g>
<!-- Node1&#45;&gt;Node2 -->
<g id="edge1_Node000001_Node000002" class="edge">
<title>Node1&#45;&gt;Node2</title>
<g id="a_edge1_Node000001_Node000002"><a xlink:title=" ">
<path fill="none" stroke="#63b8ff" d="M86.02,-29.38C93.86,-29.38 102.16,-29.38 110.3,-29.38"/>
<polygon fill="#63b8ff" stroke="#63b8ff" points="110.13,-32.88 120.13,-29.38 110.13,-25.88 110.13,-32.88"/>
</a>
</g>
</g>
<!-- Node3 -->
<g id="Node000003" class="node">
<title>Node3</title>
<g id="a_Node000003"><a xlink:href="../../d0/da8/group___scaling.html#ga39bf87e5526120889086cab19ac749b1" target="_top" xlink:title="Scale three one&#45;byte values by a fourth one, which is treated as the numerator of a fraction whose de...">
<polygon fill="white" stroke="#666666" points="310.5,-39.75 245,-39.75 245,-19 310.5,-19 310.5,-39.75"/>
<text text-anchor="middle" x="277.75" y="-26.25" font-family="Helvetica,sans-Serif" font-size="10.00">nscale8x3</text>
</a>
</g>
</g>
<!-- Node2&#45;&gt;Node3 -->
<g id="edge2_Node000002_Node000003" class="edge">
<title>Node2&#45;&gt;Node3</title>
<g id="a_edge2_Node000002_Node000003"><a xlink:title=" ">
<path fill="none" stroke="#63b8ff" d="M209.36,-29.38C217.25,-29.38 225.49,-29.38 233.39,-29.38"/>
<polygon fill="#63b8ff" stroke="#63b8ff" points="233.13,-32.88 243.13,-29.38 233.13,-25.88 233.13,-32.88"/>
</a>
</g>
</g>
<!-- Node4 -->
<g id="Node000004" class="node">
<title>Node4</title>
<g id="a_Node000004"><a xlink:href="../../d0/da5/group___scaling_dirty.html#ga3fade00fb4cf5b937b973128198a7a79" target="_top" xlink:title="Clean up the r1 register after a series of *LEAVING_R1_DIRTY calls.">
<polygon fill="white" stroke="#666666" points="455.88,-59.75 383.62,-59.75 383.62,-39 455.88,-39 455.88,-59.75"/>
<text text-anchor="middle" x="419.75" y="-46.25" font-family="Helvetica,sans-Serif" font-size="10.00">cleanup_R1</text>
</a>
</g>
</g>
<!-- Node3&#45;&gt;Node4 -->
<g id="edge3_Node000003_Node000004" class="edge">
<title>Node3&#45;&gt;Node4</title>
<g id="a_edge3_Node000003_Node000004"><a xlink:title=" ">
<path fill="none" stroke="#63b8ff" d="M310.87,-33.96C329.04,-36.56 352.08,-39.85 372.2,-42.73"/>
<polygon fill="#63b8ff" stroke="#63b8ff" points="371.45,-46.15 381.84,-44.1 372.44,-39.22 371.45,-46.15"/>
</a>
</g>
</g>
<!-- Node5 -->
<g id="Node000005" class="node">
<title>Node5</title>
<g id="a_Node000005"><a xlink:href="../../d0/da5/group___scaling_dirty.html#ga7386235cada3aca429b189681d2ec56d" target="_top" xlink:title="This version of scale8() does not clean up the R1 register on AVR.">
<polygon fill="white" stroke="#666666" points="493,-20.75 346.5,-20.75 346.5,0 493,0 493,-20.75"/>
<text text-anchor="middle" x="419.75" y="-7.25" font-family="Helvetica,sans-Serif" font-size="10.00">scale8_LEAVING_R1_DIRTY</text>
</a>
</g>
</g>
<!-- Node3&#45;&gt;Node5 -->
<g id="edge4_Node000003_Node000005" class="edge">
<title>Node3&#45;&gt;Node5</title>
<g id="a_edge4_Node000003_Node000005"><a xlink:title=" ">
<path fill="none" stroke="#63b8ff" d="M310.87,-25.02C318.22,-24.02 326.37,-22.91 334.81,-21.77"/>
<polygon fill="#63b8ff" stroke="#63b8ff" points="335.07,-25.26 344.51,-20.45 334.13,-18.33 335.07,-25.26"/>
</a>
</g>
</g>
</g>
</svg>
