<?xml version="1.0" encoding="UTF-8" standalone="no"?>
<!DOCTYPE svg PUBLIC "-//W3C//DTD SVG 1.1//EN"
 "http://www.w3.org/Graphics/SVG/1.1/DTD/svg11.dtd">
<!-- Generated by graphviz version 12.2.1 (20241206.2353)
 -->
<!-- Title: /home/runner/work/FastLED/FastLED/src/fl/strstream.h Pages: 1 -->
<svg width="1610pt" height="522pt"
 viewBox="0.00 0.00 1609.50 522.25" xmlns="http://www.w3.org/2000/svg" xmlns:xlink="http://www.w3.org/1999/xlink">
<g id="graph0" class="graph" transform="scale(1 1) rotate(0) translate(4 518.25)">
<title>/home/runner/work/FastLED/FastLED/src/fl/strstream.h</title>
<!-- Node1 -->
<g id="Node000001" class="node">
<title>Node1</title>
<g id="a_Node000001"><a xlink:title=" ">
<polygon fill="#999999" stroke="#666666" points="662.5,-514.25 513,-514.25 513,-480.75 662.5,-480.75 662.5,-514.25"/>
<text text-anchor="start" x="521" y="-500.75" font-family="Helvetica,sans-Serif" font-size="10.00">/home/runner/work/FastLED</text>
<text text-anchor="middle" x="587.75" y="-488" font-family="Helvetica,sans-Serif" font-size="10.00">/FastLED/src/fl/strstream.h</text>
</a>
</g>
</g>
<!-- Node2 -->
<g id="Node000002" class="node">
<title>Node2</title>
<g id="a_Node000002"><a xlink:href="../../dc/da7/assert_8h.html" target="_top" xlink:title=" ">
<polygon fill="white" stroke="#666666" points="468.5,-286.62 319,-286.62 319,-253.12 468.5,-253.12 468.5,-286.62"/>
<text text-anchor="start" x="327" y="-273.12" font-family="Helvetica,sans-Serif" font-size="10.00">/home/runner/work/FastLED</text>
<text text-anchor="middle" x="393.75" y="-260.38" font-family="Helvetica,sans-Serif" font-size="10.00">/FastLED/src/fl/assert.h</text>
</a>
</g>
</g>
<!-- Node1&#45;&gt;Node2 -->
<g id="edge1_Node000001_Node000002" class="edge">
<title>Node1&#45;&gt;Node2</title>
<g id="a_edge1_Node000001_Node000002"><a xlink:title=" ">
<path fill="none" stroke="#63b8ff" d="M501.33,-488.13C372.55,-473.67 140.01,-439.22 89.75,-375.25 -20.61,-234.8 91.44,-339.5 309.75,-293 318.01,-291.24 326.68,-289.19 335.17,-287.07"/>
<polygon fill="#63b8ff" stroke="#63b8ff" points="500.87,-491.6 511.19,-489.22 501.64,-484.64 500.87,-491.6"/>
</a>
</g>
</g>
<!-- Node135 -->
<g id="Node000135" class="node">
<title>Node135</title>
<g id="a_Node000135"><a xlink:href="../../d6/d01/dbg_8h.html" target="_top" xlink:title=" ">
<polygon fill="white" stroke="#666666" points="662.5,-444.75 513,-444.75 513,-411.25 662.5,-411.25 662.5,-444.75"/>
<text text-anchor="start" x="521" y="-431.25" font-family="Helvetica,sans-Serif" font-size="10.00">/home/runner/work/FastLED</text>
<text text-anchor="middle" x="587.75" y="-418.5" font-family="Helvetica,sans-Serif" font-size="10.00">/FastLED/src/fl/dbg.h</text>
</a>
</g>
</g>
<!-- Node1&#45;&gt;Node135 -->
<g id="edge20_Node000001_Node000135" class="edge">
<title>Node1&#45;&gt;Node135</title>
<g id="a_edge20_Node000001_Node000135"><a xlink:title=" ">
<path fill="none" stroke="#63b8ff" d="M587.75,-469.06C587.75,-460.84 587.75,-452.09 587.75,-444.88"/>
<polygon fill="#63b8ff" stroke="#63b8ff" points="584.25,-468.99 587.75,-478.99 591.25,-468.99 584.25,-468.99"/>
</a>
</g>
</g>
<!-- Node88 -->
<g id="Node000088" class="node">
<title>Node88</title>
<g id="a_Node000088"><a xlink:href="../../d2/da7/pir_8cpp.html" target="_top" xlink:title=" ">
<polygon fill="white" stroke="#666666" points="1421.88,-286.62 1271.62,-286.62 1271.62,-253.12 1421.88,-253.12 1421.88,-286.62"/>
<text text-anchor="start" x="1279.62" y="-273.12" font-family="Helvetica,sans-Serif" font-size="10.00">/home/runner/work/FastLED</text>
<text text-anchor="middle" x="1346.75" y="-260.38" font-family="Helvetica,sans-Serif" font-size="10.00">/FastLED/src/sensors/pir.cpp</text>
</a>
</g>
</g>
<!-- Node1&#45;&gt;Node88 -->
<g id="edge45_Node000001_Node000088" class="edge">
<title>Node1&#45;&gt;Node88</title>
<g id="a_edge45_Node000001_Node000088"><a xlink:title=" ">
<path fill="none" stroke="#63b8ff" d="M673.73,-481.73C778.5,-462.55 960.19,-425.5 1110.75,-375.25 1186.39,-350.01 1270.94,-309.41 1315.44,-287.01"/>
<polygon fill="#63b8ff" stroke="#63b8ff" points="673.29,-478.25 664.08,-483.48 674.54,-485.13 673.29,-478.25"/>
</a>
</g>
</g>
<!-- Node3 -->
<g id="Node000003" class="node">
<title>Node3</title>
<g id="a_Node000003"><a xlink:href="../../db/de9/_esp32_s3_i2_s_demo_8ino.html" target="_top" xlink:title=" ">
<polygon fill="white" stroke="#666666" points="385.12,-210.75 188.38,-210.75 188.38,-164.5 385.12,-164.5 385.12,-210.75"/>
<text text-anchor="start" x="196.38" y="-197.25" font-family="Helvetica,sans-Serif" font-size="10.00">/home/runner/work/FastLED</text>
<text text-anchor="start" x="196.38" y="-184.5" font-family="Helvetica,sans-Serif" font-size="10.00">/FastLED/examples/Esp32S3I2SDemo</text>
<text text-anchor="middle" x="286.75" y="-171.75" font-family="Helvetica,sans-Serif" font-size="10.00">/Esp32S3I2SDemo.ino</text>
</a>
</g>
</g>
<!-- Node2&#45;&gt;Node3 -->
<g id="edge2_Node000002_Node000003" class="edge">
<title>Node2&#45;&gt;Node3</title>
<g id="a_edge2_Node000002_Node000003"><a xlink:title=" ">
<path fill="none" stroke="#63b8ff" d="M363.03,-245.83C348.53,-234.96 331.3,-222.04 316.88,-211.23"/>
<polygon fill="#63b8ff" stroke="#63b8ff" points="360.79,-248.53 370.89,-251.73 364.99,-242.93 360.79,-248.53"/>
</a>
</g>
</g>
<!-- Node4 -->
<g id="Node000004" class="node">
<title>Node4</title>
<g id="a_Node000004"><a xlink:href="../../dc/db7/map_8h.html" target="_top" xlink:title=" ">
<polygon fill="white" stroke="#666666" points="552.5,-204.38 403,-204.38 403,-170.88 552.5,-170.88 552.5,-204.38"/>
<text text-anchor="start" x="411" y="-190.88" font-family="Helvetica,sans-Serif" font-size="10.00">/home/runner/work/FastLED</text>
<text text-anchor="middle" x="477.75" y="-178.12" font-family="Helvetica,sans-Serif" font-size="10.00">/FastLED/src/fl/map.h</text>
</a>
</g>
</g>
<!-- Node2&#45;&gt;Node4 -->
<g id="edge3_Node000002_Node000004" class="edge">
<title>Node2&#45;&gt;Node4</title>
<g id="a_edge3_Node000002_Node000004"><a xlink:title=" ">
<path fill="none" stroke="#63b8ff" d="M418.76,-244.98C432.32,-232.03 448.71,-216.36 460.78,-204.84"/>
<polygon fill="#63b8ff" stroke="#63b8ff" points="416.66,-242.15 411.84,-251.59 421.49,-247.21 416.66,-242.15"/>
</a>
</g>
</g>
<!-- Node134 -->
<g id="Node000134" class="node">
<title>Node134</title>
<g id="a_Node000134"><a xlink:href="../../d0/d7f/video__impl_8cpp.html" target="_top" xlink:title=" ">
<polygon fill="white" stroke="#666666" points="842.5,-210.75 693,-210.75 693,-164.5 842.5,-164.5 842.5,-210.75"/>
<text text-anchor="start" x="701" y="-197.25" font-family="Helvetica,sans-Serif" font-size="10.00">/home/runner/work/FastLED</text>
<text text-anchor="start" x="701" y="-184.5" font-family="Helvetica,sans-Serif" font-size="10.00">/FastLED/src/fx/video/video</text>
<text text-anchor="middle" x="767.75" y="-171.75" font-family="Helvetica,sans-Serif" font-size="10.00">_impl.cpp</text>
</a>
</g>
</g>
<!-- Node2&#45;&gt;Node134 -->
<g id="edge19_Node000002_Node000134" class="edge">
<title>Node2&#45;&gt;Node134</title>
<g id="a_edge19_Node000002_Node000134"><a xlink:title=" ">
<path fill="none" stroke="#63b8ff" d="M464.08,-250.02C468.7,-248.88 473.29,-247.78 477.75,-246.75 550.41,-229.92 633.97,-213.47 692.68,-202.4"/>
<polygon fill="#63b8ff" stroke="#63b8ff" points="463.61,-246.53 454.76,-252.35 465.31,-253.32 463.61,-246.53"/>
</a>
</g>
</g>
<!-- Node5 -->
<g id="Node000005" class="node">
<title>Node5</title>
<g id="a_Node000005"><a xlink:href="../../d1/ddb/_chromancer_8ino.html" target="_top" xlink:title=" ">
<polygon fill="white" stroke="#666666" points="345,-46.25 174.5,-46.25 174.5,0 345,0 345,-46.25"/>
<text text-anchor="start" x="182.5" y="-32.75" font-family="Helvetica,sans-Serif" font-size="10.00">/home/runner/work/FastLED</text>
<text text-anchor="start" x="182.5" y="-20" font-family="Helvetica,sans-Serif" font-size="10.00">/FastLED/examples/Chromancer</text>
<text text-anchor="middle" x="259.75" y="-7.25" font-family="Helvetica,sans-Serif" font-size="10.00">/Chromancer.ino</text>
</a>
</g>
</g>
<!-- Node4&#45;&gt;Node5 -->
<g id="edge4_Node000004_Node000005" class="edge">
<title>Node4&#45;&gt;Node5</title>
<g id="a_edge4_Node000004_Node000005"><a xlink:title=" ">
<path fill="none" stroke="#63b8ff" d="M407.91,-167.41C360.6,-153.86 305.21,-136.71 296.75,-128.5 274.12,-106.54 265.3,-69.88 261.88,-46.37"/>
<polygon fill="#63b8ff" stroke="#63b8ff" points="406.76,-170.73 417.33,-170.1 408.67,-163.99 406.76,-170.73"/>
</a>
</g>
</g>
<!-- Node6 -->
<g id="Node000006" class="node">
<title>Node6</title>
<g id="a_Node000006"><a xlink:href="../../d9/df3/rectangular__draw__buffer_8h.html" target="_top" xlink:title=" ">
<polygon fill="#fff0f0" stroke="red" points="636.5,-128.5 487,-128.5 487,-82.25 636.5,-82.25 636.5,-128.5"/>
<text text-anchor="start" x="495" y="-115" font-family="Helvetica,sans-Serif" font-size="10.00">/home/runner/work/FastLED</text>
<text text-anchor="start" x="495" y="-102.25" font-family="Helvetica,sans-Serif" font-size="10.00">/FastLED/src/fl/rectangular</text>
<text text-anchor="middle" x="561.75" y="-89.5" font-family="Helvetica,sans-Serif" font-size="10.00">_draw_buffer.h</text>
</a>
</g>
</g>
<!-- Node4&#45;&gt;Node6 -->
<g id="edge5_Node000004_Node000006" class="edge">
<title>Node4&#45;&gt;Node6</title>
<g id="a_edge5_Node000004_Node000006"><a xlink:title=" ">
<path fill="none" stroke="#63b8ff" d="M502.85,-162.65C514.02,-151.98 527.1,-139.48 538.09,-128.98"/>
<polygon fill="#63b8ff" stroke="#63b8ff" points="500.66,-159.9 495.84,-169.34 505.49,-164.96 500.66,-159.9"/>
</a>
</g>
</g>
<!-- Node8 -->
<g id="Node000008" class="node">
<title>Node8</title>
<g id="a_Node000008"><a xlink:href="../../d9/d6f/screenmap_8cpp.html" target="_top" xlink:title=" ">
<polygon fill="white" stroke="#666666" points="527.12,-39.88 366.38,-39.88 366.38,-6.38 527.12,-6.38 527.12,-39.88"/>
<text text-anchor="start" x="374.38" y="-26.38" font-family="Helvetica,sans-Serif" font-size="10.00">/home/runner/work/FastLED</text>
<text text-anchor="middle" x="446.75" y="-13.62" font-family="Helvetica,sans-Serif" font-size="10.00">/FastLED/src/fl/screenmap.cpp</text>
</a>
</g>
</g>
<!-- Node4&#45;&gt;Node8 -->
<g id="edge6_Node000004_Node000008" class="edge">
<title>Node4&#45;&gt;Node8</title>
<g id="a_edge6_Node000004_Node000008"><a xlink:title=" ">
<path fill="none" stroke="#63b8ff" d="M409.94,-167.22C366.09,-154 316.04,-137.34 309.75,-128.5 297.83,-111.76 298.4,-99.39 309.75,-82.25 319.59,-67.38 358.63,-51.66 392.53,-40.31"/>
<polygon fill="#63b8ff" stroke="#63b8ff" points="408.89,-170.56 419.47,-170.07 410.89,-163.85 408.89,-170.56"/>
</a>
</g>
</g>
<!-- Node9 -->
<g id="Node000009" class="node">
<title>Node9</title>
<g id="a_Node000009"><a xlink:href="../../d7/d0d/fl_2screenmap_8h.html" target="_top" xlink:title=" ">
<polygon fill="#fff0f0" stroke="red" points="804.5,-122.12 655,-122.12 655,-88.62 804.5,-88.62 804.5,-122.12"/>
<text text-anchor="start" x="663" y="-108.62" font-family="Helvetica,sans-Serif" font-size="10.00">/home/runner/work/FastLED</text>
<text text-anchor="middle" x="729.75" y="-95.88" font-family="Helvetica,sans-Serif" font-size="10.00">/FastLED/src/fl/screenmap.h</text>
</a>
</g>
</g>
<!-- Node4&#45;&gt;Node9 -->
<g id="edge7_Node000004_Node000009" class="edge">
<title>Node4&#45;&gt;Node9</title>
<g id="a_edge7_Node000004_Node000009"><a xlink:title=" ">
<path fill="none" stroke="#63b8ff" d="M539.59,-166.93C582.38,-153.3 638.63,-135.39 678.83,-122.59"/>
<polygon fill="#63b8ff" stroke="#63b8ff" points="538.65,-163.56 530.19,-169.93 540.78,-170.23 538.65,-163.56"/>
</a>
</g>
</g>
<!-- Node128 -->
<g id="Node000128" class="node">
<title>Node128</title>
<g id="a_Node000128"><a xlink:href="../../d9/d3c/fx__engine_8h.html" target="_top" xlink:title=" ">
<polygon fill="#fff0f0" stroke="red" points="1246.5,-122.12 1097,-122.12 1097,-88.62 1246.5,-88.62 1246.5,-122.12"/>
<text text-anchor="start" x="1105" y="-108.62" font-family="Helvetica,sans-Serif" font-size="10.00">/home/runner/work/FastLED</text>
<text text-anchor="middle" x="1171.75" y="-95.88" font-family="Helvetica,sans-Serif" font-size="10.00">/FastLED/src/fx/fx_engine.h</text>
</a>
</g>
</g>
<!-- Node4&#45;&gt;Node128 -->
<g id="edge12_Node000004_Node000128" class="edge">
<title>Node4&#45;&gt;Node128</title>
<g id="a_edge12_Node000004_Node000128"><a xlink:title=" ">
<path fill="none" stroke="#63b8ff" d="M563.94,-176.66C701.09,-160.8 966.74,-130.08 1096.61,-115.06"/>
<polygon fill="#63b8ff" stroke="#63b8ff" points="563.71,-173.16 554.18,-177.79 564.52,-180.11 563.71,-173.16"/>
</a>
</g>
</g>
<!-- Node130 -->
<g id="Node000130" class="node">
<title>Node130</title>
<g id="a_Node000130"><a xlink:href="../../d3/dda/frame__interpolator_8h.html" target="_top" xlink:title=" ">
<polygon fill="#fff0f0" stroke="red" points="468.5,-128.5 319,-128.5 319,-82.25 468.5,-82.25 468.5,-128.5"/>
<text text-anchor="start" x="327" y="-115" font-family="Helvetica,sans-Serif" font-size="10.00">/home/runner/work/FastLED</text>
<text text-anchor="start" x="327" y="-102.25" font-family="Helvetica,sans-Serif" font-size="10.00">/FastLED/src/fx/video/frame</text>
<text text-anchor="middle" x="393.75" y="-89.5" font-family="Helvetica,sans-Serif" font-size="10.00">_interpolator.h</text>
</a>
</g>
</g>
<!-- Node4&#45;&gt;Node130 -->
<g id="edge16_Node000004_Node000130" class="edge">
<title>Node4&#45;&gt;Node130</title>
<g id="a_edge16_Node000004_Node000130"><a xlink:title=" ">
<path fill="none" stroke="#63b8ff" d="M452.65,-162.65C441.48,-151.98 428.4,-139.48 417.41,-128.98"/>
<polygon fill="#63b8ff" stroke="#63b8ff" points="450.01,-164.96 459.66,-169.34 454.84,-159.9 450.01,-164.96"/>
</a>
</g>
</g>
<!-- Node9&#45;&gt;Node5 -->
<g id="edge8_Node000009_Node000005" class="edge">
<title>Node9&#45;&gt;Node5</title>
<g id="a_edge8_Node000009_Node000005"><a xlink:title=" ">
<path fill="none" stroke="#63b8ff" d="M661.63,-85.62C656.28,-84.4 650.94,-83.25 645.75,-82.25 519.1,-57.77 484.82,-68.48 357.75,-46.25 353.71,-45.54 349.59,-44.78 345.43,-43.98"/>
<polygon fill="#63b8ff" stroke="#63b8ff" points="660.59,-88.97 671.13,-87.88 662.21,-82.16 660.59,-88.97"/>
</a>
</g>
</g>
<!-- Node9&#45;&gt;Node8 -->
<g id="edge11_Node000009_Node000008" class="edge">
<title>Node9&#45;&gt;Node8</title>
<g id="a_edge11_Node000009_Node000008"><a xlink:title=" ">
<path fill="none" stroke="#63b8ff" d="M661.52,-85.03C613.32,-71.36 549.46,-53.25 503.93,-40.34"/>
<polygon fill="#63b8ff" stroke="#63b8ff" points="660.45,-88.36 671.02,-87.72 662.36,-81.63 660.45,-88.36"/>
</a>
</g>
</g>
<!-- Node11 -->
<g id="Node000011" class="node">
<title>Node11</title>
<g id="a_Node000011"><a xlink:href="../../d3/dac/_fx_noise_ring_8ino.html" target="_top" xlink:title=" ">
<polygon fill="white" stroke="#666666" points="885.12,-46.25 712.38,-46.25 712.38,0 885.12,0 885.12,-46.25"/>
<text text-anchor="start" x="720.38" y="-32.75" font-family="Helvetica,sans-Serif" font-size="10.00">/home/runner/work/FastLED</text>
<text text-anchor="start" x="720.38" y="-20" font-family="Helvetica,sans-Serif" font-size="10.00">/FastLED/examples/FxNoiseRing</text>
<text text-anchor="middle" x="798.75" y="-7.25" font-family="Helvetica,sans-Serif" font-size="10.00">/FxNoiseRing.ino</text>
</a>
</g>
</g>
<!-- Node9&#45;&gt;Node11 -->
<g id="edge9_Node000009_Node000011" class="edge">
<title>Node9&#45;&gt;Node11</title>
<g id="a_edge9_Node000009_Node000011"><a xlink:title=" ">
<path fill="none" stroke="#63b8ff" d="M751.18,-79.45C760.17,-68.99 770.55,-56.92 779.32,-46.73"/>
<polygon fill="#63b8ff" stroke="#63b8ff" points="748.57,-77.12 744.7,-86.99 753.87,-81.69 748.57,-77.12"/>
</a>
</g>
</g>
<!-- Node125 -->
<g id="Node000125" class="node">
<title>Node125</title>
<g id="a_Node000125"><a xlink:href="../../d4/d37/file__system_8cpp.html" target="_top" xlink:title=" ">
<polygon fill="white" stroke="#666666" points="1066.25,-39.88 903.25,-39.88 903.25,-6.38 1066.25,-6.38 1066.25,-39.88"/>
<text text-anchor="start" x="911.25" y="-26.38" font-family="Helvetica,sans-Serif" font-size="10.00">/home/runner/work/FastLED</text>
<text text-anchor="middle" x="984.75" y="-13.62" font-family="Helvetica,sans-Serif" font-size="10.00">/FastLED/src/fl/file_system.cpp</text>
</a>
</g>
</g>
<!-- Node9&#45;&gt;Node125 -->
<g id="edge10_Node000009_Node000125" class="edge">
<title>Node9&#45;&gt;Node125</title>
<g id="a_edge10_Node000009_Node000125"><a xlink:title=" ">
<path fill="none" stroke="#63b8ff" d="M792.33,-84.68C835.63,-71.05 892.55,-53.14 933.22,-40.34"/>
<polygon fill="#63b8ff" stroke="#63b8ff" points="791.28,-81.34 782.8,-87.68 793.39,-88.02 791.28,-81.34"/>
</a>
</g>
</g>
<!-- Node39 -->
<g id="Node000039" class="node">
<title>Node39</title>
<g id="a_Node000039"><a xlink:href="../../dd/d96/_fx_animartrix_8ino.html" target="_top" xlink:title=" ">
<polygon fill="white" stroke="#666666" points="1259.25,-46.25 1084.25,-46.25 1084.25,0 1259.25,0 1259.25,-46.25"/>
<text text-anchor="start" x="1092.25" y="-32.75" font-family="Helvetica,sans-Serif" font-size="10.00">/home/runner/work/FastLED</text>
<text text-anchor="start" x="1092.25" y="-20" font-family="Helvetica,sans-Serif" font-size="10.00">/FastLED/examples/FxAnimartrix</text>
<text text-anchor="middle" x="1171.75" y="-7.25" font-family="Helvetica,sans-Serif" font-size="10.00">/FxAnimartrix.ino</text>
</a>
</g>
</g>
<!-- Node128&#45;&gt;Node39 -->
<g id="edge13_Node000128_Node000039" class="edge">
<title>Node128&#45;&gt;Node39</title>
<g id="a_edge13_Node000128_Node000039"><a xlink:title=" ">
<path fill="none" stroke="#63b8ff" d="M1171.75,-76.89C1171.75,-67.05 1171.75,-56.1 1171.75,-46.73"/>
<polygon fill="#63b8ff" stroke="#63b8ff" points="1168.25,-76.62 1171.75,-86.62 1175.25,-76.62 1168.25,-76.62"/>
</a>
</g>
</g>
<!-- Node42 -->
<g id="Node000042" class="node">
<title>Node42</title>
<g id="a_Node000042"><a xlink:href="../../d6/d35/_fx_engine_8ino.html" target="_top" xlink:title="Demonstrates how to use the FxEngine to switch between different effects on a 2D LED matrix.">
<polygon fill="white" stroke="#666666" points="1433.88,-46.25 1277.62,-46.25 1277.62,0 1433.88,0 1433.88,-46.25"/>
<text text-anchor="start" x="1285.62" y="-32.75" font-family="Helvetica,sans-Serif" font-size="10.00">/home/runner/work/FastLED</text>
<text text-anchor="start" x="1285.62" y="-20" font-family="Helvetica,sans-Serif" font-size="10.00">/FastLED/examples/FxEngine</text>
<text text-anchor="middle" x="1355.75" y="-7.25" font-family="Helvetica,sans-Serif" font-size="10.00">/FxEngine.ino</text>
</a>
</g>
</g>
<!-- Node128&#45;&gt;Node42 -->
<g id="edge14_Node000128_Node000042" class="edge">
<title>Node128&#45;&gt;Node42</title>
<g id="a_edge14_Node000128_Node000042"><a xlink:title=" ">
<path fill="none" stroke="#63b8ff" d="M1219.32,-83.63C1245.24,-72.32 1277.37,-58.31 1303.93,-46.73"/>
<polygon fill="#63b8ff" stroke="#63b8ff" points="1218.14,-80.32 1210.37,-87.53 1220.94,-86.74 1218.14,-80.32"/>
</a>
</g>
</g>
<!-- Node73 -->
<g id="Node000073" class="node">
<title>Node73</title>
<g id="a_Node000073"><a xlink:href="../../d7/dd3/wasm_8ino.html" target="_top" xlink:title="Demonstrates an advanced ino file with multiple effects and UI elements.">
<polygon fill="white" stroke="#666666" points="1601.5,-46.25 1452,-46.25 1452,0 1601.5,0 1601.5,-46.25"/>
<text text-anchor="start" x="1460" y="-32.75" font-family="Helvetica,sans-Serif" font-size="10.00">/home/runner/work/FastLED</text>
<text text-anchor="start" x="1460" y="-20" font-family="Helvetica,sans-Serif" font-size="10.00">/FastLED/examples/wasm</text>
<text text-anchor="middle" x="1526.75" y="-7.25" font-family="Helvetica,sans-Serif" font-size="10.00">/wasm.ino</text>
</a>
</g>
</g>
<!-- Node128&#45;&gt;Node73 -->
<g id="edge15_Node000128_Node000073" class="edge">
<title>Node128&#45;&gt;Node73</title>
<g id="a_edge15_Node000128_Node000073"><a xlink:title=" ">
<path fill="none" stroke="#63b8ff" d="M1257.86,-86.97C1311.24,-75.91 1381.14,-60.96 1442.75,-46.25 1445.68,-45.55 1448.67,-44.82 1451.69,-44.08"/>
<polygon fill="#63b8ff" stroke="#63b8ff" points="1257.3,-83.51 1248.21,-88.96 1258.71,-90.36 1257.3,-83.51"/>
</a>
</g>
</g>
<!-- Node131 -->
<g id="Node000131" class="node">
<title>Node131</title>
<g id="a_Node000131"><a xlink:href="../../d0/d05/video_8cpp.html" target="_top" xlink:title=" ">
<polygon fill="white" stroke="#666666" points="694.5,-39.88 545,-39.88 545,-6.38 694.5,-6.38 694.5,-39.88"/>
<text text-anchor="start" x="553" y="-26.38" font-family="Helvetica,sans-Serif" font-size="10.00">/home/runner/work/FastLED</text>
<text text-anchor="middle" x="619.75" y="-13.62" font-family="Helvetica,sans-Serif" font-size="10.00">/FastLED/src/fx/video.cpp</text>
</a>
</g>
</g>
<!-- Node130&#45;&gt;Node131 -->
<g id="edge17_Node000130_Node000131" class="edge">
<title>Node130&#45;&gt;Node131</title>
<g id="a_edge17_Node000130_Node000131"><a xlink:title=" ">
<path fill="none" stroke="#63b8ff" d="M467.99,-78.01C503.05,-65.56 543.78,-51.1 574.21,-40.3"/>
<polygon fill="#63b8ff" stroke="#63b8ff" points="466.98,-74.66 458.73,-81.3 469.33,-81.25 466.98,-74.66"/>
</a>
</g>
</g>
<!-- Node132 -->
<g id="Node000132" class="node">
<title>Node132</title>
<g id="a_Node000132"><a xlink:href="../../d5/da4/frame__interpolator_8cpp.html" target="_top" xlink:title=" ">
<polygon fill="white" stroke="#666666" points="149.5,-46.25 0,-46.25 0,0 149.5,0 149.5,-46.25"/>
<text text-anchor="start" x="8" y="-32.75" font-family="Helvetica,sans-Serif" font-size="10.00">/home/runner/work/FastLED</text>
<text text-anchor="start" x="8" y="-20" font-family="Helvetica,sans-Serif" font-size="10.00">/FastLED/src/fx/video/frame</text>
<text text-anchor="middle" x="74.75" y="-7.25" font-family="Helvetica,sans-Serif" font-size="10.00">_interpolator.cpp</text>
</a>
</g>
</g>
<!-- Node130&#45;&gt;Node132 -->
<g id="edge18_Node000130_Node000132" class="edge">
<title>Node130&#45;&gt;Node132</title>
<g id="a_edge18_Node000130_Node000132"><a xlink:title=" ">
<path fill="none" stroke="#63b8ff" d="M307.6,-82.7C258.39,-70.32 197.27,-54.95 149.99,-43.05"/>
<polygon fill="#63b8ff" stroke="#63b8ff" points="306.54,-86.04 317.09,-85.09 308.24,-79.26 306.54,-86.04"/>
</a>
</g>
</g>
<!-- Node135&#45;&gt;Node131 -->
<g id="edge42_Node000135_Node000131" class="edge">
<title>Node135&#45;&gt;Node131</title>
<g id="a_edge42_Node000135_Node000131"><a xlink:title=" ">
<path fill="none" stroke="#63b8ff" d="M588.5,-399.63C590.11,-379.06 594.61,-350.79 606.75,-329 618.23,-308.39 633.29,-313.03 645.75,-293 677.21,-242.43 641.27,-206.25 683.75,-164.5 726.51,-122.48 777.45,-176.22 813.75,-128.5 826.2,-112.14 826.02,-98.74 813.75,-82.25 809.57,-76.64 735.52,-55.51 680.14,-40.35"/>
<polygon fill="#63b8ff" stroke="#63b8ff" points="585.02,-399.34 587.93,-409.52 592,-399.74 585.02,-399.34"/>
</a>
</g>
</g>
<!-- Node135&#45;&gt;Node132 -->
<g id="edge43_Node000135_Node000132" class="edge">
<title>Node135&#45;&gt;Node132</title>
<g id="a_edge43_Node000135_Node000132"><a xlink:title=" ">
<path fill="none" stroke="#63b8ff" d="M501.12,-423.58C366.46,-417.45 119.26,-402.58 89.75,-375.25 55.16,-343.21 70.75,-318.03 70.75,-270.88 70.75,-270.88 70.75,-270.88 70.75,-186.62 70.75,-136.67 72.66,-78.11 73.84,-46.73"/>
<polygon fill="#63b8ff" stroke="#63b8ff" points="500.94,-427.08 511.08,-424.03 501.25,-420.08 500.94,-427.08"/>
</a>
</g>
</g>
<!-- Node14 -->
<g id="Node000014" class="node">
<title>Node14</title>
<g id="a_Node000014"><a xlink:href="../../d6/dc9/_led_rope_t_c_l_8cpp.html" target="_top" xlink:title=" ">
<polygon fill="white" stroke="#666666" points="522.12,-375.25 319.38,-375.25 319.38,-329 522.12,-329 522.12,-375.25"/>
<text text-anchor="start" x="327.38" y="-361.75" font-family="Helvetica,sans-Serif" font-size="10.00">/home/runner/work/FastLED</text>
<text text-anchor="start" x="327.38" y="-349" font-family="Helvetica,sans-Serif" font-size="10.00">/FastLED/examples/LuminescentGrand</text>
<text text-anchor="middle" x="420.75" y="-336.25" font-family="Helvetica,sans-Serif" font-size="10.00">/arduino/LedRopeTCL.cpp</text>
</a>
</g>
</g>
<!-- Node135&#45;&gt;Node14 -->
<g id="edge21_Node000135_Node000014" class="edge">
<title>Node135&#45;&gt;Node14</title>
<g id="a_edge21_Node000135_Node000014"><a xlink:title=" ">
<path fill="none" stroke="#63b8ff" d="M540.61,-406.15C519.18,-396.67 493.78,-385.43 471.88,-375.74"/>
<polygon fill="#63b8ff" stroke="#63b8ff" points="539.16,-409.33 549.72,-410.18 541.99,-402.93 539.16,-409.33"/>
</a>
</g>
</g>
<!-- Node136 -->
<g id="Node000136" class="node">
<title>Node136</title>
<g id="a_Node000136"><a xlink:href="../../de/d05/buttons_8h.html" target="_top" xlink:title=" ">
<polygon fill="white" stroke="#666666" points="301.12,-375.25 98.38,-375.25 98.38,-329 301.12,-329 301.12,-375.25"/>
<text text-anchor="start" x="106.38" y="-361.75" font-family="Helvetica,sans-Serif" font-size="10.00">/home/runner/work/FastLED</text>
<text text-anchor="start" x="106.38" y="-349" font-family="Helvetica,sans-Serif" font-size="10.00">/FastLED/examples/LuminescentGrand</text>
<text text-anchor="middle" x="199.75" y="-336.25" font-family="Helvetica,sans-Serif" font-size="10.00">/arduino/buttons.h</text>
</a>
</g>
</g>
<!-- Node135&#45;&gt;Node136 -->
<g id="edge22_Node000135_Node000136" class="edge">
<title>Node135&#45;&gt;Node136</title>
<g id="a_edge22_Node000135_Node000136"><a xlink:title=" ">
<path fill="none" stroke="#63b8ff" d="M501.71,-411.2C447,-401.09 374.68,-387.59 310.75,-375.25 307.66,-374.65 304.53,-374.05 301.36,-373.43"/>
<polygon fill="#63b8ff" stroke="#63b8ff" points="500.8,-414.59 511.27,-412.97 502.07,-407.71 500.8,-414.59"/>
</a>
</g>
</g>
<!-- Node138 -->
<g id="Node000138" class="node">
<title>Node138</title>
<g id="a_Node000138"><a xlink:href="../../de/d77/warn_8h.html" target="_top" xlink:title=" ">
<polygon fill="white" stroke="#666666" points="1101.5,-368.88 952,-368.88 952,-335.38 1101.5,-335.38 1101.5,-368.88"/>
<text text-anchor="start" x="960" y="-355.38" font-family="Helvetica,sans-Serif" font-size="10.00">/home/runner/work/FastLED</text>
<text text-anchor="middle" x="1026.75" y="-342.62" font-family="Helvetica,sans-Serif" font-size="10.00">/FastLED/src/fl/warn.h</text>
</a>
</g>
</g>
<!-- Node135&#45;&gt;Node138 -->
<g id="edge24_Node000135_Node000138" class="edge">
<title>Node135&#45;&gt;Node138</title>
<g id="a_edge24_Node000135_Node000138"><a xlink:title=" ">
<path fill="none" stroke="#63b8ff" d="M674.26,-417.16C746.44,-408.29 851.8,-393.79 942.75,-375.25 951.17,-373.53 960.01,-371.48 968.66,-369.33"/>
<polygon fill="#63b8ff" stroke="#63b8ff" points="673.98,-413.67 664.48,-418.35 674.83,-420.62 673.98,-413.67"/>
</a>
</g>
</g>
<!-- Node142 -->
<g id="Node000142" class="node">
<title>Node142</title>
<g id="a_Node000142"><a xlink:href="../../de/daf/time_8cpp.html" target="_top" xlink:title=" ">
<polygon fill="white" stroke="#666666" points="636.5,-286.62 487,-286.62 487,-253.12 636.5,-253.12 636.5,-286.62"/>
<text text-anchor="start" x="495" y="-273.12" font-family="Helvetica,sans-Serif" font-size="10.00">/home/runner/work/FastLED</text>
<text text-anchor="middle" x="561.75" y="-260.38" font-family="Helvetica,sans-Serif" font-size="10.00">/FastLED/src/fx/time.cpp</text>
</a>
</g>
</g>
<!-- Node135&#45;&gt;Node142 -->
<g id="edge41_Node000135_Node000142" class="edge">
<title>Node135&#45;&gt;Node142</title>
<g id="a_edge41_Node000135_Node000142"><a xlink:title=" ">
<path fill="none" stroke="#63b8ff" d="M579.62,-399.97C577.46,-392.06 575.3,-383.36 573.75,-375.25 567.81,-344.26 564.42,-307.49 562.84,-286.9"/>
<polygon fill="#63b8ff" stroke="#63b8ff" points="576.19,-400.71 582.29,-409.37 582.92,-398.8 576.19,-400.71"/>
</a>
</g>
</g>
<!-- Node143 -->
<g id="Node000143" class="node">
<title>Node143</title>
<g id="a_Node000143"><a xlink:href="../../d3/dc3/animartrix_8hpp.html" target="_top" xlink:title=" ">
<polygon fill="white" stroke="#666666" points="1491.38,-122.12 1314.12,-122.12 1314.12,-88.62 1491.38,-88.62 1491.38,-122.12"/>
<text text-anchor="start" x="1322.12" y="-108.62" font-family="Helvetica,sans-Serif" font-size="10.00">/home/runner/work/FastLED</text>
<text text-anchor="middle" x="1402.75" y="-95.88" font-family="Helvetica,sans-Serif" font-size="10.00">/FastLED/src/fx/2d/animartrix.hpp</text>
</a>
</g>
</g>
<!-- Node135&#45;&gt;Node143 -->
<g id="edge36_Node000135_Node000143" class="edge">
<title>Node135&#45;&gt;Node143</title>
<g id="a_edge36_Node000135_Node000143"><a xlink:title=" ">
<path fill="none" stroke="#63b8ff" d="M674.06,-427.41C870.16,-426.23 1339.32,-410.9 1430.75,-293 1470.6,-241.61 1431.82,-157.71 1412.38,-122.61"/>
<polygon fill="#63b8ff" stroke="#63b8ff" points="674.17,-423.91 664.19,-427.45 674.2,-430.91 674.17,-423.91"/>
</a>
</g>
</g>
<!-- Node144 -->
<g id="Node000144" class="node">
<title>Node144</title>
<g id="a_Node000144"><a xlink:href="../../da/d14/frame_8cpp.html" target="_top" xlink:title=" ">
<polygon fill="white" stroke="#666666" points="765.5,-368.88 616,-368.88 616,-335.38 765.5,-335.38 765.5,-368.88"/>
<text text-anchor="start" x="624" y="-355.38" font-family="Helvetica,sans-Serif" font-size="10.00">/home/runner/work/FastLED</text>
<text text-anchor="middle" x="690.75" y="-342.62" font-family="Helvetica,sans-Serif" font-size="10.00">/FastLED/src/fx/frame.cpp</text>
</a>
</g>
</g>
<!-- Node135&#45;&gt;Node144 -->
<g id="edge40_Node000135_Node000144" class="edge">
<title>Node135&#45;&gt;Node144</title>
<g id="a_edge40_Node000135_Node000144"><a xlink:title=" ">
<path fill="none" stroke="#63b8ff" d="M619.71,-404.08C635.42,-392.81 653.99,-379.49 668.2,-369.3"/>
<polygon fill="#63b8ff" stroke="#63b8ff" points="617.67,-401.23 611.58,-409.91 621.75,-406.92 617.67,-401.23"/>
</a>
</g>
</g>
<!-- Node145 -->
<g id="Node000145" class="node">
<title>Node145</title>
<g id="a_Node000145"><a xlink:href="../../da/d7a/pixel__stream_8cpp.html" target="_top" xlink:title=" ">
<polygon fill="white" stroke="#666666" points="933.5,-375.25 784,-375.25 784,-329 933.5,-329 933.5,-375.25"/>
<text text-anchor="start" x="792" y="-361.75" font-family="Helvetica,sans-Serif" font-size="10.00">/home/runner/work/FastLED</text>
<text text-anchor="start" x="792" y="-349" font-family="Helvetica,sans-Serif" font-size="10.00">/FastLED/src/fx/video/pixel</text>
<text text-anchor="middle" x="858.75" y="-336.25" font-family="Helvetica,sans-Serif" font-size="10.00">_stream.cpp</text>
</a>
</g>
</g>
<!-- Node135&#45;&gt;Node145 -->
<g id="edge44_Node000135_Node000145" class="edge">
<title>Node135&#45;&gt;Node145</title>
<g id="a_edge44_Node000135_Node000145"><a xlink:title=" ">
<path fill="none" stroke="#63b8ff" d="M657.84,-407.89C696.42,-397.38 744.31,-384.32 783.65,-373.6"/>
<polygon fill="#63b8ff" stroke="#63b8ff" points="657.41,-404.38 648.68,-410.39 659.25,-411.14 657.41,-404.38"/>
</a>
</g>
</g>
<!-- Node137 -->
<g id="Node000137" class="node">
<title>Node137</title>
<g id="a_Node000137"><a xlink:href="../../d9/da7/ui__state_8h.html" target="_top" xlink:title=" ">
<polygon fill="white" stroke="#666666" points="301.12,-293 98.38,-293 98.38,-246.75 301.12,-246.75 301.12,-293"/>
<text text-anchor="start" x="106.38" y="-279.5" font-family="Helvetica,sans-Serif" font-size="10.00">/home/runner/work/FastLED</text>
<text text-anchor="start" x="106.38" y="-266.75" font-family="Helvetica,sans-Serif" font-size="10.00">/FastLED/examples/LuminescentGrand</text>
<text text-anchor="middle" x="199.75" y="-254" font-family="Helvetica,sans-Serif" font-size="10.00">/arduino/ui_state.h</text>
</a>
</g>
</g>
<!-- Node136&#45;&gt;Node137 -->
<g id="edge23_Node000136_Node000137" class="edge">
<title>Node136&#45;&gt;Node137</title>
<g id="a_edge23_Node000136_Node000137"><a xlink:title=" ">
<path fill="none" stroke="#63b8ff" d="M199.75,-317.34C199.75,-309.25 199.75,-300.82 199.75,-293.39"/>
<polygon fill="#63b8ff" stroke="#63b8ff" points="196.25,-317.26 199.75,-327.26 203.25,-317.26 196.25,-317.26"/>
</a>
</g>
</g>
<!-- Node138&#45;&gt;Node2 -->
<g id="edge26_Node000138_Node000002" class="edge">
<title>Node138&#45;&gt;Node2</title>
<g id="a_edge26_Node000138_Node000002"><a xlink:title=" ">
<path fill="none" stroke="#63b8ff" d="M959.95,-332.37C954.16,-331.1 948.37,-329.95 942.75,-329 738.36,-294.46 682.14,-327.54 477.75,-293 468.53,-291.44 458.85,-289.34 449.47,-287.05"/>
<polygon fill="#63b8ff" stroke="#63b8ff" points="959.02,-335.75 969.55,-334.61 960.61,-328.93 959.02,-335.75"/>
</a>
</g>
</g>
<!-- Node138&#45;&gt;Node8 -->
<g id="edge29_Node000138_Node000008" class="edge">
<title>Node138&#45;&gt;Node8</title>
<g id="a_edge29_Node000138_Node000008"><a xlink:title=" ">
<path fill="none" stroke="#63b8ff" d="M998.46,-327.81C986.85,-317.65 973.61,-305.27 962.75,-293 886.73,-207.1 912.02,-141.43 813.75,-82.25 707.02,-17.97 658.18,-69.32 535.75,-46.25 526.68,-44.54 517.14,-42.47 507.83,-40.29"/>
<polygon fill="#63b8ff" stroke="#63b8ff" points="995.94,-330.26 1005.81,-334.12 1000.5,-324.95 995.94,-330.26"/>
</a>
</g>
</g>
<!-- Node138&#45;&gt;Node11 -->
<g id="edge25_Node000138_Node000011" class="edge">
<title>Node138&#45;&gt;Node11</title>
<g id="a_edge25_Node000138_Node000011"><a xlink:title=" ">
<path fill="none" stroke="#63b8ff" d="M1017.56,-324.04C995.51,-259.54 940.11,-100.85 922.75,-82.25 908.48,-66.95 889.36,-55.3 870.43,-46.6"/>
<polygon fill="#63b8ff" stroke="#63b8ff" points="1014.25,-325.16 1020.79,-333.5 1020.87,-322.9 1014.25,-325.16"/>
</a>
</g>
</g>
<!-- Node138&#45;&gt;Node125 -->
<g id="edge28_Node000138_Node000125" class="edge">
<title>Node138&#45;&gt;Node125</title>
<g id="a_edge28_Node000138_Node000125"><a xlink:title=" ">
<path fill="none" stroke="#63b8ff" d="M1023.24,-323.83C1014.79,-258.02 993.49,-92.17 986.8,-40.05"/>
<polygon fill="#63b8ff" stroke="#63b8ff" points="1019.73,-323.94 1024.47,-333.41 1026.67,-323.04 1019.73,-323.94"/>
</a>
</g>
</g>
<!-- Node138&#45;&gt;Node131 -->
<g id="edge33_Node000138_Node000131" class="edge">
<title>Node138&#45;&gt;Node131</title>
<g id="a_edge33_Node000138_Node000131"><a xlink:title=" ">
<path fill="none" stroke="#63b8ff" d="M1008.7,-325.85C1001.83,-315.82 994.12,-304.06 987.75,-293 961.72,-247.84 926.05,-114.06 884.75,-82.25 819.77,-32.2 783.67,-64.7 703.75,-46.25 695.82,-44.42 687.49,-42.37 679.29,-40.29"/>
<polygon fill="#63b8ff" stroke="#63b8ff" points="1005.77,-327.77 1014.35,-333.97 1011.51,-323.77 1005.77,-327.77"/>
</a>
</g>
</g>
<!-- Node138&#45;&gt;Node134 -->
<g id="edge34_Node000138_Node000134" class="edge">
<title>Node138&#45;&gt;Node134</title>
<g id="a_edge34_Node000138_Node000134"><a xlink:title=" ">
<path fill="none" stroke="#63b8ff" d="M958.2,-331.72C918.81,-319.79 873.84,-304.62 856.75,-293 824.45,-271.04 797.01,-234.38 781.46,-210.87"/>
<polygon fill="#63b8ff" stroke="#63b8ff" points="957.1,-335.04 967.68,-334.56 959.1,-328.34 957.1,-335.04"/>
</a>
</g>
</g>
<!-- Node139 -->
<g id="Node000139" class="node">
<title>Node139</title>
<g id="a_Node000139"><a xlink:href="../../de/d95/bytestreammemory_8cpp.html" target="_top" xlink:title=" ">
<polygon fill="white" stroke="#666666" points="1253.12,-286.62 1050.38,-286.62 1050.38,-253.12 1253.12,-253.12 1253.12,-286.62"/>
<text text-anchor="start" x="1058.38" y="-273.12" font-family="Helvetica,sans-Serif" font-size="10.00">/home/runner/work/FastLED</text>
<text text-anchor="middle" x="1151.75" y="-260.38" font-family="Helvetica,sans-Serif" font-size="10.00">/FastLED/src/fl/bytestreammemory.cpp</text>
</a>
</g>
</g>
<!-- Node138&#45;&gt;Node139 -->
<g id="edge27_Node000138_Node000139" class="edge">
<title>Node138&#45;&gt;Node139</title>
<g id="a_edge27_Node000138_Node000139"><a xlink:title=" ">
<path fill="none" stroke="#63b8ff" d="M1061.7,-328.69C1082.29,-315.47 1107.86,-299.05 1126.49,-287.09"/>
<polygon fill="#63b8ff" stroke="#63b8ff" points="1059.84,-325.72 1053.32,-334.07 1063.63,-331.61 1059.84,-325.72"/>
</a>
</g>
</g>
<!-- Node140 -->
<g id="Node000140" class="node">
<title>Node140</title>
<g id="a_Node000140"><a xlink:href="../../d7/d2f/fx__layer_8h.html" target="_top" xlink:title=" ">
<polygon fill="#fff0f0" stroke="red" points="1204.5,-210.75 1055,-210.75 1055,-164.5 1204.5,-164.5 1204.5,-210.75"/>
<text text-anchor="start" x="1063" y="-197.25" font-family="Helvetica,sans-Serif" font-size="10.00">/home/runner/work/FastLED</text>
<text text-anchor="start" x="1063" y="-184.5" font-family="Helvetica,sans-Serif" font-size="10.00">/FastLED/src/fx/detail</text>
<text text-anchor="middle" x="1129.75" y="-171.75" font-family="Helvetica,sans-Serif" font-size="10.00">/fx_layer.h</text>
</a>
</g>
</g>
<!-- Node138&#45;&gt;Node140 -->
<g id="edge30_Node000138_Node000140" class="edge">
<title>Node138&#45;&gt;Node140</title>
<g id="a_edge30_Node000138_Node000140"><a xlink:title=" ">
<path fill="none" stroke="#63b8ff" d="M1024.76,-323.51C1024.48,-301.16 1027.2,-269.71 1041.75,-246.75 1051.06,-232.06 1065.58,-220.27 1080.16,-211.24"/>
<polygon fill="#63b8ff" stroke="#63b8ff" points="1021.26,-323.51 1025.12,-333.38 1028.26,-323.26 1021.26,-323.51"/>
</a>
</g>
</g>
<!-- Node138&#45;&gt;Node142 -->
<g id="edge32_Node000138_Node000142" class="edge">
<title>Node138&#45;&gt;Node142</title>
<g id="a_edge32_Node000138_Node000142"><a xlink:title=" ">
<path fill="none" stroke="#63b8ff" d="M957.65,-332.3C952.62,-331.12 947.62,-330.01 942.75,-329 837.43,-307.16 714.15,-289.83 636.99,-279.96"/>
<polygon fill="#63b8ff" stroke="#63b8ff" points="956.63,-335.66 967.18,-334.61 958.28,-328.86 956.63,-335.66"/>
</a>
</g>
</g>
<!-- Node138&#45;&gt;Node88 -->
<g id="edge35_Node000138_Node000088" class="edge">
<title>Node138&#45;&gt;Node88</title>
<g id="a_edge35_Node000138_Node000088"><a xlink:title=" ">
<path fill="none" stroke="#63b8ff" d="M1104.21,-332.22C1150.05,-320.96 1209.25,-306.32 1261.75,-293 1269.29,-291.09 1277.2,-289.06 1285.03,-287.04"/>
<polygon fill="#63b8ff" stroke="#63b8ff" points="1103.5,-328.79 1094.62,-334.57 1105.17,-335.59 1103.5,-328.79"/>
</a>
</g>
</g>
<!-- Node140&#45;&gt;Node128 -->
<g id="edge31_Node000140_Node000128" class="edge">
<title>Node140&#45;&gt;Node128</title>
<g id="a_edge31_Node000140_Node000128"><a xlink:title=" ">
<path fill="none" stroke="#63b8ff" d="M1146.73,-154.17C1152.44,-143.27 1158.55,-131.59 1163.31,-122.5"/>
<polygon fill="#63b8ff" stroke="#63b8ff" points="1143.69,-152.45 1142.15,-162.93 1149.89,-155.69 1143.69,-152.45"/>
</a>
</g>
</g>
<!-- Node143&#45;&gt;Node39 -->
<g id="edge37_Node000143_Node000039" class="edge">
<title>Node143&#45;&gt;Node39</title>
<g id="a_edge37_Node000143_Node000039"><a xlink:title=" ">
<path fill="none" stroke="#63b8ff" d="M1345.19,-84.38C1312.28,-72.94 1270.89,-58.57 1236.81,-46.73"/>
<polygon fill="#63b8ff" stroke="#63b8ff" points="1343.98,-87.66 1354.57,-87.64 1346.28,-81.05 1343.98,-87.66"/>
</a>
</g>
</g>
<!-- Node143&#45;&gt;Node42 -->
<g id="edge38_Node000143_Node000042" class="edge">
<title>Node143&#45;&gt;Node42</title>
<g id="a_edge38_Node000143_Node000042"><a xlink:title=" ">
<path fill="none" stroke="#63b8ff" d="M1387.59,-78.49C1381.6,-68.26 1374.78,-56.61 1368.99,-46.73"/>
<polygon fill="#63b8ff" stroke="#63b8ff" points="1384.4,-79.97 1392.47,-86.83 1390.44,-76.43 1384.4,-79.97"/>
</a>
</g>
</g>
<!-- Node143&#45;&gt;Node73 -->
<g id="edge39_Node000143_Node000073" class="edge">
<title>Node143&#45;&gt;Node73</title>
<g id="a_edge39_Node000143_Node000073"><a xlink:title=" ">
<path fill="none" stroke="#63b8ff" d="M1437.4,-81.95C1454.39,-70.96 1474.8,-57.74 1491.83,-46.73"/>
<polygon fill="#63b8ff" stroke="#63b8ff" points="1435.61,-78.94 1429.11,-87.31 1439.41,-84.82 1435.61,-78.94"/>
</a>
</g>
</g>
</g>
</svg>
