<?xml version="1.0" encoding="UTF-8" standalone="no"?>
<!DOCTYPE svg PUBLIC "-//W3C//DTD SVG 1.1//EN"
 "http://www.w3.org/Graphics/SVG/1.1/DTD/svg11.dtd">
<!-- Generated by graphviz version 12.2.1 (20241206.2353)
 -->
<!-- Title: CEveryNMillisDynamic::getTime Pages: 1 -->
<svg width="633pt" height="172pt"
 viewBox="0.00 0.00 633.00 171.50" xmlns="http://www.w3.org/2000/svg" xmlns:xlink="http://www.w3.org/1999/xlink">
<g id="graph0" class="graph" transform="scale(1 1) rotate(0) translate(4 167.5)">
<title>CEveryNMillisDynamic::getTime</title>
<!-- Node1 -->
<g id="Node000001" class="node">
<title>Node1</title>
<g id="a_Node000001"><a xlink:title=" ">
<polygon fill="#999999" stroke="#666666" points="625,-85.5 497.25,-85.5 497.25,-52 625,-52 625,-85.5"/>
<text text-anchor="start" x="505.25" y="-72" font-family="Helvetica,sans-Serif" font-size="10.00">CEveryNMillisDynamic</text>
<text text-anchor="middle" x="561.12" y="-59.25" font-family="Helvetica,sans-Serif" font-size="10.00">::getTime</text>
</a>
</g>
</g>
<!-- Node2 -->
<g id="Node000002" class="node">
<title>Node2</title>
<g id="a_Node000002"><a xlink:href="../../d5/df2/group___timekeeping.html#a753e6ba28827b47e9af63aca9a5b96d2" target="_top" xlink:title=" ">
<polygon fill="white" stroke="#666666" points="461.25,-137.5 333.5,-137.5 333.5,-104 461.25,-104 461.25,-137.5"/>
<text text-anchor="start" x="341.5" y="-124" font-family="Helvetica,sans-Serif" font-size="10.00">CEveryNMillisDynamic</text>
<text text-anchor="middle" x="397.38" y="-111.25" font-family="Helvetica,sans-Serif" font-size="10.00">::getElapsed</text>
</a>
</g>
</g>
<!-- Node1&#45;&gt;Node2 -->
<g id="edge1_Node000001_Node000002" class="edge">
<title>Node1&#45;&gt;Node2</title>
<g id="a_edge1_Node000001_Node000002"><a xlink:title=" ">
<path fill="none" stroke="#63b8ff" d="M495.79,-89.43C481.28,-94.1 466.03,-99 452.01,-103.51"/>
<polygon fill="#63b8ff" stroke="#63b8ff" points="496.82,-92.78 505.27,-86.38 494.68,-86.11 496.82,-92.78"/>
</a>
</g>
</g>
<!-- Node6 -->
<g id="Node000006" class="node">
<title>Node6</title>
<g id="a_Node000006"><a xlink:href="../../d5/df2/group___timekeeping.html#a993759a29aef7b9356f2861e6cb4faeb" target="_top" xlink:title=" ">
<polygon fill="white" stroke="#666666" points="461.25,-85.5 333.5,-85.5 333.5,-52 461.25,-52 461.25,-85.5"/>
<text text-anchor="start" x="341.5" y="-72" font-family="Helvetica,sans-Serif" font-size="10.00">CEveryNMillisDynamic</text>
<text text-anchor="middle" x="397.38" y="-59.25" font-family="Helvetica,sans-Serif" font-size="10.00">::reset</text>
</a>
</g>
</g>
<!-- Node1&#45;&gt;Node6 -->
<g id="edge5_Node000001_Node000006" class="edge">
<title>Node1&#45;&gt;Node6</title>
<g id="a_edge5_Node000001_Node000006"><a xlink:title=" ">
<path fill="none" stroke="#63b8ff" d="M485.83,-68.75C477.78,-68.75 469.64,-68.75 461.74,-68.75"/>
<polygon fill="#63b8ff" stroke="#63b8ff" points="485.61,-72.25 495.61,-68.75 485.61,-65.25 485.61,-72.25"/>
</a>
</g>
</g>
<!-- Node8 -->
<g id="Node000008" class="node">
<title>Node8</title>
<g id="a_Node000008"><a xlink:href="../../d5/df2/group___timekeeping.html#aa7fd8de7dd186ee5d3b4370882fb1ec2" target="_top" xlink:title=" ">
<polygon fill="white" stroke="#666666" points="461.25,-33.5 333.5,-33.5 333.5,0 461.25,0 461.25,-33.5"/>
<text text-anchor="start" x="341.5" y="-20" font-family="Helvetica,sans-Serif" font-size="10.00">CEveryNMillisDynamic</text>
<text text-anchor="middle" x="397.38" y="-7.25" font-family="Helvetica,sans-Serif" font-size="10.00">::trigger</text>
</a>
</g>
</g>
<!-- Node1&#45;&gt;Node8 -->
<g id="edge8_Node000001_Node000008" class="edge">
<title>Node1&#45;&gt;Node8</title>
<g id="a_edge8_Node000001_Node000008"><a xlink:title=" ">
<path fill="none" stroke="#63b8ff" d="M495.79,-48.07C481.28,-43.4 466.03,-38.5 452.01,-33.99"/>
<polygon fill="#63b8ff" stroke="#63b8ff" points="494.68,-51.39 505.27,-51.12 496.82,-44.72 494.68,-51.39"/>
</a>
</g>
</g>
<!-- Node3 -->
<g id="Node000003" class="node">
<title>Node3</title>
<g id="a_Node000003"><a xlink:href="../../d5/df2/group___timekeeping.html#a54e661ca75ee1894f21c9fe96e05cac6" target="_top" xlink:title=" ">
<polygon fill="white" stroke="#666666" points="294.5,-163.5 166.75,-163.5 166.75,-130 294.5,-130 294.5,-163.5"/>
<text text-anchor="start" x="174.75" y="-150" font-family="Helvetica,sans-Serif" font-size="10.00">CEveryNMillisDynamic</text>
<text text-anchor="middle" x="230.62" y="-137.25" font-family="Helvetica,sans-Serif" font-size="10.00">::getRemaining</text>
</a>
</g>
</g>
<!-- Node2&#45;&gt;Node3 -->
<g id="edge2_Node000002_Node000003" class="edge">
<title>Node2&#45;&gt;Node3</title>
<g id="a_edge2_Node000002_Node000003"><a xlink:title=" ">
<path fill="none" stroke="#63b8ff" d="M321.86,-132.51C312.88,-133.93 303.76,-135.37 294.95,-136.76"/>
<polygon fill="#63b8ff" stroke="#63b8ff" points="322.32,-135.98 331.65,-130.96 321.23,-129.07 322.32,-135.98"/>
</a>
</g>
</g>
<!-- Node4 -->
<g id="Node000004" class="node">
<title>Node4</title>
<g id="a_Node000004"><a xlink:href="../../d5/df2/group___timekeeping.html#adf560409fae3890034cc952aad0a7412" target="_top" xlink:title=" ">
<polygon fill="white" stroke="#666666" points="294.5,-111.5 166.75,-111.5 166.75,-78 294.5,-78 294.5,-111.5"/>
<text text-anchor="start" x="174.75" y="-98" font-family="Helvetica,sans-Serif" font-size="10.00">CEveryNMillisDynamic</text>
<text text-anchor="middle" x="230.62" y="-85.25" font-family="Helvetica,sans-Serif" font-size="10.00">::ready</text>
</a>
</g>
</g>
<!-- Node2&#45;&gt;Node4 -->
<g id="edge3_Node000002_Node000004" class="edge">
<title>Node2&#45;&gt;Node4</title>
<g id="a_edge3_Node000002_Node000004"><a xlink:title=" ">
<path fill="none" stroke="#63b8ff" d="M321.86,-108.99C312.88,-107.57 303.76,-106.13 294.95,-104.74"/>
<polygon fill="#63b8ff" stroke="#63b8ff" points="321.23,-112.43 331.65,-110.54 322.32,-105.52 321.23,-112.43"/>
</a>
</g>
</g>
<!-- Node5 -->
<g id="Node000005" class="node">
<title>Node5</title>
<g id="a_Node000005"><a xlink:href="../../d5/df2/group___timekeeping.html#a708e65baedb0e502df282ca8c682522b" target="_top" xlink:title=" ">
<polygon fill="white" stroke="#666666" points="127.75,-111.5 0,-111.5 0,-78 127.75,-78 127.75,-111.5"/>
<text text-anchor="start" x="8" y="-98" font-family="Helvetica,sans-Serif" font-size="10.00">CEveryNMillisDynamic</text>
<text text-anchor="middle" x="63.88" y="-85.25" font-family="Helvetica,sans-Serif" font-size="10.00">::operator bool</text>
</a>
</g>
</g>
<!-- Node4&#45;&gt;Node5 -->
<g id="edge4_Node000004_Node000005" class="edge">
<title>Node4&#45;&gt;Node5</title>
<g id="a_edge4_Node000004_Node000005"><a xlink:title=" ">
<path fill="none" stroke="#63b8ff" d="M155.11,-94.75C146.13,-94.75 137.01,-94.75 128.2,-94.75"/>
<polygon fill="#63b8ff" stroke="#63b8ff" points="154.89,-98.25 164.89,-94.75 154.89,-91.25 154.89,-98.25"/>
</a>
</g>
</g>
<!-- Node6&#45;&gt;Node4 -->
<g id="edge7_Node000006_Node000004" class="edge">
<title>Node6&#45;&gt;Node4</title>
<g id="a_edge7_Node000006_Node000004"><a xlink:title=" ">
<path fill="none" stroke="#63b8ff" d="M321.86,-80.51C312.88,-81.93 303.76,-83.37 294.95,-84.76"/>
<polygon fill="#63b8ff" stroke="#63b8ff" points="322.32,-83.98 331.65,-78.96 321.23,-77.07 322.32,-83.98"/>
</a>
</g>
</g>
<!-- Node7 -->
<g id="Node000007" class="node">
<title>Node7</title>
<g id="a_Node000007"><a xlink:href="../../d5/df2/group___timekeeping.html#a95ea23e4df044bec1fb0b8719dec5f5a" target="_top" xlink:title=" ">
<polygon fill="white" stroke="#666666" points="297.5,-59.5 163.75,-59.5 163.75,-26 297.5,-26 297.5,-59.5"/>
<text text-anchor="start" x="171.75" y="-46" font-family="Helvetica,sans-Serif" font-size="10.00">CEveryNMillisDynamic</text>
<text text-anchor="middle" x="230.62" y="-33.25" font-family="Helvetica,sans-Serif" font-size="10.00">::CEveryNMillisDynamic</text>
</a>
</g>
</g>
<!-- Node6&#45;&gt;Node7 -->
<g id="edge6_Node000006_Node000007" class="edge">
<title>Node6&#45;&gt;Node7</title>
<g id="a_edge6_Node000006_Node000007"><a xlink:title=" ">
<path fill="none" stroke="#63b8ff" d="M321.94,-57C313.95,-55.74 305.85,-54.46 297.96,-53.22"/>
<polygon fill="#63b8ff" stroke="#63b8ff" points="321.23,-60.43 331.65,-58.54 322.32,-53.52 321.23,-60.43"/>
</a>
</g>
</g>
</g>
</svg>
