<?xml version="1.0" encoding="UTF-8" standalone="no"?>
<!DOCTYPE svg PUBLIC "-//W3C//DTD SVG 1.1//EN"
 "http://www.w3.org/Graphics/SVG/1.1/DTD/svg11.dtd">
<!-- Generated by graphviz version 12.2.1 (20241206.2353)
 -->
<!-- Title: CEveryNTime::CEveryNTime Pages: 1 -->
<svg width="478pt" height="29pt"
 viewBox="0.00 0.00 478.25 28.75" xmlns="http://www.w3.org/2000/svg" xmlns:xlink="http://www.w3.org/1999/xlink">
<g id="graph0" class="graph" transform="scale(1 1) rotate(0) translate(4 24.75)">
<title>CEveryNTime::CEveryNTime</title>
<!-- Node1 -->
<g id="Node000001" class="node">
<title>Node1</title>
<g id="a_Node000001"><a xlink:title="Default constructor.">
<polygon fill="#999999" stroke="#666666" points="155.5,-20.75 0,-20.75 0,0 155.5,0 155.5,-20.75"/>
<text text-anchor="middle" x="77.75" y="-7.25" font-family="Helvetica,sans-Serif" font-size="10.00">CEveryNTime::CEveryNTime</text>
</a>
</g>
</g>
<!-- Node2 -->
<g id="Node000002" class="node">
<title>Node2</title>
<g id="a_Node000002"><a xlink:href="../../d5/df2/group___timekeeping.html#ae8ae82d26045e38ca51fbf424ad58d86" target="_top" xlink:title="Reset the timestamp to the current time.">
<polygon fill="white" stroke="#666666" points="305,-20.75 191.5,-20.75 191.5,0 305,0 305,-20.75"/>
<text text-anchor="middle" x="248.25" y="-7.25" font-family="Helvetica,sans-Serif" font-size="10.00">CEveryNTime::reset</text>
</a>
</g>
</g>
<!-- Node1&#45;&gt;Node2 -->
<g id="edge1_Node000001_Node000002" class="edge">
<title>Node1&#45;&gt;Node2</title>
<g id="a_edge1_Node000001_Node000002"><a xlink:title=" ">
<path fill="none" stroke="#63b8ff" d="M155.6,-10.38C163.65,-10.38 171.79,-10.38 179.72,-10.38"/>
<polygon fill="#63b8ff" stroke="#63b8ff" points="179.65,-13.88 189.65,-10.38 179.65,-6.88 179.65,-13.88"/>
</a>
</g>
</g>
<!-- Node3 -->
<g id="Node000003" class="node">
<title>Node3</title>
<g id="a_Node000003"><a xlink:href="../../d5/df2/group___timekeeping.html#a9e72ce7dcf1e5b321ec9fa61f6c4fbd5" target="_top" xlink:title="Get the current time according to the class&#39; timekeeper.">
<polygon fill="white" stroke="#666666" points="470.25,-20.75 341,-20.75 341,0 470.25,0 470.25,-20.75"/>
<text text-anchor="middle" x="405.62" y="-7.25" font-family="Helvetica,sans-Serif" font-size="10.00">CEveryNTime::getTime</text>
</a>
</g>
</g>
<!-- Node2&#45;&gt;Node3 -->
<g id="edge2_Node000002_Node000003" class="edge">
<title>Node2&#45;&gt;Node3</title>
<g id="a_edge2_Node000002_Node000003"><a xlink:title=" ">
<path fill="none" stroke="#63b8ff" d="M305.34,-10.38C313.14,-10.38 321.26,-10.38 329.34,-10.38"/>
<polygon fill="#63b8ff" stroke="#63b8ff" points="329.19,-13.88 339.19,-10.38 329.19,-6.88 329.19,-13.88"/>
</a>
</g>
</g>
</g>
</svg>
