<?xml version="1.0" encoding="UTF-8" standalone="no"?>
<!DOCTYPE svg PUBLIC "-//W3C//DTD SVG 1.1//EN"
 "http://www.w3.org/Graphics/SVG/1.1/DTD/svg11.dtd">
<!-- Generated by graphviz version 12.2.1 (20241206.2353)
 -->
<!-- Title: CEveryNMillisDynamic::operator bool Pages: 1 -->
<svg width="627pt" height="146pt"
 viewBox="0.00 0.00 627.00 145.50" xmlns="http://www.w3.org/2000/svg" xmlns:xlink="http://www.w3.org/1999/xlink">
<g id="graph0" class="graph" transform="scale(1 1) rotate(0) translate(4 141.5)">
<title>CEveryNMillisDynamic::operator bool</title>
<!-- Node1 -->
<g id="Node000001" class="node">
<title>Node1</title>
<g id="a_Node000001"><a xlink:title=" ">
<polygon fill="#999999" stroke="#666666" points="127.75,-85.5 0,-85.5 0,-52 127.75,-52 127.75,-85.5"/>
<text text-anchor="start" x="8" y="-72" font-family="Helvetica,sans-Serif" font-size="10.00">CEveryNMillisDynamic</text>
<text text-anchor="middle" x="63.88" y="-59.25" font-family="Helvetica,sans-Serif" font-size="10.00">::operator bool</text>
</a>
</g>
</g>
<!-- Node2 -->
<g id="Node000002" class="node">
<title>Node2</title>
<g id="a_Node000002"><a xlink:href="../../d5/df2/group___timekeeping.html#adf560409fae3890034cc952aad0a7412" target="_top" xlink:title=" ">
<polygon fill="white" stroke="#666666" points="291.5,-85.5 163.75,-85.5 163.75,-52 291.5,-52 291.5,-85.5"/>
<text text-anchor="start" x="171.75" y="-72" font-family="Helvetica,sans-Serif" font-size="10.00">CEveryNMillisDynamic</text>
<text text-anchor="middle" x="227.62" y="-59.25" font-family="Helvetica,sans-Serif" font-size="10.00">::ready</text>
</a>
</g>
</g>
<!-- Node1&#45;&gt;Node2 -->
<g id="edge1_Node000001_Node000002" class="edge">
<title>Node1&#45;&gt;Node2</title>
<g id="a_edge1_Node000001_Node000002"><a xlink:title=" ">
<path fill="none" stroke="#63b8ff" d="M127.87,-68.75C135.77,-68.75 143.91,-68.75 151.97,-68.75"/>
<polygon fill="#63b8ff" stroke="#63b8ff" points="151.75,-72.25 161.75,-68.75 151.75,-65.25 151.75,-72.25"/>
</a>
</g>
</g>
<!-- Node3 -->
<g id="Node000003" class="node">
<title>Node3</title>
<g id="a_Node000003"><a xlink:href="../../d5/df2/group___timekeeping.html#a753e6ba28827b47e9af63aca9a5b96d2" target="_top" xlink:title=" ">
<polygon fill="white" stroke="#666666" points="455.25,-137.5 327.5,-137.5 327.5,-104 455.25,-104 455.25,-137.5"/>
<text text-anchor="start" x="335.5" y="-124" font-family="Helvetica,sans-Serif" font-size="10.00">CEveryNMillisDynamic</text>
<text text-anchor="middle" x="391.38" y="-111.25" font-family="Helvetica,sans-Serif" font-size="10.00">::getElapsed</text>
</a>
</g>
</g>
<!-- Node2&#45;&gt;Node3 -->
<g id="edge2_Node000002_Node000003" class="edge">
<title>Node2&#45;&gt;Node3</title>
<g id="a_edge2_Node000002_Node000003"><a xlink:title=" ">
<path fill="none" stroke="#63b8ff" d="M282.04,-85.92C296.04,-90.42 311.29,-95.33 325.82,-100"/>
<polygon fill="#63b8ff" stroke="#63b8ff" points="324.71,-103.32 335.3,-103.05 326.85,-96.65 324.71,-103.32"/>
</a>
</g>
</g>
<!-- Node5 -->
<g id="Node000005" class="node">
<title>Node5</title>
<g id="a_Node000005"><a xlink:href="../../d5/df2/group___timekeeping.html#a3536277379733328861bd8319f2292ba" target="_top" xlink:title=" ">
<polygon fill="white" stroke="#666666" points="455.25,-85.5 327.5,-85.5 327.5,-52 455.25,-52 455.25,-85.5"/>
<text text-anchor="start" x="335.5" y="-72" font-family="Helvetica,sans-Serif" font-size="10.00">CEveryNMillisDynamic</text>
<text text-anchor="middle" x="391.38" y="-59.25" font-family="Helvetica,sans-Serif" font-size="10.00">::getPeriod</text>
</a>
</g>
</g>
<!-- Node2&#45;&gt;Node5 -->
<g id="edge4_Node000002_Node000005" class="edge">
<title>Node2&#45;&gt;Node5</title>
<g id="a_edge4_Node000002_Node000005"><a xlink:title=" ">
<path fill="none" stroke="#63b8ff" d="M291.62,-68.75C299.52,-68.75 307.66,-68.75 315.72,-68.75"/>
<polygon fill="#63b8ff" stroke="#63b8ff" points="315.5,-72.25 325.5,-68.75 315.5,-65.25 315.5,-72.25"/>
</a>
</g>
</g>
<!-- Node6 -->
<g id="Node000006" class="node">
<title>Node6</title>
<g id="a_Node000006"><a xlink:href="../../d5/df2/group___timekeeping.html#a993759a29aef7b9356f2861e6cb4faeb" target="_top" xlink:title=" ">
<polygon fill="white" stroke="#666666" points="455.25,-33.5 327.5,-33.5 327.5,0 455.25,0 455.25,-33.5"/>
<text text-anchor="start" x="335.5" y="-20" font-family="Helvetica,sans-Serif" font-size="10.00">CEveryNMillisDynamic</text>
<text text-anchor="middle" x="391.38" y="-7.25" font-family="Helvetica,sans-Serif" font-size="10.00">::reset</text>
</a>
</g>
</g>
<!-- Node2&#45;&gt;Node6 -->
<g id="edge5_Node000002_Node000006" class="edge">
<title>Node2&#45;&gt;Node6</title>
<g id="a_edge5_Node000002_Node000006"><a xlink:title=" ">
<path fill="none" stroke="#63b8ff" d="M282.04,-51.58C296.04,-47.08 311.29,-42.17 325.82,-37.5"/>
<polygon fill="#63b8ff" stroke="#63b8ff" points="326.85,-40.85 335.3,-34.45 324.71,-34.18 326.85,-40.85"/>
</a>
</g>
</g>
<!-- Node4 -->
<g id="Node000004" class="node">
<title>Node4</title>
<g id="a_Node000004"><a xlink:href="../../d5/df2/group___timekeeping.html#a4ee4031470f463a55b4160450aa58ae5" target="_top" xlink:title=" ">
<polygon fill="white" stroke="#666666" points="619,-85.5 491.25,-85.5 491.25,-52 619,-52 619,-85.5"/>
<text text-anchor="start" x="499.25" y="-72" font-family="Helvetica,sans-Serif" font-size="10.00">CEveryNMillisDynamic</text>
<text text-anchor="middle" x="555.12" y="-59.25" font-family="Helvetica,sans-Serif" font-size="10.00">::getTime</text>
</a>
</g>
</g>
<!-- Node3&#45;&gt;Node4 -->
<g id="edge3_Node000003_Node000004" class="edge">
<title>Node3&#45;&gt;Node4</title>
<g id="a_edge3_Node000003_Node000004"><a xlink:title=" ">
<path fill="none" stroke="#63b8ff" d="M445.79,-103.58C459.79,-99.08 475.04,-94.17 489.57,-89.5"/>
<polygon fill="#63b8ff" stroke="#63b8ff" points="490.6,-92.85 499.05,-86.45 488.46,-86.18 490.6,-92.85"/>
</a>
</g>
</g>
<!-- Node6&#45;&gt;Node4 -->
<g id="edge6_Node000006_Node000004" class="edge">
<title>Node6&#45;&gt;Node4</title>
<g id="a_edge6_Node000006_Node000004"><a xlink:title=" ">
<path fill="none" stroke="#63b8ff" d="M445.79,-33.92C459.79,-38.42 475.04,-43.33 489.57,-48"/>
<polygon fill="#63b8ff" stroke="#63b8ff" points="488.46,-51.32 499.05,-51.05 490.6,-44.65 488.46,-51.32"/>
</a>
</g>
</g>
</g>
</svg>
