<?xml version="1.0" encoding="UTF-8" standalone="no"?>
<!DOCTYPE svg PUBLIC "-//W3C//DTD SVG 1.1//EN"
 "http://www.w3.org/Graphics/SVG/1.1/DTD/svg11.dtd">
<!-- Generated by graphviz version 12.2.1 (20241206.2353)
 -->
<!-- Title: CEveryNTime::ready Pages: 1 -->
<svg width="469pt" height="68pt"
 viewBox="0.00 0.00 468.50 67.75" xmlns="http://www.w3.org/2000/svg" xmlns:xlink="http://www.w3.org/1999/xlink">
<g id="graph0" class="graph" transform="scale(1 1) rotate(0) translate(4 63.75)">
<title>CEveryNTime::ready</title>
<!-- Node1 -->
<g id="Node000001" class="node">
<title>Node1</title>
<g id="a_Node000001"><a xlink:title="Check if the time interval has elapsed.">
<polygon fill="#999999" stroke="#666666" points="116.5,-39.75 0,-39.75 0,-19 116.5,-19 116.5,-39.75"/>
<text text-anchor="middle" x="58.25" y="-26.25" font-family="Helvetica,sans-Serif" font-size="10.00">CEveryNTime::ready</text>
</a>
</g>
</g>
<!-- Node2 -->
<g id="Node000002" class="node">
<title>Node2</title>
<g id="a_Node000002"><a xlink:href="../../d5/df2/group___timekeeping.html#abf8af3755a0c9c8ac5d1f70eabef5c3b" target="_top" xlink:title="Get the time elapsed since the last trigger event.">
<polygon fill="white" stroke="#666666" points="295.25,-59.75 152.5,-59.75 152.5,-39 295.25,-39 295.25,-59.75"/>
<text text-anchor="middle" x="223.88" y="-46.25" font-family="Helvetica,sans-Serif" font-size="10.00">CEveryNTime::getElapsed</text>
</a>
</g>
</g>
<!-- Node1&#45;&gt;Node2 -->
<g id="edge1_Node000001_Node000002" class="edge">
<title>Node1&#45;&gt;Node2</title>
<g id="a_edge1_Node000001_Node000002"><a xlink:title=" ">
<path fill="none" stroke="#63b8ff" d="M116.94,-36.43C124.69,-37.37 132.76,-38.36 140.84,-39.35"/>
<polygon fill="#63b8ff" stroke="#63b8ff" points="140.37,-42.82 150.72,-40.56 141.22,-35.87 140.37,-42.82"/>
</a>
</g>
</g>
<!-- Node4 -->
<g id="Node000004" class="node">
<title>Node4</title>
<g id="a_Node000004"><a xlink:href="../../d5/df2/group___timekeeping.html#ae8ae82d26045e38ca51fbf424ad58d86" target="_top" xlink:title="Reset the timestamp to the current time.">
<polygon fill="white" stroke="#666666" points="280.62,-20.75 167.12,-20.75 167.12,0 280.62,0 280.62,-20.75"/>
<text text-anchor="middle" x="223.88" y="-7.25" font-family="Helvetica,sans-Serif" font-size="10.00">CEveryNTime::reset</text>
</a>
</g>
</g>
<!-- Node1&#45;&gt;Node4 -->
<g id="edge3_Node000001_Node000004" class="edge">
<title>Node1&#45;&gt;Node4</title>
<g id="a_edge3_Node000001_Node000004"><a xlink:title=" ">
<path fill="none" stroke="#63b8ff" d="M116.94,-22.68C129.46,-21.22 142.82,-19.67 155.67,-18.18"/>
<polygon fill="#63b8ff" stroke="#63b8ff" points="155.77,-21.69 165.3,-17.06 154.97,-14.74 155.77,-21.69"/>
</a>
</g>
</g>
<!-- Node3 -->
<g id="Node000003" class="node">
<title>Node3</title>
<g id="a_Node000003"><a xlink:href="../../d5/df2/group___timekeeping.html#a9e72ce7dcf1e5b321ec9fa61f6c4fbd5" target="_top" xlink:title="Get the current time according to the class&#39; timekeeper.">
<polygon fill="white" stroke="#666666" points="460.5,-39.75 331.25,-39.75 331.25,-19 460.5,-19 460.5,-39.75"/>
<text text-anchor="middle" x="395.88" y="-26.25" font-family="Helvetica,sans-Serif" font-size="10.00">CEveryNTime::getTime</text>
</a>
</g>
</g>
<!-- Node2&#45;&gt;Node3 -->
<g id="edge2_Node000002_Node000003" class="edge">
<title>Node2&#45;&gt;Node3</title>
<g id="a_edge2_Node000002_Node000003"><a xlink:title=" ">
<path fill="none" stroke="#63b8ff" d="M295.49,-41.07C303.49,-40.13 311.67,-39.16 319.72,-38.22"/>
<polygon fill="#63b8ff" stroke="#63b8ff" points="319.97,-41.71 329.49,-37.07 319.15,-34.76 319.97,-41.71"/>
</a>
</g>
</g>
<!-- Node4&#45;&gt;Node3 -->
<g id="edge4_Node000004_Node000003" class="edge">
<title>Node4&#45;&gt;Node3</title>
<g id="a_edge4_Node000004_Node000003"><a xlink:title=" ">
<path fill="none" stroke="#63b8ff" d="M281.01,-16.65C293.35,-18.03 306.62,-19.51 319.58,-20.96"/>
<polygon fill="#63b8ff" stroke="#63b8ff" points="319.02,-24.42 329.35,-22.05 319.8,-17.46 319.02,-24.42"/>
</a>
</g>
</g>
</g>
</svg>
