<?xml version="1.0" encoding="UTF-8" standalone="no"?>
<!DOCTYPE svg PUBLIC "-//W3C//DTD SVG 1.1//EN"
 "http://www.w3.org/Graphics/SVG/1.1/DTD/svg11.dtd">
<!-- Generated by graphviz version 12.2.1 (20241206.2353)
 -->
<!-- Title: CRGBArray&lt; SIZE &gt; Pages: 1 -->
<svg width="223pt" height="169pt"
 viewBox="0.00 0.00 222.50 168.75" xmlns="http://www.w3.org/2000/svg" xmlns:xlink="http://www.w3.org/1999/xlink">
<g id="graph0" class="graph" transform="scale(1 1) rotate(0) translate(4 164.75)">
<title>CRGBArray&lt; SIZE &gt;</title>
<!-- Node1 -->
<g id="Node000001" class="node">
<title>Node1</title>
<g id="a_Node000001"><a xlink:title="A version of CPixelView&lt;CRGB&gt; with an included array of CRGB LEDs.">
<polygon fill="#999999" stroke="#666666" points="114.25,-20.75 0,-20.75 0,0 114.25,0 114.25,-20.75"/>
<text text-anchor="middle" x="57.12" y="-7.25" font-family="Helvetica,sans-Serif" font-size="10.00">CRGBArray&lt; SIZE &gt;</text>
</a>
</g>
</g>
<!-- Node2 -->
<g id="Node000002" class="node">
<title>Node2</title>
<g id="a_Node000002"><a xlink:href="../../de/d64/group___pixel_set.html" target="_top" xlink:title=" ">
<polygon fill="white" stroke="#666666" points="200.25,-78.5 80,-78.5 80,-57.75 200.25,-57.75 200.25,-78.5"/>
<text text-anchor="middle" x="140.12" y="-65" font-family="Helvetica,sans-Serif" font-size="10.00">CPixelView&lt; CRGB &gt;</text>
</a>
</g>
</g>
<!-- Node2&#45;&gt;Node1 -->
<g id="edge1_Node000001_Node000002" class="edge">
<title>Node2&#45;&gt;Node1</title>
<g id="a_edge1_Node000001_Node000002"><a xlink:title=" ">
<path fill="none" stroke="#63b8ff" d="M116.37,-51.17C101.96,-41.49 84.03,-29.45 71.7,-21.16"/>
<polygon fill="#63b8ff" stroke="#63b8ff" points="114.16,-53.9 124.41,-56.57 118.06,-48.09 114.16,-53.9"/>
</a>
</g>
</g>
<!-- Node3 -->
<g id="Node000003" class="node">
<title>Node3</title>
<g id="a_Node000003"><a xlink:href="../../db/d87/group___pixel_types.html#d7/d82/struct_c_r_g_b" target="_top" xlink:title="Representation of an RGB pixel (Red, Green, Blue)">
<polygon fill="white" stroke="#666666" points="46,-160.75 2.25,-160.75 2.25,-140 46,-140 46,-160.75"/>
<text text-anchor="middle" x="24.12" y="-147.25" font-family="Helvetica,sans-Serif" font-size="10.00">CRGB</text>
</a>
</g>
</g>
<!-- Node3&#45;&gt;Node1 -->
<g id="edge4_Node000001_Node000003" class="edge">
<title>Node3&#45;&gt;Node1</title>
<g id="a_edge4_Node000001_Node000003"><a xlink:title=" ">
<path fill="none" stroke="#9a32cd" stroke-dasharray="5,2" d="M22.71,-128.35C22.07,-109.45 22.71,-81.15 29.88,-57.75 34.08,-44 43.09,-30.01 49.6,-21.05"/>
<polygon fill="#9a32cd" stroke="#9a32cd" points="19.21,-128.43 23.21,-138.24 26.2,-128.07 19.21,-128.43"/>
</a>
</g>
<text text-anchor="middle" x="50.5" y="-65" font-family="Helvetica,sans-Serif" font-size="10.00" fill="grey"> rawleds</text>
</g>
<!-- Node3&#45;&gt;Node2 -->
<g id="edge2_Node000002_Node000003" class="edge">
<title>Node3&#45;&gt;Node2</title>
<g id="a_edge2_Node000002_Node000003"><a xlink:title=" ">
<path fill="none" stroke="#9a32cd" stroke-dasharray="5,2" d="M44.7,-132.33C58.03,-121.58 75.95,-107.67 92.62,-96.5 101.96,-90.25 112.78,-83.95 121.73,-78.97"/>
<polygon fill="#9a32cd" stroke="#9a32cd" points="42.6,-129.52 37.06,-138.55 47.02,-134.95 42.6,-129.52"/>
</a>
</g>
<text text-anchor="middle" x="114.38" y="-112.5" font-family="Helvetica,sans-Serif" font-size="10.00" fill="grey"> end_pos</text>
<text text-anchor="middle" x="114.38" y="-99.75" font-family="Helvetica,sans-Serif" font-size="10.00" fill="grey">leds</text>
</g>
<!-- Node4 -->
<g id="Node000004" class="node">
<title>Node4</title>
<g id="a_Node000004"><a xlink:href="../../de/d64/group___pixel_set.html#db/df7/class_c_pixel_view" target="_top" xlink:title="Represents a set of LED objects.">
<polygon fill="white" stroke="#666666" points="214.5,-160.75 65.75,-160.75 65.75,-140 214.5,-140 214.5,-160.75"/>
<text text-anchor="middle" x="140.12" y="-147.25" font-family="Helvetica,sans-Serif" font-size="10.00">CPixelView&lt; PIXEL_TYPE &gt;</text>
</a>
</g>
</g>
<!-- Node4&#45;&gt;Node2 -->
<g id="edge3_Node000002_Node000004" class="edge">
<title>Node4&#45;&gt;Node2</title>
<g id="a_edge3_Node000002_Node000004"><a xlink:title=" ">
<path fill="none" stroke="orange" stroke-dasharray="5,2" d="M140.12,-128.49C140.12,-112.34 140.12,-90.74 140.12,-78.55"/>
<polygon fill="orange" stroke="orange" points="136.63,-128.02 140.13,-138.02 143.63,-128.02 136.63,-128.02"/>
</a>
</g>
<text text-anchor="middle" x="166.75" y="-106.12" font-family="Helvetica,sans-Serif" font-size="10.00" fill="grey"> &lt; CRGB &gt;</text>
</g>
</g>
</svg>
