<?xml version="1.0" encoding="UTF-8" standalone="no"?>
<!DOCTYPE svg PUBLIC "-//W3C//DTD SVG 1.1//EN"
 "http://www.w3.org/Graphics/SVG/1.1/DTD/svg11.dtd">
<!-- Generated by graphviz version 12.2.1 (20241206.2353)
 -->
<!-- Title: /home/runner/work/FastLED/FastLED/src/fx/video/frame_tracker.h Pages: 1 -->
<svg width="401pt" height="301pt"
 viewBox="0.00 0.00 401.38 301.00" xmlns="http://www.w3.org/2000/svg" xmlns:xlink="http://www.w3.org/1999/xlink">
<g id="graph0" class="graph" transform="scale(1 1) rotate(0) translate(4 297)">
<title>/home/runner/work/FastLED/FastLED/src/fx/video/frame_tracker.h</title>
<!-- Node1 -->
<g id="Node000001" class="node">
<title>Node1</title>
<g id="a_Node000001"><a xlink:title=" ">
<polygon fill="#999999" stroke="#666666" points="276.5,-293 127,-293 127,-246.75 276.5,-246.75 276.5,-293"/>
<text text-anchor="start" x="135" y="-279.5" font-family="Helvetica,sans-Serif" font-size="10.00">/home/runner/work/FastLED</text>
<text text-anchor="start" x="135" y="-266.75" font-family="Helvetica,sans-Serif" font-size="10.00">/FastLED/src/fx/video/frame</text>
<text text-anchor="middle" x="201.75" y="-254" font-family="Helvetica,sans-Serif" font-size="10.00">_tracker.h</text>
</a>
</g>
</g>
<!-- Node2 -->
<g id="Node000002" class="node">
<title>Node2</title>
<g id="a_Node000002"><a xlink:href="../../d3/dda/frame__interpolator_8h.html" target="_top" xlink:title=" ">
<polygon fill="white" stroke="#666666" points="192.5,-210.75 43,-210.75 43,-164.5 192.5,-164.5 192.5,-210.75"/>
<text text-anchor="start" x="51" y="-197.25" font-family="Helvetica,sans-Serif" font-size="10.00">/home/runner/work/FastLED</text>
<text text-anchor="start" x="51" y="-184.5" font-family="Helvetica,sans-Serif" font-size="10.00">/FastLED/src/fx/video/frame</text>
<text text-anchor="middle" x="117.75" y="-171.75" font-family="Helvetica,sans-Serif" font-size="10.00">_interpolator.h</text>
</a>
</g>
</g>
<!-- Node1&#45;&gt;Node2 -->
<g id="edge1_Node000001_Node000002" class="edge">
<title>Node1&#45;&gt;Node2</title>
<g id="a_edge1_Node000001_Node000002"><a xlink:title=" ">
<path fill="none" stroke="#63b8ff" d="M170.19,-238.72C160.62,-229.58 150.27,-219.69 141.31,-211.14"/>
<polygon fill="#63b8ff" stroke="#63b8ff" points="167.61,-241.1 177.26,-245.48 172.44,-236.04 167.61,-241.1"/>
</a>
</g>
</g>
<!-- Node7 -->
<g id="Node000007" class="node">
<title>Node7</title>
<g id="a_Node000007"><a xlink:href="../../d9/def/frame__tracker_8cpp.html" target="_top" xlink:title=" ">
<polygon fill="white" stroke="#666666" points="360.5,-210.75 211,-210.75 211,-164.5 360.5,-164.5 360.5,-210.75"/>
<text text-anchor="start" x="219" y="-197.25" font-family="Helvetica,sans-Serif" font-size="10.00">/home/runner/work/FastLED</text>
<text text-anchor="start" x="219" y="-184.5" font-family="Helvetica,sans-Serif" font-size="10.00">/FastLED/src/fx/video/frame</text>
<text text-anchor="middle" x="285.75" y="-171.75" font-family="Helvetica,sans-Serif" font-size="10.00">_tracker.cpp</text>
</a>
</g>
</g>
<!-- Node1&#45;&gt;Node7 -->
<g id="edge7_Node000001_Node000007" class="edge">
<title>Node1&#45;&gt;Node7</title>
<g id="a_edge7_Node000001_Node000007"><a xlink:title=" ">
<path fill="none" stroke="#63b8ff" d="M233.31,-238.72C242.88,-229.58 253.23,-219.69 262.19,-211.14"/>
<polygon fill="#63b8ff" stroke="#63b8ff" points="231.06,-236.04 226.24,-245.48 235.89,-241.1 231.06,-236.04"/>
</a>
</g>
</g>
<!-- Node3 -->
<g id="Node000003" class="node">
<title>Node3</title>
<g id="a_Node000003"><a xlink:href="../../d0/d05/video_8cpp.html" target="_top" xlink:title=" ">
<polygon fill="white" stroke="#666666" points="149.5,-39.88 0,-39.88 0,-6.38 149.5,-6.38 149.5,-39.88"/>
<text text-anchor="start" x="8" y="-26.38" font-family="Helvetica,sans-Serif" font-size="10.00">/home/runner/work/FastLED</text>
<text text-anchor="middle" x="74.75" y="-13.62" font-family="Helvetica,sans-Serif" font-size="10.00">/FastLED/src/fx/video.cpp</text>
</a>
</g>
</g>
<!-- Node2&#45;&gt;Node3 -->
<g id="edge2_Node000002_Node000003" class="edge">
<title>Node2&#45;&gt;Node3</title>
<g id="a_edge2_Node000002_Node000003"><a xlink:title=" ">
<path fill="none" stroke="#63b8ff" d="M59.76,-157.72C49.3,-149.75 39.8,-140.04 33.75,-128.5 24.21,-110.29 27.53,-101.84 33.75,-82.25 38.83,-66.24 50.08,-50.84 59.52,-39.91"/>
<polygon fill="#63b8ff" stroke="#63b8ff" points="57.71,-160.55 67.91,-163.41 61.72,-154.81 57.71,-160.55"/>
</a>
</g>
</g>
<!-- Node4 -->
<g id="Node000004" class="node">
<title>Node4</title>
<g id="a_Node000004"><a xlink:href="../../d5/da4/frame__interpolator_8cpp.html" target="_top" xlink:title=" ">
<polygon fill="white" stroke="#666666" points="192.5,-128.5 43,-128.5 43,-82.25 192.5,-82.25 192.5,-128.5"/>
<text text-anchor="start" x="51" y="-115" font-family="Helvetica,sans-Serif" font-size="10.00">/home/runner/work/FastLED</text>
<text text-anchor="start" x="51" y="-102.25" font-family="Helvetica,sans-Serif" font-size="10.00">/FastLED/src/fx/video/frame</text>
<text text-anchor="middle" x="117.75" y="-89.5" font-family="Helvetica,sans-Serif" font-size="10.00">_interpolator.cpp</text>
</a>
</g>
</g>
<!-- Node2&#45;&gt;Node4 -->
<g id="edge3_Node000002_Node000004" class="edge">
<title>Node2&#45;&gt;Node4</title>
<g id="a_edge3_Node000002_Node000004"><a xlink:title=" ">
<path fill="none" stroke="#63b8ff" d="M117.75,-152.84C117.75,-144.75 117.75,-136.32 117.75,-128.89"/>
<polygon fill="#63b8ff" stroke="#63b8ff" points="114.25,-152.76 117.75,-162.76 121.25,-152.76 114.25,-152.76"/>
</a>
</g>
</g>
<!-- Node5 -->
<g id="Node000005" class="node">
<title>Node5</title>
<g id="a_Node000005"><a xlink:href="../../d5/d82/video__impl_8h.html" target="_top" xlink:title=" ">
<polygon fill="white" stroke="#666666" points="393.38,-122.12 210.12,-122.12 210.12,-88.62 393.38,-88.62 393.38,-122.12"/>
<text text-anchor="start" x="218.12" y="-108.62" font-family="Helvetica,sans-Serif" font-size="10.00">/home/runner/work/FastLED</text>
<text text-anchor="middle" x="301.75" y="-95.88" font-family="Helvetica,sans-Serif" font-size="10.00">/FastLED/src/fx/video/video_impl.h</text>
</a>
</g>
</g>
<!-- Node2&#45;&gt;Node5 -->
<g id="edge4_Node000002_Node000005" class="edge">
<title>Node2&#45;&gt;Node5</title>
<g id="a_edge4_Node000002_Node000005"><a xlink:title=" ">
<path fill="none" stroke="#63b8ff" d="M180.04,-159.46C208.16,-147.19 240.43,-133.12 264.67,-122.55"/>
<polygon fill="#63b8ff" stroke="#63b8ff" points="178.65,-156.25 170.88,-163.45 181.45,-162.66 178.65,-156.25"/>
</a>
</g>
</g>
<!-- Node5&#45;&gt;Node3 -->
<g id="edge5_Node000005_Node000003" class="edge">
<title>Node5&#45;&gt;Node3</title>
<g id="a_edge5_Node000005_Node000003"><a xlink:title=" ">
<path fill="none" stroke="#63b8ff" d="M245.3,-84.42C206.85,-70.83 156.6,-53.06 120.62,-40.34"/>
<polygon fill="#63b8ff" stroke="#63b8ff" points="243.79,-87.6 254.39,-87.63 246.12,-81 243.79,-87.6"/>
</a>
</g>
</g>
<!-- Node6 -->
<g id="Node000006" class="node">
<title>Node6</title>
<g id="a_Node000006"><a xlink:href="../../d0/d7f/video__impl_8cpp.html" target="_top" xlink:title=" ">
<polygon fill="white" stroke="#666666" points="376.5,-46.25 227,-46.25 227,0 376.5,0 376.5,-46.25"/>
<text text-anchor="start" x="235" y="-32.75" font-family="Helvetica,sans-Serif" font-size="10.00">/home/runner/work/FastLED</text>
<text text-anchor="start" x="235" y="-20" font-family="Helvetica,sans-Serif" font-size="10.00">/FastLED/src/fx/video/video</text>
<text text-anchor="middle" x="301.75" y="-7.25" font-family="Helvetica,sans-Serif" font-size="10.00">_impl.cpp</text>
</a>
</g>
</g>
<!-- Node5&#45;&gt;Node6 -->
<g id="edge6_Node000005_Node000006" class="edge">
<title>Node5&#45;&gt;Node6</title>
<g id="a_edge6_Node000005_Node000006"><a xlink:title=" ">
<path fill="none" stroke="#63b8ff" d="M301.75,-76.89C301.75,-67.05 301.75,-56.1 301.75,-46.73"/>
<polygon fill="#63b8ff" stroke="#63b8ff" points="298.25,-76.62 301.75,-86.62 305.25,-76.62 298.25,-76.62"/>
</a>
</g>
</g>
</g>
</svg>
