<?xml version="1.0" encoding="UTF-8" standalone="no"?>
<!DOCTYPE svg PUBLIC "-//W3C//DTD SVG 1.1//EN"
 "http://www.w3.org/Graphics/SVG/1.1/DTD/svg11.dtd">
<!-- Generated by graphviz version 12.2.1 (20241206.2353)
 -->
<!-- Title: PixelController&lt; RGB_ORDER, LANES, MASK &gt; Pages: 1 -->
<svg width="172pt" height="181pt"
 viewBox="0.00 0.00 172.38 180.50" xmlns="http://www.w3.org/2000/svg" xmlns:xlink="http://www.w3.org/1999/xlink">
<g id="graph0" class="graph" transform="scale(1 1) rotate(0) translate(4 176.5)">
<title>PixelController&lt; RGB_ORDER, LANES, MASK &gt;</title>
<!-- Node1 -->
<g id="Node000001" class="node">
<title>Node1</title>
<g id="a_Node000001"><a xlink:title="Pixel controller class.">
<polygon fill="#999999" stroke="#666666" points="139.75,-33.5 0,-33.5 0,0 139.75,0 139.75,-33.5"/>
<text text-anchor="start" x="8" y="-20" font-family="Helvetica,sans-Serif" font-size="10.00">PixelController&lt; RGB</text>
<text text-anchor="middle" x="69.88" y="-7.25" font-family="Helvetica,sans-Serif" font-size="10.00">_ORDER, LANES, MASK &gt;</text>
</a>
</g>
</g>
<!-- Node2 -->
<g id="Node000002" class="node">
<title>Node2</title>
<g id="a_Node000002"><a xlink:href="../../d5/d4d/pixel__controller_8h.html#d4/d7d/struct_color_adjustment" target="_top" xlink:title=" ">
<polygon fill="white" stroke="#666666" points="118.75,-103 21,-103 21,-82.25 118.75,-82.25 118.75,-103"/>
<text text-anchor="middle" x="69.88" y="-89.5" font-family="Helvetica,sans-Serif" font-size="10.00">ColorAdjustment</text>
</a>
</g>
</g>
<!-- Node2&#45;&gt;Node1 -->
<g id="edge1_Node000001_Node000002" class="edge">
<title>Node2&#45;&gt;Node1</title>
<g id="a_edge1_Node000001_Node000002"><a xlink:title=" ">
<path fill="none" stroke="#9a32cd" stroke-dasharray="5,2" d="M69.88,-70.63C69.88,-58.97 69.88,-44.69 69.88,-33.91"/>
<polygon fill="#9a32cd" stroke="#9a32cd" points="66.38,-70.45 69.88,-80.45 73.38,-70.45 66.38,-70.45"/>
</a>
</g>
<text text-anchor="middle" x="117.12" y="-54.75" font-family="Helvetica,sans-Serif" font-size="10.00" fill="grey"> mColorAdjustment</text>
</g>
<!-- Node3 -->
<g id="Node000003" class="node">
<title>Node3</title>
<g id="a_Node000003"><a xlink:href="../../db/d87/group___pixel_types.html#d7/d82/struct_c_r_g_b" target="_top" xlink:title="Representation of an RGB pixel (Red, Green, Blue)">
<polygon fill="white" stroke="#666666" points="91.75,-172.5 48,-172.5 48,-151.75 91.75,-151.75 91.75,-172.5"/>
<text text-anchor="middle" x="69.88" y="-159" font-family="Helvetica,sans-Serif" font-size="10.00">CRGB</text>
</a>
</g>
</g>
<!-- Node3&#45;&gt;Node2 -->
<g id="edge2_Node000002_Node000003" class="edge">
<title>Node3&#45;&gt;Node2</title>
<g id="a_edge2_Node000002_Node000003"><a xlink:title=" ">
<path fill="none" stroke="#9a32cd" stroke-dasharray="5,2" d="M69.88,-140.32C69.88,-127.97 69.88,-112.9 69.88,-103.28"/>
<polygon fill="#9a32cd" stroke="#9a32cd" points="66.38,-139.94 69.88,-149.94 73.38,-139.94 66.38,-139.94"/>
</a>
</g>
<text text-anchor="middle" x="94.25" y="-124.25" font-family="Helvetica,sans-Serif" font-size="10.00" fill="grey"> premixed</text>
</g>
</g>
</svg>
