<?xml version="1.0" encoding="UTF-8" standalone="no"?>
<!DOCTYPE svg PUBLIC "-//W3C//DTD SVG 1.1//EN"
 "http://www.w3.org/Graphics/SVG/1.1/DTD/svg11.dtd">
<!-- Generated by graphviz version 12.2.1 (20241206.2353)
 -->
<!-- Title: CountingButton Pages: 1 -->
<svg width="196pt" height="98pt"
 viewBox="0.00 0.00 196.00 98.25" xmlns="http://www.w3.org/2000/svg" xmlns:xlink="http://www.w3.org/1999/xlink">
<g id="graph0" class="graph" transform="scale(1 1) rotate(0) translate(4 94.25)">
<title>CountingButton</title>
<!-- Node1 -->
<g id="Node000001" class="node">
<title>Node1</title>
<g id="a_Node000001"><a xlink:title=" ">
<polygon fill="#999999" stroke="#666666" points="146.5,-20.75 54.75,-20.75 54.75,0 146.5,0 146.5,-20.75"/>
<text text-anchor="middle" x="100.62" y="-7.25" font-family="Helvetica,sans-Serif" font-size="10.00">CountingButton</text>
</a>
</g>
</g>
<!-- Node2 -->
<g id="Node000002" class="node">
<title>Node2</title>
<g id="a_Node000002"><a xlink:href="../../d0/ddf/class_midi_shield_button.html" target="_top" xlink:title=" ">
<polygon fill="white" stroke="#666666" points="99.25,-90.25 0,-90.25 0,-69.5 99.25,-69.5 99.25,-90.25"/>
<text text-anchor="middle" x="49.62" y="-76.75" font-family="Helvetica,sans-Serif" font-size="10.00">MidiShieldButton</text>
</a>
</g>
</g>
<!-- Node2&#45;&gt;Node1 -->
<g id="edge1_Node000001_Node000002" class="edge">
<title>Node2&#45;&gt;Node1</title>
<g id="a_edge1_Node000001_Node000002"><a xlink:title=" ">
<path fill="none" stroke="#9a32cd" stroke-dasharray="5,2" d="M63.62,-60.35C73.24,-47.62 85.61,-31.25 93.33,-21.03"/>
<polygon fill="#9a32cd" stroke="#9a32cd" points="61.08,-57.91 57.84,-68 66.67,-62.13 61.08,-57.91"/>
</a>
</g>
<text text-anchor="middle" x="99.57" y="-42" font-family="Helvetica,sans-Serif" font-size="10.00" fill="grey"> button_</text>
</g>
<!-- Node3 -->
<g id="Node000003" class="node">
<title>Node3</title>
<g id="a_Node000003"><a xlink:href="../../d3/d1d/classfl_1_1_u_i_button.html" target="_top" xlink:title=" ">
<polygon fill="white" stroke="#666666" points="188,-90.25 117.25,-90.25 117.25,-69.5 188,-69.5 188,-90.25"/>
<text text-anchor="middle" x="152.62" y="-76.75" font-family="Helvetica,sans-Serif" font-size="10.00">fl::UIButton</text>
</a>
</g>
</g>
<!-- Node3&#45;&gt;Node1 -->
<g id="edge2_Node000001_Node000003" class="edge">
<title>Node3&#45;&gt;Node1</title>
<g id="a_edge2_Node000001_Node000003"><a xlink:title=" ">
<path fill="none" stroke="#9a32cd" stroke-dasharray="5,2" d="M139.44,-60.04C134.58,-53.25 128.95,-45.58 123.62,-38.75 118.97,-32.78 113.53,-26.28 109.11,-21.12"/>
<polygon fill="#9a32cd" stroke="#9a32cd" points="136.39,-61.79 145.03,-67.93 142.11,-57.74 136.39,-61.79"/>
</a>
</g>
<text text-anchor="middle" x="155.15" y="-42" font-family="Helvetica,sans-Serif" font-size="10.00" fill="grey"> mButton</text>
</g>
</g>
</svg>
