<?xml version="1.0" encoding="UTF-8" standalone="no"?>
<!DOCTYPE svg PUBLIC "-//W3C//DTD SVG 1.1//EN"
 "http://www.w3.org/Graphics/SVG/1.1/DTD/svg11.dtd">
<!-- Generated by graphviz version 12.2.1 (20241206.2353)
 -->
<!-- Title: /home/runner/work/FastLED/FastLED/src/fl/warn.h Pages: 1 -->
<svg width="158pt" height="212pt"
 viewBox="0.00 0.00 157.50 211.75" xmlns="http://www.w3.org/2000/svg" xmlns:xlink="http://www.w3.org/1999/xlink">
<g id="graph0" class="graph" transform="scale(1 1) rotate(0) translate(4 207.75)">
<title>/home/runner/work/FastLED/FastLED/src/fl/warn.h</title>
<!-- Node1 -->
<g id="Node000001" class="node">
<title>Node1</title>
<g id="a_Node000001"><a xlink:title=" ">
<polygon fill="#999999" stroke="#666666" points="149.5,-203.75 0,-203.75 0,-170.25 149.5,-170.25 149.5,-203.75"/>
<text text-anchor="start" x="8" y="-190.25" font-family="Helvetica,sans-Serif" font-size="10.00">/home/runner/work/FastLED</text>
<text text-anchor="middle" x="74.75" y="-177.5" font-family="Helvetica,sans-Serif" font-size="10.00">/FastLED/src/fl/warn.h</text>
</a>
</g>
</g>
<!-- Node2 -->
<g id="Node000002" class="node">
<title>Node2</title>
<g id="a_Node000002"><a xlink:href="../../d6/d01/dbg_8h.html" target="_top" xlink:title=" ">
<polygon fill="white" stroke="#666666" points="100.75,-134.25 48.75,-134.25 48.75,-113.5 100.75,-113.5 100.75,-134.25"/>
<text text-anchor="middle" x="74.75" y="-120.75" font-family="Helvetica,sans-Serif" font-size="10.00">fl/dbg.h</text>
</a>
</g>
</g>
<!-- Node1&#45;&gt;Node2 -->
<g id="edge1_Node000001_Node000002" class="edge">
<title>Node1&#45;&gt;Node2</title>
<g id="a_edge1_Node000001_Node000002"><a xlink:title=" ">
<path fill="none" stroke="#63b8ff" d="M74.75,-169.94C74.75,-162.6 74.75,-153.82 74.75,-145.96"/>
<polygon fill="#63b8ff" stroke="#63b8ff" points="78.25,-146.23 74.75,-136.23 71.25,-146.23 78.25,-146.23"/>
</a>
</g>
</g>
<!-- Node3 -->
<g id="Node000003" class="node">
<title>Node3</title>
<g id="a_Node000003"><a xlink:href="../../d8/d00/strstream_8h.html" target="_top" xlink:title=" ">
<polygon fill="white" stroke="#666666" points="115.38,-77.5 34.12,-77.5 34.12,-56.75 115.38,-56.75 115.38,-77.5"/>
<text text-anchor="middle" x="74.75" y="-64" font-family="Helvetica,sans-Serif" font-size="10.00">fl/strstream.h</text>
</a>
</g>
</g>
<!-- Node2&#45;&gt;Node3 -->
<g id="edge2_Node000002_Node000003" class="edge">
<title>Node2&#45;&gt;Node3</title>
<g id="a_edge2_Node000002_Node000003"><a xlink:title=" ">
<path fill="none" stroke="#63b8ff" d="M74.75,-113.09C74.75,-106.47 74.75,-97.47 74.75,-89.27"/>
<polygon fill="#63b8ff" stroke="#63b8ff" points="78.25,-89.34 74.75,-79.34 71.25,-89.34 78.25,-89.34"/>
</a>
</g>
</g>
<!-- Node4 -->
<g id="Node000004" class="node">
<title>Node4</title>
<g id="a_Node000004"><a xlink:href="../../db/dd1/crgb_8h.html" target="_top" xlink:title="Defines the red, green, and blue (RGB) pixel struct.">
<polygon fill="#fff0f0" stroke="red" points="67.75,-20.75 21.75,-20.75 21.75,0 67.75,0 67.75,-20.75"/>
<text text-anchor="middle" x="44.75" y="-7.25" font-family="Helvetica,sans-Serif" font-size="10.00">crgb.h</text>
</a>
</g>
</g>
<!-- Node3&#45;&gt;Node4 -->
<g id="edge3_Node000003_Node000004" class="edge">
<title>Node3&#45;&gt;Node4</title>
<g id="a_edge3_Node000003_Node000004"><a xlink:title=" ">
<path fill="none" stroke="#63b8ff" d="M69.39,-56.34C65.55,-49.33 60.25,-39.66 55.55,-31.08"/>
<polygon fill="#63b8ff" stroke="#63b8ff" points="58.67,-29.49 50.79,-22.41 52.53,-32.86 58.67,-29.49"/>
</a>
</g>
</g>
<!-- Node12 -->
<g id="Node000012" class="node">
<title>Node12</title>
<g id="a_Node000012"><a xlink:href="../../dc/d0e/fl_2str_8h.html" target="_top" xlink:title=" ">
<polygon fill="#fff0f0" stroke="red" points="123.25,-20.75 86.25,-20.75 86.25,0 123.25,0 123.25,-20.75"/>
<text text-anchor="middle" x="104.75" y="-7.25" font-family="Helvetica,sans-Serif" font-size="10.00">str.h</text>
</a>
</g>
</g>
<!-- Node3&#45;&gt;Node12 -->
<g id="edge4_Node000003_Node000012" class="edge">
<title>Node3&#45;&gt;Node12</title>
<g id="a_edge4_Node000003_Node000012"><a xlink:title=" ">
<path fill="none" stroke="#63b8ff" d="M80.11,-56.34C83.95,-49.33 89.25,-39.66 93.95,-31.08"/>
<polygon fill="#63b8ff" stroke="#63b8ff" points="96.97,-32.86 98.71,-22.41 90.83,-29.49 96.97,-32.86"/>
</a>
</g>
</g>
</g>
</svg>
