<?xml version="1.0" encoding="UTF-8" standalone="no"?>
<!DOCTYPE svg PUBLIC "-//W3C//DTD SVG 1.1//EN"
 "http://www.w3.org/Graphics/SVG/1.1/DTD/svg11.dtd">
<!-- Generated by graphviz version 12.2.1 (20241206.2353)
 -->
<!-- Title: fl::PtrTraits&lt; T &gt; Pages: 1 -->
<svg width="649pt" height="184pt"
 viewBox="0.00 0.00 648.50 183.50" xmlns="http://www.w3.org/2000/svg" xmlns:xlink="http://www.w3.org/1999/xlink">
<g id="graph0" class="graph" transform="scale(1 1) rotate(0) translate(4 179.5)">
<title>fl::PtrTraits&lt; T &gt;</title>
<!-- Node1 -->
<g id="Node000001" class="node">
<title>Node1</title>
<g id="a_Node000001"><a xlink:title=" ">
<polygon fill="#999999" stroke="#666666" points="96.25,-91.12 0,-91.12 0,-70.38 96.25,-70.38 96.25,-91.12"/>
<text text-anchor="middle" x="48.12" y="-77.62" font-family="Helvetica,sans-Serif" font-size="10.00">fl::PtrTraits&lt; T &gt;</text>
</a>
</g>
</g>
<!-- Node2 -->
<g id="Node000002" class="node">
<title>Node2</title>
<g id="a_Node000002"><a xlink:href="../../d1/d56/classfl_1_1_ptr.html" target="_top" xlink:title=" ">
<polygon fill="white" stroke="#666666" points="330.88,-114.12 260.88,-114.12 260.88,-93.38 330.88,-93.38 330.88,-114.12"/>
<text text-anchor="middle" x="295.88" y="-100.62" font-family="Helvetica,sans-Serif" font-size="10.00">fl::Ptr&lt; T &gt;</text>
</a>
</g>
</g>
<!-- Node1&#45;&gt;Node2 -->
<g id="edge1_Node000001_Node000002" class="edge">
<title>Node1&#45;&gt;Node2</title>
<g id="a_edge1_Node000001_Node000002"><a xlink:title=" ">
<path fill="none" stroke="#63b8ff" d="M107.92,-86.25C155.62,-90.72 221.22,-96.86 260.69,-100.55"/>
<polygon fill="#63b8ff" stroke="#63b8ff" points="108.3,-82.77 98.02,-85.33 107.65,-89.74 108.3,-82.77"/>
</a>
</g>
</g>
<!-- Node6 -->
<g id="Node000006" class="node">
<title>Node6</title>
<g id="a_Node000006"><a xlink:href="../../da/d84/classfl_1_1_ptr_traits.html" target="_top" xlink:title=" ">
<polygon fill="white" stroke="#666666" points="341.38,-175.5 250.38,-175.5 250.38,-142 341.38,-142 341.38,-175.5"/>
<text text-anchor="start" x="258.38" y="-162" font-family="Helvetica,sans-Serif" font-size="10.00">fl::PtrTraits&lt; fl::</text>
<text text-anchor="middle" x="295.88" y="-149.25" font-family="Helvetica,sans-Serif" font-size="10.00">Frame &gt;</text>
</a>
</g>
</g>
<!-- Node1&#45;&gt;Node6 -->
<g id="edge5_Node000001_Node000006" class="edge">
<title>Node1&#45;&gt;Node6</title>
<g id="a_edge5_Node000001_Node000006"><a xlink:title=" ">
<path fill="none" stroke="orange" stroke-dasharray="5,2" d="M86.5,-95.69C95.54,-99.14 105.2,-102.69 114.25,-105.75 160.07,-121.24 213.28,-136.53 250.02,-146.68"/>
<polygon fill="orange" stroke="orange" points="87.88,-92.47 77.29,-92.13 85.35,-99 87.88,-92.47"/>
</a>
</g>
<text text-anchor="middle" x="167.5" y="-140.55" font-family="Helvetica,sans-Serif" font-size="10.00" fill="grey"> &lt; fl::Frame &gt;</text>
</g>
<!-- Node7 -->
<g id="Node000007" class="node">
<title>Node7</title>
<g id="a_Node000007"><a xlink:href="../../da/d84/classfl_1_1_ptr_traits.html" target="_top" xlink:title=" ">
<polygon fill="white" stroke="#666666" points="353,-74.12 238.75,-74.12 238.75,-53.38 353,-53.38 353,-74.12"/>
<text text-anchor="middle" x="295.88" y="-60.62" font-family="Helvetica,sans-Serif" font-size="10.00">fl::PtrTraits&lt; fl::Fx &gt;</text>
</a>
</g>
</g>
<!-- Node1&#45;&gt;Node7 -->
<g id="edge7_Node000001_Node000007" class="edge">
<title>Node1&#45;&gt;Node7</title>
<g id="a_edge7_Node000001_Node000007"><a xlink:title=" ">
<path fill="none" stroke="orange" stroke-dasharray="5,2" d="M108.05,-73.56C110.14,-73.36 112.21,-73.17 114.25,-73 155.7,-69.48 202.63,-67.12 238.27,-65.67"/>
<polygon fill="orange" stroke="orange" points="107.85,-70.06 98.25,-74.55 108.56,-77.02 107.85,-70.06"/>
</a>
</g>
<text text-anchor="middle" x="167.5" y="-76.25" font-family="Helvetica,sans-Serif" font-size="10.00" fill="grey"> &lt; fl::Fx &gt;</text>
</g>
<!-- Node8 -->
<g id="Node000008" class="node">
<title>Node8</title>
<g id="a_Node000008"><a xlink:href="../../da/d84/classfl_1_1_ptr_traits.html" target="_top" xlink:title=" ">
<polygon fill="white" stroke="#666666" points="344,-33.5 247.75,-33.5 247.75,0 344,0 344,-33.5"/>
<text text-anchor="start" x="255.75" y="-20" font-family="Helvetica,sans-Serif" font-size="10.00">fl::PtrTraits&lt; fl::</text>
<text text-anchor="middle" x="295.88" y="-7.25" font-family="Helvetica,sans-Serif" font-size="10.00">WeakReferent &gt;</text>
</a>
</g>
</g>
<!-- Node1&#45;&gt;Node8 -->
<g id="edge9_Node000001_Node000008" class="edge">
<title>Node1&#45;&gt;Node8</title>
<g id="a_edge9_Node000001_Node000008"><a xlink:title=" ">
<path fill="none" stroke="orange" stroke-dasharray="5,2" d="M78.78,-64.76C89.68,-59.42 102.29,-53.85 114.25,-50 158.26,-35.83 210.36,-27.04 247.27,-22.09"/>
<polygon fill="orange" stroke="orange" points="77.22,-61.63 69.88,-69.27 80.39,-67.87 77.22,-61.63"/>
</a>
</g>
<text text-anchor="middle" x="167.5" y="-53.25" font-family="Helvetica,sans-Serif" font-size="10.00" fill="grey"> &lt; fl::WeakReferent &gt;</text>
</g>
<!-- Node3 -->
<g id="Node000003" class="node">
<title>Node3</title>
<g id="a_Node000003"><a xlink:href="../../d1/d56/classfl_1_1_ptr.html" target="_top" xlink:title=" ">
<polygon fill="white" stroke="#666666" points="621.38,-160.12 514.62,-160.12 514.62,-139.38 621.38,-139.38 621.38,-160.12"/>
<text text-anchor="middle" x="568" y="-146.62" font-family="Helvetica,sans-Serif" font-size="10.00">fl::Ptr&lt; fl::Frame &gt;</text>
</a>
</g>
</g>
<!-- Node2&#45;&gt;Node3 -->
<g id="edge2_Node000002_Node000003" class="edge">
<title>Node2&#45;&gt;Node3</title>
<g id="a_edge2_Node000002_Node000003"><a xlink:title=" ">
<path fill="none" stroke="orange" stroke-dasharray="5,2" d="M342.37,-113.28C351.82,-115.16 361.72,-117.08 371,-118.75 419.48,-127.49 474.96,-136.13 514.49,-142.07"/>
<polygon fill="orange" stroke="orange" points="343.12,-109.86 332.62,-111.3 341.73,-116.72 343.12,-109.86"/>
</a>
</g>
<text text-anchor="middle" x="424.25" y="-139.67" font-family="Helvetica,sans-Serif" font-size="10.00" fill="grey"> &lt; fl::Frame &gt;</text>
</g>
<!-- Node4 -->
<g id="Node000004" class="node">
<title>Node4</title>
<g id="a_Node000004"><a xlink:href="../../d1/d56/classfl_1_1_ptr.html" target="_top" xlink:title=" ">
<polygon fill="white" stroke="#666666" points="612,-108.12 524,-108.12 524,-87.38 612,-87.38 612,-108.12"/>
<text text-anchor="middle" x="568" y="-94.62" font-family="Helvetica,sans-Serif" font-size="10.00">fl::Ptr&lt; fl::Fx &gt;</text>
</a>
</g>
</g>
<!-- Node2&#45;&gt;Node4 -->
<g id="edge3_Node000002_Node000004" class="edge">
<title>Node2&#45;&gt;Node4</title>
<g id="a_edge3_Node000002_Node000004"><a xlink:title=" ">
<path fill="none" stroke="orange" stroke-dasharray="5,2" d="M342.61,-102.73C393.24,-101.61 474.22,-99.81 523.81,-98.71"/>
<polygon fill="orange" stroke="orange" points="342.79,-99.23 332.87,-102.95 342.95,-106.23 342.79,-99.23"/>
</a>
</g>
<text text-anchor="middle" x="424.25" y="-105.23" font-family="Helvetica,sans-Serif" font-size="10.00" fill="grey"> &lt; fl::Fx &gt;</text>
</g>
<!-- Node5 -->
<g id="Node000005" class="node">
<title>Node5</title>
<g id="a_Node000005"><a xlink:href="../../d1/d56/classfl_1_1_ptr.html" target="_top" xlink:title=" ">
<polygon fill="white" stroke="#666666" points="640.5,-43.12 495.5,-43.12 495.5,-22.38 640.5,-22.38 640.5,-43.12"/>
<text text-anchor="middle" x="568" y="-29.62" font-family="Helvetica,sans-Serif" font-size="10.00">fl::Ptr&lt; fl::WeakReferent &gt;</text>
</a>
</g>
</g>
<!-- Node2&#45;&gt;Node5 -->
<g id="edge4_Node000002_Node000005" class="edge">
<title>Node2&#45;&gt;Node5</title>
<g id="a_edge4_Node000002_Node000005"><a xlink:title=" ">
<path fill="none" stroke="orange" stroke-dasharray="5,2" d="M342.07,-90.93C351.61,-88.27 361.63,-85.51 371,-83 423.42,-68.94 483.96,-53.55 523.72,-43.56"/>
<polygon fill="orange" stroke="orange" points="341.3,-87.51 332.61,-93.58 343.18,-94.25 341.3,-87.51"/>
</a>
</g>
<text text-anchor="middle" x="424.25" y="-86.25" font-family="Helvetica,sans-Serif" font-size="10.00" fill="grey"> &lt; fl::WeakReferent &gt;</text>
</g>
<!-- Node6&#45;&gt;Node3 -->
<g id="edge6_Node000006_Node000003" class="edge">
<title>Node6&#45;&gt;Node3</title>
<g id="a_edge6_Node000006_Node000003"><a xlink:title=" ">
<path fill="none" stroke="#63b8ff" d="M352.96,-158.54C388.63,-158.23 435.79,-157.49 477.5,-155.75 489.48,-155.25 502.35,-154.51 514.49,-153.71"/>
<polygon fill="#63b8ff" stroke="#63b8ff" points="353.29,-155.04 343.32,-158.62 353.34,-162.04 353.29,-155.04"/>
</a>
</g>
</g>
<!-- Node7&#45;&gt;Node4 -->
<g id="edge8_Node000007_Node000004" class="edge">
<title>Node7&#45;&gt;Node4</title>
<g id="a_edge8_Node000007_Node000004"><a xlink:title=" ">
<path fill="none" stroke="#63b8ff" d="M352.97,-50.83C389.03,-44.7 436.6,-40.66 477.5,-50.75 505.79,-57.73 535.02,-75.42 552.08,-86.99"/>
<polygon fill="#63b8ff" stroke="#63b8ff" points="352.4,-47.38 343.19,-52.61 353.65,-54.27 352.4,-47.38"/>
</a>
</g>
</g>
<!-- Node8&#45;&gt;Node5 -->
<g id="edge10_Node000008_Node000005" class="edge">
<title>Node8&#45;&gt;Node5</title>
<g id="a_edge10_Node000008_Node000005"><a xlink:title=" ">
<path fill="none" stroke="#63b8ff" d="M355.52,-19.25C390.87,-20.86 436.79,-23.14 477.5,-25.75 483.25,-26.12 489.22,-26.53 495.2,-26.96"/>
<polygon fill="#63b8ff" stroke="#63b8ff" points="356.09,-15.77 345.95,-18.82 355.78,-22.77 356.09,-15.77"/>
</a>
</g>
</g>
</g>
</svg>
