<?xml version="1.0" encoding="UTF-8" standalone="no"?>
<!DOCTYPE svg PUBLIC "-//W3C//DTD SVG 1.1//EN"
 "http://www.w3.org/Graphics/SVG/1.1/DTD/svg11.dtd">
<!-- Generated by graphviz version 12.2.1 (20241206.2353)
 -->
<!-- Title: fillAndShow Pages: 1 -->
<svg width="617pt" height="486pt"
 viewBox="0.00 0.00 617.25 485.75" xmlns="http://www.w3.org/2000/svg" xmlns:xlink="http://www.w3.org/1999/xlink">
<g id="graph0" class="graph" transform="scale(1 1) rotate(0) translate(4 481.75)">
<title>fillAndShow</title>
<!-- Node1 -->
<g id="Node000001" class="node">
<title>Node1</title>
<g id="a_Node000001"><a xlink:title=" ">
<polygon fill="#999999" stroke="#666666" points="73,-265.75 0,-265.75 0,-245 73,-245 73,-265.75"/>
<text text-anchor="middle" x="36.5" y="-252.25" font-family="Helvetica,sans-Serif" font-size="10.00">fillAndShow</text>
</a>
</g>
</g>
<!-- Node2 -->
<g id="Node000002" class="node">
<title>Node2</title>
<g id="a_Node000002"><a xlink:href="../../dd/dbb/class_c_fast_l_e_d.html#a83afdd1e2a21f33ac4f8d2610d6e331b" target="_top" xlink:title="Update all our controllers with the current led colors, using the passed in brightness.">
<polygon fill="white" stroke="#666666" points="201.5,-265.75 109,-265.75 109,-245 201.5,-245 201.5,-265.75"/>
<text text-anchor="middle" x="155.25" y="-252.25" font-family="Helvetica,sans-Serif" font-size="10.00">CFastLED::show</text>
</a>
</g>
</g>
<!-- Node1&#45;&gt;Node2 -->
<g id="edge1_Node000001_Node000002" class="edge">
<title>Node1&#45;&gt;Node2</title>
<g id="a_edge1_Node000001_Node000002"><a xlink:title=" ">
<path fill="none" stroke="#63b8ff" d="M73.48,-255.38C81.04,-255.38 89.19,-255.38 97.3,-255.38"/>
<polygon fill="#63b8ff" stroke="#63b8ff" points="97.17,-258.88 107.17,-255.38 97.17,-251.88 97.17,-258.88"/>
</a>
</g>
</g>
<!-- Node3 -->
<g id="Node000003" class="node">
<title>Node3</title>
<g id="a_Node000003"><a xlink:href="../../d6/d2c/class_c_l_e_d_controller.html#af9962ef739bdb3b590ee66f3780765d6" target="_top" xlink:title=" ">
<polygon fill="white" stroke="#666666" points="412.5,-476.75 241.25,-476.75 241.25,-456 412.5,-456 412.5,-476.75"/>
<text text-anchor="middle" x="326.88" y="-463.25" font-family="Helvetica,sans-Serif" font-size="10.00">CLEDController::beginShowLeds</text>
</a>
</g>
</g>
<!-- Node2&#45;&gt;Node3 -->
<g id="edge2_Node000002_Node000003" class="edge">
<title>Node2&#45;&gt;Node3</title>
<g id="a_edge2_Node000002_Node000003"><a xlink:title=" ">
<path fill="none" stroke="#63b8ff" d="M157.66,-266.15C162.44,-298.16 181.01,-393.52 237.5,-442.38 241.15,-445.53 245.18,-448.28 249.45,-450.67"/>
<polygon fill="#63b8ff" stroke="#63b8ff" points="247.87,-453.8 258.4,-454.96 250.9,-447.48 247.87,-453.8"/>
</a>
</g>
</g>
<!-- Node5 -->
<g id="Node000005" class="node">
<title>Node5</title>
<g id="a_Node000005"><a xlink:href="../../d6/d2c/class_c_l_e_d_controller.html#a63f75cf7e55cf8da46db5fd27110bb3e" target="_top" xlink:title="How many LEDs does this controller manage?">
<polygon fill="white" stroke="#666666" points="588.25,-438.75 473.25,-438.75 473.25,-418 588.25,-418 588.25,-438.75"/>
<text text-anchor="middle" x="530.75" y="-425.25" font-family="Helvetica,sans-Serif" font-size="10.00">CLEDController::size</text>
</a>
</g>
</g>
<!-- Node2&#45;&gt;Node5 -->
<g id="edge23_Node000002_Node000005" class="edge">
<title>Node2&#45;&gt;Node5</title>
<g id="a_edge23_Node000002_Node000005"><a xlink:title=" ">
<path fill="none" stroke="#63b8ff" d="M158.18,-265.98C164.08,-294.89 184.74,-375.17 237.5,-409.38 306.12,-453.86 403.88,-449.94 467.08,-440.89"/>
<polygon fill="#63b8ff" stroke="#63b8ff" points="467.22,-444.41 476.57,-439.44 466.16,-437.49 467.22,-444.41"/>
</a>
</g>
</g>
<!-- Node6 -->
<g id="Node000006" class="node">
<title>Node6</title>
<g id="a_Node000006"><a xlink:href="../../dd/dbb/class_c_fast_l_e_d.html#a61d27e179c9b68bde89d220aebc0de32" target="_top" xlink:title="For debugging, this will keep track of time between calls to countFPS().">
<polygon fill="white" stroke="#666666" points="382.88,-400.75 270.88,-400.75 270.88,-380 382.88,-380 382.88,-400.75"/>
<text text-anchor="middle" x="326.88" y="-387.25" font-family="Helvetica,sans-Serif" font-size="10.00">CFastLED::countFPS</text>
</a>
</g>
</g>
<!-- Node2&#45;&gt;Node6 -->
<g id="edge5_Node000002_Node000006" class="edge">
<title>Node2&#45;&gt;Node6</title>
<g id="a_edge5_Node000002_Node000006"><a xlink:title=" ">
<path fill="none" stroke="#63b8ff" d="M161.03,-266.1C171.51,-288.36 198.72,-339.73 237.5,-366.38 244.26,-371.02 251.88,-374.76 259.74,-377.79"/>
<polygon fill="#63b8ff" stroke="#63b8ff" points="258.52,-381.07 269.12,-380.99 260.78,-374.44 258.52,-381.07"/>
</a>
</g>
</g>
<!-- Node7 -->
<g id="Node000007" class="node">
<title>Node7</title>
<g id="a_Node000007"><a xlink:href="../../d6/d2c/class_c_l_e_d_controller.html#a49b221af013bf196c2068e2cbd1c299d" target="_top" xlink:title=" ">
<polygon fill="white" stroke="#666666" points="408,-324.75 245.75,-324.75 245.75,-304 408,-304 408,-324.75"/>
<text text-anchor="middle" x="326.88" y="-311.25" font-family="Helvetica,sans-Serif" font-size="10.00">CLEDController::endShowLeds</text>
</a>
</g>
</g>
<!-- Node2&#45;&gt;Node7 -->
<g id="edge6_Node000002_Node000007" class="edge">
<title>Node2&#45;&gt;Node7</title>
<g id="a_edge6_Node000002_Node000007"><a xlink:title=" ">
<path fill="none" stroke="#63b8ff" d="M175.43,-266.1C191.57,-274.76 215.48,-286.71 237.5,-294.38 244.13,-296.68 251.13,-298.79 258.18,-300.71"/>
<polygon fill="#63b8ff" stroke="#63b8ff" points="257.22,-304.07 267.77,-303.17 258.96,-297.29 257.22,-304.07"/>
</a>
</g>
</g>
<!-- Node8 -->
<g id="Node000008" class="node">
<title>Node8</title>
<g id="a_Node000008"><a xlink:href="../../d6/d2c/class_c_l_e_d_controller.html#a2a231accbeb00e6a6080a7e55274a279" target="_top" xlink:title="Set the dithering mode for this controller to use.">
<polygon fill="white" stroke="#666666" points="601,-343.75 460.5,-343.75 460.5,-323 601,-323 601,-343.75"/>
<text text-anchor="middle" x="530.75" y="-330.25" font-family="Helvetica,sans-Serif" font-size="10.00">CLEDController::setDither</text>
</a>
</g>
</g>
<!-- Node2&#45;&gt;Node8 -->
<g id="edge20_Node000002_Node000008" class="edge">
<title>Node2&#45;&gt;Node8</title>
<g id="a_edge20_Node000002_Node000008"><a xlink:title=" ">
<path fill="none" stroke="#63b8ff" d="M163.18,-266.06C175.56,-284.02 203.4,-319.65 237.5,-333.38 312.79,-363.66 408.08,-356.11 468.99,-346.17"/>
<polygon fill="#63b8ff" stroke="#63b8ff" points="469.56,-349.62 478.83,-344.48 468.38,-342.72 469.56,-349.62"/>
</a>
</g>
</g>
<!-- Node9 -->
<g id="Node000009" class="node">
<title>Node9</title>
<g id="a_Node000009"><a xlink:href="../../d6/d2c/class_c_l_e_d_controller.html#a6bd253f670640ea4d1bd0d71b8029f2a" target="_top" xlink:title=" ">
<polygon fill="white" stroke="#666666" points="402,-285.75 251.75,-285.75 251.75,-265 402,-265 402,-285.75"/>
<text text-anchor="middle" x="326.88" y="-272.25" font-family="Helvetica,sans-Serif" font-size="10.00">CLEDController::getEnabled</text>
</a>
</g>
</g>
<!-- Node2&#45;&gt;Node9 -->
<g id="edge8_Node000002_Node000009" class="edge">
<title>Node2&#45;&gt;Node9</title>
<g id="a_edge8_Node000002_Node000009"><a xlink:title=" ">
<path fill="none" stroke="#63b8ff" d="M201.71,-260.73C213.67,-262.14 226.97,-263.71 240.3,-265.28"/>
<polygon fill="#63b8ff" stroke="#63b8ff" points="239.62,-268.73 249.96,-266.42 240.44,-261.78 239.62,-268.73"/>
</a>
</g>
</g>
<!-- Node10 -->
<g id="Node000010" class="node">
<title>Node10</title>
<g id="a_Node000010"><a xlink:href="../../d6/d2c/class_c_l_e_d_controller.html#a8b412ff1fd4833d0db63a175d40a2ee0" target="_top" xlink:title="Get the first LED controller in the linked list of controllers.">
<polygon fill="white" stroke="#666666" points="386.62,-246.75 267.12,-246.75 267.12,-226 386.62,-226 386.62,-246.75"/>
<text text-anchor="middle" x="326.88" y="-233.25" font-family="Helvetica,sans-Serif" font-size="10.00">CLEDController::head</text>
</a>
</g>
</g>
<!-- Node2&#45;&gt;Node10 -->
<g id="edge9_Node000002_Node000010" class="edge">
<title>Node2&#45;&gt;Node10</title>
<g id="a_edge9_Node000002_Node000010"><a xlink:title=" ">
<path fill="none" stroke="#63b8ff" d="M201.71,-250.28C218.29,-248.43 237.44,-246.28 255.67,-244.24"/>
<polygon fill="#63b8ff" stroke="#63b8ff" points="255.82,-247.74 265.36,-243.15 255.04,-240.79 255.82,-247.74"/>
</a>
</g>
</g>
<!-- Node11 -->
<g id="Node000011" class="node">
<title>Node11</title>
<g id="a_Node000011"><a xlink:href="../../d6/d2c/class_c_l_e_d_controller.html#a21a4d2b3415dd7b24175ebdb51c9ced0" target="_top" xlink:title="Get the next controller in the linked list after this one.">
<polygon fill="white" stroke="#666666" points="385.5,-207.75 268.25,-207.75 268.25,-187 385.5,-187 385.5,-207.75"/>
<text text-anchor="middle" x="326.88" y="-194.25" font-family="Helvetica,sans-Serif" font-size="10.00">CLEDController::next</text>
</a>
</g>
</g>
<!-- Node2&#45;&gt;Node11 -->
<g id="edge10_Node000002_Node000011" class="edge">
<title>Node2&#45;&gt;Node11</title>
<g id="a_edge10_Node000002_Node000011"><a xlink:title=" ">
<path fill="none" stroke="#63b8ff" d="M176.12,-244.61C192.27,-236.22 215.84,-224.79 237.5,-217.38 244.32,-215.04 251.53,-212.9 258.77,-210.96"/>
<polygon fill="#63b8ff" stroke="#63b8ff" points="259.44,-214.4 268.27,-208.54 257.72,-207.62 259.44,-214.4"/>
</a>
</g>
</g>
<!-- Node12 -->
<g id="Node000012" class="node">
<title>Node12</title>
<g id="a_Node000012"><a xlink:href="../../de/dca/classfl_1_1_engine_events.html#a7147debfba714b8ab0925af1a7c935c0" target="_top" xlink:title=" ">
<polygon fill="white" stroke="#666666" points="396.75,-169.12 257,-169.12 257,-135.62 396.75,-135.62 396.75,-169.12"/>
<text text-anchor="start" x="265" y="-155.62" font-family="Helvetica,sans-Serif" font-size="10.00">fl::EngineEvents::onBegin</text>
<text text-anchor="middle" x="326.88" y="-142.88" font-family="Helvetica,sans-Serif" font-size="10.00">Frame</text>
</a>
</g>
</g>
<!-- Node2&#45;&gt;Node12 -->
<g id="edge11_Node000002_Node000012" class="edge">
<title>Node2&#45;&gt;Node12</title>
<g id="a_edge11_Node000002_Node000012"><a xlink:title=" ">
<path fill="none" stroke="#63b8ff" d="M164.56,-244.76C178.09,-228.19 206.51,-196.22 237.5,-178.38 240.29,-176.77 243.2,-175.25 246.17,-173.82"/>
<polygon fill="#63b8ff" stroke="#63b8ff" points="247.37,-177.12 255.13,-169.9 244.57,-170.7 247.37,-177.12"/>
</a>
</g>
</g>
<!-- Node16 -->
<g id="Node000016" class="node">
<title>Node16</title>
<g id="a_Node000016"><a xlink:href="../../de/dca/classfl_1_1_engine_events.html#ab7d24c4783214392de84947cd7df5570" target="_top" xlink:title=" ">
<polygon fill="white" stroke="#666666" points="407.25,-117.75 246.5,-117.75 246.5,-97 407.25,-97 407.25,-117.75"/>
<text text-anchor="middle" x="326.88" y="-104.25" font-family="Helvetica,sans-Serif" font-size="10.00">fl::EngineEvents::onEndFrame</text>
</a>
</g>
</g>
<!-- Node2&#45;&gt;Node16 -->
<g id="edge14_Node000002_Node000016" class="edge">
<title>Node2&#45;&gt;Node16</title>
<g id="a_edge14_Node000002_Node000016"><a xlink:title=" ">
<path fill="none" stroke="#63b8ff" d="M159.72,-244.67C168.43,-219.62 193.68,-157.01 237.5,-126.38 239.09,-125.26 240.74,-124.21 242.42,-123.22"/>
<polygon fill="#63b8ff" stroke="#63b8ff" points="243.78,-126.46 251.16,-118.86 240.65,-120.2 243.78,-126.46"/>
</a>
</g>
</g>
<!-- Node18 -->
<g id="Node000018" class="node">
<title>Node18</title>
<g id="a_Node000018"><a xlink:href="../../de/dca/classfl_1_1_engine_events.html#af1bb9a46fdc6694a1b5c87a49c516ae8" target="_top" xlink:title=" ">
<polygon fill="white" stroke="#666666" points="416.25,-78.75 237.5,-78.75 237.5,-58 416.25,-58 416.25,-78.75"/>
<text text-anchor="middle" x="326.88" y="-65.25" font-family="Helvetica,sans-Serif" font-size="10.00">fl::EngineEvents::onEndShowLeds</text>
</a>
</g>
</g>
<!-- Node2&#45;&gt;Node18 -->
<g id="edge17_Node000002_Node000018" class="edge">
<title>Node2&#45;&gt;Node18</title>
<g id="a_edge17_Node000002_Node000018"><a xlink:title=" ">
<path fill="none" stroke="#63b8ff" d="M158.12,-244.79C163.95,-215.05 184.69,-130.24 237.5,-88.38 239.26,-86.98 241.09,-85.68 242.99,-84.47"/>
<polygon fill="#63b8ff" stroke="#63b8ff" points="244.48,-87.65 251.62,-79.82 241.16,-81.48 244.48,-87.65"/>
</a>
</g>
</g>
<!-- Node20 -->
<g id="Node000020" class="node">
<title>Node20</title>
<g id="a_Node000020"><a xlink:href="../../d6/d2c/class_c_l_e_d_controller.html#ac5355e980ac13d9ae97561f183f73990" target="_top" xlink:title="Write the data to the LEDs managed by this controller.">
<polygon fill="white" stroke="#666666" points="398.62,-34.12 255.12,-34.12 255.12,-0.62 398.62,-0.62 398.62,-34.12"/>
<text text-anchor="start" x="263.12" y="-20.62" font-family="Helvetica,sans-Serif" font-size="10.00">CLEDController::showLeds</text>
<text text-anchor="middle" x="326.88" y="-7.88" font-family="Helvetica,sans-Serif" font-size="10.00">Internal</text>
</a>
</g>
</g>
<!-- Node2&#45;&gt;Node20 -->
<g id="edge21_Node000002_Node000020" class="edge">
<title>Node2&#45;&gt;Node20</title>
<g id="a_edge21_Node000002_Node000020"><a xlink:title=" ">
<path fill="none" stroke="#63b8ff" d="M157.39,-244.72C161.53,-211.16 178.78,-106.45 237.5,-49.38 241.09,-45.89 245.08,-42.78 249.33,-40.01"/>
<polygon fill="#63b8ff" stroke="#63b8ff" points="250.75,-43.23 257.68,-35.21 247.27,-37.16 250.75,-43.23"/>
</a>
</g>
</g>
<!-- Node4 -->
<g id="Node000004" class="node">
<title>Node4</title>
<g id="a_Node000004"><a xlink:href="../../d6/d2c/class_c_l_e_d_controller.html#a676f705adf93898739a405b85150a3e7" target="_top" xlink:title="Get the dithering option currently set for this controller.">
<polygon fill="white" stroke="#666666" points="601.38,-477.75 460.12,-477.75 460.12,-457 601.38,-457 601.38,-477.75"/>
<text text-anchor="middle" x="530.75" y="-464.25" font-family="Helvetica,sans-Serif" font-size="10.00">CLEDController::getDither</text>
</a>
</g>
</g>
<!-- Node3&#45;&gt;Node4 -->
<g id="edge3_Node000003_Node000004" class="edge">
<title>Node3&#45;&gt;Node4</title>
<g id="a_edge3_Node000003_Node000004"><a xlink:title=" ">
<path fill="none" stroke="#63b8ff" d="M412.9,-466.8C424.62,-466.85 436.63,-466.91 448.29,-466.97"/>
<polygon fill="#63b8ff" stroke="#63b8ff" points="448.26,-470.47 458.28,-467.02 448.3,-463.47 448.26,-470.47"/>
</a>
</g>
</g>
<!-- Node3&#45;&gt;Node5 -->
<g id="edge4_Node000003_Node000005" class="edge">
<title>Node3&#45;&gt;Node5</title>
<g id="a_edge4_Node000003_Node000005"><a xlink:title=" ">
<path fill="none" stroke="#63b8ff" d="M385.45,-455.54C409.2,-451.07 436.91,-445.85 461.66,-441.19"/>
<polygon fill="#63b8ff" stroke="#63b8ff" points="462.13,-444.67 471.31,-439.38 460.83,-437.79 462.13,-444.67"/>
</a>
</g>
</g>
<!-- Node7&#45;&gt;Node8 -->
<g id="edge7_Node000007_Node000008" class="edge">
<title>Node7&#45;&gt;Node8</title>
<g id="a_edge7_Node000007_Node000008"><a xlink:title=" ">
<path fill="none" stroke="#63b8ff" d="M408.24,-321.94C421.64,-323.2 435.55,-324.51 448.96,-325.77"/>
<polygon fill="#63b8ff" stroke="#63b8ff" points="448.3,-329.22 458.58,-326.68 448.95,-322.25 448.3,-329.22"/>
</a>
</g>
</g>
<!-- Node13 -->
<g id="Node000013" class="node">
<title>Node13</title>
<g id="a_Node000013"><a xlink:href="../../de/dca/classfl_1_1_engine_events.html#a9dfab83407c4cb0c15065e242d49de62" target="_top" xlink:title=" ">
<polygon fill="white" stroke="#666666" points="580.75,-214.12 480.75,-214.12 480.75,-180.62 580.75,-180.62 580.75,-214.12"/>
<text text-anchor="start" x="488.75" y="-200.62" font-family="Helvetica,sans-Serif" font-size="10.00">fl::EngineEvents::</text>
<text text-anchor="middle" x="530.75" y="-187.88" font-family="Helvetica,sans-Serif" font-size="10.00">_onBeginFrame</text>
</a>
</g>
</g>
<!-- Node12&#45;&gt;Node13 -->
<g id="edge12_Node000012_Node000013" class="edge">
<title>Node12&#45;&gt;Node13</title>
<g id="a_edge12_Node000012_Node000013"><a xlink:title=" ">
<path fill="none" stroke="#63b8ff" d="M397.07,-167.8C420.5,-173.02 446.48,-178.81 469.19,-183.87"/>
<polygon fill="#63b8ff" stroke="#63b8ff" points="468.39,-187.28 478.91,-186.04 469.91,-180.45 468.39,-187.28"/>
</a>
</g>
</g>
<!-- Node14 -->
<g id="Node000014" class="node">
<title>Node14</title>
<g id="a_Node000014"><a xlink:href="../../de/dca/classfl_1_1_engine_events.html#a34a4625c4fbcf754f70820bc4f0e418b" target="_top" xlink:title=" ">
<polygon fill="#fff0f0" stroke="red" points="609.25,-162.75 452.25,-162.75 452.25,-142 609.25,-142 609.25,-162.75"/>
<text text-anchor="middle" x="530.75" y="-149.25" font-family="Helvetica,sans-Serif" font-size="10.00">fl::EngineEvents::getInstance</text>
</a>
</g>
</g>
<!-- Node12&#45;&gt;Node14 -->
<g id="edge13_Node000012_Node000014" class="edge">
<title>Node12&#45;&gt;Node14</title>
<g id="a_edge13_Node000012_Node000014"><a xlink:title=" ">
<path fill="none" stroke="#63b8ff" d="M397.07,-152.38C411.16,-152.38 426.18,-152.38 440.86,-152.38"/>
<polygon fill="#63b8ff" stroke="#63b8ff" points="440.47,-155.88 450.47,-152.38 440.47,-148.88 440.47,-155.88"/>
</a>
</g>
</g>
<!-- Node16&#45;&gt;Node14 -->
<g id="edge16_Node000016_Node000014" class="edge">
<title>Node16&#45;&gt;Node14</title>
<g id="a_edge16_Node000016_Node000014"><a xlink:title=" ">
<path fill="none" stroke="#63b8ff" d="M378.84,-118.21C391.1,-120.85 404.15,-123.69 416.25,-126.38 434.39,-130.4 454.13,-134.89 471.99,-138.98"/>
<polygon fill="#63b8ff" stroke="#63b8ff" points="471.11,-142.38 481.64,-141.21 472.68,-135.55 471.11,-142.38"/>
</a>
</g>
</g>
<!-- Node17 -->
<g id="Node000017" class="node">
<title>Node17</title>
<g id="a_Node000017"><a xlink:href="../../de/dca/classfl_1_1_engine_events.html#a643d9a8597b79d76daed94c29845e886" target="_top" xlink:title=" ">
<polygon fill="white" stroke="#666666" points="580.75,-124.12 480.75,-124.12 480.75,-90.62 580.75,-90.62 580.75,-124.12"/>
<text text-anchor="start" x="488.75" y="-110.62" font-family="Helvetica,sans-Serif" font-size="10.00">fl::EngineEvents::</text>
<text text-anchor="middle" x="530.75" y="-97.88" font-family="Helvetica,sans-Serif" font-size="10.00">_onEndFrame</text>
</a>
</g>
</g>
<!-- Node16&#45;&gt;Node17 -->
<g id="edge15_Node000016_Node000017" class="edge">
<title>Node16&#45;&gt;Node17</title>
<g id="a_edge15_Node000016_Node000017"><a xlink:title=" ">
<path fill="none" stroke="#63b8ff" d="M407.66,-107.38C428.11,-107.38 449.77,-107.38 469.08,-107.38"/>
<polygon fill="#63b8ff" stroke="#63b8ff" points="468.95,-110.88 478.95,-107.38 468.95,-103.88 468.95,-110.88"/>
</a>
</g>
</g>
<!-- Node18&#45;&gt;Node14 -->
<g id="edge19_Node000018_Node000014" class="edge">
<title>Node18&#45;&gt;Node14</title>
<g id="a_edge19_Node000018_Node000014"><a xlink:title=" ">
<path fill="none" stroke="#63b8ff" d="M397.24,-79.25C403.92,-81.7 410.38,-84.7 416.25,-88.38 437.96,-101.96 430.66,-119.59 452.25,-133.38 454.26,-134.66 456.34,-135.85 458.49,-136.97"/>
<polygon fill="#63b8ff" stroke="#63b8ff" points="456.96,-140.12 467.52,-141 459.82,-133.72 456.96,-140.12"/>
</a>
</g>
</g>
<!-- Node19 -->
<g id="Node000019" class="node">
<title>Node19</title>
<g id="a_Node000019"><a xlink:href="../../de/dca/classfl_1_1_engine_events.html#ae6b4037ab7b73bf0d69e07c4956f9450" target="_top" xlink:title=" ">
<polygon fill="white" stroke="#666666" points="580.75,-72.12 480.75,-72.12 480.75,-38.62 580.75,-38.62 580.75,-72.12"/>
<text text-anchor="start" x="488.75" y="-58.62" font-family="Helvetica,sans-Serif" font-size="10.00">fl::EngineEvents::</text>
<text text-anchor="middle" x="530.75" y="-45.88" font-family="Helvetica,sans-Serif" font-size="10.00">_onEndShowLeds</text>
</a>
</g>
</g>
<!-- Node18&#45;&gt;Node19 -->
<g id="edge18_Node000018_Node000019" class="edge">
<title>Node18&#45;&gt;Node19</title>
<g id="a_edge18_Node000018_Node000019"><a xlink:title=" ">
<path fill="none" stroke="#63b8ff" d="M416.71,-62.65C434.51,-61.51 452.81,-60.33 469.36,-59.26"/>
<polygon fill="#63b8ff" stroke="#63b8ff" points="469.25,-62.78 479,-58.64 468.8,-55.79 469.25,-62.78"/>
</a>
</g>
</g>
<!-- Node21 -->
<g id="Node000021" class="node">
<title>Node21</title>
<g id="a_Node000021"><a xlink:href="../../d6/d2c/class_c_l_e_d_controller.html#afc8fb063666d03527aabc86d8531e007" target="_top" xlink:title="Write the passed in RGB data out to the LEDs managed by this controller.">
<polygon fill="white" stroke="#666666" points="591.25,-20.75 470.25,-20.75 470.25,0 591.25,0 591.25,-20.75"/>
<text text-anchor="middle" x="530.75" y="-7.25" font-family="Helvetica,sans-Serif" font-size="10.00">CLEDController::show</text>
</a>
</g>
</g>
<!-- Node20&#45;&gt;Node21 -->
<g id="edge22_Node000020_Node000021" class="edge">
<title>Node20&#45;&gt;Node21</title>
<g id="a_edge22_Node000020_Node000021"><a xlink:title=" ">
<path fill="none" stroke="#63b8ff" d="M399.05,-14.91C418.32,-14.24 439.17,-13.52 458.45,-12.85"/>
<polygon fill="#63b8ff" stroke="#63b8ff" points="458.52,-16.35 468.39,-12.5 458.27,-9.35 458.52,-16.35"/>
</a>
</g>
</g>
</g>
</svg>
