<?xml version="1.0" encoding="UTF-8" standalone="no"?>
<!DOCTYPE svg PUBLIC "-//W3C//DTD SVG 1.1//EN"
 "http://www.w3.org/Graphics/SVG/1.1/DTD/svg11.dtd">
<!-- Generated by graphviz version 12.2.1 (20241206.2353)
 -->
<!-- Title: FrameBufferBase::length Pages: 1 -->
<svg width="517pt" height="158pt"
 viewBox="0.00 0.00 516.50 158.12" xmlns="http://www.w3.org/2000/svg" xmlns:xlink="http://www.w3.org/1999/xlink">
<g id="graph0" class="graph" transform="scale(1 1) rotate(0) translate(4 154.12)">
<title>FrameBufferBase::length</title>
<!-- Node1 -->
<g id="Node000001" class="node">
<title>Node1</title>
<g id="a_Node000001"><a xlink:title=" ">
<polygon fill="#999999" stroke="#666666" points="508.5,-91.12 371.75,-91.12 371.75,-70.38 508.5,-70.38 508.5,-91.12"/>
<text text-anchor="middle" x="440.12" y="-77.62" font-family="Helvetica,sans-Serif" font-size="10.00">FrameBufferBase::length</text>
</a>
</g>
</g>
<!-- Node2 -->
<g id="Node000002" class="node">
<title>Node2</title>
<g id="a_Node000002"><a xlink:href="../../d4/df6/class_led_rope_t_c_l.html#af19abbbe43110da5fd09c169d9ab9307" target="_top" xlink:title=" ">
<polygon fill="white" stroke="#666666" points="335.75,-150.12 194.5,-150.12 194.5,-129.38 335.75,-129.38 335.75,-150.12"/>
<text text-anchor="middle" x="265.12" y="-136.62" font-family="Helvetica,sans-Serif" font-size="10.00">LedRopeTCL::DrawRepeat</text>
</a>
</g>
</g>
<!-- Node1&#45;&gt;Node2 -->
<g id="edge1_Node000001_Node000002" class="edge">
<title>Node1&#45;&gt;Node2</title>
<g id="a_edge1_Node000001_Node000002"><a xlink:title=" ">
<path fill="none" stroke="#63b8ff" d="M401.55,-95.76C382.05,-103.34 357.77,-112.45 335.75,-119.75 326.2,-122.92 315.82,-126.06 306.06,-128.88"/>
<polygon fill="#63b8ff" stroke="#63b8ff" points="402.69,-99.08 410.72,-92.17 400.14,-92.56 402.69,-99.08"/>
</a>
</g>
</g>
<!-- Node3 -->
<g id="Node000003" class="node">
<title>Node3</title>
<g id="a_Node000003"><a xlink:href="../../d4/df6/class_led_rope_t_c_l.html#a82a6589500d1934733920c133cdf6710" target="_top" xlink:title=" ">
<polygon fill="white" stroke="#666666" points="321.12,-111.12 209.12,-111.12 209.12,-90.38 321.12,-90.38 321.12,-111.12"/>
<text text-anchor="middle" x="265.12" y="-97.62" font-family="Helvetica,sans-Serif" font-size="10.00">LedRopeTCL::length</text>
</a>
</g>
</g>
<!-- Node1&#45;&gt;Node3 -->
<g id="edge2_Node000001_Node000003" class="edge">
<title>Node1&#45;&gt;Node3</title>
<g id="a_edge2_Node000001_Node000003"><a xlink:title=" ">
<path fill="none" stroke="#63b8ff" d="M360.34,-89.86C347.25,-91.37 333.93,-92.91 321.58,-94.34"/>
<polygon fill="#63b8ff" stroke="#63b8ff" points="360.71,-93.34 370.24,-88.71 359.9,-86.39 360.71,-93.34"/>
</a>
</g>
</g>
<!-- Node6 -->
<g id="Node000006" class="node">
<title>Node6</title>
<g id="a_Node000006"><a xlink:href="../../dd/dc5/class_frame_buffer_base.html#ac1d0fe8a030ee6dd0ebd60fd46849f1a" target="_top" xlink:title=" ">
<polygon fill="white" stroke="#666666" points="326,-72.12 204.25,-72.12 204.25,-51.38 326,-51.38 326,-72.12"/>
<text text-anchor="middle" x="265.12" y="-58.62" font-family="Helvetica,sans-Serif" font-size="10.00">FrameBufferBase::Set</text>
</a>
</g>
</g>
<!-- Node1&#45;&gt;Node6 -->
<g id="edge5_Node000001_Node000006" class="edge">
<title>Node1&#45;&gt;Node6</title>
<g id="a_edge5_Node000001_Node000006"><a xlink:title=" ">
<path fill="none" stroke="#63b8ff" d="M360.38,-72.1C348.92,-70.84 337.29,-69.57 326.28,-68.36"/>
<polygon fill="#63b8ff" stroke="#63b8ff" points="359.92,-75.57 370.24,-73.18 360.68,-68.61 359.92,-75.57"/>
</a>
</g>
</g>
<!-- Node7 -->
<g id="Node000007" class="node">
<title>Node7</title>
<g id="a_Node000007"><a xlink:href="../../d4/df6/class_led_rope_t_c_l.html#a4585594975001ee622ef20f07117050f" target="_top" xlink:title=" ">
<polygon fill="white" stroke="#666666" points="327.88,-33.5 202.38,-33.5 202.38,0 327.88,0 327.88,-33.5"/>
<text text-anchor="start" x="210.38" y="-20" font-family="Helvetica,sans-Serif" font-size="10.00">LedRopeTCL::set_draw</text>
<text text-anchor="middle" x="265.12" y="-7.25" font-family="Helvetica,sans-Serif" font-size="10.00">_offset</text>
</a>
</g>
</g>
<!-- Node1&#45;&gt;Node7 -->
<g id="edge6_Node000001_Node000007" class="edge">
<title>Node1&#45;&gt;Node7</title>
<g id="a_edge6_Node000001_Node000007"><a xlink:title=" ">
<path fill="none" stroke="#63b8ff" d="M399.23,-65.99C373.39,-56.43 339.64,-43.95 312.59,-33.94"/>
<polygon fill="#63b8ff" stroke="#63b8ff" points="397.77,-69.18 408.36,-69.37 400.19,-62.62 397.77,-69.18"/>
</a>
</g>
</g>
<!-- Node4 -->
<g id="Node000004" class="node">
<title>Node4</title>
<g id="a_Node000004"><a xlink:href="../../d4/df6/class_led_rope_t_c_l.html#a842cac2350fad4c68d21d232f6a8a4c0" target="_top" xlink:title=" ">
<polygon fill="white" stroke="#666666" points="132.62,-133.12 25.88,-133.12 25.88,-112.38 132.62,-112.38 132.62,-133.12"/>
<text text-anchor="middle" x="79.25" y="-119.62" font-family="Helvetica,sans-Serif" font-size="10.00">LedRopeTCL::Draw</text>
</a>
</g>
</g>
<!-- Node3&#45;&gt;Node4 -->
<g id="edge3_Node000003_Node000004" class="edge">
<title>Node3&#45;&gt;Node4</title>
<g id="a_edge3_Node000003_Node000004"><a xlink:title=" ">
<path fill="none" stroke="#63b8ff" d="M197.68,-108.7C176.36,-111.25 153.05,-114.04 132.86,-116.46"/>
<polygon fill="#63b8ff" stroke="#63b8ff" points="197.94,-112.19 207.45,-107.53 197.11,-105.24 197.94,-112.19"/>
</a>
</g>
</g>
<!-- Node5 -->
<g id="Node000005" class="node">
<title>Node5</title>
<g id="a_Node000005"><a xlink:href="../../d4/df6/class_led_rope_t_c_l.html#a90f6e3d74b585d37be799107d77421c8" target="_top" xlink:title=" ">
<polygon fill="white" stroke="#666666" points="158.5,-94.5 0,-94.5 0,-61 158.5,-61 158.5,-94.5"/>
<text text-anchor="start" x="8" y="-81" font-family="Helvetica,sans-Serif" font-size="10.00">LedRopeTCL::DrawSequential</text>
<text text-anchor="middle" x="79.25" y="-68.25" font-family="Helvetica,sans-Serif" font-size="10.00">Repeat</text>
</a>
</g>
</g>
<!-- Node3&#45;&gt;Node5 -->
<g id="edge4_Node000003_Node000005" class="edge">
<title>Node3&#45;&gt;Node5</title>
<g id="a_edge4_Node000003_Node000005"><a xlink:title=" ">
<path fill="none" stroke="#63b8ff" d="M197.62,-92.43C185.03,-90.86 171.75,-89.2 158.83,-87.58"/>
<polygon fill="#63b8ff" stroke="#63b8ff" points="197.1,-95.89 207.45,-93.66 197.97,-88.95 197.1,-95.89"/>
</a>
</g>
</g>
</g>
</svg>
