<?xml version="1.0" encoding="UTF-8" standalone="no"?>
<!DOCTYPE svg PUBLIC "-//W3C//DTD SVG 1.1//EN"
 "http://www.w3.org/Graphics/SVG/1.1/DTD/svg11.dtd">
<!-- Generated by graphviz version 12.2.1 (20241206.2353)
 -->
<!-- Title: /home/runner/work/FastLED/FastLED/examples/LuminescentGrand/shared/framebuffer.cpp Pages: 1 -->
<svg width="248pt" height="168pt"
 viewBox="0.00 0.00 248.38 167.75" xmlns="http://www.w3.org/2000/svg" xmlns:xlink="http://www.w3.org/1999/xlink">
<g id="graph0" class="graph" transform="scale(1 1) rotate(0) translate(4 163.75)">
<title>/home/runner/work/FastLED/FastLED/examples/LuminescentGrand/shared/framebuffer.cpp</title>
<!-- Node1 -->
<g id="Node000001" class="node">
<title>Node1</title>
<g id="a_Node000001"><a xlink:title=" ">
<polygon fill="#999999" stroke="#666666" points="225.62,-159.75 22.88,-159.75 22.88,-113.5 225.62,-113.5 225.62,-159.75"/>
<text text-anchor="start" x="30.88" y="-146.25" font-family="Helvetica,sans-Serif" font-size="10.00">/home/runner/work/FastLED</text>
<text text-anchor="start" x="30.88" y="-133.5" font-family="Helvetica,sans-Serif" font-size="10.00">/FastLED/examples/LuminescentGrand</text>
<text text-anchor="middle" x="124.25" y="-120.75" font-family="Helvetica,sans-Serif" font-size="10.00">/shared/framebuffer.cpp</text>
</a>
</g>
</g>
<!-- Node2 -->
<g id="Node000002" class="node">
<title>Node2</title>
<g id="a_Node000002"><a xlink:title=" ">
<polygon fill="#e0e0e0" stroke="#999999" points="62.5,-77.5 0,-77.5 0,-56.75 62.5,-56.75 62.5,-77.5"/>
<text text-anchor="middle" x="31.25" y="-64" font-family="Helvetica,sans-Serif" font-size="10.00">Arduino.h</text>
</a>
</g>
</g>
<!-- Node1&#45;&gt;Node2 -->
<g id="edge1_Node000001_Node000002" class="edge">
<title>Node1&#45;&gt;Node2</title>
<g id="a_edge1_Node000001_Node000002"><a xlink:title=" ">
<path fill="none" stroke="#63b8ff" d="M93.28,-113.15C80.4,-103.8 65.73,-93.15 53.88,-84.55"/>
<polygon fill="#63b8ff" stroke="#63b8ff" points="56.08,-81.82 45.93,-78.78 51.97,-87.49 56.08,-81.82"/>
</a>
</g>
</g>
<!-- Node3 -->
<g id="Node000003" class="node">
<title>Node3</title>
<g id="a_Node000003"><a xlink:href="../../d4/dd2/framebuffer_8h.html" target="_top" xlink:title=" ">
<polygon fill="white" stroke="#666666" points="168.25,-77.5 80.25,-77.5 80.25,-56.75 168.25,-56.75 168.25,-77.5"/>
<text text-anchor="middle" x="124.25" y="-64" font-family="Helvetica,sans-Serif" font-size="10.00">./framebuffer.h</text>
</a>
</g>
</g>
<!-- Node1&#45;&gt;Node3 -->
<g id="edge2_Node000001_Node000003" class="edge">
<title>Node1&#45;&gt;Node3</title>
<g id="a_edge2_Node000001_Node000003"><a xlink:title=" ">
<path fill="none" stroke="#63b8ff" d="M124.25,-113.15C124.25,-105.48 124.25,-96.94 124.25,-89.38"/>
<polygon fill="#63b8ff" stroke="#63b8ff" points="127.75,-89.4 124.25,-79.4 120.75,-89.4 127.75,-89.4"/>
</a>
</g>
</g>
<!-- Node4 -->
<g id="Node000004" class="node">
<title>Node4</title>
<g id="a_Node000004"><a xlink:href="../../de/de1/examples_2_luminescent_grand_2shared_2color_8h.html" target="_top" xlink:title=" ">
<polygon fill="white" stroke="#666666" points="240.38,-77.5 186.12,-77.5 186.12,-56.75 240.38,-56.75 240.38,-77.5"/>
<text text-anchor="middle" x="213.25" y="-64" font-family="Helvetica,sans-Serif" font-size="10.00">./color.h</text>
</a>
</g>
</g>
<!-- Node1&#45;&gt;Node4 -->
<g id="edge3_Node000001_Node000004" class="edge">
<title>Node1&#45;&gt;Node4</title>
<g id="a_edge3_Node000001_Node000004"><a xlink:title=" ">
<path fill="none" stroke="#63b8ff" d="M153.89,-113.15C166.09,-103.89 179.98,-93.36 191.25,-84.81"/>
<polygon fill="#63b8ff" stroke="#63b8ff" points="193.32,-87.64 199.17,-78.81 189.09,-82.06 193.32,-87.64"/>
</a>
</g>
</g>
<!-- Node5 -->
<g id="Node000005" class="node">
<title>Node5</title>
<g id="a_Node000005"><a xlink:title=" ">
<polygon fill="#e0e0e0" stroke="#999999" points="239.62,-20.75 186.88,-20.75 186.88,0 239.62,0 239.62,-20.75"/>
<text text-anchor="middle" x="213.25" y="-7.25" font-family="Helvetica,sans-Serif" font-size="10.00">stdint.h</text>
</a>
</g>
</g>
<!-- Node4&#45;&gt;Node5 -->
<g id="edge4_Node000004_Node000005" class="edge">
<title>Node4&#45;&gt;Node5</title>
<g id="a_edge4_Node000004_Node000005"><a xlink:title=" ">
<path fill="none" stroke="#63b8ff" d="M213.25,-56.34C213.25,-49.72 213.25,-40.72 213.25,-32.52"/>
<polygon fill="#63b8ff" stroke="#63b8ff" points="216.75,-32.59 213.25,-22.59 209.75,-32.59 216.75,-32.59"/>
</a>
</g>
</g>
</g>
</svg>
