<?xml version="1.0" encoding="UTF-8" standalone="no"?>
<!DOCTYPE svg PUBLIC "-//W3C//DTD SVG 1.1//EN"
 "http://www.w3.org/Graphics/SVG/1.1/DTD/svg11.dtd">
<!-- Generated by graphviz version 12.2.1 (20241206.2353)
 -->
<!-- Title: led_strip_config_t Pages: 1 -->
<svg width="634pt" height="132pt"
 viewBox="0.00 0.00 634.25 132.12" xmlns="http://www.w3.org/2000/svg" xmlns:xlink="http://www.w3.org/1999/xlink">
<g id="graph0" class="graph" transform="scale(1 1) rotate(0) translate(4 128.12)">
<title>led_strip_config_t</title>
<!-- Node1 -->
<g id="Node000001" class="node">
<title>Node1</title>
<g id="a_Node000001"><a xlink:title="LED Strip common configurations The common configurations are not specific to any backend peripheral.">
<polygon fill="#999999" stroke="#666666" points="626.25,-65.75 524.75,-65.75 524.75,-45 626.25,-45 626.25,-65.75"/>
<text text-anchor="middle" x="575.5" y="-52.25" font-family="Helvetica,sans-Serif" font-size="10.00">led_strip_config_t</text>
</a>
</g>
</g>
<!-- Node2 -->
<g id="Node000002" class="node">
<title>Node2</title>
<g id="a_Node000002"><a xlink:href="../../d4/d88/led__strip__types_8h.html#d7/d22/unionled__color__component__format__t" target="_top" xlink:title="LED color component format.">
<polygon fill="white" stroke="#666666" points="347,-124.12 226.75,-124.12 226.75,-90.62 347,-90.62 347,-124.12"/>
<text text-anchor="start" x="234.75" y="-110.62" font-family="Helvetica,sans-Serif" font-size="10.00">led_color_component</text>
<text text-anchor="middle" x="286.88" y="-97.88" font-family="Helvetica,sans-Serif" font-size="10.00">_format_t</text>
</a>
</g>
</g>
<!-- Node2&#45;&gt;Node1 -->
<g id="edge1_Node000001_Node000002" class="edge">
<title>Node2&#45;&gt;Node1</title>
<g id="a_edge1_Node000001_Node000002"><a xlink:title=" ">
<path fill="none" stroke="#9a32cd" stroke-dasharray="5,2" d="M358.33,-97.7C401.37,-91.4 457.44,-82.48 506.75,-72.38 515.54,-70.57 524.91,-68.39 533.79,-66.2"/>
<polygon fill="#9a32cd" stroke="#9a32cd" points="358.01,-94.21 348.62,-99.11 359.01,-101.14 358.01,-94.21"/>
</a>
</g>
<text text-anchor="middle" x="444.12" y="-97.35" font-family="Helvetica,sans-Serif" font-size="10.00" fill="grey"> color_component_format</text>
</g>
<!-- Node3 -->
<g id="Node000003" class="node">
<title>Node3</title>
<g id="a_Node000003"><a xlink:href="../../d4/d88/led__strip__types_8h.html#d4/d07/structled__color__component__format__t_1_1format__layout" target="_top" xlink:title=" ">
<polygon fill="white" stroke="#666666" points="138.25,-124.12 0,-124.12 0,-90.62 138.25,-90.62 138.25,-124.12"/>
<text text-anchor="start" x="8" y="-110.62" font-family="Helvetica,sans-Serif" font-size="10.00">led_color_component</text>
<text text-anchor="middle" x="69.12" y="-97.88" font-family="Helvetica,sans-Serif" font-size="10.00">_format_t::format_layout</text>
</a>
</g>
</g>
<!-- Node3&#45;&gt;Node2 -->
<g id="edge2_Node000002_Node000003" class="edge">
<title>Node3&#45;&gt;Node2</title>
<g id="a_edge2_Node000002_Node000003"><a xlink:title=" ">
<path fill="none" stroke="#9a32cd" stroke-dasharray="5,2" d="M150.14,-107.38C175.46,-107.38 202.98,-107.38 226.58,-107.38"/>
<polygon fill="#9a32cd" stroke="#9a32cd" points="150.2,-103.88 140.2,-107.38 150.2,-110.88 150.2,-103.88"/>
</a>
</g>
<text text-anchor="middle" x="174.25" y="-110.62" font-family="Helvetica,sans-Serif" font-size="10.00" fill="grey"> format</text>
</g>
<!-- Node4 -->
<g id="Node000004" class="node">
<title>Node4</title>
<g id="a_Node000004"><a xlink:href="../../d4/d88/led__strip__types_8h.html#df/dcf/structled__strip__config__t_1_1led__strip__extra__flags" target="_top" xlink:title=" ">
<polygon fill="white" stroke="#666666" points="348.5,-72.12 225.25,-72.12 225.25,-38.62 348.5,-38.62 348.5,-72.12"/>
<text text-anchor="start" x="233.25" y="-58.62" font-family="Helvetica,sans-Serif" font-size="10.00">led_strip_config_t</text>
<text text-anchor="middle" x="286.88" y="-45.88" font-family="Helvetica,sans-Serif" font-size="10.00">::led_strip_extra_flags</text>
</a>
</g>
</g>
<!-- Node4&#45;&gt;Node1 -->
<g id="edge3_Node000001_Node000004" class="edge">
<title>Node4&#45;&gt;Node1</title>
<g id="a_edge3_Node000001_Node000004"><a xlink:title=" ">
<path fill="none" stroke="#9a32cd" stroke-dasharray="5,2" d="M360,-55.38C411.26,-55.38 478.82,-55.38 524.31,-55.38"/>
<polygon fill="#9a32cd" stroke="#9a32cd" points="360.17,-51.88 350.17,-55.38 360.17,-58.88 360.17,-51.88"/>
</a>
</g>
<text text-anchor="middle" x="444.12" y="-58.62" font-family="Helvetica,sans-Serif" font-size="10.00" fill="grey"> flags</text>
</g>
<!-- Node5 -->
<g id="Node000005" class="node">
<title>Node5</title>
<g id="a_Node000005"><a xlink:href="../../d4/d88/led__strip__types_8h.html#dc/d66/structled__strip__encoder__timings__t" target="_top" xlink:title="LED strip encoder timings.">
<polygon fill="white" stroke="#666666" points="363.5,-20.75 210.25,-20.75 210.25,0 363.5,0 363.5,-20.75"/>
<text text-anchor="middle" x="286.88" y="-7.25" font-family="Helvetica,sans-Serif" font-size="10.00">led_strip_encoder_timings_t</text>
</a>
</g>
</g>
<!-- Node5&#45;&gt;Node1 -->
<g id="edge4_Node000001_Node000005" class="edge">
<title>Node5&#45;&gt;Node1</title>
<g id="a_edge4_Node000001_Node000005"><a xlink:title=" ">
<path fill="none" stroke="#9a32cd" stroke-dasharray="5,2" d="M375.31,-19.35C415.52,-24.06 463.73,-30.56 506.75,-38.62 515.56,-40.28 524.94,-42.37 533.82,-44.52"/>
<polygon fill="#9a32cd" stroke="#9a32cd" points="375.77,-15.88 365.43,-18.21 374.96,-22.83 375.77,-15.88"/>
</a>
</g>
<text text-anchor="middle" x="444.12" y="-41.88" font-family="Helvetica,sans-Serif" font-size="10.00" fill="grey"> timings</text>
</g>
</g>
</svg>
