<?xml version="1.0" encoding="UTF-8" standalone="no"?>
<!DOCTYPE svg PUBLIC "-//W3C//DTD SVG 1.1//EN"
 "http://www.w3.org/Graphics/SVG/1.1/DTD/svg11.dtd">
<!-- Generated by graphviz version 12.2.1 (20241206.2353)
 -->
<!-- Title: loop Pages: 1 -->
<svg width="590pt" height="525pt"
 viewBox="0.00 0.00 589.50 525.12" xmlns="http://www.w3.org/2000/svg" xmlns:xlink="http://www.w3.org/1999/xlink">
<g id="graph0" class="graph" transform="scale(1 1) rotate(0) translate(4 521.12)">
<title>loop</title>
<!-- Node1 -->
<g id="Node000001" class="node">
<title>Node1</title>
<g id="a_Node000001"><a xlink:title=" ">
<polygon fill="#999999" stroke="#666666" points="37,-139.75 0,-139.75 0,-119 37,-119 37,-139.75"/>
<text text-anchor="middle" x="18.5" y="-126.25" font-family="Helvetica,sans-Serif" font-size="10.00">loop</text>
</a>
</g>
</g>
<!-- Node2 -->
<g id="Node000002" class="node">
<title>Node2</title>
<g id="a_Node000002"><a xlink:href="../../dd/dbb/class_c_fast_l_e_d.html#a83afdd1e2a21f33ac4f8d2610d6e331b" target="_top" xlink:title="Update all our controllers with the current led colors, using the passed in brightness.">
<polygon fill="white" stroke="#666666" points="169.62,-259.75 77.12,-259.75 77.12,-239 169.62,-239 169.62,-259.75"/>
<text text-anchor="middle" x="123.38" y="-246.25" font-family="Helvetica,sans-Serif" font-size="10.00">CFastLED::show</text>
</a>
</g>
</g>
<!-- Node1&#45;&gt;Node2 -->
<g id="edge1_Node000001_Node000002" class="edge">
<title>Node1&#45;&gt;Node2</title>
<g id="a_edge1_Node000001_Node000002"><a xlink:title=" ">
<path fill="none" stroke="#63b8ff" d="M28.63,-140.02C45.97,-160.25 83.91,-204.5 105.83,-230.08"/>
<polygon fill="#63b8ff" stroke="#63b8ff" points="102.97,-232.11 112.13,-237.43 108.28,-227.56 102.97,-232.11"/>
</a>
</g>
</g>
<!-- Node22 -->
<g id="Node000022" class="node">
<title>Node22</title>
<g id="a_Node000022"><a xlink:href="../../dd/db4/_h_d107_8ino.html#a3846c2e5efbf9845a845f01ec7af35ff" target="_top" xlink:title=" ">
<polygon fill="white" stroke="#666666" points="173.75,-120.75 73,-120.75 73,-100 173.75,-100 173.75,-120.75"/>
<text text-anchor="middle" x="123.38" y="-107.25" font-family="Helvetica,sans-Serif" font-size="10.00">software_gamma</text>
</a>
</g>
</g>
<!-- Node1&#45;&gt;Node22 -->
<g id="edge24_Node000001_Node000022" class="edge">
<title>Node1&#45;&gt;Node22</title>
<g id="a_edge24_Node000001_Node000022"><a xlink:title=" ">
<path fill="none" stroke="#63b8ff" d="M37.42,-126.07C44.38,-124.78 52.79,-123.23 61.58,-121.6"/>
<polygon fill="#63b8ff" stroke="#63b8ff" points="62.15,-125.06 71.35,-119.8 60.88,-118.17 62.15,-125.06"/>
</a>
</g>
</g>
<!-- Node3 -->
<g id="Node000003" class="node">
<title>Node3</title>
<g id="a_Node000003"><a xlink:href="../../d6/d2c/class_c_l_e_d_controller.html#af9962ef739bdb3b590ee66f3780765d6" target="_top" xlink:title=" ">
<polygon fill="white" stroke="#666666" points="384.75,-458.75 213.5,-458.75 213.5,-438 384.75,-438 384.75,-458.75"/>
<text text-anchor="middle" x="299.12" y="-445.25" font-family="Helvetica,sans-Serif" font-size="10.00">CLEDController::beginShowLeds</text>
</a>
</g>
</g>
<!-- Node2&#45;&gt;Node3 -->
<g id="edge2_Node000002_Node000003" class="edge">
<title>Node2&#45;&gt;Node3</title>
<g id="a_edge2_Node000002_Node000003"><a xlink:title=" ">
<path fill="none" stroke="#63b8ff" d="M126.36,-259.91C132.64,-290.36 155.05,-379.13 209.75,-424.38 213.65,-427.6 217.94,-430.39 222.47,-432.81"/>
<polygon fill="#63b8ff" stroke="#63b8ff" points="220.78,-435.88 231.32,-436.9 223.71,-429.53 220.78,-435.88"/>
</a>
</g>
</g>
<!-- Node5 -->
<g id="Node000005" class="node">
<title>Node5</title>
<g id="a_Node000005"><a xlink:href="../../d6/d2c/class_c_l_e_d_controller.html#a63f75cf7e55cf8da46db5fd27110bb3e" target="_top" xlink:title="How many LEDs does this controller manage?">
<polygon fill="white" stroke="#666666" points="560.5,-433.75 445.5,-433.75 445.5,-413 560.5,-413 560.5,-433.75"/>
<text text-anchor="middle" x="503" y="-420.25" font-family="Helvetica,sans-Serif" font-size="10.00">CLEDController::size</text>
</a>
</g>
</g>
<!-- Node2&#45;&gt;Node5 -->
<g id="edge23_Node000002_Node000005" class="edge">
<title>Node2&#45;&gt;Node5</title>
<g id="a_edge23_Node000002_Node000005"><a xlink:title=" ">
<path fill="none" stroke="#63b8ff" d="M127.16,-259.85C134.97,-286.95 159.84,-359.43 209.75,-391.38 245.74,-414.4 359.63,-421 434.15,-422.8"/>
<polygon fill="#63b8ff" stroke="#63b8ff" points="433.71,-426.3 443.79,-423.01 433.87,-419.3 433.71,-426.3"/>
</a>
</g>
</g>
<!-- Node6 -->
<g id="Node000006" class="node">
<title>Node6</title>
<g id="a_Node000006"><a xlink:href="../../dd/dbb/class_c_fast_l_e_d.html#a61d27e179c9b68bde89d220aebc0de32" target="_top" xlink:title="For debugging, this will keep track of time between calls to countFPS().">
<polygon fill="white" stroke="#666666" points="355.12,-304.75 243.12,-304.75 243.12,-284 355.12,-284 355.12,-304.75"/>
<text text-anchor="middle" x="299.12" y="-291.25" font-family="Helvetica,sans-Serif" font-size="10.00">CFastLED::countFPS</text>
</a>
</g>
</g>
<!-- Node2&#45;&gt;Node6 -->
<g id="edge5_Node000002_Node000006" class="edge">
<title>Node2&#45;&gt;Node6</title>
<g id="a_edge5_Node000002_Node000006"><a xlink:title=" ">
<path fill="none" stroke="#63b8ff" d="M157.44,-260.15C173.19,-265.1 192.35,-270.86 209.75,-275.38 217.29,-277.33 225.22,-279.24 233.12,-281.05"/>
<polygon fill="#63b8ff" stroke="#63b8ff" points="232.21,-284.43 242.73,-283.21 233.74,-277.6 232.21,-284.43"/>
</a>
</g>
</g>
<!-- Node7 -->
<g id="Node000007" class="node">
<title>Node7</title>
<g id="a_Node000007"><a xlink:href="../../d6/d2c/class_c_l_e_d_controller.html#a49b221af013bf196c2068e2cbd1c299d" target="_top" xlink:title=" ">
<polygon fill="white" stroke="#666666" points="380.25,-59.75 218,-59.75 218,-39 380.25,-39 380.25,-59.75"/>
<text text-anchor="middle" x="299.12" y="-46.25" font-family="Helvetica,sans-Serif" font-size="10.00">CLEDController::endShowLeds</text>
</a>
</g>
</g>
<!-- Node2&#45;&gt;Node7 -->
<g id="edge6_Node000002_Node000007" class="edge">
<title>Node2&#45;&gt;Node7</title>
<g id="a_edge6_Node000002_Node000007"><a xlink:title=" ">
<path fill="none" stroke="#63b8ff" d="M128.8,-238.68C144.18,-201.72 195.14,-81.08 209.75,-69.38 211.5,-67.97 213.33,-66.67 215.22,-65.45"/>
<polygon fill="#63b8ff" stroke="#63b8ff" points="216.71,-68.62 223.83,-60.78 213.37,-62.47 216.71,-68.62"/>
</a>
</g>
</g>
<!-- Node8 -->
<g id="Node000008" class="node">
<title>Node8</title>
<g id="a_Node000008"><a xlink:href="../../d6/d2c/class_c_l_e_d_controller.html#a2a231accbeb00e6a6080a7e55274a279" target="_top" xlink:title="Set the dithering mode for this controller to use.">
<polygon fill="white" stroke="#666666" points="573.25,-133.75 432.75,-133.75 432.75,-113 573.25,-113 573.25,-133.75"/>
<text text-anchor="middle" x="503" y="-120.25" font-family="Helvetica,sans-Serif" font-size="10.00">CLEDController::setDither</text>
</a>
</g>
</g>
<!-- Node2&#45;&gt;Node8 -->
<g id="edge20_Node000002_Node000008" class="edge">
<title>Node2&#45;&gt;Node8</title>
<g id="a_edge20_Node000002_Node000008"><a xlink:title=" ">
<path fill="none" stroke="#63b8ff" d="M157.43,-238.58C173.19,-233.63 192.35,-227.87 209.75,-223.38 288.39,-203.08 312.34,-213.58 388.5,-185.38 420.27,-173.61 454.02,-154.17 476.38,-140.2"/>
<polygon fill="#63b8ff" stroke="#63b8ff" points="477.96,-143.34 484.52,-135.02 474.21,-137.43 477.96,-143.34"/>
</a>
</g>
</g>
<!-- Node9 -->
<g id="Node000009" class="node">
<title>Node9</title>
<g id="a_Node000009"><a xlink:href="../../d6/d2c/class_c_l_e_d_controller.html#a6bd253f670640ea4d1bd0d71b8029f2a" target="_top" xlink:title=" ">
<polygon fill="white" stroke="#666666" points="374.25,-176.75 224,-176.75 224,-156 374.25,-156 374.25,-176.75"/>
<text text-anchor="middle" x="299.12" y="-163.25" font-family="Helvetica,sans-Serif" font-size="10.00">CLEDController::getEnabled</text>
</a>
</g>
</g>
<!-- Node2&#45;&gt;Node9 -->
<g id="edge8_Node000002_Node000009" class="edge">
<title>Node2&#45;&gt;Node9</title>
<g id="a_edge8_Node000002_Node000009"><a xlink:title=" ">
<path fill="none" stroke="#63b8ff" d="M136.84,-238.7C152.77,-225.58 181.65,-203.43 209.75,-190.38 217.95,-186.56 226.87,-183.26 235.78,-180.43"/>
<polygon fill="#63b8ff" stroke="#63b8ff" points="236.57,-183.85 245.15,-177.64 234.57,-177.14 236.57,-183.85"/>
</a>
</g>
</g>
<!-- Node10 -->
<g id="Node000010" class="node">
<title>Node10</title>
<g id="a_Node000010"><a xlink:href="../../d6/d2c/class_c_l_e_d_controller.html#a8b412ff1fd4833d0db63a175d40a2ee0" target="_top" xlink:title="Get the first LED controller in the linked list of controllers.">
<polygon fill="white" stroke="#666666" points="358.88,-137.75 239.38,-137.75 239.38,-117 358.88,-117 358.88,-137.75"/>
<text text-anchor="middle" x="299.12" y="-124.25" font-family="Helvetica,sans-Serif" font-size="10.00">CLEDController::head</text>
</a>
</g>
</g>
<!-- Node2&#45;&gt;Node10 -->
<g id="edge9_Node000002_Node000010" class="edge">
<title>Node2&#45;&gt;Node10</title>
<g id="a_edge9_Node000002_Node000010"><a xlink:title=" ">
<path fill="none" stroke="#63b8ff" d="M130.06,-238.76C141.9,-217.74 171.32,-170.84 209.75,-147.38 215.43,-143.91 221.64,-141.04 228.05,-138.67"/>
<polygon fill="#63b8ff" stroke="#63b8ff" points="229.11,-142.01 237.55,-135.6 226.95,-135.35 229.11,-142.01"/>
</a>
</g>
</g>
<!-- Node11 -->
<g id="Node000011" class="node">
<title>Node11</title>
<g id="a_Node000011"><a xlink:href="../../d6/d2c/class_c_l_e_d_controller.html#a21a4d2b3415dd7b24175ebdb51c9ced0" target="_top" xlink:title="Get the next controller in the linked list after this one.">
<polygon fill="white" stroke="#666666" points="357.75,-98.75 240.5,-98.75 240.5,-78 357.75,-78 357.75,-98.75"/>
<text text-anchor="middle" x="299.12" y="-85.25" font-family="Helvetica,sans-Serif" font-size="10.00">CLEDController::next</text>
</a>
</g>
</g>
<!-- Node2&#45;&gt;Node11 -->
<g id="edge10_Node000002_Node000011" class="edge">
<title>Node2&#45;&gt;Node11</title>
<g id="a_edge10_Node000002_Node000011"><a xlink:title=" ">
<path fill="none" stroke="#63b8ff" d="M127.65,-238.51C136.3,-211.78 162.39,-142.51 209.75,-108.38 215.75,-104.05 222.53,-100.64 229.6,-97.95"/>
<polygon fill="#63b8ff" stroke="#63b8ff" points="230.25,-101.42 238.67,-94.98 228.08,-94.77 230.25,-101.42"/>
</a>
</g>
</g>
<!-- Node12 -->
<g id="Node000012" class="node">
<title>Node12</title>
<g id="a_Node000012"><a xlink:href="../../de/dca/classfl_1_1_engine_events.html#a7147debfba714b8ab0925af1a7c935c0" target="_top" xlink:title=" ">
<polygon fill="white" stroke="#666666" points="369,-266.12 229.25,-266.12 229.25,-232.62 369,-232.62 369,-266.12"/>
<text text-anchor="start" x="237.25" y="-252.62" font-family="Helvetica,sans-Serif" font-size="10.00">fl::EngineEvents::onBegin</text>
<text text-anchor="middle" x="299.12" y="-239.88" font-family="Helvetica,sans-Serif" font-size="10.00">Frame</text>
</a>
</g>
</g>
<!-- Node2&#45;&gt;Node12 -->
<g id="edge11_Node000002_Node000012" class="edge">
<title>Node2&#45;&gt;Node12</title>
<g id="a_edge11_Node000002_Node000012"><a xlink:title=" ">
<path fill="none" stroke="#63b8ff" d="M170.03,-249.38C184.65,-249.38 201.3,-249.38 217.65,-249.38"/>
<polygon fill="#63b8ff" stroke="#63b8ff" points="217.38,-252.88 227.38,-249.38 217.38,-245.88 217.38,-252.88"/>
</a>
</g>
</g>
<!-- Node16 -->
<g id="Node000016" class="node">
<title>Node16</title>
<g id="a_Node000016"><a xlink:href="../../de/dca/classfl_1_1_engine_events.html#ab7d24c4783214392de84947cd7df5570" target="_top" xlink:title=" ">
<polygon fill="white" stroke="#666666" points="379.5,-382.75 218.75,-382.75 218.75,-362 379.5,-362 379.5,-382.75"/>
<text text-anchor="middle" x="299.12" y="-369.25" font-family="Helvetica,sans-Serif" font-size="10.00">fl::EngineEvents::onEndFrame</text>
</a>
</g>
</g>
<!-- Node2&#45;&gt;Node16 -->
<g id="edge14_Node000002_Node000016" class="edge">
<title>Node2&#45;&gt;Node16</title>
<g id="a_edge14_Node000002_Node000016"><a xlink:title=" ">
<path fill="none" stroke="#63b8ff" d="M130.03,-260.1C141.82,-281.32 171.15,-328.68 209.75,-352.38 212.67,-354.17 215.74,-355.8 218.9,-357.29"/>
<polygon fill="#63b8ff" stroke="#63b8ff" points="217.3,-360.42 227.88,-360.98 219.96,-353.94 217.3,-360.42"/>
</a>
</g>
</g>
<!-- Node18 -->
<g id="Node000018" class="node">
<title>Node18</title>
<g id="a_Node000018"><a xlink:href="../../de/dca/classfl_1_1_engine_events.html#af1bb9a46fdc6694a1b5c87a49c516ae8" target="_top" xlink:title=" ">
<polygon fill="white" stroke="#666666" points="388.5,-343.75 209.75,-343.75 209.75,-323 388.5,-323 388.5,-343.75"/>
<text text-anchor="middle" x="299.12" y="-330.25" font-family="Helvetica,sans-Serif" font-size="10.00">fl::EngineEvents::onEndShowLeds</text>
</a>
</g>
</g>
<!-- Node2&#45;&gt;Node18 -->
<g id="edge17_Node000002_Node000018" class="edge">
<title>Node2&#45;&gt;Node18</title>
<g id="a_edge17_Node000002_Node000018"><a xlink:title=" ">
<path fill="none" stroke="#63b8ff" d="M135.51,-260.21C150.9,-274.58 180.15,-299.7 209.75,-313.38 214.5,-315.57 219.5,-317.53 224.62,-319.28"/>
<polygon fill="#63b8ff" stroke="#63b8ff" points="223.2,-322.51 233.78,-322.14 225.28,-315.82 223.2,-322.51"/>
</a>
</g>
</g>
<!-- Node20 -->
<g id="Node000020" class="node">
<title>Node20</title>
<g id="a_Node000020"><a xlink:href="../../d6/d2c/class_c_l_e_d_controller.html#ac5355e980ac13d9ae97561f183f73990" target="_top" xlink:title="Write the data to the LEDs managed by this controller.">
<polygon fill="white" stroke="#666666" points="370.88,-517.12 227.38,-517.12 227.38,-483.62 370.88,-483.62 370.88,-517.12"/>
<text text-anchor="start" x="235.38" y="-503.62" font-family="Helvetica,sans-Serif" font-size="10.00">CLEDController::showLeds</text>
<text text-anchor="middle" x="299.12" y="-490.88" font-family="Helvetica,sans-Serif" font-size="10.00">Internal</text>
</a>
</g>
</g>
<!-- Node2&#45;&gt;Node20 -->
<g id="edge21_Node000002_Node000020" class="edge">
<title>Node2&#45;&gt;Node20</title>
<g id="a_edge21_Node000002_Node000020"><a xlink:title=" ">
<path fill="none" stroke="#63b8ff" d="M125.51,-260.13C129.75,-295.02 147.76,-406.36 209.75,-467.38 213.63,-471.19 217.99,-474.58 222.65,-477.58"/>
<polygon fill="#63b8ff" stroke="#63b8ff" points="220.82,-480.56 231.24,-482.45 224.27,-474.47 220.82,-480.56"/>
</a>
</g>
</g>
<!-- Node4 -->
<g id="Node000004" class="node">
<title>Node4</title>
<g id="a_Node000004"><a xlink:href="../../d6/d2c/class_c_l_e_d_controller.html#a676f705adf93898739a405b85150a3e7" target="_top" xlink:title="Get the dithering option currently set for this controller.">
<polygon fill="white" stroke="#666666" points="573.62,-472.75 432.38,-472.75 432.38,-452 573.62,-452 573.62,-472.75"/>
<text text-anchor="middle" x="503" y="-459.25" font-family="Helvetica,sans-Serif" font-size="10.00">CLEDController::getDither</text>
</a>
</g>
</g>
<!-- Node3&#45;&gt;Node4 -->
<g id="edge3_Node000003_Node000004" class="edge">
<title>Node3&#45;&gt;Node4</title>
<g id="a_edge3_Node000003_Node000004"><a xlink:title=" ">
<path fill="none" stroke="#63b8ff" d="M385.15,-454.27C396.99,-455.09 409.13,-455.93 420.9,-456.75"/>
<polygon fill="#63b8ff" stroke="#63b8ff" points="420.32,-460.22 430.53,-457.42 420.8,-453.24 420.32,-460.22"/>
</a>
</g>
</g>
<!-- Node3&#45;&gt;Node5 -->
<g id="edge4_Node000003_Node000005" class="edge">
<title>Node3&#45;&gt;Node5</title>
<g id="a_edge4_Node000003_Node000005"><a xlink:title=" ">
<path fill="none" stroke="#63b8ff" d="M385.15,-437.85C401.45,-435.83 418.32,-433.74 434,-431.8"/>
<polygon fill="#63b8ff" stroke="#63b8ff" points="434.19,-435.3 443.68,-430.6 433.33,-428.35 434.19,-435.3"/>
</a>
</g>
</g>
<!-- Node7&#45;&gt;Node8 -->
<g id="edge7_Node000007_Node000008" class="edge">
<title>Node7&#45;&gt;Node8</title>
<g id="a_edge7_Node000007_Node000008"><a xlink:title=" ">
<path fill="none" stroke="#63b8ff" d="M356.75,-60.23C367.42,-62.82 378.39,-65.88 388.5,-69.38 418.23,-79.67 450.47,-95.49 472.96,-107.36"/>
<polygon fill="#63b8ff" stroke="#63b8ff" points="471.07,-110.31 481.54,-111.94 474.37,-104.14 471.07,-110.31"/>
</a>
</g>
</g>
<!-- Node13 -->
<g id="Node000013" class="node">
<title>Node13</title>
<g id="a_Node000013"><a xlink:href="../../de/dca/classfl_1_1_engine_events.html#a9dfab83407c4cb0c15065e242d49de62" target="_top" xlink:title=" ">
<polygon fill="white" stroke="#666666" points="553,-253.12 453,-253.12 453,-219.62 553,-219.62 553,-253.12"/>
<text text-anchor="start" x="461" y="-239.62" font-family="Helvetica,sans-Serif" font-size="10.00">fl::EngineEvents::</text>
<text text-anchor="middle" x="503" y="-226.88" font-family="Helvetica,sans-Serif" font-size="10.00">_onBeginFrame</text>
</a>
</g>
</g>
<!-- Node12&#45;&gt;Node13 -->
<g id="edge12_Node000012_Node000013" class="edge">
<title>Node12&#45;&gt;Node13</title>
<g id="a_edge12_Node000012_Node000013"><a xlink:title=" ">
<path fill="none" stroke="#63b8ff" d="M369.32,-244.92C392.75,-243.41 418.73,-241.74 441.44,-240.28"/>
<polygon fill="#63b8ff" stroke="#63b8ff" points="441.38,-243.79 451.13,-239.65 440.93,-236.8 441.38,-243.79"/>
</a>
</g>
</g>
<!-- Node14 -->
<g id="Node000014" class="node">
<title>Node14</title>
<g id="a_Node000014"><a xlink:href="../../de/dca/classfl_1_1_engine_events.html#a34a4625c4fbcf754f70820bc4f0e418b" target="_top" xlink:title=" ">
<polygon fill="#fff0f0" stroke="red" points="581.5,-291.75 424.5,-291.75 424.5,-271 581.5,-271 581.5,-291.75"/>
<text text-anchor="middle" x="503" y="-278.25" font-family="Helvetica,sans-Serif" font-size="10.00">fl::EngineEvents::getInstance</text>
</a>
</g>
</g>
<!-- Node12&#45;&gt;Node14 -->
<g id="edge13_Node000012_Node000014" class="edge">
<title>Node12&#45;&gt;Node14</title>
<g id="a_edge13_Node000012_Node000014"><a xlink:title=" ">
<path fill="none" stroke="#63b8ff" d="M369.32,-260.34C386.36,-263.04 404.74,-265.96 422.24,-268.73"/>
<polygon fill="#63b8ff" stroke="#63b8ff" points="421.66,-272.18 432.09,-270.29 422.76,-265.27 421.66,-272.18"/>
</a>
</g>
</g>
<!-- Node16&#45;&gt;Node14 -->
<g id="edge16_Node000016_Node000014" class="edge">
<title>Node16&#45;&gt;Node14</title>
<g id="a_edge16_Node000016_Node000014"><a xlink:title=" ">
<path fill="none" stroke="#63b8ff" d="M370.67,-361.56C376.97,-359.09 383.02,-356.07 388.5,-352.38 411.8,-336.65 401.35,-316.31 424.5,-300.38 426.3,-299.14 428.17,-297.98 430.09,-296.9"/>
<polygon fill="#63b8ff" stroke="#63b8ff" points="431.25,-300.23 438.76,-292.75 428.23,-293.91 431.25,-300.23"/>
</a>
</g>
</g>
<!-- Node17 -->
<g id="Node000017" class="node">
<title>Node17</title>
<g id="a_Node000017"><a xlink:href="../../de/dca/classfl_1_1_engine_events.html#a643d9a8597b79d76daed94c29845e886" target="_top" xlink:title=" ">
<polygon fill="white" stroke="#666666" points="553,-395.12 453,-395.12 453,-361.62 553,-361.62 553,-395.12"/>
<text text-anchor="start" x="461" y="-381.62" font-family="Helvetica,sans-Serif" font-size="10.00">fl::EngineEvents::</text>
<text text-anchor="middle" x="503" y="-368.88" font-family="Helvetica,sans-Serif" font-size="10.00">_onEndFrame</text>
</a>
</g>
</g>
<!-- Node16&#45;&gt;Node17 -->
<g id="edge15_Node000016_Node000017" class="edge">
<title>Node16&#45;&gt;Node17</title>
<g id="a_edge15_Node000016_Node000017"><a xlink:title=" ">
<path fill="none" stroke="#63b8ff" d="M379.91,-374.75C400.36,-375.35 422.02,-376 441.33,-376.57"/>
<polygon fill="#63b8ff" stroke="#63b8ff" points="441.1,-380.07 451.2,-376.87 441.3,-373.07 441.1,-380.07"/>
</a>
</g>
</g>
<!-- Node18&#45;&gt;Node14 -->
<g id="edge19_Node000018_Node000014" class="edge">
<title>Node18&#45;&gt;Node14</title>
<g id="a_edge19_Node000018_Node000014"><a xlink:title=" ">
<path fill="none" stroke="#63b8ff" d="M352.74,-322.59C364.57,-319.86 377.03,-316.73 388.5,-313.38 404.83,-308.6 408.22,-305.3 424.5,-300.38 430.62,-298.53 437.05,-296.73 443.47,-295.02"/>
<polygon fill="#63b8ff" stroke="#63b8ff" points="443.97,-298.51 452.77,-292.62 442.22,-291.73 443.97,-298.51"/>
</a>
</g>
</g>
<!-- Node19 -->
<g id="Node000019" class="node">
<title>Node19</title>
<g id="a_Node000019"><a xlink:href="../../de/dca/classfl_1_1_engine_events.html#ae6b4037ab7b73bf0d69e07c4956f9450" target="_top" xlink:title=" ">
<polygon fill="white" stroke="#666666" points="553,-343.12 453,-343.12 453,-309.62 553,-309.62 553,-343.12"/>
<text text-anchor="start" x="461" y="-329.62" font-family="Helvetica,sans-Serif" font-size="10.00">fl::EngineEvents::</text>
<text text-anchor="middle" x="503" y="-316.88" font-family="Helvetica,sans-Serif" font-size="10.00">_onEndShowLeds</text>
</a>
</g>
</g>
<!-- Node18&#45;&gt;Node19 -->
<g id="edge18_Node000018_Node000019" class="edge">
<title>Node18&#45;&gt;Node19</title>
<g id="a_edge18_Node000018_Node000019"><a xlink:title=" ">
<path fill="none" stroke="#63b8ff" d="M388.96,-330.29C406.76,-329.68 425.06,-329.04 441.61,-328.47"/>
<polygon fill="#63b8ff" stroke="#63b8ff" points="441.38,-331.98 451.25,-328.13 441.14,-324.98 441.38,-331.98"/>
</a>
</g>
</g>
<!-- Node21 -->
<g id="Node000021" class="node">
<title>Node21</title>
<g id="a_Node000021"><a xlink:href="../../d6/d2c/class_c_l_e_d_controller.html#afc8fb063666d03527aabc86d8531e007" target="_top" xlink:title="Write the passed in RGB data out to the LEDs managed by this controller.">
<polygon fill="white" stroke="#666666" points="563.5,-511.75 442.5,-511.75 442.5,-491 563.5,-491 563.5,-511.75"/>
<text text-anchor="middle" x="503" y="-498.25" font-family="Helvetica,sans-Serif" font-size="10.00">CLEDController::show</text>
</a>
</g>
</g>
<!-- Node20&#45;&gt;Node21 -->
<g id="edge22_Node000020_Node000021" class="edge">
<title>Node20&#45;&gt;Node21</title>
<g id="a_edge22_Node000020_Node000021"><a xlink:title=" ">
<path fill="none" stroke="#63b8ff" d="M371.3,-500.73C390.57,-500.82 411.42,-500.93 430.7,-501.02"/>
<polygon fill="#63b8ff" stroke="#63b8ff" points="430.62,-504.52 440.64,-501.07 430.66,-497.52 430.62,-504.52"/>
</a>
</g>
</g>
<!-- Node23 -->
<g id="Node000023" class="node">
<title>Node23</title>
<g id="a_Node000023"><a xlink:href="../../dc/d3e/group___dimming.html#gae51352a3522bb8eae5e17dbee97aa1aa" target="_top" xlink:title="Adjust a scaling value for dimming.">
<polygon fill="white" stroke="#666666" points="331.12,-20.75 267.12,-20.75 267.12,0 331.12,0 331.12,-20.75"/>
<text text-anchor="middle" x="299.12" y="-7.25" font-family="Helvetica,sans-Serif" font-size="10.00">dim8_raw</text>
</a>
</g>
</g>
<!-- Node22&#45;&gt;Node23 -->
<g id="edge25_Node000022_Node000023" class="edge">
<title>Node22&#45;&gt;Node23</title>
<g id="a_edge25_Node000022_Node000023"><a xlink:title=" ">
<path fill="none" stroke="#63b8ff" d="M132.55,-99.67C146.43,-82.29 176.37,-48.08 209.75,-30.38 223.81,-22.91 240.57,-18.23 255.69,-15.29"/>
<polygon fill="#63b8ff" stroke="#63b8ff" points="256.11,-18.76 265.37,-13.62 254.92,-11.87 256.11,-18.76"/>
</a>
</g>
</g>
<!-- Node24 -->
<g id="Node000024" class="node">
<title>Node24</title>
<g id="a_Node000024"><a xlink:href="../../d0/da8/group___scaling.html#gad7535ccda9c92470c4e6ee0265585555" target="_top" xlink:title="Scale one byte by a second one, which is treated as the numerator of a fraction whose denominator is ...">
<polygon fill="white" stroke="#666666" points="526.75,-20.75 479.25,-20.75 479.25,0 526.75,0 526.75,-20.75"/>
<text text-anchor="middle" x="503" y="-7.25" font-family="Helvetica,sans-Serif" font-size="10.00">scale8</text>
</a>
</g>
</g>
<!-- Node23&#45;&gt;Node24 -->
<g id="edge26_Node000023_Node000024" class="edge">
<title>Node23&#45;&gt;Node24</title>
<g id="a_edge26_Node000023_Node000024"><a xlink:title=" ">
<path fill="none" stroke="#63b8ff" d="M331.23,-10.38C368.21,-10.38 429.73,-10.38 467.96,-10.38"/>
<polygon fill="#63b8ff" stroke="#63b8ff" points="467.51,-13.88 477.51,-10.38 467.51,-6.88 467.51,-13.88"/>
</a>
</g>
</g>
</g>
</svg>
