<?xml version="1.0" encoding="UTF-8" standalone="no"?>
<!DOCTYPE svg PUBLIC "-//W3C//DTD SVG 1.1//EN"
 "http://www.w3.org/Graphics/SVG/1.1/DTD/svg11.dtd">
<!-- Generated by graphviz version 12.2.1 (20241206.2353)
 -->
<!-- Title: fl::PirAdvanced::transition Pages: 1 -->
<svg width="571pt" height="68pt"
 viewBox="0.00 0.00 570.75 67.75" xmlns="http://www.w3.org/2000/svg" xmlns:xlink="http://www.w3.org/1999/xlink">
<g id="graph0" class="graph" transform="scale(1 1) rotate(0) translate(4 63.75)">
<title>fl::PirAdvanced::transition</title>
<!-- Node1 -->
<g id="Node000001" class="node">
<title>Node1</title>
<g id="a_Node000001"><a xlink:title=" ">
<polygon fill="#999999" stroke="#666666" points="141.25,-39.75 0,-39.75 0,-19 141.25,-19 141.25,-39.75"/>
<text text-anchor="middle" x="70.62" y="-26.25" font-family="Helvetica,sans-Serif" font-size="10.00">fl::PirAdvanced::transition</text>
</a>
</g>
</g>
<!-- Node2 -->
<g id="Node000002" class="node">
<title>Node2</title>
<g id="a_Node000002"><a xlink:href="../../d6/d4d/classfl_1_1_pir_advanced.html#aef122ef37ba5707909cd04d06a1d5c11" target="_top" xlink:title=" ">
<polygon fill="white" stroke="#666666" points="302.75,-39.75 177.25,-39.75 177.25,-19 302.75,-19 302.75,-39.75"/>
<text text-anchor="middle" x="240" y="-26.25" font-family="Helvetica,sans-Serif" font-size="10.00">fl::PirAdvanced::detect</text>
</a>
</g>
</g>
<!-- Node1&#45;&gt;Node2 -->
<g id="edge1_Node000001_Node000002" class="edge">
<title>Node1&#45;&gt;Node2</title>
<g id="a_edge1_Node000001_Node000002"><a xlink:title=" ">
<path fill="none" stroke="#63b8ff" d="M141.64,-29.38C149.52,-29.38 157.57,-29.38 165.5,-29.38"/>
<polygon fill="#63b8ff" stroke="#63b8ff" points="165.48,-32.88 175.48,-29.38 165.48,-25.88 165.48,-32.88"/>
</a>
</g>
</g>
<!-- Node3 -->
<g id="Node000003" class="node">
<title>Node3</title>
<g id="a_Node000003"><a xlink:href="../../db/db1/classfl_1_1_pir.html#a51c2e10c600bc91e58b2ef2bf803b4a2" target="_top" xlink:title=" ">
<polygon fill="white" stroke="#666666" points="416.25,-39.75 338.75,-39.75 338.75,-19 416.25,-19 416.25,-39.75"/>
<text text-anchor="middle" x="377.5" y="-26.25" font-family="Helvetica,sans-Serif" font-size="10.00">fl::Pir::detect</text>
</a>
</g>
</g>
<!-- Node2&#45;&gt;Node3 -->
<g id="edge2_Node000002_Node000003" class="edge">
<title>Node2&#45;&gt;Node3</title>
<g id="a_edge2_Node000002_Node000003"><a xlink:title=" ">
<path fill="none" stroke="#63b8ff" d="M303.2,-29.38C311.14,-29.38 319.19,-29.38 326.9,-29.38"/>
<polygon fill="#63b8ff" stroke="#63b8ff" points="326.77,-32.88 336.77,-29.38 326.77,-25.88 326.77,-32.88"/>
</a>
</g>
</g>
<!-- Node4 -->
<g id="Node000004" class="node">
<title>Node4</title>
<g id="a_Node000004"><a xlink:href="../../d3/d1d/classfl_1_1_u_i_button.html#a744c411f78146946d0f72366605e781a" target="_top" xlink:title=" ">
<polygon fill="white" stroke="#666666" points="562.75,-59.75 452.25,-59.75 452.25,-39 562.75,-39 562.75,-59.75"/>
<text text-anchor="middle" x="507.5" y="-46.25" font-family="Helvetica,sans-Serif" font-size="10.00">fl::UIButton::clicked</text>
</a>
</g>
</g>
<!-- Node3&#45;&gt;Node4 -->
<g id="edge3_Node000003_Node000004" class="edge">
<title>Node3&#45;&gt;Node4</title>
<g id="a_edge3_Node000003_Node000004"><a xlink:title=" ">
<path fill="none" stroke="#63b8ff" d="M416.56,-35.32C424.16,-36.51 432.34,-37.79 440.57,-39.07"/>
<polygon fill="#63b8ff" stroke="#63b8ff" points="439.86,-42.5 450.28,-40.59 440.94,-35.59 439.86,-42.5"/>
</a>
</g>
</g>
<!-- Node5 -->
<g id="Node000005" class="node">
<title>Node5</title>
<g id="a_Node000005"><a xlink:href="../../d0/d32/classfl_1_1_digital_pin.html#a98c8722fe4b986f75ea9f8225c377168" target="_top" xlink:title=" ">
<polygon fill="white" stroke="#666666" points="558.62,-20.75 456.38,-20.75 456.38,0 558.62,0 558.62,-20.75"/>
<text text-anchor="middle" x="507.5" y="-7.25" font-family="Helvetica,sans-Serif" font-size="10.00">fl::DigitalPin::high</text>
</a>
</g>
</g>
<!-- Node3&#45;&gt;Node5 -->
<g id="edge4_Node000003_Node000005" class="edge">
<title>Node3&#45;&gt;Node5</title>
<g id="a_edge4_Node000003_Node000005"><a xlink:title=" ">
<path fill="none" stroke="#63b8ff" d="M416.56,-23.73C425.46,-22.4 435.16,-20.96 444.79,-19.53"/>
<polygon fill="#63b8ff" stroke="#63b8ff" points="445.15,-23.02 454.52,-18.09 444.12,-16.1 445.15,-23.02"/>
</a>
</g>
</g>
</g>
</svg>
