<?xml version="1.0" encoding="UTF-8" standalone="no"?>
<!DOCTYPE svg PUBLIC "-//W3C//DTD SVG 1.1//EN"
 "http://www.w3.org/Graphics/SVG/1.1/DTD/svg11.dtd">
<!-- Generated by graphviz version 12.2.1 (20241206.2353)
 -->
<!-- Title: LedRopeTCL::RawBeginDraw Pages: 1 -->
<svg width="523pt" height="68pt"
 viewBox="0.00 0.00 522.50 67.75" xmlns="http://www.w3.org/2000/svg" xmlns:xlink="http://www.w3.org/1999/xlink">
<g id="graph0" class="graph" transform="scale(1 1) rotate(0) translate(4 63.75)">
<title>LedRopeTCL::RawBeginDraw</title>
<!-- Node1 -->
<g id="Node000001" class="node">
<title>Node1</title>
<g id="a_Node000001"><a xlink:title=" ">
<polygon fill="#999999" stroke="#666666" points="155.5,-39.75 0,-39.75 0,-19 155.5,-19 155.5,-39.75"/>
<text text-anchor="middle" x="77.75" y="-26.25" font-family="Helvetica,sans-Serif" font-size="10.00">LedRopeTCL::RawBeginDraw</text>
</a>
</g>
</g>
<!-- Node2 -->
<g id="Node000002" class="node">
<title>Node2</title>
<g id="a_Node000002"><a xlink:href="../../db/ddd/classfl_1_1_heap_vector.html#a6ba2193ee3a2e6f0e8c819bb4c16cc39" target="_top" xlink:title=" ">
<polygon fill="white" stroke="#666666" points="323.75,-59.75 209.5,-59.75 209.5,-39 323.75,-39 323.75,-59.75"/>
<text text-anchor="middle" x="266.62" y="-46.25" font-family="Helvetica,sans-Serif" font-size="10.00">fl::HeapVector::clear</text>
</a>
</g>
</g>
<!-- Node1&#45;&gt;Node2 -->
<g id="edge1_Node000001_Node000002" class="edge">
<title>Node1&#45;&gt;Node2</title>
<g id="a_edge1_Node000001_Node000002"><a xlink:title=" ">
<path fill="none" stroke="#63b8ff" d="M155.84,-37.63C169.82,-39.12 184.31,-40.67 197.99,-42.14"/>
<polygon fill="#63b8ff" stroke="#63b8ff" points="197.45,-45.6 207.76,-43.18 198.19,-38.64 197.45,-45.6"/>
</a>
</g>
</g>
<!-- Node4 -->
<g id="Node000004" class="node">
<title>Node4</title>
<g id="a_Node000004"><a xlink:href="../../d4/df6/class_led_rope_t_c_l.html#a4aada290bc25e4cc5dceb5a521ed935e" target="_top" xlink:title=" ">
<polygon fill="white" stroke="#666666" points="341.75,-20.75 191.5,-20.75 191.5,0 341.75,0 341.75,-20.75"/>
<text text-anchor="middle" x="266.62" y="-7.25" font-family="Helvetica,sans-Serif" font-size="10.00">LedRopeTCL::PreDrawSetup</text>
</a>
</g>
</g>
<!-- Node1&#45;&gt;Node4 -->
<g id="edge3_Node000001_Node000004" class="edge">
<title>Node1&#45;&gt;Node4</title>
<g id="a_edge3_Node000001_Node000004"><a xlink:title=" ">
<path fill="none" stroke="#63b8ff" d="M155.84,-21.54C163.77,-20.73 171.85,-19.91 179.87,-19.09"/>
<polygon fill="#63b8ff" stroke="#63b8ff" points="180.02,-22.6 189.62,-18.1 179.31,-15.63 180.02,-22.6"/>
</a>
</g>
</g>
<!-- Node3 -->
<g id="Node000003" class="node">
<title>Node3</title>
<g id="a_Node000003"><a xlink:href="../../db/ddd/classfl_1_1_heap_vector.html#a6bdcbbf21b478646961663a3e43acff4" target="_top" xlink:title=" ">
<polygon fill="white" stroke="#666666" points="514.5,-59.75 377.75,-59.75 377.75,-39 514.5,-39 514.5,-59.75"/>
<text text-anchor="middle" x="446.12" y="-46.25" font-family="Helvetica,sans-Serif" font-size="10.00">fl::HeapVector::pop_back</text>
</a>
</g>
</g>
<!-- Node2&#45;&gt;Node3 -->
<g id="edge2_Node000002_Node000003" class="edge">
<title>Node2&#45;&gt;Node3</title>
<g id="a_edge2_Node000002_Node000003"><a xlink:title=" ">
<path fill="none" stroke="#63b8ff" d="M323.79,-49.38C337.25,-49.38 351.88,-49.38 366.16,-49.38"/>
<polygon fill="#63b8ff" stroke="#63b8ff" points="366,-52.88 376,-49.38 366,-45.88 366,-52.88"/>
</a>
</g>
</g>
</g>
</svg>
