<?xml version="1.0" encoding="UTF-8" standalone="no"?>
<!DOCTYPE svg PUBLIC "-//W3C//DTD SVG 1.1//EN"
 "http://www.w3.org/Graphics/SVG/1.1/DTD/svg11.dtd">
<!-- Generated by graphviz version 12.2.1 (20241206.2353)
 -->
<!-- Title: LedRopeTCL::RawDrawPixel Pages: 1 -->
<svg width="692pt" height="146pt"
 viewBox="0.00 0.00 691.50 145.75" xmlns="http://www.w3.org/2000/svg" xmlns:xlink="http://www.w3.org/1999/xlink">
<g id="graph0" class="graph" transform="scale(1 1) rotate(0) translate(4 141.75)">
<title>LedRopeTCL::RawDrawPixel</title>
<!-- Node1 -->
<g id="Node000001" class="node">
<title>Node1</title>
<g id="a_Node000001"><a xlink:title=" ">
<polygon fill="#999999" stroke="#666666" points="151,-78.75 0,-78.75 0,-58 151,-58 151,-78.75"/>
<text text-anchor="middle" x="75.5" y="-65.25" font-family="Helvetica,sans-Serif" font-size="10.00">LedRopeTCL::RawDrawPixel</text>
</a>
</g>
</g>
<!-- Node2 -->
<g id="Node000002" class="node">
<title>Node2</title>
<g id="a_Node000002"><a xlink:href="../../d2/d78/classfl_1_1_screen_map.html#a5204df94f85ac93d9f2863b7d4e483fe" target="_top" xlink:title=" ">
<polygon fill="white" stroke="#666666" points="326.38,-137.75 189.62,-137.75 189.62,-117 326.38,-117 326.38,-137.75"/>
<text text-anchor="middle" x="258" y="-124.25" font-family="Helvetica,sans-Serif" font-size="10.00">fl::ScreenMap::getLength</text>
</a>
</g>
</g>
<!-- Node1&#45;&gt;Node2 -->
<g id="edge1_Node000001_Node000002" class="edge">
<title>Node1&#45;&gt;Node2</title>
<g id="a_edge1_Node000001_Node000002"><a xlink:title=" ">
<path fill="none" stroke="#63b8ff" d="M105.42,-79.13C127.62,-87.24 159.09,-98.47 187,-107.38 193.33,-109.39 200,-111.42 206.62,-113.38"/>
<polygon fill="#63b8ff" stroke="#63b8ff" points="205.6,-116.73 216.18,-116.16 207.55,-110.01 205.6,-116.73"/>
</a>
</g>
</g>
<!-- Node3 -->
<g id="Node000003" class="node">
<title>Node3</title>
<g id="a_Node000003"><a xlink:href="../../d3/d1d/classfl_1_1_u_i_button.html#a840152841a9986ba7ca08da3df06353f" target="_top" xlink:title=" ">
<polygon fill="white" stroke="#666666" points="319.62,-98.75 196.38,-98.75 196.38,-78 319.62,-78 319.62,-98.75"/>
<text text-anchor="middle" x="258" y="-85.25" font-family="Helvetica,sans-Serif" font-size="10.00">fl::UIButton::isPressed</text>
</a>
</g>
</g>
<!-- Node1&#45;&gt;Node3 -->
<g id="edge2_Node000001_Node000003" class="edge">
<title>Node1&#45;&gt;Node3</title>
<g id="a_edge2_Node000001_Node000003"><a xlink:title=" ">
<path fill="none" stroke="#63b8ff" d="M151.48,-76.68C162.48,-77.9 173.79,-79.16 184.73,-80.37"/>
<polygon fill="#63b8ff" stroke="#63b8ff" points="184.15,-83.82 194.47,-81.45 184.92,-76.87 184.15,-83.82"/>
</a>
</g>
</g>
<!-- Node4 -->
<g id="Node000004" class="node">
<title>Node4</title>
<g id="a_Node000004"><a xlink:href="../../db/ddd/classfl_1_1_heap_vector.html#a701c6f44506bee8254a5c66a6f132487" target="_top" xlink:title=" ">
<polygon fill="white" stroke="#666666" points="329,-59.75 187,-59.75 187,-39 329,-39 329,-59.75"/>
<text text-anchor="middle" x="258" y="-46.25" font-family="Helvetica,sans-Serif" font-size="10.00">fl::HeapVector::push_back</text>
</a>
</g>
</g>
<!-- Node1&#45;&gt;Node4 -->
<g id="edge3_Node000001_Node000004" class="edge">
<title>Node1&#45;&gt;Node4</title>
<g id="a_edge3_Node000001_Node000004"><a xlink:title=" ">
<path fill="none" stroke="#63b8ff" d="M151.48,-60.48C159.38,-59.65 167.44,-58.8 175.41,-57.96"/>
<polygon fill="#63b8ff" stroke="#63b8ff" points="175.51,-61.47 185.09,-56.94 174.78,-54.51 175.51,-61.47"/>
</a>
</g>
</g>
<!-- Node7 -->
<g id="Node000007" class="node">
<title>Node7</title>
<g id="a_Node000007"><a xlink:href="../../db/ddd/classfl_1_1_heap_vector.html#a37e5c0526e1be1bdc4c17139ac026939" target="_top" xlink:title=" ">
<polygon fill="white" stroke="#666666" points="312.88,-20.75 203.12,-20.75 203.12,0 312.88,0 312.88,-20.75"/>
<text text-anchor="middle" x="258" y="-7.25" font-family="Helvetica,sans-Serif" font-size="10.00">fl::HeapVector::size</text>
</a>
</g>
</g>
<!-- Node1&#45;&gt;Node7 -->
<g id="edge6_Node000001_Node000007" class="edge">
<title>Node1&#45;&gt;Node7</title>
<g id="a_edge6_Node000001_Node000007"><a xlink:title=" ">
<path fill="none" stroke="#63b8ff" d="M106.37,-57.62C128.53,-49.77 159.52,-39.02 187,-30.38 193.33,-28.38 200.02,-26.37 206.64,-24.42"/>
<polygon fill="#63b8ff" stroke="#63b8ff" points="207.56,-27.79 216.19,-21.65 205.61,-21.07 207.56,-27.79"/>
</a>
</g>
</g>
<!-- Node5 -->
<g id="Node000005" class="node">
<title>Node5</title>
<g id="a_Node000005"><a xlink:href="../../db/ddd/classfl_1_1_heap_vector.html#a9654c1f85b2219f36fcf1a6e146d660e" target="_top" xlink:title=" ">
<polygon fill="white" stroke="#666666" points="513,-59.75 365,-59.75 365,-39 513,-39 513,-59.75"/>
<text text-anchor="middle" x="439" y="-46.25" font-family="Helvetica,sans-Serif" font-size="10.00">fl::HeapVector::ensure_size</text>
</a>
</g>
</g>
<!-- Node4&#45;&gt;Node5 -->
<g id="edge4_Node000004_Node000005" class="edge">
<title>Node4&#45;&gt;Node5</title>
<g id="a_edge4_Node000004_Node000005"><a xlink:title=" ">
<path fill="none" stroke="#63b8ff" d="M329.49,-49.38C337.34,-49.38 345.39,-49.38 353.38,-49.38"/>
<polygon fill="#63b8ff" stroke="#63b8ff" points="353.12,-52.88 363.12,-49.38 353.12,-45.88 353.12,-52.88"/>
</a>
</g>
</g>
<!-- Node6 -->
<g id="Node000006" class="node">
<title>Node6</title>
<g id="a_Node000006"><a xlink:href="../../d3/d92/classfl_1_1scoped__array.html#a9b968a7427441d9c8abac6707a95bb9f" target="_top" xlink:title=" ">
<polygon fill="white" stroke="#666666" points="683.5,-59.75 549,-59.75 549,-39 683.5,-39 683.5,-59.75"/>
<text text-anchor="middle" x="616.25" y="-46.25" font-family="Helvetica,sans-Serif" font-size="10.00">fl::scoped_array::release</text>
</a>
</g>
</g>
<!-- Node5&#45;&gt;Node6 -->
<g id="edge5_Node000005_Node000006" class="edge">
<title>Node5&#45;&gt;Node6</title>
<g id="a_edge5_Node000005_Node000006"><a xlink:title=" ">
<path fill="none" stroke="#63b8ff" d="M513.31,-49.38C521.18,-49.38 529.22,-49.38 537.15,-49.38"/>
<polygon fill="#63b8ff" stroke="#63b8ff" points="537.15,-52.88 547.15,-49.38 537.15,-45.88 537.15,-52.88"/>
</a>
</g>
</g>
</g>
</svg>
