<?xml version="1.0" encoding="UTF-8" standalone="no"?>
<!DOCTYPE svg PUBLIC "-//W3C//DTD SVG 1.1//EN"
 "http://www.w3.org/Graphics/SVG/1.1/DTD/svg11.dtd">
<!-- Generated by graphviz version 12.2.1 (20241206.2353)
 -->
<!-- Title: LedRopeTCL::Draw Pages: 1 -->
<svg width="918pt" height="734pt"
 viewBox="0.00 0.00 917.50 734.12" xmlns="http://www.w3.org/2000/svg" xmlns:xlink="http://www.w3.org/1999/xlink">
<g id="graph0" class="graph" transform="scale(1 1) rotate(0) translate(4 730.12)">
<title>LedRopeTCL::Draw</title>
<!-- Node1 -->
<g id="Node000001" class="node">
<title>Node1</title>
<g id="a_Node000001"><a xlink:title=" ">
<polygon fill="#999999" stroke="#666666" points="106.75,-614.12 0,-614.12 0,-593.38 106.75,-593.38 106.75,-614.12"/>
<text text-anchor="middle" x="53.38" y="-600.62" font-family="Helvetica,sans-Serif" font-size="10.00">LedRopeTCL::Draw</text>
</a>
</g>
</g>
<!-- Node2 -->
<g id="Node000002" class="node">
<title>Node2</title>
<g id="a_Node000002"><a xlink:href="../../d4/df6/class_led_rope_t_c_l.html#a79ccaade09b2a2ac734abb010107a464" target="_top" xlink:title=" ">
<polygon fill="white" stroke="#666666" points="293.38,-721.12 158.88,-721.12 158.88,-700.38 293.38,-700.38 293.38,-721.12"/>
<text text-anchor="middle" x="226.12" y="-707.62" font-family="Helvetica,sans-Serif" font-size="10.00">LedRopeTCL::GetIterator</text>
</a>
</g>
</g>
<!-- Node1&#45;&gt;Node2 -->
<g id="edge1_Node000001_Node000002" class="edge">
<title>Node1&#45;&gt;Node2</title>
<g id="a_edge1_Node000001_Node000002"><a xlink:title=" ">
<path fill="none" stroke="#63b8ff" d="M64.26,-614.61C79.64,-630.95 110.85,-661.93 142.75,-680.75 152.98,-686.79 164.63,-691.93 175.89,-696.17"/>
<polygon fill="#63b8ff" stroke="#63b8ff" points="174.47,-699.38 185.07,-699.44 176.82,-692.78 174.47,-699.38"/>
</a>
</g>
</g>
<!-- Node4 -->
<g id="Node000004" class="node">
<title>Node4</title>
<g id="a_Node000004"><a xlink:href="../../d4/df6/class_led_rope_t_c_l.html#a82a6589500d1934733920c133cdf6710" target="_top" xlink:title=" ">
<polygon fill="white" stroke="#666666" points="282.12,-672.12 170.12,-672.12 170.12,-651.38 282.12,-651.38 282.12,-672.12"/>
<text text-anchor="middle" x="226.12" y="-658.62" font-family="Helvetica,sans-Serif" font-size="10.00">LedRopeTCL::length</text>
</a>
</g>
</g>
<!-- Node1&#45;&gt;Node4 -->
<g id="edge3_Node000001_Node000004" class="edge">
<title>Node1&#45;&gt;Node4</title>
<g id="a_edge3_Node000001_Node000004"><a xlink:title=" ">
<path fill="none" stroke="#63b8ff" d="M86.09,-614.52C113.32,-623.77 152.8,-637.18 182.73,-647.35"/>
<polygon fill="#63b8ff" stroke="#63b8ff" points="181.26,-650.55 191.86,-650.45 183.51,-643.92 181.26,-650.55"/>
</a>
</g>
</g>
<!-- Node6 -->
<g id="Node000006" class="node">
<title>Node6</title>
<g id="a_Node000006"><a xlink:href="../../d4/df6/class_led_rope_t_c_l.html#ae60663b8c9b70e2dd58ebbfe14c22111" target="_top" xlink:title=" ">
<polygon fill="white" stroke="#666666" points="303.88,-614.12 148.38,-614.12 148.38,-593.38 303.88,-593.38 303.88,-614.12"/>
<text text-anchor="middle" x="226.12" y="-600.62" font-family="Helvetica,sans-Serif" font-size="10.00">LedRopeTCL::RawBeginDraw</text>
</a>
</g>
</g>
<!-- Node1&#45;&gt;Node6 -->
<g id="edge5_Node000001_Node000006" class="edge">
<title>Node1&#45;&gt;Node6</title>
<g id="a_edge5_Node000001_Node000006"><a xlink:title=" ">
<path fill="none" stroke="#63b8ff" d="M107,-603.75C116.4,-603.75 126.42,-603.75 136.5,-603.75"/>
<polygon fill="#63b8ff" stroke="#63b8ff" points="136.37,-607.25 146.37,-603.75 136.37,-600.25 136.37,-607.25"/>
</a>
</g>
</g>
<!-- Node10 -->
<g id="Node000010" class="node">
<title>Node10</title>
<g id="a_Node000010"><a xlink:href="../../d4/df6/class_led_rope_t_c_l.html#a2c5c772faf24596d5be70d96581e7454" target="_top" xlink:title=" ">
<polygon fill="white" stroke="#666666" points="309.5,-556.12 142.75,-556.12 142.75,-535.38 309.5,-535.38 309.5,-556.12"/>
<text text-anchor="middle" x="226.12" y="-542.62" font-family="Helvetica,sans-Serif" font-size="10.00">LedRopeTCL::RawCommitDraw</text>
</a>
</g>
</g>
<!-- Node1&#45;&gt;Node10 -->
<g id="edge9_Node000001_Node000010" class="edge">
<title>Node1&#45;&gt;Node10</title>
<g id="a_edge9_Node000001_Node000010"><a xlink:title=" ">
<path fill="none" stroke="#63b8ff" d="M86.09,-592.98C113.32,-583.73 152.8,-570.32 182.73,-560.15"/>
<polygon fill="#63b8ff" stroke="#63b8ff" points="183.51,-563.58 191.86,-557.05 181.26,-556.95 183.51,-563.58"/>
</a>
</g>
</g>
<!-- Node40 -->
<g id="Node000040" class="node">
<title>Node40</title>
<g id="a_Node000040"><a xlink:href="../../d4/df6/class_led_rope_t_c_l.html#a44e74c392ae8f3e56d58000912d38aed" target="_top" xlink:title=" ">
<polygon fill="white" stroke="#666666" points="301.62,-499.12 150.62,-499.12 150.62,-478.38 301.62,-478.38 301.62,-499.12"/>
<text text-anchor="middle" x="226.12" y="-485.62" font-family="Helvetica,sans-Serif" font-size="10.00">LedRopeTCL::RawDrawPixel</text>
</a>
</g>
</g>
<!-- Node1&#45;&gt;Node40 -->
<g id="edge33_Node000001_Node000040" class="edge">
<title>Node1&#45;&gt;Node40</title>
<g id="a_edge33_Node000001_Node000040"><a xlink:title=" ">
<path fill="none" stroke="#63b8ff" d="M64.72,-592.95C80.45,-576.97 111.83,-546.76 142.75,-526.75 156.24,-518.02 172.05,-510.21 186.2,-503.98"/>
<polygon fill="#63b8ff" stroke="#63b8ff" points="187.41,-507.27 195.24,-500.13 184.67,-500.83 187.41,-507.27"/>
</a>
</g>
</g>
<!-- Node3 -->
<g id="Node000003" class="node">
<title>Node3</title>
<g id="a_Node000003"><a xlink:href="../../dd/dc5/class_frame_buffer_base.html#ab6731cc0de397f18efc61dbd02d9cb54" target="_top" xlink:title=" ">
<polygon fill="white" stroke="#666666" points="504.75,-726.12 345.5,-726.12 345.5,-705.38 504.75,-705.38 504.75,-726.12"/>
<text text-anchor="middle" x="425.12" y="-712.62" font-family="Helvetica,sans-Serif" font-size="10.00">FrameBufferBase::GetIterator</text>
</a>
</g>
</g>
<!-- Node2&#45;&gt;Node3 -->
<g id="edge2_Node000002_Node000003" class="edge">
<title>Node2&#45;&gt;Node3</title>
<g id="a_edge2_Node000002_Node000003"><a xlink:title=" ">
<path fill="none" stroke="#63b8ff" d="M293.82,-712.44C306.73,-712.77 320.45,-713.12 333.96,-713.46"/>
<polygon fill="#63b8ff" stroke="#63b8ff" points="333.64,-716.95 343.73,-713.71 333.82,-709.96 333.64,-716.95"/>
</a>
</g>
</g>
<!-- Node5 -->
<g id="Node000005" class="node">
<title>Node5</title>
<g id="a_Node000005"><a xlink:href="../../dd/dc5/class_frame_buffer_base.html#ab81620ae9322b4161ffb5647f4866e62" target="_top" xlink:title=" ">
<polygon fill="white" stroke="#666666" points="493.5,-687.12 356.75,-687.12 356.75,-666.38 493.5,-666.38 493.5,-687.12"/>
<text text-anchor="middle" x="425.12" y="-673.62" font-family="Helvetica,sans-Serif" font-size="10.00">FrameBufferBase::length</text>
</a>
</g>
</g>
<!-- Node4&#45;&gt;Node5 -->
<g id="edge4_Node000004_Node000005" class="edge">
<title>Node4&#45;&gt;Node5</title>
<g id="a_edge4_Node000004_Node000005"><a xlink:title=" ">
<path fill="none" stroke="#63b8ff" d="M282.52,-665.97C302.01,-667.45 324.3,-669.15 345.34,-670.75"/>
<polygon fill="#63b8ff" stroke="#63b8ff" points="344.79,-674.22 355.03,-671.49 345.32,-667.24 344.79,-674.22"/>
</a>
</g>
</g>
<!-- Node7 -->
<g id="Node000007" class="node">
<title>Node7</title>
<g id="a_Node000007"><a xlink:href="../../db/ddd/classfl_1_1_heap_vector.html#a6ba2193ee3a2e6f0e8c819bb4c16cc39" target="_top" xlink:title=" ">
<polygon fill="white" stroke="#666666" points="482.25,-648.12 368,-648.12 368,-627.38 482.25,-627.38 482.25,-648.12"/>
<text text-anchor="middle" x="425.12" y="-634.62" font-family="Helvetica,sans-Serif" font-size="10.00">fl::HeapVector::clear</text>
</a>
</g>
</g>
<!-- Node6&#45;&gt;Node7 -->
<g id="edge6_Node000006_Node000007" class="edge">
<title>Node6&#45;&gt;Node7</title>
<g id="a_edge6_Node000006_Node000007"><a xlink:title=" ">
<path fill="none" stroke="#63b8ff" d="M290,-614.6C311.09,-618.24 334.71,-622.32 356.17,-626.02"/>
<polygon fill="#63b8ff" stroke="#63b8ff" points="355.57,-629.47 366.02,-627.72 356.76,-622.57 355.57,-629.47"/>
</a>
</g>
</g>
<!-- Node9 -->
<g id="Node000009" class="node">
<title>Node9</title>
<g id="a_Node000009"><a xlink:href="../../d4/df6/class_led_rope_t_c_l.html#a4aada290bc25e4cc5dceb5a521ed935e" target="_top" xlink:title=" ">
<polygon fill="white" stroke="#666666" points="500.25,-609.12 350,-609.12 350,-588.38 500.25,-588.38 500.25,-609.12"/>
<text text-anchor="middle" x="425.12" y="-595.62" font-family="Helvetica,sans-Serif" font-size="10.00">LedRopeTCL::PreDrawSetup</text>
</a>
</g>
</g>
<!-- Node6&#45;&gt;Node9 -->
<g id="edge8_Node000006_Node000009" class="edge">
<title>Node6&#45;&gt;Node9</title>
<g id="a_edge8_Node000006_Node000009"><a xlink:title=" ">
<path fill="none" stroke="#63b8ff" d="M304.14,-601.8C315.39,-601.51 327.03,-601.21 338.44,-600.92"/>
<polygon fill="#63b8ff" stroke="#63b8ff" points="338.33,-604.43 348.24,-600.68 338.15,-597.43 338.33,-604.43"/>
</a>
</g>
</g>
<!-- Node8 -->
<g id="Node000008" class="node">
<title>Node8</title>
<g id="a_Node000008"><a xlink:href="../../db/ddd/classfl_1_1_heap_vector.html#a6bdcbbf21b478646961663a3e43acff4" target="_top" xlink:title=" ">
<polygon fill="white" stroke="#666666" points="705.25,-716.12 568.5,-716.12 568.5,-695.38 705.25,-695.38 705.25,-716.12"/>
<text text-anchor="middle" x="636.88" y="-702.62" font-family="Helvetica,sans-Serif" font-size="10.00">fl::HeapVector::pop_back</text>
</a>
</g>
</g>
<!-- Node7&#45;&gt;Node8 -->
<g id="edge7_Node000007_Node000008" class="edge">
<title>Node7&#45;&gt;Node8</title>
<g id="a_edge7_Node000007_Node000008"><a xlink:title=" ">
<path fill="none" stroke="#63b8ff" d="M480.89,-648.56C489.09,-651.07 497.29,-654.1 504.75,-657.75 522.96,-666.66 522.36,-677.22 540.75,-685.75 545.97,-688.17 551.5,-690.3 557.14,-692.18"/>
<polygon fill="#63b8ff" stroke="#63b8ff" points="556.08,-695.51 566.66,-695.04 558.1,-688.81 556.08,-695.51"/>
</a>
</g>
</g>
<!-- Node11 -->
<g id="Node000011" class="node">
<title>Node11</title>
<g id="a_Node000011"><a xlink:href="../../dd/dbb/class_c_fast_l_e_d.html#afd7928d822589740af6e23b2d510cf3f" target="_top" xlink:title="Add a CLEDController instance to the world.">
<polygon fill="white" stroke="#666666" points="478.88,-570.12 371.38,-570.12 371.38,-549.38 478.88,-549.38 478.88,-570.12"/>
<text text-anchor="middle" x="425.12" y="-556.62" font-family="Helvetica,sans-Serif" font-size="10.00">CFastLED::addLeds</text>
</a>
</g>
</g>
<!-- Node10&#45;&gt;Node11 -->
<g id="edge10_Node000010_Node000011" class="edge">
<title>Node10&#45;&gt;Node11</title>
<g id="a_edge10_Node000010_Node000011"><a xlink:title=" ">
<path fill="none" stroke="#63b8ff" d="M309.81,-551.63C326.51,-552.81 343.82,-554.04 359.77,-555.18"/>
<polygon fill="#63b8ff" stroke="#63b8ff" points="359.38,-558.66 369.61,-555.88 359.88,-551.68 359.38,-558.66"/>
</a>
</g>
</g>
<!-- Node20 -->
<g id="Node000020" class="node">
<title>Node20</title>
<g id="a_Node000020"><a xlink:href="../../db/ddd/classfl_1_1_heap_vector.html#af55b7debe54f11e76ecf7dc6e7b50984" target="_top" xlink:title=" ">
<polygon fill="white" stroke="#666666" points="481.12,-531.12 369.12,-531.12 369.12,-510.38 481.12,-510.38 481.12,-531.12"/>
<text text-anchor="middle" x="425.12" y="-517.62" font-family="Helvetica,sans-Serif" font-size="10.00">fl::HeapVector::data</text>
</a>
</g>
</g>
<!-- Node10&#45;&gt;Node20 -->
<g id="edge16_Node000010_Node000020" class="edge">
<title>Node10&#45;&gt;Node20</title>
<g id="a_edge16_Node000010_Node000020"><a xlink:title=" ">
<path fill="none" stroke="#63b8ff" d="M309.81,-535.26C325.83,-533.22 342.41,-531.12 357.82,-529.16"/>
<polygon fill="#63b8ff" stroke="#63b8ff" points="357.82,-532.69 367.3,-527.96 356.94,-525.75 357.82,-532.69"/>
</a>
</g>
</g>
<!-- Node21 -->
<g id="Node000021" class="node">
<title>Node21</title>
<g id="a_Node000021"><a xlink:href="../../dd/dbb/class_c_fast_l_e_d.html#a83afdd1e2a21f33ac4f8d2610d6e331b" target="_top" xlink:title="Update all our controllers with the current led colors, using the passed in brightness.">
<polygon fill="white" stroke="#666666" points="471.38,-298.12 378.88,-298.12 378.88,-277.38 471.38,-277.38 471.38,-298.12"/>
<text text-anchor="middle" x="425.12" y="-284.62" font-family="Helvetica,sans-Serif" font-size="10.00">CFastLED::show</text>
</a>
</g>
</g>
<!-- Node10&#45;&gt;Node21 -->
<g id="edge17_Node000010_Node000021" class="edge">
<title>Node10&#45;&gt;Node21</title>
<g id="a_edge17_Node000010_Node000021"><a xlink:title=" ">
<path fill="none" stroke="#63b8ff" d="M294.32,-534.97C299.77,-532.49 304.92,-529.45 309.5,-525.75 380.37,-468.43 410.29,-356.67 420.12,-309.54"/>
<polygon fill="#63b8ff" stroke="#63b8ff" points="423.5,-310.51 422,-300.03 416.63,-309.16 423.5,-310.51"/>
</a>
</g>
</g>
<!-- Node39 -->
<g id="Node000039" class="node">
<title>Node39</title>
<g id="a_Node000039"><a xlink:href="../../db/ddd/classfl_1_1_heap_vector.html#a37e5c0526e1be1bdc4c17139ac026939" target="_top" xlink:title=" ">
<polygon fill="white" stroke="#666666" points="480,-259.12 370.25,-259.12 370.25,-238.38 480,-238.38 480,-259.12"/>
<text text-anchor="middle" x="425.12" y="-245.62" font-family="Helvetica,sans-Serif" font-size="10.00">fl::HeapVector::size</text>
</a>
</g>
</g>
<!-- Node10&#45;&gt;Node39 -->
<g id="edge32_Node000010_Node000039" class="edge">
<title>Node10&#45;&gt;Node39</title>
<g id="a_edge32_Node000010_Node000039"><a xlink:title=" ">
<path fill="none" stroke="#63b8ff" d="M297.95,-535.08C302.22,-532.54 306.14,-529.46 309.5,-525.75 386.92,-440.26 268.55,-354.66 345.5,-268.75 349.45,-264.34 354.23,-260.84 359.45,-258.06"/>
<polygon fill="#63b8ff" stroke="#63b8ff" points="360.72,-261.33 368.54,-254.18 357.97,-254.89 360.72,-261.33"/>
</a>
</g>
</g>
<!-- Node12 -->
<g id="Node000012" class="node">
<title>Node12</title>
<g id="a_Node000012"><a xlink:href="../../d6/d2c/class_c_l_e_d_controller.html#a44d20f088426191c82919c9cdbc63a35" target="_top" xlink:title="Gets the maximum possible refresh rate of the strip.">
<polygon fill="white" stroke="#666666" points="733,-677.12 540.75,-677.12 540.75,-656.38 733,-656.38 733,-677.12"/>
<text text-anchor="middle" x="636.88" y="-663.62" font-family="Helvetica,sans-Serif" font-size="10.00">CLEDController::getMaxRefreshRate</text>
</a>
</g>
</g>
<!-- Node11&#45;&gt;Node12 -->
<g id="edge11_Node000011_Node000012" class="edge">
<title>Node11&#45;&gt;Node12</title>
<g id="a_edge11_Node000011_Node000012"><a xlink:title=" ">
<path fill="none" stroke="#63b8ff" d="M479.25,-566.85C488.39,-569.8 497.31,-573.94 504.75,-579.75 531.38,-600.57 513.69,-626.49 540.75,-646.75 542.57,-648.12 544.47,-649.39 546.43,-650.59"/>
<polygon fill="#63b8ff" stroke="#63b8ff" points="544.81,-653.69 555.3,-655.19 548.04,-647.48 544.81,-653.69"/>
</a>
</g>
</g>
<!-- Node13 -->
<g id="Node000013" class="node">
<title>Node13</title>
<g id="a_Node000013"><a xlink:href="../../d6/d2c/class_c_l_e_d_controller.html#af877a15a5ec452780fbd1d359b8a9913" target="_top" xlink:title="Initialize the LED controller.">
<polygon fill="white" stroke="#666666" points="692.5,-638.12 581.25,-638.12 581.25,-617.38 692.5,-617.38 692.5,-638.12"/>
<text text-anchor="middle" x="636.88" y="-624.62" font-family="Helvetica,sans-Serif" font-size="10.00">CLEDController::init</text>
</a>
</g>
</g>
<!-- Node11&#45;&gt;Node13 -->
<g id="edge12_Node000011_Node000013" class="edge">
<title>Node11&#45;&gt;Node13</title>
<g id="a_edge12_Node000011_Node000013"><a xlink:title=" ">
<path fill="none" stroke="#63b8ff" d="M479.28,-569.95C488.02,-572.56 496.81,-575.78 504.75,-579.75 523.13,-588.94 522.14,-600.04 540.75,-608.75 549.94,-613.05 560.06,-616.38 570.18,-618.95"/>
<polygon fill="#63b8ff" stroke="#63b8ff" points="569.11,-622.29 579.64,-621.12 570.67,-615.47 569.11,-622.29"/>
</a>
</g>
</g>
<!-- Node14 -->
<g id="Node000014" class="node">
<title>Node14</title>
<g id="a_Node000014"><a xlink:href="../../de/dca/classfl_1_1_engine_events.html#a8ec266f9f7b35b9174d331cb6c338d80" target="_top" xlink:title=" ">
<polygon fill="#fff0f0" stroke="red" points="704.12,-599.5 569.62,-599.5 569.62,-566 704.12,-566 704.12,-599.5"/>
<text text-anchor="start" x="577.62" y="-586" font-family="Helvetica,sans-Serif" font-size="10.00">fl::EngineEvents::onStrip</text>
<text text-anchor="middle" x="636.88" y="-573.25" font-family="Helvetica,sans-Serif" font-size="10.00">Added</text>
</a>
</g>
</g>
<!-- Node11&#45;&gt;Node14 -->
<g id="edge13_Node000011_Node000014" class="edge">
<title>Node11&#45;&gt;Node14</title>
<g id="a_edge13_Node000011_Node000014"><a xlink:title=" ">
<path fill="none" stroke="#63b8ff" d="M479.32,-565.58C503.11,-568.19 531.63,-571.32 557.77,-574.19"/>
<polygon fill="#63b8ff" stroke="#63b8ff" points="557.37,-577.66 567.69,-575.27 558.13,-570.7 557.37,-577.66"/>
</a>
</g>
</g>
<!-- Node18 -->
<g id="Node000018" class="node">
<title>Node18</title>
<g id="a_Node000018"><a xlink:href="../../d6/d2c/class_c_l_e_d_controller.html#a6c8e2157d244ce8b1b878947ca7695d9" target="_top" xlink:title="Set the default array of LEDs to be used by this controller.">
<polygon fill="white" stroke="#666666" points="703.38,-548.12 570.38,-548.12 570.38,-527.38 703.38,-527.38 703.38,-548.12"/>
<text text-anchor="middle" x="636.88" y="-534.62" font-family="Helvetica,sans-Serif" font-size="10.00">CLEDController::setLeds</text>
</a>
</g>
</g>
<!-- Node11&#45;&gt;Node18 -->
<g id="edge14_Node000011_Node000018" class="edge">
<title>Node11&#45;&gt;Node18</title>
<g id="a_edge14_Node000011_Node000018"><a xlink:title=" ">
<path fill="none" stroke="#63b8ff" d="M479.32,-554.17C503.43,-551.64 532.39,-548.6 558.82,-545.83"/>
<polygon fill="#63b8ff" stroke="#63b8ff" points="558.88,-549.35 568.46,-544.82 558.15,-542.38 558.88,-549.35"/>
</a>
</g>
</g>
<!-- Node19 -->
<g id="Node000019" class="node">
<title>Node19</title>
<g id="a_Node000019"><a xlink:href="../../dd/dbb/class_c_fast_l_e_d.html#a1f39e8404db214bbd6a776f52a77d8b1" target="_top" xlink:title="Set the maximum refresh rate.">
<polygon fill="white" stroke="#666666" points="718.38,-509.12 555.38,-509.12 555.38,-488.38 718.38,-488.38 718.38,-509.12"/>
<text text-anchor="middle" x="636.88" y="-495.62" font-family="Helvetica,sans-Serif" font-size="10.00">CFastLED::setMaxRefreshRate</text>
</a>
</g>
</g>
<!-- Node11&#45;&gt;Node19 -->
<g id="edge15_Node000011_Node000019" class="edge">
<title>Node11&#45;&gt;Node19</title>
<g id="a_edge15_Node000011_Node000019"><a xlink:title=" ">
<path fill="none" stroke="#63b8ff" d="M477.13,-548.99C486.47,-546.4 496.02,-543.33 504.75,-539.75 521.89,-532.73 523.46,-525.41 540.75,-518.75 546.8,-516.42 553.18,-514.34 559.66,-512.48"/>
<polygon fill="#63b8ff" stroke="#63b8ff" points="560.37,-515.91 569.13,-509.96 558.57,-509.15 560.37,-515.91"/>
</a>
</g>
</g>
<!-- Node22 -->
<g id="Node000022" class="node">
<title>Node22</title>
<g id="a_Node000022"><a xlink:href="../../d6/d2c/class_c_l_e_d_controller.html#af9962ef739bdb3b590ee66f3780765d6" target="_top" xlink:title=" ">
<polygon fill="#fff0f0" stroke="red" points="722.5,-470.12 551.25,-470.12 551.25,-449.38 722.5,-449.38 722.5,-470.12"/>
<text text-anchor="middle" x="636.88" y="-456.62" font-family="Helvetica,sans-Serif" font-size="10.00">CLEDController::beginShowLeds</text>
</a>
</g>
</g>
<!-- Node21&#45;&gt;Node22 -->
<g id="edge18_Node000021_Node000022" class="edge">
<title>Node21&#45;&gt;Node22</title>
<g id="a_edge18_Node000021_Node000022"><a xlink:title=" ">
<path fill="none" stroke="#63b8ff" d="M431.12,-298.29C444.65,-325.6 484.73,-399.09 540.75,-435.75 546.23,-439.33 552.21,-442.38 558.41,-444.98"/>
<polygon fill="#63b8ff" stroke="#63b8ff" points="557,-448.19 567.6,-448.4 559.45,-441.63 557,-448.19"/>
</a>
</g>
</g>
<!-- Node24 -->
<g id="Node000024" class="node">
<title>Node24</title>
<g id="a_Node000024"><a xlink:href="../../d6/d2c/class_c_l_e_d_controller.html#a63f75cf7e55cf8da46db5fd27110bb3e" target="_top" xlink:title="How many LEDs does this controller manage?">
<polygon fill="white" stroke="#666666" points="896.75,-451.12 781.75,-451.12 781.75,-430.38 896.75,-430.38 896.75,-451.12"/>
<text text-anchor="middle" x="839.25" y="-437.62" font-family="Helvetica,sans-Serif" font-size="10.00">CLEDController::size</text>
</a>
</g>
</g>
<!-- Node21&#45;&gt;Node24 -->
<g id="edge31_Node000021_Node000024" class="edge">
<title>Node21&#45;&gt;Node24</title>
<g id="a_edge31_Node000021_Node000024"><a xlink:title=" ">
<path fill="none" stroke="#63b8ff" d="M432.92,-298.28C448.65,-321.67 490.16,-377.87 540.75,-402.75 579.86,-421.98 695.04,-432.31 770.07,-437.16"/>
<polygon fill="#63b8ff" stroke="#63b8ff" points="769.59,-440.63 779.79,-437.77 770.02,-433.65 769.59,-440.63"/>
</a>
</g>
</g>
<!-- Node25 -->
<g id="Node000025" class="node">
<title>Node25</title>
<g id="a_Node000025"><a xlink:href="../../dd/dbb/class_c_fast_l_e_d.html#a61d27e179c9b68bde89d220aebc0de32" target="_top" xlink:title="For debugging, this will keep track of time between calls to countFPS().">
<polygon fill="white" stroke="#666666" points="692.88,-394.12 580.88,-394.12 580.88,-373.38 692.88,-373.38 692.88,-394.12"/>
<text text-anchor="middle" x="636.88" y="-380.62" font-family="Helvetica,sans-Serif" font-size="10.00">CFastLED::countFPS</text>
</a>
</g>
</g>
<!-- Node21&#45;&gt;Node25 -->
<g id="edge20_Node000021_Node000025" class="edge">
<title>Node21&#45;&gt;Node25</title>
<g id="a_edge20_Node000021_Node000025"><a xlink:title=" ">
<path fill="none" stroke="#63b8ff" d="M438.61,-298.38C458.74,-314.95 500.22,-346.79 540.75,-363.75 549.8,-367.54 559.64,-370.64 569.45,-373.16"/>
<polygon fill="#63b8ff" stroke="#63b8ff" points="568.46,-376.52 579,-375.43 570.08,-369.71 568.46,-376.52"/>
</a>
</g>
</g>
<!-- Node26 -->
<g id="Node000026" class="node">
<title>Node26</title>
<g id="a_Node000026"><a xlink:href="../../d6/d2c/class_c_l_e_d_controller.html#a49b221af013bf196c2068e2cbd1c299d" target="_top" xlink:title=" ">
<polygon fill="white" stroke="#666666" points="718,-355.12 555.75,-355.12 555.75,-334.38 718,-334.38 718,-355.12"/>
<text text-anchor="middle" x="636.88" y="-341.62" font-family="Helvetica,sans-Serif" font-size="10.00">CLEDController::endShowLeds</text>
</a>
</g>
</g>
<!-- Node21&#45;&gt;Node26 -->
<g id="edge21_Node000021_Node000026" class="edge">
<title>Node21&#45;&gt;Node26</title>
<g id="a_edge21_Node000021_Node000026"><a xlink:title=" ">
<path fill="none" stroke="#63b8ff" d="M462.69,-298.61C485.16,-305.2 514.56,-313.68 540.75,-320.75 553.72,-324.25 567.74,-327.88 580.92,-331.21"/>
<polygon fill="#63b8ff" stroke="#63b8ff" points="579.73,-334.52 590.28,-333.57 581.44,-327.74 579.73,-334.52"/>
</a>
</g>
</g>
<!-- Node27 -->
<g id="Node000027" class="node">
<title>Node27</title>
<g id="a_Node000027"><a xlink:href="../../d6/d2c/class_c_l_e_d_controller.html#a2a231accbeb00e6a6080a7e55274a279" target="_top" xlink:title="Set the dithering mode for this controller to use.">
<polygon fill="white" stroke="#666666" points="909.5,-336.12 769,-336.12 769,-315.38 909.5,-315.38 909.5,-336.12"/>
<text text-anchor="middle" x="839.25" y="-322.62" font-family="Helvetica,sans-Serif" font-size="10.00">CLEDController::setDither</text>
</a>
</g>
</g>
<!-- Node21&#45;&gt;Node27 -->
<g id="edge29_Node000021_Node000027" class="edge">
<title>Node21&#45;&gt;Node27</title>
<g id="a_edge29_Node000021_Node000027"><a xlink:title=" ">
<path fill="none" stroke="#63b8ff" d="M471.8,-291.96C540.63,-298.31 671.92,-310.41 757.24,-318.28"/>
<polygon fill="#63b8ff" stroke="#63b8ff" points="756.91,-321.76 767.19,-319.2 757.55,-314.79 756.91,-321.76"/>
</a>
</g>
</g>
<!-- Node28 -->
<g id="Node000028" class="node">
<title>Node28</title>
<g id="a_Node000028"><a xlink:href="../../d6/d2c/class_c_l_e_d_controller.html#a6bd253f670640ea4d1bd0d71b8029f2a" target="_top" xlink:title=" ">
<polygon fill="white" stroke="#666666" points="712,-279.12 561.75,-279.12 561.75,-258.38 712,-258.38 712,-279.12"/>
<text text-anchor="middle" x="636.88" y="-265.62" font-family="Helvetica,sans-Serif" font-size="10.00">CLEDController::getEnabled</text>
</a>
</g>
</g>
<!-- Node21&#45;&gt;Node28 -->
<g id="edge23_Node000021_Node000028" class="edge">
<title>Node21&#45;&gt;Node28</title>
<g id="a_edge23_Node000021_Node000028"><a xlink:title=" ">
<path fill="none" stroke="#63b8ff" d="M471.64,-283.63C494.62,-281.55 523.27,-278.95 550.18,-276.51"/>
<polygon fill="#63b8ff" stroke="#63b8ff" points="550.44,-280 560.08,-275.62 549.81,-273.03 550.44,-280"/>
</a>
</g>
</g>
<!-- Node29 -->
<g id="Node000029" class="node">
<title>Node29</title>
<g id="a_Node000029"><a xlink:href="../../d6/d2c/class_c_l_e_d_controller.html#a8b412ff1fd4833d0db63a175d40a2ee0" target="_top" xlink:title="Get the first LED controller in the linked list of controllers.">
<polygon fill="white" stroke="#666666" points="696.62,-240.12 577.12,-240.12 577.12,-219.38 696.62,-219.38 696.62,-240.12"/>
<text text-anchor="middle" x="636.88" y="-226.62" font-family="Helvetica,sans-Serif" font-size="10.00">CLEDController::head</text>
</a>
</g>
</g>
<!-- Node21&#45;&gt;Node29 -->
<g id="edge24_Node000021_Node000029" class="edge">
<title>Node21&#45;&gt;Node29</title>
<g id="a_edge24_Node000021_Node000029"><a xlink:title=" ">
<path fill="none" stroke="#63b8ff" d="M471.54,-277.96C482.55,-275.11 494.19,-271.68 504.75,-267.75 521.51,-261.51 523.86,-255.64 540.75,-249.75 548.73,-246.97 557.22,-244.51 565.73,-242.36"/>
<polygon fill="#63b8ff" stroke="#63b8ff" points="566.49,-245.77 575.4,-240.05 564.86,-238.96 566.49,-245.77"/>
</a>
</g>
</g>
<!-- Node30 -->
<g id="Node000030" class="node">
<title>Node30</title>
<g id="a_Node000030"><a xlink:href="../../d6/d2c/class_c_l_e_d_controller.html#a21a4d2b3415dd7b24175ebdb51c9ced0" target="_top" xlink:title="Get the next controller in the linked list after this one.">
<polygon fill="white" stroke="#666666" points="695.5,-201.12 578.25,-201.12 578.25,-180.38 695.5,-180.38 695.5,-201.12"/>
<text text-anchor="middle" x="636.88" y="-187.62" font-family="Helvetica,sans-Serif" font-size="10.00">CLEDController::next</text>
</a>
</g>
</g>
<!-- Node21&#45;&gt;Node30 -->
<g id="edge25_Node000021_Node000030" class="edge">
<title>Node21&#45;&gt;Node30</title>
<g id="a_edge25_Node000021_Node000030"><a xlink:title=" ">
<path fill="none" stroke="#63b8ff" d="M471.54,-282.32C483.14,-279.36 495.06,-274.79 504.75,-267.75 528.99,-250.14 516.15,-227.85 540.75,-210.75 548.62,-205.28 557.68,-201.25 567.01,-198.3"/>
<polygon fill="#63b8ff" stroke="#63b8ff" points="567.84,-201.7 576.58,-195.7 566.01,-194.94 567.84,-201.7"/>
</a>
</g>
</g>
<!-- Node31 -->
<g id="Node000031" class="node">
<title>Node31</title>
<g id="a_Node000031"><a xlink:href="../../de/dca/classfl_1_1_engine_events.html#a7147debfba714b8ab0925af1a7c935c0" target="_top" xlink:title=" ">
<polygon fill="#fff0f0" stroke="red" points="706.75,-162.5 567,-162.5 567,-129 706.75,-129 706.75,-162.5"/>
<text text-anchor="start" x="575" y="-149" font-family="Helvetica,sans-Serif" font-size="10.00">fl::EngineEvents::onBegin</text>
<text text-anchor="middle" x="636.88" y="-136.25" font-family="Helvetica,sans-Serif" font-size="10.00">Frame</text>
</a>
</g>
</g>
<!-- Node21&#45;&gt;Node31 -->
<g id="edge26_Node000021_Node000031" class="edge">
<title>Node21&#45;&gt;Node31</title>
<g id="a_edge26_Node000021_Node000031"><a xlink:title=" ">
<path fill="none" stroke="#63b8ff" d="M471.75,-283.8C483.62,-280.86 495.62,-275.93 504.75,-267.75 538.69,-237.34 507.08,-202.46 540.75,-171.75 545.53,-167.39 550.97,-163.75 556.78,-160.71"/>
<polygon fill="#63b8ff" stroke="#63b8ff" points="557.8,-164.09 565.46,-156.78 554.91,-157.72 557.8,-164.09"/>
</a>
</g>
</g>
<!-- Node33 -->
<g id="Node000033" class="node">
<title>Node33</title>
<g id="a_Node000033"><a xlink:href="../../de/dca/classfl_1_1_engine_events.html#ab7d24c4783214392de84947cd7df5570" target="_top" xlink:title=" ">
<polygon fill="#fff0f0" stroke="red" points="717.25,-111.12 556.5,-111.12 556.5,-90.38 717.25,-90.38 717.25,-111.12"/>
<text text-anchor="middle" x="636.88" y="-97.62" font-family="Helvetica,sans-Serif" font-size="10.00">fl::EngineEvents::onEndFrame</text>
</a>
</g>
</g>
<!-- Node21&#45;&gt;Node33 -->
<g id="edge27_Node000021_Node000033" class="edge">
<title>Node21&#45;&gt;Node33</title>
<g id="a_edge27_Node000021_Node000033"><a xlink:title=" ">
<path fill="none" stroke="#63b8ff" d="M471.59,-284.7C483.74,-281.79 495.93,-276.66 504.75,-267.75 552.37,-219.63 491.9,-166.62 540.75,-119.75 542.58,-118 544.52,-116.39 546.55,-114.9"/>
<polygon fill="#63b8ff" stroke="#63b8ff" points="547.95,-118.14 554.71,-109.98 544.34,-112.15 547.95,-118.14"/>
</a>
</g>
</g>
<!-- Node35 -->
<g id="Node000035" class="node">
<title>Node35</title>
<g id="a_Node000035"><a xlink:href="../../de/dca/classfl_1_1_engine_events.html#af1bb9a46fdc6694a1b5c87a49c516ae8" target="_top" xlink:title=" ">
<polygon fill="#fff0f0" stroke="red" points="726.25,-72.12 547.5,-72.12 547.5,-51.38 726.25,-51.38 726.25,-72.12"/>
<text text-anchor="middle" x="636.88" y="-58.62" font-family="Helvetica,sans-Serif" font-size="10.00">fl::EngineEvents::onEndShowLeds</text>
</a>
</g>
</g>
<!-- Node21&#45;&gt;Node35 -->
<g id="edge28_Node000021_Node000035" class="edge">
<title>Node21&#45;&gt;Node35</title>
<g id="a_edge28_Node000021_Node000035"><a xlink:title=" ">
<path fill="none" stroke="#63b8ff" d="M471.86,-284.96C484.02,-282.06 496.15,-276.87 504.75,-267.75 562.54,-206.51 481.69,-141.76 540.75,-81.75 541.64,-80.85 542.56,-79.98 543.5,-79.15"/>
<polygon fill="#63b8ff" stroke="#63b8ff" points="545.36,-82.12 551.44,-73.44 541.28,-76.44 545.36,-82.12"/>
</a>
</g>
</g>
<!-- Node37 -->
<g id="Node000037" class="node">
<title>Node37</title>
<g id="a_Node000037"><a xlink:href="../../d6/d2c/class_c_l_e_d_controller.html#ac5355e980ac13d9ae97561f183f73990" target="_top" xlink:title="Write the data to the LEDs managed by this controller.">
<polygon fill="#fff0f0" stroke="red" points="708.62,-33.5 565.12,-33.5 565.12,0 708.62,0 708.62,-33.5"/>
<text text-anchor="start" x="573.12" y="-20" font-family="Helvetica,sans-Serif" font-size="10.00">CLEDController::showLeds</text>
<text text-anchor="middle" x="636.88" y="-7.25" font-family="Helvetica,sans-Serif" font-size="10.00">Internal</text>
</a>
</g>
</g>
<!-- Node21&#45;&gt;Node37 -->
<g id="edge30_Node000021_Node000037" class="edge">
<title>Node21&#45;&gt;Node37</title>
<g id="a_edge30_Node000021_Node000037"><a xlink:title=" ">
<path fill="none" stroke="#63b8ff" d="M471.65,-285.23C483.94,-282.36 496.2,-277.11 504.75,-267.75 573.05,-192.98 473.12,-118.13 540.75,-42.75 544.89,-38.13 549.77,-34.3 555.09,-31.12"/>
<polygon fill="#63b8ff" stroke="#63b8ff" points="556.38,-34.39 563.74,-26.77 553.23,-28.14 556.38,-34.39"/>
</a>
</g>
</g>
<!-- Node22&#45;&gt;Node24 -->
<g id="edge19_Node000022_Node000024" class="edge">
<title>Node22&#45;&gt;Node24</title>
<g id="a_edge19_Node000022_Node000024"><a xlink:title=" ">
<path fill="none" stroke="#63b8ff" d="M722.85,-451.69C738.58,-450.2 754.81,-448.66 769.96,-447.23"/>
<polygon fill="#63b8ff" stroke="#63b8ff" points="770.18,-450.72 779.8,-446.29 769.52,-443.75 770.18,-450.72"/>
</a>
</g>
</g>
<!-- Node26&#45;&gt;Node27 -->
<g id="edge22_Node000026_Node000027" class="edge">
<title>Node26&#45;&gt;Node27</title>
<g id="a_edge22_Node000026_Node000027"><a xlink:title=" ">
<path fill="none" stroke="#63b8ff" d="M718.22,-337.13C731.1,-335.91 744.45,-334.64 757.34,-333.42"/>
<polygon fill="#63b8ff" stroke="#63b8ff" points="757.41,-336.93 767.03,-332.5 756.75,-329.96 757.41,-336.93"/>
</a>
</g>
</g>
<!-- Node40&#45;&gt;Node40 -->
<g id="edge34_Node000040_Node000040" class="edge">
<title>Node40&#45;&gt;Node40</title>
<g id="a_edge34_Node000040_Node000040"><a xlink:title=" ">
<path fill="none" stroke="#63b8ff" d="M198.29,-499.52C187.16,-508.18 196.43,-517.12 226.12,-517.12 242.36,-517.12 252.5,-514.45 256.52,-510.61"/>
<polygon fill="#63b8ff" stroke="#63b8ff" points="259.96,-509.95 254.3,-501 253.14,-511.53 259.96,-509.95"/>
</a>
</g>
</g>
</g>
</svg>
