<?xml version="1.0" encoding="UTF-8" standalone="no"?>
<!DOCTYPE svg PUBLIC "-//W3C//DTD SVG 1.1//EN"
 "http://www.w3.org/Graphics/SVG/1.1/DTD/svg11.dtd">
<!-- Generated by graphviz version 12.2.1 (20241206.2353)
 -->
<!-- Title: LedRopeTCL::RawCommitDraw Pages: 1 -->
<svg width="744pt" height="691pt"
 viewBox="0.00 0.00 744.00 691.12" xmlns="http://www.w3.org/2000/svg" xmlns:xlink="http://www.w3.org/1999/xlink">
<g id="graph0" class="graph" transform="scale(1 1) rotate(0) translate(4 687.12)">
<title>LedRopeTCL::RawCommitDraw</title>
<!-- Node1 -->
<g id="Node000001" class="node">
<title>Node1</title>
<g id="a_Node000001"><a xlink:title=" ">
<polygon fill="#999999" stroke="#666666" points="166.75,-245.12 0,-245.12 0,-224.38 166.75,-224.38 166.75,-245.12"/>
<text text-anchor="middle" x="83.38" y="-231.62" font-family="Helvetica,sans-Serif" font-size="10.00">LedRopeTCL::RawCommitDraw</text>
</a>
</g>
</g>
<!-- Node2 -->
<g id="Node000002" class="node">
<title>Node2</title>
<g id="a_Node000002"><a xlink:href="../../dd/dbb/class_c_fast_l_e_d.html#afd7928d822589740af6e23b2d510cf3f" target="_top" xlink:title="Add a CLEDController instance to the world.">
<polygon fill="white" stroke="#666666" points="312.5,-576.12 205,-576.12 205,-555.38 312.5,-555.38 312.5,-576.12"/>
<text text-anchor="middle" x="258.75" y="-562.62" font-family="Helvetica,sans-Serif" font-size="10.00">CFastLED::addLeds</text>
</a>
</g>
</g>
<!-- Node1&#45;&gt;Node2 -->
<g id="edge1_Node000001_Node000002" class="edge">
<title>Node1&#45;&gt;Node2</title>
<g id="a_edge1_Node000001_Node000002"><a xlink:title=" ">
<path fill="none" stroke="#63b8ff" d="M89.95,-245.39C114.55,-292.36 213.71,-481.67 246.88,-545"/>
<polygon fill="#63b8ff" stroke="#63b8ff" points="243.67,-546.41 251.41,-553.64 249.87,-543.16 243.67,-546.41"/>
</a>
</g>
</g>
<!-- Node11 -->
<g id="Node000011" class="node">
<title>Node11</title>
<g id="a_Node000011"><a xlink:href="../../db/ddd/classfl_1_1_heap_vector.html#af55b7debe54f11e76ecf7dc6e7b50984" target="_top" xlink:title=" ">
<polygon fill="white" stroke="#666666" points="314.75,-226.12 202.75,-226.12 202.75,-205.38 314.75,-205.38 314.75,-226.12"/>
<text text-anchor="middle" x="258.75" y="-212.62" font-family="Helvetica,sans-Serif" font-size="10.00">fl::HeapVector::data</text>
</a>
</g>
</g>
<!-- Node1&#45;&gt;Node11 -->
<g id="edge9_Node000001_Node000011" class="edge">
<title>Node1&#45;&gt;Node11</title>
<g id="a_edge9_Node000001_Node000011"><a xlink:title=" ">
<path fill="none" stroke="#63b8ff" d="M167,-225.7C175.09,-224.81 183.22,-223.92 191.12,-223.05"/>
<polygon fill="#63b8ff" stroke="#63b8ff" points="191.43,-226.54 200.99,-221.97 190.66,-219.58 191.43,-226.54"/>
</a>
</g>
</g>
<!-- Node12 -->
<g id="Node000012" class="node">
<title>Node12</title>
<g id="a_Node000012"><a xlink:href="../../dd/dbb/class_c_fast_l_e_d.html#a83afdd1e2a21f33ac4f8d2610d6e331b" target="_top" xlink:title="Update all our controllers with the current led colors, using the passed in brightness.">
<polygon fill="white" stroke="#666666" points="305,-265.12 212.5,-265.12 212.5,-244.38 305,-244.38 305,-265.12"/>
<text text-anchor="middle" x="258.75" y="-251.62" font-family="Helvetica,sans-Serif" font-size="10.00">CFastLED::show</text>
</a>
</g>
</g>
<!-- Node1&#45;&gt;Node12 -->
<g id="edge10_Node000001_Node000012" class="edge">
<title>Node1&#45;&gt;Node12</title>
<g id="a_edge10_Node000001_Node000012"><a xlink:title=" ">
<path fill="none" stroke="#63b8ff" d="M167,-244.28C178.4,-245.6 189.9,-246.92 200.69,-248.17"/>
<polygon fill="#63b8ff" stroke="#63b8ff" points="200.26,-251.64 210.6,-249.31 201.06,-244.69 200.26,-251.64"/>
</a>
</g>
</g>
<!-- Node30 -->
<g id="Node000030" class="node">
<title>Node30</title>
<g id="a_Node000030"><a xlink:href="../../db/ddd/classfl_1_1_heap_vector.html#a37e5c0526e1be1bdc4c17139ac026939" target="_top" xlink:title=" ">
<polygon fill="white" stroke="#666666" points="313.62,-187.12 203.88,-187.12 203.88,-166.38 313.62,-166.38 313.62,-187.12"/>
<text text-anchor="middle" x="258.75" y="-173.62" font-family="Helvetica,sans-Serif" font-size="10.00">fl::HeapVector::size</text>
</a>
</g>
</g>
<!-- Node1&#45;&gt;Node30 -->
<g id="edge33_Node000001_Node000030" class="edge">
<title>Node1&#45;&gt;Node30</title>
<g id="a_edge33_Node000001_Node000030"><a xlink:title=" ">
<path fill="none" stroke="#63b8ff" d="M116.58,-223.98C144.23,-214.73 184.31,-201.32 214.71,-191.15"/>
<polygon fill="#63b8ff" stroke="#63b8ff" points="215.62,-194.54 223.99,-188.04 213.4,-187.9 215.62,-194.54"/>
</a>
</g>
</g>
<!-- Node3 -->
<g id="Node000003" class="node">
<title>Node3</title>
<g id="a_Node000003"><a xlink:href="../../d6/d2c/class_c_l_e_d_controller.html#a44d20f088426191c82919c9cdbc63a35" target="_top" xlink:title="Gets the maximum possible refresh rate of the strip.">
<polygon fill="white" stroke="#666666" points="543,-683.12 350.75,-683.12 350.75,-662.38 543,-662.38 543,-683.12"/>
<text text-anchor="middle" x="446.88" y="-669.62" font-family="Helvetica,sans-Serif" font-size="10.00">CLEDController::getMaxRefreshRate</text>
</a>
</g>
</g>
<!-- Node2&#45;&gt;Node3 -->
<g id="edge2_Node000002_Node000003" class="edge">
<title>Node2&#45;&gt;Node3</title>
<g id="a_edge2_Node000002_Node000003"><a xlink:title=" ">
<path fill="none" stroke="#63b8ff" d="M267.68,-576.55C282.02,-595.25 314.21,-633.49 350.75,-652.75 354.48,-654.71 358.38,-656.49 362.4,-658.08"/>
<polygon fill="#63b8ff" stroke="#63b8ff" points="361.2,-661.37 371.8,-661.41 363.54,-654.78 361.2,-661.37"/>
</a>
</g>
</g>
<!-- Node4 -->
<g id="Node000004" class="node">
<title>Node4</title>
<g id="a_Node000004"><a xlink:href="../../d6/d2c/class_c_l_e_d_controller.html#af877a15a5ec452780fbd1d359b8a9913" target="_top" xlink:title="Initialize the LED controller.">
<polygon fill="white" stroke="#666666" points="502.5,-644.12 391.25,-644.12 391.25,-623.38 502.5,-623.38 502.5,-644.12"/>
<text text-anchor="middle" x="446.88" y="-630.62" font-family="Helvetica,sans-Serif" font-size="10.00">CLEDController::init</text>
</a>
</g>
</g>
<!-- Node2&#45;&gt;Node4 -->
<g id="edge3_Node000002_Node000004" class="edge">
<title>Node2&#45;&gt;Node4</title>
<g id="a_edge3_Node000002_Node000004"><a xlink:title=" ">
<path fill="none" stroke="#63b8ff" d="M276.16,-576.53C293.86,-587.69 323.23,-604.84 350.75,-614.75 359.96,-618.07 369.89,-620.85 379.74,-623.19"/>
<polygon fill="#63b8ff" stroke="#63b8ff" points="378.79,-626.56 389.31,-625.3 380.3,-619.73 378.79,-626.56"/>
</a>
</g>
</g>
<!-- Node5 -->
<g id="Node000005" class="node">
<title>Node5</title>
<g id="a_Node000005"><a xlink:href="../../de/dca/classfl_1_1_engine_events.html#a8ec266f9f7b35b9174d331cb6c338d80" target="_top" xlink:title=" ">
<polygon fill="white" stroke="#666666" points="514.12,-605.5 379.62,-605.5 379.62,-572 514.12,-572 514.12,-605.5"/>
<text text-anchor="start" x="387.62" y="-592" font-family="Helvetica,sans-Serif" font-size="10.00">fl::EngineEvents::onStrip</text>
<text text-anchor="middle" x="446.88" y="-579.25" font-family="Helvetica,sans-Serif" font-size="10.00">Added</text>
</a>
</g>
</g>
<!-- Node2&#45;&gt;Node5 -->
<g id="edge4_Node000002_Node000005" class="edge">
<title>Node2&#45;&gt;Node5</title>
<g id="a_edge4_Node000002_Node000005"><a xlink:title=" ">
<path fill="none" stroke="#63b8ff" d="M312.59,-572.28C329.85,-574.41 349.39,-576.83 368.09,-579.14"/>
<polygon fill="#63b8ff" stroke="#63b8ff" points="367.43,-582.58 377.78,-580.34 368.29,-575.64 367.43,-582.58"/>
</a>
</g>
</g>
<!-- Node9 -->
<g id="Node000009" class="node">
<title>Node9</title>
<g id="a_Node000009"><a xlink:href="../../d6/d2c/class_c_l_e_d_controller.html#a6c8e2157d244ce8b1b878947ca7695d9" target="_top" xlink:title="Set the default array of LEDs to be used by this controller.">
<polygon fill="white" stroke="#666666" points="513.38,-554.12 380.38,-554.12 380.38,-533.38 513.38,-533.38 513.38,-554.12"/>
<text text-anchor="middle" x="446.88" y="-540.62" font-family="Helvetica,sans-Serif" font-size="10.00">CLEDController::setLeds</text>
</a>
</g>
</g>
<!-- Node2&#45;&gt;Node9 -->
<g id="edge7_Node000002_Node000009" class="edge">
<title>Node2&#45;&gt;Node9</title>
<g id="a_edge7_Node000002_Node000009"><a xlink:title=" ">
<path fill="none" stroke="#63b8ff" d="M312.59,-559.5C330.03,-557.44 349.8,-555.11 368.67,-552.88"/>
<polygon fill="#63b8ff" stroke="#63b8ff" points="368.94,-556.37 378.46,-551.72 368.12,-549.42 368.94,-556.37"/>
</a>
</g>
</g>
<!-- Node10 -->
<g id="Node000010" class="node">
<title>Node10</title>
<g id="a_Node000010"><a xlink:href="../../dd/dbb/class_c_fast_l_e_d.html#a1f39e8404db214bbd6a776f52a77d8b1" target="_top" xlink:title="Set the maximum refresh rate.">
<polygon fill="white" stroke="#666666" points="528.38,-515.12 365.38,-515.12 365.38,-494.38 528.38,-494.38 528.38,-515.12"/>
<text text-anchor="middle" x="446.88" y="-501.62" font-family="Helvetica,sans-Serif" font-size="10.00">CFastLED::setMaxRefreshRate</text>
</a>
</g>
</g>
<!-- Node2&#45;&gt;Node10 -->
<g id="edge8_Node000002_Node000010" class="edge">
<title>Node2&#45;&gt;Node10</title>
<g id="a_edge8_Node000002_Node000010"><a xlink:title=" ">
<path fill="none" stroke="#63b8ff" d="M280.21,-554.99C298.32,-545.84 325.71,-532.92 350.75,-524.75 358.06,-522.37 365.77,-520.2 373.52,-518.24"/>
<polygon fill="#63b8ff" stroke="#63b8ff" points="374.08,-521.71 382.99,-515.98 372.45,-514.9 374.08,-521.71"/>
</a>
</g>
</g>
<!-- Node6 -->
<g id="Node000006" class="node">
<title>Node6</title>
<g id="a_Node000006"><a xlink:href="../../de/dca/classfl_1_1_engine_events.html#a006e1f01b766436e0eec2e406b4512d5" target="_top" xlink:title=" ">
<polygon fill="white" stroke="#666666" points="707.5,-605.5 607.5,-605.5 607.5,-572 707.5,-572 707.5,-605.5"/>
<text text-anchor="start" x="615.5" y="-592" font-family="Helvetica,sans-Serif" font-size="10.00">fl::EngineEvents::</text>
<text text-anchor="middle" x="657.5" y="-579.25" font-family="Helvetica,sans-Serif" font-size="10.00">_onStripAdded</text>
</a>
</g>
</g>
<!-- Node5&#45;&gt;Node6 -->
<g id="edge5_Node000005_Node000006" class="edge">
<title>Node5&#45;&gt;Node6</title>
<g id="a_edge5_Node000005_Node000006"><a xlink:title=" ">
<path fill="none" stroke="#63b8ff" d="M514.46,-588.75C540.52,-588.75 570.21,-588.75 595.68,-588.75"/>
<polygon fill="#63b8ff" stroke="#63b8ff" points="595.55,-592.25 605.55,-588.75 595.55,-585.25 595.55,-592.25"/>
</a>
</g>
</g>
<!-- Node7 -->
<g id="Node000007" class="node">
<title>Node7</title>
<g id="a_Node000007"><a xlink:href="../../de/dca/classfl_1_1_engine_events.html#a34a4625c4fbcf754f70820bc4f0e418b" target="_top" xlink:title=" ">
<polygon fill="#fff0f0" stroke="red" points="736,-473.12 579,-473.12 579,-452.38 736,-452.38 736,-473.12"/>
<text text-anchor="middle" x="657.5" y="-459.62" font-family="Helvetica,sans-Serif" font-size="10.00">fl::EngineEvents::getInstance</text>
</a>
</g>
</g>
<!-- Node5&#45;&gt;Node7 -->
<g id="edge6_Node000005_Node000007" class="edge">
<title>Node5&#45;&gt;Node7</title>
<g id="a_edge6_Node000005_Node000007"><a xlink:title=" ">
<path fill="none" stroke="#63b8ff" d="M514.6,-578.68C524.9,-574.92 534.82,-569.78 543,-562.75 572.88,-537.08 548.78,-507.02 579,-481.75 580.11,-480.83 581.25,-479.94 582.43,-479.1"/>
<polygon fill="#63b8ff" stroke="#63b8ff" points="583.88,-482.31 590.72,-474.22 580.32,-476.28 583.88,-482.31"/>
</a>
</g>
</g>
<!-- Node13 -->
<g id="Node000013" class="node">
<title>Node13</title>
<g id="a_Node000013"><a xlink:href="../../d6/d2c/class_c_l_e_d_controller.html#af9962ef739bdb3b590ee66f3780765d6" target="_top" xlink:title=" ">
<polygon fill="white" stroke="#666666" points="532.5,-341.12 361.25,-341.12 361.25,-320.38 532.5,-320.38 532.5,-341.12"/>
<text text-anchor="middle" x="446.88" y="-327.62" font-family="Helvetica,sans-Serif" font-size="10.00">CLEDController::beginShowLeds</text>
</a>
</g>
</g>
<!-- Node12&#45;&gt;Node13 -->
<g id="edge11_Node000012_Node000013" class="edge">
<title>Node12&#45;&gt;Node13</title>
<g id="a_edge11_Node000012_Node000013"><a xlink:title=" ">
<path fill="none" stroke="#63b8ff" d="M275.52,-265.54C293.15,-277.17 322.9,-295.53 350.75,-306.75 360.38,-310.63 370.82,-314.02 381.13,-316.94"/>
<polygon fill="#63b8ff" stroke="#63b8ff" points="380.2,-320.32 390.77,-319.53 382.02,-313.56 380.2,-320.32"/>
</a>
</g>
</g>
<!-- Node15 -->
<g id="Node000015" class="node">
<title>Node15</title>
<g id="a_Node000015"><a xlink:href="../../d6/d2c/class_c_l_e_d_controller.html#a63f75cf7e55cf8da46db5fd27110bb3e" target="_top" xlink:title="How many LEDs does this controller manage?">
<polygon fill="white" stroke="#666666" points="715,-292.12 600,-292.12 600,-271.38 715,-271.38 715,-292.12"/>
<text text-anchor="middle" x="657.5" y="-278.62" font-family="Helvetica,sans-Serif" font-size="10.00">CLEDController::size</text>
</a>
</g>
</g>
<!-- Node12&#45;&gt;Node15 -->
<g id="edge32_Node000012_Node000015" class="edge">
<title>Node12&#45;&gt;Node15</title>
<g id="a_edge32_Node000012_Node000015"><a xlink:title=" ">
<path fill="none" stroke="#63b8ff" d="M303.46,-265.54C318.37,-268.77 335.2,-271.94 350.75,-273.75 432.06,-283.22 526.31,-284.19 588.43,-283.46"/>
<polygon fill="#63b8ff" stroke="#63b8ff" points="588.19,-286.96 598.14,-283.32 588.09,-279.96 588.19,-286.96"/>
</a>
</g>
</g>
<!-- Node16 -->
<g id="Node000016" class="node">
<title>Node16</title>
<g id="a_Node000016"><a xlink:href="../../dd/dbb/class_c_fast_l_e_d.html#a61d27e179c9b68bde89d220aebc0de32" target="_top" xlink:title="For debugging, this will keep track of time between calls to countFPS().">
<polygon fill="white" stroke="#666666" points="502.88,-265.12 390.88,-265.12 390.88,-244.38 502.88,-244.38 502.88,-265.12"/>
<text text-anchor="middle" x="446.88" y="-251.62" font-family="Helvetica,sans-Serif" font-size="10.00">CFastLED::countFPS</text>
</a>
</g>
</g>
<!-- Node12&#45;&gt;Node16 -->
<g id="edge14_Node000012_Node000016" class="edge">
<title>Node12&#45;&gt;Node16</title>
<g id="a_edge14_Node000012_Node000016"><a xlink:title=" ">
<path fill="none" stroke="#63b8ff" d="M305.28,-254.75C327.49,-254.75 354.63,-254.75 379.12,-254.75"/>
<polygon fill="#63b8ff" stroke="#63b8ff" points="379.01,-258.25 389.01,-254.75 379.01,-251.25 379.01,-258.25"/>
</a>
</g>
</g>
<!-- Node17 -->
<g id="Node000017" class="node">
<title>Node17</title>
<g id="a_Node000017"><a xlink:href="../../d6/d2c/class_c_l_e_d_controller.html#a49b221af013bf196c2068e2cbd1c299d" target="_top" xlink:title=" ">
<polygon fill="white" stroke="#666666" points="528,-189.12 365.75,-189.12 365.75,-168.38 528,-168.38 528,-189.12"/>
<text text-anchor="middle" x="446.88" y="-175.62" font-family="Helvetica,sans-Serif" font-size="10.00">CLEDController::endShowLeds</text>
</a>
</g>
</g>
<!-- Node12&#45;&gt;Node17 -->
<g id="edge15_Node000012_Node000017" class="edge">
<title>Node12&#45;&gt;Node17</title>
<g id="a_edge15_Node000012_Node000017"><a xlink:title=" ">
<path fill="none" stroke="#63b8ff" d="M295.57,-243.96C302.15,-241.36 308.82,-238.29 314.75,-234.75 333.14,-223.79 331.83,-212.77 350.75,-202.75 357.94,-198.94 365.76,-195.72 373.73,-193"/>
<polygon fill="#63b8ff" stroke="#63b8ff" points="374.69,-196.36 383.19,-190.04 372.6,-189.68 374.69,-196.36"/>
</a>
</g>
</g>
<!-- Node18 -->
<g id="Node000018" class="node">
<title>Node18</title>
<g id="a_Node000018"><a xlink:href="../../d6/d2c/class_c_l_e_d_controller.html#a2a231accbeb00e6a6080a7e55274a279" target="_top" xlink:title="Set the dithering mode for this controller to use.">
<polygon fill="white" stroke="#666666" points="727.75,-208.12 587.25,-208.12 587.25,-187.38 727.75,-187.38 727.75,-208.12"/>
<text text-anchor="middle" x="657.5" y="-194.62" font-family="Helvetica,sans-Serif" font-size="10.00">CLEDController::setDither</text>
</a>
</g>
</g>
<!-- Node12&#45;&gt;Node18 -->
<g id="edge29_Node000012_Node000018" class="edge">
<title>Node12&#45;&gt;Node18</title>
<g id="a_edge29_Node000012_Node000018"><a xlink:title=" ">
<path fill="none" stroke="#63b8ff" d="M305.44,-244.44C319.89,-241.39 335.94,-238.21 350.75,-235.75 426.75,-223.11 514.02,-212.67 575.82,-205.95"/>
<polygon fill="#63b8ff" stroke="#63b8ff" points="575.98,-209.45 585.54,-204.9 575.23,-202.49 575.98,-209.45"/>
</a>
</g>
</g>
<!-- Node19 -->
<g id="Node000019" class="node">
<title>Node19</title>
<g id="a_Node000019"><a xlink:href="../../d6/d2c/class_c_l_e_d_controller.html#a6bd253f670640ea4d1bd0d71b8029f2a" target="_top" xlink:title=" ">
<polygon fill="white" stroke="#666666" points="522,-150.12 371.75,-150.12 371.75,-129.38 522,-129.38 522,-150.12"/>
<text text-anchor="middle" x="446.88" y="-136.62" font-family="Helvetica,sans-Serif" font-size="10.00">CLEDController::getEnabled</text>
</a>
</g>
</g>
<!-- Node12&#45;&gt;Node19 -->
<g id="edge17_Node000012_Node000019" class="edge">
<title>Node12&#45;&gt;Node19</title>
<g id="a_edge17_Node000012_Node000019"><a xlink:title=" ">
<path fill="none" stroke="#63b8ff" d="M300.85,-243.92C305.89,-241.45 310.68,-238.43 314.75,-234.75 342.15,-209.93 321.66,-182.57 350.75,-159.75 354.07,-157.15 357.64,-154.87 361.39,-152.86"/>
<polygon fill="#63b8ff" stroke="#63b8ff" points="362.64,-156.14 370.29,-148.81 359.74,-149.77 362.64,-156.14"/>
</a>
</g>
</g>
<!-- Node20 -->
<g id="Node000020" class="node">
<title>Node20</title>
<g id="a_Node000020"><a xlink:href="../../d6/d2c/class_c_l_e_d_controller.html#a8b412ff1fd4833d0db63a175d40a2ee0" target="_top" xlink:title="Get the first LED controller in the linked list of controllers.">
<polygon fill="white" stroke="#666666" points="506.62,-111.12 387.12,-111.12 387.12,-90.38 506.62,-90.38 506.62,-111.12"/>
<text text-anchor="middle" x="446.88" y="-97.62" font-family="Helvetica,sans-Serif" font-size="10.00">CLEDController::head</text>
</a>
</g>
</g>
<!-- Node12&#45;&gt;Node20 -->
<g id="edge18_Node000012_Node000020" class="edge">
<title>Node12&#45;&gt;Node20</title>
<g id="a_edge18_Node000012_Node000020"><a xlink:title=" ">
<path fill="none" stroke="#63b8ff" d="M302.18,-244.01C306.83,-241.54 311.17,-238.49 314.75,-234.75 351.51,-196.38 311.37,-156.42 350.75,-120.75 357.94,-114.24 366.7,-109.64 375.96,-106.43"/>
<polygon fill="#63b8ff" stroke="#63b8ff" points="376.9,-109.8 385.55,-103.68 374.97,-103.07 376.9,-109.8"/>
</a>
</g>
</g>
<!-- Node21 -->
<g id="Node000021" class="node">
<title>Node21</title>
<g id="a_Node000021"><a xlink:href="../../d6/d2c/class_c_l_e_d_controller.html#a21a4d2b3415dd7b24175ebdb51c9ced0" target="_top" xlink:title="Get the next controller in the linked list after this one.">
<polygon fill="white" stroke="#666666" points="505.5,-72.12 388.25,-72.12 388.25,-51.38 505.5,-51.38 505.5,-72.12"/>
<text text-anchor="middle" x="446.88" y="-58.62" font-family="Helvetica,sans-Serif" font-size="10.00">CLEDController::next</text>
</a>
</g>
</g>
<!-- Node12&#45;&gt;Node21 -->
<g id="edge19_Node000012_Node000021" class="edge">
<title>Node12&#45;&gt;Node21</title>
<g id="a_edge19_Node000012_Node000021"><a xlink:title=" ">
<path fill="none" stroke="#63b8ff" d="M302.99,-243.97C307.39,-241.5 311.44,-238.47 314.75,-234.75 361.16,-182.53 300.77,-130.55 350.75,-81.75 358.11,-74.56 367.36,-69.67 377.18,-66.37"/>
<polygon fill="#63b8ff" stroke="#63b8ff" points="377.82,-69.83 386.54,-63.8 375.96,-63.08 377.82,-69.83"/>
</a>
</g>
</g>
<!-- Node22 -->
<g id="Node000022" class="node">
<title>Node22</title>
<g id="a_Node000022"><a xlink:href="../../de/dca/classfl_1_1_engine_events.html#a7147debfba714b8ab0925af1a7c935c0" target="_top" xlink:title=" ">
<polygon fill="white" stroke="#666666" points="516.75,-476.5 377,-476.5 377,-443 516.75,-443 516.75,-476.5"/>
<text text-anchor="start" x="385" y="-463" font-family="Helvetica,sans-Serif" font-size="10.00">fl::EngineEvents::onBegin</text>
<text text-anchor="middle" x="446.88" y="-450.25" font-family="Helvetica,sans-Serif" font-size="10.00">Frame</text>
</a>
</g>
</g>
<!-- Node12&#45;&gt;Node22 -->
<g id="edge20_Node000012_Node000022" class="edge">
<title>Node12&#45;&gt;Node22</title>
<g id="a_edge20_Node000012_Node000022"><a xlink:title=" ">
<path fill="none" stroke="#63b8ff" d="M262.01,-265.53C269.12,-296.68 293.99,-387.51 350.75,-433.75 355.48,-437.6 360.73,-440.89 366.28,-443.68"/>
<polygon fill="#63b8ff" stroke="#63b8ff" points="364.57,-446.76 375.13,-447.6 367.4,-440.36 364.57,-446.76"/>
</a>
</g>
</g>
<!-- Node24 -->
<g id="Node000024" class="node">
<title>Node24</title>
<g id="a_Node000024"><a xlink:href="../../de/dca/classfl_1_1_engine_events.html#ab7d24c4783214392de84947cd7df5570" target="_top" xlink:title=" ">
<polygon fill="white" stroke="#666666" points="527.25,-425.12 366.5,-425.12 366.5,-404.38 527.25,-404.38 527.25,-425.12"/>
<text text-anchor="middle" x="446.88" y="-411.62" font-family="Helvetica,sans-Serif" font-size="10.00">fl::EngineEvents::onEndFrame</text>
</a>
</g>
</g>
<!-- Node12&#45;&gt;Node24 -->
<g id="edge23_Node000012_Node000024" class="edge">
<title>Node12&#45;&gt;Node24</title>
<g id="a_edge23_Node000012_Node000024"><a xlink:title=" ">
<path fill="none" stroke="#63b8ff" d="M263.86,-265.33C274.3,-290.75 304.31,-355.56 350.75,-388.75 356.93,-393.16 363.82,-396.83 370.99,-399.87"/>
<polygon fill="#63b8ff" stroke="#63b8ff" points="369.64,-403.1 380.23,-403.37 372.12,-396.56 369.64,-403.1"/>
</a>
</g>
</g>
<!-- Node26 -->
<g id="Node000026" class="node">
<title>Node26</title>
<g id="a_Node000026"><a xlink:href="../../de/dca/classfl_1_1_engine_events.html#af1bb9a46fdc6694a1b5c87a49c516ae8" target="_top" xlink:title=" ">
<polygon fill="white" stroke="#666666" points="536.25,-380.12 357.5,-380.12 357.5,-359.38 536.25,-359.38 536.25,-380.12"/>
<text text-anchor="middle" x="446.88" y="-366.62" font-family="Helvetica,sans-Serif" font-size="10.00">fl::EngineEvents::onEndShowLeds</text>
</a>
</g>
</g>
<!-- Node12&#45;&gt;Node26 -->
<g id="edge26_Node000012_Node000026" class="edge">
<title>Node12&#45;&gt;Node26</title>
<g id="a_edge26_Node000012_Node000026"><a xlink:title=" ">
<path fill="none" stroke="#63b8ff" d="M266.78,-265.6C280.4,-285.67 312.42,-328.46 350.75,-349.75 354.17,-351.65 357.76,-353.37 361.44,-354.93"/>
<polygon fill="#63b8ff" stroke="#63b8ff" points="360.05,-358.15 370.65,-358.37 362.51,-351.59 360.05,-358.15"/>
</a>
</g>
</g>
<!-- Node28 -->
<g id="Node000028" class="node">
<title>Node28</title>
<g id="a_Node000028"><a xlink:href="../../d6/d2c/class_c_l_e_d_controller.html#ac5355e980ac13d9ae97561f183f73990" target="_top" xlink:title="Write the data to the LEDs managed by this controller.">
<polygon fill="white" stroke="#666666" points="518.62,-33.5 375.12,-33.5 375.12,0 518.62,0 518.62,-33.5"/>
<text text-anchor="start" x="383.12" y="-20" font-family="Helvetica,sans-Serif" font-size="10.00">CLEDController::showLeds</text>
<text text-anchor="middle" x="446.88" y="-7.25" font-family="Helvetica,sans-Serif" font-size="10.00">Internal</text>
</a>
</g>
</g>
<!-- Node12&#45;&gt;Node28 -->
<g id="edge30_Node000012_Node000028" class="edge">
<title>Node12&#45;&gt;Node28</title>
<g id="a_edge30_Node000012_Node000028"><a xlink:title=" ">
<path fill="none" stroke="#63b8ff" d="M303.42,-243.96C307.69,-241.5 311.59,-238.47 314.75,-234.75 370.93,-168.55 291.91,-106.59 350.75,-42.75 354.78,-38.38 359.47,-34.71 364.56,-31.64"/>
<polygon fill="#63b8ff" stroke="#63b8ff" points="366.11,-34.78 373.44,-27.13 362.94,-28.54 366.11,-34.78"/>
</a>
</g>
</g>
<!-- Node14 -->
<g id="Node000014" class="node">
<title>Node14</title>
<g id="a_Node000014"><a xlink:href="../../d6/d2c/class_c_l_e_d_controller.html#a676f705adf93898739a405b85150a3e7" target="_top" xlink:title="Get the dithering option currently set for this controller.">
<polygon fill="white" stroke="#666666" points="728.12,-331.12 586.88,-331.12 586.88,-310.38 728.12,-310.38 728.12,-331.12"/>
<text text-anchor="middle" x="657.5" y="-317.62" font-family="Helvetica,sans-Serif" font-size="10.00">CLEDController::getDither</text>
</a>
</g>
</g>
<!-- Node13&#45;&gt;Node14 -->
<g id="edge12_Node000013_Node000014" class="edge">
<title>Node13&#45;&gt;Node14</title>
<g id="a_edge12_Node000013_Node000014"><a xlink:title=" ">
<path fill="none" stroke="#63b8ff" d="M532.73,-326.68C546.66,-326.02 561.06,-325.32 574.9,-324.66"/>
<polygon fill="#63b8ff" stroke="#63b8ff" points="575.05,-328.16 584.87,-324.18 574.71,-321.17 575.05,-328.16"/>
</a>
</g>
</g>
<!-- Node13&#45;&gt;Node15 -->
<g id="edge13_Node000013_Node000015" class="edge">
<title>Node13&#45;&gt;Node15</title>
<g id="a_edge13_Node000013_Node000015"><a xlink:title=" ">
<path fill="none" stroke="#63b8ff" d="M494.18,-319.88C525.24,-312.58 566.36,-302.92 599.44,-295.15"/>
<polygon fill="#63b8ff" stroke="#63b8ff" points="599.92,-298.63 608.86,-292.94 598.32,-291.82 599.92,-298.63"/>
</a>
</g>
</g>
<!-- Node17&#45;&gt;Node18 -->
<g id="edge16_Node000017_Node000018" class="edge">
<title>Node17&#45;&gt;Node18</title>
<g id="a_edge16_Node000017_Node000018"><a xlink:title=" ">
<path fill="none" stroke="#63b8ff" d="M528.24,-186.07C543.85,-187.49 560.21,-188.98 575.83,-190.4"/>
<polygon fill="#63b8ff" stroke="#63b8ff" points="575.27,-193.87 585.55,-191.29 575.9,-186.9 575.27,-193.87"/>
</a>
</g>
</g>
<!-- Node22&#45;&gt;Node7 -->
<g id="edge22_Node000022_Node000007" class="edge">
<title>Node22&#45;&gt;Node7</title>
<g id="a_edge22_Node000022_Node000007"><a xlink:title=" ">
<path fill="none" stroke="#63b8ff" d="M517.05,-460.74C533.3,-460.98 550.84,-461.23 567.81,-461.47"/>
<polygon fill="#63b8ff" stroke="#63b8ff" points="567.3,-464.97 577.35,-461.61 567.4,-457.97 567.3,-464.97"/>
</a>
</g>
</g>
<!-- Node23 -->
<g id="Node000023" class="node">
<title>Node23</title>
<g id="a_Node000023"><a xlink:href="../../de/dca/classfl_1_1_engine_events.html#a9dfab83407c4cb0c15065e242d49de62" target="_top" xlink:title=" ">
<polygon fill="white" stroke="#666666" points="707.5,-524.5 607.5,-524.5 607.5,-491 707.5,-491 707.5,-524.5"/>
<text text-anchor="start" x="615.5" y="-511" font-family="Helvetica,sans-Serif" font-size="10.00">fl::EngineEvents::</text>
<text text-anchor="middle" x="657.5" y="-498.25" font-family="Helvetica,sans-Serif" font-size="10.00">_onBeginFrame</text>
</a>
</g>
</g>
<!-- Node22&#45;&gt;Node23 -->
<g id="edge21_Node000022_Node000023" class="edge">
<title>Node22&#45;&gt;Node23</title>
<g id="a_edge21_Node000022_Node000023"><a xlink:title=" ">
<path fill="none" stroke="#63b8ff" d="M517.05,-475.67C542.67,-481.56 571.48,-488.19 596.23,-493.88"/>
<polygon fill="#63b8ff" stroke="#63b8ff" points="595.29,-497.26 605.82,-496.09 596.86,-490.44 595.29,-497.26"/>
</a>
</g>
</g>
<!-- Node24&#45;&gt;Node7 -->
<g id="edge25_Node000024_Node000007" class="edge">
<title>Node24&#45;&gt;Node7</title>
<g id="a_edge25_Node000024_Node000007"><a xlink:title=" ">
<path fill="none" stroke="#63b8ff" d="M505.62,-425.57C517.99,-428.09 530.96,-430.88 543,-433.75 559.15,-437.6 562.93,-439.55 579,-443.75 585.86,-445.54 593.08,-447.38 600.23,-449.17"/>
<polygon fill="#63b8ff" stroke="#63b8ff" points="599.34,-452.56 609.89,-451.57 601.03,-445.76 599.34,-452.56"/>
</a>
</g>
</g>
<!-- Node25 -->
<g id="Node000025" class="node">
<title>Node25</title>
<g id="a_Node000025"><a xlink:href="../../de/dca/classfl_1_1_engine_events.html#a643d9a8597b79d76daed94c29845e886" target="_top" xlink:title=" ">
<polygon fill="white" stroke="#666666" points="707.5,-434.5 607.5,-434.5 607.5,-401 707.5,-401 707.5,-434.5"/>
<text text-anchor="start" x="615.5" y="-421" font-family="Helvetica,sans-Serif" font-size="10.00">fl::EngineEvents::</text>
<text text-anchor="middle" x="657.5" y="-408.25" font-family="Helvetica,sans-Serif" font-size="10.00">_onEndFrame</text>
</a>
</g>
</g>
<!-- Node24&#45;&gt;Node25 -->
<g id="edge24_Node000024_Node000025" class="edge">
<title>Node24&#45;&gt;Node25</title>
<g id="a_edge24_Node000024_Node000025"><a xlink:title=" ">
<path fill="none" stroke="#63b8ff" d="M527.64,-415.9C550.25,-416.22 574.5,-416.57 595.79,-416.88"/>
<polygon fill="#63b8ff" stroke="#63b8ff" points="595.72,-420.38 605.77,-417.02 595.82,-413.38 595.72,-420.38"/>
</a>
</g>
</g>
<!-- Node26&#45;&gt;Node7 -->
<g id="edge28_Node000026_Node000007" class="edge">
<title>Node26&#45;&gt;Node7</title>
<g id="a_edge28_Node000026_Node000007"><a xlink:title=" ">
<path fill="none" stroke="#63b8ff" d="M510.36,-380.47C521.82,-384.16 533.23,-389.11 543,-395.75 565.05,-410.74 556.75,-429.05 579,-443.75 580.86,-444.98 582.8,-446.13 584.79,-447.21"/>
<polygon fill="#63b8ff" stroke="#63b8ff" points="583.23,-450.34 593.77,-451.36 586.17,-443.99 583.23,-450.34"/>
</a>
</g>
</g>
<!-- Node27 -->
<g id="Node000027" class="node">
<title>Node27</title>
<g id="a_Node000027"><a xlink:href="../../de/dca/classfl_1_1_engine_events.html#ae6b4037ab7b73bf0d69e07c4956f9450" target="_top" xlink:title=" ">
<polygon fill="white" stroke="#666666" points="707.5,-382.5 607.5,-382.5 607.5,-349 707.5,-349 707.5,-382.5"/>
<text text-anchor="start" x="615.5" y="-369" font-family="Helvetica,sans-Serif" font-size="10.00">fl::EngineEvents::</text>
<text text-anchor="middle" x="657.5" y="-356.25" font-family="Helvetica,sans-Serif" font-size="10.00">_onEndShowLeds</text>
</a>
</g>
</g>
<!-- Node26&#45;&gt;Node27 -->
<g id="edge27_Node000026_Node000027" class="edge">
<title>Node26&#45;&gt;Node27</title>
<g id="a_edge27_Node000026_Node000027"><a xlink:title=" ">
<path fill="none" stroke="#63b8ff" d="M536.65,-368.05C556.58,-367.67 577.28,-367.27 595.76,-366.91"/>
<polygon fill="#63b8ff" stroke="#63b8ff" points="595.8,-370.41 605.73,-366.72 595.67,-363.42 595.8,-370.41"/>
</a>
</g>
</g>
<!-- Node29 -->
<g id="Node000029" class="node">
<title>Node29</title>
<g id="a_Node000029"><a xlink:href="../../d6/d2c/class_c_l_e_d_controller.html#afc8fb063666d03527aabc86d8531e007" target="_top" xlink:title="Write the passed in RGB data out to the LEDs managed by this controller.">
<polygon fill="white" stroke="#666666" points="718,-27.12 597,-27.12 597,-6.38 718,-6.38 718,-27.12"/>
<text text-anchor="middle" x="657.5" y="-13.62" font-family="Helvetica,sans-Serif" font-size="10.00">CLEDController::show</text>
</a>
</g>
</g>
<!-- Node28&#45;&gt;Node29 -->
<g id="edge31_Node000028_Node000029" class="edge">
<title>Node28&#45;&gt;Node29</title>
<g id="a_edge31_Node000028_Node000029"><a xlink:title=" ">
<path fill="none" stroke="#63b8ff" d="M519.09,-16.75C540.5,-16.75 563.99,-16.75 585.39,-16.75"/>
<polygon fill="#63b8ff" stroke="#63b8ff" points="585.2,-20.25 595.2,-16.75 585.2,-13.25 585.2,-20.25"/>
</a>
</g>
</g>
</g>
</svg>
