<?xml version="1.0" encoding="UTF-8" standalone="no"?>
<!DOCTYPE svg PUBLIC "-//W3C//DTD SVG 1.1//EN"
 "http://www.w3.org/Graphics/SVG/1.1/DTD/svg11.dtd">
<!-- Generated by graphviz version 12.2.1 (20241206.2353)
 -->
<!-- Title: setup Pages: 1 -->
<svg width="649pt" height="197pt"
 viewBox="0.00 0.00 648.75 196.75" xmlns="http://www.w3.org/2000/svg" xmlns:xlink="http://www.w3.org/1999/xlink">
<g id="graph0" class="graph" transform="scale(1 1) rotate(0) translate(4 192.75)">
<title>setup</title>
<!-- Node1 -->
<g id="Node000001" class="node">
<title>Node1</title>
<g id="a_Node000001"><a xlink:title=" ">
<polygon fill="#999999" stroke="#666666" points="43,-65.75 0,-65.75 0,-45 43,-45 43,-65.75"/>
<text text-anchor="middle" x="21.5" y="-52.25" font-family="Helvetica,sans-Serif" font-size="10.00">setup</text>
</a>
</g>
</g>
<!-- Node2 -->
<g id="Node000002" class="node">
<title>Node2</title>
<g id="a_Node000002"><a xlink:href="../../dd/dbb/class_c_fast_l_e_d.html#afd7928d822589740af6e23b2d510cf3f" target="_top" xlink:title="Add a CLEDController instance to the world.">
<polygon fill="white" stroke="#666666" points="203,-104.75 95.5,-104.75 95.5,-84 203,-84 203,-104.75"/>
<text text-anchor="middle" x="149.25" y="-91.25" font-family="Helvetica,sans-Serif" font-size="10.00">CFastLED::addLeds</text>
</a>
</g>
</g>
<!-- Node1&#45;&gt;Node2 -->
<g id="edge1_Node000001_Node000002" class="edge">
<title>Node1&#45;&gt;Node2</title>
<g id="a_edge1_Node000001_Node000002"><a xlink:title=" ">
<path fill="none" stroke="#63b8ff" d="M43.36,-62.63C53.99,-66.27 67.15,-70.67 79,-74.38 85.35,-76.36 92.05,-78.38 98.68,-80.34"/>
<polygon fill="#63b8ff" stroke="#63b8ff" points="97.67,-83.69 108.25,-83.14 99.63,-76.97 97.67,-83.69"/>
</a>
</g>
</g>
<!-- Node11 -->
<g id="Node000011" class="node">
<title>Node11</title>
<g id="a_Node000011"><a xlink:href="../../dd/dbb/class_c_fast_l_e_d.html#a730ba7d967e882b4b893689cf333b2eb" target="_top" xlink:title="Set the global brightness scaling.">
<polygon fill="white" stroke="#666666" points="216.12,-65.75 82.38,-65.75 82.38,-45 216.12,-45 216.12,-65.75"/>
<text text-anchor="middle" x="149.25" y="-52.25" font-family="Helvetica,sans-Serif" font-size="10.00">CFastLED::setBrightness</text>
</a>
</g>
</g>
<!-- Node1&#45;&gt;Node11 -->
<g id="edge9_Node000001_Node000011" class="edge">
<title>Node1&#45;&gt;Node11</title>
<g id="a_edge9_Node000001_Node000011"><a xlink:title=" ">
<path fill="none" stroke="#63b8ff" d="M43.27,-55.38C51.12,-55.38 60.6,-55.38 70.61,-55.38"/>
<polygon fill="#63b8ff" stroke="#63b8ff" points="70.56,-58.88 80.56,-55.38 70.56,-51.88 70.56,-58.88"/>
</a>
</g>
</g>
<!-- Node12 -->
<g id="Node000012" class="node">
<title>Node12</title>
<g id="a_Node000012"><a xlink:href="../../d6/d2c/class_c_l_e_d_controller.html#a2a231accbeb00e6a6080a7e55274a279" target="_top" xlink:title="Set the dithering mode for this controller to use.">
<polygon fill="white" stroke="#666666" points="219.5,-26.75 79,-26.75 79,-6 219.5,-6 219.5,-26.75"/>
<text text-anchor="middle" x="149.25" y="-13.25" font-family="Helvetica,sans-Serif" font-size="10.00">CLEDController::setDither</text>
</a>
</g>
</g>
<!-- Node1&#45;&gt;Node12 -->
<g id="edge10_Node000001_Node000012" class="edge">
<title>Node1&#45;&gt;Node12</title>
<g id="a_edge10_Node000001_Node000012"><a xlink:title=" ">
<path fill="none" stroke="#63b8ff" d="M43.36,-48.12C53.99,-44.48 67.15,-40.08 79,-36.38 85.35,-34.39 92.05,-32.37 98.68,-30.41"/>
<polygon fill="#63b8ff" stroke="#63b8ff" points="99.63,-33.78 108.25,-27.61 97.67,-27.06 99.63,-33.78"/>
</a>
</g>
</g>
<!-- Node3 -->
<g id="Node000003" class="node">
<title>Node3</title>
<g id="a_Node000003"><a xlink:href="../../d6/d2c/class_c_l_e_d_controller.html#a44d20f088426191c82919c9cdbc63a35" target="_top" xlink:title="Gets the maximum possible refresh rate of the strip.">
<polygon fill="white" stroke="#666666" points="447.75,-188.75 255.5,-188.75 255.5,-168 447.75,-168 447.75,-188.75"/>
<text text-anchor="middle" x="351.62" y="-175.25" font-family="Helvetica,sans-Serif" font-size="10.00">CLEDController::getMaxRefreshRate</text>
</a>
</g>
</g>
<!-- Node2&#45;&gt;Node3 -->
<g id="edge2_Node000002_Node000003" class="edge">
<title>Node2&#45;&gt;Node3</title>
<g id="a_edge2_Node000002_Node000003"><a xlink:title=" ">
<path fill="none" stroke="#63b8ff" d="M164.41,-105.16C183.88,-119.47 220.5,-144.53 255.5,-158.38 261.38,-160.7 267.58,-162.78 273.87,-164.62"/>
<polygon fill="#63b8ff" stroke="#63b8ff" points="272.49,-167.87 283.06,-167.12 274.33,-161.12 272.49,-167.87"/>
</a>
</g>
</g>
<!-- Node4 -->
<g id="Node000004" class="node">
<title>Node4</title>
<g id="a_Node000004"><a xlink:href="../../d6/d2c/class_c_l_e_d_controller.html#af877a15a5ec452780fbd1d359b8a9913" target="_top" xlink:title="Initialize the LED controller.">
<polygon fill="white" stroke="#666666" points="407.25,-149.75 296,-149.75 296,-129 407.25,-129 407.25,-149.75"/>
<text text-anchor="middle" x="351.62" y="-136.25" font-family="Helvetica,sans-Serif" font-size="10.00">CLEDController::init</text>
</a>
</g>
</g>
<!-- Node2&#45;&gt;Node4 -->
<g id="edge3_Node000002_Node000004" class="edge">
<title>Node2&#45;&gt;Node4</title>
<g id="a_edge3_Node000002_Node000004"><a xlink:title=" ">
<path fill="none" stroke="#63b8ff" d="M192.4,-105.25C211.6,-110.08 234.65,-115.72 255.5,-120.38 264.93,-122.48 274.92,-124.6 284.74,-126.62"/>
<polygon fill="#63b8ff" stroke="#63b8ff" points="283.73,-129.98 294.22,-128.54 285.12,-123.12 283.73,-129.98"/>
</a>
</g>
</g>
<!-- Node5 -->
<g id="Node000005" class="node">
<title>Node5</title>
<g id="a_Node000005"><a xlink:href="../../de/dca/classfl_1_1_engine_events.html#a8ec266f9f7b35b9174d331cb6c338d80" target="_top" xlink:title=" ">
<polygon fill="white" stroke="#666666" points="418.88,-111.12 284.38,-111.12 284.38,-77.62 418.88,-77.62 418.88,-111.12"/>
<text text-anchor="start" x="292.38" y="-97.62" font-family="Helvetica,sans-Serif" font-size="10.00">fl::EngineEvents::onStrip</text>
<text text-anchor="middle" x="351.62" y="-84.88" font-family="Helvetica,sans-Serif" font-size="10.00">Added</text>
</a>
</g>
</g>
<!-- Node2&#45;&gt;Node5 -->
<g id="edge4_Node000002_Node000005" class="edge">
<title>Node2&#45;&gt;Node5</title>
<g id="a_edge4_Node000002_Node000005"><a xlink:title=" ">
<path fill="none" stroke="#63b8ff" d="M203.42,-94.38C224.64,-94.38 249.51,-94.38 272.69,-94.38"/>
<polygon fill="#63b8ff" stroke="#63b8ff" points="272.41,-97.88 282.41,-94.38 272.41,-90.88 272.41,-97.88"/>
</a>
</g>
</g>
<!-- Node9 -->
<g id="Node000009" class="node">
<title>Node9</title>
<g id="a_Node000009"><a xlink:href="../../d6/d2c/class_c_l_e_d_controller.html#a6c8e2157d244ce8b1b878947ca7695d9" target="_top" xlink:title="Set the default array of LEDs to be used by this controller.">
<polygon fill="white" stroke="#666666" points="418.12,-59.75 285.12,-59.75 285.12,-39 418.12,-39 418.12,-59.75"/>
<text text-anchor="middle" x="351.62" y="-46.25" font-family="Helvetica,sans-Serif" font-size="10.00">CLEDController::setLeds</text>
</a>
</g>
</g>
<!-- Node2&#45;&gt;Node9 -->
<g id="edge7_Node000002_Node000009" class="edge">
<title>Node2&#45;&gt;Node9</title>
<g id="a_edge7_Node000002_Node000009"><a xlink:title=" ">
<path fill="none" stroke="#63b8ff" d="M192.4,-83.5C211.6,-78.67 234.65,-73.03 255.5,-68.38 264.38,-66.39 273.75,-64.4 283.01,-62.49"/>
<polygon fill="#63b8ff" stroke="#63b8ff" points="283.62,-65.94 292.72,-60.51 282.22,-59.08 283.62,-65.94"/>
</a>
</g>
</g>
<!-- Node10 -->
<g id="Node000010" class="node">
<title>Node10</title>
<g id="a_Node000010"><a xlink:href="../../dd/dbb/class_c_fast_l_e_d.html#a1f39e8404db214bbd6a776f52a77d8b1" target="_top" xlink:title="Set the maximum refresh rate.">
<polygon fill="white" stroke="#666666" points="433.12,-20.75 270.12,-20.75 270.12,0 433.12,0 433.12,-20.75"/>
<text text-anchor="middle" x="351.62" y="-7.25" font-family="Helvetica,sans-Serif" font-size="10.00">CFastLED::setMaxRefreshRate</text>
</a>
</g>
</g>
<!-- Node2&#45;&gt;Node10 -->
<g id="edge8_Node000002_Node000010" class="edge">
<title>Node2&#45;&gt;Node10</title>
<g id="a_edge8_Node000002_Node000010"><a xlink:title=" ">
<path fill="none" stroke="#63b8ff" d="M201.02,-83.62C207.52,-81.14 213.86,-78.1 219.5,-74.38 240.59,-60.46 233.91,-43.5 255.5,-30.38 258.43,-28.59 261.5,-26.97 264.66,-25.48"/>
<polygon fill="#63b8ff" stroke="#63b8ff" points="265.72,-28.83 273.64,-21.79 263.06,-22.36 265.72,-28.83"/>
</a>
</g>
</g>
<!-- Node6 -->
<g id="Node000006" class="node">
<title>Node6</title>
<g id="a_Node000006"><a xlink:href="../../de/dca/classfl_1_1_engine_events.html#a006e1f01b766436e0eec2e406b4512d5" target="_top" xlink:title=" ">
<polygon fill="white" stroke="#666666" points="612.25,-133.12 512.25,-133.12 512.25,-99.62 612.25,-99.62 612.25,-133.12"/>
<text text-anchor="start" x="520.25" y="-119.62" font-family="Helvetica,sans-Serif" font-size="10.00">fl::EngineEvents::</text>
<text text-anchor="middle" x="562.25" y="-106.88" font-family="Helvetica,sans-Serif" font-size="10.00">_onStripAdded</text>
</a>
</g>
</g>
<!-- Node5&#45;&gt;Node6 -->
<g id="edge5_Node000005_Node000006" class="edge">
<title>Node5&#45;&gt;Node6</title>
<g id="a_edge5_Node000005_Node000006"><a xlink:title=" ">
<path fill="none" stroke="#63b8ff" d="M419.21,-101.4C445.27,-104.14 474.96,-107.28 500.43,-109.96"/>
<polygon fill="#63b8ff" stroke="#63b8ff" points="500,-113.43 510.31,-111 500.73,-106.47 500,-113.43"/>
</a>
</g>
</g>
<!-- Node7 -->
<g id="Node000007" class="node">
<title>Node7</title>
<g id="a_Node000007"><a xlink:href="../../de/dca/classfl_1_1_engine_events.html#a34a4625c4fbcf754f70820bc4f0e418b" target="_top" xlink:title=" ">
<polygon fill="#fff0f0" stroke="red" points="640.75,-81.75 483.75,-81.75 483.75,-61 640.75,-61 640.75,-81.75"/>
<text text-anchor="middle" x="562.25" y="-68.25" font-family="Helvetica,sans-Serif" font-size="10.00">fl::EngineEvents::getInstance</text>
</a>
</g>
</g>
<!-- Node5&#45;&gt;Node7 -->
<g id="edge6_Node000005_Node000007" class="edge">
<title>Node5&#45;&gt;Node7</title>
<g id="a_edge6_Node000005_Node000007"><a xlink:title=" ">
<path fill="none" stroke="#63b8ff" d="M419.21,-87.03C436.02,-85.18 454.33,-83.16 472.06,-81.21"/>
<polygon fill="#63b8ff" stroke="#63b8ff" points="472.23,-84.71 481.79,-80.14 471.47,-77.75 472.23,-84.71"/>
</a>
</g>
</g>
</g>
</svg>
