<?xml version="1.0" encoding="UTF-8" standalone="no"?>
<!DOCTYPE svg PUBLIC "-//W3C//DTD SVG 1.1//EN"
 "http://www.w3.org/Graphics/SVG/1.1/DTD/svg11.dtd">
<!-- Generated by graphviz version 12.2.1 (20241206.2353)
 -->
<!-- Title: fl::StrN::clear Pages: 1 -->
<svg width="255pt" height="146pt"
 viewBox="0.00 0.00 255.25 145.75" xmlns="http://www.w3.org/2000/svg" xmlns:xlink="http://www.w3.org/1999/xlink">
<g id="graph0" class="graph" transform="scale(1 1) rotate(0) translate(4 141.75)">
<title>fl::StrN::clear</title>
<!-- Node1 -->
<g id="Node000001" class="node">
<title>Node1</title>
<g id="a_Node000001"><a xlink:title=" ">
<polygon fill="#999999" stroke="#666666" points="247.25,-78.75 168.25,-78.75 168.25,-58 247.25,-58 247.25,-78.75"/>
<text text-anchor="middle" x="207.75" y="-65.25" font-family="Helvetica,sans-Serif" font-size="10.00">fl::StrN::clear</text>
</a>
</g>
</g>
<!-- Node2 -->
<g id="Node000002" class="node">
<title>Node2</title>
<g id="a_Node000002"><a xlink:href="../../d4/dc6/classfl_1_1_str_stream.html#aab47add68ec53e899e6bed127bb419dc" target="_top" xlink:title=" ">
<polygon fill="white" stroke="#666666" points="132.25,-137.75 0,-137.75 0,-117 132.25,-117 132.25,-137.75"/>
<text text-anchor="middle" x="66.12" y="-124.25" font-family="Helvetica,sans-Serif" font-size="10.00">fl::StrStream::operator=</text>
</a>
</g>
</g>
<!-- Node1&#45;&gt;Node2 -->
<g id="edge1_Node000001_Node000002" class="edge">
<title>Node1&#45;&gt;Node2</title>
<g id="a_edge1_Node000001_Node000002"><a xlink:title=" ">
<path fill="none" stroke="#63b8ff" d="M178.73,-84.61C165.01,-92.15 148.07,-100.87 132.25,-107.38 124.05,-110.75 115.06,-113.86 106.45,-116.58"/>
<polygon fill="#63b8ff" stroke="#63b8ff" points="180.19,-87.8 187.21,-79.87 176.77,-81.7 180.19,-87.8"/>
</a>
</g>
</g>
<!-- Node3 -->
<g id="Node000003" class="node">
<title>Node3</title>
<g id="a_Node000003"><a xlink:href="../../d4/dc6/classfl_1_1_str_stream.html#a1b22e68aefc44775a9db5fe87a40d685" target="_top" xlink:title=" ">
<polygon fill="white" stroke="#666666" points="132.25,-98.75 0,-98.75 0,-78 132.25,-78 132.25,-98.75"/>
<text text-anchor="middle" x="66.12" y="-85.25" font-family="Helvetica,sans-Serif" font-size="10.00">fl::StrStream::operator=</text>
</a>
</g>
</g>
<!-- Node1&#45;&gt;Node3 -->
<g id="edge2_Node000001_Node000003" class="edge">
<title>Node1&#45;&gt;Node3</title>
<g id="a_edge2_Node000001_Node000003"><a xlink:title=" ">
<path fill="none" stroke="#63b8ff" d="M156.69,-75.55C148.86,-76.67 140.67,-77.84 132.56,-79"/>
<polygon fill="#63b8ff" stroke="#63b8ff" points="156.96,-79.04 166.36,-74.16 155.96,-72.11 156.96,-79.04"/>
</a>
</g>
</g>
<!-- Node4 -->
<g id="Node000004" class="node">
<title>Node4</title>
<g id="a_Node000004"><a xlink:href="../../d4/dc6/classfl_1_1_str_stream.html#af77ceb50bb638711c37771a4489f1d3c" target="_top" xlink:title=" ">
<polygon fill="white" stroke="#666666" points="132.25,-59.75 0,-59.75 0,-39 132.25,-39 132.25,-59.75"/>
<text text-anchor="middle" x="66.12" y="-46.25" font-family="Helvetica,sans-Serif" font-size="10.00">fl::StrStream::operator=</text>
</a>
</g>
</g>
<!-- Node1&#45;&gt;Node4 -->
<g id="edge3_Node000001_Node000004" class="edge">
<title>Node1&#45;&gt;Node4</title>
<g id="a_edge3_Node000001_Node000004"><a xlink:title=" ">
<path fill="none" stroke="#63b8ff" d="M156.69,-61.56C148.86,-60.5 140.67,-59.38 132.56,-58.28"/>
<polygon fill="#63b8ff" stroke="#63b8ff" points="155.98,-65 166.36,-62.88 156.92,-58.06 155.98,-65"/>
</a>
</g>
</g>
<!-- Node5 -->
<g id="Node000005" class="node">
<title>Node5</title>
<g id="a_Node000005"><a xlink:href="../../d4/dc6/classfl_1_1_str_stream.html#ae66dbf497a32b7a1baaf2306aa07fa09" target="_top" xlink:title=" ">
<polygon fill="white" stroke="#666666" points="132.25,-20.75 0,-20.75 0,0 132.25,0 132.25,-20.75"/>
<text text-anchor="middle" x="66.12" y="-7.25" font-family="Helvetica,sans-Serif" font-size="10.00">fl::StrStream::operator=</text>
</a>
</g>
</g>
<!-- Node1&#45;&gt;Node5 -->
<g id="edge4_Node000001_Node000005" class="edge">
<title>Node1&#45;&gt;Node5</title>
<g id="a_edge4_Node000001_Node000005"><a xlink:title=" ">
<path fill="none" stroke="#63b8ff" d="M178.12,-52.3C164.49,-45.03 147.8,-36.67 132.25,-30.38 124.03,-27.05 115.03,-23.95 106.43,-21.24"/>
<polygon fill="#63b8ff" stroke="#63b8ff" points="176.09,-55.18 186.55,-56.87 179.43,-49.03 176.09,-55.18"/>
</a>
</g>
</g>
</g>
</svg>
