<?xml version="1.0" encoding="UTF-8" standalone="no"?>
<!DOCTYPE svg PUBLIC "-//W3C//DTD SVG 1.1//EN"
 "http://www.w3.org/Graphics/SVG/1.1/DTD/svg11.dtd">
<!-- Generated by graphviz version 12.2.1 (20241206.2353)
 -->
<!-- Title: fl::StrN::size Pages: 1 -->
<svg width="533pt" height="302pt"
 viewBox="0.00 0.00 532.50 301.75" xmlns="http://www.w3.org/2000/svg" xmlns:xlink="http://www.w3.org/1999/xlink">
<g id="graph0" class="graph" transform="scale(1 1) rotate(0) translate(4 297.75)">
<title>fl::StrN::size</title>
<!-- Node1 -->
<g id="Node000001" class="node">
<title>Node1</title>
<g id="a_Node000001"><a xlink:title=" ">
<polygon fill="#999999" stroke="#666666" points="524.5,-156.75 450,-156.75 450,-136 524.5,-136 524.5,-156.75"/>
<text text-anchor="middle" x="487.25" y="-143.25" font-family="Helvetica,sans-Serif" font-size="10.00">fl::StrN::size</text>
</a>
</g>
</g>
<!-- Node2 -->
<g id="Node000002" class="node">
<title>Node2</title>
<g id="a_Node000002"><a xlink:href="../../d2/d24/classfl_1_1_str.html#ab8f0196e70f41a22690bf7cea76cc8fa" target="_top" xlink:title=" ">
<polygon fill="white" stroke="#666666" points="390.75,-293.75 307.25,-293.75 307.25,-273 390.75,-273 390.75,-293.75"/>
<text text-anchor="middle" x="349" y="-280.25" font-family="Helvetica,sans-Serif" font-size="10.00">fl::Str::append</text>
</a>
</g>
</g>
<!-- Node1&#45;&gt;Node2 -->
<g id="edge1_Node000001_Node000002" class="edge">
<title>Node1&#45;&gt;Node2</title>
<g id="a_edge1_Node000001_Node000002"><a xlink:title=" ">
<path fill="none" stroke="#63b8ff" d="M478.44,-167.9C467.82,-194.18 446.38,-238.23 414,-263.38 407.29,-268.59 399.2,-272.45 391.07,-275.32"/>
<polygon fill="#63b8ff" stroke="#63b8ff" points="481.69,-169.21 482.01,-158.62 475.15,-166.7 481.69,-169.21"/>
</a>
</g>
</g>
<!-- Node3 -->
<g id="Node000003" class="node">
<title>Node3</title>
<g id="a_Node000003"><a xlink:href="../../dc/d96/classfl_1_1_str_n.html#a143172b1ced4107efd80e9484d2cefdd" target="_top" xlink:title=" ">
<polygon fill="white" stroke="#666666" points="388.12,-254.75 309.88,-254.75 309.88,-234 388.12,-234 388.12,-254.75"/>
<text text-anchor="middle" x="349" y="-241.25" font-family="Helvetica,sans-Serif" font-size="10.00">fl::StrN::copy</text>
</a>
</g>
</g>
<!-- Node1&#45;&gt;Node3 -->
<g id="edge2_Node000001_Node000003" class="edge">
<title>Node1&#45;&gt;Node3</title>
<g id="a_edge2_Node000001_Node000003"><a xlink:title=" ">
<path fill="none" stroke="#63b8ff" d="M472.75,-166C459.64,-183.64 438.23,-209.07 414,-224.38 406.22,-229.29 397.15,-233.07 388.33,-235.96"/>
<polygon fill="#63b8ff" stroke="#63b8ff" points="475.26,-168.5 478.25,-158.34 469.57,-164.42 475.26,-168.5"/>
</a>
</g>
</g>
<!-- Node4 -->
<g id="Node000004" class="node">
<title>Node4</title>
<g id="a_Node000004"><a xlink:href="../../dc/d96/classfl_1_1_str_n.html#a78c7d7d68ae0617361671b2f1811aa16" target="_top" xlink:title=" ">
<polygon fill="white" stroke="#666666" points="391.88,-215.75 306.12,-215.75 306.12,-195 391.88,-195 391.88,-215.75"/>
<text text-anchor="middle" x="349" y="-202.25" font-family="Helvetica,sans-Serif" font-size="10.00">fl::StrN::length</text>
</a>
</g>
</g>
<!-- Node1&#45;&gt;Node4 -->
<g id="edge3_Node000001_Node000004" class="edge">
<title>Node1&#45;&gt;Node4</title>
<g id="a_edge3_Node000001_Node000004"><a xlink:title=" ">
<path fill="none" stroke="#63b8ff" d="M458.73,-162.85C445.5,-170.34 429.24,-178.95 414,-185.38 405.95,-188.77 397.13,-191.89 388.67,-194.6"/>
<polygon fill="#63b8ff" stroke="#63b8ff" points="460.39,-165.93 467.3,-157.9 456.89,-159.87 460.39,-165.93"/>
</a>
</g>
</g>
<!-- Node5 -->
<g id="Node000005" class="node">
<title>Node5</title>
<g id="a_Node000005"><a xlink:href="../../df/d37/classfl_1_1_file_system.html#a82a9d7df7ecee5b816624186ac493bb6" target="_top" xlink:title=" ">
<polygon fill="white" stroke="#666666" points="414,-176.75 284,-176.75 284,-156 414,-156 414,-176.75"/>
<text text-anchor="middle" x="349" y="-163.25" font-family="Helvetica,sans-Serif" font-size="10.00">fl::FileSystem::readText</text>
</a>
</g>
</g>
<!-- Node1&#45;&gt;Node5 -->
<g id="edge4_Node000001_Node000005" class="edge">
<title>Node1&#45;&gt;Node5</title>
<g id="a_edge4_Node000001_Node000005"><a xlink:title=" ">
<path fill="none" stroke="#63b8ff" d="M438.36,-153.4C430.64,-154.54 422.53,-155.73 414.49,-156.91"/>
<polygon fill="#63b8ff" stroke="#63b8ff" points="438.85,-156.87 448.24,-151.95 437.84,-149.94 438.85,-156.87"/>
</a>
</g>
</g>
<!-- Node10 -->
<g id="Node000010" class="node">
<title>Node10</title>
<g id="a_Node000010"><a xlink:href="../../dc/d96/classfl_1_1_str_n.html#ac15fe63535c140330dc642f14a37c75e" target="_top" xlink:title=" ">
<polygon fill="white" stroke="#666666" points="388.88,-137.75 309.12,-137.75 309.12,-117 388.88,-117 388.88,-137.75"/>
<text text-anchor="middle" x="349" y="-124.25" font-family="Helvetica,sans-Serif" font-size="10.00">fl::StrN::write</text>
</a>
</g>
</g>
<!-- Node1&#45;&gt;Node10 -->
<g id="edge9_Node000001_Node000010" class="edge">
<title>Node1&#45;&gt;Node10</title>
<g id="a_edge9_Node000001_Node000010"><a xlink:title=" ">
<path fill="none" stroke="#63b8ff" d="M438.8,-139.76C422.53,-137.49 404.52,-134.98 389,-132.81"/>
<polygon fill="#63b8ff" stroke="#63b8ff" points="437.85,-143.16 448.24,-141.07 438.82,-136.23 437.85,-143.16"/>
</a>
</g>
</g>
<!-- Node11 -->
<g id="Node000011" class="node">
<title>Node11</title>
<g id="a_Node000011"><a xlink:href="../../dc/d96/classfl_1_1_str_n.html#a452e5a4069afb93ada694dfc2e929ef7" target="_top" xlink:title=" ">
<polygon fill="white" stroke="#666666" points="388.88,-98.75 309.12,-98.75 309.12,-78 388.88,-78 388.88,-98.75"/>
<text text-anchor="middle" x="349" y="-85.25" font-family="Helvetica,sans-Serif" font-size="10.00">fl::StrN::write</text>
</a>
</g>
</g>
<!-- Node1&#45;&gt;Node11 -->
<g id="edge10_Node000001_Node000011" class="edge">
<title>Node1&#45;&gt;Node11</title>
<g id="a_edge10_Node000001_Node000011"><a xlink:title=" ">
<path fill="none" stroke="#63b8ff" d="M458.14,-130.07C445,-122.84 428.98,-114.59 414,-108.38 405.94,-105.03 397.1,-101.92 388.65,-99.21"/>
<polygon fill="#63b8ff" stroke="#63b8ff" points="456.23,-133.01 466.66,-134.84 459.65,-126.9 456.23,-133.01"/>
</a>
</g>
</g>
<!-- Node12 -->
<g id="Node000012" class="node">
<title>Node12</title>
<g id="a_Node000012"><a xlink:href="../../dc/d96/classfl_1_1_str_n.html#a32e001ede143c2c32b59f00f95cf5eb7" target="_top" xlink:title=" ">
<polygon fill="white" stroke="#666666" points="388.88,-59.75 309.12,-59.75 309.12,-39 388.88,-39 388.88,-59.75"/>
<text text-anchor="middle" x="349" y="-46.25" font-family="Helvetica,sans-Serif" font-size="10.00">fl::StrN::write</text>
</a>
</g>
</g>
<!-- Node1&#45;&gt;Node12 -->
<g id="edge11_Node000001_Node000012" class="edge">
<title>Node1&#45;&gt;Node12</title>
<g id="a_edge11_Node000001_Node000012"><a xlink:title=" ">
<path fill="none" stroke="#63b8ff" d="M472.11,-126.24C458.92,-108.86 437.76,-84.27 414,-69.38 406.5,-64.68 397.82,-61 389.31,-58.16"/>
<polygon fill="#63b8ff" stroke="#63b8ff" points="469.28,-128.3 478.01,-134.29 474.92,-124.16 469.28,-128.3"/>
</a>
</g>
</g>
<!-- Node13 -->
<g id="Node000013" class="node">
<title>Node13</title>
<g id="a_Node000013"><a xlink:href="../../dc/d96/classfl_1_1_str_n.html#ac5a54b78b9111d43f66bab42ba38a017" target="_top" xlink:title=" ">
<polygon fill="white" stroke="#666666" points="388.88,-20.75 309.12,-20.75 309.12,0 388.88,0 388.88,-20.75"/>
<text text-anchor="middle" x="349" y="-7.25" font-family="Helvetica,sans-Serif" font-size="10.00">fl::StrN::write</text>
</a>
</g>
</g>
<!-- Node1&#45;&gt;Node13 -->
<g id="edge12_Node000001_Node000013" class="edge">
<title>Node1&#45;&gt;Node13</title>
<g id="a_edge12_Node000001_Node000013"><a xlink:title=" ">
<path fill="none" stroke="#63b8ff" d="M478.39,-125.03C467.72,-98.97 446.22,-55.3 414,-30.38 406.73,-24.75 397.85,-20.69 389.04,-17.77"/>
<polygon fill="#63b8ff" stroke="#63b8ff" points="475.08,-126.18 481.98,-134.23 481.6,-123.64 475.08,-126.18"/>
</a>
</g>
</g>
<!-- Node6 -->
<g id="Node000006" class="node">
<title>Node6</title>
<g id="a_Node000006"><a xlink:href="../../df/d37/classfl_1_1_file_system.html#a88cf3b9e800613fb6086a90037b43297" target="_top" xlink:title=" ">
<polygon fill="white" stroke="#666666" points="228.5,-215.75 98.5,-215.75 98.5,-195 228.5,-195 228.5,-215.75"/>
<text text-anchor="middle" x="163.5" y="-202.25" font-family="Helvetica,sans-Serif" font-size="10.00">fl::FileSystem::readJson</text>
</a>
</g>
</g>
<!-- Node5&#45;&gt;Node6 -->
<g id="edge5_Node000005_Node000006" class="edge">
<title>Node5&#45;&gt;Node6</title>
<g id="a_edge5_Node000005_Node000006"><a xlink:title=" ">
<path fill="none" stroke="#63b8ff" d="M285.91,-179.57C263.06,-184.43 237.45,-189.87 215.66,-194.5"/>
<polygon fill="#63b8ff" stroke="#63b8ff" points="286.35,-183.06 295.4,-177.55 284.9,-176.21 286.35,-183.06"/>
</a>
</g>
</g>
<!-- Node7 -->
<g id="Node000007" class="node">
<title>Node7</title>
<g id="a_Node000007"><a xlink:href="../../df/d37/classfl_1_1_file_system.html#a456623ea357257e417994ecb4daf7408" target="_top" xlink:title=" ">
<polygon fill="white" stroke="#666666" points="245.38,-176.75 81.62,-176.75 81.62,-156 245.38,-156 245.38,-176.75"/>
<text text-anchor="middle" x="163.5" y="-163.25" font-family="Helvetica,sans-Serif" font-size="10.00">fl::FileSystem::readScreenMap</text>
</a>
</g>
</g>
<!-- Node5&#45;&gt;Node7 -->
<g id="edge6_Node000005_Node000007" class="edge">
<title>Node5&#45;&gt;Node7</title>
<g id="a_edge6_Node000005_Node000007"><a xlink:title=" ">
<path fill="none" stroke="#63b8ff" d="M272.25,-166.38C263.55,-166.38 254.64,-166.38 245.86,-166.38"/>
<polygon fill="#63b8ff" stroke="#63b8ff" points="272.05,-169.88 282.05,-166.38 272.05,-162.88 272.05,-169.88"/>
</a>
</g>
</g>
<!-- Node9 -->
<g id="Node000009" class="node">
<title>Node9</title>
<g id="a_Node000009"><a xlink:href="../../df/d37/classfl_1_1_file_system.html#a65df0d1c647d87b65a58e66e630b071d" target="_top" xlink:title=" ">
<polygon fill="white" stroke="#666666" points="248,-137.75 79,-137.75 79,-117 248,-117 248,-137.75"/>
<text text-anchor="middle" x="163.5" y="-124.25" font-family="Helvetica,sans-Serif" font-size="10.00">fl::FileSystem::readScreenMaps</text>
</a>
</g>
</g>
<!-- Node5&#45;&gt;Node9 -->
<g id="edge8_Node000005_Node000009" class="edge">
<title>Node5&#45;&gt;Node9</title>
<g id="a_edge8_Node000005_Node000009"><a xlink:title=" ">
<path fill="none" stroke="#63b8ff" d="M285.91,-153.18C263.06,-148.32 237.45,-142.88 215.66,-138.25"/>
<polygon fill="#63b8ff" stroke="#63b8ff" points="284.9,-156.54 295.4,-155.2 286.35,-149.69 284.9,-156.54"/>
</a>
</g>
</g>
<!-- Node8 -->
<g id="Node000008" class="node">
<title>Node8</title>
<g id="a_Node000008"><a xlink:href="../../d7/d35/_fx_sd_card_8ino.html#a4fc01d736fe50cf5b977f755b675f11d" target="_top" xlink:title=" ">
<polygon fill="white" stroke="#666666" points="43,-176.75 0,-176.75 0,-156 43,-156 43,-176.75"/>
<text text-anchor="middle" x="21.5" y="-163.25" font-family="Helvetica,sans-Serif" font-size="10.00">setup</text>
</a>
</g>
</g>
<!-- Node7&#45;&gt;Node8 -->
<g id="edge7_Node000007_Node000008" class="edge">
<title>Node7&#45;&gt;Node8</title>
<g id="a_edge7_Node000007_Node000008"><a xlink:title=" ">
<path fill="none" stroke="#63b8ff" d="M70.05,-166.38C60.14,-166.38 50.91,-166.38 43.26,-166.38"/>
<polygon fill="#63b8ff" stroke="#63b8ff" points="69.95,-169.88 79.95,-166.38 69.95,-162.88 69.95,-169.88"/>
</a>
</g>
</g>
</g>
</svg>
