<?xml version="1.0" encoding="UTF-8" standalone="no"?>
<!DOCTYPE svg PUBLIC "-//W3C//DTD SVG 1.1//EN"
 "http://www.w3.org/Graphics/SVG/1.1/DTD/svg11.dtd">
<!-- Generated by graphviz version 12.2.1 (20241206.2353)
 -->
<!-- Title: fl::StrN::write Pages: 1 -->
<svg width="370pt" height="175pt"
 viewBox="0.00 0.00 370.25 175.12" xmlns="http://www.w3.org/2000/svg" xmlns:xlink="http://www.w3.org/1999/xlink">
<g id="graph0" class="graph" transform="scale(1 1) rotate(0) translate(4 171.12)">
<title>fl::StrN::write</title>
<!-- Node1 -->
<g id="Node000001" class="node">
<title>Node1</title>
<g id="a_Node000001"><a xlink:title=" ">
<polygon fill="#999999" stroke="#666666" points="79.75,-78.75 0,-78.75 0,-58 79.75,-58 79.75,-78.75"/>
<text text-anchor="middle" x="39.88" y="-65.25" font-family="Helvetica,sans-Serif" font-size="10.00">fl::StrN::write</text>
</a>
</g>
</g>
<!-- Node2 -->
<g id="Node000002" class="node">
<title>Node2</title>
<g id="a_Node000002"><a xlink:href="../../d4/d8d/classfl_1_1_string_formatter.html#acd7b5af842e428c45d43fd7b88c8487a" target="_top" xlink:title=" ">
<polygon fill="white" stroke="#666666" points="220.25,-149.12 115.75,-149.12 115.75,-115.62 220.25,-115.62 220.25,-149.12"/>
<text text-anchor="start" x="123.75" y="-135.62" font-family="Helvetica,sans-Serif" font-size="10.00">fl::StringFormatter</text>
<text text-anchor="middle" x="168" y="-122.88" font-family="Helvetica,sans-Serif" font-size="10.00">::append</text>
</a>
</g>
</g>
<!-- Node1&#45;&gt;Node2 -->
<g id="edge1_Node000001_Node000002" class="edge">
<title>Node1&#45;&gt;Node2</title>
<g id="a_edge1_Node000001_Node000002"><a xlink:title=" ">
<path fill="none" stroke="#63b8ff" d="M62.27,-79.23C78.86,-87.65 102.43,-99.61 123,-110.05"/>
<polygon fill="#63b8ff" stroke="#63b8ff" points="121.27,-113.1 131.77,-114.5 124.44,-106.85 121.27,-113.1"/>
</a>
</g>
</g>
<!-- Node4 -->
<g id="Node000004" class="node">
<title>Node4</title>
<g id="a_Node000004"><a xlink:href="../../dc/d96/classfl_1_1_str_n.html#a270fb921e74601bc45cc8513e8a075f7" target="_top" xlink:title=" ">
<polygon fill="white" stroke="#666666" points="349.12,-97.75 269.38,-97.75 269.38,-77 349.12,-77 349.12,-97.75"/>
<text text-anchor="middle" x="309.25" y="-84.25" font-family="Helvetica,sans-Serif" font-size="10.00">fl::StrN::write</text>
</a>
</g>
</g>
<!-- Node1&#45;&gt;Node4 -->
<g id="edge7_Node000001_Node000004" class="edge">
<title>Node1&#45;&gt;Node4</title>
<g id="a_edge7_Node000001_Node000004"><a xlink:title=" ">
<path fill="none" stroke="#63b8ff" d="M80.04,-71.16C127.1,-74.5 206.16,-80.12 257.77,-83.79"/>
<polygon fill="#63b8ff" stroke="#63b8ff" points="257.25,-87.26 267.47,-84.48 257.74,-80.28 257.25,-87.26"/>
</a>
</g>
</g>
<!-- Node5 -->
<g id="Node000005" class="node">
<title>Node5</title>
<g id="a_Node000005"><a xlink:href="../../dc/d96/classfl_1_1_str_n.html#a67296b774f8201293edbbabbd1b642cb" target="_top" xlink:title=" ">
<polygon fill="white" stroke="#666666" points="207.12,-59.75 128.88,-59.75 128.88,-39 207.12,-39 207.12,-59.75"/>
<text text-anchor="middle" x="168" y="-46.25" font-family="Helvetica,sans-Serif" font-size="10.00">fl::StrN::c_str</text>
</a>
</g>
</g>
<!-- Node1&#45;&gt;Node5 -->
<g id="edge5_Node000001_Node000005" class="edge">
<title>Node1&#45;&gt;Node5</title>
<g id="a_edge5_Node000001_Node000005"><a xlink:title=" ">
<path fill="none" stroke="#63b8ff" d="M80.09,-62.47C91.94,-60.68 105.1,-58.7 117.53,-56.83"/>
<polygon fill="#63b8ff" stroke="#63b8ff" points="117.81,-60.32 127.18,-55.37 116.77,-53.4 117.81,-60.32"/>
</a>
</g>
</g>
<!-- Node6 -->
<g id="Node000006" class="node">
<title>Node6</title>
<g id="a_Node000006"><a xlink:href="../../dc/d96/classfl_1_1_str_n.html#a83aba4b6220dd9ffce346c7e62133b48" target="_top" xlink:title=" ">
<polygon fill="white" stroke="#666666" points="205.25,-20.75 130.75,-20.75 130.75,0 205.25,0 205.25,-20.75"/>
<text text-anchor="middle" x="168" y="-7.25" font-family="Helvetica,sans-Serif" font-size="10.00">fl::StrN::size</text>
</a>
</g>
</g>
<!-- Node1&#45;&gt;Node6 -->
<g id="edge6_Node000001_Node000006" class="edge">
<title>Node1&#45;&gt;Node6</title>
<g id="a_edge6_Node000001_Node000006"><a xlink:title=" ">
<path fill="none" stroke="#63b8ff" d="M60.95,-57.51C75.89,-49.6 96.86,-38.83 115.75,-30.38 119.5,-28.7 123.44,-27.02 127.4,-25.38"/>
<polygon fill="#63b8ff" stroke="#63b8ff" points="128.42,-28.75 136.39,-21.77 125.81,-22.25 128.42,-28.75"/>
</a>
</g>
</g>
<!-- Node3 -->
<g id="Node000003" class="node">
<title>Node3</title>
<g id="a_Node000003"><a xlink:href="../../d7/d59/namespacefl_1_1string__functions.html#ab8b04fe24b6e6c654342bc2f77b6869d" target="_top" xlink:title=" ">
<polygon fill="white" stroke="#666666" points="362.25,-167.12 256.25,-167.12 256.25,-133.62 362.25,-133.62 362.25,-167.12"/>
<text text-anchor="start" x="264.25" y="-153.62" font-family="Helvetica,sans-Serif" font-size="10.00">fl::string_functions</text>
<text text-anchor="middle" x="309.25" y="-140.88" font-family="Helvetica,sans-Serif" font-size="10.00">::itoa</text>
</a>
</g>
</g>
<!-- Node2&#45;&gt;Node3 -->
<g id="edge2_Node000002_Node000003" class="edge">
<title>Node2&#45;&gt;Node3</title>
<g id="a_edge2_Node000002_Node000003"><a xlink:title=" ">
<path fill="none" stroke="#63b8ff" d="M220.46,-139.03C228.35,-140.05 236.59,-141.11 244.71,-142.16"/>
<polygon fill="#63b8ff" stroke="#63b8ff" points="244.21,-145.63 254.57,-143.44 245.11,-138.68 244.21,-145.63"/>
</a>
</g>
</g>
<!-- Node2&#45;&gt;Node4 -->
<g id="edge3_Node000002_Node000004" class="edge">
<title>Node2&#45;&gt;Node4</title>
<g id="a_edge3_Node000002_Node000004"><a xlink:title=" ">
<path fill="none" stroke="#63b8ff" d="M220.46,-115.75C234.76,-111.12 250.17,-106.15 264.02,-101.67"/>
<polygon fill="#63b8ff" stroke="#63b8ff" points="264.86,-105.07 273.3,-98.67 262.71,-98.41 264.86,-105.07"/>
</a>
</g>
</g>
<!-- Node4&#45;&gt;Node4 -->
<g id="edge4_Node000004_Node000004" class="edge">
<title>Node4&#45;&gt;Node4</title>
<g id="a_edge4_Node000004_Node000004"><a xlink:title=" ">
<path fill="none" stroke="#63b8ff" d="M286.49,-98.15C277.39,-106.81 284.97,-115.75 309.25,-115.75 322.53,-115.75 330.81,-113.08 334.1,-109.24"/>
<polygon fill="#63b8ff" stroke="#63b8ff" points="337.59,-108.81 332.29,-99.63 330.71,-110.11 337.59,-108.81"/>
</a>
</g>
</g>
</g>
</svg>
