<?xml version="1.0" encoding="UTF-8" standalone="no"?>
<!DOCTYPE svg PUBLIC "-//W3C//DTD SVG 1.1//EN"
 "http://www.w3.org/Graphics/SVG/1.1/DTD/svg11.dtd">
<!-- Generated by graphviz version 12.2.1 (20241206.2353)
 -->
<!-- Title: fl::StrN::reserve Pages: 1 -->
<svg width="550pt" height="107pt"
 viewBox="0.00 0.00 549.75 106.75" xmlns="http://www.w3.org/2000/svg" xmlns:xlink="http://www.w3.org/1999/xlink">
<g id="graph0" class="graph" transform="scale(1 1) rotate(0) translate(4 102.75)">
<title>fl::StrN::reserve</title>
<!-- Node1 -->
<g id="Node000001" class="node">
<title>Node1</title>
<g id="a_Node000001"><a xlink:title=" ">
<polygon fill="#999999" stroke="#666666" points="541.75,-59.75 450,-59.75 450,-39 541.75,-39 541.75,-59.75"/>
<text text-anchor="middle" x="495.88" y="-46.25" font-family="Helvetica,sans-Serif" font-size="10.00">fl::StrN::reserve</text>
</a>
</g>
</g>
<!-- Node2 -->
<g id="Node000002" class="node">
<title>Node2</title>
<g id="a_Node000002"><a xlink:href="../../df/d37/classfl_1_1_file_system.html#a82a9d7df7ecee5b816624186ac493bb6" target="_top" xlink:title=" ">
<polygon fill="white" stroke="#666666" points="414,-59.75 284,-59.75 284,-39 414,-39 414,-59.75"/>
<text text-anchor="middle" x="349" y="-46.25" font-family="Helvetica,sans-Serif" font-size="10.00">fl::FileSystem::readText</text>
</a>
</g>
</g>
<!-- Node1&#45;&gt;Node2 -->
<g id="edge1_Node000001_Node000002" class="edge">
<title>Node1&#45;&gt;Node2</title>
<g id="a_edge1_Node000001_Node000002"><a xlink:title=" ">
<path fill="none" stroke="#63b8ff" d="M438.51,-49.38C430.62,-49.38 422.46,-49.38 414.43,-49.38"/>
<polygon fill="#63b8ff" stroke="#63b8ff" points="438.32,-52.88 448.32,-49.38 438.32,-45.88 438.32,-52.88"/>
</a>
</g>
</g>
<!-- Node3 -->
<g id="Node000003" class="node">
<title>Node3</title>
<g id="a_Node000003"><a xlink:href="../../df/d37/classfl_1_1_file_system.html#a88cf3b9e800613fb6086a90037b43297" target="_top" xlink:title=" ">
<polygon fill="white" stroke="#666666" points="228.5,-98.75 98.5,-98.75 98.5,-78 228.5,-78 228.5,-98.75"/>
<text text-anchor="middle" x="163.5" y="-85.25" font-family="Helvetica,sans-Serif" font-size="10.00">fl::FileSystem::readJson</text>
</a>
</g>
</g>
<!-- Node2&#45;&gt;Node3 -->
<g id="edge2_Node000002_Node000003" class="edge">
<title>Node2&#45;&gt;Node3</title>
<g id="a_edge2_Node000002_Node000003"><a xlink:title=" ">
<path fill="none" stroke="#63b8ff" d="M285.91,-62.57C263.06,-67.43 237.45,-72.87 215.66,-77.5"/>
<polygon fill="#63b8ff" stroke="#63b8ff" points="286.35,-66.06 295.4,-60.55 284.9,-59.21 286.35,-66.06"/>
</a>
</g>
</g>
<!-- Node4 -->
<g id="Node000004" class="node">
<title>Node4</title>
<g id="a_Node000004"><a xlink:href="../../df/d37/classfl_1_1_file_system.html#a456623ea357257e417994ecb4daf7408" target="_top" xlink:title=" ">
<polygon fill="white" stroke="#666666" points="245.38,-59.75 81.62,-59.75 81.62,-39 245.38,-39 245.38,-59.75"/>
<text text-anchor="middle" x="163.5" y="-46.25" font-family="Helvetica,sans-Serif" font-size="10.00">fl::FileSystem::readScreenMap</text>
</a>
</g>
</g>
<!-- Node2&#45;&gt;Node4 -->
<g id="edge3_Node000002_Node000004" class="edge">
<title>Node2&#45;&gt;Node4</title>
<g id="a_edge3_Node000002_Node000004"><a xlink:title=" ">
<path fill="none" stroke="#63b8ff" d="M272.25,-49.38C263.55,-49.38 254.64,-49.38 245.86,-49.38"/>
<polygon fill="#63b8ff" stroke="#63b8ff" points="272.05,-52.88 282.05,-49.38 272.05,-45.88 272.05,-52.88"/>
</a>
</g>
</g>
<!-- Node6 -->
<g id="Node000006" class="node">
<title>Node6</title>
<g id="a_Node000006"><a xlink:href="../../df/d37/classfl_1_1_file_system.html#a65df0d1c647d87b65a58e66e630b071d" target="_top" xlink:title=" ">
<polygon fill="white" stroke="#666666" points="248,-20.75 79,-20.75 79,0 248,0 248,-20.75"/>
<text text-anchor="middle" x="163.5" y="-7.25" font-family="Helvetica,sans-Serif" font-size="10.00">fl::FileSystem::readScreenMaps</text>
</a>
</g>
</g>
<!-- Node2&#45;&gt;Node6 -->
<g id="edge5_Node000002_Node000006" class="edge">
<title>Node2&#45;&gt;Node6</title>
<g id="a_edge5_Node000002_Node000006"><a xlink:title=" ">
<path fill="none" stroke="#63b8ff" d="M285.91,-36.18C263.06,-31.32 237.45,-25.88 215.66,-21.25"/>
<polygon fill="#63b8ff" stroke="#63b8ff" points="284.9,-39.54 295.4,-38.2 286.35,-32.69 284.9,-39.54"/>
</a>
</g>
</g>
<!-- Node5 -->
<g id="Node000005" class="node">
<title>Node5</title>
<g id="a_Node000005"><a xlink:href="../../d7/d35/_fx_sd_card_8ino.html#a4fc01d736fe50cf5b977f755b675f11d" target="_top" xlink:title=" ">
<polygon fill="white" stroke="#666666" points="43,-59.75 0,-59.75 0,-39 43,-39 43,-59.75"/>
<text text-anchor="middle" x="21.5" y="-46.25" font-family="Helvetica,sans-Serif" font-size="10.00">setup</text>
</a>
</g>
</g>
<!-- Node4&#45;&gt;Node5 -->
<g id="edge4_Node000004_Node000005" class="edge">
<title>Node4&#45;&gt;Node5</title>
<g id="a_edge4_Node000004_Node000005"><a xlink:title=" ">
<path fill="none" stroke="#63b8ff" d="M70.05,-49.38C60.14,-49.38 50.91,-49.38 43.26,-49.38"/>
<polygon fill="#63b8ff" stroke="#63b8ff" points="69.95,-52.88 79.95,-49.38 69.95,-45.88 69.95,-52.88"/>
</a>
</g>
</g>
</g>
</svg>
