<?xml version="1.0" encoding="UTF-8" standalone="no"?>
<!DOCTYPE svg PUBLIC "-//W3C//DTD SVG 1.1//EN"
 "http://www.w3.org/Graphics/SVG/1.1/DTD/svg11.dtd">
<!-- Generated by graphviz version 12.2.1 (20241206.2353)
 -->
<!-- Title: fl::StrN::substring Pages: 1 -->
<svg width="222pt" height="107pt"
 viewBox="0.00 0.00 222.25 106.75" xmlns="http://www.w3.org/2000/svg" xmlns:xlink="http://www.w3.org/1999/xlink">
<g id="graph0" class="graph" transform="scale(1 1) rotate(0) translate(4 102.75)">
<title>fl::StrN::substring</title>
<!-- Node1 -->
<g id="Node000001" class="node">
<title>Node1</title>
<g id="a_Node000001"><a xlink:title=" ">
<polygon fill="#999999" stroke="#666666" points="100,-59.75 0,-59.75 0,-39 100,-39 100,-59.75"/>
<text text-anchor="middle" x="50" y="-46.25" font-family="Helvetica,sans-Serif" font-size="10.00">fl::StrN::substring</text>
</a>
</g>
</g>
<!-- Node2 -->
<g id="Node000002" class="node">
<title>Node2</title>
<g id="a_Node000002"><a xlink:href="../../dc/d96/classfl_1_1_str_n.html#ae1303fb18c4230406d75f3649da8711d" target="_top" xlink:title=" ">
<polygon fill="white" stroke="#666666" points="213.12,-98.75 137.12,-98.75 137.12,-78 213.12,-78 213.12,-98.75"/>
<text text-anchor="middle" x="175.12" y="-85.25" font-family="Helvetica,sans-Serif" font-size="10.00">fl::StrN::StrN</text>
</a>
</g>
</g>
<!-- Node1&#45;&gt;Node2 -->
<g id="edge1_Node000001_Node000002" class="edge">
<title>Node1&#45;&gt;Node2</title>
<g id="a_edge1_Node000001_Node000002"><a xlink:title=" ">
<path fill="none" stroke="#63b8ff" d="M85.3,-60.24C98.91,-64.55 114.74,-69.57 129.24,-74.16"/>
<polygon fill="#63b8ff" stroke="#63b8ff" points="127.98,-77.43 138.57,-77.11 130.09,-70.76 127.98,-77.43"/>
</a>
</g>
</g>
<!-- Node3 -->
<g id="Node000003" class="node">
<title>Node3</title>
<g id="a_Node000003"><a xlink:href="../../dc/d96/classfl_1_1_str_n.html#a67296b774f8201293edbbabbd1b642cb" target="_top" xlink:title=" ">
<polygon fill="white" stroke="#666666" points="214.25,-59.75 136,-59.75 136,-39 214.25,-39 214.25,-59.75"/>
<text text-anchor="middle" x="175.12" y="-46.25" font-family="Helvetica,sans-Serif" font-size="10.00">fl::StrN::c_str</text>
</a>
</g>
</g>
<!-- Node1&#45;&gt;Node3 -->
<g id="edge2_Node000001_Node000003" class="edge">
<title>Node1&#45;&gt;Node3</title>
<g id="a_edge2_Node000001_Node000003"><a xlink:title=" ">
<path fill="none" stroke="#63b8ff" d="M100.37,-49.38C108.28,-49.38 116.47,-49.38 124.39,-49.38"/>
<polygon fill="#63b8ff" stroke="#63b8ff" points="124.22,-52.88 134.22,-49.38 124.22,-45.88 124.22,-52.88"/>
</a>
</g>
</g>
<!-- Node4 -->
<g id="Node000004" class="node">
<title>Node4</title>
<g id="a_Node000004"><a xlink:href="../../dc/d96/classfl_1_1_str_n.html#ab410c80422fa2cfe87605dd9b32002c1" target="_top" xlink:title=" ">
<polygon fill="white" stroke="#666666" points="214.25,-20.75 136,-20.75 136,0 214.25,0 214.25,-20.75"/>
<text text-anchor="middle" x="175.12" y="-7.25" font-family="Helvetica,sans-Serif" font-size="10.00">fl::StrN::copy</text>
</a>
</g>
</g>
<!-- Node1&#45;&gt;Node4 -->
<g id="edge3_Node000001_Node000004" class="edge">
<title>Node1&#45;&gt;Node4</title>
<g id="a_edge3_Node000001_Node000004"><a xlink:title=" ">
<path fill="none" stroke="#63b8ff" d="M85.3,-38.51C98.91,-34.2 114.74,-29.18 129.24,-24.59"/>
<polygon fill="#63b8ff" stroke="#63b8ff" points="130.09,-27.99 138.57,-21.64 127.98,-21.32 130.09,-27.99"/>
</a>
</g>
</g>
</g>
</svg>
