<?xml version="1.0" encoding="UTF-8" standalone="no"?>
<!DOCTYPE svg PUBLIC "-//W3C//DTD SVG 1.1//EN"
 "http://www.w3.org/Graphics/SVG/1.1/DTD/svg11.dtd">
<!-- Generated by graphviz version 12.2.1 (20241206.2353)
 -->
<!-- Title: nscale8 Pages: 1 -->
<svg width="469pt" height="68pt"
 viewBox="0.00 0.00 468.75 67.75" xmlns="http://www.w3.org/2000/svg" xmlns:xlink="http://www.w3.org/1999/xlink">
<g id="graph0" class="graph" transform="scale(1 1) rotate(0) translate(4 63.75)">
<title>nscale8</title>
<!-- Node1 -->
<g id="Node000001" class="node">
<title>Node1</title>
<g id="a_Node000001"><a xlink:title="Scale the brightness of an array of pixels all at once.">
<polygon fill="#999999" stroke="#666666" points="53.5,-39.75 0,-39.75 0,-19 53.5,-19 53.5,-39.75"/>
<text text-anchor="middle" x="26.75" y="-26.25" font-family="Helvetica,sans-Serif" font-size="10.00">nscale8</text>
</a>
</g>
</g>
<!-- Node2 -->
<g id="Node000002" class="node">
<title>Node2</title>
<g id="a_Node000002"><a xlink:href="../../db/d87/group___pixel_types.html#a5a3c3370a7de840ac31c07f6dc9bdb63" target="_top" xlink:title="Scale down a RGB to N/256ths of its current brightness, using &quot;plain math&quot; dimming rules.">
<polygon fill="white" stroke="#666666" points="176.75,-39.75 89.5,-39.75 89.5,-19 176.75,-19 176.75,-39.75"/>
<text text-anchor="middle" x="133.12" y="-26.25" font-family="Helvetica,sans-Serif" font-size="10.00">CRGB::nscale8</text>
</a>
</g>
</g>
<!-- Node1&#45;&gt;Node2 -->
<g id="edge1_Node000001_Node000002" class="edge">
<title>Node1&#45;&gt;Node2</title>
<g id="a_edge1_Node000001_Node000002"><a xlink:title=" ">
<path fill="none" stroke="#63b8ff" d="M53.82,-29.38C61.21,-29.38 69.54,-29.38 77.94,-29.38"/>
<polygon fill="#63b8ff" stroke="#63b8ff" points="77.84,-32.88 87.84,-29.38 77.84,-25.88 77.84,-32.88"/>
</a>
</g>
</g>
<!-- Node3 -->
<g id="Node000003" class="node">
<title>Node3</title>
<g id="a_Node000003"><a xlink:href="../../d0/da8/group___scaling.html#ga39bf87e5526120889086cab19ac749b1" target="_top" xlink:title="Scale three one&#45;byte values by a fourth one, which is treated as the numerator of a fraction whose de...">
<polygon fill="white" stroke="#666666" points="278.25,-39.75 212.75,-39.75 212.75,-19 278.25,-19 278.25,-39.75"/>
<text text-anchor="middle" x="245.5" y="-26.25" font-family="Helvetica,sans-Serif" font-size="10.00">nscale8x3</text>
</a>
</g>
</g>
<!-- Node2&#45;&gt;Node3 -->
<g id="edge2_Node000002_Node000003" class="edge">
<title>Node2&#45;&gt;Node3</title>
<g id="a_edge2_Node000002_Node000003"><a xlink:title=" ">
<path fill="none" stroke="#63b8ff" d="M177.11,-29.38C185,-29.38 193.24,-29.38 201.14,-29.38"/>
<polygon fill="#63b8ff" stroke="#63b8ff" points="200.88,-32.88 210.88,-29.38 200.88,-25.88 200.88,-32.88"/>
</a>
</g>
</g>
<!-- Node4 -->
<g id="Node000004" class="node">
<title>Node4</title>
<g id="a_Node000004"><a xlink:href="../../d0/da5/group___scaling_dirty.html#ga3fade00fb4cf5b937b973128198a7a79" target="_top" xlink:title="Clean up the r1 register after a series of *LEAVING_R1_DIRTY calls.">
<polygon fill="white" stroke="#666666" points="423.62,-59.75 351.38,-59.75 351.38,-39 423.62,-39 423.62,-59.75"/>
<text text-anchor="middle" x="387.5" y="-46.25" font-family="Helvetica,sans-Serif" font-size="10.00">cleanup_R1</text>
</a>
</g>
</g>
<!-- Node3&#45;&gt;Node4 -->
<g id="edge3_Node000003_Node000004" class="edge">
<title>Node3&#45;&gt;Node4</title>
<g id="a_edge3_Node000003_Node000004"><a xlink:title=" ">
<path fill="none" stroke="#63b8ff" d="M278.62,-33.96C296.79,-36.56 319.83,-39.85 339.95,-42.73"/>
<polygon fill="#63b8ff" stroke="#63b8ff" points="339.2,-46.15 349.59,-44.1 340.19,-39.22 339.2,-46.15"/>
</a>
</g>
</g>
<!-- Node5 -->
<g id="Node000005" class="node">
<title>Node5</title>
<g id="a_Node000005"><a xlink:href="../../d0/da5/group___scaling_dirty.html#ga7386235cada3aca429b189681d2ec56d" target="_top" xlink:title="This version of scale8() does not clean up the R1 register on AVR.">
<polygon fill="white" stroke="#666666" points="460.75,-20.75 314.25,-20.75 314.25,0 460.75,0 460.75,-20.75"/>
<text text-anchor="middle" x="387.5" y="-7.25" font-family="Helvetica,sans-Serif" font-size="10.00">scale8_LEAVING_R1_DIRTY</text>
</a>
</g>
</g>
<!-- Node3&#45;&gt;Node5 -->
<g id="edge4_Node000003_Node000005" class="edge">
<title>Node3&#45;&gt;Node5</title>
<g id="a_edge4_Node000003_Node000005"><a xlink:title=" ">
<path fill="none" stroke="#63b8ff" d="M278.62,-25.02C285.97,-24.02 294.12,-22.91 302.56,-21.77"/>
<polygon fill="#63b8ff" stroke="#63b8ff" points="302.82,-25.26 312.26,-20.45 301.88,-18.33 302.82,-25.26"/>
</a>
</g>
</g>
</g>
</svg>
