<?xml version="1.0" encoding="UTF-8" standalone="no"?>
<!DOCTYPE svg PUBLIC "-//W3C//DTD SVG 1.1//EN"
 "http://www.w3.org/Graphics/SVG/1.1/DTD/svg11.dtd">
<!-- Generated by graphviz version 12.2.1 (20241206.2353)
 -->
<!-- Title: fadeToBlackBy Pages: 1 -->
<svg width="410pt" height="29pt"
 viewBox="0.00 0.00 410.25 28.75" xmlns="http://www.w3.org/2000/svg" xmlns:xlink="http://www.w3.org/1999/xlink">
<g id="graph0" class="graph" transform="scale(1 1) rotate(0) translate(4 24.75)">
<title>fadeToBlackBy</title>
<!-- Node1 -->
<g id="Node000001" class="node">
<title>Node1</title>
<g id="a_Node000001"><a xlink:title="Reduce the brightness of an array of pixels all at once.">
<polygon fill="#999999" stroke="#666666" points="88,-20.75 0,-20.75 0,0 88,0 88,-20.75"/>
<text text-anchor="middle" x="44" y="-7.25" font-family="Helvetica,sans-Serif" font-size="10.00">fadeToBlackBy</text>
</a>
</g>
</g>
<!-- Node2 -->
<g id="Node000002" class="node">
<title>Node2</title>
<g id="a_Node000002"><a xlink:href="../../d3/d1c/group___color_fades.html#gad0356fc313196732e7cd4e64f506f82b" target="_top" xlink:title="Scale the brightness of an array of pixels all at once.">
<polygon fill="white" stroke="#666666" points="177.5,-20.75 124,-20.75 124,0 177.5,0 177.5,-20.75"/>
<text text-anchor="middle" x="150.75" y="-7.25" font-family="Helvetica,sans-Serif" font-size="10.00">nscale8</text>
</a>
</g>
</g>
<!-- Node1&#45;&gt;Node2 -->
<g id="edge1_Node000001_Node000002" class="edge">
<title>Node1&#45;&gt;Node2</title>
<g id="a_edge1_Node000001_Node000002"><a xlink:title=" ">
<path fill="none" stroke="#63b8ff" d="M88.21,-10.38C96.22,-10.38 104.52,-10.38 112.34,-10.38"/>
<polygon fill="#63b8ff" stroke="#63b8ff" points="112.22,-13.88 122.22,-10.38 112.22,-6.88 112.22,-13.88"/>
</a>
</g>
</g>
<!-- Node3 -->
<g id="Node000003" class="node">
<title>Node3</title>
<g id="a_Node000003"><a xlink:href="../../db/d87/group___pixel_types.html#a5a3c3370a7de840ac31c07f6dc9bdb63" target="_top" xlink:title="Scale down a RGB to N/256ths of its current brightness, using &quot;plain math&quot; dimming rules.">
<polygon fill="white" stroke="#666666" points="300.75,-20.75 213.5,-20.75 213.5,0 300.75,0 300.75,-20.75"/>
<text text-anchor="middle" x="257.12" y="-7.25" font-family="Helvetica,sans-Serif" font-size="10.00">CRGB::nscale8</text>
</a>
</g>
</g>
<!-- Node2&#45;&gt;Node3 -->
<g id="edge2_Node000002_Node000003" class="edge">
<title>Node2&#45;&gt;Node3</title>
<g id="a_edge2_Node000002_Node000003"><a xlink:title=" ">
<path fill="none" stroke="#63b8ff" d="M177.82,-10.38C185.21,-10.38 193.54,-10.38 201.94,-10.38"/>
<polygon fill="#63b8ff" stroke="#63b8ff" points="201.84,-13.88 211.84,-10.38 201.84,-6.88 201.84,-13.88"/>
</a>
</g>
</g>
<!-- Node4 -->
<g id="Node000004" class="node">
<title>Node4</title>
<g id="a_Node000004"><a xlink:href="../../d0/da8/group___scaling.html#ga39bf87e5526120889086cab19ac749b1" target="_top" xlink:title="Scale three one&#45;byte values by a fourth one, which is treated as the numerator of a fraction whose de...">
<polygon fill="#fff0f0" stroke="red" points="402.25,-20.75 336.75,-20.75 336.75,0 402.25,0 402.25,-20.75"/>
<text text-anchor="middle" x="369.5" y="-7.25" font-family="Helvetica,sans-Serif" font-size="10.00">nscale8x3</text>
</a>
</g>
</g>
<!-- Node3&#45;&gt;Node4 -->
<g id="edge3_Node000003_Node000004" class="edge">
<title>Node3&#45;&gt;Node4</title>
<g id="a_edge3_Node000003_Node000004"><a xlink:title=" ">
<path fill="none" stroke="#63b8ff" d="M301.11,-10.38C309,-10.38 317.24,-10.38 325.14,-10.38"/>
<polygon fill="#63b8ff" stroke="#63b8ff" points="324.88,-13.88 334.88,-10.38 324.88,-6.88 324.88,-13.88"/>
</a>
</g>
</g>
</g>
</svg>
