<?xml version="1.0" encoding="UTF-8" standalone="no"?>
<!DOCTYPE svg PUBLIC "-//W3C//DTD SVG 1.1//EN"
 "http://www.w3.org/Graphics/SVG/1.1/DTD/svg11.dtd">
<!-- Generated by graphviz version 12.2.1 (20241206.2353)
 -->
<!-- Title: fl::LargeBlockAllocator::Free Pages: 1 -->
<svg width="311pt" height="80pt"
 viewBox="0.00 0.00 310.75 80.12" xmlns="http://www.w3.org/2000/svg" xmlns:xlink="http://www.w3.org/1999/xlink">
<g id="graph0" class="graph" transform="scale(1 1) rotate(0) translate(4 76.12)">
<title>fl::LargeBlockAllocator::Free</title>
<!-- Node1 -->
<g id="Node000001" class="node">
<title>Node1</title>
<g id="a_Node000001"><a xlink:title=" ">
<polygon fill="#999999" stroke="#666666" points="302.75,-55.5 177.25,-55.5 177.25,-22 302.75,-22 302.75,-55.5"/>
<text text-anchor="start" x="185.25" y="-42" font-family="Helvetica,sans-Serif" font-size="10.00">fl::LargeBlockAllocator</text>
<text text-anchor="middle" x="240" y="-29.25" font-family="Helvetica,sans-Serif" font-size="10.00">::Free</text>
</a>
</g>
</g>
<!-- Node2 -->
<g id="Node000002" class="node">
<title>Node2</title>
<g id="a_Node000002"><a xlink:href="../../d6/d18/classfl_1_1_l_u_t.html#ac845458cfe51b251e8931fb72b671e6a" target="_top" xlink:title=" ">
<polygon fill="white" stroke="#666666" points="110.12,-72.12 31.12,-72.12 31.12,-51.38 110.12,-51.38 110.12,-72.12"/>
<text text-anchor="middle" x="70.62" y="-58.62" font-family="Helvetica,sans-Serif" font-size="10.00">fl::LUT::~LUT</text>
</a>
</g>
</g>
<!-- Node1&#45;&gt;Node2 -->
<g id="edge1_Node000001_Node000002" class="edge">
<title>Node1&#45;&gt;Node2</title>
<g id="a_edge1_Node000001_Node000002"><a xlink:title=" ">
<path fill="none" stroke="#63b8ff" d="M166,-48.78C146.86,-51.41 126.97,-54.15 110.41,-56.42"/>
<polygon fill="#63b8ff" stroke="#63b8ff" points="166.22,-52.28 175.65,-47.46 165.27,-45.35 166.22,-52.28"/>
</a>
</g>
</g>
<!-- Node3 -->
<g id="Node000003" class="node">
<title>Node3</title>
<g id="a_Node000003"><a xlink:href="../../de/d10/classfl_1_1_rectangular_draw_buffer.html#a793464dde6e4e1a324ab46973615345c" target="_top" xlink:title=" ">
<polygon fill="white" stroke="#666666" points="141.25,-33.5 0,-33.5 0,0 141.25,0 141.25,-33.5"/>
<text text-anchor="start" x="8" y="-20" font-family="Helvetica,sans-Serif" font-size="10.00">fl::RectangularDrawBuffer</text>
<text text-anchor="middle" x="70.62" y="-7.25" font-family="Helvetica,sans-Serif" font-size="10.00">::onQueuingDone</text>
</a>
</g>
</g>
<!-- Node1&#45;&gt;Node3 -->
<g id="edge2_Node000001_Node000003" class="edge">
<title>Node1&#45;&gt;Node3</title>
<g id="a_edge2_Node000001_Node000003"><a xlink:title=" ">
<path fill="none" stroke="#63b8ff" d="M165.9,-29.14C157.86,-28.09 149.69,-27.01 141.69,-25.96"/>
<polygon fill="#63b8ff" stroke="#63b8ff" points="165.28,-32.59 175.65,-30.42 166.19,-25.65 165.28,-32.59"/>
</a>
</g>
</g>
</g>
</svg>
