<?xml version="1.0" encoding="UTF-8" standalone="no"?>
<!DOCTYPE svg PUBLIC "-//W3C//DTD SVG 1.1//EN"
 "http://www.w3.org/Graphics/SVG/1.1/DTD/svg11.dtd">
<!-- Generated by graphviz version 12.2.1 (20241206.2353)
 -->
<!-- Title: CFastLED::showColor Pages: 1 -->
<svg width="516pt" height="350pt"
 viewBox="0.00 0.00 515.75 350.12" xmlns="http://www.w3.org/2000/svg" xmlns:xlink="http://www.w3.org/1999/xlink">
<g id="graph0" class="graph" transform="scale(1 1) rotate(0) translate(4 346.12)">
<title>CFastLED::showColor</title>
<!-- Node1 -->
<g id="Node000001" class="node">
<title>Node1</title>
<g id="a_Node000001"><a xlink:title="Set all leds on all controllers to the given color/scale.">
<polygon fill="#999999" stroke="#666666" points="118,-188.12 0,-188.12 0,-167.38 118,-167.38 118,-188.12"/>
<text text-anchor="middle" x="59" y="-174.62" font-family="Helvetica,sans-Serif" font-size="10.00">CFastLED::showColor</text>
</a>
</g>
</g>
<!-- Node2 -->
<g id="Node000002" class="node">
<title>Node2</title>
<g id="a_Node000002"><a xlink:href="../../d6/d2c/class_c_l_e_d_controller.html#af9962ef739bdb3b590ee66f3780765d6" target="_top" xlink:title=" ">
<polygon fill="white" stroke="#666666" points="325.25,-341.12 154,-341.12 154,-320.38 325.25,-320.38 325.25,-341.12"/>
<text text-anchor="middle" x="239.62" y="-327.62" font-family="Helvetica,sans-Serif" font-size="10.00">CLEDController::beginShowLeds</text>
</a>
</g>
</g>
<!-- Node1&#45;&gt;Node2 -->
<g id="edge1_Node000001_Node000002" class="edge">
<title>Node1&#45;&gt;Node2</title>
<g id="a_edge1_Node000001_Node000002"><a xlink:title=" ">
<path fill="none" stroke="#63b8ff" d="M64.65,-188.28C76.1,-212.93 108.08,-274.74 154,-306.75 159.01,-310.24 164.52,-313.23 170.26,-315.78"/>
<polygon fill="#63b8ff" stroke="#63b8ff" points="168.76,-318.96 179.35,-319.37 171.33,-312.45 168.76,-318.96"/>
</a>
</g>
</g>
<!-- Node4 -->
<g id="Node000004" class="node">
<title>Node4</title>
<g id="a_Node000004"><a xlink:href="../../d6/d2c/class_c_l_e_d_controller.html#a63f75cf7e55cf8da46db5fd27110bb3e" target="_top" xlink:title="How many LEDs does this controller manage?">
<polygon fill="white" stroke="#666666" points="492,-303.12 377,-303.12 377,-282.38 492,-282.38 492,-303.12"/>
<text text-anchor="middle" x="434.5" y="-289.62" font-family="Helvetica,sans-Serif" font-size="10.00">CLEDController::size</text>
</a>
</g>
</g>
<!-- Node1&#45;&gt;Node4 -->
<g id="edge13_Node000001_Node000004" class="edge">
<title>Node1&#45;&gt;Node4</title>
<g id="a_edge13_Node000001_Node000004"><a xlink:title=" ">
<path fill="none" stroke="#63b8ff" d="M66.64,-188.58C80.11,-209.44 112.9,-254.81 154,-273.75 220.88,-304.57 306.41,-305.58 365.15,-301.26"/>
<polygon fill="#63b8ff" stroke="#63b8ff" points="365.33,-304.76 375.01,-300.46 364.76,-297.78 365.33,-304.76"/>
</a>
</g>
</g>
<!-- Node5 -->
<g id="Node000005" class="node">
<title>Node5</title>
<g id="a_Node000005"><a xlink:href="../../dd/dbb/class_c_fast_l_e_d.html#a61d27e179c9b68bde89d220aebc0de32" target="_top" xlink:title="For debugging, this will keep track of time between calls to countFPS().">
<polygon fill="white" stroke="#666666" points="295.62,-265.12 183.62,-265.12 183.62,-244.38 295.62,-244.38 295.62,-265.12"/>
<text text-anchor="middle" x="239.62" y="-251.62" font-family="Helvetica,sans-Serif" font-size="10.00">CFastLED::countFPS</text>
</a>
</g>
</g>
<!-- Node1&#45;&gt;Node5 -->
<g id="edge4_Node000001_Node000005" class="edge">
<title>Node1&#45;&gt;Node5</title>
<g id="a_edge4_Node000001_Node000005"><a xlink:title=" ">
<path fill="none" stroke="#63b8ff" d="M74.53,-188.56C92.37,-201.35 123.97,-222.46 154,-234.75 159.91,-237.17 166.17,-239.33 172.51,-241.26"/>
<polygon fill="#63b8ff" stroke="#63b8ff" points="171.18,-244.52 181.76,-243.88 173.09,-237.79 171.18,-244.52"/>
</a>
</g>
</g>
<!-- Node6 -->
<g id="Node000006" class="node">
<title>Node6</title>
<g id="a_Node000006"><a xlink:href="../../d6/d2c/class_c_l_e_d_controller.html#a49b221af013bf196c2068e2cbd1c299d" target="_top" xlink:title=" ">
<polygon fill="white" stroke="#666666" points="320.75,-226.12 158.5,-226.12 158.5,-205.38 320.75,-205.38 320.75,-226.12"/>
<text text-anchor="middle" x="239.62" y="-212.62" font-family="Helvetica,sans-Serif" font-size="10.00">CLEDController::endShowLeds</text>
</a>
</g>
</g>
<!-- Node1&#45;&gt;Node6 -->
<g id="edge5_Node000001_Node000006" class="edge">
<title>Node1&#45;&gt;Node6</title>
<g id="a_edge5_Node000001_Node000006"><a xlink:title=" ">
<path fill="none" stroke="#63b8ff" d="M110.71,-188.54C131.26,-192.91 155.19,-198 176.76,-202.59"/>
<polygon fill="#63b8ff" stroke="#63b8ff" points="175.8,-205.96 186.31,-204.62 177.26,-199.12 175.8,-205.96"/>
</a>
</g>
</g>
<!-- Node7 -->
<g id="Node000007" class="node">
<title>Node7</title>
<g id="a_Node000007"><a xlink:href="../../d6/d2c/class_c_l_e_d_controller.html#a2a231accbeb00e6a6080a7e55274a279" target="_top" xlink:title="Set the dithering mode for this controller to use.">
<polygon fill="white" stroke="#666666" points="504.75,-207.12 364.25,-207.12 364.25,-186.38 504.75,-186.38 504.75,-207.12"/>
<text text-anchor="middle" x="434.5" y="-193.62" font-family="Helvetica,sans-Serif" font-size="10.00">CLEDController::setDither</text>
</a>
</g>
</g>
<!-- Node1&#45;&gt;Node7 -->
<g id="edge10_Node000001_Node000007" class="edge">
<title>Node1&#45;&gt;Node7</title>
<g id="a_edge10_Node000001_Node000007"><a xlink:title=" ">
<path fill="none" stroke="#63b8ff" d="M118.36,-180.72C181.23,-183.92 281.73,-189.03 352.3,-192.62"/>
<polygon fill="#63b8ff" stroke="#63b8ff" points="352.12,-196.11 362.28,-193.13 352.47,-189.12 352.12,-196.11"/>
</a>
</g>
</g>
<!-- Node8 -->
<g id="Node000008" class="node">
<title>Node8</title>
<g id="a_Node000008"><a xlink:href="../../d6/d2c/class_c_l_e_d_controller.html#a6bd253f670640ea4d1bd0d71b8029f2a" target="_top" xlink:title=" ">
<polygon fill="white" stroke="#666666" points="314.75,-150.12 164.5,-150.12 164.5,-129.38 314.75,-129.38 314.75,-150.12"/>
<text text-anchor="middle" x="239.62" y="-136.62" font-family="Helvetica,sans-Serif" font-size="10.00">CLEDController::getEnabled</text>
</a>
</g>
</g>
<!-- Node1&#45;&gt;Node8 -->
<g id="edge7_Node000001_Node000008" class="edge">
<title>Node1&#45;&gt;Node8</title>
<g id="a_edge7_Node000001_Node000008"><a xlink:title=" ">
<path fill="none" stroke="#63b8ff" d="M110.71,-166.96C131.26,-162.59 155.19,-157.5 176.76,-152.91"/>
<polygon fill="#63b8ff" stroke="#63b8ff" points="177.26,-156.38 186.31,-150.88 175.8,-149.54 177.26,-156.38"/>
</a>
</g>
</g>
<!-- Node9 -->
<g id="Node000009" class="node">
<title>Node9</title>
<g id="a_Node000009"><a xlink:href="../../d6/d2c/class_c_l_e_d_controller.html#a8b412ff1fd4833d0db63a175d40a2ee0" target="_top" xlink:title="Get the first LED controller in the linked list of controllers.">
<polygon fill="white" stroke="#666666" points="299.38,-111.12 179.88,-111.12 179.88,-90.38 299.38,-90.38 299.38,-111.12"/>
<text text-anchor="middle" x="239.62" y="-97.62" font-family="Helvetica,sans-Serif" font-size="10.00">CLEDController::head</text>
</a>
</g>
</g>
<!-- Node1&#45;&gt;Node9 -->
<g id="edge8_Node000001_Node000009" class="edge">
<title>Node1&#45;&gt;Node9</title>
<g id="a_edge8_Node000001_Node000009"><a xlink:title=" ">
<path fill="none" stroke="#63b8ff" d="M74.53,-166.94C92.37,-154.15 123.97,-133.04 154,-120.75 159.5,-118.5 165.31,-116.47 171.21,-114.64"/>
<polygon fill="#63b8ff" stroke="#63b8ff" points="171.77,-118.12 180.41,-111.99 169.83,-111.39 171.77,-118.12"/>
</a>
</g>
</g>
<!-- Node10 -->
<g id="Node000010" class="node">
<title>Node10</title>
<g id="a_Node000010"><a xlink:href="../../d6/d2c/class_c_l_e_d_controller.html#a21a4d2b3415dd7b24175ebdb51c9ced0" target="_top" xlink:title="Get the next controller in the linked list after this one.">
<polygon fill="white" stroke="#666666" points="298.25,-72.12 181,-72.12 181,-51.38 298.25,-51.38 298.25,-72.12"/>
<text text-anchor="middle" x="239.62" y="-58.62" font-family="Helvetica,sans-Serif" font-size="10.00">CLEDController::next</text>
</a>
</g>
</g>
<!-- Node1&#45;&gt;Node10 -->
<g id="edge9_Node000001_Node000010" class="edge">
<title>Node1&#45;&gt;Node10</title>
<g id="a_edge9_Node000001_Node000010"><a xlink:title=" ">
<path fill="none" stroke="#63b8ff" d="M67.38,-166.88C81.63,-146.76 115,-103.77 154,-81.75 158.97,-78.95 164.31,-76.53 169.81,-74.46"/>
<polygon fill="#63b8ff" stroke="#63b8ff" points="170.72,-77.85 179.09,-71.35 168.5,-71.21 170.72,-77.85"/>
</a>
</g>
</g>
<!-- Node11 -->
<g id="Node000011" class="node">
<title>Node11</title>
<g id="a_Node000011"><a xlink:href="../../d6/d2c/class_c_l_e_d_controller.html#ac3eef15a3a7f8e26ce8c47b64bfb4ed7" target="_top" xlink:title=" ">
<polygon fill="white" stroke="#666666" points="312.88,-33.5 166.38,-33.5 166.38,0 312.88,0 312.88,-33.5"/>
<text text-anchor="start" x="174.38" y="-20" font-family="Helvetica,sans-Serif" font-size="10.00">CLEDController::showColor</text>
<text text-anchor="middle" x="239.62" y="-7.25" font-family="Helvetica,sans-Serif" font-size="10.00">Internal</text>
</a>
</g>
</g>
<!-- Node1&#45;&gt;Node11 -->
<g id="edge11_Node000001_Node000011" class="edge">
<title>Node1&#45;&gt;Node11</title>
<g id="a_edge11_Node000001_Node000011"><a xlink:title=" ">
<path fill="none" stroke="#63b8ff" d="M64.4,-167.18C75.5,-141.79 107.17,-76.92 154,-42.75 155.58,-41.6 157.21,-40.5 158.88,-39.44"/>
<polygon fill="#63b8ff" stroke="#63b8ff" points="160.49,-42.55 167.55,-34.65 157.11,-36.42 160.49,-42.55"/>
</a>
</g>
</g>
<!-- Node3 -->
<g id="Node000003" class="node">
<title>Node3</title>
<g id="a_Node000003"><a xlink:href="../../d6/d2c/class_c_l_e_d_controller.html#a676f705adf93898739a405b85150a3e7" target="_top" xlink:title="Get the dithering option currently set for this controller.">
<polygon fill="white" stroke="#666666" points="505.12,-342.12 363.88,-342.12 363.88,-321.38 505.12,-321.38 505.12,-342.12"/>
<text text-anchor="middle" x="434.5" y="-328.62" font-family="Helvetica,sans-Serif" font-size="10.00">CLEDController::getDither</text>
</a>
</g>
</g>
<!-- Node2&#45;&gt;Node3 -->
<g id="edge2_Node000002_Node000003" class="edge">
<title>Node2&#45;&gt;Node3</title>
<g id="a_edge2_Node000002_Node000003"><a xlink:title=" ">
<path fill="none" stroke="#63b8ff" d="M325.5,-331.19C334.36,-331.24 343.34,-331.28 352.16,-331.33"/>
<polygon fill="#63b8ff" stroke="#63b8ff" points="352.09,-334.83 362.11,-331.38 352.12,-327.83 352.09,-334.83"/>
</a>
</g>
</g>
<!-- Node2&#45;&gt;Node4 -->
<g id="edge3_Node000002_Node000004" class="edge">
<title>Node2&#45;&gt;Node4</title>
<g id="a_edge3_Node000002_Node000004"><a xlink:title=" ">
<path fill="none" stroke="#63b8ff" d="M295.64,-319.91C317.93,-315.52 343.87,-310.41 367.2,-305.81"/>
<polygon fill="#63b8ff" stroke="#63b8ff" points="367.8,-309.26 376.93,-303.9 366.44,-302.39 367.8,-309.26"/>
</a>
</g>
</g>
<!-- Node6&#45;&gt;Node7 -->
<g id="edge6_Node000006_Node000007" class="edge">
<title>Node6&#45;&gt;Node7</title>
<g id="a_edge6_Node000006_Node000007"><a xlink:title=" ">
<path fill="none" stroke="#63b8ff" d="M321.02,-207.83C331.5,-206.8 342.24,-205.74 352.72,-204.71"/>
<polygon fill="#63b8ff" stroke="#63b8ff" points="352.85,-208.21 362.46,-203.75 352.17,-201.25 352.85,-208.21"/>
</a>
</g>
</g>
<!-- Node12 -->
<g id="Node000012" class="node">
<title>Node12</title>
<g id="a_Node000012"><a xlink:href="../../d6/d2c/class_c_l_e_d_controller.html#af4376e36319823c1c2fc1204189f8b57" target="_top" xlink:title="Set all the LEDs to a given color.">
<polygon fill="white" stroke="#666666" points="507.75,-27.12 361.25,-27.12 361.25,-6.38 507.75,-6.38 507.75,-27.12"/>
<text text-anchor="middle" x="434.5" y="-13.62" font-family="Helvetica,sans-Serif" font-size="10.00">CLEDController::showColor</text>
</a>
</g>
</g>
<!-- Node11&#45;&gt;Node12 -->
<g id="edge12_Node000011_Node000012" class="edge">
<title>Node11&#45;&gt;Node12</title>
<g id="a_edge12_Node000011_Node000012"><a xlink:title=" ">
<path fill="none" stroke="#63b8ff" d="M313.27,-16.75C325.08,-16.75 337.41,-16.75 349.47,-16.75"/>
<polygon fill="#63b8ff" stroke="#63b8ff" points="349.41,-20.25 359.41,-16.75 349.41,-13.25 349.41,-20.25"/>
</a>
</g>
</g>
</g>
</svg>
