<?xml version="1.0" encoding="UTF-8" standalone="no"?>
<!DOCTYPE svg PUBLIC "-//W3C//DTD SVG 1.1//EN"
 "http://www.w3.org/Graphics/SVG/1.1/DTD/svg11.dtd">
<!-- Generated by graphviz version 12.2.1 (20241206.2353)
 -->
<!-- Title: CFastLED::show Pages: 1 -->
<svg width="408pt" height="80pt"
 viewBox="0.00 0.00 407.75 80.12" xmlns="http://www.w3.org/2000/svg" xmlns:xlink="http://www.w3.org/1999/xlink">
<g id="graph0" class="graph" transform="scale(1 1) rotate(0) translate(4 76.12)">
<title>CFastLED::show</title>
<!-- Node1 -->
<g id="Node000001" class="node">
<title>Node1</title>
<g id="a_Node000001"><a xlink:title="Update all our controllers with the current led colors.">
<polygon fill="#999999" stroke="#666666" points="399.75,-42.75 307.25,-42.75 307.25,-22 399.75,-22 399.75,-42.75"/>
<text text-anchor="middle" x="353.5" y="-29.25" font-family="Helvetica,sans-Serif" font-size="10.00">CFastLED::show</text>
</a>
</g>
</g>
<!-- Node1&#45;&gt;Node1 -->
<g id="edge5_Node000001_Node000001" class="edge">
<title>Node1&#45;&gt;Node1</title>
<g id="a_edge5_Node000001_Node000001"><a xlink:title=" ">
<path fill="none" stroke="#63b8ff" d="M376.24,-54.24C373.23,-58.08 365.65,-60.75 353.5,-60.75 331.29,-60.75 324.34,-51.81 332.67,-43.15"/>
<polygon fill="#63b8ff" stroke="#63b8ff" points="379.74,-53.9 374.58,-44.64 372.84,-55.09 379.74,-53.9"/>
</a>
</g>
</g>
<!-- Node2 -->
<g id="Node000002" class="node">
<title>Node2</title>
<g id="a_Node000002"><a xlink:href="../../dd/dbb/class_c_fast_l_e_d.html#a6819ff831058a710d4582dfc09817202" target="_top" xlink:title="Delay for the given number of milliseconds.">
<polygon fill="white" stroke="#666666" points="271.25,-42.75 177.25,-42.75 177.25,-22 271.25,-22 271.25,-42.75"/>
<text text-anchor="middle" x="224.25" y="-29.25" font-family="Helvetica,sans-Serif" font-size="10.00">CFastLED::delay</text>
</a>
</g>
</g>
<!-- Node1&#45;&gt;Node2 -->
<g id="edge1_Node000001_Node000002" class="edge">
<title>Node1&#45;&gt;Node2</title>
<g id="a_edge1_Node000001_Node000002"><a xlink:title=" ">
<path fill="none" stroke="#63b8ff" d="M295.61,-32.38C287.5,-32.38 279.24,-32.38 271.37,-32.38"/>
<polygon fill="#63b8ff" stroke="#63b8ff" points="295.41,-35.88 305.41,-32.38 295.41,-28.88 295.41,-35.88"/>
</a>
</g>
</g>
<!-- Node2&#45;&gt;Node2 -->
<g id="edge2_Node000002_Node000002" class="edge">
<title>Node2&#45;&gt;Node2</title>
<g id="a_edge2_Node000002_Node000002"><a xlink:title=" ">
<path fill="none" stroke="#63b8ff" d="M246.99,-54.24C243.98,-58.08 236.4,-60.75 224.25,-60.75 202.04,-60.75 195.09,-51.81 203.42,-43.15"/>
<polygon fill="#63b8ff" stroke="#63b8ff" points="250.49,-53.9 245.33,-44.64 243.59,-55.09 250.49,-53.9"/>
</a>
</g>
</g>
<!-- Node3 -->
<g id="Node000003" class="node">
<title>Node3</title>
<g id="a_Node000003"><a xlink:href="../../d3/d1d/group___power.html#ga555e128ef46e371cb5774c1fe3320728" target="_top" xlink:title="Similar to CFastLED::delay(), but pre&#45;adjusts brightness to keep below the power threshold.">
<polygon fill="white" stroke="#666666" points="141.25,-72.12 0,-72.12 0,-38.62 141.25,-38.62 141.25,-72.12"/>
<text text-anchor="start" x="8" y="-58.62" font-family="Helvetica,sans-Serif" font-size="10.00">delay_at_max_brightness</text>
<text text-anchor="middle" x="70.62" y="-45.88" font-family="Helvetica,sans-Serif" font-size="10.00">_for_power</text>
</a>
</g>
</g>
<!-- Node2&#45;&gt;Node3 -->
<g id="edge3_Node000002_Node000003" class="edge">
<title>Node2&#45;&gt;Node3</title>
<g id="a_edge3_Node000002_Node000003"><a xlink:title=" ">
<path fill="none" stroke="#63b8ff" d="M165.68,-41.11C157.83,-42.3 149.71,-43.53 141.67,-44.75"/>
<polygon fill="#63b8ff" stroke="#63b8ff" points="166.08,-44.59 175.44,-39.63 165.03,-37.67 166.08,-44.59"/>
</a>
</g>
</g>
<!-- Node4 -->
<g id="Node000004" class="node">
<title>Node4</title>
<g id="a_Node000004"><a xlink:href="../../d1/dc5/_color_palette_8ino.html#afe461d27b9c48d5921c00d521181f12f" target="_top" xlink:title=" ">
<polygon fill="white" stroke="#666666" points="89.12,-20.75 52.12,-20.75 52.12,0 89.12,0 89.12,-20.75"/>
<text text-anchor="middle" x="70.62" y="-7.25" font-family="Helvetica,sans-Serif" font-size="10.00">loop</text>
</a>
</g>
</g>
<!-- Node2&#45;&gt;Node4 -->
<g id="edge4_Node000002_Node000004" class="edge">
<title>Node2&#45;&gt;Node4</title>
<g id="a_edge4_Node000002_Node000004"><a xlink:title=" ">
<path fill="none" stroke="#63b8ff" d="M165.54,-24C138.38,-20.06 107.93,-15.64 89.27,-12.93"/>
<polygon fill="#63b8ff" stroke="#63b8ff" points="165.04,-27.47 175.44,-25.44 166.04,-20.54 165.04,-27.47"/>
</a>
</g>
</g>
</g>
</svg>
