<?xml version="1.0" encoding="UTF-8" standalone="no"?>
<!DOCTYPE svg PUBLIC "-//W3C//DTD SVG 1.1//EN"
 "http://www.w3.org/Graphics/SVG/1.1/DTD/svg11.dtd">
<!-- Generated by graphviz version 12.2.1 (20241206.2353)
 -->
<!-- Title: CFastLED::show Pages: 1 -->
<svg width="665pt" height="486pt"
 viewBox="0.00 0.00 665.25 485.75" xmlns="http://www.w3.org/2000/svg" xmlns:xlink="http://www.w3.org/1999/xlink">
<g id="graph0" class="graph" transform="scale(1 1) rotate(0) translate(4 481.75)">
<title>CFastLED::show</title>
<!-- Node1 -->
<g id="Node000001" class="node">
<title>Node1</title>
<g id="a_Node000001"><a xlink:title="Update all our controllers with the current led colors, using the passed in brightness.">
<polygon fill="#999999" stroke="#666666" points="92.5,-265.75 0,-265.75 0,-245 92.5,-245 92.5,-265.75"/>
<text text-anchor="middle" x="46.25" y="-252.25" font-family="Helvetica,sans-Serif" font-size="10.00">CFastLED::show</text>
</a>
</g>
</g>
<!-- Node2 -->
<g id="Node000002" class="node">
<title>Node2</title>
<g id="a_Node000002"><a xlink:href="../../d6/d2c/class_c_l_e_d_controller.html#af9962ef739bdb3b590ee66f3780765d6" target="_top" xlink:title=" ">
<polygon fill="white" stroke="#666666" points="303.5,-476.75 132.25,-476.75 132.25,-456 303.5,-456 303.5,-476.75"/>
<text text-anchor="middle" x="217.88" y="-463.25" font-family="Helvetica,sans-Serif" font-size="10.00">CLEDController::beginShowLeds</text>
</a>
</g>
</g>
<!-- Node1&#45;&gt;Node2 -->
<g id="edge1_Node000001_Node000002" class="edge">
<title>Node1&#45;&gt;Node2</title>
<g id="a_edge1_Node000001_Node000002"><a xlink:title=" ">
<path fill="none" stroke="#63b8ff" d="M48.66,-266.15C53.44,-298.16 72.01,-393.52 128.5,-442.38 132.15,-445.53 136.18,-448.28 140.45,-450.67"/>
<polygon fill="#63b8ff" stroke="#63b8ff" points="138.87,-453.8 149.4,-454.96 141.9,-447.48 138.87,-453.8"/>
</a>
</g>
</g>
<!-- Node4 -->
<g id="Node000004" class="node">
<title>Node4</title>
<g id="a_Node000004"><a xlink:href="../../d6/d2c/class_c_l_e_d_controller.html#a63f75cf7e55cf8da46db5fd27110bb3e" target="_top" xlink:title="How many LEDs does this controller manage?">
<polygon fill="white" stroke="#666666" points="479.25,-438.75 364.25,-438.75 364.25,-418 479.25,-418 479.25,-438.75"/>
<text text-anchor="middle" x="421.75" y="-425.25" font-family="Helvetica,sans-Serif" font-size="10.00">CLEDController::size</text>
</a>
</g>
</g>
<!-- Node1&#45;&gt;Node4 -->
<g id="edge24_Node000001_Node000004" class="edge">
<title>Node1&#45;&gt;Node4</title>
<g id="a_edge24_Node000001_Node000004"><a xlink:title=" ">
<path fill="none" stroke="#63b8ff" d="M49.18,-265.98C55.08,-294.89 75.74,-375.17 128.5,-409.38 197.12,-453.86 294.88,-449.94 358.08,-440.89"/>
<polygon fill="#63b8ff" stroke="#63b8ff" points="358.22,-444.41 367.57,-439.44 357.16,-437.49 358.22,-444.41"/>
</a>
</g>
</g>
<!-- Node5 -->
<g id="Node000005" class="node">
<title>Node5</title>
<g id="a_Node000005"><a xlink:href="../../dd/dbb/class_c_fast_l_e_d.html#a61d27e179c9b68bde89d220aebc0de32" target="_top" xlink:title="For debugging, this will keep track of time between calls to countFPS().">
<polygon fill="white" stroke="#666666" points="273.88,-400.75 161.88,-400.75 161.88,-380 273.88,-380 273.88,-400.75"/>
<text text-anchor="middle" x="217.88" y="-387.25" font-family="Helvetica,sans-Serif" font-size="10.00">CFastLED::countFPS</text>
</a>
</g>
</g>
<!-- Node1&#45;&gt;Node5 -->
<g id="edge4_Node000001_Node000005" class="edge">
<title>Node1&#45;&gt;Node5</title>
<g id="a_edge4_Node000001_Node000005"><a xlink:title=" ">
<path fill="none" stroke="#63b8ff" d="M52.03,-266.1C62.51,-288.36 89.72,-339.73 128.5,-366.38 135.26,-371.02 142.88,-374.76 150.74,-377.79"/>
<polygon fill="#63b8ff" stroke="#63b8ff" points="149.52,-381.07 160.12,-380.99 151.78,-374.44 149.52,-381.07"/>
</a>
</g>
</g>
<!-- Node6 -->
<g id="Node000006" class="node">
<title>Node6</title>
<g id="a_Node000006"><a xlink:href="../../d6/d2c/class_c_l_e_d_controller.html#a49b221af013bf196c2068e2cbd1c299d" target="_top" xlink:title=" ">
<polygon fill="white" stroke="#666666" points="299,-324.75 136.75,-324.75 136.75,-304 299,-304 299,-324.75"/>
<text text-anchor="middle" x="217.88" y="-311.25" font-family="Helvetica,sans-Serif" font-size="10.00">CLEDController::endShowLeds</text>
</a>
</g>
</g>
<!-- Node1&#45;&gt;Node6 -->
<g id="edge5_Node000001_Node000006" class="edge">
<title>Node1&#45;&gt;Node6</title>
<g id="a_edge5_Node000001_Node000006"><a xlink:title=" ">
<path fill="none" stroke="#63b8ff" d="M66.43,-266.1C82.57,-274.76 106.48,-286.71 128.5,-294.38 135.13,-296.68 142.13,-298.79 149.18,-300.71"/>
<polygon fill="#63b8ff" stroke="#63b8ff" points="148.22,-304.07 158.77,-303.17 149.96,-297.29 148.22,-304.07"/>
</a>
</g>
</g>
<!-- Node7 -->
<g id="Node000007" class="node">
<title>Node7</title>
<g id="a_Node000007"><a xlink:href="../../d6/d2c/class_c_l_e_d_controller.html#a2a231accbeb00e6a6080a7e55274a279" target="_top" xlink:title="Set the dithering mode for this controller to use.">
<polygon fill="white" stroke="#666666" points="492,-343.75 351.5,-343.75 351.5,-323 492,-323 492,-343.75"/>
<text text-anchor="middle" x="421.75" y="-330.25" font-family="Helvetica,sans-Serif" font-size="10.00">CLEDController::setDither</text>
</a>
</g>
</g>
<!-- Node1&#45;&gt;Node7 -->
<g id="edge21_Node000001_Node000007" class="edge">
<title>Node1&#45;&gt;Node7</title>
<g id="a_edge21_Node000001_Node000007"><a xlink:title=" ">
<path fill="none" stroke="#63b8ff" d="M54.18,-266.06C66.56,-284.02 94.4,-319.65 128.5,-333.38 203.79,-363.66 299.08,-356.11 359.99,-346.17"/>
<polygon fill="#63b8ff" stroke="#63b8ff" points="360.56,-349.62 369.83,-344.48 359.38,-342.72 360.56,-349.62"/>
</a>
</g>
</g>
<!-- Node8 -->
<g id="Node000008" class="node">
<title>Node8</title>
<g id="a_Node000008"><a xlink:href="../../d6/d2c/class_c_l_e_d_controller.html#a6bd253f670640ea4d1bd0d71b8029f2a" target="_top" xlink:title=" ">
<polygon fill="white" stroke="#666666" points="293,-285.75 142.75,-285.75 142.75,-265 293,-265 293,-285.75"/>
<text text-anchor="middle" x="217.88" y="-272.25" font-family="Helvetica,sans-Serif" font-size="10.00">CLEDController::getEnabled</text>
</a>
</g>
</g>
<!-- Node1&#45;&gt;Node8 -->
<g id="edge7_Node000001_Node000008" class="edge">
<title>Node1&#45;&gt;Node8</title>
<g id="a_edge7_Node000001_Node000008"><a xlink:title=" ">
<path fill="none" stroke="#63b8ff" d="M92.71,-260.73C104.67,-262.14 117.97,-263.71 131.3,-265.28"/>
<polygon fill="#63b8ff" stroke="#63b8ff" points="130.62,-268.73 140.96,-266.42 131.44,-261.78 130.62,-268.73"/>
</a>
</g>
</g>
<!-- Node9 -->
<g id="Node000009" class="node">
<title>Node9</title>
<g id="a_Node000009"><a xlink:href="../../d6/d2c/class_c_l_e_d_controller.html#a8b412ff1fd4833d0db63a175d40a2ee0" target="_top" xlink:title="Get the first LED controller in the linked list of controllers.">
<polygon fill="white" stroke="#666666" points="277.62,-246.75 158.12,-246.75 158.12,-226 277.62,-226 277.62,-246.75"/>
<text text-anchor="middle" x="217.88" y="-233.25" font-family="Helvetica,sans-Serif" font-size="10.00">CLEDController::head</text>
</a>
</g>
</g>
<!-- Node1&#45;&gt;Node9 -->
<g id="edge8_Node000001_Node000009" class="edge">
<title>Node1&#45;&gt;Node9</title>
<g id="a_edge8_Node000001_Node000009"><a xlink:title=" ">
<path fill="none" stroke="#63b8ff" d="M92.71,-250.28C109.29,-248.43 128.44,-246.28 146.67,-244.24"/>
<polygon fill="#63b8ff" stroke="#63b8ff" points="146.82,-247.74 156.36,-243.15 146.04,-240.79 146.82,-247.74"/>
</a>
</g>
</g>
<!-- Node10 -->
<g id="Node000010" class="node">
<title>Node10</title>
<g id="a_Node000010"><a xlink:href="../../d6/d2c/class_c_l_e_d_controller.html#a21a4d2b3415dd7b24175ebdb51c9ced0" target="_top" xlink:title="Get the next controller in the linked list after this one.">
<polygon fill="white" stroke="#666666" points="276.5,-207.75 159.25,-207.75 159.25,-187 276.5,-187 276.5,-207.75"/>
<text text-anchor="middle" x="217.88" y="-194.25" font-family="Helvetica,sans-Serif" font-size="10.00">CLEDController::next</text>
</a>
</g>
</g>
<!-- Node1&#45;&gt;Node10 -->
<g id="edge9_Node000001_Node000010" class="edge">
<title>Node1&#45;&gt;Node10</title>
<g id="a_edge9_Node000001_Node000010"><a xlink:title=" ">
<path fill="none" stroke="#63b8ff" d="M67.12,-244.61C83.27,-236.22 106.84,-224.79 128.5,-217.38 135.32,-215.04 142.53,-212.9 149.77,-210.96"/>
<polygon fill="#63b8ff" stroke="#63b8ff" points="150.44,-214.4 159.27,-208.54 148.72,-207.62 150.44,-214.4"/>
</a>
</g>
</g>
<!-- Node11 -->
<g id="Node000011" class="node">
<title>Node11</title>
<g id="a_Node000011"><a xlink:href="../../de/dca/classfl_1_1_engine_events.html#a7147debfba714b8ab0925af1a7c935c0" target="_top" xlink:title=" ">
<polygon fill="white" stroke="#666666" points="287.75,-169.12 148,-169.12 148,-135.62 287.75,-135.62 287.75,-169.12"/>
<text text-anchor="start" x="156" y="-155.62" font-family="Helvetica,sans-Serif" font-size="10.00">fl::EngineEvents::onBegin</text>
<text text-anchor="middle" x="217.88" y="-142.88" font-family="Helvetica,sans-Serif" font-size="10.00">Frame</text>
</a>
</g>
</g>
<!-- Node1&#45;&gt;Node11 -->
<g id="edge10_Node000001_Node000011" class="edge">
<title>Node1&#45;&gt;Node11</title>
<g id="a_edge10_Node000001_Node000011"><a xlink:title=" ">
<path fill="none" stroke="#63b8ff" d="M55.56,-244.76C69.09,-228.19 97.51,-196.22 128.5,-178.38 131.29,-176.77 134.2,-175.25 137.17,-173.82"/>
<polygon fill="#63b8ff" stroke="#63b8ff" points="138.37,-177.12 146.13,-169.9 135.57,-170.7 138.37,-177.12"/>
</a>
</g>
</g>
<!-- Node15 -->
<g id="Node000015" class="node">
<title>Node15</title>
<g id="a_Node000015"><a xlink:href="../../de/dca/classfl_1_1_engine_events.html#ab7d24c4783214392de84947cd7df5570" target="_top" xlink:title=" ">
<polygon fill="white" stroke="#666666" points="298.25,-117.75 137.5,-117.75 137.5,-97 298.25,-97 298.25,-117.75"/>
<text text-anchor="middle" x="217.88" y="-104.25" font-family="Helvetica,sans-Serif" font-size="10.00">fl::EngineEvents::onEndFrame</text>
</a>
</g>
</g>
<!-- Node1&#45;&gt;Node15 -->
<g id="edge15_Node000001_Node000015" class="edge">
<title>Node1&#45;&gt;Node15</title>
<g id="a_edge15_Node000001_Node000015"><a xlink:title=" ">
<path fill="none" stroke="#63b8ff" d="M50.72,-244.67C59.43,-219.62 84.68,-157.01 128.5,-126.38 130.09,-125.26 131.74,-124.21 133.42,-123.22"/>
<polygon fill="#63b8ff" stroke="#63b8ff" points="134.78,-126.46 142.16,-118.86 131.65,-120.2 134.78,-126.46"/>
</a>
</g>
</g>
<!-- Node17 -->
<g id="Node000017" class="node">
<title>Node17</title>
<g id="a_Node000017"><a xlink:href="../../de/dca/classfl_1_1_engine_events.html#af1bb9a46fdc6694a1b5c87a49c516ae8" target="_top" xlink:title=" ">
<polygon fill="white" stroke="#666666" points="307.25,-78.75 128.5,-78.75 128.5,-58 307.25,-58 307.25,-78.75"/>
<text text-anchor="middle" x="217.88" y="-65.25" font-family="Helvetica,sans-Serif" font-size="10.00">fl::EngineEvents::onEndShowLeds</text>
</a>
</g>
</g>
<!-- Node1&#45;&gt;Node17 -->
<g id="edge18_Node000001_Node000017" class="edge">
<title>Node1&#45;&gt;Node17</title>
<g id="a_edge18_Node000001_Node000017"><a xlink:title=" ">
<path fill="none" stroke="#63b8ff" d="M49.12,-244.79C54.95,-215.05 75.69,-130.24 128.5,-88.38 130.26,-86.98 132.09,-85.68 133.99,-84.47"/>
<polygon fill="#63b8ff" stroke="#63b8ff" points="135.48,-87.65 142.62,-79.82 132.16,-81.48 135.48,-87.65"/>
</a>
</g>
</g>
<!-- Node19 -->
<g id="Node000019" class="node">
<title>Node19</title>
<g id="a_Node000019"><a xlink:href="../../d6/d2c/class_c_l_e_d_controller.html#ac5355e980ac13d9ae97561f183f73990" target="_top" xlink:title="Write the data to the LEDs managed by this controller.">
<polygon fill="white" stroke="#666666" points="289.62,-34.12 146.12,-34.12 146.12,-0.62 289.62,-0.62 289.62,-34.12"/>
<text text-anchor="start" x="154.12" y="-20.62" font-family="Helvetica,sans-Serif" font-size="10.00">CLEDController::showLeds</text>
<text text-anchor="middle" x="217.88" y="-7.88" font-family="Helvetica,sans-Serif" font-size="10.00">Internal</text>
</a>
</g>
</g>
<!-- Node1&#45;&gt;Node19 -->
<g id="edge22_Node000001_Node000019" class="edge">
<title>Node1&#45;&gt;Node19</title>
<g id="a_edge22_Node000001_Node000019"><a xlink:title=" ">
<path fill="none" stroke="#63b8ff" d="M48.39,-244.72C52.53,-211.16 69.78,-106.45 128.5,-49.38 132.09,-45.89 136.08,-42.78 140.33,-40.01"/>
<polygon fill="#63b8ff" stroke="#63b8ff" points="141.75,-43.23 148.68,-35.21 138.27,-37.16 141.75,-43.23"/>
</a>
</g>
</g>
<!-- Node3 -->
<g id="Node000003" class="node">
<title>Node3</title>
<g id="a_Node000003"><a xlink:href="../../d6/d2c/class_c_l_e_d_controller.html#a676f705adf93898739a405b85150a3e7" target="_top" xlink:title="Get the dithering option currently set for this controller.">
<polygon fill="white" stroke="#666666" points="492.38,-477.75 351.12,-477.75 351.12,-457 492.38,-457 492.38,-477.75"/>
<text text-anchor="middle" x="421.75" y="-464.25" font-family="Helvetica,sans-Serif" font-size="10.00">CLEDController::getDither</text>
</a>
</g>
</g>
<!-- Node2&#45;&gt;Node3 -->
<g id="edge2_Node000002_Node000003" class="edge">
<title>Node2&#45;&gt;Node3</title>
<g id="a_edge2_Node000002_Node000003"><a xlink:title=" ">
<path fill="none" stroke="#63b8ff" d="M303.9,-466.8C315.62,-466.85 327.63,-466.91 339.29,-466.97"/>
<polygon fill="#63b8ff" stroke="#63b8ff" points="339.26,-470.47 349.28,-467.02 339.3,-463.47 339.26,-470.47"/>
</a>
</g>
</g>
<!-- Node2&#45;&gt;Node4 -->
<g id="edge3_Node000002_Node000004" class="edge">
<title>Node2&#45;&gt;Node4</title>
<g id="a_edge3_Node000002_Node000004"><a xlink:title=" ">
<path fill="none" stroke="#63b8ff" d="M276.45,-455.54C300.2,-451.07 327.91,-445.85 352.66,-441.19"/>
<polygon fill="#63b8ff" stroke="#63b8ff" points="353.13,-444.67 362.31,-439.38 351.83,-437.79 353.13,-444.67"/>
</a>
</g>
</g>
<!-- Node6&#45;&gt;Node7 -->
<g id="edge6_Node000006_Node000007" class="edge">
<title>Node6&#45;&gt;Node7</title>
<g id="a_edge6_Node000006_Node000007"><a xlink:title=" ">
<path fill="none" stroke="#63b8ff" d="M299.24,-321.94C312.64,-323.2 326.55,-324.51 339.96,-325.77"/>
<polygon fill="#63b8ff" stroke="#63b8ff" points="339.3,-329.22 349.58,-326.68 339.95,-322.25 339.3,-329.22"/>
</a>
</g>
</g>
<!-- Node12 -->
<g id="Node000012" class="node">
<title>Node12</title>
<g id="a_Node000012"><a xlink:href="../../de/dca/classfl_1_1_engine_events.html#a9dfab83407c4cb0c15065e242d49de62" target="_top" xlink:title=" ">
<polygon fill="white" stroke="#666666" points="471.75,-214.12 371.75,-214.12 371.75,-180.62 471.75,-180.62 471.75,-214.12"/>
<text text-anchor="start" x="379.75" y="-200.62" font-family="Helvetica,sans-Serif" font-size="10.00">fl::EngineEvents::</text>
<text text-anchor="middle" x="421.75" y="-187.88" font-family="Helvetica,sans-Serif" font-size="10.00">_onBeginFrame</text>
</a>
</g>
</g>
<!-- Node11&#45;&gt;Node12 -->
<g id="edge11_Node000011_Node000012" class="edge">
<title>Node11&#45;&gt;Node12</title>
<g id="a_edge11_Node000011_Node000012"><a xlink:title=" ">
<path fill="none" stroke="#63b8ff" d="M288.07,-167.8C311.5,-173.02 337.48,-178.81 360.19,-183.87"/>
<polygon fill="#63b8ff" stroke="#63b8ff" points="359.39,-187.28 369.91,-186.04 360.91,-180.45 359.39,-187.28"/>
</a>
</g>
</g>
<!-- Node13 -->
<g id="Node000013" class="node">
<title>Node13</title>
<g id="a_Node000013"><a xlink:href="../../de/dca/classfl_1_1_engine_events.html#a34a4625c4fbcf754f70820bc4f0e418b" target="_top" xlink:title=" ">
<polygon fill="white" stroke="#666666" points="500.25,-162.75 343.25,-162.75 343.25,-142 500.25,-142 500.25,-162.75"/>
<text text-anchor="middle" x="421.75" y="-149.25" font-family="Helvetica,sans-Serif" font-size="10.00">fl::EngineEvents::getInstance</text>
</a>
</g>
</g>
<!-- Node11&#45;&gt;Node13 -->
<g id="edge12_Node000011_Node000013" class="edge">
<title>Node11&#45;&gt;Node13</title>
<g id="a_edge12_Node000011_Node000013"><a xlink:title=" ">
<path fill="none" stroke="#63b8ff" d="M288.07,-152.38C302.16,-152.38 317.18,-152.38 331.86,-152.38"/>
<polygon fill="#63b8ff" stroke="#63b8ff" points="331.47,-155.88 341.47,-152.38 331.47,-148.88 331.47,-155.88"/>
</a>
</g>
</g>
<!-- Node14 -->
<g id="Node000014" class="node">
<title>Node14</title>
<g id="a_Node000014"><a xlink:href="../../d9/d5b/classfl_1_1_singleton.html#a7e65fe8dee6b2a23a8b6138fa2c274cb" target="_top" xlink:title=" ">
<polygon fill="white" stroke="#666666" points="657.25,-162.75 536.25,-162.75 536.25,-142 657.25,-142 657.25,-162.75"/>
<text text-anchor="middle" x="596.75" y="-149.25" font-family="Helvetica,sans-Serif" font-size="10.00">fl::Singleton::instance</text>
</a>
</g>
</g>
<!-- Node13&#45;&gt;Node14 -->
<g id="edge13_Node000013_Node000014" class="edge">
<title>Node13&#45;&gt;Node14</title>
<g id="a_edge13_Node000013_Node000014"><a xlink:title=" ">
<path fill="none" stroke="#63b8ff" d="M500.65,-152.38C508.6,-152.38 516.65,-152.38 524.53,-152.38"/>
<polygon fill="#63b8ff" stroke="#63b8ff" points="524.4,-155.88 534.4,-152.38 524.4,-148.88 524.4,-155.88"/>
</a>
</g>
</g>
<!-- Node14&#45;&gt;Node14 -->
<g id="edge14_Node000014_Node000014" class="edge">
<title>Node14&#45;&gt;Node14</title>
<g id="a_edge14_Node000014_Node000014"><a xlink:title=" ">
<path fill="none" stroke="#63b8ff" d="M568.55,-163.15C557.27,-171.81 566.67,-180.75 596.75,-180.75 613.2,-180.75 623.46,-178.08 627.54,-174.24"/>
<polygon fill="#63b8ff" stroke="#63b8ff" points="630.98,-173.56 625.29,-164.62 624.16,-175.16 630.98,-173.56"/>
</a>
</g>
</g>
<!-- Node15&#45;&gt;Node13 -->
<g id="edge17_Node000015_Node000013" class="edge">
<title>Node15&#45;&gt;Node13</title>
<g id="a_edge17_Node000015_Node000013"><a xlink:title=" ">
<path fill="none" stroke="#63b8ff" d="M269.84,-118.21C282.1,-120.85 295.15,-123.69 307.25,-126.38 325.39,-130.4 345.13,-134.89 362.99,-138.98"/>
<polygon fill="#63b8ff" stroke="#63b8ff" points="362.11,-142.38 372.64,-141.21 363.68,-135.55 362.11,-142.38"/>
</a>
</g>
</g>
<!-- Node16 -->
<g id="Node000016" class="node">
<title>Node16</title>
<g id="a_Node000016"><a xlink:href="../../de/dca/classfl_1_1_engine_events.html#a643d9a8597b79d76daed94c29845e886" target="_top" xlink:title=" ">
<polygon fill="white" stroke="#666666" points="471.75,-124.12 371.75,-124.12 371.75,-90.62 471.75,-90.62 471.75,-124.12"/>
<text text-anchor="start" x="379.75" y="-110.62" font-family="Helvetica,sans-Serif" font-size="10.00">fl::EngineEvents::</text>
<text text-anchor="middle" x="421.75" y="-97.88" font-family="Helvetica,sans-Serif" font-size="10.00">_onEndFrame</text>
</a>
</g>
</g>
<!-- Node15&#45;&gt;Node16 -->
<g id="edge16_Node000015_Node000016" class="edge">
<title>Node15&#45;&gt;Node16</title>
<g id="a_edge16_Node000015_Node000016"><a xlink:title=" ">
<path fill="none" stroke="#63b8ff" d="M298.66,-107.38C319.11,-107.38 340.77,-107.38 360.08,-107.38"/>
<polygon fill="#63b8ff" stroke="#63b8ff" points="359.95,-110.88 369.95,-107.38 359.95,-103.88 359.95,-110.88"/>
</a>
</g>
</g>
<!-- Node17&#45;&gt;Node13 -->
<g id="edge20_Node000017_Node000013" class="edge">
<title>Node17&#45;&gt;Node13</title>
<g id="a_edge20_Node000017_Node000013"><a xlink:title=" ">
<path fill="none" stroke="#63b8ff" d="M288.24,-79.25C294.92,-81.7 301.38,-84.7 307.25,-88.38 328.96,-101.96 321.66,-119.59 343.25,-133.38 345.26,-134.66 347.34,-135.85 349.49,-136.97"/>
<polygon fill="#63b8ff" stroke="#63b8ff" points="347.96,-140.12 358.52,-141 350.82,-133.72 347.96,-140.12"/>
</a>
</g>
</g>
<!-- Node18 -->
<g id="Node000018" class="node">
<title>Node18</title>
<g id="a_Node000018"><a xlink:href="../../de/dca/classfl_1_1_engine_events.html#ae6b4037ab7b73bf0d69e07c4956f9450" target="_top" xlink:title=" ">
<polygon fill="white" stroke="#666666" points="471.75,-72.12 371.75,-72.12 371.75,-38.62 471.75,-38.62 471.75,-72.12"/>
<text text-anchor="start" x="379.75" y="-58.62" font-family="Helvetica,sans-Serif" font-size="10.00">fl::EngineEvents::</text>
<text text-anchor="middle" x="421.75" y="-45.88" font-family="Helvetica,sans-Serif" font-size="10.00">_onEndShowLeds</text>
</a>
</g>
</g>
<!-- Node17&#45;&gt;Node18 -->
<g id="edge19_Node000017_Node000018" class="edge">
<title>Node17&#45;&gt;Node18</title>
<g id="a_edge19_Node000017_Node000018"><a xlink:title=" ">
<path fill="none" stroke="#63b8ff" d="M307.71,-62.65C325.51,-61.51 343.81,-60.33 360.36,-59.26"/>
<polygon fill="#63b8ff" stroke="#63b8ff" points="360.25,-62.78 370,-58.64 359.8,-55.79 360.25,-62.78"/>
</a>
</g>
</g>
<!-- Node20 -->
<g id="Node000020" class="node">
<title>Node20</title>
<g id="a_Node000020"><a xlink:href="../../d6/d2c/class_c_l_e_d_controller.html#afc8fb063666d03527aabc86d8531e007" target="_top" xlink:title="Write the passed in RGB data out to the LEDs managed by this controller.">
<polygon fill="white" stroke="#666666" points="482.25,-20.75 361.25,-20.75 361.25,0 482.25,0 482.25,-20.75"/>
<text text-anchor="middle" x="421.75" y="-7.25" font-family="Helvetica,sans-Serif" font-size="10.00">CLEDController::show</text>
</a>
</g>
</g>
<!-- Node19&#45;&gt;Node20 -->
<g id="edge23_Node000019_Node000020" class="edge">
<title>Node19&#45;&gt;Node20</title>
<g id="a_edge23_Node000019_Node000020"><a xlink:title=" ">
<path fill="none" stroke="#63b8ff" d="M290.05,-14.91C309.32,-14.24 330.17,-13.52 349.45,-12.85"/>
<polygon fill="#63b8ff" stroke="#63b8ff" points="349.52,-16.35 359.39,-12.5 349.27,-9.35 349.52,-16.35"/>
</a>
</g>
</g>
</g>
</svg>
