<?xml version="1.0" encoding="UTF-8" standalone="no"?>
<!DOCTYPE svg PUBLIC "-//W3C//DTD SVG 1.1//EN"
 "http://www.w3.org/Graphics/SVG/1.1/DTD/svg11.dtd">
<!-- Generated by graphviz version 12.2.1 (20241206.2353)
 -->
<!-- Title: CFastLED::setMaxPowerInVoltsAndMilliamps Pages: 1 -->
<svg width="347pt" height="80pt"
 viewBox="0.00 0.00 346.75 80.12" xmlns="http://www.w3.org/2000/svg" xmlns:xlink="http://www.w3.org/1999/xlink">
<g id="graph0" class="graph" transform="scale(1 1) rotate(0) translate(4 76.12)">
<title>CFastLED::setMaxPowerInVoltsAndMilliamps</title>
<!-- Node1 -->
<g id="Node000001" class="node">
<title>Node1</title>
<g id="a_Node000001"><a xlink:title="Set the maximum power to be used, given in volts and milliamps.">
<polygon fill="#999999" stroke="#666666" points="338.75,-49.12 172.75,-49.12 172.75,-15.62 338.75,-15.62 338.75,-49.12"/>
<text text-anchor="start" x="180.75" y="-35.62" font-family="Helvetica,sans-Serif" font-size="10.00">CFastLED::setMaxPowerInVolts</text>
<text text-anchor="middle" x="255.75" y="-22.88" font-family="Helvetica,sans-Serif" font-size="10.00">AndMilliamps</text>
</a>
</g>
</g>
<!-- Node2 -->
<g id="Node000002" class="node">
<title>Node2</title>
<g id="a_Node000002"><a xlink:href="../../d3/d1d/group___power.html#ga8db01f418cbff03a8d51caa528e44e0d" target="_top" xlink:title="Set the maximum power used in milliamps for a given voltage.">
<polygon fill="white" stroke="#666666" points="136.75,-72.12 0,-72.12 0,-38.62 136.75,-38.62 136.75,-72.12"/>
<text text-anchor="start" x="8" y="-58.62" font-family="Helvetica,sans-Serif" font-size="10.00">set_max_power_in_volts</text>
<text text-anchor="middle" x="68.38" y="-45.88" font-family="Helvetica,sans-Serif" font-size="10.00">_and_milliamps</text>
</a>
</g>
</g>
<!-- Node1&#45;&gt;Node2 -->
<g id="edge1_Node000001_Node000002" class="edge">
<title>Node1&#45;&gt;Node2</title>
<g id="a_edge1_Node000001_Node000002"><a xlink:title=" ">
<path fill="none" stroke="#63b8ff" d="M160.98,-44.01C152.92,-45.01 144.87,-46.01 137.07,-46.98"/>
<polygon fill="#63b8ff" stroke="#63b8ff" points="161.37,-47.49 170.86,-42.78 160.51,-40.54 161.37,-47.49"/>
</a>
</g>
</g>
<!-- Node3 -->
<g id="Node000003" class="node">
<title>Node3</title>
<g id="a_Node000003"><a xlink:href="../../dc/ded/_fx_pacifica_8ino.html#a4fc01d736fe50cf5b977f755b675f11d" target="_top" xlink:title=" ">
<polygon fill="white" stroke="#666666" points="89.88,-20.75 46.88,-20.75 46.88,0 89.88,0 89.88,-20.75"/>
<text text-anchor="middle" x="68.38" y="-7.25" font-family="Helvetica,sans-Serif" font-size="10.00">setup</text>
</a>
</g>
</g>
<!-- Node1&#45;&gt;Node3 -->
<g id="edge2_Node000001_Node000003" class="edge">
<title>Node1&#45;&gt;Node3</title>
<g id="a_edge2_Node000001_Node000003"><a xlink:title=" ">
<path fill="none" stroke="#63b8ff" d="M160.93,-21.24C134.22,-18.07 107.63,-14.92 90.05,-12.83"/>
<polygon fill="#63b8ff" stroke="#63b8ff" points="160.52,-24.72 170.86,-22.42 161.34,-17.76 160.52,-24.72"/>
</a>
</g>
</g>
</g>
</svg>
