<?xml version="1.0" encoding="UTF-8" standalone="no"?>
<!DOCTYPE svg PUBLIC "-//W3C//DTD SVG 1.1//EN"
 "http://www.w3.org/Graphics/SVG/1.1/DTD/svg11.dtd">
<!-- Generated by graphviz version 12.2.1 (20241206.2353)
 -->
<!-- Title: CFastLED::clearData Pages: 1 -->
<svg width="295pt" height="119pt"
 viewBox="0.00 0.00 295.00 119.12" xmlns="http://www.w3.org/2000/svg" xmlns:xlink="http://www.w3.org/1999/xlink">
<g id="graph0" class="graph" transform="scale(1 1) rotate(0) translate(4 115.12)">
<title>CFastLED::clearData</title>
<!-- Node1 -->
<g id="Node000001" class="node">
<title>Node1</title>
<g id="a_Node000001"><a xlink:title="Clear out the local data array.">
<polygon fill="#999999" stroke="#666666" points="114.25,-59.75 0,-59.75 0,-39 114.25,-39 114.25,-59.75"/>
<text text-anchor="middle" x="57.12" y="-46.25" font-family="Helvetica,sans-Serif" font-size="10.00">CFastLED::clearData</text>
</a>
</g>
</g>
<!-- Node2 -->
<g id="Node000002" class="node">
<title>Node2</title>
<g id="a_Node000002"><a xlink:href="../../d6/d2c/class_c_l_e_d_controller.html#aca9f099645c6976b1a52ba13ab455352" target="_top" xlink:title="Zero out the LED data managed by this controller.">
<polygon fill="white" stroke="#666666" points="287,-111.12 150.25,-111.12 150.25,-77.62 287,-77.62 287,-111.12"/>
<text text-anchor="start" x="158.25" y="-97.62" font-family="Helvetica,sans-Serif" font-size="10.00">CLEDController::clearLed</text>
<text text-anchor="middle" x="218.62" y="-84.88" font-family="Helvetica,sans-Serif" font-size="10.00">DataInternal</text>
</a>
</g>
</g>
<!-- Node1&#45;&gt;Node2 -->
<g id="edge1_Node000001_Node000002" class="edge">
<title>Node1&#45;&gt;Node2</title>
<g id="a_edge1_Node000001_Node000002"><a xlink:title=" ">
<path fill="none" stroke="#63b8ff" d="M96.33,-60.15C111.15,-64.33 128.62,-69.26 145.62,-74.06"/>
<polygon fill="#63b8ff" stroke="#63b8ff" points="144.66,-77.43 155.23,-76.77 146.56,-70.69 144.66,-77.43"/>
</a>
</g>
</g>
<!-- Node3 -->
<g id="Node000003" class="node">
<title>Node3</title>
<g id="a_Node000003"><a xlink:href="../../d6/d2c/class_c_l_e_d_controller.html#a8b412ff1fd4833d0db63a175d40a2ee0" target="_top" xlink:title="Get the first LED controller in the linked list of controllers.">
<polygon fill="white" stroke="#666666" points="278.38,-59.75 158.88,-59.75 158.88,-39 278.38,-39 278.38,-59.75"/>
<text text-anchor="middle" x="218.62" y="-46.25" font-family="Helvetica,sans-Serif" font-size="10.00">CLEDController::head</text>
</a>
</g>
</g>
<!-- Node1&#45;&gt;Node3 -->
<g id="edge2_Node000001_Node000003" class="edge">
<title>Node1&#45;&gt;Node3</title>
<g id="a_edge2_Node000001_Node000003"><a xlink:title=" ">
<path fill="none" stroke="#63b8ff" d="M114.36,-49.38C124.94,-49.38 136.13,-49.38 147.09,-49.38"/>
<polygon fill="#63b8ff" stroke="#63b8ff" points="146.87,-52.88 156.87,-49.38 146.87,-45.88 146.87,-52.88"/>
</a>
</g>
</g>
<!-- Node4 -->
<g id="Node000004" class="node">
<title>Node4</title>
<g id="a_Node000004"><a xlink:href="../../d6/d2c/class_c_l_e_d_controller.html#a21a4d2b3415dd7b24175ebdb51c9ced0" target="_top" xlink:title="Get the next controller in the linked list after this one.">
<polygon fill="white" stroke="#666666" points="277.25,-20.75 160,-20.75 160,0 277.25,0 277.25,-20.75"/>
<text text-anchor="middle" x="218.62" y="-7.25" font-family="Helvetica,sans-Serif" font-size="10.00">CLEDController::next</text>
</a>
</g>
</g>
<!-- Node1&#45;&gt;Node4 -->
<g id="edge3_Node000001_Node000004" class="edge">
<title>Node1&#45;&gt;Node4</title>
<g id="a_edge3_Node000001_Node000004"><a xlink:title=" ">
<path fill="none" stroke="#63b8ff" d="M102.55,-38.51C120.97,-34.01 142.54,-28.74 161.99,-23.98"/>
<polygon fill="#63b8ff" stroke="#63b8ff" points="162.8,-27.38 171.69,-21.61 161.14,-20.58 162.8,-27.38"/>
</a>
</g>
</g>
</g>
</svg>
