<?xml version="1.0" encoding="UTF-8" standalone="no"?>
<!DOCTYPE svg PUBLIC "-//W3C//DTD SVG 1.1//EN"
 "http://www.w3.org/Graphics/SVG/1.1/DTD/svg11.dtd">
<!-- Generated by graphviz version 12.2.1 (20241206.2353)
 -->
<!-- Title: blur2d Pages: 1 -->
<svg width="471pt" height="107pt"
 viewBox="0.00 0.00 471.00 106.75" xmlns="http://www.w3.org/2000/svg" xmlns:xlink="http://www.w3.org/1999/xlink">
<g id="graph0" class="graph" transform="scale(1 1) rotate(0) translate(4 102.75)">
<title>blur2d</title>
<!-- Node1 -->
<g id="Node000001" class="node">
<title>Node1</title>
<g id="a_Node000001"><a xlink:title="Two&#45;dimensional blur filter.">
<polygon fill="#999999" stroke="#666666" points="46.75,-39.75 0,-39.75 0,-19 46.75,-19 46.75,-39.75"/>
<text text-anchor="middle" x="23.38" y="-26.25" font-family="Helvetica,sans-Serif" font-size="10.00">blur2d</text>
</a>
</g>
</g>
<!-- Node2 -->
<g id="Node000002" class="node">
<title>Node2</title>
<g id="a_Node000002"><a xlink:href="../../d5/d3d/group___color_blurs.html#ga33ce178f76009348d3a0f0723b22d4de" target="_top" xlink:title="Perform a blur1d() on every column of a rectangular matrix.">
<polygon fill="white" stroke="#666666" points="160.25,-59.75 82.75,-59.75 82.75,-39 160.25,-39 160.25,-59.75"/>
<text text-anchor="middle" x="121.5" y="-46.25" font-family="Helvetica,sans-Serif" font-size="10.00">blurColumns</text>
</a>
</g>
</g>
<!-- Node1&#45;&gt;Node2 -->
<g id="edge1_Node000001_Node000002" class="edge">
<title>Node1&#45;&gt;Node2</title>
<g id="a_edge1_Node000001_Node000002"><a xlink:title=" ">
<path fill="none" stroke="#63b8ff" d="M47.16,-34.11C54.49,-35.64 62.92,-37.4 71.4,-39.16"/>
<polygon fill="#63b8ff" stroke="#63b8ff" points="70.49,-42.54 80.99,-41.16 71.92,-35.69 70.49,-42.54"/>
</a>
</g>
</g>
<!-- Node10 -->
<g id="Node000010" class="node">
<title>Node10</title>
<g id="a_Node000010"><a xlink:href="../../d5/d3d/group___color_blurs.html#ga3000f2662fe45e9424c02b0d35f40b21" target="_top" xlink:title="Perform a blur1d() on every row of a rectangular matrix.">
<polygon fill="white" stroke="#666666" points="152,-20.75 91,-20.75 91,0 152,0 152,-20.75"/>
<text text-anchor="middle" x="121.5" y="-7.25" font-family="Helvetica,sans-Serif" font-size="10.00">blurRows</text>
</a>
</g>
</g>
<!-- Node1&#45;&gt;Node10 -->
<g id="edge7_Node000001_Node000010" class="edge">
<title>Node1&#45;&gt;Node10</title>
<g id="a_edge7_Node000001_Node000010"><a xlink:title=" ">
<path fill="none" stroke="#63b8ff" d="M47.16,-24.87C56.8,-22.97 68.34,-20.69 79.38,-18.5"/>
<polygon fill="#63b8ff" stroke="#63b8ff" points="79.99,-21.95 89.12,-16.58 78.63,-15.08 79.99,-21.95"/>
</a>
</g>
</g>
<!-- Node3 -->
<g id="Node000003" class="node">
<title>Node3</title>
<g id="a_Node000003"><a xlink:href="../../d0/dce/classfl_1_1_x_y_map.html#aaeab9d4f2c66f6e681415479493578c2" target="_top" xlink:title=" ">
<polygon fill="white" stroke="#666666" points="323.25,-59.75 196.25,-59.75 196.25,-39 323.25,-39 323.25,-59.75"/>
<text text-anchor="middle" x="259.75" y="-46.25" font-family="Helvetica,sans-Serif" font-size="10.00">fl::XYMap::mapToIndex</text>
</a>
</g>
</g>
<!-- Node2&#45;&gt;Node3 -->
<g id="edge2_Node000002_Node000003" class="edge">
<title>Node2&#45;&gt;Node3</title>
<g id="a_edge2_Node000002_Node000003"><a xlink:title=" ">
<path fill="none" stroke="#63b8ff" d="M160.45,-49.38C168.03,-49.38 176.24,-49.38 184.56,-49.38"/>
<polygon fill="#63b8ff" stroke="#63b8ff" points="184.43,-52.88 194.43,-49.38 184.43,-45.88 184.43,-52.88"/>
</a>
</g>
</g>
<!-- Node6 -->
<g id="Node000006" class="node">
<title>Node6</title>
<g id="a_Node000006"><a xlink:href="../../db/d87/group___pixel_types.html#a5a3c3370a7de840ac31c07f6dc9bdb63" target="_top" xlink:title="Scale down a RGB to N/256ths of its current brightness, using &quot;plain math&quot; dimming rules.">
<polygon fill="white" stroke="#666666" points="303.38,-20.75 216.12,-20.75 216.12,0 303.38,0 303.38,-20.75"/>
<text text-anchor="middle" x="259.75" y="-7.25" font-family="Helvetica,sans-Serif" font-size="10.00">CRGB::nscale8</text>
</a>
</g>
</g>
<!-- Node2&#45;&gt;Node6 -->
<g id="edge5_Node000002_Node000006" class="edge">
<title>Node2&#45;&gt;Node6</title>
<g id="a_edge5_Node000002_Node000006"><a xlink:title=" ">
<path fill="none" stroke="#63b8ff" d="M160.45,-38.51C175.81,-34.12 193.72,-28.99 210.03,-24.32"/>
<polygon fill="#63b8ff" stroke="#63b8ff" points="210.89,-27.71 219.55,-21.6 208.97,-20.98 210.89,-27.71"/>
</a>
</g>
</g>
<!-- Node4 -->
<g id="Node000004" class="node">
<title>Node4</title>
<g id="a_Node000004"><a xlink:href="../../d4/d36/namespacefl.html#aabd143143924c6bddbe62e4b21688e76" target="_top" xlink:title=" ">
<polygon fill="white" stroke="#666666" points="463,-59.75 359.25,-59.75 359.25,-39 463,-39 463,-59.75"/>
<text text-anchor="middle" x="411.12" y="-46.25" font-family="Helvetica,sans-Serif" font-size="10.00">fl::xy_line_by_line</text>
</a>
</g>
</g>
<!-- Node3&#45;&gt;Node4 -->
<g id="edge3_Node000003_Node000004" class="edge">
<title>Node3&#45;&gt;Node4</title>
<g id="a_edge3_Node000003_Node000004"><a xlink:title=" ">
<path fill="none" stroke="#63b8ff" d="M323.67,-49.38C331.59,-49.38 339.7,-49.38 347.63,-49.38"/>
<polygon fill="#63b8ff" stroke="#63b8ff" points="347.54,-52.88 357.54,-49.38 347.54,-45.88 347.54,-52.88"/>
</a>
</g>
</g>
<!-- Node5 -->
<g id="Node000005" class="node">
<title>Node5</title>
<g id="a_Node000005"><a xlink:href="../../d4/d36/namespacefl.html#a44d29156c0decceaf2ff1970ddbdde7c" target="_top" xlink:title=" ">
<polygon fill="white" stroke="#666666" points="459.62,-98.75 362.62,-98.75 362.62,-78 459.62,-78 459.62,-98.75"/>
<text text-anchor="middle" x="411.12" y="-85.25" font-family="Helvetica,sans-Serif" font-size="10.00">fl::xy_serpentine</text>
</a>
</g>
</g>
<!-- Node3&#45;&gt;Node5 -->
<g id="edge4_Node000003_Node000005" class="edge">
<title>Node3&#45;&gt;Node5</title>
<g id="a_edge4_Node000003_Node000005"><a xlink:title=" ">
<path fill="none" stroke="#63b8ff" d="M302.36,-60.24C319.45,-64.7 339.43,-69.92 357.51,-74.64"/>
<polygon fill="#63b8ff" stroke="#63b8ff" points="356.46,-77.98 367.02,-77.12 358.22,-71.21 356.46,-77.98"/>
</a>
</g>
</g>
<!-- Node7 -->
<g id="Node000007" class="node">
<title>Node7</title>
<g id="a_Node000007"><a xlink:href="../../d0/da8/group___scaling.html#ga39bf87e5526120889086cab19ac749b1" target="_top" xlink:title="Scale three one&#45;byte values by a fourth one, which is treated as the numerator of a fraction whose de...">
<polygon fill="#fff0f0" stroke="red" points="443.88,-20.75 378.38,-20.75 378.38,0 443.88,0 443.88,-20.75"/>
<text text-anchor="middle" x="411.12" y="-7.25" font-family="Helvetica,sans-Serif" font-size="10.00">nscale8x3</text>
</a>
</g>
</g>
<!-- Node6&#45;&gt;Node7 -->
<g id="edge6_Node000006_Node000007" class="edge">
<title>Node6&#45;&gt;Node7</title>
<g id="a_edge6_Node000006_Node000007"><a xlink:title=" ">
<path fill="none" stroke="#63b8ff" d="M303.55,-10.38C323.45,-10.38 347.05,-10.38 366.98,-10.38"/>
<polygon fill="#63b8ff" stroke="#63b8ff" points="366.72,-13.88 376.72,-10.38 366.72,-6.88 366.72,-13.88"/>
</a>
</g>
</g>
<!-- Node10&#45;&gt;Node3 -->
<g id="edge8_Node000010_Node000003" class="edge">
<title>Node10&#45;&gt;Node3</title>
<g id="a_edge8_Node000010_Node000003"><a xlink:title=" ">
<path fill="none" stroke="#63b8ff" d="M152.4,-18.93C169.23,-23.75 190.66,-29.89 209.87,-35.38"/>
<polygon fill="#63b8ff" stroke="#63b8ff" points="208.84,-38.73 219.41,-38.12 210.76,-32 208.84,-38.73"/>
</a>
</g>
</g>
<!-- Node10&#45;&gt;Node6 -->
<g id="edge9_Node000010_Node000006" class="edge">
<title>Node10&#45;&gt;Node6</title>
<g id="a_edge9_Node000010_Node000006"><a xlink:title=" ">
<path fill="none" stroke="#63b8ff" d="M152.4,-10.38C167.63,-10.38 186.63,-10.38 204.34,-10.38"/>
<polygon fill="#63b8ff" stroke="#63b8ff" points="204.22,-13.88 214.22,-10.38 204.22,-6.88 204.22,-13.88"/>
</a>
</g>
</g>
</g>
</svg>
