<?xml version="1.0" encoding="UTF-8" standalone="no"?>
<!DOCTYPE svg PUBLIC "-//W3C//DTD SVG 1.1//EN"
 "http://www.w3.org/Graphics/SVG/1.1/DTD/svg11.dtd">
<!-- Generated by graphviz version 12.2.1 (20241206.2353)
 -->
<!-- Title: blurColumns Pages: 1 -->
<svg width="251pt" height="68pt"
 viewBox="0.00 0.00 251.00 67.75" xmlns="http://www.w3.org/2000/svg" xmlns:xlink="http://www.w3.org/1999/xlink">
<g id="graph0" class="graph" transform="scale(1 1) rotate(0) translate(4 63.75)">
<title>blurColumns</title>
<!-- Node1 -->
<g id="Node000001" class="node">
<title>Node1</title>
<g id="a_Node000001"><a xlink:title="Perform a blur1d() on every column of a rectangular matrix.">
<polygon fill="#999999" stroke="#666666" points="243,-39.75 165.5,-39.75 165.5,-19 243,-19 243,-39.75"/>
<text text-anchor="middle" x="204.25" y="-26.25" font-family="Helvetica,sans-Serif" font-size="10.00">blurColumns</text>
</a>
</g>
</g>
<!-- Node2 -->
<g id="Node000002" class="node">
<title>Node2</title>
<g id="a_Node000002"><a xlink:href="../../d5/d3d/group___color_blurs.html#gadfd6e9dc2b0c79922d8d4be9d94cf5f5" target="_top" xlink:title="Two&#45;dimensional blur filter.">
<polygon fill="white" stroke="#666666" points="129.5,-39.75 82.75,-39.75 82.75,-19 129.5,-19 129.5,-39.75"/>
<text text-anchor="middle" x="106.12" y="-26.25" font-family="Helvetica,sans-Serif" font-size="10.00">blur2d</text>
</a>
</g>
</g>
<!-- Node1&#45;&gt;Node2 -->
<g id="edge1_Node000001_Node000002" class="edge">
<title>Node1&#45;&gt;Node2</title>
<g id="a_edge1_Node000001_Node000002"><a xlink:title=" ">
<path fill="none" stroke="#63b8ff" d="M153.88,-29.38C145.49,-29.38 137.16,-29.38 129.9,-29.38"/>
<polygon fill="#63b8ff" stroke="#63b8ff" points="153.75,-32.88 163.75,-29.38 153.75,-25.88 153.75,-32.88"/>
</a>
</g>
</g>
<!-- Node3 -->
<g id="Node000003" class="node">
<title>Node3</title>
<g id="a_Node000003"><a xlink:href="../../da/d2d/colorutils_8cpp.html#ae97f9574ca4fa1a7ab65782b2a804fba" target="_top" xlink:title=" ">
<polygon fill="white" stroke="#666666" points="46.75,-59.75 0,-59.75 0,-39 46.75,-39 46.75,-59.75"/>
<text text-anchor="middle" x="23.38" y="-46.25" font-family="Helvetica,sans-Serif" font-size="10.00">blur2d</text>
</a>
</g>
</g>
<!-- Node2&#45;&gt;Node3 -->
<g id="edge2_Node000002_Node000003" class="edge">
<title>Node2&#45;&gt;Node3</title>
<g id="a_edge2_Node000002_Node000003"><a xlink:title=" ">
<path fill="none" stroke="#63b8ff" d="M71.69,-37.66C63.39,-39.71 54.68,-41.87 47.03,-43.76"/>
<polygon fill="#63b8ff" stroke="#63b8ff" points="72.3,-41.11 81.16,-35.31 70.61,-34.32 72.3,-41.11"/>
</a>
</g>
</g>
<!-- Node4 -->
<g id="Node000004" class="node">
<title>Node4</title>
<g id="a_Node000004"><a xlink:href="../../df/d42/_blur2d_8ino.html#afe461d27b9c48d5921c00d521181f12f" target="_top" xlink:title=" ">
<polygon fill="white" stroke="#666666" points="41.88,-20.75 4.88,-20.75 4.88,0 41.88,0 41.88,-20.75"/>
<text text-anchor="middle" x="23.38" y="-7.25" font-family="Helvetica,sans-Serif" font-size="10.00">loop</text>
</a>
</g>
</g>
<!-- Node2&#45;&gt;Node4 -->
<g id="edge3_Node000002_Node000004" class="edge">
<title>Node2&#45;&gt;Node4</title>
<g id="a_edge3_Node000002_Node000004"><a xlink:title=" ">
<path fill="none" stroke="#63b8ff" d="M71.61,-21.49C61.5,-19.11 50.8,-16.59 42.15,-14.56"/>
<polygon fill="#63b8ff" stroke="#63b8ff" points="70.62,-24.85 81.16,-23.74 72.23,-18.04 70.62,-24.85"/>
</a>
</g>
</g>
</g>
</svg>
