<?xml version="1.0" encoding="UTF-8" standalone="no"?>
<!DOCTYPE svg PUBLIC "-//W3C//DTD SVG 1.1//EN"
 "http://www.w3.org/Graphics/SVG/1.1/DTD/svg11.dtd">
<!-- Generated by graphviz version 12.2.1 (20241206.2353)
 -->
<!-- Title: blurColumns Pages: 1 -->
<svg width="571pt" height="126pt"
 viewBox="0.00 0.00 570.75 125.75" xmlns="http://www.w3.org/2000/svg" xmlns:xlink="http://www.w3.org/1999/xlink">
<g id="graph0" class="graph" transform="scale(1 1) rotate(0) translate(4 121.75)">
<title>blurColumns</title>
<!-- Node1 -->
<g id="Node000001" class="node">
<title>Node1</title>
<g id="a_Node000001"><a xlink:title="Perform a blur1d() on every column of a rectangular matrix.">
<polygon fill="#999999" stroke="#666666" points="77.5,-58.75 0,-58.75 0,-38 77.5,-38 77.5,-58.75"/>
<text text-anchor="middle" x="38.75" y="-45.25" font-family="Helvetica,sans-Serif" font-size="10.00">blurColumns</text>
</a>
</g>
</g>
<!-- Node2 -->
<g id="Node000002" class="node">
<title>Node2</title>
<g id="a_Node000002"><a xlink:href="../../d0/dce/classfl_1_1_x_y_map.html#aaeab9d4f2c66f6e681415479493578c2" target="_top" xlink:title=" ">
<polygon fill="white" stroke="#666666" points="240.5,-78.75 113.5,-78.75 113.5,-58 240.5,-58 240.5,-78.75"/>
<text text-anchor="middle" x="177" y="-65.25" font-family="Helvetica,sans-Serif" font-size="10.00">fl::XYMap::mapToIndex</text>
</a>
</g>
</g>
<!-- Node1&#45;&gt;Node2 -->
<g id="edge1_Node000001_Node000002" class="edge">
<title>Node1&#45;&gt;Node2</title>
<g id="a_edge1_Node000001_Node000002"><a xlink:title=" ">
<path fill="none" stroke="#63b8ff" d="M77.7,-53.95C85.28,-55.06 93.49,-56.26 101.81,-57.48"/>
<polygon fill="#63b8ff" stroke="#63b8ff" points="101.29,-60.95 111.69,-58.94 102.31,-54.02 101.29,-60.95"/>
</a>
</g>
</g>
<!-- Node5 -->
<g id="Node000005" class="node">
<title>Node5</title>
<g id="a_Node000005"><a xlink:href="../../db/d87/group___pixel_types.html#a5a3c3370a7de840ac31c07f6dc9bdb63" target="_top" xlink:title="Scale down a RGB to N/256ths of its current brightness, using &quot;plain math&quot; dimming rules.">
<polygon fill="white" stroke="#666666" points="220.62,-39.75 133.38,-39.75 133.38,-19 220.62,-19 220.62,-39.75"/>
<text text-anchor="middle" x="177" y="-26.25" font-family="Helvetica,sans-Serif" font-size="10.00">CRGB::nscale8</text>
</a>
</g>
</g>
<!-- Node1&#45;&gt;Node5 -->
<g id="edge4_Node000001_Node000005" class="edge">
<title>Node1&#45;&gt;Node5</title>
<g id="a_edge4_Node000001_Node000005"><a xlink:title=" ">
<path fill="none" stroke="#63b8ff" d="M77.7,-43.08C91.38,-41.17 107.09,-38.98 121.89,-36.92"/>
<polygon fill="#63b8ff" stroke="#63b8ff" points="122.05,-40.43 131.47,-35.58 121.08,-33.5 122.05,-40.43"/>
</a>
</g>
</g>
<!-- Node3 -->
<g id="Node000003" class="node">
<title>Node3</title>
<g id="a_Node000003"><a xlink:href="../../d4/d36/namespacefl.html#aabd143143924c6bddbe62e4b21688e76" target="_top" xlink:title=" ">
<polygon fill="white" stroke="#666666" points="380.25,-117.75 276.5,-117.75 276.5,-97 380.25,-97 380.25,-117.75"/>
<text text-anchor="middle" x="328.38" y="-104.25" font-family="Helvetica,sans-Serif" font-size="10.00">fl::xy_line_by_line</text>
</a>
</g>
</g>
<!-- Node2&#45;&gt;Node3 -->
<g id="edge2_Node000002_Node000003" class="edge">
<title>Node2&#45;&gt;Node3</title>
<g id="a_edge2_Node000002_Node000003"><a xlink:title=" ">
<path fill="none" stroke="#63b8ff" d="M219.61,-79.24C236.7,-83.7 256.68,-88.92 274.76,-93.64"/>
<polygon fill="#63b8ff" stroke="#63b8ff" points="273.71,-96.98 284.27,-96.12 275.47,-90.21 273.71,-96.98"/>
</a>
</g>
</g>
<!-- Node4 -->
<g id="Node000004" class="node">
<title>Node4</title>
<g id="a_Node000004"><a xlink:href="../../d4/d36/namespacefl.html#a44d29156c0decceaf2ff1970ddbdde7c" target="_top" xlink:title=" ">
<polygon fill="white" stroke="#666666" points="376.88,-78.75 279.88,-78.75 279.88,-58 376.88,-58 376.88,-78.75"/>
<text text-anchor="middle" x="328.38" y="-65.25" font-family="Helvetica,sans-Serif" font-size="10.00">fl::xy_serpentine</text>
</a>
</g>
</g>
<!-- Node2&#45;&gt;Node4 -->
<g id="edge3_Node000002_Node000004" class="edge">
<title>Node2&#45;&gt;Node4</title>
<g id="a_edge3_Node000002_Node000004"><a xlink:title=" ">
<path fill="none" stroke="#63b8ff" d="M240.92,-68.38C249.9,-68.38 259.11,-68.38 268.02,-68.38"/>
<polygon fill="#63b8ff" stroke="#63b8ff" points="268,-71.88 278,-68.38 268,-64.88 268,-71.88"/>
</a>
</g>
</g>
<!-- Node6 -->
<g id="Node000006" class="node">
<title>Node6</title>
<g id="a_Node000006"><a xlink:href="../../d0/da8/group___scaling.html#ga39bf87e5526120889086cab19ac749b1" target="_top" xlink:title="Scale three one&#45;byte values by a fourth one, which is treated as the numerator of a fraction whose de...">
<polygon fill="white" stroke="#666666" points="361.12,-39.75 295.62,-39.75 295.62,-19 361.12,-19 361.12,-39.75"/>
<text text-anchor="middle" x="328.38" y="-26.25" font-family="Helvetica,sans-Serif" font-size="10.00">nscale8x3</text>
</a>
</g>
</g>
<!-- Node5&#45;&gt;Node6 -->
<g id="edge5_Node000005_Node000006" class="edge">
<title>Node5&#45;&gt;Node6</title>
<g id="a_edge5_Node000005_Node000006"><a xlink:title=" ">
<path fill="none" stroke="#63b8ff" d="M220.8,-29.38C240.7,-29.38 264.3,-29.38 284.23,-29.38"/>
<polygon fill="#63b8ff" stroke="#63b8ff" points="283.97,-32.88 293.97,-29.38 283.97,-25.88 283.97,-32.88"/>
</a>
</g>
</g>
<!-- Node7 -->
<g id="Node000007" class="node">
<title>Node7</title>
<g id="a_Node000007"><a xlink:href="../../d0/da5/group___scaling_dirty.html#ga3fade00fb4cf5b937b973128198a7a79" target="_top" xlink:title="Clean up the r1 register after a series of *LEAVING_R1_DIRTY calls.">
<polygon fill="white" stroke="#666666" points="525.62,-59.75 453.38,-59.75 453.38,-39 525.62,-39 525.62,-59.75"/>
<text text-anchor="middle" x="489.5" y="-46.25" font-family="Helvetica,sans-Serif" font-size="10.00">cleanup_R1</text>
</a>
</g>
</g>
<!-- Node6&#45;&gt;Node7 -->
<g id="edge6_Node000006_Node000007" class="edge">
<title>Node6&#45;&gt;Node7</title>
<g id="a_edge6_Node000006_Node000007"><a xlink:title=" ">
<path fill="none" stroke="#63b8ff" d="M361.58,-33.42C384.57,-36.31 415.87,-40.25 441.63,-43.48"/>
<polygon fill="#63b8ff" stroke="#63b8ff" points="441.16,-46.95 451.52,-44.73 442.04,-40.01 441.16,-46.95"/>
</a>
</g>
</g>
<!-- Node8 -->
<g id="Node000008" class="node">
<title>Node8</title>
<g id="a_Node000008"><a xlink:href="../../d0/da5/group___scaling_dirty.html#ga7386235cada3aca429b189681d2ec56d" target="_top" xlink:title="This version of scale8() does not clean up the R1 register on AVR.">
<polygon fill="white" stroke="#666666" points="562.75,-20.75 416.25,-20.75 416.25,0 562.75,0 562.75,-20.75"/>
<text text-anchor="middle" x="489.5" y="-7.25" font-family="Helvetica,sans-Serif" font-size="10.00">scale8_LEAVING_R1_DIRTY</text>
</a>
</g>
</g>
<!-- Node6&#45;&gt;Node8 -->
<g id="edge7_Node000006_Node000008" class="edge">
<title>Node6&#45;&gt;Node8</title>
<g id="a_edge7_Node000006_Node000008"><a xlink:title=" ">
<path fill="none" stroke="#63b8ff" d="M361.58,-25.53C374.22,-24.02 389.37,-22.21 404.73,-20.38"/>
<polygon fill="#63b8ff" stroke="#63b8ff" points="404.9,-23.88 414.42,-19.22 404.07,-16.93 404.9,-23.88"/>
</a>
</g>
</g>
</g>
</svg>
