<?xml version="1.0" encoding="UTF-8" standalone="no"?>
<!DOCTYPE svg PUBLIC "-//W3C//DTD SVG 1.1//EN"
 "http://www.w3.org/Graphics/SVG/1.1/DTD/svg11.dtd">
<!-- Generated by graphviz version 12.2.1 (20241206.2353)
 -->
<!-- Title: fl::Singleton::instanceRef Pages: 1 -->
<svg width="303pt" height="47pt"
 viewBox="0.00 0.00 302.50 46.75" xmlns="http://www.w3.org/2000/svg" xmlns:xlink="http://www.w3.org/1999/xlink">
<g id="graph0" class="graph" transform="scale(1 1) rotate(0) translate(4 42.75)">
<title>fl::Singleton::instanceRef</title>
<!-- Node1 -->
<g id="Node000001" class="node">
<title>Node1</title>
<g id="a_Node000001"><a xlink:title=" ">
<polygon fill="#999999" stroke="#666666" points="137.5,-20.75 0,-20.75 0,0 137.5,0 137.5,-20.75"/>
<text text-anchor="middle" x="68.75" y="-7.25" font-family="Helvetica,sans-Serif" font-size="10.00">fl::Singleton::instanceRef</text>
</a>
</g>
</g>
<!-- Node2 -->
<g id="Node000002" class="node">
<title>Node2</title>
<g id="a_Node000002"><a xlink:href="../../d9/d5b/classfl_1_1_singleton.html#a7e65fe8dee6b2a23a8b6138fa2c274cb" target="_top" xlink:title=" ">
<polygon fill="white" stroke="#666666" points="294.5,-20.75 173.5,-20.75 173.5,0 294.5,0 294.5,-20.75"/>
<text text-anchor="middle" x="234" y="-7.25" font-family="Helvetica,sans-Serif" font-size="10.00">fl::Singleton::instance</text>
</a>
</g>
</g>
<!-- Node1&#45;&gt;Node2 -->
<g id="edge1_Node000001_Node000002" class="edge">
<title>Node1&#45;&gt;Node2</title>
<g id="a_edge1_Node000001_Node000002"><a xlink:title=" ">
<path fill="none" stroke="#63b8ff" d="M137.56,-10.38C145.6,-10.38 153.83,-10.38 161.91,-10.38"/>
<polygon fill="#63b8ff" stroke="#63b8ff" points="161.69,-13.88 171.69,-10.38 161.69,-6.88 161.69,-13.88"/>
</a>
</g>
</g>
<!-- Node2&#45;&gt;Node2 -->
<g id="edge2_Node000002_Node000002" class="edge">
<title>Node2&#45;&gt;Node2</title>
<g id="a_edge2_Node000002_Node000002"><a xlink:title=" ">
<path fill="none" stroke="#63b8ff" d="M207.37,-21.15C196.72,-29.81 205.6,-38.75 234,-38.75 249.53,-38.75 259.23,-36.08 263.08,-32.24"/>
<polygon fill="#63b8ff" stroke="#63b8ff" points="266.53,-31.63 260.95,-22.63 259.69,-33.14 266.53,-31.63"/>
</a>
</g>
</g>
</g>
</svg>
