<?xml version="1.0" encoding="UTF-8" standalone="no"?>
<!DOCTYPE svg PUBLIC "-//W3C//DTD SVG 1.1//EN"
 "http://www.w3.org/Graphics/SVG/1.1/DTD/svg11.dtd">
<!-- Generated by graphviz version 12.2.1 (20241206.2353)
 -->
<!-- Title: fl::Singleton::instance Pages: 1 -->
<svg width="737pt" height="456pt"
 viewBox="0.00 0.00 737.25 455.50" xmlns="http://www.w3.org/2000/svg" xmlns:xlink="http://www.w3.org/1999/xlink">
<g id="graph0" class="graph" transform="scale(1 1) rotate(0) translate(4 451.5)">
<title>fl::Singleton::instance</title>
<!-- Node1 -->
<g id="Node000001" class="node">
<title>Node1</title>
<g id="a_Node000001"><a xlink:title=" ">
<polygon fill="#999999" stroke="#666666" points="729.25,-227.12 608.25,-227.12 608.25,-206.38 729.25,-206.38 729.25,-227.12"/>
<text text-anchor="middle" x="668.75" y="-213.62" font-family="Helvetica,sans-Serif" font-size="10.00">fl::Singleton::instance</text>
</a>
</g>
</g>
<!-- Node1&#45;&gt;Node1 -->
<g id="edge20_Node000001_Node000001" class="edge">
<title>Node1&#45;&gt;Node1</title>
<g id="a_edge20_Node000001_Node000001"><a xlink:title=" ">
<path fill="none" stroke="#63b8ff" d="M699.54,-238.61C695.46,-242.45 685.2,-245.12 668.75,-245.12 638.67,-245.12 629.27,-236.18 640.55,-227.52"/>
<polygon fill="#63b8ff" stroke="#63b8ff" points="702.98,-237.94 697.29,-229 696.16,-239.53 702.98,-237.94"/>
</a>
</g>
</g>
<!-- Node2 -->
<g id="Node000002" class="node">
<title>Node2</title>
<g id="a_Node000002"><a xlink:href="../../de/dca/classfl_1_1_engine_events.html#a34a4625c4fbcf754f70820bc4f0e418b" target="_top" xlink:title=" ">
<polygon fill="white" stroke="#666666" points="572.25,-247.12 415.25,-247.12 415.25,-226.38 572.25,-226.38 572.25,-247.12"/>
<text text-anchor="middle" x="493.75" y="-233.62" font-family="Helvetica,sans-Serif" font-size="10.00">fl::EngineEvents::getInstance</text>
</a>
</g>
</g>
<!-- Node1&#45;&gt;Node2 -->
<g id="edge1_Node000001_Node000002" class="edge">
<title>Node1&#45;&gt;Node2</title>
<g id="a_edge1_Node000001_Node000002"><a xlink:title=" ">
<path fill="none" stroke="#63b8ff" d="M597.04,-224.92C589.03,-225.85 580.83,-226.8 572.73,-227.74"/>
<polygon fill="#63b8ff" stroke="#63b8ff" points="597.18,-228.43 606.71,-223.81 596.37,-221.48 597.18,-228.43"/>
</a>
</g>
</g>
<!-- Node38 -->
<g id="Node000038" class="node">
<title>Node38</title>
<g id="a_Node000038"><a xlink:href="../../d9/d5b/classfl_1_1_singleton.html#a49a566d80175a2bb489b18927d97bc68" target="_top" xlink:title=" ">
<polygon fill="white" stroke="#666666" points="562.5,-208.12 425,-208.12 425,-187.38 562.5,-187.38 562.5,-208.12"/>
<text text-anchor="middle" x="493.75" y="-194.62" font-family="Helvetica,sans-Serif" font-size="10.00">fl::Singleton::instanceRef</text>
</a>
</g>
</g>
<!-- Node1&#45;&gt;Node38 -->
<g id="edge21_Node000001_Node000038" class="edge">
<title>Node1&#45;&gt;Node38</title>
<g id="a_edge21_Node000001_Node000038"><a xlink:title=" ">
<path fill="none" stroke="#63b8ff" d="M597.03,-208.98C585.7,-207.74 573.99,-206.45 562.72,-205.21"/>
<polygon fill="#63b8ff" stroke="#63b8ff" points="596.39,-212.43 606.71,-210.05 597.15,-205.48 596.39,-212.43"/>
</a>
</g>
</g>
<!-- Node3 -->
<g id="Node000003" class="node">
<title>Node3</title>
<g id="a_Node000003"><a xlink:href="../../db/da2/classfl_1_1_engine_events_1_1_listener.html#a02910c2cce73f7d39e39a6db29bb9ba4" target="_top" xlink:title=" ">
<polygon fill="white" stroke="#666666" points="359.38,-447.5 220.38,-447.5 220.38,-414 359.38,-414 359.38,-447.5"/>
<text text-anchor="start" x="228.38" y="-434" font-family="Helvetica,sans-Serif" font-size="10.00">fl::EngineEvents::Listener</text>
<text text-anchor="middle" x="289.88" y="-421.25" font-family="Helvetica,sans-Serif" font-size="10.00">::~Listener</text>
</a>
</g>
</g>
<!-- Node2&#45;&gt;Node3 -->
<g id="edge2_Node000002_Node000003" class="edge">
<title>Node2&#45;&gt;Node3</title>
<g id="a_edge2_Node000002_Node000003"><a xlink:title=" ">
<path fill="none" stroke="#63b8ff" d="M484.23,-257.87C468.75,-293.57 432.6,-365.74 379.25,-404.75 373.31,-409.09 366.65,-412.71 359.73,-415.73"/>
<polygon fill="#63b8ff" stroke="#63b8ff" points="487.45,-259.24 488.1,-248.66 481,-256.53 487.45,-259.24"/>
</a>
</g>
</g>
<!-- Node4 -->
<g id="Node000004" class="node">
<title>Node4</title>
<g id="a_Node000004"><a xlink:href="../../de/dca/classfl_1_1_engine_events.html#a0ec4bb952e2d965c309f69af153ce8d3" target="_top" xlink:title=" ">
<polygon fill="white" stroke="#666666" points="368.38,-396.12 211.38,-396.12 211.38,-375.38 368.38,-375.38 368.38,-396.12"/>
<text text-anchor="middle" x="289.88" y="-382.62" font-family="Helvetica,sans-Serif" font-size="10.00">fl::EngineEvents::addListener</text>
</a>
</g>
</g>
<!-- Node2&#45;&gt;Node4 -->
<g id="edge3_Node000002_Node000004" class="edge">
<title>Node2&#45;&gt;Node4</title>
<g id="a_edge3_Node000002_Node000004"><a xlink:title=" ">
<path fill="none" stroke="#63b8ff" d="M480.86,-256.9C462.74,-285.75 425.39,-338.35 379.25,-365.75 373.03,-369.44 366.19,-372.46 359.16,-374.91"/>
<polygon fill="#63b8ff" stroke="#63b8ff" points="483.62,-259.09 485.86,-248.73 477.65,-255.44 483.62,-259.09"/>
</a>
</g>
</g>
<!-- Node6 -->
<g id="Node000006" class="node">
<title>Node6</title>
<g id="a_Node000006"><a xlink:href="../../de/dca/classfl_1_1_engine_events.html#a9277949e9a6953aeae1ba54218d9f638" target="_top" xlink:title=" ">
<polygon fill="white" stroke="#666666" points="368,-357.12 211.75,-357.12 211.75,-336.38 368,-336.38 368,-357.12"/>
<text text-anchor="middle" x="289.88" y="-343.62" font-family="Helvetica,sans-Serif" font-size="10.00">fl::EngineEvents::hasListener</text>
</a>
</g>
</g>
<!-- Node2&#45;&gt;Node6 -->
<g id="edge5_Node000002_Node000006" class="edge">
<title>Node2&#45;&gt;Node6</title>
<g id="a_edge5_Node000002_Node000006"><a xlink:title=" ">
<path fill="none" stroke="#63b8ff" d="M474.99,-255.49C454.09,-276.38 417.37,-309.63 379.25,-327.75 372.45,-330.98 365.09,-333.67 357.62,-335.91"/>
<polygon fill="#63b8ff" stroke="#63b8ff" points="477.39,-258.04 481.88,-248.45 472.39,-253.15 477.39,-258.04"/>
</a>
</g>
</g>
<!-- Node7 -->
<g id="Node000007" class="node">
<title>Node7</title>
<g id="a_Node000007"><a xlink:href="../../de/dca/classfl_1_1_engine_events.html#a7147debfba714b8ab0925af1a7c935c0" target="_top" xlink:title=" ">
<polygon fill="white" stroke="#666666" points="359.75,-318.5 220,-318.5 220,-285 359.75,-285 359.75,-318.5"/>
<text text-anchor="start" x="228" y="-305" font-family="Helvetica,sans-Serif" font-size="10.00">fl::EngineEvents::onBegin</text>
<text text-anchor="middle" x="289.88" y="-292.25" font-family="Helvetica,sans-Serif" font-size="10.00">Frame</text>
</a>
</g>
</g>
<!-- Node2&#45;&gt;Node7 -->
<g id="edge6_Node000002_Node000007" class="edge">
<title>Node2&#45;&gt;Node7</title>
<g id="a_edge6_Node000002_Node000007"><a xlink:title=" ">
<path fill="none" stroke="#63b8ff" d="M451.8,-251.32C430.28,-258.85 403.42,-268.04 379.25,-275.75 369.95,-278.71 360.07,-281.74 350.41,-284.63"/>
<polygon fill="#63b8ff" stroke="#63b8ff" points="452.82,-254.67 461.1,-248.05 450.5,-248.06 452.82,-254.67"/>
</a>
</g>
</g>
<!-- Node22 -->
<g id="Node000022" class="node">
<title>Node22</title>
<g id="a_Node000022"><a xlink:href="../../de/dca/classfl_1_1_engine_events.html#aeb85848268614982b022006bd41a2726" target="_top" xlink:title=" ">
<polygon fill="white" stroke="#666666" points="363.88,-189.5 215.88,-189.5 215.88,-156 363.88,-156 363.88,-189.5"/>
<text text-anchor="start" x="223.88" y="-176" font-family="Helvetica,sans-Serif" font-size="10.00">fl::EngineEvents::onCanvas</text>
<text text-anchor="middle" x="289.88" y="-163.25" font-family="Helvetica,sans-Serif" font-size="10.00">UiSet</text>
</a>
</g>
</g>
<!-- Node2&#45;&gt;Node22 -->
<g id="edge8_Node000002_Node000022" class="edge">
<title>Node2&#45;&gt;Node22</title>
<g id="a_edge8_Node000002_Node000022"><a xlink:title=" ">
<path fill="none" stroke="#63b8ff" d="M433.27,-222.78C427.13,-220.92 421.03,-218.91 415.25,-216.75 398.5,-210.48 395.9,-205.3 379.25,-198.75 371.21,-195.59 362.64,-192.6 354.1,-189.86"/>
<polygon fill="#63b8ff" stroke="#63b8ff" points="432.27,-226.13 442.85,-225.51 434.2,-219.4 432.27,-226.13"/>
</a>
</g>
</g>
<!-- Node27 -->
<g id="Node000027" class="node">
<title>Node27</title>
<g id="a_Node000027"><a xlink:href="../../de/dca/classfl_1_1_engine_events.html#ab7d24c4783214392de84947cd7df5570" target="_top" xlink:title=" ">
<polygon fill="white" stroke="#666666" points="370.25,-267.12 209.5,-267.12 209.5,-246.38 370.25,-246.38 370.25,-267.12"/>
<text text-anchor="middle" x="289.88" y="-253.62" font-family="Helvetica,sans-Serif" font-size="10.00">fl::EngineEvents::onEndFrame</text>
</a>
</g>
</g>
<!-- Node2&#45;&gt;Node27 -->
<g id="edge11_Node000002_Node000027" class="edge">
<title>Node2&#45;&gt;Node27</title>
<g id="a_edge11_Node000002_Node000027"><a xlink:title=" ">
<path fill="none" stroke="#63b8ff" d="M403.62,-245.58C392.63,-246.67 381.44,-247.78 370.6,-248.85"/>
<polygon fill="#63b8ff" stroke="#63b8ff" points="403.88,-249.07 413.48,-244.6 403.19,-242.11 403.88,-249.07"/>
</a>
</g>
</g>
<!-- Node28 -->
<g id="Node000028" class="node">
<title>Node28</title>
<g id="a_Node000028"><a xlink:href="../../de/dca/classfl_1_1_engine_events.html#af1bb9a46fdc6694a1b5c87a49c516ae8" target="_top" xlink:title=" ">
<polygon fill="white" stroke="#666666" points="379.25,-228.12 200.5,-228.12 200.5,-207.38 379.25,-207.38 379.25,-228.12"/>
<text text-anchor="middle" x="289.88" y="-214.62" font-family="Helvetica,sans-Serif" font-size="10.00">fl::EngineEvents::onEndShowLeds</text>
</a>
</g>
</g>
<!-- Node2&#45;&gt;Node28 -->
<g id="edge13_Node000002_Node000028" class="edge">
<title>Node2&#45;&gt;Node28</title>
<g id="a_edge13_Node000002_Node000028"><a xlink:title=" ">
<path fill="none" stroke="#63b8ff" d="M403.78,-228.38C395.79,-227.62 387.69,-226.86 379.7,-226.11"/>
<polygon fill="#63b8ff" stroke="#63b8ff" points="403.2,-231.84 413.48,-229.29 403.85,-224.87 403.2,-231.84"/>
</a>
</g>
</g>
<!-- Node29 -->
<g id="Node000029" class="node">
<title>Node29</title>
<g id="a_Node000029"><a xlink:href="../../de/dca/classfl_1_1_engine_events.html#ad1c574b09857b0ebe90798cc83223b17" target="_top" xlink:title=" ">
<polygon fill="white" stroke="#666666" points="366.88,-137.5 212.88,-137.5 212.88,-104 366.88,-104 366.88,-137.5"/>
<text text-anchor="start" x="220.88" y="-124" font-family="Helvetica,sans-Serif" font-size="10.00">fl::EngineEvents::onPlatform</text>
<text text-anchor="middle" x="289.88" y="-111.25" font-family="Helvetica,sans-Serif" font-size="10.00">PreLoop</text>
</a>
</g>
</g>
<!-- Node2&#45;&gt;Node29 -->
<g id="edge15_Node000002_Node000029" class="edge">
<title>Node2&#45;&gt;Node29</title>
<g id="a_edge15_Node000002_Node000029"><a xlink:title=" ">
<path fill="none" stroke="#63b8ff" d="M420.74,-220.66C418.84,-219.45 417,-218.15 415.25,-216.75 387.92,-194.91 406.21,-169.04 379.25,-146.75 375.18,-143.39 370.7,-140.46 365.96,-137.91"/>
<polygon fill="#63b8ff" stroke="#63b8ff" points="418.96,-223.68 429.43,-225.29 422.25,-217.5 418.96,-223.68"/>
</a>
</g>
</g>
<!-- Node30 -->
<g id="Node000030" class="node">
<title>Node30</title>
<g id="a_Node000030"><a xlink:href="../../de/dca/classfl_1_1_engine_events.html#a8ec266f9f7b35b9174d331cb6c338d80" target="_top" xlink:title=" ">
<polygon fill="white" stroke="#666666" points="357.12,-85.5 222.62,-85.5 222.62,-52 357.12,-52 357.12,-85.5"/>
<text text-anchor="start" x="230.62" y="-72" font-family="Helvetica,sans-Serif" font-size="10.00">fl::EngineEvents::onStrip</text>
<text text-anchor="middle" x="289.88" y="-59.25" font-family="Helvetica,sans-Serif" font-size="10.00">Added</text>
</a>
</g>
</g>
<!-- Node2&#45;&gt;Node30 -->
<g id="edge16_Node000002_Node000030" class="edge">
<title>Node2&#45;&gt;Node30</title>
<g id="a_edge16_Node000002_Node000030"><a xlink:title=" ">
<path fill="none" stroke="#63b8ff" d="M418.59,-219.69C417.43,-218.76 416.32,-217.78 415.25,-216.75 374.59,-177.47 419.24,-134.71 379.25,-94.75 373.03,-88.53 365.4,-83.79 357.26,-80.17"/>
<polygon fill="#63b8ff" stroke="#63b8ff" points="416.57,-222.56 426.86,-225.1 420.4,-216.7 416.57,-222.56"/>
</a>
</g>
</g>
<!-- Node36 -->
<g id="Node000036" class="node">
<title>Node36</title>
<g id="a_Node000036"><a xlink:href="../../de/dca/classfl_1_1_engine_events.html#a34cf730bad7c6b5192b4747676f20881" target="_top" xlink:title=" ">
<polygon fill="white" stroke="#666666" points="358.62,-33.5 221.12,-33.5 221.12,0 358.62,0 358.62,-33.5"/>
<text text-anchor="start" x="229.12" y="-20" font-family="Helvetica,sans-Serif" font-size="10.00">fl::EngineEvents::remove</text>
<text text-anchor="middle" x="289.88" y="-7.25" font-family="Helvetica,sans-Serif" font-size="10.00">Listener</text>
</a>
</g>
</g>
<!-- Node2&#45;&gt;Node36 -->
<g id="edge18_Node000002_Node000036" class="edge">
<title>Node2&#45;&gt;Node36</title>
<g id="a_edge18_Node000002_Node000036"><a xlink:title=" ">
<path fill="none" stroke="#63b8ff" d="M418.02,-219.42C417.06,-218.57 416.14,-217.68 415.25,-216.75 360.78,-159.57 432.75,-100.84 379.25,-42.75 373.62,-36.63 366.62,-31.93 359.06,-28.31"/>
<polygon fill="#63b8ff" stroke="#63b8ff" points="416,-222.28 426.19,-225.18 420.03,-216.56 416,-222.28"/>
</a>
</g>
</g>
<!-- Node5 -->
<g id="Node000005" class="node">
<title>Node5</title>
<g id="a_Node000005"><a xlink:href="../../dd/dbb/class_c_fast_l_e_d.html#ac965b166635b9aca0c165a53eb0a474f" target="_top" xlink:title=" ">
<polygon fill="white" stroke="#666666" points="144.25,-396.12 20.25,-396.12 20.25,-375.38 144.25,-375.38 144.25,-396.12"/>
<text text-anchor="middle" x="82.25" y="-382.62" font-family="Helvetica,sans-Serif" font-size="10.00">CFastLED::addListener</text>
</a>
</g>
</g>
<!-- Node4&#45;&gt;Node5 -->
<g id="edge4_Node000004_Node000005" class="edge">
<title>Node4&#45;&gt;Node5</title>
<g id="a_edge4_Node000004_Node000005"><a xlink:title=" ">
<path fill="none" stroke="#63b8ff" d="M199.64,-385.75C181.01,-385.75 161.77,-385.75 144.44,-385.75"/>
<polygon fill="#63b8ff" stroke="#63b8ff" points="199.62,-389.25 209.62,-385.75 199.62,-382.25 199.62,-389.25"/>
</a>
</g>
</g>
<!-- Node8 -->
<g id="Node000008" class="node">
<title>Node8</title>
<g id="a_Node000008"><a xlink:href="../../dd/dbb/class_c_fast_l_e_d.html#a83afdd1e2a21f33ac4f8d2610d6e331b" target="_top" xlink:title="Update all our controllers with the current led colors, using the passed in brightness.">
<polygon fill="#fff0f0" stroke="red" points="128.5,-267.12 36,-267.12 36,-246.38 128.5,-246.38 128.5,-267.12"/>
<text text-anchor="middle" x="82.25" y="-253.62" font-family="Helvetica,sans-Serif" font-size="10.00">CFastLED::show</text>
</a>
</g>
</g>
<!-- Node7&#45;&gt;Node8 -->
<g id="edge7_Node000007_Node000008" class="edge">
<title>Node7&#45;&gt;Node8</title>
<g id="a_edge7_Node000007_Node000008"><a xlink:title=" ">
<path fill="none" stroke="#63b8ff" d="M208.49,-284.16C181.4,-278.23 152.13,-271.82 128.7,-266.7"/>
<polygon fill="#63b8ff" stroke="#63b8ff" points="207.55,-287.54 218.07,-286.25 209.05,-280.7 207.55,-287.54"/>
</a>
</g>
</g>
<!-- Node23 -->
<g id="Node000023" class="node">
<title>Node23</title>
<g id="a_Node000023"><a xlink:href="../../d6/d2c/class_c_l_e_d_controller.html#af4d07297bf10f59dfec9e613cc7fff71" target="_top" xlink:title=" ">
<polygon fill="white" stroke="#666666" points="164.5,-202.12 0,-202.12 0,-181.38 164.5,-181.38 164.5,-202.12"/>
<text text-anchor="middle" x="82.25" y="-188.62" font-family="Helvetica,sans-Serif" font-size="10.00">CLEDController::setScreenMap</text>
</a>
</g>
</g>
<!-- Node22&#45;&gt;Node23 -->
<g id="edge9_Node000022_Node000023" class="edge">
<title>Node22&#45;&gt;Node23</title>
<g id="a_edge9_Node000022_Node000023"><a xlink:title=" ">
<path fill="none" stroke="#63b8ff" d="M204.23,-180.57C191.26,-181.77 177.88,-183.01 164.97,-184.2"/>
<polygon fill="#63b8ff" stroke="#63b8ff" points="204.37,-184.07 214,-179.67 203.72,-177.1 204.37,-184.07"/>
</a>
</g>
</g>
<!-- Node24 -->
<g id="Node000024" class="node">
<title>Node24</title>
<g id="a_Node000024"><a xlink:href="../../d6/d2c/class_c_l_e_d_controller.html#a34a490a6be2f618ffe6ed7d60be5590a" target="_top" xlink:title=" ">
<polygon fill="#fff0f0" stroke="red" points="164.5,-163.12 0,-163.12 0,-142.38 164.5,-142.38 164.5,-163.12"/>
<text text-anchor="middle" x="82.25" y="-149.62" font-family="Helvetica,sans-Serif" font-size="10.00">CLEDController::setScreenMap</text>
</a>
</g>
</g>
<!-- Node22&#45;&gt;Node24 -->
<g id="edge10_Node000022_Node000024" class="edge">
<title>Node22&#45;&gt;Node24</title>
<g id="a_edge10_Node000022_Node000024"><a xlink:title=" ">
<path fill="none" stroke="#63b8ff" d="M204.23,-164.52C191.26,-163.26 177.88,-161.95 164.97,-160.7"/>
<polygon fill="#63b8ff" stroke="#63b8ff" points="203.71,-167.98 214,-165.47 204.39,-161.02 203.71,-167.98"/>
</a>
</g>
</g>
<!-- Node27&#45;&gt;Node8 -->
<g id="edge12_Node000027_Node000008" class="edge">
<title>Node27&#45;&gt;Node8</title>
<g id="a_edge12_Node000027_Node000008"><a xlink:title=" ">
<path fill="none" stroke="#63b8ff" d="M197.82,-256.75C173.93,-256.75 149.18,-256.75 128.82,-256.75"/>
<polygon fill="#63b8ff" stroke="#63b8ff" points="197.57,-260.25 207.57,-256.75 197.57,-253.25 197.57,-260.25"/>
</a>
</g>
</g>
<!-- Node28&#45;&gt;Node8 -->
<g id="edge14_Node000028_Node000008" class="edge">
<title>Node28&#45;&gt;Node8</title>
<g id="a_edge14_Node000028_Node000008"><a xlink:title=" ">
<path fill="none" stroke="#63b8ff" d="M220.31,-230.76C190.21,-236.46 155.7,-243.01 128.84,-248.1"/>
<polygon fill="#63b8ff" stroke="#63b8ff" points="220.94,-234.2 230.11,-228.9 219.63,-227.32 220.94,-234.2"/>
</a>
</g>
</g>
<!-- Node31 -->
<g id="Node000031" class="node">
<title>Node31</title>
<g id="a_Node000031"><a xlink:href="../../dd/dbb/class_c_fast_l_e_d.html#afd7928d822589740af6e23b2d510cf3f" target="_top" xlink:title="Add a CLEDController instance to the world.">
<polygon fill="#fff0f0" stroke="red" points="136,-79.12 28.5,-79.12 28.5,-58.38 136,-58.38 136,-79.12"/>
<text text-anchor="middle" x="82.25" y="-65.62" font-family="Helvetica,sans-Serif" font-size="10.00">CFastLED::addLeds</text>
</a>
</g>
</g>
<!-- Node30&#45;&gt;Node31 -->
<g id="edge17_Node000030_Node000031" class="edge">
<title>Node30&#45;&gt;Node31</title>
<g id="a_edge17_Node000030_Node000031"><a xlink:title=" ">
<path fill="none" stroke="#63b8ff" d="M211.13,-68.75C186.22,-68.75 159.23,-68.75 136.49,-68.75"/>
<polygon fill="#63b8ff" stroke="#63b8ff" points="210.88,-72.25 220.88,-68.75 210.88,-65.25 210.88,-72.25"/>
</a>
</g>
</g>
<!-- Node37 -->
<g id="Node000037" class="node">
<title>Node37</title>
<g id="a_Node000037"><a xlink:href="../../dd/dbb/class_c_fast_l_e_d.html#a54515910a8a244f2a9d4617d27a256ee" target="_top" xlink:title=" ">
<polygon fill="white" stroke="#666666" points="154,-27.12 10.5,-27.12 10.5,-6.38 154,-6.38 154,-27.12"/>
<text text-anchor="middle" x="82.25" y="-13.62" font-family="Helvetica,sans-Serif" font-size="10.00">CFastLED::removeListener</text>
</a>
</g>
</g>
<!-- Node36&#45;&gt;Node37 -->
<g id="edge19_Node000036_Node000037" class="edge">
<title>Node36&#45;&gt;Node37</title>
<g id="a_edge19_Node000036_Node000037"><a xlink:title=" ">
<path fill="none" stroke="#63b8ff" d="M209.29,-16.75C191.21,-16.75 172.12,-16.75 154.42,-16.75"/>
<polygon fill="#63b8ff" stroke="#63b8ff" points="209.18,-20.25 219.18,-16.75 209.18,-13.25 209.18,-20.25"/>
</a>
</g>
</g>
</g>
</svg>
