<?xml version="1.0" encoding="UTF-8" standalone="no"?>
<!DOCTYPE svg PUBLIC "-//W3C//DTD SVG 1.1//EN"
 "http://www.w3.org/Graphics/SVG/1.1/DTD/svg11.dtd">
<!-- Generated by graphviz version 12.2.1 (20241206.2353)
 -->
<!-- Title: /home/runner/work/FastLED/FastLED/src/scoped_ptr.h Pages: 1 -->
<svg width="174pt" height="155pt"
 viewBox="0.00 0.00 173.88 155.00" xmlns="http://www.w3.org/2000/svg" xmlns:xlink="http://www.w3.org/1999/xlink">
<g id="graph0" class="graph" transform="scale(1 1) rotate(0) translate(4 151)">
<title>/home/runner/work/FastLED/FastLED/src/scoped_ptr.h</title>
<!-- Node1 -->
<g id="Node000001" class="node">
<title>Node1</title>
<g id="a_Node000001"><a xlink:title=" ">
<polygon fill="#999999" stroke="#666666" points="149.5,-147 0,-147 0,-113.5 149.5,-113.5 149.5,-147"/>
<text text-anchor="start" x="8" y="-133.5" font-family="Helvetica,sans-Serif" font-size="10.00">/home/runner/work/FastLED</text>
<text text-anchor="middle" x="74.75" y="-120.75" font-family="Helvetica,sans-Serif" font-size="10.00">/FastLED/src/scoped_ptr.h</text>
</a>
</g>
</g>
<!-- Node2 -->
<g id="Node000002" class="node">
<title>Node2</title>
<g id="a_Node000002"><a xlink:href="../../df/d28/fl_2scoped__ptr_8h.html" target="_top" xlink:title=" ">
<polygon fill="white" stroke="#666666" points="118,-77.5 31.5,-77.5 31.5,-56.75 118,-56.75 118,-77.5"/>
<text text-anchor="middle" x="74.75" y="-64" font-family="Helvetica,sans-Serif" font-size="10.00">fl/scoped_ptr.h</text>
</a>
</g>
</g>
<!-- Node1&#45;&gt;Node2 -->
<g id="edge1_Node000001_Node000002" class="edge">
<title>Node1&#45;&gt;Node2</title>
<g id="a_edge1_Node000001_Node000002"><a xlink:title=" ">
<path fill="none" stroke="#63b8ff" d="M74.75,-113.19C74.75,-105.85 74.75,-97.07 74.75,-89.21"/>
<polygon fill="#63b8ff" stroke="#63b8ff" points="78.25,-89.48 74.75,-79.48 71.25,-89.48 78.25,-89.48"/>
</a>
</g>
</g>
<!-- Node3 -->
<g id="Node000003" class="node">
<title>Node3</title>
<g id="a_Node000003"><a xlink:title=" ">
<polygon fill="#e0e0e0" stroke="#999999" points="57.25,-20.75 2.25,-20.75 2.25,0 57.25,0 57.25,-20.75"/>
<text text-anchor="middle" x="29.75" y="-7.25" font-family="Helvetica,sans-Serif" font-size="10.00">stddef.h</text>
</a>
</g>
</g>
<!-- Node2&#45;&gt;Node3 -->
<g id="edge2_Node000002_Node000003" class="edge">
<title>Node2&#45;&gt;Node3</title>
<g id="a_edge2_Node000002_Node000003"><a xlink:title=" ">
<path fill="none" stroke="#63b8ff" d="M66.7,-56.34C60.69,-49.02 52.28,-38.79 45.01,-29.94"/>
<polygon fill="#63b8ff" stroke="#63b8ff" points="47.74,-27.75 38.69,-22.25 42.33,-32.2 47.74,-27.75"/>
</a>
</g>
</g>
<!-- Node4 -->
<g id="Node000004" class="node">
<title>Node4</title>
<g id="a_Node000004"><a xlink:href="../../df/d2a/namespace_8h.html" target="_top" xlink:title="Implements the FastLED namespace macros.">
<polygon fill="white" stroke="#666666" points="165.88,-20.75 75.62,-20.75 75.62,0 165.88,0 165.88,-20.75"/>
<text text-anchor="middle" x="120.75" y="-7.25" font-family="Helvetica,sans-Serif" font-size="10.00">fl/namespace.h</text>
</a>
</g>
</g>
<!-- Node2&#45;&gt;Node4 -->
<g id="edge3_Node000002_Node000004" class="edge">
<title>Node2&#45;&gt;Node4</title>
<g id="a_edge3_Node000002_Node000004"><a xlink:title=" ">
<path fill="none" stroke="#63b8ff" d="M82.97,-56.34C89.19,-48.94 97.9,-38.57 105.39,-29.66"/>
<polygon fill="#63b8ff" stroke="#63b8ff" points="107.87,-32.15 111.62,-22.24 102.51,-27.64 107.87,-32.15"/>
</a>
</g>
</g>
</g>
</svg>
