<?xml version="1.0" encoding="UTF-8" standalone="no"?>
<!DOCTYPE svg PUBLIC "-//W3C//DTD SVG 1.1//EN"
 "http://www.w3.org/Graphics/SVG/1.1/DTD/svg11.dtd">
<!-- Generated by graphviz version 12.2.1 (20241206.2353)
 -->
<!-- Title: /home/runner/work/FastLED/FastLED/examples/LuminescentGrand/shared/color.h Pages: 1 -->
<svg width="1293pt" height="301pt"
 viewBox="0.00 0.00 1292.75 301.00" xmlns="http://www.w3.org/2000/svg" xmlns:xlink="http://www.w3.org/1999/xlink">
<g id="graph0" class="graph" transform="scale(1 1) rotate(0) translate(4 297)">
<title>/home/runner/work/FastLED/FastLED/examples/LuminescentGrand/shared/color.h</title>
<!-- Node1 -->
<g id="Node000001" class="node">
<title>Node1</title>
<g id="a_Node000001"><a xlink:title=" ">
<polygon fill="#999999" stroke="#666666" points="694.75,-293 492,-293 492,-246.75 694.75,-246.75 694.75,-293"/>
<text text-anchor="start" x="500" y="-279.5" font-family="Helvetica,sans-Serif" font-size="10.00">/home/runner/work/FastLED</text>
<text text-anchor="start" x="500" y="-266.75" font-family="Helvetica,sans-Serif" font-size="10.00">/FastLED/examples/LuminescentGrand</text>
<text text-anchor="middle" x="593.38" y="-254" font-family="Helvetica,sans-Serif" font-size="10.00">/shared/color.h</text>
</a>
</g>
</g>
<!-- Node2 -->
<g id="Node000002" class="node">
<title>Node2</title>
<g id="a_Node000002"><a xlink:href="../../d6/dc9/_led_rope_t_c_l_8cpp.html" target="_top" xlink:title=" ">
<polygon fill="white" stroke="#666666" points="202.75,-46.25 0,-46.25 0,0 202.75,0 202.75,-46.25"/>
<text text-anchor="start" x="8" y="-32.75" font-family="Helvetica,sans-Serif" font-size="10.00">/home/runner/work/FastLED</text>
<text text-anchor="start" x="8" y="-20" font-family="Helvetica,sans-Serif" font-size="10.00">/FastLED/examples/LuminescentGrand</text>
<text text-anchor="middle" x="101.38" y="-7.25" font-family="Helvetica,sans-Serif" font-size="10.00">/arduino/LedRopeTCL.cpp</text>
</a>
</g>
</g>
<!-- Node1&#45;&gt;Node2 -->
<g id="edge1_Node000001_Node000002" class="edge">
<title>Node1&#45;&gt;Node2</title>
<g id="a_edge1_Node000001_Node000002"><a xlink:title=" ">
<path fill="none" stroke="#63b8ff" d="M480.41,-261.79C363.37,-253.21 189.12,-236.61 127.38,-210.75 73.02,-187.99 49.05,-181.54 23.38,-128.5 14.42,-110 14.15,-100.62 23.38,-82.25 30.72,-67.61 43.7,-55.72 56.99,-46.6"/>
<polygon fill="#63b8ff" stroke="#63b8ff" points="479.81,-265.25 490.04,-262.48 480.32,-258.27 479.81,-265.25"/>
</a>
</g>
</g>
<!-- Node3 -->
<g id="Node000003" class="node">
<title>Node3</title>
<g id="a_Node000003"><a xlink:href="../../d9/d7e/_led_rope_t_c_l_8h.html" target="_top" xlink:title=" ">
<polygon fill="white" stroke="#666666" points="234.75,-128.5 32,-128.5 32,-82.25 234.75,-82.25 234.75,-128.5"/>
<text text-anchor="start" x="40" y="-115" font-family="Helvetica,sans-Serif" font-size="10.00">/home/runner/work/FastLED</text>
<text text-anchor="start" x="40" y="-102.25" font-family="Helvetica,sans-Serif" font-size="10.00">/FastLED/examples/LuminescentGrand</text>
<text text-anchor="middle" x="133.38" y="-89.5" font-family="Helvetica,sans-Serif" font-size="10.00">/arduino/LedRopeTCL.h</text>
</a>
</g>
</g>
<!-- Node1&#45;&gt;Node3 -->
<g id="edge2_Node000001_Node000003" class="edge">
<title>Node1&#45;&gt;Node3</title>
<g id="a_edge2_Node000001_Node000003"><a xlink:title=" ">
<path fill="none" stroke="#63b8ff" d="M480.28,-268.65C365.41,-265.93 198.11,-254.3 152.38,-210.75 130.37,-189.79 128.83,-152.49 130.53,-128.62"/>
<polygon fill="#63b8ff" stroke="#63b8ff" points="479.98,-272.14 490.06,-268.86 480.13,-265.14 479.98,-272.14"/>
</a>
</g>
</g>
<!-- Node4 -->
<g id="Node000004" class="node">
<title>Node4</title>
<g id="a_Node000004"><a xlink:href="../../df/d85/_keyboard_8h.html" target="_top" xlink:title=" ">
<polygon fill="white" stroke="#666666" points="584.75,-210.75 382,-210.75 382,-164.5 584.75,-164.5 584.75,-210.75"/>
<text text-anchor="start" x="390" y="-197.25" font-family="Helvetica,sans-Serif" font-size="10.00">/home/runner/work/FastLED</text>
<text text-anchor="start" x="390" y="-184.5" font-family="Helvetica,sans-Serif" font-size="10.00">/FastLED/examples/LuminescentGrand</text>
<text text-anchor="middle" x="483.38" y="-171.75" font-family="Helvetica,sans-Serif" font-size="10.00">/shared/Keyboard.h</text>
</a>
</g>
</g>
<!-- Node1&#45;&gt;Node4 -->
<g id="edge4_Node000001_Node000004" class="edge">
<title>Node1&#45;&gt;Node4</title>
<g id="a_edge4_Node000001_Node000004"><a xlink:title=" ">
<path fill="none" stroke="#63b8ff" d="M553.28,-239.62C540.34,-230.19 526.22,-219.88 514.08,-211.02"/>
<polygon fill="#63b8ff" stroke="#63b8ff" points="551.08,-242.35 561.22,-245.42 555.2,-236.69 551.08,-242.35"/>
</a>
</g>
</g>
<!-- Node8 -->
<g id="Node000008" class="node">
<title>Node8</title>
<g id="a_Node000008"><a xlink:href="../../d3/d03/color_8cpp.html" target="_top" xlink:title=" ">
<polygon fill="white" stroke="#666666" points="1063.75,-210.75 861,-210.75 861,-164.5 1063.75,-164.5 1063.75,-210.75"/>
<text text-anchor="start" x="869" y="-197.25" font-family="Helvetica,sans-Serif" font-size="10.00">/home/runner/work/FastLED</text>
<text text-anchor="start" x="869" y="-184.5" font-family="Helvetica,sans-Serif" font-size="10.00">/FastLED/examples/LuminescentGrand</text>
<text text-anchor="middle" x="962.38" y="-171.75" font-family="Helvetica,sans-Serif" font-size="10.00">/shared/color.cpp</text>
</a>
</g>
</g>
<!-- Node1&#45;&gt;Node8 -->
<g id="edge9_Node000001_Node000008" class="edge">
<title>Node1&#45;&gt;Node8</title>
<g id="a_edge9_Node000001_Node000008"><a xlink:title=" ">
<path fill="none" stroke="#63b8ff" d="M706.2,-244.34C755.42,-233.63 812.69,-221.18 860.58,-210.76"/>
<polygon fill="#63b8ff" stroke="#63b8ff" points="705.69,-240.87 696.66,-246.41 707.18,-247.71 705.69,-240.87"/>
</a>
</g>
</g>
<!-- Node9 -->
<g id="Node000009" class="node">
<title>Node9</title>
<g id="a_Node000009"><a xlink:href="../../d4/df0/color__mapper_8cpp.html" target="_top" xlink:title=" ">
<polygon fill="white" stroke="#666666" points="934.75,-128.5 732,-128.5 732,-82.25 934.75,-82.25 934.75,-128.5"/>
<text text-anchor="start" x="740" y="-115" font-family="Helvetica,sans-Serif" font-size="10.00">/home/runner/work/FastLED</text>
<text text-anchor="start" x="740" y="-102.25" font-family="Helvetica,sans-Serif" font-size="10.00">/FastLED/examples/LuminescentGrand</text>
<text text-anchor="middle" x="833.38" y="-89.5" font-family="Helvetica,sans-Serif" font-size="10.00">/shared/color_mapper.cpp</text>
</a>
</g>
</g>
<!-- Node1&#45;&gt;Node9 -->
<g id="edge10_Node000001_Node000009" class="edge">
<title>Node1&#45;&gt;Node9</title>
<g id="a_edge10_Node000001_Node000009"><a xlink:title=" ">
<path fill="none" stroke="#63b8ff" d="M706.24,-250.7C752.5,-240.98 798.84,-227.53 814.38,-210.75 834.77,-188.72 836.9,-152.43 835.75,-128.97"/>
<polygon fill="#63b8ff" stroke="#63b8ff" points="705.71,-247.24 696.61,-252.66 707.11,-254.1 705.71,-247.24"/>
</a>
</g>
</g>
<!-- Node10 -->
<g id="Node000010" class="node">
<title>Node10</title>
<g id="a_Node000010"><a xlink:href="../../d0/d4f/color__mapper_8h.html" target="_top" xlink:title=" ">
<polygon fill="white" stroke="#666666" points="805.75,-210.75 603,-210.75 603,-164.5 805.75,-164.5 805.75,-210.75"/>
<text text-anchor="start" x="611" y="-197.25" font-family="Helvetica,sans-Serif" font-size="10.00">/home/runner/work/FastLED</text>
<text text-anchor="start" x="611" y="-184.5" font-family="Helvetica,sans-Serif" font-size="10.00">/FastLED/examples/LuminescentGrand</text>
<text text-anchor="middle" x="704.38" y="-171.75" font-family="Helvetica,sans-Serif" font-size="10.00">/shared/color_mapper.h</text>
</a>
</g>
</g>
<!-- Node1&#45;&gt;Node10 -->
<g id="edge11_Node000001_Node000010" class="edge">
<title>Node1&#45;&gt;Node10</title>
<g id="a_edge11_Node000001_Node000010"><a xlink:title=" ">
<path fill="none" stroke="#63b8ff" d="M633.84,-239.62C646.89,-230.19 661.14,-219.88 673.39,-211.02"/>
<polygon fill="#63b8ff" stroke="#63b8ff" points="631.87,-236.73 625.82,-245.42 635.97,-242.4 631.87,-236.73"/>
</a>
</g>
</g>
<!-- Node11 -->
<g id="Node000011" class="node">
<title>Node11</title>
<g id="a_Node000011"><a xlink:href="../../d3/dd6/framebuffer_8cpp.html" target="_top" xlink:title=" ">
<polygon fill="white" stroke="#666666" points="1284.75,-210.75 1082,-210.75 1082,-164.5 1284.75,-164.5 1284.75,-210.75"/>
<text text-anchor="start" x="1090" y="-197.25" font-family="Helvetica,sans-Serif" font-size="10.00">/home/runner/work/FastLED</text>
<text text-anchor="start" x="1090" y="-184.5" font-family="Helvetica,sans-Serif" font-size="10.00">/FastLED/examples/LuminescentGrand</text>
<text text-anchor="middle" x="1183.38" y="-171.75" font-family="Helvetica,sans-Serif" font-size="10.00">/shared/framebuffer.cpp</text>
</a>
</g>
</g>
<!-- Node1&#45;&gt;Node11 -->
<g id="edge14_Node000001_Node000011" class="edge">
<title>Node1&#45;&gt;Node11</title>
<g id="a_edge14_Node000001_Node000011"><a xlink:title=" ">
<path fill="none" stroke="#63b8ff" d="M706.41,-257.61C803.69,-247.33 947.66,-230.72 1072.38,-210.75 1075.38,-210.27 1078.43,-209.76 1081.51,-209.24"/>
<polygon fill="#63b8ff" stroke="#63b8ff" points="706.16,-254.11 696.58,-258.64 706.89,-261.08 706.16,-254.11"/>
</a>
</g>
</g>
<!-- Node12 -->
<g id="Node000012" class="node">
<title>Node12</title>
<g id="a_Node000012"><a xlink:href="../../db/d19/led__rope__interface_8h.html" target="_top" xlink:title=" ">
<polygon fill="white" stroke="#666666" points="363.75,-210.75 161,-210.75 161,-164.5 363.75,-164.5 363.75,-210.75"/>
<text text-anchor="start" x="169" y="-197.25" font-family="Helvetica,sans-Serif" font-size="10.00">/home/runner/work/FastLED</text>
<text text-anchor="start" x="169" y="-184.5" font-family="Helvetica,sans-Serif" font-size="10.00">/FastLED/examples/LuminescentGrand</text>
<text text-anchor="middle" x="262.38" y="-171.75" font-family="Helvetica,sans-Serif" font-size="10.00">/shared/led_rope_interface.h</text>
</a>
</g>
</g>
<!-- Node1&#45;&gt;Node12 -->
<g id="edge15_Node000001_Node000012" class="edge">
<title>Node1&#45;&gt;Node12</title>
<g id="a_edge15_Node000001_Node000012"><a xlink:title=" ">
<path fill="none" stroke="#63b8ff" d="M489.26,-243.63C446.45,-233.25 397.24,-221.32 355.62,-211.23"/>
<polygon fill="#63b8ff" stroke="#63b8ff" points="488.28,-247 498.82,-245.95 489.93,-240.19 488.28,-247"/>
</a>
</g>
</g>
<!-- Node3&#45;&gt;Node2 -->
<g id="edge3_Node000003_Node000002" class="edge">
<title>Node3&#45;&gt;Node2</title>
<g id="a_edge3_Node000003_Node000002"><a xlink:title=" ">
<path fill="none" stroke="#63b8ff" d="M120.24,-71.43C116.91,-63.09 113.42,-54.33 110.35,-46.64"/>
<polygon fill="#63b8ff" stroke="#63b8ff" points="116.95,-72.62 123.9,-80.62 123.45,-70.03 116.95,-72.62"/>
</a>
</g>
</g>
<!-- Node5 -->
<g id="Node000005" class="node">
<title>Node5</title>
<g id="a_Node000005"><a xlink:href="../../d9/d5c/_keyboard_8cpp.html" target="_top" xlink:title=" ">
<polygon fill="white" stroke="#666666" points="713.75,-128.5 511,-128.5 511,-82.25 713.75,-82.25 713.75,-128.5"/>
<text text-anchor="start" x="519" y="-115" font-family="Helvetica,sans-Serif" font-size="10.00">/home/runner/work/FastLED</text>
<text text-anchor="start" x="519" y="-102.25" font-family="Helvetica,sans-Serif" font-size="10.00">/FastLED/examples/LuminescentGrand</text>
<text text-anchor="middle" x="612.38" y="-89.5" font-family="Helvetica,sans-Serif" font-size="10.00">/shared/Keyboard.cpp</text>
</a>
</g>
</g>
<!-- Node4&#45;&gt;Node5 -->
<g id="edge5_Node000004_Node000005" class="edge">
<title>Node4&#45;&gt;Node5</title>
<g id="a_edge5_Node000004_Node000005"><a xlink:title=" ">
<path fill="none" stroke="#63b8ff" d="M529.08,-158.2C544.6,-148.54 561.71,-137.89 576.37,-128.77"/>
<polygon fill="#63b8ff" stroke="#63b8ff" points="527.58,-155 520.94,-163.26 531.28,-160.95 527.58,-155"/>
</a>
</g>
</g>
<!-- Node6 -->
<g id="Node000006" class="node">
<title>Node6</title>
<g id="a_Node000006"><a xlink:href="../../db/d33/_painter_8cpp.html" target="_top" xlink:title=" ">
<polygon fill="white" stroke="#666666" points="487.75,-46.25 285,-46.25 285,0 487.75,0 487.75,-46.25"/>
<text text-anchor="start" x="293" y="-32.75" font-family="Helvetica,sans-Serif" font-size="10.00">/home/runner/work/FastLED</text>
<text text-anchor="start" x="293" y="-20" font-family="Helvetica,sans-Serif" font-size="10.00">/FastLED/examples/LuminescentGrand</text>
<text text-anchor="middle" x="386.38" y="-7.25" font-family="Helvetica,sans-Serif" font-size="10.00">/shared/Painter.cpp</text>
</a>
</g>
</g>
<!-- Node4&#45;&gt;Node6 -->
<g id="edge6_Node000004_Node000006" class="edge">
<title>Node4&#45;&gt;Node6</title>
<g id="a_edge6_Node000004_Node000006"><a xlink:title=" ">
<path fill="none" stroke="#63b8ff" d="M483.44,-152.88C482.05,-131.25 477.48,-103.38 464.38,-82.25 455.47,-67.9 441.62,-55.89 428.05,-46.58"/>
<polygon fill="#63b8ff" stroke="#63b8ff" points="479.93,-152.81 483.85,-162.65 486.93,-152.51 479.93,-152.81"/>
</a>
</g>
</g>
<!-- Node7 -->
<g id="Node000007" class="node">
<title>Node7</title>
<g id="a_Node000007"><a xlink:href="../../dc/db0/_painter_8h.html" target="_top" xlink:title=" ">
<polygon fill="white" stroke="#666666" points="455.75,-128.5 253,-128.5 253,-82.25 455.75,-82.25 455.75,-128.5"/>
<text text-anchor="start" x="261" y="-115" font-family="Helvetica,sans-Serif" font-size="10.00">/home/runner/work/FastLED</text>
<text text-anchor="start" x="261" y="-102.25" font-family="Helvetica,sans-Serif" font-size="10.00">/FastLED/examples/LuminescentGrand</text>
<text text-anchor="middle" x="354.38" y="-89.5" font-family="Helvetica,sans-Serif" font-size="10.00">/shared/Painter.h</text>
</a>
</g>
</g>
<!-- Node4&#45;&gt;Node7 -->
<g id="edge7_Node000004_Node000007" class="edge">
<title>Node4&#45;&gt;Node7</title>
<g id="a_edge7_Node000004_Node000007"><a xlink:title=" ">
<path fill="none" stroke="#63b8ff" d="M437.67,-158.2C422.15,-148.54 405.04,-137.89 390.38,-128.77"/>
<polygon fill="#63b8ff" stroke="#63b8ff" points="435.47,-160.95 445.81,-163.26 439.17,-155 435.47,-160.95"/>
</a>
</g>
</g>
<!-- Node7&#45;&gt;Node6 -->
<g id="edge8_Node000007_Node000006" class="edge">
<title>Node7&#45;&gt;Node6</title>
<g id="a_edge8_Node000007_Node000006"><a xlink:title=" ">
<path fill="none" stroke="#63b8ff" d="M367.51,-71.43C370.84,-63.09 374.33,-54.33 377.4,-46.64"/>
<polygon fill="#63b8ff" stroke="#63b8ff" points="364.3,-70.03 363.85,-80.62 370.8,-72.62 364.3,-70.03"/>
</a>
</g>
</g>
<!-- Node10&#45;&gt;Node5 -->
<g id="edge12_Node000010_Node000005" class="edge">
<title>Node10&#45;&gt;Node5</title>
<g id="a_edge12_Node000010_Node000005"><a xlink:title=" ">
<path fill="none" stroke="#63b8ff" d="M670.13,-156.75C659.55,-147.53 648.09,-137.53 638.18,-128.89"/>
<polygon fill="#63b8ff" stroke="#63b8ff" points="667.77,-159.34 677.61,-163.28 672.37,-154.06 667.77,-159.34"/>
</a>
</g>
</g>
<!-- Node10&#45;&gt;Node9 -->
<g id="edge13_Node000010_Node000009" class="edge">
<title>Node10&#45;&gt;Node9</title>
<g id="a_edge13_Node000010_Node000009"><a xlink:title=" ">
<path fill="none" stroke="#63b8ff" d="M750.08,-158.2C765.6,-148.54 782.71,-137.89 797.37,-128.77"/>
<polygon fill="#63b8ff" stroke="#63b8ff" points="748.58,-155 741.94,-163.26 752.28,-160.95 748.58,-155"/>
</a>
</g>
</g>
<!-- Node12&#45;&gt;Node3 -->
<g id="edge16_Node000012_Node000003" class="edge">
<title>Node12&#45;&gt;Node3</title>
<g id="a_edge16_Node000012_Node000003"><a xlink:title=" ">
<path fill="none" stroke="#63b8ff" d="M216.67,-158.2C201.15,-148.54 184.04,-137.89 169.38,-128.77"/>
<polygon fill="#63b8ff" stroke="#63b8ff" points="214.47,-160.95 224.81,-163.26 218.17,-155 214.47,-160.95"/>
</a>
</g>
</g>
<!-- Node12&#45;&gt;Node7 -->
<g id="edge17_Node000012_Node000007" class="edge">
<title>Node12&#45;&gt;Node7</title>
<g id="a_edge17_Node000012_Node000007"><a xlink:title=" ">
<path fill="none" stroke="#63b8ff" d="M296.62,-156.75C307.2,-147.53 318.66,-137.53 328.57,-128.89"/>
<polygon fill="#63b8ff" stroke="#63b8ff" points="294.38,-154.06 289.14,-163.28 298.98,-159.34 294.38,-154.06"/>
</a>
</g>
</g>
</g>
</svg>
