<?xml version="1.0" encoding="UTF-8" standalone="no"?>
<!DOCTYPE svg PUBLIC "-//W3C//DTD SVG 1.1//EN"
 "http://www.w3.org/Graphics/SVG/1.1/DTD/svg11.dtd">
<!-- Generated by graphviz version 12.2.1 (20241206.2353)
 -->
<!-- Title: fl::Ptr::isOwned Pages: 1 -->
<svg width="231pt" height="263pt"
 viewBox="0.00 0.00 230.50 262.75" xmlns="http://www.w3.org/2000/svg" xmlns:xlink="http://www.w3.org/1999/xlink">
<g id="graph0" class="graph" transform="scale(1 1) rotate(0) translate(4 258.75)">
<title>fl::Ptr::isOwned</title>
<!-- Node1 -->
<g id="Node000001" class="node">
<title>Node1</title>
<g id="a_Node000001"><a xlink:title=" ">
<polygon fill="#999999" stroke="#666666" points="222.5,-137.75 133,-137.75 133,-117 222.5,-117 222.5,-137.75"/>
<text text-anchor="middle" x="177.75" y="-124.25" font-family="Helvetica,sans-Serif" font-size="10.00">fl::Ptr::isOwned</text>
</a>
</g>
</g>
<!-- Node2 -->
<g id="Node000002" class="node">
<title>Node2</title>
<g id="a_Node000002"><a xlink:href="../../d1/d56/classfl_1_1_ptr.html#a8d9a8dbd1a6cf7b4801c396b8e802e1d" target="_top" xlink:title=" ">
<polygon fill="white" stroke="#666666" points="79,-254.75 18,-254.75 18,-234 79,-234 79,-254.75"/>
<text text-anchor="middle" x="48.5" y="-241.25" font-family="Helvetica,sans-Serif" font-size="10.00">fl::Ptr::Ptr</text>
</a>
</g>
</g>
<!-- Node1&#45;&gt;Node2 -->
<g id="edge1_Node000001_Node000002" class="edge">
<title>Node1&#45;&gt;Node2</title>
<g id="a_edge1_Node000001_Node000002"><a xlink:title=" ">
<path fill="none" stroke="#63b8ff" d="M164.4,-147.62C150.37,-169.15 125.69,-202.99 97,-224.38 91.69,-228.33 85.48,-231.67 79.34,-234.42"/>
<polygon fill="#63b8ff" stroke="#63b8ff" points="167.19,-149.75 169.58,-139.43 161.28,-146 167.19,-149.75"/>
</a>
</g>
</g>
<!-- Node3 -->
<g id="Node000003" class="node">
<title>Node3</title>
<g id="a_Node000003"><a xlink:href="../../d1/d56/classfl_1_1_ptr.html#a5eadeb0f9f825544e0280cd8c6d48539" target="_top" xlink:title=" ">
<polygon fill="white" stroke="#666666" points="79,-215.75 18,-215.75 18,-195 79,-195 79,-215.75"/>
<text text-anchor="middle" x="48.5" y="-202.25" font-family="Helvetica,sans-Serif" font-size="10.00">fl::Ptr::Ptr</text>
</a>
</g>
</g>
<!-- Node1&#45;&gt;Node3 -->
<g id="edge2_Node000001_Node000003" class="edge">
<title>Node1&#45;&gt;Node3</title>
<g id="a_edge2_Node000001_Node000003"><a xlink:title=" ">
<path fill="none" stroke="#63b8ff" d="M155.03,-145.29C139.5,-157.56 117.74,-173.67 97,-185.38 91.08,-188.72 84.48,-191.84 78.14,-194.57"/>
<polygon fill="#63b8ff" stroke="#63b8ff" points="157.05,-148.15 162.66,-139.16 152.67,-142.69 157.05,-148.15"/>
</a>
</g>
</g>
<!-- Node4 -->
<g id="Node000004" class="node">
<title>Node4</title>
<g id="a_Node000004"><a xlink:href="../../d1/d56/classfl_1_1_ptr.html#ad52092bbae081bea2d011453368d47c1" target="_top" xlink:title=" ">
<polygon fill="white" stroke="#666666" points="83.12,-176.75 13.88,-176.75 13.88,-156 83.12,-156 83.12,-176.75"/>
<text text-anchor="middle" x="48.5" y="-163.25" font-family="Helvetica,sans-Serif" font-size="10.00">fl::Ptr::~Ptr</text>
</a>
</g>
</g>
<!-- Node1&#45;&gt;Node4 -->
<g id="edge3_Node000001_Node000004" class="edge">
<title>Node1&#45;&gt;Node4</title>
<g id="a_edge3_Node000001_Node000004"><a xlink:title=" ">
<path fill="none" stroke="#63b8ff" d="M130.33,-141.6C114.81,-146.36 97.82,-151.56 83.44,-155.97"/>
<polygon fill="#63b8ff" stroke="#63b8ff" points="131.32,-144.96 139.86,-138.68 129.27,-138.27 131.32,-144.96"/>
</a>
</g>
</g>
<!-- Node5 -->
<g id="Node000005" class="node">
<title>Node5</title>
<g id="a_Node000005"><a xlink:href="../../d1/d56/classfl_1_1_ptr.html#aa7535e1aa9e2824848c15a63bde6d6be" target="_top" xlink:title=" ">
<polygon fill="white" stroke="#666666" points="97,-137.75 0,-137.75 0,-117 97,-117 97,-137.75"/>
<text text-anchor="middle" x="48.5" y="-124.25" font-family="Helvetica,sans-Serif" font-size="10.00">fl::Ptr::operator=</text>
</a>
</g>
</g>
<!-- Node1&#45;&gt;Node5 -->
<g id="edge4_Node000001_Node000005" class="edge">
<title>Node1&#45;&gt;Node5</title>
<g id="a_edge4_Node000001_Node000005"><a xlink:title=" ">
<path fill="none" stroke="#63b8ff" d="M121.2,-127.38C113.3,-127.38 105.22,-127.38 97.48,-127.38"/>
<polygon fill="#63b8ff" stroke="#63b8ff" points="121.09,-130.88 131.09,-127.38 121.09,-123.88 121.09,-130.88"/>
</a>
</g>
</g>
<!-- Node6 -->
<g id="Node000006" class="node">
<title>Node6</title>
<g id="a_Node000006"><a xlink:href="../../d1/d56/classfl_1_1_ptr.html#a387db388c8c46dbee9bb8b8312f56c88" target="_top" xlink:title=" ">
<polygon fill="white" stroke="#666666" points="97,-98.75 0,-98.75 0,-78 97,-78 97,-98.75"/>
<text text-anchor="middle" x="48.5" y="-85.25" font-family="Helvetica,sans-Serif" font-size="10.00">fl::Ptr::operator=</text>
</a>
</g>
</g>
<!-- Node1&#45;&gt;Node6 -->
<g id="edge5_Node000001_Node000006" class="edge">
<title>Node1&#45;&gt;Node6</title>
<g id="a_edge5_Node000001_Node000006"><a xlink:title=" ">
<path fill="none" stroke="#63b8ff" d="M130.6,-113.23C115.48,-108.6 98.94,-103.53 84.76,-99.18"/>
<polygon fill="#63b8ff" stroke="#63b8ff" points="129.27,-116.48 139.86,-116.07 131.32,-109.79 129.27,-116.48"/>
</a>
</g>
</g>
<!-- Node7 -->
<g id="Node000007" class="node">
<title>Node7</title>
<g id="a_Node000007"><a xlink:href="../../d1/d56/classfl_1_1_ptr.html#a0095f0a1d85ef9eeaea769ae0f27828c" target="_top" xlink:title=" ">
<polygon fill="white" stroke="#666666" points="84.62,-59.75 12.38,-59.75 12.38,-39 84.62,-39 84.62,-59.75"/>
<text text-anchor="middle" x="48.5" y="-46.25" font-family="Helvetica,sans-Serif" font-size="10.00">fl::Ptr::reset</text>
</a>
</g>
</g>
<!-- Node1&#45;&gt;Node7 -->
<g id="edge6_Node000001_Node000007" class="edge">
<title>Node1&#45;&gt;Node7</title>
<g id="a_edge6_Node000001_Node000007"><a xlink:title=" ">
<path fill="none" stroke="#63b8ff" d="M155.03,-109.46C139.5,-97.19 117.74,-81.08 97,-69.38 91.08,-66.03 84.48,-62.91 78.14,-60.18"/>
<polygon fill="#63b8ff" stroke="#63b8ff" points="152.67,-112.06 162.66,-115.59 157.05,-106.6 152.67,-112.06"/>
</a>
</g>
</g>
<!-- Node8 -->
<g id="Node000008" class="node">
<title>Node8</title>
<g id="a_Node000008"><a xlink:href="../../d1/d56/classfl_1_1_ptr.html#a1400b2b6296198c993964acec7d3f860" target="_top" xlink:title=" ">
<polygon fill="white" stroke="#666666" points="84.62,-20.75 12.38,-20.75 12.38,0 84.62,0 84.62,-20.75"/>
<text text-anchor="middle" x="48.5" y="-7.25" font-family="Helvetica,sans-Serif" font-size="10.00">fl::Ptr::reset</text>
</a>
</g>
</g>
<!-- Node1&#45;&gt;Node8 -->
<g id="edge7_Node000001_Node000008" class="edge">
<title>Node1&#45;&gt;Node8</title>
<g id="a_edge7_Node000001_Node000008"><a xlink:title=" ">
<path fill="none" stroke="#63b8ff" d="M164.4,-107.13C150.37,-85.6 125.69,-51.76 97,-30.38 92.27,-26.85 86.81,-23.81 81.33,-21.24"/>
<polygon fill="#63b8ff" stroke="#63b8ff" points="161.28,-108.75 169.58,-115.32 167.19,-105 161.28,-108.75"/>
</a>
</g>
</g>
</g>
</svg>
