<?xml version="1.0" encoding="UTF-8" standalone="no"?>
<!DOCTYPE svg PUBLIC "-//W3C//DTD SVG 1.1//EN"
 "http://www.w3.org/Graphics/SVG/1.1/DTD/svg11.dtd">
<!-- Generated by graphviz version 12.2.1 (20241206.2353)
 -->
<!-- Title: blink Pages: 1 -->
<svg width="584pt" height="486pt"
 viewBox="0.00 0.00 584.25 485.75" xmlns="http://www.w3.org/2000/svg" xmlns:xlink="http://www.w3.org/1999/xlink">
<g id="graph0" class="graph" transform="scale(1 1) rotate(0) translate(4 481.75)">
<title>blink</title>
<!-- Node1 -->
<g id="Node000001" class="node">
<title>Node1</title>
<g id="a_Node000001"><a xlink:title=" ">
<polygon fill="#999999" stroke="#666666" points="40,-284.75 0,-284.75 0,-264 40,-264 40,-284.75"/>
<text text-anchor="middle" x="20" y="-271.25" font-family="Helvetica,sans-Serif" font-size="10.00">blink</text>
</a>
</g>
</g>
<!-- Node2 -->
<g id="Node000002" class="node">
<title>Node2</title>
<g id="a_Node000002"><a xlink:href="../../d5/d4d/_blink_parallel_8ino.html#a7534a1b7b141032b317d806ee2e193ed" target="_top" xlink:title=" ">
<polygon fill="white" stroke="#666666" points="136.65,-304.75 107.85,-304.75 107.85,-284 136.65,-284 136.65,-304.75"/>
<text text-anchor="middle" x="122.25" y="-291.25" font-family="Helvetica,sans-Serif" font-size="10.00">fill</text>
</a>
</g>
</g>
<!-- Node1&#45;&gt;Node2 -->
<g id="edge1_Node000001_Node000002" class="edge">
<title>Node1&#45;&gt;Node2</title>
<g id="a_edge1_Node000001_Node000002"><a xlink:title=" ">
<path fill="none" stroke="#63b8ff" d="M40.33,-278.23C56.25,-281.41 78.93,-285.93 96.23,-289.38"/>
<polygon fill="#63b8ff" stroke="#63b8ff" points="95.48,-292.8 105.97,-291.33 96.85,-285.94 95.48,-292.8"/>
</a>
</g>
</g>
<!-- Node3 -->
<g id="Node000003" class="node">
<title>Node3</title>
<g id="a_Node000003"><a xlink:href="../../dd/dbb/class_c_fast_l_e_d.html#a83afdd1e2a21f33ac4f8d2610d6e331b" target="_top" xlink:title="Update all our controllers with the current led colors, using the passed in brightness.">
<polygon fill="white" stroke="#666666" points="168.5,-265.75 76,-265.75 76,-245 168.5,-245 168.5,-265.75"/>
<text text-anchor="middle" x="122.25" y="-252.25" font-family="Helvetica,sans-Serif" font-size="10.00">CFastLED::show</text>
</a>
</g>
</g>
<!-- Node1&#45;&gt;Node3 -->
<g id="edge2_Node000001_Node000003" class="edge">
<title>Node1&#45;&gt;Node3</title>
<g id="a_edge2_Node000001_Node000003"><a xlink:title=" ">
<path fill="none" stroke="#63b8ff" d="M40.33,-270.71C47.45,-269.36 55.93,-267.76 64.67,-266.1"/>
<polygon fill="#63b8ff" stroke="#63b8ff" points="65.14,-269.57 74.31,-264.27 63.84,-262.69 65.14,-269.57"/>
</a>
</g>
</g>
<!-- Node4 -->
<g id="Node000004" class="node">
<title>Node4</title>
<g id="a_Node000004"><a xlink:href="../../d6/d2c/class_c_l_e_d_controller.html#af9962ef739bdb3b590ee66f3780765d6" target="_top" xlink:title=" ">
<polygon fill="white" stroke="#666666" points="379.5,-476.75 208.25,-476.75 208.25,-456 379.5,-456 379.5,-476.75"/>
<text text-anchor="middle" x="293.88" y="-463.25" font-family="Helvetica,sans-Serif" font-size="10.00">CLEDController::beginShowLeds</text>
</a>
</g>
</g>
<!-- Node3&#45;&gt;Node4 -->
<g id="edge3_Node000003_Node000004" class="edge">
<title>Node3&#45;&gt;Node4</title>
<g id="a_edge3_Node000003_Node000004"><a xlink:title=" ">
<path fill="none" stroke="#63b8ff" d="M157.39,-266.09C161.59,-268.59 165.46,-271.65 168.5,-275.38 216.45,-334.25 152.25,-387.29 204.5,-442.38 207.13,-445.14 210.04,-447.6 213.15,-449.79"/>
<polygon fill="#63b8ff" stroke="#63b8ff" points="211.35,-452.79 221.75,-454.79 214.87,-446.74 211.35,-452.79"/>
</a>
</g>
</g>
<!-- Node6 -->
<g id="Node000006" class="node">
<title>Node6</title>
<g id="a_Node000006"><a xlink:href="../../d6/d2c/class_c_l_e_d_controller.html#a63f75cf7e55cf8da46db5fd27110bb3e" target="_top" xlink:title="How many LEDs does this controller manage?">
<polygon fill="white" stroke="#666666" points="555.25,-438.75 440.25,-438.75 440.25,-418 555.25,-418 555.25,-438.75"/>
<text text-anchor="middle" x="497.75" y="-425.25" font-family="Helvetica,sans-Serif" font-size="10.00">CLEDController::size</text>
</a>
</g>
</g>
<!-- Node3&#45;&gt;Node6 -->
<g id="edge24_Node000003_Node000006" class="edge">
<title>Node3&#45;&gt;Node6</title>
<g id="a_edge24_Node000003_Node000006"><a xlink:title=" ">
<path fill="none" stroke="#63b8ff" d="M157.22,-266.24C161.44,-268.71 165.37,-271.72 168.5,-275.38 208.63,-322.2 156.81,-370.28 204.5,-409.38 237.55,-436.47 353.24,-436.17 428.76,-432.77"/>
<polygon fill="#63b8ff" stroke="#63b8ff" points="428.73,-436.28 438.55,-432.3 428.39,-429.29 428.73,-436.28"/>
</a>
</g>
</g>
<!-- Node7 -->
<g id="Node000007" class="node">
<title>Node7</title>
<g id="a_Node000007"><a xlink:href="../../dd/dbb/class_c_fast_l_e_d.html#a61d27e179c9b68bde89d220aebc0de32" target="_top" xlink:title="For debugging, this will keep track of time between calls to countFPS().">
<polygon fill="white" stroke="#666666" points="349.88,-400.75 237.88,-400.75 237.88,-380 349.88,-380 349.88,-400.75"/>
<text text-anchor="middle" x="293.88" y="-387.25" font-family="Helvetica,sans-Serif" font-size="10.00">CFastLED::countFPS</text>
</a>
</g>
</g>
<!-- Node3&#45;&gt;Node7 -->
<g id="edge6_Node000003_Node000007" class="edge">
<title>Node3&#45;&gt;Node7</title>
<g id="a_edge6_Node000003_Node000007"><a xlink:title=" ">
<path fill="none" stroke="#63b8ff" d="M155.93,-266.06C160.55,-268.59 164.93,-271.66 168.5,-275.38 198.64,-306.73 172.08,-337.38 204.5,-366.38 210.93,-372.12 218.6,-376.51 226.7,-379.86"/>
<polygon fill="#63b8ff" stroke="#63b8ff" points="225.5,-383.15 236.09,-383.19 227.83,-376.55 225.5,-383.15"/>
</a>
</g>
</g>
<!-- Node8 -->
<g id="Node000008" class="node">
<title>Node8</title>
<g id="a_Node000008"><a xlink:href="../../d6/d2c/class_c_l_e_d_controller.html#a49b221af013bf196c2068e2cbd1c299d" target="_top" xlink:title=" ">
<polygon fill="white" stroke="#666666" points="375,-324.75 212.75,-324.75 212.75,-304 375,-304 375,-324.75"/>
<text text-anchor="middle" x="293.88" y="-311.25" font-family="Helvetica,sans-Serif" font-size="10.00">CLEDController::endShowLeds</text>
</a>
</g>
</g>
<!-- Node3&#45;&gt;Node8 -->
<g id="edge7_Node000003_Node000008" class="edge">
<title>Node3&#45;&gt;Node8</title>
<g id="a_edge7_Node000003_Node000008"><a xlink:title=" ">
<path fill="none" stroke="#63b8ff" d="M148.29,-266.07C154.9,-269 162.01,-272.23 168.5,-275.38 184.78,-283.26 187.53,-288.1 204.5,-294.38 210.64,-296.65 217.13,-298.71 223.68,-300.57"/>
<polygon fill="#63b8ff" stroke="#63b8ff" points="222.69,-303.93 233.25,-303.12 224.49,-297.16 222.69,-303.93"/>
</a>
</g>
</g>
<!-- Node9 -->
<g id="Node000009" class="node">
<title>Node9</title>
<g id="a_Node000009"><a xlink:href="../../d6/d2c/class_c_l_e_d_controller.html#a2a231accbeb00e6a6080a7e55274a279" target="_top" xlink:title="Set the dithering mode for this controller to use.">
<polygon fill="white" stroke="#666666" points="568,-343.75 427.5,-343.75 427.5,-323 568,-323 568,-343.75"/>
<text text-anchor="middle" x="497.75" y="-330.25" font-family="Helvetica,sans-Serif" font-size="10.00">CLEDController::setDither</text>
</a>
</g>
</g>
<!-- Node3&#45;&gt;Node9 -->
<g id="edge21_Node000003_Node000009" class="edge">
<title>Node3&#45;&gt;Node9</title>
<g id="a_edge21_Node000003_Node000009"><a xlink:title=" ">
<path fill="none" stroke="#63b8ff" d="M154.43,-266.16C159.45,-268.71 164.35,-271.77 168.5,-275.38 191.39,-295.28 177.99,-318.63 204.5,-333.38 281.3,-376.1 387.97,-361.01 448.93,-346.78"/>
<polygon fill="#63b8ff" stroke="#63b8ff" points="449.4,-350.26 458.29,-344.5 447.75,-343.46 449.4,-350.26"/>
</a>
</g>
</g>
<!-- Node10 -->
<g id="Node000010" class="node">
<title>Node10</title>
<g id="a_Node000010"><a xlink:href="../../d6/d2c/class_c_l_e_d_controller.html#a6bd253f670640ea4d1bd0d71b8029f2a" target="_top" xlink:title=" ">
<polygon fill="white" stroke="#666666" points="369,-285.75 218.75,-285.75 218.75,-265 369,-265 369,-285.75"/>
<text text-anchor="middle" x="293.88" y="-272.25" font-family="Helvetica,sans-Serif" font-size="10.00">CLEDController::getEnabled</text>
</a>
</g>
</g>
<!-- Node3&#45;&gt;Node10 -->
<g id="edge9_Node000003_Node000010" class="edge">
<title>Node3&#45;&gt;Node10</title>
<g id="a_edge9_Node000003_Node000010"><a xlink:title=" ">
<path fill="none" stroke="#63b8ff" d="M168.71,-260.73C180.67,-262.14 193.97,-263.71 207.3,-265.28"/>
<polygon fill="#63b8ff" stroke="#63b8ff" points="206.62,-268.73 216.96,-266.42 207.44,-261.78 206.62,-268.73"/>
</a>
</g>
</g>
<!-- Node11 -->
<g id="Node000011" class="node">
<title>Node11</title>
<g id="a_Node000011"><a xlink:href="../../d6/d2c/class_c_l_e_d_controller.html#a8b412ff1fd4833d0db63a175d40a2ee0" target="_top" xlink:title="Get the first LED controller in the linked list of controllers.">
<polygon fill="white" stroke="#666666" points="353.62,-246.75 234.12,-246.75 234.12,-226 353.62,-226 353.62,-246.75"/>
<text text-anchor="middle" x="293.88" y="-233.25" font-family="Helvetica,sans-Serif" font-size="10.00">CLEDController::head</text>
</a>
</g>
</g>
<!-- Node3&#45;&gt;Node11 -->
<g id="edge10_Node000003_Node000011" class="edge">
<title>Node3&#45;&gt;Node11</title>
<g id="a_edge10_Node000003_Node000011"><a xlink:title=" ">
<path fill="none" stroke="#63b8ff" d="M168.71,-250.28C185.29,-248.43 204.44,-246.28 222.67,-244.24"/>
<polygon fill="#63b8ff" stroke="#63b8ff" points="222.82,-247.74 232.36,-243.15 222.04,-240.79 222.82,-247.74"/>
</a>
</g>
</g>
<!-- Node12 -->
<g id="Node000012" class="node">
<title>Node12</title>
<g id="a_Node000012"><a xlink:href="../../d6/d2c/class_c_l_e_d_controller.html#a21a4d2b3415dd7b24175ebdb51c9ced0" target="_top" xlink:title="Get the next controller in the linked list after this one.">
<polygon fill="white" stroke="#666666" points="352.5,-207.75 235.25,-207.75 235.25,-187 352.5,-187 352.5,-207.75"/>
<text text-anchor="middle" x="293.88" y="-194.25" font-family="Helvetica,sans-Serif" font-size="10.00">CLEDController::next</text>
</a>
</g>
</g>
<!-- Node3&#45;&gt;Node12 -->
<g id="edge11_Node000003_Node000012" class="edge">
<title>Node3&#45;&gt;Node12</title>
<g id="a_edge11_Node000003_Node000012"><a xlink:title=" ">
<path fill="none" stroke="#63b8ff" d="M143.12,-244.61C159.27,-236.22 182.84,-224.79 204.5,-217.38 211.32,-215.04 218.53,-212.9 225.77,-210.96"/>
<polygon fill="#63b8ff" stroke="#63b8ff" points="226.44,-214.4 235.27,-208.54 224.72,-207.62 226.44,-214.4"/>
</a>
</g>
</g>
<!-- Node13 -->
<g id="Node000013" class="node">
<title>Node13</title>
<g id="a_Node000013"><a xlink:href="../../de/dca/classfl_1_1_engine_events.html#a7147debfba714b8ab0925af1a7c935c0" target="_top" xlink:title=" ">
<polygon fill="white" stroke="#666666" points="363.75,-169.12 224,-169.12 224,-135.62 363.75,-135.62 363.75,-169.12"/>
<text text-anchor="start" x="232" y="-155.62" font-family="Helvetica,sans-Serif" font-size="10.00">fl::EngineEvents::onBegin</text>
<text text-anchor="middle" x="293.88" y="-142.88" font-family="Helvetica,sans-Serif" font-size="10.00">Frame</text>
</a>
</g>
</g>
<!-- Node3&#45;&gt;Node13 -->
<g id="edge12_Node000003_Node000013" class="edge">
<title>Node3&#45;&gt;Node13</title>
<g id="a_edge12_Node000003_Node000013"><a xlink:title=" ">
<path fill="none" stroke="#63b8ff" d="M131.56,-244.76C145.09,-228.19 173.51,-196.22 204.5,-178.38 207.29,-176.77 210.2,-175.25 213.17,-173.82"/>
<polygon fill="#63b8ff" stroke="#63b8ff" points="214.37,-177.12 222.13,-169.9 211.57,-170.7 214.37,-177.12"/>
</a>
</g>
</g>
<!-- Node17 -->
<g id="Node000017" class="node">
<title>Node17</title>
<g id="a_Node000017"><a xlink:href="../../de/dca/classfl_1_1_engine_events.html#ab7d24c4783214392de84947cd7df5570" target="_top" xlink:title=" ">
<polygon fill="white" stroke="#666666" points="374.25,-117.75 213.5,-117.75 213.5,-97 374.25,-97 374.25,-117.75"/>
<text text-anchor="middle" x="293.88" y="-104.25" font-family="Helvetica,sans-Serif" font-size="10.00">fl::EngineEvents::onEndFrame</text>
</a>
</g>
</g>
<!-- Node3&#45;&gt;Node17 -->
<g id="edge15_Node000003_Node000017" class="edge">
<title>Node3&#45;&gt;Node17</title>
<g id="a_edge15_Node000003_Node000017"><a xlink:title=" ">
<path fill="none" stroke="#63b8ff" d="M126.72,-244.67C135.43,-219.62 160.68,-157.01 204.5,-126.38 206.09,-125.26 207.74,-124.21 209.42,-123.22"/>
<polygon fill="#63b8ff" stroke="#63b8ff" points="210.78,-126.46 218.16,-118.86 207.65,-120.2 210.78,-126.46"/>
</a>
</g>
</g>
<!-- Node19 -->
<g id="Node000019" class="node">
<title>Node19</title>
<g id="a_Node000019"><a xlink:href="../../de/dca/classfl_1_1_engine_events.html#af1bb9a46fdc6694a1b5c87a49c516ae8" target="_top" xlink:title=" ">
<polygon fill="white" stroke="#666666" points="383.25,-78.75 204.5,-78.75 204.5,-58 383.25,-58 383.25,-78.75"/>
<text text-anchor="middle" x="293.88" y="-65.25" font-family="Helvetica,sans-Serif" font-size="10.00">fl::EngineEvents::onEndShowLeds</text>
</a>
</g>
</g>
<!-- Node3&#45;&gt;Node19 -->
<g id="edge18_Node000003_Node000019" class="edge">
<title>Node3&#45;&gt;Node19</title>
<g id="a_edge18_Node000003_Node000019"><a xlink:title=" ">
<path fill="none" stroke="#63b8ff" d="M125.12,-244.79C130.95,-215.05 151.69,-130.24 204.5,-88.38 206.26,-86.98 208.09,-85.68 209.99,-84.47"/>
<polygon fill="#63b8ff" stroke="#63b8ff" points="211.48,-87.65 218.62,-79.82 208.16,-81.48 211.48,-87.65"/>
</a>
</g>
</g>
<!-- Node21 -->
<g id="Node000021" class="node">
<title>Node21</title>
<g id="a_Node000021"><a xlink:href="../../d6/d2c/class_c_l_e_d_controller.html#ac5355e980ac13d9ae97561f183f73990" target="_top" xlink:title="Write the data to the LEDs managed by this controller.">
<polygon fill="white" stroke="#666666" points="365.62,-34.12 222.12,-34.12 222.12,-0.62 365.62,-0.62 365.62,-34.12"/>
<text text-anchor="start" x="230.12" y="-20.62" font-family="Helvetica,sans-Serif" font-size="10.00">CLEDController::showLeds</text>
<text text-anchor="middle" x="293.88" y="-7.88" font-family="Helvetica,sans-Serif" font-size="10.00">Internal</text>
</a>
</g>
</g>
<!-- Node3&#45;&gt;Node21 -->
<g id="edge22_Node000003_Node000021" class="edge">
<title>Node3&#45;&gt;Node21</title>
<g id="a_edge22_Node000003_Node000021"><a xlink:title=" ">
<path fill="none" stroke="#63b8ff" d="M124.39,-244.72C128.53,-211.16 145.78,-106.45 204.5,-49.38 208.09,-45.89 212.08,-42.78 216.33,-40.01"/>
<polygon fill="#63b8ff" stroke="#63b8ff" points="217.75,-43.23 224.68,-35.21 214.27,-37.16 217.75,-43.23"/>
</a>
</g>
</g>
<!-- Node5 -->
<g id="Node000005" class="node">
<title>Node5</title>
<g id="a_Node000005"><a xlink:href="../../d6/d2c/class_c_l_e_d_controller.html#a676f705adf93898739a405b85150a3e7" target="_top" xlink:title="Get the dithering option currently set for this controller.">
<polygon fill="white" stroke="#666666" points="568.38,-477.75 427.12,-477.75 427.12,-457 568.38,-457 568.38,-477.75"/>
<text text-anchor="middle" x="497.75" y="-464.25" font-family="Helvetica,sans-Serif" font-size="10.00">CLEDController::getDither</text>
</a>
</g>
</g>
<!-- Node4&#45;&gt;Node5 -->
<g id="edge4_Node000004_Node000005" class="edge">
<title>Node4&#45;&gt;Node5</title>
<g id="a_edge4_Node000004_Node000005"><a xlink:title=" ">
<path fill="none" stroke="#63b8ff" d="M379.9,-466.8C391.62,-466.85 403.63,-466.91 415.29,-466.97"/>
<polygon fill="#63b8ff" stroke="#63b8ff" points="415.26,-470.47 425.28,-467.02 415.3,-463.47 415.26,-470.47"/>
</a>
</g>
</g>
<!-- Node4&#45;&gt;Node6 -->
<g id="edge5_Node000004_Node000006" class="edge">
<title>Node4&#45;&gt;Node6</title>
<g id="a_edge5_Node000004_Node000006"><a xlink:title=" ">
<path fill="none" stroke="#63b8ff" d="M352.45,-455.54C376.2,-451.07 403.91,-445.85 428.66,-441.19"/>
<polygon fill="#63b8ff" stroke="#63b8ff" points="429.13,-444.67 438.31,-439.38 427.83,-437.79 429.13,-444.67"/>
</a>
</g>
</g>
<!-- Node8&#45;&gt;Node9 -->
<g id="edge8_Node000008_Node000009" class="edge">
<title>Node8&#45;&gt;Node9</title>
<g id="a_edge8_Node000008_Node000009"><a xlink:title=" ">
<path fill="none" stroke="#63b8ff" d="M375.24,-321.94C388.64,-323.2 402.55,-324.51 415.96,-325.77"/>
<polygon fill="#63b8ff" stroke="#63b8ff" points="415.3,-329.22 425.58,-326.68 415.95,-322.25 415.3,-329.22"/>
</a>
</g>
</g>
<!-- Node14 -->
<g id="Node000014" class="node">
<title>Node14</title>
<g id="a_Node000014"><a xlink:href="../../de/dca/classfl_1_1_engine_events.html#a9dfab83407c4cb0c15065e242d49de62" target="_top" xlink:title=" ">
<polygon fill="white" stroke="#666666" points="547.75,-214.12 447.75,-214.12 447.75,-180.62 547.75,-180.62 547.75,-214.12"/>
<text text-anchor="start" x="455.75" y="-200.62" font-family="Helvetica,sans-Serif" font-size="10.00">fl::EngineEvents::</text>
<text text-anchor="middle" x="497.75" y="-187.88" font-family="Helvetica,sans-Serif" font-size="10.00">_onBeginFrame</text>
</a>
</g>
</g>
<!-- Node13&#45;&gt;Node14 -->
<g id="edge13_Node000013_Node000014" class="edge">
<title>Node13&#45;&gt;Node14</title>
<g id="a_edge13_Node000013_Node000014"><a xlink:title=" ">
<path fill="none" stroke="#63b8ff" d="M364.07,-167.8C387.5,-173.02 413.48,-178.81 436.19,-183.87"/>
<polygon fill="#63b8ff" stroke="#63b8ff" points="435.39,-187.28 445.91,-186.04 436.91,-180.45 435.39,-187.28"/>
</a>
</g>
</g>
<!-- Node15 -->
<g id="Node000015" class="node">
<title>Node15</title>
<g id="a_Node000015"><a xlink:href="../../de/dca/classfl_1_1_engine_events.html#a34a4625c4fbcf754f70820bc4f0e418b" target="_top" xlink:title=" ">
<polygon fill="#fff0f0" stroke="red" points="576.25,-162.75 419.25,-162.75 419.25,-142 576.25,-142 576.25,-162.75"/>
<text text-anchor="middle" x="497.75" y="-149.25" font-family="Helvetica,sans-Serif" font-size="10.00">fl::EngineEvents::getInstance</text>
</a>
</g>
</g>
<!-- Node13&#45;&gt;Node15 -->
<g id="edge14_Node000013_Node000015" class="edge">
<title>Node13&#45;&gt;Node15</title>
<g id="a_edge14_Node000013_Node000015"><a xlink:title=" ">
<path fill="none" stroke="#63b8ff" d="M364.07,-152.38C378.16,-152.38 393.18,-152.38 407.86,-152.38"/>
<polygon fill="#63b8ff" stroke="#63b8ff" points="407.47,-155.88 417.47,-152.38 407.47,-148.88 407.47,-155.88"/>
</a>
</g>
</g>
<!-- Node17&#45;&gt;Node15 -->
<g id="edge17_Node000017_Node000015" class="edge">
<title>Node17&#45;&gt;Node15</title>
<g id="a_edge17_Node000017_Node000015"><a xlink:title=" ">
<path fill="none" stroke="#63b8ff" d="M345.84,-118.21C358.1,-120.85 371.15,-123.69 383.25,-126.38 401.39,-130.4 421.13,-134.89 438.99,-138.98"/>
<polygon fill="#63b8ff" stroke="#63b8ff" points="438.11,-142.38 448.64,-141.21 439.68,-135.55 438.11,-142.38"/>
</a>
</g>
</g>
<!-- Node18 -->
<g id="Node000018" class="node">
<title>Node18</title>
<g id="a_Node000018"><a xlink:href="../../de/dca/classfl_1_1_engine_events.html#a643d9a8597b79d76daed94c29845e886" target="_top" xlink:title=" ">
<polygon fill="white" stroke="#666666" points="547.75,-124.12 447.75,-124.12 447.75,-90.62 547.75,-90.62 547.75,-124.12"/>
<text text-anchor="start" x="455.75" y="-110.62" font-family="Helvetica,sans-Serif" font-size="10.00">fl::EngineEvents::</text>
<text text-anchor="middle" x="497.75" y="-97.88" font-family="Helvetica,sans-Serif" font-size="10.00">_onEndFrame</text>
</a>
</g>
</g>
<!-- Node17&#45;&gt;Node18 -->
<g id="edge16_Node000017_Node000018" class="edge">
<title>Node17&#45;&gt;Node18</title>
<g id="a_edge16_Node000017_Node000018"><a xlink:title=" ">
<path fill="none" stroke="#63b8ff" d="M374.66,-107.38C395.11,-107.38 416.77,-107.38 436.08,-107.38"/>
<polygon fill="#63b8ff" stroke="#63b8ff" points="435.95,-110.88 445.95,-107.38 435.95,-103.88 435.95,-110.88"/>
</a>
</g>
</g>
<!-- Node19&#45;&gt;Node15 -->
<g id="edge20_Node000019_Node000015" class="edge">
<title>Node19&#45;&gt;Node15</title>
<g id="a_edge20_Node000019_Node000015"><a xlink:title=" ">
<path fill="none" stroke="#63b8ff" d="M364.24,-79.25C370.92,-81.7 377.38,-84.7 383.25,-88.38 404.96,-101.96 397.66,-119.59 419.25,-133.38 421.26,-134.66 423.34,-135.85 425.49,-136.97"/>
<polygon fill="#63b8ff" stroke="#63b8ff" points="423.96,-140.12 434.52,-141 426.82,-133.72 423.96,-140.12"/>
</a>
</g>
</g>
<!-- Node20 -->
<g id="Node000020" class="node">
<title>Node20</title>
<g id="a_Node000020"><a xlink:href="../../de/dca/classfl_1_1_engine_events.html#ae6b4037ab7b73bf0d69e07c4956f9450" target="_top" xlink:title=" ">
<polygon fill="white" stroke="#666666" points="547.75,-72.12 447.75,-72.12 447.75,-38.62 547.75,-38.62 547.75,-72.12"/>
<text text-anchor="start" x="455.75" y="-58.62" font-family="Helvetica,sans-Serif" font-size="10.00">fl::EngineEvents::</text>
<text text-anchor="middle" x="497.75" y="-45.88" font-family="Helvetica,sans-Serif" font-size="10.00">_onEndShowLeds</text>
</a>
</g>
</g>
<!-- Node19&#45;&gt;Node20 -->
<g id="edge19_Node000019_Node000020" class="edge">
<title>Node19&#45;&gt;Node20</title>
<g id="a_edge19_Node000019_Node000020"><a xlink:title=" ">
<path fill="none" stroke="#63b8ff" d="M383.71,-62.65C401.51,-61.51 419.81,-60.33 436.36,-59.26"/>
<polygon fill="#63b8ff" stroke="#63b8ff" points="436.25,-62.78 446,-58.64 435.8,-55.79 436.25,-62.78"/>
</a>
</g>
</g>
<!-- Node22 -->
<g id="Node000022" class="node">
<title>Node22</title>
<g id="a_Node000022"><a xlink:href="../../d6/d2c/class_c_l_e_d_controller.html#afc8fb063666d03527aabc86d8531e007" target="_top" xlink:title="Write the passed in RGB data out to the LEDs managed by this controller.">
<polygon fill="white" stroke="#666666" points="558.25,-20.75 437.25,-20.75 437.25,0 558.25,0 558.25,-20.75"/>
<text text-anchor="middle" x="497.75" y="-7.25" font-family="Helvetica,sans-Serif" font-size="10.00">CLEDController::show</text>
</a>
</g>
</g>
<!-- Node21&#45;&gt;Node22 -->
<g id="edge23_Node000021_Node000022" class="edge">
<title>Node21&#45;&gt;Node22</title>
<g id="a_edge23_Node000021_Node000022"><a xlink:title=" ">
<path fill="none" stroke="#63b8ff" d="M366.05,-14.91C385.32,-14.24 406.17,-13.52 425.45,-12.85"/>
<polygon fill="#63b8ff" stroke="#63b8ff" points="425.52,-16.35 435.39,-12.5 425.27,-9.35 425.52,-16.35"/>
</a>
</g>
</g>
</g>
</svg>
