<?xml version="1.0" encoding="UTF-8" standalone="no"?>
<!DOCTYPE svg PUBLIC "-//W3C//DTD SVG 1.1//EN"
 "http://www.w3.org/Graphics/SVG/1.1/DTD/svg11.dtd">
<!-- Generated by graphviz version 12.2.1 (20241206.2353)
 -->
<!-- Title: /home/runner/work/FastLED/FastLED/src/lut.h Pages: 1 -->
<svg width="485pt" height="269pt"
 viewBox="0.00 0.00 484.88 268.50" xmlns="http://www.w3.org/2000/svg" xmlns:xlink="http://www.w3.org/1999/xlink">
<g id="graph0" class="graph" transform="scale(1 1) rotate(0) translate(4 264.5)">
<title>/home/runner/work/FastLED/FastLED/src/lut.h</title>
<!-- Node1 -->
<g id="Node000001" class="node">
<title>Node1</title>
<g id="a_Node000001"><a xlink:title=" ">
<polygon fill="#999999" stroke="#666666" points="275.12,-260.5 125.62,-260.5 125.62,-227 275.12,-227 275.12,-260.5"/>
<text text-anchor="start" x="133.62" y="-247" font-family="Helvetica,sans-Serif" font-size="10.00">/home/runner/work/FastLED</text>
<text text-anchor="middle" x="200.38" y="-234.25" font-family="Helvetica,sans-Serif" font-size="10.00">/FastLED/src/lut.h</text>
</a>
</g>
</g>
<!-- Node2 -->
<g id="Node000002" class="node">
<title>Node2</title>
<g id="a_Node000002"><a xlink:href="../../d3/db6/fl_2lut_8h.html" target="_top" xlink:title=" ">
<polygon fill="white" stroke="#666666" points="223.75,-191 177,-191 177,-170.25 223.75,-170.25 223.75,-191"/>
<text text-anchor="middle" x="200.38" y="-177.5" font-family="Helvetica,sans-Serif" font-size="10.00">fl/lut.h</text>
</a>
</g>
</g>
<!-- Node1&#45;&gt;Node2 -->
<g id="edge1_Node000001_Node000002" class="edge">
<title>Node1&#45;&gt;Node2</title>
<g id="a_edge1_Node000001_Node000002"><a xlink:title=" ">
<path fill="none" stroke="#63b8ff" d="M200.38,-226.69C200.38,-219.35 200.38,-210.57 200.38,-202.71"/>
<polygon fill="#63b8ff" stroke="#63b8ff" points="203.88,-202.98 200.38,-192.98 196.88,-202.98 203.88,-202.98"/>
</a>
</g>
</g>
<!-- Node3 -->
<g id="Node000003" class="node">
<title>Node3</title>
<g id="a_Node000003"><a xlink:title=" ">
<polygon fill="#e0e0e0" stroke="#999999" points="52.75,-20.75 0,-20.75 0,0 52.75,0 52.75,-20.75"/>
<text text-anchor="middle" x="26.38" y="-7.25" font-family="Helvetica,sans-Serif" font-size="10.00">stdint.h</text>
</a>
</g>
</g>
<!-- Node2&#45;&gt;Node3 -->
<g id="edge2_Node000002_Node000003" class="edge">
<title>Node2&#45;&gt;Node3</title>
<g id="a_edge2_Node000002_Node000003"><a xlink:title=" ">
<path fill="none" stroke="#63b8ff" d="M176.75,-177.32C145.68,-173.26 90.69,-162.4 53.38,-134.25 29.34,-116.12 24.95,-106.36 16.38,-77.5 11.92,-62.5 14.92,-44.97 18.77,-31.73"/>
<polygon fill="#63b8ff" stroke="#63b8ff" points="22.04,-33 21.87,-22.41 15.39,-30.79 22.04,-33"/>
</a>
</g>
</g>
<!-- Node4 -->
<g id="Node000004" class="node">
<title>Node4</title>
<g id="a_Node000004"><a xlink:href="../../d7/df1/fl_2ptr_8h.html" target="_top" xlink:title=" ">
<polygon fill="white" stroke="#666666" points="223.75,-134.25 177,-134.25 177,-113.5 223.75,-113.5 223.75,-134.25"/>
<text text-anchor="middle" x="200.38" y="-120.75" font-family="Helvetica,sans-Serif" font-size="10.00">fl/ptr.h</text>
</a>
</g>
</g>
<!-- Node2&#45;&gt;Node4 -->
<g id="edge3_Node000002_Node000004" class="edge">
<title>Node2&#45;&gt;Node4</title>
<g id="a_edge3_Node000002_Node000004"><a xlink:title=" ">
<path fill="none" stroke="#63b8ff" d="M200.38,-169.84C200.38,-163.22 200.38,-154.22 200.38,-146.02"/>
<polygon fill="#63b8ff" stroke="#63b8ff" points="203.88,-146.09 200.38,-136.09 196.88,-146.09 203.88,-146.09"/>
</a>
</g>
</g>
<!-- Node6 -->
<g id="Node000006" class="node">
<title>Node6</title>
<g id="a_Node000006"><a xlink:href="../../df/d2a/namespace_8h.html" target="_top" xlink:title="Implements the FastLED namespace macros.">
<polygon fill="white" stroke="#666666" points="177.5,-20.75 87.25,-20.75 87.25,0 177.5,0 177.5,-20.75"/>
<text text-anchor="middle" x="132.38" y="-7.25" font-family="Helvetica,sans-Serif" font-size="10.00">fl/namespace.h</text>
</a>
</g>
</g>
<!-- Node2&#45;&gt;Node6 -->
<g id="edge16_Node000002_Node000006" class="edge">
<title>Node2&#45;&gt;Node6</title>
<g id="a_edge16_Node000002_Node000006"><a xlink:title=" ">
<path fill="none" stroke="#63b8ff" d="M176.73,-174.02C136.9,-163.15 57.52,-135.05 24.38,-77.5 9.08,-50.94 42.47,-33.7 76.06,-23.5"/>
<polygon fill="#63b8ff" stroke="#63b8ff" points="76.78,-26.93 85.45,-20.85 74.88,-20.2 76.78,-26.93"/>
</a>
</g>
</g>
<!-- Node9 -->
<g id="Node000009" class="node">
<title>Node9</title>
<g id="a_Node000009"><a xlink:href="../../d8/d2d/fl_2force__inline_8h.html" target="_top" xlink:title=" ">
<polygon fill="white" stroke="#666666" points="476.88,-134.25 385.88,-134.25 385.88,-113.5 476.88,-113.5 476.88,-134.25"/>
<text text-anchor="middle" x="431.38" y="-120.75" font-family="Helvetica,sans-Serif" font-size="10.00">fl/force_inline.h</text>
</a>
</g>
</g>
<!-- Node2&#45;&gt;Node9 -->
<g id="edge12_Node000002_Node000009" class="edge">
<title>Node2&#45;&gt;Node9</title>
<g id="a_edge12_Node000002_Node000009"><a xlink:title=" ">
<path fill="none" stroke="#63b8ff" d="M224.23,-173.97C260.48,-165.38 330.36,-148.82 378.87,-137.32"/>
<polygon fill="#63b8ff" stroke="#63b8ff" points="379.4,-140.79 388.32,-135.08 377.78,-133.98 379.4,-140.79"/>
</a>
</g>
</g>
<!-- Node10 -->
<g id="Node000010" class="node">
<title>Node10</title>
<g id="a_Node000010"><a xlink:href="../../d2/d6f/fl_2allocator_8h.html" target="_top" xlink:title=" ">
<polygon fill="white" stroke="#666666" points="367.38,-134.25 291.38,-134.25 291.38,-113.5 367.38,-113.5 367.38,-134.25"/>
<text text-anchor="middle" x="329.38" y="-120.75" font-family="Helvetica,sans-Serif" font-size="10.00">fl/allocator.h</text>
</a>
</g>
</g>
<!-- Node2&#45;&gt;Node10 -->
<g id="edge13_Node000002_Node000010" class="edge">
<title>Node2&#45;&gt;Node10</title>
<g id="a_edge13_Node000002_Node000010"><a xlink:title=" ">
<path fill="none" stroke="#63b8ff" d="M223.44,-169.84C243.62,-161.27 273.18,-148.73 295.95,-139.06"/>
<polygon fill="#63b8ff" stroke="#63b8ff" points="297.28,-142.3 305.12,-135.17 294.55,-135.85 297.28,-142.3"/>
</a>
</g>
</g>
<!-- Node5 -->
<g id="Node000005" class="node">
<title>Node5</title>
<g id="a_Node000005"><a xlink:title=" ">
<polygon fill="#e0e0e0" stroke="#999999" points="344.88,-20.75 289.88,-20.75 289.88,0 344.88,0 344.88,-20.75"/>
<text text-anchor="middle" x="317.38" y="-7.25" font-family="Helvetica,sans-Serif" font-size="10.00">stddef.h</text>
</a>
</g>
</g>
<!-- Node4&#45;&gt;Node5 -->
<g id="edge4_Node000004_Node000005" class="edge">
<title>Node4&#45;&gt;Node5</title>
<g id="a_edge4_Node000004_Node000005"><a xlink:title=" ">
<path fill="none" stroke="#63b8ff" d="M223.99,-117.91C246.29,-112.01 279.1,-99.99 298.38,-77.5 309.2,-64.87 313.87,-46.42 315.88,-32.22"/>
<polygon fill="#63b8ff" stroke="#63b8ff" points="319.32,-32.9 316.89,-22.59 312.36,-32.17 319.32,-32.9"/>
</a>
</g>
</g>
<!-- Node4&#45;&gt;Node6 -->
<g id="edge5_Node000004_Node000006" class="edge">
<title>Node4&#45;&gt;Node6</title>
<g id="a_edge5_Node000004_Node000006"><a xlink:title=" ">
<path fill="none" stroke="#63b8ff" d="M194.58,-113.37C183.44,-95.11 158.87,-54.81 144.16,-30.7"/>
<polygon fill="#63b8ff" stroke="#63b8ff" points="147.33,-29.18 139.14,-22.47 141.36,-32.83 147.33,-29.18"/>
</a>
</g>
</g>
<!-- Node7 -->
<g id="Node000007" class="node">
<title>Node7</title>
<g id="a_Node000007"><a xlink:href="../../df/d28/fl_2scoped__ptr_8h.html" target="_top" xlink:title=" ">
<polygon fill="white" stroke="#666666" points="289.62,-77.5 203.12,-77.5 203.12,-56.75 289.62,-56.75 289.62,-77.5"/>
<text text-anchor="middle" x="246.38" y="-64" font-family="Helvetica,sans-Serif" font-size="10.00">fl/scoped_ptr.h</text>
</a>
</g>
</g>
<!-- Node4&#45;&gt;Node7 -->
<g id="edge6_Node000004_Node000007" class="edge">
<title>Node4&#45;&gt;Node7</title>
<g id="a_edge6_Node000004_Node000007"><a xlink:title=" ">
<path fill="none" stroke="#63b8ff" d="M208.6,-113.09C214.81,-105.69 223.52,-95.32 231.01,-86.41"/>
<polygon fill="#63b8ff" stroke="#63b8ff" points="233.5,-88.9 237.25,-78.99 228.14,-84.39 233.5,-88.9"/>
</a>
</g>
</g>
<!-- Node8 -->
<g id="Node000008" class="node">
<title>Node8</title>
<g id="a_Node000008"><a xlink:href="../../d8/d0c/template__magic_8h.html" target="_top" xlink:title=" ">
<polygon fill="white" stroke="#666666" points="147.12,-77.5 33.62,-77.5 33.62,-56.75 147.12,-56.75 147.12,-77.5"/>
<text text-anchor="middle" x="90.38" y="-64" font-family="Helvetica,sans-Serif" font-size="10.00">fl/template_magic.h</text>
</a>
</g>
</g>
<!-- Node4&#45;&gt;Node8 -->
<g id="edge9_Node000004_Node000008" class="edge">
<title>Node4&#45;&gt;Node8</title>
<g id="a_edge9_Node000004_Node000008"><a xlink:title=" ">
<path fill="none" stroke="#63b8ff" d="M180.71,-113.09C163.82,-104.68 139.21,-92.43 119.94,-82.84"/>
<polygon fill="#63b8ff" stroke="#63b8ff" points="121.74,-79.83 111.23,-78.5 118.62,-86.09 121.74,-79.83"/>
</a>
</g>
</g>
<!-- Node7&#45;&gt;Node5 -->
<g id="edge7_Node000007_Node000005" class="edge">
<title>Node7&#45;&gt;Node5</title>
<g id="a_edge7_Node000007_Node000005"><a xlink:title=" ">
<path fill="none" stroke="#63b8ff" d="M259.07,-56.34C269.27,-48.47 283.82,-37.25 295.83,-27.99"/>
<polygon fill="#63b8ff" stroke="#63b8ff" points="297.81,-30.88 303.59,-22 293.54,-25.34 297.81,-30.88"/>
</a>
</g>
</g>
<!-- Node7&#45;&gt;Node6 -->
<g id="edge8_Node000007_Node000006" class="edge">
<title>Node7&#45;&gt;Node6</title>
<g id="a_edge8_Node000007_Node000006"><a xlink:title=" ">
<path fill="none" stroke="#63b8ff" d="M225.99,-56.34C208.41,-47.89 182.75,-35.57 162.74,-25.96"/>
<polygon fill="#63b8ff" stroke="#63b8ff" points="164.47,-22.91 153.94,-21.73 161.44,-29.22 164.47,-22.91"/>
</a>
</g>
</g>
<!-- Node8&#45;&gt;Node3 -->
<g id="edge10_Node000008_Node000003" class="edge">
<title>Node8&#45;&gt;Node3</title>
<g id="a_edge10_Node000008_Node000003"><a xlink:title=" ">
<path fill="none" stroke="#63b8ff" d="M78.93,-56.34C69.92,-48.63 57.14,-37.7 46.44,-28.54"/>
<polygon fill="#63b8ff" stroke="#63b8ff" points="48.74,-25.9 38.87,-22.06 44.19,-31.22 48.74,-25.9"/>
</a>
</g>
</g>
<!-- Node8&#45;&gt;Node6 -->
<g id="edge11_Node000008_Node000006" class="edge">
<title>Node8&#45;&gt;Node6</title>
<g id="a_edge11_Node000008_Node000006"><a xlink:title=" ">
<path fill="none" stroke="#63b8ff" d="M97.88,-56.34C103.5,-49.02 111.34,-38.79 118.13,-29.94"/>
<polygon fill="#63b8ff" stroke="#63b8ff" points="120.7,-32.34 124.01,-22.28 115.15,-28.08 120.7,-32.34"/>
</a>
</g>
</g>
<!-- Node10&#45;&gt;Node5 -->
<g id="edge14_Node000010_Node000005" class="edge">
<title>Node10&#45;&gt;Node5</title>
<g id="a_edge14_Node000010_Node000005"><a xlink:title=" ">
<path fill="none" stroke="#63b8ff" d="M330.72,-113.39C332.31,-100.5 334.39,-76.74 331.38,-56.75 330.1,-48.31 327.57,-39.26 325,-31.49"/>
<polygon fill="#63b8ff" stroke="#63b8ff" points="328.39,-30.59 321.74,-22.34 321.8,-32.94 328.39,-30.59"/>
</a>
</g>
</g>
<!-- Node11 -->
<g id="Node000011" class="node">
<title>Node11</title>
<g id="a_Node000011"><a xlink:title=" ">
<polygon fill="#e0e0e0" stroke="#999999" points="435.75,-77.5 383,-77.5 383,-56.75 435.75,-56.75 435.75,-77.5"/>
<text text-anchor="middle" x="409.38" y="-64" font-family="Helvetica,sans-Serif" font-size="10.00">string.h</text>
</a>
</g>
</g>
<!-- Node10&#45;&gt;Node11 -->
<g id="edge15_Node000010_Node000011" class="edge">
<title>Node10&#45;&gt;Node11</title>
<g id="a_edge15_Node000010_Node000011"><a xlink:title=" ">
<path fill="none" stroke="#63b8ff" d="M343.68,-113.09C355.39,-105.07 372.21,-93.56 385.9,-84.19"/>
<polygon fill="#63b8ff" stroke="#63b8ff" points="387.67,-87.22 393.95,-78.68 383.72,-81.44 387.67,-87.22"/>
</a>
</g>
</g>
</g>
</svg>
