<?xml version="1.0" encoding="UTF-8" standalone="no"?>
<!DOCTYPE svg PUBLIC "-//W3C//DTD SVG 1.1//EN"
 "http://www.w3.org/Graphics/SVG/1.1/DTD/svg11.dtd">
<!-- Generated by graphviz version 12.2.1 (20241206.2353)
 -->
<!-- Title: fl::FxEngine::addFx Pages: 1 -->
<svg width="849pt" height="312pt"
 viewBox="0.00 0.00 849.25 311.75" xmlns="http://www.w3.org/2000/svg" xmlns:xlink="http://www.w3.org/1999/xlink">
<g id="graph0" class="graph" transform="scale(1 1) rotate(0) translate(4 307.75)">
<title>fl::FxEngine::addFx</title>
<!-- Node1 -->
<g id="Node000001" class="node">
<title>Node1</title>
<g id="a_Node000001"><a xlink:title="Adds a new effect to the engine.">
<polygon fill="#999999" stroke="#666666" points="109,-186.75 0,-186.75 0,-166 109,-166 109,-186.75"/>
<text text-anchor="middle" x="54.5" y="-173.25" font-family="Helvetica,sans-Serif" font-size="10.00">fl::FxEngine::addFx</text>
</a>
</g>
</g>
<!-- Node2 -->
<g id="Node000002" class="node">
<title>Node2</title>
<g id="a_Node000002"><a xlink:href="../../d2/df3/classfl_1_1_fixed_map.html#aaa4e5e58299a89ab5a6784b011b2b2a7" target="_top" xlink:title=" ">
<polygon fill="white" stroke="#666666" points="287,-264.75 175,-264.75 175,-244 287,-244 287,-264.75"/>
<text text-anchor="middle" x="231" y="-251.25" font-family="Helvetica,sans-Serif" font-size="10.00">fl::FixedMap::empty</text>
</a>
</g>
</g>
<!-- Node1&#45;&gt;Node2 -->
<g id="edge1_Node000001_Node000002" class="edge">
<title>Node1&#45;&gt;Node2</title>
<g id="a_edge1_Node000001_Node000002"><a xlink:title=" ">
<path fill="none" stroke="#63b8ff" d="M79.76,-187.22C109.85,-200.67 161.32,-223.68 195.5,-238.95"/>
<polygon fill="#63b8ff" stroke="#63b8ff" points="194,-242.12 204.56,-243 196.86,-235.73 194,-242.12"/>
</a>
</g>
</g>
<!-- Node4 -->
<g id="Node000004" class="node">
<title>Node4</title>
<g id="a_Node000004"><a xlink:href="../../d2/df3/classfl_1_1_fixed_map.html#a0c2f74febc0761d26128a3a63d225cf2" target="_top" xlink:title=" ">
<polygon fill="white" stroke="#666666" points="285.12,-186.75 176.88,-186.75 176.88,-166 285.12,-166 285.12,-186.75"/>
<text text-anchor="middle" x="231" y="-173.25" font-family="Helvetica,sans-Serif" font-size="10.00">fl::FixedMap::insert</text>
</a>
</g>
</g>
<!-- Node1&#45;&gt;Node4 -->
<g id="edge3_Node000001_Node000004" class="edge">
<title>Node1&#45;&gt;Node4</title>
<g id="a_edge3_Node000001_Node000004"><a xlink:title=" ">
<path fill="none" stroke="#63b8ff" d="M109.28,-176.38C126.86,-176.38 146.58,-176.38 164.9,-176.38"/>
<polygon fill="#63b8ff" stroke="#63b8ff" points="164.88,-179.88 174.88,-176.38 164.88,-172.88 164.88,-179.88"/>
</a>
</g>
</g>
<!-- Node12 -->
<g id="Node000012" class="node">
<title>Node12</title>
<g id="a_Node000012"><a xlink:href="../../d7/df1/classfl_1_1_fx_compositor.html#a623a0970c4c8b2cec73db92a8008c752" target="_top" xlink:title=" ">
<polygon fill="white" stroke="#666666" points="317,-65.75 145,-65.75 145,-45 317,-45 317,-65.75"/>
<text text-anchor="middle" x="231" y="-52.25" font-family="Helvetica,sans-Serif" font-size="10.00">fl::FxCompositor::startTransition</text>
</a>
</g>
</g>
<!-- Node1&#45;&gt;Node12 -->
<g id="edge12_Node000001_Node000012" class="edge">
<title>Node1&#45;&gt;Node12</title>
<g id="a_edge12_Node000001_Node000012"><a xlink:title=" ">
<path fill="none" stroke="#63b8ff" d="M70.99,-165.64C101.33,-144.6 168.83,-97.79 205.37,-72.45"/>
<polygon fill="#63b8ff" stroke="#63b8ff" points="207.33,-75.35 213.55,-66.78 203.34,-69.6 207.33,-75.35"/>
</a>
</g>
</g>
<!-- Node3 -->
<g id="Node000003" class="node">
<title>Node3</title>
<g id="a_Node000003"><a xlink:href="../../d3/d73/classfl_1_1_fixed_vector.html#aa9b4bb53ec2f9d7ed6c2d237b22489b5" target="_top" xlink:title=" ">
<polygon fill="white" stroke="#666666" points="487.88,-303.75 366.12,-303.75 366.12,-283 487.88,-283 487.88,-303.75"/>
<text text-anchor="middle" x="427" y="-290.25" font-family="Helvetica,sans-Serif" font-size="10.00">fl::FixedVector::empty</text>
</a>
</g>
</g>
<!-- Node2&#45;&gt;Node3 -->
<g id="edge2_Node000002_Node000003" class="edge">
<title>Node2&#45;&gt;Node3</title>
<g id="a_edge2_Node000002_Node000003"><a xlink:title=" ">
<path fill="none" stroke="#63b8ff" d="M286.04,-265.24C309.17,-269.89 336.39,-275.36 360.64,-280.24"/>
<polygon fill="#63b8ff" stroke="#63b8ff" points="359.94,-283.66 370.43,-282.2 361.32,-276.8 359.94,-283.66"/>
</a>
</g>
</g>
<!-- Node5 -->
<g id="Node000005" class="node">
<title>Node5</title>
<g id="a_Node000005"><a xlink:href="../../d2/df3/classfl_1_1_fixed_map.html#a25851b559aa5ae81d52c0c5792d10bf5" target="_top" xlink:title=" ">
<polygon fill="white" stroke="#666666" points="666.25,-148.75 567.75,-148.75 567.75,-128 666.25,-128 666.25,-148.75"/>
<text text-anchor="middle" x="617" y="-135.25" font-family="Helvetica,sans-Serif" font-size="10.00">fl::FixedMap::end</text>
</a>
</g>
</g>
<!-- Node4&#45;&gt;Node5 -->
<g id="edge4_Node000004_Node000005" class="edge">
<title>Node4&#45;&gt;Node5</title>
<g id="a_edge4_Node000004_Node000005"><a xlink:title=" ">
<path fill="none" stroke="#63b8ff" d="M285.48,-166.99C306.48,-163.57 330.82,-159.91 353,-157.38 422.49,-149.42 502.72,-144.2 556.11,-141.27"/>
<polygon fill="#63b8ff" stroke="#63b8ff" points="556.1,-144.78 565.9,-140.75 555.73,-137.79 556.1,-144.78"/>
</a>
</g>
</g>
<!-- Node6 -->
<g id="Node000006" class="node">
<title>Node6</title>
<g id="a_Node000006"><a xlink:href="../../d3/d73/classfl_1_1_fixed_vector.html#af8f3eb485dff77110efec26993f206c4" target="_top" xlink:title=" ">
<polygon fill="white" stroke="#666666" points="841.25,-129.75 733,-129.75 733,-109 841.25,-109 841.25,-129.75"/>
<text text-anchor="middle" x="787.12" y="-116.25" font-family="Helvetica,sans-Serif" font-size="10.00">fl::FixedVector::end</text>
</a>
</g>
</g>
<!-- Node4&#45;&gt;Node6 -->
<g id="edge6_Node000004_Node000006" class="edge">
<title>Node4&#45;&gt;Node6</title>
<g id="a_edge6_Node000004_Node000006"><a xlink:title=" ">
<path fill="none" stroke="#63b8ff" d="M264,-165.57C288.19,-157.79 322.35,-147.6 353,-141.38 481.74,-115.24 636.19,-114.51 721.5,-116.7"/>
<polygon fill="#63b8ff" stroke="#63b8ff" points="721.21,-120.19 731.3,-116.97 721.41,-113.19 721.21,-120.19"/>
</a>
</g>
</g>
<!-- Node7 -->
<g id="Node000007" class="node">
<title>Node7</title>
<g id="a_Node000007"><a xlink:href="../../d2/df3/classfl_1_1_fixed_map.html#a85134d13ee9474e0ac60284e965ccbb3" target="_top" xlink:title=" ">
<polygon fill="white" stroke="#666666" points="476.25,-264.75 377.75,-264.75 377.75,-244 476.25,-244 476.25,-264.75"/>
<text text-anchor="middle" x="427" y="-251.25" font-family="Helvetica,sans-Serif" font-size="10.00">fl::FixedMap::find</text>
</a>
</g>
</g>
<!-- Node4&#45;&gt;Node7 -->
<g id="edge7_Node000004_Node000007" class="edge">
<title>Node4&#45;&gt;Node7</title>
<g id="a_edge7_Node000004_Node000007"><a xlink:title=" ">
<path fill="none" stroke="#63b8ff" d="M251.65,-187.15C275.2,-199.74 316.12,-220.61 353,-234.38 358.69,-236.5 364.71,-238.51 370.75,-240.38"/>
<polygon fill="#63b8ff" stroke="#63b8ff" points="369.55,-243.67 380.14,-243.15 371.54,-236.96 369.55,-243.67"/>
</a>
</g>
</g>
<!-- Node10 -->
<g id="Node000010" class="node">
<title>Node10</title>
<g id="a_Node000010"><a xlink:href="../../d3/d73/classfl_1_1_fixed_vector.html#ad54b97a02650df09aee087d758e0352a" target="_top" xlink:title=" ">
<polygon fill="white" stroke="#666666" points="498,-225.75 356,-225.75 356,-205 498,-205 498,-225.75"/>
<text text-anchor="middle" x="427" y="-212.25" font-family="Helvetica,sans-Serif" font-size="10.00">fl::FixedVector::push_back</text>
</a>
</g>
</g>
<!-- Node4&#45;&gt;Node10 -->
<g id="edge10_Node000004_Node000010" class="edge">
<title>Node4&#45;&gt;Node10</title>
<g id="a_edge10_Node000004_Node000010"><a xlink:title=" ">
<path fill="none" stroke="#63b8ff" d="M285.52,-187.14C308.87,-191.83 336.44,-197.37 360.96,-202.3"/>
<polygon fill="#63b8ff" stroke="#63b8ff" points="360,-205.68 370.49,-204.22 361.38,-198.81 360,-205.68"/>
</a>
</g>
</g>
<!-- Node11 -->
<g id="Node000011" class="node">
<title>Node11</title>
<g id="a_Node000011"><a xlink:href="../../d3/d73/classfl_1_1_fixed_vector.html#a1481ce4fe3255eceeefc7f876743a929" target="_top" xlink:title=" ">
<polygon fill="white" stroke="#666666" points="481.88,-186.75 372.12,-186.75 372.12,-166 481.88,-166 481.88,-186.75"/>
<text text-anchor="middle" x="427" y="-173.25" font-family="Helvetica,sans-Serif" font-size="10.00">fl::FixedVector::size</text>
</a>
</g>
</g>
<!-- Node4&#45;&gt;Node11 -->
<g id="edge11_Node000004_Node000011" class="edge">
<title>Node4&#45;&gt;Node11</title>
<g id="a_edge11_Node000004_Node000011"><a xlink:title=" ">
<path fill="none" stroke="#63b8ff" d="M285.52,-176.38C308.66,-176.38 335.97,-176.38 360.32,-176.38"/>
<polygon fill="#63b8ff" stroke="#63b8ff" points="360.13,-179.88 370.13,-176.38 360.13,-172.88 360.13,-179.88"/>
</a>
</g>
</g>
<!-- Node5&#45;&gt;Node6 -->
<g id="edge5_Node000005_Node000006" class="edge">
<title>Node5&#45;&gt;Node6</title>
<g id="a_edge5_Node000005_Node000006"><a xlink:title=" ">
<path fill="none" stroke="#63b8ff" d="M666.63,-132.88C683.65,-130.96 703.05,-128.76 721.2,-126.71"/>
<polygon fill="#63b8ff" stroke="#63b8ff" points="721.55,-130.19 731.09,-125.59 720.77,-123.24 721.55,-130.19"/>
</a>
</g>
</g>
<!-- Node7&#45;&gt;Node5 -->
<g id="edge9_Node000007_Node000005" class="edge">
<title>Node7&#45;&gt;Node5</title>
<g id="a_edge9_Node000007_Node000005"><a xlink:title=" ">
<path fill="none" stroke="#63b8ff" d="M476.63,-244.19C485,-241.57 493.43,-238.33 501,-234.38 539.9,-214.05 577.48,-178.81 598.59,-157.14"/>
<polygon fill="#63b8ff" stroke="#63b8ff" points="600.91,-159.78 605.28,-150.13 595.85,-154.95 600.91,-159.78"/>
</a>
</g>
</g>
<!-- Node8 -->
<g id="Node000008" class="node">
<title>Node8</title>
<g id="a_Node000008"><a xlink:href="../../d2/df3/classfl_1_1_fixed_map.html#a5bcfb52c7949403994eed767316e237b" target="_top" xlink:title=" ">
<polygon fill="#fff0f0" stroke="red" points="670.75,-264.75 563.25,-264.75 563.25,-244 670.75,-244 670.75,-264.75"/>
<text text-anchor="middle" x="617" y="-251.25" font-family="Helvetica,sans-Serif" font-size="10.00">fl::FixedMap::begin</text>
</a>
</g>
</g>
<!-- Node7&#45;&gt;Node8 -->
<g id="edge8_Node000007_Node000008" class="edge">
<title>Node7&#45;&gt;Node8</title>
<g id="a_edge8_Node000007_Node000008"><a xlink:title=" ">
<path fill="none" stroke="#63b8ff" d="M476.41,-254.38C499.24,-254.38 526.79,-254.38 551.37,-254.38"/>
<polygon fill="#63b8ff" stroke="#63b8ff" points="551.27,-257.88 561.27,-254.38 551.27,-250.88 551.27,-257.88"/>
</a>
</g>
</g>
<!-- Node13 -->
<g id="Node000013" class="node">
<title>Node13</title>
<g id="a_Node000013"><a xlink:href="../../d7/df1/classfl_1_1_fx_compositor.html#a709e5926d9918a9dcdbebf79e3a12fc0" target="_top" xlink:title=" ">
<polygon fill="white" stroke="#666666" points="501,-72.12 353,-72.12 353,-38.62 501,-38.62 501,-72.12"/>
<text text-anchor="start" x="361" y="-58.62" font-family="Helvetica,sans-Serif" font-size="10.00">fl::FxCompositor::complete</text>
<text text-anchor="middle" x="427" y="-45.88" font-family="Helvetica,sans-Serif" font-size="10.00">Transition</text>
</a>
</g>
</g>
<!-- Node12&#45;&gt;Node13 -->
<g id="edge13_Node000012_Node000013" class="edge">
<title>Node12&#45;&gt;Node13</title>
<g id="a_edge13_Node000012_Node000013"><a xlink:title=" ">
<path fill="none" stroke="#63b8ff" d="M317.37,-55.38C325.3,-55.38 333.32,-55.38 341.24,-55.38"/>
<polygon fill="#63b8ff" stroke="#63b8ff" points="341.22,-58.88 351.22,-55.38 341.22,-51.88 341.22,-58.88"/>
</a>
</g>
</g>
<!-- Node16 -->
<g id="Node000016" class="node">
<title>Node16</title>
<g id="a_Node000016"><a xlink:href="../../d7/dde/classfl_1_1_transition.html#ac43edc15263acfe1b5d1afc03d544b34" target="_top" xlink:title=" ">
<polygon fill="white" stroke="#666666" points="478.88,-20.75 375.12,-20.75 375.12,0 478.88,0 478.88,-20.75"/>
<text text-anchor="middle" x="427" y="-7.25" font-family="Helvetica,sans-Serif" font-size="10.00">fl::Transition::start</text>
</a>
</g>
</g>
<!-- Node12&#45;&gt;Node16 -->
<g id="edge16_Node000012_Node000016" class="edge">
<title>Node12&#45;&gt;Node16</title>
<g id="a_edge16_Node000012_Node000016"><a xlink:title=" ">
<path fill="none" stroke="#63b8ff" d="M278.47,-44.6C305.38,-38.35 339.5,-30.44 368.15,-23.79"/>
<polygon fill="#63b8ff" stroke="#63b8ff" points="368.81,-27.23 377.76,-21.56 367.23,-20.41 368.81,-27.23"/>
</a>
</g>
</g>
<!-- Node14 -->
<g id="Node000014" class="node">
<title>Node14</title>
<g id="a_Node000014"><a xlink:href="../../d7/dde/classfl_1_1_transition.html#a5ad9300c474f35b98872eed688244372" target="_top" xlink:title=" ">
<polygon fill="white" stroke="#666666" points="666.62,-29.75 567.38,-29.75 567.38,-9 666.62,-9 666.62,-29.75"/>
<text text-anchor="middle" x="617" y="-16.25" font-family="Helvetica,sans-Serif" font-size="10.00">fl::Transition::end</text>
</a>
</g>
</g>
<!-- Node13&#45;&gt;Node14 -->
<g id="edge14_Node000013_Node000014" class="edge">
<title>Node13&#45;&gt;Node14</title>
<g id="a_edge14_Node000013_Node000014"><a xlink:title=" ">
<path fill="none" stroke="#63b8ff" d="M501.49,-41.3C519.49,-37.86 538.54,-34.21 555.82,-30.9"/>
<polygon fill="#63b8ff" stroke="#63b8ff" points="556.25,-34.38 565.41,-29.06 554.93,-27.51 556.25,-34.38"/>
</a>
</g>
</g>
<!-- Node15 -->
<g id="Node000015" class="node">
<title>Node15</title>
<g id="a_Node000015"><a xlink:href="../../d7/df1/classfl_1_1_fx_compositor.html#a0ed0685b3caac53687f4d75402cd105d" target="_top" xlink:title=" ">
<polygon fill="white" stroke="#666666" points="697,-68.75 537,-68.75 537,-48 697,-48 697,-68.75"/>
<text text-anchor="middle" x="617" y="-55.25" font-family="Helvetica,sans-Serif" font-size="10.00">fl::FxCompositor::swapLayers</text>
</a>
</g>
</g>
<!-- Node13&#45;&gt;Node15 -->
<g id="edge15_Node000013_Node000015" class="edge">
<title>Node13&#45;&gt;Node15</title>
<g id="a_edge15_Node000013_Node000015"><a xlink:title=" ">
<path fill="none" stroke="#63b8ff" d="M501.49,-56.55C509.33,-56.67 517.37,-56.8 525.38,-56.93"/>
<polygon fill="#63b8ff" stroke="#63b8ff" points="525.09,-60.42 535.14,-57.08 525.2,-53.43 525.09,-60.42"/>
</a>
</g>
</g>
</g>
</svg>
