<?xml version="1.0" encoding="UTF-8" standalone="no"?>
<!DOCTYPE svg PUBLIC "-//W3C//DTD SVG 1.1//EN"
 "http://www.w3.org/Graphics/SVG/1.1/DTD/svg11.dtd">
<!-- Generated by graphviz version 12.2.1 (20241206.2353)
 -->
<!-- Title: fl::FxEngine::removeFx Pages: 1 -->
<svg width="725pt" height="182pt"
 viewBox="0.00 0.00 724.75 181.75" xmlns="http://www.w3.org/2000/svg" xmlns:xlink="http://www.w3.org/1999/xlink">
<g id="graph0" class="graph" transform="scale(1 1) rotate(0) translate(4 177.75)">
<title>fl::FxEngine::removeFx</title>
<!-- Node1 -->
<g id="Node000001" class="node">
<title>Node1</title>
<g id="a_Node000001"><a xlink:title="Requests removal of an effect from the engine, which might not happen immediately (for example the Fx...">
<polygon fill="#999999" stroke="#666666" points="128.5,-134.75 0,-134.75 0,-114 128.5,-114 128.5,-134.75"/>
<text text-anchor="middle" x="64.25" y="-121.25" font-family="Helvetica,sans-Serif" font-size="10.00">fl::FxEngine::removeFx</text>
</a>
</g>
</g>
<!-- Node2 -->
<g id="Node000002" class="node">
<title>Node2</title>
<g id="a_Node000002"><a xlink:href="../../d2/df3/classfl_1_1_fixed_map.html#ac2c703c3d250cdb2c30101766c1810d6" target="_top" xlink:title=" ">
<polygon fill="white" stroke="#666666" points="263.75,-173.75 167.5,-173.75 167.5,-153 263.75,-153 263.75,-173.75"/>
<text text-anchor="middle" x="215.62" y="-160.25" font-family="Helvetica,sans-Serif" font-size="10.00">fl::FixedMap::get</text>
</a>
</g>
</g>
<!-- Node1&#45;&gt;Node2 -->
<g id="edge1_Node000001_Node000002" class="edge">
<title>Node1&#45;&gt;Node2</title>
<g id="a_edge1_Node000001_Node000002"><a xlink:title=" ">
<path fill="none" stroke="#63b8ff" d="M106.86,-135.24C123.95,-139.7 143.93,-144.92 162.01,-149.64"/>
<polygon fill="#63b8ff" stroke="#63b8ff" points="160.96,-152.98 171.52,-152.12 162.72,-146.21 160.96,-152.98"/>
</a>
</g>
</g>
<!-- Node8 -->
<g id="Node000008" class="node">
<title>Node8</title>
<g id="a_Node000008"><a xlink:href="../../d2/df3/classfl_1_1_fixed_map.html#a460e3d43563610531faa13038b8f3682" target="_top" xlink:title=" ">
<polygon fill="white" stroke="#666666" points="264.5,-134.75 166.75,-134.75 166.75,-114 264.5,-114 264.5,-134.75"/>
<text text-anchor="middle" x="215.62" y="-121.25" font-family="Helvetica,sans-Serif" font-size="10.00">fl::FixedMap::has</text>
</a>
</g>
</g>
<!-- Node1&#45;&gt;Node8 -->
<g id="edge7_Node000001_Node000008" class="edge">
<title>Node1&#45;&gt;Node8</title>
<g id="a_edge7_Node000001_Node000008"><a xlink:title=" ">
<path fill="none" stroke="#63b8ff" d="M128.6,-124.38C137.44,-124.38 146.51,-124.38 155.28,-124.38"/>
<polygon fill="#63b8ff" stroke="#63b8ff" points="155.08,-127.88 165.08,-124.38 155.08,-120.88 155.08,-127.88"/>
</a>
</g>
</g>
<!-- Node9 -->
<g id="Node000009" class="node">
<title>Node9</title>
<g id="a_Node000009"><a xlink:href="../../d2/df3/classfl_1_1_fixed_map.html#a86e9680f024d9fb7a7fa9f96a90f4a1e" target="_top" xlink:title=" ">
<polygon fill="white" stroke="#666666" points="266.75,-95.75 164.5,-95.75 164.5,-75 266.75,-75 266.75,-95.75"/>
<text text-anchor="middle" x="215.62" y="-82.25" font-family="Helvetica,sans-Serif" font-size="10.00">fl::FixedMap::next</text>
</a>
</g>
</g>
<!-- Node1&#45;&gt;Node9 -->
<g id="edge10_Node000001_Node000009" class="edge">
<title>Node1&#45;&gt;Node9</title>
<g id="a_edge10_Node000001_Node000009"><a xlink:title=" ">
<path fill="none" stroke="#63b8ff" d="M106.86,-113.51C123.95,-109.05 143.93,-103.83 162.01,-99.11"/>
<polygon fill="#63b8ff" stroke="#63b8ff" points="162.72,-102.54 171.52,-96.63 160.96,-95.77 162.72,-102.54"/>
</a>
</g>
</g>
<!-- Node3 -->
<g id="Node000003" class="node">
<title>Node3</title>
<g id="a_Node000003"><a xlink:href="../../d2/df3/classfl_1_1_fixed_map.html#a25851b559aa5ae81d52c0c5792d10bf5" target="_top" xlink:title=" ">
<polygon fill="white" stroke="#666666" points="560.88,-153.75 462.38,-153.75 462.38,-133 560.88,-133 560.88,-153.75"/>
<text text-anchor="middle" x="511.62" y="-140.25" font-family="Helvetica,sans-Serif" font-size="10.00">fl::FixedMap::end</text>
</a>
</g>
</g>
<!-- Node2&#45;&gt;Node3 -->
<g id="edge2_Node000002_Node000003" class="edge">
<title>Node2&#45;&gt;Node3</title>
<g id="a_edge2_Node000002_Node000003"><a xlink:title=" ">
<path fill="none" stroke="#63b8ff" d="M263.97,-164.34C304.18,-164.71 363.37,-164.16 414.75,-159.38 426.46,-158.29 438.91,-156.6 450.82,-154.73"/>
<polygon fill="#63b8ff" stroke="#63b8ff" points="451.23,-158.21 460.54,-153.14 450.1,-151.3 451.23,-158.21"/>
</a>
</g>
</g>
<!-- Node5 -->
<g id="Node000005" class="node">
<title>Node5</title>
<g id="a_Node000005"><a xlink:href="../../d2/df3/classfl_1_1_fixed_map.html#a85134d13ee9474e0ac60284e965ccbb3" target="_top" xlink:title=" ">
<polygon fill="white" stroke="#666666" points="408,-134.75 309.5,-134.75 309.5,-114 408,-114 408,-134.75"/>
<text text-anchor="middle" x="358.75" y="-121.25" font-family="Helvetica,sans-Serif" font-size="10.00">fl::FixedMap::find</text>
</a>
</g>
</g>
<!-- Node2&#45;&gt;Node5 -->
<g id="edge4_Node000002_Node000005" class="edge">
<title>Node2&#45;&gt;Node5</title>
<g id="a_edge4_Node000002_Node000005"><a xlink:title=" ">
<path fill="none" stroke="#63b8ff" d="M255.94,-152.51C271.99,-148.07 290.76,-142.89 307.77,-138.19"/>
<polygon fill="#63b8ff" stroke="#63b8ff" points="308.48,-141.62 317.19,-135.58 306.62,-134.87 308.48,-141.62"/>
</a>
</g>
</g>
<!-- Node4 -->
<g id="Node000004" class="node">
<title>Node4</title>
<g id="a_Node000004"><a xlink:href="../../d3/d73/classfl_1_1_fixed_vector.html#af8f3eb485dff77110efec26993f206c4" target="_top" xlink:title=" ">
<polygon fill="white" stroke="#666666" points="716.75,-153.75 608.5,-153.75 608.5,-133 716.75,-133 716.75,-153.75"/>
<text text-anchor="middle" x="662.62" y="-140.25" font-family="Helvetica,sans-Serif" font-size="10.00">fl::FixedVector::end</text>
</a>
</g>
</g>
<!-- Node3&#45;&gt;Node4 -->
<g id="edge3_Node000003_Node000004" class="edge">
<title>Node3&#45;&gt;Node4</title>
<g id="a_edge3_Node000003_Node000004"><a xlink:title=" ">
<path fill="none" stroke="#63b8ff" d="M561,-143.38C572.4,-143.38 584.73,-143.38 596.73,-143.38"/>
<polygon fill="#63b8ff" stroke="#63b8ff" points="596.57,-146.88 606.57,-143.38 596.57,-139.88 596.57,-146.88"/>
</a>
</g>
</g>
<!-- Node5&#45;&gt;Node3 -->
<g id="edge6_Node000005_Node000003" class="edge">
<title>Node5&#45;&gt;Node3</title>
<g id="a_edge6_Node000005_Node000003"><a xlink:title=" ">
<path fill="none" stroke="#63b8ff" d="M408.32,-130.49C421.84,-132.19 436.7,-134.07 450.79,-135.84"/>
<polygon fill="#63b8ff" stroke="#63b8ff" points="450.03,-139.27 460.39,-137.05 450.9,-132.33 450.03,-139.27"/>
</a>
</g>
</g>
<!-- Node6 -->
<g id="Node000006" class="node">
<title>Node6</title>
<g id="a_Node000006"><a xlink:href="../../d2/df3/classfl_1_1_fixed_map.html#a5bcfb52c7949403994eed767316e237b" target="_top" xlink:title=" ">
<polygon fill="#fff0f0" stroke="red" points="565.38,-96.75 457.88,-96.75 457.88,-76 565.38,-76 565.38,-96.75"/>
<text text-anchor="middle" x="511.62" y="-83.25" font-family="Helvetica,sans-Serif" font-size="10.00">fl::FixedMap::begin</text>
</a>
</g>
</g>
<!-- Node5&#45;&gt;Node6 -->
<g id="edge5_Node000005_Node000006" class="edge">
<title>Node5&#45;&gt;Node6</title>
<g id="a_edge5_Node000005_Node000006"><a xlink:title=" ">
<path fill="none" stroke="#63b8ff" d="M402.58,-113.59C419.38,-109.36 438.86,-104.45 456.61,-99.98"/>
<polygon fill="#63b8ff" stroke="#63b8ff" points="457.38,-103.4 466.22,-97.56 455.67,-96.61 457.38,-103.4"/>
</a>
</g>
</g>
<!-- Node8&#45;&gt;Node3 -->
<g id="edge8_Node000008_Node000003" class="edge">
<title>Node8&#45;&gt;Node3</title>
<g id="a_edge8_Node000008_Node000003"><a xlink:title=" ">
<path fill="none" stroke="#63b8ff" d="M257.07,-135.19C271.39,-138.52 287.68,-141.73 302.75,-143.38 352.43,-148.79 409.19,-148.35 450.83,-146.8"/>
<polygon fill="#63b8ff" stroke="#63b8ff" points="450.8,-150.3 460.65,-146.4 450.51,-143.31 450.8,-150.3"/>
</a>
</g>
</g>
<!-- Node8&#45;&gt;Node5 -->
<g id="edge9_Node000008_Node000005" class="edge">
<title>Node8&#45;&gt;Node5</title>
<g id="a_edge9_Node000008_Node000005"><a xlink:title=" ">
<path fill="none" stroke="#63b8ff" d="M264.8,-124.38C275.46,-124.38 286.89,-124.38 297.96,-124.38"/>
<polygon fill="#63b8ff" stroke="#63b8ff" points="297.8,-127.88 307.8,-124.38 297.8,-120.88 297.8,-127.88"/>
</a>
</g>
</g>
<!-- Node9&#45;&gt;Node3 -->
<g id="edge14_Node000009_Node000003" class="edge">
<title>Node9&#45;&gt;Node3</title>
<g id="a_edge14_Node000009_Node000003"><a xlink:title=" ">
<path fill="none" stroke="#63b8ff" d="M266.94,-86.62C307.38,-88.54 365.37,-93.35 414.75,-105.38 436.61,-110.7 460.1,-119.95 478.36,-127.99"/>
<polygon fill="#63b8ff" stroke="#63b8ff" points="476.79,-131.12 487.35,-132.05 479.67,-124.74 476.79,-131.12"/>
</a>
</g>
</g>
<!-- Node9&#45;&gt;Node5 -->
<g id="edge15_Node000009_Node000005" class="edge">
<title>Node9&#45;&gt;Node5</title>
<g id="a_edge15_Node000009_Node000005"><a xlink:title=" ">
<path fill="none" stroke="#63b8ff" d="M255.94,-96.24C271.99,-100.68 290.76,-105.86 307.77,-110.56"/>
<polygon fill="#63b8ff" stroke="#63b8ff" points="306.62,-113.88 317.19,-113.17 308.48,-107.13 306.62,-113.88"/>
</a>
</g>
</g>
<!-- Node9&#45;&gt;Node6 -->
<g id="edge11_Node000009_Node000006" class="edge">
<title>Node9&#45;&gt;Node6</title>
<g id="a_edge11_Node000009_Node000006"><a xlink:title=" ">
<path fill="none" stroke="#63b8ff" d="M267.03,-76.47C278.72,-74.77 291.14,-73.25 302.75,-72.38 352.39,-68.65 365.1,-68.77 414.75,-72.38 424.98,-73.12 435.77,-74.3 446.28,-75.67"/>
<polygon fill="#63b8ff" stroke="#63b8ff" points="445.64,-79.12 456.03,-77.01 446.6,-72.18 445.64,-79.12"/>
</a>
</g>
</g>
<!-- Node10 -->
<g id="Node000010" class="node">
<title>Node10</title>
<g id="a_Node000010"><a xlink:href="../../d2/df3/classfl_1_1_fixed_map.html#aaa4e5e58299a89ab5a6784b011b2b2a7" target="_top" xlink:title=" ">
<polygon fill="white" stroke="#666666" points="414.75,-20.75 302.75,-20.75 302.75,0 414.75,0 414.75,-20.75"/>
<text text-anchor="middle" x="358.75" y="-7.25" font-family="Helvetica,sans-Serif" font-size="10.00">fl::FixedMap::empty</text>
</a>
</g>
</g>
<!-- Node9&#45;&gt;Node10 -->
<g id="edge12_Node000009_Node000010" class="edge">
<title>Node9&#45;&gt;Node10</title>
<g id="a_edge12_Node000009_Node000010"><a xlink:title=" ">
<path fill="none" stroke="#63b8ff" d="M233.43,-74.58C250.54,-63.8 278,-47.04 302.75,-34.38 308.57,-31.4 314.85,-28.43 321,-25.66"/>
<polygon fill="#63b8ff" stroke="#63b8ff" points="322.01,-29.04 329.76,-21.81 319.2,-22.63 322.01,-29.04"/>
</a>
</g>
</g>
<!-- Node11 -->
<g id="Node000011" class="node">
<title>Node11</title>
<g id="a_Node000011"><a xlink:href="../../d3/d73/classfl_1_1_fixed_vector.html#aa9b4bb53ec2f9d7ed6c2d237b22489b5" target="_top" xlink:title=" ">
<polygon fill="white" stroke="#666666" points="572.5,-20.75 450.75,-20.75 450.75,0 572.5,0 572.5,-20.75"/>
<text text-anchor="middle" x="511.62" y="-7.25" font-family="Helvetica,sans-Serif" font-size="10.00">fl::FixedVector::empty</text>
</a>
</g>
</g>
<!-- Node10&#45;&gt;Node11 -->
<g id="edge13_Node000010_Node000011" class="edge">
<title>Node10&#45;&gt;Node11</title>
<g id="a_edge13_Node000010_Node000011"><a xlink:title=" ">
<path fill="none" stroke="#63b8ff" d="M415.07,-10.38C422.9,-10.38 431.05,-10.38 439.13,-10.38"/>
<polygon fill="#63b8ff" stroke="#63b8ff" points="438.97,-13.88 448.97,-10.38 438.97,-6.88 438.97,-13.88"/>
</a>
</g>
</g>
</g>
</svg>
