<?xml version="1.0" encoding="UTF-8" standalone="no"?>
<!DOCTYPE svg PUBLIC "-//W3C//DTD SVG 1.1//EN"
 "http://www.w3.org/Graphics/SVG/1.1/DTD/svg11.dtd">
<!-- Generated by graphviz version 12.2.1 (20241206.2353)
 -->
<!-- Title: /home/runner/work/FastLED/FastLED/src/fl/rectangular_draw_buffer.h Pages: 1 -->
<svg width="799pt" height="281pt"
 viewBox="0.00 0.00 799.35 281.25" xmlns="http://www.w3.org/2000/svg" xmlns:xlink="http://www.w3.org/1999/xlink">
<g id="graph0" class="graph" transform="scale(1 1) rotate(0) translate(4 277.25)">
<title>/home/runner/work/FastLED/FastLED/src/fl/rectangular_draw_buffer.h</title>
<!-- Node1 -->
<g id="Node000001" class="node">
<title>Node1</title>
<g id="a_Node000001"><a xlink:title=" ">
<polygon fill="#999999" stroke="#666666" points="332,-273.25 182.5,-273.25 182.5,-227 332,-227 332,-273.25"/>
<text text-anchor="start" x="190.5" y="-259.75" font-family="Helvetica,sans-Serif" font-size="10.00">/home/runner/work/FastLED</text>
<text text-anchor="start" x="190.5" y="-247" font-family="Helvetica,sans-Serif" font-size="10.00">/FastLED/src/fl/rectangular</text>
<text text-anchor="middle" x="257.25" y="-234.25" font-family="Helvetica,sans-Serif" font-size="10.00">_draw_buffer.h</text>
</a>
</g>
</g>
<!-- Node2 -->
<g id="Node000002" class="node">
<title>Node2</title>
<g id="a_Node000002"><a xlink:title=" ">
<polygon fill="#e0e0e0" stroke="#999999" points="390.62,-77.5 337.88,-77.5 337.88,-56.75 390.62,-56.75 390.62,-77.5"/>
<text text-anchor="middle" x="364.25" y="-64" font-family="Helvetica,sans-Serif" font-size="10.00">stdint.h</text>
</a>
</g>
</g>
<!-- Node1&#45;&gt;Node2 -->
<g id="edge1_Node000001_Node000002" class="edge">
<title>Node1&#45;&gt;Node2</title>
<g id="a_edge1_Node000001_Node000002"><a xlink:title=" ">
<path fill="none" stroke="#63b8ff" d="M268.73,-226.61C282.86,-199.35 307.97,-152.26 332.25,-113.5 337.86,-104.54 344.54,-94.93 350.34,-86.87"/>
<polygon fill="#63b8ff" stroke="#63b8ff" points="353.11,-89.02 356.18,-78.88 347.45,-84.89 353.11,-89.02"/>
</a>
</g>
</g>
<!-- Node3 -->
<g id="Node000003" class="node">
<title>Node3</title>
<g id="a_Node000003"><a xlink:href="../../dc/db7/map_8h.html" target="_top" xlink:title=" ">
<polygon fill="white" stroke="#666666" points="380.12,-191 324.38,-191 324.38,-170.25 380.12,-170.25 380.12,-191"/>
<text text-anchor="middle" x="352.25" y="-177.5" font-family="Helvetica,sans-Serif" font-size="10.00">fl/map.h</text>
</a>
</g>
</g>
<!-- Node1&#45;&gt;Node3 -->
<g id="edge2_Node000001_Node000003" class="edge">
<title>Node1&#45;&gt;Node3</title>
<g id="a_edge2_Node000001_Node000003"><a xlink:title=" ">
<path fill="none" stroke="#63b8ff" d="M288.88,-226.65C302.04,-217.3 317.03,-206.65 329.13,-198.05"/>
<polygon fill="#63b8ff" stroke="#63b8ff" points="331.15,-200.91 337.27,-192.27 327.09,-195.21 331.15,-200.91"/>
</a>
</g>
</g>
<!-- Node5 -->
<g id="Node000005" class="node">
<title>Node5</title>
<g id="a_Node000005"><a xlink:href="../../df/d2a/namespace_8h.html" target="_top" xlink:title="Implements the FastLED namespace macros.">
<polygon fill="white" stroke="#666666" points="576.38,-20.75 486.12,-20.75 486.12,0 576.38,0 576.38,-20.75"/>
<text text-anchor="middle" x="531.25" y="-7.25" font-family="Helvetica,sans-Serif" font-size="10.00">fl/namespace.h</text>
</a>
</g>
</g>
<!-- Node1&#45;&gt;Node5 -->
<g id="edge28_Node000001_Node000005" class="edge">
<title>Node1&#45;&gt;Node5</title>
<g id="a_edge28_Node000001_Node000005"><a xlink:title=" ">
<path fill="none" stroke="#63b8ff" d="M332.3,-237.33C467.38,-214.25 741.7,-158.2 787.25,-77.5 791.78,-69.47 793.17,-63.82 787.25,-56.75 762.34,-27.04 655.56,-16.77 588.02,-13.23"/>
<polygon fill="#63b8ff" stroke="#63b8ff" points="588.38,-9.74 578.23,-12.75 588.04,-16.73 588.38,-9.74"/>
</a>
</g>
</g>
<!-- Node6 -->
<g id="Node000006" class="node">
<title>Node6</title>
<g id="a_Node000006"><a xlink:href="../../d6/d68/vector_8h.html" target="_top" xlink:title=" ">
<polygon fill="white" stroke="#666666" points="248.25,-134.25 184.25,-134.25 184.25,-113.5 248.25,-113.5 248.25,-134.25"/>
<text text-anchor="middle" x="216.25" y="-120.75" font-family="Helvetica,sans-Serif" font-size="10.00">fl/vector.h</text>
</a>
</g>
</g>
<!-- Node1&#45;&gt;Node6 -->
<g id="edge27_Node000001_Node000006" class="edge">
<title>Node1&#45;&gt;Node6</title>
<g id="a_edge27_Node000001_Node000006"><a xlink:title=" ">
<path fill="none" stroke="#63b8ff" d="M249.83,-226.62C242.19,-203.49 230.41,-167.79 223.02,-145.4"/>
<polygon fill="#63b8ff" stroke="#63b8ff" points="226.36,-144.34 219.9,-135.94 219.71,-146.54 226.36,-144.34"/>
</a>
</g>
</g>
<!-- Node8 -->
<g id="Node000008" class="node">
<title>Node8</title>
<g id="a_Node000008"><a xlink:href="../../df/d28/fl_2scoped__ptr_8h.html" target="_top" xlink:title=" ">
<polygon fill="white" stroke="#666666" points="184.5,-77.5 98,-77.5 98,-56.75 184.5,-56.75 184.5,-77.5"/>
<text text-anchor="middle" x="141.25" y="-64" font-family="Helvetica,sans-Serif" font-size="10.00">fl/scoped_ptr.h</text>
</a>
</g>
</g>
<!-- Node1&#45;&gt;Node8 -->
<g id="edge23_Node000001_Node000008" class="edge">
<title>Node1&#45;&gt;Node8</title>
<g id="a_edge23_Node000001_Node000008"><a xlink:title=" ">
<path fill="none" stroke="#63b8ff" d="M239.91,-226.9C222.59,-204.23 195.66,-167.73 175.25,-134.25 166.1,-119.25 157.07,-101.5 150.62,-88.17"/>
<polygon fill="#63b8ff" stroke="#63b8ff" points="153.78,-86.67 146.32,-79.15 147.46,-89.68 153.78,-86.67"/>
</a>
</g>
</g>
<!-- Node25 -->
<g id="Node000025" class="node">
<title>Node25</title>
<g id="a_Node000025"><a xlink:href="../../db/d37/fl_2slice_8h.html" target="_top" xlink:title=" ">
<polygon fill="white" stroke="#666666" points="56.5,-134.25 0,-134.25 0,-113.5 56.5,-113.5 56.5,-134.25"/>
<text text-anchor="middle" x="28.25" y="-120.75" font-family="Helvetica,sans-Serif" font-size="10.00">fl/slice.h</text>
</a>
</g>
</g>
<!-- Node1&#45;&gt;Node25 -->
<g id="edge24_Node000001_Node000025" class="edge">
<title>Node1&#45;&gt;Node25</title>
<g id="a_edge24_Node000001_Node000025"><a xlink:title=" ">
<path fill="none" stroke="#63b8ff" d="M182.43,-238.33C145.76,-230.11 102.65,-215.79 70.25,-191 54.59,-179.01 43.19,-159.39 36.25,-144.62"/>
<polygon fill="#63b8ff" stroke="#63b8ff" points="39.64,-143.63 32.43,-135.87 33.23,-146.44 39.64,-143.63"/>
</a>
</g>
</g>
<!-- Node3&#45;&gt;Node2 -->
<g id="edge3_Node000003_Node000002" class="edge">
<title>Node3&#45;&gt;Node2</title>
<g id="a_edge3_Node000003_Node000002"><a xlink:title=" ">
<path fill="none" stroke="#63b8ff" d="M347.45,-170.14C341.55,-157.23 332.94,-133.46 338.25,-113.5 340.69,-104.33 345.47,-95.09 350.27,-87.36"/>
<polygon fill="#63b8ff" stroke="#63b8ff" points="353.11,-89.41 355.78,-79.16 347.3,-85.51 353.11,-89.41"/>
</a>
</g>
</g>
<!-- Node4 -->
<g id="Node000004" class="node">
<title>Node4</title>
<g id="a_Node000004"><a xlink:title=" ">
<polygon fill="#e0e0e0" stroke="#999999" points="78.75,-20.75 23.75,-20.75 23.75,0 78.75,0 78.75,-20.75"/>
<text text-anchor="middle" x="51.25" y="-7.25" font-family="Helvetica,sans-Serif" font-size="10.00">stddef.h</text>
</a>
</g>
</g>
<!-- Node3&#45;&gt;Node4 -->
<g id="edge4_Node000003_Node000004" class="edge">
<title>Node3&#45;&gt;Node4</title>
<g id="a_edge4_Node000003_Node000004"><a xlink:title=" ">
<path fill="none" stroke="#63b8ff" d="M324.13,-178.77C265.88,-175.35 132.14,-158.57 68.25,-77.5 58.14,-64.67 53.99,-46.49 52.31,-32.44"/>
<polygon fill="#63b8ff" stroke="#63b8ff" points="55.8,-32.15 51.49,-22.48 48.82,-32.73 55.8,-32.15"/>
</a>
</g>
</g>
<!-- Node3&#45;&gt;Node5 -->
<g id="edge5_Node000003_Node000005" class="edge">
<title>Node3&#45;&gt;Node5</title>
<g id="a_edge5_Node000003_Node000005"><a xlink:title=" ">
<path fill="none" stroke="#63b8ff" d="M380.22,-178.14C434.11,-174.63 549.18,-163.77 573.25,-134.25 598.64,-103.11 568.32,-55.77 547.55,-29.88"/>
<polygon fill="#63b8ff" stroke="#63b8ff" points="550.27,-27.68 541.17,-22.25 544.9,-32.17 550.27,-27.68"/>
</a>
</g>
</g>
<!-- Node3&#45;&gt;Node6 -->
<g id="edge6_Node000003_Node000006" class="edge">
<title>Node3&#45;&gt;Node6</title>
<g id="a_edge6_Node000003_Node000006"><a xlink:title=" ">
<path fill="none" stroke="#63b8ff" d="M327.94,-169.84C306.47,-161.19 274.93,-148.5 250.84,-138.8"/>
<polygon fill="#63b8ff" stroke="#63b8ff" points="252.34,-135.63 241.76,-135.14 249.73,-142.13 252.34,-135.63"/>
</a>
</g>
</g>
<!-- Node9 -->
<g id="Node000009" class="node">
<title>Node9</title>
<g id="a_Node000009"><a xlink:href="../../d1/d22/insert__result_8h.html" target="_top" xlink:title=" ">
<polygon fill="white" stroke="#666666" points="503.62,-77.5 408.88,-77.5 408.88,-56.75 503.62,-56.75 503.62,-77.5"/>
<text text-anchor="middle" x="456.25" y="-64" font-family="Helvetica,sans-Serif" font-size="10.00">fl/insert_result.h</text>
</a>
</g>
</g>
<!-- Node3&#45;&gt;Node9 -->
<g id="edge18_Node000003_Node000009" class="edge">
<title>Node3&#45;&gt;Node9</title>
<g id="a_edge18_Node000003_Node000009"><a xlink:title=" ">
<path fill="none" stroke="#63b8ff" d="M352.7,-170.02C353.83,-156.12 357.73,-130.22 371.25,-113.5 382.36,-99.76 398.77,-89.64 414.22,-82.48"/>
<polygon fill="#63b8ff" stroke="#63b8ff" points="415.48,-85.75 423.29,-78.59 412.72,-79.31 415.48,-85.75"/>
</a>
</g>
</g>
<!-- Node10 -->
<g id="Node000010" class="node">
<title>Node10</title>
<g id="a_Node000010"><a xlink:href="../../d8/d0c/template__magic_8h.html" target="_top" xlink:title=" ">
<polygon fill="white" stroke="#666666" points="564,-134.25 450.5,-134.25 450.5,-113.5 564,-113.5 564,-134.25"/>
<text text-anchor="middle" x="507.25" y="-120.75" font-family="Helvetica,sans-Serif" font-size="10.00">fl/template_magic.h</text>
</a>
</g>
</g>
<!-- Node3&#45;&gt;Node10 -->
<g id="edge15_Node000003_Node000010" class="edge">
<title>Node3&#45;&gt;Node10</title>
<g id="a_edge15_Node000003_Node000010"><a xlink:title=" ">
<path fill="none" stroke="#63b8ff" d="M379.96,-169.84C404.68,-161.11 441.12,-148.23 468.68,-138.5"/>
<polygon fill="#63b8ff" stroke="#63b8ff" points="469.83,-141.81 478.09,-135.17 467.5,-135.21 469.83,-141.81"/>
</a>
</g>
</g>
<!-- Node11 -->
<g id="Node000011" class="node">
<title>Node11</title>
<g id="a_Node000011"><a xlink:href="../../d3/d41/pair_8h.html" target="_top" xlink:title=" ">
<polygon fill="white" stroke="#666666" points="432.25,-134.25 380.25,-134.25 380.25,-113.5 432.25,-113.5 432.25,-134.25"/>
<text text-anchor="middle" x="406.25" y="-120.75" font-family="Helvetica,sans-Serif" font-size="10.00">fl/pair.h</text>
</a>
</g>
</g>
<!-- Node3&#45;&gt;Node11 -->
<g id="edge19_Node000003_Node000011" class="edge">
<title>Node3&#45;&gt;Node11</title>
<g id="a_edge19_Node000003_Node000011"><a xlink:title=" ">
<path fill="none" stroke="#63b8ff" d="M361.9,-169.84C369.35,-162.28 379.86,-151.64 388.77,-142.6"/>
<polygon fill="#63b8ff" stroke="#63b8ff" points="391.09,-145.23 395.62,-135.66 386.1,-140.32 391.09,-145.23"/>
</a>
</g>
</g>
<!-- Node12 -->
<g id="Node000012" class="node">
<title>Node12</title>
<g id="a_Node000012"><a xlink:href="../../dc/da7/assert_8h.html" target="_top" xlink:title=" ">
<polygon fill="white" stroke="#666666" points="684.25,-134.25 620.25,-134.25 620.25,-113.5 684.25,-113.5 684.25,-134.25"/>
<text text-anchor="middle" x="652.25" y="-120.75" font-family="Helvetica,sans-Serif" font-size="10.00">fl/assert.h</text>
</a>
</g>
</g>
<!-- Node3&#45;&gt;Node12 -->
<g id="edge20_Node000003_Node000012" class="edge">
<title>Node3&#45;&gt;Node12</title>
<g id="a_edge20_Node000003_Node000012"><a xlink:title=" ">
<path fill="none" stroke="#63b8ff" d="M380.48,-174.81C427.41,-166.76 524.41,-149.9 606.25,-134.25 607.23,-134.06 608.22,-133.87 609.22,-133.68"/>
<polygon fill="#63b8ff" stroke="#63b8ff" points="609.48,-137.19 618.61,-131.82 608.13,-130.33 609.48,-137.19"/>
</a>
</g>
</g>
<!-- Node6&#45;&gt;Node2 -->
<g id="edge7_Node000006_Node000002" class="edge">
<title>Node6&#45;&gt;Node2</title>
<g id="a_edge7_Node000006_Node000002"><a xlink:title=" ">
<path fill="none" stroke="#63b8ff" d="M242.71,-113.09C266.28,-104.37 301.01,-91.52 327.32,-81.79"/>
<polygon fill="#63b8ff" stroke="#63b8ff" points="328.44,-85.11 336.6,-78.35 326.01,-78.54 328.44,-85.11"/>
</a>
</g>
</g>
<!-- Node6&#45;&gt;Node4 -->
<g id="edge8_Node000006_Node000004" class="edge">
<title>Node6&#45;&gt;Node4</title>
<g id="a_edge8_Node000006_Node000004"><a xlink:title=" ">
<path fill="none" stroke="#63b8ff" d="M183.92,-117.79C156.21,-112.04 116.56,-100.32 89.25,-77.5 74.66,-65.31 64.48,-45.98 58.36,-31.37"/>
<polygon fill="#63b8ff" stroke="#63b8ff" points="61.72,-30.36 54.85,-22.29 55.19,-32.88 61.72,-30.36"/>
</a>
</g>
</g>
<!-- Node6&#45;&gt;Node5 -->
<g id="edge10_Node000006_Node000005" class="edge">
<title>Node6&#45;&gt;Node5</title>
<g id="a_edge10_Node000006_Node000005"><a xlink:title=" ">
<path fill="none" stroke="#63b8ff" d="M232.45,-113.02C261.22,-95.58 319.15,-60.73 329.25,-56.75 376.63,-38.09 433.44,-26.18 474.73,-19.27"/>
<polygon fill="#63b8ff" stroke="#63b8ff" points="475.13,-22.75 484.44,-17.7 474.01,-15.84 475.13,-22.75"/>
</a>
</g>
</g>
<!-- Node7 -->
<g id="Node000007" class="node">
<title>Node7</title>
<g id="a_Node000007"><a xlink:href="../../db/d36/inplacenew_8h.html" target="_top" xlink:title=" ">
<polygon fill="white" stroke="#666666" points="282.12,-77.5 202.38,-77.5 202.38,-56.75 282.12,-56.75 282.12,-77.5"/>
<text text-anchor="middle" x="242.25" y="-64" font-family="Helvetica,sans-Serif" font-size="10.00">inplacenew.h</text>
</a>
</g>
</g>
<!-- Node6&#45;&gt;Node7 -->
<g id="edge9_Node000006_Node000007" class="edge">
<title>Node6&#45;&gt;Node7</title>
<g id="a_edge9_Node000006_Node000007"><a xlink:title=" ">
<path fill="none" stroke="#63b8ff" d="M220.9,-113.09C224.19,-106.16 228.72,-96.62 232.76,-88.11"/>
<polygon fill="#63b8ff" stroke="#63b8ff" points="235.86,-89.73 236.99,-79.2 229.54,-86.73 235.86,-89.73"/>
</a>
</g>
</g>
<!-- Node6&#45;&gt;Node8 -->
<g id="edge11_Node000006_Node000008" class="edge">
<title>Node6&#45;&gt;Node8</title>
<g id="a_edge11_Node000006_Node000008"><a xlink:title=" ">
<path fill="none" stroke="#63b8ff" d="M202.84,-113.09C191.96,-105.15 176.39,-93.78 163.63,-84.46"/>
<polygon fill="#63b8ff" stroke="#63b8ff" points="165.91,-81.79 155.76,-78.72 161.78,-87.44 165.91,-81.79"/>
</a>
</g>
</g>
<!-- Node6&#45;&gt;Node9 -->
<g id="edge14_Node000006_Node000009" class="edge">
<title>Node6&#45;&gt;Node9</title>
<g id="a_edge14_Node000006_Node000009"><a xlink:title=" ">
<path fill="none" stroke="#63b8ff" d="M248.62,-115.49C287.94,-106.52 354.88,-91.25 402.1,-80.48"/>
<polygon fill="#63b8ff" stroke="#63b8ff" points="402.61,-83.95 411.58,-78.32 401.05,-77.13 402.61,-83.95"/>
</a>
</g>
</g>
<!-- Node8&#45;&gt;Node4 -->
<g id="edge12_Node000008_Node000004" class="edge">
<title>Node8&#45;&gt;Node4</title>
<g id="a_edge12_Node000008_Node000004"><a xlink:title=" ">
<path fill="none" stroke="#63b8ff" d="M125.16,-56.34C111.72,-48.16 92.32,-36.36 76.76,-26.9"/>
<polygon fill="#63b8ff" stroke="#63b8ff" points="78.86,-24.07 68.49,-21.87 75.22,-30.05 78.86,-24.07"/>
</a>
</g>
</g>
<!-- Node8&#45;&gt;Node5 -->
<g id="edge13_Node000008_Node000005" class="edge">
<title>Node8&#45;&gt;Node5</title>
<g id="a_edge13_Node000008_Node000005"><a xlink:title=" ">
<path fill="none" stroke="#63b8ff" d="M184.92,-58.11C187.74,-57.63 190.53,-57.18 193.25,-56.75 291.94,-41.24 407.38,-26.46 474.61,-18.19"/>
<polygon fill="#63b8ff" stroke="#63b8ff" points="474.78,-21.7 484.28,-17 473.93,-14.75 474.78,-21.7"/>
</a>
</g>
</g>
<!-- Node10&#45;&gt;Node2 -->
<g id="edge16_Node000010_Node000002" class="edge">
<title>Node10&#45;&gt;Node2</title>
<g id="a_edge16_Node000010_Node000002"><a xlink:title=" ">
<path fill="none" stroke="#63b8ff" d="M481.68,-113.09C459.01,-104.41 425.65,-91.63 400.27,-81.92"/>
<polygon fill="#63b8ff" stroke="#63b8ff" points="401.6,-78.68 391.01,-78.37 399.1,-85.21 401.6,-78.68"/>
</a>
</g>
</g>
<!-- Node10&#45;&gt;Node5 -->
<g id="edge17_Node000010_Node000005" class="edge">
<title>Node10&#45;&gt;Node5</title>
<g id="a_edge17_Node000010_Node000005"><a xlink:title=" ">
<path fill="none" stroke="#63b8ff" d="M509.3,-113.37C513.14,-95.52 521.51,-56.61 526.74,-32.34"/>
<polygon fill="#63b8ff" stroke="#63b8ff" points="530.14,-33.17 528.82,-22.65 523.3,-31.69 530.14,-33.17"/>
</a>
</g>
</g>
<!-- Node13 -->
<g id="Node000013" class="node">
<title>Node13</title>
<g id="a_Node000013"><a xlink:href="../../de/d77/warn_8h.html" target="_top" xlink:title=" ">
<polygon fill="#fff0f0" stroke="red" points="678.25,-77.5 620.25,-77.5 620.25,-56.75 678.25,-56.75 678.25,-77.5"/>
<text text-anchor="middle" x="649.25" y="-64" font-family="Helvetica,sans-Serif" font-size="10.00">fl/warn.h</text>
</a>
</g>
</g>
<!-- Node12&#45;&gt;Node13 -->
<g id="edge21_Node000012_Node000013" class="edge">
<title>Node12&#45;&gt;Node13</title>
<g id="a_edge21_Node000012_Node000013"><a xlink:title=" ">
<path fill="none" stroke="#63b8ff" d="M651.71,-113.09C651.35,-106.47 650.86,-97.47 650.41,-89.27"/>
<polygon fill="#63b8ff" stroke="#63b8ff" points="653.91,-89.13 649.86,-79.34 646.92,-89.52 653.91,-89.13"/>
</a>
</g>
</g>
<!-- Node15 -->
<g id="Node000015" class="node">
<title>Node15</title>
<g id="a_Node000015"><a xlink:href="../../d8/d00/strstream_8h.html" target="_top" xlink:title=" ">
<polygon fill="#fff0f0" stroke="red" points="777.88,-77.5 696.62,-77.5 696.62,-56.75 777.88,-56.75 777.88,-77.5"/>
<text text-anchor="middle" x="737.25" y="-64" font-family="Helvetica,sans-Serif" font-size="10.00">fl/strstream.h</text>
</a>
</g>
</g>
<!-- Node12&#45;&gt;Node15 -->
<g id="edge22_Node000012_Node000015" class="edge">
<title>Node12&#45;&gt;Node15</title>
<g id="a_edge22_Node000012_Node000015"><a xlink:title=" ">
<path fill="none" stroke="#63b8ff" d="M667.45,-113.09C680.02,-104.99 698.11,-93.33 712.73,-83.92"/>
<polygon fill="#63b8ff" stroke="#63b8ff" points="714.4,-87.01 720.91,-78.65 710.61,-81.12 714.4,-87.01"/>
</a>
</g>
</g>
<!-- Node25&#45;&gt;Node2 -->
<g id="edge25_Node000025_Node000002" class="edge">
<title>Node25&#45;&gt;Node2</title>
<g id="a_edge25_Node000025_Node000002"><a xlink:title=" ">
<path fill="none" stroke="#63b8ff" d="M56.9,-118.21C117.51,-108.33 258.7,-85.32 326.54,-74.27"/>
<polygon fill="#63b8ff" stroke="#63b8ff" points="326.75,-77.78 336.06,-72.72 325.62,-70.87 326.75,-77.78"/>
</a>
</g>
</g>
<!-- Node25&#45;&gt;Node4 -->
<g id="edge26_Node000025_Node000004" class="edge">
<title>Node25&#45;&gt;Node4</title>
<g id="a_edge26_Node000025_Node000004"><a xlink:title=" ">
<path fill="none" stroke="#63b8ff" d="M24.08,-113.23C19.03,-100.15 11.93,-76.18 18.25,-56.75 21.46,-46.87 27.72,-37.35 33.94,-29.6"/>
<polygon fill="#63b8ff" stroke="#63b8ff" points="36.39,-32.12 40.29,-22.27 31.1,-27.53 36.39,-32.12"/>
</a>
</g>
</g>
</g>
</svg>
