<?xml version="1.0" encoding="UTF-8" standalone="no"?>
<!DOCTYPE svg PUBLIC "-//W3C//DTD SVG 1.1//EN"
 "http://www.w3.org/Graphics/SVG/1.1/DTD/svg11.dtd">
<!-- Generated by graphviz version 12.2.1 (20241206.2353)
 -->
<!-- Title: fl::Animartrix Pages: 1 -->
<svg width="1106pt" height="179pt"
 viewBox="0.00 0.00 1106.25 179.12" xmlns="http://www.w3.org/2000/svg" xmlns:xlink="http://www.w3.org/1999/xlink">
<g id="graph0" class="graph" transform="scale(1 1) rotate(0) translate(4 175.12)">
<title>fl::Animartrix</title>
<!-- Node1 -->
<g id="Node000001" class="node">
<title>Node1</title>
<g id="a_Node000001"><a xlink:title=" ">
<polygon fill="#999999" stroke="#666666" points="465.88,-34.75 386.12,-34.75 386.12,-14 465.88,-14 465.88,-34.75"/>
<text text-anchor="middle" x="426" y="-21.25" font-family="Helvetica,sans-Serif" font-size="10.00">fl::Animartrix</text>
</a>
</g>
</g>
<!-- Node13 -->
<g id="Node000013" class="node">
<title>Node13</title>
<g id="a_Node000013"><a xlink:href="../../d1/dda/classfl_1_1_fast_l_e_d_a_n_i_mart_r_i_x.html" target="_top" xlink:title=" ">
<polygon fill="white" stroke="#666666" points="791.25,-67.75 668.75,-67.75 668.75,-47 791.25,-47 791.25,-67.75"/>
<text text-anchor="middle" x="730" y="-54.25" font-family="Helvetica,sans-Serif" font-size="10.00">fl::FastLEDANIMartRIX</text>
</a>
</g>
</g>
<!-- Node1&#45;&gt;Node13 -->
<g id="edge8_Node000013_Node000001" class="edge">
<title>Node1&#45;&gt;Node13</title>
<g id="a_edge8_Node000013_Node000001"><a xlink:title=" ">
<path fill="none" stroke="#9a32cd" stroke-dasharray="5,2" d="M477.49,-29.44C520.56,-33.82 584.12,-40.4 639.5,-46.62 648.83,-47.67 658.7,-48.82 668.35,-49.96"/>
<polygon fill="#9a32cd" stroke="#9a32cd" points="477.99,-25.98 467.69,-28.45 477.29,-32.94 477.99,-25.98"/>
</a>
</g>
<text text-anchor="middle" x="573.5" y="-49.88" font-family="Helvetica,sans-Serif" font-size="10.00" fill="grey"> data</text>
</g>
<!-- Node2 -->
<g id="Node000002" class="node">
<title>Node2</title>
<g id="a_Node000002"><a xlink:href="../../d7/d3e/classfl_1_1_fx2d.html" target="_top" xlink:title=" ">
<polygon fill="white" stroke="#666666" points="303.25,-59.75 251.25,-59.75 251.25,-39 303.25,-39 303.25,-59.75"/>
<text text-anchor="middle" x="277.25" y="-46.25" font-family="Helvetica,sans-Serif" font-size="10.00">fl::Fx2d</text>
</a>
</g>
</g>
<!-- Node2&#45;&gt;Node1 -->
<g id="edge1_Node000001_Node000002" class="edge">
<title>Node2&#45;&gt;Node1</title>
<g id="a_edge1_Node000001_Node000002"><a xlink:title=" ">
<path fill="none" stroke="#63b8ff" d="M314.81,-43.15C336.4,-39.47 363.72,-34.81 385.76,-31.06"/>
<polygon fill="#63b8ff" stroke="#63b8ff" points="314.24,-39.69 304.97,-44.82 315.42,-46.59 314.24,-39.69"/>
</a>
</g>
</g>
<!-- Node3 -->
<g id="Node000003" class="node">
<title>Node3</title>
<g id="a_Node000003"><a xlink:href="../../da/d5d/classfl_1_1_fx.html" target="_top" xlink:title=" ">
<polygon fill="white" stroke="#666666" points="157.88,-81.75 117.88,-81.75 117.88,-61 157.88,-61 157.88,-81.75"/>
<text text-anchor="middle" x="137.88" y="-68.25" font-family="Helvetica,sans-Serif" font-size="10.00">fl::Fx</text>
</a>
</g>
</g>
<!-- Node3&#45;&gt;Node2 -->
<g id="edge2_Node000002_Node000003" class="edge">
<title>Node3&#45;&gt;Node2</title>
<g id="a_edge2_Node000002_Node000003"><a xlink:title=" ">
<path fill="none" stroke="#63b8ff" d="M169.44,-66.48C193.93,-62.56 227.89,-57.12 250.89,-53.44"/>
<polygon fill="#63b8ff" stroke="#63b8ff" points="169.08,-62.99 159.76,-68.03 170.19,-69.9 169.08,-62.99"/>
</a>
</g>
</g>
<!-- Node4 -->
<g id="Node000004" class="node">
<title>Node4</title>
<g id="a_Node000004"><a xlink:href="../../d6/d16/classfl_1_1_referent.html" target="_top" xlink:title=" ">
<polygon fill="#fff0f0" stroke="red" points="70,-81.75 0,-81.75 0,-61 70,-61 70,-81.75"/>
<text text-anchor="middle" x="35" y="-68.25" font-family="Helvetica,sans-Serif" font-size="10.00">fl::Referent</text>
</a>
</g>
</g>
<!-- Node4&#45;&gt;Node3 -->
<g id="edge3_Node000003_Node000004" class="edge">
<title>Node4&#45;&gt;Node3</title>
<g id="a_edge3_Node000003_Node000004"><a xlink:title=" ">
<path fill="none" stroke="#63b8ff" d="M81.8,-71.38C94.4,-71.38 107.38,-71.38 117.58,-71.38"/>
<polygon fill="#63b8ff" stroke="#63b8ff" points="81.95,-67.88 71.95,-71.38 81.95,-74.88 81.95,-67.88"/>
</a>
</g>
</g>
<!-- Node11 -->
<g id="Node000011" class="node">
<title>Node11</title>
<g id="a_Node000011"><a xlink:href="../../d0/dce/classfl_1_1_x_y_map.html" target="_top" xlink:title=" ">
<polygon fill="white" stroke="#666666" points="168.75,-42.75 107,-42.75 107,-22 168.75,-22 168.75,-42.75"/>
<text text-anchor="middle" x="137.88" y="-29.25" font-family="Helvetica,sans-Serif" font-size="10.00">fl::XYMap</text>
</a>
</g>
</g>
<!-- Node11&#45;&gt;Node2 -->
<g id="edge4_Node000002_Node000011" class="edge">
<title>Node11&#45;&gt;Node2</title>
<g id="a_edge4_Node000002_Node000011"><a xlink:title=" ">
<path fill="none" stroke="#9a32cd" stroke-dasharray="5,2" d="M180.67,-33.53C197.13,-34.41 216.15,-35.94 233.25,-38.62 239.03,-39.53 245.16,-40.85 250.94,-42.25"/>
<polygon fill="#9a32cd" stroke="#9a32cd" points="180.87,-30.04 170.72,-33.08 180.54,-37.03 180.87,-30.04"/>
</a>
</g>
<text text-anchor="middle" x="210" y="-41.88" font-family="Helvetica,sans-Serif" font-size="10.00" fill="grey"> mXyMap</text>
</g>
<!-- Node12 -->
<g id="Node000012" class="node">
<title>Node12</title>
<g id="a_Node000012"><a xlink:href="../../df/d0b/classfl_1_1scoped__ptr.html" target="_top" xlink:title=" ">
<polygon fill="white" stroke="#666666" points="1098.25,-100.12 970.5,-100.12 970.5,-66.62 1098.25,-66.62 1098.25,-100.12"/>
<text text-anchor="start" x="978.5" y="-86.62" font-family="Helvetica,sans-Serif" font-size="10.00">fl::scoped_ptr&lt; fl</text>
<text text-anchor="middle" x="1034.38" y="-73.88" font-family="Helvetica,sans-Serif" font-size="10.00">::FastLEDANIMartRIX &gt;</text>
</a>
</g>
</g>
<!-- Node12&#45;&gt;Node1 -->
<g id="edge5_Node000001_Node000012" class="edge">
<title>Node12&#45;&gt;Node1</title>
<g id="a_edge5_Node000001_Node000012"><a xlink:title=" ">
<path fill="none" stroke="#9a32cd" stroke-dasharray="5,2" d="M971.84,-62.87C965.34,-60.92 958.8,-59.05 952.5,-57.38 886.64,-39.87 870.26,-32.83 802.5,-25.62 680.47,-12.65 534.86,-18.08 466.34,-21.86"/>
<polygon fill="#9a32cd" stroke="#9a32cd" points="970.67,-66.17 981.26,-65.76 972.72,-59.48 970.67,-66.17"/>
</a>
</g>
<text text-anchor="middle" x="730" y="-28.88" font-family="Helvetica,sans-Serif" font-size="10.00" fill="grey"> impl</text>
</g>
<!-- Node13&#45;&gt;Node12 -->
<g id="edge6_Node000012_Node000013" class="edge">
<title>Node13&#45;&gt;Node12</title>
<g id="a_edge6_Node000012_Node000013"><a xlink:title=" ">
<path fill="none" stroke="#9a32cd" stroke-dasharray="5,2" d="M803.05,-60.55C846.43,-62.82 902.72,-66.42 952.5,-71.62 958.29,-72.23 964.29,-72.94 970.3,-73.71"/>
<polygon fill="#9a32cd" stroke="#9a32cd" points="803.43,-57.06 793.26,-60.05 803.07,-64.06 803.43,-57.06"/>
</a>
</g>
<text text-anchor="middle" x="886.5" y="-74.88" font-family="Helvetica,sans-Serif" font-size="10.00" fill="grey"> ptr_</text>
</g>
<!-- Node14 -->
<g id="Node000014" class="node">
<title>Node14</title>
<g id="a_Node000014"><a xlink:href="../../df/d5e/classanimartrix__detail_1_1_a_n_i_mart_r_i_x.html" target="_top" xlink:title=" ">
<polygon fill="#fff0f0" stroke="red" points="479,-94.12 373,-94.12 373,-60.62 479,-60.62 479,-94.12"/>
<text text-anchor="start" x="381" y="-80.62" font-family="Helvetica,sans-Serif" font-size="10.00">animartrix_detail::</text>
<text text-anchor="middle" x="426" y="-67.88" font-family="Helvetica,sans-Serif" font-size="10.00">ANIMartRIX</text>
</a>
</g>
</g>
<!-- Node14&#45;&gt;Node13 -->
<g id="edge7_Node000013_Node000014" class="edge">
<title>Node14&#45;&gt;Node13</title>
<g id="a_edge7_Node000013_Node000014"><a xlink:title=" ">
<path fill="none" stroke="#63b8ff" d="M490.63,-73.2C532.85,-70.43 589.49,-66.7 639.5,-63.38 648.82,-62.76 658.69,-62.1 668.34,-61.45"/>
<polygon fill="#63b8ff" stroke="#63b8ff" points="490.66,-69.69 480.91,-73.84 491.12,-76.68 490.66,-69.69"/>
</a>
</g>
</g>
<!-- Node28 -->
<g id="Node000028" class="node">
<title>Node28</title>
<g id="a_Node000028"><a xlink:href="../../d8/d3d/structfl_1_1_pointer_deleter.html" target="_top" xlink:title=" ">
<polygon fill="white" stroke="#666666" points="802.5,-171.12 657.5,-171.12 657.5,-137.62 802.5,-137.62 802.5,-171.12"/>
<text text-anchor="start" x="665.5" y="-157.62" font-family="Helvetica,sans-Serif" font-size="10.00">fl::PointerDeleter</text>
<text text-anchor="middle" x="730" y="-144.88" font-family="Helvetica,sans-Serif" font-size="10.00">&lt; fl::FastLEDANIMartRIX &gt;</text>
</a>
</g>
</g>
<!-- Node28&#45;&gt;Node12 -->
<g id="edge9_Node000012_Node000028" class="edge">
<title>Node28&#45;&gt;Node12</title>
<g id="a_edge9_Node000012_Node000028"><a xlink:title=" ">
<path fill="none" stroke="#9a32cd" stroke-dasharray="5,2" d="M814.06,-142.48C855.96,-135.6 907.35,-125.83 952.5,-113.38 965.35,-109.83 979.04,-105.13 991.43,-100.49"/>
<polygon fill="#9a32cd" stroke="#9a32cd" points="813.59,-139.01 804.28,-144.06 814.71,-145.92 813.59,-139.01"/>
</a>
</g>
<text text-anchor="middle" x="886.5" y="-144.47" font-family="Helvetica,sans-Serif" font-size="10.00" fill="grey"> deleter_</text>
</g>
<!-- Node29 -->
<g id="Node000029" class="node">
<title>Node29</title>
<g id="a_Node000029"><a xlink:href="../../d8/d3d/structfl_1_1_pointer_deleter.html" target="_top" xlink:title=" ">
<polygon fill="white" stroke="#666666" points="489.5,-164.75 362.5,-164.75 362.5,-144 489.5,-144 489.5,-164.75"/>
<text text-anchor="middle" x="426" y="-151.25" font-family="Helvetica,sans-Serif" font-size="10.00">fl::PointerDeleter&lt; T &gt;</text>
</a>
</g>
</g>
<!-- Node29&#45;&gt;Node28 -->
<g id="edge10_Node000028_Node000029" class="edge">
<title>Node29&#45;&gt;Node28</title>
<g id="a_edge10_Node000028_Node000029"><a xlink:title=" ">
<path fill="none" stroke="orange" stroke-dasharray="5,2" d="M501.39,-154.38C548.89,-154.38 610.13,-154.38 657.13,-154.38"/>
<polygon fill="orange" stroke="orange" points="501.46,-150.88 491.46,-154.38 501.46,-157.88 501.46,-150.88"/>
</a>
</g>
<text text-anchor="middle" x="573.5" y="-157.62" font-family="Helvetica,sans-Serif" font-size="10.00" fill="grey"> &lt; fl::FastLEDANIMartRIX &gt;</text>
</g>
<!-- Node30 -->
<g id="Node000030" class="node">
<title>Node30</title>
<g id="a_Node000030"><a xlink:href="../../df/d0b/classfl_1_1scoped__ptr.html" target="_top" xlink:title=" ">
<polygon fill="white" stroke="#666666" points="780.75,-119.12 679.25,-119.12 679.25,-85.62 780.75,-85.62 780.75,-119.12"/>
<text text-anchor="start" x="687.25" y="-105.62" font-family="Helvetica,sans-Serif" font-size="10.00">fl::scoped_ptr&lt; T,</text>
<text text-anchor="middle" x="730" y="-92.88" font-family="Helvetica,sans-Serif" font-size="10.00"> Deleter &gt;</text>
</a>
</g>
</g>
<!-- Node30&#45;&gt;Node12 -->
<g id="edge11_Node000012_Node000030" class="edge">
<title>Node30&#45;&gt;Node12</title>
<g id="a_edge11_Node000012_Node000030"><a xlink:title=" ">
<path fill="none" stroke="orange" stroke-dasharray="5,2" d="M792.28,-98.52C844.06,-95.27 917.94,-90.63 970.23,-87.34"/>
<polygon fill="orange" stroke="orange" points="792.2,-95.02 782.44,-99.14 792.64,-102.01 792.2,-95.02"/>
</a>
</g>
<text text-anchor="middle" x="886.5" y="-99.48" font-family="Helvetica,sans-Serif" font-size="10.00" fill="grey"> &lt; fl::FastLEDANIMartRIX &gt;</text>
</g>
<!-- Node31 -->
<g id="Node000031" class="node">
<title>Node31</title>
<g id="a_Node000031"><a xlink:href="../../db/d87/group___pixel_types.html#d7/d82/struct_c_r_g_b" target="_top" xlink:title="Representation of an RGB pixel (Red, Green, Blue)">
<polygon fill="white" stroke="#666666" points="299.12,-20.75 255.38,-20.75 255.38,0 299.12,0 299.12,-20.75"/>
<text text-anchor="middle" x="277.25" y="-7.25" font-family="Helvetica,sans-Serif" font-size="10.00">CRGB</text>
</a>
</g>
</g>
<!-- Node31&#45;&gt;Node1 -->
<g id="edge12_Node000001_Node000031" class="edge">
<title>Node31&#45;&gt;Node1</title>
<g id="a_edge12_Node000001_Node000031"><a xlink:title=" ">
<path fill="none" stroke="#9a32cd" stroke-dasharray="5,2" d="M310.88,-13.44C321.59,-14.45 333.55,-15.58 344.5,-16.62 357.92,-17.9 372.59,-19.31 385.69,-20.58"/>
<polygon fill="#9a32cd" stroke="#9a32cd" points="311.23,-9.96 300.94,-12.51 310.57,-16.93 311.23,-9.96"/>
</a>
</g>
<text text-anchor="middle" x="332.88" y="-19.88" font-family="Helvetica,sans-Serif" font-size="10.00" fill="grey"> leds</text>
</g>
</g>
</svg>
