<?xml version="1.0" encoding="UTF-8" standalone="no"?>
<!DOCTYPE svg PUBLIC "-//W3C//DTD SVG 1.1//EN"
 "http://www.w3.org/Graphics/SVG/1.1/DTD/svg11.dtd">
<!-- Generated by graphviz version 12.2.1 (20241206.2353)
 -->
<!-- Title: /home/runner/work/FastLED/FastLED/src/fl/lut.h Pages: 1 -->
<svg width="485pt" height="212pt"
 viewBox="0.00 0.00 484.88 211.75" xmlns="http://www.w3.org/2000/svg" xmlns:xlink="http://www.w3.org/1999/xlink">
<g id="graph0" class="graph" transform="scale(1 1) rotate(0) translate(4 207.75)">
<title>/home/runner/work/FastLED/FastLED/src/fl/lut.h</title>
<!-- Node1 -->
<g id="Node000001" class="node">
<title>Node1</title>
<g id="a_Node000001"><a xlink:title=" ">
<polygon fill="#999999" stroke="#666666" points="275.12,-203.75 125.62,-203.75 125.62,-170.25 275.12,-170.25 275.12,-203.75"/>
<text text-anchor="start" x="133.62" y="-190.25" font-family="Helvetica,sans-Serif" font-size="10.00">/home/runner/work/FastLED</text>
<text text-anchor="middle" x="200.38" y="-177.5" font-family="Helvetica,sans-Serif" font-size="10.00">/FastLED/src/fl/lut.h</text>
</a>
</g>
</g>
<!-- Node2 -->
<g id="Node000002" class="node">
<title>Node2</title>
<g id="a_Node000002"><a xlink:title=" ">
<polygon fill="#e0e0e0" stroke="#999999" points="52.75,-20.75 0,-20.75 0,0 52.75,0 52.75,-20.75"/>
<text text-anchor="middle" x="26.38" y="-7.25" font-family="Helvetica,sans-Serif" font-size="10.00">stdint.h</text>
</a>
</g>
</g>
<!-- Node1&#45;&gt;Node2 -->
<g id="edge1_Node000001_Node000002" class="edge">
<title>Node1&#45;&gt;Node2</title>
<g id="a_edge1_Node000001_Node000002"><a xlink:title=" ">
<path fill="none" stroke="#63b8ff" d="M125.37,-171.22C99.61,-163.42 71.87,-151.69 50.38,-134.25 27.54,-115.72 24.21,-105.84 16.38,-77.5 12.2,-62.42 15.19,-44.9 18.96,-31.68"/>
<polygon fill="#63b8ff" stroke="#63b8ff" points="22.22,-32.97 21.99,-22.38 15.57,-30.81 22.22,-32.97"/>
</a>
</g>
</g>
<!-- Node3 -->
<g id="Node000003" class="node">
<title>Node3</title>
<g id="a_Node000003"><a xlink:href="../../d7/df1/fl_2ptr_8h.html" target="_top" xlink:title=" ">
<polygon fill="white" stroke="#666666" points="223.75,-134.25 177,-134.25 177,-113.5 223.75,-113.5 223.75,-134.25"/>
<text text-anchor="middle" x="200.38" y="-120.75" font-family="Helvetica,sans-Serif" font-size="10.00">fl/ptr.h</text>
</a>
</g>
</g>
<!-- Node1&#45;&gt;Node3 -->
<g id="edge2_Node000001_Node000003" class="edge">
<title>Node1&#45;&gt;Node3</title>
<g id="a_edge2_Node000001_Node000003"><a xlink:title=" ">
<path fill="none" stroke="#63b8ff" d="M200.38,-169.94C200.38,-162.6 200.38,-153.82 200.38,-145.96"/>
<polygon fill="#63b8ff" stroke="#63b8ff" points="203.88,-146.23 200.38,-136.23 196.88,-146.23 203.88,-146.23"/>
</a>
</g>
</g>
<!-- Node5 -->
<g id="Node000005" class="node">
<title>Node5</title>
<g id="a_Node000005"><a xlink:href="../../df/d2a/namespace_8h.html" target="_top" xlink:title="Implements the FastLED namespace macros.">
<polygon fill="white" stroke="#666666" points="177.5,-20.75 87.25,-20.75 87.25,0 177.5,0 177.5,-20.75"/>
<text text-anchor="middle" x="132.38" y="-7.25" font-family="Helvetica,sans-Serif" font-size="10.00">fl/namespace.h</text>
</a>
</g>
</g>
<!-- Node1&#45;&gt;Node5 -->
<g id="edge15_Node000001_Node000005" class="edge">
<title>Node1&#45;&gt;Node5</title>
<g id="a_edge15_Node000001_Node000005"><a xlink:title=" ">
<path fill="none" stroke="#63b8ff" d="M148.34,-169.78C106.53,-153.68 50.62,-124.51 24.38,-77.5 9.43,-50.74 42.8,-33.51 76.28,-23.38"/>
<polygon fill="#63b8ff" stroke="#63b8ff" points="76.96,-26.82 85.64,-20.74 75.07,-20.08 76.96,-26.82"/>
</a>
</g>
</g>
<!-- Node8 -->
<g id="Node000008" class="node">
<title>Node8</title>
<g id="a_Node000008"><a xlink:href="../../d8/d2d/fl_2force__inline_8h.html" target="_top" xlink:title=" ">
<polygon fill="white" stroke="#666666" points="476.88,-134.25 385.88,-134.25 385.88,-113.5 476.88,-113.5 476.88,-134.25"/>
<text text-anchor="middle" x="431.38" y="-120.75" font-family="Helvetica,sans-Serif" font-size="10.00">fl/force_inline.h</text>
</a>
</g>
</g>
<!-- Node1&#45;&gt;Node8 -->
<g id="edge11_Node000001_Node000008" class="edge">
<title>Node1&#45;&gt;Node8</title>
<g id="a_edge11_Node000001_Node000008"><a xlink:title=" ">
<path fill="none" stroke="#63b8ff" d="M261.67,-169.78C299.78,-159.7 348.08,-146.92 383.4,-137.57"/>
<polygon fill="#63b8ff" stroke="#63b8ff" points="384.14,-140.99 392.91,-135.05 382.35,-134.23 384.14,-140.99"/>
</a>
</g>
</g>
<!-- Node9 -->
<g id="Node000009" class="node">
<title>Node9</title>
<g id="a_Node000009"><a xlink:href="../../d2/d6f/fl_2allocator_8h.html" target="_top" xlink:title=" ">
<polygon fill="white" stroke="#666666" points="367.38,-134.25 291.38,-134.25 291.38,-113.5 367.38,-113.5 367.38,-134.25"/>
<text text-anchor="middle" x="329.38" y="-120.75" font-family="Helvetica,sans-Serif" font-size="10.00">fl/allocator.h</text>
</a>
</g>
</g>
<!-- Node1&#45;&gt;Node9 -->
<g id="edge12_Node000001_Node000009" class="edge">
<title>Node1&#45;&gt;Node9</title>
<g id="a_edge12_Node000001_Node000009"><a xlink:title=" ">
<path fill="none" stroke="#63b8ff" d="M234.61,-169.78C254.42,-160.39 279.15,-148.67 298.38,-139.56"/>
<polygon fill="#63b8ff" stroke="#63b8ff" points="299.81,-142.76 307.35,-135.31 296.81,-136.43 299.81,-142.76"/>
</a>
</g>
</g>
<!-- Node4 -->
<g id="Node000004" class="node">
<title>Node4</title>
<g id="a_Node000004"><a xlink:title=" ">
<polygon fill="#e0e0e0" stroke="#999999" points="344.88,-20.75 289.88,-20.75 289.88,0 344.88,0 344.88,-20.75"/>
<text text-anchor="middle" x="317.38" y="-7.25" font-family="Helvetica,sans-Serif" font-size="10.00">stddef.h</text>
</a>
</g>
</g>
<!-- Node3&#45;&gt;Node4 -->
<g id="edge3_Node000003_Node000004" class="edge">
<title>Node3&#45;&gt;Node4</title>
<g id="a_edge3_Node000003_Node000004"><a xlink:title=" ">
<path fill="none" stroke="#63b8ff" d="M223.99,-117.91C246.29,-112.01 279.1,-99.99 298.38,-77.5 309.2,-64.87 313.87,-46.42 315.88,-32.22"/>
<polygon fill="#63b8ff" stroke="#63b8ff" points="319.32,-32.9 316.89,-22.59 312.36,-32.17 319.32,-32.9"/>
</a>
</g>
</g>
<!-- Node3&#45;&gt;Node5 -->
<g id="edge4_Node000003_Node000005" class="edge">
<title>Node3&#45;&gt;Node5</title>
<g id="a_edge4_Node000003_Node000005"><a xlink:title=" ">
<path fill="none" stroke="#63b8ff" d="M194.58,-113.37C183.44,-95.11 158.87,-54.81 144.16,-30.7"/>
<polygon fill="#63b8ff" stroke="#63b8ff" points="147.33,-29.18 139.14,-22.47 141.36,-32.83 147.33,-29.18"/>
</a>
</g>
</g>
<!-- Node6 -->
<g id="Node000006" class="node">
<title>Node6</title>
<g id="a_Node000006"><a xlink:href="../../df/d28/fl_2scoped__ptr_8h.html" target="_top" xlink:title=" ">
<polygon fill="white" stroke="#666666" points="289.62,-77.5 203.12,-77.5 203.12,-56.75 289.62,-56.75 289.62,-77.5"/>
<text text-anchor="middle" x="246.38" y="-64" font-family="Helvetica,sans-Serif" font-size="10.00">fl/scoped_ptr.h</text>
</a>
</g>
</g>
<!-- Node3&#45;&gt;Node6 -->
<g id="edge5_Node000003_Node000006" class="edge">
<title>Node3&#45;&gt;Node6</title>
<g id="a_edge5_Node000003_Node000006"><a xlink:title=" ">
<path fill="none" stroke="#63b8ff" d="M208.6,-113.09C214.81,-105.69 223.52,-95.32 231.01,-86.41"/>
<polygon fill="#63b8ff" stroke="#63b8ff" points="233.5,-88.9 237.25,-78.99 228.14,-84.39 233.5,-88.9"/>
</a>
</g>
</g>
<!-- Node7 -->
<g id="Node000007" class="node">
<title>Node7</title>
<g id="a_Node000007"><a xlink:href="../../d8/d0c/template__magic_8h.html" target="_top" xlink:title=" ">
<polygon fill="white" stroke="#666666" points="147.12,-77.5 33.62,-77.5 33.62,-56.75 147.12,-56.75 147.12,-77.5"/>
<text text-anchor="middle" x="90.38" y="-64" font-family="Helvetica,sans-Serif" font-size="10.00">fl/template_magic.h</text>
</a>
</g>
</g>
<!-- Node3&#45;&gt;Node7 -->
<g id="edge8_Node000003_Node000007" class="edge">
<title>Node3&#45;&gt;Node7</title>
<g id="a_edge8_Node000003_Node000007"><a xlink:title=" ">
<path fill="none" stroke="#63b8ff" d="M180.71,-113.09C163.82,-104.68 139.21,-92.43 119.94,-82.84"/>
<polygon fill="#63b8ff" stroke="#63b8ff" points="121.74,-79.83 111.23,-78.5 118.62,-86.09 121.74,-79.83"/>
</a>
</g>
</g>
<!-- Node6&#45;&gt;Node4 -->
<g id="edge6_Node000006_Node000004" class="edge">
<title>Node6&#45;&gt;Node4</title>
<g id="a_edge6_Node000006_Node000004"><a xlink:title=" ">
<path fill="none" stroke="#63b8ff" d="M259.07,-56.34C269.27,-48.47 283.82,-37.25 295.83,-27.99"/>
<polygon fill="#63b8ff" stroke="#63b8ff" points="297.81,-30.88 303.59,-22 293.54,-25.34 297.81,-30.88"/>
</a>
</g>
</g>
<!-- Node6&#45;&gt;Node5 -->
<g id="edge7_Node000006_Node000005" class="edge">
<title>Node6&#45;&gt;Node5</title>
<g id="a_edge7_Node000006_Node000005"><a xlink:title=" ">
<path fill="none" stroke="#63b8ff" d="M225.99,-56.34C208.41,-47.89 182.75,-35.57 162.74,-25.96"/>
<polygon fill="#63b8ff" stroke="#63b8ff" points="164.47,-22.91 153.94,-21.73 161.44,-29.22 164.47,-22.91"/>
</a>
</g>
</g>
<!-- Node7&#45;&gt;Node2 -->
<g id="edge9_Node000007_Node000002" class="edge">
<title>Node7&#45;&gt;Node2</title>
<g id="a_edge9_Node000007_Node000002"><a xlink:title=" ">
<path fill="none" stroke="#63b8ff" d="M78.93,-56.34C69.92,-48.63 57.14,-37.7 46.44,-28.54"/>
<polygon fill="#63b8ff" stroke="#63b8ff" points="48.74,-25.9 38.87,-22.06 44.19,-31.22 48.74,-25.9"/>
</a>
</g>
</g>
<!-- Node7&#45;&gt;Node5 -->
<g id="edge10_Node000007_Node000005" class="edge">
<title>Node7&#45;&gt;Node5</title>
<g id="a_edge10_Node000007_Node000005"><a xlink:title=" ">
<path fill="none" stroke="#63b8ff" d="M97.88,-56.34C103.5,-49.02 111.34,-38.79 118.13,-29.94"/>
<polygon fill="#63b8ff" stroke="#63b8ff" points="120.7,-32.34 124.01,-22.28 115.15,-28.08 120.7,-32.34"/>
</a>
</g>
</g>
<!-- Node9&#45;&gt;Node4 -->
<g id="edge13_Node000009_Node000004" class="edge">
<title>Node9&#45;&gt;Node4</title>
<g id="a_edge13_Node000009_Node000004"><a xlink:title=" ">
<path fill="none" stroke="#63b8ff" d="M330.72,-113.39C332.31,-100.5 334.39,-76.74 331.38,-56.75 330.1,-48.31 327.57,-39.26 325,-31.49"/>
<polygon fill="#63b8ff" stroke="#63b8ff" points="328.39,-30.59 321.74,-22.34 321.8,-32.94 328.39,-30.59"/>
</a>
</g>
</g>
<!-- Node10 -->
<g id="Node000010" class="node">
<title>Node10</title>
<g id="a_Node000010"><a xlink:title=" ">
<polygon fill="#e0e0e0" stroke="#999999" points="435.75,-77.5 383,-77.5 383,-56.75 435.75,-56.75 435.75,-77.5"/>
<text text-anchor="middle" x="409.38" y="-64" font-family="Helvetica,sans-Serif" font-size="10.00">string.h</text>
</a>
</g>
</g>
<!-- Node9&#45;&gt;Node10 -->
<g id="edge14_Node000009_Node000010" class="edge">
<title>Node9&#45;&gt;Node10</title>
<g id="a_edge14_Node000009_Node000010"><a xlink:title=" ">
<path fill="none" stroke="#63b8ff" d="M343.68,-113.09C355.39,-105.07 372.21,-93.56 385.9,-84.19"/>
<polygon fill="#63b8ff" stroke="#63b8ff" points="387.67,-87.22 393.95,-78.68 383.72,-81.44 387.67,-87.22"/>
</a>
</g>
</g>
</g>
</svg>
