<?xml version="1.0" encoding="UTF-8" standalone="no"?>
<!DOCTYPE svg PUBLIC "-//W3C//DTD SVG 1.1//EN"
 "http://www.w3.org/Graphics/SVG/1.1/DTD/svg11.dtd">
<!-- Generated by graphviz version 12.2.1 (20241206.2353)
 -->
<!-- Title: fl::FixedSet::prev Pages: 1 -->
<svg width="562pt" height="181pt"
 viewBox="0.00 0.00 561.75 180.75" xmlns="http://www.w3.org/2000/svg" xmlns:xlink="http://www.w3.org/1999/xlink">
<g id="graph0" class="graph" transform="scale(1 1) rotate(0) translate(4 176.75)">
<title>fl::FixedSet::prev</title>
<!-- Node1 -->
<g id="Node000001" class="node">
<title>Node1</title>
<g id="a_Node000001"><a xlink:title=" ">
<polygon fill="#999999" stroke="#666666" points="97,-96.75 0,-96.75 0,-76 97,-76 97,-96.75"/>
<text text-anchor="middle" x="48.5" y="-83.25" font-family="Helvetica,sans-Serif" font-size="10.00">fl::FixedSet::prev</text>
</a>
</g>
</g>
<!-- Node2 -->
<g id="Node000002" class="node">
<title>Node2</title>
<g id="a_Node000002"><a xlink:href="../../dd/d44/classfl_1_1_fixed_set.html#a59ddf690c91b87bb207d2cb6d45b91be" target="_top" xlink:title=" ">
<polygon fill="white" stroke="#666666" points="390.75,-124.75 288.5,-124.75 288.5,-104 390.75,-104 390.75,-124.75"/>
<text text-anchor="middle" x="339.62" y="-111.25" font-family="Helvetica,sans-Serif" font-size="10.00">fl::FixedSet::begin</text>
</a>
</g>
</g>
<!-- Node1&#45;&gt;Node2 -->
<g id="edge1_Node000001_Node000002" class="edge">
<title>Node1&#45;&gt;Node2</title>
<g id="a_edge1_Node000001_Node000002"><a xlink:title=" ">
<path fill="none" stroke="#63b8ff" d="M90.43,-97.23C103.89,-100.39 119,-103.49 133,-105.38 180.97,-111.83 235.74,-113.97 276.69,-114.56"/>
<polygon fill="#63b8ff" stroke="#63b8ff" points="276.57,-118.06 286.61,-114.67 276.65,-111.06 276.57,-118.06"/>
</a>
</g>
</g>
<!-- Node4 -->
<g id="Node000004" class="node">
<title>Node4</title>
<g id="a_Node000004"><a xlink:href="../../dd/d44/classfl_1_1_fixed_set.html#adda91ee1f58ce57685107d939d674aa5" target="_top" xlink:title=" ">
<polygon fill="white" stroke="#666666" points="241.25,-172.75 134.5,-172.75 134.5,-152 241.25,-152 241.25,-172.75"/>
<text text-anchor="middle" x="187.88" y="-159.25" font-family="Helvetica,sans-Serif" font-size="10.00">fl::FixedSet::empty</text>
</a>
</g>
</g>
<!-- Node1&#45;&gt;Node4 -->
<g id="edge3_Node000001_Node000004" class="edge">
<title>Node1&#45;&gt;Node4</title>
<g id="a_edge3_Node000001_Node000004"><a xlink:title=" ">
<path fill="none" stroke="#63b8ff" d="M65.43,-97.22C81.95,-108.24 108.71,-125.48 133,-138.38 138.54,-141.32 144.51,-144.22 150.39,-146.94"/>
<polygon fill="#63b8ff" stroke="#63b8ff" points="148.83,-150.08 159.39,-150.99 151.7,-143.7 148.83,-150.08"/>
</a>
</g>
</g>
<!-- Node6 -->
<g id="Node000006" class="node">
<title>Node6</title>
<g id="a_Node000006"><a xlink:href="../../dd/d44/classfl_1_1_fixed_set.html#a56d8655dc1ed6607bac0ba0790a276fb" target="_top" xlink:title=" ">
<polygon fill="white" stroke="#666666" points="386.25,-67.75 293,-67.75 293,-47 386.25,-47 386.25,-67.75"/>
<text text-anchor="middle" x="339.62" y="-54.25" font-family="Helvetica,sans-Serif" font-size="10.00">fl::FixedSet::end</text>
</a>
</g>
</g>
<!-- Node1&#45;&gt;Node6 -->
<g id="edge5_Node000001_Node000006" class="edge">
<title>Node1&#45;&gt;Node6</title>
<g id="a_edge5_Node000001_Node000006"><a xlink:title=" ">
<path fill="none" stroke="#63b8ff" d="M90.43,-75.56C103.9,-72.4 119.01,-69.29 133,-67.38 182.74,-60.56 239.8,-58.21 281.18,-57.48"/>
<polygon fill="#63b8ff" stroke="#63b8ff" points="281.22,-60.98 291.17,-57.34 281.11,-53.98 281.22,-60.98"/>
</a>
</g>
</g>
<!-- Node8 -->
<g id="Node000008" class="node">
<title>Node8</title>
<g id="a_Node000008"><a xlink:href="../../dd/d44/classfl_1_1_fixed_set.html#a019cb08f32a7590c69a40f119c7ebb64" target="_top" xlink:title=" ">
<polygon fill="white" stroke="#666666" points="234.5,-96.75 141.25,-96.75 141.25,-76 234.5,-76 234.5,-96.75"/>
<text text-anchor="middle" x="187.88" y="-83.25" font-family="Helvetica,sans-Serif" font-size="10.00">fl::FixedSet::find</text>
</a>
</g>
</g>
<!-- Node1&#45;&gt;Node8 -->
<g id="edge7_Node000001_Node000008" class="edge">
<title>Node1&#45;&gt;Node8</title>
<g id="a_edge7_Node000001_Node000008"><a xlink:title=" ">
<path fill="none" stroke="#63b8ff" d="M97.16,-86.38C107.74,-86.38 119.06,-86.38 129.97,-86.38"/>
<polygon fill="#63b8ff" stroke="#63b8ff" points="129.64,-89.88 139.64,-86.38 129.64,-82.88 129.64,-89.88"/>
</a>
</g>
</g>
<!-- Node9 -->
<g id="Node000009" class="node">
<title>Node9</title>
<g id="a_Node000009"><a xlink:href="../../d3/d73/classfl_1_1_fixed_vector.html#a1481ce4fe3255eceeefc7f876743a929" target="_top" xlink:title=" ">
<polygon fill="white" stroke="#666666" points="242.75,-20.75 133,-20.75 133,0 242.75,0 242.75,-20.75"/>
<text text-anchor="middle" x="187.88" y="-7.25" font-family="Helvetica,sans-Serif" font-size="10.00">fl::FixedVector::size</text>
</a>
</g>
</g>
<!-- Node1&#45;&gt;Node9 -->
<g id="edge10_Node000001_Node000009" class="edge">
<title>Node1&#45;&gt;Node9</title>
<g id="a_edge10_Node000001_Node000009"><a xlink:title=" ">
<path fill="none" stroke="#63b8ff" d="M65.43,-75.53C81.95,-64.51 108.71,-47.27 133,-34.38 138.54,-31.43 144.51,-28.53 150.39,-25.81"/>
<polygon fill="#63b8ff" stroke="#63b8ff" points="151.7,-29.05 159.39,-21.76 148.83,-22.67 151.7,-29.05"/>
</a>
</g>
</g>
<!-- Node3 -->
<g id="Node000003" class="node">
<title>Node3</title>
<g id="a_Node000003"><a xlink:href="../../d3/d73/classfl_1_1_fixed_vector.html#a7ae4440fe977cc6495819cac64b7ad1a" target="_top" xlink:title=" ">
<polygon fill="white" stroke="#666666" points="553.75,-124.75 436.5,-124.75 436.5,-104 553.75,-104 553.75,-124.75"/>
<text text-anchor="middle" x="495.12" y="-111.25" font-family="Helvetica,sans-Serif" font-size="10.00">fl::FixedVector::begin</text>
</a>
</g>
</g>
<!-- Node2&#45;&gt;Node3 -->
<g id="edge2_Node000002_Node000003" class="edge">
<title>Node2&#45;&gt;Node3</title>
<g id="a_edge2_Node000002_Node000003"><a xlink:title=" ">
<path fill="none" stroke="#63b8ff" d="M390.89,-114.38C401.71,-114.38 413.33,-114.38 424.73,-114.38"/>
<polygon fill="#63b8ff" stroke="#63b8ff" points="424.51,-117.88 434.51,-114.38 424.51,-110.88 424.51,-117.88"/>
</a>
</g>
</g>
<!-- Node5 -->
<g id="Node000005" class="node">
<title>Node5</title>
<g id="a_Node000005"><a xlink:href="../../d3/d73/classfl_1_1_fixed_vector.html#aa9b4bb53ec2f9d7ed6c2d237b22489b5" target="_top" xlink:title=" ">
<polygon fill="white" stroke="#666666" points="400.5,-172.75 278.75,-172.75 278.75,-152 400.5,-152 400.5,-172.75"/>
<text text-anchor="middle" x="339.62" y="-159.25" font-family="Helvetica,sans-Serif" font-size="10.00">fl::FixedVector::empty</text>
</a>
</g>
</g>
<!-- Node4&#45;&gt;Node5 -->
<g id="edge4_Node000004_Node000005" class="edge">
<title>Node4&#45;&gt;Node5</title>
<g id="a_edge4_Node000004_Node000005"><a xlink:title=" ">
<path fill="none" stroke="#63b8ff" d="M241.67,-162.38C249.83,-162.38 258.38,-162.38 266.87,-162.38"/>
<polygon fill="#63b8ff" stroke="#63b8ff" points="266.87,-165.88 276.87,-162.38 266.87,-158.88 266.87,-165.88"/>
</a>
</g>
</g>
<!-- Node7 -->
<g id="Node000007" class="node">
<title>Node7</title>
<g id="a_Node000007"><a xlink:href="../../d3/d73/classfl_1_1_fixed_vector.html#af8f3eb485dff77110efec26993f206c4" target="_top" xlink:title=" ">
<polygon fill="white" stroke="#666666" points="549.25,-67.75 441,-67.75 441,-47 549.25,-47 549.25,-67.75"/>
<text text-anchor="middle" x="495.12" y="-54.25" font-family="Helvetica,sans-Serif" font-size="10.00">fl::FixedVector::end</text>
</a>
</g>
</g>
<!-- Node6&#45;&gt;Node7 -->
<g id="edge6_Node000006_Node000007" class="edge">
<title>Node6&#45;&gt;Node7</title>
<g id="a_edge6_Node000006_Node000007"><a xlink:title=" ">
<path fill="none" stroke="#63b8ff" d="M386.68,-57.38C400.06,-57.38 414.93,-57.38 429.23,-57.38"/>
<polygon fill="#63b8ff" stroke="#63b8ff" points="429.03,-60.88 439.03,-57.38 429.03,-53.88 429.03,-60.88"/>
</a>
</g>
</g>
<!-- Node8&#45;&gt;Node2 -->
<g id="edge8_Node000008_Node000002" class="edge">
<title>Node8&#45;&gt;Node2</title>
<g id="a_edge8_Node000008_Node000002"><a xlink:title=" ">
<path fill="none" stroke="#63b8ff" d="M234.62,-94.93C247.99,-97.43 262.83,-100.2 277.01,-102.85"/>
<polygon fill="#63b8ff" stroke="#63b8ff" points="276.24,-106.27 286.72,-104.67 277.53,-99.39 276.24,-106.27"/>
</a>
</g>
</g>
<!-- Node8&#45;&gt;Node6 -->
<g id="edge9_Node000008_Node000006" class="edge">
<title>Node8&#45;&gt;Node6</title>
<g id="a_edge9_Node000008_Node000006"><a xlink:title=" ">
<path fill="none" stroke="#63b8ff" d="M234.62,-77.52C249.43,-74.65 266.04,-71.43 281.57,-68.42"/>
<polygon fill="#63b8ff" stroke="#63b8ff" points="282.01,-71.9 291.16,-66.57 280.68,-65.03 282.01,-71.9"/>
</a>
</g>
</g>
</g>
</svg>
