<?xml version="1.0" encoding="UTF-8" standalone="no"?>
<!DOCTYPE svg PUBLIC "-//W3C//DTD SVG 1.1//EN"
 "http://www.w3.org/Graphics/SVG/1.1/DTD/svg11.dtd">
<!-- Generated by graphviz version 12.2.1 (20241206.2353)
 -->
<!-- Title: fl::FixedSet::erase Pages: 1 -->
<svg width="408pt" height="68pt"
 viewBox="0.00 0.00 407.75 67.75" xmlns="http://www.w3.org/2000/svg" xmlns:xlink="http://www.w3.org/1999/xlink">
<g id="graph0" class="graph" transform="scale(1 1) rotate(0) translate(4 63.75)">
<title>fl::FixedSet::erase</title>
<!-- Node1 -->
<g id="Node000001" class="node">
<title>Node1</title>
<g id="a_Node000001"><a xlink:title=" ">
<polygon fill="#999999" stroke="#666666" points="102.25,-39.75 0,-39.75 0,-19 102.25,-19 102.25,-39.75"/>
<text text-anchor="middle" x="51.12" y="-26.25" font-family="Helvetica,sans-Serif" font-size="10.00">fl::FixedSet::erase</text>
</a>
</g>
</g>
<!-- Node2 -->
<g id="Node000002" class="node">
<title>Node2</title>
<g id="a_Node000002"><a xlink:href="../../dd/d44/classfl_1_1_fixed_set.html#a56d8655dc1ed6607bac0ba0790a276fb" target="_top" xlink:title=" ">
<polygon fill="white" stroke="#666666" points="243.5,-59.75 150.25,-59.75 150.25,-39 243.5,-39 243.5,-59.75"/>
<text text-anchor="middle" x="196.88" y="-46.25" font-family="Helvetica,sans-Serif" font-size="10.00">fl::FixedSet::end</text>
</a>
</g>
</g>
<!-- Node1&#45;&gt;Node2 -->
<g id="edge1_Node000001_Node000002" class="edge">
<title>Node1&#45;&gt;Node2</title>
<g id="a_edge1_Node000001_Node000002"><a xlink:title=" ">
<path fill="none" stroke="#63b8ff" d="M102.4,-36.37C114.18,-38.01 126.82,-39.77 138.87,-41.44"/>
<polygon fill="#63b8ff" stroke="#63b8ff" points="138.31,-44.9 148.69,-42.81 139.27,-37.97 138.31,-44.9"/>
</a>
</g>
</g>
<!-- Node4 -->
<g id="Node000004" class="node">
<title>Node4</title>
<g id="a_Node000004"><a xlink:href="../../d3/d73/classfl_1_1_fixed_vector.html#ad6ba1f77947ca05fd915d93998d4101c" target="_top" xlink:title=" ">
<polygon fill="white" stroke="#666666" points="255.5,-20.75 138.25,-20.75 138.25,0 255.5,0 255.5,-20.75"/>
<text text-anchor="middle" x="196.88" y="-7.25" font-family="Helvetica,sans-Serif" font-size="10.00">fl::FixedVector::erase</text>
</a>
</g>
</g>
<!-- Node1&#45;&gt;Node4 -->
<g id="edge3_Node000001_Node000004" class="edge">
<title>Node1&#45;&gt;Node4</title>
<g id="a_edge3_Node000001_Node000004"><a xlink:title=" ">
<path fill="none" stroke="#63b8ff" d="M102.4,-22.73C110.31,-21.69 118.59,-20.59 126.83,-19.5"/>
<polygon fill="#63b8ff" stroke="#63b8ff" points="127.04,-23 136.49,-18.22 126.12,-16.06 127.04,-23"/>
</a>
</g>
</g>
<!-- Node3 -->
<g id="Node000003" class="node">
<title>Node3</title>
<g id="a_Node000003"><a xlink:href="../../d3/d73/classfl_1_1_fixed_vector.html#af8f3eb485dff77110efec26993f206c4" target="_top" xlink:title=" ">
<polygon fill="white" stroke="#666666" points="399.75,-39.75 291.5,-39.75 291.5,-19 399.75,-19 399.75,-39.75"/>
<text text-anchor="middle" x="345.62" y="-26.25" font-family="Helvetica,sans-Serif" font-size="10.00">fl::FixedVector::end</text>
</a>
</g>
</g>
<!-- Node2&#45;&gt;Node3 -->
<g id="edge2_Node000002_Node000003" class="edge">
<title>Node2&#45;&gt;Node3</title>
<g id="a_edge2_Node000002_Node000003"><a xlink:title=" ">
<path fill="none" stroke="#63b8ff" d="M243.9,-43.1C255.36,-41.54 267.85,-39.84 280.02,-38.18"/>
<polygon fill="#63b8ff" stroke="#63b8ff" points="280.13,-41.7 289.56,-36.88 279.18,-34.76 280.13,-41.7"/>
</a>
</g>
</g>
<!-- Node4&#45;&gt;Node3 -->
<g id="edge4_Node000004_Node000003" class="edge">
<title>Node4&#45;&gt;Node3</title>
<g id="a_edge4_Node000004_Node000003"><a xlink:title=" ">
<path fill="none" stroke="#63b8ff" d="M255.87,-17.88C263.82,-18.91 272.03,-19.98 280.09,-21.02"/>
<polygon fill="#63b8ff" stroke="#63b8ff" points="279.47,-24.47 289.84,-22.28 280.37,-17.53 279.47,-24.47"/>
</a>
</g>
</g>
</g>
</svg>
