<?xml version="1.0" encoding="UTF-8" standalone="no"?>
<!DOCTYPE svg PUBLIC "-//W3C//DTD SVG 1.1//EN"
 "http://www.w3.org/Graphics/SVG/1.1/DTD/svg11.dtd">
<!-- Generated by graphviz version 12.2.1 (20241206.2353)
 -->
<!-- Title: fl::FixedSet::insert Pages: 1 -->
<svg width="581pt" height="145pt"
 viewBox="0.00 0.00 580.50 144.75" xmlns="http://www.w3.org/2000/svg" xmlns:xlink="http://www.w3.org/1999/xlink">
<g id="graph0" class="graph" transform="scale(1 1) rotate(0) translate(4 140.75)">
<title>fl::FixedSet::insert</title>
<!-- Node1 -->
<g id="Node000001" class="node">
<title>Node1</title>
<g id="a_Node000001"><a xlink:title=" ">
<polygon fill="#999999" stroke="#666666" points="103,-78.75 0,-78.75 0,-58 103,-58 103,-78.75"/>
<text text-anchor="middle" x="51.5" y="-65.25" font-family="Helvetica,sans-Serif" font-size="10.00">fl::FixedSet::insert</text>
</a>
</g>
</g>
<!-- Node2 -->
<g id="Node000002" class="node">
<title>Node2</title>
<g id="a_Node000002"><a xlink:href="../../dd/d44/classfl_1_1_fixed_set.html#a56d8655dc1ed6607bac0ba0790a276fb" target="_top" xlink:title=" ">
<polygon fill="white" stroke="#666666" points="414.75,-136.75 321.5,-136.75 321.5,-116 414.75,-116 414.75,-136.75"/>
<text text-anchor="middle" x="368.12" y="-123.25" font-family="Helvetica,sans-Serif" font-size="10.00">fl::FixedSet::end</text>
</a>
</g>
</g>
<!-- Node1&#45;&gt;Node2 -->
<g id="edge1_Node000001_Node000002" class="edge">
<title>Node1&#45;&gt;Node2</title>
<g id="a_edge1_Node000001_Node000002"><a xlink:title=" ">
<path fill="none" stroke="#63b8ff" d="M71.39,-79.17C88.47,-88.36 114.6,-101.06 139,-107.38 195.93,-122.11 263.25,-126.16 309.94,-126.95"/>
<polygon fill="#63b8ff" stroke="#63b8ff" points="309.8,-130.45 319.84,-127.07 309.88,-123.45 309.8,-130.45"/>
</a>
</g>
</g>
<!-- Node4 -->
<g id="Node000004" class="node">
<title>Node4</title>
<g id="a_Node000004"><a xlink:href="../../dd/d44/classfl_1_1_fixed_set.html#a019cb08f32a7590c69a40f119c7ebb64" target="_top" xlink:title=" ">
<polygon fill="white" stroke="#666666" points="256.62,-98.75 163.38,-98.75 163.38,-78 256.62,-78 256.62,-98.75"/>
<text text-anchor="middle" x="210" y="-85.25" font-family="Helvetica,sans-Serif" font-size="10.00">fl::FixedSet::find</text>
</a>
</g>
</g>
<!-- Node1&#45;&gt;Node4 -->
<g id="edge3_Node000001_Node000004" class="edge">
<title>Node1&#45;&gt;Node4</title>
<g id="a_edge3_Node000001_Node000004"><a xlink:title=" ">
<path fill="none" stroke="#63b8ff" d="M103.31,-74.87C118.75,-76.84 135.83,-79.02 151.67,-81.05"/>
<polygon fill="#63b8ff" stroke="#63b8ff" points="151.08,-84.5 161.44,-82.3 151.96,-77.56 151.08,-84.5"/>
</a>
</g>
</g>
<!-- Node7 -->
<g id="Node000007" class="node">
<title>Node7</title>
<g id="a_Node000007"><a xlink:href="../../d3/d73/classfl_1_1_fixed_vector.html#ad54b97a02650df09aee087d758e0352a" target="_top" xlink:title=" ">
<polygon fill="white" stroke="#666666" points="281,-59.75 139,-59.75 139,-39 281,-39 281,-59.75"/>
<text text-anchor="middle" x="210" y="-46.25" font-family="Helvetica,sans-Serif" font-size="10.00">fl::FixedVector::push_back</text>
</a>
</g>
</g>
<!-- Node1&#45;&gt;Node7 -->
<g id="edge7_Node000001_Node000007" class="edge">
<title>Node1&#45;&gt;Node7</title>
<g id="a_edge7_Node000001_Node000007"><a xlink:title=" ">
<path fill="none" stroke="#63b8ff" d="M103.31,-62.21C111.04,-61.27 119.18,-60.28 127.37,-59.28"/>
<polygon fill="#63b8ff" stroke="#63b8ff" points="127.53,-62.79 137.04,-58.11 126.69,-55.84 127.53,-62.79"/>
</a>
</g>
</g>
<!-- Node8 -->
<g id="Node000008" class="node">
<title>Node8</title>
<g id="a_Node000008"><a xlink:href="../../d3/d73/classfl_1_1_fixed_vector.html#a1481ce4fe3255eceeefc7f876743a929" target="_top" xlink:title=" ">
<polygon fill="white" stroke="#666666" points="264.88,-20.75 155.12,-20.75 155.12,0 264.88,0 264.88,-20.75"/>
<text text-anchor="middle" x="210" y="-7.25" font-family="Helvetica,sans-Serif" font-size="10.00">fl::FixedVector::size</text>
</a>
</g>
</g>
<!-- Node1&#45;&gt;Node8 -->
<g id="edge8_Node000001_Node000008" class="edge">
<title>Node1&#45;&gt;Node8</title>
<g id="a_edge8_Node000001_Node000008"><a xlink:title=" ">
<path fill="none" stroke="#63b8ff" d="M74.92,-57.52C92.19,-49.41 116.78,-38.39 139,-30.38 144.72,-28.31 150.77,-26.32 156.81,-24.44"/>
<polygon fill="#63b8ff" stroke="#63b8ff" points="157.6,-27.86 166.17,-21.63 155.58,-21.15 157.6,-27.86"/>
</a>
</g>
</g>
<!-- Node3 -->
<g id="Node000003" class="node">
<title>Node3</title>
<g id="a_Node000003"><a xlink:href="../../d3/d73/classfl_1_1_fixed_vector.html#af8f3eb485dff77110efec26993f206c4" target="_top" xlink:title=" ">
<polygon fill="white" stroke="#666666" points="568,-136.75 459.75,-136.75 459.75,-116 568,-116 568,-136.75"/>
<text text-anchor="middle" x="513.88" y="-123.25" font-family="Helvetica,sans-Serif" font-size="10.00">fl::FixedVector::end</text>
</a>
</g>
</g>
<!-- Node2&#45;&gt;Node3 -->
<g id="edge2_Node000002_Node000003" class="edge">
<title>Node2&#45;&gt;Node3</title>
<g id="a_edge2_Node000002_Node000003"><a xlink:title=" ">
<path fill="none" stroke="#63b8ff" d="M415,-126.38C425.49,-126.38 436.84,-126.38 447.95,-126.38"/>
<polygon fill="#63b8ff" stroke="#63b8ff" points="447.9,-129.88 457.9,-126.38 447.9,-122.88 447.9,-129.88"/>
</a>
</g>
</g>
<!-- Node4&#45;&gt;Node2 -->
<g id="edge6_Node000004_Node000002" class="edge">
<title>Node4&#45;&gt;Node2</title>
<g id="a_edge6_Node000004_Node000002"><a xlink:title=" ">
<path fill="none" stroke="#63b8ff" d="M255.32,-99.16C272.87,-103.43 293.24,-108.39 311.75,-112.9"/>
<polygon fill="#63b8ff" stroke="#63b8ff" points="310.68,-116.24 321.22,-115.2 312.33,-109.44 310.68,-116.24"/>
</a>
</g>
</g>
<!-- Node5 -->
<g id="Node000005" class="node">
<title>Node5</title>
<g id="a_Node000005"><a xlink:href="../../dd/d44/classfl_1_1_fixed_set.html#a59ddf690c91b87bb207d2cb6d45b91be" target="_top" xlink:title=" ">
<polygon fill="white" stroke="#666666" points="419.25,-97.75 317,-97.75 317,-77 419.25,-77 419.25,-97.75"/>
<text text-anchor="middle" x="368.12" y="-84.25" font-family="Helvetica,sans-Serif" font-size="10.00">fl::FixedSet::begin</text>
</a>
</g>
</g>
<!-- Node4&#45;&gt;Node5 -->
<g id="edge4_Node000004_Node000005" class="edge">
<title>Node4&#45;&gt;Node5</title>
<g id="a_edge4_Node000004_Node000005"><a xlink:title=" ">
<path fill="none" stroke="#63b8ff" d="M257,-88.08C272.05,-87.98 289.03,-87.88 305.07,-87.77"/>
<polygon fill="#63b8ff" stroke="#63b8ff" points="305.05,-91.27 315.03,-87.71 305.01,-84.27 305.05,-91.27"/>
</a>
</g>
</g>
<!-- Node6 -->
<g id="Node000006" class="node">
<title>Node6</title>
<g id="a_Node000006"><a xlink:href="../../d3/d73/classfl_1_1_fixed_vector.html#a7ae4440fe977cc6495819cac64b7ad1a" target="_top" xlink:title=" ">
<polygon fill="white" stroke="#666666" points="572.5,-97.75 455.25,-97.75 455.25,-77 572.5,-77 572.5,-97.75"/>
<text text-anchor="middle" x="513.88" y="-84.25" font-family="Helvetica,sans-Serif" font-size="10.00">fl::FixedVector::begin</text>
</a>
</g>
</g>
<!-- Node5&#45;&gt;Node6 -->
<g id="edge5_Node000005_Node000006" class="edge">
<title>Node5&#45;&gt;Node6</title>
<g id="a_edge5_Node000005_Node000006"><a xlink:title=" ">
<path fill="none" stroke="#63b8ff" d="M419.4,-87.38C427.22,-87.38 435.41,-87.38 443.55,-87.38"/>
<polygon fill="#63b8ff" stroke="#63b8ff" points="443.48,-90.88 453.48,-87.38 443.48,-83.88 443.48,-90.88"/>
</a>
</g>
</g>
</g>
</svg>
