<?xml version="1.0" encoding="UTF-8" standalone="no"?>
<!DOCTYPE svg PUBLIC "-//W3C//DTD SVG 1.1//EN"
 "http://www.w3.org/Graphics/SVG/1.1/DTD/svg11.dtd">
<!-- Generated by graphviz version 12.2.1 (20241206.2353)
 -->
<!-- Title: /home/runner/work/FastLED/FastLED/src/engine_events.h Pages: 1 -->
<svg width="1192pt" height="439pt"
 viewBox="0.00 0.00 1191.91 438.75" xmlns="http://www.w3.org/2000/svg" xmlns:xlink="http://www.w3.org/1999/xlink">
<g id="graph0" class="graph" transform="scale(1 1) rotate(0) translate(4 434.75)">
<title>/home/runner/work/FastLED/FastLED/src/engine_events.h</title>
<!-- Node1 -->
<g id="Node000001" class="node">
<title>Node1</title>
<g id="a_Node000001"><a xlink:title=" ">
<polygon fill="#999999" stroke="#666666" points="653.88,-430.75 496.12,-430.75 496.12,-397.25 653.88,-397.25 653.88,-430.75"/>
<text text-anchor="start" x="504.12" y="-417.25" font-family="Helvetica,sans-Serif" font-size="10.00">/home/runner/work/FastLED</text>
<text text-anchor="middle" x="575" y="-404.5" font-family="Helvetica,sans-Serif" font-size="10.00">/FastLED/src/engine_events.h</text>
</a>
</g>
</g>
<!-- Node2 -->
<g id="Node000002" class="node">
<title>Node2</title>
<g id="a_Node000002"><a xlink:href="../../dc/dd9/fl_2engine__events_8h.html" target="_top" xlink:title=" ">
<polygon fill="white" stroke="#666666" points="627.62,-361.25 522.38,-361.25 522.38,-340.5 627.62,-340.5 627.62,-361.25"/>
<text text-anchor="middle" x="575" y="-347.75" font-family="Helvetica,sans-Serif" font-size="10.00">fl/engine_events.h</text>
</a>
</g>
</g>
<!-- Node1&#45;&gt;Node2 -->
<g id="edge1_Node000001_Node000002" class="edge">
<title>Node1&#45;&gt;Node2</title>
<g id="a_edge1_Node000001_Node000002"><a xlink:title=" ">
<path fill="none" stroke="#63b8ff" d="M575,-396.94C575,-389.6 575,-380.82 575,-372.96"/>
<polygon fill="#63b8ff" stroke="#63b8ff" points="578.5,-373.23 575,-363.23 571.5,-373.23 578.5,-373.23"/>
</a>
</g>
</g>
<!-- Node3 -->
<g id="Node000003" class="node">
<title>Node3</title>
<g id="a_Node000003"><a xlink:href="../../d6/d68/vector_8h.html" target="_top" xlink:title=" ">
<polygon fill="white" stroke="#666666" points="944,-134.25 880,-134.25 880,-113.5 944,-113.5 944,-134.25"/>
<text text-anchor="middle" x="912" y="-120.75" font-family="Helvetica,sans-Serif" font-size="10.00">fl/vector.h</text>
</a>
</g>
</g>
<!-- Node2&#45;&gt;Node3 -->
<g id="edge2_Node000002_Node000003" class="edge">
<title>Node2&#45;&gt;Node3</title>
<g id="a_edge2_Node000002_Node000003"><a xlink:title=" ">
<path fill="none" stroke="#63b8ff" d="M627.8,-348.7C673.77,-345.47 740.61,-335.25 790,-304.5 851.8,-266.02 889.78,-183.39 904.72,-145.11"/>
<polygon fill="#63b8ff" stroke="#63b8ff" points="907.98,-146.36 908.22,-135.77 901.43,-143.9 907.98,-146.36"/>
</a>
</g>
</g>
<!-- Node7 -->
<g id="Node000007" class="node">
<title>Node7</title>
<g id="a_Node000007"><a xlink:href="../../df/d2a/namespace_8h.html" target="_top" xlink:title="Implements the FastLED namespace macros.">
<polygon fill="white" stroke="#666666" points="662.12,-20.75 571.88,-20.75 571.88,0 662.12,0 662.12,-20.75"/>
<text text-anchor="middle" x="617" y="-7.25" font-family="Helvetica,sans-Serif" font-size="10.00">fl/namespace.h</text>
</a>
</g>
</g>
<!-- Node2&#45;&gt;Node7 -->
<g id="edge56_Node000002_Node000007" class="edge">
<title>Node2&#45;&gt;Node7</title>
<g id="a_edge56_Node000002_Node000007"><a xlink:title=" ">
<path fill="none" stroke="#63b8ff" d="M628.07,-343.5C687.62,-333.04 776,-306.11 776,-238.38 776,-238.38 776,-238.38 776,-179.62 776,-105.8 694.14,-51.29 647.89,-26.39"/>
<polygon fill="#63b8ff" stroke="#63b8ff" points="649.61,-23.34 639.13,-21.82 646.37,-29.55 649.61,-23.34"/>
</a>
</g>
</g>
<!-- Node10 -->
<g id="Node000010" class="node">
<title>Node10</title>
<g id="a_Node000010"><a xlink:href="../../d0/dae/fl_2singleton_8h.html" target="_top" xlink:title=" ">
<polygon fill="white" stroke="#666666" points="181.5,-304.5 102.5,-304.5 102.5,-283.75 181.5,-283.75 181.5,-304.5"/>
<text text-anchor="middle" x="142" y="-291" font-family="Helvetica,sans-Serif" font-size="10.00">fl/singleton.h</text>
</a>
</g>
</g>
<!-- Node2&#45;&gt;Node10 -->
<g id="edge11_Node000002_Node000010" class="edge">
<title>Node2&#45;&gt;Node10</title>
<g id="a_edge11_Node000002_Node000010"><a xlink:title=" ">
<path fill="none" stroke="#63b8ff" d="M521.91,-343.16C437.98,-332.55 275.74,-312.04 193.09,-301.58"/>
<polygon fill="#63b8ff" stroke="#63b8ff" points="193.59,-298.12 183.23,-300.34 192.71,-305.07 193.59,-298.12"/>
</a>
</g>
</g>
<!-- Node11 -->
<g id="Node000011" class="node">
<title>Node11</title>
<g id="a_Node000011"><a xlink:href="../../d6/dc9/fl_2xymap_8h.html" target="_top" xlink:title=" ">
<polygon fill="white" stroke="#666666" points="409.88,-304.5 342.12,-304.5 342.12,-283.75 409.88,-283.75 409.88,-304.5"/>
<text text-anchor="middle" x="376" y="-291" font-family="Helvetica,sans-Serif" font-size="10.00">fl/xymap.h</text>
</a>
</g>
</g>
<!-- Node2&#45;&gt;Node11 -->
<g id="edge13_Node000002_Node000011" class="edge">
<title>Node2&#45;&gt;Node11</title>
<g id="a_edge13_Node000002_Node000011"><a xlink:title=" ">
<path fill="none" stroke="#63b8ff" d="M539.42,-340.09C506.29,-330.97 456.77,-317.35 420.92,-307.48"/>
<polygon fill="#63b8ff" stroke="#63b8ff" points="422.3,-304.23 411.73,-304.96 420.44,-310.98 422.3,-304.23"/>
</a>
</g>
</g>
<!-- Node23 -->
<g id="Node000023" class="node">
<title>Node23</title>
<g id="a_Node000023"><a xlink:href="../../d7/d0d/fl_2screenmap_8h.html" target="_top" xlink:title=" ">
<polygon fill="white" stroke="#666666" points="619,-247.75 531,-247.75 531,-227 619,-227 619,-247.75"/>
<text text-anchor="middle" x="575" y="-234.25" font-family="Helvetica,sans-Serif" font-size="10.00">fl/screenmap.h</text>
</a>
</g>
</g>
<!-- Node2&#45;&gt;Node23 -->
<g id="edge38_Node000002_Node000023" class="edge">
<title>Node2&#45;&gt;Node23</title>
<g id="a_edge38_Node000002_Node000023"><a xlink:title=" ">
<path fill="none" stroke="#63b8ff" d="M575,-340.37C575,-322.6 575,-283.97 575,-259.68"/>
<polygon fill="#63b8ff" stroke="#63b8ff" points="578.5,-259.69 575,-249.69 571.5,-259.69 578.5,-259.69"/>
</a>
</g>
</g>
<!-- Node4 -->
<g id="Node000004" class="node">
<title>Node4</title>
<g id="a_Node000004"><a xlink:title=" ">
<polygon fill="#e0e0e0" stroke="#999999" points="529.38,-77.5 476.62,-77.5 476.62,-56.75 529.38,-56.75 529.38,-77.5"/>
<text text-anchor="middle" x="503" y="-64" font-family="Helvetica,sans-Serif" font-size="10.00">stdint.h</text>
</a>
</g>
</g>
<!-- Node3&#45;&gt;Node4 -->
<g id="edge3_Node000003_Node000004" class="edge">
<title>Node3&#45;&gt;Node4</title>
<g id="a_edge3_Node000003_Node000004"><a xlink:title=" ">
<path fill="none" stroke="#63b8ff" d="M879.56,-118.53C804.74,-108.52 620.38,-83.84 540.69,-73.17"/>
<polygon fill="#63b8ff" stroke="#63b8ff" points="541.6,-69.76 531.22,-71.9 540.67,-76.7 541.6,-69.76"/>
</a>
</g>
</g>
<!-- Node5 -->
<g id="Node000005" class="node">
<title>Node5</title>
<g id="a_Node000005"><a xlink:title=" ">
<polygon fill="#e0e0e0" stroke="#999999" points="1046.5,-20.75 991.5,-20.75 991.5,0 1046.5,0 1046.5,-20.75"/>
<text text-anchor="middle" x="1019" y="-7.25" font-family="Helvetica,sans-Serif" font-size="10.00">stddef.h</text>
</a>
</g>
</g>
<!-- Node3&#45;&gt;Node5 -->
<g id="edge4_Node000003_Node000005" class="edge">
<title>Node3&#45;&gt;Node5</title>
<g id="a_edge4_Node000003_Node000005"><a xlink:title=" ">
<path fill="none" stroke="#63b8ff" d="M944.28,-121.9C1005.07,-119.31 1132.88,-110.03 1160,-77.5 1190.98,-40.33 1109.74,-22.82 1058.04,-15.64"/>
<polygon fill="#63b8ff" stroke="#63b8ff" points="1058.74,-12.2 1048.37,-14.38 1057.84,-19.14 1058.74,-12.2"/>
</a>
</g>
</g>
<!-- Node6 -->
<g id="Node000006" class="node">
<title>Node6</title>
<g id="a_Node000006"><a xlink:href="../../db/d36/inplacenew_8h.html" target="_top" xlink:title=" ">
<polygon fill="white" stroke="#666666" points="1150.88,-77.5 1071.12,-77.5 1071.12,-56.75 1150.88,-56.75 1150.88,-77.5"/>
<text text-anchor="middle" x="1111" y="-64" font-family="Helvetica,sans-Serif" font-size="10.00">inplacenew.h</text>
</a>
</g>
</g>
<!-- Node3&#45;&gt;Node6 -->
<g id="edge5_Node000003_Node000006" class="edge">
<title>Node3&#45;&gt;Node6</title>
<g id="a_edge5_Node000003_Node000006"><a xlink:title=" ">
<path fill="none" stroke="#63b8ff" d="M944.42,-113.96C976.95,-105 1027.41,-91.12 1064.27,-80.98"/>
<polygon fill="#63b8ff" stroke="#63b8ff" points="1065.06,-84.39 1073.77,-78.37 1063.2,-77.64 1065.06,-84.39"/>
</a>
</g>
</g>
<!-- Node3&#45;&gt;Node7 -->
<g id="edge6_Node000003_Node000007" class="edge">
<title>Node3&#45;&gt;Node7</title>
<g id="a_edge6_Node000003_Node000007"><a xlink:title=" ">
<path fill="none" stroke="#63b8ff" d="M944.32,-116.54C986.18,-106.97 1050.8,-86.7 1024,-56.75 1001.07,-31.12 780.28,-18.31 673.84,-13.59"/>
<polygon fill="#63b8ff" stroke="#63b8ff" points="674.02,-10.09 663.88,-13.15 673.72,-17.08 674.02,-10.09"/>
</a>
</g>
</g>
<!-- Node8 -->
<g id="Node000008" class="node">
<title>Node8</title>
<g id="a_Node000008"><a xlink:href="../../df/d28/fl_2scoped__ptr_8h.html" target="_top" xlink:title=" ">
<polygon fill="white" stroke="#666666" points="902.25,-77.5 815.75,-77.5 815.75,-56.75 902.25,-56.75 902.25,-77.5"/>
<text text-anchor="middle" x="859" y="-64" font-family="Helvetica,sans-Serif" font-size="10.00">fl/scoped_ptr.h</text>
</a>
</g>
</g>
<!-- Node3&#45;&gt;Node8 -->
<g id="edge7_Node000003_Node000008" class="edge">
<title>Node3&#45;&gt;Node8</title>
<g id="a_edge7_Node000003_Node000008"><a xlink:title=" ">
<path fill="none" stroke="#63b8ff" d="M902.52,-113.09C895.21,-105.53 884.91,-94.89 876.16,-85.85"/>
<polygon fill="#63b8ff" stroke="#63b8ff" points="878.92,-83.67 869.45,-78.92 873.89,-88.54 878.92,-83.67"/>
</a>
</g>
</g>
<!-- Node9 -->
<g id="Node000009" class="node">
<title>Node9</title>
<g id="a_Node000009"><a xlink:href="../../d1/d22/insert__result_8h.html" target="_top" xlink:title=" ">
<polygon fill="white" stroke="#666666" points="1015.38,-77.5 920.62,-77.5 920.62,-56.75 1015.38,-56.75 1015.38,-77.5"/>
<text text-anchor="middle" x="968" y="-64" font-family="Helvetica,sans-Serif" font-size="10.00">fl/insert_result.h</text>
</a>
</g>
</g>
<!-- Node3&#45;&gt;Node9 -->
<g id="edge10_Node000003_Node000009" class="edge">
<title>Node3&#45;&gt;Node9</title>
<g id="a_edge10_Node000003_Node000009"><a xlink:title=" ">
<path fill="none" stroke="#63b8ff" d="M922.01,-113.09C929.74,-105.53 940.63,-94.89 949.87,-85.85"/>
<polygon fill="#63b8ff" stroke="#63b8ff" points="952.29,-88.38 956.99,-78.89 947.4,-83.37 952.29,-88.38"/>
</a>
</g>
</g>
<!-- Node8&#45;&gt;Node5 -->
<g id="edge8_Node000008_Node000005" class="edge">
<title>Node8&#45;&gt;Node5</title>
<g id="a_edge8_Node000008_Node000005"><a xlink:title=" ">
<path fill="none" stroke="#63b8ff" d="M887.6,-56.34C913.47,-47.48 951.78,-34.38 980.36,-24.6"/>
<polygon fill="#63b8ff" stroke="#63b8ff" points="981.42,-27.93 989.75,-21.39 979.15,-21.31 981.42,-27.93"/>
</a>
</g>
</g>
<!-- Node8&#45;&gt;Node7 -->
<g id="edge9_Node000008_Node000007" class="edge">
<title>Node8&#45;&gt;Node7</title>
<g id="a_edge9_Node000008_Node000007"><a xlink:title=" ">
<path fill="none" stroke="#63b8ff" d="M815.46,-56.27C775.15,-47.15 715.05,-33.56 671.56,-23.72"/>
<polygon fill="#63b8ff" stroke="#63b8ff" points="672.6,-20.37 662.08,-21.57 671.06,-27.19 672.6,-20.37"/>
</a>
</g>
</g>
<!-- Node10&#45;&gt;Node7 -->
<g id="edge12_Node000010_Node000007" class="edge">
<title>Node10&#45;&gt;Node7</title>
<g id="a_edge12_Node000010_Node000007"><a xlink:title=" ">
<path fill="none" stroke="#63b8ff" d="M108.71,-283.3C66.74,-268.62 0,-236.63 0,-181.62 0,-181.62 0,-181.62 0,-122.88 0,-83.19 24.4,-74.28 60,-56.75 146.74,-14.03 436.07,-10.33 559.93,-10.78"/>
<polygon fill="#63b8ff" stroke="#63b8ff" points="559.86,-14.28 569.88,-10.83 559.9,-7.28 559.86,-14.28"/>
</a>
</g>
</g>
<!-- Node11&#45;&gt;Node4 -->
<g id="edge14_Node000011_Node000004" class="edge">
<title>Node11&#45;&gt;Node4</title>
<g id="a_edge14_Node000011_Node000004"><a xlink:title=" ">
<path fill="none" stroke="#63b8ff" d="M393.04,-283.34C405.83,-275.23 422.98,-262.65 434,-247.75 471.32,-197.3 491.02,-124.17 498.87,-88.81"/>
<polygon fill="#63b8ff" stroke="#63b8ff" points="502.2,-89.96 500.84,-79.46 495.35,-88.52 502.2,-89.96"/>
</a>
</g>
</g>
<!-- Node11&#45;&gt;Node7 -->
<g id="edge37_Node000011_Node000007" class="edge">
<title>Node11&#45;&gt;Node7</title>
<g id="a_edge37_Node000011_Node000007"><a xlink:title=" ">
<path fill="none" stroke="#63b8ff" d="M341.73,-289.23C255.8,-278.52 38,-245.12 38,-181.62 38,-181.62 38,-181.62 38,-122.88 38,-56.86 107.58,-75.08 171,-56.75 306.82,-17.49 474.45,-11.1 560.36,-10.7"/>
<polygon fill="#63b8ff" stroke="#63b8ff" points="560.17,-14.2 570.17,-10.68 560.16,-7.2 560.17,-14.2"/>
</a>
</g>
</g>
<!-- Node12 -->
<g id="Node000012" class="node">
<title>Node12</title>
<g id="a_Node000012"><a xlink:title=" ">
<polygon fill="#e0e0e0" stroke="#999999" points="456.38,-134.25 403.62,-134.25 403.62,-113.5 456.38,-113.5 456.38,-134.25"/>
<text text-anchor="middle" x="430" y="-120.75" font-family="Helvetica,sans-Serif" font-size="10.00">string.h</text>
</a>
</g>
</g>
<!-- Node11&#45;&gt;Node12 -->
<g id="edge15_Node000011_Node000012" class="edge">
<title>Node11&#45;&gt;Node12</title>
<g id="a_edge15_Node000011_Node000012"><a xlink:title=" ">
<path fill="none" stroke="#63b8ff" d="M387.98,-283.3C397.31,-274.9 409.69,-261.95 416,-247.75 430.77,-214.5 432.12,-171.43 431.35,-146.11"/>
<polygon fill="#63b8ff" stroke="#63b8ff" points="434.84,-145.97 430.88,-136.14 427.85,-146.29 434.84,-145.97"/>
</a>
</g>
</g>
<!-- Node13 -->
<g id="Node000013" class="node">
<title>Node13</title>
<g id="a_Node000013"><a xlink:href="../../db/dd1/crgb_8h.html" target="_top" xlink:title="Defines the red, green, and blue (RGB) pixel struct.">
<polygon fill="#fff0f0" stroke="red" points="166,-191 120,-191 120,-170.25 166,-170.25 166,-191"/>
<text text-anchor="middle" x="143" y="-177.5" font-family="Helvetica,sans-Serif" font-size="10.00">crgb.h</text>
</a>
</g>
</g>
<!-- Node11&#45;&gt;Node13 -->
<g id="edge16_Node000011_Node000013" class="edge">
<title>Node11&#45;&gt;Node13</title>
<g id="a_edge16_Node000011_Node000013"><a xlink:title=" ">
<path fill="none" stroke="#63b8ff" d="M341.69,-293.31C299.59,-291.86 227.9,-283.72 180,-247.75 164.89,-236.41 155.09,-216.98 149.4,-202.11"/>
<polygon fill="#63b8ff" stroke="#63b8ff" points="152.76,-201.14 146.18,-192.83 146.15,-203.43 152.76,-201.14"/>
</a>
</g>
</g>
<!-- Node17 -->
<g id="Node000017" class="node">
<title>Node17</title>
<g id="a_Node000017"><a xlink:href="../../d8/d2d/fl_2force__inline_8h.html" target="_top" xlink:title=" ">
<polygon fill="white" stroke="#666666" points="271.5,-134.25 180.5,-134.25 180.5,-113.5 271.5,-113.5 271.5,-134.25"/>
<text text-anchor="middle" x="226" y="-120.75" font-family="Helvetica,sans-Serif" font-size="10.00">fl/force_inline.h</text>
</a>
</g>
</g>
<!-- Node11&#45;&gt;Node17 -->
<g id="edge20_Node000011_Node000017" class="edge">
<title>Node11&#45;&gt;Node17</title>
<g id="a_edge20_Node000011_Node000017"><a xlink:title=" ">
<path fill="none" stroke="#63b8ff" d="M353.46,-283.36C321.84,-268.4 265.06,-236.67 237,-191 228.7,-177.49 226.12,-159.62 225.52,-145.87"/>
<polygon fill="#63b8ff" stroke="#63b8ff" points="229.02,-146.12 225.43,-136.15 222.02,-146.18 229.02,-146.12"/>
</a>
</g>
</g>
<!-- Node19 -->
<g id="Node000019" class="node">
<title>Node19</title>
<g id="a_Node000019"><a xlink:href="../../d3/db6/fl_2lut_8h.html" target="_top" xlink:title=" ">
<polygon fill="#fff0f0" stroke="red" points="344.38,-191 297.62,-191 297.62,-170.25 344.38,-170.25 344.38,-191"/>
<text text-anchor="middle" x="321" y="-177.5" font-family="Helvetica,sans-Serif" font-size="10.00">fl/lut.h</text>
</a>
</g>
</g>
<!-- Node11&#45;&gt;Node19 -->
<g id="edge21_Node000011_Node000019" class="edge">
<title>Node11&#45;&gt;Node19</title>
<g id="a_edge21_Node000011_Node000019"><a xlink:title=" ">
<path fill="none" stroke="#63b8ff" d="M364.79,-283.44C355.67,-274.94 343.17,-261.77 336,-247.75 328.77,-233.61 324.99,-216.02 323.04,-202.53"/>
<polygon fill="#63b8ff" stroke="#63b8ff" points="326.52,-202.12 321.85,-192.61 319.57,-202.95 326.52,-202.12"/>
</a>
</g>
</g>
<!-- Node20 -->
<g id="Node000020" class="node">
<title>Node20</title>
<g id="a_Node000020"><a xlink:href="../../d7/df1/fl_2ptr_8h.html" target="_top" xlink:title=" ">
<polygon fill="#fff0f0" stroke="red" points="710.38,-134.25 663.62,-134.25 663.62,-113.5 710.38,-113.5 710.38,-134.25"/>
<text text-anchor="middle" x="687" y="-120.75" font-family="Helvetica,sans-Serif" font-size="10.00">fl/ptr.h</text>
</a>
</g>
</g>
<!-- Node11&#45;&gt;Node20 -->
<g id="edge29_Node000011_Node000020" class="edge">
<title>Node11&#45;&gt;Node20</title>
<g id="a_edge29_Node000011_Node000020"><a xlink:title=" ">
<path fill="none" stroke="#63b8ff" d="M410.37,-292.67C460.59,-290.76 555.88,-282.41 628,-247.75 662.57,-231.14 677.13,-225.91 693,-191 699.5,-176.7 697.38,-158.88 693.97,-145.35"/>
<polygon fill="#63b8ff" stroke="#63b8ff" points="697.34,-144.38 691.13,-135.8 690.63,-146.38 697.34,-144.38"/>
</a>
</g>
</g>
<!-- Node22 -->
<g id="Node000022" class="node">
<title>Node22</title>
<g id="a_Node000022"><a xlink:href="../../d5/d22/fl_2xmap_8h.html" target="_top" xlink:title=" ">
<polygon fill="white" stroke="#666666" points="406.88,-247.75 345.12,-247.75 345.12,-227 406.88,-227 406.88,-247.75"/>
<text text-anchor="middle" x="376" y="-234.25" font-family="Helvetica,sans-Serif" font-size="10.00">fl/xmap.h</text>
</a>
</g>
</g>
<!-- Node11&#45;&gt;Node22 -->
<g id="edge30_Node000011_Node000022" class="edge">
<title>Node11&#45;&gt;Node22</title>
<g id="a_edge30_Node000011_Node000022"><a xlink:title=" ">
<path fill="none" stroke="#63b8ff" d="M376,-283.34C376,-276.72 376,-267.72 376,-259.52"/>
<polygon fill="#63b8ff" stroke="#63b8ff" points="379.5,-259.59 376,-249.59 372.5,-259.59 379.5,-259.59"/>
</a>
</g>
</g>
<!-- Node13&#45;&gt;Node4 -->
<g id="edge17_Node000013_Node000004" class="edge">
<title>Node13&#45;&gt;Node4</title>
<g id="a_edge17_Node000013_Node000004"><a xlink:title=" ">
<path fill="none" stroke="#63b8ff" d="M144.22,-170.17C146.67,-155.48 153.59,-127.4 172,-113.5 217.51,-79.13 388.42,-70.79 465.22,-68.77"/>
<polygon fill="#63b8ff" stroke="#63b8ff" points="464.85,-72.28 474.76,-68.54 464.68,-65.28 464.85,-72.28"/>
</a>
</g>
</g>
<!-- Node13&#45;&gt;Node7 -->
<g id="edge18_Node000013_Node000007" class="edge">
<title>Node13&#45;&gt;Node7</title>
<g id="a_edge18_Node000013_Node000007"><a xlink:title=" ">
<path fill="none" stroke="#63b8ff" d="M141.3,-170.18C139.33,-156.01 137.95,-129.22 152,-113.5 205.8,-53.32 448.23,-25.52 560.11,-15.72"/>
<polygon fill="#63b8ff" stroke="#63b8ff" points="560.31,-19.22 569.97,-14.88 559.71,-12.24 560.31,-19.22"/>
</a>
</g>
</g>
<!-- Node13&#45;&gt;Node17 -->
<g id="edge19_Node000013_Node000017" class="edge">
<title>Node13&#45;&gt;Node17</title>
<g id="a_edge19_Node000013_Node000017"><a xlink:title=" ">
<path fill="none" stroke="#63b8ff" d="M157.84,-169.84C170.11,-161.74 187.79,-150.08 202.06,-140.67"/>
<polygon fill="#63b8ff" stroke="#63b8ff" points="203.61,-143.84 210.03,-135.41 199.75,-138 203.61,-143.84"/>
</a>
</g>
</g>
<!-- Node19&#45;&gt;Node4 -->
<g id="edge22_Node000019_Node000004" class="edge">
<title>Node19&#45;&gt;Node4</title>
<g id="a_edge22_Node000019_Node000004"><a xlink:title=" ">
<path fill="none" stroke="#63b8ff" d="M324.44,-170.04C330.08,-155.68 342.63,-128.64 362,-113.5 392.09,-89.98 434.73,-78.47 465.22,-72.96"/>
<polygon fill="#63b8ff" stroke="#63b8ff" points="465.48,-76.47 474.77,-71.38 464.33,-69.56 465.48,-76.47"/>
</a>
</g>
</g>
<!-- Node19&#45;&gt;Node7 -->
<g id="edge28_Node000019_Node000007" class="edge">
<title>Node19&#45;&gt;Node7</title>
<g id="a_edge28_Node000019_Node000007"><a xlink:title=" ">
<path fill="none" stroke="#63b8ff" d="M321.12,-169.89C321.8,-155.83 325.02,-129.73 339,-113.5 395.07,-48.4 496.39,-24.78 560,-16.22"/>
<polygon fill="#63b8ff" stroke="#63b8ff" points="560.42,-19.69 569.91,-14.98 559.55,-12.75 560.42,-19.69"/>
</a>
</g>
</g>
<!-- Node19&#45;&gt;Node17 -->
<g id="edge27_Node000019_Node000017" class="edge">
<title>Node19&#45;&gt;Node17</title>
<g id="a_edge27_Node000019_Node000017"><a xlink:title=" ">
<path fill="none" stroke="#63b8ff" d="M304.02,-169.84C289.7,-161.58 268.96,-149.63 252.46,-140.13"/>
<polygon fill="#63b8ff" stroke="#63b8ff" points="254.56,-137.3 244.15,-135.33 251.06,-143.36 254.56,-137.3"/>
</a>
</g>
</g>
<!-- Node19&#45;&gt;Node20 -->
<g id="edge23_Node000019_Node000020" class="edge">
<title>Node19&#45;&gt;Node20</title>
<g id="a_edge23_Node000019_Node000020"><a xlink:title=" ">
<path fill="none" stroke="#63b8ff" d="M344.73,-176.07C407.58,-166.67 578.57,-141.1 652.35,-130.06"/>
<polygon fill="#63b8ff" stroke="#63b8ff" points="652.45,-133.58 661.82,-128.64 651.42,-126.66 652.45,-133.58"/>
</a>
</g>
</g>
<!-- Node20&#45;&gt;Node5 -->
<g id="edge24_Node000020_Node000005" class="edge">
<title>Node20&#45;&gt;Node5</title>
<g id="a_edge24_Node000020_Node000005"><a xlink:title=" ">
<path fill="none" stroke="#63b8ff" d="M701.48,-113.05C723.38,-98.63 766.66,-71.81 807,-56.75 865.3,-34.99 936.73,-22.41 980,-16.23"/>
<polygon fill="#63b8ff" stroke="#63b8ff" points="980.24,-19.73 989.67,-14.89 979.28,-12.79 980.24,-19.73"/>
</a>
</g>
</g>
<!-- Node20&#45;&gt;Node7 -->
<g id="edge25_Node000020_Node000007" class="edge">
<title>Node20&#45;&gt;Node7</title>
<g id="a_edge25_Node000020_Node000007"><a xlink:title=" ">
<path fill="none" stroke="#63b8ff" d="M682.08,-113.25C675.29,-100.19 662.48,-76.25 650,-56.75 644.31,-47.87 637.53,-38.38 631.6,-30.39"/>
<polygon fill="#63b8ff" stroke="#63b8ff" points="634.42,-28.31 625.6,-22.44 628.83,-32.53 634.42,-28.31"/>
</a>
</g>
</g>
<!-- Node20&#45;&gt;Node8 -->
<g id="edge26_Node000020_Node000008" class="edge">
<title>Node20&#45;&gt;Node8</title>
<g id="a_edge26_Node000020_Node000008"><a xlink:title=" ">
<path fill="none" stroke="#63b8ff" d="M710.56,-115.38C738,-106.64 783.85,-92.05 817.34,-81.38"/>
<polygon fill="#63b8ff" stroke="#63b8ff" points="818.28,-84.76 826.74,-78.39 816.15,-78.09 818.28,-84.76"/>
</a>
</g>
</g>
<!-- Node22&#45;&gt;Node4 -->
<g id="edge31_Node000022_Node000004" class="edge">
<title>Node22&#45;&gt;Node4</title>
<g id="a_edge31_Node000022_Node000004"><a xlink:title=" ">
<path fill="none" stroke="#63b8ff" d="M374.56,-226.53C371.81,-203.94 368.29,-147.69 395,-113.5 412,-91.74 441.35,-80.3 465.17,-74.35"/>
<polygon fill="#63b8ff" stroke="#63b8ff" points="465.86,-77.78 474.86,-72.18 464.33,-70.95 465.86,-77.78"/>
</a>
</g>
</g>
<!-- Node22&#45;&gt;Node7 -->
<g id="edge36_Node000022_Node000007" class="edge">
<title>Node22&#45;&gt;Node7</title>
<g id="a_edge36_Node000022_Node000007"><a xlink:title=" ">
<path fill="none" stroke="#63b8ff" d="M344.98,-235.86C281.59,-234.07 140.64,-226.15 111,-191 92.69,-169.29 122.52,-132.15 138,-113.5 165.39,-80.52 176.04,-72.29 216,-56.75 277.35,-32.89 464.7,-19.61 560.01,-14.23"/>
<polygon fill="#63b8ff" stroke="#63b8ff" points="560.14,-17.73 569.93,-13.69 559.75,-10.74 560.14,-17.73"/>
</a>
</g>
</g>
<!-- Node22&#45;&gt;Node12 -->
<g id="edge32_Node000022_Node000012" class="edge">
<title>Node22&#45;&gt;Node12</title>
<g id="a_edge32_Node000022_Node000012"><a xlink:title=" ">
<path fill="none" stroke="#63b8ff" d="M380.6,-226.87C389.37,-208.77 408.61,-169.03 420.33,-144.85"/>
<polygon fill="#63b8ff" stroke="#63b8ff" points="423.39,-146.56 424.59,-136.04 417.09,-143.51 423.39,-146.56"/>
</a>
</g>
</g>
<!-- Node22&#45;&gt;Node17 -->
<g id="edge33_Node000022_Node000017" class="edge">
<title>Node22&#45;&gt;Node17</title>
<g id="a_edge33_Node000022_Node000017"><a xlink:title=" ">
<path fill="none" stroke="#63b8ff" d="M344.64,-231.4C318.12,-225.73 280.62,-214.08 256,-191 242.92,-178.74 235.12,-159.7 230.76,-145.19"/>
<polygon fill="#63b8ff" stroke="#63b8ff" points="234.21,-144.55 228.26,-135.79 227.45,-146.35 234.21,-144.55"/>
</a>
</g>
</g>
<!-- Node22&#45;&gt;Node19 -->
<g id="edge34_Node000022_Node000019" class="edge">
<title>Node22&#45;&gt;Node19</title>
<g id="a_edge34_Node000022_Node000019"><a xlink:title=" ">
<path fill="none" stroke="#63b8ff" d="M366.17,-226.59C358.58,-219.03 347.88,-208.39 338.8,-199.35"/>
<polygon fill="#63b8ff" stroke="#63b8ff" points="341.38,-196.97 331.82,-192.4 336.44,-201.93 341.38,-196.97"/>
</a>
</g>
</g>
<!-- Node22&#45;&gt;Node20 -->
<g id="edge35_Node000022_Node000020" class="edge">
<title>Node22&#45;&gt;Node20</title>
<g id="a_edge35_Node000022_Node000020"><a xlink:title=" ">
<path fill="none" stroke="#63b8ff" d="M407.15,-234.73C452.24,-231.36 537.49,-221.21 603,-191 628.88,-179.06 653.94,-157.65 669.85,-142.43"/>
<polygon fill="#63b8ff" stroke="#63b8ff" points="671.94,-145.28 676.61,-135.77 667.03,-140.29 671.94,-145.28"/>
</a>
</g>
</g>
<!-- Node23&#45;&gt;Node4 -->
<g id="edge39_Node000023_Node000004" class="edge">
<title>Node23&#45;&gt;Node4</title>
<g id="a_edge39_Node000023_Node000004"><a xlink:title=" ">
<path fill="none" stroke="#63b8ff" d="M568.44,-226.58C562.6,-217.58 554.06,-203.75 548,-191 531.47,-156.25 517.12,-113.69 509.29,-88.87"/>
<polygon fill="#63b8ff" stroke="#63b8ff" points="512.66,-87.9 506.36,-79.38 505.97,-89.97 512.66,-87.9"/>
</a>
</g>
</g>
<!-- Node23&#45;&gt;Node7 -->
<g id="edge55_Node000023_Node000007" class="edge">
<title>Node23&#45;&gt;Node7</title>
<g id="a_edge55_Node000023_Node000007"><a xlink:title=" ">
<path fill="none" stroke="#63b8ff" d="M582.8,-226.57C589.34,-217.78 598.34,-204.28 603,-191 622.21,-136.31 620.94,-66.67 618.78,-32.38"/>
<polygon fill="#63b8ff" stroke="#63b8ff" points="622.28,-32.3 618.06,-22.59 615.3,-32.82 622.28,-32.3"/>
</a>
</g>
</g>
<!-- Node23&#45;&gt;Node17 -->
<g id="edge40_Node000023_Node000017" class="edge">
<title>Node23&#45;&gt;Node17</title>
<g id="a_edge40_Node000023_Node000017"><a xlink:title=" ">
<path fill="none" stroke="#63b8ff" d="M530.71,-232.83C461.2,-226.69 330.17,-212.62 289,-191 267.81,-179.87 249.71,-158.88 238.42,-143.52"/>
<polygon fill="#63b8ff" stroke="#63b8ff" points="241.5,-141.82 232.89,-135.65 235.77,-145.84 241.5,-141.82"/>
</a>
</g>
</g>
<!-- Node23&#45;&gt;Node19 -->
<g id="edge41_Node000023_Node000019" class="edge">
<title>Node23&#45;&gt;Node19</title>
<g id="a_edge41_Node000023_Node000019"><a xlink:title=" ">
<path fill="none" stroke="#63b8ff" d="M530.76,-226.84C481.07,-216.13 401.45,-198.97 355.94,-189.16"/>
<polygon fill="#63b8ff" stroke="#63b8ff" points="356.86,-185.77 346.35,-187.09 355.38,-192.62 356.86,-185.77"/>
</a>
</g>
</g>
<!-- Node23&#45;&gt;Node20 -->
<g id="edge42_Node000023_Node000020" class="edge">
<title>Node23&#45;&gt;Node20</title>
<g id="a_edge42_Node000023_Node000020"><a xlink:title=" ">
<path fill="none" stroke="#63b8ff" d="M617.49,-226.56C637.51,-219.81 660.01,-208.74 674,-191 684.08,-178.21 687.04,-159.77 687.65,-145.62"/>
<polygon fill="#63b8ff" stroke="#63b8ff" points="691.15,-146.05 687.68,-136.04 684.15,-146.03 691.15,-146.05"/>
</a>
</g>
</g>
<!-- Node24 -->
<g id="Node000024" class="node">
<title>Node24</title>
<g id="a_Node000024"><a xlink:href="../../dc/db7/map_8h.html" target="_top" xlink:title=" ">
<polygon fill="#fff0f0" stroke="red" points="869.88,-191 814.12,-191 814.12,-170.25 869.88,-170.25 869.88,-191"/>
<text text-anchor="middle" x="842" y="-177.5" font-family="Helvetica,sans-Serif" font-size="10.00">fl/map.h</text>
</a>
</g>
</g>
<!-- Node23&#45;&gt;Node24 -->
<g id="edge43_Node000023_Node000024" class="edge">
<title>Node23&#45;&gt;Node24</title>
<g id="a_edge43_Node000023_Node000024"><a xlink:title=" ">
<path fill="none" stroke="#63b8ff" d="M619.39,-227.27C670.6,-216.77 753.99,-199.67 802.86,-189.65"/>
<polygon fill="#63b8ff" stroke="#63b8ff" points="803.34,-193.13 812.43,-187.69 801.93,-186.27 803.34,-193.13"/>
</a>
</g>
</g>
<!-- Node30 -->
<g id="Node000030" class="node">
<title>Node30</title>
<g id="a_Node000030"><a xlink:href="../../dc/d0e/fl_2str_8h.html" target="_top" xlink:title=" ">
<polygon fill="#fff0f0" stroke="red" points="593.5,-191 556.5,-191 556.5,-170.25 593.5,-170.25 593.5,-191"/>
<text text-anchor="middle" x="575" y="-177.5" font-family="Helvetica,sans-Serif" font-size="10.00">str.h</text>
</a>
</g>
</g>
<!-- Node23&#45;&gt;Node30 -->
<g id="edge49_Node000023_Node000030" class="edge">
<title>Node23&#45;&gt;Node30</title>
<g id="a_edge49_Node000023_Node000030"><a xlink:title=" ">
<path fill="none" stroke="#63b8ff" d="M575,-226.59C575,-219.97 575,-210.97 575,-202.77"/>
<polygon fill="#63b8ff" stroke="#63b8ff" points="578.5,-202.84 575,-192.84 571.5,-202.84 578.5,-202.84"/>
</a>
</g>
</g>
<!-- Node24&#45;&gt;Node3 -->
<g id="edge47_Node000024_Node000003" class="edge">
<title>Node24&#45;&gt;Node3</title>
<g id="a_edge47_Node000024_Node000003"><a xlink:title=" ">
<path fill="none" stroke="#63b8ff" d="M854.51,-169.84C864.57,-161.97 878.91,-150.75 890.76,-141.49"/>
<polygon fill="#63b8ff" stroke="#63b8ff" points="892.68,-144.43 898.4,-135.51 888.37,-138.91 892.68,-144.43"/>
</a>
</g>
</g>
<!-- Node24&#45;&gt;Node4 -->
<g id="edge44_Node000024_Node000004" class="edge">
<title>Node24&#45;&gt;Node4</title>
<g id="a_edge44_Node000024_Node000004"><a xlink:title=" ">
<path fill="none" stroke="#63b8ff" d="M827.13,-169.8C804.64,-155.38 760.22,-128.55 719,-113.5 658.66,-91.46 584.73,-78.83 540.88,-72.74"/>
<polygon fill="#63b8ff" stroke="#63b8ff" points="541.48,-69.29 531.11,-71.42 540.55,-76.22 541.48,-69.29"/>
</a>
</g>
</g>
<!-- Node24&#45;&gt;Node5 -->
<g id="edge45_Node000024_Node000005" class="edge">
<title>Node24&#45;&gt;Node5</title>
<g id="a_edge45_Node000024_Node000005"><a xlink:title=" ">
<path fill="none" stroke="#63b8ff" d="M870.27,-175.35C944.1,-163.55 1139.59,-128.01 1177,-77.5 1209.38,-33.77 1114.75,-18.77 1058.13,-13.77"/>
<polygon fill="#63b8ff" stroke="#63b8ff" points="1058.44,-10.29 1048.19,-12.97 1057.88,-17.26 1058.44,-10.29"/>
</a>
</g>
</g>
<!-- Node24&#45;&gt;Node7 -->
<g id="edge46_Node000024_Node000007" class="edge">
<title>Node24&#45;&gt;Node7</title>
<g id="a_edge46_Node000024_Node000007"><a xlink:title=" ">
<path fill="none" stroke="#63b8ff" d="M835.1,-169.77C825.6,-156.44 807.63,-132.2 790,-113.5 763.92,-85.84 758.21,-76.94 726,-56.75 705,-43.58 679.52,-32.73 658.48,-24.95"/>
<polygon fill="#63b8ff" stroke="#63b8ff" points="659.94,-21.75 649.35,-21.67 657.58,-28.34 659.94,-21.75"/>
</a>
</g>
</g>
<!-- Node24&#45;&gt;Node9 -->
<g id="edge48_Node000024_Node000009" class="edge">
<title>Node24&#45;&gt;Node9</title>
<g id="a_edge48_Node000024_Node000009"><a xlink:title=" ">
<path fill="none" stroke="#63b8ff" d="M843.98,-169.87C847.3,-155.78 855.24,-129.65 871,-113.5 884.87,-99.29 904.06,-89.03 921.71,-81.91"/>
<polygon fill="#63b8ff" stroke="#63b8ff" points="922.89,-85.21 931.02,-78.41 920.43,-78.65 922.89,-85.21"/>
</a>
</g>
</g>
<!-- Node30&#45;&gt;Node3 -->
<g id="edge53_Node000030_Node000003" class="edge">
<title>Node30&#45;&gt;Node3</title>
<g id="a_edge53_Node000030_Node000003"><a xlink:title=" ">
<path fill="none" stroke="#63b8ff" d="M593.6,-176.6C645.66,-168.14 793.91,-144.06 868.3,-131.97"/>
<polygon fill="#63b8ff" stroke="#63b8ff" points="868.78,-135.44 878.09,-130.38 867.65,-128.53 868.78,-135.44"/>
</a>
</g>
</g>
<!-- Node30&#45;&gt;Node4 -->
<g id="edge51_Node000030_Node000004" class="edge">
<title>Node30&#45;&gt;Node4</title>
<g id="a_edge51_Node000030_Node000004"><a xlink:title=" ">
<path fill="none" stroke="#63b8ff" d="M569.73,-170.03C562.48,-157.01 548.87,-133.11 536,-113.5 530.07,-104.47 523.09,-94.75 517.07,-86.63"/>
<polygon fill="#63b8ff" stroke="#63b8ff" points="520.06,-84.78 511.26,-78.88 514.46,-88.98 520.06,-84.78"/>
</a>
</g>
</g>
<!-- Node30&#45;&gt;Node7 -->
<g id="edge54_Node000030_Node000007" class="edge">
<title>Node30&#45;&gt;Node7</title>
<g id="a_edge54_Node000030_Node000007"><a xlink:title=" ">
<path fill="none" stroke="#63b8ff" d="M577.38,-170.1C583.99,-143.62 602.7,-68.68 611.84,-32.05"/>
<polygon fill="#63b8ff" stroke="#63b8ff" points="615.15,-33.24 614.18,-22.69 608.36,-31.54 615.15,-33.24"/>
</a>
</g>
</g>
<!-- Node30&#45;&gt;Node12 -->
<g id="edge50_Node000030_Node000012" class="edge">
<title>Node30&#45;&gt;Node12</title>
<g id="a_edge50_Node000030_Node000012"><a xlink:title=" ">
<path fill="none" stroke="#63b8ff" d="M556.04,-172.47C533.48,-163.95 495.27,-149.52 466.82,-138.78"/>
<polygon fill="#63b8ff" stroke="#63b8ff" points="468.08,-135.51 457.49,-135.25 465.61,-142.06 468.08,-135.51"/>
</a>
</g>
</g>
<!-- Node30&#45;&gt;Node20 -->
<g id="edge52_Node000030_Node000020" class="edge">
<title>Node30&#45;&gt;Node20</title>
<g id="a_edge52_Node000030_Node000020"><a xlink:title=" ">
<path fill="none" stroke="#63b8ff" d="M594,-170.34C611.25,-161.91 636.97,-149.33 656.99,-139.55"/>
<polygon fill="#63b8ff" stroke="#63b8ff" points="658.35,-142.78 665.79,-135.24 655.27,-136.49 658.35,-142.78"/>
</a>
</g>
</g>
</g>
</svg>
