<?xml version="1.0" encoding="UTF-8" standalone="no"?>
<!DOCTYPE svg PUBLIC "-//W3C//DTD SVG 1.1//EN"
 "http://www.w3.org/Graphics/SVG/1.1/DTD/svg11.dtd">
<!-- Generated by graphviz version 12.2.1 (20241206.2353)
 -->
<!-- Title: scale8_video_LEAVING_R1_DIRTY Pages: 1 -->
<svg width="406pt" height="68pt"
 viewBox="0.00 0.00 406.25 67.75" xmlns="http://www.w3.org/2000/svg" xmlns:xlink="http://www.w3.org/1999/xlink">
<g id="graph0" class="graph" transform="scale(1 1) rotate(0) translate(4 63.75)">
<title>scale8_video_LEAVING_R1_DIRTY</title>
<!-- Node1 -->
<g id="Node000001" class="node">
<title>Node1</title>
<g id="a_Node000001"><a xlink:title="This version of scale8_video() does not clean up the R1 register on AVR.">
<polygon fill="#999999" stroke="#666666" points="398.25,-46.12 271.25,-46.12 271.25,-12.62 398.25,-12.62 398.25,-46.12"/>
<text text-anchor="start" x="279.25" y="-32.62" font-family="Helvetica,sans-Serif" font-size="10.00">scale8_video_LEAVING</text>
<text text-anchor="middle" x="334.75" y="-19.88" font-family="Helvetica,sans-Serif" font-size="10.00">_R1_DIRTY</text>
</a>
</g>
</g>
<!-- Node2 -->
<g id="Node000002" class="node">
<title>Node2</title>
<g id="a_Node000002"><a xlink:href="../../d2/d73/group___palette_colors.html#gaf65fa1b4fedbbd7b8054a71e1b6474b3" target="_top" xlink:title="Get a color from a palette.">
<polygon fill="white" stroke="#666666" points="235.25,-59.75 135.25,-59.75 135.25,-39 235.25,-39 235.25,-59.75"/>
<text text-anchor="middle" x="185.25" y="-46.25" font-family="Helvetica,sans-Serif" font-size="10.00">ColorFromPalette</text>
</a>
</g>
</g>
<!-- Node1&#45;&gt;Node2 -->
<g id="edge1_Node000001_Node000002" class="edge">
<title>Node1&#45;&gt;Node2</title>
<g id="a_edge1_Node000001_Node000002"><a xlink:title=" ">
<path fill="none" stroke="#63b8ff" d="M259.41,-39.46C251.35,-40.55 243.3,-41.64 235.64,-42.68"/>
<polygon fill="#63b8ff" stroke="#63b8ff" points="259.83,-42.93 269.27,-38.12 258.89,-35.99 259.83,-42.93"/>
</a>
</g>
</g>
<!-- Node3 -->
<g id="Node000003" class="node">
<title>Node3</title>
<g id="a_Node000003"><a xlink:href="../../df/d9d/hsv2rgb_8cpp.html#a06ee0f21e1bf430ea547244f6ed4add8" target="_top" xlink:title=" ">
<polygon fill="white" stroke="#666666" points="234.88,-20.75 135.62,-20.75 135.62,0 234.88,0 234.88,-20.75"/>
<text text-anchor="middle" x="185.25" y="-7.25" font-family="Helvetica,sans-Serif" font-size="10.00">hsv2rgb_rainbow</text>
</a>
</g>
</g>
<!-- Node1&#45;&gt;Node3 -->
<g id="edge2_Node000001_Node000003" class="edge">
<title>Node1&#45;&gt;Node3</title>
<g id="a_edge2_Node000001_Node000003"><a xlink:title=" ">
<path fill="none" stroke="#63b8ff" d="M259.54,-19.82C251.28,-18.75 243.02,-17.69 235.19,-16.68"/>
<polygon fill="#63b8ff" stroke="#63b8ff" points="258.9,-23.26 269.27,-21.07 259.8,-16.32 258.9,-23.26"/>
</a>
</g>
</g>
<!-- Node4 -->
<g id="Node000004" class="node">
<title>Node4</title>
<g id="a_Node000004"><a xlink:href="../../dd/dc7/group___h_s_v2_r_g_b.html#gaf722826b0b5d16450ca3da28382e7eb3" target="_top" xlink:title="Forward declaration of hsv2rgb_rainbow here, to avoid circular dependencies.">
<polygon fill="white" stroke="#666666" points="99.25,-20.75 0,-20.75 0,0 99.25,0 99.25,-20.75"/>
<text text-anchor="middle" x="49.62" y="-7.25" font-family="Helvetica,sans-Serif" font-size="10.00">hsv2rgb_rainbow</text>
</a>
</g>
</g>
<!-- Node3&#45;&gt;Node4 -->
<g id="edge3_Node000003_Node000004" class="edge">
<title>Node3&#45;&gt;Node4</title>
<g id="a_edge3_Node000003_Node000004"><a xlink:title=" ">
<path fill="none" stroke="#63b8ff" d="M123.9,-10.38C115.77,-10.38 107.51,-10.38 99.62,-10.38"/>
<polygon fill="#63b8ff" stroke="#63b8ff" points="123.74,-13.88 133.74,-10.38 123.74,-6.88 123.74,-13.88"/>
</a>
</g>
</g>
</g>
</svg>
