<?xml version="1.0" encoding="UTF-8" standalone="no"?>
<!DOCTYPE svg PUBLIC "-//W3C//DTD SVG 1.1//EN"
 "http://www.w3.org/Graphics/SVG/1.1/DTD/svg11.dtd">
<!-- Generated by graphviz version 12.2.1 (20241206.2353)
 -->
<!-- Title: fl::TwinkleFox::computeOneTwinkle Pages: 1 -->
<svg width="581pt" height="42pt"
 viewBox="0.00 0.00 581.25 41.50" xmlns="http://www.w3.org/2000/svg" xmlns:xlink="http://www.w3.org/1999/xlink">
<g id="graph0" class="graph" transform="scale(1 1) rotate(0) translate(4 37.5)">
<title>fl::TwinkleFox::computeOneTwinkle</title>
<!-- Node1 -->
<g id="Node000001" class="node">
<title>Node1</title>
<g id="a_Node000001"><a xlink:title=" ">
<polygon fill="#999999" stroke="#666666" points="573.25,-33.5 423,-33.5 423,0 573.25,0 573.25,-33.5"/>
<text text-anchor="start" x="431" y="-20" font-family="Helvetica,sans-Serif" font-size="10.00">fl::TwinkleFox::computeOne</text>
<text text-anchor="middle" x="498.12" y="-7.25" font-family="Helvetica,sans-Serif" font-size="10.00">Twinkle</text>
</a>
</g>
</g>
<!-- Node2 -->
<g id="Node000002" class="node">
<title>Node2</title>
<g id="a_Node000002"><a xlink:href="../../de/db5/classfl_1_1_twinkle_fox.html#a67375829d0da55e17d3f74ac9817914d" target="_top" xlink:title=" ">
<polygon fill="white" stroke="#666666" points="387,-27.12 221,-27.12 221,-6.38 387,-6.38 387,-27.12"/>
<text text-anchor="middle" x="304" y="-13.62" font-family="Helvetica,sans-Serif" font-size="10.00">fl::TwinkleFox::drawTwinkleFox</text>
</a>
</g>
</g>
<!-- Node1&#45;&gt;Node2 -->
<g id="edge1_Node000001_Node000002" class="edge">
<title>Node1&#45;&gt;Node2</title>
<g id="a_edge1_Node000001_Node000002"><a xlink:title=" ">
<path fill="none" stroke="#63b8ff" d="M411.14,-16.75C403.27,-16.75 395.32,-16.75 387.48,-16.75"/>
<polygon fill="#63b8ff" stroke="#63b8ff" points="411.06,-20.25 421.06,-16.75 411.06,-13.25 411.06,-20.25"/>
</a>
</g>
</g>
<!-- Node3 -->
<g id="Node000003" class="node">
<title>Node3</title>
<g id="a_Node000003"><a xlink:href="../../de/db5/classfl_1_1_twinkle_fox.html#ab5d3d43b11bed65afbd407071ee85eb8" target="_top" xlink:title=" ">
<polygon fill="white" stroke="#666666" points="185,-27.12 73,-27.12 73,-6.38 185,-6.38 185,-27.12"/>
<text text-anchor="middle" x="129" y="-13.62" font-family="Helvetica,sans-Serif" font-size="10.00">fl::TwinkleFox::draw</text>
</a>
</g>
</g>
<!-- Node2&#45;&gt;Node3 -->
<g id="edge2_Node000002_Node000003" class="edge">
<title>Node2&#45;&gt;Node3</title>
<g id="a_edge2_Node000002_Node000003"><a xlink:title=" ">
<path fill="none" stroke="#63b8ff" d="M209.29,-16.75C201.05,-16.75 192.9,-16.75 185.14,-16.75"/>
<polygon fill="#63b8ff" stroke="#63b8ff" points="209.04,-20.25 219.04,-16.75 209.04,-13.25 209.04,-20.25"/>
</a>
</g>
</g>
<!-- Node4 -->
<g id="Node000004" class="node">
<title>Node4</title>
<g id="a_Node000004"><a xlink:href="../../dd/d4d/_fx_twinkle_fox_8ino.html#afe461d27b9c48d5921c00d521181f12f" target="_top" xlink:title=" ">
<polygon fill="white" stroke="#666666" points="37,-27.12 0,-27.12 0,-6.38 37,-6.38 37,-27.12"/>
<text text-anchor="middle" x="18.5" y="-13.62" font-family="Helvetica,sans-Serif" font-size="10.00">loop</text>
</a>
</g>
</g>
<!-- Node3&#45;&gt;Node4 -->
<g id="edge3_Node000003_Node000004" class="edge">
<title>Node3&#45;&gt;Node4</title>
<g id="a_edge3_Node000003_Node000004"><a xlink:title=" ">
<path fill="none" stroke="#63b8ff" d="M61.33,-16.75C52.42,-16.75 43.98,-16.75 37.04,-16.75"/>
<polygon fill="#63b8ff" stroke="#63b8ff" points="61.28,-20.25 71.28,-16.75 61.28,-13.25 61.28,-20.25"/>
</a>
</g>
</g>
</g>
</svg>
