<?xml version="1.0" encoding="UTF-8" standalone="no"?>
<!DOCTYPE svg PUBLIC "-//W3C//DTD SVG 1.1//EN"
 "http://www.w3.org/Graphics/SVG/1.1/DTD/svg11.dtd">
<!-- Generated by graphviz version 12.2.1 (20241206.2353)
 -->
<!-- Title: fl::TwinkleFox::computeOneTwinkle Pages: 1 -->
<svg width="693pt" height="220pt"
 viewBox="0.00 0.00 692.50 219.75" xmlns="http://www.w3.org/2000/svg" xmlns:xlink="http://www.w3.org/1999/xlink">
<g id="graph0" class="graph" transform="scale(1 1) rotate(0) translate(4 215.75)">
<title>fl::TwinkleFox::computeOneTwinkle</title>
<!-- Node1 -->
<g id="Node000001" class="node">
<title>Node1</title>
<g id="a_Node000001"><a xlink:title=" ">
<polygon fill="#999999" stroke="#666666" points="150.25,-123.12 0,-123.12 0,-89.62 150.25,-89.62 150.25,-123.12"/>
<text text-anchor="start" x="8" y="-109.62" font-family="Helvetica,sans-Serif" font-size="10.00">fl::TwinkleFox::computeOne</text>
<text text-anchor="middle" x="75.12" y="-96.88" font-family="Helvetica,sans-Serif" font-size="10.00">Twinkle</text>
</a>
</g>
</g>
<!-- Node2 -->
<g id="Node000002" class="node">
<title>Node2</title>
<g id="a_Node000002"><a xlink:href="../../de/db5/classfl_1_1_twinkle_fox.html#a4fe4a588d8419d38c454e35b863a7672" target="_top" xlink:title=" ">
<polygon fill="white" stroke="#666666" points="335.75,-168.12 186.25,-168.12 186.25,-134.62 335.75,-134.62 335.75,-168.12"/>
<text text-anchor="start" x="194.25" y="-154.62" font-family="Helvetica,sans-Serif" font-size="10.00">fl::TwinkleFox::attackDecay</text>
<text text-anchor="middle" x="261" y="-141.88" font-family="Helvetica,sans-Serif" font-size="10.00">Wave8</text>
</a>
</g>
</g>
<!-- Node1&#45;&gt;Node2 -->
<g id="edge1_Node000001_Node000002" class="edge">
<title>Node1&#45;&gt;Node2</title>
<g id="a_edge1_Node000001_Node000002"><a xlink:title=" ">
<path fill="none" stroke="#63b8ff" d="M146.43,-123.58C156.96,-126.16 167.9,-128.83 178.64,-131.46"/>
<polygon fill="#63b8ff" stroke="#63b8ff" points="177.72,-134.84 188.27,-133.82 179.39,-128.04 177.72,-134.84"/>
</a>
</g>
</g>
<!-- Node3 -->
<g id="Node000003" class="node">
<title>Node3</title>
<g id="a_Node000003"><a xlink:href="../../d2/d73/group___palette_colors.html#gac46e65aff3dd6519b33e27f0998f17cd" target="_top" xlink:title="Get a color from a palette.">
<polygon fill="white" stroke="#666666" points="311,-116.75 211,-116.75 211,-96 311,-96 311,-116.75"/>
<text text-anchor="middle" x="261" y="-103.25" font-family="Helvetica,sans-Serif" font-size="10.00">ColorFromPalette</text>
</a>
</g>
</g>
<!-- Node1&#45;&gt;Node3 -->
<g id="edge2_Node000001_Node000003" class="edge">
<title>Node1&#45;&gt;Node3</title>
<g id="a_edge2_Node000001_Node000003"><a xlink:title=" ">
<path fill="none" stroke="#63b8ff" d="M150.65,-106.38C166.91,-106.38 183.93,-106.38 199.56,-106.38"/>
<polygon fill="#63b8ff" stroke="#63b8ff" points="199.16,-109.88 209.16,-106.38 199.16,-102.88 199.16,-109.88"/>
</a>
</g>
</g>
<!-- Node12 -->
<g id="Node000012" class="node">
<title>Node12</title>
<g id="a_Node000012"><a xlink:href="../../de/db5/classfl_1_1_twinkle_fox.html#aff3c7b29001c2e1f4f6516e14000b22a" target="_top" xlink:title=" ">
<polygon fill="white" stroke="#666666" points="324.88,-62.12 197.12,-62.12 197.12,-28.62 324.88,-28.62 324.88,-62.12"/>
<text text-anchor="start" x="205.12" y="-48.62" font-family="Helvetica,sans-Serif" font-size="10.00">fl::TwinkleFox::coolLike</text>
<text text-anchor="middle" x="261" y="-35.88" font-family="Helvetica,sans-Serif" font-size="10.00">IncandescentFunction</text>
</a>
</g>
</g>
<!-- Node1&#45;&gt;Node12 -->
<g id="edge12_Node000001_Node000012" class="edge">
<title>Node1&#45;&gt;Node12</title>
<g id="a_edge12_Node000001_Node000012"><a xlink:title=" ">
<path fill="none" stroke="#63b8ff" d="M127.83,-89.22C149.38,-82.07 174.59,-73.71 197.19,-66.21"/>
<polygon fill="#63b8ff" stroke="#63b8ff" points="198.22,-69.56 206.61,-63.09 196.01,-62.92 198.22,-69.56"/>
</a>
</g>
</g>
<!-- Node4 -->
<g id="Node000004" class="node">
<title>Node4</title>
<g id="a_Node000004"><a xlink:href="../../dc/db8/group___color_blends.html#ga4f06b4423f71f77346aaf5dabe7dd05c" target="_top" xlink:title="Computes a new color blended some fraction of the way between two other colors.">
<polygon fill="white" stroke="#666666" points="415.88,-135.75 372.88,-135.75 372.88,-115 415.88,-115 415.88,-135.75"/>
<text text-anchor="middle" x="394.38" y="-122.25" font-family="Helvetica,sans-Serif" font-size="10.00">blend</text>
</a>
</g>
</g>
<!-- Node3&#45;&gt;Node4 -->
<g id="edge3_Node000003_Node000004" class="edge">
<title>Node3&#45;&gt;Node4</title>
<g id="a_edge3_Node000003_Node000004"><a xlink:title=" ">
<path fill="none" stroke="#63b8ff" d="M311.29,-113.5C328.07,-115.93 346.37,-118.58 361.42,-120.75"/>
<polygon fill="#63b8ff" stroke="#63b8ff" points="360.81,-124.2 371.21,-122.17 361.82,-117.27 360.81,-124.2"/>
</a>
</g>
</g>
<!-- Node7 -->
<g id="Node000007" class="node">
<title>Node7</title>
<g id="a_Node000007"><a xlink:href="../../d0/da5/group___scaling_dirty.html#ga3fade00fb4cf5b937b973128198a7a79" target="_top" xlink:title="Clean up the r1 register after a series of *LEAVING_R1_DIRTY calls.">
<polygon fill="white" stroke="#666666" points="647.38,-163.75 575.12,-163.75 575.12,-143 647.38,-143 647.38,-163.75"/>
<text text-anchor="middle" x="611.25" y="-150.25" font-family="Helvetica,sans-Serif" font-size="10.00">cleanup_R1</text>
</a>
</g>
</g>
<!-- Node3&#45;&gt;Node7 -->
<g id="edge7_Node000003_Node000007" class="edge">
<title>Node3&#45;&gt;Node7</title>
<g id="a_edge7_Node000003_Node000007"><a xlink:title=" ">
<path fill="none" stroke="#63b8ff" d="M310.51,-117.15C319.03,-119.53 327.73,-122.28 335.75,-125.38 352.62,-131.9 354.27,-139.69 371.75,-144.38 436.46,-161.7 514.56,-160.74 563.32,-157.67"/>
<polygon fill="#63b8ff" stroke="#63b8ff" points="563.52,-161.16 573.26,-156.98 563.04,-154.18 563.52,-161.16"/>
</a>
</g>
</g>
<!-- Node8 -->
<g id="Node000008" class="node">
<title>Node8</title>
<g id="a_Node000008"><a xlink:href="../../d0/da5/group___scaling_dirty.html#ga7386235cada3aca429b189681d2ec56d" target="_top" xlink:title="This version of scale8() does not clean up the R1 register on AVR.">
<polygon fill="white" stroke="#666666" points="684.5,-115.75 538,-115.75 538,-95 684.5,-95 684.5,-115.75"/>
<text text-anchor="middle" x="611.25" y="-102.25" font-family="Helvetica,sans-Serif" font-size="10.00">scale8_LEAVING_R1_DIRTY</text>
</a>
</g>
</g>
<!-- Node3&#45;&gt;Node8 -->
<g id="edge11_Node000003_Node000008" class="edge">
<title>Node3&#45;&gt;Node8</title>
<g id="a_edge11_Node000003_Node000008"><a xlink:title=" ">
<path fill="none" stroke="#63b8ff" d="M311.16,-106.23C366.99,-106.07 459.04,-105.81 526.3,-105.62"/>
<polygon fill="#63b8ff" stroke="#63b8ff" points="526.21,-109.12 536.2,-105.59 526.19,-102.12 526.21,-109.12"/>
</a>
</g>
</g>
<!-- Node9 -->
<g id="Node000009" class="node">
<title>Node9</title>
<g id="a_Node000009"><a xlink:href="../../da/d2d/colorutils_8cpp.html#ab445fd8641e95a3bbd1417d9783f6170" target="_top" xlink:title="Helper function to divide a number by 16, aka four logical shift right (LSR)&#39;s.">
<polygon fill="white" stroke="#666666" points="414.75,-59.75 374,-59.75 374,-39 414.75,-39 414.75,-59.75"/>
<text text-anchor="middle" x="394.38" y="-46.25" font-family="Helvetica,sans-Serif" font-size="10.00">lsrX4</text>
</a>
</g>
</g>
<!-- Node3&#45;&gt;Node9 -->
<g id="edge8_Node000003_Node000009" class="edge">
<title>Node3&#45;&gt;Node9</title>
<g id="a_edge8_Node000003_Node000009"><a xlink:title=" ">
<path fill="none" stroke="#63b8ff" d="M287.02,-95.52C308.74,-86.09 340.25,-72.43 363.33,-62.41"/>
<polygon fill="#63b8ff" stroke="#63b8ff" points="364.42,-65.75 372.2,-58.56 361.64,-59.33 364.42,-65.75"/>
</a>
</g>
</g>
<!-- Node10 -->
<g id="Node000010" class="node">
<title>Node10</title>
<g id="a_Node000010"><a xlink:href="../../d6/d19/group___linear_interpolation.html#gaf65357c7aeca9778e5a2f80a6bac2b5d" target="_top" xlink:title="Map from one full&#45;range 8&#45;bit value into a narrower range of 8&#45;bit values, possibly a range of hues.">
<polygon fill="white" stroke="#666666" points="416.25,-211.75 372.5,-211.75 372.5,-191 416.25,-191 416.25,-211.75"/>
<text text-anchor="middle" x="394.38" y="-198.25" font-family="Helvetica,sans-Serif" font-size="10.00">map8</text>
</a>
</g>
</g>
<!-- Node3&#45;&gt;Node10 -->
<g id="edge9_Node000003_Node000010" class="edge">
<title>Node3&#45;&gt;Node10</title>
<g id="a_edge9_Node000003_Node000010"><a xlink:title=" ">
<path fill="none" stroke="#63b8ff" d="M311.36,-113.87C319.97,-116.59 328.48,-120.31 335.75,-125.38 358.81,-141.45 354.31,-155.33 371.75,-177.38 373.11,-179.09 374.55,-180.84 376.03,-182.57"/>
<polygon fill="#63b8ff" stroke="#63b8ff" points="373.13,-184.58 382.38,-189.74 378.37,-179.94 373.13,-184.58"/>
</a>
</g>
</g>
<!-- Node5 -->
<g id="Node000005" class="node">
<title>Node5</title>
<g id="a_Node000005"><a xlink:href="../../dc/db8/group___color_blends.html#ga325120664a9c9b41abceee65303b0c4e" target="_top" xlink:title="Destructively modifies one color, blending in a given fraction of an overlay color.">
<polygon fill="#fff0f0" stroke="red" points="502,-135.75 453,-135.75 453,-115 502,-115 502,-135.75"/>
<text text-anchor="middle" x="477.5" y="-122.25" font-family="Helvetica,sans-Serif" font-size="10.00">nblend</text>
</a>
</g>
</g>
<!-- Node4&#45;&gt;Node5 -->
<g id="edge4_Node000004_Node000005" class="edge">
<title>Node4&#45;&gt;Node5</title>
<g id="a_edge4_Node000004_Node000005"><a xlink:title=" ">
<path fill="none" stroke="#63b8ff" d="M416.27,-125.38C423.88,-125.38 432.72,-125.38 441.24,-125.38"/>
<polygon fill="#63b8ff" stroke="#63b8ff" points="441.01,-128.88 451.01,-125.38 441.01,-121.88 441.01,-128.88"/>
</a>
</g>
</g>
<!-- Node5&#45;&gt;Node7 -->
<g id="edge5_Node000005_Node000007" class="edge">
<title>Node5&#45;&gt;Node7</title>
<g id="a_edge5_Node000005_Node000007"><a xlink:title=" ">
<path fill="none" stroke="#63b8ff" d="M502.36,-130.45C519.38,-134.06 542.82,-139.04 563.5,-143.44"/>
<polygon fill="#63b8ff" stroke="#63b8ff" points="562.66,-146.84 573.17,-145.49 564.12,-139.99 562.66,-146.84"/>
</a>
</g>
</g>
<!-- Node5&#45;&gt;Node8 -->
<g id="edge6_Node000005_Node000008" class="edge">
<title>Node5&#45;&gt;Node8</title>
<g id="a_edge6_Node000005_Node000008"><a xlink:title=" ">
<path fill="none" stroke="#63b8ff" d="M502.36,-121.75C509.79,-120.62 518.45,-119.31 527.57,-117.93"/>
<polygon fill="#63b8ff" stroke="#63b8ff" points="528.01,-121.4 537.37,-116.44 526.96,-114.48 528.01,-121.4"/>
</a>
</g>
</g>
<!-- Node11 -->
<g id="Node000011" class="node">
<title>Node11</title>
<g id="a_Node000011"><a xlink:href="../../d0/da8/group___scaling.html#gad7535ccda9c92470c4e6ee0265585555" target="_top" xlink:title="Scale one byte by a second one, which is treated as the numerator of a fraction whose denominator is ...">
<polygon fill="white" stroke="#666666" points="501.25,-211.75 453.75,-211.75 453.75,-191 501.25,-191 501.25,-211.75"/>
<text text-anchor="middle" x="477.5" y="-198.25" font-family="Helvetica,sans-Serif" font-size="10.00">scale8</text>
</a>
</g>
</g>
<!-- Node10&#45;&gt;Node11 -->
<g id="edge10_Node000010_Node000011" class="edge">
<title>Node10&#45;&gt;Node11</title>
<g id="a_edge10_Node000010_Node000011"><a xlink:title=" ">
<path fill="none" stroke="#63b8ff" d="M416.69,-201.38C424.44,-201.38 433.4,-201.38 441.99,-201.38"/>
<polygon fill="#63b8ff" stroke="#63b8ff" points="441.82,-204.88 451.82,-201.38 441.82,-197.88 441.82,-204.88"/>
</a>
</g>
</g>
<!-- Node13 -->
<g id="Node000013" class="node">
<title>Node13</title>
<g id="a_Node000013"><a xlink:href="../../d5/d98/group___math.html#gae261576a4c8155d6c0ba8615b2d2ecb3" target="_top" xlink:title="Subtract one byte from another, saturating at 0x00.">
<polygon fill="white" stroke="#666666" points="417,-20.75 371.75,-20.75 371.75,0 417,0 417,-20.75"/>
<text text-anchor="middle" x="394.38" y="-7.25" font-family="Helvetica,sans-Serif" font-size="10.00">qsub8</text>
</a>
</g>
</g>
<!-- Node12&#45;&gt;Node13 -->
<g id="edge13_Node000012_Node000013" class="edge">
<title>Node12&#45;&gt;Node13</title>
<g id="a_edge13_Node000012_Node000013"><a xlink:title=" ">
<path fill="none" stroke="#63b8ff" d="M324.99,-28.59C337.28,-25.32 349.69,-22.01 360.5,-19.13"/>
<polygon fill="#63b8ff" stroke="#63b8ff" points="361.3,-22.54 370.06,-16.59 359.5,-15.78 361.3,-22.54"/>
</a>
</g>
</g>
</g>
</svg>
