<?xml version="1.0" encoding="UTF-8" standalone="no"?>
<!DOCTYPE svg PUBLIC "-//W3C//DTD SVG 1.1//EN"
 "http://www.w3.org/Graphics/SVG/1.1/DTD/svg11.dtd">
<!-- Generated by graphviz version 12.2.1 (20241206.2353)
 -->
<!-- Title: KeyboardState::HandleNoteOff Pages: 1 -->
<svg width="512pt" height="107pt"
 viewBox="0.00 0.00 512.00 106.75" xmlns="http://www.w3.org/2000/svg" xmlns:xlink="http://www.w3.org/1999/xlink">
<g id="graph0" class="graph" transform="scale(1 1) rotate(0) translate(4 102.75)">
<title>KeyboardState::HandleNoteOff</title>
<!-- Node1 -->
<g id="Node000001" class="node">
<title>Node1</title>
<g id="a_Node000001"><a xlink:title=" ">
<polygon fill="#999999" stroke="#666666" points="165.25,-59.75 0,-59.75 0,-39 165.25,-39 165.25,-59.75"/>
<text text-anchor="middle" x="82.62" y="-46.25" font-family="Helvetica,sans-Serif" font-size="10.00">KeyboardState::HandleNoteOff</text>
</a>
</g>
</g>
<!-- Node2 -->
<g id="Node000002" class="node">
<title>Node2</title>
<g id="a_Node000002"><a xlink:href="../../db/d37/class_keyboard_state.html#aabaa53bea4f73d33d643c297b199c496" target="_top" xlink:title=" ">
<polygon fill="white" stroke="#666666" points="329.75,-98.75 201.25,-98.75 201.25,-78 329.75,-78 329.75,-98.75"/>
<text text-anchor="middle" x="265.5" y="-85.25" font-family="Helvetica,sans-Serif" font-size="10.00">KeyboardState::GetKey</text>
</a>
</g>
</g>
<!-- Node1&#45;&gt;Node2 -->
<g id="edge1_Node000001_Node000002" class="edge">
<title>Node1&#45;&gt;Node2</title>
<g id="a_edge1_Node000001_Node000002"><a xlink:title=" ">
<path fill="none" stroke="#63b8ff" d="M134.01,-60.24C155.38,-64.85 180.49,-70.26 202.95,-75.1"/>
<polygon fill="#63b8ff" stroke="#63b8ff" points="202.08,-78.5 212.59,-77.18 203.56,-71.65 202.08,-78.5"/>
</a>
</g>
</g>
<!-- Node4 -->
<g id="Node000004" class="node">
<title>Node4</title>
<g id="a_Node000004"><a xlink:href="../../db/d42/struct_key.html#a03534d492ab55aa8e9c24165e76b4356" target="_top" xlink:title=" ">
<polygon fill="white" stroke="#666666" points="300.12,-59.75 230.88,-59.75 230.88,-39 300.12,-39 300.12,-59.75"/>
<text text-anchor="middle" x="265.5" y="-46.25" font-family="Helvetica,sans-Serif" font-size="10.00">Key::SetOff</text>
</a>
</g>
</g>
<!-- Node1&#45;&gt;Node4 -->
<g id="edge3_Node000001_Node000004" class="edge">
<title>Node1&#45;&gt;Node4</title>
<g id="a_edge3_Node000001_Node000004"><a xlink:title=" ">
<path fill="none" stroke="#63b8ff" d="M165.6,-49.38C184.1,-49.38 203.08,-49.38 219.4,-49.38"/>
<polygon fill="#63b8ff" stroke="#63b8ff" points="219.26,-52.88 229.26,-49.38 219.26,-45.88 219.26,-52.88"/>
</a>
</g>
</g>
<!-- Node5 -->
<g id="Node000005" class="node">
<title>Node5</title>
<g id="a_Node000005"><a xlink:href="../../db/d42/struct_key.html#a2280240471eb2ce07a8199d9f48b97b1" target="_top" xlink:title=" ">
<polygon fill="white" stroke="#666666" points="317,-20.75 214,-20.75 214,0 317,0 317,-20.75"/>
<text text-anchor="middle" x="265.5" y="-7.25" font-family="Helvetica,sans-Serif" font-size="10.00">Key::SetSustained</text>
</a>
</g>
</g>
<!-- Node1&#45;&gt;Node5 -->
<g id="edge4_Node000001_Node000005" class="edge">
<title>Node1&#45;&gt;Node5</title>
<g id="a_edge4_Node000001_Node000005"><a xlink:title=" ">
<path fill="none" stroke="#63b8ff" d="M134.01,-38.51C155.38,-33.9 180.49,-28.49 202.95,-23.65"/>
<polygon fill="#63b8ff" stroke="#63b8ff" points="203.56,-27.1 212.59,-21.57 202.08,-20.25 203.56,-27.1"/>
</a>
</g>
</g>
<!-- Node3 -->
<g id="Node000003" class="node">
<title>Node3</title>
<g id="a_Node000003"><a xlink:href="../../db/d37/class_keyboard_state.html#a7743d2ab908d76bca89c0e776cdc0e87" target="_top" xlink:title=" ">
<polygon fill="white" stroke="#666666" points="504,-98.75 365.75,-98.75 365.75,-78 504,-78 504,-98.75"/>
<text text-anchor="middle" x="434.88" y="-85.25" font-family="Helvetica,sans-Serif" font-size="10.00">KeyboardState::KeyIndex</text>
</a>
</g>
</g>
<!-- Node2&#45;&gt;Node3 -->
<g id="edge2_Node000002_Node000003" class="edge">
<title>Node2&#45;&gt;Node3</title>
<g id="a_edge2_Node000002_Node000003"><a xlink:title=" ">
<path fill="none" stroke="#63b8ff" d="M329.78,-88.38C337.71,-88.38 345.89,-88.38 354.03,-88.38"/>
<polygon fill="#63b8ff" stroke="#63b8ff" points="353.96,-91.88 363.96,-88.38 353.96,-84.88 353.96,-91.88"/>
</a>
</g>
</g>
</g>
</svg>
