<?xml version="1.0" encoding="UTF-8" standalone="no"?>
<!DOCTYPE svg PUBLIC "-//W3C//DTD SVG 1.1//EN"
 "http://www.w3.org/Graphics/SVG/1.1/DTD/svg11.dtd">
<!-- Generated by graphviz version 12.2.1 (20241206.2353)
 -->
<!-- Title: DMXSERIAL&lt; RGB_ORDER &gt; Pages: 1 -->
<svg width="215pt" height="355pt"
 viewBox="0.00 0.00 215.12 355.00" xmlns="http://www.w3.org/2000/svg" xmlns:xlink="http://www.w3.org/1999/xlink">
<g id="graph0" class="graph" transform="scale(1 1) rotate(0) translate(4 351)">
<title>DMXSERIAL&lt; RGB_ORDER &gt;</title>
<!-- Node1 -->
<g id="Node000001" class="node">
<title>Node1</title>
<g id="a_Node000001"><a xlink:title="DMX512 based LED controller class, using the DMXSerial library.">
<polygon fill="#999999" stroke="#666666" points="157.75,-20.75 1.5,-20.75 1.5,0 157.75,0 157.75,-20.75"/>
<text text-anchor="middle" x="79.62" y="-7.25" font-family="Helvetica,sans-Serif" font-size="10.00">DMXSERIAL&lt; RGB_ORDER &gt;</text>
</a>
</g>
</g>
<!-- Node2 -->
<g id="Node000002" class="node">
<title>Node2</title>
<g id="a_Node000002"><a xlink:href="../../d7/d6f/group___clockless_chipsets.html" target="_top" xlink:title=" ">
<polygon fill="white" stroke="#666666" points="137.12,-91.25 22.12,-91.25 22.12,-57.75 137.12,-57.75 137.12,-91.25"/>
<text text-anchor="start" x="30.12" y="-77.75" font-family="Helvetica,sans-Serif" font-size="10.00">DMXSerialController</text>
<text text-anchor="middle" x="79.62" y="-65" font-family="Helvetica,sans-Serif" font-size="10.00">&lt; RGB_ORDER &gt;</text>
</a>
</g>
</g>
<!-- Node2&#45;&gt;Node1 -->
<g id="edge1_Node000001_Node000002" class="edge">
<title>Node2&#45;&gt;Node1</title>
<g id="a_edge1_Node000001_Node000002"><a xlink:title=" ">
<path fill="none" stroke="#63b8ff" d="M79.62,-46.23C79.62,-37.27 79.62,-27.89 79.62,-21.12"/>
<polygon fill="#63b8ff" stroke="#63b8ff" points="76.13,-45.99 79.63,-55.99 83.13,-45.99 76.13,-45.99"/>
</a>
</g>
</g>
<!-- Node3 -->
<g id="Node000003" class="node">
<title>Node3</title>
<g id="a_Node000003"><a xlink:href="../../d0/dc9/class_c_pixel_l_e_d_controller.html" target="_top" xlink:title="Template extension of the CLEDController class.">
<polygon fill="white" stroke="#666666" points="129.25,-237.75 0,-237.75 0,-191.5 129.25,-191.5 129.25,-237.75"/>
<text text-anchor="start" x="8" y="-224.25" font-family="Helvetica,sans-Serif" font-size="10.00">CPixelLEDController</text>
<text text-anchor="start" x="8" y="-211.5" font-family="Helvetica,sans-Serif" font-size="10.00">&lt; RGB_ORDER, LANES,</text>
<text text-anchor="middle" x="64.62" y="-198.75" font-family="Helvetica,sans-Serif" font-size="10.00"> MASK &gt;</text>
</a>
</g>
</g>
<!-- Node3&#45;&gt;Node2 -->
<g id="edge2_Node000002_Node000003" class="edge">
<title>Node3&#45;&gt;Node2</title>
<g id="a_edge2_Node000002_Node000003"><a xlink:title=" ">
<path fill="none" stroke="#63b8ff" d="M68.3,-179.82C71.35,-151.73 75.55,-113.01 77.89,-91.52"/>
<polygon fill="#63b8ff" stroke="#63b8ff" points="64.83,-179.3 67.23,-189.62 71.79,-180.06 64.83,-179.3"/>
</a>
</g>
</g>
<!-- Node4 -->
<g id="Node000004" class="node">
<title>Node4</title>
<g id="a_Node000004"><a xlink:href="../../d6/d2c/class_c_l_e_d_controller.html" target="_top" xlink:title="Base definition for an LED controller.">
<polygon fill="#fff0f0" stroke="red" points="121.38,-347 31.88,-347 31.88,-326.25 121.38,-326.25 121.38,-347"/>
<text text-anchor="middle" x="76.62" y="-333.5" font-family="Helvetica,sans-Serif" font-size="10.00">CLEDController</text>
</a>
</g>
</g>
<!-- Node4&#45;&gt;Node3 -->
<g id="edge3_Node000003_Node000004" class="edge">
<title>Node4&#45;&gt;Node3</title>
<g id="a_edge3_Node000003_Node000004"><a xlink:title=" ">
<path fill="none" stroke="#63b8ff" d="M74.51,-314.43C72.36,-293 69.06,-260.01 66.88,-238.13"/>
<polygon fill="#63b8ff" stroke="#63b8ff" points="71.01,-314.7 75.49,-324.3 77.98,-314 71.01,-314.7"/>
</a>
</g>
</g>
<!-- Node6 -->
<g id="Node000006" class="node">
<title>Node6</title>
<g id="a_Node000006"><a xlink:href="../../d0/dc9/class_c_pixel_l_e_d_controller.html" target="_top" xlink:title=" ">
<polygon fill="#fff0f0" stroke="red" points="205,-289.25 92.25,-289.25 92.25,-255.75 205,-255.75 205,-289.25"/>
<text text-anchor="start" x="100.25" y="-275.75" font-family="Helvetica,sans-Serif" font-size="10.00">CPixelLEDController</text>
<text text-anchor="middle" x="148.62" y="-263" font-family="Helvetica,sans-Serif" font-size="10.00">&lt; RGB &gt;</text>
</a>
</g>
</g>
<!-- Node4&#45;&gt;Node6 -->
<g id="edge6_Node000006_Node000004" class="edge">
<title>Node4&#45;&gt;Node6</title>
<g id="a_edge6_Node000006_Node000004"><a xlink:title=" ">
<path fill="none" stroke="#63b8ff" d="M96.35,-318.61C106.81,-309.58 119.59,-298.55 129.9,-289.66"/>
<polygon fill="#63b8ff" stroke="#63b8ff" points="94.31,-315.75 89.02,-324.93 98.88,-321.05 94.31,-315.75"/>
</a>
</g>
</g>
<!-- Node5 -->
<g id="Node000005" class="node">
<title>Node5</title>
<g id="a_Node000005"><a xlink:href="../../d7/d6f/group___clockless_chipsets.html#d9/d0f/class_d_m_x_serial_controller" target="_top" xlink:title="DMX512 based LED controller class, using the DMXSerial library.">
<polygon fill="white" stroke="#666666" points="207.12,-173.5 92.12,-173.5 92.12,-140 207.12,-140 207.12,-173.5"/>
<text text-anchor="start" x="100.12" y="-160" font-family="Helvetica,sans-Serif" font-size="10.00">DMXSerialController</text>
<text text-anchor="middle" x="149.62" y="-147.25" font-family="Helvetica,sans-Serif" font-size="10.00">&lt; RGB_ORDER &gt;</text>
</a>
</g>
</g>
<!-- Node5&#45;&gt;Node2 -->
<g id="edge4_Node000002_Node000005" class="edge">
<title>Node5&#45;&gt;Node2</title>
<g id="a_edge4_Node000002_Node000005"><a xlink:title=" ">
<path fill="none" stroke="orange" stroke-dasharray="5,2" d="M128.14,-131.12C116.97,-118.32 103.63,-103.02 93.77,-91.72"/>
<polygon fill="orange" stroke="orange" points="125.25,-133.13 134.46,-138.37 130.53,-128.53 125.25,-133.13"/>
</a>
</g>
<text text-anchor="middle" x="161.94" y="-112.5" font-family="Helvetica,sans-Serif" font-size="10.00" fill="grey"> &lt; RGB_ORDER &gt;</text>
</g>
<!-- Node6&#45;&gt;Node5 -->
<g id="edge5_Node000005_Node000006" class="edge">
<title>Node6&#45;&gt;Node5</title>
<g id="a_edge5_Node000005_Node000006"><a xlink:title=" ">
<path fill="none" stroke="#63b8ff" d="M148.86,-244.44C149.06,-222.44 149.32,-192.13 149.48,-173.8"/>
<polygon fill="#63b8ff" stroke="#63b8ff" points="145.37,-244.14 148.78,-254.17 152.37,-244.2 145.37,-244.14"/>
</a>
</g>
</g>
</g>
</svg>
