<?xml version="1.0" encoding="UTF-8" standalone="no"?>
<!DOCTYPE svg PUBLIC "-//W3C//DTD SVG 1.1//EN"
 "http://www.w3.org/Graphics/SVG/1.1/DTD/svg11.dtd">
<!-- Generated by graphviz version 12.2.1 (20241206.2353)
 -->
<!-- Title: DMXSimpleController&lt; DATA_PIN, RGB_ORDER &gt; Pages: 1 -->
<svg width="238pt" height="377pt"
 viewBox="0.00 0.00 237.50 377.25" xmlns="http://www.w3.org/2000/svg" xmlns:xlink="http://www.w3.org/1999/xlink">
<g id="graph0" class="graph" transform="scale(1 1) rotate(0) translate(4 373.25)">
<title>DMXSimpleController&lt; DATA_PIN, RGB_ORDER &gt;</title>
<!-- Node1 -->
<g id="Node000001" class="node">
<title>Node1</title>
<g id="a_Node000001"><a xlink:title="DMX512 based LED controller class, using the DmxSimple library.">
<polygon fill="#999999" stroke="#666666" points="164.12,-33.5 11.62,-33.5 11.62,0 164.12,0 164.12,-33.5"/>
<text text-anchor="start" x="19.62" y="-20" font-family="Helvetica,sans-Serif" font-size="10.00">DMXSimpleController</text>
<text text-anchor="middle" x="87.88" y="-7.25" font-family="Helvetica,sans-Serif" font-size="10.00">&lt; DATA_PIN, RGB_ORDER &gt;</text>
</a>
</g>
</g>
<!-- Node2 -->
<g id="Node000002" class="node">
<title>Node2</title>
<g id="a_Node000002"><a xlink:href="../../d0/dc9/class_c_pixel_l_e_d_controller.html" target="_top" xlink:title=" ">
<polygon fill="white" stroke="#666666" points="144.25,-104 31.5,-104 31.5,-70.5 144.25,-70.5 144.25,-104"/>
<text text-anchor="start" x="39.5" y="-90.5" font-family="Helvetica,sans-Serif" font-size="10.00">CPixelLEDController</text>
<text text-anchor="middle" x="87.88" y="-77.75" font-family="Helvetica,sans-Serif" font-size="10.00">&lt; RGB &gt;</text>
</a>
</g>
</g>
<!-- Node2&#45;&gt;Node1 -->
<g id="edge1_Node000001_Node000002" class="edge">
<title>Node2&#45;&gt;Node1</title>
<g id="a_edge1_Node000001_Node000002"><a xlink:title=" ">
<path fill="none" stroke="#63b8ff" d="M87.88,-58.7C87.88,-50.27 87.88,-41.27 87.88,-33.87"/>
<polygon fill="#63b8ff" stroke="#63b8ff" points="84.38,-58.5 87.88,-68.5 91.38,-58.5 84.38,-58.5"/>
</a>
</g>
</g>
<!-- Node3 -->
<g id="Node000003" class="node">
<title>Node3</title>
<g id="a_Node000003"><a xlink:href="../../d6/d2c/class_c_l_e_d_controller.html" target="_top" xlink:title="Base definition for an LED controller.">
<polygon fill="white" stroke="#666666" points="128.62,-265.5 39.12,-265.5 39.12,-244.75 128.62,-244.75 128.62,-265.5"/>
<text text-anchor="middle" x="83.88" y="-252" font-family="Helvetica,sans-Serif" font-size="10.00">CLEDController</text>
</a>
</g>
</g>
<!-- Node3&#45;&gt;Node2 -->
<g id="edge2_Node000002_Node000003" class="edge">
<title>Node3&#45;&gt;Node2</title>
<g id="a_edge2_Node000002_Node000003"><a xlink:title=" ">
<path fill="none" stroke="#63b8ff" d="M84.37,-233.63C85.18,-200.18 86.76,-134.56 87.49,-104.27"/>
<polygon fill="#63b8ff" stroke="#63b8ff" points="80.88,-233.14 84.14,-243.22 87.88,-233.31 80.88,-233.14"/>
</a>
</g>
</g>
<!-- Node3&#45;&gt;Node3 -->
<g id="edge4_Node000003_Node000003" class="edge">
<title>Node3&#45;&gt;Node3</title>
<g id="a_edge4_Node000003_Node000003"><a xlink:title=" ">
<path fill="none" stroke="#9a32cd" stroke-dasharray="5,2" d="M140.07,-260.33C144.14,-259.15 146.62,-257.42 146.62,-255.12 146.62,-251.16 139.18,-248.86 129,-248.24"/>
<polygon fill="#9a32cd" stroke="#9a32cd" points="139.86,-256.82 130.5,-261.78 140.91,-263.74 139.86,-256.82"/>
</a>
</g>
<text text-anchor="middle" x="171.38" y="-264.75" font-family="Helvetica,sans-Serif" font-size="10.00" fill="grey"> m_pHead</text>
<text text-anchor="middle" x="171.38" y="-252" font-family="Helvetica,sans-Serif" font-size="10.00" fill="grey">m_pNext</text>
<text text-anchor="middle" x="171.38" y="-239.25" font-family="Helvetica,sans-Serif" font-size="10.00" fill="grey">m_pTail</text>
</g>
<!-- Node6 -->
<g id="Node000006" class="node">
<title>Node6</title>
<g id="a_Node000006"><a xlink:href="../../d0/dc9/class_c_pixel_l_e_d_controller.html" target="_top" xlink:title="Template extension of the CLEDController class.">
<polygon fill="white" stroke="#666666" points="229.5,-199 100.25,-199 100.25,-152.75 229.5,-152.75 229.5,-199"/>
<text text-anchor="start" x="108.25" y="-185.5" font-family="Helvetica,sans-Serif" font-size="10.00">CPixelLEDController</text>
<text text-anchor="start" x="108.25" y="-172.75" font-family="Helvetica,sans-Serif" font-size="10.00">&lt; RGB_ORDER, LANES,</text>
<text text-anchor="middle" x="164.88" y="-160" font-family="Helvetica,sans-Serif" font-size="10.00"> MASK &gt;</text>
</a>
</g>
</g>
<!-- Node3&#45;&gt;Node6 -->
<g id="edge7_Node000006_Node000003" class="edge">
<title>Node3&#45;&gt;Node6</title>
<g id="a_edge7_Node000006_Node000003"><a xlink:title=" ">
<path fill="none" stroke="#63b8ff" d="M102.23,-236.62C113.86,-225.53 128.99,-211.1 141.47,-199.2"/>
<polygon fill="#63b8ff" stroke="#63b8ff" points="100.05,-233.86 95.23,-243.3 104.88,-238.93 100.05,-233.86"/>
</a>
</g>
</g>
<!-- Node4 -->
<g id="Node000004" class="node">
<title>Node4</title>
<g id="a_Node000004"><a xlink:href="../../db/d87/group___pixel_types.html#d7/d82/struct_c_r_g_b" target="_top" xlink:title="Representation of an RGB pixel (Red, Green, Blue)">
<polygon fill="white" stroke="#666666" points="43.75,-369.25 0,-369.25 0,-348.5 43.75,-348.5 43.75,-369.25"/>
<text text-anchor="middle" x="21.88" y="-355.75" font-family="Helvetica,sans-Serif" font-size="10.00">CRGB</text>
</a>
</g>
</g>
<!-- Node4&#45;&gt;Node3 -->
<g id="edge3_Node000003_Node000004" class="edge">
<title>Node4&#45;&gt;Node3</title>
<g id="a_edge3_Node000003_Node000004"><a xlink:title=" ">
<path fill="none" stroke="#9a32cd" stroke-dasharray="5,2" d="M17.21,-337.06C15.3,-323.41 15.08,-305.68 22.88,-292.25 29.92,-280.11 42.78,-271.62 54.89,-265.94"/>
<polygon fill="#9a32cd" stroke="#9a32cd" points="13.74,-337.51 18.99,-346.71 20.62,-336.24 13.74,-337.51"/>
</a>
</g>
<text text-anchor="middle" x="73.88" y="-321" font-family="Helvetica,sans-Serif" font-size="10.00" fill="grey"> m_ColorCorrection</text>
<text text-anchor="middle" x="73.88" y="-308.25" font-family="Helvetica,sans-Serif" font-size="10.00" fill="grey">m_ColorTemperature</text>
<text text-anchor="middle" x="73.88" y="-295.5" font-family="Helvetica,sans-Serif" font-size="10.00" fill="grey">m_Data</text>
</g>
<!-- Node5 -->
<g id="Node000005" class="node">
<title>Node5</title>
<g id="a_Node000005"><a xlink:href="../../db/d74/struct_rgbw.html" target="_top" xlink:title=" ">
<polygon fill="white" stroke="#666666" points="168.38,-369.25 125.38,-369.25 125.38,-348.5 168.38,-348.5 168.38,-369.25"/>
<text text-anchor="middle" x="146.88" y="-355.75" font-family="Helvetica,sans-Serif" font-size="10.00">Rgbw</text>
</a>
</g>
</g>
<!-- Node5&#45;&gt;Node3 -->
<g id="edge5_Node000003_Node000005" class="edge">
<title>Node5&#45;&gt;Node3</title>
<g id="a_edge5_Node000003_Node000005"><a xlink:title=" ">
<path fill="none" stroke="#9a32cd" stroke-dasharray="5,2" d="M142.88,-337.19C139.58,-323.61 133.93,-305.89 124.88,-292.25 117.95,-281.82 107.27,-272.54 98.54,-266"/>
<polygon fill="#9a32cd" stroke="#9a32cd" points="139.43,-337.76 144.97,-346.79 146.27,-336.28 139.43,-337.76"/>
</a>
</g>
<text text-anchor="middle" x="170.2" y="-308.25" font-family="Helvetica,sans-Serif" font-size="10.00" fill="grey"> mRgbMode</text>
</g>
<!-- Node6&#45;&gt;Node2 -->
<g id="edge6_Node000002_Node000006" class="edge">
<title>Node6&#45;&gt;Node2</title>
<g id="a_edge6_Node000002_Node000006"><a xlink:title=" ">
<path fill="none" stroke="orange" stroke-dasharray="5,2" d="M137.51,-144.09C125.62,-130.71 112.18,-115.59 102.29,-104.46"/>
<polygon fill="orange" stroke="orange" points="134.78,-146.29 144.04,-151.44 140.01,-141.64 134.78,-146.29"/>
</a>
</g>
<text text-anchor="middle" x="151.93" y="-125.25" font-family="Helvetica,sans-Serif" font-size="10.00" fill="grey"> &lt; RGB &gt;</text>
</g>
</g>
</svg>
