<?xml version="1.0" encoding="UTF-8" standalone="no"?>
<!DOCTYPE svg PUBLIC "-//W3C//DTD SVG 1.1//EN"
 "http://www.w3.org/Graphics/SVG/1.1/DTD/svg11.dtd">
<!-- Generated by graphviz version 12.2.1 (20241206.2353)
 -->
<!-- Title: LedRopeTCL Pages: 1 -->
<svg width="502pt" height="250pt"
 viewBox="0.00 0.00 501.50 250.00" xmlns="http://www.w3.org/2000/svg" xmlns:xlink="http://www.w3.org/1999/xlink">
<g id="graph0" class="graph" transform="scale(1 1) rotate(0) translate(4 246)">
<title>LedRopeTCL</title>
<!-- Node1 -->
<g id="Node000001" class="node">
<title>Node1</title>
<g id="a_Node000001"><a xlink:title=" ">
<polygon fill="#999999" stroke="#666666" points="256.38,-20.75 181.12,-20.75 181.12,0 256.38,0 256.38,-20.75"/>
<text text-anchor="middle" x="218.75" y="-7.25" font-family="Helvetica,sans-Serif" font-size="10.00">LedRopeTCL</text>
</a>
</g>
</g>
<!-- Node2 -->
<g id="Node000002" class="node">
<title>Node2</title>
<g id="a_Node000002"><a xlink:href="../../d2/d84/class_led_rope_interface.html" target="_top" xlink:title=" ">
<polygon fill="white" stroke="#666666" points="101.5,-90.25 0,-90.25 0,-69.5 101.5,-69.5 101.5,-90.25"/>
<text text-anchor="middle" x="50.75" y="-76.75" font-family="Helvetica,sans-Serif" font-size="10.00">LedRopeInterface</text>
</a>
</g>
</g>
<!-- Node2&#45;&gt;Node1 -->
<g id="edge1_Node000001_Node000002" class="edge">
<title>Node2&#45;&gt;Node1</title>
<g id="a_edge1_Node000001_Node000002"><a xlink:title=" ">
<path fill="none" stroke="#63b8ff" d="M85.56,-64.89C118.04,-51.84 165.66,-32.7 194.29,-21.2"/>
<polygon fill="#63b8ff" stroke="#63b8ff" points="84.56,-61.52 76.58,-68.5 87.17,-68.02 84.56,-61.52"/>
</a>
</g>
</g>
<!-- Node3 -->
<g id="Node000003" class="node">
<title>Node3</title>
<g id="a_Node000003"><a xlink:href="../../d8/d23/class_frame_buffer.html" target="_top" xlink:title=" ">
<polygon fill="white" stroke="#666666" points="195.75,-90.25 119.75,-90.25 119.75,-69.5 195.75,-69.5 195.75,-90.25"/>
<text text-anchor="middle" x="157.75" y="-76.75" font-family="Helvetica,sans-Serif" font-size="10.00">FrameBuffer</text>
</a>
</g>
</g>
<!-- Node3&#45;&gt;Node1 -->
<g id="edge2_Node000001_Node000003" class="edge">
<title>Node3&#45;&gt;Node1</title>
<g id="a_edge2_Node000001_Node000003"><a xlink:title=" ">
<path fill="none" stroke="#9a32cd" stroke-dasharray="5,2" d="M162.89,-58.43C165.31,-51.65 168.74,-44.4 173.5,-38.75 179.65,-31.45 188.28,-25.56 196.35,-21.15"/>
<polygon fill="#9a32cd" stroke="#9a32cd" points="159.67,-57 160.15,-67.59 166.37,-59.01 159.67,-57"/>
</a>
</g>
<text text-anchor="middle" x="209.12" y="-42" font-family="Helvetica,sans-Serif" font-size="10.00" fill="grey"> frame_buffer_</text>
</g>
<!-- Node4 -->
<g id="Node000004" class="node">
<title>Node4</title>
<g id="a_Node000004"><a xlink:href="../../dd/dc5/class_frame_buffer_base.html" target="_top" xlink:title=" ">
<polygon fill="white" stroke="#666666" points="168.75,-159.75 68.75,-159.75 68.75,-139 168.75,-139 168.75,-159.75"/>
<text text-anchor="middle" x="118.75" y="-146.25" font-family="Helvetica,sans-Serif" font-size="10.00">FrameBufferBase</text>
</a>
</g>
</g>
<!-- Node4&#45;&gt;Node3 -->
<g id="edge3_Node000003_Node000004" class="edge">
<title>Node4&#45;&gt;Node3</title>
<g id="a_edge3_Node000003_Node000004"><a xlink:title=" ">
<path fill="none" stroke="#63b8ff" d="M129.89,-129.1C137.18,-116.48 146.38,-100.55 152.17,-90.53"/>
<polygon fill="#63b8ff" stroke="#63b8ff" points="127.07,-126.98 125.09,-137.39 133.13,-130.49 127.07,-126.98"/>
</a>
</g>
</g>
<!-- Node5 -->
<g id="Node000005" class="node">
<title>Node5</title>
<g id="a_Node000005"><a xlink:href="../../de/d12/struct_color3i.html" target="_top" xlink:title=" ">
<polygon fill="white" stroke="#666666" points="132,-235.62 81.5,-235.62 81.5,-214.88 132,-214.88 132,-235.62"/>
<text text-anchor="middle" x="106.75" y="-222.12" font-family="Helvetica,sans-Serif" font-size="10.00">Color3i</text>
</a>
</g>
</g>
<!-- Node5&#45;&gt;Node4 -->
<g id="edge4_Node000004_Node000005" class="edge">
<title>Node5&#45;&gt;Node4</title>
<g id="a_edge4_Node000004_Node000005"><a xlink:title=" ">
<path fill="none" stroke="#9a32cd" stroke-dasharray="5,2" d="M105.61,-203.17C105.59,-195.14 106.07,-185.95 107.75,-177.75 108.98,-171.73 111.48,-165.34 113.78,-160.25"/>
<polygon fill="#9a32cd" stroke="#9a32cd" points="102.11,-203.12 105.91,-213.01 109.1,-202.9 102.11,-203.12"/>
</a>
</g>
<text text-anchor="middle" x="139.25" y="-181" font-family="Helvetica,sans-Serif" font-size="10.00" fill="grey"> color_array_</text>
</g>
<!-- Node6 -->
<g id="Node000006" class="node">
<title>Node6</title>
<g id="a_Node000006"><a xlink:href="../../db/ddd/classfl_1_1_heap_vector.html" target="_top" xlink:title=" ">
<polygon fill="white" stroke="#666666" points="348,-90.25 213.5,-90.25 213.5,-69.5 348,-69.5 348,-90.25"/>
<text text-anchor="middle" x="280.75" y="-76.75" font-family="Helvetica,sans-Serif" font-size="10.00">fl::HeapVector&lt; CRGB &gt;</text>
</a>
</g>
</g>
<!-- Node6&#45;&gt;Node1 -->
<g id="edge5_Node000001_Node000006" class="edge">
<title>Node6&#45;&gt;Node1</title>
<g id="a_edge5_Node000001_Node000006"><a xlink:title=" ">
<path fill="none" stroke="#9a32cd" stroke-dasharray="5,2" d="M264.99,-61.09C258.73,-54.09 251.45,-46 244.75,-38.75 239.33,-32.87 233.17,-26.38 228.2,-21.19"/>
<polygon fill="#9a32cd" stroke="#9a32cd" points="261.97,-62.97 271.24,-68.11 267.2,-58.31 261.97,-62.97"/>
</a>
</g>
<text text-anchor="middle" x="284.24" y="-42" font-family="Helvetica,sans-Serif" font-size="10.00" fill="grey"> led_buffer_</text>
</g>
<!-- Node7 -->
<g id="Node000007" class="node">
<title>Node7</title>
<g id="a_Node000007"><a xlink:href="../../d3/d92/classfl_1_1scoped__array.html" target="_top" xlink:title=" ">
<polygon fill="white" stroke="#666666" points="352.5,-159.75 209,-159.75 209,-139 352.5,-139 352.5,-159.75"/>
<text text-anchor="middle" x="280.75" y="-146.25" font-family="Helvetica,sans-Serif" font-size="10.00">fl::scoped_array&lt; CRGB &gt;</text>
</a>
</g>
</g>
<!-- Node7&#45;&gt;Node6 -->
<g id="edge6_Node000006_Node000007" class="edge">
<title>Node7&#45;&gt;Node6</title>
<g id="a_edge6_Node000006_Node000007"><a xlink:title=" ">
<path fill="none" stroke="#9a32cd" stroke-dasharray="5,2" d="M280.75,-127.57C280.75,-115.22 280.75,-100.15 280.75,-90.53"/>
<polygon fill="#9a32cd" stroke="#9a32cd" points="277.25,-127.19 280.75,-137.19 284.25,-127.19 277.25,-127.19"/>
</a>
</g>
<text text-anchor="middle" x="300.25" y="-111.5" font-family="Helvetica,sans-Serif" font-size="10.00" fill="grey"> mArray</text>
</g>
<!-- Node8 -->
<g id="Node000008" class="node">
<title>Node8</title>
<g id="a_Node000008"><a xlink:href="../../db/d87/group___pixel_types.html#d7/d82/struct_c_r_g_b" target="_top" xlink:title="Representation of an RGB pixel (Red, Green, Blue)">
<polygon fill="white" stroke="#666666" points="203.62,-235.62 159.88,-235.62 159.88,-214.88 203.62,-214.88 203.62,-235.62"/>
<text text-anchor="middle" x="181.75" y="-222.12" font-family="Helvetica,sans-Serif" font-size="10.00">CRGB</text>
</a>
</g>
</g>
<!-- Node8&#45;&gt;Node7 -->
<g id="edge7_Node000007_Node000008" class="edge">
<title>Node8&#45;&gt;Node7</title>
<g id="a_edge7_Node000007_Node000008"><a xlink:title=" ">
<path fill="none" stroke="#9a32cd" stroke-dasharray="5,2" d="M203.84,-207.77C223.49,-193.1 251.57,-172.15 267.8,-160.04"/>
<polygon fill="#9a32cd" stroke="#9a32cd" points="201.83,-204.9 195.91,-213.69 206.01,-210.51 201.83,-204.9"/>
</a>
</g>
<text text-anchor="middle" x="253.9" y="-181" font-family="Helvetica,sans-Serif" font-size="10.00" fill="grey"> arr_</text>
</g>
<!-- Node9 -->
<g id="Node000009" class="node">
<title>Node9</title>
<g id="a_Node000009"><a xlink:href="../../df/db6/structfl_1_1_array_deleter.html" target="_top" xlink:title=" ">
<polygon fill="#fff0f0" stroke="red" points="362,-235.62 221.5,-235.62 221.5,-214.88 362,-214.88 362,-235.62"/>
<text text-anchor="middle" x="291.75" y="-222.12" font-family="Helvetica,sans-Serif" font-size="10.00">fl::ArrayDeleter&lt; CRGB &gt;</text>
</a>
</g>
</g>
<!-- Node9&#45;&gt;Node7 -->
<g id="edge8_Node000007_Node000009" class="edge">
<title>Node9&#45;&gt;Node7</title>
<g id="a_edge8_Node000007_Node000009"><a xlink:title=" ">
<path fill="none" stroke="#9a32cd" stroke-dasharray="5,2" d="M288.63,-203.32C286.5,-189 283.78,-170.71 282.15,-159.8"/>
<polygon fill="#9a32cd" stroke="#9a32cd" points="285.15,-203.72 290.09,-213.1 292.08,-202.69 285.15,-203.72"/>
</a>
</g>
<text text-anchor="middle" x="307.95" y="-181" font-family="Helvetica,sans-Serif" font-size="10.00" fill="grey"> deleter_</text>
</g>
<!-- Node11 -->
<g id="Node000011" class="node">
<title>Node11</title>
<g id="a_Node000011"><a xlink:href="../../d3/d92/classfl_1_1scoped__array.html" target="_top" xlink:title=" ">
<polygon fill="white" stroke="#666666" points="493.5,-242 380,-242 380,-208.5 493.5,-208.5 493.5,-242"/>
<text text-anchor="start" x="388" y="-228.5" font-family="Helvetica,sans-Serif" font-size="10.00">fl::scoped_array&lt; T,</text>
<text text-anchor="middle" x="436.75" y="-215.75" font-family="Helvetica,sans-Serif" font-size="10.00"> Deleter &gt;</text>
</a>
</g>
</g>
<!-- Node11&#45;&gt;Node7 -->
<g id="edge9_Node000007_Node000011" class="edge">
<title>Node11&#45;&gt;Node7</title>
<g id="a_edge9_Node000007_Node000011"><a xlink:title=" ">
<path fill="none" stroke="orange" stroke-dasharray="5,2" d="M392.34,-203.22C362.51,-189.09 324.58,-171.13 301.51,-160.21"/>
<polygon fill="orange" stroke="orange" points="390.61,-206.27 401.15,-207.39 393.61,-199.95 390.61,-206.27"/>
</a>
</g>
<text text-anchor="middle" x="390.05" y="-181" font-family="Helvetica,sans-Serif" font-size="10.00" fill="grey"> &lt; CRGB &gt;</text>
</g>
<!-- Node12 -->
<g id="Node000012" class="node">
<title>Node12</title>
<g id="a_Node000012"><a xlink:href="../../db/ddd/classfl_1_1_heap_vector.html" target="_top" xlink:title=" ">
<polygon fill="white" stroke="#666666" points="483.12,-159.75 370.38,-159.75 370.38,-139 483.12,-139 483.12,-159.75"/>
<text text-anchor="middle" x="426.75" y="-146.25" font-family="Helvetica,sans-Serif" font-size="10.00">fl::HeapVector&lt; T &gt;</text>
</a>
</g>
</g>
<!-- Node12&#45;&gt;Node6 -->
<g id="edge10_Node000006_Node000012" class="edge">
<title>Node12&#45;&gt;Node6</title>
<g id="a_edge10_Node000006_Node000012"><a xlink:title=" ">
<path fill="none" stroke="orange" stroke-dasharray="5,2" d="M395.39,-133.87C367.2,-120.84 326.56,-102.05 302.01,-90.7"/>
<polygon fill="orange" stroke="orange" points="393.6,-136.91 404.15,-137.92 396.54,-130.55 393.6,-136.91"/>
</a>
</g>
<text text-anchor="middle" x="393.45" y="-111.5" font-family="Helvetica,sans-Serif" font-size="10.00" fill="grey"> &lt; CRGB &gt;</text>
</g>
<!-- Node13 -->
<g id="Node000013" class="node">
<title>Node13</title>
<g id="a_Node000013"><a xlink:href="../../d2/d78/classfl_1_1_screen_map.html" target="_top" xlink:title=" ">
<polygon fill="white" stroke="#666666" points="447.75,-90.25 365.75,-90.25 365.75,-69.5 447.75,-69.5 447.75,-90.25"/>
<text text-anchor="middle" x="406.75" y="-76.75" font-family="Helvetica,sans-Serif" font-size="10.00">fl::ScreenMap</text>
</a>
</g>
</g>
<!-- Node13&#45;&gt;Node1 -->
<g id="edge11_Node000001_Node000013" class="edge">
<title>Node13&#45;&gt;Node1</title>
<g id="a_edge11_Node000001_Node000013"><a xlink:title=" ">
<path fill="none" stroke="#9a32cd" stroke-dasharray="5,2" d="M377.01,-64.29C359.69,-56.13 337.28,-46.15 316.75,-38.75 297.31,-31.74 275.16,-25.42 256.85,-20.63"/>
<polygon fill="#9a32cd" stroke="#9a32cd" points="375.18,-67.29 385.71,-68.44 378.19,-60.98 375.18,-67.29"/>
</a>
</g>
<text text-anchor="middle" x="380.32" y="-42" font-family="Helvetica,sans-Serif" font-size="10.00" fill="grey"> mScreenMap</text>
</g>
</g>
</svg>
