<?xml version="1.0" encoding="UTF-8" standalone="no"?>
<!DOCTYPE svg PUBLIC "-//W3C//DTD SVG 1.1//EN"
 "http://www.w3.org/Graphics/SVG/1.1/DTD/svg11.dtd">
<!-- Generated by graphviz version 12.2.1 (20241206.2353)
 -->
<!-- Title: fl::SortedHeapMap::operator== Pages: 1 -->
<svg width="288pt" height="119pt"
 viewBox="0.00 0.00 287.50 119.12" xmlns="http://www.w3.org/2000/svg" xmlns:xlink="http://www.w3.org/1999/xlink">
<g id="graph0" class="graph" transform="scale(1 1) rotate(0) translate(4 115.12)">
<title>fl::SortedHeapMap::operator==</title>
<!-- Node1 -->
<g id="Node000001" class="node">
<title>Node1</title>
<g id="a_Node000001"><a xlink:title=" ">
<polygon fill="#999999" stroke="#666666" points="112,-66.12 0,-66.12 0,-32.62 112,-32.62 112,-66.12"/>
<text text-anchor="start" x="8" y="-52.62" font-family="Helvetica,sans-Serif" font-size="10.00">fl::SortedHeapMap::</text>
<text text-anchor="middle" x="56" y="-39.88" font-family="Helvetica,sans-Serif" font-size="10.00">operator==</text>
</a>
</g>
</g>
<!-- Node2 -->
<g id="Node000002" class="node">
<title>Node2</title>
<g id="a_Node000002"><a xlink:href="../../dc/d45/classfl_1_1_sorted_heap_map.html#a153884c6ba04f5217f3b673792688299" target="_top" xlink:title=" ">
<polygon fill="white" stroke="#666666" points="269.75,-111.12 157.75,-111.12 157.75,-77.62 269.75,-77.62 269.75,-111.12"/>
<text text-anchor="start" x="165.75" y="-97.62" font-family="Helvetica,sans-Serif" font-size="10.00">fl::SortedHeapMap::</text>
<text text-anchor="middle" x="213.75" y="-84.88" font-family="Helvetica,sans-Serif" font-size="10.00">begin</text>
</a>
</g>
</g>
<!-- Node1&#45;&gt;Node2 -->
<g id="edge1_Node000001_Node000002" class="edge">
<title>Node1&#45;&gt;Node2</title>
<g id="a_edge1_Node000001_Node000002"><a xlink:title=" ">
<path fill="none" stroke="#63b8ff" d="M112.35,-65.37C123.42,-68.56 135.14,-71.95 146.53,-75.24"/>
<polygon fill="#63b8ff" stroke="#63b8ff" points="145.28,-78.53 155.86,-77.94 147.23,-71.8 145.28,-78.53"/>
</a>
</g>
</g>
<!-- Node3 -->
<g id="Node000003" class="node">
<title>Node3</title>
<g id="a_Node000003"><a xlink:href="../../dc/d45/classfl_1_1_sorted_heap_map.html#a3f3869508af03f1c0a8d00e1b96143d1" target="_top" xlink:title=" ">
<polygon fill="white" stroke="#666666" points="278.75,-59.75 148.75,-59.75 148.75,-39 278.75,-39 278.75,-59.75"/>
<text text-anchor="middle" x="213.75" y="-46.25" font-family="Helvetica,sans-Serif" font-size="10.00">fl::SortedHeapMap::end</text>
</a>
</g>
</g>
<!-- Node1&#45;&gt;Node3 -->
<g id="edge2_Node000001_Node000003" class="edge">
<title>Node1&#45;&gt;Node3</title>
<g id="a_edge2_Node000001_Node000003"><a xlink:title=" ">
<path fill="none" stroke="#63b8ff" d="M112.35,-49.38C120.35,-49.38 128.69,-49.38 137,-49.38"/>
<polygon fill="#63b8ff" stroke="#63b8ff" points="136.76,-52.88 146.76,-49.38 136.76,-45.88 136.76,-52.88"/>
</a>
</g>
</g>
<!-- Node4 -->
<g id="Node000004" class="node">
<title>Node4</title>
<g id="a_Node000004"><a xlink:href="../../dc/d45/classfl_1_1_sorted_heap_map.html#a885868fa7cfa8232e069d00dfe64a78a" target="_top" xlink:title=" ">
<polygon fill="white" stroke="#666666" points="279.5,-20.75 148,-20.75 148,0 279.5,0 279.5,-20.75"/>
<text text-anchor="middle" x="213.75" y="-7.25" font-family="Helvetica,sans-Serif" font-size="10.00">fl::SortedHeapMap::size</text>
</a>
</g>
</g>
<!-- Node1&#45;&gt;Node4 -->
<g id="edge3_Node000001_Node000004" class="edge">
<title>Node1&#45;&gt;Node4</title>
<g id="a_edge3_Node000001_Node000004"><a xlink:title=" ">
<path fill="none" stroke="#63b8ff" d="M112.35,-35.52C127.26,-31.78 143.38,-27.75 158.24,-24.02"/>
<polygon fill="#63b8ff" stroke="#63b8ff" points="159,-27.44 167.85,-21.62 157.3,-20.65 159,-27.44"/>
</a>
</g>
</g>
</g>
</svg>
