<?xml version="1.0" encoding="UTF-8" standalone="no"?>
<!DOCTYPE svg PUBLIC "-//W3C//DTD SVG 1.1//EN"
 "http://www.w3.org/Graphics/SVG/1.1/DTD/svg11.dtd">
<!-- Generated by graphviz version 12.2.1 (20241206.2353)
 -->
<!-- Title: fl::SortedHeapMap::has Pages: 1 -->
<svg width="464pt" height="113pt"
 viewBox="0.00 0.00 464.00 112.50" xmlns="http://www.w3.org/2000/svg" xmlns:xlink="http://www.w3.org/1999/xlink">
<g id="graph0" class="graph" transform="scale(1 1) rotate(0) translate(4 108.5)">
<title>fl::SortedHeapMap::has</title>
<!-- Node1 -->
<g id="Node000001" class="node">
<title>Node1</title>
<g id="a_Node000001"><a xlink:title=" ">
<polygon fill="#999999" stroke="#666666" points="456,-75.12 326.75,-75.12 326.75,-54.38 456,-54.38 456,-75.12"/>
<text text-anchor="middle" x="391.38" y="-61.62" font-family="Helvetica,sans-Serif" font-size="10.00">fl::SortedHeapMap::has</text>
</a>
</g>
</g>
<!-- Node2 -->
<g id="Node000002" class="node">
<title>Node2</title>
<g id="a_Node000002"><a xlink:href="../../dc/d45/classfl_1_1_sorted_heap_map.html#a57cb802c21a91b12f97473cdb9f7f528" target="_top" xlink:title=" ">
<polygon fill="white" stroke="#666666" points="277.25,-104.5 165.25,-104.5 165.25,-71 277.25,-71 277.25,-104.5"/>
<text text-anchor="start" x="173.25" y="-91" font-family="Helvetica,sans-Serif" font-size="10.00">fl::SortedHeapMap::</text>
<text text-anchor="middle" x="221.25" y="-78.25" font-family="Helvetica,sans-Serif" font-size="10.00">contains</text>
</a>
</g>
</g>
<!-- Node1&#45;&gt;Node2 -->
<g id="edge1_Node000001_Node000002" class="edge">
<title>Node1&#45;&gt;Node2</title>
<g id="a_edge1_Node000001_Node000002"><a xlink:title=" ">
<path fill="none" stroke="#63b8ff" d="M315.29,-75.02C302.61,-76.76 289.66,-78.53 277.6,-80.18"/>
<polygon fill="#63b8ff" stroke="#63b8ff" points="315.4,-78.54 324.83,-73.72 314.45,-71.6 315.4,-78.54"/>
</a>
</g>
</g>
<!-- Node3 -->
<g id="Node000003" class="node">
<title>Node3</title>
<g id="a_Node000003"><a xlink:href="../../d8/d94/classfl_1_1_frame_interpolator.html#a61e39bebb1c92fea6f613e7f14a4d4af" target="_top" xlink:title=" ">
<polygon fill="white" stroke="#666666" points="290.75,-53.12 151.75,-53.12 151.75,-32.38 290.75,-32.38 290.75,-53.12"/>
<text text-anchor="middle" x="221.25" y="-39.62" font-family="Helvetica,sans-Serif" font-size="10.00">fl::FrameInterpolator::has</text>
</a>
</g>
</g>
<!-- Node1&#45;&gt;Node3 -->
<g id="edge2_Node000001_Node000003" class="edge">
<title>Node1&#45;&gt;Node3</title>
<g id="a_edge2_Node000001_Node000003"><a xlink:title=" ">
<path fill="none" stroke="#63b8ff" d="M315.14,-54.91C307.16,-53.86 299.06,-52.8 291.15,-51.77"/>
<polygon fill="#63b8ff" stroke="#63b8ff" points="314.46,-58.35 324.83,-56.17 315.37,-51.41 314.46,-58.35"/>
</a>
</g>
</g>
<!-- Node4 -->
<g id="Node000004" class="node">
<title>Node4</title>
<g id="a_Node000004"><a xlink:href="../../d8/d94/classfl_1_1_frame_interpolator.html#a681dd7d646b6b2b75c4035678693206a" target="_top" xlink:title=" ">
<polygon fill="white" stroke="#666666" points="115.75,-85.5 0,-85.5 0,-52 115.75,-52 115.75,-85.5"/>
<text text-anchor="start" x="8" y="-72" font-family="Helvetica,sans-Serif" font-size="10.00">fl::FrameInterpolator</text>
<text text-anchor="middle" x="57.88" y="-59.25" font-family="Helvetica,sans-Serif" font-size="10.00">::draw</text>
</a>
</g>
</g>
<!-- Node3&#45;&gt;Node4 -->
<g id="edge3_Node000003_Node000004" class="edge">
<title>Node3&#45;&gt;Node4</title>
<g id="a_edge3_Node000003_Node000004"><a xlink:title=" ">
<path fill="none" stroke="#63b8ff" d="M141.89,-55.38C133.23,-56.77 124.53,-58.17 116.2,-59.51"/>
<polygon fill="#63b8ff" stroke="#63b8ff" points="142.4,-58.84 151.72,-53.79 141.29,-51.93 142.4,-58.84"/>
</a>
</g>
</g>
<!-- Node5 -->
<g id="Node000005" class="node">
<title>Node5</title>
<g id="a_Node000005"><a xlink:href="../../d8/d94/classfl_1_1_frame_interpolator.html#aa1410b1040b32fee50e8928411141584" target="_top" xlink:title=" ">
<polygon fill="white" stroke="#666666" points="115.75,-33.5 0,-33.5 0,0 115.75,0 115.75,-33.5"/>
<text text-anchor="start" x="8" y="-20" font-family="Helvetica,sans-Serif" font-size="10.00">fl::FrameInterpolator</text>
<text text-anchor="middle" x="57.88" y="-7.25" font-family="Helvetica,sans-Serif" font-size="10.00">::needsFrame</text>
</a>
</g>
</g>
<!-- Node3&#45;&gt;Node5 -->
<g id="edge4_Node000003_Node000005" class="edge">
<title>Node3&#45;&gt;Node5</title>
<g id="a_edge4_Node000003_Node000005"><a xlink:title=" ">
<path fill="none" stroke="#63b8ff" d="M141.89,-30.12C133.23,-28.73 124.53,-27.33 116.2,-25.99"/>
<polygon fill="#63b8ff" stroke="#63b8ff" points="141.29,-33.57 151.72,-31.71 142.4,-26.66 141.29,-33.57"/>
</a>
</g>
</g>
</g>
</svg>
