<?xml version="1.0" encoding="UTF-8" standalone="no"?>
<!DOCTYPE svg PUBLIC "-//W3C//DTD SVG 1.1//EN"
 "http://www.w3.org/Graphics/SVG/1.1/DTD/svg11.dtd">
<!-- Generated by graphviz version 12.2.1 (20241206.2353)
 -->
<!-- Title: fl::SortedHeapMap::operator[] Pages: 1 -->
<svg width="286pt" height="68pt"
 viewBox="0.00 0.00 286.00 67.75" xmlns="http://www.w3.org/2000/svg" xmlns:xlink="http://www.w3.org/1999/xlink">
<g id="graph0" class="graph" transform="scale(1 1) rotate(0) translate(4 63.75)">
<title>fl::SortedHeapMap::operator[]</title>
<!-- Node1 -->
<g id="Node000001" class="node">
<title>Node1</title>
<g id="a_Node000001"><a xlink:title=" ">
<polygon fill="#999999" stroke="#666666" points="112,-46.12 0,-46.12 0,-12.62 112,-12.62 112,-46.12"/>
<text text-anchor="start" x="8" y="-32.62" font-family="Helvetica,sans-Serif" font-size="10.00">fl::SortedHeapMap::</text>
<text text-anchor="middle" x="56" y="-19.88" font-family="Helvetica,sans-Serif" font-size="10.00">operator[]</text>
</a>
</g>
</g>
<!-- Node2 -->
<g id="Node000002" class="node">
<title>Node2</title>
<g id="a_Node000002"><a xlink:href="../../dc/d45/classfl_1_1_sorted_heap_map.html#a3f3869508af03f1c0a8d00e1b96143d1" target="_top" xlink:title=" ">
<polygon fill="white" stroke="#666666" points="278,-59.75 148,-59.75 148,-39 278,-39 278,-59.75"/>
<text text-anchor="middle" x="213" y="-46.25" font-family="Helvetica,sans-Serif" font-size="10.00">fl::SortedHeapMap::end</text>
</a>
</g>
</g>
<!-- Node1&#45;&gt;Node2 -->
<g id="edge1_Node000001_Node000002" class="edge">
<title>Node1&#45;&gt;Node2</title>
<g id="a_edge1_Node000001_Node000002"><a xlink:title=" ">
<path fill="none" stroke="#63b8ff" d="M112.08,-36.48C119.98,-37.5 128.22,-38.56 136.42,-39.62"/>
<polygon fill="#63b8ff" stroke="#63b8ff" points="135.7,-43.06 146.06,-40.87 136.59,-36.12 135.7,-43.06"/>
</a>
</g>
</g>
<!-- Node3 -->
<g id="Node000003" class="node">
<title>Node3</title>
<g id="a_Node000003"><a xlink:href="../../dc/d45/classfl_1_1_sorted_heap_map.html#aa530d894d889d2095f44fdf5f1529558" target="_top" xlink:title=" ">
<polygon fill="white" stroke="#666666" points="278,-20.75 148,-20.75 148,0 278,0 278,-20.75"/>
<text text-anchor="middle" x="213" y="-7.25" font-family="Helvetica,sans-Serif" font-size="10.00">fl::SortedHeapMap::find</text>
</a>
</g>
</g>
<!-- Node1&#45;&gt;Node3 -->
<g id="edge2_Node000001_Node000003" class="edge">
<title>Node1&#45;&gt;Node3</title>
<g id="a_edge2_Node000001_Node000003"><a xlink:title=" ">
<path fill="none" stroke="#63b8ff" d="M112.08,-22.62C119.89,-21.67 128.03,-20.67 136.14,-19.67"/>
<polygon fill="#63b8ff" stroke="#63b8ff" points="136.56,-23.15 146.06,-18.46 135.71,-16.2 136.56,-23.15"/>
</a>
</g>
</g>
</g>
</svg>
