<?xml version="1.0" encoding="UTF-8" standalone="no"?>
<!DOCTYPE svg PUBLIC "-//W3C//DTD SVG 1.1//EN"
 "http://www.w3.org/Graphics/SVG/1.1/DTD/svg11.dtd">
<!-- Generated by graphviz version 12.2.1 (20241206.2353)
 -->
<!-- Title: fl::EngineEvents::onCanvasUiSet Pages: 1 -->
<svg width="506pt" height="80pt"
 viewBox="0.00 0.00 506.00 80.12" xmlns="http://www.w3.org/2000/svg" xmlns:xlink="http://www.w3.org/1999/xlink">
<g id="graph0" class="graph" transform="scale(1 1) rotate(0) translate(4 76.12)">
<title>fl::EngineEvents::onCanvasUiSet</title>
<!-- Node1 -->
<g id="Node000001" class="node">
<title>Node1</title>
<g id="a_Node000001"><a xlink:title=" ">
<polygon fill="#999999" stroke="#666666" points="148,-49.12 0,-49.12 0,-15.62 148,-15.62 148,-49.12"/>
<text text-anchor="start" x="8" y="-35.62" font-family="Helvetica,sans-Serif" font-size="10.00">fl::EngineEvents::onCanvas</text>
<text text-anchor="middle" x="74" y="-22.88" font-family="Helvetica,sans-Serif" font-size="10.00">UiSet</text>
</a>
</g>
</g>
<!-- Node2 -->
<g id="Node000002" class="node">
<title>Node2</title>
<g id="a_Node000002"><a xlink:href="../../de/dca/classfl_1_1_engine_events.html#a7eb765a882db21850019e4ee59f0cce1" target="_top" xlink:title=" ">
<polygon fill="white" stroke="#666666" points="312.5,-72.12 212.5,-72.12 212.5,-38.62 312.5,-38.62 312.5,-72.12"/>
<text text-anchor="start" x="220.5" y="-58.62" font-family="Helvetica,sans-Serif" font-size="10.00">fl::EngineEvents::</text>
<text text-anchor="middle" x="262.5" y="-45.88" font-family="Helvetica,sans-Serif" font-size="10.00">_onCanvasUiSet</text>
</a>
</g>
</g>
<!-- Node1&#45;&gt;Node2 -->
<g id="edge1_Node000001_Node000002" class="edge">
<title>Node1&#45;&gt;Node2</title>
<g id="a_edge1_Node000001_Node000002"><a xlink:title=" ">
<path fill="none" stroke="#63b8ff" d="M148.44,-41.43C165.83,-43.58 184.19,-45.84 200.94,-47.91"/>
<polygon fill="#63b8ff" stroke="#63b8ff" points="200.39,-51.36 210.74,-49.11 201.24,-44.42 200.39,-51.36"/>
</a>
</g>
</g>
<!-- Node3 -->
<g id="Node000003" class="node">
<title>Node3</title>
<g id="a_Node000003"><a xlink:href="../../de/dca/classfl_1_1_engine_events.html#a34a4625c4fbcf754f70820bc4f0e418b" target="_top" xlink:title=" ">
<polygon fill="white" stroke="#666666" points="341,-20.75 184,-20.75 184,0 341,0 341,-20.75"/>
<text text-anchor="middle" x="262.5" y="-7.25" font-family="Helvetica,sans-Serif" font-size="10.00">fl::EngineEvents::getInstance</text>
</a>
</g>
</g>
<!-- Node1&#45;&gt;Node3 -->
<g id="edge2_Node000001_Node000003" class="edge">
<title>Node1&#45;&gt;Node3</title>
<g id="a_edge2_Node000001_Node000003"><a xlink:title=" ">
<path fill="none" stroke="#63b8ff" d="M148.44,-23.71C156.27,-22.79 164.3,-21.84 172.28,-20.9"/>
<polygon fill="#63b8ff" stroke="#63b8ff" points="172.49,-24.4 182.01,-19.75 171.67,-17.45 172.49,-24.4"/>
</a>
</g>
</g>
<!-- Node4 -->
<g id="Node000004" class="node">
<title>Node4</title>
<g id="a_Node000004"><a xlink:href="../../d9/d5b/classfl_1_1_singleton.html#a7e65fe8dee6b2a23a8b6138fa2c274cb" target="_top" xlink:title=" ">
<polygon fill="white" stroke="#666666" points="498,-20.75 377,-20.75 377,0 498,0 498,-20.75"/>
<text text-anchor="middle" x="437.5" y="-7.25" font-family="Helvetica,sans-Serif" font-size="10.00">fl::Singleton::instance</text>
</a>
</g>
</g>
<!-- Node3&#45;&gt;Node4 -->
<g id="edge3_Node000003_Node000004" class="edge">
<title>Node3&#45;&gt;Node4</title>
<g id="a_edge3_Node000003_Node000004"><a xlink:title=" ">
<path fill="none" stroke="#63b8ff" d="M341.4,-10.38C349.35,-10.38 357.4,-10.38 365.28,-10.38"/>
<polygon fill="#63b8ff" stroke="#63b8ff" points="365.15,-13.88 375.15,-10.38 365.15,-6.88 365.15,-13.88"/>
</a>
</g>
</g>
<!-- Node4&#45;&gt;Node4 -->
<g id="edge4_Node000004_Node000004" class="edge">
<title>Node4&#45;&gt;Node4</title>
<g id="a_edge4_Node000004_Node000004"><a xlink:title=" ">
<path fill="none" stroke="#63b8ff" d="M409.3,-21.15C398.02,-29.81 407.42,-38.75 437.5,-38.75 453.95,-38.75 464.21,-36.08 468.29,-32.24"/>
<polygon fill="#63b8ff" stroke="#63b8ff" points="471.73,-31.56 466.04,-22.62 464.91,-33.16 471.73,-31.56"/>
</a>
</g>
</g>
</g>
</svg>
