<?xml version="1.0" encoding="UTF-8" standalone="no"?>
<!DOCTYPE svg PUBLIC "-//W3C//DTD SVG 1.1//EN"
 "http://www.w3.org/Graphics/SVG/1.1/DTD/svg11.dtd">
<!-- Generated by graphviz version 12.2.1 (20241206.2353)
 -->
<!-- Title: fl::EngineEvents::_onStripAdded Pages: 1 -->
<svg width="625pt" height="146pt"
 viewBox="0.00 0.00 624.75 145.75" xmlns="http://www.w3.org/2000/svg" xmlns:xlink="http://www.w3.org/1999/xlink">
<g id="graph0" class="graph" transform="scale(1 1) rotate(0) translate(4 141.75)">
<title>fl::EngineEvents::_onStripAdded</title>
<!-- Node1 -->
<g id="Node000001" class="node">
<title>Node1</title>
<g id="a_Node000001"><a xlink:title=" ">
<polygon fill="#999999" stroke="#666666" points="616.75,-85.12 516.75,-85.12 516.75,-51.62 616.75,-51.62 616.75,-85.12"/>
<text text-anchor="start" x="524.75" y="-71.62" font-family="Helvetica,sans-Serif" font-size="10.00">fl::EngineEvents::</text>
<text text-anchor="middle" x="566.75" y="-58.88" font-family="Helvetica,sans-Serif" font-size="10.00">_onStripAdded</text>
</a>
</g>
</g>
<!-- Node2 -->
<g id="Node000002" class="node">
<title>Node2</title>
<g id="a_Node000002"><a xlink:href="../../de/dca/classfl_1_1_engine_events.html#a8ec266f9f7b35b9174d331cb6c338d80" target="_top" xlink:title=" ">
<polygon fill="white" stroke="#666666" points="480.75,-85.12 346.25,-85.12 346.25,-51.62 480.75,-51.62 480.75,-85.12"/>
<text text-anchor="start" x="354.25" y="-71.62" font-family="Helvetica,sans-Serif" font-size="10.00">fl::EngineEvents::onStrip</text>
<text text-anchor="middle" x="413.5" y="-58.88" font-family="Helvetica,sans-Serif" font-size="10.00">Added</text>
</a>
</g>
</g>
<!-- Node1&#45;&gt;Node2 -->
<g id="edge1_Node000001_Node000002" class="edge">
<title>Node1&#45;&gt;Node2</title>
<g id="a_edge1_Node000001_Node000002"><a xlink:title=" ">
<path fill="none" stroke="#63b8ff" d="M505.27,-68.38C497.37,-68.38 489.23,-68.38 481.23,-68.38"/>
<polygon fill="#63b8ff" stroke="#63b8ff" points="505.13,-71.88 515.13,-68.38 505.13,-64.88 505.13,-71.88"/>
</a>
</g>
</g>
<!-- Node3 -->
<g id="Node000003" class="node">
<title>Node3</title>
<g id="a_Node000003"><a xlink:href="../../dd/dbb/class_c_fast_l_e_d.html#afd7928d822589740af6e23b2d510cf3f" target="_top" xlink:title="Add a CLEDController instance to the world.">
<polygon fill="white" stroke="#666666" points="310.25,-78.75 202.75,-78.75 202.75,-58 310.25,-58 310.25,-78.75"/>
<text text-anchor="middle" x="256.5" y="-65.25" font-family="Helvetica,sans-Serif" font-size="10.00">CFastLED::addLeds</text>
</a>
</g>
</g>
<!-- Node2&#45;&gt;Node3 -->
<g id="edge2_Node000002_Node000003" class="edge">
<title>Node2&#45;&gt;Node3</title>
<g id="a_edge2_Node000002_Node000003"><a xlink:title=" ">
<path fill="none" stroke="#63b8ff" d="M334.44,-68.38C326.34,-68.38 318.25,-68.38 310.52,-68.38"/>
<polygon fill="#63b8ff" stroke="#63b8ff" points="334.35,-71.88 344.35,-68.38 334.35,-64.88 334.35,-71.88"/>
</a>
</g>
</g>
<!-- Node4 -->
<g id="Node000004" class="node">
<title>Node4</title>
<g id="a_Node000004"><a xlink:href="../../dd/dbb/class_c_fast_l_e_d.html#a6c5edd63655c225b62ae35897c6e6602" target="_top" xlink:title="Add an SPI based CLEDController instance to the world.">
<polygon fill="white" stroke="#666666" points="137.12,-137.75 29.62,-137.75 29.62,-117 137.12,-117 137.12,-137.75"/>
<text text-anchor="middle" x="83.38" y="-124.25" font-family="Helvetica,sans-Serif" font-size="10.00">CFastLED::addLeds</text>
</a>
</g>
</g>
<!-- Node3&#45;&gt;Node4 -->
<g id="edge3_Node000003_Node000004" class="edge">
<title>Node3&#45;&gt;Node4</title>
<g id="a_edge3_Node000003_Node000004"><a xlink:title=" ">
<path fill="none" stroke="#63b8ff" d="M223.75,-83.95C207.06,-91.72 186.11,-100.83 166.75,-107.38 156.57,-110.82 145.5,-113.92 134.87,-116.6"/>
<polygon fill="#63b8ff" stroke="#63b8ff" points="225.13,-87.17 232.67,-79.73 222.14,-80.84 225.13,-87.17"/>
</a>
</g>
</g>
<!-- Node5 -->
<g id="Node000005" class="node">
<title>Node5</title>
<g id="a_Node000005"><a xlink:href="../../d4/df6/class_led_rope_t_c_l.html#a2c5c772faf24596d5be70d96581e7454" target="_top" xlink:title=" ">
<polygon fill="#fff0f0" stroke="red" points="166.75,-98.75 0,-98.75 0,-78 166.75,-78 166.75,-98.75"/>
<text text-anchor="middle" x="83.38" y="-85.25" font-family="Helvetica,sans-Serif" font-size="10.00">LedRopeTCL::RawCommitDraw</text>
</a>
</g>
</g>
<!-- Node3&#45;&gt;Node5 -->
<g id="edge4_Node000003_Node000005" class="edge">
<title>Node3&#45;&gt;Node5</title>
<g id="a_edge4_Node000003_Node000005"><a xlink:title=" ">
<path fill="none" stroke="#63b8ff" d="M191.04,-75.91C183.21,-76.82 175.13,-77.77 167.08,-78.71"/>
<polygon fill="#63b8ff" stroke="#63b8ff" points="191.26,-79.41 200.79,-74.77 190.45,-72.45 191.26,-79.41"/>
</a>
</g>
</g>
<!-- Node9 -->
<g id="Node000009" class="node">
<title>Node9</title>
<g id="a_Node000009"><a xlink:href="../../dd/d0f/_apa102_8ino.html#a4fc01d736fe50cf5b977f755b675f11d" target="_top" xlink:title=" ">
<polygon fill="white" stroke="#666666" points="104.88,-59.75 61.88,-59.75 61.88,-39 104.88,-39 104.88,-59.75"/>
<text text-anchor="middle" x="83.38" y="-46.25" font-family="Helvetica,sans-Serif" font-size="10.00">setup</text>
</a>
</g>
</g>
<!-- Node3&#45;&gt;Node9 -->
<g id="edge5_Node000003_Node000009" class="edge">
<title>Node3&#45;&gt;Node9</title>
<g id="a_edge5_Node000003_Node000009"><a xlink:title=" ">
<path fill="none" stroke="#63b8ff" d="M190.9,-61.2C160.62,-57.84 126.61,-54.06 105.34,-51.7"/>
<polygon fill="#63b8ff" stroke="#63b8ff" points="190.46,-64.68 200.79,-62.3 191.24,-57.72 190.46,-64.68"/>
</a>
</g>
</g>
<!-- Node10 -->
<g id="Node000010" class="node">
<title>Node10</title>
<g id="a_Node000010"><a xlink:href="../../db/de9/_esp32_s3_i2_s_demo_8ino.html#aac2669026fdd52035013cac9b23d95ba" target="_top" xlink:title=" ">
<polygon fill="#fff0f0" stroke="red" points="160,-20.75 6.75,-20.75 6.75,0 160,0 160,-20.75"/>
<text text-anchor="middle" x="83.38" y="-7.25" font-family="Helvetica,sans-Serif" font-size="10.00">setup_i2s_using_fastled_api</text>
</a>
</g>
</g>
<!-- Node3&#45;&gt;Node10 -->
<g id="edge6_Node000003_Node000010" class="edge">
<title>Node3&#45;&gt;Node10</title>
<g id="a_edge6_Node000003_Node000010"><a xlink:title=" ">
<path fill="none" stroke="#63b8ff" d="M223.03,-52.93C206.45,-45.44 185.8,-36.72 166.75,-30.38 156.56,-26.98 145.48,-23.9 134.85,-21.22"/>
<polygon fill="#63b8ff" stroke="#63b8ff" points="221.36,-56.02 231.91,-57.01 224.28,-49.65 221.36,-56.02"/>
</a>
</g>
</g>
</g>
</svg>
