<?xml version="1.0" encoding="UTF-8" standalone="no"?>
<!DOCTYPE svg PUBLIC "-//W3C//DTD SVG 1.1//EN"
 "http://www.w3.org/Graphics/SVG/1.1/DTD/svg11.dtd">
<!-- Generated by graphviz version 12.2.1 (20241206.2353)
 -->
<!-- Title: fl::EngineEvents::onBeginFrame Pages: 1 -->
<svg width="674pt" height="275pt"
 viewBox="0.00 0.00 673.50 275.12" xmlns="http://www.w3.org/2000/svg" xmlns:xlink="http://www.w3.org/1999/xlink">
<g id="graph0" class="graph" transform="scale(1 1) rotate(0) translate(4 271.12)">
<title>fl::EngineEvents::onBeginFrame</title>
<!-- Node1 -->
<g id="Node000001" class="node">
<title>Node1</title>
<g id="a_Node000001"><a xlink:title=" ">
<polygon fill="#999999" stroke="#666666" points="665.5,-156.5 525.75,-156.5 525.75,-123 665.5,-123 665.5,-156.5"/>
<text text-anchor="start" x="533.75" y="-143" font-family="Helvetica,sans-Serif" font-size="10.00">fl::EngineEvents::onBegin</text>
<text text-anchor="middle" x="595.62" y="-130.25" font-family="Helvetica,sans-Serif" font-size="10.00">Frame</text>
</a>
</g>
</g>
<!-- Node2 -->
<g id="Node000002" class="node">
<title>Node2</title>
<g id="a_Node000002"><a xlink:href="../../dd/dbb/class_c_fast_l_e_d.html#a83afdd1e2a21f33ac4f8d2610d6e331b" target="_top" xlink:title="Update all our controllers with the current led colors, using the passed in brightness.">
<polygon fill="white" stroke="#666666" points="489.75,-150.12 397.25,-150.12 397.25,-129.38 489.75,-129.38 489.75,-150.12"/>
<text text-anchor="middle" x="443.5" y="-136.62" font-family="Helvetica,sans-Serif" font-size="10.00">CFastLED::show</text>
</a>
</g>
</g>
<!-- Node1&#45;&gt;Node2 -->
<g id="edge1_Node000001_Node000002" class="edge">
<title>Node1&#45;&gt;Node2</title>
<g id="a_edge1_Node000001_Node000002"><a xlink:title=" ">
<path fill="none" stroke="#63b8ff" d="M514.02,-139.75C505.78,-139.75 497.63,-139.75 489.97,-139.75"/>
<polygon fill="#63b8ff" stroke="#63b8ff" points="513.76,-143.25 523.76,-139.75 513.76,-136.25 513.76,-143.25"/>
</a>
</g>
</g>
<!-- Node3 -->
<g id="Node000003" class="node">
<title>Node3</title>
<g id="a_Node000003"><a xlink:href="../../d5/d4d/_blink_parallel_8ino.html#a29584c4a240c144644e81dfab0090635" target="_top" xlink:title=" ">
<polygon fill="white" stroke="#666666" points="297.88,-267.12 257.88,-267.12 257.88,-246.38 297.88,-246.38 297.88,-267.12"/>
<text text-anchor="middle" x="277.88" y="-253.62" font-family="Helvetica,sans-Serif" font-size="10.00">blink</text>
</a>
</g>
</g>
<!-- Node2&#45;&gt;Node3 -->
<g id="edge2_Node000002_Node000003" class="edge">
<title>Node2&#45;&gt;Node3</title>
<g id="a_edge2_Node000002_Node000003"><a xlink:title=" ">
<path fill="none" stroke="#63b8ff" d="M430.89,-160.21C417.15,-182.49 392.2,-217.52 361.25,-236.75 341.87,-248.79 315.76,-253.58 298.18,-255.49"/>
<polygon fill="#63b8ff" stroke="#63b8ff" points="433.83,-162.1 435.93,-151.72 427.81,-158.53 433.83,-162.1"/>
</a>
</g>
</g>
<!-- Node5 -->
<g id="Node000005" class="node">
<title>Node5</title>
<g id="a_Node000005"><a xlink:href="../../d5/db2/_octo_w_s2811_8ino.html#a87dad6cde22368918813bc56504b0dee" target="_top" xlink:title=" ">
<polygon fill="white" stroke="#666666" points="310.25,-228.12 245.5,-228.12 245.5,-207.38 310.25,-207.38 310.25,-228.12"/>
<text text-anchor="middle" x="277.88" y="-214.62" font-family="Helvetica,sans-Serif" font-size="10.00">colorWipe</text>
</a>
</g>
</g>
<!-- Node2&#45;&gt;Node5 -->
<g id="edge4_Node000002_Node000005" class="edge">
<title>Node2&#45;&gt;Node5</title>
<g id="a_edge4_Node000002_Node000005"><a xlink:title=" ">
<path fill="none" stroke="#63b8ff" d="M421.7,-158.03C406.06,-170.88 383.57,-187.54 361.25,-197.75 345.32,-205.04 326.41,-209.87 310.72,-212.96"/>
<polygon fill="#63b8ff" stroke="#63b8ff" points="423.95,-160.71 429.33,-151.58 419.43,-155.36 423.95,-160.71"/>
</a>
</g>
</g>
<!-- Node7 -->
<g id="Node000007" class="node">
<title>Node7</title>
<g id="a_Node000007"><a xlink:href="../../d1/d3a/_r_g_b_w_emulated_8ino.html#a7786953e7de2513a3589a490e1e3355a" target="_top" xlink:title=" ">
<polygon fill="white" stroke="#666666" points="314.38,-189.12 241.38,-189.12 241.38,-168.38 314.38,-168.38 314.38,-189.12"/>
<text text-anchor="middle" x="277.88" y="-175.62" font-family="Helvetica,sans-Serif" font-size="10.00">fillAndShow</text>
</a>
</g>
</g>
<!-- Node2&#45;&gt;Node7 -->
<g id="edge6_Node000002_Node000007" class="edge">
<title>Node2&#45;&gt;Node7</title>
<g id="a_edge6_Node000002_Node000007"><a xlink:title=" ">
<path fill="none" stroke="#63b8ff" d="M385.95,-153.23C362.28,-158.87 335.49,-165.26 314.62,-170.23"/>
<polygon fill="#63b8ff" stroke="#63b8ff" points="386.53,-156.69 395.45,-150.96 384.91,-149.88 386.53,-156.69"/>
</a>
</g>
</g>
<!-- Node9 -->
<g id="Node000009" class="node">
<title>Node9</title>
<g id="a_Node000009"><a xlink:href="../../dd/d0f/_apa102_8ino.html#afe461d27b9c48d5921c00d521181f12f" target="_top" xlink:title=" ">
<polygon fill="white" stroke="#666666" points="296.38,-150.12 259.38,-150.12 259.38,-129.38 296.38,-129.38 296.38,-150.12"/>
<text text-anchor="middle" x="277.88" y="-136.62" font-family="Helvetica,sans-Serif" font-size="10.00">loop</text>
</a>
</g>
</g>
<!-- Node2&#45;&gt;Node9 -->
<g id="edge8_Node000002_Node000009" class="edge">
<title>Node2&#45;&gt;Node9</title>
<g id="a_edge8_Node000002_Node000009"><a xlink:title=" ">
<path fill="none" stroke="#63b8ff" d="M385.68,-139.75C354.39,-139.75 317.72,-139.75 296.5,-139.75"/>
<polygon fill="#63b8ff" stroke="#63b8ff" points="385.41,-143.25 395.41,-139.75 385.41,-136.25 385.41,-143.25"/>
</a>
</g>
</g>
<!-- Node10 -->
<g id="Node000010" class="node">
<title>Node10</title>
<g id="a_Node000010"><a xlink:href="../../d4/df6/class_led_rope_t_c_l.html#a2c5c772faf24596d5be70d96581e7454" target="_top" xlink:title=" ">
<polygon fill="white" stroke="#666666" points="361.25,-111.12 194.5,-111.12 194.5,-90.38 361.25,-90.38 361.25,-111.12"/>
<text text-anchor="middle" x="277.88" y="-97.62" font-family="Helvetica,sans-Serif" font-size="10.00">LedRopeTCL::RawCommitDraw</text>
</a>
</g>
</g>
<!-- Node2&#45;&gt;Node10 -->
<g id="edge9_Node000002_Node000010" class="edge">
<title>Node2&#45;&gt;Node10</title>
<g id="a_edge9_Node000002_Node000010"><a xlink:title=" ">
<path fill="none" stroke="#63b8ff" d="M385.74,-126.22C365.72,-121.45 343.48,-116.15 324.49,-111.62"/>
<polygon fill="#63b8ff" stroke="#63b8ff" points="384.91,-129.62 395.45,-128.54 386.53,-122.81 384.91,-129.62"/>
</a>
</g>
</g>
<!-- Node14 -->
<g id="Node000014" class="node">
<title>Node14</title>
<g id="a_Node000014"><a xlink:href="../../d1/ddb/_chromancer_8ino.html#a4fc01d736fe50cf5b977f755b675f11d" target="_top" xlink:title=" ">
<polygon fill="white" stroke="#666666" points="299.38,-72.12 256.38,-72.12 256.38,-51.38 299.38,-51.38 299.38,-72.12"/>
<text text-anchor="middle" x="277.88" y="-58.62" font-family="Helvetica,sans-Serif" font-size="10.00">setup</text>
</a>
</g>
</g>
<!-- Node2&#45;&gt;Node14 -->
<g id="edge13_Node000002_Node000014" class="edge">
<title>Node2&#45;&gt;Node14</title>
<g id="a_edge13_Node000002_Node000014"><a xlink:title=" ">
<path fill="none" stroke="#63b8ff" d="M421.7,-121.47C406.06,-108.62 383.57,-91.96 361.25,-81.75 341.31,-72.63 316.68,-67.35 299.57,-64.53"/>
<polygon fill="#63b8ff" stroke="#63b8ff" points="419.43,-124.14 429.33,-127.92 423.95,-118.79 419.43,-124.14"/>
</a>
</g>
</g>
<!-- Node15 -->
<g id="Node000015" class="node">
<title>Node15</title>
<g id="a_Node000015"><a xlink:href="../../d3/d1d/group___power.html#ga510b6ca1ea6da7f0f89dcf353f19ffde" target="_top" xlink:title="Similar to CFastLED::show(), but pre&#45;adjusts brightness to keep below the power threshold.">
<polygon fill="white" stroke="#666666" points="347.75,-33.5 208,-33.5 208,0 347.75,0 347.75,-33.5"/>
<text text-anchor="start" x="216" y="-20" font-family="Helvetica,sans-Serif" font-size="10.00">show_at_max_brightness</text>
<text text-anchor="middle" x="277.88" y="-7.25" font-family="Helvetica,sans-Serif" font-size="10.00">_for_power</text>
</a>
</g>
</g>
<!-- Node2&#45;&gt;Node15 -->
<g id="edge14_Node000002_Node000015" class="edge">
<title>Node2&#45;&gt;Node15</title>
<g id="a_edge14_Node000002_Node000015"><a xlink:title=" ">
<path fill="none" stroke="#63b8ff" d="M430.42,-119.33C416.42,-97.37 391.38,-62.9 361.25,-42.75 356.26,-39.41 350.83,-36.49 345.2,-33.92"/>
<polygon fill="#63b8ff" stroke="#63b8ff" points="427.35,-121.03 435.58,-127.7 433.31,-117.35 427.35,-121.03"/>
</a>
</g>
</g>
<!-- Node4 -->
<g id="Node000004" class="node">
<title>Node4</title>
<g id="a_Node000004"><a xlink:href="../../d5/d4d/_blink_parallel_8ino.html#afe461d27b9c48d5921c00d521181f12f" target="_top" xlink:title=" ">
<polygon fill="white" stroke="#666666" points="97.75,-267.12 60.75,-267.12 60.75,-246.38 97.75,-246.38 97.75,-267.12"/>
<text text-anchor="middle" x="79.25" y="-253.62" font-family="Helvetica,sans-Serif" font-size="10.00">loop</text>
</a>
</g>
</g>
<!-- Node3&#45;&gt;Node4 -->
<g id="edge3_Node000003_Node000004" class="edge">
<title>Node3&#45;&gt;Node4</title>
<g id="a_edge3_Node000003_Node000004"><a xlink:title=" ">
<path fill="none" stroke="#63b8ff" d="M246.34,-256.75C204.78,-256.75 131.73,-256.75 98.11,-256.75"/>
<polygon fill="#63b8ff" stroke="#63b8ff" points="246.15,-260.25 256.15,-256.75 246.15,-253.25 246.15,-260.25"/>
</a>
</g>
</g>
<!-- Node6 -->
<g id="Node000006" class="node">
<title>Node6</title>
<g id="a_Node000006"><a xlink:href="../../d5/db2/_octo_w_s2811_8ino.html#afe461d27b9c48d5921c00d521181f12f" target="_top" xlink:title=" ">
<polygon fill="white" stroke="#666666" points="97.75,-228.12 60.75,-228.12 60.75,-207.38 97.75,-207.38 97.75,-228.12"/>
<text text-anchor="middle" x="79.25" y="-214.62" font-family="Helvetica,sans-Serif" font-size="10.00">loop</text>
</a>
</g>
</g>
<!-- Node5&#45;&gt;Node6 -->
<g id="edge5_Node000005_Node000006" class="edge">
<title>Node5&#45;&gt;Node6</title>
<g id="a_edge5_Node000005_Node000006"><a xlink:title=" ">
<path fill="none" stroke="#63b8ff" d="M233.91,-217.75C191.51,-217.75 128.74,-217.75 98.22,-217.75"/>
<polygon fill="#63b8ff" stroke="#63b8ff" points="233.77,-221.25 243.77,-217.75 233.77,-214.25 233.77,-221.25"/>
</a>
</g>
</g>
<!-- Node8 -->
<g id="Node000008" class="node">
<title>Node8</title>
<g id="a_Node000008"><a xlink:href="../../d1/d3a/_r_g_b_w_emulated_8ino.html#afe461d27b9c48d5921c00d521181f12f" target="_top" xlink:title=" ">
<polygon fill="white" stroke="#666666" points="97.75,-189.12 60.75,-189.12 60.75,-168.38 97.75,-168.38 97.75,-189.12"/>
<text text-anchor="middle" x="79.25" y="-175.62" font-family="Helvetica,sans-Serif" font-size="10.00">loop</text>
</a>
</g>
</g>
<!-- Node7&#45;&gt;Node8 -->
<g id="edge7_Node000007_Node000008" class="edge">
<title>Node7&#45;&gt;Node8</title>
<g id="a_edge7_Node000007_Node000008"><a xlink:title=" ">
<path fill="none" stroke="#63b8ff" d="M229.85,-178.75C187.58,-178.75 127.75,-178.75 98.2,-178.75"/>
<polygon fill="#63b8ff" stroke="#63b8ff" points="229.75,-182.25 239.75,-178.75 229.75,-175.25 229.75,-182.25"/>
</a>
</g>
</g>
<!-- Node11 -->
<g id="Node000011" class="node">
<title>Node11</title>
<g id="a_Node000011"><a xlink:href="../../d4/df6/class_led_rope_t_c_l.html#a842cac2350fad4c68d21d232f6a8a4c0" target="_top" xlink:title=" ">
<polygon fill="white" stroke="#666666" points="132.62,-150.12 25.88,-150.12 25.88,-129.38 132.62,-129.38 132.62,-150.12"/>
<text text-anchor="middle" x="79.25" y="-136.62" font-family="Helvetica,sans-Serif" font-size="10.00">LedRopeTCL::Draw</text>
</a>
</g>
</g>
<!-- Node10&#45;&gt;Node11 -->
<g id="edge10_Node000010_Node000011" class="edge">
<title>Node10&#45;&gt;Node11</title>
<g id="a_edge10_Node000010_Node000011"><a xlink:title=" ">
<path fill="none" stroke="#63b8ff" d="M211.07,-113.8C185.68,-118.84 157.03,-124.52 133.03,-129.28"/>
<polygon fill="#63b8ff" stroke="#63b8ff" points="211.49,-117.29 220.62,-111.91 210.13,-110.42 211.49,-117.29"/>
</a>
</g>
</g>
<!-- Node12 -->
<g id="Node000012" class="node">
<title>Node12</title>
<g id="a_Node000012"><a xlink:href="../../d4/df6/class_led_rope_t_c_l.html#af19abbbe43110da5fd09c169d9ab9307" target="_top" xlink:title=" ">
<polygon fill="white" stroke="#666666" points="149.88,-111.12 8.62,-111.12 8.62,-90.38 149.88,-90.38 149.88,-111.12"/>
<text text-anchor="middle" x="79.25" y="-97.62" font-family="Helvetica,sans-Serif" font-size="10.00">LedRopeTCL::DrawRepeat</text>
</a>
</g>
</g>
<!-- Node10&#45;&gt;Node12 -->
<g id="edge11_Node000010_Node000012" class="edge">
<title>Node10&#45;&gt;Node12</title>
<g id="a_edge11_Node000010_Node000012"><a xlink:title=" ">
<path fill="none" stroke="#63b8ff" d="M182.7,-100.75C171.76,-100.75 160.75,-100.75 150.22,-100.75"/>
<polygon fill="#63b8ff" stroke="#63b8ff" points="182.54,-104.25 192.54,-100.75 182.54,-97.25 182.54,-104.25"/>
</a>
</g>
</g>
<!-- Node13 -->
<g id="Node000013" class="node">
<title>Node13</title>
<g id="a_Node000013"><a xlink:href="../../d4/df6/class_led_rope_t_c_l.html#a90f6e3d74b585d37be799107d77421c8" target="_top" xlink:title=" ">
<polygon fill="white" stroke="#666666" points="158.5,-72.5 0,-72.5 0,-39 158.5,-39 158.5,-72.5"/>
<text text-anchor="start" x="8" y="-59" font-family="Helvetica,sans-Serif" font-size="10.00">LedRopeTCL::DrawSequential</text>
<text text-anchor="middle" x="79.25" y="-46.25" font-family="Helvetica,sans-Serif" font-size="10.00">Repeat</text>
</a>
</g>
</g>
<!-- Node10&#45;&gt;Node13 -->
<g id="edge12_Node000010_Node000013" class="edge">
<title>Node10&#45;&gt;Node13</title>
<g id="a_edge12_Node000010_Node000013"><a xlink:title=" ">
<path fill="none" stroke="#63b8ff" d="M218.73,-87.44C198.87,-82.9 176.37,-77.75 155.37,-72.94"/>
<polygon fill="#63b8ff" stroke="#63b8ff" points="217.77,-90.81 228.3,-89.63 219.34,-83.99 217.77,-90.81"/>
</a>
</g>
</g>
</g>
</svg>
