<?xml version="1.0" encoding="UTF-8" standalone="no"?>
<!DOCTYPE svg PUBLIC "-//W3C//DTD SVG 1.1//EN"
 "http://www.w3.org/Graphics/SVG/1.1/DTD/svg11.dtd">
<!-- Generated by graphviz version 12.2.1 (20241206.2353)
 -->
<!-- Title: fl::EngineEvents::_addListener Pages: 1 -->
<svg width="461pt" height="42pt"
 viewBox="0.00 0.00 461.00 41.50" xmlns="http://www.w3.org/2000/svg" xmlns:xlink="http://www.w3.org/1999/xlink">
<g id="graph0" class="graph" transform="scale(1 1) rotate(0) translate(4 37.5)">
<title>fl::EngineEvents::_addListener</title>
<!-- Node1 -->
<g id="Node000001" class="node">
<title>Node1</title>
<g id="a_Node000001"><a xlink:title=" ">
<polygon fill="#999999" stroke="#666666" points="453,-33.5 353,-33.5 353,0 453,0 453,-33.5"/>
<text text-anchor="start" x="361" y="-20" font-family="Helvetica,sans-Serif" font-size="10.00">fl::EngineEvents::</text>
<text text-anchor="middle" x="403" y="-7.25" font-family="Helvetica,sans-Serif" font-size="10.00">_addListener</text>
</a>
</g>
</g>
<!-- Node2 -->
<g id="Node000002" class="node">
<title>Node2</title>
<g id="a_Node000002"><a xlink:href="../../de/dca/classfl_1_1_engine_events.html#a0ec4bb952e2d965c309f69af153ce8d3" target="_top" xlink:title=" ">
<polygon fill="white" stroke="#666666" points="317,-27.12 160,-27.12 160,-6.38 317,-6.38 317,-27.12"/>
<text text-anchor="middle" x="238.5" y="-13.62" font-family="Helvetica,sans-Serif" font-size="10.00">fl::EngineEvents::addListener</text>
</a>
</g>
</g>
<!-- Node1&#45;&gt;Node2 -->
<g id="edge1_Node000001_Node000002" class="edge">
<title>Node1&#45;&gt;Node2</title>
<g id="a_edge1_Node000001_Node000002"><a xlink:title=" ">
<path fill="none" stroke="#63b8ff" d="M341.49,-16.75C333.61,-16.75 325.45,-16.75 317.34,-16.75"/>
<polygon fill="#63b8ff" stroke="#63b8ff" points="341.29,-20.25 351.29,-16.75 341.29,-13.25 341.29,-20.25"/>
</a>
</g>
</g>
<!-- Node3 -->
<g id="Node000003" class="node">
<title>Node3</title>
<g id="a_Node000003"><a xlink:href="../../dd/dbb/class_c_fast_l_e_d.html#ac965b166635b9aca0c165a53eb0a474f" target="_top" xlink:title=" ">
<polygon fill="white" stroke="#666666" points="124,-27.12 0,-27.12 0,-6.38 124,-6.38 124,-27.12"/>
<text text-anchor="middle" x="62" y="-13.62" font-family="Helvetica,sans-Serif" font-size="10.00">CFastLED::addListener</text>
</a>
</g>
</g>
<!-- Node2&#45;&gt;Node3 -->
<g id="edge2_Node000002_Node000003" class="edge">
<title>Node2&#45;&gt;Node3</title>
<g id="a_edge2_Node000002_Node000003"><a xlink:title=" ">
<path fill="none" stroke="#63b8ff" d="M148.29,-16.75C140.22,-16.75 132.18,-16.75 124.43,-16.75"/>
<polygon fill="#63b8ff" stroke="#63b8ff" points="148.18,-20.25 158.18,-16.75 148.18,-13.25 148.18,-20.25"/>
</a>
</g>
</g>
</g>
</svg>
