<?xml version="1.0" encoding="UTF-8" standalone="no"?>
<!DOCTYPE svg PUBLIC "-//W3C//DTD SVG 1.1//EN"
 "http://www.w3.org/Graphics/SVG/1.1/DTD/svg11.dtd">
<!-- Generated by graphviz version 12.2.1 (20241206.2353)
 -->
<!-- Title: fl::EngineEvents::onStripAdded Pages: 1 -->
<svg width="493pt" height="80pt"
 viewBox="0.00 0.00 492.50 80.12" xmlns="http://www.w3.org/2000/svg" xmlns:xlink="http://www.w3.org/1999/xlink">
<g id="graph0" class="graph" transform="scale(1 1) rotate(0) translate(4 76.12)">
<title>fl::EngineEvents::onStripAdded</title>
<!-- Node1 -->
<g id="Node000001" class="node">
<title>Node1</title>
<g id="a_Node000001"><a xlink:title=" ">
<polygon fill="#999999" stroke="#666666" points="134.5,-49.12 0,-49.12 0,-15.62 134.5,-15.62 134.5,-49.12"/>
<text text-anchor="start" x="8" y="-35.62" font-family="Helvetica,sans-Serif" font-size="10.00">fl::EngineEvents::onStrip</text>
<text text-anchor="middle" x="67.25" y="-22.88" font-family="Helvetica,sans-Serif" font-size="10.00">Added</text>
</a>
</g>
</g>
<!-- Node2 -->
<g id="Node000002" class="node">
<title>Node2</title>
<g id="a_Node000002"><a xlink:href="../../de/dca/classfl_1_1_engine_events.html#a006e1f01b766436e0eec2e406b4512d5" target="_top" xlink:title=" ">
<polygon fill="white" stroke="#666666" points="299,-72.12 199,-72.12 199,-38.62 299,-38.62 299,-72.12"/>
<text text-anchor="start" x="207" y="-58.62" font-family="Helvetica,sans-Serif" font-size="10.00">fl::EngineEvents::</text>
<text text-anchor="middle" x="249" y="-45.88" font-family="Helvetica,sans-Serif" font-size="10.00">_onStripAdded</text>
</a>
</g>
</g>
<!-- Node1&#45;&gt;Node2 -->
<g id="edge1_Node000001_Node000002" class="edge">
<title>Node1&#45;&gt;Node2</title>
<g id="a_edge1_Node000001_Node000002"><a xlink:title=" ">
<path fill="none" stroke="#63b8ff" d="M134.93,-40.91C152.06,-43.1 170.39,-45.44 187.2,-47.6"/>
<polygon fill="#63b8ff" stroke="#63b8ff" points="186.7,-51.06 197.07,-48.86 187.59,-44.12 186.7,-51.06"/>
</a>
</g>
</g>
<!-- Node3 -->
<g id="Node000003" class="node">
<title>Node3</title>
<g id="a_Node000003"><a xlink:href="../../de/dca/classfl_1_1_engine_events.html#a34a4625c4fbcf754f70820bc4f0e418b" target="_top" xlink:title=" ">
<polygon fill="white" stroke="#666666" points="327.5,-20.75 170.5,-20.75 170.5,0 327.5,0 327.5,-20.75"/>
<text text-anchor="middle" x="249" y="-7.25" font-family="Helvetica,sans-Serif" font-size="10.00">fl::EngineEvents::getInstance</text>
</a>
</g>
</g>
<!-- Node1&#45;&gt;Node3 -->
<g id="edge2_Node000001_Node000003" class="edge">
<title>Node1&#45;&gt;Node3</title>
<g id="a_edge2_Node000001_Node000003"><a xlink:title=" ">
<path fill="none" stroke="#63b8ff" d="M134.93,-24.21C142.74,-23.26 150.8,-22.27 158.85,-21.29"/>
<polygon fill="#63b8ff" stroke="#63b8ff" points="159.2,-24.77 168.7,-20.08 158.35,-17.82 159.2,-24.77"/>
</a>
</g>
</g>
<!-- Node4 -->
<g id="Node000004" class="node">
<title>Node4</title>
<g id="a_Node000004"><a xlink:href="../../d9/d5b/classfl_1_1_singleton.html#a7e65fe8dee6b2a23a8b6138fa2c274cb" target="_top" xlink:title=" ">
<polygon fill="white" stroke="#666666" points="484.5,-20.75 363.5,-20.75 363.5,0 484.5,0 484.5,-20.75"/>
<text text-anchor="middle" x="424" y="-7.25" font-family="Helvetica,sans-Serif" font-size="10.00">fl::Singleton::instance</text>
</a>
</g>
</g>
<!-- Node3&#45;&gt;Node4 -->
<g id="edge3_Node000003_Node000004" class="edge">
<title>Node3&#45;&gt;Node4</title>
<g id="a_edge3_Node000003_Node000004"><a xlink:title=" ">
<path fill="none" stroke="#63b8ff" d="M327.9,-10.38C335.85,-10.38 343.9,-10.38 351.78,-10.38"/>
<polygon fill="#63b8ff" stroke="#63b8ff" points="351.65,-13.88 361.65,-10.38 351.65,-6.88 351.65,-13.88"/>
</a>
</g>
</g>
<!-- Node4&#45;&gt;Node4 -->
<g id="edge4_Node000004_Node000004" class="edge">
<title>Node4&#45;&gt;Node4</title>
<g id="a_edge4_Node000004_Node000004"><a xlink:title=" ">
<path fill="none" stroke="#63b8ff" d="M395.8,-21.15C384.52,-29.81 393.92,-38.75 424,-38.75 440.45,-38.75 450.71,-36.08 454.79,-32.24"/>
<polygon fill="#63b8ff" stroke="#63b8ff" points="458.23,-31.56 452.54,-22.62 451.41,-33.16 458.23,-31.56"/>
</a>
</g>
</g>
</g>
</svg>
