<?xml version="1.0" encoding="UTF-8" standalone="no"?>
<!DOCTYPE svg PUBLIC "-//W3C//DTD SVG 1.1//EN"
 "http://www.w3.org/Graphics/SVG/1.1/DTD/svg11.dtd">
<!-- Generated by graphviz version 12.2.1 (20241206.2353)
 -->
<!-- Title: fl::EngineEvents::hasListener Pages: 1 -->
<svg width="514pt" height="80pt"
 viewBox="0.00 0.00 514.25 80.12" xmlns="http://www.w3.org/2000/svg" xmlns:xlink="http://www.w3.org/1999/xlink">
<g id="graph0" class="graph" transform="scale(1 1) rotate(0) translate(4 76.12)">
<title>fl::EngineEvents::hasListener</title>
<!-- Node1 -->
<g id="Node000001" class="node">
<title>Node1</title>
<g id="a_Node000001"><a xlink:title=" ">
<polygon fill="#999999" stroke="#666666" points="156.25,-42.75 0,-42.75 0,-22 156.25,-22 156.25,-42.75"/>
<text text-anchor="middle" x="78.12" y="-29.25" font-family="Helvetica,sans-Serif" font-size="10.00">fl::EngineEvents::hasListener</text>
</a>
</g>
</g>
<!-- Node2 -->
<g id="Node000002" class="node">
<title>Node2</title>
<g id="a_Node000002"><a xlink:href="../../de/dca/classfl_1_1_engine_events.html#a74d83de35ce045734d42bab135251dd3" target="_top" xlink:title=" ">
<polygon fill="white" stroke="#666666" points="320.75,-72.12 220.75,-72.12 220.75,-38.62 320.75,-38.62 320.75,-72.12"/>
<text text-anchor="start" x="228.75" y="-58.62" font-family="Helvetica,sans-Serif" font-size="10.00">fl::EngineEvents::</text>
<text text-anchor="middle" x="270.75" y="-45.88" font-family="Helvetica,sans-Serif" font-size="10.00">_hasListener</text>
</a>
</g>
</g>
<!-- Node1&#45;&gt;Node2 -->
<g id="edge1_Node000001_Node000002" class="edge">
<title>Node1&#45;&gt;Node2</title>
<g id="a_edge1_Node000001_Node000002"><a xlink:title=" ">
<path fill="none" stroke="#63b8ff" d="M156.66,-41.73C174.16,-43.84 192.5,-46.05 209.18,-48.07"/>
<polygon fill="#63b8ff" stroke="#63b8ff" points="208.59,-51.52 218.94,-49.24 209.43,-44.57 208.59,-51.52"/>
</a>
</g>
</g>
<!-- Node3 -->
<g id="Node000003" class="node">
<title>Node3</title>
<g id="a_Node000003"><a xlink:href="../../de/dca/classfl_1_1_engine_events.html#a34a4625c4fbcf754f70820bc4f0e418b" target="_top" xlink:title=" ">
<polygon fill="white" stroke="#666666" points="349.25,-20.75 192.25,-20.75 192.25,0 349.25,0 349.25,-20.75"/>
<text text-anchor="middle" x="270.75" y="-7.25" font-family="Helvetica,sans-Serif" font-size="10.00">fl::EngineEvents::getInstance</text>
</a>
</g>
</g>
<!-- Node1&#45;&gt;Node3 -->
<g id="edge2_Node000001_Node000003" class="edge">
<title>Node1&#45;&gt;Node3</title>
<g id="a_edge2_Node000001_Node000003"><a xlink:title=" ">
<path fill="none" stroke="#63b8ff" d="M156.66,-23.43C164.58,-22.51 172.66,-21.58 180.69,-20.65"/>
<polygon fill="#63b8ff" stroke="#63b8ff" points="180.94,-24.15 190.47,-19.52 180.14,-17.19 180.94,-24.15"/>
</a>
</g>
</g>
<!-- Node4 -->
<g id="Node000004" class="node">
<title>Node4</title>
<g id="a_Node000004"><a xlink:href="../../d9/d5b/classfl_1_1_singleton.html#a7e65fe8dee6b2a23a8b6138fa2c274cb" target="_top" xlink:title=" ">
<polygon fill="white" stroke="#666666" points="506.25,-20.75 385.25,-20.75 385.25,0 506.25,0 506.25,-20.75"/>
<text text-anchor="middle" x="445.75" y="-7.25" font-family="Helvetica,sans-Serif" font-size="10.00">fl::Singleton::instance</text>
</a>
</g>
</g>
<!-- Node3&#45;&gt;Node4 -->
<g id="edge3_Node000003_Node000004" class="edge">
<title>Node3&#45;&gt;Node4</title>
<g id="a_edge3_Node000003_Node000004"><a xlink:title=" ">
<path fill="none" stroke="#63b8ff" d="M349.65,-10.38C357.6,-10.38 365.65,-10.38 373.53,-10.38"/>
<polygon fill="#63b8ff" stroke="#63b8ff" points="373.4,-13.88 383.4,-10.38 373.4,-6.88 373.4,-13.88"/>
</a>
</g>
</g>
<!-- Node4&#45;&gt;Node4 -->
<g id="edge4_Node000004_Node000004" class="edge">
<title>Node4&#45;&gt;Node4</title>
<g id="a_edge4_Node000004_Node000004"><a xlink:title=" ">
<path fill="none" stroke="#63b8ff" d="M417.55,-21.15C406.27,-29.81 415.67,-38.75 445.75,-38.75 462.2,-38.75 472.46,-36.08 476.54,-32.24"/>
<polygon fill="#63b8ff" stroke="#63b8ff" points="479.98,-31.56 474.29,-22.62 473.16,-33.16 479.98,-31.56"/>
</a>
</g>
</g>
</g>
</svg>
