<?xml version="1.0" encoding="UTF-8" standalone="no"?>
<!DOCTYPE svg PUBLIC "-//W3C//DTD SVG 1.1//EN"
 "http://www.w3.org/Graphics/SVG/1.1/DTD/svg11.dtd">
<!-- Generated by graphviz version 12.2.1 (20241206.2353)
 -->
<!-- Title: CRGBPalette256::CRGBPalette256 Pages: 1 -->
<svg width="632pt" height="185pt"
 viewBox="0.00 0.00 632.25 184.75" xmlns="http://www.w3.org/2000/svg" xmlns:xlink="http://www.w3.org/1999/xlink">
<g id="graph0" class="graph" transform="scale(1 1) rotate(0) translate(4 180.75)">
<title>CRGBPalette256::CRGBPalette256</title>
<!-- Node1 -->
<g id="Node000001" class="node">
<title>Node1</title>
<g id="a_Node000001"><a xlink:title="Create upscaled palette from 16&#45;entry palette.">
<polygon fill="#999999" stroke="#666666" points="181,-98.75 0,-98.75 0,-78 181,-78 181,-98.75"/>
<text text-anchor="middle" x="90.5" y="-85.25" font-family="Helvetica,sans-Serif" font-size="10.00">CRGBPalette256::CRGBPalette256</text>
</a>
</g>
</g>
<!-- Node2 -->
<g id="Node000002" class="node">
<title>Node2</title>
<g id="a_Node000002"><a xlink:href="../../d6/d0a/group___palette_upscale.html#gaa88523d1afb29cf3f75b9b2725ba55d3" target="_top" xlink:title="Convert a 16&#45;entry palette to a 256&#45;entry palette.">
<polygon fill="white" stroke="#666666" points="305.75,-98.75 217,-98.75 217,-78 305.75,-78 305.75,-98.75"/>
<text text-anchor="middle" x="261.38" y="-85.25" font-family="Helvetica,sans-Serif" font-size="10.00">UpscalePalette</text>
</a>
</g>
</g>
<!-- Node1&#45;&gt;Node2 -->
<g id="edge1_Node000001_Node000002" class="edge">
<title>Node1&#45;&gt;Node2</title>
<g id="a_edge1_Node000001_Node000002"><a xlink:title=" ">
<path fill="none" stroke="#63b8ff" d="M181.38,-88.38C189.54,-88.38 197.63,-88.38 205.35,-88.38"/>
<polygon fill="#63b8ff" stroke="#63b8ff" points="205.22,-91.88 215.22,-88.38 205.22,-84.88 205.22,-91.88"/>
</a>
</g>
</g>
<!-- Node3 -->
<g id="Node000003" class="node">
<title>Node3</title>
<g id="a_Node000003"><a xlink:href="../../d2/d73/group___palette_colors.html#gac46e65aff3dd6519b33e27f0998f17cd" target="_top" xlink:title="Get a color from a palette.">
<polygon fill="white" stroke="#666666" points="441.75,-98.75 341.75,-98.75 341.75,-78 441.75,-78 441.75,-98.75"/>
<text text-anchor="middle" x="391.75" y="-85.25" font-family="Helvetica,sans-Serif" font-size="10.00">ColorFromPalette</text>
</a>
</g>
</g>
<!-- Node2&#45;&gt;Node3 -->
<g id="edge2_Node000002_Node000003" class="edge">
<title>Node2&#45;&gt;Node3</title>
<g id="a_edge2_Node000002_Node000003"><a xlink:title=" ">
<path fill="none" stroke="#63b8ff" d="M306.2,-88.38C313.9,-88.38 322.03,-88.38 330.1,-88.38"/>
<polygon fill="#63b8ff" stroke="#63b8ff" points="329.88,-91.88 339.88,-88.38 329.88,-84.88 329.88,-91.88"/>
</a>
</g>
</g>
<!-- Node4 -->
<g id="Node000004" class="node">
<title>Node4</title>
<g id="a_Node000004"><a xlink:href="../../dc/db8/group___color_blends.html#ga4f06b4423f71f77346aaf5dabe7dd05c" target="_top" xlink:title="Computes a new color blended some fraction of the way between two other colors.">
<polygon fill="#fff0f0" stroke="red" points="572.5,-176.75 529.5,-176.75 529.5,-156 572.5,-156 572.5,-176.75"/>
<text text-anchor="middle" x="551" y="-163.25" font-family="Helvetica,sans-Serif" font-size="10.00">blend</text>
</a>
</g>
</g>
<!-- Node3&#45;&gt;Node4 -->
<g id="edge3_Node000003_Node000004" class="edge">
<title>Node3&#45;&gt;Node4</title>
<g id="a_edge3_Node000003_Node000004"><a xlink:title=" ">
<path fill="none" stroke="#63b8ff" d="M405.47,-99.06C421.42,-111.96 450.04,-133.52 477.75,-146.38 490.4,-152.25 505.13,-156.71 517.97,-159.91"/>
<polygon fill="#63b8ff" stroke="#63b8ff" points="517.11,-163.3 527.65,-162.16 518.7,-156.49 517.11,-163.3"/>
</a>
</g>
</g>
<!-- Node7 -->
<g id="Node000007" class="node">
<title>Node7</title>
<g id="a_Node000007"><a xlink:href="../../d0/da5/group___scaling_dirty.html#ga3fade00fb4cf5b937b973128198a7a79" target="_top" xlink:title="Clean up the r1 register after a series of *LEAVING_R1_DIRTY calls.">
<polygon fill="white" stroke="#666666" points="587.12,-137.75 514.88,-137.75 514.88,-117 587.12,-117 587.12,-137.75"/>
<text text-anchor="middle" x="551" y="-124.25" font-family="Helvetica,sans-Serif" font-size="10.00">cleanup_R1</text>
</a>
</g>
</g>
<!-- Node3&#45;&gt;Node7 -->
<g id="edge4_Node000003_Node000007" class="edge">
<title>Node3&#45;&gt;Node7</title>
<g id="a_edge4_Node000003_Node000007"><a xlink:title=" ">
<path fill="none" stroke="#63b8ff" d="M436.55,-99.24C457.43,-104.42 482.41,-110.61 503.61,-115.87"/>
<polygon fill="#63b8ff" stroke="#63b8ff" points="502.61,-119.23 513.16,-118.24 504.29,-112.43 502.61,-119.23"/>
</a>
</g>
</g>
<!-- Node9 -->
<g id="Node000009" class="node">
<title>Node9</title>
<g id="a_Node000009"><a xlink:href="../../da/d2d/colorutils_8cpp.html#ab445fd8641e95a3bbd1417d9783f6170" target="_top" xlink:title="Helper function to divide a number by 16, aka four logical shift right (LSR)&#39;s.">
<polygon fill="white" stroke="#666666" points="571.38,-98.75 530.62,-98.75 530.62,-78 571.38,-78 571.38,-98.75"/>
<text text-anchor="middle" x="551" y="-85.25" font-family="Helvetica,sans-Serif" font-size="10.00">lsrX4</text>
</a>
</g>
</g>
<!-- Node3&#45;&gt;Node9 -->
<g id="edge5_Node000003_Node000009" class="edge">
<title>Node3&#45;&gt;Node9</title>
<g id="a_edge5_Node000003_Node000009"><a xlink:title=" ">
<path fill="none" stroke="#63b8ff" d="M442.07,-88.38C467.3,-88.38 497.23,-88.38 519.17,-88.38"/>
<polygon fill="#63b8ff" stroke="#63b8ff" points="518.94,-91.88 528.94,-88.38 518.94,-84.88 518.94,-91.88"/>
</a>
</g>
</g>
<!-- Node10 -->
<g id="Node000010" class="node">
<title>Node10</title>
<g id="a_Node000010"><a xlink:href="../../d6/d19/group___linear_interpolation.html#gaf65357c7aeca9778e5a2f80a6bac2b5d" target="_top" xlink:title="Map from one full&#45;range 8&#45;bit value into a narrower range of 8&#45;bit values, possibly a range of hues.">
<polygon fill="#fff0f0" stroke="red" points="572.88,-59.75 529.12,-59.75 529.12,-39 572.88,-39 572.88,-59.75"/>
<text text-anchor="middle" x="551" y="-46.25" font-family="Helvetica,sans-Serif" font-size="10.00">map8</text>
</a>
</g>
</g>
<!-- Node3&#45;&gt;Node10 -->
<g id="edge6_Node000003_Node000010" class="edge">
<title>Node3&#45;&gt;Node10</title>
<g id="a_edge6_Node000003_Node000010"><a xlink:title=" ">
<path fill="none" stroke="#63b8ff" d="M436.55,-77.51C462.36,-71.11 494.45,-63.15 517.9,-57.34"/>
<polygon fill="#63b8ff" stroke="#63b8ff" points="518.65,-60.76 527.51,-54.95 516.96,-53.96 518.65,-60.76"/>
</a>
</g>
</g>
<!-- Node8 -->
<g id="Node000008" class="node">
<title>Node8</title>
<g id="a_Node000008"><a xlink:href="../../d0/da5/group___scaling_dirty.html#ga7386235cada3aca429b189681d2ec56d" target="_top" xlink:title="This version of scale8() does not clean up the R1 register on AVR.">
<polygon fill="white" stroke="#666666" points="624.25,-20.75 477.75,-20.75 477.75,0 624.25,0 624.25,-20.75"/>
<text text-anchor="middle" x="551" y="-7.25" font-family="Helvetica,sans-Serif" font-size="10.00">scale8_LEAVING_R1_DIRTY</text>
</a>
</g>
</g>
<!-- Node3&#45;&gt;Node8 -->
<g id="edge7_Node000003_Node000008" class="edge">
<title>Node3&#45;&gt;Node8</title>
<g id="a_edge7_Node000003_Node000008"><a xlink:title=" ">
<path fill="none" stroke="#63b8ff" d="M405.47,-77.69C421.42,-64.79 450.04,-43.23 477.75,-30.38 482.07,-28.37 486.62,-26.53 491.27,-24.85"/>
<polygon fill="#63b8ff" stroke="#63b8ff" points="492.36,-28.18 500.74,-21.69 490.14,-21.54 492.36,-28.18"/>
</a>
</g>
</g>
</g>
</svg>
