<?xml version="1.0" encoding="UTF-8" standalone="no"?>
<!DOCTYPE svg PUBLIC "-//W3C//DTD SVG 1.1//EN"
 "http://www.w3.org/Graphics/SVG/1.1/DTD/svg11.dtd">
<!-- Generated by graphviz version 12.2.1 (20241206.2353)
 -->
<!-- Title: CHSVPalette256::CHSVPalette256 Pages: 1 -->
<svg width="631pt" height="185pt"
 viewBox="0.00 0.00 630.75 184.75" xmlns="http://www.w3.org/2000/svg" xmlns:xlink="http://www.w3.org/1999/xlink">
<g id="graph0" class="graph" transform="scale(1 1) rotate(0) translate(4 180.75)">
<title>CHSVPalette256::CHSVPalette256</title>
<!-- Node1 -->
<g id="Node000001" class="node">
<title>Node1</title>
<g id="a_Node000001"><a xlink:title="Create upscaled palette from 16&#45;entry palette.">
<polygon fill="#999999" stroke="#666666" points="179.5,-98.75 0,-98.75 0,-78 179.5,-78 179.5,-98.75"/>
<text text-anchor="middle" x="89.75" y="-85.25" font-family="Helvetica,sans-Serif" font-size="10.00">CHSVPalette256::CHSVPalette256</text>
</a>
</g>
</g>
<!-- Node2 -->
<g id="Node000002" class="node">
<title>Node2</title>
<g id="a_Node000002"><a xlink:href="../../d6/d0a/group___palette_upscale.html#gaa88523d1afb29cf3f75b9b2725ba55d3" target="_top" xlink:title="Convert a 16&#45;entry palette to a 256&#45;entry palette.">
<polygon fill="white" stroke="#666666" points="304.25,-98.75 215.5,-98.75 215.5,-78 304.25,-78 304.25,-98.75"/>
<text text-anchor="middle" x="259.88" y="-85.25" font-family="Helvetica,sans-Serif" font-size="10.00">UpscalePalette</text>
</a>
</g>
</g>
<!-- Node1&#45;&gt;Node2 -->
<g id="edge1_Node000001_Node000002" class="edge">
<title>Node1&#45;&gt;Node2</title>
<g id="a_edge1_Node000001_Node000002"><a xlink:title=" ">
<path fill="none" stroke="#63b8ff" d="M179.74,-88.38C187.9,-88.38 195.99,-88.38 203.72,-88.38"/>
<polygon fill="#63b8ff" stroke="#63b8ff" points="203.61,-91.88 213.61,-88.38 203.61,-84.88 203.61,-91.88"/>
</a>
</g>
</g>
<!-- Node3 -->
<g id="Node000003" class="node">
<title>Node3</title>
<g id="a_Node000003"><a xlink:href="../../d2/d73/group___palette_colors.html#gac46e65aff3dd6519b33e27f0998f17cd" target="_top" xlink:title="Get a color from a palette.">
<polygon fill="white" stroke="#666666" points="440.25,-98.75 340.25,-98.75 340.25,-78 440.25,-78 440.25,-98.75"/>
<text text-anchor="middle" x="390.25" y="-85.25" font-family="Helvetica,sans-Serif" font-size="10.00">ColorFromPalette</text>
</a>
</g>
</g>
<!-- Node2&#45;&gt;Node3 -->
<g id="edge2_Node000002_Node000003" class="edge">
<title>Node2&#45;&gt;Node3</title>
<g id="a_edge2_Node000002_Node000003"><a xlink:title=" ">
<path fill="none" stroke="#63b8ff" d="M304.7,-88.38C312.4,-88.38 320.53,-88.38 328.6,-88.38"/>
<polygon fill="#63b8ff" stroke="#63b8ff" points="328.38,-91.88 338.38,-88.38 328.38,-84.88 328.38,-91.88"/>
</a>
</g>
</g>
<!-- Node4 -->
<g id="Node000004" class="node">
<title>Node4</title>
<g id="a_Node000004"><a xlink:href="../../dc/db8/group___color_blends.html#ga4f06b4423f71f77346aaf5dabe7dd05c" target="_top" xlink:title="Computes a new color blended some fraction of the way between two other colors.">
<polygon fill="#fff0f0" stroke="red" points="571,-176.75 528,-176.75 528,-156 571,-156 571,-176.75"/>
<text text-anchor="middle" x="549.5" y="-163.25" font-family="Helvetica,sans-Serif" font-size="10.00">blend</text>
</a>
</g>
</g>
<!-- Node3&#45;&gt;Node4 -->
<g id="edge3_Node000003_Node000004" class="edge">
<title>Node3&#45;&gt;Node4</title>
<g id="a_edge3_Node000003_Node000004"><a xlink:title=" ">
<path fill="none" stroke="#63b8ff" d="M403.97,-99.06C419.92,-111.96 448.54,-133.52 476.25,-146.38 488.9,-152.25 503.63,-156.71 516.47,-159.91"/>
<polygon fill="#63b8ff" stroke="#63b8ff" points="515.61,-163.3 526.15,-162.16 517.2,-156.49 515.61,-163.3"/>
</a>
</g>
</g>
<!-- Node7 -->
<g id="Node000007" class="node">
<title>Node7</title>
<g id="a_Node000007"><a xlink:href="../../d0/da5/group___scaling_dirty.html#ga3fade00fb4cf5b937b973128198a7a79" target="_top" xlink:title="Clean up the r1 register after a series of *LEAVING_R1_DIRTY calls.">
<polygon fill="white" stroke="#666666" points="585.62,-137.75 513.38,-137.75 513.38,-117 585.62,-117 585.62,-137.75"/>
<text text-anchor="middle" x="549.5" y="-124.25" font-family="Helvetica,sans-Serif" font-size="10.00">cleanup_R1</text>
</a>
</g>
</g>
<!-- Node3&#45;&gt;Node7 -->
<g id="edge4_Node000003_Node000007" class="edge">
<title>Node3&#45;&gt;Node7</title>
<g id="a_edge4_Node000003_Node000007"><a xlink:title=" ">
<path fill="none" stroke="#63b8ff" d="M435.05,-99.24C455.93,-104.42 480.91,-110.61 502.11,-115.87"/>
<polygon fill="#63b8ff" stroke="#63b8ff" points="501.11,-119.23 511.66,-118.24 502.79,-112.43 501.11,-119.23"/>
</a>
</g>
</g>
<!-- Node9 -->
<g id="Node000009" class="node">
<title>Node9</title>
<g id="a_Node000009"><a xlink:href="../../da/d2d/colorutils_8cpp.html#ab445fd8641e95a3bbd1417d9783f6170" target="_top" xlink:title="Helper function to divide a number by 16, aka four logical shift right (LSR)&#39;s.">
<polygon fill="white" stroke="#666666" points="569.88,-98.75 529.12,-98.75 529.12,-78 569.88,-78 569.88,-98.75"/>
<text text-anchor="middle" x="549.5" y="-85.25" font-family="Helvetica,sans-Serif" font-size="10.00">lsrX4</text>
</a>
</g>
</g>
<!-- Node3&#45;&gt;Node9 -->
<g id="edge5_Node000003_Node000009" class="edge">
<title>Node3&#45;&gt;Node9</title>
<g id="a_edge5_Node000003_Node000009"><a xlink:title=" ">
<path fill="none" stroke="#63b8ff" d="M440.57,-88.38C465.8,-88.38 495.73,-88.38 517.67,-88.38"/>
<polygon fill="#63b8ff" stroke="#63b8ff" points="517.44,-91.88 527.44,-88.38 517.44,-84.88 517.44,-91.88"/>
</a>
</g>
</g>
<!-- Node10 -->
<g id="Node000010" class="node">
<title>Node10</title>
<g id="a_Node000010"><a xlink:href="../../d6/d19/group___linear_interpolation.html#gaf65357c7aeca9778e5a2f80a6bac2b5d" target="_top" xlink:title="Map from one full&#45;range 8&#45;bit value into a narrower range of 8&#45;bit values, possibly a range of hues.">
<polygon fill="#fff0f0" stroke="red" points="571.38,-59.75 527.62,-59.75 527.62,-39 571.38,-39 571.38,-59.75"/>
<text text-anchor="middle" x="549.5" y="-46.25" font-family="Helvetica,sans-Serif" font-size="10.00">map8</text>
</a>
</g>
</g>
<!-- Node3&#45;&gt;Node10 -->
<g id="edge6_Node000003_Node000010" class="edge">
<title>Node3&#45;&gt;Node10</title>
<g id="a_edge6_Node000003_Node000010"><a xlink:title=" ">
<path fill="none" stroke="#63b8ff" d="M435.05,-77.51C460.86,-71.11 492.95,-63.15 516.4,-57.34"/>
<polygon fill="#63b8ff" stroke="#63b8ff" points="517.15,-60.76 526.01,-54.95 515.46,-53.96 517.15,-60.76"/>
</a>
</g>
</g>
<!-- Node8 -->
<g id="Node000008" class="node">
<title>Node8</title>
<g id="a_Node000008"><a xlink:href="../../d0/da5/group___scaling_dirty.html#ga7386235cada3aca429b189681d2ec56d" target="_top" xlink:title="This version of scale8() does not clean up the R1 register on AVR.">
<polygon fill="white" stroke="#666666" points="622.75,-20.75 476.25,-20.75 476.25,0 622.75,0 622.75,-20.75"/>
<text text-anchor="middle" x="549.5" y="-7.25" font-family="Helvetica,sans-Serif" font-size="10.00">scale8_LEAVING_R1_DIRTY</text>
</a>
</g>
</g>
<!-- Node3&#45;&gt;Node8 -->
<g id="edge7_Node000003_Node000008" class="edge">
<title>Node3&#45;&gt;Node8</title>
<g id="a_edge7_Node000003_Node000008"><a xlink:title=" ">
<path fill="none" stroke="#63b8ff" d="M403.97,-77.69C419.92,-64.79 448.54,-43.23 476.25,-30.38 480.57,-28.37 485.12,-26.53 489.77,-24.85"/>
<polygon fill="#63b8ff" stroke="#63b8ff" points="490.86,-28.18 499.24,-21.69 488.64,-21.54 490.86,-28.18"/>
</a>
</g>
</g>
</g>
</svg>
