<?xml version="1.0" encoding="UTF-8" standalone="no"?>
<!DOCTYPE svg PUBLIC "-//W3C//DTD SVG 1.1//EN"
 "http://www.w3.org/Graphics/SVG/1.1/DTD/svg11.dtd">
<!-- Generated by graphviz version 12.2.1 (20241206.2353)
 -->
<!-- Title: FastPin::port Pages: 1 -->
<svg width="436pt" height="295pt"
 viewBox="0.00 0.00 436.25 294.50" xmlns="http://www.w3.org/2000/svg" xmlns:xlink="http://www.w3.org/1999/xlink">
<g id="graph0" class="graph" transform="scale(1 1) rotate(0) translate(4 290.5)">
<title>FastPin::port</title>
<!-- Node1 -->
<g id="Node000001" class="node">
<title>Node1</title>
<g id="a_Node000001"><a xlink:title="Get the output state of the port.">
<polygon fill="#999999" stroke="#666666" points="428.25,-153.12 352.25,-153.12 352.25,-132.38 428.25,-132.38 428.25,-153.12"/>
<text text-anchor="middle" x="390.25" y="-139.62" font-family="Helvetica,sans-Serif" font-size="10.00">FastPin::port</text>
</a>
</g>
</g>
<!-- Node2 -->
<g id="Node000002" class="node">
<title>Node2</title>
<g id="a_Node000002"><a xlink:href="../../db/d3b/class_fast_pin.html#ad560f1e8787dc9c555ec635c0b5c99fa" target="_top" xlink:title="Set the state of a port.">
<polygon fill="white" stroke="#666666" points="298.25,-254.12 208,-254.12 208,-233.38 298.25,-233.38 298.25,-254.12"/>
<text text-anchor="middle" x="253.12" y="-240.62" font-family="Helvetica,sans-Serif" font-size="10.00">FastPin::fastset</text>
</a>
</g>
</g>
<!-- Node1&#45;&gt;Node2 -->
<g id="edge1_Node000001_Node000002" class="edge">
<title>Node1&#45;&gt;Node2</title>
<g id="a_edge1_Node000001_Node000002"><a xlink:title=" ">
<path fill="none" stroke="#63b8ff" d="M375.91,-162.8C362.75,-181.1 341.06,-207.7 316.25,-223.75 310.64,-227.38 304.31,-230.4 297.9,-232.9"/>
<polygon fill="#63b8ff" stroke="#63b8ff" points="378.61,-165.05 381.44,-154.84 372.86,-161.05 378.61,-165.05"/>
</a>
</g>
</g>
<!-- Node5 -->
<g id="Node000005" class="node">
<title>Node5</title>
<g id="a_Node000005"><a xlink:href="../../db/d3b/class_fast_pin.html#a4f20ac7720b2e6aa838f98ab8feaa6e9" target="_top" xlink:title="Set the same pin on another port to HIGH">
<polygon fill="white" stroke="#666666" points="285.88,-215.12 220.38,-215.12 220.38,-194.38 285.88,-194.38 285.88,-215.12"/>
<text text-anchor="middle" x="253.12" y="-201.62" font-family="Helvetica,sans-Serif" font-size="10.00">FastPin::hi</text>
</a>
</g>
</g>
<!-- Node1&#45;&gt;Node5 -->
<g id="edge4_Node000001_Node000005" class="edge">
<title>Node1&#45;&gt;Node5</title>
<g id="a_edge4_Node000001_Node000005"><a xlink:title=" ">
<path fill="none" stroke="#63b8ff" d="M363.3,-159.47C349.66,-167.79 332.44,-177.58 316.25,-184.75 306.72,-188.97 296.01,-192.74 286.21,-195.84"/>
<polygon fill="#63b8ff" stroke="#63b8ff" points="365.03,-162.51 371.67,-154.26 361.33,-156.57 365.03,-162.51"/>
</a>
</g>
</g>
<!-- Node6 -->
<g id="Node000006" class="node">
<title>Node6</title>
<g id="a_Node000006"><a xlink:href="../../db/d3b/class_fast_pin.html#a5cfbabab50687a0b0c3fb2ae57e4f87f" target="_top" xlink:title="Set the same pin on another port to LOW">
<polygon fill="white" stroke="#666666" points="285.88,-176.12 220.38,-176.12 220.38,-155.38 285.88,-155.38 285.88,-176.12"/>
<text text-anchor="middle" x="253.12" y="-162.62" font-family="Helvetica,sans-Serif" font-size="10.00">FastPin::lo</text>
</a>
</g>
</g>
<!-- Node1&#45;&gt;Node6 -->
<g id="edge5_Node000001_Node000006" class="edge">
<title>Node1&#45;&gt;Node6</title>
<g id="a_edge5_Node000001_Node000006"><a xlink:title=" ">
<path fill="none" stroke="#63b8ff" d="M340.71,-151.01C322.6,-154.09 302.51,-157.51 286.24,-160.28"/>
<polygon fill="#63b8ff" stroke="#63b8ff" points="341.21,-154.48 350.48,-149.35 340.03,-147.58 341.21,-154.48"/>
</a>
</g>
</g>
<!-- Node7 -->
<g id="Node000007" class="node">
<title>Node7</title>
<g id="a_Node000007"><a xlink:href="../../dc/d57/class_a_v_r_software_s_p_i_output.html#af543930d08c9ce5c8229e45be97980e9" target="_top" xlink:title="Write an array of data to the SPI interface.">
<polygon fill="white" stroke="#666666" points="316.25,-137.5 190,-137.5 190,-104 316.25,-104 316.25,-137.5"/>
<text text-anchor="start" x="198" y="-124" font-family="Helvetica,sans-Serif" font-size="10.00">AVRSoftwareSPIOutput</text>
<text text-anchor="middle" x="253.12" y="-111.25" font-family="Helvetica,sans-Serif" font-size="10.00">::writeBytes</text>
</a>
</g>
</g>
<!-- Node1&#45;&gt;Node7 -->
<g id="edge6_Node000001_Node000007" class="edge">
<title>Node1&#45;&gt;Node7</title>
<g id="a_edge6_Node000001_Node000007"><a xlink:title=" ">
<path fill="none" stroke="#63b8ff" d="M340.83,-134.87C333,-133.59 324.8,-132.26 316.7,-130.94"/>
<polygon fill="#63b8ff" stroke="#63b8ff" points="340.04,-138.28 350.47,-136.44 341.17,-131.38 340.04,-138.28"/>
</a>
</g>
</g>
<!-- Node9 -->
<g id="Node000009" class="node">
<title>Node9</title>
<g id="a_Node000009"><a xlink:href="../../dc/d57/class_a_v_r_software_s_p_i_output.html#abada62794ed922c2798bf462a98b57f0" target="_top" xlink:title="Write multiple bytes of the given value over SPI, without selecting the interface.">
<polygon fill="white" stroke="#666666" points="316.25,-85.5 190,-85.5 190,-52 316.25,-52 316.25,-85.5"/>
<text text-anchor="start" x="198" y="-72" font-family="Helvetica,sans-Serif" font-size="10.00">AVRSoftwareSPIOutput</text>
<text text-anchor="middle" x="253.12" y="-59.25" font-family="Helvetica,sans-Serif" font-size="10.00">::writeBytesValueRaw</text>
</a>
</g>
</g>
<!-- Node1&#45;&gt;Node9 -->
<g id="edge8_Node000001_Node000009" class="edge">
<title>Node1&#45;&gt;Node9</title>
<g id="a_edge8_Node000001_Node000009"><a xlink:title=" ">
<path fill="none" stroke="#63b8ff" d="M365.32,-125.39C351.39,-115.71 333.27,-103.81 316.25,-94.75 310.47,-91.67 304.25,-88.7 298.05,-85.93"/>
<polygon fill="#63b8ff" stroke="#63b8ff" points="363.23,-128.2 373.41,-131.11 367.26,-122.48 363.23,-128.2"/>
</a>
</g>
</g>
<!-- Node12 -->
<g id="Node000012" class="node">
<title>Node12</title>
<g id="a_Node000012"><a xlink:href="../../dc/d57/class_a_v_r_software_s_p_i_output.html#a20772a8fdfa75015731375c36ccb3515" target="_top" xlink:title="Write LED pixel data to the SPI interface.">
<polygon fill="white" stroke="#666666" points="316.25,-33.5 190,-33.5 190,0 316.25,0 316.25,-33.5"/>
<text text-anchor="start" x="198" y="-20" font-family="Helvetica,sans-Serif" font-size="10.00">AVRSoftwareSPIOutput</text>
<text text-anchor="middle" x="253.12" y="-7.25" font-family="Helvetica,sans-Serif" font-size="10.00">::writePixels</text>
</a>
</g>
</g>
<!-- Node1&#45;&gt;Node12 -->
<g id="edge11_Node000001_Node000012" class="edge">
<title>Node1&#45;&gt;Node12</title>
<g id="a_edge11_Node000001_Node000012"><a xlink:title=" ">
<path fill="none" stroke="#63b8ff" d="M378.52,-121.85C366.16,-99.6 343.96,-64.63 316.25,-42.75 312.12,-39.49 307.52,-36.57 302.75,-33.98"/>
<polygon fill="#63b8ff" stroke="#63b8ff" points="375.39,-123.43 383.2,-130.59 381.56,-120.12 375.39,-123.43"/>
</a>
</g>
</g>
<!-- Node3 -->
<g id="Node000003" class="node">
<title>Node3</title>
<g id="a_Node000003"><a xlink:href="../../dc/d57/class_a_v_r_software_s_p_i_output.html#aa56bb71129c578ab2439b12c4605380f" target="_top" xlink:title="The version of writeBit() to use when clock and data are on separate pins with precomputed values for...">
<polygon fill="white" stroke="#666666" points="140.12,-286.5 13.88,-286.5 13.88,-253 140.12,-253 140.12,-286.5"/>
<text text-anchor="start" x="21.88" y="-273" font-family="Helvetica,sans-Serif" font-size="10.00">AVRSoftwareSPIOutput</text>
<text text-anchor="middle" x="77" y="-260.25" font-family="Helvetica,sans-Serif" font-size="10.00">::writeBit</text>
</a>
</g>
</g>
<!-- Node2&#45;&gt;Node3 -->
<g id="edge2_Node000002_Node000003" class="edge">
<title>Node2&#45;&gt;Node3</title>
<g id="a_edge2_Node000002_Node000003"><a xlink:title=" ">
<path fill="none" stroke="#63b8ff" d="M196.6,-252.04C178.7,-254.71 158.74,-257.69 140.37,-260.44"/>
<polygon fill="#63b8ff" stroke="#63b8ff" points="196.86,-255.54 206.24,-250.6 195.83,-248.62 196.86,-255.54"/>
</a>
</g>
</g>
<!-- Node4 -->
<g id="Node000004" class="node">
<title>Node4</title>
<g id="a_Node000004"><a xlink:href="../../dc/d57/class_a_v_r_software_s_p_i_output.html#a4c5578242dfaf8d6713ec432d6985187" target="_top" xlink:title="The version of writeBit() to use when clock and data are on the same port with precomputed values for...">
<polygon fill="white" stroke="#666666" points="140.12,-234.5 13.88,-234.5 13.88,-201 140.12,-201 140.12,-234.5"/>
<text text-anchor="start" x="21.88" y="-221" font-family="Helvetica,sans-Serif" font-size="10.00">AVRSoftwareSPIOutput</text>
<text text-anchor="middle" x="77" y="-208.25" font-family="Helvetica,sans-Serif" font-size="10.00">::writeBit</text>
</a>
</g>
</g>
<!-- Node2&#45;&gt;Node4 -->
<g id="edge3_Node000002_Node000004" class="edge">
<title>Node2&#45;&gt;Node4</title>
<g id="a_edge3_Node000002_Node000004"><a xlink:title=" ">
<path fill="none" stroke="#63b8ff" d="M196.6,-235.46C178.7,-232.79 158.74,-229.81 140.37,-227.06"/>
<polygon fill="#63b8ff" stroke="#63b8ff" points="195.83,-238.88 206.24,-236.9 196.86,-231.96 195.83,-238.88"/>
</a>
</g>
</g>
<!-- Node8 -->
<g id="Node000008" class="node">
<title>Node8</title>
<g id="a_Node000008"><a xlink:href="../../dc/d57/class_a_v_r_software_s_p_i_output.html#a8e0f5d9fd6f2c1e1eab4436c1b5cb23a" target="_top" xlink:title="Write an array of data to the SPI interface.">
<polygon fill="white" stroke="#666666" points="140.12,-137.5 13.88,-137.5 13.88,-104 140.12,-104 140.12,-137.5"/>
<text text-anchor="start" x="21.88" y="-124" font-family="Helvetica,sans-Serif" font-size="10.00">AVRSoftwareSPIOutput</text>
<text text-anchor="middle" x="77" y="-111.25" font-family="Helvetica,sans-Serif" font-size="10.00">::writeBytes</text>
</a>
</g>
</g>
<!-- Node7&#45;&gt;Node8 -->
<g id="edge7_Node000007_Node000008" class="edge">
<title>Node7&#45;&gt;Node8</title>
<g id="a_edge7_Node000007_Node000008"><a xlink:title=" ">
<path fill="none" stroke="#63b8ff" d="M178.33,-120.75C165.75,-120.75 152.78,-120.75 140.52,-120.75"/>
<polygon fill="#63b8ff" stroke="#63b8ff" points="178.24,-124.25 188.24,-120.75 178.24,-117.25 178.24,-124.25"/>
</a>
</g>
</g>
<!-- Node10 -->
<g id="Node000010" class="node">
<title>Node10</title>
<g id="a_Node000010"><a xlink:href="../../df/d0d/group___clocked_chipsets.html#a8e402dc154857e5c6b62bffe0372e856" target="_top" xlink:title=" ">
<polygon fill="white" stroke="#666666" points="154,-85.5 0,-85.5 0,-52 154,-52 154,-85.5"/>
<text text-anchor="start" x="8" y="-72" font-family="Helvetica,sans-Serif" font-size="10.00">LPD8806Controller::</text>
<text text-anchor="middle" x="77" y="-59.25" font-family="Helvetica,sans-Serif" font-size="10.00">LPD8806_ADJUST::postBlock</text>
</a>
</g>
</g>
<!-- Node9&#45;&gt;Node10 -->
<g id="edge9_Node000009_Node000010" class="edge">
<title>Node9&#45;&gt;Node10</title>
<g id="a_edge9_Node000009_Node000010"><a xlink:title=" ">
<path fill="none" stroke="#63b8ff" d="M178.25,-68.75C170.3,-68.75 162.2,-68.75 154.23,-68.75"/>
<polygon fill="#63b8ff" stroke="#63b8ff" points="178.24,-72.25 188.24,-68.75 178.24,-65.25 178.24,-72.25"/>
</a>
</g>
</g>
<!-- Node11 -->
<g id="Node000011" class="node">
<title>Node11</title>
<g id="a_Node000011"><a xlink:href="../../dc/d57/class_a_v_r_software_s_p_i_output.html#ac4ffa7160697ac63bbd7734b480308bc" target="_top" xlink:title="Write multiple bytes of the given value over SPI.">
<polygon fill="white" stroke="#666666" points="140.12,-33.5 13.88,-33.5 13.88,0 140.12,0 140.12,-33.5"/>
<text text-anchor="start" x="21.88" y="-20" font-family="Helvetica,sans-Serif" font-size="10.00">AVRSoftwareSPIOutput</text>
<text text-anchor="middle" x="77" y="-7.25" font-family="Helvetica,sans-Serif" font-size="10.00">::writeBytesValue</text>
</a>
</g>
</g>
<!-- Node9&#45;&gt;Node11 -->
<g id="edge10_Node000009_Node000011" class="edge">
<title>Node9&#45;&gt;Node11</title>
<g id="a_edge10_Node000009_Node000011"><a xlink:title=" ">
<path fill="none" stroke="#63b8ff" d="M183.79,-48.34C167.89,-43.6 151.12,-38.59 135.73,-33.99"/>
<polygon fill="#63b8ff" stroke="#63b8ff" points="182.59,-51.64 193.18,-51.15 184.6,-44.93 182.59,-51.64"/>
</a>
</g>
</g>
</g>
</svg>
