<?xml version="1.0" encoding="UTF-8" standalone="no"?>
<!DOCTYPE svg PUBLIC "-//W3C//DTD SVG 1.1//EN"
 "http://www.w3.org/Graphics/SVG/1.1/DTD/svg11.dtd">
<!-- Generated by graphviz version 12.2.1 (20241206.2353)
 -->
<!-- Title: FastPin::fastset Pages: 1 -->
<svg width="261pt" height="94pt"
 viewBox="0.00 0.00 260.50 93.50" xmlns="http://www.w3.org/2000/svg" xmlns:xlink="http://www.w3.org/1999/xlink">
<g id="graph0" class="graph" transform="scale(1 1) rotate(0) translate(4 89.5)">
<title>FastPin::fastset</title>
<!-- Node1 -->
<g id="Node000001" class="node">
<title>Node1</title>
<g id="a_Node000001"><a xlink:title="Set the state of a port.">
<polygon fill="#999999" stroke="#666666" points="252.5,-53.12 162.25,-53.12 162.25,-32.38 252.5,-32.38 252.5,-53.12"/>
<text text-anchor="middle" x="207.38" y="-39.62" font-family="Helvetica,sans-Serif" font-size="10.00">FastPin::fastset</text>
</a>
</g>
</g>
<!-- Node2 -->
<g id="Node000002" class="node">
<title>Node2</title>
<g id="a_Node000002"><a xlink:href="../../dc/d57/class_a_v_r_software_s_p_i_output.html#aa56bb71129c578ab2439b12c4605380f" target="_top" xlink:title="The version of writeBit() to use when clock and data are on separate pins with precomputed values for...">
<polygon fill="white" stroke="#666666" points="126.25,-85.5 0,-85.5 0,-52 126.25,-52 126.25,-85.5"/>
<text text-anchor="start" x="8" y="-72" font-family="Helvetica,sans-Serif" font-size="10.00">AVRSoftwareSPIOutput</text>
<text text-anchor="middle" x="63.12" y="-59.25" font-family="Helvetica,sans-Serif" font-size="10.00">::writeBit</text>
</a>
</g>
</g>
<!-- Node1&#45;&gt;Node2 -->
<g id="edge1_Node000001_Node000002" class="edge">
<title>Node1&#45;&gt;Node2</title>
<g id="a_edge1_Node000001_Node000002"><a xlink:title=" ">
<path fill="none" stroke="#63b8ff" d="M150.49,-52.96C142.64,-54.4 134.53,-55.88 126.56,-57.34"/>
<polygon fill="#63b8ff" stroke="#63b8ff" points="151.06,-56.42 160.27,-51.18 149.8,-49.53 151.06,-56.42"/>
</a>
</g>
</g>
<!-- Node3 -->
<g id="Node000003" class="node">
<title>Node3</title>
<g id="a_Node000003"><a xlink:href="../../dc/d57/class_a_v_r_software_s_p_i_output.html#a4c5578242dfaf8d6713ec432d6985187" target="_top" xlink:title="The version of writeBit() to use when clock and data are on the same port with precomputed values for...">
<polygon fill="white" stroke="#666666" points="126.25,-33.5 0,-33.5 0,0 126.25,0 126.25,-33.5"/>
<text text-anchor="start" x="8" y="-20" font-family="Helvetica,sans-Serif" font-size="10.00">AVRSoftwareSPIOutput</text>
<text text-anchor="middle" x="63.12" y="-7.25" font-family="Helvetica,sans-Serif" font-size="10.00">::writeBit</text>
</a>
</g>
</g>
<!-- Node1&#45;&gt;Node3 -->
<g id="edge2_Node000001_Node000003" class="edge">
<title>Node1&#45;&gt;Node3</title>
<g id="a_edge2_Node000001_Node000003"><a xlink:title=" ">
<path fill="none" stroke="#63b8ff" d="M150.49,-32.54C142.64,-31.1 134.53,-29.62 126.56,-28.16"/>
<polygon fill="#63b8ff" stroke="#63b8ff" points="149.8,-35.97 160.27,-34.32 151.06,-29.08 149.8,-35.97"/>
</a>
</g>
</g>
</g>
</svg>
