<?xml version="1.0" encoding="UTF-8" standalone="no"?>
<!DOCTYPE svg PUBLIC "-//W3C//DTD SVG 1.1//EN"
 "http://www.w3.org/Graphics/SVG/1.1/DTD/svg11.dtd">
<!-- Generated by graphviz version 12.2.1 (20241206.2353)
 -->
<!-- Title: FastPin::hival Pages: 1 -->
<svg width="441pt" height="146pt"
 viewBox="0.00 0.00 440.75 145.50" xmlns="http://www.w3.org/2000/svg" xmlns:xlink="http://www.w3.org/1999/xlink">
<g id="graph0" class="graph" transform="scale(1 1) rotate(0) translate(4 141.5)">
<title>FastPin::hival</title>
<!-- Node1 -->
<g id="Node000001" class="node">
<title>Node1</title>
<g id="a_Node000001"><a xlink:title="Gets the state of the port with this pin HIGH">
<polygon fill="#999999" stroke="#666666" points="432.75,-79.12 352.25,-79.12 352.25,-58.38 432.75,-58.38 432.75,-79.12"/>
<text text-anchor="middle" x="392.5" y="-65.62" font-family="Helvetica,sans-Serif" font-size="10.00">FastPin::hival</text>
</a>
</g>
</g>
<!-- Node2 -->
<g id="Node000002" class="node">
<title>Node2</title>
<g id="a_Node000002"><a xlink:href="../../dc/d57/class_a_v_r_software_s_p_i_output.html#af543930d08c9ce5c8229e45be97980e9" target="_top" xlink:title="Write an array of data to the SPI interface.">
<polygon fill="white" stroke="#666666" points="316.25,-137.5 190,-137.5 190,-104 316.25,-104 316.25,-137.5"/>
<text text-anchor="start" x="198" y="-124" font-family="Helvetica,sans-Serif" font-size="10.00">AVRSoftwareSPIOutput</text>
<text text-anchor="middle" x="253.12" y="-111.25" font-family="Helvetica,sans-Serif" font-size="10.00">::writeBytes</text>
</a>
</g>
</g>
<!-- Node1&#45;&gt;Node2 -->
<g id="edge1_Node000001_Node000002" class="edge">
<title>Node1&#45;&gt;Node2</title>
<g id="a_edge1_Node000001_Node000002"><a xlink:title=" ">
<path fill="none" stroke="#63b8ff" d="M352.65,-83.46C336.13,-89.71 316.76,-97.04 299.59,-103.54"/>
<polygon fill="#63b8ff" stroke="#63b8ff" points="353.51,-86.87 361.62,-80.06 351.03,-80.33 353.51,-86.87"/>
</a>
</g>
</g>
<!-- Node4 -->
<g id="Node000004" class="node">
<title>Node4</title>
<g id="a_Node000004"><a xlink:href="../../dc/d57/class_a_v_r_software_s_p_i_output.html#abada62794ed922c2798bf462a98b57f0" target="_top" xlink:title="Write multiple bytes of the given value over SPI, without selecting the interface.">
<polygon fill="white" stroke="#666666" points="316.25,-85.5 190,-85.5 190,-52 316.25,-52 316.25,-85.5"/>
<text text-anchor="start" x="198" y="-72" font-family="Helvetica,sans-Serif" font-size="10.00">AVRSoftwareSPIOutput</text>
<text text-anchor="middle" x="253.12" y="-59.25" font-family="Helvetica,sans-Serif" font-size="10.00">::writeBytesValueRaw</text>
</a>
</g>
</g>
<!-- Node1&#45;&gt;Node4 -->
<g id="edge3_Node000001_Node000004" class="edge">
<title>Node1&#45;&gt;Node4</title>
<g id="a_edge3_Node000001_Node000004"><a xlink:title=" ">
<path fill="none" stroke="#63b8ff" d="M340.31,-68.75C332.56,-68.75 324.5,-68.75 316.55,-68.75"/>
<polygon fill="#63b8ff" stroke="#63b8ff" points="340.25,-72.25 350.25,-68.75 340.25,-65.25 340.25,-72.25"/>
</a>
</g>
</g>
<!-- Node7 -->
<g id="Node000007" class="node">
<title>Node7</title>
<g id="a_Node000007"><a xlink:href="../../dc/d57/class_a_v_r_software_s_p_i_output.html#a20772a8fdfa75015731375c36ccb3515" target="_top" xlink:title="Write LED pixel data to the SPI interface.">
<polygon fill="white" stroke="#666666" points="316.25,-33.5 190,-33.5 190,0 316.25,0 316.25,-33.5"/>
<text text-anchor="start" x="198" y="-20" font-family="Helvetica,sans-Serif" font-size="10.00">AVRSoftwareSPIOutput</text>
<text text-anchor="middle" x="253.12" y="-7.25" font-family="Helvetica,sans-Serif" font-size="10.00">::writePixels</text>
</a>
</g>
</g>
<!-- Node1&#45;&gt;Node7 -->
<g id="edge6_Node000001_Node000007" class="edge">
<title>Node1&#45;&gt;Node7</title>
<g id="a_edge6_Node000001_Node000007"><a xlink:title=" ">
<path fill="none" stroke="#63b8ff" d="M352.65,-54.04C336.13,-47.79 316.76,-40.46 299.59,-33.96"/>
<polygon fill="#63b8ff" stroke="#63b8ff" points="351.03,-57.17 361.62,-57.44 353.51,-50.63 351.03,-57.17"/>
</a>
</g>
</g>
<!-- Node3 -->
<g id="Node000003" class="node">
<title>Node3</title>
<g id="a_Node000003"><a xlink:href="../../dc/d57/class_a_v_r_software_s_p_i_output.html#a8e0f5d9fd6f2c1e1eab4436c1b5cb23a" target="_top" xlink:title="Write an array of data to the SPI interface.">
<polygon fill="white" stroke="#666666" points="140.12,-137.5 13.88,-137.5 13.88,-104 140.12,-104 140.12,-137.5"/>
<text text-anchor="start" x="21.88" y="-124" font-family="Helvetica,sans-Serif" font-size="10.00">AVRSoftwareSPIOutput</text>
<text text-anchor="middle" x="77" y="-111.25" font-family="Helvetica,sans-Serif" font-size="10.00">::writeBytes</text>
</a>
</g>
</g>
<!-- Node2&#45;&gt;Node3 -->
<g id="edge2_Node000002_Node000003" class="edge">
<title>Node2&#45;&gt;Node3</title>
<g id="a_edge2_Node000002_Node000003"><a xlink:title=" ">
<path fill="none" stroke="#63b8ff" d="M178.33,-120.75C165.75,-120.75 152.78,-120.75 140.52,-120.75"/>
<polygon fill="#63b8ff" stroke="#63b8ff" points="178.24,-124.25 188.24,-120.75 178.24,-117.25 178.24,-124.25"/>
</a>
</g>
</g>
<!-- Node5 -->
<g id="Node000005" class="node">
<title>Node5</title>
<g id="a_Node000005"><a xlink:href="../../df/d0d/group___clocked_chipsets.html#a8e402dc154857e5c6b62bffe0372e856" target="_top" xlink:title=" ">
<polygon fill="white" stroke="#666666" points="154,-85.5 0,-85.5 0,-52 154,-52 154,-85.5"/>
<text text-anchor="start" x="8" y="-72" font-family="Helvetica,sans-Serif" font-size="10.00">LPD8806Controller::</text>
<text text-anchor="middle" x="77" y="-59.25" font-family="Helvetica,sans-Serif" font-size="10.00">LPD8806_ADJUST::postBlock</text>
</a>
</g>
</g>
<!-- Node4&#45;&gt;Node5 -->
<g id="edge4_Node000004_Node000005" class="edge">
<title>Node4&#45;&gt;Node5</title>
<g id="a_edge4_Node000004_Node000005"><a xlink:title=" ">
<path fill="none" stroke="#63b8ff" d="M178.25,-68.75C170.3,-68.75 162.2,-68.75 154.23,-68.75"/>
<polygon fill="#63b8ff" stroke="#63b8ff" points="178.24,-72.25 188.24,-68.75 178.24,-65.25 178.24,-72.25"/>
</a>
</g>
</g>
<!-- Node6 -->
<g id="Node000006" class="node">
<title>Node6</title>
<g id="a_Node000006"><a xlink:href="../../dc/d57/class_a_v_r_software_s_p_i_output.html#ac4ffa7160697ac63bbd7734b480308bc" target="_top" xlink:title="Write multiple bytes of the given value over SPI.">
<polygon fill="white" stroke="#666666" points="140.12,-33.5 13.88,-33.5 13.88,0 140.12,0 140.12,-33.5"/>
<text text-anchor="start" x="21.88" y="-20" font-family="Helvetica,sans-Serif" font-size="10.00">AVRSoftwareSPIOutput</text>
<text text-anchor="middle" x="77" y="-7.25" font-family="Helvetica,sans-Serif" font-size="10.00">::writeBytesValue</text>
</a>
</g>
</g>
<!-- Node4&#45;&gt;Node6 -->
<g id="edge5_Node000004_Node000006" class="edge">
<title>Node4&#45;&gt;Node6</title>
<g id="a_edge5_Node000004_Node000006"><a xlink:title=" ">
<path fill="none" stroke="#63b8ff" d="M183.79,-48.34C167.89,-43.6 151.12,-38.59 135.73,-33.99"/>
<polygon fill="#63b8ff" stroke="#63b8ff" points="182.59,-51.64 193.18,-51.15 184.6,-44.93 182.59,-51.64"/>
</a>
</g>
</g>
</g>
</svg>
