<?xml version="1.0" encoding="UTF-8" standalone="no"?>
<!DOCTYPE svg PUBLIC "-//W3C//DTD SVG 1.1//EN"
 "http://www.w3.org/Graphics/SVG/1.1/DTD/svg11.dtd">
<!-- Generated by graphviz version 12.2.1 (20241206.2353)
 -->
<!-- Title: WS2811_400&lt; DATA_PIN, RGB_ORDER &gt; Pages: 1 -->
<svg width="856pt" height="125pt"
 viewBox="0.00 0.00 856.25 124.62" xmlns="http://www.w3.org/2000/svg" xmlns:xlink="http://www.w3.org/1999/xlink">
<g id="graph0" class="graph" transform="scale(1 1) rotate(0) translate(4 120.62)">
<title>WS2811_400&lt; DATA_PIN, RGB_ORDER &gt;</title>
<!-- Node1 -->
<g id="Node000001" class="node">
<title>Node1</title>
<g id="a_Node000001"><a xlink:title="WS2811_400 controller class.">
<polygon fill="#999999" stroke="#666666" points="848.25,-71.88 707.75,-71.88 707.75,-38.38 848.25,-38.38 848.25,-71.88"/>
<text text-anchor="start" x="715.75" y="-58.38" font-family="Helvetica,sans-Serif" font-size="10.00">WS2811_400&lt; DATA_PIN,</text>
<text text-anchor="middle" x="778" y="-45.62" font-family="Helvetica,sans-Serif" font-size="10.00"> RGB_ORDER &gt;</text>
</a>
</g>
</g>
<!-- Node2 -->
<g id="Node000002" class="node">
<title>Node2</title>
<g id="a_Node000002"><a xlink:href="../../d7/d6f/group___clockless_chipsets.html" target="_top" xlink:title=" ">
<polygon fill="white" stroke="#666666" points="670.75,-71.88 518.25,-71.88 518.25,-38.38 670.75,-38.38 670.75,-71.88"/>
<text text-anchor="start" x="526.25" y="-58.38" font-family="Helvetica,sans-Serif" font-size="10.00">WS2811Controller400Khz</text>
<text text-anchor="middle" x="594.5" y="-45.62" font-family="Helvetica,sans-Serif" font-size="10.00">&lt; DATA_PIN, RGB_ORDER &gt;</text>
</a>
</g>
</g>
<!-- Node2&#45;&gt;Node1 -->
<g id="edge1_Node000001_Node000002" class="edge">
<title>Node2&#45;&gt;Node1</title>
<g id="a_edge1_Node000001_Node000002"><a xlink:title=" ">
<path fill="none" stroke="#63b8ff" d="M682.45,-55.12C690.78,-55.12 699.14,-55.12 707.27,-55.12"/>
<polygon fill="#63b8ff" stroke="#63b8ff" points="682.67,-51.63 672.67,-55.13 682.67,-58.63 682.67,-51.63"/>
</a>
</g>
</g>
<!-- Node3 -->
<g id="Node000003" class="node">
<title>Node3</title>
<g id="a_Node000003"><a xlink:title=" ">
<polygon fill="white" stroke="#666666" points="337.5,-116.62 195.5,-116.62 195.5,-57.62 337.5,-57.62 337.5,-116.62"/>
<text text-anchor="start" x="203.5" y="-103.12" font-family="Helvetica,sans-Serif" font-size="10.00">ClocklessController</text>
<text text-anchor="start" x="203.5" y="-90.38" font-family="Helvetica,sans-Serif" font-size="10.00">&lt; DATA_PIN, 4 *FMUL,</text>
<text text-anchor="start" x="203.5" y="-77.62" font-family="Helvetica,sans-Serif" font-size="10.00"> 10 *FMUL, 6 *FMUL, RGB</text>
<text text-anchor="middle" x="266.5" y="-64.88" font-family="Helvetica,sans-Serif" font-size="10.00">_ORDER &gt;</text>
</a>
</g>
</g>
<!-- Node3&#45;&gt;Node2 -->
<g id="edge2_Node000002_Node000003" class="edge">
<title>Node3&#45;&gt;Node2</title>
<g id="a_edge2_Node000002_Node000003"><a xlink:title=" ">
<path fill="none" stroke="#63b8ff" d="M348.98,-79.13C400.75,-74.05 467.3,-67.51 517.89,-62.55"/>
<polygon fill="#63b8ff" stroke="#63b8ff" points="348.95,-75.61 339.34,-80.07 349.64,-82.58 348.95,-75.61"/>
</a>
</g>
</g>
<!-- Node4 -->
<g id="Node000004" class="node">
<title>Node4</title>
<g id="a_Node000004"><a xlink:href="../../d7/d6f/group___clockless_chipsets.html#da/d69/class_w_s2811_controller400_khz" target="_top" xlink:title="WS2811 controller class @ 400 KHz.">
<polygon fill="white" stroke="#666666" points="342.75,-39.88 190.25,-39.88 190.25,-6.38 342.75,-6.38 342.75,-39.88"/>
<text text-anchor="start" x="198.25" y="-26.38" font-family="Helvetica,sans-Serif" font-size="10.00">WS2811Controller400Khz</text>
<text text-anchor="middle" x="266.5" y="-13.62" font-family="Helvetica,sans-Serif" font-size="10.00">&lt; DATA_PIN, RGB_ORDER &gt;</text>
</a>
</g>
</g>
<!-- Node4&#45;&gt;Node2 -->
<g id="edge3_Node000002_Node000004" class="edge">
<title>Node4&#45;&gt;Node2</title>
<g id="a_edge3_Node000002_Node000004"><a xlink:title=" ">
<path fill="none" stroke="orange" stroke-dasharray="5,2" d="M354.44,-31.66C405.41,-36.66 469.17,-42.92 518.02,-47.72"/>
<polygon fill="orange" stroke="orange" points="354.91,-28.19 344.62,-30.69 354.23,-35.15 354.91,-28.19"/>
</a>
</g>
<text text-anchor="middle" x="430.5" y="-48.92" font-family="Helvetica,sans-Serif" font-size="10.00" fill="grey"> &lt; DATA_PIN, RGB_ORDER &gt;</text>
</g>
<!-- Node5 -->
<g id="Node000005" class="node">
<title>Node5</title>
<g id="a_Node000005"><a xlink:title=" ">
<polygon fill="white" stroke="#666666" points="153.25,-46.25 0,-46.25 0,0 153.25,0 153.25,-46.25"/>
<text text-anchor="start" x="8" y="-32.75" font-family="Helvetica,sans-Serif" font-size="10.00">ClocklessController</text>
<text text-anchor="start" x="8" y="-20" font-family="Helvetica,sans-Serif" font-size="10.00">&lt; DATA_PIN, 4 *FMUL,</text>
<text text-anchor="middle" x="76.62" y="-7.25" font-family="Helvetica,sans-Serif" font-size="10.00"> 10 *FMUL, 6 *FMUL, GRB &gt;</text>
</a>
</g>
</g>
<!-- Node5&#45;&gt;Node4 -->
<g id="edge4_Node000004_Node000005" class="edge">
<title>Node5&#45;&gt;Node4</title>
<g id="a_edge4_Node000004_Node000005"><a xlink:title=" ">
<path fill="none" stroke="#63b8ff" d="M164.86,-23.12C173.24,-23.12 181.7,-23.12 189.95,-23.12"/>
<polygon fill="#63b8ff" stroke="#63b8ff" points="165.01,-19.63 155.01,-23.13 165.01,-26.63 165.01,-19.63"/>
</a>
</g>
</g>
</g>
</svg>
