<?xml version="1.0" encoding="UTF-8" standalone="no"?>
<!DOCTYPE svg PUBLIC "-//W3C//DTD SVG 1.1//EN"
 "http://www.w3.org/Graphics/SVG/1.1/DTD/svg11.dtd">
<!-- Generated by graphviz version 12.2.1 (20241206.2353)
 -->
<!-- Title: fl::DigitalPinImpl Pages: 1 -->
<svg width="513pt" height="238pt"
 viewBox="0.00 0.00 512.50 238.25" xmlns="http://www.w3.org/2000/svg" xmlns:xlink="http://www.w3.org/1999/xlink">
<g id="graph0" class="graph" transform="scale(1 1) rotate(0) translate(4 234.25)">
<title>fl::DigitalPinImpl</title>
<!-- Node1 -->
<g id="Node000001" class="node">
<title>Node1</title>
<g id="a_Node000001"><a xlink:title=" ">
<polygon fill="#999999" stroke="#666666" points="302,-96.62 205,-96.62 205,-75.88 302,-75.88 302,-96.62"/>
<text text-anchor="middle" x="253.5" y="-83.12" font-family="Helvetica,sans-Serif" font-size="10.00">fl::DigitalPinImpl</text>
</a>
</g>
</g>
<!-- Node2 -->
<g id="Node000002" class="node">
<title>Node2</title>
<g id="a_Node000002"><a xlink:href="../../d6/d16/classfl_1_1_referent.html" target="_top" xlink:title=" ">
<polygon fill="white" stroke="#666666" points="168.5,-172.5 98.5,-172.5 98.5,-151.75 168.5,-151.75 168.5,-172.5"/>
<text text-anchor="middle" x="133.5" y="-159" font-family="Helvetica,sans-Serif" font-size="10.00">fl::Referent</text>
</a>
</g>
</g>
<!-- Node2&#45;&gt;Node1 -->
<g id="edge1_Node000001_Node000002" class="edge">
<title>Node2&#45;&gt;Node1</title>
<g id="a_edge1_Node000001_Node000002"><a xlink:title=" ">
<path fill="none" stroke="#63b8ff" d="M158.98,-145.44C182.85,-130.74 217.77,-109.24 237.81,-96.91"/>
<polygon fill="#63b8ff" stroke="#63b8ff" points="157.16,-142.45 150.48,-150.67 160.83,-148.41 157.16,-142.45"/>
</a>
</g>
</g>
<!-- Node6 -->
<g id="Node000006" class="node">
<title>Node6</title>
<g id="a_Node000006"><a xlink:href="../../dd/da7/classfl_1_1_weak_referent.html" target="_top" xlink:title=" ">
<polygon fill="white" stroke="#666666" points="97,-96.62 0,-96.62 0,-75.88 97,-75.88 97,-96.62"/>
<text text-anchor="middle" x="48.5" y="-83.12" font-family="Helvetica,sans-Serif" font-size="10.00">fl::WeakReferent</text>
</a>
</g>
</g>
<!-- Node2&#45;&gt;Node6 -->
<g id="edge5_Node000006_Node000002" class="edge">
<title>Node2&#45;&gt;Node6</title>
<g id="a_edge5_Node000006_Node000002"><a xlink:title=" ">
<path fill="none" stroke="#9a32cd" stroke-dasharray="5,2" d="M87.85,-149.35C79.34,-145.49 71.13,-140.41 64.75,-133.75 55.05,-123.62 51.11,-107.39 49.53,-97.03"/>
<polygon fill="#9a32cd" stroke="#9a32cd" points="86.29,-152.49 96.88,-152.92 88.86,-145.98 86.29,-152.49"/>
</a>
</g>
<text text-anchor="middle" x="92.12" y="-124.25" font-family="Helvetica,sans-Serif" font-size="10.00" fill="grey"> mReferent</text>
</g>
<!-- Node3 -->
<g id="Node000003" class="node">
<title>Node3</title>
<g id="a_Node000003"><a xlink:href="../../d1/d56/classfl_1_1_ptr.html" target="_top" xlink:title=" ">
<polygon fill="white" stroke="#666666" points="323,-20.75 178,-20.75 178,0 323,0 323,-20.75"/>
<text text-anchor="middle" x="250.5" y="-7.25" font-family="Helvetica,sans-Serif" font-size="10.00">fl::Ptr&lt; fl::WeakReferent &gt;</text>
</a>
</g>
</g>
<!-- Node3&#45;&gt;Node2 -->
<g id="edge2_Node000002_Node000003" class="edge">
<title>Node3&#45;&gt;Node2</title>
<g id="a_edge2_Node000002_Node000003"><a xlink:title=" ">
<path fill="none" stroke="#9a32cd" stroke-dasharray="5,2" d="M204,-25.21C181.97,-34.22 157.43,-48.33 143.25,-69.5 126.25,-94.89 129.19,-133.4 131.78,-151.31"/>
<polygon fill="#9a32cd" stroke="#9a32cd" points="205.04,-28.56 213.14,-21.73 202.55,-22.02 205.04,-28.56"/>
</a>
</g>
<text text-anchor="middle" x="169.88" y="-83.12" font-family="Helvetica,sans-Serif" font-size="10.00" fill="grey"> mWeakPtr</text>
</g>
<!-- Node4 -->
<g id="Node000004" class="node">
<title>Node4</title>
<g id="a_Node000004"><a xlink:href="../../da/d84/classfl_1_1_ptr_traits.html" target="_top" xlink:title=" ">
<polygon fill="#fff0f0" stroke="red" points="416.62,-103 320.38,-103 320.38,-69.5 416.62,-69.5 416.62,-103"/>
<text text-anchor="start" x="328.38" y="-89.5" font-family="Helvetica,sans-Serif" font-size="10.00">fl::PtrTraits&lt; fl::</text>
<text text-anchor="middle" x="368.5" y="-76.75" font-family="Helvetica,sans-Serif" font-size="10.00">WeakReferent &gt;</text>
</a>
</g>
</g>
<!-- Node4&#45;&gt;Node3 -->
<g id="edge3_Node000003_Node000004" class="edge">
<title>Node4&#45;&gt;Node3</title>
<g id="a_edge3_Node000003_Node000004"><a xlink:title=" ">
<path fill="none" stroke="#63b8ff" d="M333.12,-63.1C310.85,-49.16 283.2,-31.85 266.2,-21.21"/>
<polygon fill="#63b8ff" stroke="#63b8ff" points="330.99,-65.89 341.32,-68.23 334.7,-59.96 330.99,-65.89"/>
</a>
</g>
</g>
<!-- Node6&#45;&gt;Node3 -->
<g id="edge4_Node000003_Node000006" class="edge">
<title>Node6&#45;&gt;Node3</title>
<g id="a_edge4_Node000003_Node000006"><a xlink:title=" ">
<path fill="none" stroke="#9a32cd" stroke-dasharray="5,2" d="M54.19,-64.77C57.84,-55.4 63.57,-45.02 72.25,-38.75 89.07,-26.61 136.22,-19.7 177.81,-15.86"/>
<polygon fill="#9a32cd" stroke="#9a32cd" points="50.87,-63.67 51.08,-74.27 57.52,-65.85 50.87,-63.67"/>
</a>
</g>
<text text-anchor="middle" x="95.88" y="-42" font-family="Helvetica,sans-Serif" font-size="10.00" fill="grey"> referent_</text>
</g>
<!-- Node7 -->
<g id="Node000007" class="node">
<title>Node7</title>
<g id="a_Node000007"><a xlink:href="../../d1/d56/classfl_1_1_ptr.html" target="_top" xlink:title=" ">
<polygon fill="#fff0f0" stroke="red" points="504.5,-96.62 434.5,-96.62 434.5,-75.88 504.5,-75.88 504.5,-96.62"/>
<text text-anchor="middle" x="469.5" y="-83.12" font-family="Helvetica,sans-Serif" font-size="10.00">fl::Ptr&lt; T &gt;</text>
</a>
</g>
</g>
<!-- Node7&#45;&gt;Node3 -->
<g id="edge6_Node000003_Node000007" class="edge">
<title>Node7&#45;&gt;Node3</title>
<g id="a_edge6_Node000003_Node000007"><a xlink:title=" ">
<path fill="none" stroke="orange" stroke-dasharray="5,2" d="M431.84,-71.7C429.69,-70.95 427.57,-70.21 425.5,-69.5 374.96,-52.06 315.89,-32.64 280.92,-21.24"/>
<polygon fill="orange" stroke="orange" points="430.52,-74.95 441.12,-74.98 432.85,-68.35 430.52,-74.95"/>
</a>
</g>
<text text-anchor="middle" x="421.13" y="-42" font-family="Helvetica,sans-Serif" font-size="10.00" fill="grey"> &lt; fl::WeakReferent &gt;</text>
</g>
<!-- Node9 -->
<g id="Node000009" class="node">
<title>Node9</title>
<g id="a_Node000009"><a xlink:href="../../d7/d68/class_pin.html" target="_top" xlink:title="Naive fallback solution for low level pin access.">
<polygon fill="white" stroke="#666666" points="269,-172.5 238,-172.5 238,-151.75 269,-151.75 269,-172.5"/>
<text text-anchor="middle" x="253.5" y="-159" font-family="Helvetica,sans-Serif" font-size="10.00">Pin</text>
</a>
</g>
</g>
<!-- Node9&#45;&gt;Node1 -->
<g id="edge7_Node000001_Node000009" class="edge">
<title>Node9&#45;&gt;Node1</title>
<g id="a_edge7_Node000001_Node000009"><a xlink:title=" ">
<path fill="none" stroke="#9a32cd" stroke-dasharray="5,2" d="M253.5,-140.2C253.5,-125.88 253.5,-107.58 253.5,-96.68"/>
<polygon fill="#9a32cd" stroke="#9a32cd" points="250,-139.95 253.5,-149.95 257,-139.95 250,-139.95"/>
</a>
</g>
<text text-anchor="middle" x="267.38" y="-124.25" font-family="Helvetica,sans-Serif" font-size="10.00" fill="grey"> mPin</text>
</g>
<!-- Node10 -->
<g id="Node000010" class="node">
<title>Node10</title>
<g id="a_Node000010"><a xlink:href="../../dd/da1/class_selectable.html" target="_top" xlink:title="Abstract class for &quot;selectable&quot; things.">
<polygon fill="white" stroke="#666666" points="287,-230.25 220,-230.25 220,-209.5 287,-209.5 287,-230.25"/>
<text text-anchor="middle" x="253.5" y="-216.75" font-family="Helvetica,sans-Serif" font-size="10.00">Selectable</text>
</a>
</g>
</g>
<!-- Node10&#45;&gt;Node9 -->
<g id="edge8_Node000009_Node000010" class="edge">
<title>Node10&#45;&gt;Node9</title>
<g id="a_edge8_Node000009_Node000010"><a xlink:title=" ">
<path fill="none" stroke="#63b8ff" d="M253.5,-197.93C253.5,-189.27 253.5,-179.65 253.5,-172.72"/>
<polygon fill="#63b8ff" stroke="#63b8ff" points="250,-197.65 253.5,-207.65 257,-197.65 250,-197.65"/>
</a>
</g>
</g>
</g>
</svg>
