<?xml version="1.0" encoding="UTF-8" standalone="no"?>
<!DOCTYPE svg PUBLIC "-//W3C//DTD SVG 1.1//EN"
 "http://www.w3.org/Graphics/SVG/1.1/DTD/svg11.dtd">
<!-- Generated by graphviz version 12.2.1 (20241206.2353)
 -->
<!-- Title: /home/runner/work/FastLED/FastLED/src/fl/screenmap.h Pages: 1 -->
<svg width="1963pt" height="510pt"
 viewBox="0.00 0.00 1963.00 509.50" xmlns="http://www.w3.org/2000/svg" xmlns:xlink="http://www.w3.org/1999/xlink">
<g id="graph0" class="graph" transform="scale(1 1) rotate(0) translate(4 505.5)">
<title>/home/runner/work/FastLED/FastLED/src/fl/screenmap.h</title>
<!-- Node1 -->
<g id="Node000001" class="node">
<title>Node1</title>
<g id="a_Node000001"><a xlink:title=" ">
<polygon fill="#999999" stroke="#666666" points="1128,-501.5 978.5,-501.5 978.5,-468 1128,-468 1128,-501.5"/>
<text text-anchor="start" x="986.5" y="-488" font-family="Helvetica,sans-Serif" font-size="10.00">/home/runner/work/FastLED</text>
<text text-anchor="middle" x="1053.25" y="-475.25" font-family="Helvetica,sans-Serif" font-size="10.00">/FastLED/src/fl/screenmap.h</text>
</a>
</g>
</g>
<!-- Node2 -->
<g id="Node000002" class="node">
<title>Node2</title>
<g id="a_Node000002"><a xlink:href="../../d1/ddb/_chromancer_8ino.html" target="_top" xlink:title=" ">
<polygon fill="white" stroke="#666666" points="170.5,-46.25 0,-46.25 0,0 170.5,0 170.5,-46.25"/>
<text text-anchor="start" x="8" y="-32.75" font-family="Helvetica,sans-Serif" font-size="10.00">/home/runner/work/FastLED</text>
<text text-anchor="start" x="8" y="-20" font-family="Helvetica,sans-Serif" font-size="10.00">/FastLED/examples/Chromancer</text>
<text text-anchor="middle" x="85.25" y="-7.25" font-family="Helvetica,sans-Serif" font-size="10.00">/Chromancer.ino</text>
</a>
</g>
</g>
<!-- Node1&#45;&gt;Node2 -->
<g id="edge1_Node000001_Node000002" class="edge">
<title>Node1&#45;&gt;Node2</title>
<g id="a_edge1_Node000001_Node000002"><a xlink:title=" ">
<path fill="none" stroke="#63b8ff" d="M966.78,-482.54C806.17,-479.43 468.06,-468.61 357.25,-432 274.86,-404.78 192.25,-414.4 192.25,-327.62 192.25,-327.62 192.25,-327.62 192.25,-167.5 192.25,-116.56 148.34,-72.05 116.77,-46.63"/>
<polygon fill="#63b8ff" stroke="#63b8ff" points="966.46,-486.03 976.52,-482.72 966.59,-479.03 966.46,-486.03"/>
</a>
</g>
</g>
<!-- Node3 -->
<g id="Node000003" class="node">
<title>Node3</title>
<g id="a_Node000003"><a xlink:href="../../d8/d2c/_fire2023_8ino.html" target="_top" xlink:title=" ">
<polygon fill="white" stroke="#666666" points="341.88,-46.25 188.62,-46.25 188.62,0 341.88,0 341.88,-46.25"/>
<text text-anchor="start" x="196.62" y="-32.75" font-family="Helvetica,sans-Serif" font-size="10.00">/home/runner/work/FastLED</text>
<text text-anchor="start" x="196.62" y="-20" font-family="Helvetica,sans-Serif" font-size="10.00">/FastLED/examples/Fire2023</text>
<text text-anchor="middle" x="265.25" y="-7.25" font-family="Helvetica,sans-Serif" font-size="10.00">/Fire2023.ino</text>
</a>
</g>
</g>
<!-- Node1&#45;&gt;Node3 -->
<g id="edge2_Node000001_Node000003" class="edge">
<title>Node1&#45;&gt;Node3</title>
<g id="a_edge2_Node000001_Node000003"><a xlink:title=" ">
<path fill="none" stroke="#63b8ff" d="M966.98,-482.52C825.37,-479.46 550.44,-468.82 461.25,-432 394.35,-404.39 336.25,-400 336.25,-327.62 336.25,-327.62 336.25,-327.62 336.25,-167.5 336.25,-120.56 305.31,-73.11 284.28,-46.28"/>
<polygon fill="#63b8ff" stroke="#63b8ff" points="966.6,-486.02 976.67,-482.72 966.75,-479.02 966.6,-486.02"/>
</a>
</g>
</g>
<!-- Node4 -->
<g id="Node000004" class="node">
<title>Node4</title>
<g id="a_Node000004"><a xlink:href="../../d3/dac/_fx_noise_ring_8ino.html" target="_top" xlink:title=" ">
<polygon fill="white" stroke="#666666" points="532.62,-46.25 359.88,-46.25 359.88,0 532.62,0 532.62,-46.25"/>
<text text-anchor="start" x="367.88" y="-32.75" font-family="Helvetica,sans-Serif" font-size="10.00">/home/runner/work/FastLED</text>
<text text-anchor="start" x="367.88" y="-20" font-family="Helvetica,sans-Serif" font-size="10.00">/FastLED/examples/FxNoiseRing</text>
<text text-anchor="middle" x="446.25" y="-7.25" font-family="Helvetica,sans-Serif" font-size="10.00">/FxNoiseRing.ino</text>
</a>
</g>
</g>
<!-- Node1&#45;&gt;Node4 -->
<g id="edge3_Node000001_Node000004" class="edge">
<title>Node1&#45;&gt;Node4</title>
<g id="a_edge3_Node000001_Node000004"><a xlink:title=" ">
<path fill="none" stroke="#63b8ff" d="M966.86,-483.11C838.65,-480.83 605.26,-471.24 532.25,-432 479.55,-403.68 447.25,-387.45 447.25,-327.62 447.25,-327.62 447.25,-327.62 447.25,-167.5 447.25,-124.69 446.8,-74.68 446.5,-46.48"/>
<polygon fill="#63b8ff" stroke="#63b8ff" points="966.61,-486.6 976.67,-483.27 966.72,-479.6 966.61,-486.6"/>
</a>
</g>
</g>
<!-- Node5 -->
<g id="Node000005" class="node">
<title>Node5</title>
<g id="a_Node000005"><a xlink:href="../../d7/d35/_fx_sd_card_8ino.html" target="_top" xlink:title=" ">
<polygon fill="white" stroke="#666666" points="708.12,-46.25 550.38,-46.25 550.38,0 708.12,0 708.12,-46.25"/>
<text text-anchor="start" x="558.38" y="-32.75" font-family="Helvetica,sans-Serif" font-size="10.00">/home/runner/work/FastLED</text>
<text text-anchor="start" x="558.38" y="-20" font-family="Helvetica,sans-Serif" font-size="10.00">/FastLED/examples/FxSdCard</text>
<text text-anchor="middle" x="629.25" y="-7.25" font-family="Helvetica,sans-Serif" font-size="10.00">/FxSdCard.ino</text>
</a>
</g>
</g>
<!-- Node1&#45;&gt;Node5 -->
<g id="edge4_Node000001_Node000005" class="edge">
<title>Node1&#45;&gt;Node5</title>
<g id="a_edge4_Node000001_Node000005"><a xlink:title=" ">
<path fill="none" stroke="#63b8ff" d="M967.12,-477.85C808.95,-464.65 488.25,-425.76 488.25,-327.62 488.25,-327.62 488.25,-327.62 488.25,-167.5 488.25,-112.17 542.3,-70.39 583.47,-46.6"/>
<polygon fill="#63b8ff" stroke="#63b8ff" points="966.46,-481.31 976.71,-478.64 967.03,-474.33 966.46,-481.31"/>
</a>
</g>
</g>
<!-- Node6 -->
<g id="Node000006" class="node">
<title>Node6</title>
<g id="a_Node000006"><a xlink:href="../../d9/d7e/_led_rope_t_c_l_8h.html" target="_top" xlink:title=" ">
<polygon fill="white" stroke="#666666" points="1227.62,-267.5 1024.88,-267.5 1024.88,-221.25 1227.62,-221.25 1227.62,-267.5"/>
<text text-anchor="start" x="1032.88" y="-254" font-family="Helvetica,sans-Serif" font-size="10.00">/home/runner/work/FastLED</text>
<text text-anchor="start" x="1032.88" y="-241.25" font-family="Helvetica,sans-Serif" font-size="10.00">/FastLED/examples/LuminescentGrand</text>
<text text-anchor="middle" x="1126.25" y="-228.5" font-family="Helvetica,sans-Serif" font-size="10.00">/arduino/LedRopeTCL.h</text>
</a>
</g>
</g>
<!-- Node1&#45;&gt;Node6 -->
<g id="edge5_Node000001_Node000006" class="edge">
<title>Node1&#45;&gt;Node6</title>
<g id="a_edge5_Node000001_Node000006"><a xlink:title=" ">
<path fill="none" stroke="#63b8ff" d="M1089.71,-461.26C1123.5,-438.07 1171.55,-398.46 1192.25,-349.75 1200.29,-330.83 1200.71,-322.23 1192.25,-303.5 1185.84,-289.31 1174.06,-277.2 1162.2,-267.76"/>
<polygon fill="#63b8ff" stroke="#63b8ff" points="1087.79,-458.34 1081.42,-466.8 1091.68,-464.16 1087.79,-458.34"/>
</a>
</g>
</g>
<!-- Node8 -->
<g id="Node000008" class="node">
<title>Node8</title>
<g id="a_Node000008"><a xlink:href="../../dc/d4d/_wasm_screen_coords_8ino.html" target="_top" xlink:title="Simple test for screen coordinates in the web compiled version of FastLED.">
<polygon fill="white" stroke="#666666" points="1508.25,-46.25 1300.25,-46.25 1300.25,0 1508.25,0 1508.25,-46.25"/>
<text text-anchor="start" x="1308.25" y="-32.75" font-family="Helvetica,sans-Serif" font-size="10.00">/home/runner/work/FastLED</text>
<text text-anchor="start" x="1308.25" y="-20" font-family="Helvetica,sans-Serif" font-size="10.00">/FastLED/examples/WasmScreenCoords</text>
<text text-anchor="middle" x="1404.25" y="-7.25" font-family="Helvetica,sans-Serif" font-size="10.00">/WasmScreenCoords.ino</text>
</a>
</g>
</g>
<!-- Node1&#45;&gt;Node8 -->
<g id="edge7_Node000001_Node000008" class="edge">
<title>Node1&#45;&gt;Node8</title>
<g id="a_edge7_Node000001_Node000008"><a xlink:title=" ">
<path fill="none" stroke="#63b8ff" d="M1113.43,-463.22C1130.83,-455.32 1148.96,-445 1163.25,-432 1291.59,-315.18 1372.09,-113.85 1396.42,-46.67"/>
<polygon fill="#63b8ff" stroke="#63b8ff" points="1112.49,-459.81 1104.69,-466.99 1115.26,-466.24 1112.49,-459.81"/>
</a>
</g>
</g>
<!-- Node9 -->
<g id="Node000009" class="node">
<title>Node9</title>
<g id="a_Node000009"><a xlink:href="../../db/d6d/cled__controller_8h.html" target="_top" xlink:title="base definitions used by led controllers for writing out led data">
<polygon fill="white" stroke="#666666" points="763.12,-343.38 605.38,-343.38 605.38,-309.88 763.12,-309.88 763.12,-343.38"/>
<text text-anchor="start" x="613.38" y="-329.88" font-family="Helvetica,sans-Serif" font-size="10.00">/home/runner/work/FastLED</text>
<text text-anchor="middle" x="684.25" y="-317.12" font-family="Helvetica,sans-Serif" font-size="10.00">/FastLED/src/cled_controller.h</text>
</a>
</g>
</g>
<!-- Node1&#45;&gt;Node9 -->
<g id="edge8_Node000001_Node000009" class="edge">
<title>Node1&#45;&gt;Node9</title>
<g id="a_edge8_Node000001_Node000009"><a xlink:title=" ">
<path fill="none" stroke="#63b8ff" d="M967.11,-465.58C933.7,-457.2 895.55,-445.98 862.25,-432 803.29,-407.25 740.01,-366.27 707.1,-343.73"/>
<polygon fill="#63b8ff" stroke="#63b8ff" points="966.23,-468.97 976.78,-467.95 967.9,-462.17 966.23,-468.97"/>
</a>
</g>
</g>
<!-- Node116 -->
<g id="Node000116" class="node">
<title>Node116</title>
<g id="a_Node000116"><a xlink:href="../../dc/dd9/fl_2engine__events_8h.html" target="_top" xlink:title=" ">
<polygon fill="white" stroke="#666666" points="1021,-432 871.5,-432 871.5,-385.75 1021,-385.75 1021,-432"/>
<text text-anchor="start" x="879.5" y="-418.5" font-family="Helvetica,sans-Serif" font-size="10.00">/home/runner/work/FastLED</text>
<text text-anchor="start" x="879.5" y="-405.75" font-family="Helvetica,sans-Serif" font-size="10.00">/FastLED/src/fl/engine</text>
<text text-anchor="middle" x="946.25" y="-393" font-family="Helvetica,sans-Serif" font-size="10.00">_events.h</text>
</a>
</g>
</g>
<!-- Node1&#45;&gt;Node116 -->
<g id="edge23_Node000001_Node000116" class="edge">
<title>Node1&#45;&gt;Node116</title>
<g id="a_edge23_Node000001_Node000116"><a xlink:title=" ">
<path fill="none" stroke="#63b8ff" d="M1020.58,-461.19C1007.39,-452.09 992.21,-441.6 979.01,-432.49"/>
<polygon fill="#63b8ff" stroke="#63b8ff" points="1018.31,-463.88 1028.52,-466.68 1022.28,-458.12 1018.31,-463.88"/>
</a>
</g>
</g>
<!-- Node119 -->
<g id="Node000119" class="node">
<title>Node119</title>
<g id="a_Node000119"><a xlink:href="../../d4/d37/file__system_8cpp.html" target="_top" xlink:title=" ">
<polygon fill="white" stroke="#666666" points="1440.75,-425.62 1277.75,-425.62 1277.75,-392.12 1440.75,-392.12 1440.75,-425.62"/>
<text text-anchor="start" x="1285.75" y="-412.12" font-family="Helvetica,sans-Serif" font-size="10.00">/home/runner/work/FastLED</text>
<text text-anchor="middle" x="1359.25" y="-399.38" font-family="Helvetica,sans-Serif" font-size="10.00">/FastLED/src/fl/file_system.cpp</text>
</a>
</g>
</g>
<!-- Node1&#45;&gt;Node119 -->
<g id="edge29_Node000001_Node000119" class="edge">
<title>Node1&#45;&gt;Node119</title>
<g id="a_edge29_Node000001_Node000119"><a xlink:title=" ">
<path fill="none" stroke="#63b8ff" d="M1131.41,-464.88C1181.04,-452.9 1244.61,-437.55 1291.99,-426.11"/>
<polygon fill="#63b8ff" stroke="#63b8ff" points="1130.77,-461.43 1121.87,-467.18 1132.42,-468.24 1130.77,-461.43"/>
</a>
</g>
</g>
<!-- Node120 -->
<g id="Node000120" class="node">
<title>Node120</title>
<g id="a_Node000120"><a xlink:href="../../d9/d6f/screenmap_8cpp.html" target="_top" xlink:title=" ">
<polygon fill="white" stroke="#666666" points="1619.62,-425.62 1458.88,-425.62 1458.88,-392.12 1619.62,-392.12 1619.62,-425.62"/>
<text text-anchor="start" x="1466.88" y="-412.12" font-family="Helvetica,sans-Serif" font-size="10.00">/home/runner/work/FastLED</text>
<text text-anchor="middle" x="1539.25" y="-399.38" font-family="Helvetica,sans-Serif" font-size="10.00">/FastLED/src/fl/screenmap.cpp</text>
</a>
</g>
</g>
<!-- Node1&#45;&gt;Node120 -->
<g id="edge30_Node000001_Node000120" class="edge">
<title>Node1&#45;&gt;Node120</title>
<g id="a_edge30_Node000001_Node000120"><a xlink:title=" ">
<path fill="none" stroke="#63b8ff" d="M1139.38,-475.39C1220.1,-466.87 1343.92,-452.08 1450.25,-432 1459.32,-430.29 1468.86,-428.21 1478.17,-426.03"/>
<polygon fill="#63b8ff" stroke="#63b8ff" points="1139.37,-471.87 1129.79,-476.39 1140.1,-478.83 1139.37,-471.87"/>
</a>
</g>
</g>
<!-- Node121 -->
<g id="Node000121" class="node">
<title>Node121</title>
<g id="a_Node000121"><a xlink:href="../../d7/d09/xymap_8cpp.html" target="_top" xlink:title=" ">
<polygon fill="white" stroke="#666666" points="1787,-425.62 1637.5,-425.62 1637.5,-392.12 1787,-392.12 1787,-425.62"/>
<text text-anchor="start" x="1645.5" y="-412.12" font-family="Helvetica,sans-Serif" font-size="10.00">/home/runner/work/FastLED</text>
<text text-anchor="middle" x="1712.25" y="-399.38" font-family="Helvetica,sans-Serif" font-size="10.00">/FastLED/src/fl/xymap.cpp</text>
</a>
</g>
</g>
<!-- Node1&#45;&gt;Node121 -->
<g id="edge31_Node000001_Node000121" class="edge">
<title>Node1&#45;&gt;Node121</title>
<g id="a_edge31_Node000001_Node000121"><a xlink:title=" ">
<path fill="none" stroke="#63b8ff" d="M1139.52,-480.5C1252.51,-475.21 1456.45,-462.14 1628.25,-432 1637.31,-430.41 1646.82,-428.32 1656.06,-426.06"/>
<polygon fill="#63b8ff" stroke="#63b8ff" points="1139.55,-476.99 1129.72,-480.95 1139.87,-483.99 1139.55,-476.99"/>
</a>
</g>
</g>
<!-- Node122 -->
<g id="Node000122" class="node">
<title>Node122</title>
<g id="a_Node000122"><a xlink:href="../../d7/d97/screenmap_8h.html" target="_top" xlink:title=" ">
<polygon fill="white" stroke="#666666" points="1955,-425.62 1805.5,-425.62 1805.5,-392.12 1955,-392.12 1955,-425.62"/>
<text text-anchor="start" x="1813.5" y="-412.12" font-family="Helvetica,sans-Serif" font-size="10.00">/home/runner/work/FastLED</text>
<text text-anchor="middle" x="1880.25" y="-399.38" font-family="Helvetica,sans-Serif" font-size="10.00">/FastLED/src/screenmap.h</text>
</a>
</g>
</g>
<!-- Node1&#45;&gt;Node122 -->
<g id="edge32_Node000001_Node000122" class="edge">
<title>Node1&#45;&gt;Node122</title>
<g id="a_edge32_Node000001_Node000122"><a xlink:title=" ">
<path fill="none" stroke="#63b8ff" d="M1139.8,-482.98C1279.02,-480.57 1560.94,-470.83 1796.25,-432 1805.48,-430.48 1815.16,-428.4 1824.54,-426.11"/>
<polygon fill="#63b8ff" stroke="#63b8ff" points="1139.86,-479.48 1129.92,-483.14 1139.97,-486.48 1139.86,-479.48"/>
</a>
</g>
</g>
<!-- Node7 -->
<g id="Node000007" class="node">
<title>Node7</title>
<g id="a_Node000007"><a xlink:href="../../d6/dc9/_led_rope_t_c_l_8cpp.html" target="_top" xlink:title=" ">
<polygon fill="white" stroke="#666666" points="1282.62,-46.25 1079.88,-46.25 1079.88,0 1282.62,0 1282.62,-46.25"/>
<text text-anchor="start" x="1087.88" y="-32.75" font-family="Helvetica,sans-Serif" font-size="10.00">/home/runner/work/FastLED</text>
<text text-anchor="start" x="1087.88" y="-20" font-family="Helvetica,sans-Serif" font-size="10.00">/FastLED/examples/LuminescentGrand</text>
<text text-anchor="middle" x="1181.25" y="-7.25" font-family="Helvetica,sans-Serif" font-size="10.00">/arduino/LedRopeTCL.cpp</text>
</a>
</g>
</g>
<!-- Node6&#45;&gt;Node7 -->
<g id="edge6_Node000006_Node000007" class="edge">
<title>Node6&#45;&gt;Node7</title>
<g id="a_edge6_Node000006_Node000007"><a xlink:title=" ">
<path fill="none" stroke="#63b8ff" d="M1134.57,-210.2C1145.89,-165.08 1165.84,-85.57 1175.58,-46.74"/>
<polygon fill="#63b8ff" stroke="#63b8ff" points="1131.23,-209.13 1132.19,-219.68 1138.02,-210.83 1131.23,-209.13"/>
</a>
</g>
</g>
<!-- Node10 -->
<g id="Node000010" class="node">
<title>Node10</title>
<g id="a_Node000010"><a xlink:href="../../dd/dd8/cled__controller_8cpp.html" target="_top" xlink:title="base definitions used by led controllers for writing out led data">
<polygon fill="white" stroke="#666666" points="894.75,-39.88 725.75,-39.88 725.75,-6.38 894.75,-6.38 894.75,-39.88"/>
<text text-anchor="start" x="733.75" y="-26.38" font-family="Helvetica,sans-Serif" font-size="10.00">/home/runner/work/FastLED</text>
<text text-anchor="middle" x="810.25" y="-13.62" font-family="Helvetica,sans-Serif" font-size="10.00">/FastLED/src/cled_controller.cpp</text>
</a>
</g>
</g>
<!-- Node9&#45;&gt;Node10 -->
<g id="edge9_Node000009_Node000010" class="edge">
<title>Node9&#45;&gt;Node10</title>
<g id="a_edge9_Node000009_Node000010"><a xlink:title=" ">
<path fill="none" stroke="#63b8ff" d="M714.97,-302.37C725.93,-292.67 737.48,-280.61 745.25,-267.5 790.87,-190.57 805.08,-81.25 808.96,-40.37"/>
<polygon fill="#63b8ff" stroke="#63b8ff" points="712.93,-299.51 707.54,-308.64 717.44,-304.86 712.93,-299.51"/>
</a>
</g>
</g>
<!-- Node11 -->
<g id="Node000011" class="node">
<title>Node11</title>
<g id="a_Node000011"><a xlink:href="../../d9/d57/cpixel__ledcontroller_8h.html" target="_top" xlink:title="defines the templated version of the CLEDController class">
<polygon fill="white" stroke="#666666" points="735.75,-261.12 554.75,-261.12 554.75,-227.62 735.75,-227.62 735.75,-261.12"/>
<text text-anchor="start" x="562.75" y="-247.62" font-family="Helvetica,sans-Serif" font-size="10.00">/home/runner/work/FastLED</text>
<text text-anchor="middle" x="645.25" y="-234.88" font-family="Helvetica,sans-Serif" font-size="10.00">/FastLED/src/cpixel_ledcontroller.h</text>
</a>
</g>
</g>
<!-- Node9&#45;&gt;Node11 -->
<g id="edge10_Node000009_Node000011" class="edge">
<title>Node9&#45;&gt;Node11</title>
<g id="a_edge10_Node000009_Node000011"><a xlink:title=" ">
<path fill="none" stroke="#63b8ff" d="M671.38,-299.13C665.35,-286.73 658.36,-272.35 653.13,-261.59"/>
<polygon fill="#63b8ff" stroke="#63b8ff" points="668.18,-300.56 675.7,-308.02 674.47,-297.5 668.18,-300.56"/>
</a>
</g>
</g>
<!-- Node12 -->
<g id="Node000012" class="node">
<title>Node12</title>
<g id="a_Node000012"><a xlink:href="../../d2/dd9/controller_8h.html" target="_top" xlink:title="deprecated: base definitions used by led controllers for writing out led data">
<polygon fill="#fff0f0" stroke="red" points="705,-185.25 555.5,-185.25 555.5,-151.75 705,-151.75 705,-185.25"/>
<text text-anchor="start" x="563.5" y="-171.75" font-family="Helvetica,sans-Serif" font-size="10.00">/home/runner/work/FastLED</text>
<text text-anchor="middle" x="630.25" y="-159" font-family="Helvetica,sans-Serif" font-size="10.00">/FastLED/src/controller.h</text>
</a>
</g>
</g>
<!-- Node11&#45;&gt;Node12 -->
<g id="edge11_Node000011_Node000012" class="edge">
<title>Node11&#45;&gt;Node12</title>
<g id="a_edge11_Node000011_Node000012"><a xlink:title=" ">
<path fill="none" stroke="#63b8ff" d="M639.76,-216.32C637.65,-205.97 635.33,-194.5 633.5,-185.5"/>
<polygon fill="#63b8ff" stroke="#63b8ff" points="636.27,-216.76 641.69,-225.86 643.13,-215.37 636.27,-216.76"/>
</a>
</g>
</g>
<!-- Node13 -->
<g id="Node000013" class="node">
<title>Node13</title>
<g id="a_Node000013"><a xlink:href="../../db/d97/_fast_l_e_d_8h.html" target="_top" xlink:title="central include file for FastLED, defines the CFastLED class/object">
<polygon fill="#fff0f0" stroke="red" points="743,-115.75 593.5,-115.75 593.5,-82.25 743,-82.25 743,-115.75"/>
<text text-anchor="start" x="601.5" y="-102.25" font-family="Helvetica,sans-Serif" font-size="10.00">/home/runner/work/FastLED</text>
<text text-anchor="middle" x="668.25" y="-89.5" font-family="Helvetica,sans-Serif" font-size="10.00">/FastLED/src/FastLED.h</text>
</a>
</g>
</g>
<!-- Node12&#45;&gt;Node13 -->
<g id="edge12_Node000012_Node000013" class="edge">
<title>Node12&#45;&gt;Node13</title>
<g id="a_edge12_Node000012_Node000013"><a xlink:title=" ">
<path fill="none" stroke="#63b8ff" d="M644.89,-141.49C649.75,-132.86 655.01,-123.51 659.31,-115.88"/>
<polygon fill="#63b8ff" stroke="#63b8ff" points="641.85,-139.75 640,-150.18 647.95,-143.19 641.85,-139.75"/>
</a>
</g>
</g>
<!-- Node13&#45;&gt;Node2 -->
<g id="edge13_Node000013_Node000002" class="edge">
<title>Node13&#45;&gt;Node2</title>
<g id="a_edge13_Node000013_Node000002"><a xlink:title=" ">
<path fill="none" stroke="#63b8ff" d="M581.96,-92.17C483.91,-84.77 319.31,-70.05 179.25,-46.25 176.52,-45.79 173.76,-45.29 170.97,-44.77"/>
<polygon fill="#63b8ff" stroke="#63b8ff" points="581.55,-95.64 591.78,-92.9 582.07,-88.66 581.55,-95.64"/>
</a>
</g>
</g>
<!-- Node13&#45;&gt;Node3 -->
<g id="edge14_Node000013_Node000003" class="edge">
<title>Node13&#45;&gt;Node3</title>
<g id="a_edge14_Node000013_Node000003"><a xlink:title=" ">
<path fill="none" stroke="#63b8ff" d="M582.04,-86.07C518.07,-76.7 428.86,-62.53 351.25,-46.25 348.23,-45.62 345.16,-44.95 342.06,-44.25"/>
<polygon fill="#63b8ff" stroke="#63b8ff" points="581.38,-89.51 591.78,-87.49 582.39,-82.58 581.38,-89.51"/>
</a>
</g>
</g>
<!-- Node13&#45;&gt;Node4 -->
<g id="edge15_Node000013_Node000004" class="edge">
<title>Node13&#45;&gt;Node4</title>
<g id="a_edge15_Node000013_Node000004"><a xlink:title=" ">
<path fill="none" stroke="#63b8ff" d="M608.69,-78.18C579.57,-68.49 544.39,-56.78 514.22,-46.74"/>
<polygon fill="#63b8ff" stroke="#63b8ff" points="607.5,-81.47 618.1,-81.31 609.71,-74.83 607.5,-81.47"/>
</a>
</g>
</g>
<!-- Node13&#45;&gt;Node5 -->
<g id="edge16_Node000013_Node000005" class="edge">
<title>Node13&#45;&gt;Node5</title>
<g id="a_edge16_Node000013_Node000005"><a xlink:title=" ">
<path fill="none" stroke="#63b8ff" d="M654.54,-72.03C650.15,-63.72 645.34,-54.6 641.1,-46.57"/>
<polygon fill="#63b8ff" stroke="#63b8ff" points="651.32,-73.42 659.08,-80.63 657.51,-70.15 651.32,-73.42"/>
</a>
</g>
</g>
<!-- Node13&#45;&gt;Node7 -->
<g id="edge17_Node000013_Node000007" class="edge">
<title>Node13&#45;&gt;Node7</title>
<g id="a_edge17_Node000013_Node000007"><a xlink:title=" ">
<path fill="none" stroke="#63b8ff" d="M754.74,-88.69C836.52,-79.46 962.56,-64.14 1071.25,-46.25 1073.94,-45.81 1076.67,-45.35 1079.42,-44.87"/>
<polygon fill="#63b8ff" stroke="#63b8ff" points="754.55,-85.19 745,-89.78 755.33,-92.14 754.55,-85.19"/>
</a>
</g>
</g>
<!-- Node13&#45;&gt;Node8 -->
<g id="edge18_Node000013_Node000008" class="edge">
<title>Node13&#45;&gt;Node8</title>
<g id="a_edge18_Node000013_Node000008"><a xlink:title=" ">
<path fill="none" stroke="#63b8ff" d="M754.68,-93.84C875.28,-87.36 1100.67,-72.74 1291.25,-46.25 1294.12,-45.85 1297.03,-45.43 1299.96,-44.98"/>
<polygon fill="#63b8ff" stroke="#63b8ff" points="754.66,-90.34 744.86,-94.37 755.03,-97.33 754.66,-90.34"/>
</a>
</g>
</g>
<!-- Node13&#45;&gt;Node9 -->
<g id="edge21_Node000013_Node000009" class="edge">
<title>Node13&#45;&gt;Node9</title>
<g id="a_edge21_Node000013_Node000009"><a xlink:title=" ">
<path fill="none" stroke="#63b8ff" d="M583.28,-120.88C568.69,-128.27 555.33,-138.25 546.25,-151.75 538.41,-163.41 538.95,-258.04 545.25,-267.5 559.09,-288.29 581.95,-301.66 605.17,-310.25"/>
<polygon fill="#63b8ff" stroke="#63b8ff" points="584.54,-124.15 592.17,-116.8 581.62,-117.79 584.54,-124.15"/>
</a>
</g>
</g>
<!-- Node13&#45;&gt;Node10 -->
<g id="edge20_Node000013_Node000010" class="edge">
<title>Node13&#45;&gt;Node10</title>
<g id="a_edge20_Node000013_Node000010"><a xlink:title=" ">
<path fill="none" stroke="#63b8ff" d="M709.57,-76.5C731.79,-64.94 758.74,-50.92 779.16,-40.3"/>
<polygon fill="#63b8ff" stroke="#63b8ff" points="708.01,-73.37 700.76,-81.09 711.24,-79.58 708.01,-73.37"/>
</a>
</g>
</g>
<!-- Node13&#45;&gt;Node11 -->
<g id="edge22_Node000013_Node000011" class="edge">
<title>Node13&#45;&gt;Node11</title>
<g id="a_edge22_Node000013_Node000011"><a xlink:title=" ">
<path fill="none" stroke="#63b8ff" d="M696.09,-124.02C703.42,-132.02 710.36,-141.52 714.25,-151.75 719.54,-165.67 720.53,-171.75 714.25,-185.25 705.99,-203 689.35,-217.28 674.48,-227.24"/>
<polygon fill="#63b8ff" stroke="#63b8ff" points="698.7,-121.68 689.17,-117.05 693.73,-126.61 698.7,-121.68"/>
</a>
</g>
</g>
<!-- Node68 -->
<g id="Node000068" class="node">
<title>Node68</title>
<g id="a_Node000068"><a xlink:href="../../d6/dda/_fast_l_e_d_8cpp.html" target="_top" xlink:title="Central source file for FastLED, implements the CFastLED class/object.">
<polygon fill="white" stroke="#666666" points="1062,-39.88 912.5,-39.88 912.5,-6.38 1062,-6.38 1062,-39.88"/>
<text text-anchor="start" x="920.5" y="-26.38" font-family="Helvetica,sans-Serif" font-size="10.00">/home/runner/work/FastLED</text>
<text text-anchor="middle" x="987.25" y="-13.62" font-family="Helvetica,sans-Serif" font-size="10.00">/FastLED/src/FastLED.cpp</text>
</a>
</g>
</g>
<!-- Node13&#45;&gt;Node68 -->
<g id="edge19_Node000013_Node000068" class="edge">
<title>Node13&#45;&gt;Node68</title>
<g id="a_edge19_Node000013_Node000068"><a xlink:title=" ">
<path fill="none" stroke="#63b8ff" d="M754.52,-80.05C799.3,-70.49 854.84,-58.25 904.25,-46.25 911.93,-44.39 919.99,-42.34 927.94,-40.28"/>
<polygon fill="#63b8ff" stroke="#63b8ff" points="753.91,-76.6 744.86,-82.11 755.37,-83.45 753.91,-76.6"/>
</a>
</g>
</g>
<!-- Node116&#45;&gt;Node9 -->
<g id="edge26_Node000116_Node000009" class="edge">
<title>Node116&#45;&gt;Node9</title>
<g id="a_edge26_Node000116_Node000009"><a xlink:title=" ">
<path fill="none" stroke="#63b8ff" d="M861.76,-382C820.76,-369.44 772.78,-354.74 737.04,-343.8"/>
<polygon fill="#63b8ff" stroke="#63b8ff" points="860.54,-385.28 871.12,-384.86 862.59,-378.59 860.54,-385.28"/>
</a>
</g>
</g>
<!-- Node116&#45;&gt;Node13 -->
<g id="edge25_Node000116_Node000013" class="edge">
<title>Node116&#45;&gt;Node13</title>
<g id="a_edge25_Node000116_Node000013"><a xlink:title=" ">
<path fill="none" stroke="#63b8ff" d="M860.55,-383.29C842.23,-374.95 824.21,-363.99 810.25,-349.75 743.81,-281.97 786.14,-228.46 730.25,-151.75 720.1,-137.81 705.39,-125.32 692.84,-116.1"/>
<polygon fill="#63b8ff" stroke="#63b8ff" points="859.07,-386.47 869.64,-387.19 861.83,-380.03 859.07,-386.47"/>
</a>
</g>
</g>
<!-- Node116&#45;&gt;Node68 -->
<g id="edge24_Node000116_Node000068" class="edge">
<title>Node116&#45;&gt;Node68</title>
<g id="a_edge24_Node000116_Node000068"><a xlink:title=" ">
<path fill="none" stroke="#63b8ff" d="M966.42,-375.59C970.86,-367.4 975.16,-358.45 978.25,-349.75 994.05,-305.32 997.25,-292.53 997.25,-245.38 997.25,-245.38 997.25,-245.38 997.25,-167.5 997.25,-121.09 991.97,-66.43 989.08,-40.01"/>
<polygon fill="#63b8ff" stroke="#63b8ff" points="963.45,-373.74 961.55,-384.17 969.53,-377.2 963.45,-373.74"/>
</a>
</g>
</g>
<!-- Node117 -->
<g id="Node000117" class="node">
<title>Node117</title>
<g id="a_Node000117"><a xlink:href="../../db/dc0/engine__events_8h.html" target="_top" xlink:title=" ">
<polygon fill="white" stroke="#666666" points="1183.12,-343.38 1025.38,-343.38 1025.38,-309.88 1183.12,-309.88 1183.12,-343.38"/>
<text text-anchor="start" x="1033.38" y="-329.88" font-family="Helvetica,sans-Serif" font-size="10.00">/home/runner/work/FastLED</text>
<text text-anchor="middle" x="1104.25" y="-317.12" font-family="Helvetica,sans-Serif" font-size="10.00">/FastLED/src/engine_events.h</text>
</a>
</g>
</g>
<!-- Node116&#45;&gt;Node117 -->
<g id="edge27_Node000116_Node000117" class="edge">
<title>Node116&#45;&gt;Node117</title>
<g id="a_edge27_Node000116_Node000117"><a xlink:title=" ">
<path fill="none" stroke="#63b8ff" d="M1000.74,-380.2C1024.74,-368.01 1052.1,-354.11 1072.66,-343.67"/>
<polygon fill="#63b8ff" stroke="#63b8ff" points="999.36,-376.97 992.03,-384.62 1002.53,-383.21 999.36,-376.97"/>
</a>
</g>
</g>
<!-- Node118 -->
<g id="Node000118" class="node">
<title>Node118</title>
<g id="a_Node000118"><a xlink:href="../../d5/d7d/engine__events_8cpp.html" target="_top" xlink:title=" ">
<polygon fill="white" stroke="#666666" points="969,-349.75 819.5,-349.75 819.5,-303.5 969,-303.5 969,-349.75"/>
<text text-anchor="start" x="827.5" y="-336.25" font-family="Helvetica,sans-Serif" font-size="10.00">/home/runner/work/FastLED</text>
<text text-anchor="start" x="827.5" y="-323.5" font-family="Helvetica,sans-Serif" font-size="10.00">/FastLED/src/fl/engine</text>
<text text-anchor="middle" x="894.25" y="-310.75" font-family="Helvetica,sans-Serif" font-size="10.00">_events.cpp</text>
</a>
</g>
</g>
<!-- Node116&#45;&gt;Node118 -->
<g id="edge28_Node000116_Node000118" class="edge">
<title>Node116&#45;&gt;Node118</title>
<g id="a_edge28_Node000116_Node000118"><a xlink:title=" ">
<path fill="none" stroke="#63b8ff" d="M925.63,-376.05C920.01,-367.38 914.04,-358.17 908.84,-350.14"/>
<polygon fill="#63b8ff" stroke="#63b8ff" points="922.57,-377.76 930.94,-384.25 928.44,-373.96 922.57,-377.76"/>
</a>
</g>
</g>
</g>
</svg>
