<?xml version="1.0" encoding="UTF-8" standalone="no"?>
<!DOCTYPE svg PUBLIC "-//W3C//DTD SVG 1.1//EN"
 "http://www.w3.org/Graphics/SVG/1.1/DTD/svg11.dtd">
<!-- Generated by graphviz version 12.2.1 (20241206.2353)
 -->
<!-- Title: animartrix_detail::ANIMartRIX::Complex_Kaleido_3 Pages: 1 -->
<svg width="650pt" height="470pt"
 viewBox="0.00 0.00 650.25 469.88" xmlns="http://www.w3.org/2000/svg" xmlns:xlink="http://www.w3.org/1999/xlink">
<g id="graph0" class="graph" transform="scale(1 1) rotate(0) translate(4 465.88)">
<title>animartrix_detail::ANIMartRIX::Complex_Kaleido_3</title>
<!-- Node1 -->
<g id="Node000001" class="node">
<title>Node1</title>
<g id="a_Node000001"><a xlink:title=" ">
<polygon fill="#999999" stroke="#666666" points="121.75,-247.88 0,-247.88 0,-201.62 121.75,-201.62 121.75,-247.88"/>
<text text-anchor="start" x="8" y="-234.38" font-family="Helvetica,sans-Serif" font-size="10.00">animartrix_detail::</text>
<text text-anchor="start" x="8" y="-221.62" font-family="Helvetica,sans-Serif" font-size="10.00">ANIMartRIX::Complex</text>
<text text-anchor="middle" x="60.88" y="-208.88" font-family="Helvetica,sans-Serif" font-size="10.00">_Kaleido_3</text>
</a>
</g>
</g>
<!-- Node2 -->
<g id="Node000002" class="node">
<title>Node2</title>
<g id="a_Node000002"><a xlink:href="../../df/d5e/classanimartrix__detail_1_1_a_n_i_mart_r_i_x.html#a8f1a3ef6f9688953f30b62ee5a3842e0" target="_top" xlink:title=" ">
<polygon fill="white" stroke="#666666" points="308.75,-461.88 186.25,-461.88 186.25,-415.62 308.75,-415.62 308.75,-461.88"/>
<text text-anchor="start" x="194.25" y="-448.38" font-family="Helvetica,sans-Serif" font-size="10.00">animartrix_detail::</text>
<text text-anchor="start" x="194.25" y="-435.62" font-family="Helvetica,sans-Serif" font-size="10.00">ANIMartRIX::calculate</text>
<text text-anchor="middle" x="247.5" y="-422.88" font-family="Helvetica,sans-Serif" font-size="10.00">_oscillators</text>
</a>
</g>
</g>
<!-- Node1&#45;&gt;Node2 -->
<g id="edge1_Node000001_Node000002" class="edge">
<title>Node1&#45;&gt;Node2</title>
<g id="a_edge1_Node000001_Node000002"><a xlink:title=" ">
<path fill="none" stroke="#63b8ff" d="M68.22,-248.35C79.73,-286.83 107.64,-363.15 157.75,-406.75 163.1,-411.41 169.18,-415.4 175.59,-418.83"/>
<polygon fill="#63b8ff" stroke="#63b8ff" points="173.99,-421.94 184.52,-423.11 177.01,-415.63 173.99,-421.94"/>
</a>
</g>
</g>
<!-- Node8 -->
<g id="Node000008" class="node">
<title>Node8</title>
<g id="a_Node000008"><a xlink:href="../../df/d5e/classanimartrix__detail_1_1_a_n_i_mart_r_i_x.html#ac46f1605c69b2583e3e06bcb1bcb4cd3" target="_top" xlink:title=" ">
<polygon fill="white" stroke="#666666" points="313.62,-397.5 181.38,-397.5 181.38,-364 313.62,-364 313.62,-397.5"/>
<text text-anchor="start" x="189.38" y="-384" font-family="Helvetica,sans-Serif" font-size="10.00">animartrix_detail::</text>
<text text-anchor="middle" x="247.5" y="-371.25" font-family="Helvetica,sans-Serif" font-size="10.00">ANIMartRIX::colordodge</text>
</a>
</g>
</g>
<!-- Node1&#45;&gt;Node8 -->
<g id="edge7_Node000001_Node000008" class="edge">
<title>Node1&#45;&gt;Node8</title>
<g id="a_edge7_Node000001_Node000008"><a xlink:title=" ">
<path fill="none" stroke="#63b8ff" d="M73.17,-248.37C88.36,-277.64 118.1,-327.03 157.75,-354.75 161.86,-357.62 166.28,-360.18 170.89,-362.46"/>
<polygon fill="#63b8ff" stroke="#63b8ff" points="169.26,-365.56 179.82,-366.4 172.08,-359.16 169.26,-365.56"/>
</a>
</g>
</g>
<!-- Node9 -->
<g id="Node000009" class="node">
<title>Node9</title>
<g id="a_Node000009"><a xlink:href="../../df/d5e/classanimartrix__detail_1_1_a_n_i_mart_r_i_x.html#a087a9473459c121592e78b11d617820b" target="_top" xlink:title=" ">
<polygon fill="white" stroke="#666666" points="311,-241.5 184,-241.5 184,-208 311,-208 311,-241.5"/>
<text text-anchor="start" x="192" y="-228" font-family="Helvetica,sans-Serif" font-size="10.00">animartrix_detail::</text>
<text text-anchor="middle" x="247.5" y="-215.25" font-family="Helvetica,sans-Serif" font-size="10.00">ANIMartRIX::get_ready</text>
</a>
</g>
</g>
<!-- Node1&#45;&gt;Node9 -->
<g id="edge8_Node000001_Node000009" class="edge">
<title>Node1&#45;&gt;Node9</title>
<g id="a_edge8_Node000001_Node000009"><a xlink:title=" ">
<path fill="none" stroke="#63b8ff" d="M122.07,-224.75C138.06,-224.75 155.52,-224.75 172.16,-224.75"/>
<polygon fill="#63b8ff" stroke="#63b8ff" points="172.02,-228.25 182.02,-224.75 172.02,-221.25 172.02,-228.25"/>
</a>
</g>
</g>
<!-- Node11 -->
<g id="Node000011" class="node">
<title>Node11</title>
<g id="a_Node000011"><a xlink:href="../../df/d5e/classanimartrix__detail_1_1_a_n_i_mart_r_i_x.html#ab46628347b5ab16e89c2f48f03c57ce0" target="_top" xlink:title=" ">
<polygon fill="white" stroke="#666666" points="306.88,-293.5 188.12,-293.5 188.12,-260 306.88,-260 306.88,-293.5"/>
<text text-anchor="start" x="196.12" y="-280" font-family="Helvetica,sans-Serif" font-size="10.00">animartrix_detail::</text>
<text text-anchor="middle" x="247.5" y="-267.25" font-family="Helvetica,sans-Serif" font-size="10.00">ANIMartRIX::multiply</text>
</a>
</g>
</g>
<!-- Node1&#45;&gt;Node11 -->
<g id="edge10_Node000001_Node000011" class="edge">
<title>Node1&#45;&gt;Node11</title>
<g id="a_edge10_Node000001_Node000011"><a xlink:title=" ">
<path fill="none" stroke="#63b8ff" d="M122.07,-241.7C139.5,-246.61 158.67,-252.01 176.64,-257.07"/>
<polygon fill="#63b8ff" stroke="#63b8ff" points="175.61,-260.42 186.19,-259.76 177.51,-253.68 175.61,-260.42"/>
</a>
</g>
</g>
<!-- Node12 -->
<g id="Node000012" class="node">
<title>Node12</title>
<g id="a_Node000012"><a xlink:href="../../df/d5e/classanimartrix__detail_1_1_a_n_i_mart_r_i_x.html#a867d92fbbe56d9cdbd02638db2795324" target="_top" xlink:title=" ">
<polygon fill="white" stroke="#666666" points="318.5,-345.5 176.5,-345.5 176.5,-312 318.5,-312 318.5,-345.5"/>
<text text-anchor="start" x="184.5" y="-332" font-family="Helvetica,sans-Serif" font-size="10.00">animartrix_detail::</text>
<text text-anchor="middle" x="247.5" y="-319.25" font-family="Helvetica,sans-Serif" font-size="10.00">ANIMartRIX::render_value</text>
</a>
</g>
</g>
<!-- Node1&#45;&gt;Node12 -->
<g id="edge11_Node000001_Node000012" class="edge">
<title>Node1&#45;&gt;Node12</title>
<g id="a_edge11_Node000001_Node000012"><a xlink:title=" ">
<path fill="none" stroke="#63b8ff" d="M85.17,-248.22C103.48,-265.49 130.4,-288.37 157.75,-302.75 160.78,-304.34 163.92,-305.85 167.13,-307.27"/>
<polygon fill="#63b8ff" stroke="#63b8ff" points="165.6,-310.43 176.18,-310.98 168.25,-303.95 165.6,-310.43"/>
</a>
</g>
</g>
<!-- Node14 -->
<g id="Node000014" class="node">
<title>Node14</title>
<g id="a_Node000014"><a xlink:href="../../df/d5e/classanimartrix__detail_1_1_a_n_i_mart_r_i_x.html#a67a30ae022755db342ddaafdeb1b7d9f" target="_top" xlink:title=" ">
<polygon fill="white" stroke="#666666" points="329,-189.5 166,-189.5 166,-156 329,-156 329,-189.5"/>
<text text-anchor="start" x="174" y="-176" font-family="Helvetica,sans-Serif" font-size="10.00">animartrix_detail::</text>
<text text-anchor="middle" x="247.5" y="-163.25" font-family="Helvetica,sans-Serif" font-size="10.00">ANIMartRIX::rgb_sanity_check</text>
</a>
</g>
</g>
<!-- Node1&#45;&gt;Node14 -->
<g id="edge14_Node000001_Node000014" class="edge">
<title>Node1&#45;&gt;Node14</title>
<g id="a_edge14_Node000001_Node000014"><a xlink:title=" ">
<path fill="none" stroke="#63b8ff" d="M122.07,-207.8C138.89,-203.06 157.33,-197.86 174.75,-192.96"/>
<polygon fill="#63b8ff" stroke="#63b8ff" points="175.3,-196.44 183.98,-190.36 173.4,-189.7 175.3,-196.44"/>
</a>
</g>
</g>
<!-- Node15 -->
<g id="Node000015" class="node">
<title>Node15</title>
<g id="a_Node000015"><a xlink:href="../../df/d5e/classanimartrix__detail_1_1_a_n_i_mart_r_i_x.html#afa21f4025e5086d591b75af4884e2cf8" target="_top" xlink:title=" ">
<polygon fill="white" stroke="#666666" points="302.75,-137.5 192.25,-137.5 192.25,-104 302.75,-104 302.75,-137.5"/>
<text text-anchor="start" x="200.25" y="-124" font-family="Helvetica,sans-Serif" font-size="10.00">animartrix_detail::</text>
<text text-anchor="middle" x="247.5" y="-111.25" font-family="Helvetica,sans-Serif" font-size="10.00">ANIMartRIX::screen</text>
</a>
</g>
</g>
<!-- Node1&#45;&gt;Node15 -->
<g id="edge15_Node000001_Node000015" class="edge">
<title>Node1&#45;&gt;Node15</title>
<g id="a_edge15_Node000001_Node000015"><a xlink:title=" ">
<path fill="none" stroke="#63b8ff" d="M85.17,-201.28C103.48,-184.01 130.4,-161.13 157.75,-146.75 165.16,-142.85 173.24,-139.47 181.4,-136.54"/>
<polygon fill="#63b8ff" stroke="#63b8ff" points="182.31,-139.93 190.69,-133.44 180.09,-133.29 182.31,-139.93"/>
</a>
</g>
</g>
<!-- Node16 -->
<g id="Node000016" class="node">
<title>Node16</title>
<g id="a_Node000016"><a xlink:href="../../df/d5e/classanimartrix__detail_1_1_a_n_i_mart_r_i_x.html#abeda45d77e8e41b81cd1e24a004e7f0c" target="_top" xlink:title=" ">
<polygon fill="white" stroke="#666666" points="337.25,-85.5 157.75,-85.5 157.75,-52 337.25,-52 337.25,-85.5"/>
<text text-anchor="start" x="165.75" y="-72" font-family="Helvetica,sans-Serif" font-size="10.00">animartrix_detail::</text>
<text text-anchor="middle" x="247.5" y="-59.25" font-family="Helvetica,sans-Serif" font-size="10.00">ANIMartRIX::setPixelColorInternal</text>
</a>
</g>
</g>
<!-- Node1&#45;&gt;Node16 -->
<g id="edge16_Node000001_Node000016" class="edge">
<title>Node1&#45;&gt;Node16</title>
<g id="a_edge16_Node000001_Node000016"><a xlink:title=" ">
<path fill="none" stroke="#63b8ff" d="M73.17,-201.13C88.36,-171.86 118.1,-122.47 157.75,-94.75 159.58,-93.47 161.46,-92.26 163.4,-91.1"/>
<polygon fill="#63b8ff" stroke="#63b8ff" points="164.91,-94.27 172.13,-86.51 161.65,-88.07 164.91,-94.27"/>
</a>
</g>
</g>
<!-- Node17 -->
<g id="Node000017" class="node">
<title>Node17</title>
<g id="a_Node000017"><a xlink:href="../../df/d5e/classanimartrix__detail_1_1_a_n_i_mart_r_i_x.html#a96e5ec50b083b119c648a909f435af27" target="_top" xlink:title=" ">
<polygon fill="white" stroke="#666666" points="306.5,-33.5 188.5,-33.5 188.5,0 306.5,0 306.5,-33.5"/>
<text text-anchor="start" x="196.5" y="-20" font-family="Helvetica,sans-Serif" font-size="10.00">animartrix_detail::</text>
<text text-anchor="middle" x="247.5" y="-7.25" font-family="Helvetica,sans-Serif" font-size="10.00">ANIMartRIX::subtract</text>
</a>
</g>
</g>
<!-- Node1&#45;&gt;Node17 -->
<g id="edge17_Node000001_Node000017" class="edge">
<title>Node1&#45;&gt;Node17</title>
<g id="a_edge17_Node000001_Node000017"><a xlink:title=" ">
<path fill="none" stroke="#63b8ff" d="M67.75,-201.43C78.72,-162.65 106.05,-85.03 157.75,-42.75 163.68,-37.9 170.48,-33.96 177.62,-30.75"/>
<polygon fill="#63b8ff" stroke="#63b8ff" points="178.84,-34.03 186.86,-27.11 176.27,-27.52 178.84,-34.03"/>
</a>
</g>
</g>
<!-- Node3 -->
<g id="Node000003" class="node">
<title>Node3</title>
<g id="a_Node000003"><a xlink:href="../../df/d5e/classanimartrix__detail_1_1_a_n_i_mart_r_i_x.html#aca68cf41172ac73c388dad51b3ab40ab" target="_top" xlink:title=" ">
<polygon fill="white" stroke="#666666" points="496.12,-455.5 377.38,-455.5 377.38,-422 496.12,-422 496.12,-455.5"/>
<text text-anchor="start" x="385.38" y="-442" font-family="Helvetica,sans-Serif" font-size="10.00">animartrix_detail::</text>
<text text-anchor="middle" x="436.75" y="-429.25" font-family="Helvetica,sans-Serif" font-size="10.00">ANIMartRIX::getTime</text>
</a>
</g>
</g>
<!-- Node2&#45;&gt;Node3 -->
<g id="edge2_Node000002_Node000003" class="edge">
<title>Node2&#45;&gt;Node3</title>
<g id="a_edge2_Node000002_Node000003"><a xlink:title=" ">
<path fill="none" stroke="#63b8ff" d="M309.04,-438.75C327.09,-438.75 347.02,-438.75 365.63,-438.75"/>
<polygon fill="#63b8ff" stroke="#63b8ff" points="365.51,-442.25 375.51,-438.75 365.51,-435.25 365.51,-442.25"/>
</a>
</g>
</g>
<!-- Node4 -->
<g id="Node000004" class="node">
<title>Node4</title>
<g id="a_Node000004"><a xlink:href="../../df/d5e/classanimartrix__detail_1_1_a_n_i_mart_r_i_x.html#a4e599e324fb4f9bec1a113f1843f6058" target="_top" xlink:title=" ">
<polygon fill="white" stroke="#666666" points="492,-400.5 381.5,-400.5 381.5,-367 492,-367 492,-400.5"/>
<text text-anchor="start" x="389.5" y="-387" font-family="Helvetica,sans-Serif" font-size="10.00">animartrix_detail::</text>
<text text-anchor="middle" x="436.75" y="-374.25" font-family="Helvetica,sans-Serif" font-size="10.00">ANIMartRIX::pnoise</text>
</a>
</g>
</g>
<!-- Node2&#45;&gt;Node4 -->
<g id="edge3_Node000002_Node000004" class="edge">
<title>Node2&#45;&gt;Node4</title>
<g id="a_edge3_Node000002_Node000004"><a xlink:title=" ">
<path fill="none" stroke="#63b8ff" d="M309.04,-420.97C328.6,-415.22 350.38,-408.83 370.28,-402.98"/>
<polygon fill="#63b8ff" stroke="#63b8ff" points="371.06,-406.4 379.67,-400.22 369.09,-399.68 371.06,-406.4"/>
</a>
</g>
</g>
<!-- Node5 -->
<g id="Node000005" class="node">
<title>Node5</title>
<g id="a_Node000005"><a xlink:href="../../df/d5e/classanimartrix__detail_1_1_a_n_i_mart_r_i_x.html#af3fb7d297afe35dea7078be3836aa994" target="_top" xlink:title=" ">
<polygon fill="white" stroke="#666666" points="642.25,-452.5 536.25,-452.5 536.25,-419 642.25,-419 642.25,-452.5"/>
<text text-anchor="start" x="544.25" y="-439" font-family="Helvetica,sans-Serif" font-size="10.00">animartrix_detail::</text>
<text text-anchor="middle" x="589.25" y="-426.25" font-family="Helvetica,sans-Serif" font-size="10.00">ANIMartRIX::fade</text>
</a>
</g>
</g>
<!-- Node4&#45;&gt;Node5 -->
<g id="edge4_Node000004_Node000005" class="edge">
<title>Node4&#45;&gt;Node5</title>
<g id="a_edge4_Node000004_Node000005"><a xlink:title=" ">
<path fill="none" stroke="#63b8ff" d="M487.45,-400.92C500.35,-405.38 514.39,-410.23 527.78,-414.86"/>
<polygon fill="#63b8ff" stroke="#63b8ff" points="526.32,-418.06 536.92,-418.01 528.61,-411.44 526.32,-418.06"/>
</a>
</g>
</g>
<!-- Node6 -->
<g id="Node000006" class="node">
<title>Node6</title>
<g id="a_Node000006"><a xlink:href="../../df/d5e/classanimartrix__detail_1_1_a_n_i_mart_r_i_x.html#acb625b48d9c1beec3067e0c38b7a0b22" target="_top" xlink:title=" ">
<polygon fill="white" stroke="#666666" points="642.25,-400.5 536.25,-400.5 536.25,-367 642.25,-367 642.25,-400.5"/>
<text text-anchor="start" x="544.25" y="-387" font-family="Helvetica,sans-Serif" font-size="10.00">animartrix_detail::</text>
<text text-anchor="middle" x="589.25" y="-374.25" font-family="Helvetica,sans-Serif" font-size="10.00">ANIMartRIX::grad</text>
</a>
</g>
</g>
<!-- Node4&#45;&gt;Node6 -->
<g id="edge5_Node000004_Node000006" class="edge">
<title>Node4&#45;&gt;Node6</title>
<g id="a_edge5_Node000004_Node000006"><a xlink:title=" ">
<path fill="none" stroke="#63b8ff" d="M492.08,-383.75C502.53,-383.75 513.57,-383.75 524.29,-383.75"/>
<polygon fill="#63b8ff" stroke="#63b8ff" points="524.24,-387.25 534.24,-383.75 524.24,-380.25 524.24,-387.25"/>
</a>
</g>
</g>
<!-- Node7 -->
<g id="Node000007" class="node">
<title>Node7</title>
<g id="a_Node000007"><a xlink:href="../../df/d5e/classanimartrix__detail_1_1_a_n_i_mart_r_i_x.html#a7ce0a9b9405217a5b8bf71c88bcb571b" target="_top" xlink:title=" ">
<polygon fill="white" stroke="#666666" points="642.25,-348.5 536.25,-348.5 536.25,-315 642.25,-315 642.25,-348.5"/>
<text text-anchor="start" x="544.25" y="-335" font-family="Helvetica,sans-Serif" font-size="10.00">animartrix_detail::</text>
<text text-anchor="middle" x="589.25" y="-322.25" font-family="Helvetica,sans-Serif" font-size="10.00">ANIMartRIX::lerp</text>
</a>
</g>
</g>
<!-- Node4&#45;&gt;Node7 -->
<g id="edge6_Node000004_Node000007" class="edge">
<title>Node4&#45;&gt;Node7</title>
<g id="a_edge6_Node000004_Node000007"><a xlink:title=" ">
<path fill="none" stroke="#63b8ff" d="M487.45,-366.58C500.35,-362.12 514.39,-357.27 527.78,-352.64"/>
<polygon fill="#63b8ff" stroke="#63b8ff" points="528.61,-356.06 536.92,-349.49 526.32,-349.44 528.61,-356.06"/>
</a>
</g>
</g>
<!-- Node10 -->
<g id="Node000010" class="node">
<title>Node10</title>
<g id="a_Node000010"><a xlink:href="../../df/d5e/classanimartrix__detail_1_1_a_n_i_mart_r_i_x.html#ac384f7991b6c2a4906b1783b7aa59638" target="_top" xlink:title=" ">
<polygon fill="white" stroke="#666666" points="499.88,-241.5 373.62,-241.5 373.62,-208 499.88,-208 499.88,-241.5"/>
<text text-anchor="start" x="381.62" y="-228" font-family="Helvetica,sans-Serif" font-size="10.00">animartrix_detail::</text>
<text text-anchor="middle" x="436.75" y="-215.25" font-family="Helvetica,sans-Serif" font-size="10.00">ANIMartRIX::logOutput</text>
</a>
</g>
</g>
<!-- Node9&#45;&gt;Node10 -->
<g id="edge9_Node000009_Node000010" class="edge">
<title>Node9&#45;&gt;Node10</title>
<g id="a_edge9_Node000009_Node000010"><a xlink:title=" ">
<path fill="none" stroke="#63b8ff" d="M311.37,-224.75C327.6,-224.75 345.22,-224.75 361.95,-224.75"/>
<polygon fill="#63b8ff" stroke="#63b8ff" points="361.85,-228.25 371.85,-224.75 361.85,-221.25 361.85,-228.25"/>
</a>
</g>
</g>
<!-- Node12&#45;&gt;Node4 -->
<g id="edge13_Node000012_Node000004" class="edge">
<title>Node12&#45;&gt;Node4</title>
<g id="a_edge13_Node000012_Node000004"><a xlink:title=" ">
<path fill="none" stroke="#63b8ff" d="M307.22,-345.94C317.24,-348.88 327.54,-351.9 337.25,-354.75 347.9,-357.88 359.19,-361.2 370.19,-364.43"/>
<polygon fill="#63b8ff" stroke="#63b8ff" points="369.01,-367.74 379.6,-367.2 370.99,-361.02 369.01,-367.74"/>
</a>
</g>
</g>
<!-- Node13 -->
<g id="Node000013" class="node">
<title>Node13</title>
<g id="a_Node000013"><a xlink:href="../../df/d5e/classanimartrix__detail_1_1_a_n_i_mart_r_i_x.html#a2006d9bb43b5840274de66a93529a29f" target="_top" xlink:title=" ">
<polygon fill="white" stroke="#666666" points="500.25,-345.5 373.25,-345.5 373.25,-312 500.25,-312 500.25,-345.5"/>
<text text-anchor="start" x="381.25" y="-332" font-family="Helvetica,sans-Serif" font-size="10.00">animartrix_detail::</text>
<text text-anchor="middle" x="436.75" y="-319.25" font-family="Helvetica,sans-Serif" font-size="10.00">ANIMartRIX::map_float</text>
</a>
</g>
</g>
<!-- Node12&#45;&gt;Node13 -->
<g id="edge12_Node000012_Node000013" class="edge">
<title>Node12&#45;&gt;Node13</title>
<g id="a_edge12_Node000012_Node000013"><a xlink:title=" ">
<path fill="none" stroke="#63b8ff" d="M318.76,-328.75C332.76,-328.75 347.51,-328.75 361.63,-328.75"/>
<polygon fill="#63b8ff" stroke="#63b8ff" points="361.29,-332.25 371.29,-328.75 361.29,-325.25 361.29,-332.25"/>
</a>
</g>
</g>
</g>
</svg>
