<?xml version="1.0" encoding="UTF-8" standalone="no"?>
<!DOCTYPE svg PUBLIC "-//W3C//DTD SVG 1.1//EN"
 "http://www.w3.org/Graphics/SVG/1.1/DTD/svg11.dtd">
<!-- Generated by graphviz version 12.2.1 (20241206.2353)
 -->
<!-- Title: animartrix_detail::ANIMartRIX::Scaledemo1 Pages: 1 -->
<svg width="667pt" height="302pt"
 viewBox="0.00 0.00 666.75 301.50" xmlns="http://www.w3.org/2000/svg" xmlns:xlink="http://www.w3.org/1999/xlink">
<g id="graph0" class="graph" transform="scale(1 1) rotate(0) translate(4 297.5)">
<title>animartrix_detail::ANIMartRIX::Scaledemo1</title>
<!-- Node1 -->
<g id="Node000001" class="node">
<title>Node1</title>
<g id="a_Node000001"><a xlink:title=" ">
<polygon fill="#999999" stroke="#666666" points="138.25,-137.5 0,-137.5 0,-104 138.25,-104 138.25,-137.5"/>
<text text-anchor="start" x="8" y="-124" font-family="Helvetica,sans-Serif" font-size="10.00">animartrix_detail::</text>
<text text-anchor="middle" x="69.12" y="-111.25" font-family="Helvetica,sans-Serif" font-size="10.00">ANIMartRIX::Scaledemo1</text>
</a>
</g>
</g>
<!-- Node2 -->
<g id="Node000002" class="node">
<title>Node2</title>
<g id="a_Node000002"><a xlink:href="../../df/d5e/classanimartrix__detail_1_1_a_n_i_mart_r_i_x.html#a8f1a3ef6f9688953f30b62ee5a3842e0" target="_top" xlink:title=" ">
<polygon fill="white" stroke="#666666" points="325.25,-253.88 202.75,-253.88 202.75,-207.62 325.25,-207.62 325.25,-253.88"/>
<text text-anchor="start" x="210.75" y="-240.38" font-family="Helvetica,sans-Serif" font-size="10.00">animartrix_detail::</text>
<text text-anchor="start" x="210.75" y="-227.62" font-family="Helvetica,sans-Serif" font-size="10.00">ANIMartRIX::calculate</text>
<text text-anchor="middle" x="264" y="-214.88" font-family="Helvetica,sans-Serif" font-size="10.00">_oscillators</text>
</a>
</g>
</g>
<!-- Node1&#45;&gt;Node2 -->
<g id="edge1_Node000001_Node000002" class="edge">
<title>Node1&#45;&gt;Node2</title>
<g id="a_edge1_Node000001_Node000002"><a xlink:title=" ">
<path fill="none" stroke="#63b8ff" d="M89.28,-137.87C109.31,-155.09 142.24,-181.49 174.25,-198.75 179.88,-201.79 185.87,-204.64 191.96,-207.3"/>
<polygon fill="#63b8ff" stroke="#63b8ff" points="190.3,-210.4 200.88,-211.01 192.98,-203.94 190.3,-210.4"/>
</a>
</g>
</g>
<!-- Node8 -->
<g id="Node000008" class="node">
<title>Node8</title>
<g id="a_Node000008"><a xlink:href="../../df/d5e/classanimartrix__detail_1_1_a_n_i_mart_r_i_x.html#a087a9473459c121592e78b11d617820b" target="_top" xlink:title=" ">
<polygon fill="white" stroke="#666666" points="327.5,-137.5 200.5,-137.5 200.5,-104 327.5,-104 327.5,-137.5"/>
<text text-anchor="start" x="208.5" y="-124" font-family="Helvetica,sans-Serif" font-size="10.00">animartrix_detail::</text>
<text text-anchor="middle" x="264" y="-111.25" font-family="Helvetica,sans-Serif" font-size="10.00">ANIMartRIX::get_ready</text>
</a>
</g>
</g>
<!-- Node1&#45;&gt;Node8 -->
<g id="edge7_Node000001_Node000008" class="edge">
<title>Node1&#45;&gt;Node8</title>
<g id="a_edge7_Node000001_Node000008"><a xlink:title=" ">
<path fill="none" stroke="#63b8ff" d="M138.67,-120.75C154.94,-120.75 172.38,-120.75 188.89,-120.75"/>
<polygon fill="#63b8ff" stroke="#63b8ff" points="188.63,-124.25 198.63,-120.75 188.63,-117.25 188.63,-124.25"/>
</a>
</g>
</g>
<!-- Node10 -->
<g id="Node000010" class="node">
<title>Node10</title>
<g id="a_Node000010"><a xlink:href="../../df/d5e/classanimartrix__detail_1_1_a_n_i_mart_r_i_x.html#a867d92fbbe56d9cdbd02638db2795324" target="_top" xlink:title=" ">
<polygon fill="white" stroke="#666666" points="335,-189.5 193,-189.5 193,-156 335,-156 335,-189.5"/>
<text text-anchor="start" x="201" y="-176" font-family="Helvetica,sans-Serif" font-size="10.00">animartrix_detail::</text>
<text text-anchor="middle" x="264" y="-163.25" font-family="Helvetica,sans-Serif" font-size="10.00">ANIMartRIX::render_value</text>
</a>
</g>
</g>
<!-- Node1&#45;&gt;Node10 -->
<g id="edge9_Node000001_Node000010" class="edge">
<title>Node1&#45;&gt;Node10</title>
<g id="a_edge9_Node000001_Node000010"><a xlink:title=" ">
<path fill="none" stroke="#63b8ff" d="M134.08,-137.99C151.43,-142.67 170.36,-147.77 188.24,-152.59"/>
<polygon fill="#63b8ff" stroke="#63b8ff" points="187.19,-155.94 197.76,-155.16 189.01,-149.18 187.19,-155.94"/>
</a>
</g>
</g>
<!-- Node12 -->
<g id="Node000012" class="node">
<title>Node12</title>
<g id="a_Node000012"><a xlink:href="../../df/d5e/classanimartrix__detail_1_1_a_n_i_mart_r_i_x.html#a67a30ae022755db342ddaafdeb1b7d9f" target="_top" xlink:title=" ">
<polygon fill="white" stroke="#666666" points="345.5,-85.5 182.5,-85.5 182.5,-52 345.5,-52 345.5,-85.5"/>
<text text-anchor="start" x="190.5" y="-72" font-family="Helvetica,sans-Serif" font-size="10.00">animartrix_detail::</text>
<text text-anchor="middle" x="264" y="-59.25" font-family="Helvetica,sans-Serif" font-size="10.00">ANIMartRIX::rgb_sanity_check</text>
</a>
</g>
</g>
<!-- Node1&#45;&gt;Node12 -->
<g id="edge12_Node000001_Node000012" class="edge">
<title>Node1&#45;&gt;Node12</title>
<g id="a_edge12_Node000001_Node000012"><a xlink:title=" ">
<path fill="none" stroke="#63b8ff" d="M134.08,-103.51C151.43,-98.83 170.36,-93.73 188.24,-88.91"/>
<polygon fill="#63b8ff" stroke="#63b8ff" points="189.01,-92.32 197.76,-86.34 187.19,-85.56 189.01,-92.32"/>
</a>
</g>
</g>
<!-- Node13 -->
<g id="Node000013" class="node">
<title>Node13</title>
<g id="a_Node000013"><a xlink:href="../../df/d5e/classanimartrix__detail_1_1_a_n_i_mart_r_i_x.html#abeda45d77e8e41b81cd1e24a004e7f0c" target="_top" xlink:title=" ">
<polygon fill="white" stroke="#666666" points="353.75,-33.5 174.25,-33.5 174.25,0 353.75,0 353.75,-33.5"/>
<text text-anchor="start" x="182.25" y="-20" font-family="Helvetica,sans-Serif" font-size="10.00">animartrix_detail::</text>
<text text-anchor="middle" x="264" y="-7.25" font-family="Helvetica,sans-Serif" font-size="10.00">ANIMartRIX::setPixelColorInternal</text>
</a>
</g>
</g>
<!-- Node1&#45;&gt;Node13 -->
<g id="edge13_Node000001_Node000013" class="edge">
<title>Node1&#45;&gt;Node13</title>
<g id="a_edge13_Node000001_Node000013"><a xlink:title=" ">
<path fill="none" stroke="#63b8ff" d="M88.7,-103.55C108.52,-86.01 141.53,-59.12 174.25,-42.75 177.55,-41.1 180.98,-39.53 184.48,-38.05"/>
<polygon fill="#63b8ff" stroke="#63b8ff" points="185.71,-41.33 193.74,-34.41 183.15,-34.81 185.71,-41.33"/>
</a>
</g>
</g>
<!-- Node3 -->
<g id="Node000003" class="node">
<title>Node3</title>
<g id="a_Node000003"><a xlink:href="../../df/d5e/classanimartrix__detail_1_1_a_n_i_mart_r_i_x.html#aca68cf41172ac73c388dad51b3ab40ab" target="_top" xlink:title=" ">
<polygon fill="white" stroke="#666666" points="512.62,-293.5 393.88,-293.5 393.88,-260 512.62,-260 512.62,-293.5"/>
<text text-anchor="start" x="401.88" y="-280" font-family="Helvetica,sans-Serif" font-size="10.00">animartrix_detail::</text>
<text text-anchor="middle" x="453.25" y="-267.25" font-family="Helvetica,sans-Serif" font-size="10.00">ANIMartRIX::getTime</text>
</a>
</g>
</g>
<!-- Node2&#45;&gt;Node3 -->
<g id="edge2_Node000002_Node000003" class="edge">
<title>Node2&#45;&gt;Node3</title>
<g id="a_edge2_Node000002_Node000003"><a xlink:title=" ">
<path fill="none" stroke="#63b8ff" d="M325.54,-245.62C343.67,-250.08 363.71,-255 382.39,-259.59"/>
<polygon fill="#63b8ff" stroke="#63b8ff" points="381.5,-262.97 392.05,-261.96 383.17,-256.18 381.5,-262.97"/>
</a>
</g>
</g>
<!-- Node4 -->
<g id="Node000004" class="node">
<title>Node4</title>
<g id="a_Node000004"><a xlink:href="../../df/d5e/classanimartrix__detail_1_1_a_n_i_mart_r_i_x.html#a4e599e324fb4f9bec1a113f1843f6058" target="_top" xlink:title=" ">
<polygon fill="white" stroke="#666666" points="508.5,-241.5 398,-241.5 398,-208 508.5,-208 508.5,-241.5"/>
<text text-anchor="start" x="406" y="-228" font-family="Helvetica,sans-Serif" font-size="10.00">animartrix_detail::</text>
<text text-anchor="middle" x="453.25" y="-215.25" font-family="Helvetica,sans-Serif" font-size="10.00">ANIMartRIX::pnoise</text>
</a>
</g>
</g>
<!-- Node2&#45;&gt;Node4 -->
<g id="edge3_Node000002_Node000004" class="edge">
<title>Node2&#45;&gt;Node4</title>
<g id="a_edge3_Node000002_Node000004"><a xlink:title=" ">
<path fill="none" stroke="#63b8ff" d="M325.54,-228.81C344.92,-228.19 366.47,-227.5 386.23,-226.87"/>
<polygon fill="#63b8ff" stroke="#63b8ff" points="386.22,-230.37 396.11,-226.55 386,-223.37 386.22,-230.37"/>
</a>
</g>
</g>
<!-- Node5 -->
<g id="Node000005" class="node">
<title>Node5</title>
<g id="a_Node000005"><a xlink:href="../../df/d5e/classanimartrix__detail_1_1_a_n_i_mart_r_i_x.html#af3fb7d297afe35dea7078be3836aa994" target="_top" xlink:title=" ">
<polygon fill="white" stroke="#666666" points="658.75,-293.5 552.75,-293.5 552.75,-260 658.75,-260 658.75,-293.5"/>
<text text-anchor="start" x="560.75" y="-280" font-family="Helvetica,sans-Serif" font-size="10.00">animartrix_detail::</text>
<text text-anchor="middle" x="605.75" y="-267.25" font-family="Helvetica,sans-Serif" font-size="10.00">ANIMartRIX::fade</text>
</a>
</g>
</g>
<!-- Node4&#45;&gt;Node5 -->
<g id="edge4_Node000004_Node000005" class="edge">
<title>Node4&#45;&gt;Node5</title>
<g id="a_edge4_Node000004_Node000005"><a xlink:title=" ">
<path fill="none" stroke="#63b8ff" d="M503.95,-241.92C516.85,-246.38 530.89,-251.23 544.28,-255.86"/>
<polygon fill="#63b8ff" stroke="#63b8ff" points="542.82,-259.06 553.42,-259.01 545.11,-252.44 542.82,-259.06"/>
</a>
</g>
</g>
<!-- Node6 -->
<g id="Node000006" class="node">
<title>Node6</title>
<g id="a_Node000006"><a xlink:href="../../df/d5e/classanimartrix__detail_1_1_a_n_i_mart_r_i_x.html#acb625b48d9c1beec3067e0c38b7a0b22" target="_top" xlink:title=" ">
<polygon fill="white" stroke="#666666" points="658.75,-241.5 552.75,-241.5 552.75,-208 658.75,-208 658.75,-241.5"/>
<text text-anchor="start" x="560.75" y="-228" font-family="Helvetica,sans-Serif" font-size="10.00">animartrix_detail::</text>
<text text-anchor="middle" x="605.75" y="-215.25" font-family="Helvetica,sans-Serif" font-size="10.00">ANIMartRIX::grad</text>
</a>
</g>
</g>
<!-- Node4&#45;&gt;Node6 -->
<g id="edge5_Node000004_Node000006" class="edge">
<title>Node4&#45;&gt;Node6</title>
<g id="a_edge5_Node000004_Node000006"><a xlink:title=" ">
<path fill="none" stroke="#63b8ff" d="M508.58,-224.75C519.03,-224.75 530.07,-224.75 540.79,-224.75"/>
<polygon fill="#63b8ff" stroke="#63b8ff" points="540.74,-228.25 550.74,-224.75 540.74,-221.25 540.74,-228.25"/>
</a>
</g>
</g>
<!-- Node7 -->
<g id="Node000007" class="node">
<title>Node7</title>
<g id="a_Node000007"><a xlink:href="../../df/d5e/classanimartrix__detail_1_1_a_n_i_mart_r_i_x.html#a7ce0a9b9405217a5b8bf71c88bcb571b" target="_top" xlink:title=" ">
<polygon fill="white" stroke="#666666" points="658.75,-189.5 552.75,-189.5 552.75,-156 658.75,-156 658.75,-189.5"/>
<text text-anchor="start" x="560.75" y="-176" font-family="Helvetica,sans-Serif" font-size="10.00">animartrix_detail::</text>
<text text-anchor="middle" x="605.75" y="-163.25" font-family="Helvetica,sans-Serif" font-size="10.00">ANIMartRIX::lerp</text>
</a>
</g>
</g>
<!-- Node4&#45;&gt;Node7 -->
<g id="edge6_Node000004_Node000007" class="edge">
<title>Node4&#45;&gt;Node7</title>
<g id="a_edge6_Node000004_Node000007"><a xlink:title=" ">
<path fill="none" stroke="#63b8ff" d="M503.95,-207.58C516.85,-203.12 530.89,-198.27 544.28,-193.64"/>
<polygon fill="#63b8ff" stroke="#63b8ff" points="545.11,-197.06 553.42,-190.49 542.82,-190.44 545.11,-197.06"/>
</a>
</g>
</g>
<!-- Node9 -->
<g id="Node000009" class="node">
<title>Node9</title>
<g id="a_Node000009"><a xlink:href="../../df/d5e/classanimartrix__detail_1_1_a_n_i_mart_r_i_x.html#ac384f7991b6c2a4906b1783b7aa59638" target="_top" xlink:title=" ">
<polygon fill="white" stroke="#666666" points="516.38,-137.5 390.12,-137.5 390.12,-104 516.38,-104 516.38,-137.5"/>
<text text-anchor="start" x="398.12" y="-124" font-family="Helvetica,sans-Serif" font-size="10.00">animartrix_detail::</text>
<text text-anchor="middle" x="453.25" y="-111.25" font-family="Helvetica,sans-Serif" font-size="10.00">ANIMartRIX::logOutput</text>
</a>
</g>
</g>
<!-- Node8&#45;&gt;Node9 -->
<g id="edge8_Node000008_Node000009" class="edge">
<title>Node8&#45;&gt;Node9</title>
<g id="a_edge8_Node000008_Node000009"><a xlink:title=" ">
<path fill="none" stroke="#63b8ff" d="M327.87,-120.75C344.1,-120.75 361.72,-120.75 378.45,-120.75"/>
<polygon fill="#63b8ff" stroke="#63b8ff" points="378.35,-124.25 388.35,-120.75 378.35,-117.25 378.35,-124.25"/>
</a>
</g>
</g>
<!-- Node10&#45;&gt;Node4 -->
<g id="edge11_Node000010_Node000004" class="edge">
<title>Node10&#45;&gt;Node4</title>
<g id="a_edge11_Node000010_Node000004"><a xlink:title=" ">
<path fill="none" stroke="#63b8ff" d="M327.09,-189.99C346.22,-195.31 367.35,-201.17 386.71,-206.55"/>
<polygon fill="#63b8ff" stroke="#63b8ff" points="385.53,-209.85 396.1,-209.16 387.4,-203.11 385.53,-209.85"/>
</a>
</g>
</g>
<!-- Node11 -->
<g id="Node000011" class="node">
<title>Node11</title>
<g id="a_Node000011"><a xlink:href="../../df/d5e/classanimartrix__detail_1_1_a_n_i_mart_r_i_x.html#a2006d9bb43b5840274de66a93529a29f" target="_top" xlink:title=" ">
<polygon fill="white" stroke="#666666" points="516.75,-189.5 389.75,-189.5 389.75,-156 516.75,-156 516.75,-189.5"/>
<text text-anchor="start" x="397.75" y="-176" font-family="Helvetica,sans-Serif" font-size="10.00">animartrix_detail::</text>
<text text-anchor="middle" x="453.25" y="-163.25" font-family="Helvetica,sans-Serif" font-size="10.00">ANIMartRIX::map_float</text>
</a>
</g>
</g>
<!-- Node10&#45;&gt;Node11 -->
<g id="edge10_Node000010_Node000011" class="edge">
<title>Node10&#45;&gt;Node11</title>
<g id="a_edge10_Node000010_Node000011"><a xlink:title=" ">
<path fill="none" stroke="#63b8ff" d="M335.26,-172.75C349.26,-172.75 364.01,-172.75 378.13,-172.75"/>
<polygon fill="#63b8ff" stroke="#63b8ff" points="377.79,-176.25 387.79,-172.75 377.79,-169.25 377.79,-176.25"/>
</a>
</g>
</g>
</g>
</svg>
