<?xml version="1.0" encoding="UTF-8" standalone="no"?>
<!DOCTYPE svg PUBLIC "-//W3C//DTD SVG 1.1//EN"
 "http://www.w3.org/Graphics/SVG/1.1/DTD/svg11.dtd">
<!-- Generated by graphviz version 12.2.1 (20241206.2353)
 -->
<!-- Title: animartrix_detail::ANIMartRIX::Complex_Kaleido_2 Pages: 1 -->
<svg width="650pt" height="366pt"
 viewBox="0.00 0.00 650.25 365.88" xmlns="http://www.w3.org/2000/svg" xmlns:xlink="http://www.w3.org/1999/xlink">
<g id="graph0" class="graph" transform="scale(1 1) rotate(0) translate(4 361.88)">
<title>animartrix_detail::ANIMartRIX::Complex_Kaleido_2</title>
<!-- Node1 -->
<g id="Node000001" class="node">
<title>Node1</title>
<g id="a_Node000001"><a xlink:title=" ">
<polygon fill="#999999" stroke="#666666" points="121.75,-195.88 0,-195.88 0,-149.62 121.75,-149.62 121.75,-195.88"/>
<text text-anchor="start" x="8" y="-182.38" font-family="Helvetica,sans-Serif" font-size="10.00">animartrix_detail::</text>
<text text-anchor="start" x="8" y="-169.62" font-family="Helvetica,sans-Serif" font-size="10.00">ANIMartRIX::Complex</text>
<text text-anchor="middle" x="60.88" y="-156.88" font-family="Helvetica,sans-Serif" font-size="10.00">_Kaleido_2</text>
</a>
</g>
</g>
<!-- Node2 -->
<g id="Node000002" class="node">
<title>Node2</title>
<g id="a_Node000002"><a xlink:href="../../df/d5e/classanimartrix__detail_1_1_a_n_i_mart_r_i_x.html#a8f1a3ef6f9688953f30b62ee5a3842e0" target="_top" xlink:title=" ">
<polygon fill="white" stroke="#666666" points="308.75,-357.88 186.25,-357.88 186.25,-311.62 308.75,-311.62 308.75,-357.88"/>
<text text-anchor="start" x="194.25" y="-344.38" font-family="Helvetica,sans-Serif" font-size="10.00">animartrix_detail::</text>
<text text-anchor="start" x="194.25" y="-331.62" font-family="Helvetica,sans-Serif" font-size="10.00">ANIMartRIX::calculate</text>
<text text-anchor="middle" x="247.5" y="-318.88" font-family="Helvetica,sans-Serif" font-size="10.00">_oscillators</text>
</a>
</g>
</g>
<!-- Node1&#45;&gt;Node2 -->
<g id="edge1_Node000001_Node000002" class="edge">
<title>Node1&#45;&gt;Node2</title>
<g id="a_edge1_Node000001_Node000002"><a xlink:title=" ">
<path fill="none" stroke="#63b8ff" d="M73.58,-196.24C89.09,-225.14 119.08,-273.92 157.75,-302.75 163.26,-306.86 169.36,-310.49 175.69,-313.67"/>
<polygon fill="#63b8ff" stroke="#63b8ff" points="173.88,-316.69 184.42,-317.69 176.8,-310.33 173.88,-316.69"/>
</a>
</g>
</g>
<!-- Node8 -->
<g id="Node000008" class="node">
<title>Node8</title>
<g id="a_Node000008"><a xlink:href="../../df/d5e/classanimartrix__detail_1_1_a_n_i_mart_r_i_x.html#ac46f1605c69b2583e3e06bcb1bcb4cd3" target="_top" xlink:title=" ">
<polygon fill="white" stroke="#666666" points="313.62,-293.5 181.38,-293.5 181.38,-260 313.62,-260 313.62,-293.5"/>
<text text-anchor="start" x="189.38" y="-280" font-family="Helvetica,sans-Serif" font-size="10.00">animartrix_detail::</text>
<text text-anchor="middle" x="247.5" y="-267.25" font-family="Helvetica,sans-Serif" font-size="10.00">ANIMartRIX::colordodge</text>
</a>
</g>
</g>
<!-- Node1&#45;&gt;Node8 -->
<g id="edge7_Node000001_Node000008" class="edge">
<title>Node1&#45;&gt;Node8</title>
<g id="a_edge7_Node000001_Node000008"><a xlink:title=" ">
<path fill="none" stroke="#63b8ff" d="M85.17,-196.22C103.48,-213.49 130.4,-236.37 157.75,-250.75 161.91,-252.94 166.27,-254.96 170.74,-256.83"/>
<polygon fill="#63b8ff" stroke="#63b8ff" points="169.33,-260.04 179.91,-260.39 171.85,-253.51 169.33,-260.04"/>
</a>
</g>
</g>
<!-- Node9 -->
<g id="Node000009" class="node">
<title>Node9</title>
<g id="a_Node000009"><a xlink:href="../../df/d5e/classanimartrix__detail_1_1_a_n_i_mart_r_i_x.html#a087a9473459c121592e78b11d617820b" target="_top" xlink:title=" ">
<polygon fill="white" stroke="#666666" points="311,-189.5 184,-189.5 184,-156 311,-156 311,-189.5"/>
<text text-anchor="start" x="192" y="-176" font-family="Helvetica,sans-Serif" font-size="10.00">animartrix_detail::</text>
<text text-anchor="middle" x="247.5" y="-163.25" font-family="Helvetica,sans-Serif" font-size="10.00">ANIMartRIX::get_ready</text>
</a>
</g>
</g>
<!-- Node1&#45;&gt;Node9 -->
<g id="edge8_Node000001_Node000009" class="edge">
<title>Node1&#45;&gt;Node9</title>
<g id="a_edge8_Node000001_Node000009"><a xlink:title=" ">
<path fill="none" stroke="#63b8ff" d="M122.07,-172.75C138.06,-172.75 155.52,-172.75 172.16,-172.75"/>
<polygon fill="#63b8ff" stroke="#63b8ff" points="172.02,-176.25 182.02,-172.75 172.02,-169.25 172.02,-176.25"/>
</a>
</g>
</g>
<!-- Node11 -->
<g id="Node000011" class="node">
<title>Node11</title>
<g id="a_Node000011"><a xlink:href="../../df/d5e/classanimartrix__detail_1_1_a_n_i_mart_r_i_x.html#a867d92fbbe56d9cdbd02638db2795324" target="_top" xlink:title=" ">
<polygon fill="white" stroke="#666666" points="318.5,-241.5 176.5,-241.5 176.5,-208 318.5,-208 318.5,-241.5"/>
<text text-anchor="start" x="184.5" y="-228" font-family="Helvetica,sans-Serif" font-size="10.00">animartrix_detail::</text>
<text text-anchor="middle" x="247.5" y="-215.25" font-family="Helvetica,sans-Serif" font-size="10.00">ANIMartRIX::render_value</text>
</a>
</g>
</g>
<!-- Node1&#45;&gt;Node11 -->
<g id="edge10_Node000001_Node000011" class="edge">
<title>Node1&#45;&gt;Node11</title>
<g id="a_edge10_Node000001_Node000011"><a xlink:title=" ">
<path fill="none" stroke="#63b8ff" d="M122.07,-189.7C138.89,-194.44 157.33,-199.64 174.75,-204.54"/>
<polygon fill="#63b8ff" stroke="#63b8ff" points="173.4,-207.8 183.98,-207.14 175.3,-201.06 173.4,-207.8"/>
</a>
</g>
</g>
<!-- Node13 -->
<g id="Node000013" class="node">
<title>Node13</title>
<g id="a_Node000013"><a xlink:href="../../df/d5e/classanimartrix__detail_1_1_a_n_i_mart_r_i_x.html#a67a30ae022755db342ddaafdeb1b7d9f" target="_top" xlink:title=" ">
<polygon fill="white" stroke="#666666" points="329,-137.5 166,-137.5 166,-104 329,-104 329,-137.5"/>
<text text-anchor="start" x="174" y="-124" font-family="Helvetica,sans-Serif" font-size="10.00">animartrix_detail::</text>
<text text-anchor="middle" x="247.5" y="-111.25" font-family="Helvetica,sans-Serif" font-size="10.00">ANIMartRIX::rgb_sanity_check</text>
</a>
</g>
</g>
<!-- Node1&#45;&gt;Node13 -->
<g id="edge13_Node000001_Node000013" class="edge">
<title>Node1&#45;&gt;Node13</title>
<g id="a_edge13_Node000001_Node000013"><a xlink:title=" ">
<path fill="none" stroke="#63b8ff" d="M122.07,-155.8C138.89,-151.06 157.33,-145.86 174.75,-140.96"/>
<polygon fill="#63b8ff" stroke="#63b8ff" points="175.3,-144.44 183.98,-138.36 173.4,-137.7 175.3,-144.44"/>
</a>
</g>
</g>
<!-- Node14 -->
<g id="Node000014" class="node">
<title>Node14</title>
<g id="a_Node000014"><a xlink:href="../../df/d5e/classanimartrix__detail_1_1_a_n_i_mart_r_i_x.html#afa21f4025e5086d591b75af4884e2cf8" target="_top" xlink:title=" ">
<polygon fill="white" stroke="#666666" points="302.75,-85.5 192.25,-85.5 192.25,-52 302.75,-52 302.75,-85.5"/>
<text text-anchor="start" x="200.25" y="-72" font-family="Helvetica,sans-Serif" font-size="10.00">animartrix_detail::</text>
<text text-anchor="middle" x="247.5" y="-59.25" font-family="Helvetica,sans-Serif" font-size="10.00">ANIMartRIX::screen</text>
</a>
</g>
</g>
<!-- Node1&#45;&gt;Node14 -->
<g id="edge14_Node000001_Node000014" class="edge">
<title>Node1&#45;&gt;Node14</title>
<g id="a_edge14_Node000001_Node000014"><a xlink:title=" ">
<path fill="none" stroke="#63b8ff" d="M85.17,-149.28C103.48,-132.01 130.4,-109.13 157.75,-94.75 165.16,-90.85 173.24,-87.47 181.4,-84.54"/>
<polygon fill="#63b8ff" stroke="#63b8ff" points="182.31,-87.93 190.69,-81.44 180.09,-81.29 182.31,-87.93"/>
</a>
</g>
</g>
<!-- Node15 -->
<g id="Node000015" class="node">
<title>Node15</title>
<g id="a_Node000015"><a xlink:href="../../df/d5e/classanimartrix__detail_1_1_a_n_i_mart_r_i_x.html#abeda45d77e8e41b81cd1e24a004e7f0c" target="_top" xlink:title=" ">
<polygon fill="white" stroke="#666666" points="337.25,-33.5 157.75,-33.5 157.75,0 337.25,0 337.25,-33.5"/>
<text text-anchor="start" x="165.75" y="-20" font-family="Helvetica,sans-Serif" font-size="10.00">animartrix_detail::</text>
<text text-anchor="middle" x="247.5" y="-7.25" font-family="Helvetica,sans-Serif" font-size="10.00">ANIMartRIX::setPixelColorInternal</text>
</a>
</g>
</g>
<!-- Node1&#45;&gt;Node15 -->
<g id="edge15_Node000001_Node000015" class="edge">
<title>Node1&#45;&gt;Node15</title>
<g id="a_edge15_Node000001_Node000015"><a xlink:title=" ">
<path fill="none" stroke="#63b8ff" d="M73.17,-149.13C88.36,-119.86 118.1,-70.47 157.75,-42.75 159.58,-41.47 161.46,-40.26 163.4,-39.1"/>
<polygon fill="#63b8ff" stroke="#63b8ff" points="164.91,-42.27 172.13,-34.51 161.65,-36.07 164.91,-42.27"/>
</a>
</g>
</g>
<!-- Node3 -->
<g id="Node000003" class="node">
<title>Node3</title>
<g id="a_Node000003"><a xlink:href="../../df/d5e/classanimartrix__detail_1_1_a_n_i_mart_r_i_x.html#aca68cf41172ac73c388dad51b3ab40ab" target="_top" xlink:title=" ">
<polygon fill="white" stroke="#666666" points="496.12,-351.5 377.38,-351.5 377.38,-318 496.12,-318 496.12,-351.5"/>
<text text-anchor="start" x="385.38" y="-338" font-family="Helvetica,sans-Serif" font-size="10.00">animartrix_detail::</text>
<text text-anchor="middle" x="436.75" y="-325.25" font-family="Helvetica,sans-Serif" font-size="10.00">ANIMartRIX::getTime</text>
</a>
</g>
</g>
<!-- Node2&#45;&gt;Node3 -->
<g id="edge2_Node000002_Node000003" class="edge">
<title>Node2&#45;&gt;Node3</title>
<g id="a_edge2_Node000002_Node000003"><a xlink:title=" ">
<path fill="none" stroke="#63b8ff" d="M309.04,-334.75C327.09,-334.75 347.02,-334.75 365.63,-334.75"/>
<polygon fill="#63b8ff" stroke="#63b8ff" points="365.51,-338.25 375.51,-334.75 365.51,-331.25 365.51,-338.25"/>
</a>
</g>
</g>
<!-- Node4 -->
<g id="Node000004" class="node">
<title>Node4</title>
<g id="a_Node000004"><a xlink:href="../../df/d5e/classanimartrix__detail_1_1_a_n_i_mart_r_i_x.html#a4e599e324fb4f9bec1a113f1843f6058" target="_top" xlink:title=" ">
<polygon fill="white" stroke="#666666" points="492,-296.5 381.5,-296.5 381.5,-263 492,-263 492,-296.5"/>
<text text-anchor="start" x="389.5" y="-283" font-family="Helvetica,sans-Serif" font-size="10.00">animartrix_detail::</text>
<text text-anchor="middle" x="436.75" y="-270.25" font-family="Helvetica,sans-Serif" font-size="10.00">ANIMartRIX::pnoise</text>
</a>
</g>
</g>
<!-- Node2&#45;&gt;Node4 -->
<g id="edge3_Node000002_Node000004" class="edge">
<title>Node2&#45;&gt;Node4</title>
<g id="a_edge3_Node000002_Node000004"><a xlink:title=" ">
<path fill="none" stroke="#63b8ff" d="M309.04,-316.97C328.6,-311.22 350.38,-304.83 370.28,-298.98"/>
<polygon fill="#63b8ff" stroke="#63b8ff" points="371.06,-302.4 379.67,-296.22 369.09,-295.68 371.06,-302.4"/>
</a>
</g>
</g>
<!-- Node5 -->
<g id="Node000005" class="node">
<title>Node5</title>
<g id="a_Node000005"><a xlink:href="../../df/d5e/classanimartrix__detail_1_1_a_n_i_mart_r_i_x.html#af3fb7d297afe35dea7078be3836aa994" target="_top" xlink:title=" ">
<polygon fill="white" stroke="#666666" points="642.25,-348.5 536.25,-348.5 536.25,-315 642.25,-315 642.25,-348.5"/>
<text text-anchor="start" x="544.25" y="-335" font-family="Helvetica,sans-Serif" font-size="10.00">animartrix_detail::</text>
<text text-anchor="middle" x="589.25" y="-322.25" font-family="Helvetica,sans-Serif" font-size="10.00">ANIMartRIX::fade</text>
</a>
</g>
</g>
<!-- Node4&#45;&gt;Node5 -->
<g id="edge4_Node000004_Node000005" class="edge">
<title>Node4&#45;&gt;Node5</title>
<g id="a_edge4_Node000004_Node000005"><a xlink:title=" ">
<path fill="none" stroke="#63b8ff" d="M487.45,-296.92C500.35,-301.38 514.39,-306.23 527.78,-310.86"/>
<polygon fill="#63b8ff" stroke="#63b8ff" points="526.32,-314.06 536.92,-314.01 528.61,-307.44 526.32,-314.06"/>
</a>
</g>
</g>
<!-- Node6 -->
<g id="Node000006" class="node">
<title>Node6</title>
<g id="a_Node000006"><a xlink:href="../../df/d5e/classanimartrix__detail_1_1_a_n_i_mart_r_i_x.html#acb625b48d9c1beec3067e0c38b7a0b22" target="_top" xlink:title=" ">
<polygon fill="white" stroke="#666666" points="642.25,-296.5 536.25,-296.5 536.25,-263 642.25,-263 642.25,-296.5"/>
<text text-anchor="start" x="544.25" y="-283" font-family="Helvetica,sans-Serif" font-size="10.00">animartrix_detail::</text>
<text text-anchor="middle" x="589.25" y="-270.25" font-family="Helvetica,sans-Serif" font-size="10.00">ANIMartRIX::grad</text>
</a>
</g>
</g>
<!-- Node4&#45;&gt;Node6 -->
<g id="edge5_Node000004_Node000006" class="edge">
<title>Node4&#45;&gt;Node6</title>
<g id="a_edge5_Node000004_Node000006"><a xlink:title=" ">
<path fill="none" stroke="#63b8ff" d="M492.08,-279.75C502.53,-279.75 513.57,-279.75 524.29,-279.75"/>
<polygon fill="#63b8ff" stroke="#63b8ff" points="524.24,-283.25 534.24,-279.75 524.24,-276.25 524.24,-283.25"/>
</a>
</g>
</g>
<!-- Node7 -->
<g id="Node000007" class="node">
<title>Node7</title>
<g id="a_Node000007"><a xlink:href="../../df/d5e/classanimartrix__detail_1_1_a_n_i_mart_r_i_x.html#a7ce0a9b9405217a5b8bf71c88bcb571b" target="_top" xlink:title=" ">
<polygon fill="white" stroke="#666666" points="642.25,-244.5 536.25,-244.5 536.25,-211 642.25,-211 642.25,-244.5"/>
<text text-anchor="start" x="544.25" y="-231" font-family="Helvetica,sans-Serif" font-size="10.00">animartrix_detail::</text>
<text text-anchor="middle" x="589.25" y="-218.25" font-family="Helvetica,sans-Serif" font-size="10.00">ANIMartRIX::lerp</text>
</a>
</g>
</g>
<!-- Node4&#45;&gt;Node7 -->
<g id="edge6_Node000004_Node000007" class="edge">
<title>Node4&#45;&gt;Node7</title>
<g id="a_edge6_Node000004_Node000007"><a xlink:title=" ">
<path fill="none" stroke="#63b8ff" d="M487.45,-262.58C500.35,-258.12 514.39,-253.27 527.78,-248.64"/>
<polygon fill="#63b8ff" stroke="#63b8ff" points="528.61,-252.06 536.92,-245.49 526.32,-245.44 528.61,-252.06"/>
</a>
</g>
</g>
<!-- Node10 -->
<g id="Node000010" class="node">
<title>Node10</title>
<g id="a_Node000010"><a xlink:href="../../df/d5e/classanimartrix__detail_1_1_a_n_i_mart_r_i_x.html#ac384f7991b6c2a4906b1783b7aa59638" target="_top" xlink:title=" ">
<polygon fill="white" stroke="#666666" points="499.88,-189.5 373.62,-189.5 373.62,-156 499.88,-156 499.88,-189.5"/>
<text text-anchor="start" x="381.62" y="-176" font-family="Helvetica,sans-Serif" font-size="10.00">animartrix_detail::</text>
<text text-anchor="middle" x="436.75" y="-163.25" font-family="Helvetica,sans-Serif" font-size="10.00">ANIMartRIX::logOutput</text>
</a>
</g>
</g>
<!-- Node9&#45;&gt;Node10 -->
<g id="edge9_Node000009_Node000010" class="edge">
<title>Node9&#45;&gt;Node10</title>
<g id="a_edge9_Node000009_Node000010"><a xlink:title=" ">
<path fill="none" stroke="#63b8ff" d="M311.37,-172.75C327.6,-172.75 345.22,-172.75 361.95,-172.75"/>
<polygon fill="#63b8ff" stroke="#63b8ff" points="361.85,-176.25 371.85,-172.75 361.85,-169.25 361.85,-176.25"/>
</a>
</g>
</g>
<!-- Node11&#45;&gt;Node4 -->
<g id="edge12_Node000011_Node000004" class="edge">
<title>Node11&#45;&gt;Node4</title>
<g id="a_edge12_Node000011_Node000004"><a xlink:title=" ">
<path fill="none" stroke="#63b8ff" d="M307.22,-241.94C317.24,-244.88 327.54,-247.9 337.25,-250.75 347.9,-253.88 359.19,-257.2 370.19,-260.43"/>
<polygon fill="#63b8ff" stroke="#63b8ff" points="369.01,-263.74 379.6,-263.2 370.99,-257.02 369.01,-263.74"/>
</a>
</g>
</g>
<!-- Node12 -->
<g id="Node000012" class="node">
<title>Node12</title>
<g id="a_Node000012"><a xlink:href="../../df/d5e/classanimartrix__detail_1_1_a_n_i_mart_r_i_x.html#a2006d9bb43b5840274de66a93529a29f" target="_top" xlink:title=" ">
<polygon fill="white" stroke="#666666" points="500.25,-241.5 373.25,-241.5 373.25,-208 500.25,-208 500.25,-241.5"/>
<text text-anchor="start" x="381.25" y="-228" font-family="Helvetica,sans-Serif" font-size="10.00">animartrix_detail::</text>
<text text-anchor="middle" x="436.75" y="-215.25" font-family="Helvetica,sans-Serif" font-size="10.00">ANIMartRIX::map_float</text>
</a>
</g>
</g>
<!-- Node11&#45;&gt;Node12 -->
<g id="edge11_Node000011_Node000012" class="edge">
<title>Node11&#45;&gt;Node12</title>
<g id="a_edge11_Node000011_Node000012"><a xlink:title=" ">
<path fill="none" stroke="#63b8ff" d="M318.76,-224.75C332.76,-224.75 347.51,-224.75 361.63,-224.75"/>
<polygon fill="#63b8ff" stroke="#63b8ff" points="361.29,-228.25 371.29,-224.75 361.29,-221.25 361.29,-228.25"/>
</a>
</g>
</g>
</g>
</svg>
