<?xml version="1.0" encoding="UTF-8" standalone="no"?>
<!DOCTYPE svg PUBLIC "-//W3C//DTD SVG 1.1//EN"
 "http://www.w3.org/Graphics/SVG/1.1/DTD/svg11.dtd">
<!-- Generated by graphviz version 12.2.1 (20241206.2353)
 -->
<!-- Title: animartrix_detail::ANIMartRIX::add Pages: 1 -->
<svg width="256pt" height="146pt"
 viewBox="0.00 0.00 256.00 145.50" xmlns="http://www.w3.org/2000/svg" xmlns:xlink="http://www.w3.org/1999/xlink">
<g id="graph0" class="graph" transform="scale(1 1) rotate(0) translate(4 141.5)">
<title>animartrix_detail::ANIMartRIX::add</title>
<!-- Node1 -->
<g id="Node000001" class="node">
<title>Node1</title>
<g id="a_Node000001"><a xlink:title=" ">
<polygon fill="#999999" stroke="#666666" points="248,-85.5 142,-85.5 142,-52 248,-52 248,-85.5"/>
<text text-anchor="start" x="150" y="-72" font-family="Helvetica,sans-Serif" font-size="10.00">animartrix_detail::</text>
<text text-anchor="middle" x="195" y="-59.25" font-family="Helvetica,sans-Serif" font-size="10.00">ANIMartRIX::add</text>
</a>
</g>
</g>
<!-- Node2 -->
<g id="Node000002" class="node">
<title>Node2</title>
<g id="a_Node000002"><a xlink:href="../../df/d5e/classanimartrix__detail_1_1_a_n_i_mart_r_i_x.html#a034daa1ad2b1306def22f317ac103f2e" target="_top" xlink:title=" ">
<polygon fill="white" stroke="#666666" points="106,-137.5 0,-137.5 0,-104 106,-104 106,-137.5"/>
<text text-anchor="start" x="8" y="-124" font-family="Helvetica,sans-Serif" font-size="10.00">animartrix_detail::</text>
<text text-anchor="middle" x="53" y="-111.25" font-family="Helvetica,sans-Serif" font-size="10.00">ANIMartRIX::SM4</text>
</a>
</g>
</g>
<!-- Node1&#45;&gt;Node2 -->
<g id="edge1_Node000001_Node000002" class="edge">
<title>Node1&#45;&gt;Node2</title>
<g id="a_edge1_Node000001_Node000002"><a xlink:title=" ">
<path fill="none" stroke="#63b8ff" d="M137.15,-89.86C124.86,-94.43 112.01,-99.21 100.18,-103.6"/>
<polygon fill="#63b8ff" stroke="#63b8ff" points="138.2,-93.21 146.35,-86.45 135.76,-86.65 138.2,-93.21"/>
</a>
</g>
</g>
<!-- Node3 -->
<g id="Node000003" class="node">
<title>Node3</title>
<g id="a_Node000003"><a xlink:href="../../df/d5e/classanimartrix__detail_1_1_a_n_i_mart_r_i_x.html#a7d0e3fc2284c9c371943c60022d9bdf0" target="_top" xlink:title=" ">
<polygon fill="white" stroke="#666666" points="106,-85.5 0,-85.5 0,-52 106,-52 106,-85.5"/>
<text text-anchor="start" x="8" y="-72" font-family="Helvetica,sans-Serif" font-size="10.00">animartrix_detail::</text>
<text text-anchor="middle" x="53" y="-59.25" font-family="Helvetica,sans-Serif" font-size="10.00">ANIMartRIX::SM5</text>
</a>
</g>
</g>
<!-- Node1&#45;&gt;Node3 -->
<g id="edge2_Node000001_Node000003" class="edge">
<title>Node1&#45;&gt;Node3</title>
<g id="a_edge2_Node000001_Node000003"><a xlink:title=" ">
<path fill="none" stroke="#63b8ff" d="M130.49,-68.75C122.36,-68.75 114.1,-68.75 106.17,-68.75"/>
<polygon fill="#63b8ff" stroke="#63b8ff" points="130.36,-72.25 140.36,-68.75 130.36,-65.25 130.36,-72.25"/>
</a>
</g>
</g>
<!-- Node4 -->
<g id="Node000004" class="node">
<title>Node4</title>
<g id="a_Node000004"><a xlink:href="../../df/d5e/classanimartrix__detail_1_1_a_n_i_mart_r_i_x.html#a19408db3c2f47c7009d2cd71dc6fe4c3" target="_top" xlink:title=" ">
<polygon fill="white" stroke="#666666" points="106,-33.5 0,-33.5 0,0 106,0 106,-33.5"/>
<text text-anchor="start" x="8" y="-20" font-family="Helvetica,sans-Serif" font-size="10.00">animartrix_detail::</text>
<text text-anchor="middle" x="53" y="-7.25" font-family="Helvetica,sans-Serif" font-size="10.00">ANIMartRIX::SM8</text>
</a>
</g>
</g>
<!-- Node1&#45;&gt;Node4 -->
<g id="edge3_Node000001_Node000004" class="edge">
<title>Node1&#45;&gt;Node4</title>
<g id="a_edge3_Node000001_Node000004"><a xlink:title=" ">
<path fill="none" stroke="#63b8ff" d="M137.15,-47.64C124.86,-43.07 112.01,-38.29 100.18,-33.9"/>
<polygon fill="#63b8ff" stroke="#63b8ff" points="135.76,-50.85 146.35,-51.05 138.2,-44.29 135.76,-50.85"/>
</a>
</g>
</g>
</g>
</svg>
