<?xml version="1.0" encoding="UTF-8" standalone="no"?>
<!DOCTYPE svg PUBLIC "-//W3C//DTD SVG 1.1//EN"
 "http://www.w3.org/Graphics/SVG/1.1/DTD/svg11.dtd">
<!-- Generated by graphviz version 12.2.1 (20241206.2353)
 -->
<!-- Title: animartrix_detail::ANIMartRIX::init Pages: 1 -->
<svg width="285pt" height="94pt"
 viewBox="0.00 0.00 284.50 93.50" xmlns="http://www.w3.org/2000/svg" xmlns:xlink="http://www.w3.org/1999/xlink">
<g id="graph0" class="graph" transform="scale(1 1) rotate(0) translate(4 89.5)">
<title>animartrix_detail::ANIMartRIX::init</title>
<!-- Node1 -->
<g id="Node000001" class="node">
<title>Node1</title>
<g id="a_Node000001"><a xlink:title=" ">
<polygon fill="#999999" stroke="#666666" points="276.5,-59.5 170.5,-59.5 170.5,-26 276.5,-26 276.5,-59.5"/>
<text text-anchor="start" x="178.5" y="-46" font-family="Helvetica,sans-Serif" font-size="10.00">animartrix_detail::</text>
<text text-anchor="middle" x="223.5" y="-33.25" font-family="Helvetica,sans-Serif" font-size="10.00">ANIMartRIX::init</text>
</a>
</g>
</g>
<!-- Node2 -->
<g id="Node000002" class="node">
<title>Node2</title>
<g id="a_Node000002"><a xlink:href="../../df/d5e/classanimartrix__detail_1_1_a_n_i_mart_r_i_x.html#a7475f43844321f5765c915e183eb7674" target="_top" xlink:title=" ">
<polygon fill="white" stroke="#666666" points="134.5,-85.5 0,-85.5 0,-52 134.5,-52 134.5,-85.5"/>
<text text-anchor="start" x="8" y="-72" font-family="Helvetica,sans-Serif" font-size="10.00">animartrix_detail::</text>
<text text-anchor="middle" x="67.25" y="-59.25" font-family="Helvetica,sans-Serif" font-size="10.00">ANIMartRIX::ANIMartRIX</text>
</a>
</g>
</g>
<!-- Node1&#45;&gt;Node2 -->
<g id="edge1_Node000001_Node000002" class="edge">
<title>Node1&#45;&gt;Node2</title>
<g id="a_edge1_Node000001_Node000002"><a xlink:title=" ">
<path fill="none" stroke="#63b8ff" d="M159.15,-53.43C151.15,-54.78 142.96,-56.16 134.91,-57.51"/>
<polygon fill="#63b8ff" stroke="#63b8ff" points="159.51,-56.92 168.79,-51.8 158.34,-50.01 159.51,-56.92"/>
</a>
</g>
</g>
<!-- Node3 -->
<g id="Node000003" class="node">
<title>Node3</title>
<g id="a_Node000003"><a xlink:href="../../d1/dda/classfl_1_1_fast_l_e_d_a_n_i_mart_r_i_x.html#aa56ac3bf96d04364798cbfee1515d61b" target="_top" xlink:title=" ">
<polygon fill="white" stroke="#666666" points="128.5,-33.5 6,-33.5 6,0 128.5,0 128.5,-33.5"/>
<text text-anchor="start" x="14" y="-20" font-family="Helvetica,sans-Serif" font-size="10.00">fl::FastLEDANIMartRIX</text>
<text text-anchor="middle" x="67.25" y="-7.25" font-family="Helvetica,sans-Serif" font-size="10.00">::FastLEDANIMartRIX</text>
</a>
</g>
</g>
<!-- Node1&#45;&gt;Node3 -->
<g id="edge2_Node000001_Node000003" class="edge">
<title>Node1&#45;&gt;Node3</title>
<g id="a_edge2_Node000001_Node000003"><a xlink:title=" ">
<path fill="none" stroke="#63b8ff" d="M159.17,-32.08C149.18,-30.39 138.87,-28.65 128.94,-26.98"/>
<polygon fill="#63b8ff" stroke="#63b8ff" points="158.34,-35.49 168.79,-33.7 159.51,-28.58 158.34,-35.49"/>
</a>
</g>
</g>
</g>
</svg>
