<?xml version="1.0" encoding="UTF-8" standalone="no"?>
<!DOCTYPE svg PUBLIC "-//W3C//DTD SVG 1.1//EN"
 "http://www.w3.org/Graphics/SVG/1.1/DTD/svg11.dtd">
<!-- Generated by graphviz version 12.2.1 (20241206.2353)
 -->
<!-- Title: animartrix_detail::ANIMartRIX::Complex_Kaleido_5 Pages: 1 -->
<svg width="650pt" height="302pt"
 viewBox="0.00 0.00 650.25 301.50" xmlns="http://www.w3.org/2000/svg" xmlns:xlink="http://www.w3.org/1999/xlink">
<g id="graph0" class="graph" transform="scale(1 1) rotate(0) translate(4 297.5)">
<title>animartrix_detail::ANIMartRIX::Complex_Kaleido_5</title>
<!-- Node1 -->
<g id="Node000001" class="node">
<title>Node1</title>
<g id="a_Node000001"><a xlink:title=" ">
<polygon fill="#999999" stroke="#666666" points="121.75,-143.88 0,-143.88 0,-97.62 121.75,-97.62 121.75,-143.88"/>
<text text-anchor="start" x="8" y="-130.38" font-family="Helvetica,sans-Serif" font-size="10.00">animartrix_detail::</text>
<text text-anchor="start" x="8" y="-117.62" font-family="Helvetica,sans-Serif" font-size="10.00">ANIMartRIX::Complex</text>
<text text-anchor="middle" x="60.88" y="-104.88" font-family="Helvetica,sans-Serif" font-size="10.00">_Kaleido_5</text>
</a>
</g>
</g>
<!-- Node2 -->
<g id="Node000002" class="node">
<title>Node2</title>
<g id="a_Node000002"><a xlink:href="../../df/d5e/classanimartrix__detail_1_1_a_n_i_mart_r_i_x.html#a8f1a3ef6f9688953f30b62ee5a3842e0" target="_top" xlink:title=" ">
<polygon fill="white" stroke="#666666" points="308.75,-253.88 186.25,-253.88 186.25,-207.62 308.75,-207.62 308.75,-253.88"/>
<text text-anchor="start" x="194.25" y="-240.38" font-family="Helvetica,sans-Serif" font-size="10.00">animartrix_detail::</text>
<text text-anchor="start" x="194.25" y="-227.62" font-family="Helvetica,sans-Serif" font-size="10.00">ANIMartRIX::calculate</text>
<text text-anchor="middle" x="247.5" y="-214.88" font-family="Helvetica,sans-Serif" font-size="10.00">_oscillators</text>
</a>
</g>
</g>
<!-- Node1&#45;&gt;Node2 -->
<g id="edge1_Node000001_Node000002" class="edge">
<title>Node1&#45;&gt;Node2</title>
<g id="a_edge1_Node000001_Node000002"><a xlink:title=" ">
<path fill="none" stroke="#63b8ff" d="M85.81,-144.1C104.25,-161.08 131.04,-183.65 157.75,-198.75 163.41,-201.95 169.46,-204.93 175.62,-207.68"/>
<polygon fill="#63b8ff" stroke="#63b8ff" points="174.11,-210.84 184.68,-211.49 176.82,-204.39 174.11,-210.84"/>
</a>
</g>
</g>
<!-- Node8 -->
<g id="Node000008" class="node">
<title>Node8</title>
<g id="a_Node000008"><a xlink:href="../../df/d5e/classanimartrix__detail_1_1_a_n_i_mart_r_i_x.html#a087a9473459c121592e78b11d617820b" target="_top" xlink:title=" ">
<polygon fill="white" stroke="#666666" points="311,-137.5 184,-137.5 184,-104 311,-104 311,-137.5"/>
<text text-anchor="start" x="192" y="-124" font-family="Helvetica,sans-Serif" font-size="10.00">animartrix_detail::</text>
<text text-anchor="middle" x="247.5" y="-111.25" font-family="Helvetica,sans-Serif" font-size="10.00">ANIMartRIX::get_ready</text>
</a>
</g>
</g>
<!-- Node1&#45;&gt;Node8 -->
<g id="edge7_Node000001_Node000008" class="edge">
<title>Node1&#45;&gt;Node8</title>
<g id="a_edge7_Node000001_Node000008"><a xlink:title=" ">
<path fill="none" stroke="#63b8ff" d="M122.07,-120.75C138.06,-120.75 155.52,-120.75 172.16,-120.75"/>
<polygon fill="#63b8ff" stroke="#63b8ff" points="172.02,-124.25 182.02,-120.75 172.02,-117.25 172.02,-124.25"/>
</a>
</g>
</g>
<!-- Node10 -->
<g id="Node000010" class="node">
<title>Node10</title>
<g id="a_Node000010"><a xlink:href="../../df/d5e/classanimartrix__detail_1_1_a_n_i_mart_r_i_x.html#a867d92fbbe56d9cdbd02638db2795324" target="_top" xlink:title=" ">
<polygon fill="white" stroke="#666666" points="318.5,-189.5 176.5,-189.5 176.5,-156 318.5,-156 318.5,-189.5"/>
<text text-anchor="start" x="184.5" y="-176" font-family="Helvetica,sans-Serif" font-size="10.00">animartrix_detail::</text>
<text text-anchor="middle" x="247.5" y="-163.25" font-family="Helvetica,sans-Serif" font-size="10.00">ANIMartRIX::render_value</text>
</a>
</g>
</g>
<!-- Node1&#45;&gt;Node10 -->
<g id="edge9_Node000001_Node000010" class="edge">
<title>Node1&#45;&gt;Node10</title>
<g id="a_edge9_Node000001_Node000010"><a xlink:title=" ">
<path fill="none" stroke="#63b8ff" d="M122.07,-137.7C138.89,-142.44 157.33,-147.64 174.75,-152.54"/>
<polygon fill="#63b8ff" stroke="#63b8ff" points="173.4,-155.8 183.98,-155.14 175.3,-149.06 173.4,-155.8"/>
</a>
</g>
</g>
<!-- Node12 -->
<g id="Node000012" class="node">
<title>Node12</title>
<g id="a_Node000012"><a xlink:href="../../df/d5e/classanimartrix__detail_1_1_a_n_i_mart_r_i_x.html#a67a30ae022755db342ddaafdeb1b7d9f" target="_top" xlink:title=" ">
<polygon fill="white" stroke="#666666" points="329,-85.5 166,-85.5 166,-52 329,-52 329,-85.5"/>
<text text-anchor="start" x="174" y="-72" font-family="Helvetica,sans-Serif" font-size="10.00">animartrix_detail::</text>
<text text-anchor="middle" x="247.5" y="-59.25" font-family="Helvetica,sans-Serif" font-size="10.00">ANIMartRIX::rgb_sanity_check</text>
</a>
</g>
</g>
<!-- Node1&#45;&gt;Node12 -->
<g id="edge12_Node000001_Node000012" class="edge">
<title>Node1&#45;&gt;Node12</title>
<g id="a_edge12_Node000001_Node000012"><a xlink:title=" ">
<path fill="none" stroke="#63b8ff" d="M122.07,-103.8C138.89,-99.06 157.33,-93.86 174.75,-88.96"/>
<polygon fill="#63b8ff" stroke="#63b8ff" points="175.3,-92.44 183.98,-86.36 173.4,-85.7 175.3,-92.44"/>
</a>
</g>
</g>
<!-- Node13 -->
<g id="Node000013" class="node">
<title>Node13</title>
<g id="a_Node000013"><a xlink:href="../../df/d5e/classanimartrix__detail_1_1_a_n_i_mart_r_i_x.html#abeda45d77e8e41b81cd1e24a004e7f0c" target="_top" xlink:title=" ">
<polygon fill="white" stroke="#666666" points="337.25,-33.5 157.75,-33.5 157.75,0 337.25,0 337.25,-33.5"/>
<text text-anchor="start" x="165.75" y="-20" font-family="Helvetica,sans-Serif" font-size="10.00">animartrix_detail::</text>
<text text-anchor="middle" x="247.5" y="-7.25" font-family="Helvetica,sans-Serif" font-size="10.00">ANIMartRIX::setPixelColorInternal</text>
</a>
</g>
</g>
<!-- Node1&#45;&gt;Node13 -->
<g id="edge13_Node000001_Node000013" class="edge">
<title>Node1&#45;&gt;Node13</title>
<g id="a_edge13_Node000001_Node000013"><a xlink:title=" ">
<path fill="none" stroke="#63b8ff" d="M85.17,-97.28C103.48,-80.01 130.4,-57.13 157.75,-42.75 160.78,-41.16 163.92,-39.65 167.13,-38.23"/>
<polygon fill="#63b8ff" stroke="#63b8ff" points="168.25,-41.55 176.18,-34.52 165.6,-35.07 168.25,-41.55"/>
</a>
</g>
</g>
<!-- Node3 -->
<g id="Node000003" class="node">
<title>Node3</title>
<g id="a_Node000003"><a xlink:href="../../df/d5e/classanimartrix__detail_1_1_a_n_i_mart_r_i_x.html#aca68cf41172ac73c388dad51b3ab40ab" target="_top" xlink:title=" ">
<polygon fill="white" stroke="#666666" points="496.12,-293.5 377.38,-293.5 377.38,-260 496.12,-260 496.12,-293.5"/>
<text text-anchor="start" x="385.38" y="-280" font-family="Helvetica,sans-Serif" font-size="10.00">animartrix_detail::</text>
<text text-anchor="middle" x="436.75" y="-267.25" font-family="Helvetica,sans-Serif" font-size="10.00">ANIMartRIX::getTime</text>
</a>
</g>
</g>
<!-- Node2&#45;&gt;Node3 -->
<g id="edge2_Node000002_Node000003" class="edge">
<title>Node2&#45;&gt;Node3</title>
<g id="a_edge2_Node000002_Node000003"><a xlink:title=" ">
<path fill="none" stroke="#63b8ff" d="M309.04,-245.62C327.17,-250.08 347.21,-255 365.89,-259.59"/>
<polygon fill="#63b8ff" stroke="#63b8ff" points="365,-262.97 375.55,-261.96 366.67,-256.18 365,-262.97"/>
</a>
</g>
</g>
<!-- Node4 -->
<g id="Node000004" class="node">
<title>Node4</title>
<g id="a_Node000004"><a xlink:href="../../df/d5e/classanimartrix__detail_1_1_a_n_i_mart_r_i_x.html#a4e599e324fb4f9bec1a113f1843f6058" target="_top" xlink:title=" ">
<polygon fill="white" stroke="#666666" points="492,-241.5 381.5,-241.5 381.5,-208 492,-208 492,-241.5"/>
<text text-anchor="start" x="389.5" y="-228" font-family="Helvetica,sans-Serif" font-size="10.00">animartrix_detail::</text>
<text text-anchor="middle" x="436.75" y="-215.25" font-family="Helvetica,sans-Serif" font-size="10.00">ANIMartRIX::pnoise</text>
</a>
</g>
</g>
<!-- Node2&#45;&gt;Node4 -->
<g id="edge3_Node000002_Node000004" class="edge">
<title>Node2&#45;&gt;Node4</title>
<g id="a_edge3_Node000002_Node000004"><a xlink:title=" ">
<path fill="none" stroke="#63b8ff" d="M309.04,-228.81C328.42,-228.19 349.97,-227.5 369.73,-226.87"/>
<polygon fill="#63b8ff" stroke="#63b8ff" points="369.72,-230.37 379.61,-226.55 369.5,-223.37 369.72,-230.37"/>
</a>
</g>
</g>
<!-- Node5 -->
<g id="Node000005" class="node">
<title>Node5</title>
<g id="a_Node000005"><a xlink:href="../../df/d5e/classanimartrix__detail_1_1_a_n_i_mart_r_i_x.html#af3fb7d297afe35dea7078be3836aa994" target="_top" xlink:title=" ">
<polygon fill="white" stroke="#666666" points="642.25,-293.5 536.25,-293.5 536.25,-260 642.25,-260 642.25,-293.5"/>
<text text-anchor="start" x="544.25" y="-280" font-family="Helvetica,sans-Serif" font-size="10.00">animartrix_detail::</text>
<text text-anchor="middle" x="589.25" y="-267.25" font-family="Helvetica,sans-Serif" font-size="10.00">ANIMartRIX::fade</text>
</a>
</g>
</g>
<!-- Node4&#45;&gt;Node5 -->
<g id="edge4_Node000004_Node000005" class="edge">
<title>Node4&#45;&gt;Node5</title>
<g id="a_edge4_Node000004_Node000005"><a xlink:title=" ">
<path fill="none" stroke="#63b8ff" d="M487.45,-241.92C500.35,-246.38 514.39,-251.23 527.78,-255.86"/>
<polygon fill="#63b8ff" stroke="#63b8ff" points="526.32,-259.06 536.92,-259.01 528.61,-252.44 526.32,-259.06"/>
</a>
</g>
</g>
<!-- Node6 -->
<g id="Node000006" class="node">
<title>Node6</title>
<g id="a_Node000006"><a xlink:href="../../df/d5e/classanimartrix__detail_1_1_a_n_i_mart_r_i_x.html#acb625b48d9c1beec3067e0c38b7a0b22" target="_top" xlink:title=" ">
<polygon fill="white" stroke="#666666" points="642.25,-241.5 536.25,-241.5 536.25,-208 642.25,-208 642.25,-241.5"/>
<text text-anchor="start" x="544.25" y="-228" font-family="Helvetica,sans-Serif" font-size="10.00">animartrix_detail::</text>
<text text-anchor="middle" x="589.25" y="-215.25" font-family="Helvetica,sans-Serif" font-size="10.00">ANIMartRIX::grad</text>
</a>
</g>
</g>
<!-- Node4&#45;&gt;Node6 -->
<g id="edge5_Node000004_Node000006" class="edge">
<title>Node4&#45;&gt;Node6</title>
<g id="a_edge5_Node000004_Node000006"><a xlink:title=" ">
<path fill="none" stroke="#63b8ff" d="M492.08,-224.75C502.53,-224.75 513.57,-224.75 524.29,-224.75"/>
<polygon fill="#63b8ff" stroke="#63b8ff" points="524.24,-228.25 534.24,-224.75 524.24,-221.25 524.24,-228.25"/>
</a>
</g>
</g>
<!-- Node7 -->
<g id="Node000007" class="node">
<title>Node7</title>
<g id="a_Node000007"><a xlink:href="../../df/d5e/classanimartrix__detail_1_1_a_n_i_mart_r_i_x.html#a7ce0a9b9405217a5b8bf71c88bcb571b" target="_top" xlink:title=" ">
<polygon fill="white" stroke="#666666" points="642.25,-189.5 536.25,-189.5 536.25,-156 642.25,-156 642.25,-189.5"/>
<text text-anchor="start" x="544.25" y="-176" font-family="Helvetica,sans-Serif" font-size="10.00">animartrix_detail::</text>
<text text-anchor="middle" x="589.25" y="-163.25" font-family="Helvetica,sans-Serif" font-size="10.00">ANIMartRIX::lerp</text>
</a>
</g>
</g>
<!-- Node4&#45;&gt;Node7 -->
<g id="edge6_Node000004_Node000007" class="edge">
<title>Node4&#45;&gt;Node7</title>
<g id="a_edge6_Node000004_Node000007"><a xlink:title=" ">
<path fill="none" stroke="#63b8ff" d="M487.45,-207.58C500.35,-203.12 514.39,-198.27 527.78,-193.64"/>
<polygon fill="#63b8ff" stroke="#63b8ff" points="528.61,-197.06 536.92,-190.49 526.32,-190.44 528.61,-197.06"/>
</a>
</g>
</g>
<!-- Node9 -->
<g id="Node000009" class="node">
<title>Node9</title>
<g id="a_Node000009"><a xlink:href="../../df/d5e/classanimartrix__detail_1_1_a_n_i_mart_r_i_x.html#ac384f7991b6c2a4906b1783b7aa59638" target="_top" xlink:title=" ">
<polygon fill="white" stroke="#666666" points="499.88,-137.5 373.62,-137.5 373.62,-104 499.88,-104 499.88,-137.5"/>
<text text-anchor="start" x="381.62" y="-124" font-family="Helvetica,sans-Serif" font-size="10.00">animartrix_detail::</text>
<text text-anchor="middle" x="436.75" y="-111.25" font-family="Helvetica,sans-Serif" font-size="10.00">ANIMartRIX::logOutput</text>
</a>
</g>
</g>
<!-- Node8&#45;&gt;Node9 -->
<g id="edge8_Node000008_Node000009" class="edge">
<title>Node8&#45;&gt;Node9</title>
<g id="a_edge8_Node000008_Node000009"><a xlink:title=" ">
<path fill="none" stroke="#63b8ff" d="M311.37,-120.75C327.6,-120.75 345.22,-120.75 361.95,-120.75"/>
<polygon fill="#63b8ff" stroke="#63b8ff" points="361.85,-124.25 371.85,-120.75 361.85,-117.25 361.85,-124.25"/>
</a>
</g>
</g>
<!-- Node10&#45;&gt;Node4 -->
<g id="edge11_Node000010_Node000004" class="edge">
<title>Node10&#45;&gt;Node4</title>
<g id="a_edge11_Node000010_Node000004"><a xlink:title=" ">
<path fill="none" stroke="#63b8ff" d="M310.59,-189.99C329.72,-195.31 350.85,-201.17 370.21,-206.55"/>
<polygon fill="#63b8ff" stroke="#63b8ff" points="369.03,-209.85 379.6,-209.16 370.9,-203.11 369.03,-209.85"/>
</a>
</g>
</g>
<!-- Node11 -->
<g id="Node000011" class="node">
<title>Node11</title>
<g id="a_Node000011"><a xlink:href="../../df/d5e/classanimartrix__detail_1_1_a_n_i_mart_r_i_x.html#a2006d9bb43b5840274de66a93529a29f" target="_top" xlink:title=" ">
<polygon fill="white" stroke="#666666" points="500.25,-189.5 373.25,-189.5 373.25,-156 500.25,-156 500.25,-189.5"/>
<text text-anchor="start" x="381.25" y="-176" font-family="Helvetica,sans-Serif" font-size="10.00">animartrix_detail::</text>
<text text-anchor="middle" x="436.75" y="-163.25" font-family="Helvetica,sans-Serif" font-size="10.00">ANIMartRIX::map_float</text>
</a>
</g>
</g>
<!-- Node10&#45;&gt;Node11 -->
<g id="edge10_Node000010_Node000011" class="edge">
<title>Node10&#45;&gt;Node11</title>
<g id="a_edge10_Node000010_Node000011"><a xlink:title=" ">
<path fill="none" stroke="#63b8ff" d="M318.76,-172.75C332.76,-172.75 347.51,-172.75 361.63,-172.75"/>
<polygon fill="#63b8ff" stroke="#63b8ff" points="361.29,-176.25 371.29,-172.75 361.29,-169.25 361.29,-176.25"/>
</a>
</g>
</g>
</g>
</svg>
