<?xml version="1.0" encoding="UTF-8" standalone="no"?>
<!DOCTYPE svg PUBLIC "-//W3C//DTD SVG 1.1//EN"
 "http://www.w3.org/Graphics/SVG/1.1/DTD/svg11.dtd">
<!-- Generated by graphviz version 12.2.1 (20241206.2353)
 -->
<!-- Title: animartrix_detail::ANIMartRIX::Zoom2 Pages: 1 -->
<svg width="796pt" height="300pt"
 viewBox="0.00 0.00 796.00 299.50" xmlns="http://www.w3.org/2000/svg" xmlns:xlink="http://www.w3.org/1999/xlink">
<g id="graph0" class="graph" transform="scale(1 1) rotate(0) translate(4 295.5)">
<title>animartrix_detail::ANIMartRIX::Zoom2</title>
<!-- Node1 -->
<g id="Node000001" class="node">
<title>Node1</title>
<g id="a_Node000001"><a xlink:title=" ">
<polygon fill="#999999" stroke="#666666" points="112.75,-166.5 0,-166.5 0,-133 112.75,-133 112.75,-166.5"/>
<text text-anchor="start" x="8" y="-153" font-family="Helvetica,sans-Serif" font-size="10.00">animartrix_detail::</text>
<text text-anchor="middle" x="56.38" y="-140.25" font-family="Helvetica,sans-Serif" font-size="10.00">ANIMartRIX::Zoom2</text>
</a>
</g>
</g>
<!-- Node2 -->
<g id="Node000002" class="node">
<title>Node2</title>
<g id="a_Node000002"><a xlink:href="../../df/d5e/classanimartrix__detail_1_1_a_n_i_mart_r_i_x.html#a8f1a3ef6f9688953f30b62ee5a3842e0" target="_top" xlink:title=" ">
<polygon fill="white" stroke="#666666" points="489,-201.88 366.5,-201.88 366.5,-155.62 489,-155.62 489,-201.88"/>
<text text-anchor="start" x="374.5" y="-188.38" font-family="Helvetica,sans-Serif" font-size="10.00">animartrix_detail::</text>
<text text-anchor="start" x="374.5" y="-175.62" font-family="Helvetica,sans-Serif" font-size="10.00">ANIMartRIX::calculate</text>
<text text-anchor="middle" x="427.75" y="-162.88" font-family="Helvetica,sans-Serif" font-size="10.00">_oscillators</text>
</a>
</g>
</g>
<!-- Node1&#45;&gt;Node2 -->
<g id="edge1_Node000001_Node000002" class="edge">
<title>Node1&#45;&gt;Node2</title>
<g id="a_edge1_Node000001_Node000002"><a xlink:title=" ">
<path fill="none" stroke="#63b8ff" d="M75.61,-166.74C92.93,-181.62 120.46,-202.17 148.75,-210.75 225.1,-233.89 249.45,-223.23 328.25,-210.75 337.09,-209.35 346.21,-207.29 355.18,-204.87"/>
<polygon fill="#63b8ff" stroke="#63b8ff" points="355.9,-208.3 364.55,-202.18 353.97,-201.57 355.9,-208.3"/>
</a>
</g>
</g>
<!-- Node8 -->
<g id="Node000008" class="node">
<title>Node8</title>
<g id="a_Node000008"><a xlink:href="../../df/d5e/classanimartrix__detail_1_1_a_n_i_mart_r_i_x.html#a087a9473459c121592e78b11d617820b" target="_top" xlink:title=" ">
<polygon fill="white" stroke="#666666" points="302,-291.5 175,-291.5 175,-258 302,-258 302,-291.5"/>
<text text-anchor="start" x="183" y="-278" font-family="Helvetica,sans-Serif" font-size="10.00">animartrix_detail::</text>
<text text-anchor="middle" x="238.5" y="-265.25" font-family="Helvetica,sans-Serif" font-size="10.00">ANIMartRIX::get_ready</text>
</a>
</g>
</g>
<!-- Node1&#45;&gt;Node8 -->
<g id="edge7_Node000001_Node000008" class="edge">
<title>Node1&#45;&gt;Node8</title>
<g id="a_edge7_Node000001_Node000008"><a xlink:title=" ">
<path fill="none" stroke="#63b8ff" d="M69.77,-166.67C85.84,-187.5 115.75,-222.7 148.75,-243.75 154.13,-247.18 159.93,-250.29 165.91,-253.08"/>
<polygon fill="#63b8ff" stroke="#63b8ff" points="164.12,-256.13 174.69,-256.91 166.92,-249.71 164.12,-256.13"/>
</a>
</g>
</g>
<!-- Node10 -->
<g id="Node000010" class="node">
<title>Node10</title>
<g id="a_Node000010"><a xlink:href="../../df/d5e/classanimartrix__detail_1_1_a_n_i_mart_r_i_x.html#a867d92fbbe56d9cdbd02638db2795324" target="_top" xlink:title=" ">
<polygon fill="white" stroke="#666666" points="309.5,-85.5 167.5,-85.5 167.5,-52 309.5,-52 309.5,-85.5"/>
<text text-anchor="start" x="175.5" y="-72" font-family="Helvetica,sans-Serif" font-size="10.00">animartrix_detail::</text>
<text text-anchor="middle" x="238.5" y="-59.25" font-family="Helvetica,sans-Serif" font-size="10.00">ANIMartRIX::render_value</text>
</a>
</g>
</g>
<!-- Node1&#45;&gt;Node10 -->
<g id="edge9_Node000001_Node000010" class="edge">
<title>Node1&#45;&gt;Node10</title>
<g id="a_edge9_Node000001_Node000010"><a xlink:title=" ">
<path fill="none" stroke="#63b8ff" d="M82.03,-132.52C99.91,-120.64 125.01,-105.16 148.75,-94.75 152.77,-92.99 156.94,-91.3 161.19,-89.7"/>
<polygon fill="#63b8ff" stroke="#63b8ff" points="162.2,-93.06 170.44,-86.41 159.84,-86.47 162.2,-93.06"/>
</a>
</g>
</g>
<!-- Node12 -->
<g id="Node000012" class="node">
<title>Node12</title>
<g id="a_Node000012"><a xlink:href="../../df/d5e/classanimartrix__detail_1_1_a_n_i_mart_r_i_x.html#a67a30ae022755db342ddaafdeb1b7d9f" target="_top" xlink:title=" ">
<polygon fill="white" stroke="#666666" points="320,-137.5 157,-137.5 157,-104 320,-104 320,-137.5"/>
<text text-anchor="start" x="165" y="-124" font-family="Helvetica,sans-Serif" font-size="10.00">animartrix_detail::</text>
<text text-anchor="middle" x="238.5" y="-111.25" font-family="Helvetica,sans-Serif" font-size="10.00">ANIMartRIX::rgb_sanity_check</text>
</a>
</g>
</g>
<!-- Node1&#45;&gt;Node12 -->
<g id="edge12_Node000001_Node000012" class="edge">
<title>Node1&#45;&gt;Node12</title>
<g id="a_edge12_Node000001_Node000012"><a xlink:title=" ">
<path fill="none" stroke="#63b8ff" d="M112.89,-140.81C123.28,-139.14 134.39,-137.35 145.54,-135.56"/>
<polygon fill="#63b8ff" stroke="#63b8ff" points="145.87,-139.05 155.18,-134 144.75,-132.14 145.87,-139.05"/>
</a>
</g>
</g>
<!-- Node13 -->
<g id="Node000013" class="node">
<title>Node13</title>
<g id="a_Node000013"><a xlink:href="../../df/d5e/classanimartrix__detail_1_1_a_n_i_mart_r_i_x.html#abe838f642d6fe7c75c61f288b2ddb207" target="_top" xlink:title=" ">
<polygon fill="white" stroke="#666666" points="305.38,-201.88 171.62,-201.88 171.62,-155.62 305.38,-155.62 305.38,-201.88"/>
<text text-anchor="start" x="179.62" y="-188.38" font-family="Helvetica,sans-Serif" font-size="10.00">animartrix_detail::</text>
<text text-anchor="start" x="179.62" y="-175.62" font-family="Helvetica,sans-Serif" font-size="10.00">ANIMartRIX::run_default</text>
<text text-anchor="middle" x="238.5" y="-162.88" font-family="Helvetica,sans-Serif" font-size="10.00">_oscillators</text>
</a>
</g>
</g>
<!-- Node1&#45;&gt;Node13 -->
<g id="edge13_Node000001_Node000013" class="edge">
<title>Node1&#45;&gt;Node13</title>
<g id="a_edge13_Node000001_Node000013"><a xlink:title=" ">
<path fill="none" stroke="#63b8ff" d="M112.89,-158.69C127.92,-161.11 144.47,-163.77 160.46,-166.35"/>
<polygon fill="#63b8ff" stroke="#63b8ff" points="159.49,-169.74 169.92,-167.87 160.6,-162.82 159.49,-169.74"/>
</a>
</g>
</g>
<!-- Node14 -->
<g id="Node000014" class="node">
<title>Node14</title>
<g id="a_Node000014"><a xlink:href="../../df/d5e/classanimartrix__detail_1_1_a_n_i_mart_r_i_x.html#abeda45d77e8e41b81cd1e24a004e7f0c" target="_top" xlink:title=" ">
<polygon fill="white" stroke="#666666" points="328.25,-33.5 148.75,-33.5 148.75,0 328.25,0 328.25,-33.5"/>
<text text-anchor="start" x="156.75" y="-20" font-family="Helvetica,sans-Serif" font-size="10.00">animartrix_detail::</text>
<text text-anchor="middle" x="238.5" y="-7.25" font-family="Helvetica,sans-Serif" font-size="10.00">ANIMartRIX::setPixelColorInternal</text>
</a>
</g>
</g>
<!-- Node1&#45;&gt;Node14 -->
<g id="edge15_Node000001_Node000014" class="edge">
<title>Node1&#45;&gt;Node14</title>
<g id="a_edge15_Node000001_Node000014"><a xlink:title=" ">
<path fill="none" stroke="#63b8ff" d="M67.49,-132.58C82.33,-108.88 112.25,-66.38 148.75,-42.75 150.75,-41.45 152.82,-40.22 154.94,-39.05"/>
<polygon fill="#63b8ff" stroke="#63b8ff" points="156.41,-42.23 163.82,-34.66 153.31,-35.95 156.41,-42.23"/>
</a>
</g>
</g>
<!-- Node3 -->
<g id="Node000003" class="node">
<title>Node3</title>
<g id="a_Node000003"><a xlink:href="../../df/d5e/classanimartrix__detail_1_1_a_n_i_mart_r_i_x.html#aca68cf41172ac73c388dad51b3ab40ab" target="_top" xlink:title=" ">
<polygon fill="white" stroke="#666666" points="646,-195.5 527.25,-195.5 527.25,-162 646,-162 646,-195.5"/>
<text text-anchor="start" x="535.25" y="-182" font-family="Helvetica,sans-Serif" font-size="10.00">animartrix_detail::</text>
<text text-anchor="middle" x="586.62" y="-169.25" font-family="Helvetica,sans-Serif" font-size="10.00">ANIMartRIX::getTime</text>
</a>
</g>
</g>
<!-- Node2&#45;&gt;Node3 -->
<g id="edge2_Node000002_Node000003" class="edge">
<title>Node2&#45;&gt;Node3</title>
<g id="a_edge2_Node000002_Node000003"><a xlink:title=" ">
<path fill="none" stroke="#63b8ff" d="M489.4,-178.75C497.97,-178.75 506.85,-178.75 515.58,-178.75"/>
<polygon fill="#63b8ff" stroke="#63b8ff" points="515.43,-182.25 525.43,-178.75 515.43,-175.25 515.43,-182.25"/>
</a>
</g>
</g>
<!-- Node4 -->
<g id="Node000004" class="node">
<title>Node4</title>
<g id="a_Node000004"><a xlink:href="../../df/d5e/classanimartrix__detail_1_1_a_n_i_mart_r_i_x.html#a4e599e324fb4f9bec1a113f1843f6058" target="_top" xlink:title=" ">
<polygon fill="white" stroke="#666666" points="641.88,-114.5 531.38,-114.5 531.38,-81 641.88,-81 641.88,-114.5"/>
<text text-anchor="start" x="539.38" y="-101" font-family="Helvetica,sans-Serif" font-size="10.00">animartrix_detail::</text>
<text text-anchor="middle" x="586.62" y="-88.25" font-family="Helvetica,sans-Serif" font-size="10.00">ANIMartRIX::pnoise</text>
</a>
</g>
</g>
<!-- Node2&#45;&gt;Node4 -->
<g id="edge3_Node000002_Node000004" class="edge">
<title>Node2&#45;&gt;Node4</title>
<g id="a_edge3_Node000002_Node000004"><a xlink:title=" ">
<path fill="none" stroke="#63b8ff" d="M474.12,-155.32C495.59,-144.24 521.09,-131.07 542.29,-120.12"/>
<polygon fill="#63b8ff" stroke="#63b8ff" points="543.69,-123.34 550.97,-115.64 540.48,-117.12 543.69,-123.34"/>
</a>
</g>
</g>
<!-- Node5 -->
<g id="Node000005" class="node">
<title>Node5</title>
<g id="a_Node000005"><a xlink:href="../../df/d5e/classanimartrix__detail_1_1_a_n_i_mart_r_i_x.html#af3fb7d297afe35dea7078be3836aa994" target="_top" xlink:title=" ">
<polygon fill="white" stroke="#666666" points="788,-166.5 682,-166.5 682,-133 788,-133 788,-166.5"/>
<text text-anchor="start" x="690" y="-153" font-family="Helvetica,sans-Serif" font-size="10.00">animartrix_detail::</text>
<text text-anchor="middle" x="735" y="-140.25" font-family="Helvetica,sans-Serif" font-size="10.00">ANIMartRIX::fade</text>
</a>
</g>
</g>
<!-- Node4&#45;&gt;Node5 -->
<g id="edge4_Node000004_Node000005" class="edge">
<title>Node4&#45;&gt;Node5</title>
<g id="a_edge4_Node000004_Node000005"><a xlink:title=" ">
<path fill="none" stroke="#63b8ff" d="M635.96,-114.92C648.39,-119.34 661.9,-124.13 674.8,-128.72"/>
<polygon fill="#63b8ff" stroke="#63b8ff" points="673.45,-131.95 684.04,-132 675.79,-125.36 673.45,-131.95"/>
</a>
</g>
</g>
<!-- Node6 -->
<g id="Node000006" class="node">
<title>Node6</title>
<g id="a_Node000006"><a xlink:href="../../df/d5e/classanimartrix__detail_1_1_a_n_i_mart_r_i_x.html#acb625b48d9c1beec3067e0c38b7a0b22" target="_top" xlink:title=" ">
<polygon fill="white" stroke="#666666" points="788,-114.5 682,-114.5 682,-81 788,-81 788,-114.5"/>
<text text-anchor="start" x="690" y="-101" font-family="Helvetica,sans-Serif" font-size="10.00">animartrix_detail::</text>
<text text-anchor="middle" x="735" y="-88.25" font-family="Helvetica,sans-Serif" font-size="10.00">ANIMartRIX::grad</text>
</a>
</g>
</g>
<!-- Node4&#45;&gt;Node6 -->
<g id="edge5_Node000004_Node000006" class="edge">
<title>Node4&#45;&gt;Node6</title>
<g id="a_edge5_Node000004_Node000006"><a xlink:title=" ">
<path fill="none" stroke="#63b8ff" d="M642.13,-97.75C651.38,-97.75 661.05,-97.75 670.5,-97.75"/>
<polygon fill="#63b8ff" stroke="#63b8ff" points="670.36,-101.25 680.36,-97.75 670.36,-94.25 670.36,-101.25"/>
</a>
</g>
</g>
<!-- Node7 -->
<g id="Node000007" class="node">
<title>Node7</title>
<g id="a_Node000007"><a xlink:href="../../df/d5e/classanimartrix__detail_1_1_a_n_i_mart_r_i_x.html#a7ce0a9b9405217a5b8bf71c88bcb571b" target="_top" xlink:title=" ">
<polygon fill="white" stroke="#666666" points="788,-62.5 682,-62.5 682,-29 788,-29 788,-62.5"/>
<text text-anchor="start" x="690" y="-49" font-family="Helvetica,sans-Serif" font-size="10.00">animartrix_detail::</text>
<text text-anchor="middle" x="735" y="-36.25" font-family="Helvetica,sans-Serif" font-size="10.00">ANIMartRIX::lerp</text>
</a>
</g>
</g>
<!-- Node4&#45;&gt;Node7 -->
<g id="edge6_Node000004_Node000007" class="edge">
<title>Node4&#45;&gt;Node7</title>
<g id="a_edge6_Node000004_Node000007"><a xlink:title=" ">
<path fill="none" stroke="#63b8ff" d="M635.96,-80.58C648.39,-76.16 661.9,-71.37 674.8,-66.78"/>
<polygon fill="#63b8ff" stroke="#63b8ff" points="675.79,-70.14 684.04,-63.5 673.45,-63.55 675.79,-70.14"/>
</a>
</g>
</g>
<!-- Node9 -->
<g id="Node000009" class="node">
<title>Node9</title>
<g id="a_Node000009"><a xlink:href="../../df/d5e/classanimartrix__detail_1_1_a_n_i_mart_r_i_x.html#ac384f7991b6c2a4906b1783b7aa59638" target="_top" xlink:title=" ">
<polygon fill="white" stroke="#666666" points="490.88,-291.5 364.62,-291.5 364.62,-258 490.88,-258 490.88,-291.5"/>
<text text-anchor="start" x="372.62" y="-278" font-family="Helvetica,sans-Serif" font-size="10.00">animartrix_detail::</text>
<text text-anchor="middle" x="427.75" y="-265.25" font-family="Helvetica,sans-Serif" font-size="10.00">ANIMartRIX::logOutput</text>
</a>
</g>
</g>
<!-- Node8&#45;&gt;Node9 -->
<g id="edge8_Node000008_Node000009" class="edge">
<title>Node8&#45;&gt;Node9</title>
<g id="a_edge8_Node000008_Node000009"><a xlink:title=" ">
<path fill="none" stroke="#63b8ff" d="M302.37,-274.75C318.6,-274.75 336.22,-274.75 352.95,-274.75"/>
<polygon fill="#63b8ff" stroke="#63b8ff" points="352.85,-278.25 362.85,-274.75 352.85,-271.25 352.85,-278.25"/>
</a>
</g>
</g>
<!-- Node10&#45;&gt;Node4 -->
<g id="edge11_Node000010_Node000004" class="edge">
<title>Node10&#45;&gt;Node4</title>
<g id="a_edge11_Node000010_Node000004"><a xlink:title=" ">
<path fill="none" stroke="#63b8ff" d="M309.81,-73.48C360.33,-77.03 430.03,-82.2 491.25,-87.75 500.57,-88.6 510.39,-89.56 520.05,-90.54"/>
<polygon fill="#63b8ff" stroke="#63b8ff" points="519.44,-94 529.75,-91.55 520.16,-87.04 519.44,-94"/>
</a>
</g>
</g>
<!-- Node11 -->
<g id="Node000011" class="node">
<title>Node11</title>
<g id="a_Node000011"><a xlink:href="../../df/d5e/classanimartrix__detail_1_1_a_n_i_mart_r_i_x.html#a2006d9bb43b5840274de66a93529a29f" target="_top" xlink:title=" ">
<polygon fill="white" stroke="#666666" points="491.25,-130.5 364.25,-130.5 364.25,-97 491.25,-97 491.25,-130.5"/>
<text text-anchor="start" x="372.25" y="-117" font-family="Helvetica,sans-Serif" font-size="10.00">animartrix_detail::</text>
<text text-anchor="middle" x="427.75" y="-104.25" font-family="Helvetica,sans-Serif" font-size="10.00">ANIMartRIX::map_float</text>
</a>
</g>
</g>
<!-- Node10&#45;&gt;Node11 -->
<g id="edge10_Node000010_Node000011" class="edge">
<title>Node10&#45;&gt;Node11</title>
<g id="a_edge10_Node000010_Node000011"><a xlink:title=" ">
<path fill="none" stroke="#63b8ff" d="M309.76,-85.63C323.76,-89 338.51,-92.54 352.63,-95.94"/>
<polygon fill="#63b8ff" stroke="#63b8ff" points="351.79,-99.34 362.33,-98.27 353.43,-92.53 351.79,-99.34"/>
</a>
</g>
</g>
<!-- Node13&#45;&gt;Node2 -->
<g id="edge14_Node000013_Node000002" class="edge">
<title>Node13&#45;&gt;Node2</title>
<g id="a_edge14_Node000013_Node000002"><a xlink:title=" ">
<path fill="none" stroke="#63b8ff" d="M305.78,-178.75C321.77,-178.75 338.92,-178.75 355.13,-178.75"/>
<polygon fill="#63b8ff" stroke="#63b8ff" points="354.67,-182.25 364.67,-178.75 354.67,-175.25 354.67,-182.25"/>
</a>
</g>
</g>
</g>
</svg>
