<?xml version="1.0" encoding="UTF-8" standalone="no"?>
<!DOCTYPE svg PUBLIC "-//W3C//DTD SVG 1.1//EN"
 "http://www.w3.org/Graphics/SVG/1.1/DTD/svg11.dtd">
<!-- Generated by graphviz version 12.2.1 (20241206.2353)
 -->
<!-- Title: animartrix_detail::ANIMartRIX::colordodge Pages: 1 -->
<svg width="364pt" height="610pt"
 viewBox="0.00 0.00 364.00 609.88" xmlns="http://www.w3.org/2000/svg" xmlns:xlink="http://www.w3.org/1999/xlink">
<g id="graph0" class="graph" transform="scale(1 1) rotate(0) translate(4 605.88)">
<title>animartrix_detail::ANIMartRIX::colordodge</title>
<!-- Node1 -->
<g id="Node000001" class="node">
<title>Node1</title>
<g id="a_Node000001"><a xlink:title=" ">
<polygon fill="#999999" stroke="#666666" points="356,-293.5 223.75,-293.5 223.75,-260 356,-260 356,-293.5"/>
<text text-anchor="start" x="231.75" y="-280" font-family="Helvetica,sans-Serif" font-size="10.00">animartrix_detail::</text>
<text text-anchor="middle" x="289.88" y="-267.25" font-family="Helvetica,sans-Serif" font-size="10.00">ANIMartRIX::colordodge</text>
</a>
</g>
</g>
<!-- Node2 -->
<g id="Node000002" class="node">
<title>Node2</title>
<g id="a_Node000002"><a xlink:href="../../df/d5e/classanimartrix__detail_1_1_a_n_i_mart_r_i_x.html#a2a50d7ce292db55ed53567b5f87c6e4d" target="_top" xlink:title=" ">
<polygon fill="white" stroke="#666666" points="154.75,-601.88 33,-601.88 33,-555.62 154.75,-555.62 154.75,-601.88"/>
<text text-anchor="start" x="41" y="-588.38" font-family="Helvetica,sans-Serif" font-size="10.00">animartrix_detail::</text>
<text text-anchor="start" x="41" y="-575.62" font-family="Helvetica,sans-Serif" font-size="10.00">ANIMartRIX::Complex</text>
<text text-anchor="middle" x="93.88" y="-562.88" font-family="Helvetica,sans-Serif" font-size="10.00">_Kaleido</text>
</a>
</g>
</g>
<!-- Node1&#45;&gt;Node2 -->
<g id="edge1_Node000001_Node000002" class="edge">
<title>Node1&#45;&gt;Node2</title>
<g id="a_edge1_Node000001_Node000002"><a xlink:title=" ">
<path fill="none" stroke="#63b8ff" d="M286.18,-304.8C279.49,-359.08 257.26,-479.06 187.75,-546.75 178.71,-555.55 167.13,-561.94 155.25,-566.58"/>
<polygon fill="#63b8ff" stroke="#63b8ff" points="289.62,-305.5 287.27,-295.17 282.67,-304.71 289.62,-305.5"/>
</a>
</g>
</g>
<!-- Node3 -->
<g id="Node000003" class="node">
<title>Node3</title>
<g id="a_Node000003"><a xlink:href="../../df/d5e/classanimartrix__detail_1_1_a_n_i_mart_r_i_x.html#aa4f118355ed38a09cbac05c0ed1487e6" target="_top" xlink:title=" ">
<polygon fill="white" stroke="#666666" points="154.75,-537.88 33,-537.88 33,-491.62 154.75,-491.62 154.75,-537.88"/>
<text text-anchor="start" x="41" y="-524.38" font-family="Helvetica,sans-Serif" font-size="10.00">animartrix_detail::</text>
<text text-anchor="start" x="41" y="-511.62" font-family="Helvetica,sans-Serif" font-size="10.00">ANIMartRIX::Complex</text>
<text text-anchor="middle" x="93.88" y="-498.88" font-family="Helvetica,sans-Serif" font-size="10.00">_Kaleido_2</text>
</a>
</g>
</g>
<!-- Node1&#45;&gt;Node3 -->
<g id="edge2_Node000001_Node000003" class="edge">
<title>Node1&#45;&gt;Node3</title>
<g id="a_edge2_Node000001_Node000003"><a xlink:title=" ">
<path fill="none" stroke="#63b8ff" d="M282.44,-304.87C270.94,-348.93 242.75,-434.21 187.75,-482.75 178.42,-490.99 166.85,-497.13 155.09,-501.7"/>
<polygon fill="#63b8ff" stroke="#63b8ff" points="285.8,-305.87 284.82,-295.32 279.01,-304.18 285.8,-305.87"/>
</a>
</g>
</g>
<!-- Node4 -->
<g id="Node000004" class="node">
<title>Node4</title>
<g id="a_Node000004"><a xlink:href="../../df/d5e/classanimartrix__detail_1_1_a_n_i_mart_r_i_x.html#aafa5d8f53b7592d3e8c05c77d233842d" target="_top" xlink:title=" ">
<polygon fill="white" stroke="#666666" points="154.75,-473.88 33,-473.88 33,-427.62 154.75,-427.62 154.75,-473.88"/>
<text text-anchor="start" x="41" y="-460.38" font-family="Helvetica,sans-Serif" font-size="10.00">animartrix_detail::</text>
<text text-anchor="start" x="41" y="-447.62" font-family="Helvetica,sans-Serif" font-size="10.00">ANIMartRIX::Complex</text>
<text text-anchor="middle" x="93.88" y="-434.88" font-family="Helvetica,sans-Serif" font-size="10.00">_Kaleido_3</text>
</a>
</g>
</g>
<!-- Node1&#45;&gt;Node4 -->
<g id="edge3_Node000001_Node000004" class="edge">
<title>Node1&#45;&gt;Node4</title>
<g id="a_edge3_Node000001_Node000004"><a xlink:title=" ">
<path fill="none" stroke="#63b8ff" d="M276.2,-303.74C259.96,-335.56 228.91,-387.98 187.75,-418.75 178.05,-426 166.59,-431.69 155.09,-436.13"/>
<polygon fill="#63b8ff" stroke="#63b8ff" points="279.15,-305.67 280.46,-295.16 272.88,-302.56 279.15,-305.67"/>
</a>
</g>
</g>
<!-- Node5 -->
<g id="Node000005" class="node">
<title>Node5</title>
<g id="a_Node000005"><a xlink:href="../../df/d5e/classanimartrix__detail_1_1_a_n_i_mart_r_i_x.html#aaa6e9f5d15d84f47ab2cf9aec551f414" target="_top" xlink:title=" ">
<polygon fill="white" stroke="#666666" points="154.75,-409.88 33,-409.88 33,-363.62 154.75,-363.62 154.75,-409.88"/>
<text text-anchor="start" x="41" y="-396.38" font-family="Helvetica,sans-Serif" font-size="10.00">animartrix_detail::</text>
<text text-anchor="start" x="41" y="-383.62" font-family="Helvetica,sans-Serif" font-size="10.00">ANIMartRIX::Complex</text>
<text text-anchor="middle" x="93.88" y="-370.88" font-family="Helvetica,sans-Serif" font-size="10.00">_Kaleido_4</text>
</a>
</g>
</g>
<!-- Node1&#45;&gt;Node5 -->
<g id="edge4_Node000001_Node000005" class="edge">
<title>Node1&#45;&gt;Node5</title>
<g id="a_edge4_Node000001_Node000005"><a xlink:title=" ">
<path fill="none" stroke="#63b8ff" d="M262.17,-301.26C242.7,-318.12 215.04,-340.04 187.75,-354.75 177.54,-360.25 166.2,-365.09 155.06,-369.23"/>
<polygon fill="#63b8ff" stroke="#63b8ff" points="264.45,-303.92 269.64,-294.68 259.82,-298.67 264.45,-303.92"/>
</a>
</g>
</g>
<!-- Node6 -->
<g id="Node000006" class="node">
<title>Node6</title>
<g id="a_Node000006"><a xlink:href="../../df/d5e/classanimartrix__detail_1_1_a_n_i_mart_r_i_x.html#a5fc440a502553a8c0e2057466a3f863f" target="_top" xlink:title=" ">
<polygon fill="white" stroke="#666666" points="187.75,-345.5 0,-345.5 0,-312 187.75,-312 187.75,-345.5"/>
<text text-anchor="start" x="8" y="-332" font-family="Helvetica,sans-Serif" font-size="10.00">animartrix_detail::</text>
<text text-anchor="middle" x="93.88" y="-319.25" font-family="Helvetica,sans-Serif" font-size="10.00">ANIMartRIX::Module_Experiment10</text>
</a>
</g>
</g>
<!-- Node1&#45;&gt;Node6 -->
<g id="edge5_Node000001_Node000006" class="edge">
<title>Node1&#45;&gt;Node6</title>
<g id="a_edge5_Node000001_Node000006"><a xlink:title=" ">
<path fill="none" stroke="#63b8ff" d="M213.5,-296.95C195.51,-301.78 176.47,-306.88 159.03,-311.55"/>
<polygon fill="#63b8ff" stroke="#63b8ff" points="214.33,-300.35 223.08,-294.38 212.52,-293.59 214.33,-300.35"/>
</a>
</g>
</g>
<!-- Node7 -->
<g id="Node000007" class="node">
<title>Node7</title>
<g id="a_Node000007"><a xlink:href="../../df/d5e/classanimartrix__detail_1_1_a_n_i_mart_r_i_x.html#a396360a3178c3c4402ef95f59a0b108d" target="_top" xlink:title=" ">
<polygon fill="white" stroke="#666666" points="184.75,-293.5 3,-293.5 3,-260 184.75,-260 184.75,-293.5"/>
<text text-anchor="start" x="11" y="-280" font-family="Helvetica,sans-Serif" font-size="10.00">animartrix_detail::</text>
<text text-anchor="middle" x="93.88" y="-267.25" font-family="Helvetica,sans-Serif" font-size="10.00">ANIMartRIX::Module_Experiment8</text>
</a>
</g>
</g>
<!-- Node1&#45;&gt;Node7 -->
<g id="edge6_Node000001_Node000007" class="edge">
<title>Node1&#45;&gt;Node7</title>
<g id="a_edge6_Node000001_Node000007"><a xlink:title=" ">
<path fill="none" stroke="#63b8ff" d="M212.02,-276.75C203.19,-276.75 194.13,-276.75 185.14,-276.75"/>
<polygon fill="#63b8ff" stroke="#63b8ff" points="211.95,-280.25 221.95,-276.75 211.95,-273.25 211.95,-280.25"/>
</a>
</g>
</g>
<!-- Node8 -->
<g id="Node000008" class="node">
<title>Node8</title>
<g id="a_Node000008"><a xlink:href="../../df/d5e/classanimartrix__detail_1_1_a_n_i_mart_r_i_x.html#a4f01f58744558bcde657028dcee6a6a6" target="_top" xlink:title=" ">
<polygon fill="white" stroke="#666666" points="146.88,-241.5 40.88,-241.5 40.88,-208 146.88,-208 146.88,-241.5"/>
<text text-anchor="start" x="48.88" y="-228" font-family="Helvetica,sans-Serif" font-size="10.00">animartrix_detail::</text>
<text text-anchor="middle" x="93.88" y="-215.25" font-family="Helvetica,sans-Serif" font-size="10.00">ANIMartRIX::SM10</text>
</a>
</g>
</g>
<!-- Node1&#45;&gt;Node8 -->
<g id="edge7_Node000001_Node000008" class="edge">
<title>Node1&#45;&gt;Node8</title>
<g id="a_edge7_Node000001_Node000008"><a xlink:title=" ">
<path fill="none" stroke="#63b8ff" d="M213.46,-256.54C191.27,-250.59 167.49,-244.21 147.09,-238.75"/>
<polygon fill="#63b8ff" stroke="#63b8ff" points="212.52,-259.91 223.08,-259.12 214.33,-253.15 212.52,-259.91"/>
</a>
</g>
</g>
<!-- Node9 -->
<g id="Node000009" class="node">
<title>Node9</title>
<g id="a_Node000009"><a xlink:href="../../df/d5e/classanimartrix__detail_1_1_a_n_i_mart_r_i_x.html#a034daa1ad2b1306def22f317ac103f2e" target="_top" xlink:title=" ">
<polygon fill="white" stroke="#666666" points="146.88,-189.5 40.88,-189.5 40.88,-156 146.88,-156 146.88,-189.5"/>
<text text-anchor="start" x="48.88" y="-176" font-family="Helvetica,sans-Serif" font-size="10.00">animartrix_detail::</text>
<text text-anchor="middle" x="93.88" y="-163.25" font-family="Helvetica,sans-Serif" font-size="10.00">ANIMartRIX::SM4</text>
</a>
</g>
</g>
<!-- Node1&#45;&gt;Node9 -->
<g id="edge8_Node000001_Node000009" class="edge">
<title>Node1&#45;&gt;Node9</title>
<g id="a_edge8_Node000001_Node000009"><a xlink:title=" ">
<path fill="none" stroke="#63b8ff" d="M262.79,-252.05C243.42,-234.92 215.64,-212.74 187.75,-198.75 175.18,-192.44 160.86,-187.48 147.29,-183.65"/>
<polygon fill="#63b8ff" stroke="#63b8ff" points="260.43,-254.64 270.2,-258.75 265.13,-249.45 260.43,-254.64"/>
</a>
</g>
</g>
<!-- Node10 -->
<g id="Node000010" class="node">
<title>Node10</title>
<g id="a_Node000010"><a xlink:href="../../df/d5e/classanimartrix__detail_1_1_a_n_i_mart_r_i_x.html#a7d0e3fc2284c9c371943c60022d9bdf0" target="_top" xlink:title=" ">
<polygon fill="white" stroke="#666666" points="146.88,-137.5 40.88,-137.5 40.88,-104 146.88,-104 146.88,-137.5"/>
<text text-anchor="start" x="48.88" y="-124" font-family="Helvetica,sans-Serif" font-size="10.00">animartrix_detail::</text>
<text text-anchor="middle" x="93.88" y="-111.25" font-family="Helvetica,sans-Serif" font-size="10.00">ANIMartRIX::SM5</text>
</a>
</g>
</g>
<!-- Node1&#45;&gt;Node10 -->
<g id="edge9_Node000001_Node000010" class="edge">
<title>Node1&#45;&gt;Node10</title>
<g id="a_edge9_Node000001_Node000010"><a xlink:title=" ">
<path fill="none" stroke="#63b8ff" d="M274.89,-249.86C258.12,-220.23 227.25,-173.27 187.75,-146.75 175.66,-138.63 161.06,-133.03 147.05,-129.17"/>
<polygon fill="#63b8ff" stroke="#63b8ff" points="271.61,-251.16 279.5,-258.23 277.75,-247.78 271.61,-251.16"/>
</a>
</g>
</g>
<!-- Node11 -->
<g id="Node000011" class="node">
<title>Node11</title>
<g id="a_Node000011"><a xlink:href="../../df/d5e/classanimartrix__detail_1_1_a_n_i_mart_r_i_x.html#a121bf7b262a81214a229fc3db3cae0b1" target="_top" xlink:title=" ">
<polygon fill="white" stroke="#666666" points="146.88,-85.5 40.88,-85.5 40.88,-52 146.88,-52 146.88,-85.5"/>
<text text-anchor="start" x="48.88" y="-72" font-family="Helvetica,sans-Serif" font-size="10.00">animartrix_detail::</text>
<text text-anchor="middle" x="93.88" y="-59.25" font-family="Helvetica,sans-Serif" font-size="10.00">ANIMartRIX::SM6</text>
</a>
</g>
</g>
<!-- Node1&#45;&gt;Node11 -->
<g id="edge10_Node000001_Node000011" class="edge">
<title>Node1&#45;&gt;Node11</title>
<g id="a_edge10_Node000001_Node000011"><a xlink:title=" ">
<path fill="none" stroke="#63b8ff" d="M280.88,-248.65C267.99,-208.47 238.75,-135.01 187.75,-94.75 176.05,-85.52 161.26,-79.56 146.95,-75.72"/>
<polygon fill="#63b8ff" stroke="#63b8ff" points="277.49,-249.54 283.78,-258.07 284.18,-247.48 277.49,-249.54"/>
</a>
</g>
</g>
<!-- Node12 -->
<g id="Node000012" class="node">
<title>Node12</title>
<g id="a_Node000012"><a xlink:href="../../df/d5e/classanimartrix__detail_1_1_a_n_i_mart_r_i_x.html#aadb8f1623ec92a0c48de2655ef514082" target="_top" xlink:title=" ">
<polygon fill="white" stroke="#666666" points="146.88,-33.5 40.88,-33.5 40.88,0 146.88,0 146.88,-33.5"/>
<text text-anchor="start" x="48.88" y="-20" font-family="Helvetica,sans-Serif" font-size="10.00">animartrix_detail::</text>
<text text-anchor="middle" x="93.88" y="-7.25" font-family="Helvetica,sans-Serif" font-size="10.00">ANIMartRIX::SM9</text>
</a>
</g>
</g>
<!-- Node1&#45;&gt;Node12 -->
<g id="edge11_Node000001_Node000012" class="edge">
<title>Node1&#45;&gt;Node12</title>
<g id="a_edge11_Node000001_Node000012"><a xlink:title=" ">
<path fill="none" stroke="#63b8ff" d="M284.66,-248.35C275.84,-199.08 250.74,-97.77 187.75,-42.75 176.4,-32.84 161.55,-26.68 147.07,-22.86"/>
<polygon fill="#63b8ff" stroke="#63b8ff" points="281.21,-248.92 286.32,-258.2 288.11,-247.76 281.21,-248.92"/>
</a>
</g>
</g>
</g>
</svg>
