<?xml version="1.0" encoding="UTF-8" standalone="no"?>
<!DOCTYPE svg PUBLIC "-//W3C//DTD SVG 1.1//EN"
 "http://www.w3.org/Graphics/SVG/1.1/DTD/svg11.dtd">
<!-- Generated by graphviz version 12.2.1 (20241206.2353)
 -->
<!-- Title: animartrix_detail::ANIMartRIX::Complex_Kaleido_4 Pages: 1 -->
<svg width="650pt" height="314pt"
 viewBox="0.00 0.00 650.25 313.88" xmlns="http://www.w3.org/2000/svg" xmlns:xlink="http://www.w3.org/1999/xlink">
<g id="graph0" class="graph" transform="scale(1 1) rotate(0) translate(4 309.88)">
<title>animartrix_detail::ANIMartRIX::Complex_Kaleido_4</title>
<!-- Node1 -->
<g id="Node000001" class="node">
<title>Node1</title>
<g id="a_Node000001"><a xlink:title=" ">
<polygon fill="#999999" stroke="#666666" points="121.75,-169.88 0,-169.88 0,-123.62 121.75,-123.62 121.75,-169.88"/>
<text text-anchor="start" x="8" y="-156.38" font-family="Helvetica,sans-Serif" font-size="10.00">animartrix_detail::</text>
<text text-anchor="start" x="8" y="-143.62" font-family="Helvetica,sans-Serif" font-size="10.00">ANIMartRIX::Complex</text>
<text text-anchor="middle" x="60.88" y="-130.88" font-family="Helvetica,sans-Serif" font-size="10.00">_Kaleido_4</text>
</a>
</g>
</g>
<!-- Node2 -->
<g id="Node000002" class="node">
<title>Node2</title>
<g id="a_Node000002"><a xlink:href="../../df/d5e/classanimartrix__detail_1_1_a_n_i_mart_r_i_x.html#a8f1a3ef6f9688953f30b62ee5a3842e0" target="_top" xlink:title=" ">
<polygon fill="white" stroke="#666666" points="308.75,-305.88 186.25,-305.88 186.25,-259.62 308.75,-259.62 308.75,-305.88"/>
<text text-anchor="start" x="194.25" y="-292.38" font-family="Helvetica,sans-Serif" font-size="10.00">animartrix_detail::</text>
<text text-anchor="start" x="194.25" y="-279.62" font-family="Helvetica,sans-Serif" font-size="10.00">ANIMartRIX::calculate</text>
<text text-anchor="middle" x="247.5" y="-266.88" font-family="Helvetica,sans-Serif" font-size="10.00">_oscillators</text>
</a>
</g>
</g>
<!-- Node1&#45;&gt;Node2 -->
<g id="edge1_Node000001_Node000002" class="edge">
<title>Node1&#45;&gt;Node2</title>
<g id="a_edge1_Node000001_Node000002"><a xlink:title=" ">
<path fill="none" stroke="#63b8ff" d="M78.08,-170.05C95.38,-193.39 124.81,-228.88 157.75,-250.75 163.26,-254.41 169.23,-257.7 175.4,-260.67"/>
<polygon fill="#63b8ff" stroke="#63b8ff" points="173.95,-263.85 184.51,-264.73 176.79,-257.46 173.95,-263.85"/>
</a>
</g>
</g>
<!-- Node8 -->
<g id="Node000008" class="node">
<title>Node8</title>
<g id="a_Node000008"><a xlink:href="../../df/d5e/classanimartrix__detail_1_1_a_n_i_mart_r_i_x.html#ac46f1605c69b2583e3e06bcb1bcb4cd3" target="_top" xlink:title=" ">
<polygon fill="white" stroke="#666666" points="313.62,-241.5 181.38,-241.5 181.38,-208 313.62,-208 313.62,-241.5"/>
<text text-anchor="start" x="189.38" y="-228" font-family="Helvetica,sans-Serif" font-size="10.00">animartrix_detail::</text>
<text text-anchor="middle" x="247.5" y="-215.25" font-family="Helvetica,sans-Serif" font-size="10.00">ANIMartRIX::colordodge</text>
</a>
</g>
</g>
<!-- Node1&#45;&gt;Node8 -->
<g id="edge7_Node000001_Node000008" class="edge">
<title>Node1&#45;&gt;Node8</title>
<g id="a_edge7_Node000001_Node000008"><a xlink:title=" ">
<path fill="none" stroke="#63b8ff" d="M100.6,-170.19C117.71,-179.9 138.32,-190.74 157.75,-198.75 162.09,-200.54 166.6,-202.26 171.18,-203.9"/>
<polygon fill="#63b8ff" stroke="#63b8ff" points="169.93,-207.17 180.52,-207.1 172.19,-200.55 169.93,-207.17"/>
</a>
</g>
</g>
<!-- Node9 -->
<g id="Node000009" class="node">
<title>Node9</title>
<g id="a_Node000009"><a xlink:href="../../df/d5e/classanimartrix__detail_1_1_a_n_i_mart_r_i_x.html#a087a9473459c121592e78b11d617820b" target="_top" xlink:title=" ">
<polygon fill="white" stroke="#666666" points="311,-137.5 184,-137.5 184,-104 311,-104 311,-137.5"/>
<text text-anchor="start" x="192" y="-124" font-family="Helvetica,sans-Serif" font-size="10.00">animartrix_detail::</text>
<text text-anchor="middle" x="247.5" y="-111.25" font-family="Helvetica,sans-Serif" font-size="10.00">ANIMartRIX::get_ready</text>
</a>
</g>
</g>
<!-- Node1&#45;&gt;Node9 -->
<g id="edge8_Node000001_Node000009" class="edge">
<title>Node1&#45;&gt;Node9</title>
<g id="a_edge8_Node000001_Node000009"><a xlink:title=" ">
<path fill="none" stroke="#63b8ff" d="M122.07,-138.27C138.06,-136.02 155.52,-133.56 172.16,-131.22"/>
<polygon fill="#63b8ff" stroke="#63b8ff" points="172.62,-134.69 182.03,-129.83 171.64,-127.76 172.62,-134.69"/>
</a>
</g>
</g>
<!-- Node11 -->
<g id="Node000011" class="node">
<title>Node11</title>
<g id="a_Node000011"><a xlink:href="../../df/d5e/classanimartrix__detail_1_1_a_n_i_mart_r_i_x.html#a867d92fbbe56d9cdbd02638db2795324" target="_top" xlink:title=" ">
<polygon fill="white" stroke="#666666" points="318.5,-189.5 176.5,-189.5 176.5,-156 318.5,-156 318.5,-189.5"/>
<text text-anchor="start" x="184.5" y="-176" font-family="Helvetica,sans-Serif" font-size="10.00">animartrix_detail::</text>
<text text-anchor="middle" x="247.5" y="-163.25" font-family="Helvetica,sans-Serif" font-size="10.00">ANIMartRIX::render_value</text>
</a>
</g>
</g>
<!-- Node1&#45;&gt;Node11 -->
<g id="edge10_Node000001_Node000011" class="edge">
<title>Node1&#45;&gt;Node11</title>
<g id="a_edge10_Node000001_Node000011"><a xlink:title=" ">
<path fill="none" stroke="#63b8ff" d="M122.07,-155.23C135.69,-157.15 150.37,-159.21 164.71,-161.23"/>
<polygon fill="#63b8ff" stroke="#63b8ff" points="164.22,-164.7 174.61,-162.63 165.2,-157.77 164.22,-164.7"/>
</a>
</g>
</g>
<!-- Node13 -->
<g id="Node000013" class="node">
<title>Node13</title>
<g id="a_Node000013"><a xlink:href="../../df/d5e/classanimartrix__detail_1_1_a_n_i_mart_r_i_x.html#a67a30ae022755db342ddaafdeb1b7d9f" target="_top" xlink:title=" ">
<polygon fill="white" stroke="#666666" points="329,-85.5 166,-85.5 166,-52 329,-52 329,-85.5"/>
<text text-anchor="start" x="174" y="-72" font-family="Helvetica,sans-Serif" font-size="10.00">animartrix_detail::</text>
<text text-anchor="middle" x="247.5" y="-59.25" font-family="Helvetica,sans-Serif" font-size="10.00">ANIMartRIX::rgb_sanity_check</text>
</a>
</g>
</g>
<!-- Node1&#45;&gt;Node13 -->
<g id="edge13_Node000001_Node000013" class="edge">
<title>Node1&#45;&gt;Node13</title>
<g id="a_edge13_Node000001_Node000013"><a xlink:title=" ">
<path fill="none" stroke="#63b8ff" d="M100.6,-123.31C117.71,-113.6 138.32,-102.76 157.75,-94.75 162.09,-92.96 166.6,-91.24 171.18,-89.6"/>
<polygon fill="#63b8ff" stroke="#63b8ff" points="172.19,-92.95 180.52,-86.4 169.93,-86.33 172.19,-92.95"/>
</a>
</g>
</g>
<!-- Node14 -->
<g id="Node000014" class="node">
<title>Node14</title>
<g id="a_Node000014"><a xlink:href="../../df/d5e/classanimartrix__detail_1_1_a_n_i_mart_r_i_x.html#abeda45d77e8e41b81cd1e24a004e7f0c" target="_top" xlink:title=" ">
<polygon fill="white" stroke="#666666" points="337.25,-33.5 157.75,-33.5 157.75,0 337.25,0 337.25,-33.5"/>
<text text-anchor="start" x="165.75" y="-20" font-family="Helvetica,sans-Serif" font-size="10.00">animartrix_detail::</text>
<text text-anchor="middle" x="247.5" y="-7.25" font-family="Helvetica,sans-Serif" font-size="10.00">ANIMartRIX::setPixelColorInternal</text>
</a>
</g>
</g>
<!-- Node1&#45;&gt;Node14 -->
<g id="edge14_Node000001_Node000014" class="edge">
<title>Node1&#45;&gt;Node14</title>
<g id="a_edge14_Node000001_Node000014"><a xlink:title=" ">
<path fill="none" stroke="#63b8ff" d="M77.49,-123.47C94.53,-99.8 123.95,-63.73 157.75,-42.75 160.05,-41.32 162.44,-39.97 164.88,-38.69"/>
<polygon fill="#63b8ff" stroke="#63b8ff" points="166.3,-41.88 173.86,-34.46 163.32,-35.55 166.3,-41.88"/>
</a>
</g>
</g>
<!-- Node3 -->
<g id="Node000003" class="node">
<title>Node3</title>
<g id="a_Node000003"><a xlink:href="../../df/d5e/classanimartrix__detail_1_1_a_n_i_mart_r_i_x.html#aca68cf41172ac73c388dad51b3ab40ab" target="_top" xlink:title=" ">
<polygon fill="white" stroke="#666666" points="496.12,-299.5 377.38,-299.5 377.38,-266 496.12,-266 496.12,-299.5"/>
<text text-anchor="start" x="385.38" y="-286" font-family="Helvetica,sans-Serif" font-size="10.00">animartrix_detail::</text>
<text text-anchor="middle" x="436.75" y="-273.25" font-family="Helvetica,sans-Serif" font-size="10.00">ANIMartRIX::getTime</text>
</a>
</g>
</g>
<!-- Node2&#45;&gt;Node3 -->
<g id="edge2_Node000002_Node000003" class="edge">
<title>Node2&#45;&gt;Node3</title>
<g id="a_edge2_Node000002_Node000003"><a xlink:title=" ">
<path fill="none" stroke="#63b8ff" d="M309.04,-282.75C327.09,-282.75 347.02,-282.75 365.63,-282.75"/>
<polygon fill="#63b8ff" stroke="#63b8ff" points="365.51,-286.25 375.51,-282.75 365.51,-279.25 365.51,-286.25"/>
</a>
</g>
</g>
<!-- Node4 -->
<g id="Node000004" class="node">
<title>Node4</title>
<g id="a_Node000004"><a xlink:href="../../df/d5e/classanimartrix__detail_1_1_a_n_i_mart_r_i_x.html#a4e599e324fb4f9bec1a113f1843f6058" target="_top" xlink:title=" ">
<polygon fill="white" stroke="#666666" points="492,-244.5 381.5,-244.5 381.5,-211 492,-211 492,-244.5"/>
<text text-anchor="start" x="389.5" y="-231" font-family="Helvetica,sans-Serif" font-size="10.00">animartrix_detail::</text>
<text text-anchor="middle" x="436.75" y="-218.25" font-family="Helvetica,sans-Serif" font-size="10.00">ANIMartRIX::pnoise</text>
</a>
</g>
</g>
<!-- Node2&#45;&gt;Node4 -->
<g id="edge3_Node000002_Node000004" class="edge">
<title>Node2&#45;&gt;Node4</title>
<g id="a_edge3_Node000002_Node000004"><a xlink:title=" ">
<path fill="none" stroke="#63b8ff" d="M309.04,-264.97C328.6,-259.22 350.38,-252.83 370.28,-246.98"/>
<polygon fill="#63b8ff" stroke="#63b8ff" points="371.06,-250.4 379.67,-244.22 369.09,-243.68 371.06,-250.4"/>
</a>
</g>
</g>
<!-- Node5 -->
<g id="Node000005" class="node">
<title>Node5</title>
<g id="a_Node000005"><a xlink:href="../../df/d5e/classanimartrix__detail_1_1_a_n_i_mart_r_i_x.html#af3fb7d297afe35dea7078be3836aa994" target="_top" xlink:title=" ">
<polygon fill="white" stroke="#666666" points="642.25,-296.5 536.25,-296.5 536.25,-263 642.25,-263 642.25,-296.5"/>
<text text-anchor="start" x="544.25" y="-283" font-family="Helvetica,sans-Serif" font-size="10.00">animartrix_detail::</text>
<text text-anchor="middle" x="589.25" y="-270.25" font-family="Helvetica,sans-Serif" font-size="10.00">ANIMartRIX::fade</text>
</a>
</g>
</g>
<!-- Node4&#45;&gt;Node5 -->
<g id="edge4_Node000004_Node000005" class="edge">
<title>Node4&#45;&gt;Node5</title>
<g id="a_edge4_Node000004_Node000005"><a xlink:title=" ">
<path fill="none" stroke="#63b8ff" d="M487.45,-244.92C500.35,-249.38 514.39,-254.23 527.78,-258.86"/>
<polygon fill="#63b8ff" stroke="#63b8ff" points="526.32,-262.06 536.92,-262.01 528.61,-255.44 526.32,-262.06"/>
</a>
</g>
</g>
<!-- Node6 -->
<g id="Node000006" class="node">
<title>Node6</title>
<g id="a_Node000006"><a xlink:href="../../df/d5e/classanimartrix__detail_1_1_a_n_i_mart_r_i_x.html#acb625b48d9c1beec3067e0c38b7a0b22" target="_top" xlink:title=" ">
<polygon fill="white" stroke="#666666" points="642.25,-244.5 536.25,-244.5 536.25,-211 642.25,-211 642.25,-244.5"/>
<text text-anchor="start" x="544.25" y="-231" font-family="Helvetica,sans-Serif" font-size="10.00">animartrix_detail::</text>
<text text-anchor="middle" x="589.25" y="-218.25" font-family="Helvetica,sans-Serif" font-size="10.00">ANIMartRIX::grad</text>
</a>
</g>
</g>
<!-- Node4&#45;&gt;Node6 -->
<g id="edge5_Node000004_Node000006" class="edge">
<title>Node4&#45;&gt;Node6</title>
<g id="a_edge5_Node000004_Node000006"><a xlink:title=" ">
<path fill="none" stroke="#63b8ff" d="M492.08,-227.75C502.53,-227.75 513.57,-227.75 524.29,-227.75"/>
<polygon fill="#63b8ff" stroke="#63b8ff" points="524.24,-231.25 534.24,-227.75 524.24,-224.25 524.24,-231.25"/>
</a>
</g>
</g>
<!-- Node7 -->
<g id="Node000007" class="node">
<title>Node7</title>
<g id="a_Node000007"><a xlink:href="../../df/d5e/classanimartrix__detail_1_1_a_n_i_mart_r_i_x.html#a7ce0a9b9405217a5b8bf71c88bcb571b" target="_top" xlink:title=" ">
<polygon fill="white" stroke="#666666" points="642.25,-192.5 536.25,-192.5 536.25,-159 642.25,-159 642.25,-192.5"/>
<text text-anchor="start" x="544.25" y="-179" font-family="Helvetica,sans-Serif" font-size="10.00">animartrix_detail::</text>
<text text-anchor="middle" x="589.25" y="-166.25" font-family="Helvetica,sans-Serif" font-size="10.00">ANIMartRIX::lerp</text>
</a>
</g>
</g>
<!-- Node4&#45;&gt;Node7 -->
<g id="edge6_Node000004_Node000007" class="edge">
<title>Node4&#45;&gt;Node7</title>
<g id="a_edge6_Node000004_Node000007"><a xlink:title=" ">
<path fill="none" stroke="#63b8ff" d="M487.45,-210.58C500.35,-206.12 514.39,-201.27 527.78,-196.64"/>
<polygon fill="#63b8ff" stroke="#63b8ff" points="528.61,-200.06 536.92,-193.49 526.32,-193.44 528.61,-200.06"/>
</a>
</g>
</g>
<!-- Node10 -->
<g id="Node000010" class="node">
<title>Node10</title>
<g id="a_Node000010"><a xlink:href="../../df/d5e/classanimartrix__detail_1_1_a_n_i_mart_r_i_x.html#ac384f7991b6c2a4906b1783b7aa59638" target="_top" xlink:title=" ">
<polygon fill="white" stroke="#666666" points="499.88,-137.5 373.62,-137.5 373.62,-104 499.88,-104 499.88,-137.5"/>
<text text-anchor="start" x="381.62" y="-124" font-family="Helvetica,sans-Serif" font-size="10.00">animartrix_detail::</text>
<text text-anchor="middle" x="436.75" y="-111.25" font-family="Helvetica,sans-Serif" font-size="10.00">ANIMartRIX::logOutput</text>
</a>
</g>
</g>
<!-- Node9&#45;&gt;Node10 -->
<g id="edge9_Node000009_Node000010" class="edge">
<title>Node9&#45;&gt;Node10</title>
<g id="a_edge9_Node000009_Node000010"><a xlink:title=" ">
<path fill="none" stroke="#63b8ff" d="M311.37,-120.75C327.6,-120.75 345.22,-120.75 361.95,-120.75"/>
<polygon fill="#63b8ff" stroke="#63b8ff" points="361.85,-124.25 371.85,-120.75 361.85,-117.25 361.85,-124.25"/>
</a>
</g>
</g>
<!-- Node11&#45;&gt;Node4 -->
<g id="edge12_Node000011_Node000004" class="edge">
<title>Node11&#45;&gt;Node4</title>
<g id="a_edge12_Node000011_Node000004"><a xlink:title=" ">
<path fill="none" stroke="#63b8ff" d="M307.22,-189.94C317.24,-192.88 327.54,-195.9 337.25,-198.75 347.9,-201.88 359.19,-205.2 370.19,-208.43"/>
<polygon fill="#63b8ff" stroke="#63b8ff" points="369.01,-211.74 379.6,-211.2 370.99,-205.02 369.01,-211.74"/>
</a>
</g>
</g>
<!-- Node12 -->
<g id="Node000012" class="node">
<title>Node12</title>
<g id="a_Node000012"><a xlink:href="../../df/d5e/classanimartrix__detail_1_1_a_n_i_mart_r_i_x.html#a2006d9bb43b5840274de66a93529a29f" target="_top" xlink:title=" ">
<polygon fill="white" stroke="#666666" points="500.25,-189.5 373.25,-189.5 373.25,-156 500.25,-156 500.25,-189.5"/>
<text text-anchor="start" x="381.25" y="-176" font-family="Helvetica,sans-Serif" font-size="10.00">animartrix_detail::</text>
<text text-anchor="middle" x="436.75" y="-163.25" font-family="Helvetica,sans-Serif" font-size="10.00">ANIMartRIX::map_float</text>
</a>
</g>
</g>
<!-- Node11&#45;&gt;Node12 -->
<g id="edge11_Node000011_Node000012" class="edge">
<title>Node11&#45;&gt;Node12</title>
<g id="a_edge11_Node000011_Node000012"><a xlink:title=" ">
<path fill="none" stroke="#63b8ff" d="M318.76,-172.75C332.76,-172.75 347.51,-172.75 361.63,-172.75"/>
<polygon fill="#63b8ff" stroke="#63b8ff" points="361.29,-176.25 371.29,-172.75 361.29,-169.25 361.29,-176.25"/>
</a>
</g>
</g>
</g>
</svg>
