<?xml version="1.0" encoding="UTF-8" standalone="no"?>
<!DOCTYPE svg PUBLIC "-//W3C//DTD SVG 1.1//EN"
 "http://www.w3.org/Graphics/SVG/1.1/DTD/svg11.dtd">
<!-- Generated by graphviz version 12.2.1 (20241206.2353)
 -->
<!-- Title: /home/runner/work/FastLED/FastLED/src/fl/dbg.h Pages: 1 -->
<svg width="669pt" height="325pt"
 viewBox="0.00 0.00 669.48 325.25" xmlns="http://www.w3.org/2000/svg" xmlns:xlink="http://www.w3.org/1999/xlink">
<g id="graph0" class="graph" transform="scale(1 1) rotate(0) translate(4 321.25)">
<title>/home/runner/work/FastLED/FastLED/src/fl/dbg.h</title>
<!-- Node1 -->
<g id="Node000001" class="node">
<title>Node1</title>
<g id="a_Node000001"><a xlink:title=" ">
<polygon fill="#999999" stroke="#666666" points="294.02,-317.25 144.52,-317.25 144.52,-283.75 294.02,-283.75 294.02,-317.25"/>
<text text-anchor="start" x="152.52" y="-303.75" font-family="Helvetica,sans-Serif" font-size="10.00">/home/runner/work/FastLED</text>
<text text-anchor="middle" x="219.27" y="-291" font-family="Helvetica,sans-Serif" font-size="10.00">/FastLED/src/fl/dbg.h</text>
</a>
</g>
</g>
<!-- Node2 -->
<g id="Node000002" class="node">
<title>Node2</title>
<g id="a_Node000002"><a xlink:href="../../d8/d00/strstream_8h.html" target="_top" xlink:title=" ">
<polygon fill="white" stroke="#666666" points="259.89,-247.75 178.64,-247.75 178.64,-227 259.89,-227 259.89,-247.75"/>
<text text-anchor="middle" x="219.27" y="-234.25" font-family="Helvetica,sans-Serif" font-size="10.00">fl/strstream.h</text>
</a>
</g>
</g>
<!-- Node1&#45;&gt;Node2 -->
<g id="edge1_Node000001_Node000002" class="edge">
<title>Node1&#45;&gt;Node2</title>
<g id="a_edge1_Node000001_Node000002"><a xlink:title=" ">
<path fill="none" stroke="#63b8ff" d="M219.27,-283.44C219.27,-276.1 219.27,-267.32 219.27,-259.46"/>
<polygon fill="#63b8ff" stroke="#63b8ff" points="222.77,-259.73 219.27,-249.73 215.77,-259.73 222.77,-259.73"/>
</a>
</g>
</g>
<!-- Node3 -->
<g id="Node000003" class="node">
<title>Node3</title>
<g id="a_Node000003"><a xlink:href="../../db/dd1/crgb_8h.html" target="_top" xlink:title="Defines the red, green, and blue (RGB) pixel struct.">
<polygon fill="white" stroke="#666666" points="349.27,-134.25 303.27,-134.25 303.27,-113.5 349.27,-113.5 349.27,-134.25"/>
<text text-anchor="middle" x="326.27" y="-120.75" font-family="Helvetica,sans-Serif" font-size="10.00">crgb.h</text>
</a>
</g>
</g>
<!-- Node2&#45;&gt;Node3 -->
<g id="edge2_Node000002_Node000003" class="edge">
<title>Node2&#45;&gt;Node3</title>
<g id="a_edge2_Node000002_Node000003"><a xlink:title=" ">
<path fill="none" stroke="#63b8ff" d="M228.39,-226.87C246.23,-208.28 285.98,-166.86 308.96,-142.91"/>
<polygon fill="#63b8ff" stroke="#63b8ff" points="311.42,-145.41 315.82,-135.77 306.37,-140.56 311.42,-145.41"/>
</a>
</g>
</g>
<!-- Node11 -->
<g id="Node000011" class="node">
<title>Node11</title>
<g id="a_Node000011"><a xlink:href="../../dc/d0e/fl_2str_8h.html" target="_top" xlink:title=" ">
<polygon fill="white" stroke="#666666" points="214.77,-191 177.77,-191 177.77,-170.25 214.77,-170.25 214.77,-191"/>
<text text-anchor="middle" x="196.27" y="-177.5" font-family="Helvetica,sans-Serif" font-size="10.00">str.h</text>
</a>
</g>
</g>
<!-- Node2&#45;&gt;Node11 -->
<g id="edge17_Node000002_Node000011" class="edge">
<title>Node2&#45;&gt;Node11</title>
<g id="a_edge17_Node000002_Node000011"><a xlink:title=" ">
<path fill="none" stroke="#63b8ff" d="M215.16,-226.59C212.28,-219.74 208.33,-210.34 204.79,-201.9"/>
<polygon fill="#63b8ff" stroke="#63b8ff" points="208.03,-200.59 200.93,-192.72 201.58,-203.3 208.03,-200.59"/>
</a>
</g>
</g>
<!-- Node4 -->
<g id="Node000004" class="node">
<title>Node4</title>
<g id="a_Node000004"><a xlink:title=" ">
<polygon fill="#e0e0e0" stroke="#999999" points="530.64,-20.75 477.89,-20.75 477.89,0 530.64,0 530.64,-20.75"/>
<text text-anchor="middle" x="504.27" y="-7.25" font-family="Helvetica,sans-Serif" font-size="10.00">stdint.h</text>
</a>
</g>
</g>
<!-- Node3&#45;&gt;Node4 -->
<g id="edge3_Node000003_Node000004" class="edge">
<title>Node3&#45;&gt;Node4</title>
<g id="a_edge3_Node000003_Node000004"><a xlink:title=" ">
<path fill="none" stroke="#63b8ff" d="M349.62,-123.21C415.41,-123.59 599.89,-120.73 637.27,-77.5 667.25,-42.83 591.48,-24.43 542.36,-16.41"/>
<polygon fill="#63b8ff" stroke="#63b8ff" points="543.03,-12.98 532.62,-14.92 541.97,-19.9 543.03,-12.98"/>
</a>
</g>
</g>
<!-- Node5 -->
<g id="Node000005" class="node">
<title>Node5</title>
<g id="a_Node000005"><a xlink:href="../../d8/dd0/chsv_8h.html" target="_top" xlink:title="Defines the hue, saturation, and value (HSV) pixel struct.">
<polygon fill="white" stroke="#666666" points="436.64,-77.5 389.89,-77.5 389.89,-56.75 436.64,-56.75 436.64,-77.5"/>
<text text-anchor="middle" x="413.27" y="-64" font-family="Helvetica,sans-Serif" font-size="10.00">chsv.h</text>
</a>
</g>
</g>
<!-- Node3&#45;&gt;Node5 -->
<g id="edge4_Node000003_Node000005" class="edge">
<title>Node3&#45;&gt;Node5</title>
<g id="a_edge4_Node000003_Node000005"><a xlink:title=" ">
<path fill="none" stroke="#63b8ff" d="M341.82,-113.09C354.69,-104.99 373.21,-93.33 388.17,-83.92"/>
<polygon fill="#63b8ff" stroke="#63b8ff" points="389.97,-86.92 396.57,-78.63 386.24,-81 389.97,-86.92"/>
</a>
</g>
</g>
<!-- Node6 -->
<g id="Node000006" class="node">
<title>Node6</title>
<g id="a_Node000006"><a xlink:href="../../df/d2a/namespace_8h.html" target="_top" xlink:title="Implements the FastLED namespace macros.">
<polygon fill="white" stroke="#666666" points="257.39,-20.75 167.14,-20.75 167.14,0 257.39,0 257.39,-20.75"/>
<text text-anchor="middle" x="212.27" y="-7.25" font-family="Helvetica,sans-Serif" font-size="10.00">fl/namespace.h</text>
</a>
</g>
</g>
<!-- Node3&#45;&gt;Node6 -->
<g id="edge7_Node000003_Node000006" class="edge">
<title>Node3&#45;&gt;Node6</title>
<g id="a_edge7_Node000003_Node000006"><a xlink:title=" ">
<path fill="none" stroke="#63b8ff" d="M302.96,-115.71C269.47,-105.18 211.07,-85.87 205.27,-77.5 196.02,-64.16 199.05,-45.52 203.65,-31.43"/>
<polygon fill="#63b8ff" stroke="#63b8ff" points="206.84,-32.89 207.12,-22.3 200.3,-30.4 206.84,-32.89"/>
</a>
</g>
</g>
<!-- Node7 -->
<g id="Node000007" class="node">
<title>Node7</title>
<g id="a_Node000007"><a xlink:href="../../d2/d6b/src_2color_8h.html" target="_top" xlink:title="Contains definitions for color correction and temperature.">
<polygon fill="white" stroke="#666666" points="262.39,-77.5 214.14,-77.5 214.14,-56.75 262.39,-56.75 262.39,-77.5"/>
<text text-anchor="middle" x="238.27" y="-64" font-family="Helvetica,sans-Serif" font-size="10.00">color.h</text>
</a>
</g>
</g>
<!-- Node3&#45;&gt;Node7 -->
<g id="edge8_Node000003_Node000007" class="edge">
<title>Node3&#45;&gt;Node7</title>
<g id="a_edge8_Node000003_Node000007"><a xlink:title=" ">
<path fill="none" stroke="#63b8ff" d="M310.54,-113.09C297.4,-104.91 278.43,-93.11 263.22,-83.65"/>
<polygon fill="#63b8ff" stroke="#63b8ff" points="265.49,-80.94 255.15,-78.63 261.79,-86.88 265.49,-80.94"/>
</a>
</g>
</g>
<!-- Node8 -->
<g id="Node000008" class="node">
<title>Node8</title>
<g id="a_Node000008"><a xlink:href="../../d9/ddf/lib8tion_2types_8h.html" target="_top" xlink:title="Defines fractional types used for lib8tion functions.">
<polygon fill="white" stroke="#666666" points="372.14,-77.5 280.39,-77.5 280.39,-56.75 372.14,-56.75 372.14,-77.5"/>
<text text-anchor="middle" x="326.27" y="-64" font-family="Helvetica,sans-Serif" font-size="10.00">lib8tion/types.h</text>
</a>
</g>
</g>
<!-- Node3&#45;&gt;Node8 -->
<g id="edge10_Node000003_Node000008" class="edge">
<title>Node3&#45;&gt;Node8</title>
<g id="a_edge10_Node000003_Node000008"><a xlink:title=" ">
<path fill="none" stroke="#63b8ff" d="M326.27,-113.09C326.27,-106.47 326.27,-97.47 326.27,-89.27"/>
<polygon fill="#63b8ff" stroke="#63b8ff" points="329.77,-89.34 326.27,-79.34 322.77,-89.34 329.77,-89.34"/>
</a>
</g>
</g>
<!-- Node9 -->
<g id="Node000009" class="node">
<title>Node9</title>
<g id="a_Node000009"><a xlink:href="../../d8/d2d/fl_2force__inline_8h.html" target="_top" xlink:title=" ">
<polygon fill="white" stroke="#666666" points="545.77,-77.5 454.77,-77.5 454.77,-56.75 545.77,-56.75 545.77,-77.5"/>
<text text-anchor="middle" x="500.27" y="-64" font-family="Helvetica,sans-Serif" font-size="10.00">fl/force_inline.h</text>
</a>
</g>
</g>
<!-- Node3&#45;&gt;Node9 -->
<g id="edge13_Node000003_Node000009" class="edge">
<title>Node3&#45;&gt;Node9</title>
<g id="a_edge13_Node000003_Node000009"><a xlink:title=" ">
<path fill="none" stroke="#63b8ff" d="M349.74,-115.49C377.53,-106.75 424.33,-92.02 458.39,-81.3"/>
<polygon fill="#63b8ff" stroke="#63b8ff" points="459.02,-84.77 467.51,-78.43 456.92,-78.1 459.02,-84.77"/>
</a>
</g>
</g>
<!-- Node10 -->
<g id="Node000010" class="node">
<title>Node10</title>
<g id="a_Node000010"><a xlink:href="../../d8/d0c/template__magic_8h.html" target="_top" xlink:title=" ">
<polygon fill="white" stroke="#666666" points="158.02,-77.5 44.52,-77.5 44.52,-56.75 158.02,-56.75 158.02,-77.5"/>
<text text-anchor="middle" x="101.27" y="-64" font-family="Helvetica,sans-Serif" font-size="10.00">fl/template_magic.h</text>
</a>
</g>
</g>
<!-- Node3&#45;&gt;Node10 -->
<g id="edge14_Node000003_Node000010" class="edge">
<title>Node3&#45;&gt;Node10</title>
<g id="a_edge14_Node000003_Node000010"><a xlink:title=" ">
<path fill="none" stroke="#63b8ff" d="M302.89,-115.87C299.99,-115.05 297.07,-114.24 294.27,-113.5 248.38,-101.39 195.93,-89.16 157.3,-80.46"/>
<polygon fill="#63b8ff" stroke="#63b8ff" points="158.29,-77.09 147.76,-78.32 156.76,-83.92 158.29,-77.09"/>
</a>
</g>
</g>
<!-- Node5&#45;&gt;Node4 -->
<g id="edge5_Node000005_Node000004" class="edge">
<title>Node5&#45;&gt;Node4</title>
<g id="a_edge5_Node000005_Node000004"><a xlink:title=" ">
<path fill="none" stroke="#63b8ff" d="M429.54,-56.34C443.13,-48.16 462.74,-36.36 478.47,-26.9"/>
<polygon fill="#63b8ff" stroke="#63b8ff" points="480.08,-30.01 486.84,-21.86 476.47,-24.02 480.08,-30.01"/>
</a>
</g>
</g>
<!-- Node5&#45;&gt;Node6 -->
<g id="edge6_Node000005_Node000006" class="edge">
<title>Node5&#45;&gt;Node6</title>
<g id="a_edge6_Node000005_Node000006"><a xlink:title=" ">
<path fill="none" stroke="#63b8ff" d="M389.52,-59.1C386.74,-58.3 383.95,-57.5 381.27,-56.75 340.8,-45.39 294.71,-33.06 260.9,-24.12"/>
<polygon fill="#63b8ff" stroke="#63b8ff" points="261.95,-20.78 251.39,-21.61 260.17,-27.54 261.95,-20.78"/>
</a>
</g>
</g>
<!-- Node7&#45;&gt;Node6 -->
<g id="edge9_Node000007_Node000006" class="edge">
<title>Node7&#45;&gt;Node6</title>
<g id="a_edge9_Node000007_Node000006"><a xlink:title=" ">
<path fill="none" stroke="#63b8ff" d="M233.62,-56.34C230.33,-49.41 225.8,-39.87 221.76,-31.36"/>
<polygon fill="#63b8ff" stroke="#63b8ff" points="224.98,-29.98 217.53,-22.45 218.66,-32.98 224.98,-29.98"/>
</a>
</g>
</g>
<!-- Node8&#45;&gt;Node4 -->
<g id="edge11_Node000008_Node000004" class="edge">
<title>Node8&#45;&gt;Node4</title>
<g id="a_edge11_Node000008_Node000004"><a xlink:title=" ">
<path fill="none" stroke="#63b8ff" d="M358.09,-56.34C388.6,-46.95 434.64,-32.79 466.88,-22.88"/>
<polygon fill="#63b8ff" stroke="#63b8ff" points="467.68,-26.29 476.21,-20.01 465.62,-19.6 467.68,-26.29"/>
</a>
</g>
</g>
<!-- Node8&#45;&gt;Node6 -->
<g id="edge12_Node000008_Node000006" class="edge">
<title>Node8&#45;&gt;Node6</title>
<g id="a_edge12_Node000008_Node000006"><a xlink:title=" ">
<path fill="none" stroke="#63b8ff" d="M305.89,-56.34C288.3,-47.89 262.64,-35.57 242.63,-25.96"/>
<polygon fill="#63b8ff" stroke="#63b8ff" points="244.37,-22.91 233.84,-21.73 241.34,-29.22 244.37,-22.91"/>
</a>
</g>
</g>
<!-- Node10&#45;&gt;Node4 -->
<g id="edge15_Node000010_Node000004" class="edge">
<title>Node10&#45;&gt;Node4</title>
<g id="a_edge15_Node000010_Node000004"><a xlink:title=" ">
<path fill="none" stroke="#63b8ff" d="M158.15,-58.4C241.8,-47.03 395.73,-26.12 466.66,-16.48"/>
<polygon fill="#63b8ff" stroke="#63b8ff" points="466.77,-20 476.21,-15.19 465.83,-13.06 466.77,-20"/>
</a>
</g>
</g>
<!-- Node10&#45;&gt;Node6 -->
<g id="edge16_Node000010_Node000006" class="edge">
<title>Node10&#45;&gt;Node6</title>
<g id="a_edge16_Node000010_Node000006"><a xlink:title=" ">
<path fill="none" stroke="#63b8ff" d="M121.11,-56.34C138.16,-47.93 162.99,-35.68 182.43,-26.09"/>
<polygon fill="#63b8ff" stroke="#63b8ff" points="183.82,-29.31 191.24,-21.75 180.72,-23.03 183.82,-29.31"/>
</a>
</g>
</g>
<!-- Node11&#45;&gt;Node4 -->
<g id="edge19_Node000011_Node000004" class="edge">
<title>Node11&#45;&gt;Node4</title>
<g id="a_edge19_Node000011_Node000004"><a xlink:title=" ">
<path fill="none" stroke="#63b8ff" d="M215.12,-178.46C294.23,-173.17 597.97,-148.4 654.27,-77.5 686.59,-36.8 596.48,-20.52 542.16,-14.53"/>
<polygon fill="#63b8ff" stroke="#63b8ff" points="542.65,-11.06 532.35,-13.52 541.94,-18.02 542.65,-11.06"/>
</a>
</g>
</g>
<!-- Node11&#45;&gt;Node6 -->
<g id="edge27_Node000011_Node000006" class="edge">
<title>Node11&#45;&gt;Node6</title>
<g id="a_edge27_Node000011_Node000006"><a xlink:title=" ">
<path fill="none" stroke="#63b8ff" d="M177.34,-178.09C133.08,-174.06 24.91,-161.57 3.27,-134.25 -2.46,-127.02 1.64,-122.58 3.27,-113.5 8.01,-87.03 4.17,-74.62 24.27,-56.75 60.09,-24.91 114.42,-14.47 155.47,-11.46"/>
<polygon fill="#63b8ff" stroke="#63b8ff" points="155.66,-14.96 165.43,-10.88 155.25,-7.97 155.66,-14.96"/>
</a>
</g>
</g>
<!-- Node11&#45;&gt;Node10 -->
<g id="edge23_Node000011_Node000010" class="edge">
<title>Node11&#45;&gt;Node10</title>
<g id="a_edge23_Node000011_Node000010"><a xlink:title=" ">
<path fill="none" stroke="#63b8ff" d="M188.17,-170.12C172.4,-151.61 137.35,-110.47 116.91,-86.48"/>
<polygon fill="#63b8ff" stroke="#63b8ff" points="119.75,-84.42 110.6,-79.08 114.42,-88.96 119.75,-84.42"/>
</a>
</g>
</g>
<!-- Node12 -->
<g id="Node000012" class="node">
<title>Node12</title>
<g id="a_Node000012"><a xlink:title=" ">
<polygon fill="#e0e0e0" stroke="#999999" points="129.64,-134.25 76.89,-134.25 76.89,-113.5 129.64,-113.5 129.64,-134.25"/>
<text text-anchor="middle" x="103.27" y="-120.75" font-family="Helvetica,sans-Serif" font-size="10.00">string.h</text>
</a>
</g>
</g>
<!-- Node11&#45;&gt;Node12 -->
<g id="edge18_Node000011_Node000012" class="edge">
<title>Node11&#45;&gt;Node12</title>
<g id="a_edge18_Node000011_Node000012"><a xlink:title=" ">
<path fill="none" stroke="#63b8ff" d="M179.64,-169.84C165.76,-161.66 145.71,-149.86 129.63,-140.4"/>
<polygon fill="#63b8ff" stroke="#63b8ff" points="131.45,-137.4 121.06,-135.35 127.9,-143.44 131.45,-137.4"/>
</a>
</g>
</g>
<!-- Node13 -->
<g id="Node000013" class="node">
<title>Node13</title>
<g id="a_Node000013"><a xlink:href="../../d7/df1/fl_2ptr_8h.html" target="_top" xlink:title=" ">
<polygon fill="#fff0f0" stroke="red" points="58.64,-134.25 11.89,-134.25 11.89,-113.5 58.64,-113.5 58.64,-134.25"/>
<text text-anchor="middle" x="35.27" y="-120.75" font-family="Helvetica,sans-Serif" font-size="10.00">fl/ptr.h</text>
</a>
</g>
</g>
<!-- Node11&#45;&gt;Node13 -->
<g id="edge20_Node000011_Node000013" class="edge">
<title>Node11&#45;&gt;Node13</title>
<g id="a_edge20_Node000011_Node000013"><a xlink:title=" ">
<path fill="none" stroke="#63b8ff" d="M177.49,-173.24C151.03,-164.24 102.35,-147.69 69.4,-136.48"/>
<polygon fill="#63b8ff" stroke="#63b8ff" points="70.91,-133.3 60.31,-133.39 68.65,-139.92 70.91,-133.3"/>
</a>
</g>
</g>
<!-- Node16 -->
<g id="Node000016" class="node">
<title>Node16</title>
<g id="a_Node000016"><a xlink:href="../../d6/d68/vector_8h.html" target="_top" xlink:title=" ">
<polygon fill="#fff0f0" stroke="red" points="628.27,-77.5 564.27,-77.5 564.27,-56.75 628.27,-56.75 628.27,-77.5"/>
<text text-anchor="middle" x="596.27" y="-64" font-family="Helvetica,sans-Serif" font-size="10.00">fl/vector.h</text>
</a>
</g>
</g>
<!-- Node11&#45;&gt;Node16 -->
<g id="edge24_Node000011_Node000016" class="edge">
<title>Node11&#45;&gt;Node16</title>
<g id="a_edge24_Node000011_Node000016"><a xlink:title=" ">
<path fill="none" stroke="#63b8ff" d="M215.03,-174.4C275.48,-157.54 466.33,-104.35 552.86,-80.23"/>
<polygon fill="#63b8ff" stroke="#63b8ff" points="553.71,-83.62 562.4,-77.57 551.83,-76.88 553.71,-83.62"/>
</a>
</g>
</g>
<!-- Node19 -->
<g id="Node000019" class="node">
<title>Node19</title>
<g id="a_Node000019"><a xlink:href="../../d0/d19/fl_2math__macros_8h.html" target="_top" xlink:title=" ">
<polygon fill="white" stroke="#666666" points="285.64,-134.25 184.89,-134.25 184.89,-113.5 285.64,-113.5 285.64,-134.25"/>
<text text-anchor="middle" x="235.27" y="-120.75" font-family="Helvetica,sans-Serif" font-size="10.00">fl/math_macros.h</text>
</a>
</g>
</g>
<!-- Node11&#45;&gt;Node19 -->
<g id="edge28_Node000011_Node000019" class="edge">
<title>Node11&#45;&gt;Node19</title>
<g id="a_edge28_Node000011_Node000019"><a xlink:title=" ">
<path fill="none" stroke="#63b8ff" d="M203.24,-169.84C208.4,-162.6 215.59,-152.51 221.84,-143.72"/>
<polygon fill="#63b8ff" stroke="#63b8ff" points="224.53,-145.99 227.48,-135.81 218.83,-141.93 224.53,-145.99"/>
</a>
</g>
</g>
<!-- Node13&#45;&gt;Node6 -->
<g id="edge21_Node000013_Node000006" class="edge">
<title>Node13&#45;&gt;Node6</title>
<g id="a_edge21_Node000013_Node000006"><a xlink:title=" ">
<path fill="none" stroke="#63b8ff" d="M31.92,-113.17C27.75,-99.13 22.6,-73.08 35.27,-56.75 50.02,-37.75 109.4,-25.34 155.37,-18.37"/>
<polygon fill="#63b8ff" stroke="#63b8ff" points="155.84,-21.84 165.23,-16.94 154.83,-14.92 155.84,-21.84"/>
</a>
</g>
</g>
<!-- Node13&#45;&gt;Node10 -->
<g id="edge22_Node000013_Node000010" class="edge">
<title>Node13&#45;&gt;Node10</title>
<g id="a_edge22_Node000013_Node000010"><a xlink:title=" ">
<path fill="none" stroke="#63b8ff" d="M47.07,-113.09C56.45,-105.3 69.81,-94.22 80.91,-85.01"/>
<polygon fill="#63b8ff" stroke="#63b8ff" points="82.95,-87.87 88.41,-78.79 78.48,-82.49 82.95,-87.87"/>
</a>
</g>
</g>
<!-- Node16&#45;&gt;Node4 -->
<g id="edge25_Node000016_Node000004" class="edge">
<title>Node16&#45;&gt;Node4</title>
<g id="a_edge25_Node000016_Node000004"><a xlink:title=" ">
<path fill="none" stroke="#63b8ff" d="M579.82,-56.34C566.09,-48.16 546.25,-36.36 530.35,-26.9"/>
<polygon fill="#63b8ff" stroke="#63b8ff" points="532.26,-23.96 521.88,-21.85 528.68,-29.97 532.26,-23.96"/>
</a>
</g>
</g>
<!-- Node16&#45;&gt;Node6 -->
<g id="edge26_Node000016_Node000006" class="edge">
<title>Node16&#45;&gt;Node6</title>
<g id="a_edge26_Node000016_Node000006"><a xlink:title=" ">
<path fill="none" stroke="#63b8ff" d="M564.1,-58.47C561.12,-57.85 558.14,-57.27 555.27,-56.75 455.1,-38.71 337.26,-24.67 269.03,-17.24"/>
<polygon fill="#63b8ff" stroke="#63b8ff" points="269.52,-13.78 259.2,-16.18 268.77,-20.73 269.52,-13.78"/>
</a>
</g>
</g>
</g>
</svg>
