<?xml version="1.0" encoding="UTF-8" standalone="no"?>
<!DOCTYPE svg PUBLIC "-//W3C//DTD SVG 1.1//EN"
 "http://www.w3.org/Graphics/SVG/1.1/DTD/svg11.dtd">
<!-- Generated by graphviz version 12.2.1 (20241206.2353)
 -->
<!-- Title: DMXSIMPLE&lt; DATA_PIN, RGB_ORDER &gt; Pages: 1 -->
<svg width="1066pt" height="113pt"
 viewBox="0.00 0.00 1066.00 113.38" xmlns="http://www.w3.org/2000/svg" xmlns:xlink="http://www.w3.org/1999/xlink">
<g id="graph0" class="graph" transform="scale(1 1) rotate(0) translate(4 109.38)">
<title>DMXSIMPLE&lt; DATA_PIN, RGB_ORDER &gt;</title>
<!-- Node1 -->
<g id="Node000001" class="node">
<title>Node1</title>
<g id="a_Node000001"><a xlink:title="DMX512 based LED controller class, using the DmxSimple library.">
<polygon fill="#999999" stroke="#666666" points="1058,-60.5 922,-60.5 922,-27 1058,-27 1058,-60.5"/>
<text text-anchor="start" x="930" y="-47" font-family="Helvetica,sans-Serif" font-size="10.00">DMXSIMPLE&lt; DATA_PIN,</text>
<text text-anchor="middle" x="990" y="-34.25" font-family="Helvetica,sans-Serif" font-size="10.00"> RGB_ORDER &gt;</text>
</a>
</g>
</g>
<!-- Node2 -->
<g id="Node000002" class="node">
<title>Node2</title>
<g id="a_Node000002"><a xlink:href="../../d7/d6f/group___clockless_chipsets.html" target="_top" xlink:title=" ">
<polygon fill="white" stroke="#666666" points="885,-60.5 732.5,-60.5 732.5,-27 885,-27 885,-60.5"/>
<text text-anchor="start" x="740.5" y="-47" font-family="Helvetica,sans-Serif" font-size="10.00">DMXSimpleController</text>
<text text-anchor="middle" x="808.75" y="-34.25" font-family="Helvetica,sans-Serif" font-size="10.00">&lt; DATA_PIN, RGB_ORDER &gt;</text>
</a>
</g>
</g>
<!-- Node2&#45;&gt;Node1 -->
<g id="edge1_Node000001_Node000002" class="edge">
<title>Node2&#45;&gt;Node1</title>
<g id="a_edge1_Node000001_Node000002"><a xlink:title=" ">
<path fill="none" stroke="#63b8ff" d="M896.63,-43.75C905,-43.75 913.41,-43.75 921.56,-43.75"/>
<polygon fill="#63b8ff" stroke="#63b8ff" points="896.76,-40.25 886.76,-43.75 896.76,-47.25 896.76,-40.25"/>
</a>
</g>
</g>
<!-- Node3 -->
<g id="Node000003" class="node">
<title>Node3</title>
<g id="a_Node000003"><a xlink:href="../../d0/dc9/class_c_pixel_l_e_d_controller.html" target="_top" xlink:title="Template extension of the CLEDController class.">
<polygon fill="white" stroke="#666666" points="386.5,-84.88 257.25,-84.88 257.25,-38.62 386.5,-38.62 386.5,-84.88"/>
<text text-anchor="start" x="265.25" y="-71.38" font-family="Helvetica,sans-Serif" font-size="10.00">CPixelLEDController</text>
<text text-anchor="start" x="265.25" y="-58.62" font-family="Helvetica,sans-Serif" font-size="10.00">&lt; RGB_ORDER, LANES,</text>
<text text-anchor="middle" x="321.88" y="-45.88" font-family="Helvetica,sans-Serif" font-size="10.00"> MASK &gt;</text>
</a>
</g>
</g>
<!-- Node3&#45;&gt;Node2 -->
<g id="edge2_Node000002_Node000003" class="edge">
<title>Node3&#45;&gt;Node2</title>
<g id="a_edge2_Node000002_Node000003"><a xlink:title=" ">
<path fill="none" stroke="#63b8ff" d="M398.26,-59.21C477.12,-56.53 604.51,-52.07 714.5,-47.75 720.25,-47.52 726.2,-47.28 732.18,-47.04"/>
<polygon fill="#63b8ff" stroke="#63b8ff" points="398.37,-55.71 388.5,-59.55 398.61,-62.7 398.37,-55.71"/>
</a>
</g>
</g>
<!-- Node4 -->
<g id="Node000004" class="node">
<title>Node4</title>
<g id="a_Node000004"><a xlink:href="../../d6/d2c/class_c_l_e_d_controller.html" target="_top" xlink:title="Base definition for an LED controller.">
<polygon fill="#fff0f0" stroke="red" points="89.5,-49.12 0,-49.12 0,-28.38 89.5,-28.38 89.5,-49.12"/>
<text text-anchor="middle" x="44.75" y="-35.62" font-family="Helvetica,sans-Serif" font-size="10.00">CLEDController</text>
</a>
</g>
</g>
<!-- Node4&#45;&gt;Node3 -->
<g id="edge3_Node000003_Node000004" class="edge">
<title>Node4&#45;&gt;Node3</title>
<g id="a_edge3_Node000003_Node000004"><a xlink:title=" ">
<path fill="none" stroke="#63b8ff" d="M101.26,-43.39C146.23,-47.15 209.65,-52.45 256.78,-56.39"/>
<polygon fill="#63b8ff" stroke="#63b8ff" points="101.72,-39.92 91.46,-42.57 101.14,-46.89 101.72,-39.92"/>
</a>
</g>
</g>
<!-- Node4&#45;&gt;Node4 -->
<g id="edge4_Node000004_Node000004" class="edge">
<title>Node4&#45;&gt;Node4</title>
<g id="a_edge4_Node000004_Node000004"><a xlink:title=" ">
<path fill="none" stroke="#9a32cd" stroke-dasharray="5,2" d="M33.75,-60.94C35.31,-64.6 38.97,-67.12 44.75,-67.12 55.62,-67.12 59.02,-58.18 54.94,-49.52"/>
<polygon fill="#9a32cd" stroke="#9a32cd" points="37.24,-61.25 34.45,-51.03 30.26,-60.76 37.24,-61.25"/>
</a>
</g>
<text text-anchor="middle" x="44.75" y="-95.88" font-family="Helvetica,sans-Serif" font-size="10.00" fill="grey"> m_pHead</text>
<text text-anchor="middle" x="44.75" y="-83.12" font-family="Helvetica,sans-Serif" font-size="10.00" fill="grey">m_pNext</text>
<text text-anchor="middle" x="44.75" y="-70.38" font-family="Helvetica,sans-Serif" font-size="10.00" fill="grey">m_pTail</text>
</g>
<!-- Node8 -->
<g id="Node000008" class="node">
<title>Node8</title>
<g id="a_Node000008"><a xlink:href="../../d0/dc9/class_c_pixel_l_e_d_controller.html" target="_top" xlink:title=" ">
<polygon fill="#fff0f0" stroke="red" points="239.25,-33.5 126.5,-33.5 126.5,0 239.25,0 239.25,-33.5"/>
<text text-anchor="start" x="134.5" y="-20" font-family="Helvetica,sans-Serif" font-size="10.00">CPixelLEDController</text>
<text text-anchor="middle" x="182.88" y="-7.25" font-family="Helvetica,sans-Serif" font-size="10.00">&lt; RGB &gt;</text>
</a>
</g>
</g>
<!-- Node4&#45;&gt;Node8 -->
<g id="edge7_Node000008_Node000004" class="edge">
<title>Node4&#45;&gt;Node8</title>
<g id="a_edge7_Node000008_Node000004"><a xlink:title=" ">
<path fill="none" stroke="#63b8ff" d="M101.13,-29.8C109.48,-28.45 118.1,-27.06 126.46,-25.71"/>
<polygon fill="#63b8ff" stroke="#63b8ff" points="100.75,-26.32 91.44,-31.37 101.87,-33.23 100.75,-26.32"/>
</a>
</g>
</g>
<!-- Node7 -->
<g id="Node000007" class="node">
<title>Node7</title>
<g id="a_Node000007"><a xlink:href="../../d7/d6f/group___clockless_chipsets.html#d0/da7/class_d_m_x_simple_controller" target="_top" xlink:title="DMX512 based LED controller class, using the DmxSimple library.">
<polygon fill="white" stroke="#666666" points="557,-33.5 404.5,-33.5 404.5,0 557,0 557,-33.5"/>
<text text-anchor="start" x="412.5" y="-20" font-family="Helvetica,sans-Serif" font-size="10.00">DMXSimpleController</text>
<text text-anchor="middle" x="480.75" y="-7.25" font-family="Helvetica,sans-Serif" font-size="10.00">&lt; DATA_PIN, RGB_ORDER &gt;</text>
</a>
</g>
</g>
<!-- Node7&#45;&gt;Node2 -->
<g id="edge5_Node000002_Node000007" class="edge">
<title>Node7&#45;&gt;Node2</title>
<g id="a_edge5_Node000002_Node000007"><a xlink:title=" ">
<path fill="none" stroke="orange" stroke-dasharray="5,2" d="M568.72,-23.25C612.47,-26.6 666.31,-30.85 714.5,-35 720.25,-35.5 726.2,-36.02 732.18,-36.56"/>
<polygon fill="orange" stroke="orange" points="568.99,-19.76 558.75,-22.49 568.46,-26.74 568.99,-19.76"/>
</a>
</g>
<text text-anchor="middle" x="644.75" y="-38.25" font-family="Helvetica,sans-Serif" font-size="10.00" fill="grey"> &lt; DATA_PIN, RGB_ORDER &gt;</text>
</g>
<!-- Node8&#45;&gt;Node7 -->
<g id="edge6_Node000007_Node000008" class="edge">
<title>Node8&#45;&gt;Node7</title>
<g id="a_edge6_Node000007_Node000008"><a xlink:title=" ">
<path fill="none" stroke="#63b8ff" d="M250.79,-16.75C296.41,-16.75 356.9,-16.75 404.24,-16.75"/>
<polygon fill="#63b8ff" stroke="#63b8ff" points="251.04,-13.25 241.04,-16.75 251.04,-20.25 251.04,-13.25"/>
</a>
</g>
</g>
</g>
</svg>
