<?xml version="1.0" encoding="UTF-8" standalone="no"?>
<!DOCTYPE svg PUBLIC "-//W3C//DTD SVG 1.1//EN"
 "http://www.w3.org/Graphics/SVG/1.1/DTD/svg11.dtd">
<!-- Generated by graphviz version 12.2.1 (20241206.2353)
 -->
<!-- Title: /home/runner/work/FastLED/FastLED/src/fl/xmap.h Pages: 1 -->
<svg width="536pt" height="269pt"
 viewBox="0.00 0.00 536.18 268.50" xmlns="http://www.w3.org/2000/svg" xmlns:xlink="http://www.w3.org/1999/xlink">
<g id="graph0" class="graph" transform="scale(1 1) rotate(0) translate(4 264.5)">
<title>/home/runner/work/FastLED/FastLED/src/fl/xmap.h</title>
<!-- Node1 -->
<g id="Node000001" class="node">
<title>Node1</title>
<g id="a_Node000001"><a xlink:title=" ">
<polygon fill="#999999" stroke="#666666" points="199.8,-260.5 50.3,-260.5 50.3,-227 199.8,-227 199.8,-260.5"/>
<text text-anchor="start" x="58.3" y="-247" font-family="Helvetica,sans-Serif" font-size="10.00">/home/runner/work/FastLED</text>
<text text-anchor="middle" x="125.05" y="-234.25" font-family="Helvetica,sans-Serif" font-size="10.00">/FastLED/src/fl/xmap.h</text>
</a>
</g>
</g>
<!-- Node2 -->
<g id="Node000002" class="node">
<title>Node2</title>
<g id="a_Node000002"><a xlink:title=" ">
<polygon fill="#e0e0e0" stroke="#999999" points="159.43,-20.75 106.68,-20.75 106.68,0 159.43,0 159.43,-20.75"/>
<text text-anchor="middle" x="133.05" y="-7.25" font-family="Helvetica,sans-Serif" font-size="10.00">stdint.h</text>
</a>
</g>
</g>
<!-- Node1&#45;&gt;Node2 -->
<g id="edge1_Node000001_Node000002" class="edge">
<title>Node1&#45;&gt;Node2</title>
<g id="a_edge1_Node000001_Node000002"><a xlink:title=" ">
<path fill="none" stroke="#63b8ff" d="M79.86,-226.56C61.6,-218.22 41.48,-206.49 27.05,-191 2.39,-164.52 -0.17,-149.62 2.05,-113.5 3.61,-88.13 -6.75,-76.65 9.05,-56.75 29.8,-30.64 67,-19.55 95.26,-14.85"/>
<polygon fill="#63b8ff" stroke="#63b8ff" points="95.47,-18.35 104.87,-13.46 94.47,-11.42 95.47,-18.35"/>
</a>
</g>
</g>
<!-- Node3 -->
<g id="Node000003" class="node">
<title>Node3</title>
<g id="a_Node000003"><a xlink:title=" ">
<polygon fill="#e0e0e0" stroke="#999999" points="70.43,-77.5 17.68,-77.5 17.68,-56.75 70.43,-56.75 70.43,-77.5"/>
<text text-anchor="middle" x="44.05" y="-64" font-family="Helvetica,sans-Serif" font-size="10.00">string.h</text>
</a>
</g>
</g>
<!-- Node1&#45;&gt;Node3 -->
<g id="edge2_Node000001_Node000003" class="edge">
<title>Node1&#45;&gt;Node3</title>
<g id="a_edge2_Node000001_Node000003"><a xlink:title=" ">
<path fill="none" stroke="#63b8ff" d="M97.1,-226.58C68.61,-208.31 26.12,-175.63 8.05,-134.25 0.66,-117.31 12.41,-98.92 24.42,-85.84"/>
<polygon fill="#63b8ff" stroke="#63b8ff" points="26.87,-88.33 31.47,-78.79 21.92,-83.38 26.87,-88.33"/>
</a>
</g>
</g>
<!-- Node4 -->
<g id="Node000004" class="node">
<title>Node4</title>
<g id="a_Node000004"><a xlink:href="../../d8/d2d/fl_2force__inline_8h.html" target="_top" xlink:title=" ">
<polygon fill="white" stroke="#666666" points="108.55,-134.25 17.55,-134.25 17.55,-113.5 108.55,-113.5 108.55,-134.25"/>
<text text-anchor="middle" x="63.05" y="-120.75" font-family="Helvetica,sans-Serif" font-size="10.00">fl/force_inline.h</text>
</a>
</g>
</g>
<!-- Node1&#45;&gt;Node4 -->
<g id="edge3_Node000001_Node000004" class="edge">
<title>Node1&#45;&gt;Node4</title>
<g id="a_edge3_Node000001_Node000004"><a xlink:title=" ">
<path fill="none" stroke="#63b8ff" d="M116.69,-226.85C105.5,-205.58 85.65,-167.84 73.49,-144.72"/>
<polygon fill="#63b8ff" stroke="#63b8ff" points="76.67,-143.24 68.92,-136.02 70.48,-146.5 76.67,-143.24"/>
</a>
</g>
</g>
<!-- Node5 -->
<g id="Node000005" class="node">
<title>Node5</title>
<g id="a_Node000005"><a xlink:href="../../d3/db6/fl_2lut_8h.html" target="_top" xlink:title=" ">
<polygon fill="white" stroke="#666666" points="187.43,-191 140.68,-191 140.68,-170.25 187.43,-170.25 187.43,-191"/>
<text text-anchor="middle" x="164.05" y="-177.5" font-family="Helvetica,sans-Serif" font-size="10.00">fl/lut.h</text>
</a>
</g>
</g>
<!-- Node1&#45;&gt;Node5 -->
<g id="edge4_Node000001_Node000005" class="edge">
<title>Node1&#45;&gt;Node5</title>
<g id="a_edge4_Node000001_Node000005"><a xlink:title=" ">
<path fill="none" stroke="#63b8ff" d="M135.3,-226.69C140.32,-218.83 146.39,-209.31 151.67,-201.04"/>
<polygon fill="#63b8ff" stroke="#63b8ff" points="154.53,-203.06 156.96,-192.74 148.63,-199.29 154.53,-203.06"/>
</a>
</g>
</g>
<!-- Node6 -->
<g id="Node000006" class="node">
<title>Node6</title>
<g id="a_Node000006"><a xlink:href="../../d7/df1/fl_2ptr_8h.html" target="_top" xlink:title=" ">
<polygon fill="white" stroke="#666666" points="313.43,-134.25 266.68,-134.25 266.68,-113.5 313.43,-113.5 313.43,-134.25"/>
<text text-anchor="middle" x="290.05" y="-120.75" font-family="Helvetica,sans-Serif" font-size="10.00">fl/ptr.h</text>
</a>
</g>
</g>
<!-- Node1&#45;&gt;Node6 -->
<g id="edge20_Node000001_Node000006" class="edge">
<title>Node1&#45;&gt;Node6</title>
<g id="a_edge20_Node000001_Node000006"><a xlink:title=" ">
<path fill="none" stroke="#63b8ff" d="M147.65,-226.61C179.03,-204.19 235.49,-163.85 267.07,-141.29"/>
<polygon fill="#63b8ff" stroke="#63b8ff" points="269.06,-144.18 275.16,-135.52 264.99,-138.48 269.06,-144.18"/>
</a>
</g>
</g>
<!-- Node8 -->
<g id="Node000008" class="node">
<title>Node8</title>
<g id="a_Node000008"><a xlink:href="../../df/d2a/namespace_8h.html" target="_top" xlink:title="Implements the FastLED namespace macros.">
<polygon fill="white" stroke="#666666" points="528.18,-20.75 437.93,-20.75 437.93,0 528.18,0 528.18,-20.75"/>
<text text-anchor="middle" x="483.05" y="-7.25" font-family="Helvetica,sans-Serif" font-size="10.00">fl/namespace.h</text>
</a>
</g>
</g>
<!-- Node1&#45;&gt;Node8 -->
<g id="edge21_Node000001_Node000008" class="edge">
<title>Node1&#45;&gt;Node8</title>
<g id="a_edge21_Node000001_Node000008"><a xlink:title=" ">
<path fill="none" stroke="#63b8ff" d="M178.74,-226.51C237.91,-207.71 335.16,-174.19 414.05,-134.25 455.24,-113.4 479.07,-118.09 501.05,-77.5 509.01,-62.81 502.82,-44.33 495.61,-30.65"/>
<polygon fill="#63b8ff" stroke="#63b8ff" points="498.71,-29.02 490.63,-22.17 492.68,-32.56 498.71,-29.02"/>
</a>
</g>
</g>
<!-- Node5&#45;&gt;Node2 -->
<g id="edge5_Node000005_Node000002" class="edge">
<title>Node5&#45;&gt;Node2</title>
<g id="a_edge5_Node000005_Node000002"><a xlink:title=" ">
<path fill="none" stroke="#63b8ff" d="M162.3,-170.1C157.44,-143.73 143.73,-69.33 136.95,-32.53"/>
<polygon fill="#63b8ff" stroke="#63b8ff" points="140.4,-31.91 135.14,-22.71 133.51,-33.17 140.4,-31.91"/>
</a>
</g>
</g>
<!-- Node5&#45;&gt;Node4 -->
<g id="edge15_Node000005_Node000004" class="edge">
<title>Node5&#45;&gt;Node4</title>
<g id="a_edge15_Node000005_Node000004"><a xlink:title=" ">
<path fill="none" stroke="#63b8ff" d="M146,-169.84C130.63,-161.51 108.31,-149.41 90.69,-139.86"/>
<polygon fill="#63b8ff" stroke="#63b8ff" points="92.74,-136.99 82.29,-135.3 89.41,-143.14 92.74,-136.99"/>
</a>
</g>
</g>
<!-- Node5&#45;&gt;Node6 -->
<g id="edge6_Node000005_Node000006" class="edge">
<title>Node5&#45;&gt;Node6</title>
<g id="a_edge6_Node000005_Node000006"><a xlink:title=" ">
<path fill="none" stroke="#63b8ff" d="M186.58,-169.84C206.29,-161.27 235.16,-148.73 257.41,-139.06"/>
<polygon fill="#63b8ff" stroke="#63b8ff" points="258.56,-142.38 266.33,-135.18 255.77,-135.96 258.56,-142.38"/>
</a>
</g>
</g>
<!-- Node5&#45;&gt;Node8 -->
<g id="edge19_Node000005_Node000008" class="edge">
<title>Node5&#45;&gt;Node8</title>
<g id="a_edge19_Node000005_Node000008"><a xlink:title=" ">
<path fill="none" stroke="#63b8ff" d="M187.91,-175.76C255.99,-164.17 448.63,-127.44 484.05,-77.5 493.3,-64.46 492.2,-46.05 489.26,-31.96"/>
<polygon fill="#63b8ff" stroke="#63b8ff" points="492.68,-31.22 486.8,-22.41 485.91,-32.96 492.68,-31.22"/>
</a>
</g>
</g>
<!-- Node11 -->
<g id="Node000011" class="node">
<title>Node11</title>
<g id="a_Node000011"><a xlink:href="../../d2/d6f/fl_2allocator_8h.html" target="_top" xlink:title=" ">
<polygon fill="white" stroke="#666666" points="241.05,-134.25 165.05,-134.25 165.05,-113.5 241.05,-113.5 241.05,-134.25"/>
<text text-anchor="middle" x="203.05" y="-120.75" font-family="Helvetica,sans-Serif" font-size="10.00">fl/allocator.h</text>
</a>
</g>
</g>
<!-- Node5&#45;&gt;Node11 -->
<g id="edge16_Node000005_Node000011" class="edge">
<title>Node5&#45;&gt;Node11</title>
<g id="a_edge16_Node000005_Node000011"><a xlink:title=" ">
<path fill="none" stroke="#63b8ff" d="M171.03,-169.84C176.18,-162.6 183.37,-152.51 189.63,-143.72"/>
<polygon fill="#63b8ff" stroke="#63b8ff" points="192.31,-145.99 195.26,-135.81 186.61,-141.93 192.31,-145.99"/>
</a>
</g>
</g>
<!-- Node7 -->
<g id="Node000007" class="node">
<title>Node7</title>
<g id="a_Node000007"><a xlink:title=" ">
<polygon fill="#e0e0e0" stroke="#999999" points="236.55,-20.75 181.55,-20.75 181.55,0 236.55,0 236.55,-20.75"/>
<text text-anchor="middle" x="209.05" y="-7.25" font-family="Helvetica,sans-Serif" font-size="10.00">stddef.h</text>
</a>
</g>
</g>
<!-- Node6&#45;&gt;Node7 -->
<g id="edge7_Node000006_Node000007" class="edge">
<title>Node6&#45;&gt;Node7</title>
<g id="a_edge7_Node000006_Node000007"><a xlink:title=" ">
<path fill="none" stroke="#63b8ff" d="M270.57,-113.13C256.79,-105.29 238.9,-93.03 228.05,-77.5 218.74,-64.15 213.96,-46.28 211.52,-32.48"/>
<polygon fill="#63b8ff" stroke="#63b8ff" points="215,-32.09 210.1,-22.69 208.07,-33.09 215,-32.09"/>
</a>
</g>
</g>
<!-- Node6&#45;&gt;Node8 -->
<g id="edge8_Node000006_Node000008" class="edge">
<title>Node6&#45;&gt;Node8</title>
<g id="a_edge8_Node000006_Node000008"><a xlink:title=" ">
<path fill="none" stroke="#63b8ff" d="M313.85,-123.65C351.04,-123.5 422.94,-117.61 464.05,-77.5 476.09,-65.76 480.63,-46.94 482.29,-32.37"/>
<polygon fill="#63b8ff" stroke="#63b8ff" points="485.77,-32.69 483,-22.46 478.79,-32.18 485.77,-32.69"/>
</a>
</g>
</g>
<!-- Node9 -->
<g id="Node000009" class="node">
<title>Node9</title>
<g id="a_Node000009"><a xlink:href="../../df/d28/fl_2scoped__ptr_8h.html" target="_top" xlink:title=" ">
<polygon fill="white" stroke="#666666" points="455.3,-77.5 368.8,-77.5 368.8,-56.75 455.3,-56.75 455.3,-77.5"/>
<text text-anchor="middle" x="412.05" y="-64" font-family="Helvetica,sans-Serif" font-size="10.00">fl/scoped_ptr.h</text>
</a>
</g>
</g>
<!-- Node6&#45;&gt;Node9 -->
<g id="edge9_Node000006_Node000009" class="edge">
<title>Node6&#45;&gt;Node9</title>
<g id="a_edge9_Node000006_Node000009"><a xlink:title=" ">
<path fill="none" stroke="#63b8ff" d="M311.87,-113.09C330.86,-104.56 358.65,-92.09 380.15,-82.44"/>
<polygon fill="#63b8ff" stroke="#63b8ff" points="381.36,-85.74 389.05,-78.45 378.49,-79.35 381.36,-85.74"/>
</a>
</g>
</g>
<!-- Node10 -->
<g id="Node000010" class="node">
<title>Node10</title>
<g id="a_Node000010"><a xlink:href="../../d8/d0c/template__magic_8h.html" target="_top" xlink:title=" ">
<polygon fill="white" stroke="#666666" points="350.8,-77.5 237.3,-77.5 237.3,-56.75 350.8,-56.75 350.8,-77.5"/>
<text text-anchor="middle" x="294.05" y="-64" font-family="Helvetica,sans-Serif" font-size="10.00">fl/template_magic.h</text>
</a>
</g>
</g>
<!-- Node6&#45;&gt;Node10 -->
<g id="edge12_Node000006_Node000010" class="edge">
<title>Node6&#45;&gt;Node10</title>
<g id="a_edge12_Node000006_Node000010"><a xlink:title=" ">
<path fill="none" stroke="#63b8ff" d="M290.77,-113.09C291.25,-106.47 291.91,-97.47 292.51,-89.27"/>
<polygon fill="#63b8ff" stroke="#63b8ff" points="296,-89.57 293.23,-79.34 289.02,-89.06 296,-89.57"/>
</a>
</g>
</g>
<!-- Node9&#45;&gt;Node7 -->
<g id="edge10_Node000009_Node000007" class="edge">
<title>Node9&#45;&gt;Node7</title>
<g id="a_edge10_Node000009_Node000007"><a xlink:title=" ">
<path fill="none" stroke="#63b8ff" d="M375.76,-56.34C339.69,-46.61 284.57,-31.74 247.7,-21.8"/>
<polygon fill="#63b8ff" stroke="#63b8ff" points="248.91,-18.5 238.34,-19.27 247.09,-25.26 248.91,-18.5"/>
</a>
</g>
</g>
<!-- Node9&#45;&gt;Node8 -->
<g id="edge11_Node000009_Node000008" class="edge">
<title>Node9&#45;&gt;Node8</title>
<g id="a_edge11_Node000009_Node000008"><a xlink:title=" ">
<path fill="none" stroke="#63b8ff" d="M424.75,-56.34C434.94,-48.47 449.5,-37.25 461.51,-27.99"/>
<polygon fill="#63b8ff" stroke="#63b8ff" points="463.49,-30.88 469.27,-22 459.22,-25.34 463.49,-30.88"/>
</a>
</g>
</g>
<!-- Node10&#45;&gt;Node2 -->
<g id="edge13_Node000010_Node000002" class="edge">
<title>Node10&#45;&gt;Node2</title>
<g id="a_edge13_Node000010_Node000002"><a xlink:title=" ">
<path fill="none" stroke="#63b8ff" d="M265.27,-56.34C238.72,-47.31 199.16,-33.86 170.24,-24.02"/>
<polygon fill="#63b8ff" stroke="#63b8ff" points="171.75,-20.84 161.15,-20.93 169.49,-27.46 171.75,-20.84"/>
</a>
</g>
</g>
<!-- Node10&#45;&gt;Node8 -->
<g id="edge14_Node000010_Node000008" class="edge">
<title>Node10&#45;&gt;Node8</title>
<g id="a_edge14_Node000010_Node000008"><a xlink:title=" ">
<path fill="none" stroke="#63b8ff" d="M327.84,-56.34C358.66,-47.41 404.4,-34.16 438.25,-24.35"/>
<polygon fill="#63b8ff" stroke="#63b8ff" points="439.15,-27.74 447.79,-21.59 437.21,-21.01 439.15,-27.74"/>
</a>
</g>
</g>
<!-- Node11&#45;&gt;Node3 -->
<g id="edge18_Node000011_Node000003" class="edge">
<title>Node11&#45;&gt;Node3</title>
<g id="a_edge18_Node000011_Node000003"><a xlink:title=" ">
<path fill="none" stroke="#63b8ff" d="M174.63,-113.09C148.68,-104.15 110.16,-90.89 81.67,-81.08"/>
<polygon fill="#63b8ff" stroke="#63b8ff" points="82.94,-77.81 72.34,-77.87 80.66,-84.43 82.94,-77.81"/>
</a>
</g>
</g>
<!-- Node11&#45;&gt;Node7 -->
<g id="edge17_Node000011_Node000007" class="edge">
<title>Node11&#45;&gt;Node7</title>
<g id="a_edge17_Node000011_Node000007"><a xlink:title=" ">
<path fill="none" stroke="#63b8ff" d="M200.31,-113.43C196.94,-100.58 192.02,-76.87 195.05,-56.75 196.33,-48.31 198.86,-39.26 201.43,-31.49"/>
<polygon fill="#63b8ff" stroke="#63b8ff" points="204.63,-32.94 204.68,-22.34 198.04,-30.59 204.63,-32.94"/>
</a>
</g>
</g>
</g>
</svg>
