<?xml version="1.0" encoding="UTF-8" standalone="no"?>
<!DOCTYPE svg PUBLIC "-//W3C//DTD SVG 1.1//EN"
 "http://www.w3.org/Graphics/SVG/1.1/DTD/svg11.dtd">
<!-- Generated by graphviz version 12.2.1 (20241206.2353)
 -->
<!-- Title: DMXSerialController::showPixels Pages: 1 -->
<svg width="660pt" height="262pt"
 viewBox="0.00 0.00 660.00 261.75" xmlns="http://www.w3.org/2000/svg" xmlns:xlink="http://www.w3.org/1999/xlink">
<g id="graph0" class="graph" transform="scale(1 1) rotate(0) translate(4 257.75)">
<title>DMXSerialController::showPixels</title>
<!-- Node1 -->
<g id="Node000001" class="node">
<title>Node1</title>
<g id="a_Node000001"><a xlink:title="Send the LED data to the strip.">
<polygon fill="#999999" stroke="#666666" points="115,-150.12 0,-150.12 0,-116.62 115,-116.62 115,-150.12"/>
<text text-anchor="start" x="8" y="-136.62" font-family="Helvetica,sans-Serif" font-size="10.00">DMXSerialController</text>
<text text-anchor="middle" x="57.5" y="-123.88" font-family="Helvetica,sans-Serif" font-size="10.00">::showPixels</text>
</a>
</g>
</g>
<!-- Node2 -->
<g id="Node000002" class="node">
<title>Node2</title>
<g id="a_Node000002"><a xlink:href="../../d0/dee/struct_pixel_controller.html#ab44f62f166d162bd1e3b095b368feef2" target="_top" xlink:title="Advance the data pointer forward, adjust position counter.">
<polygon fill="white" stroke="#666666" points="309.5,-253.75 151.75,-253.75 151.75,-233 309.5,-233 309.5,-253.75"/>
<text text-anchor="middle" x="230.62" y="-240.25" font-family="Helvetica,sans-Serif" font-size="10.00">PixelController::advanceData</text>
</a>
</g>
</g>
<!-- Node1&#45;&gt;Node2 -->
<g id="edge1_Node000001_Node000002" class="edge">
<title>Node1&#45;&gt;Node2</title>
<g id="a_edge1_Node000001_Node000002"><a xlink:title=" ">
<path fill="none" stroke="#63b8ff" d="M71.26,-150.36C87.53,-170.79 117.57,-204.66 151,-223.38 154.42,-225.29 158.03,-227.03 161.74,-228.6"/>
<polygon fill="#63b8ff" stroke="#63b8ff" points="160.41,-231.84 171,-232.08 162.87,-225.28 160.41,-231.84"/>
</a>
</g>
</g>
<!-- Node3 -->
<g id="Node000003" class="node">
<title>Node3</title>
<g id="a_Node000003"><a xlink:href="../../d0/dee/struct_pixel_controller.html#ac13f3e00855fcf6125ea27543c2fb48c" target="_top" xlink:title="Do we have n pixels left to process?">
<polygon fill="white" stroke="#666666" points="285.88,-214.75 175.38,-214.75 175.38,-194 285.88,-194 285.88,-214.75"/>
<text text-anchor="middle" x="230.62" y="-201.25" font-family="Helvetica,sans-Serif" font-size="10.00">PixelController::has</text>
</a>
</g>
</g>
<!-- Node1&#45;&gt;Node3 -->
<g id="edge2_Node000001_Node000003" class="edge">
<title>Node1&#45;&gt;Node3</title>
<g id="a_edge2_Node000001_Node000003"><a xlink:title=" ">
<path fill="none" stroke="#63b8ff" d="M84.26,-150.4C102.31,-161.69 127.34,-176.07 151,-185.38 155.61,-187.19 160.44,-188.86 165.34,-190.4"/>
<polygon fill="#63b8ff" stroke="#63b8ff" points="164.11,-193.68 174.69,-193.13 166.07,-186.97 164.11,-193.68"/>
</a>
</g>
</g>
<!-- Node4 -->
<g id="Node000004" class="node">
<title>Node4</title>
<g id="a_Node000004"><a xlink:href="../../d0/dee/struct_pixel_controller.html#a4984f158bbc3b6c79ca16dd847fe67e1" target="_top" xlink:title="non&#45;template alias of loadAndScale&lt;0&gt;()">
<polygon fill="white" stroke="#666666" points="297.12,-176.12 164.12,-176.12 164.12,-142.62 297.12,-142.62 297.12,-176.12"/>
<text text-anchor="start" x="172.12" y="-162.62" font-family="Helvetica,sans-Serif" font-size="10.00">PixelController::loadAnd</text>
<text text-anchor="middle" x="230.62" y="-149.88" font-family="Helvetica,sans-Serif" font-size="10.00">Scale0</text>
</a>
</g>
</g>
<!-- Node1&#45;&gt;Node4 -->
<g id="edge3_Node000001_Node000004" class="edge">
<title>Node1&#45;&gt;Node4</title>
<g id="a_edge3_Node000001_Node000004"><a xlink:title=" ">
<path fill="none" stroke="#63b8ff" d="M115.48,-142.03C127.32,-143.83 139.98,-145.75 152.4,-147.64"/>
<polygon fill="#63b8ff" stroke="#63b8ff" points="151.81,-151.09 162.22,-149.13 152.86,-144.17 151.81,-151.09"/>
</a>
</g>
</g>
<!-- Node9 -->
<g id="Node000009" class="node">
<title>Node9</title>
<g id="a_Node000009"><a xlink:href="../../d0/dee/struct_pixel_controller.html#a11f9b50f738c6d57d08d6776b3d8eb43" target="_top" xlink:title="non&#45;template alias of loadAndScale&lt;1&gt;()">
<polygon fill="white" stroke="#666666" points="297.12,-124.12 164.12,-124.12 164.12,-90.62 297.12,-90.62 297.12,-124.12"/>
<text text-anchor="start" x="172.12" y="-110.62" font-family="Helvetica,sans-Serif" font-size="10.00">PixelController::loadAnd</text>
<text text-anchor="middle" x="230.62" y="-97.88" font-family="Helvetica,sans-Serif" font-size="10.00">Scale1</text>
</a>
</g>
</g>
<!-- Node1&#45;&gt;Node9 -->
<g id="edge7_Node000001_Node000009" class="edge">
<title>Node1&#45;&gt;Node9</title>
<g id="a_edge7_Node000001_Node000009"><a xlink:title=" ">
<path fill="none" stroke="#63b8ff" d="M115.48,-124.72C127.32,-122.92 139.98,-121 152.4,-119.11"/>
<polygon fill="#63b8ff" stroke="#63b8ff" points="152.86,-122.58 162.22,-117.62 151.81,-115.66 152.86,-122.58"/>
</a>
</g>
</g>
<!-- Node10 -->
<g id="Node000010" class="node">
<title>Node10</title>
<g id="a_Node000010"><a xlink:href="../../d0/dee/struct_pixel_controller.html#a33c22b408cbc9eb8b9d98993fe985264" target="_top" xlink:title="non&#45;template alias of loadAndScale&lt;2&gt;()">
<polygon fill="white" stroke="#666666" points="297.12,-72.12 164.12,-72.12 164.12,-38.62 297.12,-38.62 297.12,-72.12"/>
<text text-anchor="start" x="172.12" y="-58.62" font-family="Helvetica,sans-Serif" font-size="10.00">PixelController::loadAnd</text>
<text text-anchor="middle" x="230.62" y="-45.88" font-family="Helvetica,sans-Serif" font-size="10.00">Scale2</text>
</a>
</g>
</g>
<!-- Node1&#45;&gt;Node10 -->
<g id="edge9_Node000001_Node000010" class="edge">
<title>Node1&#45;&gt;Node10</title>
<g id="a_edge9_Node000001_Node000010"><a xlink:title=" ">
<path fill="none" stroke="#63b8ff" d="M85.71,-116.24C103.77,-105.33 128.25,-91.42 151,-81.38 154.77,-79.71 158.69,-78.09 162.67,-76.53"/>
<polygon fill="#63b8ff" stroke="#63b8ff" points="163.74,-79.86 171.87,-73.07 161.28,-73.31 163.74,-79.86"/>
</a>
</g>
</g>
<!-- Node11 -->
<g id="Node000011" class="node">
<title>Node11</title>
<g id="a_Node000011"><a xlink:href="../../d0/dee/struct_pixel_controller.html#ac7cb7840989882cce60218ac43dbe8ef" target="_top" xlink:title="Step the dithering forward.">
<polygon fill="white" stroke="#666666" points="310.25,-20.75 151,-20.75 151,0 310.25,0 310.25,-20.75"/>
<text text-anchor="middle" x="230.62" y="-7.25" font-family="Helvetica,sans-Serif" font-size="10.00">PixelController::stepDithering</text>
</a>
</g>
</g>
<!-- Node1&#45;&gt;Node11 -->
<g id="edge11_Node000001_Node000011" class="edge">
<title>Node1&#45;&gt;Node11</title>
<g id="a_edge11_Node000001_Node000011"><a xlink:title=" ">
<path fill="none" stroke="#63b8ff" d="M68.76,-116.46C83.81,-93.14 114.12,-51.51 151,-29.38 153.29,-28 155.67,-26.73 158.11,-25.55"/>
<polygon fill="#63b8ff" stroke="#63b8ff" points="159.22,-28.88 167.08,-21.78 156.51,-22.43 159.22,-28.88"/>
</a>
</g>
</g>
<!-- Node5 -->
<g id="Node000005" class="node">
<title>Node5</title>
<g id="a_Node000005"><a xlink:href="../../d0/dee/struct_pixel_controller.html#a56fc5e5bf305e1760198c0a69ac85ff9" target="_top" xlink:title="Loads, dithers, and scales a single byte for a given output slot, using class dither and scale values...">
<polygon fill="white" stroke="#666666" points="479.25,-124.12 346.25,-124.12 346.25,-90.62 479.25,-90.62 479.25,-124.12"/>
<text text-anchor="start" x="354.25" y="-110.62" font-family="Helvetica,sans-Serif" font-size="10.00">PixelController::loadAnd</text>
<text text-anchor="middle" x="412.75" y="-97.88" font-family="Helvetica,sans-Serif" font-size="10.00">Scale</text>
</a>
</g>
</g>
<!-- Node4&#45;&gt;Node5 -->
<g id="edge4_Node000004_Node000005" class="edge">
<title>Node4&#45;&gt;Node5</title>
<g id="a_edge4_Node000004_Node000005"><a xlink:title=" ">
<path fill="none" stroke="#63b8ff" d="M291.35,-142.13C307.4,-137.5 324.9,-132.45 341.46,-127.67"/>
<polygon fill="#63b8ff" stroke="#63b8ff" points="342.09,-131.13 350.73,-124.99 340.15,-124.4 342.09,-131.13"/>
</a>
</g>
</g>
<!-- Node6 -->
<g id="Node000006" class="node">
<title>Node6</title>
<g id="a_Node000006"><a xlink:href="../../d0/dee/struct_pixel_controller.html#aa2a1b38058a62a4337605425e482202f" target="_top" xlink:title="Calculate a dither value using the per&#45;channel dither data.">
<polygon fill="#fff0f0" stroke="red" points="644.5,-137.75 522.75,-137.75 522.75,-117 644.5,-117 644.5,-137.75"/>
<text text-anchor="middle" x="583.62" y="-124.25" font-family="Helvetica,sans-Serif" font-size="10.00">PixelController::dither</text>
</a>
</g>
</g>
<!-- Node5&#45;&gt;Node6 -->
<g id="edge5_Node000005_Node000006" class="edge">
<title>Node5&#45;&gt;Node6</title>
<g id="a_edge5_Node000005_Node000006"><a xlink:title=" ">
<path fill="none" stroke="#63b8ff" d="M479.53,-115.16C489.86,-116.39 500.59,-117.66 511.05,-118.9"/>
<polygon fill="#63b8ff" stroke="#63b8ff" points="510.42,-122.35 520.77,-120.05 511.25,-115.4 510.42,-122.35"/>
</a>
</g>
</g>
<!-- Node8 -->
<g id="Node000008" class="node">
<title>Node8</title>
<g id="a_Node000008"><a xlink:href="../../d0/dee/struct_pixel_controller.html#a75ef76fbecdc9b39b01eeab216845d9d" target="_top" xlink:title="Read a byte of LED data.">
<polygon fill="white" stroke="#666666" points="652,-98.75 515.25,-98.75 515.25,-78 652,-78 652,-98.75"/>
<text text-anchor="middle" x="583.62" y="-85.25" font-family="Helvetica,sans-Serif" font-size="10.00">PixelController::loadByte</text>
</a>
</g>
</g>
<!-- Node5&#45;&gt;Node8 -->
<g id="edge6_Node000005_Node000008" class="edge">
<title>Node5&#45;&gt;Node8</title>
<g id="a_edge6_Node000005_Node000008"><a xlink:title=" ">
<path fill="none" stroke="#63b8ff" d="M479.53,-99.97C487.39,-99.09 495.49,-98.18 503.52,-97.27"/>
<polygon fill="#63b8ff" stroke="#63b8ff" points="503.75,-100.77 513.3,-96.17 502.97,-93.82 503.75,-100.77"/>
</a>
</g>
</g>
<!-- Node9&#45;&gt;Node5 -->
<g id="edge8_Node000009_Node000005" class="edge">
<title>Node9&#45;&gt;Node5</title>
<g id="a_edge8_Node000009_Node000005"><a xlink:title=" ">
<path fill="none" stroke="#63b8ff" d="M297.42,-107.38C309.5,-107.38 322.21,-107.38 334.59,-107.38"/>
<polygon fill="#63b8ff" stroke="#63b8ff" points="334.32,-110.88 344.32,-107.38 334.32,-103.88 334.32,-110.88"/>
</a>
</g>
</g>
<!-- Node10&#45;&gt;Node5 -->
<g id="edge10_Node000010_Node000005" class="edge">
<title>Node10&#45;&gt;Node5</title>
<g id="a_edge10_Node000010_Node000005"><a xlink:title=" ">
<path fill="none" stroke="#63b8ff" d="M291.35,-72.62C307.4,-77.25 324.9,-82.3 341.46,-87.08"/>
<polygon fill="#63b8ff" stroke="#63b8ff" points="340.15,-90.35 350.73,-89.76 342.09,-83.62 340.15,-90.35"/>
</a>
</g>
</g>
</g>
</svg>
