<?xml version="1.0" encoding="UTF-8" standalone="no"?>
<!DOCTYPE svg PUBLIC "-//W3C//DTD SVG 1.1//EN"
 "http://www.w3.org/Graphics/SVG/1.1/DTD/svg11.dtd">
<!-- Generated by graphviz version 12.2.1 (20241206.2353)
 -->
<!-- Title: /home/runner/work/FastLED/FastLED/src/fl/screenmap.h Pages: 1 -->
<svg width="1203pt" height="439pt"
 viewBox="0.00 0.00 1203.00 438.75" xmlns="http://www.w3.org/2000/svg" xmlns:xlink="http://www.w3.org/1999/xlink">
<g id="graph0" class="graph" transform="scale(1 1) rotate(0) translate(4 434.75)">
<title>/home/runner/work/FastLED/FastLED/src/fl/screenmap.h</title>
<!-- Node1 -->
<g id="Node000001" class="node">
<title>Node1</title>
<g id="a_Node000001"><a xlink:title=" ">
<polygon fill="#999999" stroke="#666666" points="360.75,-430.75 211.25,-430.75 211.25,-397.25 360.75,-397.25 360.75,-430.75"/>
<text text-anchor="start" x="219.25" y="-417.25" font-family="Helvetica,sans-Serif" font-size="10.00">/home/runner/work/FastLED</text>
<text text-anchor="middle" x="286" y="-404.5" font-family="Helvetica,sans-Serif" font-size="10.00">/FastLED/src/fl/screenmap.h</text>
</a>
</g>
</g>
<!-- Node2 -->
<g id="Node000002" class="node">
<title>Node2</title>
<g id="a_Node000002"><a xlink:title=" ">
<polygon fill="#e0e0e0" stroke="#999999" points="1000.38,-20.75 947.62,-20.75 947.62,0 1000.38,0 1000.38,-20.75"/>
<text text-anchor="middle" x="974" y="-7.25" font-family="Helvetica,sans-Serif" font-size="10.00">stdint.h</text>
</a>
</g>
</g>
<!-- Node1&#45;&gt;Node2 -->
<g id="edge1_Node000001_Node000002" class="edge">
<title>Node1&#45;&gt;Node2</title>
<g id="a_edge1_Node000001_Node000002"><a xlink:title=" ">
<path fill="none" stroke="#63b8ff" d="M361.16,-411.11C578.95,-404.65 1195,-378.97 1195,-295.12 1195,-295.12 1195,-295.12 1195,-122.88 1195,-41.76 1074.86,-19.64 1011.74,-13.62"/>
<polygon fill="#63b8ff" stroke="#63b8ff" points="1012.43,-10.17 1002.17,-12.8 1011.83,-17.14 1012.43,-10.17"/>
</a>
</g>
</g>
<!-- Node3 -->
<g id="Node000003" class="node">
<title>Node3</title>
<g id="a_Node000003"><a xlink:href="../../d8/d2d/fl_2force__inline_8h.html" target="_top" xlink:title=" ">
<polygon fill="white" stroke="#666666" points="157.5,-134.25 66.5,-134.25 66.5,-113.5 157.5,-113.5 157.5,-134.25"/>
<text text-anchor="middle" x="112" y="-120.75" font-family="Helvetica,sans-Serif" font-size="10.00">fl/force_inline.h</text>
</a>
</g>
</g>
<!-- Node1&#45;&gt;Node3 -->
<g id="edge2_Node000001_Node000003" class="edge">
<title>Node1&#45;&gt;Node3</title>
<g id="a_edge2_Node000001_Node000003"><a xlink:title=" ">
<path fill="none" stroke="#63b8ff" d="M237.05,-396.79C194.29,-379.18 139,-346.48 139,-295.12 139,-295.12 139,-295.12 139,-236.38 139,-203.77 127.96,-167.28 120,-145.2"/>
<polygon fill="#63b8ff" stroke="#63b8ff" points="123.32,-144.07 116.52,-135.94 116.77,-146.54 123.32,-144.07"/>
</a>
</g>
</g>
<!-- Node4 -->
<g id="Node000004" class="node">
<title>Node4</title>
<g id="a_Node000004"><a xlink:href="../../d3/db6/fl_2lut_8h.html" target="_top" xlink:title=" ">
<polygon fill="white" stroke="#666666" points="258.38,-191 211.62,-191 211.62,-170.25 258.38,-170.25 258.38,-191"/>
<text text-anchor="middle" x="235" y="-177.5" font-family="Helvetica,sans-Serif" font-size="10.00">fl/lut.h</text>
</a>
</g>
</g>
<!-- Node1&#45;&gt;Node4 -->
<g id="edge3_Node000001_Node000004" class="edge">
<title>Node1&#45;&gt;Node4</title>
<g id="a_edge3_Node000001_Node000004"><a xlink:title=" ">
<path fill="none" stroke="#63b8ff" d="M281.46,-397.21C278.59,-386.99 274.89,-373.38 272,-361.25 258.4,-304.12 245.19,-236.07 238.87,-202.49"/>
<polygon fill="#63b8ff" stroke="#63b8ff" points="242.35,-202.08 237.08,-192.89 235.47,-203.37 242.35,-202.08"/>
</a>
</g>
</g>
<!-- Node5 -->
<g id="Node000005" class="node">
<title>Node5</title>
<g id="a_Node000005"><a xlink:href="../../d7/df1/fl_2ptr_8h.html" target="_top" xlink:title=" ">
<polygon fill="white" stroke="#666666" points="468.38,-134.25 421.62,-134.25 421.62,-113.5 468.38,-113.5 468.38,-134.25"/>
<text text-anchor="middle" x="445" y="-120.75" font-family="Helvetica,sans-Serif" font-size="10.00">fl/ptr.h</text>
</a>
</g>
</g>
<!-- Node1&#45;&gt;Node5 -->
<g id="edge19_Node000001_Node000005" class="edge">
<title>Node1&#45;&gt;Node5</title>
<g id="a_edge19_Node000001_Node000005"><a xlink:title=" ">
<path fill="none" stroke="#63b8ff" d="M286,-396.98C286,-374.31 286,-331.55 286,-295.12 286,-295.12 286,-295.12 286,-236.38 286,-176.11 363.53,-145.64 410.31,-132.74"/>
<polygon fill="#63b8ff" stroke="#63b8ff" points="410.94,-136.19 419.73,-130.28 409.17,-129.42 410.94,-136.19"/>
</a>
</g>
</g>
<!-- Node7 -->
<g id="Node000007" class="node">
<title>Node7</title>
<g id="a_Node000007"><a xlink:href="../../df/d2a/namespace_8h.html" target="_top" xlink:title="Implements the FastLED namespace macros.">
<polygon fill="white" stroke="#666666" points="309.12,-20.75 218.88,-20.75 218.88,0 309.12,0 309.12,-20.75"/>
<text text-anchor="middle" x="264" y="-7.25" font-family="Helvetica,sans-Serif" font-size="10.00">fl/namespace.h</text>
</a>
</g>
</g>
<!-- Node1&#45;&gt;Node7 -->
<g id="edge45_Node000001_Node000007" class="edge">
<title>Node1&#45;&gt;Node7</title>
<g id="a_edge45_Node000001_Node000007"><a xlink:title=" ">
<path fill="none" stroke="#63b8ff" d="M210.86,-412.94C126.12,-408.45 0,-386.42 0,-295.12 0,-295.12 0,-295.12 0,-122.88 0,-33.49 130.03,-14.65 207.58,-11.36"/>
<polygon fill="#63b8ff" stroke="#63b8ff" points="207.23,-14.87 217.1,-11.03 206.99,-7.88 207.23,-14.87"/>
</a>
</g>
</g>
<!-- Node12 -->
<g id="Node000012" class="node">
<title>Node12</title>
<g id="a_Node000012"><a xlink:href="../../dc/db7/map_8h.html" target="_top" xlink:title=" ">
<polygon fill="white" stroke="#666666" points="771.88,-361.25 716.12,-361.25 716.12,-340.5 771.88,-340.5 771.88,-361.25"/>
<text text-anchor="middle" x="744" y="-347.75" font-family="Helvetica,sans-Serif" font-size="10.00">fl/map.h</text>
</a>
</g>
</g>
<!-- Node1&#45;&gt;Node12 -->
<g id="edge20_Node000001_Node000012" class="edge">
<title>Node1&#45;&gt;Node12</title>
<g id="a_edge20_Node000001_Node000012"><a xlink:title=" ">
<path fill="none" stroke="#63b8ff" d="M361.12,-402.97C459.6,-389.83 628.76,-367.25 704.88,-357.1"/>
<polygon fill="#63b8ff" stroke="#63b8ff" points="704.89,-360.63 714.34,-355.83 703.97,-353.69 704.89,-360.63"/>
</a>
</g>
</g>
<!-- Node25 -->
<g id="Node000025" class="node">
<title>Node25</title>
<g id="a_Node000025"><a xlink:href="../../dc/d0e/fl_2str_8h.html" target="_top" xlink:title=" ">
<polygon fill="#fff0f0" stroke="red" points="469.5,-191 432.5,-191 432.5,-170.25 469.5,-170.25 469.5,-191"/>
<text text-anchor="middle" x="451" y="-177.5" font-family="Helvetica,sans-Serif" font-size="10.00">str.h</text>
</a>
</g>
</g>
<!-- Node1&#45;&gt;Node25 -->
<g id="edge44_Node000001_Node000025" class="edge">
<title>Node1&#45;&gt;Node25</title>
<g id="a_edge44_Node000001_Node000025"><a xlink:title=" ">
<path fill="none" stroke="#63b8ff" d="M296.03,-396.9C316.63,-364.11 365.69,-287.58 412,-227 419.06,-217.77 427.4,-207.94 434.55,-199.79"/>
<polygon fill="#63b8ff" stroke="#63b8ff" points="436.94,-202.37 440.98,-192.57 431.72,-197.71 436.94,-202.37"/>
</a>
</g>
</g>
<!-- Node4&#45;&gt;Node2 -->
<g id="edge4_Node000004_Node000002" class="edge">
<title>Node4&#45;&gt;Node2</title>
<g id="a_edge4_Node000004_Node000002"><a xlink:title=" ">
<path fill="none" stroke="#63b8ff" d="M258.66,-173.43C293.15,-164.16 355.28,-146.45 375,-134.25 416.02,-108.86 407.37,-77.34 451,-56.75 494.54,-36.21 822.51,-18.66 935.72,-13.16"/>
<polygon fill="#63b8ff" stroke="#63b8ff" points="935.88,-16.66 945.7,-12.68 935.54,-9.67 935.88,-16.66"/>
</a>
</g>
</g>
<!-- Node4&#45;&gt;Node3 -->
<g id="edge14_Node000004_Node000003" class="edge">
<title>Node4&#45;&gt;Node3</title>
<g id="a_edge14_Node000004_Node000003"><a xlink:title=" ">
<path fill="none" stroke="#63b8ff" d="M213.01,-169.84C193.86,-161.31 165.84,-148.84 144.17,-139.19"/>
<polygon fill="#63b8ff" stroke="#63b8ff" points="145.74,-136.06 135.18,-135.19 142.89,-142.46 145.74,-136.06"/>
</a>
</g>
</g>
<!-- Node4&#45;&gt;Node5 -->
<g id="edge5_Node000004_Node000005" class="edge">
<title>Node4&#45;&gt;Node5</title>
<g id="a_edge5_Node000004_Node000005"><a xlink:title=" ">
<path fill="none" stroke="#63b8ff" d="M258.68,-173.45C295.72,-163.79 367.56,-145.06 410.4,-133.9"/>
<polygon fill="#63b8ff" stroke="#63b8ff" points="411.15,-137.32 419.94,-131.41 409.38,-130.54 411.15,-137.32"/>
</a>
</g>
</g>
<!-- Node4&#45;&gt;Node7 -->
<g id="edge18_Node000004_Node000007" class="edge">
<title>Node4&#45;&gt;Node7</title>
<g id="a_edge18_Node000004_Node000007"><a xlink:title=" ">
<path fill="none" stroke="#63b8ff" d="M226.94,-169.9C210.21,-148.49 174.99,-96.02 196,-56.75 203.03,-43.62 215.72,-33.63 228.25,-26.41"/>
<polygon fill="#63b8ff" stroke="#63b8ff" points="229.59,-29.66 236.82,-21.91 226.34,-23.46 229.59,-29.66"/>
</a>
</g>
</g>
<!-- Node10 -->
<g id="Node000010" class="node">
<title>Node10</title>
<g id="a_Node000010"><a xlink:href="../../d2/d6f/fl_2allocator_8h.html" target="_top" xlink:title=" ">
<polygon fill="white" stroke="#666666" points="366,-134.25 290,-134.25 290,-113.5 366,-113.5 366,-134.25"/>
<text text-anchor="middle" x="328" y="-120.75" font-family="Helvetica,sans-Serif" font-size="10.00">fl/allocator.h</text>
</a>
</g>
</g>
<!-- Node4&#45;&gt;Node10 -->
<g id="edge15_Node000004_Node000010" class="edge">
<title>Node4&#45;&gt;Node10</title>
<g id="a_edge15_Node000004_Node000010"><a xlink:title=" ">
<path fill="none" stroke="#63b8ff" d="M251.63,-169.84C265.51,-161.66 285.56,-149.86 301.63,-140.4"/>
<polygon fill="#63b8ff" stroke="#63b8ff" points="303.37,-143.44 310.21,-135.35 299.82,-137.4 303.37,-143.44"/>
</a>
</g>
</g>
<!-- Node6 -->
<g id="Node000006" class="node">
<title>Node6</title>
<g id="a_Node000006"><a xlink:title=" ">
<polygon fill="#e0e0e0" stroke="#999999" points="700.5,-20.75 645.5,-20.75 645.5,0 700.5,0 700.5,-20.75"/>
<text text-anchor="middle" x="673" y="-7.25" font-family="Helvetica,sans-Serif" font-size="10.00">stddef.h</text>
</a>
</g>
</g>
<!-- Node5&#45;&gt;Node6 -->
<g id="edge6_Node000005_Node000006" class="edge">
<title>Node5&#45;&gt;Node6</title>
<g id="a_edge6_Node000005_Node000006"><a xlink:title=" ">
<path fill="none" stroke="#63b8ff" d="M442.71,-113.41C439.88,-99.21 437.01,-72.39 451,-56.75 474.81,-30.13 576.54,-18.45 633.67,-13.9"/>
<polygon fill="#63b8ff" stroke="#63b8ff" points="633.92,-17.39 643.63,-13.15 633.39,-10.41 633.92,-17.39"/>
</a>
</g>
</g>
<!-- Node5&#45;&gt;Node7 -->
<g id="edge7_Node000005_Node000007" class="edge">
<title>Node5&#45;&gt;Node7</title>
<g id="a_edge7_Node000005_Node000007"><a xlink:title=" ">
<path fill="none" stroke="#63b8ff" d="M429.25,-113.18C397.83,-93.82 327.11,-50.25 289.17,-26.88"/>
<polygon fill="#63b8ff" stroke="#63b8ff" points="291.48,-24.19 281.13,-21.93 287.81,-30.15 291.48,-24.19"/>
</a>
</g>
</g>
<!-- Node8 -->
<g id="Node000008" class="node">
<title>Node8</title>
<g id="a_Node000008"><a xlink:href="../../df/d28/fl_2scoped__ptr_8h.html" target="_top" xlink:title=" ">
<polygon fill="white" stroke="#666666" points="716.25,-77.5 629.75,-77.5 629.75,-56.75 716.25,-56.75 716.25,-77.5"/>
<text text-anchor="middle" x="673" y="-64" font-family="Helvetica,sans-Serif" font-size="10.00">fl/scoped_ptr.h</text>
</a>
</g>
</g>
<!-- Node5&#45;&gt;Node8 -->
<g id="edge8_Node000005_Node000008" class="edge">
<title>Node5&#45;&gt;Node8</title>
<g id="a_edge8_Node000005_Node000008"><a xlink:title=" ">
<path fill="none" stroke="#63b8ff" d="M468.54,-117.22C504.25,-108.65 573,-92.14 620.87,-80.64"/>
<polygon fill="#63b8ff" stroke="#63b8ff" points="621.58,-84.07 630.48,-78.33 619.94,-77.27 621.58,-84.07"/>
</a>
</g>
</g>
<!-- Node9 -->
<g id="Node000009" class="node">
<title>Node9</title>
<g id="a_Node000009"><a xlink:href="../../d8/d0c/template__magic_8h.html" target="_top" xlink:title=" ">
<polygon fill="white" stroke="#666666" points="573.75,-77.5 460.25,-77.5 460.25,-56.75 573.75,-56.75 573.75,-77.5"/>
<text text-anchor="middle" x="517" y="-64" font-family="Helvetica,sans-Serif" font-size="10.00">fl/template_magic.h</text>
</a>
</g>
</g>
<!-- Node5&#45;&gt;Node9 -->
<g id="edge11_Node000005_Node000009" class="edge">
<title>Node5&#45;&gt;Node9</title>
<g id="a_edge11_Node000005_Node000009"><a xlink:title=" ">
<path fill="none" stroke="#63b8ff" d="M457.87,-113.09C468.21,-105.22 482.97,-94 495.15,-84.74"/>
<polygon fill="#63b8ff" stroke="#63b8ff" points="497.19,-87.58 503.03,-78.74 492.96,-82.01 497.19,-87.58"/>
</a>
</g>
</g>
<!-- Node8&#45;&gt;Node6 -->
<g id="edge9_Node000008_Node000006" class="edge">
<title>Node8&#45;&gt;Node6</title>
<g id="a_edge9_Node000008_Node000006"><a xlink:title=" ">
<path fill="none" stroke="#63b8ff" d="M673,-56.34C673,-49.72 673,-40.72 673,-32.52"/>
<polygon fill="#63b8ff" stroke="#63b8ff" points="676.5,-32.59 673,-22.59 669.5,-32.59 676.5,-32.59"/>
</a>
</g>
</g>
<!-- Node8&#45;&gt;Node7 -->
<g id="edge10_Node000008_Node000007" class="edge">
<title>Node8&#45;&gt;Node7</title>
<g id="a_edge10_Node000008_Node000007"><a xlink:title=" ">
<path fill="none" stroke="#63b8ff" d="M629.46,-58.8C624.91,-58.09 620.37,-57.39 616,-56.75 511.91,-41.49 390.08,-26.4 320.48,-18.04"/>
<polygon fill="#63b8ff" stroke="#63b8ff" points="321.2,-14.6 310.86,-16.89 320.37,-21.55 321.2,-14.6"/>
</a>
</g>
</g>
<!-- Node9&#45;&gt;Node2 -->
<g id="edge12_Node000009_Node000002" class="edge">
<title>Node9&#45;&gt;Node2</title>
<g id="a_edge12_Node000009_Node000002"><a xlink:title=" ">
<path fill="none" stroke="#63b8ff" d="M573.96,-59.3C668.71,-47.95 856.22,-25.49 936.31,-15.89"/>
<polygon fill="#63b8ff" stroke="#63b8ff" points="936.3,-19.42 945.82,-14.75 935.47,-12.47 936.3,-19.42"/>
</a>
</g>
</g>
<!-- Node9&#45;&gt;Node7 -->
<g id="edge13_Node000009_Node000007" class="edge">
<title>Node9&#45;&gt;Node7</title>
<g id="a_edge13_Node000009_Node000007"><a xlink:title=" ">
<path fill="none" stroke="#63b8ff" d="M471.48,-56.27C429.25,-47.13 366.24,-33.5 320.75,-23.66"/>
<polygon fill="#63b8ff" stroke="#63b8ff" points="321.58,-20.25 311.06,-21.56 320.1,-27.1 321.58,-20.25"/>
</a>
</g>
</g>
<!-- Node10&#45;&gt;Node6 -->
<g id="edge16_Node000010_Node000006" class="edge">
<title>Node10&#45;&gt;Node6</title>
<g id="a_edge16_Node000010_Node000006"><a xlink:title=" ">
<path fill="none" stroke="#63b8ff" d="M332.52,-113.34C340.09,-98.54 356.8,-70.31 380,-56.75 422.43,-31.95 564.58,-18.9 634.08,-13.87"/>
<polygon fill="#63b8ff" stroke="#63b8ff" points="634.14,-17.38 643.87,-13.18 633.65,-10.39 634.14,-17.38"/>
</a>
</g>
</g>
<!-- Node11 -->
<g id="Node000011" class="node">
<title>Node11</title>
<g id="a_Node000011"><a xlink:title=" ">
<polygon fill="#e0e0e0" stroke="#999999" points="290.38,-77.5 237.62,-77.5 237.62,-56.75 290.38,-56.75 290.38,-77.5"/>
<text text-anchor="middle" x="264" y="-64" font-family="Helvetica,sans-Serif" font-size="10.00">string.h</text>
</a>
</g>
</g>
<!-- Node10&#45;&gt;Node11 -->
<g id="edge17_Node000010_Node000011" class="edge">
<title>Node10&#45;&gt;Node11</title>
<g id="a_edge17_Node000010_Node000011"><a xlink:title=" ">
<path fill="none" stroke="#63b8ff" d="M316.56,-113.09C307.55,-105.38 294.77,-94.45 284.07,-85.29"/>
<polygon fill="#63b8ff" stroke="#63b8ff" points="286.37,-82.65 276.49,-78.81 281.82,-87.97 286.37,-82.65"/>
</a>
</g>
</g>
<!-- Node12&#45;&gt;Node2 -->
<g id="edge21_Node000012_Node000002" class="edge">
<title>Node12&#45;&gt;Node2</title>
<g id="a_edge21_Node000012_Node000002"><a xlink:title=" ">
<path fill="none" stroke="#63b8ff" d="M771.97,-348.04C832.13,-343.64 971.53,-330.82 1010,-304.5 1081.16,-255.82 1056.5,-198.81 1044,-113.5 1040.18,-87.45 1041.36,-78.82 1027,-56.75 1019.69,-45.52 1008.8,-35.52 998.79,-27.78"/>
<polygon fill="#63b8ff" stroke="#63b8ff" points="1000.97,-25.05 990.83,-21.99 996.85,-30.7 1000.97,-25.05"/>
</a>
</g>
</g>
<!-- Node12&#45;&gt;Node6 -->
<g id="edge22_Node000012_Node000006" class="edge">
<title>Node12&#45;&gt;Node6</title>
<g id="a_edge22_Node000012_Node000006"><a xlink:title=" ">
<path fill="none" stroke="#63b8ff" d="M772.2,-347.12C827.41,-341.3 947.38,-326.48 982,-304.5 1012.66,-285.04 1030,-274.69 1030,-238.38 1030,-238.38 1030,-238.38 1030,-122.88 1030,-92.3 1034.14,-76.73 1011,-56.75 966.99,-18.75 791.54,-12.35 712.25,-11.43"/>
<polygon fill="#63b8ff" stroke="#63b8ff" points="712.38,-7.93 702.35,-11.34 712.32,-14.93 712.38,-7.93"/>
</a>
</g>
</g>
<!-- Node12&#45;&gt;Node7 -->
<g id="edge23_Node000012_Node000007" class="edge">
<title>Node12&#45;&gt;Node7</title>
<g id="a_edge23_Node000012_Node000007"><a xlink:title=" ">
<path fill="none" stroke="#63b8ff" d="M715.82,-345.66C596.52,-327.17 135.53,-249.03 57,-134.25 14.8,-72.57 132.56,-37.11 207.39,-21.33"/>
<polygon fill="#63b8ff" stroke="#63b8ff" points="207.97,-24.78 217.07,-19.35 206.57,-17.92 207.97,-24.78"/>
</a>
</g>
</g>
<!-- Node12&#45;&gt;Node9 -->
<g id="edge31_Node000012_Node000009" class="edge">
<title>Node12&#45;&gt;Node9</title>
<g id="a_edge31_Node000012_Node000009"><a xlink:title=" ">
<path fill="none" stroke="#63b8ff" d="M729.54,-340.06C705.76,-322.61 661,-283.74 661,-238.38 661,-238.38 661,-238.38 661,-179.62 661,-128.72 604.05,-97.75 561.78,-81.77"/>
<polygon fill="#63b8ff" stroke="#63b8ff" points="563.14,-78.54 552.55,-78.44 560.77,-85.12 563.14,-78.54"/>
</a>
</g>
</g>
<!-- Node13 -->
<g id="Node000013" class="node">
<title>Node13</title>
<g id="a_Node000013"><a xlink:href="../../d6/d68/vector_8h.html" target="_top" xlink:title=" ">
<polygon fill="white" stroke="#666666" points="776,-134.25 712,-134.25 712,-113.5 776,-113.5 776,-134.25"/>
<text text-anchor="middle" x="744" y="-120.75" font-family="Helvetica,sans-Serif" font-size="10.00">fl/vector.h</text>
</a>
</g>
</g>
<!-- Node12&#45;&gt;Node13 -->
<g id="edge24_Node000012_Node000013" class="edge">
<title>Node12&#45;&gt;Node13</title>
<g id="a_edge24_Node000012_Node000013"><a xlink:title=" ">
<path fill="none" stroke="#63b8ff" d="M744,-340.21C744,-306.45 744,-193.34 744,-146"/>
<polygon fill="#63b8ff" stroke="#63b8ff" points="747.5,-146.02 744,-136.02 740.5,-146.02 747.5,-146.02"/>
</a>
</g>
</g>
<!-- Node15 -->
<g id="Node000015" class="node">
<title>Node15</title>
<g id="a_Node000015"><a xlink:href="../../d1/d22/insert__result_8h.html" target="_top" xlink:title=" ">
<polygon fill="white" stroke="#666666" points="1002.38,-77.5 907.62,-77.5 907.62,-56.75 1002.38,-56.75 1002.38,-77.5"/>
<text text-anchor="middle" x="955" y="-64" font-family="Helvetica,sans-Serif" font-size="10.00">fl/insert_result.h</text>
</a>
</g>
</g>
<!-- Node12&#45;&gt;Node15 -->
<g id="edge32_Node000012_Node000015" class="edge">
<title>Node12&#45;&gt;Node15</title>
<g id="a_edge32_Node000012_Node000015"><a xlink:title=" ">
<path fill="none" stroke="#63b8ff" d="M771.97,-349.83C836.82,-348.1 992,-333.97 992,-238.38 992,-238.38 992,-238.38 992,-179.62 992,-146.1 976.75,-109.67 965.83,-87.88"/>
<polygon fill="#63b8ff" stroke="#63b8ff" points="969.06,-86.49 961.32,-79.25 962.85,-89.73 969.06,-86.49"/>
</a>
</g>
</g>
<!-- Node16 -->
<g id="Node000016" class="node">
<title>Node16</title>
<g id="a_Node000016"><a xlink:href="../../d3/d41/pair_8h.html" target="_top" xlink:title=" ">
<polygon fill="white" stroke="#666666" points="1167,-304.5 1115,-304.5 1115,-283.75 1167,-283.75 1167,-304.5"/>
<text text-anchor="middle" x="1141" y="-291" font-family="Helvetica,sans-Serif" font-size="10.00">fl/pair.h</text>
</a>
</g>
</g>
<!-- Node12&#45;&gt;Node16 -->
<g id="edge33_Node000012_Node000016" class="edge">
<title>Node12&#45;&gt;Node16</title>
<g id="a_edge33_Node000012_Node000016"><a xlink:title=" ">
<path fill="none" stroke="#63b8ff" d="M771.92,-347.32C832.28,-341.59 979.26,-326.44 1101,-304.5 1101.98,-304.32 1102.98,-304.14 1103.98,-303.94"/>
<polygon fill="#63b8ff" stroke="#63b8ff" points="1104.28,-307.46 1113.35,-301.98 1102.84,-300.61 1104.28,-307.46"/>
</a>
</g>
</g>
<!-- Node17 -->
<g id="Node000017" class="node">
<title>Node17</title>
<g id="a_Node000017"><a xlink:href="../../dc/da7/assert_8h.html" target="_top" xlink:title=" ">
<polygon fill="white" stroke="#666666" points="627,-304.5 563,-304.5 563,-283.75 627,-283.75 627,-304.5"/>
<text text-anchor="middle" x="595" y="-291" font-family="Helvetica,sans-Serif" font-size="10.00">fl/assert.h</text>
</a>
</g>
</g>
<!-- Node12&#45;&gt;Node17 -->
<g id="edge34_Node000012_Node000017" class="edge">
<title>Node12&#45;&gt;Node17</title>
<g id="a_edge34_Node000012_Node000017"><a xlink:title=" ">
<path fill="none" stroke="#63b8ff" d="M717.36,-340.09C693.7,-331.39 658.88,-318.6 632.43,-308.88"/>
<polygon fill="#63b8ff" stroke="#63b8ff" points="633.67,-305.61 623.08,-305.44 631.26,-312.18 633.67,-305.61"/>
</a>
</g>
</g>
<!-- Node13&#45;&gt;Node2 -->
<g id="edge25_Node000013_Node000002" class="edge">
<title>Node13&#45;&gt;Node2</title>
<g id="a_edge25_Node000013_Node000002"><a xlink:title=" ">
<path fill="none" stroke="#63b8ff" d="M772.91,-113.12C796.93,-104.67 831.77,-91.61 861,-77.5 878.05,-69.27 920.74,-43.76 948.49,-26.94"/>
<polygon fill="#63b8ff" stroke="#63b8ff" points="949.95,-30.15 956.68,-21.97 946.31,-24.17 949.95,-30.15"/>
</a>
</g>
</g>
<!-- Node13&#45;&gt;Node6 -->
<g id="edge26_Node000013_Node000006" class="edge">
<title>Node13&#45;&gt;Node6</title>
<g id="a_edge26_Node000013_Node000006"><a xlink:title=" ">
<path fill="none" stroke="#63b8ff" d="M742.96,-113.2C741.14,-99.65 736.41,-74.69 725,-56.75 717.88,-45.56 707.21,-35.57 697.37,-27.83"/>
<polygon fill="#63b8ff" stroke="#63b8ff" points="699.68,-25.19 689.57,-22.04 695.51,-30.81 699.68,-25.19"/>
</a>
</g>
</g>
<!-- Node13&#45;&gt;Node7 -->
<g id="edge28_Node000013_Node000007" class="edge">
<title>Node13&#45;&gt;Node7</title>
<g id="a_edge28_Node000013_Node000007"><a xlink:title=" ">
<path fill="none" stroke="#63b8ff" d="M713.68,-113.08C688.48,-104.6 651.87,-91.53 621,-77.5 603.48,-69.54 601.26,-62.81 583,-56.75 494.35,-27.32 385.64,-16.98 320.74,-13.34"/>
<polygon fill="#63b8ff" stroke="#63b8ff" points="321.22,-9.86 311.05,-12.84 320.86,-16.85 321.22,-9.86"/>
</a>
</g>
</g>
<!-- Node13&#45;&gt;Node8 -->
<g id="edge29_Node000013_Node000008" class="edge">
<title>Node13&#45;&gt;Node8</title>
<g id="a_edge29_Node000013_Node000008"><a xlink:title=" ">
<path fill="none" stroke="#63b8ff" d="M731.31,-113.09C721.11,-105.22 706.56,-94 694.54,-84.74"/>
<polygon fill="#63b8ff" stroke="#63b8ff" points="696.84,-82.09 686.78,-78.75 692.56,-87.63 696.84,-82.09"/>
</a>
</g>
</g>
<!-- Node14 -->
<g id="Node000014" class="node">
<title>Node14</title>
<g id="a_Node000014"><a xlink:href="../../db/d36/inplacenew_8h.html" target="_top" xlink:title=" ">
<polygon fill="white" stroke="#666666" points="851.88,-77.5 772.12,-77.5 772.12,-56.75 851.88,-56.75 851.88,-77.5"/>
<text text-anchor="middle" x="812" y="-64" font-family="Helvetica,sans-Serif" font-size="10.00">inplacenew.h</text>
</a>
</g>
</g>
<!-- Node13&#45;&gt;Node14 -->
<g id="edge27_Node000013_Node000014" class="edge">
<title>Node13&#45;&gt;Node14</title>
<g id="a_edge27_Node000013_Node000014"><a xlink:title=" ">
<path fill="none" stroke="#63b8ff" d="M756.16,-113.09C765.83,-105.3 779.58,-94.22 791.02,-85.01"/>
<polygon fill="#63b8ff" stroke="#63b8ff" points="793.18,-87.78 798.77,-78.78 788.79,-82.32 793.18,-87.78"/>
</a>
</g>
</g>
<!-- Node13&#45;&gt;Node15 -->
<g id="edge30_Node000013_Node000015" class="edge">
<title>Node13&#45;&gt;Node15</title>
<g id="a_edge30_Node000013_Node000015"><a xlink:title=" ">
<path fill="none" stroke="#63b8ff" d="M776.05,-114.56C810.64,-105.58 866.16,-91.18 906.19,-80.79"/>
<polygon fill="#63b8ff" stroke="#63b8ff" points="907.03,-84.19 915.83,-78.29 905.27,-77.41 907.03,-84.19"/>
</a>
</g>
</g>
<!-- Node18 -->
<g id="Node000018" class="node">
<title>Node18</title>
<g id="a_Node000018"><a xlink:href="../../de/d77/warn_8h.html" target="_top" xlink:title=" ">
<polygon fill="#fff0f0" stroke="red" points="624,-247.75 566,-247.75 566,-227 624,-227 624,-247.75"/>
<text text-anchor="middle" x="595" y="-234.25" font-family="Helvetica,sans-Serif" font-size="10.00">fl/warn.h</text>
</a>
</g>
</g>
<!-- Node17&#45;&gt;Node18 -->
<g id="edge35_Node000017_Node000018" class="edge">
<title>Node17&#45;&gt;Node18</title>
<g id="a_edge35_Node000017_Node000018"><a xlink:title=" ">
<path fill="none" stroke="#63b8ff" d="M595,-283.34C595,-276.72 595,-267.72 595,-259.52"/>
<polygon fill="#63b8ff" stroke="#63b8ff" points="598.5,-259.59 595,-249.59 591.5,-259.59 598.5,-259.59"/>
</a>
</g>
</g>
<!-- Node20 -->
<g id="Node000020" class="node">
<title>Node20</title>
<g id="a_Node000020"><a xlink:href="../../d8/d00/strstream_8h.html" target="_top" xlink:title=" ">
<polygon fill="#fff0f0" stroke="red" points="502.62,-247.75 421.38,-247.75 421.38,-227 502.62,-227 502.62,-247.75"/>
<text text-anchor="middle" x="462" y="-234.25" font-family="Helvetica,sans-Serif" font-size="10.00">fl/strstream.h</text>
</a>
</g>
</g>
<!-- Node17&#45;&gt;Node20 -->
<g id="edge36_Node000017_Node000020" class="edge">
<title>Node17&#45;&gt;Node20</title>
<g id="a_edge36_Node000017_Node000020"><a xlink:title=" ">
<path fill="none" stroke="#63b8ff" d="M571.22,-283.34C550.32,-274.73 519.66,-262.11 496.14,-252.43"/>
<polygon fill="#63b8ff" stroke="#63b8ff" points="497.55,-249.22 486.97,-248.65 494.89,-255.7 497.55,-249.22"/>
</a>
</g>
</g>
<!-- Node20&#45;&gt;Node25 -->
<g id="edge37_Node000020_Node000025" class="edge">
<title>Node20&#45;&gt;Node25</title>
<g id="a_edge37_Node000020_Node000025"><a xlink:title=" ">
<path fill="none" stroke="#63b8ff" d="M460.03,-226.59C458.69,-219.89 456.85,-210.76 455.19,-202.48"/>
<polygon fill="#63b8ff" stroke="#63b8ff" points="458.65,-201.93 453.25,-192.81 451.79,-203.31 458.65,-201.93"/>
</a>
</g>
</g>
<!-- Node25&#45;&gt;Node2 -->
<g id="edge39_Node000025_Node000002" class="edge">
<title>Node25&#45;&gt;Node2</title>
<g id="a_edge39_Node000025_Node000002"><a xlink:title=" ">
<path fill="none" stroke="#63b8ff" d="M469.74,-179.37C559.31,-177.7 942.4,-165.46 1011,-77.5 1022.97,-62.15 1008.74,-42.46 994.6,-28.57"/>
<polygon fill="#63b8ff" stroke="#63b8ff" points="997.34,-26.33 987.6,-22.16 992.62,-31.49 997.34,-26.33"/>
</a>
</g>
</g>
<!-- Node25&#45;&gt;Node5 -->
<g id="edge40_Node000025_Node000005" class="edge">
<title>Node25&#45;&gt;Node5</title>
<g id="a_edge40_Node000025_Node000005"><a xlink:title=" ">
<path fill="none" stroke="#63b8ff" d="M449.93,-169.84C449.2,-163.22 448.22,-154.22 447.32,-146.02"/>
<polygon fill="#63b8ff" stroke="#63b8ff" points="450.8,-145.64 446.23,-136.08 443.84,-146.4 450.8,-145.64"/>
</a>
</g>
</g>
<!-- Node25&#45;&gt;Node7 -->
<g id="edge43_Node000025_Node000007" class="edge">
<title>Node25&#45;&gt;Node7</title>
<g id="a_edge43_Node000025_Node000007"><a xlink:title=" ">
<path fill="none" stroke="#63b8ff" d="M432.22,-179.53C396.37,-178.45 317.12,-171.65 265,-134.25 234.14,-112.11 216.75,-92.7 229,-56.75 232.42,-46.71 239.07,-37.16 245.66,-29.43"/>
<polygon fill="#63b8ff" stroke="#63b8ff" points="248.2,-31.84 252.42,-22.12 243.06,-27.09 248.2,-31.84"/>
</a>
</g>
</g>
<!-- Node25&#45;&gt;Node9 -->
<g id="edge41_Node000025_Node000009" class="edge">
<title>Node25&#45;&gt;Node9</title>
<g id="a_edge41_Node000025_Node000009"><a xlink:title=" ">
<path fill="none" stroke="#63b8ff" d="M456.63,-170.12C467.39,-151.94 491.07,-111.92 505.37,-87.77"/>
<polygon fill="#63b8ff" stroke="#63b8ff" points="508.35,-89.62 510.43,-79.23 502.32,-86.05 508.35,-89.62"/>
</a>
</g>
</g>
<!-- Node25&#45;&gt;Node11 -->
<g id="edge38_Node000025_Node000011" class="edge">
<title>Node25&#45;&gt;Node11</title>
<g id="a_edge38_Node000025_Node000011"><a xlink:title=" ">
<path fill="none" stroke="#63b8ff" d="M432.18,-180.35C397.27,-180.6 322.28,-175.91 281,-134.25 269.26,-122.4 265.29,-103.59 264.09,-89.05"/>
<polygon fill="#63b8ff" stroke="#63b8ff" points="267.6,-89.03 263.7,-79.18 260.6,-89.31 267.6,-89.03"/>
</a>
</g>
</g>
<!-- Node25&#45;&gt;Node13 -->
<g id="edge42_Node000025_Node000013" class="edge">
<title>Node25&#45;&gt;Node13</title>
<g id="a_edge42_Node000025_Node000013"><a xlink:title=" ">
<path fill="none" stroke="#63b8ff" d="M469.77,-176.12C515.89,-167.5 635.66,-145.12 700.61,-132.98"/>
<polygon fill="#63b8ff" stroke="#63b8ff" points="701.01,-136.47 710.2,-131.19 699.73,-129.59 701.01,-136.47"/>
</a>
</g>
</g>
</g>
</svg>
