<?xml version="1.0" encoding="UTF-8" standalone="no"?>
<!DOCTYPE svg PUBLIC "-//W3C//DTD SVG 1.1//EN"
 "http://www.w3.org/Graphics/SVG/1.1/DTD/svg11.dtd">
<!-- Generated by graphviz version 12.2.1 (20241206.2353)
 -->
<!-- Title: loop Pages: 1 -->
<svg width="704pt" height="741pt"
 viewBox="0.00 0.00 703.75 740.75" xmlns="http://www.w3.org/2000/svg" xmlns:xlink="http://www.w3.org/1999/xlink">
<g id="graph0" class="graph" transform="scale(1 1) rotate(0) translate(4 736.75)">
<title>loop</title>
<!-- Node1 -->
<g id="Node000001" class="node">
<title>Node1</title>
<g id="a_Node000001"><a xlink:title=" ">
<polygon fill="#999999" stroke="#666666" points="37,-579.75 0,-579.75 0,-559 37,-559 37,-579.75"/>
<text text-anchor="middle" x="18.5" y="-566.25" font-family="Helvetica,sans-Serif" font-size="10.00">loop</text>
</a>
</g>
</g>
<!-- Node2 -->
<g id="Node000002" class="node">
<title>Node2</title>
<g id="a_Node000002"><a xlink:href="../../dd/dbb/class_c_fast_l_e_d.html#a6819ff831058a710d4582dfc09817202" target="_top" xlink:title="Delay for the given number of milliseconds.">
<polygon fill="white" stroke="#666666" points="185.75,-676.75 91.75,-676.75 91.75,-656 185.75,-656 185.75,-676.75"/>
<text text-anchor="middle" x="138.75" y="-663.25" font-family="Helvetica,sans-Serif" font-size="10.00">CFastLED::delay</text>
</a>
</g>
</g>
<!-- Node1&#45;&gt;Node2 -->
<g id="edge1_Node000001_Node000002" class="edge">
<title>Node1&#45;&gt;Node2</title>
<g id="a_edge1_Node000001_Node000002"><a xlink:title=" ">
<path fill="none" stroke="#63b8ff" d="M32.61,-580.13C52.76,-596.66 91.59,-628.51 116,-648.54"/>
<polygon fill="#63b8ff" stroke="#63b8ff" points="113.46,-650.98 123.41,-654.62 117.9,-645.57 113.46,-650.98"/>
</a>
</g>
</g>
<!-- Node4 -->
<g id="Node000004" class="node">
<title>Node4</title>
<g id="a_Node000004"><a xlink:href="../../db/d92/_fire2012_with_palette_8ino.html#af5890ba18cb2066c5a24a358de991a89" target="_top" xlink:title=" ">
<polygon fill="white" stroke="#666666" points="195.88,-599.75 81.62,-599.75 81.62,-579 195.88,-579 195.88,-599.75"/>
<text text-anchor="middle" x="138.75" y="-586.25" font-family="Helvetica,sans-Serif" font-size="10.00">Fire2012WithPalette</text>
</a>
</g>
</g>
<!-- Node1&#45;&gt;Node4 -->
<g id="edge5_Node000001_Node000004" class="edge">
<title>Node1&#45;&gt;Node4</title>
<g id="a_edge5_Node000001_Node000004"><a xlink:title=" ">
<path fill="none" stroke="#63b8ff" d="M37.46,-572.41C46.51,-573.94 58.12,-575.91 70.21,-577.95"/>
<polygon fill="#63b8ff" stroke="#63b8ff" points="69.45,-581.37 79.89,-579.59 70.61,-574.47 69.45,-581.37"/>
</a>
</g>
</g>
<!-- Node17 -->
<g id="Node000017" class="node">
<title>Node17</title>
<g id="a_Node000017"><a xlink:href="../../d2/d0d/group___random.html#ga1078b2029a50e86c93ccf4e3e1d85e7d" target="_top" xlink:title="Add entropy into the random number generator.">
<polygon fill="white" stroke="#666666" points="204.5,-560.75 73,-560.75 73,-540 204.5,-540 204.5,-560.75"/>
<text text-anchor="middle" x="138.75" y="-547.25" font-family="Helvetica,sans-Serif" font-size="10.00">random16_add_entropy</text>
</a>
</g>
</g>
<!-- Node1&#45;&gt;Node17 -->
<g id="edge17_Node000001_Node000017" class="edge">
<title>Node1&#45;&gt;Node17</title>
<g id="a_edge17_Node000001_Node000017"><a xlink:title=" ">
<path fill="none" stroke="#63b8ff" d="M37.46,-566.49C44.23,-565.4 52.43,-564.08 61.19,-562.68"/>
<polygon fill="#63b8ff" stroke="#63b8ff" points="61.7,-566.14 71.02,-561.1 60.59,-559.23 61.7,-566.14"/>
</a>
</g>
</g>
<!-- Node18 -->
<g id="Node000018" class="node">
<title>Node18</title>
<g id="a_Node000018"><a xlink:href="../../dd/dbb/class_c_fast_l_e_d.html#a83afdd1e2a21f33ac4f8d2610d6e331b" target="_top" xlink:title="Update all our controllers with the current led colors, using the passed in brightness.">
<polygon fill="white" stroke="#666666" points="185,-256.75 92.5,-256.75 92.5,-236 185,-236 185,-256.75"/>
<text text-anchor="middle" x="138.75" y="-243.25" font-family="Helvetica,sans-Serif" font-size="10.00">CFastLED::show</text>
</a>
</g>
</g>
<!-- Node1&#45;&gt;Node18 -->
<g id="edge18_Node000001_Node000018" class="edge">
<title>Node1&#45;&gt;Node18</title>
<g id="a_edge18_Node000001_Node000018"><a xlink:title=" ">
<path fill="none" stroke="#63b8ff" d="M23.43,-558.63C40.34,-512.45 106.98,-330.42 129.93,-267.73"/>
<polygon fill="#63b8ff" stroke="#63b8ff" points="133.13,-269.18 133.28,-258.58 126.56,-266.77 133.13,-269.18"/>
</a>
</g>
</g>
<!-- Node2&#45;&gt;Node2 -->
<g id="edge2_Node000002_Node000002" class="edge">
<title>Node2&#45;&gt;Node2</title>
<g id="a_edge2_Node000002_Node000002"><a xlink:title=" ">
<path fill="none" stroke="#63b8ff" d="M119.37,-677.15C111.62,-685.81 118.08,-694.75 138.75,-694.75 150.05,-694.75 157.11,-692.08 159.91,-688.24"/>
<polygon fill="#63b8ff" stroke="#63b8ff" points="163.41,-687.96 158.37,-678.64 156.5,-689.07 163.41,-687.96"/>
</a>
</g>
</g>
<!-- Node3 -->
<g id="Node000003" class="node">
<title>Node3</title>
<g id="a_Node000003"><a xlink:href="../../dd/dbb/class_c_fast_l_e_d.html#a3adb23ec5f919524928d576002cb45de" target="_top" xlink:title="Update all our controllers with the current led colors.">
<polygon fill="white" stroke="#666666" points="376.12,-714.75 283.62,-714.75 283.62,-694 376.12,-694 376.12,-714.75"/>
<text text-anchor="middle" x="329.88" y="-701.25" font-family="Helvetica,sans-Serif" font-size="10.00">CFastLED::show</text>
</a>
</g>
</g>
<!-- Node2&#45;&gt;Node3 -->
<g id="edge3_Node000002_Node000003" class="edge">
<title>Node2&#45;&gt;Node3</title>
<g id="a_edge3_Node000002_Node000003"><a xlink:title=" ">
<path fill="none" stroke="#63b8ff" d="M186.02,-675.67C212.06,-680.9 244.79,-687.48 272.35,-693.02"/>
<polygon fill="#63b8ff" stroke="#63b8ff" points="271.44,-696.4 281.93,-694.94 272.82,-689.54 271.44,-696.4"/>
</a>
</g>
</g>
<!-- Node3&#45;&gt;Node3 -->
<g id="edge4_Node000003_Node000003" class="edge">
<title>Node3&#45;&gt;Node3</title>
<g id="a_edge4_Node000003_Node000003"><a xlink:title=" ">
<path fill="none" stroke="#63b8ff" d="M299.08,-715.15C286.76,-723.81 297.03,-732.75 329.88,-732.75 347.84,-732.75 359.05,-730.08 363.51,-726.24"/>
<polygon fill="#63b8ff" stroke="#63b8ff" points="366.91,-725.44 361.05,-716.61 360.13,-727.17 366.91,-725.44"/>
</a>
</g>
</g>
<!-- Node5 -->
<g id="Node000005" class="node">
<title>Node5</title>
<g id="a_Node000005"><a xlink:href="../../d2/d73/group___palette_colors.html#gac46e65aff3dd6519b33e27f0998f17cd" target="_top" xlink:title="Get a color from a palette.">
<polygon fill="white" stroke="#666666" points="379.88,-521.75 279.88,-521.75 279.88,-501 379.88,-501 379.88,-521.75"/>
<text text-anchor="middle" x="329.88" y="-508.25" font-family="Helvetica,sans-Serif" font-size="10.00">ColorFromPalette</text>
</a>
</g>
</g>
<!-- Node4&#45;&gt;Node5 -->
<g id="edge6_Node000004_Node000005" class="edge">
<title>Node4&#45;&gt;Node5</title>
<g id="a_edge6_Node000004_Node000005"><a xlink:title=" ">
<path fill="none" stroke="#63b8ff" d="M185.29,-578.58C191.99,-576.08 198.6,-573.04 204.5,-569.38 224.26,-557.1 220.28,-542.88 240.5,-531.38 249.14,-526.46 258.9,-522.75 268.71,-519.95"/>
<polygon fill="#63b8ff" stroke="#63b8ff" points="269.43,-523.38 278.27,-517.53 267.71,-516.59 269.43,-523.38"/>
</a>
</g>
</g>
<!-- Node13 -->
<g id="Node000013" class="node">
<title>Node13</title>
<g id="a_Node000013"><a xlink:href="../../d0/da8/group___scaling.html#gad7535ccda9c92470c4e6ee0265585555" target="_top" xlink:title="Scale one byte by a second one, which is treated as the numerator of a fraction whose denominator is ...">
<polygon fill="white" stroke="#666666" points="695.75,-579.75 648.25,-579.75 648.25,-559 695.75,-559 695.75,-579.75"/>
<text text-anchor="middle" x="672" y="-566.25" font-family="Helvetica,sans-Serif" font-size="10.00">scale8</text>
</a>
</g>
</g>
<!-- Node4&#45;&gt;Node13 -->
<g id="edge16_Node000004_Node000013" class="edge">
<title>Node4&#45;&gt;Node13</title>
<g id="a_edge16_Node000004_Node000013"><a xlink:title=" ">
<path fill="none" stroke="#63b8ff" d="M153.06,-600.14C171.43,-614.23 206.18,-638.2 240.5,-647.38 320.31,-668.71 538.32,-684.24 612.25,-647.38 635.85,-635.6 652.47,-609.33 661.87,-590.53"/>
<polygon fill="#63b8ff" stroke="#63b8ff" points="664.98,-592.15 666.04,-581.61 658.63,-589.18 664.98,-592.15"/>
</a>
</g>
</g>
<!-- Node14 -->
<g id="Node000014" class="node">
<title>Node14</title>
<g id="a_Node000014"><a xlink:href="../../d5/d98/group___math.html#ga07133b3085824d0fcd4f5086d286c4b5" target="_top" xlink:title="Add one byte to another, saturating at 0xFF.">
<polygon fill="white" stroke="#666666" points="352.88,-638.75 306.88,-638.75 306.88,-618 352.88,-618 352.88,-638.75"/>
<text text-anchor="middle" x="329.88" y="-625.25" font-family="Helvetica,sans-Serif" font-size="10.00">qadd8</text>
</a>
</g>
</g>
<!-- Node4&#45;&gt;Node14 -->
<g id="edge13_Node000004_Node000014" class="edge">
<title>Node4&#45;&gt;Node14</title>
<g id="a_edge13_Node000004_Node000014"><a xlink:title=" ">
<path fill="none" stroke="#63b8ff" d="M192.43,-600.24C225.48,-607.05 267.07,-615.63 295.6,-621.51"/>
<polygon fill="#63b8ff" stroke="#63b8ff" points="294.61,-624.88 305.11,-623.47 296.02,-618.03 294.61,-624.88"/>
</a>
</g>
</g>
<!-- Node15 -->
<g id="Node000015" class="node">
<title>Node15</title>
<g id="a_Node000015"><a xlink:href="../../d5/d98/group___math.html#gae261576a4c8155d6c0ba8615b2d2ecb3" target="_top" xlink:title="Subtract one byte from another, saturating at 0x00.">
<polygon fill="white" stroke="#666666" points="352.5,-599.75 307.25,-599.75 307.25,-579 352.5,-579 352.5,-599.75"/>
<text text-anchor="middle" x="329.88" y="-586.25" font-family="Helvetica,sans-Serif" font-size="10.00">qsub8</text>
</a>
</g>
</g>
<!-- Node4&#45;&gt;Node15 -->
<g id="edge14_Node000004_Node000015" class="edge">
<title>Node4&#45;&gt;Node15</title>
<g id="a_edge14_Node000004_Node000015"><a xlink:title=" ">
<path fill="none" stroke="#63b8ff" d="M196.24,-589.38C228.66,-589.38 268.26,-589.38 295.71,-589.38"/>
<polygon fill="#63b8ff" stroke="#63b8ff" points="295.52,-592.88 305.52,-589.38 295.52,-585.88 295.52,-592.88"/>
</a>
</g>
</g>
<!-- Node16 -->
<g id="Node000016" class="node">
<title>Node16</title>
<g id="a_Node000016"><a xlink:href="../../d2/d0d/group___random.html#ga4e63c74426f6516f28470dc1b814aefe" target="_top" xlink:title="Generate an 8&#45;bit random number.">
<polygon fill="white" stroke="#666666" points="359.62,-560.75 300.12,-560.75 300.12,-540 359.62,-540 359.62,-560.75"/>
<text text-anchor="middle" x="329.88" y="-547.25" font-family="Helvetica,sans-Serif" font-size="10.00">random8</text>
</a>
</g>
</g>
<!-- Node4&#45;&gt;Node16 -->
<g id="edge15_Node000004_Node000016" class="edge">
<title>Node4&#45;&gt;Node16</title>
<g id="a_edge15_Node000004_Node000016"><a xlink:title=" ">
<path fill="none" stroke="#63b8ff" d="M192.43,-578.51C222.88,-572.23 260.6,-564.45 288.65,-558.67"/>
<polygon fill="#63b8ff" stroke="#63b8ff" points="289.08,-562.15 298.17,-556.71 287.67,-555.3 289.08,-562.15"/>
</a>
</g>
</g>
<!-- Node6 -->
<g id="Node000006" class="node">
<title>Node6</title>
<g id="a_Node000006"><a xlink:href="../../dc/db8/group___color_blends.html#ga4f06b4423f71f77346aaf5dabe7dd05c" target="_top" xlink:title="Computes a new color blended some fraction of the way between two other colors.">
<polygon fill="#fff0f0" stroke="red" points="555.25,-599.75 512.25,-599.75 512.25,-579 555.25,-579 555.25,-599.75"/>
<text text-anchor="middle" x="533.75" y="-586.25" font-family="Helvetica,sans-Serif" font-size="10.00">blend</text>
</a>
</g>
</g>
<!-- Node5&#45;&gt;Node6 -->
<g id="edge7_Node000005_Node000006" class="edge">
<title>Node5&#45;&gt;Node6</title>
<g id="a_edge7_Node000005_Node000006"><a xlink:title=" ">
<path fill="none" stroke="#63b8ff" d="M380.02,-517.16C393.34,-520.13 407.36,-524.6 419.25,-531.38 439.47,-542.88 435.21,-557.56 455.25,-569.38 469.04,-577.5 486.12,-582.36 500.72,-585.26"/>
<polygon fill="#63b8ff" stroke="#63b8ff" points="499.86,-588.66 510.31,-586.92 501.05,-581.76 499.86,-588.66"/>
</a>
</g>
</g>
<!-- Node9 -->
<g id="Node000009" class="node">
<title>Node9</title>
<g id="a_Node000009"><a xlink:href="../../d0/da5/group___scaling_dirty.html#ga3fade00fb4cf5b937b973128198a7a79" target="_top" xlink:title="Clean up the r1 register after a series of *LEAVING_R1_DIRTY calls.">
<polygon fill="white" stroke="#666666" points="569.88,-560.75 497.62,-560.75 497.62,-540 569.88,-540 569.88,-560.75"/>
<text text-anchor="middle" x="533.75" y="-547.25" font-family="Helvetica,sans-Serif" font-size="10.00">cleanup_R1</text>
</a>
</g>
</g>
<!-- Node5&#45;&gt;Node9 -->
<g id="edge8_Node000005_Node000009" class="edge">
<title>Node5&#45;&gt;Node9</title>
<g id="a_edge8_Node000005_Node000009"><a xlink:title=" ">
<path fill="none" stroke="#63b8ff" d="M380.26,-520.92C412.49,-527.14 454.3,-535.22 485.99,-541.34"/>
<polygon fill="#63b8ff" stroke="#63b8ff" points="485.2,-544.75 495.68,-543.21 486.53,-537.88 485.2,-544.75"/>
</a>
</g>
</g>
<!-- Node11 -->
<g id="Node000011" class="node">
<title>Node11</title>
<g id="a_Node000011"><a xlink:href="../../da/d2d/colorutils_8cpp.html#ab445fd8641e95a3bbd1417d9783f6170" target="_top" xlink:title="Helper function to divide a number by 16, aka four logical shift right (LSR)&#39;s.">
<polygon fill="white" stroke="#666666" points="554.12,-521.75 513.38,-521.75 513.38,-501 554.12,-501 554.12,-521.75"/>
<text text-anchor="middle" x="533.75" y="-508.25" font-family="Helvetica,sans-Serif" font-size="10.00">lsrX4</text>
</a>
</g>
</g>
<!-- Node5&#45;&gt;Node11 -->
<g id="edge9_Node000005_Node000011" class="edge">
<title>Node5&#45;&gt;Node11</title>
<g id="a_edge9_Node000005_Node000011"><a xlink:title=" ">
<path fill="none" stroke="#63b8ff" d="M380.26,-511.38C418.14,-511.38 469.27,-511.38 501.63,-511.38"/>
<polygon fill="#63b8ff" stroke="#63b8ff" points="501.53,-514.88 511.53,-511.38 501.53,-507.88 501.53,-514.88"/>
</a>
</g>
</g>
<!-- Node12 -->
<g id="Node000012" class="node">
<title>Node12</title>
<g id="a_Node000012"><a xlink:href="../../d6/d19/group___linear_interpolation.html#gaf65357c7aeca9778e5a2f80a6bac2b5d" target="_top" xlink:title="Map from one full&#45;range 8&#45;bit value into a narrower range of 8&#45;bit values, possibly a range of hues.">
<polygon fill="white" stroke="#666666" points="555.62,-482.75 511.88,-482.75 511.88,-462 555.62,-462 555.62,-482.75"/>
<text text-anchor="middle" x="533.75" y="-469.25" font-family="Helvetica,sans-Serif" font-size="10.00">map8</text>
</a>
</g>
</g>
<!-- Node5&#45;&gt;Node12 -->
<g id="edge10_Node000005_Node000012" class="edge">
<title>Node5&#45;&gt;Node12</title>
<g id="a_edge10_Node000005_Node000012"><a xlink:title=" ">
<path fill="none" stroke="#63b8ff" d="M380.26,-501.83C417.69,-494.6 468.04,-484.88 500.45,-478.62"/>
<polygon fill="#63b8ff" stroke="#63b8ff" points="500.88,-482.1 510.04,-476.76 499.55,-475.22 500.88,-482.1"/>
</a>
</g>
</g>
<!-- Node10 -->
<g id="Node000010" class="node">
<title>Node10</title>
<g id="a_Node000010"><a xlink:href="../../d0/da5/group___scaling_dirty.html#ga7386235cada3aca429b189681d2ec56d" target="_top" xlink:title="This version of scale8() does not clean up the R1 register on AVR.">
<polygon fill="white" stroke="#666666" points="607,-638.75 460.5,-638.75 460.5,-618 607,-618 607,-638.75"/>
<text text-anchor="middle" x="533.75" y="-625.25" font-family="Helvetica,sans-Serif" font-size="10.00">scale8_LEAVING_R1_DIRTY</text>
</a>
</g>
</g>
<!-- Node5&#45;&gt;Node10 -->
<g id="edge12_Node000005_Node000010" class="edge">
<title>Node5&#45;&gt;Node10</title>
<g id="a_edge12_Node000005_Node000010"><a xlink:title=" ">
<path fill="none" stroke="#63b8ff" d="M380.25,-514.5C394.03,-517.39 408.22,-522.49 419.25,-531.38 448.67,-555.07 426.19,-584.24 455.25,-608.38 456.93,-609.77 458.7,-611.08 460.54,-612.29"/>
<polygon fill="#63b8ff" stroke="#63b8ff" points="458.46,-615.14 468.91,-616.9 461.84,-609.01 458.46,-615.14"/>
</a>
</g>
</g>
<!-- Node12&#45;&gt;Node13 -->
<g id="edge11_Node000012_Node000013" class="edge">
<title>Node12&#45;&gt;Node13</title>
<g id="a_edge11_Node000012_Node000013"><a xlink:title=" ">
<path fill="none" stroke="#63b8ff" d="M556.02,-474.07C572.51,-476.23 595.34,-481.16 612.25,-492.38 633.6,-506.54 650.35,-531.12 660.41,-548.7"/>
<polygon fill="#63b8ff" stroke="#63b8ff" points="657.21,-550.15 665.07,-557.26 663.36,-546.8 657.21,-550.15"/>
</a>
</g>
</g>
<!-- Node19 -->
<g id="Node000019" class="node">
<title>Node19</title>
<g id="a_Node000019"><a xlink:href="../../d6/d2c/class_c_l_e_d_controller.html#af9962ef739bdb3b590ee66f3780765d6" target="_top" xlink:title=" ">
<polygon fill="white" stroke="#666666" points="415.5,-211.75 244.25,-211.75 244.25,-191 415.5,-191 415.5,-211.75"/>
<text text-anchor="middle" x="329.88" y="-198.25" font-family="Helvetica,sans-Serif" font-size="10.00">CLEDController::beginShowLeds</text>
</a>
</g>
</g>
<!-- Node18&#45;&gt;Node19 -->
<g id="edge19_Node000018_Node000019" class="edge">
<title>Node18&#45;&gt;Node19</title>
<g id="a_edge19_Node000018_Node000019"><a xlink:title=" ">
<path fill="none" stroke="#63b8ff" d="M179.86,-235.62C198.29,-230.79 220.46,-225.11 240.5,-220.38 248.68,-218.44 257.3,-216.49 265.82,-214.6"/>
<polygon fill="#63b8ff" stroke="#63b8ff" points="266.42,-218.05 275.45,-212.5 264.93,-211.21 266.42,-218.05"/>
</a>
</g>
</g>
<!-- Node21 -->
<g id="Node000021" class="node">
<title>Node21</title>
<g id="a_Node000021"><a xlink:href="../../d6/d2c/class_c_l_e_d_controller.html#a63f75cf7e55cf8da46db5fd27110bb3e" target="_top" xlink:title="How many LEDs does this controller manage?">
<polygon fill="white" stroke="#666666" points="591.25,-172.75 476.25,-172.75 476.25,-152 591.25,-152 591.25,-172.75"/>
<text text-anchor="middle" x="533.75" y="-159.25" font-family="Helvetica,sans-Serif" font-size="10.00">CLEDController::size</text>
</a>
</g>
</g>
<!-- Node18&#45;&gt;Node21 -->
<g id="edge40_Node000018_Node000021" class="edge">
<title>Node18&#45;&gt;Node21</title>
<g id="a_edge40_Node000018_Node000021"><a xlink:title=" ">
<path fill="none" stroke="#63b8ff" d="M152.05,-235.63C170.04,-220.62 205.26,-193.94 240.5,-182.38 314.38,-158.13 404.26,-155.71 464.67,-157.69"/>
<polygon fill="#63b8ff" stroke="#63b8ff" points="464.33,-161.18 474.46,-158.07 464.6,-154.19 464.33,-161.18"/>
</a>
</g>
</g>
<!-- Node22 -->
<g id="Node000022" class="node">
<title>Node22</title>
<g id="a_Node000022"><a xlink:href="../../dd/dbb/class_c_fast_l_e_d.html#a61d27e179c9b68bde89d220aebc0de32" target="_top" xlink:title="For debugging, this will keep track of time between calls to countFPS().">
<polygon fill="white" stroke="#666666" points="385.88,-135.75 273.88,-135.75 273.88,-115 385.88,-115 385.88,-135.75"/>
<text text-anchor="middle" x="329.88" y="-122.25" font-family="Helvetica,sans-Serif" font-size="10.00">CFastLED::countFPS</text>
</a>
</g>
</g>
<!-- Node18&#45;&gt;Node22 -->
<g id="edge22_Node000018_Node000022" class="edge">
<title>Node18&#45;&gt;Node22</title>
<g id="a_edge22_Node000018_Node000022"><a xlink:title=" ">
<path fill="none" stroke="#63b8ff" d="M147.89,-235.53C163.55,-215.43 199.95,-172.37 240.5,-149.38 247.36,-145.48 254.88,-142.2 262.55,-139.43"/>
<polygon fill="#63b8ff" stroke="#63b8ff" points="263.59,-142.78 272,-136.33 261.41,-136.13 263.59,-142.78"/>
</a>
</g>
</g>
<!-- Node23 -->
<g id="Node000023" class="node">
<title>Node23</title>
<g id="a_Node000023"><a xlink:href="../../d6/d2c/class_c_l_e_d_controller.html#a49b221af013bf196c2068e2cbd1c299d" target="_top" xlink:title=" ">
<polygon fill="white" stroke="#666666" points="411,-59.75 248.75,-59.75 248.75,-39 411,-39 411,-59.75"/>
<text text-anchor="middle" x="329.88" y="-46.25" font-family="Helvetica,sans-Serif" font-size="10.00">CLEDController::endShowLeds</text>
</a>
</g>
</g>
<!-- Node18&#45;&gt;Node23 -->
<g id="edge23_Node000018_Node000023" class="edge">
<title>Node18&#45;&gt;Node23</title>
<g id="a_edge23_Node000018_Node000023"><a xlink:title=" ">
<path fill="none" stroke="#63b8ff" d="M142.73,-235.93C151.89,-205.75 182.59,-117.8 240.5,-73.38 244.84,-70.04 249.62,-67.17 254.63,-64.7"/>
<polygon fill="#63b8ff" stroke="#63b8ff" points="255.99,-67.93 263.79,-60.76 253.22,-61.5 255.99,-67.93"/>
</a>
</g>
</g>
<!-- Node24 -->
<g id="Node000024" class="node">
<title>Node24</title>
<g id="a_Node000024"><a xlink:href="../../d6/d2c/class_c_l_e_d_controller.html#a2a231accbeb00e6a6080a7e55274a279" target="_top" xlink:title="Set the dithering mode for this controller to use.">
<polygon fill="white" stroke="#666666" points="604,-78.75 463.5,-78.75 463.5,-58 604,-58 604,-78.75"/>
<text text-anchor="middle" x="533.75" y="-65.25" font-family="Helvetica,sans-Serif" font-size="10.00">CLEDController::setDither</text>
</a>
</g>
</g>
<!-- Node18&#45;&gt;Node24 -->
<g id="edge37_Node000018_Node000024" class="edge">
<title>Node18&#45;&gt;Node24</title>
<g id="a_edge37_Node000018_Node000024"><a xlink:title=" ">
<path fill="none" stroke="#63b8ff" d="M143.88,-235.67C154.89,-208.69 187.79,-137.84 240.5,-106.38 275.18,-85.67 378.26,-76.05 452.17,-71.72"/>
<polygon fill="#63b8ff" stroke="#63b8ff" points="452.01,-75.23 461.79,-71.18 451.61,-68.24 452.01,-75.23"/>
</a>
</g>
</g>
<!-- Node25 -->
<g id="Node000025" class="node">
<title>Node25</title>
<g id="a_Node000025"><a xlink:href="../../d6/d2c/class_c_l_e_d_controller.html#a6bd253f670640ea4d1bd0d71b8029f2a" target="_top" xlink:title=" ">
<polygon fill="white" stroke="#666666" points="405,-20.75 254.75,-20.75 254.75,0 405,0 405,-20.75"/>
<text text-anchor="middle" x="329.88" y="-7.25" font-family="Helvetica,sans-Serif" font-size="10.00">CLEDController::getEnabled</text>
</a>
</g>
</g>
<!-- Node18&#45;&gt;Node25 -->
<g id="edge25_Node000018_Node000025" class="edge">
<title>Node18&#45;&gt;Node25</title>
<g id="a_edge25_Node000018_Node000025"><a xlink:title=" ">
<path fill="none" stroke="#63b8ff" d="M141.35,-235.82C147.25,-200.61 171.24,-86.21 240.5,-30.38 242.2,-29.01 243.97,-27.73 245.81,-26.53"/>
<polygon fill="#63b8ff" stroke="#63b8ff" points="247.05,-29.84 254.13,-21.95 243.68,-23.71 247.05,-29.84"/>
</a>
</g>
</g>
<!-- Node26 -->
<g id="Node000026" class="node">
<title>Node26</title>
<g id="a_Node000026"><a xlink:href="../../d6/d2c/class_c_l_e_d_controller.html#a8b412ff1fd4833d0db63a175d40a2ee0" target="_top" xlink:title="Get the first LED controller in the linked list of controllers.">
<polygon fill="white" stroke="#666666" points="389.62,-469.75 270.12,-469.75 270.12,-449 389.62,-449 389.62,-469.75"/>
<text text-anchor="middle" x="329.88" y="-456.25" font-family="Helvetica,sans-Serif" font-size="10.00">CLEDController::head</text>
</a>
</g>
</g>
<!-- Node18&#45;&gt;Node26 -->
<g id="edge26_Node000018_Node000026" class="edge">
<title>Node18&#45;&gt;Node26</title>
<g id="a_edge26_Node000018_Node000026"><a xlink:title=" ">
<path fill="none" stroke="#63b8ff" d="M142.03,-257.19C149.58,-290.21 177.01,-390.49 240.5,-439.38 246.14,-443.72 252.56,-447.15 259.29,-449.86"/>
<polygon fill="#63b8ff" stroke="#63b8ff" points="258.04,-453.14 268.63,-453.06 260.31,-446.51 258.04,-453.14"/>
</a>
</g>
</g>
<!-- Node27 -->
<g id="Node000027" class="node">
<title>Node27</title>
<g id="a_Node000027"><a xlink:href="../../d6/d2c/class_c_l_e_d_controller.html#a21a4d2b3415dd7b24175ebdb51c9ced0" target="_top" xlink:title="Get the next controller in the linked list after this one.">
<polygon fill="white" stroke="#666666" points="388.5,-430.75 271.25,-430.75 271.25,-410 388.5,-410 388.5,-430.75"/>
<text text-anchor="middle" x="329.88" y="-417.25" font-family="Helvetica,sans-Serif" font-size="10.00">CLEDController::next</text>
</a>
</g>
</g>
<!-- Node18&#45;&gt;Node27 -->
<g id="edge27_Node000018_Node000027" class="edge">
<title>Node18&#45;&gt;Node27</title>
<g id="a_edge27_Node000018_Node000027"><a xlink:title=" ">
<path fill="none" stroke="#63b8ff" d="M143.4,-257.1C153.68,-285.61 185.78,-363.69 240.5,-401.38 246.58,-405.56 253.41,-408.85 260.5,-411.43"/>
<polygon fill="#63b8ff" stroke="#63b8ff" points="259,-414.63 269.59,-414.28 261.09,-407.95 259,-414.63"/>
</a>
</g>
</g>
<!-- Node28 -->
<g id="Node000028" class="node">
<title>Node28</title>
<g id="a_Node000028"><a xlink:href="../../de/dca/classfl_1_1_engine_events.html#a7147debfba714b8ab0925af1a7c935c0" target="_top" xlink:title=" ">
<polygon fill="white" stroke="#666666" points="399.75,-392.12 260,-392.12 260,-358.62 399.75,-358.62 399.75,-392.12"/>
<text text-anchor="start" x="268" y="-378.62" font-family="Helvetica,sans-Serif" font-size="10.00">fl::EngineEvents::onBegin</text>
<text text-anchor="middle" x="329.88" y="-365.88" font-family="Helvetica,sans-Serif" font-size="10.00">Frame</text>
</a>
</g>
</g>
<!-- Node18&#45;&gt;Node28 -->
<g id="edge28_Node000018_Node000028" class="edge">
<title>Node18&#45;&gt;Node28</title>
<g id="a_edge28_Node000018_Node000028"><a xlink:title=" ">
<path fill="none" stroke="#63b8ff" d="M147.3,-257.17C162.5,-278.11 198.91,-324.37 240.5,-349.38 243.42,-351.13 246.47,-352.78 249.6,-354.31"/>
<polygon fill="#63b8ff" stroke="#63b8ff" points="247.9,-357.39 258.46,-358.26 250.75,-350.99 247.9,-357.39"/>
</a>
</g>
</g>
<!-- Node32 -->
<g id="Node000032" class="node">
<title>Node32</title>
<g id="a_Node000032"><a xlink:href="../../de/dca/classfl_1_1_engine_events.html#ab7d24c4783214392de84947cd7df5570" target="_top" xlink:title=" ">
<polygon fill="white" stroke="#666666" points="410.25,-340.75 249.5,-340.75 249.5,-320 410.25,-320 410.25,-340.75"/>
<text text-anchor="middle" x="329.88" y="-327.25" font-family="Helvetica,sans-Serif" font-size="10.00">fl::EngineEvents::onEndFrame</text>
</a>
</g>
</g>
<!-- Node18&#45;&gt;Node32 -->
<g id="edge31_Node000018_Node000032" class="edge">
<title>Node18&#45;&gt;Node32</title>
<g id="a_edge31_Node000018_Node000032"><a xlink:title=" ">
<path fill="none" stroke="#63b8ff" d="M153.25,-257.11C171.83,-271.37 206.83,-296.37 240.5,-310.38 245.81,-312.58 251.41,-314.57 257.1,-316.35"/>
<polygon fill="#63b8ff" stroke="#63b8ff" points="256.08,-319.7 266.66,-319.11 258.02,-312.98 256.08,-319.7"/>
</a>
</g>
</g>
<!-- Node34 -->
<g id="Node000034" class="node">
<title>Node34</title>
<g id="a_Node000034"><a xlink:href="../../de/dca/classfl_1_1_engine_events.html#af1bb9a46fdc6694a1b5c87a49c516ae8" target="_top" xlink:title=" ">
<polygon fill="white" stroke="#666666" points="419.25,-301.75 240.5,-301.75 240.5,-281 419.25,-281 419.25,-301.75"/>
<text text-anchor="middle" x="329.88" y="-288.25" font-family="Helvetica,sans-Serif" font-size="10.00">fl::EngineEvents::onEndShowLeds</text>
</a>
</g>
</g>
<!-- Node18&#45;&gt;Node34 -->
<g id="edge34_Node000018_Node000034" class="edge">
<title>Node18&#45;&gt;Node34</title>
<g id="a_edge34_Node000018_Node000034"><a xlink:title=" ">
<path fill="none" stroke="#63b8ff" d="M179.86,-257.13C198.29,-261.96 220.46,-267.64 240.5,-272.38 248.68,-274.31 257.3,-276.26 265.82,-278.15"/>
<polygon fill="#63b8ff" stroke="#63b8ff" points="264.93,-281.54 275.45,-280.25 266.42,-274.7 264.93,-281.54"/>
</a>
</g>
</g>
<!-- Node36 -->
<g id="Node000036" class="node">
<title>Node36</title>
<g id="a_Node000036"><a xlink:href="../../d6/d2c/class_c_l_e_d_controller.html#ac5355e980ac13d9ae97561f183f73990" target="_top" xlink:title="Write the data to the LEDs managed by this controller.">
<polygon fill="white" stroke="#666666" points="401.62,-263.12 258.12,-263.12 258.12,-229.62 401.62,-229.62 401.62,-263.12"/>
<text text-anchor="start" x="266.12" y="-249.62" font-family="Helvetica,sans-Serif" font-size="10.00">CLEDController::showLeds</text>
<text text-anchor="middle" x="329.88" y="-236.88" font-family="Helvetica,sans-Serif" font-size="10.00">Internal</text>
</a>
</g>
</g>
<!-- Node18&#45;&gt;Node36 -->
<g id="edge38_Node000018_Node000036" class="edge">
<title>Node18&#45;&gt;Node36</title>
<g id="a_edge38_Node000018_Node000036"><a xlink:title=" ">
<path fill="none" stroke="#63b8ff" d="M185.05,-246.38C203.48,-246.38 225.38,-246.38 246.46,-246.38"/>
<polygon fill="#63b8ff" stroke="#63b8ff" points="246.21,-249.88 256.21,-246.38 246.21,-242.88 246.21,-249.88"/>
</a>
</g>
</g>
<!-- Node20 -->
<g id="Node000020" class="node">
<title>Node20</title>
<g id="a_Node000020"><a xlink:href="../../d6/d2c/class_c_l_e_d_controller.html#a676f705adf93898739a405b85150a3e7" target="_top" xlink:title="Get the dithering option currently set for this controller.">
<polygon fill="white" stroke="#666666" points="604.38,-211.75 463.12,-211.75 463.12,-191 604.38,-191 604.38,-211.75"/>
<text text-anchor="middle" x="533.75" y="-198.25" font-family="Helvetica,sans-Serif" font-size="10.00">CLEDController::getDither</text>
</a>
</g>
</g>
<!-- Node19&#45;&gt;Node20 -->
<g id="edge20_Node000019_Node000020" class="edge">
<title>Node19&#45;&gt;Node20</title>
<g id="a_edge20_Node000019_Node000020"><a xlink:title=" ">
<path fill="none" stroke="#63b8ff" d="M415.9,-201.38C427.62,-201.38 439.63,-201.38 451.29,-201.38"/>
<polygon fill="#63b8ff" stroke="#63b8ff" points="451.28,-204.88 461.28,-201.38 451.28,-197.88 451.28,-204.88"/>
</a>
</g>
</g>
<!-- Node19&#45;&gt;Node21 -->
<g id="edge21_Node000019_Node000021" class="edge">
<title>Node19&#45;&gt;Node21</title>
<g id="a_edge21_Node000019_Node000021"><a xlink:title=" ">
<path fill="none" stroke="#63b8ff" d="M387.11,-190.51C411.4,-185.82 440.01,-180.29 465.42,-175.38"/>
<polygon fill="#63b8ff" stroke="#63b8ff" points="465.83,-178.87 474.98,-173.54 464.5,-172 465.83,-178.87"/>
</a>
</g>
</g>
<!-- Node23&#45;&gt;Node24 -->
<g id="edge24_Node000023_Node000024" class="edge">
<title>Node23&#45;&gt;Node24</title>
<g id="a_edge24_Node000023_Node000024"><a xlink:title=" ">
<path fill="none" stroke="#63b8ff" d="M411.24,-56.94C424.64,-58.2 438.55,-59.51 451.96,-60.77"/>
<polygon fill="#63b8ff" stroke="#63b8ff" points="451.3,-64.22 461.58,-61.68 451.95,-57.25 451.3,-64.22"/>
</a>
</g>
</g>
<!-- Node29 -->
<g id="Node000029" class="node">
<title>Node29</title>
<g id="a_Node000029"><a xlink:href="../../de/dca/classfl_1_1_engine_events.html#a9dfab83407c4cb0c15065e242d49de62" target="_top" xlink:title=" ">
<polygon fill="white" stroke="#666666" points="583.75,-444.12 483.75,-444.12 483.75,-410.62 583.75,-410.62 583.75,-444.12"/>
<text text-anchor="start" x="491.75" y="-430.62" font-family="Helvetica,sans-Serif" font-size="10.00">fl::EngineEvents::</text>
<text text-anchor="middle" x="533.75" y="-417.88" font-family="Helvetica,sans-Serif" font-size="10.00">_onBeginFrame</text>
</a>
</g>
</g>
<!-- Node28&#45;&gt;Node29 -->
<g id="edge29_Node000028_Node000029" class="edge">
<title>Node28&#45;&gt;Node29</title>
<g id="a_edge29_Node000028_Node000029"><a xlink:title=" ">
<path fill="none" stroke="#63b8ff" d="M397.82,-392.62C421.99,-398.85 449.11,-405.83 472.67,-411.9"/>
<polygon fill="#63b8ff" stroke="#63b8ff" points="471.54,-415.22 482.1,-414.33 473.28,-408.44 471.54,-415.22"/>
</a>
</g>
</g>
<!-- Node30 -->
<g id="Node000030" class="node">
<title>Node30</title>
<g id="a_Node000030"><a xlink:href="../../de/dca/classfl_1_1_engine_events.html#a34a4625c4fbcf754f70820bc4f0e418b" target="_top" xlink:title=" ">
<polygon fill="#fff0f0" stroke="red" points="612.25,-340.75 455.25,-340.75 455.25,-320 612.25,-320 612.25,-340.75"/>
<text text-anchor="middle" x="533.75" y="-327.25" font-family="Helvetica,sans-Serif" font-size="10.00">fl::EngineEvents::getInstance</text>
</a>
</g>
</g>
<!-- Node28&#45;&gt;Node30 -->
<g id="edge30_Node000028_Node000030" class="edge">
<title>Node28&#45;&gt;Node30</title>
<g id="a_edge30_Node000028_Node000030"><a xlink:title=" ">
<path fill="none" stroke="#63b8ff" d="M400.07,-359.95C423.8,-354.66 450.15,-348.79 473.07,-343.68"/>
<polygon fill="#63b8ff" stroke="#63b8ff" points="473.54,-347.16 482.54,-341.57 472.02,-340.33 473.54,-347.16"/>
</a>
</g>
</g>
<!-- Node32&#45;&gt;Node30 -->
<g id="edge33_Node000032_Node000030" class="edge">
<title>Node32&#45;&gt;Node30</title>
<g id="a_edge33_Node000032_Node000030"><a xlink:title=" ">
<path fill="none" stroke="#63b8ff" d="M410.66,-330.38C421.46,-330.38 432.59,-330.38 443.54,-330.38"/>
<polygon fill="#63b8ff" stroke="#63b8ff" points="443.35,-333.88 453.35,-330.38 443.35,-326.88 443.35,-333.88"/>
</a>
</g>
</g>
<!-- Node33 -->
<g id="Node000033" class="node">
<title>Node33</title>
<g id="a_Node000033"><a xlink:href="../../de/dca/classfl_1_1_engine_events.html#a643d9a8597b79d76daed94c29845e886" target="_top" xlink:title=" ">
<polygon fill="white" stroke="#666666" points="583.75,-392.12 483.75,-392.12 483.75,-358.62 583.75,-358.62 583.75,-392.12"/>
<text text-anchor="start" x="491.75" y="-378.62" font-family="Helvetica,sans-Serif" font-size="10.00">fl::EngineEvents::</text>
<text text-anchor="middle" x="533.75" y="-365.88" font-family="Helvetica,sans-Serif" font-size="10.00">_onEndFrame</text>
</a>
</g>
</g>
<!-- Node32&#45;&gt;Node33 -->
<g id="edge32_Node000032_Node000033" class="edge">
<title>Node32&#45;&gt;Node33</title>
<g id="a_edge32_Node000032_Node000033"><a xlink:title=" ">
<path fill="none" stroke="#63b8ff" d="M381.84,-341.21C394.1,-343.85 407.15,-346.69 419.25,-349.38 436.49,-353.2 455.18,-357.45 472.33,-361.38"/>
<polygon fill="#63b8ff" stroke="#63b8ff" points="471.33,-364.74 481.86,-363.57 472.9,-357.92 471.33,-364.74"/>
</a>
</g>
</g>
<!-- Node34&#45;&gt;Node30 -->
<g id="edge36_Node000034_Node000030" class="edge">
<title>Node34&#45;&gt;Node30</title>
<g id="a_edge36_Node000034_Node000030"><a xlink:title=" ">
<path fill="none" stroke="#63b8ff" d="M387.11,-302.24C411.4,-306.93 440.01,-312.46 465.42,-317.37"/>
<polygon fill="#63b8ff" stroke="#63b8ff" points="464.5,-320.75 474.98,-319.21 465.83,-313.88 464.5,-320.75"/>
</a>
</g>
</g>
<!-- Node35 -->
<g id="Node000035" class="node">
<title>Node35</title>
<g id="a_Node000035"><a xlink:href="../../de/dca/classfl_1_1_engine_events.html#ae6b4037ab7b73bf0d69e07c4956f9450" target="_top" xlink:title=" ">
<polygon fill="white" stroke="#666666" points="583.75,-302.12 483.75,-302.12 483.75,-268.62 583.75,-268.62 583.75,-302.12"/>
<text text-anchor="start" x="491.75" y="-288.62" font-family="Helvetica,sans-Serif" font-size="10.00">fl::EngineEvents::</text>
<text text-anchor="middle" x="533.75" y="-275.88" font-family="Helvetica,sans-Serif" font-size="10.00">_onEndShowLeds</text>
</a>
</g>
</g>
<!-- Node34&#45;&gt;Node35 -->
<g id="edge35_Node000034_Node000035" class="edge">
<title>Node34&#45;&gt;Node35</title>
<g id="a_edge35_Node000034_Node000035"><a xlink:title=" ">
<path fill="none" stroke="#63b8ff" d="M419.71,-288.73C437.51,-288.21 455.81,-287.66 472.36,-287.17"/>
<polygon fill="#63b8ff" stroke="#63b8ff" points="472.11,-290.68 482,-286.88 471.9,-283.68 472.11,-290.68"/>
</a>
</g>
</g>
<!-- Node37 -->
<g id="Node000037" class="node">
<title>Node37</title>
<g id="a_Node000037"><a xlink:href="../../d6/d2c/class_c_l_e_d_controller.html#afc8fb063666d03527aabc86d8531e007" target="_top" xlink:title="Write the passed in RGB data out to the LEDs managed by this controller.">
<polygon fill="white" stroke="#666666" points="594.25,-250.75 473.25,-250.75 473.25,-230 594.25,-230 594.25,-250.75"/>
<text text-anchor="middle" x="533.75" y="-237.25" font-family="Helvetica,sans-Serif" font-size="10.00">CLEDController::show</text>
</a>
</g>
</g>
<!-- Node36&#45;&gt;Node37 -->
<g id="edge39_Node000036_Node000037" class="edge">
<title>Node36&#45;&gt;Node37</title>
<g id="a_edge39_Node000036_Node000037"><a xlink:title=" ">
<path fill="none" stroke="#63b8ff" d="M402.05,-244.26C421.32,-243.69 442.17,-243.07 461.45,-242.49"/>
<polygon fill="#63b8ff" stroke="#63b8ff" points="461.5,-245.99 471.39,-242.2 461.29,-239 461.5,-245.99"/>
</a>
</g>
</g>
</g>
</svg>
