<?xml version="1.0" encoding="UTF-8" standalone="no"?>
<!DOCTYPE svg PUBLIC "-//W3C//DTD SVG 1.1//EN"
 "http://www.w3.org/Graphics/SVG/1.1/DTD/svg11.dtd">
<!-- Generated by graphviz version 12.2.1 (20241206.2353)
 -->
<!-- Title: fl::DemoReel100::addGlitter Pages: 1 -->
<svg width="261pt" height="68pt"
 viewBox="0.00 0.00 261.25 67.75" xmlns="http://www.w3.org/2000/svg" xmlns:xlink="http://www.w3.org/1999/xlink">
<g id="graph0" class="graph" transform="scale(1 1) rotate(0) translate(4 63.75)">
<title>fl::DemoReel100::addGlitter</title>
<!-- Node1 -->
<g id="Node000001" class="node">
<title>Node1</title>
<g id="a_Node000001"><a xlink:title=" ">
<polygon fill="#999999" stroke="#666666" points="151.75,-39.75 0,-39.75 0,-19 151.75,-19 151.75,-39.75"/>
<text text-anchor="middle" x="75.88" y="-26.25" font-family="Helvetica,sans-Serif" font-size="10.00">fl::DemoReel100::addGlitter</text>
</a>
</g>
</g>
<!-- Node2 -->
<g id="Node000002" class="node">
<title>Node2</title>
<g id="a_Node000002"><a xlink:href="../../d2/d0d/group___random.html#ga17034d936ef716efe820e11c1df043b0" target="_top" xlink:title="Generate a 16&#45;bit random number.">
<polygon fill="white" stroke="#666666" points="253.25,-59.75 187.75,-59.75 187.75,-39 253.25,-39 253.25,-59.75"/>
<text text-anchor="middle" x="220.5" y="-46.25" font-family="Helvetica,sans-Serif" font-size="10.00">random16</text>
</a>
</g>
</g>
<!-- Node1&#45;&gt;Node2 -->
<g id="edge1_Node000001_Node000002" class="edge">
<title>Node1&#45;&gt;Node2</title>
<g id="a_edge1_Node000001_Node000002"><a xlink:title=" ">
<path fill="none" stroke="#63b8ff" d="M151.95,-39.9C160.24,-41.06 168.46,-42.22 176.16,-43.3"/>
<polygon fill="#63b8ff" stroke="#63b8ff" points="175.51,-46.74 185.9,-44.66 176.48,-39.81 175.51,-46.74"/>
</a>
</g>
</g>
<!-- Node3 -->
<g id="Node000003" class="node">
<title>Node3</title>
<g id="a_Node000003"><a xlink:href="../../d2/d0d/group___random.html#ga4e63c74426f6516f28470dc1b814aefe" target="_top" xlink:title="Generate an 8&#45;bit random number.">
<polygon fill="white" stroke="#666666" points="250.25,-20.75 190.75,-20.75 190.75,0 250.25,0 250.25,-20.75"/>
<text text-anchor="middle" x="220.5" y="-7.25" font-family="Helvetica,sans-Serif" font-size="10.00">random8</text>
</a>
</g>
</g>
<!-- Node1&#45;&gt;Node3 -->
<g id="edge2_Node000001_Node000003" class="edge">
<title>Node1&#45;&gt;Node3</title>
<g id="a_edge2_Node000001_Node000003"><a xlink:title=" ">
<path fill="none" stroke="#63b8ff" d="M151.95,-19.37C161.36,-18.12 170.68,-16.88 179.26,-15.74"/>
<polygon fill="#63b8ff" stroke="#63b8ff" points="179.49,-19.24 188.94,-14.45 178.56,-12.3 179.49,-19.24"/>
</a>
</g>
</g>
</g>
</svg>
