<?xml version="1.0" encoding="UTF-8" standalone="no"?>
<!DOCTYPE svg PUBLIC "-//W3C//DTD SVG 1.1//EN"
 "http://www.w3.org/Graphics/SVG/1.1/DTD/svg11.dtd">
<!-- Generated by graphviz version 12.2.1 (20241206.2353)
 -->
<!-- Title: fl::DemoReel100::bpm Pages: 1 -->
<svg width="617pt" height="246pt"
 viewBox="0.00 0.00 616.75 245.71" xmlns="http://www.w3.org/2000/svg" xmlns:xlink="http://www.w3.org/1999/xlink">
<g id="graph0" class="graph" transform="scale(1 1) rotate(0) translate(4 241.71)">
<title>fl::DemoReel100::bpm</title>
<!-- Node1 -->
<g id="Node000001" class="node">
<title>Node1</title>
<g id="a_Node000001"><a xlink:title=" ">
<polygon fill="#999999" stroke="#666666" points="124.75,-141.71 0,-141.71 0,-120.96 124.75,-120.96 124.75,-141.71"/>
<text text-anchor="middle" x="62.38" y="-128.21" font-family="Helvetica,sans-Serif" font-size="10.00">fl::DemoReel100::bpm</text>
</a>
</g>
</g>
<!-- Node2 -->
<g id="Node000002" class="node">
<title>Node2</title>
<g id="a_Node000002"><a xlink:href="../../d6/d6c/group___beat_generators.html#gaecd7cbfc2640407cabf75afcc7d9ddf4" target="_top" xlink:title="Generates an 8&#45;bit sine wave at a given BPM that oscillates within a given range.">
<polygon fill="white" stroke="#666666" points="239.75,-199.71 181.75,-199.71 181.75,-178.96 239.75,-178.96 239.75,-199.71"/>
<text text-anchor="middle" x="210.75" y="-186.21" font-family="Helvetica,sans-Serif" font-size="10.00">beatsin8</text>
</a>
</g>
</g>
<!-- Node1&#45;&gt;Node2 -->
<g id="edge1_Node000001_Node000002" class="edge">
<title>Node1&#45;&gt;Node2</title>
<g id="a_edge1_Node000001_Node000002"><a xlink:title=" ">
<path fill="none" stroke="#63b8ff" d="M90.56,-142.1C113.57,-151.22 146.77,-164.38 172.29,-174.49"/>
<polygon fill="#63b8ff" stroke="#63b8ff" points="170.71,-177.63 181.3,-178.06 173.29,-171.12 170.71,-177.63"/>
</a>
</g>
</g>
<!-- Node7 -->
<g id="Node000007" class="node">
<title>Node7</title>
<g id="a_Node000007"><a xlink:href="../../d2/d73/group___palette_colors.html#gac46e65aff3dd6519b33e27f0998f17cd" target="_top" xlink:title="Get a color from a palette.">
<polygon fill="white" stroke="#666666" points="260.75,-103.71 160.75,-103.71 160.75,-82.96 260.75,-82.96 260.75,-103.71"/>
<text text-anchor="middle" x="210.75" y="-90.21" font-family="Helvetica,sans-Serif" font-size="10.00">ColorFromPalette</text>
</a>
</g>
</g>
<!-- Node1&#45;&gt;Node7 -->
<g id="edge5_Node000001_Node000007" class="edge">
<title>Node1&#45;&gt;Node7</title>
<g id="a_edge5_Node000001_Node000007"><a xlink:title=" ">
<path fill="none" stroke="#63b8ff" d="M104.93,-120.54C121.15,-116.33 139.95,-111.45 157.1,-107"/>
<polygon fill="#63b8ff" stroke="#63b8ff" points="157.83,-110.43 166.63,-104.53 156.07,-103.65 157.83,-110.43"/>
</a>
</g>
</g>
<!-- Node3 -->
<g id="Node000003" class="node">
<title>Node3</title>
<g id="a_Node000003"><a xlink:href="../../d6/d6c/group___beat_generators.html#ga12014943214a72eec31433d9682d4ebe" target="_top" xlink:title="Generates an 8&#45;bit &quot;sawtooth&quot; wave at a given BPM.">
<polygon fill="white" stroke="#666666" points="340.5,-237.71 296.75,-237.71 296.75,-216.96 340.5,-216.96 340.5,-237.71"/>
<text text-anchor="middle" x="318.62" y="-224.21" font-family="Helvetica,sans-Serif" font-size="10.00">beat8</text>
</a>
</g>
</g>
<!-- Node2&#45;&gt;Node3 -->
<g id="edge2_Node000002_Node000003" class="edge">
<title>Node2&#45;&gt;Node3</title>
<g id="a_edge2_Node000002_Node000003"><a xlink:title=" ">
<path fill="none" stroke="#63b8ff" d="M240.12,-199.51C254.28,-204.59 271.44,-210.76 286.02,-215.99"/>
<polygon fill="#63b8ff" stroke="#63b8ff" points="284.55,-219.18 295.14,-219.26 286.91,-212.59 284.55,-219.18"/>
</a>
</g>
</g>
<!-- Node6 -->
<g id="Node000006" class="node">
<title>Node6</title>
<g id="a_Node000006"><a xlink:href="../../d0/da8/group___scaling.html#gad7535ccda9c92470c4e6ee0265585555" target="_top" xlink:title="Scale one byte by a second one, which is treated as the numerator of a fraction whose denominator is ...">
<polygon fill="white" stroke="#666666" points="425.12,-179.71 377.62,-179.71 377.62,-158.96 425.12,-158.96 425.12,-179.71"/>
<text text-anchor="middle" x="401.38" y="-166.21" font-family="Helvetica,sans-Serif" font-size="10.00">scale8</text>
</a>
</g>
</g>
<!-- Node2&#45;&gt;Node6 -->
<g id="edge4_Node000002_Node000006" class="edge">
<title>Node2&#45;&gt;Node6</title>
<g id="a_edge4_Node000002_Node000006"><a xlink:title=" ">
<path fill="none" stroke="#63b8ff" d="M239.99,-186.34C273.6,-182.77 329.71,-176.82 365.86,-172.99"/>
<polygon fill="#63b8ff" stroke="#63b8ff" points="366.22,-176.47 375.79,-171.94 365.48,-169.51 366.22,-176.47"/>
</a>
</g>
</g>
<!-- Node4 -->
<g id="Node000004" class="node">
<title>Node4</title>
<g id="a_Node000004"><a xlink:href="../../d6/d6c/group___beat_generators.html#gade6acbf6fd3c9d346148bccfcafb2fe2" target="_top" xlink:title="Generates a 16&#45;bit &quot;sawtooth&quot; wave at a given BPM.">
<polygon fill="#fff0f0" stroke="red" points="426.25,-237.71 376.5,-237.71 376.5,-216.96 426.25,-216.96 426.25,-237.71"/>
<text text-anchor="middle" x="401.38" y="-224.21" font-family="Helvetica,sans-Serif" font-size="10.00">beat16</text>
</a>
</g>
</g>
<!-- Node3&#45;&gt;Node4 -->
<g id="edge3_Node000003_Node000004" class="edge">
<title>Node3&#45;&gt;Node4</title>
<g id="a_edge3_Node000003_Node000004"><a xlink:title=" ">
<path fill="none" stroke="#63b8ff" d="M340.84,-227.33C348.21,-227.33 356.69,-227.33 364.89,-227.33"/>
<polygon fill="#63b8ff" stroke="#63b8ff" points="364.65,-230.83 374.65,-227.33 364.65,-223.83 364.65,-230.83"/>
</a>
</g>
</g>
<!-- Node8 -->
<g id="Node000008" class="node">
<title>Node8</title>
<g id="a_Node000008"><a xlink:href="../../dc/db8/group___color_blends.html#ga4f06b4423f71f77346aaf5dabe7dd05c" target="_top" xlink:title="Computes a new color blended some fraction of the way between two other colors.">
<polygon fill="white" stroke="#666666" points="340.12,-46.71 297.12,-46.71 297.12,-25.96 340.12,-25.96 340.12,-46.71"/>
<text text-anchor="middle" x="318.62" y="-33.21" font-family="Helvetica,sans-Serif" font-size="10.00">blend</text>
</a>
</g>
</g>
<!-- Node7&#45;&gt;Node8 -->
<g id="edge6_Node000007_Node000008" class="edge">
<title>Node7&#45;&gt;Node8</title>
<g id="a_edge6_Node000007_Node000008"><a xlink:title=" ">
<path fill="none" stroke="#63b8ff" d="M231.66,-82.61C247.39,-74.15 269.58,-62.2 287.48,-52.56"/>
<polygon fill="#63b8ff" stroke="#63b8ff" points="288.96,-55.74 296.11,-47.92 285.64,-49.57 288.96,-55.74"/>
</a>
</g>
</g>
<!-- Node11 -->
<g id="Node000011" class="node">
<title>Node11</title>
<g id="a_Node000011"><a xlink:href="../../d0/da5/group___scaling_dirty.html#ga3fade00fb4cf5b937b973128198a7a79" target="_top" xlink:title="Clean up the r1 register after a series of *LEAVING_R1_DIRTY calls.">
<polygon fill="white" stroke="#666666" points="571.62,-74.71 499.38,-74.71 499.38,-53.96 571.62,-53.96 571.62,-74.71"/>
<text text-anchor="middle" x="535.5" y="-61.21" font-family="Helvetica,sans-Serif" font-size="10.00">cleanup_R1</text>
</a>
</g>
</g>
<!-- Node7&#45;&gt;Node11 -->
<g id="edge10_Node000007_Node000011" class="edge">
<title>Node7&#45;&gt;Node11</title>
<g id="a_edge10_Node000007_Node000011"><a xlink:title=" ">
<path fill="none" stroke="#63b8ff" d="M261.12,-88.9C322.7,-83.36 427.23,-73.97 487.63,-68.54"/>
<polygon fill="#63b8ff" stroke="#63b8ff" points="487.94,-72.03 497.58,-67.65 487.31,-65.06 487.94,-72.03"/>
</a>
</g>
</g>
<!-- Node12 -->
<g id="Node000012" class="node">
<title>Node12</title>
<g id="a_Node000012"><a xlink:href="../../d0/da5/group___scaling_dirty.html#ga7386235cada3aca429b189681d2ec56d" target="_top" xlink:title="This version of scale8() does not clean up the R1 register on AVR.">
<polygon fill="white" stroke="#666666" points="608.75,-26.71 462.25,-26.71 462.25,-5.96 608.75,-5.96 608.75,-26.71"/>
<text text-anchor="middle" x="535.5" y="-13.21" font-family="Helvetica,sans-Serif" font-size="10.00">scale8_LEAVING_R1_DIRTY</text>
</a>
</g>
</g>
<!-- Node7&#45;&gt;Node12 -->
<g id="edge14_Node000007_Node000012" class="edge">
<title>Node7&#45;&gt;Node12</title>
<g id="a_edge14_Node000007_Node000012"><a xlink:title=" ">
<path fill="none" stroke="#63b8ff" d="M219.42,-82.64C232.77,-65.04 262.2,-30.61 296.75,-17.33 350.79,3.44 416.98,1.75 465.79,-4.02"/>
<polygon fill="#63b8ff" stroke="#63b8ff" points="465.31,-7.49 475.67,-5.29 466.2,-0.55 465.31,-7.49"/>
</a>
</g>
</g>
<!-- Node13 -->
<g id="Node000013" class="node">
<title>Node13</title>
<g id="a_Node000013"><a xlink:href="../../da/d2d/colorutils_8cpp.html#ab445fd8641e95a3bbd1417d9783f6170" target="_top" xlink:title="Helper function to divide a number by 16, aka four logical shift right (LSR)&#39;s.">
<polygon fill="white" stroke="#666666" points="339,-122.71 298.25,-122.71 298.25,-101.96 339,-101.96 339,-122.71"/>
<text text-anchor="middle" x="318.62" y="-109.21" font-family="Helvetica,sans-Serif" font-size="10.00">lsrX4</text>
</a>
</g>
</g>
<!-- Node7&#45;&gt;Node13 -->
<g id="edge11_Node000007_Node000013" class="edge">
<title>Node7&#45;&gt;Node13</title>
<g id="a_edge11_Node000007_Node000013"><a xlink:title=" ">
<path fill="none" stroke="#63b8ff" d="M260.97,-102.16C269.75,-103.74 278.67,-105.34 286.75,-106.79"/>
<polygon fill="#63b8ff" stroke="#63b8ff" points="285.93,-110.2 296.39,-108.52 287.16,-103.31 285.93,-110.2"/>
</a>
</g>
</g>
<!-- Node14 -->
<g id="Node000014" class="node">
<title>Node14</title>
<g id="a_Node000014"><a xlink:href="../../d6/d19/group___linear_interpolation.html#gaf65357c7aeca9778e5a2f80a6bac2b5d" target="_top" xlink:title="Map from one full&#45;range 8&#45;bit value into a narrower range of 8&#45;bit values, possibly a range of hues.">
<polygon fill="white" stroke="#666666" points="340.5,-161.71 296.75,-161.71 296.75,-140.96 340.5,-140.96 340.5,-161.71"/>
<text text-anchor="middle" x="318.62" y="-148.21" font-family="Helvetica,sans-Serif" font-size="10.00">map8</text>
</a>
</g>
</g>
<!-- Node7&#45;&gt;Node14 -->
<g id="edge12_Node000007_Node000014" class="edge">
<title>Node7&#45;&gt;Node14</title>
<g id="a_edge12_Node000007_Node000014"><a xlink:title=" ">
<path fill="none" stroke="#63b8ff" d="M231.17,-103.97C247.04,-112.66 269.73,-125.1 287.89,-135.04"/>
<polygon fill="#63b8ff" stroke="#63b8ff" points="286.19,-138.1 296.64,-139.84 289.55,-131.96 286.19,-138.1"/>
</a>
</g>
</g>
<!-- Node9 -->
<g id="Node000009" class="node">
<title>Node9</title>
<g id="a_Node000009"><a xlink:href="../../dc/db8/group___color_blends.html#ga325120664a9c9b41abceee65303b0c4e" target="_top" xlink:title="Destructively modifies one color, blending in a given fraction of an overlay color.">
<polygon fill="#fff0f0" stroke="red" points="425.88,-46.71 376.88,-46.71 376.88,-25.96 425.88,-25.96 425.88,-46.71"/>
<text text-anchor="middle" x="401.38" y="-33.21" font-family="Helvetica,sans-Serif" font-size="10.00">nblend</text>
</a>
</g>
</g>
<!-- Node8&#45;&gt;Node9 -->
<g id="edge7_Node000008_Node000009" class="edge">
<title>Node8&#45;&gt;Node9</title>
<g id="a_edge7_Node000008_Node000009"><a xlink:title=" ">
<path fill="none" stroke="#63b8ff" d="M340.42,-36.33C348,-36.33 356.8,-36.33 365.28,-36.33"/>
<polygon fill="#63b8ff" stroke="#63b8ff" points="364.99,-39.83 374.99,-36.33 364.99,-32.83 364.99,-39.83"/>
</a>
</g>
</g>
<!-- Node9&#45;&gt;Node11 -->
<g id="edge8_Node000009_Node000011" class="edge">
<title>Node9&#45;&gt;Node11</title>
<g id="a_edge8_Node000009_Node000011"><a xlink:title=" ">
<path fill="none" stroke="#63b8ff" d="M426.3,-41.4C443.43,-45.03 467.05,-50.04 487.85,-54.44"/>
<polygon fill="#63b8ff" stroke="#63b8ff" points="487.06,-57.86 497.57,-56.51 488.52,-51.01 487.06,-57.86"/>
</a>
</g>
</g>
<!-- Node9&#45;&gt;Node12 -->
<g id="edge9_Node000009_Node000012" class="edge">
<title>Node9&#45;&gt;Node12</title>
<g id="a_edge9_Node000009_Node000012"><a xlink:title=" ">
<path fill="none" stroke="#63b8ff" d="M426.3,-32.71C433.76,-31.58 442.44,-30.27 451.58,-28.88"/>
<polygon fill="#63b8ff" stroke="#63b8ff" points="452.06,-32.35 461.42,-27.39 451.01,-25.43 452.06,-32.35"/>
</a>
</g>
</g>
<!-- Node14&#45;&gt;Node6 -->
<g id="edge13_Node000014_Node000006" class="edge">
<title>Node14&#45;&gt;Node6</title>
<g id="a_edge13_Node000014_Node000006"><a xlink:title=" ">
<path fill="none" stroke="#63b8ff" d="M340.84,-156.06C348.64,-157.8 357.68,-159.81 366.32,-161.74"/>
<polygon fill="#63b8ff" stroke="#63b8ff" points="365.32,-165.1 375.84,-163.86 366.84,-158.27 365.32,-165.1"/>
</a>
</g>
</g>
</g>
</svg>
