<?xml version="1.0" encoding="UTF-8" standalone="no"?>
<!DOCTYPE svg PUBLIC "-//W3C//DTD SVG 1.1//EN"
 "http://www.w3.org/Graphics/SVG/1.1/DTD/svg11.dtd">
<!-- Generated by graphviz version 12.2.1 (20241206.2353)
 -->
<!-- Title: loop Pages: 1 -->
<svg width="683pt" height="569pt"
 viewBox="0.00 0.00 682.75 568.75" xmlns="http://www.w3.org/2000/svg" xmlns:xlink="http://www.w3.org/1999/xlink">
<g id="graph0" class="graph" transform="scale(1 1) rotate(0) translate(4 564.75)">
<title>loop</title>
<!-- Node1 -->
<g id="Node000001" class="node">
<title>Node1</title>
<g id="a_Node000001"><a xlink:title=" ">
<polygon fill="#999999" stroke="#666666" points="37,-521.75 0,-521.75 0,-501 37,-501 37,-521.75"/>
<text text-anchor="middle" x="18.5" y="-508.25" font-family="Helvetica,sans-Serif" font-size="10.00">loop</text>
</a>
</g>
</g>
<!-- Node2 -->
<g id="Node000002" class="node">
<title>Node2</title>
<g id="a_Node000002"><a xlink:href="../../d5/d3d/group___color_blurs.html#gaacf0416f9e0438f23f92d0df6c338ea3" target="_top" xlink:title="One&#45;dimensional blur filter.">
<polygon fill="white" stroke="#666666" points="142.62,-560.75 95.88,-560.75 95.88,-540 142.62,-540 142.62,-560.75"/>
<text text-anchor="middle" x="119.25" y="-547.25" font-family="Helvetica,sans-Serif" font-size="10.00">blur1d</text>
</a>
</g>
</g>
<!-- Node1&#45;&gt;Node2 -->
<g id="edge1_Node000001_Node000002" class="edge">
<title>Node1&#45;&gt;Node2</title>
<g id="a_edge1_Node000001_Node000002"><a xlink:title=" ">
<path fill="none" stroke="#63b8ff" d="M37.15,-518.35C50.41,-523.58 68.95,-530.9 84.95,-537.22"/>
<polygon fill="#63b8ff" stroke="#63b8ff" points="83.54,-540.43 94.13,-540.85 86.11,-533.92 83.54,-540.43"/>
</a>
</g>
</g>
<!-- Node7 -->
<g id="Node000007" class="node">
<title>Node7</title>
<g id="a_Node000007"><a xlink:href="../../d3/d1c/group___color_fades.html#ga404d163d8a422cee2df2baac4151ca98" target="_top" xlink:title="Reduce the brightness of an array of pixels all at once.">
<polygon fill="white" stroke="#666666" points="163.25,-521.75 75.25,-521.75 75.25,-501 163.25,-501 163.25,-521.75"/>
<text text-anchor="middle" x="119.25" y="-508.25" font-family="Helvetica,sans-Serif" font-size="10.00">fadeToBlackBy</text>
</a>
</g>
</g>
<!-- Node1&#45;&gt;Node7 -->
<g id="edge4_Node000001_Node000007" class="edge">
<title>Node1&#45;&gt;Node7</title>
<g id="a_edge4_Node000001_Node000007"><a xlink:title=" ">
<path fill="none" stroke="#63b8ff" d="M37.15,-511.38C44.73,-511.38 54.03,-511.38 63.61,-511.38"/>
<polygon fill="#63b8ff" stroke="#63b8ff" points="63.36,-514.88 73.36,-511.38 63.36,-507.88 63.36,-514.88"/>
</a>
</g>
</g>
<!-- Node9 -->
<g id="Node000009" class="node">
<title>Node9</title>
<g id="a_Node000009"><a xlink:href="../../dd/dbb/class_c_fast_l_e_d.html#a83afdd1e2a21f33ac4f8d2610d6e331b" target="_top" xlink:title="Update all our controllers with the current led colors, using the passed in brightness.">
<polygon fill="white" stroke="#666666" points="165.5,-251.75 73,-251.75 73,-231 165.5,-231 165.5,-251.75"/>
<text text-anchor="middle" x="119.25" y="-238.25" font-family="Helvetica,sans-Serif" font-size="10.00">CFastLED::show</text>
</a>
</g>
</g>
<!-- Node1&#45;&gt;Node9 -->
<g id="edge7_Node000001_Node000009" class="edge">
<title>Node1&#45;&gt;Node9</title>
<g id="a_edge7_Node000001_Node000009"><a xlink:title=" ">
<path fill="none" stroke="#63b8ff" d="M23.37,-500.79C38.05,-460.64 90.49,-317.27 110.46,-262.69"/>
<polygon fill="#63b8ff" stroke="#63b8ff" points="113.63,-264.19 113.78,-253.6 107.06,-261.79 113.63,-264.19"/>
</a>
</g>
</g>
<!-- Node3 -->
<g id="Node000003" class="node">
<title>Node3</title>
<g id="a_Node000003"><a xlink:href="../../db/d87/group___pixel_types.html#a5a3c3370a7de840ac31c07f6dc9bdb63" target="_top" xlink:title="Scale down a RGB to N/256ths of its current brightness, using &quot;plain math&quot; dimming rules.">
<polygon fill="white" stroke="#666666" points="538.38,-560.75 451.12,-560.75 451.12,-540 538.38,-540 538.38,-560.75"/>
<text text-anchor="middle" x="494.75" y="-547.25" font-family="Helvetica,sans-Serif" font-size="10.00">CRGB::nscale8</text>
</a>
</g>
</g>
<!-- Node2&#45;&gt;Node3 -->
<g id="edge2_Node000002_Node000003" class="edge">
<title>Node2&#45;&gt;Node3</title>
<g id="a_edge2_Node000002_Node000003"><a xlink:title=" ">
<path fill="none" stroke="#63b8ff" d="M143.05,-550.38C201.16,-550.38 356.04,-550.38 439.18,-550.38"/>
<polygon fill="#63b8ff" stroke="#63b8ff" points="439.15,-553.88 449.15,-550.38 439.15,-546.88 439.15,-553.88"/>
</a>
</g>
</g>
<!-- Node4 -->
<g id="Node000004" class="node">
<title>Node4</title>
<g id="a_Node000004"><a xlink:href="../../d0/da8/group___scaling.html#ga39bf87e5526120889086cab19ac749b1" target="_top" xlink:title="Scale three one&#45;byte values by a fourth one, which is treated as the numerator of a fraction whose de...">
<polygon fill="#fff0f0" stroke="red" points="674.75,-560.75 609.25,-560.75 609.25,-540 674.75,-540 674.75,-560.75"/>
<text text-anchor="middle" x="642" y="-547.25" font-family="Helvetica,sans-Serif" font-size="10.00">nscale8x3</text>
</a>
</g>
</g>
<!-- Node3&#45;&gt;Node4 -->
<g id="edge3_Node000003_Node000004" class="edge">
<title>Node3&#45;&gt;Node4</title>
<g id="a_edge3_Node000003_Node000004"><a xlink:title=" ">
<path fill="none" stroke="#63b8ff" d="M538.54,-550.38C557.17,-550.38 578.96,-550.38 597.64,-550.38"/>
<polygon fill="#63b8ff" stroke="#63b8ff" points="597.6,-553.88 607.6,-550.38 597.6,-546.88 597.6,-553.88"/>
</a>
</g>
</g>
<!-- Node8 -->
<g id="Node000008" class="node">
<title>Node8</title>
<g id="a_Node000008"><a xlink:href="../../d3/d1c/group___color_fades.html#gad0356fc313196732e7cd4e64f506f82b" target="_top" xlink:title="Scale the brightness of an array of pixels all at once.">
<polygon fill="white" stroke="#666666" points="317.62,-522.75 264.12,-522.75 264.12,-502 317.62,-502 317.62,-522.75"/>
<text text-anchor="middle" x="290.88" y="-509.25" font-family="Helvetica,sans-Serif" font-size="10.00">nscale8</text>
</a>
</g>
</g>
<!-- Node7&#45;&gt;Node8 -->
<g id="edge5_Node000007_Node000008" class="edge">
<title>Node7&#45;&gt;Node8</title>
<g id="a_edge5_Node000007_Node000008"><a xlink:title=" ">
<path fill="none" stroke="#63b8ff" d="M163.49,-511.63C190.9,-511.79 226,-512 252.26,-512.15"/>
<polygon fill="#63b8ff" stroke="#63b8ff" points="252.1,-515.65 262.12,-512.21 252.14,-508.65 252.1,-515.65"/>
</a>
</g>
</g>
<!-- Node8&#45;&gt;Node3 -->
<g id="edge6_Node000008_Node000003" class="edge">
<title>Node8&#45;&gt;Node3</title>
<g id="a_edge6_Node000008_Node000003"><a xlink:title=" ">
<path fill="none" stroke="#63b8ff" d="M317.85,-517.27C348.48,-523.03 400.2,-532.77 439.66,-540.19"/>
<polygon fill="#63b8ff" stroke="#63b8ff" points="438.99,-543.63 449.46,-542.04 440.28,-536.75 438.99,-543.63"/>
</a>
</g>
</g>
<!-- Node10 -->
<g id="Node000010" class="node">
<title>Node10</title>
<g id="a_Node000010"><a xlink:href="../../d6/d2c/class_c_l_e_d_controller.html#af9962ef739bdb3b590ee66f3780765d6" target="_top" xlink:title=" ">
<polygon fill="white" stroke="#666666" points="376.5,-289.75 205.25,-289.75 205.25,-269 376.5,-269 376.5,-289.75"/>
<text text-anchor="middle" x="290.88" y="-276.25" font-family="Helvetica,sans-Serif" font-size="10.00">CLEDController::beginShowLeds</text>
</a>
</g>
</g>
<!-- Node9&#45;&gt;Node10 -->
<g id="edge8_Node000009_Node000010" class="edge">
<title>Node9&#45;&gt;Node10</title>
<g id="a_edge8_Node000009_Node000010"><a xlink:title=" ">
<path fill="none" stroke="#63b8ff" d="M165.71,-251.56C185.59,-256.01 209.18,-261.3 230.42,-266.06"/>
<polygon fill="#63b8ff" stroke="#63b8ff" points="229.62,-269.46 240.14,-268.23 231.15,-262.63 229.62,-269.46"/>
</a>
</g>
</g>
<!-- Node12 -->
<g id="Node000012" class="node">
<title>Node12</title>
<g id="a_Node000012"><a xlink:href="../../d6/d2c/class_c_l_e_d_controller.html#a63f75cf7e55cf8da46db5fd27110bb3e" target="_top" xlink:title="How many LEDs does this controller manage?">
<polygon fill="white" stroke="#666666" points="552.25,-250.75 437.25,-250.75 437.25,-230 552.25,-230 552.25,-250.75"/>
<text text-anchor="middle" x="494.75" y="-237.25" font-family="Helvetica,sans-Serif" font-size="10.00">CLEDController::size</text>
</a>
</g>
</g>
<!-- Node9&#45;&gt;Node12 -->
<g id="edge29_Node000009_Node000012" class="edge">
<title>Node9&#45;&gt;Node12</title>
<g id="a_edge29_Node000009_Node000012"><a xlink:title=" ">
<path fill="none" stroke="#63b8ff" d="M165.68,-241.25C230.49,-241.08 350,-240.76 425.49,-240.56"/>
<polygon fill="#63b8ff" stroke="#63b8ff" points="425.25,-244.06 435.24,-240.53 425.23,-237.06 425.25,-244.06"/>
</a>
</g>
</g>
<!-- Node13 -->
<g id="Node000013" class="node">
<title>Node13</title>
<g id="a_Node000013"><a xlink:href="../../dd/dbb/class_c_fast_l_e_d.html#a61d27e179c9b68bde89d220aebc0de32" target="_top" xlink:title="For debugging, this will keep track of time between calls to countFPS().">
<polygon fill="white" stroke="#666666" points="346.88,-213.75 234.88,-213.75 234.88,-193 346.88,-193 346.88,-213.75"/>
<text text-anchor="middle" x="290.88" y="-200.25" font-family="Helvetica,sans-Serif" font-size="10.00">CFastLED::countFPS</text>
</a>
</g>
</g>
<!-- Node9&#45;&gt;Node13 -->
<g id="edge11_Node000009_Node000013" class="edge">
<title>Node9&#45;&gt;Node13</title>
<g id="a_edge11_Node000009_Node000013"><a xlink:title=" ">
<path fill="none" stroke="#63b8ff" d="M165.71,-231.19C185.59,-226.74 209.18,-221.45 230.42,-216.69"/>
<polygon fill="#63b8ff" stroke="#63b8ff" points="231.15,-220.12 240.14,-214.52 229.62,-213.29 231.15,-220.12"/>
</a>
</g>
</g>
<!-- Node14 -->
<g id="Node000014" class="node">
<title>Node14</title>
<g id="a_Node000014"><a xlink:href="../../d6/d2c/class_c_l_e_d_controller.html#a49b221af013bf196c2068e2cbd1c299d" target="_top" xlink:title=" ">
<polygon fill="white" stroke="#666666" points="372,-137.75 209.75,-137.75 209.75,-117 372,-117 372,-137.75"/>
<text text-anchor="middle" x="290.88" y="-124.25" font-family="Helvetica,sans-Serif" font-size="10.00">CLEDController::endShowLeds</text>
</a>
</g>
</g>
<!-- Node9&#45;&gt;Node14 -->
<g id="edge12_Node000009_Node000014" class="edge">
<title>Node9&#45;&gt;Node14</title>
<g id="a_edge12_Node000009_Node000014"><a xlink:title=" ">
<path fill="none" stroke="#63b8ff" d="M126.87,-230.69C139.17,-211.74 167.42,-172.31 201.5,-151.38 207.46,-147.72 213.97,-144.61 220.68,-141.96"/>
<polygon fill="#63b8ff" stroke="#63b8ff" points="221.65,-145.34 229.91,-138.69 219.31,-138.74 221.65,-145.34"/>
</a>
</g>
</g>
<!-- Node15 -->
<g id="Node000015" class="node">
<title>Node15</title>
<g id="a_Node000015"><a xlink:href="../../d6/d2c/class_c_l_e_d_controller.html#a2a231accbeb00e6a6080a7e55274a279" target="_top" xlink:title="Set the dithering mode for this controller to use.">
<polygon fill="white" stroke="#666666" points="565,-156.75 424.5,-156.75 424.5,-136 565,-136 565,-156.75"/>
<text text-anchor="middle" x="494.75" y="-143.25" font-family="Helvetica,sans-Serif" font-size="10.00">CLEDController::setDither</text>
</a>
</g>
</g>
<!-- Node9&#45;&gt;Node15 -->
<g id="edge26_Node000009_Node000015" class="edge">
<title>Node9&#45;&gt;Node15</title>
<g id="a_edge26_Node000009_Node000015"><a xlink:title=" ">
<path fill="none" stroke="#63b8ff" d="M131.57,-230.69C146.38,-217.41 173.71,-195.17 201.5,-184.38 269.6,-157.92 352.66,-149.15 412.8,-146.58"/>
<polygon fill="#63b8ff" stroke="#63b8ff" points="412.76,-150.08 422.62,-146.21 412.5,-143.08 412.76,-150.08"/>
</a>
</g>
</g>
<!-- Node16 -->
<g id="Node000016" class="node">
<title>Node16</title>
<g id="a_Node000016"><a xlink:href="../../d6/d2c/class_c_l_e_d_controller.html#a6bd253f670640ea4d1bd0d71b8029f2a" target="_top" xlink:title=" ">
<polygon fill="white" stroke="#666666" points="366,-98.75 215.75,-98.75 215.75,-78 366,-78 366,-98.75"/>
<text text-anchor="middle" x="290.88" y="-85.25" font-family="Helvetica,sans-Serif" font-size="10.00">CLEDController::getEnabled</text>
</a>
</g>
</g>
<!-- Node9&#45;&gt;Node16 -->
<g id="edge14_Node000009_Node000016" class="edge">
<title>Node9&#45;&gt;Node16</title>
<g id="a_edge14_Node000009_Node000016"><a xlink:title=" ">
<path fill="none" stroke="#63b8ff" d="M123.52,-230.75C131.93,-205.27 156.87,-140.4 201.5,-108.38 203.58,-106.88 205.75,-105.5 207.99,-104.22"/>
<polygon fill="#63b8ff" stroke="#63b8ff" points="209.41,-107.42 216.86,-99.89 206.33,-101.13 209.41,-107.42"/>
</a>
</g>
</g>
<!-- Node17 -->
<g id="Node000017" class="node">
<title>Node17</title>
<g id="a_Node000017"><a xlink:href="../../d6/d2c/class_c_l_e_d_controller.html#a8b412ff1fd4833d0db63a175d40a2ee0" target="_top" xlink:title="Get the first LED controller in the linked list of controllers.">
<polygon fill="white" stroke="#666666" points="350.62,-59.75 231.12,-59.75 231.12,-39 350.62,-39 350.62,-59.75"/>
<text text-anchor="middle" x="290.88" y="-46.25" font-family="Helvetica,sans-Serif" font-size="10.00">CLEDController::head</text>
</a>
</g>
</g>
<!-- Node9&#45;&gt;Node17 -->
<g id="edge15_Node000009_Node000017" class="edge">
<title>Node9&#45;&gt;Node17</title>
<g id="a_edge15_Node000009_Node000017"><a xlink:title=" ">
<path fill="none" stroke="#63b8ff" d="M121.94,-230.91C127.38,-200.71 147.4,-112.77 201.5,-69.38 207.06,-64.92 213.41,-61.41 220.11,-58.66"/>
<polygon fill="#63b8ff" stroke="#63b8ff" points="221.13,-62.01 229.42,-55.42 218.83,-55.4 221.13,-62.01"/>
</a>
</g>
</g>
<!-- Node18 -->
<g id="Node000018" class="node">
<title>Node18</title>
<g id="a_Node000018"><a xlink:href="../../d6/d2c/class_c_l_e_d_controller.html#a21a4d2b3415dd7b24175ebdb51c9ced0" target="_top" xlink:title="Get the next controller in the linked list after this one.">
<polygon fill="white" stroke="#666666" points="349.5,-20.75 232.25,-20.75 232.25,0 349.5,0 349.5,-20.75"/>
<text text-anchor="middle" x="290.88" y="-7.25" font-family="Helvetica,sans-Serif" font-size="10.00">CLEDController::next</text>
</a>
</g>
</g>
<!-- Node9&#45;&gt;Node18 -->
<g id="edge16_Node000009_Node000018" class="edge">
<title>Node9&#45;&gt;Node18</title>
<g id="a_edge16_Node000009_Node000018"><a xlink:title=" ">
<path fill="none" stroke="#63b8ff" d="M120.96,-230.64C123.87,-195.85 137.95,-85.32 201.5,-30.38 207.26,-25.4 213.99,-21.59 221.13,-18.68"/>
<polygon fill="#63b8ff" stroke="#63b8ff" points="222.05,-22.07 230.39,-15.53 219.79,-15.44 222.05,-22.07"/>
</a>
</g>
</g>
<!-- Node19 -->
<g id="Node000019" class="node">
<title>Node19</title>
<g id="a_Node000019"><a xlink:href="../../de/dca/classfl_1_1_engine_events.html#a7147debfba714b8ab0925af1a7c935c0" target="_top" xlink:title=" ">
<polygon fill="white" stroke="#666666" points="360.75,-477.12 221,-477.12 221,-443.62 360.75,-443.62 360.75,-477.12"/>
<text text-anchor="start" x="229" y="-463.62" font-family="Helvetica,sans-Serif" font-size="10.00">fl::EngineEvents::onBegin</text>
<text text-anchor="middle" x="290.88" y="-450.88" font-family="Helvetica,sans-Serif" font-size="10.00">Frame</text>
</a>
</g>
</g>
<!-- Node9&#45;&gt;Node19 -->
<g id="edge17_Node000009_Node000019" class="edge">
<title>Node9&#45;&gt;Node19</title>
<g id="a_edge17_Node000009_Node000019"><a xlink:title=" ">
<path fill="none" stroke="#63b8ff" d="M121.53,-251.97C126.02,-284.36 144.03,-383.02 201.5,-434.38 204.3,-436.88 207.34,-439.14 210.53,-441.19"/>
<polygon fill="#63b8ff" stroke="#63b8ff" points="208.78,-444.22 219.22,-445.97 212.15,-438.08 208.78,-444.22"/>
</a>
</g>
</g>
<!-- Node23 -->
<g id="Node000023" class="node">
<title>Node23</title>
<g id="a_Node000023"><a xlink:href="../../de/dca/classfl_1_1_engine_events.html#ab7d24c4783214392de84947cd7df5570" target="_top" xlink:title=" ">
<polygon fill="white" stroke="#666666" points="371.25,-425.75 210.5,-425.75 210.5,-405 371.25,-405 371.25,-425.75"/>
<text text-anchor="middle" x="290.88" y="-412.25" font-family="Helvetica,sans-Serif" font-size="10.00">fl::EngineEvents::onEndFrame</text>
</a>
</g>
</g>
<!-- Node9&#45;&gt;Node23 -->
<g id="edge20_Node000009_Node000023" class="edge">
<title>Node9&#45;&gt;Node23</title>
<g id="a_edge20_Node000009_Node000023"><a xlink:title=" ">
<path fill="none" stroke="#63b8ff" d="M123.11,-252.07C130.9,-279.11 155.06,-350.73 201.5,-388.38 207.36,-393.13 214.05,-397.04 221.07,-400.27"/>
<polygon fill="#63b8ff" stroke="#63b8ff" points="219.54,-403.43 230.12,-403.96 222.18,-396.95 219.54,-403.43"/>
</a>
</g>
</g>
<!-- Node25 -->
<g id="Node000025" class="node">
<title>Node25</title>
<g id="a_Node000025"><a xlink:href="../../de/dca/classfl_1_1_engine_events.html#af1bb9a46fdc6694a1b5c87a49c516ae8" target="_top" xlink:title=" ">
<polygon fill="white" stroke="#666666" points="380.25,-379.75 201.5,-379.75 201.5,-359 380.25,-359 380.25,-379.75"/>
<text text-anchor="middle" x="290.88" y="-366.25" font-family="Helvetica,sans-Serif" font-size="10.00">fl::EngineEvents::onEndShowLeds</text>
</a>
</g>
</g>
<!-- Node9&#45;&gt;Node25 -->
<g id="edge23_Node000009_Node000025" class="edge">
<title>Node9&#45;&gt;Node25</title>
<g id="a_edge23_Node000009_Node000025"><a xlink:title=" ">
<path fill="none" stroke="#63b8ff" d="M124.97,-252.07C135.35,-274.24 162.38,-325.24 201.5,-350.38 203.38,-351.58 205.33,-352.72 207.32,-353.78"/>
<polygon fill="#63b8ff" stroke="#63b8ff" points="205.75,-356.91 216.3,-357.89 208.67,-350.54 205.75,-356.91"/>
</a>
</g>
</g>
<!-- Node27 -->
<g id="Node000027" class="node">
<title>Node27</title>
<g id="a_Node000027"><a xlink:href="../../d6/d2c/class_c_l_e_d_controller.html#ac5355e980ac13d9ae97561f183f73990" target="_top" xlink:title="Write the data to the LEDs managed by this controller.">
<polygon fill="white" stroke="#666666" points="362.62,-341.12 219.12,-341.12 219.12,-307.62 362.62,-307.62 362.62,-341.12"/>
<text text-anchor="start" x="227.12" y="-327.62" font-family="Helvetica,sans-Serif" font-size="10.00">CLEDController::showLeds</text>
<text text-anchor="middle" x="290.88" y="-314.88" font-family="Helvetica,sans-Serif" font-size="10.00">Internal</text>
</a>
</g>
</g>
<!-- Node9&#45;&gt;Node27 -->
<g id="edge27_Node000009_Node000027" class="edge">
<title>Node9&#45;&gt;Node27</title>
<g id="a_edge27_Node000009_Node000027"><a xlink:title=" ">
<path fill="none" stroke="#63b8ff" d="M132.66,-252.05C147.94,-264.7 175.11,-285.66 201.5,-298.38 204.99,-300.06 208.61,-301.65 212.31,-303.17"/>
<polygon fill="#63b8ff" stroke="#63b8ff" points="210.88,-306.37 221.47,-306.67 213.38,-299.83 210.88,-306.37"/>
</a>
</g>
</g>
<!-- Node11 -->
<g id="Node000011" class="node">
<title>Node11</title>
<g id="a_Node000011"><a xlink:href="../../d6/d2c/class_c_l_e_d_controller.html#a676f705adf93898739a405b85150a3e7" target="_top" xlink:title="Get the dithering option currently set for this controller.">
<polygon fill="white" stroke="#666666" points="565.38,-289.75 424.12,-289.75 424.12,-269 565.38,-269 565.38,-289.75"/>
<text text-anchor="middle" x="494.75" y="-276.25" font-family="Helvetica,sans-Serif" font-size="10.00">CLEDController::getDither</text>
</a>
</g>
</g>
<!-- Node10&#45;&gt;Node11 -->
<g id="edge9_Node000010_Node000011" class="edge">
<title>Node10&#45;&gt;Node11</title>
<g id="a_edge9_Node000010_Node000011"><a xlink:title=" ">
<path fill="none" stroke="#63b8ff" d="M376.9,-279.38C388.62,-279.38 400.63,-279.38 412.29,-279.38"/>
<polygon fill="#63b8ff" stroke="#63b8ff" points="412.28,-282.88 422.28,-279.38 412.28,-275.88 412.28,-282.88"/>
</a>
</g>
</g>
<!-- Node10&#45;&gt;Node12 -->
<g id="edge10_Node000010_Node000012" class="edge">
<title>Node10&#45;&gt;Node12</title>
<g id="a_edge10_Node000010_Node000012"><a xlink:title=" ">
<path fill="none" stroke="#63b8ff" d="M348.11,-268.51C372.4,-263.82 401.01,-258.29 426.42,-253.38"/>
<polygon fill="#63b8ff" stroke="#63b8ff" points="426.83,-256.87 435.98,-251.54 425.5,-250 426.83,-256.87"/>
</a>
</g>
</g>
<!-- Node14&#45;&gt;Node15 -->
<g id="edge13_Node000014_Node000015" class="edge">
<title>Node14&#45;&gt;Node15</title>
<g id="a_edge13_Node000014_Node000015"><a xlink:title=" ">
<path fill="none" stroke="#63b8ff" d="M372.24,-134.94C385.64,-136.2 399.55,-137.51 412.96,-138.77"/>
<polygon fill="#63b8ff" stroke="#63b8ff" points="412.3,-142.22 422.58,-139.68 412.95,-135.25 412.3,-142.22"/>
</a>
</g>
</g>
<!-- Node20 -->
<g id="Node000020" class="node">
<title>Node20</title>
<g id="a_Node000020"><a xlink:href="../../de/dca/classfl_1_1_engine_events.html#a9dfab83407c4cb0c15065e242d49de62" target="_top" xlink:title=" ">
<polygon fill="white" stroke="#666666" points="544.75,-522.12 444.75,-522.12 444.75,-488.62 544.75,-488.62 544.75,-522.12"/>
<text text-anchor="start" x="452.75" y="-508.62" font-family="Helvetica,sans-Serif" font-size="10.00">fl::EngineEvents::</text>
<text text-anchor="middle" x="494.75" y="-495.88" font-family="Helvetica,sans-Serif" font-size="10.00">_onBeginFrame</text>
</a>
</g>
</g>
<!-- Node19&#45;&gt;Node20 -->
<g id="edge18_Node000019_Node000020" class="edge">
<title>Node19&#45;&gt;Node20</title>
<g id="a_edge18_Node000019_Node000020"><a xlink:title=" ">
<path fill="none" stroke="#63b8ff" d="M361.07,-475.8C384.5,-481.02 410.48,-486.81 433.19,-491.87"/>
<polygon fill="#63b8ff" stroke="#63b8ff" points="432.39,-495.28 442.91,-494.04 433.91,-488.45 432.39,-495.28"/>
</a>
</g>
</g>
<!-- Node21 -->
<g id="Node000021" class="node">
<title>Node21</title>
<g id="a_Node000021"><a xlink:href="../../de/dca/classfl_1_1_engine_events.html#a34a4625c4fbcf754f70820bc4f0e418b" target="_top" xlink:title=" ">
<polygon fill="#fff0f0" stroke="red" points="573.25,-470.75 416.25,-470.75 416.25,-450 573.25,-450 573.25,-470.75"/>
<text text-anchor="middle" x="494.75" y="-457.25" font-family="Helvetica,sans-Serif" font-size="10.00">fl::EngineEvents::getInstance</text>
</a>
</g>
</g>
<!-- Node19&#45;&gt;Node21 -->
<g id="edge19_Node000019_Node000021" class="edge">
<title>Node19&#45;&gt;Node21</title>
<g id="a_edge19_Node000019_Node000021"><a xlink:title=" ">
<path fill="none" stroke="#63b8ff" d="M361.07,-460.38C375.16,-460.38 390.18,-460.38 404.86,-460.38"/>
<polygon fill="#63b8ff" stroke="#63b8ff" points="404.47,-463.88 414.47,-460.38 404.47,-456.88 404.47,-463.88"/>
</a>
</g>
</g>
<!-- Node23&#45;&gt;Node21 -->
<g id="edge22_Node000023_Node000021" class="edge">
<title>Node23&#45;&gt;Node21</title>
<g id="a_edge22_Node000023_Node000021"><a xlink:title=" ">
<path fill="none" stroke="#63b8ff" d="M342.84,-426.21C355.1,-428.85 368.15,-431.69 380.25,-434.38 398.39,-438.4 418.13,-442.89 435.99,-446.98"/>
<polygon fill="#63b8ff" stroke="#63b8ff" points="435.11,-450.38 445.64,-449.21 436.68,-443.55 435.11,-450.38"/>
</a>
</g>
</g>
<!-- Node24 -->
<g id="Node000024" class="node">
<title>Node24</title>
<g id="a_Node000024"><a xlink:href="../../de/dca/classfl_1_1_engine_events.html#a643d9a8597b79d76daed94c29845e886" target="_top" xlink:title=" ">
<polygon fill="white" stroke="#666666" points="544.75,-432.12 444.75,-432.12 444.75,-398.62 544.75,-398.62 544.75,-432.12"/>
<text text-anchor="start" x="452.75" y="-418.62" font-family="Helvetica,sans-Serif" font-size="10.00">fl::EngineEvents::</text>
<text text-anchor="middle" x="494.75" y="-405.88" font-family="Helvetica,sans-Serif" font-size="10.00">_onEndFrame</text>
</a>
</g>
</g>
<!-- Node23&#45;&gt;Node24 -->
<g id="edge21_Node000023_Node000024" class="edge">
<title>Node23&#45;&gt;Node24</title>
<g id="a_edge21_Node000023_Node000024"><a xlink:title=" ">
<path fill="none" stroke="#63b8ff" d="M371.66,-415.38C392.11,-415.38 413.77,-415.38 433.08,-415.38"/>
<polygon fill="#63b8ff" stroke="#63b8ff" points="432.95,-418.88 442.95,-415.38 432.95,-411.88 432.95,-418.88"/>
</a>
</g>
</g>
<!-- Node25&#45;&gt;Node21 -->
<g id="edge25_Node000025_Node000021" class="edge">
<title>Node25&#45;&gt;Node21</title>
<g id="a_edge25_Node000025_Node000021"><a xlink:title=" ">
<path fill="none" stroke="#63b8ff" d="M345.62,-380.19C357.65,-384.1 369.9,-389.35 380.25,-396.38 401.44,-410.76 394.66,-427.59 416.25,-441.38 418.26,-442.66 420.34,-443.85 422.49,-444.97"/>
<polygon fill="#63b8ff" stroke="#63b8ff" points="420.96,-448.12 431.52,-449 423.82,-441.72 420.96,-448.12"/>
</a>
</g>
</g>
<!-- Node26 -->
<g id="Node000026" class="node">
<title>Node26</title>
<g id="a_Node000026"><a xlink:href="../../de/dca/classfl_1_1_engine_events.html#ae6b4037ab7b73bf0d69e07c4956f9450" target="_top" xlink:title=" ">
<polygon fill="white" stroke="#666666" points="544.75,-380.12 444.75,-380.12 444.75,-346.62 544.75,-346.62 544.75,-380.12"/>
<text text-anchor="start" x="452.75" y="-366.62" font-family="Helvetica,sans-Serif" font-size="10.00">fl::EngineEvents::</text>
<text text-anchor="middle" x="494.75" y="-353.88" font-family="Helvetica,sans-Serif" font-size="10.00">_onEndShowLeds</text>
</a>
</g>
</g>
<!-- Node25&#45;&gt;Node26 -->
<g id="edge24_Node000025_Node000026" class="edge">
<title>Node25&#45;&gt;Node26</title>
<g id="a_edge24_Node000025_Node000026"><a xlink:title=" ">
<path fill="none" stroke="#63b8ff" d="M380.71,-366.73C398.51,-366.21 416.81,-365.66 433.36,-365.17"/>
<polygon fill="#63b8ff" stroke="#63b8ff" points="433.11,-368.68 443,-364.88 432.9,-361.68 433.11,-368.68"/>
</a>
</g>
</g>
<!-- Node28 -->
<g id="Node000028" class="node">
<title>Node28</title>
<g id="a_Node000028"><a xlink:href="../../d6/d2c/class_c_l_e_d_controller.html#afc8fb063666d03527aabc86d8531e007" target="_top" xlink:title="Write the passed in RGB data out to the LEDs managed by this controller.">
<polygon fill="white" stroke="#666666" points="555.25,-328.75 434.25,-328.75 434.25,-308 555.25,-308 555.25,-328.75"/>
<text text-anchor="middle" x="494.75" y="-315.25" font-family="Helvetica,sans-Serif" font-size="10.00">CLEDController::show</text>
</a>
</g>
</g>
<!-- Node27&#45;&gt;Node28 -->
<g id="edge28_Node000027_Node000028" class="edge">
<title>Node27&#45;&gt;Node28</title>
<g id="a_edge28_Node000027_Node000028"><a xlink:title=" ">
<path fill="none" stroke="#63b8ff" d="M363.05,-322.26C382.32,-321.69 403.17,-321.07 422.45,-320.49"/>
<polygon fill="#63b8ff" stroke="#63b8ff" points="422.5,-323.99 432.39,-320.2 422.29,-317 422.5,-323.99"/>
</a>
</g>
</g>
</g>
</svg>
