<?xml version="1.0" encoding="UTF-8" standalone="no"?>
<!DOCTYPE svg PUBLIC "-//W3C//DTD SVG 1.1//EN"
 "http://www.w3.org/Graphics/SVG/1.1/DTD/svg11.dtd">
<!-- Generated by graphviz version 12.2.1 (20241206.2353)
 -->
<!-- Title: fl::CircularBuffer::increment Pages: 1 -->
<svg width="558pt" height="184pt"
 viewBox="0.00 0.00 558.00 183.50" xmlns="http://www.w3.org/2000/svg" xmlns:xlink="http://www.w3.org/1999/xlink">
<g id="graph0" class="graph" transform="scale(1 1) rotate(0) translate(4 179.5)">
<title>fl::CircularBuffer::increment</title>
<!-- Node1 -->
<g id="Node000001" class="node">
<title>Node1</title>
<g id="a_Node000001"><a xlink:title=" ">
<polygon fill="#999999" stroke="#666666" points="550,-130.5 455.25,-130.5 455.25,-97 550,-97 550,-130.5"/>
<text text-anchor="start" x="463.25" y="-117" font-family="Helvetica,sans-Serif" font-size="10.00">fl::CircularBuffer</text>
<text text-anchor="middle" x="502.62" y="-104.25" font-family="Helvetica,sans-Serif" font-size="10.00">::increment</text>
</a>
</g>
</g>
<!-- Node2 -->
<g id="Node000002" class="node">
<title>Node2</title>
<g id="a_Node000002"><a xlink:href="../../d2/d4f/classfl_1_1_circular_buffer.html#a62c12de0a321ce050f6c94f4f4eb6c28" target="_top" xlink:title=" ">
<polygon fill="white" stroke="#666666" points="419.25,-130.5 324.5,-130.5 324.5,-97 419.25,-97 419.25,-130.5"/>
<text text-anchor="start" x="332.5" y="-117" font-family="Helvetica,sans-Serif" font-size="10.00">fl::CircularBuffer</text>
<text text-anchor="middle" x="371.88" y="-104.25" font-family="Helvetica,sans-Serif" font-size="10.00">::full</text>
</a>
</g>
</g>
<!-- Node1&#45;&gt;Node2 -->
<g id="edge1_Node000001_Node000002" class="edge">
<title>Node1&#45;&gt;Node2</title>
<g id="a_edge1_Node000001_Node000002"><a xlink:title=" ">
<path fill="none" stroke="#63b8ff" d="M443.53,-113.75C435.47,-113.75 427.28,-113.75 419.47,-113.75"/>
<polygon fill="#63b8ff" stroke="#63b8ff" points="443.27,-117.25 453.27,-113.75 443.27,-110.25 443.27,-117.25"/>
</a>
</g>
</g>
<!-- Node3 -->
<g id="Node000003" class="node">
<title>Node3</title>
<g id="a_Node000003"><a xlink:href="../../d2/d4f/classfl_1_1_circular_buffer.html#adbeb1dee7527ceca6098ce36eaae6604" target="_top" xlink:title=" ">
<polygon fill="white" stroke="#666666" points="272.75,-175.5 178,-175.5 178,-142 272.75,-142 272.75,-175.5"/>
<text text-anchor="start" x="186" y="-162" font-family="Helvetica,sans-Serif" font-size="10.00">fl::CircularBuffer</text>
<text text-anchor="middle" x="225.38" y="-149.25" font-family="Helvetica,sans-Serif" font-size="10.00">::push_back</text>
</a>
</g>
</g>
<!-- Node1&#45;&gt;Node3 -->
<g id="edge8_Node000001_Node000003" class="edge">
<title>Node1&#45;&gt;Node3</title>
<g id="a_edge8_Node000001_Node000003"><a xlink:title=" ">
<path fill="none" stroke="#63b8ff" d="M444.25,-133.53C435.93,-135.9 427.42,-138.08 419.25,-139.75 369.97,-149.84 312.47,-154.63 273.16,-156.86"/>
<polygon fill="#63b8ff" stroke="#63b8ff" points="444.99,-136.96 453.57,-130.74 442.99,-130.25 444.99,-136.96"/>
</a>
</g>
</g>
<!-- Node7 -->
<g id="Node000007" class="node">
<title>Node7</title>
<g id="a_Node000007"><a xlink:href="../../d2/d4f/classfl_1_1_circular_buffer.html#a38d9bc90fee7220eee20131d2b875f72" target="_top" xlink:title=" ">
<polygon fill="white" stroke="#666666" points="419.25,-56.5 324.5,-56.5 324.5,-23 419.25,-23 419.25,-56.5"/>
<text text-anchor="start" x="332.5" y="-43" font-family="Helvetica,sans-Serif" font-size="10.00">fl::CircularBuffer</text>
<text text-anchor="middle" x="371.88" y="-30.25" font-family="Helvetica,sans-Serif" font-size="10.00">::pop_front</text>
</a>
</g>
</g>
<!-- Node1&#45;&gt;Node7 -->
<g id="edge6_Node000001_Node000007" class="edge">
<title>Node1&#45;&gt;Node7</title>
<g id="a_edge6_Node000001_Node000007"><a xlink:title=" ">
<path fill="none" stroke="#63b8ff" d="M461.83,-90.88C442.71,-79.89 420.18,-66.94 402.57,-56.82"/>
<polygon fill="#63b8ff" stroke="#63b8ff" points="460.04,-93.88 470.45,-95.83 463.53,-87.82 460.04,-93.88"/>
</a>
</g>
</g>
<!-- Node2&#45;&gt;Node3 -->
<g id="edge2_Node000002_Node000003" class="edge">
<title>Node2&#45;&gt;Node3</title>
<g id="a_edge2_Node000002_Node000003"><a xlink:title=" ">
<path fill="none" stroke="#63b8ff" d="M313.68,-131.56C300.12,-135.78 285.82,-140.24 272.8,-144.29"/>
<polygon fill="#63b8ff" stroke="#63b8ff" points="314.41,-135 322.91,-128.69 312.33,-128.32 314.41,-135"/>
</a>
</g>
</g>
<!-- Node4 -->
<g id="Node000004" class="node">
<title>Node4</title>
<g id="a_Node000004"><a xlink:href="../../d1/dc0/classfl_1_1_byte_stream_memory.html#a74090719c21547ad265facf05f275dd4" target="_top" xlink:title=" ">
<polygon fill="#fff0f0" stroke="red" points="126.25,-152.5 0,-152.5 0,-119 126.25,-119 126.25,-152.5"/>
<text text-anchor="start" x="8" y="-139" font-family="Helvetica,sans-Serif" font-size="10.00">fl::ByteStreamMemory</text>
<text text-anchor="middle" x="63.12" y="-126.25" font-family="Helvetica,sans-Serif" font-size="10.00">::write</text>
</a>
</g>
</g>
<!-- Node2&#45;&gt;Node4 -->
<g id="edge5_Node000002_Node000004" class="edge">
<title>Node2&#45;&gt;Node4</title>
<g id="a_edge5_Node000002_Node000004"><a xlink:title=" ">
<path fill="none" stroke="#63b8ff" d="M313.01,-117.9C259.82,-121.71 181.18,-127.35 126.58,-131.27"/>
<polygon fill="#63b8ff" stroke="#63b8ff" points="313.05,-121.41 322.78,-117.2 312.55,-114.42 313.05,-121.41"/>
</a>
</g>
</g>
<!-- Node6 -->
<g id="Node000006" class="node">
<title>Node6</title>
<g id="a_Node000006"><a xlink:href="../../d2/d4f/classfl_1_1_circular_buffer.html#ad7aea91a07a0daf154f579066ea95090" target="_top" xlink:title=" ">
<polygon fill="white" stroke="#666666" points="272.75,-85.5 178,-85.5 178,-52 272.75,-52 272.75,-85.5"/>
<text text-anchor="start" x="186" y="-72" font-family="Helvetica,sans-Serif" font-size="10.00">fl::CircularBuffer</text>
<text text-anchor="middle" x="225.38" y="-59.25" font-family="Helvetica,sans-Serif" font-size="10.00">::push_front</text>
</a>
</g>
</g>
<!-- Node2&#45;&gt;Node6 -->
<g id="edge4_Node000002_Node000006" class="edge">
<title>Node2&#45;&gt;Node6</title>
<g id="a_edge4_Node000002_Node000006"><a xlink:title=" ">
<path fill="none" stroke="#63b8ff" d="M313.68,-95.94C300.12,-91.72 285.82,-87.26 272.8,-83.21"/>
<polygon fill="#63b8ff" stroke="#63b8ff" points="312.33,-99.18 322.91,-98.81 314.41,-92.5 312.33,-99.18"/>
</a>
</g>
</g>
<!-- Node3&#45;&gt;Node4 -->
<g id="edge3_Node000003_Node000004" class="edge">
<title>Node3&#45;&gt;Node4</title>
<g id="a_edge3_Node000003_Node000004"><a xlink:title=" ">
<path fill="none" stroke="#63b8ff" d="M166.44,-150.43C153.45,-148.57 139.62,-146.59 126.46,-144.7"/>
<polygon fill="#63b8ff" stroke="#63b8ff" points="165.7,-153.86 176.1,-151.82 166.69,-146.94 165.7,-153.86"/>
</a>
</g>
</g>
<!-- Node8 -->
<g id="Node000008" class="node">
<title>Node8</title>
<g id="a_Node000008"><a xlink:href="../../d1/dc0/classfl_1_1_byte_stream_memory.html#a2f4d850dc320b0ab9ed88c1c5df14841" target="_top" xlink:title=" ">
<polygon fill="white" stroke="#666666" points="288.5,-33.5 162.25,-33.5 162.25,0 288.5,0 288.5,-33.5"/>
<text text-anchor="start" x="170.25" y="-20" font-family="Helvetica,sans-Serif" font-size="10.00">fl::ByteStreamMemory</text>
<text text-anchor="middle" x="225.38" y="-7.25" font-family="Helvetica,sans-Serif" font-size="10.00">::read</text>
</a>
</g>
</g>
<!-- Node7&#45;&gt;Node8 -->
<g id="edge7_Node000007_Node000008" class="edge">
<title>Node7&#45;&gt;Node8</title>
<g id="a_edge7_Node000007_Node000008"><a xlink:title=" ">
<path fill="none" stroke="#63b8ff" d="M313.24,-30.58C305.23,-29.3 296.97,-27.99 288.88,-26.7"/>
<polygon fill="#63b8ff" stroke="#63b8ff" points="312.44,-33.99 322.86,-32.11 313.54,-27.08 312.44,-33.99"/>
</a>
</g>
</g>
</g>
</svg>
