<?xml version="1.0" encoding="UTF-8" standalone="no"?>
<!DOCTYPE svg PUBLIC "-//W3C//DTD SVG 1.1//EN"
 "http://www.w3.org/Graphics/SVG/1.1/DTD/svg11.dtd">
<!-- Generated by graphviz version 12.2.1 (20241206.2353)
 -->
<!-- Title: fl::CircularBuffer::empty Pages: 1 -->
<svg width="396pt" height="94pt"
 viewBox="0.00 0.00 395.75 93.50" xmlns="http://www.w3.org/2000/svg" xmlns:xlink="http://www.w3.org/1999/xlink">
<g id="graph0" class="graph" transform="scale(1 1) rotate(0) translate(4 89.5)">
<title>fl::CircularBuffer::empty</title>
<!-- Node1 -->
<g id="Node000001" class="node">
<title>Node1</title>
<g id="a_Node000001"><a xlink:title=" ">
<polygon fill="#999999" stroke="#666666" points="387.75,-59.5 293,-59.5 293,-26 387.75,-26 387.75,-59.5"/>
<text text-anchor="start" x="301" y="-46" font-family="Helvetica,sans-Serif" font-size="10.00">fl::CircularBuffer</text>
<text text-anchor="middle" x="340.38" y="-33.25" font-family="Helvetica,sans-Serif" font-size="10.00">::empty</text>
</a>
</g>
</g>
<!-- Node2 -->
<g id="Node000002" class="node">
<title>Node2</title>
<g id="a_Node000002"><a xlink:href="../../d2/d4f/classfl_1_1_circular_buffer.html#a978d724b10d42376ff3fb2fb8269e1db" target="_top" xlink:title=" ">
<polygon fill="white" stroke="#666666" points="257,-85.5 162.25,-85.5 162.25,-52 257,-52 257,-85.5"/>
<text text-anchor="start" x="170.25" y="-72" font-family="Helvetica,sans-Serif" font-size="10.00">fl::CircularBuffer</text>
<text text-anchor="middle" x="209.62" y="-59.25" font-family="Helvetica,sans-Serif" font-size="10.00">::pop_back</text>
</a>
</g>
</g>
<!-- Node1&#45;&gt;Node2 -->
<g id="edge1_Node000001_Node000002" class="edge">
<title>Node1&#45;&gt;Node2</title>
<g id="a_edge1_Node000001_Node000002"><a xlink:title=" ">
<path fill="none" stroke="#63b8ff" d="M281.28,-54.48C273.22,-56.11 265.03,-57.76 257.22,-59.34"/>
<polygon fill="#63b8ff" stroke="#63b8ff" points="281.94,-57.92 291.05,-52.51 280.55,-51.06 281.94,-57.92"/>
</a>
</g>
</g>
<!-- Node3 -->
<g id="Node000003" class="node">
<title>Node3</title>
<g id="a_Node000003"><a xlink:href="../../d2/d4f/classfl_1_1_circular_buffer.html#a38d9bc90fee7220eee20131d2b875f72" target="_top" xlink:title=" ">
<polygon fill="white" stroke="#666666" points="257,-33.5 162.25,-33.5 162.25,0 257,0 257,-33.5"/>
<text text-anchor="start" x="170.25" y="-20" font-family="Helvetica,sans-Serif" font-size="10.00">fl::CircularBuffer</text>
<text text-anchor="middle" x="209.62" y="-7.25" font-family="Helvetica,sans-Serif" font-size="10.00">::pop_front</text>
</a>
</g>
</g>
<!-- Node1&#45;&gt;Node3 -->
<g id="edge2_Node000001_Node000003" class="edge">
<title>Node1&#45;&gt;Node3</title>
<g id="a_edge2_Node000001_Node000003"><a xlink:title=" ">
<path fill="none" stroke="#63b8ff" d="M281.28,-31.02C273.22,-29.39 265.03,-27.74 257.22,-26.16"/>
<polygon fill="#63b8ff" stroke="#63b8ff" points="280.55,-34.44 291.05,-32.99 281.94,-27.58 280.55,-34.44"/>
</a>
</g>
</g>
<!-- Node4 -->
<g id="Node000004" class="node">
<title>Node4</title>
<g id="a_Node000004"><a xlink:href="../../d1/dc0/classfl_1_1_byte_stream_memory.html#a2f4d850dc320b0ab9ed88c1c5df14841" target="_top" xlink:title=" ">
<polygon fill="white" stroke="#666666" points="126.25,-33.5 0,-33.5 0,0 126.25,0 126.25,-33.5"/>
<text text-anchor="start" x="8" y="-20" font-family="Helvetica,sans-Serif" font-size="10.00">fl::ByteStreamMemory</text>
<text text-anchor="middle" x="63.12" y="-7.25" font-family="Helvetica,sans-Serif" font-size="10.00">::read</text>
</a>
</g>
</g>
<!-- Node3&#45;&gt;Node4 -->
<g id="edge3_Node000003_Node000004" class="edge">
<title>Node3&#45;&gt;Node4</title>
<g id="a_edge3_Node000003_Node000004"><a xlink:title=" ">
<path fill="none" stroke="#63b8ff" d="M150.72,-16.75C142.79,-16.75 134.63,-16.75 126.63,-16.75"/>
<polygon fill="#63b8ff" stroke="#63b8ff" points="150.6,-20.25 160.6,-16.75 150.6,-13.25 150.6,-20.25"/>
</a>
</g>
</g>
</g>
</svg>
