<?xml version="1.0" encoding="UTF-8" standalone="no"?>
<!DOCTYPE svg PUBLIC "-//W3C//DTD SVG 1.1//EN"
 "http://www.w3.org/Graphics/SVG/1.1/DTD/svg11.dtd">
<!-- Generated by graphviz version 12.2.1 (20241206.2353)
 -->
<!-- Title: /home/runner/work/FastLED/FastLED/src/fl/file_system.h Pages: 1 -->
<svg width="853pt" height="358pt"
 viewBox="0.00 0.00 853.41 357.75" xmlns="http://www.w3.org/2000/svg" xmlns:xlink="http://www.w3.org/1999/xlink">
<g id="graph0" class="graph" transform="scale(1 1) rotate(0) translate(4 353.75)">
<title>/home/runner/work/FastLED/FastLED/src/fl/file_system.h</title>
<!-- Node1 -->
<g id="Node000001" class="node">
<title>Node1</title>
<g id="a_Node000001"><a xlink:title=" ">
<polygon fill="#999999" stroke="#666666" points="500.75,-349.75 349,-349.75 349,-316.25 500.75,-316.25 500.75,-349.75"/>
<text text-anchor="start" x="357" y="-336.25" font-family="Helvetica,sans-Serif" font-size="10.00">/home/runner/work/FastLED</text>
<text text-anchor="middle" x="424.88" y="-323.5" font-family="Helvetica,sans-Serif" font-size="10.00">/FastLED/src/fl/file_system.h</text>
</a>
</g>
</g>
<!-- Node2 -->
<g id="Node000002" class="node">
<title>Node2</title>
<g id="a_Node000002"><a xlink:href="../../d7/d35/_fx_sd_card_8ino.html" target="_top" xlink:title=" ">
<polygon fill="white" stroke="#666666" points="157.75,-280.25 0,-280.25 0,-234 157.75,-234 157.75,-280.25"/>
<text text-anchor="start" x="8" y="-266.75" font-family="Helvetica,sans-Serif" font-size="10.00">/home/runner/work/FastLED</text>
<text text-anchor="start" x="8" y="-254" font-family="Helvetica,sans-Serif" font-size="10.00">/FastLED/examples/FxSdCard</text>
<text text-anchor="middle" x="78.88" y="-241.25" font-family="Helvetica,sans-Serif" font-size="10.00">/FxSdCard.ino</text>
</a>
</g>
</g>
<!-- Node1&#45;&gt;Node2 -->
<g id="edge1_Node000001_Node000002" class="edge">
<title>Node1&#45;&gt;Node2</title>
<g id="a_edge1_Node000001_Node000002"><a xlink:title=" ">
<path fill="none" stroke="#63b8ff" d="M337.63,-315.59C287.54,-305.9 223.53,-293.05 166.88,-280.25 163.96,-279.59 160.98,-278.91 157.99,-278.21"/>
<polygon fill="#63b8ff" stroke="#63b8ff" points="336.78,-318.99 347.26,-317.45 338.11,-312.12 336.78,-318.99"/>
</a>
</g>
</g>
<!-- Node3 -->
<g id="Node000003" class="node">
<title>Node3</title>
<g id="a_Node000003"><a xlink:href="../../d6/d8d/file__system_8h.html" target="_top" xlink:title=" ">
<polygon fill="white" stroke="#666666" points="325.62,-273.88 176.12,-273.88 176.12,-240.38 325.62,-240.38 325.62,-273.88"/>
<text text-anchor="start" x="184.12" y="-260.38" font-family="Helvetica,sans-Serif" font-size="10.00">/home/runner/work/FastLED</text>
<text text-anchor="middle" x="250.88" y="-247.62" font-family="Helvetica,sans-Serif" font-size="10.00">/FastLED/src/file_system.h</text>
</a>
</g>
</g>
<!-- Node1&#45;&gt;Node3 -->
<g id="edge2_Node000001_Node000003" class="edge">
<title>Node1&#45;&gt;Node3</title>
<g id="a_edge2_Node000001_Node000003"><a xlink:title=" ">
<path fill="none" stroke="#63b8ff" d="M376.45,-311.44C348.82,-299.71 314.68,-285.21 288.97,-274.3"/>
<polygon fill="#63b8ff" stroke="#63b8ff" points="374.72,-314.51 385.3,-315.2 377.46,-308.07 374.72,-314.51"/>
</a>
</g>
</g>
<!-- Node4 -->
<g id="Node000004" class="node">
<title>Node4</title>
<g id="a_Node000004"><a xlink:href="../../d4/d37/file__system_8cpp.html" target="_top" xlink:title=" ">
<polygon fill="white" stroke="#666666" points="506.38,-273.88 343.38,-273.88 343.38,-240.38 506.38,-240.38 506.38,-273.88"/>
<text text-anchor="start" x="351.38" y="-260.38" font-family="Helvetica,sans-Serif" font-size="10.00">/home/runner/work/FastLED</text>
<text text-anchor="middle" x="424.88" y="-247.62" font-family="Helvetica,sans-Serif" font-size="10.00">/FastLED/src/fl/file_system.cpp</text>
</a>
</g>
</g>
<!-- Node1&#45;&gt;Node4 -->
<g id="edge3_Node000001_Node000004" class="edge">
<title>Node1&#45;&gt;Node4</title>
<g id="a_edge3_Node000001_Node000004"><a xlink:title=" ">
<path fill="none" stroke="#63b8ff" d="M424.88,-304.61C424.88,-294.35 424.88,-283.02 424.88,-274.12"/>
<polygon fill="#63b8ff" stroke="#63b8ff" points="421.38,-304.46 424.88,-314.46 428.38,-304.46 421.38,-304.46"/>
</a>
</g>
</g>
<!-- Node5 -->
<g id="Node000005" class="node">
<title>Node5</title>
<g id="a_Node000005"><a xlink:href="../../d3/dfa/pixel__stream_8h.html" target="_top" xlink:title=" ">
<polygon fill="white" stroke="#666666" points="673.62,-280.25 524.12,-280.25 524.12,-234 673.62,-234 673.62,-280.25"/>
<text text-anchor="start" x="532.12" y="-266.75" font-family="Helvetica,sans-Serif" font-size="10.00">/home/runner/work/FastLED</text>
<text text-anchor="start" x="532.12" y="-254" font-family="Helvetica,sans-Serif" font-size="10.00">/FastLED/src/fx/video/pixel</text>
<text text-anchor="middle" x="598.88" y="-241.25" font-family="Helvetica,sans-Serif" font-size="10.00">_stream.h</text>
</a>
</g>
</g>
<!-- Node1&#45;&gt;Node5 -->
<g id="edge4_Node000001_Node000005" class="edge">
<title>Node1&#45;&gt;Node5</title>
<g id="a_edge4_Node000001_Node000005"><a xlink:title=" ">
<path fill="none" stroke="#63b8ff" d="M473.38,-311.41C495.83,-301.87 522.58,-290.52 545.6,-280.74"/>
<polygon fill="#63b8ff" stroke="#63b8ff" points="472.29,-308.07 464.45,-315.2 475.03,-314.51 472.29,-308.07"/>
</a>
</g>
</g>
<!-- Node9 -->
<g id="Node000009" class="node">
<title>Node9</title>
<g id="a_Node000009"><a xlink:href="../../d5/d82/video__impl_8h.html" target="_top" xlink:title=" ">
<polygon fill="#fff0f0" stroke="red" points="758.5,-109.38 575.25,-109.38 575.25,-75.88 758.5,-75.88 758.5,-109.38"/>
<text text-anchor="start" x="583.25" y="-95.88" font-family="Helvetica,sans-Serif" font-size="10.00">/home/runner/work/FastLED</text>
<text text-anchor="middle" x="666.88" y="-83.12" font-family="Helvetica,sans-Serif" font-size="10.00">/FastLED/src/fx/video/video_impl.h</text>
</a>
</g>
</g>
<!-- Node1&#45;&gt;Node9 -->
<g id="edge14_Node000001_Node000009" class="edge">
<title>Node1&#45;&gt;Node9</title>
<g id="a_edge14_Node000001_Node000009"><a xlink:title=" ">
<path fill="none" stroke="#63b8ff" d="M512.52,-320.94C563.27,-312.94 627.8,-299.99 682.88,-280.25 755.92,-254.06 796.97,-264.55 836.88,-198 847.45,-180.37 848.83,-168.47 836.88,-151.75 818.64,-126.25 788.53,-111.81 758.67,-103.68"/>
<polygon fill="#63b8ff" stroke="#63b8ff" points="512.1,-317.46 502.74,-322.44 513.16,-324.38 512.1,-317.46"/>
</a>
</g>
</g>
<!-- Node6 -->
<g id="Node000006" class="node">
<title>Node6</title>
<g id="a_Node000006"><a xlink:href="../../d0/d05/video_8cpp.html" target="_top" xlink:title=" ">
<polygon fill="white" stroke="#666666" points="621.62,-33.5 472.12,-33.5 472.12,0 621.62,0 621.62,-33.5"/>
<text text-anchor="start" x="480.12" y="-20" font-family="Helvetica,sans-Serif" font-size="10.00">/home/runner/work/FastLED</text>
<text text-anchor="middle" x="546.88" y="-7.25" font-family="Helvetica,sans-Serif" font-size="10.00">/FastLED/src/fx/video.cpp</text>
</a>
</g>
</g>
<!-- Node5&#45;&gt;Node6 -->
<g id="edge5_Node000005_Node000006" class="edge">
<title>Node5&#45;&gt;Node6</title>
<g id="a_edge5_Node000005_Node000006"><a xlink:title=" ">
<path fill="none" stroke="#63b8ff" d="M513.03,-232.27C488.66,-223.49 462.81,-212.14 440.88,-198 397.76,-170.19 379.33,-163.23 359.88,-115.75 352.08,-96.73 347.43,-85.86 359.88,-69.5 373.8,-51.2 426.04,-37.71 471.77,-29.09"/>
<polygon fill="#63b8ff" stroke="#63b8ff" points="511.71,-235.52 522.31,-235.51 514.02,-228.91 511.71,-235.52"/>
</a>
</g>
</g>
<!-- Node7 -->
<g id="Node000007" class="node">
<title>Node7</title>
<g id="a_Node000007"><a xlink:href="../../d5/da4/frame__interpolator_8cpp.html" target="_top" xlink:title=" ">
<polygon fill="white" stroke="#666666" points="518.62,-115.75 369.12,-115.75 369.12,-69.5 518.62,-69.5 518.62,-115.75"/>
<text text-anchor="start" x="377.12" y="-102.25" font-family="Helvetica,sans-Serif" font-size="10.00">/home/runner/work/FastLED</text>
<text text-anchor="start" x="377.12" y="-89.5" font-family="Helvetica,sans-Serif" font-size="10.00">/FastLED/src/fx/video/frame</text>
<text text-anchor="middle" x="443.88" y="-76.75" font-family="Helvetica,sans-Serif" font-size="10.00">_interpolator.cpp</text>
</a>
</g>
</g>
<!-- Node5&#45;&gt;Node7 -->
<g id="edge6_Node000005_Node000007" class="edge">
<title>Node5&#45;&gt;Node7</title>
<g id="a_edge6_Node000005_Node000007"><a xlink:title=" ">
<path fill="none" stroke="#63b8ff" d="M519.6,-229.56C494.47,-219.63 471.07,-208.28 462.88,-198 444.26,-174.68 441.6,-139.08 442.15,-116.07"/>
<polygon fill="#63b8ff" stroke="#63b8ff" points="518.04,-232.71 528.63,-233.03 520.55,-226.17 518.04,-232.71"/>
</a>
</g>
</g>
<!-- Node8 -->
<g id="Node000008" class="node">
<title>Node8</title>
<g id="a_Node000008"><a xlink:href="../../d3/dda/frame__interpolator_8h.html" target="_top" xlink:title=" ">
<polygon fill="white" stroke="#666666" points="621.62,-198 472.12,-198 472.12,-151.75 621.62,-151.75 621.62,-198"/>
<text text-anchor="start" x="480.12" y="-184.5" font-family="Helvetica,sans-Serif" font-size="10.00">/home/runner/work/FastLED</text>
<text text-anchor="start" x="480.12" y="-171.75" font-family="Helvetica,sans-Serif" font-size="10.00">/FastLED/src/fx/video/frame</text>
<text text-anchor="middle" x="546.88" y="-159" font-family="Helvetica,sans-Serif" font-size="10.00">_interpolator.h</text>
</a>
</g>
</g>
<!-- Node5&#45;&gt;Node8 -->
<g id="edge7_Node000005_Node000008" class="edge">
<title>Node5&#45;&gt;Node8</title>
<g id="a_edge7_Node000005_Node000008"><a xlink:title=" ">
<path fill="none" stroke="#63b8ff" d="M578.26,-224.3C572.64,-215.63 566.67,-206.42 561.46,-198.39"/>
<polygon fill="#63b8ff" stroke="#63b8ff" points="575.19,-226.01 583.57,-232.5 581.07,-222.21 575.19,-226.01"/>
</a>
</g>
</g>
<!-- Node5&#45;&gt;Node9 -->
<g id="edge13_Node000005_Node000009" class="edge">
<title>Node5&#45;&gt;Node9</title>
<g id="a_edge13_Node000005_Node000009"><a xlink:title=" ">
<path fill="none" stroke="#63b8ff" d="M618.01,-223.69C622.51,-215.45 627.1,-206.51 630.88,-198 644.33,-167.69 656.04,-130.68 662.22,-109.87"/>
<polygon fill="#63b8ff" stroke="#63b8ff" points="614.99,-221.92 613.15,-232.35 621.1,-225.34 614.99,-221.92"/>
</a>
</g>
</g>
<!-- Node11 -->
<g id="Node000011" class="node">
<title>Node11</title>
<g id="a_Node000011"><a xlink:href="../../da/d7a/pixel__stream_8cpp.html" target="_top" xlink:title=" ">
<polygon fill="white" stroke="#666666" points="827.62,-198 678.12,-198 678.12,-151.75 827.62,-151.75 827.62,-198"/>
<text text-anchor="start" x="686.12" y="-184.5" font-family="Helvetica,sans-Serif" font-size="10.00">/home/runner/work/FastLED</text>
<text text-anchor="start" x="686.12" y="-171.75" font-family="Helvetica,sans-Serif" font-size="10.00">/FastLED/src/fx/video/pixel</text>
<text text-anchor="middle" x="752.88" y="-159" font-family="Helvetica,sans-Serif" font-size="10.00">_stream.cpp</text>
</a>
</g>
</g>
<!-- Node5&#45;&gt;Node11 -->
<g id="edge12_Node000005_Node000011" class="edge">
<title>Node5&#45;&gt;Node11</title>
<g id="a_edge12_Node000005_Node000011"><a xlink:title=" ">
<path fill="none" stroke="#63b8ff" d="M652.34,-228.26C671.06,-218.51 691.84,-207.68 709.63,-198.41"/>
<polygon fill="#63b8ff" stroke="#63b8ff" points="650.78,-225.13 643.52,-232.86 654.01,-231.34 650.78,-225.13"/>
</a>
</g>
</g>
<!-- Node8&#45;&gt;Node6 -->
<g id="edge8_Node000008_Node000006" class="edge">
<title>Node8&#45;&gt;Node6</title>
<g id="a_edge8_Node000008_Node000006"><a xlink:title=" ">
<path fill="none" stroke="#63b8ff" d="M546.88,-140.19C546.88,-107.36 546.88,-58.85 546.88,-33.89"/>
<polygon fill="#63b8ff" stroke="#63b8ff" points="543.38,-139.99 546.88,-149.99 550.38,-139.99 543.38,-139.99"/>
</a>
</g>
</g>
<!-- Node8&#45;&gt;Node7 -->
<g id="edge9_Node000008_Node000007" class="edge">
<title>Node8&#45;&gt;Node7</title>
<g id="a_edge9_Node000008_Node000007"><a xlink:title=" ">
<path fill="none" stroke="#63b8ff" d="M508.98,-144.35C496.96,-134.99 483.88,-124.8 472.62,-116.02"/>
<polygon fill="#63b8ff" stroke="#63b8ff" points="506.68,-146.99 516.72,-150.38 510.98,-141.47 506.68,-146.99"/>
</a>
</g>
</g>
<!-- Node8&#45;&gt;Node9 -->
<g id="edge10_Node000008_Node000009" class="edge">
<title>Node8&#45;&gt;Node9</title>
<g id="a_edge10_Node000008_Node000009"><a xlink:title=" ">
<path fill="none" stroke="#63b8ff" d="M589.73,-145.22C607.6,-133.27 627.69,-119.83 642.88,-109.67"/>
<polygon fill="#63b8ff" stroke="#63b8ff" points="588.25,-142 581.88,-150.47 592.14,-147.82 588.25,-142"/>
</a>
</g>
</g>
<!-- Node9&#45;&gt;Node6 -->
<g id="edge11_Node000009_Node000006" class="edge">
<title>Node9&#45;&gt;Node6</title>
<g id="a_edge11_Node000009_Node000006"><a xlink:title=" ">
<path fill="none" stroke="#63b8ff" d="M630.93,-69.5C612.36,-58.06 590.09,-44.36 573.15,-33.92"/>
<polygon fill="#63b8ff" stroke="#63b8ff" points="628.9,-72.36 639.25,-74.62 632.57,-66.4 628.9,-72.36"/>
</a>
</g>
</g>
</g>
</svg>
