<?xml version="1.0" encoding="UTF-8" standalone="no"?>
<!DOCTYPE svg PUBLIC "-//W3C//DTD SVG 1.1//EN"
 "http://www.w3.org/Graphics/SVG/1.1/DTD/svg11.dtd">
<!-- Generated by graphviz version 12.2.1 (20241206.2353)
 -->
<!-- Title: random16_add_entropy Pages: 1 -->
<svg width="219pt" height="68pt"
 viewBox="0.00 0.00 218.50 67.75" xmlns="http://www.w3.org/2000/svg" xmlns:xlink="http://www.w3.org/1999/xlink">
<g id="graph0" class="graph" transform="scale(1 1) rotate(0) translate(4 63.75)">
<title>random16_add_entropy</title>
<!-- Node1 -->
<g id="Node000001" class="node">
<title>Node1</title>
<g id="a_Node000001"><a xlink:title="Add entropy into the random number generator.">
<polygon fill="#999999" stroke="#666666" points="210.5,-39.75 79,-39.75 79,-19 210.5,-19 210.5,-39.75"/>
<text text-anchor="middle" x="144.75" y="-26.25" font-family="Helvetica,sans-Serif" font-size="10.00">random16_add_entropy</text>
</a>
</g>
</g>
<!-- Node2 -->
<g id="Node000002" class="node">
<title>Node2</title>
<g id="a_Node000002"><a xlink:href="../../db/d92/_fire2012_with_palette_8ino.html#afe461d27b9c48d5921c00d521181f12f" target="_top" xlink:title=" ">
<polygon fill="white" stroke="#666666" points="40,-59.75 3,-59.75 3,-39 40,-39 40,-59.75"/>
<text text-anchor="middle" x="21.5" y="-46.25" font-family="Helvetica,sans-Serif" font-size="10.00">loop</text>
</a>
</g>
</g>
<!-- Node1&#45;&gt;Node2 -->
<g id="edge1_Node000001_Node000002" class="edge">
<title>Node1&#45;&gt;Node2</title>
<g id="a_edge1_Node000001_Node000002"><a xlink:title=" ">
<path fill="none" stroke="#63b8ff" d="M67.38,-41.97C57.3,-43.63 47.84,-45.19 40.23,-46.45"/>
<polygon fill="#63b8ff" stroke="#63b8ff" points="67.72,-45.46 77.02,-40.38 66.58,-38.56 67.72,-45.46"/>
</a>
</g>
</g>
<!-- Node3 -->
<g id="Node000003" class="node">
<title>Node3</title>
<g id="a_Node000003"><a xlink:href="../../d7/ddc/_noise_playground_8ino.html#a4fc01d736fe50cf5b977f755b675f11d" target="_top" xlink:title=" ">
<polygon fill="white" stroke="#666666" points="43,-20.75 0,-20.75 0,0 43,0 43,-20.75"/>
<text text-anchor="middle" x="21.5" y="-7.25" font-family="Helvetica,sans-Serif" font-size="10.00">setup</text>
</a>
</g>
</g>
<!-- Node1&#45;&gt;Node3 -->
<g id="edge2_Node000001_Node000003" class="edge">
<title>Node1&#45;&gt;Node3</title>
<g id="a_edge2_Node000001_Node000003"><a xlink:title=" ">
<path fill="none" stroke="#63b8ff" d="M67.26,-17.39C58.53,-16.02 50.27,-14.73 43.29,-13.63"/>
<polygon fill="#63b8ff" stroke="#63b8ff" points="66.59,-20.83 77.02,-18.92 67.68,-13.91 66.59,-20.83"/>
</a>
</g>
</g>
</g>
</svg>
