<?xml version="1.0" encoding="UTF-8" standalone="no"?>
<!DOCTYPE svg PUBLIC "-//W3C//DTD SVG 1.1//EN"
 "http://www.w3.org/Graphics/SVG/1.1/DTD/svg11.dtd">
<!-- Generated by graphviz version 12.2.1 (20241206.2353)
 -->
<!-- Title: setup Pages: 1 -->
<svg width="638pt" height="197pt"
 viewBox="0.00 0.00 638.25 196.75" xmlns="http://www.w3.org/2000/svg" xmlns:xlink="http://www.w3.org/1999/xlink">
<g id="graph0" class="graph" transform="scale(1 1) rotate(0) translate(4 192.75)">
<title>setup</title>
<!-- Node1 -->
<g id="Node000001" class="node">
<title>Node1</title>
<g id="a_Node000001"><a xlink:title=" ">
<polygon fill="#999999" stroke="#666666" points="43,-84.75 0,-84.75 0,-64 43,-64 43,-84.75"/>
<text text-anchor="middle" x="21.5" y="-71.25" font-family="Helvetica,sans-Serif" font-size="10.00">setup</text>
</a>
</g>
</g>
<!-- Node2 -->
<g id="Node000002" class="node">
<title>Node2</title>
<g id="a_Node000002"><a xlink:href="../../db/de9/_esp32_s3_i2_s_demo_8ino.html#aac2669026fdd52035013cac9b23d95ba" target="_top" xlink:title=" ">
<polygon fill="white" stroke="#666666" points="232.25,-84.75 79,-84.75 79,-64 232.25,-64 232.25,-84.75"/>
<text text-anchor="middle" x="155.62" y="-71.25" font-family="Helvetica,sans-Serif" font-size="10.00">setup_i2s_using_fastled_api</text>
</a>
</g>
</g>
<!-- Node1&#45;&gt;Node2 -->
<g id="edge1_Node000001_Node000002" class="edge">
<title>Node1&#45;&gt;Node2</title>
<g id="a_edge1_Node000001_Node000002"><a xlink:title=" ">
<path fill="none" stroke="#63b8ff" d="M43.44,-74.38C50.34,-74.38 58.51,-74.38 67.23,-74.38"/>
<polygon fill="#63b8ff" stroke="#63b8ff" points="67.01,-77.88 77.01,-74.38 67.01,-70.88 67.01,-77.88"/>
</a>
</g>
</g>
<!-- Node3 -->
<g id="Node000003" class="node">
<title>Node3</title>
<g id="a_Node000003"><a xlink:href="../../dd/dbb/class_c_fast_l_e_d.html#afd7928d822589740af6e23b2d510cf3f" target="_top" xlink:title="Add a CLEDController instance to the world.">
<polygon fill="white" stroke="#666666" points="388.88,-104.75 281.38,-104.75 281.38,-84 388.88,-84 388.88,-104.75"/>
<text text-anchor="middle" x="335.12" y="-91.25" font-family="Helvetica,sans-Serif" font-size="10.00">CFastLED::addLeds</text>
</a>
</g>
</g>
<!-- Node2&#45;&gt;Node3 -->
<g id="edge2_Node000002_Node000003" class="edge">
<title>Node2&#45;&gt;Node3</title>
<g id="a_edge2_Node000002_Node000003"><a xlink:title=" ">
<path fill="none" stroke="#63b8ff" d="M232.67,-82.94C245.01,-84.33 257.68,-85.76 269.7,-87.12"/>
<polygon fill="#63b8ff" stroke="#63b8ff" points="269.17,-90.58 279.5,-88.22 269.95,-83.62 269.17,-90.58"/>
</a>
</g>
</g>
<!-- Node12 -->
<g id="Node000012" class="node">
<title>Node12</title>
<g id="a_Node000012"><a xlink:href="../../dd/dbb/class_c_fast_l_e_d.html#a730ba7d967e882b4b893689cf333b2eb" target="_top" xlink:title="Set the global brightness scaling.">
<polygon fill="white" stroke="#666666" points="402,-65.75 268.25,-65.75 268.25,-45 402,-45 402,-65.75"/>
<text text-anchor="middle" x="335.12" y="-52.25" font-family="Helvetica,sans-Serif" font-size="10.00">CFastLED::setBrightness</text>
</a>
</g>
</g>
<!-- Node2&#45;&gt;Node12 -->
<g id="edge8_Node000002_Node000012" class="edge">
<title>Node2&#45;&gt;Node12</title>
<g id="a_edge8_Node000002_Node000012"><a xlink:title=" ">
<path fill="none" stroke="#63b8ff" d="M232.67,-66.23C240.67,-65.38 248.8,-64.51 256.81,-63.65"/>
<polygon fill="#63b8ff" stroke="#63b8ff" points="256.95,-67.16 266.52,-62.61 256.2,-60.2 256.95,-67.16"/>
</a>
</g>
</g>
<!-- Node4 -->
<g id="Node000004" class="node">
<title>Node4</title>
<g id="a_Node000004"><a xlink:href="../../d6/d2c/class_c_l_e_d_controller.html#a44d20f088426191c82919c9cdbc63a35" target="_top" xlink:title="Gets the maximum possible refresh rate of the strip.">
<polygon fill="white" stroke="#666666" points="630.25,-188.75 438,-188.75 438,-168 630.25,-168 630.25,-188.75"/>
<text text-anchor="middle" x="534.12" y="-175.25" font-family="Helvetica,sans-Serif" font-size="10.00">CLEDController::getMaxRefreshRate</text>
</a>
</g>
</g>
<!-- Node3&#45;&gt;Node4 -->
<g id="edge3_Node000003_Node000004" class="edge">
<title>Node3&#45;&gt;Node4</title>
<g id="a_edge3_Node000003_Node000004"><a xlink:title=" ">
<path fill="none" stroke="#63b8ff" d="M349.77,-105.18C368.55,-119.52 403.92,-144.6 438,-158.38 443.62,-160.65 449.54,-162.68 455.56,-164.48"/>
<polygon fill="#63b8ff" stroke="#63b8ff" points="454.44,-167.8 465.01,-167.1 456.31,-161.06 454.44,-167.8"/>
</a>
</g>
</g>
<!-- Node5 -->
<g id="Node000005" class="node">
<title>Node5</title>
<g id="a_Node000005"><a xlink:href="../../d6/d2c/class_c_l_e_d_controller.html#af877a15a5ec452780fbd1d359b8a9913" target="_top" xlink:title="Initialize the LED controller.">
<polygon fill="white" stroke="#666666" points="589.75,-149.75 478.5,-149.75 478.5,-129 589.75,-129 589.75,-149.75"/>
<text text-anchor="middle" x="534.12" y="-136.25" font-family="Helvetica,sans-Serif" font-size="10.00">CLEDController::init</text>
</a>
</g>
</g>
<!-- Node3&#45;&gt;Node5 -->
<g id="edge4_Node000003_Node000005" class="edge">
<title>Node3&#45;&gt;Node5</title>
<g id="a_edge4_Node000003_Node000005"><a xlink:title=" ">
<path fill="none" stroke="#63b8ff" d="M376.66,-105.24C395.29,-110.1 417.71,-115.76 438,-120.38 447.43,-122.52 457.41,-124.65 467.22,-126.68"/>
<polygon fill="#63b8ff" stroke="#63b8ff" points="466.21,-130.05 476.71,-128.61 467.61,-123.19 466.21,-130.05"/>
</a>
</g>
</g>
<!-- Node6 -->
<g id="Node000006" class="node">
<title>Node6</title>
<g id="a_Node000006"><a xlink:href="../../de/dca/classfl_1_1_engine_events.html#a8ec266f9f7b35b9174d331cb6c338d80" target="_top" xlink:title=" ">
<polygon fill="#fff0f0" stroke="red" points="601.38,-111.12 466.88,-111.12 466.88,-77.62 601.38,-77.62 601.38,-111.12"/>
<text text-anchor="start" x="474.88" y="-97.62" font-family="Helvetica,sans-Serif" font-size="10.00">fl::EngineEvents::onStrip</text>
<text text-anchor="middle" x="534.12" y="-84.88" font-family="Helvetica,sans-Serif" font-size="10.00">Added</text>
</a>
</g>
</g>
<!-- Node3&#45;&gt;Node6 -->
<g id="edge5_Node000003_Node000006" class="edge">
<title>Node3&#45;&gt;Node6</title>
<g id="a_edge5_Node000003_Node000006"><a xlink:title=" ">
<path fill="none" stroke="#63b8ff" d="M389.18,-94.38C409.46,-94.38 433.03,-94.38 455.16,-94.38"/>
<polygon fill="#63b8ff" stroke="#63b8ff" points="455.06,-97.88 465.06,-94.38 455.06,-90.88 455.06,-97.88"/>
</a>
</g>
</g>
<!-- Node10 -->
<g id="Node000010" class="node">
<title>Node10</title>
<g id="a_Node000010"><a xlink:href="../../d6/d2c/class_c_l_e_d_controller.html#a6c8e2157d244ce8b1b878947ca7695d9" target="_top" xlink:title="Set the default array of LEDs to be used by this controller.">
<polygon fill="white" stroke="#666666" points="600.62,-59.75 467.62,-59.75 467.62,-39 600.62,-39 600.62,-59.75"/>
<text text-anchor="middle" x="534.12" y="-46.25" font-family="Helvetica,sans-Serif" font-size="10.00">CLEDController::setLeds</text>
</a>
</g>
</g>
<!-- Node3&#45;&gt;Node10 -->
<g id="edge6_Node000003_Node000010" class="edge">
<title>Node3&#45;&gt;Node10</title>
<g id="a_edge6_Node000003_Node000010"><a xlink:title=" ">
<path fill="none" stroke="#63b8ff" d="M376.66,-83.51C395.29,-78.65 417.71,-72.99 438,-68.38 446.76,-66.38 455.99,-64.4 465.13,-62.5"/>
<polygon fill="#63b8ff" stroke="#63b8ff" points="465.6,-65.98 474.7,-60.54 464.2,-59.12 465.6,-65.98"/>
</a>
</g>
</g>
<!-- Node11 -->
<g id="Node000011" class="node">
<title>Node11</title>
<g id="a_Node000011"><a xlink:href="../../dd/dbb/class_c_fast_l_e_d.html#a1f39e8404db214bbd6a776f52a77d8b1" target="_top" xlink:title="Set the maximum refresh rate.">
<polygon fill="white" stroke="#666666" points="615.62,-20.75 452.62,-20.75 452.62,0 615.62,0 615.62,-20.75"/>
<text text-anchor="middle" x="534.12" y="-7.25" font-family="Helvetica,sans-Serif" font-size="10.00">CFastLED::setMaxRefreshRate</text>
</a>
</g>
</g>
<!-- Node3&#45;&gt;Node11 -->
<g id="edge7_Node000003_Node000011" class="edge">
<title>Node3&#45;&gt;Node11</title>
<g id="a_edge7_Node000003_Node000011"><a xlink:title=" ">
<path fill="none" stroke="#63b8ff" d="M384.08,-83.51C390.38,-81.04 396.54,-78.03 402,-74.38 423,-60.32 416.41,-43.5 438,-30.38 440.93,-28.59 444,-26.97 447.16,-25.48"/>
<polygon fill="#63b8ff" stroke="#63b8ff" points="448.22,-28.83 456.14,-21.79 445.56,-22.36 448.22,-28.83"/>
</a>
</g>
</g>
</g>
</svg>
