<?xml version="1.0" encoding="UTF-8" standalone="no"?>
<!DOCTYPE svg PUBLIC "-//W3C//DTD SVG 1.1//EN"
 "http://www.w3.org/Graphics/SVG/1.1/DTD/svg11.dtd">
<!-- Generated by graphviz version 12.2.1 (20241206.2353)
 -->
<!-- Title: setup_i2s_using_fastled_api Pages: 1 -->
<svg width="752pt" height="197pt"
 viewBox="0.00 0.00 752.25 196.75" xmlns="http://www.w3.org/2000/svg" xmlns:xlink="http://www.w3.org/1999/xlink">
<g id="graph0" class="graph" transform="scale(1 1) rotate(0) translate(4 192.75)">
<title>setup_i2s_using_fastled_api</title>
<!-- Node1 -->
<g id="Node000001" class="node">
<title>Node1</title>
<g id="a_Node000001"><a xlink:title=" ">
<polygon fill="#999999" stroke="#666666" points="153.25,-84.75 0,-84.75 0,-64 153.25,-64 153.25,-84.75"/>
<text text-anchor="middle" x="76.62" y="-71.25" font-family="Helvetica,sans-Serif" font-size="10.00">setup_i2s_using_fastled_api</text>
</a>
</g>
</g>
<!-- Node2 -->
<g id="Node000002" class="node">
<title>Node2</title>
<g id="a_Node000002"><a xlink:href="../../dd/dbb/class_c_fast_l_e_d.html#afd7928d822589740af6e23b2d510cf3f" target="_top" xlink:title="Add a CLEDController instance to the world.">
<polygon fill="white" stroke="#666666" points="309.88,-104.75 202.38,-104.75 202.38,-84 309.88,-84 309.88,-104.75"/>
<text text-anchor="middle" x="256.12" y="-91.25" font-family="Helvetica,sans-Serif" font-size="10.00">CFastLED::addLeds</text>
</a>
</g>
</g>
<!-- Node1&#45;&gt;Node2 -->
<g id="edge1_Node000001_Node000002" class="edge">
<title>Node1&#45;&gt;Node2</title>
<g id="a_edge1_Node000001_Node000002"><a xlink:title=" ">
<path fill="none" stroke="#63b8ff" d="M153.67,-82.94C166.01,-84.33 178.68,-85.76 190.7,-87.12"/>
<polygon fill="#63b8ff" stroke="#63b8ff" points="190.17,-90.58 200.5,-88.22 190.95,-83.62 190.17,-90.58"/>
</a>
</g>
</g>
<!-- Node11 -->
<g id="Node000011" class="node">
<title>Node11</title>
<g id="a_Node000011"><a xlink:href="../../dd/dbb/class_c_fast_l_e_d.html#a730ba7d967e882b4b893689cf333b2eb" target="_top" xlink:title="Set the global brightness scaling.">
<polygon fill="white" stroke="#666666" points="323,-65.75 189.25,-65.75 189.25,-45 323,-45 323,-65.75"/>
<text text-anchor="middle" x="256.12" y="-52.25" font-family="Helvetica,sans-Serif" font-size="10.00">CFastLED::setBrightness</text>
</a>
</g>
</g>
<!-- Node1&#45;&gt;Node11 -->
<g id="edge9_Node000001_Node000011" class="edge">
<title>Node1&#45;&gt;Node11</title>
<g id="a_edge9_Node000001_Node000011"><a xlink:title=" ">
<path fill="none" stroke="#63b8ff" d="M153.67,-66.23C161.67,-65.38 169.8,-64.51 177.81,-63.65"/>
<polygon fill="#63b8ff" stroke="#63b8ff" points="177.95,-67.16 187.52,-62.61 177.2,-60.2 177.95,-67.16"/>
</a>
</g>
</g>
<!-- Node3 -->
<g id="Node000003" class="node">
<title>Node3</title>
<g id="a_Node000003"><a xlink:href="../../d6/d2c/class_c_l_e_d_controller.html#a44d20f088426191c82919c9cdbc63a35" target="_top" xlink:title="Gets the maximum possible refresh rate of the strip.">
<polygon fill="white" stroke="#666666" points="551.25,-188.75 359,-188.75 359,-168 551.25,-168 551.25,-188.75"/>
<text text-anchor="middle" x="455.12" y="-175.25" font-family="Helvetica,sans-Serif" font-size="10.00">CLEDController::getMaxRefreshRate</text>
</a>
</g>
</g>
<!-- Node2&#45;&gt;Node3 -->
<g id="edge2_Node000002_Node000003" class="edge">
<title>Node2&#45;&gt;Node3</title>
<g id="a_edge2_Node000002_Node000003"><a xlink:title=" ">
<path fill="none" stroke="#63b8ff" d="M270.77,-105.18C289.55,-119.52 324.92,-144.6 359,-158.38 364.62,-160.65 370.54,-162.68 376.56,-164.48"/>
<polygon fill="#63b8ff" stroke="#63b8ff" points="375.44,-167.8 386.01,-167.1 377.31,-161.06 375.44,-167.8"/>
</a>
</g>
</g>
<!-- Node4 -->
<g id="Node000004" class="node">
<title>Node4</title>
<g id="a_Node000004"><a xlink:href="../../d6/d2c/class_c_l_e_d_controller.html#af877a15a5ec452780fbd1d359b8a9913" target="_top" xlink:title="Initialize the LED controller.">
<polygon fill="white" stroke="#666666" points="510.75,-149.75 399.5,-149.75 399.5,-129 510.75,-129 510.75,-149.75"/>
<text text-anchor="middle" x="455.12" y="-136.25" font-family="Helvetica,sans-Serif" font-size="10.00">CLEDController::init</text>
</a>
</g>
</g>
<!-- Node2&#45;&gt;Node4 -->
<g id="edge3_Node000002_Node000004" class="edge">
<title>Node2&#45;&gt;Node4</title>
<g id="a_edge3_Node000002_Node000004"><a xlink:title=" ">
<path fill="none" stroke="#63b8ff" d="M297.66,-105.24C316.29,-110.1 338.71,-115.76 359,-120.38 368.43,-122.52 378.41,-124.65 388.22,-126.68"/>
<polygon fill="#63b8ff" stroke="#63b8ff" points="387.21,-130.05 397.71,-128.61 388.61,-123.19 387.21,-130.05"/>
</a>
</g>
</g>
<!-- Node5 -->
<g id="Node000005" class="node">
<title>Node5</title>
<g id="a_Node000005"><a xlink:href="../../de/dca/classfl_1_1_engine_events.html#a8ec266f9f7b35b9174d331cb6c338d80" target="_top" xlink:title=" ">
<polygon fill="white" stroke="#666666" points="522.38,-111.12 387.88,-111.12 387.88,-77.62 522.38,-77.62 522.38,-111.12"/>
<text text-anchor="start" x="395.88" y="-97.62" font-family="Helvetica,sans-Serif" font-size="10.00">fl::EngineEvents::onStrip</text>
<text text-anchor="middle" x="455.12" y="-84.88" font-family="Helvetica,sans-Serif" font-size="10.00">Added</text>
</a>
</g>
</g>
<!-- Node2&#45;&gt;Node5 -->
<g id="edge4_Node000002_Node000005" class="edge">
<title>Node2&#45;&gt;Node5</title>
<g id="a_edge4_Node000002_Node000005"><a xlink:title=" ">
<path fill="none" stroke="#63b8ff" d="M310.18,-94.38C330.46,-94.38 354.03,-94.38 376.16,-94.38"/>
<polygon fill="#63b8ff" stroke="#63b8ff" points="376.06,-97.88 386.06,-94.38 376.06,-90.88 376.06,-97.88"/>
</a>
</g>
</g>
<!-- Node9 -->
<g id="Node000009" class="node">
<title>Node9</title>
<g id="a_Node000009"><a xlink:href="../../d6/d2c/class_c_l_e_d_controller.html#a6c8e2157d244ce8b1b878947ca7695d9" target="_top" xlink:title="Set the default array of LEDs to be used by this controller.">
<polygon fill="white" stroke="#666666" points="521.62,-59.75 388.62,-59.75 388.62,-39 521.62,-39 521.62,-59.75"/>
<text text-anchor="middle" x="455.12" y="-46.25" font-family="Helvetica,sans-Serif" font-size="10.00">CLEDController::setLeds</text>
</a>
</g>
</g>
<!-- Node2&#45;&gt;Node9 -->
<g id="edge7_Node000002_Node000009" class="edge">
<title>Node2&#45;&gt;Node9</title>
<g id="a_edge7_Node000002_Node000009"><a xlink:title=" ">
<path fill="none" stroke="#63b8ff" d="M297.66,-83.51C316.29,-78.65 338.71,-72.99 359,-68.38 367.76,-66.38 376.99,-64.4 386.13,-62.5"/>
<polygon fill="#63b8ff" stroke="#63b8ff" points="386.6,-65.98 395.7,-60.54 385.2,-59.12 386.6,-65.98"/>
</a>
</g>
</g>
<!-- Node10 -->
<g id="Node000010" class="node">
<title>Node10</title>
<g id="a_Node000010"><a xlink:href="../../dd/dbb/class_c_fast_l_e_d.html#a1f39e8404db214bbd6a776f52a77d8b1" target="_top" xlink:title="Set the maximum refresh rate.">
<polygon fill="white" stroke="#666666" points="536.62,-20.75 373.62,-20.75 373.62,0 536.62,0 536.62,-20.75"/>
<text text-anchor="middle" x="455.12" y="-7.25" font-family="Helvetica,sans-Serif" font-size="10.00">CFastLED::setMaxRefreshRate</text>
</a>
</g>
</g>
<!-- Node2&#45;&gt;Node10 -->
<g id="edge8_Node000002_Node000010" class="edge">
<title>Node2&#45;&gt;Node10</title>
<g id="a_edge8_Node000002_Node000010"><a xlink:title=" ">
<path fill="none" stroke="#63b8ff" d="M305.08,-83.51C311.38,-81.04 317.54,-78.03 323,-74.38 344,-60.32 337.41,-43.5 359,-30.38 361.93,-28.59 365,-26.97 368.16,-25.48"/>
<polygon fill="#63b8ff" stroke="#63b8ff" points="369.22,-28.83 377.14,-21.79 366.56,-22.36 369.22,-28.83"/>
</a>
</g>
</g>
<!-- Node6 -->
<g id="Node000006" class="node">
<title>Node6</title>
<g id="a_Node000006"><a xlink:href="../../de/dca/classfl_1_1_engine_events.html#a006e1f01b766436e0eec2e406b4512d5" target="_top" xlink:title=" ">
<polygon fill="white" stroke="#666666" points="715.75,-133.12 615.75,-133.12 615.75,-99.62 715.75,-99.62 715.75,-133.12"/>
<text text-anchor="start" x="623.75" y="-119.62" font-family="Helvetica,sans-Serif" font-size="10.00">fl::EngineEvents::</text>
<text text-anchor="middle" x="665.75" y="-106.88" font-family="Helvetica,sans-Serif" font-size="10.00">_onStripAdded</text>
</a>
</g>
</g>
<!-- Node5&#45;&gt;Node6 -->
<g id="edge5_Node000005_Node000006" class="edge">
<title>Node5&#45;&gt;Node6</title>
<g id="a_edge5_Node000005_Node000006"><a xlink:title=" ">
<path fill="none" stroke="#63b8ff" d="M522.71,-101.4C548.77,-104.14 578.46,-107.28 603.93,-109.96"/>
<polygon fill="#63b8ff" stroke="#63b8ff" points="603.5,-113.43 613.81,-111 604.23,-106.47 603.5,-113.43"/>
</a>
</g>
</g>
<!-- Node7 -->
<g id="Node000007" class="node">
<title>Node7</title>
<g id="a_Node000007"><a xlink:href="../../de/dca/classfl_1_1_engine_events.html#a34a4625c4fbcf754f70820bc4f0e418b" target="_top" xlink:title=" ">
<polygon fill="#fff0f0" stroke="red" points="744.25,-81.75 587.25,-81.75 587.25,-61 744.25,-61 744.25,-81.75"/>
<text text-anchor="middle" x="665.75" y="-68.25" font-family="Helvetica,sans-Serif" font-size="10.00">fl::EngineEvents::getInstance</text>
</a>
</g>
</g>
<!-- Node5&#45;&gt;Node7 -->
<g id="edge6_Node000005_Node000007" class="edge">
<title>Node5&#45;&gt;Node7</title>
<g id="a_edge6_Node000005_Node000007"><a xlink:title=" ">
<path fill="none" stroke="#63b8ff" d="M522.71,-87.03C539.52,-85.18 557.83,-83.16 575.56,-81.21"/>
<polygon fill="#63b8ff" stroke="#63b8ff" points="575.73,-84.71 585.29,-80.14 574.97,-77.75 575.73,-84.71"/>
</a>
</g>
</g>
</g>
</svg>
