<?xml version="1.0" encoding="UTF-8" standalone="no"?>
<!DOCTYPE svg PUBLIC "-//W3C//DTD SVG 1.1//EN"
 "http://www.w3.org/Graphics/SVG/1.1/DTD/svg11.dtd">
<!-- Generated by graphviz version 12.2.1 (20241206.2353)
 -->
<!-- Title: fl::Video::draw Pages: 1 -->
<svg width="216pt" height="68pt"
 viewBox="0.00 0.00 216.25 67.75" xmlns="http://www.w3.org/2000/svg" xmlns:xlink="http://www.w3.org/1999/xlink">
<g id="graph0" class="graph" transform="scale(1 1) rotate(0) translate(4 63.75)">
<title>fl::Video::draw</title>
<!-- Node1 -->
<g id="Node000001" class="node">
<title>Node1</title>
<g id="a_Node000001"><a xlink:title=" ">
<polygon fill="#999999" stroke="#666666" points="85.75,-39.75 0,-39.75 0,-19 85.75,-19 85.75,-39.75"/>
<text text-anchor="middle" x="42.88" y="-26.25" font-family="Helvetica,sans-Serif" font-size="10.00">fl::Video::draw</text>
</a>
</g>
</g>
<!-- Node2 -->
<g id="Node000002" class="node">
<title>Node2</title>
<g id="a_Node000002"><a xlink:href="../../dc/d96/classfl_1_1_str_n.html#a67296b774f8201293edbbabbd1b642cb" target="_top" xlink:title=" ">
<polygon fill="white" stroke="#666666" points="204.12,-59.75 125.88,-59.75 125.88,-39 204.12,-39 204.12,-59.75"/>
<text text-anchor="middle" x="165" y="-46.25" font-family="Helvetica,sans-Serif" font-size="10.00">fl::StrN::c_str</text>
</a>
</g>
</g>
<!-- Node1&#45;&gt;Node2 -->
<g id="edge1_Node000001_Node000002" class="edge">
<title>Node1&#45;&gt;Node2</title>
<g id="a_edge1_Node000001_Node000002"><a xlink:title=" ">
<path fill="none" stroke="#63b8ff" d="M86.23,-36.43C95.35,-37.95 105.07,-39.56 114.44,-41.12"/>
<polygon fill="#63b8ff" stroke="#63b8ff" points="113.7,-44.55 124.14,-42.74 114.85,-37.64 113.7,-44.55"/>
</a>
</g>
</g>
<!-- Node3 -->
<g id="Node000003" class="node">
<title>Node3</title>
<g id="a_Node000003"><a xlink:href="../../dc/d96/classfl_1_1_str_n.html#a1e1d92d46d9311b6cb1fc94170bc8d6b" target="_top" xlink:title=" ">
<polygon fill="white" stroke="#666666" points="208.25,-20.75 121.75,-20.75 121.75,0 208.25,0 208.25,-20.75"/>
<text text-anchor="middle" x="165" y="-7.25" font-family="Helvetica,sans-Serif" font-size="10.00">fl::StrN::empty</text>
</a>
</g>
</g>
<!-- Node1&#45;&gt;Node3 -->
<g id="edge2_Node000001_Node000003" class="edge">
<title>Node1&#45;&gt;Node3</title>
<g id="a_edge2_Node000001_Node000003"><a xlink:title=" ">
<path fill="none" stroke="#63b8ff" d="M86.23,-22.68C94.03,-21.44 102.27,-20.14 110.36,-18.86"/>
<polygon fill="#63b8ff" stroke="#63b8ff" points="110.8,-22.33 120.13,-17.31 109.71,-15.42 110.8,-22.33"/>
</a>
</g>
</g>
</g>
</svg>
