<?xml version="1.0" encoding="UTF-8" standalone="no"?>
<!DOCTYPE svg PUBLIC "-//W3C//DTD SVG 1.1//EN"
 "http://www.w3.org/Graphics/SVG/1.1/DTD/svg11.dtd">
<!-- Generated by graphviz version 12.2.1 (20241206.2353)
 -->
<!-- Title: /home/runner/work/FastLED/FastLED/src/fl/map.h Pages: 1 -->
<svg width="715pt" height="269pt"
 viewBox="0.00 0.00 715.45 268.50" xmlns="http://www.w3.org/2000/svg" xmlns:xlink="http://www.w3.org/1999/xlink">
<g id="graph0" class="graph" transform="scale(1 1) rotate(0) translate(4 264.5)">
<title>/home/runner/work/FastLED/FastLED/src/fl/map.h</title>
<!-- Node1 -->
<g id="Node000001" class="node">
<title>Node1</title>
<g id="a_Node000001"><a xlink:title=" ">
<polygon fill="#999999" stroke="#666666" points="447.2,-260.5 297.7,-260.5 297.7,-227 447.2,-227 447.2,-260.5"/>
<text text-anchor="start" x="305.7" y="-247" font-family="Helvetica,sans-Serif" font-size="10.00">/home/runner/work/FastLED</text>
<text text-anchor="middle" x="372.45" y="-234.25" font-family="Helvetica,sans-Serif" font-size="10.00">/FastLED/src/fl/map.h</text>
</a>
</g>
</g>
<!-- Node2 -->
<g id="Node000002" class="node">
<title>Node2</title>
<g id="a_Node000002"><a xlink:title=" ">
<polygon fill="#e0e0e0" stroke="#999999" points="101.82,-134.25 49.07,-134.25 49.07,-113.5 101.82,-113.5 101.82,-134.25"/>
<text text-anchor="middle" x="75.45" y="-120.75" font-family="Helvetica,sans-Serif" font-size="10.00">stdint.h</text>
</a>
</g>
</g>
<!-- Node1&#45;&gt;Node2 -->
<g id="edge1_Node000001_Node000002" class="edge">
<title>Node1&#45;&gt;Node2</title>
<g id="a_edge1_Node000001_Node000002"><a xlink:title=" ">
<path fill="none" stroke="#63b8ff" d="M331.77,-226.61C273.21,-203.37 166.12,-160.86 110.72,-138.88"/>
<polygon fill="#63b8ff" stroke="#63b8ff" points="112.03,-135.63 101.45,-135.19 109.45,-142.14 112.03,-135.63"/>
</a>
</g>
</g>
<!-- Node3 -->
<g id="Node000003" class="node">
<title>Node3</title>
<g id="a_Node000003"><a xlink:title=" ">
<polygon fill="#e0e0e0" stroke="#999999" points="396.95,-77.5 341.95,-77.5 341.95,-56.75 396.95,-56.75 396.95,-77.5"/>
<text text-anchor="middle" x="369.45" y="-64" font-family="Helvetica,sans-Serif" font-size="10.00">stddef.h</text>
</a>
</g>
</g>
<!-- Node1&#45;&gt;Node3 -->
<g id="edge2_Node000001_Node000003" class="edge">
<title>Node1&#45;&gt;Node3</title>
<g id="a_edge2_Node000001_Node000003"><a xlink:title=" ">
<path fill="none" stroke="#63b8ff" d="M410.34,-226.63C458.85,-203.64 532.96,-159.17 500.45,-113.5 479.71,-84.38 438.94,-73.77 408.36,-70"/>
<polygon fill="#63b8ff" stroke="#63b8ff" points="409.02,-66.55 398.71,-69.02 408.31,-73.52 409.02,-66.55"/>
</a>
</g>
</g>
<!-- Node4 -->
<g id="Node000004" class="node">
<title>Node4</title>
<g id="a_Node000004"><a xlink:href="../../df/d2a/namespace_8h.html" target="_top" xlink:title="Implements the FastLED namespace macros.">
<polygon fill="white" stroke="#666666" points="120.57,-77.5 30.32,-77.5 30.32,-56.75 120.57,-56.75 120.57,-77.5"/>
<text text-anchor="middle" x="75.45" y="-64" font-family="Helvetica,sans-Serif" font-size="10.00">fl/namespace.h</text>
</a>
</g>
</g>
<!-- Node1&#45;&gt;Node4 -->
<g id="edge3_Node000001_Node000004" class="edge">
<title>Node1&#45;&gt;Node4</title>
<g id="a_edge3_Node000001_Node000004"><a xlink:title=" ">
<path fill="none" stroke="#63b8ff" d="M297.38,-243.12C202.17,-241.81 45.95,-233.07 9.45,-191 -19.19,-157.99 25.35,-110.46 54.12,-85.28"/>
<polygon fill="#63b8ff" stroke="#63b8ff" points="56.27,-88.05 61.64,-78.92 51.75,-82.71 56.27,-88.05"/>
</a>
</g>
</g>
<!-- Node5 -->
<g id="Node000005" class="node">
<title>Node5</title>
<g id="a_Node000005"><a xlink:href="../../d6/d68/vector_8h.html" target="_top" xlink:title=" ">
<polygon fill="white" stroke="#666666" points="333.45,-191 269.45,-191 269.45,-170.25 333.45,-170.25 333.45,-191"/>
<text text-anchor="middle" x="301.45" y="-177.5" font-family="Helvetica,sans-Serif" font-size="10.00">fl/vector.h</text>
</a>
</g>
</g>
<!-- Node1&#45;&gt;Node5 -->
<g id="edge4_Node000001_Node000005" class="edge">
<title>Node1&#45;&gt;Node5</title>
<g id="a_edge4_Node000001_Node000005"><a xlink:title=" ">
<path fill="none" stroke="#63b8ff" d="M353.79,-226.69C343.85,-218.13 331.62,-207.6 321.48,-198.87"/>
<polygon fill="#63b8ff" stroke="#63b8ff" points="323.89,-196.33 314.03,-192.45 319.32,-201.63 323.89,-196.33"/>
</a>
</g>
</g>
<!-- Node8 -->
<g id="Node000008" class="node">
<title>Node8</title>
<g id="a_Node000008"><a xlink:href="../../d1/d22/insert__result_8h.html" target="_top" xlink:title=" ">
<polygon fill="white" stroke="#666666" points="491.82,-134.25 397.07,-134.25 397.07,-113.5 491.82,-113.5 491.82,-134.25"/>
<text text-anchor="middle" x="444.45" y="-120.75" font-family="Helvetica,sans-Serif" font-size="10.00">fl/insert_result.h</text>
</a>
</g>
</g>
<!-- Node1&#45;&gt;Node8 -->
<g id="edge16_Node000001_Node000008" class="edge">
<title>Node1&#45;&gt;Node8</title>
<g id="a_edge16_Node000001_Node000008"><a xlink:title=" ">
<path fill="none" stroke="#63b8ff" d="M382.16,-226.85C395.21,-205.48 418.41,-167.5 432.52,-144.41"/>
<polygon fill="#63b8ff" stroke="#63b8ff" points="435.44,-146.33 437.67,-135.97 429.47,-142.68 435.44,-146.33"/>
</a>
</g>
</g>
<!-- Node9 -->
<g id="Node000009" class="node">
<title>Node9</title>
<g id="a_Node000009"><a xlink:href="../../d8/d0c/template__magic_8h.html" target="_top" xlink:title=" ">
<polygon fill="white" stroke="#666666" points="132.2,-191 18.7,-191 18.7,-170.25 132.2,-170.25 132.2,-191"/>
<text text-anchor="middle" x="75.45" y="-177.5" font-family="Helvetica,sans-Serif" font-size="10.00">fl/template_magic.h</text>
</a>
</g>
</g>
<!-- Node1&#45;&gt;Node9 -->
<g id="edge13_Node000001_Node000009" class="edge">
<title>Node1&#45;&gt;Node9</title>
<g id="a_edge13_Node000001_Node000009"><a xlink:title=" ">
<path fill="none" stroke="#63b8ff" d="M297.5,-227.33C247.02,-216.94 181.36,-203.42 134.56,-193.79"/>
<polygon fill="#63b8ff" stroke="#63b8ff" points="135.37,-190.39 124.87,-191.8 133.96,-197.24 135.37,-190.39"/>
</a>
</g>
</g>
<!-- Node10 -->
<g id="Node000010" class="node">
<title>Node10</title>
<g id="a_Node000010"><a xlink:href="../../d3/d41/pair_8h.html" target="_top" xlink:title=" ">
<polygon fill="white" stroke="#666666" points="599.45,-191 547.45,-191 547.45,-170.25 599.45,-170.25 599.45,-191"/>
<text text-anchor="middle" x="573.45" y="-177.5" font-family="Helvetica,sans-Serif" font-size="10.00">fl/pair.h</text>
</a>
</g>
</g>
<!-- Node1&#45;&gt;Node10 -->
<g id="edge17_Node000001_Node000010" class="edge">
<title>Node1&#45;&gt;Node10</title>
<g id="a_edge17_Node000001_Node000010"><a xlink:title=" ">
<path fill="none" stroke="#63b8ff" d="M425.78,-226.53C460.59,-215.95 505.15,-202.39 536.17,-192.96"/>
<polygon fill="#63b8ff" stroke="#63b8ff" points="536.95,-196.38 545.5,-190.12 534.92,-189.68 536.95,-196.38"/>
</a>
</g>
</g>
<!-- Node11 -->
<g id="Node000011" class="node">
<title>Node11</title>
<g id="a_Node000011"><a xlink:href="../../dc/da7/assert_8h.html" target="_top" xlink:title=" ">
<polygon fill="white" stroke="#666666" points="681.45,-191 617.45,-191 617.45,-170.25 681.45,-170.25 681.45,-191"/>
<text text-anchor="middle" x="649.45" y="-177.5" font-family="Helvetica,sans-Serif" font-size="10.00">fl/assert.h</text>
</a>
</g>
</g>
<!-- Node1&#45;&gt;Node11 -->
<g id="edge18_Node000001_Node000011" class="edge">
<title>Node1&#45;&gt;Node11</title>
<g id="a_edge18_Node000001_Node000011"><a xlink:title=" ">
<path fill="none" stroke="#63b8ff" d="M447.15,-226.55C490.87,-217.02 547.43,-204.63 606.22,-191.48"/>
<polygon fill="#63b8ff" stroke="#63b8ff" points="606.75,-194.95 615.75,-189.35 605.22,-188.12 606.75,-194.95"/>
</a>
</g>
</g>
<!-- Node5&#45;&gt;Node2 -->
<g id="edge5_Node000005_Node000002" class="edge">
<title>Node5&#45;&gt;Node2</title>
<g id="a_edge5_Node000005_Node000002"><a xlink:title=" ">
<path fill="none" stroke="#63b8ff" d="M269.07,-171.78C227.84,-161.79 156.72,-144.57 113.11,-134"/>
<polygon fill="#63b8ff" stroke="#63b8ff" points="114.13,-130.65 103.59,-131.69 112.49,-137.45 114.13,-130.65"/>
</a>
</g>
</g>
<!-- Node5&#45;&gt;Node3 -->
<g id="edge6_Node000005_Node000003" class="edge">
<title>Node5&#45;&gt;Node3</title>
<g id="a_edge6_Node000005_Node000003"><a xlink:title=" ">
<path fill="none" stroke="#63b8ff" d="M315.45,-170.01C326.48,-161.75 341.45,-148.86 350.45,-134.25 358.98,-120.39 363.81,-102.55 366.47,-88.89"/>
<polygon fill="#63b8ff" stroke="#63b8ff" points="369.88,-89.69 368.08,-79.25 362.98,-88.53 369.88,-89.69"/>
</a>
</g>
</g>
<!-- Node5&#45;&gt;Node4 -->
<g id="edge8_Node000005_Node000004" class="edge">
<title>Node5&#45;&gt;Node4</title>
<g id="a_edge8_Node000005_Node000004"><a xlink:title=" ">
<path fill="none" stroke="#63b8ff" d="M269.04,-174.38C236.88,-168.19 186.97,-155.91 148.45,-134.25 125.98,-121.62 104.66,-100.94 90.93,-86.07"/>
<polygon fill="#63b8ff" stroke="#63b8ff" points="93.71,-83.92 84.43,-78.81 88.49,-88.59 93.71,-83.92"/>
</a>
</g>
</g>
<!-- Node6 -->
<g id="Node000006" class="node">
<title>Node6</title>
<g id="a_Node000006"><a xlink:href="../../db/d36/inplacenew_8h.html" target="_top" xlink:title=" ">
<polygon fill="white" stroke="#666666" points="341.32,-134.25 261.57,-134.25 261.57,-113.5 341.32,-113.5 341.32,-134.25"/>
<text text-anchor="middle" x="301.45" y="-120.75" font-family="Helvetica,sans-Serif" font-size="10.00">inplacenew.h</text>
</a>
</g>
</g>
<!-- Node5&#45;&gt;Node6 -->
<g id="edge7_Node000005_Node000006" class="edge">
<title>Node5&#45;&gt;Node6</title>
<g id="a_edge7_Node000005_Node000006"><a xlink:title=" ">
<path fill="none" stroke="#63b8ff" d="M301.45,-169.84C301.45,-163.22 301.45,-154.22 301.45,-146.02"/>
<polygon fill="#63b8ff" stroke="#63b8ff" points="304.95,-146.09 301.45,-136.09 297.95,-146.09 304.95,-146.09"/>
</a>
</g>
</g>
<!-- Node7 -->
<g id="Node000007" class="node">
<title>Node7</title>
<g id="a_Node000007"><a xlink:href="../../df/d28/fl_2scoped__ptr_8h.html" target="_top" xlink:title=" ">
<polygon fill="white" stroke="#666666" points="243.7,-134.25 157.2,-134.25 157.2,-113.5 243.7,-113.5 243.7,-134.25"/>
<text text-anchor="middle" x="200.45" y="-120.75" font-family="Helvetica,sans-Serif" font-size="10.00">fl/scoped_ptr.h</text>
</a>
</g>
</g>
<!-- Node5&#45;&gt;Node7 -->
<g id="edge9_Node000005_Node000007" class="edge">
<title>Node5&#45;&gt;Node7</title>
<g id="a_edge9_Node000005_Node000007"><a xlink:title=" ">
<path fill="none" stroke="#63b8ff" d="M283.39,-169.84C268.02,-161.51 245.7,-149.41 228.09,-139.86"/>
<polygon fill="#63b8ff" stroke="#63b8ff" points="230.14,-136.99 219.68,-135.3 226.8,-143.14 230.14,-136.99"/>
</a>
</g>
</g>
<!-- Node5&#45;&gt;Node8 -->
<g id="edge12_Node000005_Node000008" class="edge">
<title>Node5&#45;&gt;Node8</title>
<g id="a_edge12_Node000005_Node000008"><a xlink:title=" ">
<path fill="none" stroke="#63b8ff" d="M327.01,-169.84C349.69,-161.16 383.05,-148.38 408.42,-138.67"/>
<polygon fill="#63b8ff" stroke="#63b8ff" points="409.6,-141.96 417.69,-135.12 407.1,-135.43 409.6,-141.96"/>
</a>
</g>
</g>
<!-- Node7&#45;&gt;Node3 -->
<g id="edge10_Node000007_Node000003" class="edge">
<title>Node7&#45;&gt;Node3</title>
<g id="a_edge10_Node000007_Node000003"><a xlink:title=" ">
<path fill="none" stroke="#63b8ff" d="M230.66,-113.09C258.65,-104.02 300.42,-90.49 330.82,-80.64"/>
<polygon fill="#63b8ff" stroke="#63b8ff" points="331.58,-84.07 340.02,-77.66 329.43,-77.41 331.58,-84.07"/>
</a>
</g>
</g>
<!-- Node7&#45;&gt;Node4 -->
<g id="edge11_Node000007_Node000004" class="edge">
<title>Node7&#45;&gt;Node4</title>
<g id="a_edge11_Node000007_Node000004"><a xlink:title=" ">
<path fill="none" stroke="#63b8ff" d="M178.1,-113.09C158.63,-104.56 130.16,-92.09 108.14,-82.44"/>
<polygon fill="#63b8ff" stroke="#63b8ff" points="109.55,-79.24 98.99,-78.44 106.74,-85.65 109.55,-79.24"/>
</a>
</g>
</g>
<!-- Node9&#45;&gt;Node2 -->
<g id="edge14_Node000009_Node000002" class="edge">
<title>Node9&#45;&gt;Node2</title>
<g id="a_edge14_Node000009_Node000002"><a xlink:title=" ">
<path fill="none" stroke="#63b8ff" d="M75.45,-169.84C75.45,-163.22 75.45,-154.22 75.45,-146.02"/>
<polygon fill="#63b8ff" stroke="#63b8ff" points="78.95,-146.09 75.45,-136.09 71.95,-146.09 78.95,-146.09"/>
</a>
</g>
</g>
<!-- Node9&#45;&gt;Node4 -->
<g id="edge15_Node000009_Node000004" class="edge">
<title>Node9&#45;&gt;Node4</title>
<g id="a_edge15_Node000009_Node000004"><a xlink:title=" ">
<path fill="none" stroke="#63b8ff" d="M64.89,-169.99C56.45,-161.53 45.26,-148.38 40.45,-134.25 34.59,-117.07 45.56,-98.94 56.73,-86.02"/>
<polygon fill="#63b8ff" stroke="#63b8ff" points="58.95,-88.77 63.25,-79.08 53.85,-83.97 58.95,-88.77"/>
</a>
</g>
</g>
<!-- Node12 -->
<g id="Node000012" class="node">
<title>Node12</title>
<g id="a_Node000012"><a xlink:href="../../de/d77/warn_8h.html" target="_top" xlink:title=" ">
<polygon fill="white" stroke="#666666" points="707.45,-134.25 649.45,-134.25 649.45,-113.5 707.45,-113.5 707.45,-134.25"/>
<text text-anchor="middle" x="678.45" y="-120.75" font-family="Helvetica,sans-Serif" font-size="10.00">fl/warn.h</text>
</a>
</g>
</g>
<!-- Node11&#45;&gt;Node12 -->
<g id="edge19_Node000011_Node000012" class="edge">
<title>Node11&#45;&gt;Node12</title>
<g id="a_edge19_Node000011_Node000012"><a xlink:title=" ">
<path fill="none" stroke="#63b8ff" d="M654.63,-169.84C658.34,-162.83 663.47,-153.16 668.01,-144.58"/>
<polygon fill="#63b8ff" stroke="#63b8ff" points="671.01,-146.39 672.6,-135.92 664.82,-143.11 671.01,-146.39"/>
</a>
</g>
</g>
<!-- Node14 -->
<g id="Node000014" class="node">
<title>Node14</title>
<g id="a_Node000014"><a xlink:href="../../d8/d00/strstream_8h.html" target="_top" xlink:title=" ">
<polygon fill="#fff0f0" stroke="red" points="689.07,-20.75 607.82,-20.75 607.82,0 689.07,0 689.07,-20.75"/>
<text text-anchor="middle" x="648.45" y="-7.25" font-family="Helvetica,sans-Serif" font-size="10.00">fl/strstream.h</text>
</a>
</g>
</g>
<!-- Node11&#45;&gt;Node14 -->
<g id="edge22_Node000011_Node000014" class="edge">
<title>Node11&#45;&gt;Node14</title>
<g id="a_edge22_Node000011_Node000014"><a xlink:title=" ">
<path fill="none" stroke="#63b8ff" d="M646.96,-169.97C644.75,-160.84 641.67,-146.72 640.45,-134.25 639.15,-121.1 639.41,-80.57 641.45,-56.75 642.13,-48.72 643.37,-39.95 644.62,-32.28"/>
<polygon fill="#63b8ff" stroke="#63b8ff" points="648.04,-33.01 646.3,-22.56 641.14,-31.81 648.04,-33.01"/>
</a>
</g>
</g>
<!-- Node13 -->
<g id="Node000013" class="node">
<title>Node13</title>
<g id="a_Node000013"><a xlink:href="../../d6/d01/dbg_8h.html" target="_top" xlink:title=" ">
<polygon fill="white" stroke="#666666" points="702.45,-77.5 650.45,-77.5 650.45,-56.75 702.45,-56.75 702.45,-77.5"/>
<text text-anchor="middle" x="676.45" y="-64" font-family="Helvetica,sans-Serif" font-size="10.00">fl/dbg.h</text>
</a>
</g>
</g>
<!-- Node12&#45;&gt;Node13 -->
<g id="edge20_Node000012_Node000013" class="edge">
<title>Node12&#45;&gt;Node13</title>
<g id="a_edge20_Node000012_Node000013"><a xlink:title=" ">
<path fill="none" stroke="#63b8ff" d="M678.09,-113.09C677.85,-106.47 677.52,-97.47 677.22,-89.27"/>
<polygon fill="#63b8ff" stroke="#63b8ff" points="680.72,-89.21 676.86,-79.34 673.72,-89.46 680.72,-89.21"/>
</a>
</g>
</g>
<!-- Node13&#45;&gt;Node14 -->
<g id="edge21_Node000013_Node000014" class="edge">
<title>Node13&#45;&gt;Node14</title>
<g id="a_edge21_Node000013_Node000014"><a xlink:title=" ">
<path fill="none" stroke="#63b8ff" d="M671.44,-56.34C667.86,-49.33 662.91,-39.66 658.52,-31.08"/>
<polygon fill="#63b8ff" stroke="#63b8ff" points="661.77,-29.74 654.1,-22.43 655.54,-32.92 661.77,-29.74"/>
</a>
</g>
</g>
</g>
</svg>
