<?xml version="1.0" encoding="UTF-8" standalone="no"?>
<!DOCTYPE svg PUBLIC "-//W3C//DTD SVG 1.1//EN"
 "http://www.w3.org/Graphics/SVG/1.1/DTD/svg11.dtd">
<!-- Generated by graphviz version 12.2.1 (20241206.2353)
 -->
<!-- Title: LPD1886_8BIT&lt; DATA_PIN, RGB_ORDER &gt; Pages: 1 -->
<svg width="880pt" height="125pt"
 viewBox="0.00 0.00 880.25 124.62" xmlns="http://www.w3.org/2000/svg" xmlns:xlink="http://www.w3.org/1999/xlink">
<g id="graph0" class="graph" transform="scale(1 1) rotate(0) translate(4 120.62)">
<title>LPD1886_8BIT&lt; DATA_PIN, RGB_ORDER &gt;</title>
<!-- Node1 -->
<g id="Node000001" class="node">
<title>Node1</title>
<g id="a_Node000001"><a xlink:title="LPD1886_8BIT controller class.">
<polygon fill="#999999" stroke="#666666" points="872.25,-71.88 749.75,-71.88 749.75,-38.38 872.25,-38.38 872.25,-71.88"/>
<text text-anchor="start" x="757.75" y="-58.38" font-family="Helvetica,sans-Serif" font-size="10.00">LPD1886_8BIT&lt; DATA</text>
<text text-anchor="middle" x="811" y="-45.62" font-family="Helvetica,sans-Serif" font-size="10.00">_PIN, RGB_ORDER &gt;</text>
</a>
</g>
</g>
<!-- Node2 -->
<g id="Node000002" class="node">
<title>Node2</title>
<g id="a_Node000002"><a xlink:href="../../d7/d6f/group___clockless_chipsets.html" target="_top" xlink:title=" ">
<polygon fill="white" stroke="#666666" points="712.75,-71.88 536.25,-71.88 536.25,-38.38 712.75,-38.38 712.75,-71.88"/>
<text text-anchor="start" x="544.25" y="-58.38" font-family="Helvetica,sans-Serif" font-size="10.00">LPD1886Controller1250Khz</text>
<text text-anchor="middle" x="624.5" y="-45.62" font-family="Helvetica,sans-Serif" font-size="10.00">_8bit&lt; DATA_PIN, RGB_ORDER &gt;</text>
</a>
</g>
</g>
<!-- Node2&#45;&gt;Node1 -->
<g id="edge1_Node000001_Node000002" class="edge">
<title>Node2&#45;&gt;Node1</title>
<g id="a_edge1_Node000001_Node000002"><a xlink:title=" ">
<path fill="none" stroke="#63b8ff" d="M724.67,-55.12C733.09,-55.12 741.44,-55.12 749.43,-55.12"/>
<polygon fill="#63b8ff" stroke="#63b8ff" points="724.67,-51.63 714.67,-55.13 724.67,-58.63 724.67,-51.63"/>
</a>
</g>
</g>
<!-- Node3 -->
<g id="Node000003" class="node">
<title>Node3</title>
<g id="a_Node000003"><a xlink:title=" ">
<polygon fill="white" stroke="#666666" points="340.5,-116.62 204.5,-116.62 204.5,-57.62 340.5,-57.62 340.5,-116.62"/>
<text text-anchor="start" x="212.5" y="-103.12" font-family="Helvetica,sans-Serif" font-size="10.00">ClocklessController</text>
<text text-anchor="start" x="212.5" y="-90.38" font-family="Helvetica,sans-Serif" font-size="10.00">&lt; DATA_PIN, 2 *FMUL,</text>
<text text-anchor="start" x="212.5" y="-77.62" font-family="Helvetica,sans-Serif" font-size="10.00"> 3 *FMUL, 2 *FMUL, RGB</text>
<text text-anchor="middle" x="272.5" y="-64.88" font-family="Helvetica,sans-Serif" font-size="10.00">_ORDER &gt;</text>
</a>
</g>
</g>
<!-- Node3&#45;&gt;Node2 -->
<g id="edge2_Node000002_Node000003" class="edge">
<title>Node3&#45;&gt;Node2</title>
<g id="a_edge2_Node000002_Node000003"><a xlink:title=" ">
<path fill="none" stroke="#63b8ff" d="M352.34,-79.92C406.93,-74.93 479.61,-68.28 535.98,-63.13"/>
<polygon fill="#63b8ff" stroke="#63b8ff" points="352.13,-76.42 342.49,-80.82 352.77,-83.39 352.13,-76.42"/>
</a>
</g>
</g>
<!-- Node4 -->
<g id="Node000004" class="node">
<title>Node4</title>
<g id="a_Node000004"><a xlink:href="../../d7/d6f/group___clockless_chipsets.html#db/df7/class_l_p_d1886_controller1250_khz__8bit" target="_top" xlink:title="LPD1886 controller class.">
<polygon fill="white" stroke="#666666" points="360.75,-39.88 184.25,-39.88 184.25,-6.38 360.75,-6.38 360.75,-39.88"/>
<text text-anchor="start" x="192.25" y="-26.38" font-family="Helvetica,sans-Serif" font-size="10.00">LPD1886Controller1250Khz</text>
<text text-anchor="middle" x="272.5" y="-13.62" font-family="Helvetica,sans-Serif" font-size="10.00">_8bit&lt; DATA_PIN, RGB_ORDER &gt;</text>
</a>
</g>
</g>
<!-- Node4&#45;&gt;Node2 -->
<g id="edge3_Node000002_Node000004" class="edge">
<title>Node4&#45;&gt;Node2</title>
<g id="a_edge3_Node000002_Node000004"><a xlink:title=" ">
<path fill="none" stroke="orange" stroke-dasharray="5,2" d="M372.08,-32.14C423.62,-36.85 486.17,-42.57 535.98,-47.12"/>
<polygon fill="orange" stroke="orange" points="372.7,-28.68 362.42,-31.26 372.06,-35.65 372.7,-28.68"/>
</a>
</g>
<text text-anchor="middle" x="448.5" y="-48.02" font-family="Helvetica,sans-Serif" font-size="10.00" fill="grey"> &lt; DATA_PIN, RGB_ORDER &gt;</text>
</g>
<!-- Node5 -->
<g id="Node000005" class="node">
<title>Node5</title>
<g id="a_Node000005"><a xlink:title=" ">
<polygon fill="white" stroke="#666666" points="147.25,-46.25 0,-46.25 0,0 147.25,0 147.25,-46.25"/>
<text text-anchor="start" x="8" y="-32.75" font-family="Helvetica,sans-Serif" font-size="10.00">ClocklessController</text>
<text text-anchor="start" x="8" y="-20" font-family="Helvetica,sans-Serif" font-size="10.00">&lt; DATA_PIN, 2 *FMUL,</text>
<text text-anchor="middle" x="73.62" y="-7.25" font-family="Helvetica,sans-Serif" font-size="10.00"> 3 *FMUL, 2 *FMUL, RGB &gt;</text>
</a>
</g>
</g>
<!-- Node5&#45;&gt;Node4 -->
<g id="edge4_Node000004_Node000005" class="edge">
<title>Node5&#45;&gt;Node4</title>
<g id="a_edge4_Node000004_Node000005"><a xlink:title=" ">
<path fill="none" stroke="#63b8ff" d="M159.15,-23.12C167.36,-23.12 175.7,-23.12 183.94,-23.12"/>
<polygon fill="#63b8ff" stroke="#63b8ff" points="159.17,-19.63 149.17,-23.13 159.17,-26.63 159.17,-19.63"/>
</a>
</g>
</g>
</g>
</svg>
