<?xml version="1.0" encoding="UTF-8" standalone="no"?>
<!DOCTYPE svg PUBLIC "-//W3C//DTD SVG 1.1//EN"
 "http://www.w3.org/Graphics/SVG/1.1/DTD/svg11.dtd">
<!-- Generated by graphviz version 12.2.1 (20241206.2353)
 -->
<!-- Title: SelectColor Pages: 1 -->
<svg width="226pt" height="68pt"
 viewBox="0.00 0.00 226.00 67.75" xmlns="http://www.w3.org/2000/svg" xmlns:xlink="http://www.w3.org/1999/xlink">
<g id="graph0" class="graph" transform="scale(1 1) rotate(0) translate(4 63.75)">
<title>SelectColor</title>
<!-- Node1 -->
<g id="Node000001" class="node">
<title>Node1</title>
<g id="a_Node000001"><a xlink:title=" ">
<polygon fill="#999999" stroke="#666666" points="71.5,-39.75 0,-39.75 0,-19 71.5,-19 71.5,-39.75"/>
<text text-anchor="middle" x="35.75" y="-26.25" font-family="Helvetica,sans-Serif" font-size="10.00">SelectColor</text>
</a>
</g>
</g>
<!-- Node2 -->
<g id="Node000002" class="node">
<title>Node2</title>
<g id="a_Node000002"><a xlink:href="../../df/d2d/util_8cpp.html#a2929e37e7d771233ea4c11b572b34f63" target="_top" xlink:title=" ">
<polygon fill="white" stroke="#666666" points="214.25,-59.75 111.25,-59.75 111.25,-39 214.25,-39 214.25,-59.75"/>
<text text-anchor="middle" x="162.75" y="-46.25" font-family="Helvetica,sans-Serif" font-size="10.00">FundamentalNote</text>
</a>
</g>
</g>
<!-- Node1&#45;&gt;Node2 -->
<g id="edge1_Node000001_Node000002" class="edge">
<title>Node1&#45;&gt;Node2</title>
<g id="a_edge1_Node000001_Node000002"><a xlink:title=" ">
<path fill="none" stroke="#63b8ff" d="M71.9,-35C80.62,-36.39 90.23,-37.93 99.81,-39.46"/>
<polygon fill="#63b8ff" stroke="#63b8ff" points="99.08,-42.89 109.51,-41.02 100.19,-35.98 99.08,-42.89"/>
</a>
</g>
</g>
<!-- Node3 -->
<g id="Node000003" class="node">
<title>Node3</title>
<g id="a_Node000003"><a xlink:href="../../d4/df0/color__mapper_8cpp.html#a4a61d57f48dcaf2ba4bcd9ed95deafdc" target="_top" xlink:title=" ">
<polygon fill="white" stroke="#666666" points="218,-20.75 107.5,-20.75 107.5,0 218,0 218,-20.75"/>
<text text-anchor="middle" x="162.75" y="-7.25" font-family="Helvetica,sans-Serif" font-size="10.00">SelectColorScheme</text>
</a>
</g>
</g>
<!-- Node1&#45;&gt;Node3 -->
<g id="edge2_Node000001_Node000003" class="edge">
<title>Node1&#45;&gt;Node3</title>
<g id="a_edge2_Node000001_Node000003"><a xlink:title=" ">
<path fill="none" stroke="#63b8ff" d="M71.9,-24.03C79.45,-22.88 87.66,-21.64 95.94,-20.38"/>
<polygon fill="#63b8ff" stroke="#63b8ff" points="96.38,-23.85 105.74,-18.89 95.33,-16.93 96.38,-23.85"/>
</a>
</g>
</g>
</g>
</svg>
