<?xml version="1.0" encoding="UTF-8" standalone="no"?>
<!DOCTYPE svg PUBLIC "-//W3C//DTD SVG 1.1//EN"
 "http://www.w3.org/Graphics/SVG/1.1/DTD/svg11.dtd">
<!-- Generated by graphviz version 12.2.1 (20241206.2353)
 -->
<!-- Title: qmul8 Pages: 1 -->
<svg width="195pt" height="68pt"
 viewBox="0.00 0.00 195.25 67.75" xmlns="http://www.w3.org/2000/svg" xmlns:xlink="http://www.w3.org/1999/xlink">
<g id="graph0" class="graph" transform="scale(1 1) rotate(0) translate(4 63.75)">
<title>qmul8</title>
<!-- Node1 -->
<g id="Node000001" class="node">
<title>Node1</title>
<g id="a_Node000001"><a xlink:title="8x8 bit multiplication with 8&#45;bit result, saturating at 0xFF.">
<polygon fill="#999999" stroke="#666666" points="187.25,-39.75 140.5,-39.75 140.5,-19 187.25,-19 187.25,-39.75"/>
<text text-anchor="middle" x="163.88" y="-26.25" font-family="Helvetica,sans-Serif" font-size="10.00">qmul8</text>
</a>
</g>
</g>
<!-- Node2 -->
<g id="Node000002" class="node">
<title>Node2</title>
<g id="a_Node000002"><a xlink:href="../../db/d87/group___pixel_types.html#gaeda6b694068cd82be2563b7c748d26e9" target="_top" xlink:title="Multiply each of the channels by a constant, saturating each channel at 0xFF.">
<polygon fill="white" stroke="#666666" points="83.5,-59.75 21,-59.75 21,-39 83.5,-39 83.5,-59.75"/>
<text text-anchor="middle" x="52.25" y="-46.25" font-family="Helvetica,sans-Serif" font-size="10.00">operator*</text>
</a>
</g>
</g>
<!-- Node1&#45;&gt;Node2 -->
<g id="edge1_Node000001_Node000002" class="edge">
<title>Node1&#45;&gt;Node2</title>
<g id="a_edge1_Node000001_Node000002"><a xlink:title=" ">
<path fill="none" stroke="#63b8ff" d="M129.16,-35.53C114.7,-38.16 97.93,-41.22 83.84,-43.79"/>
<polygon fill="#63b8ff" stroke="#63b8ff" points="129.46,-39.03 138.67,-33.79 128.21,-32.14 129.46,-39.03"/>
</a>
</g>
</g>
<!-- Node3 -->
<g id="Node000003" class="node">
<title>Node3</title>
<g id="a_Node000003"><a xlink:href="../../db/d87/group___pixel_types.html#aba784833e0a2b040a696273b7dc0fe93" target="_top" xlink:title="Multiply each of the channels by a constant, saturating each channel at 0xFF.">
<polygon fill="white" stroke="#666666" points="104.5,-20.75 0,-20.75 0,0 104.5,0 104.5,-20.75"/>
<text text-anchor="middle" x="52.25" y="-7.25" font-family="Helvetica,sans-Serif" font-size="10.00">CRGB::operator*=</text>
</a>
</g>
</g>
<!-- Node1&#45;&gt;Node3 -->
<g id="edge2_Node000001_Node000003" class="edge">
<title>Node1&#45;&gt;Node3</title>
<g id="a_edge2_Node000001_Node000003"><a xlink:title=" ">
<path fill="none" stroke="#63b8ff" d="M128.83,-23.47C121.23,-22.16 113,-20.73 104.87,-19.32"/>
<polygon fill="#63b8ff" stroke="#63b8ff" points="128.22,-26.92 138.67,-25.18 129.41,-20.02 128.22,-26.92"/>
</a>
</g>
</g>
</g>
</svg>
