<?xml version="1.0" encoding="UTF-8" standalone="no"?>
<!DOCTYPE svg PUBLIC "-//W3C//DTD SVG 1.1//EN"
 "http://www.w3.org/Graphics/SVG/1.1/DTD/svg11.dtd">
<!-- Generated by graphviz version 12.2.1 (20241206.2353)
 -->
<!-- Title: addmod8 Pages: 1 -->
<svg width="430pt" height="149pt"
 viewBox="0.00 0.00 429.50 148.75" xmlns="http://www.w3.org/2000/svg" xmlns:xlink="http://www.w3.org/1999/xlink">
<g id="graph0" class="graph" transform="scale(1 1) rotate(0) translate(4 144.75)">
<title>addmod8</title>
<!-- Node1 -->
<g id="Node000001" class="node">
<title>Node1</title>
<g id="a_Node000001"><a xlink:title="Add two numbers, and calculate the modulo of the sum and a third number, M.">
<polygon fill="#999999" stroke="#666666" points="421.5,-79.75 359.75,-79.75 359.75,-59 421.5,-59 421.5,-79.75"/>
<text text-anchor="middle" x="390.62" y="-66.25" font-family="Helvetica,sans-Serif" font-size="10.00">addmod8</text>
</a>
</g>
</g>
<!-- Node2 -->
<g id="Node000002" class="node">
<title>Node2</title>
<g id="a_Node000002"><a xlink:href="../../d4/dd0/_twinkle_fox_8ino.html#a328f611f7913b54364ddd78e16fa818c" target="_top" xlink:title=" ">
<polygon fill="white" stroke="#666666" points="317.38,-102.75 184.38,-102.75 184.38,-82 317.38,-82 317.38,-102.75"/>
<text text-anchor="middle" x="250.88" y="-89.25" font-family="Helvetica,sans-Serif" font-size="10.00">chooseNextColorPalette</text>
</a>
</g>
</g>
<!-- Node1&#45;&gt;Node2 -->
<g id="edge1_Node000001_Node000002" class="edge">
<title>Node1&#45;&gt;Node2</title>
<g id="a_edge1_Node000001_Node000002"><a xlink:title=" ">
<path fill="none" stroke="#63b8ff" d="M348.23,-76.29C338.31,-77.94 327.47,-79.75 316.77,-81.54"/>
<polygon fill="#63b8ff" stroke="#63b8ff" points="348.62,-79.77 357.9,-74.67 347.46,-72.87 348.62,-79.77"/>
</a>
</g>
</g>
<!-- Node5 -->
<g id="Node000005" class="node">
<title>Node5</title>
<g id="a_Node000005"><a xlink:href="../../de/db5/classfl_1_1_twinkle_fox.html#a57e332626c55ed1dcd58b8a1e408e688" target="_top" xlink:title=" ">
<polygon fill="white" stroke="#666666" points="323.75,-64.12 178,-64.12 178,-30.62 323.75,-30.62 323.75,-64.12"/>
<text text-anchor="start" x="186" y="-50.62" font-family="Helvetica,sans-Serif" font-size="10.00">fl::TwinkleFox::chooseNext</text>
<text text-anchor="middle" x="250.88" y="-37.88" font-family="Helvetica,sans-Serif" font-size="10.00">ColorPalette</text>
</a>
</g>
</g>
<!-- Node1&#45;&gt;Node5 -->
<g id="edge4_Node000001_Node000005" class="edge">
<title>Node1&#45;&gt;Node5</title>
<g id="a_edge4_Node000001_Node000005"><a xlink:title=" ">
<path fill="none" stroke="#63b8ff" d="M348.24,-62.77C340.57,-61.54 332.36,-60.23 324.08,-58.91"/>
<polygon fill="#63b8ff" stroke="#63b8ff" points="347.47,-66.19 357.9,-64.31 348.58,-59.27 347.47,-66.19"/>
</a>
</g>
</g>
<!-- Node3 -->
<g id="Node000003" class="node">
<title>Node3</title>
<g id="a_Node000003"><a xlink:href="../../d4/dd0/_twinkle_fox_8ino.html#afe461d27b9c48d5921c00d521181f12f" target="_top" xlink:title=" ">
<polygon fill="white" stroke="#666666" points="89.5,-140.75 52.5,-140.75 52.5,-120 89.5,-120 89.5,-140.75"/>
<text text-anchor="middle" x="71" y="-127.25" font-family="Helvetica,sans-Serif" font-size="10.00">loop</text>
</a>
</g>
</g>
<!-- Node2&#45;&gt;Node3 -->
<g id="edge2_Node000002_Node000003" class="edge">
<title>Node2&#45;&gt;Node3</title>
<g id="a_edge2_Node000002_Node000003"><a xlink:title=" ">
<path fill="none" stroke="#63b8ff" d="M188.33,-105.52C153.52,-112.96 112.51,-121.72 89.66,-126.6"/>
<polygon fill="#63b8ff" stroke="#63b8ff" points="188.85,-108.99 197.9,-103.48 187.39,-102.15 188.85,-108.99"/>
</a>
</g>
</g>
<!-- Node4 -->
<g id="Node000004" class="node">
<title>Node4</title>
<g id="a_Node000004"><a xlink:href="../../d4/dd0/_twinkle_fox_8ino.html#a4fc01d736fe50cf5b977f755b675f11d" target="_top" xlink:title=" ">
<polygon fill="white" stroke="#666666" points="92.5,-101.75 49.5,-101.75 49.5,-81 92.5,-81 92.5,-101.75"/>
<text text-anchor="middle" x="71" y="-88.25" font-family="Helvetica,sans-Serif" font-size="10.00">setup</text>
</a>
</g>
</g>
<!-- Node2&#45;&gt;Node4 -->
<g id="edge3_Node000002_Node000004" class="edge">
<title>Node2&#45;&gt;Node4</title>
<g id="a_edge3_Node000002_Node000004"><a xlink:title=" ">
<path fill="none" stroke="#63b8ff" d="M172.41,-91.94C143.29,-91.78 112.5,-91.6 92.81,-91.49"/>
<polygon fill="#63b8ff" stroke="#63b8ff" points="172.36,-95.44 182.38,-92 172.4,-88.44 172.36,-95.44"/>
</a>
</g>
</g>
<!-- Node6 -->
<g id="Node000006" class="node">
<title>Node6</title>
<g id="a_Node000006"><a xlink:href="../../de/db5/classfl_1_1_twinkle_fox.html#a99aa1e90fbd791186b6fc4708dabad80" target="_top" xlink:title=" ">
<polygon fill="white" stroke="#666666" points="142,-59.75 0,-59.75 0,-39 142,-39 142,-59.75"/>
<text text-anchor="middle" x="71" y="-46.25" font-family="Helvetica,sans-Serif" font-size="10.00">fl::TwinkleFox::TwinkleFox</text>
</a>
</g>
</g>
<!-- Node5&#45;&gt;Node6 -->
<g id="edge5_Node000005_Node000006" class="edge">
<title>Node5&#45;&gt;Node6</title>
<g id="a_edge5_Node000005_Node000006"><a xlink:title=" ">
<path fill="none" stroke="#63b8ff" d="M166.25,-48.32C158.23,-48.41 150.15,-48.5 142.27,-48.58"/>
<polygon fill="#63b8ff" stroke="#63b8ff" points="166.05,-51.82 176.01,-48.21 165.97,-44.82 166.05,-51.82"/>
</a>
</g>
</g>
<!-- Node7 -->
<g id="Node000007" class="node">
<title>Node7</title>
<g id="a_Node000007"><a xlink:href="../../dd/d4d/_fx_twinkle_fox_8ino.html#afe461d27b9c48d5921c00d521181f12f" target="_top" xlink:title=" ">
<polygon fill="white" stroke="#666666" points="89.5,-20.75 52.5,-20.75 52.5,0 89.5,0 89.5,-20.75"/>
<text text-anchor="middle" x="71" y="-7.25" font-family="Helvetica,sans-Serif" font-size="10.00">loop</text>
</a>
</g>
</g>
<!-- Node5&#45;&gt;Node7 -->
<g id="edge6_Node000005_Node000007" class="edge">
<title>Node5&#45;&gt;Node7</title>
<g id="a_edge6_Node000005_Node000007"><a xlink:title=" ">
<path fill="none" stroke="#63b8ff" d="M166.52,-30.04C137.63,-24.03 107.96,-17.85 89.75,-14.07"/>
<polygon fill="#63b8ff" stroke="#63b8ff" points="165.54,-33.41 176.04,-32.02 166.97,-26.55 165.54,-33.41"/>
</a>
</g>
</g>
</g>
</svg>
