<?xml version="1.0" encoding="UTF-8" standalone="no"?>
<!DOCTYPE svg PUBLIC "-//W3C//DTD SVG 1.1//EN"
 "http://www.w3.org/Graphics/SVG/1.1/DTD/svg11.dtd">
<!-- Generated by graphviz version 12.2.1 (20241206.2353)
 -->
<!-- Title: SM16716Controller&lt; DATA_PIN, CLOCK_PIN, RGB_ORDER, SPI_SPEED &gt; Pages: 1 -->
<svg width="1321pt" height="237pt"
 viewBox="0.00 0.00 1320.75 236.75" xmlns="http://www.w3.org/2000/svg" xmlns:xlink="http://www.w3.org/1999/xlink">
<g id="graph0" class="graph" transform="scale(1 1) rotate(0) translate(4 232.75)">
<title>SM16716Controller&lt; DATA_PIN, CLOCK_PIN, RGB_ORDER, SPI_SPEED &gt;</title>
<!-- Node1 -->
<g id="Node000001" class="node">
<title>Node1</title>
<g id="a_Node000001"><a xlink:title="SM16716 controller class.">
<polygon fill="#999999" stroke="#666666" points="1312.75,-134.25 1164,-134.25 1164,-88 1312.75,-88 1312.75,-134.25"/>
<text text-anchor="start" x="1172" y="-120.75" font-family="Helvetica,sans-Serif" font-size="10.00">SM16716Controller&lt;</text>
<text text-anchor="start" x="1172" y="-108" font-family="Helvetica,sans-Serif" font-size="10.00"> DATA_PIN, CLOCK_PIN,</text>
<text text-anchor="middle" x="1238.38" y="-95.25" font-family="Helvetica,sans-Serif" font-size="10.00"> RGB_ORDER, SPI_SPEED &gt;</text>
</a>
</g>
</g>
<!-- Node2 -->
<g id="Node000002" class="node">
<title>Node2</title>
<g id="a_Node000002"><a xlink:href="../../d0/dc9/class_c_pixel_l_e_d_controller.html" target="_top" xlink:title=" ">
<polygon fill="white" stroke="#666666" points="1089,-156.88 976.25,-156.88 976.25,-123.38 1089,-123.38 1089,-156.88"/>
<text text-anchor="start" x="984.25" y="-143.38" font-family="Helvetica,sans-Serif" font-size="10.00">CPixelLEDController</text>
<text text-anchor="middle" x="1032.62" y="-130.62" font-family="Helvetica,sans-Serif" font-size="10.00">&lt; RGB &gt;</text>
</a>
</g>
</g>
<!-- Node2&#45;&gt;Node1 -->
<g id="edge1_Node000001_Node000002" class="edge">
<title>Node2&#45;&gt;Node1</title>
<g id="a_edge1_Node000001_Node000002"><a xlink:title=" ">
<path fill="none" stroke="#63b8ff" d="M1100.62,-130.59C1120.85,-127.71 1143.16,-124.53 1163.8,-121.6"/>
<polygon fill="#63b8ff" stroke="#63b8ff" points="1100.21,-127.11 1090.8,-131.99 1101.19,-134.04 1100.21,-127.11"/>
</a>
</g>
</g>
<!-- Node3 -->
<g id="Node000003" class="node">
<title>Node3</title>
<g id="a_Node000003"><a xlink:href="../../d6/d2c/class_c_l_e_d_controller.html" target="_top" xlink:title="Base definition for an LED controller.">
<polygon fill="white" stroke="#666666" points="593.62,-172.5 504.12,-172.5 504.12,-151.75 593.62,-151.75 593.62,-172.5"/>
<text text-anchor="middle" x="548.88" y="-159" font-family="Helvetica,sans-Serif" font-size="10.00">CLEDController</text>
</a>
</g>
</g>
<!-- Node3&#45;&gt;Node2 -->
<g id="edge2_Node000002_Node000003" class="edge">
<title>Node3&#45;&gt;Node2</title>
<g id="a_edge2_Node000002_Node000003"><a xlink:title=" ">
<path fill="none" stroke="#63b8ff" d="M605.14,-166.32C622.74,-167.47 642.3,-168.56 660.25,-169.12 787.76,-173.16 820.65,-173.76 947,-156.12 956.33,-154.82 966.19,-153.19 975.76,-151.47"/>
<polygon fill="#63b8ff" stroke="#63b8ff" points="605.61,-162.84 595.4,-165.66 605.14,-169.83 605.61,-162.84"/>
</a>
</g>
</g>
<!-- Node3&#45;&gt;Node3 -->
<g id="edge4_Node000003_Node000003" class="edge">
<title>Node3&#45;&gt;Node3</title>
<g id="a_edge4_Node000003_Node000003"><a xlink:title=" ">
<path fill="none" stroke="#9a32cd" stroke-dasharray="5,2" d="M532.73,-184.31C535.01,-187.98 540.39,-190.5 548.88,-190.5 564.84,-190.5 569.83,-181.56 563.84,-172.9"/>
<polygon fill="#9a32cd" stroke="#9a32cd" points="536.2,-184.71 533.75,-174.4 529.24,-183.99 536.2,-184.71"/>
</a>
</g>
<text text-anchor="middle" x="548.88" y="-219.25" font-family="Helvetica,sans-Serif" font-size="10.00" fill="grey"> m_pHead</text>
<text text-anchor="middle" x="548.88" y="-206.5" font-family="Helvetica,sans-Serif" font-size="10.00" fill="grey">m_pNext</text>
<text text-anchor="middle" x="548.88" y="-193.75" font-family="Helvetica,sans-Serif" font-size="10.00" fill="grey">m_pTail</text>
</g>
<!-- Node6 -->
<g id="Node000006" class="node">
<title>Node6</title>
<g id="a_Node000006"><a xlink:href="../../d0/dc9/class_c_pixel_l_e_d_controller.html" target="_top" xlink:title="Template extension of the CLEDController class.">
<polygon fill="white" stroke="#666666" points="796.62,-160.25 667.38,-160.25 667.38,-114 796.62,-114 796.62,-160.25"/>
<text text-anchor="start" x="675.38" y="-146.75" font-family="Helvetica,sans-Serif" font-size="10.00">CPixelLEDController</text>
<text text-anchor="start" x="675.38" y="-134" font-family="Helvetica,sans-Serif" font-size="10.00">&lt; RGB_ORDER, LANES,</text>
<text text-anchor="middle" x="732" y="-121.25" font-family="Helvetica,sans-Serif" font-size="10.00"> MASK &gt;</text>
</a>
</g>
</g>
<!-- Node3&#45;&gt;Node6 -->
<g id="edge7_Node000006_Node000003" class="edge">
<title>Node3&#45;&gt;Node6</title>
<g id="a_edge7_Node000006_Node000003"><a xlink:title=" ">
<path fill="none" stroke="#63b8ff" d="M604.92,-154.53C624.51,-151.82 646.73,-148.76 667.01,-145.96"/>
<polygon fill="#63b8ff" stroke="#63b8ff" points="604.65,-151.03 595.22,-155.87 605.6,-157.97 604.65,-151.03"/>
</a>
</g>
</g>
<!-- Node4 -->
<g id="Node000004" class="node">
<title>Node4</title>
<g id="a_Node000004"><a xlink:href="../../db/d87/group___pixel_types.html#d7/d82/struct_c_r_g_b" target="_top" xlink:title="Representation of an RGB pixel (Red, Green, Blue)">
<polygon fill="white" stroke="#666666" points="248,-192.5 204.25,-192.5 204.25,-171.75 248,-171.75 248,-192.5"/>
<text text-anchor="middle" x="226.12" y="-179" font-family="Helvetica,sans-Serif" font-size="10.00">CRGB</text>
</a>
</g>
</g>
<!-- Node4&#45;&gt;Node3 -->
<g id="edge3_Node000003_Node000004" class="edge">
<title>Node4&#45;&gt;Node3</title>
<g id="a_edge3_Node000003_Node000004"><a xlink:title=" ">
<path fill="none" stroke="#9a32cd" stroke-dasharray="5,2" d="M259.79,-180.09C317.72,-176.48 438.52,-168.94 503.78,-164.87"/>
<polygon fill="#9a32cd" stroke="#9a32cd" points="259.69,-176.59 249.93,-180.7 260.13,-183.57 259.69,-176.59"/>
</a>
</g>
<text text-anchor="middle" x="384.88" y="-204.97" font-family="Helvetica,sans-Serif" font-size="10.00" fill="grey"> m_ColorCorrection</text>
<text text-anchor="middle" x="384.88" y="-192.22" font-family="Helvetica,sans-Serif" font-size="10.00" fill="grey">m_ColorTemperature</text>
<text text-anchor="middle" x="384.88" y="-179.47" font-family="Helvetica,sans-Serif" font-size="10.00" fill="grey">m_Data</text>
</g>
<!-- Node5 -->
<g id="Node000005" class="node">
<title>Node5</title>
<g id="a_Node000005"><a xlink:href="../../db/d74/struct_rgbw.html" target="_top" xlink:title=" ">
<polygon fill="white" stroke="#666666" points="247.62,-153.5 204.62,-153.5 204.62,-132.75 247.62,-132.75 247.62,-153.5"/>
<text text-anchor="middle" x="226.12" y="-140" font-family="Helvetica,sans-Serif" font-size="10.00">Rgbw</text>
</a>
</g>
</g>
<!-- Node5&#45;&gt;Node3 -->
<g id="edge5_Node000003_Node000005" class="edge">
<title>Node5&#45;&gt;Node3</title>
<g id="a_edge5_Node000003_Node000005"><a xlink:title=" ">
<path fill="none" stroke="#9a32cd" stroke-dasharray="5,2" d="M259.56,-142.29C304.06,-141.46 386.52,-141.11 456.5,-147.38 472.02,-148.76 488.9,-151.22 503.88,-153.73"/>
<polygon fill="#9a32cd" stroke="#9a32cd" points="259.49,-138.79 249.56,-142.49 259.64,-145.78 259.49,-138.79"/>
</a>
</g>
<text text-anchor="middle" x="384.88" y="-150.62" font-family="Helvetica,sans-Serif" font-size="10.00" fill="grey"> mRgbMode</text>
</g>
<!-- Node6&#45;&gt;Node2 -->
<g id="edge6_Node000002_Node000006" class="edge">
<title>Node6&#45;&gt;Node2</title>
<g id="a_edge6_Node000002_Node000006"><a xlink:title=" ">
<path fill="none" stroke="orange" stroke-dasharray="5,2" d="M808.28,-137.88C860.51,-138.41 928.92,-139.09 976.2,-139.57"/>
<polygon fill="orange" stroke="orange" points="808.61,-134.38 798.58,-137.78 808.54,-141.38 808.61,-134.38"/>
</a>
</g>
<text text-anchor="middle" x="884.38" y="-142.49" font-family="Helvetica,sans-Serif" font-size="10.00" fill="grey"> &lt; RGB &gt;</text>
</g>
<!-- Node7 -->
<g id="Node000007" class="node">
<title>Node7</title>
<g id="a_Node000007"><a xlink:href="../../d3/d97/class_s_p_i_output.html" target="_top" xlink:title=" ">
<polygon fill="white" stroke="#666666" points="1100.25,-105.25 965,-105.25 965,-59 1100.25,-59 1100.25,-105.25"/>
<text text-anchor="start" x="973" y="-91.75" font-family="Helvetica,sans-Serif" font-size="10.00">SPIOutput&lt; DATA_PIN,</text>
<text text-anchor="start" x="973" y="-79" font-family="Helvetica,sans-Serif" font-size="10.00"> CLOCK_PIN, DATA_RATE</text>
<text text-anchor="middle" x="1032.62" y="-66.25" font-family="Helvetica,sans-Serif" font-size="10.00">_MHZ(16) &gt;</text>
</a>
</g>
</g>
<!-- Node7&#45;&gt;Node1 -->
<g id="edge8_Node000001_Node000007" class="edge">
<title>Node7&#45;&gt;Node1</title>
<g id="a_edge8_Node000001_Node000007"><a xlink:title=" ">
<path fill="none" stroke="#9a32cd" stroke-dasharray="5,2" d="M1111.68,-93.23C1128.75,-95.66 1146.76,-98.23 1163.66,-100.63"/>
<polygon fill="#9a32cd" stroke="#9a32cd" points="1112.51,-89.82 1102.12,-91.87 1111.53,-96.75 1112.51,-89.82"/>
</a>
</g>
<text text-anchor="middle" x="1132.12" y="-100.74" font-family="Helvetica,sans-Serif" font-size="10.00" fill="grey"> mSPI</text>
</g>
<!-- Node8 -->
<g id="Node000008" class="node">
<title>Node8</title>
<g id="a_Node000008"><a xlink:href="../../dc/d57/class_a_v_r_software_s_p_i_output.html" target="_top" xlink:title=" ">
<polygon fill="white" stroke="#666666" points="623.25,-80.25 474.5,-80.25 474.5,-34 623.25,-34 623.25,-80.25"/>
<text text-anchor="start" x="482.5" y="-66.75" font-family="Helvetica,sans-Serif" font-size="10.00">AVRSoftwareSPIOutput</text>
<text text-anchor="start" x="482.5" y="-54" font-family="Helvetica,sans-Serif" font-size="10.00">&lt; _DATA_PIN, _CLOCK_PIN,</text>
<text text-anchor="middle" x="548.88" y="-41.25" font-family="Helvetica,sans-Serif" font-size="10.00"> _SPI_CLOCK_DIVIDER &gt;</text>
</a>
</g>
</g>
<!-- Node8&#45;&gt;Node7 -->
<g id="edge9_Node000007_Node000008" class="edge">
<title>Node8&#45;&gt;Node7</title>
<g id="a_edge9_Node000007_Node000008"><a xlink:title=" ">
<path fill="none" stroke="#63b8ff" d="M634.77,-62.64C643.37,-63.16 651.99,-63.66 660.25,-64.12 766.59,-70.07 890.13,-75.83 964.52,-79.17"/>
<polygon fill="#63b8ff" stroke="#63b8ff" points="635.19,-59.16 625,-62.04 634.76,-66.14 635.19,-59.16"/>
</a>
</g>
</g>
<!-- Node11 -->
<g id="Node000011" class="node">
<title>Node11</title>
<g id="a_Node000011"><a xlink:href="../../d3/d97/class_s_p_i_output.html" target="_top" xlink:title="Hardware SPI output.">
<polygon fill="white" stroke="#666666" points="803.75,-55.25 660.25,-55.25 660.25,-9 803.75,-9 803.75,-55.25"/>
<text text-anchor="start" x="668.25" y="-41.75" font-family="Helvetica,sans-Serif" font-size="10.00">SPIOutput&lt; _DATA_PIN,</text>
<text text-anchor="start" x="668.25" y="-29" font-family="Helvetica,sans-Serif" font-size="10.00"> _CLOCK_PIN, _SPI_CLOCK</text>
<text text-anchor="middle" x="732" y="-16.25" font-family="Helvetica,sans-Serif" font-size="10.00">_DIVIDER &gt;</text>
</a>
</g>
</g>
<!-- Node8&#45;&gt;Node11 -->
<g id="edge14_Node000011_Node000008" class="edge">
<title>Node8&#45;&gt;Node11</title>
<g id="a_edge14_Node000011_Node000008"><a xlink:title=" ">
<path fill="none" stroke="#63b8ff" d="M634.93,-45.38C643.33,-44.23 651.8,-43.06 660.03,-41.92"/>
<polygon fill="#63b8ff" stroke="#63b8ff" points="634.47,-41.92 625.04,-46.75 635.43,-48.85 634.47,-41.92"/>
</a>
</g>
</g>
<!-- Node9 -->
<g id="Node000009" class="node">
<title>Node9</title>
<g id="a_Node000009"><a xlink:href="../../dd/da1/class_selectable.html" target="_top" xlink:title="Abstract class for &quot;selectable&quot; things.">
<polygon fill="white" stroke="#666666" points="67,-63.5 0,-63.5 0,-42.75 67,-42.75 67,-63.5"/>
<text text-anchor="middle" x="33.5" y="-50" font-family="Helvetica,sans-Serif" font-size="10.00">Selectable</text>
</a>
</g>
</g>
<!-- Node9&#45;&gt;Node8 -->
<g id="edge10_Node000008_Node000009" class="edge">
<title>Node9&#45;&gt;Node8</title>
<g id="a_edge10_Node000008_Node000009"><a xlink:title=" ">
<path fill="none" stroke="#9a32cd" stroke-dasharray="5,2" d="M78.41,-61.36C80.63,-61.65 82.84,-61.91 85,-62.12 249.29,-78.83 291.66,-78.01 456.5,-68.12 462.24,-67.78 468.18,-67.32 474.13,-66.77"/>
<polygon fill="#9a32cd" stroke="#9a32cd" points="79.17,-57.93 68.77,-59.92 78.14,-64.86 79.17,-57.93"/>
</a>
</g>
<text text-anchor="middle" x="226.12" y="-78.44" font-family="Helvetica,sans-Serif" font-size="10.00" fill="grey"> m_pSelect</text>
</g>
<!-- Node10 -->
<g id="Node000010" class="node">
<title>Node10</title>
<g id="a_Node000010"><a xlink:href="../../dc/d57/class_a_v_r_software_s_p_i_output.html" target="_top" xlink:title="Software SPI (aka bit&#45;banging) support Includes aggressive optimizations for when the clock and data ...">
<polygon fill="white" stroke="#666666" points="295.25,-46.25 157,-46.25 157,0 295.25,0 295.25,-46.25"/>
<text text-anchor="start" x="165" y="-32.75" font-family="Helvetica,sans-Serif" font-size="10.00">AVRSoftwareSPIOutput</text>
<text text-anchor="start" x="165" y="-20" font-family="Helvetica,sans-Serif" font-size="10.00">&lt; DATA_PIN, CLOCK_PIN,</text>
<text text-anchor="middle" x="226.12" y="-7.25" font-family="Helvetica,sans-Serif" font-size="10.00"> SPI_SPEED &gt;</text>
</a>
</g>
</g>
<!-- Node9&#45;&gt;Node10 -->
<g id="edge12_Node000010_Node000009" class="edge">
<title>Node9&#45;&gt;Node10</title>
<g id="a_edge12_Node000010_Node000009"><a xlink:title=" ">
<path fill="none" stroke="#9a32cd" stroke-dasharray="5,2" d="M78.51,-46.2C101.76,-42.54 130.8,-37.97 156.89,-33.86"/>
<polygon fill="#9a32cd" stroke="#9a32cd" points="78.1,-42.72 68.76,-47.73 79.19,-49.64 78.1,-42.72"/>
</a>
</g>
<text text-anchor="middle" x="112" y="-48.33" font-family="Helvetica,sans-Serif" font-size="10.00" fill="grey"> m_pSelect</text>
</g>
<!-- Node10&#45;&gt;Node8 -->
<g id="edge11_Node000008_Node000010" class="edge">
<title>Node10&#45;&gt;Node8</title>
<g id="a_edge11_Node000008_Node000010"><a xlink:title=" ">
<path fill="none" stroke="orange" stroke-dasharray="5,2" d="M306.77,-28.47C350.96,-31.79 406.87,-36.59 456.5,-42.62 462.24,-43.32 468.17,-44.11 474.13,-44.95"/>
<polygon fill="orange" stroke="orange" points="307.25,-24.99 297.02,-27.75 306.73,-31.98 307.25,-24.99"/>
</a>
</g>
<text text-anchor="start" x="313.25" y="-58.62" font-family="Helvetica,sans-Serif" font-size="10.00" fill="grey"> &lt; _DATA_PIN, _CLOCK</text>
<text text-anchor="middle" x="384.88" y="-45.88" font-family="Helvetica,sans-Serif" font-size="10.00" fill="grey">_PIN, _SPI_CLOCK_DIVIDER &gt;</text>
</g>
<!-- Node11&#45;&gt;Node7 -->
<g id="edge13_Node000007_Node000011" class="edge">
<title>Node11&#45;&gt;Node7</title>
<g id="a_edge13_Node000007_Node000011"><a xlink:title=" ">
<path fill="none" stroke="orange" stroke-dasharray="5,2" d="M815.22,-29.44C855.46,-29.91 904.32,-33.16 947,-43.62 960.8,-47.01 975.11,-52.61 987.95,-58.51"/>
<polygon fill="orange" stroke="orange" points="815.37,-25.94 805.35,-29.38 815.33,-32.94 815.37,-25.94"/>
</a>
</g>
<text text-anchor="start" x="821.75" y="-59.62" font-family="Helvetica,sans-Serif" font-size="10.00" fill="grey"> &lt; DATA_PIN, CLOCK_PIN,</text>
<text text-anchor="middle" x="884.38" y="-46.88" font-family="Helvetica,sans-Serif" font-size="10.00" fill="grey"> DATA_RATE_MHZ(16) &gt;</text>
</g>
</g>
</svg>
