<?xml version="1.0" encoding="UTF-8" standalone="no"?>
<!DOCTYPE svg PUBLIC "-//W3C//DTD SVG 1.1//EN"
 "http://www.w3.org/Graphics/SVG/1.1/DTD/svg11.dtd">
<!-- Generated by graphviz version 12.2.1 (20241206.2353)
 -->
<!-- Title: hsv2rgb_rainbow Pages: 1 -->
<svg width="290pt" height="197pt"
 viewBox="0.00 0.00 289.75 197.12" xmlns="http://www.w3.org/2000/svg" xmlns:xlink="http://www.w3.org/1999/xlink">
<g id="graph0" class="graph" transform="scale(1 1) rotate(0) translate(4 193.12)">
<title>hsv2rgb_rainbow</title>
<!-- Node1 -->
<g id="Node000001" class="node">
<title>Node1</title>
<g id="a_Node000001"><a xlink:title=" ">
<polygon fill="#999999" stroke="#666666" points="99.25,-111.12 0,-111.12 0,-90.38 99.25,-90.38 99.25,-111.12"/>
<text text-anchor="middle" x="49.62" y="-97.62" font-family="Helvetica,sans-Serif" font-size="10.00">hsv2rgb_rainbow</text>
</a>
</g>
</g>
<!-- Node2 -->
<g id="Node000002" class="node">
<title>Node2</title>
<g id="a_Node000002"><a xlink:href="../../d0/da5/group___scaling_dirty.html#ga3fade00fb4cf5b937b973128198a7a79" target="_top" xlink:title="Clean up the r1 register after a series of *LEAVING_R1_DIRTY calls.">
<polygon fill="white" stroke="#666666" points="244.62,-189.12 172.38,-189.12 172.38,-168.38 244.62,-168.38 244.62,-189.12"/>
<text text-anchor="middle" x="208.5" y="-175.62" font-family="Helvetica,sans-Serif" font-size="10.00">cleanup_R1</text>
</a>
</g>
</g>
<!-- Node1&#45;&gt;Node2 -->
<g id="edge1_Node000001_Node000002" class="edge">
<title>Node1&#45;&gt;Node2</title>
<g id="a_edge1_Node000001_Node000002"><a xlink:title=" ">
<path fill="none" stroke="#63b8ff" d="M63.28,-111.44C79.15,-124.34 107.63,-145.9 135.25,-158.75 143.38,-162.53 152.37,-165.73 161.16,-168.38"/>
<polygon fill="#63b8ff" stroke="#63b8ff" points="160.09,-171.71 170.67,-171.04 161.98,-164.97 160.09,-171.71"/>
</a>
</g>
</g>
<!-- Node3 -->
<g id="Node000003" class="node">
<title>Node3</title>
<g id="a_Node000003"><a xlink:href="../../d0/da8/group___scaling.html#gad7535ccda9c92470c4e6ee0265585555" target="_top" xlink:title="Scale one byte by a second one, which is treated as the numerator of a fraction whose denominator is ...">
<polygon fill="white" stroke="#666666" points="232.25,-150.12 184.75,-150.12 184.75,-129.38 232.25,-129.38 232.25,-150.12"/>
<text text-anchor="middle" x="208.5" y="-136.62" font-family="Helvetica,sans-Serif" font-size="10.00">scale8</text>
</a>
</g>
</g>
<!-- Node1&#45;&gt;Node3 -->
<g id="edge2_Node000001_Node000003" class="edge">
<title>Node1&#45;&gt;Node3</title>
<g id="a_edge2_Node000001_Node000003"><a xlink:title=" ">
<path fill="none" stroke="#63b8ff" d="M94.32,-111.61C119.3,-117.82 150.16,-125.49 173.34,-131.26"/>
<polygon fill="#63b8ff" stroke="#63b8ff" points="172.35,-134.62 182.9,-133.63 174.04,-127.83 172.35,-134.62"/>
</a>
</g>
</g>
<!-- Node4 -->
<g id="Node000004" class="node">
<title>Node4</title>
<g id="a_Node000004"><a xlink:href="../../d0/da5/group___scaling_dirty.html#ga7386235cada3aca429b189681d2ec56d" target="_top" xlink:title="This version of scale8() does not clean up the R1 register on AVR.">
<polygon fill="white" stroke="#666666" points="281.75,-111.12 135.25,-111.12 135.25,-90.38 281.75,-90.38 281.75,-111.12"/>
<text text-anchor="middle" x="208.5" y="-97.62" font-family="Helvetica,sans-Serif" font-size="10.00">scale8_LEAVING_R1_DIRTY</text>
</a>
</g>
</g>
<!-- Node1&#45;&gt;Node4 -->
<g id="edge3_Node000001_Node000004" class="edge">
<title>Node1&#45;&gt;Node4</title>
<g id="a_edge3_Node000001_Node000004"><a xlink:title=" ">
<path fill="none" stroke="#63b8ff" d="M99.4,-100.75C107.13,-100.75 115.31,-100.75 123.57,-100.75"/>
<polygon fill="#63b8ff" stroke="#63b8ff" points="123.34,-104.25 133.34,-100.75 123.34,-97.25 123.34,-104.25"/>
</a>
</g>
</g>
<!-- Node5 -->
<g id="Node000005" class="node">
<title>Node5</title>
<g id="a_Node000005"><a xlink:href="../../d0/da8/group___scaling.html#ga628b417ea1507e3447cdf5f308d9b6d5" target="_top" xlink:title="The &quot;video&quot; version of scale8() guarantees that the output will be only be zero if one or both of the...">
<polygon fill="white" stroke="#666666" points="248.38,-72.12 168.62,-72.12 168.62,-51.38 248.38,-51.38 248.38,-72.12"/>
<text text-anchor="middle" x="208.5" y="-58.62" font-family="Helvetica,sans-Serif" font-size="10.00">scale8_video</text>
</a>
</g>
</g>
<!-- Node1&#45;&gt;Node5 -->
<g id="edge4_Node000001_Node000005" class="edge">
<title>Node1&#45;&gt;Node5</title>
<g id="a_edge4_Node000001_Node000005"><a xlink:title=" ">
<path fill="none" stroke="#63b8ff" d="M94.32,-89.89C113.91,-85.02 137.11,-79.25 157.39,-74.21"/>
<polygon fill="#63b8ff" stroke="#63b8ff" points="157.99,-77.67 166.85,-71.86 156.3,-70.87 157.99,-77.67"/>
</a>
</g>
</g>
<!-- Node6 -->
<g id="Node000006" class="node">
<title>Node6</title>
<g id="a_Node000006"><a xlink:href="../../d0/da5/group___scaling_dirty.html#gaf8e0821f34434cd6bfed4a16a895da23" target="_top" xlink:title="This version of scale8_video() does not clean up the R1 register on AVR.">
<polygon fill="white" stroke="#666666" points="272,-33.5 145,-33.5 145,0 272,0 272,-33.5"/>
<text text-anchor="start" x="153" y="-20" font-family="Helvetica,sans-Serif" font-size="10.00">scale8_video_LEAVING</text>
<text text-anchor="middle" x="208.5" y="-7.25" font-family="Helvetica,sans-Serif" font-size="10.00">_R1_DIRTY</text>
</a>
</g>
</g>
<!-- Node1&#45;&gt;Node6 -->
<g id="edge5_Node000001_Node000006" class="edge">
<title>Node1&#45;&gt;Node6</title>
<g id="a_edge5_Node000001_Node000006"><a xlink:title=" ">
<path fill="none" stroke="#63b8ff" d="M64.02,-89.96C80.16,-77.35 108.46,-56.47 135.25,-42.75 138.14,-41.27 141.14,-39.83 144.19,-38.45"/>
<polygon fill="#63b8ff" stroke="#63b8ff" points="145.52,-41.69 153.35,-34.54 142.77,-35.25 145.52,-41.69"/>
</a>
</g>
</g>
</g>
</svg>
