<?xml version="1.0" encoding="UTF-8" standalone="no"?>
<!DOCTYPE svg PUBLIC "-//W3C//DTD SVG 1.1//EN"
 "http://www.w3.org/Graphics/SVG/1.1/DTD/svg11.dtd">
<!-- Generated by graphviz version 12.2.1 (20241206.2353)
 -->
<!-- Title: REFHardwareSPIOutput::waitFully Pages: 1 -->
<svg width="470pt" height="42pt"
 viewBox="0.00 0.00 470.00 41.50" xmlns="http://www.w3.org/2000/svg" xmlns:xlink="http://www.w3.org/1999/xlink">
<g id="graph0" class="graph" transform="scale(1 1) rotate(0) translate(4 37.5)">
<title>REFHardwareSPIOutput::waitFully</title>
<!-- Node1 -->
<g id="Node000001" class="node">
<title>Node1</title>
<g id="a_Node000001"><a xlink:title="wait until all queued up data has been written">
<polygon fill="#999999" stroke="#666666" points="462,-33.5 332,-33.5 332,0 462,0 462,-33.5"/>
<text text-anchor="start" x="340" y="-20" font-family="Helvetica,sans-Serif" font-size="10.00">REFHardwareSPIOutput</text>
<text text-anchor="middle" x="397" y="-7.25" font-family="Helvetica,sans-Serif" font-size="10.00">::waitFully</text>
</a>
</g>
</g>
<!-- Node2 -->
<g id="Node000002" class="node">
<title>Node2</title>
<g id="a_Node000002"><a xlink:href="../../d6/dd4/class_r_e_f_hardware_s_p_i_output.html#aed13aeec47cdee6166451607311f181c" target="_top" xlink:title="A full cycle of writing a value for len bytes, including select, release, and waiting.">
<polygon fill="white" stroke="#666666" points="296,-33.5 166,-33.5 166,0 296,0 296,-33.5"/>
<text text-anchor="start" x="174" y="-20" font-family="Helvetica,sans-Serif" font-size="10.00">REFHardwareSPIOutput</text>
<text text-anchor="middle" x="231" y="-7.25" font-family="Helvetica,sans-Serif" font-size="10.00">::writeBytes</text>
</a>
</g>
</g>
<!-- Node1&#45;&gt;Node2 -->
<g id="edge1_Node000001_Node000002" class="edge">
<title>Node1&#45;&gt;Node2</title>
<g id="a_edge1_Node000001_Node000002"><a xlink:title=" ">
<path fill="none" stroke="#63b8ff" d="M320.41,-16.75C312.4,-16.75 304.3,-16.75 296.43,-16.75"/>
<polygon fill="#63b8ff" stroke="#63b8ff" points="320.14,-20.25 330.14,-16.75 320.14,-13.25 320.14,-20.25"/>
</a>
</g>
</g>
<!-- Node3 -->
<g id="Node000003" class="node">
<title>Node3</title>
<g id="a_Node000003"><a xlink:href="../../d6/dd4/class_r_e_f_hardware_s_p_i_output.html#a585373e81d2509a01429f74503b7b56b" target="_top" xlink:title="A full cycle of writing a value for len bytes, including select, release, and waiting.">
<polygon fill="white" stroke="#666666" points="130,-33.5 0,-33.5 0,0 130,0 130,-33.5"/>
<text text-anchor="start" x="8" y="-20" font-family="Helvetica,sans-Serif" font-size="10.00">REFHardwareSPIOutput</text>
<text text-anchor="middle" x="65" y="-7.25" font-family="Helvetica,sans-Serif" font-size="10.00">::writeBytes</text>
</a>
</g>
</g>
<!-- Node2&#45;&gt;Node3 -->
<g id="edge2_Node000002_Node000003" class="edge">
<title>Node2&#45;&gt;Node3</title>
<g id="a_edge2_Node000002_Node000003"><a xlink:title=" ">
<path fill="none" stroke="#63b8ff" d="M154.41,-16.75C146.4,-16.75 138.3,-16.75 130.43,-16.75"/>
<polygon fill="#63b8ff" stroke="#63b8ff" points="154.14,-20.25 164.14,-16.75 154.14,-13.25 154.14,-20.25"/>
</a>
</g>
</g>
</g>
</svg>
