<?xml version="1.0" encoding="UTF-8" standalone="no"?>
<!DOCTYPE svg PUBLIC "-//W3C//DTD SVG 1.1//EN"
 "http://www.w3.org/Graphics/SVG/1.1/DTD/svg11.dtd">
<!-- Generated by graphviz version 12.2.1 (20241206.2353)
 -->
<!-- Title: /home/runner/work/FastLED/FastLED/src/fl/sin32.h Pages: 1 -->
<svg width="260pt" height="98pt"
 viewBox="0.00 0.00 260.38 98.25" xmlns="http://www.w3.org/2000/svg" xmlns:xlink="http://www.w3.org/1999/xlink">
<g id="graph0" class="graph" transform="scale(1 1) rotate(0) translate(4 94.25)">
<title>/home/runner/work/FastLED/FastLED/src/fl/sin32.h</title>
<!-- Node1 -->
<g id="Node000001" class="node">
<title>Node1</title>
<g id="a_Node000001"><a xlink:title=" ">
<polygon fill="#999999" stroke="#666666" points="186.12,-90.25 36.62,-90.25 36.62,-56.75 186.12,-56.75 186.12,-90.25"/>
<text text-anchor="start" x="44.62" y="-76.75" font-family="Helvetica,sans-Serif" font-size="10.00">/home/runner/work/FastLED</text>
<text text-anchor="middle" x="111.38" y="-64" font-family="Helvetica,sans-Serif" font-size="10.00">/FastLED/src/fl/sin32.h</text>
</a>
</g>
</g>
<!-- Node2 -->
<g id="Node000002" class="node">
<title>Node2</title>
<g id="a_Node000002"><a xlink:title=" ">
<polygon fill="#e0e0e0" stroke="#999999" points="52.75,-20.75 0,-20.75 0,0 52.75,0 52.75,-20.75"/>
<text text-anchor="middle" x="26.38" y="-7.25" font-family="Helvetica,sans-Serif" font-size="10.00">stdint.h</text>
</a>
</g>
</g>
<!-- Node1&#45;&gt;Node2 -->
<g id="edge1_Node000001_Node000002" class="edge">
<title>Node1&#45;&gt;Node2</title>
<g id="a_edge1_Node000001_Node000002"><a xlink:title=" ">
<path fill="none" stroke="#63b8ff" d="M89.04,-56.44C76.78,-47.62 61.6,-36.7 49.25,-27.82"/>
<polygon fill="#63b8ff" stroke="#63b8ff" points="51.45,-25.1 41.29,-22.1 47.37,-30.78 51.45,-25.1"/>
</a>
</g>
</g>
<!-- Node3 -->
<g id="Node000003" class="node">
<title>Node3</title>
<g id="a_Node000003"><a xlink:href="../../df/d2a/namespace_8h.html" target="_top" xlink:title="Implements the FastLED namespace macros.">
<polygon fill="white" stroke="#666666" points="152,-20.75 70.75,-20.75 70.75,0 152,0 152,-20.75"/>
<text text-anchor="middle" x="111.38" y="-7.25" font-family="Helvetica,sans-Serif" font-size="10.00">namespace.h</text>
</a>
</g>
</g>
<!-- Node1&#45;&gt;Node3 -->
<g id="edge2_Node000001_Node000003" class="edge">
<title>Node1&#45;&gt;Node3</title>
<g id="a_edge2_Node000001_Node000003"><a xlink:title=" ">
<path fill="none" stroke="#63b8ff" d="M111.38,-56.44C111.38,-49.1 111.38,-40.32 111.38,-32.46"/>
<polygon fill="#63b8ff" stroke="#63b8ff" points="114.88,-32.73 111.38,-22.73 107.88,-32.73 114.88,-32.73"/>
</a>
</g>
</g>
<!-- Node4 -->
<g id="Node000004" class="node">
<title>Node4</title>
<g id="a_Node000004"><a xlink:href="../../d8/d2d/fl_2force__inline_8h.html" target="_top" xlink:title=" ">
<polygon fill="white" stroke="#666666" points="252.38,-20.75 170.38,-20.75 170.38,0 252.38,0 252.38,-20.75"/>
<text text-anchor="middle" x="211.38" y="-7.25" font-family="Helvetica,sans-Serif" font-size="10.00">force_inline.h</text>
</a>
</g>
</g>
<!-- Node1&#45;&gt;Node4 -->
<g id="edge3_Node000001_Node000004" class="edge">
<title>Node1&#45;&gt;Node4</title>
<g id="a_edge3_Node000001_Node000004"><a xlink:title=" ">
<path fill="none" stroke="#63b8ff" d="M137.91,-56.28C152.77,-47.2 171.2,-35.93 185.88,-26.96"/>
<polygon fill="#63b8ff" stroke="#63b8ff" points="187.36,-30.16 194.07,-21.95 183.71,-24.18 187.36,-30.16"/>
</a>
</g>
</g>
</g>
</svg>
