<?xml version="1.0" encoding="UTF-8" standalone="no"?>
<!DOCTYPE svg PUBLIC "-//W3C//DTD SVG 1.1//EN"
 "http://www.w3.org/Graphics/SVG/1.1/DTD/svg11.dtd">
<!-- Generated by graphviz version 12.2.1 (20241206.2353)
 -->
<!-- Title: /home/runner/work/FastLED/FastLED/src/fx/2d/animartrix_detail.hpp Pages: 1 -->
<svg width="989pt" height="225pt"
 viewBox="0.00 0.00 988.93 224.50" xmlns="http://www.w3.org/2000/svg" xmlns:xlink="http://www.w3.org/1999/xlink">
<g id="graph0" class="graph" transform="scale(1 1) rotate(0) translate(4 220.5)">
<title>/home/runner/work/FastLED/FastLED/src/fx/2d/animartrix_detail.hpp</title>
<!-- Node1 -->
<g id="Node000001" class="node">
<title>Node1</title>
<g id="a_Node000001"><a xlink:title=" ">
<polygon fill="#999999" stroke="#666666" points="597.62,-216.5 441.38,-216.5 441.38,-170.25 597.62,-170.25 597.62,-216.5"/>
<text text-anchor="start" x="449.38" y="-203" font-family="Helvetica,sans-Serif" font-size="10.00">/home/runner/work/FastLED</text>
<text text-anchor="start" x="449.38" y="-190.25" font-family="Helvetica,sans-Serif" font-size="10.00">/FastLED/src/fx/2d/animartrix</text>
<text text-anchor="middle" x="519.5" y="-177.5" font-family="Helvetica,sans-Serif" font-size="10.00">_detail.hpp</text>
</a>
</g>
</g>
<!-- Node2 -->
<g id="Node000002" class="node">
<title>Node2</title>
<g id="a_Node000002"><a xlink:href="../../d6/d68/vector_8h.html" target="_top" xlink:title=" ">
<polygon fill="white" stroke="#666666" points="300.5,-134.25 236.5,-134.25 236.5,-113.5 300.5,-113.5 300.5,-134.25"/>
<text text-anchor="middle" x="268.5" y="-120.75" font-family="Helvetica,sans-Serif" font-size="10.00">fl/vector.h</text>
</a>
</g>
</g>
<!-- Node1&#45;&gt;Node2 -->
<g id="edge1_Node000001_Node000002" class="edge">
<title>Node1&#45;&gt;Node2</title>
<g id="a_edge1_Node000001_Node000002"><a xlink:title=" ">
<path fill="none" stroke="#63b8ff" d="M441.11,-171.3C398.41,-159.81 347.2,-146.04 311.7,-136.49"/>
<polygon fill="#63b8ff" stroke="#63b8ff" points="312.78,-133.16 302.22,-133.94 310.96,-139.92 312.78,-133.16"/>
</a>
</g>
</g>
<!-- Node3 -->
<g id="Node000003" class="node">
<title>Node3</title>
<g id="a_Node000003"><a xlink:title=" ">
<polygon fill="#e0e0e0" stroke="#999999" points="903.88,-20.75 851.12,-20.75 851.12,0 903.88,0 903.88,-20.75"/>
<text text-anchor="middle" x="877.5" y="-7.25" font-family="Helvetica,sans-Serif" font-size="10.00">stdint.h</text>
</a>
</g>
</g>
<!-- Node1&#45;&gt;Node3 -->
<g id="edge11_Node000001_Node000003" class="edge">
<title>Node1&#45;&gt;Node3</title>
<g id="a_edge11_Node000001_Node000003"><a xlink:title=" ">
<path fill="none" stroke="#63b8ff" d="M597.91,-184.11C715.71,-169.9 929.52,-136.5 975.5,-77.5 996.08,-51.09 950.64,-31.49 914.96,-20.74"/>
<polygon fill="#63b8ff" stroke="#63b8ff" points="916.32,-17.49 905.74,-18.11 914.4,-24.22 916.32,-17.49"/>
</a>
</g>
</g>
<!-- Node6 -->
<g id="Node000006" class="node">
<title>Node6</title>
<g id="a_Node000006"><a xlink:href="../../df/d2a/namespace_8h.html" target="_top" xlink:title="Implements the FastLED namespace macros.">
<polygon fill="white" stroke="#666666" points="638.62,-20.75 548.38,-20.75 548.38,0 638.62,0 638.62,-20.75"/>
<text text-anchor="middle" x="593.5" y="-7.25" font-family="Helvetica,sans-Serif" font-size="10.00">fl/namespace.h</text>
</a>
</g>
</g>
<!-- Node1&#45;&gt;Node6 -->
<g id="edge28_Node000001_Node000006" class="edge">
<title>Node1&#45;&gt;Node6</title>
<g id="a_edge28_Node000001_Node000006"><a xlink:title=" ">
<path fill="none" stroke="#63b8ff" d="M489.64,-169.83C456.6,-142.12 411.5,-94.19 439.5,-56.75 451.43,-40.8 498.02,-28.52 536.86,-20.78"/>
<polygon fill="#63b8ff" stroke="#63b8ff" points="537.45,-24.23 546.61,-18.91 536.13,-17.36 537.45,-24.23"/>
</a>
</g>
</g>
<!-- Node9 -->
<g id="Node000009" class="node">
<title>Node9</title>
<g id="a_Node000009"><a xlink:title=" ">
<polygon fill="#e0e0e0" stroke="#999999" points="571.75,-134.25 521.25,-134.25 521.25,-113.5 571.75,-113.5 571.75,-134.25"/>
<text text-anchor="middle" x="546.5" y="-120.75" font-family="Helvetica,sans-Serif" font-size="10.00">math.h</text>
</a>
</g>
</g>
<!-- Node1&#45;&gt;Node9 -->
<g id="edge10_Node000001_Node000009" class="edge">
<title>Node1&#45;&gt;Node9</title>
<g id="a_edge10_Node000001_Node000009"><a xlink:title=" ">
<path fill="none" stroke="#63b8ff" d="M528.49,-169.9C531.67,-161.95 535.22,-153.06 538.33,-145.3"/>
<polygon fill="#63b8ff" stroke="#63b8ff" points="541.57,-146.63 542.03,-136.05 535.07,-144.03 541.57,-146.63"/>
</a>
</g>
</g>
<!-- Node10 -->
<g id="Node000010" class="node">
<title>Node10</title>
<g id="a_Node000010"><a xlink:href="../../d8/d2d/fl_2force__inline_8h.html" target="_top" xlink:title=" ">
<polygon fill="white" stroke="#666666" points="539,-77.5 448,-77.5 448,-56.75 539,-56.75 539,-77.5"/>
<text text-anchor="middle" x="493.5" y="-64" font-family="Helvetica,sans-Serif" font-size="10.00">fl/force_inline.h</text>
</a>
</g>
</g>
<!-- Node1&#45;&gt;Node10 -->
<g id="edge12_Node000001_Node000010" class="edge">
<title>Node1&#45;&gt;Node10</title>
<g id="a_edge12_Node000001_Node000010"><a xlink:title=" ">
<path fill="none" stroke="#63b8ff" d="M514.79,-169.87C509.97,-146.85 502.55,-111.37 497.86,-88.97"/>
<polygon fill="#63b8ff" stroke="#63b8ff" points="501.3,-88.31 495.83,-79.24 494.45,-89.74 501.3,-88.31"/>
</a>
</g>
</g>
<!-- Node11 -->
<g id="Node000011" class="node">
<title>Node11</title>
<g id="a_Node000011"><a xlink:href="../../db/dd1/crgb_8h.html" target="_top" xlink:title="Defines the red, green, and blue (RGB) pixel struct.">
<polygon fill="white" stroke="#666666" points="686.5,-134.25 640.5,-134.25 640.5,-113.5 686.5,-113.5 686.5,-134.25"/>
<text text-anchor="middle" x="663.5" y="-120.75" font-family="Helvetica,sans-Serif" font-size="10.00">crgb.h</text>
</a>
</g>
</g>
<!-- Node1&#45;&gt;Node11 -->
<g id="edge13_Node000001_Node000011" class="edge">
<title>Node1&#45;&gt;Node11</title>
<g id="a_edge13_Node000001_Node000011"><a xlink:title=" ">
<path fill="none" stroke="#63b8ff" d="M567.45,-169.9C588.89,-159.85 613.54,-148.29 632.5,-139.41"/>
<polygon fill="#63b8ff" stroke="#63b8ff" points="633.73,-142.7 641.3,-135.28 630.76,-136.36 633.73,-142.7"/>
</a>
</g>
</g>
<!-- Node2&#45;&gt;Node3 -->
<g id="edge2_Node000002_Node000003" class="edge">
<title>Node2&#45;&gt;Node3</title>
<g id="a_edge2_Node000002_Node000003"><a xlink:title=" ">
<path fill="none" stroke="#63b8ff" d="M288.73,-113.01C320.16,-98.16 383.02,-70.34 439.5,-56.75 584.31,-21.91 762.39,-13.82 839.23,-11.94"/>
<polygon fill="#63b8ff" stroke="#63b8ff" points="839.24,-15.44 849.16,-11.72 839.08,-8.44 839.24,-15.44"/>
</a>
</g>
</g>
<!-- Node4 -->
<g id="Node000004" class="node">
<title>Node4</title>
<g id="a_Node000004"><a xlink:title=" ">
<polygon fill="#e0e0e0" stroke="#999999" points="55,-20.75 0,-20.75 0,0 55,0 55,-20.75"/>
<text text-anchor="middle" x="27.5" y="-7.25" font-family="Helvetica,sans-Serif" font-size="10.00">stddef.h</text>
</a>
</g>
</g>
<!-- Node2&#45;&gt;Node4 -->
<g id="edge3_Node000002_Node000004" class="edge">
<title>Node2&#45;&gt;Node4</title>
<g id="a_edge3_Node000002_Node000004"><a xlink:title=" ">
<path fill="none" stroke="#63b8ff" d="M236.39,-122.16C173.78,-120.01 39.01,-111.46 10.5,-77.5 -0.54,-64.35 6.36,-44.91 14.42,-30.51"/>
<polygon fill="#63b8ff" stroke="#63b8ff" points="17.18,-32.71 19.47,-22.36 11.23,-29.02 17.18,-32.71"/>
</a>
</g>
</g>
<!-- Node5 -->
<g id="Node000005" class="node">
<title>Node5</title>
<g id="a_Node000005"><a xlink:href="../../db/d36/inplacenew_8h.html" target="_top" xlink:title=" ">
<polygon fill="white" stroke="#666666" points="203.38,-77.5 123.62,-77.5 123.62,-56.75 203.38,-56.75 203.38,-77.5"/>
<text text-anchor="middle" x="163.5" y="-64" font-family="Helvetica,sans-Serif" font-size="10.00">inplacenew.h</text>
</a>
</g>
</g>
<!-- Node2&#45;&gt;Node5 -->
<g id="edge4_Node000002_Node000005" class="edge">
<title>Node2&#45;&gt;Node5</title>
<g id="a_edge4_Node000002_Node000005"><a xlink:title=" ">
<path fill="none" stroke="#63b8ff" d="M249.73,-113.09C233.75,-104.76 210.55,-92.66 192.24,-83.11"/>
<polygon fill="#63b8ff" stroke="#63b8ff" points="193.94,-80.05 183.45,-78.53 190.7,-86.26 193.94,-80.05"/>
</a>
</g>
</g>
<!-- Node2&#45;&gt;Node6 -->
<g id="edge5_Node000002_Node000006" class="edge">
<title>Node2&#45;&gt;Node6</title>
<g id="a_edge5_Node000002_Node000006"><a xlink:title=" ">
<path fill="none" stroke="#63b8ff" d="M279.83,-113.11C297.38,-98.51 332.76,-71.17 367.5,-56.75 422.64,-33.86 490.28,-22.24 537.11,-16.52"/>
<polygon fill="#63b8ff" stroke="#63b8ff" points="537.22,-20.03 546.75,-15.4 536.41,-13.08 537.22,-20.03"/>
</a>
</g>
</g>
<!-- Node7 -->
<g id="Node000007" class="node">
<title>Node7</title>
<g id="a_Node000007"><a xlink:href="../../df/d28/fl_2scoped__ptr_8h.html" target="_top" xlink:title=" ">
<polygon fill="white" stroke="#666666" points="105.75,-77.5 19.25,-77.5 19.25,-56.75 105.75,-56.75 105.75,-77.5"/>
<text text-anchor="middle" x="62.5" y="-64" font-family="Helvetica,sans-Serif" font-size="10.00">fl/scoped_ptr.h</text>
</a>
</g>
</g>
<!-- Node2&#45;&gt;Node7 -->
<g id="edge6_Node000002_Node000007" class="edge">
<title>Node2&#45;&gt;Node7</title>
<g id="a_edge6_Node000002_Node000007"><a xlink:title=" ">
<path fill="none" stroke="#63b8ff" d="M236.31,-114.32C202.53,-105.34 149.05,-91.13 110.33,-80.84"/>
<polygon fill="#63b8ff" stroke="#63b8ff" points="111.35,-77.49 100.79,-78.3 109.56,-84.25 111.35,-77.49"/>
</a>
</g>
</g>
<!-- Node8 -->
<g id="Node000008" class="node">
<title>Node8</title>
<g id="a_Node000008"><a xlink:href="../../d1/d22/insert__result_8h.html" target="_top" xlink:title=" ">
<polygon fill="white" stroke="#666666" points="315.88,-77.5 221.12,-77.5 221.12,-56.75 315.88,-56.75 315.88,-77.5"/>
<text text-anchor="middle" x="268.5" y="-64" font-family="Helvetica,sans-Serif" font-size="10.00">fl/insert_result.h</text>
</a>
</g>
</g>
<!-- Node2&#45;&gt;Node8 -->
<g id="edge9_Node000002_Node000008" class="edge">
<title>Node2&#45;&gt;Node8</title>
<g id="a_edge9_Node000002_Node000008"><a xlink:title=" ">
<path fill="none" stroke="#63b8ff" d="M268.5,-113.09C268.5,-106.47 268.5,-97.47 268.5,-89.27"/>
<polygon fill="#63b8ff" stroke="#63b8ff" points="272,-89.34 268.5,-79.34 265,-89.34 272,-89.34"/>
</a>
</g>
</g>
<!-- Node7&#45;&gt;Node4 -->
<g id="edge7_Node000007_Node000004" class="edge">
<title>Node7&#45;&gt;Node4</title>
<g id="a_edge7_Node000007_Node000004"><a xlink:title=" ">
<path fill="none" stroke="#63b8ff" d="M56.24,-56.34C51.66,-49.17 45.3,-39.23 39.73,-30.51"/>
<polygon fill="#63b8ff" stroke="#63b8ff" points="42.85,-28.89 34.52,-22.35 36.96,-32.66 42.85,-28.89"/>
</a>
</g>
</g>
<!-- Node7&#45;&gt;Node6 -->
<g id="edge8_Node000007_Node000006" class="edge">
<title>Node7&#45;&gt;Node6</title>
<g id="a_edge8_Node000007_Node000006"><a xlink:title=" ">
<path fill="none" stroke="#63b8ff" d="M106.15,-57.98C108.97,-57.54 111.77,-57.12 114.5,-56.75 266.52,-35.88 447.01,-21.6 536.84,-15.2"/>
<polygon fill="#63b8ff" stroke="#63b8ff" points="536.88,-18.7 546.61,-14.51 536.38,-11.72 536.88,-18.7"/>
</a>
</g>
</g>
<!-- Node11&#45;&gt;Node3 -->
<g id="edge14_Node000011_Node000003" class="edge">
<title>Node11&#45;&gt;Node3</title>
<g id="a_edge14_Node000011_Node000003"><a xlink:title=" ">
<path fill="none" stroke="#63b8ff" d="M686.57,-123C749.76,-122.81 923.33,-118.5 958.5,-77.5 976.66,-56.33 943.85,-36.76 914.71,-24.49"/>
<polygon fill="#63b8ff" stroke="#63b8ff" points="916.23,-21.32 905.64,-20.87 913.63,-27.82 916.23,-21.32"/>
</a>
</g>
</g>
<!-- Node11&#45;&gt;Node6 -->
<g id="edge18_Node000011_Node000006" class="edge">
<title>Node11&#45;&gt;Node6</title>
<g id="a_edge18_Node000011_Node000006"><a xlink:title=" ">
<path fill="none" stroke="#63b8ff" d="M640.03,-116.11C621.85,-109.49 597.89,-97.44 586.5,-77.5 578.61,-63.7 581.24,-45.62 585.34,-31.85"/>
<polygon fill="#63b8ff" stroke="#63b8ff" points="588.61,-33.11 588.61,-22.51 582,-30.8 588.61,-33.11"/>
</a>
</g>
</g>
<!-- Node11&#45;&gt;Node10 -->
<g id="edge24_Node000011_Node000010" class="edge">
<title>Node11&#45;&gt;Node10</title>
<g id="a_edge24_Node000011_Node000010"><a xlink:title=" ">
<path fill="none" stroke="#63b8ff" d="M640.22,-115.38C613.09,-106.64 567.78,-92.05 534.67,-81.38"/>
<polygon fill="#63b8ff" stroke="#63b8ff" points="535.99,-78.13 525.4,-78.4 533.84,-84.8 535.99,-78.13"/>
</a>
</g>
</g>
<!-- Node12 -->
<g id="Node000012" class="node">
<title>Node12</title>
<g id="a_Node000012"><a xlink:href="../../d8/dd0/chsv_8h.html" target="_top" xlink:title="Defines the hue, saturation, and value (HSV) pixel struct.">
<polygon fill="white" stroke="#666666" points="949.88,-77.5 903.12,-77.5 903.12,-56.75 949.88,-56.75 949.88,-77.5"/>
<text text-anchor="middle" x="926.5" y="-64" font-family="Helvetica,sans-Serif" font-size="10.00">chsv.h</text>
</a>
</g>
</g>
<!-- Node11&#45;&gt;Node12 -->
<g id="edge15_Node000011_Node000012" class="edge">
<title>Node11&#45;&gt;Node12</title>
<g id="a_edge15_Node000011_Node000012"><a xlink:title=" ">
<path fill="none" stroke="#63b8ff" d="M686.93,-119C727.03,-112.21 811.58,-97.23 892,-77.95"/>
<polygon fill="#63b8ff" stroke="#63b8ff" points="892.44,-81.45 901.33,-75.69 890.79,-74.64 892.44,-81.45"/>
</a>
</g>
</g>
<!-- Node13 -->
<g id="Node000013" class="node">
<title>Node13</title>
<g id="a_Node000013"><a xlink:href="../../d2/d6b/src_2color_8h.html" target="_top" xlink:title="Contains definitions for color correction and temperature.">
<polygon fill="white" stroke="#666666" points="643.62,-77.5 595.38,-77.5 595.38,-56.75 643.62,-56.75 643.62,-77.5"/>
<text text-anchor="middle" x="619.5" y="-64" font-family="Helvetica,sans-Serif" font-size="10.00">color.h</text>
</a>
</g>
</g>
<!-- Node11&#45;&gt;Node13 -->
<g id="edge19_Node000011_Node000013" class="edge">
<title>Node11&#45;&gt;Node13</title>
<g id="a_edge19_Node000011_Node000013"><a xlink:title=" ">
<path fill="none" stroke="#63b8ff" d="M655.63,-113.09C649.75,-105.77 641.53,-95.54 634.42,-86.69"/>
<polygon fill="#63b8ff" stroke="#63b8ff" points="637.24,-84.61 628.25,-79.01 631.78,-89 637.24,-84.61"/>
</a>
</g>
</g>
<!-- Node14 -->
<g id="Node000014" class="node">
<title>Node14</title>
<g id="a_Node000014"><a xlink:href="../../d9/ddf/lib8tion_2types_8h.html" target="_top" xlink:title="Defines fractional types used for lib8tion functions.">
<polygon fill="white" stroke="#666666" points="753.38,-77.5 661.62,-77.5 661.62,-56.75 753.38,-56.75 753.38,-77.5"/>
<text text-anchor="middle" x="707.5" y="-64" font-family="Helvetica,sans-Serif" font-size="10.00">lib8tion/types.h</text>
</a>
</g>
</g>
<!-- Node11&#45;&gt;Node14 -->
<g id="edge21_Node000011_Node000014" class="edge">
<title>Node11&#45;&gt;Node14</title>
<g id="a_edge21_Node000011_Node000014"><a xlink:title=" ">
<path fill="none" stroke="#63b8ff" d="M671.37,-113.09C677.25,-105.77 685.47,-95.54 692.58,-86.69"/>
<polygon fill="#63b8ff" stroke="#63b8ff" points="695.22,-89 698.75,-79.01 689.76,-84.61 695.22,-89"/>
</a>
</g>
</g>
<!-- Node15 -->
<g id="Node000015" class="node">
<title>Node15</title>
<g id="a_Node000015"><a xlink:href="../../d8/d0c/template__magic_8h.html" target="_top" xlink:title=" ">
<polygon fill="white" stroke="#666666" points="885.25,-77.5 771.75,-77.5 771.75,-56.75 885.25,-56.75 885.25,-77.5"/>
<text text-anchor="middle" x="828.5" y="-64" font-family="Helvetica,sans-Serif" font-size="10.00">fl/template_magic.h</text>
</a>
</g>
</g>
<!-- Node11&#45;&gt;Node15 -->
<g id="edge25_Node000011_Node000015" class="edge">
<title>Node11&#45;&gt;Node15</title>
<g id="a_edge25_Node000011_Node000015"><a xlink:title=" ">
<path fill="none" stroke="#63b8ff" d="M686.79,-115.15C713.09,-106.42 756.37,-92.06 788.19,-81.5"/>
<polygon fill="#63b8ff" stroke="#63b8ff" points="789.09,-84.89 797.48,-78.42 786.89,-78.25 789.09,-84.89"/>
</a>
</g>
</g>
<!-- Node12&#45;&gt;Node3 -->
<g id="edge16_Node000012_Node000003" class="edge">
<title>Node12&#45;&gt;Node3</title>
<g id="a_edge16_Node000012_Node000003"><a xlink:title=" ">
<path fill="none" stroke="#63b8ff" d="M917.74,-56.34C911.05,-48.86 901.65,-38.36 893.61,-29.38"/>
<polygon fill="#63b8ff" stroke="#63b8ff" points="896.47,-27.32 887.19,-22.21 891.25,-31.99 896.47,-27.32"/>
</a>
</g>
</g>
<!-- Node12&#45;&gt;Node6 -->
<g id="edge17_Node000012_Node000006" class="edge">
<title>Node12&#45;&gt;Node6</title>
<g id="a_edge17_Node000012_Node000006"><a xlink:title=" ">
<path fill="none" stroke="#63b8ff" d="M902.83,-58.8C900.03,-58.05 897.21,-57.35 894.5,-56.75 810.27,-38.15 711.08,-24.82 650.25,-17.61"/>
<polygon fill="#63b8ff" stroke="#63b8ff" points="650.82,-14.15 640.48,-16.46 650.01,-21.1 650.82,-14.15"/>
</a>
</g>
</g>
<!-- Node13&#45;&gt;Node6 -->
<g id="edge20_Node000013_Node000006" class="edge">
<title>Node13&#45;&gt;Node6</title>
<g id="a_edge20_Node000013_Node000006"><a xlink:title=" ">
<path fill="none" stroke="#63b8ff" d="M614.85,-56.34C611.56,-49.41 607.03,-39.87 602.99,-31.36"/>
<polygon fill="#63b8ff" stroke="#63b8ff" points="606.21,-29.98 598.76,-22.45 599.89,-32.98 606.21,-29.98"/>
</a>
</g>
</g>
<!-- Node14&#45;&gt;Node3 -->
<g id="edge22_Node000014_Node000003" class="edge">
<title>Node14&#45;&gt;Node3</title>
<g id="a_edge22_Node000014_Node000003"><a xlink:title=" ">
<path fill="none" stroke="#63b8ff" d="M737.89,-56.34C766.47,-47.13 809.33,-33.33 840.02,-23.45"/>
<polygon fill="#63b8ff" stroke="#63b8ff" points="840.84,-26.86 849.29,-20.46 838.69,-20.2 840.84,-26.86"/>
</a>
</g>
</g>
<!-- Node14&#45;&gt;Node6 -->
<g id="edge23_Node000014_Node000006" class="edge">
<title>Node14&#45;&gt;Node6</title>
<g id="a_edge23_Node000014_Node000006"><a xlink:title=" ">
<path fill="none" stroke="#63b8ff" d="M687.12,-56.34C669.53,-47.89 643.87,-35.57 623.87,-25.96"/>
<polygon fill="#63b8ff" stroke="#63b8ff" points="625.6,-22.91 615.07,-21.73 622.57,-29.22 625.6,-22.91"/>
</a>
</g>
</g>
<!-- Node15&#45;&gt;Node3 -->
<g id="edge26_Node000015_Node000003" class="edge">
<title>Node15&#45;&gt;Node3</title>
<g id="a_edge26_Node000015_Node000003"><a xlink:title=" ">
<path fill="none" stroke="#63b8ff" d="M837.26,-56.34C843.95,-48.86 853.35,-38.36 861.39,-29.38"/>
<polygon fill="#63b8ff" stroke="#63b8ff" points="863.75,-31.99 867.81,-22.21 858.53,-27.32 863.75,-31.99"/>
</a>
</g>
</g>
<!-- Node15&#45;&gt;Node6 -->
<g id="edge27_Node000015_Node000006" class="edge">
<title>Node15&#45;&gt;Node6</title>
<g id="a_edge27_Node000015_Node000006"><a xlink:title=" ">
<path fill="none" stroke="#63b8ff" d="M786.22,-56.27C747.24,-47.19 689.21,-33.67 647.02,-23.84"/>
<polygon fill="#63b8ff" stroke="#63b8ff" points="647.85,-20.44 637.32,-21.58 646.26,-27.26 647.85,-20.44"/>
</a>
</g>
</g>
</g>
</svg>
