<?xml version="1.0" encoding="UTF-8" standalone="no"?>
<!DOCTYPE svg PUBLIC "-//W3C//DTD SVG 1.1//EN"
 "http://www.w3.org/Graphics/SVG/1.1/DTD/svg11.dtd">
<!-- Generated by graphviz version 12.2.1 (20241206.2353)
 -->
<!-- Title: loop Pages: 1 -->
<svg width="581pt" height="553pt"
 viewBox="0.00 0.00 581.25 553.12" xmlns="http://www.w3.org/2000/svg" xmlns:xlink="http://www.w3.org/1999/xlink">
<g id="graph0" class="graph" transform="scale(1 1) rotate(0) translate(4 549.12)">
<title>loop</title>
<!-- Node1 -->
<g id="Node000001" class="node">
<title>Node1</title>
<g id="a_Node000001"><a xlink:title=" ">
<polygon fill="#999999" stroke="#666666" points="37,-286.12 0,-286.12 0,-265.38 37,-265.38 37,-286.12"/>
<text text-anchor="middle" x="18.5" y="-272.62" font-family="Helvetica,sans-Serif" font-size="10.00">loop</text>
</a>
</g>
</g>
<!-- Node2 -->
<g id="Node000002" class="node">
<title>Node2</title>
<g id="a_Node000002"><a xlink:href="../../d6/d9d/_noise_8ino.html#a695b396822bbfb2d9b29c121cf13e8f3" target="_top" xlink:title=" ">
<polygon fill="white" stroke="#666666" points="149.38,-427.12 89.12,-427.12 89.12,-406.38 149.38,-406.38 149.38,-427.12"/>
<text text-anchor="middle" x="119.25" y="-413.62" font-family="Helvetica,sans-Serif" font-size="10.00">fillnoise8</text>
</a>
</g>
</g>
<!-- Node1&#45;&gt;Node2 -->
<g id="edge1_Node000001_Node000002" class="edge">
<title>Node1&#45;&gt;Node2</title>
<g id="a_edge1_Node000001_Node000002"><a xlink:title=" ">
<path fill="none" stroke="#63b8ff" d="M26.92,-286.35C43.36,-309.82 83.08,-366.53 104.31,-396.84"/>
<polygon fill="#63b8ff" stroke="#63b8ff" points="101.27,-398.61 109.87,-404.79 107,-394.59 101.27,-398.61"/>
</a>
</g>
</g>
<!-- Node11 -->
<g id="Node000011" class="node">
<title>Node11</title>
<g id="a_Node000011"><a xlink:href="../../d2/d0d/group___random.html#ga17034d936ef716efe820e11c1df043b0" target="_top" xlink:title="Generate a 16&#45;bit random number.">
<polygon fill="white" stroke="#666666" points="152,-306.12 86.5,-306.12 86.5,-285.38 152,-285.38 152,-306.12"/>
<text text-anchor="middle" x="119.25" y="-292.62" font-family="Helvetica,sans-Serif" font-size="10.00">random16</text>
</a>
</g>
</g>
<!-- Node1&#45;&gt;Node11 -->
<g id="edge5_Node000001_Node000011" class="edge">
<title>Node1&#45;&gt;Node11</title>
<g id="a_edge5_Node000001_Node000011"><a xlink:title=" ">
<path fill="none" stroke="#63b8ff" d="M37.15,-279.33C47.82,-281.48 61.9,-284.34 75.34,-287.06"/>
<polygon fill="#63b8ff" stroke="#63b8ff" points="74.4,-290.44 84.89,-288.99 75.79,-283.58 74.4,-290.44"/>
</a>
</g>
</g>
<!-- Node12 -->
<g id="Node000012" class="node">
<title>Node12</title>
<g id="a_Node000012"><a xlink:href="../../dd/dbb/class_c_fast_l_e_d.html#a83afdd1e2a21f33ac4f8d2610d6e331b" target="_top" xlink:title="Update all our controllers with the current led colors, using the passed in brightness.">
<polygon fill="white" stroke="#666666" points="165.5,-267.12 73,-267.12 73,-246.38 165.5,-246.38 165.5,-267.12"/>
<text text-anchor="middle" x="119.25" y="-253.62" font-family="Helvetica,sans-Serif" font-size="10.00">CFastLED::show</text>
</a>
</g>
</g>
<!-- Node1&#45;&gt;Node12 -->
<g id="edge6_Node000001_Node000012" class="edge">
<title>Node1&#45;&gt;Node12</title>
<g id="a_edge6_Node000001_Node000012"><a xlink:title=" ">
<path fill="none" stroke="#63b8ff" d="M37.15,-272.35C44.18,-271 52.68,-269.37 61.51,-267.67"/>
<polygon fill="#63b8ff" stroke="#63b8ff" points="62.13,-271.11 71.29,-265.79 60.81,-264.24 62.13,-271.11"/>
</a>
</g>
</g>
<!-- Node32 -->
<g id="Node000032" class="node">
<title>Node32</title>
<g id="a_Node000032"><a xlink:href="../../da/d2d/colorutils_8cpp.html#a7aa2d780d14ccc2f3ce3c493e01999eb" target="_top" xlink:title=" ">
<polygon fill="white" stroke="#666666" points="133.65,-228.12 104.85,-228.12 104.85,-207.38 133.65,-207.38 133.65,-228.12"/>
<text text-anchor="middle" x="119.25" y="-214.62" font-family="Helvetica,sans-Serif" font-size="10.00">XY</text>
</a>
</g>
</g>
<!-- Node1&#45;&gt;Node32 -->
<g id="edge29_Node000001_Node000032" class="edge">
<title>Node1&#45;&gt;Node32</title>
<g id="a_edge29_Node000001_Node000032"><a xlink:title=" ">
<path fill="none" stroke="#63b8ff" d="M33.07,-264.95C43.59,-256.87 58.74,-245.86 73,-237.75 79.66,-233.96 87.18,-230.38 94.15,-227.33"/>
<polygon fill="#63b8ff" stroke="#63b8ff" points="95.18,-230.69 103.04,-223.59 92.47,-224.24 95.18,-230.69"/>
</a>
</g>
</g>
<!-- Node3 -->
<g id="Node000003" class="node">
<title>Node3</title>
<g id="a_Node000003"><a xlink:href="../../d8/df9/group___noise_generation.html#gaa521ccca6038d7b5e881fe2e8f35d3bc" target="_top" xlink:title="8&#45;Bit, fixed point implementation of Perlin&#39;s noise.">
<polygon fill="white" stroke="#666666" points="316.5,-509.12 265.25,-509.12 265.25,-488.38 316.5,-488.38 316.5,-509.12"/>
<text text-anchor="middle" x="290.88" y="-495.62" font-family="Helvetica,sans-Serif" font-size="10.00">inoise8</text>
</a>
</g>
</g>
<!-- Node2&#45;&gt;Node3 -->
<g id="edge2_Node000002_Node000003" class="edge">
<title>Node2&#45;&gt;Node3</title>
<g id="a_edge2_Node000002_Node000003"><a xlink:title=" ">
<path fill="none" stroke="#63b8ff" d="M130.75,-427.48C145.3,-441.69 173.02,-466.49 201.5,-479.75 217.76,-487.32 237.11,-491.91 253.55,-494.69"/>
<polygon fill="#63b8ff" stroke="#63b8ff" points="253.02,-498.15 263.43,-496.17 254.06,-491.22 253.02,-498.15"/>
</a>
</g>
</g>
<!-- Node4 -->
<g id="Node000004" class="node">
<title>Node4</title>
<g id="a_Node000004"><a xlink:href="../../d8/df9/group___noise_generation.html#ga6c57ed3ea69e819c29602578ecbabd71" target="_top" xlink:title="8&#45;bit, fixed point implementation of Perlin&#39;s noise without scaling.">
<polygon fill="#fff0f0" stroke="red" points="532,-545.12 457.5,-545.12 457.5,-524.38 532,-524.38 532,-545.12"/>
<text text-anchor="middle" x="494.75" y="-531.62" font-family="Helvetica,sans-Serif" font-size="10.00">inoise8_raw</text>
</a>
</g>
</g>
<!-- Node3&#45;&gt;Node4 -->
<g id="edge3_Node000003_Node000004" class="edge">
<title>Node3&#45;&gt;Node4</title>
<g id="a_edge3_Node000003_Node000004"><a xlink:title=" ">
<path fill="none" stroke="#63b8ff" d="M316.63,-503.16C348.7,-508.88 405.32,-518.98 445.91,-526.22"/>
<polygon fill="#63b8ff" stroke="#63b8ff" points="445.21,-529.65 455.67,-527.96 446.44,-522.76 445.21,-529.65"/>
</a>
</g>
</g>
<!-- Node10 -->
<g id="Node000010" class="node">
<title>Node10</title>
<g id="a_Node000010"><a xlink:href="../../d5/d98/group___math.html#ga07133b3085824d0fcd4f5086d286c4b5" target="_top" xlink:title="Add one byte to another, saturating at 0xFF.">
<polygon fill="white" stroke="#666666" points="517.75,-506.12 471.75,-506.12 471.75,-485.38 517.75,-485.38 517.75,-506.12"/>
<text text-anchor="middle" x="494.75" y="-492.62" font-family="Helvetica,sans-Serif" font-size="10.00">qadd8</text>
</a>
</g>
</g>
<!-- Node3&#45;&gt;Node10 -->
<g id="edge4_Node000003_Node000010" class="edge">
<title>Node3&#45;&gt;Node10</title>
<g id="a_edge4_Node000003_Node000010"><a xlink:title=" ">
<path fill="none" stroke="#63b8ff" d="M316.63,-498.38C352.58,-497.85 419.37,-496.86 459.86,-496.25"/>
<polygon fill="#63b8ff" stroke="#63b8ff" points="459.82,-499.75 469.76,-496.11 459.71,-492.76 459.82,-499.75"/>
</a>
</g>
</g>
<!-- Node13 -->
<g id="Node000013" class="node">
<title>Node13</title>
<g id="a_Node000013"><a xlink:href="../../d6/d2c/class_c_l_e_d_controller.html#af9962ef739bdb3b590ee66f3780765d6" target="_top" xlink:title=" ">
<polygon fill="white" stroke="#666666" points="376.5,-419.12 205.25,-419.12 205.25,-398.38 376.5,-398.38 376.5,-419.12"/>
<text text-anchor="middle" x="290.88" y="-405.62" font-family="Helvetica,sans-Serif" font-size="10.00">CLEDController::beginShowLeds</text>
</a>
</g>
</g>
<!-- Node12&#45;&gt;Node13 -->
<g id="edge7_Node000012_Node000013" class="edge">
<title>Node12&#45;&gt;Node13</title>
<g id="a_edge7_Node000012_Node000013"><a xlink:title=" ">
<path fill="none" stroke="#63b8ff" d="M153.57,-267.52C157.99,-270.02 162.15,-273.07 165.5,-276.75 199.55,-314.18 164.73,-350 201.5,-384.75 204.63,-387.71 208.09,-390.31 211.77,-392.6"/>
<polygon fill="#63b8ff" stroke="#63b8ff" points="210.14,-395.69 220.62,-397.24 213.39,-389.49 210.14,-395.69"/>
</a>
</g>
</g>
<!-- Node15 -->
<g id="Node000015" class="node">
<title>Node15</title>
<g id="a_Node000015"><a xlink:href="../../d6/d2c/class_c_l_e_d_controller.html#a63f75cf7e55cf8da46db5fd27110bb3e" target="_top" xlink:title="How many LEDs does this controller manage?">
<polygon fill="white" stroke="#666666" points="552.25,-381.12 437.25,-381.12 437.25,-360.38 552.25,-360.38 552.25,-381.12"/>
<text text-anchor="middle" x="494.75" y="-367.62" font-family="Helvetica,sans-Serif" font-size="10.00">CLEDController::size</text>
</a>
</g>
</g>
<!-- Node12&#45;&gt;Node15 -->
<g id="edge28_Node000012_Node000015" class="edge">
<title>Node12&#45;&gt;Node15</title>
<g id="a_edge28_Node000012_Node000015"><a xlink:title=" ">
<path fill="none" stroke="#63b8ff" d="M152.23,-267.41C157.05,-269.96 161.68,-273.04 165.5,-276.75 192.05,-302.48 170.86,-331.05 201.5,-351.75 236.77,-375.57 350.88,-376.36 425.64,-374.06"/>
<polygon fill="#63b8ff" stroke="#63b8ff" points="425.44,-377.57 435.32,-373.73 425.2,-370.57 425.44,-377.57"/>
</a>
</g>
</g>
<!-- Node16 -->
<g id="Node000016" class="node">
<title>Node16</title>
<g id="a_Node000016"><a xlink:href="../../dd/dbb/class_c_fast_l_e_d.html#a61d27e179c9b68bde89d220aebc0de32" target="_top" xlink:title="For debugging, this will keep track of time between calls to countFPS().">
<polygon fill="white" stroke="#666666" points="346.88,-267.12 234.88,-267.12 234.88,-246.38 346.88,-246.38 346.88,-267.12"/>
<text text-anchor="middle" x="290.88" y="-253.62" font-family="Helvetica,sans-Serif" font-size="10.00">CFastLED::countFPS</text>
</a>
</g>
</g>
<!-- Node12&#45;&gt;Node16 -->
<g id="edge10_Node000012_Node000016" class="edge">
<title>Node12&#45;&gt;Node16</title>
<g id="a_edge10_Node000012_Node000016"><a xlink:title=" ">
<path fill="none" stroke="#63b8ff" d="M165.71,-256.75C183.34,-256.75 203.9,-256.75 223.15,-256.75"/>
<polygon fill="#63b8ff" stroke="#63b8ff" points="223.1,-260.25 233.1,-256.75 223.1,-253.25 223.1,-260.25"/>
</a>
</g>
</g>
<!-- Node17 -->
<g id="Node000017" class="node">
<title>Node17</title>
<g id="a_Node000017"><a xlink:href="../../d6/d2c/class_c_l_e_d_controller.html#a49b221af013bf196c2068e2cbd1c299d" target="_top" xlink:title=" ">
<polygon fill="white" stroke="#666666" points="372,-343.12 209.75,-343.12 209.75,-322.38 372,-322.38 372,-343.12"/>
<text text-anchor="middle" x="290.88" y="-329.62" font-family="Helvetica,sans-Serif" font-size="10.00">CLEDController::endShowLeds</text>
</a>
</g>
</g>
<!-- Node12&#45;&gt;Node17 -->
<g id="edge11_Node000012_Node000017" class="edge">
<title>Node12&#45;&gt;Node17</title>
<g id="a_edge11_Node000012_Node000017"><a xlink:title=" ">
<path fill="none" stroke="#63b8ff" d="M148.24,-267.49C154.12,-270.19 160.15,-273.31 165.5,-276.75 183.51,-288.33 182.67,-298.56 201.5,-308.75 208.44,-312.5 216.01,-315.7 223.7,-318.42"/>
<polygon fill="#63b8ff" stroke="#63b8ff" points="222.58,-321.74 233.17,-321.49 224.73,-315.08 222.58,-321.74"/>
</a>
</g>
</g>
<!-- Node18 -->
<g id="Node000018" class="node">
<title>Node18</title>
<g id="a_Node000018"><a xlink:href="../../d6/d2c/class_c_l_e_d_controller.html#a2a231accbeb00e6a6080a7e55274a279" target="_top" xlink:title="Set the dithering mode for this controller to use.">
<polygon fill="white" stroke="#666666" points="565,-323.12 424.5,-323.12 424.5,-302.38 565,-302.38 565,-323.12"/>
<text text-anchor="middle" x="494.75" y="-309.62" font-family="Helvetica,sans-Serif" font-size="10.00">CLEDController::setDither</text>
</a>
</g>
</g>
<!-- Node12&#45;&gt;Node18 -->
<g id="edge25_Node000012_Node000018" class="edge">
<title>Node12&#45;&gt;Node18</title>
<g id="a_edge25_Node000012_Node000018"><a xlink:title=" ">
<path fill="none" stroke="#63b8ff" d="M162.67,-267.55C175.12,-270.48 188.81,-273.47 201.5,-275.75 272.55,-288.52 354.1,-298.46 412.97,-304.8"/>
<polygon fill="#63b8ff" stroke="#63b8ff" points="412.24,-308.24 422.55,-305.82 412.98,-301.28 412.24,-308.24"/>
</a>
</g>
</g>
<!-- Node19 -->
<g id="Node000019" class="node">
<title>Node19</title>
<g id="a_Node000019"><a xlink:href="../../d6/d2c/class_c_l_e_d_controller.html#a6bd253f670640ea4d1bd0d71b8029f2a" target="_top" xlink:title=" ">
<polygon fill="white" stroke="#666666" points="366,-150.12 215.75,-150.12 215.75,-129.38 366,-129.38 366,-150.12"/>
<text text-anchor="middle" x="290.88" y="-136.62" font-family="Helvetica,sans-Serif" font-size="10.00">CLEDController::getEnabled</text>
</a>
</g>
</g>
<!-- Node12&#45;&gt;Node19 -->
<g id="edge13_Node000012_Node000019" class="edge">
<title>Node12&#45;&gt;Node19</title>
<g id="a_edge13_Node000012_Node000019"><a xlink:title=" ">
<path fill="none" stroke="#63b8ff" d="M152.27,-246.12C157.08,-243.57 161.69,-240.48 165.5,-236.75 192.49,-210.32 172.08,-183.45 201.5,-159.75 203.2,-158.38 204.98,-157.1 206.81,-155.91"/>
<polygon fill="#63b8ff" stroke="#63b8ff" points="208.06,-159.22 215.13,-151.33 204.68,-153.08 208.06,-159.22"/>
</a>
</g>
</g>
<!-- Node20 -->
<g id="Node000020" class="node">
<title>Node20</title>
<g id="a_Node000020"><a xlink:href="../../d6/d2c/class_c_l_e_d_controller.html#a8b412ff1fd4833d0db63a175d40a2ee0" target="_top" xlink:title="Get the first LED controller in the linked list of controllers.">
<polygon fill="white" stroke="#666666" points="350.62,-111.12 231.12,-111.12 231.12,-90.38 350.62,-90.38 350.62,-111.12"/>
<text text-anchor="middle" x="290.88" y="-97.62" font-family="Helvetica,sans-Serif" font-size="10.00">CLEDController::head</text>
</a>
</g>
</g>
<!-- Node12&#45;&gt;Node20 -->
<g id="edge14_Node000012_Node000020" class="edge">
<title>Node12&#45;&gt;Node20</title>
<g id="a_edge14_Node000012_Node000020"><a xlink:title=" ">
<path fill="none" stroke="#63b8ff" d="M153.64,-246.04C158.05,-243.53 162.19,-240.47 165.5,-236.75 201.41,-196.44 161.86,-157.4 201.5,-120.75 207.01,-115.66 213.54,-111.77 220.51,-108.81"/>
<polygon fill="#63b8ff" stroke="#63b8ff" points="221.28,-112.25 229.54,-105.61 218.95,-105.65 221.28,-112.25"/>
</a>
</g>
</g>
<!-- Node21 -->
<g id="Node000021" class="node">
<title>Node21</title>
<g id="a_Node000021"><a xlink:href="../../d6/d2c/class_c_l_e_d_controller.html#a21a4d2b3415dd7b24175ebdb51c9ced0" target="_top" xlink:title="Get the next controller in the linked list after this one.">
<polygon fill="white" stroke="#666666" points="349.5,-72.12 232.25,-72.12 232.25,-51.38 349.5,-51.38 349.5,-72.12"/>
<text text-anchor="middle" x="290.88" y="-58.62" font-family="Helvetica,sans-Serif" font-size="10.00">CLEDController::next</text>
</a>
</g>
</g>
<!-- Node12&#45;&gt;Node21 -->
<g id="edge15_Node000012_Node000021" class="edge">
<title>Node12&#45;&gt;Node21</title>
<g id="a_edge15_Node000012_Node000021"><a xlink:title=" ">
<path fill="none" stroke="#63b8ff" d="M154.34,-245.99C158.54,-243.5 162.43,-240.46 165.5,-236.75 210.59,-182.27 151.35,-131.62 201.5,-81.75 207.11,-76.17 213.93,-72.01 221.26,-68.93"/>
<polygon fill="#63b8ff" stroke="#63b8ff" points="222.16,-72.32 230.47,-65.75 219.87,-65.71 222.16,-72.32"/>
</a>
</g>
</g>
<!-- Node22 -->
<g id="Node000022" class="node">
<title>Node22</title>
<g id="a_Node000022"><a xlink:href="../../de/dca/classfl_1_1_engine_events.html#a7147debfba714b8ab0925af1a7c935c0" target="_top" xlink:title=" ">
<polygon fill="white" stroke="#666666" points="360.75,-33.5 221,-33.5 221,0 360.75,0 360.75,-33.5"/>
<text text-anchor="start" x="229" y="-20" font-family="Helvetica,sans-Serif" font-size="10.00">fl::EngineEvents::onBegin</text>
<text text-anchor="middle" x="290.88" y="-7.25" font-family="Helvetica,sans-Serif" font-size="10.00">Frame</text>
</a>
</g>
</g>
<!-- Node12&#45;&gt;Node22 -->
<g id="edge16_Node000012_Node000022" class="edge">
<title>Node12&#45;&gt;Node22</title>
<g id="a_edge16_Node000012_Node000022"><a xlink:title=" ">
<path fill="none" stroke="#63b8ff" d="M154.49,-246.11C158.67,-243.6 162.52,-240.52 165.5,-236.75 219.89,-167.96 142.75,-107.86 201.5,-42.75 204.35,-39.6 207.55,-36.82 211.01,-34.37"/>
<polygon fill="#63b8ff" stroke="#63b8ff" points="212.58,-37.51 219.4,-29.4 209.01,-31.49 212.58,-37.51"/>
</a>
</g>
</g>
<!-- Node26 -->
<g id="Node000026" class="node">
<title>Node26</title>
<g id="a_Node000026"><a xlink:href="../../de/dca/classfl_1_1_engine_events.html#ab7d24c4783214392de84947cd7df5570" target="_top" xlink:title=" ">
<polygon fill="white" stroke="#666666" points="371.25,-228.12 210.5,-228.12 210.5,-207.38 371.25,-207.38 371.25,-228.12"/>
<text text-anchor="middle" x="290.88" y="-214.62" font-family="Helvetica,sans-Serif" font-size="10.00">fl::EngineEvents::onEndFrame</text>
</a>
</g>
</g>
<!-- Node12&#45;&gt;Node26 -->
<g id="edge19_Node000012_Node000026" class="edge">
<title>Node12&#45;&gt;Node26</title>
<g id="a_edge19_Node000012_Node000026"><a xlink:title=" ">
<path fill="none" stroke="#63b8ff" d="M165.79,-246.04C177.43,-243.32 189.92,-240.41 201.5,-237.75 210.87,-235.6 220.79,-233.33 230.48,-231.13"/>
<polygon fill="#63b8ff" stroke="#63b8ff" points="231.25,-234.55 240.23,-228.92 229.7,-227.72 231.25,-234.55"/>
</a>
</g>
</g>
<!-- Node28 -->
<g id="Node000028" class="node">
<title>Node28</title>
<g id="a_Node000028"><a xlink:href="../../de/dca/classfl_1_1_engine_events.html#af1bb9a46fdc6694a1b5c87a49c516ae8" target="_top" xlink:title=" ">
<polygon fill="white" stroke="#666666" points="380.25,-189.12 201.5,-189.12 201.5,-168.38 380.25,-168.38 380.25,-189.12"/>
<text text-anchor="middle" x="290.88" y="-175.62" font-family="Helvetica,sans-Serif" font-size="10.00">fl::EngineEvents::onEndShowLeds</text>
</a>
</g>
</g>
<!-- Node12&#45;&gt;Node28 -->
<g id="edge22_Node000012_Node000028" class="edge">
<title>Node12&#45;&gt;Node28</title>
<g id="a_edge22_Node000012_Node000028"><a xlink:title=" ">
<path fill="none" stroke="#63b8ff" d="M149.42,-245.91C154.98,-243.28 160.59,-240.22 165.5,-236.75 184.51,-223.34 181.28,-210.26 201.5,-198.75 204.88,-196.82 208.44,-195.08 212.1,-193.51"/>
<polygon fill="#63b8ff" stroke="#63b8ff" points="213.13,-196.86 221.24,-190.04 210.65,-190.32 213.13,-196.86"/>
</a>
</g>
</g>
<!-- Node30 -->
<g id="Node000030" class="node">
<title>Node30</title>
<g id="a_Node000030"><a xlink:href="../../d6/d2c/class_c_l_e_d_controller.html#ac5355e980ac13d9ae97561f183f73990" target="_top" xlink:title="Write the data to the LEDs managed by this controller.">
<polygon fill="white" stroke="#666666" points="362.62,-470.5 219.12,-470.5 219.12,-437 362.62,-437 362.62,-470.5"/>
<text text-anchor="start" x="227.12" y="-457" font-family="Helvetica,sans-Serif" font-size="10.00">CLEDController::showLeds</text>
<text text-anchor="middle" x="290.88" y="-444.25" font-family="Helvetica,sans-Serif" font-size="10.00">Internal</text>
</a>
</g>
</g>
<!-- Node12&#45;&gt;Node30 -->
<g id="edge26_Node000012_Node000030" class="edge">
<title>Node12&#45;&gt;Node30</title>
<g id="a_edge26_Node000012_Node000030"><a xlink:title=" ">
<path fill="none" stroke="#63b8ff" d="M154.32,-267.53C158.53,-270.02 162.42,-273.05 165.5,-276.75 209.65,-329.77 154,-377.71 201.5,-427.75 203.82,-430.2 206.36,-432.42 209.07,-434.43"/>
<polygon fill="#63b8ff" stroke="#63b8ff" points="207.21,-437.4 217.55,-439.72 210.91,-431.46 207.21,-437.4"/>
</a>
</g>
</g>
<!-- Node14 -->
<g id="Node000014" class="node">
<title>Node14</title>
<g id="a_Node000014"><a xlink:href="../../d6/d2c/class_c_l_e_d_controller.html#a676f705adf93898739a405b85150a3e7" target="_top" xlink:title="Get the dithering option currently set for this controller.">
<polygon fill="white" stroke="#666666" points="565.38,-420.12 424.12,-420.12 424.12,-399.38 565.38,-399.38 565.38,-420.12"/>
<text text-anchor="middle" x="494.75" y="-406.62" font-family="Helvetica,sans-Serif" font-size="10.00">CLEDController::getDither</text>
</a>
</g>
</g>
<!-- Node13&#45;&gt;Node14 -->
<g id="edge8_Node000013_Node000014" class="edge">
<title>Node13&#45;&gt;Node14</title>
<g id="a_edge8_Node000013_Node000014"><a xlink:title=" ">
<path fill="none" stroke="#63b8ff" d="M376.9,-409.17C388.62,-409.23 400.63,-409.29 412.29,-409.35"/>
<polygon fill="#63b8ff" stroke="#63b8ff" points="412.26,-412.85 422.28,-409.4 412.3,-405.85 412.26,-412.85"/>
</a>
</g>
</g>
<!-- Node13&#45;&gt;Node15 -->
<g id="edge9_Node000013_Node000015" class="edge">
<title>Node13&#45;&gt;Node15</title>
<g id="a_edge9_Node000013_Node000015"><a xlink:title=" ">
<path fill="none" stroke="#63b8ff" d="M349.45,-397.91C373.2,-393.44 400.91,-388.23 425.66,-383.57"/>
<polygon fill="#63b8ff" stroke="#63b8ff" points="426.13,-387.04 435.31,-381.75 424.83,-380.16 426.13,-387.04"/>
</a>
</g>
</g>
<!-- Node17&#45;&gt;Node18 -->
<g id="edge12_Node000017_Node000018" class="edge">
<title>Node17&#45;&gt;Node18</title>
<g id="a_edge12_Node000017_Node000018"><a xlink:title=" ">
<path fill="none" stroke="#63b8ff" d="M372.24,-324.79C385.64,-323.46 399.55,-322.08 412.96,-320.75"/>
<polygon fill="#63b8ff" stroke="#63b8ff" points="412.97,-324.27 422.58,-319.8 412.28,-317.3 412.97,-324.27"/>
</a>
</g>
</g>
<!-- Node23 -->
<g id="Node000023" class="node">
<title>Node23</title>
<g id="a_Node000023"><a xlink:href="../../de/dca/classfl_1_1_engine_events.html#a9dfab83407c4cb0c15065e242d49de62" target="_top" xlink:title=" ">
<polygon fill="white" stroke="#666666" points="544.75,-33.5 444.75,-33.5 444.75,0 544.75,0 544.75,-33.5"/>
<text text-anchor="start" x="452.75" y="-20" font-family="Helvetica,sans-Serif" font-size="10.00">fl::EngineEvents::</text>
<text text-anchor="middle" x="494.75" y="-7.25" font-family="Helvetica,sans-Serif" font-size="10.00">_onBeginFrame</text>
</a>
</g>
</g>
<!-- Node22&#45;&gt;Node23 -->
<g id="edge17_Node000022_Node000023" class="edge">
<title>Node22&#45;&gt;Node23</title>
<g id="a_edge17_Node000022_Node000023"><a xlink:title=" ">
<path fill="none" stroke="#63b8ff" d="M361.07,-16.75C384.5,-16.75 410.48,-16.75 433.19,-16.75"/>
<polygon fill="#63b8ff" stroke="#63b8ff" points="432.88,-20.25 442.88,-16.75 432.88,-13.25 432.88,-20.25"/>
</a>
</g>
</g>
<!-- Node24 -->
<g id="Node000024" class="node">
<title>Node24</title>
<g id="a_Node000024"><a xlink:href="../../de/dca/classfl_1_1_engine_events.html#a34a4625c4fbcf754f70820bc4f0e418b" target="_top" xlink:title=" ">
<polygon fill="#fff0f0" stroke="red" points="573.25,-189.12 416.25,-189.12 416.25,-168.38 573.25,-168.38 573.25,-189.12"/>
<text text-anchor="middle" x="494.75" y="-175.62" font-family="Helvetica,sans-Serif" font-size="10.00">fl::EngineEvents::getInstance</text>
</a>
</g>
</g>
<!-- Node22&#45;&gt;Node24 -->
<g id="edge18_Node000022_Node000024" class="edge">
<title>Node22&#45;&gt;Node24</title>
<g id="a_edge18_Node000022_Node000024"><a xlink:title=" ">
<path fill="none" stroke="#63b8ff" d="M360.84,-29.46C368,-32.89 374.67,-37.24 380.25,-42.75 418.96,-80.98 376.68,-122.41 416.25,-159.75 416.89,-160.36 417.55,-160.94 418.22,-161.51"/>
<polygon fill="#63b8ff" stroke="#63b8ff" points="416.23,-164.39 426.46,-167.11 420.16,-158.6 416.23,-164.39"/>
</a>
</g>
</g>
<!-- Node26&#45;&gt;Node24 -->
<g id="edge21_Node000026_Node000024" class="edge">
<title>Node26&#45;&gt;Node24</title>
<g id="a_edge21_Node000026_Node000024"><a xlink:title=" ">
<path fill="none" stroke="#63b8ff" d="M348.11,-206.89C372.4,-202.19 401.01,-196.67 426.42,-191.76"/>
<polygon fill="#63b8ff" stroke="#63b8ff" points="426.83,-195.24 435.98,-189.91 425.5,-188.37 426.83,-195.24"/>
</a>
</g>
</g>
<!-- Node27 -->
<g id="Node000027" class="node">
<title>Node27</title>
<g id="a_Node000027"><a xlink:href="../../de/dca/classfl_1_1_engine_events.html#a643d9a8597b79d76daed94c29845e886" target="_top" xlink:title=" ">
<polygon fill="white" stroke="#666666" points="544.75,-240.5 444.75,-240.5 444.75,-207 544.75,-207 544.75,-240.5"/>
<text text-anchor="start" x="452.75" y="-227" font-family="Helvetica,sans-Serif" font-size="10.00">fl::EngineEvents::</text>
<text text-anchor="middle" x="494.75" y="-214.25" font-family="Helvetica,sans-Serif" font-size="10.00">_onEndFrame</text>
</a>
</g>
</g>
<!-- Node26&#45;&gt;Node27 -->
<g id="edge20_Node000026_Node000027" class="edge">
<title>Node26&#45;&gt;Node27</title>
<g id="a_edge20_Node000026_Node000027"><a xlink:title=" ">
<path fill="none" stroke="#63b8ff" d="M371.66,-220.12C392.11,-220.73 413.77,-221.37 433.08,-221.95"/>
<polygon fill="#63b8ff" stroke="#63b8ff" points="432.85,-225.44 442.95,-222.24 433.05,-218.44 432.85,-225.44"/>
</a>
</g>
</g>
<!-- Node28&#45;&gt;Node24 -->
<g id="edge24_Node000028_Node000024" class="edge">
<title>Node28&#45;&gt;Node24</title>
<g id="a_edge24_Node000028_Node000024"><a xlink:title=" ">
<path fill="none" stroke="#63b8ff" d="M380.71,-178.75C388.6,-178.75 396.59,-178.75 404.48,-178.75"/>
<polygon fill="#63b8ff" stroke="#63b8ff" points="404.44,-182.25 414.44,-178.75 404.44,-175.25 404.44,-182.25"/>
</a>
</g>
</g>
<!-- Node29 -->
<g id="Node000029" class="node">
<title>Node29</title>
<g id="a_Node000029"><a xlink:href="../../de/dca/classfl_1_1_engine_events.html#ae6b4037ab7b73bf0d69e07c4956f9450" target="_top" xlink:title=" ">
<polygon fill="white" stroke="#666666" points="544.75,-150.5 444.75,-150.5 444.75,-117 544.75,-117 544.75,-150.5"/>
<text text-anchor="start" x="452.75" y="-137" font-family="Helvetica,sans-Serif" font-size="10.00">fl::EngineEvents::</text>
<text text-anchor="middle" x="494.75" y="-124.25" font-family="Helvetica,sans-Serif" font-size="10.00">_onEndShowLeds</text>
</a>
</g>
</g>
<!-- Node28&#45;&gt;Node29 -->
<g id="edge23_Node000028_Node000029" class="edge">
<title>Node28&#45;&gt;Node29</title>
<g id="a_edge23_Node000028_Node000029"><a xlink:title=" ">
<path fill="none" stroke="#63b8ff" d="M340.49,-167.91C368.42,-161.69 403.74,-153.81 433.43,-147.2"/>
<polygon fill="#63b8ff" stroke="#63b8ff" points="434.03,-150.65 443.03,-145.06 432.51,-143.82 434.03,-150.65"/>
</a>
</g>
</g>
<!-- Node31 -->
<g id="Node000031" class="node">
<title>Node31</title>
<g id="a_Node000031"><a xlink:href="../../d6/d2c/class_c_l_e_d_controller.html#afc8fb063666d03527aabc86d8531e007" target="_top" xlink:title="Write the passed in RGB data out to the LEDs managed by this controller.">
<polygon fill="white" stroke="#666666" points="555.25,-464.12 434.25,-464.12 434.25,-443.38 555.25,-443.38 555.25,-464.12"/>
<text text-anchor="middle" x="494.75" y="-450.62" font-family="Helvetica,sans-Serif" font-size="10.00">CLEDController::show</text>
</a>
</g>
</g>
<!-- Node30&#45;&gt;Node31 -->
<g id="edge27_Node000030_Node000031" class="edge">
<title>Node30&#45;&gt;Node31</title>
<g id="a_edge27_Node000030_Node000031"><a xlink:title=" ">
<path fill="none" stroke="#63b8ff" d="M363.05,-453.75C382.32,-453.75 403.17,-453.75 422.45,-453.75"/>
<polygon fill="#63b8ff" stroke="#63b8ff" points="422.39,-457.25 432.39,-453.75 422.39,-450.25 422.39,-457.25"/>
</a>
</g>
</g>
</g>
</svg>
