<?xml version="1.0" encoding="UTF-8" standalone="no"?>
<!DOCTYPE svg PUBLIC "-//W3C//DTD SVG 1.1//EN"
 "http://www.w3.org/Graphics/SVG/1.1/DTD/svg11.dtd">
<!-- Generated by graphviz version 12.2.1 (20241206.2353)
 -->
<!-- Title: CRGB::blend Pages: 1 -->
<svg width="459pt" height="68pt"
 viewBox="0.00 0.00 459.00 67.75" xmlns="http://www.w3.org/2000/svg" xmlns:xlink="http://www.w3.org/1999/xlink">
<g id="graph0" class="graph" transform="scale(1 1) rotate(0) translate(4 63.75)">
<title>CRGB::blend</title>
<!-- Node1 -->
<g id="Node000001" class="node">
<title>Node1</title>
<g id="a_Node000001"><a xlink:title=" ">
<polygon fill="#999999" stroke="#666666" points="451,-39.75 374.25,-39.75 374.25,-19 451,-19 451,-39.75"/>
<text text-anchor="middle" x="412.62" y="-26.25" font-family="Helvetica,sans-Serif" font-size="10.00">CRGB::blend</text>
</a>
</g>
</g>
<!-- Node2 -->
<g id="Node000002" class="node">
<title>Node2</title>
<g id="a_Node000002"><a xlink:href="../../d7/df1/classfl_1_1_fx_compositor.html#aade5cf1a5c03eb71c39f8ed58c981e96" target="_top" xlink:title=" ">
<polygon fill="white" stroke="#666666" points="338.25,-59.75 212,-59.75 212,-39 338.25,-39 338.25,-59.75"/>
<text text-anchor="middle" x="275.12" y="-46.25" font-family="Helvetica,sans-Serif" font-size="10.00">fl::FxCompositor::draw</text>
</a>
</g>
</g>
<!-- Node1&#45;&gt;Node2 -->
<g id="edge1_Node000001_Node000002" class="edge">
<title>Node1&#45;&gt;Node2</title>
<g id="a_edge1_Node000001_Node000002"><a xlink:title=" ">
<path fill="none" stroke="#63b8ff" d="M362.72,-36.59C354.89,-37.75 346.69,-38.96 338.59,-40.16"/>
<polygon fill="#63b8ff" stroke="#63b8ff" points="363,-40.09 372.38,-35.17 361.98,-33.16 363,-40.09"/>
</a>
</g>
</g>
<!-- Node5 -->
<g id="Node000005" class="node">
<title>Node5</title>
<g id="a_Node000005"><a xlink:href="../../d1/de0/classfl_1_1_frame.html#a18b6f7181804a0392e40796f46352115" target="_top" xlink:title=" ">
<polygon fill="white" stroke="#666666" points="334.12,-20.75 216.12,-20.75 216.12,0 334.12,0 334.12,-20.75"/>
<text text-anchor="middle" x="275.12" y="-7.25" font-family="Helvetica,sans-Serif" font-size="10.00">fl::Frame::interpolate</text>
</a>
</g>
</g>
<!-- Node1&#45;&gt;Node5 -->
<g id="edge4_Node000001_Node000005" class="edge">
<title>Node1&#45;&gt;Node5</title>
<g id="a_edge4_Node000001_Node000005"><a xlink:title=" ">
<path fill="none" stroke="#63b8ff" d="M362.63,-22.5C353.49,-21.22 343.85,-19.87 334.47,-18.56"/>
<polygon fill="#63b8ff" stroke="#63b8ff" points="361.99,-25.95 372.38,-23.87 362.96,-19.02 361.99,-25.95"/>
</a>
</g>
</g>
<!-- Node3 -->
<g id="Node000003" class="node">
<title>Node3</title>
<g id="a_Node000003"><a xlink:href="../../d4/d60/classfl_1_1_fx_engine.html#aa0b3b17d66712b3c2184d8c59c6b55f1" target="_top" xlink:title="Renders the current effect or transition to the output buffer.">
<polygon fill="white" stroke="#666666" points="176,-59.75 73,-59.75 73,-39 176,-39 176,-59.75"/>
<text text-anchor="middle" x="124.5" y="-46.25" font-family="Helvetica,sans-Serif" font-size="10.00">fl::FxEngine::draw</text>
</a>
</g>
</g>
<!-- Node2&#45;&gt;Node3 -->
<g id="edge2_Node000002_Node000003" class="edge">
<title>Node2&#45;&gt;Node3</title>
<g id="a_edge2_Node000002_Node000003"><a xlink:title=" ">
<path fill="none" stroke="#63b8ff" d="M200.16,-49.38C192.09,-49.38 184.01,-49.38 176.31,-49.38"/>
<polygon fill="#63b8ff" stroke="#63b8ff" points="200.01,-52.88 210.01,-49.38 200.01,-45.88 200.01,-52.88"/>
</a>
</g>
</g>
<!-- Node4 -->
<g id="Node000004" class="node">
<title>Node4</title>
<g id="a_Node000004"><a xlink:href="../../dd/d96/_fx_animartrix_8ino.html#afe461d27b9c48d5921c00d521181f12f" target="_top" xlink:title=" ">
<polygon fill="white" stroke="#666666" points="37,-59.75 0,-59.75 0,-39 37,-39 37,-59.75"/>
<text text-anchor="middle" x="18.5" y="-46.25" font-family="Helvetica,sans-Serif" font-size="10.00">loop</text>
</a>
</g>
</g>
<!-- Node3&#45;&gt;Node4 -->
<g id="edge3_Node000003_Node000004" class="edge">
<title>Node3&#45;&gt;Node4</title>
<g id="a_edge3_Node000003_Node000004"><a xlink:title=" ">
<path fill="none" stroke="#63b8ff" d="M61.38,-49.38C52.54,-49.38 44.11,-49.38 37.16,-49.38"/>
<polygon fill="#63b8ff" stroke="#63b8ff" points="61.21,-52.88 71.21,-49.38 61.21,-45.88 61.21,-52.88"/>
</a>
</g>
</g>
</g>
</svg>
