<?xml version="1.0" encoding="UTF-8" standalone="no"?>
<!DOCTYPE svg PUBLIC "-//W3C//DTD SVG 1.1//EN"
 "http://www.w3.org/Graphics/SVG/1.1/DTD/svg11.dtd">
<!-- Generated by graphviz version 12.2.1 (20241206.2353)
 -->
<!-- Title: CRGB::lerp16 Pages: 1 -->
<svg width="285pt" height="29pt"
 viewBox="0.00 0.00 284.75 28.75" xmlns="http://www.w3.org/2000/svg" xmlns:xlink="http://www.w3.org/1999/xlink">
<g id="graph0" class="graph" transform="scale(1 1) rotate(0) translate(4 24.75)">
<title>CRGB::lerp16</title>
<!-- Node1 -->
<g id="Node000001" class="node">
<title>Node1</title>
<g id="a_Node000001"><a xlink:title="Return a new CRGB object after performing a linear interpolation between this object and the passed i...">
<polygon fill="#999999" stroke="#666666" points="80.5,-20.75 0,-20.75 0,0 80.5,0 80.5,-20.75"/>
<text text-anchor="middle" x="40.25" y="-7.25" font-family="Helvetica,sans-Serif" font-size="10.00">CRGB::lerp16</text>
</a>
</g>
</g>
<!-- Node2 -->
<g id="Node000002" class="node">
<title>Node2</title>
<g id="a_Node000002"><a xlink:href="../../d6/d19/group___linear_interpolation.html#ga7c02960d0f26e90054c7312e5f9a55b3" target="_top" xlink:title="Linear interpolation between two unsigned 16&#45;bit values, with 16&#45;bit fraction.">
<polygon fill="white" stroke="#666666" points="187.25,-20.75 116.5,-20.75 116.5,0 187.25,0 187.25,-20.75"/>
<text text-anchor="middle" x="151.88" y="-7.25" font-family="Helvetica,sans-Serif" font-size="10.00">lerp16by16</text>
</a>
</g>
</g>
<!-- Node1&#45;&gt;Node2 -->
<g id="edge1_Node000001_Node000002" class="edge">
<title>Node1&#45;&gt;Node2</title>
<g id="a_edge1_Node000001_Node000002"><a xlink:title=" ">
<path fill="none" stroke="#63b8ff" d="M80.83,-10.38C88.57,-10.38 96.76,-10.38 104.7,-10.38"/>
<polygon fill="#63b8ff" stroke="#63b8ff" points="104.56,-13.88 114.56,-10.38 104.56,-6.88 104.56,-13.88"/>
</a>
</g>
</g>
<!-- Node3 -->
<g id="Node000003" class="node">
<title>Node3</title>
<g id="a_Node000003"><a xlink:href="../../d0/da8/group___scaling.html#ga1ff8ac00ad78e22acc7bb7445bfdb145" target="_top" xlink:title="Scale a 16&#45;bit unsigned value by an 16&#45;bit value, which is treated as the numerator of a fraction who...">
<polygon fill="white" stroke="#666666" points="276.75,-20.75 223.25,-20.75 223.25,0 276.75,0 276.75,-20.75"/>
<text text-anchor="middle" x="250" y="-7.25" font-family="Helvetica,sans-Serif" font-size="10.00">scale16</text>
</a>
</g>
</g>
<!-- Node2&#45;&gt;Node3 -->
<g id="edge2_Node000002_Node000003" class="edge">
<title>Node2&#45;&gt;Node3</title>
<g id="a_edge2_Node000002_Node000003"><a xlink:title=" ">
<path fill="none" stroke="#63b8ff" d="M187.58,-10.38C195.29,-10.38 203.5,-10.38 211.33,-10.38"/>
<polygon fill="#63b8ff" stroke="#63b8ff" points="211.28,-13.88 221.28,-10.38 211.28,-6.88 211.28,-13.88"/>
</a>
</g>
</g>
</g>
</svg>
