<?xml version="1.0" encoding="UTF-8" standalone="no"?>
<!DOCTYPE svg PUBLIC "-//W3C//DTD SVG 1.1//EN"
 "http://www.w3.org/Graphics/SVG/1.1/DTD/svg11.dtd">
<!-- Generated by graphviz version 12.2.1 (20241206.2353)
 -->
<!-- Title: CRGB::operator++ Pages: 1 -->
<svg width="333pt" height="29pt"
 viewBox="0.00 0.00 332.75 28.75" xmlns="http://www.w3.org/2000/svg" xmlns:xlink="http://www.w3.org/1999/xlink">
<g id="graph0" class="graph" transform="scale(1 1) rotate(0) translate(4 24.75)">
<title>CRGB::operator++</title>
<!-- Node1 -->
<g id="Node000001" class="node">
<title>Node1</title>
<g id="a_Node000001"><a xlink:title="Add a constant of &#39;1&#39; from each channel, saturating at 0xFF.">
<polygon fill="#999999" stroke="#666666" points="107.5,-20.75 0,-20.75 0,0 107.5,0 107.5,-20.75"/>
<text text-anchor="middle" x="53.75" y="-7.25" font-family="Helvetica,sans-Serif" font-size="10.00">CRGB::operator++</text>
</a>
</g>
</g>
<!-- Node2 -->
<g id="Node000002" class="node">
<title>Node2</title>
<g id="a_Node000002"><a xlink:href="../../db/d87/group___pixel_types.html#a971eb811b79c5748d02a0abc2162a223" target="_top" xlink:title="Add a constant to each channel, saturating at 0xFF.">
<polygon fill="white" stroke="#666666" points="242.75,-20.75 143.5,-20.75 143.5,0 242.75,0 242.75,-20.75"/>
<text text-anchor="middle" x="193.12" y="-7.25" font-family="Helvetica,sans-Serif" font-size="10.00">CRGB::addToRGB</text>
</a>
</g>
</g>
<!-- Node1&#45;&gt;Node2 -->
<g id="edge1_Node000001_Node000002" class="edge">
<title>Node1&#45;&gt;Node2</title>
<g id="a_edge1_Node000001_Node000002"><a xlink:title=" ">
<path fill="none" stroke="#63b8ff" d="M107.86,-10.38C115.67,-10.38 123.77,-10.38 131.72,-10.38"/>
<polygon fill="#63b8ff" stroke="#63b8ff" points="131.69,-13.88 141.69,-10.38 131.69,-6.88 131.69,-13.88"/>
</a>
</g>
</g>
<!-- Node3 -->
<g id="Node000003" class="node">
<title>Node3</title>
<g id="a_Node000003"><a xlink:href="../../d5/d98/group___math.html#ga07133b3085824d0fcd4f5086d286c4b5" target="_top" xlink:title="Add one byte to another, saturating at 0xFF.">
<polygon fill="white" stroke="#666666" points="324.75,-20.75 278.75,-20.75 278.75,0 324.75,0 324.75,-20.75"/>
<text text-anchor="middle" x="301.75" y="-7.25" font-family="Helvetica,sans-Serif" font-size="10.00">qadd8</text>
</a>
</g>
</g>
<!-- Node2&#45;&gt;Node3 -->
<g id="edge2_Node000002_Node000003" class="edge">
<title>Node2&#45;&gt;Node3</title>
<g id="a_edge2_Node000002_Node000003"><a xlink:title=" ">
<path fill="none" stroke="#63b8ff" d="M243.07,-10.38C251.19,-10.38 259.44,-10.38 267.08,-10.38"/>
<polygon fill="#63b8ff" stroke="#63b8ff" points="266.93,-13.88 276.93,-10.38 266.93,-6.88 266.93,-13.88"/>
</a>
</g>
</g>
</g>
</svg>
