<?xml version="1.0" encoding="UTF-8" standalone="no"?>
<!DOCTYPE svg PUBLIC "-//W3C//DTD SVG 1.1//EN"
 "http://www.w3.org/Graphics/SVG/1.1/DTD/svg11.dtd">
<!-- Generated by graphviz version 12.2.1 (20241206.2353)
 -->
<!-- Title: hsv2rgb_rainbow Pages: 1 -->
<svg width="243pt" height="146pt"
 viewBox="0.00 0.00 242.50 145.75" xmlns="http://www.w3.org/2000/svg" xmlns:xlink="http://www.w3.org/1999/xlink">
<g id="graph0" class="graph" transform="scale(1 1) rotate(0) translate(4 141.75)">
<title>hsv2rgb_rainbow</title>
<!-- Node1 -->
<g id="Node000001" class="node">
<title>Node1</title>
<g id="a_Node000001"><a xlink:title="Forward declaration of hsv2rgb_rainbow here, to avoid circular dependencies.">
<polygon fill="#999999" stroke="#666666" points="234.5,-78.75 135.25,-78.75 135.25,-58 234.5,-58 234.5,-78.75"/>
<text text-anchor="middle" x="184.88" y="-65.25" font-family="Helvetica,sans-Serif" font-size="10.00">hsv2rgb_rainbow</text>
</a>
</g>
</g>
<!-- Node2 -->
<g id="Node000002" class="node">
<title>Node2</title>
<g id="a_Node000002"><a xlink:href="../../db/d87/group___pixel_types.html#a679618ea3efb525132e97c9f9faf8335" target="_top" xlink:title="Allow construction from a CHSV color.">
<polygon fill="white" stroke="#666666" points="88.38,-137.75 10.88,-137.75 10.88,-117 88.38,-117 88.38,-137.75"/>
<text text-anchor="middle" x="49.62" y="-124.25" font-family="Helvetica,sans-Serif" font-size="10.00">CRGB::CRGB</text>
</a>
</g>
</g>
<!-- Node1&#45;&gt;Node2 -->
<g id="edge1_Node000001_Node000002" class="edge">
<title>Node1&#45;&gt;Node2</title>
<g id="a_edge1_Node000001_Node000002"><a xlink:title=" ">
<path fill="none" stroke="#63b8ff" d="M150.81,-84C135.24,-91.26 116.36,-99.92 99.25,-107.38 92.22,-110.44 84.57,-113.65 77.46,-116.57"/>
<polygon fill="#63b8ff" stroke="#63b8ff" points="152.06,-87.28 159.63,-79.87 149.09,-80.94 152.06,-87.28"/>
</a>
</g>
</g>
<!-- Node3 -->
<g id="Node000003" class="node">
<title>Node3</title>
<g id="a_Node000003"><a xlink:href="../../db/d87/group___pixel_types.html#ac0ef642e7d3bb2fca4846255984fc888" target="_top" xlink:title="Allow assignment from HSV color.">
<polygon fill="white" stroke="#666666" points="99.25,-98.75 0,-98.75 0,-78 99.25,-78 99.25,-98.75"/>
<text text-anchor="middle" x="49.62" y="-85.25" font-family="Helvetica,sans-Serif" font-size="10.00">CRGB::operator=</text>
</a>
</g>
</g>
<!-- Node1&#45;&gt;Node3 -->
<g id="edge2_Node000001_Node000003" class="edge">
<title>Node1&#45;&gt;Node3</title>
<g id="a_edge2_Node000001_Node000003"><a xlink:title=" ">
<path fill="none" stroke="#63b8ff" d="M123.69,-77.41C115.59,-78.62 107.36,-79.86 99.48,-81.04"/>
<polygon fill="#63b8ff" stroke="#63b8ff" points="124.15,-80.88 133.52,-75.93 123.11,-73.96 124.15,-80.88"/>
</a>
</g>
</g>
<!-- Node4 -->
<g id="Node000004" class="node">
<title>Node4</title>
<g id="a_Node000004"><a xlink:href="../../db/d87/group___pixel_types.html#a6a74f4f37adcd7b7144e7cb37d7b7367" target="_top" xlink:title="Allow assignment from hue, saturation, and value.">
<polygon fill="white" stroke="#666666" points="92.12,-59.75 7.12,-59.75 7.12,-39 92.12,-39 92.12,-59.75"/>
<text text-anchor="middle" x="49.62" y="-46.25" font-family="Helvetica,sans-Serif" font-size="10.00">CRGB::setHSV</text>
</a>
</g>
</g>
<!-- Node1&#45;&gt;Node4 -->
<g id="edge3_Node000001_Node000004" class="edge">
<title>Node1&#45;&gt;Node4</title>
<g id="a_edge3_Node000001_Node000004"><a xlink:title=" ">
<path fill="none" stroke="#63b8ff" d="M123.7,-59.79C113.15,-58.29 102.38,-56.75 92.46,-55.34"/>
<polygon fill="#63b8ff" stroke="#63b8ff" points="123.12,-63.25 133.52,-61.19 124.11,-56.32 123.12,-63.25"/>
</a>
</g>
</g>
<!-- Node5 -->
<g id="Node000005" class="node">
<title>Node5</title>
<g id="a_Node000005"><a xlink:href="../../db/d87/group___pixel_types.html#ac459ec93893ae2453f748506b357a484" target="_top" xlink:title="Allow assignment from just a hue.">
<polygon fill="white" stroke="#666666" points="91.75,-20.75 7.5,-20.75 7.5,0 91.75,0 91.75,-20.75"/>
<text text-anchor="middle" x="49.62" y="-7.25" font-family="Helvetica,sans-Serif" font-size="10.00">CRGB::setHue</text>
</a>
</g>
</g>
<!-- Node1&#45;&gt;Node5 -->
<g id="edge4_Node000001_Node000005" class="edge">
<title>Node1&#45;&gt;Node5</title>
<g id="a_edge4_Node000001_Node000005"><a xlink:title=" ">
<path fill="none" stroke="#63b8ff" d="M150.11,-52.92C134.66,-45.92 116.08,-37.61 99.25,-30.38 92.21,-27.35 84.55,-24.15 77.44,-21.23"/>
<polygon fill="#63b8ff" stroke="#63b8ff" points="148.32,-55.95 158.88,-56.9 151.22,-49.58 148.32,-55.95"/>
</a>
</g>
</g>
</g>
</svg>
