<?xml version="1.0" encoding="UTF-8" standalone="no"?>
<!DOCTYPE svg PUBLIC "-//W3C//DTD SVG 1.1//EN"
 "http://www.w3.org/Graphics/SVG/1.1/DTD/svg11.dtd">
<!-- Generated by graphviz version 12.2.1 (20241206.2353)
 -->
<!-- Title: CRGB::operator&#45;&#45; Pages: 1 -->
<svg width="359pt" height="29pt"
 viewBox="0.00 0.00 359.00 28.75" xmlns="http://www.w3.org/2000/svg" xmlns:xlink="http://www.w3.org/1999/xlink">
<g id="graph0" class="graph" transform="scale(1 1) rotate(0) translate(4 24.75)">
<title>CRGB::operator&#45;&#45;</title>
<!-- Node1 -->
<g id="Node000001" class="node">
<title>Node1</title>
<g id="a_Node000001"><a xlink:title="Subtract a constant of &#39;1&#39; from each channel, saturating at 0x00.">
<polygon fill="#999999" stroke="#666666" points="98.5,-20.75 0,-20.75 0,0 98.5,0 98.5,-20.75"/>
<text text-anchor="middle" x="49.25" y="-7.25" font-family="Helvetica,sans-Serif" font-size="10.00">CRGB::operator&#45;&#45;</text>
</a>
</g>
</g>
<!-- Node2 -->
<g id="Node000002" class="node">
<title>Node2</title>
<g id="a_Node000002"><a xlink:href="../../db/d87/group___pixel_types.html#a986ac62988523a4371f8f90cf844924d" target="_top" xlink:title="Subtract a constant from each channel, saturating at 0x00.">
<polygon fill="white" stroke="#666666" points="269.75,-20.75 134.5,-20.75 134.5,0 269.75,0 269.75,-20.75"/>
<text text-anchor="middle" x="202.12" y="-7.25" font-family="Helvetica,sans-Serif" font-size="10.00">CRGB::subtractFromRGB</text>
</a>
</g>
</g>
<!-- Node1&#45;&gt;Node2 -->
<g id="edge1_Node000001_Node000002" class="edge">
<title>Node1&#45;&gt;Node2</title>
<g id="a_edge1_Node000001_Node000002"><a xlink:title=" ">
<path fill="none" stroke="#63b8ff" d="M98.82,-10.38C106.49,-10.38 114.58,-10.38 122.73,-10.38"/>
<polygon fill="#63b8ff" stroke="#63b8ff" points="122.72,-13.88 132.72,-10.38 122.72,-6.88 122.72,-13.88"/>
</a>
</g>
</g>
<!-- Node3 -->
<g id="Node000003" class="node">
<title>Node3</title>
<g id="a_Node000003"><a xlink:href="../../d5/d98/group___math.html#gae261576a4c8155d6c0ba8615b2d2ecb3" target="_top" xlink:title="Subtract one byte from another, saturating at 0x00.">
<polygon fill="white" stroke="#666666" points="351,-20.75 305.75,-20.75 305.75,0 351,0 351,-20.75"/>
<text text-anchor="middle" x="328.38" y="-7.25" font-family="Helvetica,sans-Serif" font-size="10.00">qsub8</text>
</a>
</g>
</g>
<!-- Node2&#45;&gt;Node3 -->
<g id="edge2_Node000002_Node000003" class="edge">
<title>Node2&#45;&gt;Node3</title>
<g id="a_edge2_Node000002_Node000003"><a xlink:title=" ">
<path fill="none" stroke="#63b8ff" d="M269.98,-10.38C278.25,-10.38 286.4,-10.38 293.86,-10.38"/>
<polygon fill="#63b8ff" stroke="#63b8ff" points="293.75,-13.88 303.75,-10.38 293.75,-6.88 293.75,-13.88"/>
</a>
</g>
</g>
</g>
</svg>
