<?xml version="1.0" encoding="UTF-8" standalone="no"?>
<!DOCTYPE svg PUBLIC "-//W3C//DTD SVG 1.1//EN"
 "http://www.w3.org/Graphics/SVG/1.1/DTD/svg11.dtd">
<!-- Generated by graphviz version 12.2.1 (20241206.2353)
 -->
<!-- Title: CRGB::nscale8_video Pages: 1 -->
<svg width="551pt" height="197pt"
 viewBox="0.00 0.00 550.50 196.75" xmlns="http://www.w3.org/2000/svg" xmlns:xlink="http://www.w3.org/1999/xlink">
<g id="graph0" class="graph" transform="scale(1 1) rotate(0) translate(4 192.75)">
<title>CRGB::nscale8_video</title>
<!-- Node1 -->
<g id="Node000001" class="node">
<title>Node1</title>
<g id="a_Node000001"><a xlink:title="Scale down a RGB to N/256ths of it&#39;s current brightness using &quot;video&quot; dimming rules.">
<polygon fill="#999999" stroke="#666666" points="542.5,-104.75 423,-104.75 423,-84 542.5,-84 542.5,-104.75"/>
<text text-anchor="middle" x="482.75" y="-91.25" font-family="Helvetica,sans-Serif" font-size="10.00">CRGB::nscale8_video</text>
</a>
</g>
</g>
<!-- Node2 -->
<g id="Node000002" class="node">
<title>Node2</title>
<g id="a_Node000002"><a xlink:href="../../de/db5/classfl_1_1_twinkle_fox.html#a67375829d0da55e17d3f74ac9817914d" target="_top" xlink:title=" ">
<polygon fill="white" stroke="#666666" points="387,-188.75 221,-188.75 221,-168 387,-168 387,-188.75"/>
<text text-anchor="middle" x="304" y="-175.25" font-family="Helvetica,sans-Serif" font-size="10.00">fl::TwinkleFox::drawTwinkleFox</text>
</a>
</g>
</g>
<!-- Node1&#45;&gt;Node2 -->
<g id="edge1_Node000001_Node000002" class="edge">
<title>Node1&#45;&gt;Node2</title>
<g id="a_edge1_Node000001_Node000002"><a xlink:title=" ">
<path fill="none" stroke="#63b8ff" d="M460.17,-112.24C441.78,-126.64 414.08,-146.39 387,-158.38 378.83,-161.99 369.89,-165.02 361.02,-167.54"/>
<polygon fill="#63b8ff" stroke="#63b8ff" points="462.33,-115 467.95,-106.02 457.96,-109.53 462.33,-115"/>
</a>
</g>
</g>
<!-- Node5 -->
<g id="Node000005" class="node">
<title>Node5</title>
<g id="a_Node000005"><a xlink:href="../../d4/dd0/_twinkle_fox_8ino.html#a6d0a3407d4b43c23c7bdd4aac9fc76fd" target="_top" xlink:title=" ">
<polygon fill="white" stroke="#666666" points="345,-149.75 263,-149.75 263,-129 345,-129 345,-149.75"/>
<text text-anchor="middle" x="304" y="-136.25" font-family="Helvetica,sans-Serif" font-size="10.00">drawTwinkles</text>
</a>
</g>
</g>
<!-- Node1&#45;&gt;Node5 -->
<g id="edge4_Node000001_Node000005" class="edge">
<title>Node1&#45;&gt;Node5</title>
<g id="a_edge4_Node000001_Node000005"><a xlink:title=" ">
<path fill="none" stroke="#63b8ff" d="M432.69,-108.24C418.03,-112.27 401.89,-116.61 387,-120.38 373.4,-123.82 358.47,-127.35 345.12,-130.42"/>
<polygon fill="#63b8ff" stroke="#63b8ff" points="433.42,-111.67 442.12,-105.63 431.55,-104.92 433.42,-111.67"/>
</a>
</g>
</g>
<!-- Node7 -->
<g id="Node000007" class="node">
<title>Node7</title>
<g id="a_Node000007"><a xlink:href="../../d2/d73/group___palette_colors.html#gaf34a692bbec05b697dc9c06d8bb0f74f" target="_top" xlink:title="Maps an array of palette color indexes into an array of LED colors.">
<polygon fill="white" stroke="#666666" points="365.62,-111.12 242.38,-111.12 242.38,-77.62 365.62,-77.62 365.62,-111.12"/>
<text text-anchor="start" x="250.38" y="-97.62" font-family="Helvetica,sans-Serif" font-size="10.00">map_data_into_colors</text>
<text text-anchor="middle" x="304" y="-84.88" font-family="Helvetica,sans-Serif" font-size="10.00">_through_palette</text>
</a>
</g>
</g>
<!-- Node1&#45;&gt;Node7 -->
<g id="edge6_Node000001_Node000007" class="edge">
<title>Node1&#45;&gt;Node7</title>
<g id="a_edge6_Node000001_Node000007"><a xlink:title=" ">
<path fill="none" stroke="#63b8ff" d="M411.55,-94.38C396.49,-94.38 380.7,-94.38 366.02,-94.38"/>
<polygon fill="#63b8ff" stroke="#63b8ff" points="411.38,-97.88 421.38,-94.38 411.38,-90.88 411.38,-97.88"/>
</a>
</g>
</g>
<!-- Node8 -->
<g id="Node000008" class="node">
<title>Node8</title>
<g id="a_Node000008"><a xlink:href="../../d3/d1c/group___color_fades.html#ga956be37436f2b9c06c99d24263ef8e83" target="_top" xlink:title="Scale the brightness of an array of pixels all at once.">
<polygon fill="white" stroke="#666666" points="346.88,-59.75 261.12,-59.75 261.12,-39 346.88,-39 346.88,-59.75"/>
<text text-anchor="middle" x="304" y="-46.25" font-family="Helvetica,sans-Serif" font-size="10.00">nscale8_video</text>
</a>
</g>
</g>
<!-- Node1&#45;&gt;Node8 -->
<g id="edge7_Node000001_Node000008" class="edge">
<title>Node1&#45;&gt;Node8</title>
<g id="a_edge7_Node000001_Node000008"><a xlink:title=" ">
<path fill="none" stroke="#63b8ff" d="M432.69,-80.51C418.03,-76.48 401.89,-72.14 387,-68.38 374.11,-65.11 360.02,-61.77 347.22,-58.82"/>
<polygon fill="#63b8ff" stroke="#63b8ff" points="431.55,-83.83 442.12,-83.12 433.42,-77.08 431.55,-83.83"/>
</a>
</g>
</g>
<!-- Node11 -->
<g id="Node000011" class="node">
<title>Node11</title>
<g id="a_Node000011"><a xlink:href="../../db/d87/group___pixel_types.html#ga3dab64b7dfff8c31e3ec8c3c20eec465" target="_top" xlink:title="Scale using CRGB::nscale8_video()">
<polygon fill="white" stroke="#666666" points="337.5,-20.75 270.5,-20.75 270.5,0 337.5,0 337.5,-20.75"/>
<text text-anchor="middle" x="304" y="-7.25" font-family="Helvetica,sans-Serif" font-size="10.00">operator%</text>
</a>
</g>
</g>
<!-- Node1&#45;&gt;Node11 -->
<g id="edge10_Node000001_Node000011" class="edge">
<title>Node1&#45;&gt;Node11</title>
<g id="a_edge10_Node000001_Node000011"><a xlink:title=" ">
<path fill="none" stroke="#63b8ff" d="M460.17,-76.51C441.78,-62.11 414.08,-42.36 387,-30.38 371.46,-23.5 353.16,-18.74 337.8,-15.61"/>
<polygon fill="#63b8ff" stroke="#63b8ff" points="457.96,-79.22 467.95,-82.73 462.33,-73.75 457.96,-79.22"/>
</a>
</g>
</g>
<!-- Node3 -->
<g id="Node000003" class="node">
<title>Node3</title>
<g id="a_Node000003"><a xlink:href="../../de/db5/classfl_1_1_twinkle_fox.html#ab5d3d43b11bed65afbd407071ee85eb8" target="_top" xlink:title=" ">
<polygon fill="white" stroke="#666666" points="185,-188.75 73,-188.75 73,-168 185,-168 185,-188.75"/>
<text text-anchor="middle" x="129" y="-175.25" font-family="Helvetica,sans-Serif" font-size="10.00">fl::TwinkleFox::draw</text>
</a>
</g>
</g>
<!-- Node2&#45;&gt;Node3 -->
<g id="edge2_Node000002_Node000003" class="edge">
<title>Node2&#45;&gt;Node3</title>
<g id="a_edge2_Node000002_Node000003"><a xlink:title=" ">
<path fill="none" stroke="#63b8ff" d="M209.29,-178.38C201.05,-178.38 192.9,-178.38 185.14,-178.38"/>
<polygon fill="#63b8ff" stroke="#63b8ff" points="209.04,-181.88 219.04,-178.38 209.04,-174.88 209.04,-181.88"/>
</a>
</g>
</g>
<!-- Node4 -->
<g id="Node000004" class="node">
<title>Node4</title>
<g id="a_Node000004"><a xlink:href="../../dd/d4d/_fx_twinkle_fox_8ino.html#afe461d27b9c48d5921c00d521181f12f" target="_top" xlink:title=" ">
<polygon fill="white" stroke="#666666" points="37,-188.75 0,-188.75 0,-168 37,-168 37,-188.75"/>
<text text-anchor="middle" x="18.5" y="-175.25" font-family="Helvetica,sans-Serif" font-size="10.00">loop</text>
</a>
</g>
</g>
<!-- Node3&#45;&gt;Node4 -->
<g id="edge3_Node000003_Node000004" class="edge">
<title>Node3&#45;&gt;Node4</title>
<g id="a_edge3_Node000003_Node000004"><a xlink:title=" ">
<path fill="none" stroke="#63b8ff" d="M61.33,-178.38C52.42,-178.38 43.98,-178.38 37.04,-178.38"/>
<polygon fill="#63b8ff" stroke="#63b8ff" points="61.28,-181.88 71.28,-178.38 61.28,-174.88 61.28,-181.88"/>
</a>
</g>
</g>
<!-- Node6 -->
<g id="Node000006" class="node">
<title>Node6</title>
<g id="a_Node000006"><a xlink:href="../../d4/dd0/_twinkle_fox_8ino.html#afe461d27b9c48d5921c00d521181f12f" target="_top" xlink:title=" ">
<polygon fill="white" stroke="#666666" points="147.5,-149.75 110.5,-149.75 110.5,-129 147.5,-129 147.5,-149.75"/>
<text text-anchor="middle" x="129" y="-136.25" font-family="Helvetica,sans-Serif" font-size="10.00">loop</text>
</a>
</g>
</g>
<!-- Node5&#45;&gt;Node6 -->
<g id="edge5_Node000005_Node000006" class="edge">
<title>Node5&#45;&gt;Node6</title>
<g id="a_edge5_Node000005_Node000006"><a xlink:title=" ">
<path fill="none" stroke="#63b8ff" d="M251.37,-139.38C216.27,-139.38 171.98,-139.38 147.78,-139.38"/>
<polygon fill="#63b8ff" stroke="#63b8ff" points="251.36,-142.88 261.36,-139.38 251.36,-135.88 251.36,-142.88"/>
</a>
</g>
</g>
<!-- Node9 -->
<g id="Node000009" class="node">
<title>Node9</title>
<g id="a_Node000009"><a xlink:href="../../d3/d1c/group___color_fades.html#gaff656b0046fac0d40b8eb02941ce1755" target="_top" xlink:title="Reduce the brightness of an array of pixels all at once.">
<polygon fill="white" stroke="#666666" points="164,-78.75 94,-78.75 94,-58 164,-58 164,-78.75"/>
<text text-anchor="middle" x="129" y="-65.25" font-family="Helvetica,sans-Serif" font-size="10.00">fade_video</text>
</a>
</g>
</g>
<!-- Node8&#45;&gt;Node9 -->
<g id="edge8_Node000008_Node000009" class="edge">
<title>Node8&#45;&gt;Node9</title>
<g id="a_edge8_Node000008_Node000009"><a xlink:title=" ">
<path fill="none" stroke="#63b8ff" d="M249.54,-55.25C221.78,-58.3 188.67,-61.93 164.34,-64.6"/>
<polygon fill="#63b8ff" stroke="#63b8ff" points="249.62,-58.76 259.17,-54.19 248.85,-51.8 249.62,-58.76"/>
</a>
</g>
</g>
<!-- Node10 -->
<g id="Node000010" class="node">
<title>Node10</title>
<g id="a_Node000010"><a xlink:href="../../d3/d1c/group___color_fades.html#gac1e25878d16efa6112d907738f525773" target="_top" xlink:title="Reduce the brightness of an array of pixels all at once.">
<polygon fill="white" stroke="#666666" points="166.25,-39.75 91.75,-39.75 91.75,-19 166.25,-19 166.25,-39.75"/>
<text text-anchor="middle" x="129" y="-26.25" font-family="Helvetica,sans-Serif" font-size="10.00">fadeLightBy</text>
</a>
</g>
</g>
<!-- Node8&#45;&gt;Node10 -->
<g id="edge9_Node000008_Node000010" class="edge">
<title>Node8&#45;&gt;Node10</title>
<g id="a_edge9_Node000008_Node000010"><a xlink:title=" ">
<path fill="none" stroke="#63b8ff" d="M249.49,-43.19C222.59,-40.08 190.68,-36.39 166.61,-33.61"/>
<polygon fill="#63b8ff" stroke="#63b8ff" points="248.84,-46.64 259.18,-44.31 249.64,-39.68 248.84,-46.64"/>
</a>
</g>
</g>
</g>
</svg>
