<?xml version="1.0" encoding="UTF-8" standalone="no"?>
<!DOCTYPE svg PUBLIC "-//W3C//DTD SVG 1.1//EN"
 "http://www.w3.org/Graphics/SVG/1.1/DTD/svg11.dtd">
<!-- Generated by graphviz version 12.2.1 (20241206.2353)
 -->
<!-- Title: CRGB::blend Pages: 1 -->
<svg width="381pt" height="87pt"
 viewBox="0.00 0.00 380.75 86.75" xmlns="http://www.w3.org/2000/svg" xmlns:xlink="http://www.w3.org/1999/xlink">
<g id="graph0" class="graph" transform="scale(1 1) rotate(0) translate(4 82.75)">
<title>CRGB::blend</title>
<!-- Node1 -->
<g id="Node000001" class="node">
<title>Node1</title>
<g id="a_Node000001"><a xlink:title=" ">
<polygon fill="#999999" stroke="#666666" points="76.75,-58.75 0,-58.75 0,-38 76.75,-38 76.75,-58.75"/>
<text text-anchor="middle" x="38.38" y="-45.25" font-family="Helvetica,sans-Serif" font-size="10.00">CRGB::blend</text>
</a>
</g>
</g>
<!-- Node2 -->
<g id="Node000002" class="node">
<title>Node2</title>
<g id="a_Node000002"><a xlink:href="../../db/d87/group___pixel_types.html#a08d8e05a3fcdb88dedb886cad9cbd3fa" target="_top" xlink:title="Default constructor.">
<polygon fill="white" stroke="#666666" points="190.25,-78.75 112.75,-78.75 112.75,-58 190.25,-58 190.25,-78.75"/>
<text text-anchor="middle" x="151.5" y="-65.25" font-family="Helvetica,sans-Serif" font-size="10.00">CRGB::CRGB</text>
</a>
</g>
</g>
<!-- Node1&#45;&gt;Node2 -->
<g id="edge1_Node000001_Node000002" class="edge">
<title>Node1&#45;&gt;Node2</title>
<g id="a_edge1_Node000001_Node000002"><a xlink:title=" ">
<path fill="none" stroke="#63b8ff" d="M77,-55.15C84.79,-56.55 93.1,-58.04 101.24,-59.51"/>
<polygon fill="#63b8ff" stroke="#63b8ff" points="100.59,-62.95 111.05,-61.27 101.83,-56.06 100.59,-62.95"/>
</a>
</g>
</g>
<!-- Node3 -->
<g id="Node000003" class="node">
<title>Node3</title>
<g id="a_Node000003"><a xlink:href="../../d5/d98/group___math.html#ga9a604de042246d6c87fdbfdd5578f377" target="_top" xlink:title="Blend a variable proportion (0&#45;255) of one byte to another.">
<polygon fill="white" stroke="#666666" points="176,-39.75 127,-39.75 127,-19 176,-19 176,-39.75"/>
<text text-anchor="middle" x="151.5" y="-26.25" font-family="Helvetica,sans-Serif" font-size="10.00">blend8</text>
</a>
</g>
</g>
<!-- Node1&#45;&gt;Node3 -->
<g id="edge2_Node000001_Node000003" class="edge">
<title>Node1&#45;&gt;Node3</title>
<g id="a_edge2_Node000001_Node000003"><a xlink:title=" ">
<path fill="none" stroke="#63b8ff" d="M77,-41.94C89.4,-39.82 103.15,-37.47 115.36,-35.38"/>
<polygon fill="#63b8ff" stroke="#63b8ff" points="115.75,-38.87 125.02,-33.73 114.57,-31.97 115.75,-38.87"/>
</a>
</g>
</g>
<!-- Node4 -->
<g id="Node000004" class="node">
<title>Node4</title>
<g id="a_Node000004"><a xlink:href="../../d0/da5/group___scaling_dirty.html#ga3fade00fb4cf5b937b973128198a7a79" target="_top" xlink:title="Clean up the r1 register after a series of *LEAVING_R1_DIRTY calls.">
<polygon fill="white" stroke="#666666" points="335.62,-59.75 263.38,-59.75 263.38,-39 335.62,-39 335.62,-59.75"/>
<text text-anchor="middle" x="299.5" y="-46.25" font-family="Helvetica,sans-Serif" font-size="10.00">cleanup_R1</text>
</a>
</g>
</g>
<!-- Node3&#45;&gt;Node4 -->
<g id="edge3_Node000003_Node000004" class="edge">
<title>Node3&#45;&gt;Node4</title>
<g id="a_edge3_Node000003_Node000004"><a xlink:title=" ">
<path fill="none" stroke="#63b8ff" d="M176.28,-32.63C196.67,-35.43 226.65,-39.53 251.82,-42.98"/>
<polygon fill="#63b8ff" stroke="#63b8ff" points="251.11,-46.42 261.49,-44.3 252.06,-39.48 251.11,-46.42"/>
</a>
</g>
</g>
<!-- Node5 -->
<g id="Node000005" class="node">
<title>Node5</title>
<g id="a_Node000005"><a xlink:href="../../d0/da5/group___scaling_dirty.html#ga7386235cada3aca429b189681d2ec56d" target="_top" xlink:title="This version of scale8() does not clean up the R1 register on AVR.">
<polygon fill="white" stroke="#666666" points="372.75,-20.75 226.25,-20.75 226.25,0 372.75,0 372.75,-20.75"/>
<text text-anchor="middle" x="299.5" y="-7.25" font-family="Helvetica,sans-Serif" font-size="10.00">scale8_LEAVING_R1_DIRTY</text>
</a>
</g>
</g>
<!-- Node3&#45;&gt;Node5 -->
<g id="edge4_Node000003_Node000005" class="edge">
<title>Node3&#45;&gt;Node5</title>
<g id="a_edge4_Node000003_Node000005"><a xlink:title=" ">
<path fill="none" stroke="#63b8ff" d="M176.28,-26.28C187.06,-24.88 200.51,-23.13 214.52,-21.3"/>
<polygon fill="#63b8ff" stroke="#63b8ff" points="214.86,-24.79 224.32,-20.03 213.96,-17.85 214.86,-24.79"/>
</a>
</g>
</g>
</g>
</svg>
