<?xml version="1.0" encoding="UTF-8" standalone="no"?>
<!DOCTYPE svg PUBLIC "-//W3C//DTD SVG 1.1//EN"
 "http://www.w3.org/Graphics/SVG/1.1/DTD/svg11.dtd">
<!-- Generated by graphviz version 12.2.1 (20241206.2353)
 -->
<!-- Title: fl::NoisePalette Pages: 1 -->
<svg width="98pt" height="199pt"
 viewBox="0.00 0.00 97.50 199.00" xmlns="http://www.w3.org/2000/svg" xmlns:xlink="http://www.w3.org/1999/xlink">
<g id="graph0" class="graph" transform="scale(1 1) rotate(0) translate(4 195)">
<title>fl::NoisePalette</title>
<!-- Node1 -->
<g id="Node000001" class="node">
<title>Node1</title>
<g id="a_Node000001"><a xlink:title=" ">
<polygon fill="#999999" stroke="#666666" points="89.5,-20.75 0,-20.75 0,0 89.5,0 89.5,-20.75"/>
<text text-anchor="middle" x="44.75" y="-7.25" font-family="Helvetica,sans-Serif" font-size="10.00">fl::NoisePalette</text>
</a>
</g>
</g>
<!-- Node2 -->
<g id="Node000002" class="node">
<title>Node2</title>
<g id="a_Node000002"><a xlink:href="../../d7/d3e/classfl_1_1_fx2d.html" target="_top" xlink:title=" ">
<polygon fill="white" stroke="#666666" points="70.75,-77.5 18.75,-77.5 18.75,-56.75 70.75,-56.75 70.75,-77.5"/>
<text text-anchor="middle" x="44.75" y="-64" font-family="Helvetica,sans-Serif" font-size="10.00">fl::Fx2d</text>
</a>
</g>
</g>
<!-- Node2&#45;&gt;Node1 -->
<g id="edge1_Node000001_Node000002" class="edge">
<title>Node2&#45;&gt;Node1</title>
<g id="a_edge1_Node000001_Node000002"><a xlink:title=" ">
<path fill="none" stroke="#63b8ff" d="M44.75,-44.88C44.75,-36.66 44.75,-27.68 44.75,-21.08"/>
<polygon fill="#63b8ff" stroke="#63b8ff" points="41.25,-44.82 44.75,-54.82 48.25,-44.82 41.25,-44.82"/>
</a>
</g>
</g>
<!-- Node3 -->
<g id="Node000003" class="node">
<title>Node3</title>
<g id="a_Node000003"><a xlink:href="../../da/d5d/classfl_1_1_fx.html" target="_top" xlink:title=" ">
<polygon fill="white" stroke="#666666" points="64.75,-134.25 24.75,-134.25 24.75,-113.5 64.75,-113.5 64.75,-134.25"/>
<text text-anchor="middle" x="44.75" y="-120.75" font-family="Helvetica,sans-Serif" font-size="10.00">fl::Fx</text>
</a>
</g>
</g>
<!-- Node3&#45;&gt;Node2 -->
<g id="edge2_Node000002_Node000003" class="edge">
<title>Node3&#45;&gt;Node2</title>
<g id="a_edge2_Node000002_Node000003"><a xlink:title=" ">
<path fill="none" stroke="#63b8ff" d="M44.75,-101.63C44.75,-93.41 44.75,-84.43 44.75,-77.83"/>
<polygon fill="#63b8ff" stroke="#63b8ff" points="41.25,-101.57 44.75,-111.57 48.25,-101.57 41.25,-101.57"/>
</a>
</g>
</g>
<!-- Node4 -->
<g id="Node000004" class="node">
<title>Node4</title>
<g id="a_Node000004"><a xlink:href="../../d6/d16/classfl_1_1_referent.html" target="_top" xlink:title=" ">
<polygon fill="white" stroke="#666666" points="79.75,-191 9.75,-191 9.75,-170.25 79.75,-170.25 79.75,-191"/>
<text text-anchor="middle" x="44.75" y="-177.5" font-family="Helvetica,sans-Serif" font-size="10.00">fl::Referent</text>
</a>
</g>
</g>
<!-- Node4&#45;&gt;Node3 -->
<g id="edge3_Node000003_Node000004" class="edge">
<title>Node4&#45;&gt;Node3</title>
<g id="a_edge3_Node000003_Node000004"><a xlink:title=" ">
<path fill="none" stroke="#63b8ff" d="M44.75,-158.38C44.75,-150.16 44.75,-141.18 44.75,-134.58"/>
<polygon fill="#63b8ff" stroke="#63b8ff" points="41.25,-158.32 44.75,-168.32 48.25,-158.32 41.25,-158.32"/>
</a>
</g>
</g>
</g>
</svg>
