<?xml version="1.0" encoding="UTF-8" standalone="no"?>
<!DOCTYPE svg PUBLIC "-//W3C//DTD SVG 1.1//EN"
 "http://www.w3.org/Graphics/SVG/1.1/DTD/svg11.dtd">
<!-- Generated by graphviz version 12.2.1 (20241206.2353)
 -->
<!-- Title: /home/runner/work/FastLED/FastLED/src/fx/video.h Pages: 1 -->
<svg width="1487pt" height="427pt"
 viewBox="0.00 0.00 1486.71 427.25" xmlns="http://www.w3.org/2000/svg" xmlns:xlink="http://www.w3.org/1999/xlink">
<g id="graph0" class="graph" transform="scale(1 1) rotate(0) translate(4 423.25)">
<title>/home/runner/work/FastLED/FastLED/src/fx/video.h</title>
<!-- Node1 -->
<g id="Node000001" class="node">
<title>Node1</title>
<g id="a_Node000001"><a xlink:title=" ">
<polygon fill="#999999" stroke="#666666" points="762.71,-419.25 613.21,-419.25 613.21,-385.75 762.71,-385.75 762.71,-419.25"/>
<text text-anchor="start" x="621.21" y="-405.75" font-family="Helvetica,sans-Serif" font-size="10.00">/home/runner/work/FastLED</text>
<text text-anchor="middle" x="687.96" y="-393" font-family="Helvetica,sans-Serif" font-size="10.00">/FastLED/src/fx/video.h</text>
</a>
</g>
</g>
<!-- Node2 -->
<g id="Node000002" class="node">
<title>Node2</title>
<g id="a_Node000002"><a xlink:href="../../d7/d35/_fx_sd_card_8ino.html" target="_top" xlink:title=" ">
<polygon fill="white" stroke="#666666" points="766.83,-280.25 609.08,-280.25 609.08,-234 766.83,-234 766.83,-280.25"/>
<text text-anchor="start" x="617.08" y="-266.75" font-family="Helvetica,sans-Serif" font-size="10.00">/home/runner/work/FastLED</text>
<text text-anchor="start" x="617.08" y="-254" font-family="Helvetica,sans-Serif" font-size="10.00">/FastLED/examples/FxSdCard</text>
<text text-anchor="middle" x="687.96" y="-241.25" font-family="Helvetica,sans-Serif" font-size="10.00">/FxSdCard.ino</text>
</a>
</g>
</g>
<!-- Node1&#45;&gt;Node2 -->
<g id="edge1_Node000001_Node000002" class="edge">
<title>Node1&#45;&gt;Node2</title>
<g id="a_edge1_Node000001_Node000002"><a xlink:title=" ">
<path fill="none" stroke="#63b8ff" d="M687.96,-373.93C687.96,-346.78 687.96,-305.8 687.96,-280.57"/>
<polygon fill="#63b8ff" stroke="#63b8ff" points="684.46,-373.82 687.96,-383.82 691.46,-373.82 684.46,-373.82"/>
</a>
</g>
</g>
<!-- Node3 -->
<g id="Node000003" class="node">
<title>Node3</title>
<g id="a_Node000003"><a xlink:href="../../d9/d28/fl_2file__system_8h.html" target="_top" xlink:title=" ">
<polygon fill="white" stroke="#666666" points="530.83,-349.75 379.08,-349.75 379.08,-316.25 530.83,-316.25 530.83,-349.75"/>
<text text-anchor="start" x="387.08" y="-336.25" font-family="Helvetica,sans-Serif" font-size="10.00">/home/runner/work/FastLED</text>
<text text-anchor="middle" x="454.96" y="-323.5" font-family="Helvetica,sans-Serif" font-size="10.00">/FastLED/src/fl/file_system.h</text>
</a>
</g>
</g>
<!-- Node1&#45;&gt;Node3 -->
<g id="edge2_Node000001_Node000003" class="edge">
<title>Node1&#45;&gt;Node3</title>
<g id="a_edge2_Node000001_Node000003"><a xlink:title=" ">
<path fill="none" stroke="#63b8ff" d="M621.54,-382.26C586.51,-372.11 544.02,-359.8 510.72,-350.15"/>
<polygon fill="#63b8ff" stroke="#63b8ff" points="620.12,-385.49 630.7,-384.91 622.07,-378.77 620.12,-385.49"/>
</a>
</g>
</g>
<!-- Node7 -->
<g id="Node000007" class="node">
<title>Node7</title>
<g id="a_Node000007"><a xlink:href="../../d0/d05/video_8cpp.html" target="_top" xlink:title=" ">
<polygon fill="white" stroke="#666666" points="431.71,-33.5 282.21,-33.5 282.21,0 431.71,0 431.71,-33.5"/>
<text text-anchor="start" x="290.21" y="-20" font-family="Helvetica,sans-Serif" font-size="10.00">/home/runner/work/FastLED</text>
<text text-anchor="middle" x="356.96" y="-7.25" font-family="Helvetica,sans-Serif" font-size="10.00">/FastLED/src/fx/video.cpp</text>
</a>
</g>
</g>
<!-- Node1&#45;&gt;Node7 -->
<g id="edge24_Node000001_Node000007" class="edge">
<title>Node1&#45;&gt;Node7</title>
<g id="a_edge24_Node000001_Node000007"><a xlink:title=" ">
<path fill="none" stroke="#63b8ff" d="M655.54,-378.27C624.05,-352.74 580.96,-308.58 580.96,-258.12 580.96,-258.12 580.96,-258.12 580.96,-173.88 580.96,-119.69 560.45,-103.12 517.96,-69.5 493.32,-50.01 461.16,-37.77 432.06,-30.13"/>
<polygon fill="#63b8ff" stroke="#63b8ff" points="653.26,-380.93 663.29,-384.34 657.58,-375.42 653.26,-380.93"/>
</a>
</g>
</g>
<!-- Node13 -->
<g id="Node000013" class="node">
<title>Node13</title>
<g id="a_Node000013"><a xlink:href="../../df/d8e/fx__engine_8cpp.html" target="_top" xlink:title=" ">
<polygon fill="white" stroke="#666666" points="943.21,-273.88 784.71,-273.88 784.71,-240.38 943.21,-240.38 943.21,-273.88"/>
<text text-anchor="start" x="792.71" y="-260.38" font-family="Helvetica,sans-Serif" font-size="10.00">/home/runner/work/FastLED</text>
<text text-anchor="middle" x="863.96" y="-247.62" font-family="Helvetica,sans-Serif" font-size="10.00">/FastLED/src/fx/fx_engine.cpp</text>
</a>
</g>
</g>
<!-- Node1&#45;&gt;Node13 -->
<g id="edge17_Node000001_Node000013" class="edge">
<title>Node1&#45;&gt;Node13</title>
<g id="a_edge17_Node000001_Node000013"><a xlink:title=" ">
<path fill="none" stroke="#63b8ff" d="M716.35,-378.37C752.21,-349.16 812.99,-299.65 844.19,-274.23"/>
<polygon fill="#63b8ff" stroke="#63b8ff" points="714.52,-375.35 708.98,-384.38 718.94,-380.77 714.52,-375.35"/>
</a>
</g>
</g>
<!-- Node14 -->
<g id="Node000014" class="node">
<title>Node14</title>
<g id="a_Node000014"><a xlink:href="../../d9/d3c/fx__engine_8h.html" target="_top" xlink:title=" ">
<polygon fill="white" stroke="#666666" points="998.71,-349.75 849.21,-349.75 849.21,-316.25 998.71,-316.25 998.71,-349.75"/>
<text text-anchor="start" x="857.21" y="-336.25" font-family="Helvetica,sans-Serif" font-size="10.00">/home/runner/work/FastLED</text>
<text text-anchor="middle" x="923.96" y="-323.5" font-family="Helvetica,sans-Serif" font-size="10.00">/FastLED/src/fx/fx_engine.h</text>
</a>
</g>
</g>
<!-- Node1&#45;&gt;Node14 -->
<g id="edge18_Node000001_Node000014" class="edge">
<title>Node1&#45;&gt;Node14</title>
<g id="a_edge18_Node000001_Node000014"><a xlink:title=" ">
<path fill="none" stroke="#63b8ff" d="M755.24,-382.26C790.72,-372.11 833.76,-359.8 867.48,-350.15"/>
<polygon fill="#63b8ff" stroke="#63b8ff" points="754.59,-378.8 745.94,-384.92 756.52,-385.53 754.59,-378.8"/>
</a>
</g>
</g>
<!-- Node3&#45;&gt;Node2 -->
<g id="edge3_Node000003_Node000002" class="edge">
<title>Node3&#45;&gt;Node2</title>
<g id="a_edge3_Node000003_Node000002"><a xlink:title=" ">
<path fill="none" stroke="#63b8ff" d="M517.07,-312.31C547.71,-302.59 584.82,-290.83 616.62,-280.74"/>
<polygon fill="#63b8ff" stroke="#63b8ff" points="516.01,-308.97 507.54,-315.33 518.13,-315.64 516.01,-308.97"/>
</a>
</g>
</g>
<!-- Node4 -->
<g id="Node000004" class="node">
<title>Node4</title>
<g id="a_Node000004"><a xlink:href="../../d6/d8d/file__system_8h.html" target="_top" xlink:title=" ">
<polygon fill="white" stroke="#666666" points="333.71,-273.88 184.21,-273.88 184.21,-240.38 333.71,-240.38 333.71,-273.88"/>
<text text-anchor="start" x="192.21" y="-260.38" font-family="Helvetica,sans-Serif" font-size="10.00">/home/runner/work/FastLED</text>
<text text-anchor="middle" x="258.96" y="-247.62" font-family="Helvetica,sans-Serif" font-size="10.00">/FastLED/src/file_system.h</text>
</a>
</g>
</g>
<!-- Node3&#45;&gt;Node4 -->
<g id="edge4_Node000003_Node000004" class="edge">
<title>Node3&#45;&gt;Node4</title>
<g id="a_edge4_Node000003_Node000004"><a xlink:title=" ">
<path fill="none" stroke="#63b8ff" d="M401.23,-311.75C369.96,-299.96 331.08,-285.31 301.87,-274.3"/>
<polygon fill="#63b8ff" stroke="#63b8ff" points="399.94,-315 410.53,-315.25 402.41,-308.45 399.94,-315"/>
</a>
</g>
</g>
<!-- Node5 -->
<g id="Node000005" class="node">
<title>Node5</title>
<g id="a_Node000005"><a xlink:href="../../d4/d37/file__system_8cpp.html" target="_top" xlink:title=" ">
<polygon fill="white" stroke="#666666" points="514.46,-273.88 351.46,-273.88 351.46,-240.38 514.46,-240.38 514.46,-273.88"/>
<text text-anchor="start" x="359.46" y="-260.38" font-family="Helvetica,sans-Serif" font-size="10.00">/home/runner/work/FastLED</text>
<text text-anchor="middle" x="432.96" y="-247.62" font-family="Helvetica,sans-Serif" font-size="10.00">/FastLED/src/fl/file_system.cpp</text>
</a>
</g>
</g>
<!-- Node3&#45;&gt;Node5 -->
<g id="edge5_Node000003_Node000005" class="edge">
<title>Node3&#45;&gt;Node5</title>
<g id="a_edge5_Node000003_Node000005"><a xlink:title=" ">
<path fill="none" stroke="#63b8ff" d="M446.9,-304.95C443.82,-294.59 440.4,-283.12 437.72,-274.12"/>
<polygon fill="#63b8ff" stroke="#63b8ff" points="443.55,-305.93 449.75,-314.52 450.25,-303.94 443.55,-305.93"/>
</a>
</g>
</g>
<!-- Node6 -->
<g id="Node000006" class="node">
<title>Node6</title>
<g id="a_Node000006"><a xlink:href="../../d3/dfa/pixel__stream_8h.html" target="_top" xlink:title=" ">
<polygon fill="white" stroke="#666666" points="165.71,-280.25 16.21,-280.25 16.21,-234 165.71,-234 165.71,-280.25"/>
<text text-anchor="start" x="24.21" y="-266.75" font-family="Helvetica,sans-Serif" font-size="10.00">/home/runner/work/FastLED</text>
<text text-anchor="start" x="24.21" y="-254" font-family="Helvetica,sans-Serif" font-size="10.00">/FastLED/src/fx/video/pixel</text>
<text text-anchor="middle" x="90.96" y="-241.25" font-family="Helvetica,sans-Serif" font-size="10.00">_stream.h</text>
</a>
</g>
</g>
<!-- Node3&#45;&gt;Node6 -->
<g id="edge6_Node000003_Node000006" class="edge">
<title>Node3&#45;&gt;Node6</title>
<g id="a_edge6_Node000003_Node000006"><a xlink:title=" ">
<path fill="none" stroke="#63b8ff" d="M367.4,-317.55C312.02,-307.98 239.05,-294.59 174.96,-280.25 172.02,-279.59 169.02,-278.9 166,-278.19"/>
<polygon fill="#63b8ff" stroke="#63b8ff" points="366.65,-320.97 377.1,-319.22 367.84,-314.07 366.65,-320.97"/>
</a>
</g>
</g>
<!-- Node10 -->
<g id="Node000010" class="node">
<title>Node10</title>
<g id="a_Node000010"><a xlink:href="../../d5/d82/video__impl_8h.html" target="_top" xlink:title=" ">
<polygon fill="#fff0f0" stroke="red" points="508.58,-109.38 325.33,-109.38 325.33,-75.88 508.58,-75.88 508.58,-109.38"/>
<text text-anchor="start" x="333.33" y="-95.88" font-family="Helvetica,sans-Serif" font-size="10.00">/home/runner/work/FastLED</text>
<text text-anchor="middle" x="416.96" y="-83.12" font-family="Helvetica,sans-Serif" font-size="10.00">/FastLED/src/fx/video/video_impl.h</text>
</a>
</g>
</g>
<!-- Node3&#45;&gt;Node10 -->
<g id="edge16_Node000003_Node000010" class="edge">
<title>Node3&#45;&gt;Node10</title>
<g id="a_edge16_Node000003_Node000010"><a xlink:title=" ">
<path fill="none" stroke="#63b8ff" d="M496.83,-309.55C507.28,-301.76 517.15,-291.97 522.96,-280.25 532.09,-261.83 529.49,-253.49 522.96,-234 505.49,-181.88 460.18,-133.65 434.82,-109.61"/>
<polygon fill="#63b8ff" stroke="#63b8ff" points="495.1,-306.49 488.83,-315.03 499.06,-312.26 495.1,-306.49"/>
</a>
</g>
</g>
<!-- Node6&#45;&gt;Node7 -->
<g id="edge7_Node000006_Node000007" class="edge">
<title>Node6&#45;&gt;Node7</title>
<g id="a_edge7_Node000006_Node000007"><a xlink:title=" ">
<path fill="none" stroke="#63b8ff" d="M32.97,-227.22C22.51,-219.25 13.01,-209.54 6.96,-198 -2.58,-179.79 -1.95,-170.27 6.96,-151.75 55.06,-51.78 194.34,-25.54 282.01,-19.15"/>
<polygon fill="#63b8ff" stroke="#63b8ff" points="30.92,-230.05 41.12,-232.91 34.93,-224.31 30.92,-230.05"/>
</a>
</g>
</g>
<!-- Node8 -->
<g id="Node000008" class="node">
<title>Node8</title>
<g id="a_Node000008"><a xlink:href="../../d5/da4/frame__interpolator_8cpp.html" target="_top" xlink:title=" ">
<polygon fill="white" stroke="#666666" points="268.71,-115.75 119.21,-115.75 119.21,-69.5 268.71,-69.5 268.71,-115.75"/>
<text text-anchor="start" x="127.21" y="-102.25" font-family="Helvetica,sans-Serif" font-size="10.00">/home/runner/work/FastLED</text>
<text text-anchor="start" x="127.21" y="-89.5" font-family="Helvetica,sans-Serif" font-size="10.00">/FastLED/src/fx/video/frame</text>
<text text-anchor="middle" x="193.96" y="-76.75" font-family="Helvetica,sans-Serif" font-size="10.00">_interpolator.cpp</text>
</a>
</g>
</g>
<!-- Node6&#45;&gt;Node8 -->
<g id="edge8_Node000006_Node000008" class="edge">
<title>Node6&#45;&gt;Node8</title>
<g id="a_edge8_Node000006_Node000008"><a xlink:title=" ">
<path fill="none" stroke="#63b8ff" d="M146.07,-227.31C157.13,-219.2 167.6,-209.41 174.96,-198 190.93,-173.23 194.36,-138.65 194.69,-116.2"/>
<polygon fill="#63b8ff" stroke="#63b8ff" points="144.22,-224.33 137.94,-232.87 148.17,-230.11 144.22,-224.33"/>
</a>
</g>
</g>
<!-- Node9 -->
<g id="Node000009" class="node">
<title>Node9</title>
<g id="a_Node000009"><a xlink:href="../../d3/dda/frame__interpolator_8h.html" target="_top" xlink:title=" ">
<polygon fill="white" stroke="#666666" points="371.71,-198 222.21,-198 222.21,-151.75 371.71,-151.75 371.71,-198"/>
<text text-anchor="start" x="230.21" y="-184.5" font-family="Helvetica,sans-Serif" font-size="10.00">/home/runner/work/FastLED</text>
<text text-anchor="start" x="230.21" y="-171.75" font-family="Helvetica,sans-Serif" font-size="10.00">/FastLED/src/fx/video/frame</text>
<text text-anchor="middle" x="296.96" y="-159" font-family="Helvetica,sans-Serif" font-size="10.00">_interpolator.h</text>
</a>
</g>
</g>
<!-- Node6&#45;&gt;Node9 -->
<g id="edge9_Node000006_Node000009" class="edge">
<title>Node6&#45;&gt;Node9</title>
<g id="a_edge9_Node000006_Node000009"><a xlink:title=" ">
<path fill="none" stroke="#63b8ff" d="M159.36,-229.48C185.2,-219.41 214.33,-208.07 239.11,-198.41"/>
<polygon fill="#63b8ff" stroke="#63b8ff" points="158.35,-226.12 150.3,-233.01 160.89,-232.64 158.35,-226.12"/>
</a>
</g>
</g>
<!-- Node6&#45;&gt;Node10 -->
<g id="edge15_Node000006_Node000010" class="edge">
<title>Node6&#45;&gt;Node10</title>
<g id="a_edge15_Node000006_Node000010"><a xlink:title=" ">
<path fill="none" stroke="#63b8ff" d="M177.15,-233.8C269.18,-217.36 312.92,-255.99 380.96,-198 407.22,-175.62 414.35,-133.11 416.27,-109.84"/>
<polygon fill="#63b8ff" stroke="#63b8ff" points="176.6,-230.35 167.47,-235.73 177.96,-237.21 176.6,-230.35"/>
</a>
</g>
</g>
<!-- Node12 -->
<g id="Node000012" class="node">
<title>Node12</title>
<g id="a_Node000012"><a xlink:href="../../da/d7a/pixel__stream_8cpp.html" target="_top" xlink:title=" ">
<polygon fill="white" stroke="#666666" points="165.71,-198 16.21,-198 16.21,-151.75 165.71,-151.75 165.71,-198"/>
<text text-anchor="start" x="24.21" y="-184.5" font-family="Helvetica,sans-Serif" font-size="10.00">/home/runner/work/FastLED</text>
<text text-anchor="start" x="24.21" y="-171.75" font-family="Helvetica,sans-Serif" font-size="10.00">/FastLED/src/fx/video/pixel</text>
<text text-anchor="middle" x="90.96" y="-159" font-family="Helvetica,sans-Serif" font-size="10.00">_stream.cpp</text>
</a>
</g>
</g>
<!-- Node6&#45;&gt;Node12 -->
<g id="edge14_Node000006_Node000012" class="edge">
<title>Node6&#45;&gt;Node12</title>
<g id="a_edge14_Node000006_Node000012"><a xlink:title=" ">
<path fill="none" stroke="#63b8ff" d="M90.96,-222.34C90.96,-214.25 90.96,-205.82 90.96,-198.39"/>
<polygon fill="#63b8ff" stroke="#63b8ff" points="87.46,-222.26 90.96,-232.26 94.46,-222.26 87.46,-222.26"/>
</a>
</g>
</g>
<!-- Node9&#45;&gt;Node7 -->
<g id="edge10_Node000009_Node000007" class="edge">
<title>Node9&#45;&gt;Node7</title>
<g id="a_edge10_Node000009_Node000007"><a xlink:title=" ">
<path fill="none" stroke="#63b8ff" d="M298.92,-140.05C301.15,-118.99 305.88,-91.77 315.96,-69.5 322.01,-56.13 332.26,-43.2 341,-33.6"/>
<polygon fill="#63b8ff" stroke="#63b8ff" points="295.45,-139.57 298.04,-149.85 302.42,-140.2 295.45,-139.57"/>
</a>
</g>
</g>
<!-- Node9&#45;&gt;Node8 -->
<g id="edge11_Node000009_Node000008" class="edge">
<title>Node9&#45;&gt;Node8</title>
<g id="a_edge11_Node000009_Node000008"><a xlink:title=" ">
<path fill="none" stroke="#63b8ff" d="M259.06,-144.35C247.05,-134.99 233.97,-124.8 222.71,-116.02"/>
<polygon fill="#63b8ff" stroke="#63b8ff" points="256.76,-146.99 266.8,-150.38 261.06,-141.47 256.76,-146.99"/>
</a>
</g>
</g>
<!-- Node9&#45;&gt;Node10 -->
<g id="edge12_Node000009_Node000010" class="edge">
<title>Node9&#45;&gt;Node10</title>
<g id="a_edge12_Node000009_Node000010"><a xlink:title=" ">
<path fill="none" stroke="#63b8ff" d="M339.81,-145.22C357.68,-133.27 377.77,-119.83 392.97,-109.67"/>
<polygon fill="#63b8ff" stroke="#63b8ff" points="338.33,-142 331.96,-150.47 342.22,-147.82 338.33,-142"/>
</a>
</g>
</g>
<!-- Node10&#45;&gt;Node7 -->
<g id="edge13_Node000010_Node000007" class="edge">
<title>Node10&#45;&gt;Node7</title>
<g id="a_edge13_Node000010_Node000007"><a xlink:title=" ">
<path fill="none" stroke="#63b8ff" d="M396.87,-66.89C387.99,-55.96 377.81,-43.42 369.95,-33.75"/>
<polygon fill="#63b8ff" stroke="#63b8ff" points="393.97,-68.86 402.99,-74.42 399.4,-64.45 393.97,-68.86"/>
</a>
</g>
</g>
<!-- Node14&#45;&gt;Node2 -->
<g id="edge21_Node000014_Node000002" class="edge">
<title>Node14&#45;&gt;Node2</title>
<g id="a_edge21_Node000014_Node000002"><a xlink:title=" ">
<path fill="none" stroke="#63b8ff" d="M861.46,-312.44C830.35,-302.7 792.57,-290.87 760.22,-280.74"/>
<polygon fill="#63b8ff" stroke="#63b8ff" points="860.14,-315.69 870.72,-315.34 862.23,-309.01 860.14,-315.69"/>
</a>
</g>
</g>
<!-- Node14&#45;&gt;Node13 -->
<g id="edge23_Node000014_Node000013" class="edge">
<title>Node14&#45;&gt;Node13</title>
<g id="a_edge23_Node000014_Node000013"><a xlink:title=" ">
<path fill="none" stroke="#63b8ff" d="M903.87,-307.26C894.99,-296.33 884.81,-283.8 876.95,-274.12"/>
<polygon fill="#63b8ff" stroke="#63b8ff" points="900.97,-309.24 909.99,-314.8 906.4,-304.83 900.97,-309.24"/>
</a>
</g>
</g>
<!-- Node15 -->
<g id="Node000015" class="node">
<title>Node15</title>
<g id="a_Node000015"><a xlink:href="../../dd/d96/_fx_animartrix_8ino.html" target="_top" xlink:title=" ">
<polygon fill="white" stroke="#666666" points="1136.46,-280.25 961.46,-280.25 961.46,-234 1136.46,-234 1136.46,-280.25"/>
<text text-anchor="start" x="969.46" y="-266.75" font-family="Helvetica,sans-Serif" font-size="10.00">/home/runner/work/FastLED</text>
<text text-anchor="start" x="969.46" y="-254" font-family="Helvetica,sans-Serif" font-size="10.00">/FastLED/examples/FxAnimartrix</text>
<text text-anchor="middle" x="1048.96" y="-241.25" font-family="Helvetica,sans-Serif" font-size="10.00">/FxAnimartrix.ino</text>
</a>
</g>
</g>
<!-- Node14&#45;&gt;Node15 -->
<g id="edge19_Node000014_Node000015" class="edge">
<title>Node14&#45;&gt;Node15</title>
<g id="a_edge19_Node000014_Node000015"><a xlink:title=" ">
<path fill="none" stroke="#63b8ff" d="M961.23,-309.97C976.84,-300.75 994.97,-290.03 1010.69,-280.74"/>
<polygon fill="#63b8ff" stroke="#63b8ff" points="959.52,-306.92 952.69,-315.02 963.08,-312.94 959.52,-306.92"/>
</a>
</g>
</g>
<!-- Node16 -->
<g id="Node000016" class="node">
<title>Node16</title>
<g id="a_Node000016"><a xlink:href="../../d6/d35/_fx_engine_8ino.html" target="_top" xlink:title="Demonstrates how to use the FxEngine to switch between different effects on a 2D LED matrix.">
<polygon fill="white" stroke="#666666" points="1311.08,-280.25 1154.83,-280.25 1154.83,-234 1311.08,-234 1311.08,-280.25"/>
<text text-anchor="start" x="1162.83" y="-266.75" font-family="Helvetica,sans-Serif" font-size="10.00">/home/runner/work/FastLED</text>
<text text-anchor="start" x="1162.83" y="-254" font-family="Helvetica,sans-Serif" font-size="10.00">/FastLED/examples/FxEngine</text>
<text text-anchor="middle" x="1232.96" y="-241.25" font-family="Helvetica,sans-Serif" font-size="10.00">/FxEngine.ino</text>
</a>
</g>
</g>
<!-- Node14&#45;&gt;Node16 -->
<g id="edge20_Node000014_Node000016" class="edge">
<title>Node14&#45;&gt;Node16</title>
<g id="a_edge20_Node000014_Node000016"><a xlink:title=" ">
<path fill="none" stroke="#63b8ff" d="M1006.02,-313.28C1047.94,-303.62 1099.72,-291.52 1145.96,-280.25 1148.84,-279.55 1151.77,-278.83 1154.72,-278.1"/>
<polygon fill="#63b8ff" stroke="#63b8ff" points="1005.47,-309.82 996.51,-315.47 1007.04,-316.64 1005.47,-309.82"/>
</a>
</g>
</g>
<!-- Node17 -->
<g id="Node000017" class="node">
<title>Node17</title>
<g id="a_Node000017"><a xlink:href="../../d7/dd3/wasm_8ino.html" target="_top" xlink:title="Demonstrates an advanced ino file with multiple effects and UI elements.">
<polygon fill="white" stroke="#666666" points="1478.71,-280.25 1329.21,-280.25 1329.21,-234 1478.71,-234 1478.71,-280.25"/>
<text text-anchor="start" x="1337.21" y="-266.75" font-family="Helvetica,sans-Serif" font-size="10.00">/home/runner/work/FastLED</text>
<text text-anchor="start" x="1337.21" y="-254" font-family="Helvetica,sans-Serif" font-size="10.00">/FastLED/examples/wasm</text>
<text text-anchor="middle" x="1403.96" y="-241.25" font-family="Helvetica,sans-Serif" font-size="10.00">/wasm.ino</text>
</a>
</g>
</g>
<!-- Node14&#45;&gt;Node17 -->
<g id="edge22_Node000014_Node000017" class="edge">
<title>Node14&#45;&gt;Node17</title>
<g id="a_edge22_Node000014_Node000017"><a xlink:title=" ">
<path fill="none" stroke="#63b8ff" d="M1009.94,-323.96C1090.5,-315.68 1214.04,-301.03 1319.96,-280.25 1322.92,-279.67 1325.93,-279.04 1328.96,-278.39"/>
<polygon fill="#63b8ff" stroke="#63b8ff" points="1009.97,-320.44 1000.37,-324.94 1010.67,-327.4 1009.97,-320.44"/>
</a>
</g>
</g>
</g>
</svg>
