<?xml version="1.0" encoding="UTF-8" standalone="no"?>
<!DOCTYPE svg PUBLIC "-//W3C//DTD SVG 1.1//EN"
 "http://www.w3.org/Graphics/SVG/1.1/DTD/svg11.dtd">
<!-- Generated by graphviz version 12.2.1 (20241206.2353)
 -->
<!-- Title: SK6812Controller&lt; DATA_PIN, RGB_ORDER &gt; Pages: 1 -->
<svg width="465pt" height="125pt"
 viewBox="0.00 0.00 465.38 124.75" xmlns="http://www.w3.org/2000/svg" xmlns:xlink="http://www.w3.org/1999/xlink">
<g id="graph0" class="graph" transform="scale(1 1) rotate(0) translate(4 120.75)">
<title>SK6812Controller&lt; DATA_PIN, RGB_ORDER &gt;</title>
<!-- Node1 -->
<g id="Node000001" class="node">
<title>Node1</title>
<g id="a_Node000001"><a xlink:title="SK6812 controller class.">
<polygon fill="#999999" stroke="#666666" points="142.38,-33.5 4.88,-33.5 4.88,0 142.38,0 142.38,-33.5"/>
<text text-anchor="start" x="12.88" y="-20" font-family="Helvetica,sans-Serif" font-size="10.00">SK6812Controller&lt; DATA</text>
<text text-anchor="middle" x="73.62" y="-7.25" font-family="Helvetica,sans-Serif" font-size="10.00">_PIN, RGB_ORDER &gt;</text>
</a>
</g>
</g>
<!-- Node1&#45;&gt;Node1 -->
<g id="edge2_Node000001_Node000001" class="edge">
<title>Node1&#45;&gt;Node1</title>
<g id="a_edge2_Node000001_Node000001"><a xlink:title=" ">
<path fill="none" stroke="orange" stroke-dasharray="5,2" d="M153.94,-18.89C157.99,-18.36 160.38,-17.65 160.38,-16.75 160.38,-15.2 153.23,-14.2 142.7,-13.74"/>
<polygon fill="orange" stroke="orange" points="153.91,-15.38 144.21,-19.65 154.45,-22.36 153.91,-15.38"/>
</a>
</g>
<text text-anchor="middle" x="230.12" y="-13.62" font-family="Helvetica,sans-Serif" font-size="10.00" fill="grey"> &lt; DATA_PIN, RGB_ORDER &gt;</text>
</g>
<!-- Node1&#45;&gt;Node1 -->
<g id="edge3_Node000001_Node000001" class="edge">
<title>Node1&#45;&gt;Node1</title>
<g id="a_edge3_Node000001_Node000001"><a xlink:title=" ">
<path fill="none" stroke="orange" stroke-dasharray="5,2" d="M154.02,-22.79C219.98,-24.46 299.88,-22.44 299.88,-16.75 299.88,-10.73 210.46,-8.82 142.73,-11.03"/>
<polygon fill="orange" stroke="orange" points="154.34,-19.3 144.24,-22.51 154.14,-26.3 154.34,-19.3"/>
</a>
</g>
<text text-anchor="middle" x="369.62" y="-13.62" font-family="Helvetica,sans-Serif" font-size="10.00" fill="grey"> &lt; DATA_PIN, RGB_ORDER &gt;</text>
</g>
<!-- Node2 -->
<g id="Node000002" class="node">
<title>Node2</title>
<g id="a_Node000002"><a xlink:title=" ">
<polygon fill="white" stroke="#666666" points="147.25,-116.75 0,-116.75 0,-70.5 147.25,-70.5 147.25,-116.75"/>
<text text-anchor="start" x="8" y="-103.25" font-family="Helvetica,sans-Serif" font-size="10.00">ClocklessController</text>
<text text-anchor="start" x="8" y="-90.5" font-family="Helvetica,sans-Serif" font-size="10.00">&lt; DATA_PIN, 3 *FMUL,</text>
<text text-anchor="middle" x="73.62" y="-77.75" font-family="Helvetica,sans-Serif" font-size="10.00"> 3 *FMUL, 4 *FMUL, RGB &gt;</text>
</a>
</g>
</g>
<!-- Node2&#45;&gt;Node1 -->
<g id="edge1_Node000001_Node000002" class="edge">
<title>Node2&#45;&gt;Node1</title>
<g id="a_edge1_Node000001_Node000002"><a xlink:title=" ">
<path fill="none" stroke="#63b8ff" d="M73.62,-58.67C73.62,-49.99 73.62,-41.07 73.62,-33.78"/>
<polygon fill="#63b8ff" stroke="#63b8ff" points="70.13,-58.65 73.63,-68.65 77.13,-58.65 70.13,-58.65"/>
</a>
</g>
</g>
</g>
</svg>
