<?xml version="1.0" encoding="UTF-8" standalone="no"?>
<!DOCTYPE svg PUBLIC "-//W3C//DTD SVG 1.1//EN"
 "http://www.w3.org/Graphics/SVG/1.1/DTD/svg11.dtd">
<!-- Generated by graphviz version 12.2.1 (20241206.2353)
 -->
<!-- Title: CLEDController Pages: 1 -->
<svg width="207pt" height="141pt"
 viewBox="0.00 0.00 207.45 141.25" xmlns="http://www.w3.org/2000/svg" xmlns:xlink="http://www.w3.org/1999/xlink">
<g id="graph0" class="graph" transform="scale(1 1) rotate(0) translate(4 137.25)">
<title>CLEDController</title>
<!-- Node1 -->
<g id="Node000001" class="node">
<title>Node1</title>
<g id="a_Node000001"><a xlink:title="Base definition for an LED controller.">
<polygon fill="#999999" stroke="#666666" points="128.62,-29.5 39.12,-29.5 39.12,-8.75 128.62,-8.75 128.62,-29.5"/>
<text text-anchor="middle" x="83.88" y="-16" font-family="Helvetica,sans-Serif" font-size="10.00">CLEDController</text>
</a>
</g>
</g>
<!-- Node1&#45;&gt;Node1 -->
<g id="edge2_Node000001_Node000001" class="edge">
<title>Node1&#45;&gt;Node1</title>
<g id="a_edge2_Node000001_Node000001"><a xlink:title=" ">
<path fill="none" stroke="#9a32cd" stroke-dasharray="5,2" d="M140.07,-26.9C144.14,-25.15 146.62,-22.55 146.62,-19.12 146.62,-13.19 139.18,-9.76 129,-8.84"/>
<polygon fill="#9a32cd" stroke="#9a32cd" points="139.46,-23.46 130.48,-29.08 141,-30.28 139.46,-23.46"/>
</a>
</g>
<text text-anchor="middle" x="171.38" y="-28.75" font-family="Helvetica,sans-Serif" font-size="10.00" fill="grey"> m_pHead</text>
<text text-anchor="middle" x="171.38" y="-16" font-family="Helvetica,sans-Serif" font-size="10.00" fill="grey">m_pNext</text>
<text text-anchor="middle" x="171.38" y="-3.25" font-family="Helvetica,sans-Serif" font-size="10.00" fill="grey">m_pTail</text>
</g>
<!-- Node2 -->
<g id="Node000002" class="node">
<title>Node2</title>
<g id="a_Node000002"><a xlink:href="../../db/d87/group___pixel_types.html#d7/d82/struct_c_r_g_b" target="_top" xlink:title="Representation of an RGB pixel (Red, Green, Blue)">
<polygon fill="white" stroke="#666666" points="43.75,-133.25 0,-133.25 0,-112.5 43.75,-112.5 43.75,-133.25"/>
<text text-anchor="middle" x="21.88" y="-119.75" font-family="Helvetica,sans-Serif" font-size="10.00">CRGB</text>
</a>
</g>
</g>
<!-- Node2&#45;&gt;Node1 -->
<g id="edge1_Node000001_Node000002" class="edge">
<title>Node2&#45;&gt;Node1</title>
<g id="a_edge1_Node000001_Node000002"><a xlink:title=" ">
<path fill="none" stroke="#9a32cd" stroke-dasharray="5,2" d="M17.21,-101.06C15.3,-87.41 15.08,-69.68 22.88,-56.25 29.92,-44.11 42.78,-35.62 54.89,-29.94"/>
<polygon fill="#9a32cd" stroke="#9a32cd" points="13.74,-101.51 18.99,-110.71 20.62,-100.24 13.74,-101.51"/>
</a>
</g>
<text text-anchor="middle" x="73.88" y="-85" font-family="Helvetica,sans-Serif" font-size="10.00" fill="grey"> m_ColorCorrection</text>
<text text-anchor="middle" x="73.88" y="-72.25" font-family="Helvetica,sans-Serif" font-size="10.00" fill="grey">m_ColorTemperature</text>
<text text-anchor="middle" x="73.88" y="-59.5" font-family="Helvetica,sans-Serif" font-size="10.00" fill="grey">m_Data</text>
</g>
<!-- Node3 -->
<g id="Node000003" class="node">
<title>Node3</title>
<g id="a_Node000003"><a xlink:href="../../db/d74/struct_rgbw.html" target="_top" xlink:title=" ">
<polygon fill="white" stroke="#666666" points="168.38,-133.25 125.38,-133.25 125.38,-112.5 168.38,-112.5 168.38,-133.25"/>
<text text-anchor="middle" x="146.88" y="-119.75" font-family="Helvetica,sans-Serif" font-size="10.00">Rgbw</text>
</a>
</g>
</g>
<!-- Node3&#45;&gt;Node1 -->
<g id="edge3_Node000001_Node000003" class="edge">
<title>Node3&#45;&gt;Node1</title>
<g id="a_edge3_Node000001_Node000003"><a xlink:title=" ">
<path fill="none" stroke="#9a32cd" stroke-dasharray="5,2" d="M142.88,-101.19C139.58,-87.61 133.93,-69.89 124.88,-56.25 117.95,-45.82 107.27,-36.54 98.54,-30"/>
<polygon fill="#9a32cd" stroke="#9a32cd" points="139.43,-101.76 144.97,-110.79 146.27,-100.28 139.43,-101.76"/>
</a>
</g>
<text text-anchor="middle" x="170.2" y="-72.25" font-family="Helvetica,sans-Serif" font-size="10.00" fill="grey"> mRgbMode</text>
</g>
</g>
</svg>
