<?xml version="1.0" encoding="UTF-8" standalone="no"?>
<!DOCTYPE svg PUBLIC "-//W3C//DTD SVG 1.1//EN"
 "http://www.w3.org/Graphics/SVG/1.1/DTD/svg11.dtd">
<!-- Generated by graphviz version 12.2.1 (20241206.2353)
 -->
<!-- Title: /home/runner/work/FastLED/FastLED/src/third_party/espressif/led_strip/src/led_strip_spi.h Pages: 1 -->
<svg width="328pt" height="181pt"
 viewBox="0.00 0.00 327.89 180.50" xmlns="http://www.w3.org/2000/svg" xmlns:xlink="http://www.w3.org/1999/xlink">
<g id="graph0" class="graph" transform="scale(1 1) rotate(0) translate(4 176.5)">
<title>/home/runner/work/FastLED/FastLED/src/third_party/espressif/led_strip/src/led_strip_spi.h</title>
<!-- Node1 -->
<g id="Node000001" class="node">
<title>Node1</title>
<g id="a_Node000001"><a xlink:title=" ">
<polygon fill="#999999" stroke="#666666" points="170.02,-172.5 20.52,-172.5 20.52,-113.5 170.02,-113.5 170.02,-172.5"/>
<text text-anchor="start" x="28.52" y="-159" font-family="Helvetica,sans-Serif" font-size="10.00">/home/runner/work/FastLED</text>
<text text-anchor="start" x="28.52" y="-146.25" font-family="Helvetica,sans-Serif" font-size="10.00">/FastLED/src/third_party</text>
<text text-anchor="start" x="28.52" y="-133.5" font-family="Helvetica,sans-Serif" font-size="10.00">/espressif/led_strip/src</text>
<text text-anchor="middle" x="95.27" y="-120.75" font-family="Helvetica,sans-Serif" font-size="10.00">/led_strip_spi.h</text>
</a>
</g>
</g>
<!-- Node2 -->
<g id="Node000002" class="node">
<title>Node2</title>
<g id="a_Node000002"><a xlink:title=" ">
<polygon fill="#e0e0e0" stroke="#999999" points="154.64,-20.75 101.89,-20.75 101.89,0 154.64,0 154.64,-20.75"/>
<text text-anchor="middle" x="128.27" y="-7.25" font-family="Helvetica,sans-Serif" font-size="10.00">stdint.h</text>
</a>
</g>
</g>
<!-- Node1&#45;&gt;Node2 -->
<g id="edge1_Node000001_Node000002" class="edge">
<title>Node1&#45;&gt;Node2</title>
<g id="a_edge1_Node000001_Node000002"><a xlink:title=" ">
<path fill="none" stroke="#63b8ff" d="M33.25,-113.13C9.2,-97.83 -9.44,-77.85 5.27,-56.75 24.31,-29.42 61.78,-18.51 90.38,-14.18"/>
<polygon fill="#63b8ff" stroke="#63b8ff" points="90.65,-17.67 100.12,-12.93 89.76,-10.73 90.65,-17.67"/>
</a>
</g>
</g>
<!-- Node3 -->
<g id="Node000003" class="node">
<title>Node3</title>
<g id="a_Node000003"><a xlink:title=" ">
<polygon fill="#e0e0e0" stroke="#999999" points="74.39,-77.5 14.14,-77.5 14.14,-56.75 74.39,-56.75 74.39,-77.5"/>
<text text-anchor="middle" x="44.27" y="-64" font-family="Helvetica,sans-Serif" font-size="10.00">esp_err.h</text>
</a>
</g>
</g>
<!-- Node1&#45;&gt;Node3 -->
<g id="edge2_Node000001_Node000003" class="edge">
<title>Node1&#45;&gt;Node3</title>
<g id="a_edge2_Node000001_Node000003"><a xlink:title=" ">
<path fill="none" stroke="#63b8ff" d="M75.41,-113.23C69.42,-104.55 62.99,-95.24 57.54,-87.35"/>
<polygon fill="#63b8ff" stroke="#63b8ff" points="60.48,-85.44 51.92,-79.2 54.72,-89.42 60.48,-85.44"/>
</a>
</g>
</g>
<!-- Node4 -->
<g id="Node000004" class="node">
<title>Node4</title>
<g id="a_Node000004"><a xlink:title=" ">
<polygon fill="#e0e0e0" stroke="#999999" points="202.14,-77.5 92.39,-77.5 92.39,-56.75 202.14,-56.75 202.14,-77.5"/>
<text text-anchor="middle" x="147.27" y="-64" font-family="Helvetica,sans-Serif" font-size="10.00">driver/spi_master.h</text>
</a>
</g>
</g>
<!-- Node1&#45;&gt;Node4 -->
<g id="edge3_Node000001_Node000004" class="edge">
<title>Node1&#45;&gt;Node4</title>
<g id="a_edge3_Node000001_Node000004"><a xlink:title=" ">
<path fill="none" stroke="#63b8ff" d="M115.52,-113.23C121.63,-104.55 128.18,-95.24 133.74,-87.35"/>
<polygon fill="#63b8ff" stroke="#63b8ff" points="136.58,-89.39 139.48,-79.19 130.86,-85.36 136.58,-89.39"/>
</a>
</g>
</g>
<!-- Node5 -->
<g id="Node000005" class="node">
<title>Node5</title>
<g id="a_Node000005"><a xlink:href="../../d4/d88/led__strip__types_8h.html" target="_top" xlink:title=" ">
<polygon fill="white" stroke="#666666" points="319.89,-77.5 220.64,-77.5 220.64,-56.75 319.89,-56.75 319.89,-77.5"/>
<text text-anchor="middle" x="270.27" y="-64" font-family="Helvetica,sans-Serif" font-size="10.00">led_strip_types.h</text>
</a>
</g>
</g>
<!-- Node1&#45;&gt;Node5 -->
<g id="edge4_Node000001_Node000005" class="edge">
<title>Node1&#45;&gt;Node5</title>
<g id="a_edge4_Node000001_Node000005"><a xlink:title=" ">
<path fill="none" stroke="#63b8ff" d="M163.93,-113.01C188.93,-102.46 216.09,-91 236.7,-82.3"/>
<polygon fill="#63b8ff" stroke="#63b8ff" points="237.88,-85.6 245.73,-78.48 235.16,-79.15 237.88,-85.6"/>
</a>
</g>
</g>
<!-- Node5&#45;&gt;Node2 -->
<g id="edge5_Node000005_Node000002" class="edge">
<title>Node5&#45;&gt;Node2</title>
<g id="a_edge5_Node000005_Node000002"><a xlink:title=" ">
<path fill="none" stroke="#63b8ff" d="M244.88,-56.34C222.37,-47.66 189.24,-34.88 164.04,-25.17"/>
<polygon fill="#63b8ff" stroke="#63b8ff" points="165.44,-21.95 154.85,-21.62 162.92,-28.49 165.44,-21.95"/>
</a>
</g>
</g>
</g>
</svg>
