<?xml version="1.0" encoding="UTF-8" standalone="no"?>
<!DOCTYPE svg PUBLIC "-//W3C//DTD SVG 1.1//EN"
 "http://www.w3.org/Graphics/SVG/1.1/DTD/svg11.dtd">
<!-- Generated by graphviz version 12.2.1 (20241206.2353)
 -->
<!-- Title: fl::SortedHeapMap&lt; Key, Value, Less &gt;::Pair Pages: 1 -->
<svg width="141pt" height="193pt"
 viewBox="0.00 0.00 141.00 193.25" xmlns="http://www.w3.org/2000/svg" xmlns:xlink="http://www.w3.org/1999/xlink">
<g id="graph0" class="graph" transform="scale(1 1) rotate(0) translate(4 189.25)">
<title>fl::SortedHeapMap&lt; Key, Value, Less &gt;::Pair</title>
<!-- Node1 -->
<g id="Node000001" class="node">
<title>Node1</title>
<g id="a_Node000001"><a xlink:title=" ">
<polygon fill="#999999" stroke="#666666" points="133,-33.5 0,-33.5 0,0 133,0 133,-33.5"/>
<text text-anchor="start" x="8" y="-20" font-family="Helvetica,sans-Serif" font-size="10.00">fl::SortedHeapMap&lt;</text>
<text text-anchor="middle" x="66.5" y="-7.25" font-family="Helvetica,sans-Serif" font-size="10.00"> Key, Value, Less &gt;::Pair</text>
</a>
</g>
</g>
<!-- Node2 -->
<g id="Node000002" class="node">
<title>Node2</title>
<g id="a_Node000002"><a xlink:href="../../db/d42/struct_key.html" target="_top" xlink:title=" ">
<polygon fill="white" stroke="#666666" points="83.5,-103 49.5,-103 49.5,-82.25 83.5,-82.25 83.5,-103"/>
<text text-anchor="middle" x="66.5" y="-89.5" font-family="Helvetica,sans-Serif" font-size="10.00">Key</text>
</a>
</g>
</g>
<!-- Node2&#45;&gt;Node1 -->
<g id="edge1_Node000001_Node000002" class="edge">
<title>Node2&#45;&gt;Node1</title>
<g id="a_edge1_Node000001_Node000002"><a xlink:title=" ">
<path fill="none" stroke="#9a32cd" stroke-dasharray="5,2" d="M66.5,-70.63C66.5,-58.97 66.5,-44.69 66.5,-33.91"/>
<polygon fill="#9a32cd" stroke="#9a32cd" points="63,-70.45 66.5,-80.45 70,-70.45 63,-70.45"/>
</a>
</g>
<text text-anchor="middle" x="77.38" y="-54.75" font-family="Helvetica,sans-Serif" font-size="10.00" fill="grey"> first</text>
</g>
<!-- Node3 -->
<g id="Node000003" class="node">
<title>Node3</title>
<g id="a_Node000003"><a xlink:href="../../d7/d38/struct_color_h_s_v.html" target="_top" xlink:title=" ">
<polygon fill="white" stroke="#666666" points="97.38,-185.25 35.62,-185.25 35.62,-164.5 97.38,-164.5 97.38,-185.25"/>
<text text-anchor="middle" x="66.5" y="-171.75" font-family="Helvetica,sans-Serif" font-size="10.00">ColorHSV</text>
</a>
</g>
</g>
<!-- Node3&#45;&gt;Node2 -->
<g id="edge2_Node000002_Node000003" class="edge">
<title>Node3&#45;&gt;Node2</title>
<g id="a_edge2_Node000002_Node000003"><a xlink:title=" ">
<path fill="none" stroke="#9a32cd" stroke-dasharray="5,2" d="M66.5,-152.99C66.5,-136.84 66.5,-115.24 66.5,-103.05"/>
<polygon fill="#9a32cd" stroke="#9a32cd" points="63,-152.52 66.5,-162.52 70,-152.52 63,-152.52"/>
</a>
</g>
<text text-anchor="middle" x="94.62" y="-137" font-family="Helvetica,sans-Serif" font-size="10.00" fill="grey"> curr_color_</text>
<text text-anchor="middle" x="94.62" y="-124.25" font-family="Helvetica,sans-Serif" font-size="10.00" fill="grey">orig_color_</text>
</g>
</g>
</svg>
