<?xml version="1.0" encoding="UTF-8" standalone="no"?>
<!DOCTYPE svg PUBLIC "-//W3C//DTD SVG 1.1//EN"
 "http://www.w3.org/Graphics/SVG/1.1/DTD/svg11.dtd">
<!-- Generated by graphviz version 12.2.1 (20241206.2353)
 -->
<!-- Title: fl::NoiseWave::draw Pages: 1 -->
<svg width="554pt" height="29pt"
 viewBox="0.00 0.00 554.25 28.75" xmlns="http://www.w3.org/2000/svg" xmlns:xlink="http://www.w3.org/1999/xlink">
<g id="graph0" class="graph" transform="scale(1 1) rotate(0) translate(4 24.75)">
<title>fl::NoiseWave::draw</title>
<!-- Node1 -->
<g id="Node000001" class="node">
<title>Node1</title>
<g id="a_Node000001"><a xlink:title=" ">
<polygon fill="#999999" stroke="#666666" points="112.75,-20.75 0,-20.75 0,0 112.75,0 112.75,-20.75"/>
<text text-anchor="middle" x="56.38" y="-7.25" font-family="Helvetica,sans-Serif" font-size="10.00">fl::NoiseWave::draw</text>
</a>
</g>
</g>
<!-- Node2 -->
<g id="Node000002" class="node">
<title>Node2</title>
<g id="a_Node000002"><a xlink:href="../../da/d7a/struct_noise_generator.html#a62be308aab8c1d496976934e35bf648b" target="_top" xlink:title=" ">
<polygon fill="white" stroke="#666666" points="291.5,-20.75 148.75,-20.75 148.75,0 291.5,0 291.5,-20.75"/>
<text text-anchor="middle" x="220.12" y="-7.25" font-family="Helvetica,sans-Serif" font-size="10.00">NoiseGenerator::LedValue</text>
</a>
</g>
</g>
<!-- Node1&#45;&gt;Node2 -->
<g id="edge1_Node000001_Node000002" class="edge">
<title>Node1&#45;&gt;Node2</title>
<g id="a_edge1_Node000001_Node000002"><a xlink:title=" ">
<path fill="none" stroke="#63b8ff" d="M113.04,-10.38C120.8,-10.38 128.91,-10.38 137.04,-10.38"/>
<polygon fill="#63b8ff" stroke="#63b8ff" points="136.99,-13.88 146.99,-10.38 136.99,-6.88 136.99,-13.88"/>
</a>
</g>
</g>
<!-- Node3 -->
<g id="Node000003" class="node">
<title>Node3</title>
<g id="a_Node000003"><a xlink:href="../../da/d7a/struct_noise_generator.html#addecf502634007f361b656342ffd1621" target="_top" xlink:title=" ">
<polygon fill="white" stroke="#666666" points="453,-20.75 327.5,-20.75 327.5,0 453,0 453,-20.75"/>
<text text-anchor="middle" x="390.25" y="-7.25" font-family="Helvetica,sans-Serif" font-size="10.00">NoiseGenerator::Value</text>
</a>
</g>
</g>
<!-- Node2&#45;&gt;Node3 -->
<g id="edge2_Node000002_Node000003" class="edge">
<title>Node2&#45;&gt;Node3</title>
<g id="a_edge2_Node000002_Node000003"><a xlink:title=" ">
<path fill="none" stroke="#63b8ff" d="M291.94,-10.38C299.78,-10.38 307.77,-10.38 315.64,-10.38"/>
<polygon fill="#63b8ff" stroke="#63b8ff" points="315.54,-13.88 325.54,-10.38 315.54,-6.88 315.54,-13.88"/>
</a>
</g>
</g>
<!-- Node4 -->
<g id="Node000004" class="node">
<title>Node4</title>
<g id="a_Node000004"><a xlink:href="../../d8/df9/group___noise_generation.html#ga94be5ce8402e6147209f94d6006e8f00" target="_top" xlink:title="16&#45;bit, fixed point implementation of Perlin&#39;s noise.">
<polygon fill="#fff0f0" stroke="red" points="546.25,-20.75 489,-20.75 489,0 546.25,0 546.25,-20.75"/>
<text text-anchor="middle" x="517.62" y="-7.25" font-family="Helvetica,sans-Serif" font-size="10.00">inoise16</text>
</a>
</g>
</g>
<!-- Node3&#45;&gt;Node4 -->
<g id="edge3_Node000003_Node000004" class="edge">
<title>Node3&#45;&gt;Node4</title>
<g id="a_edge3_Node000003_Node000004"><a xlink:title=" ">
<path fill="none" stroke="#63b8ff" d="M453.2,-10.38C461.38,-10.38 469.58,-10.38 477.23,-10.38"/>
<polygon fill="#63b8ff" stroke="#63b8ff" points="477.22,-13.88 487.22,-10.38 477.22,-6.88 477.22,-13.88"/>
</a>
</g>
</g>
</g>
</svg>
