<?xml version="1.0" encoding="UTF-8" standalone="no"?>
<!DOCTYPE svg PUBLIC "-//W3C//DTD SVG 1.1//EN"
 "http://www.w3.org/Graphics/SVG/1.1/DTD/svg11.dtd">
<!-- Generated by graphviz version 12.2.1 (20241206.2353)
 -->
<!-- Title: Color3i::Black Pages: 1 -->
<svg width="327pt" height="29pt"
 viewBox="0.00 0.00 326.75 28.75" xmlns="http://www.w3.org/2000/svg" xmlns:xlink="http://www.w3.org/1999/xlink">
<g id="graph0" class="graph" transform="scale(1 1) rotate(0) translate(4 24.75)">
<title>Color3i::Black</title>
<!-- Node1 -->
<g id="Node000001" class="node">
<title>Node1</title>
<g id="a_Node000001"><a xlink:title=" ">
<polygon fill="#999999" stroke="#666666" points="83.5,-20.75 0,-20.75 0,0 83.5,0 83.5,-20.75"/>
<text text-anchor="middle" x="41.75" y="-7.25" font-family="Helvetica,sans-Serif" font-size="10.00">Color3i::Black</text>
</a>
</g>
</g>
<!-- Node2 -->
<g id="Node000002" class="node">
<title>Node2</title>
<g id="a_Node000002"><a xlink:href="../../de/d12/struct_color3i.html#a61889348324aefa14c28164d41e98e2a" target="_top" xlink:title=" ">
<polygon fill="white" stroke="#666666" points="210.5,-20.75 119.5,-20.75 119.5,0 210.5,0 210.5,-20.75"/>
<text text-anchor="middle" x="165" y="-7.25" font-family="Helvetica,sans-Serif" font-size="10.00">Color3i::Color3i</text>
</a>
</g>
</g>
<!-- Node1&#45;&gt;Node2 -->
<g id="edge1_Node000001_Node000002" class="edge">
<title>Node1&#45;&gt;Node2</title>
<g id="a_edge1_Node000001_Node000002"><a xlink:title=" ">
<path fill="none" stroke="#63b8ff" d="M83.8,-10.38C91.55,-10.38 99.78,-10.38 107.9,-10.38"/>
<polygon fill="#63b8ff" stroke="#63b8ff" points="107.74,-13.88 117.74,-10.38 107.74,-6.88 107.74,-13.88"/>
</a>
</g>
</g>
<!-- Node3 -->
<g id="Node000003" class="node">
<title>Node3</title>
<g id="a_Node000003"><a xlink:href="../../de/d12/struct_color3i.html#a83d27d6442838f43816b4bd5f937b33d" target="_top" xlink:title=" ">
<polygon fill="white" stroke="#666666" points="318.75,-20.75 246.5,-20.75 246.5,0 318.75,0 318.75,-20.75"/>
<text text-anchor="middle" x="282.62" y="-7.25" font-family="Helvetica,sans-Serif" font-size="10.00">Color3i::Set</text>
</a>
</g>
</g>
<!-- Node2&#45;&gt;Node3 -->
<g id="edge2_Node000002_Node000003" class="edge">
<title>Node2&#45;&gt;Node3</title>
<g id="a_edge2_Node000002_Node000003"><a xlink:title=" ">
<path fill="none" stroke="#63b8ff" d="M210.7,-10.38C218.65,-10.38 226.94,-10.38 234.93,-10.38"/>
<polygon fill="#63b8ff" stroke="#63b8ff" points="234.84,-13.88 244.84,-10.38 234.84,-6.88 234.84,-13.88"/>
</a>
</g>
</g>
</g>
</svg>
