<?xml version="1.0" encoding="UTF-8" standalone="no"?>
<!DOCTYPE svg PUBLIC "-//W3C//DTD SVG 1.1//EN"
 "http://www.w3.org/Graphics/SVG/1.1/DTD/svg11.dtd">
<!-- Generated by graphviz version 12.2.1 (20241206.2353)
 -->
<!-- Title: Color3i::At Pages: 1 -->
<svg width="185pt" height="68pt"
 viewBox="0.00 0.00 184.75 67.75" xmlns="http://www.w3.org/2000/svg" xmlns:xlink="http://www.w3.org/1999/xlink">
<g id="graph0" class="graph" transform="scale(1 1) rotate(0) translate(4 63.75)">
<title>Color3i::At</title>
<!-- Node1 -->
<g id="Node000001" class="node">
<title>Node1</title>
<g id="a_Node000001"><a xlink:title=" ">
<polygon fill="#999999" stroke="#666666" points="176.75,-39.75 109.75,-39.75 109.75,-19 176.75,-19 176.75,-39.75"/>
<text text-anchor="middle" x="143.25" y="-26.25" font-family="Helvetica,sans-Serif" font-size="10.00">Color3i::At</text>
</a>
</g>
</g>
<!-- Node2 -->
<g id="Node000002" class="node">
<title>Node2</title>
<g id="a_Node000002"><a xlink:href="../../de/d12/struct_color3i.html#ad875c78b60bdb81b4ed8b9113733a596" target="_top" xlink:title=" ">
<polygon fill="white" stroke="#666666" points="73.75,-59.75 0,-59.75 0,-39 73.75,-39 73.75,-59.75"/>
<text text-anchor="middle" x="36.88" y="-46.25" font-family="Helvetica,sans-Serif" font-size="10.00">Color3i::Get</text>
</a>
</g>
</g>
<!-- Node1&#45;&gt;Node2 -->
<g id="edge1_Node000001_Node000002" class="edge">
<title>Node1&#45;&gt;Node2</title>
<g id="a_edge1_Node000001_Node000002"><a xlink:title=" ">
<path fill="none" stroke="#63b8ff" d="M98.36,-37.78C90.29,-39.33 81.94,-40.93 74.13,-42.43"/>
<polygon fill="#63b8ff" stroke="#63b8ff" points="98.86,-41.25 108.02,-35.93 97.54,-34.38 98.86,-41.25"/>
</a>
</g>
</g>
<!-- Node3 -->
<g id="Node000003" class="node">
<title>Node3</title>
<g id="a_Node000003"><a xlink:href="../../de/d12/struct_color3i.html#a821caf2b2e32beb98b4a211c978db5b4" target="_top" xlink:title=" ">
<polygon fill="white" stroke="#666666" points="73,-20.75 0.75,-20.75 0.75,0 73,0 73,-20.75"/>
<text text-anchor="middle" x="36.88" y="-7.25" font-family="Helvetica,sans-Serif" font-size="10.00">Color3i::Set</text>
</a>
</g>
</g>
<!-- Node1&#45;&gt;Node3 -->
<g id="edge2_Node000001_Node000003" class="edge">
<title>Node1&#45;&gt;Node3</title>
<g id="a_edge2_Node000001_Node000003"><a xlink:title=" ">
<path fill="none" stroke="#63b8ff" d="M98.4,-21.39C90.06,-19.88 81.43,-18.3 73.39,-16.84"/>
<polygon fill="#63b8ff" stroke="#63b8ff" points="97.56,-24.8 108.02,-23.14 98.81,-17.91 97.56,-24.8"/>
</a>
</g>
</g>
</g>
</svg>
