<?xml version="1.0" encoding="UTF-8" standalone="no"?>
<!DOCTYPE svg PUBLIC "-//W3C//DTD SVG 1.1//EN"
 "http://www.w3.org/Graphics/SVG/1.1/DTD/svg11.dtd">
<!-- Generated by graphviz version 12.2.1 (20241206.2353)
 -->
<!-- Title: Color3i::Add Pages: 1 -->
<svg width="300pt" height="68pt"
 viewBox="0.00 0.00 299.50 67.75" xmlns="http://www.w3.org/2000/svg" xmlns:xlink="http://www.w3.org/1999/xlink">
<g id="graph0" class="graph" transform="scale(1 1) rotate(0) translate(4 63.75)">
<title>Color3i::Add</title>
<!-- Node1 -->
<g id="Node000001" class="node">
<title>Node1</title>
<g id="a_Node000001"><a xlink:title=" ">
<polygon fill="#999999" stroke="#666666" points="291.5,-39.75 216.25,-39.75 216.25,-19 291.5,-19 291.5,-39.75"/>
<text text-anchor="middle" x="253.88" y="-26.25" font-family="Helvetica,sans-Serif" font-size="10.00">Color3i::Add</text>
</a>
</g>
</g>
<!-- Node2 -->
<g id="Node000002" class="node">
<title>Node2</title>
<g id="a_Node000002"><a xlink:href="../../dd/dc5/class_frame_buffer_base.html#a187681521a9ab8fb64ad91a7ceca6d30" target="_top" xlink:title=" ">
<polygon fill="white" stroke="#666666" points="180.25,-59.75 0,-59.75 0,-39 180.25,-39 180.25,-59.75"/>
<text text-anchor="middle" x="90.12" y="-46.25" font-family="Helvetica,sans-Serif" font-size="10.00">FrameBufferBase::ApplyBlendAdd</text>
</a>
</g>
</g>
<!-- Node1&#45;&gt;Node2 -->
<g id="edge1_Node000001_Node000002" class="edge">
<title>Node1&#45;&gt;Node2</title>
<g id="a_edge1_Node000001_Node000002"><a xlink:title=" ">
<path fill="none" stroke="#63b8ff" d="M204.56,-35.35C196.35,-36.36 187.61,-37.45 178.75,-38.54"/>
<polygon fill="#63b8ff" stroke="#63b8ff" points="204.77,-38.85 214.26,-34.15 203.91,-31.9 204.77,-38.85"/>
</a>
</g>
</g>
<!-- Node3 -->
<g id="Node000003" class="node">
<title>Node3</title>
<g id="a_Node000003"><a xlink:href="../../de/d12/struct_color3i.html#a6922d9706496f50eae0ff94281457e2f" target="_top" xlink:title=" ">
<polygon fill="white" stroke="#666666" points="145,-20.75 35.25,-20.75 35.25,0 145,0 145,-20.75"/>
<text text-anchor="middle" x="90.12" y="-7.25" font-family="Helvetica,sans-Serif" font-size="10.00">Color3i::Interpolate</text>
</a>
</g>
</g>
<!-- Node1&#45;&gt;Node3 -->
<g id="edge2_Node000001_Node000003" class="edge">
<title>Node1&#45;&gt;Node3</title>
<g id="a_edge2_Node000001_Node000003"><a xlink:title=" ">
<path fill="none" stroke="#63b8ff" d="M204.54,-23.7C185.87,-21.5 164.42,-18.99 145.24,-16.73"/>
<polygon fill="#63b8ff" stroke="#63b8ff" points="203.92,-27.15 214.26,-24.84 204.74,-20.2 203.92,-27.15"/>
</a>
</g>
</g>
</g>
</svg>
