<?xml version="1.0" encoding="UTF-8" standalone="no"?>
<!DOCTYPE svg PUBLIC "-//W3C//DTD SVG 1.1//EN"
 "http://www.w3.org/Graphics/SVG/1.1/DTD/svg11.dtd">
<!-- Generated by graphviz version 12.2.1 (20241206.2353)
 -->
<!-- Title: Color3i::Color3i Pages: 1 -->
<svg width="542pt" height="399pt"
 viewBox="0.00 0.00 541.50 398.75" xmlns="http://www.w3.org/2000/svg" xmlns:xlink="http://www.w3.org/1999/xlink">
<g id="graph0" class="graph" transform="scale(1 1) rotate(0) translate(4 394.75)">
<title>Color3i::Color3i</title>
<!-- Node1 -->
<g id="Node000001" class="node">
<title>Node1</title>
<g id="a_Node000001"><a xlink:title=" ">
<polygon fill="#999999" stroke="#666666" points="533.5,-176.75 442.5,-176.75 442.5,-156 533.5,-156 533.5,-176.75"/>
<text text-anchor="middle" x="488" y="-163.25" font-family="Helvetica,sans-Serif" font-size="10.00">Color3i::Color3i</text>
</a>
</g>
</g>
<!-- Node2 -->
<g id="Node000002" class="node">
<title>Node2</title>
<g id="a_Node000002"><a xlink:href="../../de/d12/struct_color3i.html#af5a85a3006c2ec7d3f4c4132b120e7b9" target="_top" xlink:title=" ">
<polygon fill="white" stroke="#666666" points="402.38,-332.75 318.88,-332.75 318.88,-312 402.38,-312 402.38,-332.75"/>
<text text-anchor="middle" x="360.62" y="-319.25" font-family="Helvetica,sans-Serif" font-size="10.00">Color3i::Black</text>
</a>
</g>
</g>
<!-- Node1&#45;&gt;Node2 -->
<g id="edge1_Node000001_Node000002" class="edge">
<title>Node1&#45;&gt;Node2</title>
<g id="a_edge1_Node000001_Node000002"><a xlink:title=" ">
<path fill="none" stroke="#63b8ff" d="M479.2,-187.74C467.51,-217.1 442.87,-269.97 406.5,-302.38 402.42,-306.01 397.58,-309.07 392.61,-311.63"/>
<polygon fill="#63b8ff" stroke="#63b8ff" points="482.44,-189.06 482.75,-178.47 475.9,-186.56 482.44,-189.06"/>
</a>
</g>
</g>
<!-- Node8 -->
<g id="Node000008" class="node">
<title>Node8</title>
<g id="a_Node000008"><a xlink:href="../../de/d12/struct_color3i.html#a27b90e86e7f7fb98494e26d23a664f0b" target="_top" xlink:title=" ">
<polygon fill="white" stroke="#666666" points="399.75,-293.75 321.5,-293.75 321.5,-273 399.75,-273 399.75,-293.75"/>
<text text-anchor="middle" x="360.62" y="-280.25" font-family="Helvetica,sans-Serif" font-size="10.00">Color3i::Blue</text>
</a>
</g>
</g>
<!-- Node1&#45;&gt;Node8 -->
<g id="edge10_Node000001_Node000008" class="edge">
<title>Node1&#45;&gt;Node8</title>
<g id="a_edge10_Node000001_Node000008"><a xlink:title=" ">
<path fill="none" stroke="#63b8ff" d="M474.4,-186.5C460.14,-207.92 435.12,-241.67 406.5,-263.38 401.88,-266.88 396.55,-269.93 391.21,-272.53"/>
<polygon fill="#63b8ff" stroke="#63b8ff" points="477.18,-188.64 479.69,-178.35 471.31,-184.83 477.18,-188.64"/>
</a>
</g>
</g>
<!-- Node9 -->
<g id="Node000009" class="node">
<title>Node9</title>
<g id="a_Node000009"><a xlink:href="../../de/d12/struct_color3i.html#ab1260c618abacf133ec6fb9a3a1db339" target="_top" xlink:title=" ">
<polygon fill="white" stroke="#666666" points="401.25,-254.75 320,-254.75 320,-234 401.25,-234 401.25,-254.75"/>
<text text-anchor="middle" x="360.62" y="-241.25" font-family="Helvetica,sans-Serif" font-size="10.00">Color3i::Cyan</text>
</a>
</g>
</g>
<!-- Node1&#45;&gt;Node9 -->
<g id="edge11_Node000001_Node000009" class="edge">
<title>Node1&#45;&gt;Node9</title>
<g id="a_edge11_Node000001_Node000009"><a xlink:title=" ">
<path fill="none" stroke="#63b8ff" d="M464.98,-184.13C449.25,-196.34 427.28,-212.43 406.5,-224.38 400.73,-227.69 394.31,-230.84 388.18,-233.62"/>
<polygon fill="#63b8ff" stroke="#63b8ff" points="467.02,-186.98 472.71,-178.05 462.69,-181.48 467.02,-186.98"/>
</a>
</g>
</g>
<!-- Node10 -->
<g id="Node000010" class="node">
<title>Node10</title>
<g id="a_Node000010"><a xlink:href="../../de/d12/struct_color3i.html#a58fa41c3bf6bbf14ed023620ecff925c" target="_top" xlink:title=" ">
<polygon fill="white" stroke="#666666" points="403.5,-215.75 317.75,-215.75 317.75,-195 403.5,-195 403.5,-215.75"/>
<text text-anchor="middle" x="360.62" y="-202.25" font-family="Helvetica,sans-Serif" font-size="10.00">Color3i::Green</text>
</a>
</g>
</g>
<!-- Node1&#45;&gt;Node10 -->
<g id="edge12_Node000001_Node000010" class="edge">
<title>Node1&#45;&gt;Node10</title>
<g id="a_edge12_Node000001_Node000010"><a xlink:title=" ">
<path fill="none" stroke="#63b8ff" d="M441.1,-180.65C426.32,-185.25 410.2,-190.27 396.36,-194.57"/>
<polygon fill="#63b8ff" stroke="#63b8ff" points="442.12,-184 450.63,-177.69 440.04,-177.32 442.12,-184"/>
</a>
</g>
</g>
<!-- Node11 -->
<g id="Node000011" class="node">
<title>Node11</title>
<g id="a_Node000011"><a xlink:href="../../de/d12/struct_color3i.html#ace8773746358b0a1681b8ab2274d9b07" target="_top" xlink:title=" ">
<polygon fill="white" stroke="#666666" points="397.88,-176.75 323.38,-176.75 323.38,-156 397.88,-156 397.88,-176.75"/>
<text text-anchor="middle" x="360.62" y="-163.25" font-family="Helvetica,sans-Serif" font-size="10.00">Color3i::Mul</text>
</a>
</g>
</g>
<!-- Node1&#45;&gt;Node11 -->
<g id="edge13_Node000001_Node000011" class="edge">
<title>Node1&#45;&gt;Node11</title>
<g id="a_edge13_Node000001_Node000011"><a xlink:title=" ">
<path fill="none" stroke="#63b8ff" d="M430.68,-166.38C419.58,-166.38 408.21,-166.38 397.98,-166.38"/>
<polygon fill="#63b8ff" stroke="#63b8ff" points="430.58,-169.88 440.58,-166.38 430.58,-162.88 430.58,-169.88"/>
</a>
</g>
</g>
<!-- Node12 -->
<g id="Node000012" class="node">
<title>Node12</title>
<g id="a_Node000012"><a xlink:href="../../de/d12/struct_color3i.html#ae57016137f2bdb07e54cac8a36267f84" target="_top" xlink:title=" ">
<polygon fill="white" stroke="#666666" points="406.5,-137.75 314.75,-137.75 314.75,-117 406.5,-117 406.5,-137.75"/>
<text text-anchor="middle" x="360.62" y="-124.25" font-family="Helvetica,sans-Serif" font-size="10.00">Color3i::Orange</text>
</a>
</g>
</g>
<!-- Node1&#45;&gt;Node12 -->
<g id="edge14_Node000001_Node000012" class="edge">
<title>Node1&#45;&gt;Node12</title>
<g id="a_edge14_Node000001_Node000012"><a xlink:title=" ">
<path fill="none" stroke="#63b8ff" d="M441.1,-152.1C426.32,-147.5 410.2,-142.48 396.36,-138.18"/>
<polygon fill="#63b8ff" stroke="#63b8ff" points="440.04,-155.43 450.63,-155.06 442.12,-148.75 440.04,-155.43"/>
</a>
</g>
</g>
<!-- Node13 -->
<g id="Node000013" class="node">
<title>Node13</title>
<g id="a_Node000013"><a xlink:href="../../de/d12/struct_color3i.html#a7c3c8de250985b4c6f6c50891bd5aaf2" target="_top" xlink:title=" ">
<polygon fill="white" stroke="#666666" points="398.25,-98.75 323,-98.75 323,-78 398.25,-78 398.25,-98.75"/>
<text text-anchor="middle" x="360.62" y="-85.25" font-family="Helvetica,sans-Serif" font-size="10.00">Color3i::Red</text>
</a>
</g>
</g>
<!-- Node1&#45;&gt;Node13 -->
<g id="edge15_Node000001_Node000013" class="edge">
<title>Node1&#45;&gt;Node13</title>
<g id="a_edge15_Node000001_Node000013"><a xlink:title=" ">
<path fill="none" stroke="#63b8ff" d="M464.98,-148.62C449.25,-136.41 427.28,-120.32 406.5,-108.38 400.73,-105.06 394.31,-101.91 388.18,-99.13"/>
<polygon fill="#63b8ff" stroke="#63b8ff" points="462.69,-151.27 472.71,-154.7 467.02,-145.77 462.69,-151.27"/>
</a>
</g>
</g>
<!-- Node14 -->
<g id="Node000014" class="node">
<title>Node14</title>
<g id="a_Node000014"><a xlink:href="../../de/d12/struct_color3i.html#afb1dfa7f20038b97dff263091cbef278" target="_top" xlink:title=" ">
<polygon fill="white" stroke="#666666" points="403.12,-59.75 318.12,-59.75 318.12,-39 403.12,-39 403.12,-59.75"/>
<text text-anchor="middle" x="360.62" y="-46.25" font-family="Helvetica,sans-Serif" font-size="10.00">Color3i::White</text>
</a>
</g>
</g>
<!-- Node1&#45;&gt;Node14 -->
<g id="edge16_Node000001_Node000014" class="edge">
<title>Node1&#45;&gt;Node14</title>
<g id="a_edge16_Node000001_Node000014"><a xlink:title=" ">
<path fill="none" stroke="#63b8ff" d="M474.4,-146.25C460.14,-124.83 435.12,-91.08 406.5,-69.38 401.88,-65.87 396.55,-62.82 391.21,-60.22"/>
<polygon fill="#63b8ff" stroke="#63b8ff" points="471.31,-147.92 479.69,-154.4 477.18,-144.11 471.31,-147.92"/>
</a>
</g>
</g>
<!-- Node15 -->
<g id="Node000015" class="node">
<title>Node15</title>
<g id="a_Node000015"><a xlink:href="../../de/d12/struct_color3i.html#a10db2c3732b34fbc867223d188be9d07" target="_top" xlink:title=" ">
<polygon fill="white" stroke="#666666" points="404.25,-20.75 317,-20.75 317,0 404.25,0 404.25,-20.75"/>
<text text-anchor="middle" x="360.62" y="-7.25" font-family="Helvetica,sans-Serif" font-size="10.00">Color3i::Yellow</text>
</a>
</g>
</g>
<!-- Node1&#45;&gt;Node15 -->
<g id="edge17_Node000001_Node000015" class="edge">
<title>Node1&#45;&gt;Node15</title>
<g id="a_edge17_Node000001_Node000015"><a xlink:title=" ">
<path fill="none" stroke="#63b8ff" d="M479.2,-145.01C467.51,-115.65 442.87,-62.78 406.5,-30.38 402.42,-26.74 397.58,-23.68 392.61,-21.12"/>
<polygon fill="#63b8ff" stroke="#63b8ff" points="475.9,-146.19 482.75,-154.28 482.44,-143.69 475.9,-146.19"/>
</a>
</g>
</g>
<!-- Node3 -->
<g id="Node000003" class="node">
<title>Node3</title>
<g id="a_Node000003"><a xlink:href="../../dd/d45/struct_painter.html#aac192da55e15dd79b498933180c06725" target="_top" xlink:title=" ">
<polygon fill="white" stroke="#666666" points="277.62,-390.75 116.88,-390.75 116.88,-370 277.62,-370 277.62,-390.75"/>
<text text-anchor="middle" x="197.25" y="-377.25" font-family="Helvetica,sans-Serif" font-size="10.00">Painter::PaintVuMidNotesFade</text>
</a>
</g>
</g>
<!-- Node2&#45;&gt;Node3 -->
<g id="edge2_Node000002_Node000003" class="edge">
<title>Node2&#45;&gt;Node3</title>
<g id="a_edge2_Node000002_Node000003"><a xlink:title=" ">
<path fill="none" stroke="#63b8ff" d="M329.3,-338.35C314.37,-345.77 295.92,-354.27 278.75,-360.38 268.98,-363.85 258.34,-366.95 248.09,-369.61"/>
<polygon fill="#63b8ff" stroke="#63b8ff" points="330.79,-341.52 338.13,-333.88 327.63,-335.27 330.79,-341.52"/>
</a>
</g>
</g>
<!-- Node5 -->
<g id="Node000005" class="node">
<title>Node5</title>
<g id="a_Node000005"><a xlink:href="../../dd/d45/struct_painter.html#a3b521f31ff7f7249ce1c88ca56f5ad80" target="_top" xlink:title=" ">
<polygon fill="white" stroke="#666666" points="257.38,-351.75 137.12,-351.75 137.12,-331 257.38,-331 257.38,-351.75"/>
<text text-anchor="middle" x="197.25" y="-338.25" font-family="Helvetica,sans-Serif" font-size="10.00">Painter::PaintVuNotes</text>
</a>
</g>
</g>
<!-- Node2&#45;&gt;Node5 -->
<g id="edge4_Node000002_Node000005" class="edge">
<title>Node2&#45;&gt;Node5</title>
<g id="a_edge4_Node000002_Node000005"><a xlink:title=" ">
<path fill="none" stroke="#63b8ff" d="M307.27,-328.54C291.41,-330.41 273.87,-332.47 257.59,-334.39"/>
<polygon fill="#63b8ff" stroke="#63b8ff" points="307.46,-332.04 316.98,-327.4 306.64,-325.09 307.46,-332.04"/>
</a>
</g>
</g>
<!-- Node6 -->
<g id="Node000006" class="node">
<title>Node6</title>
<g id="a_Node000006"><a xlink:href="../../dd/d45/struct_painter.html#a405cd2b8e31b1ad6e8d6abe9ba03c074" target="_top" xlink:title=" ">
<polygon fill="white" stroke="#666666" points="278.75,-312.75 115.75,-312.75 115.75,-292 278.75,-292 278.75,-312.75"/>
<text text-anchor="middle" x="197.25" y="-299.25" font-family="Helvetica,sans-Serif" font-size="10.00">Painter::PaintVuSpaceInvaders</text>
</a>
</g>
</g>
<!-- Node2&#45;&gt;Node6 -->
<g id="edge6_Node000002_Node000006" class="edge">
<title>Node2&#45;&gt;Node6</title>
<g id="a_edge6_Node000002_Node000006"><a xlink:title=" ">
<path fill="none" stroke="#63b8ff" d="M307.08,-315.86C298.15,-314.76 288.68,-313.58 279.21,-312.41"/>
<polygon fill="#63b8ff" stroke="#63b8ff" points="306.63,-319.33 316.98,-317.09 307.49,-312.39 306.63,-319.33"/>
</a>
</g>
</g>
<!-- Node7 -->
<g id="Node000007" class="node">
<title>Node7</title>
<g id="a_Node000007"><a xlink:href="../../dd/d45/struct_painter.html#ab6318a63a778550cd78f3eae183cb8dc" target="_top" xlink:title=" ">
<polygon fill="white" stroke="#666666" points="263.75,-273.75 130.75,-273.75 130.75,-253 263.75,-253 263.75,-273.75"/>
<text text-anchor="middle" x="197.25" y="-260.25" font-family="Helvetica,sans-Serif" font-size="10.00">Painter::VegasVisualizer</text>
</a>
</g>
</g>
<!-- Node2&#45;&gt;Node7 -->
<g id="edge8_Node000002_Node000007" class="edge">
<title>Node2&#45;&gt;Node7</title>
<g id="a_edge8_Node000002_Node000007"><a xlink:title=" ">
<path fill="none" stroke="#63b8ff" d="M324.41,-306.95C321.13,-305.43 317.87,-303.89 314.75,-302.38 298.48,-294.47 295.65,-289.83 278.75,-283.38 269.6,-279.88 259.63,-276.84 249.93,-274.24"/>
<polygon fill="#63b8ff" stroke="#63b8ff" points="322.87,-310.09 333.42,-311.04 325.76,-303.72 322.87,-310.09"/>
</a>
</g>
</g>
<!-- Node4 -->
<g id="Node000004" class="node">
<title>Node4</title>
<g id="a_Node000004"><a xlink:href="../../dd/d45/struct_painter.html#a99ab92bb8d2baae96c7b4b4aacda4de3" target="_top" xlink:title=" ">
<polygon fill="white" stroke="#666666" points="79.75,-331.75 0,-331.75 0,-311 79.75,-311 79.75,-331.75"/>
<text text-anchor="middle" x="39.88" y="-318.25" font-family="Helvetica,sans-Serif" font-size="10.00">Painter::Paint</text>
</a>
</g>
</g>
<!-- Node3&#45;&gt;Node4 -->
<g id="edge3_Node000003_Node000004" class="edge">
<title>Node3&#45;&gt;Node4</title>
<g id="a_edge3_Node000003_Node000004"><a xlink:title=" ">
<path fill="none" stroke="#63b8ff" d="M134.35,-366.59C128,-364.7 121.7,-362.63 115.75,-360.38 95.46,-352.7 73.61,-340.86 58.78,-332.24"/>
<polygon fill="#63b8ff" stroke="#63b8ff" points="132.99,-369.84 143.56,-369.17 134.88,-363.1 132.99,-369.84"/>
</a>
</g>
</g>
<!-- Node5&#45;&gt;Node4 -->
<g id="edge5_Node000005_Node000004" class="edge">
<title>Node5&#45;&gt;Node4</title>
<g id="a_edge5_Node000005_Node000004"><a xlink:title=" ">
<path fill="none" stroke="#63b8ff" d="M125.77,-332.3C110.1,-330.29 94.05,-328.22 80.17,-326.43"/>
<polygon fill="#63b8ff" stroke="#63b8ff" points="125.2,-335.76 135.56,-333.56 126.09,-328.82 125.2,-335.76"/>
</a>
</g>
</g>
<!-- Node6&#45;&gt;Node4 -->
<g id="edge7_Node000006_Node000004" class="edge">
<title>Node6&#45;&gt;Node4</title>
<g id="a_edge7_Node000006_Node000004"><a xlink:title=" ">
<path fill="none" stroke="#63b8ff" d="M103.97,-313.66C95.68,-314.67 87.62,-315.66 80.19,-316.57"/>
<polygon fill="#63b8ff" stroke="#63b8ff" points="104.37,-317.14 113.87,-312.45 103.52,-310.19 104.37,-317.14"/>
</a>
</g>
</g>
<!-- Node7&#45;&gt;Node4 -->
<g id="edge9_Node000007_Node000004" class="edge">
<title>Node7&#45;&gt;Node4</title>
<g id="a_edge9_Node000007_Node000004"><a xlink:title=" ">
<path fill="none" stroke="#63b8ff" d="M134.37,-277.23C128.02,-279.1 121.72,-281.15 115.75,-283.38 95.67,-290.86 73.96,-302.27 59.12,-310.64"/>
<polygon fill="#63b8ff" stroke="#63b8ff" points="134.9,-280.72 143.59,-274.65 133.02,-273.97 134.9,-280.72"/>
</a>
</g>
</g>
</g>
</svg>
