<?xml version="1.0" encoding="UTF-8" standalone="no"?>
<!DOCTYPE svg PUBLIC "-//W3C//DTD SVG 1.1//EN"
 "http://www.w3.org/Graphics/SVG/1.1/DTD/svg11.dtd">
<!-- Generated by graphviz version 12.2.1 (20241206.2353)
 -->
<!-- Title: Color3i::Yellow Pages: 1 -->
<svg width="331pt" height="29pt"
 viewBox="0.00 0.00 330.50 28.75" xmlns="http://www.w3.org/2000/svg" xmlns:xlink="http://www.w3.org/1999/xlink">
<g id="graph0" class="graph" transform="scale(1 1) rotate(0) translate(4 24.75)">
<title>Color3i::Yellow</title>
<!-- Node1 -->
<g id="Node000001" class="node">
<title>Node1</title>
<g id="a_Node000001"><a xlink:title=" ">
<polygon fill="#999999" stroke="#666666" points="87.25,-20.75 0,-20.75 0,0 87.25,0 87.25,-20.75"/>
<text text-anchor="middle" x="43.62" y="-7.25" font-family="Helvetica,sans-Serif" font-size="10.00">Color3i::Yellow</text>
</a>
</g>
</g>
<!-- Node2 -->
<g id="Node000002" class="node">
<title>Node2</title>
<g id="a_Node000002"><a xlink:href="../../de/d12/struct_color3i.html#a61889348324aefa14c28164d41e98e2a" target="_top" xlink:title=" ">
<polygon fill="white" stroke="#666666" points="214.25,-20.75 123.25,-20.75 123.25,0 214.25,0 214.25,-20.75"/>
<text text-anchor="middle" x="168.75" y="-7.25" font-family="Helvetica,sans-Serif" font-size="10.00">Color3i::Color3i</text>
</a>
</g>
</g>
<!-- Node1&#45;&gt;Node2 -->
<g id="edge1_Node000001_Node000002" class="edge">
<title>Node1&#45;&gt;Node2</title>
<g id="a_edge1_Node000001_Node000002"><a xlink:title=" ">
<path fill="none" stroke="#63b8ff" d="M87.69,-10.38C95.33,-10.38 103.39,-10.38 111.33,-10.38"/>
<polygon fill="#63b8ff" stroke="#63b8ff" points="111.32,-13.88 121.32,-10.38 111.32,-6.88 111.32,-13.88"/>
</a>
</g>
</g>
<!-- Node3 -->
<g id="Node000003" class="node">
<title>Node3</title>
<g id="a_Node000003"><a xlink:href="../../de/d12/struct_color3i.html#a83d27d6442838f43816b4bd5f937b33d" target="_top" xlink:title=" ">
<polygon fill="white" stroke="#666666" points="322.5,-20.75 250.25,-20.75 250.25,0 322.5,0 322.5,-20.75"/>
<text text-anchor="middle" x="286.38" y="-7.25" font-family="Helvetica,sans-Serif" font-size="10.00">Color3i::Set</text>
</a>
</g>
</g>
<!-- Node2&#45;&gt;Node3 -->
<g id="edge2_Node000002_Node000003" class="edge">
<title>Node2&#45;&gt;Node3</title>
<g id="a_edge2_Node000002_Node000003"><a xlink:title=" ">
<path fill="none" stroke="#63b8ff" d="M214.45,-10.38C222.4,-10.38 230.69,-10.38 238.68,-10.38"/>
<polygon fill="#63b8ff" stroke="#63b8ff" points="238.59,-13.88 248.59,-10.38 238.59,-6.88 238.59,-13.88"/>
</a>
</g>
</g>
</g>
</svg>
