<?xml version="1.0" encoding="UTF-8" standalone="no"?>
<!DOCTYPE svg PUBLIC "-//W3C//DTD SVG 1.1//EN"
 "http://www.w3.org/Graphics/SVG/1.1/DTD/svg11.dtd">
<!-- Generated by graphviz version 12.2.1 (20241206.2353)
 -->
<!-- Title: WS2816Controller&lt; DATA_PIN, RGB_ORDER &gt; Pages: 1 -->
<svg width="1315pt" height="275pt"
 viewBox="0.00 0.00 1314.50 274.50" xmlns="http://www.w3.org/2000/svg" xmlns:xlink="http://www.w3.org/1999/xlink">
<g id="graph0" class="graph" transform="scale(1 1) rotate(0) translate(4 270.5)">
<title>WS2816Controller&lt; DATA_PIN, RGB_ORDER &gt;</title>
<!-- Node1 -->
<g id="Node000001" class="node">
<title>Node1</title>
<g id="a_Node000001"><a xlink:title=" ">
<polygon fill="#999999" stroke="#666666" points="1306.5,-196.5 1166,-196.5 1166,-163 1306.5,-163 1306.5,-196.5"/>
<text text-anchor="start" x="1174" y="-183" font-family="Helvetica,sans-Serif" font-size="10.00">WS2816Controller&lt; DATA</text>
<text text-anchor="middle" x="1236.25" y="-170.25" font-family="Helvetica,sans-Serif" font-size="10.00">_PIN, RGB_ORDER &gt;</text>
</a>
</g>
</g>
<!-- Node2 -->
<g id="Node000002" class="node">
<title>Node2</title>
<g id="a_Node000002"><a xlink:href="../../d0/dc9/class_c_pixel_l_e_d_controller.html" target="_top" xlink:title=" ">
<polygon fill="white" stroke="#666666" points="1069.25,-215.62 874,-215.62 874,-143.88 1069.25,-143.88 1069.25,-215.62"/>
<text text-anchor="start" x="882" y="-202.12" font-family="Helvetica,sans-Serif" font-size="10.00">CPixelLEDController</text>
<text text-anchor="start" x="882" y="-189.38" font-family="Helvetica,sans-Serif" font-size="10.00">&lt; GRB, WS2812Controller800</text>
<text text-anchor="start" x="882" y="-176.62" font-family="Helvetica,sans-Serif" font-size="10.00">Khz&lt; DATA_PIN, RGB &gt;::LANES</text>
<text text-anchor="start" x="882" y="-163.88" font-family="Helvetica,sans-Serif" font-size="10.00">_VALUE, WS2812Controller800Khz</text>
<text text-anchor="middle" x="971.62" y="-151.12" font-family="Helvetica,sans-Serif" font-size="10.00">&lt; DATA_PIN, RGB &gt;::MASK_VALUE &gt;</text>
</a>
</g>
</g>
<!-- Node2&#45;&gt;Node1 -->
<g id="edge1_Node000001_Node000002" class="edge">
<title>Node2&#45;&gt;Node1</title>
<g id="a_edge1_Node000001_Node000002"><a xlink:title=" ">
<path fill="none" stroke="#63b8ff" d="M1080.98,-179.75C1109.59,-179.75 1139.72,-179.75 1165.67,-179.75"/>
<polygon fill="#63b8ff" stroke="#63b8ff" points="1081.18,-176.25 1071.18,-179.75 1081.18,-183.25 1081.18,-176.25"/>
</a>
</g>
</g>
<!-- Node3 -->
<g id="Node000003" class="node">
<title>Node3</title>
<g id="a_Node000003"><a xlink:href="../../d6/d2c/class_c_l_e_d_controller.html" target="_top" xlink:title="Base definition for an LED controller.">
<polygon fill="white" stroke="#666666" points="449,-169.12 359.5,-169.12 359.5,-148.38 449,-148.38 449,-169.12"/>
<text text-anchor="middle" x="404.25" y="-155.62" font-family="Helvetica,sans-Serif" font-size="10.00">CLEDController</text>
</a>
</g>
</g>
<!-- Node3&#45;&gt;Node2 -->
<g id="edge2_Node000002_Node000003" class="edge">
<title>Node3&#45;&gt;Node2</title>
<g id="a_edge2_Node000002_Node000003"><a xlink:title=" ">
<path fill="none" stroke="#63b8ff" d="M448.69,-172.86C469.31,-178.91 494.43,-185.35 517.5,-188.75 666.35,-210.68 705.82,-202.89 856,-193.75 861.8,-193.4 867.76,-192.94 873.77,-192.42"/>
<polygon fill="#63b8ff" stroke="#63b8ff" points="449.78,-169.53 439.19,-170 447.76,-176.23 449.78,-169.53"/>
</a>
</g>
</g>
<!-- Node3&#45;&gt;Node3 -->
<g id="edge4_Node000003_Node000003" class="edge">
<title>Node3&#45;&gt;Node3</title>
<g id="a_edge4_Node000003_Node000003"><a xlink:title=" ">
<path fill="none" stroke="#9a32cd" stroke-dasharray="5,2" d="M387.77,-180.94C390.11,-184.6 395.6,-187.12 404.25,-187.12 420.54,-187.12 425.62,-178.18 419.52,-169.52"/>
<polygon fill="#9a32cd" stroke="#9a32cd" points="391.25,-181.34 388.82,-171.03 384.29,-180.6 391.25,-181.34"/>
</a>
</g>
<text text-anchor="middle" x="404.25" y="-215.88" font-family="Helvetica,sans-Serif" font-size="10.00" fill="grey"> m_pHead</text>
<text text-anchor="middle" x="404.25" y="-203.12" font-family="Helvetica,sans-Serif" font-size="10.00" fill="grey">m_pNext</text>
<text text-anchor="middle" x="404.25" y="-190.38" font-family="Helvetica,sans-Serif" font-size="10.00" fill="grey">m_pTail</text>
</g>
<!-- Node6 -->
<g id="Node000006" class="node">
<title>Node6</title>
<g id="a_Node000006"><a xlink:href="../../d0/dc9/class_c_pixel_l_e_d_controller.html" target="_top" xlink:title="Template extension of the CLEDController class.">
<polygon fill="white" stroke="#666666" points="652.75,-179.88 523.5,-179.88 523.5,-133.62 652.75,-133.62 652.75,-179.88"/>
<text text-anchor="start" x="531.5" y="-166.38" font-family="Helvetica,sans-Serif" font-size="10.00">CPixelLEDController</text>
<text text-anchor="start" x="531.5" y="-153.62" font-family="Helvetica,sans-Serif" font-size="10.00">&lt; RGB_ORDER, LANES,</text>
<text text-anchor="middle" x="588.12" y="-140.88" font-family="Helvetica,sans-Serif" font-size="10.00"> MASK &gt;</text>
</a>
</g>
</g>
<!-- Node3&#45;&gt;Node6 -->
<g id="edge7_Node000006_Node000003" class="edge">
<title>Node3&#45;&gt;Node6</title>
<g id="a_edge7_Node000006_Node000003"><a xlink:title=" ">
<path fill="none" stroke="#63b8ff" d="M460.57,-158.14C480.34,-157.92 502.78,-157.68 523.21,-157.45"/>
<polygon fill="#63b8ff" stroke="#63b8ff" points="460.75,-154.64 450.79,-158.25 460.83,-161.64 460.75,-154.64"/>
</a>
</g>
</g>
<!-- Node4 -->
<g id="Node000004" class="node">
<title>Node4</title>
<g id="a_Node000004"><a xlink:href="../../db/d87/group___pixel_types.html#d7/d82/struct_c_r_g_b" target="_top" xlink:title="Representation of an RGB pixel (Red, Green, Blue)">
<polygon fill="white" stroke="#666666" points="98.12,-236.12 54.38,-236.12 54.38,-215.38 98.12,-215.38 98.12,-236.12"/>
<text text-anchor="middle" x="76.25" y="-222.62" font-family="Helvetica,sans-Serif" font-size="10.00">CRGB</text>
</a>
</g>
</g>
<!-- Node4&#45;&gt;Node1 -->
<g id="edge8_Node000001_Node000004" class="edge">
<title>Node4&#45;&gt;Node1</title>
<g id="a_edge8_Node000001_Node000004"><a xlink:title=" ">
<path fill="none" stroke="#9a32cd" stroke-dasharray="5,2" d="M109.56,-231.32C127.47,-234.23 150.16,-237.62 170.5,-239.75 273.57,-250.56 299.62,-253.75 403.25,-253.75 403.25,-253.75 403.25,-253.75 972.62,-253.75 1056,-253.75 1148.86,-218.77 1198.76,-196.91"/>
<polygon fill="#9a32cd" stroke="#9a32cd" points="110.22,-227.89 99.78,-229.7 109.08,-234.79 110.22,-227.89"/>
</a>
</g>
<text text-anchor="middle" x="588.12" y="-257" font-family="Helvetica,sans-Serif" font-size="10.00" fill="grey"> mData</text>
</g>
<!-- Node4&#45;&gt;Node3 -->
<g id="edge3_Node000003_Node000004" class="edge">
<title>Node4&#45;&gt;Node3</title>
<g id="a_edge3_Node000003_Node000004"><a xlink:title=" ">
<path fill="none" stroke="#9a32cd" stroke-dasharray="5,2" d="M109.61,-216.72C127.49,-211.88 150.14,-206.01 170.5,-201.5 175.11,-200.48 293.01,-178.9 359.2,-166.8"/>
<polygon fill="#9a32cd" stroke="#9a32cd" points="108.81,-213.31 100.08,-219.32 110.65,-220.06 108.81,-213.31"/>
</a>
</g>
<text text-anchor="middle" x="240.25" y="-230.25" font-family="Helvetica,sans-Serif" font-size="10.00" fill="grey"> m_ColorCorrection</text>
<text text-anchor="middle" x="240.25" y="-217.5" font-family="Helvetica,sans-Serif" font-size="10.00" fill="grey">m_ColorTemperature</text>
<text text-anchor="middle" x="240.25" y="-204.75" font-family="Helvetica,sans-Serif" font-size="10.00" fill="grey">m_Data</text>
</g>
<!-- Node5 -->
<g id="Node000005" class="node">
<title>Node5</title>
<g id="a_Node000005"><a xlink:href="../../db/d74/struct_rgbw.html" target="_top" xlink:title=" ">
<polygon fill="white" stroke="#666666" points="97.75,-169.12 54.75,-169.12 54.75,-148.38 97.75,-148.38 97.75,-169.12"/>
<text text-anchor="middle" x="76.25" y="-155.62" font-family="Helvetica,sans-Serif" font-size="10.00">Rgbw</text>
</a>
</g>
</g>
<!-- Node5&#45;&gt;Node3 -->
<g id="edge5_Node000003_Node000005" class="edge">
<title>Node5&#45;&gt;Node3</title>
<g id="a_edge5_Node000003_Node000005"><a xlink:title=" ">
<path fill="none" stroke="#9a32cd" stroke-dasharray="5,2" d="M109.63,-158.75C168.37,-158.75 292.52,-158.75 359.01,-158.75"/>
<polygon fill="#9a32cd" stroke="#9a32cd" points="109.65,-155.25 99.65,-158.75 109.65,-162.25 109.65,-155.25"/>
</a>
</g>
<text text-anchor="middle" x="240.25" y="-162" font-family="Helvetica,sans-Serif" font-size="10.00" fill="grey"> mRgbMode</text>
</g>
<!-- Node6&#45;&gt;Node2 -->
<g id="edge6_Node000002_Node000006" class="edge">
<title>Node6&#45;&gt;Node2</title>
<g id="a_edge6_Node000002_Node000006"><a xlink:title=" ">
<path fill="none" stroke="orange" stroke-dasharray="5,2" d="M664.29,-143.95C668.49,-143.48 672.67,-143.07 676.75,-142.75 756.17,-136.45 777.3,-130.36 856,-142.75 861.78,-143.66 867.67,-144.81 873.58,-146.15"/>
<polygon fill="orange" stroke="orange" points="664.11,-140.45 654.61,-145.14 664.97,-147.39 664.11,-140.45"/>
</a>
</g>
<text text-anchor="start" x="676.75" y="-184.25" font-family="Helvetica,sans-Serif" font-size="10.00" fill="grey"> &lt; GRB, WS2812Controller800</text>
<text text-anchor="start" x="676.75" y="-171.5" font-family="Helvetica,sans-Serif" font-size="10.00" fill="grey">Khz&lt; DATA_PIN, RGB &gt;::LANES</text>
<text text-anchor="start" x="676.75" y="-158.75" font-family="Helvetica,sans-Serif" font-size="10.00" fill="grey">_VALUE, WS2812Controller800Khz</text>
<text text-anchor="middle" x="766.38" y="-146" font-family="Helvetica,sans-Serif" font-size="10.00" fill="grey">&lt; DATA_PIN, RGB &gt;::MASK_VALUE &gt;</text>
</g>
<!-- Node7 -->
<g id="Node000007" class="node">
<title>Node7</title>
<g id="a_Node000007"><a xlink:href="../../d7/d6f/group___clockless_chipsets.html" target="_top" xlink:title=" ">
<polygon fill="white" stroke="#666666" points="1047.88,-116.12 895.38,-116.12 895.38,-95.38 1047.88,-95.38 1047.88,-116.12"/>
<text text-anchor="middle" x="971.62" y="-102.62" font-family="Helvetica,sans-Serif" font-size="10.00">WS2812&lt; DATA_PIN, RGB &gt;</text>
</a>
</g>
</g>
<!-- Node7&#45;&gt;Node1 -->
<g id="edge9_Node000001_Node000007" class="edge">
<title>Node7&#45;&gt;Node1</title>
<g id="a_edge9_Node000001_Node000007"><a xlink:title=" ">
<path fill="none" stroke="#9a32cd" stroke-dasharray="5,2" d="M1022.17,-119.71C1065.32,-131.87 1128.04,-149.54 1174.27,-162.57"/>
<polygon fill="#9a32cd" stroke="#9a32cd" points="1023.13,-116.34 1012.55,-117 1021.23,-123.08 1023.13,-116.34"/>
</a>
</g>
<text text-anchor="middle" x="1117.62" y="-156.95" font-family="Helvetica,sans-Serif" font-size="10.00" fill="grey"> mController</text>
</g>
<!-- Node8 -->
<g id="Node000008" class="node">
<title>Node8</title>
<g id="a_Node000008"><a xlink:href="../../d7/d6f/group___clockless_chipsets.html" target="_top" xlink:title=" ">
<polygon fill="white" stroke="#666666" points="480.5,-92.5 328,-92.5 328,-59 480.5,-59 480.5,-92.5"/>
<text text-anchor="start" x="336" y="-79" font-family="Helvetica,sans-Serif" font-size="10.00">WS2812Controller800Khz</text>
<text text-anchor="middle" x="404.25" y="-66.25" font-family="Helvetica,sans-Serif" font-size="10.00">&lt; DATA_PIN, RGB_ORDER &gt;</text>
</a>
</g>
</g>
<!-- Node8&#45;&gt;Node7 -->
<g id="edge10_Node000007_Node000008" class="edge">
<title>Node8&#45;&gt;Node7</title>
<g id="a_edge10_Node000007_Node000008"><a xlink:title=" ">
<path fill="none" stroke="#63b8ff" d="M492.19,-84.75C500.74,-85.49 509.28,-86.18 517.5,-86.75 650.24,-96.03 805.2,-101.34 895.19,-103.87"/>
<polygon fill="#63b8ff" stroke="#63b8ff" points="492.76,-81.29 482.49,-83.89 492.14,-88.26 492.76,-81.29"/>
</a>
</g>
</g>
<!-- Node12 -->
<g id="Node000012" class="node">
<title>Node12</title>
<g id="a_Node000012"><a xlink:href="../../d7/d6f/group___clockless_chipsets.html#d6/d04/class_w_s2812" target="_top" xlink:title="WS2812 controller class.">
<polygon fill="white" stroke="#666666" points="658.75,-77.5 517.5,-77.5 517.5,-44 658.75,-44 658.75,-77.5"/>
<text text-anchor="start" x="525.5" y="-64" font-family="Helvetica,sans-Serif" font-size="10.00">WS2812&lt; DATA_PIN, RGB</text>
<text text-anchor="middle" x="588.12" y="-51.25" font-family="Helvetica,sans-Serif" font-size="10.00">_ORDER &gt;</text>
</a>
</g>
</g>
<!-- Node8&#45;&gt;Node12 -->
<g id="edge14_Node000012_Node000008" class="edge">
<title>Node8&#45;&gt;Node12</title>
<g id="a_edge14_Node000012_Node000008"><a xlink:title=" ">
<path fill="none" stroke="#63b8ff" d="M492.14,-68.58C500.49,-67.9 508.89,-67.2 517.05,-66.53"/>
<polygon fill="#63b8ff" stroke="#63b8ff" points="491.99,-65.08 482.31,-69.39 492.56,-72.06 491.99,-65.08"/>
</a>
</g>
</g>
<!-- Node9 -->
<g id="Node000009" class="node">
<title>Node9</title>
<g id="a_Node000009"><a xlink:title=" ">
<polygon fill="white" stroke="#666666" points="144.25,-110.25 8.25,-110.25 8.25,-51.25 144.25,-51.25 144.25,-110.25"/>
<text text-anchor="start" x="16.25" y="-96.75" font-family="Helvetica,sans-Serif" font-size="10.00">ClocklessController</text>
<text text-anchor="start" x="16.25" y="-84" font-family="Helvetica,sans-Serif" font-size="10.00">&lt; DATA_PIN, 2 *FMUL,</text>
<text text-anchor="start" x="16.25" y="-71.25" font-family="Helvetica,sans-Serif" font-size="10.00"> 5 *FMUL, 3 *FMUL, RGB</text>
<text text-anchor="middle" x="76.25" y="-58.5" font-family="Helvetica,sans-Serif" font-size="10.00">_ORDER &gt;</text>
</a>
</g>
</g>
<!-- Node9&#45;&gt;Node8 -->
<g id="edge11_Node000008_Node000009" class="edge">
<title>Node9&#45;&gt;Node8</title>
<g id="a_edge11_Node000008_Node000009"><a xlink:title=" ">
<path fill="none" stroke="#63b8ff" d="M155.62,-79.55C207.81,-78.75 276.02,-77.7 327.63,-76.91"/>
<polygon fill="#63b8ff" stroke="#63b8ff" points="155.86,-76.04 145.92,-79.7 155.97,-83.04 155.86,-76.04"/>
</a>
</g>
</g>
<!-- Node10 -->
<g id="Node000010" class="node">
<title>Node10</title>
<g id="a_Node000010"><a xlink:href="../../d7/d6f/group___clockless_chipsets.html#de/d9d/class_w_s2812_controller800_khz" target="_top" xlink:title="WS2812 controller class @ 800 KHz.">
<polygon fill="#fff0f0" stroke="red" points="152.5,-33.5 0,-33.5 0,0 152.5,0 152.5,-33.5"/>
<text text-anchor="start" x="8" y="-20" font-family="Helvetica,sans-Serif" font-size="10.00">WS2812Controller800Khz</text>
<text text-anchor="middle" x="76.25" y="-7.25" font-family="Helvetica,sans-Serif" font-size="10.00">&lt; DATA_PIN, RGB_ORDER &gt;</text>
</a>
</g>
</g>
<!-- Node10&#45;&gt;Node8 -->
<g id="edge12_Node000008_Node000010" class="edge">
<title>Node10&#45;&gt;Node8</title>
<g id="a_edge12_Node000008_Node000010"><a xlink:title=" ">
<path fill="none" stroke="orange" stroke-dasharray="5,2" d="M163.87,-32.43C214.89,-41.66 278.82,-53.23 327.77,-62.09"/>
<polygon fill="orange" stroke="orange" points="164.81,-29.04 154.35,-30.7 163.57,-35.93 164.81,-29.04"/>
</a>
</g>
<text text-anchor="middle" x="240.25" y="-61.57" font-family="Helvetica,sans-Serif" font-size="10.00" fill="grey"> &lt; DATA_PIN, RGB_ORDER &gt;</text>
</g>
<!-- Node12&#45;&gt;Node7 -->
<g id="edge13_Node000007_Node000012" class="edge">
<title>Node12&#45;&gt;Node7</title>
<g id="a_edge13_Node000007_Node000012"><a xlink:title=" ">
<path fill="none" stroke="orange" stroke-dasharray="5,2" d="M670.52,-62.92C723.57,-65.17 794.17,-69.73 856,-79 881.26,-82.79 909.18,-89.25 931.14,-94.88"/>
<polygon fill="orange" stroke="orange" points="670.78,-59.43 660.65,-62.52 670.5,-66.42 670.78,-59.43"/>
</a>
</g>
<text text-anchor="middle" x="766.38" y="-82.25" font-family="Helvetica,sans-Serif" font-size="10.00" fill="grey"> &lt; DATA_PIN, RGB &gt;</text>
</g>
</g>
</svg>
