<?xml version="1.0" encoding="UTF-8" standalone="no"?>
<!DOCTYPE svg PUBLIC "-//W3C//DTD SVG 1.1//EN"
 "http://www.w3.org/Graphics/SVG/1.1/DTD/svg11.dtd">
<!-- Generated by graphviz version 12.2.1 (20241206.2353)
 -->
<!-- Title: /home/runner/work/FastLED/FastLED/src/fl/ui.h Pages: 1 -->
<svg width="1602pt" height="288pt"
 viewBox="0.00 0.00 1601.88 288.25" xmlns="http://www.w3.org/2000/svg" xmlns:xlink="http://www.w3.org/1999/xlink">
<g id="graph0" class="graph" transform="scale(1 1) rotate(0) translate(4 284.25)">
<title>/home/runner/work/FastLED/FastLED/src/fl/ui.h</title>
<!-- Node1 -->
<g id="Node000001" class="node">
<title>Node1</title>
<g id="a_Node000001"><a xlink:title=" ">
<polygon fill="#999999" stroke="#666666" points="869.25,-280.25 719.75,-280.25 719.75,-246.75 869.25,-246.75 869.25,-280.25"/>
<text text-anchor="start" x="727.75" y="-266.75" font-family="Helvetica,sans-Serif" font-size="10.00">/home/runner/work/FastLED</text>
<text text-anchor="middle" x="794.5" y="-254" font-family="Helvetica,sans-Serif" font-size="10.00">/FastLED/src/fl/ui.h</text>
</a>
</g>
</g>
<!-- Node2 -->
<g id="Node000002" class="node">
<title>Node2</title>
<g id="a_Node000002"><a xlink:href="../../df/d42/_blur2d_8ino.html" target="_top" xlink:title=" ">
<polygon fill="white" stroke="#666666" points="273.25,-210.75 123.75,-210.75 123.75,-164.5 273.25,-164.5 273.25,-210.75"/>
<text text-anchor="start" x="131.75" y="-197.25" font-family="Helvetica,sans-Serif" font-size="10.00">/home/runner/work/FastLED</text>
<text text-anchor="start" x="131.75" y="-184.5" font-family="Helvetica,sans-Serif" font-size="10.00">/FastLED/examples/Blur2d</text>
<text text-anchor="middle" x="198.5" y="-171.75" font-family="Helvetica,sans-Serif" font-size="10.00">/Blur2d.ino</text>
</a>
</g>
</g>
<!-- Node1&#45;&gt;Node2 -->
<g id="edge1_Node000001_Node000002" class="edge">
<title>Node1&#45;&gt;Node2</title>
<g id="a_edge1_Node000001_Node000002"><a xlink:title=" ">
<path fill="none" stroke="#63b8ff" d="M708.18,-257.92C605.94,-251.54 430.79,-237.6 282.5,-210.75 279.53,-210.21 276.52,-209.62 273.48,-209"/>
<polygon fill="#63b8ff" stroke="#63b8ff" points="707.66,-261.39 717.86,-258.51 708.09,-254.4 707.66,-261.39"/>
</a>
</g>
</g>
<!-- Node3 -->
<g id="Node000003" class="node">
<title>Node3</title>
<g id="a_Node000003"><a xlink:href="../../d1/ddb/_chromancer_8ino.html" target="_top" xlink:title=" ">
<polygon fill="white" stroke="#666666" points="461.75,-210.75 291.25,-210.75 291.25,-164.5 461.75,-164.5 461.75,-210.75"/>
<text text-anchor="start" x="299.25" y="-197.25" font-family="Helvetica,sans-Serif" font-size="10.00">/home/runner/work/FastLED</text>
<text text-anchor="start" x="299.25" y="-184.5" font-family="Helvetica,sans-Serif" font-size="10.00">/FastLED/examples/Chromancer</text>
<text text-anchor="middle" x="376.5" y="-171.75" font-family="Helvetica,sans-Serif" font-size="10.00">/Chromancer.ino</text>
</a>
</g>
</g>
<!-- Node1&#45;&gt;Node3 -->
<g id="edge2_Node000001_Node000003" class="edge">
<title>Node1&#45;&gt;Node3</title>
<g id="a_edge2_Node000001_Node000003"><a xlink:title=" ">
<path fill="none" stroke="#63b8ff" d="M708.21,-249.91C643.89,-240.19 553.98,-225.87 475.5,-210.75 471.09,-209.9 466.58,-209 462.02,-208.07"/>
<polygon fill="#63b8ff" stroke="#63b8ff" points="707.61,-253.36 718.02,-251.39 708.65,-246.44 707.61,-253.36"/>
</a>
</g>
</g>
<!-- Node4 -->
<g id="Node000004" class="node">
<title>Node4</title>
<g id="a_Node000004"><a xlink:href="../../dd/d96/_fx_animartrix_8ino.html" target="_top" xlink:title=" ">
<polygon fill="white" stroke="#666666" points="175,-128.5 0,-128.5 0,-82.25 175,-82.25 175,-128.5"/>
<text text-anchor="start" x="8" y="-115" font-family="Helvetica,sans-Serif" font-size="10.00">/home/runner/work/FastLED</text>
<text text-anchor="start" x="8" y="-102.25" font-family="Helvetica,sans-Serif" font-size="10.00">/FastLED/examples/FxAnimartrix</text>
<text text-anchor="middle" x="87.5" y="-89.5" font-family="Helvetica,sans-Serif" font-size="10.00">/FxAnimartrix.ino</text>
</a>
</g>
</g>
<!-- Node1&#45;&gt;Node4 -->
<g id="edge3_Node000001_Node000004" class="edge">
<title>Node1&#45;&gt;Node4</title>
<g id="a_edge3_Node000001_Node000004"><a xlink:title=" ">
<path fill="none" stroke="#63b8ff" d="M708.42,-254.43C635.23,-246.27 536.87,-231.84 503.5,-210.75 482.15,-197.26 492.18,-177.44 470.5,-164.5 360.49,-98.84 310.66,-150.77 184.5,-128.5 181.52,-127.97 178.5,-127.42 175.45,-126.84"/>
<polygon fill="#63b8ff" stroke="#63b8ff" points="707.65,-257.87 717.97,-255.47 708.41,-250.91 707.65,-257.87"/>
</a>
</g>
</g>
<!-- Node5 -->
<g id="Node000005" class="node">
<title>Node5</title>
<g id="a_Node000005"><a xlink:href="../../d6/d35/_fx_engine_8ino.html" target="_top" xlink:title="Demonstrates how to use the FxEngine to switch between different effects on a 2D LED matrix.">
<polygon fill="white" stroke="#666666" points="349.62,-128.5 193.38,-128.5 193.38,-82.25 349.62,-82.25 349.62,-128.5"/>
<text text-anchor="start" x="201.38" y="-115" font-family="Helvetica,sans-Serif" font-size="10.00">/home/runner/work/FastLED</text>
<text text-anchor="start" x="201.38" y="-102.25" font-family="Helvetica,sans-Serif" font-size="10.00">/FastLED/examples/FxEngine</text>
<text text-anchor="middle" x="271.5" y="-89.5" font-family="Helvetica,sans-Serif" font-size="10.00">/FxEngine.ino</text>
</a>
</g>
</g>
<!-- Node1&#45;&gt;Node5 -->
<g id="edge4_Node000001_Node000005" class="edge">
<title>Node1&#45;&gt;Node5</title>
<g id="a_edge4_Node000001_Node000005"><a xlink:title=" ">
<path fill="none" stroke="#63b8ff" d="M707.84,-257.44C658.01,-251.45 595.72,-238.52 546.5,-210.75 522.06,-196.96 527.68,-178.75 503.5,-164.5 446.3,-130.78 422.9,-144.68 358.5,-128.5 355.63,-127.78 352.7,-127.04 349.75,-126.3"/>
<polygon fill="#63b8ff" stroke="#63b8ff" points="707.42,-260.92 717.75,-258.55 708.2,-253.96 707.42,-260.92"/>
</a>
</g>
</g>
<!-- Node6 -->
<g id="Node000006" class="node">
<title>Node6</title>
<g id="a_Node000006"><a xlink:href="../../d3/dac/_fx_noise_ring_8ino.html" target="_top" xlink:title=" ">
<polygon fill="white" stroke="#666666" points="983.88,-46.25 811.12,-46.25 811.12,0 983.88,0 983.88,-46.25"/>
<text text-anchor="start" x="819.12" y="-32.75" font-family="Helvetica,sans-Serif" font-size="10.00">/home/runner/work/FastLED</text>
<text text-anchor="start" x="819.12" y="-20" font-family="Helvetica,sans-Serif" font-size="10.00">/FastLED/examples/FxNoiseRing</text>
<text text-anchor="middle" x="897.5" y="-7.25" font-family="Helvetica,sans-Serif" font-size="10.00">/FxNoiseRing.ino</text>
</a>
</g>
</g>
<!-- Node1&#45;&gt;Node6 -->
<g id="edge5_Node000001_Node000006" class="edge">
<title>Node1&#45;&gt;Node6</title>
<g id="a_edge5_Node000001_Node000006"><a xlink:title=" ">
<path fill="none" stroke="#63b8ff" d="M814.52,-237.19C833.91,-211.36 862.65,-169.36 878.5,-128.5 889.02,-101.37 893.79,-67.97 895.91,-46.37"/>
<polygon fill="#63b8ff" stroke="#63b8ff" points="811.8,-234.99 808.51,-245.06 817.36,-239.24 811.8,-234.99"/>
</a>
</g>
</g>
<!-- Node7 -->
<g id="Node000007" class="node">
<title>Node7</title>
<g id="a_Node000007"><a xlink:href="../../d7/d35/_fx_sd_card_8ino.html" target="_top" xlink:title=" ">
<polygon fill="white" stroke="#666666" points="701.38,-128.5 543.62,-128.5 543.62,-82.25 701.38,-82.25 701.38,-128.5"/>
<text text-anchor="start" x="551.62" y="-115" font-family="Helvetica,sans-Serif" font-size="10.00">/home/runner/work/FastLED</text>
<text text-anchor="start" x="551.62" y="-102.25" font-family="Helvetica,sans-Serif" font-size="10.00">/FastLED/examples/FxSdCard</text>
<text text-anchor="middle" x="622.5" y="-89.5" font-family="Helvetica,sans-Serif" font-size="10.00">/FxSdCard.ino</text>
</a>
</g>
</g>
<!-- Node1&#45;&gt;Node7 -->
<g id="edge6_Node000001_Node000007" class="edge">
<title>Node1&#45;&gt;Node7</title>
<g id="a_edge6_Node000001_Node000007"><a xlink:title=" ">
<path fill="none" stroke="#63b8ff" d="M777.46,-237.33C762.46,-216.32 739.2,-186.37 714.5,-164.5 699.37,-151.1 680.81,-138.74 664.34,-128.9"/>
<polygon fill="#63b8ff" stroke="#63b8ff" points="774.46,-239.16 783.07,-245.34 780.2,-235.14 774.46,-239.16"/>
</a>
</g>
</g>
<!-- Node8 -->
<g id="Node000008" class="node">
<title>Node8</title>
<g id="a_Node000008"><a xlink:href="../../d6/dc9/_led_rope_t_c_l_8cpp.html" target="_top" xlink:title=" ">
<polygon fill="white" stroke="#666666" points="1372.88,-210.75 1170.12,-210.75 1170.12,-164.5 1372.88,-164.5 1372.88,-210.75"/>
<text text-anchor="start" x="1178.12" y="-197.25" font-family="Helvetica,sans-Serif" font-size="10.00">/home/runner/work/FastLED</text>
<text text-anchor="start" x="1178.12" y="-184.5" font-family="Helvetica,sans-Serif" font-size="10.00">/FastLED/examples/LuminescentGrand</text>
<text text-anchor="middle" x="1271.5" y="-171.75" font-family="Helvetica,sans-Serif" font-size="10.00">/arduino/LedRopeTCL.cpp</text>
</a>
</g>
</g>
<!-- Node1&#45;&gt;Node8 -->
<g id="edge7_Node000001_Node000008" class="edge">
<title>Node1&#45;&gt;Node8</title>
<g id="a_edge7_Node000001_Node000008"><a xlink:title=" ">
<path fill="none" stroke="#63b8ff" d="M880.57,-251.38C954.03,-241.61 1062.4,-226.52 1156.5,-210.75 1160.81,-210.03 1165.21,-209.27 1169.65,-208.49"/>
<polygon fill="#63b8ff" stroke="#63b8ff" points="880.49,-247.86 871.04,-252.64 881.41,-254.8 880.49,-247.86"/>
</a>
</g>
</g>
<!-- Node9 -->
<g id="Node000009" class="node">
<title>Node9</title>
<g id="a_Node000009"><a xlink:href="../../de/d05/buttons_8h.html" target="_top" xlink:title=" ">
<polygon fill="white" stroke="#666666" points="1593.88,-210.75 1391.12,-210.75 1391.12,-164.5 1593.88,-164.5 1593.88,-210.75"/>
<text text-anchor="start" x="1399.12" y="-197.25" font-family="Helvetica,sans-Serif" font-size="10.00">/home/runner/work/FastLED</text>
<text text-anchor="start" x="1399.12" y="-184.5" font-family="Helvetica,sans-Serif" font-size="10.00">/FastLED/examples/LuminescentGrand</text>
<text text-anchor="middle" x="1492.5" y="-171.75" font-family="Helvetica,sans-Serif" font-size="10.00">/arduino/buttons.h</text>
</a>
</g>
</g>
<!-- Node1&#45;&gt;Node9 -->
<g id="edge8_Node000001_Node000009" class="edge">
<title>Node1&#45;&gt;Node9</title>
<g id="a_edge8_Node000001_Node000009"><a xlink:title=" ">
<path fill="none" stroke="#63b8ff" d="M880.88,-257.83C995.65,-250.96 1204.53,-236.11 1381.5,-210.75 1384.51,-210.32 1387.57,-209.86 1390.65,-209.37"/>
<polygon fill="#63b8ff" stroke="#63b8ff" points="880.68,-254.34 870.9,-258.42 881.09,-261.33 880.68,-254.34"/>
</a>
</g>
</g>
<!-- Node11 -->
<g id="Node000011" class="node">
<title>Node11</title>
<g id="a_Node000011"><a xlink:href="../../d7/dd3/wasm_8ino.html" target="_top" xlink:title="Demonstrates an advanced ino file with multiple effects and UI elements.">
<polygon fill="white" stroke="#666666" points="869.25,-128.5 719.75,-128.5 719.75,-82.25 869.25,-82.25 869.25,-128.5"/>
<text text-anchor="start" x="727.75" y="-115" font-family="Helvetica,sans-Serif" font-size="10.00">/home/runner/work/FastLED</text>
<text text-anchor="start" x="727.75" y="-102.25" font-family="Helvetica,sans-Serif" font-size="10.00">/FastLED/examples/wasm</text>
<text text-anchor="middle" x="794.5" y="-89.5" font-family="Helvetica,sans-Serif" font-size="10.00">/wasm.ino</text>
</a>
</g>
</g>
<!-- Node1&#45;&gt;Node11 -->
<g id="edge10_Node000001_Node000011" class="edge">
<title>Node1&#45;&gt;Node11</title>
<g id="a_edge10_Node000001_Node000011"><a xlink:title=" ">
<path fill="none" stroke="#63b8ff" d="M794.5,-235.01C794.5,-204.84 794.5,-156.97 794.5,-128.92"/>
<polygon fill="#63b8ff" stroke="#63b8ff" points="791,-234.87 794.5,-244.87 798,-234.87 791,-234.87"/>
</a>
</g>
</g>
<!-- Node12 -->
<g id="Node000012" class="node">
<title>Node12</title>
<g id="a_Node000012"><a xlink:href="../../d9/d3c/fx__engine_8h.html" target="_top" xlink:title=" ">
<polygon fill="white" stroke="#666666" points="705.25,-204.38 555.75,-204.38 555.75,-170.88 705.25,-170.88 705.25,-204.38"/>
<text text-anchor="start" x="563.75" y="-190.88" font-family="Helvetica,sans-Serif" font-size="10.00">/home/runner/work/FastLED</text>
<text text-anchor="middle" x="630.5" y="-178.12" font-family="Helvetica,sans-Serif" font-size="10.00">/FastLED/src/fx/fx_engine.h</text>
</a>
</g>
</g>
<!-- Node1&#45;&gt;Node12 -->
<g id="edge11_Node000001_Node000012" class="edge">
<title>Node1&#45;&gt;Node12</title>
<g id="a_edge11_Node000001_Node000012"><a xlink:title=" ">
<path fill="none" stroke="#63b8ff" d="M748.17,-241.63C722.25,-229.95 690.42,-215.62 666.41,-204.8"/>
<polygon fill="#63b8ff" stroke="#63b8ff" points="746.57,-244.75 757.13,-245.67 749.45,-238.37 746.57,-244.75"/>
</a>
</g>
</g>
<!-- Node14 -->
<g id="Node000014" class="node">
<title>Node14</title>
<g id="a_Node000014"><a xlink:href="../../de/d2b/digital__pin_8cpp.html" target="_top" xlink:title=" ">
<polygon fill="white" stroke="#666666" points="1243.25,-128.5 1093.75,-128.5 1093.75,-82.25 1243.25,-82.25 1243.25,-128.5"/>
<text text-anchor="start" x="1101.75" y="-115" font-family="Helvetica,sans-Serif" font-size="10.00">/home/runner/work/FastLED</text>
<text text-anchor="start" x="1101.75" y="-102.25" font-family="Helvetica,sans-Serif" font-size="10.00">/FastLED/src/sensors/digital</text>
<text text-anchor="middle" x="1168.5" y="-89.5" font-family="Helvetica,sans-Serif" font-size="10.00">_pin.cpp</text>
</a>
</g>
</g>
<!-- Node1&#45;&gt;Node14 -->
<g id="edge17_Node000001_Node000014" class="edge">
<title>Node1&#45;&gt;Node14</title>
<g id="a_edge17_Node000001_Node000014"><a xlink:title=" ">
<path fill="none" stroke="#63b8ff" d="M881.08,-258.23C965.58,-252.45 1086.65,-239.34 1123.5,-210.75 1149.22,-190.79 1160.48,-153.2 1165.24,-129"/>
<polygon fill="#63b8ff" stroke="#63b8ff" points="880.93,-254.74 871.18,-258.89 881.39,-261.72 880.93,-254.74"/>
</a>
</g>
</g>
<!-- Node15 -->
<g id="Node000015" class="node">
<title>Node15</title>
<g id="a_Node000015"><a xlink:href="../../dd/d83/digital__pin_8h.html" target="_top" xlink:title=" ">
<polygon fill="white" stroke="#666666" points="1114.5,-204.38 936.5,-204.38 936.5,-170.88 1114.5,-170.88 1114.5,-204.38"/>
<text text-anchor="start" x="944.5" y="-190.88" font-family="Helvetica,sans-Serif" font-size="10.00">/home/runner/work/FastLED</text>
<text text-anchor="middle" x="1025.5" y="-178.12" font-family="Helvetica,sans-Serif" font-size="10.00">/FastLED/src/sensors/digital_pin.h</text>
</a>
</g>
</g>
<!-- Node1&#45;&gt;Node15 -->
<g id="edge18_Node000001_Node000015" class="edge">
<title>Node1&#45;&gt;Node15</title>
<g id="a_edge18_Node000001_Node000015"><a xlink:title=" ">
<path fill="none" stroke="#63b8ff" d="M855.9,-242.86C893.07,-230.98 939.9,-216 974.92,-204.8"/>
<polygon fill="#63b8ff" stroke="#63b8ff" points="855.09,-239.45 846.64,-245.83 857.23,-246.11 855.09,-239.45"/>
</a>
</g>
</g>
<!-- Node16 -->
<g id="Node000016" class="node">
<title>Node16</title>
<g id="a_Node000016"><a xlink:href="../../d9/dd3/pir_8h.html" target="_top" xlink:title=" ">
<polygon fill="white" stroke="#666666" points="1075.25,-122.12 925.75,-122.12 925.75,-88.62 1075.25,-88.62 1075.25,-122.12"/>
<text text-anchor="start" x="933.75" y="-108.62" font-family="Helvetica,sans-Serif" font-size="10.00">/home/runner/work/FastLED</text>
<text text-anchor="middle" x="1000.5" y="-95.88" font-family="Helvetica,sans-Serif" font-size="10.00">/FastLED/src/sensors/pir.h</text>
</a>
</g>
</g>
<!-- Node1&#45;&gt;Node16 -->
<g id="edge23_Node000001_Node000016" class="edge">
<title>Node1&#45;&gt;Node16</title>
<g id="a_edge23_Node000001_Node000016"><a xlink:title=" ">
<path fill="none" stroke="#63b8ff" d="M837.9,-240.99C853.27,-232.5 870.27,-222.07 884.5,-210.75 906.47,-193.28 906.91,-183.57 927.5,-164.5 943.78,-149.42 963.54,-133.83 978.4,-122.6"/>
<polygon fill="#63b8ff" stroke="#63b8ff" points="836.56,-237.74 829.42,-245.57 839.88,-243.9 836.56,-237.74"/>
</a>
</g>
</g>
<!-- Node10 -->
<g id="Node000010" class="node">
<title>Node10</title>
<g id="a_Node000010"><a xlink:href="../../d9/da7/ui__state_8h.html" target="_top" xlink:title=" ">
<polygon fill="white" stroke="#666666" points="1593.88,-128.5 1391.12,-128.5 1391.12,-82.25 1593.88,-82.25 1593.88,-128.5"/>
<text text-anchor="start" x="1399.12" y="-115" font-family="Helvetica,sans-Serif" font-size="10.00">/home/runner/work/FastLED</text>
<text text-anchor="start" x="1399.12" y="-102.25" font-family="Helvetica,sans-Serif" font-size="10.00">/FastLED/examples/LuminescentGrand</text>
<text text-anchor="middle" x="1492.5" y="-89.5" font-family="Helvetica,sans-Serif" font-size="10.00">/arduino/ui_state.h</text>
</a>
</g>
</g>
<!-- Node9&#45;&gt;Node10 -->
<g id="edge9_Node000009_Node000010" class="edge">
<title>Node9&#45;&gt;Node10</title>
<g id="a_edge9_Node000009_Node000010"><a xlink:title=" ">
<path fill="none" stroke="#63b8ff" d="M1492.5,-152.84C1492.5,-144.75 1492.5,-136.32 1492.5,-128.89"/>
<polygon fill="#63b8ff" stroke="#63b8ff" points="1489,-152.76 1492.5,-162.76 1496,-152.76 1489,-152.76"/>
</a>
</g>
</g>
<!-- Node12&#45;&gt;Node4 -->
<g id="edge12_Node000012_Node000004" class="edge">
<title>Node12&#45;&gt;Node4</title>
<g id="a_edge12_Node000012_Node000004"><a xlink:title=" ">
<path fill="none" stroke="#63b8ff" d="M544.11,-170.86C530.54,-168.59 516.65,-166.39 503.5,-164.5 362.27,-144.25 325.16,-152.4 184.5,-128.5 181.52,-127.99 178.49,-127.45 175.44,-126.89"/>
<polygon fill="#63b8ff" stroke="#63b8ff" points="543.47,-174.3 553.91,-172.52 544.64,-167.4 543.47,-174.3"/>
</a>
</g>
</g>
<!-- Node12&#45;&gt;Node5 -->
<g id="edge13_Node000012_Node000005" class="edge">
<title>Node12&#45;&gt;Node5</title>
<g id="a_edge13_Node000012_Node000005"><a xlink:title=" ">
<path fill="none" stroke="#63b8ff" d="M556.09,-167.84C551.16,-166.68 546.26,-165.56 541.5,-164.5 460.59,-146.5 439.36,-146.72 358.5,-128.5 355.61,-127.85 352.67,-127.17 349.71,-126.48"/>
<polygon fill="#63b8ff" stroke="#63b8ff" points="554.89,-171.15 565.43,-170.06 556.51,-164.34 554.89,-171.15"/>
</a>
</g>
</g>
<!-- Node12&#45;&gt;Node7 -->
<g id="edge14_Node000012_Node000007" class="edge">
<title>Node12&#45;&gt;Node7</title>
<g id="a_edge14_Node000012_Node000007"><a xlink:title=" ">
<path fill="none" stroke="#63b8ff" d="M627.76,-159.14C626.78,-149.3 625.69,-138.35 624.75,-128.98"/>
<polygon fill="#63b8ff" stroke="#63b8ff" points="624.26,-159.28 628.73,-168.88 631.22,-158.58 624.26,-159.28"/>
</a>
</g>
</g>
<!-- Node12&#45;&gt;Node11 -->
<g id="edge15_Node000012_Node000011" class="edge">
<title>Node12&#45;&gt;Node11</title>
<g id="a_edge15_Node000012_Node000011"><a xlink:title=" ">
<path fill="none" stroke="#63b8ff" d="M673.82,-165.42C696.77,-154.2 724.95,-140.41 748.31,-128.98"/>
<polygon fill="#63b8ff" stroke="#63b8ff" points="672.49,-162.18 665.05,-169.72 675.57,-168.47 672.49,-162.18"/>
</a>
</g>
</g>
<!-- Node13 -->
<g id="Node000013" class="node">
<title>Node13</title>
<g id="a_Node000013"><a xlink:href="../../df/d8e/fx__engine_8cpp.html" target="_top" xlink:title=" ">
<polygon fill="white" stroke="#666666" points="525.75,-122.12 367.25,-122.12 367.25,-88.62 525.75,-88.62 525.75,-122.12"/>
<text text-anchor="start" x="375.25" y="-108.62" font-family="Helvetica,sans-Serif" font-size="10.00">/home/runner/work/FastLED</text>
<text text-anchor="middle" x="446.5" y="-95.88" font-family="Helvetica,sans-Serif" font-size="10.00">/FastLED/src/fx/fx_engine.cpp</text>
</a>
</g>
</g>
<!-- Node12&#45;&gt;Node13 -->
<g id="edge16_Node000012_Node000013" class="edge">
<title>Node12&#45;&gt;Node13</title>
<g id="a_edge16_Node000012_Node000013"><a xlink:title=" ">
<path fill="none" stroke="#63b8ff" d="M582.74,-165.79C551.84,-152.32 512.22,-135.04 483.68,-122.59"/>
<polygon fill="#63b8ff" stroke="#63b8ff" points="581.31,-168.99 591.88,-169.78 584.11,-162.57 581.31,-168.99"/>
</a>
</g>
</g>
<!-- Node15&#45;&gt;Node14 -->
<g id="edge19_Node000015_Node000014" class="edge">
<title>Node15&#45;&gt;Node14</title>
<g id="a_edge19_Node000015_Node000014"><a xlink:title=" ">
<path fill="none" stroke="#63b8ff" d="M1064.36,-164.82C1084.17,-153.7 1108.23,-140.2 1128.23,-128.98"/>
<polygon fill="#63b8ff" stroke="#63b8ff" points="1062.77,-161.7 1055.76,-169.64 1066.19,-167.8 1062.77,-161.7"/>
</a>
</g>
</g>
<!-- Node15&#45;&gt;Node16 -->
<g id="edge20_Node000015_Node000016" class="edge">
<title>Node15&#45;&gt;Node16</title>
<g id="a_edge20_Node000015_Node000016"><a xlink:title=" ">
<path fill="none" stroke="#63b8ff" d="M1017.13,-159.76C1013.29,-147.44 1008.87,-133.25 1005.55,-122.59"/>
<polygon fill="#63b8ff" stroke="#63b8ff" points="1013.67,-160.43 1019.99,-168.94 1020.36,-158.35 1013.67,-160.43"/>
</a>
</g>
</g>
<!-- Node16&#45;&gt;Node6 -->
<g id="edge21_Node000016_Node000006" class="edge">
<title>Node16&#45;&gt;Node6</title>
<g id="a_edge21_Node000016_Node000006"><a xlink:title=" ">
<path fill="none" stroke="#63b8ff" d="M970.93,-81.33C956.98,-70.46 940.39,-57.54 926.51,-46.73"/>
<polygon fill="#63b8ff" stroke="#63b8ff" points="968.42,-83.82 978.46,-87.2 972.73,-78.3 968.42,-83.82"/>
</a>
</g>
</g>
<!-- Node17 -->
<g id="Node000017" class="node">
<title>Node17</title>
<g id="a_Node000017"><a xlink:href="../../d2/da7/pir_8cpp.html" target="_top" xlink:title=" ">
<polygon fill="white" stroke="#666666" points="1152.62,-39.88 1002.38,-39.88 1002.38,-6.38 1152.62,-6.38 1152.62,-39.88"/>
<text text-anchor="start" x="1010.38" y="-26.38" font-family="Helvetica,sans-Serif" font-size="10.00">/home/runner/work/FastLED</text>
<text text-anchor="middle" x="1077.5" y="-13.62" font-family="Helvetica,sans-Serif" font-size="10.00">/FastLED/src/sensors/pir.cpp</text>
</a>
</g>
</g>
<!-- Node16&#45;&gt;Node17 -->
<g id="edge22_Node000016_Node000017" class="edge">
<title>Node16&#45;&gt;Node17</title>
<g id="a_edge22_Node000016_Node000017"><a xlink:title=" ">
<path fill="none" stroke="#63b8ff" d="M1023.78,-80.12C1036.14,-67.24 1050.99,-51.76 1061.94,-40.34"/>
<polygon fill="#63b8ff" stroke="#63b8ff" points="1021.53,-77.4 1017.13,-87.04 1026.58,-82.25 1021.53,-77.4"/>
</a>
</g>
</g>
</g>
</svg>
