<?xml version="1.0" encoding="UTF-8" standalone="no"?>
<!DOCTYPE svg PUBLIC "-//W3C//DTD SVG 1.1//EN"
 "http://www.w3.org/Graphics/SVG/1.1/DTD/svg11.dtd">
<!-- Generated by graphviz version 12.2.1 (20241206.2353)
 -->
<!-- Title: /home/runner/work/FastLED/FastLED/src/third_party/yves/I2SClockLessLedDriveresp32s3/src/___pixeltypes.h Pages: 1 -->
<svg width="205pt" height="124pt"
 viewBox="0.00 0.00 204.75 123.75" xmlns="http://www.w3.org/2000/svg" xmlns:xlink="http://www.w3.org/1999/xlink">
<g id="graph0" class="graph" transform="scale(1 1) rotate(0) translate(4 119.75)">
<title>/home/runner/work/FastLED/FastLED/src/third_party/yves/I2SClockLessLedDriveresp32s3/src/___pixeltypes.h</title>
<!-- Node1 -->
<g id="Node000001" class="node">
<title>Node1</title>
<g id="a_Node000001"><a xlink:title=" ">
<polygon fill="#999999" stroke="#666666" points="196.75,-115.75 0,-115.75 0,-56.75 196.75,-56.75 196.75,-115.75"/>
<text text-anchor="start" x="8" y="-102.25" font-family="Helvetica,sans-Serif" font-size="10.00">/home/runner/work/FastLED</text>
<text text-anchor="start" x="8" y="-89.5" font-family="Helvetica,sans-Serif" font-size="10.00">/FastLED/src/third_party</text>
<text text-anchor="start" x="8" y="-76.75" font-family="Helvetica,sans-Serif" font-size="10.00">/yves/I2SClockLessLedDriveresp32s3</text>
<text text-anchor="middle" x="98.38" y="-64" font-family="Helvetica,sans-Serif" font-size="10.00">/src/___pixeltypes.h</text>
</a>
</g>
</g>
<!-- Node2 -->
<g id="Node000002" class="node">
<title>Node2</title>
<g id="a_Node000002"><a xlink:title=" ">
<polygon fill="#e0e0e0" stroke="#999999" points="89.75,-20.75 37,-20.75 37,0 89.75,0 89.75,-20.75"/>
<text text-anchor="middle" x="63.38" y="-7.25" font-family="Helvetica,sans-Serif" font-size="10.00">stdint.h</text>
</a>
</g>
</g>
<!-- Node1&#45;&gt;Node2 -->
<g id="edge1_Node000001_Node000002" class="edge">
<title>Node1&#45;&gt;Node2</title>
<g id="a_edge1_Node000001_Node000002"><a xlink:title=" ">
<path fill="none" stroke="#63b8ff" d="M84.74,-56.48C80.77,-48.09 76.52,-39.12 72.86,-31.4"/>
<polygon fill="#63b8ff" stroke="#63b8ff" points="76.13,-30.11 68.68,-22.57 69.8,-33.11 76.13,-30.11"/>
</a>
</g>
</g>
<!-- Node3 -->
<g id="Node000003" class="node">
<title>Node3</title>
<g id="a_Node000003"><a xlink:title=" ">
<polygon fill="#e0e0e0" stroke="#999999" points="160.75,-20.75 108,-20.75 108,0 160.75,0 160.75,-20.75"/>
<text text-anchor="middle" x="134.38" y="-7.25" font-family="Helvetica,sans-Serif" font-size="10.00">string.h</text>
</a>
</g>
</g>
<!-- Node1&#45;&gt;Node3 -->
<g id="edge2_Node000001_Node000003" class="edge">
<title>Node1&#45;&gt;Node3</title>
<g id="a_edge2_Node000001_Node000003"><a xlink:title=" ">
<path fill="none" stroke="#63b8ff" d="M112.4,-56.48C116.48,-48.09 120.86,-39.12 124.62,-31.4"/>
<polygon fill="#63b8ff" stroke="#63b8ff" points="127.69,-33.09 128.92,-22.57 121.39,-30.02 127.69,-33.09"/>
</a>
</g>
</g>
</g>
</svg>
