<?xml version="1.0" encoding="UTF-8" standalone="no"?>
<!DOCTYPE svg PUBLIC "-//W3C//DTD SVG 1.1//EN"
 "http://www.w3.org/Graphics/SVG/1.1/DTD/svg11.dtd">
<!-- Generated by graphviz version 12.2.1 (20241206.2353)
 -->
<!-- Title: fl::Pir::Pir Pages: 1 -->
<svg width="242pt" height="47pt"
 viewBox="0.00 0.00 241.75 46.75" xmlns="http://www.w3.org/2000/svg" xmlns:xlink="http://www.w3.org/1999/xlink">
<g id="graph0" class="graph" transform="scale(1 1) rotate(0) translate(4 42.75)">
<title>fl::Pir::Pir</title>
<!-- Node1 -->
<g id="Node000001" class="node">
<title>Node1</title>
<g id="a_Node000001"><a xlink:title=" ">
<polygon fill="#999999" stroke="#666666" points="59.5,-20.75 0,-20.75 0,0 59.5,0 59.5,-20.75"/>
<text text-anchor="middle" x="29.75" y="-7.25" font-family="Helvetica,sans-Serif" font-size="10.00">fl::Pir::Pir</text>
</a>
</g>
</g>
<!-- Node2 -->
<g id="Node000002" class="node">
<title>Node2</title>
<g id="a_Node000002"><a xlink:href="../../d0/d32/classfl_1_1_digital_pin.html#a7acf0bf85158dcf75365adb3ba55f3cc" target="_top" xlink:title=" ">
<polygon fill="white" stroke="#666666" points="233.75,-20.75 95.5,-20.75 95.5,0 233.75,0 233.75,-20.75"/>
<text text-anchor="middle" x="164.62" y="-7.25" font-family="Helvetica,sans-Serif" font-size="10.00">fl::DigitalPin::setPinMode</text>
</a>
</g>
</g>
<!-- Node1&#45;&gt;Node2 -->
<g id="edge1_Node000001_Node000002" class="edge">
<title>Node1&#45;&gt;Node2</title>
<g id="a_edge1_Node000001_Node000002"><a xlink:title=" ">
<path fill="none" stroke="#63b8ff" d="M59.91,-10.38C67.19,-10.38 75.35,-10.38 83.81,-10.38"/>
<polygon fill="#63b8ff" stroke="#63b8ff" points="83.54,-13.88 93.54,-10.38 83.54,-6.88 83.54,-13.88"/>
</a>
</g>
</g>
<!-- Node2&#45;&gt;Node2 -->
<g id="edge2_Node000002_Node000002" class="edge">
<title>Node2&#45;&gt;Node2</title>
<g id="a_edge2_Node000002_Node000002"><a xlink:title=" ">
<path fill="none" stroke="#63b8ff" d="M142.89,-21.15C134.2,-29.81 141.44,-38.75 164.62,-38.75 177.3,-38.75 185.21,-36.08 188.36,-32.24"/>
<polygon fill="#63b8ff" stroke="#63b8ff" points="191.85,-31.86 186.63,-22.64 184.96,-33.1 191.85,-31.86"/>
</a>
</g>
</g>
</g>
</svg>
