<?xml version="1.0" encoding="UTF-8" standalone="no"?>
<!DOCTYPE svg PUBLIC "-//W3C//DTD SVG 1.1//EN"
 "http://www.w3.org/Graphics/SVG/1.1/DTD/svg11.dtd">
<!-- Generated by graphviz version 12.2.1 (20241206.2353)
 -->
<!-- Title: fl::Pir::detect Pages: 1 -->
<svg width="497pt" height="68pt"
 viewBox="0.00 0.00 497.25 67.75" xmlns="http://www.w3.org/2000/svg" xmlns:xlink="http://www.w3.org/1999/xlink">
<g id="graph0" class="graph" transform="scale(1 1) rotate(0) translate(4 63.75)">
<title>fl::Pir::detect</title>
<!-- Node1 -->
<g id="Node000001" class="node">
<title>Node1</title>
<g id="a_Node000001"><a xlink:title=" ">
<polygon fill="#999999" stroke="#666666" points="489.25,-39.75 411.75,-39.75 411.75,-19 489.25,-19 489.25,-39.75"/>
<text text-anchor="middle" x="450.5" y="-26.25" font-family="Helvetica,sans-Serif" font-size="10.00">fl::Pir::detect</text>
</a>
</g>
</g>
<!-- Node2 -->
<g id="Node000002" class="node">
<title>Node2</title>
<g id="a_Node000002"><a xlink:href="../../d6/d4d/classfl_1_1_pir_advanced.html#aef122ef37ba5707909cd04d06a1d5c11" target="_top" xlink:title=" ">
<polygon fill="white" stroke="#666666" points="375.75,-59.75 250.25,-59.75 250.25,-39 375.75,-39 375.75,-59.75"/>
<text text-anchor="middle" x="313" y="-46.25" font-family="Helvetica,sans-Serif" font-size="10.00">fl::PirAdvanced::detect</text>
</a>
</g>
</g>
<!-- Node1&#45;&gt;Node2 -->
<g id="edge1_Node000001_Node000002" class="edge">
<title>Node1&#45;&gt;Node2</title>
<g id="a_edge1_Node000001_Node000002"><a xlink:title=" ">
<path fill="none" stroke="#63b8ff" d="M400.25,-36.65C392.42,-37.8 384.25,-39.01 376.18,-40.2"/>
<polygon fill="#63b8ff" stroke="#63b8ff" points="400.52,-40.14 409.9,-35.22 399.49,-33.22 400.52,-40.14"/>
</a>
</g>
</g>
<!-- Node5 -->
<g id="Node000005" class="node">
<title>Node5</title>
<g id="a_Node000005"><a xlink:href="../../db/db1/classfl_1_1_pir.html#a94a0146a1b1f322ef4bfbf4074e8100e" target="_top" xlink:title=" ">
<polygon fill="white" stroke="#666666" points="369,-20.75 257,-20.75 257,0 369,0 369,-20.75"/>
<text text-anchor="middle" x="313" y="-7.25" font-family="Helvetica,sans-Serif" font-size="10.00">fl::Pir::operator bool</text>
</a>
</g>
</g>
<!-- Node1&#45;&gt;Node5 -->
<g id="edge4_Node000001_Node000005" class="edge">
<title>Node1&#45;&gt;Node5</title>
<g id="a_edge4_Node000001_Node000005"><a xlink:title=" ">
<path fill="none" stroke="#63b8ff" d="M400.31,-22.48C390.23,-21.06 379.55,-19.57 369.26,-18.12"/>
<polygon fill="#63b8ff" stroke="#63b8ff" points="399.51,-25.9 409.9,-23.82 400.48,-18.97 399.51,-25.9"/>
</a>
</g>
</g>
<!-- Node3 -->
<g id="Node000003" class="node">
<title>Node3</title>
<g id="a_Node000003"><a xlink:href="../../d6/d4d/classfl_1_1_pir_advanced.html#ab0e0d72fb81d80cfe9b66134ae96852d" target="_top" xlink:title=" ">
<polygon fill="white" stroke="#666666" points="214.25,-59.75 73,-59.75 73,-39 214.25,-39 214.25,-59.75"/>
<text text-anchor="middle" x="143.62" y="-46.25" font-family="Helvetica,sans-Serif" font-size="10.00">fl::PirAdvanced::transition</text>
</a>
</g>
</g>
<!-- Node2&#45;&gt;Node3 -->
<g id="edge2_Node000002_Node000003" class="edge">
<title>Node2&#45;&gt;Node3</title>
<g id="a_edge2_Node000002_Node000003"><a xlink:title=" ">
<path fill="none" stroke="#63b8ff" d="M238.9,-49.38C230.86,-49.38 222.69,-49.38 214.69,-49.38"/>
<polygon fill="#63b8ff" stroke="#63b8ff" points="238.64,-52.88 248.64,-49.38 238.64,-45.88 238.64,-52.88"/>
</a>
</g>
</g>
<!-- Node4 -->
<g id="Node000004" class="node">
<title>Node4</title>
<g id="a_Node000004"><a xlink:href="../../d3/dac/_fx_noise_ring_8ino.html#afe461d27b9c48d5921c00d521181f12f" target="_top" xlink:title=" ">
<polygon fill="white" stroke="#666666" points="37,-59.75 0,-59.75 0,-39 37,-39 37,-59.75"/>
<text text-anchor="middle" x="18.5" y="-46.25" font-family="Helvetica,sans-Serif" font-size="10.00">loop</text>
</a>
</g>
</g>
<!-- Node3&#45;&gt;Node4 -->
<g id="edge3_Node000003_Node000004" class="edge">
<title>Node3&#45;&gt;Node4</title>
<g id="a_edge3_Node000003_Node000004"><a xlink:title=" ">
<path fill="none" stroke="#63b8ff" d="M61.49,-49.38C52.44,-49.38 44.02,-49.38 37.13,-49.38"/>
<polygon fill="#63b8ff" stroke="#63b8ff" points="61.27,-52.88 71.27,-49.38 61.27,-45.88 61.27,-52.88"/>
</a>
</g>
</g>
</g>
</svg>
