<?xml version="1.0" encoding="UTF-8" standalone="no"?>
<!DOCTYPE svg PUBLIC "-//W3C//DTD SVG 1.1//EN"
 "http://www.w3.org/Graphics/SVG/1.1/DTD/svg11.dtd">
<!-- Generated by graphviz version 12.2.1 (20241206.2353)
 -->
<!-- Title: /home/runner/work/FastLED/FastLED/examples/LuminescentGrand/shared/Keyboard.cpp Pages: 1 -->
<svg width="406pt" height="225pt"
 viewBox="0.00 0.00 405.68 224.50" xmlns="http://www.w3.org/2000/svg" xmlns:xlink="http://www.w3.org/1999/xlink">
<g id="graph0" class="graph" transform="scale(1 1) rotate(0) translate(4 220.5)">
<title>/home/runner/work/FastLED/FastLED/examples/LuminescentGrand/shared/Keyboard.cpp</title>
<!-- Node1 -->
<g id="Node000001" class="node">
<title>Node1</title>
<g id="a_Node000001"><a xlink:title=" ">
<polygon fill="#999999" stroke="#666666" points="268.93,-216.5 66.18,-216.5 66.18,-170.25 268.93,-170.25 268.93,-216.5"/>
<text text-anchor="start" x="74.18" y="-203" font-family="Helvetica,sans-Serif" font-size="10.00">/home/runner/work/FastLED</text>
<text text-anchor="start" x="74.18" y="-190.25" font-family="Helvetica,sans-Serif" font-size="10.00">/FastLED/examples/LuminescentGrand</text>
<text text-anchor="middle" x="167.56" y="-177.5" font-family="Helvetica,sans-Serif" font-size="10.00">/shared/Keyboard.cpp</text>
</a>
</g>
</g>
<!-- Node2 -->
<g id="Node000002" class="node">
<title>Node2</title>
<g id="a_Node000002"><a xlink:title=" ">
<polygon fill="#e0e0e0" stroke="#999999" points="63.81,-77.5 1.31,-77.5 1.31,-56.75 63.81,-56.75 63.81,-77.5"/>
<text text-anchor="middle" x="32.56" y="-64" font-family="Helvetica,sans-Serif" font-size="10.00">Arduino.h</text>
</a>
</g>
</g>
<!-- Node1&#45;&gt;Node2 -->
<g id="edge1_Node000001_Node000002" class="edge">
<title>Node1&#45;&gt;Node2</title>
<g id="a_edge1_Node000001_Node000002"><a xlink:title=" ">
<path fill="none" stroke="#63b8ff" d="M65.81,-177C41.92,-168.38 19.18,-155 4.56,-134.25 -5.83,-119.51 4.45,-100.32 15.37,-86.42"/>
<polygon fill="#63b8ff" stroke="#63b8ff" points="17.96,-88.77 21.8,-78.9 12.64,-84.22 17.96,-88.77"/>
</a>
</g>
</g>
<!-- Node3 -->
<g id="Node000003" class="node">
<title>Node3</title>
<g id="a_Node000003"><a xlink:href="../../d8/d3c/util_8h.html" target="_top" xlink:title=" ">
<polygon fill="white" stroke="#666666" points="223.93,-77.5 177.18,-77.5 177.18,-56.75 223.93,-56.75 223.93,-77.5"/>
<text text-anchor="middle" x="200.56" y="-64" font-family="Helvetica,sans-Serif" font-size="10.00">./util.h</text>
</a>
</g>
</g>
<!-- Node1&#45;&gt;Node3 -->
<g id="edge2_Node000001_Node000003" class="edge">
<title>Node1&#45;&gt;Node3</title>
<g id="a_edge2_Node000001_Node000003"><a xlink:title=" ">
<path fill="none" stroke="#63b8ff" d="M191.83,-169.81C200.79,-159.87 209.88,-147.46 214.56,-134.25 219.88,-119.19 215.59,-101.45 210.39,-88.14"/>
<polygon fill="#63b8ff" stroke="#63b8ff" points="213.67,-86.88 206.43,-79.14 207.26,-89.7 213.67,-86.88"/>
</a>
</g>
</g>
<!-- Node7 -->
<g id="Node000007" class="node">
<title>Node7</title>
<g id="a_Node000007"><a xlink:href="../../d0/d4f/color__mapper_8h.html" target="_top" xlink:title=" ">
<polygon fill="white" stroke="#666666" points="111.06,-134.25 14.06,-134.25 14.06,-113.5 111.06,-113.5 111.06,-134.25"/>
<text text-anchor="middle" x="62.56" y="-120.75" font-family="Helvetica,sans-Serif" font-size="10.00">./color_mapper.h</text>
</a>
</g>
</g>
<!-- Node1&#45;&gt;Node7 -->
<g id="edge6_Node000001_Node000007" class="edge">
<title>Node1&#45;&gt;Node7</title>
<g id="a_edge6_Node000001_Node000007"><a xlink:title=" ">
<path fill="none" stroke="#63b8ff" d="M132.59,-169.9C117.76,-160.36 100.82,-149.47 87.31,-140.79"/>
<polygon fill="#63b8ff" stroke="#63b8ff" points="89.32,-137.92 79.02,-135.46 85.54,-143.81 89.32,-137.92"/>
</a>
</g>
</g>
<!-- Node9 -->
<g id="Node000009" class="node">
<title>Node9</title>
<g id="a_Node000009"><a xlink:href="../../df/d85/_keyboard_8h.html" target="_top" xlink:title=" ">
<polygon fill="white" stroke="#666666" points="205.93,-134.25 129.18,-134.25 129.18,-113.5 205.93,-113.5 205.93,-134.25"/>
<text text-anchor="middle" x="167.56" y="-120.75" font-family="Helvetica,sans-Serif" font-size="10.00">./Keyboard.h</text>
</a>
</g>
</g>
<!-- Node1&#45;&gt;Node9 -->
<g id="edge9_Node000001_Node000009" class="edge">
<title>Node1&#45;&gt;Node9</title>
<g id="a_edge9_Node000001_Node000009"><a xlink:title=" ">
<path fill="none" stroke="#63b8ff" d="M167.56,-169.9C167.56,-162.23 167.56,-153.69 167.56,-146.13"/>
<polygon fill="#63b8ff" stroke="#63b8ff" points="171.06,-146.15 167.56,-136.15 164.06,-146.15 171.06,-146.15"/>
</a>
</g>
</g>
<!-- Node10 -->
<g id="Node000010" class="node">
<title>Node10</title>
<g id="a_Node000010"><a xlink:href="../../df/d29/dprint_8h.html" target="_top" xlink:title=" ">
<polygon fill="white" stroke="#666666" points="321.31,-134.25 261.81,-134.25 261.81,-113.5 321.31,-113.5 321.31,-134.25"/>
<text text-anchor="middle" x="291.56" y="-120.75" font-family="Helvetica,sans-Serif" font-size="10.00">./dprint.h</text>
</a>
</g>
</g>
<!-- Node1&#45;&gt;Node10 -->
<g id="edge13_Node000001_Node000010" class="edge">
<title>Node1&#45;&gt;Node10</title>
<g id="a_edge13_Node000001_Node000010"><a xlink:title=" ">
<path fill="none" stroke="#63b8ff" d="M208.85,-169.9C226.88,-160.08 247.55,-148.83 263.72,-140.03"/>
<polygon fill="#63b8ff" stroke="#63b8ff" points="265.18,-143.22 272.29,-135.36 261.83,-137.07 265.18,-143.22"/>
</a>
</g>
</g>
<!-- Node4 -->
<g id="Node000004" class="node">
<title>Node4</title>
<g id="a_Node000004"><a xlink:title=" ">
<polygon fill="#e0e0e0" stroke="#999999" points="147.93,-20.75 95.18,-20.75 95.18,0 147.93,0 147.93,-20.75"/>
<text text-anchor="middle" x="121.56" y="-7.25" font-family="Helvetica,sans-Serif" font-size="10.00">stdint.h</text>
</a>
</g>
</g>
<!-- Node3&#45;&gt;Node4 -->
<g id="edge3_Node000003_Node000004" class="edge">
<title>Node3&#45;&gt;Node4</title>
<g id="a_edge3_Node000003_Node000004"><a xlink:title=" ">
<path fill="none" stroke="#63b8ff" d="M186.43,-56.34C174.86,-48.32 158.25,-36.81 144.74,-27.44"/>
<polygon fill="#63b8ff" stroke="#63b8ff" points="147.01,-24.76 136.8,-21.94 143.03,-30.51 147.01,-24.76"/>
</a>
</g>
</g>
<!-- Node5 -->
<g id="Node000005" class="node">
<title>Node5</title>
<g id="a_Node000005"><a xlink:href="../../d7/dd8/_approximating_function_8h.html" target="_top" xlink:title=" ">
<polygon fill="white" stroke="#666666" points="397.68,-20.75 253.43,-20.75 253.43,0 397.68,0 397.68,-20.75"/>
<text text-anchor="middle" x="325.56" y="-7.25" font-family="Helvetica,sans-Serif" font-size="10.00">./ApproximatingFunction.h</text>
</a>
</g>
</g>
<!-- Node3&#45;&gt;Node5 -->
<g id="edge4_Node000003_Node000005" class="edge">
<title>Node3&#45;&gt;Node5</title>
<g id="a_edge4_Node000003_Node000005"><a xlink:title=" ">
<path fill="none" stroke="#63b8ff" d="M222.9,-56.34C242.37,-47.81 270.84,-35.34 292.86,-25.69"/>
<polygon fill="#63b8ff" stroke="#63b8ff" points="294.26,-28.9 302.01,-21.69 291.45,-22.49 294.26,-28.9"/>
</a>
</g>
</g>
<!-- Node6 -->
<g id="Node000006" class="node">
<title>Node6</title>
<g id="a_Node000006"><a xlink:href="../../de/d60/settings_8h.html" target="_top" xlink:title=" ">
<polygon fill="white" stroke="#666666" points="235.56,-20.75 165.56,-20.75 165.56,0 235.56,0 235.56,-20.75"/>
<text text-anchor="middle" x="200.56" y="-7.25" font-family="Helvetica,sans-Serif" font-size="10.00">./settings.h</text>
</a>
</g>
</g>
<!-- Node3&#45;&gt;Node6 -->
<g id="edge5_Node000003_Node000006" class="edge">
<title>Node3&#45;&gt;Node6</title>
<g id="a_edge5_Node000003_Node000006"><a xlink:title=" ">
<path fill="none" stroke="#63b8ff" d="M200.56,-56.34C200.56,-49.72 200.56,-40.72 200.56,-32.52"/>
<polygon fill="#63b8ff" stroke="#63b8ff" points="204.06,-32.59 200.56,-22.59 197.06,-32.59 204.06,-32.59"/>
</a>
</g>
</g>
<!-- Node8 -->
<g id="Node000008" class="node">
<title>Node8</title>
<g id="a_Node000008"><a xlink:href="../../de/de1/examples_2_luminescent_grand_2shared_2color_8h.html" target="_top" xlink:title=" ">
<polygon fill="white" stroke="#666666" points="148.68,-77.5 94.43,-77.5 94.43,-56.75 148.68,-56.75 148.68,-77.5"/>
<text text-anchor="middle" x="121.56" y="-64" font-family="Helvetica,sans-Serif" font-size="10.00">./color.h</text>
</a>
</g>
</g>
<!-- Node7&#45;&gt;Node8 -->
<g id="edge7_Node000007_Node000008" class="edge">
<title>Node7&#45;&gt;Node8</title>
<g id="a_edge7_Node000007_Node000008"><a xlink:title=" ">
<path fill="none" stroke="#63b8ff" d="M73.1,-113.09C81.33,-105.46 92.95,-94.67 102.76,-85.57"/>
<polygon fill="#63b8ff" stroke="#63b8ff" points="105.04,-88.23 109.99,-78.86 100.28,-83.09 105.04,-88.23"/>
</a>
</g>
</g>
<!-- Node8&#45;&gt;Node4 -->
<g id="edge8_Node000008_Node000004" class="edge">
<title>Node8&#45;&gt;Node4</title>
<g id="a_edge8_Node000008_Node000004"><a xlink:title=" ">
<path fill="none" stroke="#63b8ff" d="M121.56,-56.34C121.56,-49.72 121.56,-40.72 121.56,-32.52"/>
<polygon fill="#63b8ff" stroke="#63b8ff" points="125.06,-32.59 121.56,-22.59 118.06,-32.59 125.06,-32.59"/>
</a>
</g>
</g>
<!-- Node9&#45;&gt;Node2 -->
<g id="edge10_Node000009_Node000002" class="edge">
<title>Node9&#45;&gt;Node2</title>
<g id="a_edge10_Node000009_Node000002"><a xlink:title=" ">
<path fill="none" stroke="#63b8ff" d="M143.42,-113.09C122.11,-104.44 90.8,-91.75 66.89,-82.05"/>
<polygon fill="#63b8ff" stroke="#63b8ff" points="68.47,-78.91 57.88,-78.4 65.84,-85.4 68.47,-78.91"/>
</a>
</g>
</g>
<!-- Node9&#45;&gt;Node3 -->
<g id="edge12_Node000009_Node000003" class="edge">
<title>Node9&#45;&gt;Node3</title>
<g id="a_edge12_Node000009_Node000003"><a xlink:title=" ">
<path fill="none" stroke="#63b8ff" d="M173.45,-113.09C177.73,-106 183.64,-96.19 188.85,-87.54"/>
<polygon fill="#63b8ff" stroke="#63b8ff" points="191.76,-89.5 193.93,-79.12 185.77,-85.88 191.76,-89.5"/>
</a>
</g>
</g>
<!-- Node9&#45;&gt;Node8 -->
<g id="edge11_Node000009_Node000008" class="edge">
<title>Node9&#45;&gt;Node8</title>
<g id="a_edge11_Node000009_Node000008"><a xlink:title=" ">
<path fill="none" stroke="#63b8ff" d="M159.33,-113.09C153.12,-105.69 144.41,-95.32 136.92,-86.41"/>
<polygon fill="#63b8ff" stroke="#63b8ff" points="139.79,-84.39 130.68,-78.99 134.43,-88.9 139.79,-84.39"/>
</a>
</g>
</g>
</g>
</svg>
