<?xml version="1.0" encoding="UTF-8" standalone="no"?>
<!DOCTYPE svg PUBLIC "-//W3C//DTD SVG 1.1//EN"
 "http://www.w3.org/Graphics/SVG/1.1/DTD/svg11.dtd">
<!-- Generated by graphviz version 12.2.1 (20241206.2353)
 -->
<!-- Title: fl::NoisePalette::mapNoiseToLEDsUsingPalette Pages: 1 -->
<svg width="789pt" height="287pt"
 viewBox="0.00 0.00 788.50 287.04" xmlns="http://www.w3.org/2000/svg" xmlns:xlink="http://www.w3.org/1999/xlink">
<g id="graph0" class="graph" transform="scale(1 1) rotate(0) translate(4 283.04)">
<title>fl::NoisePalette::mapNoiseToLEDsUsingPalette</title>
<!-- Node1 -->
<g id="Node000001" class="node">
<title>Node1</title>
<g id="a_Node000001"><a xlink:title=" ">
<polygon fill="#999999" stroke="#666666" points="145,-114.12 0,-114.12 0,-80.62 145,-80.62 145,-114.12"/>
<text text-anchor="start" x="8" y="-100.62" font-family="Helvetica,sans-Serif" font-size="10.00">fl::NoisePalette::mapNoise</text>
<text text-anchor="middle" x="72.5" y="-87.88" font-family="Helvetica,sans-Serif" font-size="10.00">ToLEDsUsingPalette</text>
</a>
</g>
</g>
<!-- Node2 -->
<g id="Node000002" class="node">
<title>Node2</title>
<g id="a_Node000002"><a xlink:href="../../d2/d73/group___palette_colors.html#gac46e65aff3dd6519b33e27f0998f17cd" target="_top" xlink:title="Get a color from a palette.">
<polygon fill="white" stroke="#666666" points="288.12,-184.75 188.12,-184.75 188.12,-164 288.12,-164 288.12,-184.75"/>
<text text-anchor="middle" x="238.12" y="-171.25" font-family="Helvetica,sans-Serif" font-size="10.00">ColorFromPalette</text>
</a>
</g>
</g>
<!-- Node1&#45;&gt;Node2 -->
<g id="edge1_Node000001_Node000002" class="edge">
<title>Node1&#45;&gt;Node2</title>
<g id="a_edge1_Node000001_Node000002"><a xlink:title=" ">
<path fill="none" stroke="#63b8ff" d="M109.81,-114.46C137.91,-127.68 176.5,-145.84 203.81,-158.7"/>
<polygon fill="#63b8ff" stroke="#63b8ff" points="202.13,-161.77 212.66,-162.86 205.11,-155.44 202.13,-161.77"/>
</a>
</g>
</g>
<!-- Node11 -->
<g id="Node000011" class="node">
<title>Node11</title>
<g id="a_Node000011"><a xlink:href="../../dc/d3e/group___dimming.html#gae51352a3522bb8eae5e17dbee97aa1aa" target="_top" xlink:title="Adjust a scaling value for dimming.">
<polygon fill="white" stroke="#666666" points="270.12,-127.75 206.12,-127.75 206.12,-107 270.12,-107 270.12,-127.75"/>
<text text-anchor="middle" x="238.12" y="-114.25" font-family="Helvetica,sans-Serif" font-size="10.00">dim8_raw</text>
</a>
</g>
</g>
<!-- Node1&#45;&gt;Node11 -->
<g id="edge11_Node000001_Node000011" class="edge">
<title>Node1&#45;&gt;Node11</title>
<g id="a_edge11_Node000001_Node000011"><a xlink:title=" ">
<path fill="none" stroke="#63b8ff" d="M145.27,-106.15C162.24,-108.22 179.79,-110.37 194.95,-112.22"/>
<polygon fill="#63b8ff" stroke="#63b8ff" points="194.18,-115.65 204.53,-113.39 195.03,-108.7 194.18,-115.65"/>
</a>
</g>
</g>
<!-- Node12 -->
<g id="Node000012" class="node">
<title>Node12</title>
<g id="a_Node000012"><a xlink:href="../../d3/d92/classfl_1_1scoped__array.html#ac726846a84175cb31ff545082729900c" target="_top" xlink:title=" ">
<polygon fill="white" stroke="#666666" points="295.25,-88.75 181,-88.75 181,-68 295.25,-68 295.25,-88.75"/>
<text text-anchor="middle" x="238.12" y="-75.25" font-family="Helvetica,sans-Serif" font-size="10.00">fl::scoped_array::get</text>
</a>
</g>
</g>
<!-- Node1&#45;&gt;Node12 -->
<g id="edge13_Node000001_Node000012" class="edge">
<title>Node1&#45;&gt;Node12</title>
<g id="a_edge13_Node000001_Node000012"><a xlink:title=" ">
<path fill="none" stroke="#63b8ff" d="M145.27,-89.04C153.23,-88.12 161.32,-87.18 169.23,-86.26"/>
<polygon fill="#63b8ff" stroke="#63b8ff" points="169.63,-89.74 179.16,-85.11 168.82,-82.78 169.63,-89.74"/>
</a>
</g>
</g>
<!-- Node13 -->
<g id="Node000013" class="node">
<title>Node13</title>
<g id="a_Node000013"><a xlink:href="../../d9/d41/classfl_1_1_noise_palette.html#a56d8e189481f0cad03ce451fb5d0d939" target="_top" xlink:title=" ">
<polygon fill="white" stroke="#666666" points="292.25,-49.75 184,-49.75 184,-29 292.25,-29 292.25,-49.75"/>
<text text-anchor="middle" x="238.12" y="-36.25" font-family="Helvetica,sans-Serif" font-size="10.00">fl::NoisePalette::XY</text>
</a>
</g>
</g>
<!-- Node1&#45;&gt;Node13 -->
<g id="edge14_Node000001_Node000013" class="edge">
<title>Node1&#45;&gt;Node13</title>
<g id="a_edge14_Node000001_Node000013"><a xlink:title=" ">
<path fill="none" stroke="#63b8ff" d="M122.15,-80.13C145.79,-71.75 173.87,-61.8 196.37,-53.82"/>
<polygon fill="#63b8ff" stroke="#63b8ff" points="197.24,-57.23 205.49,-50.59 194.9,-50.63 197.24,-57.23"/>
</a>
</g>
</g>
<!-- Node3 -->
<g id="Node000003" class="node">
<title>Node3</title>
<g id="a_Node000003"><a xlink:href="../../dc/db8/group___color_blends.html#ga4f06b4423f71f77346aaf5dabe7dd05c" target="_top" xlink:title="Computes a new color blended some fraction of the way between two other colors.">
<polygon fill="white" stroke="#666666" points="416.25,-241.75 373.25,-241.75 373.25,-221 416.25,-221 416.25,-241.75"/>
<text text-anchor="middle" x="394.75" y="-228.25" font-family="Helvetica,sans-Serif" font-size="10.00">blend</text>
</a>
</g>
</g>
<!-- Node2&#45;&gt;Node3 -->
<g id="edge2_Node000002_Node000003" class="edge">
<title>Node2&#45;&gt;Node3</title>
<g id="a_edge2_Node000002_Node000003"><a xlink:title=" ">
<path fill="none" stroke="#63b8ff" d="M268.57,-185.23C295.37,-195.11 334.82,-209.65 362.25,-219.76"/>
<polygon fill="#63b8ff" stroke="#63b8ff" points="360.82,-222.97 371.41,-223.14 363.24,-216.4 360.82,-222.97"/>
</a>
</g>
</g>
<!-- Node6 -->
<g id="Node000006" class="node">
<title>Node6</title>
<g id="a_Node000006"><a xlink:href="../../d0/da5/group___scaling_dirty.html#ga3fade00fb4cf5b937b973128198a7a79" target="_top" xlink:title="Clean up the r1 register after a series of *LEAVING_R1_DIRTY calls.">
<polygon fill="white" stroke="#666666" points="743.38,-269.75 671.12,-269.75 671.12,-249 743.38,-249 743.38,-269.75"/>
<text text-anchor="middle" x="707.25" y="-256.25" font-family="Helvetica,sans-Serif" font-size="10.00">cleanup_R1</text>
</a>
</g>
</g>
<!-- Node2&#45;&gt;Node6 -->
<g id="edge6_Node000002_Node000006" class="edge">
<title>Node2&#45;&gt;Node6</title>
<g id="a_edge6_Node000002_Node000006"><a xlink:title=" ">
<path fill="none" stroke="#63b8ff" d="M247.68,-185.01C262.51,-202.52 294.92,-236.83 331.25,-250.38 443.04,-292.06 586.87,-278.69 659.64,-267.72"/>
<polygon fill="#63b8ff" stroke="#63b8ff" points="659.86,-271.23 669.2,-266.22 658.78,-264.31 659.86,-271.23"/>
</a>
</g>
</g>
<!-- Node7 -->
<g id="Node000007" class="node">
<title>Node7</title>
<g id="a_Node000007"><a xlink:href="../../d0/da5/group___scaling_dirty.html#ga7386235cada3aca429b189681d2ec56d" target="_top" xlink:title="This version of scale8() does not clean up the R1 register on AVR.">
<polygon fill="white" stroke="#666666" points="780.5,-221.75 634,-221.75 634,-201 780.5,-201 780.5,-221.75"/>
<text text-anchor="middle" x="707.25" y="-208.25" font-family="Helvetica,sans-Serif" font-size="10.00">scale8_LEAVING_R1_DIRTY</text>
</a>
</g>
</g>
<!-- Node2&#45;&gt;Node7 -->
<g id="edge10_Node000002_Node000007" class="edge">
<title>Node2&#45;&gt;Node7</title>
<g id="a_edge10_Node000002_Node000007"><a xlink:title=" ">
<path fill="none" stroke="#63b8ff" d="M288.23,-178.26C367.66,-184.56 525.22,-197.04 622.59,-204.75"/>
<polygon fill="#63b8ff" stroke="#63b8ff" points="622.11,-208.22 632.35,-205.52 622.66,-201.24 622.11,-208.22"/>
</a>
</g>
</g>
<!-- Node8 -->
<g id="Node000008" class="node">
<title>Node8</title>
<g id="a_Node000008"><a xlink:href="../../da/d2d/colorutils_8cpp.html#ab445fd8641e95a3bbd1417d9783f6170" target="_top" xlink:title="Helper function to divide a number by 16, aka four logical shift right (LSR)&#39;s.">
<polygon fill="white" stroke="#666666" points="415.12,-165.75 374.38,-165.75 374.38,-145 415.12,-145 415.12,-165.75"/>
<text text-anchor="middle" x="394.75" y="-152.25" font-family="Helvetica,sans-Serif" font-size="10.00">lsrX4</text>
</a>
</g>
</g>
<!-- Node2&#45;&gt;Node8 -->
<g id="edge7_Node000002_Node000008" class="edge">
<title>Node2&#45;&gt;Node8</title>
<g id="a_edge7_Node000002_Node000008"><a xlink:title=" ">
<path fill="none" stroke="#63b8ff" d="M288.47,-168.31C312.82,-165.32 341.44,-161.8 362.69,-159.19"/>
<polygon fill="#63b8ff" stroke="#63b8ff" points="362.96,-162.68 372.46,-157.99 362.11,-155.74 362.96,-162.68"/>
</a>
</g>
</g>
<!-- Node9 -->
<g id="Node000009" class="node">
<title>Node9</title>
<g id="a_Node000009"><a xlink:href="../../d6/d19/group___linear_interpolation.html#gaf65357c7aeca9778e5a2f80a6bac2b5d" target="_top" xlink:title="Map from one full&#45;range 8&#45;bit value into a narrower range of 8&#45;bit values, possibly a range of hues.">
<polygon fill="white" stroke="#666666" points="416.62,-126.75 372.88,-126.75 372.88,-106 416.62,-106 416.62,-126.75"/>
<text text-anchor="middle" x="394.75" y="-113.25" font-family="Helvetica,sans-Serif" font-size="10.00">map8</text>
</a>
</g>
</g>
<!-- Node2&#45;&gt;Node9 -->
<g id="edge8_Node000002_Node000009" class="edge">
<title>Node2&#45;&gt;Node9</title>
<g id="a_edge8_Node000002_Node000009"><a xlink:title=" ">
<path fill="none" stroke="#63b8ff" d="M263.55,-163.66C281.99,-155.73 308.01,-144.87 331.25,-136.38 341.02,-132.8 351.77,-129.24 361.55,-126.13"/>
<polygon fill="#63b8ff" stroke="#63b8ff" points="362.54,-129.48 371.04,-123.16 360.45,-122.8 362.54,-129.48"/>
</a>
</g>
</g>
<!-- Node4 -->
<g id="Node000004" class="node">
<title>Node4</title>
<g id="a_Node000004"><a xlink:href="../../dc/db8/group___color_blends.html#ga325120664a9c9b41abceee65303b0c4e" target="_top" xlink:title="Destructively modifies one color, blending in a given fraction of an overlay color.">
<polygon fill="#fff0f0" stroke="red" points="570.62,-241.75 521.62,-241.75 521.62,-221 570.62,-221 570.62,-241.75"/>
<text text-anchor="middle" x="546.12" y="-228.25" font-family="Helvetica,sans-Serif" font-size="10.00">nblend</text>
</a>
</g>
</g>
<!-- Node3&#45;&gt;Node4 -->
<g id="edge3_Node000003_Node000004" class="edge">
<title>Node3&#45;&gt;Node4</title>
<g id="a_edge3_Node000003_Node000004"><a xlink:title=" ">
<path fill="none" stroke="#63b8ff" d="M416.52,-231.38C440.69,-231.38 480.98,-231.38 510.03,-231.38"/>
<polygon fill="#63b8ff" stroke="#63b8ff" points="509.81,-234.88 519.81,-231.38 509.81,-227.88 509.81,-234.88"/>
</a>
</g>
</g>
<!-- Node4&#45;&gt;Node6 -->
<g id="edge4_Node000004_Node000006" class="edge">
<title>Node4&#45;&gt;Node6</title>
<g id="a_edge4_Node000004_Node000006"><a xlink:title=" ">
<path fill="none" stroke="#63b8ff" d="M570.95,-235.57C594.29,-239.67 630.5,-246.05 659.59,-251.16"/>
<polygon fill="#63b8ff" stroke="#63b8ff" points="658.81,-254.58 669.26,-252.87 660.02,-247.69 658.81,-254.58"/>
</a>
</g>
</g>
<!-- Node4&#45;&gt;Node7 -->
<g id="edge5_Node000004_Node000007" class="edge">
<title>Node4&#45;&gt;Node7</title>
<g id="a_edge5_Node000004_Node000007"><a xlink:title=" ">
<path fill="none" stroke="#63b8ff" d="M570.95,-228.38C584.87,-226.63 603.37,-224.31 622.2,-221.94"/>
<polygon fill="#63b8ff" stroke="#63b8ff" points="622.63,-225.41 632.12,-220.69 621.76,-218.47 622.63,-225.41"/>
</a>
</g>
</g>
<!-- Node10 -->
<g id="Node000010" class="node">
<title>Node10</title>
<g id="a_Node000010"><a xlink:href="../../d0/da8/group___scaling.html#gad7535ccda9c92470c4e6ee0265585555" target="_top" xlink:title="Scale one byte by a second one, which is treated as the numerator of a fraction whose denominator is ...">
<polygon fill="white" stroke="#666666" points="569.88,-117.75 522.38,-117.75 522.38,-97 569.88,-97 569.88,-117.75"/>
<text text-anchor="middle" x="546.12" y="-104.25" font-family="Helvetica,sans-Serif" font-size="10.00">scale8</text>
</a>
</g>
</g>
<!-- Node9&#45;&gt;Node10 -->
<g id="edge9_Node000009_Node000010" class="edge">
<title>Node9&#45;&gt;Node10</title>
<g id="a_edge9_Node000009_Node000010"><a xlink:title=" ">
<path fill="none" stroke="#63b8ff" d="M416.83,-115.1C441.29,-113.63 481.95,-111.18 510.94,-109.43"/>
<polygon fill="#63b8ff" stroke="#63b8ff" points="510.91,-112.94 520.68,-108.85 510.48,-105.96 510.91,-112.94"/>
</a>
</g>
</g>
<!-- Node11&#45;&gt;Node10 -->
<g id="edge12_Node000011_Node000010" class="edge">
<title>Node11&#45;&gt;Node10</title>
<g id="a_edge12_Node000011_Node000010"><a xlink:title=" ">
<path fill="none" stroke="#63b8ff" d="M270.4,-108.84C288.11,-104.45 310.75,-99.58 331.25,-97.38 394.29,-90.61 468.27,-97.3 510.63,-102.52"/>
<polygon fill="#63b8ff" stroke="#63b8ff" points="510.09,-105.98 520.45,-103.78 510.98,-99.03 510.09,-105.98"/>
</a>
</g>
</g>
<!-- Node14 -->
<g id="Node000014" class="node">
<title>Node14</title>
<g id="a_Node000014"><a xlink:href="../../d0/dce/classfl_1_1_x_y_map.html#aaeab9d4f2c66f6e681415479493578c2" target="_top" xlink:title=" ">
<polygon fill="white" stroke="#666666" points="458.25,-49.75 331.25,-49.75 331.25,-29 458.25,-29 458.25,-49.75"/>
<text text-anchor="middle" x="394.75" y="-36.25" font-family="Helvetica,sans-Serif" font-size="10.00">fl::XYMap::mapToIndex</text>
</a>
</g>
</g>
<!-- Node13&#45;&gt;Node14 -->
<g id="edge15_Node000013_Node000014" class="edge">
<title>Node13&#45;&gt;Node14</title>
<g id="a_edge15_Node000013_Node000014"><a xlink:title=" ">
<path fill="none" stroke="#63b8ff" d="M292.34,-39.38C301.06,-39.38 310.24,-39.38 319.36,-39.38"/>
<polygon fill="#63b8ff" stroke="#63b8ff" points="319.33,-42.88 329.33,-39.38 319.33,-35.88 319.33,-42.88"/>
</a>
</g>
</g>
<!-- Node15 -->
<g id="Node000015" class="node">
<title>Node15</title>
<g id="a_Node000015"><a xlink:href="../../d4/d36/namespacefl.html#aabd143143924c6bddbe62e4b21688e76" target="_top" xlink:title=" ">
<polygon fill="white" stroke="#666666" points="598,-59.75 494.25,-59.75 494.25,-39 598,-39 598,-59.75"/>
<text text-anchor="middle" x="546.12" y="-46.25" font-family="Helvetica,sans-Serif" font-size="10.00">fl::xy_line_by_line</text>
</a>
</g>
</g>
<!-- Node14&#45;&gt;Node15 -->
<g id="edge16_Node000014_Node000015" class="edge">
<title>Node14&#45;&gt;Node15</title>
<g id="a_edge16_Node000014_Node000015"><a xlink:title=" ">
<path fill="none" stroke="#63b8ff" d="M458.67,-43.59C466.59,-44.12 474.7,-44.66 482.63,-45.19"/>
<polygon fill="#63b8ff" stroke="#63b8ff" points="482.33,-48.68 492.54,-45.85 482.8,-41.69 482.33,-48.68"/>
</a>
</g>
</g>
<!-- Node16 -->
<g id="Node000016" class="node">
<title>Node16</title>
<g id="a_Node000016"><a xlink:href="../../d4/d36/namespacefl.html#a44d29156c0decceaf2ff1970ddbdde7c" target="_top" xlink:title=" ">
<polygon fill="white" stroke="#666666" points="594.62,-20.75 497.62,-20.75 497.62,0 594.62,0 594.62,-20.75"/>
<text text-anchor="middle" x="546.12" y="-7.25" font-family="Helvetica,sans-Serif" font-size="10.00">fl::xy_serpentine</text>
</a>
</g>
</g>
<!-- Node14&#45;&gt;Node16 -->
<g id="edge17_Node000014_Node000016" class="edge">
<title>Node14&#45;&gt;Node16</title>
<g id="a_edge17_Node000014_Node000016"><a xlink:title=" ">
<path fill="none" stroke="#63b8ff" d="M451.37,-28.58C462.69,-26.38 474.64,-24.06 486.08,-21.84"/>
<polygon fill="#63b8ff" stroke="#63b8ff" points="486.67,-25.29 495.82,-19.95 485.33,-18.42 486.67,-25.29"/>
</a>
</g>
</g>
</g>
</svg>
