<?xml version="1.0" encoding="UTF-8" standalone="no"?>
<!DOCTYPE svg PUBLIC "-//W3C//DTD SVG 1.1//EN"
 "http://www.w3.org/Graphics/SVG/1.1/DTD/svg11.dtd">
<!-- Generated by graphviz version 12.2.1 (20241206.2353)
 -->
<!-- Title: fl::NoisePalette::draw Pages: 1 -->
<svg width="741pt" height="403pt"
 viewBox="0.00 0.00 741.25 403.36" xmlns="http://www.w3.org/2000/svg" xmlns:xlink="http://www.w3.org/1999/xlink">
<g id="graph0" class="graph" transform="scale(1 1) rotate(0) translate(4 399.36)">
<title>fl::NoisePalette::draw</title>
<!-- Node1 -->
<g id="Node000001" class="node">
<title>Node1</title>
<g id="a_Node000001"><a xlink:title=" ">
<polygon fill="#999999" stroke="#666666" points="119.5,-193.36 0,-193.36 0,-172.61 119.5,-172.61 119.5,-193.36"/>
<text text-anchor="middle" x="59.75" y="-179.86" font-family="Helvetica,sans-Serif" font-size="10.00">fl::NoisePalette::draw</text>
</a>
</g>
</g>
<!-- Node2 -->
<g id="Node000002" class="node">
<title>Node2</title>
<g id="a_Node000002"><a xlink:href="../../d9/d41/classfl_1_1_noise_palette.html#a22d1820b5a78e9ccfb4123ef9161f738" target="_top" xlink:title=" ">
<polygon fill="white" stroke="#666666" points="306.12,-299.36 166.38,-299.36 166.38,-278.61 306.12,-278.61 306.12,-299.36"/>
<text text-anchor="middle" x="236.25" y="-285.86" font-family="Helvetica,sans-Serif" font-size="10.00">fl::NoisePalette::fillnoise8</text>
</a>
</g>
</g>
<!-- Node1&#45;&gt;Node2 -->
<g id="edge1_Node000001_Node000002" class="edge">
<title>Node1&#45;&gt;Node2</title>
<g id="a_edge1_Node000001_Node000002"><a xlink:title=" ">
<path fill="none" stroke="#63b8ff" d="M78.44,-193.73C109.01,-212.3 171.92,-250.51 208.07,-272.47"/>
<polygon fill="#63b8ff" stroke="#63b8ff" points="205.85,-275.22 216.22,-277.42 209.49,-269.24 205.85,-275.22"/>
</a>
</g>
</g>
<!-- Node13 -->
<g id="Node000013" class="node">
<title>Node13</title>
<g id="a_Node000013"><a xlink:href="../../da/dda/_noise_plus_palette_8ino.html#a280e07fce1769d79d75e63ce6236a918" target="_top" xlink:title=" ">
<polygon fill="white" stroke="#666666" points="317,-107.36 155.5,-107.36 155.5,-86.61 317,-86.61 317,-107.36"/>
<text text-anchor="middle" x="236.25" y="-93.86" font-family="Helvetica,sans-Serif" font-size="10.00">mapNoiseToLEDsUsingPalette</text>
</a>
</g>
</g>
<!-- Node1&#45;&gt;Node13 -->
<g id="edge9_Node000001_Node000013" class="edge">
<title>Node1&#45;&gt;Node13</title>
<g id="a_edge9_Node000001_Node000013"><a xlink:title=" ">
<path fill="none" stroke="#63b8ff" d="M82.5,-172.26C112.8,-157.33 167.95,-130.15 203.03,-112.86"/>
<polygon fill="#63b8ff" stroke="#63b8ff" points="204.45,-116.06 211.87,-108.5 201.35,-109.79 204.45,-116.06"/>
</a>
</g>
</g>
<!-- Node3 -->
<g id="Node000003" class="node">
<title>Node3</title>
<g id="a_Node000003"><a xlink:href="../../d3/d92/classfl_1_1scoped__array.html#ac726846a84175cb31ff545082729900c" target="_top" xlink:title=" ">
<polygon fill="white" stroke="#666666" points="467.25,-395.36 353,-395.36 353,-374.61 467.25,-374.61 467.25,-395.36"/>
<text text-anchor="middle" x="410.12" y="-381.86" font-family="Helvetica,sans-Serif" font-size="10.00">fl::scoped_array::get</text>
</a>
</g>
</g>
<!-- Node2&#45;&gt;Node3 -->
<g id="edge2_Node000002_Node000003" class="edge">
<title>Node2&#45;&gt;Node3</title>
<g id="a_edge2_Node000002_Node000003"><a xlink:title=" ">
<path fill="none" stroke="#63b8ff" d="M251.2,-299.74C272.31,-315.63 314.04,-345.6 353,-364.98 356.53,-366.74 360.26,-368.42 364.05,-370"/>
<polygon fill="#63b8ff" stroke="#63b8ff" points="362.75,-373.25 373.34,-373.65 365.31,-366.74 362.75,-373.25"/>
</a>
</g>
</g>
<!-- Node4 -->
<g id="Node000004" class="node">
<title>Node4</title>
<g id="a_Node000004"><a xlink:href="../../d8/df9/group___noise_generation.html#gaa521ccca6038d7b5e881fe2e8f35d3bc" target="_top" xlink:title="8&#45;Bit, fixed point implementation of Perlin&#39;s noise.">
<polygon fill="white" stroke="#666666" points="435.75,-356.36 384.5,-356.36 384.5,-335.61 435.75,-335.61 435.75,-356.36"/>
<text text-anchor="middle" x="410.12" y="-342.86" font-family="Helvetica,sans-Serif" font-size="10.00">inoise8</text>
</a>
</g>
</g>
<!-- Node2&#45;&gt;Node4 -->
<g id="edge3_Node000002_Node000004" class="edge">
<title>Node2&#45;&gt;Node4</title>
<g id="a_edge3_Node000002_Node000004"><a xlink:title=" ">
<path fill="none" stroke="#63b8ff" d="M269.98,-299.84C299.56,-309.65 343.01,-324.06 373.46,-334.15"/>
<polygon fill="#63b8ff" stroke="#63b8ff" points="372.01,-337.36 382.61,-337.19 374.22,-330.72 372.01,-337.36"/>
</a>
</g>
</g>
<!-- Node11 -->
<g id="Node000011" class="node">
<title>Node11</title>
<g id="a_Node000011"><a xlink:href="../../d5/d98/group___math.html#ga07133b3085824d0fcd4f5086d286c4b5" target="_top" xlink:title="Add one byte to another, saturating at 0xFF.">
<polygon fill="white" stroke="#666666" points="599.5,-318.36 553.5,-318.36 553.5,-297.61 599.5,-297.61 599.5,-318.36"/>
<text text-anchor="middle" x="576.5" y="-304.86" font-family="Helvetica,sans-Serif" font-size="10.00">qadd8</text>
</a>
</g>
</g>
<!-- Node2&#45;&gt;Node11 -->
<g id="edge6_Node000002_Node000011" class="edge">
<title>Node2&#45;&gt;Node11</title>
<g id="a_edge6_Node000002_Node000011"><a xlink:title=" ">
<path fill="none" stroke="#63b8ff" d="M306.52,-292.87C378.21,-296.9 487.21,-303.02 541.83,-306.09"/>
<polygon fill="#63b8ff" stroke="#63b8ff" points="541.55,-309.58 551.74,-306.65 541.95,-302.59 541.55,-309.58"/>
</a>
</g>
</g>
<!-- Node12 -->
<g id="Node000012" class="node">
<title>Node12</title>
<g id="a_Node000012"><a xlink:href="../../d5/d98/group___math.html#gae261576a4c8155d6c0ba8615b2d2ecb3" target="_top" xlink:title="Subtract one byte from another, saturating at 0x00.">
<polygon fill="white" stroke="#666666" points="432.75,-280.36 387.5,-280.36 387.5,-259.61 432.75,-259.61 432.75,-280.36"/>
<text text-anchor="middle" x="410.12" y="-266.86" font-family="Helvetica,sans-Serif" font-size="10.00">qsub8</text>
</a>
</g>
</g>
<!-- Node2&#45;&gt;Node12 -->
<g id="edge7_Node000002_Node000012" class="edge">
<title>Node2&#45;&gt;Node12</title>
<g id="a_edge7_Node000002_Node000012"><a xlink:title=" ">
<path fill="none" stroke="#63b8ff" d="M306.17,-281.36C330.26,-278.7 356.2,-275.83 376.02,-273.64"/>
<polygon fill="#63b8ff" stroke="#63b8ff" points="376.15,-277.15 385.71,-272.57 375.38,-270.19 376.15,-277.15"/>
</a>
</g>
</g>
<!-- Node10 -->
<g id="Node000010" class="node">
<title>Node10</title>
<g id="a_Node000010"><a xlink:href="../../d0/da8/group___scaling.html#gad7535ccda9c92470c4e6ee0265585555" target="_top" xlink:title="Scale one byte by a second one, which is treated as the numerator of a fraction whose denominator is ...">
<polygon fill="white" stroke="#666666" points="733.25,-87.36 685.75,-87.36 685.75,-66.61 733.25,-66.61 733.25,-87.36"/>
<text text-anchor="middle" x="709.5" y="-73.86" font-family="Helvetica,sans-Serif" font-size="10.00">scale8</text>
</a>
</g>
</g>
<!-- Node2&#45;&gt;Node10 -->
<g id="edge8_Node000002_Node000010" class="edge">
<title>Node2&#45;&gt;Node10</title>
<g id="a_edge8_Node000002_Node000010"><a xlink:title=" ">
<path fill="none" stroke="#63b8ff" d="M264.9,-278.26C288.09,-269.66 322.26,-257.93 353,-250.98 482.69,-221.67 543.51,-292.94 649.75,-212.98 686.6,-185.25 700.65,-129.65 705.76,-98.82"/>
<polygon fill="#63b8ff" stroke="#63b8ff" points="709.2,-99.53 707.18,-89.13 702.27,-98.51 709.2,-99.53"/>
</a>
</g>
</g>
<!-- Node5 -->
<g id="Node000005" class="node">
<title>Node5</title>
<g id="a_Node000005"><a xlink:href="../../d8/df9/group___noise_generation.html#ga6c57ed3ea69e819c29602578ecbabd71" target="_top" xlink:title="8&#45;bit, fixed point implementation of Perlin&#39;s noise without scaling.">
<polygon fill="#fff0f0" stroke="red" points="613.75,-357.36 539.25,-357.36 539.25,-336.61 613.75,-336.61 613.75,-357.36"/>
<text text-anchor="middle" x="576.5" y="-343.86" font-family="Helvetica,sans-Serif" font-size="10.00">inoise8_raw</text>
</a>
</g>
</g>
<!-- Node4&#45;&gt;Node5 -->
<g id="edge4_Node000004_Node000005" class="edge">
<title>Node4&#45;&gt;Node5</title>
<g id="a_edge4_Node000004_Node000005"><a xlink:title=" ">
<path fill="none" stroke="#63b8ff" d="M436.09,-346.13C460.27,-346.28 497.58,-346.51 527.51,-346.69"/>
<polygon fill="#63b8ff" stroke="#63b8ff" points="527.46,-350.19 537.48,-346.75 527.5,-343.19 527.46,-350.19"/>
</a>
</g>
</g>
<!-- Node4&#45;&gt;Node11 -->
<g id="edge5_Node000004_Node000011" class="edge">
<title>Node4&#45;&gt;Node11</title>
<g id="a_edge5_Node000004_Node000011"><a xlink:title=" ">
<path fill="none" stroke="#63b8ff" d="M436.09,-340.21C464.49,-333.65 510.97,-322.9 542.38,-315.64"/>
<polygon fill="#63b8ff" stroke="#63b8ff" points="542.78,-319.14 551.73,-313.48 541.2,-312.32 542.78,-319.14"/>
</a>
</g>
</g>
<!-- Node14 -->
<g id="Node000014" class="node">
<title>Node14</title>
<g id="a_Node000014"><a xlink:href="../../d2/d73/group___palette_colors.html#gac46e65aff3dd6519b33e27f0998f17cd" target="_top" xlink:title="Get a color from a palette.">
<polygon fill="white" stroke="#666666" points="460.12,-126.36 360.12,-126.36 360.12,-105.61 460.12,-105.61 460.12,-126.36"/>
<text text-anchor="middle" x="410.12" y="-112.86" font-family="Helvetica,sans-Serif" font-size="10.00">ColorFromPalette</text>
</a>
</g>
</g>
<!-- Node13&#45;&gt;Node14 -->
<g id="edge10_Node000013_Node000014" class="edge">
<title>Node13&#45;&gt;Node14</title>
<g id="a_edge10_Node000013_Node000014"><a xlink:title=" ">
<path fill="none" stroke="#63b8ff" d="M317.4,-105.84C327.96,-107.01 338.63,-108.19 348.78,-109.31"/>
<polygon fill="#63b8ff" stroke="#63b8ff" points="348.15,-112.76 358.47,-110.38 348.92,-105.8 348.15,-112.76"/>
</a>
</g>
</g>
<!-- Node22 -->
<g id="Node000022" class="node">
<title>Node22</title>
<g id="a_Node000022"><a xlink:href="../../dc/d3e/group___dimming.html#gae51352a3522bb8eae5e17dbee97aa1aa" target="_top" xlink:title="Adjust a scaling value for dimming.">
<polygon fill="white" stroke="#666666" points="442.12,-87.36 378.12,-87.36 378.12,-66.61 442.12,-66.61 442.12,-87.36"/>
<text text-anchor="middle" x="410.12" y="-73.86" font-family="Helvetica,sans-Serif" font-size="10.00">dim8_raw</text>
</a>
</g>
</g>
<!-- Node13&#45;&gt;Node22 -->
<g id="edge17_Node000013_Node000022" class="edge">
<title>Node13&#45;&gt;Node22</title>
<g id="a_edge17_Node000013_Node000022"><a xlink:title=" ">
<path fill="none" stroke="#63b8ff" d="M317.4,-87.66C334.39,-85.68 351.68,-83.67 366.6,-81.93"/>
<polygon fill="#63b8ff" stroke="#63b8ff" points="366.98,-85.41 376.51,-80.78 366.17,-78.46 366.98,-85.41"/>
</a>
</g>
</g>
<!-- Node23 -->
<g id="Node000023" class="node">
<title>Node23</title>
<g id="a_Node000023"><a xlink:href="../../da/d2d/colorutils_8cpp.html#a7aa2d780d14ccc2f3ce3c493e01999eb" target="_top" xlink:title=" ">
<polygon fill="white" stroke="#666666" points="424.52,-48.36 395.73,-48.36 395.73,-27.61 424.52,-27.61 424.52,-48.36"/>
<text text-anchor="middle" x="410.12" y="-34.86" font-family="Helvetica,sans-Serif" font-size="10.00">XY</text>
</a>
</g>
</g>
<!-- Node13&#45;&gt;Node23 -->
<g id="edge19_Node000013_Node000023" class="edge">
<title>Node13&#45;&gt;Node23</title>
<g id="a_edge19_Node000013_Node000023"><a xlink:title=" ">
<path fill="none" stroke="#63b8ff" d="M268.77,-86.16C302.29,-74.66 354.56,-56.71 384.96,-46.28"/>
<polygon fill="#63b8ff" stroke="#63b8ff" points="385.7,-49.72 394.02,-43.17 383.43,-43.1 385.7,-49.72"/>
</a>
</g>
</g>
<!-- Node15 -->
<g id="Node000015" class="node">
<title>Node15</title>
<g id="a_Node000015"><a xlink:href="../../dc/db8/group___color_blends.html#ga4f06b4423f71f77346aaf5dabe7dd05c" target="_top" xlink:title="Computes a new color blended some fraction of the way between two other colors.">
<polygon fill="#fff0f0" stroke="red" points="598,-204.36 555,-204.36 555,-183.61 598,-183.61 598,-204.36"/>
<text text-anchor="middle" x="576.5" y="-190.86" font-family="Helvetica,sans-Serif" font-size="10.00">blend</text>
</a>
</g>
</g>
<!-- Node14&#45;&gt;Node15 -->
<g id="edge11_Node000014_Node000015" class="edge">
<title>Node14&#45;&gt;Node15</title>
<g id="a_edge11_Node000014_Node000015"><a xlink:title=" ">
<path fill="none" stroke="#63b8ff" d="M425.38,-126.83C442.88,-139.68 473.86,-161 503.25,-173.98 516.01,-179.62 530.75,-184.04 543.58,-187.28"/>
<polygon fill="#63b8ff" stroke="#63b8ff" points="542.7,-190.67 553.23,-189.57 544.31,-183.86 542.7,-190.67"/>
</a>
</g>
</g>
<!-- Node18 -->
<g id="Node000018" class="node">
<title>Node18</title>
<g id="a_Node000018"><a xlink:href="../../d0/da5/group___scaling_dirty.html#ga3fade00fb4cf5b937b973128198a7a79" target="_top" xlink:title="Clean up the r1 register after a series of *LEAVING_R1_DIRTY calls.">
<polygon fill="white" stroke="#666666" points="612.62,-165.36 540.38,-165.36 540.38,-144.61 612.62,-144.61 612.62,-165.36"/>
<text text-anchor="middle" x="576.5" y="-151.86" font-family="Helvetica,sans-Serif" font-size="10.00">cleanup_R1</text>
</a>
</g>
</g>
<!-- Node14&#45;&gt;Node18 -->
<g id="edge12_Node000014_Node000018" class="edge">
<title>Node14&#45;&gt;Node18</title>
<g id="a_edge12_Node000014_Node000018"><a xlink:title=" ">
<path fill="none" stroke="#63b8ff" d="M456.91,-126.85C479.42,-132.19 506.5,-138.61 529.09,-143.97"/>
<polygon fill="#63b8ff" stroke="#63b8ff" points="528.11,-147.33 538.64,-146.24 529.72,-140.52 528.11,-147.33"/>
</a>
</g>
</g>
<!-- Node20 -->
<g id="Node000020" class="node">
<title>Node20</title>
<g id="a_Node000020"><a xlink:href="../../da/d2d/colorutils_8cpp.html#ab445fd8641e95a3bbd1417d9783f6170" target="_top" xlink:title="Helper function to divide a number by 16, aka four logical shift right (LSR)&#39;s.">
<polygon fill="white" stroke="#666666" points="596.88,-126.36 556.12,-126.36 556.12,-105.61 596.88,-105.61 596.88,-126.36"/>
<text text-anchor="middle" x="576.5" y="-112.86" font-family="Helvetica,sans-Serif" font-size="10.00">lsrX4</text>
</a>
</g>
</g>
<!-- Node14&#45;&gt;Node20 -->
<g id="edge13_Node000014_Node000020" class="edge">
<title>Node14&#45;&gt;Node20</title>
<g id="a_edge13_Node000014_Node000020"><a xlink:title=" ">
<path fill="none" stroke="#63b8ff" d="M460.44,-115.98C487.66,-115.98 520.64,-115.98 544.3,-115.98"/>
<polygon fill="#63b8ff" stroke="#63b8ff" points="544.23,-119.48 554.23,-115.98 544.23,-112.48 544.23,-119.48"/>
</a>
</g>
</g>
<!-- Node21 -->
<g id="Node000021" class="node">
<title>Node21</title>
<g id="a_Node000021"><a xlink:href="../../d6/d19/group___linear_interpolation.html#gaf65357c7aeca9778e5a2f80a6bac2b5d" target="_top" xlink:title="Map from one full&#45;range 8&#45;bit value into a narrower range of 8&#45;bit values, possibly a range of hues.">
<polygon fill="white" stroke="#666666" points="598.38,-87.36 554.62,-87.36 554.62,-66.61 598.38,-66.61 598.38,-87.36"/>
<text text-anchor="middle" x="576.5" y="-73.86" font-family="Helvetica,sans-Serif" font-size="10.00">map8</text>
</a>
</g>
</g>
<!-- Node14&#45;&gt;Node21 -->
<g id="edge14_Node000014_Node000021" class="edge">
<title>Node14&#45;&gt;Node21</title>
<g id="a_edge14_Node000014_Node000021"><a xlink:title=" ">
<path fill="none" stroke="#63b8ff" d="M456.91,-105.12C484.47,-98.58 518.86,-90.42 543.5,-84.57"/>
<polygon fill="#63b8ff" stroke="#63b8ff" points="544.02,-88.05 552.94,-82.34 542.4,-81.24 544.02,-88.05"/>
</a>
</g>
</g>
<!-- Node19 -->
<g id="Node000019" class="node">
<title>Node19</title>
<g id="a_Node000019"><a xlink:href="../../d0/da5/group___scaling_dirty.html#ga7386235cada3aca429b189681d2ec56d" target="_top" xlink:title="This version of scale8() does not clean up the R1 register on AVR.">
<polygon fill="white" stroke="#666666" points="649.75,-48.36 503.25,-48.36 503.25,-27.61 649.75,-27.61 649.75,-48.36"/>
<text text-anchor="middle" x="576.5" y="-34.86" font-family="Helvetica,sans-Serif" font-size="10.00">scale8_LEAVING_R1_DIRTY</text>
</a>
</g>
</g>
<!-- Node14&#45;&gt;Node19 -->
<g id="edge16_Node000014_Node000019" class="edge">
<title>Node14&#45;&gt;Node19</title>
<g id="a_edge16_Node000014_Node000019"><a xlink:title=" ">
<path fill="none" stroke="#63b8ff" d="M449.12,-105.2C455.42,-102.65 461.7,-99.6 467.25,-95.98 486.74,-83.28 483.31,-69.97 503.25,-57.98 506.22,-56.2 509.36,-54.56 512.59,-53.08"/>
<polygon fill="#63b8ff" stroke="#63b8ff" points="513.81,-56.36 521.77,-49.36 511.18,-49.87 513.81,-56.36"/>
</a>
</g>
</g>
<!-- Node21&#45;&gt;Node10 -->
<g id="edge15_Node000021_Node000010" class="edge">
<title>Node21&#45;&gt;Node10</title>
<g id="a_edge15_Node000021_Node000010"><a xlink:title=" ">
<path fill="none" stroke="#63b8ff" d="M598.84,-76.98C619.18,-76.98 650.16,-76.98 674.01,-76.98"/>
<polygon fill="#63b8ff" stroke="#63b8ff" points="673.89,-80.48 683.89,-76.98 673.89,-73.48 673.89,-80.48"/>
</a>
</g>
</g>
<!-- Node22&#45;&gt;Node10 -->
<g id="edge18_Node000022_Node000010" class="edge">
<title>Node22&#45;&gt;Node10</title>
<g id="a_edge18_Node000022_Node000010"><a xlink:title=" ">
<path fill="none" stroke="#63b8ff" d="M442.35,-68.76C450.81,-65.78 459.71,-61.89 467.25,-56.98 486.74,-44.28 481.88,-28.17 503.25,-18.98 563.06,6.75 589.52,5.74 649.75,-18.98 668.53,-26.69 684.51,-43.62 695.04,-57.21"/>
<polygon fill="#63b8ff" stroke="#63b8ff" points="692.09,-59.1 700.82,-65.11 697.74,-54.97 692.09,-59.1"/>
</a>
</g>
</g>
</g>
</svg>
