<?xml version="1.0" encoding="UTF-8" standalone="no"?>
<!DOCTYPE svg PUBLIC "-//W3C//DTD SVG 1.1//EN"
 "http://www.w3.org/Graphics/SVG/1.1/DTD/svg11.dtd">
<!-- Generated by graphviz version 12.2.1 (20241206.2353)
 -->
<!-- Title: fl::NoisePalette::changeToRandomPalette Pages: 1 -->
<svg width="614pt" height="161pt"
 viewBox="0.00 0.00 614.25 161.12" xmlns="http://www.w3.org/2000/svg" xmlns:xlink="http://www.w3.org/1999/xlink">
<g id="graph0" class="graph" transform="scale(1 1) rotate(0) translate(4 157.12)">
<title>fl::NoisePalette::changeToRandomPalette</title>
<!-- Node1 -->
<g id="Node000001" class="node">
<title>Node1</title>
<g id="a_Node000001"><a xlink:title=" ">
<polygon fill="#999999" stroke="#666666" points="130.75,-133.5 0,-133.5 0,-100 130.75,-100 130.75,-133.5"/>
<text text-anchor="start" x="8" y="-120" font-family="Helvetica,sans-Serif" font-size="10.00">fl::NoisePalette::change</text>
<text text-anchor="middle" x="65.38" y="-107.25" font-family="Helvetica,sans-Serif" font-size="10.00">ToRandomPalette</text>
</a>
</g>
</g>
<!-- Node2 -->
<g id="Node000002" class="node">
<title>Node2</title>
<g id="a_Node000002"><a xlink:href="../../d2/d0d/group___random.html#ga4e63c74426f6516f28470dc1b814aefe" target="_top" xlink:title="Generate an 8&#45;bit random number.">
<polygon fill="white" stroke="#666666" points="606.25,-153.12 546.75,-153.12 546.75,-132.38 606.25,-132.38 606.25,-153.12"/>
<text text-anchor="middle" x="576.5" y="-139.62" font-family="Helvetica,sans-Serif" font-size="10.00">random8</text>
</a>
</g>
</g>
<!-- Node1&#45;&gt;Node2 -->
<g id="edge1_Node000001_Node000002" class="edge">
<title>Node1&#45;&gt;Node2</title>
<g id="a_edge1_Node000001_Node000002"><a xlink:title=" ">
<path fill="none" stroke="#63b8ff" d="M131.15,-125.65C187.92,-132.99 272.75,-142.79 347,-146.75 419.67,-150.62 438.01,-148.99 510.75,-146.75 518.62,-146.51 527.01,-146.1 535.06,-145.63"/>
<polygon fill="#63b8ff" stroke="#63b8ff" points="535.23,-149.13 545,-145.02 534.8,-142.14 535.23,-149.13"/>
</a>
</g>
</g>
<!-- Node3 -->
<g id="Node000003" class="node">
<title>Node3</title>
<g id="a_Node000003"><a xlink:href="../../d9/d41/classfl_1_1_noise_palette.html#ae6488d109988a70f949dba4dd8f3d2ed" target="_top" xlink:title=" ">
<polygon fill="white" stroke="#666666" points="311,-111.5 166.75,-111.5 166.75,-78 311,-78 311,-111.5"/>
<text text-anchor="start" x="174.75" y="-98" font-family="Helvetica,sans-Serif" font-size="10.00">fl::NoisePalette::setPalette</text>
<text text-anchor="middle" x="238.88" y="-85.25" font-family="Helvetica,sans-Serif" font-size="10.00">Preset</text>
</a>
</g>
</g>
<!-- Node1&#45;&gt;Node3 -->
<g id="edge2_Node000001_Node000003" class="edge">
<title>Node1&#45;&gt;Node3</title>
<g id="a_edge2_Node000001_Node000003"><a xlink:title=" ">
<path fill="none" stroke="#63b8ff" d="M131.21,-108.43C139.01,-107.43 147.06,-106.4 155.07,-105.37"/>
<polygon fill="#63b8ff" stroke="#63b8ff" points="155.37,-108.86 164.85,-104.12 154.48,-101.92 155.37,-108.86"/>
</a>
</g>
</g>
<!-- Node4 -->
<g id="Node000004" class="node">
<title>Node4</title>
<g id="a_Node000004"><a xlink:href="../../d9/d41/classfl_1_1_noise_palette.html#a3edcb0dfbc5280fffcd9776bc59f6899" target="_top" xlink:title=" ">
<polygon fill="white" stroke="#666666" points="504,-85.5 353.75,-85.5 353.75,-52 504,-52 504,-85.5"/>
<text text-anchor="start" x="361.75" y="-72" font-family="Helvetica,sans-Serif" font-size="10.00">fl::NoisePalette::SetupBlack</text>
<text text-anchor="middle" x="428.88" y="-59.25" font-family="Helvetica,sans-Serif" font-size="10.00">AndWhiteStripedPalette</text>
</a>
</g>
</g>
<!-- Node3&#45;&gt;Node4 -->
<g id="edge3_Node000003_Node000004" class="edge">
<title>Node3&#45;&gt;Node4</title>
<g id="a_edge3_Node000003_Node000004"><a xlink:title=" ">
<path fill="none" stroke="#63b8ff" d="M311.49,-84.85C321.54,-83.46 331.97,-82.01 342.25,-80.59"/>
<polygon fill="#63b8ff" stroke="#63b8ff" points="342.41,-84.1 351.84,-79.27 341.46,-77.17 342.41,-84.1"/>
</a>
</g>
</g>
<!-- Node6 -->
<g id="Node000006" class="node">
<title>Node6</title>
<g id="a_Node000006"><a xlink:href="../../d9/d41/classfl_1_1_noise_palette.html#a7b4bff9751e94b0ca2c4deaff12d485b" target="_top" xlink:title=" ">
<polygon fill="white" stroke="#666666" points="505.88,-33.5 351.88,-33.5 351.88,0 505.88,0 505.88,-33.5"/>
<text text-anchor="start" x="359.88" y="-20" font-family="Helvetica,sans-Serif" font-size="10.00">fl::NoisePalette::SetupPurple</text>
<text text-anchor="middle" x="428.88" y="-7.25" font-family="Helvetica,sans-Serif" font-size="10.00">AndGreenPalette</text>
</a>
</g>
</g>
<!-- Node3&#45;&gt;Node6 -->
<g id="edge5_Node000003_Node000006" class="edge">
<title>Node3&#45;&gt;Node6</title>
<g id="a_edge5_Node000003_Node000006"><a xlink:title=" ">
<path fill="none" stroke="#63b8ff" d="M272.16,-77.6C293.14,-66.83 321.29,-53.06 347,-42.75 351.31,-41.02 355.79,-39.32 360.32,-37.68"/>
<polygon fill="#63b8ff" stroke="#63b8ff" points="361.26,-41.06 369.53,-34.43 358.93,-34.45 361.26,-41.06"/>
</a>
</g>
</g>
<!-- Node7 -->
<g id="Node000007" class="node">
<title>Node7</title>
<g id="a_Node000007"><a xlink:href="../../d9/d41/classfl_1_1_noise_palette.html#ac7e866ba3586a6d8fcc916347ae8e83b" target="_top" xlink:title=" ">
<polygon fill="white" stroke="#666666" points="510.75,-137.5 347,-137.5 347,-104 510.75,-104 510.75,-137.5"/>
<text text-anchor="start" x="355" y="-124" font-family="Helvetica,sans-Serif" font-size="10.00">fl::NoisePalette::SetupRandom</text>
<text text-anchor="middle" x="428.88" y="-111.25" font-family="Helvetica,sans-Serif" font-size="10.00">Palette</text>
</a>
</g>
</g>
<!-- Node3&#45;&gt;Node7 -->
<g id="edge6_Node000003_Node000007" class="edge">
<title>Node3&#45;&gt;Node7</title>
<g id="a_edge6_Node000003_Node000007"><a xlink:title=" ">
<path fill="none" stroke="#63b8ff" d="M311.49,-104.65C319.31,-105.74 327.36,-106.85 335.4,-107.96"/>
<polygon fill="#63b8ff" stroke="#63b8ff" points="334.84,-111.42 345.22,-109.32 335.8,-104.48 334.84,-111.42"/>
</a>
</g>
</g>
<!-- Node5 -->
<g id="Node000005" class="node">
<title>Node5</title>
<g id="a_Node000005"><a xlink:href="../../da/de3/group___color_fills.html#gac0bcd5712f9f57a186f2c5f96911af1d" target="_top" xlink:title="Fill a range of LEDs with a solid color.">
<polygon fill="white" stroke="#666666" points="604.75,-79.12 548.25,-79.12 548.25,-58.38 604.75,-58.38 604.75,-79.12"/>
<text text-anchor="middle" x="576.5" y="-65.62" font-family="Helvetica,sans-Serif" font-size="10.00">fill_solid</text>
</a>
</g>
</g>
<!-- Node4&#45;&gt;Node5 -->
<g id="edge4_Node000004_Node000005" class="edge">
<title>Node4&#45;&gt;Node5</title>
<g id="a_edge4_Node000004_Node000005"><a xlink:title=" ">
<path fill="none" stroke="#63b8ff" d="M504.39,-68.75C515.44,-68.75 526.43,-68.75 536.35,-68.75"/>
<polygon fill="#63b8ff" stroke="#63b8ff" points="536.34,-72.25 546.34,-68.75 536.34,-65.25 536.34,-72.25"/>
</a>
</g>
</g>
<!-- Node7&#45;&gt;Node2 -->
<g id="edge7_Node000007_Node000002" class="edge">
<title>Node7&#45;&gt;Node2</title>
<g id="a_edge7_Node000007_Node000002"><a xlink:title=" ">
<path fill="none" stroke="#63b8ff" d="M511.2,-133.04C519.5,-134.29 527.64,-135.52 535.2,-136.66"/>
<polygon fill="#63b8ff" stroke="#63b8ff" points="534.62,-140.11 545.03,-138.15 535.67,-133.19 534.62,-140.11"/>
</a>
</g>
</g>
</g>
</svg>
