<?xml version="1.0" encoding="UTF-8" standalone="no"?>
<!DOCTYPE svg PUBLIC "-//W3C//DTD SVG 1.1//EN"
 "http://www.w3.org/Graphics/SVG/1.1/DTD/svg11.dtd">
<!-- Generated by graphviz version 12.2.1 (20241206.2353)
 -->
<!-- Title: fl::NoisePalette::fillnoise8 Pages: 1 -->
<svg width="587pt" height="182pt"
 viewBox="0.00 0.00 586.75 181.75" xmlns="http://www.w3.org/2000/svg" xmlns:xlink="http://www.w3.org/1999/xlink">
<g id="graph0" class="graph" transform="scale(1 1) rotate(0) translate(4 177.75)">
<title>fl::NoisePalette::fillnoise8</title>
<!-- Node1 -->
<g id="Node000001" class="node">
<title>Node1</title>
<g id="a_Node000001"><a xlink:title=" ">
<polygon fill="#999999" stroke="#666666" points="139.75,-96.75 0,-96.75 0,-76 139.75,-76 139.75,-96.75"/>
<text text-anchor="middle" x="69.88" y="-83.25" font-family="Helvetica,sans-Serif" font-size="10.00">fl::NoisePalette::fillnoise8</text>
</a>
</g>
</g>
<!-- Node2 -->
<g id="Node000002" class="node">
<title>Node2</title>
<g id="a_Node000002"><a xlink:href="../../d3/d92/classfl_1_1scoped__array.html#ac726846a84175cb31ff545082729900c" target="_top" xlink:title=" ">
<polygon fill="white" stroke="#666666" points="290,-173.75 175.75,-173.75 175.75,-153 290,-153 290,-173.75"/>
<text text-anchor="middle" x="232.88" y="-160.25" font-family="Helvetica,sans-Serif" font-size="10.00">fl::scoped_array::get</text>
</a>
</g>
</g>
<!-- Node1&#45;&gt;Node2 -->
<g id="edge1_Node000001_Node000002" class="edge">
<title>Node1&#45;&gt;Node2</title>
<g id="a_edge1_Node000001_Node000002"><a xlink:title=" ">
<path fill="none" stroke="#63b8ff" d="M88.63,-97.14C109.15,-109.3 144.15,-129.26 175.75,-143.38 179.78,-145.17 184.02,-146.93 188.3,-148.61"/>
<polygon fill="#63b8ff" stroke="#63b8ff" points="186.88,-151.81 197.47,-152.05 189.34,-145.26 186.88,-151.81"/>
</a>
</g>
</g>
<!-- Node3 -->
<g id="Node000003" class="node">
<title>Node3</title>
<g id="a_Node000003"><a xlink:href="../../d8/df9/group___noise_generation.html#gaa521ccca6038d7b5e881fe2e8f35d3bc" target="_top" xlink:title="8&#45;Bit, fixed point implementation of Perlin&#39;s noise.">
<polygon fill="white" stroke="#666666" points="258.5,-134.75 207.25,-134.75 207.25,-114 258.5,-114 258.5,-134.75"/>
<text text-anchor="middle" x="232.88" y="-121.25" font-family="Helvetica,sans-Serif" font-size="10.00">inoise8</text>
</a>
</g>
</g>
<!-- Node1&#45;&gt;Node3 -->
<g id="edge2_Node000001_Node000003" class="edge">
<title>Node1&#45;&gt;Node3</title>
<g id="a_edge2_Node000001_Node000003"><a xlink:title=" ">
<path fill="none" stroke="#63b8ff" d="M116.58,-97.16C141.71,-103.09 172.45,-110.35 195.86,-115.87"/>
<polygon fill="#63b8ff" stroke="#63b8ff" points="195.03,-119.27 205.57,-118.17 196.64,-112.46 195.03,-119.27"/>
</a>
</g>
</g>
<!-- Node9 -->
<g id="Node000009" class="node">
<title>Node9</title>
<g id="a_Node000009"><a xlink:href="../../d0/da8/group___scaling.html#gad7535ccda9c92470c4e6ee0265585555" target="_top" xlink:title="Scale one byte by a second one, which is treated as the numerator of a fraction whose denominator is ...">
<polygon fill="white" stroke="#666666" points="578.75,-77.75 531.25,-77.75 531.25,-57 578.75,-57 578.75,-77.75"/>
<text text-anchor="middle" x="555" y="-64.25" font-family="Helvetica,sans-Serif" font-size="10.00">scale8</text>
</a>
</g>
</g>
<!-- Node1&#45;&gt;Node9 -->
<g id="edge10_Node000001_Node000009" class="edge">
<title>Node1&#45;&gt;Node9</title>
<g id="a_edge10_Node000001_Node000009"><a xlink:title=" ">
<path fill="none" stroke="#63b8ff" d="M140.1,-79.82C191.37,-75.31 262.97,-69.72 326,-67.38 394.66,-64.82 475.04,-65.73 519.67,-66.58"/>
<polygon fill="#63b8ff" stroke="#63b8ff" points="519.43,-70.08 529.5,-66.78 519.57,-63.08 519.43,-70.08"/>
</a>
</g>
</g>
<!-- Node10 -->
<g id="Node000010" class="node">
<title>Node10</title>
<g id="a_Node000010"><a xlink:href="../../d5/d98/group___math.html#ga07133b3085824d0fcd4f5086d286c4b5" target="_top" xlink:title="Add one byte to another, saturating at 0xFF.">
<polygon fill="white" stroke="#666666" points="386.25,-96.75 340.25,-96.75 340.25,-76 386.25,-76 386.25,-96.75"/>
<text text-anchor="middle" x="363.25" y="-83.25" font-family="Helvetica,sans-Serif" font-size="10.00">qadd8</text>
</a>
</g>
</g>
<!-- Node1&#45;&gt;Node10 -->
<g id="edge8_Node000001_Node000010" class="edge">
<title>Node1&#45;&gt;Node10</title>
<g id="a_edge8_Node000001_Node000010"><a xlink:title=" ">
<path fill="none" stroke="#63b8ff" d="M139.93,-86.38C199.4,-86.38 282.7,-86.38 328.59,-86.38"/>
<polygon fill="#63b8ff" stroke="#63b8ff" points="328.44,-89.88 338.44,-86.38 328.44,-82.88 328.44,-89.88"/>
</a>
</g>
</g>
<!-- Node11 -->
<g id="Node000011" class="node">
<title>Node11</title>
<g id="a_Node000011"><a xlink:href="../../d5/d98/group___math.html#gae261576a4c8155d6c0ba8615b2d2ecb3" target="_top" xlink:title="Subtract one byte from another, saturating at 0x00.">
<polygon fill="white" stroke="#666666" points="255.5,-20.75 210.25,-20.75 210.25,0 255.5,0 255.5,-20.75"/>
<text text-anchor="middle" x="232.88" y="-7.25" font-family="Helvetica,sans-Serif" font-size="10.00">qsub8</text>
</a>
</g>
</g>
<!-- Node1&#45;&gt;Node11 -->
<g id="edge9_Node000001_Node000011" class="edge">
<title>Node1&#45;&gt;Node11</title>
<g id="a_edge9_Node000001_Node000011"><a xlink:title=" ">
<path fill="none" stroke="#63b8ff" d="M91.6,-75.67C112.64,-64.9 146.22,-47.99 175.75,-34.38 183.34,-30.88 191.57,-27.25 199.34,-23.92"/>
<polygon fill="#63b8ff" stroke="#63b8ff" points="200.66,-27.16 208.5,-20.03 197.93,-20.72 200.66,-27.16"/>
</a>
</g>
</g>
<!-- Node4 -->
<g id="Node000004" class="node">
<title>Node4</title>
<g id="a_Node000004"><a xlink:href="../../d8/df9/group___noise_generation.html#ga6c57ed3ea69e819c29602578ecbabd71" target="_top" xlink:title="8&#45;bit, fixed point implementation of Perlin&#39;s noise without scaling.">
<polygon fill="white" stroke="#666666" points="400.5,-135.75 326,-135.75 326,-115 400.5,-115 400.5,-135.75"/>
<text text-anchor="middle" x="363.25" y="-122.25" font-family="Helvetica,sans-Serif" font-size="10.00">inoise8_raw</text>
</a>
</g>
</g>
<!-- Node3&#45;&gt;Node4 -->
<g id="edge3_Node000003_Node000004" class="edge">
<title>Node3&#45;&gt;Node4</title>
<g id="a_edge3_Node000003_Node000004"><a xlink:title=" ">
<path fill="none" stroke="#63b8ff" d="M258.93,-124.57C274.64,-124.69 295.41,-124.85 314.21,-125"/>
<polygon fill="#63b8ff" stroke="#63b8ff" points="314.05,-128.5 324.08,-125.08 314.1,-121.5 314.05,-128.5"/>
</a>
</g>
</g>
<!-- Node3&#45;&gt;Node10 -->
<g id="edge7_Node000003_Node000010" class="edge">
<title>Node3&#45;&gt;Node10</title>
<g id="a_edge7_Node000003_Node000010"><a xlink:title=" ">
<path fill="none" stroke="#63b8ff" d="M258.93,-116.96C278.94,-111.04 307.15,-102.68 329.04,-96.21"/>
<polygon fill="#63b8ff" stroke="#63b8ff" points="329.79,-99.63 338.38,-93.44 327.8,-92.92 329.79,-99.63"/>
</a>
</g>
</g>
<!-- Node5 -->
<g id="Node000005" class="node">
<title>Node5</title>
<g id="a_Node000005"><a xlink:href="../../d6/de8/noise_8cpp.html#a07165473858feff9f2415a77bf841731" target="_top" xlink:title=" ">
<polygon fill="#fff0f0" stroke="red" points="487.75,-135.75 444,-135.75 444,-115 487.75,-115 487.75,-135.75"/>
<text text-anchor="middle" x="465.88" y="-122.25" font-family="Helvetica,sans-Serif" font-size="10.00">grad8</text>
</a>
</g>
</g>
<!-- Node4&#45;&gt;Node5 -->
<g id="edge4_Node000004_Node000005" class="edge">
<title>Node4&#45;&gt;Node5</title>
<g id="a_edge4_Node000004_Node000005"><a xlink:title=" ">
<path fill="none" stroke="#63b8ff" d="M400.86,-125.38C411.2,-125.38 422.38,-125.38 432.45,-125.38"/>
<polygon fill="#63b8ff" stroke="#63b8ff" points="432.14,-128.88 442.14,-125.38 432.14,-121.88 432.14,-128.88"/>
</a>
</g>
</g>
<!-- Node8 -->
<g id="Node000008" class="node">
<title>Node8</title>
<g id="a_Node000008"><a xlink:href="../../d6/de8/noise_8cpp.html#ad89cf56a81ef482a0027a47eada176bb" target="_top" xlink:title=" ">
<polygon fill="white" stroke="#666666" points="495.25,-96.75 436.5,-96.75 436.5,-76 495.25,-76 495.25,-96.75"/>
<text text-anchor="middle" x="465.88" y="-83.25" font-family="Helvetica,sans-Serif" font-size="10.00">lerp7by8</text>
</a>
</g>
</g>
<!-- Node4&#45;&gt;Node8 -->
<g id="edge5_Node000004_Node000008" class="edge">
<title>Node4&#45;&gt;Node8</title>
<g id="a_edge5_Node000004_Node000008"><a xlink:title=" ">
<path fill="none" stroke="#63b8ff" d="M392.28,-114.51C402.86,-110.41 415.08,-105.67 426.44,-101.27"/>
<polygon fill="#63b8ff" stroke="#63b8ff" points="427.53,-104.6 435.58,-97.73 425,-98.08 427.53,-104.6"/>
</a>
</g>
</g>
<!-- Node8&#45;&gt;Node9 -->
<g id="edge6_Node000008_Node000009" class="edge">
<title>Node8&#45;&gt;Node9</title>
<g id="a_edge6_Node000008_Node000009"><a xlink:title=" ">
<path fill="none" stroke="#63b8ff" d="M495.4,-80.15C503.23,-78.45 511.79,-76.58 519.9,-74.81"/>
<polygon fill="#63b8ff" stroke="#63b8ff" points="520.42,-78.28 529.44,-72.73 518.93,-71.44 520.42,-78.28"/>
</a>
</g>
</g>
</g>
</svg>
