<?xml version="1.0" encoding="UTF-8" standalone="no"?>
<!DOCTYPE svg PUBLIC "-//W3C//DTD SVG 1.1//EN"
 "http://www.w3.org/Graphics/SVG/1.1/DTD/svg11.dtd">
<!-- Generated by graphviz version 12.2.1 (20241206.2353)
 -->
<!-- Title: /home/runner/work/FastLED/FastLED/src/fx/time.h Pages: 1 -->
<svg width="368pt" height="212pt"
 viewBox="0.00 0.00 367.93 211.75" xmlns="http://www.w3.org/2000/svg" xmlns:xlink="http://www.w3.org/1999/xlink">
<g id="graph0" class="graph" transform="scale(1 1) rotate(0) translate(4 207.75)">
<title>/home/runner/work/FastLED/FastLED/src/fx/time.h</title>
<!-- Node1 -->
<g id="Node000001" class="node">
<title>Node1</title>
<g id="a_Node000001"><a xlink:title=" ">
<polygon fill="#999999" stroke="#666666" points="342.28,-203.75 192.78,-203.75 192.78,-170.25 342.28,-170.25 342.28,-203.75"/>
<text text-anchor="start" x="200.78" y="-190.25" font-family="Helvetica,sans-Serif" font-size="10.00">/home/runner/work/FastLED</text>
<text text-anchor="middle" x="267.53" y="-177.5" font-family="Helvetica,sans-Serif" font-size="10.00">/FastLED/src/fx/time.h</text>
</a>
</g>
</g>
<!-- Node2 -->
<g id="Node000002" class="node">
<title>Node2</title>
<g id="a_Node000002"><a xlink:title=" ">
<polygon fill="#e0e0e0" stroke="#999999" points="54.9,-20.75 2.15,-20.75 2.15,0 54.9,0 54.9,-20.75"/>
<text text-anchor="middle" x="28.53" y="-7.25" font-family="Helvetica,sans-Serif" font-size="10.00">stdint.h</text>
</a>
</g>
</g>
<!-- Node1&#45;&gt;Node2 -->
<g id="edge1_Node000001_Node000002" class="edge">
<title>Node1&#45;&gt;Node2</title>
<g id="a_edge1_Node000001_Node000002"><a xlink:title=" ">
<path fill="none" stroke="#63b8ff" d="M192.33,-177.55C130.33,-166.18 46.08,-139.59 4.53,-77.5 -5.2,-62.96 3.47,-43.99 13,-30.1"/>
<polygon fill="#63b8ff" stroke="#63b8ff" points="15.7,-32.32 18.92,-22.23 10.11,-28.11 15.7,-32.32"/>
</a>
</g>
</g>
<!-- Node3 -->
<g id="Node000003" class="node">
<title>Node3</title>
<g id="a_Node000003"><a xlink:href="../../d7/df1/fl_2ptr_8h.html" target="_top" xlink:title=" ">
<polygon fill="white" stroke="#666666" points="249.9,-134.25 203.15,-134.25 203.15,-113.5 249.9,-113.5 249.9,-134.25"/>
<text text-anchor="middle" x="226.53" y="-120.75" font-family="Helvetica,sans-Serif" font-size="10.00">fl/ptr.h</text>
</a>
</g>
</g>
<!-- Node1&#45;&gt;Node3 -->
<g id="edge2_Node000001_Node000003" class="edge">
<title>Node1&#45;&gt;Node3</title>
<g id="a_edge2_Node000001_Node000003"><a xlink:title=" ">
<path fill="none" stroke="#63b8ff" d="M256.75,-169.94C251.42,-161.99 244.95,-152.34 239.37,-144.02"/>
<polygon fill="#63b8ff" stroke="#63b8ff" points="242.45,-142.33 233.97,-135.97 236.64,-146.23 242.45,-142.33"/>
</a>
</g>
</g>
<!-- Node5 -->
<g id="Node000005" class="node">
<title>Node5</title>
<g id="a_Node000005"><a xlink:href="../../df/d2a/namespace_8h.html" target="_top" xlink:title="Implements the FastLED namespace macros.">
<polygon fill="white" stroke="#666666" points="342.65,-20.75 252.4,-20.75 252.4,0 342.65,0 342.65,-20.75"/>
<text text-anchor="middle" x="297.53" y="-7.25" font-family="Helvetica,sans-Serif" font-size="10.00">fl/namespace.h</text>
</a>
</g>
</g>
<!-- Node1&#45;&gt;Node5 -->
<g id="edge13_Node000001_Node000005" class="edge">
<title>Node1&#45;&gt;Node5</title>
<g id="a_edge13_Node000001_Node000005"><a xlink:title=" ">
<path fill="none" stroke="#63b8ff" d="M312.59,-169.85C328.44,-161.75 344.52,-150.18 353.53,-134.25 373.87,-98.26 339.62,-53.55 316.33,-29.21"/>
<polygon fill="#63b8ff" stroke="#63b8ff" points="318.97,-26.9 309.43,-22.29 314.01,-31.84 318.97,-26.9"/>
</a>
</g>
</g>
<!-- Node8 -->
<g id="Node000008" class="node">
<title>Node8</title>
<g id="a_Node000008"><a xlink:href="../../da/d05/callback_8h.html" target="_top" xlink:title=" ">
<polygon fill="white" stroke="#666666" points="344.78,-134.25 270.28,-134.25 270.28,-113.5 344.78,-113.5 344.78,-134.25"/>
<text text-anchor="middle" x="307.53" y="-120.75" font-family="Helvetica,sans-Serif" font-size="10.00">fl/callback.h</text>
</a>
</g>
</g>
<!-- Node1&#45;&gt;Node8 -->
<g id="edge11_Node000001_Node000008" class="edge">
<title>Node1&#45;&gt;Node8</title>
<g id="a_edge11_Node000001_Node000008"><a xlink:title=" ">
<path fill="none" stroke="#63b8ff" d="M278.04,-169.94C283.18,-162.08 289.41,-152.56 294.82,-144.29"/>
<polygon fill="#63b8ff" stroke="#63b8ff" points="297.71,-146.27 300.26,-135.98 291.85,-142.43 297.71,-146.27"/>
</a>
</g>
</g>
<!-- Node4 -->
<g id="Node000004" class="node">
<title>Node4</title>
<g id="a_Node000004"><a xlink:title=" ">
<polygon fill="#e0e0e0" stroke="#999999" points="208.03,-20.75 153.03,-20.75 153.03,0 208.03,0 208.03,-20.75"/>
<text text-anchor="middle" x="180.53" y="-7.25" font-family="Helvetica,sans-Serif" font-size="10.00">stddef.h</text>
</a>
</g>
</g>
<!-- Node3&#45;&gt;Node4 -->
<g id="edge3_Node000003_Node000004" class="edge">
<title>Node3&#45;&gt;Node4</title>
<g id="a_edge3_Node000003_Node000004"><a xlink:title=" ">
<path fill="none" stroke="#63b8ff" d="M208.96,-113.11C196.8,-105.26 181.57,-92.99 174.53,-77.5 168.03,-63.2 170.15,-45.38 173.55,-31.85"/>
<polygon fill="#63b8ff" stroke="#63b8ff" points="176.9,-32.88 176.4,-22.3 170.19,-30.88 176.9,-32.88"/>
</a>
</g>
</g>
<!-- Node3&#45;&gt;Node5 -->
<g id="edge4_Node000003_Node000005" class="edge">
<title>Node3&#45;&gt;Node5</title>
<g id="a_edge4_Node000003_Node000005"><a xlink:title=" ">
<path fill="none" stroke="#63b8ff" d="M241.88,-113.12C253.55,-104.94 269.14,-92.26 278.53,-77.5 287.26,-63.77 292.08,-45.91 294.68,-32.22"/>
<polygon fill="#63b8ff" stroke="#63b8ff" points="298.1,-32.98 296.25,-22.55 291.19,-31.86 298.1,-32.98"/>
</a>
</g>
</g>
<!-- Node6 -->
<g id="Node000006" class="node">
<title>Node6</title>
<g id="a_Node000006"><a xlink:href="../../df/d28/fl_2scoped__ptr_8h.html" target="_top" xlink:title=" ">
<polygon fill="white" stroke="#666666" points="269.78,-77.5 183.28,-77.5 183.28,-56.75 269.78,-56.75 269.78,-77.5"/>
<text text-anchor="middle" x="226.53" y="-64" font-family="Helvetica,sans-Serif" font-size="10.00">fl/scoped_ptr.h</text>
</a>
</g>
</g>
<!-- Node3&#45;&gt;Node6 -->
<g id="edge5_Node000003_Node000006" class="edge">
<title>Node3&#45;&gt;Node6</title>
<g id="a_edge5_Node000003_Node000006"><a xlink:title=" ">
<path fill="none" stroke="#63b8ff" d="M226.53,-113.09C226.53,-106.47 226.53,-97.47 226.53,-89.27"/>
<polygon fill="#63b8ff" stroke="#63b8ff" points="230.03,-89.34 226.53,-79.34 223.03,-89.34 230.03,-89.34"/>
</a>
</g>
</g>
<!-- Node7 -->
<g id="Node000007" class="node">
<title>Node7</title>
<g id="a_Node000007"><a xlink:href="../../d8/d0c/template__magic_8h.html" target="_top" xlink:title=" ">
<polygon fill="white" stroke="#666666" points="127.28,-77.5 13.78,-77.5 13.78,-56.75 127.28,-56.75 127.28,-77.5"/>
<text text-anchor="middle" x="70.53" y="-64" font-family="Helvetica,sans-Serif" font-size="10.00">fl/template_magic.h</text>
</a>
</g>
</g>
<!-- Node3&#45;&gt;Node7 -->
<g id="edge8_Node000003_Node000007" class="edge">
<title>Node3&#45;&gt;Node7</title>
<g id="a_edge8_Node000003_Node000007"><a xlink:title=" ">
<path fill="none" stroke="#63b8ff" d="M202.83,-114.56C177.97,-105.83 138.48,-91.98 109.11,-81.67"/>
<polygon fill="#63b8ff" stroke="#63b8ff" points="110.43,-78.42 99.83,-78.41 108.11,-85.02 110.43,-78.42"/>
</a>
</g>
</g>
<!-- Node6&#45;&gt;Node4 -->
<g id="edge6_Node000006_Node000004" class="edge">
<title>Node6&#45;&gt;Node4</title>
<g id="a_edge6_Node000006_Node000004"><a xlink:title=" ">
<path fill="none" stroke="#63b8ff" d="M218.3,-56.34C212.09,-48.94 203.38,-38.57 195.89,-29.66"/>
<polygon fill="#63b8ff" stroke="#63b8ff" points="198.77,-27.64 189.65,-22.24 193.41,-32.15 198.77,-27.64"/>
</a>
</g>
</g>
<!-- Node6&#45;&gt;Node5 -->
<g id="edge7_Node000006_Node000005" class="edge">
<title>Node6&#45;&gt;Node5</title>
<g id="a_edge7_Node000006_Node000005"><a xlink:title=" ">
<path fill="none" stroke="#63b8ff" d="M239.22,-56.34C249.42,-48.47 263.97,-37.25 275.98,-27.99"/>
<polygon fill="#63b8ff" stroke="#63b8ff" points="277.96,-30.88 283.75,-22 273.69,-25.34 277.96,-30.88"/>
</a>
</g>
</g>
<!-- Node7&#45;&gt;Node2 -->
<g id="edge9_Node000007_Node000002" class="edge">
<title>Node7&#45;&gt;Node2</title>
<g id="a_edge9_Node000007_Node000002"><a xlink:title=" ">
<path fill="none" stroke="#63b8ff" d="M63.02,-56.34C57.4,-49.02 49.56,-38.79 42.77,-29.94"/>
<polygon fill="#63b8ff" stroke="#63b8ff" points="45.76,-28.08 36.89,-22.28 40.2,-32.34 45.76,-28.08"/>
</a>
</g>
</g>
<!-- Node7&#45;&gt;Node5 -->
<g id="edge10_Node000007_Node000005" class="edge">
<title>Node7&#45;&gt;Node5</title>
<g id="a_edge10_Node000007_Node000005"><a xlink:title=" ">
<path fill="none" stroke="#63b8ff" d="M111.37,-56.27C148.94,-47.21 204.83,-33.73 245.57,-23.91"/>
<polygon fill="#63b8ff" stroke="#63b8ff" points="246.26,-27.34 255.16,-21.59 244.61,-20.54 246.26,-27.34"/>
</a>
</g>
</g>
<!-- Node8&#45;&gt;Node5 -->
<g id="edge12_Node000008_Node000005" class="edge">
<title>Node8&#45;&gt;Node5</title>
<g id="a_edge12_Node000008_Node000005"><a xlink:title=" ">
<path fill="none" stroke="#63b8ff" d="M309.34,-113.4C311.52,-100.51 314.54,-76.77 311.53,-56.75 310.25,-48.31 307.72,-39.26 305.15,-31.49"/>
<polygon fill="#63b8ff" stroke="#63b8ff" points="308.54,-30.59 301.9,-22.34 301.95,-32.94 308.54,-30.59"/>
</a>
</g>
</g>
</g>
</svg>
