<?xml version="1.0" encoding="UTF-8" standalone="no"?>
<!DOCTYPE svg PUBLIC "-//W3C//DTD SVG 1.1//EN"
 "http://www.w3.org/Graphics/SVG/1.1/DTD/svg11.dtd">
<!-- Generated by graphviz version 12.2.1 (20241206.2353)
 -->
<!-- Title: PixelController::loadAndScaleRGBW Pages: 1 -->
<svg width="677pt" height="288pt"
 viewBox="0.00 0.00 676.50 287.50" xmlns="http://www.w3.org/2000/svg" xmlns:xlink="http://www.w3.org/1999/xlink">
<g id="graph0" class="graph" transform="scale(1 1) rotate(0) translate(4 283.5)">
<title>PixelController::loadAndScaleRGBW</title>
<!-- Node1 -->
<g id="Node000001" class="node">
<title>Node1</title>
<g id="a_Node000001"><a xlink:title=" ">
<polygon fill="#999999" stroke="#666666" points="133,-175.5 0,-175.5 0,-142 133,-142 133,-175.5"/>
<text text-anchor="start" x="8" y="-162" font-family="Helvetica,sans-Serif" font-size="10.00">PixelController::loadAnd</text>
<text text-anchor="middle" x="66.5" y="-149.25" font-family="Helvetica,sans-Serif" font-size="10.00">ScaleRGBW</text>
</a>
</g>
</g>
<!-- Node2 -->
<g id="Node000002" class="node">
<title>Node2</title>
<g id="a_Node000002"><a xlink:href="../../d0/dee/struct_pixel_controller.html#a4afe8b8ec93c89308fe185b1eb164ff6" target="_top" xlink:title="non&#45;template alias of loadAndScale&lt;0&gt;()">
<polygon fill="white" stroke="#666666" points="302,-227.5 169,-227.5 169,-194 302,-194 302,-227.5"/>
<text text-anchor="start" x="177" y="-214" font-family="Helvetica,sans-Serif" font-size="10.00">PixelController::loadAnd</text>
<text text-anchor="middle" x="235.5" y="-201.25" font-family="Helvetica,sans-Serif" font-size="10.00">Scale0</text>
</a>
</g>
</g>
<!-- Node1&#45;&gt;Node2 -->
<g id="edge1_Node000001_Node000002" class="edge">
<title>Node1&#45;&gt;Node2</title>
<g id="a_edge1_Node000001_Node000002"><a xlink:title=" ">
<path fill="none" stroke="#63b8ff" d="M122.64,-175.92C137.25,-180.47 153.16,-185.42 168.29,-190.13"/>
<polygon fill="#63b8ff" stroke="#63b8ff" points="167.09,-193.43 177.68,-193.06 169.18,-186.74 167.09,-193.43"/>
</a>
</g>
</g>
<!-- Node7 -->
<g id="Node000007" class="node">
<title>Node7</title>
<g id="a_Node000007"><a xlink:href="../../d0/dee/struct_pixel_controller.html#ae570967d1b674970cf472feb379f248f" target="_top" xlink:title="non&#45;template alias of loadAndScale&lt;1&gt;()">
<polygon fill="white" stroke="#666666" points="302,-175.5 169,-175.5 169,-142 302,-142 302,-175.5"/>
<text text-anchor="start" x="177" y="-162" font-family="Helvetica,sans-Serif" font-size="10.00">PixelController::loadAnd</text>
<text text-anchor="middle" x="235.5" y="-149.25" font-family="Helvetica,sans-Serif" font-size="10.00">Scale1</text>
</a>
</g>
</g>
<!-- Node1&#45;&gt;Node7 -->
<g id="edge5_Node000001_Node000007" class="edge">
<title>Node1&#45;&gt;Node7</title>
<g id="a_edge5_Node000001_Node000007"><a xlink:title=" ">
<path fill="none" stroke="#63b8ff" d="M133.02,-158.75C140.97,-158.75 149.15,-158.75 157.25,-158.75"/>
<polygon fill="#63b8ff" stroke="#63b8ff" points="157.1,-162.25 167.1,-158.75 157.1,-155.25 157.1,-162.25"/>
</a>
</g>
</g>
<!-- Node8 -->
<g id="Node000008" class="node">
<title>Node8</title>
<g id="a_Node000008"><a xlink:href="../../d0/dee/struct_pixel_controller.html#af5a5f12205a4187aa4df499b8224ed35" target="_top" xlink:title="non&#45;template alias of loadAndScale&lt;2&gt;()">
<polygon fill="white" stroke="#666666" points="302,-279.5 169,-279.5 169,-246 302,-246 302,-279.5"/>
<text text-anchor="start" x="177" y="-266" font-family="Helvetica,sans-Serif" font-size="10.00">PixelController::loadAnd</text>
<text text-anchor="middle" x="235.5" y="-253.25" font-family="Helvetica,sans-Serif" font-size="10.00">Scale2</text>
</a>
</g>
</g>
<!-- Node1&#45;&gt;Node8 -->
<g id="edge7_Node000001_Node000008" class="edge">
<title>Node1&#45;&gt;Node8</title>
<g id="a_edge7_Node000001_Node000008"><a xlink:title=" ">
<path fill="none" stroke="#63b8ff" d="M86.21,-175.7C105.76,-192.78 137.89,-219.08 169,-236.75 171.33,-238.08 173.75,-239.36 176.21,-240.61"/>
<polygon fill="#63b8ff" stroke="#63b8ff" points="174.65,-243.74 185.18,-244.87 177.65,-237.42 174.65,-243.74"/>
</a>
</g>
</g>
<!-- Node9 -->
<g id="Node000009" class="node">
<title>Node9</title>
<g id="a_Node000009"><a xlink:href="../../d7/dbb/rgbw_8h.html#ae9cf94c7bddcd484c4f03b0c69b7770a" target="_top" xlink:title="Converts RGB to RGBW using one of the functions.">
<polygon fill="white" stroke="#666666" points="271.62,-124.12 199.38,-124.12 199.38,-103.38 271.62,-103.38 271.62,-124.12"/>
<text text-anchor="middle" x="235.5" y="-110.62" font-family="Helvetica,sans-Serif" font-size="10.00">rgb_2_rgbw</text>
</a>
</g>
</g>
<!-- Node1&#45;&gt;Node9 -->
<g id="edge9_Node000001_Node000009" class="edge">
<title>Node1&#45;&gt;Node9</title>
<g id="a_edge9_Node000001_Node000009"><a xlink:title=" ">
<path fill="none" stroke="#63b8ff" d="M131.11,-141.61C150.11,-136.49 170.56,-130.98 188.22,-126.22"/>
<polygon fill="#63b8ff" stroke="#63b8ff" points="188.89,-129.67 197.63,-123.68 187.06,-122.91 188.89,-129.67"/>
</a>
</g>
</g>
<!-- Node18 -->
<g id="Node000018" class="node">
<title>Node18</title>
<g id="a_Node000018"><a xlink:href="../../d1/d8d/rgbw_8cpp.html#a8ccb0b40cfa42bb4e4e259c5443e9472" target="_top" xlink:title=" ">
<polygon fill="white" stroke="#666666" points="294.12,-85.12 176.88,-85.12 176.88,-64.38 294.12,-64.38 294.12,-85.12"/>
<text text-anchor="middle" x="235.5" y="-71.62" font-family="Helvetica,sans-Serif" font-size="10.00">rgbw_partial_reorder</text>
</a>
</g>
</g>
<!-- Node1&#45;&gt;Node18 -->
<g id="edge23_Node000001_Node000018" class="edge">
<title>Node1&#45;&gt;Node18</title>
<g id="a_edge23_Node000001_Node000018"><a xlink:title=" ">
<path fill="none" stroke="#63b8ff" d="M90.68,-141.61C110.63,-127.5 140.59,-107.76 169,-94.75 173.26,-92.8 177.75,-90.98 182.32,-89.29"/>
<polygon fill="#63b8ff" stroke="#63b8ff" points="183.26,-92.67 191.57,-86.09 180.97,-86.05 183.26,-92.67"/>
</a>
</g>
</g>
<!-- Node3 -->
<g id="Node000003" class="node">
<title>Node3</title>
<g id="a_Node000003"><a xlink:href="../../d0/dee/struct_pixel_controller.html#a56fc5e5bf305e1760198c0a69ac85ff9" target="_top" xlink:title="Loads, dithers, and scales a single byte for a given output slot, using class dither and scale values...">
<polygon fill="white" stroke="#666666" points="482.25,-240.5 349.25,-240.5 349.25,-207 482.25,-207 482.25,-240.5"/>
<text text-anchor="start" x="357.25" y="-227" font-family="Helvetica,sans-Serif" font-size="10.00">PixelController::loadAnd</text>
<text text-anchor="middle" x="415.75" y="-214.25" font-family="Helvetica,sans-Serif" font-size="10.00">Scale</text>
</a>
</g>
</g>
<!-- Node2&#45;&gt;Node3 -->
<g id="edge2_Node000002_Node000003" class="edge">
<title>Node2&#45;&gt;Node3</title>
<g id="a_edge2_Node000002_Node000003"><a xlink:title=" ">
<path fill="none" stroke="#63b8ff" d="M302.37,-215.55C313.87,-216.39 325.92,-217.27 337.69,-218.13"/>
<polygon fill="#63b8ff" stroke="#63b8ff" points="337.12,-221.6 347.35,-218.83 337.63,-214.62 337.12,-221.6"/>
</a>
</g>
</g>
<!-- Node4 -->
<g id="Node000004" class="node">
<title>Node4</title>
<g id="a_Node000004"><a xlink:href="../../d0/dee/struct_pixel_controller.html#aa2a1b38058a62a4337605425e482202f" target="_top" xlink:title="Calculate a dither value using the per&#45;channel dither data.">
<polygon fill="#fff0f0" stroke="red" points="659.88,-263.12 538.12,-263.12 538.12,-242.38 659.88,-242.38 659.88,-263.12"/>
<text text-anchor="middle" x="599" y="-249.62" font-family="Helvetica,sans-Serif" font-size="10.00">PixelController::dither</text>
</a>
</g>
</g>
<!-- Node3&#45;&gt;Node4 -->
<g id="edge3_Node000003_Node000004" class="edge">
<title>Node3&#45;&gt;Node4</title>
<g id="a_edge3_Node000003_Node000004"><a xlink:title=" ">
<path fill="none" stroke="#63b8ff" d="M482.7,-234.3C497.06,-236.6 512.31,-239.04 526.86,-241.37"/>
<polygon fill="#63b8ff" stroke="#63b8ff" points="525.9,-244.76 536.32,-242.88 527,-237.85 525.9,-244.76"/>
</a>
</g>
</g>
<!-- Node6 -->
<g id="Node000006" class="node">
<title>Node6</title>
<g id="a_Node000006"><a xlink:href="../../d0/dee/struct_pixel_controller.html#a75ef76fbecdc9b39b01eeab216845d9d" target="_top" xlink:title="Read a byte of LED data.">
<polygon fill="white" stroke="#666666" points="667.38,-224.12 530.62,-224.12 530.62,-203.38 667.38,-203.38 667.38,-224.12"/>
<text text-anchor="middle" x="599" y="-210.62" font-family="Helvetica,sans-Serif" font-size="10.00">PixelController::loadByte</text>
</a>
</g>
</g>
<!-- Node3&#45;&gt;Node6 -->
<g id="edge4_Node000003_Node000006" class="edge">
<title>Node3&#45;&gt;Node6</title>
<g id="a_edge4_Node000003_Node000006"><a xlink:title=" ">
<path fill="none" stroke="#63b8ff" d="M482.7,-220.11C494.43,-219.46 506.77,-218.78 518.83,-218.12"/>
<polygon fill="#63b8ff" stroke="#63b8ff" points="518.97,-221.62 528.76,-217.57 518.59,-214.63 518.97,-221.62"/>
</a>
</g>
</g>
<!-- Node7&#45;&gt;Node3 -->
<g id="edge6_Node000007_Node000003" class="edge">
<title>Node7&#45;&gt;Node3</title>
<g id="a_edge6_Node000007_Node000003"><a xlink:title=" ">
<path fill="none" stroke="#63b8ff" d="M280.07,-175.93C297.96,-182.87 318.91,-190.85 338,-197.75 342.67,-199.44 347.5,-201.15 352.38,-202.85"/>
<polygon fill="#63b8ff" stroke="#63b8ff" points="351.02,-206.09 361.62,-206.06 353.31,-199.48 351.02,-206.09"/>
</a>
</g>
</g>
<!-- Node8&#45;&gt;Node3 -->
<g id="edge8_Node000008_Node000003" class="edge">
<title>Node8&#45;&gt;Node3</title>
<g id="a_edge8_Node000008_Node000003"><a xlink:title=" ">
<path fill="none" stroke="#63b8ff" d="M302.37,-248.34C313.87,-245.82 325.92,-243.19 337.69,-240.61"/>
<polygon fill="#63b8ff" stroke="#63b8ff" points="338.36,-244.05 347.38,-238.49 336.86,-237.21 338.36,-244.05"/>
</a>
</g>
</g>
<!-- Node10 -->
<g id="Node000010" class="node">
<title>Node10</title>
<g id="a_Node000010"><a xlink:href="../../d1/d8d/rgbw_8cpp.html#ac22f7204d0501031d2431e7b2f67c25c" target="_top" xlink:title="Converts RGB to RGBW using a color transfer method from saturated color channels to white.">
<polygon fill="white" stroke="#666666" points="468,-111.12 363.5,-111.12 363.5,-90.38 468,-90.38 468,-111.12"/>
<text text-anchor="middle" x="415.75" y="-97.62" font-family="Helvetica,sans-Serif" font-size="10.00">rgb_2_rgbw_exact</text>
</a>
</g>
</g>
<!-- Node9&#45;&gt;Node10 -->
<g id="edge10_Node000009_Node000010" class="edge">
<title>Node9&#45;&gt;Node10</title>
<g id="a_edge10_Node000009_Node000010"><a xlink:title=" ">
<path fill="none" stroke="#63b8ff" d="M271.72,-111.18C294.53,-109.52 324.9,-107.3 351.78,-105.34"/>
<polygon fill="#63b8ff" stroke="#63b8ff" points="351.83,-108.85 361.55,-104.63 351.32,-101.87 351.83,-108.85"/>
</a>
</g>
</g>
<!-- Node13 -->
<g id="Node000013" class="node">
<title>Node13</title>
<g id="a_Node000013"><a xlink:href="../../d1/d8d/rgbw_8cpp.html#a07e94168baddf333cdc5673f28285aa9" target="_top" xlink:title="The minimum brigthness of the RGB channels is used to set the W channel.">
<polygon fill="white" stroke="#666666" points="493.5,-72.12 338,-72.12 338,-51.38 493.5,-51.38 493.5,-72.12"/>
<text text-anchor="middle" x="415.75" y="-58.62" font-family="Helvetica,sans-Serif" font-size="10.00">rgb_2_rgbw_max_brightness</text>
</a>
</g>
</g>
<!-- Node9&#45;&gt;Node13 -->
<g id="edge13_Node000009_Node000013" class="edge">
<title>Node9&#45;&gt;Node13</title>
<g id="a_edge13_Node000009_Node000013"><a xlink:title=" ">
<path fill="none" stroke="#63b8ff" d="M271.9,-103.12C281.67,-100.14 292.26,-96.86 302,-93.75 318.07,-88.62 321.83,-86.55 338,-81.75 345.18,-79.62 352.78,-77.49 360.29,-75.46"/>
<polygon fill="#63b8ff" stroke="#63b8ff" points="360.95,-78.91 369.72,-72.95 359.15,-72.14 360.95,-78.91"/>
</a>
</g>
</g>
<!-- Node14 -->
<g id="Node000014" class="node">
<title>Node14</title>
<g id="a_Node000014"><a xlink:href="../../d1/d8d/rgbw_8cpp.html#a026bfd212bc23d24cf2e8cc5a9ab5b9e" target="_top" xlink:title="Converts RGB to RGBW with the W channel set to black, always.">
<polygon fill="white" stroke="#666666" points="479.62,-33.5 351.88,-33.5 351.88,0 479.62,0 479.62,-33.5"/>
<text text-anchor="start" x="359.88" y="-20" font-family="Helvetica,sans-Serif" font-size="10.00">rgb_2_rgbw_null_white</text>
<text text-anchor="middle" x="415.75" y="-7.25" font-family="Helvetica,sans-Serif" font-size="10.00">_pixel</text>
</a>
</g>
</g>
<!-- Node9&#45;&gt;Node14 -->
<g id="edge16_Node000009_Node000014" class="edge">
<title>Node9&#45;&gt;Node14</title>
<g id="a_edge16_Node000009_Node000014"><a xlink:title=" ">
<path fill="none" stroke="#63b8ff" d="M271.79,-107.54C282.19,-104.55 293.14,-100.16 302,-93.75 324.48,-77.49 315.77,-59.35 338,-42.75 339.55,-41.59 341.15,-40.48 342.8,-39.42"/>
<polygon fill="#63b8ff" stroke="#63b8ff" points="344.36,-42.56 351.35,-34.6 340.92,-36.47 344.36,-42.56"/>
</a>
</g>
</g>
<!-- Node15 -->
<g id="Node000015" class="node">
<title>Node15</title>
<g id="a_Node000015"><a xlink:href="../../d1/d8d/rgbw_8cpp.html#a03a50e79b032a49c951919b9570d18f5" target="_top" xlink:title=" ">
<polygon fill="white" stroke="#666666" points="487.5,-189.12 344,-189.12 344,-168.38 487.5,-168.38 487.5,-189.12"/>
<text text-anchor="middle" x="415.75" y="-175.62" font-family="Helvetica,sans-Serif" font-size="10.00">rgb_2_rgbw_user_function</text>
</a>
</g>
</g>
<!-- Node9&#45;&gt;Node15 -->
<g id="edge18_Node000009_Node000015" class="edge">
<title>Node9&#45;&gt;Node15</title>
<g id="a_edge18_Node000009_Node000015"><a xlink:title=" ">
<path fill="none" stroke="#63b8ff" d="M272,-121.66C281.97,-124.51 292.64,-128.18 302,-132.75 319.74,-141.4 320.15,-150.34 338,-158.75 342.47,-160.85 347.18,-162.76 352,-164.48"/>
<polygon fill="#63b8ff" stroke="#63b8ff" points="350.6,-167.71 361.19,-167.5 352.78,-161.06 350.6,-167.71"/>
</a>
</g>
</g>
<!-- Node16 -->
<g id="Node000016" class="node">
<title>Node16</title>
<g id="a_Node000016"><a xlink:href="../../d1/d8d/rgbw_8cpp.html#aa6e2b44325da0172a48b20940b6e5fdf" target="_top" xlink:title="Converts RGB to RGBW with a boosted white channel.">
<polygon fill="white" stroke="#666666" points="490.12,-150.12 341.38,-150.12 341.38,-129.38 490.12,-129.38 490.12,-150.12"/>
<text text-anchor="middle" x="415.75" y="-136.62" font-family="Helvetica,sans-Serif" font-size="10.00">rgb_2_rgbw_white_boosted</text>
</a>
</g>
</g>
<!-- Node9&#45;&gt;Node16 -->
<g id="edge19_Node000009_Node000016" class="edge">
<title>Node9&#45;&gt;Node16</title>
<g id="a_edge19_Node000009_Node000016"><a xlink:title=" ">
<path fill="none" stroke="#63b8ff" d="M271.72,-118.89C288.41,-121.32 309.14,-124.35 329.6,-127.33"/>
<polygon fill="#63b8ff" stroke="#63b8ff" points="329.01,-130.78 339.41,-128.76 330.02,-123.85 329.01,-130.78"/>
</a>
</g>
</g>
<!-- Node11 -->
<g id="Node000011" class="node">
<title>Node11</title>
<g id="a_Node000011"><a xlink:href="../../d5/d9e/namespaceanonymous__namespace_02rgbw_8cpp_03.html#a81ced55db6e7d50e84ce729e6bf3223d" target="_top" xlink:title=" ">
<polygon fill="white" stroke="#666666" points="666.25,-120.5 531.75,-120.5 531.75,-87 666.25,-87 666.25,-120.5"/>
<text text-anchor="start" x="539.75" y="-107" font-family="Helvetica,sans-Serif" font-size="10.00">anonymous_namespace</text>
<text text-anchor="middle" x="599" y="-94.25" font-family="Helvetica,sans-Serif" font-size="10.00">{rgbw::cpp}::min3</text>
</a>
</g>
</g>
<!-- Node10&#45;&gt;Node11 -->
<g id="edge11_Node000010_Node000011" class="edge">
<title>Node10&#45;&gt;Node11</title>
<g id="a_edge11_Node000010_Node000011"><a xlink:title=" ">
<path fill="none" stroke="#63b8ff" d="M468.2,-101.6C484.34,-101.87 502.54,-102.17 520.08,-102.46"/>
<polygon fill="#63b8ff" stroke="#63b8ff" points="519.92,-105.96 529.98,-102.62 520.04,-98.96 519.92,-105.96"/>
</a>
</g>
</g>
<!-- Node12 -->
<g id="Node000012" class="node">
<title>Node12</title>
<g id="a_Node000012"><a xlink:href="../../d0/da8/group___scaling.html#gad7535ccda9c92470c4e6ee0265585555" target="_top" xlink:title="Scale one byte by a second one, which is treated as the numerator of a fraction whose denominator is ...">
<polygon fill="white" stroke="#666666" points="622.75,-69.12 575.25,-69.12 575.25,-48.38 622.75,-48.38 622.75,-69.12"/>
<text text-anchor="middle" x="599" y="-55.62" font-family="Helvetica,sans-Serif" font-size="10.00">scale8</text>
</a>
</g>
</g>
<!-- Node10&#45;&gt;Node12 -->
<g id="edge12_Node000010_Node000012" class="edge">
<title>Node10&#45;&gt;Node12</title>
<g id="a_edge12_Node000010_Node000012"><a xlink:title=" ">
<path fill="none" stroke="#63b8ff" d="M463.43,-89.93C494.95,-82.63 535.85,-73.15 564.24,-66.57"/>
<polygon fill="#63b8ff" stroke="#63b8ff" points="564.78,-70.04 573.73,-64.37 563.2,-63.22 564.78,-70.04"/>
</a>
</g>
</g>
<!-- Node13&#45;&gt;Node11 -->
<g id="edge14_Node000013_Node000011" class="edge">
<title>Node13&#45;&gt;Node11</title>
<g id="a_edge14_Node000013_Node000011"><a xlink:title=" ">
<path fill="none" stroke="#63b8ff" d="M463.43,-72.57C480.78,-76.59 500.97,-81.27 520.35,-85.76"/>
<polygon fill="#63b8ff" stroke="#63b8ff" points="519.32,-89.11 529.85,-87.96 520.9,-82.29 519.32,-89.11"/>
</a>
</g>
</g>
<!-- Node13&#45;&gt;Node12 -->
<g id="edge15_Node000013_Node000012" class="edge">
<title>Node13&#45;&gt;Node12</title>
<g id="a_edge15_Node000013_Node000012"><a xlink:title=" ">
<path fill="none" stroke="#63b8ff" d="M493.88,-60.47C518.14,-60.07 543.71,-59.65 563.44,-59.32"/>
<polygon fill="#63b8ff" stroke="#63b8ff" points="563.46,-62.82 573.4,-59.16 563.34,-55.82 563.46,-62.82"/>
</a>
</g>
</g>
<!-- Node14&#45;&gt;Node12 -->
<g id="edge17_Node000014_Node000012" class="edge">
<title>Node14&#45;&gt;Node12</title>
<g id="a_edge17_Node000014_Node000012"><a xlink:title=" ">
<path fill="none" stroke="#63b8ff" d="M479.89,-31.38C508.03,-37.9 540.08,-45.33 563.68,-50.8"/>
<polygon fill="#63b8ff" stroke="#63b8ff" points="562.86,-54.2 573.39,-53.05 564.44,-47.38 562.86,-54.2"/>
</a>
</g>
</g>
<!-- Node16&#45;&gt;Node11 -->
<g id="edge21_Node000016_Node000011" class="edge">
<title>Node16&#45;&gt;Node11</title>
<g id="a_edge21_Node000016_Node000011"><a xlink:title=" ">
<path fill="none" stroke="#63b8ff" d="M471.13,-128.95C486.7,-125.86 503.97,-122.43 520.64,-119.12"/>
<polygon fill="#63b8ff" stroke="#63b8ff" points="520.87,-122.64 529.99,-117.26 519.5,-115.77 520.87,-122.64"/>
</a>
</g>
</g>
<!-- Node16&#45;&gt;Node12 -->
<g id="edge22_Node000016_Node000012" class="edge">
<title>Node16&#45;&gt;Node12</title>
<g id="a_edge22_Node000016_Node000012"><a xlink:title=" ">
<path fill="none" stroke="#63b8ff" d="M474.12,-128.97C480.92,-126.5 487.54,-123.47 493.5,-119.75 514.35,-106.72 508.75,-90.94 529.5,-77.75 539.81,-71.19 552.39,-66.87 563.94,-64.03"/>
<polygon fill="#63b8ff" stroke="#63b8ff" points="564.51,-67.49 573.55,-61.97 563.04,-60.64 564.51,-67.49"/>
</a>
</g>
</g>
<!-- Node17 -->
<g id="Node000017" class="node">
<title>Node17</title>
<g id="a_Node000017"><a xlink:href="../../d5/d9e/namespaceanonymous__namespace_02rgbw_8cpp_03.html#aa548790ff732b63dd9564ca586f07015" target="_top" xlink:title=" ">
<polygon fill="white" stroke="#666666" points="668.5,-172.5 529.5,-172.5 529.5,-139 668.5,-139 668.5,-172.5"/>
<text text-anchor="start" x="537.5" y="-159" font-family="Helvetica,sans-Serif" font-size="10.00">anonymous_namespace</text>
<text text-anchor="middle" x="599" y="-146.25" font-family="Helvetica,sans-Serif" font-size="10.00">{rgbw::cpp}::divide_by_3</text>
</a>
</g>
</g>
<!-- Node16&#45;&gt;Node17 -->
<g id="edge20_Node000016_Node000017" class="edge">
<title>Node16&#45;&gt;Node17</title>
<g id="a_edge20_Node000016_Node000017"><a xlink:title=" ">
<path fill="none" stroke="#63b8ff" d="M490.47,-146.26C499.43,-147.05 508.62,-147.86 517.67,-148.66"/>
<polygon fill="#63b8ff" stroke="#63b8ff" points="517.25,-152.14 527.52,-149.53 517.86,-145.16 517.25,-152.14"/>
</a>
</g>
</g>
</g>
</svg>
