<?xml version="1.0" encoding="UTF-8" standalone="no"?>
<!DOCTYPE svg PUBLIC "-//W3C//DTD SVG 1.1//EN"
 "http://www.w3.org/Graphics/SVG/1.1/DTD/svg11.dtd">
<!-- Generated by graphviz version 12.2.1 (20241206.2353)
 -->
<!-- Title: PixelController::getscale Pages: 1 -->
<svg width="320pt" height="107pt"
 viewBox="0.00 0.00 319.75 106.75" xmlns="http://www.w3.org/2000/svg" xmlns:xlink="http://www.w3.org/1999/xlink">
<g id="graph0" class="graph" transform="scale(1 1) rotate(0) translate(4 102.75)">
<title>PixelController::getscale</title>
<!-- Node1 -->
<g id="Node000001" class="node">
<title>Node1</title>
<g id="a_Node000001"><a xlink:title="Gets the scale data for the provided output slot.">
<polygon fill="#999999" stroke="#666666" points="311.75,-59.75 177.25,-59.75 177.25,-39 311.75,-39 311.75,-59.75"/>
<text text-anchor="middle" x="244.5" y="-46.25" font-family="Helvetica,sans-Serif" font-size="10.00">PixelController::getscale</text>
</a>
</g>
</g>
<!-- Node2 -->
<g id="Node000002" class="node">
<title>Node2</title>
<g id="a_Node000002"><a xlink:href="../../d0/dee/struct_pixel_controller.html#a320fa30e08b30b14bf81dfde27c5b971" target="_top" xlink:title="non&#45;template alias of getscale&lt;0&gt;()">
<polygon fill="white" stroke="#666666" points="141.25,-98.75 0,-98.75 0,-78 141.25,-78 141.25,-98.75"/>
<text text-anchor="middle" x="70.62" y="-85.25" font-family="Helvetica,sans-Serif" font-size="10.00">PixelController::getScale0</text>
</a>
</g>
</g>
<!-- Node1&#45;&gt;Node2 -->
<g id="edge1_Node000001_Node000002" class="edge">
<title>Node1&#45;&gt;Node2</title>
<g id="a_edge1_Node000001_Node000002"><a xlink:title=" ">
<path fill="none" stroke="#63b8ff" d="M184.47,-62.77C163.28,-67.58 139.67,-72.93 119.54,-77.5"/>
<polygon fill="#63b8ff" stroke="#63b8ff" points="185.17,-66.2 194.15,-60.57 183.62,-59.37 185.17,-66.2"/>
</a>
</g>
</g>
<!-- Node3 -->
<g id="Node000003" class="node">
<title>Node3</title>
<g id="a_Node000003"><a xlink:href="../../d0/dee/struct_pixel_controller.html#aec2cbf1845d2343e2e7b840f36d0bbe7" target="_top" xlink:title="non&#45;template alias of getscale&lt;1&gt;()">
<polygon fill="white" stroke="#666666" points="141.25,-59.75 0,-59.75 0,-39 141.25,-39 141.25,-59.75"/>
<text text-anchor="middle" x="70.62" y="-46.25" font-family="Helvetica,sans-Serif" font-size="10.00">PixelController::getScale1</text>
</a>
</g>
</g>
<!-- Node1&#45;&gt;Node3 -->
<g id="edge2_Node000001_Node000003" class="edge">
<title>Node1&#45;&gt;Node3</title>
<g id="a_edge2_Node000001_Node000003"><a xlink:title=" ">
<path fill="none" stroke="#63b8ff" d="M165.76,-49.38C157.71,-49.38 149.56,-49.38 141.6,-49.38"/>
<polygon fill="#63b8ff" stroke="#63b8ff" points="165.54,-52.88 175.54,-49.38 165.54,-45.88 165.54,-52.88"/>
</a>
</g>
</g>
<!-- Node4 -->
<g id="Node000004" class="node">
<title>Node4</title>
<g id="a_Node000004"><a xlink:href="../../d0/dee/struct_pixel_controller.html#a6ac29f180ad5429301cb6e3ac3966616" target="_top" xlink:title="non&#45;template alias of getscale&lt;2&gt;()">
<polygon fill="white" stroke="#666666" points="141.25,-20.75 0,-20.75 0,0 141.25,0 141.25,-20.75"/>
<text text-anchor="middle" x="70.62" y="-7.25" font-family="Helvetica,sans-Serif" font-size="10.00">PixelController::getScale2</text>
</a>
</g>
</g>
<!-- Node1&#45;&gt;Node4 -->
<g id="edge3_Node000001_Node000004" class="edge">
<title>Node1&#45;&gt;Node4</title>
<g id="a_edge3_Node000001_Node000004"><a xlink:title=" ">
<path fill="none" stroke="#63b8ff" d="M184.47,-35.98C163.28,-31.17 139.67,-25.82 119.54,-21.25"/>
<polygon fill="#63b8ff" stroke="#63b8ff" points="183.62,-39.38 194.15,-38.18 185.17,-32.55 183.62,-39.38"/>
</a>
</g>
</g>
</g>
</svg>
