<?xml version="1.0" encoding="UTF-8" standalone="no"?>
<!DOCTYPE svg PUBLIC "-//W3C//DTD SVG 1.1//EN"
 "http://www.w3.org/Graphics/SVG/1.1/DTD/svg11.dtd">
<!-- Generated by graphviz version 12.2.1 (20241206.2353)
 -->
<!-- Title: PixelController::loadAndScale0 Pages: 1 -->
<svg width="699pt" height="135pt"
 viewBox="0.00 0.00 699.00 134.50" xmlns="http://www.w3.org/2000/svg" xmlns:xlink="http://www.w3.org/1999/xlink">
<g id="graph0" class="graph" transform="scale(1 1) rotate(0) translate(4 130.5)">
<title>PixelController::loadAndScale0</title>
<!-- Node1 -->
<g id="Node000001" class="node">
<title>Node1</title>
<g id="a_Node000001"><a xlink:title="non&#45;template alias of loadAndScale&lt;0&gt;()">
<polygon fill="#999999" stroke="#666666" points="691,-59.5 558,-59.5 558,-26 691,-26 691,-59.5"/>
<text text-anchor="start" x="566" y="-46" font-family="Helvetica,sans-Serif" font-size="10.00">PixelController::loadAnd</text>
<text text-anchor="middle" x="624.5" y="-33.25" font-family="Helvetica,sans-Serif" font-size="10.00">Scale0</text>
</a>
</g>
</g>
<!-- Node2 -->
<g id="Node000002" class="node">
<title>Node2</title>
<g id="a_Node000002"><a xlink:href="../../d0/dee/struct_pixel_controller.html#a3c10f0dd3838aa2b18d28a20393c9333" target="_top" xlink:title=" ">
<polygon fill="white" stroke="#666666" points="522,-85.5 389,-85.5 389,-52 522,-52 522,-85.5"/>
<text text-anchor="start" x="397" y="-72" font-family="Helvetica,sans-Serif" font-size="10.00">PixelController::loadAnd</text>
<text text-anchor="middle" x="455.5" y="-59.25" font-family="Helvetica,sans-Serif" font-size="10.00">ScaleRGB</text>
</a>
</g>
</g>
<!-- Node1&#45;&gt;Node2 -->
<g id="edge1_Node000001_Node000002" class="edge">
<title>Node1&#45;&gt;Node2</title>
<g id="a_edge1_Node000001_Node000002"><a xlink:title=" ">
<path fill="none" stroke="#63b8ff" d="M546.62,-54.72C538.52,-55.98 530.34,-57.25 522.38,-58.49"/>
<polygon fill="#63b8ff" stroke="#63b8ff" points="547.14,-58.18 556.48,-53.18 546.06,-51.26 547.14,-58.18"/>
</a>
</g>
</g>
<!-- Node6 -->
<g id="Node000006" class="node">
<title>Node6</title>
<g id="a_Node000006"><a xlink:href="../../d0/dee/struct_pixel_controller.html#aa75c347910343e54b608faf4f4a002bd" target="_top" xlink:title=" ">
<polygon fill="white" stroke="#666666" points="522,-33.5 389,-33.5 389,0 522,0 522,-33.5"/>
<text text-anchor="start" x="397" y="-20" font-family="Helvetica,sans-Serif" font-size="10.00">PixelController::loadAnd</text>
<text text-anchor="middle" x="455.5" y="-7.25" font-family="Helvetica,sans-Serif" font-size="10.00">ScaleRGBW</text>
</a>
</g>
</g>
<!-- Node1&#45;&gt;Node6 -->
<g id="edge5_Node000001_Node000006" class="edge">
<title>Node1&#45;&gt;Node6</title>
<g id="a_edge5_Node000001_Node000006"><a xlink:title=" ">
<path fill="none" stroke="#63b8ff" d="M546.62,-30.78C538.52,-29.52 530.34,-28.25 522.38,-27.01"/>
<polygon fill="#63b8ff" stroke="#63b8ff" points="546.06,-34.24 556.48,-32.32 547.14,-27.32 546.06,-34.24"/>
</a>
</g>
</g>
<!-- Node3 -->
<g id="Node000003" class="node">
<title>Node3</title>
<g id="a_Node000003"><a xlink:href="../../df/d0d/group___clocked_chipsets.html#a299c89c516c1c32935e75f492137d872" target="_top" xlink:title=" ">
<polygon fill="white" stroke="#666666" points="353,-126.5 196.75,-126.5 196.75,-93 353,-93 353,-126.5"/>
<text text-anchor="start" x="204.75" y="-113" font-family="Helvetica,sans-Serif" font-size="10.00">APA102Controller::getGlobal</text>
<text text-anchor="middle" x="274.88" y="-100.25" font-family="Helvetica,sans-Serif" font-size="10.00">BrightnessAndScalingFactors</text>
</a>
</g>
</g>
<!-- Node2&#45;&gt;Node3 -->
<g id="edge2_Node000002_Node000003" class="edge">
<title>Node2&#45;&gt;Node3</title>
<g id="a_edge2_Node000002_Node000003"><a xlink:title=" ">
<path fill="none" stroke="#63b8ff" d="M377.62,-86.4C368.74,-88.43 359.69,-90.51 350.84,-92.54"/>
<polygon fill="#63b8ff" stroke="#63b8ff" points="378.31,-89.83 387.27,-84.18 376.74,-83.01 378.31,-89.83"/>
</a>
</g>
</g>
<!-- Node4 -->
<g id="Node000004" class="node">
<title>Node4</title>
<g id="a_Node000004"><a xlink:href="../../df/d0d/group___clocked_chipsets.html#a632117bec47c6b4ba7e3ed1703478a42" target="_top" xlink:title=" ">
<polygon fill="#fff0f0" stroke="red" points="160.75,-103.5 0,-103.5 0,-70 160.75,-70 160.75,-103.5"/>
<text text-anchor="start" x="8" y="-90" font-family="Helvetica,sans-Serif" font-size="10.00">APA102Controller::showPixels</text>
<text text-anchor="middle" x="80.38" y="-77.25" font-family="Helvetica,sans-Serif" font-size="10.00">Default</text>
</a>
</g>
</g>
<!-- Node2&#45;&gt;Node4 -->
<g id="edge4_Node000002_Node000004" class="edge">
<title>Node2&#45;&gt;Node4</title>
<g id="a_edge4_Node000002_Node000004"><a xlink:title=" ">
<path fill="none" stroke="#63b8ff" d="M377.17,-72.48C313.98,-75.53 224.99,-79.82 161.15,-82.9"/>
<polygon fill="#63b8ff" stroke="#63b8ff" points="377.32,-75.98 387.14,-72 376.98,-68.99 377.32,-75.98"/>
</a>
</g>
</g>
<!-- Node3&#45;&gt;Node4 -->
<g id="edge3_Node000003_Node000004" class="edge">
<title>Node3&#45;&gt;Node4</title>
<g id="a_edge3_Node000003_Node000004"><a xlink:title=" ">
<path fill="none" stroke="#63b8ff" d="M185.17,-99.15C177.18,-98.2 169.11,-97.23 161.19,-96.29"/>
<polygon fill="#63b8ff" stroke="#63b8ff" points="184.56,-102.6 194.91,-100.31 185.39,-95.65 184.56,-102.6"/>
</a>
</g>
</g>
<!-- Node7 -->
<g id="Node000007" class="node">
<title>Node7</title>
<g id="a_Node000007"><a xlink:href="../../d4/d28/group___chipsets.html#aba9a2f023f2950dbcdf3c2482f765350" target="_top" xlink:title="Send the LED data to the strip.">
<polygon fill="white" stroke="#666666" points="345.5,-33.5 204.25,-33.5 204.25,0 345.5,0 345.5,-33.5"/>
<text text-anchor="start" x="212.25" y="-20" font-family="Helvetica,sans-Serif" font-size="10.00">RGBWEmulatedController</text>
<text text-anchor="middle" x="274.88" y="-7.25" font-family="Helvetica,sans-Serif" font-size="10.00">::showPixels</text>
</a>
</g>
</g>
<!-- Node6&#45;&gt;Node7 -->
<g id="edge6_Node000006_Node000007" class="edge">
<title>Node6&#45;&gt;Node7</title>
<g id="a_edge6_Node000006_Node000007"><a xlink:title=" ">
<path fill="none" stroke="#63b8ff" d="M377.5,-16.75C367.03,-16.75 356.33,-16.75 345.99,-16.75"/>
<polygon fill="#63b8ff" stroke="#63b8ff" points="377.23,-20.25 387.23,-16.75 377.23,-13.25 377.23,-20.25"/>
</a>
</g>
</g>
</g>
</svg>
