<?xml version="1.0" encoding="UTF-8" standalone="no"?>
<!DOCTYPE svg PUBLIC "-//W3C//DTD SVG 1.1//EN"
 "http://www.w3.org/Graphics/SVG/1.1/DTD/svg11.dtd">
<!-- Generated by graphviz version 12.2.1 (20241206.2353)
 -->
<!-- Title: PixelController::advanceAndLoadAndScale Pages: 1 -->
<svg width="591pt" height="93pt"
 viewBox="0.00 0.00 591.00 92.75" xmlns="http://www.w3.org/2000/svg" xmlns:xlink="http://www.w3.org/1999/xlink">
<g id="graph0" class="graph" transform="scale(1 1) rotate(0) translate(4 88.75)">
<title>PixelController::advanceAndLoadAndScale</title>
<!-- Node1 -->
<g id="Node000001" class="node">
<title>Node1</title>
<g id="a_Node000001"><a xlink:title="A version of loadAndScale() that advances the output data pointer without dithering.">
<polygon fill="#999999" stroke="#666666" points="134.5,-68.12 0,-68.12 0,-34.62 134.5,-34.62 134.5,-68.12"/>
<text text-anchor="start" x="8" y="-54.62" font-family="Helvetica,sans-Serif" font-size="10.00">PixelController::advance</text>
<text text-anchor="middle" x="67.25" y="-41.88" font-family="Helvetica,sans-Serif" font-size="10.00">AndLoadAndScale</text>
</a>
</g>
</g>
<!-- Node2 -->
<g id="Node000002" class="node">
<title>Node2</title>
<g id="a_Node000002"><a xlink:href="../../d0/dee/struct_pixel_controller.html#ab44f62f166d162bd1e3b095b368feef2" target="_top" xlink:title="Advance the data pointer forward, adjust position counter.">
<polygon fill="white" stroke="#666666" points="328.25,-84.75 170.5,-84.75 170.5,-64 328.25,-64 328.25,-84.75"/>
<text text-anchor="middle" x="249.38" y="-71.25" font-family="Helvetica,sans-Serif" font-size="10.00">PixelController::advanceData</text>
</a>
</g>
</g>
<!-- Node1&#45;&gt;Node2 -->
<g id="edge1_Node000001_Node000002" class="edge">
<title>Node1&#45;&gt;Node2</title>
<g id="a_edge1_Node000001_Node000002"><a xlink:title=" ">
<path fill="none" stroke="#63b8ff" d="M134.81,-59.87C142.64,-60.87 150.73,-61.91 158.81,-62.94"/>
<polygon fill="#63b8ff" stroke="#63b8ff" points="158.35,-66.41 168.71,-64.2 159.23,-59.46 158.35,-66.41"/>
</a>
</g>
</g>
<!-- Node3 -->
<g id="Node000003" class="node">
<title>Node3</title>
<g id="a_Node000003"><a xlink:href="../../d0/dee/struct_pixel_controller.html#a56fc5e5bf305e1760198c0a69ac85ff9" target="_top" xlink:title="Loads, dithers, and scales a single byte for a given output slot, using class dither and scale values...">
<polygon fill="white" stroke="#666666" points="315.88,-46.12 182.88,-46.12 182.88,-12.62 315.88,-12.62 315.88,-46.12"/>
<text text-anchor="start" x="190.88" y="-32.62" font-family="Helvetica,sans-Serif" font-size="10.00">PixelController::loadAnd</text>
<text text-anchor="middle" x="249.38" y="-19.88" font-family="Helvetica,sans-Serif" font-size="10.00">Scale</text>
</a>
</g>
</g>
<!-- Node1&#45;&gt;Node3 -->
<g id="edge2_Node000001_Node000003" class="edge">
<title>Node1&#45;&gt;Node3</title>
<g id="a_edge2_Node000001_Node000003"><a xlink:title=" ">
<path fill="none" stroke="#63b8ff" d="M134.81,-43.25C146.58,-41.81 158.93,-40.3 170.97,-38.83"/>
<polygon fill="#63b8ff" stroke="#63b8ff" points="171.38,-42.3 180.89,-37.62 170.54,-35.36 171.38,-42.3"/>
</a>
</g>
</g>
<!-- Node4 -->
<g id="Node000004" class="node">
<title>Node4</title>
<g id="a_Node000004"><a xlink:href="../../d0/dee/struct_pixel_controller.html#aa2a1b38058a62a4337605425e482202f" target="_top" xlink:title="Calculate a dither value using the per&#45;channel dither data.">
<polygon fill="white" stroke="#666666" points="493.5,-59.75 371.75,-59.75 371.75,-39 493.5,-39 493.5,-59.75"/>
<text text-anchor="middle" x="432.62" y="-46.25" font-family="Helvetica,sans-Serif" font-size="10.00">PixelController::dither</text>
</a>
</g>
</g>
<!-- Node3&#45;&gt;Node4 -->
<g id="edge3_Node000003_Node000004" class="edge">
<title>Node3&#45;&gt;Node4</title>
<g id="a_edge3_Node000003_Node000004"><a xlink:title=" ">
<path fill="none" stroke="#63b8ff" d="M316.32,-36.65C330.54,-38.22 345.63,-39.89 360.05,-41.48"/>
<polygon fill="#63b8ff" stroke="#63b8ff" points="359.61,-44.95 369.94,-42.57 360.38,-37.99 359.61,-44.95"/>
</a>
</g>
</g>
<!-- Node6 -->
<g id="Node000006" class="node">
<title>Node6</title>
<g id="a_Node000006"><a xlink:href="../../d0/dee/struct_pixel_controller.html#a75ef76fbecdc9b39b01eeab216845d9d" target="_top" xlink:title="Read a byte of LED data.">
<polygon fill="white" stroke="#666666" points="501,-20.75 364.25,-20.75 364.25,0 501,0 501,-20.75"/>
<text text-anchor="middle" x="432.62" y="-7.25" font-family="Helvetica,sans-Serif" font-size="10.00">PixelController::loadByte</text>
</a>
</g>
</g>
<!-- Node3&#45;&gt;Node6 -->
<g id="edge5_Node000003_Node000006" class="edge">
<title>Node3&#45;&gt;Node6</title>
<g id="a_edge5_Node000003_Node000006"><a xlink:title=" ">
<path fill="none" stroke="#63b8ff" d="M316.32,-22.46C328.06,-21.23 340.39,-19.94 352.45,-18.67"/>
<polygon fill="#63b8ff" stroke="#63b8ff" points="352.81,-22.16 362.39,-17.63 352.08,-15.19 352.81,-22.16"/>
</a>
</g>
</g>
<!-- Node5 -->
<g id="Node000005" class="node">
<title>Node5</title>
<g id="a_Node000005"><a xlink:href="../../d5/d98/group___math.html#ga07133b3085824d0fcd4f5086d286c4b5" target="_top" xlink:title="Add one byte to another, saturating at 0xFF.">
<polygon fill="white" stroke="#666666" points="583,-59.75 537,-59.75 537,-39 583,-39 583,-59.75"/>
<text text-anchor="middle" x="560" y="-46.25" font-family="Helvetica,sans-Serif" font-size="10.00">qadd8</text>
</a>
</g>
</g>
<!-- Node4&#45;&gt;Node5 -->
<g id="edge4_Node000004_Node000005" class="edge">
<title>Node4&#45;&gt;Node5</title>
<g id="a_edge4_Node000004_Node000005"><a xlink:title=" ">
<path fill="none" stroke="#63b8ff" d="M493.74,-49.38C504.64,-49.38 515.65,-49.38 525.44,-49.38"/>
<polygon fill="#63b8ff" stroke="#63b8ff" points="525.17,-52.88 535.17,-49.38 525.17,-45.88 525.17,-52.88"/>
</a>
</g>
</g>
</g>
</svg>
