<?xml version="1.0" encoding="UTF-8" standalone="no"?>
<!DOCTYPE svg PUBLIC "-//W3C//DTD SVG 1.1//EN"
 "http://www.w3.org/Graphics/SVG/1.1/DTD/svg11.dtd">
<!-- Generated by graphviz version 12.2.1 (20241206.2353)
 -->
<!-- Title: PixelController::copy Pages: 1 -->
<svg width="325pt" height="68pt"
 viewBox="0.00 0.00 325.00 67.75" xmlns="http://www.w3.org/2000/svg" xmlns:xlink="http://www.w3.org/1999/xlink">
<g id="graph0" class="graph" transform="scale(1 1) rotate(0) translate(4 63.75)">
<title>PixelController::copy</title>
<!-- Node1 -->
<g id="Node000001" class="node">
<title>Node1</title>
<g id="a_Node000001"><a xlink:title=" ">
<polygon fill="#999999" stroke="#666666" points="317,-39.75 200.5,-39.75 200.5,-19 317,-19 317,-39.75"/>
<text text-anchor="middle" x="258.75" y="-26.25" font-family="Helvetica,sans-Serif" font-size="10.00">PixelController::copy</text>
</a>
</g>
</g>
<!-- Node2 -->
<g id="Node000002" class="node">
<title>Node2</title>
<g id="a_Node000002"><a xlink:href="../../d0/dee/struct_pixel_controller.html#ae44229e20fb4ba4473b057dcda87122e" target="_top" xlink:title="Copy constructor.">
<polygon fill="white" stroke="#666666" points="164.5,-59.75 0,-59.75 0,-39 164.5,-39 164.5,-59.75"/>
<text text-anchor="middle" x="82.25" y="-46.25" font-family="Helvetica,sans-Serif" font-size="10.00">PixelController::PixelController</text>
</a>
</g>
</g>
<!-- Node1&#45;&gt;Node2 -->
<g id="edge1_Node000001_Node000002" class="edge">
<title>Node1&#45;&gt;Node2</title>
<g id="a_edge1_Node000001_Node000002"><a xlink:title=" ">
<path fill="none" stroke="#63b8ff" d="M188.78,-37.28C180.9,-38.18 172.83,-39.11 164.81,-40.03"/>
<polygon fill="#63b8ff" stroke="#63b8ff" points="189.09,-40.77 198.62,-36.15 188.29,-33.81 189.09,-40.77"/>
</a>
</g>
</g>
<!-- Node3 -->
<g id="Node000003" class="node">
<title>Node3</title>
<g id="a_Node000003"><a xlink:href="../../d0/dee/struct_pixel_controller.html#a648b1b6c35c0b90bac6e2baaba46f729" target="_top" xlink:title=" ">
<polygon fill="white" stroke="#666666" points="164.5,-20.75 0,-20.75 0,0 164.5,0 164.5,-20.75"/>
<text text-anchor="middle" x="82.25" y="-7.25" font-family="Helvetica,sans-Serif" font-size="10.00">PixelController::PixelController</text>
</a>
</g>
</g>
<!-- Node1&#45;&gt;Node3 -->
<g id="edge2_Node000001_Node000003" class="edge">
<title>Node1&#45;&gt;Node3</title>
<g id="a_edge2_Node000001_Node000003"><a xlink:title=" ">
<path fill="none" stroke="#63b8ff" d="M188.78,-21.86C180.9,-21.01 172.83,-20.13 164.81,-19.26"/>
<polygon fill="#63b8ff" stroke="#63b8ff" points="188.3,-25.33 198.62,-22.94 189.06,-18.38 188.3,-25.33"/>
</a>
</g>
</g>
</g>
</svg>
