<?xml version="1.0" encoding="UTF-8" standalone="no"?>
<!DOCTYPE svg PUBLIC "-//W3C//DTD SVG 1.1//EN"
 "http://www.w3.org/Graphics/SVG/1.1/DTD/svg11.dtd">
<!-- Generated by graphviz version 12.2.1 (20241206.2353)
 -->
<!-- Title: PixelController::PixelController Pages: 1 -->
<svg width="593pt" height="119pt"
 viewBox="0.00 0.00 593.25 118.75" xmlns="http://www.w3.org/2000/svg" xmlns:xlink="http://www.w3.org/1999/xlink">
<g id="graph0" class="graph" transform="scale(1 1) rotate(0) translate(4 114.75)">
<title>PixelController::PixelController</title>
<!-- Node1 -->
<g id="Node000001" class="node">
<title>Node1</title>
<g id="a_Node000001"><a xlink:title="Constructor.">
<polygon fill="#999999" stroke="#666666" points="164.5,-65.75 0,-65.75 0,-45 164.5,-45 164.5,-65.75"/>
<text text-anchor="middle" x="82.25" y="-52.25" font-family="Helvetica,sans-Serif" font-size="10.00">PixelController::PixelController</text>
</a>
</g>
</g>
<!-- Node2 -->
<g id="Node000002" class="node">
<title>Node2</title>
<g id="a_Node000002"><a xlink:href="../../d0/dee/struct_pixel_controller.html#aa2a1b38058a62a4337605425e482202f" target="_top" xlink:title="Calculate a dither value using the per&#45;channel dither data.">
<polygon fill="white" stroke="#666666" points="501.75,-110.75 380,-110.75 380,-90 501.75,-90 501.75,-110.75"/>
<text text-anchor="middle" x="440.88" y="-97.25" font-family="Helvetica,sans-Serif" font-size="10.00">PixelController::dither</text>
</a>
</g>
</g>
<!-- Node1&#45;&gt;Node2 -->
<g id="edge1_Node000001_Node000002" class="edge">
<title>Node1&#45;&gt;Node2</title>
<g id="a_edge1_Node000001_Node000002"><a xlink:title=" ">
<path fill="none" stroke="#63b8ff" d="M125.32,-66.19C147.54,-71.52 175.34,-77.61 200.5,-81.38 256.49,-89.76 320.44,-94.6 368.15,-97.29"/>
<polygon fill="#63b8ff" stroke="#63b8ff" points="367.92,-100.78 378.09,-97.83 368.3,-93.79 367.92,-100.78"/>
</a>
</g>
</g>
<!-- Node4 -->
<g id="Node000004" class="node">
<title>Node4</title>
<g id="a_Node000004"><a xlink:href="../../d0/dee/struct_pixel_controller.html#aa86847022436988b28343a76bab0db4c" target="_top" xlink:title="Toggle dithering enable If dithering is set to enabled, this will re&#45;init the dithering values (init_...">
<polygon fill="white" stroke="#666666" points="335.38,-72.12 209.12,-72.12 209.12,-38.62 335.38,-38.62 335.38,-72.12"/>
<text text-anchor="start" x="217.12" y="-58.62" font-family="Helvetica,sans-Serif" font-size="10.00">PixelController::enable</text>
<text text-anchor="middle" x="272.25" y="-45.88" font-family="Helvetica,sans-Serif" font-size="10.00">_dithering</text>
</a>
</g>
</g>
<!-- Node1&#45;&gt;Node4 -->
<g id="edge3_Node000001_Node000004" class="edge">
<title>Node1&#45;&gt;Node4</title>
<g id="a_edge3_Node000001_Node000004"><a xlink:title=" ">
<path fill="none" stroke="#63b8ff" d="M164.89,-55.38C175.66,-55.38 186.65,-55.38 197.28,-55.38"/>
<polygon fill="#63b8ff" stroke="#63b8ff" points="197.14,-58.88 207.14,-55.38 197.14,-51.88 197.14,-58.88"/>
</a>
</g>
</g>
<!-- Node7 -->
<g id="Node000007" class="node">
<title>Node7</title>
<g id="a_Node000007"><a xlink:href="../../d0/dee/struct_pixel_controller.html#a358944f031ee8b8536d2f48ca670de77" target="_top" xlink:title="Initialize the PixelController::mOffsets array based on the length of the strip.">
<polygon fill="white" stroke="#666666" points="344,-20.75 200.5,-20.75 200.5,0 344,0 344,-20.75"/>
<text text-anchor="middle" x="272.25" y="-7.25" font-family="Helvetica,sans-Serif" font-size="10.00">PixelController::initOffsets</text>
</a>
</g>
</g>
<!-- Node1&#45;&gt;Node7 -->
<g id="edge7_Node000001_Node000007" class="edge">
<title>Node1&#45;&gt;Node7</title>
<g id="a_edge7_Node000001_Node000007"><a xlink:title=" ">
<path fill="none" stroke="#63b8ff" d="M128.28,-44.6C154.25,-38.38 187.14,-30.51 214.82,-23.88"/>
<polygon fill="#63b8ff" stroke="#63b8ff" points="215.55,-27.31 224.46,-21.57 213.92,-20.5 215.55,-27.31"/>
</a>
</g>
</g>
<!-- Node3 -->
<g id="Node000003" class="node">
<title>Node3</title>
<g id="a_Node000003"><a xlink:href="../../d5/d98/group___math.html#ga07133b3085824d0fcd4f5086d286c4b5" target="_top" xlink:title="Add one byte to another, saturating at 0xFF.">
<polygon fill="white" stroke="#666666" points="584.5,-110.75 538.5,-110.75 538.5,-90 584.5,-90 584.5,-110.75"/>
<text text-anchor="middle" x="561.5" y="-97.25" font-family="Helvetica,sans-Serif" font-size="10.00">qadd8</text>
</a>
</g>
</g>
<!-- Node2&#45;&gt;Node3 -->
<g id="edge2_Node000002_Node000003" class="edge">
<title>Node2&#45;&gt;Node3</title>
<g id="a_edge2_Node000002_Node000003"><a xlink:title=" ">
<path fill="none" stroke="#63b8ff" d="M502.23,-100.38C510.64,-100.38 519.03,-100.38 526.71,-100.38"/>
<polygon fill="#63b8ff" stroke="#63b8ff" points="526.59,-103.88 536.59,-100.38 526.59,-96.88 526.59,-103.88"/>
</a>
</g>
</g>
<!-- Node4&#45;&gt;Node2 -->
<g id="edge4_Node000004_Node000002" class="edge">
<title>Node4&#45;&gt;Node2</title>
<g id="a_edge4_Node000004_Node000002"><a xlink:title=" ">
<path fill="none" stroke="#63b8ff" d="M335.77,-72.26C353.34,-77.01 372.24,-82.11 389.04,-86.65"/>
<polygon fill="#63b8ff" stroke="#63b8ff" points="387.72,-89.91 398.28,-89.14 389.54,-83.16 387.72,-89.91"/>
</a>
</g>
</g>
<!-- Node5 -->
<g id="Node000005" class="node">
<title>Node5</title>
<g id="a_Node000005"><a xlink:href="../../d0/dee/struct_pixel_controller.html#a2a8441da873d3a094c15c337b34d3e43" target="_top" xlink:title="Set up the values for binary dithering.">
<polygon fill="white" stroke="#666666" points="495.38,-72.12 386.38,-72.12 386.38,-38.62 495.38,-38.62 495.38,-72.12"/>
<text text-anchor="start" x="394.38" y="-58.62" font-family="Helvetica,sans-Serif" font-size="10.00">PixelController::init</text>
<text text-anchor="middle" x="440.88" y="-45.88" font-family="Helvetica,sans-Serif" font-size="10.00">_binary_dithering</text>
</a>
</g>
</g>
<!-- Node4&#45;&gt;Node5 -->
<g id="edge5_Node000004_Node000005" class="edge">
<title>Node4&#45;&gt;Node5</title>
<g id="a_edge5_Node000004_Node000005"><a xlink:title=" ">
<path fill="none" stroke="#63b8ff" d="M335.77,-55.38C348.42,-55.38 361.76,-55.38 374.51,-55.38"/>
<polygon fill="#63b8ff" stroke="#63b8ff" points="374.51,-58.88 384.51,-55.38 374.51,-51.88 374.51,-58.88"/>
</a>
</g>
</g>
<!-- Node6 -->
<g id="Node000006" class="node">
<title>Node6</title>
<g id="a_Node000006"><a xlink:href="../../d0/da8/group___scaling.html#gad7535ccda9c92470c4e6ee0265585555" target="_top" xlink:title="Scale one byte by a second one, which is treated as the numerator of a fraction whose denominator is ...">
<polygon fill="white" stroke="#666666" points="585.25,-65.75 537.75,-65.75 537.75,-45 585.25,-45 585.25,-65.75"/>
<text text-anchor="middle" x="561.5" y="-52.25" font-family="Helvetica,sans-Serif" font-size="10.00">scale8</text>
</a>
</g>
</g>
<!-- Node5&#45;&gt;Node6 -->
<g id="edge6_Node000005_Node000006" class="edge">
<title>Node5&#45;&gt;Node6</title>
<g id="a_edge6_Node000005_Node000006"><a xlink:title=" ">
<path fill="none" stroke="#63b8ff" d="M495.63,-55.38C505.98,-55.38 516.55,-55.38 526.08,-55.38"/>
<polygon fill="#63b8ff" stroke="#63b8ff" points="525.97,-58.88 535.97,-55.38 525.97,-51.88 525.97,-58.88"/>
</a>
</g>
</g>
</g>
</svg>
