<?xml version="1.0" encoding="UTF-8" standalone="no"?>
<!DOCTYPE svg PUBLIC "-//W3C//DTD SVG 1.1//EN"
 "http://www.w3.org/Graphics/SVG/1.1/DTD/svg11.dtd">
<!-- Generated by graphviz version 12.2.1 (20241206.2353)
 -->
<!-- Title: AVRSoftwareSPIOutput::writeByte Pages: 1 -->
<svg width="918pt" height="666pt"
 viewBox="0.00 0.00 917.50 666.12" xmlns="http://www.w3.org/2000/svg" xmlns:xlink="http://www.w3.org/1999/xlink">
<g id="graph0" class="graph" transform="scale(1 1) rotate(0) translate(4 662.12)">
<title>AVRSoftwareSPIOutput::writeByte</title>
<!-- Node1 -->
<g id="Node000001" class="node">
<title>Node1</title>
<g id="a_Node000001"><a xlink:title="Write a single byte over SPI.">
<polygon fill="#999999" stroke="#666666" points="909.5,-371.5 783.25,-371.5 783.25,-338 909.5,-338 909.5,-371.5"/>
<text text-anchor="start" x="791.25" y="-358" font-family="Helvetica,sans-Serif" font-size="10.00">AVRSoftwareSPIOutput</text>
<text text-anchor="middle" x="846.38" y="-345.25" font-family="Helvetica,sans-Serif" font-size="10.00">::writeByte</text>
</a>
</g>
</g>
<!-- Node2 -->
<g id="Node000002" class="node">
<title>Node2</title>
<g id="a_Node000002"><a xlink:href="../../df/d0d/group___clocked_chipsets.html#ac9676b78658ebcab74033429c5c046f8" target="_top" xlink:title=" ">
<polygon fill="white" stroke="#666666" points="567,-658.12 395.75,-658.12 395.75,-637.38 567,-637.38 567,-658.12"/>
<text text-anchor="middle" x="481.38" y="-644.62" font-family="Helvetica,sans-Serif" font-size="10.00">APA102Controller::endBoundary</text>
</a>
</g>
</g>
<!-- Node1&#45;&gt;Node2 -->
<g id="edge1_Node000001_Node000002" class="edge">
<title>Node1&#45;&gt;Node2</title>
<g id="a_edge1_Node000001_Node000002"><a xlink:title=" ">
<path fill="none" stroke="#63b8ff" d="M843.42,-383.01C838.1,-436.39 818.52,-551.8 747.25,-608.75 697.14,-648.79 624.08,-657 567.38,-656.05"/>
<polygon fill="#63b8ff" stroke="#63b8ff" points="846.89,-383.49 844.29,-373.22 839.92,-382.88 846.89,-383.49"/>
</a>
</g>
</g>
<!-- Node6 -->
<g id="Node000006" class="node">
<title>Node6</title>
<g id="a_Node000006"><a xlink:href="../../df/d0d/group___clocked_chipsets.html#ab927434d5ab7d27132e4b6832a50a29e" target="_top" xlink:title=" ">
<polygon fill="white" stroke="#666666" points="732.62,-397.5 619.88,-397.5 619.88,-364 732.62,-364 732.62,-397.5"/>
<text text-anchor="start" x="627.88" y="-384" font-family="Helvetica,sans-Serif" font-size="10.00">LPD6803Controller::</text>
<text text-anchor="middle" x="676.25" y="-371.25" font-family="Helvetica,sans-Serif" font-size="10.00">endBoundary</text>
</a>
</g>
</g>
<!-- Node1&#45;&gt;Node6 -->
<g id="edge6_Node000001_Node000006" class="edge">
<title>Node1&#45;&gt;Node6</title>
<g id="a_edge6_Node000001_Node000006"><a xlink:title=" ">
<path fill="none" stroke="#63b8ff" d="M771.52,-366.17C758.58,-368.17 745.32,-370.22 732.98,-372.13"/>
<polygon fill="#63b8ff" stroke="#63b8ff" points="771.93,-369.65 781.28,-364.66 770.86,-362.73 771.93,-369.65"/>
</a>
</g>
</g>
<!-- Node7 -->
<g id="Node000007" class="node">
<title>Node7</title>
<g id="a_Node000007"><a xlink:href="../../df/d0d/group___clocked_chipsets.html#a35f42384ada050146e6813f0fc766356" target="_top" xlink:title="Send the LED data to the strip.">
<polygon fill="white" stroke="#666666" points="537.75,-397.5 425,-397.5 425,-364 537.75,-364 537.75,-397.5"/>
<text text-anchor="start" x="433" y="-384" font-family="Helvetica,sans-Serif" font-size="10.00">LPD6803Controller::</text>
<text text-anchor="middle" x="481.38" y="-371.25" font-family="Helvetica,sans-Serif" font-size="10.00">showPixels</text>
</a>
</g>
</g>
<!-- Node1&#45;&gt;Node7 -->
<g id="edge8_Node000001_Node000007" class="edge">
<title>Node1&#45;&gt;Node7</title>
<g id="a_edge8_Node000001_Node000007"><a xlink:title=" ">
<path fill="none" stroke="#63b8ff" d="M811.78,-377.82C793.56,-388.93 770.14,-401.06 747.25,-406.75 676.51,-424.33 592.38,-410.38 538.21,-397.07"/>
<polygon fill="#63b8ff" stroke="#63b8ff" points="813.46,-380.9 820.05,-372.6 809.73,-374.98 813.46,-380.9"/>
</a>
</g>
</g>
<!-- Node8 -->
<g id="Node000008" class="node">
<title>Node8</title>
<g id="a_Node000008"><a xlink:href="../../df/d0d/group___clocked_chipsets.html#a60fc5e3173df1c494951fbdd852969aa" target="_top" xlink:title=" ">
<polygon fill="white" stroke="#666666" points="732.62,-345.5 619.88,-345.5 619.88,-312 732.62,-312 732.62,-345.5"/>
<text text-anchor="start" x="627.88" y="-332" font-family="Helvetica,sans-Serif" font-size="10.00">LPD6803Controller::</text>
<text text-anchor="middle" x="676.25" y="-319.25" font-family="Helvetica,sans-Serif" font-size="10.00">startBoundary</text>
</a>
</g>
</g>
<!-- Node1&#45;&gt;Node8 -->
<g id="edge9_Node000001_Node000008" class="edge">
<title>Node1&#45;&gt;Node8</title>
<g id="a_edge9_Node000001_Node000008"><a xlink:title=" ">
<path fill="none" stroke="#63b8ff" d="M771.52,-343.33C758.58,-341.33 745.32,-339.28 732.98,-337.37"/>
<polygon fill="#63b8ff" stroke="#63b8ff" points="770.86,-346.77 781.28,-344.84 771.93,-339.85 770.86,-346.77"/>
</a>
</g>
</g>
<!-- Node9 -->
<g id="Node000009" class="node">
<title>Node9</title>
<g id="a_Node000009"><a xlink:href="../../df/d0d/group___clocked_chipsets.html#a2516bc6ae0059f28287e7fc6b8fd266f" target="_top" xlink:title=" ">
<polygon fill="white" stroke="#666666" points="550.12,-502.5 412.62,-502.5 412.62,-469 550.12,-469 550.12,-502.5"/>
<text text-anchor="start" x="420.62" y="-489" font-family="Helvetica,sans-Serif" font-size="10.00">APA102Controller::write2</text>
<text text-anchor="middle" x="481.38" y="-476.25" font-family="Helvetica,sans-Serif" font-size="10.00">Bytes</text>
</a>
</g>
</g>
<!-- Node1&#45;&gt;Node9 -->
<g id="edge11_Node000001_Node000009" class="edge">
<title>Node1&#45;&gt;Node9</title>
<g id="a_edge11_Node000001_Node000009"><a xlink:title=" ">
<path fill="none" stroke="#63b8ff" d="M833.76,-381.68C818.8,-412.53 789.58,-461.56 747.25,-482.75 685.97,-513.42 606.3,-509.4 550.4,-500.69"/>
<polygon fill="#63b8ff" stroke="#63b8ff" points="836.77,-383.51 837.82,-372.97 830.42,-380.56 836.77,-383.51"/>
</a>
</g>
</g>
<!-- Node10 -->
<g id="Node000010" class="node">
<title>Node10</title>
<g id="a_Node000010"><a xlink:href="../../dc/d57/class_a_v_r_software_s_p_i_output.html#ad5f106b07a655da37d889037f524617d" target="_top" xlink:title="Write a single byte over SPI without waiting.">
<polygon fill="white" stroke="#666666" points="739.38,-293.5 613.12,-293.5 613.12,-260 739.38,-260 739.38,-293.5"/>
<text text-anchor="start" x="621.12" y="-280" font-family="Helvetica,sans-Serif" font-size="10.00">AVRSoftwareSPIOutput</text>
<text text-anchor="middle" x="676.25" y="-267.25" font-family="Helvetica,sans-Serif" font-size="10.00">::writeByteNoWait</text>
</a>
</g>
</g>
<!-- Node1&#45;&gt;Node10 -->
<g id="edge12_Node000001_Node000010" class="edge">
<title>Node1&#45;&gt;Node10</title>
<g id="a_edge12_Node000001_Node000010"><a xlink:title=" ">
<path fill="none" stroke="#63b8ff" d="M805.48,-332.07C787.89,-322.48 766.81,-311.52 747.25,-302.75 740.51,-299.73 733.3,-296.76 726.16,-293.98"/>
<polygon fill="#63b8ff" stroke="#63b8ff" points="803.62,-335.05 814.06,-336.81 807,-328.92 803.62,-335.05"/>
</a>
</g>
</g>
<!-- Node11 -->
<g id="Node000011" class="node">
<title>Node11</title>
<g id="a_Node000011"><a xlink:href="../../dc/d57/class_a_v_r_software_s_p_i_output.html#a80903ee9d3226ced43e8f614a9e486b1" target="_top" xlink:title="Write a single byte over SPI and wait afterwards.">
<polygon fill="white" stroke="#666666" points="739.38,-241.5 613.12,-241.5 613.12,-208 739.38,-208 739.38,-241.5"/>
<text text-anchor="start" x="621.12" y="-228" font-family="Helvetica,sans-Serif" font-size="10.00">AVRSoftwareSPIOutput</text>
<text text-anchor="middle" x="676.25" y="-215.25" font-family="Helvetica,sans-Serif" font-size="10.00">::writeBytePostWait</text>
</a>
</g>
</g>
<!-- Node1&#45;&gt;Node11 -->
<g id="edge13_Node000001_Node000011" class="edge">
<title>Node1&#45;&gt;Node11</title>
<g id="a_edge13_Node000001_Node000011"><a xlink:title=" ">
<path fill="none" stroke="#63b8ff" d="M826.48,-328.74C808.42,-305.51 779.26,-271.96 747.25,-250.75 742.28,-247.46 736.83,-244.51 731.25,-241.89"/>
<polygon fill="#63b8ff" stroke="#63b8ff" points="823.53,-330.65 832.37,-336.49 829.1,-326.41 823.53,-330.65"/>
</a>
</g>
</g>
<!-- Node12 -->
<g id="Node000012" class="node">
<title>Node12</title>
<g id="a_Node000012"><a xlink:href="../../dc/d57/class_a_v_r_software_s_p_i_output.html#af543930d08c9ce5c8229e45be97980e9" target="_top" xlink:title="Write an array of data to the SPI interface.">
<polygon fill="white" stroke="#666666" points="739.38,-189.5 613.12,-189.5 613.12,-156 739.38,-156 739.38,-189.5"/>
<text text-anchor="start" x="621.12" y="-176" font-family="Helvetica,sans-Serif" font-size="10.00">AVRSoftwareSPIOutput</text>
<text text-anchor="middle" x="676.25" y="-163.25" font-family="Helvetica,sans-Serif" font-size="10.00">::writeBytes</text>
</a>
</g>
</g>
<!-- Node1&#45;&gt;Node12 -->
<g id="edge14_Node000001_Node000012" class="edge">
<title>Node1&#45;&gt;Node12</title>
<g id="a_edge14_Node000001_Node000012"><a xlink:title=" ">
<path fill="none" stroke="#63b8ff" d="M834.73,-327.35C820,-292.8 790.27,-233.71 747.25,-198.75 743.13,-195.4 738.53,-192.45 733.71,-189.87"/>
<polygon fill="#63b8ff" stroke="#63b8ff" points="831.35,-328.34 838.4,-336.24 837.82,-325.66 831.35,-328.34"/>
</a>
</g>
</g>
<!-- Node14 -->
<g id="Node000014" class="node">
<title>Node14</title>
<g id="a_Node000014"><a xlink:href="../../dc/d57/class_a_v_r_software_s_p_i_output.html#abada62794ed922c2798bf462a98b57f0" target="_top" xlink:title="Write multiple bytes of the given value over SPI, without selecting the interface.">
<polygon fill="white" stroke="#666666" points="739.38,-137.5 613.12,-137.5 613.12,-104 739.38,-104 739.38,-137.5"/>
<text text-anchor="start" x="621.12" y="-124" font-family="Helvetica,sans-Serif" font-size="10.00">AVRSoftwareSPIOutput</text>
<text text-anchor="middle" x="676.25" y="-111.25" font-family="Helvetica,sans-Serif" font-size="10.00">::writeBytesValueRaw</text>
</a>
</g>
</g>
<!-- Node1&#45;&gt;Node14 -->
<g id="edge16_Node000001_Node000014" class="edge">
<title>Node1&#45;&gt;Node14</title>
<g id="a_edge16_Node000001_Node000014"><a xlink:title=" ">
<path fill="none" stroke="#63b8ff" d="M839.32,-326.52C828.42,-282.27 801.4,-196.47 747.25,-146.75 743.62,-143.42 739.53,-140.5 735.19,-137.95"/>
<polygon fill="#63b8ff" stroke="#63b8ff" points="835.88,-327.18 841.57,-336.12 842.69,-325.58 835.88,-327.18"/>
</a>
</g>
</g>
<!-- Node17 -->
<g id="Node000017" class="node">
<title>Node17</title>
<g id="a_Node000017"><a xlink:href="../../df/d0d/group___clocked_chipsets.html#a3e9e62e92d3f9e175b43e28dbb2254e9" target="_top" xlink:title=" ">
<polygon fill="white" stroke="#666666" points="733.75,-85.5 618.75,-85.5 618.75,-52 733.75,-52 733.75,-85.5"/>
<text text-anchor="start" x="626.75" y="-72" font-family="Helvetica,sans-Serif" font-size="10.00">SM16716Controller::</text>
<text text-anchor="middle" x="676.25" y="-59.25" font-family="Helvetica,sans-Serif" font-size="10.00">writeHeader</text>
</a>
</g>
</g>
<!-- Node1&#45;&gt;Node17 -->
<g id="edge19_Node000001_Node000017" class="edge">
<title>Node1&#45;&gt;Node17</title>
<g id="a_edge19_Node000001_Node000017"><a xlink:title=" ">
<path fill="none" stroke="#63b8ff" d="M842.36,-326.41C835.29,-273.71 812.94,-160.09 747.25,-94.75 743.39,-90.91 738.91,-87.63 734.12,-84.83"/>
<polygon fill="#63b8ff" stroke="#63b8ff" points="838.85,-326.57 843.56,-336.06 845.8,-325.7 838.85,-326.57"/>
</a>
</g>
</g>
<!-- Node19 -->
<g id="Node000019" class="node">
<title>Node19</title>
<g id="a_Node000019"><a xlink:href="../../df/d0d/group___clocked_chipsets.html#a3e85825537bbd044569052476051a970" target="_top" xlink:title=" ">
<polygon fill="white" stroke="#666666" points="555.75,-619.12 407,-619.12 407,-598.38 555.75,-598.38 555.75,-619.12"/>
<text text-anchor="middle" x="481.38" y="-605.62" font-family="Helvetica,sans-Serif" font-size="10.00">APA102Controller::writeLed</text>
</a>
</g>
</g>
<!-- Node1&#45;&gt;Node19 -->
<g id="edge21_Node000001_Node000019" class="edge">
<title>Node1&#45;&gt;Node19</title>
<g id="a_edge21_Node000001_Node000019"><a xlink:title=" ">
<path fill="none" stroke="#63b8ff" d="M841.47,-383.1C833.3,-430.72 809.66,-526.14 747.25,-572.75 692.68,-613.5 613.64,-619.36 556.11,-616.94"/>
<polygon fill="#63b8ff" stroke="#63b8ff" points="844.92,-383.73 843.03,-373.3 838,-382.63 844.92,-383.73"/>
</a>
</g>
</g>
<!-- Node20 -->
<g id="Node000020" class="node">
<title>Node20</title>
<g id="a_Node000020"><a xlink:href="../../df/d0d/group___clocked_chipsets.html#a153192c5ed8e28168bcb4179ed80598c" target="_top" xlink:title=" ">
<polygon fill="white" stroke="#666666" points="747.25,-474.12 605.25,-474.12 605.25,-453.38 747.25,-453.38 747.25,-474.12"/>
<text text-anchor="middle" x="676.25" y="-460.62" font-family="Helvetica,sans-Serif" font-size="10.00">P9813Controller::writeLed</text>
</a>
</g>
</g>
<!-- Node1&#45;&gt;Node20 -->
<g id="edge24_Node000001_Node000020" class="edge">
<title>Node1&#45;&gt;Node20</title>
<g id="a_edge24_Node000001_Node000020"><a xlink:title=" ">
<path fill="none" stroke="#63b8ff" d="M821.6,-380.05C802.89,-398.71 775.37,-423.57 747.25,-439.75 738.01,-445.07 727.4,-449.46 717.28,-452.97"/>
<polygon fill="#63b8ff" stroke="#63b8ff" points="823.97,-382.63 828.48,-373.04 818.98,-377.72 823.97,-382.63"/>
</a>
</g>
</g>
<!-- Node22 -->
<g id="Node000022" class="node">
<title>Node22</title>
<g id="a_Node000022"><a xlink:href="../../dc/d57/class_a_v_r_software_s_p_i_output.html#a20772a8fdfa75015731375c36ccb3515" target="_top" xlink:title="Write LED pixel data to the SPI interface.">
<polygon fill="white" stroke="#666666" points="739.38,-33.5 613.12,-33.5 613.12,0 739.38,0 739.38,-33.5"/>
<text text-anchor="start" x="621.12" y="-20" font-family="Helvetica,sans-Serif" font-size="10.00">AVRSoftwareSPIOutput</text>
<text text-anchor="middle" x="676.25" y="-7.25" font-family="Helvetica,sans-Serif" font-size="10.00">::writePixels</text>
</a>
</g>
</g>
<!-- Node1&#45;&gt;Node22 -->
<g id="edge26_Node000001_Node000022" class="edge">
<title>Node1&#45;&gt;Node22</title>
<g id="a_edge26_Node000001_Node000022"><a xlink:title=" ">
<path fill="none" stroke="#63b8ff" d="M844.47,-326.39C841.02,-266.13 824.65,-124.19 747.25,-42.75 744.03,-39.37 740.34,-36.42 736.36,-33.86"/>
<polygon fill="#63b8ff" stroke="#63b8ff" points="840.96,-326.31 844.94,-336.12 847.95,-325.97 840.96,-326.31"/>
</a>
</g>
</g>
<!-- Node23 -->
<g id="Node000023" class="node">
<title>Node23</title>
<g id="a_Node000023"><a xlink:href="../../dc/d57/class_a_v_r_software_s_p_i_output.html#a34421832d232a692d08d39d87733acd8" target="_top" xlink:title="Write a word (two bytes) over SPI.">
<polygon fill="white" stroke="#666666" points="739.38,-563.5 613.12,-563.5 613.12,-530 739.38,-530 739.38,-563.5"/>
<text text-anchor="start" x="621.12" y="-550" font-family="Helvetica,sans-Serif" font-size="10.00">AVRSoftwareSPIOutput</text>
<text text-anchor="middle" x="676.25" y="-537.25" font-family="Helvetica,sans-Serif" font-size="10.00">::writeWord</text>
</a>
</g>
</g>
<!-- Node1&#45;&gt;Node23 -->
<g id="edge27_Node000001_Node000023" class="edge">
<title>Node1&#45;&gt;Node23</title>
<g id="a_edge27_Node000001_Node000023"><a xlink:title=" ">
<path fill="none" stroke="#63b8ff" d="M834.84,-382.07C820.06,-417.2 790.1,-478.15 747.25,-515.75 741.06,-521.18 733.76,-525.81 726.25,-529.69"/>
<polygon fill="#63b8ff" stroke="#63b8ff" points="837.99,-383.61 838.53,-373.03 831.51,-380.97 837.99,-383.61"/>
</a>
</g>
</g>
<!-- Node3 -->
<g id="Node000003" class="node">
<title>Node3</title>
<g id="a_Node000003"><a xlink:href="../../df/d0d/group___clocked_chipsets.html#a632117bec47c6b4ba7e3ed1703478a42" target="_top" xlink:title=" ">
<polygon fill="white" stroke="#666666" points="357.5,-651.5 196.75,-651.5 196.75,-618 357.5,-618 357.5,-651.5"/>
<text text-anchor="start" x="204.75" y="-638" font-family="Helvetica,sans-Serif" font-size="10.00">APA102Controller::showPixels</text>
<text text-anchor="middle" x="277.12" y="-625.25" font-family="Helvetica,sans-Serif" font-size="10.00">Default</text>
</a>
</g>
</g>
<!-- Node2&#45;&gt;Node3 -->
<g id="edge2_Node000002_Node000003" class="edge">
<title>Node2&#45;&gt;Node3</title>
<g id="a_edge2_Node000002_Node000003"><a xlink:title=" ">
<path fill="none" stroke="#63b8ff" d="M384.05,-641.56C375.31,-641 366.53,-640.43 357.96,-639.88"/>
<polygon fill="#63b8ff" stroke="#63b8ff" points="383.77,-645.05 393.97,-642.2 384.22,-638.06 383.77,-645.05"/>
</a>
</g>
</g>
<!-- Node5 -->
<g id="Node000005" class="node">
<title>Node5</title>
<g id="a_Node000005"><a xlink:href="../../df/d0d/group___clocked_chipsets.html#a040f761b3d3bb30a9275f96548ec5ef7" target="_top" xlink:title=" ">
<polygon fill="white" stroke="#666666" points="357.5,-599.5 196.75,-599.5 196.75,-566 357.5,-566 357.5,-599.5"/>
<text text-anchor="start" x="204.75" y="-586" font-family="Helvetica,sans-Serif" font-size="10.00">APA102Controller::showPixels</text>
<text text-anchor="middle" x="277.12" y="-573.25" font-family="Helvetica,sans-Serif" font-size="10.00">GammaBitShift</text>
</a>
</g>
</g>
<!-- Node2&#45;&gt;Node5 -->
<g id="edge4_Node000002_Node000005" class="edge">
<title>Node2&#45;&gt;Node5</title>
<g id="a_edge4_Node000002_Node000005"><a xlink:title=" ">
<path fill="none" stroke="#63b8ff" d="M412.65,-633.97C406.11,-632.1 399.63,-630.03 393.5,-627.75 376.54,-621.45 374.16,-615.81 357.5,-608.75 350.16,-605.64 342.31,-602.66 334.5,-599.91"/>
<polygon fill="#63b8ff" stroke="#63b8ff" points="411.64,-637.33 422.21,-636.54 413.46,-630.57 411.64,-637.33"/>
</a>
</g>
</g>
<!-- Node4 -->
<g id="Node000004" class="node">
<title>Node4</title>
<g id="a_Node000004"><a xlink:href="../../df/d0d/group___clocked_chipsets.html#a523f76b88c07e29cba6c40bd0cefe4b3" target="_top" xlink:title="Send the LED data to the strip.">
<polygon fill="white" stroke="#666666" points="160.75,-619.12 0,-619.12 0,-598.38 160.75,-598.38 160.75,-619.12"/>
<text text-anchor="middle" x="80.38" y="-605.62" font-family="Helvetica,sans-Serif" font-size="10.00">APA102Controller::showPixels</text>
</a>
</g>
</g>
<!-- Node3&#45;&gt;Node4 -->
<g id="edge3_Node000003_Node000004" class="edge">
<title>Node3&#45;&gt;Node4</title>
<g id="a_edge3_Node000003_Node000004"><a xlink:title=" ">
<path fill="none" stroke="#63b8ff" d="M185.06,-622.59C177.03,-621.52 168.95,-620.44 161.03,-619.38"/>
<polygon fill="#63b8ff" stroke="#63b8ff" points="184.48,-626.05 194.85,-623.9 185.4,-619.11 184.48,-626.05"/>
</a>
</g>
</g>
<!-- Node5&#45;&gt;Node4 -->
<g id="edge5_Node000005_Node000004" class="edge">
<title>Node5&#45;&gt;Node4</title>
<g id="a_edge5_Node000005_Node000004"><a xlink:title=" ">
<path fill="none" stroke="#63b8ff" d="M185.06,-594.91C177.03,-595.98 168.95,-597.06 161.03,-598.12"/>
<polygon fill="#63b8ff" stroke="#63b8ff" points="185.4,-598.39 194.85,-593.6 184.48,-591.45 185.4,-598.39"/>
</a>
</g>
</g>
<!-- Node6&#45;&gt;Node7 -->
<g id="edge7_Node000006_Node000007" class="edge">
<title>Node6&#45;&gt;Node7</title>
<g id="a_edge7_Node000006_Node000007"><a xlink:title=" ">
<path fill="none" stroke="#63b8ff" d="M608.1,-380.75C585.22,-380.75 559.91,-380.75 538.04,-380.75"/>
<polygon fill="#63b8ff" stroke="#63b8ff" points="607.95,-384.25 617.95,-380.75 607.95,-377.25 607.95,-384.25"/>
</a>
</g>
</g>
<!-- Node8&#45;&gt;Node7 -->
<g id="edge10_Node000008_Node000007" class="edge">
<title>Node8&#45;&gt;Node7</title>
<g id="a_edge10_Node000008_Node000007"><a xlink:title=" ">
<path fill="none" stroke="#63b8ff" d="M608.42,-346.77C585.45,-352.96 560.01,-359.82 538.04,-365.74"/>
<polygon fill="#63b8ff" stroke="#63b8ff" points="609.26,-350.17 618,-344.18 607.43,-343.41 609.26,-350.17"/>
</a>
</g>
</g>
<!-- Node13 -->
<g id="Node000013" class="node">
<title>Node13</title>
<g id="a_Node000013"><a xlink:href="../../dc/d57/class_a_v_r_software_s_p_i_output.html#a8e0f5d9fd6f2c1e1eab4436c1b5cb23a" target="_top" xlink:title="Write an array of data to the SPI interface.">
<polygon fill="white" stroke="#666666" points="544.5,-215.5 418.25,-215.5 418.25,-182 544.5,-182 544.5,-215.5"/>
<text text-anchor="start" x="426.25" y="-202" font-family="Helvetica,sans-Serif" font-size="10.00">AVRSoftwareSPIOutput</text>
<text text-anchor="middle" x="481.38" y="-189.25" font-family="Helvetica,sans-Serif" font-size="10.00">::writeBytes</text>
</a>
</g>
</g>
<!-- Node12&#45;&gt;Node13 -->
<g id="edge15_Node000012_Node000013" class="edge">
<title>Node12&#45;&gt;Node13</title>
<g id="a_edge15_Node000012_Node000013"><a xlink:title=" ">
<path fill="none" stroke="#63b8ff" d="M601.46,-182.7C582.72,-185.22 562.78,-187.91 544.68,-190.35"/>
<polygon fill="#63b8ff" stroke="#63b8ff" points="601.69,-186.2 611.13,-181.39 600.75,-179.26 601.69,-186.2"/>
</a>
</g>
</g>
<!-- Node15 -->
<g id="Node000015" class="node">
<title>Node15</title>
<g id="a_Node000015"><a xlink:href="../../df/d0d/group___clocked_chipsets.html#a8e402dc154857e5c6b62bffe0372e856" target="_top" xlink:title=" ">
<polygon fill="white" stroke="#666666" points="558.38,-111.5 404.38,-111.5 404.38,-78 558.38,-78 558.38,-111.5"/>
<text text-anchor="start" x="412.38" y="-98" font-family="Helvetica,sans-Serif" font-size="10.00">LPD8806Controller::</text>
<text text-anchor="middle" x="481.38" y="-85.25" font-family="Helvetica,sans-Serif" font-size="10.00">LPD8806_ADJUST::postBlock</text>
</a>
</g>
</g>
<!-- Node14&#45;&gt;Node15 -->
<g id="edge17_Node000014_Node000015" class="edge">
<title>Node14&#45;&gt;Node15</title>
<g id="a_edge17_Node000014_Node000015"><a xlink:title=" ">
<path fill="none" stroke="#63b8ff" d="M601.58,-110.82C587.58,-108.93 572.91,-106.95 558.83,-105.06"/>
<polygon fill="#63b8ff" stroke="#63b8ff" points="600.75,-114.24 611.13,-112.11 601.69,-107.3 600.75,-114.24"/>
</a>
</g>
</g>
<!-- Node16 -->
<g id="Node000016" class="node">
<title>Node16</title>
<g id="a_Node000016"><a xlink:href="../../dc/d57/class_a_v_r_software_s_p_i_output.html#ac4ffa7160697ac63bbd7734b480308bc" target="_top" xlink:title="Write multiple bytes of the given value over SPI.">
<polygon fill="white" stroke="#666666" points="544.5,-163.5 418.25,-163.5 418.25,-130 544.5,-130 544.5,-163.5"/>
<text text-anchor="start" x="426.25" y="-150" font-family="Helvetica,sans-Serif" font-size="10.00">AVRSoftwareSPIOutput</text>
<text text-anchor="middle" x="481.38" y="-137.25" font-family="Helvetica,sans-Serif" font-size="10.00">::writeBytesValue</text>
</a>
</g>
</g>
<!-- Node14&#45;&gt;Node16 -->
<g id="edge18_Node000014_Node000016" class="edge">
<title>Node14&#45;&gt;Node16</title>
<g id="a_edge18_Node000014_Node000016"><a xlink:title=" ">
<path fill="none" stroke="#63b8ff" d="M601.46,-130.7C582.72,-133.22 562.78,-135.91 544.68,-138.35"/>
<polygon fill="#63b8ff" stroke="#63b8ff" points="601.69,-134.2 611.13,-129.39 600.75,-127.26 601.69,-134.2"/>
</a>
</g>
</g>
<!-- Node18 -->
<g id="Node000018" class="node">
<title>Node18</title>
<g id="a_Node000018"><a xlink:href="../../df/d0d/group___clocked_chipsets.html#a2b68d483e7422d26d31586ca7791d7af" target="_top" xlink:title="Send the LED data to the strip.">
<polygon fill="white" stroke="#666666" points="538.88,-59.5 423.88,-59.5 423.88,-26 538.88,-26 538.88,-59.5"/>
<text text-anchor="start" x="431.88" y="-46" font-family="Helvetica,sans-Serif" font-size="10.00">SM16716Controller::</text>
<text text-anchor="middle" x="481.38" y="-33.25" font-family="Helvetica,sans-Serif" font-size="10.00">showPixels</text>
</a>
</g>
</g>
<!-- Node17&#45;&gt;Node18 -->
<g id="edge20_Node000017_Node000018" class="edge">
<title>Node17&#45;&gt;Node18</title>
<g id="a_edge20_Node000017_Node000018"><a xlink:title=" ">
<path fill="none" stroke="#63b8ff" d="M607.03,-59.55C584.82,-56.56 560.41,-53.27 539.13,-50.4"/>
<polygon fill="#63b8ff" stroke="#63b8ff" points="606.55,-63.02 616.92,-60.89 607.48,-56.08 606.55,-63.02"/>
</a>
</g>
</g>
<!-- Node19&#45;&gt;Node3 -->
<g id="edge22_Node000019_Node000003" class="edge">
<title>Node19&#45;&gt;Node3</title>
<g id="a_edge22_Node000019_Node000003"><a xlink:title=" ">
<path fill="none" stroke="#63b8ff" d="M395.45,-619.67C382.98,-621.27 370.16,-622.92 357.8,-624.51"/>
<polygon fill="#63b8ff" stroke="#63b8ff" points="395.81,-623.15 405.28,-618.4 394.92,-616.21 395.81,-623.15"/>
</a>
</g>
</g>
<!-- Node19&#45;&gt;Node5 -->
<g id="edge23_Node000019_Node000005" class="edge">
<title>Node19&#45;&gt;Node5</title>
<g id="a_edge23_Node000019_Node000005"><a xlink:title=" ">
<path fill="none" stroke="#63b8ff" d="M395.45,-597.83C382.98,-596.23 370.16,-594.58 357.8,-592.99"/>
<polygon fill="#63b8ff" stroke="#63b8ff" points="394.92,-601.29 405.28,-599.1 395.81,-594.35 394.92,-601.29"/>
</a>
</g>
</g>
<!-- Node21 -->
<g id="Node000021" class="node">
<title>Node21</title>
<g id="a_Node000021"><a xlink:href="../../df/d0d/group___clocked_chipsets.html#ab7381f0a1850d006f3449d27838b19c5" target="_top" xlink:title="Send the LED data to the strip.">
<polygon fill="white" stroke="#666666" points="354.12,-506.12 200.12,-506.12 200.12,-485.38 354.12,-485.38 354.12,-506.12"/>
<text text-anchor="middle" x="277.12" y="-492.62" font-family="Helvetica,sans-Serif" font-size="10.00">P9813Controller::showPixels</text>
</a>
</g>
</g>
<!-- Node20&#45;&gt;Node21 -->
<g id="edge25_Node000020_Node000021" class="edge">
<title>Node20&#45;&gt;Node21</title>
<g id="a_edge25_Node000020_Node000021"><a xlink:title=" ">
<path fill="none" stroke="#63b8ff" d="M593.38,-455.5C536.89,-451.54 460.24,-449.58 393.5,-459.75 362.18,-464.52 327.67,-476.19 304.62,-484.96"/>
<polygon fill="#63b8ff" stroke="#63b8ff" points="593.02,-458.98 603.25,-456.23 593.54,-452 593.02,-458.98"/>
</a>
</g>
</g>
<!-- Node23&#45;&gt;Node9 -->
<g id="edge31_Node000023_Node000009" class="edge">
<title>Node23&#45;&gt;Node9</title>
<g id="a_edge31_Node000023_Node000009"><a xlink:title=" ">
<path fill="none" stroke="#63b8ff" d="M613.29,-525.97C598.86,-521.22 583.54,-516.25 569.25,-511.75 559.94,-508.82 550.04,-505.78 540.39,-502.87"/>
<polygon fill="#63b8ff" stroke="#63b8ff" points="612.09,-529.26 622.69,-529.07 614.29,-522.61 612.09,-529.26"/>
</a>
</g>
</g>
<!-- Node23&#45;&gt;Node19 -->
<g id="edge34_Node000023_Node000019" class="edge">
<title>Node23&#45;&gt;Node19</title>
<g id="a_edge34_Node000023_Node000019"><a xlink:title=" ">
<path fill="none" stroke="#63b8ff" d="M625.42,-568.29C607.87,-575.39 587.88,-582.95 569.25,-588.75 558.31,-592.15 546.44,-595.26 535.09,-597.96"/>
<polygon fill="#63b8ff" stroke="#63b8ff" points="626.67,-571.56 634.59,-564.52 624.01,-565.08 626.67,-571.56"/>
</a>
</g>
</g>
<!-- Node24 -->
<g id="Node000024" class="node">
<title>Node24</title>
<g id="a_Node000024"><a xlink:href="../../df/d0d/group___clocked_chipsets.html#ab8d200f508aa910564b8db24c451c28b" target="_top" xlink:title=" ">
<polygon fill="white" stroke="#666666" points="569.25,-580.12 393.5,-580.12 393.5,-559.38 569.25,-559.38 569.25,-580.12"/>
<text text-anchor="middle" x="481.38" y="-566.62" font-family="Helvetica,sans-Serif" font-size="10.00">APA102Controller::startBoundary</text>
</a>
</g>
</g>
<!-- Node23&#45;&gt;Node24 -->
<g id="edge28_Node000023_Node000024" class="edge">
<title>Node23&#45;&gt;Node24</title>
<g id="a_edge28_Node000023_Node000024"><a xlink:title=" ">
<path fill="none" stroke="#63b8ff" d="M601.48,-555.55C591.04,-556.79 580.22,-558.08 569.56,-559.35"/>
<polygon fill="#63b8ff" stroke="#63b8ff" points="601.61,-559.06 611.13,-554.4 600.78,-552.11 601.61,-559.06"/>
</a>
</g>
</g>
<!-- Node25 -->
<g id="Node000025" class="node">
<title>Node25</title>
<g id="a_Node000025"><a xlink:href="../../df/d0d/group___clocked_chipsets.html#a387b638de0fc6cb7a2bccbcf41037b30" target="_top" xlink:title=" ">
<polygon fill="white" stroke="#666666" points="567,-541.12 395.75,-541.12 395.75,-520.38 567,-520.38 567,-541.12"/>
<text text-anchor="middle" x="481.38" y="-527.62" font-family="Helvetica,sans-Serif" font-size="10.00">P9813Controller::writeBoundary</text>
</a>
</g>
</g>
<!-- Node23&#45;&gt;Node25 -->
<g id="edge32_Node000023_Node000025" class="edge">
<title>Node23&#45;&gt;Node25</title>
<g id="a_edge32_Node000023_Node000025"><a xlink:title=" ">
<path fill="none" stroke="#63b8ff" d="M601.28,-540.61C590.22,-539.7 578.74,-538.74 567.47,-537.81"/>
<polygon fill="#63b8ff" stroke="#63b8ff" points="600.87,-544.09 611.12,-541.43 601.44,-537.12 600.87,-544.09"/>
</a>
</g>
</g>
<!-- Node24&#45;&gt;Node3 -->
<g id="edge29_Node000024_Node000003" class="edge">
<title>Node24&#45;&gt;Node3</title>
<g id="a_edge29_Node000024_Node000003"><a xlink:title=" ">
<path fill="none" stroke="#63b8ff" d="M412.65,-583.53C406.11,-585.4 399.63,-587.47 393.5,-589.75 376.54,-596.05 374.16,-601.69 357.5,-608.75 350.16,-611.86 342.31,-614.84 334.5,-617.59"/>
<polygon fill="#63b8ff" stroke="#63b8ff" points="413.46,-586.93 422.21,-580.96 411.64,-580.17 413.46,-586.93"/>
</a>
</g>
</g>
<!-- Node24&#45;&gt;Node5 -->
<g id="edge30_Node000024_Node000005" class="edge">
<title>Node24&#45;&gt;Node5</title>
<g id="a_edge30_Node000024_Node000005"><a xlink:title=" ">
<path fill="none" stroke="#63b8ff" d="M381.78,-576.09C373.72,-576.61 365.64,-577.12 357.74,-577.63"/>
<polygon fill="#63b8ff" stroke="#63b8ff" points="381.87,-579.59 391.62,-575.45 381.42,-572.6 381.87,-579.59"/>
</a>
</g>
</g>
<!-- Node25&#45;&gt;Node21 -->
<g id="edge33_Node000025_Node000021" class="edge">
<title>Node25&#45;&gt;Node21</title>
<g id="a_edge33_Node000025_Node000021"><a xlink:title=" ">
<path fill="none" stroke="#63b8ff" d="M406.66,-517.99C385.05,-514.25 361.63,-510.2 340.79,-506.59"/>
<polygon fill="#63b8ff" stroke="#63b8ff" points="405.83,-521.4 416.28,-519.66 407.02,-514.5 405.83,-521.4"/>
</a>
</g>
</g>
</g>
</svg>
