<?xml version="1.0" encoding="UTF-8" standalone="no"?>
<!DOCTYPE svg PUBLIC "-//W3C//DTD SVG 1.1//EN"
 "http://www.w3.org/Graphics/SVG/1.1/DTD/svg11.dtd">
<!-- Generated by graphviz version 12.2.1 (20241206.2353)
 -->
<!-- Title: AVRSoftwareSPIOutput::writeWord Pages: 1 -->
<svg width="740pt" height="170pt"
 viewBox="0.00 0.00 739.50 170.12" xmlns="http://www.w3.org/2000/svg" xmlns:xlink="http://www.w3.org/1999/xlink">
<g id="graph0" class="graph" transform="scale(1 1) rotate(0) translate(4 166.12)">
<title>AVRSoftwareSPIOutput::writeWord</title>
<!-- Node1 -->
<g id="Node000001" class="node">
<title>Node1</title>
<g id="a_Node000001"><a xlink:title="Write a word (two bytes) over SPI.">
<polygon fill="#999999" stroke="#666666" points="731.5,-94.12 605.25,-94.12 605.25,-60.62 731.5,-60.62 731.5,-94.12"/>
<text text-anchor="start" x="613.25" y="-80.62" font-family="Helvetica,sans-Serif" font-size="10.00">AVRSoftwareSPIOutput</text>
<text text-anchor="middle" x="668.38" y="-67.88" font-family="Helvetica,sans-Serif" font-size="10.00">::writeWord</text>
</a>
</g>
</g>
<!-- Node2 -->
<g id="Node000002" class="node">
<title>Node2</title>
<g id="a_Node000002"><a xlink:href="../../df/d0d/group___clocked_chipsets.html#ab8d200f508aa910564b8db24c451c28b" target="_top" xlink:title=" ">
<polygon fill="white" stroke="#666666" points="569.25,-149.75 393.5,-149.75 393.5,-129 569.25,-129 569.25,-149.75"/>
<text text-anchor="middle" x="481.38" y="-136.25" font-family="Helvetica,sans-Serif" font-size="10.00">APA102Controller::startBoundary</text>
</a>
</g>
</g>
<!-- Node1&#45;&gt;Node2 -->
<g id="edge1_Node000001_Node000002" class="edge">
<title>Node1&#45;&gt;Node2</title>
<g id="a_edge1_Node000001_Node000002"><a xlink:title=" ">
<path fill="none" stroke="#63b8ff" d="M621.33,-99.09C605.11,-106.2 586.59,-113.72 569.25,-119.38 558.66,-122.83 547.15,-125.93 536.08,-128.59"/>
<polygon fill="#63b8ff" stroke="#63b8ff" points="622.53,-102.39 630.24,-95.12 619.68,-95.99 622.53,-102.39"/>
</a>
</g>
</g>
<!-- Node6 -->
<g id="Node000006" class="node">
<title>Node6</title>
<g id="a_Node000006"><a xlink:href="../../df/d0d/group___clocked_chipsets.html#a2516bc6ae0059f28287e7fc6b8fd266f" target="_top" xlink:title=" ">
<polygon fill="white" stroke="#666666" points="550.12,-72.12 412.62,-72.12 412.62,-38.62 550.12,-38.62 550.12,-72.12"/>
<text text-anchor="start" x="420.62" y="-58.62" font-family="Helvetica,sans-Serif" font-size="10.00">APA102Controller::write2</text>
<text text-anchor="middle" x="481.38" y="-45.88" font-family="Helvetica,sans-Serif" font-size="10.00">Bytes</text>
</a>
</g>
</g>
<!-- Node1&#45;&gt;Node6 -->
<g id="edge6_Node000001_Node000006" class="edge">
<title>Node1&#45;&gt;Node6</title>
<g id="a_edge6_Node000001_Node000006"><a xlink:title=" ">
<path fill="none" stroke="#63b8ff" d="M593.73,-68.62C579.47,-66.92 564.58,-65.15 550.51,-63.48"/>
<polygon fill="#63b8ff" stroke="#63b8ff" points="593.15,-72.07 603.5,-69.78 593.98,-65.12 593.15,-72.07"/>
</a>
</g>
</g>
<!-- Node7 -->
<g id="Node000007" class="node">
<title>Node7</title>
<g id="a_Node000007"><a xlink:href="../../df/d0d/group___clocked_chipsets.html#a387b638de0fc6cb7a2bccbcf41037b30" target="_top" xlink:title=" ">
<polygon fill="white" stroke="#666666" points="567,-20.75 395.75,-20.75 395.75,0 567,0 567,-20.75"/>
<text text-anchor="middle" x="481.38" y="-7.25" font-family="Helvetica,sans-Serif" font-size="10.00">P9813Controller::writeBoundary</text>
</a>
</g>
</g>
<!-- Node1&#45;&gt;Node7 -->
<g id="edge7_Node000001_Node000007" class="edge">
<title>Node1&#45;&gt;Node7</title>
<g id="a_edge7_Node000001_Node000007"><a xlink:title=" ">
<path fill="none" stroke="#63b8ff" d="M627.42,-55.12C609.97,-46.12 589.01,-36.26 569.25,-29.38 560.21,-26.23 550.45,-23.49 540.86,-21.15"/>
<polygon fill="#63b8ff" stroke="#63b8ff" points="625.43,-58.03 635.91,-59.59 628.69,-51.84 625.43,-58.03"/>
</a>
</g>
</g>
<!-- Node9 -->
<g id="Node000009" class="node">
<title>Node9</title>
<g id="a_Node000009"><a xlink:href="../../df/d0d/group___clocked_chipsets.html#a3e85825537bbd044569052476051a970" target="_top" xlink:title=" ">
<polygon fill="white" stroke="#666666" points="555.75,-110.75 407,-110.75 407,-90 555.75,-90 555.75,-110.75"/>
<text text-anchor="middle" x="481.38" y="-97.25" font-family="Helvetica,sans-Serif" font-size="10.00">APA102Controller::writeLed</text>
</a>
</g>
</g>
<!-- Node1&#45;&gt;Node9 -->
<g id="edge9_Node000001_Node000009" class="edge">
<title>Node1&#45;&gt;Node9</title>
<g id="a_edge9_Node000001_Node000009"><a xlink:title=" ">
<path fill="none" stroke="#63b8ff" d="M593.75,-86.53C581.32,-88.07 568.42,-89.68 556,-91.22"/>
<polygon fill="#63b8ff" stroke="#63b8ff" points="594.01,-90.02 603.5,-85.32 593.14,-83.08 594.01,-90.02"/>
</a>
</g>
</g>
<!-- Node3 -->
<g id="Node000003" class="node">
<title>Node3</title>
<g id="a_Node000003"><a xlink:href="../../df/d0d/group___clocked_chipsets.html#a632117bec47c6b4ba7e3ed1703478a42" target="_top" xlink:title=" ">
<polygon fill="white" stroke="#666666" points="357.5,-162.12 196.75,-162.12 196.75,-128.62 357.5,-128.62 357.5,-162.12"/>
<text text-anchor="start" x="204.75" y="-148.62" font-family="Helvetica,sans-Serif" font-size="10.00">APA102Controller::showPixels</text>
<text text-anchor="middle" x="277.12" y="-135.88" font-family="Helvetica,sans-Serif" font-size="10.00">Default</text>
</a>
</g>
</g>
<!-- Node2&#45;&gt;Node3 -->
<g id="edge2_Node000002_Node000003" class="edge">
<title>Node2&#45;&gt;Node3</title>
<g id="a_edge2_Node000002_Node000003"><a xlink:title=" ">
<path fill="none" stroke="#63b8ff" d="M381.78,-142.3C373.72,-142.54 365.64,-142.78 357.74,-143.01"/>
<polygon fill="#63b8ff" stroke="#63b8ff" points="381.73,-145.8 391.62,-142.01 381.52,-138.81 381.73,-145.8"/>
</a>
</g>
</g>
<!-- Node5 -->
<g id="Node000005" class="node">
<title>Node5</title>
<g id="a_Node000005"><a xlink:href="../../df/d0d/group___clocked_chipsets.html#a040f761b3d3bb30a9275f96548ec5ef7" target="_top" xlink:title=" ">
<polygon fill="white" stroke="#666666" points="357.5,-110.12 196.75,-110.12 196.75,-76.62 357.5,-76.62 357.5,-110.12"/>
<text text-anchor="start" x="204.75" y="-96.62" font-family="Helvetica,sans-Serif" font-size="10.00">APA102Controller::showPixels</text>
<text text-anchor="middle" x="277.12" y="-83.88" font-family="Helvetica,sans-Serif" font-size="10.00">GammaBitShift</text>
</a>
</g>
</g>
<!-- Node2&#45;&gt;Node5 -->
<g id="edge4_Node000002_Node000005" class="edge">
<title>Node2&#45;&gt;Node5</title>
<g id="a_edge4_Node000002_Node000005"><a xlink:title=" ">
<path fill="none" stroke="#63b8ff" d="M421.62,-126.01C400.49,-121.21 376.34,-115.71 353.95,-110.62"/>
<polygon fill="#63b8ff" stroke="#63b8ff" points="420.7,-129.39 431.22,-128.2 422.25,-122.57 420.7,-129.39"/>
</a>
</g>
</g>
<!-- Node4 -->
<g id="Node000004" class="node">
<title>Node4</title>
<g id="a_Node000004"><a xlink:href="../../df/d0d/group___clocked_chipsets.html#a523f76b88c07e29cba6c40bd0cefe4b3" target="_top" xlink:title="Send the LED data to the strip.">
<polygon fill="white" stroke="#666666" points="160.75,-129.75 0,-129.75 0,-109 160.75,-109 160.75,-129.75"/>
<text text-anchor="middle" x="80.38" y="-116.25" font-family="Helvetica,sans-Serif" font-size="10.00">APA102Controller::showPixels</text>
</a>
</g>
</g>
<!-- Node3&#45;&gt;Node4 -->
<g id="edge3_Node000003_Node000004" class="edge">
<title>Node3&#45;&gt;Node4</title>
<g id="a_edge3_Node000003_Node000004"><a xlink:title=" ">
<path fill="none" stroke="#63b8ff" d="M185.06,-133.22C177.03,-132.15 168.95,-131.07 161.03,-130.01"/>
<polygon fill="#63b8ff" stroke="#63b8ff" points="184.48,-136.67 194.85,-134.52 185.4,-129.73 184.48,-136.67"/>
</a>
</g>
</g>
<!-- Node5&#45;&gt;Node4 -->
<g id="edge5_Node000005_Node000004" class="edge">
<title>Node5&#45;&gt;Node4</title>
<g id="a_edge5_Node000005_Node000004"><a xlink:title=" ">
<path fill="none" stroke="#63b8ff" d="M185.06,-105.53C177.03,-106.6 168.95,-107.68 161.03,-108.74"/>
<polygon fill="#63b8ff" stroke="#63b8ff" points="185.4,-109.02 194.85,-104.23 184.48,-102.08 185.4,-109.02"/>
</a>
</g>
</g>
<!-- Node8 -->
<g id="Node000008" class="node">
<title>Node8</title>
<g id="a_Node000008"><a xlink:href="../../df/d0d/group___clocked_chipsets.html#ab7381f0a1850d006f3449d27838b19c5" target="_top" xlink:title="Send the LED data to the strip.">
<polygon fill="white" stroke="#666666" points="354.12,-20.75 200.12,-20.75 200.12,0 354.12,0 354.12,-20.75"/>
<text text-anchor="middle" x="277.12" y="-7.25" font-family="Helvetica,sans-Serif" font-size="10.00">P9813Controller::showPixels</text>
</a>
</g>
</g>
<!-- Node7&#45;&gt;Node8 -->
<g id="edge8_Node000007_Node000008" class="edge">
<title>Node7&#45;&gt;Node8</title>
<g id="a_edge8_Node000007_Node000008"><a xlink:title=" ">
<path fill="none" stroke="#63b8ff" d="M384.24,-10.38C374.24,-10.38 364.17,-10.38 354.43,-10.38"/>
<polygon fill="#63b8ff" stroke="#63b8ff" points="383.97,-13.88 393.97,-10.38 383.97,-6.88 383.97,-13.88"/>
</a>
</g>
</g>
<!-- Node9&#45;&gt;Node3 -->
<g id="edge10_Node000009_Node000003" class="edge">
<title>Node9&#45;&gt;Node3</title>
<g id="a_edge10_Node000009_Node000003"><a xlink:title=" ">
<path fill="none" stroke="#63b8ff" d="M420.66,-113.66C400.28,-118.2 377.18,-123.34 355.61,-128.14"/>
<polygon fill="#63b8ff" stroke="#63b8ff" points="421.2,-117.13 430.2,-111.54 419.67,-110.3 421.2,-117.13"/>
</a>
</g>
</g>
<!-- Node9&#45;&gt;Node5 -->
<g id="edge11_Node000009_Node000005" class="edge">
<title>Node9&#45;&gt;Node5</title>
<g id="a_edge11_Node000009_Node000005"><a xlink:title=" ">
<path fill="none" stroke="#63b8ff" d="M395.45,-97.44C382.98,-97 370.16,-96.56 357.8,-96.13"/>
<polygon fill="#63b8ff" stroke="#63b8ff" points="395.16,-100.93 405.27,-97.78 395.4,-93.93 395.16,-100.93"/>
</a>
</g>
</g>
</g>
</svg>
