<?xml version="1.0" encoding="UTF-8" standalone="no"?>
<!DOCTYPE svg PUBLIC "-//W3C//DTD SVG 1.1//EN"
 "http://www.w3.org/Graphics/SVG/1.1/DTD/svg11.dtd">
<!-- Generated by graphviz version 12.2.1 (20241206.2353)
 -->
<!-- Title: AVRSoftwareSPIOutput::writeBit Pages: 1 -->
<svg width="236pt" height="68pt"
 viewBox="0.00 0.00 235.75 67.75" xmlns="http://www.w3.org/2000/svg" xmlns:xlink="http://www.w3.org/1999/xlink">
<g id="graph0" class="graph" transform="scale(1 1) rotate(0) translate(4 63.75)">
<title>AVRSoftwareSPIOutput::writeBit</title>
<!-- Node1 -->
<g id="Node000001" class="node">
<title>Node1</title>
<g id="a_Node000001"><a xlink:title="Write the BIT&#39;th bit out via SPI, setting the data pin then strobing the clock, using the passed in p...">
<polygon fill="#999999" stroke="#666666" points="126.25,-46.12 0,-46.12 0,-12.62 126.25,-12.62 126.25,-46.12"/>
<text text-anchor="start" x="8" y="-32.62" font-family="Helvetica,sans-Serif" font-size="10.00">AVRSoftwareSPIOutput</text>
<text text-anchor="middle" x="63.12" y="-19.88" font-family="Helvetica,sans-Serif" font-size="10.00">::writeBit</text>
</a>
</g>
</g>
<!-- Node2 -->
<g id="Node000002" class="node">
<title>Node2</title>
<g id="a_Node000002"><a xlink:href="../../db/d3b/class_fast_pin.html#add52474362013eb37903fc832e2abdc2" target="_top" xlink:title="Set the pin state to HIGH">
<polygon fill="white" stroke="#666666" points="227.75,-59.75 162.25,-59.75 162.25,-39 227.75,-39 227.75,-59.75"/>
<text text-anchor="middle" x="195" y="-46.25" font-family="Helvetica,sans-Serif" font-size="10.00">FastPin::hi</text>
</a>
</g>
</g>
<!-- Node1&#45;&gt;Node2 -->
<g id="edge1_Node000001_Node000002" class="edge">
<title>Node1&#45;&gt;Node2</title>
<g id="a_edge1_Node000001_Node000002"><a xlink:title=" ">
<path fill="none" stroke="#63b8ff" d="M126.4,-38.96C134.53,-40.22 142.71,-41.48 150.44,-42.67"/>
<polygon fill="#63b8ff" stroke="#63b8ff" points="149.84,-46.12 160.26,-44.18 150.91,-39.2 149.84,-46.12"/>
</a>
</g>
</g>
<!-- Node3 -->
<g id="Node000003" class="node">
<title>Node3</title>
<g id="a_Node000003"><a xlink:href="../../db/d3b/class_fast_pin.html#aa7420ec06218b5201f7f54cf6f4bfb86" target="_top" xlink:title="Set the pin state to LOW">
<polygon fill="white" stroke="#666666" points="227.75,-20.75 162.25,-20.75 162.25,0 227.75,0 227.75,-20.75"/>
<text text-anchor="middle" x="195" y="-7.25" font-family="Helvetica,sans-Serif" font-size="10.00">FastPin::lo</text>
</a>
</g>
</g>
<!-- Node1&#45;&gt;Node3 -->
<g id="edge2_Node000001_Node000003" class="edge">
<title>Node1&#45;&gt;Node3</title>
<g id="a_edge2_Node000001_Node000003"><a xlink:title=" ">
<path fill="none" stroke="#63b8ff" d="M126.4,-20.26C134.53,-19.08 142.71,-17.88 150.44,-16.75"/>
<polygon fill="#63b8ff" stroke="#63b8ff" points="150.87,-20.22 160.26,-15.31 149.85,-13.3 150.87,-20.22"/>
</a>
</g>
</g>
</g>
</svg>
