<?xml version="1.0" encoding="UTF-8" standalone="no"?>
<!DOCTYPE svg PUBLIC "-//W3C//DTD SVG 1.1//EN"
 "http://www.w3.org/Graphics/SVG/1.1/DTD/svg11.dtd">
<!-- Generated by graphviz version 12.2.1 (20241206.2353)
 -->
<!-- Title: AVRSoftwareSPIOutput::writeBit Pages: 1 -->
<svg width="883pt" height="700pt"
 viewBox="0.00 0.00 883.00 699.50" xmlns="http://www.w3.org/2000/svg" xmlns:xlink="http://www.w3.org/1999/xlink">
<g id="graph0" class="graph" transform="scale(1 1) rotate(0) translate(4 695.5)">
<title>AVRSoftwareSPIOutput::writeBit</title>
<!-- Node1 -->
<g id="Node000001" class="node">
<title>Node1</title>
<g id="a_Node000001"><a xlink:title="Write the BIT&#39;th bit out via SPI, setting the data pin then strobing the clock.">
<polygon fill="#999999" stroke="#666666" points="875,-256.5 748.75,-256.5 748.75,-223 875,-223 875,-256.5"/>
<text text-anchor="start" x="756.75" y="-243" font-family="Helvetica,sans-Serif" font-size="10.00">AVRSoftwareSPIOutput</text>
<text text-anchor="middle" x="811.88" y="-230.25" font-family="Helvetica,sans-Serif" font-size="10.00">::writeBit</text>
</a>
</g>
</g>
<!-- Node2 -->
<g id="Node000002" class="node">
<title>Node2</title>
<g id="a_Node000002"><a xlink:href="../../dc/d57/class_a_v_r_software_s_p_i_output.html#a4c5578242dfaf8d6713ec432d6985187" target="_top" xlink:title="The version of writeBit() to use when clock and data are on the same port with precomputed values for...">
<polygon fill="white" stroke="#666666" points="712.75,-376.5 586.5,-376.5 586.5,-343 712.75,-343 712.75,-376.5"/>
<text text-anchor="start" x="594.5" y="-363" font-family="Helvetica,sans-Serif" font-size="10.00">AVRSoftwareSPIOutput</text>
<text text-anchor="middle" x="649.62" y="-350.25" font-family="Helvetica,sans-Serif" font-size="10.00">::writeBit</text>
</a>
</g>
</g>
<!-- Node1&#45;&gt;Node2 -->
<g id="edge1_Node000001_Node000002" class="edge">
<title>Node1&#45;&gt;Node2</title>
<g id="a_edge1_Node000001_Node000002"><a xlink:title=" ">
<path fill="none" stroke="#63b8ff" d="M789.17,-265.21C770.55,-285.82 742.14,-314.49 712.75,-333.75 707.86,-336.95 702.51,-339.9 697.07,-342.56"/>
<polygon fill="#63b8ff" stroke="#63b8ff" points="791.74,-267.58 795.76,-257.78 786.51,-262.94 791.74,-267.58"/>
</a>
</g>
</g>
<!-- Node3 -->
<g id="Node000003" class="node">
<title>Node3</title>
<g id="a_Node000003"><a xlink:href="../../dc/d57/class_a_v_r_software_s_p_i_output.html#a58393081ec8c54bd6968642b89e8bd43" target="_top" xlink:title="Write a single byte over SPI.">
<polygon fill="white" stroke="#666666" points="712.75,-324.5 586.5,-324.5 586.5,-291 712.75,-291 712.75,-324.5"/>
<text text-anchor="start" x="594.5" y="-311" font-family="Helvetica,sans-Serif" font-size="10.00">AVRSoftwareSPIOutput</text>
<text text-anchor="middle" x="649.62" y="-298.25" font-family="Helvetica,sans-Serif" font-size="10.00">::writeByte</text>
</a>
</g>
</g>
<!-- Node1&#45;&gt;Node3 -->
<g id="edge2_Node000001_Node000003" class="edge">
<title>Node1&#45;&gt;Node3</title>
<g id="a_edge2_Node000001_Node000003"><a xlink:title=" ">
<path fill="none" stroke="#63b8ff" d="M759.84,-261.41C737.61,-270.84 711.92,-281.74 691.05,-290.6"/>
<polygon fill="#63b8ff" stroke="#63b8ff" points="761.21,-264.63 769.04,-257.5 758.47,-258.18 761.21,-264.63"/>
</a>
</g>
</g>
<!-- Node24 -->
<g id="Node000024" class="node">
<title>Node24</title>
<g id="a_Node000024"><a xlink:href="../../dc/d57/class_a_v_r_software_s_p_i_output.html#a20772a8fdfa75015731375c36ccb3515" target="_top" xlink:title="Write LED pixel data to the SPI interface.">
<polygon fill="white" stroke="#666666" points="542.62,-33.5 416.38,-33.5 416.38,0 542.62,0 542.62,-33.5"/>
<text text-anchor="start" x="424.38" y="-20" font-family="Helvetica,sans-Serif" font-size="10.00">AVRSoftwareSPIOutput</text>
<text text-anchor="middle" x="479.5" y="-7.25" font-family="Helvetica,sans-Serif" font-size="10.00">::writePixels</text>
</a>
</g>
</g>
<!-- Node1&#45;&gt;Node24 -->
<g id="edge38_Node000001_Node000024" class="edge">
<title>Node1&#45;&gt;Node24</title>
<g id="a_edge38_Node000001_Node000024"><a xlink:title=" ">
<path fill="none" stroke="#63b8ff" d="M752.36,-260.01C702.51,-273.22 631.92,-281.76 586.5,-243.75 516.9,-185.51 608.7,-112.39 550.5,-42.75 547.67,-39.37 544.36,-36.43 540.75,-33.87"/>
<polygon fill="#63b8ff" stroke="#63b8ff" points="753.15,-263.42 761.84,-257.36 751.27,-256.68 753.15,-263.42"/>
</a>
</g>
</g>
<!-- Node28 -->
<g id="Node000028" class="node">
<title>Node28</title>
<g id="a_Node000028"><a xlink:href="../../dc/d57/class_a_v_r_software_s_p_i_output.html#a0c8dbe47347851f226a525db7262c786" target="_top" xlink:title="writeByte() implementation with data/clock registers passed in.">
<polygon fill="white" stroke="#666666" points="712.75,-234.5 586.5,-234.5 586.5,-201 712.75,-201 712.75,-234.5"/>
<text text-anchor="start" x="594.5" y="-221" font-family="Helvetica,sans-Serif" font-size="10.00">AVRSoftwareSPIOutput</text>
<text text-anchor="middle" x="649.62" y="-208.25" font-family="Helvetica,sans-Serif" font-size="10.00">::writeByte</text>
</a>
</g>
</g>
<!-- Node1&#45;&gt;Node28 -->
<g id="edge35_Node000001_Node000028" class="edge">
<title>Node1&#45;&gt;Node28</title>
<g id="a_edge35_Node000001_Node000028"><a xlink:title=" ">
<path fill="none" stroke="#63b8ff" d="M737.19,-229.63C729.15,-228.53 721.02,-227.41 713.13,-226.33"/>
<polygon fill="#63b8ff" stroke="#63b8ff" points="736.58,-233.08 746.96,-230.98 737.53,-226.15 736.58,-233.08"/>
</a>
</g>
</g>
<!-- Node29 -->
<g id="Node000029" class="node">
<title>Node29</title>
<g id="a_Node000029"><a xlink:href="../../dc/d57/class_a_v_r_software_s_p_i_output.html#aa0d0d1b56c6a174ff85e36c9ec06c7bf" target="_top" xlink:title="writeByte() implementation with not just registers passed in, but pre&#45;baked values for said registers...">
<polygon fill="white" stroke="#666666" points="712.75,-182.5 586.5,-182.5 586.5,-149 712.75,-149 712.75,-182.5"/>
<text text-anchor="start" x="594.5" y="-169" font-family="Helvetica,sans-Serif" font-size="10.00">AVRSoftwareSPIOutput</text>
<text text-anchor="middle" x="649.62" y="-156.25" font-family="Helvetica,sans-Serif" font-size="10.00">::writeByte</text>
</a>
</g>
</g>
<!-- Node1&#45;&gt;Node29 -->
<g id="edge36_Node000001_Node000029" class="edge">
<title>Node1&#45;&gt;Node29</title>
<g id="a_edge36_Node000001_Node000029"><a xlink:title=" ">
<path fill="none" stroke="#63b8ff" d="M766.94,-217.58C750.09,-209.25 730.63,-199.86 712.75,-191.75 706.25,-188.81 699.33,-185.79 692.54,-182.9"/>
<polygon fill="#63b8ff" stroke="#63b8ff" points="765.18,-220.61 775.69,-221.92 768.29,-214.34 765.18,-220.61"/>
</a>
</g>
</g>
<!-- Node30 -->
<g id="Node000030" class="node">
<title>Node30</title>
<g id="a_Node000030"><a xlink:href="../../dc/d57/class_a_v_r_software_s_p_i_output.html#a4bf20050509ed87b15c4df4070d000b6" target="_top" xlink:title="writeByte() implementation with the data register passed in and prebaked values for data hi w/clock h...">
<polygon fill="white" stroke="#666666" points="712.75,-130.5 586.5,-130.5 586.5,-97 712.75,-97 712.75,-130.5"/>
<text text-anchor="start" x="594.5" y="-117" font-family="Helvetica,sans-Serif" font-size="10.00">AVRSoftwareSPIOutput</text>
<text text-anchor="middle" x="649.62" y="-104.25" font-family="Helvetica,sans-Serif" font-size="10.00">::writeByte</text>
</a>
</g>
</g>
<!-- Node1&#45;&gt;Node30 -->
<g id="edge37_Node000001_Node000030" class="edge">
<title>Node1&#45;&gt;Node30</title>
<g id="a_edge37_Node000001_Node000030"><a xlink:title=" ">
<path fill="none" stroke="#63b8ff" d="M790.69,-214.03C772.3,-191.96 743.41,-160.53 712.75,-139.75 708.01,-136.54 702.8,-133.6 697.49,-130.95"/>
<polygon fill="#63b8ff" stroke="#63b8ff" points="787.91,-216.15 796.95,-221.68 793.33,-211.72 787.91,-216.15"/>
</a>
</g>
</g>
<!-- Node4 -->
<g id="Node000004" class="node">
<title>Node4</title>
<g id="a_Node000004"><a xlink:href="../../df/d0d/group___clocked_chipsets.html#ac9676b78658ebcab74033429c5c046f8" target="_top" xlink:title=" ">
<polygon fill="white" stroke="#666666" points="370.25,-484.12 199,-484.12 199,-463.38 370.25,-463.38 370.25,-484.12"/>
<text text-anchor="middle" x="284.62" y="-470.62" font-family="Helvetica,sans-Serif" font-size="10.00">APA102Controller::endBoundary</text>
</a>
</g>
</g>
<!-- Node3&#45;&gt;Node4 -->
<g id="edge3_Node000003_Node000004" class="edge">
<title>Node3&#45;&gt;Node4</title>
<g id="a_edge3_Node000003_Node000004"><a xlink:title=" ">
<path fill="none" stroke="#63b8ff" d="M588.28,-331.9C587.67,-332.5 587.08,-333.12 586.5,-333.75 550.43,-373.34 592.12,-415.04 550.5,-448.75 491.1,-496.86 397.8,-493.22 339.26,-484.62"/>
<polygon fill="#63b8ff" stroke="#63b8ff" points="590.24,-334.81 595.83,-325.81 585.85,-329.36 590.24,-334.81"/>
</a>
</g>
</g>
<!-- Node8 -->
<g id="Node000008" class="node">
<title>Node8</title>
<g id="a_Node000008"><a xlink:href="../../df/d0d/group___clocked_chipsets.html#ab927434d5ab7d27132e4b6832a50a29e" target="_top" xlink:title=" ">
<polygon fill="white" stroke="#666666" points="535.88,-241.5 423.12,-241.5 423.12,-208 535.88,-208 535.88,-241.5"/>
<text text-anchor="start" x="431.12" y="-228" font-family="Helvetica,sans-Serif" font-size="10.00">LPD6803Controller::</text>
<text text-anchor="middle" x="479.5" y="-215.25" font-family="Helvetica,sans-Serif" font-size="10.00">endBoundary</text>
</a>
</g>
</g>
<!-- Node3&#45;&gt;Node8 -->
<g id="edge6_Node000003_Node000008" class="edge">
<title>Node3&#45;&gt;Node8</title>
<g id="a_edge6_Node000003_Node000008"><a xlink:title=" ">
<path fill="none" stroke="#63b8ff" d="M603.19,-285.51C597.54,-282.62 591.87,-279.65 586.5,-276.75 570.2,-267.94 566.99,-264.18 550.5,-255.75 541.15,-250.97 530.91,-246.19 521.21,-241.86"/>
<polygon fill="#63b8ff" stroke="#63b8ff" points="601.41,-288.53 611.91,-289.92 604.57,-282.28 601.41,-288.53"/>
</a>
</g>
</g>
<!-- Node9 -->
<g id="Node000009" class="node">
<title>Node9</title>
<g id="a_Node000009"><a xlink:href="../../df/d0d/group___clocked_chipsets.html#a35f42384ada050146e6813f0fc766356" target="_top" xlink:title="Send the LED data to the strip.">
<polygon fill="white" stroke="#666666" points="341,-238.5 228.25,-238.5 228.25,-205 341,-205 341,-238.5"/>
<text text-anchor="start" x="236.25" y="-225" font-family="Helvetica,sans-Serif" font-size="10.00">LPD6803Controller::</text>
<text text-anchor="middle" x="284.62" y="-212.25" font-family="Helvetica,sans-Serif" font-size="10.00">showPixels</text>
</a>
</g>
</g>
<!-- Node3&#45;&gt;Node9 -->
<g id="edge8_Node000003_Node000009" class="edge">
<title>Node3&#45;&gt;Node9</title>
<g id="a_edge8_Node000003_Node000009"><a xlink:title=" ">
<path fill="none" stroke="#63b8ff" d="M575.42,-290.41C506.25,-274.02 404,-249.8 341.27,-234.93"/>
<polygon fill="#63b8ff" stroke="#63b8ff" points="574.21,-293.72 584.75,-292.62 575.83,-286.91 574.21,-293.72"/>
</a>
</g>
</g>
<!-- Node10 -->
<g id="Node000010" class="node">
<title>Node10</title>
<g id="a_Node000010"><a xlink:href="../../df/d0d/group___clocked_chipsets.html#a60fc5e3173df1c494951fbdd852969aa" target="_top" xlink:title=" ">
<polygon fill="white" stroke="#666666" points="535.88,-189.5 423.12,-189.5 423.12,-156 535.88,-156 535.88,-189.5"/>
<text text-anchor="start" x="431.12" y="-176" font-family="Helvetica,sans-Serif" font-size="10.00">LPD6803Controller::</text>
<text text-anchor="middle" x="479.5" y="-163.25" font-family="Helvetica,sans-Serif" font-size="10.00">startBoundary</text>
</a>
</g>
</g>
<!-- Node3&#45;&gt;Node10 -->
<g id="edge9_Node000003_Node000010" class="edge">
<title>Node3&#45;&gt;Node10</title>
<g id="a_edge9_Node000003_Node000010"><a xlink:title=" ">
<path fill="none" stroke="#63b8ff" d="M595.04,-284.22C591.98,-281.92 589.1,-279.43 586.5,-276.75 559.92,-249.34 578.51,-224.69 550.5,-198.75 546.22,-194.79 541.28,-191.41 536.05,-188.54"/>
<polygon fill="#63b8ff" stroke="#63b8ff" points="593.1,-287.13 603.37,-289.73 596.96,-281.29 593.1,-287.13"/>
</a>
</g>
</g>
<!-- Node11 -->
<g id="Node000011" class="node">
<title>Node11</title>
<g id="a_Node000011"><a xlink:href="../../df/d0d/group___clocked_chipsets.html#a2516bc6ae0059f28287e7fc6b8fd266f" target="_top" xlink:title=" ">
<polygon fill="white" stroke="#666666" points="353.38,-328.5 215.88,-328.5 215.88,-295 353.38,-295 353.38,-328.5"/>
<text text-anchor="start" x="223.88" y="-315" font-family="Helvetica,sans-Serif" font-size="10.00">APA102Controller::write2</text>
<text text-anchor="middle" x="284.62" y="-302.25" font-family="Helvetica,sans-Serif" font-size="10.00">Bytes</text>
</a>
</g>
</g>
<!-- Node3&#45;&gt;Node11 -->
<g id="edge11_Node000003_Node000011" class="edge">
<title>Node3&#45;&gt;Node11</title>
<g id="a_edge11_Node000003_Node000011"><a xlink:title=" ">
<path fill="none" stroke="#63b8ff" d="M574.94,-323.59C566.73,-324.88 558.46,-325.99 550.5,-326.75 487.68,-332.78 471.49,-330.58 408.5,-326.75 390.7,-325.67 371.52,-323.71 353.73,-321.56"/>
<polygon fill="#63b8ff" stroke="#63b8ff" points="575.3,-327.08 584.58,-321.96 574.13,-320.17 575.3,-327.08"/>
</a>
</g>
</g>
<!-- Node12 -->
<g id="Node000012" class="node">
<title>Node12</title>
<g id="a_Node000012"><a xlink:href="../../dc/d57/class_a_v_r_software_s_p_i_output.html#ad5f106b07a655da37d889037f524617d" target="_top" xlink:title="Write a single byte over SPI without waiting.">
<polygon fill="white" stroke="#666666" points="542.62,-137.5 416.38,-137.5 416.38,-104 542.62,-104 542.62,-137.5"/>
<text text-anchor="start" x="424.38" y="-124" font-family="Helvetica,sans-Serif" font-size="10.00">AVRSoftwareSPIOutput</text>
<text text-anchor="middle" x="479.5" y="-111.25" font-family="Helvetica,sans-Serif" font-size="10.00">::writeByteNoWait</text>
</a>
</g>
</g>
<!-- Node3&#45;&gt;Node12 -->
<g id="edge12_Node000003_Node000012" class="edge">
<title>Node3&#45;&gt;Node12</title>
<g id="a_edge12_Node000003_Node000012"><a xlink:title=" ">
<path fill="none" stroke="#63b8ff" d="M593.84,-284.12C591.17,-281.86 588.69,-279.41 586.5,-276.75 548.38,-230.48 591.04,-190.92 550.5,-146.75 547.43,-143.41 543.89,-140.49 540.07,-137.95"/>
<polygon fill="#63b8ff" stroke="#63b8ff" points="591.53,-286.77 601.69,-289.8 595.63,-281.1 591.53,-286.77"/>
</a>
</g>
</g>
<!-- Node13 -->
<g id="Node000013" class="node">
<title>Node13</title>
<g id="a_Node000013"><a xlink:href="../../dc/d57/class_a_v_r_software_s_p_i_output.html#a80903ee9d3226ced43e8f614a9e486b1" target="_top" xlink:title="Write a single byte over SPI and wait afterwards.">
<polygon fill="white" stroke="#666666" points="542.62,-85.5 416.38,-85.5 416.38,-52 542.62,-52 542.62,-85.5"/>
<text text-anchor="start" x="424.38" y="-72" font-family="Helvetica,sans-Serif" font-size="10.00">AVRSoftwareSPIOutput</text>
<text text-anchor="middle" x="479.5" y="-59.25" font-family="Helvetica,sans-Serif" font-size="10.00">::writeBytePostWait</text>
</a>
</g>
</g>
<!-- Node3&#45;&gt;Node13 -->
<g id="edge13_Node000003_Node000013" class="edge">
<title>Node3&#45;&gt;Node13</title>
<g id="a_edge13_Node000003_Node000013"><a xlink:title=" ">
<path fill="none" stroke="#63b8ff" d="M593.09,-283.85C590.68,-281.67 588.45,-279.31 586.5,-276.75 536.49,-211.19 603.95,-157.54 550.5,-94.75 547.64,-91.39 544.31,-88.47 540.68,-85.92"/>
<polygon fill="#63b8ff" stroke="#63b8ff" points="590.64,-286.39 600.72,-289.66 594.88,-280.82 590.64,-286.39"/>
</a>
</g>
</g>
<!-- Node14 -->
<g id="Node000014" class="node">
<title>Node14</title>
<g id="a_Node000014"><a xlink:href="../../dc/d57/class_a_v_r_software_s_p_i_output.html#af543930d08c9ce5c8229e45be97980e9" target="_top" xlink:title="Write an array of data to the SPI interface.">
<polygon fill="white" stroke="#666666" points="542.62,-665.5 416.38,-665.5 416.38,-632 542.62,-632 542.62,-665.5"/>
<text text-anchor="start" x="424.38" y="-652" font-family="Helvetica,sans-Serif" font-size="10.00">AVRSoftwareSPIOutput</text>
<text text-anchor="middle" x="479.5" y="-639.25" font-family="Helvetica,sans-Serif" font-size="10.00">::writeBytes</text>
</a>
</g>
</g>
<!-- Node3&#45;&gt;Node14 -->
<g id="edge14_Node000003_Node000014" class="edge">
<title>Node3&#45;&gt;Node14</title>
<g id="a_edge14_Node000003_Node000014"><a xlink:title=" ">
<path fill="none" stroke="#63b8ff" d="M587.23,-332.82C586.99,-333.13 586.74,-333.44 586.5,-333.75 514.61,-427.3 610.54,-495.19 550.5,-596.75 541.95,-611.22 527.65,-622.91 514.2,-631.52"/>
<polygon fill="#63b8ff" stroke="#63b8ff" points="589.58,-335.42 594.42,-326 584.76,-330.34 589.58,-335.42"/>
</a>
</g>
</g>
<!-- Node16 -->
<g id="Node000016" class="node">
<title>Node16</title>
<g id="a_Node000016"><a xlink:href="../../dc/d57/class_a_v_r_software_s_p_i_output.html#abada62794ed922c2798bf462a98b57f0" target="_top" xlink:title="Write multiple bytes of the given value over SPI, without selecting the interface.">
<polygon fill="white" stroke="#666666" points="542.62,-587.5 416.38,-587.5 416.38,-554 542.62,-554 542.62,-587.5"/>
<text text-anchor="start" x="424.38" y="-574" font-family="Helvetica,sans-Serif" font-size="10.00">AVRSoftwareSPIOutput</text>
<text text-anchor="middle" x="479.5" y="-561.25" font-family="Helvetica,sans-Serif" font-size="10.00">::writeBytesValueRaw</text>
</a>
</g>
</g>
<!-- Node3&#45;&gt;Node16 -->
<g id="edge16_Node000003_Node000016" class="edge">
<title>Node3&#45;&gt;Node16</title>
<g id="a_edge16_Node000003_Node000016"><a xlink:title=" ">
<path fill="none" stroke="#63b8ff" d="M587.53,-332.5C587.18,-332.91 586.84,-333.33 586.5,-333.75 527.3,-408.22 611.21,-471.5 550.5,-544.75 547.69,-548.14 544.39,-551.09 540.78,-553.66"/>
<polygon fill="#63b8ff" stroke="#63b8ff" points="589.78,-335.19 594.81,-325.86 585.06,-330.02 589.78,-335.19"/>
</a>
</g>
</g>
<!-- Node19 -->
<g id="Node000019" class="node">
<title>Node19</title>
<g id="a_Node000019"><a xlink:href="../../df/d0d/group___clocked_chipsets.html#a3e9e62e92d3f9e175b43e28dbb2254e9" target="_top" xlink:title=" ">
<polygon fill="white" stroke="#666666" points="537,-535.5 422,-535.5 422,-502 537,-502 537,-535.5"/>
<text text-anchor="start" x="430" y="-522" font-family="Helvetica,sans-Serif" font-size="10.00">SM16716Controller::</text>
<text text-anchor="middle" x="479.5" y="-509.25" font-family="Helvetica,sans-Serif" font-size="10.00">writeHeader</text>
</a>
</g>
</g>
<!-- Node3&#45;&gt;Node19 -->
<g id="edge19_Node000003_Node000019" class="edge">
<title>Node3&#45;&gt;Node19</title>
<g id="a_edge19_Node000003_Node000019"><a xlink:title=" ">
<path fill="none" stroke="#63b8ff" d="M587.88,-332.19C587.41,-332.7 586.95,-333.22 586.5,-333.75 541.11,-387.42 595.34,-433.62 550.5,-487.75 545.92,-493.28 540.16,-497.85 533.92,-501.63"/>
<polygon fill="#63b8ff" stroke="#63b8ff" points="590,-334.99 595.29,-325.81 585.43,-329.68 590,-334.99"/>
</a>
</g>
</g>
<!-- Node21 -->
<g id="Node000021" class="node">
<title>Node21</title>
<g id="a_Node000021"><a xlink:href="../../df/d0d/group___clocked_chipsets.html#a3e85825537bbd044569052476051a970" target="_top" xlink:title=" ">
<polygon fill="white" stroke="#666666" points="359,-445.12 210.25,-445.12 210.25,-424.38 359,-424.38 359,-445.12"/>
<text text-anchor="middle" x="284.62" y="-431.62" font-family="Helvetica,sans-Serif" font-size="10.00">APA102Controller::writeLed</text>
</a>
</g>
</g>
<!-- Node3&#45;&gt;Node21 -->
<g id="edge21_Node000003_Node000021" class="edge">
<title>Node3&#45;&gt;Node21</title>
<g id="a_edge21_Node000003_Node000021"><a xlink:title=" ">
<path fill="none" stroke="#63b8ff" d="M588.81,-331.6C588.02,-332.3 587.25,-333.01 586.5,-333.75 557.89,-362 583.35,-393.56 550.5,-416.75 487.15,-461.47 392.66,-455.19 335.32,-445.62"/>
<polygon fill="#63b8ff" stroke="#63b8ff" points="590.79,-334.48 596.77,-325.73 586.64,-328.85 590.79,-334.48"/>
</a>
</g>
</g>
<!-- Node22 -->
<g id="Node000022" class="node">
<title>Node22</title>
<g id="a_Node000022"><a xlink:href="../../df/d0d/group___clocked_chipsets.html#a153192c5ed8e28168bcb4179ed80598c" target="_top" xlink:title=" ">
<polygon fill="white" stroke="#666666" points="550.5,-318.12 408.5,-318.12 408.5,-297.38 550.5,-297.38 550.5,-318.12"/>
<text text-anchor="middle" x="479.5" y="-304.62" font-family="Helvetica,sans-Serif" font-size="10.00">P9813Controller::writeLed</text>
</a>
</g>
</g>
<!-- Node3&#45;&gt;Node22 -->
<g id="edge24_Node000003_Node000022" class="edge">
<title>Node3&#45;&gt;Node22</title>
<g id="a_edge24_Node000003_Node000022"><a xlink:title=" ">
<path fill="none" stroke="#63b8ff" d="M574.57,-307.75C566.67,-307.75 558.65,-307.75 550.79,-307.75"/>
<polygon fill="#63b8ff" stroke="#63b8ff" points="574.51,-311.25 584.51,-307.75 574.51,-304.25 574.51,-311.25"/>
</a>
</g>
</g>
<!-- Node3&#45;&gt;Node24 -->
<g id="edge26_Node000003_Node000024" class="edge">
<title>Node3&#45;&gt;Node24</title>
<g id="a_edge26_Node000003_Node000024"><a xlink:title=" ">
<path fill="none" stroke="#63b8ff" d="M592.37,-283.4C590.22,-281.35 588.24,-279.14 586.5,-276.75 524.48,-191.75 616.98,-124.31 550.5,-42.75 547.72,-39.33 544.44,-36.37 540.84,-33.79"/>
<polygon fill="#63b8ff" stroke="#63b8ff" points="590.2,-286.15 600.21,-289.6 594.54,-280.65 590.2,-286.15"/>
</a>
</g>
</g>
<!-- Node25 -->
<g id="Node000025" class="node">
<title>Node25</title>
<g id="a_Node000025"><a xlink:href="../../dc/d57/class_a_v_r_software_s_p_i_output.html#a34421832d232a692d08d39d87733acd8" target="_top" xlink:title="Write a word (two bytes) over SPI.">
<polygon fill="white" stroke="#666666" points="542.62,-407.5 416.38,-407.5 416.38,-374 542.62,-374 542.62,-407.5"/>
<text text-anchor="start" x="424.38" y="-394" font-family="Helvetica,sans-Serif" font-size="10.00">AVRSoftwareSPIOutput</text>
<text text-anchor="middle" x="479.5" y="-381.25" font-family="Helvetica,sans-Serif" font-size="10.00">::writeWord</text>
</a>
</g>
</g>
<!-- Node3&#45;&gt;Node25 -->
<g id="edge27_Node000003_Node000025" class="edge">
<title>Node3&#45;&gt;Node25</title>
<g id="a_edge27_Node000003_Node000025"><a xlink:title=" ">
<path fill="none" stroke="#63b8ff" d="M594.09,-329.72C591.5,-331.03 588.95,-332.37 586.5,-333.75 569.28,-343.4 567.62,-349.92 550.5,-359.75 541.86,-364.71 532.27,-369.43 523.03,-373.62"/>
<polygon fill="#63b8ff" stroke="#63b8ff" points="595.37,-332.98 602.88,-325.5 592.35,-326.67 595.37,-332.98"/>
</a>
</g>
</g>
<!-- Node5 -->
<g id="Node000005" class="node">
<title>Node5</title>
<g id="a_Node000005"><a xlink:href="../../df/d0d/group___clocked_chipsets.html#a632117bec47c6b4ba7e3ed1703478a42" target="_top" xlink:title=" ">
<polygon fill="#fff0f0" stroke="red" points="160.75,-425.5 0,-425.5 0,-392 160.75,-392 160.75,-425.5"/>
<text text-anchor="start" x="8" y="-412" font-family="Helvetica,sans-Serif" font-size="10.00">APA102Controller::showPixels</text>
<text text-anchor="middle" x="80.38" y="-399.25" font-family="Helvetica,sans-Serif" font-size="10.00">Default</text>
</a>
</g>
</g>
<!-- Node4&#45;&gt;Node5 -->
<g id="edge4_Node000004_Node000005" class="edge">
<title>Node4&#45;&gt;Node5</title>
<g id="a_edge4_Node000004_Node000005"><a xlink:title=" ">
<path fill="none" stroke="#63b8ff" d="M215.9,-459.97C209.36,-458.1 202.88,-456.03 196.75,-453.75 179.79,-447.45 177.41,-441.81 160.75,-434.75 153.41,-431.64 145.56,-428.66 137.75,-425.91"/>
<polygon fill="#63b8ff" stroke="#63b8ff" points="214.89,-463.33 225.46,-462.54 216.71,-456.57 214.89,-463.33"/>
</a>
</g>
</g>
<!-- Node7 -->
<g id="Node000007" class="node">
<title>Node7</title>
<g id="a_Node000007"><a xlink:href="../../df/d0d/group___clocked_chipsets.html#a040f761b3d3bb30a9275f96548ec5ef7" target="_top" xlink:title=" ">
<polygon fill="#fff0f0" stroke="red" points="160.75,-477.5 0,-477.5 0,-444 160.75,-444 160.75,-477.5"/>
<text text-anchor="start" x="8" y="-464" font-family="Helvetica,sans-Serif" font-size="10.00">APA102Controller::showPixels</text>
<text text-anchor="middle" x="80.38" y="-451.25" font-family="Helvetica,sans-Serif" font-size="10.00">GammaBitShift</text>
</a>
</g>
</g>
<!-- Node4&#45;&gt;Node7 -->
<g id="edge5_Node000004_Node000007" class="edge">
<title>Node4&#45;&gt;Node7</title>
<g id="a_edge5_Node000004_Node000007"><a xlink:title=" ">
<path fill="none" stroke="#63b8ff" d="M187.3,-467.56C178.56,-467 169.78,-466.43 161.21,-465.88"/>
<polygon fill="#63b8ff" stroke="#63b8ff" points="187.02,-471.05 197.22,-468.2 187.47,-464.06 187.02,-471.05"/>
</a>
</g>
</g>
<!-- Node8&#45;&gt;Node9 -->
<g id="edge7_Node000008_Node000009" class="edge">
<title>Node8&#45;&gt;Node9</title>
<g id="a_edge7_Node000008_Node000009"><a xlink:title=" ">
<path fill="none" stroke="#63b8ff" d="M411.35,-223.71C388.47,-223.35 363.16,-222.96 341.29,-222.62"/>
<polygon fill="#63b8ff" stroke="#63b8ff" points="411.15,-227.2 421.2,-223.86 411.25,-220.2 411.15,-227.2"/>
</a>
</g>
</g>
<!-- Node10&#45;&gt;Node9 -->
<g id="edge10_Node000010_Node000009" class="edge">
<title>Node10&#45;&gt;Node9</title>
<g id="a_edge10_Node000010_Node000009"><a xlink:title=" ">
<path fill="none" stroke="#63b8ff" d="M411.67,-189.73C388.7,-195.56 363.26,-202.03 341.29,-207.61"/>
<polygon fill="#63b8ff" stroke="#63b8ff" points="412.42,-193.15 421.25,-187.3 410.69,-186.37 412.42,-193.15"/>
</a>
</g>
</g>
<!-- Node15 -->
<g id="Node000015" class="node">
<title>Node15</title>
<g id="a_Node000015"><a xlink:href="../../dc/d57/class_a_v_r_software_s_p_i_output.html#a8e0f5d9fd6f2c1e1eab4436c1b5cb23a" target="_top" xlink:title="Write an array of data to the SPI interface.">
<polygon fill="white" stroke="#666666" points="347.75,-691.5 221.5,-691.5 221.5,-658 347.75,-658 347.75,-691.5"/>
<text text-anchor="start" x="229.5" y="-678" font-family="Helvetica,sans-Serif" font-size="10.00">AVRSoftwareSPIOutput</text>
<text text-anchor="middle" x="284.62" y="-665.25" font-family="Helvetica,sans-Serif" font-size="10.00">::writeBytes</text>
</a>
</g>
</g>
<!-- Node14&#45;&gt;Node15 -->
<g id="edge15_Node000014_Node000015" class="edge">
<title>Node14&#45;&gt;Node15</title>
<g id="a_edge15_Node000014_Node000015"><a xlink:title=" ">
<path fill="none" stroke="#63b8ff" d="M404.71,-658.7C385.97,-661.22 366.03,-663.91 347.93,-666.35"/>
<polygon fill="#63b8ff" stroke="#63b8ff" points="404.94,-662.2 414.38,-657.39 404,-655.26 404.94,-662.2"/>
</a>
</g>
</g>
<!-- Node17 -->
<g id="Node000017" class="node">
<title>Node17</title>
<g id="a_Node000017"><a xlink:href="../../df/d0d/group___clocked_chipsets.html#a8e402dc154857e5c6b62bffe0372e856" target="_top" xlink:title=" ">
<polygon fill="white" stroke="#666666" points="361.62,-587.5 207.62,-587.5 207.62,-554 361.62,-554 361.62,-587.5"/>
<text text-anchor="start" x="215.62" y="-574" font-family="Helvetica,sans-Serif" font-size="10.00">LPD8806Controller::</text>
<text text-anchor="middle" x="284.62" y="-561.25" font-family="Helvetica,sans-Serif" font-size="10.00">LPD8806_ADJUST::postBlock</text>
</a>
</g>
</g>
<!-- Node16&#45;&gt;Node17 -->
<g id="edge17_Node000016_Node000017" class="edge">
<title>Node16&#45;&gt;Node17</title>
<g id="a_edge17_Node000016_Node000017"><a xlink:title=" ">
<path fill="none" stroke="#63b8ff" d="M404.41,-570.75C390.54,-570.75 376.02,-570.75 362.08,-570.75"/>
<polygon fill="#63b8ff" stroke="#63b8ff" points="404.37,-574.25 414.37,-570.75 404.37,-567.25 404.37,-574.25"/>
</a>
</g>
</g>
<!-- Node18 -->
<g id="Node000018" class="node">
<title>Node18</title>
<g id="a_Node000018"><a xlink:href="../../dc/d57/class_a_v_r_software_s_p_i_output.html#ac4ffa7160697ac63bbd7734b480308bc" target="_top" xlink:title="Write multiple bytes of the given value over SPI.">
<polygon fill="white" stroke="#666666" points="347.75,-639.5 221.5,-639.5 221.5,-606 347.75,-606 347.75,-639.5"/>
<text text-anchor="start" x="229.5" y="-626" font-family="Helvetica,sans-Serif" font-size="10.00">AVRSoftwareSPIOutput</text>
<text text-anchor="middle" x="284.62" y="-613.25" font-family="Helvetica,sans-Serif" font-size="10.00">::writeBytesValue</text>
</a>
</g>
</g>
<!-- Node16&#45;&gt;Node18 -->
<g id="edge18_Node000016_Node000018" class="edge">
<title>Node16&#45;&gt;Node18</title>
<g id="a_edge18_Node000016_Node000018"><a xlink:title=" ">
<path fill="none" stroke="#63b8ff" d="M404.97,-590.57C386.16,-595.65 366.12,-601.05 347.93,-605.95"/>
<polygon fill="#63b8ff" stroke="#63b8ff" points="405.67,-594.01 414.42,-588.03 403.85,-587.25 405.67,-594.01"/>
</a>
</g>
</g>
<!-- Node20 -->
<g id="Node000020" class="node">
<title>Node20</title>
<g id="a_Node000020"><a xlink:href="../../df/d0d/group___clocked_chipsets.html#a2b68d483e7422d26d31586ca7791d7af" target="_top" xlink:title="Send the LED data to the strip.">
<polygon fill="white" stroke="#666666" points="342.12,-535.5 227.12,-535.5 227.12,-502 342.12,-502 342.12,-535.5"/>
<text text-anchor="start" x="235.12" y="-522" font-family="Helvetica,sans-Serif" font-size="10.00">SM16716Controller::</text>
<text text-anchor="middle" x="284.62" y="-509.25" font-family="Helvetica,sans-Serif" font-size="10.00">showPixels</text>
</a>
</g>
</g>
<!-- Node19&#45;&gt;Node20 -->
<g id="edge20_Node000019_Node000020" class="edge">
<title>Node19&#45;&gt;Node20</title>
<g id="a_edge20_Node000019_Node000020"><a xlink:title=" ">
<path fill="none" stroke="#63b8ff" d="M410.28,-518.75C388.07,-518.75 363.66,-518.75 342.38,-518.75"/>
<polygon fill="#63b8ff" stroke="#63b8ff" points="410.16,-522.25 420.16,-518.75 410.16,-515.25 410.16,-522.25"/>
</a>
</g>
</g>
<!-- Node21&#45;&gt;Node5 -->
<g id="edge22_Node000021_Node000005" class="edge">
<title>Node21&#45;&gt;Node5</title>
<g id="a_edge22_Node000021_Node000005"><a xlink:title=" ">
<path fill="none" stroke="#63b8ff" d="M198.7,-423.83C186.23,-422.23 173.41,-420.58 161.05,-418.99"/>
<polygon fill="#63b8ff" stroke="#63b8ff" points="198.17,-427.29 208.53,-425.1 199.06,-420.35 198.17,-427.29"/>
</a>
</g>
</g>
<!-- Node21&#45;&gt;Node7 -->
<g id="edge23_Node000021_Node000007" class="edge">
<title>Node21&#45;&gt;Node7</title>
<g id="a_edge23_Node000021_Node000007"><a xlink:title=" ">
<path fill="none" stroke="#63b8ff" d="M198.7,-445.67C186.23,-447.27 173.41,-448.92 161.05,-450.51"/>
<polygon fill="#63b8ff" stroke="#63b8ff" points="199.06,-449.15 208.53,-444.4 198.17,-442.21 199.06,-449.15"/>
</a>
</g>
</g>
<!-- Node23 -->
<g id="Node000023" class="node">
<title>Node23</title>
<g id="a_Node000023"><a xlink:href="../../df/d0d/group___clocked_chipsets.html#ab7381f0a1850d006f3449d27838b19c5" target="_top" xlink:title="Send the LED data to the strip.">
<polygon fill="white" stroke="#666666" points="157.38,-332.12 3.38,-332.12 3.38,-311.38 157.38,-311.38 157.38,-332.12"/>
<text text-anchor="middle" x="80.38" y="-318.62" font-family="Helvetica,sans-Serif" font-size="10.00">P9813Controller::showPixels</text>
</a>
</g>
</g>
<!-- Node22&#45;&gt;Node23 -->
<g id="edge25_Node000022_Node000023" class="edge">
<title>Node22&#45;&gt;Node23</title>
<g id="a_edge25_Node000022_Node000023"><a xlink:title=" ">
<path fill="none" stroke="#63b8ff" d="M425.03,-294.43C408.32,-290.87 389.74,-287.52 372.5,-285.75 294.8,-277.77 273.97,-273.98 196.75,-285.75 165.43,-290.52 130.92,-302.19 107.87,-310.96"/>
<polygon fill="#63b8ff" stroke="#63b8ff" points="424.26,-297.85 434.78,-296.59 425.77,-291.01 424.26,-297.85"/>
</a>
</g>
</g>
<!-- Node25&#45;&gt;Node11 -->
<g id="edge31_Node000025_Node000011" class="edge">
<title>Node25&#45;&gt;Node11</title>
<g id="a_edge31_Node000025_Node000011"><a xlink:title=" ">
<path fill="none" stroke="#63b8ff" d="M426.89,-368.82C420.64,-365.89 414.38,-362.83 408.5,-359.75 391.89,-351.05 389.62,-345.39 372.5,-337.75 365.31,-334.54 357.62,-331.6 349.89,-328.93"/>
<polygon fill="#63b8ff" stroke="#63b8ff" points="425.43,-372 435.98,-372.98 428.34,-365.64 425.43,-372"/>
</a>
</g>
</g>
<!-- Node25&#45;&gt;Node21 -->
<g id="edge34_Node000025_Node000021" class="edge">
<title>Node25&#45;&gt;Node21</title>
<g id="a_edge34_Node000025_Node000021"><a xlink:title=" ">
<path fill="none" stroke="#63b8ff" d="M404.67,-407.59C380.72,-413.06 354.79,-418.97 333.27,-423.88"/>
<polygon fill="#63b8ff" stroke="#63b8ff" points="405.43,-411.01 414.4,-405.37 403.88,-404.18 405.43,-411.01"/>
</a>
</g>
</g>
<!-- Node26 -->
<g id="Node000026" class="node">
<title>Node26</title>
<g id="a_Node000026"><a xlink:href="../../df/d0d/group___clocked_chipsets.html#ab8d200f508aa910564b8db24c451c28b" target="_top" xlink:title=" ">
<polygon fill="white" stroke="#666666" points="372.5,-406.12 196.75,-406.12 196.75,-385.38 372.5,-385.38 372.5,-406.12"/>
<text text-anchor="middle" x="284.62" y="-392.62" font-family="Helvetica,sans-Serif" font-size="10.00">APA102Controller::startBoundary</text>
</a>
</g>
</g>
<!-- Node25&#45;&gt;Node26 -->
<g id="edge28_Node000025_Node000026" class="edge">
<title>Node25&#45;&gt;Node26</title>
<g id="a_edge28_Node000025_Node000026"><a xlink:title=" ">
<path fill="none" stroke="#63b8ff" d="M404.39,-392.67C394.06,-392.94 383.36,-393.22 372.81,-393.49"/>
<polygon fill="#63b8ff" stroke="#63b8ff" points="404.46,-396.17 414.37,-392.41 404.28,-389.17 404.46,-396.17"/>
</a>
</g>
</g>
<!-- Node27 -->
<g id="Node000027" class="node">
<title>Node27</title>
<g id="a_Node000027"><a xlink:href="../../df/d0d/group___clocked_chipsets.html#a387b638de0fc6cb7a2bccbcf41037b30" target="_top" xlink:title=" ">
<polygon fill="white" stroke="#666666" points="370.25,-367.12 199,-367.12 199,-346.38 370.25,-346.38 370.25,-367.12"/>
<text text-anchor="middle" x="284.62" y="-353.62" font-family="Helvetica,sans-Serif" font-size="10.00">P9813Controller::writeBoundary</text>
</a>
</g>
</g>
<!-- Node25&#45;&gt;Node27 -->
<g id="edge32_Node000025_Node000027" class="edge">
<title>Node25&#45;&gt;Node27</title>
<g id="a_edge32_Node000025_Node000027"><a xlink:title=" ">
<path fill="none" stroke="#63b8ff" d="M404.59,-377.72C385.66,-374.38 365.51,-370.83 347.27,-367.62"/>
<polygon fill="#63b8ff" stroke="#63b8ff" points="403.93,-381.16 414.39,-379.45 405.15,-374.27 403.93,-381.16"/>
</a>
</g>
</g>
<!-- Node26&#45;&gt;Node5 -->
<g id="edge29_Node000026_Node000005" class="edge">
<title>Node26&#45;&gt;Node5</title>
<g id="a_edge29_Node000026_Node000005"><a xlink:title=" ">
<path fill="none" stroke="#63b8ff" d="M185.03,-402.09C176.97,-402.61 168.89,-403.12 160.99,-403.63"/>
<polygon fill="#63b8ff" stroke="#63b8ff" points="185.12,-405.59 194.87,-401.45 184.67,-398.6 185.12,-405.59"/>
</a>
</g>
</g>
<!-- Node26&#45;&gt;Node7 -->
<g id="edge30_Node000026_Node000007" class="edge">
<title>Node26&#45;&gt;Node7</title>
<g id="a_edge30_Node000026_Node000007"><a xlink:title=" ">
<path fill="none" stroke="#63b8ff" d="M215.9,-409.53C209.36,-411.4 202.88,-413.47 196.75,-415.75 179.79,-422.05 177.41,-427.69 160.75,-434.75 153.41,-437.86 145.56,-440.84 137.75,-443.59"/>
<polygon fill="#63b8ff" stroke="#63b8ff" points="216.71,-412.93 225.46,-406.96 214.89,-406.17 216.71,-412.93"/>
</a>
</g>
</g>
<!-- Node27&#45;&gt;Node23 -->
<g id="edge33_Node000027_Node000023" class="edge">
<title>Node27&#45;&gt;Node23</title>
<g id="a_edge33_Node000027_Node000023"><a xlink:title=" ">
<path fill="none" stroke="#63b8ff" d="M209.91,-343.99C188.3,-340.25 164.88,-336.2 144.04,-332.59"/>
<polygon fill="#63b8ff" stroke="#63b8ff" points="209.08,-347.4 219.53,-345.66 210.27,-340.5 209.08,-347.4"/>
</a>
</g>
</g>
</g>
</svg>
