<?xml version="1.0" encoding="UTF-8" standalone="no"?>
<!DOCTYPE svg PUBLIC "-//W3C//DTD SVG 1.1//EN"
 "http://www.w3.org/Graphics/SVG/1.1/DTD/svg11.dtd">
<!-- Generated by graphviz version 12.2.1 (20241206.2353)
 -->
<!-- Title: AVRSoftwareSPIOutput::writeBytesValue Pages: 1 -->
<svg width="621pt" height="288pt"
 viewBox="0.00 0.00 621.00 287.50" xmlns="http://www.w3.org/2000/svg" xmlns:xlink="http://www.w3.org/1999/xlink">
<g id="graph0" class="graph" transform="scale(1 1) rotate(0) translate(4 283.5)">
<title>AVRSoftwareSPIOutput::writeBytesValue</title>
<!-- Node1 -->
<g id="Node000001" class="node">
<title>Node1</title>
<g id="a_Node000001"><a xlink:title="Write multiple bytes of the given value over SPI.">
<polygon fill="#999999" stroke="#666666" points="126.25,-227.5 0,-227.5 0,-194 126.25,-194 126.25,-227.5"/>
<text text-anchor="start" x="8" y="-214" font-family="Helvetica,sans-Serif" font-size="10.00">AVRSoftwareSPIOutput</text>
<text text-anchor="middle" x="63.12" y="-201.25" font-family="Helvetica,sans-Serif" font-size="10.00">::writeBytesValue</text>
</a>
</g>
</g>
<!-- Node2 -->
<g id="Node000002" class="node">
<title>Node2</title>
<g id="a_Node000002"><a xlink:href="../../dc/d57/class_a_v_r_software_s_p_i_output.html#a677ab5b52bbd6011d48c3a14e3ebdcb2" target="_top" xlink:title="Release the SPI chip select line.">
<polygon fill="white" stroke="#666666" points="288.5,-279.5 162.25,-279.5 162.25,-246 288.5,-246 288.5,-279.5"/>
<text text-anchor="start" x="170.25" y="-266" font-family="Helvetica,sans-Serif" font-size="10.00">AVRSoftwareSPIOutput</text>
<text text-anchor="middle" x="225.38" y="-253.25" font-family="Helvetica,sans-Serif" font-size="10.00">::release</text>
</a>
</g>
</g>
<!-- Node1&#45;&gt;Node2 -->
<g id="edge1_Node000001_Node000002" class="edge">
<title>Node1&#45;&gt;Node2</title>
<g id="a_edge1_Node000001_Node000002"><a xlink:title=" ">
<path fill="none" stroke="#63b8ff" d="M117.04,-227.92C130.92,-232.42 146.03,-237.33 160.41,-242"/>
<polygon fill="#63b8ff" stroke="#63b8ff" points="159.21,-245.28 169.8,-245.04 161.37,-238.63 159.21,-245.28"/>
</a>
</g>
</g>
<!-- Node4 -->
<g id="Node000004" class="node">
<title>Node4</title>
<g id="a_Node000004"><a xlink:href="../../dc/d57/class_a_v_r_software_s_p_i_output.html#a15872bb6ae69fd5a5c04b246fe73740e" target="_top" xlink:title="Select the SPI output (chip select)">
<polygon fill="white" stroke="#666666" points="288.5,-227.5 162.25,-227.5 162.25,-194 288.5,-194 288.5,-227.5"/>
<text text-anchor="start" x="170.25" y="-214" font-family="Helvetica,sans-Serif" font-size="10.00">AVRSoftwareSPIOutput</text>
<text text-anchor="middle" x="225.38" y="-201.25" font-family="Helvetica,sans-Serif" font-size="10.00">::select</text>
</a>
</g>
</g>
<!-- Node1&#45;&gt;Node4 -->
<g id="edge3_Node000001_Node000004" class="edge">
<title>Node1&#45;&gt;Node4</title>
<g id="a_edge3_Node000001_Node000004"><a xlink:title=" ">
<path fill="none" stroke="#63b8ff" d="M126.54,-210.75C134.43,-210.75 142.55,-210.75 150.59,-210.75"/>
<polygon fill="#63b8ff" stroke="#63b8ff" points="150.35,-214.25 160.35,-210.75 150.35,-207.25 150.35,-214.25"/>
</a>
</g>
</g>
<!-- Node6 -->
<g id="Node000006" class="node">
<title>Node6</title>
<g id="a_Node000006"><a xlink:href="../../dc/d57/class_a_v_r_software_s_p_i_output.html#abada62794ed922c2798bf462a98b57f0" target="_top" xlink:title="Write multiple bytes of the given value over SPI, without selecting the interface.">
<polygon fill="white" stroke="#666666" points="288.5,-137.5 162.25,-137.5 162.25,-104 288.5,-104 288.5,-137.5"/>
<text text-anchor="start" x="170.25" y="-124" font-family="Helvetica,sans-Serif" font-size="10.00">AVRSoftwareSPIOutput</text>
<text text-anchor="middle" x="225.38" y="-111.25" font-family="Helvetica,sans-Serif" font-size="10.00">::writeBytesValueRaw</text>
</a>
</g>
</g>
<!-- Node1&#45;&gt;Node6 -->
<g id="edge5_Node000001_Node000006" class="edge">
<title>Node1&#45;&gt;Node6</title>
<g id="a_edge5_Node000001_Node000006"><a xlink:title=" ">
<path fill="none" stroke="#63b8ff" d="M94.64,-193.61C119.96,-179.39 156.17,-159.06 183.9,-143.48"/>
<polygon fill="#63b8ff" stroke="#63b8ff" points="185.37,-146.67 192.38,-138.72 181.94,-140.57 185.37,-146.67"/>
</a>
</g>
</g>
<!-- Node3 -->
<g id="Node000003" class="node">
<title>Node3</title>
<g id="a_Node000003"><a xlink:href="../../dd/da1/class_selectable.html#a190c264a07995c20d72ea5d52eb60e47" target="_top" xlink:title="Release this object.">
<polygon fill="white" stroke="#666666" points="442.12,-273.12 333.12,-273.12 333.12,-252.38 442.12,-252.38 442.12,-273.12"/>
<text text-anchor="middle" x="387.62" y="-259.62" font-family="Helvetica,sans-Serif" font-size="10.00">Selectable::release</text>
</a>
</g>
</g>
<!-- Node2&#45;&gt;Node3 -->
<g id="edge2_Node000002_Node000003" class="edge">
<title>Node2&#45;&gt;Node3</title>
<g id="a_edge2_Node000002_Node000003"><a xlink:title=" ">
<path fill="none" stroke="#63b8ff" d="M288.79,-262.75C299.44,-262.75 310.53,-262.75 321.25,-262.75"/>
<polygon fill="#63b8ff" stroke="#63b8ff" points="321.19,-266.25 331.19,-262.75 321.19,-259.25 321.19,-266.25"/>
</a>
</g>
</g>
<!-- Node5 -->
<g id="Node000005" class="node">
<title>Node5</title>
<g id="a_Node000005"><a xlink:href="../../dd/da1/class_selectable.html#a5536adac637a1c55c3778158c7f38840" target="_top" xlink:title="Select this object.">
<polygon fill="white" stroke="#666666" points="438.75,-228.12 336.5,-228.12 336.5,-207.38 438.75,-207.38 438.75,-228.12"/>
<text text-anchor="middle" x="387.62" y="-214.62" font-family="Helvetica,sans-Serif" font-size="10.00">Selectable::select</text>
</a>
</g>
</g>
<!-- Node4&#45;&gt;Node5 -->
<g id="edge4_Node000004_Node000005" class="edge">
<title>Node4&#45;&gt;Node5</title>
<g id="a_edge4_Node000004_Node000005"><a xlink:title=" ">
<path fill="none" stroke="#63b8ff" d="M288.79,-213.48C300.52,-213.99 312.79,-214.52 324.51,-215.04"/>
<polygon fill="#63b8ff" stroke="#63b8ff" points="324.36,-218.53 334.5,-215.47 324.66,-211.54 324.36,-218.53"/>
</a>
</g>
</g>
<!-- Node7 -->
<g id="Node000007" class="node">
<title>Node7</title>
<g id="a_Node000007"><a xlink:href="../../db/d3b/class_fast_pin.html#a2270a3882cf8646ce8abcae29cf6923a" target="_top" xlink:title="Gets the state of the port with this pin HIGH">
<polygon fill="white" stroke="#666666" points="427.88,-189.12 347.38,-189.12 347.38,-168.38 427.88,-168.38 427.88,-189.12"/>
<text text-anchor="middle" x="387.62" y="-175.62" font-family="Helvetica,sans-Serif" font-size="10.00">FastPin::hival</text>
</a>
</g>
</g>
<!-- Node6&#45;&gt;Node7 -->
<g id="edge6_Node000006_Node000007" class="edge">
<title>Node6&#45;&gt;Node7</title>
<g id="a_edge6_Node000006_Node000007"><a xlink:title=" ">
<path fill="none" stroke="#63b8ff" d="M269.16,-137.94C286.29,-144.66 306.25,-152.28 324.5,-158.75 329.84,-160.64 335.46,-162.56 341.05,-164.41"/>
<polygon fill="#63b8ff" stroke="#63b8ff" points="339.65,-167.64 350.24,-167.42 341.82,-160.98 339.65,-167.64"/>
</a>
</g>
</g>
<!-- Node8 -->
<g id="Node000008" class="node">
<title>Node8</title>
<g id="a_Node000008"><a xlink:href="../../db/d3b/class_fast_pin.html#a5148b7a0cd5fd551da455c03afc09003" target="_top" xlink:title="Gets the state of the port with this pin LOW">
<polygon fill="white" stroke="#666666" points="427.88,-150.12 347.38,-150.12 347.38,-129.38 427.88,-129.38 427.88,-150.12"/>
<text text-anchor="middle" x="387.62" y="-136.62" font-family="Helvetica,sans-Serif" font-size="10.00">FastPin::loval</text>
</a>
</g>
</g>
<!-- Node6&#45;&gt;Node8 -->
<g id="edge7_Node000006_Node000008" class="edge">
<title>Node6&#45;&gt;Node8</title>
<g id="a_edge7_Node000006_Node000008"><a xlink:title=" ">
<path fill="none" stroke="#63b8ff" d="M288.79,-128.15C304.48,-130.01 321.12,-131.98 336.14,-133.76"/>
<polygon fill="#63b8ff" stroke="#63b8ff" points="335.42,-137.2 345.77,-134.91 336.25,-130.25 335.42,-137.2"/>
</a>
</g>
</g>
<!-- Node9 -->
<g id="Node000009" class="node">
<title>Node9</title>
<g id="a_Node000009"><a xlink:href="../../db/d3b/class_fast_pin.html#a97fd678e7bc05979582254783a1b5e57" target="_top" xlink:title="Get the pin mask.">
<polygon fill="white" stroke="#666666" points="429.38,-111.12 345.88,-111.12 345.88,-90.38 429.38,-90.38 429.38,-111.12"/>
<text text-anchor="middle" x="387.62" y="-97.62" font-family="Helvetica,sans-Serif" font-size="10.00">FastPin::mask</text>
</a>
</g>
</g>
<!-- Node6&#45;&gt;Node9 -->
<g id="edge8_Node000006_Node000009" class="edge">
<title>Node6&#45;&gt;Node9</title>
<g id="a_edge8_Node000006_Node000009"><a xlink:title=" ">
<path fill="none" stroke="#63b8ff" d="M288.79,-112.96C303.91,-111.07 319.91,-109.08 334.5,-107.26"/>
<polygon fill="#63b8ff" stroke="#63b8ff" points="334.86,-110.74 344.35,-106.03 333.99,-103.79 334.86,-110.74"/>
</a>
</g>
</g>
<!-- Node10 -->
<g id="Node000010" class="node">
<title>Node10</title>
<g id="a_Node000010"><a xlink:href="../../db/d3b/class_fast_pin.html#ab005abe848eadb60051daccb4eb7dbe8" target="_top" xlink:title="Get the output state of the port.">
<polygon fill="white" stroke="#666666" points="425.62,-72.12 349.62,-72.12 349.62,-51.38 425.62,-51.38 425.62,-72.12"/>
<text text-anchor="middle" x="387.62" y="-58.62" font-family="Helvetica,sans-Serif" font-size="10.00">FastPin::port</text>
</a>
</g>
</g>
<!-- Node6&#45;&gt;Node10 -->
<g id="edge9_Node000006_Node000010" class="edge">
<title>Node6&#45;&gt;Node10</title>
<g id="a_edge9_Node000006_Node000010"><a xlink:title=" ">
<path fill="none" stroke="#63b8ff" d="M267.68,-103.62C285.11,-96.58 305.69,-88.51 324.5,-81.75 329.83,-79.84 335.44,-77.91 341.03,-76.04"/>
<polygon fill="#63b8ff" stroke="#63b8ff" points="341.81,-79.47 350.22,-73.03 339.63,-72.82 341.81,-79.47"/>
</a>
</g>
</g>
<!-- Node11 -->
<g id="Node000011" class="node">
<title>Node11</title>
<g id="a_Node000011"><a xlink:href="../../dc/d57/class_a_v_r_software_s_p_i_output.html#a58393081ec8c54bd6968642b89e8bd43" target="_top" xlink:title="Write a single byte over SPI.">
<polygon fill="white" stroke="#666666" points="450.75,-33.5 324.5,-33.5 324.5,0 450.75,0 450.75,-33.5"/>
<text text-anchor="start" x="332.5" y="-20" font-family="Helvetica,sans-Serif" font-size="10.00">AVRSoftwareSPIOutput</text>
<text text-anchor="middle" x="387.62" y="-7.25" font-family="Helvetica,sans-Serif" font-size="10.00">::writeByte</text>
</a>
</g>
</g>
<!-- Node6&#45;&gt;Node11 -->
<g id="edge10_Node000006_Node000011" class="edge">
<title>Node6&#45;&gt;Node11</title>
<g id="a_edge10_Node000006_Node000011"><a xlink:title=" ">
<path fill="none" stroke="#63b8ff" d="M244.78,-103.55C263.69,-86.51 294.53,-60.47 324.5,-42.75 326.67,-41.47 328.91,-40.22 331.2,-39"/>
<polygon fill="#63b8ff" stroke="#63b8ff" points="332.69,-42.17 340.09,-34.59 329.58,-35.9 332.69,-42.17"/>
</a>
</g>
</g>
<!-- Node12 -->
<g id="Node000012" class="node">
<title>Node12</title>
<g id="a_Node000012"><a xlink:href="../../dc/d57/class_a_v_r_software_s_p_i_output.html#ad13d8cd559302413e8c885aab5ad7497" target="_top" xlink:title="Write the BIT&#39;th bit out via SPI, setting the data pin then strobing the clock.">
<polygon fill="#fff0f0" stroke="red" points="613,-33.5 486.75,-33.5 486.75,0 613,0 613,-33.5"/>
<text text-anchor="start" x="494.75" y="-20" font-family="Helvetica,sans-Serif" font-size="10.00">AVRSoftwareSPIOutput</text>
<text text-anchor="middle" x="549.88" y="-7.25" font-family="Helvetica,sans-Serif" font-size="10.00">::writeBit</text>
</a>
</g>
</g>
<!-- Node11&#45;&gt;Node12 -->
<g id="edge11_Node000011_Node000012" class="edge">
<title>Node11&#45;&gt;Node12</title>
<g id="a_edge11_Node000011_Node000012"><a xlink:title=" ">
<path fill="none" stroke="#63b8ff" d="M451.04,-16.75C458.93,-16.75 467.05,-16.75 475.09,-16.75"/>
<polygon fill="#63b8ff" stroke="#63b8ff" points="474.85,-20.25 484.85,-16.75 474.85,-13.25 474.85,-20.25"/>
</a>
</g>
</g>
</g>
</svg>
