<?xml version="1.0" encoding="UTF-8" standalone="no"?>
<!DOCTYPE svg PUBLIC "-//W3C//DTD SVG 1.1//EN"
 "http://www.w3.org/Graphics/SVG/1.1/DTD/svg11.dtd">
<!-- Generated by graphviz version 12.2.1 (20241206.2353)
 -->
<!-- Title: AVRSoftwareSPIOutput::writeByte Pages: 1 -->
<svg width="420pt" height="107pt"
 viewBox="0.00 0.00 419.75 106.75" xmlns="http://www.w3.org/2000/svg" xmlns:xlink="http://www.w3.org/1999/xlink">
<g id="graph0" class="graph" transform="scale(1 1) rotate(0) translate(4 102.75)">
<title>AVRSoftwareSPIOutput::writeByte</title>
<!-- Node1 -->
<g id="Node000001" class="node">
<title>Node1</title>
<g id="a_Node000001"><a xlink:title="writeByte() implementation with the data register passed in and prebaked values for data hi w/clock h...">
<polygon fill="#999999" stroke="#666666" points="126.25,-66.12 0,-66.12 0,-32.62 126.25,-32.62 126.25,-66.12"/>
<text text-anchor="start" x="8" y="-52.62" font-family="Helvetica,sans-Serif" font-size="10.00">AVRSoftwareSPIOutput</text>
<text text-anchor="middle" x="63.12" y="-39.88" font-family="Helvetica,sans-Serif" font-size="10.00">::writeByte</text>
</a>
</g>
</g>
<!-- Node2 -->
<g id="Node000002" class="node">
<title>Node2</title>
<g id="a_Node000002"><a xlink:href="../../dc/d57/class_a_v_r_software_s_p_i_output.html#ad13d8cd559302413e8c885aab5ad7497" target="_top" xlink:title="Write the BIT&#39;th bit out via SPI, setting the data pin then strobing the clock.">
<polygon fill="white" stroke="#666666" points="288.5,-66.12 162.25,-66.12 162.25,-32.62 288.5,-32.62 288.5,-66.12"/>
<text text-anchor="start" x="170.25" y="-52.62" font-family="Helvetica,sans-Serif" font-size="10.00">AVRSoftwareSPIOutput</text>
<text text-anchor="middle" x="225.38" y="-39.88" font-family="Helvetica,sans-Serif" font-size="10.00">::writeBit</text>
</a>
</g>
</g>
<!-- Node1&#45;&gt;Node2 -->
<g id="edge1_Node000001_Node000002" class="edge">
<title>Node1&#45;&gt;Node2</title>
<g id="a_edge1_Node000001_Node000002"><a xlink:title=" ">
<path fill="none" stroke="#63b8ff" d="M126.54,-49.38C134.43,-49.38 142.55,-49.38 150.59,-49.38"/>
<polygon fill="#63b8ff" stroke="#63b8ff" points="150.35,-52.88 160.35,-49.38 150.35,-45.88 150.35,-52.88"/>
</a>
</g>
</g>
<!-- Node3 -->
<g id="Node000003" class="node">
<title>Node3</title>
<g id="a_Node000003"><a xlink:href="../../db/d3b/class_fast_pin.html#add52474362013eb37903fc832e2abdc2" target="_top" xlink:title="Set the pin state to HIGH">
<polygon fill="white" stroke="#666666" points="400.88,-98.75 335.38,-98.75 335.38,-78 400.88,-78 400.88,-98.75"/>
<text text-anchor="middle" x="368.12" y="-85.25" font-family="Helvetica,sans-Serif" font-size="10.00">FastPin::hi</text>
</a>
</g>
</g>
<!-- Node2&#45;&gt;Node3 -->
<g id="edge2_Node000002_Node000003" class="edge">
<title>Node2&#45;&gt;Node3</title>
<g id="a_edge2_Node000002_Node000003"><a xlink:title=" ">
<path fill="none" stroke="#63b8ff" d="M288.52,-66.59C300.56,-69.93 312.93,-73.36 324.18,-76.48"/>
<polygon fill="#63b8ff" stroke="#63b8ff" points="322.99,-79.78 333.56,-79.07 324.86,-73.03 322.99,-79.78"/>
</a>
</g>
</g>
<!-- Node4 -->
<g id="Node000004" class="node">
<title>Node4</title>
<g id="a_Node000004"><a xlink:href="../../db/d3b/class_fast_pin.html#aa7420ec06218b5201f7f54cf6f4bfb86" target="_top" xlink:title="Set the pin state to LOW">
<polygon fill="white" stroke="#666666" points="400.88,-59.75 335.38,-59.75 335.38,-39 400.88,-39 400.88,-59.75"/>
<text text-anchor="middle" x="368.12" y="-46.25" font-family="Helvetica,sans-Serif" font-size="10.00">FastPin::lo</text>
</a>
</g>
</g>
<!-- Node2&#45;&gt;Node4 -->
<g id="edge3_Node000002_Node000004" class="edge">
<title>Node2&#45;&gt;Node4</title>
<g id="a_edge3_Node000002_Node000004"><a xlink:title=" ">
<path fill="none" stroke="#63b8ff" d="M288.93,-49.38C300.68,-49.38 312.73,-49.38 323.74,-49.38"/>
<polygon fill="#63b8ff" stroke="#63b8ff" points="323.7,-52.88 333.7,-49.38 323.7,-45.88 323.7,-52.88"/>
</a>
</g>
</g>
<!-- Node5 -->
<g id="Node000005" class="node">
<title>Node5</title>
<g id="a_Node000005"><a xlink:href="../../db/d3b/class_fast_pin.html#a25b537b13a05155051cc663b4877f79f" target="_top" xlink:title="Toggle the pin.">
<polygon fill="white" stroke="#666666" points="411.75,-20.75 324.5,-20.75 324.5,0 411.75,0 411.75,-20.75"/>
<text text-anchor="middle" x="368.12" y="-7.25" font-family="Helvetica,sans-Serif" font-size="10.00">FastPin::toggle</text>
</a>
</g>
</g>
<!-- Node2&#45;&gt;Node5 -->
<g id="edge4_Node000002_Node000005" class="edge">
<title>Node2&#45;&gt;Node5</title>
<g id="a_edge4_Node000002_Node000005"><a xlink:title=" ">
<path fill="none" stroke="#63b8ff" d="M288.52,-32.16C298.05,-29.52 307.78,-26.82 317.01,-24.26"/>
<polygon fill="#63b8ff" stroke="#63b8ff" points="317.8,-27.67 326.5,-21.63 315.93,-20.93 317.8,-27.67"/>
</a>
</g>
</g>
</g>
</svg>
