<?xml version="1.0" encoding="UTF-8" standalone="no"?>
<!DOCTYPE svg PUBLIC "-//W3C//DTD SVG 1.1//EN"
 "http://www.w3.org/Graphics/SVG/1.1/DTD/svg11.dtd">
<!-- Generated by graphviz version 12.2.1 (20241206.2353)
 -->
<!-- Title: AVRSoftwareSPIOutput::writeBytesValueRaw Pages: 1 -->
<svg width="582pt" height="230pt"
 viewBox="0.00 0.00 582.00 229.75" xmlns="http://www.w3.org/2000/svg" xmlns:xlink="http://www.w3.org/1999/xlink">
<g id="graph0" class="graph" transform="scale(1 1) rotate(0) translate(4 225.75)">
<title>AVRSoftwareSPIOutput::writeBytesValueRaw</title>
<!-- Node1 -->
<g id="Node000001" class="node">
<title>Node1</title>
<g id="a_Node000001"><a xlink:title="Write multiple bytes of the given value over SPI, without selecting the interface.">
<polygon fill="#999999" stroke="#666666" points="126.25,-150.12 0,-150.12 0,-116.62 126.25,-116.62 126.25,-150.12"/>
<text text-anchor="start" x="8" y="-136.62" font-family="Helvetica,sans-Serif" font-size="10.00">AVRSoftwareSPIOutput</text>
<text text-anchor="middle" x="63.12" y="-123.88" font-family="Helvetica,sans-Serif" font-size="10.00">::writeBytesValueRaw</text>
</a>
</g>
</g>
<!-- Node2 -->
<g id="Node000002" class="node">
<title>Node2</title>
<g id="a_Node000002"><a xlink:href="../../db/d3b/class_fast_pin.html#a2270a3882cf8646ce8abcae29cf6923a" target="_top" xlink:title="Gets the state of the port with this pin HIGH">
<polygon fill="white" stroke="#666666" points="265.62,-221.75 185.12,-221.75 185.12,-201 265.62,-201 265.62,-221.75"/>
<text text-anchor="middle" x="225.38" y="-208.25" font-family="Helvetica,sans-Serif" font-size="10.00">FastPin::hival</text>
</a>
</g>
</g>
<!-- Node1&#45;&gt;Node2 -->
<g id="edge1_Node000001_Node000002" class="edge">
<title>Node1&#45;&gt;Node2</title>
<g id="a_edge1_Node000001_Node000002"><a xlink:title=" ">
<path fill="none" stroke="#63b8ff" d="M89.52,-150.52C108.85,-163.03 136.44,-179.77 162.25,-191.38 166.49,-193.28 170.97,-195.09 175.51,-196.79"/>
<polygon fill="#63b8ff" stroke="#63b8ff" points="174.07,-199.99 184.66,-200.02 176.4,-193.39 174.07,-199.99"/>
</a>
</g>
</g>
<!-- Node3 -->
<g id="Node000003" class="node">
<title>Node3</title>
<g id="a_Node000003"><a xlink:href="../../db/d3b/class_fast_pin.html#a5148b7a0cd5fd551da455c03afc09003" target="_top" xlink:title="Gets the state of the port with this pin LOW">
<polygon fill="white" stroke="#666666" points="265.62,-182.75 185.12,-182.75 185.12,-162 265.62,-162 265.62,-182.75"/>
<text text-anchor="middle" x="225.38" y="-169.25" font-family="Helvetica,sans-Serif" font-size="10.00">FastPin::loval</text>
</a>
</g>
</g>
<!-- Node1&#45;&gt;Node3 -->
<g id="edge2_Node000001_Node000003" class="edge">
<title>Node1&#45;&gt;Node3</title>
<g id="a_edge2_Node000001_Node000003"><a xlink:title=" ">
<path fill="none" stroke="#63b8ff" d="M126.54,-148.57C142.23,-152.38 158.87,-156.43 173.89,-160.09"/>
<polygon fill="#63b8ff" stroke="#63b8ff" points="173,-163.48 183.55,-162.44 174.66,-156.67 173,-163.48"/>
</a>
</g>
</g>
<!-- Node4 -->
<g id="Node000004" class="node">
<title>Node4</title>
<g id="a_Node000004"><a xlink:href="../../db/d3b/class_fast_pin.html#a97fd678e7bc05979582254783a1b5e57" target="_top" xlink:title="Get the pin mask.">
<polygon fill="white" stroke="#666666" points="267.12,-143.75 183.62,-143.75 183.62,-123 267.12,-123 267.12,-143.75"/>
<text text-anchor="middle" x="225.38" y="-130.25" font-family="Helvetica,sans-Serif" font-size="10.00">FastPin::mask</text>
</a>
</g>
</g>
<!-- Node1&#45;&gt;Node4 -->
<g id="edge3_Node000001_Node000004" class="edge">
<title>Node1&#45;&gt;Node4</title>
<g id="a_edge3_Node000001_Node000004"><a xlink:title=" ">
<path fill="none" stroke="#63b8ff" d="M126.54,-133.38C141.66,-133.38 157.66,-133.38 172.25,-133.38"/>
<polygon fill="#63b8ff" stroke="#63b8ff" points="172.08,-136.88 182.08,-133.38 172.08,-129.88 172.08,-136.88"/>
</a>
</g>
</g>
<!-- Node5 -->
<g id="Node000005" class="node">
<title>Node5</title>
<g id="a_Node000005"><a xlink:href="../../db/d3b/class_fast_pin.html#ab005abe848eadb60051daccb4eb7dbe8" target="_top" xlink:title="Get the output state of the port.">
<polygon fill="white" stroke="#666666" points="263.38,-104.75 187.38,-104.75 187.38,-84 263.38,-84 263.38,-104.75"/>
<text text-anchor="middle" x="225.38" y="-91.25" font-family="Helvetica,sans-Serif" font-size="10.00">FastPin::port</text>
</a>
</g>
</g>
<!-- Node1&#45;&gt;Node5 -->
<g id="edge4_Node000001_Node000005" class="edge">
<title>Node1&#45;&gt;Node5</title>
<g id="a_edge4_Node000001_Node000005"><a xlink:title=" ">
<path fill="none" stroke="#63b8ff" d="M126.54,-118.18C142.95,-114.19 160.4,-109.95 175.95,-106.16"/>
<polygon fill="#63b8ff" stroke="#63b8ff" points="176.53,-109.62 185.42,-103.86 174.88,-102.82 176.53,-109.62"/>
</a>
</g>
</g>
<!-- Node6 -->
<g id="Node000006" class="node">
<title>Node6</title>
<g id="a_Node000006"><a xlink:href="../../dc/d57/class_a_v_r_software_s_p_i_output.html#a58393081ec8c54bd6968642b89e8bd43" target="_top" xlink:title="Write a single byte over SPI.">
<polygon fill="white" stroke="#666666" points="288.5,-66.12 162.25,-66.12 162.25,-32.62 288.5,-32.62 288.5,-66.12"/>
<text text-anchor="start" x="170.25" y="-52.62" font-family="Helvetica,sans-Serif" font-size="10.00">AVRSoftwareSPIOutput</text>
<text text-anchor="middle" x="225.38" y="-39.88" font-family="Helvetica,sans-Serif" font-size="10.00">::writeByte</text>
</a>
</g>
</g>
<!-- Node1&#45;&gt;Node6 -->
<g id="edge5_Node000001_Node000006" class="edge">
<title>Node1&#45;&gt;Node6</title>
<g id="a_edge5_Node000001_Node000006"><a xlink:title=" ">
<path fill="none" stroke="#63b8ff" d="M90.64,-116.35C110.08,-104.21 137.31,-87.89 162.25,-75.38 165.09,-73.95 168.03,-72.53 171.01,-71.14"/>
<polygon fill="#63b8ff" stroke="#63b8ff" points="172.2,-74.45 179.87,-67.14 169.32,-68.07 172.2,-74.45"/>
</a>
</g>
</g>
<!-- Node7 -->
<g id="Node000007" class="node">
<title>Node7</title>
<g id="a_Node000007"><a xlink:href="../../dc/d57/class_a_v_r_software_s_p_i_output.html#ad13d8cd559302413e8c885aab5ad7497" target="_top" xlink:title="Write the BIT&#39;th bit out via SPI, setting the data pin then strobing the clock.">
<polygon fill="white" stroke="#666666" points="450.75,-66.12 324.5,-66.12 324.5,-32.62 450.75,-32.62 450.75,-66.12"/>
<text text-anchor="start" x="332.5" y="-52.62" font-family="Helvetica,sans-Serif" font-size="10.00">AVRSoftwareSPIOutput</text>
<text text-anchor="middle" x="387.62" y="-39.88" font-family="Helvetica,sans-Serif" font-size="10.00">::writeBit</text>
</a>
</g>
</g>
<!-- Node6&#45;&gt;Node7 -->
<g id="edge6_Node000006_Node000007" class="edge">
<title>Node6&#45;&gt;Node7</title>
<g id="a_edge6_Node000006_Node000007"><a xlink:title=" ">
<path fill="none" stroke="#63b8ff" d="M288.79,-49.38C296.68,-49.38 304.8,-49.38 312.84,-49.38"/>
<polygon fill="#63b8ff" stroke="#63b8ff" points="312.6,-52.88 322.6,-49.38 312.6,-45.88 312.6,-52.88"/>
</a>
</g>
</g>
<!-- Node8 -->
<g id="Node000008" class="node">
<title>Node8</title>
<g id="a_Node000008"><a xlink:href="../../db/d3b/class_fast_pin.html#add52474362013eb37903fc832e2abdc2" target="_top" xlink:title="Set the pin state to HIGH">
<polygon fill="white" stroke="#666666" points="563.12,-98.75 497.62,-98.75 497.62,-78 563.12,-78 563.12,-98.75"/>
<text text-anchor="middle" x="530.38" y="-85.25" font-family="Helvetica,sans-Serif" font-size="10.00">FastPin::hi</text>
</a>
</g>
</g>
<!-- Node7&#45;&gt;Node8 -->
<g id="edge7_Node000007_Node000008" class="edge">
<title>Node7&#45;&gt;Node8</title>
<g id="a_edge7_Node000007_Node000008"><a xlink:title=" ">
<path fill="none" stroke="#63b8ff" d="M450.77,-66.59C462.81,-69.93 475.18,-73.36 486.43,-76.48"/>
<polygon fill="#63b8ff" stroke="#63b8ff" points="485.24,-79.78 495.81,-79.07 487.11,-73.03 485.24,-79.78"/>
</a>
</g>
</g>
<!-- Node9 -->
<g id="Node000009" class="node">
<title>Node9</title>
<g id="a_Node000009"><a xlink:href="../../db/d3b/class_fast_pin.html#aa7420ec06218b5201f7f54cf6f4bfb86" target="_top" xlink:title="Set the pin state to LOW">
<polygon fill="white" stroke="#666666" points="563.12,-59.75 497.62,-59.75 497.62,-39 563.12,-39 563.12,-59.75"/>
<text text-anchor="middle" x="530.38" y="-46.25" font-family="Helvetica,sans-Serif" font-size="10.00">FastPin::lo</text>
</a>
</g>
</g>
<!-- Node7&#45;&gt;Node9 -->
<g id="edge8_Node000007_Node000009" class="edge">
<title>Node7&#45;&gt;Node9</title>
<g id="a_edge8_Node000007_Node000009"><a xlink:title=" ">
<path fill="none" stroke="#63b8ff" d="M451.18,-49.38C462.93,-49.38 474.98,-49.38 485.99,-49.38"/>
<polygon fill="#63b8ff" stroke="#63b8ff" points="485.95,-52.88 495.95,-49.38 485.95,-45.88 485.95,-52.88"/>
</a>
</g>
</g>
<!-- Node10 -->
<g id="Node000010" class="node">
<title>Node10</title>
<g id="a_Node000010"><a xlink:href="../../db/d3b/class_fast_pin.html#a25b537b13a05155051cc663b4877f79f" target="_top" xlink:title="Toggle the pin.">
<polygon fill="white" stroke="#666666" points="574,-20.75 486.75,-20.75 486.75,0 574,0 574,-20.75"/>
<text text-anchor="middle" x="530.38" y="-7.25" font-family="Helvetica,sans-Serif" font-size="10.00">FastPin::toggle</text>
</a>
</g>
</g>
<!-- Node7&#45;&gt;Node10 -->
<g id="edge9_Node000007_Node000010" class="edge">
<title>Node7&#45;&gt;Node10</title>
<g id="a_edge9_Node000007_Node000010"><a xlink:title=" ">
<path fill="none" stroke="#63b8ff" d="M450.77,-32.16C460.3,-29.52 470.03,-26.82 479.26,-24.26"/>
<polygon fill="#63b8ff" stroke="#63b8ff" points="480.05,-27.67 488.75,-21.63 478.18,-20.93 480.05,-27.67"/>
</a>
</g>
</g>
</g>
</svg>
