<?xml version="1.0" encoding="UTF-8" standalone="no"?>
<!DOCTYPE svg PUBLIC "-//W3C//DTD SVG 1.1//EN"
 "http://www.w3.org/Graphics/SVG/1.1/DTD/svg11.dtd">
<!-- Generated by graphviz version 12.2.1 (20241206.2353)
 -->
<!-- Title: AVRSoftwareSPIOutput::writePixels Pages: 1 -->
<svg width="671pt" height="620pt"
 viewBox="0.00 0.00 671.25 619.75" xmlns="http://www.w3.org/2000/svg" xmlns:xlink="http://www.w3.org/1999/xlink">
<g id="graph0" class="graph" transform="scale(1 1) rotate(0) translate(4 615.75)">
<title>AVRSoftwareSPIOutput::writePixels</title>
<!-- Node1 -->
<g id="Node000001" class="node">
<title>Node1</title>
<g id="a_Node000001"><a xlink:title="Write LED pixel data to the SPI interface.">
<polygon fill="#999999" stroke="#666666" points="126.25,-326.12 0,-326.12 0,-292.62 126.25,-292.62 126.25,-326.12"/>
<text text-anchor="start" x="8" y="-312.62" font-family="Helvetica,sans-Serif" font-size="10.00">AVRSoftwareSPIOutput</text>
<text text-anchor="middle" x="63.12" y="-299.88" font-family="Helvetica,sans-Serif" font-size="10.00">::writePixels</text>
</a>
</g>
</g>
<!-- Node2 -->
<g id="Node000002" class="node">
<title>Node2</title>
<g id="a_Node000002"><a xlink:href="../../d0/dee/struct_pixel_controller.html#ab44f62f166d162bd1e3b095b368feef2" target="_top" xlink:title="Advance the data pointer forward, adjust position counter.">
<polygon fill="white" stroke="#666666" points="320.75,-611.75 163,-611.75 163,-591 320.75,-591 320.75,-611.75"/>
<text text-anchor="middle" x="241.88" y="-598.25" font-family="Helvetica,sans-Serif" font-size="10.00">PixelController::advanceData</text>
</a>
</g>
</g>
<!-- Node1&#45;&gt;Node2 -->
<g id="edge1_Node000001_Node000002" class="edge">
<title>Node1&#45;&gt;Node2</title>
<g id="a_edge1_Node000001_Node000002"><a xlink:title=" ">
<path fill="none" stroke="#63b8ff" d="M64.98,-326.38C68.32,-374.19 84.55,-510.87 162.25,-581.38 163.52,-582.53 164.85,-583.62 166.23,-584.65"/>
<polygon fill="#63b8ff" stroke="#63b8ff" points="164.29,-587.56 174.65,-589.79 167.94,-581.59 164.29,-587.56"/>
</a>
</g>
</g>
<!-- Node3 -->
<g id="Node000003" class="node">
<title>Node3</title>
<g id="a_Node000003"><a xlink:href="../../d0/dee/struct_pixel_controller.html#ac13f3e00855fcf6125ea27543c2fb48c" target="_top" xlink:title="Do we have n pixels left to process?">
<polygon fill="white" stroke="#666666" points="297.12,-572.75 186.62,-572.75 186.62,-552 297.12,-552 297.12,-572.75"/>
<text text-anchor="middle" x="241.88" y="-559.25" font-family="Helvetica,sans-Serif" font-size="10.00">PixelController::has</text>
</a>
</g>
</g>
<!-- Node1&#45;&gt;Node3 -->
<g id="edge2_Node000001_Node000003" class="edge">
<title>Node1&#45;&gt;Node3</title>
<g id="a_edge2_Node000001_Node000003"><a xlink:title=" ">
<path fill="none" stroke="#63b8ff" d="M66.14,-326.44C72.15,-369.58 94.05,-483.68 162.25,-542.38 166.37,-545.92 171.03,-548.85 175.99,-551.27"/>
<polygon fill="#63b8ff" stroke="#63b8ff" points="174.49,-554.44 185.07,-554.99 177.14,-547.96 174.49,-554.44"/>
</a>
</g>
</g>
<!-- Node4 -->
<g id="Node000004" class="node">
<title>Node4</title>
<g id="a_Node000004"><a xlink:href="../../db/d3b/class_fast_pin.html#a2270a3882cf8646ce8abcae29cf6923a" target="_top" xlink:title="Gets the state of the port with this pin HIGH">
<polygon fill="white" stroke="#666666" points="282.12,-533.75 201.62,-533.75 201.62,-513 282.12,-513 282.12,-533.75"/>
<text text-anchor="middle" x="241.88" y="-520.25" font-family="Helvetica,sans-Serif" font-size="10.00">FastPin::hival</text>
</a>
</g>
</g>
<!-- Node1&#45;&gt;Node4 -->
<g id="edge3_Node000001_Node000004" class="edge">
<title>Node1&#45;&gt;Node4</title>
<g id="a_edge3_Node000001_Node000004"><a xlink:title=" ">
<path fill="none" stroke="#63b8ff" d="M67.63,-326.52C76.38,-364.74 102.88,-457.26 162.25,-504.38 170.41,-510.85 180.44,-515.17 190.57,-518.04"/>
<polygon fill="#63b8ff" stroke="#63b8ff" points="189.52,-521.38 200.05,-520.26 191.12,-514.57 189.52,-521.38"/>
</a>
</g>
</g>
<!-- Node5 -->
<g id="Node000005" class="node">
<title>Node5</title>
<g id="a_Node000005"><a xlink:href="../../d0/dee/struct_pixel_controller.html#a4984f158bbc3b6c79ca16dd847fe67e1" target="_top" xlink:title="non&#45;template alias of loadAndScale&lt;0&gt;()">
<polygon fill="white" stroke="#666666" points="308.38,-495.12 175.38,-495.12 175.38,-461.62 308.38,-461.62 308.38,-495.12"/>
<text text-anchor="start" x="183.38" y="-481.62" font-family="Helvetica,sans-Serif" font-size="10.00">PixelController::loadAnd</text>
<text text-anchor="middle" x="241.88" y="-468.88" font-family="Helvetica,sans-Serif" font-size="10.00">Scale0</text>
</a>
</g>
</g>
<!-- Node1&#45;&gt;Node5 -->
<g id="edge4_Node000001_Node000005" class="edge">
<title>Node1&#45;&gt;Node5</title>
<g id="a_edge4_Node000001_Node000005"><a xlink:title=" ">
<path fill="none" stroke="#63b8ff" d="M71.42,-326.61C84.95,-356.54 116.76,-418.19 162.25,-452.38 163.79,-453.53 165.39,-454.64 167.03,-455.7"/>
<polygon fill="#63b8ff" stroke="#63b8ff" points="165.09,-458.63 175.51,-460.52 168.54,-452.54 165.09,-458.63"/>
</a>
</g>
</g>
<!-- Node10 -->
<g id="Node000010" class="node">
<title>Node10</title>
<g id="a_Node000010"><a xlink:href="../../d0/dee/struct_pixel_controller.html#a11f9b50f738c6d57d08d6776b3d8eb43" target="_top" xlink:title="non&#45;template alias of loadAndScale&lt;1&gt;()">
<polygon fill="white" stroke="#666666" points="308.38,-443.12 175.38,-443.12 175.38,-409.62 308.38,-409.62 308.38,-443.12"/>
<text text-anchor="start" x="183.38" y="-429.62" font-family="Helvetica,sans-Serif" font-size="10.00">PixelController::loadAnd</text>
<text text-anchor="middle" x="241.88" y="-416.88" font-family="Helvetica,sans-Serif" font-size="10.00">Scale1</text>
</a>
</g>
</g>
<!-- Node1&#45;&gt;Node10 -->
<g id="edge8_Node000001_Node000010" class="edge">
<title>Node1&#45;&gt;Node10</title>
<g id="a_edge8_Node000001_Node000010"><a xlink:title=" ">
<path fill="none" stroke="#63b8ff" d="M78.39,-326.48C96.13,-346.75 128.24,-380.29 162.25,-400.38 164.69,-401.81 167.21,-403.19 169.8,-404.49"/>
<polygon fill="#63b8ff" stroke="#63b8ff" points="168.12,-407.57 178.66,-408.58 171.05,-401.21 168.12,-407.57"/>
</a>
</g>
</g>
<!-- Node11 -->
<g id="Node000011" class="node">
<title>Node11</title>
<g id="a_Node000011"><a xlink:href="../../d0/dee/struct_pixel_controller.html#a33c22b408cbc9eb8b9d98993fe985264" target="_top" xlink:title="non&#45;template alias of loadAndScale&lt;2&gt;()">
<polygon fill="white" stroke="#666666" points="308.38,-391.12 175.38,-391.12 175.38,-357.62 308.38,-357.62 308.38,-391.12"/>
<text text-anchor="start" x="183.38" y="-377.62" font-family="Helvetica,sans-Serif" font-size="10.00">PixelController::loadAnd</text>
<text text-anchor="middle" x="241.88" y="-364.88" font-family="Helvetica,sans-Serif" font-size="10.00">Scale2</text>
</a>
</g>
</g>
<!-- Node1&#45;&gt;Node11 -->
<g id="edge10_Node000001_Node000011" class="edge">
<title>Node1&#45;&gt;Node11</title>
<g id="a_edge10_Node000001_Node000011"><a xlink:title=" ">
<path fill="none" stroke="#63b8ff" d="M105.94,-326.62C123.27,-333.61 143.64,-341.61 162.25,-348.38 166.94,-350.08 171.8,-351.8 176.7,-353.5"/>
<polygon fill="#63b8ff" stroke="#63b8ff" points="175.41,-356.76 186.01,-356.69 177.68,-350.14 175.41,-356.76"/>
</a>
</g>
</g>
<!-- Node12 -->
<g id="Node000012" class="node">
<title>Node12</title>
<g id="a_Node000012"><a xlink:href="../../db/d3b/class_fast_pin.html#a5148b7a0cd5fd551da455c03afc09003" target="_top" xlink:title="Gets the state of the port with this pin LOW">
<polygon fill="white" stroke="#666666" points="282.12,-339.75 201.62,-339.75 201.62,-319 282.12,-319 282.12,-339.75"/>
<text text-anchor="middle" x="241.88" y="-326.25" font-family="Helvetica,sans-Serif" font-size="10.00">FastPin::loval</text>
</a>
</g>
</g>
<!-- Node1&#45;&gt;Node12 -->
<g id="edge12_Node000001_Node000012" class="edge">
<title>Node1&#45;&gt;Node12</title>
<g id="a_edge12_Node000001_Node000012"><a xlink:title=" ">
<path fill="none" stroke="#63b8ff" d="M126.44,-316.43C147.21,-318.78 170.09,-321.37 189.9,-323.61"/>
<polygon fill="#63b8ff" stroke="#63b8ff" points="189.33,-327.06 199.66,-324.71 190.12,-320.11 189.33,-327.06"/>
</a>
</g>
</g>
<!-- Node13 -->
<g id="Node000013" class="node">
<title>Node13</title>
<g id="a_Node000013"><a xlink:href="../../db/d3b/class_fast_pin.html#a97fd678e7bc05979582254783a1b5e57" target="_top" xlink:title="Get the pin mask.">
<polygon fill="white" stroke="#666666" points="283.62,-300.75 200.12,-300.75 200.12,-280 283.62,-280 283.62,-300.75"/>
<text text-anchor="middle" x="241.88" y="-287.25" font-family="Helvetica,sans-Serif" font-size="10.00">FastPin::mask</text>
</a>
</g>
</g>
<!-- Node1&#45;&gt;Node13 -->
<g id="edge13_Node000001_Node000013" class="edge">
<title>Node1&#45;&gt;Node13</title>
<g id="a_edge13_Node000001_Node000013"><a xlink:title=" ">
<path fill="none" stroke="#63b8ff" d="M126.44,-302.68C146.7,-300.5 168.97,-298.1 188.43,-296.01"/>
<polygon fill="#63b8ff" stroke="#63b8ff" points="188.76,-299.5 198.33,-294.95 188.02,-292.54 188.76,-299.5"/>
</a>
</g>
</g>
<!-- Node14 -->
<g id="Node000014" class="node">
<title>Node14</title>
<g id="a_Node000014"><a xlink:href="../../db/d3b/class_fast_pin.html#ab005abe848eadb60051daccb4eb7dbe8" target="_top" xlink:title="Get the output state of the port.">
<polygon fill="white" stroke="#666666" points="279.88,-261.75 203.88,-261.75 203.88,-241 279.88,-241 279.88,-261.75"/>
<text text-anchor="middle" x="241.88" y="-248.25" font-family="Helvetica,sans-Serif" font-size="10.00">FastPin::port</text>
</a>
</g>
</g>
<!-- Node1&#45;&gt;Node14 -->
<g id="edge14_Node000001_Node000014" class="edge">
<title>Node1&#45;&gt;Node14</title>
<g id="a_edge14_Node000001_Node000014"><a xlink:title=" ">
<path fill="none" stroke="#63b8ff" d="M105.27,-292.17C122.68,-285.22 143.28,-277.44 162.25,-271.38 171.9,-268.29 182.34,-265.36 192.35,-262.74"/>
<polygon fill="#63b8ff" stroke="#63b8ff" points="193.12,-266.16 201.95,-260.3 191.4,-259.37 193.12,-266.16"/>
</a>
</g>
</g>
<!-- Node15 -->
<g id="Node000015" class="node">
<title>Node15</title>
<g id="a_Node000015"><a xlink:href="../../dc/d57/class_a_v_r_software_s_p_i_output.html#a677ab5b52bbd6011d48c3a14e3ebdcb2" target="_top" xlink:title="Release the SPI chip select line.">
<polygon fill="white" stroke="#666666" points="305,-223.12 178.75,-223.12 178.75,-189.62 305,-189.62 305,-223.12"/>
<text text-anchor="start" x="186.75" y="-209.62" font-family="Helvetica,sans-Serif" font-size="10.00">AVRSoftwareSPIOutput</text>
<text text-anchor="middle" x="241.88" y="-196.88" font-family="Helvetica,sans-Serif" font-size="10.00">::release</text>
</a>
</g>
</g>
<!-- Node1&#45;&gt;Node15 -->
<g id="edge15_Node000001_Node000015" class="edge">
<title>Node1&#45;&gt;Node15</title>
<g id="a_edge15_Node000001_Node000015"><a xlink:title=" ">
<path fill="none" stroke="#63b8ff" d="M81.94,-292.24C100.64,-275.06 131.53,-248.86 162.25,-232.38 165.1,-230.85 168.06,-229.38 171.08,-227.99"/>
<polygon fill="#63b8ff" stroke="#63b8ff" points="172.34,-231.26 180.16,-224.11 169.59,-224.82 172.34,-231.26"/>
</a>
</g>
</g>
<!-- Node17 -->
<g id="Node000017" class="node">
<title>Node17</title>
<g id="a_Node000017"><a xlink:href="../../dc/d57/class_a_v_r_software_s_p_i_output.html#a15872bb6ae69fd5a5c04b246fe73740e" target="_top" xlink:title="Select the SPI output (chip select)">
<polygon fill="white" stroke="#666666" points="305,-171.12 178.75,-171.12 178.75,-137.62 305,-137.62 305,-171.12"/>
<text text-anchor="start" x="186.75" y="-157.62" font-family="Helvetica,sans-Serif" font-size="10.00">AVRSoftwareSPIOutput</text>
<text text-anchor="middle" x="241.88" y="-144.88" font-family="Helvetica,sans-Serif" font-size="10.00">::select</text>
</a>
</g>
</g>
<!-- Node1&#45;&gt;Node17 -->
<g id="edge17_Node000001_Node000017" class="edge">
<title>Node1&#45;&gt;Node17</title>
<g id="a_edge17_Node000001_Node000017"><a xlink:title=" ">
<path fill="none" stroke="#63b8ff" d="M72.57,-292.53C87.15,-265.1 119.65,-210.78 162.25,-180.38 164.29,-178.92 166.43,-177.53 168.62,-176.23"/>
<polygon fill="#63b8ff" stroke="#63b8ff" points="170.06,-179.43 177.27,-171.67 166.79,-173.24 170.06,-179.43"/>
</a>
</g>
</g>
<!-- Node19 -->
<g id="Node000019" class="node">
<title>Node19</title>
<g id="a_Node000019"><a xlink:href="../../d0/dee/struct_pixel_controller.html#ac7cb7840989882cce60218ac43dbe8ef" target="_top" xlink:title="Step the dithering forward.">
<polygon fill="white" stroke="#666666" points="321.5,-119.75 162.25,-119.75 162.25,-99 321.5,-99 321.5,-119.75"/>
<text text-anchor="middle" x="241.88" y="-106.25" font-family="Helvetica,sans-Serif" font-size="10.00">PixelController::stepDithering</text>
</a>
</g>
</g>
<!-- Node1&#45;&gt;Node19 -->
<g id="edge19_Node000001_Node000019" class="edge">
<title>Node1&#45;&gt;Node19</title>
<g id="a_edge19_Node000001_Node000019"><a xlink:title=" ">
<path fill="none" stroke="#63b8ff" d="M68.31,-292.36C78.13,-256.2 106.15,-171.52 162.25,-128.38 163.57,-127.36 164.94,-126.4 166.35,-125.48"/>
<polygon fill="#63b8ff" stroke="#63b8ff" points="167.69,-128.74 174.81,-120.89 164.35,-122.59 167.69,-128.74"/>
</a>
</g>
</g>
<!-- Node20 -->
<g id="Node000020" class="node">
<title>Node20</title>
<g id="a_Node000020"><a xlink:href="../../dc/d57/class_a_v_r_software_s_p_i_output.html#ad13d8cd559302413e8c885aab5ad7497" target="_top" xlink:title="Write the BIT&#39;th bit out via SPI, setting the data pin then strobing the clock.">
<polygon fill="white" stroke="#666666" points="487.12,-66.12 360.88,-66.12 360.88,-32.62 487.12,-32.62 487.12,-66.12"/>
<text text-anchor="start" x="368.88" y="-52.62" font-family="Helvetica,sans-Serif" font-size="10.00">AVRSoftwareSPIOutput</text>
<text text-anchor="middle" x="424" y="-39.88" font-family="Helvetica,sans-Serif" font-size="10.00">::writeBit</text>
</a>
</g>
</g>
<!-- Node1&#45;&gt;Node20 -->
<g id="edge20_Node000001_Node000020" class="edge">
<title>Node1&#45;&gt;Node20</title>
<g id="a_edge20_Node000001_Node000020"><a xlink:title=" ">
<path fill="none" stroke="#63b8ff" d="M66.27,-292.33C72.51,-250.41 94.73,-142 162.25,-90.38 190.86,-68.5 282.61,-58.03 349.2,-53.21"/>
<polygon fill="#63b8ff" stroke="#63b8ff" points="349.24,-56.72 358.97,-52.53 348.76,-49.73 349.24,-56.72"/>
</a>
</g>
</g>
<!-- Node24 -->
<g id="Node000024" class="node">
<title>Node24</title>
<g id="a_Node000024"><a xlink:href="../../dc/d57/class_a_v_r_software_s_p_i_output.html#a58393081ec8c54bd6968642b89e8bd43" target="_top" xlink:title="Write a single byte over SPI.">
<polygon fill="white" stroke="#666666" points="305,-43.12 178.75,-43.12 178.75,-9.62 305,-9.62 305,-43.12"/>
<text text-anchor="start" x="186.75" y="-29.62" font-family="Helvetica,sans-Serif" font-size="10.00">AVRSoftwareSPIOutput</text>
<text text-anchor="middle" x="241.88" y="-16.88" font-family="Helvetica,sans-Serif" font-size="10.00">::writeByte</text>
</a>
</g>
</g>
<!-- Node1&#45;&gt;Node24 -->
<g id="edge24_Node000001_Node000024" class="edge">
<title>Node1&#45;&gt;Node24</title>
<g id="a_edge24_Node000001_Node000024"><a xlink:title=" ">
<path fill="none" stroke="#63b8ff" d="M66.08,-292.13C72.05,-247.32 94.01,-125.91 162.25,-57.38 165.08,-54.53 168.2,-51.95 171.52,-49.59"/>
<polygon fill="#63b8ff" stroke="#63b8ff" points="173.36,-52.57 180.03,-44.34 169.68,-46.61 173.36,-52.57"/>
</a>
</g>
</g>
<!-- Node6 -->
<g id="Node000006" class="node">
<title>Node6</title>
<g id="a_Node000006"><a xlink:href="../../d0/dee/struct_pixel_controller.html#a56fc5e5bf305e1760198c0a69ac85ff9" target="_top" xlink:title="Loads, dithers, and scales a single byte for a given output slot, using class dither and scale values...">
<polygon fill="white" stroke="#666666" points="490.5,-443.12 357.5,-443.12 357.5,-409.62 490.5,-409.62 490.5,-443.12"/>
<text text-anchor="start" x="365.5" y="-429.62" font-family="Helvetica,sans-Serif" font-size="10.00">PixelController::loadAnd</text>
<text text-anchor="middle" x="424" y="-416.88" font-family="Helvetica,sans-Serif" font-size="10.00">Scale</text>
</a>
</g>
</g>
<!-- Node5&#45;&gt;Node6 -->
<g id="edge5_Node000005_Node000006" class="edge">
<title>Node5&#45;&gt;Node6</title>
<g id="a_edge5_Node000005_Node000006"><a xlink:title=" ">
<path fill="none" stroke="#63b8ff" d="M302.6,-461.13C318.65,-456.5 336.15,-451.45 352.71,-446.67"/>
<polygon fill="#63b8ff" stroke="#63b8ff" points="353.34,-450.13 361.98,-443.99 351.4,-443.4 353.34,-450.13"/>
</a>
</g>
</g>
<!-- Node7 -->
<g id="Node000007" class="node">
<title>Node7</title>
<g id="a_Node000007"><a xlink:href="../../d0/dee/struct_pixel_controller.html#aa2a1b38058a62a4337605425e482202f" target="_top" xlink:title="Calculate a dither value using the per&#45;channel dither data.">
<polygon fill="#fff0f0" stroke="red" points="655.75,-455.75 534,-455.75 534,-435 655.75,-435 655.75,-455.75"/>
<text text-anchor="middle" x="594.88" y="-442.25" font-family="Helvetica,sans-Serif" font-size="10.00">PixelController::dither</text>
</a>
</g>
</g>
<!-- Node6&#45;&gt;Node7 -->
<g id="edge6_Node000006_Node000007" class="edge">
<title>Node6&#45;&gt;Node7</title>
<g id="a_edge6_Node000006_Node000007"><a xlink:title=" ">
<path fill="none" stroke="#63b8ff" d="M490.78,-433.78C501.11,-434.94 511.84,-436.15 522.3,-437.32"/>
<polygon fill="#63b8ff" stroke="#63b8ff" points="521.69,-440.78 532.01,-438.42 522.47,-433.82 521.69,-440.78"/>
</a>
</g>
</g>
<!-- Node9 -->
<g id="Node000009" class="node">
<title>Node9</title>
<g id="a_Node000009"><a xlink:href="../../d0/dee/struct_pixel_controller.html#a75ef76fbecdc9b39b01eeab216845d9d" target="_top" xlink:title="Read a byte of LED data.">
<polygon fill="white" stroke="#666666" points="663.25,-416.75 526.5,-416.75 526.5,-396 663.25,-396 663.25,-416.75"/>
<text text-anchor="middle" x="594.88" y="-403.25" font-family="Helvetica,sans-Serif" font-size="10.00">PixelController::loadByte</text>
</a>
</g>
</g>
<!-- Node6&#45;&gt;Node9 -->
<g id="edge7_Node000006_Node000009" class="edge">
<title>Node6&#45;&gt;Node9</title>
<g id="a_edge7_Node000006_Node000009"><a xlink:title=" ">
<path fill="none" stroke="#63b8ff" d="M490.78,-418.59C498.64,-417.65 506.74,-416.69 514.77,-415.74"/>
<polygon fill="#63b8ff" stroke="#63b8ff" points="515.03,-419.24 524.55,-414.59 514.21,-412.29 515.03,-419.24"/>
</a>
</g>
</g>
<!-- Node10&#45;&gt;Node6 -->
<g id="edge9_Node000010_Node000006" class="edge">
<title>Node10&#45;&gt;Node6</title>
<g id="a_edge9_Node000010_Node000006"><a xlink:title=" ">
<path fill="none" stroke="#63b8ff" d="M308.67,-426.38C320.75,-426.38 333.46,-426.38 345.84,-426.38"/>
<polygon fill="#63b8ff" stroke="#63b8ff" points="345.57,-429.88 355.57,-426.38 345.57,-422.88 345.57,-429.88"/>
</a>
</g>
</g>
<!-- Node11&#45;&gt;Node6 -->
<g id="edge11_Node000011_Node000006" class="edge">
<title>Node11&#45;&gt;Node6</title>
<g id="a_edge11_Node000011_Node000006"><a xlink:title=" ">
<path fill="none" stroke="#63b8ff" d="M302.6,-391.62C318.65,-396.25 336.15,-401.3 352.71,-406.08"/>
<polygon fill="#63b8ff" stroke="#63b8ff" points="351.4,-409.35 361.98,-408.76 353.34,-402.62 351.4,-409.35"/>
</a>
</g>
</g>
<!-- Node16 -->
<g id="Node000016" class="node">
<title>Node16</title>
<g id="a_Node000016"><a xlink:href="../../dd/da1/class_selectable.html#a190c264a07995c20d72ea5d52eb60e47" target="_top" xlink:title="Release this object.">
<polygon fill="white" stroke="#666666" points="478.5,-216.75 369.5,-216.75 369.5,-196 478.5,-196 478.5,-216.75"/>
<text text-anchor="middle" x="424" y="-203.25" font-family="Helvetica,sans-Serif" font-size="10.00">Selectable::release</text>
</a>
</g>
</g>
<!-- Node15&#45;&gt;Node16 -->
<g id="edge16_Node000015_Node000016" class="edge">
<title>Node15&#45;&gt;Node16</title>
<g id="a_edge16_Node000015_Node000016"><a xlink:title=" ">
<path fill="none" stroke="#63b8ff" d="M305.37,-206.38C322.37,-206.38 340.83,-206.38 357.97,-206.38"/>
<polygon fill="#63b8ff" stroke="#63b8ff" points="357.5,-209.88 367.5,-206.38 357.5,-202.88 357.5,-209.88"/>
</a>
</g>
</g>
<!-- Node18 -->
<g id="Node000018" class="node">
<title>Node18</title>
<g id="a_Node000018"><a xlink:href="../../dd/da1/class_selectable.html#a5536adac637a1c55c3778158c7f38840" target="_top" xlink:title="Select this object.">
<polygon fill="white" stroke="#666666" points="475.12,-164.75 372.88,-164.75 372.88,-144 475.12,-144 475.12,-164.75"/>
<text text-anchor="middle" x="424" y="-151.25" font-family="Helvetica,sans-Serif" font-size="10.00">Selectable::select</text>
</a>
</g>
</g>
<!-- Node17&#45;&gt;Node18 -->
<g id="edge18_Node000017_Node000018" class="edge">
<title>Node17&#45;&gt;Node18</title>
<g id="a_edge18_Node000017_Node000018"><a xlink:title=" ">
<path fill="none" stroke="#63b8ff" d="M305.37,-154.38C323.46,-154.38 343.19,-154.38 361.24,-154.38"/>
<polygon fill="#63b8ff" stroke="#63b8ff" points="361,-157.88 371,-154.38 361,-150.88 361,-157.88"/>
</a>
</g>
</g>
<!-- Node21 -->
<g id="Node000021" class="node">
<title>Node21</title>
<g id="a_Node000021"><a xlink:href="../../db/d3b/class_fast_pin.html#add52474362013eb37903fc832e2abdc2" target="_top" xlink:title="Set the pin state to HIGH">
<polygon fill="white" stroke="#666666" points="627.62,-98.75 562.12,-98.75 562.12,-78 627.62,-78 627.62,-98.75"/>
<text text-anchor="middle" x="594.88" y="-85.25" font-family="Helvetica,sans-Serif" font-size="10.00">FastPin::hi</text>
</a>
</g>
</g>
<!-- Node20&#45;&gt;Node21 -->
<g id="edge21_Node000020_Node000021" class="edge">
<title>Node20&#45;&gt;Node21</title>
<g id="a_edge21_Node000020_Node000021"><a xlink:title=" ">
<path fill="none" stroke="#63b8ff" d="M487.4,-63.79C508.51,-68.66 531.59,-73.99 550.85,-78.44"/>
<polygon fill="#63b8ff" stroke="#63b8ff" points="550,-81.83 560.53,-80.67 551.57,-75.01 550,-81.83"/>
</a>
</g>
</g>
<!-- Node22 -->
<g id="Node000022" class="node">
<title>Node22</title>
<g id="a_Node000022"><a xlink:href="../../db/d3b/class_fast_pin.html#aa7420ec06218b5201f7f54cf6f4bfb86" target="_top" xlink:title="Set the pin state to LOW">
<polygon fill="white" stroke="#666666" points="627.62,-59.75 562.12,-59.75 562.12,-39 627.62,-39 627.62,-59.75"/>
<text text-anchor="middle" x="594.88" y="-46.25" font-family="Helvetica,sans-Serif" font-size="10.00">FastPin::lo</text>
</a>
</g>
</g>
<!-- Node20&#45;&gt;Node22 -->
<g id="edge22_Node000020_Node000022" class="edge">
<title>Node20&#45;&gt;Node22</title>
<g id="a_edge22_Node000020_Node000022"><a xlink:title=" ">
<path fill="none" stroke="#63b8ff" d="M487.4,-49.38C508.41,-49.38 531.38,-49.38 550.58,-49.38"/>
<polygon fill="#63b8ff" stroke="#63b8ff" points="550.49,-52.88 560.49,-49.38 550.49,-45.88 550.49,-52.88"/>
</a>
</g>
</g>
<!-- Node23 -->
<g id="Node000023" class="node">
<title>Node23</title>
<g id="a_Node000023"><a xlink:href="../../db/d3b/class_fast_pin.html#a25b537b13a05155051cc663b4877f79f" target="_top" xlink:title="Toggle the pin.">
<polygon fill="white" stroke="#666666" points="638.5,-20.75 551.25,-20.75 551.25,0 638.5,0 638.5,-20.75"/>
<text text-anchor="middle" x="594.88" y="-7.25" font-family="Helvetica,sans-Serif" font-size="10.00">FastPin::toggle</text>
</a>
</g>
</g>
<!-- Node20&#45;&gt;Node23 -->
<g id="edge23_Node000020_Node000023" class="edge">
<title>Node20&#45;&gt;Node23</title>
<g id="a_edge23_Node000020_Node000023"><a xlink:title=" ">
<path fill="none" stroke="#63b8ff" d="M487.4,-34.96C504.58,-31 523.06,-26.73 539.73,-22.88"/>
<polygon fill="#63b8ff" stroke="#63b8ff" points="540.51,-26.29 549.47,-20.63 538.94,-19.47 540.51,-26.29"/>
</a>
</g>
</g>
<!-- Node24&#45;&gt;Node20 -->
<g id="edge25_Node000024_Node000020" class="edge">
<title>Node24&#45;&gt;Node20</title>
<g id="a_edge25_Node000024_Node000020"><a xlink:title=" ">
<path fill="none" stroke="#63b8ff" d="M305.37,-34.35C319.62,-36.17 334.89,-38.12 349.55,-40"/>
<polygon fill="#63b8ff" stroke="#63b8ff" points="348.75,-43.42 359.12,-41.22 349.64,-36.48 348.75,-43.42"/>
</a>
</g>
</g>
</g>
</svg>
