<?xml version="1.0" encoding="UTF-8" standalone="no"?>
<!DOCTYPE svg PUBLIC "-//W3C//DTD SVG 1.1//EN"
 "http://www.w3.org/Graphics/SVG/1.1/DTD/svg11.dtd">
<!-- Generated by graphviz version 12.2.1 (20241206.2353)
 -->
<!-- Title: /home/runner/work/FastLED/FastLED/examples/LuminescentGrand/shared/Painter.cpp Pages: 1 -->
<svg width="616pt" height="281pt"
 viewBox="0.00 0.00 615.50 281.25" xmlns="http://www.w3.org/2000/svg" xmlns:xlink="http://www.w3.org/1999/xlink">
<g id="graph0" class="graph" transform="scale(1 1) rotate(0) translate(4 277.25)">
<title>/home/runner/work/FastLED/FastLED/examples/LuminescentGrand/shared/Painter.cpp</title>
<!-- Node1 -->
<g id="Node000001" class="node">
<title>Node1</title>
<g id="a_Node000001"><a xlink:title=" ">
<polygon fill="#999999" stroke="#666666" points="388.62,-273.25 185.88,-273.25 185.88,-227 388.62,-227 388.62,-273.25"/>
<text text-anchor="start" x="193.88" y="-259.75" font-family="Helvetica,sans-Serif" font-size="10.00">/home/runner/work/FastLED</text>
<text text-anchor="start" x="193.88" y="-247" font-family="Helvetica,sans-Serif" font-size="10.00">/FastLED/examples/LuminescentGrand</text>
<text text-anchor="middle" x="287.25" y="-234.25" font-family="Helvetica,sans-Serif" font-size="10.00">/shared/Painter.cpp</text>
</a>
</g>
</g>
<!-- Node2 -->
<g id="Node000002" class="node">
<title>Node2</title>
<g id="a_Node000002"><a xlink:title=" ">
<polygon fill="#e0e0e0" stroke="#999999" points="62.5,-77.5 0,-77.5 0,-56.75 62.5,-56.75 62.5,-77.5"/>
<text text-anchor="middle" x="31.25" y="-64" font-family="Helvetica,sans-Serif" font-size="10.00">Arduino.h</text>
</a>
</g>
</g>
<!-- Node1&#45;&gt;Node2 -->
<g id="edge1_Node000001_Node000002" class="edge">
<title>Node1&#45;&gt;Node2</title>
<g id="a_edge1_Node000001_Node000002"><a xlink:title=" ">
<path fill="none" stroke="#63b8ff" d="M185.43,-236.57C123.75,-222.86 50.7,-194.19 17.25,-134.25 9.3,-120 14.12,-101.72 20.18,-87.99"/>
<polygon fill="#63b8ff" stroke="#63b8ff" points="23.29,-89.58 24.63,-79.07 17.03,-86.46 23.29,-89.58"/>
</a>
</g>
</g>
<!-- Node3 -->
<g id="Node000003" class="node">
<title>Node3</title>
<g id="a_Node000003"><a xlink:href="../../dc/db0/_painter_8h.html" target="_top" xlink:title=" ">
<polygon fill="white" stroke="#666666" points="213.25,-191 149.25,-191 149.25,-170.25 213.25,-170.25 213.25,-191"/>
<text text-anchor="middle" x="181.25" y="-177.5" font-family="Helvetica,sans-Serif" font-size="10.00">./Painter.h</text>
</a>
</g>
</g>
<!-- Node1&#45;&gt;Node3 -->
<g id="edge2_Node000001_Node000003" class="edge">
<title>Node1&#45;&gt;Node3</title>
<g id="a_edge2_Node000001_Node000003"><a xlink:title=" ">
<path fill="none" stroke="#63b8ff" d="M251.95,-226.65C236.98,-217.11 219.88,-206.22 206.24,-197.54"/>
<polygon fill="#63b8ff" stroke="#63b8ff" points="208.18,-194.62 197.86,-192.2 204.42,-200.53 208.18,-194.62"/>
</a>
</g>
</g>
<!-- Node4 -->
<g id="Node000004" class="node">
<title>Node4</title>
<g id="a_Node000004"><a xlink:href="../../df/d85/_keyboard_8h.html" target="_top" xlink:title=" ">
<polygon fill="white" stroke="#666666" points="102.62,-134.25 25.88,-134.25 25.88,-113.5 102.62,-113.5 102.62,-134.25"/>
<text text-anchor="middle" x="64.25" y="-120.75" font-family="Helvetica,sans-Serif" font-size="10.00">./Keyboard.h</text>
</a>
</g>
</g>
<!-- Node1&#45;&gt;Node4 -->
<g id="edge16_Node000001_Node000004" class="edge">
<title>Node1&#45;&gt;Node4</title>
<g id="a_edge16_Node000001_Node000004"><a xlink:title=" ">
<path fill="none" stroke="#63b8ff" d="M216.14,-226.56C191.26,-217.25 163.7,-205.26 140.25,-191 117.97,-177.46 95.87,-157.27 81.29,-142.76"/>
<polygon fill="#63b8ff" stroke="#63b8ff" points="83.82,-140.34 74.32,-135.65 78.82,-145.24 83.82,-140.34"/>
</a>
</g>
</g>
<!-- Node11 -->
<g id="Node000011" class="node">
<title>Node11</title>
<g id="a_Node000011"><a xlink:href="../../df/da2/led__layout__array_8h.html" target="_top" xlink:title=" ">
<polygon fill="white" stroke="#666666" points="342.88,-191 231.62,-191 231.62,-170.25 342.88,-170.25 342.88,-191"/>
<text text-anchor="middle" x="287.25" y="-177.5" font-family="Helvetica,sans-Serif" font-size="10.00">./led_layout_array.h</text>
</a>
</g>
</g>
<!-- Node1&#45;&gt;Node11 -->
<g id="edge14_Node000001_Node000011" class="edge">
<title>Node1&#45;&gt;Node11</title>
<g id="a_edge14_Node000001_Node000011"><a xlink:title=" ">
<path fill="none" stroke="#63b8ff" d="M287.25,-226.65C287.25,-218.98 287.25,-210.44 287.25,-202.88"/>
<polygon fill="#63b8ff" stroke="#63b8ff" points="290.75,-202.9 287.25,-192.9 283.75,-202.9 290.75,-202.9"/>
</a>
</g>
</g>
<!-- Node12 -->
<g id="Node000012" class="node">
<title>Node12</title>
<g id="a_Node000012"><a xlink:href="../../df/d29/dprint_8h.html" target="_top" xlink:title=" ">
<polygon fill="white" stroke="#666666" points="420,-191 360.5,-191 360.5,-170.25 420,-170.25 420,-191"/>
<text text-anchor="middle" x="390.25" y="-177.5" font-family="Helvetica,sans-Serif" font-size="10.00">./dprint.h</text>
</a>
</g>
</g>
<!-- Node1&#45;&gt;Node12 -->
<g id="edge15_Node000001_Node000012" class="edge">
<title>Node1&#45;&gt;Node12</title>
<g id="a_edge15_Node000001_Node000012"><a xlink:title=" ">
<path fill="none" stroke="#63b8ff" d="M321.55,-226.65C336.1,-217.11 352.72,-206.22 365.96,-197.54"/>
<polygon fill="#63b8ff" stroke="#63b8ff" points="367.64,-200.63 374.08,-192.22 363.8,-194.77 367.64,-200.63"/>
</a>
</g>
</g>
<!-- Node13 -->
<g id="Node000013" class="node">
<title>Node13</title>
<g id="a_Node000013"><a xlink:href="../../d0/d19/fl_2math__macros_8h.html" target="_top" xlink:title=" ">
<polygon fill="white" stroke="#666666" points="538.62,-191 437.88,-191 437.88,-170.25 538.62,-170.25 538.62,-191"/>
<text text-anchor="middle" x="488.25" y="-177.5" font-family="Helvetica,sans-Serif" font-size="10.00">fl/math_macros.h</text>
</a>
</g>
</g>
<!-- Node1&#45;&gt;Node13 -->
<g id="edge17_Node000001_Node000013" class="edge">
<title>Node1&#45;&gt;Node13</title>
<g id="a_edge17_Node000001_Node000013"><a xlink:title=" ">
<path fill="none" stroke="#63b8ff" d="M354.46,-226.55C385.52,-216.13 421.35,-204.09 448.12,-195.1"/>
<polygon fill="#63b8ff" stroke="#63b8ff" points="449.19,-198.43 457.56,-191.93 446.96,-191.8 449.19,-198.43"/>
</a>
</g>
</g>
<!-- Node14 -->
<g id="Node000014" class="node">
<title>Node14</title>
<g id="a_Node000014"><a xlink:title=" ">
<polygon fill="#e0e0e0" stroke="#999999" points="607.5,-191 557,-191 557,-170.25 607.5,-170.25 607.5,-191"/>
<text text-anchor="middle" x="582.25" y="-177.5" font-family="Helvetica,sans-Serif" font-size="10.00">math.h</text>
</a>
</g>
</g>
<!-- Node1&#45;&gt;Node14 -->
<g id="edge18_Node000001_Node000014" class="edge">
<title>Node1&#45;&gt;Node14</title>
<g id="a_edge18_Node000001_Node000014"><a xlink:title=" ">
<path fill="none" stroke="#63b8ff" d="M389.04,-227.4C434.22,-217.51 488.25,-205.35 545.55,-191.34"/>
<polygon fill="#63b8ff" stroke="#63b8ff" points="546.32,-194.76 555.2,-188.97 544.65,-187.96 546.32,-194.76"/>
</a>
</g>
</g>
<!-- Node3&#45;&gt;Node4 -->
<g id="edge3_Node000003_Node000004" class="edge">
<title>Node3&#45;&gt;Node4</title>
<g id="a_edge3_Node000003_Node000004"><a xlink:title=" ">
<path fill="none" stroke="#63b8ff" d="M160.33,-169.84C142.28,-161.39 115.95,-149.07 95.41,-139.46"/>
<polygon fill="#63b8ff" stroke="#63b8ff" points="96.9,-136.29 86.36,-135.22 93.93,-142.63 96.9,-136.29"/>
</a>
</g>
</g>
<!-- Node7 -->
<g id="Node000007" class="node">
<title>Node7</title>
<g id="a_Node000007"><a xlink:href="../../d8/d3c/util_8h.html" target="_top" xlink:title=" ">
<polygon fill="#fff0f0" stroke="red" points="344.62,-77.5 297.88,-77.5 297.88,-56.75 344.62,-56.75 344.62,-77.5"/>
<text text-anchor="middle" x="321.25" y="-64" font-family="Helvetica,sans-Serif" font-size="10.00">./util.h</text>
</a>
</g>
</g>
<!-- Node3&#45;&gt;Node7 -->
<g id="edge10_Node000003_Node000007" class="edge">
<title>Node3&#45;&gt;Node7</title>
<g id="a_edge10_Node000003_Node000007"><a xlink:title=" ">
<path fill="none" stroke="#63b8ff" d="M213.53,-171.3C235.51,-164.33 264.15,-152.52 284.25,-134.25 298.08,-121.68 307.95,-102.71 314,-88.3"/>
<polygon fill="#63b8ff" stroke="#63b8ff" points="317.12,-89.94 317.49,-79.35 310.6,-87.4 317.12,-89.94"/>
</a>
</g>
</g>
<!-- Node8 -->
<g id="Node000008" class="node">
<title>Node8</title>
<g id="a_Node000008"><a xlink:href="../../d7/dd8/_approximating_function_8h.html" target="_top" xlink:title=" ">
<polygon fill="white" stroke="#666666" points="336.38,-20.75 192.12,-20.75 192.12,0 336.38,0 336.38,-20.75"/>
<text text-anchor="middle" x="264.25" y="-7.25" font-family="Helvetica,sans-Serif" font-size="10.00">./ApproximatingFunction.h</text>
</a>
</g>
</g>
<!-- Node3&#45;&gt;Node8 -->
<g id="edge9_Node000003_Node000008" class="edge">
<title>Node3&#45;&gt;Node8</title>
<g id="a_edge9_Node000003_Node000008"><a xlink:title=" ">
<path fill="none" stroke="#63b8ff" d="M206.87,-169.8C222.39,-162.45 241.1,-150.79 251.25,-134.25 270.54,-102.83 269.79,-58.21 267.21,-32.28"/>
<polygon fill="#63b8ff" stroke="#63b8ff" points="270.73,-32.21 266.06,-22.7 263.78,-33.04 270.73,-32.21"/>
</a>
</g>
</g>
<!-- Node9 -->
<g id="Node000009" class="node">
<title>Node9</title>
<g id="a_Node000009"><a xlink:href="../../de/d60/settings_8h.html" target="_top" xlink:title=" ">
<polygon fill="white" stroke="#666666" points="424.25,-20.75 354.25,-20.75 354.25,0 424.25,0 424.25,-20.75"/>
<text text-anchor="middle" x="389.25" y="-7.25" font-family="Helvetica,sans-Serif" font-size="10.00">./settings.h</text>
</a>
</g>
</g>
<!-- Node3&#45;&gt;Node9 -->
<g id="edge11_Node000003_Node000009" class="edge">
<title>Node3&#45;&gt;Node9</title>
<g id="a_edge11_Node000003_Node000009"><a xlink:title=" ">
<path fill="none" stroke="#63b8ff" d="M213.54,-170.03C245.25,-160.23 291.01,-144.99 306.25,-134.25 343.63,-107.92 369.1,-58.97 381.19,-31.47"/>
<polygon fill="#63b8ff" stroke="#63b8ff" points="384.3,-33.09 384.96,-22.52 377.85,-30.38 384.3,-33.09"/>
</a>
</g>
</g>
<!-- Node10 -->
<g id="Node000010" class="node">
<title>Node10</title>
<g id="a_Node000010"><a xlink:href="../../db/d19/led__rope__interface_8h.html" target="_top" xlink:title=" ">
<polygon fill="white" stroke="#666666" points="242.12,-134.25 120.38,-134.25 120.38,-113.5 242.12,-113.5 242.12,-134.25"/>
<text text-anchor="middle" x="181.25" y="-120.75" font-family="Helvetica,sans-Serif" font-size="10.00">./led_rope_interface.h</text>
</a>
</g>
</g>
<!-- Node3&#45;&gt;Node10 -->
<g id="edge12_Node000003_Node000010" class="edge">
<title>Node3&#45;&gt;Node10</title>
<g id="a_edge12_Node000003_Node000010"><a xlink:title=" ">
<path fill="none" stroke="#63b8ff" d="M181.25,-169.84C181.25,-163.22 181.25,-154.22 181.25,-146.02"/>
<polygon fill="#63b8ff" stroke="#63b8ff" points="184.75,-146.09 181.25,-136.09 177.75,-146.09 184.75,-146.09"/>
</a>
</g>
</g>
<!-- Node4&#45;&gt;Node2 -->
<g id="edge4_Node000004_Node000002" class="edge">
<title>Node4&#45;&gt;Node2</title>
<g id="a_edge4_Node000004_Node000002"><a xlink:title=" ">
<path fill="none" stroke="#63b8ff" d="M58.35,-113.09C54.08,-106 48.17,-96.19 42.95,-87.54"/>
<polygon fill="#63b8ff" stroke="#63b8ff" points="46.04,-85.88 37.88,-79.12 40.04,-89.5 46.04,-85.88"/>
</a>
</g>
</g>
<!-- Node5 -->
<g id="Node000005" class="node">
<title>Node5</title>
<g id="a_Node000005"><a xlink:href="../../de/de1/examples_2_luminescent_grand_2shared_2color_8h.html" target="_top" xlink:title=" ">
<polygon fill="#fff0f0" stroke="red" points="167.38,-77.5 119.12,-77.5 119.12,-56.75 167.38,-56.75 167.38,-77.5"/>
<text text-anchor="middle" x="143.25" y="-64" font-family="Helvetica,sans-Serif" font-size="10.00">color.h</text>
</a>
</g>
</g>
<!-- Node4&#45;&gt;Node5 -->
<g id="edge5_Node000004_Node000005" class="edge">
<title>Node4&#45;&gt;Node5</title>
<g id="a_edge5_Node000004_Node000005"><a xlink:title=" ">
<path fill="none" stroke="#63b8ff" d="M78.37,-113.09C89.94,-105.07 106.55,-93.56 120.07,-84.19"/>
<polygon fill="#63b8ff" stroke="#63b8ff" points="121.78,-87.26 128,-78.69 117.79,-81.51 121.78,-87.26"/>
</a>
</g>
</g>
<!-- Node4&#45;&gt;Node7 -->
<g id="edge6_Node000004_Node000007" class="edge">
<title>Node4&#45;&gt;Node7</title>
<g id="a_edge6_Node000004_Node000007"><a xlink:title=" ">
<path fill="none" stroke="#63b8ff" d="M103,-114.62C152.88,-103.99 238.78,-85.69 286.59,-75.51"/>
<polygon fill="#63b8ff" stroke="#63b8ff" points="287.06,-78.99 296.11,-73.48 285.6,-72.14 287.06,-78.99"/>
</a>
</g>
</g>
<!-- Node7&#45;&gt;Node8 -->
<g id="edge7_Node000007_Node000008" class="edge">
<title>Node7&#45;&gt;Node8</title>
<g id="a_edge7_Node000007_Node000008"><a xlink:title=" ">
<path fill="none" stroke="#63b8ff" d="M311.06,-56.34C303.12,-48.71 291.88,-37.92 282.41,-28.82"/>
<polygon fill="#63b8ff" stroke="#63b8ff" points="285.08,-26.53 275.44,-22.13 280.23,-31.58 285.08,-26.53"/>
</a>
</g>
</g>
<!-- Node7&#45;&gt;Node9 -->
<g id="edge8_Node000007_Node000009" class="edge">
<title>Node7&#45;&gt;Node9</title>
<g id="a_edge8_Node000007_Node000009"><a xlink:title=" ">
<path fill="none" stroke="#63b8ff" d="M333.41,-56.34C343.08,-48.55 356.83,-37.47 368.27,-28.26"/>
<polygon fill="#63b8ff" stroke="#63b8ff" points="370.43,-31.03 376.02,-22.03 366.04,-25.57 370.43,-31.03"/>
</a>
</g>
</g>
<!-- Node10&#45;&gt;Node5 -->
<g id="edge13_Node000010_Node000005" class="edge">
<title>Node10&#45;&gt;Node5</title>
<g id="a_edge13_Node000010_Node000005"><a xlink:title=" ">
<path fill="none" stroke="#63b8ff" d="M174.46,-113.09C169.48,-105.92 162.58,-95.98 156.53,-87.26"/>
<polygon fill="#63b8ff" stroke="#63b8ff" points="159.43,-85.29 150.85,-79.07 153.67,-89.28 159.43,-85.29"/>
</a>
</g>
</g>
</g>
</svg>
