<?xml version="1.0" encoding="UTF-8" standalone="no"?>
<!DOCTYPE svg PUBLIC "-//W3C//DTD SVG 1.1//EN"
 "http://www.w3.org/Graphics/SVG/1.1/DTD/svg11.dtd">
<!-- Generated by graphviz version 12.2.1 (20241206.2353)
 -->
<!-- Title: fl::FileHandle Pages: 1 -->
<svg width="494pt" height="181pt"
 viewBox="0.00 0.00 493.88 180.50" xmlns="http://www.w3.org/2000/svg" xmlns:xlink="http://www.w3.org/1999/xlink">
<g id="graph0" class="graph" transform="scale(1 1) rotate(0) translate(4 176.5)">
<title>fl::FileHandle</title>
<!-- Node1 -->
<g id="Node000001" class="node">
<title>Node1</title>
<g id="a_Node000001"><a xlink:title=" ">
<polygon fill="#999999" stroke="#666666" points="79.75,-96.62 0,-96.62 0,-75.88 79.75,-75.88 79.75,-96.62"/>
<text text-anchor="middle" x="39.88" y="-83.12" font-family="Helvetica,sans-Serif" font-size="10.00">fl::FileHandle</text>
</a>
</g>
</g>
<!-- Node2 -->
<g id="Node000002" class="node">
<title>Node2</title>
<g id="a_Node000002"><a xlink:href="../../d6/d16/classfl_1_1_referent.html" target="_top" xlink:title=" ">
<polygon fill="white" stroke="#666666" points="180.88,-172.5 110.88,-172.5 110.88,-151.75 180.88,-151.75 180.88,-172.5"/>
<text text-anchor="middle" x="145.88" y="-159" font-family="Helvetica,sans-Serif" font-size="10.00">fl::Referent</text>
</a>
</g>
</g>
<!-- Node2&#45;&gt;Node1 -->
<g id="edge1_Node000001_Node000002" class="edge">
<title>Node2&#45;&gt;Node1</title>
<g id="a_edge1_Node000001_Node000002"><a xlink:title=" ">
<path fill="none" stroke="#63b8ff" d="M122.8,-145.04C101.73,-130.36 71.28,-109.13 53.74,-96.91"/>
<polygon fill="#63b8ff" stroke="#63b8ff" points="120.57,-147.76 130.78,-150.6 124.57,-142.01 120.57,-147.76"/>
</a>
</g>
</g>
<!-- Node6 -->
<g id="Node000006" class="node">
<title>Node6</title>
<g id="a_Node000006"><a xlink:href="../../dd/da7/classfl_1_1_weak_referent.html" target="_top" xlink:title=" ">
<polygon fill="white" stroke="#666666" points="194.38,-96.62 97.38,-96.62 97.38,-75.88 194.38,-75.88 194.38,-96.62"/>
<text text-anchor="middle" x="145.88" y="-83.12" font-family="Helvetica,sans-Serif" font-size="10.00">fl::WeakReferent</text>
</a>
</g>
</g>
<!-- Node2&#45;&gt;Node6 -->
<g id="edge5_Node000006_Node000002" class="edge">
<title>Node2&#45;&gt;Node6</title>
<g id="a_edge5_Node000006_Node000002"><a xlink:title=" ">
<path fill="none" stroke="#9a32cd" stroke-dasharray="5,2" d="M145.88,-140.2C145.88,-125.88 145.88,-107.58 145.88,-96.68"/>
<polygon fill="#9a32cd" stroke="#9a32cd" points="142.38,-139.95 145.88,-149.95 149.38,-139.95 142.38,-139.95"/>
</a>
</g>
<text text-anchor="middle" x="173.25" y="-124.25" font-family="Helvetica,sans-Serif" font-size="10.00" fill="grey"> mReferent</text>
</g>
<!-- Node3 -->
<g id="Node000003" class="node">
<title>Node3</title>
<g id="a_Node000003"><a xlink:href="../../d1/d56/classfl_1_1_ptr.html" target="_top" xlink:title=" ">
<polygon fill="white" stroke="#666666" points="362.38,-20.75 217.38,-20.75 217.38,0 362.38,0 362.38,-20.75"/>
<text text-anchor="middle" x="289.88" y="-7.25" font-family="Helvetica,sans-Serif" font-size="10.00">fl::Ptr&lt; fl::WeakReferent &gt;</text>
</a>
</g>
</g>
<!-- Node3&#45;&gt;Node2 -->
<g id="edge2_Node000002_Node000003" class="edge">
<title>Node3&#45;&gt;Node2</title>
<g id="a_edge2_Node000002_Node000003"><a xlink:title=" ">
<path fill="none" stroke="#9a32cd" stroke-dasharray="5,2" d="M272.43,-29.47C262.22,-40.54 249.45,-55.26 239.62,-69.5 221.18,-96.21 228.52,-111.51 204.88,-133.75 196.81,-141.33 186.28,-147.12 176.34,-151.38"/>
<polygon fill="#9a32cd" stroke="#9a32cd" points="274.94,-31.9 279.24,-22.22 269.84,-27.11 274.94,-31.9"/>
</a>
</g>
<text text-anchor="middle" x="266.25" y="-83.12" font-family="Helvetica,sans-Serif" font-size="10.00" fill="grey"> mWeakPtr</text>
</g>
<!-- Node4 -->
<g id="Node000004" class="node">
<title>Node4</title>
<g id="a_Node000004"><a xlink:href="../../da/d84/classfl_1_1_ptr_traits.html" target="_top" xlink:title=" ">
<polygon fill="#fff0f0" stroke="red" points="398,-103 301.75,-103 301.75,-69.5 398,-69.5 398,-103"/>
<text text-anchor="start" x="309.75" y="-89.5" font-family="Helvetica,sans-Serif" font-size="10.00">fl::PtrTraits&lt; fl::</text>
<text text-anchor="middle" x="349.88" y="-76.75" font-family="Helvetica,sans-Serif" font-size="10.00">WeakReferent &gt;</text>
</a>
</g>
</g>
<!-- Node4&#45;&gt;Node3 -->
<g id="edge3_Node000003_Node000004" class="edge">
<title>Node4&#45;&gt;Node3</title>
<g id="a_edge3_Node000003_Node000004"><a xlink:title=" ">
<path fill="none" stroke="#63b8ff" d="M329.62,-60.32C318.6,-46.75 305.61,-30.75 297.56,-20.83"/>
<polygon fill="#63b8ff" stroke="#63b8ff" points="326.88,-62.49 335.9,-68.05 332.31,-58.08 326.88,-62.49"/>
</a>
</g>
</g>
<!-- Node6&#45;&gt;Node3 -->
<g id="edge4_Node000003_Node000006" class="edge">
<title>Node6&#45;&gt;Node3</title>
<g id="a_edge4_Node000003_Node000006"><a xlink:title=" ">
<path fill="none" stroke="#9a32cd" stroke-dasharray="5,2" d="M151.9,-64.7C155.6,-55.49 161.27,-45.25 169.62,-38.75 183.23,-28.17 200.17,-21.53 217,-17.41"/>
<polygon fill="#9a32cd" stroke="#9a32cd" points="148.63,-63.45 148.7,-74.04 155.25,-65.72 148.63,-63.45"/>
</a>
</g>
<text text-anchor="middle" x="193.25" y="-42" font-family="Helvetica,sans-Serif" font-size="10.00" fill="grey"> referent_</text>
</g>
<!-- Node7 -->
<g id="Node000007" class="node">
<title>Node7</title>
<g id="a_Node000007"><a xlink:href="../../d1/d56/classfl_1_1_ptr.html" target="_top" xlink:title=" ">
<polygon fill="#fff0f0" stroke="red" points="485.88,-96.62 415.88,-96.62 415.88,-75.88 485.88,-75.88 485.88,-96.62"/>
<text text-anchor="middle" x="450.88" y="-83.12" font-family="Helvetica,sans-Serif" font-size="10.00">fl::Ptr&lt; T &gt;</text>
</a>
</g>
</g>
<!-- Node7&#45;&gt;Node3 -->
<g id="edge6_Node000003_Node000007" class="edge">
<title>Node7&#45;&gt;Node3</title>
<g id="a_edge6_Node000003_Node000007"><a xlink:title=" ">
<path fill="none" stroke="orange" stroke-dasharray="5,2" d="M419.37,-70.79C387.49,-56.16 339.05,-33.94 311.34,-21.23"/>
<polygon fill="orange" stroke="orange" points="417.57,-73.82 428.12,-74.81 420.49,-67.46 417.57,-73.82"/>
</a>
</g>
<text text-anchor="middle" x="428.45" y="-42" font-family="Helvetica,sans-Serif" font-size="10.00" fill="grey"> &lt; fl::WeakReferent &gt;</text>
</g>
</g>
</svg>
