<?xml version="1.0" encoding="UTF-8" standalone="no"?>
<!DOCTYPE svg PUBLIC "-//W3C//DTD SVG 1.1//EN"
 "http://www.w3.org/Graphics/SVG/1.1/DTD/svg11.dtd">
<!-- Generated by graphviz version 12.2.1 (20241206.2353)
 -->
<!-- Title: /home/runner/work/FastLED/FastLED/src/fl/dbg.h Pages: 1 -->
<svg width="1978pt" height="440pt"
 viewBox="0.00 0.00 1978.12 440.00" xmlns="http://www.w3.org/2000/svg" xmlns:xlink="http://www.w3.org/1999/xlink">
<g id="graph0" class="graph" transform="scale(1 1) rotate(0) translate(4 436)">
<title>/home/runner/work/FastLED/FastLED/src/fl/dbg.h</title>
<!-- Node1 -->
<g id="Node000001" class="node">
<title>Node1</title>
<g id="a_Node000001"><a xlink:title=" ">
<polygon fill="#999999" stroke="#666666" points="1340.12,-432 1190.62,-432 1190.62,-398.5 1340.12,-398.5 1340.12,-432"/>
<text text-anchor="start" x="1198.62" y="-418.5" font-family="Helvetica,sans-Serif" font-size="10.00">/home/runner/work/FastLED</text>
<text text-anchor="middle" x="1265.38" y="-405.75" font-family="Helvetica,sans-Serif" font-size="10.00">/FastLED/src/fl/dbg.h</text>
</a>
</g>
</g>
<!-- Node2 -->
<g id="Node000002" class="node">
<title>Node2</title>
<g id="a_Node000002"><a xlink:href="../../d6/dc9/_led_rope_t_c_l_8cpp.html" target="_top" xlink:title=" ">
<polygon fill="white" stroke="#666666" points="202.75,-362.5 0,-362.5 0,-316.25 202.75,-316.25 202.75,-362.5"/>
<text text-anchor="start" x="8" y="-349" font-family="Helvetica,sans-Serif" font-size="10.00">/home/runner/work/FastLED</text>
<text text-anchor="start" x="8" y="-336.25" font-family="Helvetica,sans-Serif" font-size="10.00">/FastLED/examples/LuminescentGrand</text>
<text text-anchor="middle" x="101.38" y="-323.5" font-family="Helvetica,sans-Serif" font-size="10.00">/arduino/LedRopeTCL.cpp</text>
</a>
</g>
</g>
<!-- Node1&#45;&gt;Node2 -->
<g id="edge1_Node000001_Node000002" class="edge">
<title>Node1&#45;&gt;Node2</title>
<g id="a_edge1_Node000001_Node000002"><a xlink:title=" ">
<path fill="none" stroke="#63b8ff" d="M1179.11,-414.31C998.85,-413.49 569.38,-406.61 212.38,-362.5 209.35,-362.13 206.29,-361.72 203.2,-361.28"/>
<polygon fill="#63b8ff" stroke="#63b8ff" points="1178.83,-417.81 1188.85,-414.35 1178.86,-410.81 1178.83,-417.81"/>
</a>
</g>
</g>
<!-- Node3 -->
<g id="Node000003" class="node">
<title>Node3</title>
<g id="a_Node000003"><a xlink:href="../../de/d05/buttons_8h.html" target="_top" xlink:title=" ">
<polygon fill="white" stroke="#666666" points="423.75,-362.5 221,-362.5 221,-316.25 423.75,-316.25 423.75,-362.5"/>
<text text-anchor="start" x="229" y="-349" font-family="Helvetica,sans-Serif" font-size="10.00">/home/runner/work/FastLED</text>
<text text-anchor="start" x="229" y="-336.25" font-family="Helvetica,sans-Serif" font-size="10.00">/FastLED/examples/LuminescentGrand</text>
<text text-anchor="middle" x="322.38" y="-323.5" font-family="Helvetica,sans-Serif" font-size="10.00">/arduino/buttons.h</text>
</a>
</g>
</g>
<!-- Node1&#45;&gt;Node3 -->
<g id="edge2_Node000001_Node000003" class="edge">
<title>Node1&#45;&gt;Node3</title>
<g id="a_edge2_Node000001_Node000003"><a xlink:title=" ">
<path fill="none" stroke="#63b8ff" d="M1178.84,-412.47C1027.8,-408.56 706.49,-396.66 437.38,-362.5 433.04,-361.95 428.62,-361.34 424.16,-360.67"/>
<polygon fill="#63b8ff" stroke="#63b8ff" points="1178.69,-415.97 1188.78,-412.73 1178.87,-408.97 1178.69,-415.97"/>
</a>
</g>
</g>
<!-- Node5 -->
<g id="Node000005" class="node">
<title>Node5</title>
<g id="a_Node000005"><a xlink:href="../../de/d77/warn_8h.html" target="_top" xlink:title=" ">
<polygon fill="white" stroke="#666666" points="1237.12,-356.12 1087.62,-356.12 1087.62,-322.62 1237.12,-322.62 1237.12,-356.12"/>
<text text-anchor="start" x="1095.62" y="-342.62" font-family="Helvetica,sans-Serif" font-size="10.00">/home/runner/work/FastLED</text>
<text text-anchor="middle" x="1162.38" y="-329.88" font-family="Helvetica,sans-Serif" font-size="10.00">/FastLED/src/fl/warn.h</text>
</a>
</g>
</g>
<!-- Node1&#45;&gt;Node5 -->
<g id="edge4_Node000001_Node000005" class="edge">
<title>Node1&#45;&gt;Node5</title>
<g id="a_edge4_Node000001_Node000005"><a xlink:title=" ">
<path fill="none" stroke="#63b8ff" d="M1233.42,-391.33C1217.7,-380.06 1199.14,-366.74 1184.93,-356.55"/>
<polygon fill="#63b8ff" stroke="#63b8ff" points="1231.38,-394.17 1241.54,-397.16 1235.46,-388.48 1231.38,-394.17"/>
</a>
</g>
</g>
<!-- Node141 -->
<g id="Node000141" class="node">
<title>Node141</title>
<g id="a_Node000141"><a xlink:href="../../de/daf/time_8cpp.html" target="_top" xlink:title=" ">
<polygon fill="white" stroke="#666666" points="1802.12,-273.88 1652.62,-273.88 1652.62,-240.38 1802.12,-240.38 1802.12,-273.88"/>
<text text-anchor="start" x="1660.62" y="-260.38" font-family="Helvetica,sans-Serif" font-size="10.00">/home/runner/work/FastLED</text>
<text text-anchor="middle" x="1727.38" y="-247.62" font-family="Helvetica,sans-Serif" font-size="10.00">/FastLED/src/fx/time.cpp</text>
</a>
</g>
</g>
<!-- Node1&#45;&gt;Node141 -->
<g id="edge31_Node000001_Node000141" class="edge">
<title>Node1&#45;&gt;Node141</title>
<g id="a_edge31_Node000001_Node000141"><a xlink:title=" ">
<path fill="none" stroke="#63b8ff" d="M1264.12,-386.72C1264.72,-364.27 1269.54,-333.53 1289.38,-316.25 1348.16,-265.03 1561.57,-293.69 1638.38,-280.25 1647.79,-278.6 1657.67,-276.51 1667.3,-274.28"/>
<polygon fill="#63b8ff" stroke="#63b8ff" points="1260.62,-386.7 1264.15,-396.69 1267.62,-386.68 1260.62,-386.7"/>
</a>
</g>
</g>
<!-- Node134 -->
<g id="Node000134" class="node">
<title>Node134</title>
<g id="a_Node000134"><a xlink:href="../../d0/d05/video_8cpp.html" target="_top" xlink:title=" ">
<polygon fill="white" stroke="#666666" points="1970.12,-273.88 1820.62,-273.88 1820.62,-240.38 1970.12,-240.38 1970.12,-273.88"/>
<text text-anchor="start" x="1828.62" y="-260.38" font-family="Helvetica,sans-Serif" font-size="10.00">/home/runner/work/FastLED</text>
<text text-anchor="middle" x="1895.38" y="-247.62" font-family="Helvetica,sans-Serif" font-size="10.00">/FastLED/src/fx/video.cpp</text>
</a>
</g>
</g>
<!-- Node1&#45;&gt;Node134 -->
<g id="edge32_Node000001_Node000134" class="edge">
<title>Node1&#45;&gt;Node134</title>
<g id="a_edge32_Node000001_Node000134"><a xlink:title=" ">
<path fill="none" stroke="#63b8ff" d="M1277.35,-387.67C1289.65,-361.64 1308.87,-324.7 1322.38,-316.25 1414.77,-258.49 1703.9,-298.2 1811.38,-280.25 1820.6,-278.71 1830.28,-276.62 1839.66,-274.33"/>
<polygon fill="#63b8ff" stroke="#63b8ff" points="1274.21,-386.13 1273.17,-396.67 1280.56,-389.07 1274.21,-386.13"/>
</a>
</g>
</g>
<!-- Node142 -->
<g id="Node000142" class="node">
<title>Node142</title>
<g id="a_Node000142"><a xlink:href="../../d3/dc3/animartrix_8hpp.html" target="_top" xlink:title=" ">
<polygon fill="white" stroke="#666666" points="543,-115.75 365.75,-115.75 365.75,-82.25 543,-82.25 543,-115.75"/>
<text text-anchor="start" x="373.75" y="-102.25" font-family="Helvetica,sans-Serif" font-size="10.00">/home/runner/work/FastLED</text>
<text text-anchor="middle" x="454.38" y="-89.5" font-family="Helvetica,sans-Serif" font-size="10.00">/FastLED/src/fx/2d/animartrix.hpp</text>
</a>
</g>
</g>
<!-- Node1&#45;&gt;Node142 -->
<g id="edge26_Node000001_Node000142" class="edge">
<title>Node1&#45;&gt;Node142</title>
<g id="a_edge26_Node000001_Node000142"><a xlink:title=" ">
<path fill="none" stroke="#63b8ff" d="M1178.98,-412.5C993.22,-406.78 564.95,-382.56 470.38,-280.25 427.94,-234.34 441.81,-150.89 450.09,-116"/>
<polygon fill="#63b8ff" stroke="#63b8ff" points="1178.71,-415.99 1188.81,-412.79 1178.92,-408.99 1178.71,-415.99"/>
</a>
</g>
</g>
<!-- Node143 -->
<g id="Node000143" class="node">
<title>Node143</title>
<g id="a_Node000143"><a xlink:href="../../da/d14/frame_8cpp.html" target="_top" xlink:title=" ">
<polygon fill="white" stroke="#666666" points="1481.12,-356.12 1331.62,-356.12 1331.62,-322.62 1481.12,-322.62 1481.12,-356.12"/>
<text text-anchor="start" x="1339.62" y="-342.62" font-family="Helvetica,sans-Serif" font-size="10.00">/home/runner/work/FastLED</text>
<text text-anchor="middle" x="1406.38" y="-329.88" font-family="Helvetica,sans-Serif" font-size="10.00">/FastLED/src/fx/frame.cpp</text>
</a>
</g>
</g>
<!-- Node1&#45;&gt;Node143 -->
<g id="edge30_Node000001_Node000143" class="edge">
<title>Node1&#45;&gt;Node143</title>
<g id="a_edge30_Node000001_Node000143"><a xlink:title=" ">
<path fill="none" stroke="#63b8ff" d="M1306.4,-392.75C1328.47,-381.19 1355.22,-367.17 1375.5,-356.55"/>
<polygon fill="#63b8ff" stroke="#63b8ff" points="1304.89,-389.59 1297.66,-397.34 1308.14,-395.79 1304.89,-389.59"/>
</a>
</g>
</g>
<!-- Node135 -->
<g id="Node000135" class="node">
<title>Node135</title>
<g id="a_Node000135"><a xlink:href="../../d5/da4/frame__interpolator_8cpp.html" target="_top" xlink:title=" ">
<polygon fill="white" stroke="#666666" points="1649.12,-362.5 1499.62,-362.5 1499.62,-316.25 1649.12,-316.25 1649.12,-362.5"/>
<text text-anchor="start" x="1507.62" y="-349" font-family="Helvetica,sans-Serif" font-size="10.00">/home/runner/work/FastLED</text>
<text text-anchor="start" x="1507.62" y="-336.25" font-family="Helvetica,sans-Serif" font-size="10.00">/FastLED/src/fx/video/frame</text>
<text text-anchor="middle" x="1574.38" y="-323.5" font-family="Helvetica,sans-Serif" font-size="10.00">_interpolator.cpp</text>
</a>
</g>
</g>
<!-- Node1&#45;&gt;Node135 -->
<g id="edge33_Node000001_Node000135" class="edge">
<title>Node1&#45;&gt;Node135</title>
<g id="a_edge33_Node000001_Node000135"><a xlink:title=" ">
<path fill="none" stroke="#63b8ff" d="M1349.57,-395.54C1391.9,-385.97 1443.93,-373.95 1490.38,-362.5 1493.3,-361.78 1496.29,-361.03 1499.3,-360.27"/>
<polygon fill="#63b8ff" stroke="#63b8ff" points="1348.93,-392.1 1339.95,-397.72 1350.47,-398.93 1348.93,-392.1"/>
</a>
</g>
</g>
<!-- Node144 -->
<g id="Node000144" class="node">
<title>Node144</title>
<g id="a_Node000144"><a xlink:href="../../da/d7a/pixel__stream_8cpp.html" target="_top" xlink:title=" ">
<polygon fill="white" stroke="#666666" points="1817.12,-362.5 1667.62,-362.5 1667.62,-316.25 1817.12,-316.25 1817.12,-362.5"/>
<text text-anchor="start" x="1675.62" y="-349" font-family="Helvetica,sans-Serif" font-size="10.00">/home/runner/work/FastLED</text>
<text text-anchor="start" x="1675.62" y="-336.25" font-family="Helvetica,sans-Serif" font-size="10.00">/FastLED/src/fx/video/pixel</text>
<text text-anchor="middle" x="1742.38" y="-323.5" font-family="Helvetica,sans-Serif" font-size="10.00">_stream.cpp</text>
</a>
</g>
</g>
<!-- Node1&#45;&gt;Node144 -->
<g id="edge34_Node000001_Node000144" class="edge">
<title>Node1&#45;&gt;Node144</title>
<g id="a_edge34_Node000001_Node000144"><a xlink:title=" ">
<path fill="none" stroke="#63b8ff" d="M1351.44,-406.09C1431.4,-397.75 1553.58,-383.12 1658.38,-362.5 1661.33,-361.92 1664.34,-361.29 1667.38,-360.63"/>
<polygon fill="#63b8ff" stroke="#63b8ff" points="1351.54,-402.56 1341.95,-407.07 1352.25,-409.52 1351.54,-402.56"/>
</a>
</g>
</g>
<!-- Node4 -->
<g id="Node000004" class="node">
<title>Node4</title>
<g id="a_Node000004"><a xlink:href="../../d9/da7/ui__state_8h.html" target="_top" xlink:title=" ">
<polygon fill="white" stroke="#666666" points="423.75,-280.25 221,-280.25 221,-234 423.75,-234 423.75,-280.25"/>
<text text-anchor="start" x="229" y="-266.75" font-family="Helvetica,sans-Serif" font-size="10.00">/home/runner/work/FastLED</text>
<text text-anchor="start" x="229" y="-254" font-family="Helvetica,sans-Serif" font-size="10.00">/FastLED/examples/LuminescentGrand</text>
<text text-anchor="middle" x="322.38" y="-241.25" font-family="Helvetica,sans-Serif" font-size="10.00">/arduino/ui_state.h</text>
</a>
</g>
</g>
<!-- Node3&#45;&gt;Node4 -->
<g id="edge3_Node000003_Node000004" class="edge">
<title>Node3&#45;&gt;Node4</title>
<g id="a_edge3_Node000003_Node000004"><a xlink:title=" ">
<path fill="none" stroke="#63b8ff" d="M322.38,-304.59C322.38,-296.5 322.38,-288.07 322.38,-280.64"/>
<polygon fill="#63b8ff" stroke="#63b8ff" points="318.88,-304.51 322.38,-314.51 325.88,-304.51 318.88,-304.51"/>
</a>
</g>
</g>
<!-- Node6 -->
<g id="Node000006" class="node">
<title>Node6</title>
<g id="a_Node000006"><a xlink:href="../../d3/dac/_fx_noise_ring_8ino.html" target="_top" xlink:title=" ">
<polygon fill="white" stroke="#666666" points="1428.75,-280.25 1256,-280.25 1256,-234 1428.75,-234 1428.75,-280.25"/>
<text text-anchor="start" x="1264" y="-266.75" font-family="Helvetica,sans-Serif" font-size="10.00">/home/runner/work/FastLED</text>
<text text-anchor="start" x="1264" y="-254" font-family="Helvetica,sans-Serif" font-size="10.00">/FastLED/examples/FxNoiseRing</text>
<text text-anchor="middle" x="1342.38" y="-241.25" font-family="Helvetica,sans-Serif" font-size="10.00">/FxNoiseRing.ino</text>
</a>
</g>
</g>
<!-- Node5&#45;&gt;Node6 -->
<g id="edge5_Node000005_Node000006" class="edge">
<title>Node5&#45;&gt;Node6</title>
<g id="a_edge5_Node000005_Node000006"><a xlink:title=" ">
<path fill="none" stroke="#63b8ff" d="M1209.25,-317.48C1234.55,-306.2 1265.81,-292.26 1291.68,-280.73"/>
<polygon fill="#63b8ff" stroke="#63b8ff" points="1207.89,-314.25 1200.18,-321.52 1210.74,-320.64 1207.89,-314.25"/>
</a>
</g>
</g>
<!-- Node7 -->
<g id="Node000007" class="node">
<title>Node7</title>
<g id="a_Node000007"><a xlink:href="../../dc/da7/assert_8h.html" target="_top" xlink:title=" ">
<polygon fill="white" stroke="#666666" points="1596.12,-273.88 1446.62,-273.88 1446.62,-240.38 1596.12,-240.38 1596.12,-273.88"/>
<text text-anchor="start" x="1454.62" y="-260.38" font-family="Helvetica,sans-Serif" font-size="10.00">/home/runner/work/FastLED</text>
<text text-anchor="middle" x="1521.38" y="-247.62" font-family="Helvetica,sans-Serif" font-size="10.00">/FastLED/src/fl/assert.h</text>
</a>
</g>
</g>
<!-- Node5&#45;&gt;Node7 -->
<g id="edge6_Node000005_Node000007" class="edge">
<title>Node5&#45;&gt;Node7</title>
<g id="a_edge6_Node000005_Node000007"><a xlink:title=" ">
<path fill="none" stroke="#63b8ff" d="M1236.78,-319.57C1241.71,-318.42 1246.61,-317.3 1251.38,-316.25 1333.59,-298.09 1355.28,-298.98 1437.38,-280.25 1445.31,-278.44 1453.64,-276.41 1461.84,-274.33"/>
<polygon fill="#63b8ff" stroke="#63b8ff" points="1236.36,-316.07 1227.44,-321.79 1237.98,-322.88 1236.36,-316.07"/>
</a>
</g>
</g>
<!-- Node13 -->
<g id="Node000013" class="node">
<title>Node13</title>
<g id="a_Node000013"><a xlink:href="../../d9/d6f/screenmap_8cpp.html" target="_top" xlink:title=" ">
<polygon fill="white" stroke="#666666" points="1545.75,-115.75 1385,-115.75 1385,-82.25 1545.75,-82.25 1545.75,-115.75"/>
<text text-anchor="start" x="1393" y="-102.25" font-family="Helvetica,sans-Serif" font-size="10.00">/home/runner/work/FastLED</text>
<text text-anchor="middle" x="1465.38" y="-89.5" font-family="Helvetica,sans-Serif" font-size="10.00">/FastLED/src/fl/screenmap.cpp</text>
</a>
</g>
</g>
<!-- Node5&#45;&gt;Node13 -->
<g id="edge17_Node000005_Node000013" class="edge">
<title>Node5&#45;&gt;Node13</title>
<g id="a_edge17_Node000005_Node000013"><a xlink:title=" ">
<path fill="none" stroke="#63b8ff" d="M1241.7,-319.97C1248.67,-318.61 1255.64,-317.35 1262.38,-316.25 1338.02,-303.95 1554.09,-337.2 1605.38,-280.25 1643.59,-237.81 1638.02,-198.61 1605.38,-151.75 1591.45,-131.76 1568.88,-119.48 1545.89,-111.93"/>
<polygon fill="#63b8ff" stroke="#63b8ff" points="1241.36,-316.47 1232.25,-321.87 1242.74,-323.33 1241.36,-316.47"/>
</a>
</g>
</g>
<!-- Node137 -->
<g id="Node000137" class="node">
<title>Node137</title>
<g id="a_Node000137"><a xlink:href="../../d0/d7f/video__impl_8cpp.html" target="_top" xlink:title=" ">
<polygon fill="white" stroke="#666666" points="1174.12,-198 1024.62,-198 1024.62,-151.75 1174.12,-151.75 1174.12,-198"/>
<text text-anchor="start" x="1032.62" y="-184.5" font-family="Helvetica,sans-Serif" font-size="10.00">/home/runner/work/FastLED</text>
<text text-anchor="start" x="1032.62" y="-171.75" font-family="Helvetica,sans-Serif" font-size="10.00">/FastLED/src/fx/video/video</text>
<text text-anchor="middle" x="1099.38" y="-159" font-family="Helvetica,sans-Serif" font-size="10.00">_impl.cpp</text>
</a>
</g>
</g>
<!-- Node5&#45;&gt;Node137 -->
<g id="edge24_Node000005_Node000137" class="edge">
<title>Node5&#45;&gt;Node137</title>
<g id="a_edge24_Node000005_Node000137"><a xlink:title=" ">
<path fill="none" stroke="#63b8ff" d="M1114.52,-316.51C1100.26,-307.44 1086.33,-295.44 1078.38,-280.25 1064.73,-254.22 1076.14,-220.26 1086.74,-198.26"/>
<polygon fill="#63b8ff" stroke="#63b8ff" points="1112.67,-319.48 1123.07,-321.54 1116.23,-313.45 1112.67,-319.48"/>
</a>
</g>
</g>
<!-- Node138 -->
<g id="Node000138" class="node">
<title>Node138</title>
<g id="a_Node000138"><a xlink:href="../../de/d95/bytestreammemory_8cpp.html" target="_top" xlink:title=" ">
<polygon fill="white" stroke="#666666" points="849.75,-273.88 647,-273.88 647,-240.38 849.75,-240.38 849.75,-273.88"/>
<text text-anchor="start" x="655" y="-260.38" font-family="Helvetica,sans-Serif" font-size="10.00">/home/runner/work/FastLED</text>
<text text-anchor="middle" x="748.38" y="-247.62" font-family="Helvetica,sans-Serif" font-size="10.00">/FastLED/src/fl/bytestreammemory.cpp</text>
</a>
</g>
</g>
<!-- Node5&#45;&gt;Node138 -->
<g id="edge15_Node000005_Node000138" class="edge">
<title>Node5&#45;&gt;Node138</title>
<g id="a_edge15_Node000005_Node000138"><a xlink:title=" ">
<path fill="none" stroke="#63b8ff" d="M1076.26,-322.03C1015.6,-310.47 932.49,-294.55 859.38,-280.25 849.64,-278.35 839.42,-276.33 829.29,-274.32"/>
<polygon fill="#63b8ff" stroke="#63b8ff" points="1075.36,-325.42 1085.84,-323.85 1076.67,-318.54 1075.36,-325.42"/>
</a>
</g>
</g>
<!-- Node128 -->
<g id="Node000128" class="node">
<title>Node128</title>
<g id="a_Node000128"><a xlink:href="../../d4/d37/file__system_8cpp.html" target="_top" xlink:title=" ">
<polygon fill="white" stroke="#666666" points="1030.88,-273.88 867.88,-273.88 867.88,-240.38 1030.88,-240.38 1030.88,-273.88"/>
<text text-anchor="start" x="875.88" y="-260.38" font-family="Helvetica,sans-Serif" font-size="10.00">/home/runner/work/FastLED</text>
<text text-anchor="middle" x="949.38" y="-247.62" font-family="Helvetica,sans-Serif" font-size="10.00">/FastLED/src/fl/file_system.cpp</text>
</a>
</g>
</g>
<!-- Node5&#45;&gt;Node128 -->
<g id="edge16_Node000005_Node000128" class="edge">
<title>Node5&#45;&gt;Node128</title>
<g id="a_edge16_Node000005_Node000128"><a xlink:title=" ">
<path fill="none" stroke="#63b8ff" d="M1108.95,-318.25C1072.93,-304.68 1026.03,-287.01 992.41,-274.34"/>
<polygon fill="#63b8ff" stroke="#63b8ff" points="1107.26,-321.35 1117.85,-321.6 1109.73,-314.8 1107.26,-321.35"/>
</a>
</g>
</g>
<!-- Node139 -->
<g id="Node000139" class="node">
<title>Node139</title>
<g id="a_Node000139"><a xlink:href="../../d7/d2f/fx__layer_8h.html" target="_top" xlink:title=" ">
<polygon fill="white" stroke="#666666" points="629.12,-280.25 479.62,-280.25 479.62,-234 629.12,-234 629.12,-280.25"/>
<text text-anchor="start" x="487.62" y="-266.75" font-family="Helvetica,sans-Serif" font-size="10.00">/home/runner/work/FastLED</text>
<text text-anchor="start" x="487.62" y="-254" font-family="Helvetica,sans-Serif" font-size="10.00">/FastLED/src/fx/detail</text>
<text text-anchor="middle" x="554.38" y="-241.25" font-family="Helvetica,sans-Serif" font-size="10.00">/fx_layer.h</text>
</a>
</g>
</g>
<!-- Node5&#45;&gt;Node139 -->
<g id="edge18_Node000005_Node000139" class="edge">
<title>Node5&#45;&gt;Node139</title>
<g id="a_edge18_Node000005_Node000139"><a xlink:title=" ">
<path fill="none" stroke="#63b8ff" d="M1075.83,-332.69C971.46,-324.94 791.03,-308.66 638.38,-280.25 635.41,-279.7 632.4,-279.1 629.36,-278.46"/>
<polygon fill="#63b8ff" stroke="#63b8ff" points="1075.5,-336.18 1085.73,-333.42 1076.01,-329.2 1075.5,-336.18"/>
</a>
</g>
</g>
<!-- Node5&#45;&gt;Node141 -->
<g id="edge22_Node000005_Node000141" class="edge">
<title>Node5&#45;&gt;Node141</title>
<g id="a_edge22_Node000005_Node000141"><a xlink:title=" ">
<path fill="none" stroke="#63b8ff" d="M1233.34,-319.72C1239.42,-318.43 1245.49,-317.25 1251.38,-316.25 1421.68,-287.33 1468.07,-309.17 1638.38,-280.25 1647.79,-278.65 1657.69,-276.59 1667.31,-274.36"/>
<polygon fill="#63b8ff" stroke="#63b8ff" points="1232.92,-316.23 1223.92,-321.81 1234.44,-323.06 1232.92,-316.23"/>
</a>
</g>
</g>
<!-- Node5&#45;&gt;Node134 -->
<g id="edge23_Node000005_Node000134" class="edge">
<title>Node5&#45;&gt;Node134</title>
<g id="a_edge23_Node000005_Node000134"><a xlink:title=" ">
<path fill="none" stroke="#63b8ff" d="M1248.7,-322.1C1262.28,-319.9 1276.18,-317.85 1289.38,-316.25 1520.24,-288.26 1581.91,-318.03 1811.38,-280.25 1820.6,-278.73 1830.28,-276.65 1839.66,-274.37"/>
<polygon fill="#63b8ff" stroke="#63b8ff" points="1248.18,-318.64 1238.89,-323.73 1249.33,-325.54 1248.18,-318.64"/>
</a>
</g>
</g>
<!-- Node91 -->
<g id="Node000091" class="node">
<title>Node91</title>
<g id="a_Node000091"><a xlink:href="../../d2/da7/pir_8cpp.html" target="_top" xlink:title=" ">
<polygon fill="white" stroke="#666666" points="1237.5,-273.88 1087.25,-273.88 1087.25,-240.38 1237.5,-240.38 1237.5,-273.88"/>
<text text-anchor="start" x="1095.25" y="-260.38" font-family="Helvetica,sans-Serif" font-size="10.00">/home/runner/work/FastLED</text>
<text text-anchor="middle" x="1162.38" y="-247.62" font-family="Helvetica,sans-Serif" font-size="10.00">/FastLED/src/sensors/pir.cpp</text>
</a>
</g>
</g>
<!-- Node5&#45;&gt;Node91 -->
<g id="edge25_Node000005_Node000091" class="edge">
<title>Node5&#45;&gt;Node91</title>
<g id="a_edge25_Node000005_Node000091"><a xlink:title=" ">
<path fill="none" stroke="#63b8ff" d="M1162.38,-310.75C1162.38,-298.61 1162.38,-284.78 1162.38,-274.34"/>
<polygon fill="#63b8ff" stroke="#63b8ff" points="1158.88,-310.62 1162.38,-320.62 1165.88,-310.62 1158.88,-310.62"/>
</a>
</g>
</g>
<!-- Node8 -->
<g id="Node000008" class="node">
<title>Node8</title>
<g id="a_Node000008"><a xlink:href="../../db/de9/_esp32_s3_i2_s_demo_8ino.html" target="_top" xlink:title=" ">
<polygon fill="white" stroke="#666666" points="1596.75,-198 1400,-198 1400,-151.75 1596.75,-151.75 1596.75,-198"/>
<text text-anchor="start" x="1408" y="-184.5" font-family="Helvetica,sans-Serif" font-size="10.00">/home/runner/work/FastLED</text>
<text text-anchor="start" x="1408" y="-171.75" font-family="Helvetica,sans-Serif" font-size="10.00">/FastLED/examples/Esp32S3I2SDemo</text>
<text text-anchor="middle" x="1498.38" y="-159" font-family="Helvetica,sans-Serif" font-size="10.00">/Esp32S3I2SDemo.ino</text>
</a>
</g>
</g>
<!-- Node7&#45;&gt;Node8 -->
<g id="edge7_Node000007_Node000008" class="edge">
<title>Node7&#45;&gt;Node8</title>
<g id="a_edge7_Node000007_Node000008"><a xlink:title=" ">
<path fill="none" stroke="#63b8ff" d="M1513.59,-228.96C1510.75,-219.05 1507.57,-207.95 1504.85,-198.48"/>
<polygon fill="#63b8ff" stroke="#63b8ff" points="1510.18,-229.78 1516.3,-238.43 1516.91,-227.85 1510.18,-229.78"/>
</a>
</g>
</g>
<!-- Node9 -->
<g id="Node000009" class="node">
<title>Node9</title>
<g id="a_Node000009"><a xlink:href="../../dc/db7/map_8h.html" target="_top" xlink:title=" ">
<polygon fill="#fff0f0" stroke="red" points="1382.12,-191.62 1232.62,-191.62 1232.62,-158.12 1382.12,-158.12 1382.12,-191.62"/>
<text text-anchor="start" x="1240.62" y="-178.12" font-family="Helvetica,sans-Serif" font-size="10.00">/home/runner/work/FastLED</text>
<text text-anchor="middle" x="1307.38" y="-165.38" font-family="Helvetica,sans-Serif" font-size="10.00">/FastLED/src/fl/map.h</text>
</a>
</g>
</g>
<!-- Node7&#45;&gt;Node9 -->
<g id="edge8_Node000007_Node000009" class="edge">
<title>Node7&#45;&gt;Node9</title>
<g id="a_edge8_Node000007_Node000009"><a xlink:title=" ">
<path fill="none" stroke="#63b8ff" d="M1467.7,-236C1431.51,-222.43 1384.39,-204.76 1350.62,-192.09"/>
<polygon fill="#63b8ff" stroke="#63b8ff" points="1466.06,-239.12 1476.65,-239.35 1468.52,-232.57 1466.06,-239.12"/>
</a>
</g>
</g>
<!-- Node7&#45;&gt;Node137 -->
<g id="edge14_Node000007_Node000137" class="edge">
<title>Node7&#45;&gt;Node137</title>
<g id="a_edge14_Node000007_Node000137"><a xlink:title=" ">
<path fill="none" stroke="#63b8ff" d="M1451.99,-237.32C1447.06,-236.15 1442.15,-235.03 1437.38,-234 1343.09,-213.7 1318.41,-214.47 1223.38,-198 1207.54,-195.26 1190.57,-192.26 1174.43,-189.39"/>
<polygon fill="#63b8ff" stroke="#63b8ff" points="1450.78,-240.63 1461.32,-239.61 1452.44,-233.83 1450.78,-240.63"/>
</a>
</g>
</g>
<!-- Node9&#45;&gt;Node13 -->
<g id="edge9_Node000009_Node000013" class="edge">
<title>Node9&#45;&gt;Node13</title>
<g id="a_edge9_Node000009_Node000013"><a xlink:title=" ">
<path fill="none" stroke="#63b8ff" d="M1352.35,-152.85C1377.26,-141.2 1407.75,-126.94 1430.78,-116.17"/>
<polygon fill="#63b8ff" stroke="#63b8ff" points="1351,-149.62 1343.42,-157.02 1353.96,-155.96 1351,-149.62"/>
</a>
</g>
</g>
<!-- Node131 -->
<g id="Node000131" class="node">
<title>Node131</title>
<g id="a_Node000131"><a xlink:href="../../d9/d3c/fx__engine_8h.html" target="_top" xlink:title=" ">
<polygon fill="#fff0f0" stroke="red" points="715.12,-115.75 565.62,-115.75 565.62,-82.25 715.12,-82.25 715.12,-115.75"/>
<text text-anchor="start" x="573.62" y="-102.25" font-family="Helvetica,sans-Serif" font-size="10.00">/home/runner/work/FastLED</text>
<text text-anchor="middle" x="640.38" y="-89.5" font-family="Helvetica,sans-Serif" font-size="10.00">/FastLED/src/fx/fx_engine.h</text>
</a>
</g>
</g>
<!-- Node9&#45;&gt;Node131 -->
<g id="edge10_Node000009_Node000131" class="edge">
<title>Node9&#45;&gt;Node131</title>
<g id="a_edge10_Node000009_Node000131"><a xlink:title=" ">
<path fill="none" stroke="#63b8ff" d="M1221.37,-157.59C1208.65,-155.46 1195.69,-153.43 1183.38,-151.75 1016.83,-128.99 820.19,-112.92 715.26,-105.19"/>
<polygon fill="#63b8ff" stroke="#63b8ff" points="1220.51,-161 1230.96,-159.24 1221.69,-154.1 1220.51,-161"/>
</a>
</g>
</g>
<!-- Node42 -->
<g id="Node000042" class="node">
<title>Node42</title>
<g id="a_Node000042"><a xlink:href="../../dd/d96/_fx_animartrix_8ino.html" target="_top" xlink:title=" ">
<polygon fill="white" stroke="#666666" points="540.88,-46.25 365.88,-46.25 365.88,0 540.88,0 540.88,-46.25"/>
<text text-anchor="start" x="373.88" y="-32.75" font-family="Helvetica,sans-Serif" font-size="10.00">/home/runner/work/FastLED</text>
<text text-anchor="start" x="373.88" y="-20" font-family="Helvetica,sans-Serif" font-size="10.00">/FastLED/examples/FxAnimartrix</text>
<text text-anchor="middle" x="453.38" y="-7.25" font-family="Helvetica,sans-Serif" font-size="10.00">/FxAnimartrix.ino</text>
</a>
</g>
</g>
<!-- Node131&#45;&gt;Node42 -->
<g id="edge11_Node000131_Node000042" class="edge">
<title>Node131&#45;&gt;Node42</title>
<g id="a_edge11_Node000131_Node000042"><a xlink:title=" ">
<path fill="none" stroke="#63b8ff" d="M588.9,-77.67C564.63,-68.08 535.59,-56.61 510.63,-46.74"/>
<polygon fill="#63b8ff" stroke="#63b8ff" points="587.34,-80.81 597.93,-81.23 589.91,-74.3 587.34,-80.81"/>
</a>
</g>
</g>
<!-- Node45 -->
<g id="Node000045" class="node">
<title>Node45</title>
<g id="a_Node000045"><a xlink:href="../../d6/d35/_fx_engine_8ino.html" target="_top" xlink:title="Demonstrates how to use the FxEngine to switch between different effects on a 2D LED matrix.">
<polygon fill="white" stroke="#666666" points="715.5,-46.25 559.25,-46.25 559.25,0 715.5,0 715.5,-46.25"/>
<text text-anchor="start" x="567.25" y="-32.75" font-family="Helvetica,sans-Serif" font-size="10.00">/home/runner/work/FastLED</text>
<text text-anchor="start" x="567.25" y="-20" font-family="Helvetica,sans-Serif" font-size="10.00">/FastLED/examples/FxEngine</text>
<text text-anchor="middle" x="637.38" y="-7.25" font-family="Helvetica,sans-Serif" font-size="10.00">/FxEngine.ino</text>
</a>
</g>
</g>
<!-- Node131&#45;&gt;Node45 -->
<g id="edge12_Node000131_Node000045" class="edge">
<title>Node131&#45;&gt;Node45</title>
<g id="a_edge12_Node000131_Node000045"><a xlink:title=" ">
<path fill="none" stroke="#63b8ff" d="M639.26,-70.64C638.94,-62.71 638.59,-54.16 638.29,-46.57"/>
<polygon fill="#63b8ff" stroke="#63b8ff" points="635.76,-70.61 639.66,-80.46 642.75,-70.32 635.76,-70.61"/>
</a>
</g>
</g>
<!-- Node76 -->
<g id="Node000076" class="node">
<title>Node76</title>
<g id="a_Node000076"><a xlink:href="../../d7/dd3/wasm_8ino.html" target="_top" xlink:title="Demonstrates an advanced ino file with multiple effects and UI elements.">
<polygon fill="white" stroke="#666666" points="883.12,-46.25 733.62,-46.25 733.62,0 883.12,0 883.12,-46.25"/>
<text text-anchor="start" x="741.62" y="-32.75" font-family="Helvetica,sans-Serif" font-size="10.00">/home/runner/work/FastLED</text>
<text text-anchor="start" x="741.62" y="-20" font-family="Helvetica,sans-Serif" font-size="10.00">/FastLED/examples/wasm</text>
<text text-anchor="middle" x="808.38" y="-7.25" font-family="Helvetica,sans-Serif" font-size="10.00">/wasm.ino</text>
</a>
</g>
</g>
<!-- Node131&#45;&gt;Node76 -->
<g id="edge13_Node000131_Node000076" class="edge">
<title>Node131&#45;&gt;Node76</title>
<g id="a_edge13_Node000131_Node000076"><a xlink:title=" ">
<path fill="none" stroke="#63b8ff" d="M687.5,-77.28C709.12,-67.77 734.81,-56.47 756.94,-46.74"/>
<polygon fill="#63b8ff" stroke="#63b8ff" points="686.37,-73.95 678.63,-81.18 689.19,-80.36 686.37,-73.95"/>
</a>
</g>
</g>
<!-- Node139&#45;&gt;Node131 -->
<g id="edge21_Node000139_Node000131" class="edge">
<title>Node139&#45;&gt;Node131</title>
<g id="a_edge21_Node000139_Node000131"><a xlink:title=" ">
<path fill="none" stroke="#63b8ff" d="M549.72,-222.4C548.41,-200.78 549.96,-172.91 562.38,-151.75 571.51,-136.19 587.38,-124.4 602.44,-116.03"/>
<polygon fill="#63b8ff" stroke="#63b8ff" points="546.22,-222.51 550.57,-232.17 553.19,-221.91 546.22,-222.51"/>
</a>
</g>
</g>
<!-- Node140 -->
<g id="Node000140" class="node">
<title>Node140</title>
<g id="a_Node000140"><a xlink:href="../../d5/d6b/fx__compositor_8h.html" target="_top" xlink:title=" ">
<polygon fill="white" stroke="#666666" points="721.12,-198 571.62,-198 571.62,-151.75 721.12,-151.75 721.12,-198"/>
<text text-anchor="start" x="579.62" y="-184.5" font-family="Helvetica,sans-Serif" font-size="10.00">/home/runner/work/FastLED</text>
<text text-anchor="start" x="579.62" y="-171.75" font-family="Helvetica,sans-Serif" font-size="10.00">/FastLED/src/fx/detail</text>
<text text-anchor="middle" x="646.38" y="-159" font-family="Helvetica,sans-Serif" font-size="10.00">/fx_compositor.h</text>
</a>
</g>
</g>
<!-- Node139&#45;&gt;Node140 -->
<g id="edge19_Node000139_Node000140" class="edge">
<title>Node139&#45;&gt;Node140</title>
<g id="a_edge19_Node000139_Node000140"><a xlink:title=" ">
<path fill="none" stroke="#63b8ff" d="M588.62,-226.25C599.2,-217.03 610.66,-207.03 620.57,-198.39"/>
<polygon fill="#63b8ff" stroke="#63b8ff" points="586.38,-223.56 581.14,-232.78 590.98,-228.84 586.38,-223.56"/>
</a>
</g>
</g>
<!-- Node140&#45;&gt;Node131 -->
<g id="edge20_Node000140_Node000131" class="edge">
<title>Node140&#45;&gt;Node131</title>
<g id="a_edge20_Node000140_Node000131"><a xlink:title=" ">
<path fill="none" stroke="#63b8ff" d="M643.62,-139.89C642.94,-131.6 642.25,-123.11 641.68,-116.1"/>
<polygon fill="#63b8ff" stroke="#63b8ff" points="640.12,-140.12 644.42,-149.8 647.1,-139.55 640.12,-140.12"/>
</a>
</g>
</g>
<!-- Node142&#45;&gt;Node42 -->
<g id="edge27_Node000142_Node000042" class="edge">
<title>Node142&#45;&gt;Node42</title>
<g id="a_edge27_Node000142_Node000042"><a xlink:title=" ">
<path fill="none" stroke="#63b8ff" d="M454,-70.64C453.9,-62.71 453.78,-54.16 453.68,-46.57"/>
<polygon fill="#63b8ff" stroke="#63b8ff" points="450.5,-70.51 454.14,-80.46 457.5,-70.41 450.5,-70.51"/>
</a>
</g>
</g>
<!-- Node142&#45;&gt;Node45 -->
<g id="edge28_Node000142_Node000045" class="edge">
<title>Node142&#45;&gt;Node45</title>
<g id="a_edge28_Node000142_Node000045"><a xlink:title=" ">
<path fill="none" stroke="#63b8ff" d="M505.06,-77.54C528.75,-67.98 557.02,-56.56 581.34,-46.74"/>
<polygon fill="#63b8ff" stroke="#63b8ff" points="503.9,-74.23 495.94,-81.22 506.52,-80.72 503.9,-74.23"/>
</a>
</g>
</g>
<!-- Node142&#45;&gt;Node76 -->
<g id="edge29_Node000142_Node000076" class="edge">
<title>Node142&#45;&gt;Node76</title>
<g id="a_edge29_Node000142_Node000076"><a xlink:title=" ">
<path fill="none" stroke="#63b8ff" d="M554.5,-80.49C605.52,-71.14 668.44,-58.96 724.38,-46.25 727.32,-45.58 730.31,-44.88 733.33,-44.16"/>
<polygon fill="#63b8ff" stroke="#63b8ff" points="554.16,-76.99 544.95,-82.23 555.42,-83.88 554.16,-76.99"/>
</a>
</g>
</g>
</g>
</svg>
