<?xml version="1.0" encoding="UTF-8" standalone="no"?>
<!DOCTYPE svg PUBLIC "-//W3C//DTD SVG 1.1//EN"
 "http://www.w3.org/Graphics/SVG/1.1/DTD/svg11.dtd">
<!-- Generated by graphviz version 12.2.1 (20241206.2353)
 -->
<!-- Title: ColorFromPalette Pages: 1 -->
<svg width="576pt" height="257pt"
 viewBox="0.00 0.00 576.25 256.75" xmlns="http://www.w3.org/2000/svg" xmlns:xlink="http://www.w3.org/1999/xlink">
<g id="graph0" class="graph" transform="scale(1 1) rotate(0) translate(4 252.75)">
<title>ColorFromPalette</title>
<!-- Node1 -->
<g id="Node000001" class="node">
<title>Node1</title>
<g id="a_Node000001"><a xlink:title="Get a color from a palette.">
<polygon fill="#999999" stroke="#666666" points="100,-115.75 0,-115.75 0,-95 100,-95 100,-115.75"/>
<text text-anchor="middle" x="50" y="-102.25" font-family="Helvetica,sans-Serif" font-size="10.00">ColorFromPalette</text>
</a>
</g>
</g>
<!-- Node2 -->
<g id="Node000002" class="node">
<title>Node2</title>
<g id="a_Node000002"><a xlink:href="../../dc/db8/group___color_blends.html#ga4f06b4423f71f77346aaf5dabe7dd05c" target="_top" xlink:title="Computes a new color blended some fraction of the way between two other colors.">
<polygon fill="white" stroke="#666666" points="197.38,-182.75 154.38,-182.75 154.38,-162 197.38,-162 197.38,-182.75"/>
<text text-anchor="middle" x="175.88" y="-169.25" font-family="Helvetica,sans-Serif" font-size="10.00">blend</text>
</a>
</g>
</g>
<!-- Node1&#45;&gt;Node2 -->
<g id="edge1_Node000001_Node000002" class="edge">
<title>Node1&#45;&gt;Node2</title>
<g id="a_edge1_Node000001_Node000002"><a xlink:title=" ">
<path fill="none" stroke="#63b8ff" d="M70.9,-116.14C90.95,-126.98 122.12,-143.84 145.11,-156.27"/>
<polygon fill="#63b8ff" stroke="#63b8ff" points="143.23,-159.24 153.69,-160.92 146.56,-153.08 143.23,-159.24"/>
</a>
</g>
</g>
<!-- Node5 -->
<g id="Node000005" class="node">
<title>Node5</title>
<g id="a_Node000005"><a xlink:href="../../d0/da5/group___scaling_dirty.html#ga3fade00fb4cf5b937b973128198a7a79" target="_top" xlink:title="Clean up the r1 register after a series of *LEAVING_R1_DIRTY calls.">
<polygon fill="white" stroke="#666666" points="531.12,-172.75 458.88,-172.75 458.88,-152 531.12,-152 531.12,-172.75"/>
<text text-anchor="middle" x="495" y="-159.25" font-family="Helvetica,sans-Serif" font-size="10.00">cleanup_R1</text>
</a>
</g>
</g>
<!-- Node1&#45;&gt;Node5 -->
<g id="edge8_Node000001_Node000005" class="edge">
<title>Node1&#45;&gt;Node5</title>
<g id="a_edge8_Node000001_Node000005"><a xlink:title=" ">
<path fill="none" stroke="#63b8ff" d="M100.1,-111.69C186.16,-122.77 363.1,-145.53 447.38,-156.38"/>
<polygon fill="#63b8ff" stroke="#63b8ff" points="446.77,-159.83 457.13,-157.63 447.66,-152.88 446.77,-159.83"/>
</a>
</g>
</g>
<!-- Node6 -->
<g id="Node000006" class="node">
<title>Node6</title>
<g id="a_Node000006"><a xlink:href="../../d0/da5/group___scaling_dirty.html#ga7386235cada3aca429b189681d2ec56d" target="_top" xlink:title="This version of scale8() does not clean up the R1 register on AVR.">
<polygon fill="white" stroke="#666666" points="568.25,-248.75 421.75,-248.75 421.75,-228 568.25,-228 568.25,-248.75"/>
<text text-anchor="middle" x="495" y="-235.25" font-family="Helvetica,sans-Serif" font-size="10.00">scale8_LEAVING_R1_DIRTY</text>
</a>
</g>
</g>
<!-- Node1&#45;&gt;Node6 -->
<g id="edge12_Node000001_Node000006" class="edge">
<title>Node1&#45;&gt;Node6</title>
<g id="a_edge12_Node000001_Node000006"><a xlink:title=" ">
<path fill="none" stroke="#63b8ff" d="M58.31,-115.98C71.55,-134.35 101.38,-171.98 136,-191.38 220.66,-238.8 333.84,-246.06 410.09,-244.38"/>
<polygon fill="#63b8ff" stroke="#63b8ff" points="410.12,-247.88 420.02,-244.1 409.92,-240.88 410.12,-247.88"/>
</a>
</g>
</g>
<!-- Node7 -->
<g id="Node000007" class="node">
<title>Node7</title>
<g id="a_Node000007"><a xlink:href="../../d6/d19/group___linear_interpolation.html#gaf65357c7aeca9778e5a2f80a6bac2b5d" target="_top" xlink:title="Map from one full&#45;range 8&#45;bit value into a narrower range of 8&#45;bit values, possibly a range of hues.">
<polygon fill="white" stroke="#666666" points="197.75,-96.75 154,-96.75 154,-76 197.75,-76 197.75,-96.75"/>
<text text-anchor="middle" x="175.88" y="-83.25" font-family="Helvetica,sans-Serif" font-size="10.00">map8</text>
</a>
</g>
</g>
<!-- Node1&#45;&gt;Node7 -->
<g id="edge9_Node000001_Node000007" class="edge">
<title>Node1&#45;&gt;Node7</title>
<g id="a_edge9_Node000001_Node000007"><a xlink:title=" ">
<path fill="none" stroke="#63b8ff" d="M100.31,-97.81C114.47,-95.64 129.54,-93.33 142.4,-91.36"/>
<polygon fill="#63b8ff" stroke="#63b8ff" points="142.65,-94.86 152.01,-89.88 141.59,-87.94 142.65,-94.86"/>
</a>
</g>
</g>
<!-- Node8 -->
<g id="Node000008" class="node">
<title>Node8</title>
<g id="a_Node000008"><a xlink:href="../../d0/da8/group___scaling.html#gad7535ccda9c92470c4e6ee0265585555" target="_top" xlink:title="Scale one byte by a second one, which is treated as the numerator of a fraction whose denominator is ...">
<polygon fill="white" stroke="#666666" points="300,-77.75 252.5,-77.75 252.5,-57 300,-57 300,-77.75"/>
<text text-anchor="middle" x="276.25" y="-64.25" font-family="Helvetica,sans-Serif" font-size="10.00">scale8</text>
</a>
</g>
</g>
<!-- Node1&#45;&gt;Node8 -->
<g id="edge11_Node000001_Node000008" class="edge">
<title>Node1&#45;&gt;Node8</title>
<g id="a_edge11_Node000001_Node000008"><a xlink:title=" ">
<path fill="none" stroke="#63b8ff" d="M69.13,-94.56C85.84,-85.27 111.65,-72.57 136,-67.38 171.17,-59.87 212.48,-61.09 240.93,-63.42"/>
<polygon fill="#63b8ff" stroke="#63b8ff" points="240.49,-66.9 250.76,-64.33 241.13,-59.93 240.49,-66.9"/>
</a>
</g>
</g>
<!-- Node9 -->
<g id="Node000009" class="node">
<title>Node9</title>
<g id="a_Node000009"><a xlink:href="../../d0/da8/group___scaling.html#ga628b417ea1507e3447cdf5f308d9b6d5" target="_top" xlink:title="The &quot;video&quot; version of scale8() guarantees that the output will be only be zero if one or both of the...">
<polygon fill="white" stroke="#666666" points="215.75,-20.75 136,-20.75 136,0 215.75,0 215.75,-20.75"/>
<text text-anchor="middle" x="175.88" y="-7.25" font-family="Helvetica,sans-Serif" font-size="10.00">scale8_video</text>
</a>
</g>
</g>
<!-- Node1&#45;&gt;Node9 -->
<g id="edge13_Node000001_Node000009" class="edge">
<title>Node1&#45;&gt;Node9</title>
<g id="a_edge13_Node000001_Node000009"><a xlink:title=" ">
<path fill="none" stroke="#63b8ff" d="M62.67,-94.7C78.67,-80.3 108.55,-54.16 136,-34.38 139.42,-31.91 143.09,-29.44 146.77,-27.06"/>
<polygon fill="#63b8ff" stroke="#63b8ff" points="148.42,-30.15 155.05,-21.89 144.71,-24.22 148.42,-30.15"/>
</a>
</g>
</g>
<!-- Node3 -->
<g id="Node000003" class="node">
<title>Node3</title>
<g id="a_Node000003"><a xlink:href="../../dc/db8/group___color_blends.html#ga325120664a9c9b41abceee65303b0c4e" target="_top" xlink:title="Destructively modifies one color, blending in a given fraction of an overlay color.">
<polygon fill="white" stroke="#666666" points="300.75,-201.75 251.75,-201.75 251.75,-181 300.75,-181 300.75,-201.75"/>
<text text-anchor="middle" x="276.25" y="-188.25" font-family="Helvetica,sans-Serif" font-size="10.00">nblend</text>
</a>
</g>
</g>
<!-- Node2&#45;&gt;Node3 -->
<g id="edge2_Node000002_Node000003" class="edge">
<title>Node2&#45;&gt;Node3</title>
<g id="a_edge2_Node000002_Node000003"><a xlink:title=" ">
<path fill="none" stroke="#63b8ff" d="M197.74,-176.4C210.11,-178.79 226.11,-181.88 240.36,-184.64"/>
<polygon fill="#63b8ff" stroke="#63b8ff" points="239.33,-188 249.82,-186.46 240.66,-181.13 239.33,-188"/>
</a>
</g>
</g>
<!-- Node4 -->
<g id="Node000004" class="node">
<title>Node4</title>
<g id="a_Node000004"><a xlink:href="../../d5/d98/group___math.html#ga9a604de042246d6c87fdbfdd5578f377" target="_top" xlink:title="Blend a variable proportion (0&#45;255) of one byte to another.">
<polygon fill="white" stroke="#666666" points="385.75,-210.75 336.75,-210.75 336.75,-190 385.75,-190 385.75,-210.75"/>
<text text-anchor="middle" x="361.25" y="-197.25" font-family="Helvetica,sans-Serif" font-size="10.00">blend8</text>
</a>
</g>
</g>
<!-- Node3&#45;&gt;Node4 -->
<g id="edge3_Node000003_Node000004" class="edge">
<title>Node3&#45;&gt;Node4</title>
<g id="a_edge3_Node000003_Node000004"><a xlink:title=" ">
<path fill="none" stroke="#63b8ff" d="M300.81,-193.93C308.37,-194.75 316.91,-195.68 325.11,-196.56"/>
<polygon fill="#63b8ff" stroke="#63b8ff" points="324.52,-200.02 334.84,-197.62 325.27,-193.06 324.52,-200.02"/>
</a>
</g>
</g>
<!-- Node3&#45;&gt;Node5 -->
<g id="edge6_Node000003_Node000005" class="edge">
<title>Node3&#45;&gt;Node5</title>
<g id="a_edge6_Node000003_Node000005"><a xlink:title=" ">
<path fill="none" stroke="#63b8ff" d="M301.24,-187.08C312.07,-185.21 325.04,-183.07 336.75,-181.38 373.8,-176.03 415.9,-170.99 447.21,-167.45"/>
<polygon fill="#63b8ff" stroke="#63b8ff" points="447.6,-170.93 457.15,-166.34 446.82,-163.98 447.6,-170.93"/>
</a>
</g>
</g>
<!-- Node3&#45;&gt;Node6 -->
<g id="edge7_Node000003_Node000006" class="edge">
<title>Node3&#45;&gt;Node6</title>
<g id="a_edge7_Node000003_Node000006"><a xlink:title=" ">
<path fill="none" stroke="#63b8ff" d="M296.2,-202.21C307.6,-208.23 322.6,-215.3 336.75,-219.38 360.13,-226.1 386.14,-230.45 410.16,-233.25"/>
<polygon fill="#63b8ff" stroke="#63b8ff" points="409.58,-236.71 419.9,-234.31 410.34,-229.75 409.58,-236.71"/>
</a>
</g>
</g>
<!-- Node4&#45;&gt;Node5 -->
<g id="edge4_Node000004_Node000005" class="edge">
<title>Node4&#45;&gt;Node5</title>
<g id="a_edge4_Node000004_Node000005"><a xlink:title=" ">
<path fill="none" stroke="#63b8ff" d="M386.11,-193.49C403.21,-188.56 426.78,-181.76 447.54,-175.78"/>
<polygon fill="#63b8ff" stroke="#63b8ff" points="448.31,-179.2 456.95,-173.06 446.37,-172.47 448.31,-179.2"/>
</a>
</g>
</g>
<!-- Node4&#45;&gt;Node6 -->
<g id="edge5_Node000004_Node000006" class="edge">
<title>Node4&#45;&gt;Node6</title>
<g id="a_edge5_Node000004_Node000006"><a xlink:title=" ">
<path fill="none" stroke="#63b8ff" d="M386.11,-207.26C402.63,-212.02 425.19,-218.53 445.42,-224.36"/>
<polygon fill="#63b8ff" stroke="#63b8ff" points="444.33,-227.69 454.91,-227.1 446.27,-220.97 444.33,-227.69"/>
</a>
</g>
</g>
<!-- Node7&#45;&gt;Node8 -->
<g id="edge10_Node000007_Node000008" class="edge">
<title>Node7&#45;&gt;Node8</title>
<g id="a_edge10_Node000007_Node000008"><a xlink:title=" ">
<path fill="none" stroke="#63b8ff" d="M198.22,-82.25C210.8,-79.82 226.99,-76.7 241.28,-73.94"/>
<polygon fill="#63b8ff" stroke="#63b8ff" points="241.59,-77.44 250.74,-72.11 240.26,-70.57 241.59,-77.44"/>
</a>
</g>
</g>
</g>
</svg>
