<?xml version="1.0" encoding="UTF-8" standalone="no"?>
<!DOCTYPE svg PUBLIC "-//W3C//DTD SVG 1.1//EN"
 "http://www.w3.org/Graphics/SVG/1.1/DTD/svg11.dtd">
<!-- Generated by graphviz version 12.2.1 (20241206.2353)
 -->
<!-- Title: ColorFromPalette Pages: 1 -->
<svg width="540pt" height="181pt"
 viewBox="0.00 0.00 540.25 180.75" xmlns="http://www.w3.org/2000/svg" xmlns:xlink="http://www.w3.org/1999/xlink">
<g id="graph0" class="graph" transform="scale(1 1) rotate(0) translate(4 176.75)">
<title>ColorFromPalette</title>
<!-- Node1 -->
<g id="Node000001" class="node">
<title>Node1</title>
<g id="a_Node000001"><a xlink:title="Get a color from a palette.">
<polygon fill="#999999" stroke="#666666" points="100,-96.75 0,-96.75 0,-76 100,-76 100,-96.75"/>
<text text-anchor="middle" x="50" y="-83.25" font-family="Helvetica,sans-Serif" font-size="10.00">ColorFromPalette</text>
</a>
</g>
</g>
<!-- Node2 -->
<g id="Node000002" class="node">
<title>Node2</title>
<g id="a_Node000002"><a xlink:href="../../dc/db8/group___color_blends.html#ga4f06b4423f71f77346aaf5dabe7dd05c" target="_top" xlink:title="Computes a new color blended some fraction of the way between two other colors.">
<polygon fill="white" stroke="#666666" points="179.38,-106.75 136.38,-106.75 136.38,-86 179.38,-86 179.38,-106.75"/>
<text text-anchor="middle" x="157.88" y="-93.25" font-family="Helvetica,sans-Serif" font-size="10.00">blend</text>
</a>
</g>
</g>
<!-- Node1&#45;&gt;Node2 -->
<g id="edge1_Node000001_Node000002" class="edge">
<title>Node1&#45;&gt;Node2</title>
<g id="a_edge1_Node000001_Node000002"><a xlink:title=" ">
<path fill="none" stroke="#63b8ff" d="M100.22,-91.02C108.51,-91.81 116.93,-92.6 124.64,-93.33"/>
<polygon fill="#63b8ff" stroke="#63b8ff" points="124.29,-96.81 134.57,-94.27 124.95,-89.84 124.29,-96.81"/>
</a>
</g>
</g>
<!-- Node5 -->
<g id="Node000005" class="node">
<title>Node5</title>
<g id="a_Node000005"><a xlink:href="../../d0/da5/group___scaling_dirty.html#ga3fade00fb4cf5b937b973128198a7a79" target="_top" xlink:title="Clean up the r1 register after a series of *LEAVING_R1_DIRTY calls.">
<polygon fill="white" stroke="#666666" points="495.12,-96.75 422.88,-96.75 422.88,-76 495.12,-76 495.12,-96.75"/>
<text text-anchor="middle" x="459" y="-83.25" font-family="Helvetica,sans-Serif" font-size="10.00">cleanup_R1</text>
</a>
</g>
</g>
<!-- Node1&#45;&gt;Node5 -->
<g id="edge8_Node000001_Node000005" class="edge">
<title>Node1&#45;&gt;Node5</title>
<g id="a_edge8_Node000001_Node000005"><a xlink:title=" ">
<path fill="none" stroke="#63b8ff" d="M100.37,-80.26C112.04,-79.06 124.44,-77.99 136,-77.38 233.85,-72.21 348.59,-78.33 411.27,-82.71"/>
<polygon fill="#63b8ff" stroke="#63b8ff" points="410.98,-86.2 421.21,-83.42 411.48,-79.21 410.98,-86.2"/>
</a>
</g>
</g>
<!-- Node6 -->
<g id="Node000006" class="node">
<title>Node6</title>
<g id="a_Node000006"><a xlink:href="../../d0/da5/group___scaling_dirty.html#ga7386235cada3aca429b189681d2ec56d" target="_top" xlink:title="This version of scale8() does not clean up the R1 register on AVR.">
<polygon fill="white" stroke="#666666" points="532.25,-172.75 385.75,-172.75 385.75,-152 532.25,-152 532.25,-172.75"/>
<text text-anchor="middle" x="459" y="-159.25" font-family="Helvetica,sans-Serif" font-size="10.00">scale8_LEAVING_R1_DIRTY</text>
</a>
</g>
</g>
<!-- Node1&#45;&gt;Node6 -->
<g id="edge11_Node000001_Node000006" class="edge">
<title>Node1&#45;&gt;Node6</title>
<g id="a_edge11_Node000001_Node000006"><a xlink:title=" ">
<path fill="none" stroke="#63b8ff" d="M81.56,-97.22C97.69,-102.84 117.85,-109.69 136,-115.38 208.67,-138.12 225.34,-151.83 300.75,-162.38 324.33,-165.67 350.1,-166.72 373.83,-166.68"/>
<polygon fill="#63b8ff" stroke="#63b8ff" points="373.81,-170.18 383.78,-166.58 373.75,-163.18 373.81,-170.18"/>
</a>
</g>
</g>
<!-- Node7 -->
<g id="Node000007" class="node">
<title>Node7</title>
<g id="a_Node000007"><a xlink:href="../../d6/d19/group___linear_interpolation.html#gaf65357c7aeca9778e5a2f80a6bac2b5d" target="_top" xlink:title="Map from one full&#45;range 8&#45;bit value into a narrower range of 8&#45;bit values, possibly a range of hues.">
<polygon fill="white" stroke="#666666" points="179.75,-20.75 136,-20.75 136,0 179.75,0 179.75,-20.75"/>
<text text-anchor="middle" x="157.88" y="-7.25" font-family="Helvetica,sans-Serif" font-size="10.00">map8</text>
</a>
</g>
</g>
<!-- Node1&#45;&gt;Node7 -->
<g id="edge9_Node000001_Node000007" class="edge">
<title>Node1&#45;&gt;Node7</title>
<g id="a_edge9_Node000001_Node000007"><a xlink:title=" ">
<path fill="none" stroke="#63b8ff" d="M65.72,-75.81C83.09,-63.34 112.2,-42.45 132.84,-27.63"/>
<polygon fill="#63b8ff" stroke="#63b8ff" points="134.62,-30.66 140.71,-21.98 130.54,-24.97 134.62,-30.66"/>
</a>
</g>
</g>
<!-- Node3 -->
<g id="Node000003" class="node">
<title>Node3</title>
<g id="a_Node000003"><a xlink:href="../../dc/db8/group___color_blends.html#ga325120664a9c9b41abceee65303b0c4e" target="_top" xlink:title="Destructively modifies one color, blending in a given fraction of an overlay color.">
<polygon fill="white" stroke="#666666" points="264.75,-125.75 215.75,-125.75 215.75,-105 264.75,-105 264.75,-125.75"/>
<text text-anchor="middle" x="240.25" y="-112.25" font-family="Helvetica,sans-Serif" font-size="10.00">nblend</text>
</a>
</g>
</g>
<!-- Node2&#45;&gt;Node3 -->
<g id="edge2_Node000002_Node000003" class="edge">
<title>Node2&#45;&gt;Node3</title>
<g id="a_edge2_Node000002_Node000003"><a xlink:title=" ">
<path fill="none" stroke="#63b8ff" d="M179.57,-101.27C187.12,-103.05 195.88,-105.12 204.32,-107.12"/>
<polygon fill="#63b8ff" stroke="#63b8ff" points="203.48,-110.52 214.02,-109.41 205.09,-103.7 203.48,-110.52"/>
</a>
</g>
</g>
<!-- Node4 -->
<g id="Node000004" class="node">
<title>Node4</title>
<g id="a_Node000004"><a xlink:href="../../d5/d98/group___math.html#ga9a604de042246d6c87fdbfdd5578f377" target="_top" xlink:title="Blend a variable proportion (0&#45;255) of one byte to another.">
<polygon fill="white" stroke="#666666" points="349.75,-134.75 300.75,-134.75 300.75,-114 349.75,-114 349.75,-134.75"/>
<text text-anchor="middle" x="325.25" y="-121.25" font-family="Helvetica,sans-Serif" font-size="10.00">blend8</text>
</a>
</g>
</g>
<!-- Node3&#45;&gt;Node4 -->
<g id="edge3_Node000003_Node000004" class="edge">
<title>Node3&#45;&gt;Node4</title>
<g id="a_edge3_Node000003_Node000004"><a xlink:title=" ">
<path fill="none" stroke="#63b8ff" d="M264.81,-117.93C272.37,-118.75 280.91,-119.68 289.11,-120.56"/>
<polygon fill="#63b8ff" stroke="#63b8ff" points="288.52,-124.02 298.84,-121.62 289.27,-117.06 288.52,-124.02"/>
</a>
</g>
</g>
<!-- Node3&#45;&gt;Node5 -->
<g id="edge6_Node000003_Node000005" class="edge">
<title>Node3&#45;&gt;Node5</title>
<g id="a_edge6_Node000003_Node000005"><a xlink:title=" ">
<path fill="none" stroke="#63b8ff" d="M265.24,-111.08C276.07,-109.21 289.04,-107.07 300.75,-105.38 337.8,-100.03 379.9,-94.99 411.21,-91.45"/>
<polygon fill="#63b8ff" stroke="#63b8ff" points="411.6,-94.93 421.15,-90.34 410.82,-87.98 411.6,-94.93"/>
</a>
</g>
</g>
<!-- Node3&#45;&gt;Node6 -->
<g id="edge7_Node000003_Node000006" class="edge">
<title>Node3&#45;&gt;Node6</title>
<g id="a_edge7_Node000003_Node000006"><a xlink:title=" ">
<path fill="none" stroke="#63b8ff" d="M260.2,-126.21C271.6,-132.23 286.6,-139.3 300.75,-143.38 324.13,-150.1 350.14,-154.45 374.16,-157.25"/>
<polygon fill="#63b8ff" stroke="#63b8ff" points="373.58,-160.71 383.9,-158.31 374.34,-153.75 373.58,-160.71"/>
</a>
</g>
</g>
<!-- Node4&#45;&gt;Node5 -->
<g id="edge4_Node000004_Node000005" class="edge">
<title>Node4&#45;&gt;Node5</title>
<g id="a_edge4_Node000004_Node000005"><a xlink:title=" ">
<path fill="none" stroke="#63b8ff" d="M350.11,-117.49C367.21,-112.56 390.78,-105.76 411.54,-99.78"/>
<polygon fill="#63b8ff" stroke="#63b8ff" points="412.31,-103.2 420.95,-97.06 410.37,-96.47 412.31,-103.2"/>
</a>
</g>
</g>
<!-- Node4&#45;&gt;Node6 -->
<g id="edge5_Node000004_Node000006" class="edge">
<title>Node4&#45;&gt;Node6</title>
<g id="a_edge5_Node000004_Node000006"><a xlink:title=" ">
<path fill="none" stroke="#63b8ff" d="M350.11,-131.26C366.63,-136.02 389.19,-142.53 409.42,-148.36"/>
<polygon fill="#63b8ff" stroke="#63b8ff" points="408.33,-151.69 418.91,-151.1 410.27,-144.97 408.33,-151.69"/>
</a>
</g>
</g>
<!-- Node8 -->
<g id="Node000008" class="node">
<title>Node8</title>
<g id="a_Node000008"><a xlink:href="../../d0/da8/group___scaling.html#gad7535ccda9c92470c4e6ee0265585555" target="_top" xlink:title="Scale one byte by a second one, which is treated as the numerator of a fraction whose denominator is ...">
<polygon fill="white" stroke="#666666" points="264,-20.75 216.5,-20.75 216.5,0 264,0 264,-20.75"/>
<text text-anchor="middle" x="240.25" y="-7.25" font-family="Helvetica,sans-Serif" font-size="10.00">scale8</text>
</a>
</g>
</g>
<!-- Node7&#45;&gt;Node8 -->
<g id="edge10_Node000007_Node000008" class="edge">
<title>Node7&#45;&gt;Node8</title>
<g id="a_edge10_Node000007_Node000008"><a xlink:title=" ">
<path fill="none" stroke="#63b8ff" d="M179.99,-10.38C187.52,-10.38 196.2,-10.38 204.56,-10.38"/>
<polygon fill="#63b8ff" stroke="#63b8ff" points="204.5,-13.88 214.5,-10.38 204.5,-6.88 204.5,-13.88"/>
</a>
</g>
</g>
</g>
</svg>
