<?xml version="1.0" encoding="UTF-8" standalone="no"?>
<!DOCTYPE svg PUBLIC "-//W3C//DTD SVG 1.1//EN"
 "http://www.w3.org/Graphics/SVG/1.1/DTD/svg11.dtd">
<!-- Generated by graphviz version 12.2.1 (20241206.2353)
 -->
<!-- Title: ColorFromPaletteExtended Pages: 1 -->
<svg width="724pt" height="147pt"
 viewBox="0.00 0.00 724.00 147.38" xmlns="http://www.w3.org/2000/svg" xmlns:xlink="http://www.w3.org/1999/xlink">
<g id="graph0" class="graph" transform="scale(1 1) rotate(0) translate(4 143.38)">
<title>ColorFromPaletteExtended</title>
<!-- Node1 -->
<g id="Node000001" class="node">
<title>Node1</title>
<g id="a_Node000001"><a xlink:title="Same as ColorFromPalette, but higher precision.">
<polygon fill="#999999" stroke="#666666" points="145.75,-71.44 0,-71.44 0,-50.69 145.75,-50.69 145.75,-71.44"/>
<text text-anchor="middle" x="72.88" y="-57.94" font-family="Helvetica,sans-Serif" font-size="10.00">ColorFromPaletteExtended</text>
</a>
</g>
</g>
<!-- Node2 -->
<g id="Node000002" class="node">
<title>Node2</title>
<g id="a_Node000002"><a xlink:href="../../dc/db8/group___color_blends.html#ga4f06b4423f71f77346aaf5dabe7dd05c" target="_top" xlink:title="Computes a new color blended some fraction of the way between two other colors.">
<polygon fill="white" stroke="#666666" points="252.12,-49.44 209.12,-49.44 209.12,-28.69 252.12,-28.69 252.12,-49.44"/>
<text text-anchor="middle" x="230.62" y="-35.94" font-family="Helvetica,sans-Serif" font-size="10.00">blend</text>
</a>
</g>
</g>
<!-- Node1&#45;&gt;Node2 -->
<g id="edge1_Node000001_Node000002" class="edge">
<title>Node1&#45;&gt;Node2</title>
<g id="a_edge1_Node000001_Node000002"><a xlink:title=" ">
<path fill="none" stroke="#63b8ff" d="M145.82,-50.9C163.94,-48.34 182.48,-45.72 197.5,-43.6"/>
<polygon fill="#63b8ff" stroke="#63b8ff" points="197.81,-47.09 207.22,-42.23 196.83,-40.16 197.81,-47.09"/>
</a>
</g>
</g>
<!-- Node5 -->
<g id="Node000005" class="node">
<title>Node5</title>
<g id="a_Node000005"><a xlink:href="../../d0/da5/group___scaling_dirty.html#ga3fade00fb4cf5b937b973128198a7a79" target="_top" xlink:title="Clean up the r1 register after a series of *LEAVING_R1_DIRTY calls.">
<polygon fill="white" stroke="#666666" points="678.88,-117.44 606.62,-117.44 606.62,-96.69 678.88,-96.69 678.88,-117.44"/>
<text text-anchor="middle" x="642.75" y="-103.94" font-family="Helvetica,sans-Serif" font-size="10.00">cleanup_R1</text>
</a>
</g>
</g>
<!-- Node1&#45;&gt;Node5 -->
<g id="edge8_Node000001_Node000005" class="edge">
<title>Node1&#45;&gt;Node5</title>
<g id="a_edge8_Node000001_Node000005"><a xlink:title=" ">
<path fill="none" stroke="#63b8ff" d="M100.1,-71.84C121.72,-80.41 153.34,-92.22 181.75,-100.06 332.99,-141.83 377.46,-146.46 533.5,-130.06 554.01,-127.91 576.35,-123.52 595.38,-119.14"/>
<polygon fill="#63b8ff" stroke="#63b8ff" points="596.06,-122.58 604.99,-116.87 594.45,-115.77 596.06,-122.58"/>
</a>
</g>
</g>
<!-- Node6 -->
<g id="Node000006" class="node">
<title>Node6</title>
<g id="a_Node000006"><a xlink:href="../../d0/da5/group___scaling_dirty.html#ga7386235cada3aca429b189681d2ec56d" target="_top" xlink:title="This version of scale8() does not clean up the R1 register on AVR.">
<polygon fill="white" stroke="#666666" points="716,-22.44 569.5,-22.44 569.5,-1.69 716,-1.69 716,-22.44"/>
<text text-anchor="middle" x="642.75" y="-8.94" font-family="Helvetica,sans-Serif" font-size="10.00">scale8_LEAVING_R1_DIRTY</text>
</a>
</g>
</g>
<!-- Node1&#45;&gt;Node6 -->
<g id="edge12_Node000001_Node000006" class="edge">
<title>Node1&#45;&gt;Node6</title>
<g id="a_edge12_Node000001_Node000006"><a xlink:title=" ">
<path fill="none" stroke="#63b8ff" d="M95.54,-50.3C116.87,-40.32 150.68,-26.13 181.75,-20.06 311.19,5.21 465.01,1.21 557.92,-4.82"/>
<polygon fill="#63b8ff" stroke="#63b8ff" points="557.5,-8.3 567.71,-5.48 557.97,-1.31 557.5,-8.3"/>
</a>
</g>
</g>
<!-- Node7 -->
<g id="Node000007" class="node">
<title>Node7</title>
<g id="a_Node000007"><a xlink:href="../../d0/da8/group___scaling.html#ga700b7f510f32e8c91385093c436c27d9" target="_top" xlink:title="Scale three one&#45;byte values by a fourth one, which is treated as the numerator of a fraction whose de...">
<polygon fill="white" stroke="#666666" points="279.5,-91.44 181.75,-91.44 181.75,-70.69 279.5,-70.69 279.5,-91.44"/>
<text text-anchor="middle" x="230.62" y="-77.94" font-family="Helvetica,sans-Serif" font-size="10.00">nscale8x3_video</text>
</a>
</g>
</g>
<!-- Node1&#45;&gt;Node7 -->
<g id="edge9_Node000001_Node000007" class="edge">
<title>Node1&#45;&gt;Node7</title>
<g id="a_edge9_Node000001_Node000007"><a xlink:title=" ">
<path fill="none" stroke="#63b8ff" d="M145.82,-70.3C153.96,-71.35 162.19,-72.4 170.15,-73.42"/>
<polygon fill="#63b8ff" stroke="#63b8ff" points="169.7,-76.9 180.06,-74.7 170.59,-69.95 169.7,-76.9"/>
</a>
</g>
</g>
<!-- Node3 -->
<g id="Node000003" class="node">
<title>Node3</title>
<g id="a_Node000003"><a xlink:href="../../dc/db8/group___color_blends.html#ga325120664a9c9b41abceee65303b0c4e" target="_top" xlink:title="Destructively modifies one color, blending in a given fraction of an overlay color.">
<polygon fill="white" stroke="#666666" points="406.5,-46.44 357.5,-46.44 357.5,-25.69 406.5,-25.69 406.5,-46.44"/>
<text text-anchor="middle" x="382" y="-32.94" font-family="Helvetica,sans-Serif" font-size="10.00">nblend</text>
</a>
</g>
</g>
<!-- Node2&#45;&gt;Node3 -->
<g id="edge2_Node000002_Node000003" class="edge">
<title>Node2&#45;&gt;Node3</title>
<g id="a_edge2_Node000002_Node000003"><a xlink:title=" ">
<path fill="none" stroke="#63b8ff" d="M252.39,-38.65C276.56,-38.16 316.86,-37.35 345.91,-36.77"/>
<polygon fill="#63b8ff" stroke="#63b8ff" points="345.76,-40.27 355.69,-36.57 345.62,-33.27 345.76,-40.27"/>
</a>
</g>
</g>
<!-- Node4 -->
<g id="Node000004" class="node">
<title>Node4</title>
<g id="a_Node000004"><a xlink:href="../../d5/d98/group___math.html#ga9a604de042246d6c87fdbfdd5578f377" target="_top" xlink:title="Blend a variable proportion (0&#45;255) of one byte to another.">
<polygon fill="white" stroke="#666666" points="533.5,-60.44 484.5,-60.44 484.5,-39.69 533.5,-39.69 533.5,-60.44"/>
<text text-anchor="middle" x="509" y="-46.94" font-family="Helvetica,sans-Serif" font-size="10.00">blend8</text>
</a>
</g>
</g>
<!-- Node3&#45;&gt;Node4 -->
<g id="edge3_Node000003_Node000004" class="edge">
<title>Node3&#45;&gt;Node4</title>
<g id="a_edge3_Node000003_Node000004"><a xlink:title=" ">
<path fill="none" stroke="#63b8ff" d="M406.81,-38.73C425.49,-40.82 451.77,-43.76 472.87,-46.13"/>
<polygon fill="#63b8ff" stroke="#63b8ff" points="472.45,-49.6 482.78,-47.24 473.23,-42.65 472.45,-49.6"/>
</a>
</g>
</g>
<!-- Node3&#45;&gt;Node5 -->
<g id="edge6_Node000003_Node000005" class="edge">
<title>Node3&#45;&gt;Node5</title>
<g id="a_edge6_Node000003_Node000005"><a xlink:title=" ">
<path fill="none" stroke="#63b8ff" d="M406.81,-42.42C419.3,-45.9 434.82,-50.43 448.5,-55.06 464.76,-60.57 468.12,-63.92 484.5,-69.06 521.26,-80.59 563.76,-90.68 595.31,-97.55"/>
<polygon fill="#63b8ff" stroke="#63b8ff" points="594.41,-100.94 604.93,-99.62 595.89,-94.1 594.41,-100.94"/>
</a>
</g>
</g>
<!-- Node3&#45;&gt;Node6 -->
<g id="edge7_Node000003_Node000006" class="edge">
<title>Node3&#45;&gt;Node6</title>
<g id="a_edge7_Node000003_Node000006"><a xlink:title=" ">
<path fill="none" stroke="#63b8ff" d="M406.88,-33.85C440.91,-30.69 505.09,-24.74 557.76,-19.85"/>
<polygon fill="#63b8ff" stroke="#63b8ff" points="558.02,-23.34 567.65,-18.94 557.37,-16.37 558.02,-23.34"/>
</a>
</g>
</g>
<!-- Node4&#45;&gt;Node5 -->
<g id="edge4_Node000004_Node000005" class="edge">
<title>Node4&#45;&gt;Node5</title>
<g id="a_edge4_Node000004_Node000005"><a xlink:title=" ">
<path fill="none" stroke="#63b8ff" d="M533.86,-60.39C554.09,-69.14 583.39,-81.81 606.35,-91.75"/>
<polygon fill="#63b8ff" stroke="#63b8ff" points="604.77,-94.88 615.34,-95.63 607.55,-88.45 604.77,-94.88"/>
</a>
</g>
</g>
<!-- Node4&#45;&gt;Node6 -->
<g id="edge5_Node000004_Node000006" class="edge">
<title>Node4&#45;&gt;Node6</title>
<g id="a_edge5_Node000004_Node000006"><a xlink:title=" ">
<path fill="none" stroke="#63b8ff" d="M533.86,-43.18C550.38,-38.42 572.94,-31.91 593.17,-26.07"/>
<polygon fill="#63b8ff" stroke="#63b8ff" points="594.02,-29.47 602.66,-23.34 592.08,-22.75 594.02,-29.47"/>
</a>
</g>
</g>
<!-- Node7&#45;&gt;Node5 -->
<g id="edge10_Node000007_Node000005" class="edge">
<title>Node7&#45;&gt;Node5</title>
<g id="a_edge10_Node000007_Node000005"><a xlink:title=" ">
<path fill="none" stroke="#63b8ff" d="M259.09,-91.87C275.24,-97.64 296.21,-104.14 315.5,-107.06 414.09,-121.99 531.36,-116.39 595,-111.43"/>
<polygon fill="#63b8ff" stroke="#63b8ff" points="595.05,-114.94 604.74,-110.64 594.49,-107.96 595.05,-114.94"/>
</a>
</g>
</g>
<!-- Node8 -->
<g id="Node000008" class="node">
<title>Node8</title>
<g id="a_Node000008"><a xlink:href="../../d0/da5/group___scaling_dirty.html#gadfd26d9b154f5ec79dbffe612dafd146" target="_top" xlink:title="In place modifying version of scale8_video() that does not clean up the R1 register on AVR.">
<polygon fill="white" stroke="#666666" points="448.5,-97.81 315.5,-97.81 315.5,-64.31 448.5,-64.31 448.5,-97.81"/>
<text text-anchor="start" x="323.5" y="-84.31" font-family="Helvetica,sans-Serif" font-size="10.00">nscale8_video_LEAVING</text>
<text text-anchor="middle" x="382" y="-71.56" font-family="Helvetica,sans-Serif" font-size="10.00">_R1_DIRTY</text>
</a>
</g>
</g>
<!-- Node7&#45;&gt;Node8 -->
<g id="edge11_Node000007_Node000008" class="edge">
<title>Node7&#45;&gt;Node8</title>
<g id="a_edge11_Node000007_Node000008"><a xlink:title=" ">
<path fill="none" stroke="#63b8ff" d="M279.71,-81.06C287.36,-81.06 295.44,-81.06 303.57,-81.06"/>
<polygon fill="#63b8ff" stroke="#63b8ff" points="303.53,-84.56 313.53,-81.06 303.53,-77.56 303.53,-84.56"/>
</a>
</g>
</g>
</g>
</svg>
