<?xml version="1.0" encoding="UTF-8" standalone="no"?>
<!DOCTYPE svg PUBLIC "-//W3C//DTD SVG 1.1//EN"
 "http://www.w3.org/Graphics/SVG/1.1/DTD/svg11.dtd">
<!-- Generated by graphviz version 12.2.1 (20241206.2353)
 -->
<!-- Title: ColorFromPalette Pages: 1 -->
<svg width="576pt" height="296pt"
 viewBox="0.00 0.00 576.25 295.75" xmlns="http://www.w3.org/2000/svg" xmlns:xlink="http://www.w3.org/1999/xlink">
<g id="graph0" class="graph" transform="scale(1 1) rotate(0) translate(4 291.75)">
<title>ColorFromPalette</title>
<!-- Node1 -->
<g id="Node000001" class="node">
<title>Node1</title>
<g id="a_Node000001"><a xlink:title="Get a color from a palette.">
<polygon fill="#999999" stroke="#666666" points="100,-135.75 0,-135.75 0,-115 100,-115 100,-135.75"/>
<text text-anchor="middle" x="50" y="-122.25" font-family="Helvetica,sans-Serif" font-size="10.00">ColorFromPalette</text>
</a>
</g>
</g>
<!-- Node2 -->
<g id="Node000002" class="node">
<title>Node2</title>
<g id="a_Node000002"><a xlink:href="../../dc/db8/group___color_blends.html#ga4f06b4423f71f77346aaf5dabe7dd05c" target="_top" xlink:title="Computes a new color blended some fraction of the way between two other colors.">
<polygon fill="white" stroke="#666666" points="197.38,-221.75 154.38,-221.75 154.38,-201 197.38,-201 197.38,-221.75"/>
<text text-anchor="middle" x="175.88" y="-208.25" font-family="Helvetica,sans-Serif" font-size="10.00">blend</text>
</a>
</g>
</g>
<!-- Node1&#45;&gt;Node2 -->
<g id="edge1_Node000001_Node000002" class="edge">
<title>Node1&#45;&gt;Node2</title>
<g id="a_edge1_Node000001_Node000002"><a xlink:title=" ">
<path fill="none" stroke="#63b8ff" d="M66.44,-136.09C87.39,-150.64 125.09,-176.81 150.04,-194.14"/>
<polygon fill="#63b8ff" stroke="#63b8ff" points="147.79,-196.83 158,-199.66 151.78,-191.08 147.79,-196.83"/>
</a>
</g>
</g>
<!-- Node5 -->
<g id="Node000005" class="node">
<title>Node5</title>
<g id="a_Node000005"><a xlink:href="../../d0/da5/group___scaling_dirty.html#ga3fade00fb4cf5b937b973128198a7a79" target="_top" xlink:title="Clean up the r1 register after a series of *LEAVING_R1_DIRTY calls.">
<polygon fill="white" stroke="#666666" points="531.12,-211.75 458.88,-211.75 458.88,-191 531.12,-191 531.12,-211.75"/>
<text text-anchor="middle" x="495" y="-198.25" font-family="Helvetica,sans-Serif" font-size="10.00">cleanup_R1</text>
</a>
</g>
</g>
<!-- Node1&#45;&gt;Node5 -->
<g id="edge8_Node000001_Node000005" class="edge">
<title>Node1&#45;&gt;Node5</title>
<g id="a_edge8_Node000001_Node000005"><a xlink:title=" ">
<path fill="none" stroke="#63b8ff" d="M96.77,-136.15C109.44,-138.99 123.23,-141.93 136,-144.38 247.17,-165.63 378.83,-185.15 447.32,-194.89"/>
<polygon fill="#63b8ff" stroke="#63b8ff" points="446.67,-198.33 457.06,-196.26 447.65,-191.4 446.67,-198.33"/>
</a>
</g>
</g>
<!-- Node6 -->
<g id="Node000006" class="node">
<title>Node6</title>
<g id="a_Node000006"><a xlink:href="../../d0/da5/group___scaling_dirty.html#ga7386235cada3aca429b189681d2ec56d" target="_top" xlink:title="This version of scale8() does not clean up the R1 register on AVR.">
<polygon fill="white" stroke="#666666" points="568.25,-287.75 421.75,-287.75 421.75,-267 568.25,-267 568.25,-287.75"/>
<text text-anchor="middle" x="495" y="-274.25" font-family="Helvetica,sans-Serif" font-size="10.00">scale8_LEAVING_R1_DIRTY</text>
</a>
</g>
</g>
<!-- Node1&#45;&gt;Node6 -->
<g id="edge13_Node000001_Node000006" class="edge">
<title>Node1&#45;&gt;Node6</title>
<g id="a_edge13_Node000001_Node000006"><a xlink:title=" ">
<path fill="none" stroke="#63b8ff" d="M56.4,-135.95C67.92,-157.38 97.06,-205.95 136,-230.38 218.76,-282.28 333.42,-288.41 410.48,-285.26"/>
<polygon fill="#63b8ff" stroke="#63b8ff" points="410.23,-288.77 420.05,-284.8 409.9,-281.78 410.23,-288.77"/>
</a>
</g>
</g>
<!-- Node7 -->
<g id="Node000007" class="node">
<title>Node7</title>
<g id="a_Node000007"><a xlink:href="../../da/d2d/colorutils_8cpp.html#ab445fd8641e95a3bbd1417d9783f6170" target="_top" xlink:title="Helper function to divide a number by 16, aka four logical shift right (LSR)&#39;s.">
<polygon fill="white" stroke="#666666" points="196.25,-135.75 155.5,-135.75 155.5,-115 196.25,-115 196.25,-135.75"/>
<text text-anchor="middle" x="175.88" y="-122.25" font-family="Helvetica,sans-Serif" font-size="10.00">lsrX4</text>
</a>
</g>
</g>
<!-- Node1&#45;&gt;Node7 -->
<g id="edge9_Node000001_Node000007" class="edge">
<title>Node1&#45;&gt;Node7</title>
<g id="a_edge9_Node000001_Node000007"><a xlink:title=" ">
<path fill="none" stroke="#63b8ff" d="M100.31,-125.38C114.99,-125.38 130.64,-125.38 143.8,-125.38"/>
<polygon fill="#63b8ff" stroke="#63b8ff" points="143.57,-128.88 153.57,-125.38 143.57,-121.88 143.57,-128.88"/>
</a>
</g>
</g>
<!-- Node8 -->
<g id="Node000008" class="node">
<title>Node8</title>
<g id="a_Node000008"><a xlink:href="../../d6/d19/group___linear_interpolation.html#gaf65357c7aeca9778e5a2f80a6bac2b5d" target="_top" xlink:title="Map from one full&#45;range 8&#45;bit value into a narrower range of 8&#45;bit values, possibly a range of hues.">
<polygon fill="white" stroke="#666666" points="197.75,-59.75 154,-59.75 154,-39 197.75,-39 197.75,-59.75"/>
<text text-anchor="middle" x="175.88" y="-46.25" font-family="Helvetica,sans-Serif" font-size="10.00">map8</text>
</a>
</g>
</g>
<!-- Node1&#45;&gt;Node8 -->
<g id="edge10_Node000001_Node000008" class="edge">
<title>Node1&#45;&gt;Node8</title>
<g id="a_edge10_Node000001_Node000008"><a xlink:title=" ">
<path fill="none" stroke="#63b8ff" d="M68.49,-114.65C89.14,-101.97 123.74,-80.74 147.86,-65.95"/>
<polygon fill="#63b8ff" stroke="#63b8ff" points="149.49,-69.05 156.19,-60.84 145.83,-63.09 149.49,-69.05"/>
</a>
</g>
</g>
<!-- Node9 -->
<g id="Node000009" class="node">
<title>Node9</title>
<g id="a_Node000009"><a xlink:href="../../d0/da8/group___scaling.html#gad7535ccda9c92470c4e6ee0265585555" target="_top" xlink:title="Scale one byte by a second one, which is treated as the numerator of a fraction whose denominator is ...">
<polygon fill="white" stroke="#666666" points="300,-78.75 252.5,-78.75 252.5,-58 300,-58 300,-78.75"/>
<text text-anchor="middle" x="276.25" y="-65.25" font-family="Helvetica,sans-Serif" font-size="10.00">scale8</text>
</a>
</g>
</g>
<!-- Node1&#45;&gt;Node9 -->
<g id="edge12_Node000001_Node000009" class="edge">
<title>Node1&#45;&gt;Node9</title>
<g id="a_edge12_Node000001_Node000009"><a xlink:title=" ">
<path fill="none" stroke="#63b8ff" d="M93.71,-114.52C136.53,-103.64 201.61,-87.09 241.11,-77.05"/>
<polygon fill="#63b8ff" stroke="#63b8ff" points="241.96,-80.45 250.79,-74.59 240.23,-73.66 241.96,-80.45"/>
</a>
</g>
</g>
<!-- Node10 -->
<g id="Node000010" class="node">
<title>Node10</title>
<g id="a_Node000010"><a xlink:href="../../d0/da8/group___scaling.html#ga628b417ea1507e3447cdf5f308d9b6d5" target="_top" xlink:title="The &quot;video&quot; version of scale8() guarantees that the output will be only be zero if one or both of the...">
<polygon fill="white" stroke="#666666" points="215.75,-20.75 136,-20.75 136,0 215.75,0 215.75,-20.75"/>
<text text-anchor="middle" x="175.88" y="-7.25" font-family="Helvetica,sans-Serif" font-size="10.00">scale8_video</text>
</a>
</g>
</g>
<!-- Node1&#45;&gt;Node10 -->
<g id="edge14_Node000001_Node000010" class="edge">
<title>Node1&#45;&gt;Node10</title>
<g id="a_edge14_Node000001_Node000010"><a xlink:title=" ">
<path fill="none" stroke="#63b8ff" d="M58.62,-114.52C72.35,-95.55 102.91,-55.96 136,-30.38 137.53,-29.19 139.14,-28.05 140.79,-26.95"/>
<polygon fill="#63b8ff" stroke="#63b8ff" points="142.49,-30.01 149.3,-21.89 138.92,-23.99 142.49,-30.01"/>
</a>
</g>
</g>
<!-- Node3 -->
<g id="Node000003" class="node">
<title>Node3</title>
<g id="a_Node000003"><a xlink:href="../../dc/db8/group___color_blends.html#ga325120664a9c9b41abceee65303b0c4e" target="_top" xlink:title="Destructively modifies one color, blending in a given fraction of an overlay color.">
<polygon fill="white" stroke="#666666" points="300.75,-240.75 251.75,-240.75 251.75,-220 300.75,-220 300.75,-240.75"/>
<text text-anchor="middle" x="276.25" y="-227.25" font-family="Helvetica,sans-Serif" font-size="10.00">nblend</text>
</a>
</g>
</g>
<!-- Node2&#45;&gt;Node3 -->
<g id="edge2_Node000002_Node000003" class="edge">
<title>Node2&#45;&gt;Node3</title>
<g id="a_edge2_Node000002_Node000003"><a xlink:title=" ">
<path fill="none" stroke="#63b8ff" d="M197.74,-215.4C210.11,-217.79 226.11,-220.88 240.36,-223.64"/>
<polygon fill="#63b8ff" stroke="#63b8ff" points="239.33,-227 249.82,-225.46 240.66,-220.13 239.33,-227"/>
</a>
</g>
</g>
<!-- Node4 -->
<g id="Node000004" class="node">
<title>Node4</title>
<g id="a_Node000004"><a xlink:href="../../d5/d98/group___math.html#ga9a604de042246d6c87fdbfdd5578f377" target="_top" xlink:title="Blend a variable proportion (0&#45;255) of one byte to another.">
<polygon fill="white" stroke="#666666" points="385.75,-249.75 336.75,-249.75 336.75,-229 385.75,-229 385.75,-249.75"/>
<text text-anchor="middle" x="361.25" y="-236.25" font-family="Helvetica,sans-Serif" font-size="10.00">blend8</text>
</a>
</g>
</g>
<!-- Node3&#45;&gt;Node4 -->
<g id="edge3_Node000003_Node000004" class="edge">
<title>Node3&#45;&gt;Node4</title>
<g id="a_edge3_Node000003_Node000004"><a xlink:title=" ">
<path fill="none" stroke="#63b8ff" d="M300.81,-232.93C308.37,-233.75 316.91,-234.68 325.11,-235.56"/>
<polygon fill="#63b8ff" stroke="#63b8ff" points="324.52,-239.02 334.84,-236.62 325.27,-232.06 324.52,-239.02"/>
</a>
</g>
</g>
<!-- Node3&#45;&gt;Node5 -->
<g id="edge6_Node000003_Node000005" class="edge">
<title>Node3&#45;&gt;Node5</title>
<g id="a_edge6_Node000003_Node000005"><a xlink:title=" ">
<path fill="none" stroke="#63b8ff" d="M301.24,-226.08C312.07,-224.21 325.04,-222.07 336.75,-220.38 373.8,-215.03 415.9,-209.99 447.21,-206.45"/>
<polygon fill="#63b8ff" stroke="#63b8ff" points="447.6,-209.93 457.15,-205.34 446.82,-202.98 447.6,-209.93"/>
</a>
</g>
</g>
<!-- Node3&#45;&gt;Node6 -->
<g id="edge7_Node000003_Node000006" class="edge">
<title>Node3&#45;&gt;Node6</title>
<g id="a_edge7_Node000003_Node000006"><a xlink:title=" ">
<path fill="none" stroke="#63b8ff" d="M296.2,-241.21C307.6,-247.23 322.6,-254.3 336.75,-258.38 360.13,-265.1 386.14,-269.45 410.16,-272.25"/>
<polygon fill="#63b8ff" stroke="#63b8ff" points="409.58,-275.71 419.9,-273.31 410.34,-268.75 409.58,-275.71"/>
</a>
</g>
</g>
<!-- Node4&#45;&gt;Node5 -->
<g id="edge4_Node000004_Node000005" class="edge">
<title>Node4&#45;&gt;Node5</title>
<g id="a_edge4_Node000004_Node000005"><a xlink:title=" ">
<path fill="none" stroke="#63b8ff" d="M386.11,-232.49C403.21,-227.56 426.78,-220.76 447.54,-214.78"/>
<polygon fill="#63b8ff" stroke="#63b8ff" points="448.31,-218.2 456.95,-212.06 446.37,-211.47 448.31,-218.2"/>
</a>
</g>
</g>
<!-- Node4&#45;&gt;Node6 -->
<g id="edge5_Node000004_Node000006" class="edge">
<title>Node4&#45;&gt;Node6</title>
<g id="a_edge5_Node000004_Node000006"><a xlink:title=" ">
<path fill="none" stroke="#63b8ff" d="M386.11,-246.26C402.63,-251.02 425.19,-257.53 445.42,-263.36"/>
<polygon fill="#63b8ff" stroke="#63b8ff" points="444.33,-266.69 454.91,-266.1 446.27,-259.97 444.33,-266.69"/>
</a>
</g>
</g>
<!-- Node8&#45;&gt;Node9 -->
<g id="edge11_Node000008_Node000009" class="edge">
<title>Node8&#45;&gt;Node9</title>
<g id="a_edge11_Node000008_Node000009"><a xlink:title=" ">
<path fill="none" stroke="#63b8ff" d="M198.22,-53.5C210.8,-55.93 226.99,-59.05 241.28,-61.81"/>
<polygon fill="#63b8ff" stroke="#63b8ff" points="240.26,-65.18 250.74,-63.64 241.59,-58.31 240.26,-65.18"/>
</a>
</g>
</g>
</g>
</svg>
