<?xml version="1.0" encoding="UTF-8" standalone="no"?>
<!DOCTYPE svg PUBLIC "-//W3C//DTD SVG 1.1//EN"
 "http://www.w3.org/Graphics/SVG/1.1/DTD/svg11.dtd">
<!-- Generated by graphviz version 12.2.1 (20241206.2353)
 -->
<!-- Title: fill_palette Pages: 1 -->
<svg width="559pt" height="172pt"
 viewBox="0.00 0.00 559.00 171.75" xmlns="http://www.w3.org/2000/svg" xmlns:xlink="http://www.w3.org/1999/xlink">
<g id="graph0" class="graph" transform="scale(1 1) rotate(0) translate(4 167.75)">
<title>fill_palette</title>
<!-- Node1 -->
<g id="Node000001" class="node">
<title>Node1</title>
<g id="a_Node000001"><a xlink:title="Fill a range of LEDs with a sequence of entries from a palette.">
<polygon fill="#999999" stroke="#666666" points="67.75,-97.75 0,-97.75 0,-77 67.75,-77 67.75,-97.75"/>
<text text-anchor="middle" x="33.88" y="-84.25" font-family="Helvetica,sans-Serif" font-size="10.00">fill_palette</text>
</a>
</g>
</g>
<!-- Node2 -->
<g id="Node000002" class="node">
<title>Node2</title>
<g id="a_Node000002"><a xlink:href="../../d2/d73/group___palette_colors.html#gac46e65aff3dd6519b33e27f0998f17cd" target="_top" xlink:title="Get a color from a palette.">
<polygon fill="white" stroke="#666666" points="203.75,-97.75 103.75,-97.75 103.75,-77 203.75,-77 203.75,-97.75"/>
<text text-anchor="middle" x="153.75" y="-84.25" font-family="Helvetica,sans-Serif" font-size="10.00">ColorFromPalette</text>
</a>
</g>
</g>
<!-- Node1&#45;&gt;Node2 -->
<g id="edge1_Node000001_Node000002" class="edge">
<title>Node1&#45;&gt;Node2</title>
<g id="a_edge1_Node000001_Node000002"><a xlink:title=" ">
<path fill="none" stroke="#63b8ff" d="M68.02,-87.38C75.61,-87.38 83.9,-87.38 92.24,-87.38"/>
<polygon fill="#63b8ff" stroke="#63b8ff" points="92.05,-90.88 102.05,-87.38 92.05,-83.88 92.05,-90.88"/>
</a>
</g>
</g>
<!-- Node3 -->
<g id="Node000003" class="node">
<title>Node3</title>
<g id="a_Node000003"><a xlink:href="../../dc/db8/group___color_blends.html#ga4f06b4423f71f77346aaf5dabe7dd05c" target="_top" xlink:title="Computes a new color blended some fraction of the way between two other colors.">
<polygon fill="white" stroke="#666666" points="283.12,-135.75 240.12,-135.75 240.12,-115 283.12,-115 283.12,-135.75"/>
<text text-anchor="middle" x="261.62" y="-122.25" font-family="Helvetica,sans-Serif" font-size="10.00">blend</text>
</a>
</g>
</g>
<!-- Node2&#45;&gt;Node3 -->
<g id="edge2_Node000002_Node000003" class="edge">
<title>Node2&#45;&gt;Node3</title>
<g id="a_edge2_Node000002_Node000003"><a xlink:title=" ">
<path fill="none" stroke="#63b8ff" d="M184.81,-98.16C198.7,-103.15 215.2,-109.07 229.25,-114.11"/>
<polygon fill="#63b8ff" stroke="#63b8ff" points="227.88,-117.34 238.47,-117.42 230.24,-110.75 227.88,-117.34"/>
</a>
</g>
</g>
<!-- Node6 -->
<g id="Node000006" class="node">
<title>Node6</title>
<g id="a_Node000006"><a xlink:href="../../d0/da5/group___scaling_dirty.html#ga3fade00fb4cf5b937b973128198a7a79" target="_top" xlink:title="Clean up the r1 register after a series of *LEAVING_R1_DIRTY calls.">
<polygon fill="white" stroke="#666666" points="513.88,-163.75 441.62,-163.75 441.62,-143 513.88,-143 513.88,-163.75"/>
<text text-anchor="middle" x="477.75" y="-150.25" font-family="Helvetica,sans-Serif" font-size="10.00">cleanup_R1</text>
</a>
</g>
</g>
<!-- Node2&#45;&gt;Node6 -->
<g id="edge6_Node000002_Node000006" class="edge">
<title>Node2&#45;&gt;Node6</title>
<g id="a_edge6_Node000002_Node000006"><a xlink:title=" ">
<path fill="none" stroke="#63b8ff" d="M166.28,-98.23C181.65,-111.92 210.35,-134.82 239.75,-144.38 303.06,-164.96 380.92,-163.13 429.71,-158.99"/>
<polygon fill="#63b8ff" stroke="#63b8ff" points="430.02,-162.48 439.66,-158.07 429.38,-155.51 430.02,-162.48"/>
</a>
</g>
</g>
<!-- Node7 -->
<g id="Node000007" class="node">
<title>Node7</title>
<g id="a_Node000007"><a xlink:href="../../d0/da5/group___scaling_dirty.html#ga7386235cada3aca429b189681d2ec56d" target="_top" xlink:title="This version of scale8() does not clean up the R1 register on AVR.">
<polygon fill="white" stroke="#666666" points="551,-115.75 404.5,-115.75 404.5,-95 551,-95 551,-115.75"/>
<text text-anchor="middle" x="477.75" y="-102.25" font-family="Helvetica,sans-Serif" font-size="10.00">scale8_LEAVING_R1_DIRTY</text>
</a>
</g>
</g>
<!-- Node2&#45;&gt;Node7 -->
<g id="edge10_Node000002_Node000007" class="edge">
<title>Node2&#45;&gt;Node7</title>
<g id="a_edge10_Node000002_Node000007"><a xlink:title=" ">
<path fill="none" stroke="#63b8ff" d="M204.01,-90.13C254.15,-92.93 332.85,-97.33 392.84,-100.68"/>
<polygon fill="#63b8ff" stroke="#63b8ff" points="392.51,-104.17 402.68,-101.23 392.9,-97.18 392.51,-104.17"/>
</a>
</g>
</g>
<!-- Node8 -->
<g id="Node000008" class="node">
<title>Node8</title>
<g id="a_Node000008"><a xlink:href="../../da/d2d/colorutils_8cpp.html#ab445fd8641e95a3bbd1417d9783f6170" target="_top" xlink:title="Helper function to divide a number by 16, aka four logical shift right (LSR)&#39;s.">
<polygon fill="white" stroke="#666666" points="282,-59.75 241.25,-59.75 241.25,-39 282,-39 282,-59.75"/>
<text text-anchor="middle" x="261.62" y="-46.25" font-family="Helvetica,sans-Serif" font-size="10.00">lsrX4</text>
</a>
</g>
</g>
<!-- Node2&#45;&gt;Node8 -->
<g id="edge7_Node000002_Node000008" class="edge">
<title>Node2&#45;&gt;Node8</title>
<g id="a_edge7_Node000002_Node000008"><a xlink:title=" ">
<path fill="none" stroke="#63b8ff" d="M184.81,-76.59C198.99,-71.5 215.88,-65.43 230.12,-60.32"/>
<polygon fill="#63b8ff" stroke="#63b8ff" points="231.22,-63.65 239.45,-56.98 228.85,-57.06 231.22,-63.65"/>
</a>
</g>
</g>
<!-- Node9 -->
<g id="Node000009" class="node">
<title>Node9</title>
<g id="a_Node000009"><a xlink:href="../../d6/d19/group___linear_interpolation.html#gaf65357c7aeca9778e5a2f80a6bac2b5d" target="_top" xlink:title="Map from one full&#45;range 8&#45;bit value into a narrower range of 8&#45;bit values, possibly a range of hues.">
<polygon fill="white" stroke="#666666" points="283.5,-20.75 239.75,-20.75 239.75,0 283.5,0 283.5,-20.75"/>
<text text-anchor="middle" x="261.62" y="-7.25" font-family="Helvetica,sans-Serif" font-size="10.00">map8</text>
</a>
</g>
</g>
<!-- Node2&#45;&gt;Node9 -->
<g id="edge8_Node000002_Node000009" class="edge">
<title>Node2&#45;&gt;Node9</title>
<g id="a_edge8_Node000002_Node000009"><a xlink:title=" ">
<path fill="none" stroke="#63b8ff" d="M169.47,-76.67C186.84,-64.04 215.95,-42.87 236.59,-27.85"/>
<polygon fill="#63b8ff" stroke="#63b8ff" points="238.43,-30.84 244.46,-22.13 234.32,-25.18 238.43,-30.84"/>
</a>
</g>
</g>
<!-- Node4 -->
<g id="Node000004" class="node">
<title>Node4</title>
<g id="a_Node000004"><a xlink:href="../../dc/db8/group___color_blends.html#ga325120664a9c9b41abceee65303b0c4e" target="_top" xlink:title="Destructively modifies one color, blending in a given fraction of an overlay color.">
<polygon fill="#fff0f0" stroke="red" points="368.5,-135.75 319.5,-135.75 319.5,-115 368.5,-115 368.5,-135.75"/>
<text text-anchor="middle" x="344" y="-122.25" font-family="Helvetica,sans-Serif" font-size="10.00">nblend</text>
</a>
</g>
</g>
<!-- Node3&#45;&gt;Node4 -->
<g id="edge3_Node000003_Node000004" class="edge">
<title>Node3&#45;&gt;Node4</title>
<g id="a_edge3_Node000003_Node000004"><a xlink:title=" ">
<path fill="none" stroke="#63b8ff" d="M283.32,-125.38C290.78,-125.38 299.43,-125.38 307.78,-125.38"/>
<polygon fill="#63b8ff" stroke="#63b8ff" points="307.73,-128.88 317.73,-125.38 307.73,-121.88 307.73,-128.88"/>
</a>
</g>
</g>
<!-- Node4&#45;&gt;Node6 -->
<g id="edge4_Node000004_Node000006" class="edge">
<title>Node4&#45;&gt;Node6</title>
<g id="a_edge4_Node000004_Node000006"><a xlink:title=" ">
<path fill="none" stroke="#63b8ff" d="M368.86,-130.45C385.88,-134.06 409.32,-139.04 430,-143.44"/>
<polygon fill="#63b8ff" stroke="#63b8ff" points="429.16,-146.84 439.67,-145.49 430.62,-139.99 429.16,-146.84"/>
</a>
</g>
</g>
<!-- Node4&#45;&gt;Node7 -->
<g id="edge5_Node000004_Node000007" class="edge">
<title>Node4&#45;&gt;Node7</title>
<g id="a_edge5_Node000004_Node000007"><a xlink:title=" ">
<path fill="none" stroke="#63b8ff" d="M368.86,-121.75C376.29,-120.62 384.95,-119.31 394.07,-117.93"/>
<polygon fill="#63b8ff" stroke="#63b8ff" points="394.51,-121.4 403.87,-116.44 393.46,-114.48 394.51,-121.4"/>
</a>
</g>
</g>
<!-- Node10 -->
<g id="Node000010" class="node">
<title>Node10</title>
<g id="a_Node000010"><a xlink:href="../../d0/da8/group___scaling.html#gad7535ccda9c92470c4e6ee0265585555" target="_top" xlink:title="Scale one byte by a second one, which is treated as the numerator of a fraction whose denominator is ...">
<polygon fill="white" stroke="#666666" points="367.75,-20.75 320.25,-20.75 320.25,0 367.75,0 367.75,-20.75"/>
<text text-anchor="middle" x="344" y="-7.25" font-family="Helvetica,sans-Serif" font-size="10.00">scale8</text>
</a>
</g>
</g>
<!-- Node9&#45;&gt;Node10 -->
<g id="edge9_Node000009_Node000010" class="edge">
<title>Node9&#45;&gt;Node10</title>
<g id="a_edge9_Node000009_Node000010"><a xlink:title=" ">
<path fill="none" stroke="#63b8ff" d="M283.74,-10.38C291.27,-10.38 299.95,-10.38 308.31,-10.38"/>
<polygon fill="#63b8ff" stroke="#63b8ff" points="308.25,-13.88 318.25,-10.38 308.25,-6.88 308.25,-13.88"/>
</a>
</g>
</g>
</g>
</svg>
