<?xml version="1.0" encoding="UTF-8" standalone="no"?>
<!DOCTYPE svg PUBLIC "-//W3C//DTD SVG 1.1//EN"
 "http://www.w3.org/Graphics/SVG/1.1/DTD/svg11.dtd">
<!-- Generated by graphviz version 12.2.1 (20241206.2353)
 -->
<!-- Title: ColorFromPalette Pages: 1 -->
<svg width="686pt" height="858pt"
 viewBox="0.00 0.00 685.50 857.75" xmlns="http://www.w3.org/2000/svg" xmlns:xlink="http://www.w3.org/1999/xlink">
<g id="graph0" class="graph" transform="scale(1 1) rotate(0) translate(4 853.75)">
<title>ColorFromPalette</title>
<!-- Node1 -->
<g id="Node000001" class="node">
<title>Node1</title>
<g id="a_Node000001"><a xlink:title="Get a color from a palette.">
<polygon fill="#999999" stroke="#666666" points="677.5,-486.75 577.5,-486.75 577.5,-466 677.5,-466 677.5,-486.75"/>
<text text-anchor="middle" x="627.5" y="-473.25" font-family="Helvetica,sans-Serif" font-size="10.00">ColorFromPalette</text>
</a>
</g>
</g>
<!-- Node2 -->
<g id="Node000002" class="node">
<title>Node2</title>
<g id="a_Node000002"><a xlink:href="../../d5/d25/_demo_reel100_8ino.html#a4875f6d9a2b0f08d3cf221974234121b" target="_top" xlink:title=" ">
<polygon fill="white" stroke="#666666" points="479.62,-849.75 441.88,-849.75 441.88,-829 479.62,-829 479.62,-849.75"/>
<text text-anchor="middle" x="460.75" y="-836.25" font-family="Helvetica,sans-Serif" font-size="10.00">bpm</text>
</a>
</g>
</g>
<!-- Node1&#45;&gt;Node2 -->
<g id="edge1_Node000001_Node000002" class="edge">
<title>Node1&#45;&gt;Node2</title>
<g id="a_edge1_Node000001_Node000002"><a xlink:title=" ">
<path fill="none" stroke="#63b8ff" d="M623.99,-498.45C615.79,-566.8 587.59,-773.16 541.5,-819.38 525.27,-835.65 497.91,-839.36 479.84,-839.88"/>
<polygon fill="#63b8ff" stroke="#63b8ff" points="627.47,-498.87 625.15,-488.53 620.51,-498.06 627.47,-498.87"/>
</a>
</g>
</g>
<!-- Node5 -->
<g id="Node000005" class="node">
<title>Node5</title>
<g id="a_Node000005"><a xlink:href="../../d1/d60/classfl_1_1_demo_reel100.html#a72cc7eea48cf0be16b34fee7d4da64f4" target="_top" xlink:title=" ">
<polygon fill="white" stroke="#666666" points="523.12,-810.75 398.38,-810.75 398.38,-790 523.12,-790 523.12,-810.75"/>
<text text-anchor="middle" x="460.75" y="-797.25" font-family="Helvetica,sans-Serif" font-size="10.00">fl::DemoReel100::bpm</text>
</a>
</g>
</g>
<!-- Node1&#45;&gt;Node5 -->
<g id="edge4_Node000001_Node000005" class="edge">
<title>Node1&#45;&gt;Node5</title>
<g id="a_edge4_Node000001_Node000005"><a xlink:title=" ">
<path fill="none" stroke="#63b8ff" d="M627.31,-498.41C628.08,-554.17 622.01,-702 541.5,-780.38 536.28,-785.45 529.98,-789.3 523.23,-792.21"/>
<polygon fill="#63b8ff" stroke="#63b8ff" points="630.81,-498.56 627.07,-488.64 623.81,-498.73 630.81,-498.56"/>
</a>
</g>
</g>
<!-- Node6 -->
<g id="Node000006" class="node">
<title>Node6</title>
<g id="a_Node000006"><a xlink:href="../../d4/dd0/_twinkle_fox_8ino.html#aff322ac4b9956a48a5d4e90853178b9f" target="_top" xlink:title=" ">
<polygon fill="white" stroke="#666666" points="518.25,-771.75 403.25,-771.75 403.25,-751 518.25,-751 518.25,-771.75"/>
<text text-anchor="middle" x="460.75" y="-758.25" font-family="Helvetica,sans-Serif" font-size="10.00">computeOneTwinkle</text>
</a>
</g>
</g>
<!-- Node1&#45;&gt;Node6 -->
<g id="edge5_Node000001_Node000006" class="edge">
<title>Node1&#45;&gt;Node6</title>
<g id="a_edge5_Node000001_Node000006"><a xlink:title=" ">
<path fill="none" stroke="#63b8ff" d="M626.32,-498.43C624.65,-549.38 613.11,-675.97 541.5,-742.38 535.03,-748.38 527.02,-752.58 518.58,-755.52"/>
<polygon fill="#63b8ff" stroke="#63b8ff" points="629.81,-498.78 626.53,-488.7 622.82,-498.62 629.81,-498.78"/>
</a>
</g>
</g>
<!-- Node9 -->
<g id="Node000009" class="node">
<title>Node9</title>
<g id="a_Node000009"><a xlink:href="../../de/db5/classfl_1_1_twinkle_fox.html#a39614750a1a87e8a8be19c36f6c48677" target="_top" xlink:title=" ">
<polygon fill="white" stroke="#666666" points="535.88,-733.12 385.62,-733.12 385.62,-699.62 535.88,-699.62 535.88,-733.12"/>
<text text-anchor="start" x="393.62" y="-719.62" font-family="Helvetica,sans-Serif" font-size="10.00">fl::TwinkleFox::computeOne</text>
<text text-anchor="middle" x="460.75" y="-706.88" font-family="Helvetica,sans-Serif" font-size="10.00">Twinkle</text>
</a>
</g>
</g>
<!-- Node1&#45;&gt;Node9 -->
<g id="edge8_Node000001_Node000009" class="edge">
<title>Node1&#45;&gt;Node9</title>
<g id="a_edge8_Node000001_Node000009"><a xlink:title=" ">
<path fill="none" stroke="#63b8ff" d="M623.94,-498.37C617.77,-541.42 598.14,-637.19 541.5,-690.38 537.89,-693.76 533.83,-696.71 529.51,-699.28"/>
<polygon fill="#63b8ff" stroke="#63b8ff" points="627.4,-498.91 625.23,-488.54 620.46,-498 627.4,-498.91"/>
</a>
</g>
</g>
<!-- Node13 -->
<g id="Node000013" class="node">
<title>Node13</title>
<g id="a_Node000013"><a xlink:href="../../d5/d9b/classfl_1_1_fire2012.html#a39d20a6dc4f3a771b8b12696db9c4a15" target="_top" xlink:title=" ">
<polygon fill="white" stroke="#666666" points="510.75,-681.75 410.75,-681.75 410.75,-661 510.75,-661 510.75,-681.75"/>
<text text-anchor="middle" x="460.75" y="-668.25" font-family="Helvetica,sans-Serif" font-size="10.00">fl::Fire2012::draw</text>
</a>
</g>
</g>
<!-- Node1&#45;&gt;Node13 -->
<g id="edge11_Node000001_Node000013" class="edge">
<title>Node1&#45;&gt;Node13</title>
<g id="a_edge11_Node000001_Node000013"><a xlink:title=" ">
<path fill="none" stroke="#63b8ff" d="M622.22,-497.98C613.69,-535.19 590.96,-611.2 541.5,-651.38 532.75,-658.48 521.8,-663.11 510.85,-666.11"/>
<polygon fill="#63b8ff" stroke="#63b8ff" points="625.59,-498.96 624.27,-488.44 618.75,-497.49 625.59,-498.96"/>
</a>
</g>
</g>
<!-- Node14 -->
<g id="Node000014" class="node">
<title>Node14</title>
<g id="a_Node000014"><a xlink:href="../../d2/d73/group___palette_colors.html#gac3c3f6bd497b7916177d7cb95aa5a76c" target="_top" xlink:title="Fill a range of LEDs with a sequence of entries from a palette.">
<polygon fill="white" stroke="#666666" points="494.62,-642.75 426.88,-642.75 426.88,-622 494.62,-622 494.62,-642.75"/>
<text text-anchor="middle" x="460.75" y="-629.25" font-family="Helvetica,sans-Serif" font-size="10.00">fill_palette</text>
</a>
</g>
</g>
<!-- Node1&#45;&gt;Node14 -->
<g id="edge12_Node000001_Node000014" class="edge">
<title>Node1&#45;&gt;Node14</title>
<g id="a_edge12_Node000001_Node000014"><a xlink:title=" ">
<path fill="none" stroke="#63b8ff" d="M619.04,-497.82C607.36,-528.12 581.85,-583.02 541.5,-612.38 527.99,-622.2 510.18,-627.22 494.81,-629.78"/>
<polygon fill="#63b8ff" stroke="#63b8ff" points="622.26,-499.19 622.43,-488.59 615.69,-496.77 622.26,-499.19"/>
</a>
</g>
</g>
<!-- Node15 -->
<g id="Node000015" class="node">
<title>Node15</title>
<g id="a_Node000015"><a xlink:href="../../d2/d73/group___palette_colors.html#ga08fe42a864e3a7ee802d89a9b72d97c1" target="_top" xlink:title="Fill a range of LEDs with a sequence of entries from a palette, so that the entire palette smoothly c...">
<polygon fill="white" stroke="#666666" points="515.25,-603.75 406.25,-603.75 406.25,-583 515.25,-583 515.25,-603.75"/>
<text text-anchor="middle" x="460.75" y="-590.25" font-family="Helvetica,sans-Serif" font-size="10.00">fill_palette_circular</text>
</a>
</g>
</g>
<!-- Node1&#45;&gt;Node15 -->
<g id="edge13_Node000001_Node000015" class="edge">
<title>Node1&#45;&gt;Node15</title>
<g id="a_edge13_Node000001_Node000015"><a xlink:title=" ">
<path fill="none" stroke="#63b8ff" d="M614.29,-496.48C599.74,-518.7 573.33,-553.92 541.5,-573.38 533.58,-578.21 524.54,-581.88 515.47,-584.67"/>
<polygon fill="#63b8ff" stroke="#63b8ff" points="617.08,-498.61 619.48,-488.29 611.17,-494.87 617.08,-498.61"/>
</a>
</g>
</g>
<!-- Node16 -->
<g id="Node000016" class="node">
<title>Node16</title>
<g id="a_Node000016"><a xlink:href="../../d1/dc5/_color_palette_8ino.html#ae6b0ecfd96a40d5cec6d0dba0a3685fe" target="_top" xlink:title=" ">
<polygon fill="white" stroke="#666666" points="532.5,-564.75 389,-564.75 389,-544 532.5,-544 532.5,-564.75"/>
<text text-anchor="middle" x="460.75" y="-551.25" font-family="Helvetica,sans-Serif" font-size="10.00">FillLEDsFromPaletteColors</text>
</a>
</g>
</g>
<!-- Node1&#45;&gt;Node16 -->
<g id="edge14_Node000001_Node000016" class="edge">
<title>Node1&#45;&gt;Node16</title>
<g id="a_edge14_Node000001_Node000016"><a xlink:title=" ">
<path fill="none" stroke="#63b8ff" d="M605.04,-494.2C588.58,-507.05 564.79,-523.91 541.5,-534.38 533.43,-538 524.59,-541.05 515.82,-543.57"/>
<polygon fill="#63b8ff" stroke="#63b8ff" points="607.02,-497.09 612.64,-488.12 602.65,-491.63 607.02,-497.09"/>
</a>
</g>
</g>
<!-- Node18 -->
<g id="Node000018" class="node">
<title>Node18</title>
<g id="a_Node000018"><a xlink:href="../../db/d92/_fire2012_with_palette_8ino.html#af5890ba18cb2066c5a24a358de991a89" target="_top" xlink:title=" ">
<polygon fill="white" stroke="#666666" points="517.88,-525.75 403.62,-525.75 403.62,-505 517.88,-505 517.88,-525.75"/>
<text text-anchor="middle" x="460.75" y="-512.25" font-family="Helvetica,sans-Serif" font-size="10.00">Fire2012WithPalette</text>
</a>
</g>
</g>
<!-- Node1&#45;&gt;Node18 -->
<g id="edge16_Node000001_Node000018" class="edge">
<title>Node1&#45;&gt;Node18</title>
<g id="a_edge16_Node000001_Node000018"><a xlink:title=" ">
<path fill="none" stroke="#63b8ff" d="M569.64,-489.84C549.4,-494.63 526.89,-499.96 507.68,-504.5"/>
<polygon fill="#63b8ff" stroke="#63b8ff" points="570.21,-493.3 579.14,-487.59 568.6,-486.49 570.21,-493.3"/>
</a>
</g>
</g>
<!-- Node20 -->
<g id="Node000020" class="node">
<title>Node20</title>
<g id="a_Node000020"><a xlink:href="../../d8/d2c/_fire2023_8ino.html#abe327b12b434120ecf20ae3f46800983" target="_top" xlink:title=" ">
<polygon fill="white" stroke="#666666" points="489.75,-486.75 431.75,-486.75 431.75,-466 489.75,-466 489.75,-486.75"/>
<text text-anchor="middle" x="460.75" y="-473.25" font-family="Helvetica,sans-Serif" font-size="10.00">Fire2023</text>
</a>
</g>
</g>
<!-- Node1&#45;&gt;Node20 -->
<g id="edge18_Node000001_Node000020" class="edge">
<title>Node1&#45;&gt;Node20</title>
<g id="a_edge18_Node000001_Node000020"><a xlink:title=" ">
<path fill="none" stroke="#63b8ff" d="M565.8,-476.38C539.87,-476.38 510.85,-476.38 490.07,-476.38"/>
<polygon fill="#63b8ff" stroke="#63b8ff" points="565.56,-479.88 575.56,-476.38 565.56,-472.88 565.56,-479.88"/>
</a>
</g>
</g>
<!-- Node22 -->
<g id="Node000022" class="node">
<title>Node22</title>
<g id="a_Node000022"><a xlink:href="../../d2/d73/group___palette_colors.html#gaf34a692bbec05b697dc9c06d8bb0f74f" target="_top" xlink:title="Maps an array of palette color indexes into an array of LED colors.">
<polygon fill="white" stroke="#666666" points="522.38,-448.12 399.12,-448.12 399.12,-414.62 522.38,-414.62 522.38,-448.12"/>
<text text-anchor="start" x="407.12" y="-434.62" font-family="Helvetica,sans-Serif" font-size="10.00">map_data_into_colors</text>
<text text-anchor="middle" x="460.75" y="-421.88" font-family="Helvetica,sans-Serif" font-size="10.00">_through_palette</text>
</a>
</g>
</g>
<!-- Node1&#45;&gt;Node22 -->
<g id="edge20_Node000001_Node000022" class="edge">
<title>Node1&#45;&gt;Node22</title>
<g id="a_edge20_Node000001_Node000022"><a xlink:title=" ">
<path fill="none" stroke="#63b8ff" d="M576.29,-462.66C559.41,-458.05 540.39,-452.86 522.77,-448.04"/>
<polygon fill="#63b8ff" stroke="#63b8ff" points="575.01,-465.94 585.58,-465.2 576.85,-459.19 575.01,-465.94"/>
</a>
</g>
</g>
<!-- Node23 -->
<g id="Node000023" class="node">
<title>Node23</title>
<g id="a_Node000023"><a xlink:href="../../d9/d41/classfl_1_1_noise_palette.html#a546f14f524f7a1b965c872ddad7be8a4" target="_top" xlink:title=" ">
<polygon fill="white" stroke="#666666" points="533.25,-396.12 388.25,-396.12 388.25,-362.62 533.25,-362.62 533.25,-396.12"/>
<text text-anchor="start" x="396.25" y="-382.62" font-family="Helvetica,sans-Serif" font-size="10.00">fl::NoisePalette::mapNoise</text>
<text text-anchor="middle" x="460.75" y="-369.88" font-family="Helvetica,sans-Serif" font-size="10.00">ToLEDsUsingPalette</text>
</a>
</g>
</g>
<!-- Node1&#45;&gt;Node23 -->
<g id="edge21_Node000001_Node000023" class="edge">
<title>Node1&#45;&gt;Node23</title>
<g id="a_edge21_Node000001_Node000023"><a xlink:title=" ">
<path fill="none" stroke="#63b8ff" d="M608.43,-457.71C592.2,-441.87 567.05,-419.52 541.5,-405.38 535.64,-402.13 529.31,-399.21 522.87,-396.61"/>
<polygon fill="#63b8ff" stroke="#63b8ff" points="605.86,-460.09 615.41,-464.68 610.81,-455.14 605.86,-460.09"/>
</a>
</g>
</g>
<!-- Node24 -->
<g id="Node000024" class="node">
<title>Node24</title>
<g id="a_Node000024"><a xlink:href="../../da/dda/_noise_plus_palette_8ino.html#a280e07fce1769d79d75e63ce6236a918" target="_top" xlink:title=" ">
<polygon fill="white" stroke="#666666" points="541.5,-344.75 380,-344.75 380,-324 541.5,-324 541.5,-344.75"/>
<text text-anchor="middle" x="460.75" y="-331.25" font-family="Helvetica,sans-Serif" font-size="10.00">mapNoiseToLEDsUsingPalette</text>
</a>
</g>
</g>
<!-- Node1&#45;&gt;Node24 -->
<g id="edge22_Node000001_Node000024" class="edge">
<title>Node1&#45;&gt;Node24</title>
<g id="a_edge22_Node000001_Node000024"><a xlink:title=" ">
<path fill="none" stroke="#63b8ff" d="M617.79,-455.3C605.18,-427.51 579.16,-379.14 541.5,-353.38 536.68,-350.08 531.36,-347.35 525.83,-345.1"/>
<polygon fill="#63b8ff" stroke="#63b8ff" points="614.42,-456.34 621.62,-464.11 620.84,-453.55 614.42,-456.34"/>
</a>
</g>
</g>
<!-- Node28 -->
<g id="Node000028" class="node">
<title>Node28</title>
<g id="a_Node000028"><a xlink:href="../../d2/db2/classfl_1_1_pacifica.html#ac949d5e9a88b724a060954658b892ebc" target="_top" xlink:title=" ">
<polygon fill="white" stroke="#666666" points="514.88,-306.12 406.62,-306.12 406.62,-272.62 514.88,-272.62 514.88,-306.12"/>
<text text-anchor="start" x="414.62" y="-292.62" font-family="Helvetica,sans-Serif" font-size="10.00">fl::Pacifica::pacifica</text>
<text text-anchor="middle" x="460.75" y="-279.88" font-family="Helvetica,sans-Serif" font-size="10.00">_one_layer</text>
</a>
</g>
</g>
<!-- Node1&#45;&gt;Node28 -->
<g id="edge26_Node000001_Node000028" class="edge">
<title>Node1&#45;&gt;Node28</title>
<g id="a_edge26_Node000001_Node000028"><a xlink:title=" ">
<path fill="none" stroke="#63b8ff" d="M620.86,-454.88C610.74,-420.47 586.26,-353.08 541.5,-315.38 533.93,-308.99 524.75,-304.17 515.36,-300.52"/>
<polygon fill="#63b8ff" stroke="#63b8ff" points="617.38,-455.43 623.44,-464.11 624.12,-453.54 617.38,-455.43"/>
</a>
</g>
</g>
<!-- Node31 -->
<g id="Node000031" class="node">
<title>Node31</title>
<g id="a_Node000031"><a xlink:href="../../dc/d25/_pacifica_8ino.html#a74ff76f68b211ed517ba9110d1084302" target="_top" xlink:title=" ">
<polygon fill="white" stroke="#666666" points="514.12,-254.75 407.38,-254.75 407.38,-234 514.12,-234 514.12,-254.75"/>
<text text-anchor="middle" x="460.75" y="-241.25" font-family="Helvetica,sans-Serif" font-size="10.00">pacifica_one_layer</text>
</a>
</g>
</g>
<!-- Node1&#45;&gt;Node31 -->
<g id="edge29_Node000001_Node000031" class="edge">
<title>Node1&#45;&gt;Node31</title>
<g id="a_edge29_Node000001_Node000031"><a xlink:title=" ">
<path fill="none" stroke="#63b8ff" d="M624.31,-454.35C618.77,-410.92 600.18,-314.07 541.5,-263.38 533.85,-256.77 524.31,-252.37 514.52,-249.45"/>
<polygon fill="#63b8ff" stroke="#63b8ff" points="620.81,-454.51 625.42,-464.05 627.76,-453.72 620.81,-454.51"/>
</a>
</g>
</g>
<!-- Node34 -->
<g id="Node000034" class="node">
<title>Node34</title>
<g id="a_Node000034"><a xlink:href="../../d6/d0a/group___palette_upscale.html#gab25990089da4e6e2179c52bf84371ef6" target="_top" xlink:title="Convert a 16&#45;entry palette to a 256&#45;entry palette.">
<polygon fill="white" stroke="#666666" points="505.12,-215.75 416.38,-215.75 416.38,-195 505.12,-195 505.12,-215.75"/>
<text text-anchor="middle" x="460.75" y="-202.25" font-family="Helvetica,sans-Serif" font-size="10.00">UpscalePalette</text>
</a>
</g>
</g>
<!-- Node1&#45;&gt;Node34 -->
<g id="edge32_Node000001_Node000034" class="edge">
<title>Node1&#45;&gt;Node34</title>
<g id="a_edge32_Node000001_Node000034"><a xlink:title=" ">
<path fill="none" stroke="#63b8ff" d="M625.77,-454.3C622.92,-405.46 609.02,-287.65 541.5,-225.38 531.64,-216.28 518.26,-211.17 505.29,-208.34"/>
<polygon fill="#63b8ff" stroke="#63b8ff" points="622.27,-454.32 626.23,-464.14 629.26,-453.99 622.27,-454.32"/>
</a>
</g>
</g>
<!-- Node35 -->
<g id="Node000035" class="node">
<title>Node35</title>
<g id="a_Node000035"><a xlink:href="../../d6/d0a/group___palette_upscale.html#ga7ece2048e58a7d25a494d9856b2218bd" target="_top" xlink:title="Convert a 32&#45;entry palette to a 256&#45;entry palette.">
<polygon fill="white" stroke="#666666" points="505.12,-176.75 416.38,-176.75 416.38,-156 505.12,-156 505.12,-176.75"/>
<text text-anchor="middle" x="460.75" y="-163.25" font-family="Helvetica,sans-Serif" font-size="10.00">UpscalePalette</text>
</a>
</g>
</g>
<!-- Node1&#45;&gt;Node35 -->
<g id="edge33_Node000001_Node000035" class="edge">
<title>Node1&#45;&gt;Node35</title>
<g id="a_edge33_Node000001_Node000035"><a xlink:title=" ">
<path fill="none" stroke="#63b8ff" d="M626.95,-454.26C626.79,-400.21 618.53,-260.43 541.5,-186.38 531.83,-177.08 518.51,-171.91 505.52,-169.09"/>
<polygon fill="#63b8ff" stroke="#63b8ff" points="623.46,-453.99 626.88,-464.02 630.46,-454.04 623.46,-453.99"/>
</a>
</g>
</g>
<!-- Node36 -->
<g id="Node000036" class="node">
<title>Node36</title>
<g id="a_Node000036"><a xlink:href="../../d6/d0a/group___palette_upscale.html#gaa88523d1afb29cf3f75b9b2725ba55d3" target="_top" xlink:title="Convert a 16&#45;entry palette to a 256&#45;entry palette.">
<polygon fill="white" stroke="#666666" points="505.12,-137.75 416.38,-137.75 416.38,-117 505.12,-117 505.12,-137.75"/>
<text text-anchor="middle" x="460.75" y="-124.25" font-family="Helvetica,sans-Serif" font-size="10.00">UpscalePalette</text>
</a>
</g>
</g>
<!-- Node1&#45;&gt;Node36 -->
<g id="edge34_Node000001_Node000036" class="edge">
<title>Node1&#45;&gt;Node36</title>
<g id="a_edge34_Node000001_Node000036"><a xlink:title=" ">
<path fill="none" stroke="#63b8ff" d="M623.8,-454.76C615.13,-388.73 585.94,-191.5 541.5,-147.38 531.88,-137.82 518.41,-132.6 505.29,-129.82"/>
<polygon fill="#63b8ff" stroke="#63b8ff" points="620.28,-454.84 625.03,-464.31 627.23,-453.95 620.28,-454.84"/>
</a>
</g>
</g>
<!-- Node43 -->
<g id="Node000043" class="node">
<title>Node43</title>
<g id="a_Node000043"><a xlink:href="../../d6/d0a/group___palette_upscale.html#gacd78065e7fb5f0f0997610b67eab968c" target="_top" xlink:title="Convert a 32&#45;entry palette to a 256&#45;entry palette.">
<polygon fill="white" stroke="#666666" points="505.12,-98.75 416.38,-98.75 416.38,-78 505.12,-78 505.12,-98.75"/>
<text text-anchor="middle" x="460.75" y="-85.25" font-family="Helvetica,sans-Serif" font-size="10.00">UpscalePalette</text>
</a>
</g>
</g>
<!-- Node1&#45;&gt;Node43 -->
<g id="edge41_Node000001_Node000043" class="edge">
<title>Node1&#45;&gt;Node43</title>
<g id="a_edge41_Node000001_Node000043"><a xlink:title=" ">
<path fill="none" stroke="#63b8ff" d="M624.42,-454.57C617.17,-383.25 590.79,-158.59 541.5,-108.38 532,-98.7 518.57,-93.45 505.43,-90.67"/>
<polygon fill="#63b8ff" stroke="#63b8ff" points="620.9,-454.57 625.37,-464.18 627.87,-453.88 620.9,-454.57"/>
</a>
</g>
</g>
<!-- Node3 -->
<g id="Node000003" class="node">
<title>Node3</title>
<g id="a_Node000003"><a xlink:href="../../d1/d60/classfl_1_1_demo_reel100.html#aad4b41d93c1a9f7acecea8b49cda7078" target="_top" xlink:title=" ">
<polygon fill="white" stroke="#666666" points="330.12,-849.75 176.88,-849.75 176.88,-829 330.12,-829 330.12,-849.75"/>
<text text-anchor="middle" x="253.5" y="-836.25" font-family="Helvetica,sans-Serif" font-size="10.00">fl::DemoReel100::runPattern</text>
</a>
</g>
</g>
<!-- Node2&#45;&gt;Node3 -->
<g id="edge2_Node000002_Node000003" class="edge">
<title>Node2&#45;&gt;Node3</title>
<g id="a_edge2_Node000002_Node000003"><a xlink:title=" ">
<path fill="none" stroke="#63b8ff" d="M430.24,-839.38C404.25,-839.38 365.26,-839.38 330.61,-839.38"/>
<polygon fill="#63b8ff" stroke="#63b8ff" points="430.02,-842.88 440.02,-839.38 430.02,-835.88 430.02,-842.88"/>
</a>
</g>
</g>
<!-- Node4 -->
<g id="Node000004" class="node">
<title>Node4</title>
<g id="a_Node000004"><a xlink:href="../../d1/d60/classfl_1_1_demo_reel100.html#a5f66b8a2f16f89f0180bd6e27f1563c6" target="_top" xlink:title=" ">
<polygon fill="white" stroke="#666666" points="127,-849.75 0,-849.75 0,-829 127,-829 127,-849.75"/>
<text text-anchor="middle" x="63.5" y="-836.25" font-family="Helvetica,sans-Serif" font-size="10.00">fl::DemoReel100::draw</text>
</a>
</g>
</g>
<!-- Node3&#45;&gt;Node4 -->
<g id="edge3_Node000003_Node000004" class="edge">
<title>Node3&#45;&gt;Node4</title>
<g id="a_edge3_Node000003_Node000004"><a xlink:title=" ">
<path fill="none" stroke="#63b8ff" d="M165.4,-839.38C152.61,-839.38 139.64,-839.38 127.46,-839.38"/>
<polygon fill="#63b8ff" stroke="#63b8ff" points="165.06,-842.88 175.06,-839.38 165.06,-835.88 165.06,-842.88"/>
</a>
</g>
</g>
<!-- Node7 -->
<g id="Node000007" class="node">
<title>Node7</title>
<g id="a_Node000007"><a xlink:href="../../d4/dd0/_twinkle_fox_8ino.html#a6d0a3407d4b43c23c7bdd4aac9fc76fd" target="_top" xlink:title=" ">
<polygon fill="white" stroke="#666666" points="294.5,-771.75 212.5,-771.75 212.5,-751 294.5,-751 294.5,-771.75"/>
<text text-anchor="middle" x="253.5" y="-758.25" font-family="Helvetica,sans-Serif" font-size="10.00">drawTwinkles</text>
</a>
</g>
</g>
<!-- Node6&#45;&gt;Node7 -->
<g id="edge6_Node000006_Node000007" class="edge">
<title>Node6&#45;&gt;Node7</title>
<g id="a_edge6_Node000006_Node000007"><a xlink:title=" ">
<path fill="none" stroke="#63b8ff" d="M391.74,-761.38C359.66,-761.38 322.47,-761.38 294.9,-761.38"/>
<polygon fill="#63b8ff" stroke="#63b8ff" points="391.34,-764.88 401.34,-761.38 391.34,-757.88 391.34,-764.88"/>
</a>
</g>
</g>
<!-- Node8 -->
<g id="Node000008" class="node">
<title>Node8</title>
<g id="a_Node000008"><a xlink:href="../../d4/dd0/_twinkle_fox_8ino.html#afe461d27b9c48d5921c00d521181f12f" target="_top" xlink:title=" ">
<polygon fill="white" stroke="#666666" points="82,-771.75 45,-771.75 45,-751 82,-751 82,-771.75"/>
<text text-anchor="middle" x="63.5" y="-758.25" font-family="Helvetica,sans-Serif" font-size="10.00">loop</text>
</a>
</g>
</g>
<!-- Node7&#45;&gt;Node8 -->
<g id="edge7_Node000007_Node000008" class="edge">
<title>Node7&#45;&gt;Node8</title>
<g id="a_edge7_Node000007_Node000008"><a xlink:title=" ">
<path fill="none" stroke="#63b8ff" d="M200.85,-761.38C161.25,-761.38 108.97,-761.38 82.11,-761.38"/>
<polygon fill="#63b8ff" stroke="#63b8ff" points="200.66,-764.88 210.66,-761.38 200.66,-757.88 200.66,-764.88"/>
</a>
</g>
</g>
<!-- Node10 -->
<g id="Node000010" class="node">
<title>Node10</title>
<g id="a_Node000010"><a xlink:href="../../de/db5/classfl_1_1_twinkle_fox.html#a67375829d0da55e17d3f74ac9817914d" target="_top" xlink:title=" ">
<polygon fill="white" stroke="#666666" points="336.5,-726.75 170.5,-726.75 170.5,-706 336.5,-706 336.5,-726.75"/>
<text text-anchor="middle" x="253.5" y="-713.25" font-family="Helvetica,sans-Serif" font-size="10.00">fl::TwinkleFox::drawTwinkleFox</text>
</a>
</g>
</g>
<!-- Node9&#45;&gt;Node10 -->
<g id="edge9_Node000009_Node000010" class="edge">
<title>Node9&#45;&gt;Node10</title>
<g id="a_edge9_Node000009_Node000010"><a xlink:title=" ">
<path fill="none" stroke="#63b8ff" d="M374.17,-716.38C361.86,-716.38 349.22,-716.38 336.97,-716.38"/>
<polygon fill="#63b8ff" stroke="#63b8ff" points="373.85,-719.88 383.85,-716.38 373.85,-712.88 373.85,-719.88"/>
</a>
</g>
</g>
<!-- Node11 -->
<g id="Node000011" class="node">
<title>Node11</title>
<g id="a_Node000011"><a xlink:href="../../de/db5/classfl_1_1_twinkle_fox.html#ab5d3d43b11bed65afbd407071ee85eb8" target="_top" xlink:title=" ">
<polygon fill="#fff0f0" stroke="red" points="119.5,-726.75 7.5,-726.75 7.5,-706 119.5,-706 119.5,-726.75"/>
<text text-anchor="middle" x="63.5" y="-713.25" font-family="Helvetica,sans-Serif" font-size="10.00">fl::TwinkleFox::draw</text>
</a>
</g>
</g>
<!-- Node10&#45;&gt;Node11 -->
<g id="edge10_Node000010_Node000011" class="edge">
<title>Node10&#45;&gt;Node11</title>
<g id="a_edge10_Node000010_Node000011"><a xlink:title=" ">
<path fill="none" stroke="#63b8ff" d="M158.85,-716.38C145.51,-716.38 132.15,-716.38 119.86,-716.38"/>
<polygon fill="#63b8ff" stroke="#63b8ff" points="158.53,-719.88 168.53,-716.38 158.53,-712.88 158.53,-719.88"/>
</a>
</g>
</g>
<!-- Node17 -->
<g id="Node000017" class="node">
<title>Node17</title>
<g id="a_Node000017"><a xlink:href="../../d1/dc5/_color_palette_8ino.html#afe461d27b9c48d5921c00d521181f12f" target="_top" xlink:title=" ">
<polygon fill="white" stroke="#666666" points="272,-564.75 235,-564.75 235,-544 272,-544 272,-564.75"/>
<text text-anchor="middle" x="253.5" y="-551.25" font-family="Helvetica,sans-Serif" font-size="10.00">loop</text>
</a>
</g>
</g>
<!-- Node16&#45;&gt;Node17 -->
<g id="edge15_Node000016_Node000017" class="edge">
<title>Node16&#45;&gt;Node17</title>
<g id="a_edge15_Node000016_Node000017"><a xlink:title=" ">
<path fill="none" stroke="#63b8ff" d="M377.21,-554.38C338.47,-554.38 295.76,-554.38 272.33,-554.38"/>
<polygon fill="#63b8ff" stroke="#63b8ff" points="377.03,-557.88 387.03,-554.38 377.03,-550.88 377.03,-557.88"/>
</a>
</g>
</g>
<!-- Node19 -->
<g id="Node000019" class="node">
<title>Node19</title>
<g id="a_Node000019"><a xlink:href="../../db/d92/_fire2012_with_palette_8ino.html#afe461d27b9c48d5921c00d521181f12f" target="_top" xlink:title=" ">
<polygon fill="white" stroke="#666666" points="272,-525.75 235,-525.75 235,-505 272,-505 272,-525.75"/>
<text text-anchor="middle" x="253.5" y="-512.25" font-family="Helvetica,sans-Serif" font-size="10.00">loop</text>
</a>
</g>
</g>
<!-- Node18&#45;&gt;Node19 -->
<g id="edge17_Node000018_Node000019" class="edge">
<title>Node18&#45;&gt;Node19</title>
<g id="a_edge17_Node000018_Node000019"><a xlink:title=" ">
<path fill="none" stroke="#63b8ff" d="M392.05,-515.38C349.91,-515.38 298.85,-515.38 272.37,-515.38"/>
<polygon fill="#63b8ff" stroke="#63b8ff" points="391.88,-518.88 401.88,-515.38 391.88,-511.88 391.88,-518.88"/>
</a>
</g>
</g>
<!-- Node21 -->
<g id="Node000021" class="node">
<title>Node21</title>
<g id="a_Node000021"><a xlink:href="../../d8/d2c/_fire2023_8ino.html#afe461d27b9c48d5921c00d521181f12f" target="_top" xlink:title=" ">
<polygon fill="white" stroke="#666666" points="272,-486.75 235,-486.75 235,-466 272,-466 272,-486.75"/>
<text text-anchor="middle" x="253.5" y="-473.25" font-family="Helvetica,sans-Serif" font-size="10.00">loop</text>
</a>
</g>
</g>
<!-- Node20&#45;&gt;Node21 -->
<g id="edge19_Node000020_Node000021" class="edge">
<title>Node20&#45;&gt;Node21</title>
<g id="a_edge19_Node000020_Node000021"><a xlink:title=" ">
<path fill="none" stroke="#63b8ff" d="M420.36,-476.38C375.78,-476.38 305.11,-476.38 272.31,-476.38"/>
<polygon fill="#63b8ff" stroke="#63b8ff" points="420.13,-479.88 430.13,-476.38 420.13,-472.88 420.13,-479.88"/>
</a>
</g>
</g>
<!-- Node25 -->
<g id="Node000025" class="node">
<title>Node25</title>
<g id="a_Node000025"><a xlink:href="../../d9/d41/classfl_1_1_noise_palette.html#afc6cd594830dfdd146c45e7ab1d1905d" target="_top" xlink:title=" ">
<polygon fill="white" stroke="#666666" points="313.25,-380.75 193.75,-380.75 193.75,-360 313.25,-360 313.25,-380.75"/>
<text text-anchor="middle" x="253.5" y="-367.25" font-family="Helvetica,sans-Serif" font-size="10.00">fl::NoisePalette::draw</text>
</a>
</g>
</g>
<!-- Node24&#45;&gt;Node25 -->
<g id="edge23_Node000024_Node000025" class="edge">
<title>Node24&#45;&gt;Node25</title>
<g id="a_edge23_Node000024_Node000025"><a xlink:title=" ">
<path fill="none" stroke="#63b8ff" d="M386.68,-347.19C362.65,-351.41 336.26,-356.04 313.42,-360.04"/>
<polygon fill="#63b8ff" stroke="#63b8ff" points="387.15,-350.66 396.4,-345.49 385.94,-343.77 387.15,-350.66"/>
</a>
</g>
</g>
<!-- Node27 -->
<g id="Node000027" class="node">
<title>Node27</title>
<g id="a_Node000027"><a xlink:href="../../da/dda/_noise_plus_palette_8ino.html#afe461d27b9c48d5921c00d521181f12f" target="_top" xlink:title=" ">
<polygon fill="white" stroke="#666666" points="272,-341.75 235,-341.75 235,-321 272,-321 272,-341.75"/>
<text text-anchor="middle" x="253.5" y="-328.25" font-family="Helvetica,sans-Serif" font-size="10.00">loop</text>
</a>
</g>
</g>
<!-- Node24&#45;&gt;Node27 -->
<g id="edge25_Node000024_Node000027" class="edge">
<title>Node24&#45;&gt;Node27</title>
<g id="a_edge25_Node000024_Node000027"><a xlink:title=" ">
<path fill="none" stroke="#63b8ff" d="M368.34,-333.04C332.09,-332.51 293.95,-331.95 272.31,-331.64"/>
<polygon fill="#63b8ff" stroke="#63b8ff" points="367.95,-336.53 378,-333.18 368.05,-329.53 367.95,-336.53"/>
</a>
</g>
</g>
<!-- Node26 -->
<g id="Node000026" class="node">
<title>Node26</title>
<g id="a_Node000026"><a xlink:href="../../df/d43/_overclock_8ino.html#afe461d27b9c48d5921c00d521181f12f" target="_top" xlink:title=" ">
<polygon fill="white" stroke="#666666" points="82,-380.75 45,-380.75 45,-360 82,-360 82,-380.75"/>
<text text-anchor="middle" x="63.5" y="-367.25" font-family="Helvetica,sans-Serif" font-size="10.00">loop</text>
</a>
</g>
</g>
<!-- Node25&#45;&gt;Node26 -->
<g id="edge24_Node000025_Node000026" class="edge">
<title>Node25&#45;&gt;Node26</title>
<g id="a_edge24_Node000025_Node000026"><a xlink:title=" ">
<path fill="none" stroke="#63b8ff" d="M181.82,-370.38C145.93,-370.38 105.2,-370.38 82.41,-370.38"/>
<polygon fill="#63b8ff" stroke="#63b8ff" points="181.76,-373.88 191.76,-370.38 181.76,-366.88 181.76,-373.88"/>
</a>
</g>
</g>
<!-- Node29 -->
<g id="Node000029" class="node">
<title>Node29</title>
<g id="a_Node000029"><a xlink:href="../../d2/db2/classfl_1_1_pacifica.html#a264d0c1db5db60028b6fab87af13d700" target="_top" xlink:title=" ">
<polygon fill="white" stroke="#666666" points="300.88,-299.75 206.12,-299.75 206.12,-279 300.88,-279 300.88,-299.75"/>
<text text-anchor="middle" x="253.5" y="-286.25" font-family="Helvetica,sans-Serif" font-size="10.00">fl::Pacifica::draw</text>
</a>
</g>
</g>
<!-- Node28&#45;&gt;Node29 -->
<g id="edge27_Node000028_Node000029" class="edge">
<title>Node28&#45;&gt;Node29</title>
<g id="a_edge27_Node000028_Node000029"><a xlink:title=" ">
<path fill="none" stroke="#63b8ff" d="M394.99,-289.38C364.61,-289.38 329.07,-289.38 301.34,-289.38"/>
<polygon fill="#63b8ff" stroke="#63b8ff" points="394.85,-292.88 404.85,-289.38 394.85,-285.88 394.85,-292.88"/>
</a>
</g>
</g>
<!-- Node30 -->
<g id="Node000030" class="node">
<title>Node30</title>
<g id="a_Node000030"><a xlink:href="../../dc/ded/_fx_pacifica_8ino.html#afe461d27b9c48d5921c00d521181f12f" target="_top" xlink:title=" ">
<polygon fill="white" stroke="#666666" points="82,-299.75 45,-299.75 45,-279 82,-279 82,-299.75"/>
<text text-anchor="middle" x="63.5" y="-286.25" font-family="Helvetica,sans-Serif" font-size="10.00">loop</text>
</a>
</g>
</g>
<!-- Node29&#45;&gt;Node30 -->
<g id="edge28_Node000029_Node000030" class="edge">
<title>Node29&#45;&gt;Node30</title>
<g id="a_edge28_Node000029_Node000030"><a xlink:title=" ">
<path fill="none" stroke="#63b8ff" d="M194.9,-289.38C156.24,-289.38 107.88,-289.38 82.29,-289.38"/>
<polygon fill="#63b8ff" stroke="#63b8ff" points="194.51,-292.88 204.51,-289.38 194.51,-285.88 194.51,-292.88"/>
</a>
</g>
</g>
<!-- Node32 -->
<g id="Node000032" class="node">
<title>Node32</title>
<g id="a_Node000032"><a xlink:href="../../dc/d25/_pacifica_8ino.html#a158d427a947ef0a715c7ffd916346acc" target="_top" xlink:title=" ">
<polygon fill="white" stroke="#666666" points="293.38,-254.75 213.62,-254.75 213.62,-234 293.38,-234 293.38,-254.75"/>
<text text-anchor="middle" x="253.5" y="-241.25" font-family="Helvetica,sans-Serif" font-size="10.00">pacifica_loop</text>
</a>
</g>
</g>
<!-- Node31&#45;&gt;Node32 -->
<g id="edge30_Node000031_Node000032" class="edge">
<title>Node31&#45;&gt;Node32</title>
<g id="a_edge30_Node000031_Node000032"><a xlink:title=" ">
<path fill="none" stroke="#63b8ff" d="M395.81,-244.38C362.33,-244.38 322.42,-244.38 293.56,-244.38"/>
<polygon fill="#63b8ff" stroke="#63b8ff" points="395.38,-247.88 405.38,-244.38 395.38,-240.88 395.38,-247.88"/>
</a>
</g>
</g>
<!-- Node33 -->
<g id="Node000033" class="node">
<title>Node33</title>
<g id="a_Node000033"><a xlink:href="../../dc/d25/_pacifica_8ino.html#afe461d27b9c48d5921c00d521181f12f" target="_top" xlink:title=" ">
<polygon fill="white" stroke="#666666" points="82,-254.75 45,-254.75 45,-234 82,-234 82,-254.75"/>
<text text-anchor="middle" x="63.5" y="-241.25" font-family="Helvetica,sans-Serif" font-size="10.00">loop</text>
</a>
</g>
</g>
<!-- Node32&#45;&gt;Node33 -->
<g id="edge31_Node000032_Node000033" class="edge">
<title>Node32&#45;&gt;Node33</title>
<g id="a_edge31_Node000032_Node000033"><a xlink:title=" ">
<path fill="none" stroke="#63b8ff" d="M202.24,-244.38C162.61,-244.38 109.64,-244.38 82.38,-244.38"/>
<polygon fill="#63b8ff" stroke="#63b8ff" points="202.03,-247.88 212.03,-244.38 202.03,-240.88 202.03,-247.88"/>
</a>
</g>
</g>
<!-- Node37 -->
<g id="Node000037" class="node">
<title>Node37</title>
<g id="a_Node000037"><a xlink:href="../../d6/d39/group___palette_classes.html#a93a00dbae141e2cf7355e31cd9922424" target="_top" xlink:title="Create upscaled palette from 16&#45;entry palette.">
<polygon fill="white" stroke="#666666" points="343.25,-215.75 163.75,-215.75 163.75,-195 343.25,-195 343.25,-215.75"/>
<text text-anchor="middle" x="253.5" y="-202.25" font-family="Helvetica,sans-Serif" font-size="10.00">CHSVPalette256::CHSVPalette256</text>
</a>
</g>
</g>
<!-- Node36&#45;&gt;Node37 -->
<g id="edge35_Node000036_Node000037" class="edge">
<title>Node36&#45;&gt;Node37</title>
<g id="a_edge35_Node000036_Node000037"><a xlink:title=" ">
<path fill="none" stroke="#63b8ff" d="M405.17,-136.65C396.42,-139.37 387.71,-142.87 380,-147.38 359.92,-159.12 364.23,-173.89 344,-185.38 337.49,-189.07 330.36,-192.08 323.04,-194.53"/>
<polygon fill="#63b8ff" stroke="#63b8ff" points="406.04,-140.04 414.76,-134.02 404.19,-133.29 406.04,-140.04"/>
</a>
</g>
</g>
<!-- Node38 -->
<g id="Node000038" class="node">
<title>Node38</title>
<g id="a_Node000038"><a xlink:href="../../d6/d39/group___palette_classes.html#a01b7d7154a1c785e367d127940f9d180" target="_top" xlink:title="Create upscaled palette from 16&#45;entry palette.">
<polygon fill="white" stroke="#666666" points="344,-176.75 163,-176.75 163,-156 344,-156 344,-176.75"/>
<text text-anchor="middle" x="253.5" y="-163.25" font-family="Helvetica,sans-Serif" font-size="10.00">CRGBPalette256::CRGBPalette256</text>
</a>
</g>
</g>
<!-- Node36&#45;&gt;Node38 -->
<g id="edge36_Node000036_Node000038" class="edge">
<title>Node36&#45;&gt;Node38</title>
<g id="a_edge36_Node000036_Node000038"><a xlink:title=" ">
<path fill="none" stroke="#63b8ff" d="M404.85,-137.81C375.99,-143.29 340.64,-150.01 311.48,-155.55"/>
<polygon fill="#63b8ff" stroke="#63b8ff" points="405.31,-141.28 414.48,-135.98 404.01,-134.4 405.31,-141.28"/>
</a>
</g>
</g>
<!-- Node39 -->
<g id="Node000039" class="node">
<title>Node39</title>
<g id="a_Node000039"><a xlink:href="../../d6/d39/group___palette_classes.html#a885013cda7e8875b2c9894e0e88b0d7f" target="_top" xlink:title="Create upscaled palette from 16&#45;entry palette.">
<polygon fill="white" stroke="#666666" points="338,-137.75 169,-137.75 169,-117 338,-117 338,-137.75"/>
<text text-anchor="middle" x="253.5" y="-124.25" font-family="Helvetica,sans-Serif" font-size="10.00">CRGBPalette32::CRGBPalette32</text>
</a>
</g>
</g>
<!-- Node36&#45;&gt;Node39 -->
<g id="edge37_Node000036_Node000039" class="edge">
<title>Node36&#45;&gt;Node39</title>
<g id="a_edge37_Node000036_Node000039"><a xlink:title=" ">
<path fill="none" stroke="#63b8ff" d="M404.7,-127.38C384.33,-127.38 360.74,-127.38 338.39,-127.38"/>
<polygon fill="#63b8ff" stroke="#63b8ff" points="404.46,-130.88 414.46,-127.38 404.46,-123.88 404.46,-130.88"/>
</a>
</g>
</g>
<!-- Node40 -->
<g id="Node000040" class="node">
<title>Node40</title>
<g id="a_Node000040"><a xlink:href="../../d6/d39/group___palette_classes.html#ae053719706e3276afabd1d3be6e8386c" target="_top" xlink:title="Create upscaled palette from 16&#45;entry palette.">
<polygon fill="white" stroke="#666666" points="328.62,-98.75 178.38,-98.75 178.38,-78 328.62,-78 328.62,-98.75"/>
<text text-anchor="middle" x="253.5" y="-85.25" font-family="Helvetica,sans-Serif" font-size="10.00">CHSVPalette256::operator=</text>
</a>
</g>
</g>
<!-- Node36&#45;&gt;Node40 -->
<g id="edge38_Node000036_Node000040" class="edge">
<title>Node36&#45;&gt;Node40</title>
<g id="a_edge38_Node000036_Node000040"><a xlink:title=" ">
<path fill="none" stroke="#63b8ff" d="M404.85,-116.94C375.99,-111.46 340.64,-104.74 311.48,-99.2"/>
<polygon fill="#63b8ff" stroke="#63b8ff" points="404.01,-120.35 414.48,-118.77 405.31,-113.47 404.01,-120.35"/>
</a>
</g>
</g>
<!-- Node41 -->
<g id="Node000041" class="node">
<title>Node41</title>
<g id="a_Node000041"><a xlink:href="../../d6/d39/group___palette_classes.html#a7d40d64cf260798c5e6ccc0d267081e8" target="_top" xlink:title="Create upscaled palette from 16&#45;entry palette.">
<polygon fill="white" stroke="#666666" points="329,-59.75 178,-59.75 178,-39 329,-39 329,-59.75"/>
<text text-anchor="middle" x="253.5" y="-46.25" font-family="Helvetica,sans-Serif" font-size="10.00">CRGBPalette256::operator=</text>
</a>
</g>
</g>
<!-- Node36&#45;&gt;Node41 -->
<g id="edge39_Node000036_Node000041" class="edge">
<title>Node36&#45;&gt;Node41</title>
<g id="a_edge39_Node000036_Node000041"><a xlink:title=" ">
<path fill="none" stroke="#63b8ff" d="M405.17,-118.1C396.42,-115.38 387.71,-111.88 380,-107.38 359.92,-95.63 364.23,-80.86 344,-69.38 337.49,-65.68 330.36,-62.67 323.04,-60.22"/>
<polygon fill="#63b8ff" stroke="#63b8ff" points="404.19,-121.46 414.76,-120.73 406.04,-114.71 404.19,-121.46"/>
</a>
</g>
</g>
<!-- Node42 -->
<g id="Node000042" class="node">
<title>Node42</title>
<g id="a_Node000042"><a xlink:href="../../d6/d39/group___palette_classes.html#a7299ef2a59b3784186d9ce67e32d331e" target="_top" xlink:title="Create upscaled palette from 16&#45;entry palette.">
<polygon fill="white" stroke="#666666" points="326,-20.75 181,-20.75 181,0 326,0 326,-20.75"/>
<text text-anchor="middle" x="253.5" y="-7.25" font-family="Helvetica,sans-Serif" font-size="10.00">CRGBPalette32::operator=</text>
</a>
</g>
</g>
<!-- Node36&#45;&gt;Node42 -->
<g id="edge40_Node000036_Node000042" class="edge">
<title>Node36&#45;&gt;Node42</title>
<g id="a_edge40_Node000036_Node000042"><a xlink:title=" ">
<path fill="none" stroke="#63b8ff" d="M404.94,-120.5C395.93,-117.53 387.2,-113.31 380,-107.38 350.85,-83.34 373.45,-54.03 344,-30.38 338.66,-26.09 332.59,-22.68 326.19,-19.97"/>
<polygon fill="#63b8ff" stroke="#63b8ff" points="403.94,-123.86 414.51,-123.15 405.81,-117.11 403.94,-123.86"/>
</a>
</g>
</g>
</g>
</svg>
