<?xml version="1.0" encoding="UTF-8" standalone="no"?>
<!DOCTYPE svg PUBLIC "-//W3C//DTD SVG 1.1//EN"
 "http://www.w3.org/Graphics/SVG/1.1/DTD/svg11.dtd">
<!-- Generated by graphviz version 12.2.1 (20241206.2353)
 -->
<!-- Title: /home/runner/work/FastLED/FastLED/src/fx/video/pixel_stream.h Pages: 1 -->
<svg width="483pt" height="301pt"
 viewBox="0.00 0.00 483.40 301.00" xmlns="http://www.w3.org/2000/svg" xmlns:xlink="http://www.w3.org/1999/xlink">
<g id="graph0" class="graph" transform="scale(1 1) rotate(0) translate(4 297)">
<title>/home/runner/work/FastLED/FastLED/src/fx/video/pixel_stream.h</title>
<!-- Node1 -->
<g id="Node000001" class="node">
<title>Node1</title>
<g id="a_Node000001"><a xlink:title=" ">
<polygon fill="#999999" stroke="#666666" points="269.4,-293 119.9,-293 119.9,-246.75 269.4,-246.75 269.4,-293"/>
<text text-anchor="start" x="127.9" y="-279.5" font-family="Helvetica,sans-Serif" font-size="10.00">/home/runner/work/FastLED</text>
<text text-anchor="start" x="127.9" y="-266.75" font-family="Helvetica,sans-Serif" font-size="10.00">/FastLED/src/fx/video/pixel</text>
<text text-anchor="middle" x="194.65" y="-254" font-family="Helvetica,sans-Serif" font-size="10.00">_stream.h</text>
</a>
</g>
</g>
<!-- Node2 -->
<g id="Node000002" class="node">
<title>Node2</title>
<g id="a_Node000002"><a xlink:href="../../d0/d05/video_8cpp.html" target="_top" xlink:title=" ">
<polygon fill="white" stroke="#666666" points="245.4,-39.88 95.9,-39.88 95.9,-6.38 245.4,-6.38 245.4,-39.88"/>
<text text-anchor="start" x="103.9" y="-26.38" font-family="Helvetica,sans-Serif" font-size="10.00">/home/runner/work/FastLED</text>
<text text-anchor="middle" x="170.65" y="-13.62" font-family="Helvetica,sans-Serif" font-size="10.00">/FastLED/src/fx/video.cpp</text>
</a>
</g>
</g>
<!-- Node1&#45;&gt;Node2 -->
<g id="edge1_Node000001_Node000002" class="edge">
<title>Node1&#45;&gt;Node2</title>
<g id="a_edge1_Node000001_Node000002"><a xlink:title=" ">
<path fill="none" stroke="#63b8ff" d="M128.7,-241.33C84.18,-218.56 29.68,-181.34 7.65,-128.5 -0.26,-109.53 -4.19,-99.05 7.65,-82.25 27.74,-53.77 63.09,-39.16 95.75,-31.71"/>
<polygon fill="#63b8ff" stroke="#63b8ff" points="127.03,-244.41 137.54,-245.72 130.14,-238.14 127.03,-244.41"/>
</a>
</g>
</g>
<!-- Node3 -->
<g id="Node000003" class="node">
<title>Node3</title>
<g id="a_Node000003"><a xlink:href="../../d5/da4/frame__interpolator_8cpp.html" target="_top" xlink:title=" ">
<polygon fill="white" stroke="#666666" points="166.4,-128.5 16.9,-128.5 16.9,-82.25 166.4,-82.25 166.4,-128.5"/>
<text text-anchor="start" x="24.9" y="-115" font-family="Helvetica,sans-Serif" font-size="10.00">/home/runner/work/FastLED</text>
<text text-anchor="start" x="24.9" y="-102.25" font-family="Helvetica,sans-Serif" font-size="10.00">/FastLED/src/fx/video/frame</text>
<text text-anchor="middle" x="91.65" y="-89.5" font-family="Helvetica,sans-Serif" font-size="10.00">_interpolator.cpp</text>
</a>
</g>
</g>
<!-- Node1&#45;&gt;Node3 -->
<g id="edge2_Node000001_Node000003" class="edge">
<title>Node1&#45;&gt;Node3</title>
<g id="a_edge2_Node000001_Node000003"><a xlink:title=" ">
<path fill="none" stroke="#63b8ff" d="M139.55,-240.06C128.48,-231.95 118.01,-222.16 110.65,-210.75 94.68,-185.98 91.25,-151.4 90.93,-128.95"/>
<polygon fill="#63b8ff" stroke="#63b8ff" points="137.44,-242.86 147.67,-245.62 141.4,-237.08 137.44,-242.86"/>
</a>
</g>
</g>
<!-- Node4 -->
<g id="Node000004" class="node">
<title>Node4</title>
<g id="a_Node000004"><a xlink:href="../../d3/dda/frame__interpolator_8h.html" target="_top" xlink:title=" ">
<polygon fill="white" stroke="#666666" points="269.4,-210.75 119.9,-210.75 119.9,-164.5 269.4,-164.5 269.4,-210.75"/>
<text text-anchor="start" x="127.9" y="-197.25" font-family="Helvetica,sans-Serif" font-size="10.00">/home/runner/work/FastLED</text>
<text text-anchor="start" x="127.9" y="-184.5" font-family="Helvetica,sans-Serif" font-size="10.00">/FastLED/src/fx/video/frame</text>
<text text-anchor="middle" x="194.65" y="-171.75" font-family="Helvetica,sans-Serif" font-size="10.00">_interpolator.h</text>
</a>
</g>
</g>
<!-- Node1&#45;&gt;Node4 -->
<g id="edge3_Node000001_Node000004" class="edge">
<title>Node1&#45;&gt;Node4</title>
<g id="a_edge3_Node000001_Node000004"><a xlink:title=" ">
<path fill="none" stroke="#63b8ff" d="M194.65,-235.09C194.65,-227 194.65,-218.57 194.65,-211.14"/>
<polygon fill="#63b8ff" stroke="#63b8ff" points="191.15,-235.01 194.65,-245.01 198.15,-235.01 191.15,-235.01"/>
</a>
</g>
</g>
<!-- Node5 -->
<g id="Node000005" class="node">
<title>Node5</title>
<g id="a_Node000005"><a xlink:href="../../d5/d82/video__impl_8h.html" target="_top" xlink:title=" ">
<polygon fill="white" stroke="#666666" points="406.28,-122.12 223.03,-122.12 223.03,-88.62 406.28,-88.62 406.28,-122.12"/>
<text text-anchor="start" x="231.03" y="-108.62" font-family="Helvetica,sans-Serif" font-size="10.00">/home/runner/work/FastLED</text>
<text text-anchor="middle" x="314.65" y="-95.88" font-family="Helvetica,sans-Serif" font-size="10.00">/FastLED/src/fx/video/video_impl.h</text>
</a>
</g>
</g>
<!-- Node1&#45;&gt;Node5 -->
<g id="edge10_Node000001_Node000005" class="edge">
<title>Node1&#45;&gt;Node5</title>
<g id="a_edge10_Node000001_Node000005"><a xlink:title=" ">
<path fill="none" stroke="#63b8ff" d="M247.15,-240.17C258.75,-231.89 270.11,-222.01 278.65,-210.75 299.15,-183.72 308.52,-144.17 312.34,-122.34"/>
<polygon fill="#63b8ff" stroke="#63b8ff" points="245.43,-237.11 239.1,-245.6 249.34,-242.91 245.43,-237.11"/>
</a>
</g>
</g>
<!-- Node7 -->
<g id="Node000007" class="node">
<title>Node7</title>
<g id="a_Node000007"><a xlink:href="../../da/d7a/pixel__stream_8cpp.html" target="_top" xlink:title=" ">
<polygon fill="white" stroke="#666666" points="475.4,-210.75 325.9,-210.75 325.9,-164.5 475.4,-164.5 475.4,-210.75"/>
<text text-anchor="start" x="333.9" y="-197.25" font-family="Helvetica,sans-Serif" font-size="10.00">/home/runner/work/FastLED</text>
<text text-anchor="start" x="333.9" y="-184.5" font-family="Helvetica,sans-Serif" font-size="10.00">/FastLED/src/fx/video/pixel</text>
<text text-anchor="middle" x="400.65" y="-171.75" font-family="Helvetica,sans-Serif" font-size="10.00">_stream.cpp</text>
</a>
</g>
</g>
<!-- Node1&#45;&gt;Node7 -->
<g id="edge9_Node000001_Node000007" class="edge">
<title>Node1&#45;&gt;Node7</title>
<g id="a_edge9_Node000001_Node000007"><a xlink:title=" ">
<path fill="none" stroke="#63b8ff" d="M263.06,-242.23C288.9,-232.16 318.02,-220.82 342.8,-211.16"/>
<polygon fill="#63b8ff" stroke="#63b8ff" points="262.04,-238.87 253.99,-245.76 264.58,-245.39 262.04,-238.87"/>
</a>
</g>
</g>
<!-- Node4&#45;&gt;Node2 -->
<g id="edge4_Node000004_Node000002" class="edge">
<title>Node4&#45;&gt;Node2</title>
<g id="a_edge4_Node000004_Node000002"><a xlink:title=" ">
<path fill="none" stroke="#63b8ff" d="M189.7,-153.07C184.6,-118.56 176.88,-66.28 173.02,-40.16"/>
<polygon fill="#63b8ff" stroke="#63b8ff" points="186.17,-153.15 191.1,-162.53 193.1,-152.13 186.17,-153.15"/>
</a>
</g>
</g>
<!-- Node4&#45;&gt;Node3 -->
<g id="edge5_Node000004_Node000003" class="edge">
<title>Node4&#45;&gt;Node3</title>
<g id="a_edge5_Node000004_Node000003"><a xlink:title=" ">
<path fill="none" stroke="#63b8ff" d="M156.76,-157.1C144.74,-147.74 131.66,-137.55 120.4,-128.77"/>
<polygon fill="#63b8ff" stroke="#63b8ff" points="154.46,-159.74 164.49,-163.13 158.76,-154.22 154.46,-159.74"/>
</a>
</g>
</g>
<!-- Node4&#45;&gt;Node5 -->
<g id="edge6_Node000004_Node000005" class="edge">
<title>Node4&#45;&gt;Node5</title>
<g id="a_edge6_Node000004_Node000005"><a xlink:title=" ">
<path fill="none" stroke="#63b8ff" d="M237.51,-157.97C255.38,-146.02 275.47,-132.58 290.66,-122.42"/>
<polygon fill="#63b8ff" stroke="#63b8ff" points="236.02,-154.75 229.66,-163.22 239.92,-160.57 236.02,-154.75"/>
</a>
</g>
</g>
<!-- Node5&#45;&gt;Node2 -->
<g id="edge7_Node000005_Node000002" class="edge">
<title>Node5&#45;&gt;Node2</title>
<g id="a_edge7_Node000005_Node000002"><a xlink:title=" ">
<path fill="none" stroke="#63b8ff" d="M275.68,-82.65C251.75,-69.32 221.6,-52.52 199.75,-40.34"/>
<polygon fill="#63b8ff" stroke="#63b8ff" points="273.75,-85.59 284.19,-87.4 277.16,-79.47 273.75,-85.59"/>
</a>
</g>
</g>
<!-- Node6 -->
<g id="Node000006" class="node">
<title>Node6</title>
<g id="a_Node000006"><a xlink:href="../../d0/d7f/video__impl_8cpp.html" target="_top" xlink:title=" ">
<polygon fill="white" stroke="#666666" points="413.4,-46.25 263.9,-46.25 263.9,0 413.4,0 413.4,-46.25"/>
<text text-anchor="start" x="271.9" y="-32.75" font-family="Helvetica,sans-Serif" font-size="10.00">/home/runner/work/FastLED</text>
<text text-anchor="start" x="271.9" y="-20" font-family="Helvetica,sans-Serif" font-size="10.00">/FastLED/src/fx/video/video</text>
<text text-anchor="middle" x="338.65" y="-7.25" font-family="Helvetica,sans-Serif" font-size="10.00">_impl.cpp</text>
</a>
</g>
</g>
<!-- Node5&#45;&gt;Node6 -->
<g id="edge8_Node000005_Node000006" class="edge">
<title>Node5&#45;&gt;Node6</title>
<g id="a_edge8_Node000005_Node000006"><a xlink:title=" ">
<path fill="none" stroke="#63b8ff" d="M322.78,-77.21C325.74,-67.3 329.06,-56.2 331.89,-46.73"/>
<polygon fill="#63b8ff" stroke="#63b8ff" points="319.46,-76.1 319.94,-86.69 326.16,-78.11 319.46,-76.1"/>
</a>
</g>
</g>
</g>
</svg>
