<?xml version="1.0" encoding="UTF-8" standalone="no"?>
<!DOCTYPE svg PUBLIC "-//W3C//DTD SVG 1.1//EN"
 "http://www.w3.org/Graphics/SVG/1.1/DTD/svg11.dtd">
<!-- Generated by graphviz version 12.2.1 (20241206.2353)
 -->
<!-- Title: fl::ScaleUp::noExpand Pages: 1 -->
<svg width="433pt" height="87pt"
 viewBox="0.00 0.00 432.50 86.75" xmlns="http://www.w3.org/2000/svg" xmlns:xlink="http://www.w3.org/1999/xlink">
<g id="graph0" class="graph" transform="scale(1 1) rotate(0) translate(4 82.75)">
<title>fl::ScaleUp::noExpand</title>
<!-- Node1 -->
<g id="Node000001" class="node">
<title>Node1</title>
<g id="a_Node000001"><a xlink:title=" ">
<polygon fill="#999999" stroke="#666666" points="121.75,-58.75 0,-58.75 0,-38 121.75,-38 121.75,-58.75"/>
<text text-anchor="middle" x="60.88" y="-45.25" font-family="Helvetica,sans-Serif" font-size="10.00">fl::ScaleUp::noExpand</text>
</a>
</g>
</g>
<!-- Node2 -->
<g id="Node000002" class="node">
<title>Node2</title>
<g id="a_Node000002"><a xlink:href="../../d0/dce/classfl_1_1_x_y_map.html#af55d7352857170df1d30ac1dc1991e68" target="_top" xlink:title=" ">
<polygon fill="white" stroke="#666666" points="274.62,-78.75 167.88,-78.75 167.88,-58 274.62,-58 274.62,-78.75"/>
<text text-anchor="middle" x="221.25" y="-65.25" font-family="Helvetica,sans-Serif" font-size="10.00">fl::XYMap::getTotal</text>
</a>
</g>
</g>
<!-- Node1&#45;&gt;Node2 -->
<g id="edge1_Node000001_Node000002" class="edge">
<title>Node1&#45;&gt;Node2</title>
<g id="a_edge1_Node000001_Node000002"><a xlink:title=" ">
<path fill="none" stroke="#63b8ff" d="M122.2,-55.99C133.41,-57.41 145.16,-58.89 156.47,-60.32"/>
<polygon fill="#63b8ff" stroke="#63b8ff" points="155.74,-63.76 166.1,-61.54 156.61,-56.81 155.74,-63.76"/>
</a>
</g>
</g>
<!-- Node3 -->
<g id="Node000003" class="node">
<title>Node3</title>
<g id="a_Node000003"><a xlink:href="../../d0/dce/classfl_1_1_x_y_map.html#aaeab9d4f2c66f6e681415479493578c2" target="_top" xlink:title=" ">
<polygon fill="white" stroke="#666666" points="284.75,-39.75 157.75,-39.75 157.75,-19 284.75,-19 284.75,-39.75"/>
<text text-anchor="middle" x="221.25" y="-26.25" font-family="Helvetica,sans-Serif" font-size="10.00">fl::XYMap::mapToIndex</text>
</a>
</g>
</g>
<!-- Node1&#45;&gt;Node3 -->
<g id="edge2_Node000001_Node000003" class="edge">
<title>Node1&#45;&gt;Node3</title>
<g id="a_edge2_Node000001_Node000003"><a xlink:title=" ">
<path fill="none" stroke="#63b8ff" d="M122.2,-41.14C130.04,-40.2 138.15,-39.22 146.18,-38.26"/>
<polygon fill="#63b8ff" stroke="#63b8ff" points="146.45,-41.75 155.96,-37.09 145.61,-34.8 146.45,-41.75"/>
</a>
</g>
</g>
<!-- Node4 -->
<g id="Node000004" class="node">
<title>Node4</title>
<g id="a_Node000004"><a xlink:href="../../d4/d36/namespacefl.html#aabd143143924c6bddbe62e4b21688e76" target="_top" xlink:title=" ">
<polygon fill="white" stroke="#666666" points="424.5,-59.75 320.75,-59.75 320.75,-39 424.5,-39 424.5,-59.75"/>
<text text-anchor="middle" x="372.62" y="-46.25" font-family="Helvetica,sans-Serif" font-size="10.00">fl::xy_line_by_line</text>
</a>
</g>
</g>
<!-- Node3&#45;&gt;Node4 -->
<g id="edge3_Node000003_Node000004" class="edge">
<title>Node3&#45;&gt;Node4</title>
<g id="a_edge3_Node000003_Node000004"><a xlink:title=" ">
<path fill="none" stroke="#63b8ff" d="M285.17,-37.8C293.19,-38.87 301.39,-39.97 309.4,-41.04"/>
<polygon fill="#63b8ff" stroke="#63b8ff" points="308.68,-44.48 319.05,-42.34 309.61,-37.54 308.68,-44.48"/>
</a>
</g>
</g>
<!-- Node5 -->
<g id="Node000005" class="node">
<title>Node5</title>
<g id="a_Node000005"><a xlink:href="../../d4/d36/namespacefl.html#a44d29156c0decceaf2ff1970ddbdde7c" target="_top" xlink:title=" ">
<polygon fill="white" stroke="#666666" points="421.12,-20.75 324.12,-20.75 324.12,0 421.12,0 421.12,-20.75"/>
<text text-anchor="middle" x="372.62" y="-7.25" font-family="Helvetica,sans-Serif" font-size="10.00">fl::xy_serpentine</text>
</a>
</g>
</g>
<!-- Node3&#45;&gt;Node5 -->
<g id="edge4_Node000003_Node000005" class="edge">
<title>Node3&#45;&gt;Node5</title>
<g id="a_edge4_Node000003_Node000005"><a xlink:title=" ">
<path fill="none" stroke="#63b8ff" d="M285.17,-21.37C294.25,-20.22 303.57,-19.03 312.57,-17.89"/>
<polygon fill="#63b8ff" stroke="#63b8ff" points="312.78,-21.39 322.26,-16.65 311.9,-14.44 312.78,-21.39"/>
</a>
</g>
</g>
</g>
</svg>
