<?xml version="1.0" encoding="UTF-8" standalone="no"?>
<!DOCTYPE svg PUBLIC "-//W3C//DTD SVG 1.1//EN"
 "http://www.w3.org/Graphics/SVG/1.1/DTD/svg11.dtd">
<!-- Generated by graphviz version 12.2.1 (20241206.2353)
 -->
<!-- Title: fl::ScaleUp::draw Pages: 1 -->
<svg width="770pt" height="363pt"
 viewBox="0.00 0.00 769.75 362.75" xmlns="http://www.w3.org/2000/svg" xmlns:xlink="http://www.w3.org/1999/xlink">
<g id="graph0" class="graph" transform="scale(1 1) rotate(0) translate(4 358.75)">
<title>fl::ScaleUp::draw</title>
<!-- Node1 -->
<g id="Node000001" class="node">
<title>Node1</title>
<g id="a_Node000001"><a xlink:title=" ">
<polygon fill="#999999" stroke="#666666" points="97.75,-135.75 0,-135.75 0,-115 97.75,-115 97.75,-135.75"/>
<text text-anchor="middle" x="48.88" y="-122.25" font-family="Helvetica,sans-Serif" font-size="10.00">fl::ScaleUp::draw</text>
</a>
</g>
</g>
<!-- Node2 -->
<g id="Node000002" class="node">
<title>Node2</title>
<g id="a_Node000002"><a xlink:href="../../d5/d79/classfl_1_1_scale_up.html#a04b53ac5f5bbe9d2477fc08e8ab77066" target="_top" xlink:title=" ">
<polygon fill="white" stroke="#666666" points="250.25,-173.75 140.5,-173.75 140.5,-153 250.25,-153 250.25,-173.75"/>
<text text-anchor="middle" x="195.38" y="-160.25" font-family="Helvetica,sans-Serif" font-size="10.00">fl::ScaleUp::expand</text>
</a>
</g>
</g>
<!-- Node1&#45;&gt;Node2 -->
<g id="edge1_Node000001_Node000002" class="edge">
<title>Node1&#45;&gt;Node2</title>
<g id="a_edge1_Node000001_Node000002"><a xlink:title=" ">
<path fill="none" stroke="#63b8ff" d="M90.9,-136.16C106.91,-140.37 125.46,-145.25 142.4,-149.71"/>
<polygon fill="#63b8ff" stroke="#63b8ff" points="141.23,-153.02 151.79,-152.18 143.01,-146.25 141.23,-153.02"/>
</a>
</g>
</g>
<!-- Node16 -->
<g id="Node000016" class="node">
<title>Node16</title>
<g id="a_Node000016"><a xlink:href="../../d3/d92/classfl_1_1scoped__array.html#ac726846a84175cb31ff545082729900c" target="_top" xlink:title=" ">
<polygon fill="white" stroke="#666666" points="252.5,-59.75 138.25,-59.75 138.25,-39 252.5,-39 252.5,-59.75"/>
<text text-anchor="middle" x="195.38" y="-46.25" font-family="Helvetica,sans-Serif" font-size="10.00">fl::scoped_array::get</text>
</a>
</g>
</g>
<!-- Node1&#45;&gt;Node16 -->
<g id="edge23_Node000001_Node000016" class="edge">
<title>Node1&#45;&gt;Node16</title>
<g id="a_edge23_Node000001_Node000016"><a xlink:title=" ">
<path fill="none" stroke="#63b8ff" d="M65.47,-114.53C81.95,-103.36 108.95,-85.85 133.75,-73.38 140.05,-70.2 146.88,-67.15 153.61,-64.35"/>
<polygon fill="#63b8ff" stroke="#63b8ff" points="154.62,-67.72 162.6,-60.74 152.01,-61.22 154.62,-67.72"/>
</a>
</g>
</g>
<!-- Node17 -->
<g id="Node000017" class="node">
<title>Node17</title>
<g id="a_Node000017"><a xlink:href="../../d7/d3e/classfl_1_1_fx2d.html#a97e2460468edf63b256d7c50ba03f8d0" target="_top" xlink:title=" ">
<polygon fill="white" stroke="#666666" points="399,-354.75 293,-354.75 293,-334 399,-334 399,-354.75"/>
<text text-anchor="middle" x="346" y="-341.25" font-family="Helvetica,sans-Serif" font-size="10.00">fl::Fx2d::getHeight</text>
</a>
</g>
</g>
<!-- Node1&#45;&gt;Node17 -->
<g id="edge24_Node000001_Node000017" class="edge">
<title>Node1&#45;&gt;Node17</title>
<g id="a_edge24_Node000001_Node000017"><a xlink:title=" ">
<path fill="none" stroke="#63b8ff" d="M56.37,-135.96C69.16,-156.15 99.37,-200.7 133.75,-229.38 187.96,-274.6 262.7,-310.25 307.21,-329.24"/>
<polygon fill="#63b8ff" stroke="#63b8ff" points="305.61,-332.36 316.18,-333.01 308.32,-325.91 305.61,-332.36"/>
</a>
</g>
</g>
<!-- Node18 -->
<g id="Node000018" class="node">
<title>Node18</title>
<g id="a_Node000018"><a xlink:href="../../d7/d3e/classfl_1_1_fx2d.html#ad43b84d2abcda8905bdcd35f9a8c46ff" target="_top" xlink:title=" ">
<polygon fill="white" stroke="#666666" points="397.12,-306.75 294.88,-306.75 294.88,-286 397.12,-286 397.12,-306.75"/>
<text text-anchor="middle" x="346" y="-293.25" font-family="Helvetica,sans-Serif" font-size="10.00">fl::Fx2d::getWidth</text>
</a>
</g>
</g>
<!-- Node1&#45;&gt;Node18 -->
<g id="edge26_Node000001_Node000018" class="edge">
<title>Node1&#45;&gt;Node18</title>
<g id="a_edge26_Node000001_Node000018"><a xlink:title=" ">
<path fill="none" stroke="#63b8ff" d="M64.72,-136.14C81.26,-147.97 108.92,-167.29 133.75,-182.38 195.84,-220.09 271.33,-259.3 313.17,-280.49"/>
<polygon fill="#63b8ff" stroke="#63b8ff" points="311.45,-283.54 321.95,-284.91 314.6,-277.29 311.45,-283.54"/>
</a>
</g>
</g>
<!-- Node19 -->
<g id="Node000019" class="node">
<title>Node19</title>
<g id="a_Node000019"><a xlink:href="../../d5/d79/classfl_1_1_scale_up.html#af8b7a08f8ad3dc7de23f3f4108ce2d5d" target="_top" xlink:title=" ">
<polygon fill="white" stroke="#666666" points="569.88,-95.75 448.12,-95.75 448.12,-75 569.88,-75 569.88,-95.75"/>
<text text-anchor="middle" x="509" y="-82.25" font-family="Helvetica,sans-Serif" font-size="10.00">fl::ScaleUp::noExpand</text>
</a>
</g>
</g>
<!-- Node1&#45;&gt;Node19 -->
<g id="edge28_Node000001_Node000019" class="edge">
<title>Node1&#45;&gt;Node19</title>
<g id="a_edge28_Node000001_Node000019"><a xlink:title=" ">
<path fill="none" stroke="#63b8ff" d="M98.04,-121.17C178.86,-114.11 342.19,-99.85 436.47,-91.62"/>
<polygon fill="#63b8ff" stroke="#63b8ff" points="436.73,-95.11 446.38,-90.75 436.12,-88.14 436.73,-95.11"/>
</a>
</g>
</g>
<!-- Node20 -->
<g id="Node000020" class="node">
<title>Node20</title>
<g id="a_Node000020"><a xlink:href="../../d3/d92/classfl_1_1scoped__array.html#a180c38277d717e2554aba0d1e594cd3a" target="_top" xlink:title=" ">
<polygon fill="white" stroke="#666666" points="257,-20.75 133.75,-20.75 133.75,0 257,0 257,-20.75"/>
<text text-anchor="middle" x="195.38" y="-7.25" font-family="Helvetica,sans-Serif" font-size="10.00">fl::scoped_array::reset</text>
</a>
</g>
</g>
<!-- Node1&#45;&gt;Node20 -->
<g id="edge31_Node000001_Node000020" class="edge">
<title>Node1&#45;&gt;Node20</title>
<g id="a_edge31_Node000001_Node000020"><a xlink:title=" ">
<path fill="none" stroke="#63b8ff" d="M56.57,-114.59C69.25,-95.01 98.67,-53.51 133.75,-30.38 136.27,-28.72 138.93,-27.18 141.68,-25.77"/>
<polygon fill="#63b8ff" stroke="#63b8ff" points="142.88,-29.07 150.56,-21.78 140.01,-22.69 142.88,-29.07"/>
</a>
</g>
</g>
<!-- Node3 -->
<g id="Node000003" class="node">
<title>Node3</title>
<g id="a_Node000003"><a xlink:href="../../d4/d36/namespacefl.html#a521b1a75c2204adfdd48e82bec341de6" target="_top" xlink:title=" ">
<polygon fill="white" stroke="#666666" points="396.38,-249.75 295.62,-249.75 295.62,-229 396.38,-229 396.38,-249.75"/>
<text text-anchor="middle" x="346" y="-236.25" font-family="Helvetica,sans-Serif" font-size="10.00">fl::bilinearExpand</text>
</a>
</g>
</g>
<!-- Node2&#45;&gt;Node3 -->
<g id="edge2_Node000002_Node000003" class="edge">
<title>Node2&#45;&gt;Node3</title>
<g id="a_edge2_Node000002_Node000003"><a xlink:title=" ">
<path fill="none" stroke="#63b8ff" d="M215.44,-174.08C234.8,-184.85 265.73,-201.76 293,-215.38 298.62,-218.18 304.62,-221.06 310.49,-223.81"/>
<polygon fill="#63b8ff" stroke="#63b8ff" points="308.86,-226.91 319.4,-227.93 311.8,-220.56 308.86,-226.91"/>
</a>
</g>
</g>
<!-- Node4 -->
<g id="Node000004" class="node">
<title>Node4</title>
<g id="a_Node000004"><a xlink:href="../../d4/d36/namespacefl.html#aed039daa2110de9add4bdbeea4052a57" target="_top" xlink:title="Performs bilinear interpolation for upscaling an image.">
<polygon fill="#fff0f0" stroke="red" points="580.75,-212.75 437.25,-212.75 437.25,-192 580.75,-192 580.75,-212.75"/>
<text text-anchor="middle" x="509" y="-199.25" font-family="Helvetica,sans-Serif" font-size="10.00">fl::bilinearExpandArbitrary</text>
</a>
</g>
</g>
<!-- Node2&#45;&gt;Node4 -->
<g id="edge15_Node000002_Node000004" class="edge">
<title>Node2&#45;&gt;Node4</title>
<g id="a_edge15_Node000002_Node000004"><a xlink:title=" ">
<path fill="none" stroke="#63b8ff" d="M250.51,-171.49C264.35,-173.49 279.22,-175.58 293,-177.38 336.67,-183.08 385.42,-188.8 425.45,-193.33"/>
<polygon fill="#63b8ff" stroke="#63b8ff" points="424.93,-196.79 435.26,-194.43 425.71,-189.83 424.93,-196.79"/>
</a>
</g>
</g>
<!-- Node12 -->
<g id="Node000012" class="node">
<title>Node12</title>
<g id="a_Node000012"><a xlink:href="../../d4/d36/namespacefl.html#af0b8ea13c33c033aa6bf8ede489a5c2a" target="_top" xlink:title="Performs bilinear interpolation for upscaling an image.">
<polygon fill="#fff0f0" stroke="red" points="583,-173.75 435,-173.75 435,-153 583,-153 583,-173.75"/>
<text text-anchor="middle" x="509" y="-160.25" font-family="Helvetica,sans-Serif" font-size="10.00">fl::bilinearExpandPowerOf2</text>
</a>
</g>
</g>
<!-- Node2&#45;&gt;Node12 -->
<g id="edge22_Node000002_Node000012" class="edge">
<title>Node2&#45;&gt;Node12</title>
<g id="a_edge22_Node000002_Node000012"><a xlink:title=" ">
<path fill="none" stroke="#63b8ff" d="M250.66,-163.38C298.27,-163.38 368.3,-163.38 423.29,-163.38"/>
<polygon fill="#63b8ff" stroke="#63b8ff" points="423.27,-166.88 433.27,-163.38 423.27,-159.88 423.27,-166.88"/>
</a>
</g>
</g>
<!-- Node14 -->
<g id="Node000014" class="node">
<title>Node14</title>
<g id="a_Node000014"><a xlink:href="../../d4/d36/namespacefl.html#aa1458a6ef9b83a5c2550d8c3a87bc973" target="_top" xlink:title=" ">
<polygon fill="white" stroke="#666666" points="571.75,-134.75 446.25,-134.75 446.25,-114 571.75,-114 571.75,-134.75"/>
<text text-anchor="middle" x="509" y="-121.25" font-family="Helvetica,sans-Serif" font-size="10.00">fl::bilinearExpandFloat</text>
</a>
</g>
</g>
<!-- Node2&#45;&gt;Node14 -->
<g id="edge16_Node000002_Node000014" class="edge">
<title>Node2&#45;&gt;Node14</title>
<g id="a_edge16_Node000002_Node000014"><a xlink:title=" ">
<path fill="none" stroke="#63b8ff" d="M250.66,-156.58C301.56,-150.21 378.06,-140.64 434.43,-133.58"/>
<polygon fill="#63b8ff" stroke="#63b8ff" points="434.79,-137.06 444.28,-132.35 433.92,-130.12 434.79,-137.06"/>
</a>
</g>
</g>
<!-- Node3&#45;&gt;Node4 -->
<g id="edge3_Node000003_Node000004" class="edge">
<title>Node3&#45;&gt;Node4</title>
<g id="a_edge3_Node000003_Node000004"><a xlink:title=" ">
<path fill="none" stroke="#63b8ff" d="M394,-228.57C411.45,-224.56 431.45,-219.97 449.78,-215.75"/>
<polygon fill="#63b8ff" stroke="#63b8ff" points="450.5,-219.18 459.47,-213.53 448.94,-212.36 450.5,-219.18"/>
</a>
</g>
</g>
<!-- Node6 -->
<g id="Node000006" class="node">
<title>Node6</title>
<g id="a_Node000006"><a xlink:href="../../d0/dce/classfl_1_1_x_y_map.html#abcc25dd0cecf6ebc8a7a97ddaf96e798" target="_top" xlink:title=" ">
<polygon fill="white" stroke="#666666" points="748.25,-251.75 632.5,-251.75 632.5,-231 748.25,-231 748.25,-251.75"/>
<text text-anchor="middle" x="690.38" y="-238.25" font-family="Helvetica,sans-Serif" font-size="10.00">fl::XYMap::getHeight</text>
</a>
</g>
</g>
<!-- Node3&#45;&gt;Node6 -->
<g id="edge13_Node000003_Node000006" class="edge">
<title>Node3&#45;&gt;Node6</title>
<g id="a_edge13_Node000003_Node000006"><a xlink:title=" ">
<path fill="none" stroke="#63b8ff" d="M396.61,-249.34C409.09,-251.43 422.49,-253.32 435,-254.38 500.54,-259.92 517.34,-258.37 583,-254.38 595.23,-253.63 608.2,-252.41 620.73,-251.01"/>
<polygon fill="#63b8ff" stroke="#63b8ff" points="621.05,-254.49 630.57,-249.85 620.23,-247.54 621.05,-254.49"/>
</a>
</g>
</g>
<!-- Node8 -->
<g id="Node000008" class="node">
<title>Node8</title>
<g id="a_Node000008"><a xlink:href="../../d0/dce/classfl_1_1_x_y_map.html#a3a8ae645192828b625d3beb40672e9b8" target="_top" xlink:title=" ">
<polygon fill="white" stroke="#666666" points="746.38,-212.75 634.38,-212.75 634.38,-192 746.38,-192 746.38,-212.75"/>
<text text-anchor="middle" x="690.38" y="-199.25" font-family="Helvetica,sans-Serif" font-size="10.00">fl::XYMap::getWidth</text>
</a>
</g>
</g>
<!-- Node3&#45;&gt;Node8 -->
<g id="edge14_Node000003_Node000008" class="edge">
<title>Node3&#45;&gt;Node8</title>
<g id="a_edge14_Node000003_Node000008"><a xlink:title=" ">
<path fill="none" stroke="#63b8ff" d="M396.87,-237.03C444.74,-234.44 519,-229.51 583,-221.38 596.16,-219.7 610.16,-217.5 623.54,-215.2"/>
<polygon fill="#63b8ff" stroke="#63b8ff" points="623.87,-218.69 633.11,-213.51 622.65,-211.8 623.87,-218.69"/>
</a>
</g>
</g>
<!-- Node3&#45;&gt;Node12 -->
<g id="edge8_Node000003_Node000012" class="edge">
<title>Node3&#45;&gt;Node12</title>
<g id="a_edge8_Node000003_Node000012"><a xlink:title=" ">
<path fill="none" stroke="#63b8ff" d="M360.89,-228.66C377.63,-216.21 407.02,-195.77 435,-183.38 439.78,-181.26 444.84,-179.32 449.97,-177.54"/>
<polygon fill="#63b8ff" stroke="#63b8ff" points="450.65,-181 459.1,-174.61 448.51,-174.34 450.65,-181"/>
</a>
</g>
</g>
<!-- Node4&#45;&gt;Node6 -->
<g id="edge4_Node000004_Node000006" class="edge">
<title>Node4&#45;&gt;Node6</title>
<g id="a_edge4_Node000004_Node000006"><a xlink:title=" ">
<path fill="none" stroke="#63b8ff" d="M559.97,-213.24C581.16,-217.85 606.06,-223.26 628.33,-228.1"/>
<polygon fill="#63b8ff" stroke="#63b8ff" points="627.37,-231.48 637.89,-230.18 628.86,-224.64 627.37,-231.48"/>
</a>
</g>
</g>
<!-- Node7 -->
<g id="Node000007" class="node">
<title>Node7</title>
<g id="a_Node000007"><a xlink:href="../../d0/dce/classfl_1_1_x_y_map.html#af55d7352857170df1d30ac1dc1991e68" target="_top" xlink:title=" ">
<polygon fill="white" stroke="#666666" points="743.75,-173.75 637,-173.75 637,-153 743.75,-153 743.75,-173.75"/>
<text text-anchor="middle" x="690.38" y="-160.25" font-family="Helvetica,sans-Serif" font-size="10.00">fl::XYMap::getTotal</text>
</a>
</g>
</g>
<!-- Node4&#45;&gt;Node7 -->
<g id="edge5_Node000004_Node000007" class="edge">
<title>Node4&#45;&gt;Node7</title>
<g id="a_edge5_Node000004_Node000007"><a xlink:title=" ">
<path fill="none" stroke="#63b8ff" d="M559.97,-191.51C581.16,-186.9 606.06,-181.49 628.33,-176.65"/>
<polygon fill="#63b8ff" stroke="#63b8ff" points="628.86,-180.11 637.89,-174.57 627.37,-173.27 628.86,-180.11"/>
</a>
</g>
</g>
<!-- Node4&#45;&gt;Node8 -->
<g id="edge6_Node000004_Node000008" class="edge">
<title>Node4&#45;&gt;Node8</title>
<g id="a_edge6_Node000004_Node000008"><a xlink:title=" ">
<path fill="none" stroke="#63b8ff" d="M581.15,-202.38C594.91,-202.38 609.27,-202.38 622.87,-202.38"/>
<polygon fill="#63b8ff" stroke="#63b8ff" points="622.57,-205.88 632.57,-202.38 622.57,-198.88 622.57,-205.88"/>
</a>
</g>
</g>
<!-- Node9 -->
<g id="Node000009" class="node">
<title>Node9</title>
<g id="a_Node000009"><a xlink:href="../../d0/dce/classfl_1_1_x_y_map.html#aaeab9d4f2c66f6e681415479493578c2" target="_top" xlink:title=" ">
<polygon fill="#fff0f0" stroke="red" points="753.88,-134.75 626.88,-134.75 626.88,-114 753.88,-114 753.88,-134.75"/>
<text text-anchor="middle" x="690.38" y="-121.25" font-family="Helvetica,sans-Serif" font-size="10.00">fl::XYMap::mapToIndex</text>
</a>
</g>
</g>
<!-- Node4&#45;&gt;Node9 -->
<g id="edge7_Node000004_Node000009" class="edge">
<title>Node4&#45;&gt;Node9</title>
<g id="a_edge7_Node000004_Node000009"><a xlink:title=" ">
<path fill="none" stroke="#63b8ff" d="M562.87,-191.62C569.9,-189.13 576.8,-186.09 583,-182.38 602.96,-170.42 599.1,-156.43 619,-144.38 621.95,-142.59 625.06,-140.96 628.27,-139.47"/>
<polygon fill="#63b8ff" stroke="#63b8ff" points="629.44,-142.77 637.37,-135.75 626.79,-136.29 629.44,-142.77"/>
</a>
</g>
</g>
<!-- Node12&#45;&gt;Node6 -->
<g id="edge9_Node000012_Node000006" class="edge">
<title>Node12&#45;&gt;Node6</title>
<g id="a_edge9_Node000012_Node000006"><a xlink:title=" ">
<path fill="none" stroke="#63b8ff" d="M562.87,-174.13C569.9,-176.62 576.8,-179.66 583,-183.38 602.96,-195.33 599.1,-209.32 619,-221.38 621.95,-223.16 625.06,-224.79 628.27,-226.28"/>
<polygon fill="#63b8ff" stroke="#63b8ff" points="626.79,-229.46 637.37,-230 629.44,-222.98 626.79,-229.46"/>
</a>
</g>
</g>
<!-- Node12&#45;&gt;Node7 -->
<g id="edge10_Node000012_Node000007" class="edge">
<title>Node12&#45;&gt;Node7</title>
<g id="a_edge10_Node000012_Node000007"><a xlink:title=" ">
<path fill="none" stroke="#63b8ff" d="M583.48,-163.38C597.38,-163.38 611.83,-163.38 625.42,-163.38"/>
<polygon fill="#63b8ff" stroke="#63b8ff" points="625.08,-166.88 635.08,-163.38 625.08,-159.88 625.08,-166.88"/>
</a>
</g>
</g>
<!-- Node12&#45;&gt;Node8 -->
<g id="edge11_Node000012_Node000008" class="edge">
<title>Node12&#45;&gt;Node8</title>
<g id="a_edge11_Node000012_Node000008"><a xlink:title=" ">
<path fill="none" stroke="#63b8ff" d="M559.97,-174.24C581.16,-178.85 606.06,-184.26 628.33,-189.1"/>
<polygon fill="#63b8ff" stroke="#63b8ff" points="627.37,-192.48 637.89,-191.18 628.86,-185.64 627.37,-192.48"/>
</a>
</g>
</g>
<!-- Node12&#45;&gt;Node9 -->
<g id="edge12_Node000012_Node000009" class="edge">
<title>Node12&#45;&gt;Node9</title>
<g id="a_edge12_Node000012_Node000009"><a xlink:title=" ">
<path fill="none" stroke="#63b8ff" d="M559.97,-152.51C581.16,-147.9 606.06,-142.49 628.33,-137.65"/>
<polygon fill="#63b8ff" stroke="#63b8ff" points="628.86,-141.11 637.89,-135.57 627.37,-134.27 628.86,-141.11"/>
</a>
</g>
</g>
<!-- Node14&#45;&gt;Node6 -->
<g id="edge18_Node000014_Node000006" class="edge">
<title>Node14&#45;&gt;Node6</title>
<g id="a_edge18_Node000014_Node000006"><a xlink:title=" ">
<path fill="none" stroke="#63b8ff" d="M568.18,-135.14C573.52,-137.61 578.58,-140.65 583,-144.38 611.88,-168.72 590.23,-196.89 619,-221.38 620.5,-222.65 622.07,-223.84 623.7,-224.96"/>
<polygon fill="#63b8ff" stroke="#63b8ff" points="621.88,-227.95 632.31,-229.82 625.32,-221.85 621.88,-227.95"/>
</a>
</g>
</g>
<!-- Node14&#45;&gt;Node7 -->
<g id="edge19_Node000014_Node000007" class="edge">
<title>Node14&#45;&gt;Node7</title>
<g id="a_edge19_Node000014_Node000007"><a xlink:title=" ">
<path fill="none" stroke="#63b8ff" d="M559.97,-135.24C581.16,-139.85 606.06,-145.26 628.33,-150.1"/>
<polygon fill="#63b8ff" stroke="#63b8ff" points="627.37,-153.48 637.89,-152.18 628.86,-146.64 627.37,-153.48"/>
</a>
</g>
</g>
<!-- Node14&#45;&gt;Node8 -->
<g id="edge20_Node000014_Node000008" class="edge">
<title>Node14&#45;&gt;Node8</title>
<g id="a_edge20_Node000014_Node000008"><a xlink:title=" ">
<path fill="none" stroke="#63b8ff" d="M562.87,-135.13C569.9,-137.62 576.8,-140.66 583,-144.38 602.96,-156.33 599.1,-170.32 619,-182.38 621.95,-184.16 625.06,-185.79 628.27,-187.28"/>
<polygon fill="#63b8ff" stroke="#63b8ff" points="626.79,-190.46 637.37,-191 629.44,-183.98 626.79,-190.46"/>
</a>
</g>
</g>
<!-- Node14&#45;&gt;Node9 -->
<g id="edge21_Node000014_Node000009" class="edge">
<title>Node14&#45;&gt;Node9</title>
<g id="a_edge21_Node000014_Node000009"><a xlink:title=" ">
<path fill="none" stroke="#63b8ff" d="M572.23,-124.38C586.13,-124.38 600.99,-124.38 615.31,-124.38"/>
<polygon fill="#63b8ff" stroke="#63b8ff" points="615.13,-127.88 625.13,-124.38 615.13,-120.88 615.13,-127.88"/>
</a>
</g>
</g>
<!-- Node15 -->
<g id="Node000015" class="node">
<title>Node15</title>
<g id="a_Node000015"><a xlink:href="../../d4/d36/namespacefl.html#adc9d7b1babde9b079710372109bd3ffb" target="_top" xlink:title=" ">
<polygon fill="white" stroke="#666666" points="761.75,-95.75 619,-95.75 619,-75 761.75,-75 761.75,-95.75"/>
<text text-anchor="middle" x="690.38" y="-82.25" font-family="Helvetica,sans-Serif" font-size="10.00">fl::bilinearInterpolateFloat</text>
</a>
</g>
</g>
<!-- Node14&#45;&gt;Node15 -->
<g id="edge17_Node000014_Node000015" class="edge">
<title>Node14&#45;&gt;Node15</title>
<g id="a_edge17_Node000014_Node000015"><a xlink:title=" ">
<path fill="none" stroke="#63b8ff" d="M559.97,-113.51C581.16,-108.9 606.06,-103.49 628.33,-98.65"/>
<polygon fill="#63b8ff" stroke="#63b8ff" points="628.86,-102.11 637.89,-96.57 627.37,-95.27 628.86,-102.11"/>
</a>
</g>
</g>
<!-- Node17&#45;&gt;Node6 -->
<g id="edge25_Node000017_Node000006" class="edge">
<title>Node17&#45;&gt;Node6</title>
<g id="a_edge25_Node000017_Node000006"><a xlink:title=" ">
<path fill="none" stroke="#63b8ff" d="M386.39,-333.51C433.35,-320.45 514.14,-297.62 583,-276.38 604.22,-269.83 627.68,-262.16 647.16,-255.67"/>
<polygon fill="#63b8ff" stroke="#63b8ff" points="648.01,-259.07 656.39,-252.58 645.79,-252.43 648.01,-259.07"/>
</a>
</g>
</g>
<!-- Node18&#45;&gt;Node8 -->
<g id="edge27_Node000018_Node000008" class="edge">
<title>Node18&#45;&gt;Node8</title>
<g id="a_edge27_Node000018_Node000008"><a xlink:title=" ">
<path fill="none" stroke="#63b8ff" d="M397.48,-289.07C446.1,-281.05 521.19,-266.07 583,-242.38 600.09,-235.82 602.08,-229.37 619,-222.38 623.95,-220.33 629.18,-218.42 634.46,-216.64"/>
<polygon fill="#63b8ff" stroke="#63b8ff" points="635.37,-220.03 643.85,-213.67 633.26,-213.35 635.37,-220.03"/>
</a>
</g>
</g>
<!-- Node19&#45;&gt;Node7 -->
<g id="edge29_Node000019_Node000007" class="edge">
<title>Node19&#45;&gt;Node7</title>
<g id="a_edge29_Node000019_Node000007"><a xlink:title=" ">
<path fill="none" stroke="#63b8ff" d="M562.87,-96.13C569.9,-98.62 576.8,-101.66 583,-105.38 602.96,-117.33 599.1,-131.32 619,-143.38 621.95,-145.16 625.06,-146.79 628.27,-148.28"/>
<polygon fill="#63b8ff" stroke="#63b8ff" points="626.79,-151.46 637.37,-152 629.44,-144.98 626.79,-151.46"/>
</a>
</g>
</g>
<!-- Node19&#45;&gt;Node9 -->
<g id="edge30_Node000019_Node000009" class="edge">
<title>Node19&#45;&gt;Node9</title>
<g id="a_edge30_Node000019_Node000009"><a xlink:title=" ">
<path fill="none" stroke="#63b8ff" d="M559.97,-96.24C581.16,-100.85 606.06,-106.26 628.33,-111.1"/>
<polygon fill="#63b8ff" stroke="#63b8ff" points="627.37,-114.48 637.89,-113.18 628.86,-107.64 627.37,-114.48"/>
</a>
</g>
</g>
</g>
</svg>
