<?xml version="1.0" encoding="UTF-8" standalone="no"?>
<!DOCTYPE svg PUBLIC "-//W3C//DTD SVG 1.1//EN"
 "http://www.w3.org/Graphics/SVG/1.1/DTD/svg11.dtd">
<!-- Generated by graphviz version 12.2.1 (20241206.2353)
 -->
<!-- Title: loop Pages: 1 -->
<svg width="581pt" height="518pt"
 viewBox="0.00 0.00 581.25 517.75" xmlns="http://www.w3.org/2000/svg" xmlns:xlink="http://www.w3.org/1999/xlink">
<g id="graph0" class="graph" transform="scale(1 1) rotate(0) translate(4 513.75)">
<title>loop</title>
<!-- Node1 -->
<g id="Node000001" class="node">
<title>Node1</title>
<g id="a_Node000001"><a xlink:title=" ">
<polygon fill="#999999" stroke="#666666" points="37,-284.75 0,-284.75 0,-264 37,-264 37,-284.75"/>
<text text-anchor="middle" x="18.5" y="-271.25" font-family="Helvetica,sans-Serif" font-size="10.00">loop</text>
</a>
</g>
</g>
<!-- Node2 -->
<g id="Node000002" class="node">
<title>Node2</title>
<g id="a_Node000002"><a xlink:href="../../d8/df9/group___noise_generation.html#ga94be5ce8402e6147209f94d6006e8f00" target="_top" xlink:title="16&#45;bit, fixed point implementation of Perlin&#39;s noise.">
<polygon fill="white" stroke="#666666" points="147.88,-406.75 90.62,-406.75 90.62,-386 147.88,-386 147.88,-406.75"/>
<text text-anchor="middle" x="119.25" y="-393.25" font-family="Helvetica,sans-Serif" font-size="10.00">inoise16</text>
</a>
</g>
</g>
<!-- Node1&#45;&gt;Node2 -->
<g id="edge1_Node000001_Node000002" class="edge">
<title>Node1&#45;&gt;Node2</title>
<g id="a_edge1_Node000001_Node000002"><a xlink:title=" ">
<path fill="none" stroke="#63b8ff" d="M28.26,-285.2C44.92,-305.78 81.37,-350.81 102.41,-376.81"/>
<polygon fill="#63b8ff" stroke="#63b8ff" points="99.68,-379 108.69,-384.57 105.12,-374.6 99.68,-379"/>
</a>
</g>
</g>
<!-- Node5 -->
<g id="Node000005" class="node">
<title>Node5</title>
<g id="a_Node000005"><a xlink:href="../../dd/dbb/class_c_fast_l_e_d.html#a83afdd1e2a21f33ac4f8d2610d6e331b" target="_top" xlink:title="Update all our controllers with the current led colors, using the passed in brightness.">
<polygon fill="white" stroke="#666666" points="165.5,-265.75 73,-265.75 73,-245 165.5,-245 165.5,-265.75"/>
<text text-anchor="middle" x="119.25" y="-252.25" font-family="Helvetica,sans-Serif" font-size="10.00">CFastLED::show</text>
</a>
</g>
</g>
<!-- Node1&#45;&gt;Node5 -->
<g id="edge4_Node000001_Node000005" class="edge">
<title>Node1&#45;&gt;Node5</title>
<g id="a_edge4_Node000001_Node000005"><a xlink:title=" ">
<path fill="none" stroke="#63b8ff" d="M37.15,-270.98C44.18,-269.63 52.68,-267.99 61.51,-266.29"/>
<polygon fill="#63b8ff" stroke="#63b8ff" points="62.13,-269.74 71.29,-264.41 60.81,-262.86 62.13,-269.74"/>
</a>
</g>
</g>
<!-- Node3 -->
<g id="Node000003" class="node">
<title>Node3</title>
<g id="a_Node000003"><a xlink:href="../../d8/df9/group___noise_generation.html#ga810bdc406dcf8fd5b7add9041aa18abd" target="_top" xlink:title="16&#45;bit, fixed point implementation of Perlin&#39;s noise without scaling.">
<polygon fill="white" stroke="#666666" points="331.12,-509.75 250.62,-509.75 250.62,-489 331.12,-489 331.12,-509.75"/>
<text text-anchor="middle" x="290.88" y="-496.25" font-family="Helvetica,sans-Serif" font-size="10.00">inoise16_raw</text>
</a>
</g>
</g>
<!-- Node2&#45;&gt;Node3 -->
<g id="edge2_Node000002_Node000003" class="edge">
<title>Node2&#45;&gt;Node3</title>
<g id="a_edge2_Node000002_Node000003"><a xlink:title=" ">
<path fill="none" stroke="#63b8ff" d="M127.34,-407.09C139.97,-425.24 168.15,-461.86 201.5,-480.38 212.96,-486.74 226.35,-490.97 239.19,-493.79"/>
<polygon fill="#63b8ff" stroke="#63b8ff" points="238.31,-497.18 248.79,-495.63 239.63,-490.31 238.31,-497.18"/>
</a>
</g>
</g>
<!-- Node4 -->
<g id="Node000004" class="node">
<title>Node4</title>
<g id="a_Node000004"><a xlink:href="../../d6/de8/noise_8cpp.html#a24cd7f7232e48b10b8bba34614a168b5" target="_top" xlink:title=" ">
<polygon fill="white" stroke="#666666" points="519.62,-509.75 469.88,-509.75 469.88,-489 519.62,-489 519.62,-509.75"/>
<text text-anchor="middle" x="494.75" y="-496.25" font-family="Helvetica,sans-Serif" font-size="10.00">grad16</text>
</a>
</g>
</g>
<!-- Node3&#45;&gt;Node4 -->
<g id="edge3_Node000003_Node000004" class="edge">
<title>Node3&#45;&gt;Node4</title>
<g id="a_edge3_Node000003_Node000004"><a xlink:title=" ">
<path fill="none" stroke="#63b8ff" d="M331.28,-499.38C368.18,-499.38 422.84,-499.38 458.38,-499.38"/>
<polygon fill="#63b8ff" stroke="#63b8ff" points="458.13,-502.88 468.13,-499.38 458.13,-495.88 458.13,-502.88"/>
</a>
</g>
</g>
<!-- Node6 -->
<g id="Node000006" class="node">
<title>Node6</title>
<g id="a_Node000006"><a xlink:href="../../d6/d2c/class_c_l_e_d_controller.html#af9962ef739bdb3b590ee66f3780765d6" target="_top" xlink:title=" ">
<polygon fill="white" stroke="#666666" points="376.5,-419.75 205.25,-419.75 205.25,-399 376.5,-399 376.5,-419.75"/>
<text text-anchor="middle" x="290.88" y="-406.25" font-family="Helvetica,sans-Serif" font-size="10.00">CLEDController::beginShowLeds</text>
</a>
</g>
</g>
<!-- Node5&#45;&gt;Node6 -->
<g id="edge5_Node000005_Node000006" class="edge">
<title>Node5&#45;&gt;Node6</title>
<g id="a_edge5_Node000005_Node000006"><a xlink:title=" ">
<path fill="none" stroke="#63b8ff" d="M123.81,-266.01C132.7,-290.91 158.34,-353.33 201.5,-385.38 206.09,-388.78 211.13,-391.71 216.41,-394.22"/>
<polygon fill="#63b8ff" stroke="#63b8ff" points="214.82,-397.35 225.4,-397.96 217.52,-390.88 214.82,-397.35"/>
</a>
</g>
</g>
<!-- Node8 -->
<g id="Node000008" class="node">
<title>Node8</title>
<g id="a_Node000008"><a xlink:href="../../d6/d2c/class_c_l_e_d_controller.html#a63f75cf7e55cf8da46db5fd27110bb3e" target="_top" xlink:title="How many LEDs does this controller manage?">
<polygon fill="white" stroke="#666666" points="552.25,-390.75 437.25,-390.75 437.25,-370 552.25,-370 552.25,-390.75"/>
<text text-anchor="middle" x="494.75" y="-377.25" font-family="Helvetica,sans-Serif" font-size="10.00">CLEDController::size</text>
</a>
</g>
</g>
<!-- Node5&#45;&gt;Node8 -->
<g id="edge26_Node000005_Node000008" class="edge">
<title>Node5&#45;&gt;Node8</title>
<g id="a_edge26_Node000005_Node000008"><a xlink:title=" ">
<path fill="none" stroke="#63b8ff" d="M125.6,-266.19C136.57,-287.05 163.79,-332.52 201.5,-352.38 271.35,-389.14 363.63,-391.67 425.65,-387.93"/>
<polygon fill="#63b8ff" stroke="#63b8ff" points="425.62,-391.44 435.36,-387.27 425.14,-384.46 425.62,-391.44"/>
</a>
</g>
</g>
<!-- Node9 -->
<g id="Node000009" class="node">
<title>Node9</title>
<g id="a_Node000009"><a xlink:href="../../dd/dbb/class_c_fast_l_e_d.html#a61d27e179c9b68bde89d220aebc0de32" target="_top" xlink:title="For debugging, this will keep track of time between calls to countFPS().">
<polygon fill="white" stroke="#666666" points="346.88,-265.75 234.88,-265.75 234.88,-245 346.88,-245 346.88,-265.75"/>
<text text-anchor="middle" x="290.88" y="-252.25" font-family="Helvetica,sans-Serif" font-size="10.00">CFastLED::countFPS</text>
</a>
</g>
</g>
<!-- Node5&#45;&gt;Node9 -->
<g id="edge8_Node000005_Node000009" class="edge">
<title>Node5&#45;&gt;Node9</title>
<g id="a_edge8_Node000005_Node000009"><a xlink:title=" ">
<path fill="none" stroke="#63b8ff" d="M165.71,-255.38C183.34,-255.38 203.9,-255.38 223.15,-255.38"/>
<polygon fill="#63b8ff" stroke="#63b8ff" points="223.1,-258.88 233.1,-255.38 223.1,-251.88 223.1,-258.88"/>
</a>
</g>
</g>
<!-- Node10 -->
<g id="Node000010" class="node">
<title>Node10</title>
<g id="a_Node000010"><a xlink:href="../../d6/d2c/class_c_l_e_d_controller.html#a49b221af013bf196c2068e2cbd1c299d" target="_top" xlink:title=" ">
<polygon fill="white" stroke="#666666" points="372,-20.75 209.75,-20.75 209.75,0 372,0 372,-20.75"/>
<text text-anchor="middle" x="290.88" y="-7.25" font-family="Helvetica,sans-Serif" font-size="10.00">CLEDController::endShowLeds</text>
</a>
</g>
</g>
<!-- Node5&#45;&gt;Node10 -->
<g id="edge9_Node000005_Node000010" class="edge">
<title>Node5&#45;&gt;Node10</title>
<g id="a_edge9_Node000005_Node000010"><a xlink:title=" ">
<path fill="none" stroke="#63b8ff" d="M120.67,-244.71C122.7,-208.56 134.41,-89.62 201.5,-30.38 202.79,-29.24 204.13,-28.16 205.52,-27.14"/>
<polygon fill="#63b8ff" stroke="#63b8ff" points="207.23,-30.19 213.94,-22 203.58,-24.22 207.23,-30.19"/>
</a>
</g>
</g>
<!-- Node11 -->
<g id="Node000011" class="node">
<title>Node11</title>
<g id="a_Node000011"><a xlink:href="../../d6/d2c/class_c_l_e_d_controller.html#a2a231accbeb00e6a6080a7e55274a279" target="_top" xlink:title="Set the dithering mode for this controller to use.">
<polygon fill="white" stroke="#666666" points="565,-90.75 424.5,-90.75 424.5,-70 565,-70 565,-90.75"/>
<text text-anchor="middle" x="494.75" y="-77.25" font-family="Helvetica,sans-Serif" font-size="10.00">CLEDController::setDither</text>
</a>
</g>
</g>
<!-- Node5&#45;&gt;Node11 -->
<g id="edge23_Node000005_Node000011" class="edge">
<title>Node5&#45;&gt;Node11</title>
<g id="a_edge23_Node000005_Node000011"><a xlink:title=" ">
<path fill="none" stroke="#63b8ff" d="M129.28,-244.57C143.12,-228.76 171.18,-199.54 201.5,-184.38 274.14,-148.04 304.47,-175.6 380.25,-146.38 412.89,-133.79 447.2,-112.57 469.43,-97.59"/>
<polygon fill="#63b8ff" stroke="#63b8ff" points="471.23,-100.6 477.5,-92.06 467.27,-94.83 471.23,-100.6"/>
</a>
</g>
</g>
<!-- Node12 -->
<g id="Node000012" class="node">
<title>Node12</title>
<g id="a_Node000012"><a xlink:href="../../d6/d2c/class_c_l_e_d_controller.html#a6bd253f670640ea4d1bd0d71b8029f2a" target="_top" xlink:title=" ">
<polygon fill="white" stroke="#666666" points="366,-137.75 215.75,-137.75 215.75,-117 366,-117 366,-137.75"/>
<text text-anchor="middle" x="290.88" y="-124.25" font-family="Helvetica,sans-Serif" font-size="10.00">CLEDController::getEnabled</text>
</a>
</g>
</g>
<!-- Node5&#45;&gt;Node12 -->
<g id="edge11_Node000005_Node000012" class="edge">
<title>Node5&#45;&gt;Node12</title>
<g id="a_edge11_Node000005_Node000012"><a xlink:title=" ">
<path fill="none" stroke="#63b8ff" d="M125.55,-244.69C136.62,-223.5 164.28,-176.1 201.5,-151.38 206.93,-147.77 212.89,-144.7 219.06,-142.09"/>
<polygon fill="#63b8ff" stroke="#63b8ff" points="220.07,-145.45 228.19,-138.66 217.6,-138.9 220.07,-145.45"/>
</a>
</g>
</g>
<!-- Node13 -->
<g id="Node000013" class="node">
<title>Node13</title>
<g id="a_Node000013"><a xlink:href="../../d6/d2c/class_c_l_e_d_controller.html#a8b412ff1fd4833d0db63a175d40a2ee0" target="_top" xlink:title="Get the first LED controller in the linked list of controllers.">
<polygon fill="white" stroke="#666666" points="350.62,-98.75 231.12,-98.75 231.12,-78 350.62,-78 350.62,-98.75"/>
<text text-anchor="middle" x="290.88" y="-85.25" font-family="Helvetica,sans-Serif" font-size="10.00">CLEDController::head</text>
</a>
</g>
</g>
<!-- Node5&#45;&gt;Node13 -->
<g id="edge12_Node000005_Node000013" class="edge">
<title>Node5&#45;&gt;Node13</title>
<g id="a_edge12_Node000005_Node000013"><a xlink:title=" ">
<path fill="none" stroke="#63b8ff" d="M122.84,-244.87C130.13,-217.65 153.47,-144.45 201.5,-108.38 207.11,-104.16 213.45,-100.81 220.1,-98.14"/>
<polygon fill="#63b8ff" stroke="#63b8ff" points="220.97,-101.54 229.3,-94.99 218.71,-94.92 220.97,-101.54"/>
</a>
</g>
</g>
<!-- Node14 -->
<g id="Node000014" class="node">
<title>Node14</title>
<g id="a_Node000014"><a xlink:href="../../d6/d2c/class_c_l_e_d_controller.html#a21a4d2b3415dd7b24175ebdb51c9ced0" target="_top" xlink:title="Get the next controller in the linked list after this one.">
<polygon fill="white" stroke="#666666" points="349.5,-59.75 232.25,-59.75 232.25,-39 349.5,-39 349.5,-59.75"/>
<text text-anchor="middle" x="290.88" y="-46.25" font-family="Helvetica,sans-Serif" font-size="10.00">CLEDController::next</text>
</a>
</g>
</g>
<!-- Node5&#45;&gt;Node14 -->
<g id="edge13_Node000005_Node000014" class="edge">
<title>Node5&#45;&gt;Node14</title>
<g id="a_edge13_Node000005_Node000014"><a xlink:title=" ">
<path fill="none" stroke="#63b8ff" d="M121.59,-244.55C126.16,-212.39 144.19,-116.75 201.5,-69.38 207.37,-64.53 214.17,-60.8 221.35,-57.94"/>
<polygon fill="#63b8ff" stroke="#63b8ff" points="222.27,-61.32 230.63,-54.82 220.04,-54.68 222.27,-61.32"/>
</a>
</g>
</g>
<!-- Node15 -->
<g id="Node000015" class="node">
<title>Node15</title>
<g id="a_Node000015"><a xlink:href="../../de/dca/classfl_1_1_engine_events.html#a7147debfba714b8ab0925af1a7c935c0" target="_top" xlink:title=" ">
<polygon fill="white" stroke="#666666" points="360.75,-227.12 221,-227.12 221,-193.62 360.75,-193.62 360.75,-227.12"/>
<text text-anchor="start" x="229" y="-213.62" font-family="Helvetica,sans-Serif" font-size="10.00">fl::EngineEvents::onBegin</text>
<text text-anchor="middle" x="290.88" y="-200.88" font-family="Helvetica,sans-Serif" font-size="10.00">Frame</text>
</a>
</g>
</g>
<!-- Node5&#45;&gt;Node15 -->
<g id="edge14_Node000005_Node000015" class="edge">
<title>Node5&#45;&gt;Node15</title>
<g id="a_edge14_Node000005_Node000015"><a xlink:title=" ">
<path fill="none" stroke="#63b8ff" d="M160.88,-244.6C176.86,-240.36 195.75,-235.35 214.07,-230.48"/>
<polygon fill="#63b8ff" stroke="#63b8ff" points="214.84,-233.9 223.61,-227.96 213.04,-227.14 214.84,-233.9"/>
</a>
</g>
</g>
<!-- Node19 -->
<g id="Node000019" class="node">
<title>Node19</title>
<g id="a_Node000019"><a xlink:href="../../de/dca/classfl_1_1_engine_events.html#ab7d24c4783214392de84947cd7df5570" target="_top" xlink:title=" ">
<polygon fill="white" stroke="#666666" points="371.25,-343.75 210.5,-343.75 210.5,-323 371.25,-323 371.25,-343.75"/>
<text text-anchor="middle" x="290.88" y="-330.25" font-family="Helvetica,sans-Serif" font-size="10.00">fl::EngineEvents::onEndFrame</text>
</a>
</g>
</g>
<!-- Node5&#45;&gt;Node19 -->
<g id="edge17_Node000005_Node000019" class="edge">
<title>Node5&#45;&gt;Node19</title>
<g id="a_edge17_Node000005_Node000019"><a xlink:title=" ">
<path fill="none" stroke="#63b8ff" d="M131.97,-266.07C146.97,-279.19 174.3,-301.19 201.5,-313.38 206.36,-315.55 211.48,-317.5 216.7,-319.25"/>
<polygon fill="#63b8ff" stroke="#63b8ff" points="215.49,-322.54 226.08,-322.11 217.54,-315.84 215.49,-322.54"/>
</a>
</g>
</g>
<!-- Node21 -->
<g id="Node000021" class="node">
<title>Node21</title>
<g id="a_Node000021"><a xlink:href="../../de/dca/classfl_1_1_engine_events.html#af1bb9a46fdc6694a1b5c87a49c516ae8" target="_top" xlink:title=" ">
<polygon fill="white" stroke="#666666" points="380.25,-304.75 201.5,-304.75 201.5,-284 380.25,-284 380.25,-304.75"/>
<text text-anchor="middle" x="290.88" y="-291.25" font-family="Helvetica,sans-Serif" font-size="10.00">fl::EngineEvents::onEndShowLeds</text>
</a>
</g>
</g>
<!-- Node5&#45;&gt;Node21 -->
<g id="edge20_Node000005_Node000021" class="edge">
<title>Node5&#45;&gt;Node21</title>
<g id="a_edge20_Node000005_Node000021"><a xlink:title=" ">
<path fill="none" stroke="#63b8ff" d="M165.79,-266.08C177.43,-268.8 189.92,-271.71 201.5,-274.38 210.87,-276.53 220.79,-278.8 230.48,-281"/>
<polygon fill="#63b8ff" stroke="#63b8ff" points="229.7,-284.41 240.23,-283.2 231.25,-277.58 229.7,-284.41"/>
</a>
</g>
</g>
<!-- Node23 -->
<g id="Node000023" class="node">
<title>Node23</title>
<g id="a_Node000023"><a xlink:href="../../d6/d2c/class_c_l_e_d_controller.html#ac5355e980ac13d9ae97561f183f73990" target="_top" xlink:title="Write the data to the LEDs managed by this controller.">
<polygon fill="white" stroke="#666666" points="362.62,-471.12 219.12,-471.12 219.12,-437.62 362.62,-437.62 362.62,-471.12"/>
<text text-anchor="start" x="227.12" y="-457.62" font-family="Helvetica,sans-Serif" font-size="10.00">CLEDController::showLeds</text>
<text text-anchor="middle" x="290.88" y="-444.88" font-family="Helvetica,sans-Serif" font-size="10.00">Internal</text>
</a>
</g>
</g>
<!-- Node5&#45;&gt;Node23 -->
<g id="edge24_Node000005_Node000023" class="edge">
<title>Node5&#45;&gt;Node23</title>
<g id="a_edge24_Node000005_Node000023"><a xlink:title=" ">
<path fill="none" stroke="#63b8ff" d="M123.92,-265.95C135.88,-299.9 174.55,-405.26 201.5,-428.38 203.87,-430.4 206.38,-432.27 209.01,-434"/>
<polygon fill="#63b8ff" stroke="#63b8ff" points="207.24,-437.01 217.67,-438.88 210.68,-430.92 207.24,-437.01"/>
</a>
</g>
</g>
<!-- Node7 -->
<g id="Node000007" class="node">
<title>Node7</title>
<g id="a_Node000007"><a xlink:href="../../d6/d2c/class_c_l_e_d_controller.html#a676f705adf93898739a405b85150a3e7" target="_top" xlink:title="Get the dithering option currently set for this controller.">
<polygon fill="white" stroke="#666666" points="565.38,-429.75 424.12,-429.75 424.12,-409 565.38,-409 565.38,-429.75"/>
<text text-anchor="middle" x="494.75" y="-416.25" font-family="Helvetica,sans-Serif" font-size="10.00">CLEDController::getDither</text>
</a>
</g>
</g>
<!-- Node6&#45;&gt;Node7 -->
<g id="edge6_Node000006_Node000007" class="edge">
<title>Node6&#45;&gt;Node7</title>
<g id="a_edge6_Node000006_Node000007"><a xlink:title=" ">
<path fill="none" stroke="#63b8ff" d="M376.9,-413.59C388.74,-414.17 400.88,-414.77 412.65,-415.36"/>
<polygon fill="#63b8ff" stroke="#63b8ff" points="412.12,-418.84 422.28,-415.83 412.47,-411.84 412.12,-418.84"/>
</a>
</g>
</g>
<!-- Node6&#45;&gt;Node8 -->
<g id="edge7_Node000006_Node000008" class="edge">
<title>Node6&#45;&gt;Node8</title>
<g id="a_edge7_Node000006_Node000008"><a xlink:title=" ">
<path fill="none" stroke="#63b8ff" d="M367.33,-398.54C386.53,-395.78 407.04,-392.83 425.83,-390.13"/>
<polygon fill="#63b8ff" stroke="#63b8ff" points="426.08,-393.63 435.48,-388.75 425.09,-386.7 426.08,-393.63"/>
</a>
</g>
</g>
<!-- Node10&#45;&gt;Node11 -->
<g id="edge10_Node000010_Node000011" class="edge">
<title>Node10&#45;&gt;Node11</title>
<g id="a_edge10_Node000010_Node000011"><a xlink:title=" ">
<path fill="none" stroke="#63b8ff" d="M347.48,-21.24C358.45,-23.87 369.79,-26.92 380.25,-30.38 408.72,-39.77 439.79,-53.73 462.21,-64.52"/>
<polygon fill="#63b8ff" stroke="#63b8ff" points="460.6,-67.62 471.12,-68.86 463.66,-61.33 460.6,-67.62"/>
</a>
</g>
</g>
<!-- Node16 -->
<g id="Node000016" class="node">
<title>Node16</title>
<g id="a_Node000016"><a xlink:href="../../de/dca/classfl_1_1_engine_events.html#a9dfab83407c4cb0c15065e242d49de62" target="_top" xlink:title=" ">
<polygon fill="white" stroke="#666666" points="544.75,-210.12 444.75,-210.12 444.75,-176.62 544.75,-176.62 544.75,-210.12"/>
<text text-anchor="start" x="452.75" y="-196.62" font-family="Helvetica,sans-Serif" font-size="10.00">fl::EngineEvents::</text>
<text text-anchor="middle" x="494.75" y="-183.88" font-family="Helvetica,sans-Serif" font-size="10.00">_onBeginFrame</text>
</a>
</g>
</g>
<!-- Node15&#45;&gt;Node16 -->
<g id="edge15_Node000015_Node000016" class="edge">
<title>Node15&#45;&gt;Node16</title>
<g id="a_edge15_Node000015_Node000016"><a xlink:title=" ">
<path fill="none" stroke="#63b8ff" d="M361.07,-204.55C384.5,-202.57 410.48,-200.39 433.19,-198.48"/>
<polygon fill="#63b8ff" stroke="#63b8ff" points="433.21,-201.99 442.88,-197.66 432.62,-195.01 433.21,-201.99"/>
</a>
</g>
</g>
<!-- Node17 -->
<g id="Node000017" class="node">
<title>Node17</title>
<g id="a_Node000017"><a xlink:href="../../de/dca/classfl_1_1_engine_events.html#a34a4625c4fbcf754f70820bc4f0e418b" target="_top" xlink:title=" ">
<polygon fill="#fff0f0" stroke="red" points="573.25,-248.75 416.25,-248.75 416.25,-228 573.25,-228 573.25,-248.75"/>
<text text-anchor="middle" x="494.75" y="-235.25" font-family="Helvetica,sans-Serif" font-size="10.00">fl::EngineEvents::getInstance</text>
</a>
</g>
</g>
<!-- Node15&#45;&gt;Node17 -->
<g id="edge16_Node000015_Node000017" class="edge">
<title>Node15&#45;&gt;Node17</title>
<g id="a_edge16_Node000015_Node000017"><a xlink:title=" ">
<path fill="none" stroke="#63b8ff" d="M361.07,-219.97C375.16,-221.93 390.18,-224.01 404.86,-226.05"/>
<polygon fill="#63b8ff" stroke="#63b8ff" points="404.1,-229.47 414.49,-227.38 405.06,-222.54 404.1,-229.47"/>
</a>
</g>
</g>
<!-- Node19&#45;&gt;Node17 -->
<g id="edge19_Node000019_Node000017" class="edge">
<title>Node19&#45;&gt;Node17</title>
<g id="a_edge19_Node000019_Node000017"><a xlink:title=" ">
<path fill="none" stroke="#63b8ff" d="M363,-322.58C369.11,-320.1 374.97,-317.08 380.25,-313.38 404.48,-296.4 392.17,-274.57 416.25,-257.38 417.84,-256.24 419.49,-255.17 421.19,-254.17"/>
<polygon fill="#63b8ff" stroke="#63b8ff" points="422.62,-257.36 430.01,-249.76 419.5,-251.1 422.62,-257.36"/>
</a>
</g>
</g>
<!-- Node20 -->
<g id="Node000020" class="node">
<title>Node20</title>
<g id="a_Node000020"><a xlink:href="../../de/dca/classfl_1_1_engine_events.html#a643d9a8597b79d76daed94c29845e886" target="_top" xlink:title=" ">
<polygon fill="white" stroke="#666666" points="544.75,-352.12 444.75,-352.12 444.75,-318.62 544.75,-318.62 544.75,-352.12"/>
<text text-anchor="start" x="452.75" y="-338.62" font-family="Helvetica,sans-Serif" font-size="10.00">fl::EngineEvents::</text>
<text text-anchor="middle" x="494.75" y="-325.88" font-family="Helvetica,sans-Serif" font-size="10.00">_onEndFrame</text>
</a>
</g>
</g>
<!-- Node19&#45;&gt;Node20 -->
<g id="edge18_Node000019_Node000020" class="edge">
<title>Node19&#45;&gt;Node20</title>
<g id="a_edge18_Node000019_Node000020"><a xlink:title=" ">
<path fill="none" stroke="#63b8ff" d="M371.66,-334.17C392.11,-334.37 413.77,-334.58 433.08,-334.77"/>
<polygon fill="#63b8ff" stroke="#63b8ff" points="432.91,-338.27 442.95,-334.87 432.98,-331.27 432.91,-338.27"/>
</a>
</g>
</g>
<!-- Node21&#45;&gt;Node17 -->
<g id="edge22_Node000021_Node000017" class="edge">
<title>Node21&#45;&gt;Node17</title>
<g id="a_edge22_Node000021_Node000017"><a xlink:title=" ">
<path fill="none" stroke="#63b8ff" d="M348.02,-283.61C358.84,-280.99 369.99,-277.91 380.25,-274.38 396.98,-268.61 399.57,-263.29 416.25,-257.38 421.5,-255.51 427.02,-253.77 432.58,-252.15"/>
<polygon fill="#63b8ff" stroke="#63b8ff" points="433.12,-255.63 441.83,-249.59 431.26,-248.88 433.12,-255.63"/>
</a>
</g>
</g>
<!-- Node22 -->
<g id="Node000022" class="node">
<title>Node22</title>
<g id="a_Node000022"><a xlink:href="../../de/dca/classfl_1_1_engine_events.html#ae6b4037ab7b73bf0d69e07c4956f9450" target="_top" xlink:title=" ">
<polygon fill="white" stroke="#666666" points="544.75,-300.12 444.75,-300.12 444.75,-266.62 544.75,-266.62 544.75,-300.12"/>
<text text-anchor="start" x="452.75" y="-286.62" font-family="Helvetica,sans-Serif" font-size="10.00">fl::EngineEvents::</text>
<text text-anchor="middle" x="494.75" y="-273.88" font-family="Helvetica,sans-Serif" font-size="10.00">_onEndShowLeds</text>
</a>
</g>
</g>
<!-- Node21&#45;&gt;Node22 -->
<g id="edge21_Node000021_Node000022" class="edge">
<title>Node21&#45;&gt;Node22</title>
<g id="a_edge21_Node000021_Node000022"><a xlink:title=" ">
<path fill="none" stroke="#63b8ff" d="M380.71,-289.53C398.51,-288.56 416.81,-287.57 433.36,-286.67"/>
<polygon fill="#63b8ff" stroke="#63b8ff" points="433.21,-290.18 443,-286.14 432.83,-283.19 433.21,-290.18"/>
</a>
</g>
</g>
<!-- Node24 -->
<g id="Node000024" class="node">
<title>Node24</title>
<g id="a_Node000024"><a xlink:href="../../d6/d2c/class_c_l_e_d_controller.html#afc8fb063666d03527aabc86d8531e007" target="_top" xlink:title="Write the passed in RGB data out to the LEDs managed by this controller.">
<polygon fill="white" stroke="#666666" points="555.25,-468.75 434.25,-468.75 434.25,-448 555.25,-448 555.25,-468.75"/>
<text text-anchor="middle" x="494.75" y="-455.25" font-family="Helvetica,sans-Serif" font-size="10.00">CLEDController::show</text>
</a>
</g>
</g>
<!-- Node23&#45;&gt;Node24 -->
<g id="edge25_Node000023_Node000024" class="edge">
<title>Node23&#45;&gt;Node24</title>
<g id="a_edge25_Node000023_Node000024"><a xlink:title=" ">
<path fill="none" stroke="#63b8ff" d="M363.05,-455.79C382.32,-456.17 403.17,-456.58 422.45,-456.96"/>
<polygon fill="#63b8ff" stroke="#63b8ff" points="422.32,-460.46 432.39,-457.16 422.46,-453.46 422.32,-460.46"/>
</a>
</g>
</g>
</g>
</svg>
