<?xml version="1.0" encoding="UTF-8" standalone="no"?>
<!DOCTYPE svg PUBLIC "-//W3C//DTD SVG 1.1//EN"
 "http://www.w3.org/Graphics/SVG/1.1/DTD/svg11.dtd">
<!-- Generated by graphviz version 12.2.1 (20241206.2353)
 -->
<!-- Title: hsv2rgb_raw Pages: 1 -->
<svg width="327pt" height="29pt"
 viewBox="0.00 0.00 326.75 28.75" xmlns="http://www.w3.org/2000/svg" xmlns:xlink="http://www.w3.org/1999/xlink">
<g id="graph0" class="graph" transform="scale(1 1) rotate(0) translate(4 24.75)">
<title>hsv2rgb_raw</title>
<!-- Node1 -->
<g id="Node000001" class="node">
<title>Node1</title>
<g id="a_Node000001"><a xlink:title="Convert an HSV value to RGB using a mathematically straight spectrum.">
<polygon fill="#999999" stroke="#666666" points="78.25,-20.75 0,-20.75 0,0 78.25,0 78.25,-20.75"/>
<text text-anchor="middle" x="39.12" y="-7.25" font-family="Helvetica,sans-Serif" font-size="10.00">hsv2rgb_raw</text>
</a>
</g>
</g>
<!-- Node2 -->
<g id="Node000002" class="node">
<title>Node2</title>
<g id="a_Node000002"><a xlink:href="../../dd/dc7/group___h_s_v2_r_g_b.html#ga66f61978949a6830b138d1bf08257019" target="_top" xlink:title="Convert an HSV value to RGB using a mathematically straight spectrum.">
<polygon fill="white" stroke="#666666" points="192.5,-20.75 114.25,-20.75 114.25,0 192.5,0 192.5,-20.75"/>
<text text-anchor="middle" x="153.38" y="-7.25" font-family="Helvetica,sans-Serif" font-size="10.00">hsv2rgb_raw</text>
</a>
</g>
</g>
<!-- Node1&#45;&gt;Node2 -->
<g id="edge1_Node000001_Node000002" class="edge">
<title>Node1&#45;&gt;Node2</title>
<g id="a_edge1_Node000001_Node000002"><a xlink:title=" ">
<path fill="none" stroke="#63b8ff" d="M78.44,-10.38C86.21,-10.38 94.49,-10.38 102.59,-10.38"/>
<polygon fill="#63b8ff" stroke="#63b8ff" points="102.34,-13.88 112.34,-10.38 102.34,-6.88 102.34,-13.88"/>
</a>
</g>
</g>
<!-- Node3 -->
<g id="Node000003" class="node">
<title>Node3</title>
<g id="a_Node000003"><a xlink:href="../../df/d9d/hsv2rgb_8cpp.html#ae692746db35d0cdcd304d01497f92233" target="_top" xlink:title="HSV to RGB implementation in raw C, platform independent.">
<polygon fill="white" stroke="#666666" points="318.75,-20.75 228.5,-20.75 228.5,0 318.75,0 318.75,-20.75"/>
<text text-anchor="middle" x="273.62" y="-7.25" font-family="Helvetica,sans-Serif" font-size="10.00">hsv2rgb_raw_C</text>
</a>
</g>
</g>
<!-- Node2&#45;&gt;Node3 -->
<g id="edge2_Node000002_Node000003" class="edge">
<title>Node2&#45;&gt;Node3</title>
<g id="a_edge2_Node000002_Node000003"><a xlink:title=" ">
<path fill="none" stroke="#63b8ff" d="M192.77,-10.38C200.47,-10.38 208.71,-10.38 216.86,-10.38"/>
<polygon fill="#63b8ff" stroke="#63b8ff" points="216.75,-13.88 226.75,-10.38 216.75,-6.88 216.75,-13.88"/>
</a>
</g>
</g>
</g>
</svg>
