<?xml version="1.0" encoding="UTF-8" standalone="no"?>
<!DOCTYPE svg PUBLIC "-//W3C//DTD SVG 1.1//EN"
 "http://www.w3.org/Graphics/SVG/1.1/DTD/svg11.dtd">
<!-- Generated by graphviz version 12.2.1 (20241206.2353)
 -->
<!-- Title: hsv2rgb_spectrum Pages: 1 -->
<svg width="497pt" height="68pt"
 viewBox="0.00 0.00 496.50 67.75" xmlns="http://www.w3.org/2000/svg" xmlns:xlink="http://www.w3.org/1999/xlink">
<g id="graph0" class="graph" transform="scale(1 1) rotate(0) translate(4 63.75)">
<title>hsv2rgb_spectrum</title>
<!-- Node1 -->
<g id="Node000001" class="node">
<title>Node1</title>
<g id="a_Node000001"><a xlink:title="Inline version of hsv2rgb_spectrum which returns a CRGB object.">
<polygon fill="#999999" stroke="#666666" points="106,-39.75 0,-39.75 0,-19 106,-19 106,-39.75"/>
<text text-anchor="middle" x="53" y="-26.25" font-family="Helvetica,sans-Serif" font-size="10.00">hsv2rgb_spectrum</text>
</a>
</g>
</g>
<!-- Node2 -->
<g id="Node000002" class="node">
<title>Node2</title>
<g id="a_Node000002"><a xlink:href="../../dd/dc7/group___h_s_v2_r_g_b.html#ga704160ddb9173c3420a3dbfb44674440" target="_top" xlink:title="Convert an HSV value to RGB using a mathematically straight spectrum.">
<polygon fill="white" stroke="#666666" points="248,-39.75 142,-39.75 142,-19 248,-19 248,-39.75"/>
<text text-anchor="middle" x="195" y="-26.25" font-family="Helvetica,sans-Serif" font-size="10.00">hsv2rgb_spectrum</text>
</a>
</g>
</g>
<!-- Node1&#45;&gt;Node2 -->
<g id="edge1_Node000001_Node000002" class="edge">
<title>Node1&#45;&gt;Node2</title>
<g id="a_edge1_Node000001_Node000002"><a xlink:title=" ">
<path fill="none" stroke="#63b8ff" d="M106.13,-29.38C114.06,-29.38 122.31,-29.38 130.45,-29.38"/>
<polygon fill="#63b8ff" stroke="#63b8ff" points="130.31,-32.88 140.31,-29.38 130.31,-25.88 130.31,-32.88"/>
</a>
</g>
</g>
<!-- Node3 -->
<g id="Node000003" class="node">
<title>Node3</title>
<g id="a_Node000003"><a xlink:href="../../dd/dc7/group___h_s_v2_r_g_b.html#ga66f61978949a6830b138d1bf08257019" target="_top" xlink:title="Convert an HSV value to RGB using a mathematically straight spectrum.">
<polygon fill="white" stroke="#666666" points="362.25,-59.75 284,-59.75 284,-39 362.25,-39 362.25,-59.75"/>
<text text-anchor="middle" x="323.12" y="-46.25" font-family="Helvetica,sans-Serif" font-size="10.00">hsv2rgb_raw</text>
</a>
</g>
</g>
<!-- Node2&#45;&gt;Node3 -->
<g id="edge2_Node000002_Node000003" class="edge">
<title>Node2&#45;&gt;Node3</title>
<g id="a_edge2_Node000002_Node000003"><a xlink:title=" ">
<path fill="none" stroke="#63b8ff" d="M248.39,-37.68C256.3,-38.94 264.45,-40.23 272.3,-41.47"/>
<polygon fill="#63b8ff" stroke="#63b8ff" points="271.63,-44.91 282.05,-43.02 272.73,-38 271.63,-44.91"/>
</a>
</g>
</g>
<!-- Node5 -->
<g id="Node000005" class="node">
<title>Node5</title>
<g id="a_Node000005"><a xlink:href="../../d0/da8/group___scaling.html#gad7535ccda9c92470c4e6ee0265585555" target="_top" xlink:title="Scale one byte by a second one, which is treated as the numerator of a fraction whose denominator is ...">
<polygon fill="white" stroke="#666666" points="346.88,-20.75 299.38,-20.75 299.38,0 346.88,0 346.88,-20.75"/>
<text text-anchor="middle" x="323.12" y="-7.25" font-family="Helvetica,sans-Serif" font-size="10.00">scale8</text>
</a>
</g>
</g>
<!-- Node2&#45;&gt;Node5 -->
<g id="edge4_Node000002_Node000005" class="edge">
<title>Node2&#45;&gt;Node5</title>
<g id="a_edge4_Node000002_Node000005"><a xlink:title=" ">
<path fill="none" stroke="#63b8ff" d="M248.39,-21.48C261.73,-19.47 275.72,-17.37 287.89,-15.53"/>
<polygon fill="#63b8ff" stroke="#63b8ff" points="288.05,-19.05 297.41,-14.1 287,-12.13 288.05,-19.05"/>
</a>
</g>
</g>
<!-- Node4 -->
<g id="Node000004" class="node">
<title>Node4</title>
<g id="a_Node000004"><a xlink:href="../../df/d9d/hsv2rgb_8cpp.html#ae692746db35d0cdcd304d01497f92233" target="_top" xlink:title="HSV to RGB implementation in raw C, platform independent.">
<polygon fill="white" stroke="#666666" points="488.5,-59.75 398.25,-59.75 398.25,-39 488.5,-39 488.5,-59.75"/>
<text text-anchor="middle" x="443.38" y="-46.25" font-family="Helvetica,sans-Serif" font-size="10.00">hsv2rgb_raw_C</text>
</a>
</g>
</g>
<!-- Node3&#45;&gt;Node4 -->
<g id="edge3_Node000003_Node000004" class="edge">
<title>Node3&#45;&gt;Node4</title>
<g id="a_edge3_Node000003_Node000004"><a xlink:title=" ">
<path fill="none" stroke="#63b8ff" d="M362.52,-49.38C370.22,-49.38 378.46,-49.38 386.61,-49.38"/>
<polygon fill="#63b8ff" stroke="#63b8ff" points="386.5,-52.88 396.5,-49.38 386.5,-45.88 386.5,-52.88"/>
</a>
</g>
</g>
</g>
</svg>
