<?xml version="1.0" encoding="UTF-8" standalone="no"?>
<!DOCTYPE svg PUBLIC "-//W3C//DTD SVG 1.1//EN"
 "http://www.w3.org/Graphics/SVG/1.1/DTD/svg11.dtd">
<!-- Generated by graphviz version 12.2.1 (20241206.2353)
 -->
<!-- Title: fl::XMap::convertToLookUpTable Pages: 1 -->
<svg width="423pt" height="68pt"
 viewBox="0.00 0.00 422.75 67.75" xmlns="http://www.w3.org/2000/svg" xmlns:xlink="http://www.w3.org/1999/xlink">
<g id="graph0" class="graph" transform="scale(1 1) rotate(0) translate(4 63.75)">
<title>fl::XMap::convertToLookUpTable</title>
<!-- Node1 -->
<g id="Node000001" class="node">
<title>Node1</title>
<g id="a_Node000001"><a xlink:title=" ">
<polygon fill="#999999" stroke="#666666" points="145.75,-46.12 0,-46.12 0,-12.62 145.75,-12.62 145.75,-46.12"/>
<text text-anchor="start" x="8" y="-32.62" font-family="Helvetica,sans-Serif" font-size="10.00">fl::XMap::convertToLookUp</text>
<text text-anchor="middle" x="72.88" y="-19.88" font-family="Helvetica,sans-Serif" font-size="10.00">Table</text>
</a>
</g>
</g>
<!-- Node2 -->
<g id="Node000002" class="node">
<title>Node2</title>
<g id="a_Node000002"><a xlink:href="../../d7/d6c/classfl_1_1_x_map.html#a28d82b3ef7bafdf7c03f9f6870f9ff34" target="_top" xlink:title=" ">
<polygon fill="white" stroke="#666666" points="302.75,-39.75 181.75,-39.75 181.75,-19 302.75,-19 302.75,-39.75"/>
<text text-anchor="middle" x="242.25" y="-26.25" font-family="Helvetica,sans-Serif" font-size="10.00">fl::XMap::mapToIndex</text>
</a>
</g>
</g>
<!-- Node1&#45;&gt;Node2 -->
<g id="edge1_Node000001_Node000002" class="edge">
<title>Node1&#45;&gt;Node2</title>
<g id="a_edge1_Node000001_Node000002"><a xlink:title=" ">
<path fill="none" stroke="#63b8ff" d="M145.83,-29.38C153.9,-29.38 162.12,-29.38 170.17,-29.38"/>
<polygon fill="#63b8ff" stroke="#63b8ff" points="169.92,-32.88 179.92,-29.38 169.92,-25.88 169.92,-32.88"/>
</a>
</g>
</g>
<!-- Node3 -->
<g id="Node000003" class="node">
<title>Node3</title>
<g id="a_Node000003"><a xlink:href="../../d4/d36/namespacefl.html#ab4423d58fcba9954b507dd846059dbba" target="_top" xlink:title=" ">
<polygon fill="white" stroke="#666666" points="410.25,-59.75 343.25,-59.75 343.25,-39 410.25,-39 410.25,-59.75"/>
<text text-anchor="middle" x="376.75" y="-46.25" font-family="Helvetica,sans-Serif" font-size="10.00">fl::x_linear</text>
</a>
</g>
</g>
<!-- Node2&#45;&gt;Node3 -->
<g id="edge2_Node000002_Node000003" class="edge">
<title>Node2&#45;&gt;Node3</title>
<g id="a_edge2_Node000002_Node000003"><a xlink:title=" ">
<path fill="none" stroke="#63b8ff" d="M302.91,-38.38C312.57,-39.84 322.42,-41.32 331.62,-42.71"/>
<polygon fill="#63b8ff" stroke="#63b8ff" points="330.97,-46.15 341.38,-44.19 332.01,-39.23 330.97,-46.15"/>
</a>
</g>
</g>
<!-- Node4 -->
<g id="Node000004" class="node">
<title>Node4</title>
<g id="a_Node000004"><a xlink:href="../../d4/d36/namespacefl.html#afe6c153e1d4fc2ea710f3e0687b182c6" target="_top" xlink:title=" ">
<polygon fill="white" stroke="#666666" points="414.75,-20.75 338.75,-20.75 338.75,0 414.75,0 414.75,-20.75"/>
<text text-anchor="middle" x="376.75" y="-7.25" font-family="Helvetica,sans-Serif" font-size="10.00">fl::x_reverse</text>
</a>
</g>
</g>
<!-- Node2&#45;&gt;Node4 -->
<g id="edge3_Node000002_Node000004" class="edge">
<title>Node2&#45;&gt;Node4</title>
<g id="a_edge3_Node000002_Node000004"><a xlink:title=" ">
<path fill="none" stroke="#63b8ff" d="M302.91,-20.82C311.03,-19.66 319.29,-18.47 327.18,-17.34"/>
<polygon fill="#63b8ff" stroke="#63b8ff" points="327.53,-20.82 336.94,-15.94 326.54,-13.9 327.53,-20.82"/>
</a>
</g>
</g>
</g>
</svg>
