<?xml version="1.0" encoding="UTF-8" standalone="no"?>
<!DOCTYPE svg PUBLIC "-//W3C//DTD SVG 1.1//EN"
 "http://www.w3.org/Graphics/SVG/1.1/DTD/svg11.dtd">
<!-- Generated by graphviz version 12.2.1 (20241206.2353)
 -->
<!-- Title: fl::XMap::mapToIndex Pages: 1 -->
<svg width="311pt" height="119pt"
 viewBox="0.00 0.00 310.75 119.12" xmlns="http://www.w3.org/2000/svg" xmlns:xlink="http://www.w3.org/1999/xlink">
<g id="graph0" class="graph" transform="scale(1 1) rotate(0) translate(4 115.12)">
<title>fl::XMap::mapToIndex</title>
<!-- Node1 -->
<g id="Node000001" class="node">
<title>Node1</title>
<g id="a_Node000001"><a xlink:title=" ">
<polygon fill="#999999" stroke="#666666" points="302.75,-59.75 181.75,-59.75 181.75,-39 302.75,-39 302.75,-59.75"/>
<text text-anchor="middle" x="242.25" y="-46.25" font-family="Helvetica,sans-Serif" font-size="10.00">fl::XMap::mapToIndex</text>
</a>
</g>
</g>
<!-- Node2 -->
<g id="Node000002" class="node">
<title>Node2</title>
<g id="a_Node000002"><a xlink:href="../../d7/d6c/classfl_1_1_x_map.html#a04e4862b857692b252a94614a9981b92" target="_top" xlink:title=" ">
<polygon fill="white" stroke="#666666" points="145.75,-111.12 0,-111.12 0,-77.62 145.75,-77.62 145.75,-111.12"/>
<text text-anchor="start" x="8" y="-97.62" font-family="Helvetica,sans-Serif" font-size="10.00">fl::XMap::convertToLookUp</text>
<text text-anchor="middle" x="72.88" y="-84.88" font-family="Helvetica,sans-Serif" font-size="10.00">Table</text>
</a>
</g>
</g>
<!-- Node1&#45;&gt;Node2 -->
<g id="edge1_Node000001_Node000002" class="edge">
<title>Node1&#45;&gt;Node2</title>
<g id="a_edge1_Node000001_Node000002"><a xlink:title=" ">
<path fill="none" stroke="#63b8ff" d="M190.1,-63.13C173.61,-67.56 155.12,-72.53 137.82,-77.18"/>
<polygon fill="#63b8ff" stroke="#63b8ff" points="190.95,-66.52 199.7,-60.55 189.13,-59.76 190.95,-66.52"/>
</a>
</g>
</g>
<!-- Node3 -->
<g id="Node000003" class="node">
<title>Node3</title>
<g id="a_Node000003"><a xlink:href="../../d7/d6c/classfl_1_1_x_map.html#a8ac6e76db940c78fde31b6311cccebfd" target="_top" xlink:title=" ">
<polygon fill="white" stroke="#666666" points="128.12,-59.75 17.62,-59.75 17.62,-39 128.12,-39 128.12,-59.75"/>
<text text-anchor="middle" x="72.88" y="-46.25" font-family="Helvetica,sans-Serif" font-size="10.00">fl::XMap::operator()</text>
</a>
</g>
</g>
<!-- Node1&#45;&gt;Node3 -->
<g id="edge2_Node000001_Node000003" class="edge">
<title>Node1&#45;&gt;Node3</title>
<g id="a_edge2_Node000001_Node000003"><a xlink:title=" ">
<path fill="none" stroke="#63b8ff" d="M169.79,-49.38C155.93,-49.38 141.61,-49.38 128.4,-49.38"/>
<polygon fill="#63b8ff" stroke="#63b8ff" points="169.78,-52.88 179.78,-49.38 169.78,-45.88 169.78,-52.88"/>
</a>
</g>
</g>
<!-- Node4 -->
<g id="Node000004" class="node">
<title>Node4</title>
<g id="a_Node000004"><a xlink:href="../../d4/d1c/classfl_1_1_fx1d.html#af79937e1d2c324f033bedd18d419766a" target="_top" xlink:title=" ">
<polygon fill="white" stroke="#666666" points="118.38,-20.75 27.38,-20.75 27.38,0 118.38,0 118.38,-20.75"/>
<text text-anchor="middle" x="72.88" y="-7.25" font-family="Helvetica,sans-Serif" font-size="10.00">fl::Fx1d::xyMap</text>
</a>
</g>
</g>
<!-- Node1&#45;&gt;Node4 -->
<g id="edge3_Node000001_Node000004" class="edge">
<title>Node1&#45;&gt;Node4</title>
<g id="a_edge3_Node000001_Node000004"><a xlink:title=" ">
<path fill="none" stroke="#63b8ff" d="M183.49,-35.92C162.31,-30.98 138.69,-25.48 118.81,-20.84"/>
<polygon fill="#63b8ff" stroke="#63b8ff" points="182.62,-39.31 193.15,-38.17 184.21,-32.49 182.62,-39.31"/>
</a>
</g>
</g>
</g>
</svg>
