<?xml version="1.0" encoding="UTF-8" standalone="no"?>
<!DOCTYPE svg PUBLIC "-//W3C//DTD SVG 1.1//EN"
 "http://www.w3.org/Graphics/SVG/1.1/DTD/svg11.dtd">
<!-- Generated by graphviz version 12.2.1 (20241206.2353)
 -->
<!-- Title: /home/runner/work/FastLED/FastLED/src/fl/types.h Pages: 1 -->
<svg width="1863pt" height="439pt"
 viewBox="0.00 0.00 1862.62 438.75" xmlns="http://www.w3.org/2000/svg" xmlns:xlink="http://www.w3.org/1999/xlink">
<g id="graph0" class="graph" transform="scale(1 1) rotate(0) translate(4 434.75)">
<title>/home/runner/work/FastLED/FastLED/src/fl/types.h</title>
<!-- Node1 -->
<g id="Node000001" class="node">
<title>Node1</title>
<g id="a_Node000001"><a xlink:title=" ">
<polygon fill="#999999" stroke="#666666" points="293.38,-430.75 143.88,-430.75 143.88,-397.25 293.38,-397.25 293.38,-430.75"/>
<text text-anchor="start" x="151.88" y="-417.25" font-family="Helvetica,sans-Serif" font-size="10.00">/home/runner/work/FastLED</text>
<text text-anchor="middle" x="218.62" y="-404.5" font-family="Helvetica,sans-Serif" font-size="10.00">/FastLED/src/fl/types.h</text>
</a>
</g>
</g>
<!-- Node2 -->
<g id="Node000002" class="node">
<title>Node2</title>
<g id="a_Node000002"><a xlink:href="../../d9/d3e/led__sysdefs_8h.html" target="_top" xlink:title="Determines which platform system definitions to include.">
<polygon fill="white" stroke="#666666" points="572,-361.25 489.25,-361.25 489.25,-340.5 572,-340.5 572,-361.25"/>
<text text-anchor="middle" x="530.62" y="-347.75" font-family="Helvetica,sans-Serif" font-size="10.00">led_sysdefs.h</text>
</a>
</g>
</g>
<!-- Node1&#45;&gt;Node2 -->
<g id="edge1_Node000001_Node000002" class="edge">
<title>Node1&#45;&gt;Node2</title>
<g id="a_edge1_Node000001_Node000002"><a xlink:title=" ">
<path fill="none" stroke="#63b8ff" d="M293.75,-398.28C350.75,-387.11 427.65,-372.05 478.16,-362.15"/>
<polygon fill="#63b8ff" stroke="#63b8ff" points="478.52,-365.65 487.66,-360.29 477.17,-358.78 478.52,-365.65"/>
</a>
</g>
</g>
<!-- Node19 -->
<g id="Node000019" class="node">
<title>Node19</title>
<g id="a_Node000019"><a xlink:href="../../df/d2a/namespace_8h.html" target="_top" xlink:title="Implements the FastLED namespace macros.">
<polygon fill="white" stroke="#666666" points="373.75,-77.5 283.5,-77.5 283.5,-56.75 373.75,-56.75 373.75,-77.5"/>
<text text-anchor="middle" x="328.62" y="-64" font-family="Helvetica,sans-Serif" font-size="10.00">fl/namespace.h</text>
</a>
</g>
</g>
<!-- Node1&#45;&gt;Node19 -->
<g id="edge70_Node000001_Node000019" class="edge">
<title>Node1&#45;&gt;Node19</title>
<g id="a_edge70_Node000001_Node000019"><a xlink:title=" ">
<path fill="none" stroke="#63b8ff" d="M181.16,-396.89C121.07,-368.43 12.79,-304.83 42.62,-227 78.28,-133.99 199.29,-93.85 271.99,-77.8"/>
<polygon fill="#63b8ff" stroke="#63b8ff" points="272.68,-81.23 281.74,-75.74 271.23,-74.38 272.68,-81.23"/>
</a>
</g>
</g>
<!-- Node3 -->
<g id="Node000003" class="node">
<title>Node3</title>
<g id="a_Node000003"><a xlink:href="../../db/d97/_fast_l_e_d_8h.html" target="_top" xlink:title="central include file for FastLED, defines the CFastLED class/object">
<polygon fill="white" stroke="#666666" points="906.25,-304.5 843,-304.5 843,-283.75 906.25,-283.75 906.25,-304.5"/>
<text text-anchor="middle" x="874.62" y="-291" font-family="Helvetica,sans-Serif" font-size="10.00">FastLED.h</text>
</a>
</g>
</g>
<!-- Node2&#45;&gt;Node3 -->
<g id="edge2_Node000002_Node000003" class="edge">
<title>Node2&#45;&gt;Node3</title>
<g id="a_edge2_Node000002_Node000003"><a xlink:title=" ">
<path fill="none" stroke="#63b8ff" d="M572.23,-342.49C637.85,-331.61 764.46,-311.48 831.19,-301.33"/>
<polygon fill="#63b8ff" stroke="#63b8ff" points="831.68,-304.79 841.04,-299.84 830.63,-297.87 831.68,-304.79"/>
</a>
</g>
</g>
<!-- Node10 -->
<g id="Node000010" class="node">
<title>Node10</title>
<g id="a_Node000010"><a xlink:href="../../d5/d11/fastled__config_8h.html" target="_top" xlink:title="Contains definitions that can be used to configure FastLED at compile time.">
<polygon fill="white" stroke="#666666" points="1701.25,-191 1608,-191 1608,-170.25 1701.25,-170.25 1701.25,-191"/>
<text text-anchor="middle" x="1654.62" y="-177.5" font-family="Helvetica,sans-Serif" font-size="10.00">fastled_config.h</text>
</a>
</g>
</g>
<!-- Node2&#45;&gt;Node10 -->
<g id="edge68_Node000002_Node000010" class="edge">
<title>Node2&#45;&gt;Node10</title>
<g id="a_edge68_Node000002_Node000010"><a xlink:title=" ">
<path fill="none" stroke="#63b8ff" d="M572.45,-349.78C782.18,-348.9 1712.7,-339.79 1797.62,-247.75 1827.26,-215.63 1764.2,-197.85 1712.61,-189.01"/>
<polygon fill="#63b8ff" stroke="#63b8ff" points="1713.4,-185.6 1702.97,-187.46 1712.28,-192.51 1713.4,-185.6"/>
</a>
</g>
</g>
<!-- Node2&#45;&gt;Node19 -->
<g id="edge69_Node000002_Node000019" class="edge">
<title>Node2&#45;&gt;Node19</title>
<g id="a_edge69_Node000002_Node000019"><a xlink:title=" ">
<path fill="none" stroke="#63b8ff" d="M488.97,-347.67C382.35,-341.03 104.18,-317.27 50.62,-247.75 45,-240.44 46.22,-235.1 50.62,-227 61.69,-206.64 205.23,-124.51 225.62,-113.5 247.39,-101.75 272.8,-90.53 292.95,-82.18"/>
<polygon fill="#63b8ff" stroke="#63b8ff" points="294.2,-85.45 302.14,-78.43 291.55,-78.97 294.2,-85.45"/>
</a>
</g>
</g>
<!-- Node3&#45;&gt;Node2 -->
<g id="edge10_Node000003_Node000002" class="edge">
<title>Node3&#45;&gt;Node2</title>
<g id="a_edge10_Node000003_Node000002"><a xlink:title=" ">
<path fill="none" stroke="#63b8ff" d="M842.59,-300.92C783.21,-310.85 655.97,-331.13 583.62,-342.21"/>
<polygon fill="#63b8ff" stroke="#63b8ff" points="583.35,-338.71 573.99,-343.68 584.41,-345.63 583.35,-338.71"/>
</a>
</g>
</g>
<!-- Node4 -->
<g id="Node000004" class="node">
<title>Node4</title>
<g id="a_Node000004"><a xlink:title=" ">
<polygon fill="#e0e0e0" stroke="#999999" points="1479,-20.75 1426.25,-20.75 1426.25,0 1479,0 1479,-20.75"/>
<text text-anchor="middle" x="1452.62" y="-7.25" font-family="Helvetica,sans-Serif" font-size="10.00">stdint.h</text>
</a>
</g>
</g>
<!-- Node3&#45;&gt;Node4 -->
<g id="edge3_Node000003_Node000004" class="edge">
<title>Node3&#45;&gt;Node4</title>
<g id="a_edge3_Node000003_Node000004"><a xlink:title=" ">
<path fill="none" stroke="#63b8ff" d="M906.58,-293.04C1059.91,-292.43 1716.22,-287.5 1797.62,-247.75 1832.49,-230.72 1854.62,-220.43 1854.62,-181.62 1854.62,-181.62 1854.62,-181.62 1854.62,-122.88 1854.62,-47.8 1590.97,-21.19 1490.7,-13.79"/>
<polygon fill="#63b8ff" stroke="#63b8ff" points="1491.05,-10.31 1480.82,-13.09 1490.55,-17.29 1491.05,-10.31"/>
</a>
</g>
</g>
<!-- Node5 -->
<g id="Node000005" class="node">
<title>Node5</title>
<g id="a_Node000005"><a xlink:title=" ">
<polygon fill="#e0e0e0" stroke="#999999" points="957.5,-247.75 871.75,-247.75 871.75,-227 957.5,-227 957.5,-247.75"/>
<text text-anchor="middle" x="914.62" y="-234.25" font-family="Helvetica,sans-Serif" font-size="10.00">SmartMatrix.h</text>
</a>
</g>
</g>
<!-- Node3&#45;&gt;Node5 -->
<g id="edge4_Node000003_Node000005" class="edge">
<title>Node3&#45;&gt;Node5</title>
<g id="a_edge4_Node000003_Node000005"><a xlink:title=" ">
<path fill="none" stroke="#63b8ff" d="M881.78,-283.34C887.07,-276.1 894.44,-266.01 900.85,-257.22"/>
<polygon fill="#63b8ff" stroke="#63b8ff" points="903.57,-259.44 906.64,-249.3 897.92,-255.31 903.57,-259.44"/>
</a>
</g>
</g>
<!-- Node6 -->
<g id="Node000006" class="node">
<title>Node6</title>
<g id="a_Node000006"><a xlink:title=" ">
<polygon fill="#e0e0e0" stroke="#999999" points="1063.25,-247.75 976,-247.75 976,-227 1063.25,-227 1063.25,-247.75"/>
<text text-anchor="middle" x="1019.62" y="-234.25" font-family="Helvetica,sans-Serif" font-size="10.00">OctoWS2811.h</text>
</a>
</g>
</g>
<!-- Node3&#45;&gt;Node6 -->
<g id="edge5_Node000003_Node000006" class="edge">
<title>Node3&#45;&gt;Node6</title>
<g id="a_edge5_Node000003_Node000006"><a xlink:title=" ">
<path fill="none" stroke="#63b8ff" d="M900.55,-283.34C923.64,-274.62 957.67,-261.77 983.44,-252.04"/>
<polygon fill="#63b8ff" stroke="#63b8ff" points="984.39,-255.42 992.51,-248.61 981.92,-248.87 984.39,-255.42"/>
</a>
</g>
</g>
<!-- Node7 -->
<g id="Node000007" class="node">
<title>Node7</title>
<g id="a_Node000007"><a xlink:href="../../d8/d2d/fl_2force__inline_8h.html" target="_top" xlink:title=" ">
<polygon fill="white" stroke="#666666" points="594.12,-191 503.12,-191 503.12,-170.25 594.12,-170.25 594.12,-191"/>
<text text-anchor="middle" x="548.62" y="-177.5" font-family="Helvetica,sans-Serif" font-size="10.00">fl/force_inline.h</text>
</a>
</g>
</g>
<!-- Node3&#45;&gt;Node7 -->
<g id="edge6_Node000003_Node000007" class="edge">
<title>Node3&#45;&gt;Node7</title>
<g id="a_edge6_Node000003_Node000007"><a xlink:title=" ">
<path fill="none" stroke="#63b8ff" d="M842.58,-288.15C804.18,-281.58 738.28,-268.38 684.62,-247.75 666.66,-240.84 663.81,-235.66 646.62,-227 625.11,-216.16 600.5,-204.77 581.33,-196.11"/>
<polygon fill="#63b8ff" stroke="#63b8ff" points="582.95,-193 572.39,-192.1 580.08,-199.39 582.95,-193"/>
</a>
</g>
</g>
<!-- Node8 -->
<g id="Node000008" class="node">
<title>Node8</title>
<g id="a_Node000008"><a xlink:href="../../d9/d13/cpp__compat_8h.html" target="_top" xlink:title="Compatibility functions based on C++ version.">
<polygon fill="#fff0f0" stroke="red" points="1272.75,-247.75 1188.5,-247.75 1188.5,-227 1272.75,-227 1272.75,-247.75"/>
<text text-anchor="middle" x="1230.62" y="-234.25" font-family="Helvetica,sans-Serif" font-size="10.00">cpp_compat.h</text>
</a>
</g>
</g>
<!-- Node3&#45;&gt;Node8 -->
<g id="edge7_Node000003_Node000008" class="edge">
<title>Node3&#45;&gt;Node8</title>
<g id="a_edge7_Node000003_Node000008"><a xlink:title=" ">
<path fill="none" stroke="#63b8ff" d="M906.36,-287.9C960.57,-279.81 1073.8,-263.54 1169.62,-247.75 1172.05,-247.35 1174.54,-246.93 1177.06,-246.5"/>
<polygon fill="#63b8ff" stroke="#63b8ff" points="1177.49,-249.98 1186.75,-244.83 1176.3,-243.08 1177.49,-249.98"/>
</a>
</g>
</g>
<!-- Node3&#45;&gt;Node10 -->
<g id="edge9_Node000003_Node000010" class="edge">
<title>Node3&#45;&gt;Node10</title>
<g id="a_edge9_Node000003_Node000010"><a xlink:title=" ">
<path fill="none" stroke="#63b8ff" d="M906.47,-293.43C1025.42,-294.2 1443.15,-293.52 1566.62,-247.75 1594.44,-237.44 1620.89,-215.31 1637.39,-199.5"/>
<polygon fill="#63b8ff" stroke="#63b8ff" points="1639.77,-202.07 1644.41,-192.54 1634.84,-197.1 1639.77,-202.07"/>
</a>
</g>
</g>
<!-- Node11 -->
<g id="Node000011" class="node">
<title>Node11</title>
<g id="a_Node000011"><a xlink:href="../../d0/da8/fastled__delay_8h.html" target="_top" xlink:title="Utility functions and classes for managing delay cycles.">
<polygon fill="white" stroke="#666666" points="263.38,-247.75 173.88,-247.75 173.88,-227 263.38,-227 263.38,-247.75"/>
<text text-anchor="middle" x="218.62" y="-234.25" font-family="Helvetica,sans-Serif" font-size="10.00">fastled_delay.h</text>
</a>
</g>
</g>
<!-- Node3&#45;&gt;Node11 -->
<g id="edge11_Node000003_Node000011" class="edge">
<title>Node3&#45;&gt;Node11</title>
<g id="a_edge11_Node000003_Node000011"><a xlink:title=" ">
<path fill="none" stroke="#63b8ff" d="M842.65,-291.81C753.53,-287.69 495.72,-273.82 274.78,-248.43"/>
<polygon fill="#63b8ff" stroke="#63b8ff" points="275.46,-244.99 265.12,-247.31 274.65,-251.94 275.46,-244.99"/>
</a>
</g>
</g>
<!-- Node12 -->
<g id="Node000012" class="node">
<title>Node12</title>
<g id="a_Node000012"><a xlink:href="../../de/ded/bitswap_8h.html" target="_top" xlink:title="Functions for doing a rotation of bits/bytes used by parallel output.">
<polygon fill="white" stroke="#666666" points="637.25,-247.75 574,-247.75 574,-227 637.25,-227 637.25,-247.75"/>
<text text-anchor="middle" x="605.62" y="-234.25" font-family="Helvetica,sans-Serif" font-size="10.00">bitswap.h</text>
</a>
</g>
</g>
<!-- Node3&#45;&gt;Node12 -->
<g id="edge15_Node000003_Node000012" class="edge">
<title>Node3&#45;&gt;Node12</title>
<g id="a_edge15_Node000003_Node000012"><a xlink:title=" ">
<path fill="none" stroke="#63b8ff" d="M842.51,-287.75C799.64,-279.67 721.75,-263.86 648.5,-248.95"/>
<polygon fill="#63b8ff" stroke="#63b8ff" points="649.25,-245.53 638.75,-246.96 647.85,-252.38 649.25,-245.53"/>
</a>
</g>
</g>
<!-- Node13 -->
<g id="Node000013" class="node">
<title>Node13</title>
<g id="a_Node000013"><a xlink:href="../../d2/dd9/controller_8h.html" target="_top" xlink:title="deprecated: base definitions used by led controllers for writing out led data">
<polygon fill="#fff0f0" stroke="red" points="1392,-191 1321.25,-191 1321.25,-170.25 1392,-170.25 1392,-191"/>
<text text-anchor="middle" x="1356.62" y="-177.5" font-family="Helvetica,sans-Serif" font-size="10.00">controller.h</text>
</a>
</g>
</g>
<!-- Node3&#45;&gt;Node13 -->
<g id="edge18_Node000003_Node000013" class="edge">
<title>Node3&#45;&gt;Node13</title>
<g id="a_edge18_Node000003_Node000013"><a xlink:title=" ">
<path fill="none" stroke="#63b8ff" d="M906.75,-293.05C995.01,-292.35 1239.19,-286.82 1307.62,-247.75 1326,-237.26 1339.51,-216.79 1347.64,-201.38"/>
<polygon fill="#63b8ff" stroke="#63b8ff" points="1350.66,-203.16 1351.93,-192.64 1344.38,-200.07 1350.66,-203.16"/>
</a>
</g>
</g>
<!-- Node62 -->
<g id="Node000062" class="node">
<title>Node62</title>
<g id="a_Node000062"><a xlink:href="../../db/d65/fastpin_8h.html" target="_top" xlink:title="Class base definitions for defining fast pin access.">
<polygon fill="#fff0f0" stroke="red" points="118,-247.75 59.25,-247.75 59.25,-227 118,-227 118,-247.75"/>
<text text-anchor="middle" x="88.62" y="-234.25" font-family="Helvetica,sans-Serif" font-size="10.00">fastpin.h</text>
</a>
</g>
</g>
<!-- Node3&#45;&gt;Node62 -->
<g id="edge19_Node000003_Node000062" class="edge">
<title>Node3&#45;&gt;Node62</title>
<g id="a_edge19_Node000003_Node000062"><a xlink:title=" ">
<path fill="none" stroke="#63b8ff" d="M842.53,-292.96C739.36,-292.05 408.02,-286.26 129.62,-248.65"/>
<polygon fill="#63b8ff" stroke="#63b8ff" points="130.37,-245.22 119.99,-247.33 129.42,-252.16 130.37,-245.22"/>
</a>
</g>
</g>
<!-- Node63 -->
<g id="Node000063" class="node">
<title>Node63</title>
<g id="a_Node000063"><a xlink:href="../../d2/ddb/fastspi__types_8h.html" target="_top" xlink:title="Data types and constants used by SPI interfaces.">
<polygon fill="#fff0f0" stroke="red" points="409.75,-247.75 319.5,-247.75 319.5,-227 409.75,-227 409.75,-247.75"/>
<text text-anchor="middle" x="364.62" y="-234.25" font-family="Helvetica,sans-Serif" font-size="10.00">fastspi_types.h</text>
</a>
</g>
</g>
<!-- Node3&#45;&gt;Node63 -->
<g id="edge22_Node000003_Node000063" class="edge">
<title>Node3&#45;&gt;Node63</title>
<g id="a_edge22_Node000003_Node000063"><a xlink:title=" ">
<path fill="none" stroke="#63b8ff" d="M842.54,-290.7C769.74,-285.02 586.25,-269.79 421.53,-247.91"/>
<polygon fill="#63b8ff" stroke="#63b8ff" points="422.08,-244.46 411.71,-246.6 421.15,-251.39 422.08,-244.46"/>
</a>
</g>
</g>
<!-- Node64 -->
<g id="Node000064" class="node">
<title>Node64</title>
<g id="a_Node000064"><a xlink:href="../../d3/de1/dmx_8h.html" target="_top" xlink:title="Defines the DMX512&#45;based LED controllers.">
<polygon fill="#fff0f0" stroke="red" points="475,-247.75 428.25,-247.75 428.25,-227 475,-227 475,-247.75"/>
<text text-anchor="middle" x="451.62" y="-234.25" font-family="Helvetica,sans-Serif" font-size="10.00">dmx.h</text>
</a>
</g>
</g>
<!-- Node3&#45;&gt;Node64 -->
<g id="edge25_Node000003_Node000064" class="edge">
<title>Node3&#45;&gt;Node64</title>
<g id="a_edge25_Node000003_Node000064"><a xlink:title=" ">
<path fill="none" stroke="#63b8ff" d="M842.74,-291.56C776.32,-287.64 619.13,-275.86 486.54,-250.11"/>
<polygon fill="#63b8ff" stroke="#63b8ff" points="487.39,-246.72 476.9,-248.2 486.03,-253.58 487.39,-246.72"/>
</a>
</g>
</g>
<!-- Node67 -->
<g id="Node000067" class="node">
<title>Node67</title>
<g id="a_Node000067"><a xlink:href="../../da/dc9/platforms_8h.html" target="_top" xlink:title="Determines which platforms headers to include.">
<polygon fill="#fff0f0" stroke="red" points="1690.75,-247.75 1618.5,-247.75 1618.5,-227 1690.75,-227 1690.75,-247.75"/>
<text text-anchor="middle" x="1654.62" y="-234.25" font-family="Helvetica,sans-Serif" font-size="10.00">platforms.h</text>
</a>
</g>
</g>
<!-- Node3&#45;&gt;Node67 -->
<g id="edge27_Node000003_Node000067" class="edge">
<title>Node3&#45;&gt;Node67</title>
<g id="a_edge27_Node000003_Node000067"><a xlink:title=" ">
<path fill="none" stroke="#63b8ff" d="M906.47,-292.46C1007.77,-290.15 1330.37,-280.73 1595.62,-247.75 1599.38,-247.28 1603.27,-246.71 1607.2,-246.08"/>
<polygon fill="#63b8ff" stroke="#63b8ff" points="1607.5,-249.58 1616.77,-244.45 1606.32,-242.68 1607.5,-249.58"/>
</a>
</g>
</g>
<!-- Node69 -->
<g id="Node000069" class="node">
<title>Node69</title>
<g id="a_Node000069"><a xlink:href="../../df/dab/fastled__progmem_8h.html" target="_top" xlink:title="Wrapper definitions to allow seamless use of PROGMEM in environments that have it.">
<polygon fill="white" stroke="#666666" points="835.25,-134.25 724,-134.25 724,-113.5 835.25,-113.5 835.25,-134.25"/>
<text text-anchor="middle" x="779.62" y="-120.75" font-family="Helvetica,sans-Serif" font-size="10.00">fastled_progmem.h</text>
</a>
</g>
</g>
<!-- Node3&#45;&gt;Node69 -->
<g id="edge30_Node000003_Node000069" class="edge">
<title>Node3&#45;&gt;Node69</title>
<g id="a_edge30_Node000003_Node000069"><a xlink:title=" ">
<path fill="none" stroke="#63b8ff" d="M854.41,-283.37C840.39,-275.6 822.37,-263.43 811.62,-247.75 790.31,-216.64 783.19,-172.23 780.82,-146.19"/>
<polygon fill="#63b8ff" stroke="#63b8ff" points="784.31,-145.95 780.08,-136.23 777.33,-146.46 784.31,-145.95"/>
</a>
</g>
</g>
<!-- Node17 -->
<g id="Node000017" class="node">
<title>Node17</title>
<g id="a_Node000017"><a xlink:href="../../df/da5/lib8tion_8h.html" target="_top" xlink:title="Fast, efficient 8&#45;bit math functions specifically designed for high&#45;performance LED programming.">
<polygon fill="#fff0f0" stroke="red" points="1450.5,-77.5 1388.75,-77.5 1388.75,-56.75 1450.5,-56.75 1450.5,-77.5"/>
<text text-anchor="middle" x="1419.62" y="-64" font-family="Helvetica,sans-Serif" font-size="10.00">lib8tion.h</text>
</a>
</g>
</g>
<!-- Node3&#45;&gt;Node17 -->
<g id="edge32_Node000003_Node000017" class="edge">
<title>Node3&#45;&gt;Node17</title>
<g id="a_edge32_Node000003_Node000017"><a xlink:title=" ">
<path fill="none" stroke="#63b8ff" d="M862.86,-283.53C852.05,-269.64 840.97,-243.76 853.62,-227 917.74,-142.04 1256.72,-88.95 1377.21,-73.12"/>
<polygon fill="#63b8ff" stroke="#63b8ff" points="1377.53,-76.61 1387,-71.85 1376.63,-69.66 1377.53,-76.61"/>
</a>
</g>
</g>
<!-- Node16 -->
<g id="Node000016" class="node">
<title>Node16</title>
<g id="a_Node000016"><a xlink:href="../../d2/dba/pixeltypes_8h.html" target="_top" xlink:title="Includes defintions for RGB and HSV pixels.">
<polygon fill="#fff0f0" stroke="red" points="1523.25,-134.25 1448,-134.25 1448,-113.5 1523.25,-113.5 1523.25,-134.25"/>
<text text-anchor="middle" x="1485.62" y="-120.75" font-family="Helvetica,sans-Serif" font-size="10.00">pixeltypes.h</text>
</a>
</g>
</g>
<!-- Node3&#45;&gt;Node16 -->
<g id="edge35_Node000003_Node000016" class="edge">
<title>Node3&#45;&gt;Node16</title>
<g id="a_edge35_Node000003_Node000016"><a xlink:title=" ">
<path fill="none" stroke="#63b8ff" d="M906.64,-293.42C1032.76,-294.23 1490.49,-293.96 1533.62,-247.75 1561.86,-217.5 1526.32,-168.74 1502.97,-142.66"/>
<polygon fill="#63b8ff" stroke="#63b8ff" points="1505.75,-140.51 1496.38,-135.56 1500.62,-145.27 1505.75,-140.51"/>
</a>
</g>
</g>
<!-- Node70 -->
<g id="Node000070" class="node">
<title>Node70</title>
<g id="a_Node000070"><a xlink:href="../../de/d9a/hsv2rgb_8h.html" target="_top" xlink:title="Functions to convert from the HSV colorspace to the RGB colorspace.">
<polygon fill="white" stroke="#666666" points="1524.62,-247.75 1460.62,-247.75 1460.62,-227 1524.62,-227 1524.62,-247.75"/>
<text text-anchor="middle" x="1492.62" y="-234.25" font-family="Helvetica,sans-Serif" font-size="10.00">hsv2rgb.h</text>
</a>
</g>
</g>
<!-- Node3&#45;&gt;Node70 -->
<g id="edge38_Node000003_Node000070" class="edge">
<title>Node3&#45;&gt;Node70</title>
<g id="a_edge38_Node000003_Node000070"><a xlink:title=" ">
<path fill="none" stroke="#63b8ff" d="M906.53,-292.11C993.3,-289.17 1239.74,-278.75 1442.62,-247.75 1444.74,-247.43 1446.9,-247.06 1449.09,-246.65"/>
<polygon fill="#63b8ff" stroke="#63b8ff" points="1449.55,-250.13 1458.66,-244.72 1448.17,-243.27 1449.55,-250.13"/>
</a>
</g>
</g>
<!-- Node71 -->
<g id="Node000071" class="node">
<title>Node71</title>
<g id="a_Node000071"><a xlink:href="../../d1/dfb/colorutils_8h.html" target="_top" xlink:title="Utility functions for color fill, palettes, blending, and more.">
<polygon fill="#fff0f0" stroke="red" points="1303.62,-191 1233.62,-191 1233.62,-170.25 1303.62,-170.25 1303.62,-191"/>
<text text-anchor="middle" x="1268.62" y="-177.5" font-family="Helvetica,sans-Serif" font-size="10.00">colorutils.h</text>
</a>
</g>
</g>
<!-- Node3&#45;&gt;Node71 -->
<g id="edge41_Node000003_Node000071" class="edge">
<title>Node3&#45;&gt;Node71</title>
<g id="a_edge41_Node000003_Node000071"><a xlink:title=" ">
<path fill="none" stroke="#63b8ff" d="M906.71,-291.79C997.13,-287.91 1248.09,-275.17 1272.62,-247.75 1283.71,-235.37 1278.49,-216.37 1273.19,-201.91"/>
<polygon fill="#63b8ff" stroke="#63b8ff" points="1276.59,-201.01 1269.76,-192.91 1270.05,-203.5 1276.59,-201.01"/>
</a>
</g>
</g>
<!-- Node73 -->
<g id="Node000073" class="node">
<title>Node73</title>
<g id="a_Node000073"><a xlink:href="../../d4/d46/pixelset_8h.html" target="_top" xlink:title="Declares classes for managing logical groups of LEDs.">
<polygon fill="#fff0f0" stroke="red" points="556.25,-247.75 493,-247.75 493,-227 556.25,-227 556.25,-247.75"/>
<text text-anchor="middle" x="524.62" y="-234.25" font-family="Helvetica,sans-Serif" font-size="10.00">pixelset.h</text>
</a>
</g>
</g>
<!-- Node3&#45;&gt;Node73 -->
<g id="edge45_Node000003_Node000073" class="edge">
<title>Node3&#45;&gt;Node73</title>
<g id="a_edge45_Node000003_Node000073"><a xlink:title=" ">
<path fill="none" stroke="#63b8ff" d="M842.94,-290C787.35,-283.76 669.25,-268.75 567.59,-249.99"/>
<polygon fill="#63b8ff" stroke="#63b8ff" points="568.5,-246.6 558.03,-248.2 567.22,-253.48 568.5,-246.6"/>
</a>
</g>
</g>
<!-- Node75 -->
<g id="Node000075" class="node">
<title>Node75</title>
<g id="a_Node000075"><a xlink:href="../../dc/dcc/colorpalettes_8h.html" target="_top" xlink:title="Declarations for the predefined color palettes supplied by FastLED.">
<polygon fill="white" stroke="#666666" points="1170,-247.75 1081.25,-247.75 1081.25,-227 1170,-227 1170,-247.75"/>
<text text-anchor="middle" x="1125.62" y="-234.25" font-family="Helvetica,sans-Serif" font-size="10.00">colorpalettes.h</text>
</a>
</g>
</g>
<!-- Node3&#45;&gt;Node75 -->
<g id="edge49_Node000003_Node000075" class="edge">
<title>Node3&#45;&gt;Node75</title>
<g id="a_edge49_Node000003_Node000075"><a xlink:title=" ">
<path fill="none" stroke="#63b8ff" d="M906.71,-285.05C947.88,-275.59 1019.71,-259.88 1069.88,-249.33"/>
<polygon fill="#63b8ff" stroke="#63b8ff" points="1070.31,-252.81 1079.38,-247.34 1068.88,-245.96 1070.31,-252.81"/>
</a>
</g>
</g>
<!-- Node76 -->
<g id="Node000076" class="node">
<title>Node76</title>
<g id="a_Node000076"><a xlink:href="../../d1/d31/noise_8h.html" target="_top" xlink:title="Functions to generate and fill arrays with noise.">
<polygon fill="#fff0f0" stroke="red" points="51.25,-134.25 0,-134.25 0,-113.5 51.25,-113.5 51.25,-134.25"/>
<text text-anchor="middle" x="25.62" y="-120.75" font-family="Helvetica,sans-Serif" font-size="10.00">noise.h</text>
</a>
</g>
</g>
<!-- Node3&#45;&gt;Node76 -->
<g id="edge52_Node000003_Node000076" class="edge">
<title>Node3&#45;&gt;Node76</title>
<g id="a_edge52_Node000003_Node000076"><a xlink:title=" ">
<path fill="none" stroke="#63b8ff" d="M842.86,-292.3C713.18,-288.79 227.78,-274 164.62,-247.75 110.08,-225.08 62.36,-171.84 39.67,-143.46"/>
<polygon fill="#63b8ff" stroke="#63b8ff" points="42.56,-141.47 33.65,-135.74 37.04,-145.78 42.56,-141.47"/>
</a>
</g>
</g>
<!-- Node77 -->
<g id="Node000077" class="node">
<title>Node77</title>
<g id="a_Node000077"><a xlink:href="../../dc/d5b/power__mgt_8h.html" target="_top" xlink:title="Functions to limit the power used by FastLED.">
<polygon fill="white" stroke="#666666" points="1788.5,-247.75 1708.75,-247.75 1708.75,-227 1788.5,-227 1788.5,-247.75"/>
<text text-anchor="middle" x="1748.62" y="-234.25" font-family="Helvetica,sans-Serif" font-size="10.00">power_mgt.h</text>
</a>
</g>
</g>
<!-- Node3&#45;&gt;Node77 -->
<g id="edge55_Node000003_Node000077" class="edge">
<title>Node3&#45;&gt;Node77</title>
<g id="a_edge55_Node000003_Node000077"><a xlink:title=" ">
<path fill="none" stroke="#63b8ff" d="M906.38,-292.87C1015.88,-291.68 1386.64,-285.02 1690.62,-247.75 1692.78,-247.49 1694.99,-247.18 1697.23,-246.85"/>
<polygon fill="#63b8ff" stroke="#63b8ff" points="1697.72,-250.32 1707.02,-245.25 1696.59,-243.41 1697.72,-250.32"/>
</a>
</g>
</g>
<!-- Node78 -->
<g id="Node000078" class="node">
<title>Node78</title>
<g id="a_Node000078"><a xlink:href="../../d6/ddc/fastspi_8h.html" target="_top" xlink:title="Serial peripheral interface (SPI) definitions per platform.">
<polygon fill="#fff0f0" stroke="red" points="1442.62,-247.75 1384.62,-247.75 1384.62,-227 1442.62,-227 1442.62,-247.75"/>
<text text-anchor="middle" x="1413.62" y="-234.25" font-family="Helvetica,sans-Serif" font-size="10.00">fastspi.h</text>
</a>
</g>
</g>
<!-- Node3&#45;&gt;Node78 -->
<g id="edge58_Node000003_Node000078" class="edge">
<title>Node3&#45;&gt;Node78</title>
<g id="a_edge58_Node000003_Node000078"><a xlink:title=" ">
<path fill="none" stroke="#63b8ff" d="M906.49,-291.33C984.63,-286.94 1190.92,-274.06 1361.62,-247.75 1365.36,-247.17 1369.26,-246.47 1373.19,-245.71"/>
<polygon fill="#63b8ff" stroke="#63b8ff" points="1373.61,-249.19 1382.72,-243.78 1372.22,-242.33 1373.61,-249.19"/>
</a>
</g>
</g>
<!-- Node80 -->
<g id="Node000080" class="node">
<title>Node80</title>
<g id="a_Node000080"><a xlink:href="../../db/d66/chipsets_8h.html" target="_top" xlink:title="Contains the bulk of the definitions for the various LED chipsets supported.">
<polygon fill="#fff0f0" stroke="red" points="759.38,-247.75 693.88,-247.75 693.88,-227 759.38,-227 759.38,-247.75"/>
<text text-anchor="middle" x="726.62" y="-234.25" font-family="Helvetica,sans-Serif" font-size="10.00">chipsets.h</text>
</a>
</g>
</g>
<!-- Node3&#45;&gt;Node80 -->
<g id="edge62_Node000003_Node000080" class="edge">
<title>Node3&#45;&gt;Node80</title>
<g id="a_edge62_Node000003_Node000080"><a xlink:title=" ">
<path fill="none" stroke="#63b8ff" d="M848.17,-283.34C824.59,-274.62 789.86,-261.77 763.56,-252.04"/>
<polygon fill="#63b8ff" stroke="#63b8ff" points="764.87,-248.79 754.27,-248.6 762.44,-255.36 764.87,-248.79"/>
</a>
</g>
</g>
<!-- Node48 -->
<g id="Node000048" class="node">
<title>Node48</title>
<g id="a_Node000048"><a xlink:href="../../dc/dd9/fl_2engine__events_8h.html" target="_top" xlink:title=" ">
<polygon fill="#fff0f0" stroke="red" points="340.25,-134.25 235,-134.25 235,-113.5 340.25,-113.5 340.25,-134.25"/>
<text text-anchor="middle" x="287.62" y="-120.75" font-family="Helvetica,sans-Serif" font-size="10.00">fl/engine_events.h</text>
</a>
</g>
</g>
<!-- Node3&#45;&gt;Node48 -->
<g id="edge66_Node000003_Node000048" class="edge">
<title>Node3&#45;&gt;Node48</title>
<g id="a_edge66_Node000003_Node000048"><a xlink:title=" ">
<path fill="none" stroke="#63b8ff" d="M842.89,-292.78C729.68,-291.25 350.32,-283.49 310.62,-247.75 282.23,-222.19 282.01,-173.68 284.64,-145.87"/>
<polygon fill="#63b8ff" stroke="#63b8ff" points="288.09,-146.55 285.79,-136.21 281.14,-145.73 288.09,-146.55"/>
</a>
</g>
</g>
<!-- Node8&#45;&gt;Node3 -->
<g id="edge8_Node000008_Node000003" class="edge">
<title>Node8&#45;&gt;Node3</title>
<g id="a_edge8_Node000008_Node000003"><a xlink:title=" ">
<path fill="none" stroke="#63b8ff" d="M1188.17,-247.66C1187.99,-247.69 1187.81,-247.72 1187.62,-247.75 1091.66,-263.56 978.26,-279.86 917.63,-287.93"/>
<polygon fill="#63b8ff" stroke="#63b8ff" points="917.55,-284.41 908.09,-289.19 918.46,-291.35 917.55,-284.41"/>
</a>
</g>
</g>
<!-- Node11&#45;&gt;Node1 -->
<g id="edge13_Node000011_Node000001" class="edge">
<title>Node11&#45;&gt;Node1</title>
<g id="a_edge13_Node000011_Node000001"><a xlink:title=" ">
<path fill="none" stroke="#63b8ff" d="M218.62,-248.04C218.62,-273.94 218.62,-345.58 218.62,-385.4"/>
<polygon fill="#63b8ff" stroke="#63b8ff" points="215.13,-385.37 218.63,-395.37 222.13,-385.37 215.13,-385.37"/>
</a>
</g>
</g>
<!-- Node11&#45;&gt;Node3 -->
<g id="edge12_Node000011_Node000003" class="edge">
<title>Node11&#45;&gt;Node3</title>
<g id="a_edge12_Node000011_Node000003"><a xlink:title=" ">
<path fill="none" stroke="#63b8ff" d="M263.55,-244.59C271.3,-245.76 279.21,-246.88 286.62,-247.75 489.79,-271.57 733.38,-285.58 831.11,-290.79"/>
<polygon fill="#63b8ff" stroke="#63b8ff" points="830.88,-294.28 841.05,-291.31 831.25,-287.29 830.88,-294.28"/>
</a>
</g>
</g>
<!-- Node11&#45;&gt;Node7 -->
<g id="edge14_Node000011_Node000007" class="edge">
<title>Node11&#45;&gt;Node7</title>
<g id="a_edge14_Node000011_Node000007"><a xlink:title=" ">
<path fill="none" stroke="#63b8ff" d="M263.82,-228.88C323.02,-219.06 426.86,-201.83 491.46,-191.11"/>
<polygon fill="#63b8ff" stroke="#63b8ff" points="491.87,-194.59 501.16,-189.5 490.72,-187.68 491.87,-194.59"/>
</a>
</g>
</g>
<!-- Node12&#45;&gt;Node3 -->
<g id="edge16_Node000012_Node000003" class="edge">
<title>Node12&#45;&gt;Node3</title>
<g id="a_edge16_Node000012_Node000003"><a xlink:title=" ">
<path fill="none" stroke="#63b8ff" d="M637.61,-243.15C645.27,-244.62 653.28,-246.25 660.62,-247.75 720.02,-259.85 788.33,-273.74 831.59,-282.94"/>
<polygon fill="#63b8ff" stroke="#63b8ff" points="830.84,-286.35 841.35,-285.02 832.3,-279.51 830.84,-286.35"/>
</a>
</g>
</g>
<!-- Node12&#45;&gt;Node7 -->
<g id="edge17_Node000012_Node000007" class="edge">
<title>Node12&#45;&gt;Node7</title>
<g id="a_edge17_Node000012_Node000007"><a xlink:title=" ">
<path fill="none" stroke="#63b8ff" d="M595.43,-226.59C587.49,-218.96 576.26,-208.17 566.79,-199.07"/>
<polygon fill="#63b8ff" stroke="#63b8ff" points="569.46,-196.78 559.82,-192.38 564.61,-201.83 569.46,-196.78"/>
</a>
</g>
</g>
<!-- Node62&#45;&gt;Node2 -->
<g id="edge21_Node000062_Node000002" class="edge">
<title>Node62&#45;&gt;Node2</title>
<g id="a_edge21_Node000062_Node000002"><a xlink:title=" ">
<path fill="none" stroke="#63b8ff" d="M118.26,-245.85C192.71,-264.63 388.26,-313.96 480.77,-337.3"/>
<polygon fill="#63b8ff" stroke="#63b8ff" points="479.77,-340.66 490.32,-339.71 481.48,-333.87 479.77,-340.66"/>
</a>
</g>
</g>
<!-- Node62&#45;&gt;Node3 -->
<g id="edge20_Node000062_Node000003" class="edge">
<title>Node62&#45;&gt;Node3</title>
<g id="a_edge20_Node000062_Node000003"><a xlink:title=" ">
<path fill="none" stroke="#63b8ff" d="M118.5,-243.7C125.82,-245.24 133.51,-246.76 140.62,-247.75 401.49,-283.93 717.87,-291.26 831.53,-292.75"/>
<polygon fill="#63b8ff" stroke="#63b8ff" points="831.26,-296.24 841.31,-292.87 831.35,-289.25 831.26,-296.24"/>
</a>
</g>
</g>
<!-- Node63&#45;&gt;Node7 -->
<g id="edge23_Node000063_Node000007" class="edge">
<title>Node63&#45;&gt;Node7</title>
<g id="a_edge23_Node000063_Node000007"><a xlink:title=" ">
<path fill="none" stroke="#63b8ff" d="M397.52,-226.59C427.52,-217.66 472.05,-204.41 505.01,-194.6"/>
<polygon fill="#63b8ff" stroke="#63b8ff" points="505.67,-198.06 514.25,-191.85 503.67,-191.35 505.67,-198.06"/>
</a>
</g>
</g>
<!-- Node63&#45;&gt;Node19 -->
<g id="edge24_Node000063_Node000019" class="edge">
<title>Node63&#45;&gt;Node19</title>
<g id="a_edge24_Node000063_Node000019"><a xlink:title=" ">
<path fill="none" stroke="#63b8ff" d="M364.46,-226.61C363.88,-205.55 361.28,-154.42 349.62,-113.5 347.16,-104.86 343.26,-95.79 339.49,-88.06"/>
<polygon fill="#63b8ff" stroke="#63b8ff" points="342.62,-86.49 334.92,-79.22 336.4,-89.71 342.62,-86.49"/>
</a>
</g>
</g>
<!-- Node64&#45;&gt;Node3 -->
<g id="edge26_Node000064_Node000003" class="edge">
<title>Node64&#45;&gt;Node3</title>
<g id="a_edge26_Node000064_Node000003"><a xlink:title=" ">
<path fill="none" stroke="#63b8ff" d="M475.29,-243.39C481.07,-244.98 487.07,-246.62 492.62,-247.75 614.27,-272.44 760.13,-284.94 831.4,-290.11"/>
<polygon fill="#63b8ff" stroke="#63b8ff" points="830.85,-293.58 841.08,-290.8 831.35,-286.6 830.85,-293.58"/>
</a>
</g>
</g>
<!-- Node67&#45;&gt;Node3 -->
<g id="edge28_Node000067_Node000003" class="edge">
<title>Node67&#45;&gt;Node3</title>
<g id="a_edge28_Node000067_Node000003"><a xlink:title=" ">
<path fill="none" stroke="#63b8ff" d="M1618.15,-247.15C1616.63,-247.36 1615.11,-247.56 1613.62,-247.75 1351.05,-280.4 1032.27,-289.96 917.9,-292.39"/>
<polygon fill="#63b8ff" stroke="#63b8ff" points="917.98,-288.89 908.05,-292.59 918.12,-295.88 917.98,-288.89"/>
</a>
</g>
</g>
<!-- Node67&#45;&gt;Node10 -->
<g id="edge29_Node000067_Node000010" class="edge">
<title>Node67&#45;&gt;Node10</title>
<g id="a_edge29_Node000067_Node000010"><a xlink:title=" ">
<path fill="none" stroke="#63b8ff" d="M1654.62,-226.59C1654.62,-219.97 1654.62,-210.97 1654.62,-202.77"/>
<polygon fill="#63b8ff" stroke="#63b8ff" points="1658.13,-202.84 1654.63,-192.84 1651.13,-202.84 1658.13,-202.84"/>
</a>
</g>
</g>
<!-- Node69&#45;&gt;Node19 -->
<g id="edge31_Node000069_Node000019" class="edge">
<title>Node69&#45;&gt;Node19</title>
<g id="a_edge31_Node000069_Node000019"><a xlink:title=" ">
<path fill="none" stroke="#63b8ff" d="M723.87,-116.11C637.49,-105.62 472.22,-85.56 385.28,-75"/>
<polygon fill="#63b8ff" stroke="#63b8ff" points="385.91,-71.55 375.57,-73.82 385.07,-78.5 385.91,-71.55"/>
</a>
</g>
</g>
<!-- Node17&#45;&gt;Node3 -->
<g id="edge33_Node000017_Node000003" class="edge">
<title>Node17&#45;&gt;Node3</title>
<g id="a_edge33_Node000017_Node000003"><a xlink:title=" ">
<path fill="none" stroke="#63b8ff" d="M1388.54,-72.62C1282.12,-87.8 936.44,-141.11 871.62,-227 861.74,-240.1 866.34,-258.76 871,-272.92"/>
<polygon fill="#63b8ff" stroke="#63b8ff" points="867.59,-273.76 874.12,-282.1 874.21,-271.51 867.59,-273.76"/>
</a>
</g>
</g>
<!-- Node17&#45;&gt;Node4 -->
<g id="edge34_Node000017_Node000004" class="edge">
<title>Node17&#45;&gt;Node4</title>
<g id="a_edge34_Node000017_Node000004"><a xlink:title=" ">
<path fill="none" stroke="#63b8ff" d="M1425.52,-56.34C1429.8,-49.25 1435.71,-39.44 1440.92,-30.79"/>
<polygon fill="#63b8ff" stroke="#63b8ff" points="1443.83,-32.75 1446,-22.37 1437.84,-29.13 1443.83,-32.75"/>
</a>
</g>
</g>
<!-- Node16&#45;&gt;Node4 -->
<g id="edge36_Node000016_Node000004" class="edge">
<title>Node16&#45;&gt;Node4</title>
<g id="a_edge36_Node000016_Node000004"><a xlink:title=" ">
<path fill="none" stroke="#63b8ff" d="M1482.81,-113.37C1477.5,-95.44 1465.91,-56.25 1458.73,-32.01"/>
<polygon fill="#63b8ff" stroke="#63b8ff" points="1462.15,-31.22 1455.96,-22.63 1455.44,-33.21 1462.15,-31.22"/>
</a>
</g>
</g>
<!-- Node16&#45;&gt;Node17 -->
<g id="edge37_Node000016_Node000017" class="edge">
<title>Node16&#45;&gt;Node17</title>
<g id="a_edge37_Node000016_Node000017"><a xlink:title=" ">
<path fill="none" stroke="#63b8ff" d="M1473.83,-113.09C1464.44,-105.3 1451.09,-94.22 1439.98,-85.01"/>
<polygon fill="#63b8ff" stroke="#63b8ff" points="1442.42,-82.49 1432.49,-78.79 1437.95,-87.87 1442.42,-82.49"/>
</a>
</g>
</g>
<!-- Node70&#45;&gt;Node3 -->
<g id="edge39_Node000070_Node000003" class="edge">
<title>Node70&#45;&gt;Node3</title>
<g id="a_edge39_Node000070_Node000003"><a xlink:title=" ">
<path fill="none" stroke="#63b8ff" d="M1460.32,-247.8C1259.42,-278.47 1015.92,-288.97 918.15,-292.03"/>
<polygon fill="#63b8ff" stroke="#63b8ff" points="918.09,-288.53 908.2,-292.33 918.31,-295.52 918.09,-288.53"/>
</a>
</g>
</g>
<!-- Node70&#45;&gt;Node16 -->
<g id="edge40_Node000070_Node000016" class="edge">
<title>Node70&#45;&gt;Node16</title>
<g id="a_edge40_Node000070_Node000016"><a xlink:title=" ">
<path fill="none" stroke="#63b8ff" d="M1492.03,-226.87C1490.91,-209.02 1488.46,-170.11 1486.94,-145.84"/>
<polygon fill="#63b8ff" stroke="#63b8ff" points="1490.45,-145.95 1486.34,-136.19 1483.47,-146.39 1490.45,-145.95"/>
</a>
</g>
</g>
<!-- Node71&#45;&gt;Node3 -->
<g id="edge42_Node000071_Node000003" class="edge">
<title>Node71&#45;&gt;Node3</title>
<g id="a_edge42_Node000071_Node000003"><a xlink:title=" ">
<path fill="none" stroke="#63b8ff" d="M1280.97,-191.5C1292.54,-205.74 1304.67,-232.06 1290.62,-247.75 1266.31,-274.92 1019.65,-287.68 917.94,-291.68"/>
<polygon fill="#63b8ff" stroke="#63b8ff" points="917.94,-288.18 908.08,-292.06 918.21,-295.17 917.94,-288.18"/>
</a>
</g>
</g>
<!-- Node71&#45;&gt;Node69 -->
<g id="edge44_Node000071_Node000069" class="edge">
<title>Node71&#45;&gt;Node69</title>
<g id="a_edge44_Node000071_Node000069"><a xlink:title=" ">
<path fill="none" stroke="#63b8ff" d="M1233.46,-175.69C1152.53,-166.63 952.01,-144.18 846.69,-132.38"/>
<polygon fill="#63b8ff" stroke="#63b8ff" points="847.39,-128.94 837.07,-131.31 846.62,-135.9 847.39,-128.94"/>
</a>
</g>
</g>
<!-- Node71&#45;&gt;Node16 -->
<g id="edge43_Node000071_Node000016" class="edge">
<title>Node71&#45;&gt;Node16</title>
<g id="a_edge43_Node000071_Node000016"><a xlink:title=" ">
<path fill="none" stroke="#63b8ff" d="M1303.97,-170.71C1340.09,-161.59 1396.45,-147.38 1436.81,-137.19"/>
<polygon fill="#63b8ff" stroke="#63b8ff" points="1437.43,-140.64 1446.27,-134.8 1435.72,-133.86 1437.43,-140.64"/>
</a>
</g>
</g>
<!-- Node73&#45;&gt;Node3 -->
<g id="edge46_Node000073_Node000003" class="edge">
<title>Node73&#45;&gt;Node3</title>
<g id="a_edge46_Node000073_Node000003"><a xlink:title=" ">
<path fill="none" stroke="#63b8ff" d="M556.57,-244.16C562.31,-245.44 568.16,-246.71 573.62,-247.75 665.11,-265.13 772.88,-279.56 831.54,-287.21"/>
<polygon fill="#63b8ff" stroke="#63b8ff" points="831.08,-290.68 841.45,-288.5 831.98,-283.74 831.08,-290.68"/>
</a>
</g>
</g>
<!-- Node73&#45;&gt;Node7 -->
<g id="edge47_Node000073_Node000007" class="edge">
<title>Node73&#45;&gt;Node7</title>
<g id="a_edge47_Node000073_Node000007"><a xlink:title=" ">
<path fill="none" stroke="#63b8ff" d="M528.92,-226.59C531.95,-219.66 536.13,-210.12 539.86,-201.61"/>
<polygon fill="#63b8ff" stroke="#63b8ff" points="542.95,-203.28 543.76,-192.71 536.54,-200.47 542.95,-203.28"/>
</a>
</g>
</g>
<!-- Node73&#45;&gt;Node19 -->
<g id="edge48_Node000073_Node000019" class="edge">
<title>Node73&#45;&gt;Node19</title>
<g id="a_edge48_Node000073_Node000019"><a xlink:title=" ">
<path fill="none" stroke="#63b8ff" d="M513.24,-226.6C481.1,-199.01 389.38,-120.27 348.59,-85.27"/>
<polygon fill="#63b8ff" stroke="#63b8ff" points="351.06,-82.77 341.19,-78.91 346.5,-88.08 351.06,-82.77"/>
</a>
</g>
</g>
<!-- Node75&#45;&gt;Node3 -->
<g id="edge50_Node000075_Node000003" class="edge">
<title>Node75&#45;&gt;Node3</title>
<g id="a_edge50_Node000075_Node000003"><a xlink:title=" ">
<path fill="none" stroke="#63b8ff" d="M1085.99,-248.18C1040.1,-258.63 965.02,-274.98 917.72,-284.82"/>
<polygon fill="#63b8ff" stroke="#63b8ff" points="917.19,-281.35 908.1,-286.8 918.6,-288.21 917.19,-281.35"/>
</a>
</g>
</g>
<!-- Node75&#45;&gt;Node71 -->
<g id="edge51_Node000075_Node000071" class="edge">
<title>Node75&#45;&gt;Node71</title>
<g id="a_edge51_Node000075_Node000071"><a xlink:title=" ">
<path fill="none" stroke="#63b8ff" d="M1151.19,-226.59C1173.86,-217.91 1207.22,-205.13 1232.6,-195.42"/>
<polygon fill="#63b8ff" stroke="#63b8ff" points="1233.78,-198.71 1241.87,-191.87 1231.28,-192.18 1233.78,-198.71"/>
</a>
</g>
</g>
<!-- Node76&#45;&gt;Node4 -->
<g id="edge53_Node000076_Node000004" class="edge">
<title>Node76&#45;&gt;Node4</title>
<g id="a_edge53_Node000076_Node000004"><a xlink:title=" ">
<path fill="none" stroke="#63b8ff" d="M51.4,-114C96.16,-99.04 191.47,-69.24 274.62,-56.75 502.04,-22.6 1237.92,-13.44 1414.35,-11.71"/>
<polygon fill="#63b8ff" stroke="#63b8ff" points="1414.36,-15.21 1424.33,-11.62 1414.3,-8.21 1414.36,-15.21"/>
</a>
</g>
</g>
<!-- Node76&#45;&gt;Node19 -->
<g id="edge54_Node000076_Node000019" class="edge">
<title>Node76&#45;&gt;Node19</title>
<g id="a_edge54_Node000076_Node000019"><a xlink:title=" ">
<path fill="none" stroke="#63b8ff" d="M51.4,-116.6C56.12,-115.52 61.01,-114.44 65.62,-113.5 136.48,-99.1 218.68,-85.39 272.06,-76.89"/>
<polygon fill="#63b8ff" stroke="#63b8ff" points="272.51,-80.36 281.84,-75.34 271.41,-73.45 272.51,-80.36"/>
</a>
</g>
</g>
<!-- Node77&#45;&gt;Node3 -->
<g id="edge56_Node000077_Node000003" class="edge">
<title>Node77&#45;&gt;Node3</title>
<g id="a_edge56_Node000077_Node000003"><a xlink:title=" ">
<path fill="none" stroke="#63b8ff" d="M1708.17,-247.81C1407.56,-284.62 1041.83,-291.54 917.91,-292.83"/>
<polygon fill="#63b8ff" stroke="#63b8ff" points="918.17,-289.33 908.2,-292.92 918.23,-296.33 918.17,-289.33"/>
</a>
</g>
</g>
<!-- Node77&#45;&gt;Node16 -->
<g id="edge57_Node000077_Node000016" class="edge">
<title>Node77&#45;&gt;Node16</title>
<g id="a_edge57_Node000077_Node000016"><a xlink:title=" ">
<path fill="none" stroke="#63b8ff" d="M1745.84,-226.52C1741.14,-211.81 1730.18,-184.33 1710.62,-170.25 1683.02,-150.37 1592.15,-136.82 1534.69,-130.01"/>
<polygon fill="#63b8ff" stroke="#63b8ff" points="1535.16,-126.54 1524.82,-128.87 1534.36,-133.49 1535.16,-126.54"/>
</a>
</g>
</g>
<!-- Node78&#45;&gt;Node3 -->
<g id="edge59_Node000078_Node000003" class="edge">
<title>Node78&#45;&gt;Node3</title>
<g id="a_edge59_Node000078_Node000003"><a xlink:title=" ">
<path fill="none" stroke="#63b8ff" d="M1384.22,-246.99C1382.67,-247.26 1381.14,-247.52 1379.62,-247.75 1210.29,-273.85 1005.95,-286.73 918.06,-291.22"/>
<polygon fill="#63b8ff" stroke="#63b8ff" points="918.02,-287.72 908.2,-291.71 918.36,-294.71 918.02,-287.72"/>
</a>
</g>
</g>
<!-- Node78&#45;&gt;Node13 -->
<g id="edge60_Node000078_Node000013" class="edge">
<title>Node78&#45;&gt;Node13</title>
<g id="a_edge60_Node000078_Node000013"><a xlink:title=" ">
<path fill="none" stroke="#63b8ff" d="M1403.43,-226.59C1395.49,-218.96 1384.26,-208.17 1374.79,-199.07"/>
<polygon fill="#63b8ff" stroke="#63b8ff" points="1377.46,-196.78 1367.82,-192.38 1372.61,-201.83 1377.46,-196.78"/>
</a>
</g>
</g>
<!-- Node78&#45;&gt;Node17 -->
<g id="edge61_Node000078_Node000017" class="edge">
<title>Node78&#45;&gt;Node17</title>
<g id="a_edge61_Node000078_Node000017"><a xlink:title=" ">
<path fill="none" stroke="#63b8ff" d="M1413.96,-226.85C1414.91,-200.48 1417.56,-126.08 1418.87,-89.28"/>
<polygon fill="#63b8ff" stroke="#63b8ff" points="1422.36,-89.6 1419.22,-79.48 1415.37,-89.35 1422.36,-89.6"/>
</a>
</g>
</g>
<!-- Node80&#45;&gt;Node7 -->
<g id="edge64_Node000080_Node000007" class="edge">
<title>Node80&#45;&gt;Node7</title>
<g id="a_edge64_Node000080_Node000007"><a xlink:title=" ">
<path fill="none" stroke="#63b8ff" d="M694.8,-226.59C665.91,-217.7 623.07,-204.52 591.23,-194.73"/>
<polygon fill="#63b8ff" stroke="#63b8ff" points="592.51,-191.46 581.92,-191.87 590.45,-198.15 592.51,-191.46"/>
</a>
</g>
</g>
<!-- Node80&#45;&gt;Node19 -->
<g id="edge65_Node000080_Node000019" class="edge">
<title>Node80&#45;&gt;Node19</title>
<g id="a_edge65_Node000080_Node000019"><a xlink:title=" ">
<path fill="none" stroke="#63b8ff" d="M710.28,-226.65C687.05,-213.05 642.95,-188.02 603.62,-170.25 522.65,-133.66 424.31,-99.51 369.89,-81.47"/>
<polygon fill="#63b8ff" stroke="#63b8ff" points="371.32,-78.25 360.72,-78.44 369.13,-84.9 371.32,-78.25"/>
</a>
</g>
</g>
<!-- Node80&#45;&gt;Node16 -->
<g id="edge63_Node000080_Node000016" class="edge">
<title>Node80&#45;&gt;Node16</title>
<g id="a_edge63_Node000080_Node000016"><a xlink:title=" ">
<path fill="none" stroke="#63b8ff" d="M759.73,-231.51C880.01,-213.84 1294.37,-152.97 1436.96,-132.02"/>
<polygon fill="#63b8ff" stroke="#63b8ff" points="1437.05,-135.55 1446.44,-130.63 1436.04,-128.62 1437.05,-135.55"/>
</a>
</g>
</g>
<!-- Node48&#45;&gt;Node19 -->
<g id="edge67_Node000048_Node000019" class="edge">
<title>Node48&#45;&gt;Node19</title>
<g id="a_edge67_Node000048_Node000019"><a xlink:title=" ">
<path fill="none" stroke="#63b8ff" d="M294.95,-113.09C300.38,-105.85 307.93,-95.76 314.51,-86.97"/>
<polygon fill="#63b8ff" stroke="#63b8ff" points="317.26,-89.14 320.45,-79.04 311.66,-84.95 317.26,-89.14"/>
</a>
</g>
</g>
</g>
</svg>
