<?xml version="1.0" encoding="UTF-8" standalone="no"?>
<!DOCTYPE svg PUBLIC "-//W3C//DTD SVG 1.1//EN"
 "http://www.w3.org/Graphics/SVG/1.1/DTD/svg11.dtd">
<!-- Generated by graphviz version 12.2.1 (20241206.2353)
 -->
<!-- Title: fl::LUT::LUT Pages: 1 -->
<svg width="398pt" height="42pt"
 viewBox="0.00 0.00 398.00 41.50" xmlns="http://www.w3.org/2000/svg" xmlns:xlink="http://www.w3.org/1999/xlink">
<g id="graph0" class="graph" transform="scale(1 1) rotate(0) translate(4 37.5)">
<title>fl::LUT::LUT</title>
<!-- Node1 -->
<g id="Node000001" class="node">
<title>Node1</title>
<g id="a_Node000001"><a xlink:title=" ">
<polygon fill="#999999" stroke="#666666" points="70.75,-27.12 0,-27.12 0,-6.38 70.75,-6.38 70.75,-27.12"/>
<text text-anchor="middle" x="35.38" y="-13.62" font-family="Helvetica,sans-Serif" font-size="10.00">fl::LUT::LUT</text>
</a>
</g>
</g>
<!-- Node2 -->
<g id="Node000002" class="node">
<title>Node2</title>
<g id="a_Node000002"><a xlink:href="../../d1/de2/classfl_1_1_large_block_allocator.html#ad856621afa5c3bb9e8d417157f2c3d38" target="_top" xlink:title=" ">
<polygon fill="white" stroke="#666666" points="232.25,-33.5 106.75,-33.5 106.75,0 232.25,0 232.25,-33.5"/>
<text text-anchor="start" x="114.75" y="-20" font-family="Helvetica,sans-Serif" font-size="10.00">fl::LargeBlockAllocator</text>
<text text-anchor="middle" x="169.5" y="-7.25" font-family="Helvetica,sans-Serif" font-size="10.00">::Alloc</text>
</a>
</g>
</g>
<!-- Node1&#45;&gt;Node2 -->
<g id="edge1_Node000001_Node000002" class="edge">
<title>Node1&#45;&gt;Node2</title>
<g id="a_edge1_Node000001_Node000002"><a xlink:title=" ">
<path fill="none" stroke="#63b8ff" d="M71.09,-16.75C78.55,-16.75 86.71,-16.75 95.03,-16.75"/>
<polygon fill="#63b8ff" stroke="#63b8ff" points="94.91,-20.25 104.91,-16.75 94.91,-13.25 94.91,-20.25"/>
</a>
</g>
</g>
<!-- Node3 -->
<g id="Node000003" class="node">
<title>Node3</title>
<g id="a_Node000003"><a xlink:href="../../d4/d36/namespacefl.html#abbfba8ffcb35eb85959e52bc168242b2" target="_top" xlink:title=" ">
<polygon fill="white" stroke="#666666" points="390,-27.12 268.25,-27.12 268.25,-6.38 390,-6.38 390,-27.12"/>
<text text-anchor="middle" x="329.12" y="-13.62" font-family="Helvetica,sans-Serif" font-size="10.00">fl::LargeBlockAllocate</text>
</a>
</g>
</g>
<!-- Node2&#45;&gt;Node3 -->
<g id="edge2_Node000002_Node000003" class="edge">
<title>Node2&#45;&gt;Node3</title>
<g id="a_edge2_Node000002_Node000003"><a xlink:title=" ">
<path fill="none" stroke="#63b8ff" d="M232.35,-16.75C240.32,-16.75 248.53,-16.75 256.65,-16.75"/>
<polygon fill="#63b8ff" stroke="#63b8ff" points="256.49,-20.25 266.49,-16.75 256.49,-13.25 256.49,-20.25"/>
</a>
</g>
</g>
</g>
</svg>
