<?xml version="1.0" encoding="UTF-8" standalone="no"?>
<!DOCTYPE svg PUBLIC "-//W3C//DTD SVG 1.1//EN"
 "http://www.w3.org/Graphics/SVG/1.1/DTD/svg11.dtd">
<!-- Generated by graphviz version 12.2.1 (20241206.2353)
 -->
<!-- Title: fl::LUT::~LUT Pages: 1 -->
<svg width="419pt" height="42pt"
 viewBox="0.00 0.00 419.00 41.50" xmlns="http://www.w3.org/2000/svg" xmlns:xlink="http://www.w3.org/1999/xlink">
<g id="graph0" class="graph" transform="scale(1 1) rotate(0) translate(4 37.5)">
<title>fl::LUT::~LUT</title>
<!-- Node1 -->
<g id="Node000001" class="node">
<title>Node1</title>
<g id="a_Node000001"><a xlink:title=" ">
<polygon fill="#999999" stroke="#666666" points="79,-27.12 0,-27.12 0,-6.38 79,-6.38 79,-27.12"/>
<text text-anchor="middle" x="39.5" y="-13.62" font-family="Helvetica,sans-Serif" font-size="10.00">fl::LUT::~LUT</text>
</a>
</g>
</g>
<!-- Node2 -->
<g id="Node000002" class="node">
<title>Node2</title>
<g id="a_Node000002"><a xlink:href="../../d1/de2/classfl_1_1_large_block_allocator.html#ad9d7253fbb523baa27ea1d0d406aacc1" target="_top" xlink:title=" ">
<polygon fill="white" stroke="#666666" points="240.5,-33.5 115,-33.5 115,0 240.5,0 240.5,-33.5"/>
<text text-anchor="start" x="123" y="-20" font-family="Helvetica,sans-Serif" font-size="10.00">fl::LargeBlockAllocator</text>
<text text-anchor="middle" x="177.75" y="-7.25" font-family="Helvetica,sans-Serif" font-size="10.00">::Free</text>
</a>
</g>
</g>
<!-- Node1&#45;&gt;Node2 -->
<g id="edge1_Node000001_Node000002" class="edge">
<title>Node1&#45;&gt;Node2</title>
<g id="a_edge1_Node000001_Node000002"><a xlink:title=" ">
<path fill="none" stroke="#63b8ff" d="M79.18,-16.75C86.75,-16.75 94.93,-16.75 103.21,-16.75"/>
<polygon fill="#63b8ff" stroke="#63b8ff" points="103.01,-20.25 113.01,-16.75 103.01,-13.25 103.01,-20.25"/>
</a>
</g>
</g>
<!-- Node3 -->
<g id="Node000003" class="node">
<title>Node3</title>
<g id="a_Node000003"><a xlink:href="../../d4/d36/namespacefl.html#ab2b85462a826ee1c562964e9639eaa76" target="_top" xlink:title=" ">
<polygon fill="white" stroke="#666666" points="411,-27.12 276.5,-27.12 276.5,-6.38 411,-6.38 411,-27.12"/>
<text text-anchor="middle" x="343.75" y="-13.62" font-family="Helvetica,sans-Serif" font-size="10.00">fl::LargeBlockDeallocate</text>
</a>
</g>
</g>
<!-- Node2&#45;&gt;Node3 -->
<g id="edge2_Node000002_Node000003" class="edge">
<title>Node2&#45;&gt;Node3</title>
<g id="a_edge2_Node000002_Node000003"><a xlink:title=" ">
<path fill="none" stroke="#63b8ff" d="M240.75,-16.75C248.58,-16.75 256.67,-16.75 264.71,-16.75"/>
<polygon fill="#63b8ff" stroke="#63b8ff" points="264.49,-20.25 274.49,-16.75 264.49,-13.25 264.49,-20.25"/>
</a>
</g>
</g>
</g>
</svg>
