<?xml version="1.0" encoding="UTF-8" standalone="no"?>
<!DOCTYPE svg PUBLIC "-//W3C//DTD SVG 1.1//EN"
 "http://www.w3.org/Graphics/SVG/1.1/DTD/svg11.dtd">
<!-- Generated by graphviz version 12.2.1 (20241206.2353)
 -->
<!-- Title: fl::LUT::getData Pages: 1 -->
<svg width="653pt" height="204pt"
 viewBox="0.00 0.00 652.50 203.75" xmlns="http://www.w3.org/2000/svg" xmlns:xlink="http://www.w3.org/1999/xlink">
<g id="graph0" class="graph" transform="scale(1 1) rotate(0) translate(4 199.75)">
<title>fl::LUT::getData</title>
<!-- Node1 -->
<g id="Node000001" class="node">
<title>Node1</title>
<g id="a_Node000001"><a xlink:title=" ">
<polygon fill="#999999" stroke="#666666" points="644.5,-136.75 553.5,-136.75 553.5,-116 644.5,-116 644.5,-136.75"/>
<text text-anchor="middle" x="599" y="-123.25" font-family="Helvetica,sans-Serif" font-size="10.00">fl::LUT::getData</text>
</a>
</g>
</g>
<!-- Node2 -->
<g id="Node000002" class="node">
<title>Node2</title>
<g id="a_Node000002"><a xlink:href="../../d2/d78/classfl_1_1_screen_map.html#a0c9b11d8ee45df4455dbd7bfb6bcff8f" target="_top" xlink:title=" ">
<polygon fill="white" stroke="#666666" points="517.5,-195.75 375.5,-195.75 375.5,-175 517.5,-175 517.5,-195.75"/>
<text text-anchor="middle" x="446.5" y="-182.25" font-family="Helvetica,sans-Serif" font-size="10.00">fl::ScreenMap::ScreenMap</text>
</a>
</g>
</g>
<!-- Node1&#45;&gt;Node2 -->
<g id="edge1_Node000001_Node000002" class="edge">
<title>Node1&#45;&gt;Node2</title>
<g id="a_edge1_Node000001_Node000002"><a xlink:title=" ">
<path fill="none" stroke="#63b8ff" d="M568.08,-142.4C553.15,-150 534.66,-158.82 517.5,-165.38 508.64,-168.76 498.97,-171.87 489.72,-174.59"/>
<polygon fill="#63b8ff" stroke="#63b8ff" points="569.63,-145.54 576.9,-137.83 566.41,-139.32 569.63,-145.54"/>
</a>
</g>
</g>
<!-- Node3 -->
<g id="Node000003" class="node">
<title>Node3</title>
<g id="a_Node000003"><a xlink:href="../../d2/d78/classfl_1_1_screen_map.html#a96f5a8f8df1f733ea095104caa64d0d0" target="_top" xlink:title=" ">
<polygon fill="white" stroke="#666666" points="517.5,-156.75 375.5,-156.75 375.5,-136 517.5,-136 517.5,-156.75"/>
<text text-anchor="middle" x="446.5" y="-143.25" font-family="Helvetica,sans-Serif" font-size="10.00">fl::ScreenMap::ScreenMap</text>
</a>
</g>
</g>
<!-- Node1&#45;&gt;Node3 -->
<g id="edge2_Node000001_Node000003" class="edge">
<title>Node1&#45;&gt;Node3</title>
<g id="a_edge2_Node000001_Node000003"><a xlink:title=" ">
<path fill="none" stroke="#63b8ff" d="M541.94,-133.82C534.05,-134.87 525.85,-135.96 517.73,-137.04"/>
<polygon fill="#63b8ff" stroke="#63b8ff" points="542.3,-137.31 551.75,-132.52 541.38,-130.37 542.3,-137.31"/>
</a>
</g>
</g>
<!-- Node4 -->
<g id="Node000004" class="node">
<title>Node4</title>
<g id="a_Node000004"><a xlink:href="../../d2/d78/classfl_1_1_screen_map.html#aa5e391d04fafc29ded59b3f0dde56126" target="_top" xlink:title=" ">
<polygon fill="white" stroke="#666666" points="514.88,-117.75 378.12,-117.75 378.12,-97 514.88,-97 514.88,-117.75"/>
<text text-anchor="middle" x="446.5" y="-104.25" font-family="Helvetica,sans-Serif" font-size="10.00">fl::ScreenMap::operator[]</text>
</a>
</g>
</g>
<!-- Node1&#45;&gt;Node4 -->
<g id="edge3_Node000001_Node000004" class="edge">
<title>Node1&#45;&gt;Node4</title>
<g id="a_edge3_Node000001_Node000004"><a xlink:title=" ">
<path fill="none" stroke="#63b8ff" d="M542.02,-119.31C533.28,-118.2 524.17,-117.05 515.21,-115.92"/>
<polygon fill="#63b8ff" stroke="#63b8ff" points="541.39,-122.76 551.75,-120.54 542.27,-115.81 541.39,-122.76"/>
</a>
</g>
</g>
<!-- Node5 -->
<g id="Node000005" class="node">
<title>Node5</title>
<g id="a_Node000005"><a xlink:href="../../d2/d78/classfl_1_1_screen_map.html#aaad6e9afd5f117a174b9a6c9c4d679e6" target="_top" xlink:title=" ">
<polygon fill="white" stroke="#666666" points="498,-78.75 395,-78.75 395,-58 498,-58 498,-78.75"/>
<text text-anchor="middle" x="446.5" y="-65.25" font-family="Helvetica,sans-Serif" font-size="10.00">fl::ScreenMap::set</text>
</a>
</g>
</g>
<!-- Node1&#45;&gt;Node5 -->
<g id="edge4_Node000001_Node000005" class="edge">
<title>Node1&#45;&gt;Node5</title>
<g id="a_edge4_Node000001_Node000005"><a xlink:title=" ">
<path fill="none" stroke="#63b8ff" d="M567.42,-110.5C552.59,-103.18 534.38,-94.72 517.5,-88.38 508.63,-85.04 498.95,-81.94 489.69,-79.23"/>
<polygon fill="#63b8ff" stroke="#63b8ff" points="565.69,-113.55 576.2,-114.91 568.83,-107.29 565.69,-113.55"/>
</a>
</g>
</g>
<!-- Node6 -->
<g id="Node000006" class="node">
<title>Node6</title>
<g id="a_Node000006"><a xlink:href="../../d3/d78/namespaceanonymous__namespace_02_led_rope_t_c_l_8cpp_03.html#a47e8fc2af72127dbc485073a2248dfd2" target="_top" xlink:title=" ">
<polygon fill="white" stroke="#666666" points="339.5,-143.5 205,-143.5 205,-97.25 339.5,-97.25 339.5,-143.5"/>
<text text-anchor="start" x="213" y="-130" font-family="Helvetica,sans-Serif" font-size="10.00">anonymous_namespace</text>
<text text-anchor="start" x="213" y="-117.25" font-family="Helvetica,sans-Serif" font-size="10.00">{LedRopeTCL::cpp}::init</text>
<text text-anchor="middle" x="272.25" y="-104.5" font-family="Helvetica,sans-Serif" font-size="10.00">_screenmap</text>
</a>
</g>
</g>
<!-- Node5&#45;&gt;Node6 -->
<g id="edge5_Node000005_Node000006" class="edge">
<title>Node5&#45;&gt;Node6</title>
<g id="a_edge5_Node000005_Node000006"><a xlink:title=" ">
<path fill="none" stroke="#63b8ff" d="M396.17,-82.3C389.22,-84.31 382.17,-86.38 375.5,-88.38 363.92,-91.84 351.62,-95.61 339.73,-99.31"/>
<polygon fill="#63b8ff" stroke="#63b8ff" points="396.84,-85.75 405.48,-79.62 394.91,-79.02 396.84,-85.75"/>
</a>
</g>
</g>
<!-- Node7 -->
<g id="Node000007" class="node">
<title>Node7</title>
<g id="a_Node000007"><a xlink:href="../../d2/d78/classfl_1_1_screen_map.html#a9f8cd0b572681ab80ae7a5f781957279" target="_top" xlink:title=" ">
<polygon fill="white" stroke="#666666" points="339.5,-78.75 205,-78.75 205,-58 339.5,-58 339.5,-78.75"/>
<text text-anchor="middle" x="272.25" y="-65.25" font-family="Helvetica,sans-Serif" font-size="10.00">fl::ScreenMap::ParseJson</text>
</a>
</g>
</g>
<!-- Node5&#45;&gt;Node7 -->
<g id="edge6_Node000005_Node000007" class="edge">
<title>Node5&#45;&gt;Node7</title>
<g id="a_edge6_Node000005_Node000007"><a xlink:title=" ">
<path fill="none" stroke="#63b8ff" d="M383.62,-68.38C369.44,-68.38 354.3,-68.38 339.93,-68.38"/>
<polygon fill="#63b8ff" stroke="#63b8ff" points="383.24,-71.88 393.24,-68.38 383.24,-64.88 383.24,-71.88"/>
</a>
</g>
</g>
<!-- Node13 -->
<g id="Node000013" class="node">
<title>Node13</title>
<g id="a_Node000013"><a xlink:href="../../d0/dce/classfl_1_1_x_y_map.html#a464acdd5a6ce465a32fba1fda9862fa5" target="_top" xlink:title=" ">
<polygon fill="white" stroke="#666666" points="338,-39.75 206.5,-39.75 206.5,-19 338,-19 338,-39.75"/>
<text text-anchor="middle" x="272.25" y="-26.25" font-family="Helvetica,sans-Serif" font-size="10.00">fl::XYMap::toScreenMap</text>
</a>
</g>
</g>
<!-- Node5&#45;&gt;Node13 -->
<g id="edge11_Node000005_Node000013" class="edge">
<title>Node5&#45;&gt;Node13</title>
<g id="a_edge11_Node000005_Node000013"><a xlink:title=" ">
<path fill="none" stroke="#63b8ff" d="M386.34,-54.98C365.11,-50.17 341.44,-44.82 321.27,-40.25"/>
<polygon fill="#63b8ff" stroke="#63b8ff" points="385.52,-58.38 396.04,-57.18 387.06,-51.56 385.52,-58.38"/>
</a>
</g>
</g>
<!-- Node8 -->
<g id="Node000008" class="node">
<title>Node8</title>
<g id="a_Node000008"><a xlink:href="../../d2/d78/classfl_1_1_screen_map.html#a01e5310537235df9e8dc911692339a9b" target="_top" xlink:title=" ">
<polygon fill="white" stroke="#666666" points="151.75,-137.75 17.25,-137.75 17.25,-117 151.75,-117 151.75,-137.75"/>
<text text-anchor="middle" x="84.5" y="-124.25" font-family="Helvetica,sans-Serif" font-size="10.00">fl::ScreenMap::ParseJson</text>
</a>
</g>
</g>
<!-- Node7&#45;&gt;Node8 -->
<g id="edge7_Node000007_Node000008" class="edge">
<title>Node7&#45;&gt;Node8</title>
<g id="a_edge7_Node000007_Node000008"><a xlink:title=" ">
<path fill="none" stroke="#63b8ff" d="M220.24,-82.68C215.04,-84.47 209.88,-86.37 205,-88.38 188.26,-95.24 185.93,-101 169,-107.38 159.65,-110.9 149.48,-113.94 139.55,-116.53"/>
<polygon fill="#63b8ff" stroke="#63b8ff" points="221.02,-86.11 229.44,-79.68 218.85,-79.46 221.02,-86.11"/>
</a>
</g>
</g>
<!-- Node9 -->
<g id="Node000009" class="node">
<title>Node9</title>
<g id="a_Node000009"><a xlink:href="../../df/d37/classfl_1_1_file_system.html#a456623ea357257e417994ecb4daf7408" target="_top" xlink:title=" ">
<polygon fill="#fff0f0" stroke="red" points="166.38,-98.75 2.62,-98.75 2.62,-78 166.38,-78 166.38,-98.75"/>
<text text-anchor="middle" x="84.5" y="-85.25" font-family="Helvetica,sans-Serif" font-size="10.00">fl::FileSystem::readScreenMap</text>
</a>
</g>
</g>
<!-- Node7&#45;&gt;Node9 -->
<g id="edge8_Node000007_Node000009" class="edge">
<title>Node7&#45;&gt;Node9</title>
<g id="a_edge8_Node000007_Node000009"><a xlink:title=" ">
<path fill="none" stroke="#63b8ff" d="M193.33,-76.77C184.56,-77.71 175.62,-78.67 166.81,-79.62"/>
<polygon fill="#63b8ff" stroke="#63b8ff" points="193.64,-80.25 203.21,-75.7 192.89,-73.29 193.64,-80.25"/>
</a>
</g>
</g>
<!-- Node11 -->
<g id="Node000011" class="node">
<title>Node11</title>
<g id="a_Node000011"><a xlink:href="../../df/d37/classfl_1_1_file_system.html#a65df0d1c647d87b65a58e66e630b071d" target="_top" xlink:title=" ">
<polygon fill="white" stroke="#666666" points="169,-59.75 0,-59.75 0,-39 169,-39 169,-59.75"/>
<text text-anchor="middle" x="84.5" y="-46.25" font-family="Helvetica,sans-Serif" font-size="10.00">fl::FileSystem::readScreenMaps</text>
</a>
</g>
</g>
<!-- Node7&#45;&gt;Node11 -->
<g id="edge9_Node000007_Node000011" class="edge">
<title>Node7&#45;&gt;Node11</title>
<g id="a_edge9_Node000007_Node000011"><a xlink:title=" ">
<path fill="none" stroke="#63b8ff" d="M193.28,-60.4C185.39,-59.59 177.35,-58.77 169.39,-57.96"/>
<polygon fill="#63b8ff" stroke="#63b8ff" points="192.9,-63.88 203.21,-61.42 193.62,-56.92 192.9,-63.88"/>
</a>
</g>
</g>
<!-- Node12 -->
<g id="Node000012" class="node">
<title>Node12</title>
<g id="a_Node000012"><a xlink:href="../../d1/ddb/_chromancer_8ino.html#a4fc01d736fe50cf5b977f755b675f11d" target="_top" xlink:title=" ">
<polygon fill="white" stroke="#666666" points="106,-20.75 63,-20.75 63,0 106,0 106,-20.75"/>
<text text-anchor="middle" x="84.5" y="-7.25" font-family="Helvetica,sans-Serif" font-size="10.00">setup</text>
</a>
</g>
</g>
<!-- Node7&#45;&gt;Node12 -->
<g id="edge10_Node000007_Node000012" class="edge">
<title>Node7&#45;&gt;Node12</title>
<g id="a_edge10_Node000007_Node000012"><a xlink:title=" ">
<path fill="none" stroke="#63b8ff" d="M220.49,-54.03C215.22,-52.25 209.97,-50.35 205,-48.38 188.38,-41.77 185.81,-36.5 169,-30.38 148.27,-22.82 123.6,-17.32 106.48,-14.02"/>
<polygon fill="#63b8ff" stroke="#63b8ff" points="219.25,-57.3 229.84,-57.05 221.4,-50.64 219.25,-57.3"/>
</a>
</g>
</g>
</g>
</svg>
