<?xml version="1.0" encoding="UTF-8" standalone="no"?>
<!DOCTYPE svg PUBLIC "-//W3C//DTD SVG 1.1//EN"
 "http://www.w3.org/Graphics/SVG/1.1/DTD/svg11.dtd">
<!-- Generated by graphviz version 12.2.1 (20241206.2353)
 -->
<!-- Title: fl::Pacifica Pages: 1 -->
<svg width="265pt" height="251pt"
 viewBox="0.00 0.00 265.20 251.00" xmlns="http://www.w3.org/2000/svg" xmlns:xlink="http://www.w3.org/1999/xlink">
<g id="graph0" class="graph" transform="scale(1 1) rotate(0) translate(4 247)">
<title>fl::Pacifica</title>
<!-- Node1 -->
<g id="Node000001" class="node">
<title>Node1</title>
<g id="a_Node000001"><a xlink:title=" ">
<polygon fill="#999999" stroke="#666666" points="166.38,-20.75 101.62,-20.75 101.62,0 166.38,0 166.38,-20.75"/>
<text text-anchor="middle" x="134" y="-7.25" font-family="Helvetica,sans-Serif" font-size="10.00">fl::Pacifica</text>
</a>
</g>
</g>
<!-- Node2 -->
<g id="Node000002" class="node">
<title>Node2</title>
<g id="a_Node000002"><a xlink:href="../../d4/d1c/classfl_1_1_fx1d.html" target="_top" xlink:title=" ">
<polygon fill="white" stroke="#666666" points="116,-115.75 64,-115.75 64,-95 116,-95 116,-115.75"/>
<text text-anchor="middle" x="90" y="-102.25" font-family="Helvetica,sans-Serif" font-size="10.00">fl::Fx1d</text>
</a>
</g>
</g>
<!-- Node2&#45;&gt;Node1 -->
<g id="edge1_Node000001_Node000002" class="edge">
<title>Node2&#45;&gt;Node1</title>
<g id="a_edge1_Node000001_Node000002"><a xlink:title=" ">
<path fill="none" stroke="#63b8ff" d="M99.38,-84.55C108.62,-65.02 122.34,-36.02 129.42,-21.06"/>
<polygon fill="#63b8ff" stroke="#63b8ff" points="96.3,-82.87 95.19,-93.4 102.63,-85.86 96.3,-82.87"/>
</a>
</g>
</g>
<!-- Node3 -->
<g id="Node000003" class="node">
<title>Node3</title>
<g id="a_Node000003"><a xlink:href="../../da/d5d/classfl_1_1_fx.html" target="_top" xlink:title=" ">
<polygon fill="white" stroke="#666666" points="55,-185.25 15,-185.25 15,-164.5 55,-164.5 55,-185.25"/>
<text text-anchor="middle" x="35" y="-171.75" font-family="Helvetica,sans-Serif" font-size="10.00">fl::Fx</text>
</a>
</g>
</g>
<!-- Node3&#45;&gt;Node2 -->
<g id="edge2_Node000002_Node000003" class="edge">
<title>Node3&#45;&gt;Node2</title>
<g id="a_edge2_Node000002_Node000003"><a xlink:title=" ">
<path fill="none" stroke="#63b8ff" d="M50.1,-155.35C60.46,-142.62 73.81,-126.25 82.13,-116.03"/>
<polygon fill="#63b8ff" stroke="#63b8ff" points="47.44,-153.07 43.84,-163.03 52.87,-157.49 47.44,-153.07"/>
</a>
</g>
</g>
<!-- Node4 -->
<g id="Node000004" class="node">
<title>Node4</title>
<g id="a_Node000004"><a xlink:href="../../d6/d16/classfl_1_1_referent.html" target="_top" xlink:title=" ">
<polygon fill="#fff0f0" stroke="red" points="70,-243 0,-243 0,-222.25 70,-222.25 70,-243"/>
<text text-anchor="middle" x="35" y="-229.5" font-family="Helvetica,sans-Serif" font-size="10.00">fl::Referent</text>
</a>
</g>
</g>
<!-- Node4&#45;&gt;Node3 -->
<g id="edge3_Node000003_Node000004" class="edge">
<title>Node4&#45;&gt;Node3</title>
<g id="a_edge3_Node000003_Node000004"><a xlink:title=" ">
<path fill="none" stroke="#63b8ff" d="M35,-210.68C35,-202.02 35,-192.4 35,-185.47"/>
<polygon fill="#63b8ff" stroke="#63b8ff" points="31.5,-210.4 35,-220.4 38.5,-210.4 31.5,-210.4"/>
</a>
</g>
</g>
<!-- Node11 -->
<g id="Node000011" class="node">
<title>Node11</title>
<g id="a_Node000011"><a xlink:href="../../d7/d6c/classfl_1_1_x_map.html" target="_top" xlink:title=" ">
<polygon fill="white" stroke="#666666" points="128.88,-185.25 73.12,-185.25 73.12,-164.5 128.88,-164.5 128.88,-185.25"/>
<text text-anchor="middle" x="101" y="-171.75" font-family="Helvetica,sans-Serif" font-size="10.00">fl::XMap</text>
</a>
</g>
</g>
<!-- Node11&#45;&gt;Node2 -->
<g id="edge4_Node000002_Node000011" class="edge">
<title>Node11&#45;&gt;Node2</title>
<g id="a_edge4_Node000002_Node000011"><a xlink:title=" ">
<path fill="none" stroke="#9a32cd" stroke-dasharray="5,2" d="M97.61,-153.07C95.6,-140.72 93.14,-125.65 91.57,-116.03"/>
<polygon fill="#9a32cd" stroke="#9a32cd" points="94.12,-153.4 99.18,-162.71 101.03,-152.28 94.12,-153.4"/>
</a>
</g>
<text text-anchor="middle" x="116.74" y="-137" font-family="Helvetica,sans-Serif" font-size="10.00" fill="grey"> mXMap</text>
</g>
<!-- Node12 -->
<g id="Node000012" class="node">
<title>Node12</title>
<g id="a_Node000012"><a xlink:href="../../d6/d39/group___palette_classes.html#d2/dc4/class_c_r_g_b_palette16" target="_top" xlink:title="RGB color palette with 16 discrete values.">
<polygon fill="white" stroke="#666666" points="223.75,-115.75 134.25,-115.75 134.25,-95 223.75,-95 223.75,-115.75"/>
<text text-anchor="middle" x="179" y="-102.25" font-family="Helvetica,sans-Serif" font-size="10.00">CRGBPalette16</text>
</a>
</g>
</g>
<!-- Node12&#45;&gt;Node1 -->
<g id="edge5_Node000001_Node000012" class="edge">
<title>Node12&#45;&gt;Node1</title>
<g id="a_edge5_Node000001_Node000012"><a xlink:title=" ">
<path fill="none" stroke="#9a32cd" stroke-dasharray="5,2" d="M169.41,-84.55C159.96,-65.02 145.92,-36.02 138.69,-21.06"/>
<polygon fill="#9a32cd" stroke="#9a32cd" points="166.19,-85.93 173.69,-93.41 172.49,-82.88 166.19,-85.93"/>
</a>
</g>
<text text-anchor="middle" x="211.45" y="-67.5" font-family="Helvetica,sans-Serif" font-size="10.00" fill="grey"> pacifica_palette_1</text>
<text text-anchor="middle" x="211.45" y="-54.75" font-family="Helvetica,sans-Serif" font-size="10.00" fill="grey">pacifica_palette_2</text>
<text text-anchor="middle" x="211.45" y="-42" font-family="Helvetica,sans-Serif" font-size="10.00" fill="grey">pacifica_palette_3</text>
</g>
<!-- Node13 -->
<g id="Node000013" class="node">
<title>Node13</title>
<g id="a_Node000013"><a xlink:href="../../db/d87/group___pixel_types.html#d7/d82/struct_c_r_g_b" target="_top" xlink:title="Representation of an RGB pixel (Red, Green, Blue)">
<polygon fill="white" stroke="#666666" points="200.88,-185.25 157.12,-185.25 157.12,-164.5 200.88,-164.5 200.88,-185.25"/>
<text text-anchor="middle" x="179" y="-171.75" font-family="Helvetica,sans-Serif" font-size="10.00">CRGB</text>
</a>
</g>
</g>
<!-- Node13&#45;&gt;Node12 -->
<g id="edge6_Node000012_Node000013" class="edge">
<title>Node13&#45;&gt;Node12</title>
<g id="a_edge6_Node000012_Node000013"><a xlink:title=" ">
<path fill="none" stroke="#9a32cd" stroke-dasharray="5,2" d="M179,-153.07C179,-140.72 179,-125.65 179,-116.03"/>
<polygon fill="#9a32cd" stroke="#9a32cd" points="175.5,-152.69 179,-162.69 182.5,-152.69 175.5,-152.69"/>
</a>
</g>
<text text-anchor="middle" x="197.38" y="-137" font-family="Helvetica,sans-Serif" font-size="10.00" fill="grey"> entries</text>
</g>
</g>
</svg>
