<?xml version="1.0" encoding="UTF-8" standalone="no"?>
<!DOCTYPE svg PUBLIC "-//W3C//DTD SVG 1.1//EN"
 "http://www.w3.org/Graphics/SVG/1.1/DTD/svg11.dtd">
<!-- Generated by graphviz version 12.2.1 (20241206.2353)
 -->
<!-- Title: DMXSerialController&lt; RGB_ORDER &gt; Pages: 1 -->
<svg width="332pt" height="265pt"
 viewBox="0.00 0.00 331.50 264.75" xmlns="http://www.w3.org/2000/svg" xmlns:xlink="http://www.w3.org/1999/xlink">
<g id="graph0" class="graph" transform="scale(1 1) rotate(0) translate(4 260.75)">
<title>DMXSerialController&lt; RGB_ORDER &gt;</title>
<!-- Node1 -->
<g id="Node000001" class="node">
<title>Node1</title>
<g id="a_Node000001"><a xlink:title="DMX512 based LED controller class, using the DMXSerial library.">
<polygon fill="#999999" stroke="#666666" points="115,-33.5 0,-33.5 0,0 115,0 115,-33.5"/>
<text text-anchor="start" x="8" y="-20" font-family="Helvetica,sans-Serif" font-size="10.00">DMXSerialController</text>
<text text-anchor="middle" x="57.5" y="-7.25" font-family="Helvetica,sans-Serif" font-size="10.00">&lt; RGB_ORDER &gt;</text>
</a>
</g>
</g>
<!-- Node1&#45;&gt;Node1 -->
<g id="edge5_Node000001_Node000001" class="edge">
<title>Node1&#45;&gt;Node1</title>
<g id="a_edge5_Node000001_Node000001"><a xlink:title=" ">
<path fill="none" stroke="orange" stroke-dasharray="5,2" d="M126.87,-18.97C130.71,-18.43 133,-17.69 133,-16.75 133,-15.08 125.77,-14.04 115.43,-13.64"/>
<polygon fill="orange" stroke="orange" points="126.63,-15.47 116.94,-19.74 127.18,-22.45 126.63,-15.47"/>
</a>
</g>
<text text-anchor="middle" x="176.12" y="-13.62" font-family="Helvetica,sans-Serif" font-size="10.00" fill="grey"> &lt; RGB_ORDER &gt;</text>
</g>
<!-- Node1&#45;&gt;Node1 -->
<g id="edge6_Node000001_Node000001" class="edge">
<title>Node1&#45;&gt;Node1</title>
<g id="a_edge6_Node000001_Node000001"><a xlink:title=" ">
<path fill="none" stroke="orange" stroke-dasharray="5,2" d="M126.4,-23.06C171.17,-24.2 219.25,-22.1 219.25,-16.75 219.25,-10.95 162.68,-8.97 115.12,-10.8"/>
<polygon fill="orange" stroke="orange" points="126.74,-19.57 116.63,-22.75 126.51,-26.56 126.74,-19.57"/>
</a>
</g>
<text text-anchor="middle" x="262.38" y="-13.62" font-family="Helvetica,sans-Serif" font-size="10.00" fill="grey"> &lt; RGB_ORDER &gt;</text>
</g>
<!-- Node2 -->
<g id="Node000002" class="node">
<title>Node2</title>
<g id="a_Node000002"><a xlink:href="../../d0/dc9/class_c_pixel_l_e_d_controller.html" target="_top" xlink:title=" ">
<polygon fill="white" stroke="#666666" points="113.88,-104 1.12,-104 1.12,-70.5 113.88,-70.5 113.88,-104"/>
<text text-anchor="start" x="9.12" y="-90.5" font-family="Helvetica,sans-Serif" font-size="10.00">CPixelLEDController</text>
<text text-anchor="middle" x="57.5" y="-77.75" font-family="Helvetica,sans-Serif" font-size="10.00">&lt; RGB &gt;</text>
</a>
</g>
</g>
<!-- Node2&#45;&gt;Node1 -->
<g id="edge1_Node000001_Node000002" class="edge">
<title>Node2&#45;&gt;Node1</title>
<g id="a_edge1_Node000001_Node000002"><a xlink:title=" ">
<path fill="none" stroke="#63b8ff" d="M57.5,-58.7C57.5,-50.27 57.5,-41.27 57.5,-33.87"/>
<polygon fill="#63b8ff" stroke="#63b8ff" points="54,-58.5 57.5,-68.5 61,-58.5 54,-58.5"/>
</a>
</g>
</g>
<!-- Node3 -->
<g id="Node000003" class="node">
<title>Node3</title>
<g id="a_Node000003"><a xlink:href="../../d6/d2c/class_c_l_e_d_controller.html" target="_top" xlink:title="Base definition for an LED controller.">
<polygon fill="white" stroke="#666666" points="98.25,-256.75 8.75,-256.75 8.75,-236 98.25,-236 98.25,-256.75"/>
<text text-anchor="middle" x="53.5" y="-243.25" font-family="Helvetica,sans-Serif" font-size="10.00">CLEDController</text>
</a>
</g>
</g>
<!-- Node3&#45;&gt;Node2 -->
<g id="edge2_Node000002_Node000003" class="edge">
<title>Node3&#45;&gt;Node2</title>
<g id="a_edge2_Node000002_Node000003"><a xlink:title=" ">
<path fill="none" stroke="#63b8ff" d="M54.04,-224.11C54.85,-192.27 56.36,-132.93 57.09,-104.39"/>
<polygon fill="#63b8ff" stroke="#63b8ff" points="50.54,-223.95 53.79,-234.03 57.54,-224.13 50.54,-223.95"/>
</a>
</g>
</g>
<!-- Node4 -->
<g id="Node000004" class="node">
<title>Node4</title>
<g id="a_Node000004"><a xlink:href="../../d0/dc9/class_c_pixel_l_e_d_controller.html" target="_top" xlink:title="Template extension of the CLEDController class.">
<polygon fill="white" stroke="#666666" points="199.12,-199 69.88,-199 69.88,-152.75 199.12,-152.75 199.12,-199"/>
<text text-anchor="start" x="77.88" y="-185.5" font-family="Helvetica,sans-Serif" font-size="10.00">CPixelLEDController</text>
<text text-anchor="start" x="77.88" y="-172.75" font-family="Helvetica,sans-Serif" font-size="10.00">&lt; RGB_ORDER, LANES,</text>
<text text-anchor="middle" x="134.5" y="-160" font-family="Helvetica,sans-Serif" font-size="10.00"> MASK &gt;</text>
</a>
</g>
</g>
<!-- Node3&#45;&gt;Node4 -->
<g id="edge4_Node000004_Node000003" class="edge">
<title>Node3&#45;&gt;Node4</title>
<g id="a_edge4_Node000004_Node000003"><a xlink:title=" ">
<path fill="none" stroke="#63b8ff" d="M73.8,-228.21C84.12,-219.48 96.78,-208.78 107.86,-199.4"/>
<polygon fill="#63b8ff" stroke="#63b8ff" points="71.64,-225.45 66.26,-234.58 76.16,-230.8 71.64,-225.45"/>
</a>
</g>
</g>
<!-- Node4&#45;&gt;Node2 -->
<g id="edge3_Node000002_Node000004" class="edge">
<title>Node4&#45;&gt;Node2</title>
<g id="a_edge3_Node000002_Node000004"><a xlink:title=" ">
<path fill="none" stroke="orange" stroke-dasharray="5,2" d="M107.13,-144.09C95.24,-130.71 81.81,-115.59 71.91,-104.46"/>
<polygon fill="orange" stroke="orange" points="104.41,-146.29 113.67,-151.44 109.64,-141.64 104.41,-146.29"/>
</a>
</g>
<text text-anchor="middle" x="121.56" y="-125.25" font-family="Helvetica,sans-Serif" font-size="10.00" fill="grey"> &lt; RGB &gt;</text>
</g>
</g>
</svg>
