<?xml version="1.0" encoding="UTF-8" standalone="no"?>
<!DOCTYPE svg PUBLIC "-//W3C//DTD SVG 1.1//EN"
 "http://www.w3.org/Graphics/SVG/1.1/DTD/svg11.dtd">
<!-- Generated by graphviz version 12.2.1 (20241206.2353)
 -->
<!-- Title: quadwave8 Pages: 1 -->
<svg width="297pt" height="68pt"
 viewBox="0.00 0.00 296.75 67.75" xmlns="http://www.w3.org/2000/svg" xmlns:xlink="http://www.w3.org/1999/xlink">
<g id="graph0" class="graph" transform="scale(1 1) rotate(0) translate(4 63.75)">
<title>quadwave8</title>
<!-- Node1 -->
<g id="Node000001" class="node">
<title>Node1</title>
<g id="a_Node000001"><a xlink:title="Quadratic waveform generator.">
<polygon fill="#999999" stroke="#666666" points="72.25,-39.75 0,-39.75 0,-19 72.25,-19 72.25,-39.75"/>
<text text-anchor="middle" x="36.12" y="-26.25" font-family="Helvetica,sans-Serif" font-size="10.00">quadwave8</text>
</a>
</g>
</g>
<!-- Node2 -->
<g id="Node000002" class="node">
<title>Node2</title>
<g id="a_Node000002"><a xlink:href="../../d4/dfe/group___easing.html#ga381449070b2d6bfba356f87881ab28c0" target="_top" xlink:title="8&#45;bit quadratic ease&#45;in / ease&#45;out function.">
<polygon fill="white" stroke="#666666" points="205.25,-59.75 108.25,-59.75 108.25,-39 205.25,-39 205.25,-59.75"/>
<text text-anchor="middle" x="156.75" y="-46.25" font-family="Helvetica,sans-Serif" font-size="10.00">ease8InOutQuad</text>
</a>
</g>
</g>
<!-- Node1&#45;&gt;Node2 -->
<g id="edge1_Node000001_Node000002" class="edge">
<title>Node1&#45;&gt;Node2</title>
<g id="a_edge1_Node000001_Node000002"><a xlink:title=" ">
<path fill="none" stroke="#63b8ff" d="M72.72,-35.38C80.32,-36.66 88.54,-38.04 96.76,-39.43"/>
<polygon fill="#63b8ff" stroke="#63b8ff" points="95.96,-42.84 106.4,-41.05 97.12,-35.94 95.96,-42.84"/>
</a>
</g>
</g>
<!-- Node4 -->
<g id="Node000004" class="node">
<title>Node4</title>
<g id="a_Node000004"><a xlink:href="../../d1/d7a/group___waveform_generators.html#gae9e011ff745ade1164ae77b0ef62bfac" target="_top" xlink:title="Triangle wave generator.">
<polygon fill="white" stroke="#666666" points="186.12,-20.75 127.38,-20.75 127.38,0 186.12,0 186.12,-20.75"/>
<text text-anchor="middle" x="156.75" y="-7.25" font-family="Helvetica,sans-Serif" font-size="10.00">triwave8</text>
</a>
</g>
</g>
<!-- Node1&#45;&gt;Node4 -->
<g id="edge3_Node000001_Node000004" class="edge">
<title>Node1&#45;&gt;Node4</title>
<g id="a_edge3_Node000001_Node000004"><a xlink:title=" ">
<path fill="none" stroke="#63b8ff" d="M72.72,-23.67C86.26,-21.51 101.78,-19.02 115.7,-16.79"/>
<polygon fill="#63b8ff" stroke="#63b8ff" points="116.14,-20.26 125.46,-15.23 115.03,-13.35 116.14,-20.26"/>
</a>
</g>
</g>
<!-- Node3 -->
<g id="Node000003" class="node">
<title>Node3</title>
<g id="a_Node000003"><a xlink:href="../../d0/da8/group___scaling.html#gad7535ccda9c92470c4e6ee0265585555" target="_top" xlink:title="Scale one byte by a second one, which is treated as the numerator of a fraction whose denominator is ...">
<polygon fill="white" stroke="#666666" points="288.75,-59.75 241.25,-59.75 241.25,-39 288.75,-39 288.75,-59.75"/>
<text text-anchor="middle" x="265" y="-46.25" font-family="Helvetica,sans-Serif" font-size="10.00">scale8</text>
</a>
</g>
</g>
<!-- Node2&#45;&gt;Node3 -->
<g id="edge2_Node000002_Node000003" class="edge">
<title>Node2&#45;&gt;Node3</title>
<g id="a_edge2_Node000002_Node000003"><a xlink:title=" ">
<path fill="none" stroke="#63b8ff" d="M205.59,-49.38C213.62,-49.38 221.8,-49.38 229.41,-49.38"/>
<polygon fill="#63b8ff" stroke="#63b8ff" points="229.27,-52.88 239.27,-49.38 229.27,-45.88 229.27,-52.88"/>
</a>
</g>
</g>
</g>
</svg>
