<?xml version="1.0" encoding="UTF-8" standalone="no"?>
<!DOCTYPE svg PUBLIC "-//W3C//DTD SVG 1.1//EN"
 "http://www.w3.org/Graphics/SVG/1.1/DTD/svg11.dtd">
<!-- Generated by graphviz version 12.2.1 (20241206.2353)
 -->
<!-- Title: fl::NullFileSystem Pages: 1 -->
<svg width="110pt" height="142pt"
 viewBox="0.00 0.00 109.50 142.25" xmlns="http://www.w3.org/2000/svg" xmlns:xlink="http://www.w3.org/1999/xlink">
<g id="graph0" class="graph" transform="scale(1 1) rotate(0) translate(4 138.25)">
<title>fl::NullFileSystem</title>
<!-- Node1 -->
<g id="Node000001" class="node">
<title>Node1</title>
<g id="a_Node000001"><a xlink:title=" ">
<polygon fill="#999999" stroke="#666666" points="101.5,-20.75 0,-20.75 0,0 101.5,0 101.5,-20.75"/>
<text text-anchor="middle" x="50.75" y="-7.25" font-family="Helvetica,sans-Serif" font-size="10.00">fl::NullFileSystem</text>
</a>
</g>
</g>
<!-- Node2 -->
<g id="Node000002" class="node">
<title>Node2</title>
<g id="a_Node000002"><a xlink:href="../../d7/d43/classfl_1_1_fs_impl.html" target="_top" xlink:title=" ">
<polygon fill="white" stroke="#666666" points="81.25,-77.5 20.25,-77.5 20.25,-56.75 81.25,-56.75 81.25,-77.5"/>
<text text-anchor="middle" x="50.75" y="-64" font-family="Helvetica,sans-Serif" font-size="10.00">fl::FsImpl</text>
</a>
</g>
</g>
<!-- Node2&#45;&gt;Node1 -->
<g id="edge1_Node000001_Node000002" class="edge">
<title>Node2&#45;&gt;Node1</title>
<g id="a_edge1_Node000001_Node000002"><a xlink:title=" ">
<path fill="none" stroke="#63b8ff" d="M50.75,-44.88C50.75,-36.66 50.75,-27.68 50.75,-21.08"/>
<polygon fill="#63b8ff" stroke="#63b8ff" points="47.25,-44.82 50.75,-54.82 54.25,-44.82 47.25,-44.82"/>
</a>
</g>
</g>
<!-- Node3 -->
<g id="Node000003" class="node">
<title>Node3</title>
<g id="a_Node000003"><a xlink:href="../../d6/d16/classfl_1_1_referent.html" target="_top" xlink:title=" ">
<polygon fill="white" stroke="#666666" points="85.75,-134.25 15.75,-134.25 15.75,-113.5 85.75,-113.5 85.75,-134.25"/>
<text text-anchor="middle" x="50.75" y="-120.75" font-family="Helvetica,sans-Serif" font-size="10.00">fl::Referent</text>
</a>
</g>
</g>
<!-- Node3&#45;&gt;Node2 -->
<g id="edge2_Node000002_Node000003" class="edge">
<title>Node3&#45;&gt;Node2</title>
<g id="a_edge2_Node000002_Node000003"><a xlink:title=" ">
<path fill="none" stroke="#63b8ff" d="M50.75,-101.63C50.75,-93.41 50.75,-84.43 50.75,-77.83"/>
<polygon fill="#63b8ff" stroke="#63b8ff" points="47.25,-101.57 50.75,-111.57 54.25,-101.57 47.25,-101.57"/>
</a>
</g>
</g>
</g>
</svg>
