<?xml version="1.0" encoding="UTF-8" standalone="no"?>
<!DOCTYPE svg PUBLIC "-//W3C//DTD SVG 1.1//EN"
 "http://www.w3.org/Graphics/SVG/1.1/DTD/svg11.dtd">
<!-- Generated by graphviz version 12.2.1 (20241206.2353)
 -->
<!-- Title: /home/runner/work/FastLED/FastLED/examples/LuminescentGrand/arduino/MIDI.h Pages: 1 -->
<svg width="458pt" height="225pt"
 viewBox="0.00 0.00 457.80 224.50" xmlns="http://www.w3.org/2000/svg" xmlns:xlink="http://www.w3.org/1999/xlink">
<g id="graph0" class="graph" transform="scale(1 1) rotate(0) translate(4 220.5)">
<title>/home/runner/work/FastLED/FastLED/examples/LuminescentGrand/arduino/MIDI.h</title>
<!-- Node1 -->
<g id="Node000001" class="node">
<title>Node1</title>
<g id="a_Node000001"><a xlink:title="MIDI Library for the Arduino.">
<polygon fill="#999999" stroke="#666666" points="331.42,-216.5 128.67,-216.5 128.67,-170.25 331.42,-170.25 331.42,-216.5"/>
<text text-anchor="start" x="136.67" y="-203" font-family="Helvetica,sans-Serif" font-size="10.00">/home/runner/work/FastLED</text>
<text text-anchor="start" x="136.67" y="-190.25" font-family="Helvetica,sans-Serif" font-size="10.00">/FastLED/examples/LuminescentGrand</text>
<text text-anchor="middle" x="230.05" y="-177.5" font-family="Helvetica,sans-Serif" font-size="10.00">/arduino/MIDI.h</text>
</a>
</g>
</g>
<!-- Node2 -->
<g id="Node000002" class="node">
<title>Node2</title>
<g id="a_Node000002"><a xlink:href="../../d8/dd0/midi___defs_8h.html" target="_top" xlink:title="MIDI Library for the Arduino &#45; Definitions.">
<polygon fill="white" stroke="#666666" points="194.3,-77.5 119.8,-77.5 119.8,-56.75 194.3,-56.75 194.3,-77.5"/>
<text text-anchor="middle" x="157.05" y="-64" font-family="Helvetica,sans-Serif" font-size="10.00">midi_Defs.h</text>
</a>
</g>
</g>
<!-- Node1&#45;&gt;Node2 -->
<g id="edge1_Node000001_Node000002" class="edge">
<title>Node1&#45;&gt;Node2</title>
<g id="a_edge1_Node000001_Node000002"><a xlink:title=" ">
<path fill="none" stroke="#63b8ff" d="M128.47,-178.17C77.16,-168.7 22.52,-154.27 7.05,-134.25 -22.68,-95.78 54.08,-79.2 108.43,-72.44"/>
<polygon fill="#63b8ff" stroke="#63b8ff" points="108.61,-75.94 118.14,-71.31 107.81,-68.99 108.61,-75.94"/>
</a>
</g>
</g>
<!-- Node5 -->
<g id="Node000005" class="node">
<title>Node5</title>
<g id="a_Node000005"><a xlink:href="../../d0/dc7/midi___platform_8h.html" target="_top" xlink:title="MIDI Library for the Arduino &#45; Platform @license MIT &#45; Copyright (c) 2015 Francois Best.">
<polygon fill="white" stroke="#666666" points="110.05,-134.25 16.05,-134.25 16.05,-113.5 110.05,-113.5 110.05,-134.25"/>
<text text-anchor="middle" x="63.05" y="-120.75" font-family="Helvetica,sans-Serif" font-size="10.00">midi_Platform.h</text>
</a>
</g>
</g>
<!-- Node1&#45;&gt;Node5 -->
<g id="edge4_Node000001_Node000005" class="edge">
<title>Node1&#45;&gt;Node5</title>
<g id="a_edge4_Node000001_Node000005"><a xlink:title=" ">
<path fill="none" stroke="#63b8ff" d="M174.44,-169.9C149.12,-159.66 119.92,-147.86 97.78,-138.91"/>
<polygon fill="#63b8ff" stroke="#63b8ff" points="99.2,-135.71 88.61,-135.21 96.57,-142.2 99.2,-135.71"/>
</a>
</g>
</g>
<!-- Node6 -->
<g id="Node000006" class="node">
<title>Node6</title>
<g id="a_Node000006"><a xlink:href="../../df/d80/midi___settings_8h.html" target="_top" xlink:title="MIDI Library for the Arduino &#45; Settings.">
<polygon fill="white" stroke="#666666" points="219.92,-134.25 128.17,-134.25 128.17,-113.5 219.92,-113.5 219.92,-134.25"/>
<text text-anchor="middle" x="174.05" y="-120.75" font-family="Helvetica,sans-Serif" font-size="10.00">midi_Settings.h</text>
</a>
</g>
</g>
<!-- Node1&#45;&gt;Node6 -->
<g id="edge6_Node000001_Node000006" class="edge">
<title>Node1&#45;&gt;Node6</title>
<g id="a_edge6_Node000001_Node000006"><a xlink:title=" ">
<path fill="none" stroke="#63b8ff" d="M211.4,-169.9C204.27,-161.3 196.22,-151.59 189.42,-143.4"/>
<polygon fill="#63b8ff" stroke="#63b8ff" points="192.2,-141.27 183.12,-135.81 186.81,-145.74 192.2,-141.27"/>
</a>
</g>
</g>
<!-- Node7 -->
<g id="Node000007" class="node">
<title>Node7</title>
<g id="a_Node000007"><a xlink:href="../../d0/d7c/midi___message_8h.html" target="_top" xlink:title="MIDI Library for the Arduino &#45; Message struct definition.">
<polygon fill="white" stroke="#666666" points="333.8,-134.25 238.3,-134.25 238.3,-113.5 333.8,-113.5 333.8,-134.25"/>
<text text-anchor="middle" x="286.05" y="-120.75" font-family="Helvetica,sans-Serif" font-size="10.00">midi_Message.h</text>
</a>
</g>
</g>
<!-- Node1&#45;&gt;Node7 -->
<g id="edge8_Node000001_Node000007" class="edge">
<title>Node1&#45;&gt;Node7</title>
<g id="a_edge8_Node000001_Node000007"><a xlink:title=" ">
<path fill="none" stroke="#63b8ff" d="M248.7,-169.9C255.83,-161.3 263.88,-151.59 270.68,-143.4"/>
<polygon fill="#63b8ff" stroke="#63b8ff" points="273.29,-145.74 276.98,-135.81 267.9,-141.27 273.29,-145.74"/>
</a>
</g>
</g>
<!-- Node9 -->
<g id="Node000009" class="node">
<title>Node9</title>
<g id="a_Node000009"><a xlink:href="../../db/dff/serial_m_i_d_i_8h.html" target="_top" xlink:title="MIDI Library for the Arduino &#45; Platform @license MIT &#45; Copyright (c) 2015 Francois Best.">
<polygon fill="white" stroke="#666666" points="405.3,-77.5 330.8,-77.5 330.8,-56.75 405.3,-56.75 405.3,-77.5"/>
<text text-anchor="middle" x="368.05" y="-64" font-family="Helvetica,sans-Serif" font-size="10.00">serialMIDI.h</text>
</a>
</g>
</g>
<!-- Node1&#45;&gt;Node9 -->
<g id="edge12_Node000001_Node000009" class="edge">
<title>Node1&#45;&gt;Node9</title>
<g id="a_edge12_Node000001_Node000009"><a xlink:title=" ">
<path fill="none" stroke="#63b8ff" d="M293.41,-169.87C311.34,-161.03 329.61,-149.31 343.05,-134.25 354.43,-121.5 360.82,-103.06 364.29,-88.89"/>
<polygon fill="#63b8ff" stroke="#63b8ff" points="367.68,-89.78 366.32,-79.27 360.83,-88.33 367.68,-89.78"/>
</a>
</g>
</g>
<!-- Node10 -->
<g id="Node000010" class="node">
<title>Node10</title>
<g id="a_Node000010"><a xlink:href="../../de/d99/_m_i_d_i_8hpp.html" target="_top" xlink:title="MIDI Library for the Arduino &#45; Inline implementations.">
<polygon fill="white" stroke="#666666" points="449.8,-134.25 390.3,-134.25 390.3,-113.5 449.8,-113.5 449.8,-134.25"/>
<text text-anchor="middle" x="420.05" y="-120.75" font-family="Helvetica,sans-Serif" font-size="10.00">MIDI.hpp</text>
</a>
</g>
</g>
<!-- Node1&#45;&gt;Node10 -->
<g id="edge14_Node000001_Node000010" class="edge">
<title>Node1&#45;&gt;Node10</title>
<g id="a_edge14_Node000001_Node000010"><a xlink:title=" ">
<path fill="none" stroke="#63b8ff" d="M293.58,-169.8C322.81,-159.42 356.51,-147.45 381.77,-138.47"/>
<polygon fill="#63b8ff" stroke="#63b8ff" points="382.71,-141.85 390.97,-135.21 380.37,-135.26 382.71,-141.85"/>
</a>
</g>
</g>
<!-- Node3 -->
<g id="Node000003" class="node">
<title>Node3</title>
<g id="a_Node000003"><a xlink:href="../../df/dce/midi___namespace_8h.html" target="_top" xlink:title="MIDI Library for the Arduino &#45; Namespace declaration.">
<polygon fill="white" stroke="#666666" points="296.92,-20.75 187.17,-20.75 187.17,0 296.92,0 296.92,-20.75"/>
<text text-anchor="middle" x="242.05" y="-7.25" font-family="Helvetica,sans-Serif" font-size="10.00">midi_Namespace.h</text>
</a>
</g>
</g>
<!-- Node2&#45;&gt;Node3 -->
<g id="edge2_Node000002_Node000003" class="edge">
<title>Node2&#45;&gt;Node3</title>
<g id="a_edge2_Node000002_Node000003"><a xlink:title=" ">
<path fill="none" stroke="#63b8ff" d="M172.25,-56.34C184.82,-48.24 202.91,-36.58 217.53,-27.17"/>
<polygon fill="#63b8ff" stroke="#63b8ff" points="219.2,-30.26 225.71,-21.9 215.41,-24.37 219.2,-30.26"/>
</a>
</g>
</g>
<!-- Node4 -->
<g id="Node000004" class="node">
<title>Node4</title>
<g id="a_Node000004"><a xlink:title=" ">
<polygon fill="#e0e0e0" stroke="#999999" points="169.42,-20.75 104.67,-20.75 104.67,0 169.42,0 169.42,-20.75"/>
<text text-anchor="middle" x="137.05" y="-7.25" font-family="Helvetica,sans-Serif" font-size="10.00">inttypes.h</text>
</a>
</g>
</g>
<!-- Node2&#45;&gt;Node4 -->
<g id="edge3_Node000002_Node000004" class="edge">
<title>Node2&#45;&gt;Node4</title>
<g id="a_edge3_Node000002_Node000004"><a xlink:title=" ">
<path fill="none" stroke="#63b8ff" d="M153.47,-56.34C150.97,-49.49 147.54,-40.09 144.46,-31.65"/>
<polygon fill="#63b8ff" stroke="#63b8ff" points="147.83,-30.69 141.11,-22.5 141.26,-33.09 147.83,-30.69"/>
</a>
</g>
</g>
<!-- Node5&#45;&gt;Node2 -->
<g id="edge5_Node000005_Node000002" class="edge">
<title>Node5&#45;&gt;Node2</title>
<g id="a_edge5_Node000005_Node000002"><a xlink:title=" ">
<path fill="none" stroke="#63b8ff" d="M79.85,-113.09C94.02,-104.83 114.54,-92.88 130.86,-83.38"/>
<polygon fill="#63b8ff" stroke="#63b8ff" points="132.2,-86.65 139.08,-78.59 128.68,-80.6 132.2,-86.65"/>
</a>
</g>
</g>
<!-- Node6&#45;&gt;Node2 -->
<g id="edge7_Node000006_Node000002" class="edge">
<title>Node6&#45;&gt;Node2</title>
<g id="a_edge7_Node000006_Node000002"><a xlink:title=" ">
<path fill="none" stroke="#63b8ff" d="M171.01,-113.09C168.91,-106.31 166.03,-97.05 163.43,-88.69"/>
<polygon fill="#63b8ff" stroke="#63b8ff" points="166.82,-87.79 160.51,-79.27 160.13,-89.86 166.82,-87.79"/>
</a>
</g>
</g>
<!-- Node7&#45;&gt;Node2 -->
<g id="edge10_Node000007_Node000002" class="edge">
<title>Node7&#45;&gt;Node2</title>
<g id="a_edge10_Node000007_Node000002"><a xlink:title=" ">
<path fill="none" stroke="#63b8ff" d="M262.99,-113.09C242.81,-104.52 213.25,-91.98 190.47,-82.31"/>
<polygon fill="#63b8ff" stroke="#63b8ff" points="191.88,-79.1 181.31,-78.42 189.14,-85.55 191.88,-79.1"/>
</a>
</g>
</g>
<!-- Node7&#45;&gt;Node3 -->
<g id="edge9_Node000007_Node000003" class="edge">
<title>Node7&#45;&gt;Node3</title>
<g id="a_edge9_Node000007_Node000003"><a xlink:title=" ">
<path fill="none" stroke="#63b8ff" d="M275.98,-113.06C267.83,-104.48 256.81,-91.27 251.05,-77.5 245.09,-63.24 242.89,-45.89 242.16,-32.54"/>
<polygon fill="#63b8ff" stroke="#63b8ff" points="245.67,-32.61 241.88,-22.71 238.67,-32.81 245.67,-32.61"/>
</a>
</g>
</g>
<!-- Node8 -->
<g id="Node000008" class="node">
<title>Node8</title>
<g id="a_Node000008"><a xlink:title=" ">
<polygon fill="#e0e0e0" stroke="#999999" points="312.42,-77.5 259.67,-77.5 259.67,-56.75 312.42,-56.75 312.42,-77.5"/>
<text text-anchor="middle" x="286.05" y="-64" font-family="Helvetica,sans-Serif" font-size="10.00">string.h</text>
</a>
</g>
</g>
<!-- Node7&#45;&gt;Node8 -->
<g id="edge11_Node000007_Node000008" class="edge">
<title>Node7&#45;&gt;Node8</title>
<g id="a_edge11_Node000007_Node000008"><a xlink:title=" ">
<path fill="none" stroke="#63b8ff" d="M286.05,-113.09C286.05,-106.47 286.05,-97.47 286.05,-89.27"/>
<polygon fill="#63b8ff" stroke="#63b8ff" points="289.55,-89.34 286.05,-79.34 282.55,-89.34 289.55,-89.34"/>
</a>
</g>
</g>
<!-- Node9&#45;&gt;Node3 -->
<g id="edge13_Node000009_Node000003" class="edge">
<title>Node9&#45;&gt;Node3</title>
<g id="a_edge13_Node000009_Node000003"><a xlink:title=" ">
<path fill="none" stroke="#63b8ff" d="M345.52,-56.34C325.81,-47.77 296.94,-35.23 274.7,-25.56"/>
<polygon fill="#63b8ff" stroke="#63b8ff" points="276.34,-22.46 265.77,-21.68 273.55,-28.88 276.34,-22.46"/>
</a>
</g>
</g>
</g>
</svg>
