<?xml version="1.0" encoding="UTF-8" standalone="no"?>
<!DOCTYPE svg PUBLIC "-//W3C//DTD SVG 1.1//EN"
 "http://www.w3.org/Graphics/SVG/1.1/DTD/svg11.dtd">
<!-- Generated by graphviz version 12.2.1 (20241206.2353)
 -->
<!-- Title: CLEDController Pages: 1 -->
<svg width="1544pt" height="1261pt"
 viewBox="0.00 0.00 1544.00 1260.62" xmlns="http://www.w3.org/2000/svg" xmlns:xlink="http://www.w3.org/1999/xlink">
<g id="graph0" class="graph" transform="scale(1 1) rotate(0) translate(4 1256.62)">
<title>CLEDController</title>
<!-- Node1 -->
<g id="Node000001" class="node">
<title>Node1</title>
<g id="a_Node000001"><a xlink:title="Base definition for an LED controller.">
<polygon fill="#999999" stroke="#666666" points="89.5,-231.25 0,-231.25 0,-210.5 89.5,-210.5 89.5,-231.25"/>
<text text-anchor="middle" x="44.75" y="-217.75" font-family="Helvetica,sans-Serif" font-size="10.00">CLEDController</text>
</a>
</g>
</g>
<!-- Node2 -->
<g id="Node000002" class="node">
<title>Node2</title>
<g id="a_Node000002"><a xlink:href="../../d0/dc9/class_c_pixel_l_e_d_controller.html" target="_top" xlink:title=" ">
<polygon fill="white" stroke="#666666" points="634.75,-1016.62 522,-1016.62 522,-983.12 634.75,-983.12 634.75,-1016.62"/>
<text text-anchor="start" x="530" y="-1003.12" font-family="Helvetica,sans-Serif" font-size="10.00">CPixelLEDController</text>
<text text-anchor="middle" x="578.38" y="-990.38" font-family="Helvetica,sans-Serif" font-size="10.00">&lt; RGB &gt;</text>
</a>
</g>
</g>
<!-- Node1&#45;&gt;Node2 -->
<g id="edge1_Node000001_Node000002" class="edge">
<title>Node1&#45;&gt;Node2</title>
<g id="a_edge1_Node000001_Node000002"><a xlink:title=" ">
<path fill="none" stroke="#63b8ff" d="M49.07,-242.79C66.71,-356.18 153.22,-874.89 273.75,-972.88 343.66,-1029.71 454.87,-1022.89 521.53,-1011.95"/>
<polygon fill="#63b8ff" stroke="#63b8ff" points="52.55,-242.38 47.57,-233.02 45.63,-243.44 52.55,-242.38"/>
</a>
</g>
</g>
<!-- Node28 -->
<g id="Node000028" class="node">
<title>Node28</title>
<g id="a_Node000028"><a xlink:href="../../d0/dc9/class_c_pixel_l_e_d_controller.html" target="_top" xlink:title=" ">
<polygon fill="white" stroke="#666666" points="657.62,-303.38 499.12,-303.38 499.12,-244.38 657.62,-244.38 657.62,-303.38"/>
<text text-anchor="start" x="507.12" y="-289.88" font-family="Helvetica,sans-Serif" font-size="10.00">CPixelLEDController</text>
<text text-anchor="start" x="507.12" y="-277.12" font-family="Helvetica,sans-Serif" font-size="10.00">&lt; GRB, CONTROLLER::LANES</text>
<text text-anchor="start" x="507.12" y="-264.38" font-family="Helvetica,sans-Serif" font-size="10.00">_VALUE, CONTROLLER::MASK</text>
<text text-anchor="middle" x="578.38" y="-251.62" font-family="Helvetica,sans-Serif" font-size="10.00">_VALUE &gt;</text>
</a>
</g>
</g>
<!-- Node1&#45;&gt;Node28 -->
<g id="edge18_Node000001_Node000028" class="edge">
<title>Node1&#45;&gt;Node28</title>
<g id="a_edge18_Node000001_Node000028"><a xlink:title=" ">
<path fill="none" stroke="#63b8ff" d="M101.15,-226.28C180.69,-234.07 331.84,-248.91 460.5,-261.88 472.88,-263.12 486,-264.46 498.79,-265.77"/>
<polygon fill="#63b8ff" stroke="#63b8ff" points="101.75,-222.83 91.46,-225.34 101.07,-229.79 101.75,-222.83"/>
</a>
</g>
</g>
<!-- Node30 -->
<g id="Node000030" class="node">
<title>Node30</title>
<g id="a_Node000030"><a xlink:href="../../d0/dc9/class_c_pixel_l_e_d_controller.html" target="_top" xlink:title=" ">
<polygon fill="white" stroke="#666666" points="678.25,-161.75 478.5,-161.75 478.5,-90 678.25,-90 678.25,-161.75"/>
<text text-anchor="start" x="486.5" y="-148.25" font-family="Helvetica,sans-Serif" font-size="10.00">CPixelLEDController</text>
<text text-anchor="start" x="486.5" y="-135.5" font-family="Helvetica,sans-Serif" font-size="10.00">&lt; RGB_ORDER, WS2812Controller800</text>
<text text-anchor="start" x="486.5" y="-122.75" font-family="Helvetica,sans-Serif" font-size="10.00">Khz&lt; DATA_PIN, RGB &gt;::LANES</text>
<text text-anchor="start" x="486.5" y="-110" font-family="Helvetica,sans-Serif" font-size="10.00">_VALUE, WS2812Controller800Khz</text>
<text text-anchor="middle" x="578.38" y="-97.25" font-family="Helvetica,sans-Serif" font-size="10.00">&lt; DATA_PIN, RGB &gt;::MASK_VALUE &gt;</text>
</a>
</g>
</g>
<!-- Node1&#45;&gt;Node30 -->
<g id="edge20_Node000001_Node000030" class="edge">
<title>Node1&#45;&gt;Node30</title>
<g id="a_edge20_Node000001_Node000030"><a xlink:title=" ">
<path fill="none" stroke="#63b8ff" d="M63.9,-202.13C99.91,-166.46 184.62,-89.88 273.75,-61.88 352.93,-36.99 384.25,-29.08 460.5,-61.88 471.19,-66.47 469.03,-74.12 478.5,-80.88 482.8,-83.94 487.34,-86.88 492.02,-89.67"/>
<polygon fill="#63b8ff" stroke="#63b8ff" points="61.45,-199.63 56.89,-209.19 66.42,-204.56 61.45,-199.63"/>
</a>
</g>
</g>
<!-- Node33 -->
<g id="Node000033" class="node">
<title>Node33</title>
<g id="a_Node000033"><a xlink:href="../../d0/dc9/class_c_pixel_l_e_d_controller.html" target="_top" xlink:title=" ">
<polygon fill="white" stroke="#666666" points="676,-71.75 480.75,-71.75 480.75,0 676,0 676,-71.75"/>
<text text-anchor="start" x="488.75" y="-58.25" font-family="Helvetica,sans-Serif" font-size="10.00">CPixelLEDController</text>
<text text-anchor="start" x="488.75" y="-45.5" font-family="Helvetica,sans-Serif" font-size="10.00">&lt; GRB, WS2812Controller800</text>
<text text-anchor="start" x="488.75" y="-32.75" font-family="Helvetica,sans-Serif" font-size="10.00">Khz&lt; DATA_PIN, RGB &gt;::LANES</text>
<text text-anchor="start" x="488.75" y="-20" font-family="Helvetica,sans-Serif" font-size="10.00">_VALUE, WS2812Controller800Khz</text>
<text text-anchor="middle" x="578.38" y="-7.25" font-family="Helvetica,sans-Serif" font-size="10.00">&lt; DATA_PIN, RGB &gt;::MASK_VALUE &gt;</text>
</a>
</g>
</g>
<!-- Node1&#45;&gt;Node33 -->
<g id="edge23_Node000001_Node000033" class="edge">
<title>Node1&#45;&gt;Node33</title>
<g id="a_edge23_Node000001_Node000033"><a xlink:title=" ">
<path fill="none" stroke="#63b8ff" d="M50.62,-198.99C59.45,-164.67 81.53,-98.62 126.5,-64.88 227.98,11.28 381.22,2.78 480.3,-13.81"/>
<polygon fill="#63b8ff" stroke="#63b8ff" points="47.24,-198.07 48.3,-208.61 54.04,-199.71 47.24,-198.07"/>
</a>
</g>
</g>
<!-- Node35 -->
<g id="Node000035" class="node">
<title>Node35</title>
<g id="a_Node000035"><a xlink:href="../../d0/dc9/class_c_pixel_l_e_d_controller.html" target="_top" xlink:title="Template extension of the CLEDController class.">
<polygon fill="white" stroke="#666666" points="255.75,-393 126.5,-393 126.5,-346.75 255.75,-346.75 255.75,-393"/>
<text text-anchor="start" x="134.5" y="-379.5" font-family="Helvetica,sans-Serif" font-size="10.00">CPixelLEDController</text>
<text text-anchor="start" x="134.5" y="-366.75" font-family="Helvetica,sans-Serif" font-size="10.00">&lt; RGB_ORDER, LANES,</text>
<text text-anchor="middle" x="191.12" y="-354" font-family="Helvetica,sans-Serif" font-size="10.00"> MASK &gt;</text>
</a>
</g>
</g>
<!-- Node1&#45;&gt;Node35 -->
<g id="edge26_Node000001_Node000035" class="edge">
<title>Node1&#45;&gt;Node35</title>
<g id="a_edge26_Node000001_Node000035"><a xlink:title=" ">
<path fill="none" stroke="#63b8ff" d="M63.81,-239.51C90.04,-266.58 138.67,-316.77 167.33,-346.35"/>
<polygon fill="#63b8ff" stroke="#63b8ff" points="66.66,-237.42 57.19,-232.68 61.63,-242.29 66.66,-237.42"/>
</a>
</g>
</g>
<!-- Node3 -->
<g id="Node000003" class="node">
<title>Node3</title>
<g id="a_Node000003"><a xlink:href="../../df/d0d/group___clocked_chipsets.html#d4/d96/class_a_p_a102_controller" target="_top" xlink:title="APA102 controller class.">
<polygon fill="white" stroke="#666666" points="920.25,-528.38 715.25,-528.38 715.25,-469.38 920.25,-469.38 920.25,-528.38"/>
<text text-anchor="start" x="723.25" y="-514.88" font-family="Helvetica,sans-Serif" font-size="10.00">APA102Controller&lt; DATA</text>
<text text-anchor="start" x="723.25" y="-502.12" font-family="Helvetica,sans-Serif" font-size="10.00">_PIN, CLOCK_PIN, RGB_ORDER,</text>
<text text-anchor="start" x="723.25" y="-489.38" font-family="Helvetica,sans-Serif" font-size="10.00"> SPI_SPEED, GAMMA_CORRECTION</text>
<text text-anchor="middle" x="817.75" y="-476.62" font-family="Helvetica,sans-Serif" font-size="10.00">_MODE, START_FRAME, END_FRAME &gt;</text>
</a>
</g>
</g>
<!-- Node2&#45;&gt;Node3 -->
<g id="edge2_Node000002_Node000003" class="edge">
<title>Node2&#45;&gt;Node3</title>
<g id="a_edge2_Node000002_Node000003"><a xlink:title=" ">
<path fill="none" stroke="#63b8ff" d="M592.45,-972.29C633.57,-885.5 760.07,-618.51 802.62,-528.7"/>
<polygon fill="#63b8ff" stroke="#63b8ff" points="589.31,-970.73 588.19,-981.26 595.64,-973.72 589.31,-970.73"/>
</a>
</g>
</g>
<!-- Node15 -->
<g id="Node000015" class="node">
<title>Node15</title>
<g id="a_Node000015"><a xlink:href="../../d7/d6f/group___clockless_chipsets.html#d9/d0f/class_d_m_x_serial_controller" target="_top" xlink:title="DMX512 based LED controller class, using the DMXSerial library.">
<polygon fill="white" stroke="#666666" points="875.25,-1222.62 760.25,-1222.62 760.25,-1189.12 875.25,-1189.12 875.25,-1222.62"/>
<text text-anchor="start" x="768.25" y="-1209.12" font-family="Helvetica,sans-Serif" font-size="10.00">DMXSerialController</text>
<text text-anchor="middle" x="817.75" y="-1196.38" font-family="Helvetica,sans-Serif" font-size="10.00">&lt; RGB_ORDER &gt;</text>
</a>
</g>
</g>
<!-- Node2&#45;&gt;Node15 -->
<g id="edge8_Node000002_Node000015" class="edge">
<title>Node2&#45;&gt;Node15</title>
<g id="a_edge8_Node000002_Node000015"><a xlink:title=" ">
<path fill="none" stroke="#63b8ff" d="M592.37,-1027.11C612.81,-1066.95 656.29,-1140.61 715.25,-1179.88 728.5,-1188.7 744.55,-1194.53 759.94,-1198.38"/>
<polygon fill="#63b8ff" stroke="#63b8ff" points="595.62,-1025.79 588.01,-1018.42 589.36,-1028.93 595.62,-1025.79"/>
</a>
</g>
</g>
<!-- Node18 -->
<g id="Node000018" class="node">
<title>Node18</title>
<g id="a_Node000018"><a xlink:href="../../d7/d6f/group___clockless_chipsets.html#d0/da7/class_d_m_x_simple_controller" target="_top" xlink:title="DMX512 based LED controller class, using the DmxSimple library.">
<polygon fill="white" stroke="#666666" points="894,-1170.62 741.5,-1170.62 741.5,-1137.12 894,-1137.12 894,-1170.62"/>
<text text-anchor="start" x="749.5" y="-1157.12" font-family="Helvetica,sans-Serif" font-size="10.00">DMXSimpleController</text>
<text text-anchor="middle" x="817.75" y="-1144.38" font-family="Helvetica,sans-Serif" font-size="10.00">&lt; DATA_PIN, RGB_ORDER &gt;</text>
</a>
</g>
</g>
<!-- Node2&#45;&gt;Node18 -->
<g id="edge10_Node000002_Node000018" class="edge">
<title>Node2&#45;&gt;Node18</title>
<g id="a_edge10_Node000002_Node000018"><a xlink:title=" ">
<path fill="none" stroke="#63b8ff" d="M599.67,-1025.63C624.03,-1054.79 667.6,-1101.65 715.25,-1127.88 723.3,-1132.3 732.12,-1136 741.1,-1139.07"/>
<polygon fill="#63b8ff" stroke="#63b8ff" points="602.46,-1023.52 593.41,-1018 597.05,-1027.95 602.46,-1023.52"/>
</a>
</g>
</g>
<!-- Node21 -->
<g id="Node000021" class="node">
<title>Node21</title>
<g id="a_Node000021"><a xlink:href="../../df/d0d/group___clocked_chipsets.html#d0/d40/class_l_p_d6803_controller" target="_top" xlink:title="LPD6803 controller class (LPD1101).">
<polygon fill="white" stroke="#666666" points="892.12,-927 743.38,-927 743.38,-880.75 892.12,-880.75 892.12,-927"/>
<text text-anchor="start" x="751.38" y="-913.5" font-family="Helvetica,sans-Serif" font-size="10.00">LPD6803Controller&lt;</text>
<text text-anchor="start" x="751.38" y="-900.75" font-family="Helvetica,sans-Serif" font-size="10.00"> DATA_PIN, CLOCK_PIN,</text>
<text text-anchor="middle" x="817.75" y="-888" font-family="Helvetica,sans-Serif" font-size="10.00"> RGB_ORDER, SPI_SPEED &gt;</text>
</a>
</g>
</g>
<!-- Node2&#45;&gt;Node21 -->
<g id="edge12_Node000002_Node000021" class="edge">
<title>Node2&#45;&gt;Node21</title>
<g id="a_edge12_Node000002_Node000021"><a xlink:title=" ">
<path fill="none" stroke="#63b8ff" d="M622.65,-977.66C649.02,-964.59 683.63,-948.24 715.25,-935.88 724.11,-932.41 733.52,-929.04 742.89,-925.88"/>
<polygon fill="#63b8ff" stroke="#63b8ff" points="621.34,-974.4 613.96,-982 624.47,-980.66 621.34,-974.4"/>
</a>
</g>
</g>
<!-- Node22 -->
<g id="Node000022" class="node">
<title>Node22</title>
<g id="a_Node000022"><a xlink:href="../../df/d0d/group___clocked_chipsets.html#dc/d33/class_l_p_d8806_controller" target="_top" xlink:title="LPD8806 controller class.">
<polygon fill="white" stroke="#666666" points="892.12,-1119 743.38,-1119 743.38,-1072.75 892.12,-1072.75 892.12,-1119"/>
<text text-anchor="start" x="751.38" y="-1105.5" font-family="Helvetica,sans-Serif" font-size="10.00">LPD8806Controller&lt;</text>
<text text-anchor="start" x="751.38" y="-1092.75" font-family="Helvetica,sans-Serif" font-size="10.00"> DATA_PIN, CLOCK_PIN,</text>
<text text-anchor="middle" x="817.75" y="-1080" font-family="Helvetica,sans-Serif" font-size="10.00"> RGB_ORDER, SPI_SPEED &gt;</text>
</a>
</g>
</g>
<!-- Node2&#45;&gt;Node22 -->
<g id="edge13_Node000002_Node000022" class="edge">
<title>Node2&#45;&gt;Node22</title>
<g id="a_edge13_Node000002_Node000022"><a xlink:title=" ">
<path fill="none" stroke="#63b8ff" d="M622.65,-1022.09C649.02,-1035.16 683.63,-1051.51 715.25,-1063.88 724.11,-1067.34 733.52,-1070.71 742.89,-1073.87"/>
<polygon fill="#63b8ff" stroke="#63b8ff" points="624.47,-1019.09 613.96,-1017.75 621.34,-1025.35 624.47,-1019.09"/>
</a>
</g>
</g>
<!-- Node23 -->
<g id="Node000023" class="node">
<title>Node23</title>
<g id="a_Node000023"><a xlink:href="../../df/d0d/group___clocked_chipsets.html#d2/dd6/class_p9813_controller" target="_top" xlink:title="P9813 controller class.">
<polygon fill="white" stroke="#666666" points="883.12,-1055 752.38,-1055 752.38,-1008.75 883.12,-1008.75 883.12,-1055"/>
<text text-anchor="start" x="760.38" y="-1041.5" font-family="Helvetica,sans-Serif" font-size="10.00">P9813Controller&lt; DATA</text>
<text text-anchor="start" x="760.38" y="-1028.75" font-family="Helvetica,sans-Serif" font-size="10.00">_PIN, CLOCK_PIN, RGB</text>
<text text-anchor="middle" x="817.75" y="-1016" font-family="Helvetica,sans-Serif" font-size="10.00">_ORDER, SPI_SPEED &gt;</text>
</a>
</g>
</g>
<!-- Node2&#45;&gt;Node23 -->
<g id="edge14_Node000002_Node000023" class="edge">
<title>Node2&#45;&gt;Node23</title>
<g id="a_edge14_Node000002_Node000023"><a xlink:title=" ">
<path fill="none" stroke="#63b8ff" d="M646.02,-1008.86C679.25,-1013.34 719.26,-1018.73 752.2,-1023.17"/>
<polygon fill="#63b8ff" stroke="#63b8ff" points="646.91,-1005.45 636.53,-1007.58 645.97,-1012.38 646.91,-1005.45"/>
</a>
</g>
</g>
<!-- Node24 -->
<g id="Node000024" class="node">
<title>Node24</title>
<g id="a_Node000024"><a xlink:href="../../df/d0d/group___clocked_chipsets.html#d8/df9/class_s_m16716_controller" target="_top" xlink:title="SM16716 controller class.">
<polygon fill="white" stroke="#666666" points="892.12,-991 743.38,-991 743.38,-944.75 892.12,-944.75 892.12,-991"/>
<text text-anchor="start" x="751.38" y="-977.5" font-family="Helvetica,sans-Serif" font-size="10.00">SM16716Controller&lt;</text>
<text text-anchor="start" x="751.38" y="-964.75" font-family="Helvetica,sans-Serif" font-size="10.00"> DATA_PIN, CLOCK_PIN,</text>
<text text-anchor="middle" x="817.75" y="-952" font-family="Helvetica,sans-Serif" font-size="10.00"> RGB_ORDER, SPI_SPEED &gt;</text>
</a>
</g>
</g>
<!-- Node2&#45;&gt;Node24 -->
<g id="edge15_Node000002_Node000024" class="edge">
<title>Node2&#45;&gt;Node24</title>
<g id="a_edge15_Node000002_Node000024"><a xlink:title=" ">
<path fill="none" stroke="#63b8ff" d="M646.29,-990.85C676.43,-986.79 712.1,-981.98 743.01,-977.82"/>
<polygon fill="#63b8ff" stroke="#63b8ff" points="645.97,-987.37 636.53,-992.17 646.91,-994.3 645.97,-987.37"/>
</a>
</g>
</g>
<!-- Node25 -->
<g id="Node000025" class="node">
<title>Node25</title>
<g id="a_Node000025"><a xlink:href="../../df/d0d/group___clocked_chipsets.html#d9/d95/class_w_s2801_controller" target="_top" xlink:title="WS2801 controller class.">
<polygon fill="white" stroke="#666666" points="901.88,-863 733.62,-863 733.62,-816.75 901.88,-816.75 901.88,-863"/>
<text text-anchor="start" x="741.62" y="-849.5" font-family="Helvetica,sans-Serif" font-size="10.00">WS2801Controller&lt; DATA</text>
<text text-anchor="start" x="741.62" y="-836.75" font-family="Helvetica,sans-Serif" font-size="10.00">_PIN, CLOCK_PIN, RGB_ORDER,</text>
<text text-anchor="middle" x="817.75" y="-824" font-family="Helvetica,sans-Serif" font-size="10.00"> SPI_SPEED &gt;</text>
</a>
</g>
</g>
<!-- Node2&#45;&gt;Node25 -->
<g id="edge16_Node000002_Node000025" class="edge">
<title>Node2&#45;&gt;Node25</title>
<g id="a_edge16_Node000002_Node000025"><a xlink:title=" ">
<path fill="none" stroke="#63b8ff" d="M600.33,-974.11C625,-945.35 668.59,-899.25 715.25,-871.88 720.91,-868.56 726.95,-865.54 733.16,-862.81"/>
<polygon fill="#63b8ff" stroke="#63b8ff" points="597.75,-971.74 593.97,-981.64 603.1,-976.26 597.75,-971.74"/>
</a>
</g>
</g>
<!-- Node4 -->
<g id="Node000004" class="node">
<title>Node4</title>
<g id="a_Node000004"><a xlink:href="../../df/d0d/group___clocked_chipsets.html" target="_top" xlink:title=" ">
<polygon fill="#fff0f0" stroke="red" points="1334.88,-490.12 1162.88,-490.12 1162.88,-405.62 1334.88,-405.62 1334.88,-490.12"/>
<text text-anchor="start" x="1170.88" y="-476.62" font-family="Helvetica,sans-Serif" font-size="10.00">APA102Controller&lt; DATA</text>
<text text-anchor="start" x="1170.88" y="-463.88" font-family="Helvetica,sans-Serif" font-size="10.00">_PIN, CLOCK_PIN, RGB,</text>
<text text-anchor="start" x="1170.88" y="-451.12" font-family="Helvetica,sans-Serif" font-size="10.00"> DATA_RATE_MHZ(6), fl::</text>
<text text-anchor="start" x="1170.88" y="-438.38" font-family="Helvetica,sans-Serif" font-size="10.00">kFiveBitGammaCorrectionMode</text>
<text text-anchor="start" x="1170.88" y="-425.62" font-family="Helvetica,sans-Serif" font-size="10.00">_BitShift, uint32_t(0x00000000)</text>
<text text-anchor="middle" x="1248.88" y="-412.88" font-family="Helvetica,sans-Serif" font-size="10.00">, uint32_t(0x00000000)&gt;</text>
</a>
</g>
</g>
<!-- Node3&#45;&gt;Node4 -->
<g id="edge3_Node000003_Node000004" class="edge">
<title>Node3&#45;&gt;Node4</title>
<g id="a_edge3_Node000003_Node000004"><a xlink:title=" ">
<path fill="none" stroke="orange" stroke-dasharray="5,2" d="M893.38,-464.98C907.98,-459.7 923.38,-455.04 938.25,-452.12 1013.03,-437.49 1099.93,-437.75 1162.6,-440.91"/>
<polygon fill="orange" stroke="orange" points="892.46,-461.58 884.33,-468.38 894.92,-468.14 892.46,-461.58"/>
</a>
</g>
<text text-anchor="start" x="939.75" y="-506.38" font-family="Helvetica,sans-Serif" font-size="10.00" fill="grey"> &lt; DATA_PIN, CLOCK_PIN,</text>
<text text-anchor="start" x="939.75" y="-493.62" font-family="Helvetica,sans-Serif" font-size="10.00" fill="grey"> RGB, DATA_RATE_MHZ(6)</text>
<text text-anchor="start" x="939.75" y="-480.88" font-family="Helvetica,sans-Serif" font-size="10.00" fill="grey">, fl::kFiveBitGammaCorrection</text>
<text text-anchor="start" x="939.75" y="-468.12" font-family="Helvetica,sans-Serif" font-size="10.00" fill="grey">Mode_BitShift, uint32_t(0x00000000)</text>
<text text-anchor="middle" x="1030.12" y="-455.38" font-family="Helvetica,sans-Serif" font-size="10.00" fill="grey">, uint32_t(0x00000000)&gt;</text>
</g>
<!-- Node8 -->
<g id="Node000008" class="node">
<title>Node8</title>
<g id="a_Node000008"><a xlink:href="../../df/d0d/group___clocked_chipsets.html" target="_top" xlink:title=" ">
<polygon fill="#fff0f0" stroke="red" points="1340.88,-380.75 1156.88,-380.75 1156.88,-309 1340.88,-309 1340.88,-380.75"/>
<text text-anchor="start" x="1164.88" y="-367.25" font-family="Helvetica,sans-Serif" font-size="10.00">APA102Controller&lt; DATA</text>
<text text-anchor="start" x="1164.88" y="-354.5" font-family="Helvetica,sans-Serif" font-size="10.00">_PIN, CLOCK_PIN, RGB,</text>
<text text-anchor="start" x="1164.88" y="-341.75" font-family="Helvetica,sans-Serif" font-size="10.00"> DATA_RATE_MHZ(40), fl</text>
<text text-anchor="start" x="1164.88" y="-329" font-family="Helvetica,sans-Serif" font-size="10.00">::kFiveBitGammaCorrectionMode</text>
<text text-anchor="middle" x="1248.88" y="-316.25" font-family="Helvetica,sans-Serif" font-size="10.00">_Null, 0x00000000, 0x00000000 &gt;</text>
</a>
</g>
</g>
<!-- Node3&#45;&gt;Node8 -->
<g id="edge4_Node000003_Node000008" class="edge">
<title>Node3&#45;&gt;Node8</title>
<g id="a_edge4_Node000003_Node000008"><a xlink:title=" ">
<path fill="none" stroke="orange" stroke-dasharray="5,2" d="M847.44,-460.48C869.27,-434.3 901.72,-401.33 938.25,-383.88 1006.57,-351.23 1092.57,-342.61 1156.58,-341.5"/>
<polygon fill="orange" stroke="orange" points="845,-457.93 841.4,-467.89 850.43,-462.35 845,-457.93"/>
</a>
</g>
<text text-anchor="start" x="943.12" y="-425.38" font-family="Helvetica,sans-Serif" font-size="10.00" fill="grey"> &lt; DATA_PIN, CLOCK_PIN,</text>
<text text-anchor="start" x="943.12" y="-412.62" font-family="Helvetica,sans-Serif" font-size="10.00" fill="grey"> RGB, DATA_RATE_MHZ(40)</text>
<text text-anchor="start" x="943.12" y="-399.88" font-family="Helvetica,sans-Serif" font-size="10.00" fill="grey">, fl::kFiveBitGammaCorrectionMode</text>
<text text-anchor="middle" x="1030.12" y="-387.12" font-family="Helvetica,sans-Serif" font-size="10.00" fill="grey">_Null, 0x00000000, 0x00000000 &gt;</text>
</g>
<!-- Node10 -->
<g id="Node000010" class="node">
<title>Node10</title>
<g id="a_Node000010"><a xlink:href="../../df/d0d/group___clocked_chipsets.html" target="_top" xlink:title=" ">
<polygon fill="#fff0f0" stroke="red" points="1357.75,-583.75 1140,-583.75 1140,-512 1357.75,-512 1357.75,-583.75"/>
<text text-anchor="start" x="1148" y="-570.25" font-family="Helvetica,sans-Serif" font-size="10.00">APA102Controller&lt; DATA</text>
<text text-anchor="start" x="1148" y="-557.5" font-family="Helvetica,sans-Serif" font-size="10.00">_PIN, CLOCK_PIN, RGB_ORDER,</text>
<text text-anchor="start" x="1148" y="-544.75" font-family="Helvetica,sans-Serif" font-size="10.00"> SPI_SPEED, fl::kFiveBitGammaCorrection</text>
<text text-anchor="start" x="1148" y="-532" font-family="Helvetica,sans-Serif" font-size="10.00">Mode_BitShift, uint32_t(0x00000000)</text>
<text text-anchor="middle" x="1248.88" y="-519.25" font-family="Helvetica,sans-Serif" font-size="10.00">, uint32_t(0x00000000)&gt;</text>
</a>
</g>
</g>
<!-- Node3&#45;&gt;Node10 -->
<g id="edge5_Node000003_Node000010" class="edge">
<title>Node3&#45;&gt;Node10</title>
<g id="a_edge5_Node000003_Node000010"><a xlink:title=" ">
<path fill="none" stroke="orange" stroke-dasharray="5,2" d="M932.01,-519.02C934.1,-519.32 936.19,-519.6 938.25,-519.88 1005,-528.74 1080.22,-535.62 1139.8,-540.33"/>
<polygon fill="orange" stroke="orange" points="932.58,-515.57 922.18,-517.59 931.57,-522.5 932.58,-515.57"/>
</a>
</g>
<text text-anchor="start" x="939.75" y="-592.51" font-family="Helvetica,sans-Serif" font-size="10.00" fill="grey"> &lt; DATA_PIN, CLOCK_PIN,</text>
<text text-anchor="start" x="939.75" y="-579.76" font-family="Helvetica,sans-Serif" font-size="10.00" fill="grey"> RGB_ORDER, SPI_SPEED,</text>
<text text-anchor="start" x="939.75" y="-567.01" font-family="Helvetica,sans-Serif" font-size="10.00" fill="grey"> fl::kFiveBitGammaCorrection</text>
<text text-anchor="start" x="939.75" y="-554.26" font-family="Helvetica,sans-Serif" font-size="10.00" fill="grey">Mode_BitShift, uint32_t(0x00000000)</text>
<text text-anchor="middle" x="1030.12" y="-541.51" font-family="Helvetica,sans-Serif" font-size="10.00" fill="grey">, uint32_t(0x00000000)&gt;</text>
</g>
<!-- Node11 -->
<g id="Node000011" class="node">
<title>Node11</title>
<g id="a_Node000011"><a xlink:href="../../df/d0d/group___clocked_chipsets.html" target="_top" xlink:title=" ">
<polygon fill="#fff0f0" stroke="red" points="1340.88,-276.75 1156.88,-276.75 1156.88,-205 1340.88,-205 1340.88,-276.75"/>
<text text-anchor="start" x="1164.88" y="-263.25" font-family="Helvetica,sans-Serif" font-size="10.00">APA102Controller&lt; DATA</text>
<text text-anchor="start" x="1164.88" y="-250.5" font-family="Helvetica,sans-Serif" font-size="10.00">_PIN, CLOCK_PIN, RGB,</text>
<text text-anchor="start" x="1164.88" y="-237.75" font-family="Helvetica,sans-Serif" font-size="10.00"> DATA_RATE_MHZ(12), fl</text>
<text text-anchor="start" x="1164.88" y="-225" font-family="Helvetica,sans-Serif" font-size="10.00">::kFiveBitGammaCorrectionMode</text>
<text text-anchor="middle" x="1248.88" y="-212.25" font-family="Helvetica,sans-Serif" font-size="10.00">_Null, 0x00000000, 0x00000000 &gt;</text>
</a>
</g>
</g>
<!-- Node3&#45;&gt;Node11 -->
<g id="edge6_Node000003_Node000011" class="edge">
<title>Node3&#45;&gt;Node11</title>
<g id="a_edge6_Node000003_Node000011"><a xlink:title=" ">
<path fill="none" stroke="orange" stroke-dasharray="5,2" d="M829.87,-458.18C845.49,-409.29 878.9,-328.74 938.25,-287.88 1001.95,-244.01 1090.46,-234.38 1156.54,-234.49"/>
<polygon fill="orange" stroke="orange" points="826.58,-456.97 826.98,-467.55 833.27,-459.03 826.58,-456.97"/>
</a>
</g>
<text text-anchor="start" x="943.12" y="-329.38" font-family="Helvetica,sans-Serif" font-size="10.00" fill="grey"> &lt; DATA_PIN, CLOCK_PIN,</text>
<text text-anchor="start" x="943.12" y="-316.62" font-family="Helvetica,sans-Serif" font-size="10.00" fill="grey"> RGB, DATA_RATE_MHZ(12)</text>
<text text-anchor="start" x="943.12" y="-303.88" font-family="Helvetica,sans-Serif" font-size="10.00" fill="grey">, fl::kFiveBitGammaCorrectionMode</text>
<text text-anchor="middle" x="1030.12" y="-291.12" font-family="Helvetica,sans-Serif" font-size="10.00" fill="grey">_Null, 0x00000000, 0x00000000 &gt;</text>
</g>
<!-- Node13 -->
<g id="Node000013" class="node">
<title>Node13</title>
<g id="a_Node000013"><a xlink:href="../../df/d0d/group___clocked_chipsets.html" target="_top" xlink:title=" ">
<polygon fill="#fff0f0" stroke="red" points="1348.75,-691.75 1149,-691.75 1149,-620 1348.75,-620 1348.75,-691.75"/>
<text text-anchor="start" x="1157" y="-678.25" font-family="Helvetica,sans-Serif" font-size="10.00">APA102Controller&lt; DATA</text>
<text text-anchor="start" x="1157" y="-665.5" font-family="Helvetica,sans-Serif" font-size="10.00">_PIN, CLOCK_PIN, RGB,</text>
<text text-anchor="start" x="1157" y="-652.75" font-family="Helvetica,sans-Serif" font-size="10.00"> DATA_RATE_MHZ(12), fl</text>
<text text-anchor="start" x="1157" y="-640" font-family="Helvetica,sans-Serif" font-size="10.00">::kFiveBitGammaCorrectionMode</text>
<text text-anchor="middle" x="1248.88" y="-627.25" font-family="Helvetica,sans-Serif" font-size="10.00">_BitShift, 0x00000000, 0x00000000 &gt;</text>
</a>
</g>
</g>
<!-- Node3&#45;&gt;Node13 -->
<g id="edge7_Node000003_Node000013" class="edge">
<title>Node3&#45;&gt;Node13</title>
<g id="a_edge7_Node000003_Node000013"><a xlink:title=" ">
<path fill="none" stroke="orange" stroke-dasharray="5,2" d="M850.68,-536.94C872.77,-560.65 904.23,-589.64 938.25,-605.88 1004.1,-637.3 1085.85,-649.52 1148.81,-654.04"/>
<polygon fill="orange" stroke="orange" points="853.32,-534.64 844,-529.6 848.14,-539.35 853.32,-534.64"/>
</a>
</g>
<text text-anchor="start" x="938.25" y="-692.74" font-family="Helvetica,sans-Serif" font-size="10.00" fill="grey"> &lt; DATA_PIN, CLOCK_PIN,</text>
<text text-anchor="start" x="938.25" y="-679.99" font-family="Helvetica,sans-Serif" font-size="10.00" fill="grey"> RGB, DATA_RATE_MHZ(12)</text>
<text text-anchor="start" x="938.25" y="-667.24" font-family="Helvetica,sans-Serif" font-size="10.00" fill="grey">, fl::kFiveBitGammaCorrectionMode</text>
<text text-anchor="middle" x="1030.12" y="-654.49" font-family="Helvetica,sans-Serif" font-size="10.00" fill="grey">_BitShift, 0x00000000, 0x00000000 &gt;</text>
</g>
<!-- Node16 -->
<g id="Node000016" class="node">
<title>Node16</title>
<g id="a_Node000016"><a xlink:href="../../d7/d6f/group___clockless_chipsets.html" target="_top" xlink:title=" ">
<polygon fill="#fff0f0" stroke="red" points="1306.38,-1252.62 1191.38,-1252.62 1191.38,-1219.12 1306.38,-1219.12 1306.38,-1252.62"/>
<text text-anchor="start" x="1199.38" y="-1239.12" font-family="Helvetica,sans-Serif" font-size="10.00">DMXSerialController</text>
<text text-anchor="middle" x="1248.88" y="-1226.38" font-family="Helvetica,sans-Serif" font-size="10.00">&lt; RGB_ORDER &gt;</text>
</a>
</g>
</g>
<!-- Node15&#45;&gt;Node16 -->
<g id="edge9_Node000015_Node000016" class="edge">
<title>Node15&#45;&gt;Node16</title>
<g id="a_edge9_Node000015_Node000016"><a xlink:title=" ">
<path fill="none" stroke="orange" stroke-dasharray="5,2" d="M887,-1209.34C948.49,-1212.61 1041.35,-1217.94 1122,-1224.12 1144.54,-1225.85 1169.32,-1228.09 1190.89,-1230.15"/>
<polygon fill="orange" stroke="orange" points="887.2,-1205.84 877.03,-1208.81 886.83,-1212.83 887.2,-1205.84"/>
</a>
</g>
<text text-anchor="middle" x="1030.12" y="-1227.38" font-family="Helvetica,sans-Serif" font-size="10.00" fill="grey"> &lt; RGB_ORDER &gt;</text>
</g>
<!-- Node19 -->
<g id="Node000019" class="node">
<title>Node19</title>
<g id="a_Node000019"><a xlink:href="../../d7/d6f/group___clockless_chipsets.html" target="_top" xlink:title=" ">
<polygon fill="#fff0f0" stroke="red" points="1325.12,-1028.62 1172.62,-1028.62 1172.62,-995.12 1325.12,-995.12 1325.12,-1028.62"/>
<text text-anchor="start" x="1180.62" y="-1015.12" font-family="Helvetica,sans-Serif" font-size="10.00">DMXSimpleController</text>
<text text-anchor="middle" x="1248.88" y="-1002.38" font-family="Helvetica,sans-Serif" font-size="10.00">&lt; DATA_PIN, RGB_ORDER &gt;</text>
</a>
</g>
</g>
<!-- Node18&#45;&gt;Node19 -->
<g id="edge11_Node000018_Node000019" class="edge">
<title>Node18&#45;&gt;Node19</title>
<g id="a_edge11_Node000018_Node000019"><a xlink:title=" ">
<path fill="none" stroke="orange" stroke-dasharray="5,2" d="M900.14,-1133.71C906.97,-1131.81 913.74,-1129.86 920.25,-1127.88 1022.71,-1096.68 1140.59,-1052.98 1203.25,-1029.11"/>
<polygon fill="orange" stroke="orange" points="899.6,-1130.23 890.87,-1136.24 901.44,-1136.99 899.6,-1130.23"/>
</a>
</g>
<text text-anchor="middle" x="1030.12" y="-1122.77" font-family="Helvetica,sans-Serif" font-size="10.00" fill="grey"> &lt; DATA_PIN, RGB_ORDER &gt;</text>
</g>
<!-- Node26 -->
<g id="Node000026" class="node">
<title>Node26</title>
<g id="a_Node000026"><a xlink:href="../../df/d0d/group___clocked_chipsets.html" target="_top" xlink:title=" ">
<polygon fill="#fff0f0" stroke="red" points="1319.12,-818 1178.62,-818 1178.62,-771.75 1319.12,-771.75 1319.12,-818"/>
<text text-anchor="start" x="1186.62" y="-804.5" font-family="Helvetica,sans-Serif" font-size="10.00">WS2801Controller&lt; DATA</text>
<text text-anchor="start" x="1186.62" y="-791.75" font-family="Helvetica,sans-Serif" font-size="10.00">_PIN, CLOCK_PIN, RGB,</text>
<text text-anchor="middle" x="1248.88" y="-779" font-family="Helvetica,sans-Serif" font-size="10.00"> DATA_RATE_MHZ(25) &gt;</text>
</a>
</g>
</g>
<!-- Node25&#45;&gt;Node26 -->
<g id="edge17_Node000025_Node000026" class="edge">
<title>Node25&#45;&gt;Node26</title>
<g id="a_edge17_Node000025_Node000026"><a xlink:title=" ">
<path fill="none" stroke="orange" stroke-dasharray="5,2" d="M913.33,-829.96C993.43,-821.56 1106.42,-809.71 1178.41,-802.16"/>
<polygon fill="orange" stroke="orange" points="913.34,-826.44 903.76,-830.96 914.07,-833.4 913.34,-826.44"/>
</a>
</g>
<text text-anchor="start" x="957.75" y="-842.58" font-family="Helvetica,sans-Serif" font-size="10.00" fill="grey"> &lt; DATA_PIN, CLOCK_PIN,</text>
<text text-anchor="middle" x="1030.12" y="-829.83" font-family="Helvetica,sans-Serif" font-size="10.00" fill="grey"> RGB, DATA_RATE_MHZ(25) &gt;</text>
</g>
<!-- Node29 -->
<g id="Node000029" class="node">
<title>Node29</title>
<g id="a_Node000029"><a xlink:href="../../d4/d28/group___chipsets.html#d5/d83/class_r_g_b_w_emulated_controller" target="_top" xlink:title=" ">
<polygon fill="white" stroke="#666666" points="903,-290.62 732.5,-290.62 732.5,-257.12 903,-257.12 903,-290.62"/>
<text text-anchor="start" x="740.5" y="-277.12" font-family="Helvetica,sans-Serif" font-size="10.00">RGBWEmulatedController</text>
<text text-anchor="middle" x="817.75" y="-264.38" font-family="Helvetica,sans-Serif" font-size="10.00">&lt; CONTROLLER, RGB_ORDER &gt;</text>
</a>
</g>
</g>
<!-- Node28&#45;&gt;Node29 -->
<g id="edge19_Node000028_Node000029" class="edge">
<title>Node28&#45;&gt;Node29</title>
<g id="a_edge19_Node000028_Node000029"><a xlink:title=" ">
<path fill="none" stroke="#63b8ff" d="M669.38,-273.88C689.97,-273.88 711.78,-273.88 732.13,-273.88"/>
<polygon fill="#63b8ff" stroke="#63b8ff" points="669.6,-270.38 659.6,-273.88 669.6,-277.38 669.6,-270.38"/>
</a>
</g>
</g>
<!-- Node31 -->
<g id="Node000031" class="node">
<title>Node31</title>
<g id="a_Node000031"><a xlink:href="../../d4/d28/group___chipsets.html" target="_top" xlink:title=" ">
<polygon fill="white" stroke="#666666" points="1319.12,-108.62 1178.62,-108.62 1178.62,-75.12 1319.12,-75.12 1319.12,-108.62"/>
<text text-anchor="start" x="1186.62" y="-95.12" font-family="Helvetica,sans-Serif" font-size="10.00">WS2816Controller&lt; DATA</text>
<text text-anchor="middle" x="1248.88" y="-82.38" font-family="Helvetica,sans-Serif" font-size="10.00">_PIN, RGB_ORDER &gt;</text>
</a>
</g>
</g>
<!-- Node30&#45;&gt;Node31 -->
<g id="edge21_Node000030_Node000031" class="edge">
<title>Node30&#45;&gt;Node31</title>
<g id="a_edge21_Node000030_Node000031"><a xlink:title=" ">
<path fill="none" stroke="#63b8ff" d="M689.82,-121.09C799.48,-116.22 972.39,-108.21 1122,-99.88 1140.26,-98.86 1159.99,-97.65 1178.31,-96.49"/>
<polygon fill="#63b8ff" stroke="#63b8ff" points="689.76,-117.59 679.93,-121.53 690.07,-124.58 689.76,-117.59"/>
</a>
</g>
</g>
<!-- Node32 -->
<g id="Node000032" class="node">
<title>Node32</title>
<g id="a_Node000032"><a xlink:href="../../d7/d6f/group___clockless_chipsets.html#dc/d9f/class_w_s2816" target="_top" xlink:title="WS2816 controller class.">
<polygon fill="white" stroke="#666666" points="1536,-108.62 1394.75,-108.62 1394.75,-75.12 1536,-75.12 1536,-108.62"/>
<text text-anchor="start" x="1402.75" y="-95.12" font-family="Helvetica,sans-Serif" font-size="10.00">WS2816&lt; DATA_PIN, RGB</text>
<text text-anchor="middle" x="1465.38" y="-82.38" font-family="Helvetica,sans-Serif" font-size="10.00">_ORDER &gt;</text>
</a>
</g>
</g>
<!-- Node31&#45;&gt;Node32 -->
<g id="edge22_Node000031_Node000032" class="edge">
<title>Node31&#45;&gt;Node32</title>
<g id="a_edge22_Node000031_Node000032"><a xlink:title=" ">
<path fill="none" stroke="#63b8ff" d="M1330.94,-91.88C1351.81,-91.88 1374.09,-91.88 1394.35,-91.88"/>
<polygon fill="#63b8ff" stroke="#63b8ff" points="1331.03,-88.38 1321.03,-91.88 1331.03,-95.38 1331.03,-88.38"/>
</a>
</g>
</g>
<!-- Node34 -->
<g id="Node000034" class="node">
<title>Node34</title>
<g id="a_Node000034"><a xlink:href="../../d4/d28/group___chipsets.html#dd/dbc/class_w_s2816_controller" target="_top" xlink:title=" ">
<polygon fill="white" stroke="#666666" points="888,-79.62 747.5,-79.62 747.5,-46.12 888,-46.12 888,-79.62"/>
<text text-anchor="start" x="755.5" y="-66.12" font-family="Helvetica,sans-Serif" font-size="10.00">WS2816Controller&lt; DATA</text>
<text text-anchor="middle" x="817.75" y="-53.38" font-family="Helvetica,sans-Serif" font-size="10.00">_PIN, RGB_ORDER &gt;</text>
</a>
</g>
</g>
<!-- Node33&#45;&gt;Node34 -->
<g id="edge24_Node000033_Node000034" class="edge">
<title>Node33&#45;&gt;Node34</title>
<g id="a_edge24_Node000033_Node000034"><a xlink:title=" ">
<path fill="none" stroke="#63b8ff" d="M687.46,-48.17C707.7,-50.47 728.36,-52.82 747.06,-54.95"/>
<polygon fill="#63b8ff" stroke="#63b8ff" points="688.1,-44.72 677.77,-47.07 687.31,-51.67 688.1,-44.72"/>
</a>
</g>
</g>
<!-- Node34&#45;&gt;Node31 -->
<g id="edge25_Node000034_Node000031" class="edge">
<title>Node34&#45;&gt;Node31</title>
<g id="a_edge25_Node000034_Node000031"><a xlink:title=" ">
<path fill="none" stroke="orange" stroke-dasharray="5,2" d="M899.23,-68.31C979.6,-73.74 1101.86,-82.01 1178.2,-87.17"/>
<polygon fill="orange" stroke="orange" points="899.9,-64.85 889.68,-67.67 899.42,-71.84 899.9,-64.85"/>
</a>
</g>
<text text-anchor="middle" x="1030.12" y="-86.56" font-family="Helvetica,sans-Serif" font-size="10.00" fill="grey"> &lt; DATA_PIN, RGB_ORDER &gt;</text>
</g>
<!-- Node35&#45;&gt;Node2 -->
<g id="edge35_Node000035_Node000002" class="edge">
<title>Node35&#45;&gt;Node2</title>
<g id="a_edge35_Node000035_Node000002"><a xlink:title=" ">
<path fill="none" stroke="orange" stroke-dasharray="5,2" d="M194.84,-404.63C202.65,-497.3 227.59,-747.76 273.75,-814.88 334.88,-903.75 454.03,-957.49 523.51,-982.66"/>
<polygon fill="orange" stroke="orange" points="198.35,-404.57 194.04,-394.89 191.37,-405.15 198.35,-404.57"/>
</a>
</g>
<text text-anchor="middle" x="367.12" y="-959.45" font-family="Helvetica,sans-Serif" font-size="10.00" fill="grey"> &lt; RGB &gt;</text>
</g>
<!-- Node35&#45;&gt;Node4 -->
<g id="edge27_Node000035_Node000004" class="edge">
<title>Node35&#45;&gt;Node4</title>
<g id="a_edge27_Node000035_Node000004"><a xlink:title=" ">
<path fill="none" stroke="#63b8ff" d="M267.39,-367.24C482.14,-359.98 1084.78,-341.55 1122,-361.88 1134.98,-368.96 1129.14,-379.83 1140,-389.88 1146.87,-396.23 1154.56,-402.11 1162.6,-407.5"/>
<polygon fill="#63b8ff" stroke="#63b8ff" points="267.33,-363.74 257.45,-367.58 267.56,-370.74 267.33,-363.74"/>
</a>
</g>
</g>
<!-- Node35&#45;&gt;Node8 -->
<g id="edge28_Node000035_Node000008" class="edge">
<title>Node35&#45;&gt;Node8</title>
<g id="a_edge28_Node000035_Node000008"><a xlink:title=" ">
<path fill="none" stroke="#63b8ff" d="M267.53,-356.71C269.62,-356.42 271.7,-356.14 273.75,-355.88 345.26,-346.66 860.83,-340.72 920.25,-299.88 935.32,-289.52 922.75,-272.57 938.25,-262.88 1007.49,-219.56 1048.58,-227.1 1122,-262.88 1133.67,-268.56 1130.1,-277.48 1140,-285.88 1149.77,-294.16 1160.88,-301.8 1172.17,-308.65"/>
<polygon fill="#63b8ff" stroke="#63b8ff" points="267.1,-353.23 257.71,-358.14 268.11,-360.16 267.1,-353.23"/>
</a>
</g>
</g>
<!-- Node35&#45;&gt;Node10 -->
<g id="edge29_Node000035_Node000010" class="edge">
<title>Node35&#45;&gt;Node10</title>
<g id="a_edge29_Node000035_Node000010"><a xlink:title=" ">
<path fill="none" stroke="#63b8ff" d="M242.1,-398.97C359.02,-465.16 661.46,-625.5 938.25,-680.88 1018.33,-696.9 1057.46,-730.92 1122,-680.88 1147.39,-661.19 1120.64,-636.51 1140,-610.88 1147.71,-600.66 1157.6,-591.81 1168.25,-584.24"/>
<polygon fill="#63b8ff" stroke="#63b8ff" points="244.1,-396.08 233.67,-394.18 240.64,-402.17 244.1,-396.08"/>
</a>
</g>
</g>
<!-- Node35&#45;&gt;Node11 -->
<g id="edge30_Node000035_Node000011" class="edge">
<title>Node35&#45;&gt;Node11</title>
<g id="a_edge30_Node000035_Node000011"><a xlink:title=" ">
<path fill="none" stroke="#63b8ff" d="M208.17,-336.37C221.95,-311.51 244.25,-279.05 273.75,-261.88 353.07,-215.68 386.94,-241.39 478.5,-234.88 763.79,-214.59 836.26,-217.41 1122,-229.88 1133.18,-230.36 1144.9,-231.09 1156.5,-231.95"/>
<polygon fill="#63b8ff" stroke="#63b8ff" points="205.11,-334.69 203.51,-345.16 211.29,-337.97 205.11,-334.69"/>
</a>
</g>
</g>
<!-- Node35&#45;&gt;Node13 -->
<g id="edge31_Node000035_Node000013" class="edge">
<title>Node35&#45;&gt;Node13</title>
<g id="a_edge31_Node000035_Node000013"><a xlink:title=" ">
<path fill="none" stroke="#63b8ff" d="M210.91,-402.92C225.6,-426.48 247.84,-457.62 273.75,-478.88 515,-676.86 627.64,-675.52 938.25,-705.88 1019.53,-713.82 1041.79,-721.22 1122,-705.88 1137.82,-702.85 1154.19,-697.86 1169.67,-692.18"/>
<polygon fill="#63b8ff" stroke="#63b8ff" points="214.06,-401.36 205.87,-394.64 208.07,-405 214.06,-401.36"/>
</a>
</g>
</g>
<!-- Node35&#45;&gt;Node16 -->
<g id="edge32_Node000035_Node000016" class="edge">
<title>Node35&#45;&gt;Node16</title>
<g id="a_edge32_Node000035_Node000016"><a xlink:title=" ">
<path fill="none" stroke="#63b8ff" d="M192.92,-404.94C196.09,-519.17 210.98,-878.59 273.75,-972.88 399.83,-1162.24 496.4,-1169.78 715.25,-1231.88 810.62,-1258.94 839.12,-1235.76 938.25,-1236.88 1026.54,-1237.86 1128.99,-1237.17 1191.09,-1236.55"/>
<polygon fill="#63b8ff" stroke="#63b8ff" points="196.42,-404.88 192.65,-394.97 189.42,-405.06 196.42,-404.88"/>
</a>
</g>
</g>
<!-- Node35&#45;&gt;Node19 -->
<g id="edge33_Node000035_Node000019" class="edge">
<title>Node35&#45;&gt;Node19</title>
<g id="a_edge33_Node000035_Node000019"><a xlink:title=" ">
<path fill="none" stroke="#63b8ff" d="M194.09,-404.47C198.92,-457.67 215.68,-559.7 273.75,-619.88 341.05,-689.61 384.98,-669.46 478.5,-694.88 581.7,-722.93 609.85,-719.75 715.25,-737.88 715.96,-738 1121.41,-803.47 1122,-803.88 1131.18,-810.07 1210,-946.07 1238.03,-994.74"/>
<polygon fill="#63b8ff" stroke="#63b8ff" points="197.6,-404.47 193.3,-394.79 190.62,-405.04 197.6,-404.47"/>
</a>
</g>
</g>
<!-- Node35&#45;&gt;Node26 -->
<g id="edge34_Node000035_Node000026" class="edge">
<title>Node35&#45;&gt;Node26</title>
<g id="a_edge34_Node000035_Node000026"><a xlink:title=" ">
<path fill="none" stroke="#63b8ff" d="M199.65,-404.43C210.08,-445.26 232.51,-513.16 273.75,-556.88 343.78,-631.12 381.97,-627.71 478.5,-660.88 579.87,-695.7 609.75,-687.91 715.25,-706.88 803.11,-722.67 1055.15,-763.69 1178.37,-783.64"/>
<polygon fill="#63b8ff" stroke="#63b8ff" points="203.09,-403.78 197.32,-394.89 196.29,-405.44 203.09,-403.78"/>
</a>
</g>
</g>
<!-- Node35&#45;&gt;Node28 -->
<g id="edge36_Node000035_Node000028" class="edge">
<title>Node35&#45;&gt;Node28</title>
<g id="a_edge36_Node000035_Node000028"><a xlink:title=" ">
<path fill="none" stroke="orange" stroke-dasharray="5,2" d="M211.75,-337C226.07,-316.4 247.52,-291.57 273.75,-279.62 312.38,-262.04 422.51,-264.3 498.93,-268.4"/>
<polygon fill="orange" stroke="orange" points="208.96,-334.88 206.33,-345.14 214.79,-338.76 208.96,-334.88"/>
</a>
</g>
<text text-anchor="start" x="297" y="-308.38" font-family="Helvetica,sans-Serif" font-size="10.00" fill="grey"> &lt; GRB, CONTROLLER::</text>
<text text-anchor="start" x="297" y="-295.62" font-family="Helvetica,sans-Serif" font-size="10.00" fill="grey">LANES_VALUE, CONTROLLER</text>
<text text-anchor="middle" x="367.12" y="-282.88" font-family="Helvetica,sans-Serif" font-size="10.00" fill="grey">::MASK_VALUE &gt;</text>
</g>
<!-- Node35&#45;&gt;Node30 -->
<g id="edge37_Node000035_Node000030" class="edge">
<title>Node35&#45;&gt;Node30</title>
<g id="a_edge37_Node000035_Node000030"><a xlink:title=" ">
<path fill="none" stroke="orange" stroke-dasharray="5,2" d="M197.01,-335.38C205.05,-292.23 225.29,-219.36 273.75,-180.88 304.9,-156.14 402.08,-141.59 478.2,-133.74"/>
<polygon fill="orange" stroke="orange" points="193.61,-334.5 195.36,-344.95 200.51,-335.7 193.61,-334.5"/>
</a>
</g>
<text text-anchor="start" x="273.75" y="-222.38" font-family="Helvetica,sans-Serif" font-size="10.00" fill="grey"> &lt; RGB_ORDER, WS2812Controller800</text>
<text text-anchor="start" x="273.75" y="-209.62" font-family="Helvetica,sans-Serif" font-size="10.00" fill="grey">Khz&lt; DATA_PIN, RGB &gt;::LANES</text>
<text text-anchor="start" x="273.75" y="-196.88" font-family="Helvetica,sans-Serif" font-size="10.00" fill="grey">_VALUE, WS2812Controller800Khz</text>
<text text-anchor="middle" x="367.12" y="-184.12" font-family="Helvetica,sans-Serif" font-size="10.00" fill="grey">&lt; DATA_PIN, RGB &gt;::MASK_VALUE &gt;</text>
</g>
<!-- Node35&#45;&gt;Node33 -->
<g id="edge38_Node000035_Node000033" class="edge">
<title>Node35&#45;&gt;Node33</title>
<g id="a_edge38_Node000035_Node000033"><a xlink:title=" ">
<path fill="none" stroke="orange" stroke-dasharray="5,2" d="M197.15,-335.54C207.95,-266.72 235.51,-115.58 273.75,-81.88 329.44,-32.78 414.38,-23.49 480.27,-25.22"/>
<polygon fill="orange" stroke="orange" points="193.74,-334.71 195.68,-345.12 200.66,-335.77 193.74,-334.71"/>
</a>
</g>
<text text-anchor="start" x="277.5" y="-123.38" font-family="Helvetica,sans-Serif" font-size="10.00" fill="grey"> &lt; GRB, WS2812Controller800</text>
<text text-anchor="start" x="277.5" y="-110.62" font-family="Helvetica,sans-Serif" font-size="10.00" fill="grey">Khz&lt; DATA_PIN, RGB &gt;::LANES</text>
<text text-anchor="start" x="277.5" y="-97.88" font-family="Helvetica,sans-Serif" font-size="10.00" fill="grey">_VALUE, WS2812Controller800Khz</text>
<text text-anchor="middle" x="367.12" y="-85.12" font-family="Helvetica,sans-Serif" font-size="10.00" fill="grey">&lt; DATA_PIN, RGB &gt;::MASK_VALUE &gt;</text>
</g>
</g>
</svg>
