<?xml version="1.0" encoding="UTF-8" standalone="no"?>
<!DOCTYPE svg PUBLIC "-//W3C//DTD SVG 1.1//EN"
 "http://www.w3.org/Graphics/SVG/1.1/DTD/svg11.dtd">
<!-- Generated by graphviz version 12.2.1 (20241206.2353)
 -->
<!-- Title: fl::TimeScale::applyExact Pages: 1 -->
<svg width="514pt" height="29pt"
 viewBox="0.00 0.00 513.75 28.75" xmlns="http://www.w3.org/2000/svg" xmlns:xlink="http://www.w3.org/1999/xlink">
<g id="graph0" class="graph" transform="scale(1 1) rotate(0) translate(4 24.75)">
<title>fl::TimeScale::applyExact</title>
<!-- Node1 -->
<g id="Node000001" class="node">
<title>Node1</title>
<g id="a_Node000001"><a xlink:title=" ">
<polygon fill="#999999" stroke="#666666" points="505.75,-20.75 366.75,-20.75 366.75,0 505.75,0 505.75,-20.75"/>
<text text-anchor="middle" x="436.25" y="-7.25" font-family="Helvetica,sans-Serif" font-size="10.00">fl::TimeScale::applyExact</text>
</a>
</g>
</g>
<!-- Node2 -->
<g id="Node000002" class="node">
<title>Node2</title>
<g id="a_Node000002"><a xlink:href="../../d4/d54/classfl_1_1_time_scale.html#aaf4402f6d611d4fc50bdf22eccc26556" target="_top" xlink:title=" ">
<polygon fill="white" stroke="#666666" points="330.75,-20.75 212,-20.75 212,0 330.75,0 330.75,-20.75"/>
<text text-anchor="middle" x="271.38" y="-7.25" font-family="Helvetica,sans-Serif" font-size="10.00">fl::TimeScale::update</text>
</a>
</g>
</g>
<!-- Node1&#45;&gt;Node2 -->
<g id="edge1_Node000001_Node000002" class="edge">
<title>Node1&#45;&gt;Node2</title>
<g id="a_edge1_Node000001_Node000002"><a xlink:title=" ">
<path fill="none" stroke="#63b8ff" d="M355.21,-10.38C347.08,-10.38 338.94,-10.38 331.1,-10.38"/>
<polygon fill="#63b8ff" stroke="#63b8ff" points="355.13,-13.88 365.13,-10.38 355.13,-6.88 355.13,-13.88"/>
</a>
</g>
</g>
<!-- Node3 -->
<g id="Node000003" class="node">
<title>Node3</title>
<g id="a_Node000003"><a xlink:href="../../d4/d60/classfl_1_1_fx_engine.html#aa0b3b17d66712b3c2184d8c59c6b55f1" target="_top" xlink:title="Renders the current effect or transition to the output buffer.">
<polygon fill="white" stroke="#666666" points="176,-20.75 73,-20.75 73,0 176,0 176,-20.75"/>
<text text-anchor="middle" x="124.5" y="-7.25" font-family="Helvetica,sans-Serif" font-size="10.00">fl::FxEngine::draw</text>
</a>
</g>
</g>
<!-- Node2&#45;&gt;Node3 -->
<g id="edge2_Node000002_Node000003" class="edge">
<title>Node2&#45;&gt;Node3</title>
<g id="a_edge2_Node000002_Node000003"><a xlink:title=" ">
<path fill="none" stroke="#63b8ff" d="M200.43,-10.38C192.3,-10.38 184.12,-10.38 176.31,-10.38"/>
<polygon fill="#63b8ff" stroke="#63b8ff" points="200.35,-13.88 210.35,-10.38 200.35,-6.88 200.35,-13.88"/>
</a>
</g>
</g>
<!-- Node4 -->
<g id="Node000004" class="node">
<title>Node4</title>
<g id="a_Node000004"><a xlink:href="../../d6/d35/_fx_engine_8ino.html#afe461d27b9c48d5921c00d521181f12f" target="_top" xlink:title=" ">
<polygon fill="white" stroke="#666666" points="37,-20.75 0,-20.75 0,0 37,0 37,-20.75"/>
<text text-anchor="middle" x="18.5" y="-7.25" font-family="Helvetica,sans-Serif" font-size="10.00">loop</text>
</a>
</g>
</g>
<!-- Node3&#45;&gt;Node4 -->
<g id="edge3_Node000003_Node000004" class="edge">
<title>Node3&#45;&gt;Node4</title>
<g id="a_edge3_Node000003_Node000004"><a xlink:title=" ">
<path fill="none" stroke="#63b8ff" d="M61.38,-10.38C52.54,-10.38 44.11,-10.38 37.16,-10.38"/>
<polygon fill="#63b8ff" stroke="#63b8ff" points="61.21,-13.88 71.21,-10.38 61.21,-6.88 61.21,-13.88"/>
</a>
</g>
</g>
</g>
</svg>
