<?xml version="1.0" encoding="UTF-8" standalone="no"?>
<!DOCTYPE svg PUBLIC "-//W3C//DTD SVG 1.1//EN"
 "http://www.w3.org/Graphics/SVG/1.1/DTD/svg11.dtd">
<!-- Generated by graphviz version 12.2.1 (20241206.2353)
 -->
<!-- Title: fl::TimeScale::time Pages: 1 -->
<svg width="482pt" height="48pt"
 viewBox="0.00 0.00 482.25 47.75" xmlns="http://www.w3.org/2000/svg" xmlns:xlink="http://www.w3.org/1999/xlink">
<g id="graph0" class="graph" transform="scale(1 1) rotate(0) translate(4 43.75)">
<title>fl::TimeScale::time</title>
<!-- Node1 -->
<g id="Node000001" class="node">
<title>Node1</title>
<g id="a_Node000001"><a xlink:title=" ">
<polygon fill="#999999" stroke="#666666" points="474.25,-39.75 366.75,-39.75 366.75,-19 474.25,-19 474.25,-39.75"/>
<text text-anchor="middle" x="420.5" y="-26.25" font-family="Helvetica,sans-Serif" font-size="10.00">fl::TimeScale::time</text>
</a>
</g>
</g>
<!-- Node2 -->
<g id="Node000002" class="node">
<title>Node2</title>
<g id="a_Node000002"><a xlink:href="../../d4/d60/classfl_1_1_fx_engine.html#aa0b3b17d66712b3c2184d8c59c6b55f1" target="_top" xlink:title="Renders the current effect or transition to the output buffer.">
<polygon fill="white" stroke="#666666" points="176,-39.75 73,-39.75 73,-19 176,-19 176,-39.75"/>
<text text-anchor="middle" x="124.5" y="-26.25" font-family="Helvetica,sans-Serif" font-size="10.00">fl::FxEngine::draw</text>
</a>
</g>
</g>
<!-- Node1&#45;&gt;Node2 -->
<g id="edge1_Node000001_Node000002" class="edge">
<title>Node1&#45;&gt;Node2</title>
<g id="a_edge1_Node000001_Node000002"><a xlink:title=" ">
<path fill="none" stroke="#63b8ff" d="M354.81,-29.38C301.13,-29.38 225.83,-29.38 176.38,-29.38"/>
<polygon fill="#63b8ff" stroke="#63b8ff" points="354.75,-32.88 364.75,-29.38 354.75,-25.88 354.75,-32.88"/>
</a>
</g>
</g>
<!-- Node4 -->
<g id="Node000004" class="node">
<title>Node4</title>
<g id="a_Node000004"><a xlink:href="../../d4/d54/classfl_1_1_time_scale.html#aaf4402f6d611d4fc50bdf22eccc26556" target="_top" xlink:title=" ">
<polygon fill="white" stroke="#666666" points="330.75,-20.75 212,-20.75 212,0 330.75,0 330.75,-20.75"/>
<text text-anchor="middle" x="271.38" y="-7.25" font-family="Helvetica,sans-Serif" font-size="10.00">fl::TimeScale::update</text>
</a>
</g>
</g>
<!-- Node1&#45;&gt;Node4 -->
<g id="edge3_Node000001_Node000004" class="edge">
<title>Node1&#45;&gt;Node4</title>
<g id="a_edge3_Node000001_Node000004"><a xlink:title=" ">
<path fill="none" stroke="#63b8ff" d="M355.21,-21.07C347.21,-20.04 339.06,-18.99 331.14,-17.96"/>
<polygon fill="#63b8ff" stroke="#63b8ff" points="354.52,-24.51 364.88,-22.32 355.41,-17.57 354.52,-24.51"/>
</a>
</g>
</g>
<!-- Node3 -->
<g id="Node000003" class="node">
<title>Node3</title>
<g id="a_Node000003"><a xlink:href="../../d6/d35/_fx_engine_8ino.html#afe461d27b9c48d5921c00d521181f12f" target="_top" xlink:title=" ">
<polygon fill="white" stroke="#666666" points="37,-39.75 0,-39.75 0,-19 37,-19 37,-39.75"/>
<text text-anchor="middle" x="18.5" y="-26.25" font-family="Helvetica,sans-Serif" font-size="10.00">loop</text>
</a>
</g>
</g>
<!-- Node2&#45;&gt;Node3 -->
<g id="edge2_Node000002_Node000003" class="edge">
<title>Node2&#45;&gt;Node3</title>
<g id="a_edge2_Node000002_Node000003"><a xlink:title=" ">
<path fill="none" stroke="#63b8ff" d="M61.38,-29.38C52.54,-29.38 44.11,-29.38 37.16,-29.38"/>
<polygon fill="#63b8ff" stroke="#63b8ff" points="61.21,-32.88 71.21,-29.38 61.21,-25.88 61.21,-32.88"/>
</a>
</g>
</g>
<!-- Node4&#45;&gt;Node2 -->
<g id="edge4_Node000004_Node000002" class="edge">
<title>Node4&#45;&gt;Node2</title>
<g id="a_edge4_Node000004_Node000002"><a xlink:title=" ">
<path fill="none" stroke="#63b8ff" d="M200.71,-19.51C192.48,-20.59 184.21,-21.68 176.31,-22.71"/>
<polygon fill="#63b8ff" stroke="#63b8ff" points="200.91,-23.02 210.37,-18.25 200,-16.08 200.91,-23.02"/>
</a>
</g>
</g>
</g>
</svg>
