<?xml version="1.0" encoding="UTF-8" standalone="no"?>
<!DOCTYPE svg PUBLIC "-//W3C//DTD SVG 1.1//EN"
 "http://www.w3.org/Graphics/SVG/1.1/DTD/svg11.dtd">
<!-- Generated by graphviz version 12.2.1 (20241206.2353)
 -->
<!-- Title: fl::WeakPtr::expired Pages: 1 -->
<svg width="270pt" height="68pt"
 viewBox="0.00 0.00 270.25 67.75" xmlns="http://www.w3.org/2000/svg" xmlns:xlink="http://www.w3.org/1999/xlink">
<g id="graph0" class="graph" transform="scale(1 1) rotate(0) translate(4 63.75)">
<title>fl::WeakPtr::expired</title>
<!-- Node1 -->
<g id="Node000001" class="node">
<title>Node1</title>
<g id="a_Node000001"><a xlink:title=" ">
<polygon fill="#999999" stroke="#666666" points="262.25,-39.75 151,-39.75 151,-19 262.25,-19 262.25,-39.75"/>
<text text-anchor="middle" x="206.62" y="-26.25" font-family="Helvetica,sans-Serif" font-size="10.00">fl::WeakPtr::expired</text>
</a>
</g>
</g>
<!-- Node2 -->
<g id="Node000002" class="node">
<title>Node2</title>
<g id="a_Node000002"><a xlink:href="../../db/d77/classfl_1_1_weak_ptr.html#ae5e7b086bce142fafeda9fd7857a2522" target="_top" xlink:title=" ">
<polygon fill="white" stroke="#666666" points="115,-59.75 0,-59.75 0,-39 115,-39 115,-59.75"/>
<text text-anchor="middle" x="57.5" y="-46.25" font-family="Helvetica,sans-Serif" font-size="10.00">fl::WeakPtr::WeakPtr</text>
</a>
</g>
</g>
<!-- Node1&#45;&gt;Node2 -->
<g id="edge1_Node000001_Node000002" class="edge">
<title>Node1&#45;&gt;Node2</title>
<g id="a_edge1_Node000001_Node000002"><a xlink:title=" ">
<path fill="none" stroke="#63b8ff" d="M139.53,-38.36C131.44,-39.46 123.23,-40.58 115.3,-41.65"/>
<polygon fill="#63b8ff" stroke="#63b8ff" points="139.9,-41.84 149.34,-37.03 138.96,-34.91 139.9,-41.84"/>
</a>
</g>
</g>
<!-- Node3 -->
<g id="Node000003" class="node">
<title>Node3</title>
<g id="a_Node000003"><a xlink:href="../../db/d77/classfl_1_1_weak_ptr.html#a91f5017c37790d882d59ac3517dbb7da" target="_top" xlink:title=" ">
<polygon fill="white" stroke="#666666" points="115,-20.75 0,-20.75 0,0 115,0 115,-20.75"/>
<text text-anchor="middle" x="57.5" y="-7.25" font-family="Helvetica,sans-Serif" font-size="10.00">fl::WeakPtr::WeakPtr</text>
</a>
</g>
</g>
<!-- Node1&#45;&gt;Node3 -->
<g id="edge2_Node000001_Node000003" class="edge">
<title>Node1&#45;&gt;Node3</title>
<g id="a_edge2_Node000001_Node000003"><a xlink:title=" ">
<path fill="none" stroke="#63b8ff" d="M139.53,-20.84C131.44,-19.79 123.23,-18.73 115.3,-17.71"/>
<polygon fill="#63b8ff" stroke="#63b8ff" points="138.97,-24.3 149.34,-22.11 139.87,-17.35 138.97,-24.3"/>
</a>
</g>
</g>
</g>
</svg>
