<?xml version="1.0" encoding="UTF-8" standalone="no"?>
<!DOCTYPE svg PUBLIC "-//W3C//DTD SVG 1.1//EN"
 "http://www.w3.org/Graphics/SVG/1.1/DTD/svg11.dtd">
<!-- Generated by graphviz version 12.2.1 (20241206.2353)
 -->
<!-- Title: fl::WeakPtr::WeakPtr Pages: 1 -->
<svg width="589pt" height="146pt"
 viewBox="0.00 0.00 588.75 145.75" xmlns="http://www.w3.org/2000/svg" xmlns:xlink="http://www.w3.org/1999/xlink">
<g id="graph0" class="graph" transform="scale(1 1) rotate(0) translate(4 141.75)">
<title>fl::WeakPtr::WeakPtr</title>
<!-- Node1 -->
<g id="Node000001" class="node">
<title>Node1</title>
<g id="a_Node000001"><a xlink:title=" ">
<polygon fill="#999999" stroke="#666666" points="115,-78.75 0,-78.75 0,-58 115,-58 115,-78.75"/>
<text text-anchor="middle" x="57.5" y="-65.25" font-family="Helvetica,sans-Serif" font-size="10.00">fl::WeakPtr::WeakPtr</text>
</a>
</g>
</g>
<!-- Node2 -->
<g id="Node000002" class="node">
<title>Node2</title>
<g id="a_Node000002"><a xlink:href="../../db/d77/classfl_1_1_weak_ptr.html#a50a646a918848b1b5457649751291ba5" target="_top" xlink:title=" ">
<polygon fill="white" stroke="#666666" points="274.62,-137.75 163.38,-137.75 163.38,-117 274.62,-117 274.62,-137.75"/>
<text text-anchor="middle" x="219" y="-124.25" font-family="Helvetica,sans-Serif" font-size="10.00">fl::WeakPtr::expired</text>
</a>
</g>
</g>
<!-- Node1&#45;&gt;Node2 -->
<g id="edge1_Node000001_Node000002" class="edge">
<title>Node1&#45;&gt;Node2</title>
<g id="a_edge1_Node000001_Node000002"><a xlink:title=" ">
<path fill="none" stroke="#63b8ff" d="M82.18,-79.2C100.7,-87.46 127.21,-98.84 151,-107.38 156.64,-109.4 162.6,-111.39 168.54,-113.28"/>
<polygon fill="#63b8ff" stroke="#63b8ff" points="167.11,-116.5 177.7,-116.11 169.18,-109.81 167.11,-116.5"/>
</a>
</g>
</g>
<!-- Node3 -->
<g id="Node000003" class="node">
<title>Node3</title>
<g id="a_Node000003"><a xlink:href="../../d1/d56/classfl_1_1_ptr.html#aaceba516635f0f11e31fe94549316fb5" target="_top" xlink:title=" ">
<polygon fill="white" stroke="#666666" points="250.62,-98.75 187.38,-98.75 187.38,-78 250.62,-78 250.62,-98.75"/>
<text text-anchor="middle" x="219" y="-85.25" font-family="Helvetica,sans-Serif" font-size="10.00">fl::Ptr::get</text>
</a>
</g>
</g>
<!-- Node1&#45;&gt;Node3 -->
<g id="edge2_Node000001_Node000003" class="edge">
<title>Node1&#45;&gt;Node3</title>
<g id="a_edge2_Node000001_Node000003"><a xlink:title=" ">
<path fill="none" stroke="#63b8ff" d="M115.18,-75.48C135.11,-77.98 157.14,-80.74 175.68,-83.07"/>
<polygon fill="#63b8ff" stroke="#63b8ff" points="175.15,-86.53 185.51,-84.3 176.02,-79.58 175.15,-86.53"/>
</a>
</g>
</g>
<!-- Node4 -->
<g id="Node000004" class="node">
<title>Node4</title>
<g id="a_Node000004"><a xlink:href="../../da/d84/classfl_1_1_ptr_traits.html#a6f44b5dc3ee20b4ba14ed6b765cfa776" target="_top" xlink:title=" ">
<polygon fill="white" stroke="#666666" points="266.75,-59.75 171.25,-59.75 171.25,-39 266.75,-39 266.75,-59.75"/>
<text text-anchor="middle" x="219" y="-46.25" font-family="Helvetica,sans-Serif" font-size="10.00">fl::PtrTraits::New</text>
</a>
</g>
</g>
<!-- Node1&#45;&gt;Node4 -->
<g id="edge3_Node000001_Node000004" class="edge">
<title>Node1&#45;&gt;Node4</title>
<g id="a_edge3_Node000001_Node000004"><a xlink:title=" ">
<path fill="none" stroke="#63b8ff" d="M115.18,-61.62C129.6,-59.91 145.11,-58.06 159.61,-56.33"/>
<polygon fill="#63b8ff" stroke="#63b8ff" points="159.96,-59.81 169.47,-55.16 159.13,-52.86 159.96,-59.81"/>
</a>
</g>
</g>
<!-- Node7 -->
<g id="Node000007" class="node">
<title>Node7</title>
<g id="a_Node000007"><a xlink:href="../../d1/d56/classfl_1_1_ptr.html#a57a032ee1ece5b6014d258b07e566d53" target="_top" xlink:title=" ">
<polygon fill="white" stroke="#666666" points="287,-20.75 151,-20.75 151,0 287,0 287,-20.75"/>
<text text-anchor="middle" x="219" y="-7.25" font-family="Helvetica,sans-Serif" font-size="10.00">fl::Ptr::weakRefNoCreate</text>
</a>
</g>
</g>
<!-- Node1&#45;&gt;Node7 -->
<g id="edge6_Node000001_Node000007" class="edge">
<title>Node1&#45;&gt;Node7</title>
<g id="a_edge6_Node000001_Node000007"><a xlink:title=" ">
<path fill="none" stroke="#63b8ff" d="M82.98,-57.54C101.47,-49.54 127.59,-38.65 151,-30.38 156.72,-28.35 162.77,-26.36 168.78,-24.45"/>
<polygon fill="#63b8ff" stroke="#63b8ff" points="169.55,-27.88 178.08,-21.59 167.49,-21.19 169.55,-27.88"/>
</a>
</g>
</g>
<!-- Node5 -->
<g id="Node000005" class="node">
<title>Node5</title>
<g id="a_Node000005"><a xlink:href="../../d1/d56/classfl_1_1_ptr.html#a2895e9ece61a2b6fdd33f8195033cfbe" target="_top" xlink:title=" ">
<polygon fill="white" stroke="#666666" points="463.88,-59.75 342.88,-59.75 342.88,-39 463.88,-39 463.88,-59.75"/>
<text text-anchor="middle" x="403.38" y="-46.25" font-family="Helvetica,sans-Serif" font-size="10.00">fl::Ptr::TakeOwnership</text>
</a>
</g>
</g>
<!-- Node4&#45;&gt;Node5 -->
<g id="edge4_Node000004_Node000005" class="edge">
<title>Node4&#45;&gt;Node5</title>
<g id="a_edge4_Node000004_Node000005"><a xlink:title=" ">
<path fill="none" stroke="#63b8ff" d="M266.97,-49.38C286.47,-49.38 309.53,-49.38 331.05,-49.38"/>
<polygon fill="#63b8ff" stroke="#63b8ff" points="330.95,-52.88 340.95,-49.38 330.95,-45.88 330.95,-52.88"/>
</a>
</g>
</g>
<!-- Node6 -->
<g id="Node000006" class="node">
<title>Node6</title>
<g id="a_Node000006"><a xlink:href="../../d1/d56/classfl_1_1_ptr.html#a092e808d55b10861885afe25aa5aa72a" target="_top" xlink:title=" ">
<polygon fill="white" stroke="#666666" points="580.75,-59.75 519.75,-59.75 519.75,-39 580.75,-39 580.75,-59.75"/>
<text text-anchor="middle" x="550.25" y="-46.25" font-family="Helvetica,sans-Serif" font-size="10.00">fl::Ptr::Ptr</text>
</a>
</g>
</g>
<!-- Node5&#45;&gt;Node6 -->
<g id="edge5_Node000005_Node000006" class="edge">
<title>Node5&#45;&gt;Node6</title>
<g id="a_edge5_Node000005_Node000006"><a xlink:title=" ">
<path fill="none" stroke="#63b8ff" d="M464.14,-49.38C478.85,-49.38 494.28,-49.38 507.9,-49.38"/>
<polygon fill="#63b8ff" stroke="#63b8ff" points="507.82,-52.88 517.82,-49.38 507.82,-45.88 507.82,-52.88"/>
</a>
</g>
</g>
<!-- Node8 -->
<g id="Node000008" class="node">
<title>Node8</title>
<g id="a_Node000008"><a xlink:href="../../dd/da7/classfl_1_1_weak_referent.html#aa9f29b142e36e27df3673a3739abd756" target="_top" xlink:title=" ">
<polygon fill="white" stroke="#666666" points="483.75,-20.75 323,-20.75 323,0 483.75,0 483.75,-20.75"/>
<text text-anchor="middle" x="403.38" y="-7.25" font-family="Helvetica,sans-Serif" font-size="10.00">fl::WeakReferent::getReferent</text>
</a>
</g>
</g>
<!-- Node7&#45;&gt;Node8 -->
<g id="edge7_Node000007_Node000008" class="edge">
<title>Node7&#45;&gt;Node8</title>
<g id="a_edge7_Node000007_Node000008"><a xlink:title=" ">
<path fill="none" stroke="#63b8ff" d="M287.39,-10.38C295.18,-10.38 303.23,-10.38 311.27,-10.38"/>
<polygon fill="#63b8ff" stroke="#63b8ff" points="311.1,-13.88 321.1,-10.38 311.1,-6.88 311.1,-13.88"/>
</a>
</g>
</g>
</g>
</svg>
