<?xml version="1.0" encoding="UTF-8" standalone="no"?>
<!DOCTYPE svg PUBLIC "-//W3C//DTD SVG 1.1//EN"
 "http://www.w3.org/Graphics/SVG/1.1/DTD/svg11.dtd">
<!-- Generated by graphviz version 12.2.1 (20241206.2353)
 -->
<!-- Title: fl::WeakPtr::lock Pages: 1 -->
<svg width="357pt" height="68pt"
 viewBox="0.00 0.00 356.75 67.75" xmlns="http://www.w3.org/2000/svg" xmlns:xlink="http://www.w3.org/1999/xlink">
<g id="graph0" class="graph" transform="scale(1 1) rotate(0) translate(4 63.75)">
<title>fl::WeakPtr::lock</title>
<!-- Node1 -->
<g id="Node000001" class="node">
<title>Node1</title>
<g id="a_Node000001"><a xlink:title=" ">
<polygon fill="#999999" stroke="#666666" points="94.75,-39.75 0,-39.75 0,-19 94.75,-19 94.75,-39.75"/>
<text text-anchor="middle" x="47.38" y="-26.25" font-family="Helvetica,sans-Serif" font-size="10.00">fl::WeakPtr::lock</text>
</a>
</g>
</g>
<!-- Node2 -->
<g id="Node000002" class="node">
<title>Node2</title>
<g id="a_Node000002"><a xlink:href="../../d1/d56/classfl_1_1_ptr.html#a634e230ee0f4e89e43a2e127aca31aee" target="_top" xlink:title=" ">
<polygon fill="white" stroke="#666666" points="242,-59.75 140.5,-59.75 140.5,-39 242,-39 242,-59.75"/>
<text text-anchor="middle" x="191.25" y="-46.25" font-family="Helvetica,sans-Serif" font-size="10.00">fl::Ptr::NoTracking</text>
</a>
</g>
</g>
<!-- Node1&#45;&gt;Node2 -->
<g id="edge1_Node000001_Node000002" class="edge">
<title>Node1&#45;&gt;Node2</title>
<g id="a_edge1_Node000001_Node000002"><a xlink:title=" ">
<path fill="none" stroke="#63b8ff" d="M95.22,-35.98C106,-37.5 117.62,-39.14 128.9,-40.73"/>
<polygon fill="#63b8ff" stroke="#63b8ff" points="128.15,-44.15 138.54,-42.08 129.12,-37.22 128.15,-44.15"/>
</a>
</g>
</g>
<!-- Node4 -->
<g id="Node000004" class="node">
<title>Node4</title>
<g id="a_Node000004"><a xlink:href="../../d1/d56/classfl_1_1_ptr.html#a2895e9ece61a2b6fdd33f8195033cfbe" target="_top" xlink:title=" ">
<polygon fill="white" stroke="#666666" points="251.75,-20.75 130.75,-20.75 130.75,0 251.75,0 251.75,-20.75"/>
<text text-anchor="middle" x="191.25" y="-7.25" font-family="Helvetica,sans-Serif" font-size="10.00">fl::Ptr::TakeOwnership</text>
</a>
</g>
</g>
<!-- Node1&#45;&gt;Node4 -->
<g id="edge3_Node000001_Node000004" class="edge">
<title>Node1&#45;&gt;Node4</title>
<g id="a_edge3_Node000001_Node000004"><a xlink:title=" ">
<path fill="none" stroke="#63b8ff" d="M95.22,-23.1C102.85,-22.08 110.9,-21 118.95,-19.92"/>
<polygon fill="#63b8ff" stroke="#63b8ff" points="119.35,-23.4 128.79,-18.61 118.42,-16.46 119.35,-23.4"/>
</a>
</g>
</g>
<!-- Node3 -->
<g id="Node000003" class="node">
<title>Node3</title>
<g id="a_Node000003"><a xlink:href="../../d1/d56/classfl_1_1_ptr.html#a092e808d55b10861885afe25aa5aa72a" target="_top" xlink:title=" ">
<polygon fill="white" stroke="#666666" points="348.75,-39.75 287.75,-39.75 287.75,-19 348.75,-19 348.75,-39.75"/>
<text text-anchor="middle" x="318.25" y="-26.25" font-family="Helvetica,sans-Serif" font-size="10.00">fl::Ptr::Ptr</text>
</a>
</g>
</g>
<!-- Node2&#45;&gt;Node3 -->
<g id="edge2_Node000002_Node000003" class="edge">
<title>Node2&#45;&gt;Node3</title>
<g id="a_edge2_Node000002_Node000003"><a xlink:title=" ">
<path fill="none" stroke="#63b8ff" d="M242.37,-41.36C253.55,-39.57 265.27,-37.69 276.03,-35.97"/>
<polygon fill="#63b8ff" stroke="#63b8ff" points="276.45,-39.45 285.78,-34.41 275.35,-32.53 276.45,-39.45"/>
</a>
</g>
</g>
<!-- Node4&#45;&gt;Node3 -->
<g id="edge4_Node000004_Node000003" class="edge">
<title>Node4&#45;&gt;Node3</title>
<g id="a_edge4_Node000004_Node000003"><a xlink:title=" ">
<path fill="none" stroke="#63b8ff" d="M252.19,-19.49C260.34,-20.73 268.56,-21.97 276.27,-23.15"/>
<polygon fill="#63b8ff" stroke="#63b8ff" points="275.62,-26.59 286.03,-24.63 276.67,-19.67 275.62,-26.59"/>
</a>
</g>
</g>
</g>
</svg>
