<?xml version="1.0" encoding="UTF-8" standalone="no"?>
<!DOCTYPE svg PUBLIC "-//W3C//DTD SVG 1.1//EN"
 "http://www.w3.org/Graphics/SVG/1.1/DTD/svg11.dtd">
<!-- Generated by graphviz version 12.2.1 (20241206.2353)
 -->
<!-- Title: fl::Pir Pages: 1 -->
<svg width="172pt" height="98pt"
 viewBox="0.00 0.00 172.00 98.25" xmlns="http://www.w3.org/2000/svg" xmlns:xlink="http://www.w3.org/1999/xlink">
<g id="graph0" class="graph" transform="scale(1 1) rotate(0) translate(4 94.25)">
<title>fl::Pir</title>
<!-- Node1 -->
<g id="Node000001" class="node">
<title>Node1</title>
<g id="a_Node000001"><a xlink:title=" ">
<polygon fill="#999999" stroke="#666666" points="100.75,-20.75 60,-20.75 60,0 100.75,0 100.75,-20.75"/>
<text text-anchor="middle" x="80.38" y="-7.25" font-family="Helvetica,sans-Serif" font-size="10.00">fl::Pir</text>
</a>
</g>
</g>
<!-- Node2 -->
<g id="Node000002" class="node">
<title>Node2</title>
<g id="a_Node000002"><a xlink:href="../../d3/d1d/classfl_1_1_u_i_button.html" target="_top" xlink:title=" ">
<polygon fill="white" stroke="#666666" points="70.75,-90.25 0,-90.25 0,-69.5 70.75,-69.5 70.75,-90.25"/>
<text text-anchor="middle" x="35.38" y="-76.75" font-family="Helvetica,sans-Serif" font-size="10.00">fl::UIButton</text>
</a>
</g>
</g>
<!-- Node2&#45;&gt;Node1 -->
<g id="edge1_Node000001_Node000002" class="edge">
<title>Node2&#45;&gt;Node1</title>
<g id="a_edge1_Node000001_Node000002"><a xlink:title=" ">
<path fill="none" stroke="#9a32cd" stroke-dasharray="5,2" d="M46.36,-59.5C50.3,-52.82 54.89,-45.36 59.38,-38.75 63.48,-32.71 68.44,-26.2 72.51,-21.06"/>
<polygon fill="#9a32cd" stroke="#9a32cd" points="43.53,-57.4 41.55,-67.8 49.59,-60.9 43.53,-57.4"/>
</a>
</g>
<text text-anchor="middle" x="81.88" y="-42" font-family="Helvetica,sans-Serif" font-size="10.00" fill="grey"> mButton</text>
</g>
<!-- Node3 -->
<g id="Node000003" class="node">
<title>Node3</title>
<g id="a_Node000003"><a xlink:href="../../d0/d32/classfl_1_1_digital_pin.html" target="_top" xlink:title=" ">
<polygon fill="white" stroke="#666666" points="164,-90.25 88.75,-90.25 88.75,-69.5 164,-69.5 164,-90.25"/>
<text text-anchor="middle" x="126.38" y="-76.75" font-family="Helvetica,sans-Serif" font-size="10.00">fl::DigitalPin</text>
</a>
</g>
</g>
<!-- Node3&#45;&gt;Node1 -->
<g id="edge2_Node000001_Node000003" class="edge">
<title>Node3&#45;&gt;Node1</title>
<g id="a_edge2_Node000001_Node000003"><a xlink:title=" ">
<path fill="none" stroke="#9a32cd" stroke-dasharray="5,2" d="M116.61,-59.05C113.06,-52.41 108.81,-45.09 104.38,-38.75 100.03,-32.54 94.48,-26.13 89.82,-21.08"/>
<polygon fill="#9a32cd" stroke="#9a32cd" points="113.49,-60.64 121.17,-67.94 119.72,-57.44 113.49,-60.64"/>
</a>
</g>
<text text-anchor="middle" x="125.66" y="-42" font-family="Helvetica,sans-Serif" font-size="10.00" fill="grey"> mPin</text>
</g>
</g>
</svg>
