<?xml version="1.0" encoding="UTF-8" standalone="no"?>
<!DOCTYPE svg PUBLIC "-//W3C//DTD SVG 1.1//EN"
 "http://www.w3.org/Graphics/SVG/1.1/DTD/svg11.dtd">
<!-- Generated by graphviz version 12.2.1 (20241206.2353)
 -->
<!-- Title: loop Pages: 1 -->
<svg width="617pt" height="596pt"
 viewBox="0.00 0.00 616.50 595.75" xmlns="http://www.w3.org/2000/svg" xmlns:xlink="http://www.w3.org/1999/xlink">
<g id="graph0" class="graph" transform="scale(1 1) rotate(0) translate(4 591.75)">
<title>loop</title>
<!-- Node1 -->
<g id="Node000001" class="node">
<title>Node1</title>
<g id="a_Node000001"><a xlink:title=" ">
<polygon fill="#999999" stroke="#666666" points="37,-412.75 0,-412.75 0,-392 37,-392 37,-412.75"/>
<text text-anchor="middle" x="18.5" y="-399.25" font-family="Helvetica,sans-Serif" font-size="10.00">loop</text>
</a>
</g>
</g>
<!-- Node2 -->
<g id="Node000002" class="node">
<title>Node2</title>
<g id="a_Node000002"><a xlink:href="../../d0/d4b/classfl_1_1_video.html#a1782335a1d72248addea492fa965ab8b" target="_top" xlink:title=" ">
<polygon fill="white" stroke="#666666" points="179.75,-548.75 94,-548.75 94,-528 179.75,-528 179.75,-548.75"/>
<text text-anchor="middle" x="136.88" y="-535.25" font-family="Helvetica,sans-Serif" font-size="10.00">fl::Video::draw</text>
</a>
</g>
</g>
<!-- Node1&#45;&gt;Node2 -->
<g id="edge1_Node000001_Node000002" class="edge">
<title>Node1&#45;&gt;Node2</title>
<g id="a_edge1_Node000001_Node000002"><a xlink:title=" ">
<path fill="none" stroke="#63b8ff" d="M28.63,-413.05C48.26,-435.99 94.71,-490.26 119.54,-519.29"/>
<polygon fill="#63b8ff" stroke="#63b8ff" points="116.64,-521.28 125.8,-526.6 121.96,-516.73 116.64,-521.28"/>
</a>
</g>
</g>
<!-- Node5 -->
<g id="Node000005" class="node">
<title>Node5</title>
<g id="a_Node000005"><a xlink:href="../../d0/d4b/classfl_1_1_video.html#aa57f4eb0735d8b07f69c7d86318ddd0c" target="_top" xlink:title=" ">
<polygon fill="white" stroke="#666666" points="200.75,-451.75 73,-451.75 73,-431 200.75,-431 200.75,-451.75"/>
<text text-anchor="middle" x="136.88" y="-438.25" font-family="Helvetica,sans-Serif" font-size="10.00">fl::Video::setTimeScale</text>
</a>
</g>
</g>
<!-- Node1&#45;&gt;Node5 -->
<g id="edge4_Node000001_Node000005" class="edge">
<title>Node1&#45;&gt;Node5</title>
<g id="a_edge4_Node000001_Node000005"><a xlink:title=" ">
<path fill="none" stroke="#63b8ff" d="M37.43,-408.38C52.21,-413.34 73.78,-420.57 92.97,-427"/>
<polygon fill="#63b8ff" stroke="#63b8ff" points="91.6,-430.23 102.19,-430.09 93.82,-423.59 91.6,-430.23"/>
</a>
</g>
</g>
<!-- Node7 -->
<g id="Node000007" class="node">
<title>Node7</title>
<g id="a_Node000007"><a xlink:href="../../dd/dbb/class_c_fast_l_e_d.html#a83afdd1e2a21f33ac4f8d2610d6e331b" target="_top" xlink:title="Update all our controllers with the current led colors, using the passed in brightness.">
<polygon fill="white" stroke="#666666" points="183.12,-296.75 90.62,-296.75 90.62,-276 183.12,-276 183.12,-296.75"/>
<text text-anchor="middle" x="136.88" y="-283.25" font-family="Helvetica,sans-Serif" font-size="10.00">CFastLED::show</text>
</a>
</g>
</g>
<!-- Node1&#45;&gt;Node7 -->
<g id="edge6_Node000001_Node000007" class="edge">
<title>Node1&#45;&gt;Node7</title>
<g id="a_edge6_Node000001_Node000007"><a xlink:title=" ">
<path fill="none" stroke="#63b8ff" d="M30.24,-391.67C50.07,-371.9 92.66,-329.46 117.27,-304.92"/>
<polygon fill="#63b8ff" stroke="#63b8ff" points="119.48,-307.66 124.09,-298.12 114.54,-302.7 119.48,-307.66"/>
</a>
</g>
</g>
<!-- Node27 -->
<g id="Node000027" class="node">
<title>Node27</title>
<g id="a_Node000027"><a xlink:href="../../d9/d5f/classfl_1_1_u_i_number_field.html#a12b085596ca5cb182bfe302597f32838" target="_top" xlink:title=" ">
<polygon fill="white" stroke="#666666" points="190.25,-258.12 83.5,-258.12 83.5,-224.62 190.25,-224.62 190.25,-258.12"/>
<text text-anchor="start" x="91.5" y="-244.62" font-family="Helvetica,sans-Serif" font-size="10.00">fl::UINumberField::</text>
<text text-anchor="middle" x="136.88" y="-231.88" font-family="Helvetica,sans-Serif" font-size="10.00">value</text>
</a>
</g>
</g>
<!-- Node1&#45;&gt;Node27 -->
<g id="edge29_Node000001_Node000027" class="edge">
<title>Node1&#45;&gt;Node27</title>
<g id="a_edge29_Node000001_Node000027"><a xlink:title=" ">
<path fill="none" stroke="#63b8ff" d="M20.87,-391.73C24.61,-366.73 37.26,-303.65 73,-267.38 73.73,-266.64 74.47,-265.92 75.25,-265.23"/>
<polygon fill="#63b8ff" stroke="#63b8ff" points="77.11,-268.2 83,-259.39 72.9,-262.61 77.11,-268.2"/>
</a>
</g>
</g>
<!-- Node3 -->
<g id="Node000003" class="node">
<title>Node3</title>
<g id="a_Node000003"><a xlink:href="../../dc/d96/classfl_1_1_str_n.html#a67296b774f8201293edbbabbd1b642cb" target="_top" xlink:title=" ">
<polygon fill="white" stroke="#666666" points="365.25,-548.75 287,-548.75 287,-528 365.25,-528 365.25,-548.75"/>
<text text-anchor="middle" x="326.12" y="-535.25" font-family="Helvetica,sans-Serif" font-size="10.00">fl::StrN::c_str</text>
</a>
</g>
</g>
<!-- Node2&#45;&gt;Node3 -->
<g id="edge2_Node000002_Node000003" class="edge">
<title>Node2&#45;&gt;Node3</title>
<g id="a_edge2_Node000002_Node000003"><a xlink:title=" ">
<path fill="none" stroke="#63b8ff" d="M179.9,-538.38C208.17,-538.38 245.57,-538.38 275.34,-538.38"/>
<polygon fill="#63b8ff" stroke="#63b8ff" points="275.23,-541.88 285.23,-538.38 275.23,-534.88 275.23,-541.88"/>
</a>
</g>
</g>
<!-- Node4 -->
<g id="Node000004" class="node">
<title>Node4</title>
<g id="a_Node000004"><a xlink:href="../../dc/d96/classfl_1_1_str_n.html#a1e1d92d46d9311b6cb1fc94170bc8d6b" target="_top" xlink:title=" ">
<polygon fill="white" stroke="#666666" points="369.38,-587.75 282.88,-587.75 282.88,-567 369.38,-567 369.38,-587.75"/>
<text text-anchor="middle" x="326.12" y="-574.25" font-family="Helvetica,sans-Serif" font-size="10.00">fl::StrN::empty</text>
</a>
</g>
</g>
<!-- Node2&#45;&gt;Node4 -->
<g id="edge3_Node000002_Node000004" class="edge">
<title>Node2&#45;&gt;Node4</title>
<g id="a_edge3_Node000002_Node000004"><a xlink:title=" ">
<path fill="none" stroke="#63b8ff" d="M179.9,-547.13C206.93,-552.76 242.31,-560.13 271.39,-566.18"/>
<polygon fill="#63b8ff" stroke="#63b8ff" points="270.61,-569.6 281.11,-568.21 272.04,-562.74 270.61,-569.6"/>
</a>
</g>
</g>
<!-- Node6 -->
<g id="Node000006" class="node">
<title>Node6</title>
<g id="a_Node000006"><a xlink:href="../../d0/d4b/classfl_1_1_video.html#a182045a8c2ced125df6c990b54f92c8b" target="_top" xlink:title=" ">
<polygon fill="white" stroke="#666666" points="381.38,-509.75 270.88,-509.75 270.88,-489 381.38,-489 381.38,-509.75"/>
<text text-anchor="middle" x="326.12" y="-496.25" font-family="Helvetica,sans-Serif" font-size="10.00">fl::Video::timeScale</text>
</a>
</g>
</g>
<!-- Node5&#45;&gt;Node6 -->
<g id="edge5_Node000005_Node000006" class="edge">
<title>Node5&#45;&gt;Node6</title>
<g id="a_edge5_Node000005_Node000006"><a xlink:title=" ">
<path fill="none" stroke="#63b8ff" d="M163.13,-452.24C182.9,-460.47 211.23,-471.63 236.75,-479.38 244.41,-481.7 252.51,-483.89 260.58,-485.91"/>
<polygon fill="#63b8ff" stroke="#63b8ff" points="259.51,-489.25 270.05,-488.19 261.15,-482.45 259.51,-489.25"/>
</a>
</g>
</g>
<!-- Node8 -->
<g id="Node000008" class="node">
<title>Node8</title>
<g id="a_Node000008"><a xlink:href="../../d6/d2c/class_c_l_e_d_controller.html#af9962ef739bdb3b590ee66f3780765d6" target="_top" xlink:title=" ">
<polygon fill="white" stroke="#666666" points="411.75,-470.75 240.5,-470.75 240.5,-450 411.75,-450 411.75,-470.75"/>
<text text-anchor="middle" x="326.12" y="-457.25" font-family="Helvetica,sans-Serif" font-size="10.00">CLEDController::beginShowLeds</text>
</a>
</g>
</g>
<!-- Node7&#45;&gt;Node8 -->
<g id="edge7_Node000007_Node000008" class="edge">
<title>Node7&#45;&gt;Node8</title>
<g id="a_edge7_Node000007_Node000008"><a xlink:title=" ">
<path fill="none" stroke="#63b8ff" d="M141.76,-296.99C152.4,-324.53 184.7,-398.7 236.75,-436.38 241.46,-439.78 246.62,-442.71 252.02,-445.22"/>
<polygon fill="#63b8ff" stroke="#63b8ff" points="250.64,-448.44 261.23,-448.98 253.29,-441.95 250.64,-448.44"/>
</a>
</g>
</g>
<!-- Node10 -->
<g id="Node000010" class="node">
<title>Node10</title>
<g id="a_Node000010"><a xlink:href="../../d6/d2c/class_c_l_e_d_controller.html#a63f75cf7e55cf8da46db5fd27110bb3e" target="_top" xlink:title="How many LEDs does this controller manage?">
<polygon fill="white" stroke="#666666" points="587.5,-432.75 472.5,-432.75 472.5,-412 587.5,-412 587.5,-432.75"/>
<text text-anchor="middle" x="530" y="-419.25" font-family="Helvetica,sans-Serif" font-size="10.00">CLEDController::size</text>
</a>
</g>
</g>
<!-- Node7&#45;&gt;Node10 -->
<g id="edge28_Node000007_Node000010" class="edge">
<title>Node7&#45;&gt;Node10</title>
<g id="a_edge28_Node000007_Node000010"><a xlink:title=" ">
<path fill="none" stroke="#63b8ff" d="M143,-296.92C155.29,-320.91 189.02,-379.31 236.75,-403.38 306.95,-438.77 398.97,-438.34 460.84,-432.45"/>
<polygon fill="#63b8ff" stroke="#63b8ff" points="460.93,-435.96 470.52,-431.45 460.21,-428.99 460.93,-435.96"/>
</a>
</g>
</g>
<!-- Node11 -->
<g id="Node000011" class="node">
<title>Node11</title>
<g id="a_Node000011"><a xlink:href="../../dd/dbb/class_c_fast_l_e_d.html#a61d27e179c9b68bde89d220aebc0de32" target="_top" xlink:title="For debugging, this will keep track of time between calls to countFPS().">
<polygon fill="white" stroke="#666666" points="382.12,-20.75 270.12,-20.75 270.12,0 382.12,0 382.12,-20.75"/>
<text text-anchor="middle" x="326.12" y="-7.25" font-family="Helvetica,sans-Serif" font-size="10.00">CFastLED::countFPS</text>
</a>
</g>
</g>
<!-- Node7&#45;&gt;Node11 -->
<g id="edge10_Node000007_Node000011" class="edge">
<title>Node7&#45;&gt;Node11</title>
<g id="a_edge10_Node000007_Node000011"><a xlink:title=" ">
<path fill="none" stroke="#63b8ff" d="M183.48,-279.37C190.03,-276.58 196.11,-272.71 200.75,-267.38 269.47,-188.27 166.91,-112.5 236.75,-34.38 242.85,-27.55 250.68,-22.58 259.15,-18.98"/>
<polygon fill="#63b8ff" stroke="#63b8ff" points="260.04,-22.37 268.3,-15.73 257.7,-15.78 260.04,-22.37"/>
</a>
</g>
</g>
<!-- Node12 -->
<g id="Node000012" class="node">
<title>Node12</title>
<g id="a_Node000012"><a xlink:href="../../d6/d2c/class_c_l_e_d_controller.html#a49b221af013bf196c2068e2cbd1c299d" target="_top" xlink:title=" ">
<polygon fill="white" stroke="#666666" points="407.25,-96.75 245,-96.75 245,-76 407.25,-76 407.25,-96.75"/>
<text text-anchor="middle" x="326.12" y="-83.25" font-family="Helvetica,sans-Serif" font-size="10.00">CLEDController::endShowLeds</text>
</a>
</g>
</g>
<!-- Node7&#45;&gt;Node12 -->
<g id="edge11_Node000007_Node000012" class="edge">
<title>Node7&#45;&gt;Node12</title>
<g id="a_edge11_Node000007_Node000012"><a xlink:title=" ">
<path fill="none" stroke="#63b8ff" d="M183.51,-278.97C189.97,-276.22 196.02,-272.47 200.75,-267.38 250.92,-213.31 184.42,-157.35 236.75,-105.38 237.25,-104.87 237.77,-104.38 238.29,-103.91"/>
<polygon fill="#63b8ff" stroke="#63b8ff" points="240.31,-106.77 246.29,-98.03 236.16,-101.13 240.31,-106.77"/>
</a>
</g>
</g>
<!-- Node13 -->
<g id="Node000013" class="node">
<title>Node13</title>
<g id="a_Node000013"><a xlink:href="../../d6/d2c/class_c_l_e_d_controller.html#a2a231accbeb00e6a6080a7e55274a279" target="_top" xlink:title="Set the dithering mode for this controller to use.">
<polygon fill="white" stroke="#666666" points="600.25,-77.75 459.75,-77.75 459.75,-57 600.25,-57 600.25,-77.75"/>
<text text-anchor="middle" x="530" y="-64.25" font-family="Helvetica,sans-Serif" font-size="10.00">CLEDController::setDither</text>
</a>
</g>
</g>
<!-- Node7&#45;&gt;Node13 -->
<g id="edge25_Node000007_Node000013" class="edge">
<title>Node7&#45;&gt;Node13</title>
<g id="a_edge25_Node000007_Node000013"><a xlink:title=" ">
<path fill="none" stroke="#63b8ff" d="M183.37,-279.27C189.93,-276.49 196.05,-272.65 200.75,-267.38 260.83,-199.94 167.46,-125.31 236.75,-67.38 308.21,-7.63 427.46,-33.57 489.22,-53.03"/>
<polygon fill="#63b8ff" stroke="#63b8ff" points="488.03,-56.32 498.62,-56.1 490.2,-49.67 488.03,-56.32"/>
</a>
</g>
</g>
<!-- Node14 -->
<g id="Node000014" class="node">
<title>Node14</title>
<g id="a_Node000014"><a xlink:href="../../d6/d2c/class_c_l_e_d_controller.html#a6bd253f670640ea4d1bd0d71b8029f2a" target="_top" xlink:title=" ">
<polygon fill="white" stroke="#666666" points="401.25,-394.75 251,-394.75 251,-374 401.25,-374 401.25,-394.75"/>
<text text-anchor="middle" x="326.12" y="-381.25" font-family="Helvetica,sans-Serif" font-size="10.00">CLEDController::getEnabled</text>
</a>
</g>
</g>
<!-- Node7&#45;&gt;Node14 -->
<g id="edge13_Node000007_Node000014" class="edge">
<title>Node7&#45;&gt;Node14</title>
<g id="a_edge13_Node000007_Node000014"><a xlink:title=" ">
<path fill="none" stroke="#63b8ff" d="M148.05,-297.03C164.87,-313.98 200.24,-346.95 236.75,-364.38 241.18,-366.49 245.85,-368.39 250.62,-370.09"/>
<polygon fill="#63b8ff" stroke="#63b8ff" points="249.18,-373.3 259.77,-373.04 251.33,-366.64 249.18,-373.3"/>
</a>
</g>
</g>
<!-- Node15 -->
<g id="Node000015" class="node">
<title>Node15</title>
<g id="a_Node000015"><a xlink:href="../../d6/d2c/class_c_l_e_d_controller.html#a8b412ff1fd4833d0db63a175d40a2ee0" target="_top" xlink:title="Get the first LED controller in the linked list of controllers.">
<polygon fill="white" stroke="#666666" points="385.88,-355.75 266.38,-355.75 266.38,-335 385.88,-335 385.88,-355.75"/>
<text text-anchor="middle" x="326.12" y="-342.25" font-family="Helvetica,sans-Serif" font-size="10.00">CLEDController::head</text>
</a>
</g>
</g>
<!-- Node7&#45;&gt;Node15 -->
<g id="edge14_Node000007_Node000015" class="edge">
<title>Node7&#45;&gt;Node15</title>
<g id="a_edge14_Node000007_Node000015"><a xlink:title=" ">
<path fill="none" stroke="#63b8ff" d="M162.29,-297.22C182.07,-305.71 210.83,-317.38 236.75,-325.38 244.21,-327.68 252.1,-329.83 259.97,-331.82"/>
<polygon fill="#63b8ff" stroke="#63b8ff" points="259.02,-335.19 269.56,-334.16 260.67,-328.39 259.02,-335.19"/>
</a>
</g>
</g>
<!-- Node16 -->
<g id="Node000016" class="node">
<title>Node16</title>
<g id="a_Node000016"><a xlink:href="../../d6/d2c/class_c_l_e_d_controller.html#a21a4d2b3415dd7b24175ebdb51c9ced0" target="_top" xlink:title="Get the next controller in the linked list after this one.">
<polygon fill="white" stroke="#666666" points="384.75,-316.75 267.5,-316.75 267.5,-296 384.75,-296 384.75,-316.75"/>
<text text-anchor="middle" x="326.12" y="-303.25" font-family="Helvetica,sans-Serif" font-size="10.00">CLEDController::next</text>
</a>
</g>
</g>
<!-- Node7&#45;&gt;Node16 -->
<g id="edge15_Node000007_Node000016" class="edge">
<title>Node7&#45;&gt;Node16</title>
<g id="a_edge15_Node000007_Node000016"><a xlink:title=" ">
<path fill="none" stroke="#63b8ff" d="M183.2,-291.22C204.97,-293.54 231.54,-296.38 255.78,-298.97"/>
<polygon fill="#63b8ff" stroke="#63b8ff" points="255.27,-302.43 265.59,-300.02 256.02,-295.47 255.27,-302.43"/>
</a>
</g>
</g>
<!-- Node17 -->
<g id="Node000017" class="node">
<title>Node17</title>
<g id="a_Node000017"><a xlink:href="../../de/dca/classfl_1_1_engine_events.html#a7147debfba714b8ab0925af1a7c935c0" target="_top" xlink:title=" ">
<polygon fill="white" stroke="#666666" points="396,-200.12 256.25,-200.12 256.25,-166.62 396,-166.62 396,-200.12"/>
<text text-anchor="start" x="264.25" y="-186.62" font-family="Helvetica,sans-Serif" font-size="10.00">fl::EngineEvents::onBegin</text>
<text text-anchor="middle" x="326.12" y="-173.88" font-family="Helvetica,sans-Serif" font-size="10.00">Frame</text>
</a>
</g>
</g>
<!-- Node7&#45;&gt;Node17 -->
<g id="edge16_Node000007_Node000017" class="edge">
<title>Node7&#45;&gt;Node17</title>
<g id="a_edge16_Node000007_Node000017"><a xlink:title=" ">
<path fill="none" stroke="#63b8ff" d="M183.44,-276.95C189.62,-274.47 195.59,-271.33 200.75,-267.38 224.82,-248.91 212.61,-227.75 236.75,-209.38 239.68,-207.15 242.79,-205.11 246.04,-203.25"/>
<polygon fill="#63b8ff" stroke="#63b8ff" points="247.4,-206.48 254.75,-198.84 244.25,-200.23 247.4,-206.48"/>
</a>
</g>
</g>
<!-- Node21 -->
<g id="Node000021" class="node">
<title>Node21</title>
<g id="a_Node000021"><a xlink:href="../../de/dca/classfl_1_1_engine_events.html#ab7d24c4783214392de84947cd7df5570" target="_top" xlink:title=" ">
<polygon fill="white" stroke="#666666" points="406.5,-277.75 245.75,-277.75 245.75,-257 406.5,-257 406.5,-277.75"/>
<text text-anchor="middle" x="326.12" y="-264.25" font-family="Helvetica,sans-Serif" font-size="10.00">fl::EngineEvents::onEndFrame</text>
</a>
</g>
</g>
<!-- Node7&#45;&gt;Node21 -->
<g id="edge19_Node000007_Node000021" class="edge">
<title>Node7&#45;&gt;Node21</title>
<g id="a_edge19_Node000007_Node000021"><a xlink:title=" ">
<path fill="none" stroke="#63b8ff" d="M183.2,-281.78C198.64,-280.21 216.48,-278.4 234.2,-276.6"/>
<polygon fill="#63b8ff" stroke="#63b8ff" points="234.39,-280.1 243.98,-275.61 233.68,-273.14 234.39,-280.1"/>
</a>
</g>
</g>
<!-- Node23 -->
<g id="Node000023" class="node">
<title>Node23</title>
<g id="a_Node000023"><a xlink:href="../../de/dca/classfl_1_1_engine_events.html#af1bb9a46fdc6694a1b5c87a49c516ae8" target="_top" xlink:title=" ">
<polygon fill="white" stroke="#666666" points="415.5,-238.75 236.75,-238.75 236.75,-218 415.5,-218 415.5,-238.75"/>
<text text-anchor="middle" x="326.12" y="-225.25" font-family="Helvetica,sans-Serif" font-size="10.00">fl::EngineEvents::onEndShowLeds</text>
</a>
</g>
</g>
<!-- Node7&#45;&gt;Node23 -->
<g id="edge22_Node000007_Node000023" class="edge">
<title>Node7&#45;&gt;Node23</title>
<g id="a_edge22_Node000007_Node000023"><a xlink:title=" ">
<path fill="none" stroke="#63b8ff" d="M177.86,-275.56C185.55,-273.12 193.47,-270.36 200.75,-267.38 217.49,-260.5 219.78,-254.65 236.75,-248.38 242.89,-246.1 249.38,-244.04 255.93,-242.18"/>
<polygon fill="#63b8ff" stroke="#63b8ff" points="256.74,-245.59 265.5,-239.63 254.94,-238.82 256.74,-245.59"/>
</a>
</g>
</g>
<!-- Node25 -->
<g id="Node000025" class="node">
<title>Node25</title>
<g id="a_Node000025"><a xlink:href="../../d6/d2c/class_c_l_e_d_controller.html#ac5355e980ac13d9ae97561f183f73990" target="_top" xlink:title="Write the data to the LEDs managed by this controller.">
<polygon fill="white" stroke="#666666" points="397.88,-148.12 254.38,-148.12 254.38,-114.62 397.88,-114.62 397.88,-148.12"/>
<text text-anchor="start" x="262.38" y="-134.62" font-family="Helvetica,sans-Serif" font-size="10.00">CLEDController::showLeds</text>
<text text-anchor="middle" x="326.12" y="-121.88" font-family="Helvetica,sans-Serif" font-size="10.00">Internal</text>
</a>
</g>
</g>
<!-- Node7&#45;&gt;Node25 -->
<g id="edge26_Node000007_Node000025" class="edge">
<title>Node7&#45;&gt;Node25</title>
<g id="a_edge26_Node000007_Node000025"><a xlink:title=" ">
<path fill="none" stroke="#63b8ff" d="M183.4,-278.43C189.8,-275.74 195.86,-272.16 200.75,-267.38 237.54,-231.42 199.83,-193.2 236.75,-157.38 239.12,-155.08 241.68,-152.98 244.38,-151.07"/>
<polygon fill="#63b8ff" stroke="#63b8ff" points="246,-154.18 252.78,-146.03 242.4,-148.18 246,-154.18"/>
</a>
</g>
</g>
<!-- Node9 -->
<g id="Node000009" class="node">
<title>Node9</title>
<g id="a_Node000009"><a xlink:href="../../d6/d2c/class_c_l_e_d_controller.html#a676f705adf93898739a405b85150a3e7" target="_top" xlink:title="Get the dithering option currently set for this controller.">
<polygon fill="white" stroke="#666666" points="600.62,-471.75 459.38,-471.75 459.38,-451 600.62,-451 600.62,-471.75"/>
<text text-anchor="middle" x="530" y="-458.25" font-family="Helvetica,sans-Serif" font-size="10.00">CLEDController::getDither</text>
</a>
</g>
</g>
<!-- Node8&#45;&gt;Node9 -->
<g id="edge8_Node000008_Node000009" class="edge">
<title>Node8&#45;&gt;Node9</title>
<g id="a_edge8_Node000008_Node000009"><a xlink:title=" ">
<path fill="none" stroke="#63b8ff" d="M412.15,-460.8C423.87,-460.85 435.88,-460.91 447.54,-460.97"/>
<polygon fill="#63b8ff" stroke="#63b8ff" points="447.51,-464.47 457.53,-461.02 447.55,-457.47 447.51,-464.47"/>
</a>
</g>
</g>
<!-- Node8&#45;&gt;Node10 -->
<g id="edge9_Node000008_Node000010" class="edge">
<title>Node8&#45;&gt;Node10</title>
<g id="a_edge9_Node000008_Node000010"><a xlink:title=" ">
<path fill="none" stroke="#63b8ff" d="M384.7,-449.54C408.45,-445.07 436.16,-439.85 460.91,-435.19"/>
<polygon fill="#63b8ff" stroke="#63b8ff" points="461.38,-438.67 470.56,-433.38 460.08,-431.79 461.38,-438.67"/>
</a>
</g>
</g>
<!-- Node12&#45;&gt;Node13 -->
<g id="edge12_Node000012_Node000013" class="edge">
<title>Node12&#45;&gt;Node13</title>
<g id="a_edge12_Node000012_Node000013"><a xlink:title=" ">
<path fill="none" stroke="#63b8ff" d="M407.49,-78.81C420.89,-77.55 434.8,-76.24 448.21,-74.98"/>
<polygon fill="#63b8ff" stroke="#63b8ff" points="448.2,-78.5 457.83,-74.07 447.55,-71.53 448.2,-78.5"/>
</a>
</g>
</g>
<!-- Node18 -->
<g id="Node000018" class="node">
<title>Node18</title>
<g id="a_Node000018"><a xlink:href="../../de/dca/classfl_1_1_engine_events.html#a9dfab83407c4cb0c15065e242d49de62" target="_top" xlink:title=" ">
<polygon fill="white" stroke="#666666" points="580,-187.12 480,-187.12 480,-153.62 580,-153.62 580,-187.12"/>
<text text-anchor="start" x="488" y="-173.62" font-family="Helvetica,sans-Serif" font-size="10.00">fl::EngineEvents::</text>
<text text-anchor="middle" x="530" y="-160.88" font-family="Helvetica,sans-Serif" font-size="10.00">_onBeginFrame</text>
</a>
</g>
</g>
<!-- Node17&#45;&gt;Node18 -->
<g id="edge17_Node000017_Node000018" class="edge">
<title>Node17&#45;&gt;Node18</title>
<g id="a_edge17_Node000017_Node000018"><a xlink:title=" ">
<path fill="none" stroke="#63b8ff" d="M396.32,-178.92C419.75,-177.41 445.73,-175.74 468.44,-174.28"/>
<polygon fill="#63b8ff" stroke="#63b8ff" points="468.38,-177.79 478.13,-173.65 467.93,-170.8 468.38,-177.79"/>
</a>
</g>
</g>
<!-- Node19 -->
<g id="Node000019" class="node">
<title>Node19</title>
<g id="a_Node000019"><a xlink:href="../../de/dca/classfl_1_1_engine_events.html#a34a4625c4fbcf754f70820bc4f0e418b" target="_top" xlink:title=" ">
<polygon fill="#fff0f0" stroke="red" points="608.5,-277.75 451.5,-277.75 451.5,-257 608.5,-257 608.5,-277.75"/>
<text text-anchor="middle" x="530" y="-264.25" font-family="Helvetica,sans-Serif" font-size="10.00">fl::EngineEvents::getInstance</text>
</a>
</g>
</g>
<!-- Node17&#45;&gt;Node19 -->
<g id="edge18_Node000017_Node000019" class="edge">
<title>Node17&#45;&gt;Node19</title>
<g id="a_edge18_Node000017_Node000019"><a xlink:title=" ">
<path fill="none" stroke="#63b8ff" d="M396.27,-199.7C402.99,-202.46 409.52,-205.66 415.5,-209.38 435.54,-221.82 431.18,-236.39 451.5,-248.38 453.82,-249.74 456.23,-251.01 458.7,-252.19"/>
<polygon fill="#63b8ff" stroke="#63b8ff" points="457.21,-255.36 467.79,-255.95 459.89,-248.89 457.21,-255.36"/>
</a>
</g>
</g>
<!-- Node21&#45;&gt;Node19 -->
<g id="edge21_Node000021_Node000019" class="edge">
<title>Node21&#45;&gt;Node19</title>
<g id="a_edge21_Node000021_Node000019"><a xlink:title=" ">
<path fill="none" stroke="#63b8ff" d="M406.91,-267.38C417.71,-267.38 428.84,-267.38 439.79,-267.38"/>
<polygon fill="#63b8ff" stroke="#63b8ff" points="439.6,-270.88 449.6,-267.38 439.6,-263.88 439.6,-270.88"/>
</a>
</g>
</g>
<!-- Node22 -->
<g id="Node000022" class="node">
<title>Node22</title>
<g id="a_Node000022"><a xlink:href="../../de/dca/classfl_1_1_engine_events.html#a643d9a8597b79d76daed94c29845e886" target="_top" xlink:title=" ">
<polygon fill="white" stroke="#666666" points="580,-329.12 480,-329.12 480,-295.62 580,-295.62 580,-329.12"/>
<text text-anchor="start" x="488" y="-315.62" font-family="Helvetica,sans-Serif" font-size="10.00">fl::EngineEvents::</text>
<text text-anchor="middle" x="530" y="-302.88" font-family="Helvetica,sans-Serif" font-size="10.00">_onEndFrame</text>
</a>
</g>
</g>
<!-- Node21&#45;&gt;Node22 -->
<g id="edge20_Node000021_Node000022" class="edge">
<title>Node21&#45;&gt;Node22</title>
<g id="a_edge20_Node000021_Node000022"><a xlink:title=" ">
<path fill="none" stroke="#63b8ff" d="M375.74,-278.21C403.67,-284.44 438.99,-292.31 468.68,-298.93"/>
<polygon fill="#63b8ff" stroke="#63b8ff" points="467.76,-302.31 478.28,-301.07 469.28,-295.48 467.76,-302.31"/>
</a>
</g>
</g>
<!-- Node23&#45;&gt;Node19 -->
<g id="edge24_Node000023_Node000019" class="edge">
<title>Node23&#45;&gt;Node19</title>
<g id="a_edge24_Node000023_Node000019"><a xlink:title=" ">
<path fill="none" stroke="#63b8ff" d="M383.36,-239.24C407.65,-243.93 436.26,-249.46 461.67,-254.37"/>
<polygon fill="#63b8ff" stroke="#63b8ff" points="460.75,-257.75 471.23,-256.21 462.08,-250.88 460.75,-257.75"/>
</a>
</g>
</g>
<!-- Node24 -->
<g id="Node000024" class="node">
<title>Node24</title>
<g id="a_Node000024"><a xlink:href="../../de/dca/classfl_1_1_engine_events.html#ae6b4037ab7b73bf0d69e07c4956f9450" target="_top" xlink:title=" ">
<polygon fill="white" stroke="#666666" points="580,-239.12 480,-239.12 480,-205.62 580,-205.62 580,-239.12"/>
<text text-anchor="start" x="488" y="-225.62" font-family="Helvetica,sans-Serif" font-size="10.00">fl::EngineEvents::</text>
<text text-anchor="middle" x="530" y="-212.88" font-family="Helvetica,sans-Serif" font-size="10.00">_onEndShowLeds</text>
</a>
</g>
</g>
<!-- Node23&#45;&gt;Node24 -->
<g id="edge23_Node000023_Node000024" class="edge">
<title>Node23&#45;&gt;Node24</title>
<g id="a_edge23_Node000023_Node000024"><a xlink:title=" ">
<path fill="none" stroke="#63b8ff" d="M415.96,-225.73C433.76,-225.21 452.06,-224.66 468.61,-224.17"/>
<polygon fill="#63b8ff" stroke="#63b8ff" points="468.36,-227.68 478.25,-223.88 468.15,-220.68 468.36,-227.68"/>
</a>
</g>
</g>
<!-- Node26 -->
<g id="Node000026" class="node">
<title>Node26</title>
<g id="a_Node000026"><a xlink:href="../../d6/d2c/class_c_l_e_d_controller.html#afc8fb063666d03527aabc86d8531e007" target="_top" xlink:title="Write the passed in RGB data out to the LEDs managed by this controller.">
<polygon fill="white" stroke="#666666" points="590.5,-135.75 469.5,-135.75 469.5,-115 590.5,-115 590.5,-135.75"/>
<text text-anchor="middle" x="530" y="-122.25" font-family="Helvetica,sans-Serif" font-size="10.00">CLEDController::show</text>
</a>
</g>
</g>
<!-- Node25&#45;&gt;Node26 -->
<g id="edge27_Node000025_Node000026" class="edge">
<title>Node25&#45;&gt;Node26</title>
<g id="a_edge27_Node000025_Node000026"><a xlink:title=" ">
<path fill="none" stroke="#63b8ff" d="M398.3,-129.26C417.57,-128.69 438.42,-128.07 457.7,-127.49"/>
<polygon fill="#63b8ff" stroke="#63b8ff" points="457.75,-130.99 467.64,-127.2 457.54,-124 457.75,-130.99"/>
</a>
</g>
</g>
</g>
</svg>
