<?xml version="1.0" encoding="UTF-8" standalone="no"?>
<!DOCTYPE svg PUBLIC "-//W3C//DTD SVG 1.1//EN"
 "http://www.w3.org/Graphics/SVG/1.1/DTD/svg11.dtd">
<!-- Generated by graphviz version 12.2.1 (20241206.2353)
 -->
<!-- Title: fl::HeapVector::reserve Pages: 1 -->
<svg width="490pt" height="29pt"
 viewBox="0.00 0.00 489.50 28.75" xmlns="http://www.w3.org/2000/svg" xmlns:xlink="http://www.w3.org/1999/xlink">
<g id="graph0" class="graph" transform="scale(1 1) rotate(0) translate(4 24.75)">
<title>fl::HeapVector::reserve</title>
<!-- Node1 -->
<g id="Node000001" class="node">
<title>Node1</title>
<g id="a_Node000001"><a xlink:title=" ">
<polygon fill="#999999" stroke="#666666" points="127,-20.75 0,-20.75 0,0 127,0 127,-20.75"/>
<text text-anchor="middle" x="63.5" y="-7.25" font-family="Helvetica,sans-Serif" font-size="10.00">fl::HeapVector::reserve</text>
</a>
</g>
</g>
<!-- Node2 -->
<g id="Node000002" class="node">
<title>Node2</title>
<g id="a_Node000002"><a xlink:href="../../db/ddd/classfl_1_1_heap_vector.html#a9654c1f85b2219f36fcf1a6e146d660e" target="_top" xlink:title=" ">
<polygon fill="white" stroke="#666666" points="311,-20.75 163,-20.75 163,0 311,0 311,-20.75"/>
<text text-anchor="middle" x="237" y="-7.25" font-family="Helvetica,sans-Serif" font-size="10.00">fl::HeapVector::ensure_size</text>
</a>
</g>
</g>
<!-- Node1&#45;&gt;Node2 -->
<g id="edge1_Node000001_Node000002" class="edge">
<title>Node1&#45;&gt;Node2</title>
<g id="a_edge1_Node000001_Node000002"><a xlink:title=" ">
<path fill="none" stroke="#63b8ff" d="M127.39,-10.38C135.18,-10.38 143.25,-10.38 151.31,-10.38"/>
<polygon fill="#63b8ff" stroke="#63b8ff" points="151.15,-13.88 161.15,-10.38 151.15,-6.88 151.15,-13.88"/>
</a>
</g>
</g>
<!-- Node3 -->
<g id="Node000003" class="node">
<title>Node3</title>
<g id="a_Node000003"><a xlink:href="../../d3/d92/classfl_1_1scoped__array.html#a9b968a7427441d9c8abac6707a95bb9f" target="_top" xlink:title=" ">
<polygon fill="white" stroke="#666666" points="481.5,-20.75 347,-20.75 347,0 481.5,0 481.5,-20.75"/>
<text text-anchor="middle" x="414.25" y="-7.25" font-family="Helvetica,sans-Serif" font-size="10.00">fl::scoped_array::release</text>
</a>
</g>
</g>
<!-- Node2&#45;&gt;Node3 -->
<g id="edge2_Node000002_Node000003" class="edge">
<title>Node2&#45;&gt;Node3</title>
<g id="a_edge2_Node000002_Node000003"><a xlink:title=" ">
<path fill="none" stroke="#63b8ff" d="M311.31,-10.38C319.18,-10.38 327.22,-10.38 335.15,-10.38"/>
<polygon fill="#63b8ff" stroke="#63b8ff" points="335.15,-13.88 345.15,-10.38 335.15,-6.88 335.15,-13.88"/>
</a>
</g>
</g>
</g>
</svg>
