<?xml version="1.0" encoding="UTF-8" standalone="no"?>
<!DOCTYPE svg PUBLIC "-//W3C//DTD SVG 1.1//EN"
 "http://www.w3.org/Graphics/SVG/1.1/DTD/svg11.dtd">
<!-- Generated by graphviz version 12.2.1 (20241206.2353)
 -->
<!-- Title: fl::HeapVector::operator= Pages: 1 -->
<svg width="306pt" height="125pt"
 viewBox="0.00 0.00 305.50 124.75" xmlns="http://www.w3.org/2000/svg" xmlns:xlink="http://www.w3.org/1999/xlink">
<g id="graph0" class="graph" transform="scale(1 1) rotate(0) translate(4 120.75)">
<title>fl::HeapVector::operator=</title>
<!-- Node1 -->
<g id="Node000001" class="node">
<title>Node1</title>
<g id="a_Node000001"><a xlink:title=" ">
<polygon fill="#999999" stroke="#666666" points="139.75,-59.75 0,-59.75 0,-39 139.75,-39 139.75,-59.75"/>
<text text-anchor="middle" x="69.88" y="-46.25" font-family="Helvetica,sans-Serif" font-size="10.00">fl::HeapVector::operator=</text>
</a>
</g>
</g>
<!-- Node2 -->
<g id="Node000002" class="node">
<title>Node2</title>
<g id="a_Node000002"><a xlink:href="../../db/ddd/classfl_1_1_heap_vector.html#a33bdc4099fad6f9c8ae6e2d912c78b70" target="_top" xlink:title=" ">
<polygon fill="white" stroke="#666666" points="297.5,-98.75 175.75,-98.75 175.75,-78 297.5,-78 297.5,-98.75"/>
<text text-anchor="middle" x="236.62" y="-85.25" font-family="Helvetica,sans-Serif" font-size="10.00">fl::HeapVector::assign</text>
</a>
</g>
</g>
<!-- Node1&#45;&gt;Node2 -->
<g id="edge1_Node000001_Node000002" class="edge">
<title>Node1&#45;&gt;Node2</title>
<g id="a_edge1_Node000001_Node000002"><a xlink:title=" ">
<path fill="none" stroke="#63b8ff" d="M116.77,-60.24C135.97,-64.78 158.48,-70.11 178.72,-74.9"/>
<polygon fill="#63b8ff" stroke="#63b8ff" points="177.68,-78.26 188.22,-77.15 179.3,-71.44 177.68,-78.26"/>
</a>
</g>
</g>
<!-- Node3 -->
<g id="Node000003" class="node">
<title>Node3</title>
<g id="a_Node000003"><a xlink:href="../../db/ddd/classfl_1_1_heap_vector.html#aa52c25ba94c35ea3f05df279ee5a225b" target="_top" xlink:title=" ">
<polygon fill="white" stroke="#666666" points="295.25,-59.75 178,-59.75 178,-39 295.25,-39 295.25,-59.75"/>
<text text-anchor="middle" x="236.62" y="-46.25" font-family="Helvetica,sans-Serif" font-size="10.00">fl::HeapVector::begin</text>
</a>
</g>
</g>
<!-- Node1&#45;&gt;Node3 -->
<g id="edge3_Node000001_Node000003" class="edge">
<title>Node1&#45;&gt;Node3</title>
<g id="a_edge3_Node000001_Node000003"><a xlink:title=" ">
<path fill="none" stroke="#63b8ff" d="M139.79,-49.38C148.56,-49.38 157.53,-49.38 166.31,-49.38"/>
<polygon fill="#63b8ff" stroke="#63b8ff" points="166.18,-52.88 176.18,-49.38 166.18,-45.88 166.18,-52.88"/>
</a>
</g>
</g>
<!-- Node4 -->
<g id="Node000004" class="node">
<title>Node4</title>
<g id="a_Node000004"><a xlink:href="../../db/ddd/classfl_1_1_heap_vector.html#a85dba959a3cb0e1c8a5584b9b957443e" target="_top" xlink:title=" ">
<polygon fill="white" stroke="#666666" points="290.75,-20.75 182.5,-20.75 182.5,0 290.75,0 290.75,-20.75"/>
<text text-anchor="middle" x="236.62" y="-7.25" font-family="Helvetica,sans-Serif" font-size="10.00">fl::HeapVector::end</text>
</a>
</g>
</g>
<!-- Node1&#45;&gt;Node4 -->
<g id="edge4_Node000001_Node000004" class="edge">
<title>Node1&#45;&gt;Node4</title>
<g id="a_edge4_Node000001_Node000004"><a xlink:title=" ">
<path fill="none" stroke="#63b8ff" d="M116.77,-38.51C135.97,-33.97 158.48,-28.64 178.72,-23.85"/>
<polygon fill="#63b8ff" stroke="#63b8ff" points="179.3,-27.31 188.22,-21.6 177.68,-20.49 179.3,-27.31"/>
</a>
</g>
</g>
<!-- Node2&#45;&gt;Node2 -->
<g id="edge2_Node000002_Node000002" class="edge">
<title>Node2&#45;&gt;Node2</title>
<g id="a_edge2_Node000002_Node000002"><a xlink:title=" ">
<path fill="none" stroke="#63b8ff" d="M209.76,-99.15C199.01,-107.81 207.96,-116.75 236.62,-116.75 252.3,-116.75 262.08,-114.08 265.97,-110.24"/>
<polygon fill="#63b8ff" stroke="#63b8ff" points="269.42,-109.62 263.82,-100.62 262.58,-111.15 269.42,-109.62"/>
</a>
</g>
</g>
</g>
</svg>
