<?xml version="1.0" encoding="UTF-8" standalone="no"?>
<!DOCTYPE svg PUBLIC "-//W3C//DTD SVG 1.1//EN"
 "http://www.w3.org/Graphics/SVG/1.1/DTD/svg11.dtd">
<!-- Generated by graphviz version 12.2.1 (20241206.2353)
 -->
<!-- Title: fl::HeapVector::find Pages: 1 -->
<svg width="270pt" height="68pt"
 viewBox="0.00 0.00 269.50 67.75" xmlns="http://www.w3.org/2000/svg" xmlns:xlink="http://www.w3.org/1999/xlink">
<g id="graph0" class="graph" transform="scale(1 1) rotate(0) translate(4 63.75)">
<title>fl::HeapVector::find</title>
<!-- Node1 -->
<g id="Node000001" class="node">
<title>Node1</title>
<g id="a_Node000001"><a xlink:title=" ">
<polygon fill="#999999" stroke="#666666" points="108.25,-39.75 0,-39.75 0,-19 108.25,-19 108.25,-39.75"/>
<text text-anchor="middle" x="54.12" y="-26.25" font-family="Helvetica,sans-Serif" font-size="10.00">fl::HeapVector::find</text>
</a>
</g>
</g>
<!-- Node2 -->
<g id="Node000002" class="node">
<title>Node2</title>
<g id="a_Node000002"><a xlink:href="../../db/ddd/classfl_1_1_heap_vector.html#aa52c25ba94c35ea3f05df279ee5a225b" target="_top" xlink:title=" ">
<polygon fill="white" stroke="#666666" points="261.5,-59.75 144.25,-59.75 144.25,-39 261.5,-39 261.5,-59.75"/>
<text text-anchor="middle" x="202.88" y="-46.25" font-family="Helvetica,sans-Serif" font-size="10.00">fl::HeapVector::begin</text>
</a>
</g>
</g>
<!-- Node1&#45;&gt;Node2 -->
<g id="edge1_Node000001_Node000002" class="edge">
<title>Node1&#45;&gt;Node2</title>
<g id="a_edge1_Node000001_Node000002"><a xlink:title=" ">
<path fill="none" stroke="#63b8ff" d="M108.52,-36.65C116.32,-37.71 124.44,-38.82 132.5,-39.92"/>
<polygon fill="#63b8ff" stroke="#63b8ff" points="131.93,-43.38 142.31,-41.26 132.88,-36.44 131.93,-43.38"/>
</a>
</g>
</g>
<!-- Node3 -->
<g id="Node000003" class="node">
<title>Node3</title>
<g id="a_Node000003"><a xlink:href="../../db/ddd/classfl_1_1_heap_vector.html#a85dba959a3cb0e1c8a5584b9b957443e" target="_top" xlink:title=" ">
<polygon fill="white" stroke="#666666" points="257,-20.75 148.75,-20.75 148.75,0 257,0 257,-20.75"/>
<text text-anchor="middle" x="202.88" y="-7.25" font-family="Helvetica,sans-Serif" font-size="10.00">fl::HeapVector::end</text>
</a>
</g>
</g>
<!-- Node1&#45;&gt;Node3 -->
<g id="edge2_Node000001_Node000003" class="edge">
<title>Node1&#45;&gt;Node3</title>
<g id="a_edge2_Node000001_Node000003"><a xlink:title=" ">
<path fill="none" stroke="#63b8ff" d="M108.52,-22.46C117.73,-21.27 127.39,-20.02 136.86,-18.79"/>
<polygon fill="#63b8ff" stroke="#63b8ff" points="137.3,-22.26 146.77,-17.51 136.41,-15.32 137.3,-22.26"/>
</a>
</g>
</g>
</g>
</svg>
