<?xml version="1.0" encoding="UTF-8" standalone="no"?>
<!DOCTYPE svg PUBLIC "-//W3C//DTD SVG 1.1//EN"
 "http://www.w3.org/Graphics/SVG/1.1/DTD/svg11.dtd">
<!-- Generated by graphviz version 12.2.1 (20241206.2353)
 -->
<!-- Title: fl::HeapVector::begin Pages: 1 -->
<svg width="662pt" height="352pt"
 viewBox="0.00 0.00 662.25 351.75" xmlns="http://www.w3.org/2000/svg" xmlns:xlink="http://www.w3.org/1999/xlink">
<g id="graph0" class="graph" transform="scale(1 1) rotate(0) translate(4 347.75)">
<title>fl::HeapVector::begin</title>
<!-- Node1 -->
<g id="Node000001" class="node">
<title>Node1</title>
<g id="a_Node000001"><a xlink:title=" ">
<polygon fill="#999999" stroke="#666666" points="654.25,-187.75 537,-187.75 537,-167 654.25,-167 654.25,-187.75"/>
<text text-anchor="middle" x="595.62" y="-174.25" font-family="Helvetica,sans-Serif" font-size="10.00">fl::HeapVector::begin</text>
</a>
</g>
</g>
<!-- Node2 -->
<g id="Node000002" class="node">
<title>Node2</title>
<g id="a_Node000002"><a xlink:href="../../db/ddd/classfl_1_1_heap_vector.html#ae33a7e2f64524b3a0baf4f3217489809" target="_top" xlink:title=" ">
<polygon fill="white" stroke="#666666" points="501,-343.75 354.5,-343.75 354.5,-323 501,-323 501,-343.75"/>
<text text-anchor="middle" x="427.75" y="-330.25" font-family="Helvetica,sans-Serif" font-size="10.00">fl::HeapVector::HeapVector</text>
</a>
</g>
</g>
<!-- Node1&#45;&gt;Node2 -->
<g id="edge1_Node000001_Node000002" class="edge">
<title>Node1&#45;&gt;Node2</title>
<g id="a_edge1_Node000001_Node000002"><a xlink:title=" ">
<path fill="none" stroke="#63b8ff" d="M585.88,-198.3C572.24,-228.36 543.03,-283.44 501,-313.38 495.81,-317.08 489.95,-320.09 483.88,-322.55"/>
<polygon fill="#63b8ff" stroke="#63b8ff" points="588.93,-200.06 589.74,-189.49 582.52,-197.25 588.93,-200.06"/>
</a>
</g>
</g>
<!-- Node3 -->
<g id="Node000003" class="node">
<title>Node3</title>
<g id="a_Node000003"><a xlink:href="../../db/ddd/classfl_1_1_heap_vector.html#afa10dffb342cb026d6c378e0cab57d14" target="_top" xlink:title=" ">
<polygon fill="white" stroke="#666666" points="488.62,-304.75 366.88,-304.75 366.88,-284 488.62,-284 488.62,-304.75"/>
<text text-anchor="middle" x="427.75" y="-291.25" font-family="Helvetica,sans-Serif" font-size="10.00">fl::HeapVector::assign</text>
</a>
</g>
</g>
<!-- Node1&#45;&gt;Node3 -->
<g id="edge2_Node000001_Node000003" class="edge">
<title>Node1&#45;&gt;Node3</title>
<g id="a_edge2_Node000001_Node000003"><a xlink:title=" ">
<path fill="none" stroke="#63b8ff" d="M580.58,-197.35C564.02,-219.41 534.49,-254.45 501,-274.38 494.85,-278.03 488,-281.04 481.05,-283.52"/>
<polygon fill="#63b8ff" stroke="#63b8ff" points="583.28,-199.59 586.35,-189.45 577.62,-195.46 583.28,-199.59"/>
</a>
</g>
</g>
<!-- Node4 -->
<g id="Node000004" class="node">
<title>Node4</title>
<g id="a_Node000004"><a xlink:href="../../db/ddd/classfl_1_1_heap_vector.html#abdae713c35ce24944743c0a54070edfe" target="_top" xlink:title=" ">
<polygon fill="white" stroke="#666666" points="481.88,-265.75 373.62,-265.75 373.62,-245 481.88,-245 481.88,-265.75"/>
<text text-anchor="middle" x="427.75" y="-252.25" font-family="Helvetica,sans-Serif" font-size="10.00">fl::HeapVector::find</text>
</a>
</g>
</g>
<!-- Node1&#45;&gt;Node4 -->
<g id="edge3_Node000001_Node000004" class="edge">
<title>Node1&#45;&gt;Node4</title>
<g id="a_edge3_Node000001_Node000004"><a xlink:title=" ">
<path fill="none" stroke="#63b8ff" d="M570.81,-194.78C552.49,-207.5 526.13,-224.38 501,-235.38 492.89,-238.92 483.99,-242 475.3,-244.6"/>
<polygon fill="#63b8ff" stroke="#63b8ff" points="572.73,-197.71 578.87,-189.08 568.69,-192 572.73,-197.71"/>
</a>
</g>
</g>
<!-- Node7 -->
<g id="Node000007" class="node">
<title>Node7</title>
<g id="a_Node000007"><a xlink:href="../../db/ddd/classfl_1_1_heap_vector.html#a1bd6740fe3d7fb5b8cb631cba105ed85" target="_top" xlink:title=" ">
<polygon fill="white" stroke="#666666" points="481.88,-226.75 373.62,-226.75 373.62,-206 481.88,-206 481.88,-226.75"/>
<text text-anchor="middle" x="427.75" y="-213.25" font-family="Helvetica,sans-Serif" font-size="10.00">fl::HeapVector::find</text>
</a>
</g>
</g>
<!-- Node1&#45;&gt;Node7 -->
<g id="edge6_Node000001_Node000007" class="edge">
<title>Node1&#45;&gt;Node7</title>
<g id="a_edge6_Node000001_Node000007"><a xlink:title=" ">
<path fill="none" stroke="#63b8ff" d="M537.37,-190.84C517,-195.63 494.33,-200.96 475,-205.5"/>
<polygon fill="#63b8ff" stroke="#63b8ff" points="538.01,-194.28 546.95,-188.59 536.41,-187.47 538.01,-194.28"/>
</a>
</g>
</g>
<!-- Node8 -->
<g id="Node000008" class="node">
<title>Node8</title>
<g id="a_Node000008"><a xlink:href="../../db/ddd/classfl_1_1_heap_vector.html#a859daf2d4968b7e8e448c7c47420dfa9" target="_top" xlink:title=" ">
<polygon fill="white" stroke="#666666" points="487.88,-187.75 367.62,-187.75 367.62,-167 487.88,-167 487.88,-187.75"/>
<text text-anchor="middle" x="427.75" y="-174.25" font-family="Helvetica,sans-Serif" font-size="10.00">fl::HeapVector::find_if</text>
</a>
</g>
</g>
<!-- Node1&#45;&gt;Node8 -->
<g id="edge7_Node000001_Node000008" class="edge">
<title>Node1&#45;&gt;Node8</title>
<g id="a_edge7_Node000001_Node000008"><a xlink:title=" ">
<path fill="none" stroke="#63b8ff" d="M525.39,-177.38C513.01,-177.38 500.21,-177.38 488.14,-177.38"/>
<polygon fill="#63b8ff" stroke="#63b8ff" points="525.1,-180.88 535.1,-177.38 525.1,-173.88 525.1,-180.88"/>
</a>
</g>
</g>
<!-- Node9 -->
<g id="Node000009" class="node">
<title>Node9</title>
<g id="a_Node000009"><a xlink:href="../../de/d10/classfl_1_1_rectangular_draw_buffer.html#a87f728161573a58fb2bef6c684281bc8" target="_top" xlink:title=" ">
<polygon fill="white" stroke="#666666" points="498.38,-149.12 357.12,-149.12 357.12,-115.62 498.38,-115.62 498.38,-149.12"/>
<text text-anchor="start" x="365.12" y="-135.62" font-family="Helvetica,sans-Serif" font-size="10.00">fl::RectangularDrawBuffer</text>
<text text-anchor="middle" x="427.75" y="-122.88" font-family="Helvetica,sans-Serif" font-size="10.00">::getMaxBytesInStrip</text>
</a>
</g>
</g>
<!-- Node1&#45;&gt;Node9 -->
<g id="edge8_Node000001_Node000009" class="edge">
<title>Node1&#45;&gt;Node9</title>
<g id="a_edge8_Node000001_Node000009"><a xlink:title=" ">
<path fill="none" stroke="#63b8ff" d="M543.93,-163.62C527.59,-159.19 509.26,-154.22 492.12,-149.57"/>
<polygon fill="#63b8ff" stroke="#63b8ff" points="542.87,-166.96 553.43,-166.2 544.7,-160.2 542.87,-166.96"/>
</a>
</g>
</g>
<!-- Node11 -->
<g id="Node000011" class="node">
<title>Node11</title>
<g id="a_Node000011"><a xlink:href="../../de/d10/classfl_1_1_rectangular_draw_buffer.html#a793464dde6e4e1a324ab46973615345c" target="_top" xlink:title=" ">
<polygon fill="white" stroke="#666666" points="141.25,-152.12 0,-152.12 0,-118.62 141.25,-118.62 141.25,-152.12"/>
<text text-anchor="start" x="8" y="-138.62" font-family="Helvetica,sans-Serif" font-size="10.00">fl::RectangularDrawBuffer</text>
<text text-anchor="middle" x="70.62" y="-125.88" font-family="Helvetica,sans-Serif" font-size="10.00">::onQueuingDone</text>
</a>
</g>
</g>
<!-- Node1&#45;&gt;Node11 -->
<g id="edge13_Node000001_Node000011" class="edge">
<title>Node1&#45;&gt;Node11</title>
<g id="a_edge13_Node000001_Node000011"><a xlink:title=" ">
<path fill="none" stroke="#63b8ff" d="M577.44,-158.68C560.1,-141.33 531.57,-116.66 501,-106.38 373,-63.33 211.7,-95.53 127.93,-118.17"/>
<polygon fill="#63b8ff" stroke="#63b8ff" points="574.5,-160.68 583.96,-165.44 579.53,-155.81 574.5,-160.68"/>
</a>
</g>
</g>
<!-- Node13 -->
<g id="Node000013" class="node">
<title>Node13</title>
<g id="a_Node000013"><a xlink:href="../../db/ddd/classfl_1_1_heap_vector.html#a4a2c31638b5aa6bc3dac996285547e06" target="_top" xlink:title=" ">
<polygon fill="white" stroke="#666666" points="486.75,-59.75 368.75,-59.75 368.75,-39 486.75,-39 486.75,-59.75"/>
<text text-anchor="middle" x="427.75" y="-46.25" font-family="Helvetica,sans-Serif" font-size="10.00">fl::HeapVector::insert</text>
</a>
</g>
</g>
<!-- Node1&#45;&gt;Node13 -->
<g id="edge12_Node000001_Node000013" class="edge">
<title>Node1&#45;&gt;Node13</title>
<g id="a_edge12_Node000001_Node000013"><a xlink:title=" ">
<path fill="none" stroke="#63b8ff" d="M581.44,-157.29C565.15,-133.97 535.36,-95.85 501,-73.38 492.59,-67.88 482.81,-63.53 473.21,-60.13"/>
<polygon fill="#63b8ff" stroke="#63b8ff" points="578.38,-159.02 586.9,-165.32 584.17,-155.08 578.38,-159.02"/>
</a>
</g>
</g>
<!-- Node14 -->
<g id="Node000014" class="node">
<title>Node14</title>
<g id="a_Node000014"><a xlink:href="../../db/ddd/classfl_1_1_heap_vector.html#a729f1c0fa07ccd04379a1c17fde5aee0" target="_top" xlink:title=" ">
<polygon fill="white" stroke="#666666" points="497.62,-20.75 357.88,-20.75 357.88,0 497.62,0 497.62,-20.75"/>
<text text-anchor="middle" x="427.75" y="-7.25" font-family="Helvetica,sans-Serif" font-size="10.00">fl::HeapVector::operator=</text>
</a>
</g>
</g>
<!-- Node1&#45;&gt;Node14 -->
<g id="edge14_Node000001_Node000014" class="edge">
<title>Node1&#45;&gt;Node14</title>
<g id="a_edge14_Node000001_Node000014"><a xlink:title=" ">
<path fill="none" stroke="#63b8ff" d="M586.9,-156.14C574.1,-123.99 545.41,-63.23 501,-30.38 495.98,-26.66 490.3,-23.63 484.39,-21.17"/>
<polygon fill="#63b8ff" stroke="#63b8ff" points="583.51,-157.09 590.35,-165.18 590.05,-154.58 583.51,-157.09"/>
</a>
</g>
</g>
<!-- Node5 -->
<g id="Node000005" class="node">
<title>Node5</title>
<g id="a_Node000005"><a xlink:href="../../db/ddd/classfl_1_1_heap_vector.html#ace4cdd0396565da7276497ba04ed3927" target="_top" xlink:title=" ">
<polygon fill="white" stroke="#666666" points="306.5,-291.75 189.25,-291.75 189.25,-271 306.5,-271 306.5,-291.75"/>
<text text-anchor="middle" x="247.88" y="-278.25" font-family="Helvetica,sans-Serif" font-size="10.00">fl::HeapVector::erase</text>
</a>
</g>
</g>
<!-- Node4&#45;&gt;Node5 -->
<g id="edge4_Node000004_Node000005" class="edge">
<title>Node4&#45;&gt;Node5</title>
<g id="a_edge4_Node000004_Node000005"><a xlink:title=" ">
<path fill="none" stroke="#63b8ff" d="M362.06,-264.83C344,-267.47 324.5,-270.32 306.86,-272.9"/>
<polygon fill="#63b8ff" stroke="#63b8ff" points="362.5,-268.3 371.88,-263.39 361.48,-261.38 362.5,-268.3"/>
</a>
</g>
</g>
<!-- Node6 -->
<g id="Node000006" class="node">
<title>Node6</title>
<g id="a_Node000006"><a xlink:href="../../db/ddd/classfl_1_1_heap_vector.html#ae2d30cd7a627cd4c780e140eb2cabf0f" target="_top" xlink:title=" ">
<polygon fill="white" stroke="#666666" points="301.62,-252.75 194.12,-252.75 194.12,-232 301.62,-232 301.62,-252.75"/>
<text text-anchor="middle" x="247.88" y="-239.25" font-family="Helvetica,sans-Serif" font-size="10.00">fl::HeapVector::has</text>
</a>
</g>
</g>
<!-- Node4&#45;&gt;Node6 -->
<g id="edge5_Node000004_Node000006" class="edge">
<title>Node4&#45;&gt;Node6</title>
<g id="a_edge5_Node000004_Node000006"><a xlink:title=" ">
<path fill="none" stroke="#63b8ff" d="M361.99,-250.64C342.24,-249.2 320.77,-247.63 301.9,-246.25"/>
<polygon fill="#63b8ff" stroke="#63b8ff" points="361.64,-254.13 371.87,-251.36 362.15,-247.14 361.64,-254.13"/>
</a>
</g>
</g>
<!-- Node10 -->
<g id="Node000010" class="node">
<title>Node10</title>
<g id="a_Node000010"><a xlink:href="../../de/d10/classfl_1_1_rectangular_draw_buffer.html#a106bb52955940f3087ecf12131090458" target="_top" xlink:title=" ">
<polygon fill="white" stroke="#666666" points="318.5,-201.12 177.25,-201.12 177.25,-167.62 318.5,-167.62 318.5,-201.12"/>
<text text-anchor="start" x="185.25" y="-187.62" font-family="Helvetica,sans-Serif" font-size="10.00">fl::RectangularDrawBuffer</text>
<text text-anchor="middle" x="247.88" y="-174.88" font-family="Helvetica,sans-Serif" font-size="10.00">::getBlockInfo</text>
</a>
</g>
</g>
<!-- Node9&#45;&gt;Node10 -->
<g id="edge9_Node000009_Node000010" class="edge">
<title>Node9&#45;&gt;Node10</title>
<g id="a_edge9_Node000009_Node000010"><a xlink:title=" ">
<path fill="none" stroke="#63b8ff" d="M357.41,-152.65C341.03,-157.43 323.72,-162.49 307.85,-167.13"/>
<polygon fill="#63b8ff" stroke="#63b8ff" points="357.95,-156.14 366.56,-149.97 355.98,-149.42 357.95,-156.14"/>
</a>
</g>
</g>
<!-- Node12 -->
<g id="Node000012" class="node">
<title>Node12</title>
<g id="a_Node000012"><a xlink:href="../../de/d10/classfl_1_1_rectangular_draw_buffer.html#af7234cecb489eed372031d3b1dd2ed6a" target="_top" xlink:title=" ">
<polygon fill="white" stroke="#666666" points="318.5,-149.12 177.25,-149.12 177.25,-115.62 318.5,-115.62 318.5,-149.12"/>
<text text-anchor="start" x="185.25" y="-135.62" font-family="Helvetica,sans-Serif" font-size="10.00">fl::RectangularDrawBuffer</text>
<text text-anchor="middle" x="247.88" y="-122.88" font-family="Helvetica,sans-Serif" font-size="10.00">::getTotalBytes</text>
</a>
</g>
</g>
<!-- Node9&#45;&gt;Node12 -->
<g id="edge11_Node000009_Node000012" class="edge">
<title>Node9&#45;&gt;Node12</title>
<g id="a_edge11_Node000009_Node000012"><a xlink:title=" ">
<path fill="none" stroke="#63b8ff" d="M345.22,-132.38C336.41,-132.38 327.51,-132.38 318.86,-132.38"/>
<polygon fill="#63b8ff" stroke="#63b8ff" points="345.19,-135.88 355.19,-132.38 345.19,-128.88 345.19,-135.88"/>
</a>
</g>
</g>
<!-- Node10&#45;&gt;Node11 -->
<g id="edge10_Node000010_Node000011" class="edge">
<title>Node10&#45;&gt;Node11</title>
<g id="a_edge10_Node000010_Node000011"><a xlink:title=" ">
<path fill="none" stroke="#63b8ff" d="M174.67,-164.19C160.89,-160.33 146.59,-156.33 133.18,-152.59"/>
<polygon fill="#63b8ff" stroke="#63b8ff" points="173.55,-167.51 184.12,-166.83 175.44,-160.77 173.55,-167.51"/>
</a>
</g>
</g>
</g>
</svg>
