<?xml version="1.0" encoding="UTF-8" standalone="no"?>
<!DOCTYPE svg PUBLIC "-//W3C//DTD SVG 1.1//EN"
 "http://www.w3.org/Graphics/SVG/1.1/DTD/svg11.dtd">
<!-- Generated by graphviz version 12.2.1 (20241206.2353)
 -->
<!-- Title: fl::HeapVector::end Pages: 1 -->
<svg width="653pt" height="465pt"
 viewBox="0.00 0.00 653.25 464.75" xmlns="http://www.w3.org/2000/svg" xmlns:xlink="http://www.w3.org/1999/xlink">
<g id="graph0" class="graph" transform="scale(1 1) rotate(0) translate(4 460.75)">
<title>fl::HeapVector::end</title>
<!-- Node1 -->
<g id="Node000001" class="node">
<title>Node1</title>
<g id="a_Node000001"><a xlink:title=" ">
<polygon fill="#999999" stroke="#666666" points="645.25,-245.75 537,-245.75 537,-225 645.25,-225 645.25,-245.75"/>
<text text-anchor="middle" x="591.12" y="-232.25" font-family="Helvetica,sans-Serif" font-size="10.00">fl::HeapVector::end</text>
</a>
</g>
</g>
<!-- Node2 -->
<g id="Node000002" class="node">
<title>Node2</title>
<g id="a_Node000002"><a xlink:href="../../db/ddd/classfl_1_1_heap_vector.html#ae33a7e2f64524b3a0baf4f3217489809" target="_top" xlink:title=" ">
<polygon fill="white" stroke="#666666" points="501,-456.75 354.5,-456.75 354.5,-436 501,-436 501,-456.75"/>
<text text-anchor="middle" x="427.75" y="-443.25" font-family="Helvetica,sans-Serif" font-size="10.00">fl::HeapVector::HeapVector</text>
</a>
</g>
</g>
<!-- Node1&#45;&gt;Node2 -->
<g id="edge1_Node000001_Node000002" class="edge">
<title>Node1&#45;&gt;Node2</title>
<g id="a_edge1_Node000001_Node000002"><a xlink:title=" ">
<path fill="none" stroke="#63b8ff" d="M586.16,-257.15C577.78,-296.87 554.44,-381.17 501,-426.38 496.63,-430.07 491.62,-433.09 486.34,-435.55"/>
<polygon fill="#63b8ff" stroke="#63b8ff" points="589.58,-257.9 588.09,-247.41 582.72,-256.54 589.58,-257.9"/>
</a>
</g>
</g>
<!-- Node3 -->
<g id="Node000003" class="node">
<title>Node3</title>
<g id="a_Node000003"><a xlink:href="../../db/ddd/classfl_1_1_heap_vector.html#afa10dffb342cb026d6c378e0cab57d14" target="_top" xlink:title=" ">
<polygon fill="white" stroke="#666666" points="488.62,-417.75 366.88,-417.75 366.88,-397 488.62,-397 488.62,-417.75"/>
<text text-anchor="middle" x="427.75" y="-404.25" font-family="Helvetica,sans-Serif" font-size="10.00">fl::HeapVector::assign</text>
</a>
</g>
</g>
<!-- Node1&#45;&gt;Node3 -->
<g id="edge2_Node000001_Node000003" class="edge">
<title>Node1&#45;&gt;Node3</title>
<g id="a_edge2_Node000001_Node000003"><a xlink:title=" ">
<path fill="none" stroke="#63b8ff" d="M582.73,-256.89C570.62,-289 543.57,-349.32 501,-383.38 493.98,-388.99 485.59,-393.31 477.06,-396.64"/>
<polygon fill="#63b8ff" stroke="#63b8ff" points="586.02,-258.1 586.12,-247.51 579.43,-255.72 586.02,-258.1"/>
</a>
</g>
</g>
<!-- Node4 -->
<g id="Node000004" class="node">
<title>Node4</title>
<g id="a_Node000004"><a xlink:href="../../db/ddd/classfl_1_1_heap_vector.html#ace4cdd0396565da7276497ba04ed3927" target="_top" xlink:title=" ">
<polygon fill="white" stroke="#666666" points="306.5,-341.75 189.25,-341.75 189.25,-321 306.5,-321 306.5,-341.75"/>
<text text-anchor="middle" x="247.88" y="-328.25" font-family="Helvetica,sans-Serif" font-size="10.00">fl::HeapVector::erase</text>
</a>
</g>
</g>
<!-- Node1&#45;&gt;Node4 -->
<g id="edge3_Node000001_Node000004" class="edge">
<title>Node1&#45;&gt;Node4</title>
<g id="a_edge3_Node000001_Node000004"><a xlink:title=" ">
<path fill="none" stroke="#63b8ff" d="M581.12,-256.37C568.04,-283.86 540.89,-330.82 501,-350.38 426.7,-386.79 325.12,-359.28 276.72,-342.24"/>
<polygon fill="#63b8ff" stroke="#63b8ff" points="584.29,-257.85 585.24,-247.3 577.92,-254.96 584.29,-257.85"/>
</a>
</g>
</g>
<!-- Node5 -->
<g id="Node000005" class="node">
<title>Node5</title>
<g id="a_Node000005"><a xlink:href="../../db/ddd/classfl_1_1_heap_vector.html#a753c94e461f6bdf491df524b176c438d" target="_top" xlink:title=" ">
<polygon fill="white" stroke="#666666" points="486.38,-341.75 369.12,-341.75 369.12,-321 486.38,-321 486.38,-341.75"/>
<text text-anchor="middle" x="427.75" y="-328.25" font-family="Helvetica,sans-Serif" font-size="10.00">fl::HeapVector::erase</text>
</a>
</g>
</g>
<!-- Node1&#45;&gt;Node5 -->
<g id="edge4_Node000001_Node000005" class="edge">
<title>Node1&#45;&gt;Node5</title>
<g id="a_edge4_Node000001_Node000005"><a xlink:title=" ">
<path fill="none" stroke="#63b8ff" d="M572.72,-254.35C555.93,-271.58 528.99,-296.52 501,-311.38 494.1,-315.04 486.47,-318.08 478.82,-320.6"/>
<polygon fill="#63b8ff" stroke="#63b8ff" points="575.14,-256.89 579.49,-247.23 570.07,-252.07 575.14,-256.89"/>
</a>
</g>
</g>
<!-- Node6 -->
<g id="Node000006" class="node">
<title>Node6</title>
<g id="a_Node000006"><a xlink:href="../../db/ddd/classfl_1_1_heap_vector.html#abdae713c35ce24944743c0a54070edfe" target="_top" xlink:title=" ">
<polygon fill="white" stroke="#666666" points="481.88,-302.75 373.62,-302.75 373.62,-282 481.88,-282 481.88,-302.75"/>
<text text-anchor="middle" x="427.75" y="-289.25" font-family="Helvetica,sans-Serif" font-size="10.00">fl::HeapVector::find</text>
</a>
</g>
</g>
<!-- Node1&#45;&gt;Node6 -->
<g id="edge6_Node000001_Node000006" class="edge">
<title>Node1&#45;&gt;Node6</title>
<g id="a_edge6_Node000001_Node000006"><a xlink:title=" ">
<path fill="none" stroke="#63b8ff" d="M551.38,-250.05C535.77,-255.87 517.57,-262.56 501,-268.38 488.28,-272.84 474.23,-277.56 461.92,-281.62"/>
<polygon fill="#63b8ff" stroke="#63b8ff" points="552.16,-253.49 560.3,-246.7 549.71,-246.94 552.16,-253.49"/>
</a>
</g>
</g>
<!-- Node7 -->
<g id="Node000007" class="node">
<title>Node7</title>
<g id="a_Node000007"><a xlink:href="../../db/ddd/classfl_1_1_heap_vector.html#ae2d30cd7a627cd4c780e140eb2cabf0f" target="_top" xlink:title=" ">
<polygon fill="white" stroke="#666666" points="301.62,-283.75 194.12,-283.75 194.12,-263 301.62,-263 301.62,-283.75"/>
<text text-anchor="middle" x="247.88" y="-270.25" font-family="Helvetica,sans-Serif" font-size="10.00">fl::HeapVector::has</text>
</a>
</g>
</g>
<!-- Node1&#45;&gt;Node7 -->
<g id="edge15_Node000001_Node000007" class="edge">
<title>Node1&#45;&gt;Node7</title>
<g id="a_edge15_Node000001_Node000007"><a xlink:title=" ">
<path fill="none" stroke="#63b8ff" d="M525.53,-242.57C460.84,-249.77 362.45,-260.73 302.1,-267.45"/>
<polygon fill="#63b8ff" stroke="#63b8ff" points="525.75,-246.07 535.3,-241.48 524.97,-239.11 525.75,-246.07"/>
</a>
</g>
</g>
<!-- Node8 -->
<g id="Node000008" class="node">
<title>Node8</title>
<g id="a_Node000008"><a xlink:href="../../db/ddd/classfl_1_1_heap_vector.html#a1bd6740fe3d7fb5b8cb631cba105ed85" target="_top" xlink:title=" ">
<polygon fill="white" stroke="#666666" points="481.88,-226.75 373.62,-226.75 373.62,-206 481.88,-206 481.88,-226.75"/>
<text text-anchor="middle" x="427.75" y="-213.25" font-family="Helvetica,sans-Serif" font-size="10.00">fl::HeapVector::find</text>
</a>
</g>
</g>
<!-- Node1&#45;&gt;Node8 -->
<g id="edge9_Node000001_Node000008" class="edge">
<title>Node1&#45;&gt;Node8</title>
<g id="a_edge9_Node000001_Node000008"><a xlink:title=" ">
<path fill="none" stroke="#63b8ff" d="M525.52,-227.77C511.16,-226.08 496.11,-224.31 482.26,-222.67"/>
<polygon fill="#63b8ff" stroke="#63b8ff" points="524.99,-231.23 535.33,-228.92 525.81,-224.28 524.99,-231.23"/>
</a>
</g>
</g>
<!-- Node9 -->
<g id="Node000009" class="node">
<title>Node9</title>
<g id="a_Node000009"><a xlink:href="../../db/ddd/classfl_1_1_heap_vector.html#a859daf2d4968b7e8e448c7c47420dfa9" target="_top" xlink:title=" ">
<polygon fill="white" stroke="#666666" points="487.88,-187.75 367.62,-187.75 367.62,-167 487.88,-167 487.88,-187.75"/>
<text text-anchor="middle" x="427.75" y="-174.25" font-family="Helvetica,sans-Serif" font-size="10.00">fl::HeapVector::find_if</text>
</a>
</g>
</g>
<!-- Node1&#45;&gt;Node9 -->
<g id="edge10_Node000001_Node000009" class="edge">
<title>Node1&#45;&gt;Node9</title>
<g id="a_edge10_Node000001_Node000009"><a xlink:title=" ">
<path fill="none" stroke="#63b8ff" d="M556.74,-219.89C540.18,-212.53 519.75,-203.94 501,-197.38 491.54,-194.07 481.24,-190.94 471.45,-188.18"/>
<polygon fill="#63b8ff" stroke="#63b8ff" points="555.07,-222.98 565.62,-223.89 557.94,-216.59 555.07,-222.98"/>
</a>
</g>
</g>
<!-- Node10 -->
<g id="Node000010" class="node">
<title>Node10</title>
<g id="a_Node000010"><a xlink:href="../../de/d10/classfl_1_1_rectangular_draw_buffer.html#a87f728161573a58fb2bef6c684281bc8" target="_top" xlink:title=" ">
<polygon fill="white" stroke="#666666" points="498.38,-149.12 357.12,-149.12 357.12,-115.62 498.38,-115.62 498.38,-149.12"/>
<text text-anchor="start" x="365.12" y="-135.62" font-family="Helvetica,sans-Serif" font-size="10.00">fl::RectangularDrawBuffer</text>
<text text-anchor="middle" x="427.75" y="-122.88" font-family="Helvetica,sans-Serif" font-size="10.00">::getMaxBytesInStrip</text>
</a>
</g>
</g>
<!-- Node1&#45;&gt;Node10 -->
<g id="edge11_Node000001_Node000010" class="edge">
<title>Node1&#45;&gt;Node10</title>
<g id="a_edge11_Node000001_Node000010"><a xlink:title=" ">
<path fill="none" stroke="#63b8ff" d="M572.23,-216.34C555.26,-199.22 528.36,-174.37 501,-158.38 495.48,-155.15 489.48,-152.21 483.39,-149.58"/>
<polygon fill="#63b8ff" stroke="#63b8ff" points="569.61,-218.67 579.09,-223.41 574.64,-213.8 569.61,-218.67"/>
</a>
</g>
</g>
<!-- Node12 -->
<g id="Node000012" class="node">
<title>Node12</title>
<g id="a_Node000012"><a xlink:href="../../de/d10/classfl_1_1_rectangular_draw_buffer.html#a793464dde6e4e1a324ab46973615345c" target="_top" xlink:title=" ">
<polygon fill="white" stroke="#666666" points="141.25,-152.12 0,-152.12 0,-118.62 141.25,-118.62 141.25,-152.12"/>
<text text-anchor="start" x="8" y="-138.62" font-family="Helvetica,sans-Serif" font-size="10.00">fl::RectangularDrawBuffer</text>
<text text-anchor="middle" x="70.62" y="-125.88" font-family="Helvetica,sans-Serif" font-size="10.00">::onQueuingDone</text>
</a>
</g>
</g>
<!-- Node1&#45;&gt;Node12 -->
<g id="edge17_Node000001_Node000012" class="edge">
<title>Node1&#45;&gt;Node12</title>
<g id="a_edge17_Node000001_Node000012"><a xlink:title=" ">
<path fill="none" stroke="#63b8ff" d="M582.72,-214.08C570.85,-183.72 544.41,-129.15 501,-106.38 374.13,-39.82 196.42,-89.24 115.21,-118.24"/>
<polygon fill="#63b8ff" stroke="#63b8ff" points="579.39,-215.18 586.15,-223.34 585.95,-212.75 579.39,-215.18"/>
</a>
</g>
</g>
<!-- Node14 -->
<g id="Node000014" class="node">
<title>Node14</title>
<g id="a_Node000014"><a xlink:href="../../db/ddd/classfl_1_1_heap_vector.html#a4a2c31638b5aa6bc3dac996285547e06" target="_top" xlink:title=" ">
<polygon fill="white" stroke="#666666" points="486.75,-59.75 368.75,-59.75 368.75,-39 486.75,-39 486.75,-59.75"/>
<text text-anchor="middle" x="427.75" y="-46.25" font-family="Helvetica,sans-Serif" font-size="10.00">fl::HeapVector::insert</text>
</a>
</g>
</g>
<!-- Node1&#45;&gt;Node14 -->
<g id="edge16_Node000001_Node000014" class="edge">
<title>Node1&#45;&gt;Node14</title>
<g id="a_edge16_Node000001_Node000014"><a xlink:title=" ">
<path fill="none" stroke="#63b8ff" d="M583.92,-213.77C572.91,-179.18 546.68,-111.41 501,-73.38 494.3,-67.79 486.25,-63.49 477.99,-60.19"/>
<polygon fill="#63b8ff" stroke="#63b8ff" points="580.49,-214.52 586.75,-223.07 587.19,-212.48 580.49,-214.52"/>
</a>
</g>
</g>
<!-- Node15 -->
<g id="Node000015" class="node">
<title>Node15</title>
<g id="a_Node000015"><a xlink:href="../../db/ddd/classfl_1_1_heap_vector.html#a729f1c0fa07ccd04379a1c17fde5aee0" target="_top" xlink:title=" ">
<polygon fill="white" stroke="#666666" points="497.62,-20.75 357.88,-20.75 357.88,0 497.62,0 497.62,-20.75"/>
<text text-anchor="middle" x="427.75" y="-7.25" font-family="Helvetica,sans-Serif" font-size="10.00">fl::HeapVector::operator=</text>
</a>
</g>
</g>
<!-- Node1&#45;&gt;Node15 -->
<g id="edge18_Node000001_Node000015" class="edge">
<title>Node1&#45;&gt;Node15</title>
<g id="a_edge18_Node000001_Node000015"><a xlink:title=" ">
<path fill="none" stroke="#63b8ff" d="M586.91,-213.46C579.59,-171.5 557.67,-79.62 501,-30.38 496.78,-26.7 491.93,-23.7 486.8,-21.25"/>
<polygon fill="#63b8ff" stroke="#63b8ff" points="583.41,-213.75 588.47,-223.06 590.32,-212.63 583.41,-213.75"/>
</a>
</g>
</g>
<!-- Node5&#45;&gt;Node4 -->
<g id="edge5_Node000005_Node000004" class="edge">
<title>Node5&#45;&gt;Node4</title>
<g id="a_edge5_Node000005_Node000004"><a xlink:title=" ">
<path fill="none" stroke="#63b8ff" d="M357.6,-331.38C340.85,-331.38 323.12,-331.38 306.94,-331.38"/>
<polygon fill="#63b8ff" stroke="#63b8ff" points="357.49,-334.88 367.49,-331.38 357.49,-327.88 357.49,-334.88"/>
</a>
</g>
</g>
<!-- Node6&#45;&gt;Node4 -->
<g id="edge7_Node000006_Node000004" class="edge">
<title>Node6&#45;&gt;Node4</title>
<g id="a_edge7_Node000006_Node000004"><a xlink:title=" ">
<path fill="none" stroke="#63b8ff" d="M365.96,-305.7C343.96,-310.53 319.39,-315.91 298.47,-320.5"/>
<polygon fill="#63b8ff" stroke="#63b8ff" points="366.71,-309.12 375.72,-303.56 365.21,-302.29 366.71,-309.12"/>
</a>
</g>
</g>
<!-- Node6&#45;&gt;Node7 -->
<g id="edge8_Node000006_Node000007" class="edge">
<title>Node6&#45;&gt;Node7</title>
<g id="a_edge8_Node000006_Node000007"><a xlink:title=" ">
<path fill="none" stroke="#63b8ff" d="M361.99,-285.46C342.24,-283.35 320.77,-281.05 301.9,-279.04"/>
<polygon fill="#63b8ff" stroke="#63b8ff" points="361.56,-288.93 371.88,-286.51 362.3,-281.97 361.56,-288.93"/>
</a>
</g>
</g>
<!-- Node11 -->
<g id="Node000011" class="node">
<title>Node11</title>
<g id="a_Node000011"><a xlink:href="../../de/d10/classfl_1_1_rectangular_draw_buffer.html#a106bb52955940f3087ecf12131090458" target="_top" xlink:title=" ">
<polygon fill="white" stroke="#666666" points="318.5,-201.12 177.25,-201.12 177.25,-167.62 318.5,-167.62 318.5,-201.12"/>
<text text-anchor="start" x="185.25" y="-187.62" font-family="Helvetica,sans-Serif" font-size="10.00">fl::RectangularDrawBuffer</text>
<text text-anchor="middle" x="247.88" y="-174.88" font-family="Helvetica,sans-Serif" font-size="10.00">::getBlockInfo</text>
</a>
</g>
</g>
<!-- Node10&#45;&gt;Node11 -->
<g id="edge12_Node000010_Node000011" class="edge">
<title>Node10&#45;&gt;Node11</title>
<g id="a_edge12_Node000010_Node000011"><a xlink:title=" ">
<path fill="none" stroke="#63b8ff" d="M357.41,-152.65C341.03,-157.43 323.72,-162.49 307.85,-167.13"/>
<polygon fill="#63b8ff" stroke="#63b8ff" points="357.95,-156.14 366.56,-149.97 355.98,-149.42 357.95,-156.14"/>
</a>
</g>
</g>
<!-- Node13 -->
<g id="Node000013" class="node">
<title>Node13</title>
<g id="a_Node000013"><a xlink:href="../../de/d10/classfl_1_1_rectangular_draw_buffer.html#af7234cecb489eed372031d3b1dd2ed6a" target="_top" xlink:title=" ">
<polygon fill="white" stroke="#666666" points="318.5,-149.12 177.25,-149.12 177.25,-115.62 318.5,-115.62 318.5,-149.12"/>
<text text-anchor="start" x="185.25" y="-135.62" font-family="Helvetica,sans-Serif" font-size="10.00">fl::RectangularDrawBuffer</text>
<text text-anchor="middle" x="247.88" y="-122.88" font-family="Helvetica,sans-Serif" font-size="10.00">::getTotalBytes</text>
</a>
</g>
</g>
<!-- Node10&#45;&gt;Node13 -->
<g id="edge14_Node000010_Node000013" class="edge">
<title>Node10&#45;&gt;Node13</title>
<g id="a_edge14_Node000010_Node000013"><a xlink:title=" ">
<path fill="none" stroke="#63b8ff" d="M345.22,-132.38C336.41,-132.38 327.51,-132.38 318.86,-132.38"/>
<polygon fill="#63b8ff" stroke="#63b8ff" points="345.19,-135.88 355.19,-132.38 345.19,-128.88 345.19,-135.88"/>
</a>
</g>
</g>
<!-- Node11&#45;&gt;Node12 -->
<g id="edge13_Node000011_Node000012" class="edge">
<title>Node11&#45;&gt;Node12</title>
<g id="a_edge13_Node000011_Node000012"><a xlink:title=" ">
<path fill="none" stroke="#63b8ff" d="M174.67,-164.19C160.89,-160.33 146.59,-156.33 133.18,-152.59"/>
<polygon fill="#63b8ff" stroke="#63b8ff" points="173.55,-167.51 184.12,-166.83 175.44,-160.77 173.55,-167.51"/>
</a>
</g>
</g>
</g>
</svg>
