<?xml version="1.0" encoding="UTF-8" standalone="no"?>
<!DOCTYPE svg PUBLIC "-//W3C//DTD SVG 1.1//EN"
 "http://www.w3.org/Graphics/SVG/1.1/DTD/svg11.dtd">
<!-- Generated by graphviz version 12.2.1 (20241206.2353)
 -->
<!-- Title: fl::HeapVector::swap Pages: 1 -->
<svg width="619pt" height="132pt"
 viewBox="0.00 0.00 618.75 131.50" xmlns="http://www.w3.org/2000/svg" xmlns:xlink="http://www.w3.org/1999/xlink">
<g id="graph0" class="graph" transform="scale(1 1) rotate(0) translate(4 127.5)">
<title>fl::HeapVector::swap</title>
<!-- Node1 -->
<g id="Node000001" class="node">
<title>Node1</title>
<g id="a_Node000001"><a xlink:title=" ">
<polygon fill="#999999" stroke="#666666" points="610.75,-78.5 495,-78.5 495,-57.75 610.75,-57.75 610.75,-78.5"/>
<text text-anchor="middle" x="552.88" y="-65" font-family="Helvetica,sans-Serif" font-size="10.00">fl::HeapVector::swap</text>
</a>
</g>
</g>
<!-- Node2 -->
<g id="Node000002" class="node">
<title>Node2</title>
<g id="a_Node000002"><a xlink:href="../../db/ddd/classfl_1_1_heap_vector.html#a4a2c31638b5aa6bc3dac996285547e06" target="_top" xlink:title=" ">
<polygon fill="white" stroke="#666666" points="447.38,-123.5 329.38,-123.5 329.38,-102.75 447.38,-102.75 447.38,-123.5"/>
<text text-anchor="middle" x="388.38" y="-110" font-family="Helvetica,sans-Serif" font-size="10.00">fl::HeapVector::insert</text>
</a>
</g>
</g>
<!-- Node1&#45;&gt;Node2 -->
<g id="edge1_Node000001_Node000002" class="edge">
<title>Node1&#45;&gt;Node2</title>
<g id="a_edge1_Node000001_Node000002"><a xlink:title=" ">
<path fill="none" stroke="#63b8ff" d="M502.53,-82C488.47,-85.94 473.14,-90.22 459,-94.12 449.34,-96.8 438.92,-99.65 429.15,-102.32"/>
<polygon fill="#63b8ff" stroke="#63b8ff" points="503.34,-85.41 512.02,-79.34 501.45,-78.67 503.34,-85.41"/>
</a>
</g>
</g>
<!-- Node3 -->
<g id="Node000003" class="node">
<title>Node3</title>
<g id="a_Node000003"><a xlink:href="../../de/d10/classfl_1_1_rectangular_draw_buffer.html#a30615bbf72903e16ebc36fb5583ff29a" target="_top" xlink:title=" ">
<polygon fill="white" stroke="#666666" points="459,-84.88 317.75,-84.88 317.75,-51.38 459,-51.38 459,-84.88"/>
<text text-anchor="start" x="325.75" y="-71.38" font-family="Helvetica,sans-Serif" font-size="10.00">fl::RectangularDrawBuffer</text>
<text text-anchor="middle" x="388.38" y="-58.62" font-family="Helvetica,sans-Serif" font-size="10.00">::onQueuingStart</text>
</a>
</g>
</g>
<!-- Node1&#45;&gt;Node3 -->
<g id="edge2_Node000001_Node000003" class="edge">
<title>Node1&#45;&gt;Node3</title>
<g id="a_edge2_Node000001_Node000003"><a xlink:title=" ">
<path fill="none" stroke="#63b8ff" d="M483.15,-68.12C475.25,-68.12 467.18,-68.12 459.26,-68.12"/>
<polygon fill="#63b8ff" stroke="#63b8ff" points="483.07,-71.63 493.07,-68.13 483.07,-64.63 483.07,-71.63"/>
</a>
</g>
</g>
<!-- Node4 -->
<g id="Node000004" class="node">
<title>Node4</title>
<g id="a_Node000004"><a xlink:href="../../db/ddd/classfl_1_1_heap_vector.html#a9fae0dadbb1a36e82e295fb70175a63a" target="_top" xlink:title=" ">
<polygon fill="white" stroke="#666666" points="448.12,-33.5 328.62,-33.5 328.62,-12.75 448.12,-12.75 448.12,-33.5"/>
<text text-anchor="middle" x="388.38" y="-20" font-family="Helvetica,sans-Serif" font-size="10.00">fl::HeapVector::resize</text>
</a>
</g>
</g>
<!-- Node1&#45;&gt;Node4 -->
<g id="edge3_Node000001_Node000004" class="edge">
<title>Node1&#45;&gt;Node4</title>
<g id="a_edge3_Node000001_Node000004"><a xlink:title=" ">
<path fill="none" stroke="#63b8ff" d="M502.53,-54.25C488.47,-50.31 473.14,-46.03 459,-42.12 449.34,-39.45 438.92,-36.6 429.15,-33.93"/>
<polygon fill="#63b8ff" stroke="#63b8ff" points="501.45,-57.58 512.02,-56.91 503.34,-50.84 501.45,-57.58"/>
</a>
</g>
</g>
<!-- Node5 -->
<g id="Node000005" class="node">
<title>Node5</title>
<g id="a_Node000005"><a xlink:href="../../df/d5e/classanimartrix__detail_1_1_a_n_i_mart_r_i_x.html#a0d62bac68caa874275c95051d510631d" target="_top" xlink:title=" ">
<polygon fill="white" stroke="#666666" points="281.75,-46.25 142,-46.25 142,0 281.75,0 281.75,-46.25"/>
<text text-anchor="start" x="150" y="-32.75" font-family="Helvetica,sans-Serif" font-size="10.00">animartrix_detail::</text>
<text text-anchor="start" x="150" y="-20" font-family="Helvetica,sans-Serif" font-size="10.00">ANIMartRIX::render_polar</text>
<text text-anchor="middle" x="211.88" y="-7.25" font-family="Helvetica,sans-Serif" font-size="10.00">_lookup_table</text>
</a>
</g>
</g>
<!-- Node4&#45;&gt;Node5 -->
<g id="edge4_Node000004_Node000005" class="edge">
<title>Node4&#45;&gt;Node5</title>
<g id="a_edge4_Node000004_Node000005"><a xlink:title=" ">
<path fill="none" stroke="#63b8ff" d="M316.98,-23.12C305.49,-23.12 293.6,-23.12 282.14,-23.12"/>
<polygon fill="#63b8ff" stroke="#63b8ff" points="316.78,-26.63 326.78,-23.13 316.78,-19.63 316.78,-26.63"/>
</a>
</g>
</g>
<!-- Node6 -->
<g id="Node000006" class="node">
<title>Node6</title>
<g id="a_Node000006"><a xlink:href="../../df/d5e/classanimartrix__detail_1_1_a_n_i_mart_r_i_x.html#a4e1ee68d927c3a23c7c13b0d28758d7c" target="_top" xlink:title=" ">
<polygon fill="#fff0f0" stroke="red" points="106,-39.88 0,-39.88 0,-6.38 106,-6.38 106,-39.88"/>
<text text-anchor="start" x="8" y="-26.38" font-family="Helvetica,sans-Serif" font-size="10.00">animartrix_detail::</text>
<text text-anchor="middle" x="53" y="-13.62" font-family="Helvetica,sans-Serif" font-size="10.00">ANIMartRIX::init</text>
</a>
</g>
</g>
<!-- Node5&#45;&gt;Node6 -->
<g id="edge5_Node000005_Node000006" class="edge">
<title>Node5&#45;&gt;Node6</title>
<g id="a_edge5_Node000005_Node000006"><a xlink:title=" ">
<path fill="none" stroke="#63b8ff" d="M130.2,-23.12C122.12,-23.12 114.07,-23.12 106.4,-23.12"/>
<polygon fill="#63b8ff" stroke="#63b8ff" points="130.1,-26.63 140.1,-23.13 130.1,-19.63 130.1,-26.63"/>
</a>
</g>
</g>
</g>
</svg>
