<?xml version="1.0" encoding="UTF-8" standalone="no"?>
<!DOCTYPE svg PUBLIC "-//W3C//DTD SVG 1.1//EN"
 "http://www.w3.org/Graphics/SVG/1.1/DTD/svg11.dtd">
<!-- Generated by graphviz version 12.2.1 (20241206.2353)
 -->
<!-- Title: fl::HeapVector::size Pages: 1 -->
<svg width="515pt" height="300pt"
 viewBox="0.00 0.00 515.00 300.12" xmlns="http://www.w3.org/2000/svg" xmlns:xlink="http://www.w3.org/1999/xlink">
<g id="graph0" class="graph" transform="scale(1 1) rotate(0) translate(4 296.12)">
<title>fl::HeapVector::size</title>
<!-- Node1 -->
<g id="Node000001" class="node">
<title>Node1</title>
<g id="a_Node000001"><a xlink:title=" ">
<polygon fill="#999999" stroke="#666666" points="507,-150.12 397.25,-150.12 397.25,-129.38 507,-129.38 507,-150.12"/>
<text text-anchor="middle" x="452.12" y="-136.62" font-family="Helvetica,sans-Serif" font-size="10.00">fl::HeapVector::size</text>
</a>
</g>
</g>
<!-- Node2 -->
<g id="Node000002" class="node">
<title>Node2</title>
<g id="a_Node000002"><a xlink:href="../../db/ddd/classfl_1_1_heap_vector.html#a4f35c70f404b93a8047529078f9a13ff" target="_top" xlink:title=" ">
<polygon fill="white" stroke="#666666" points="351.12,-292.12 204.62,-292.12 204.62,-271.38 351.12,-271.38 351.12,-292.12"/>
<text text-anchor="middle" x="277.88" y="-278.62" font-family="Helvetica,sans-Serif" font-size="10.00">fl::HeapVector::HeapVector</text>
</a>
</g>
</g>
<!-- Node1&#45;&gt;Node2 -->
<g id="edge1_Node000001_Node000002" class="edge">
<title>Node1&#45;&gt;Node2</title>
<g id="a_edge1_Node000001_Node000002"><a xlink:title=" ">
<path fill="none" stroke="#63b8ff" d="M441.82,-160.46C428.22,-188.23 400.25,-237.02 361.25,-262.75 356.35,-265.98 350.97,-268.67 345.38,-270.9"/>
<polygon fill="#63b8ff" stroke="#63b8ff" points="444.86,-162.2 445.96,-151.66 438.53,-159.21 444.86,-162.2"/>
</a>
</g>
</g>
<!-- Node3 -->
<g id="Node000003" class="node">
<title>Node3</title>
<g id="a_Node000003"><a xlink:href="../../de/d10/classfl_1_1_rectangular_draw_buffer.html#a106bb52955940f3087ecf12131090458" target="_top" xlink:title=" ">
<polygon fill="white" stroke="#666666" points="348.5,-253.5 207.25,-253.5 207.25,-220 348.5,-220 348.5,-253.5"/>
<text text-anchor="start" x="215.25" y="-240" font-family="Helvetica,sans-Serif" font-size="10.00">fl::RectangularDrawBuffer</text>
<text text-anchor="middle" x="277.88" y="-227.25" font-family="Helvetica,sans-Serif" font-size="10.00">::getBlockInfo</text>
</a>
</g>
</g>
<!-- Node1&#45;&gt;Node3 -->
<g id="edge2_Node000001_Node000003" class="edge">
<title>Node1&#45;&gt;Node3</title>
<g id="a_edge2_Node000001_Node000003"><a xlink:title=" ">
<path fill="none" stroke="#63b8ff" d="M432.34,-157.98C415.08,-173.85 388.18,-196.48 361.25,-210.75 355.02,-214.05 348.3,-217.01 341.49,-219.65"/>
<polygon fill="#63b8ff" stroke="#63b8ff" points="434.43,-160.81 439.32,-151.41 429.64,-155.71 434.43,-160.81"/>
</a>
</g>
</g>
<!-- Node5 -->
<g id="Node000005" class="node">
<title>Node5</title>
<g id="a_Node000005"><a xlink:href="../../de/d10/classfl_1_1_rectangular_draw_buffer.html#af7234cecb489eed372031d3b1dd2ed6a" target="_top" xlink:title=" ">
<polygon fill="white" stroke="#666666" points="348.5,-201.5 207.25,-201.5 207.25,-168 348.5,-168 348.5,-201.5"/>
<text text-anchor="start" x="215.25" y="-188" font-family="Helvetica,sans-Serif" font-size="10.00">fl::RectangularDrawBuffer</text>
<text text-anchor="middle" x="277.88" y="-175.25" font-family="Helvetica,sans-Serif" font-size="10.00">::getTotalBytes</text>
</a>
</g>
</g>
<!-- Node1&#45;&gt;Node5 -->
<g id="edge4_Node000001_Node000005" class="edge">
<title>Node1&#45;&gt;Node5</title>
<g id="a_edge4_Node000001_Node000005"><a xlink:title=" ">
<path fill="none" stroke="#63b8ff" d="M398.97,-153.37C381.88,-157.84 362.65,-162.86 344.68,-167.56"/>
<polygon fill="#63b8ff" stroke="#63b8ff" points="399.61,-156.83 408.4,-150.91 397.84,-150.05 399.61,-156.83"/>
</a>
</g>
</g>
<!-- Node6 -->
<g id="Node000006" class="node">
<title>Node6</title>
<g id="a_Node000006"><a xlink:href="../../d8/d2c/_fire2023_8ino.html#a51736e5cacd97906844354b613c686f6" target="_top" xlink:title=" ">
<polygon fill="white" stroke="#666666" points="326.38,-150.12 229.38,-150.12 229.38,-129.38 326.38,-129.38 326.38,-150.12"/>
<text text-anchor="middle" x="277.88" y="-136.62" font-family="Helvetica,sans-Serif" font-size="10.00">makeScreenMap</text>
</a>
</g>
</g>
<!-- Node1&#45;&gt;Node6 -->
<g id="edge5_Node000001_Node000006" class="edge">
<title>Node1&#45;&gt;Node6</title>
<g id="a_edge5_Node000001_Node000006"><a xlink:title=" ">
<path fill="none" stroke="#63b8ff" d="M385.73,-139.75C366.07,-139.75 344.88,-139.75 326.59,-139.75"/>
<polygon fill="#63b8ff" stroke="#63b8ff" points="385.58,-143.25 395.58,-139.75 385.58,-136.25 385.58,-143.25"/>
</a>
</g>
</g>
<!-- Node8 -->
<g id="Node000008" class="node">
<title>Node8</title>
<g id="a_Node000008"><a xlink:href="../../db/ddd/classfl_1_1_heap_vector.html#a0eb15985bf4cd6512e1ac251bb0ecdf6" target="_top" xlink:title=" ">
<polygon fill="white" stroke="#666666" points="351.88,-111.12 203.88,-111.12 203.88,-90.38 351.88,-90.38 351.88,-111.12"/>
<text text-anchor="middle" x="277.88" y="-97.62" font-family="Helvetica,sans-Serif" font-size="10.00">fl::HeapVector::operator==</text>
</a>
</g>
</g>
<!-- Node1&#45;&gt;Node8 -->
<g id="edge7_Node000001_Node000008" class="edge">
<title>Node1&#45;&gt;Node8</title>
<g id="a_edge7_Node000001_Node000008"><a xlink:title=" ">
<path fill="none" stroke="#63b8ff" d="M391.97,-126.36C370.73,-121.55 347.07,-116.19 326.9,-111.62"/>
<polygon fill="#63b8ff" stroke="#63b8ff" points="391.14,-129.76 401.67,-128.55 392.69,-122.93 391.14,-129.76"/>
</a>
</g>
</g>
<!-- Node9 -->
<g id="Node000009" class="node">
<title>Node9</title>
<g id="a_Node000009"><a xlink:href="../../d4/df6/class_led_rope_t_c_l.html#a2c5c772faf24596d5be70d96581e7454" target="_top" xlink:title=" ">
<polygon fill="white" stroke="#666666" points="361.25,-72.12 194.5,-72.12 194.5,-51.38 361.25,-51.38 361.25,-72.12"/>
<text text-anchor="middle" x="277.88" y="-58.62" font-family="Helvetica,sans-Serif" font-size="10.00">LedRopeTCL::RawCommitDraw</text>
</a>
</g>
</g>
<!-- Node1&#45;&gt;Node9 -->
<g id="edge8_Node000001_Node000009" class="edge">
<title>Node1&#45;&gt;Node9</title>
<g id="a_edge8_Node000001_Node000009"><a xlink:title=" ">
<path fill="none" stroke="#63b8ff" d="M428.78,-122.29C411.29,-109.4 385.87,-92.32 361.25,-81.75 352.87,-78.15 343.71,-75.12 334.65,-72.6"/>
<polygon fill="#63b8ff" stroke="#63b8ff" points="426.33,-124.83 436.42,-128.05 430.54,-119.24 426.33,-124.83"/>
</a>
</g>
</g>
<!-- Node13 -->
<g id="Node000013" class="node">
<title>Node13</title>
<g id="a_Node000013"><a xlink:href="../../d4/df6/class_led_rope_t_c_l.html#a84123c2de8d329ed3d2e6314a08620e8" target="_top" xlink:title=" ">
<polygon fill="white" stroke="#666666" points="353.38,-33.12 202.38,-33.12 202.38,-12.38 353.38,-12.38 353.38,-33.12"/>
<text text-anchor="middle" x="277.88" y="-19.62" font-family="Helvetica,sans-Serif" font-size="10.00">LedRopeTCL::RawDrawPixel</text>
</a>
</g>
</g>
<!-- Node1&#45;&gt;Node13 -->
<g id="edge12_Node000001_Node000013" class="edge">
<title>Node1&#45;&gt;Node13</title>
<g id="a_edge12_Node000001_Node000013"><a xlink:title=" ">
<path fill="none" stroke="#63b8ff" d="M437.97,-119.61C422.36,-97.36 394.24,-62.11 361.25,-42.75 354.9,-39.02 347.9,-35.99 340.72,-33.52"/>
<polygon fill="#63b8ff" stroke="#63b8ff" points="435.05,-121.54 443.57,-127.84 440.84,-117.6 435.05,-121.54"/>
</a>
</g>
</g>
<!-- Node4 -->
<g id="Node000004" class="node">
<title>Node4</title>
<g id="a_Node000004"><a xlink:href="../../de/d10/classfl_1_1_rectangular_draw_buffer.html#a793464dde6e4e1a324ab46973615345c" target="_top" xlink:title=" ">
<polygon fill="white" stroke="#666666" points="149.88,-253.5 8.62,-253.5 8.62,-220 149.88,-220 149.88,-253.5"/>
<text text-anchor="start" x="16.62" y="-240" font-family="Helvetica,sans-Serif" font-size="10.00">fl::RectangularDrawBuffer</text>
<text text-anchor="middle" x="79.25" y="-227.25" font-family="Helvetica,sans-Serif" font-size="10.00">::onQueuingDone</text>
</a>
</g>
</g>
<!-- Node3&#45;&gt;Node4 -->
<g id="edge3_Node000003_Node000004" class="edge">
<title>Node3&#45;&gt;Node4</title>
<g id="a_edge3_Node000003_Node000004"><a xlink:title=" ">
<path fill="none" stroke="#63b8ff" d="M195.61,-236.75C180.54,-236.75 164.93,-236.75 150.23,-236.75"/>
<polygon fill="#63b8ff" stroke="#63b8ff" points="195.49,-240.25 205.49,-236.75 195.49,-233.25 195.49,-240.25"/>
</a>
</g>
</g>
<!-- Node7 -->
<g id="Node000007" class="node">
<title>Node7</title>
<g id="a_Node000007"><a xlink:href="../../d8/d2c/_fire2023_8ino.html#a4fc01d736fe50cf5b977f755b675f11d" target="_top" xlink:title=" ">
<polygon fill="white" stroke="#666666" points="100.75,-150.12 57.75,-150.12 57.75,-129.38 100.75,-129.38 100.75,-150.12"/>
<text text-anchor="middle" x="79.25" y="-136.62" font-family="Helvetica,sans-Serif" font-size="10.00">setup</text>
</a>
</g>
</g>
<!-- Node6&#45;&gt;Node7 -->
<g id="edge6_Node000006_Node000007" class="edge">
<title>Node6&#45;&gt;Node7</title>
<g id="a_edge6_Node000006_Node000007"><a xlink:title=" ">
<path fill="none" stroke="#63b8ff" d="M217.67,-139.75C178.24,-139.75 128.77,-139.75 101.23,-139.75"/>
<polygon fill="#63b8ff" stroke="#63b8ff" points="217.51,-143.25 227.51,-139.75 217.51,-136.25 217.51,-143.25"/>
</a>
</g>
</g>
<!-- Node10 -->
<g id="Node000010" class="node">
<title>Node10</title>
<g id="a_Node000010"><a xlink:href="../../d4/df6/class_led_rope_t_c_l.html#a842cac2350fad4c68d21d232f6a8a4c0" target="_top" xlink:title=" ">
<polygon fill="white" stroke="#666666" points="132.62,-111.12 25.88,-111.12 25.88,-90.38 132.62,-90.38 132.62,-111.12"/>
<text text-anchor="middle" x="79.25" y="-97.62" font-family="Helvetica,sans-Serif" font-size="10.00">LedRopeTCL::Draw</text>
</a>
</g>
</g>
<!-- Node9&#45;&gt;Node10 -->
<g id="edge9_Node000009_Node000010" class="edge">
<title>Node9&#45;&gt;Node10</title>
<g id="a_edge9_Node000009_Node000010"><a xlink:title=" ">
<path fill="none" stroke="#63b8ff" d="M211.07,-74.8C185.68,-79.84 157.03,-85.52 133.03,-90.28"/>
<polygon fill="#63b8ff" stroke="#63b8ff" points="211.49,-78.29 220.62,-72.91 210.13,-71.42 211.49,-78.29"/>
</a>
</g>
</g>
<!-- Node11 -->
<g id="Node000011" class="node">
<title>Node11</title>
<g id="a_Node000011"><a xlink:href="../../d4/df6/class_led_rope_t_c_l.html#af19abbbe43110da5fd09c169d9ab9307" target="_top" xlink:title=" ">
<polygon fill="white" stroke="#666666" points="149.88,-72.12 8.62,-72.12 8.62,-51.38 149.88,-51.38 149.88,-72.12"/>
<text text-anchor="middle" x="79.25" y="-58.62" font-family="Helvetica,sans-Serif" font-size="10.00">LedRopeTCL::DrawRepeat</text>
</a>
</g>
</g>
<!-- Node9&#45;&gt;Node11 -->
<g id="edge10_Node000009_Node000011" class="edge">
<title>Node9&#45;&gt;Node11</title>
<g id="a_edge10_Node000009_Node000011"><a xlink:title=" ">
<path fill="none" stroke="#63b8ff" d="M182.7,-61.75C171.76,-61.75 160.75,-61.75 150.22,-61.75"/>
<polygon fill="#63b8ff" stroke="#63b8ff" points="182.54,-65.25 192.54,-61.75 182.54,-58.25 182.54,-65.25"/>
</a>
</g>
</g>
<!-- Node12 -->
<g id="Node000012" class="node">
<title>Node12</title>
<g id="a_Node000012"><a xlink:href="../../d4/df6/class_led_rope_t_c_l.html#a90f6e3d74b585d37be799107d77421c8" target="_top" xlink:title=" ">
<polygon fill="white" stroke="#666666" points="158.5,-33.5 0,-33.5 0,0 158.5,0 158.5,-33.5"/>
<text text-anchor="start" x="8" y="-20" font-family="Helvetica,sans-Serif" font-size="10.00">LedRopeTCL::DrawSequential</text>
<text text-anchor="middle" x="79.25" y="-7.25" font-family="Helvetica,sans-Serif" font-size="10.00">Repeat</text>
</a>
</g>
</g>
<!-- Node9&#45;&gt;Node12 -->
<g id="edge11_Node000009_Node000012" class="edge">
<title>Node9&#45;&gt;Node12</title>
<g id="a_edge11_Node000009_Node000012"><a xlink:title=" ">
<path fill="none" stroke="#63b8ff" d="M218.73,-48.44C198.87,-43.9 176.37,-38.75 155.37,-33.94"/>
<polygon fill="#63b8ff" stroke="#63b8ff" points="217.77,-51.81 228.3,-50.63 219.34,-44.99 217.77,-51.81"/>
</a>
</g>
</g>
</g>
</svg>
