<?xml version="1.0" encoding="UTF-8" standalone="no"?>
<!DOCTYPE svg PUBLIC "-//W3C//DTD SVG 1.1//EN"
 "http://www.w3.org/Graphics/SVG/1.1/DTD/svg11.dtd">
<!-- Generated by graphviz version 12.2.1 (20241206.2353)
 -->
<!-- Title: fl::HeapVector::reserve Pages: 1 -->
<svg width="312pt" height="68pt"
 viewBox="0.00 0.00 311.50 67.75" xmlns="http://www.w3.org/2000/svg" xmlns:xlink="http://www.w3.org/1999/xlink">
<g id="graph0" class="graph" transform="scale(1 1) rotate(0) translate(4 63.75)">
<title>fl::HeapVector::reserve</title>
<!-- Node1 -->
<g id="Node000001" class="node">
<title>Node1</title>
<g id="a_Node000001"><a xlink:title=" ">
<polygon fill="#999999" stroke="#666666" points="303.5,-39.75 176.5,-39.75 176.5,-19 303.5,-19 303.5,-39.75"/>
<text text-anchor="middle" x="240" y="-26.25" font-family="Helvetica,sans-Serif" font-size="10.00">fl::HeapVector::reserve</text>
</a>
</g>
</g>
<!-- Node2 -->
<g id="Node000002" class="node">
<title>Node2</title>
<g id="a_Node000002"><a xlink:href="../../d4/df6/class_led_rope_t_c_l.html#ab76964e71543dce5de4bc0875ab01340" target="_top" xlink:title=" ">
<polygon fill="white" stroke="#666666" points="140.5,-59.75 0,-59.75 0,-39 140.5,-39 140.5,-59.75"/>
<text text-anchor="middle" x="70.25" y="-46.25" font-family="Helvetica,sans-Serif" font-size="10.00">LedRopeTCL::LedRopeTCL</text>
</a>
</g>
</g>
<!-- Node1&#45;&gt;Node2 -->
<g id="edge1_Node000001_Node000002" class="edge">
<title>Node1&#45;&gt;Node2</title>
<g id="a_edge1_Node000001_Node000002"><a xlink:title=" ">
<path fill="none" stroke="#63b8ff" d="M164.84,-38.22C156.82,-39.17 148.69,-40.14 140.73,-41.09"/>
<polygon fill="#63b8ff" stroke="#63b8ff" points="165.04,-41.72 174.56,-37.06 164.21,-34.77 165.04,-41.72"/>
</a>
</g>
</g>
<!-- Node3 -->
<g id="Node000003" class="node">
<title>Node3</title>
<g id="a_Node000003"><a xlink:href="../../db/ddd/classfl_1_1_heap_vector.html#afa10dffb342cb026d6c378e0cab57d14" target="_top" xlink:title=" ">
<polygon fill="white" stroke="#666666" points="131.12,-20.75 9.38,-20.75 9.38,0 131.12,0 131.12,-20.75"/>
<text text-anchor="middle" x="70.25" y="-7.25" font-family="Helvetica,sans-Serif" font-size="10.00">fl::HeapVector::assign</text>
</a>
</g>
</g>
<!-- Node1&#45;&gt;Node3 -->
<g id="edge2_Node000001_Node000003" class="edge">
<title>Node1&#45;&gt;Node3</title>
<g id="a_edge2_Node000001_Node000003"><a xlink:title=" ">
<path fill="none" stroke="#63b8ff" d="M164.62,-20.95C153.54,-19.7 142.23,-18.41 131.49,-17.2"/>
<polygon fill="#63b8ff" stroke="#63b8ff" points="164.22,-24.43 174.55,-22.08 165.01,-17.47 164.22,-24.43"/>
</a>
</g>
</g>
</g>
</svg>
