<?xml version="1.0" encoding="UTF-8" standalone="no"?>
<!DOCTYPE svg PUBLIC "-//W3C//DTD SVG 1.1//EN"
 "http://www.w3.org/Graphics/SVG/1.1/DTD/svg11.dtd">
<!-- Generated by graphviz version 12.2.1 (20241206.2353)
 -->
<!-- Title: fl::HeapVector::erase Pages: 1 -->
<svg width="436pt" height="146pt"
 viewBox="0.00 0.00 436.25 145.75" xmlns="http://www.w3.org/2000/svg" xmlns:xlink="http://www.w3.org/1999/xlink">
<g id="graph0" class="graph" transform="scale(1 1) rotate(0) translate(4 141.75)">
<title>fl::HeapVector::erase</title>
<!-- Node1 -->
<g id="Node000001" class="node">
<title>Node1</title>
<g id="a_Node000001"><a xlink:title=" ">
<polygon fill="#999999" stroke="#666666" points="117.25,-59.75 0,-59.75 0,-39 117.25,-39 117.25,-59.75"/>
<text text-anchor="middle" x="58.62" y="-46.25" font-family="Helvetica,sans-Serif" font-size="10.00">fl::HeapVector::erase</text>
</a>
</g>
</g>
<!-- Node2 -->
<g id="Node000002" class="node">
<title>Node2</title>
<g id="a_Node000002"><a xlink:href="../../db/ddd/classfl_1_1_heap_vector.html#a85dba959a3cb0e1c8a5584b9b957443e" target="_top" xlink:title=" ">
<polygon fill="white" stroke="#666666" points="421.5,-59.75 313.25,-59.75 313.25,-39 421.5,-39 421.5,-59.75"/>
<text text-anchor="middle" x="367.38" y="-46.25" font-family="Helvetica,sans-Serif" font-size="10.00">fl::HeapVector::end</text>
</a>
</g>
</g>
<!-- Node1&#45;&gt;Node2 -->
<g id="edge1_Node000001_Node000002" class="edge">
<title>Node1&#45;&gt;Node2</title>
<g id="a_edge1_Node000001_Node000002"><a xlink:title=" ">
<path fill="none" stroke="#63b8ff" d="M117.68,-49.38C170.14,-49.38 247.25,-49.38 301.67,-49.38"/>
<polygon fill="#63b8ff" stroke="#63b8ff" points="301.4,-52.88 311.4,-49.38 301.4,-45.88 301.4,-52.88"/>
</a>
</g>
</g>
<!-- Node3 -->
<g id="Node000003" class="node">
<title>Node3</title>
<g id="a_Node000003"><a xlink:href="../../db/ddd/classfl_1_1_heap_vector.html#a753c94e461f6bdf491df524b176c438d" target="_top" xlink:title=" ">
<polygon fill="white" stroke="#666666" points="270.5,-97.75 153.25,-97.75 153.25,-77 270.5,-77 270.5,-97.75"/>
<text text-anchor="middle" x="211.88" y="-84.25" font-family="Helvetica,sans-Serif" font-size="10.00">fl::HeapVector::erase</text>
</a>
</g>
</g>
<!-- Node1&#45;&gt;Node3 -->
<g id="edge2_Node000001_Node000003" class="edge">
<title>Node1&#45;&gt;Node3</title>
<g id="a_edge2_Node000001_Node000003"><a xlink:title=" ">
<path fill="none" stroke="#63b8ff" d="M102.56,-60.16C119.41,-64.39 138.93,-69.3 156.72,-73.77"/>
<polygon fill="#63b8ff" stroke="#63b8ff" points="155.81,-77.15 166.36,-76.19 157.52,-70.36 155.81,-77.15"/>
</a>
</g>
</g>
<!-- Node6 -->
<g id="Node000006" class="node">
<title>Node6</title>
<g id="a_Node000006"><a xlink:href="../../db/ddd/classfl_1_1_heap_vector.html#abdae713c35ce24944743c0a54070edfe" target="_top" xlink:title=" ">
<polygon fill="white" stroke="#666666" points="266,-21.75 157.75,-21.75 157.75,-1 266,-1 266,-21.75"/>
<text text-anchor="middle" x="211.88" y="-8.25" font-family="Helvetica,sans-Serif" font-size="10.00">fl::HeapVector::find</text>
</a>
</g>
</g>
<!-- Node1&#45;&gt;Node6 -->
<g id="edge6_Node000001_Node000006" class="edge">
<title>Node1&#45;&gt;Node6</title>
<g id="a_edge6_Node000001_Node000006"><a xlink:title=" ">
<path fill="none" stroke="#63b8ff" d="M102.56,-38.59C119.41,-34.36 138.93,-29.45 156.72,-24.98"/>
<polygon fill="#63b8ff" stroke="#63b8ff" points="157.52,-28.39 166.36,-22.56 155.81,-21.6 157.52,-28.39"/>
</a>
</g>
</g>
<!-- Node3&#45;&gt;Node2 -->
<g id="edge5_Node000003_Node000002" class="edge">
<title>Node3&#45;&gt;Node2</title>
<g id="a_edge5_Node000003_Node000002"><a xlink:title=" ">
<path fill="none" stroke="#63b8ff" d="M256.45,-76.59C273.63,-72.34 293.55,-67.4 311.68,-62.92"/>
<polygon fill="#63b8ff" stroke="#63b8ff" points="312.35,-66.35 321.22,-60.55 310.67,-59.56 312.35,-66.35"/>
</a>
</g>
</g>
<!-- Node4 -->
<g id="Node000004" class="node">
<title>Node4</title>
<g id="a_Node000004"><a xlink:href="../../db/ddd/classfl_1_1_heap_vector.html#a9becf17650956f9b1674e61cb93594e2" target="_top" xlink:title=" ">
<polygon fill="white" stroke="#666666" points="424.12,-98.75 310.62,-98.75 310.62,-78 424.12,-78 424.12,-98.75"/>
<text text-anchor="middle" x="367.38" y="-85.25" font-family="Helvetica,sans-Serif" font-size="10.00">fl::HeapVector::back</text>
</a>
</g>
</g>
<!-- Node3&#45;&gt;Node4 -->
<g id="edge3_Node000003_Node000004" class="edge">
<title>Node3&#45;&gt;Node4</title>
<g id="a_edge3_Node000003_Node000004"><a xlink:title=" ">
<path fill="none" stroke="#63b8ff" d="M270.91,-87.75C280.08,-87.81 289.64,-87.88 299,-87.94"/>
<polygon fill="#63b8ff" stroke="#63b8ff" points="298.76,-91.43 308.78,-88 298.8,-84.43 298.76,-91.43"/>
</a>
</g>
</g>
<!-- Node5 -->
<g id="Node000005" class="node">
<title>Node5</title>
<g id="a_Node000005"><a xlink:href="../../db/ddd/classfl_1_1_heap_vector.html#a7436d55ff7e3073826ca690ee6e7f758" target="_top" xlink:title=" ">
<polygon fill="white" stroke="#666666" points="428.25,-137.75 306.5,-137.75 306.5,-117 428.25,-117 428.25,-137.75"/>
<text text-anchor="middle" x="367.38" y="-124.25" font-family="Helvetica,sans-Serif" font-size="10.00">fl::HeapVector::empty</text>
</a>
</g>
</g>
<!-- Node3&#45;&gt;Node5 -->
<g id="edge4_Node000003_Node000005" class="edge">
<title>Node3&#45;&gt;Node5</title>
<g id="a_edge4_Node000003_Node000005"><a xlink:title=" ">
<path fill="none" stroke="#63b8ff" d="M254.41,-98.2C272.67,-102.96 294.33,-108.6 313.7,-113.65"/>
<polygon fill="#63b8ff" stroke="#63b8ff" points="312.78,-117.03 323.34,-116.16 314.54,-110.25 312.78,-117.03"/>
</a>
</g>
</g>
<!-- Node6&#45;&gt;Node2 -->
<g id="edge8_Node000006_Node000002" class="edge">
<title>Node6&#45;&gt;Node2</title>
<g id="a_edge8_Node000006_Node000002"><a xlink:title=" ">
<path fill="none" stroke="#63b8ff" d="M256.45,-22.16C273.63,-26.41 293.55,-31.35 311.68,-35.83"/>
<polygon fill="#63b8ff" stroke="#63b8ff" points="310.67,-39.19 321.22,-38.2 312.35,-32.4 310.67,-39.19"/>
</a>
</g>
</g>
<!-- Node7 -->
<g id="Node000007" class="node">
<title>Node7</title>
<g id="a_Node000007"><a xlink:href="../../db/ddd/classfl_1_1_heap_vector.html#aa52c25ba94c35ea3f05df279ee5a225b" target="_top" xlink:title=" ">
<polygon fill="white" stroke="#666666" points="426,-20.75 308.75,-20.75 308.75,0 426,0 426,-20.75"/>
<text text-anchor="middle" x="367.38" y="-7.25" font-family="Helvetica,sans-Serif" font-size="10.00">fl::HeapVector::begin</text>
</a>
</g>
</g>
<!-- Node6&#45;&gt;Node7 -->
<g id="edge7_Node000006_Node000007" class="edge">
<title>Node6&#45;&gt;Node7</title>
<g id="a_edge7_Node000006_Node000007"><a xlink:title=" ">
<path fill="none" stroke="#63b8ff" d="M266.13,-11.03C276.18,-10.96 286.82,-10.89 297.27,-10.83"/>
<polygon fill="#63b8ff" stroke="#63b8ff" points="297.01,-14.33 306.99,-10.76 296.96,-7.33 297.01,-14.33"/>
</a>
</g>
</g>
</g>
</svg>
