<?xml version="1.0" encoding="UTF-8" standalone="no"?>
<!DOCTYPE svg PUBLIC "-//W3C//DTD SVG 1.1//EN"
 "http://www.w3.org/Graphics/SVG/1.1/DTD/svg11.dtd">
<!-- Generated by graphviz version 12.2.1 (20241206.2353)
 -->
<!-- Title: fl::XYMap::getTotal Pages: 1 -->
<svg width="740pt" height="221pt"
 viewBox="0.00 0.00 739.75 220.52" xmlns="http://www.w3.org/2000/svg" xmlns:xlink="http://www.w3.org/1999/xlink">
<g id="graph0" class="graph" transform="scale(1 1) rotate(0) translate(4 216.52)">
<title>fl::XYMap::getTotal</title>
<!-- Node1 -->
<g id="Node000001" class="node">
<title>Node1</title>
<g id="a_Node000001"><a xlink:title=" ">
<polygon fill="#999999" stroke="#666666" points="731.75,-103.52 625,-103.52 625,-82.77 731.75,-82.77 731.75,-103.52"/>
<text text-anchor="middle" x="678.38" y="-90.02" font-family="Helvetica,sans-Serif" font-size="10.00">fl::XYMap::getTotal</text>
</a>
</g>
</g>
<!-- Node2 -->
<g id="Node000002" class="node">
<title>Node2</title>
<g id="a_Node000002"><a xlink:href="../../d4/d36/namespacefl.html#aed039daa2110de9add4bdbeea4052a57" target="_top" xlink:title="Performs bilinear interpolation for upscaling an image.">
<polygon fill="white" stroke="#666666" points="586.75,-122.52 443.25,-122.52 443.25,-101.77 586.75,-101.77 586.75,-122.52"/>
<text text-anchor="middle" x="515" y="-109.02" font-family="Helvetica,sans-Serif" font-size="10.00">fl::bilinearExpandArbitrary</text>
</a>
</g>
</g>
<!-- Node1&#45;&gt;Node2 -->
<g id="edge1_Node000001_Node000002" class="edge">
<title>Node1&#45;&gt;Node2</title>
<g id="a_edge1_Node000001_Node000002"><a xlink:title=" ">
<path fill="none" stroke="#63b8ff" d="M613.39,-100.67C604.77,-101.69 595.88,-102.74 587.14,-103.76"/>
<polygon fill="#63b8ff" stroke="#63b8ff" points="613.51,-104.18 623.03,-99.54 612.69,-97.23 613.51,-104.18"/>
</a>
</g>
</g>
<!-- Node6 -->
<g id="Node000006" class="node">
<title>Node6</title>
<g id="a_Node000006"><a xlink:href="../../d4/d36/namespacefl.html#a84927e48d917eda970db11d57b692d7a" target="_top" xlink:title=" ">
<polygon fill="white" stroke="#666666" points="586.75,-173.89 443.25,-173.89 443.25,-140.39 586.75,-140.39 586.75,-173.89"/>
<text text-anchor="start" x="451.25" y="-160.39" font-family="Helvetica,sans-Serif" font-size="10.00">fl::bilinearExpandArbitrary</text>
<text text-anchor="middle" x="515" y="-147.64" font-family="Helvetica,sans-Serif" font-size="10.00">Float</text>
</a>
</g>
</g>
<!-- Node1&#45;&gt;Node6 -->
<g id="edge6_Node000001_Node000006" class="edge">
<title>Node1&#45;&gt;Node6</title>
<g id="a_edge6_Node000001_Node000006"><a xlink:title=" ">
<path fill="none" stroke="#63b8ff" d="M643.38,-108.36C627.03,-115.52 607.11,-124.03 589,-131.14 581.49,-134.09 573.48,-137.09 565.64,-139.94"/>
<polygon fill="#63b8ff" stroke="#63b8ff" points="644.42,-111.73 652.16,-104.49 641.59,-105.32 644.42,-111.73"/>
</a>
</g>
</g>
<!-- Node7 -->
<g id="Node000007" class="node">
<title>Node7</title>
<g id="a_Node000007"><a xlink:href="../../d4/d36/namespacefl.html#aa1458a6ef9b83a5c2550d8c3a87bc973" target="_top" xlink:title=" ">
<polygon fill="white" stroke="#666666" points="405,-84.52 279.5,-84.52 279.5,-63.77 405,-63.77 405,-84.52"/>
<text text-anchor="middle" x="342.25" y="-71.02" font-family="Helvetica,sans-Serif" font-size="10.00">fl::bilinearExpandFloat</text>
</a>
</g>
</g>
<!-- Node1&#45;&gt;Node7 -->
<g id="edge7_Node000001_Node000007" class="edge">
<title>Node1&#45;&gt;Node7</title>
<g id="a_edge7_Node000001_Node000007"><a xlink:title=" ">
<path fill="none" stroke="#63b8ff" d="M613.61,-89.51C553.76,-86.11 464.8,-81.05 405.46,-77.68"/>
<polygon fill="#63b8ff" stroke="#63b8ff" points="613.11,-92.99 623.29,-90.07 613.5,-86 613.11,-92.99"/>
</a>
</g>
</g>
<!-- Node8 -->
<g id="Node000008" class="node">
<title>Node8</title>
<g id="a_Node000008"><a xlink:href="../../d4/d36/namespacefl.html#af0b8ea13c33c033aa6bf8ede489a5c2a" target="_top" xlink:title="Performs bilinear interpolation for upscaling an image.">
<polygon fill="white" stroke="#666666" points="589,-212.52 441,-212.52 441,-191.77 589,-191.77 589,-212.52"/>
<text text-anchor="middle" x="515" y="-199.02" font-family="Helvetica,sans-Serif" font-size="10.00">fl::bilinearExpandPowerOf2</text>
</a>
</g>
</g>
<!-- Node1&#45;&gt;Node8 -->
<g id="edge9_Node000001_Node000008" class="edge">
<title>Node1&#45;&gt;Node8</title>
<g id="a_edge9_Node000001_Node000008"><a xlink:title=" ">
<path fill="none" stroke="#63b8ff" d="M663.17,-112.96C647.37,-133.56 619.95,-165.23 589,-183.14 583.45,-186.35 577.34,-189.03 571.11,-191.27"/>
<polygon fill="#63b8ff" stroke="#63b8ff" points="665.89,-115.17 669.06,-105.06 660.28,-110.99 665.89,-115.17"/>
</a>
</g>
</g>
<!-- Node9 -->
<g id="Node000009" class="node">
<title>Node9</title>
<g id="a_Node000009"><a xlink:href="../../d0/d3e/classfl_1_1_red_square.html#a7efbd2810b3ebb2d6d30b70fa3840ca5" target="_top" xlink:title=" ">
<polygon fill="white" stroke="#666666" points="570.25,-46.52 459.75,-46.52 459.75,-25.77 570.25,-25.77 570.25,-46.52"/>
<text text-anchor="middle" x="515" y="-33.02" font-family="Helvetica,sans-Serif" font-size="10.00">fl::RedSquare::draw</text>
</a>
</g>
</g>
<!-- Node1&#45;&gt;Node9 -->
<g id="edge12_Node000001_Node000009" class="edge">
<title>Node1&#45;&gt;Node9</title>
<g id="a_edge12_Node000001_Node000009"><a xlink:title=" ">
<path fill="none" stroke="#63b8ff" d="M638.52,-78.25C623.15,-72.46 605.29,-65.86 589,-60.14 576.29,-55.68 562.24,-51 549.89,-46.97"/>
<polygon fill="#63b8ff" stroke="#63b8ff" points="637.21,-81.5 647.81,-81.77 639.69,-74.95 637.21,-81.5"/>
</a>
</g>
</g>
<!-- Node10 -->
<g id="Node000010" class="node">
<title>Node10</title>
<g id="a_Node000010"><a xlink:href="../../d5/d79/classfl_1_1_scale_up.html#af8b7a08f8ad3dc7de23f3f4108ce2d5d" target="_top" xlink:title=" ">
<polygon fill="white" stroke="#666666" points="403.12,-27.52 281.38,-27.52 281.38,-6.77 403.12,-6.77 403.12,-27.52"/>
<text text-anchor="middle" x="342.25" y="-14.02" font-family="Helvetica,sans-Serif" font-size="10.00">fl::ScaleUp::noExpand</text>
</a>
</g>
</g>
<!-- Node1&#45;&gt;Node10 -->
<g id="edge13_Node000001_Node000010" class="edge">
<title>Node1&#45;&gt;Node10</title>
<g id="a_edge13_Node000001_Node000010"><a xlink:title=" ">
<path fill="none" stroke="#63b8ff" d="M661.99,-73.58C646.03,-55.02 619.21,-28.35 589,-17.14 527.2,5.78 450.48,1.03 399.36,-6.33"/>
<polygon fill="#63b8ff" stroke="#63b8ff" points="659.27,-75.78 668.34,-81.25 664.67,-71.32 659.27,-75.78"/>
</a>
</g>
</g>
<!-- Node3 -->
<g id="Node000003" class="node">
<title>Node3</title>
<g id="a_Node000003"><a xlink:href="../../d4/d36/namespacefl.html#a521b1a75c2204adfdd48e82bec341de6" target="_top" xlink:title=" ">
<polygon fill="white" stroke="#666666" points="392.62,-160.52 291.88,-160.52 291.88,-139.77 392.62,-139.77 392.62,-160.52"/>
<text text-anchor="middle" x="342.25" y="-147.02" font-family="Helvetica,sans-Serif" font-size="10.00">fl::bilinearExpand</text>
</a>
</g>
</g>
<!-- Node2&#45;&gt;Node3 -->
<g id="edge2_Node000002_Node000003" class="edge">
<title>Node2&#45;&gt;Node3</title>
<g id="a_edge2_Node000002_Node000003"><a xlink:title=" ">
<path fill="none" stroke="#63b8ff" d="M454.42,-125.4C433.96,-129.95 411.32,-134.99 391.84,-139.33"/>
<polygon fill="#63b8ff" stroke="#63b8ff" points="455.05,-128.85 464.05,-123.26 453.53,-122.01 455.05,-128.85"/>
</a>
</g>
</g>
<!-- Node4 -->
<g id="Node000004" class="node">
<title>Node4</title>
<g id="a_Node000004"><a xlink:href="../../d5/d79/classfl_1_1_scale_up.html#a04b53ac5f5bbe9d2477fc08e8ab77066" target="_top" xlink:title=" ">
<polygon fill="white" stroke="#666666" points="243.5,-122.52 133.75,-122.52 133.75,-101.77 243.5,-101.77 243.5,-122.52"/>
<text text-anchor="middle" x="188.62" y="-109.02" font-family="Helvetica,sans-Serif" font-size="10.00">fl::ScaleUp::expand</text>
</a>
</g>
</g>
<!-- Node2&#45;&gt;Node4 -->
<g id="edge5_Node000002_Node000004" class="edge">
<title>Node2&#45;&gt;Node4</title>
<g id="a_edge5_Node000002_Node000004"><a xlink:title=" ">
<path fill="none" stroke="#63b8ff" d="M431.67,-112.14C372.73,-112.14 295.06,-112.14 243.79,-112.14"/>
<polygon fill="#63b8ff" stroke="#63b8ff" points="431.3,-115.64 441.3,-112.14 431.3,-108.64 431.3,-115.64"/>
</a>
</g>
</g>
<!-- Node3&#45;&gt;Node4 -->
<g id="edge3_Node000003_Node000004" class="edge">
<title>Node3&#45;&gt;Node4</title>
<g id="a_edge3_Node000003_Node000004"><a xlink:title=" ">
<path fill="none" stroke="#63b8ff" d="M287.08,-136.56C269.25,-132.1 249.67,-127.19 232.78,-122.96"/>
<polygon fill="#63b8ff" stroke="#63b8ff" points="286.19,-139.95 296.74,-138.99 287.89,-133.16 286.19,-139.95"/>
</a>
</g>
</g>
<!-- Node5 -->
<g id="Node000005" class="node">
<title>Node5</title>
<g id="a_Node000005"><a xlink:href="../../d5/d79/classfl_1_1_scale_up.html#a4a667682b8d113e18d4c9c95bda93262" target="_top" xlink:title=" ">
<polygon fill="white" stroke="#666666" points="97.75,-84.52 0,-84.52 0,-63.77 97.75,-63.77 97.75,-84.52"/>
<text text-anchor="middle" x="48.88" y="-71.02" font-family="Helvetica,sans-Serif" font-size="10.00">fl::ScaleUp::draw</text>
</a>
</g>
</g>
<!-- Node4&#45;&gt;Node5 -->
<g id="edge4_Node000004_Node000005" class="edge">
<title>Node4&#45;&gt;Node5</title>
<g id="a_edge4_Node000004_Node000005"><a xlink:title=" ">
<path fill="none" stroke="#63b8ff" d="M137.72,-98.37C121.71,-93.96 104.21,-89.13 89.08,-84.96"/>
<polygon fill="#63b8ff" stroke="#63b8ff" points="136.49,-101.67 147.06,-100.95 138.35,-94.92 136.49,-101.67"/>
</a>
</g>
</g>
<!-- Node7&#45;&gt;Node4 -->
<g id="edge8_Node000007_Node000004" class="edge">
<title>Node7&#45;&gt;Node4</title>
<g id="a_edge8_Node000007_Node000004"><a xlink:title=" ">
<path fill="none" stroke="#63b8ff" d="M287.08,-87.72C269.25,-92.19 249.67,-97.09 232.78,-101.33"/>
<polygon fill="#63b8ff" stroke="#63b8ff" points="287.89,-91.12 296.74,-85.3 286.19,-84.33 287.89,-91.12"/>
</a>
</g>
</g>
<!-- Node8&#45;&gt;Node3 -->
<g id="edge10_Node000008_Node000003" class="edge">
<title>Node8&#45;&gt;Node3</title>
<g id="a_edge10_Node000008_Node000003"><a xlink:title=" ">
<path fill="none" stroke="#63b8ff" d="M459.22,-188.33C453.06,-186.65 446.88,-184.9 441,-183.14 418.17,-176.33 392.68,-167.69 373.45,-160.96"/>
<polygon fill="#63b8ff" stroke="#63b8ff" points="458.21,-191.69 468.78,-190.9 460.03,-184.93 458.21,-191.69"/>
</a>
</g>
</g>
<!-- Node8&#45;&gt;Node4 -->
<g id="edge11_Node000008_Node000004" class="edge">
<title>Node8&#45;&gt;Node4</title>
<g id="a_edge11_Node000008_Node000004"><a xlink:title=" ">
<path fill="none" stroke="#63b8ff" d="M429.41,-198.91C383.85,-195.03 327.34,-186.74 279.5,-169.14 249.67,-158.17 219.36,-136.21 202.67,-122.98"/>
<polygon fill="#63b8ff" stroke="#63b8ff" points="428.99,-202.38 439.23,-199.68 429.54,-195.4 428.99,-202.38"/>
</a>
</g>
</g>
<!-- Node10&#45;&gt;Node5 -->
<g id="edge14_Node000010_Node000005" class="edge">
<title>Node10&#45;&gt;Node5</title>
<g id="a_edge14_Node000010_Node000005"><a xlink:title=" ">
<path fill="none" stroke="#63b8ff" d="M274.59,-30.18C220.69,-40.73 146.1,-55.32 97.92,-64.74"/>
<polygon fill="#63b8ff" stroke="#63b8ff" points="275.13,-33.64 284.27,-28.29 273.79,-26.77 275.13,-33.64"/>
</a>
</g>
</g>
</g>
</svg>
