<?xml version="1.0" encoding="UTF-8" standalone="no"?>
<!DOCTYPE svg PUBLIC "-//W3C//DTD SVG 1.1//EN"
 "http://www.w3.org/Graphics/SVG/1.1/DTD/svg11.dtd">
<!-- Generated by graphviz version 12.2.1 (20241206.2353)
 -->
<!-- Title: fl::XYMap::mapToIndex Pages: 1 -->
<svg width="438pt" height="68pt"
 viewBox="0.00 0.00 437.75 67.75" xmlns="http://www.w3.org/2000/svg" xmlns:xlink="http://www.w3.org/1999/xlink">
<g id="graph0" class="graph" transform="scale(1 1) rotate(0) translate(4 63.75)">
<title>fl::XYMap::mapToIndex</title>
<!-- Node1 -->
<g id="Node000001" class="node">
<title>Node1</title>
<g id="a_Node000001"><a xlink:title=" ">
<polygon fill="#999999" stroke="#666666" points="127,-39.75 0,-39.75 0,-19 127,-19 127,-39.75"/>
<text text-anchor="middle" x="63.5" y="-26.25" font-family="Helvetica,sans-Serif" font-size="10.00">fl::XYMap::mapToIndex</text>
</a>
</g>
</g>
<!-- Node2 -->
<g id="Node000002" class="node">
<title>Node2</title>
<g id="a_Node000002"><a xlink:href="../../d0/dce/classfl_1_1_x_y_map.html#aaeab9d4f2c66f6e681415479493578c2" target="_top" xlink:title=" ">
<polygon fill="white" stroke="#666666" points="290,-39.75 163,-39.75 163,-19 290,-19 290,-39.75"/>
<text text-anchor="middle" x="226.5" y="-26.25" font-family="Helvetica,sans-Serif" font-size="10.00">fl::XYMap::mapToIndex</text>
</a>
</g>
</g>
<!-- Node1&#45;&gt;Node2 -->
<g id="edge1_Node000001_Node000002" class="edge">
<title>Node1&#45;&gt;Node2</title>
<g id="a_edge1_Node000001_Node000002"><a xlink:title=" ">
<path fill="none" stroke="#63b8ff" d="M127.21,-29.38C135.13,-29.38 143.29,-29.38 151.37,-29.38"/>
<polygon fill="#63b8ff" stroke="#63b8ff" points="151.18,-32.88 161.18,-29.38 151.18,-25.88 151.18,-32.88"/>
</a>
</g>
</g>
<!-- Node3 -->
<g id="Node000003" class="node">
<title>Node3</title>
<g id="a_Node000003"><a xlink:href="../../d4/d36/namespacefl.html#aabd143143924c6bddbe62e4b21688e76" target="_top" xlink:title=" ">
<polygon fill="white" stroke="#666666" points="429.75,-59.75 326,-59.75 326,-39 429.75,-39 429.75,-59.75"/>
<text text-anchor="middle" x="377.88" y="-46.25" font-family="Helvetica,sans-Serif" font-size="10.00">fl::xy_line_by_line</text>
</a>
</g>
</g>
<!-- Node2&#45;&gt;Node3 -->
<g id="edge2_Node000002_Node000003" class="edge">
<title>Node2&#45;&gt;Node3</title>
<g id="a_edge2_Node000002_Node000003"><a xlink:title=" ">
<path fill="none" stroke="#63b8ff" d="M290.42,-37.8C298.44,-38.87 306.64,-39.97 314.65,-41.04"/>
<polygon fill="#63b8ff" stroke="#63b8ff" points="313.93,-44.48 324.3,-42.34 314.86,-37.54 313.93,-44.48"/>
</a>
</g>
</g>
<!-- Node4 -->
<g id="Node000004" class="node">
<title>Node4</title>
<g id="a_Node000004"><a xlink:href="../../d4/d36/namespacefl.html#a44d29156c0decceaf2ff1970ddbdde7c" target="_top" xlink:title=" ">
<polygon fill="white" stroke="#666666" points="426.38,-20.75 329.38,-20.75 329.38,0 426.38,0 426.38,-20.75"/>
<text text-anchor="middle" x="377.88" y="-7.25" font-family="Helvetica,sans-Serif" font-size="10.00">fl::xy_serpentine</text>
</a>
</g>
</g>
<!-- Node2&#45;&gt;Node4 -->
<g id="edge3_Node000002_Node000004" class="edge">
<title>Node2&#45;&gt;Node4</title>
<g id="a_edge3_Node000002_Node000004"><a xlink:title=" ">
<path fill="none" stroke="#63b8ff" d="M290.42,-21.37C299.5,-20.22 308.82,-19.03 317.82,-17.89"/>
<polygon fill="#63b8ff" stroke="#63b8ff" points="318.03,-21.39 327.51,-16.65 317.15,-14.44 318.03,-21.39"/>
</a>
</g>
</g>
</g>
</svg>
