<?xml version="1.0" encoding="UTF-8" standalone="no"?>
<!DOCTYPE svg PUBLIC "-//W3C//DTD SVG 1.1//EN"
 "http://www.w3.org/Graphics/SVG/1.1/DTD/svg11.dtd">
<!-- Generated by graphviz version 12.2.1 (20241206.2353)
 -->
<!-- Title: /home/runner/work/FastLED/FastLED/src/fl/engine_events.h Pages: 1 -->
<svg width="1728pt" height="395pt"
 viewBox="0.00 0.00 1728.01 394.75" xmlns="http://www.w3.org/2000/svg" xmlns:xlink="http://www.w3.org/1999/xlink">
<g id="graph0" class="graph" transform="scale(1 1) rotate(0) translate(4 390.75)">
<title>/home/runner/work/FastLED/FastLED/src/fl/engine_events.h</title>
<!-- Node1 -->
<g id="Node000001" class="node">
<title>Node1</title>
<g id="a_Node000001"><a xlink:title=" ">
<polygon fill="#999999" stroke="#666666" points="1313.26,-386.75 1163.76,-386.75 1163.76,-340.5 1313.26,-340.5 1313.26,-386.75"/>
<text text-anchor="start" x="1171.76" y="-373.25" font-family="Helvetica,sans-Serif" font-size="10.00">/home/runner/work/FastLED</text>
<text text-anchor="start" x="1171.76" y="-360.5" font-family="Helvetica,sans-Serif" font-size="10.00">/FastLED/src/fl/engine</text>
<text text-anchor="middle" x="1238.51" y="-347.75" font-family="Helvetica,sans-Serif" font-size="10.00">_events.h</text>
</a>
</g>
</g>
<!-- Node2 -->
<g id="Node000002" class="node">
<title>Node2</title>
<g id="a_Node000002"><a xlink:href="../../d6/d68/vector_8h.html" target="_top" xlink:title=" ">
<polygon fill="white" stroke="#666666" points="315.51,-134.25 251.51,-134.25 251.51,-113.5 315.51,-113.5 315.51,-134.25"/>
<text text-anchor="middle" x="283.51" y="-120.75" font-family="Helvetica,sans-Serif" font-size="10.00">fl/vector.h</text>
</a>
</g>
</g>
<!-- Node1&#45;&gt;Node2 -->
<g id="edge1_Node000001_Node000002" class="edge">
<title>Node1&#45;&gt;Node2</title>
<g id="a_edge1_Node000001_Node000002"><a xlink:title=" ">
<path fill="none" stroke="#63b8ff" d="M1163.55,-360.99C1006.52,-354.86 634.87,-326 360.51,-191 336.46,-179.16 313.8,-158.04 299.37,-142.85"/>
<polygon fill="#63b8ff" stroke="#63b8ff" points="302.25,-140.81 292.9,-135.82 297.1,-145.55 302.25,-140.81"/>
</a>
</g>
</g>
<!-- Node6 -->
<g id="Node000006" class="node">
<title>Node6</title>
<g id="a_Node000006"><a xlink:href="../../df/d2a/namespace_8h.html" target="_top" xlink:title="Implements the FastLED namespace macros.">
<polygon fill="white" stroke="#666666" points="1227.64,-20.75 1137.39,-20.75 1137.39,0 1227.64,0 1227.64,-20.75"/>
<text text-anchor="middle" x="1182.51" y="-7.25" font-family="Helvetica,sans-Serif" font-size="10.00">fl/namespace.h</text>
</a>
</g>
</g>
<!-- Node1&#45;&gt;Node6 -->
<g id="edge74_Node000001_Node000006" class="edge">
<title>Node1&#45;&gt;Node6</title>
<g id="a_edge74_Node000001_Node000006"><a xlink:title=" ">
<path fill="none" stroke="#63b8ff" d="M1313.75,-353.15C1422.96,-337.27 1612.51,-300.72 1612.51,-238.38 1612.51,-238.38 1612.51,-238.38 1612.51,-122.88 1612.51,-81.98 1585.11,-75 1548.51,-56.75 1495.59,-30.36 1328.5,-18.43 1239.54,-13.83"/>
<polygon fill="#63b8ff" stroke="#63b8ff" points="1239.73,-10.34 1229.56,-13.33 1239.38,-17.33 1239.73,-10.34"/>
</a>
</g>
</g>
<!-- Node9 -->
<g id="Node000009" class="node">
<title>Node9</title>
<g id="a_Node000009"><a xlink:href="../../d0/dae/fl_2singleton_8h.html" target="_top" xlink:title=" ">
<polygon fill="white" stroke="#666666" points="1720.01,-304.5 1641.01,-304.5 1641.01,-283.75 1720.01,-283.75 1720.01,-304.5"/>
<text text-anchor="middle" x="1680.51" y="-291" font-family="Helvetica,sans-Serif" font-size="10.00">fl/singleton.h</text>
</a>
</g>
</g>
<!-- Node1&#45;&gt;Node9 -->
<g id="edge10_Node000001_Node000009" class="edge">
<title>Node1&#45;&gt;Node9</title>
<g id="a_edge10_Node000001_Node000009"><a xlink:title=" ">
<path fill="none" stroke="#63b8ff" d="M1313.7,-351.89C1391.92,-340.6 1517.92,-322.06 1626.51,-304.5 1627.52,-304.34 1628.53,-304.17 1629.56,-304"/>
<polygon fill="#63b8ff" stroke="#63b8ff" points="1629.94,-307.49 1639.22,-302.39 1628.78,-300.58 1629.94,-307.49"/>
</a>
</g>
</g>
<!-- Node10 -->
<g id="Node000010" class="node">
<title>Node10</title>
<g id="a_Node000010"><a xlink:href="../../d6/dc9/fl_2xymap_8h.html" target="_top" xlink:title=" ">
<polygon fill="white" stroke="#666666" points="1272.39,-304.5 1204.64,-304.5 1204.64,-283.75 1272.39,-283.75 1272.39,-304.5"/>
<text text-anchor="middle" x="1238.51" y="-291" font-family="Helvetica,sans-Serif" font-size="10.00">fl/xymap.h</text>
</a>
</g>
</g>
<!-- Node1&#45;&gt;Node10 -->
<g id="edge12_Node000001_Node000010" class="edge">
<title>Node1&#45;&gt;Node10</title>
<g id="a_edge12_Node000001_Node000010"><a xlink:title=" ">
<path fill="none" stroke="#63b8ff" d="M1238.51,-340.15C1238.51,-332.48 1238.51,-323.94 1238.51,-316.38"/>
<polygon fill="#63b8ff" stroke="#63b8ff" points="1242.01,-316.4 1238.51,-306.4 1235.01,-316.4 1242.01,-316.4"/>
</a>
</g>
</g>
<!-- Node22 -->
<g id="Node000022" class="node">
<title>Node22</title>
<g id="a_Node000022"><a xlink:href="../../d7/d0d/fl_2screenmap_8h.html" target="_top" xlink:title=" ">
<polygon fill="white" stroke="#666666" points="824.51,-247.75 736.51,-247.75 736.51,-227 824.51,-227 824.51,-247.75"/>
<text text-anchor="middle" x="780.51" y="-234.25" font-family="Helvetica,sans-Serif" font-size="10.00">fl/screenmap.h</text>
</a>
</g>
</g>
<!-- Node1&#45;&gt;Node22 -->
<g id="edge52_Node000001_Node000022" class="edge">
<title>Node1&#45;&gt;Node22</title>
<g id="a_edge52_Node000001_Node000022"><a xlink:title=" ">
<path fill="none" stroke="#63b8ff" d="M1163.39,-342.25C1068.14,-316.41 906.77,-272.63 827.42,-251.1"/>
<polygon fill="#63b8ff" stroke="#63b8ff" points="828.81,-247.85 818.24,-248.61 826.98,-254.61 828.81,-247.85"/>
</a>
</g>
</g>
<!-- Node3 -->
<g id="Node000003" class="node">
<title>Node3</title>
<g id="a_Node000003"><a xlink:title=" ">
<polygon fill="#e0e0e0" stroke="#999999" points="752.89,-20.75 700.14,-20.75 700.14,0 752.89,0 752.89,-20.75"/>
<text text-anchor="middle" x="726.51" y="-7.25" font-family="Helvetica,sans-Serif" font-size="10.00">stdint.h</text>
</a>
</g>
</g>
<!-- Node2&#45;&gt;Node3 -->
<g id="edge2_Node000002_Node000003" class="edge">
<title>Node2&#45;&gt;Node3</title>
<g id="a_edge2_Node000002_Node000003"><a xlink:title=" ">
<path fill="none" stroke="#63b8ff" d="M281.2,-113.21C278.38,-98.75 275.64,-71.59 290.51,-56.75 318.43,-28.88 587.08,-16.39 688.24,-12.65"/>
<polygon fill="#63b8ff" stroke="#63b8ff" points="688.34,-16.15 698.21,-12.29 688.09,-9.15 688.34,-16.15"/>
</a>
</g>
</g>
<!-- Node4 -->
<g id="Node000004" class="node">
<title>Node4</title>
<g id="a_Node000004"><a xlink:title=" ">
<polygon fill="#e0e0e0" stroke="#999999" points="370.01,-20.75 315.01,-20.75 315.01,0 370.01,0 370.01,-20.75"/>
<text text-anchor="middle" x="342.51" y="-7.25" font-family="Helvetica,sans-Serif" font-size="10.00">stddef.h</text>
</a>
</g>
</g>
<!-- Node2&#45;&gt;Node4 -->
<g id="edge3_Node000002_Node000004" class="edge">
<title>Node2&#45;&gt;Node4</title>
<g id="a_edge3_Node000002_Node000004"><a xlink:title=" ">
<path fill="none" stroke="#63b8ff" d="M274.6,-113.44C263.2,-100.19 246.22,-75.58 257.51,-56.75 267.7,-39.76 286.65,-28.78 304.08,-21.88"/>
<polygon fill="#63b8ff" stroke="#63b8ff" points="304.98,-25.28 313.21,-18.61 302.62,-18.69 304.98,-25.28"/>
</a>
</g>
</g>
<!-- Node5 -->
<g id="Node000005" class="node">
<title>Node5</title>
<g id="a_Node000005"><a xlink:href="../../db/d36/inplacenew_8h.html" target="_top" xlink:title=" ">
<polygon fill="white" stroke="#666666" points="205.39,-77.5 125.64,-77.5 125.64,-56.75 205.39,-56.75 205.39,-77.5"/>
<text text-anchor="middle" x="165.51" y="-64" font-family="Helvetica,sans-Serif" font-size="10.00">inplacenew.h</text>
</a>
</g>
</g>
<!-- Node2&#45;&gt;Node5 -->
<g id="edge4_Node000002_Node000005" class="edge">
<title>Node2&#45;&gt;Node5</title>
<g id="a_edge4_Node000002_Node000005"><a xlink:title=" ">
<path fill="none" stroke="#63b8ff" d="M262.41,-113.09C244.12,-104.6 217.41,-92.2 196.66,-82.58"/>
<polygon fill="#63b8ff" stroke="#63b8ff" points="198.34,-79.5 187.8,-78.47 195.4,-85.85 198.34,-79.5"/>
</a>
</g>
</g>
<!-- Node2&#45;&gt;Node6 -->
<g id="edge5_Node000002_Node000006" class="edge">
<title>Node2&#45;&gt;Node6</title>
<g id="a_edge5_Node000002_Node000006"><a xlink:title=" ">
<path fill="none" stroke="#63b8ff" d="M315.57,-115.51C376.16,-101.85 511.82,-72.55 627.51,-56.75 808.56,-32.02 1024.82,-19.07 1125.59,-13.99"/>
<polygon fill="#63b8ff" stroke="#63b8ff" points="1125.68,-17.49 1135.5,-13.5 1125.33,-10.5 1125.68,-17.49"/>
</a>
</g>
</g>
<!-- Node7 -->
<g id="Node000007" class="node">
<title>Node7</title>
<g id="a_Node000007"><a xlink:href="../../df/d28/fl_2scoped__ptr_8h.html" target="_top" xlink:title=" ">
<polygon fill="white" stroke="#666666" points="385.76,-77.5 299.26,-77.5 299.26,-56.75 385.76,-56.75 385.76,-77.5"/>
<text text-anchor="middle" x="342.51" y="-64" font-family="Helvetica,sans-Serif" font-size="10.00">fl/scoped_ptr.h</text>
</a>
</g>
</g>
<!-- Node2&#45;&gt;Node7 -->
<g id="edge6_Node000002_Node000007" class="edge">
<title>Node2&#45;&gt;Node7</title>
<g id="a_edge6_Node000002_Node000007"><a xlink:title=" ">
<path fill="none" stroke="#63b8ff" d="M294.06,-113.09C302.28,-105.46 313.91,-94.67 323.71,-85.57"/>
<polygon fill="#63b8ff" stroke="#63b8ff" points="326,-88.23 330.94,-78.86 321.23,-83.09 326,-88.23"/>
</a>
</g>
</g>
<!-- Node8 -->
<g id="Node000008" class="node">
<title>Node8</title>
<g id="a_Node000008"><a xlink:href="../../d1/d22/insert__result_8h.html" target="_top" xlink:title=" ">
<polygon fill="white" stroke="#666666" points="107.89,-77.5 13.14,-77.5 13.14,-56.75 107.89,-56.75 107.89,-77.5"/>
<text text-anchor="middle" x="60.51" y="-64" font-family="Helvetica,sans-Serif" font-size="10.00">fl/insert_result.h</text>
</a>
</g>
</g>
<!-- Node2&#45;&gt;Node8 -->
<g id="edge9_Node000002_Node000008" class="edge">
<title>Node2&#45;&gt;Node8</title>
<g id="a_edge9_Node000002_Node000008"><a xlink:title=" ">
<path fill="none" stroke="#63b8ff" d="M251.08,-114.91C214.49,-105.93 154.49,-91.2 111.58,-80.66"/>
<polygon fill="#63b8ff" stroke="#63b8ff" points="112.54,-77.29 101.99,-78.31 110.87,-84.09 112.54,-77.29"/>
</a>
</g>
</g>
<!-- Node7&#45;&gt;Node4 -->
<g id="edge7_Node000007_Node000004" class="edge">
<title>Node7&#45;&gt;Node4</title>
<g id="a_edge7_Node000007_Node000004"><a xlink:title=" ">
<path fill="none" stroke="#63b8ff" d="M342.51,-56.34C342.51,-49.72 342.51,-40.72 342.51,-32.52"/>
<polygon fill="#63b8ff" stroke="#63b8ff" points="346.01,-32.59 342.51,-22.59 339.01,-32.59 346.01,-32.59"/>
</a>
</g>
</g>
<!-- Node7&#45;&gt;Node6 -->
<g id="edge8_Node000007_Node000006" class="edge">
<title>Node7&#45;&gt;Node6</title>
<g id="a_edge8_Node000007_Node000006"><a xlink:title=" ">
<path fill="none" stroke="#63b8ff" d="M386.2,-63.28C526.89,-54.11 968.21,-25.34 1125.85,-15.07"/>
<polygon fill="#63b8ff" stroke="#63b8ff" points="1125.88,-18.57 1135.63,-14.43 1125.42,-11.59 1125.88,-18.57"/>
</a>
</g>
</g>
<!-- Node9&#45;&gt;Node6 -->
<g id="edge11_Node000009_Node000006" class="edge">
<title>Node9&#45;&gt;Node6</title>
<g id="a_edge11_Node000009_Node000006"><a xlink:title=" ">
<path fill="none" stroke="#63b8ff" d="M1678.3,-283.34C1674.12,-264.01 1665.51,-219.52 1665.51,-181.62 1665.51,-181.62 1665.51,-181.62 1665.51,-122.88 1665.51,-88.76 1655.24,-75.16 1626.51,-56.75 1563.71,-16.51 1344.23,-11.13 1239.27,-10.94"/>
<polygon fill="#63b8ff" stroke="#63b8ff" points="1239.48,-7.44 1229.48,-10.94 1239.47,-14.44 1239.48,-7.44"/>
</a>
</g>
</g>
<!-- Node10&#45;&gt;Node3 -->
<g id="edge13_Node000010_Node000003" class="edge">
<title>Node10&#45;&gt;Node3</title>
<g id="a_edge13_Node000010_Node000003"><a xlink:title=" ">
<path fill="none" stroke="#63b8ff" d="M1204.27,-293.72C1103.37,-294.9 809.2,-294.18 727.51,-247.75 649.3,-203.3 618.63,-136.37 660.51,-56.75 667.29,-43.87 679.56,-33.93 691.7,-26.69"/>
<polygon fill="#63b8ff" stroke="#63b8ff" points="693.29,-29.81 700.41,-21.96 689.95,-23.65 693.29,-29.81"/>
</a>
</g>
</g>
<!-- Node10&#45;&gt;Node6 -->
<g id="edge51_Node000010_Node000006" class="edge">
<title>Node10&#45;&gt;Node6</title>
<g id="a_edge51_Node000010_Node000006"><a xlink:title=" ">
<path fill="none" stroke="#63b8ff" d="M1272.58,-289.19C1358,-278.39 1574.51,-244.78 1574.51,-181.62 1574.51,-181.62 1574.51,-181.62 1574.51,-122.88 1574.51,-83.78 1550.95,-75.25 1516.51,-56.75 1469.78,-31.65 1321.75,-19.35 1239.32,-14.3"/>
<polygon fill="#63b8ff" stroke="#63b8ff" points="1239.6,-10.81 1229.41,-13.71 1239.18,-17.8 1239.6,-10.81"/>
</a>
</g>
</g>
<!-- Node11 -->
<g id="Node000011" class="node">
<title>Node11</title>
<g id="a_Node000011"><a xlink:title=" ">
<polygon fill="#e0e0e0" stroke="#999999" points="1005.89,-77.5 953.14,-77.5 953.14,-56.75 1005.89,-56.75 1005.89,-77.5"/>
<text text-anchor="middle" x="979.51" y="-64" font-family="Helvetica,sans-Serif" font-size="10.00">string.h</text>
</a>
</g>
</g>
<!-- Node10&#45;&gt;Node11 -->
<g id="edge14_Node000010_Node000011" class="edge">
<title>Node10&#45;&gt;Node11</title>
<g id="a_edge14_Node000010_Node000011"><a xlink:title=" ">
<path fill="none" stroke="#63b8ff" d="M1241.68,-283.45C1245.51,-269.91 1250.29,-244.95 1240.51,-227 1193.41,-140.58 1077.48,-95.97 1017.24,-77.97"/>
<polygon fill="#63b8ff" stroke="#63b8ff" points="1018.35,-74.64 1007.77,-75.23 1016.41,-81.37 1018.35,-74.64"/>
</a>
</g>
</g>
<!-- Node12 -->
<g id="Node000012" class="node">
<title>Node12</title>
<g id="a_Node000012"><a xlink:href="../../db/dd1/crgb_8h.html" target="_top" xlink:title="Defines the red, green, and blue (RGB) pixel struct.">
<polygon fill="white" stroke="#666666" points="1395.51,-134.25 1349.51,-134.25 1349.51,-113.5 1395.51,-113.5 1395.51,-134.25"/>
<text text-anchor="middle" x="1372.51" y="-120.75" font-family="Helvetica,sans-Serif" font-size="10.00">crgb.h</text>
</a>
</g>
</g>
<!-- Node10&#45;&gt;Node12 -->
<g id="edge15_Node000010_Node000012" class="edge">
<title>Node10&#45;&gt;Node12</title>
<g id="a_edge15_Node000010_Node000012"><a xlink:title=" ">
<path fill="none" stroke="#63b8ff" d="M1271.51,-283.36C1290.47,-276.23 1313.45,-264.79 1328.51,-247.75 1354.43,-218.42 1365.4,-172.73 1369.8,-146.11"/>
<polygon fill="#63b8ff" stroke="#63b8ff" points="1373.26,-146.63 1371.25,-136.23 1366.34,-145.61 1373.26,-146.63"/>
</a>
</g>
</g>
<!-- Node16 -->
<g id="Node000016" class="node">
<title>Node16</title>
<g id="a_Node000016"><a xlink:href="../../d8/d2d/fl_2force__inline_8h.html" target="_top" xlink:title=" ">
<polygon fill="white" stroke="#666666" points="1191.01,-77.5 1100.01,-77.5 1100.01,-56.75 1191.01,-56.75 1191.01,-77.5"/>
<text text-anchor="middle" x="1145.51" y="-64" font-family="Helvetica,sans-Serif" font-size="10.00">fl/force_inline.h</text>
</a>
</g>
</g>
<!-- Node10&#45;&gt;Node16 -->
<g id="edge30_Node000010_Node000016" class="edge">
<title>Node10&#45;&gt;Node16</title>
<g id="a_edge30_Node000010_Node000016"><a xlink:title=" ">
<path fill="none" stroke="#63b8ff" d="M1256.07,-283.36C1268.24,-275.51 1283.47,-263.24 1290.51,-247.75 1304.77,-216.39 1299.91,-203.39 1290.51,-170.25 1282.43,-141.74 1278.09,-132.7 1255.51,-113.5 1238.51,-99.05 1216.28,-88.71 1196.25,-81.59"/>
<polygon fill="#63b8ff" stroke="#63b8ff" points="1197.43,-78.3 1186.84,-78.45 1195.21,-84.94 1197.43,-78.3"/>
</a>
</g>
</g>
<!-- Node18 -->
<g id="Node000018" class="node">
<title>Node18</title>
<g id="a_Node000018"><a xlink:href="../../d3/db6/fl_2lut_8h.html" target="_top" xlink:title=" ">
<polygon fill="white" stroke="#666666" points="1072.89,-191 1026.14,-191 1026.14,-170.25 1072.89,-170.25 1072.89,-191"/>
<text text-anchor="middle" x="1049.51" y="-177.5" font-family="Helvetica,sans-Serif" font-size="10.00">fl/lut.h</text>
</a>
</g>
</g>
<!-- Node10&#45;&gt;Node18 -->
<g id="edge31_Node000010_Node000018" class="edge">
<title>Node10&#45;&gt;Node18</title>
<g id="a_edge31_Node000010_Node000018"><a xlink:title=" ">
<path fill="none" stroke="#63b8ff" d="M1221.44,-283.26C1205.62,-274.1 1181.44,-260.07 1160.51,-247.75 1131.31,-230.56 1097.92,-210.63 1075.45,-197.18"/>
<polygon fill="#63b8ff" stroke="#63b8ff" points="1077.33,-194.23 1066.95,-192.09 1073.74,-200.23 1077.33,-194.23"/>
</a>
</g>
</g>
<!-- Node19 -->
<g id="Node000019" class="node">
<title>Node19</title>
<g id="a_Node000019"><a xlink:href="../../d7/df1/fl_2ptr_8h.html" target="_top" xlink:title=" ">
<polygon fill="white" stroke="#666666" points="835.89,-134.25 789.14,-134.25 789.14,-113.5 835.89,-113.5 835.89,-134.25"/>
<text text-anchor="middle" x="812.51" y="-120.75" font-family="Helvetica,sans-Serif" font-size="10.00">fl/ptr.h</text>
</a>
</g>
</g>
<!-- Node10&#45;&gt;Node19 -->
<g id="edge43_Node000010_Node000019" class="edge">
<title>Node10&#45;&gt;Node19</title>
<g id="a_edge43_Node000010_Node000019"><a xlink:title=" ">
<path fill="none" stroke="#63b8ff" d="M1206.36,-283.38C1151.9,-266.56 1038.36,-230.08 945.51,-191 908.33,-175.35 866.92,-154.13 840.34,-140"/>
<polygon fill="#63b8ff" stroke="#63b8ff" points="842.05,-136.94 831.58,-135.31 838.74,-143.11 842.05,-136.94"/>
</a>
</g>
</g>
<!-- Node21 -->
<g id="Node000021" class="node">
<title>Node21</title>
<g id="a_Node000021"><a xlink:href="../../d5/d22/fl_2xmap_8h.html" target="_top" xlink:title=" ">
<polygon fill="white" stroke="#666666" points="1231.39,-247.75 1169.64,-247.75 1169.64,-227 1231.39,-227 1231.39,-247.75"/>
<text text-anchor="middle" x="1200.51" y="-234.25" font-family="Helvetica,sans-Serif" font-size="10.00">fl/xmap.h</text>
</a>
</g>
</g>
<!-- Node10&#45;&gt;Node21 -->
<g id="edge44_Node000010_Node000021" class="edge">
<title>Node10&#45;&gt;Node21</title>
<g id="a_edge44_Node000010_Node000021"><a xlink:title=" ">
<path fill="none" stroke="#63b8ff" d="M1231.72,-283.34C1226.75,-276.17 1219.84,-266.23 1213.79,-257.51"/>
<polygon fill="#63b8ff" stroke="#63b8ff" points="1216.69,-255.54 1208.11,-249.32 1210.94,-259.53 1216.69,-255.54"/>
</a>
</g>
</g>
<!-- Node12&#45;&gt;Node3 -->
<g id="edge16_Node000012_Node000003" class="edge">
<title>Node12&#45;&gt;Node3</title>
<g id="a_edge16_Node000012_Node000003"><a xlink:title=" ">
<path fill="none" stroke="#63b8ff" d="M1349.32,-116.28C1322.26,-108.29 1276.39,-93.86 1238.51,-77.5 1220.49,-69.71 1218.31,-62.41 1199.51,-56.75 1118.18,-32.28 861.67,-17.82 764.41,-13.1"/>
<polygon fill="#63b8ff" stroke="#63b8ff" points="764.76,-9.61 754.6,-12.63 764.43,-16.6 764.76,-9.61"/>
</a>
</g>
</g>
<!-- Node12&#45;&gt;Node6 -->
<g id="edge20_Node000012_Node000006" class="edge">
<title>Node12&#45;&gt;Node6</title>
<g id="a_edge20_Node000012_Node000006"><a xlink:title=" ">
<path fill="none" stroke="#63b8ff" d="M1395.88,-118.16C1434.89,-109.29 1506.47,-88.14 1479.51,-56.75 1449.21,-21.46 1316.98,-13.32 1239.55,-11.63"/>
<polygon fill="#63b8ff" stroke="#63b8ff" points="1239.66,-8.13 1229.59,-11.44 1239.53,-15.13 1239.66,-8.13"/>
</a>
</g>
</g>
<!-- Node13 -->
<g id="Node000013" class="node">
<title>Node13</title>
<g id="a_Node000013"><a xlink:href="../../d8/dd0/chsv_8h.html" target="_top" xlink:title="Defines the hue, saturation, and value (HSV) pixel struct.">
<polygon fill="white" stroke="#666666" points="1403.89,-77.5 1357.14,-77.5 1357.14,-56.75 1403.89,-56.75 1403.89,-77.5"/>
<text text-anchor="middle" x="1380.51" y="-64" font-family="Helvetica,sans-Serif" font-size="10.00">chsv.h</text>
</a>
</g>
</g>
<!-- Node12&#45;&gt;Node13 -->
<g id="edge17_Node000012_Node000013" class="edge">
<title>Node12&#45;&gt;Node13</title>
<g id="a_edge17_Node000012_Node000013"><a xlink:title=" ">
<path fill="none" stroke="#63b8ff" d="M1373.94,-113.09C1374.92,-106.39 1376.25,-97.26 1377.46,-88.98"/>
<polygon fill="#63b8ff" stroke="#63b8ff" points="1380.89,-89.73 1378.87,-79.33 1373.96,-88.71 1380.89,-89.73"/>
</a>
</g>
</g>
<!-- Node14 -->
<g id="Node000014" class="node">
<title>Node14</title>
<g id="a_Node000014"><a xlink:href="../../d2/d6b/src_2color_8h.html" target="_top" xlink:title="Contains definitions for color correction and temperature.">
<polygon fill="white" stroke="#666666" points="1470.64,-77.5 1422.39,-77.5 1422.39,-56.75 1470.64,-56.75 1470.64,-77.5"/>
<text text-anchor="middle" x="1446.51" y="-64" font-family="Helvetica,sans-Serif" font-size="10.00">color.h</text>
</a>
</g>
</g>
<!-- Node12&#45;&gt;Node14 -->
<g id="edge21_Node000012_Node000014" class="edge">
<title>Node12&#45;&gt;Node14</title>
<g id="a_edge21_Node000012_Node000014"><a xlink:title=" ">
<path fill="none" stroke="#63b8ff" d="M1385.74,-113.09C1396.47,-105.15 1411.84,-93.78 1424.43,-84.46"/>
<polygon fill="#63b8ff" stroke="#63b8ff" points="1426.22,-87.49 1432.18,-78.73 1422.06,-81.86 1426.22,-87.49"/>
</a>
</g>
</g>
<!-- Node15 -->
<g id="Node000015" class="node">
<title>Node15</title>
<g id="a_Node000015"><a xlink:href="../../d9/ddf/lib8tion_2types_8h.html" target="_top" xlink:title="Defines fractional types used for lib8tion functions.">
<polygon fill="white" stroke="#666666" points="1339.39,-77.5 1247.64,-77.5 1247.64,-56.75 1339.39,-56.75 1339.39,-77.5"/>
<text text-anchor="middle" x="1293.51" y="-64" font-family="Helvetica,sans-Serif" font-size="10.00">lib8tion/types.h</text>
</a>
</g>
</g>
<!-- Node12&#45;&gt;Node15 -->
<g id="edge23_Node000012_Node000015" class="edge">
<title>Node12&#45;&gt;Node15</title>
<g id="a_edge23_Node000012_Node000015"><a xlink:title=" ">
<path fill="none" stroke="#63b8ff" d="M1358.39,-113.09C1346.82,-105.07 1330.21,-93.56 1316.69,-84.19"/>
<polygon fill="#63b8ff" stroke="#63b8ff" points="1318.97,-81.51 1308.76,-78.69 1314.98,-87.26 1318.97,-81.51"/>
</a>
</g>
</g>
<!-- Node12&#45;&gt;Node16 -->
<g id="edge26_Node000012_Node000016" class="edge">
<title>Node12&#45;&gt;Node16</title>
<g id="a_edge26_Node000012_Node000016"><a xlink:title=" ">
<path fill="none" stroke="#63b8ff" d="M1349.07,-117.22C1313.52,-108.65 1245.07,-92.14 1197.41,-80.64"/>
<polygon fill="#63b8ff" stroke="#63b8ff" points="1198.39,-77.28 1187.85,-78.34 1196.75,-84.08 1198.39,-77.28"/>
</a>
</g>
</g>
<!-- Node17 -->
<g id="Node000017" class="node">
<title>Node17</title>
<g id="a_Node000017"><a xlink:href="../../d8/d0c/template__magic_8h.html" target="_top" xlink:title=" ">
<polygon fill="white" stroke="#666666" points="783.26,-77.5 669.76,-77.5 669.76,-56.75 783.26,-56.75 783.26,-77.5"/>
<text text-anchor="middle" x="726.51" y="-64" font-family="Helvetica,sans-Serif" font-size="10.00">fl/template_magic.h</text>
</a>
</g>
</g>
<!-- Node12&#45;&gt;Node17 -->
<g id="edge27_Node000012_Node000017" class="edge">
<title>Node12&#45;&gt;Node17</title>
<g id="a_edge27_Node000012_Node000017"><a xlink:title=" ">
<path fill="none" stroke="#63b8ff" d="M1349.14,-120.89C1259.72,-113.32 937.24,-85.98 794.87,-73.92"/>
<polygon fill="#63b8ff" stroke="#63b8ff" points="795.48,-70.46 785.22,-73.1 794.89,-77.43 795.48,-70.46"/>
</a>
</g>
</g>
<!-- Node13&#45;&gt;Node3 -->
<g id="edge18_Node000013_Node000003" class="edge">
<title>Node13&#45;&gt;Node3</title>
<g id="a_edge18_Node000013_Node000003"><a xlink:title=" ">
<path fill="none" stroke="#63b8ff" d="M1356.88,-58.59C1354.08,-57.88 1351.25,-57.24 1348.51,-56.75 1129.89,-17.21 862.13,-11.91 764.45,-11.36"/>
<polygon fill="#63b8ff" stroke="#63b8ff" points="764.66,-7.86 754.65,-11.32 764.63,-14.86 764.66,-7.86"/>
</a>
</g>
</g>
<!-- Node13&#45;&gt;Node6 -->
<g id="edge19_Node000013_Node000006" class="edge">
<title>Node13&#45;&gt;Node6</title>
<g id="a_edge19_Node000013_Node000006"><a xlink:title=" ">
<path fill="none" stroke="#63b8ff" d="M1356.76,-59.11C1353.98,-58.31 1351.18,-57.51 1348.51,-56.75 1308.61,-45.45 1263.17,-33.07 1229.94,-24.09"/>
<polygon fill="#63b8ff" stroke="#63b8ff" points="1231.19,-20.8 1220.62,-21.58 1229.36,-27.56 1231.19,-20.8"/>
</a>
</g>
</g>
<!-- Node14&#45;&gt;Node6 -->
<g id="edge22_Node000014_Node000006" class="edge">
<title>Node14&#45;&gt;Node6</title>
<g id="a_edge22_Node000014_Node000006"><a xlink:title=" ">
<path fill="none" stroke="#63b8ff" d="M1422.05,-59.15C1418.85,-58.3 1415.61,-57.48 1412.51,-56.75 1353.78,-42.88 1285.92,-29.85 1239.22,-21.35"/>
<polygon fill="#63b8ff" stroke="#63b8ff" points="1240.06,-17.95 1229.6,-19.61 1238.82,-24.83 1240.06,-17.95"/>
</a>
</g>
</g>
<!-- Node15&#45;&gt;Node3 -->
<g id="edge24_Node000015_Node000003" class="edge">
<title>Node15&#45;&gt;Node3</title>
<g id="a_edge24_Node000015_Node000003"><a xlink:title=" ">
<path fill="none" stroke="#63b8ff" d="M1247.37,-58.6C1242.69,-57.93 1238.01,-57.3 1233.51,-56.75 1058.81,-35.31 849.06,-19.76 764.55,-13.92"/>
<polygon fill="#63b8ff" stroke="#63b8ff" points="764.96,-10.44 754.75,-13.25 764.48,-17.42 764.96,-10.44"/>
</a>
</g>
</g>
<!-- Node15&#45;&gt;Node6 -->
<g id="edge25_Node000015_Node000006" class="edge">
<title>Node15&#45;&gt;Node6</title>
<g id="a_edge25_Node000015_Node000006"><a xlink:title=" ">
<path fill="none" stroke="#63b8ff" d="M1273.67,-56.34C1256.62,-47.93 1231.79,-35.68 1212.35,-26.09"/>
<polygon fill="#63b8ff" stroke="#63b8ff" points="1214.06,-23.03 1203.54,-21.75 1210.96,-29.31 1214.06,-23.03"/>
</a>
</g>
</g>
<!-- Node17&#45;&gt;Node3 -->
<g id="edge28_Node000017_Node000003" class="edge">
<title>Node17&#45;&gt;Node3</title>
<g id="a_edge28_Node000017_Node000003"><a xlink:title=" ">
<path fill="none" stroke="#63b8ff" d="M726.51,-56.34C726.51,-49.72 726.51,-40.72 726.51,-32.52"/>
<polygon fill="#63b8ff" stroke="#63b8ff" points="730.01,-32.59 726.51,-22.59 723.01,-32.59 730.01,-32.59"/>
</a>
</g>
</g>
<!-- Node17&#45;&gt;Node6 -->
<g id="edge29_Node000017_Node000006" class="edge">
<title>Node17&#45;&gt;Node6</title>
<g id="a_edge29_Node000017_Node000006"><a xlink:title=" ">
<path fill="none" stroke="#63b8ff" d="M783.47,-58.53C788.22,-57.92 792.95,-57.32 797.51,-56.75 914.23,-42.17 1051.03,-26.35 1126.09,-17.78"/>
<polygon fill="#63b8ff" stroke="#63b8ff" points="1126.1,-21.3 1135.64,-16.69 1125.31,-14.34 1126.1,-21.3"/>
</a>
</g>
</g>
<!-- Node18&#45;&gt;Node3 -->
<g id="edge32_Node000018_Node000003" class="edge">
<title>Node18&#45;&gt;Node3</title>
<g id="a_edge32_Node000018_Node000003"><a xlink:title=" ">
<path fill="none" stroke="#63b8ff" d="M1025.7,-174.52C985.83,-165.76 907.45,-147.49 882.51,-134.25 835.89,-109.5 834.32,-88.97 792.51,-56.75 779.21,-46.5 763.78,-35.83 751.18,-27.41"/>
<polygon fill="#63b8ff" stroke="#63b8ff" points="753.32,-24.63 743.04,-22.03 749.45,-30.46 753.32,-24.63"/>
</a>
</g>
</g>
<!-- Node18&#45;&gt;Node6 -->
<g id="edge42_Node000018_Node000006" class="edge">
<title>Node18&#45;&gt;Node6</title>
<g id="a_edge42_Node000018_Node000006"><a xlink:title=" ">
<path fill="none" stroke="#63b8ff" d="M1050.26,-169.76C1052.47,-147.14 1060.8,-90.81 1090.51,-56.75 1102.8,-42.66 1120.49,-32.49 1137.08,-25.4"/>
<polygon fill="#63b8ff" stroke="#63b8ff" points="1138.33,-28.67 1146.34,-21.74 1135.76,-22.16 1138.33,-28.67"/>
</a>
</g>
</g>
<!-- Node18&#45;&gt;Node16 -->
<g id="edge38_Node000018_Node000016" class="edge">
<title>Node18&#45;&gt;Node16</title>
<g id="a_edge38_Node000018_Node000016"><a xlink:title=" ">
<path fill="none" stroke="#63b8ff" d="M1057.7,-170.12C1073.63,-151.61 1109.05,-110.47 1129.71,-86.48"/>
<polygon fill="#63b8ff" stroke="#63b8ff" points="1132.21,-88.93 1136.09,-79.07 1126.91,-84.37 1132.21,-88.93"/>
</a>
</g>
</g>
<!-- Node18&#45;&gt;Node19 -->
<g id="edge33_Node000018_Node000019" class="edge">
<title>Node18&#45;&gt;Node19</title>
<g id="a_edge33_Node000018_Node000019"><a xlink:title=" ">
<path fill="none" stroke="#63b8ff" d="M1025.76,-174.44C988.25,-166.2 913.04,-149.5 849.51,-134.25 848.85,-134.09 848.18,-133.93 847.5,-133.76"/>
<polygon fill="#63b8ff" stroke="#63b8ff" points="848.39,-130.38 837.84,-131.38 846.71,-137.18 848.39,-130.38"/>
</a>
</g>
</g>
<!-- Node20 -->
<g id="Node000020" class="node">
<title>Node20</title>
<g id="a_Node000020"><a xlink:href="../../d2/d6f/fl_2allocator_8h.html" target="_top" xlink:title=" ">
<polygon fill="white" stroke="#666666" points="967.51,-134.25 891.51,-134.25 891.51,-113.5 967.51,-113.5 967.51,-134.25"/>
<text text-anchor="middle" x="929.51" y="-120.75" font-family="Helvetica,sans-Serif" font-size="10.00">fl/allocator.h</text>
</a>
</g>
</g>
<!-- Node18&#45;&gt;Node20 -->
<g id="edge39_Node000018_Node000020" class="edge">
<title>Node18&#45;&gt;Node20</title>
<g id="a_edge39_Node000018_Node000020"><a xlink:title=" ">
<path fill="none" stroke="#63b8ff" d="M1028.06,-169.84C1009.46,-161.35 982.29,-148.95 961.18,-139.33"/>
<polygon fill="#63b8ff" stroke="#63b8ff" points="962.71,-136.17 952.16,-135.21 959.8,-142.54 962.71,-136.17"/>
</a>
</g>
</g>
<!-- Node19&#45;&gt;Node4 -->
<g id="edge34_Node000019_Node000004" class="edge">
<title>Node19&#45;&gt;Node4</title>
<g id="a_edge34_Node000019_Node000004"><a xlink:title=" ">
<path fill="none" stroke="#63b8ff" d="M788.89,-121.06C737.9,-116.74 613.98,-104.21 513.51,-77.5 463.13,-64.11 407.23,-40.79 373.48,-25.72"/>
<polygon fill="#63b8ff" stroke="#63b8ff" points="375.28,-22.69 364.72,-21.77 372.4,-29.07 375.28,-22.69"/>
</a>
</g>
</g>
<!-- Node19&#45;&gt;Node6 -->
<g id="edge35_Node000019_Node000006" class="edge">
<title>Node19&#45;&gt;Node6</title>
<g id="a_edge35_Node000019_Node000006"><a xlink:title=" ">
<path fill="none" stroke="#63b8ff" d="M828.55,-113C852.78,-98.52 900.57,-71.63 944.51,-56.75 1004.82,-36.34 1077.02,-24.2 1125.96,-17.69"/>
<polygon fill="#63b8ff" stroke="#63b8ff" points="1126.29,-21.17 1135.76,-16.42 1125.4,-14.23 1126.29,-21.17"/>
</a>
</g>
</g>
<!-- Node19&#45;&gt;Node7 -->
<g id="edge36_Node000019_Node000007" class="edge">
<title>Node19&#45;&gt;Node7</title>
<g id="a_edge36_Node000019_Node000007"><a xlink:title=" ">
<path fill="none" stroke="#63b8ff" d="M788.88,-120.12C717.1,-111.76 500.22,-86.5 397.54,-74.54"/>
<polygon fill="#63b8ff" stroke="#63b8ff" points="398.03,-71.07 387.69,-73.39 397.22,-78.02 398.03,-71.07"/>
</a>
</g>
</g>
<!-- Node19&#45;&gt;Node17 -->
<g id="edge37_Node000019_Node000017" class="edge">
<title>Node19&#45;&gt;Node17</title>
<g id="a_edge37_Node000019_Node000017"><a xlink:title=" ">
<path fill="none" stroke="#63b8ff" d="M797.14,-113.09C784.42,-104.99 766.11,-93.33 751.32,-83.92"/>
<polygon fill="#63b8ff" stroke="#63b8ff" points="753.34,-81.06 743.03,-78.64 749.59,-86.96 753.34,-81.06"/>
</a>
</g>
</g>
<!-- Node20&#45;&gt;Node4 -->
<g id="edge40_Node000020_Node000004" class="edge">
<title>Node20&#45;&gt;Node4</title>
<g id="a_edge40_Node000020_Node000004"><a xlink:title=" ">
<path fill="none" stroke="#63b8ff" d="M891.12,-116.87C838.85,-108.58 742.43,-92.92 660.51,-77.5 559.46,-58.48 441.03,-33.01 381.24,-19.92"/>
<polygon fill="#63b8ff" stroke="#63b8ff" points="382.09,-16.52 371.57,-17.8 380.59,-23.36 382.09,-16.52"/>
</a>
</g>
</g>
<!-- Node20&#45;&gt;Node11 -->
<g id="edge41_Node000020_Node000011" class="edge">
<title>Node20&#45;&gt;Node11</title>
<g id="a_edge41_Node000020_Node000011"><a xlink:title=" ">
<path fill="none" stroke="#63b8ff" d="M938.45,-113.09C945.28,-105.61 954.87,-95.11 963.07,-86.13"/>
<polygon fill="#63b8ff" stroke="#63b8ff" points="965.47,-88.69 969.63,-78.95 960.3,-83.97 965.47,-88.69"/>
</a>
</g>
</g>
<!-- Node21&#45;&gt;Node3 -->
<g id="edge45_Node000021_Node000003" class="edge">
<title>Node21&#45;&gt;Node3</title>
<g id="a_edge45_Node000021_Node000003"><a xlink:title=" ">
<path fill="none" stroke="#63b8ff" d="M1194.16,-226.75C1173.02,-195.67 1101.47,-97.57 1014.51,-56.75 931.52,-17.79 821.81,-11.25 764.72,-10.75"/>
<polygon fill="#63b8ff" stroke="#63b8ff" points="764.89,-7.25 754.88,-10.73 764.87,-14.25 764.89,-7.25"/>
</a>
</g>
</g>
<!-- Node21&#45;&gt;Node6 -->
<g id="edge50_Node000021_Node000006" class="edge">
<title>Node21&#45;&gt;Node6</title>
<g id="a_edge50_Node000021_Node000006"><a xlink:title=" ">
<path fill="none" stroke="#63b8ff" d="M1231.78,-230.69C1323.41,-212.77 1579.73,-152.86 1496.51,-56.75 1463.84,-19.02 1320.07,-11.97 1238.87,-11.07"/>
<polygon fill="#63b8ff" stroke="#63b8ff" points="1239.38,-7.57 1229.35,-10.99 1239.33,-14.57 1239.38,-7.57"/>
</a>
</g>
</g>
<!-- Node21&#45;&gt;Node11 -->
<g id="edge46_Node000021_Node000011" class="edge">
<title>Node21&#45;&gt;Node11</title>
<g id="a_edge46_Node000021_Node000011"><a xlink:title=" ">
<path fill="none" stroke="#63b8ff" d="M1187.67,-226.6C1151.28,-198.9 1047.14,-119.61 1001.45,-84.83"/>
<polygon fill="#63b8ff" stroke="#63b8ff" points="1003.66,-82.11 993.59,-78.84 999.42,-87.68 1003.66,-82.11"/>
</a>
</g>
</g>
<!-- Node21&#45;&gt;Node16 -->
<g id="edge47_Node000021_Node000016" class="edge">
<title>Node21&#45;&gt;Node16</title>
<g id="a_edge47_Node000021_Node000016"><a xlink:title=" ">
<path fill="none" stroke="#63b8ff" d="M1208.43,-226.74C1225.22,-205.05 1261.04,-151.34 1237.51,-113.5 1228.49,-99 1213.33,-89 1197.88,-82.16"/>
<polygon fill="#63b8ff" stroke="#63b8ff" points="1199.21,-78.92 1188.62,-78.47 1196.62,-85.42 1199.21,-78.92"/>
</a>
</g>
</g>
<!-- Node21&#45;&gt;Node18 -->
<g id="edge48_Node000021_Node000018" class="edge">
<title>Node21&#45;&gt;Node18</title>
<g id="a_edge48_Node000021_Node000018"><a xlink:title=" ">
<path fill="none" stroke="#63b8ff" d="M1173.51,-226.59C1148.46,-217.5 1111.06,-203.94 1083.88,-194.09"/>
<polygon fill="#63b8ff" stroke="#63b8ff" points="1085.31,-190.88 1074.71,-190.76 1082.92,-197.46 1085.31,-190.88"/>
</a>
</g>
</g>
<!-- Node21&#45;&gt;Node19 -->
<g id="edge49_Node000021_Node000019" class="edge">
<title>Node21&#45;&gt;Node19</title>
<g id="a_edge49_Node000021_Node000019"><a xlink:title=" ">
<path fill="none" stroke="#63b8ff" d="M1169.25,-229.32C1132.68,-220.9 1070.4,-206.07 1017.51,-191 957.02,-173.77 887.53,-150.64 846.97,-136.8"/>
<polygon fill="#63b8ff" stroke="#63b8ff" points="848.36,-133.57 837.76,-133.64 846.09,-140.19 848.36,-133.57"/>
</a>
</g>
</g>
<!-- Node22&#45;&gt;Node3 -->
<g id="edge53_Node000022_Node000003" class="edge">
<title>Node22&#45;&gt;Node3</title>
<g id="a_edge53_Node000022_Node000003"><a xlink:title=" ">
<path fill="none" stroke="#63b8ff" d="M736.25,-234.77C584.79,-228.2 91.79,-197.77 4.51,-77.5 -0.91,-70.04 -1.8,-63.47 4.51,-56.75 28.11,-31.62 542.39,-16.22 688.26,-12.34"/>
<polygon fill="#63b8ff" stroke="#63b8ff" points="688.25,-15.84 698.15,-12.08 688.06,-8.85 688.25,-15.84"/>
</a>
</g>
</g>
<!-- Node22&#45;&gt;Node6 -->
<g id="edge73_Node000022_Node000006" class="edge">
<title>Node22&#45;&gt;Node6</title>
<g id="a_edge73_Node000022_Node000006"><a xlink:title=" ">
<path fill="none" stroke="#63b8ff" d="M777.31,-226.53C770.77,-204.42 758.24,-149.89 780.51,-113.5 794.97,-89.87 865.16,-65.3 891.51,-56.75 970.39,-31.16 1066.13,-19.79 1125.7,-14.88"/>
<polygon fill="#63b8ff" stroke="#63b8ff" points="1125.91,-18.38 1135.6,-14.1 1125.36,-11.4 1125.91,-18.38"/>
</a>
</g>
</g>
<!-- Node22&#45;&gt;Node16 -->
<g id="edge54_Node000022_Node000016" class="edge">
<title>Node22&#45;&gt;Node16</title>
<g id="a_edge54_Node000022_Node000016"><a xlink:title=" ">
<path fill="none" stroke="#63b8ff" d="M824.95,-234.53C898.42,-230.68 1041.1,-219.67 1081.51,-191 1116.37,-166.27 1133.67,-116.66 1141,-88.64"/>
<polygon fill="#63b8ff" stroke="#63b8ff" points="1144.32,-89.77 1143.26,-79.23 1137.52,-88.13 1144.32,-89.77"/>
</a>
</g>
</g>
<!-- Node22&#45;&gt;Node18 -->
<g id="edge55_Node000022_Node000018" class="edge">
<title>Node22&#45;&gt;Node18</title>
<g id="a_edge55_Node000022_Node000018"><a xlink:title=" ">
<path fill="none" stroke="#63b8ff" d="M824.93,-227.33C878.14,-216.5 966.17,-198.59 1014.71,-188.71"/>
<polygon fill="#63b8ff" stroke="#63b8ff" points="1015.28,-192.16 1024.38,-186.74 1013.89,-185.3 1015.28,-192.16"/>
</a>
</g>
</g>
<!-- Node22&#45;&gt;Node19 -->
<g id="edge56_Node000022_Node000019" class="edge">
<title>Node22&#45;&gt;Node19</title>
<g id="a_edge56_Node000022_Node000019"><a xlink:title=" ">
<path fill="none" stroke="#63b8ff" d="M783.24,-226.87C788.39,-208.94 799.63,-169.75 806.59,-145.51"/>
<polygon fill="#63b8ff" stroke="#63b8ff" points="809.89,-146.71 809.28,-136.13 803.16,-144.78 809.89,-146.71"/>
</a>
</g>
</g>
<!-- Node23 -->
<g id="Node000023" class="node">
<title>Node23</title>
<g id="a_Node000023"><a xlink:href="../../dc/db7/map_8h.html" target="_top" xlink:title=" ">
<polygon fill="white" stroke="#666666" points="425.39,-191 369.64,-191 369.64,-170.25 425.39,-170.25 425.39,-191"/>
<text text-anchor="middle" x="397.51" y="-177.5" font-family="Helvetica,sans-Serif" font-size="10.00">fl/map.h</text>
</a>
</g>
</g>
<!-- Node22&#45;&gt;Node23 -->
<g id="edge57_Node000022_Node000023" class="edge">
<title>Node22&#45;&gt;Node23</title>
<g id="a_edge57_Node000022_Node000023"><a xlink:title=" ">
<path fill="none" stroke="#63b8ff" d="M736.2,-230.04C660.85,-219.27 508.92,-197.55 436.99,-187.27"/>
<polygon fill="#63b8ff" stroke="#63b8ff" points="437.64,-183.83 427.24,-185.88 436.65,-190.76 437.64,-183.83"/>
</a>
</g>
</g>
<!-- Node29 -->
<g id="Node000029" class="node">
<title>Node29</title>
<g id="a_Node000029"><a xlink:href="../../dc/d0e/fl_2str_8h.html" target="_top" xlink:title=" ">
<polygon fill="#fff0f0" stroke="red" points="733.01,-191 696.01,-191 696.01,-170.25 733.01,-170.25 733.01,-191"/>
<text text-anchor="middle" x="714.51" y="-177.5" font-family="Helvetica,sans-Serif" font-size="10.00">str.h</text>
</a>
</g>
</g>
<!-- Node22&#45;&gt;Node29 -->
<g id="edge66_Node000022_Node000029" class="edge">
<title>Node22&#45;&gt;Node29</title>
<g id="a_edge66_Node000022_Node000029"><a xlink:title=" ">
<path fill="none" stroke="#63b8ff" d="M768.71,-226.59C759.33,-218.8 745.97,-207.72 734.87,-198.51"/>
<polygon fill="#63b8ff" stroke="#63b8ff" points="737.3,-195.99 727.37,-192.29 732.83,-201.37 737.3,-195.99"/>
</a>
</g>
</g>
<!-- Node23&#45;&gt;Node2 -->
<g id="edge61_Node000023_Node000002" class="edge">
<title>Node23&#45;&gt;Node2</title>
<g id="a_edge61_Node000023_Node000002"><a xlink:title=" ">
<path fill="none" stroke="#63b8ff" d="M377.13,-169.84C359.54,-161.39 333.88,-149.07 313.88,-139.46"/>
<polygon fill="#63b8ff" stroke="#63b8ff" points="315.61,-136.41 305.08,-135.23 312.58,-142.72 315.61,-136.41"/>
</a>
</g>
</g>
<!-- Node23&#45;&gt;Node3 -->
<g id="edge58_Node000023_Node000003" class="edge">
<title>Node23&#45;&gt;Node3</title>
<g id="a_edge58_Node000023_Node000003"><a xlink:title=" ">
<path fill="none" stroke="#63b8ff" d="M385.6,-169.85C370.67,-156.42 348.62,-131.82 362.51,-113.5 402.32,-60.98 603.64,-28.02 688.6,-16.25"/>
<polygon fill="#63b8ff" stroke="#63b8ff" points="688.85,-19.74 698.28,-14.93 687.9,-12.81 688.85,-19.74"/>
</a>
</g>
</g>
<!-- Node23&#45;&gt;Node4 -->
<g id="edge59_Node000023_Node000004" class="edge">
<title>Node23&#45;&gt;Node4</title>
<g id="a_edge59_Node000023_Node000004"><a xlink:title=" ">
<path fill="none" stroke="#63b8ff" d="M369.4,-176.85C286.85,-168.04 48.19,-137.69 4.51,-77.5 -0.91,-70.04 -1.56,-63.69 4.51,-56.75 42.97,-12.79 222.91,-9.64 303.41,-10.5"/>
<polygon fill="#63b8ff" stroke="#63b8ff" points="302.98,-14 313.02,-10.64 303.07,-7 302.98,-14"/>
</a>
</g>
</g>
<!-- Node23&#45;&gt;Node6 -->
<g id="edge60_Node000023_Node000006" class="edge">
<title>Node23&#45;&gt;Node6</title>
<g id="a_edge60_Node000023_Node000006"><a xlink:title=" ">
<path fill="none" stroke="#63b8ff" d="M425.31,-169.89C449.26,-161.26 484.59,-147.93 514.51,-134.25 581.32,-103.69 590.06,-77.57 660.51,-56.75 746.43,-31.36 1009.2,-18.18 1125.78,-13.45"/>
<polygon fill="#63b8ff" stroke="#63b8ff" points="1125.89,-16.95 1135.75,-13.05 1125.61,-9.95 1125.89,-16.95"/>
</a>
</g>
</g>
<!-- Node23&#45;&gt;Node8 -->
<g id="edge63_Node000023_Node000008" class="edge">
<title>Node23&#45;&gt;Node8</title>
<g id="a_edge63_Node000023_Node000008"><a xlink:title=" ">
<path fill="none" stroke="#63b8ff" d="M369.34,-171.96C338.16,-163.34 286.48,-148.66 242.51,-134.25 191.41,-117.51 133.11,-95.87 96.56,-81.99"/>
<polygon fill="#63b8ff" stroke="#63b8ff" points="97.96,-78.78 87.37,-78.49 95.46,-85.32 97.96,-78.78"/>
</a>
</g>
</g>
<!-- Node23&#45;&gt;Node17 -->
<g id="edge62_Node000023_Node000017" class="edge">
<title>Node23&#45;&gt;Node17</title>
<g id="a_edge62_Node000023_Node000017"><a xlink:title=" ">
<path fill="none" stroke="#63b8ff" d="M425.73,-174.66C462.96,-167.69 530.23,-153.66 585.51,-134.25 626.23,-119.95 670.98,-97.78 698.91,-83.11"/>
<polygon fill="#63b8ff" stroke="#63b8ff" points="700.22,-86.38 707.41,-78.6 696.94,-80.19 700.22,-86.38"/>
</a>
</g>
</g>
<!-- Node24 -->
<g id="Node000024" class="node">
<title>Node24</title>
<g id="a_Node000024"><a xlink:href="../../d3/d41/pair_8h.html" target="_top" xlink:title=" ">
<polygon fill="white" stroke="#666666" points="423.51,-134.25 371.51,-134.25 371.51,-113.5 423.51,-113.5 423.51,-134.25"/>
<text text-anchor="middle" x="397.51" y="-120.75" font-family="Helvetica,sans-Serif" font-size="10.00">fl/pair.h</text>
</a>
</g>
</g>
<!-- Node23&#45;&gt;Node24 -->
<g id="edge64_Node000023_Node000024" class="edge">
<title>Node23&#45;&gt;Node24</title>
<g id="a_edge64_Node000023_Node000024"><a xlink:title=" ">
<path fill="none" stroke="#63b8ff" d="M397.51,-169.84C397.51,-163.22 397.51,-154.22 397.51,-146.02"/>
<polygon fill="#63b8ff" stroke="#63b8ff" points="401.01,-146.09 397.51,-136.09 394.01,-146.09 401.01,-146.09"/>
</a>
</g>
</g>
<!-- Node25 -->
<g id="Node000025" class="node">
<title>Node25</title>
<g id="a_Node000025"><a xlink:href="../../dc/da7/assert_8h.html" target="_top" xlink:title=" ">
<polygon fill="#fff0f0" stroke="red" points="505.51,-134.25 441.51,-134.25 441.51,-113.5 505.51,-113.5 505.51,-134.25"/>
<text text-anchor="middle" x="473.51" y="-120.75" font-family="Helvetica,sans-Serif" font-size="10.00">fl/assert.h</text>
</a>
</g>
</g>
<!-- Node23&#45;&gt;Node25 -->
<g id="edge65_Node000023_Node000025" class="edge">
<title>Node23&#45;&gt;Node25</title>
<g id="a_edge65_Node000023_Node000025"><a xlink:title=" ">
<path fill="none" stroke="#63b8ff" d="M411.1,-169.84C422.12,-161.9 437.9,-150.53 450.83,-141.21"/>
<polygon fill="#63b8ff" stroke="#63b8ff" points="452.75,-144.15 458.81,-135.46 448.65,-138.47 452.75,-144.15"/>
</a>
</g>
</g>
<!-- Node29&#45;&gt;Node2 -->
<g id="edge71_Node000029_Node000002" class="edge">
<title>Node29&#45;&gt;Node2</title>
<g id="a_edge71_Node000029_Node000002"><a xlink:title=" ">
<path fill="none" stroke="#63b8ff" d="M695.71,-177.24C631.47,-169.08 419.48,-142.15 327.14,-130.42"/>
<polygon fill="#63b8ff" stroke="#63b8ff" points="327.83,-126.98 317.47,-129.19 326.95,-133.92 327.83,-126.98"/>
</a>
</g>
</g>
<!-- Node29&#45;&gt;Node3 -->
<g id="edge68_Node000029_Node000003" class="edge">
<title>Node29&#45;&gt;Node3</title>
<g id="a_edge68_Node000029_Node000003"><a xlink:title=" ">
<path fill="none" stroke="#63b8ff" d="M704.14,-169.85C683.08,-148.76 639.03,-97.58 660.51,-56.75 667.29,-43.87 679.56,-33.93 691.7,-26.69"/>
<polygon fill="#63b8ff" stroke="#63b8ff" points="693.29,-29.81 700.41,-21.96 689.95,-23.65 693.29,-29.81"/>
</a>
</g>
</g>
<!-- Node29&#45;&gt;Node6 -->
<g id="edge72_Node000029_Node000006" class="edge">
<title>Node29&#45;&gt;Node6</title>
<g id="a_edge72_Node000029_Node000006"><a xlink:title=" ">
<path fill="none" stroke="#63b8ff" d="M717.44,-170.15C722.05,-156.41 732.1,-130.7 747.51,-113.5 763.04,-96.17 813.66,-64.76 835.51,-56.75 933.18,-20.94 1055.42,-12.74 1125.68,-11.23"/>
<polygon fill="#63b8ff" stroke="#63b8ff" points="1125.47,-14.73 1135.4,-11.06 1125.34,-7.73 1125.47,-14.73"/>
</a>
</g>
</g>
<!-- Node29&#45;&gt;Node11 -->
<g id="edge67_Node000029_Node000011" class="edge">
<title>Node29&#45;&gt;Node11</title>
<g id="a_edge67_Node000029_Node000011"><a xlink:title=" ">
<path fill="none" stroke="#63b8ff" d="M733.35,-179.29C787.95,-177.89 944.39,-170.7 976.51,-134.25 987.31,-121.99 987.04,-102.95 984.66,-88.44"/>
<polygon fill="#63b8ff" stroke="#63b8ff" points="988.17,-88.12 982.68,-79.05 981.32,-89.56 988.17,-88.12"/>
</a>
</g>
</g>
<!-- Node29&#45;&gt;Node17 -->
<g id="edge70_Node000029_Node000017" class="edge">
<title>Node29&#45;&gt;Node17</title>
<g id="a_edge70_Node000029_Node000017"><a xlink:title=" ">
<path fill="none" stroke="#63b8ff" d="M712.29,-170.13C709.62,-157.22 705.9,-133.44 709.51,-113.5 711.04,-105.03 714.07,-96.09 717.14,-88.4"/>
<polygon fill="#63b8ff" stroke="#63b8ff" points="720.32,-89.88 721.07,-79.31 713.89,-87.11 720.32,-89.88"/>
</a>
</g>
</g>
<!-- Node29&#45;&gt;Node19 -->
<g id="edge69_Node000029_Node000019" class="edge">
<title>Node29&#45;&gt;Node19</title>
<g id="a_edge69_Node000029_Node000019"><a xlink:title=" ">
<path fill="none" stroke="#63b8ff" d="M732.03,-169.84C746.8,-161.58 768.19,-149.63 785.21,-140.13"/>
<polygon fill="#63b8ff" stroke="#63b8ff" points="786.8,-143.25 793.82,-135.32 783.38,-137.14 786.8,-143.25"/>
</a>
</g>
</g>
</g>
</svg>
