<?xml version="1.0" encoding="UTF-8" standalone="no"?>
<!DOCTYPE svg PUBLIC "-//W3C//DTD SVG 1.1//EN"
 "http://www.w3.org/Graphics/SVG/1.1/DTD/svg11.dtd">
<!-- Generated by graphviz version 12.2.1 (20241206.2353)
 -->
<!-- Title: loop Pages: 1 -->
<svg width="635pt" height="647pt"
 viewBox="0.00 0.00 634.50 646.75" xmlns="http://www.w3.org/2000/svg" xmlns:xlink="http://www.w3.org/1999/xlink">
<g id="graph0" class="graph" transform="scale(1 1) rotate(0) translate(4 642.75)">
<title>loop</title>
<!-- Node1 -->
<g id="Node000001" class="node">
<title>Node1</title>
<g id="a_Node000001"><a xlink:title=" ">
<polygon fill="#999999" stroke="#666666" points="37,-556.75 0,-556.75 0,-536 37,-536 37,-556.75"/>
<text text-anchor="middle" x="18.5" y="-543.25" font-family="Helvetica,sans-Serif" font-size="10.00">loop</text>
</a>
</g>
</g>
<!-- Node2 -->
<g id="Node000002" class="node">
<title>Node2</title>
<g id="a_Node000002"><a xlink:href="../../de/db5/classfl_1_1_twinkle_fox.html#a57e332626c55ed1dcd58b8a1e408e688" target="_top" xlink:title=" ">
<polygon fill="white" stroke="#666666" points="218.75,-624.12 73,-624.12 73,-590.62 218.75,-590.62 218.75,-624.12"/>
<text text-anchor="start" x="81" y="-610.62" font-family="Helvetica,sans-Serif" font-size="10.00">fl::TwinkleFox::chooseNext</text>
<text text-anchor="middle" x="145.88" y="-597.88" font-family="Helvetica,sans-Serif" font-size="10.00">ColorPalette</text>
</a>
</g>
</g>
<!-- Node1&#45;&gt;Node2 -->
<g id="edge1_Node000001_Node000002" class="edge">
<title>Node1&#45;&gt;Node2</title>
<g id="a_edge1_Node000001_Node000002"><a xlink:title=" ">
<path fill="none" stroke="#63b8ff" d="M37.46,-555.11C53.58,-562.96 77.93,-574.8 99.37,-585.24"/>
<polygon fill="#63b8ff" stroke="#63b8ff" points="97.73,-588.33 108.26,-589.56 100.79,-582.04 97.73,-588.33"/>
</a>
</g>
</g>
<!-- Node4 -->
<g id="Node000004" class="node">
<title>Node4</title>
<g id="a_Node000004"><a xlink:href="../../de/db5/classfl_1_1_twinkle_fox.html#ab5d3d43b11bed65afbd407071ee85eb8" target="_top" xlink:title=" ">
<polygon fill="white" stroke="#666666" points="201.88,-556.75 89.88,-556.75 89.88,-536 201.88,-536 201.88,-556.75"/>
<text text-anchor="middle" x="145.88" y="-543.25" font-family="Helvetica,sans-Serif" font-size="10.00">fl::TwinkleFox::draw</text>
</a>
</g>
</g>
<!-- Node1&#45;&gt;Node4 -->
<g id="edge3_Node000001_Node000004" class="edge">
<title>Node1&#45;&gt;Node4</title>
<g id="a_edge3_Node000001_Node000004"><a xlink:title=" ">
<path fill="none" stroke="#63b8ff" d="M37.46,-546.38C48.36,-546.38 63.03,-546.38 78.01,-546.38"/>
<polygon fill="#63b8ff" stroke="#63b8ff" points="77.96,-549.88 87.96,-546.38 77.96,-542.88 77.96,-549.88"/>
</a>
</g>
</g>
<!-- Node24 -->
<g id="Node000024" class="node">
<title>Node24</title>
<g id="a_Node000024"><a xlink:href="../../dd/dbb/class_c_fast_l_e_d.html#a83afdd1e2a21f33ac4f8d2610d6e331b" target="_top" xlink:title="Update all our controllers with the current led colors, using the passed in brightness.">
<polygon fill="white" stroke="#666666" points="192.12,-277.75 99.62,-277.75 99.62,-257 192.12,-257 192.12,-277.75"/>
<text text-anchor="middle" x="145.88" y="-264.25" font-family="Helvetica,sans-Serif" font-size="10.00">CFastLED::show</text>
</a>
</g>
</g>
<!-- Node1&#45;&gt;Node24 -->
<g id="edge10_Node000001_Node000024" class="edge">
<title>Node1&#45;&gt;Node24</title>
<g id="a_edge10_Node000001_Node000024"><a xlink:title=" ">
<path fill="none" stroke="#63b8ff" d="M24.26,-535.78C42.8,-494.52 110.38,-344.14 135.44,-288.37"/>
<polygon fill="#63b8ff" stroke="#63b8ff" points="138.58,-289.92 139.49,-279.36 132.2,-287.05 138.58,-289.92"/>
</a>
</g>
</g>
<!-- Node3 -->
<g id="Node000003" class="node">
<title>Node3</title>
<g id="a_Node000003"><a xlink:href="../../d5/d98/group___math.html#ga2bcd51c47538dbc933999382e272a7a7" target="_top" xlink:title="Add two numbers, and calculate the modulo of the sum and a third number, M.">
<polygon fill="white" stroke="#666666" points="375,-626.75 313.25,-626.75 313.25,-606 375,-606 375,-626.75"/>
<text text-anchor="middle" x="344.12" y="-613.25" font-family="Helvetica,sans-Serif" font-size="10.00">addmod8</text>
</a>
</g>
</g>
<!-- Node2&#45;&gt;Node3 -->
<g id="edge2_Node000002_Node000003" class="edge">
<title>Node2&#45;&gt;Node3</title>
<g id="a_edge2_Node000002_Node000003"><a xlink:title=" ">
<path fill="none" stroke="#63b8ff" d="M219.12,-610.69C246.79,-611.96 277.42,-613.36 301.32,-614.46"/>
<polygon fill="#63b8ff" stroke="#63b8ff" points="301.15,-617.95 311.3,-614.92 301.47,-610.96 301.15,-617.95"/>
</a>
</g>
</g>
<!-- Node5 -->
<g id="Node000005" class="node">
<title>Node5</title>
<g id="a_Node000005"><a xlink:href="../../de/db5/classfl_1_1_twinkle_fox.html#a67375829d0da55e17d3f74ac9817914d" target="_top" xlink:title=" ">
<polygon fill="white" stroke="#666666" points="427.12,-548.75 261.12,-548.75 261.12,-528 427.12,-528 427.12,-548.75"/>
<text text-anchor="middle" x="344.12" y="-535.25" font-family="Helvetica,sans-Serif" font-size="10.00">fl::TwinkleFox::drawTwinkleFox</text>
</a>
</g>
</g>
<!-- Node4&#45;&gt;Node5 -->
<g id="edge4_Node000004_Node000005" class="edge">
<title>Node4&#45;&gt;Node5</title>
<g id="a_edge4_Node000004_Node000005"><a xlink:title=" ">
<path fill="none" stroke="#63b8ff" d="M202.33,-544.11C217.06,-543.51 233.39,-542.85 249.55,-542.19"/>
<polygon fill="#63b8ff" stroke="#63b8ff" points="249.34,-545.7 259.18,-541.8 249.05,-538.71 249.34,-545.7"/>
</a>
</g>
</g>
<!-- Node23 -->
<g id="Node000023" class="node">
<title>Node23</title>
<g id="a_Node000023"><a xlink:href="../../d2/d73/group___palette_colors.html#ga361799a4ba193694ad974079c980430c" target="_top" xlink:title="Alter one palette by making it slightly more like a &quot;target palette&quot;.">
<polygon fill="white" stroke="#666666" points="419.62,-587.75 268.62,-587.75 268.62,-567 419.62,-567 419.62,-587.75"/>
<text text-anchor="middle" x="344.12" y="-574.25" font-family="Helvetica,sans-Serif" font-size="10.00">nblendPaletteTowardPalette</text>
</a>
</g>
</g>
<!-- Node4&#45;&gt;Node23 -->
<g id="edge9_Node000004_Node000023" class="edge">
<title>Node4&#45;&gt;Node23</title>
<g id="a_edge9_Node000004_Node000023"><a xlink:title=" ">
<path fill="none" stroke="#63b8ff" d="M202.33,-555.13C221.26,-558.13 242.83,-561.53 263.3,-564.77"/>
<polygon fill="#63b8ff" stroke="#63b8ff" points="262.61,-568.2 273.04,-566.3 263.71,-561.29 262.61,-568.2"/>
</a>
</g>
</g>
<!-- Node6 -->
<g id="Node000006" class="node">
<title>Node6</title>
<g id="a_Node000006"><a xlink:href="../../dc/db8/group___color_blends.html#ga4f06b4423f71f77346aaf5dabe7dd05c" target="_top" xlink:title="Computes a new color blended some fraction of the way between two other colors.">
<polygon fill="#fff0f0" stroke="red" points="569.5,-638.75 526.5,-638.75 526.5,-618 569.5,-618 569.5,-638.75"/>
<text text-anchor="middle" x="548" y="-625.25" font-family="Helvetica,sans-Serif" font-size="10.00">blend</text>
</a>
</g>
</g>
<!-- Node5&#45;&gt;Node6 -->
<g id="edge5_Node000005_Node000006" class="edge">
<title>Node5&#45;&gt;Node6</title>
<g id="a_edge5_Node000005_Node000006"><a xlink:title=" ">
<path fill="none" stroke="#63b8ff" d="M415.63,-549.24C421.94,-551.7 428.01,-554.7 433.5,-558.38 456.56,-573.8 446.57,-593.75 469.5,-609.38 482.87,-618.49 500.17,-623.24 515.03,-625.71"/>
<polygon fill="#63b8ff" stroke="#63b8ff" points="514.42,-629.16 524.8,-627.04 515.37,-622.23 514.42,-629.16"/>
</a>
</g>
</g>
<!-- Node11 -->
<g id="Node000011" class="node">
<title>Node11</title>
<g id="a_Node000011"><a xlink:href="../../de/db5/classfl_1_1_twinkle_fox.html#a39614750a1a87e8a8be19c36f6c48677" target="_top" xlink:title=" ">
<polygon fill="#fff0f0" stroke="red" points="623.12,-600.12 472.88,-600.12 472.88,-566.62 623.12,-566.62 623.12,-600.12"/>
<text text-anchor="start" x="480.88" y="-586.62" font-family="Helvetica,sans-Serif" font-size="10.00">fl::TwinkleFox::computeOne</text>
<text text-anchor="middle" x="548" y="-573.88" font-family="Helvetica,sans-Serif" font-size="10.00">Twinkle</text>
</a>
</g>
</g>
<!-- Node5&#45;&gt;Node11 -->
<g id="edge6_Node000005_Node000011" class="edge">
<title>Node5&#45;&gt;Node11</title>
<g id="a_edge6_Node000005_Node000011"><a xlink:title=" ">
<path fill="none" stroke="#63b8ff" d="M393.74,-549.21C413.99,-553.73 438.13,-559.11 461.19,-564.25"/>
<polygon fill="#63b8ff" stroke="#63b8ff" points="460.4,-567.66 470.92,-566.42 461.92,-560.82 460.4,-567.66"/>
</a>
</g>
</g>
<!-- Node19 -->
<g id="Node000019" class="node">
<title>Node19</title>
<g id="a_Node000019"><a xlink:href="../../db/d87/group___pixel_types.html#a940908cc69606bdabe3b2d32a9097356" target="_top" xlink:title="Get the average of the R, G, and B values.">
<polygon fill="#fff0f0" stroke="red" points="612.62,-548.75 483.38,-548.75 483.38,-528 612.62,-528 612.62,-548.75"/>
<text text-anchor="middle" x="548" y="-535.25" font-family="Helvetica,sans-Serif" font-size="10.00">CRGB::getAverageLight</text>
</a>
</g>
</g>
<!-- Node5&#45;&gt;Node19 -->
<g id="edge7_Node000005_Node000019" class="edge">
<title>Node5&#45;&gt;Node19</title>
<g id="a_edge7_Node000005_Node000019"><a xlink:title=" ">
<path fill="none" stroke="#63b8ff" d="M427.53,-538.38C442.15,-538.38 457.31,-538.38 471.73,-538.38"/>
<polygon fill="#63b8ff" stroke="#63b8ff" points="471.59,-541.88 481.59,-538.38 471.59,-534.88 471.59,-541.88"/>
</a>
</g>
</g>
<!-- Node20 -->
<g id="Node000020" class="node">
<title>Node20</title>
<g id="a_Node000020"><a xlink:href="../../db/d87/group___pixel_types.html#a0441d6094ab8f98d800ec789c36b4461" target="_top" xlink:title="Scale down a RGB to N/256ths of it&#39;s current brightness using &quot;video&quot; dimming rules.">
<polygon fill="#fff0f0" stroke="red" points="607.75,-509.75 488.25,-509.75 488.25,-489 607.75,-489 607.75,-509.75"/>
<text text-anchor="middle" x="548" y="-496.25" font-family="Helvetica,sans-Serif" font-size="10.00">CRGB::nscale8_video</text>
</a>
</g>
</g>
<!-- Node5&#45;&gt;Node20 -->
<g id="edge8_Node000005_Node000020" class="edge">
<title>Node5&#45;&gt;Node20</title>
<g id="a_edge8_Node000005_Node000020"><a xlink:title=" ">
<path fill="none" stroke="#63b8ff" d="M401.36,-527.51C425.65,-522.82 454.26,-517.29 479.67,-512.38"/>
<polygon fill="#63b8ff" stroke="#63b8ff" points="480.08,-515.87 489.23,-510.54 478.75,-509 480.08,-515.87"/>
</a>
</g>
</g>
<!-- Node25 -->
<g id="Node000025" class="node">
<title>Node25</title>
<g id="a_Node000025"><a xlink:href="../../d6/d2c/class_c_l_e_d_controller.html#af9962ef739bdb3b590ee66f3780765d6" target="_top" xlink:title=" ">
<polygon fill="white" stroke="#666666" points="429.75,-470.75 258.5,-470.75 258.5,-450 429.75,-450 429.75,-470.75"/>
<text text-anchor="middle" x="344.12" y="-457.25" font-family="Helvetica,sans-Serif" font-size="10.00">CLEDController::beginShowLeds</text>
</a>
</g>
</g>
<!-- Node24&#45;&gt;Node25 -->
<g id="edge11_Node000024_Node000025" class="edge">
<title>Node24&#45;&gt;Node25</title>
<g id="a_edge11_Node000024_Node000025"><a xlink:title=" ">
<path fill="none" stroke="#63b8ff" d="M150.52,-278.02C161.33,-307.91 196.14,-393.28 254.75,-436.38 259.43,-439.82 264.58,-442.77 269.97,-445.29"/>
<polygon fill="#63b8ff" stroke="#63b8ff" points="268.57,-448.51 279.15,-449.07 271.24,-442.03 268.57,-448.51"/>
</a>
</g>
</g>
<!-- Node27 -->
<g id="Node000027" class="node">
<title>Node27</title>
<g id="a_Node000027"><a xlink:href="../../d6/d2c/class_c_l_e_d_controller.html#a63f75cf7e55cf8da46db5fd27110bb3e" target="_top" xlink:title="How many LEDs does this controller manage?">
<polygon fill="white" stroke="#666666" points="605.5,-431.75 490.5,-431.75 490.5,-411 605.5,-411 605.5,-431.75"/>
<text text-anchor="middle" x="548" y="-418.25" font-family="Helvetica,sans-Serif" font-size="10.00">CLEDController::size</text>
</a>
</g>
</g>
<!-- Node24&#45;&gt;Node27 -->
<g id="edge32_Node000024_Node000027" class="edge">
<title>Node24&#45;&gt;Node27</title>
<g id="a_edge32_Node000024_Node000027"><a xlink:title=" ">
<path fill="none" stroke="#63b8ff" d="M151.49,-278.01C163.75,-304.78 199.98,-374.8 254.75,-403.38 324.54,-439.79 416.84,-438.73 478.88,-432.22"/>
<polygon fill="#63b8ff" stroke="#63b8ff" points="479.05,-435.72 488.59,-431.11 478.26,-428.76 479.05,-435.72"/>
</a>
</g>
</g>
<!-- Node28 -->
<g id="Node000028" class="node">
<title>Node28</title>
<g id="a_Node000028"><a xlink:href="../../dd/dbb/class_c_fast_l_e_d.html#a61d27e179c9b68bde89d220aebc0de32" target="_top" xlink:title="For debugging, this will keep track of time between calls to countFPS().">
<polygon fill="white" stroke="#666666" points="400.12,-20.75 288.12,-20.75 288.12,0 400.12,0 400.12,-20.75"/>
<text text-anchor="middle" x="344.12" y="-7.25" font-family="Helvetica,sans-Serif" font-size="10.00">CFastLED::countFPS</text>
</a>
</g>
</g>
<!-- Node24&#45;&gt;Node28 -->
<g id="edge14_Node000024_Node000028" class="edge">
<title>Node24&#45;&gt;Node28</title>
<g id="a_edge14_Node000024_Node000028"><a xlink:title=" ">
<path fill="none" stroke="#63b8ff" d="M148.56,-256.64C154.96,-219.66 181.18,-96.49 254.75,-34.38 261.25,-28.88 268.9,-24.64 276.93,-21.36"/>
<polygon fill="#63b8ff" stroke="#63b8ff" points="277.95,-24.71 286.22,-18.09 275.62,-18.11 277.95,-24.71"/>
</a>
</g>
</g>
<!-- Node29 -->
<g id="Node000029" class="node">
<title>Node29</title>
<g id="a_Node000029"><a xlink:href="../../d6/d2c/class_c_l_e_d_controller.html#a49b221af013bf196c2068e2cbd1c299d" target="_top" xlink:title=" ">
<polygon fill="white" stroke="#666666" points="425.25,-96.75 263,-96.75 263,-76 425.25,-76 425.25,-96.75"/>
<text text-anchor="middle" x="344.12" y="-83.25" font-family="Helvetica,sans-Serif" font-size="10.00">CLEDController::endShowLeds</text>
</a>
</g>
</g>
<!-- Node24&#45;&gt;Node29 -->
<g id="edge15_Node000024_Node000029" class="edge">
<title>Node24&#45;&gt;Node29</title>
<g id="a_edge15_Node000024_Node000029"><a xlink:title=" ">
<path fill="none" stroke="#63b8ff" d="M150.7,-256.6C161.75,-227.15 196.65,-144.92 254.75,-105.38 256.55,-104.15 258.41,-103 260.33,-101.93"/>
<polygon fill="#63b8ff" stroke="#63b8ff" points="261.44,-105.28 268.93,-97.78 258.4,-98.97 261.44,-105.28"/>
</a>
</g>
</g>
<!-- Node30 -->
<g id="Node000030" class="node">
<title>Node30</title>
<g id="a_Node000030"><a xlink:href="../../d6/d2c/class_c_l_e_d_controller.html#a2a231accbeb00e6a6080a7e55274a279" target="_top" xlink:title="Set the dithering mode for this controller to use.">
<polygon fill="white" stroke="#666666" points="618.25,-77.75 477.75,-77.75 477.75,-57 618.25,-57 618.25,-77.75"/>
<text text-anchor="middle" x="548" y="-64.25" font-family="Helvetica,sans-Serif" font-size="10.00">CLEDController::setDither</text>
</a>
</g>
</g>
<!-- Node24&#45;&gt;Node30 -->
<g id="edge29_Node000024_Node000030" class="edge">
<title>Node24&#45;&gt;Node30</title>
<g id="a_edge29_Node000024_Node000030"><a xlink:title=" ">
<path fill="none" stroke="#63b8ff" d="M148.69,-256.97C155.33,-222.37 181.92,-110.84 254.75,-67.38 331.04,-21.84 439.69,-38.6 500.75,-53.73"/>
<polygon fill="#63b8ff" stroke="#63b8ff" points="499.55,-57.04 510.11,-56.15 501.3,-50.26 499.55,-57.04"/>
</a>
</g>
</g>
<!-- Node31 -->
<g id="Node000031" class="node">
<title>Node31</title>
<g id="a_Node000031"><a xlink:href="../../d6/d2c/class_c_l_e_d_controller.html#a6bd253f670640ea4d1bd0d71b8029f2a" target="_top" xlink:title=" ">
<polygon fill="white" stroke="#666666" points="419.25,-394.75 269,-394.75 269,-374 419.25,-374 419.25,-394.75"/>
<text text-anchor="middle" x="344.12" y="-381.25" font-family="Helvetica,sans-Serif" font-size="10.00">CLEDController::getEnabled</text>
</a>
</g>
</g>
<!-- Node24&#45;&gt;Node31 -->
<g id="edge17_Node000024_Node000031" class="edge">
<title>Node24&#45;&gt;Node31</title>
<g id="a_edge17_Node000024_Node000031"><a xlink:title=" ">
<path fill="none" stroke="#63b8ff" d="M155.41,-278.05C172.19,-298.25 211.58,-342.04 254.75,-364.38 258.65,-366.39 262.74,-368.21 266.95,-369.84"/>
<polygon fill="#63b8ff" stroke="#63b8ff" points="265.56,-373.06 276.15,-373.04 267.86,-366.45 265.56,-373.06"/>
</a>
</g>
</g>
<!-- Node32 -->
<g id="Node000032" class="node">
<title>Node32</title>
<g id="a_Node000032"><a xlink:href="../../d6/d2c/class_c_l_e_d_controller.html#a8b412ff1fd4833d0db63a175d40a2ee0" target="_top" xlink:title="Get the first LED controller in the linked list of controllers.">
<polygon fill="white" stroke="#666666" points="403.88,-355.75 284.38,-355.75 284.38,-335 403.88,-335 403.88,-355.75"/>
<text text-anchor="middle" x="344.12" y="-342.25" font-family="Helvetica,sans-Serif" font-size="10.00">CLEDController::head</text>
</a>
</g>
</g>
<!-- Node24&#45;&gt;Node32 -->
<g id="edge18_Node000024_Node000032" class="edge">
<title>Node24&#45;&gt;Node32</title>
<g id="a_edge18_Node000024_Node000032"><a xlink:title=" ">
<path fill="none" stroke="#63b8ff" d="M163.39,-278.1C184,-291.04 220.69,-312.64 254.75,-325.38 260.89,-327.67 267.36,-329.75 273.91,-331.62"/>
<polygon fill="#63b8ff" stroke="#63b8ff" points="272.92,-334.97 283.48,-334.18 274.73,-328.21 272.92,-334.97"/>
</a>
</g>
</g>
<!-- Node33 -->
<g id="Node000033" class="node">
<title>Node33</title>
<g id="a_Node000033"><a xlink:href="../../d6/d2c/class_c_l_e_d_controller.html#a21a4d2b3415dd7b24175ebdb51c9ced0" target="_top" xlink:title="Get the next controller in the linked list after this one.">
<polygon fill="white" stroke="#666666" points="402.75,-316.75 285.5,-316.75 285.5,-296 402.75,-296 402.75,-316.75"/>
<text text-anchor="middle" x="344.12" y="-303.25" font-family="Helvetica,sans-Serif" font-size="10.00">CLEDController::next</text>
</a>
</g>
</g>
<!-- Node24&#45;&gt;Node33 -->
<g id="edge19_Node000024_Node000033" class="edge">
<title>Node24&#45;&gt;Node33</title>
<g id="a_edge19_Node000024_Node000033"><a xlink:title=" ">
<path fill="none" stroke="#63b8ff" d="M192.39,-276.42C217.57,-281.42 249.31,-287.73 277.16,-293.27"/>
<polygon fill="#63b8ff" stroke="#63b8ff" points="276.45,-296.69 286.94,-295.21 277.82,-289.83 276.45,-296.69"/>
</a>
</g>
</g>
<!-- Node34 -->
<g id="Node000034" class="node">
<title>Node34</title>
<g id="a_Node000034"><a xlink:href="../../de/dca/classfl_1_1_engine_events.html#a7147debfba714b8ab0925af1a7c935c0" target="_top" xlink:title=" ">
<polygon fill="white" stroke="#666666" points="414,-200.12 274.25,-200.12 274.25,-166.62 414,-166.62 414,-200.12"/>
<text text-anchor="start" x="282.25" y="-186.62" font-family="Helvetica,sans-Serif" font-size="10.00">fl::EngineEvents::onBegin</text>
<text text-anchor="middle" x="344.12" y="-173.88" font-family="Helvetica,sans-Serif" font-size="10.00">Frame</text>
</a>
</g>
</g>
<!-- Node24&#45;&gt;Node34 -->
<g id="edge20_Node000024_Node000034" class="edge">
<title>Node24&#45;&gt;Node34</title>
<g id="a_edge20_Node000024_Node000034"><a xlink:title=" ">
<path fill="none" stroke="#63b8ff" d="M164.27,-256.56C185.14,-243.93 221.51,-223.03 254.75,-209.38 259.08,-207.6 263.57,-205.89 268.13,-204.25"/>
<polygon fill="#63b8ff" stroke="#63b8ff" points="269.11,-207.62 277.43,-201.06 266.84,-201 269.11,-207.62"/>
</a>
</g>
</g>
<!-- Node38 -->
<g id="Node000038" class="node">
<title>Node38</title>
<g id="a_Node000038"><a xlink:href="../../de/dca/classfl_1_1_engine_events.html#ab7d24c4783214392de84947cd7df5570" target="_top" xlink:title=" ">
<polygon fill="white" stroke="#666666" points="424.5,-277.75 263.75,-277.75 263.75,-257 424.5,-257 424.5,-277.75"/>
<text text-anchor="middle" x="344.12" y="-264.25" font-family="Helvetica,sans-Serif" font-size="10.00">fl::EngineEvents::onEndFrame</text>
</a>
</g>
</g>
<!-- Node24&#45;&gt;Node38 -->
<g id="edge23_Node000024_Node000038" class="edge">
<title>Node24&#45;&gt;Node38</title>
<g id="a_edge23_Node000024_Node000038"><a xlink:title=" ">
<path fill="none" stroke="#63b8ff" d="M192.39,-267.38C210.26,-267.38 231.43,-267.38 252.17,-267.38"/>
<polygon fill="#63b8ff" stroke="#63b8ff" points="252.11,-270.88 262.11,-267.38 252.11,-263.88 252.11,-270.88"/>
</a>
</g>
</g>
<!-- Node40 -->
<g id="Node000040" class="node">
<title>Node40</title>
<g id="a_Node000040"><a xlink:href="../../de/dca/classfl_1_1_engine_events.html#af1bb9a46fdc6694a1b5c87a49c516ae8" target="_top" xlink:title=" ">
<polygon fill="white" stroke="#666666" points="433.5,-238.75 254.75,-238.75 254.75,-218 433.5,-218 433.5,-238.75"/>
<text text-anchor="middle" x="344.12" y="-225.25" font-family="Helvetica,sans-Serif" font-size="10.00">fl::EngineEvents::onEndShowLeds</text>
</a>
</g>
</g>
<!-- Node24&#45;&gt;Node40 -->
<g id="edge26_Node000024_Node000040" class="edge">
<title>Node24&#45;&gt;Node40</title>
<g id="a_edge26_Node000024_Node000040"><a xlink:title=" ">
<path fill="none" stroke="#63b8ff" d="M192.39,-258.33C217.57,-253.33 249.31,-247.02 277.16,-241.48"/>
<polygon fill="#63b8ff" stroke="#63b8ff" points="277.82,-244.92 286.94,-239.54 276.45,-238.06 277.82,-244.92"/>
</a>
</g>
</g>
<!-- Node42 -->
<g id="Node000042" class="node">
<title>Node42</title>
<g id="a_Node000042"><a xlink:href="../../d6/d2c/class_c_l_e_d_controller.html#ac5355e980ac13d9ae97561f183f73990" target="_top" xlink:title="Write the data to the LEDs managed by this controller.">
<polygon fill="white" stroke="#666666" points="415.88,-148.12 272.38,-148.12 272.38,-114.62 415.88,-114.62 415.88,-148.12"/>
<text text-anchor="start" x="280.38" y="-134.62" font-family="Helvetica,sans-Serif" font-size="10.00">CLEDController::showLeds</text>
<text text-anchor="middle" x="344.12" y="-121.88" font-family="Helvetica,sans-Serif" font-size="10.00">Internal</text>
</a>
</g>
</g>
<!-- Node24&#45;&gt;Node42 -->
<g id="edge30_Node000024_Node000042" class="edge">
<title>Node24&#45;&gt;Node42</title>
<g id="a_edge30_Node000024_Node000042"><a xlink:title=" ">
<path fill="none" stroke="#63b8ff" d="M154.47,-256.53C170.45,-234.5 209.8,-184.36 254.75,-157.38 257.21,-155.9 259.76,-154.5 262.37,-153.18"/>
<polygon fill="#63b8ff" stroke="#63b8ff" points="263.71,-156.42 271.34,-149.08 260.79,-150.05 263.71,-156.42"/>
</a>
</g>
</g>
<!-- Node26 -->
<g id="Node000026" class="node">
<title>Node26</title>
<g id="a_Node000026"><a xlink:href="../../d6/d2c/class_c_l_e_d_controller.html#a676f705adf93898739a405b85150a3e7" target="_top" xlink:title="Get the dithering option currently set for this controller.">
<polygon fill="white" stroke="#666666" points="618.62,-470.75 477.38,-470.75 477.38,-450 618.62,-450 618.62,-470.75"/>
<text text-anchor="middle" x="548" y="-457.25" font-family="Helvetica,sans-Serif" font-size="10.00">CLEDController::getDither</text>
</a>
</g>
</g>
<!-- Node25&#45;&gt;Node26 -->
<g id="edge12_Node000025_Node000026" class="edge">
<title>Node25&#45;&gt;Node26</title>
<g id="a_edge12_Node000025_Node000026"><a xlink:title=" ">
<path fill="none" stroke="#63b8ff" d="M430.15,-460.38C441.87,-460.38 453.88,-460.38 465.54,-460.38"/>
<polygon fill="#63b8ff" stroke="#63b8ff" points="465.53,-463.88 475.53,-460.38 465.53,-456.88 465.53,-463.88"/>
</a>
</g>
</g>
<!-- Node25&#45;&gt;Node27 -->
<g id="edge13_Node000025_Node000027" class="edge">
<title>Node25&#45;&gt;Node27</title>
<g id="a_edge13_Node000025_Node000027"><a xlink:title=" ">
<path fill="none" stroke="#63b8ff" d="M401.36,-449.51C425.65,-444.82 454.26,-439.29 479.67,-434.38"/>
<polygon fill="#63b8ff" stroke="#63b8ff" points="480.08,-437.87 489.23,-432.54 478.75,-431 480.08,-437.87"/>
</a>
</g>
</g>
<!-- Node29&#45;&gt;Node30 -->
<g id="edge16_Node000029_Node000030" class="edge">
<title>Node29&#45;&gt;Node30</title>
<g id="a_edge16_Node000029_Node000030"><a xlink:title=" ">
<path fill="none" stroke="#63b8ff" d="M425.49,-78.81C438.89,-77.55 452.8,-76.24 466.21,-74.98"/>
<polygon fill="#63b8ff" stroke="#63b8ff" points="466.2,-78.5 475.83,-74.07 465.55,-71.53 466.2,-78.5"/>
</a>
</g>
</g>
<!-- Node35 -->
<g id="Node000035" class="node">
<title>Node35</title>
<g id="a_Node000035"><a xlink:href="../../de/dca/classfl_1_1_engine_events.html#a9dfab83407c4cb0c15065e242d49de62" target="_top" xlink:title=" ">
<polygon fill="white" stroke="#666666" points="598,-187.12 498,-187.12 498,-153.62 598,-153.62 598,-187.12"/>
<text text-anchor="start" x="506" y="-173.62" font-family="Helvetica,sans-Serif" font-size="10.00">fl::EngineEvents::</text>
<text text-anchor="middle" x="548" y="-160.88" font-family="Helvetica,sans-Serif" font-size="10.00">_onBeginFrame</text>
</a>
</g>
</g>
<!-- Node34&#45;&gt;Node35 -->
<g id="edge21_Node000034_Node000035" class="edge">
<title>Node34&#45;&gt;Node35</title>
<g id="a_edge21_Node000034_Node000035"><a xlink:title=" ">
<path fill="none" stroke="#63b8ff" d="M414.32,-178.92C437.75,-177.41 463.73,-175.74 486.44,-174.28"/>
<polygon fill="#63b8ff" stroke="#63b8ff" points="486.38,-177.79 496.13,-173.65 485.93,-170.8 486.38,-177.79"/>
</a>
</g>
</g>
<!-- Node36 -->
<g id="Node000036" class="node">
<title>Node36</title>
<g id="a_Node000036"><a xlink:href="../../de/dca/classfl_1_1_engine_events.html#a34a4625c4fbcf754f70820bc4f0e418b" target="_top" xlink:title=" ">
<polygon fill="#fff0f0" stroke="red" points="626.5,-277.75 469.5,-277.75 469.5,-257 626.5,-257 626.5,-277.75"/>
<text text-anchor="middle" x="548" y="-264.25" font-family="Helvetica,sans-Serif" font-size="10.00">fl::EngineEvents::getInstance</text>
</a>
</g>
</g>
<!-- Node34&#45;&gt;Node36 -->
<g id="edge22_Node000034_Node000036" class="edge">
<title>Node34&#45;&gt;Node36</title>
<g id="a_edge22_Node000034_Node000036"><a xlink:title=" ">
<path fill="none" stroke="#63b8ff" d="M414.27,-199.7C420.99,-202.46 427.52,-205.66 433.5,-209.38 453.54,-221.82 449.18,-236.39 469.5,-248.38 471.82,-249.74 474.23,-251.01 476.7,-252.19"/>
<polygon fill="#63b8ff" stroke="#63b8ff" points="475.21,-255.36 485.79,-255.95 477.89,-248.89 475.21,-255.36"/>
</a>
</g>
</g>
<!-- Node38&#45;&gt;Node36 -->
<g id="edge25_Node000038_Node000036" class="edge">
<title>Node38&#45;&gt;Node36</title>
<g id="a_edge25_Node000038_Node000036"><a xlink:title=" ">
<path fill="none" stroke="#63b8ff" d="M424.91,-267.38C435.71,-267.38 446.84,-267.38 457.79,-267.38"/>
<polygon fill="#63b8ff" stroke="#63b8ff" points="457.6,-270.88 467.6,-267.38 457.6,-263.88 457.6,-270.88"/>
</a>
</g>
</g>
<!-- Node39 -->
<g id="Node000039" class="node">
<title>Node39</title>
<g id="a_Node000039"><a xlink:href="../../de/dca/classfl_1_1_engine_events.html#a643d9a8597b79d76daed94c29845e886" target="_top" xlink:title=" ">
<polygon fill="white" stroke="#666666" points="598,-329.12 498,-329.12 498,-295.62 598,-295.62 598,-329.12"/>
<text text-anchor="start" x="506" y="-315.62" font-family="Helvetica,sans-Serif" font-size="10.00">fl::EngineEvents::</text>
<text text-anchor="middle" x="548" y="-302.88" font-family="Helvetica,sans-Serif" font-size="10.00">_onEndFrame</text>
</a>
</g>
</g>
<!-- Node38&#45;&gt;Node39 -->
<g id="edge24_Node000038_Node000039" class="edge">
<title>Node38&#45;&gt;Node39</title>
<g id="a_edge24_Node000038_Node000039"><a xlink:title=" ">
<path fill="none" stroke="#63b8ff" d="M393.74,-278.21C421.67,-284.44 456.99,-292.31 486.68,-298.93"/>
<polygon fill="#63b8ff" stroke="#63b8ff" points="485.76,-302.31 496.28,-301.07 487.28,-295.48 485.76,-302.31"/>
</a>
</g>
</g>
<!-- Node40&#45;&gt;Node36 -->
<g id="edge28_Node000040_Node000036" class="edge">
<title>Node40&#45;&gt;Node36</title>
<g id="a_edge28_Node000040_Node000036"><a xlink:title=" ">
<path fill="none" stroke="#63b8ff" d="M401.36,-239.24C425.65,-243.93 454.26,-249.46 479.67,-254.37"/>
<polygon fill="#63b8ff" stroke="#63b8ff" points="478.75,-257.75 489.23,-256.21 480.08,-250.88 478.75,-257.75"/>
</a>
</g>
</g>
<!-- Node41 -->
<g id="Node000041" class="node">
<title>Node41</title>
<g id="a_Node000041"><a xlink:href="../../de/dca/classfl_1_1_engine_events.html#ae6b4037ab7b73bf0d69e07c4956f9450" target="_top" xlink:title=" ">
<polygon fill="white" stroke="#666666" points="598,-239.12 498,-239.12 498,-205.62 598,-205.62 598,-239.12"/>
<text text-anchor="start" x="506" y="-225.62" font-family="Helvetica,sans-Serif" font-size="10.00">fl::EngineEvents::</text>
<text text-anchor="middle" x="548" y="-212.88" font-family="Helvetica,sans-Serif" font-size="10.00">_onEndShowLeds</text>
</a>
</g>
</g>
<!-- Node40&#45;&gt;Node41 -->
<g id="edge27_Node000040_Node000041" class="edge">
<title>Node40&#45;&gt;Node41</title>
<g id="a_edge27_Node000040_Node000041"><a xlink:title=" ">
<path fill="none" stroke="#63b8ff" d="M433.96,-225.73C451.76,-225.21 470.06,-224.66 486.61,-224.17"/>
<polygon fill="#63b8ff" stroke="#63b8ff" points="486.36,-227.68 496.25,-223.88 486.15,-220.68 486.36,-227.68"/>
</a>
</g>
</g>
<!-- Node43 -->
<g id="Node000043" class="node">
<title>Node43</title>
<g id="a_Node000043"><a xlink:href="../../d6/d2c/class_c_l_e_d_controller.html#afc8fb063666d03527aabc86d8531e007" target="_top" xlink:title="Write the passed in RGB data out to the LEDs managed by this controller.">
<polygon fill="white" stroke="#666666" points="608.5,-135.75 487.5,-135.75 487.5,-115 608.5,-115 608.5,-135.75"/>
<text text-anchor="middle" x="548" y="-122.25" font-family="Helvetica,sans-Serif" font-size="10.00">CLEDController::show</text>
</a>
</g>
</g>
<!-- Node42&#45;&gt;Node43 -->
<g id="edge31_Node000042_Node000043" class="edge">
<title>Node42&#45;&gt;Node43</title>
<g id="a_edge31_Node000042_Node000043"><a xlink:title=" ">
<path fill="none" stroke="#63b8ff" d="M416.3,-129.26C435.57,-128.69 456.42,-128.07 475.7,-127.49"/>
<polygon fill="#63b8ff" stroke="#63b8ff" points="475.75,-130.99 485.64,-127.2 475.54,-124 475.75,-130.99"/>
</a>
</g>
</g>
</g>
</svg>
