<?xml version="1.0" encoding="UTF-8" standalone="no"?>
<!DOCTYPE svg PUBLIC "-//W3C//DTD SVG 1.1//EN"
 "http://www.w3.org/Graphics/SVG/1.1/DTD/svg11.dtd">
<!-- Generated by graphviz version 12.2.1 (20241206.2353)
 -->
<!-- Title: setup Pages: 1 -->
<svg width="674pt" height="248pt"
 viewBox="0.00 0.00 674.25 248.12" xmlns="http://www.w3.org/2000/svg" xmlns:xlink="http://www.w3.org/1999/xlink">
<g id="graph0" class="graph" transform="scale(1 1) rotate(0) translate(4 244.12)">
<title>setup</title>
<!-- Node1 -->
<g id="Node000001" class="node">
<title>Node1</title>
<g id="a_Node000001"><a xlink:title=" ">
<polygon fill="#999999" stroke="#666666" points="43,-69.12 0,-69.12 0,-48.38 43,-48.38 43,-69.12"/>
<text text-anchor="middle" x="21.5" y="-55.62" font-family="Helvetica,sans-Serif" font-size="10.00">setup</text>
</a>
</g>
</g>
<!-- Node2 -->
<g id="Node000002" class="node">
<title>Node2</title>
<g id="a_Node000002"><a xlink:href="../../dd/dbb/class_c_fast_l_e_d.html#afd7928d822589740af6e23b2d510cf3f" target="_top" xlink:title="Add a CLEDController instance to the world.">
<polygon fill="white" stroke="#666666" points="215.75,-133.12 108.25,-133.12 108.25,-112.38 215.75,-112.38 215.75,-133.12"/>
<text text-anchor="middle" x="162" y="-119.62" font-family="Helvetica,sans-Serif" font-size="10.00">CFastLED::addLeds</text>
</a>
</g>
</g>
<!-- Node1&#45;&gt;Node2 -->
<g id="edge1_Node000001_Node000002" class="edge">
<title>Node1&#45;&gt;Node2</title>
<g id="a_edge1_Node000001_Node000002"><a xlink:title=" ">
<path fill="none" stroke="#63b8ff" d="M43.23,-68.33C65.52,-78.63 101.28,-95.15 127.55,-107.29"/>
<polygon fill="#63b8ff" stroke="#63b8ff" points="125.89,-110.38 136.43,-111.4 128.83,-104.03 125.89,-110.38"/>
</a>
</g>
</g>
<!-- Node11 -->
<g id="Node000011" class="node">
<title>Node11</title>
<g id="a_Node000011"><a xlink:href="../../dd/dbb/class_c_fast_l_e_d.html#a996375a3f4a7b8c096f87d8a93c2b196" target="_top" xlink:title="Set the maximum power to be used, given in volts and milliamps.">
<polygon fill="white" stroke="#666666" points="245,-75.5 79,-75.5 79,-42 245,-42 245,-75.5"/>
<text text-anchor="start" x="87" y="-62" font-family="Helvetica,sans-Serif" font-size="10.00">CFastLED::setMaxPowerInVolts</text>
<text text-anchor="middle" x="162" y="-49.25" font-family="Helvetica,sans-Serif" font-size="10.00">AndMilliamps</text>
</a>
</g>
</g>
<!-- Node1&#45;&gt;Node11 -->
<g id="edge9_Node000001_Node000011" class="edge">
<title>Node1&#45;&gt;Node11</title>
<g id="a_edge9_Node000001_Node000011"><a xlink:title=" ">
<path fill="none" stroke="#63b8ff" d="M43.23,-58.75C50.13,-58.75 58.32,-58.75 67.12,-58.75"/>
<polygon fill="#63b8ff" stroke="#63b8ff" points="67.02,-62.25 77.02,-58.75 67.02,-55.25 67.02,-62.25"/>
</a>
</g>
</g>
<!-- Node15 -->
<g id="Node000015" class="node">
<title>Node15</title>
<g id="a_Node000015"><a xlink:href="../../d6/d2c/class_c_l_e_d_controller.html#ac1f024ba880d94121fd39d5fea0ff70a" target="_top" xlink:title=" ">
<polygon fill="white" stroke="#666666" points="230.75,-24.12 93.25,-24.12 93.25,-3.38 230.75,-3.38 230.75,-24.12"/>
<text text-anchor="middle" x="162" y="-10.62" font-family="Helvetica,sans-Serif" font-size="10.00">CLEDController::setRgbw</text>
</a>
</g>
</g>
<!-- Node1&#45;&gt;Node15 -->
<g id="edge12_Node000001_Node000015" class="edge">
<title>Node1&#45;&gt;Node15</title>
<g id="a_edge12_Node000001_Node000015"><a xlink:title=" ">
<path fill="none" stroke="#63b8ff" d="M43.28,-47.95C53.78,-42.82 66.84,-36.91 79,-32.75 84.62,-30.83 90.52,-29.04 96.47,-27.39"/>
<polygon fill="#63b8ff" stroke="#63b8ff" points="96.94,-30.88 105.72,-24.95 95.16,-24.11 96.94,-30.88"/>
</a>
</g>
</g>
<!-- Node3 -->
<g id="Node000003" class="node">
<title>Node3</title>
<g id="a_Node000003"><a xlink:href="../../d6/d2c/class_c_l_e_d_controller.html#a44d20f088426191c82919c9cdbc63a35" target="_top" xlink:title="Gets the maximum possible refresh rate of the strip.">
<polygon fill="white" stroke="#666666" points="473.25,-240.12 281,-240.12 281,-219.38 473.25,-219.38 473.25,-240.12"/>
<text text-anchor="middle" x="377.12" y="-226.62" font-family="Helvetica,sans-Serif" font-size="10.00">CLEDController::getMaxRefreshRate</text>
</a>
</g>
</g>
<!-- Node2&#45;&gt;Node3 -->
<g id="edge2_Node000002_Node000003" class="edge">
<title>Node2&#45;&gt;Node3</title>
<g id="a_edge2_Node000002_Node000003"><a xlink:title=" ">
<path fill="none" stroke="#63b8ff" d="M174,-133.47C193.7,-152.03 237.1,-190.08 281,-209.75 285.89,-211.94 291.03,-213.9 296.29,-215.64"/>
<polygon fill="#63b8ff" stroke="#63b8ff" points="295.16,-218.96 305.74,-218.5 297.18,-212.26 295.16,-218.96"/>
</a>
</g>
</g>
<!-- Node4 -->
<g id="Node000004" class="node">
<title>Node4</title>
<g id="a_Node000004"><a xlink:href="../../d6/d2c/class_c_l_e_d_controller.html#af877a15a5ec452780fbd1d359b8a9913" target="_top" xlink:title="Initialize the LED controller.">
<polygon fill="white" stroke="#666666" points="432.75,-201.12 321.5,-201.12 321.5,-180.38 432.75,-180.38 432.75,-201.12"/>
<text text-anchor="middle" x="377.12" y="-187.62" font-family="Helvetica,sans-Serif" font-size="10.00">CLEDController::init</text>
</a>
</g>
</g>
<!-- Node2&#45;&gt;Node4 -->
<g id="edge3_Node000002_Node000004" class="edge">
<title>Node2&#45;&gt;Node4</title>
<g id="a_edge3_Node000002_Node000004"><a xlink:title=" ">
<path fill="none" stroke="#63b8ff" d="M185.14,-133.49C208.5,-144.45 246.62,-161.29 281,-171.75 290.31,-174.58 300.26,-177.1 310.08,-179.31"/>
<polygon fill="#63b8ff" stroke="#63b8ff" points="309.1,-182.68 319.61,-181.35 310.56,-175.83 309.1,-182.68"/>
</a>
</g>
</g>
<!-- Node5 -->
<g id="Node000005" class="node">
<title>Node5</title>
<g id="a_Node000005"><a xlink:href="../../de/dca/classfl_1_1_engine_events.html#a8ec266f9f7b35b9174d331cb6c338d80" target="_top" xlink:title=" ">
<polygon fill="white" stroke="#666666" points="444.38,-162.5 309.88,-162.5 309.88,-129 444.38,-129 444.38,-162.5"/>
<text text-anchor="start" x="317.88" y="-149" font-family="Helvetica,sans-Serif" font-size="10.00">fl::EngineEvents::onStrip</text>
<text text-anchor="middle" x="377.12" y="-136.25" font-family="Helvetica,sans-Serif" font-size="10.00">Added</text>
</a>
</g>
</g>
<!-- Node2&#45;&gt;Node5 -->
<g id="edge4_Node000002_Node000005" class="edge">
<title>Node2&#45;&gt;Node5</title>
<g id="a_edge4_Node000002_Node000005"><a xlink:title=" ">
<path fill="none" stroke="#63b8ff" d="M216.23,-128.49C241.05,-131.17 271.06,-134.41 298.35,-137.36"/>
<polygon fill="#63b8ff" stroke="#63b8ff" points="297.63,-140.8 307.95,-138.39 298.38,-133.84 297.63,-140.8"/>
</a>
</g>
</g>
<!-- Node9 -->
<g id="Node000009" class="node">
<title>Node9</title>
<g id="a_Node000009"><a xlink:href="../../d6/d2c/class_c_l_e_d_controller.html#a6c8e2157d244ce8b1b878947ca7695d9" target="_top" xlink:title="Set the default array of LEDs to be used by this controller.">
<polygon fill="white" stroke="#666666" points="443.62,-111.12 310.62,-111.12 310.62,-90.38 443.62,-90.38 443.62,-111.12"/>
<text text-anchor="middle" x="377.12" y="-97.62" font-family="Helvetica,sans-Serif" font-size="10.00">CLEDController::setLeds</text>
</a>
</g>
</g>
<!-- Node2&#45;&gt;Node9 -->
<g id="edge7_Node000002_Node000009" class="edge">
<title>Node2&#45;&gt;Node9</title>
<g id="a_edge7_Node000002_Node000009"><a xlink:title=" ">
<path fill="none" stroke="#63b8ff" d="M216.23,-117.26C241.26,-114.67 271.58,-111.54 299.06,-108.7"/>
<polygon fill="#63b8ff" stroke="#63b8ff" points="299.15,-112.21 308.73,-107.71 298.43,-105.25 299.15,-112.21"/>
</a>
</g>
</g>
<!-- Node10 -->
<g id="Node000010" class="node">
<title>Node10</title>
<g id="a_Node000010"><a xlink:href="../../dd/dbb/class_c_fast_l_e_d.html#a1f39e8404db214bbd6a776f52a77d8b1" target="_top" xlink:title="Set the maximum refresh rate.">
<polygon fill="white" stroke="#666666" points="458.62,-72.12 295.62,-72.12 295.62,-51.38 458.62,-51.38 458.62,-72.12"/>
<text text-anchor="middle" x="377.12" y="-58.62" font-family="Helvetica,sans-Serif" font-size="10.00">CFastLED::setMaxRefreshRate</text>
</a>
</g>
</g>
<!-- Node2&#45;&gt;Node10 -->
<g id="edge8_Node000002_Node000010" class="edge">
<title>Node2&#45;&gt;Node10</title>
<g id="a_edge8_Node000002_Node000010"><a xlink:title=" ">
<path fill="none" stroke="#63b8ff" d="M190.82,-111.96C214.53,-103.03 249.65,-90.45 281,-81.75 289.61,-79.36 298.73,-77.1 307.78,-75.02"/>
<polygon fill="#63b8ff" stroke="#63b8ff" points="308.27,-78.5 317.27,-72.91 306.75,-71.67 308.27,-78.5"/>
</a>
</g>
</g>
<!-- Node6 -->
<g id="Node000006" class="node">
<title>Node6</title>
<g id="a_Node000006"><a xlink:href="../../de/dca/classfl_1_1_engine_events.html#a006e1f01b766436e0eec2e406b4512d5" target="_top" xlink:title=" ">
<polygon fill="white" stroke="#666666" points="637.75,-184.5 537.75,-184.5 537.75,-151 637.75,-151 637.75,-184.5"/>
<text text-anchor="start" x="545.75" y="-171" font-family="Helvetica,sans-Serif" font-size="10.00">fl::EngineEvents::</text>
<text text-anchor="middle" x="587.75" y="-158.25" font-family="Helvetica,sans-Serif" font-size="10.00">_onStripAdded</text>
</a>
</g>
</g>
<!-- Node5&#45;&gt;Node6 -->
<g id="edge5_Node000005_Node000006" class="edge">
<title>Node5&#45;&gt;Node6</title>
<g id="a_edge5_Node000005_Node000006"><a xlink:title=" ">
<path fill="none" stroke="#63b8ff" d="M444.71,-152.77C470.77,-155.52 500.46,-158.65 525.93,-161.34"/>
<polygon fill="#63b8ff" stroke="#63b8ff" points="525.5,-164.81 535.81,-162.38 526.23,-157.85 525.5,-164.81"/>
</a>
</g>
</g>
<!-- Node7 -->
<g id="Node000007" class="node">
<title>Node7</title>
<g id="a_Node000007"><a xlink:href="../../de/dca/classfl_1_1_engine_events.html#a34a4625c4fbcf754f70820bc4f0e418b" target="_top" xlink:title=" ">
<polygon fill="#fff0f0" stroke="red" points="666.25,-133.12 509.25,-133.12 509.25,-112.38 666.25,-112.38 666.25,-133.12"/>
<text text-anchor="middle" x="587.75" y="-119.62" font-family="Helvetica,sans-Serif" font-size="10.00">fl::EngineEvents::getInstance</text>
</a>
</g>
</g>
<!-- Node5&#45;&gt;Node7 -->
<g id="edge6_Node000005_Node000007" class="edge">
<title>Node5&#45;&gt;Node7</title>
<g id="a_edge6_Node000005_Node000007"><a xlink:title=" ">
<path fill="none" stroke="#63b8ff" d="M444.71,-138.41C461.52,-136.56 479.83,-134.54 497.56,-132.58"/>
<polygon fill="#63b8ff" stroke="#63b8ff" points="497.73,-136.09 507.29,-131.51 496.97,-129.13 497.73,-136.09"/>
</a>
</g>
</g>
<!-- Node12 -->
<g id="Node000012" class="node">
<title>Node12</title>
<g id="a_Node000012"><a xlink:href="../../dd/dbb/class_c_fast_l_e_d.html#ab07d62cdec036af9ede70cbd06ece40f" target="_top" xlink:title="Set the maximum power to be used, given in milliwatts.">
<polygon fill="white" stroke="#666666" points="458.62,-33.5 295.62,-33.5 295.62,0 458.62,0 458.62,-33.5"/>
<text text-anchor="start" x="303.62" y="-20" font-family="Helvetica,sans-Serif" font-size="10.00">CFastLED::setMaxPowerInMilli</text>
<text text-anchor="middle" x="377.12" y="-7.25" font-family="Helvetica,sans-Serif" font-size="10.00">Watts</text>
</a>
</g>
</g>
<!-- Node11&#45;&gt;Node12 -->
<g id="edge10_Node000011_Node000012" class="edge">
<title>Node11&#45;&gt;Node12</title>
<g id="a_edge10_Node000011_Node000012"><a xlink:title=" ">
<path fill="none" stroke="#63b8ff" d="M245.4,-42.51C258.08,-40.01 271.25,-37.42 284.13,-34.88"/>
<polygon fill="#63b8ff" stroke="#63b8ff" points="284.73,-38.33 293.86,-32.96 283.37,-31.46 284.73,-38.33"/>
</a>
</g>
</g>
<!-- Node13 -->
<g id="Node000013" class="node">
<title>Node13</title>
<g id="a_Node000013"><a xlink:href="../../d3/d1d/group___power.html#gafff15ebb8adee6a6c76fd46eb980397c" target="_top" xlink:title="Determines the highest brightness level you can use and still stay under the specified power budget f...">
<polygon fill="#fff0f0" stroke="red" points="659.5,-33.5 516,-33.5 516,0 659.5,0 659.5,-33.5"/>
<text text-anchor="start" x="524" y="-20" font-family="Helvetica,sans-Serif" font-size="10.00">calculate_max_brightness</text>
<text text-anchor="middle" x="587.75" y="-7.25" font-family="Helvetica,sans-Serif" font-size="10.00">_for_power_mW</text>
</a>
</g>
</g>
<!-- Node12&#45;&gt;Node13 -->
<g id="edge11_Node000012_Node000013" class="edge">
<title>Node12&#45;&gt;Node13</title>
<g id="a_edge11_Node000012_Node000013"><a xlink:title=" ">
<path fill="none" stroke="#63b8ff" d="M459.08,-16.75C473.96,-16.75 489.51,-16.75 504.42,-16.75"/>
<polygon fill="#63b8ff" stroke="#63b8ff" points="504.17,-20.25 514.17,-16.75 504.17,-13.25 504.17,-20.25"/>
</a>
</g>
</g>
</g>
</svg>
