<?xml version="1.0" encoding="UTF-8" standalone="no"?>
<!DOCTYPE svg PUBLIC "-//W3C//DTD SVG 1.1//EN"
 "http://www.w3.org/Graphics/SVG/1.1/DTD/svg11.dtd">
<!-- Generated by graphviz version 12.2.1 (20241206.2353)
 -->
<!-- Title: UpscalePalette Pages: 1 -->
<svg width="314pt" height="224pt"
 viewBox="0.00 0.00 313.75 223.75" xmlns="http://www.w3.org/2000/svg" xmlns:xlink="http://www.w3.org/1999/xlink">
<g id="graph0" class="graph" transform="scale(1 1) rotate(0) translate(4 219.75)">
<title>UpscalePalette</title>
<!-- Node1 -->
<g id="Node000001" class="node">
<title>Node1</title>
<g id="a_Node000001"><a xlink:title="Convert a 16&#45;entry palette to a 256&#45;entry palette.">
<polygon fill="#999999" stroke="#666666" points="305.75,-117.75 217,-117.75 217,-97 305.75,-97 305.75,-117.75"/>
<text text-anchor="middle" x="261.38" y="-104.25" font-family="Helvetica,sans-Serif" font-size="10.00">UpscalePalette</text>
</a>
</g>
</g>
<!-- Node2 -->
<g id="Node000002" class="node">
<title>Node2</title>
<g id="a_Node000002"><a xlink:href="../../d6/d39/group___palette_classes.html#a93a00dbae141e2cf7355e31cd9922424" target="_top" xlink:title="Create upscaled palette from 16&#45;entry palette.">
<polygon fill="white" stroke="#666666" points="180.25,-215.75 0.75,-215.75 0.75,-195 180.25,-195 180.25,-215.75"/>
<text text-anchor="middle" x="90.5" y="-202.25" font-family="Helvetica,sans-Serif" font-size="10.00">CHSVPalette256::CHSVPalette256</text>
</a>
</g>
</g>
<!-- Node1&#45;&gt;Node2 -->
<g id="edge1_Node000001_Node000002" class="edge">
<title>Node1&#45;&gt;Node2</title>
<g id="a_edge1_Node000001_Node000002"><a xlink:title=" ">
<path fill="none" stroke="#63b8ff" d="M245.65,-127.16C231.19,-145.13 207.49,-170.96 181,-185.38 174.15,-189.1 166.64,-192.14 158.98,-194.61"/>
<polygon fill="#63b8ff" stroke="#63b8ff" points="248.38,-129.34 251.76,-119.3 242.86,-125.04 248.38,-129.34"/>
</a>
</g>
</g>
<!-- Node3 -->
<g id="Node000003" class="node">
<title>Node3</title>
<g id="a_Node000003"><a xlink:href="../../d6/d39/group___palette_classes.html#a01b7d7154a1c785e367d127940f9d180" target="_top" xlink:title="Create upscaled palette from 16&#45;entry palette.">
<polygon fill="white" stroke="#666666" points="181,-176.75 0,-176.75 0,-156 181,-156 181,-176.75"/>
<text text-anchor="middle" x="90.5" y="-163.25" font-family="Helvetica,sans-Serif" font-size="10.00">CRGBPalette256::CRGBPalette256</text>
</a>
</g>
</g>
<!-- Node1&#45;&gt;Node3 -->
<g id="edge2_Node000001_Node000003" class="edge">
<title>Node1&#45;&gt;Node3</title>
<g id="a_edge2_Node000001_Node000003"><a xlink:title=" ">
<path fill="none" stroke="#63b8ff" d="M231.65,-123.54C216.88,-131.32 198.37,-140.27 181,-146.38 170.94,-149.92 160.01,-152.97 149.36,-155.56"/>
<polygon fill="#63b8ff" stroke="#63b8ff" points="233.2,-126.68 240.34,-118.86 229.88,-120.52 233.2,-126.68"/>
</a>
</g>
</g>
<!-- Node4 -->
<g id="Node000004" class="node">
<title>Node4</title>
<g id="a_Node000004"><a xlink:href="../../d6/d39/group___palette_classes.html#a885013cda7e8875b2c9894e0e88b0d7f" target="_top" xlink:title="Create upscaled palette from 16&#45;entry palette.">
<polygon fill="white" stroke="#666666" points="175,-137.75 6,-137.75 6,-117 175,-117 175,-137.75"/>
<text text-anchor="middle" x="90.5" y="-124.25" font-family="Helvetica,sans-Serif" font-size="10.00">CRGBPalette32::CRGBPalette32</text>
</a>
</g>
</g>
<!-- Node1&#45;&gt;Node4 -->
<g id="edge3_Node000001_Node000004" class="edge">
<title>Node1&#45;&gt;Node4</title>
<g id="a_edge3_Node000001_Node000004"><a xlink:title=" ">
<path fill="none" stroke="#63b8ff" d="M205.73,-113.85C195.95,-115 185.57,-116.23 175.19,-117.46"/>
<polygon fill="#63b8ff" stroke="#63b8ff" points="205.86,-117.36 215.38,-112.7 205.04,-110.4 205.86,-117.36"/>
</a>
</g>
</g>
<!-- Node5 -->
<g id="Node000005" class="node">
<title>Node5</title>
<g id="a_Node000005"><a xlink:href="../../d6/d39/group___palette_classes.html#ae053719706e3276afabd1d3be6e8386c" target="_top" xlink:title="Create upscaled palette from 16&#45;entry palette.">
<polygon fill="white" stroke="#666666" points="165.62,-98.75 15.38,-98.75 15.38,-78 165.62,-78 165.62,-98.75"/>
<text text-anchor="middle" x="90.5" y="-85.25" font-family="Helvetica,sans-Serif" font-size="10.00">CHSVPalette256::operator=</text>
</a>
</g>
</g>
<!-- Node1&#45;&gt;Node5 -->
<g id="edge4_Node000001_Node000005" class="edge">
<title>Node1&#45;&gt;Node5</title>
<g id="a_edge4_Node000001_Node000005"><a xlink:title=" ">
<path fill="none" stroke="#63b8ff" d="M205.6,-101.21C192.95,-99.79 179.29,-98.25 165.96,-96.75"/>
<polygon fill="#63b8ff" stroke="#63b8ff" points="205.05,-104.67 215.38,-102.31 205.84,-97.72 205.05,-104.67"/>
</a>
</g>
</g>
<!-- Node6 -->
<g id="Node000006" class="node">
<title>Node6</title>
<g id="a_Node000006"><a xlink:href="../../d6/d39/group___palette_classes.html#a7d40d64cf260798c5e6ccc0d267081e8" target="_top" xlink:title="Create upscaled palette from 16&#45;entry palette.">
<polygon fill="white" stroke="#666666" points="166,-59.75 15,-59.75 15,-39 166,-39 166,-59.75"/>
<text text-anchor="middle" x="90.5" y="-46.25" font-family="Helvetica,sans-Serif" font-size="10.00">CRGBPalette256::operator=</text>
</a>
</g>
</g>
<!-- Node1&#45;&gt;Node6 -->
<g id="edge5_Node000001_Node000006" class="edge">
<title>Node1&#45;&gt;Node6</title>
<g id="a_edge5_Node000001_Node000006"><a xlink:title=" ">
<path fill="none" stroke="#63b8ff" d="M231.01,-91.35C216.32,-83.85 198.08,-75.29 181,-69.38 170.77,-65.83 159.66,-62.76 148.86,-60.16"/>
<polygon fill="#63b8ff" stroke="#63b8ff" points="229.18,-94.34 239.66,-95.87 232.42,-88.14 229.18,-94.34"/>
</a>
</g>
</g>
<!-- Node7 -->
<g id="Node000007" class="node">
<title>Node7</title>
<g id="a_Node000007"><a xlink:href="../../d6/d39/group___palette_classes.html#a7299ef2a59b3784186d9ce67e32d331e" target="_top" xlink:title="Create upscaled palette from 16&#45;entry palette.">
<polygon fill="white" stroke="#666666" points="163,-20.75 18,-20.75 18,0 163,0 163,-20.75"/>
<text text-anchor="middle" x="90.5" y="-7.25" font-family="Helvetica,sans-Serif" font-size="10.00">CRGBPalette32::operator=</text>
</a>
</g>
</g>
<!-- Node1&#45;&gt;Node7 -->
<g id="edge6_Node000001_Node000007" class="edge">
<title>Node1&#45;&gt;Node7</title>
<g id="a_edge6_Node000001_Node000007"><a xlink:title=" ">
<path fill="none" stroke="#63b8ff" d="M245.36,-87.56C230.84,-69.84 207.23,-44.53 181,-30.38 174.14,-26.67 166.62,-23.65 158.95,-21.19"/>
<polygon fill="#63b8ff" stroke="#63b8ff" points="242.55,-89.66 251.51,-95.32 248.04,-85.31 242.55,-89.66"/>
</a>
</g>
</g>
</g>
</svg>
