<?xml version="1.0" encoding="UTF-8" standalone="no"?>
<!DOCTYPE svg PUBLIC "-//W3C//DTD SVG 1.1//EN"
 "http://www.w3.org/Graphics/SVG/1.1/DTD/svg11.dtd">
<!-- Generated by graphviz version 12.2.1 (20241206.2353)
 -->
<!-- Title: fl::FixedMap&lt; Key, Value, N &gt; Pages: 1 -->
<svg width="422pt" height="118pt"
 viewBox="0.00 0.00 421.75 118.25" xmlns="http://www.w3.org/2000/svg" xmlns:xlink="http://www.w3.org/1999/xlink">
<g id="graph0" class="graph" transform="scale(1 1) rotate(0) translate(4 114.25)">
<title>fl::FixedMap&lt; Key, Value, N &gt;</title>
<!-- Node1 -->
<g id="Node000001" class="node">
<title>Node1</title>
<g id="a_Node000001"><a xlink:title=" ">
<polygon fill="#999999" stroke="#666666" points="106.75,-71.88 0,-71.88 0,-38.38 106.75,-38.38 106.75,-71.88"/>
<text text-anchor="start" x="8" y="-58.38" font-family="Helvetica,sans-Serif" font-size="10.00">fl::FixedMap&lt; Key,</text>
<text text-anchor="middle" x="53.38" y="-45.62" font-family="Helvetica,sans-Serif" font-size="10.00"> Value, N &gt;</text>
</a>
</g>
</g>
<!-- Node2 -->
<g id="Node000002" class="node">
<title>Node2</title>
<g id="a_Node000002"><a xlink:href="../../d2/df3/classfl_1_1_fixed_map.html" target="_top" xlink:title=" ">
<polygon fill="white" stroke="#666666" points="413.75,-110.25 260.5,-110.25 260.5,-64 413.75,-64 413.75,-110.25"/>
<text text-anchor="start" x="268.5" y="-96.75" font-family="Helvetica,sans-Serif" font-size="10.00">fl::FixedMap&lt; int,</text>
<text text-anchor="start" x="268.5" y="-84" font-family="Helvetica,sans-Serif" font-size="10.00"> FxPtr, FASTLED_FX_ENGINE</text>
<text text-anchor="middle" x="337.12" y="-71.25" font-family="Helvetica,sans-Serif" font-size="10.00">_MAX_FX &gt;</text>
</a>
</g>
</g>
<!-- Node1&#45;&gt;Node2 -->
<g id="edge1_Node000001_Node000002" class="edge">
<title>Node1&#45;&gt;Node2</title>
<g id="a_edge1_Node000001_Node000002"><a xlink:title=" ">
<path fill="none" stroke="orange" stroke-dasharray="5,2" d="M118.27,-62.38C160.36,-67.16 215.69,-73.45 260.06,-78.49"/>
<polygon fill="orange" stroke="orange" points="118.87,-58.93 108.54,-61.28 118.08,-65.88 118.87,-58.93"/>
</a>
</g>
<text text-anchor="start" x="124.75" y="-91.86" font-family="Helvetica,sans-Serif" font-size="10.00" fill="grey"> &lt; int, FxPtr, FASTLED</text>
<text text-anchor="middle" x="183.62" y="-79.11" font-family="Helvetica,sans-Serif" font-size="10.00" fill="grey">_FX_ENGINE_MAX_FX &gt;</text>
</g>
<!-- Node3 -->
<g id="Node000003" class="node">
<title>Node3</title>
<g id="a_Node000003"><a xlink:href="../../d2/df3/classfl_1_1_fixed_map.html" target="_top" xlink:title=" ">
<polygon fill="white" stroke="#666666" points="392.38,-46.25 281.88,-46.25 281.88,0 392.38,0 392.38,-46.25"/>
<text text-anchor="start" x="289.88" y="-32.75" font-family="Helvetica,sans-Serif" font-size="10.00">fl::FixedMap&lt; uint8</text>
<text text-anchor="start" x="289.88" y="-20" font-family="Helvetica,sans-Serif" font-size="10.00">_t, fl::Slice&lt; uint8</text>
<text text-anchor="middle" x="337.12" y="-7.25" font-family="Helvetica,sans-Serif" font-size="10.00">_t &gt;, 50 &gt;</text>
</a>
</g>
</g>
<!-- Node1&#45;&gt;Node3 -->
<g id="edge2_Node000001_Node000003" class="edge">
<title>Node1&#45;&gt;Node3</title>
<g id="a_edge2_Node000001_Node000003"><a xlink:title=" ">
<path fill="none" stroke="orange" stroke-dasharray="5,2" d="M118.19,-35.85C120.39,-35.41 122.59,-34.99 124.75,-34.62 177.46,-25.64 238.54,-23.15 281.44,-22.68"/>
<polygon fill="orange" stroke="orange" points="117.56,-32.41 108.58,-38.03 119.1,-39.24 117.56,-32.41"/>
</a>
</g>
<text text-anchor="start" x="139" y="-50.62" font-family="Helvetica,sans-Serif" font-size="10.00" fill="grey"> &lt; uint8_t, fl::Slice</text>
<text text-anchor="middle" x="183.62" y="-37.88" font-family="Helvetica,sans-Serif" font-size="10.00" fill="grey">&lt; uint8_t &gt;, 50 &gt;</text>
</g>
</g>
</svg>
