<?xml version="1.0" encoding="UTF-8" standalone="no"?>
<!DOCTYPE svg PUBLIC "-//W3C//DTD SVG 1.1//EN"
 "http://www.w3.org/Graphics/SVG/1.1/DTD/svg11.dtd">
<!-- Generated by graphviz version 12.2.1 (20241206.2353)
 -->
<!-- Title: fl::Fx2d::getWidth Pages: 1 -->
<svg width="269pt" height="119pt"
 viewBox="0.00 0.00 268.75 119.12" xmlns="http://www.w3.org/2000/svg" xmlns:xlink="http://www.w3.org/1999/xlink">
<g id="graph0" class="graph" transform="scale(1 1) rotate(0) translate(4 115.12)">
<title>fl::Fx2d::getWidth</title>
<!-- Node1 -->
<g id="Node000001" class="node">
<title>Node1</title>
<g id="a_Node000001"><a xlink:title=" ">
<polygon fill="#999999" stroke="#666666" points="260.75,-59.75 158.5,-59.75 158.5,-39 260.75,-39 260.75,-59.75"/>
<text text-anchor="middle" x="209.62" y="-46.25" font-family="Helvetica,sans-Serif" font-size="10.00">fl::Fx2d::getWidth</text>
</a>
</g>
</g>
<!-- Node2 -->
<g id="Node000002" class="node">
<title>Node2</title>
<g id="a_Node000002"><a xlink:href="../../d1/dda/classfl_1_1_fast_l_e_d_a_n_i_mart_r_i_x.html#aa56ac3bf96d04364798cbfee1515d61b" target="_top" xlink:title=" ">
<polygon fill="white" stroke="#666666" points="122.5,-111.12 0,-111.12 0,-77.62 122.5,-77.62 122.5,-111.12"/>
<text text-anchor="start" x="8" y="-97.62" font-family="Helvetica,sans-Serif" font-size="10.00">fl::FastLEDANIMartRIX</text>
<text text-anchor="middle" x="61.25" y="-84.88" font-family="Helvetica,sans-Serif" font-size="10.00">::FastLEDANIMartRIX</text>
</a>
</g>
</g>
<!-- Node1&#45;&gt;Node2 -->
<g id="edge1_Node000001_Node000002" class="edge">
<title>Node1&#45;&gt;Node2</title>
<g id="a_edge1_Node000001_Node000002"><a xlink:title=" ">
<path fill="none" stroke="#63b8ff" d="M162.64,-63.51C148.54,-67.85 132.86,-72.67 118.17,-77.18"/>
<polygon fill="#63b8ff" stroke="#63b8ff" points="163.59,-66.88 172.12,-60.6 161.53,-60.19 163.59,-66.88"/>
</a>
</g>
</g>
<!-- Node3 -->
<g id="Node000003" class="node">
<title>Node3</title>
<g id="a_Node000003"><a xlink:href="../../d0/d3e/classfl_1_1_red_square.html#a7efbd2810b3ebb2d6d30b70fa3840ca5" target="_top" xlink:title=" ">
<polygon fill="white" stroke="#666666" points="116.5,-59.75 6,-59.75 6,-39 116.5,-39 116.5,-59.75"/>
<text text-anchor="middle" x="61.25" y="-46.25" font-family="Helvetica,sans-Serif" font-size="10.00">fl::RedSquare::draw</text>
</a>
</g>
</g>
<!-- Node1&#45;&gt;Node3 -->
<g id="edge2_Node000001_Node000003" class="edge">
<title>Node1&#45;&gt;Node3</title>
<g id="a_edge2_Node000001_Node000003"><a xlink:title=" ">
<path fill="none" stroke="#63b8ff" d="M146.8,-49.38C136.89,-49.38 126.7,-49.38 116.97,-49.38"/>
<polygon fill="#63b8ff" stroke="#63b8ff" points="146.74,-52.88 156.74,-49.38 146.74,-45.88 146.74,-52.88"/>
</a>
</g>
</g>
<!-- Node4 -->
<g id="Node000004" class="node">
<title>Node4</title>
<g id="a_Node000004"><a xlink:href="../../d5/d79/classfl_1_1_scale_up.html#a4a667682b8d113e18d4c9c95bda93262" target="_top" xlink:title=" ">
<polygon fill="white" stroke="#666666" points="110.12,-20.75 12.38,-20.75 12.38,0 110.12,0 110.12,-20.75"/>
<text text-anchor="middle" x="61.25" y="-7.25" font-family="Helvetica,sans-Serif" font-size="10.00">fl::ScaleUp::draw</text>
</a>
</g>
</g>
<!-- Node1&#45;&gt;Node4 -->
<g id="edge3_Node000001_Node000004" class="edge">
<title>Node1&#45;&gt;Node4</title>
<g id="a_edge3_Node000001_Node000004"><a xlink:title=" ">
<path fill="none" stroke="#63b8ff" d="M156.85,-35.58C139.2,-30.88 119.73,-25.69 103.06,-21.25"/>
<polygon fill="#63b8ff" stroke="#63b8ff" points="155.82,-38.93 166.39,-38.12 157.63,-32.16 155.82,-38.93"/>
</a>
</g>
</g>
</g>
</svg>
