<?xml version="1.0" encoding="UTF-8" standalone="no"?>
<!DOCTYPE svg PUBLIC "-//W3C//DTD SVG 1.1//EN"
 "http://www.w3.org/Graphics/SVG/1.1/DTD/svg11.dtd">
<!-- Generated by graphviz version 12.2.1 (20241206.2353)
 -->
<!-- Title: PrintPins&lt; 0 &gt; Pages: 1 -->
<svg width="497pt" height="47pt"
 viewBox="0.00 0.00 496.50 46.75" xmlns="http://www.w3.org/2000/svg" xmlns:xlink="http://www.w3.org/1999/xlink">
<g id="graph0" class="graph" transform="scale(1 1) rotate(0) translate(4 42.75)">
<title>PrintPins&lt; 0 &gt;</title>
<!-- Node1 -->
<g id="Node000001" class="node">
<title>Node1</title>
<g id="a_Node000001"><a xlink:title=" ">
<polygon fill="#999999" stroke="#666666" points="87.25,-20.75 0,-20.75 0,0 87.25,0 87.25,-20.75"/>
<text text-anchor="middle" x="43.62" y="-7.25" font-family="Helvetica,sans-Serif" font-size="10.00">PrintPins&lt; 0 &gt;</text>
</a>
</g>
</g>
<!-- Node2 -->
<g id="Node000002" class="node">
<title>Node2</title>
<g id="a_Node000002"><a xlink:href="../../db/d0b/_pintest_8ino.html#a7089184423e1bbf435e40abb052bbf46" target="_top" xlink:title=" ">
<polygon fill="white" stroke="#666666" points="191,-20.75 123.25,-20.75 123.25,0 191,0 191,-20.75"/>
<text text-anchor="middle" x="157.12" y="-7.25" font-family="Helvetica,sans-Serif" font-size="10.00">GetPinPort</text>
</a>
</g>
</g>
<!-- Node1&#45;&gt;Node2 -->
<g id="edge1_Node000001_Node000002" class="edge">
<title>Node1&#45;&gt;Node2</title>
<g id="a_edge1_Node000001_Node000002"><a xlink:title=" ">
<path fill="none" stroke="#63b8ff" d="M87.73,-10.38C95.47,-10.38 103.54,-10.38 111.32,-10.38"/>
<polygon fill="#63b8ff" stroke="#63b8ff" points="111.3,-13.88 121.3,-10.38 111.3,-6.88 111.3,-13.88"/>
</a>
</g>
</g>
<!-- Node3 -->
<g id="Node000003" class="node">
<title>Node3</title>
<g id="a_Node000003"><a xlink:href="../../db/d0b/_pintest_8ino.html#af71431f6db865cbdc9d31833de94da2b" target="_top" xlink:title=" ">
<polygon fill="white" stroke="#666666" points="300,-20.75 227,-20.75 227,0 300,0 300,-20.75"/>
<text text-anchor="middle" x="263.5" y="-7.25" font-family="Helvetica,sans-Serif" font-size="10.00">_GetPinPort</text>
</a>
</g>
</g>
<!-- Node2&#45;&gt;Node3 -->
<g id="edge2_Node000002_Node000003" class="edge">
<title>Node2&#45;&gt;Node3</title>
<g id="a_edge2_Node000002_Node000003"><a xlink:title=" ">
<path fill="none" stroke="#63b8ff" d="M191.44,-10.38C198.97,-10.38 207.12,-10.38 215.11,-10.38"/>
<polygon fill="#63b8ff" stroke="#63b8ff" points="215.11,-13.88 225.11,-10.38 215.11,-6.88 215.11,-13.88"/>
</a>
</g>
</g>
<!-- Node3&#45;&gt;Node3 -->
<g id="edge3_Node000003_Node000003" class="edge">
<title>Node3&#45;&gt;Node3</title>
<g id="a_edge3_Node000003_Node000003"><a xlink:title=" ">
<path fill="none" stroke="#63b8ff" d="M246.36,-21.15C239.5,-29.81 245.22,-38.75 263.5,-38.75 273.21,-38.75 279.38,-36.23 282,-32.56"/>
<polygon fill="#63b8ff" stroke="#63b8ff" points="285.47,-32.17 280.82,-22.65 278.52,-32.99 285.47,-32.17"/>
</a>
</g>
</g>
<!-- Node4 -->
<g id="Node000004" class="node">
<title>Node4</title>
<g id="a_Node000004"><a xlink:href="../../d4/de9/struct_____f_l___p_o_r_t___i_n_f_o.html#ad7cedd4bff6b75c60ddf249dade8dd1c" target="_top" xlink:title="Gets the name of the port, as a C&#45;string.">
<polygon fill="white" stroke="#666666" points="488.5,-20.75 336,-20.75 336,0 488.5,0 488.5,-20.75"/>
<text text-anchor="middle" x="412.25" y="-7.25" font-family="Helvetica,sans-Serif" font-size="10.00">__FL_PORT_INFO::portName</text>
</a>
</g>
</g>
<!-- Node3&#45;&gt;Node4 -->
<g id="edge4_Node000003_Node000004" class="edge">
<title>Node3&#45;&gt;Node4</title>
<g id="a_edge4_Node000003_Node000004"><a xlink:title=" ">
<path fill="none" stroke="#63b8ff" d="M300.4,-10.38C307.81,-10.38 315.91,-10.38 324.26,-10.38"/>
<polygon fill="#63b8ff" stroke="#63b8ff" points="324.24,-13.88 334.24,-10.38 324.24,-6.88 324.24,-13.88"/>
</a>
</g>
</g>
</g>
</svg>
