<?xml version="1.0" encoding="UTF-8" standalone="no"?>
<!DOCTYPE svg PUBLIC "-//W3C//DTD SVG 1.1//EN"
 "http://www.w3.org/Graphics/SVG/1.1/DTD/svg11.dtd">
<!-- Generated by graphviz version 12.2.1 (20241206.2353)
 -->
<!-- Title: GetPinPort Pages: 1 -->
<svg width="373pt" height="47pt"
 viewBox="0.00 0.00 373.25 46.75" xmlns="http://www.w3.org/2000/svg" xmlns:xlink="http://www.w3.org/1999/xlink">
<g id="graph0" class="graph" transform="scale(1 1) rotate(0) translate(4 42.75)">
<title>GetPinPort</title>
<!-- Node1 -->
<g id="Node000001" class="node">
<title>Node1</title>
<g id="a_Node000001"><a xlink:title=" ">
<polygon fill="#999999" stroke="#666666" points="67.75,-20.75 0,-20.75 0,0 67.75,0 67.75,-20.75"/>
<text text-anchor="middle" x="33.88" y="-7.25" font-family="Helvetica,sans-Serif" font-size="10.00">GetPinPort</text>
</a>
</g>
</g>
<!-- Node2 -->
<g id="Node000002" class="node">
<title>Node2</title>
<g id="a_Node000002"><a xlink:href="../../db/d0b/_pintest_8ino.html#af71431f6db865cbdc9d31833de94da2b" target="_top" xlink:title=" ">
<polygon fill="white" stroke="#666666" points="176.75,-20.75 103.75,-20.75 103.75,0 176.75,0 176.75,-20.75"/>
<text text-anchor="middle" x="140.25" y="-7.25" font-family="Helvetica,sans-Serif" font-size="10.00">_GetPinPort</text>
</a>
</g>
</g>
<!-- Node1&#45;&gt;Node2 -->
<g id="edge1_Node000001_Node000002" class="edge">
<title>Node1&#45;&gt;Node2</title>
<g id="a_edge1_Node000001_Node000002"><a xlink:title=" ">
<path fill="none" stroke="#63b8ff" d="M68.19,-10.38C75.72,-10.38 83.87,-10.38 91.86,-10.38"/>
<polygon fill="#63b8ff" stroke="#63b8ff" points="91.86,-13.88 101.86,-10.38 91.86,-6.88 91.86,-13.88"/>
</a>
</g>
</g>
<!-- Node2&#45;&gt;Node2 -->
<g id="edge2_Node000002_Node000002" class="edge">
<title>Node2&#45;&gt;Node2</title>
<g id="a_edge2_Node000002_Node000002"><a xlink:title=" ">
<path fill="none" stroke="#63b8ff" d="M123.11,-21.15C116.25,-29.81 121.97,-38.75 140.25,-38.75 149.96,-38.75 156.13,-36.23 158.75,-32.56"/>
<polygon fill="#63b8ff" stroke="#63b8ff" points="162.22,-32.17 157.57,-22.65 155.27,-32.99 162.22,-32.17"/>
</a>
</g>
</g>
<!-- Node3 -->
<g id="Node000003" class="node">
<title>Node3</title>
<g id="a_Node000003"><a xlink:href="../../d4/de9/struct_____f_l___p_o_r_t___i_n_f_o.html#ad7cedd4bff6b75c60ddf249dade8dd1c" target="_top" xlink:title="Gets the name of the port, as a C&#45;string.">
<polygon fill="white" stroke="#666666" points="365.25,-20.75 212.75,-20.75 212.75,0 365.25,0 365.25,-20.75"/>
<text text-anchor="middle" x="289" y="-7.25" font-family="Helvetica,sans-Serif" font-size="10.00">__FL_PORT_INFO::portName</text>
</a>
</g>
</g>
<!-- Node2&#45;&gt;Node3 -->
<g id="edge3_Node000002_Node000003" class="edge">
<title>Node2&#45;&gt;Node3</title>
<g id="a_edge3_Node000002_Node000003"><a xlink:title=" ">
<path fill="none" stroke="#63b8ff" d="M177.15,-10.38C184.56,-10.38 192.66,-10.38 201.01,-10.38"/>
<polygon fill="#63b8ff" stroke="#63b8ff" points="200.99,-13.88 210.99,-10.38 200.99,-6.88 200.99,-13.88"/>
</a>
</g>
</g>
</g>
</svg>
