<?xml version="1.0" encoding="UTF-8" standalone="no"?>
<!DOCTYPE svg PUBLIC "-//W3C//DTD SVG 1.1//EN"
 "http://www.w3.org/Graphics/SVG/1.1/DTD/svg11.dtd">
<!-- Generated by graphviz version 12.2.1 (20241206.2353)
 -->
<!-- Title: PrintPins Pages: 1 -->
<svg width="468pt" height="47pt"
 viewBox="0.00 0.00 468.00 46.75" xmlns="http://www.w3.org/2000/svg" xmlns:xlink="http://www.w3.org/1999/xlink">
<g id="graph0" class="graph" transform="scale(1 1) rotate(0) translate(4 42.75)">
<title>PrintPins</title>
<!-- Node1 -->
<g id="Node000001" class="node">
<title>Node1</title>
<g id="a_Node000001"><a xlink:title=" ">
<polygon fill="#999999" stroke="#666666" points="58.75,-20.75 0,-20.75 0,0 58.75,0 58.75,-20.75"/>
<text text-anchor="middle" x="29.38" y="-7.25" font-family="Helvetica,sans-Serif" font-size="10.00">PrintPins</text>
</a>
</g>
</g>
<!-- Node1&#45;&gt;Node1 -->
<g id="edge5_Node000001_Node000001" class="edge">
<title>Node1&#45;&gt;Node1</title>
<g id="a_edge5_Node000001_Node000001"><a xlink:title=" ">
<path fill="none" stroke="#63b8ff" d="M13.38,-21.15C6.99,-29.81 12.32,-38.75 29.38,-38.75 38.44,-38.75 44.19,-36.23 46.63,-32.56"/>
<polygon fill="#63b8ff" stroke="#63b8ff" points="50.11,-32.21 45.53,-22.65 43.16,-32.98 50.11,-32.21"/>
</a>
</g>
</g>
<!-- Node2 -->
<g id="Node000002" class="node">
<title>Node2</title>
<g id="a_Node000002"><a xlink:href="../../db/d0b/_pintest_8ino.html#a7089184423e1bbf435e40abb052bbf46" target="_top" xlink:title=" ">
<polygon fill="white" stroke="#666666" points="162.5,-20.75 94.75,-20.75 94.75,0 162.5,0 162.5,-20.75"/>
<text text-anchor="middle" x="128.62" y="-7.25" font-family="Helvetica,sans-Serif" font-size="10.00">GetPinPort</text>
</a>
</g>
</g>
<!-- Node1&#45;&gt;Node2 -->
<g id="edge1_Node000001_Node000002" class="edge">
<title>Node1&#45;&gt;Node2</title>
<g id="a_edge1_Node000001_Node000002"><a xlink:title=" ">
<path fill="none" stroke="#63b8ff" d="M59.03,-10.38C66.57,-10.38 74.88,-10.38 83.05,-10.38"/>
<polygon fill="#63b8ff" stroke="#63b8ff" points="82.87,-13.88 92.87,-10.38 82.87,-6.88 82.87,-13.88"/>
</a>
</g>
</g>
<!-- Node3 -->
<g id="Node000003" class="node">
<title>Node3</title>
<g id="a_Node000003"><a xlink:href="../../db/d0b/_pintest_8ino.html#af71431f6db865cbdc9d31833de94da2b" target="_top" xlink:title=" ">
<polygon fill="white" stroke="#666666" points="271.5,-20.75 198.5,-20.75 198.5,0 271.5,0 271.5,-20.75"/>
<text text-anchor="middle" x="235" y="-7.25" font-family="Helvetica,sans-Serif" font-size="10.00">_GetPinPort</text>
</a>
</g>
</g>
<!-- Node2&#45;&gt;Node3 -->
<g id="edge2_Node000002_Node000003" class="edge">
<title>Node2&#45;&gt;Node3</title>
<g id="a_edge2_Node000002_Node000003"><a xlink:title=" ">
<path fill="none" stroke="#63b8ff" d="M162.94,-10.38C170.47,-10.38 178.62,-10.38 186.61,-10.38"/>
<polygon fill="#63b8ff" stroke="#63b8ff" points="186.61,-13.88 196.61,-10.38 186.61,-6.88 186.61,-13.88"/>
</a>
</g>
</g>
<!-- Node3&#45;&gt;Node3 -->
<g id="edge3_Node000003_Node000003" class="edge">
<title>Node3&#45;&gt;Node3</title>
<g id="a_edge3_Node000003_Node000003"><a xlink:title=" ">
<path fill="none" stroke="#63b8ff" d="M217.86,-21.15C211,-29.81 216.72,-38.75 235,-38.75 244.71,-38.75 250.88,-36.23 253.5,-32.56"/>
<polygon fill="#63b8ff" stroke="#63b8ff" points="256.97,-32.17 252.32,-22.65 250.02,-32.99 256.97,-32.17"/>
</a>
</g>
</g>
<!-- Node4 -->
<g id="Node000004" class="node">
<title>Node4</title>
<g id="a_Node000004"><a xlink:href="../../d4/de9/struct_____f_l___p_o_r_t___i_n_f_o.html#ad7cedd4bff6b75c60ddf249dade8dd1c" target="_top" xlink:title="Gets the name of the port, as a C&#45;string.">
<polygon fill="white" stroke="#666666" points="460,-20.75 307.5,-20.75 307.5,0 460,0 460,-20.75"/>
<text text-anchor="middle" x="383.75" y="-7.25" font-family="Helvetica,sans-Serif" font-size="10.00">__FL_PORT_INFO::portName</text>
</a>
</g>
</g>
<!-- Node3&#45;&gt;Node4 -->
<g id="edge4_Node000003_Node000004" class="edge">
<title>Node3&#45;&gt;Node4</title>
<g id="a_edge4_Node000003_Node000004"><a xlink:title=" ">
<path fill="none" stroke="#63b8ff" d="M271.9,-10.38C279.31,-10.38 287.41,-10.38 295.76,-10.38"/>
<polygon fill="#63b8ff" stroke="#63b8ff" points="295.74,-13.88 305.74,-10.38 295.74,-6.88 295.74,-13.88"/>
</a>
</g>
</g>
</g>
</svg>
