<?xml version="1.0" encoding="UTF-8" standalone="no"?>
<!DOCTYPE svg PUBLIC "-//W3C//DTD SVG 1.1//EN"
 "http://www.w3.org/Graphics/SVG/1.1/DTD/svg11.dtd">
<!-- Generated by graphviz version 12.2.1 (20241206.2353)
 -->
<!-- Title: fl::UINumberField::operator= Pages: 1 -->
<svg width="400pt" height="65pt"
 viewBox="0.00 0.00 400.25 64.50" xmlns="http://www.w3.org/2000/svg" xmlns:xlink="http://www.w3.org/1999/xlink">
<g id="graph0" class="graph" transform="scale(1 1) rotate(0) translate(4 60.5)">
<title>fl::UINumberField::operator=</title>
<!-- Node1 -->
<g id="Node000001" class="node">
<title>Node1</title>
<g id="a_Node000001"><a xlink:title=" ">
<polygon fill="#999999" stroke="#666666" points="106.75,-33.5 0,-33.5 0,0 106.75,0 106.75,-33.5"/>
<text text-anchor="start" x="8" y="-20" font-family="Helvetica,sans-Serif" font-size="10.00">fl::UINumberField::</text>
<text text-anchor="middle" x="53.38" y="-7.25" font-family="Helvetica,sans-Serif" font-size="10.00">operator=</text>
</a>
</g>
</g>
<!-- Node2 -->
<g id="Node000002" class="node">
<title>Node2</title>
<g id="a_Node000002"><a xlink:href="../../d9/d5f/classfl_1_1_u_i_number_field.html#ae3eb39add980947e8f91b380c29ec46b" target="_top" xlink:title=" ">
<polygon fill="white" stroke="#666666" points="249.5,-56.5 142.75,-56.5 142.75,-23 249.5,-23 249.5,-56.5"/>
<text text-anchor="start" x="150.75" y="-43" font-family="Helvetica,sans-Serif" font-size="10.00">fl::UINumberField::</text>
<text text-anchor="middle" x="196.12" y="-30.25" font-family="Helvetica,sans-Serif" font-size="10.00">setValue</text>
</a>
</g>
</g>
<!-- Node1&#45;&gt;Node2 -->
<g id="edge1_Node000001_Node000002" class="edge">
<title>Node1&#45;&gt;Node2</title>
<g id="a_edge1_Node000001_Node000002"><a xlink:title=" ">
<path fill="none" stroke="#63b8ff" d="M107.19,-25.38C115.03,-26.66 123.19,-28 131.23,-29.31"/>
<polygon fill="#63b8ff" stroke="#63b8ff" points="130.56,-32.75 140.99,-30.9 131.69,-25.84 130.56,-32.75"/>
</a>
</g>
</g>
<!-- Node3 -->
<g id="Node000003" class="node">
<title>Node3</title>
<g id="a_Node000003"><a xlink:href="../../d9/d5f/classfl_1_1_u_i_number_field.html#a12b085596ca5cb182bfe302597f32838" target="_top" xlink:title=" ">
<polygon fill="white" stroke="#666666" points="392.25,-33.5 285.5,-33.5 285.5,0 392.25,0 392.25,-33.5"/>
<text text-anchor="start" x="293.5" y="-20" font-family="Helvetica,sans-Serif" font-size="10.00">fl::UINumberField::</text>
<text text-anchor="middle" x="338.88" y="-7.25" font-family="Helvetica,sans-Serif" font-size="10.00">value</text>
</a>
</g>
</g>
<!-- Node1&#45;&gt;Node3 -->
<g id="edge3_Node000001_Node000003" class="edge">
<title>Node1&#45;&gt;Node3</title>
<g id="a_edge3_Node000001_Node000003"><a xlink:title=" ">
<path fill="none" stroke="#63b8ff" d="M107.17,-14.66C118.89,-14.28 131.24,-13.95 142.75,-13.75 190.19,-12.95 202.06,-12.95 249.5,-13.75 257.32,-13.88 265.54,-14.08 273.67,-14.31"/>
<polygon fill="#63b8ff" stroke="#63b8ff" points="273.46,-17.81 283.56,-14.62 273.68,-10.81 273.46,-17.81"/>
</a>
</g>
</g>
<!-- Node2&#45;&gt;Node3 -->
<g id="edge2_Node000002_Node000003" class="edge">
<title>Node2&#45;&gt;Node3</title>
<g id="a_edge2_Node000002_Node000003"><a xlink:title=" ">
<path fill="none" stroke="#63b8ff" d="M249.94,-31.12C257.78,-29.84 265.94,-28.5 273.98,-27.19"/>
<polygon fill="#63b8ff" stroke="#63b8ff" points="274.44,-30.66 283.74,-25.6 273.31,-23.75 274.44,-30.66"/>
</a>
</g>
</g>
</g>
</svg>
