<?xml version="1.0" encoding="UTF-8" standalone="no"?>
<!DOCTYPE svg PUBLIC "-//W3C//DTD SVG 1.1//EN"
 "http://www.w3.org/Graphics/SVG/1.1/DTD/svg11.dtd">
<!-- Generated by graphviz version 12.2.1 (20241206.2353)
 -->
<!-- Title: fl::UINumberField::value Pages: 1 -->
<svg width="400pt" height="144pt"
 viewBox="0.00 0.00 400.25 144.12" xmlns="http://www.w3.org/2000/svg" xmlns:xlink="http://www.w3.org/1999/xlink">
<g id="graph0" class="graph" transform="scale(1 1) rotate(0) translate(4 140.12)">
<title>fl::UINumberField::value</title>
<!-- Node1 -->
<g id="Node000001" class="node">
<title>Node1</title>
<g id="a_Node000001"><a xlink:title=" ">
<polygon fill="#999999" stroke="#666666" points="392.25,-81.5 285.5,-81.5 285.5,-48 392.25,-48 392.25,-81.5"/>
<text text-anchor="start" x="293.5" y="-68" font-family="Helvetica,sans-Serif" font-size="10.00">fl::UINumberField::</text>
<text text-anchor="middle" x="338.88" y="-55.25" font-family="Helvetica,sans-Serif" font-size="10.00">value</text>
</a>
</g>
</g>
<!-- Node2 -->
<g id="Node000002" class="node">
<title>Node2</title>
<g id="a_Node000002"><a xlink:href="../../dd/d96/_fx_animartrix_8ino.html#afe461d27b9c48d5921c00d521181f12f" target="_top" xlink:title=" ">
<polygon fill="white" stroke="#666666" points="214.62,-136.12 177.62,-136.12 177.62,-115.38 214.62,-115.38 214.62,-136.12"/>
<text text-anchor="middle" x="196.12" y="-122.62" font-family="Helvetica,sans-Serif" font-size="10.00">loop</text>
</a>
</g>
</g>
<!-- Node1&#45;&gt;Node2 -->
<g id="edge1_Node000001_Node000002" class="edge">
<title>Node1&#45;&gt;Node2</title>
<g id="a_edge1_Node000001_Node000002"><a xlink:title=" ">
<path fill="none" stroke="#63b8ff" d="M287.73,-86.48C262.44,-97.44 233.33,-110.06 215.09,-117.97"/>
<polygon fill="#63b8ff" stroke="#63b8ff" points="289.12,-89.69 296.9,-82.51 286.34,-83.27 289.12,-89.69"/>
</a>
</g>
</g>
<!-- Node3 -->
<g id="Node000003" class="node">
<title>Node3</title>
<g id="a_Node000003"><a xlink:href="../../d9/d5f/classfl_1_1_u_i_number_field.html#a32921ba224a5a7687a1125d826358e74" target="_top" xlink:title=" ">
<polygon fill="white" stroke="#666666" points="106.75,-94.5 0,-94.5 0,-61 106.75,-61 106.75,-94.5"/>
<text text-anchor="start" x="8" y="-81" font-family="Helvetica,sans-Serif" font-size="10.00">fl::UINumberField::</text>
<text text-anchor="middle" x="53.38" y="-68.25" font-family="Helvetica,sans-Serif" font-size="10.00">operator=</text>
</a>
</g>
</g>
<!-- Node1&#45;&gt;Node3 -->
<g id="edge2_Node000001_Node000003" class="edge">
<title>Node1&#45;&gt;Node3</title>
<g id="a_edge2_Node000001_Node000003"><a xlink:title=" ">
<path fill="none" stroke="#63b8ff" d="M273.83,-67.69C223.55,-69.99 154.39,-73.16 107.23,-75.33"/>
<polygon fill="#63b8ff" stroke="#63b8ff" points="273.87,-71.19 283.7,-67.23 273.55,-64.2 273.87,-71.19"/>
</a>
</g>
</g>
<!-- Node4 -->
<g id="Node000004" class="node">
<title>Node4</title>
<g id="a_Node000004"><a xlink:href="../../d9/d5f/classfl_1_1_u_i_number_field.html#a627eccbe042ab5195ff6a61a01e85952" target="_top" xlink:title=" ">
<polygon fill="white" stroke="#666666" points="106.75,-33.5 0,-33.5 0,0 106.75,0 106.75,-33.5"/>
<text text-anchor="start" x="8" y="-20" font-family="Helvetica,sans-Serif" font-size="10.00">fl::UINumberField::</text>
<text text-anchor="middle" x="53.38" y="-7.25" font-family="Helvetica,sans-Serif" font-size="10.00">operator=</text>
</a>
</g>
</g>
<!-- Node1&#45;&gt;Node4 -->
<g id="edge3_Node000001_Node000004" class="edge">
<title>Node1&#45;&gt;Node4</title>
<g id="a_edge3_Node000001_Node000004"><a xlink:title=" ">
<path fill="none" stroke="#63b8ff" d="M304.74,-41.63C288.81,-31.9 268.98,-21.7 249.5,-16.75 202.38,-4.78 146.78,-6.23 107.01,-9.82"/>
<polygon fill="#63b8ff" stroke="#63b8ff" points="302.51,-44.37 312.83,-46.77 306.26,-38.46 302.51,-44.37"/>
</a>
</g>
</g>
<!-- Node5 -->
<g id="Node000005" class="node">
<title>Node5</title>
<g id="a_Node000005"><a xlink:href="../../d9/d5f/classfl_1_1_u_i_number_field.html#ae3eb39add980947e8f91b380c29ec46b" target="_top" xlink:title=" ">
<polygon fill="white" stroke="#666666" points="249.5,-59.5 142.75,-59.5 142.75,-26 249.5,-26 249.5,-59.5"/>
<text text-anchor="start" x="150.75" y="-46" font-family="Helvetica,sans-Serif" font-size="10.00">fl::UINumberField::</text>
<text text-anchor="middle" x="196.12" y="-33.25" font-family="Helvetica,sans-Serif" font-size="10.00">setValue</text>
</a>
</g>
</g>
<!-- Node1&#45;&gt;Node5 -->
<g id="edge4_Node000001_Node000005" class="edge">
<title>Node1&#45;&gt;Node5</title>
<g id="a_edge4_Node000001_Node000005"><a xlink:title=" ">
<path fill="none" stroke="#63b8ff" d="M273.81,-54.74C265.76,-53.48 257.61,-52.2 249.76,-50.98"/>
<polygon fill="#63b8ff" stroke="#63b8ff" points="273.15,-58.18 283.57,-56.26 274.23,-51.26 273.15,-58.18"/>
</a>
</g>
</g>
<!-- Node5&#45;&gt;Node3 -->
<g id="edge5_Node000005_Node000003" class="edge">
<title>Node5&#45;&gt;Node3</title>
<g id="a_edge5_Node000005_Node000003"><a xlink:title=" ">
<path fill="none" stroke="#63b8ff" d="M131.34,-58.61C123.2,-60.64 114.95,-62.69 107.01,-64.66"/>
<polygon fill="#63b8ff" stroke="#63b8ff" points="131.99,-62.06 140.85,-56.25 130.3,-55.26 131.99,-62.06"/>
</a>
</g>
</g>
<!-- Node5&#45;&gt;Node4 -->
<g id="edge6_Node000005_Node000004" class="edge">
<title>Node5&#45;&gt;Node4</title>
<g id="a_edge6_Node000005_Node000004"><a xlink:title=" ">
<path fill="none" stroke="#63b8ff" d="M131.06,-30.92C123.01,-29.43 114.86,-27.92 107.01,-26.47"/>
<polygon fill="#63b8ff" stroke="#63b8ff" points="130.36,-34.34 140.83,-32.72 131.63,-27.46 130.36,-34.34"/>
</a>
</g>
</g>
</g>
</svg>
