<?xml version="1.0" encoding="UTF-8" standalone="no"?>
<!DOCTYPE svg PUBLIC "-//W3C//DTD SVG 1.1//EN"
 "http://www.w3.org/Graphics/SVG/1.1/DTD/svg11.dtd">
<!-- Generated by graphviz version 12.2.1 (20241206.2353)
 -->
<!-- Title: /home/runner/work/FastLED/FastLED/src/lib8tion/math8.h Pages: 1 -->
<svg width="608pt" height="269pt"
 viewBox="0.00 0.00 607.89 268.50" xmlns="http://www.w3.org/2000/svg" xmlns:xlink="http://www.w3.org/1999/xlink">
<g id="graph0" class="graph" transform="scale(1 1) rotate(0) translate(4 264.5)">
<title>/home/runner/work/FastLED/FastLED/src/lib8tion/math8.h</title>
<!-- Node1 -->
<g id="Node000001" class="node">
<title>Node1</title>
<g id="a_Node000001"><a xlink:title="Fast, efficient 8&#45;bit math functions specifically designed for high&#45;performance LED programming.">
<polygon fill="#999999" stroke="#666666" points="437.03,-260.5 279.28,-260.5 279.28,-227 437.03,-227 437.03,-260.5"/>
<text text-anchor="start" x="287.28" y="-247" font-family="Helvetica,sans-Serif" font-size="10.00">/home/runner/work/FastLED</text>
<text text-anchor="middle" x="358.16" y="-234.25" font-family="Helvetica,sans-Serif" font-size="10.00">/FastLED/src/lib8tion/math8.h</text>
</a>
</g>
</g>
<!-- Node2 -->
<g id="Node000002" class="node">
<title>Node2</title>
<g id="a_Node000002"><a xlink:href="../../db/d91/scale8_8h.html" target="_top" xlink:title="Fast, efficient 8&#45;bit scaling functions specifically designed for high&#45;performance LED programming.">
<polygon fill="white" stroke="#666666" points="414.41,-191 357.91,-191 357.91,-170.25 414.41,-170.25 414.41,-191"/>
<text text-anchor="middle" x="386.16" y="-177.5" font-family="Helvetica,sans-Serif" font-size="10.00">scale8.h</text>
</a>
</g>
</g>
<!-- Node1&#45;&gt;Node2 -->
<g id="edge1_Node000001_Node000002" class="edge">
<title>Node1&#45;&gt;Node2</title>
<g id="a_edge1_Node000001_Node000002"><a xlink:title=" ">
<path fill="none" stroke="#63b8ff" d="M365.52,-226.69C369,-219.09 373.19,-209.94 376.88,-201.87"/>
<polygon fill="#63b8ff" stroke="#63b8ff" points="380.04,-203.39 381.02,-192.84 373.67,-200.48 380.04,-203.39"/>
</a>
</g>
</g>
<!-- Node3 -->
<g id="Node000003" class="node">
<title>Node3</title>
<g id="a_Node000003"><a xlink:href="../../d4/d7a/lib8static_8h.html" target="_top" xlink:title="Defines static inlining macros for lib8tion functions.">
<polygon fill="white" stroke="#666666" points="326.16,-134.25 256.16,-134.25 256.16,-113.5 326.16,-113.5 326.16,-134.25"/>
<text text-anchor="middle" x="291.16" y="-120.75" font-family="Helvetica,sans-Serif" font-size="10.00">lib8static.h</text>
</a>
</g>
</g>
<!-- Node1&#45;&gt;Node3 -->
<g id="edge19_Node000001_Node000003" class="edge">
<title>Node1&#45;&gt;Node3</title>
<g id="a_edge19_Node000001_Node000003"><a xlink:title=" ">
<path fill="none" stroke="#63b8ff" d="M349.12,-226.85C336.97,-205.48 315.39,-167.5 302.26,-144.41"/>
<polygon fill="#63b8ff" stroke="#63b8ff" points="305.47,-142.96 297.48,-136 299.38,-146.42 305.47,-142.96"/>
</a>
</g>
</g>
<!-- Node7 -->
<g id="Node000007" class="node">
<title>Node7</title>
<g id="a_Node000007"><a xlink:href="../../df/d2a/namespace_8h.html" target="_top" xlink:title="Implements the FastLED namespace macros.">
<polygon fill="white" stroke="#666666" points="537.28,-20.75 447.03,-20.75 447.03,0 537.28,0 537.28,-20.75"/>
<text text-anchor="middle" x="492.16" y="-7.25" font-family="Helvetica,sans-Serif" font-size="10.00">fl/namespace.h</text>
</a>
</g>
</g>
<!-- Node1&#45;&gt;Node7 -->
<g id="edge24_Node000001_Node000007" class="edge">
<title>Node1&#45;&gt;Node7</title>
<g id="a_edge24_Node000001_Node000007"><a xlink:title=" ">
<path fill="none" stroke="#63b8ff" d="M437.31,-228.46C490.49,-214.3 556.74,-186.77 590.16,-134.25 597.45,-122.79 607.61,-85.19 589.16,-56.75 579.61,-42.04 563.93,-32 547.93,-25.2"/>
<polygon fill="#63b8ff" stroke="#63b8ff" points="549.44,-22.03 538.85,-21.72 546.93,-28.57 549.44,-22.03"/>
</a>
</g>
</g>
<!-- Node12 -->
<g id="Node000012" class="node">
<title>Node12</title>
<g id="a_Node000012"><a xlink:href="../../d8/d54/intmap_8h.html" target="_top" xlink:title="Defines integer mapping functions.">
<polygon fill="white" stroke="#666666" points="301.91,-191 242.41,-191 242.41,-170.25 301.91,-170.25 301.91,-191"/>
<text text-anchor="middle" x="272.16" y="-177.5" font-family="Helvetica,sans-Serif" font-size="10.00">intmap.h</text>
</a>
</g>
</g>
<!-- Node1&#45;&gt;Node12 -->
<g id="edge20_Node000001_Node000012" class="edge">
<title>Node1&#45;&gt;Node12</title>
<g id="a_edge20_Node000001_Node000012"><a xlink:title=" ">
<path fill="none" stroke="#63b8ff" d="M335.56,-226.69C323.15,-217.87 307.79,-206.95 295.3,-198.07"/>
<polygon fill="#63b8ff" stroke="#63b8ff" points="297.42,-195.28 287.24,-192.34 293.36,-200.99 297.42,-195.28"/>
</a>
</g>
</g>
<!-- Node2&#45;&gt;Node3 -->
<g id="edge2_Node000002_Node000003" class="edge">
<title>Node2&#45;&gt;Node3</title>
<g id="a_edge2_Node000002_Node000003"><a xlink:title=" ">
<path fill="none" stroke="#63b8ff" d="M369.17,-169.84C354.86,-161.58 334.12,-149.63 317.62,-140.13"/>
<polygon fill="#63b8ff" stroke="#63b8ff" points="319.72,-137.3 309.31,-135.33 316.22,-143.36 319.72,-137.3"/>
</a>
</g>
</g>
<!-- Node4 -->
<g id="Node000004" class="node">
<title>Node4</title>
<g id="a_Node000004"><a xlink:href="../../db/dd1/crgb_8h.html" target="_top" xlink:title="Defines the red, green, and blue (RGB) pixel struct.">
<polygon fill="white" stroke="#666666" points="390.16,-134.25 344.16,-134.25 344.16,-113.5 390.16,-113.5 390.16,-134.25"/>
<text text-anchor="middle" x="367.16" y="-120.75" font-family="Helvetica,sans-Serif" font-size="10.00">crgb.h</text>
</a>
</g>
</g>
<!-- Node2&#45;&gt;Node4 -->
<g id="edge3_Node000002_Node000004" class="edge">
<title>Node2&#45;&gt;Node4</title>
<g id="a_edge3_Node000002_Node000004"><a xlink:title=" ">
<path fill="none" stroke="#63b8ff" d="M382.76,-169.84C380.41,-163.06 377.2,-153.8 374.3,-145.44"/>
<polygon fill="#63b8ff" stroke="#63b8ff" points="377.61,-144.31 371.02,-136.01 370.99,-146.6 377.61,-144.31"/>
</a>
</g>
</g>
<!-- Node2&#45;&gt;Node7 -->
<g id="edge18_Node000002_Node000007" class="edge">
<title>Node2&#45;&gt;Node7</title>
<g id="a_edge18_Node000002_Node000007"><a xlink:title=" ">
<path fill="none" stroke="#63b8ff" d="M414.55,-176.83C461.27,-171.59 551.14,-158.53 570.16,-134.25 591.4,-107.13 587.33,-86.61 570.16,-56.75 562.18,-42.87 548.14,-32.84 534.15,-25.8"/>
<polygon fill="#63b8ff" stroke="#63b8ff" points="535.99,-22.79 525.44,-21.82 533.08,-29.16 535.99,-22.79"/>
</a>
</g>
</g>
<!-- Node5 -->
<g id="Node000005" class="node">
<title>Node5</title>
<g id="a_Node000005"><a xlink:title=" ">
<polygon fill="#e0e0e0" stroke="#999999" points="185.53,-20.75 132.78,-20.75 132.78,0 185.53,0 185.53,-20.75"/>
<text text-anchor="middle" x="159.16" y="-7.25" font-family="Helvetica,sans-Serif" font-size="10.00">stdint.h</text>
</a>
</g>
</g>
<!-- Node4&#45;&gt;Node5 -->
<g id="edge4_Node000004_Node000005" class="edge">
<title>Node4&#45;&gt;Node5</title>
<g id="a_edge4_Node000004_Node000005"><a xlink:title=" ">
<path fill="none" stroke="#63b8ff" d="M343.86,-115.54C340.95,-114.78 338,-114.07 335.16,-113.5 265.44,-99.45 64.53,-130.54 17.16,-77.5 -15.6,-40.82 68.77,-22.97 121.14,-15.64"/>
<polygon fill="#63b8ff" stroke="#63b8ff" points="121.45,-19.13 130.91,-14.36 120.54,-12.19 121.45,-19.13"/>
</a>
</g>
</g>
<!-- Node6 -->
<g id="Node000006" class="node">
<title>Node6</title>
<g id="a_Node000006"><a xlink:href="../../d8/dd0/chsv_8h.html" target="_top" xlink:title="Defines the hue, saturation, and value (HSV) pixel struct.">
<polygon fill="white" stroke="#666666" points="182.53,-77.5 135.78,-77.5 135.78,-56.75 182.53,-56.75 182.53,-77.5"/>
<text text-anchor="middle" x="159.16" y="-64" font-family="Helvetica,sans-Serif" font-size="10.00">chsv.h</text>
</a>
</g>
</g>
<!-- Node4&#45;&gt;Node6 -->
<g id="edge5_Node000004_Node000006" class="edge">
<title>Node4&#45;&gt;Node6</title>
<g id="a_edge5_Node000004_Node000006"><a xlink:title=" ">
<path fill="none" stroke="#63b8ff" d="M343.77,-115.91C340.88,-115.08 337.95,-114.26 335.16,-113.5 274.85,-97.13 256.71,-94.97 193.83,-78.15"/>
<polygon fill="#63b8ff" stroke="#63b8ff" points="194.92,-74.82 184.36,-75.59 193.1,-81.57 194.92,-74.82"/>
</a>
</g>
</g>
<!-- Node4&#45;&gt;Node7 -->
<g id="edge8_Node000004_Node000007" class="edge">
<title>Node4&#45;&gt;Node7</title>
<g id="a_edge8_Node000004_Node000007"><a xlink:title=" ">
<path fill="none" stroke="#63b8ff" d="M390.52,-122.52C421.28,-120.64 474.38,-112.22 499.16,-77.5 508.59,-64.29 505.55,-45.64 500.89,-31.51"/>
<polygon fill="#63b8ff" stroke="#63b8ff" points="504.22,-30.43 497.38,-22.34 497.69,-32.93 504.22,-30.43"/>
</a>
</g>
</g>
<!-- Node8 -->
<g id="Node000008" class="node">
<title>Node8</title>
<g id="a_Node000008"><a xlink:href="../../d2/d6b/src_2color_8h.html" target="_top" xlink:title="Contains definitions for color correction and temperature.">
<polygon fill="white" stroke="#666666" points="490.28,-77.5 442.03,-77.5 442.03,-56.75 490.28,-56.75 490.28,-77.5"/>
<text text-anchor="middle" x="466.16" y="-64" font-family="Helvetica,sans-Serif" font-size="10.00">color.h</text>
</a>
</g>
</g>
<!-- Node4&#45;&gt;Node8 -->
<g id="edge9_Node000004_Node000008" class="edge">
<title>Node4&#45;&gt;Node8</title>
<g id="a_edge9_Node000004_Node000008"><a xlink:title=" ">
<path fill="none" stroke="#63b8ff" d="M384.86,-113.09C399.78,-104.83 421.39,-92.88 438.58,-83.38"/>
<polygon fill="#63b8ff" stroke="#63b8ff" points="440.23,-86.46 447.29,-78.56 436.84,-80.34 440.23,-86.46"/>
</a>
</g>
</g>
<!-- Node9 -->
<g id="Node000009" class="node">
<title>Node9</title>
<g id="a_Node000009"><a xlink:href="../../d9/ddf/lib8tion_2types_8h.html" target="_top" xlink:title="Defines fractional types used for lib8tion functions.">
<polygon fill="white" stroke="#666666" points="292.03,-77.5 200.28,-77.5 200.28,-56.75 292.03,-56.75 292.03,-77.5"/>
<text text-anchor="middle" x="246.16" y="-64" font-family="Helvetica,sans-Serif" font-size="10.00">lib8tion/types.h</text>
</a>
</g>
</g>
<!-- Node4&#45;&gt;Node9 -->
<g id="edge11_Node000004_Node000009" class="edge">
<title>Node4&#45;&gt;Node9</title>
<g id="a_edge11_Node000004_Node000009"><a xlink:title=" ">
<path fill="none" stroke="#63b8ff" d="M345.53,-113.09C326.69,-104.56 299.12,-92.09 277.8,-82.44"/>
<polygon fill="#63b8ff" stroke="#63b8ff" points="279.54,-79.39 268.98,-78.45 276.65,-85.76 279.54,-79.39"/>
</a>
</g>
</g>
<!-- Node10 -->
<g id="Node000010" class="node">
<title>Node10</title>
<g id="a_Node000010"><a xlink:href="../../d8/d2d/fl_2force__inline_8h.html" target="_top" xlink:title=" ">
<polygon fill="white" stroke="#666666" points="117.66,-77.5 26.66,-77.5 26.66,-56.75 117.66,-56.75 117.66,-77.5"/>
<text text-anchor="middle" x="72.16" y="-64" font-family="Helvetica,sans-Serif" font-size="10.00">fl/force_inline.h</text>
</a>
</g>
</g>
<!-- Node4&#45;&gt;Node10 -->
<g id="edge14_Node000004_Node000010" class="edge">
<title>Node4&#45;&gt;Node10</title>
<g id="a_edge14_Node000004_Node000010"><a xlink:title=" ">
<path fill="none" stroke="#63b8ff" d="M343.82,-115.7C340.92,-114.91 337.98,-114.15 335.16,-113.5 330.14,-112.34 205.13,-90.88 129.3,-77.9"/>
<polygon fill="#63b8ff" stroke="#63b8ff" points="129.97,-74.46 119.52,-76.23 128.79,-81.36 129.97,-74.46"/>
</a>
</g>
</g>
<!-- Node11 -->
<g id="Node000011" class="node">
<title>Node11</title>
<g id="a_Node000011"><a xlink:href="../../d8/d0c/template__magic_8h.html" target="_top" xlink:title=" ">
<polygon fill="white" stroke="#666666" points="423.91,-77.5 310.41,-77.5 310.41,-56.75 423.91,-56.75 423.91,-77.5"/>
<text text-anchor="middle" x="367.16" y="-64" font-family="Helvetica,sans-Serif" font-size="10.00">fl/template_magic.h</text>
</a>
</g>
</g>
<!-- Node4&#45;&gt;Node11 -->
<g id="edge15_Node000004_Node000011" class="edge">
<title>Node4&#45;&gt;Node11</title>
<g id="a_edge15_Node000004_Node000011"><a xlink:title=" ">
<path fill="none" stroke="#63b8ff" d="M367.16,-113.09C367.16,-106.47 367.16,-97.47 367.16,-89.27"/>
<polygon fill="#63b8ff" stroke="#63b8ff" points="370.66,-89.34 367.16,-79.34 363.66,-89.34 370.66,-89.34"/>
</a>
</g>
</g>
<!-- Node6&#45;&gt;Node5 -->
<g id="edge6_Node000006_Node000005" class="edge">
<title>Node6&#45;&gt;Node5</title>
<g id="a_edge6_Node000006_Node000005"><a xlink:title=" ">
<path fill="none" stroke="#63b8ff" d="M159.16,-56.34C159.16,-49.72 159.16,-40.72 159.16,-32.52"/>
<polygon fill="#63b8ff" stroke="#63b8ff" points="162.66,-32.59 159.16,-22.59 155.66,-32.59 162.66,-32.59"/>
</a>
</g>
</g>
<!-- Node6&#45;&gt;Node7 -->
<g id="edge7_Node000006_Node000007" class="edge">
<title>Node6&#45;&gt;Node7</title>
<g id="a_edge7_Node000006_Node000007"><a xlink:title=" ">
<path fill="none" stroke="#63b8ff" d="M182.83,-58.8C185.62,-58.05 188.45,-57.35 191.16,-56.75 275.39,-38.15 374.58,-24.82 435.41,-17.61"/>
<polygon fill="#63b8ff" stroke="#63b8ff" points="435.65,-21.1 445.17,-16.46 434.84,-14.15 435.65,-21.1"/>
</a>
</g>
</g>
<!-- Node8&#45;&gt;Node7 -->
<g id="edge10_Node000008_Node000007" class="edge">
<title>Node8&#45;&gt;Node7</title>
<g id="a_edge10_Node000008_Node000007"><a xlink:title=" ">
<path fill="none" stroke="#63b8ff" d="M470.81,-56.34C474.1,-49.41 478.63,-39.87 482.67,-31.36"/>
<polygon fill="#63b8ff" stroke="#63b8ff" points="485.77,-32.98 486.9,-22.45 479.45,-29.98 485.77,-32.98"/>
</a>
</g>
</g>
<!-- Node9&#45;&gt;Node5 -->
<g id="edge12_Node000009_Node000005" class="edge">
<title>Node9&#45;&gt;Node5</title>
<g id="a_edge12_Node000009_Node000005"><a xlink:title=" ">
<path fill="none" stroke="#63b8ff" d="M230.61,-56.34C217.74,-48.24 199.22,-36.58 184.25,-27.17"/>
<polygon fill="#63b8ff" stroke="#63b8ff" points="186.19,-24.25 175.86,-21.88 182.46,-30.17 186.19,-24.25"/>
</a>
</g>
</g>
<!-- Node9&#45;&gt;Node7 -->
<g id="edge13_Node000009_Node000007" class="edge">
<title>Node9&#45;&gt;Node7</title>
<g id="a_edge13_Node000009_Node000007"><a xlink:title=" ">
<path fill="none" stroke="#63b8ff" d="M290.42,-56.27C331.4,-47.15 392.49,-33.56 436.7,-23.72"/>
<polygon fill="#63b8ff" stroke="#63b8ff" points="437.36,-27.16 446.36,-21.57 435.84,-20.32 437.36,-27.16"/>
</a>
</g>
</g>
<!-- Node11&#45;&gt;Node5 -->
<g id="edge16_Node000011_Node000005" class="edge">
<title>Node11&#45;&gt;Node5</title>
<g id="a_edge16_Node000011_Node000005"><a xlink:title=" ">
<path fill="none" stroke="#63b8ff" d="M329.97,-56.34C292.38,-46.44 234.59,-31.23 196.82,-21.29"/>
<polygon fill="#63b8ff" stroke="#63b8ff" points="197.82,-17.93 187.26,-18.77 196.03,-24.7 197.82,-17.93"/>
</a>
</g>
</g>
<!-- Node11&#45;&gt;Node7 -->
<g id="edge17_Node000011_Node000007" class="edge">
<title>Node11&#45;&gt;Node7</title>
<g id="a_edge17_Node000011_Node000007"><a xlink:title=" ">
<path fill="none" stroke="#63b8ff" d="M389.51,-56.34C408.97,-47.81 437.44,-35.34 459.47,-25.69"/>
<polygon fill="#63b8ff" stroke="#63b8ff" points="460.86,-28.9 468.62,-21.69 458.05,-22.49 460.86,-28.9"/>
</a>
</g>
</g>
<!-- Node12&#45;&gt;Node3 -->
<g id="edge22_Node000012_Node000003" class="edge">
<title>Node12&#45;&gt;Node3</title>
<g id="a_edge22_Node000012_Node000003"><a xlink:title=" ">
<path fill="none" stroke="#63b8ff" d="M275.56,-169.84C277.91,-163.06 281.12,-153.8 284.02,-145.44"/>
<polygon fill="#63b8ff" stroke="#63b8ff" points="287.32,-146.6 287.3,-136.01 280.71,-144.31 287.32,-146.6"/>
</a>
</g>
</g>
<!-- Node12&#45;&gt;Node5 -->
<g id="edge23_Node000012_Node000005" class="edge">
<title>Node12&#45;&gt;Node5</title>
<g id="a_edge23_Node000012_Node000005"><a xlink:title=" ">
<path fill="none" stroke="#63b8ff" d="M242.03,-178.44C184.6,-174.36 60.37,-156.39 6.16,-77.5 -23.77,-33.95 66.84,-18.89 121.26,-13.83"/>
<polygon fill="#63b8ff" stroke="#63b8ff" points="121.41,-17.33 131.08,-12.99 120.82,-10.35 121.41,-17.33"/>
</a>
</g>
</g>
<!-- Node12&#45;&gt;Node7 -->
<g id="edge21_Node000012_Node000007" class="edge">
<title>Node12&#45;&gt;Node7</title>
<g id="a_edge21_Node000012_Node000007"><a xlink:title=" ">
<path fill="none" stroke="#63b8ff" d="M302.15,-171.71C361.93,-155.24 492.27,-115.64 516.16,-77.5 525.44,-62.68 516.83,-43.74 507.43,-29.93"/>
<polygon fill="#63b8ff" stroke="#63b8ff" points="510.39,-28.05 501.61,-22.13 504.79,-32.24 510.39,-28.05"/>
</a>
</g>
</g>
</g>
</svg>
