<?xml version="1.0" encoding="UTF-8" standalone="no"?>
<!DOCTYPE svg PUBLIC "-//W3C//DTD SVG 1.1//EN"
 "http://www.w3.org/Graphics/SVG/1.1/DTD/svg11.dtd">
<!-- Generated by graphviz version 12.2.1 (20241206.2353)
 -->
<!-- Title: /home/runner/work/FastLED/FastLED/src/fl/rectangular_draw_buffer.cpp Pages: 1 -->
<svg width="1037pt" height="351pt"
 viewBox="0.00 0.00 1036.68 350.75" xmlns="http://www.w3.org/2000/svg" xmlns:xlink="http://www.w3.org/1999/xlink">
<g id="graph0" class="graph" transform="scale(1 1) rotate(0) translate(4 346.75)">
<title>/home/runner/work/FastLED/FastLED/src/fl/rectangular_draw_buffer.cpp</title>
<!-- Node1 -->
<g id="Node000001" class="node">
<title>Node1</title>
<g id="a_Node000001"><a xlink:title=" ">
<polygon fill="#999999" stroke="#666666" points="676.93,-342.75 527.43,-342.75 527.43,-296.5 676.93,-296.5 676.93,-342.75"/>
<text text-anchor="start" x="535.43" y="-329.25" font-family="Helvetica,sans-Serif" font-size="10.00">/home/runner/work/FastLED</text>
<text text-anchor="start" x="535.43" y="-316.5" font-family="Helvetica,sans-Serif" font-size="10.00">/FastLED/src/fl/rectangular</text>
<text text-anchor="middle" x="602.18" y="-303.75" font-family="Helvetica,sans-Serif" font-size="10.00">_draw_buffer.cpp</text>
</a>
</g>
</g>
<!-- Node2 -->
<g id="Node000002" class="node">
<title>Node2</title>
<g id="a_Node000002"><a xlink:href="../../d9/df3/rectangular__draw__buffer_8h.html" target="_top" xlink:title=" ">
<polygon fill="white" stroke="#666666" points="488.06,-260.5 378.31,-260.5 378.31,-227 488.06,-227 488.06,-260.5"/>
<text text-anchor="start" x="386.31" y="-247" font-family="Helvetica,sans-Serif" font-size="10.00">fl/rectangular_draw</text>
<text text-anchor="middle" x="433.18" y="-234.25" font-family="Helvetica,sans-Serif" font-size="10.00">_buffer.h</text>
</a>
</g>
</g>
<!-- Node1&#45;&gt;Node2 -->
<g id="edge1_Node000001_Node000002" class="edge">
<title>Node1&#45;&gt;Node2</title>
<g id="a_edge1_Node000001_Node000002"><a xlink:title=" ">
<path fill="none" stroke="#63b8ff" d="M550.56,-296.06C528.28,-286.32 502.4,-275.01 480.62,-265.49"/>
<polygon fill="#63b8ff" stroke="#63b8ff" points="482.24,-262.37 471.67,-261.58 479.43,-268.79 482.24,-262.37"/>
</a>
</g>
</g>
<!-- Node6 -->
<g id="Node000006" class="node">
<title>Node6</title>
<g id="a_Node000006"><a xlink:href="../../df/d2a/namespace_8h.html" target="_top" xlink:title="Implements the FastLED namespace macros.">
<polygon fill="white" stroke="#666666" points="783.31,-20.75 693.06,-20.75 693.06,0 783.31,0 783.31,-20.75"/>
<text text-anchor="middle" x="738.18" y="-7.25" font-family="Helvetica,sans-Serif" font-size="10.00">fl/namespace.h</text>
</a>
</g>
</g>
<!-- Node1&#45;&gt;Node6 -->
<g id="edge27_Node000001_Node000006" class="edge">
<title>Node1&#45;&gt;Node6</title>
<g id="a_edge27_Node000001_Node000006"><a xlink:title=" ">
<path fill="none" stroke="#63b8ff" d="M677.4,-298.86C732.67,-279.26 798.18,-243.07 798.18,-181.62 798.18,-181.62 798.18,-181.62 798.18,-122.88 798.18,-86.46 773.06,-50.49 755.33,-29.64"/>
<polygon fill="#63b8ff" stroke="#63b8ff" points="758.08,-27.46 748.83,-22.3 752.84,-32.1 758.08,-27.46"/>
</a>
</g>
</g>
<!-- Node27 -->
<g id="Node000027" class="node">
<title>Node27</title>
<g id="a_Node000027"><a xlink:href="../../d7/dbb/rgbw_8h.html" target="_top" xlink:title="Functions for red, green, blue, white (RGBW) output.">
<polygon fill="white" stroke="#666666" points="874.31,-134.25 826.06,-134.25 826.06,-113.5 874.31,-113.5 874.31,-134.25"/>
<text text-anchor="middle" x="850.18" y="-120.75" font-family="Helvetica,sans-Serif" font-size="10.00">rgbw.h</text>
</a>
</g>
</g>
<!-- Node1&#45;&gt;Node27 -->
<g id="edge28_Node000001_Node000027" class="edge">
<title>Node1&#45;&gt;Node27</title>
<g id="a_edge28_Node000001_Node000027"><a xlink:title=" ">
<path fill="none" stroke="#63b8ff" d="M677.37,-315.74C722.09,-310.11 776.82,-295.75 812.18,-260.5 843.11,-229.67 849.38,-175.86 850.34,-146.13"/>
<polygon fill="#63b8ff" stroke="#63b8ff" points="853.84,-146.22 850.47,-136.18 846.84,-146.13 853.84,-146.22"/>
</a>
</g>
</g>
<!-- Node29 -->
<g id="Node000029" class="node">
<title>Node29</title>
<g id="a_Node000029"><a xlink:href="../../d2/d6f/fl_2allocator_8h.html" target="_top" xlink:title=" ">
<polygon fill="white" stroke="#666666" points="76.18,-254.12 0.18,-254.12 0.18,-233.38 76.18,-233.38 76.18,-254.12"/>
<text text-anchor="middle" x="38.18" y="-240.62" font-family="Helvetica,sans-Serif" font-size="10.00">fl/allocator.h</text>
</a>
</g>
</g>
<!-- Node1&#45;&gt;Node29 -->
<g id="edge34_Node000001_Node000029" class="edge">
<title>Node1&#45;&gt;Node29</title>
<g id="a_edge34_Node000001_Node000029"><a xlink:title=" ">
<path fill="none" stroke="#63b8ff" d="M527,-308.78C409.73,-293.42 186.48,-264.17 87.52,-251.21"/>
<polygon fill="#63b8ff" stroke="#63b8ff" points="88.23,-247.78 77.86,-249.95 87.32,-254.72 88.23,-247.78"/>
</a>
</g>
</g>
<!-- Node3 -->
<g id="Node000003" class="node">
<title>Node3</title>
<g id="a_Node000003"><a xlink:title=" ">
<polygon fill="#e0e0e0" stroke="#999999" points="605.56,-77.5 552.81,-77.5 552.81,-56.75 605.56,-56.75 605.56,-77.5"/>
<text text-anchor="middle" x="579.18" y="-64" font-family="Helvetica,sans-Serif" font-size="10.00">stdint.h</text>
</a>
</g>
</g>
<!-- Node2&#45;&gt;Node3 -->
<g id="edge2_Node000002_Node000003" class="edge">
<title>Node2&#45;&gt;Node3</title>
<g id="a_edge2_Node000002_Node000003"><a xlink:title=" ">
<path fill="none" stroke="#63b8ff" d="M456.17,-226.75C482.44,-207.45 525.29,-172.76 552.18,-134.25 561.96,-120.25 569.03,-102.19 573.47,-88.48"/>
<polygon fill="#63b8ff" stroke="#63b8ff" points="576.73,-89.79 576.27,-79.21 570.03,-87.77 576.73,-89.79"/>
</a>
</g>
</g>
<!-- Node4 -->
<g id="Node000004" class="node">
<title>Node4</title>
<g id="a_Node000004"><a xlink:href="../../dc/db7/map_8h.html" target="_top" xlink:title=" ">
<polygon fill="white" stroke="#666666" points="461.06,-191 405.31,-191 405.31,-170.25 461.06,-170.25 461.06,-191"/>
<text text-anchor="middle" x="433.18" y="-177.5" font-family="Helvetica,sans-Serif" font-size="10.00">fl/map.h</text>
</a>
</g>
</g>
<!-- Node2&#45;&gt;Node4 -->
<g id="edge3_Node000002_Node000004" class="edge">
<title>Node2&#45;&gt;Node4</title>
<g id="a_edge3_Node000002_Node000004"><a xlink:title=" ">
<path fill="none" stroke="#63b8ff" d="M433.18,-226.69C433.18,-219.35 433.18,-210.57 433.18,-202.71"/>
<polygon fill="#63b8ff" stroke="#63b8ff" points="436.68,-202.98 433.18,-192.98 429.68,-202.98 436.68,-202.98"/>
</a>
</g>
</g>
<!-- Node2&#45;&gt;Node6 -->
<g id="edge26_Node000002_Node000006" class="edge">
<title>Node2&#45;&gt;Node6</title>
<g id="a_edge26_Node000002_Node000006"><a xlink:title=" ">
<path fill="none" stroke="#63b8ff" d="M488.34,-241.4C560.27,-236.31 683.69,-215.46 741.18,-134.25 762.58,-104.03 753.59,-58.32 745.58,-32.01"/>
<polygon fill="#63b8ff" stroke="#63b8ff" points="748.91,-30.94 742.44,-22.54 742.26,-33.14 748.91,-30.94"/>
</a>
</g>
</g>
<!-- Node7 -->
<g id="Node000007" class="node">
<title>Node7</title>
<g id="a_Node000007"><a xlink:href="../../d6/d68/vector_8h.html" target="_top" xlink:title=" ">
<polygon fill="#fff0f0" stroke="red" points="296.18,-134.25 232.18,-134.25 232.18,-113.5 296.18,-113.5 296.18,-134.25"/>
<text text-anchor="middle" x="264.18" y="-120.75" font-family="Helvetica,sans-Serif" font-size="10.00">fl/vector.h</text>
</a>
</g>
</g>
<!-- Node2&#45;&gt;Node7 -->
<g id="edge25_Node000002_Node000007" class="edge">
<title>Node2&#45;&gt;Node7</title>
<g id="a_edge25_Node000002_Node000007"><a xlink:title=" ">
<path fill="none" stroke="#63b8ff" d="M410.04,-226.61C377.76,-204.09 319.56,-163.5 287.3,-141"/>
<polygon fill="#63b8ff" stroke="#63b8ff" points="289.62,-138.35 279.42,-135.5 285.62,-144.09 289.62,-138.35"/>
</a>
</g>
</g>
<!-- Node9 -->
<g id="Node000009" class="node">
<title>Node9</title>
<g id="a_Node000009"><a xlink:href="../../df/d28/fl_2scoped__ptr_8h.html" target="_top" xlink:title=" ">
<polygon fill="white" stroke="#666666" points="336.43,-77.5 249.93,-77.5 249.93,-56.75 336.43,-56.75 336.43,-77.5"/>
<text text-anchor="middle" x="293.18" y="-64" font-family="Helvetica,sans-Serif" font-size="10.00">fl/scoped_ptr.h</text>
</a>
</g>
</g>
<!-- Node2&#45;&gt;Node9 -->
<g id="edge21_Node000002_Node000009" class="edge">
<title>Node2&#45;&gt;Node9</title>
<g id="a_edge21_Node000002_Node000009"><a xlink:title=" ">
<path fill="none" stroke="#63b8ff" d="M378.02,-242.72C302.85,-239.3 170.78,-220.52 111.18,-134.25 78.06,-86.3 173.24,-72.97 238.15,-69.36"/>
<polygon fill="#63b8ff" stroke="#63b8ff" points="238.15,-72.86 247.97,-68.88 237.81,-65.87 238.15,-72.86"/>
</a>
</g>
</g>
<!-- Node26 -->
<g id="Node000026" class="node">
<title>Node26</title>
<g id="a_Node000026"><a xlink:href="../../db/d37/fl_2slice_8h.html" target="_top" xlink:title=" ">
<polygon fill="white" stroke="#666666" points="176.43,-134.25 119.93,-134.25 119.93,-113.5 176.43,-113.5 176.43,-134.25"/>
<text text-anchor="middle" x="148.18" y="-120.75" font-family="Helvetica,sans-Serif" font-size="10.00">fl/slice.h</text>
</a>
</g>
</g>
<!-- Node2&#45;&gt;Node26 -->
<g id="edge22_Node000002_Node000026" class="edge">
<title>Node2&#45;&gt;Node26</title>
<g id="a_edge22_Node000002_Node000026"><a xlink:title=" ">
<path fill="none" stroke="#63b8ff" d="M394.15,-226.61C338.07,-203.41 235.62,-161.04 182.37,-139.01"/>
<polygon fill="#63b8ff" stroke="#63b8ff" points="183.76,-135.8 173.18,-135.21 181.08,-142.27 183.76,-135.8"/>
</a>
</g>
</g>
<!-- Node4&#45;&gt;Node3 -->
<g id="edge4_Node000004_Node000003" class="edge">
<title>Node4&#45;&gt;Node3</title>
<g id="a_edge4_Node000004_Node000003"><a xlink:title=" ">
<path fill="none" stroke="#63b8ff" d="M461.34,-170.19C481.35,-162.57 508.14,-150.45 528.18,-134.25 544.51,-121.05 558.69,-101.62 567.92,-87.23"/>
<polygon fill="#63b8ff" stroke="#63b8ff" points="570.67,-89.45 572.94,-79.1 564.71,-85.78 570.67,-89.45"/>
</a>
</g>
</g>
<!-- Node5 -->
<g id="Node000005" class="node">
<title>Node5</title>
<g id="a_Node000005"><a xlink:title=" ">
<polygon fill="#e0e0e0" stroke="#999999" points="211.68,-20.75 156.68,-20.75 156.68,0 211.68,0 211.68,-20.75"/>
<text text-anchor="middle" x="184.18" y="-7.25" font-family="Helvetica,sans-Serif" font-size="10.00">stddef.h</text>
</a>
</g>
</g>
<!-- Node4&#45;&gt;Node5 -->
<g id="edge5_Node000004_Node000005" class="edge">
<title>Node4&#45;&gt;Node5</title>
<g id="a_edge5_Node000004_Node000005"><a xlink:title=" ">
<path fill="none" stroke="#63b8ff" d="M404.94,-177.01C354.01,-171.75 249.6,-158.28 223.18,-134.25 194.17,-107.86 186.6,-60.02 184.71,-32.46"/>
<polygon fill="#63b8ff" stroke="#63b8ff" points="188.22,-32.4 184.25,-22.57 181.22,-32.73 188.22,-32.4"/>
</a>
</g>
</g>
<!-- Node4&#45;&gt;Node6 -->
<g id="edge6_Node000004_Node000006" class="edge">
<title>Node4&#45;&gt;Node6</title>
<g id="a_edge6_Node000004_Node000006"><a xlink:title=" ">
<path fill="none" stroke="#63b8ff" d="M449.78,-169.91C463.09,-161.59 481.71,-148.68 495.18,-134.25 523,-104.47 510.98,-80.37 544.18,-56.75 584.37,-28.16 639.98,-17.34 681.36,-13.37"/>
<polygon fill="#63b8ff" stroke="#63b8ff" points="681.45,-16.87 691.12,-12.54 680.86,-9.9 681.45,-16.87"/>
</a>
</g>
</g>
<!-- Node4&#45;&gt;Node7 -->
<g id="edge7_Node000004_Node000007" class="edge">
<title>Node4&#45;&gt;Node7</title>
<g id="a_edge7_Node000004_Node000007"><a xlink:title=" ">
<path fill="none" stroke="#63b8ff" d="M404.89,-170.46C377.7,-161.65 336.28,-148.23 305.41,-138.23"/>
<polygon fill="#63b8ff" stroke="#63b8ff" points="306.59,-134.94 296,-135.18 304.44,-141.59 306.59,-134.94"/>
</a>
</g>
</g>
<!-- Node10 -->
<g id="Node000010" class="node">
<title>Node10</title>
<g id="a_Node000010"><a xlink:href="../../d1/d22/insert__result_8h.html" target="_top" xlink:title=" ">
<polygon fill="white" stroke="#666666" points="486.56,-77.5 391.81,-77.5 391.81,-56.75 486.56,-56.75 486.56,-77.5"/>
<text text-anchor="middle" x="439.18" y="-64" font-family="Helvetica,sans-Serif" font-size="10.00">fl/insert_result.h</text>
</a>
</g>
</g>
<!-- Node4&#45;&gt;Node10 -->
<g id="edge18_Node000004_Node000010" class="edge">
<title>Node4&#45;&gt;Node10</title>
<g id="a_edge18_Node000004_Node000010"><a xlink:title=" ">
<path fill="none" stroke="#63b8ff" d="M404.99,-172.13C372.37,-161.96 325.28,-141.75 343.18,-113.5 352.49,-98.81 367.97,-88.78 383.82,-81.98"/>
<polygon fill="#63b8ff" stroke="#63b8ff" points="384.74,-85.37 392.81,-78.5 382.22,-78.85 384.74,-85.37"/>
</a>
</g>
</g>
<!-- Node11 -->
<g id="Node000011" class="node">
<title>Node11</title>
<g id="a_Node000011"><a xlink:href="../../d8/d0c/template__magic_8h.html" target="_top" xlink:title=" ">
<polygon fill="white" stroke="#666666" points="731.93,-134.25 618.43,-134.25 618.43,-113.5 731.93,-113.5 731.93,-134.25"/>
<text text-anchor="middle" x="675.18" y="-120.75" font-family="Helvetica,sans-Serif" font-size="10.00">fl/template_magic.h</text>
</a>
</g>
</g>
<!-- Node4&#45;&gt;Node11 -->
<g id="edge15_Node000004_Node000011" class="edge">
<title>Node4&#45;&gt;Node11</title>
<g id="a_edge15_Node000004_Node000011"><a xlink:title=" ">
<path fill="none" stroke="#63b8ff" d="M461.42,-173.24C500.28,-164.44 571.06,-148.43 620.48,-137.25"/>
<polygon fill="#63b8ff" stroke="#63b8ff" points="621.16,-140.68 630.14,-135.06 619.62,-133.86 621.16,-140.68"/>
</a>
</g>
</g>
<!-- Node12 -->
<g id="Node000012" class="node">
<title>Node12</title>
<g id="a_Node000012"><a xlink:href="../../d3/d41/pair_8h.html" target="_top" xlink:title=" ">
<polygon fill="white" stroke="#666666" points="486.18,-134.25 434.18,-134.25 434.18,-113.5 486.18,-113.5 486.18,-134.25"/>
<text text-anchor="middle" x="460.18" y="-120.75" font-family="Helvetica,sans-Serif" font-size="10.00">fl/pair.h</text>
</a>
</g>
</g>
<!-- Node4&#45;&gt;Node12 -->
<g id="edge19_Node000004_Node000012" class="edge">
<title>Node4&#45;&gt;Node12</title>
<g id="a_edge19_Node000004_Node000012"><a xlink:title=" ">
<path fill="none" stroke="#63b8ff" d="M438.01,-169.84C441.43,-162.91 446.13,-153.37 450.32,-144.86"/>
<polygon fill="#63b8ff" stroke="#63b8ff" points="453.44,-146.45 454.73,-135.94 447.17,-143.36 453.44,-146.45"/>
</a>
</g>
</g>
<!-- Node13 -->
<g id="Node000013" class="node">
<title>Node13</title>
<g id="a_Node000013"><a xlink:href="../../dc/da7/assert_8h.html" target="_top" xlink:title=" ">
<polygon fill="#fff0f0" stroke="red" points="416.18,-134.25 352.18,-134.25 352.18,-113.5 416.18,-113.5 416.18,-134.25"/>
<text text-anchor="middle" x="384.18" y="-120.75" font-family="Helvetica,sans-Serif" font-size="10.00">fl/assert.h</text>
</a>
</g>
</g>
<!-- Node4&#45;&gt;Node13 -->
<g id="edge20_Node000004_Node000013" class="edge">
<title>Node4&#45;&gt;Node13</title>
<g id="a_edge20_Node000004_Node000013"><a xlink:title=" ">
<path fill="none" stroke="#63b8ff" d="M424.42,-169.84C417.73,-162.36 408.33,-151.86 400.29,-142.88"/>
<polygon fill="#63b8ff" stroke="#63b8ff" points="403.15,-140.82 393.88,-135.71 397.94,-145.49 403.15,-140.82"/>
</a>
</g>
</g>
<!-- Node7&#45;&gt;Node3 -->
<g id="edge8_Node000007_Node000003" class="edge">
<title>Node7&#45;&gt;Node3</title>
<g id="a_edge8_Node000007_Node000003"><a xlink:title=" ">
<path fill="none" stroke="#63b8ff" d="M296.41,-117.27C355.04,-107.08 478.84,-85.57 541.36,-74.7"/>
<polygon fill="#63b8ff" stroke="#63b8ff" points="541.91,-78.16 551.16,-73 540.71,-71.26 541.91,-78.16"/>
</a>
</g>
</g>
<!-- Node7&#45;&gt;Node5 -->
<g id="edge9_Node000007_Node000005" class="edge">
<title>Node7&#45;&gt;Node5</title>
<g id="a_edge9_Node000007_Node000005"><a xlink:title=" ">
<path fill="none" stroke="#63b8ff" d="M257.36,-113.37C244.2,-95.03 215.09,-54.45 197.81,-30.37"/>
<polygon fill="#63b8ff" stroke="#63b8ff" points="200.77,-28.49 192.1,-22.4 195.08,-32.57 200.77,-28.49"/>
</a>
</g>
</g>
<!-- Node7&#45;&gt;Node6 -->
<g id="edge10_Node000007_Node000006" class="edge">
<title>Node7&#45;&gt;Node6</title>
<g id="a_edge10_Node000007_Node000006"><a xlink:title=" ">
<path fill="none" stroke="#63b8ff" d="M281.51,-113.13C313.87,-94.96 380.47,-57.64 383.18,-56.75 484.68,-23.43 609.97,-14.4 681.31,-12.06"/>
<polygon fill="#63b8ff" stroke="#63b8ff" points="681.3,-15.56 691.2,-11.78 681.1,-8.57 681.3,-15.56"/>
</a>
</g>
</g>
<!-- Node7&#45;&gt;Node9 -->
<g id="edge11_Node000007_Node000009" class="edge">
<title>Node7&#45;&gt;Node9</title>
<g id="a_edge11_Node000007_Node000009"><a xlink:title=" ">
<path fill="none" stroke="#63b8ff" d="M269.37,-113.09C273.08,-106.08 278.2,-96.41 282.75,-87.83"/>
<polygon fill="#63b8ff" stroke="#63b8ff" points="285.75,-89.64 287.33,-79.17 279.56,-86.36 285.75,-89.64"/>
</a>
</g>
</g>
<!-- Node7&#45;&gt;Node10 -->
<g id="edge14_Node000007_Node000010" class="edge">
<title>Node7&#45;&gt;Node10</title>
<g id="a_edge14_Node000007_Node000010"><a xlink:title=" ">
<path fill="none" stroke="#63b8ff" d="M295.47,-113.09C323.87,-104.2 365.99,-91.02 397.29,-81.23"/>
<polygon fill="#63b8ff" stroke="#63b8ff" points="397.93,-84.7 406.43,-78.37 395.84,-78.02 397.93,-84.7"/>
</a>
</g>
</g>
<!-- Node9&#45;&gt;Node5 -->
<g id="edge12_Node000009_Node000005" class="edge">
<title>Node9&#45;&gt;Node5</title>
<g id="a_edge12_Node000009_Node000005"><a xlink:title=" ">
<path fill="none" stroke="#63b8ff" d="M273.69,-56.34C257.03,-47.97 232.8,-35.79 213.75,-26.22"/>
<polygon fill="#63b8ff" stroke="#63b8ff" points="215.36,-23.12 204.85,-21.76 212.22,-29.37 215.36,-23.12"/>
</a>
</g>
</g>
<!-- Node9&#45;&gt;Node6 -->
<g id="edge13_Node000009_Node000006" class="edge">
<title>Node9&#45;&gt;Node6</title>
<g id="a_edge13_Node000009_Node000006"><a xlink:title=" ">
<path fill="none" stroke="#63b8ff" d="M336.72,-58.75C341.26,-58.04 345.81,-57.36 350.18,-56.75 467.72,-40.22 605.89,-25.08 681.55,-17.16"/>
<polygon fill="#63b8ff" stroke="#63b8ff" points="681.61,-20.68 691.19,-16.16 680.88,-13.71 681.61,-20.68"/>
</a>
</g>
</g>
<!-- Node11&#45;&gt;Node3 -->
<g id="edge16_Node000011_Node000003" class="edge">
<title>Node11&#45;&gt;Node3</title>
<g id="a_edge16_Node000011_Node000003"><a xlink:title=" ">
<path fill="none" stroke="#63b8ff" d="M658.02,-113.09C643.55,-104.83 622.59,-92.88 605.92,-83.38"/>
<polygon fill="#63b8ff" stroke="#63b8ff" points="607.93,-80.49 597.51,-78.58 604.46,-86.57 607.93,-80.49"/>
</a>
</g>
</g>
<!-- Node11&#45;&gt;Node6 -->
<g id="edge17_Node000011_Node000006" class="edge">
<title>Node11&#45;&gt;Node6</title>
<g id="a_edge17_Node000011_Node000006"><a xlink:title=" ">
<path fill="none" stroke="#63b8ff" d="M680.55,-113.37C690.82,-95.19 713.43,-55.17 727.08,-31.02"/>
<polygon fill="#63b8ff" stroke="#63b8ff" points="730.03,-32.92 731.9,-22.49 723.93,-29.48 730.03,-32.92"/>
</a>
</g>
</g>
<!-- Node26&#45;&gt;Node3 -->
<g id="edge23_Node000026_Node000003" class="edge">
<title>Node26&#45;&gt;Node3</title>
<g id="a_edge23_Node000026_Node000003"><a xlink:title=" ">
<path fill="none" stroke="#63b8ff" d="M176.79,-119.24C252.21,-109.66 456.45,-83.72 541.36,-72.93"/>
<polygon fill="#63b8ff" stroke="#63b8ff" points="541.54,-76.43 551.02,-71.7 540.66,-69.49 541.54,-76.43"/>
</a>
</g>
</g>
<!-- Node26&#45;&gt;Node5 -->
<g id="edge24_Node000026_Node000005" class="edge">
<title>Node26&#45;&gt;Node5</title>
<g id="a_edge24_Node000026_Node000005"><a xlink:title=" ">
<path fill="none" stroke="#63b8ff" d="M151.25,-113.37C157.04,-95.44 169.69,-56.25 177.52,-32.01"/>
<polygon fill="#63b8ff" stroke="#63b8ff" points="180.81,-33.21 180.55,-22.62 174.15,-31.06 180.81,-33.21"/>
</a>
</g>
</g>
<!-- Node27&#45;&gt;Node3 -->
<g id="edge29_Node000027_Node000003" class="edge">
<title>Node27&#45;&gt;Node3</title>
<g id="a_edge29_Node000027_Node000003"><a xlink:title=" ">
<path fill="none" stroke="#63b8ff" d="M825.65,-117.92C778.22,-108.34 673.6,-87.2 617.12,-75.79"/>
<polygon fill="#63b8ff" stroke="#63b8ff" points="617.82,-72.36 607.32,-73.81 616.43,-79.22 617.82,-72.36"/>
</a>
</g>
</g>
<!-- Node27&#45;&gt;Node6 -->
<g id="edge31_Node000027_Node000006" class="edge">
<title>Node27&#45;&gt;Node6</title>
<g id="a_edge31_Node000027_Node000006"><a xlink:title=" ">
<path fill="none" stroke="#63b8ff" d="M846.51,-113.37C840.83,-99.59 828.79,-73.84 812.18,-56.75 800.18,-44.4 784.15,-34.04 770.08,-26.34"/>
<polygon fill="#63b8ff" stroke="#63b8ff" points="772.09,-23.45 761.6,-21.93 768.85,-29.65 772.09,-23.45"/>
</a>
</g>
</g>
<!-- Node21 -->
<g id="Node000021" class="node">
<title>Node21</title>
<g id="a_Node000021"><a xlink:href="../../d8/d2d/fl_2force__inline_8h.html" target="_top" xlink:title=" ">
<polygon fill="white" stroke="#666666" points="1028.68,-77.5 937.68,-77.5 937.68,-56.75 1028.68,-56.75 1028.68,-77.5"/>
<text text-anchor="middle" x="983.18" y="-64" font-family="Helvetica,sans-Serif" font-size="10.00">fl/force_inline.h</text>
</a>
</g>
</g>
<!-- Node27&#45;&gt;Node21 -->
<g id="edge30_Node000027_Node000021" class="edge">
<title>Node27&#45;&gt;Node21</title>
<g id="a_edge30_Node000027_Node000021"><a xlink:title=" ">
<path fill="none" stroke="#63b8ff" d="M873.96,-113.09C894.86,-104.48 925.52,-91.86 949.04,-82.18"/>
<polygon fill="#63b8ff" stroke="#63b8ff" points="950.3,-85.45 958.21,-78.4 947.63,-78.97 950.3,-85.45"/>
</a>
</g>
</g>
<!-- Node28 -->
<g id="Node000028" class="node">
<title>Node28</title>
<g id="a_Node000028"><a xlink:href="../../db/d07/eorder_8h.html" target="_top" xlink:title="Defines color channel ordering enumerations.">
<polygon fill="white" stroke="#666666" points="920.06,-77.5 864.31,-77.5 864.31,-56.75 920.06,-56.75 920.06,-77.5"/>
<text text-anchor="middle" x="892.18" y="-64" font-family="Helvetica,sans-Serif" font-size="10.00">eorder.h</text>
</a>
</g>
</g>
<!-- Node27&#45;&gt;Node28 -->
<g id="edge32_Node000027_Node000028" class="edge">
<title>Node27&#45;&gt;Node28</title>
<g id="a_edge32_Node000027_Node000028"><a xlink:title=" ">
<path fill="none" stroke="#63b8ff" d="M857.69,-113.09C863.3,-105.77 871.15,-95.54 877.94,-86.69"/>
<polygon fill="#63b8ff" stroke="#63b8ff" points="880.51,-89.09 883.82,-79.03 874.95,-84.83 880.51,-89.09"/>
</a>
</g>
</g>
<!-- Node28&#45;&gt;Node6 -->
<g id="edge33_Node000028_Node000006" class="edge">
<title>Node28&#45;&gt;Node6</title>
<g id="a_edge33_Node000028_Node000006"><a xlink:title=" ">
<path fill="none" stroke="#63b8ff" d="M864.65,-56.34C840.09,-47.61 803.88,-34.73 776.5,-25"/>
<polygon fill="#63b8ff" stroke="#63b8ff" points="777.76,-21.73 767.16,-21.68 775.41,-28.33 777.76,-21.73"/>
</a>
</g>
</g>
<!-- Node29&#45;&gt;Node5 -->
<g id="edge35_Node000029_Node000005" class="edge">
<title>Node29&#45;&gt;Node5</title>
<g id="a_edge35_Node000029_Node000005"><a xlink:title=" ">
<path fill="none" stroke="#63b8ff" d="M27.56,-232.97C13.85,-219.11 -7.08,-192.91 3.18,-170.25 34.35,-101.43 111.69,-50.61 154.5,-26.67"/>
<polygon fill="#63b8ff" stroke="#63b8ff" points="156.15,-29.75 163.26,-21.89 152.8,-23.6 156.15,-29.75"/>
</a>
</g>
</g>
<!-- Node23 -->
<g id="Node000023" class="node">
<title>Node23</title>
<g id="a_Node000023"><a xlink:title=" ">
<polygon fill="#e0e0e0" stroke="#999999" points="64.56,-191 11.81,-191 11.81,-170.25 64.56,-170.25 64.56,-191"/>
<text text-anchor="middle" x="38.18" y="-177.5" font-family="Helvetica,sans-Serif" font-size="10.00">string.h</text>
</a>
</g>
</g>
<!-- Node29&#45;&gt;Node23 -->
<g id="edge36_Node000029_Node000023" class="edge">
<title>Node29&#45;&gt;Node23</title>
<g id="a_edge36_Node000029_Node000023"><a xlink:title=" ">
<path fill="none" stroke="#63b8ff" d="M38.18,-232.93C38.18,-224.77 38.18,-212.88 38.18,-202.6"/>
<polygon fill="#63b8ff" stroke="#63b8ff" points="41.68,-202.73 38.18,-192.73 34.68,-202.73 41.68,-202.73"/>
</a>
</g>
</g>
</g>
</svg>
