<?xml version="1.0" encoding="UTF-8" standalone="no"?>
<!DOCTYPE svg PUBLIC "-//W3C//DTD SVG 1.1//EN"
 "http://www.w3.org/Graphics/SVG/1.1/DTD/svg11.dtd">
<!-- Generated by graphviz version 12.2.1 (20241206.2353)
 -->
<!-- Title: setup Pages: 1 -->
<svg width="643pt" height="236pt"
 viewBox="0.00 0.00 642.75 235.75" xmlns="http://www.w3.org/2000/svg" xmlns:xlink="http://www.w3.org/1999/xlink">
<g id="graph0" class="graph" transform="scale(1 1) rotate(0) translate(4 231.75)">
<title>setup</title>
<!-- Node1 -->
<g id="Node000001" class="node">
<title>Node1</title>
<g id="a_Node000001"><a xlink:title=" ">
<polygon fill="#999999" stroke="#666666" points="43,-100.75 0,-100.75 0,-80 43,-80 43,-100.75"/>
<text text-anchor="middle" x="21.5" y="-87.25" font-family="Helvetica,sans-Serif" font-size="10.00">setup</text>
</a>
</g>
</g>
<!-- Node2 -->
<g id="Node000002" class="node">
<title>Node2</title>
<g id="a_Node000002"><a xlink:href="../../d6/d4d/classfl_1_1_pir_advanced.html#a3979576b96d8d33b9832dc7150674ba7" target="_top" xlink:title=" ">
<polygon fill="white" stroke="#666666" points="213.5,-159.75 79,-159.75 79,-139 213.5,-139 213.5,-159.75"/>
<text text-anchor="middle" x="146.25" y="-146.25" font-family="Helvetica,sans-Serif" font-size="10.00">fl::PirAdvanced::activate</text>
</a>
</g>
</g>
<!-- Node1&#45;&gt;Node2 -->
<g id="edge1_Node000001_Node000002" class="edge">
<title>Node1&#45;&gt;Node2</title>
<g id="a_edge1_Node000001_Node000002"><a xlink:title=" ">
<path fill="none" stroke="#63b8ff" d="M35.25,-100.91C46.26,-109.56 62.89,-121.62 79,-129.38 83.03,-131.31 87.28,-133.11 91.61,-134.77"/>
<polygon fill="#63b8ff" stroke="#63b8ff" points="90.43,-138.06 101.02,-138.09 92.76,-131.46 90.43,-138.06"/>
</a>
</g>
</g>
<!-- Node3 -->
<g id="Node000003" class="node">
<title>Node3</title>
<g id="a_Node000003"><a xlink:href="../../dd/dbb/class_c_fast_l_e_d.html#afd7928d822589740af6e23b2d510cf3f" target="_top" xlink:title="Add a CLEDController instance to the world.">
<polygon fill="white" stroke="#666666" points="200,-120.75 92.5,-120.75 92.5,-100 200,-100 200,-120.75"/>
<text text-anchor="middle" x="146.25" y="-107.25" font-family="Helvetica,sans-Serif" font-size="10.00">CFastLED::addLeds</text>
</a>
</g>
</g>
<!-- Node1&#45;&gt;Node3 -->
<g id="edge2_Node000001_Node000003" class="edge">
<title>Node1&#45;&gt;Node3</title>
<g id="a_edge2_Node000001_Node000003"><a xlink:title=" ">
<path fill="none" stroke="#63b8ff" d="M43.32,-93.77C53.8,-95.47 67.12,-97.65 80.66,-99.85"/>
<polygon fill="#63b8ff" stroke="#63b8ff" points="80.09,-103.3 90.52,-101.46 81.22,-96.4 80.09,-103.3"/>
</a>
</g>
</g>
<!-- Node12 -->
<g id="Node000012" class="node">
<title>Node12</title>
<g id="a_Node000012"><a xlink:href="../../d2/d78/classfl_1_1_screen_map.html#a8491b566c9fdce88be59265b350573b3" target="_top" xlink:title=" ">
<polygon fill="white" stroke="#666666" points="204.12,-81.75 88.38,-81.75 88.38,-61 204.12,-61 204.12,-81.75"/>
<text text-anchor="middle" x="146.25" y="-68.25" font-family="Helvetica,sans-Serif" font-size="10.00">fl::ScreenMap::Circle</text>
</a>
</g>
</g>
<!-- Node1&#45;&gt;Node12 -->
<g id="edge10_Node000001_Node000012" class="edge">
<title>Node1&#45;&gt;Node12</title>
<g id="a_edge10_Node000001_Node000012"><a xlink:title=" ">
<path fill="none" stroke="#63b8ff" d="M43.32,-87.15C52.8,-85.68 64.62,-83.86 76.81,-81.97"/>
<polygon fill="#63b8ff" stroke="#63b8ff" points="77.21,-85.45 86.56,-80.46 76.14,-78.53 77.21,-85.45"/>
</a>
</g>
</g>
<!-- Node14 -->
<g id="Node000014" class="node">
<title>Node14</title>
<g id="a_Node000014"><a xlink:href="../../dd/dbb/class_c_fast_l_e_d.html#a730ba7d967e882b4b893689cf333b2eb" target="_top" xlink:title="Set the global brightness scaling.">
<polygon fill="white" stroke="#666666" points="213.12,-42.75 79.38,-42.75 79.38,-22 213.12,-22 213.12,-42.75"/>
<text text-anchor="middle" x="146.25" y="-29.25" font-family="Helvetica,sans-Serif" font-size="10.00">CFastLED::setBrightness</text>
</a>
</g>
</g>
<!-- Node1&#45;&gt;Node14 -->
<g id="edge12_Node000001_Node000014" class="edge">
<title>Node1&#45;&gt;Node14</title>
<g id="a_edge12_Node000001_Node000014"><a xlink:title=" ">
<path fill="none" stroke="#63b8ff" d="M35.74,-79.79C46.78,-71.4 63.19,-59.87 79,-52.38 83.04,-50.46 87.3,-48.68 91.64,-47.04"/>
<polygon fill="#63b8ff" stroke="#63b8ff" points="92.78,-50.35 101.06,-43.73 90.46,-43.74 92.78,-50.35"/>
</a>
</g>
</g>
<!-- Node4 -->
<g id="Node000004" class="node">
<title>Node4</title>
<g id="a_Node000004"><a xlink:href="../../d6/d2c/class_c_l_e_d_controller.html#a44d20f088426191c82919c9cdbc63a35" target="_top" xlink:title="Gets the maximum possible refresh rate of the strip.">
<polygon fill="white" stroke="#666666" points="441.75,-227.75 249.5,-227.75 249.5,-207 441.75,-207 441.75,-227.75"/>
<text text-anchor="middle" x="345.62" y="-214.25" font-family="Helvetica,sans-Serif" font-size="10.00">CLEDController::getMaxRefreshRate</text>
</a>
</g>
</g>
<!-- Node3&#45;&gt;Node4 -->
<g id="edge3_Node000003_Node000004" class="edge">
<title>Node3&#45;&gt;Node4</title>
<g id="a_edge3_Node000003_Node000004"><a xlink:title=" ">
<path fill="none" stroke="#63b8ff" d="M198.21,-121.15C203.7,-123.62 208.94,-126.65 213.5,-130.38 239.67,-151.77 222.44,-177.12 249.5,-197.38 251.32,-198.74 253.22,-200.02 255.18,-201.21"/>
<polygon fill="#63b8ff" stroke="#63b8ff" points="253.56,-204.32 264.05,-205.82 256.79,-198.1 253.56,-204.32"/>
</a>
</g>
</g>
<!-- Node5 -->
<g id="Node000005" class="node">
<title>Node5</title>
<g id="a_Node000005"><a xlink:href="../../d6/d2c/class_c_l_e_d_controller.html#af877a15a5ec452780fbd1d359b8a9913" target="_top" xlink:title="Initialize the LED controller.">
<polygon fill="white" stroke="#666666" points="401.25,-188.75 290,-188.75 290,-168 401.25,-168 401.25,-188.75"/>
<text text-anchor="middle" x="345.62" y="-175.25" font-family="Helvetica,sans-Serif" font-size="10.00">CLEDController::init</text>
</a>
</g>
</g>
<!-- Node3&#45;&gt;Node5 -->
<g id="edge4_Node000003_Node000005" class="edge">
<title>Node3&#45;&gt;Node5</title>
<g id="a_edge4_Node000003_Node000005"><a xlink:title=" ">
<path fill="none" stroke="#63b8ff" d="M191.67,-121.19C199.16,-123.74 206.7,-126.79 213.5,-130.38 231.67,-139.97 230.89,-150.67 249.5,-159.38 258.69,-163.67 268.81,-167 278.93,-169.58"/>
<polygon fill="#63b8ff" stroke="#63b8ff" points="277.86,-172.92 288.39,-171.75 279.42,-166.1 277.86,-172.92"/>
</a>
</g>
</g>
<!-- Node6 -->
<g id="Node000006" class="node">
<title>Node6</title>
<g id="a_Node000006"><a xlink:href="../../de/dca/classfl_1_1_engine_events.html#a8ec266f9f7b35b9174d331cb6c338d80" target="_top" xlink:title=" ">
<polygon fill="white" stroke="#666666" points="412.88,-150.12 278.38,-150.12 278.38,-116.62 412.88,-116.62 412.88,-150.12"/>
<text text-anchor="start" x="286.38" y="-136.62" font-family="Helvetica,sans-Serif" font-size="10.00">fl::EngineEvents::onStrip</text>
<text text-anchor="middle" x="345.62" y="-123.88" font-family="Helvetica,sans-Serif" font-size="10.00">Added</text>
</a>
</g>
</g>
<!-- Node3&#45;&gt;Node6 -->
<g id="edge5_Node000003_Node000006" class="edge">
<title>Node3&#45;&gt;Node6</title>
<g id="a_edge5_Node000003_Node000006"><a xlink:title=" ">
<path fill="none" stroke="#63b8ff" d="M200.4,-116.57C220.82,-118.95 244.56,-121.71 266.82,-124.31"/>
<polygon fill="#63b8ff" stroke="#63b8ff" points="266.11,-127.75 276.45,-125.43 266.92,-120.8 266.11,-127.75"/>
</a>
</g>
</g>
<!-- Node10 -->
<g id="Node000010" class="node">
<title>Node10</title>
<g id="a_Node000010"><a xlink:href="../../d6/d2c/class_c_l_e_d_controller.html#a6c8e2157d244ce8b1b878947ca7695d9" target="_top" xlink:title="Set the default array of LEDs to be used by this controller.">
<polygon fill="white" stroke="#666666" points="412.12,-98.75 279.12,-98.75 279.12,-78 412.12,-78 412.12,-98.75"/>
<text text-anchor="middle" x="345.62" y="-85.25" font-family="Helvetica,sans-Serif" font-size="10.00">CLEDController::setLeds</text>
</a>
</g>
</g>
<!-- Node3&#45;&gt;Node10 -->
<g id="edge8_Node000003_Node000010" class="edge">
<title>Node3&#45;&gt;Node10</title>
<g id="a_edge8_Node000003_Node000010"><a xlink:title=" ">
<path fill="none" stroke="#63b8ff" d="M200.4,-104.45C221.01,-102.15 245.02,-99.48 267.46,-96.98"/>
<polygon fill="#63b8ff" stroke="#63b8ff" points="267.62,-100.48 277.17,-95.89 266.84,-93.52 267.62,-100.48"/>
</a>
</g>
</g>
<!-- Node11 -->
<g id="Node000011" class="node">
<title>Node11</title>
<g id="a_Node000011"><a xlink:href="../../dd/dbb/class_c_fast_l_e_d.html#a1f39e8404db214bbd6a776f52a77d8b1" target="_top" xlink:title="Set the maximum refresh rate.">
<polygon fill="white" stroke="#666666" points="427.12,-59.75 264.12,-59.75 264.12,-39 427.12,-39 427.12,-59.75"/>
<text text-anchor="middle" x="345.62" y="-46.25" font-family="Helvetica,sans-Serif" font-size="10.00">CFastLED::setMaxRefreshRate</text>
</a>
</g>
</g>
<!-- Node3&#45;&gt;Node11 -->
<g id="edge9_Node000003_Node000011" class="edge">
<title>Node3&#45;&gt;Node11</title>
<g id="a_edge9_Node000003_Node000011"><a xlink:title=" ">
<path fill="none" stroke="#63b8ff" d="M188.43,-99.58C196.86,-96.92 205.57,-93.83 213.5,-90.38 230.48,-82.98 232.21,-76.03 249.5,-69.38 255.55,-67.04 261.93,-64.96 268.41,-63.11"/>
<polygon fill="#63b8ff" stroke="#63b8ff" points="269.12,-66.54 277.88,-60.58 267.32,-59.77 269.12,-66.54"/>
</a>
</g>
</g>
<!-- Node7 -->
<g id="Node000007" class="node">
<title>Node7</title>
<g id="a_Node000007"><a xlink:href="../../de/dca/classfl_1_1_engine_events.html#a006e1f01b766436e0eec2e406b4512d5" target="_top" xlink:title=" ">
<polygon fill="white" stroke="#666666" points="606.25,-172.12 506.25,-172.12 506.25,-138.62 606.25,-138.62 606.25,-172.12"/>
<text text-anchor="start" x="514.25" y="-158.62" font-family="Helvetica,sans-Serif" font-size="10.00">fl::EngineEvents::</text>
<text text-anchor="middle" x="556.25" y="-145.88" font-family="Helvetica,sans-Serif" font-size="10.00">_onStripAdded</text>
</a>
</g>
</g>
<!-- Node6&#45;&gt;Node7 -->
<g id="edge6_Node000006_Node000007" class="edge">
<title>Node6&#45;&gt;Node7</title>
<g id="a_edge6_Node000006_Node000007"><a xlink:title=" ">
<path fill="none" stroke="#63b8ff" d="M413.21,-140.4C439.27,-143.14 468.96,-146.28 494.43,-148.96"/>
<polygon fill="#63b8ff" stroke="#63b8ff" points="494,-152.43 504.31,-150 494.73,-145.47 494,-152.43"/>
</a>
</g>
</g>
<!-- Node8 -->
<g id="Node000008" class="node">
<title>Node8</title>
<g id="a_Node000008"><a xlink:href="../../de/dca/classfl_1_1_engine_events.html#a34a4625c4fbcf754f70820bc4f0e418b" target="_top" xlink:title=" ">
<polygon fill="#fff0f0" stroke="red" points="634.75,-120.75 477.75,-120.75 477.75,-100 634.75,-100 634.75,-120.75"/>
<text text-anchor="middle" x="556.25" y="-107.25" font-family="Helvetica,sans-Serif" font-size="10.00">fl::EngineEvents::getInstance</text>
</a>
</g>
</g>
<!-- Node6&#45;&gt;Node8 -->
<g id="edge7_Node000006_Node000008" class="edge">
<title>Node6&#45;&gt;Node8</title>
<g id="a_edge7_Node000006_Node000008"><a xlink:title=" ">
<path fill="none" stroke="#63b8ff" d="M413.21,-126.03C430.02,-124.18 448.33,-122.16 466.06,-120.21"/>
<polygon fill="#63b8ff" stroke="#63b8ff" points="466.23,-123.71 475.79,-119.14 465.47,-116.75 466.23,-123.71"/>
</a>
</g>
</g>
<!-- Node13 -->
<g id="Node000013" class="node">
<title>Node13</title>
<g id="a_Node000013"><a xlink:href="../../d2/d78/classfl_1_1_screen_map.html#a8875dd841783ec4816257ed74bd2afa0" target="_top" xlink:title=" ">
<polygon fill="white" stroke="#666666" points="416.62,-20.75 274.62,-20.75 274.62,0 416.62,0 416.62,-20.75"/>
<text text-anchor="middle" x="345.62" y="-7.25" font-family="Helvetica,sans-Serif" font-size="10.00">fl::ScreenMap::ScreenMap</text>
</a>
</g>
</g>
<!-- Node12&#45;&gt;Node13 -->
<g id="edge11_Node000012_Node000013" class="edge">
<title>Node12&#45;&gt;Node13</title>
<g id="a_edge11_Node000012_Node000013"><a xlink:title=" ">
<path fill="none" stroke="#63b8ff" d="M188.43,-60.58C196.86,-57.92 205.57,-54.83 213.5,-51.38 230.48,-43.98 232.21,-37.03 249.5,-30.38 255.55,-28.04 261.93,-25.96 268.41,-24.11"/>
<polygon fill="#63b8ff" stroke="#63b8ff" points="269.12,-27.54 277.88,-21.58 267.32,-20.77 269.12,-27.54"/>
</a>
</g>
</g>
</g>
</svg>
