<?xml version="1.0" encoding="UTF-8" standalone="no"?>
<!DOCTYPE svg PUBLIC "-//W3C//DTD SVG 1.1//EN"
 "http://www.w3.org/Graphics/SVG/1.1/DTD/svg11.dtd">
<!-- Generated by graphviz version 12.2.1 (20241206.2353)
 -->
<!-- Title: fill_raw_2dnoise8 Pages: 1 -->
<svg width="485pt" height="87pt"
 viewBox="0.00 0.00 484.75 86.75" xmlns="http://www.w3.org/2000/svg" xmlns:xlink="http://www.w3.org/1999/xlink">
<g id="graph0" class="graph" transform="scale(1 1) rotate(0) translate(4 82.75)">
<title>fill_raw_2dnoise8</title>
<!-- Node1 -->
<g id="Node000001" class="node">
<title>Node1</title>
<g id="a_Node000001"><a xlink:title="Fill a 2D 8&#45;bit buffer with noise, using inoise8()">
<polygon fill="#999999" stroke="#666666" points="100.75,-20.75 0,-20.75 0,0 100.75,0 100.75,-20.75"/>
<text text-anchor="middle" x="50.38" y="-7.25" font-family="Helvetica,sans-Serif" font-size="10.00">fill_raw_2dnoise8</text>
</a>
</g>
</g>
<!-- Node1&#45;&gt;Node1 -->
<g id="edge1_Node000001_Node000001" class="edge">
<title>Node1&#45;&gt;Node1</title>
<g id="a_edge1_Node000001_Node000001"><a xlink:title=" ">
<path fill="none" stroke="#63b8ff" d="M32.33,-21.15C25.11,-29.81 31.12,-38.75 50.38,-38.75 60.6,-38.75 67.09,-36.23 69.85,-32.56"/>
<polygon fill="#63b8ff" stroke="#63b8ff" points="73.32,-32.14 68.61,-22.65 66.38,-33.01 73.32,-32.14"/>
</a>
</g>
</g>
<!-- Node2 -->
<g id="Node000002" class="node">
<title>Node2</title>
<g id="a_Node000002"><a xlink:href="../../d8/df9/group___noise_generation.html#gaa521ccca6038d7b5e881fe2e8f35d3bc" target="_top" xlink:title="8&#45;Bit, fixed point implementation of Perlin&#39;s noise.">
<polygon fill="white" stroke="#666666" points="188,-39.75 136.75,-39.75 136.75,-19 188,-19 188,-39.75"/>
<text text-anchor="middle" x="162.38" y="-26.25" font-family="Helvetica,sans-Serif" font-size="10.00">inoise8</text>
</a>
</g>
</g>
<!-- Node1&#45;&gt;Node2 -->
<g id="edge2_Node000001_Node000002" class="edge">
<title>Node1&#45;&gt;Node2</title>
<g id="a_edge2_Node000001_Node000002"><a xlink:title=" ">
<path fill="none" stroke="#63b8ff" d="M101.23,-18.99C109.3,-20.38 117.53,-21.8 125.2,-23.13"/>
<polygon fill="#63b8ff" stroke="#63b8ff" points="124.39,-26.54 134.84,-24.79 125.58,-19.64 124.39,-26.54"/>
</a>
</g>
</g>
<!-- Node8 -->
<g id="Node000008" class="node">
<title>Node8</title>
<g id="a_Node000008"><a xlink:href="../../d0/da8/group___scaling.html#gad7535ccda9c92470c4e6ee0265585555" target="_top" xlink:title="Scale one byte by a second one, which is treated as the numerator of a fraction whose denominator is ...">
<polygon fill="white" stroke="#666666" points="476.75,-20.75 429.25,-20.75 429.25,0 476.75,0 476.75,-20.75"/>
<text text-anchor="middle" x="453" y="-7.25" font-family="Helvetica,sans-Serif" font-size="10.00">scale8</text>
</a>
</g>
</g>
<!-- Node1&#45;&gt;Node8 -->
<g id="edge8_Node000001_Node000008" class="edge">
<title>Node1&#45;&gt;Node8</title>
<g id="a_edge8_Node000001_Node000008"><a xlink:title=" ">
<path fill="none" stroke="#63b8ff" d="M100.9,-10.38C183.23,-10.38 346.21,-10.38 417.39,-10.38"/>
<polygon fill="#63b8ff" stroke="#63b8ff" points="417.27,-13.88 427.27,-10.38 417.27,-6.88 417.27,-13.88"/>
</a>
</g>
</g>
<!-- Node3 -->
<g id="Node000003" class="node">
<title>Node3</title>
<g id="a_Node000003"><a xlink:href="../../d8/df9/group___noise_generation.html#ga6c57ed3ea69e819c29602578ecbabd71" target="_top" xlink:title="8&#45;bit, fixed point implementation of Perlin&#39;s noise without scaling.">
<polygon fill="white" stroke="#666666" points="298.5,-78.75 224,-78.75 224,-58 298.5,-58 298.5,-78.75"/>
<text text-anchor="middle" x="261.25" y="-65.25" font-family="Helvetica,sans-Serif" font-size="10.00">inoise8_raw</text>
</a>
</g>
</g>
<!-- Node2&#45;&gt;Node3 -->
<g id="edge3_Node000002_Node000003" class="edge">
<title>Node2&#45;&gt;Node3</title>
<g id="a_edge3_Node000002_Node000003"><a xlink:title=" ">
<path fill="none" stroke="#63b8ff" d="M188.32,-39.42C198.88,-43.67 211.41,-48.71 223.02,-53.39"/>
<polygon fill="#63b8ff" stroke="#63b8ff" points="221.36,-56.49 231.94,-56.98 223.97,-50 221.36,-56.49"/>
</a>
</g>
</g>
<!-- Node9 -->
<g id="Node000009" class="node">
<title>Node9</title>
<g id="a_Node000009"><a xlink:href="../../d5/d98/group___math.html#ga07133b3085824d0fcd4f5086d286c4b5" target="_top" xlink:title="Add one byte to another, saturating at 0xFF.">
<polygon fill="white" stroke="#666666" points="284.25,-39.75 238.25,-39.75 238.25,-19 284.25,-19 284.25,-39.75"/>
<text text-anchor="middle" x="261.25" y="-26.25" font-family="Helvetica,sans-Serif" font-size="10.00">qadd8</text>
</a>
</g>
</g>
<!-- Node2&#45;&gt;Node9 -->
<g id="edge7_Node000002_Node000009" class="edge">
<title>Node2&#45;&gt;Node9</title>
<g id="a_edge7_Node000002_Node000009"><a xlink:title=" ">
<path fill="none" stroke="#63b8ff" d="M188.32,-29.38C199.96,-29.38 213.99,-29.38 226.56,-29.38"/>
<polygon fill="#63b8ff" stroke="#63b8ff" points="226.52,-32.88 236.52,-29.38 226.52,-25.88 226.52,-32.88"/>
</a>
</g>
</g>
<!-- Node4 -->
<g id="Node000004" class="node">
<title>Node4</title>
<g id="a_Node000004"><a xlink:href="../../d6/de8/noise_8cpp.html#a07165473858feff9f2415a77bf841731" target="_top" xlink:title=" ">
<polygon fill="#fff0f0" stroke="red" points="385.75,-78.75 342,-78.75 342,-58 385.75,-58 385.75,-78.75"/>
<text text-anchor="middle" x="363.88" y="-65.25" font-family="Helvetica,sans-Serif" font-size="10.00">grad8</text>
</a>
</g>
</g>
<!-- Node3&#45;&gt;Node4 -->
<g id="edge4_Node000003_Node000004" class="edge">
<title>Node3&#45;&gt;Node4</title>
<g id="a_edge4_Node000003_Node000004"><a xlink:title=" ">
<path fill="none" stroke="#63b8ff" d="M298.86,-68.38C309.2,-68.38 320.38,-68.38 330.45,-68.38"/>
<polygon fill="#63b8ff" stroke="#63b8ff" points="330.14,-71.88 340.14,-68.38 330.14,-64.88 330.14,-71.88"/>
</a>
</g>
</g>
<!-- Node7 -->
<g id="Node000007" class="node">
<title>Node7</title>
<g id="a_Node000007"><a xlink:href="../../d6/de8/noise_8cpp.html#ad89cf56a81ef482a0027a47eada176bb" target="_top" xlink:title=" ">
<polygon fill="white" stroke="#666666" points="393.25,-39.75 334.5,-39.75 334.5,-19 393.25,-19 393.25,-39.75"/>
<text text-anchor="middle" x="363.88" y="-26.25" font-family="Helvetica,sans-Serif" font-size="10.00">lerp7by8</text>
</a>
</g>
</g>
<!-- Node3&#45;&gt;Node7 -->
<g id="edge5_Node000003_Node000007" class="edge">
<title>Node3&#45;&gt;Node7</title>
<g id="a_edge5_Node000003_Node000007"><a xlink:title=" ">
<path fill="none" stroke="#63b8ff" d="M290.28,-57.51C300.86,-53.41 313.08,-48.67 324.44,-44.27"/>
<polygon fill="#63b8ff" stroke="#63b8ff" points="325.53,-47.6 333.58,-40.73 323,-41.08 325.53,-47.6"/>
</a>
</g>
</g>
<!-- Node7&#45;&gt;Node8 -->
<g id="edge6_Node000007_Node000008" class="edge">
<title>Node7&#45;&gt;Node8</title>
<g id="a_edge6_Node000007_Node000008"><a xlink:title=" ">
<path fill="none" stroke="#63b8ff" d="M393.4,-23.15C401.23,-21.45 409.79,-19.58 417.9,-17.81"/>
<polygon fill="#63b8ff" stroke="#63b8ff" points="418.42,-21.28 427.44,-15.73 416.93,-14.44 418.42,-21.28"/>
</a>
</g>
</g>
</g>
</svg>
