<?xml version="1.0" encoding="UTF-8" standalone="no"?>
<!DOCTYPE svg PUBLIC "-//W3C//DTD SVG 1.1//EN"
 "http://www.w3.org/Graphics/SVG/1.1/DTD/svg11.dtd">
<!-- Generated by graphviz version 12.2.1 (20241206.2353)
 -->
<!-- Title: fill_raw_2dnoise16 Pages: 1 -->
<svg width="410pt" height="68pt"
 viewBox="0.00 0.00 410.25 67.75" xmlns="http://www.w3.org/2000/svg" xmlns:xlink="http://www.w3.org/1999/xlink">
<g id="graph0" class="graph" transform="scale(1 1) rotate(0) translate(4 63.75)">
<title>fill_raw_2dnoise16</title>
<!-- Node1 -->
<g id="Node000001" class="node">
<title>Node1</title>
<g id="a_Node000001"><a xlink:title="Fill a 2D 16&#45;bit buffer with noise, using inoise16()">
<polygon fill="#999999" stroke="#666666" points="106.75,-39.75 0,-39.75 0,-19 106.75,-19 106.75,-39.75"/>
<text text-anchor="middle" x="53.38" y="-26.25" font-family="Helvetica,sans-Serif" font-size="10.00">fill_raw_2dnoise16</text>
</a>
</g>
</g>
<!-- Node1&#45;&gt;Node1 -->
<g id="edge1_Node000001_Node000001" class="edge">
<title>Node1&#45;&gt;Node1</title>
<g id="a_edge1_Node000001_Node000001"><a xlink:title=" ">
<path fill="none" stroke="#63b8ff" d="M34.36,-40.15C26.76,-48.81 33.09,-57.75 53.38,-57.75 64.47,-57.75 71.39,-55.08 74.14,-51.24"/>
<polygon fill="#63b8ff" stroke="#63b8ff" points="77.64,-50.97 72.62,-41.64 70.73,-52.07 77.64,-50.97"/>
</a>
</g>
</g>
<!-- Node2 -->
<g id="Node000002" class="node">
<title>Node2</title>
<g id="a_Node000002"><a xlink:href="../../d8/df9/group___noise_generation.html#ga94be5ce8402e6147209f94d6006e8f00" target="_top" xlink:title="16&#45;bit, fixed point implementation of Perlin&#39;s noise.">
<polygon fill="white" stroke="#666666" points="200,-59.75 142.75,-59.75 142.75,-39 200,-39 200,-59.75"/>
<text text-anchor="middle" x="171.38" y="-46.25" font-family="Helvetica,sans-Serif" font-size="10.00">inoise16</text>
</a>
</g>
</g>
<!-- Node1&#45;&gt;Node2 -->
<g id="edge2_Node000001_Node000002" class="edge">
<title>Node1&#45;&gt;Node2</title>
<g id="a_edge2_Node000001_Node000002"><a xlink:title=" ">
<path fill="none" stroke="#63b8ff" d="M106.94,-38.44C115.07,-39.84 123.33,-41.26 131.09,-42.6"/>
<polygon fill="#63b8ff" stroke="#63b8ff" points="130.46,-46.05 140.91,-44.3 131.65,-39.15 130.46,-46.05"/>
</a>
</g>
</g>
<!-- Node5 -->
<g id="Node000005" class="node">
<title>Node5</title>
<g id="a_Node000005"><a xlink:href="../../d0/da8/group___scaling.html#ga1ff8ac00ad78e22acc7bb7445bfdb145" target="_top" xlink:title="Scale a 16&#45;bit unsigned value by an 16&#45;bit value, which is treated as the numerator of a fraction who...">
<polygon fill="white" stroke="#666666" points="198.12,-20.75 144.62,-20.75 144.62,0 198.12,0 198.12,-20.75"/>
<text text-anchor="middle" x="171.38" y="-7.25" font-family="Helvetica,sans-Serif" font-size="10.00">scale16</text>
</a>
</g>
</g>
<!-- Node1&#45;&gt;Node5 -->
<g id="edge5_Node000001_Node000005" class="edge">
<title>Node1&#45;&gt;Node5</title>
<g id="a_edge5_Node000001_Node000005"><a xlink:title=" ">
<path fill="none" stroke="#63b8ff" d="M106.94,-20.76C115.75,-19.32 124.71,-17.85 133.03,-16.49"/>
<polygon fill="#63b8ff" stroke="#63b8ff" points="133.47,-19.97 142.78,-14.9 132.34,-13.06 133.47,-19.97"/>
</a>
</g>
</g>
<!-- Node3 -->
<g id="Node000003" class="node">
<title>Node3</title>
<g id="a_Node000003"><a xlink:href="../../d8/df9/group___noise_generation.html#ga810bdc406dcf8fd5b7add9041aa18abd" target="_top" xlink:title="16&#45;bit, fixed point implementation of Perlin&#39;s noise without scaling.">
<polygon fill="white" stroke="#666666" points="316.5,-59.75 236,-59.75 236,-39 316.5,-39 316.5,-59.75"/>
<text text-anchor="middle" x="276.25" y="-46.25" font-family="Helvetica,sans-Serif" font-size="10.00">inoise16_raw</text>
</a>
</g>
</g>
<!-- Node2&#45;&gt;Node3 -->
<g id="edge3_Node000002_Node000003" class="edge">
<title>Node2&#45;&gt;Node3</title>
<g id="a_edge3_Node000002_Node000003"><a xlink:title=" ">
<path fill="none" stroke="#63b8ff" d="M200.49,-49.38C207.85,-49.38 216.01,-49.38 224.17,-49.38"/>
<polygon fill="#63b8ff" stroke="#63b8ff" points="224.09,-52.88 234.09,-49.38 224.09,-45.88 224.09,-52.88"/>
</a>
</g>
</g>
<!-- Node4 -->
<g id="Node000004" class="node">
<title>Node4</title>
<g id="a_Node000004"><a xlink:href="../../d6/de8/noise_8cpp.html#a24cd7f7232e48b10b8bba34614a168b5" target="_top" xlink:title=" ">
<polygon fill="white" stroke="#666666" points="402.25,-59.75 352.5,-59.75 352.5,-39 402.25,-39 402.25,-59.75"/>
<text text-anchor="middle" x="377.38" y="-46.25" font-family="Helvetica,sans-Serif" font-size="10.00">grad16</text>
</a>
</g>
</g>
<!-- Node3&#45;&gt;Node4 -->
<g id="edge4_Node000003_Node000004" class="edge">
<title>Node3&#45;&gt;Node4</title>
<g id="a_edge4_Node000003_Node000004"><a xlink:title=" ">
<path fill="none" stroke="#63b8ff" d="M317,-49.38C324.77,-49.38 332.89,-49.38 340.53,-49.38"/>
<polygon fill="#63b8ff" stroke="#63b8ff" points="340.51,-52.88 350.51,-49.38 340.51,-45.88 340.51,-52.88"/>
</a>
</g>
</g>
</g>
</svg>
