<?xml version="1.0" encoding="UTF-8" standalone="no"?>
<!DOCTYPE svg PUBLIC "-//W3C//DTD SVG 1.1//EN"
 "http://www.w3.org/Graphics/SVG/1.1/DTD/svg11.dtd">
<!-- Generated by graphviz version 12.2.1 (20241206.2353)
 -->
<!-- Title: fl::Frame::~Frame Pages: 1 -->
<svg width="282pt" height="68pt"
 viewBox="0.00 0.00 282.25 67.75" xmlns="http://www.w3.org/2000/svg" xmlns:xlink="http://www.w3.org/1999/xlink">
<g id="graph0" class="graph" transform="scale(1 1) rotate(0) translate(4 63.75)">
<title>fl::Frame::~Frame</title>
<!-- Node1 -->
<g id="Node000001" class="node">
<title>Node1</title>
<g id="a_Node000001"><a xlink:title=" ">
<polygon fill="#999999" stroke="#666666" points="103.75,-39.75 0,-39.75 0,-19 103.75,-19 103.75,-39.75"/>
<text text-anchor="middle" x="51.88" y="-26.25" font-family="Helvetica,sans-Serif" font-size="10.00">fl::Frame::~Frame</text>
</a>
</g>
</g>
<!-- Node2 -->
<g id="Node000002" class="node">
<title>Node2</title>
<g id="a_Node000002"><a xlink:href="../../d4/d36/namespacefl.html#ab2b85462a826ee1c562964e9639eaa76" target="_top" xlink:title=" ">
<polygon fill="white" stroke="#666666" points="274.25,-59.75 139.75,-59.75 139.75,-39 274.25,-39 274.25,-59.75"/>
<text text-anchor="middle" x="207" y="-46.25" font-family="Helvetica,sans-Serif" font-size="10.00">fl::LargeBlockDeallocate</text>
</a>
</g>
</g>
<!-- Node1&#45;&gt;Node2 -->
<g id="edge1_Node000001_Node000002" class="edge">
<title>Node1&#45;&gt;Node2</title>
<g id="a_edge1_Node000001_Node000002"><a xlink:title=" ">
<path fill="none" stroke="#63b8ff" d="M103.86,-36.03C111.7,-37.06 119.94,-38.13 128.2,-39.21"/>
<polygon fill="#63b8ff" stroke="#63b8ff" points="127.56,-42.66 137.93,-40.48 128.47,-35.72 127.56,-42.66"/>
</a>
</g>
</g>
<!-- Node3 -->
<g id="Node000003" class="node">
<title>Node3</title>
<g id="a_Node000003"><a xlink:href="../../d3/d92/classfl_1_1scoped__array.html#a9b968a7427441d9c8abac6707a95bb9f" target="_top" xlink:title=" ">
<polygon fill="white" stroke="#666666" points="274.25,-20.75 139.75,-20.75 139.75,0 274.25,0 274.25,-20.75"/>
<text text-anchor="middle" x="207" y="-7.25" font-family="Helvetica,sans-Serif" font-size="10.00">fl::scoped_array::release</text>
</a>
</g>
</g>
<!-- Node1&#45;&gt;Node3 -->
<g id="edge2_Node000001_Node000003" class="edge">
<title>Node1&#45;&gt;Node3</title>
<g id="a_edge2_Node000001_Node000003"><a xlink:title=" ">
<path fill="none" stroke="#63b8ff" d="M103.86,-23.05C111.7,-22.08 119.94,-21.05 128.2,-20.03"/>
<polygon fill="#63b8ff" stroke="#63b8ff" points="128.44,-23.53 137.93,-18.82 127.58,-16.58 128.44,-23.53"/>
</a>
</g>
</g>
</g>
</svg>
