<?xml version="1.0" encoding="UTF-8" standalone="no"?>
<!DOCTYPE svg PUBLIC "-//W3C//DTD SVG 1.1//EN"
 "http://www.w3.org/Graphics/SVG/1.1/DTD/svg11.dtd">
<!-- Generated by graphviz version 12.2.1 (20241206.2353)
 -->
<!-- Title: fl::Frame::interpolate Pages: 1 -->
<svg width="579pt" height="146pt"
 viewBox="0.00 0.00 579.00 145.75" xmlns="http://www.w3.org/2000/svg" xmlns:xlink="http://www.w3.org/1999/xlink">
<g id="graph0" class="graph" transform="scale(1 1) rotate(0) translate(4 141.75)">
<title>fl::Frame::interpolate</title>
<!-- Node1 -->
<g id="Node000001" class="node">
<title>Node1</title>
<g id="a_Node000001"><a xlink:title=" ">
<polygon fill="#999999" stroke="#666666" points="118,-59.75 0,-59.75 0,-39 118,-39 118,-59.75"/>
<text text-anchor="middle" x="59" y="-46.25" font-family="Helvetica,sans-Serif" font-size="10.00">fl::Frame::interpolate</text>
</a>
</g>
</g>
<!-- Node2 -->
<g id="Node000002" class="node">
<title>Node2</title>
<g id="a_Node000002"><a xlink:href="../../db/d87/group___pixel_types.html#a6348cb098a0b27f443bd1af290dafa94" target="_top" xlink:title=" ">
<polygon fill="white" stroke="#666666" points="234.5,-98.75 157.75,-98.75 157.75,-78 234.5,-78 234.5,-98.75"/>
<text text-anchor="middle" x="196.12" y="-85.25" font-family="Helvetica,sans-Serif" font-size="10.00">CRGB::blend</text>
</a>
</g>
</g>
<!-- Node1&#45;&gt;Node2 -->
<g id="edge1_Node000001_Node000002" class="edge">
<title>Node1&#45;&gt;Node2</title>
<g id="a_edge1_Node000001_Node000002"><a xlink:title=" ">
<path fill="none" stroke="#63b8ff" d="M97.64,-60.24C112.87,-64.63 130.64,-69.76 146.8,-74.43"/>
<polygon fill="#63b8ff" stroke="#63b8ff" points="145.65,-77.74 156.23,-77.15 147.6,-71.01 145.65,-77.74"/>
</a>
</g>
</g>
<!-- Node7 -->
<g id="Node000007" class="node">
<title>Node7</title>
<g id="a_Node000007"><a xlink:href="../../d1/de0/classfl_1_1_frame.html#af87085697e2f19076fa6cd89d995501b" target="_top" xlink:title=" ">
<polygon fill="white" stroke="#666666" points="236.38,-59.75 155.88,-59.75 155.88,-39 236.38,-39 236.38,-59.75"/>
<text text-anchor="middle" x="196.12" y="-46.25" font-family="Helvetica,sans-Serif" font-size="10.00">fl::Frame::rgb</text>
</a>
</g>
</g>
<!-- Node1&#45;&gt;Node7 -->
<g id="edge6_Node000001_Node000007" class="edge">
<title>Node1&#45;&gt;Node7</title>
<g id="a_edge6_Node000001_Node000007"><a xlink:title=" ">
<path fill="none" stroke="#63b8ff" d="M118.48,-49.38C127.11,-49.38 135.94,-49.38 144.4,-49.38"/>
<polygon fill="#63b8ff" stroke="#63b8ff" points="144.13,-52.88 154.13,-49.38 144.13,-45.88 144.13,-52.88"/>
</a>
</g>
</g>
<!-- Node9 -->
<g id="Node000009" class="node">
<title>Node9</title>
<g id="a_Node000009"><a xlink:href="../../d1/de0/classfl_1_1_frame.html#a33cf60e696151e0d5777d89ed299c2f2" target="_top" xlink:title=" ">
<polygon fill="white" stroke="#666666" points="238.25,-20.75 154,-20.75 154,0 238.25,0 238.25,-20.75"/>
<text text-anchor="middle" x="196.12" y="-7.25" font-family="Helvetica,sans-Serif" font-size="10.00">fl::Frame::size</text>
</a>
</g>
</g>
<!-- Node1&#45;&gt;Node9 -->
<g id="edge8_Node000001_Node000009" class="edge">
<title>Node1&#45;&gt;Node9</title>
<g id="a_edge8_Node000001_Node000009"><a xlink:title=" ">
<path fill="none" stroke="#63b8ff" d="M97.64,-38.51C112.87,-34.12 130.64,-28.99 146.8,-24.32"/>
<polygon fill="#63b8ff" stroke="#63b8ff" points="147.6,-27.74 156.23,-21.6 145.65,-21.01 147.6,-27.74"/>
</a>
</g>
</g>
<!-- Node3 -->
<g id="Node000003" class="node">
<title>Node3</title>
<g id="a_Node000003"><a xlink:href="../../db/d87/group___pixel_types.html#a08d8e05a3fcdb88dedb886cad9cbd3fa" target="_top" xlink:title="Default constructor.">
<polygon fill="white" stroke="#666666" points="370.12,-137.75 292.62,-137.75 292.62,-117 370.12,-117 370.12,-137.75"/>
<text text-anchor="middle" x="331.38" y="-124.25" font-family="Helvetica,sans-Serif" font-size="10.00">CRGB::CRGB</text>
</a>
</g>
</g>
<!-- Node2&#45;&gt;Node3 -->
<g id="edge2_Node000002_Node000003" class="edge">
<title>Node2&#45;&gt;Node3</title>
<g id="a_edge2_Node000002_Node000003"><a xlink:title=" ">
<path fill="none" stroke="#63b8ff" d="M234.24,-99.24C249.26,-103.63 266.78,-108.76 282.72,-113.43"/>
<polygon fill="#63b8ff" stroke="#63b8ff" points="281.42,-116.69 292,-116.14 283.39,-109.98 281.42,-116.69"/>
</a>
</g>
</g>
<!-- Node4 -->
<g id="Node000004" class="node">
<title>Node4</title>
<g id="a_Node000004"><a xlink:href="../../d5/d98/group___math.html#ga9a604de042246d6c87fdbfdd5578f377" target="_top" xlink:title="Blend a variable proportion (0&#45;255) of one byte to another.">
<polygon fill="white" stroke="#666666" points="355.88,-98.75 306.88,-98.75 306.88,-78 355.88,-78 355.88,-98.75"/>
<text text-anchor="middle" x="331.38" y="-85.25" font-family="Helvetica,sans-Serif" font-size="10.00">blend8</text>
</a>
</g>
</g>
<!-- Node2&#45;&gt;Node4 -->
<g id="edge3_Node000002_Node000004" class="edge">
<title>Node2&#45;&gt;Node4</title>
<g id="a_edge3_Node000002_Node000004"><a xlink:title=" ">
<path fill="none" stroke="#63b8ff" d="M234.95,-88.38C253.89,-88.38 276.67,-88.38 295.22,-88.38"/>
<polygon fill="#63b8ff" stroke="#63b8ff" points="295.2,-91.88 305.2,-88.38 295.2,-84.88 295.2,-91.88"/>
</a>
</g>
</g>
<!-- Node5 -->
<g id="Node000005" class="node">
<title>Node5</title>
<g id="a_Node000005"><a xlink:href="../../d0/da5/group___scaling_dirty.html#ga3fade00fb4cf5b937b973128198a7a79" target="_top" xlink:title="Clean up the r1 register after a series of *LEAVING_R1_DIRTY calls.">
<polygon fill="white" stroke="#666666" points="533.88,-117.75 461.62,-117.75 461.62,-97 533.88,-97 533.88,-117.75"/>
<text text-anchor="middle" x="497.75" y="-104.25" font-family="Helvetica,sans-Serif" font-size="10.00">cleanup_R1</text>
</a>
</g>
</g>
<!-- Node4&#45;&gt;Node5 -->
<g id="edge4_Node000004_Node000005" class="edge">
<title>Node4&#45;&gt;Node5</title>
<g id="a_edge4_Node000004_Node000005"><a xlink:title=" ">
<path fill="none" stroke="#63b8ff" d="M356.28,-91.14C380.75,-93.97 419.44,-98.44 450.02,-101.97"/>
<polygon fill="#63b8ff" stroke="#63b8ff" points="449.46,-105.43 459.79,-103.1 450.26,-98.48 449.46,-105.43"/>
</a>
</g>
</g>
<!-- Node6 -->
<g id="Node000006" class="node">
<title>Node6</title>
<g id="a_Node000006"><a xlink:href="../../d0/da5/group___scaling_dirty.html#ga7386235cada3aca429b189681d2ec56d" target="_top" xlink:title="This version of scale8() does not clean up the R1 register on AVR.">
<polygon fill="white" stroke="#666666" points="571,-78.75 424.5,-78.75 424.5,-58 571,-58 571,-78.75"/>
<text text-anchor="middle" x="497.75" y="-65.25" font-family="Helvetica,sans-Serif" font-size="10.00">scale8_LEAVING_R1_DIRTY</text>
</a>
</g>
</g>
<!-- Node4&#45;&gt;Node6 -->
<g id="edge5_Node000004_Node000006" class="edge">
<title>Node4&#45;&gt;Node6</title>
<g id="a_edge5_Node000004_Node000006"><a xlink:title=" ">
<path fill="none" stroke="#63b8ff" d="M356.28,-85.47C371.45,-83.62 392.08,-81.11 412.85,-78.58"/>
<polygon fill="#63b8ff" stroke="#63b8ff" points="413.03,-82.09 422.53,-77.41 412.18,-75.14 413.03,-82.09"/>
</a>
</g>
</g>
<!-- Node8 -->
<g id="Node000008" class="node">
<title>Node8</title>
<g id="a_Node000008"><a xlink:href="../../d3/d92/classfl_1_1scoped__array.html#ac726846a84175cb31ff545082729900c" target="_top" xlink:title=" ">
<polygon fill="white" stroke="#666666" points="388.5,-59.75 274.25,-59.75 274.25,-39 388.5,-39 388.5,-59.75"/>
<text text-anchor="middle" x="331.38" y="-46.25" font-family="Helvetica,sans-Serif" font-size="10.00">fl::scoped_array::get</text>
</a>
</g>
</g>
<!-- Node7&#45;&gt;Node8 -->
<g id="edge7_Node000007_Node000008" class="edge">
<title>Node7&#45;&gt;Node8</title>
<g id="a_edge7_Node000007_Node000008"><a xlink:title=" ">
<path fill="none" stroke="#63b8ff" d="M236.74,-49.38C244.85,-49.38 253.6,-49.38 262.38,-49.38"/>
<polygon fill="#63b8ff" stroke="#63b8ff" points="262.38,-52.88 272.38,-49.38 262.38,-45.88 262.38,-52.88"/>
</a>
</g>
</g>
</g>
</svg>
