<?xml version="1.0" encoding="UTF-8" standalone="no"?>
<!DOCTYPE svg PUBLIC "-//W3C//DTD SVG 1.1//EN"
 "http://www.w3.org/Graphics/SVG/1.1/DTD/svg11.dtd">
<!-- Generated by graphviz version 12.2.1 (20241206.2353)
 -->
<!-- Title: fl::Frame::rgb Pages: 1 -->
<svg width="280pt" height="176pt"
 viewBox="0.00 0.00 280.00 176.12" xmlns="http://www.w3.org/2000/svg" xmlns:xlink="http://www.w3.org/1999/xlink">
<g id="graph0" class="graph" transform="scale(1 1) rotate(0) translate(4 172.12)">
<title>fl::Frame::rgb</title>
<!-- Node1 -->
<g id="Node000001" class="node">
<title>Node1</title>
<g id="a_Node000001"><a xlink:title=" ">
<polygon fill="#999999" stroke="#666666" points="272,-78.75 191.5,-78.75 191.5,-58 272,-58 272,-78.75"/>
<text text-anchor="middle" x="231.75" y="-65.25" font-family="Helvetica,sans-Serif" font-size="10.00">fl::Frame::rgb</text>
</a>
</g>
</g>
<!-- Node2 -->
<g id="Node000002" class="node">
<title>Node2</title>
<g id="a_Node000002"><a xlink:href="../../d8/d94/classfl_1_1_frame_interpolator.html#af273dd01aff0df78a5bf87f1fa5662b1" target="_top" xlink:title=" ">
<polygon fill="white" stroke="#666666" points="135.62,-150.12 19.88,-150.12 19.88,-116.62 135.62,-116.62 135.62,-150.12"/>
<text text-anchor="start" x="27.88" y="-136.62" font-family="Helvetica,sans-Serif" font-size="10.00">fl::FrameInterpolator</text>
<text text-anchor="middle" x="77.75" y="-123.88" font-family="Helvetica,sans-Serif" font-size="10.00">::draw</text>
</a>
</g>
</g>
<!-- Node1&#45;&gt;Node2 -->
<g id="edge1_Node000001_Node000002" class="edge">
<title>Node1&#45;&gt;Node2</title>
<g id="a_edge1_Node000001_Node000002"><a xlink:title=" ">
<path fill="none" stroke="#63b8ff" d="M202.06,-84.55C188.23,-92.01 171.25,-100.67 155.5,-107.38 148.25,-110.46 140.5,-113.44 132.82,-116.21"/>
<polygon fill="#63b8ff" stroke="#63b8ff" points="203.54,-87.73 210.63,-79.86 200.18,-81.59 203.54,-87.73"/>
</a>
</g>
</g>
<!-- Node3 -->
<g id="Node000003" class="node">
<title>Node3</title>
<g id="a_Node000003"><a xlink:href="../../d1/de0/classfl_1_1_frame.html#a18b6f7181804a0392e40796f46352115" target="_top" xlink:title=" ">
<polygon fill="white" stroke="#666666" points="136.75,-98.75 18.75,-98.75 18.75,-78 136.75,-78 136.75,-98.75"/>
<text text-anchor="middle" x="77.75" y="-85.25" font-family="Helvetica,sans-Serif" font-size="10.00">fl::Frame::interpolate</text>
</a>
</g>
</g>
<!-- Node1&#45;&gt;Node3 -->
<g id="edge3_Node000001_Node000003" class="edge">
<title>Node1&#45;&gt;Node3</title>
<g id="a_edge3_Node000001_Node000003"><a xlink:title=" ">
<path fill="none" stroke="#63b8ff" d="M179.97,-75.06C166.19,-76.87 151.15,-78.85 136.99,-80.71"/>
<polygon fill="#63b8ff" stroke="#63b8ff" points="180.25,-78.55 189.71,-73.78 179.34,-71.61 180.25,-78.55"/>
</a>
</g>
</g>
<!-- Node4 -->
<g id="Node000004" class="node">
<title>Node4</title>
<g id="a_Node000004"><a xlink:href="../../d8/ddd/classfl_1_1_pixel_stream.html#abbf55c04a45047bcfbdac181130dddaf" target="_top" xlink:title=" ">
<polygon fill="white" stroke="#666666" points="150.25,-59.75 5.25,-59.75 5.25,-39 150.25,-39 150.25,-59.75"/>
<text text-anchor="middle" x="77.75" y="-46.25" font-family="Helvetica,sans-Serif" font-size="10.00">fl::PixelStream::readFrame</text>
</a>
</g>
</g>
<!-- Node1&#45;&gt;Node4 -->
<g id="edge4_Node000001_Node000004" class="edge">
<title>Node1&#45;&gt;Node4</title>
<g id="a_edge4_Node000001_Node000004"><a xlink:title=" ">
<path fill="none" stroke="#63b8ff" d="M179.99,-62.03C170.52,-60.85 160.45,-59.59 150.49,-58.34"/>
<polygon fill="#63b8ff" stroke="#63b8ff" points="179.35,-65.48 189.71,-63.24 180.22,-58.53 179.35,-65.48"/>
</a>
</g>
</g>
<!-- Node5 -->
<g id="Node000005" class="node">
<title>Node5</title>
<g id="a_Node000005"><a xlink:href="../../d8/ddd/classfl_1_1_pixel_stream.html#a3404c466e245a763fcad12da56412d39" target="_top" xlink:title=" ">
<polygon fill="white" stroke="#666666" points="155.5,-20.75 0,-20.75 0,0 155.5,0 155.5,-20.75"/>
<text text-anchor="middle" x="77.75" y="-7.25" font-family="Helvetica,sans-Serif" font-size="10.00">fl::PixelStream::readFrameAt</text>
</a>
</g>
</g>
<!-- Node1&#45;&gt;Node5 -->
<g id="edge5_Node000001_Node000005" class="edge">
<title>Node1&#45;&gt;Node5</title>
<g id="a_edge5_Node000001_Node000005"><a xlink:title=" ">
<path fill="none" stroke="#63b8ff" d="M202.22,-52.16C188.42,-44.79 171.43,-36.39 155.5,-30.38 146.35,-26.92 136.38,-23.84 126.74,-21.2"/>
<polygon fill="#63b8ff" stroke="#63b8ff" points="200.3,-55.1 210.75,-56.81 203.65,-48.95 200.3,-55.1"/>
</a>
</g>
</g>
<!-- Node2&#45;&gt;Node2 -->
<g id="edge2_Node000002_Node000002" class="edge">
<title>Node2&#45;&gt;Node2</title>
<g id="a_edge2_Node000002_Node000002"><a xlink:title=" ">
<path fill="none" stroke="#63b8ff" d="M103.25,-161.84C98.91,-165.62 90.42,-168.12 77.75,-168.12 54.59,-168.12 45.36,-159.74 50.07,-150.54"/>
<polygon fill="#63b8ff" stroke="#63b8ff" points="106.68,-162.51 105.15,-152.03 99.81,-161.18 106.68,-162.51"/>
</a>
</g>
</g>
</g>
</svg>
