<?xml version="1.0" encoding="UTF-8" standalone="no"?>
<!DOCTYPE svg PUBLIC "-//W3C//DTD SVG 1.1//EN"
 "http://www.w3.org/Graphics/SVG/1.1/DTD/svg11.dtd">
<!-- Generated by graphviz version 12.2.1 (20241206.2353)
 -->
<!-- Title: fl::ByteStreamMemory::write Pages: 1 -->
<svg width="527pt" height="184pt"
 viewBox="0.00 0.00 526.50 183.50" xmlns="http://www.w3.org/2000/svg" xmlns:xlink="http://www.w3.org/1999/xlink">
<g id="graph0" class="graph" transform="scale(1 1) rotate(0) translate(4 179.5)">
<title>fl::ByteStreamMemory::write</title>
<!-- Node1 -->
<g id="Node000001" class="node">
<title>Node1</title>
<g id="a_Node000001"><a xlink:title=" ">
<polygon fill="#999999" stroke="#666666" points="126.25,-107.5 0,-107.5 0,-74 126.25,-74 126.25,-107.5"/>
<text text-anchor="start" x="8" y="-94" font-family="Helvetica,sans-Serif" font-size="10.00">fl::ByteStreamMemory</text>
<text text-anchor="middle" x="63.12" y="-81.25" font-family="Helvetica,sans-Serif" font-size="10.00">::write</text>
</a>
</g>
</g>
<!-- Node2 -->
<g id="Node000002" class="node">
<title>Node2</title>
<g id="a_Node000002"><a xlink:href="../../d2/d4f/classfl_1_1_circular_buffer.html#a61c5530adcc76b18b8ce74180511b934" target="_top" xlink:title=" ">
<polygon fill="white" stroke="#666666" points="257,-175.5 162.25,-175.5 162.25,-142 257,-142 257,-175.5"/>
<text text-anchor="start" x="170.25" y="-162" font-family="Helvetica,sans-Serif" font-size="10.00">fl::CircularBuffer</text>
<text text-anchor="middle" x="209.62" y="-149.25" font-family="Helvetica,sans-Serif" font-size="10.00">::capacity</text>
</a>
</g>
</g>
<!-- Node1&#45;&gt;Node2 -->
<g id="edge1_Node000001_Node000002" class="edge">
<title>Node1&#45;&gt;Node2</title>
<g id="a_edge1_Node000001_Node000002"><a xlink:title=" ">
<path fill="none" stroke="#63b8ff" d="M100.59,-107.91C119.16,-116.65 141.94,-127.37 161.8,-136.71"/>
<polygon fill="#63b8ff" stroke="#63b8ff" points="160.27,-139.86 170.8,-140.95 163.25,-133.53 160.27,-139.86"/>
</a>
</g>
</g>
<!-- Node3 -->
<g id="Node000003" class="node">
<title>Node3</title>
<g id="a_Node000003"><a xlink:href="../../d2/d4f/classfl_1_1_circular_buffer.html#a62c12de0a321ce050f6c94f4f4eb6c28" target="_top" xlink:title=" ">
<polygon fill="white" stroke="#666666" points="387.75,-130.5 293,-130.5 293,-97 387.75,-97 387.75,-130.5"/>
<text text-anchor="start" x="301" y="-117" font-family="Helvetica,sans-Serif" font-size="10.00">fl::CircularBuffer</text>
<text text-anchor="middle" x="340.38" y="-104.25" font-family="Helvetica,sans-Serif" font-size="10.00">::full</text>
</a>
</g>
</g>
<!-- Node1&#45;&gt;Node3 -->
<g id="edge2_Node000001_Node000003" class="edge">
<title>Node1&#45;&gt;Node3</title>
<g id="a_edge2_Node000001_Node000003"><a xlink:title=" ">
<path fill="none" stroke="#63b8ff" d="M126.58,-95.97C172.98,-99.85 235.83,-105.1 281.18,-108.89"/>
<polygon fill="#63b8ff" stroke="#63b8ff" points="280.83,-112.37 291.09,-109.72 281.42,-105.39 280.83,-112.37"/>
</a>
</g>
</g>
<!-- Node5 -->
<g id="Node000005" class="node">
<title>Node5</title>
<g id="a_Node000005"><a xlink:href="../../d2/d4f/classfl_1_1_circular_buffer.html#adbeb1dee7527ceca6098ce36eaae6604" target="_top" xlink:title=" ">
<polygon fill="white" stroke="#666666" points="257,-85.5 162.25,-85.5 162.25,-52 257,-52 257,-85.5"/>
<text text-anchor="start" x="170.25" y="-72" font-family="Helvetica,sans-Serif" font-size="10.00">fl::CircularBuffer</text>
<text text-anchor="middle" x="209.62" y="-59.25" font-family="Helvetica,sans-Serif" font-size="10.00">::push_back</text>
</a>
</g>
</g>
<!-- Node1&#45;&gt;Node5 -->
<g id="edge4_Node000001_Node000005" class="edge">
<title>Node1&#45;&gt;Node5</title>
<g id="a_edge4_Node000001_Node000005"><a xlink:title=" ">
<path fill="none" stroke="#63b8ff" d="M126.66,-81.23C134.66,-80.01 142.82,-78.77 150.73,-77.56"/>
<polygon fill="#63b8ff" stroke="#63b8ff" points="151.26,-81.02 160.62,-76.06 150.2,-74.1 151.26,-81.02"/>
</a>
</g>
</g>
<!-- Node6 -->
<g id="Node000006" class="node">
<title>Node6</title>
<g id="a_Node000006"><a xlink:href="../../d2/d4f/classfl_1_1_circular_buffer.html#ab96bc31a3fce1bb648ca702ddbed96b2" target="_top" xlink:title=" ">
<polygon fill="white" stroke="#666666" points="257,-33.5 162.25,-33.5 162.25,0 257,0 257,-33.5"/>
<text text-anchor="start" x="170.25" y="-20" font-family="Helvetica,sans-Serif" font-size="10.00">fl::CircularBuffer</text>
<text text-anchor="middle" x="209.62" y="-7.25" font-family="Helvetica,sans-Serif" font-size="10.00">::size</text>
</a>
</g>
</g>
<!-- Node1&#45;&gt;Node6 -->
<g id="edge7_Node000001_Node000006" class="edge">
<title>Node1&#45;&gt;Node6</title>
<g id="a_edge7_Node000001_Node000006"><a xlink:title=" ">
<path fill="none" stroke="#63b8ff" d="M97.64,-73.59C117.63,-63.35 143.24,-50.24 164.81,-39.19"/>
<polygon fill="#63b8ff" stroke="#63b8ff" points="166.39,-42.31 173.7,-34.64 163.2,-36.08 166.39,-42.31"/>
</a>
</g>
</g>
<!-- Node4 -->
<g id="Node000004" class="node">
<title>Node4</title>
<g id="a_Node000004"><a xlink:href="../../d2/d4f/classfl_1_1_circular_buffer.html#af384b522248f5ed355b3f72aafe3249a" target="_top" xlink:title=" ">
<polygon fill="white" stroke="#666666" points="518.5,-107.5 423.75,-107.5 423.75,-74 518.5,-74 518.5,-107.5"/>
<text text-anchor="start" x="431.75" y="-94" font-family="Helvetica,sans-Serif" font-size="10.00">fl::CircularBuffer</text>
<text text-anchor="middle" x="471.12" y="-81.25" font-family="Helvetica,sans-Serif" font-size="10.00">::increment</text>
</a>
</g>
</g>
<!-- Node3&#45;&gt;Node4 -->
<g id="edge3_Node000003_Node000004" class="edge">
<title>Node3&#45;&gt;Node4</title>
<g id="a_edge3_Node000003_Node000004"><a xlink:title=" ">
<path fill="none" stroke="#63b8ff" d="M388.22,-105.38C396.04,-103.98 404.23,-102.52 412.29,-101.08"/>
<polygon fill="#63b8ff" stroke="#63b8ff" points="412.81,-104.54 422.04,-99.34 411.58,-97.65 412.81,-104.54"/>
</a>
</g>
</g>
<!-- Node5&#45;&gt;Node3 -->
<g id="edge5_Node000005_Node000003" class="edge">
<title>Node5&#45;&gt;Node3</title>
<g id="a_edge5_Node000005_Node000003"><a xlink:title=" ">
<path fill="none" stroke="#63b8ff" d="M257.47,-85.12C265.47,-87.92 273.86,-90.85 282.09,-93.73"/>
<polygon fill="#63b8ff" stroke="#63b8ff" points="280.76,-96.97 291.35,-96.96 283.07,-90.36 280.76,-96.97"/>
</a>
</g>
</g>
<!-- Node5&#45;&gt;Node4 -->
<g id="edge6_Node000005_Node000004" class="edge">
<title>Node5&#45;&gt;Node4</title>
<g id="a_edge6_Node000005_Node000004"><a xlink:title=" ">
<path fill="none" stroke="#63b8ff" d="M257.32,-72.71C300.63,-76.38 365.26,-81.86 411.92,-85.82"/>
<polygon fill="#63b8ff" stroke="#63b8ff" points="411.6,-89.3 421.86,-86.66 412.19,-82.33 411.6,-89.3"/>
</a>
</g>
</g>
</g>
</svg>
