<?xml version="1.0" encoding="UTF-8" standalone="no"?>
<!DOCTYPE svg PUBLIC "-//W3C//DTD SVG 1.1//EN"
 "http://www.w3.org/Graphics/SVG/1.1/DTD/svg11.dtd">
<!-- Generated by graphviz version 12.2.1 (20241206.2353)
 -->
<!-- Title: loop Pages: 1 -->
<svg width="663pt" height="672pt"
 viewBox="0.00 0.00 663.25 671.75" xmlns="http://www.w3.org/2000/svg" xmlns:xlink="http://www.w3.org/1999/xlink">
<g id="graph0" class="graph" transform="scale(1 1) rotate(0) translate(4 667.75)">
<title>loop</title>
<!-- Node1 -->
<g id="Node000001" class="node">
<title>Node1</title>
<g id="a_Node000001"><a xlink:title=" ">
<polygon fill="#999999" stroke="#666666" points="37,-411.75 0,-411.75 0,-391 37,-391 37,-411.75"/>
<text text-anchor="middle" x="18.5" y="-398.25" font-family="Helvetica,sans-Serif" font-size="10.00">loop</text>
</a>
</g>
</g>
<!-- Node2 -->
<g id="Node000002" class="node">
<title>Node2</title>
<g id="a_Node000002"><a xlink:href="../../de/da4/group___noise_fill.html#ga714a0f305e385a60d81a40d1f98b53fc" target="_top" xlink:title="Fill an LED matrix with random colors, using 16&#45;bit noise.">
<polygon fill="white" stroke="#666666" points="161,-574.75 77.5,-574.75 77.5,-554 161,-554 161,-574.75"/>
<text text-anchor="middle" x="119.25" y="-561.25" font-family="Helvetica,sans-Serif" font-size="10.00">fill_2dnoise16</text>
</a>
</g>
</g>
<!-- Node1&#45;&gt;Node2 -->
<g id="edge1_Node000001_Node000002" class="edge">
<title>Node1&#45;&gt;Node2</title>
<g id="a_edge1_Node000001_Node000002"><a xlink:title=" ">
<path fill="none" stroke="#63b8ff" d="M25.98,-412.07C42.23,-438.9 84.95,-509.4 106.07,-544.26"/>
<polygon fill="#63b8ff" stroke="#63b8ff" points="102.92,-545.82 111.09,-552.56 108.9,-542.19 102.92,-545.82"/>
</a>
</g>
</g>
<!-- Node21 -->
<g id="Node000021" class="node">
<title>Node21</title>
<g id="a_Node000021"><a xlink:href="../../dd/dbb/class_c_fast_l_e_d.html#a83afdd1e2a21f33ac4f8d2610d6e331b" target="_top" xlink:title="Update all our controllers with the current led colors, using the passed in brightness.">
<polygon fill="white" stroke="#666666" points="165.5,-277.75 73,-277.75 73,-257 165.5,-257 165.5,-277.75"/>
<text text-anchor="middle" x="119.25" y="-264.25" font-family="Helvetica,sans-Serif" font-size="10.00">CFastLED::show</text>
</a>
</g>
</g>
<!-- Node1&#45;&gt;Node21 -->
<g id="edge14_Node000001_Node000021" class="edge">
<title>Node1&#45;&gt;Node21</title>
<g id="a_edge14_Node000001_Node000021"><a xlink:title=" ">
<path fill="none" stroke="#63b8ff" d="M27.25,-390.86C43.68,-368.56 82.25,-316.22 103.53,-287.36"/>
<polygon fill="#63b8ff" stroke="#63b8ff" points="106.25,-289.56 109.37,-279.43 100.61,-285.41 106.25,-289.56"/>
</a>
</g>
</g>
<!-- Node3 -->
<g id="Node000003" class="node">
<title>Node3</title>
<g id="a_Node000003"><a xlink:href="../../dc/db8/group___color_blends.html#ga4f06b4423f71f77346aaf5dabe7dd05c" target="_top" xlink:title="Computes a new color blended some fraction of the way between two other colors.">
<polygon fill="white" stroke="#666666" points="312.38,-662.75 269.38,-662.75 269.38,-642 312.38,-642 312.38,-662.75"/>
<text text-anchor="middle" x="290.88" y="-649.25" font-family="Helvetica,sans-Serif" font-size="10.00">blend</text>
</a>
</g>
</g>
<!-- Node2&#45;&gt;Node3 -->
<g id="edge2_Node000002_Node000003" class="edge">
<title>Node2&#45;&gt;Node3</title>
<g id="a_edge2_Node000002_Node000003"><a xlink:title=" ">
<path fill="none" stroke="#63b8ff" d="M130.22,-575C144.58,-589.66 172.56,-615.92 201.5,-630.38 219.09,-639.16 240.43,-644.6 257.74,-647.87"/>
<polygon fill="#63b8ff" stroke="#63b8ff" points="257.04,-651.3 267.49,-649.55 258.23,-644.4 257.04,-651.3"/>
</a>
</g>
</g>
<!-- Node8 -->
<g id="Node000008" class="node">
<title>Node8</title>
<g id="a_Node000008"><a xlink:href="../../de/da4/group___noise_fill.html#ga20a2ff725bc56666c206d54deb372586" target="_top" xlink:title="Fill a 2D 8&#45;bit buffer with noise, using inoise16()">
<polygon fill="white" stroke="#666666" points="356.62,-546.75 225.12,-546.75 225.12,-526 356.62,-526 356.62,-546.75"/>
<text text-anchor="middle" x="290.88" y="-533.25" font-family="Helvetica,sans-Serif" font-size="10.00">fill_raw_2dnoise16into8</text>
</a>
</g>
</g>
<!-- Node2&#45;&gt;Node8 -->
<g id="edge4_Node000002_Node000008" class="edge">
<title>Node2&#45;&gt;Node8</title>
<g id="a_edge4_Node000002_Node000008"><a xlink:title=" ">
<path fill="none" stroke="#63b8ff" d="M161.31,-557.6C177.06,-555 195.59,-551.94 213.6,-548.97"/>
<polygon fill="#63b8ff" stroke="#63b8ff" points="213.92,-552.46 223.22,-547.38 212.78,-545.55 213.92,-552.46"/>
</a>
</g>
</g>
<!-- Node14 -->
<g id="Node000014" class="node">
<title>Node14</title>
<g id="a_Node000014"><a xlink:href="../../de/da4/group___noise_fill.html#ga3dc6c55a3f8495a7bc6dc0124434c688" target="_top" xlink:title="Fill a 2D 8&#45;bit buffer with noise, using inoise8()">
<polygon fill="white" stroke="#666666" points="341.25,-603.75 240.5,-603.75 240.5,-583 341.25,-583 341.25,-603.75"/>
<text text-anchor="middle" x="290.88" y="-590.25" font-family="Helvetica,sans-Serif" font-size="10.00">fill_raw_2dnoise8</text>
</a>
</g>
</g>
<!-- Node2&#45;&gt;Node14 -->
<g id="edge9_Node000002_Node000014" class="edge">
<title>Node2&#45;&gt;Node14</title>
<g id="a_edge9_Node000002_Node000014"><a xlink:title=" ">
<path fill="none" stroke="#63b8ff" d="M161.31,-571.4C181.61,-574.87 206.51,-579.12 228.98,-582.96"/>
<polygon fill="#63b8ff" stroke="#63b8ff" points="228.18,-586.38 238.63,-584.61 229.36,-579.48 228.18,-586.38"/>
</a>
</g>
</g>
<!-- Node4 -->
<g id="Node000004" class="node">
<title>Node4</title>
<g id="a_Node000004"><a xlink:href="../../dc/db8/group___color_blends.html#ga325120664a9c9b41abceee65303b0c4e" target="_top" xlink:title="Destructively modifies one color, blending in a given fraction of an overlay color.">
<polygon fill="#fff0f0" stroke="red" points="519.25,-663.75 470.25,-663.75 470.25,-643 519.25,-643 519.25,-663.75"/>
<text text-anchor="middle" x="494.75" y="-650.25" font-family="Helvetica,sans-Serif" font-size="10.00">nblend</text>
</a>
</g>
</g>
<!-- Node3&#45;&gt;Node4 -->
<g id="edge3_Node000003_Node000004" class="edge">
<title>Node3&#45;&gt;Node4</title>
<g id="a_edge3_Node000003_Node000004"><a xlink:title=" ">
<path fill="none" stroke="#63b8ff" d="M312.72,-652.48C347.18,-652.65 416.39,-652.99 458.54,-653.2"/>
<polygon fill="#63b8ff" stroke="#63b8ff" points="458.39,-656.7 468.4,-653.25 458.42,-649.7 458.39,-656.7"/>
</a>
</g>
</g>
<!-- Node8&#45;&gt;Node8 -->
<g id="edge5_Node000008_Node000008" class="edge">
<title>Node8&#45;&gt;Node8</title>
<g id="a_edge5_Node000008_Node000008"><a xlink:title=" ">
<path fill="none" stroke="#63b8ff" d="M263.22,-547.15C252.16,-555.81 261.38,-564.75 290.88,-564.75 307.01,-564.75 317.07,-562.08 321.07,-558.24"/>
<polygon fill="#63b8ff" stroke="#63b8ff" points="324.52,-557.59 318.87,-548.62 317.69,-559.15 324.52,-557.59"/>
</a>
</g>
</g>
<!-- Node9 -->
<g id="Node000009" class="node">
<title>Node9</title>
<g id="a_Node000009"><a xlink:href="../../d8/df9/group___noise_generation.html#ga94be5ce8402e6147209f94d6006e8f00" target="_top" xlink:title="16&#45;bit, fixed point implementation of Perlin&#39;s noise.">
<polygon fill="#fff0f0" stroke="red" points="523.38,-546.75 466.12,-546.75 466.12,-526 523.38,-526 523.38,-546.75"/>
<text text-anchor="middle" x="494.75" y="-533.25" font-family="Helvetica,sans-Serif" font-size="10.00">inoise16</text>
</a>
</g>
</g>
<!-- Node8&#45;&gt;Node9 -->
<g id="edge6_Node000008_Node000009" class="edge">
<title>Node8&#45;&gt;Node9</title>
<g id="a_edge6_Node000008_Node000009"><a xlink:title=" ">
<path fill="none" stroke="#63b8ff" d="M356.86,-536.38C389.03,-536.38 426.81,-536.38 454.52,-536.38"/>
<polygon fill="#63b8ff" stroke="#63b8ff" points="454.22,-539.88 464.22,-536.38 454.22,-532.88 454.22,-539.88"/>
</a>
</g>
</g>
<!-- Node12 -->
<g id="Node000012" class="node">
<title>Node12</title>
<g id="a_Node000012"><a xlink:href="../../d5/d98/group___math.html#ga07133b3085824d0fcd4f5086d286c4b5" target="_top" xlink:title="Add one byte to another, saturating at 0xFF.">
<polygon fill="white" stroke="#666666" points="655.25,-566.75 609.25,-566.75 609.25,-546 655.25,-546 655.25,-566.75"/>
<text text-anchor="middle" x="632.25" y="-553.25" font-family="Helvetica,sans-Serif" font-size="10.00">qadd8</text>
</a>
</g>
</g>
<!-- Node8&#45;&gt;Node12 -->
<g id="edge7_Node000008_Node000012" class="edge">
<title>Node8&#45;&gt;Node12</title>
<g id="a_edge7_Node000008_Node000012"><a xlink:title=" ">
<path fill="none" stroke="#63b8ff" d="M329.26,-525.55C384.09,-511.51 488.95,-491.67 573.25,-517.38 587.11,-521.6 600.66,-530.37 611.18,-538.53"/>
<polygon fill="#63b8ff" stroke="#63b8ff" points="608.78,-541.09 618.73,-544.74 613.23,-535.68 608.78,-541.09"/>
</a>
</g>
</g>
<!-- Node13 -->
<g id="Node000013" class="node">
<title>Node13</title>
<g id="a_Node000013"><a xlink:href="../../d0/da8/group___scaling.html#gad7535ccda9c92470c4e6ee0265585555" target="_top" xlink:title="Scale one byte by a second one, which is treated as the numerator of a fraction whose denominator is ...">
<polygon fill="white" stroke="#666666" points="518.5,-585.75 471,-585.75 471,-565 518.5,-565 518.5,-585.75"/>
<text text-anchor="middle" x="494.75" y="-572.25" font-family="Helvetica,sans-Serif" font-size="10.00">scale8</text>
</a>
</g>
</g>
<!-- Node8&#45;&gt;Node13 -->
<g id="edge8_Node000008_Node000013" class="edge">
<title>Node8&#45;&gt;Node13</title>
<g id="a_edge8_Node000008_Node000013"><a xlink:title=" ">
<path fill="none" stroke="#63b8ff" d="M348.11,-547.24C384.01,-554.17 429.36,-562.93 459.83,-568.82"/>
<polygon fill="#63b8ff" stroke="#63b8ff" points="458.77,-572.18 469.25,-570.64 460.09,-565.31 458.77,-572.18"/>
</a>
</g>
</g>
<!-- Node14&#45;&gt;Node13 -->
<g id="edge13_Node000014_Node000013" class="edge">
<title>Node14&#45;&gt;Node13</title>
<g id="a_edge13_Node000014_Node000013"><a xlink:title=" ">
<path fill="none" stroke="#63b8ff" d="M341.52,-588.95C378.22,-585.68 427.25,-581.3 459.63,-578.42"/>
<polygon fill="#63b8ff" stroke="#63b8ff" points="459.59,-581.93 469.24,-577.56 458.97,-574.96 459.59,-581.93"/>
</a>
</g>
</g>
<!-- Node14&#45;&gt;Node14 -->
<g id="edge10_Node000014_Node000014" class="edge">
<title>Node14&#45;&gt;Node14</title>
<g id="a_edge10_Node000014_Node000014"><a xlink:title=" ">
<path fill="none" stroke="#63b8ff" d="M263.22,-604.15C252.16,-612.81 261.38,-621.75 290.88,-621.75 307.01,-621.75 317.07,-619.08 321.07,-615.24"/>
<polygon fill="#63b8ff" stroke="#63b8ff" points="324.52,-614.59 318.87,-605.62 317.69,-616.15 324.52,-614.59"/>
</a>
</g>
</g>
<!-- Node15 -->
<g id="Node000015" class="node">
<title>Node15</title>
<g id="a_Node000015"><a xlink:href="../../d8/df9/group___noise_generation.html#gaa521ccca6038d7b5e881fe2e8f35d3bc" target="_top" xlink:title="8&#45;Bit, fixed point implementation of Perlin&#39;s noise.">
<polygon fill="#fff0f0" stroke="red" points="520.38,-624.75 469.12,-624.75 469.12,-604 520.38,-604 520.38,-624.75"/>
<text text-anchor="middle" x="494.75" y="-611.25" font-family="Helvetica,sans-Serif" font-size="10.00">inoise8</text>
</a>
</g>
</g>
<!-- Node14&#45;&gt;Node15 -->
<g id="edge11_Node000014_Node000015" class="edge">
<title>Node14&#45;&gt;Node15</title>
<g id="a_edge11_Node000014_Node000015"><a xlink:title=" ">
<path fill="none" stroke="#63b8ff" d="M341.52,-598.54C377.49,-602.28 425.31,-607.26 457.68,-610.62"/>
<polygon fill="#63b8ff" stroke="#63b8ff" points="457.04,-614.08 467.35,-611.63 457.77,-607.11 457.04,-614.08"/>
</a>
</g>
</g>
<!-- Node15&#45;&gt;Node12 -->
<g id="edge12_Node000015_Node000012" class="edge">
<title>Node15&#45;&gt;Node12</title>
<g id="a_edge12_Node000015_Node000012"><a xlink:title=" ">
<path fill="none" stroke="#63b8ff" d="M520.52,-610.14C536.09,-606.95 556.35,-601.85 573.25,-594.38 585.6,-588.92 598.26,-580.95 608.59,-573.71"/>
<polygon fill="#63b8ff" stroke="#63b8ff" points="610.43,-576.7 616.47,-568 606.32,-571.04 610.43,-576.7"/>
</a>
</g>
</g>
<!-- Node22 -->
<g id="Node000022" class="node">
<title>Node22</title>
<g id="a_Node000022"><a xlink:href="../../d6/d2c/class_c_l_e_d_controller.html#af9962ef739bdb3b590ee66f3780765d6" target="_top" xlink:title=" ">
<polygon fill="white" stroke="#666666" points="376.5,-470.75 205.25,-470.75 205.25,-450 376.5,-450 376.5,-470.75"/>
<text text-anchor="middle" x="290.88" y="-457.25" font-family="Helvetica,sans-Serif" font-size="10.00">CLEDController::beginShowLeds</text>
</a>
</g>
</g>
<!-- Node21&#45;&gt;Node22 -->
<g id="edge15_Node000021_Node000022" class="edge">
<title>Node21&#45;&gt;Node22</title>
<g id="a_edge15_Node000021_Node000022"><a xlink:title=" ">
<path fill="none" stroke="#63b8ff" d="M122.17,-277.97C128.14,-307.76 149.19,-392.86 201.5,-436.38 205.39,-439.61 209.67,-442.41 214.19,-444.83"/>
<polygon fill="#63b8ff" stroke="#63b8ff" points="212.5,-447.91 223.04,-448.93 215.44,-441.55 212.5,-447.91"/>
</a>
</g>
</g>
<!-- Node24 -->
<g id="Node000024" class="node">
<title>Node24</title>
<g id="a_Node000024"><a xlink:href="../../d6/d2c/class_c_l_e_d_controller.html#a63f75cf7e55cf8da46db5fd27110bb3e" target="_top" xlink:title="How many LEDs does this controller manage?">
<polygon fill="white" stroke="#666666" points="552.25,-431.75 437.25,-431.75 437.25,-411 552.25,-411 552.25,-431.75"/>
<text text-anchor="middle" x="494.75" y="-418.25" font-family="Helvetica,sans-Serif" font-size="10.00">CLEDController::size</text>
</a>
</g>
</g>
<!-- Node21&#45;&gt;Node24 -->
<g id="edge36_Node000021_Node000024" class="edge">
<title>Node21&#45;&gt;Node24</title>
<g id="a_edge36_Node000021_Node000024"><a xlink:title=" ">
<path fill="none" stroke="#63b8ff" d="M122.91,-277.93C130.21,-304.48 153.34,-374.05 201.5,-403.38 270.07,-445.12 365.25,-442.21 428.12,-433.86"/>
<polygon fill="#63b8ff" stroke="#63b8ff" points="428.57,-437.33 437.97,-432.46 427.58,-430.4 428.57,-437.33"/>
</a>
</g>
</g>
<!-- Node25 -->
<g id="Node000025" class="node">
<title>Node25</title>
<g id="a_Node000025"><a xlink:href="../../dd/dbb/class_c_fast_l_e_d.html#a61d27e179c9b68bde89d220aebc0de32" target="_top" xlink:title="For debugging, this will keep track of time between calls to countFPS().">
<polygon fill="white" stroke="#666666" points="346.88,-20.75 234.88,-20.75 234.88,0 346.88,0 346.88,-20.75"/>
<text text-anchor="middle" x="290.88" y="-7.25" font-family="Helvetica,sans-Serif" font-size="10.00">CFastLED::countFPS</text>
</a>
</g>
</g>
<!-- Node21&#45;&gt;Node25 -->
<g id="edge18_Node000021_Node000025" class="edge">
<title>Node21&#45;&gt;Node25</title>
<g id="a_edge18_Node000021_Node000025"><a xlink:title=" ">
<path fill="none" stroke="#63b8ff" d="M120.41,-256.61C121.59,-218.98 130.86,-92.19 201.5,-29.38 207.86,-23.72 215.49,-19.61 223.57,-16.64"/>
<polygon fill="#63b8ff" stroke="#63b8ff" points="224.38,-20.05 232.93,-13.8 222.35,-13.35 224.38,-20.05"/>
</a>
</g>
</g>
<!-- Node26 -->
<g id="Node000026" class="node">
<title>Node26</title>
<g id="a_Node000026"><a xlink:href="../../d6/d2c/class_c_l_e_d_controller.html#a49b221af013bf196c2068e2cbd1c299d" target="_top" xlink:title=" ">
<polygon fill="white" stroke="#666666" points="372,-148.75 209.75,-148.75 209.75,-128 372,-128 372,-148.75"/>
<text text-anchor="middle" x="290.88" y="-135.25" font-family="Helvetica,sans-Serif" font-size="10.00">CLEDController::endShowLeds</text>
</a>
</g>
</g>
<!-- Node21&#45;&gt;Node26 -->
<g id="edge19_Node000021_Node000026" class="edge">
<title>Node21&#45;&gt;Node26</title>
<g id="a_edge19_Node000021_Node000026"><a xlink:title=" ">
<path fill="none" stroke="#63b8ff" d="M124.95,-256.58C135.27,-234.21 162.2,-182.74 201.5,-157.38 203.38,-156.16 205.32,-155.03 207.32,-153.96"/>
<polygon fill="#63b8ff" stroke="#63b8ff" points="208.66,-157.19 216.29,-149.84 205.74,-150.83 208.66,-157.19"/>
</a>
</g>
</g>
<!-- Node27 -->
<g id="Node000027" class="node">
<title>Node27</title>
<g id="a_Node000027"><a xlink:href="../../d6/d2c/class_c_l_e_d_controller.html#a2a231accbeb00e6a6080a7e55274a279" target="_top" xlink:title="Set the dithering mode for this controller to use.">
<polygon fill="white" stroke="#666666" points="565,-129.75 424.5,-129.75 424.5,-109 565,-109 565,-129.75"/>
<text text-anchor="middle" x="494.75" y="-116.25" font-family="Helvetica,sans-Serif" font-size="10.00">CLEDController::setDither</text>
</a>
</g>
</g>
<!-- Node21&#45;&gt;Node27 -->
<g id="edge33_Node000021_Node000027" class="edge">
<title>Node21&#45;&gt;Node27</title>
<g id="a_edge33_Node000021_Node000027"><a xlink:title=" ">
<path fill="none" stroke="#63b8ff" d="M122.3,-256.58C128.39,-227.97 149.28,-150.28 201.5,-119.38 277.96,-74.13 386.55,-90.78 447.55,-105.82"/>
<polygon fill="#63b8ff" stroke="#63b8ff" points="446.34,-109.12 456.9,-108.22 448.08,-102.34 446.34,-109.12"/>
</a>
</g>
</g>
<!-- Node28 -->
<g id="Node000028" class="node">
<title>Node28</title>
<g id="a_Node000028"><a xlink:href="../../d6/d2c/class_c_l_e_d_controller.html#a6bd253f670640ea4d1bd0d71b8029f2a" target="_top" xlink:title=" ">
<polygon fill="white" stroke="#666666" points="366,-394.75 215.75,-394.75 215.75,-374 366,-374 366,-394.75"/>
<text text-anchor="middle" x="290.88" y="-381.25" font-family="Helvetica,sans-Serif" font-size="10.00">CLEDController::getEnabled</text>
</a>
</g>
</g>
<!-- Node21&#45;&gt;Node28 -->
<g id="edge21_Node000021_Node000028" class="edge">
<title>Node21&#45;&gt;Node28</title>
<g id="a_edge21_Node000021_Node000028"><a xlink:title=" ">
<path fill="none" stroke="#63b8ff" d="M126.02,-278.09C137.51,-298.37 165.31,-342.29 201.5,-364.38 204.43,-366.16 207.5,-367.79 210.66,-369.27"/>
<polygon fill="#63b8ff" stroke="#63b8ff" points="209.07,-372.4 219.65,-372.95 211.72,-365.92 209.07,-372.4"/>
</a>
</g>
</g>
<!-- Node29 -->
<g id="Node000029" class="node">
<title>Node29</title>
<g id="a_Node000029"><a xlink:href="../../d6/d2c/class_c_l_e_d_controller.html#a8b412ff1fd4833d0db63a175d40a2ee0" target="_top" xlink:title="Get the first LED controller in the linked list of controllers.">
<polygon fill="white" stroke="#666666" points="350.62,-355.75 231.12,-355.75 231.12,-335 350.62,-335 350.62,-355.75"/>
<text text-anchor="middle" x="290.88" y="-342.25" font-family="Helvetica,sans-Serif" font-size="10.00">CLEDController::head</text>
</a>
</g>
</g>
<!-- Node21&#45;&gt;Node29 -->
<g id="edge22_Node000021_Node000029" class="edge">
<title>Node21&#45;&gt;Node29</title>
<g id="a_edge22_Node000021_Node000029"><a xlink:title=" ">
<path fill="none" stroke="#63b8ff" d="M131.97,-278.07C146.97,-291.19 174.3,-313.19 201.5,-325.38 207.39,-328.01 213.65,-330.32 220.03,-332.33"/>
<polygon fill="#63b8ff" stroke="#63b8ff" points="218.78,-335.61 229.36,-335.03 220.72,-328.89 218.78,-335.61"/>
</a>
</g>
</g>
<!-- Node30 -->
<g id="Node000030" class="node">
<title>Node30</title>
<g id="a_Node000030"><a xlink:href="../../d6/d2c/class_c_l_e_d_controller.html#a21a4d2b3415dd7b24175ebdb51c9ced0" target="_top" xlink:title="Get the next controller in the linked list after this one.">
<polygon fill="white" stroke="#666666" points="349.5,-316.75 232.25,-316.75 232.25,-296 349.5,-296 349.5,-316.75"/>
<text text-anchor="middle" x="290.88" y="-303.25" font-family="Helvetica,sans-Serif" font-size="10.00">CLEDController::next</text>
</a>
</g>
</g>
<!-- Node21&#45;&gt;Node30 -->
<g id="edge23_Node000021_Node000030" class="edge">
<title>Node21&#45;&gt;Node30</title>
<g id="a_edge23_Node000021_Node000030"><a xlink:title=" ">
<path fill="none" stroke="#63b8ff" d="M165.79,-278.08C177.43,-280.8 189.92,-283.71 201.5,-286.38 210.87,-288.53 220.79,-290.8 230.48,-293"/>
<polygon fill="#63b8ff" stroke="#63b8ff" points="229.7,-296.41 240.23,-295.2 231.25,-289.58 229.7,-296.41"/>
</a>
</g>
</g>
<!-- Node31 -->
<g id="Node000031" class="node">
<title>Node31</title>
<g id="a_Node000031"><a xlink:href="../../de/dca/classfl_1_1_engine_events.html#a7147debfba714b8ab0925af1a7c935c0" target="_top" xlink:title=" ">
<polygon fill="white" stroke="#666666" points="360.75,-200.12 221,-200.12 221,-166.62 360.75,-166.62 360.75,-200.12"/>
<text text-anchor="start" x="229" y="-186.62" font-family="Helvetica,sans-Serif" font-size="10.00">fl::EngineEvents::onBegin</text>
<text text-anchor="middle" x="290.88" y="-173.88" font-family="Helvetica,sans-Serif" font-size="10.00">Frame</text>
</a>
</g>
</g>
<!-- Node21&#45;&gt;Node31 -->
<g id="edge24_Node000021_Node000031" class="edge">
<title>Node21&#45;&gt;Node31</title>
<g id="a_edge24_Node000021_Node000031"><a xlink:title=" ">
<path fill="none" stroke="#63b8ff" d="M132.63,-256.5C147.87,-243.62 175.01,-222.27 201.5,-209.38 204.98,-207.68 208.6,-206.07 212.29,-204.55"/>
<polygon fill="#63b8ff" stroke="#63b8ff" points="213.37,-207.89 221.44,-201.03 210.85,-201.35 213.37,-207.89"/>
</a>
</g>
</g>
<!-- Node35 -->
<g id="Node000035" class="node">
<title>Node35</title>
<g id="a_Node000035"><a xlink:href="../../de/dca/classfl_1_1_engine_events.html#ab7d24c4783214392de84947cd7df5570" target="_top" xlink:title=" ">
<polygon fill="white" stroke="#666666" points="371.25,-277.75 210.5,-277.75 210.5,-257 371.25,-257 371.25,-277.75"/>
<text text-anchor="middle" x="290.88" y="-264.25" font-family="Helvetica,sans-Serif" font-size="10.00">fl::EngineEvents::onEndFrame</text>
</a>
</g>
</g>
<!-- Node21&#45;&gt;Node35 -->
<g id="edge27_Node000021_Node000035" class="edge">
<title>Node21&#45;&gt;Node35</title>
<g id="a_edge27_Node000021_Node000035"><a xlink:title=" ">
<path fill="none" stroke="#63b8ff" d="M165.71,-267.38C176.01,-267.38 187.31,-267.38 198.76,-267.38"/>
<polygon fill="#63b8ff" stroke="#63b8ff" points="198.73,-270.88 208.73,-267.38 198.73,-263.88 198.73,-270.88"/>
</a>
</g>
</g>
<!-- Node37 -->
<g id="Node000037" class="node">
<title>Node37</title>
<g id="a_Node000037"><a xlink:href="../../de/dca/classfl_1_1_engine_events.html#af1bb9a46fdc6694a1b5c87a49c516ae8" target="_top" xlink:title=" ">
<polygon fill="white" stroke="#666666" points="380.25,-238.75 201.5,-238.75 201.5,-218 380.25,-218 380.25,-238.75"/>
<text text-anchor="middle" x="290.88" y="-225.25" font-family="Helvetica,sans-Serif" font-size="10.00">fl::EngineEvents::onEndShowLeds</text>
</a>
</g>
</g>
<!-- Node21&#45;&gt;Node37 -->
<g id="edge30_Node000021_Node000037" class="edge">
<title>Node21&#45;&gt;Node37</title>
<g id="a_edge30_Node000021_Node000037"><a xlink:title=" ">
<path fill="none" stroke="#63b8ff" d="M165.79,-256.67C177.43,-253.95 189.92,-251.04 201.5,-248.38 210.87,-246.22 220.79,-243.95 230.48,-241.75"/>
<polygon fill="#63b8ff" stroke="#63b8ff" points="231.25,-245.17 240.23,-239.55 229.7,-238.34 231.25,-245.17"/>
</a>
</g>
</g>
<!-- Node39 -->
<g id="Node000039" class="node">
<title>Node39</title>
<g id="a_Node000039"><a xlink:href="../../d6/d2c/class_c_l_e_d_controller.html#ac5355e980ac13d9ae97561f183f73990" target="_top" xlink:title="Write the data to the LEDs managed by this controller.">
<polygon fill="white" stroke="#666666" points="362.62,-72.12 219.12,-72.12 219.12,-38.62 362.62,-38.62 362.62,-72.12"/>
<text text-anchor="start" x="227.12" y="-58.62" font-family="Helvetica,sans-Serif" font-size="10.00">CLEDController::showLeds</text>
<text text-anchor="middle" x="290.88" y="-45.88" font-family="Helvetica,sans-Serif" font-size="10.00">Internal</text>
</a>
</g>
</g>
<!-- Node21&#45;&gt;Node39 -->
<g id="edge34_Node000021_Node000039" class="edge">
<title>Node21&#45;&gt;Node39</title>
<g id="a_edge34_Node000021_Node000039"><a xlink:title=" ">
<path fill="none" stroke="#63b8ff" d="M122.02,-256.68C127.68,-225.76 148.24,-135.31 201.5,-86.38 204.77,-83.37 208.36,-80.65 212.14,-78.19"/>
<polygon fill="#63b8ff" stroke="#63b8ff" points="213.66,-81.35 220.61,-73.35 210.19,-75.27 213.66,-81.35"/>
</a>
</g>
</g>
<!-- Node23 -->
<g id="Node000023" class="node">
<title>Node23</title>
<g id="a_Node000023"><a xlink:href="../../d6/d2c/class_c_l_e_d_controller.html#a676f705adf93898739a405b85150a3e7" target="_top" xlink:title="Get the dithering option currently set for this controller.">
<polygon fill="white" stroke="#666666" points="565.38,-470.75 424.12,-470.75 424.12,-450 565.38,-450 565.38,-470.75"/>
<text text-anchor="middle" x="494.75" y="-457.25" font-family="Helvetica,sans-Serif" font-size="10.00">CLEDController::getDither</text>
</a>
</g>
</g>
<!-- Node22&#45;&gt;Node23 -->
<g id="edge16_Node000022_Node000023" class="edge">
<title>Node22&#45;&gt;Node23</title>
<g id="a_edge16_Node000022_Node000023"><a xlink:title=" ">
<path fill="none" stroke="#63b8ff" d="M376.9,-460.38C388.62,-460.38 400.63,-460.38 412.29,-460.38"/>
<polygon fill="#63b8ff" stroke="#63b8ff" points="412.28,-463.88 422.28,-460.38 412.28,-456.88 412.28,-463.88"/>
</a>
</g>
</g>
<!-- Node22&#45;&gt;Node24 -->
<g id="edge17_Node000022_Node000024" class="edge">
<title>Node22&#45;&gt;Node24</title>
<g id="a_edge17_Node000022_Node000024"><a xlink:title=" ">
<path fill="none" stroke="#63b8ff" d="M348.11,-449.51C372.4,-444.82 401.01,-439.29 426.42,-434.38"/>
<polygon fill="#63b8ff" stroke="#63b8ff" points="426.83,-437.87 435.98,-432.54 425.5,-431 426.83,-437.87"/>
</a>
</g>
</g>
<!-- Node26&#45;&gt;Node27 -->
<g id="edge20_Node000026_Node000027" class="edge">
<title>Node26&#45;&gt;Node27</title>
<g id="a_edge20_Node000026_Node000027"><a xlink:title=" ">
<path fill="none" stroke="#63b8ff" d="M372.24,-130.81C385.64,-129.55 399.55,-128.24 412.96,-126.98"/>
<polygon fill="#63b8ff" stroke="#63b8ff" points="412.95,-130.5 422.58,-126.07 412.3,-123.53 412.95,-130.5"/>
</a>
</g>
</g>
<!-- Node32 -->
<g id="Node000032" class="node">
<title>Node32</title>
<g id="a_Node000032"><a xlink:href="../../de/dca/classfl_1_1_engine_events.html#a9dfab83407c4cb0c15065e242d49de62" target="_top" xlink:title=" ">
<polygon fill="white" stroke="#666666" points="544.75,-191.12 444.75,-191.12 444.75,-157.62 544.75,-157.62 544.75,-191.12"/>
<text text-anchor="start" x="452.75" y="-177.62" font-family="Helvetica,sans-Serif" font-size="10.00">fl::EngineEvents::</text>
<text text-anchor="middle" x="494.75" y="-164.88" font-family="Helvetica,sans-Serif" font-size="10.00">_onBeginFrame</text>
</a>
</g>
</g>
<!-- Node31&#45;&gt;Node32 -->
<g id="edge25_Node000031_Node000032" class="edge">
<title>Node31&#45;&gt;Node32</title>
<g id="a_edge25_Node000031_Node000032"><a xlink:title=" ">
<path fill="none" stroke="#63b8ff" d="M361.07,-180.29C384.5,-179.25 410.48,-178.09 433.19,-177.08"/>
<polygon fill="#63b8ff" stroke="#63b8ff" points="433.04,-180.58 442.88,-176.64 432.73,-173.59 433.04,-180.58"/>
</a>
</g>
</g>
<!-- Node33 -->
<g id="Node000033" class="node">
<title>Node33</title>
<g id="a_Node000033"><a xlink:href="../../de/dca/classfl_1_1_engine_events.html#a34a4625c4fbcf754f70820bc4f0e418b" target="_top" xlink:title=" ">
<polygon fill="#fff0f0" stroke="red" points="573.25,-229.75 416.25,-229.75 416.25,-209 573.25,-209 573.25,-229.75"/>
<text text-anchor="middle" x="494.75" y="-216.25" font-family="Helvetica,sans-Serif" font-size="10.00">fl::EngineEvents::getInstance</text>
</a>
</g>
</g>
<!-- Node31&#45;&gt;Node33 -->
<g id="edge26_Node000031_Node000033" class="edge">
<title>Node31&#45;&gt;Node33</title>
<g id="a_edge26_Node000031_Node000033"><a xlink:title=" ">
<path fill="none" stroke="#63b8ff" d="M361.07,-195.71C380.72,-199.22 402.16,-203.04 421.96,-206.57"/>
<polygon fill="#63b8ff" stroke="#63b8ff" points="421.13,-209.98 431.59,-208.29 422.36,-203.09 421.13,-209.98"/>
</a>
</g>
</g>
<!-- Node35&#45;&gt;Node33 -->
<g id="edge29_Node000035_Node000033" class="edge">
<title>Node35&#45;&gt;Node33</title>
<g id="a_edge29_Node000035_Node000033"><a xlink:title=" ">
<path fill="none" stroke="#63b8ff" d="M340.54,-256.57C353.46,-253.64 367.4,-250.44 380.25,-247.38 396.29,-243.55 400.24,-242.34 416.25,-238.38 423.39,-236.61 430.91,-234.75 438.34,-232.93"/>
<polygon fill="#63b8ff" stroke="#63b8ff" points="439.13,-236.34 448.01,-230.55 437.46,-229.54 439.13,-236.34"/>
</a>
</g>
</g>
<!-- Node36 -->
<g id="Node000036" class="node">
<title>Node36</title>
<g id="a_Node000036"><a xlink:href="../../de/dca/classfl_1_1_engine_events.html#a643d9a8597b79d76daed94c29845e886" target="_top" xlink:title=" ">
<polygon fill="white" stroke="#666666" points="544.75,-333.12 444.75,-333.12 444.75,-299.62 544.75,-299.62 544.75,-333.12"/>
<text text-anchor="start" x="452.75" y="-319.62" font-family="Helvetica,sans-Serif" font-size="10.00">fl::EngineEvents::</text>
<text text-anchor="middle" x="494.75" y="-306.88" font-family="Helvetica,sans-Serif" font-size="10.00">_onEndFrame</text>
</a>
</g>
</g>
<!-- Node35&#45;&gt;Node36 -->
<g id="edge28_Node000035_Node000036" class="edge">
<title>Node35&#45;&gt;Node36</title>
<g id="a_edge28_Node000035_Node000036"><a xlink:title=" ">
<path fill="none" stroke="#63b8ff" d="M341.01,-278.24C353.8,-281.14 367.56,-284.32 380.25,-287.38 397.52,-291.54 416.23,-296.23 433.37,-300.62"/>
<polygon fill="#63b8ff" stroke="#63b8ff" points="432.36,-303.97 442.91,-303.07 434.1,-297.19 432.36,-303.97"/>
</a>
</g>
</g>
<!-- Node37&#45;&gt;Node33 -->
<g id="edge32_Node000037_Node000033" class="edge">
<title>Node37&#45;&gt;Node33</title>
<g id="a_edge32_Node000037_Node000033"><a xlink:title=" ">
<path fill="none" stroke="#63b8ff" d="M380.71,-224.41C388.6,-224.06 396.59,-223.71 404.48,-223.35"/>
<polygon fill="#63b8ff" stroke="#63b8ff" points="404.61,-226.85 414.44,-222.91 404.3,-219.86 404.61,-226.85"/>
</a>
</g>
</g>
<!-- Node38 -->
<g id="Node000038" class="node">
<title>Node38</title>
<g id="a_Node000038"><a xlink:href="../../de/dca/classfl_1_1_engine_events.html#ae6b4037ab7b73bf0d69e07c4956f9450" target="_top" xlink:title=" ">
<polygon fill="white" stroke="#666666" points="544.75,-281.12 444.75,-281.12 444.75,-247.62 544.75,-247.62 544.75,-281.12"/>
<text text-anchor="start" x="452.75" y="-267.62" font-family="Helvetica,sans-Serif" font-size="10.00">fl::EngineEvents::</text>
<text text-anchor="middle" x="494.75" y="-254.88" font-family="Helvetica,sans-Serif" font-size="10.00">_onEndShowLeds</text>
</a>
</g>
</g>
<!-- Node37&#45;&gt;Node38 -->
<g id="edge31_Node000037_Node000038" class="edge">
<title>Node37&#45;&gt;Node38</title>
<g id="a_edge31_Node000037_Node000038"><a xlink:title=" ">
<path fill="none" stroke="#63b8ff" d="M352.72,-239.23C378.3,-243.79 407.99,-249.08 433.51,-253.63"/>
<polygon fill="#63b8ff" stroke="#63b8ff" points="432.59,-257.02 443.05,-255.33 433.82,-250.13 432.59,-257.02"/>
</a>
</g>
</g>
<!-- Node40 -->
<g id="Node000040" class="node">
<title>Node40</title>
<g id="a_Node000040"><a xlink:href="../../d6/d2c/class_c_l_e_d_controller.html#afc8fb063666d03527aabc86d8531e007" target="_top" xlink:title="Write the passed in RGB data out to the LEDs managed by this controller.">
<polygon fill="white" stroke="#666666" points="555.25,-65.75 434.25,-65.75 434.25,-45 555.25,-45 555.25,-65.75"/>
<text text-anchor="middle" x="494.75" y="-52.25" font-family="Helvetica,sans-Serif" font-size="10.00">CLEDController::show</text>
</a>
</g>
</g>
<!-- Node39&#45;&gt;Node40 -->
<g id="edge35_Node000039_Node000040" class="edge">
<title>Node39&#45;&gt;Node40</title>
<g id="a_edge35_Node000039_Node000040"><a xlink:title=" ">
<path fill="none" stroke="#63b8ff" d="M363.05,-55.38C382.32,-55.38 403.17,-55.38 422.45,-55.38"/>
<polygon fill="#63b8ff" stroke="#63b8ff" points="422.39,-58.88 432.39,-55.38 422.39,-51.88 422.39,-58.88"/>
</a>
</g>
</g>
</g>
</svg>
