<?xml version="1.0" encoding="UTF-8" standalone="no"?>
<!DOCTYPE svg PUBLIC "-//W3C//DTD SVG 1.1//EN"
 "http://www.w3.org/Graphics/SVG/1.1/DTD/svg11.dtd">
<!-- Generated by graphviz version 12.2.1 (20241206.2353)
 -->
<!-- Title: APA102Controller&lt; DATA_PIN, CLOCK_PIN, RGB_ORDER, SPI_SPEED, GAMMA_CORRECTION_MODE, START_FRAME, END_FRAME &gt; Pages: 1 -->
<svg width="1884pt" height="437pt"
 viewBox="0.00 0.00 1884.00 437.33" xmlns="http://www.w3.org/2000/svg" xmlns:xlink="http://www.w3.org/1999/xlink">
<g id="graph0" class="graph" transform="scale(1 1) rotate(0) translate(4 433.33)">
<title>APA102Controller&lt; DATA_PIN, CLOCK_PIN, RGB_ORDER, SPI_SPEED, GAMMA_CORRECTION_MODE, START_FRAME, END_FRAME &gt;</title>
<!-- Node1 -->
<g id="Node000001" class="node">
<title>Node1</title>
<g id="a_Node000001"><a xlink:title="APA102 controller class.">
<polygon fill="#999999" stroke="#666666" points="693,-224.38 488,-224.38 488,-165.38 693,-165.38 693,-224.38"/>
<text text-anchor="start" x="496" y="-210.88" font-family="Helvetica,sans-Serif" font-size="10.00">APA102Controller&lt; DATA</text>
<text text-anchor="start" x="496" y="-198.12" font-family="Helvetica,sans-Serif" font-size="10.00">_PIN, CLOCK_PIN, RGB_ORDER,</text>
<text text-anchor="start" x="496" y="-185.38" font-family="Helvetica,sans-Serif" font-size="10.00"> SPI_SPEED, GAMMA_CORRECTION</text>
<text text-anchor="middle" x="590.5" y="-172.62" font-family="Helvetica,sans-Serif" font-size="10.00">_MODE, START_FRAME, END_FRAME &gt;</text>
</a>
</g>
</g>
<!-- Node5 -->
<g id="Node000005" class="node">
<title>Node5</title>
<g id="a_Node000005"><a xlink:href="../../df/d0d/group___clocked_chipsets.html" target="_top" xlink:title=" ">
<polygon fill="white" stroke="#666666" points="1098.62,-398.12 926.62,-398.12 926.62,-313.62 1098.62,-313.62 1098.62,-398.12"/>
<text text-anchor="start" x="934.62" y="-384.62" font-family="Helvetica,sans-Serif" font-size="10.00">APA102Controller&lt; DATA</text>
<text text-anchor="start" x="934.62" y="-371.88" font-family="Helvetica,sans-Serif" font-size="10.00">_PIN, CLOCK_PIN, RGB,</text>
<text text-anchor="start" x="934.62" y="-359.12" font-family="Helvetica,sans-Serif" font-size="10.00"> DATA_RATE_MHZ(6), fl::</text>
<text text-anchor="start" x="934.62" y="-346.38" font-family="Helvetica,sans-Serif" font-size="10.00">kFiveBitGammaCorrectionMode</text>
<text text-anchor="start" x="934.62" y="-333.62" font-family="Helvetica,sans-Serif" font-size="10.00">_BitShift, uint32_t(0x00000000)</text>
<text text-anchor="middle" x="1012.62" y="-320.88" font-family="Helvetica,sans-Serif" font-size="10.00">, uint32_t(0x00000000)&gt;</text>
</a>
</g>
</g>
<!-- Node1&#45;&gt;Node5 -->
<g id="edge5_Node000001_Node000005" class="edge">
<title>Node1&#45;&gt;Node5</title>
<g id="a_edge5_Node000001_Node000005"><a xlink:title=" ">
<path fill="none" stroke="orange" stroke-dasharray="5,2" d="M614.43,-234.3C635.25,-266.06 669.06,-308.77 711,-329.88 777.8,-363.49 863.58,-367.7 926.4,-364.85"/>
<polygon fill="orange" stroke="orange" points="617.54,-232.66 609.21,-226.11 611.63,-236.42 617.54,-232.66"/>
</a>
</g>
<text text-anchor="start" x="712.5" y="-419.83" font-family="Helvetica,sans-Serif" font-size="10.00" fill="grey"> &lt; DATA_PIN, CLOCK_PIN,</text>
<text text-anchor="start" x="712.5" y="-407.08" font-family="Helvetica,sans-Serif" font-size="10.00" fill="grey"> RGB, DATA_RATE_MHZ(6)</text>
<text text-anchor="start" x="712.5" y="-394.33" font-family="Helvetica,sans-Serif" font-size="10.00" fill="grey">, fl::kFiveBitGammaCorrection</text>
<text text-anchor="start" x="712.5" y="-381.58" font-family="Helvetica,sans-Serif" font-size="10.00" fill="grey">Mode_BitShift, uint32_t(0x00000000)</text>
<text text-anchor="middle" x="802.88" y="-368.83" font-family="Helvetica,sans-Serif" font-size="10.00" fill="grey">, uint32_t(0x00000000)&gt;</text>
</g>
<!-- Node9 -->
<g id="Node000009" class="node">
<title>Node9</title>
<g id="a_Node000009"><a xlink:href="../../df/d0d/group___clocked_chipsets.html" target="_top" xlink:title=" ">
<polygon fill="white" stroke="#666666" points="1104.62,-295.75 920.62,-295.75 920.62,-224 1104.62,-224 1104.62,-295.75"/>
<text text-anchor="start" x="928.62" y="-282.25" font-family="Helvetica,sans-Serif" font-size="10.00">APA102Controller&lt; DATA</text>
<text text-anchor="start" x="928.62" y="-269.5" font-family="Helvetica,sans-Serif" font-size="10.00">_PIN, CLOCK_PIN, RGB,</text>
<text text-anchor="start" x="928.62" y="-256.75" font-family="Helvetica,sans-Serif" font-size="10.00"> DATA_RATE_MHZ(40), fl</text>
<text text-anchor="start" x="928.62" y="-244" font-family="Helvetica,sans-Serif" font-size="10.00">::kFiveBitGammaCorrectionMode</text>
<text text-anchor="middle" x="1012.62" y="-231.25" font-family="Helvetica,sans-Serif" font-size="10.00">_Null, 0x00000000, 0x00000000 &gt;</text>
</a>
</g>
</g>
<!-- Node1&#45;&gt;Node9 -->
<g id="edge8_Node000001_Node000009" class="edge">
<title>Node1&#45;&gt;Node9</title>
<g id="a_edge8_Node000001_Node000009"><a xlink:title=" ">
<path fill="none" stroke="orange" stroke-dasharray="5,2" d="M643.98,-230.76C664.03,-242.46 687.7,-253.95 711,-259.88 779.66,-277.34 860.04,-276.28 920.4,-271.44"/>
<polygon fill="orange" stroke="orange" points="645.81,-227.78 635.44,-225.62 642.2,-233.78 645.81,-227.78"/>
</a>
</g>
<text text-anchor="start" x="715.88" y="-316.01" font-family="Helvetica,sans-Serif" font-size="10.00" fill="grey"> &lt; DATA_PIN, CLOCK_PIN,</text>
<text text-anchor="start" x="715.88" y="-303.26" font-family="Helvetica,sans-Serif" font-size="10.00" fill="grey"> RGB, DATA_RATE_MHZ(40)</text>
<text text-anchor="start" x="715.88" y="-290.51" font-family="Helvetica,sans-Serif" font-size="10.00" fill="grey">, fl::kFiveBitGammaCorrectionMode</text>
<text text-anchor="middle" x="802.88" y="-277.76" font-family="Helvetica,sans-Serif" font-size="10.00" fill="grey">_Null, 0x00000000, 0x00000000 &gt;</text>
</g>
<!-- Node11 -->
<g id="Node000011" class="node">
<title>Node11</title>
<g id="a_Node000011"><a xlink:href="../../df/d0d/group___clocked_chipsets.html" target="_top" xlink:title=" ">
<polygon fill="white" stroke="#666666" points="1348.25,-233.75 1130.5,-233.75 1130.5,-162 1348.25,-162 1348.25,-233.75"/>
<text text-anchor="start" x="1138.5" y="-220.25" font-family="Helvetica,sans-Serif" font-size="10.00">APA102Controller&lt; DATA</text>
<text text-anchor="start" x="1138.5" y="-207.5" font-family="Helvetica,sans-Serif" font-size="10.00">_PIN, CLOCK_PIN, RGB_ORDER,</text>
<text text-anchor="start" x="1138.5" y="-194.75" font-family="Helvetica,sans-Serif" font-size="10.00"> SPI_SPEED, fl::kFiveBitGammaCorrection</text>
<text text-anchor="start" x="1138.5" y="-182" font-family="Helvetica,sans-Serif" font-size="10.00">Mode_BitShift, uint32_t(0x00000000)</text>
<text text-anchor="middle" x="1239.38" y="-169.25" font-family="Helvetica,sans-Serif" font-size="10.00">, uint32_t(0x00000000)&gt;</text>
</a>
</g>
</g>
<!-- Node1&#45;&gt;Node11 -->
<g id="edge10_Node000001_Node000011" class="edge">
<title>Node1&#45;&gt;Node11</title>
<g id="a_edge10_Node000001_Node000011"><a xlink:title=" ">
<path fill="none" stroke="orange" stroke-dasharray="5,2" d="M704.68,-192.2C706.8,-192.18 708.91,-192.15 711,-192.12 856,-190.46 1023.44,-193.05 1130.05,-195.28"/>
<polygon fill="orange" stroke="orange" points="704.66,-188.7 694.71,-192.35 704.76,-195.7 704.66,-188.7"/>
</a>
</g>
<text text-anchor="start" x="712.5" y="-246.38" font-family="Helvetica,sans-Serif" font-size="10.00" fill="grey"> &lt; DATA_PIN, CLOCK_PIN,</text>
<text text-anchor="start" x="712.5" y="-233.62" font-family="Helvetica,sans-Serif" font-size="10.00" fill="grey"> RGB_ORDER, SPI_SPEED,</text>
<text text-anchor="start" x="712.5" y="-220.88" font-family="Helvetica,sans-Serif" font-size="10.00" fill="grey"> fl::kFiveBitGammaCorrection</text>
<text text-anchor="start" x="712.5" y="-208.12" font-family="Helvetica,sans-Serif" font-size="10.00" fill="grey">Mode_BitShift, uint32_t(0x00000000)</text>
<text text-anchor="middle" x="802.88" y="-195.38" font-family="Helvetica,sans-Serif" font-size="10.00" fill="grey">, uint32_t(0x00000000)&gt;</text>
</g>
<!-- Node12 -->
<g id="Node000012" class="node">
<title>Node12</title>
<g id="a_Node000012"><a xlink:href="../../df/d0d/group___clocked_chipsets.html" target="_top" xlink:title=" ">
<polygon fill="white" stroke="#666666" points="1104.62,-161.75 920.62,-161.75 920.62,-90 1104.62,-90 1104.62,-161.75"/>
<text text-anchor="start" x="928.62" y="-148.25" font-family="Helvetica,sans-Serif" font-size="10.00">APA102Controller&lt; DATA</text>
<text text-anchor="start" x="928.62" y="-135.5" font-family="Helvetica,sans-Serif" font-size="10.00">_PIN, CLOCK_PIN, RGB,</text>
<text text-anchor="start" x="928.62" y="-122.75" font-family="Helvetica,sans-Serif" font-size="10.00"> DATA_RATE_MHZ(12), fl</text>
<text text-anchor="start" x="928.62" y="-110" font-family="Helvetica,sans-Serif" font-size="10.00">::kFiveBitGammaCorrectionMode</text>
<text text-anchor="middle" x="1012.62" y="-97.25" font-family="Helvetica,sans-Serif" font-size="10.00">_Null, 0x00000000, 0x00000000 &gt;</text>
</a>
</g>
</g>
<!-- Node1&#45;&gt;Node12 -->
<g id="edge12_Node000001_Node000012" class="edge">
<title>Node1&#45;&gt;Node12</title>
<g id="a_edge12_Node000001_Node000012"><a xlink:title=" ">
<path fill="none" stroke="orange" stroke-dasharray="5,2" d="M637.84,-158.35C658.9,-143.99 684.92,-129.21 711,-121.88 779.34,-102.65 859.91,-104.98 920.43,-111.39"/>
<polygon fill="orange" stroke="orange" points="635.93,-155.4 629.76,-164.01 639.96,-161.13 635.93,-155.4"/>
</a>
</g>
<text text-anchor="start" x="715.88" y="-163.38" font-family="Helvetica,sans-Serif" font-size="10.00" fill="grey"> &lt; DATA_PIN, CLOCK_PIN,</text>
<text text-anchor="start" x="715.88" y="-150.62" font-family="Helvetica,sans-Serif" font-size="10.00" fill="grey"> RGB, DATA_RATE_MHZ(12)</text>
<text text-anchor="start" x="715.88" y="-137.88" font-family="Helvetica,sans-Serif" font-size="10.00" fill="grey">, fl::kFiveBitGammaCorrectionMode</text>
<text text-anchor="middle" x="802.88" y="-125.12" font-family="Helvetica,sans-Serif" font-size="10.00" fill="grey">_Null, 0x00000000, 0x00000000 &gt;</text>
</g>
<!-- Node14 -->
<g id="Node000014" class="node">
<title>Node14</title>
<g id="a_Node000014"><a xlink:href="../../df/d0d/group___clocked_chipsets.html" target="_top" xlink:title=" ">
<polygon fill="white" stroke="#666666" points="1112.5,-71.75 912.75,-71.75 912.75,0 1112.5,0 1112.5,-71.75"/>
<text text-anchor="start" x="920.75" y="-58.25" font-family="Helvetica,sans-Serif" font-size="10.00">APA102Controller&lt; DATA</text>
<text text-anchor="start" x="920.75" y="-45.5" font-family="Helvetica,sans-Serif" font-size="10.00">_PIN, CLOCK_PIN, RGB,</text>
<text text-anchor="start" x="920.75" y="-32.75" font-family="Helvetica,sans-Serif" font-size="10.00"> DATA_RATE_MHZ(12), fl</text>
<text text-anchor="start" x="920.75" y="-20" font-family="Helvetica,sans-Serif" font-size="10.00">::kFiveBitGammaCorrectionMode</text>
<text text-anchor="middle" x="1012.62" y="-7.25" font-family="Helvetica,sans-Serif" font-size="10.00">_BitShift, 0x00000000, 0x00000000 &gt;</text>
</a>
</g>
</g>
<!-- Node1&#45;&gt;Node14 -->
<g id="edge14_Node000001_Node000014" class="edge">
<title>Node1&#45;&gt;Node14</title>
<g id="a_edge14_Node000001_Node000014"><a xlink:title=" ">
<path fill="none" stroke="orange" stroke-dasharray="5,2" d="M612.15,-155.36C632.33,-121.28 666.49,-74.14 711,-51.88 772.93,-20.89 851.29,-17.69 912.48,-21.82"/>
<polygon fill="orange" stroke="orange" points="609.29,-153.31 607.34,-163.72 615.36,-156.8 609.29,-153.31"/>
</a>
</g>
<text text-anchor="start" x="711" y="-93.38" font-family="Helvetica,sans-Serif" font-size="10.00" fill="grey"> &lt; DATA_PIN, CLOCK_PIN,</text>
<text text-anchor="start" x="711" y="-80.62" font-family="Helvetica,sans-Serif" font-size="10.00" fill="grey"> RGB, DATA_RATE_MHZ(12)</text>
<text text-anchor="start" x="711" y="-67.88" font-family="Helvetica,sans-Serif" font-size="10.00" fill="grey">, fl::kFiveBitGammaCorrectionMode</text>
<text text-anchor="middle" x="802.88" y="-55.12" font-family="Helvetica,sans-Serif" font-size="10.00" fill="grey">_BitShift, 0x00000000, 0x00000000 &gt;</text>
</g>
<!-- Node2 -->
<g id="Node000002" class="node">
<title>Node2</title>
<g id="a_Node000002"><a xlink:href="../../d0/dc9/class_c_pixel_l_e_d_controller.html" target="_top" xlink:title=" ">
<polygon fill="white" stroke="#666666" points="451,-211.62 338.25,-211.62 338.25,-178.12 451,-178.12 451,-211.62"/>
<text text-anchor="start" x="346.25" y="-198.12" font-family="Helvetica,sans-Serif" font-size="10.00">CPixelLEDController</text>
<text text-anchor="middle" x="394.62" y="-185.38" font-family="Helvetica,sans-Serif" font-size="10.00">&lt; RGB &gt;</text>
</a>
</g>
</g>
<!-- Node2&#45;&gt;Node1 -->
<g id="edge1_Node000001_Node000002" class="edge">
<title>Node2&#45;&gt;Node1</title>
<g id="a_edge1_Node000001_Node000002"><a xlink:title=" ">
<path fill="none" stroke="#63b8ff" d="M462.95,-194.88C470.96,-194.88 479.28,-194.88 487.65,-194.88"/>
<polygon fill="#63b8ff" stroke="#63b8ff" points="462.96,-191.38 452.96,-194.88 462.96,-198.38 462.96,-191.38"/>
</a>
</g>
</g>
<!-- Node3 -->
<g id="Node000003" class="node">
<title>Node3</title>
<g id="a_Node000003"><a xlink:href="../../d6/d2c/class_c_l_e_d_controller.html" target="_top" xlink:title="Base definition for an LED controller.">
<polygon fill="white" stroke="#666666" points="89.5,-199.25 0,-199.25 0,-178.5 89.5,-178.5 89.5,-199.25"/>
<text text-anchor="middle" x="44.75" y="-185.75" font-family="Helvetica,sans-Serif" font-size="10.00">CLEDController</text>
</a>
</g>
</g>
<!-- Node3&#45;&gt;Node2 -->
<g id="edge2_Node000002_Node000003" class="edge">
<title>Node3&#45;&gt;Node2</title>
<g id="a_edge2_Node000002_Node000003"><a xlink:title=" ">
<path fill="none" stroke="#63b8ff" d="M101.13,-194.11C109.62,-194.79 118.29,-195.41 126.5,-195.88 212.49,-200.77 234.17,-202.8 320.25,-199.88 325.99,-199.68 331.98,-199.4 337.96,-199.07"/>
<polygon fill="#63b8ff" stroke="#63b8ff" points="101.48,-190.63 91.23,-193.29 100.9,-197.61 101.48,-190.63"/>
</a>
</g>
</g>
<!-- Node4 -->
<g id="Node000004" class="node">
<title>Node4</title>
<g id="a_Node000004"><a xlink:href="../../d0/dc9/class_c_pixel_l_e_d_controller.html" target="_top" xlink:title="Template extension of the CLEDController class.">
<polygon fill="white" stroke="#666666" points="255.75,-187 126.5,-187 126.5,-140.75 255.75,-140.75 255.75,-187"/>
<text text-anchor="start" x="134.5" y="-173.5" font-family="Helvetica,sans-Serif" font-size="10.00">CPixelLEDController</text>
<text text-anchor="start" x="134.5" y="-160.75" font-family="Helvetica,sans-Serif" font-size="10.00">&lt; RGB_ORDER, LANES,</text>
<text text-anchor="middle" x="191.12" y="-148" font-family="Helvetica,sans-Serif" font-size="10.00"> MASK &gt;</text>
</a>
</g>
</g>
<!-- Node3&#45;&gt;Node4 -->
<g id="edge4_Node000004_Node000003" class="edge">
<title>Node3&#45;&gt;Node4</title>
<g id="a_edge4_Node000004_Node000003"><a xlink:title=" ">
<path fill="none" stroke="#63b8ff" d="M101.14,-179.28C109.31,-177.87 117.78,-176.4 126.1,-174.96"/>
<polygon fill="#63b8ff" stroke="#63b8ff" points="100.6,-175.83 91.34,-180.98 101.79,-182.72 100.6,-175.83"/>
</a>
</g>
</g>
<!-- Node4&#45;&gt;Node2 -->
<g id="edge3_Node000002_Node000004" class="edge">
<title>Node4&#45;&gt;Node2</title>
<g id="a_edge3_Node000002_Node000004"><a xlink:title=" ">
<path fill="none" stroke="orange" stroke-dasharray="5,2" d="M267.45,-175.46C290.81,-179.06 316.13,-182.95 337.91,-186.3"/>
<polygon fill="orange" stroke="orange" points="268.07,-172.02 257.65,-173.96 267.01,-178.94 268.07,-172.02"/>
</a>
</g>
<text text-anchor="middle" x="297" y="-186.31" font-family="Helvetica,sans-Serif" font-size="10.00" fill="grey"> &lt; RGB &gt;</text>
</g>
<!-- Node6 -->
<g id="Node000006" class="node">
<title>Node6</title>
<g id="a_Node000006"><a xlink:href="../../df/d0d/group___clocked_chipsets.html#d6/dc7/class_a_p_a102_controller_h_d" target="_top" xlink:title="APA102 high definition controller class.">
<polygon fill="white" stroke="#666666" points="1524.75,-363 1376,-363 1376,-316.75 1524.75,-316.75 1524.75,-363"/>
<text text-anchor="start" x="1384" y="-349.5" font-family="Helvetica,sans-Serif" font-size="10.00">APA102ControllerHD</text>
<text text-anchor="start" x="1384" y="-336.75" font-family="Helvetica,sans-Serif" font-size="10.00">&lt; DATA_PIN, CLOCK_PIN,</text>
<text text-anchor="middle" x="1450.38" y="-324" font-family="Helvetica,sans-Serif" font-size="10.00"> RGB_ORDER, SPI_SPEED &gt;</text>
</a>
</g>
</g>
<!-- Node5&#45;&gt;Node6 -->
<g id="edge6_Node000005_Node000006" class="edge">
<title>Node5&#45;&gt;Node6</title>
<g id="a_edge6_Node000005_Node000006"><a xlink:title=" ">
<path fill="none" stroke="#63b8ff" d="M1110.02,-352.34C1190.11,-349.39 1302.4,-345.27 1375.51,-342.59"/>
<polygon fill="#63b8ff" stroke="#63b8ff" points="1110.31,-348.82 1100.45,-352.69 1110.57,-355.82 1110.31,-348.82"/>
</a>
</g>
</g>
<!-- Node7 -->
<g id="Node000007" class="node">
<title>Node7</title>
<g id="a_Node000007"><a xlink:href="../../df/d0d/group___clocked_chipsets.html" target="_top" xlink:title=" ">
<polygon fill="#fff0f0" stroke="red" points="1876,-241 1715.25,-241 1715.25,-194.75 1876,-194.75 1876,-241"/>
<text text-anchor="start" x="1723.25" y="-227.5" font-family="Helvetica,sans-Serif" font-size="10.00">APA102ControllerHD</text>
<text text-anchor="start" x="1723.25" y="-214.75" font-family="Helvetica,sans-Serif" font-size="10.00">&lt; DATA_PIN, CLOCK_PIN,</text>
<text text-anchor="middle" x="1795.62" y="-202" font-family="Helvetica,sans-Serif" font-size="10.00"> RGB, DATA_RATE_MHZ(40) &gt;</text>
</a>
</g>
</g>
<!-- Node6&#45;&gt;Node7 -->
<g id="edge7_Node000006_Node000007" class="edge">
<title>Node6&#45;&gt;Node7</title>
<g id="a_edge7_Node000006_Node000007"><a xlink:title=" ">
<path fill="none" stroke="orange" stroke-dasharray="5,2" d="M1528.13,-312.59C1588.28,-291.22 1671.08,-261.79 1728.35,-241.43"/>
<polygon fill="orange" stroke="orange" points="1527.23,-309.2 1518.98,-315.85 1529.58,-315.79 1527.23,-309.2"/>
</a>
</g>
<text text-anchor="start" x="1552.5" y="-319.83" font-family="Helvetica,sans-Serif" font-size="10.00" fill="grey"> &lt; DATA_PIN, CLOCK_PIN,</text>
<text text-anchor="middle" x="1624.88" y="-307.08" font-family="Helvetica,sans-Serif" font-size="10.00" fill="grey"> RGB, DATA_RATE_MHZ(40) &gt;</text>
</g>
<!-- Node10 -->
<g id="Node000010" class="node">
<title>Node10</title>
<g id="a_Node000010"><a xlink:href="../../df/d0d/group___clocked_chipsets.html#d9/d06/class_h_d107_controller" target="_top" xlink:title="HD107 is just the APA102 with a default 40Mhz clock rate.">
<polygon fill="white" stroke="#666666" points="1517.25,-283 1383.5,-283 1383.5,-236.75 1517.25,-236.75 1517.25,-283"/>
<text text-anchor="start" x="1391.5" y="-269.5" font-family="Helvetica,sans-Serif" font-size="10.00">HD107Controller&lt; DATA</text>
<text text-anchor="start" x="1391.5" y="-256.75" font-family="Helvetica,sans-Serif" font-size="10.00">_PIN, CLOCK_PIN, RGB</text>
<text text-anchor="middle" x="1450.38" y="-244" font-family="Helvetica,sans-Serif" font-size="10.00">_ORDER, SPI_SPEED &gt;</text>
</a>
</g>
</g>
<!-- Node9&#45;&gt;Node10 -->
<g id="edge9_Node000009_Node000010" class="edge">
<title>Node9&#45;&gt;Node10</title>
<g id="a_edge9_Node000009_Node000010"><a xlink:title=" ">
<path fill="none" stroke="#63b8ff" d="M1116.41,-259.88C1198.97,-259.88 1312.46,-259.88 1383.33,-259.88"/>
<polygon fill="#63b8ff" stroke="#63b8ff" points="1116.49,-256.38 1106.49,-259.88 1116.49,-263.38 1116.49,-256.38"/>
</a>
</g>
</g>
<!-- Node11&#45;&gt;Node7 -->
<g id="edge11_Node000011_Node000007" class="edge">
<title>Node11&#45;&gt;Node7</title>
<g id="a_edge11_Node000011_Node000007"><a xlink:title=" ">
<path fill="none" stroke="#63b8ff" d="M1359.77,-202.18C1467.17,-206.06 1621.95,-211.64 1714.96,-215"/>
<polygon fill="#63b8ff" stroke="#63b8ff" points="1360.19,-198.7 1350.07,-201.83 1359.94,-205.69 1360.19,-198.7"/>
</a>
</g>
</g>
<!-- Node13 -->
<g id="Node000013" class="node">
<title>Node13</title>
<g id="a_Node000013"><a xlink:href="../../df/d0d/group___clocked_chipsets.html#d3/de0/class_s_k9822_controller" target="_top" xlink:title="SK9822 controller class.">
<polygon fill="white" stroke="#666666" points="1534.5,-149 1366.25,-149 1366.25,-102.75 1534.5,-102.75 1534.5,-149"/>
<text text-anchor="start" x="1374.25" y="-135.5" font-family="Helvetica,sans-Serif" font-size="10.00">SK9822Controller&lt; DATA</text>
<text text-anchor="start" x="1374.25" y="-122.75" font-family="Helvetica,sans-Serif" font-size="10.00">_PIN, CLOCK_PIN, RGB_ORDER,</text>
<text text-anchor="middle" x="1450.38" y="-110" font-family="Helvetica,sans-Serif" font-size="10.00"> SPI_SPEED &gt;</text>
</a>
</g>
</g>
<!-- Node12&#45;&gt;Node13 -->
<g id="edge13_Node000012_Node000013" class="edge">
<title>Node12&#45;&gt;Node13</title>
<g id="a_edge13_Node000012_Node000013"><a xlink:title=" ">
<path fill="none" stroke="#63b8ff" d="M1116.47,-125.88C1192.55,-125.88 1294.86,-125.88 1365.89,-125.88"/>
<polygon fill="#63b8ff" stroke="#63b8ff" points="1116.49,-122.38 1106.49,-125.88 1116.49,-129.38 1116.49,-122.38"/>
</a>
</g>
</g>
<!-- Node15 -->
<g id="Node000015" class="node">
<title>Node15</title>
<g id="a_Node000015"><a xlink:href="../../df/d0d/group___clocked_chipsets.html#da/d45/class_s_k9822_controller_h_d" target="_top" xlink:title="SK9822 controller class.">
<polygon fill="white" stroke="#666666" points="1524.75,-59 1376,-59 1376,-12.75 1524.75,-12.75 1524.75,-59"/>
<text text-anchor="start" x="1384" y="-45.5" font-family="Helvetica,sans-Serif" font-size="10.00">SK9822ControllerHD</text>
<text text-anchor="start" x="1384" y="-32.75" font-family="Helvetica,sans-Serif" font-size="10.00">&lt; DATA_PIN, CLOCK_PIN,</text>
<text text-anchor="middle" x="1450.38" y="-20" font-family="Helvetica,sans-Serif" font-size="10.00"> RGB_ORDER, SPI_SPEED &gt;</text>
</a>
</g>
</g>
<!-- Node14&#45;&gt;Node15 -->
<g id="edge15_Node000014_Node000015" class="edge">
<title>Node14&#45;&gt;Node15</title>
<g id="a_edge15_Node000014_Node000015"><a xlink:title=" ">
<path fill="none" stroke="#63b8ff" d="M1124.22,-35.88C1203.06,-35.88 1306.88,-35.88 1375.76,-35.88"/>
<polygon fill="#63b8ff" stroke="#63b8ff" points="1124.29,-32.38 1114.29,-35.88 1124.29,-39.38 1124.29,-32.38"/>
</a>
</g>
</g>
</g>
</svg>
