<?xml version="1.0" encoding="UTF-8" standalone="no"?>
<!DOCTYPE svg PUBLIC "-//W3C//DTD SVG 1.1//EN"
 "http://www.w3.org/Graphics/SVG/1.1/DTD/svg11.dtd">
<!-- Generated by graphviz version 12.2.1 (20241206.2353)
 -->
<!-- Title: Painter::Paint Pages: 1 -->
<svg width="665pt" height="404pt"
 viewBox="0.00 0.00 664.50 404.12" xmlns="http://www.w3.org/2000/svg" xmlns:xlink="http://www.w3.org/1999/xlink">
<g id="graph0" class="graph" transform="scale(1 1) rotate(0) translate(4 400.12)">
<title>Painter::Paint</title>
<!-- Node1 -->
<g id="Node000001" class="node">
<title>Node1</title>
<g id="a_Node000001"><a xlink:title=" ">
<polygon fill="#999999" stroke="#666666" points="79.75,-208.12 0,-208.12 0,-187.38 79.75,-187.38 79.75,-208.12"/>
<text text-anchor="middle" x="39.88" y="-194.62" font-family="Helvetica,sans-Serif" font-size="10.00">Painter::Paint</text>
</a>
</g>
</g>
<!-- Node2 -->
<g id="Node000002" class="node">
<title>Node2</title>
<g id="a_Node000002"><a xlink:href="../../d2/d84/class_led_rope_interface.html#aa33d4aedb99e5da50e3e43e354b7d3cc" target="_top" xlink:title=" ">
<polygon fill="white" stroke="#666666" points="291.88,-396.12 124.38,-396.12 124.38,-375.38 291.88,-375.38 291.88,-396.12"/>
<text text-anchor="middle" x="208.12" y="-382.62" font-family="Helvetica,sans-Serif" font-size="10.00">LedRopeInterface::DrawRepeat</text>
</a>
</g>
</g>
<!-- Node1&#45;&gt;Node2 -->
<g id="edge1_Node000001_Node000002" class="edge">
<title>Node1&#45;&gt;Node2</title>
<g id="a_edge1_Node000001_Node000002"><a xlink:title=" ">
<path fill="none" stroke="#63b8ff" d="M42.24,-208.49C46.69,-238.63 63.57,-324.61 115.75,-366.75 116.88,-367.67 118.05,-368.54 119.25,-369.38"/>
<polygon fill="#63b8ff" stroke="#63b8ff" points="117.24,-372.25 127.63,-374.28 120.77,-366.21 117.24,-372.25"/>
</a>
</g>
</g>
<!-- Node3 -->
<g id="Node000003" class="node">
<title>Node3</title>
<g id="a_Node000003"><a xlink:href="../../d2/d84/class_led_rope_interface.html#ad19c0274cfe19053dfca7c72696cbe2e" target="_top" xlink:title=" ">
<polygon fill="white" stroke="#666666" points="300.5,-357.5 115.75,-357.5 115.75,-324 300.5,-324 300.5,-357.5"/>
<text text-anchor="start" x="123.75" y="-344" font-family="Helvetica,sans-Serif" font-size="10.00">LedRopeInterface::DrawSequential</text>
<text text-anchor="middle" x="208.12" y="-331.25" font-family="Helvetica,sans-Serif" font-size="10.00">Repeat</text>
</a>
</g>
</g>
<!-- Node1&#45;&gt;Node3 -->
<g id="edge2_Node000001_Node000003" class="edge">
<title>Node1&#45;&gt;Node3</title>
<g id="a_edge2_Node000001_Node000003"><a xlink:title=" ">
<path fill="none" stroke="#63b8ff" d="M44.63,-208.31C53.36,-231.3 77.24,-286.11 115.75,-314.75 117.3,-315.9 118.89,-317 120.53,-318.05"/>
<polygon fill="#63b8ff" stroke="#63b8ff" points="118.56,-320.96 128.99,-322.81 121.99,-314.86 118.56,-320.96"/>
</a>
</g>
</g>
<!-- Node4 -->
<g id="Node000004" class="node">
<title>Node4</title>
<g id="a_Node000004"><a xlink:href="../../df/d0e/led__layout__array_8cpp.html#aec6f768c4608b191908a77ee3bcd9300" target="_top" xlink:title=" ">
<polygon fill="white" stroke="#666666" points="254.38,-306.12 161.88,-306.12 161.88,-285.38 254.38,-285.38 254.38,-306.12"/>
<text text-anchor="middle" x="208.12" y="-292.62" font-family="Helvetica,sans-Serif" font-size="10.00">LedLayoutArray</text>
</a>
</g>
</g>
<!-- Node1&#45;&gt;Node4 -->
<g id="edge3_Node000001_Node000004" class="edge">
<title>Node1&#45;&gt;Node4</title>
<g id="a_edge3_Node000001_Node000004"><a xlink:title=" ">
<path fill="none" stroke="#63b8ff" d="M47.97,-208.5C59.84,-225.6 85.45,-258.78 115.75,-275.75 126.38,-281.71 138.63,-285.89 150.63,-288.82"/>
<polygon fill="#63b8ff" stroke="#63b8ff" points="149.54,-292.17 160.06,-290.87 151.02,-285.33 149.54,-292.17"/>
</a>
</g>
</g>
<!-- Node7 -->
<g id="Node000007" class="node">
<title>Node7</title>
<g id="a_Node000007"><a xlink:href="../../dd/d45/struct_painter.html#a023fedf9449a5964c0c576805a22d049" target="_top" xlink:title=" ">
<polygon fill="white" stroke="#666666" points="282.5,-150.12 133.75,-150.12 133.75,-129.38 282.5,-129.38 282.5,-150.12"/>
<text text-anchor="middle" x="208.12" y="-136.62" font-family="Helvetica,sans-Serif" font-size="10.00">Painter::PaintBrightSurprise</text>
</a>
</g>
</g>
<!-- Node1&#45;&gt;Node7 -->
<g id="edge6_Node000001_Node000007" class="edge">
<title>Node1&#45;&gt;Node7</title>
<g id="a_edge6_Node000001_Node000007"><a xlink:title=" ">
<path fill="none" stroke="#63b8ff" d="M58.76,-187.04C73.58,-178.57 95.43,-167 115.75,-159.75 122.27,-157.42 129.16,-155.32 136.11,-153.42"/>
<polygon fill="#63b8ff" stroke="#63b8ff" points="136.75,-156.87 145.57,-150.99 135.01,-150.09 136.75,-156.87"/>
</a>
</g>
</g>
<!-- Node11 -->
<g id="Node000011" class="node">
<title>Node11</title>
<g id="a_Node000011"><a xlink:href="../../d7/d38/struct_color_h_s_v.html#a46c2d7fa61b17ef44d98e7c64798ffe5" target="_top" xlink:title=" ">
<polygon fill="white" stroke="#666666" points="482.25,-111.12 383.75,-111.12 383.75,-90.38 482.25,-90.38 482.25,-111.12"/>
<text text-anchor="middle" x="433" y="-97.62" font-family="Helvetica,sans-Serif" font-size="10.00">ColorHSV::ToRGB</text>
</a>
</g>
</g>
<!-- Node1&#45;&gt;Node11 -->
<g id="edge33_Node000001_Node000011" class="edge">
<title>Node1&#45;&gt;Node11</title>
<g id="a_edge33_Node000001_Node000011"><a xlink:title=" ">
<path fill="none" stroke="#63b8ff" d="M43.9,-187.18C51.41,-163.16 73.44,-104.8 115.75,-81.75 158.45,-58.49 293.02,-76.42 372.19,-89.74"/>
<polygon fill="#63b8ff" stroke="#63b8ff" points="371.51,-93.18 381.96,-91.41 372.69,-86.28 371.51,-93.18"/>
</a>
</g>
</g>
<!-- Node12 -->
<g id="Node000012" class="node">
<title>Node12</title>
<g id="a_Node000012"><a xlink:href="../../dd/d45/struct_painter.html#aac192da55e15dd79b498933180c06725" target="_top" xlink:title=" ">
<polygon fill="white" stroke="#666666" points="288.5,-111.12 127.75,-111.12 127.75,-90.38 288.5,-90.38 288.5,-111.12"/>
<text text-anchor="middle" x="208.12" y="-97.62" font-family="Helvetica,sans-Serif" font-size="10.00">Painter::PaintVuMidNotesFade</text>
</a>
</g>
</g>
<!-- Node1&#45;&gt;Node12 -->
<g id="edge11_Node000001_Node000012" class="edge">
<title>Node1&#45;&gt;Node12</title>
<g id="a_edge11_Node000001_Node000012"><a xlink:title=" ">
<path fill="none" stroke="#63b8ff" d="M48,-187.14C59.92,-170.26 85.6,-137.51 115.75,-120.75 119.19,-118.84 122.8,-117.11 126.51,-115.54"/>
<polygon fill="#63b8ff" stroke="#63b8ff" points="127.63,-118.86 135.78,-112.09 125.19,-112.3 127.63,-118.86"/>
</a>
</g>
</g>
<!-- Node18 -->
<g id="Node000018" class="node">
<title>Node18</title>
<g id="a_Node000018"><a xlink:href="../../dd/d45/struct_painter.html#a3b521f31ff7f7249ce1c88ca56f5ad80" target="_top" xlink:title=" ">
<polygon fill="white" stroke="#666666" points="268.25,-228.12 148,-228.12 148,-207.38 268.25,-207.38 268.25,-228.12"/>
<text text-anchor="middle" x="208.12" y="-214.62" font-family="Helvetica,sans-Serif" font-size="10.00">Painter::PaintVuNotes</text>
</a>
</g>
</g>
<!-- Node1&#45;&gt;Node18 -->
<g id="edge19_Node000001_Node000018" class="edge">
<title>Node1&#45;&gt;Node18</title>
<g id="a_edge19_Node000001_Node000018"><a xlink:title=" ">
<path fill="none" stroke="#63b8ff" d="M79.85,-202.44C96.7,-204.47 116.96,-206.9 136.3,-209.23"/>
<polygon fill="#63b8ff" stroke="#63b8ff" points="135.71,-212.68 146.06,-210.4 136.54,-205.73 135.71,-212.68"/>
</a>
</g>
</g>
<!-- Node20 -->
<g id="Node000020" class="node">
<title>Node20</title>
<g id="a_Node000020"><a xlink:href="../../dd/d45/struct_painter.html#a405cd2b8e31b1ad6e8d6abe9ba03c074" target="_top" xlink:title=" ">
<polygon fill="white" stroke="#666666" points="289.62,-267.12 126.62,-267.12 126.62,-246.38 289.62,-246.38 289.62,-267.12"/>
<text text-anchor="middle" x="208.12" y="-253.62" font-family="Helvetica,sans-Serif" font-size="10.00">Painter::PaintVuSpaceInvaders</text>
</a>
</g>
</g>
<!-- Node1&#45;&gt;Node20 -->
<g id="edge26_Node000001_Node000020" class="edge">
<title>Node1&#45;&gt;Node20</title>
<g id="a_edge26_Node000001_Node000020"><a xlink:title=" ">
<path fill="none" stroke="#63b8ff" d="M58.42,-208.59C73.22,-217.32 95.22,-229.31 115.75,-236.75 122.26,-239.11 129.14,-241.24 136.08,-243.15"/>
<polygon fill="#63b8ff" stroke="#63b8ff" points="134.98,-246.48 145.54,-245.59 136.73,-239.7 134.98,-246.48"/>
</a>
</g>
</g>
<!-- Node21 -->
<g id="Node000021" class="node">
<title>Node21</title>
<g id="a_Node000021"><a xlink:href="../../d2/d84/class_led_rope_interface.html#a6dec1c17848d00d0611cf82a75868c39" target="_top" xlink:title=" ">
<polygon fill="white" stroke="#666666" points="269.75,-35.12 146.5,-35.12 146.5,-14.38 269.75,-14.38 269.75,-35.12"/>
<text text-anchor="middle" x="208.12" y="-21.62" font-family="Helvetica,sans-Serif" font-size="10.00">LedRopeInterface::Set</text>
</a>
</g>
</g>
<!-- Node1&#45;&gt;Node21 -->
<g id="edge32_Node000001_Node000021" class="edge">
<title>Node1&#45;&gt;Node21</title>
<g id="a_edge32_Node000001_Node000021"><a xlink:title=" ">
<path fill="none" stroke="#63b8ff" d="M43.03,-187.22C49.17,-159.9 69.41,-86.3 115.75,-48.75 121.66,-43.96 128.42,-40.12 135.54,-37.04"/>
<polygon fill="#63b8ff" stroke="#63b8ff" points="136.61,-40.38 144.74,-33.59 134.15,-33.83 136.61,-40.38"/>
</a>
</g>
</g>
<!-- Node22 -->
<g id="Node000022" class="node">
<title>Node22</title>
<g id="a_Node000022"><a xlink:href="../../dd/d45/struct_painter.html#ab6318a63a778550cd78f3eae183cb8dc" target="_top" xlink:title=" ">
<polygon fill="white" stroke="#666666" points="274.62,-189.12 141.62,-189.12 141.62,-168.38 274.62,-168.38 274.62,-189.12"/>
<text text-anchor="middle" x="208.12" y="-175.62" font-family="Helvetica,sans-Serif" font-size="10.00">Painter::VegasVisualizer</text>
</a>
</g>
</g>
<!-- Node1&#45;&gt;Node22 -->
<g id="edge34_Node000001_Node000022" class="edge">
<title>Node1&#45;&gt;Node22</title>
<g id="a_edge34_Node000001_Node000022"><a xlink:title=" ">
<path fill="none" stroke="#63b8ff" d="M79.85,-193.3C94.89,-191.58 112.64,-189.55 130.04,-187.56"/>
<polygon fill="#63b8ff" stroke="#63b8ff" points="130.35,-191.05 139.89,-186.43 129.55,-184.09 130.35,-191.05"/>
</a>
</g>
</g>
<!-- Node5 -->
<g id="Node000005" class="node">
<title>Node5</title>
<g id="a_Node000005"><a xlink:href="../../df/d0e/led__layout__array_8cpp.html#a0a8f371e181748b271d164205b331a5a" target="_top" xlink:title=" ">
<polygon fill="white" stroke="#666666" points="477.38,-396.12 388.62,-396.12 388.62,-375.38 477.38,-375.38 477.38,-396.12"/>
<text text-anchor="middle" x="433" y="-382.62" font-family="Helvetica,sans-Serif" font-size="10.00">LedCurtinArray</text>
</a>
</g>
</g>
<!-- Node4&#45;&gt;Node5 -->
<g id="edge4_Node000004_Node000005" class="edge">
<title>Node4&#45;&gt;Node5</title>
<g id="a_edge4_Node000004_Node000005"><a xlink:title=" ">
<path fill="none" stroke="#63b8ff" d="M254.47,-298.42C270.05,-301.02 286.95,-305.86 300.5,-314.75 323.7,-329.97 313.31,-350.52 336.5,-365.75 348.56,-373.68 363.18,-378.54 377.31,-381.51"/>
<polygon fill="#63b8ff" stroke="#63b8ff" points="376.53,-384.92 386.99,-383.23 377.76,-378.03 376.53,-384.92"/>
</a>
</g>
</g>
<!-- Node6 -->
<g id="Node000006" class="node">
<title>Node6</title>
<g id="a_Node000006"><a xlink:href="../../df/d0e/led__layout__array_8cpp.html#a144a7c7fab707981273217dc33f7aeaf" target="_top" xlink:title=" ">
<polygon fill="white" stroke="#666666" points="493.88,-357.12 372.12,-357.12 372.12,-336.38 493.88,-336.38 493.88,-357.12"/>
<text text-anchor="middle" x="433" y="-343.62" font-family="Helvetica,sans-Serif" font-size="10.00">LedLuminescentArray</text>
</a>
</g>
</g>
<!-- Node4&#45;&gt;Node6 -->
<g id="edge5_Node000004_Node000006" class="edge">
<title>Node4&#45;&gt;Node6</title>
<g id="a_edge5_Node000004_Node000006"><a xlink:title=" ">
<path fill="none" stroke="#63b8ff" d="M254.45,-304.09C269.22,-307.09 285.64,-310.74 300.5,-314.75 316.78,-319.14 320.22,-322.35 336.5,-326.75 345.28,-329.12 354.57,-331.38 363.78,-333.47"/>
<polygon fill="#63b8ff" stroke="#63b8ff" points="362.94,-336.86 373.45,-335.6 364.44,-330.03 362.94,-336.86"/>
</a>
</g>
</g>
<!-- Node8 -->
<g id="Node000008" class="node">
<title>Node8</title>
<g id="a_Node000008"><a xlink:href="../../d2/d84/class_led_rope_interface.html#aabd7b16e96dfbbcf2dac2b21f389d0ac" target="_top" xlink:title=" ">
<polygon fill="white" stroke="#666666" points="523.88,-150.12 342.12,-150.12 342.12,-129.38 523.88,-129.38 523.88,-150.12"/>
<text text-anchor="middle" x="433" y="-136.62" font-family="Helvetica,sans-Serif" font-size="10.00">LedRopeInterface::RawBeginDraw</text>
</a>
</g>
</g>
<!-- Node7&#45;&gt;Node8 -->
<g id="edge7_Node000007_Node000008" class="edge">
<title>Node7&#45;&gt;Node8</title>
<g id="a_edge7_Node000007_Node000008"><a xlink:title=" ">
<path fill="none" stroke="#63b8ff" d="M282.72,-139.75C298.07,-139.75 314.51,-139.75 330.66,-139.75"/>
<polygon fill="#63b8ff" stroke="#63b8ff" points="330.27,-143.25 340.27,-139.75 330.27,-136.25 330.27,-143.25"/>
</a>
</g>
</g>
<!-- Node9 -->
<g id="Node000009" class="node">
<title>Node9</title>
<g id="a_Node000009"><a xlink:href="../../d2/d84/class_led_rope_interface.html#a4655ae1b8e1b02b5604bf2303a367e4a" target="_top" xlink:title=" ">
<polygon fill="white" stroke="#666666" points="529.5,-189.12 336.5,-189.12 336.5,-168.38 529.5,-168.38 529.5,-189.12"/>
<text text-anchor="middle" x="433" y="-175.62" font-family="Helvetica,sans-Serif" font-size="10.00">LedRopeInterface::RawCommitDraw</text>
</a>
</g>
</g>
<!-- Node7&#45;&gt;Node9 -->
<g id="edge8_Node000007_Node000009" class="edge">
<title>Node7&#45;&gt;Node9</title>
<g id="a_edge8_Node000007_Node000009"><a xlink:title=" ">
<path fill="none" stroke="#63b8ff" d="M271.21,-150.61C298.38,-155.37 330.47,-160.98 358.8,-165.94"/>
<polygon fill="#63b8ff" stroke="#63b8ff" points="357.92,-169.34 368.37,-167.62 359.13,-162.44 357.92,-169.34"/>
</a>
</g>
</g>
<!-- Node10 -->
<g id="Node000010" class="node">
<title>Node10</title>
<g id="a_Node000010"><a xlink:href="../../d2/d84/class_led_rope_interface.html#a0a54c27f180840a5713c0a20f14a8123" target="_top" xlink:title=" ">
<polygon fill="white" stroke="#666666" points="510,-279.5 356,-279.5 356,-246 510,-246 510,-279.5"/>
<text text-anchor="start" x="364" y="-266" font-family="Helvetica,sans-Serif" font-size="10.00">LedRopeInterface::RawDraw</text>
<text text-anchor="middle" x="433" y="-253.25" font-family="Helvetica,sans-Serif" font-size="10.00">Pixel</text>
</a>
</g>
</g>
<!-- Node7&#45;&gt;Node10 -->
<g id="edge9_Node000007_Node000010" class="edge">
<title>Node7&#45;&gt;Node10</title>
<g id="a_edge9_Node000007_Node000010"><a xlink:title=" ">
<path fill="none" stroke="#63b8ff" d="M282.76,-149.38C289.13,-152.09 295.17,-155.49 300.5,-159.75 330.01,-183.34 307.6,-212.42 336.5,-236.75 339.39,-239.18 342.49,-241.39 345.74,-243.39"/>
<polygon fill="#63b8ff" stroke="#63b8ff" points="344.09,-246.48 354.56,-248.09 347.38,-240.3 344.09,-246.48"/>
</a>
</g>
</g>
<!-- Node7&#45;&gt;Node11 -->
<g id="edge10_Node000007_Node000011" class="edge">
<title>Node7&#45;&gt;Node11</title>
<g id="a_edge10_Node000007_Node000011"><a xlink:title=" ">
<path fill="none" stroke="#63b8ff" d="M271.21,-128.89C302.75,-123.37 340.91,-116.69 372.14,-111.22"/>
<polygon fill="#63b8ff" stroke="#63b8ff" points="372.57,-114.7 381.82,-109.53 371.36,-107.81 372.57,-114.7"/>
</a>
</g>
</g>
<!-- Node12&#45;&gt;Node8 -->
<g id="edge15_Node000012_Node000008" class="edge">
<title>Node12&#45;&gt;Node8</title>
<g id="a_edge15_Node000012_Node000008"><a xlink:title=" ">
<path fill="none" stroke="#63b8ff" d="M271.21,-111.61C298.38,-116.37 330.47,-121.98 358.8,-126.94"/>
<polygon fill="#63b8ff" stroke="#63b8ff" points="357.92,-130.34 368.37,-128.62 359.13,-123.44 357.92,-130.34"/>
</a>
</g>
</g>
<!-- Node12&#45;&gt;Node9 -->
<g id="edge16_Node000012_Node000009" class="edge">
<title>Node12&#45;&gt;Node9</title>
<g id="a_edge16_Node000012_Node000009"><a xlink:title=" ">
<path fill="none" stroke="#63b8ff" d="M279.1,-111.47C286.57,-113.95 293.85,-117 300.5,-120.75 320.76,-132.19 316.19,-147.4 336.5,-158.75 339.93,-160.67 343.53,-162.4 347.22,-163.97"/>
<polygon fill="#63b8ff" stroke="#63b8ff" points="345.87,-167.2 356.46,-167.43 348.33,-160.64 345.87,-167.2"/>
</a>
</g>
</g>
<!-- Node12&#45;&gt;Node11 -->
<g id="edge18_Node000012_Node000011" class="edge">
<title>Node12&#45;&gt;Node11</title>
<g id="a_edge18_Node000012_Node000011"><a xlink:title=" ">
<path fill="none" stroke="#63b8ff" d="M288.96,-100.75C316.36,-100.75 346.55,-100.75 372.1,-100.75"/>
<polygon fill="#63b8ff" stroke="#63b8ff" points="371.97,-104.25 381.97,-100.75 371.97,-97.25 371.97,-104.25"/>
</a>
</g>
</g>
<!-- Node13 -->
<g id="Node000013" class="node">
<title>Node13</title>
<g id="a_Node000013"><a xlink:href="../../de/d12/struct_color3i.html#af5a85a3006c2ec7d3f4c4132b120e7b9" target="_top" xlink:title=" ">
<polygon fill="white" stroke="#666666" points="474.75,-228.12 391.25,-228.12 391.25,-207.38 474.75,-207.38 474.75,-228.12"/>
<text text-anchor="middle" x="433" y="-214.62" font-family="Helvetica,sans-Serif" font-size="10.00">Color3i::Black</text>
</a>
</g>
</g>
<!-- Node12&#45;&gt;Node13 -->
<g id="edge12_Node000012_Node000013" class="edge">
<title>Node12&#45;&gt;Node13</title>
<g id="a_edge12_Node000012_Node000013"><a xlink:title=" ">
<path fill="none" stroke="#63b8ff" d="M285.47,-111.59C290.85,-114.08 295.93,-117.1 300.5,-120.75 330.01,-144.34 306.89,-174.29 336.5,-197.75 348.79,-207.48 364.67,-212.79 379.94,-215.61"/>
<polygon fill="#63b8ff" stroke="#63b8ff" points="378.99,-219 389.4,-217.02 380.03,-212.08 378.99,-219"/>
</a>
</g>
</g>
<!-- Node16 -->
<g id="Node000016" class="node">
<title>Node16</title>
<g id="a_Node000016"><a xlink:href="../../db/d42/struct_key.html#a80119f0782ef8806dff00e21fcf71125" target="_top" xlink:title=" ">
<polygon fill="white" stroke="#666666" points="488.62,-72.12 377.38,-72.12 377.38,-51.38 488.62,-51.38 488.62,-72.12"/>
<text text-anchor="middle" x="433" y="-58.62" font-family="Helvetica,sans-Serif" font-size="10.00">Key::IntensityFactor</text>
</a>
</g>
</g>
<!-- Node12&#45;&gt;Node16 -->
<g id="edge14_Node000012_Node000016" class="edge">
<title>Node12&#45;&gt;Node16</title>
<g id="a_edge14_Node000012_Node000016"><a xlink:title=" ">
<path fill="none" stroke="#63b8ff" d="M271.21,-89.89C300.67,-84.73 335.91,-78.56 365.88,-73.32"/>
<polygon fill="#63b8ff" stroke="#63b8ff" points="366.34,-76.79 375.59,-71.62 365.14,-69.9 366.34,-76.79"/>
</a>
</g>
</g>
<!-- Node17 -->
<g id="Node000017" class="node">
<title>Node17</title>
<g id="a_Node000017"><a xlink:href="../../d2/d84/class_led_rope_interface.html#ab3a55e66c3238e90adf4a0889ea4a999" target="_top" xlink:title=" ">
<polygon fill="white" stroke="#666666" points="510,-33.5 356,-33.5 356,0 510,0 510,-33.5"/>
<text text-anchor="start" x="364" y="-20" font-family="Helvetica,sans-Serif" font-size="10.00">LedRopeInterface::RawDraw</text>
<text text-anchor="middle" x="433" y="-7.25" font-family="Helvetica,sans-Serif" font-size="10.00">Pixels</text>
</a>
</g>
</g>
<!-- Node12&#45;&gt;Node17 -->
<g id="edge17_Node000012_Node000017" class="edge">
<title>Node12&#45;&gt;Node17</title>
<g id="a_edge17_Node000012_Node000017"><a xlink:title=" ">
<path fill="none" stroke="#63b8ff" d="M229.88,-90.04C254.74,-77.51 297.88,-56.7 336.5,-42.75 341.77,-40.85 347.24,-39.01 352.79,-37.25"/>
<polygon fill="#63b8ff" stroke="#63b8ff" points="353.52,-40.68 362.05,-34.4 351.47,-33.99 353.52,-40.68"/>
</a>
</g>
</g>
<!-- Node14 -->
<g id="Node000014" class="node">
<title>Node14</title>
<g id="a_Node000014"><a xlink:href="../../de/d12/struct_color3i.html#a61889348324aefa14c28164d41e98e2a" target="_top" xlink:title=" ">
<polygon fill="#fff0f0" stroke="red" points="656.5,-228.12 565.5,-228.12 565.5,-207.38 656.5,-207.38 656.5,-228.12"/>
<text text-anchor="middle" x="611" y="-214.62" font-family="Helvetica,sans-Serif" font-size="10.00">Color3i::Color3i</text>
</a>
</g>
</g>
<!-- Node13&#45;&gt;Node14 -->
<g id="edge13_Node000013_Node000014" class="edge">
<title>Node13&#45;&gt;Node14</title>
<g id="a_edge13_Node000013_Node000014"><a xlink:title=" ">
<path fill="none" stroke="#63b8ff" d="M474.82,-217.75C498.24,-217.75 528,-217.75 553.63,-217.75"/>
<polygon fill="#63b8ff" stroke="#63b8ff" points="553.56,-221.25 563.56,-217.75 553.56,-214.25 553.56,-221.25"/>
</a>
</g>
</g>
<!-- Node18&#45;&gt;Node8 -->
<g id="edge22_Node000018_Node000008" class="edge">
<title>Node18&#45;&gt;Node8</title>
<g id="a_edge22_Node000018_Node000008"><a xlink:title=" ">
<path fill="none" stroke="#63b8ff" d="M268.54,-210.14C279.61,-207.25 290.74,-203.26 300.5,-197.75 320.76,-186.31 316.19,-171.1 336.5,-159.75 339.93,-157.83 343.53,-156.1 347.22,-154.53"/>
<polygon fill="#63b8ff" stroke="#63b8ff" points="348.33,-157.86 356.46,-151.07 345.87,-151.3 348.33,-157.86"/>
</a>
</g>
</g>
<!-- Node18&#45;&gt;Node9 -->
<g id="edge23_Node000018_Node000009" class="edge">
<title>Node18&#45;&gt;Node9</title>
<g id="a_edge23_Node000018_Node000009"><a xlink:title=" ">
<path fill="none" stroke="#63b8ff" d="M268.56,-207.35C296.34,-202.49 329.69,-196.65 359,-191.52"/>
<polygon fill="#63b8ff" stroke="#63b8ff" points="359.27,-195.03 368.52,-189.86 358.06,-188.13 359.27,-195.03"/>
</a>
</g>
</g>
<!-- Node18&#45;&gt;Node10 -->
<g id="edge24_Node000018_Node000010" class="edge">
<title>Node18&#45;&gt;Node10</title>
<g id="a_edge24_Node000018_Node000010"><a xlink:title=" ">
<path fill="none" stroke="#63b8ff" d="M262.79,-228.59C287.25,-233.52 316.83,-239.5 344.37,-245.06"/>
<polygon fill="#63b8ff" stroke="#63b8ff" points="343.65,-248.48 354.14,-247.03 345.03,-241.62 343.65,-248.48"/>
</a>
</g>
</g>
<!-- Node18&#45;&gt;Node11 -->
<g id="edge25_Node000018_Node000011" class="edge">
<title>Node18&#45;&gt;Node11</title>
<g id="a_edge25_Node000018_Node000011"><a xlink:title=" ">
<path fill="none" stroke="#63b8ff" d="M268.73,-212.92C280.14,-209.83 291.37,-205.05 300.5,-197.75 330.01,-174.16 306.89,-144.21 336.5,-120.75 346.77,-112.61 359.55,-107.57 372.39,-104.49"/>
<polygon fill="#63b8ff" stroke="#63b8ff" points="373.01,-107.93 382.14,-102.56 371.65,-101.07 373.01,-107.93"/>
</a>
</g>
</g>
<!-- Node18&#45;&gt;Node13 -->
<g id="edge20_Node000018_Node000013" class="edge">
<title>Node18&#45;&gt;Node13</title>
<g id="a_edge20_Node000018_Node000013"><a xlink:title=" ">
<path fill="none" stroke="#63b8ff" d="M268.56,-217.75C303.16,-217.75 346.39,-217.75 379.7,-217.75"/>
<polygon fill="#63b8ff" stroke="#63b8ff" points="379.52,-221.25 389.52,-217.75 379.52,-214.25 379.52,-221.25"/>
</a>
</g>
</g>
<!-- Node19 -->
<g id="Node000019" class="node">
<title>Node19</title>
<g id="a_Node000019"><a xlink:href="../../d2/d84/class_led_rope_interface.html#ac9c28ef970a520f1c117201ea40fee25" target="_top" xlink:title=" ">
<polygon fill="white" stroke="#666666" points="513.38,-318.12 352.62,-318.12 352.62,-297.38 513.38,-297.38 513.38,-318.12"/>
<text text-anchor="middle" x="433" y="-304.62" font-family="Helvetica,sans-Serif" font-size="10.00">LedRopeInterface::GetIterator</text>
</a>
</g>
</g>
<!-- Node18&#45;&gt;Node19 -->
<g id="edge21_Node000018_Node000019" class="edge">
<title>Node18&#45;&gt;Node19</title>
<g id="a_edge21_Node000018_Node000019"><a xlink:title=" ">
<path fill="none" stroke="#63b8ff" d="M268.74,-224.13C279.9,-227.12 291.03,-231.47 300.5,-237.75 323.62,-253.09 313.24,-273.63 336.5,-288.75 338.36,-289.96 340.28,-291.09 342.25,-292.16"/>
<polygon fill="#63b8ff" stroke="#63b8ff" points="340.55,-295.23 351.09,-296.29 343.51,-288.88 340.55,-295.23"/>
</a>
</g>
</g>
<!-- Node20&#45;&gt;Node8 -->
<g id="edge29_Node000020_Node000008" class="edge">
<title>Node20&#45;&gt;Node8</title>
<g id="a_edge29_Node000020_Node000008"><a xlink:title=" ">
<path fill="none" stroke="#63b8ff" d="M285.47,-245.91C290.85,-243.42 295.93,-240.4 300.5,-236.75 330.01,-213.16 306.89,-183.21 336.5,-159.75 338.24,-158.37 340.06,-157.08 341.93,-155.87"/>
<polygon fill="#63b8ff" stroke="#63b8ff" points="343.33,-159.09 350.43,-151.23 339.98,-152.95 343.33,-159.09"/>
</a>
</g>
</g>
<!-- Node20&#45;&gt;Node9 -->
<g id="edge30_Node000020_Node000009" class="edge">
<title>Node20&#45;&gt;Node9</title>
<g id="a_edge30_Node000020_Node000009"><a xlink:title=" ">
<path fill="none" stroke="#63b8ff" d="M279.1,-246.03C286.57,-243.55 293.85,-240.5 300.5,-236.75 320.76,-225.31 316.19,-210.1 336.5,-198.75 339.93,-196.83 343.53,-195.1 347.22,-193.53"/>
<polygon fill="#63b8ff" stroke="#63b8ff" points="348.33,-196.86 356.46,-190.07 345.87,-190.3 348.33,-196.86"/>
</a>
</g>
</g>
<!-- Node20&#45;&gt;Node10 -->
<g id="edge31_Node000020_Node000010" class="edge">
<title>Node20&#45;&gt;Node10</title>
<g id="a_edge31_Node000020_Node000010"><a xlink:title=" ">
<path fill="none" stroke="#63b8ff" d="M289.9,-258.92C307.56,-259.4 326.34,-259.91 344.26,-260.39"/>
<polygon fill="#63b8ff" stroke="#63b8ff" points="343.98,-263.88 354.07,-260.65 344.17,-256.88 343.98,-263.88"/>
</a>
</g>
</g>
<!-- Node20&#45;&gt;Node13 -->
<g id="edge27_Node000020_Node000013" class="edge">
<title>Node20&#45;&gt;Node13</title>
<g id="a_edge27_Node000020_Node000013"><a xlink:title=" ">
<path fill="none" stroke="#63b8ff" d="M271.21,-245.89C305.43,-239.9 347.43,-232.55 379.92,-226.86"/>
<polygon fill="#63b8ff" stroke="#63b8ff" points="380.25,-230.36 389.5,-225.19 379.04,-223.46 380.25,-230.36"/>
</a>
</g>
</g>
<!-- Node20&#45;&gt;Node19 -->
<g id="edge28_Node000020_Node000019" class="edge">
<title>Node20&#45;&gt;Node19</title>
<g id="a_edge28_Node000020_Node000019"><a xlink:title=" ">
<path fill="none" stroke="#63b8ff" d="M262.99,-267.54C275.37,-270.3 288.44,-273.43 300.5,-276.75 316.76,-281.23 320.2,-284.43 336.5,-288.75 344.2,-290.79 352.29,-292.72 360.38,-294.52"/>
<polygon fill="#63b8ff" stroke="#63b8ff" points="359.38,-297.88 369.89,-296.56 360.85,-291.04 359.38,-297.88"/>
</a>
</g>
</g>
<!-- Node22&#45;&gt;Node8 -->
<g id="edge36_Node000022_Node000008" class="edge">
<title>Node22&#45;&gt;Node8</title>
<g id="a_edge36_Node000022_Node000008"><a xlink:title=" ">
<path fill="none" stroke="#63b8ff" d="M271.21,-167.89C298.38,-163.13 330.47,-157.52 358.8,-152.56"/>
<polygon fill="#63b8ff" stroke="#63b8ff" points="359.13,-156.06 368.37,-150.88 357.92,-149.16 359.13,-156.06"/>
</a>
</g>
</g>
<!-- Node22&#45;&gt;Node9 -->
<g id="edge37_Node000022_Node000009" class="edge">
<title>Node22&#45;&gt;Node9</title>
<g id="a_edge37_Node000022_Node000009"><a xlink:title=" ">
<path fill="none" stroke="#63b8ff" d="M275.09,-178.75C290.78,-178.75 307.92,-178.75 324.92,-178.75"/>
<polygon fill="#63b8ff" stroke="#63b8ff" points="324.55,-182.25 334.55,-178.75 324.55,-175.25 324.55,-182.25"/>
</a>
</g>
</g>
<!-- Node22&#45;&gt;Node10 -->
<g id="edge38_Node000022_Node000010" class="edge">
<title>Node22&#45;&gt;Node10</title>
<g id="a_edge38_Node000022_Node000010"><a xlink:title=" ">
<path fill="none" stroke="#63b8ff" d="M274.8,-188.11C283.75,-190.81 292.58,-194.28 300.5,-198.75 320.76,-210.19 316.54,-224.81 336.5,-236.75 339.43,-238.5 342.48,-240.14 345.61,-241.67"/>
<polygon fill="#63b8ff" stroke="#63b8ff" points="343.91,-244.74 354.47,-245.58 346.74,-238.34 343.91,-244.74"/>
</a>
</g>
</g>
<!-- Node22&#45;&gt;Node11 -->
<g id="edge39_Node000022_Node000011" class="edge">
<title>Node22&#45;&gt;Node11</title>
<g id="a_edge39_Node000022_Node000011"><a xlink:title=" ">
<path fill="none" stroke="#63b8ff" d="M274.8,-169.39C283.75,-166.69 292.58,-163.22 300.5,-158.75 320.76,-147.31 316.19,-132.1 336.5,-120.75 347.37,-114.68 359.87,-110.44 372.17,-107.49"/>
<polygon fill="#63b8ff" stroke="#63b8ff" points="372.81,-110.93 381.87,-105.44 371.37,-104.09 372.81,-110.93"/>
</a>
</g>
</g>
<!-- Node22&#45;&gt;Node13 -->
<g id="edge35_Node000022_Node000013" class="edge">
<title>Node22&#45;&gt;Node13</title>
<g id="a_edge35_Node000022_Node000013"><a xlink:title=" ">
<path fill="none" stroke="#63b8ff" d="M271.21,-189.61C305.43,-195.6 347.43,-202.95 379.92,-208.64"/>
<polygon fill="#63b8ff" stroke="#63b8ff" points="379.04,-212.04 389.5,-210.31 380.25,-205.14 379.04,-212.04"/>
</a>
</g>
</g>
</g>
</svg>
