<?xml version="1.0" encoding="UTF-8" standalone="no"?>
<!DOCTYPE svg PUBLIC "-//W3C//DTD SVG 1.1//EN"
 "http://www.w3.org/Graphics/SVG/1.1/DTD/svg11.dtd">
<!-- Generated by graphviz version 12.2.1 (20241206.2353)
 -->
<!-- Title: computeOneTwinkle Pages: 1 -->
<svg width="314pt" height="29pt"
 viewBox="0.00 0.00 314.00 28.75" xmlns="http://www.w3.org/2000/svg" xmlns:xlink="http://www.w3.org/1999/xlink">
<g id="graph0" class="graph" transform="scale(1 1) rotate(0) translate(4 24.75)">
<title>computeOneTwinkle</title>
<!-- Node1 -->
<g id="Node000001" class="node">
<title>Node1</title>
<g id="a_Node000001"><a xlink:title=" ">
<polygon fill="#999999" stroke="#666666" points="306,-20.75 191,-20.75 191,0 306,0 306,-20.75"/>
<text text-anchor="middle" x="248.5" y="-7.25" font-family="Helvetica,sans-Serif" font-size="10.00">computeOneTwinkle</text>
</a>
</g>
</g>
<!-- Node2 -->
<g id="Node000002" class="node">
<title>Node2</title>
<g id="a_Node000002"><a xlink:href="../../d4/dd0/_twinkle_fox_8ino.html#a6d0a3407d4b43c23c7bdd4aac9fc76fd" target="_top" xlink:title=" ">
<polygon fill="white" stroke="#666666" points="155,-20.75 73,-20.75 73,0 155,0 155,-20.75"/>
<text text-anchor="middle" x="114" y="-7.25" font-family="Helvetica,sans-Serif" font-size="10.00">drawTwinkles</text>
</a>
</g>
</g>
<!-- Node1&#45;&gt;Node2 -->
<g id="edge1_Node000001_Node000002" class="edge">
<title>Node1&#45;&gt;Node2</title>
<g id="a_edge1_Node000001_Node000002"><a xlink:title=" ">
<path fill="none" stroke="#63b8ff" d="M179.29,-10.38C171.02,-10.38 162.8,-10.38 155.13,-10.38"/>
<polygon fill="#63b8ff" stroke="#63b8ff" points="179.03,-13.88 189.03,-10.38 179.03,-6.88 179.03,-13.88"/>
</a>
</g>
</g>
<!-- Node3 -->
<g id="Node000003" class="node">
<title>Node3</title>
<g id="a_Node000003"><a xlink:href="../../d4/dd0/_twinkle_fox_8ino.html#afe461d27b9c48d5921c00d521181f12f" target="_top" xlink:title=" ">
<polygon fill="white" stroke="#666666" points="37,-20.75 0,-20.75 0,0 37,0 37,-20.75"/>
<text text-anchor="middle" x="18.5" y="-7.25" font-family="Helvetica,sans-Serif" font-size="10.00">loop</text>
</a>
</g>
</g>
<!-- Node2&#45;&gt;Node3 -->
<g id="edge2_Node000002_Node000003" class="edge">
<title>Node2&#45;&gt;Node3</title>
<g id="a_edge2_Node000002_Node000003"><a xlink:title=" ">
<path fill="none" stroke="#63b8ff" d="M61.28,-10.38C52.74,-10.38 44.43,-10.38 37.5,-10.38"/>
<polygon fill="#63b8ff" stroke="#63b8ff" points="61.02,-13.88 71.02,-10.38 61.02,-6.88 61.02,-13.88"/>
</a>
</g>
</g>
</g>
</svg>
