<?xml version="1.0" encoding="UTF-8" standalone="no"?>
<!DOCTYPE svg PUBLIC "-//W3C//DTD SVG 1.1//EN"
 "http://www.w3.org/Graphics/SVG/1.1/DTD/svg11.dtd">
<!-- Generated by graphviz version 12.2.1 (20241206.2353)
 -->
<!-- Title: /home/runner/work/FastLED/FastLED/src/lib8tion/types.h Pages: 1 -->
<svg width="175pt" height="98pt"
 viewBox="0.00 0.00 174.75 98.25" xmlns="http://www.w3.org/2000/svg" xmlns:xlink="http://www.w3.org/1999/xlink">
<g id="graph0" class="graph" transform="scale(1 1) rotate(0) translate(4 94.25)">
<title>/home/runner/work/FastLED/FastLED/src/lib8tion/types.h</title>
<!-- Node1 -->
<g id="Node000001" class="node">
<title>Node1</title>
<g id="a_Node000001"><a xlink:title="Defines fractional types used for lib8tion functions.">
<polygon fill="#999999" stroke="#666666" points="153.25,-90.25 0,-90.25 0,-56.75 153.25,-56.75 153.25,-90.25"/>
<text text-anchor="start" x="8" y="-76.75" font-family="Helvetica,sans-Serif" font-size="10.00">/home/runner/work/FastLED</text>
<text text-anchor="middle" x="76.62" y="-64" font-family="Helvetica,sans-Serif" font-size="10.00">/FastLED/src/lib8tion/types.h</text>
</a>
</g>
</g>
<!-- Node2 -->
<g id="Node000002" class="node">
<title>Node2</title>
<g id="a_Node000002"><a xlink:title=" ">
<polygon fill="#e0e0e0" stroke="#999999" points="58,-20.75 5.25,-20.75 5.25,0 58,0 58,-20.75"/>
<text text-anchor="middle" x="31.62" y="-7.25" font-family="Helvetica,sans-Serif" font-size="10.00">stdint.h</text>
</a>
</g>
</g>
<!-- Node1&#45;&gt;Node2 -->
<g id="edge1_Node000001_Node000002" class="edge">
<title>Node1&#45;&gt;Node2</title>
<g id="a_edge1_Node000001_Node000002"><a xlink:title=" ">
<path fill="none" stroke="#63b8ff" d="M64.8,-56.44C58.89,-48.41 51.69,-38.63 45.52,-30.24"/>
<polygon fill="#63b8ff" stroke="#63b8ff" points="48.52,-28.41 39.77,-22.44 42.88,-32.56 48.52,-28.41"/>
</a>
</g>
</g>
<!-- Node3 -->
<g id="Node000003" class="node">
<title>Node3</title>
<g id="a_Node000003"><a xlink:href="../../df/d2a/namespace_8h.html" target="_top" xlink:title="Implements the FastLED namespace macros.">
<polygon fill="white" stroke="#666666" points="166.75,-20.75 76.5,-20.75 76.5,0 166.75,0 166.75,-20.75"/>
<text text-anchor="middle" x="121.62" y="-7.25" font-family="Helvetica,sans-Serif" font-size="10.00">fl/namespace.h</text>
</a>
</g>
</g>
<!-- Node1&#45;&gt;Node3 -->
<g id="edge2_Node000001_Node000003" class="edge">
<title>Node1&#45;&gt;Node3</title>
<g id="a_edge2_Node000001_Node000003"><a xlink:title=" ">
<path fill="none" stroke="#63b8ff" d="M88.45,-56.44C94.36,-48.41 101.56,-38.63 107.73,-30.24"/>
<polygon fill="#63b8ff" stroke="#63b8ff" points="110.37,-32.56 113.48,-22.44 104.73,-28.41 110.37,-32.56"/>
</a>
</g>
</g>
</g>
</svg>
