<?xml version="1.0" encoding="UTF-8" standalone="no"?>
<!DOCTYPE svg PUBLIC "-//W3C//DTD SVG 1.1//EN"
 "http://www.w3.org/Graphics/SVG/1.1/DTD/svg11.dtd">
<!-- Generated by graphviz version 12.2.1 (20241206.2353)
 -->
<!-- Title: fl::Pixels::getStrip Pages: 1 -->
<svg width="373pt" height="29pt"
 viewBox="0.00 0.00 372.50 28.75" xmlns="http://www.w3.org/2000/svg" xmlns:xlink="http://www.w3.org/1999/xlink">
<g id="graph0" class="graph" transform="scale(1 1) rotate(0) translate(4 24.75)">
<title>fl::Pixels::getStrip</title>
<!-- Node1 -->
<g id="Node000001" class="node">
<title>Node1</title>
<g id="a_Node000001"><a xlink:title=" ">
<polygon fill="#999999" stroke="#666666" points="100.75,-20.75 0,-20.75 0,0 100.75,0 100.75,-20.75"/>
<text text-anchor="middle" x="50.38" y="-7.25" font-family="Helvetica,sans-Serif" font-size="10.00">fl::Pixels::getStrip</text>
</a>
</g>
</g>
<!-- Node2 -->
<g id="Node000002" class="node">
<title>Node2</title>
<g id="a_Node000002"><a xlink:href="../../df/d0f/classfl_1_1_pixels.html#ac2ef154e44e244afbbf52a68782e3480" target="_top" xlink:title=" ">
<polygon fill="white" stroke="#666666" points="237.5,-20.75 136.75,-20.75 136.75,0 237.5,0 237.5,-20.75"/>
<text text-anchor="middle" x="187.12" y="-7.25" font-family="Helvetica,sans-Serif" font-size="10.00">fl::Pixels::getStrip</text>
</a>
</g>
</g>
<!-- Node1&#45;&gt;Node2 -->
<g id="edge1_Node000001_Node000002" class="edge">
<title>Node1&#45;&gt;Node2</title>
<g id="a_edge1_Node000001_Node000002"><a xlink:title=" ">
<path fill="none" stroke="#63b8ff" d="M101.17,-10.38C109.02,-10.38 117.2,-10.38 125.27,-10.38"/>
<polygon fill="#63b8ff" stroke="#63b8ff" points="125.02,-13.88 135.02,-10.38 125.02,-6.88 125.02,-13.88"/>
</a>
</g>
</g>
<!-- Node3 -->
<g id="Node000003" class="node">
<title>Node3</title>
<g id="a_Node000003"><a xlink:href="../../df/d0f/classfl_1_1_pixels.html#aa57cbd76200bbe18e28ea56f91dab62e" target="_top" xlink:title=" ">
<polygon fill="white" stroke="#666666" points="364.5,-20.75 273.5,-20.75 273.5,0 364.5,0 364.5,-20.75"/>
<text text-anchor="middle" x="319" y="-7.25" font-family="Helvetica,sans-Serif" font-size="10.00">fl::Pixels::Pixels</text>
</a>
</g>
</g>
<!-- Node2&#45;&gt;Node3 -->
<g id="edge2_Node000002_Node000003" class="edge">
<title>Node2&#45;&gt;Node3</title>
<g id="a_edge2_Node000002_Node000003"><a xlink:title=" ">
<path fill="none" stroke="#63b8ff" d="M237.97,-10.38C245.75,-10.38 253.85,-10.38 261.76,-10.38"/>
<polygon fill="#63b8ff" stroke="#63b8ff" points="261.67,-13.88 271.67,-10.38 261.67,-6.88 261.67,-13.88"/>
</a>
</g>
</g>
</g>
</svg>
