<?xml version="1.0" encoding="UTF-8" standalone="no"?>
<!DOCTYPE svg PUBLIC "-//W3C//DTD SVG 1.1//EN"
 "http://www.w3.org/Graphics/SVG/1.1/DTD/svg11.dtd">
<!-- Generated by graphviz version 12.2.1 (20241206.2353)
 -->
<!-- Title: fl::UISlider::as Pages: 1 -->
<svg width="241pt" height="48pt"
 viewBox="0.00 0.00 240.50 47.75" xmlns="http://www.w3.org/2000/svg" xmlns:xlink="http://www.w3.org/1999/xlink">
<g id="graph0" class="graph" transform="scale(1 1) rotate(0) translate(4 43.75)">
<title>fl::UISlider::as</title>
<!-- Node1 -->
<g id="Node000001" class="node">
<title>Node1</title>
<g id="a_Node000001"><a xlink:title=" ">
<polygon fill="#999999" stroke="#666666" points="232.5,-20.75 149,-20.75 149,0 232.5,0 232.5,-20.75"/>
<text text-anchor="middle" x="190.75" y="-7.25" font-family="Helvetica,sans-Serif" font-size="10.00">fl::UISlider::as</text>
</a>
</g>
</g>
<!-- Node2 -->
<g id="Node000002" class="node">
<title>Node2</title>
<g id="a_Node000002"><a xlink:href="../../d3/dac/_fx_noise_ring_8ino.html#a7a1cdb28d8d83f314435a3a1dc13f17f" target="_top" xlink:title=" ">
<polygon fill="white" stroke="#666666" points="113,-39.75 73,-39.75 73,-19 113,-19 113,-39.75"/>
<text text-anchor="middle" x="93" y="-26.25" font-family="Helvetica,sans-Serif" font-size="10.00">draw</text>
</a>
</g>
</g>
<!-- Node1&#45;&gt;Node2 -->
<g id="edge1_Node000001_Node000002" class="edge">
<title>Node1&#45;&gt;Node2</title>
<g id="a_edge1_Node000001_Node000002"><a xlink:title=" ">
<path fill="none" stroke="#63b8ff" d="M137.5,-20.74C128.76,-22.48 120.22,-24.17 113.05,-25.6"/>
<polygon fill="#63b8ff" stroke="#63b8ff" points="137.98,-24.22 147.1,-18.84 136.61,-17.35 137.98,-24.22"/>
</a>
</g>
</g>
<!-- Node3 -->
<g id="Node000003" class="node">
<title>Node3</title>
<g id="a_Node000003"><a xlink:href="../../d3/dac/_fx_noise_ring_8ino.html#afe461d27b9c48d5921c00d521181f12f" target="_top" xlink:title=" ">
<polygon fill="white" stroke="#666666" points="37,-20.75 0,-20.75 0,0 37,0 37,-20.75"/>
<text text-anchor="middle" x="18.5" y="-7.25" font-family="Helvetica,sans-Serif" font-size="10.00">loop</text>
</a>
</g>
</g>
<!-- Node1&#45;&gt;Node3 -->
<g id="edge3_Node000001_Node000003" class="edge">
<title>Node1&#45;&gt;Node3</title>
<g id="a_edge3_Node000001_Node000003"><a xlink:title=" ">
<path fill="none" stroke="#63b8ff" d="M137.35,-10.38C103.31,-10.38 61.05,-10.38 37.5,-10.38"/>
<polygon fill="#63b8ff" stroke="#63b8ff" points="137.02,-13.88 147.02,-10.38 137.02,-6.88 137.02,-13.88"/>
</a>
</g>
</g>
<!-- Node2&#45;&gt;Node3 -->
<g id="edge2_Node000002_Node000003" class="edge">
<title>Node2&#45;&gt;Node3</title>
<g id="a_edge2_Node000002_Node000003"><a xlink:title=" ">
<path fill="none" stroke="#63b8ff" d="M61.47,-21.37C53.3,-19.23 44.74,-16.99 37.49,-15.09"/>
<polygon fill="#63b8ff" stroke="#63b8ff" points="60.55,-24.75 71.11,-23.9 62.32,-17.98 60.55,-24.75"/>
</a>
</g>
</g>
</g>
</svg>
