<?xml version="1.0" encoding="UTF-8" standalone="no"?>
<!DOCTYPE svg PUBLIC "-//W3C//DTD SVG 1.1//EN"
 "http://www.w3.org/Graphics/SVG/1.1/DTD/svg11.dtd">
<!-- Generated by graphviz version 12.2.1 (20241206.2353)
 -->
<!-- Title: fl::StringHolder::length Pages: 1 -->
<svg width="293pt" height="94pt"
 viewBox="0.00 0.00 292.75 93.50" xmlns="http://www.w3.org/2000/svg" xmlns:xlink="http://www.w3.org/1999/xlink">
<g id="graph0" class="graph" transform="scale(1 1) rotate(0) translate(4 89.5)">
<title>fl::StringHolder::length</title>
<!-- Node1 -->
<g id="Node000001" class="node">
<title>Node1</title>
<g id="a_Node000001"><a xlink:title=" ">
<polygon fill="#999999" stroke="#666666" points="284.75,-53.12 159.25,-53.12 159.25,-32.38 284.75,-32.38 284.75,-53.12"/>
<text text-anchor="middle" x="222" y="-39.62" font-family="Helvetica,sans-Serif" font-size="10.00">fl::StringHolder::length</text>
</a>
</g>
</g>
<!-- Node2 -->
<g id="Node000002" class="node">
<title>Node2</title>
<g id="a_Node000002"><a xlink:href="../../dc/da7/classfl_1_1_string_holder.html#a524acda8e1160ed767999b8c1f53ea4d" target="_top" xlink:title=" ">
<polygon fill="white" stroke="#666666" points="123.25,-85.5 0,-85.5 0,-52 123.25,-52 123.25,-85.5"/>
<text text-anchor="start" x="8" y="-72" font-family="Helvetica,sans-Serif" font-size="10.00">fl::StringHolder::String</text>
<text text-anchor="middle" x="61.62" y="-59.25" font-family="Helvetica,sans-Serif" font-size="10.00">Holder</text>
</a>
</g>
</g>
<!-- Node1&#45;&gt;Node2 -->
<g id="edge1_Node000001_Node000002" class="edge">
<title>Node1&#45;&gt;Node2</title>
<g id="a_edge1_Node000001_Node000002"><a xlink:title=" ">
<path fill="none" stroke="#63b8ff" d="M147.58,-54.8C139.54,-56.12 131.41,-57.46 123.55,-58.75"/>
<polygon fill="#63b8ff" stroke="#63b8ff" points="148.07,-58.27 157.37,-53.2 146.93,-51.36 148.07,-58.27"/>
</a>
</g>
</g>
<!-- Node3 -->
<g id="Node000003" class="node">
<title>Node3</title>
<g id="a_Node000003"><a xlink:href="../../dc/da7/classfl_1_1_string_holder.html#a3217c5c04eb7aef81459c1c87e7eee4b" target="_top" xlink:title=" ">
<polygon fill="white" stroke="#666666" points="123.25,-33.5 0,-33.5 0,0 123.25,0 123.25,-33.5"/>
<text text-anchor="start" x="8" y="-20" font-family="Helvetica,sans-Serif" font-size="10.00">fl::StringHolder::String</text>
<text text-anchor="middle" x="61.62" y="-7.25" font-family="Helvetica,sans-Serif" font-size="10.00">Holder</text>
</a>
</g>
</g>
<!-- Node1&#45;&gt;Node3 -->
<g id="edge2_Node000001_Node000003" class="edge">
<title>Node1&#45;&gt;Node3</title>
<g id="a_edge2_Node000001_Node000003"><a xlink:title=" ">
<path fill="none" stroke="#63b8ff" d="M147.58,-30.7C139.54,-29.38 131.41,-28.04 123.55,-26.75"/>
<polygon fill="#63b8ff" stroke="#63b8ff" points="146.93,-34.14 157.37,-32.3 148.07,-27.23 146.93,-34.14"/>
</a>
</g>
</g>
</g>
</svg>
