<?xml version="1.0" encoding="UTF-8" standalone="no"?>
<!DOCTYPE svg PUBLIC "-//W3C//DTD SVG 1.1//EN"
 "http://www.w3.org/Graphics/SVG/1.1/DTD/svg11.dtd">
<!-- Generated by graphviz version 12.2.1 (20241206.2353)
 -->
<!-- Title: fl::ScreenMap::set Pages: 1 -->
<svg width="566pt" height="152pt"
 viewBox="0.00 0.00 565.50 151.50" xmlns="http://www.w3.org/2000/svg" xmlns:xlink="http://www.w3.org/1999/xlink">
<g id="graph0" class="graph" transform="scale(1 1) rotate(0) translate(4 147.5)">
<title>fl::ScreenMap::set</title>
<!-- Node1 -->
<g id="Node000001" class="node">
<title>Node1</title>
<g id="a_Node000001"><a xlink:title=" ">
<polygon fill="#999999" stroke="#666666" points="557.5,-78.75 454.5,-78.75 454.5,-58 557.5,-58 557.5,-78.75"/>
<text text-anchor="middle" x="506" y="-65.25" font-family="Helvetica,sans-Serif" font-size="10.00">fl::ScreenMap::set</text>
</a>
</g>
</g>
<!-- Node2 -->
<g id="Node000002" class="node">
<title>Node2</title>
<g id="a_Node000002"><a xlink:href="../../d3/d78/namespaceanonymous__namespace_02_led_rope_t_c_l_8cpp_03.html#a47e8fc2af72127dbc485073a2248dfd2" target="_top" xlink:title=" ">
<polygon fill="white" stroke="#666666" points="418.5,-143.5 284,-143.5 284,-97.25 418.5,-97.25 418.5,-143.5"/>
<text text-anchor="start" x="292" y="-130" font-family="Helvetica,sans-Serif" font-size="10.00">anonymous_namespace</text>
<text text-anchor="start" x="292" y="-117.25" font-family="Helvetica,sans-Serif" font-size="10.00">{LedRopeTCL::cpp}::init</text>
<text text-anchor="middle" x="351.25" y="-104.5" font-family="Helvetica,sans-Serif" font-size="10.00">_screenmap</text>
</a>
</g>
</g>
<!-- Node1&#45;&gt;Node2 -->
<g id="edge1_Node000001_Node000002" class="edge">
<title>Node1&#45;&gt;Node2</title>
<g id="a_edge1_Node000001_Node000002"><a xlink:title=" ">
<path fill="none" stroke="#63b8ff" d="M462.45,-82.86C448.92,-87.46 433.62,-92.67 418.82,-97.71"/>
<polygon fill="#63b8ff" stroke="#63b8ff" points="463.58,-86.17 471.92,-79.64 461.32,-79.55 463.58,-86.17"/>
</a>
</g>
</g>
<!-- Node3 -->
<g id="Node000003" class="node">
<title>Node3</title>
<g id="a_Node000003"><a xlink:href="../../d2/d78/classfl_1_1_screen_map.html#a9f8cd0b572681ab80ae7a5f781957279" target="_top" xlink:title=" ">
<polygon fill="white" stroke="#666666" points="418.5,-78.75 284,-78.75 284,-58 418.5,-58 418.5,-78.75"/>
<text text-anchor="middle" x="351.25" y="-65.25" font-family="Helvetica,sans-Serif" font-size="10.00">fl::ScreenMap::ParseJson</text>
</a>
</g>
</g>
<!-- Node1&#45;&gt;Node3 -->
<g id="edge2_Node000001_Node000003" class="edge">
<title>Node1&#45;&gt;Node3</title>
<g id="a_edge2_Node000001_Node000003"><a xlink:title=" ">
<path fill="none" stroke="#63b8ff" d="M442.8,-68.38C434.93,-68.38 426.86,-68.38 418.93,-68.38"/>
<polygon fill="#63b8ff" stroke="#63b8ff" points="442.62,-71.88 452.62,-68.38 442.62,-64.88 442.62,-71.88"/>
</a>
</g>
</g>
<!-- Node9 -->
<g id="Node000009" class="node">
<title>Node9</title>
<g id="a_Node000009"><a xlink:href="../../d0/dce/classfl_1_1_x_y_map.html#a464acdd5a6ce465a32fba1fda9862fa5" target="_top" xlink:title=" ">
<polygon fill="white" stroke="#666666" points="417,-39.75 285.5,-39.75 285.5,-19 417,-19 417,-39.75"/>
<text text-anchor="middle" x="351.25" y="-26.25" font-family="Helvetica,sans-Serif" font-size="10.00">fl::XYMap::toScreenMap</text>
</a>
</g>
</g>
<!-- Node1&#45;&gt;Node9 -->
<g id="edge8_Node000001_Node000009" class="edge">
<title>Node1&#45;&gt;Node9</title>
<g id="a_edge8_Node000001_Node000009"><a xlink:title=" ">
<path fill="none" stroke="#63b8ff" d="M451.49,-54.71C432.94,-49.98 412.39,-44.73 394.84,-40.25"/>
<polygon fill="#63b8ff" stroke="#63b8ff" points="450.43,-58.05 460.98,-57.14 452.16,-51.27 450.43,-58.05"/>
</a>
</g>
</g>
<!-- Node4 -->
<g id="Node000004" class="node">
<title>Node4</title>
<g id="a_Node000004"><a xlink:href="../../d2/d78/classfl_1_1_screen_map.html#a01e5310537235df9e8dc911692339a9b" target="_top" xlink:title=" ">
<polygon fill="white" stroke="#666666" points="230.75,-137.75 96.25,-137.75 96.25,-117 230.75,-117 230.75,-137.75"/>
<text text-anchor="middle" x="163.5" y="-124.25" font-family="Helvetica,sans-Serif" font-size="10.00">fl::ScreenMap::ParseJson</text>
</a>
</g>
</g>
<!-- Node3&#45;&gt;Node4 -->
<g id="edge3_Node000003_Node000004" class="edge">
<title>Node3&#45;&gt;Node4</title>
<g id="a_edge3_Node000003_Node000004"><a xlink:title=" ">
<path fill="none" stroke="#63b8ff" d="M299.24,-82.68C294.04,-84.47 288.88,-86.37 284,-88.38 267.26,-95.24 264.93,-101 248,-107.38 238.65,-110.9 228.48,-113.94 218.55,-116.53"/>
<polygon fill="#63b8ff" stroke="#63b8ff" points="300.02,-86.11 308.44,-79.68 297.85,-79.46 300.02,-86.11"/>
</a>
</g>
</g>
<!-- Node5 -->
<g id="Node000005" class="node">
<title>Node5</title>
<g id="a_Node000005"><a xlink:href="../../df/d37/classfl_1_1_file_system.html#a456623ea357257e417994ecb4daf7408" target="_top" xlink:title=" ">
<polygon fill="white" stroke="#666666" points="245.38,-98.75 81.62,-98.75 81.62,-78 245.38,-78 245.38,-98.75"/>
<text text-anchor="middle" x="163.5" y="-85.25" font-family="Helvetica,sans-Serif" font-size="10.00">fl::FileSystem::readScreenMap</text>
</a>
</g>
</g>
<!-- Node3&#45;&gt;Node5 -->
<g id="edge4_Node000003_Node000005" class="edge">
<title>Node3&#45;&gt;Node5</title>
<g id="a_edge4_Node000003_Node000005"><a xlink:title=" ">
<path fill="none" stroke="#63b8ff" d="M272.33,-76.77C263.56,-77.71 254.62,-78.67 245.81,-79.62"/>
<polygon fill="#63b8ff" stroke="#63b8ff" points="272.64,-80.25 282.21,-75.7 271.89,-73.29 272.64,-80.25"/>
</a>
</g>
</g>
<!-- Node7 -->
<g id="Node000007" class="node">
<title>Node7</title>
<g id="a_Node000007"><a xlink:href="../../df/d37/classfl_1_1_file_system.html#a65df0d1c647d87b65a58e66e630b071d" target="_top" xlink:title=" ">
<polygon fill="white" stroke="#666666" points="248,-59.75 79,-59.75 79,-39 248,-39 248,-59.75"/>
<text text-anchor="middle" x="163.5" y="-46.25" font-family="Helvetica,sans-Serif" font-size="10.00">fl::FileSystem::readScreenMaps</text>
</a>
</g>
</g>
<!-- Node3&#45;&gt;Node7 -->
<g id="edge6_Node000003_Node000007" class="edge">
<title>Node3&#45;&gt;Node7</title>
<g id="a_edge6_Node000003_Node000007"><a xlink:title=" ">
<path fill="none" stroke="#63b8ff" d="M272.28,-60.4C264.39,-59.59 256.35,-58.77 248.39,-57.96"/>
<polygon fill="#63b8ff" stroke="#63b8ff" points="271.9,-63.88 282.21,-61.42 272.62,-56.92 271.9,-63.88"/>
</a>
</g>
</g>
<!-- Node8 -->
<g id="Node000008" class="node">
<title>Node8</title>
<g id="a_Node000008"><a xlink:href="../../d1/ddb/_chromancer_8ino.html#a4fc01d736fe50cf5b977f755b675f11d" target="_top" xlink:title=" ">
<polygon fill="white" stroke="#666666" points="185,-20.75 142,-20.75 142,0 185,0 185,-20.75"/>
<text text-anchor="middle" x="163.5" y="-7.25" font-family="Helvetica,sans-Serif" font-size="10.00">setup</text>
</a>
</g>
</g>
<!-- Node3&#45;&gt;Node8 -->
<g id="edge7_Node000003_Node000008" class="edge">
<title>Node3&#45;&gt;Node8</title>
<g id="a_edge7_Node000003_Node000008"><a xlink:title=" ">
<path fill="none" stroke="#63b8ff" d="M299.49,-54.03C294.22,-52.25 288.97,-50.35 284,-48.38 267.38,-41.77 264.81,-36.5 248,-30.38 227.27,-22.82 202.6,-17.32 185.48,-14.02"/>
<polygon fill="#63b8ff" stroke="#63b8ff" points="298.25,-57.3 308.84,-57.05 300.4,-50.64 298.25,-57.3"/>
</a>
</g>
</g>
<!-- Node6 -->
<g id="Node000006" class="node">
<title>Node6</title>
<g id="a_Node000006"><a xlink:href="../../d7/d35/_fx_sd_card_8ino.html#a4fc01d736fe50cf5b977f755b675f11d" target="_top" xlink:title=" ">
<polygon fill="white" stroke="#666666" points="43,-98.75 0,-98.75 0,-78 43,-78 43,-98.75"/>
<text text-anchor="middle" x="21.5" y="-85.25" font-family="Helvetica,sans-Serif" font-size="10.00">setup</text>
</a>
</g>
</g>
<!-- Node5&#45;&gt;Node6 -->
<g id="edge5_Node000005_Node000006" class="edge">
<title>Node5&#45;&gt;Node6</title>
<g id="a_edge5_Node000005_Node000006"><a xlink:title=" ">
<path fill="none" stroke="#63b8ff" d="M70.05,-88.38C60.14,-88.38 50.91,-88.38 43.26,-88.38"/>
<polygon fill="#63b8ff" stroke="#63b8ff" points="69.95,-91.88 79.95,-88.38 69.95,-84.88 69.95,-91.88"/>
</a>
</g>
</g>
</g>
</svg>
