<?xml version="1.0" encoding="UTF-8" standalone="no"?>
<!DOCTYPE svg PUBLIC "-//W3C//DTD SVG 1.1//EN"
 "http://www.w3.org/Graphics/SVG/1.1/DTD/svg11.dtd">
<!-- Generated by graphviz version 12.2.1 (20241206.2353)
 -->
<!-- Title: fl::ScreenMap::toJsonStr Pages: 1 -->
<svg width="358pt" height="68pt"
 viewBox="0.00 0.00 358.30 67.75" xmlns="http://www.w3.org/2000/svg" xmlns:xlink="http://www.w3.org/1999/xlink">
<g id="graph0" class="graph" transform="scale(1 1) rotate(0) translate(4 63.75)">
<title>fl::ScreenMap::toJsonStr</title>
<!-- Node1 -->
<g id="Node000001" class="node">
<title>Node1</title>
<g id="a_Node000001"><a xlink:title=" ">
<polygon fill="#999999" stroke="#666666" points="131.5,-39.75 0,-39.75 0,-19 131.5,-19 131.5,-39.75"/>
<text text-anchor="middle" x="65.75" y="-26.25" font-family="Helvetica,sans-Serif" font-size="10.00">fl::ScreenMap::toJsonStr</text>
</a>
</g>
</g>
<!-- Node2 -->
<g id="Node000002" class="node">
<title>Node2</title>
<g id="a_Node000002"><a xlink:href="../../d2/d78/classfl_1_1_screen_map.html#a66f65f7c85a58e9bd6bf6dbfc50be1f3" target="_top" xlink:title=" ">
<polygon fill="white" stroke="#666666" points="285.5,-59.75 167.5,-59.75 167.5,-39 285.5,-39 285.5,-59.75"/>
<text text-anchor="middle" x="226.5" y="-46.25" font-family="Helvetica,sans-Serif" font-size="10.00">fl::ScreenMap::toJson</text>
</a>
</g>
</g>
<!-- Node1&#45;&gt;Node2 -->
<g id="edge1_Node000001_Node000002" class="edge">
<title>Node1&#45;&gt;Node2</title>
<g id="a_edge1_Node000001_Node000002"><a xlink:title=" ">
<path fill="none" stroke="#63b8ff" d="M131.78,-37.57C139.75,-38.57 147.92,-39.6 155.96,-40.61"/>
<polygon fill="#63b8ff" stroke="#63b8ff" points="155.34,-44.06 165.69,-41.84 156.21,-37.12 155.34,-44.06"/>
</a>
</g>
</g>
<!-- Node4 -->
<g id="Node000004" class="node">
<title>Node4</title>
<g id="a_Node000004"><a xlink:href="../../d4/d36/namespacefl.html#a966e65a21faacfa6fe6c00989a2f505c" target="_top" xlink:title=" ">
<polygon fill="white" stroke="#666666" points="255.5,-20.75 197.5,-20.75 197.5,0 255.5,0 255.5,-20.75"/>
<text text-anchor="middle" x="226.5" y="-7.25" font-family="Helvetica,sans-Serif" font-size="10.00">fl::toJson</text>
</a>
</g>
</g>
<!-- Node1&#45;&gt;Node4 -->
<g id="edge3_Node000001_Node000004" class="edge">
<title>Node1&#45;&gt;Node4</title>
<g id="a_edge3_Node000001_Node000004"><a xlink:title=" ">
<path fill="none" stroke="#63b8ff" d="M131.78,-21.59C150.11,-19.4 169.49,-17.08 185.84,-15.12"/>
<polygon fill="#63b8ff" stroke="#63b8ff" points="186.14,-18.61 195.65,-13.95 185.31,-11.66 186.14,-18.61"/>
</a>
</g>
</g>
<!-- Node3 -->
<g id="Node000003" class="node">
<title>Node3</title>
<g id="a_Node000003"><a xlink:href="../../d7/dfa/_p_j_r_c_spectrum_analyzer_8ino.html#a310eea447890e3471c6b27fd79dc94fc" target="_top" xlink:title=" ">
<polygon fill="white" stroke="#666666" points="350.3,-59.75 321.5,-59.75 321.5,-39 350.3,-39 350.3,-59.75"/>
<text text-anchor="middle" x="335.9" y="-46.25" font-family="Helvetica,sans-Serif" font-size="10.00">xy</text>
</a>
</g>
</g>
<!-- Node2&#45;&gt;Node3 -->
<g id="edge2_Node000002_Node000003" class="edge">
<title>Node2&#45;&gt;Node3</title>
<g id="a_edge2_Node000002_Node000003"><a xlink:title=" ">
<path fill="none" stroke="#63b8ff" d="M285.91,-49.38C294.26,-49.38 302.45,-49.38 309.67,-49.38"/>
<polygon fill="#63b8ff" stroke="#63b8ff" points="309.6,-52.88 319.6,-49.38 309.6,-45.88 309.6,-52.88"/>
</a>
</g>
</g>
</g>
</svg>
