<?xml version="1.0" encoding="UTF-8" standalone="no"?>
<!DOCTYPE svg PUBLIC "-//W3C//DTD SVG 1.1//EN"
 "http://www.w3.org/Graphics/SVG/1.1/DTD/svg11.dtd">
<!-- Generated by graphviz version 12.2.1 (20241206.2353)
 -->
<!-- Title: fl::ScreenMap::empty Pages: 1 -->
<svg width="300pt" height="68pt"
 viewBox="0.00 0.00 300.25 67.75" xmlns="http://www.w3.org/2000/svg" xmlns:xlink="http://www.w3.org/1999/xlink">
<g id="graph0" class="graph" transform="scale(1 1) rotate(0) translate(4 63.75)">
<title>fl::ScreenMap::empty</title>
<!-- Node1 -->
<g id="Node000001" class="node">
<title>Node1</title>
<g id="a_Node000001"><a xlink:title=" ">
<polygon fill="#999999" stroke="#666666" points="292.25,-39.75 172.75,-39.75 172.75,-19 292.25,-19 292.25,-39.75"/>
<text text-anchor="middle" x="232.5" y="-26.25" font-family="Helvetica,sans-Serif" font-size="10.00">fl::ScreenMap::empty</text>
</a>
</g>
</g>
<!-- Node2 -->
<g id="Node000002" class="node">
<title>Node2</title>
<g id="a_Node000002"><a xlink:href="../../d2/d78/classfl_1_1_screen_map.html#aa5e391d04fafc29ded59b3f0dde56126" target="_top" xlink:title=" ">
<polygon fill="white" stroke="#666666" points="136.75,-59.75 0,-59.75 0,-39 136.75,-39 136.75,-59.75"/>
<text text-anchor="middle" x="68.38" y="-46.25" font-family="Helvetica,sans-Serif" font-size="10.00">fl::ScreenMap::operator[]</text>
</a>
</g>
</g>
<!-- Node1&#45;&gt;Node2 -->
<g id="edge1_Node000001_Node000002" class="edge">
<title>Node1&#45;&gt;Node2</title>
<g id="a_edge1_Node000001_Node000002"><a xlink:title=" ">
<path fill="none" stroke="#63b8ff" d="M161.3,-38.04C153.27,-39.03 145.11,-40.03 137.12,-41.02"/>
<polygon fill="#63b8ff" stroke="#63b8ff" points="161.51,-41.54 171.01,-36.84 160.66,-34.59 161.51,-41.54"/>
</a>
</g>
</g>
<!-- Node3 -->
<g id="Node000003" class="node">
<title>Node3</title>
<g id="a_Node000003"><a xlink:href="../../d2/d78/classfl_1_1_screen_map.html#a75f990de8d34f0d62f026b4ebc2f9ed6" target="_top" xlink:title=" ">
<polygon fill="white" stroke="#666666" points="136.75,-20.75 0,-20.75 0,0 136.75,0 136.75,-20.75"/>
<text text-anchor="middle" x="68.38" y="-7.25" font-family="Helvetica,sans-Serif" font-size="10.00">fl::ScreenMap::operator[]</text>
</a>
</g>
</g>
<!-- Node1&#45;&gt;Node3 -->
<g id="edge2_Node000001_Node000003" class="edge">
<title>Node1&#45;&gt;Node3</title>
<g id="a_edge2_Node000001_Node000003"><a xlink:title=" ">
<path fill="none" stroke="#63b8ff" d="M161.3,-21.15C153.27,-20.21 145.11,-19.25 137.12,-18.31"/>
<polygon fill="#63b8ff" stroke="#63b8ff" points="160.67,-24.6 171.01,-22.29 161.48,-17.65 160.67,-24.6"/>
</a>
</g>
</g>
</g>
</svg>
