<?xml version="1.0" encoding="UTF-8" standalone="no"?>
<!DOCTYPE svg PUBLIC "-//W3C//DTD SVG 1.1//EN"
 "http://www.w3.org/Graphics/SVG/1.1/DTD/svg11.dtd">
<!-- Generated by graphviz version 12.2.1 (20241206.2353)
 -->
<!-- Title: fl::DigitalPinImpl::write Pages: 1 -->
<svg width="187pt" height="68pt"
 viewBox="0.00 0.00 187.00 67.75" xmlns="http://www.w3.org/2000/svg" xmlns:xlink="http://www.w3.org/1999/xlink">
<g id="graph0" class="graph" transform="scale(1 1) rotate(0) translate(4 63.75)">
<title>fl::DigitalPinImpl::write</title>
<!-- Node1 -->
<g id="Node000001" class="node">
<title>Node1</title>
<g id="a_Node000001"><a xlink:title=" ">
<polygon fill="#999999" stroke="#666666" points="97,-46.12 0,-46.12 0,-12.62 97,-12.62 97,-46.12"/>
<text text-anchor="start" x="8" y="-32.62" font-family="Helvetica,sans-Serif" font-size="10.00">fl::DigitalPinImpl</text>
<text text-anchor="middle" x="48.5" y="-19.88" font-family="Helvetica,sans-Serif" font-size="10.00">::write</text>
</a>
</g>
</g>
<!-- Node2 -->
<g id="Node000002" class="node">
<title>Node2</title>
<g id="a_Node000002"><a xlink:href="../../d7/d68/class_pin.html#a5a2884f01bb407fd628f57553eaaa9f4" target="_top" xlink:title="Set the pin state to HIGH">
<polygon fill="white" stroke="#666666" points="179,-59.75 133,-59.75 133,-39 179,-39 179,-59.75"/>
<text text-anchor="middle" x="156" y="-46.25" font-family="Helvetica,sans-Serif" font-size="10.00">Pin::hi</text>
</a>
</g>
</g>
<!-- Node1&#45;&gt;Node2 -->
<g id="edge1_Node000001_Node000002" class="edge">
<title>Node1&#45;&gt;Node2</title>
<g id="a_edge1_Node000001_Node000002"><a xlink:title=" ">
<path fill="none" stroke="#63b8ff" d="M97.31,-38.44C105.49,-39.99 113.84,-41.57 121.54,-43.03"/>
<polygon fill="#63b8ff" stroke="#63b8ff" points="120.68,-46.43 131.16,-44.85 121.98,-39.55 120.68,-46.43"/>
</a>
</g>
</g>
<!-- Node3 -->
<g id="Node000003" class="node">
<title>Node3</title>
<g id="a_Node000003"><a xlink:href="../../d7/d68/class_pin.html#a6cd185ba2f0d7f5a797635988ab65017" target="_top" xlink:title="Set the pin state to LOW">
<polygon fill="white" stroke="#666666" points="179,-20.75 133,-20.75 133,0 179,0 179,-20.75"/>
<text text-anchor="middle" x="156" y="-7.25" font-family="Helvetica,sans-Serif" font-size="10.00">Pin::lo</text>
</a>
</g>
</g>
<!-- Node1&#45;&gt;Node3 -->
<g id="edge2_Node000001_Node000003" class="edge">
<title>Node1&#45;&gt;Node3</title>
<g id="a_edge2_Node000001_Node000003"><a xlink:title=" ">
<path fill="none" stroke="#63b8ff" d="M97.31,-20.76C105.49,-19.29 113.84,-17.79 121.54,-16.4"/>
<polygon fill="#63b8ff" stroke="#63b8ff" points="121.93,-19.89 131.15,-14.67 120.69,-13 121.93,-19.89"/>
</a>
</g>
</g>
</g>
</svg>
