<?xml version="1.0" encoding="UTF-8" standalone="no"?>
<!DOCTYPE svg PUBLIC "-//W3C//DTD SVG 1.1//EN"
 "http://www.w3.org/Graphics/SVG/1.1/DTD/svg11.dtd">
<!-- Generated by graphviz version 12.2.1 (20241206.2353)
 -->
<!-- Title: /home/runner/work/FastLED/FastLED/src/fl/file_system.h Pages: 1 -->
<svg width="890pt" height="439pt"
 viewBox="0.00 0.00 890.00 438.75" xmlns="http://www.w3.org/2000/svg" xmlns:xlink="http://www.w3.org/1999/xlink">
<g id="graph0" class="graph" transform="scale(1 1) rotate(0) translate(4 434.75)">
<title>/home/runner/work/FastLED/FastLED/src/fl/file_system.h</title>
<!-- Node1 -->
<g id="Node000001" class="node">
<title>Node1</title>
<g id="a_Node000001"><a xlink:title=" ">
<polygon fill="#999999" stroke="#666666" points="369.88,-430.75 218.12,-430.75 218.12,-397.25 369.88,-397.25 369.88,-430.75"/>
<text text-anchor="start" x="226.12" y="-417.25" font-family="Helvetica,sans-Serif" font-size="10.00">/home/runner/work/FastLED</text>
<text text-anchor="middle" x="294" y="-404.5" font-family="Helvetica,sans-Serif" font-size="10.00">/FastLED/src/fl/file_system.h</text>
</a>
</g>
</g>
<!-- Node2 -->
<g id="Node000002" class="node">
<title>Node2</title>
<g id="a_Node000002"><a xlink:title=" ">
<polygon fill="#e0e0e0" stroke="#999999" points="775.38,-20.75 722.62,-20.75 722.62,0 775.38,0 775.38,-20.75"/>
<text text-anchor="middle" x="749" y="-7.25" font-family="Helvetica,sans-Serif" font-size="10.00">stdint.h</text>
</a>
</g>
</g>
<!-- Node1&#45;&gt;Node2 -->
<g id="edge1_Node000001_Node000002" class="edge">
<title>Node1&#45;&gt;Node2</title>
<g id="a_edge1_Node000001_Node000002"><a xlink:title=" ">
<path fill="none" stroke="#63b8ff" d="M370.27,-413.47C529.37,-412.38 882,-398.33 882,-295.12 882,-295.12 882,-295.12 882,-122.88 882,-72.61 825.53,-40.51 786.18,-24.24"/>
<polygon fill="#63b8ff" stroke="#63b8ff" points="787.59,-21.04 777,-20.63 785.02,-27.55 787.59,-21.04"/>
</a>
</g>
</g>
<!-- Node3 -->
<g id="Node000003" class="node">
<title>Node3</title>
<g id="a_Node000003"><a xlink:title=" ">
<polygon fill="#e0e0e0" stroke="#999999" points="217.5,-20.75 162.5,-20.75 162.5,0 217.5,0 217.5,-20.75"/>
<text text-anchor="middle" x="190" y="-7.25" font-family="Helvetica,sans-Serif" font-size="10.00">stddef.h</text>
</a>
</g>
</g>
<!-- Node1&#45;&gt;Node3 -->
<g id="edge2_Node000001_Node000003" class="edge">
<title>Node1&#45;&gt;Node3</title>
<g id="a_edge2_Node000001_Node000003"><a xlink:title=" ">
<path fill="none" stroke="#63b8ff" d="M217.84,-410.01C167.5,-404.98 101.86,-392.34 52,-361.25 20.27,-341.47 0,-332.51 0,-295.12 0,-295.12 0,-295.12 0,-122.88 0,-53.43 95.59,-26.4 151.17,-16.56"/>
<polygon fill="#63b8ff" stroke="#63b8ff" points="151.58,-20.04 160.88,-14.95 150.44,-13.13 151.58,-20.04"/>
</a>
</g>
</g>
<!-- Node4 -->
<g id="Node000004" class="node">
<title>Node4</title>
<g id="a_Node000004"><a xlink:href="../../df/d2a/namespace_8h.html" target="_top" xlink:title="Implements the FastLED namespace macros.">
<polygon fill="white" stroke="#666666" points="377.12,-20.75 286.88,-20.75 286.88,0 377.12,0 377.12,-20.75"/>
<text text-anchor="middle" x="332" y="-7.25" font-family="Helvetica,sans-Serif" font-size="10.00">fl/namespace.h</text>
</a>
</g>
</g>
<!-- Node1&#45;&gt;Node4 -->
<g id="edge3_Node000001_Node000004" class="edge">
<title>Node1&#45;&gt;Node4</title>
<g id="a_edge3_Node000001_Node000004"><a xlink:title=" ">
<path fill="none" stroke="#63b8ff" d="M217.88,-409.29C142.42,-401.02 38,-375.12 38,-295.12 38,-295.12 38,-295.12 38,-122.88 38,-72.66 189.86,-37.03 275.3,-20.96"/>
<polygon fill="#63b8ff" stroke="#63b8ff" points="275.7,-24.44 284.9,-19.19 274.43,-17.56 275.7,-24.44"/>
</a>
</g>
</g>
<!-- Node5 -->
<g id="Node000005" class="node">
<title>Node5</title>
<g id="a_Node000005"><a xlink:href="../../d7/df1/fl_2ptr_8h.html" target="_top" xlink:title=" ">
<polygon fill="white" stroke="#666666" points="338.38,-134.25 291.62,-134.25 291.62,-113.5 338.38,-113.5 338.38,-134.25"/>
<text text-anchor="middle" x="315" y="-120.75" font-family="Helvetica,sans-Serif" font-size="10.00">fl/ptr.h</text>
</a>
</g>
</g>
<!-- Node1&#45;&gt;Node5 -->
<g id="edge4_Node000001_Node000005" class="edge">
<title>Node1&#45;&gt;Node5</title>
<g id="a_edge4_Node000001_Node000005"><a xlink:title=" ">
<path fill="none" stroke="#63b8ff" d="M265.31,-396.87C234.52,-377.19 190,-340.84 190,-295.12 190,-295.12 190,-295.12 190,-236.38 190,-187.54 243.78,-154.8 280.79,-138.05"/>
<polygon fill="#63b8ff" stroke="#63b8ff" points="282.01,-141.33 289.8,-134.15 279.24,-134.91 282.01,-141.33"/>
</a>
</g>
</g>
<!-- Node8 -->
<g id="Node000008" class="node">
<title>Node8</title>
<g id="a_Node000008"><a xlink:href="../../dd/d78/video_8h.html" target="_top" xlink:title=" ">
<polygon fill="white" stroke="#666666" points="407.38,-361.25 342.62,-361.25 342.62,-340.5 407.38,-340.5 407.38,-361.25"/>
<text text-anchor="middle" x="375" y="-347.75" font-family="Helvetica,sans-Serif" font-size="10.00">fx/video.h</text>
</a>
</g>
</g>
<!-- Node1&#45;&gt;Node8 -->
<g id="edge13_Node000001_Node000008" class="edge">
<title>Node1&#45;&gt;Node8</title>
<g id="a_edge13_Node000001_Node000008"><a xlink:title=" ">
<path fill="none" stroke="#63b8ff" d="M315.28,-396.94C326.85,-388.21 341.15,-377.42 352.85,-368.59"/>
<polygon fill="#63b8ff" stroke="#63b8ff" points="354.88,-371.45 360.75,-362.63 350.66,-365.86 354.88,-371.45"/>
</a>
</g>
</g>
<!-- Node22 -->
<g id="Node000022" class="node">
<title>Node22</title>
<g id="a_Node000022"><a xlink:href="../../dc/d0e/fl_2str_8h.html" target="_top" xlink:title=" ">
<polygon fill="#fff0f0" stroke="red" points="561,-191 515,-191 515,-170.25 561,-170.25 561,-191"/>
<text text-anchor="middle" x="538" y="-177.5" font-family="Helvetica,sans-Serif" font-size="10.00">fl/str.h</text>
</a>
</g>
</g>
<!-- Node1&#45;&gt;Node22 -->
<g id="edge40_Node000001_Node000022" class="edge">
<title>Node1&#45;&gt;Node22</title>
<g id="a_edge40_Node000001_Node000022"><a xlink:title=" ">
<path fill="none" stroke="#63b8ff" d="M347.45,-396.79C369.95,-388.38 395.6,-376.61 416,-361.25 467.87,-322.19 473.86,-302.99 508,-247.75 517.02,-233.15 524.93,-215.38 530.36,-201.94"/>
<polygon fill="#63b8ff" stroke="#63b8ff" points="533.54,-203.43 533.91,-192.84 527.01,-200.89 533.54,-203.43"/>
</a>
</g>
</g>
<!-- Node5&#45;&gt;Node3 -->
<g id="edge5_Node000005_Node000003" class="edge">
<title>Node5&#45;&gt;Node3</title>
<g id="a_edge5_Node000005_Node000003"><a xlink:title=" ">
<path fill="none" stroke="#63b8ff" d="M291.3,-118.85C267.21,-113.53 230.46,-101.81 209,-77.5 198,-65.03 193.34,-46.57 191.39,-32.32"/>
<polygon fill="#63b8ff" stroke="#63b8ff" points="194.9,-32.24 190.42,-22.64 187.93,-32.94 194.9,-32.24"/>
</a>
</g>
</g>
<!-- Node5&#45;&gt;Node4 -->
<g id="edge6_Node000005_Node000004" class="edge">
<title>Node5&#45;&gt;Node4</title>
<g id="a_edge6_Node000005_Node000004"><a xlink:title=" ">
<path fill="none" stroke="#63b8ff" d="M316.45,-113.37C319.17,-95.52 325.1,-56.61 328.8,-32.34"/>
<polygon fill="#63b8ff" stroke="#63b8ff" points="332.23,-33.08 330.28,-22.67 325.31,-32.03 332.23,-33.08"/>
</a>
</g>
</g>
<!-- Node6 -->
<g id="Node000006" class="node">
<title>Node6</title>
<g id="a_Node000006"><a xlink:href="../../df/d28/fl_2scoped__ptr_8h.html" target="_top" xlink:title=" ">
<polygon fill="white" stroke="#666666" points="304.25,-77.5 217.75,-77.5 217.75,-56.75 304.25,-56.75 304.25,-77.5"/>
<text text-anchor="middle" x="261" y="-64" font-family="Helvetica,sans-Serif" font-size="10.00">fl/scoped_ptr.h</text>
</a>
</g>
</g>
<!-- Node5&#45;&gt;Node6 -->
<g id="edge7_Node000005_Node000006" class="edge">
<title>Node5&#45;&gt;Node6</title>
<g id="a_edge7_Node000005_Node000006"><a xlink:title=" ">
<path fill="none" stroke="#63b8ff" d="M305.35,-113.09C297.9,-105.53 287.39,-94.89 278.48,-85.85"/>
<polygon fill="#63b8ff" stroke="#63b8ff" points="281.15,-83.57 271.63,-78.91 276.16,-88.48 281.15,-83.57"/>
</a>
</g>
</g>
<!-- Node7 -->
<g id="Node000007" class="node">
<title>Node7</title>
<g id="a_Node000007"><a xlink:href="../../d8/d0c/template__magic_8h.html" target="_top" xlink:title=" ">
<polygon fill="white" stroke="#666666" points="587.75,-77.5 474.25,-77.5 474.25,-56.75 587.75,-56.75 587.75,-77.5"/>
<text text-anchor="middle" x="531" y="-64" font-family="Helvetica,sans-Serif" font-size="10.00">fl/template_magic.h</text>
</a>
</g>
</g>
<!-- Node5&#45;&gt;Node7 -->
<g id="edge10_Node000005_Node000007" class="edge">
<title>Node5&#45;&gt;Node7</title>
<g id="a_edge10_Node000005_Node000007"><a xlink:title=" ">
<path fill="none" stroke="#63b8ff" d="M338.53,-116.91C372.6,-108.28 436.48,-92.08 481.28,-80.73"/>
<polygon fill="#63b8ff" stroke="#63b8ff" points="481.93,-84.17 490.76,-78.33 480.21,-77.39 481.93,-84.17"/>
</a>
</g>
</g>
<!-- Node6&#45;&gt;Node3 -->
<g id="edge8_Node000006_Node000003" class="edge">
<title>Node6&#45;&gt;Node3</title>
<g id="a_edge8_Node000006_Node000003"><a xlink:title=" ">
<path fill="none" stroke="#63b8ff" d="M248.31,-56.34C238.11,-48.47 223.56,-37.25 211.54,-27.99"/>
<polygon fill="#63b8ff" stroke="#63b8ff" points="213.84,-25.34 203.78,-22 209.56,-30.88 213.84,-25.34"/>
</a>
</g>
</g>
<!-- Node6&#45;&gt;Node4 -->
<g id="edge9_Node000006_Node000004" class="edge">
<title>Node6&#45;&gt;Node4</title>
<g id="a_edge9_Node000006_Node000004"><a xlink:title=" ">
<path fill="none" stroke="#63b8ff" d="M273.69,-56.34C283.89,-48.47 298.44,-37.25 310.46,-27.99"/>
<polygon fill="#63b8ff" stroke="#63b8ff" points="312.44,-30.88 318.22,-22 308.16,-25.34 312.44,-30.88"/>
</a>
</g>
</g>
<!-- Node7&#45;&gt;Node2 -->
<g id="edge11_Node000007_Node000002" class="edge">
<title>Node7&#45;&gt;Node2</title>
<g id="a_edge11_Node000007_Node000002"><a xlink:title=" ">
<path fill="none" stroke="#63b8ff" d="M570.23,-56.27C610.28,-46.21 672.02,-30.71 711.45,-20.8"/>
<polygon fill="#63b8ff" stroke="#63b8ff" points="712.12,-24.25 720.97,-18.41 710.42,-17.46 712.12,-24.25"/>
</a>
</g>
</g>
<!-- Node7&#45;&gt;Node4 -->
<g id="edge12_Node000007_Node000004" class="edge">
<title>Node7&#45;&gt;Node4</title>
<g id="a_edge12_Node000007_Node000004"><a xlink:title=" ">
<path fill="none" stroke="#63b8ff" d="M495.42,-56.34C462.7,-47.33 413.98,-33.93 378.24,-24.1"/>
<polygon fill="#63b8ff" stroke="#63b8ff" points="379.63,-20.85 369.06,-21.57 377.78,-27.6 379.63,-20.85"/>
</a>
</g>
</g>
<!-- Node8&#45;&gt;Node2 -->
<g id="edge14_Node000008_Node000002" class="edge">
<title>Node8&#45;&gt;Node2</title>
<g id="a_edge14_Node000008_Node000002"><a xlink:title=" ">
<path fill="none" stroke="#63b8ff" d="M407.61,-345.41C513.97,-329.96 844,-274.51 844,-181.62 844,-181.62 844,-181.62 844,-122.88 844,-80.56 803.87,-46.15 775.77,-27.24"/>
<polygon fill="#63b8ff" stroke="#63b8ff" points="778,-24.51 767.7,-22.04 774.2,-30.4 778,-24.51"/>
</a>
</g>
</g>
<!-- Node8&#45;&gt;Node4 -->
<g id="edge15_Node000008_Node000004" class="edge">
<title>Node8&#45;&gt;Node4</title>
<g id="a_edge15_Node000008_Node000004"><a xlink:title=" ">
<path fill="none" stroke="#63b8ff" d="M362.55,-340.13C351.76,-331.39 336.04,-317.9 324,-304.5 246.61,-218.33 210.92,-192.36 196,-77.5 194.81,-68.35 190.61,-64.23 196,-56.75 214.05,-31.7 246.53,-20.27 275.23,-15.15"/>
<polygon fill="#63b8ff" stroke="#63b8ff" points="275.57,-18.64 284.92,-13.65 274.5,-11.72 275.57,-18.64"/>
</a>
</g>
</g>
<!-- Node8&#45;&gt;Node5 -->
<g id="edge16_Node000008_Node000005" class="edge">
<title>Node8&#45;&gt;Node5</title>
<g id="a_edge16_Node000008_Node000005"><a xlink:title=" ">
<path fill="none" stroke="#63b8ff" d="M363.85,-340.25C354.81,-331.79 342.55,-318.64 336,-304.5 311.43,-251.45 311.5,-180.54 313.35,-145.82"/>
<polygon fill="#63b8ff" stroke="#63b8ff" points="316.84,-146.11 314.01,-135.9 309.86,-145.65 316.84,-146.11"/>
</a>
</g>
</g>
<!-- Node9 -->
<g id="Node000009" class="node">
<title>Node9</title>
<g id="a_Node000009"><a xlink:href="../../da/d81/fx1d_8h.html" target="_top" xlink:title=" ">
<polygon fill="white" stroke="#666666" points="404.75,-304.5 345.25,-304.5 345.25,-283.75 404.75,-283.75 404.75,-304.5"/>
<text text-anchor="middle" x="375" y="-291" font-family="Helvetica,sans-Serif" font-size="10.00">fx/fx1d.h</text>
</a>
</g>
</g>
<!-- Node8&#45;&gt;Node9 -->
<g id="edge17_Node000008_Node000009" class="edge">
<title>Node8&#45;&gt;Node9</title>
<g id="a_edge17_Node000008_Node000009"><a xlink:title=" ">
<path fill="none" stroke="#63b8ff" d="M375,-340.09C375,-333.47 375,-324.47 375,-316.27"/>
<polygon fill="#63b8ff" stroke="#63b8ff" points="378.5,-316.34 375,-306.34 371.5,-316.34 378.5,-316.34"/>
</a>
</g>
</g>
<!-- Node8&#45;&gt;Node22 -->
<g id="edge39_Node000008_Node000022" class="edge">
<title>Node8&#45;&gt;Node22</title>
<g id="a_edge39_Node000008_Node000022"><a xlink:title=" ">
<path fill="none" stroke="#63b8ff" d="M388.99,-340.15C401.15,-331.42 418.97,-317.94 433,-304.5 468.45,-270.56 504.47,-225.64 523.74,-200.59"/>
<polygon fill="#63b8ff" stroke="#63b8ff" points="526.51,-202.72 529.78,-192.65 520.94,-198.48 526.51,-202.72"/>
</a>
</g>
</g>
<!-- Node28 -->
<g id="Node000028" class="node">
<title>Node28</title>
<g id="a_Node000028"><a xlink:href="../../de/df7/time_8h.html" target="_top" xlink:title=" ">
<polygon fill="white" stroke="#666666" points="486.12,-191 425.88,-191 425.88,-170.25 486.12,-170.25 486.12,-191"/>
<text text-anchor="middle" x="456" y="-177.5" font-family="Helvetica,sans-Serif" font-size="10.00">fx/time.h</text>
</a>
</g>
</g>
<!-- Node8&#45;&gt;Node28 -->
<g id="edge33_Node000008_Node000028" class="edge">
<title>Node8&#45;&gt;Node28</title>
<g id="a_edge33_Node000008_Node000028"><a xlink:title=" ">
<path fill="none" stroke="#63b8ff" d="M385.01,-340.17C393.57,-331.45 405.78,-317.98 414,-304.5 433.98,-271.73 445.96,-228.21 451.74,-202.72"/>
<polygon fill="#63b8ff" stroke="#63b8ff" points="455.16,-203.48 453.84,-192.97 448.32,-202.01 455.16,-203.48"/>
</a>
</g>
</g>
<!-- Node9&#45;&gt;Node2 -->
<g id="edge18_Node000009_Node000002" class="edge">
<title>Node9&#45;&gt;Node2</title>
<g id="a_edge18_Node000009_Node000002"><a xlink:title=" ">
<path fill="none" stroke="#63b8ff" d="M404.96,-291.84C502.71,-286.83 806,-264.61 806,-181.62 806,-181.62 806,-181.62 806,-122.88 806,-86.84 782.11,-50.73 765.26,-29.74"/>
<polygon fill="#63b8ff" stroke="#63b8ff" points="767.98,-27.55 758.88,-22.13 762.62,-32.04 767.98,-27.55"/>
</a>
</g>
</g>
<!-- Node9&#45;&gt;Node4 -->
<g id="edge19_Node000009_Node000004" class="edge">
<title>Node9&#45;&gt;Node4</title>
<g id="a_edge19_Node000009_Node000004"><a xlink:title=" ">
<path fill="none" stroke="#63b8ff" d="M360.94,-283.33C323.48,-256.06 222.75,-174.88 203,-77.5 201.17,-68.46 197.67,-64.28 203,-56.75 219.45,-33.53 248.78,-22.1 275.32,-16.52"/>
<polygon fill="#63b8ff" stroke="#63b8ff" points="275.79,-19.99 284.99,-14.74 274.52,-13.11 275.79,-19.99"/>
</a>
</g>
</g>
<!-- Node10 -->
<g id="Node000010" class="node">
<title>Node10</title>
<g id="a_Node000010"><a xlink:href="../../d5/d22/fl_2xmap_8h.html" target="_top" xlink:title=" ">
<polygon fill="#fff0f0" stroke="red" points="402.88,-191 341.12,-191 341.12,-170.25 402.88,-170.25 402.88,-191"/>
<text text-anchor="middle" x="372" y="-177.5" font-family="Helvetica,sans-Serif" font-size="10.00">fl/xmap.h</text>
</a>
</g>
</g>
<!-- Node9&#45;&gt;Node10 -->
<g id="edge20_Node000009_Node000010" class="edge">
<title>Node9&#45;&gt;Node10</title>
<g id="a_edge20_Node000009_Node000010"><a xlink:title=" ">
<path fill="none" stroke="#63b8ff" d="M373.89,-283.4C372.91,-274.23 371.54,-260.07 371,-247.75 370.34,-232.78 370.61,-215.89 371.04,-202.93"/>
<polygon fill="#63b8ff" stroke="#63b8ff" points="374.53,-203.13 371.43,-193 367.54,-202.86 374.53,-203.13"/>
</a>
</g>
</g>
<!-- Node15 -->
<g id="Node000015" class="node">
<title>Node15</title>
<g id="a_Node000015"><a xlink:href="../../d2/d0c/fx_8h.html" target="_top" xlink:title=" ">
<polygon fill="#fff0f0" stroke="red" points="427.75,-247.75 380.25,-247.75 380.25,-227 427.75,-227 427.75,-247.75"/>
<text text-anchor="middle" x="404" y="-234.25" font-family="Helvetica,sans-Serif" font-size="10.00">fx/fx.h</text>
</a>
</g>
</g>
<!-- Node9&#45;&gt;Node15 -->
<g id="edge24_Node000009_Node000015" class="edge">
<title>Node9&#45;&gt;Node15</title>
<g id="a_edge24_Node000009_Node000015"><a xlink:title=" ">
<path fill="none" stroke="#63b8ff" d="M380.18,-283.34C383.9,-276.33 389.02,-266.66 393.56,-258.08"/>
<polygon fill="#63b8ff" stroke="#63b8ff" points="396.56,-259.89 398.15,-249.42 390.38,-256.61 396.56,-259.89"/>
</a>
</g>
</g>
<!-- Node10&#45;&gt;Node2 -->
<g id="edge21_Node000010_Node000002" class="edge">
<title>Node10&#45;&gt;Node2</title>
<g id="a_edge21_Node000010_Node000002"><a xlink:title=" ">
<path fill="none" stroke="#63b8ff" d="M403.11,-172.14C433.36,-164.37 480.28,-151.02 519,-134.25 582.84,-106.6 593.42,-89.11 655,-56.75 675.42,-46.02 698.78,-34.74 717.1,-26.11"/>
<polygon fill="#63b8ff" stroke="#63b8ff" points="718.57,-29.29 726.14,-21.88 715.6,-22.95 718.57,-29.29"/>
</a>
</g>
</g>
<!-- Node10&#45;&gt;Node4 -->
<g id="edge23_Node000010_Node000004" class="edge">
<title>Node10&#45;&gt;Node4</title>
<g id="a_edge23_Node000010_Node000004"><a xlink:title=" ">
<path fill="none" stroke="#63b8ff" d="M369.73,-170.1C363.44,-143.62 345.62,-68.68 336.91,-32.05"/>
<polygon fill="#63b8ff" stroke="#63b8ff" points="340.41,-31.61 334.69,-22.69 333.6,-33.23 340.41,-31.61"/>
</a>
</g>
</g>
<!-- Node10&#45;&gt;Node5 -->
<g id="edge22_Node000010_Node000005" class="edge">
<title>Node10&#45;&gt;Node5</title>
<g id="a_edge22_Node000010_Node000005"><a xlink:title=" ">
<path fill="none" stroke="#63b8ff" d="M361.81,-169.84C353.87,-162.21 342.63,-151.42 333.16,-142.32"/>
<polygon fill="#63b8ff" stroke="#63b8ff" points="335.83,-140.03 326.19,-135.63 330.98,-145.08 335.83,-140.03"/>
</a>
</g>
</g>
<!-- Node15&#45;&gt;Node2 -->
<g id="edge25_Node000015_Node000002" class="edge">
<title>Node15&#45;&gt;Node2</title>
<g id="a_edge25_Node000015_Node000002"><a xlink:title=" ">
<path fill="none" stroke="#63b8ff" d="M428.07,-233.26C461.53,-228.19 523.27,-216.06 570,-191 637.59,-154.75 647.98,-133.86 700,-77.5 713.75,-62.61 727.3,-43.92 736.66,-30.21"/>
<polygon fill="#63b8ff" stroke="#63b8ff" points="739.43,-32.36 742.09,-22.1 733.62,-28.47 739.43,-32.36"/>
</a>
</g>
</g>
<!-- Node15&#45;&gt;Node4 -->
<g id="edge26_Node000015_Node000004" class="edge">
<title>Node15&#45;&gt;Node4</title>
<g id="a_edge26_Node000015_Node000004"><a xlink:title=" ">
<path fill="none" stroke="#63b8ff" d="M380.45,-226.61C335.81,-206.54 240.54,-155.89 209,-77.5 195.86,-44.85 237.18,-27.97 275.41,-19.47"/>
<polygon fill="#63b8ff" stroke="#63b8ff" points="276.01,-22.92 285.11,-17.49 274.61,-16.06 276.01,-22.92"/>
</a>
</g>
</g>
<!-- Node15&#45;&gt;Node5 -->
<g id="edge27_Node000015_Node000005" class="edge">
<title>Node15&#45;&gt;Node5</title>
<g id="a_edge27_Node000015_Node000005"><a xlink:title=" ">
<path fill="none" stroke="#63b8ff" d="M379.87,-226.84C364,-219.37 344.01,-207.47 332,-191 322.38,-177.8 318.19,-159.65 316.37,-145.7"/>
<polygon fill="#63b8ff" stroke="#63b8ff" points="319.86,-145.47 315.43,-135.85 312.9,-146.14 319.86,-145.47"/>
</a>
</g>
</g>
<!-- Node15&#45;&gt;Node22 -->
<g id="edge28_Node000015_Node000022" class="edge">
<title>Node15&#45;&gt;Node22</title>
<g id="a_edge28_Node000015_Node000022"><a xlink:title=" ">
<path fill="none" stroke="#63b8ff" d="M427.96,-226.59C449.24,-217.89 480.57,-205.09 504.36,-195.37"/>
<polygon fill="#63b8ff" stroke="#63b8ff" points="505.37,-198.74 513.3,-191.72 502.72,-192.26 505.37,-198.74"/>
</a>
</g>
</g>
<!-- Node22&#45;&gt;Node2 -->
<g id="edge29_Node000022_Node000002" class="edge">
<title>Node22&#45;&gt;Node2</title>
<g id="a_edge29_Node000022_Node000002"><a xlink:title=" ">
<path fill="none" stroke="#63b8ff" d="M553.25,-169.77C566.82,-160.85 587.1,-147.17 604,-134.25 650.87,-98.42 703,-52.71 730.18,-28.39"/>
<polygon fill="#63b8ff" stroke="#63b8ff" points="732.17,-31.3 737.27,-22.02 727.49,-26.1 732.17,-31.3"/>
</a>
</g>
</g>
<!-- Node22&#45;&gt;Node4 -->
<g id="edge32_Node000022_Node000004" class="edge">
<title>Node22&#45;&gt;Node4</title>
<g id="a_edge32_Node000022_Node000004"><a xlink:title=" ">
<path fill="none" stroke="#63b8ff" d="M549.61,-169.75C574.34,-147.58 627.51,-92.93 597,-56.75 570.88,-25.78 458.34,-15.95 388.59,-12.83"/>
<polygon fill="#63b8ff" stroke="#63b8ff" points="389.01,-9.34 378.87,-12.43 388.72,-16.33 389.01,-9.34"/>
</a>
</g>
</g>
<!-- Node22&#45;&gt;Node5 -->
<g id="edge30_Node000022_Node000005" class="edge">
<title>Node22&#45;&gt;Node5</title>
<g id="a_edge30_Node000022_Node000005"><a xlink:title=" ">
<path fill="none" stroke="#63b8ff" d="M514.56,-173.87C475.18,-164.2 395.56,-144.65 349.69,-133.39"/>
<polygon fill="#63b8ff" stroke="#63b8ff" points="350.82,-130.06 340.27,-131.08 349.15,-136.86 350.82,-130.06"/>
</a>
</g>
</g>
<!-- Node22&#45;&gt;Node7 -->
<g id="edge31_Node000022_Node000007" class="edge">
<title>Node22&#45;&gt;Node7</title>
<g id="a_edge31_Node000022_Node000007"><a xlink:title=" ">
<path fill="none" stroke="#63b8ff" d="M537.4,-170.12C536.28,-152.27 533.84,-113.36 532.32,-89.09"/>
<polygon fill="#63b8ff" stroke="#63b8ff" points="535.83,-89.2 531.71,-79.44 528.84,-89.64 535.83,-89.2"/>
</a>
</g>
</g>
<!-- Node28&#45;&gt;Node2 -->
<g id="edge34_Node000028_Node000002" class="edge">
<title>Node28&#45;&gt;Node2</title>
<g id="a_edge34_Node000028_Node000002"><a xlink:title=" ">
<path fill="none" stroke="#63b8ff" d="M486.49,-173.06C533.29,-162.78 618.67,-143.13 630,-134.25 660.84,-110.09 644.8,-84.94 672,-56.75 684.22,-44.08 700.74,-33.73 715.34,-26.13"/>
<polygon fill="#63b8ff" stroke="#63b8ff" points="716.77,-29.32 724.18,-21.76 713.67,-23.05 716.77,-29.32"/>
</a>
</g>
</g>
<!-- Node28&#45;&gt;Node4 -->
<g id="edge38_Node000028_Node000004" class="edge">
<title>Node28&#45;&gt;Node4</title>
<g id="a_edge38_Node000028_Node000004"><a xlink:title=" ">
<path fill="none" stroke="#63b8ff" d="M448.98,-170.1C429.12,-143.16 372.3,-66.06 345.85,-30.17"/>
<polygon fill="#63b8ff" stroke="#63b8ff" points="348.9,-28.41 340.15,-22.44 343.27,-32.56 348.9,-28.41"/>
</a>
</g>
</g>
<!-- Node28&#45;&gt;Node5 -->
<g id="edge35_Node000028_Node000005" class="edge">
<title>Node28&#45;&gt;Node5</title>
<g id="a_edge35_Node000028_Node000005"><a xlink:title=" ">
<path fill="none" stroke="#63b8ff" d="M430.79,-169.84C408.02,-161 374.32,-147.91 349.14,-138.13"/>
<polygon fill="#63b8ff" stroke="#63b8ff" points="350.58,-134.94 339.99,-134.58 348.05,-141.46 350.58,-134.94"/>
</a>
</g>
</g>
<!-- Node29 -->
<g id="Node000029" class="node">
<title>Node29</title>
<g id="a_Node000029"><a xlink:href="../../da/d05/callback_8h.html" target="_top" xlink:title=" ">
<polygon fill="white" stroke="#666666" points="510.25,-134.25 435.75,-134.25 435.75,-113.5 510.25,-113.5 510.25,-134.25"/>
<text text-anchor="middle" x="473" y="-120.75" font-family="Helvetica,sans-Serif" font-size="10.00">fl/callback.h</text>
</a>
</g>
</g>
<!-- Node28&#45;&gt;Node29 -->
<g id="edge36_Node000028_Node000029" class="edge">
<title>Node28&#45;&gt;Node29</title>
<g id="a_edge36_Node000028_Node000029"><a xlink:title=" ">
<path fill="none" stroke="#63b8ff" d="M459.04,-169.84C461.14,-163.06 464.02,-153.8 466.61,-145.44"/>
<polygon fill="#63b8ff" stroke="#63b8ff" points="469.92,-146.61 469.54,-136.02 463.23,-144.54 469.92,-146.61"/>
</a>
</g>
</g>
<!-- Node29&#45;&gt;Node4 -->
<g id="edge37_Node000029_Node000004" class="edge">
<title>Node29&#45;&gt;Node4</title>
<g id="a_edge37_Node000029_Node000004"><a xlink:title=" ">
<path fill="none" stroke="#63b8ff" d="M467.5,-113.25C459.16,-99.31 442.12,-73.37 422,-56.75 406.25,-43.74 386.14,-33.16 368.93,-25.49"/>
<polygon fill="#63b8ff" stroke="#63b8ff" points="370.62,-22.41 360.04,-21.7 367.87,-28.85 370.62,-22.41"/>
</a>
</g>
</g>
</g>
</svg>
