<?xml version="1.0" encoding="UTF-8" standalone="no"?>
<!DOCTYPE svg PUBLIC "-//W3C//DTD SVG 1.1//EN"
 "http://www.w3.org/Graphics/SVG/1.1/DTD/svg11.dtd">
<!-- Generated by graphviz version 12.2.1 (20241206.2353)
 -->
<!-- Title: /home/runner/work/FastLED/FastLED/src/fx/2d/scale_up.h Pages: 1 -->
<svg width="1710pt" height="439pt"
 viewBox="0.00 0.00 1710.00 438.75" xmlns="http://www.w3.org/2000/svg" xmlns:xlink="http://www.w3.org/1999/xlink">
<g id="graph0" class="graph" transform="scale(1 1) rotate(0) translate(4 434.75)">
<title>/home/runner/work/FastLED/FastLED/src/fx/2d/scale_up.h</title>
<!-- Node1 -->
<g id="Node000001" class="node">
<title>Node1</title>
<g id="a_Node000001"><a xlink:title="Expands a grid using bilinear interpolation and scaling up.">
<polygon fill="#999999" stroke="#666666" points="610.5,-430.75 453.5,-430.75 453.5,-397.25 610.5,-397.25 610.5,-430.75"/>
<text text-anchor="start" x="461.5" y="-417.25" font-family="Helvetica,sans-Serif" font-size="10.00">/home/runner/work/FastLED</text>
<text text-anchor="middle" x="532" y="-404.5" font-family="Helvetica,sans-Serif" font-size="10.00">/FastLED/src/fx/2d/scale_up.h</text>
</a>
</g>
</g>
<!-- Node2 -->
<g id="Node000002" class="node">
<title>Node2</title>
<g id="a_Node000002"><a xlink:title=" ">
<polygon fill="#e0e0e0" stroke="#999999" points="1258.38,-20.75 1205.62,-20.75 1205.62,0 1258.38,0 1258.38,-20.75"/>
<text text-anchor="middle" x="1232" y="-7.25" font-family="Helvetica,sans-Serif" font-size="10.00">stdint.h</text>
</a>
</g>
</g>
<!-- Node1&#45;&gt;Node2 -->
<g id="edge1_Node000001_Node000002" class="edge">
<title>Node1&#45;&gt;Node2</title>
<g id="a_edge1_Node000001_Node000002"><a xlink:title=" ">
<path fill="none" stroke="#63b8ff" d="M610.99,-412.84C849.32,-411.86 1550.6,-405.25 1643,-361.25 1678.56,-344.32 1702,-334.51 1702,-295.12 1702,-295.12 1702,-295.12 1702,-122.88 1702,-34.27 1381.8,-15.97 1269.98,-12.28"/>
<polygon fill="#63b8ff" stroke="#63b8ff" points="1270.23,-8.79 1260.13,-11.98 1270.02,-15.79 1270.23,-8.79"/>
</a>
</g>
</g>
<!-- Node3 -->
<g id="Node000003" class="node">
<title>Node3</title>
<g id="a_Node000003"><a xlink:href="../../da/d34/bilinear__expansion_8h.html" target="_top" xlink:title="Demonstrates how to mix noise generation with color palettes on a 2D LED matrix.">
<polygon fill="white" stroke="#666666" points="436.62,-361.25 319.38,-361.25 319.38,-340.5 436.62,-340.5 436.62,-361.25"/>
<text text-anchor="middle" x="378" y="-347.75" font-family="Helvetica,sans-Serif" font-size="10.00">bilinear_expansion.h</text>
</a>
</g>
</g>
<!-- Node1&#45;&gt;Node3 -->
<g id="edge2_Node000001_Node000003" class="edge">
<title>Node1&#45;&gt;Node3</title>
<g id="a_edge2_Node000001_Node000003"><a xlink:title=" ">
<path fill="none" stroke="#63b8ff" d="M491.14,-396.78C466.83,-387.13 436.3,-375.02 413.09,-365.8"/>
<polygon fill="#63b8ff" stroke="#63b8ff" points="414.66,-362.66 404.07,-362.22 412.08,-369.17 414.66,-362.66"/>
</a>
</g>
</g>
<!-- Node11 -->
<g id="Node000011" class="node">
<title>Node11</title>
<g id="a_Node000011"><a xlink:href="../../d6/dc9/fl_2xymap_8h.html" target="_top" xlink:title=" ">
<polygon fill="white" stroke="#666666" points="337.88,-304.5 270.12,-304.5 270.12,-283.75 337.88,-283.75 337.88,-304.5"/>
<text text-anchor="middle" x="304" y="-291" font-family="Helvetica,sans-Serif" font-size="10.00">fl/xymap.h</text>
</a>
</g>
</g>
<!-- Node1&#45;&gt;Node11 -->
<g id="edge76_Node000001_Node000011" class="edge">
<title>Node1&#45;&gt;Node11</title>
<g id="a_edge76_Node000001_Node000011"><a xlink:title=" ">
<path fill="none" stroke="#63b8ff" d="M453.03,-404.38C397.08,-396.53 328.77,-382.82 310,-361.25 299.35,-349.01 298.6,-330.24 300.08,-315.82"/>
<polygon fill="#63b8ff" stroke="#63b8ff" points="303.52,-316.44 301.54,-306.04 296.6,-315.41 303.52,-316.44"/>
</a>
</g>
</g>
<!-- Node14 -->
<g id="Node000014" class="node">
<title>Node14</title>
<g id="a_Node000014"><a xlink:href="../../d7/df1/fl_2ptr_8h.html" target="_top" xlink:title=" ">
<polygon fill="#fff0f0" stroke="red" points="448.38,-134.25 401.62,-134.25 401.62,-113.5 448.38,-113.5 448.38,-134.25"/>
<text text-anchor="middle" x="425" y="-120.75" font-family="Helvetica,sans-Serif" font-size="10.00">fl/ptr.h</text>
</a>
</g>
</g>
<!-- Node1&#45;&gt;Node14 -->
<g id="edge41_Node000001_Node000014" class="edge">
<title>Node1&#45;&gt;Node14</title>
<g id="a_edge41_Node000001_Node000014"><a xlink:title=" ">
<path fill="none" stroke="#63b8ff" d="M517.32,-396.79C509.18,-387.07 499.43,-374.13 493,-361.25 455.67,-286.46 435.67,-187.84 428.32,-145.56"/>
<polygon fill="#63b8ff" stroke="#63b8ff" points="431.8,-145.12 426.69,-135.83 424.89,-146.27 431.8,-145.12"/>
</a>
</g>
</g>
<!-- Node19 -->
<g id="Node000019" class="node">
<title>Node19</title>
<g id="a_Node000019"><a xlink:href="../../d9/d43/fx2d_8h.html" target="_top" xlink:title=" ">
<polygon fill="white" stroke="#666666" points="561.75,-361.25 502.25,-361.25 502.25,-340.5 561.75,-340.5 561.75,-361.25"/>
<text text-anchor="middle" x="532" y="-347.75" font-family="Helvetica,sans-Serif" font-size="10.00">fx/fx2d.h</text>
</a>
</g>
</g>
<!-- Node1&#45;&gt;Node19 -->
<g id="edge42_Node000001_Node000019" class="edge">
<title>Node1&#45;&gt;Node19</title>
<g id="a_edge42_Node000001_Node000019"><a xlink:title=" ">
<path fill="none" stroke="#63b8ff" d="M532,-396.94C532,-389.6 532,-380.82 532,-372.96"/>
<polygon fill="#63b8ff" stroke="#63b8ff" points="535.5,-373.23 532,-363.23 528.5,-373.23 535.5,-373.23"/>
</a>
</g>
</g>
<!-- Node29 -->
<g id="Node000029" class="node">
<title>Node29</title>
<g id="a_Node000029"><a xlink:href="../../d9/dfa/random8_8h.html" target="_top" xlink:title="Fast, efficient random number generators specifically designed for high&#45;performance LED programming.">
<polygon fill="white" stroke="#666666" points="1634.12,-361.25 1525.88,-361.25 1525.88,-340.5 1634.12,-340.5 1634.12,-361.25"/>
<text text-anchor="middle" x="1580" y="-347.75" font-family="Helvetica,sans-Serif" font-size="10.00">lib8tion/random8.h</text>
</a>
</g>
</g>
<!-- Node1&#45;&gt;Node29 -->
<g id="edge66_Node000001_Node000029" class="edge">
<title>Node1&#45;&gt;Node29</title>
<g id="a_edge66_Node000001_Node000029"><a xlink:title=" ">
<path fill="none" stroke="#63b8ff" d="M610.92,-411.09C777.65,-406.55 1177.87,-393.05 1512,-361.25 1512.69,-361.18 1513.38,-361.12 1514.07,-361.05"/>
<polygon fill="#63b8ff" stroke="#63b8ff" points="1514.42,-364.53 1523.98,-359.97 1513.66,-357.57 1514.42,-364.53"/>
</a>
</g>
</g>
<!-- Node31 -->
<g id="Node000031" class="node">
<title>Node31</title>
<g id="a_Node000031"><a xlink:href="../../d1/d31/noise_8h.html" target="_top" xlink:title="Functions to generate and fill arrays with noise.">
<polygon fill="white" stroke="#666666" points="1151.62,-191 1100.38,-191 1100.38,-170.25 1151.62,-170.25 1151.62,-191"/>
<text text-anchor="middle" x="1126" y="-177.5" font-family="Helvetica,sans-Serif" font-size="10.00">noise.h</text>
</a>
</g>
</g>
<!-- Node1&#45;&gt;Node31 -->
<g id="edge69_Node000001_Node000031" class="edge">
<title>Node1&#45;&gt;Node31</title>
<g id="a_edge69_Node000001_Node000031"><a xlink:title=" ">
<path fill="none" stroke="#63b8ff" d="M573.3,-396.91C683.98,-353.8 985.89,-236.2 1090.08,-195.62"/>
<polygon fill="#63b8ff" stroke="#63b8ff" points="1091.21,-198.93 1099.25,-192.04 1088.66,-192.41 1091.21,-198.93"/>
</a>
</g>
</g>
<!-- Node3&#45;&gt;Node2 -->
<g id="edge3_Node000003_Node000002" class="edge">
<title>Node3&#45;&gt;Node2</title>
<g id="a_edge3_Node000003_Node000002"><a xlink:title=" ">
<path fill="none" stroke="#63b8ff" d="M436.93,-344.56C626.34,-327.32 1212.02,-272.57 1294,-247.75 1355.29,-229.2 1422,-245.66 1422,-181.62 1422,-181.62 1422,-181.62 1422,-122.88 1422,-53.07 1325.42,-26.12 1269.98,-16.41"/>
<polygon fill="#63b8ff" stroke="#63b8ff" points="1270.75,-12.99 1260.31,-14.83 1269.62,-19.89 1270.75,-12.99"/>
</a>
</g>
</g>
<!-- Node4 -->
<g id="Node000004" class="node">
<title>Node4</title>
<g id="a_Node000004"><a xlink:href="../../db/dd1/crgb_8h.html" target="_top" xlink:title="Defines the red, green, and blue (RGB) pixel struct.">
<polygon fill="white" stroke="#666666" points="752,-134.25 706,-134.25 706,-113.5 752,-113.5 752,-134.25"/>
<text text-anchor="middle" x="729" y="-120.75" font-family="Helvetica,sans-Serif" font-size="10.00">crgb.h</text>
</a>
</g>
</g>
<!-- Node3&#45;&gt;Node4 -->
<g id="edge4_Node000003_Node000004" class="edge">
<title>Node3&#45;&gt;Node4</title>
<g id="a_edge4_Node000003_Node000004"><a xlink:title=" ">
<path fill="none" stroke="#63b8ff" d="M406.65,-340.11C463.91,-319.56 594.49,-267.33 682,-191 697.23,-177.72 710.14,-158.56 718.56,-144.28"/>
<polygon fill="#63b8ff" stroke="#63b8ff" points="721.48,-146.24 723.34,-135.81 715.38,-142.8 721.48,-146.24"/>
</a>
</g>
</g>
<!-- Node6 -->
<g id="Node000006" class="node">
<title>Node6</title>
<g id="a_Node000006"><a xlink:href="../../df/d2a/namespace_8h.html" target="_top" xlink:title="Implements the FastLED namespace macros.">
<polygon fill="white" stroke="#666666" points="459.12,-20.75 368.88,-20.75 368.88,0 459.12,0 459.12,-20.75"/>
<text text-anchor="middle" x="414" y="-7.25" font-family="Helvetica,sans-Serif" font-size="10.00">fl/namespace.h</text>
</a>
</g>
</g>
<!-- Node3&#45;&gt;Node6 -->
<g id="edge19_Node000003_Node000006" class="edge">
<title>Node3&#45;&gt;Node6</title>
<g id="a_edge19_Node000003_Node000006"><a xlink:title=" ">
<path fill="none" stroke="#63b8ff" d="M318.94,-344.77C212.62,-333.94 0,-304.06 0,-238.38 0,-238.38 0,-238.38 0,-122.88 0,-83.49 24.15,-75.1 59,-56.75 109.46,-30.18 270.08,-18.38 356.94,-13.84"/>
<polygon fill="#63b8ff" stroke="#63b8ff" points="357.11,-17.33 366.92,-13.33 356.75,-10.34 357.11,-17.33"/>
</a>
</g>
</g>
<!-- Node3&#45;&gt;Node11 -->
<g id="edge20_Node000003_Node000011" class="edge">
<title>Node3&#45;&gt;Node11</title>
<g id="a_edge20_Node000003_Node000011"><a xlink:title=" ">
<path fill="none" stroke="#63b8ff" d="M364.77,-340.09C354.04,-332.15 338.68,-320.78 326.08,-311.46"/>
<polygon fill="#63b8ff" stroke="#63b8ff" points="328.45,-308.86 318.33,-305.73 324.29,-314.49 328.45,-308.86"/>
</a>
</g>
</g>
<!-- Node4&#45;&gt;Node2 -->
<g id="edge5_Node000004_Node000002" class="edge">
<title>Node4&#45;&gt;Node2</title>
<g id="a_edge5_Node000004_Node000002"><a xlink:title=" ">
<path fill="none" stroke="#63b8ff" d="M752.44,-117.5C782.76,-110.19 836.9,-95.88 881,-77.5 898.76,-70.1 900.75,-62.84 919,-56.75 1014.71,-24.83 1134.28,-15.36 1194.15,-12.55"/>
<polygon fill="#63b8ff" stroke="#63b8ff" points="1193.95,-16.06 1203.79,-12.14 1193.65,-9.07 1193.95,-16.06"/>
</a>
</g>
</g>
<!-- Node5 -->
<g id="Node000005" class="node">
<title>Node5</title>
<g id="a_Node000005"><a xlink:href="../../d8/dd0/chsv_8h.html" target="_top" xlink:title="Defines the hue, saturation, and value (HSV) pixel struct.">
<polygon fill="white" stroke="#666666" points="872.38,-77.5 825.62,-77.5 825.62,-56.75 872.38,-56.75 872.38,-77.5"/>
<text text-anchor="middle" x="849" y="-64" font-family="Helvetica,sans-Serif" font-size="10.00">chsv.h</text>
</a>
</g>
</g>
<!-- Node4&#45;&gt;Node5 -->
<g id="edge6_Node000004_Node000005" class="edge">
<title>Node4&#45;&gt;Node5</title>
<g id="a_edge6_Node000004_Node000005"><a xlink:title=" ">
<path fill="none" stroke="#63b8ff" d="M750.45,-113.09C769.05,-104.6 796.22,-92.2 817.33,-82.58"/>
<polygon fill="#63b8ff" stroke="#63b8ff" points="818.71,-85.79 826.36,-78.46 815.8,-79.42 818.71,-85.79"/>
</a>
</g>
</g>
<!-- Node4&#45;&gt;Node6 -->
<g id="edge9_Node000004_Node000006" class="edge">
<title>Node4&#45;&gt;Node6</title>
<g id="a_edge9_Node000004_Node000006"><a xlink:title=" ">
<path fill="none" stroke="#63b8ff" d="M706.43,-113.01C675.04,-99.47 616.27,-74.75 565,-56.75 530.53,-44.65 490.97,-32.84 460.98,-24.3"/>
<polygon fill="#63b8ff" stroke="#63b8ff" points="462.02,-20.95 451.45,-21.6 460.12,-27.69 462.02,-20.95"/>
</a>
</g>
</g>
<!-- Node7 -->
<g id="Node000007" class="node">
<title>Node7</title>
<g id="a_Node000007"><a xlink:href="../../d2/d6b/src_2color_8h.html" target="_top" xlink:title="Contains definitions for color correction and temperature.">
<polygon fill="white" stroke="#666666" points="698.12,-77.5 649.88,-77.5 649.88,-56.75 698.12,-56.75 698.12,-77.5"/>
<text text-anchor="middle" x="674" y="-64" font-family="Helvetica,sans-Serif" font-size="10.00">color.h</text>
</a>
</g>
</g>
<!-- Node4&#45;&gt;Node7 -->
<g id="edge10_Node000004_Node000007" class="edge">
<title>Node4&#45;&gt;Node7</title>
<g id="a_edge10_Node000004_Node000007"><a xlink:title=" ">
<path fill="none" stroke="#63b8ff" d="M719.17,-113.09C711.58,-105.53 700.88,-94.89 691.8,-85.85"/>
<polygon fill="#63b8ff" stroke="#63b8ff" points="694.38,-83.47 684.82,-78.9 689.44,-88.43 694.38,-83.47"/>
</a>
</g>
</g>
<!-- Node8 -->
<g id="Node000008" class="node">
<title>Node8</title>
<g id="a_Node000008"><a xlink:href="../../d9/ddf/lib8tion_2types_8h.html" target="_top" xlink:title="Defines fractional types used for lib8tion functions.">
<polygon fill="white" stroke="#666666" points="807.88,-77.5 716.12,-77.5 716.12,-56.75 807.88,-56.75 807.88,-77.5"/>
<text text-anchor="middle" x="762" y="-64" font-family="Helvetica,sans-Serif" font-size="10.00">lib8tion/types.h</text>
</a>
</g>
</g>
<!-- Node4&#45;&gt;Node8 -->
<g id="edge12_Node000004_Node000008" class="edge">
<title>Node4&#45;&gt;Node8</title>
<g id="a_edge12_Node000004_Node000008"><a xlink:title=" ">
<path fill="none" stroke="#63b8ff" d="M734.9,-113.09C739.17,-106 745.08,-96.19 750.3,-87.54"/>
<polygon fill="#63b8ff" stroke="#63b8ff" points="753.21,-89.5 755.37,-79.12 747.21,-85.88 753.21,-89.5"/>
</a>
</g>
</g>
<!-- Node9 -->
<g id="Node000009" class="node">
<title>Node9</title>
<g id="a_Node000009"><a xlink:href="../../d8/d2d/fl_2force__inline_8h.html" target="_top" xlink:title=" ">
<polygon fill="white" stroke="#666666" points="233.5,-77.5 142.5,-77.5 142.5,-56.75 233.5,-56.75 233.5,-77.5"/>
<text text-anchor="middle" x="188" y="-64" font-family="Helvetica,sans-Serif" font-size="10.00">fl/force_inline.h</text>
</a>
</g>
</g>
<!-- Node4&#45;&gt;Node9 -->
<g id="edge15_Node000004_Node000009" class="edge">
<title>Node4&#45;&gt;Node9</title>
<g id="a_edge15_Node000004_Node000009"><a xlink:title=" ">
<path fill="none" stroke="#63b8ff" d="M705.75,-120.52C625.99,-112.45 361.93,-85.73 244.8,-73.87"/>
<polygon fill="#63b8ff" stroke="#63b8ff" points="245.41,-70.42 235.11,-72.89 244.7,-77.38 245.41,-70.42"/>
</a>
</g>
</g>
<!-- Node10 -->
<g id="Node000010" class="node">
<title>Node10</title>
<g id="a_Node000010"><a xlink:href="../../d8/d0c/template__magic_8h.html" target="_top" xlink:title=" ">
<polygon fill="white" stroke="#666666" points="555.75,-77.5 442.25,-77.5 442.25,-56.75 555.75,-56.75 555.75,-77.5"/>
<text text-anchor="middle" x="499" y="-64" font-family="Helvetica,sans-Serif" font-size="10.00">fl/template_magic.h</text>
</a>
</g>
</g>
<!-- Node4&#45;&gt;Node10 -->
<g id="edge16_Node000004_Node000010" class="edge">
<title>Node4&#45;&gt;Node10</title>
<g id="a_edge16_Node000004_Node000010"><a xlink:title=" ">
<path fill="none" stroke="#63b8ff" d="M705.68,-117.32C669.66,-108.75 599.57,-92.07 551.07,-80.52"/>
<polygon fill="#63b8ff" stroke="#63b8ff" points="552.17,-77.18 541.63,-78.27 550.55,-83.99 552.17,-77.18"/>
</a>
</g>
</g>
<!-- Node5&#45;&gt;Node2 -->
<g id="edge7_Node000005_Node000002" class="edge">
<title>Node5&#45;&gt;Node2</title>
<g id="a_edge7_Node000005_Node000002"><a xlink:title=" ">
<path fill="none" stroke="#63b8ff" d="M872.79,-59.66C877.16,-58.59 881.7,-57.57 886,-56.75 997.19,-35.45 1130.41,-21.07 1194.26,-14.85"/>
<polygon fill="#63b8ff" stroke="#63b8ff" points="1194.22,-18.37 1203.84,-13.93 1193.56,-11.41 1194.22,-18.37"/>
</a>
</g>
</g>
<!-- Node5&#45;&gt;Node6 -->
<g id="edge8_Node000005_Node000006" class="edge">
<title>Node5&#45;&gt;Node6</title>
<g id="a_edge8_Node000005_Node000006"><a xlink:title=" ">
<path fill="none" stroke="#63b8ff" d="M825.35,-58.7C822.55,-57.97 819.72,-57.3 817,-56.75 694.8,-32.16 548.87,-19.88 470.49,-14.64"/>
<polygon fill="#63b8ff" stroke="#63b8ff" points="471.14,-11.18 460.93,-14.02 470.68,-18.16 471.14,-11.18"/>
</a>
</g>
</g>
<!-- Node7&#45;&gt;Node6 -->
<g id="edge11_Node000007_Node000006" class="edge">
<title>Node7&#45;&gt;Node6</title>
<g id="a_edge11_Node000007_Node000006"><a xlink:title=" ">
<path fill="none" stroke="#63b8ff" d="M649.54,-60.97C608.86,-52.41 526.26,-35.01 470.51,-23.27"/>
<polygon fill="#63b8ff" stroke="#63b8ff" points="471.38,-19.88 460.87,-21.25 469.94,-26.73 471.38,-19.88"/>
</a>
</g>
</g>
<!-- Node8&#45;&gt;Node2 -->
<g id="edge13_Node000008_Node000002" class="edge">
<title>Node8&#45;&gt;Node2</title>
<g id="a_edge13_Node000008_Node000002"><a xlink:title=" ">
<path fill="none" stroke="#63b8ff" d="M808.18,-58.05C811.16,-57.59 814.12,-57.15 817,-56.75 955.37,-37.41 1120.66,-21.47 1193.88,-14.77"/>
<polygon fill="#63b8ff" stroke="#63b8ff" points="1194.08,-18.27 1203.72,-13.88 1193.44,-11.3 1194.08,-18.27"/>
</a>
</g>
</g>
<!-- Node8&#45;&gt;Node6 -->
<g id="edge14_Node000008_Node000006" class="edge">
<title>Node8&#45;&gt;Node6</title>
<g id="a_edge14_Node000008_Node000006"><a xlink:title=" ">
<path fill="none" stroke="#63b8ff" d="M715.79,-58.2C712.82,-57.7 709.87,-57.22 707,-56.75 624.84,-43.39 529.55,-28.8 470.52,-19.87"/>
<polygon fill="#63b8ff" stroke="#63b8ff" points="471.12,-16.42 460.7,-18.38 470.07,-23.34 471.12,-16.42"/>
</a>
</g>
</g>
<!-- Node10&#45;&gt;Node2 -->
<g id="edge17_Node000010_Node000002" class="edge">
<title>Node10&#45;&gt;Node2</title>
<g id="a_edge17_Node000010_Node000002"><a xlink:title=" ">
<path fill="none" stroke="#63b8ff" d="M556.12,-61.07C572.84,-59.63 591.15,-58.09 608,-56.75 829.92,-39.14 1096.46,-20.64 1193.93,-13.97"/>
<polygon fill="#63b8ff" stroke="#63b8ff" points="1193.98,-17.47 1203.72,-13.3 1193.5,-10.49 1193.98,-17.47"/>
</a>
</g>
</g>
<!-- Node10&#45;&gt;Node6 -->
<g id="edge18_Node000010_Node000006" class="edge">
<title>Node10&#45;&gt;Node6</title>
<g id="a_edge18_Node000010_Node000006"><a xlink:title=" ">
<path fill="none" stroke="#63b8ff" d="M483.8,-56.34C471.23,-48.24 453.14,-36.58 438.52,-27.17"/>
<polygon fill="#63b8ff" stroke="#63b8ff" points="440.64,-24.37 430.34,-21.9 436.85,-30.26 440.64,-24.37"/>
</a>
</g>
</g>
<!-- Node11&#45;&gt;Node2 -->
<g id="edge21_Node000011_Node000002" class="edge">
<title>Node11&#45;&gt;Node2</title>
<g id="a_edge21_Node000011_Node000002"><a xlink:title=" ">
<path fill="none" stroke="#63b8ff" d="M338.11,-293.27C521.68,-293.6 1384,-289.42 1384,-181.62 1384,-181.62 1384,-181.62 1384,-122.88 1384,-66.3 1314.7,-35.29 1269.69,-21.12"/>
<polygon fill="#63b8ff" stroke="#63b8ff" points="1270.86,-17.81 1260.27,-18.31 1268.85,-24.52 1270.86,-17.81"/>
</a>
</g>
</g>
<!-- Node11&#45;&gt;Node4 -->
<g id="edge23_Node000011_Node000004" class="edge">
<title>Node11&#45;&gt;Node4</title>
<g id="a_edge23_Node000011_Node000004"><a xlink:title=" ">
<path fill="none" stroke="#63b8ff" d="M338.34,-288.11C403.14,-277.59 546.51,-249.23 653,-191 676.13,-178.35 698.37,-157.68 712.75,-142.81"/>
<polygon fill="#63b8ff" stroke="#63b8ff" points="715.29,-145.22 719.58,-135.53 710.19,-140.42 715.29,-145.22"/>
</a>
</g>
</g>
<!-- Node11&#45;&gt;Node6 -->
<g id="edge40_Node000011_Node000006" class="edge">
<title>Node11&#45;&gt;Node6</title>
<g id="a_edge40_Node000011_Node000006"><a xlink:title=" ">
<path fill="none" stroke="#63b8ff" d="M269.77,-293.82C197.93,-293.31 38,-281.02 38,-181.62 38,-181.62 38,-181.62 38,-122.88 38,-81.66 66.25,-75.39 103,-56.75 146.34,-34.77 279.91,-21.41 357.18,-15.32"/>
<polygon fill="#63b8ff" stroke="#63b8ff" points="357.4,-18.81 367.11,-14.55 356.87,-11.83 357.4,-18.81"/>
</a>
</g>
</g>
<!-- Node11&#45;&gt;Node9 -->
<g id="edge24_Node000011_Node000009" class="edge">
<title>Node11&#45;&gt;Node9</title>
<g id="a_edge24_Node000011_Node000009"><a xlink:title=" ">
<path fill="none" stroke="#63b8ff" d="M269.79,-285.09C245.27,-278.13 212.4,-266.21 188,-247.75 162.76,-228.66 155.08,-221 145,-191 132.59,-154.07 156.39,-111.16 173.26,-87.07"/>
<polygon fill="#63b8ff" stroke="#63b8ff" points="175.95,-89.32 179.05,-79.19 170.31,-85.18 175.95,-89.32"/>
</a>
</g>
</g>
<!-- Node12 -->
<g id="Node000012" class="node">
<title>Node12</title>
<g id="a_Node000012"><a xlink:title=" ">
<polygon fill="#e0e0e0" stroke="#999999" points="308.38,-134.25 255.62,-134.25 255.62,-113.5 308.38,-113.5 308.38,-134.25"/>
<text text-anchor="middle" x="282" y="-120.75" font-family="Helvetica,sans-Serif" font-size="10.00">string.h</text>
</a>
</g>
</g>
<!-- Node11&#45;&gt;Node12 -->
<g id="edge22_Node000011_Node000012" class="edge">
<title>Node11&#45;&gt;Node12</title>
<g id="a_edge22_Node000011_Node000012"><a xlink:title=" ">
<path fill="none" stroke="#63b8ff" d="M302.75,-283.6C299.31,-257.23 289.58,-182.83 284.77,-146.03"/>
<polygon fill="#63b8ff" stroke="#63b8ff" points="288.25,-145.68 283.48,-136.22 281.31,-146.59 288.25,-145.68"/>
</a>
</g>
</g>
<!-- Node13 -->
<g id="Node000013" class="node">
<title>Node13</title>
<g id="a_Node000013"><a xlink:href="../../d3/db6/fl_2lut_8h.html" target="_top" xlink:title=" ">
<polygon fill="#fff0f0" stroke="red" points="200.38,-191 153.62,-191 153.62,-170.25 200.38,-170.25 200.38,-191"/>
<text text-anchor="middle" x="177" y="-177.5" font-family="Helvetica,sans-Serif" font-size="10.00">fl/lut.h</text>
</a>
</g>
</g>
<!-- Node11&#45;&gt;Node13 -->
<g id="edge25_Node000011_Node000013" class="edge">
<title>Node11&#45;&gt;Node13</title>
<g id="a_edge25_Node000011_Node000013"><a xlink:title=" ">
<path fill="none" stroke="#63b8ff" d="M270,-284.41C248.95,-277.5 222.65,-265.92 205,-247.75 192.79,-235.17 185.54,-216.46 181.49,-202.15"/>
<polygon fill="#63b8ff" stroke="#63b8ff" points="184.99,-201.71 179.17,-192.86 178.2,-203.41 184.99,-201.71"/>
</a>
</g>
</g>
<!-- Node11&#45;&gt;Node14 -->
<g id="edge32_Node000011_Node000014" class="edge">
<title>Node11&#45;&gt;Node14</title>
<g id="a_edge32_Node000011_Node000014"><a xlink:title=" ">
<path fill="none" stroke="#63b8ff" d="M310.85,-283.6C330.23,-256.66 385.68,-179.56 411.48,-143.67"/>
<polygon fill="#63b8ff" stroke="#63b8ff" points="414.04,-146.11 417.04,-135.95 408.36,-142.02 414.04,-146.11"/>
</a>
</g>
</g>
<!-- Node18 -->
<g id="Node000018" class="node">
<title>Node18</title>
<g id="a_Node000018"><a xlink:href="../../d5/d22/fl_2xmap_8h.html" target="_top" xlink:title=" ">
<polygon fill="white" stroke="#666666" points="275.88,-247.75 214.12,-247.75 214.12,-227 275.88,-227 275.88,-247.75"/>
<text text-anchor="middle" x="245" y="-234.25" font-family="Helvetica,sans-Serif" font-size="10.00">fl/xmap.h</text>
</a>
</g>
</g>
<!-- Node11&#45;&gt;Node18 -->
<g id="edge33_Node000011_Node000018" class="edge">
<title>Node11&#45;&gt;Node18</title>
<g id="a_edge33_Node000011_Node000018"><a xlink:title=" ">
<path fill="none" stroke="#63b8ff" d="M293.45,-283.34C285.23,-275.71 273.6,-264.92 263.8,-255.82"/>
<polygon fill="#63b8ff" stroke="#63b8ff" points="266.28,-253.34 256.57,-249.11 261.52,-258.48 266.28,-253.34"/>
</a>
</g>
</g>
<!-- Node13&#45;&gt;Node2 -->
<g id="edge26_Node000013_Node000002" class="edge">
<title>Node13&#45;&gt;Node2</title>
<g id="a_edge26_Node000013_Node000002"><a xlink:title=" ">
<path fill="none" stroke="#63b8ff" d="M200.77,-171.57C240.34,-158.34 322.35,-131.67 393,-113.5 468.64,-94.05 489.07,-95.79 565,-77.5 599.04,-69.3 606.5,-62.73 641,-56.75 847.42,-20.98 1099.27,-13.41 1193.77,-11.8"/>
<polygon fill="#63b8ff" stroke="#63b8ff" points="1193.81,-15.3 1203.76,-11.65 1193.7,-8.3 1193.81,-15.3"/>
</a>
</g>
</g>
<!-- Node13&#45;&gt;Node6 -->
<g id="edge31_Node000013_Node000006" class="edge">
<title>Node13&#45;&gt;Node6</title>
<g id="a_edge31_Node000013_Node000006"><a xlink:title=" ">
<path fill="none" stroke="#63b8ff" d="M167.69,-169.85C147.44,-147.4 103.47,-91.43 133,-56.75 161.21,-23.62 283.55,-14.6 357.19,-12.2"/>
<polygon fill="#63b8ff" stroke="#63b8ff" points="357.16,-15.7 367.05,-11.91 356.95,-8.7 357.16,-15.7"/>
</a>
</g>
</g>
<!-- Node13&#45;&gt;Node9 -->
<g id="edge30_Node000013_Node000009" class="edge">
<title>Node13&#45;&gt;Node9</title>
<g id="a_edge30_Node000013_Node000009"><a xlink:title=" ">
<path fill="none" stroke="#63b8ff" d="M177.94,-170.12C179.7,-152.27 183.54,-113.36 185.93,-89.09"/>
<polygon fill="#63b8ff" stroke="#63b8ff" points="189.39,-89.73 186.88,-79.43 182.42,-89.04 189.39,-89.73"/>
</a>
</g>
</g>
<!-- Node13&#45;&gt;Node14 -->
<g id="edge27_Node000013_Node000014" class="edge">
<title>Node13&#45;&gt;Node14</title>
<g id="a_edge27_Node000013_Node000014"><a xlink:title=" ">
<path fill="none" stroke="#63b8ff" d="M200.8,-174.8C239.94,-166.8 320.32,-150.09 388,-134.25 388.67,-134.09 389.34,-133.94 390.01,-133.78"/>
<polygon fill="#63b8ff" stroke="#63b8ff" points="390.79,-137.19 399.68,-131.41 389.13,-130.39 390.79,-137.19"/>
</a>
</g>
</g>
<!-- Node14&#45;&gt;Node6 -->
<g id="edge28_Node000014_Node000006" class="edge">
<title>Node14&#45;&gt;Node6</title>
<g id="a_edge28_Node000014_Node000006"><a xlink:title=" ">
<path fill="none" stroke="#63b8ff" d="M401.44,-119.68C377.31,-115.01 341.02,-103.81 324,-77.5 308.94,-54.23 338.76,-36.33 368.04,-25.06"/>
<polygon fill="#63b8ff" stroke="#63b8ff" points="369.07,-28.41 377.29,-21.72 366.69,-21.82 369.07,-28.41"/>
</a>
</g>
</g>
<!-- Node14&#45;&gt;Node10 -->
<g id="edge29_Node000014_Node000010" class="edge">
<title>Node14&#45;&gt;Node10</title>
<g id="a_edge29_Node000014_Node000010"><a xlink:title=" ">
<path fill="none" stroke="#63b8ff" d="M438.23,-113.09C448.96,-105.15 464.32,-93.78 476.92,-84.46"/>
<polygon fill="#63b8ff" stroke="#63b8ff" points="478.71,-87.49 484.67,-78.73 474.55,-81.86 478.71,-87.49"/>
</a>
</g>
</g>
<!-- Node18&#45;&gt;Node2 -->
<g id="edge34_Node000018_Node000002" class="edge">
<title>Node18&#45;&gt;Node2</title>
<g id="a_edge34_Node000018_Node000002"><a xlink:title=" ">
<path fill="none" stroke="#63b8ff" d="M276.22,-235.66C426.82,-232.12 1074.46,-215.56 1161,-191 1211.28,-176.73 1236.24,-178.53 1264,-134.25 1282.31,-105.05 1278.12,-89.38 1267,-56.75 1263.58,-46.71 1256.93,-37.16 1250.34,-29.43"/>
<polygon fill="#63b8ff" stroke="#63b8ff" points="1252.94,-27.09 1243.58,-22.12 1247.8,-31.84 1252.94,-27.09"/>
</a>
</g>
</g>
<!-- Node18&#45;&gt;Node6 -->
<g id="edge39_Node000018_Node000006" class="edge">
<title>Node18&#45;&gt;Node6</title>
<g id="a_edge39_Node000018_Node000006"><a xlink:title=" ">
<path fill="none" stroke="#63b8ff" d="M213.96,-229.35C191.92,-222.86 163.13,-211.1 145,-191 104.35,-145.93 80.49,-102.82 120,-56.75 149.94,-21.84 280.53,-13.54 357.22,-11.72"/>
<polygon fill="#63b8ff" stroke="#63b8ff" points="357.15,-15.23 367.07,-11.52 357.01,-8.23 357.15,-15.23"/>
</a>
</g>
</g>
<!-- Node18&#45;&gt;Node9 -->
<g id="edge36_Node000018_Node000009" class="edge">
<title>Node18&#45;&gt;Node9</title>
<g id="a_edge36_Node000018_Node000009"><a xlink:title=" ">
<path fill="none" stroke="#63b8ff" d="M241.77,-226.85C232.8,-200.37 207.41,-125.43 195,-88.8"/>
<polygon fill="#63b8ff" stroke="#63b8ff" points="198.34,-87.75 191.82,-79.4 191.71,-90 198.34,-87.75"/>
</a>
</g>
</g>
<!-- Node18&#45;&gt;Node12 -->
<g id="edge35_Node000018_Node000012" class="edge">
<title>Node18&#45;&gt;Node12</title>
<g id="a_edge35_Node000018_Node000012"><a xlink:title=" ">
<path fill="none" stroke="#63b8ff" d="M248.15,-226.87C254.1,-208.94 267.11,-169.75 275.15,-145.51"/>
<polygon fill="#63b8ff" stroke="#63b8ff" points="278.44,-146.71 278.27,-136.11 271.8,-144.5 278.44,-146.71"/>
</a>
</g>
</g>
<!-- Node18&#45;&gt;Node13 -->
<g id="edge37_Node000018_Node000013" class="edge">
<title>Node18&#45;&gt;Node13</title>
<g id="a_edge37_Node000018_Node000013"><a xlink:title=" ">
<path fill="none" stroke="#63b8ff" d="M232.84,-226.59C223.17,-218.8 209.42,-207.72 197.98,-198.51"/>
<polygon fill="#63b8ff" stroke="#63b8ff" points="200.21,-195.82 190.23,-192.28 195.82,-201.28 200.21,-195.82"/>
</a>
</g>
</g>
<!-- Node18&#45;&gt;Node14 -->
<g id="edge38_Node000018_Node000014" class="edge">
<title>Node18&#45;&gt;Node14</title>
<g id="a_edge38_Node000018_Node000014"><a xlink:title=" ">
<path fill="none" stroke="#63b8ff" d="M260.66,-226.68C291.78,-207.4 361.64,-164.12 399.48,-140.68"/>
<polygon fill="#63b8ff" stroke="#63b8ff" points="401.3,-143.67 407.96,-135.43 397.62,-137.72 401.3,-143.67"/>
</a>
</g>
</g>
<!-- Node19&#45;&gt;Node2 -->
<g id="edge43_Node000019_Node000002" class="edge">
<title>Node19&#45;&gt;Node2</title>
<g id="a_edge43_Node000019_Node000002"><a xlink:title=" ">
<path fill="none" stroke="#63b8ff" d="M561.88,-347.55C698.43,-336.76 1263.89,-290.31 1436,-247.75 1447.12,-245 1460,-249.83 1460,-238.38 1460,-238.38 1460,-238.38 1460,-122.88 1460,-91.61 1459.49,-77.38 1436,-56.75 1411.66,-35.37 1322,-21.74 1270,-15.45"/>
<polygon fill="#63b8ff" stroke="#63b8ff" points="1270.43,-11.97 1260.09,-14.29 1269.61,-18.93 1270.43,-11.97"/>
</a>
</g>
</g>
<!-- Node19&#45;&gt;Node6 -->
<g id="edge45_Node000019_Node000006" class="edge">
<title>Node19&#45;&gt;Node6</title>
<g id="a_edge45_Node000019_Node000006"><a xlink:title=" ">
<path fill="none" stroke="#63b8ff" d="M519.9,-340.13C480.88,-307.85 358.49,-199.46 316,-77.5 312.97,-68.79 311.03,-64.52 316,-56.75 325.56,-41.78 341.47,-31.68 357.72,-24.89"/>
<polygon fill="#63b8ff" stroke="#63b8ff" points="358.83,-28.21 366.96,-21.42 356.37,-21.65 358.83,-28.21"/>
</a>
</g>
</g>
<!-- Node19&#45;&gt;Node11 -->
<g id="edge44_Node000019_Node000011" class="edge">
<title>Node19&#45;&gt;Node11</title>
<g id="a_edge44_Node000019_Node000011"><a xlink:title=" ">
<path fill="none" stroke="#63b8ff" d="M502.19,-342.72C463.25,-333.37 394.68,-316.9 349.29,-306"/>
<polygon fill="#63b8ff" stroke="#63b8ff" points="350.29,-302.64 339.75,-303.71 348.66,-309.45 350.29,-302.64"/>
</a>
</g>
</g>
<!-- Node19&#45;&gt;Node14 -->
<g id="edge65_Node000019_Node000014" class="edge">
<title>Node19&#45;&gt;Node14</title>
<g id="a_edge65_Node000019_Node000014"><a xlink:title=" ">
<path fill="none" stroke="#63b8ff" d="M530.26,-340.26C524.88,-312.26 506.61,-229.06 470,-170.25 463.47,-159.76 454.11,-149.82 445.62,-141.92"/>
<polygon fill="#63b8ff" stroke="#63b8ff" points="448.17,-139.51 438.37,-135.51 443.54,-144.76 448.17,-139.51"/>
</a>
</g>
</g>
<!-- Node20 -->
<g id="Node000020" class="node">
<title>Node20</title>
<g id="a_Node000020"><a xlink:href="../../d2/d0c/fx_8h.html" target="_top" xlink:title=" ">
<polygon fill="white" stroke="#666666" points="860.75,-247.75 813.25,-247.75 813.25,-227 860.75,-227 860.75,-247.75"/>
<text text-anchor="middle" x="837" y="-234.25" font-family="Helvetica,sans-Serif" font-size="10.00">fx/fx.h</text>
</a>
</g>
</g>
<!-- Node19&#45;&gt;Node20 -->
<g id="edge46_Node000019_Node000020" class="edge">
<title>Node19&#45;&gt;Node20</title>
<g id="a_edge46_Node000019_Node000020"><a xlink:title=" ">
<path fill="none" stroke="#63b8ff" d="M558.8,-340.08C614.08,-319.87 740.74,-273.56 802.23,-251.08"/>
<polygon fill="#63b8ff" stroke="#63b8ff" points="803.31,-254.42 811.5,-247.7 800.91,-247.84 803.31,-254.42"/>
</a>
</g>
</g>
<!-- Node20&#45;&gt;Node2 -->
<g id="edge47_Node000020_Node000002" class="edge">
<title>Node20&#45;&gt;Node2</title>
<g id="a_edge47_Node000020_Node000002"><a xlink:title=" ">
<path fill="none" stroke="#63b8ff" d="M861.14,-236C955.45,-234.3 1295.31,-225.76 1327,-191 1336.61,-180.45 1371.11,-132.7 1322,-56.75 1310.17,-38.45 1288.54,-27.21 1269.46,-20.5"/>
<polygon fill="#63b8ff" stroke="#63b8ff" points="1270.64,-17.21 1260.05,-17.51 1268.52,-23.88 1270.64,-17.21"/>
</a>
</g>
</g>
<!-- Node20&#45;&gt;Node4 -->
<g id="edge48_Node000020_Node000004" class="edge">
<title>Node20&#45;&gt;Node4</title>
<g id="a_edge48_Node000020_Node000004"><a xlink:title=" ">
<path fill="none" stroke="#63b8ff" d="M816.77,-226.61C801.7,-218.6 781.35,-206.14 767,-191 754.19,-177.49 743.99,-158.87 737.39,-144.83"/>
<polygon fill="#63b8ff" stroke="#63b8ff" points="740.6,-143.42 733.34,-135.71 734.2,-146.27 740.6,-143.42"/>
</a>
</g>
</g>
<!-- Node20&#45;&gt;Node6 -->
<g id="edge49_Node000020_Node000006" class="edge">
<title>Node20&#45;&gt;Node6</title>
<g id="a_edge49_Node000020_Node000006"><a xlink:title=" ">
<path fill="none" stroke="#63b8ff" d="M813.05,-234.7C767.96,-230.96 667.92,-219.87 589,-191 565.19,-182.29 511.74,-147.31 490,-134.25 475.15,-125.33 471.95,-122.26 457,-113.5 428.18,-96.6 408.06,-106.23 391,-77.5 382.11,-62.53 390.37,-43.61 399.37,-29.85"/>
<polygon fill="#63b8ff" stroke="#63b8ff" points="401.95,-32.26 404.94,-22.1 396.26,-28.18 401.95,-32.26"/>
</a>
</g>
</g>
<!-- Node20&#45;&gt;Node14 -->
<g id="edge50_Node000020_Node000014" class="edge">
<title>Node20&#45;&gt;Node14</title>
<g id="a_edge50_Node000020_Node000014"><a xlink:title=" ">
<path fill="none" stroke="#63b8ff" d="M813.11,-234.99C763.9,-231.61 648.13,-220.9 556,-191 535.43,-184.32 484.51,-157.41 452.56,-140.05"/>
<polygon fill="#63b8ff" stroke="#63b8ff" points="454.3,-137.01 443.85,-135.29 450.95,-143.15 454.3,-137.01"/>
</a>
</g>
</g>
<!-- Node21 -->
<g id="Node000021" class="node">
<title>Node21</title>
<g id="a_Node000021"><a xlink:href="../../db/ded/draw__context_8h.html" target="_top" xlink:title=" ">
<polygon fill="white" stroke="#666666" points="897.88,-191 776.12,-191 776.12,-170.25 897.88,-170.25 897.88,-191"/>
<text text-anchor="middle" x="837" y="-177.5" font-family="Helvetica,sans-Serif" font-size="10.00">detail/draw_context.h</text>
</a>
</g>
</g>
<!-- Node20&#45;&gt;Node21 -->
<g id="edge51_Node000020_Node000021" class="edge">
<title>Node20&#45;&gt;Node21</title>
<g id="a_edge51_Node000020_Node000021"><a xlink:title=" ">
<path fill="none" stroke="#63b8ff" d="M837,-226.59C837,-219.97 837,-210.97 837,-202.77"/>
<polygon fill="#63b8ff" stroke="#63b8ff" points="840.5,-202.84 837,-192.84 833.5,-202.84 840.5,-202.84"/>
</a>
</g>
</g>
<!-- Node22 -->
<g id="Node000022" class="node">
<title>Node22</title>
<g id="a_Node000022"><a xlink:href="../../d7/df7/transition_8h.html" target="_top" xlink:title=" ">
<polygon fill="white" stroke="#666666" points="1030.12,-77.5 927.88,-77.5 927.88,-56.75 1030.12,-56.75 1030.12,-77.5"/>
<text text-anchor="middle" x="979" y="-64" font-family="Helvetica,sans-Serif" font-size="10.00">detail/transition.h</text>
</a>
</g>
</g>
<!-- Node20&#45;&gt;Node22 -->
<g id="edge55_Node000020_Node000022" class="edge">
<title>Node20&#45;&gt;Node22</title>
<g id="a_edge55_Node000020_Node000022"><a xlink:title=" ">
<path fill="none" stroke="#63b8ff" d="M857.2,-226.58C872.24,-218.55 892.59,-206.08 907,-191 936.78,-159.85 959.39,-114.15 970.78,-88.16"/>
<polygon fill="#63b8ff" stroke="#63b8ff" points="973.93,-89.69 974.62,-79.12 967.49,-86.96 973.93,-89.69"/>
</a>
</g>
</g>
<!-- Node23 -->
<g id="Node000023" class="node">
<title>Node23</title>
<g id="a_Node000023"><a xlink:href="../../dc/d0e/fl_2str_8h.html" target="_top" xlink:title=" ">
<polygon fill="#fff0f0" stroke="red" points="644,-191 598,-191 598,-170.25 644,-170.25 644,-191"/>
<text text-anchor="middle" x="621" y="-177.5" font-family="Helvetica,sans-Serif" font-size="10.00">fl/str.h</text>
</a>
</g>
</g>
<!-- Node20&#45;&gt;Node23 -->
<g id="edge58_Node000020_Node000023" class="edge">
<title>Node20&#45;&gt;Node23</title>
<g id="a_edge58_Node000020_Node000023"><a xlink:title=" ">
<path fill="none" stroke="#63b8ff" d="M813.06,-230.31C774.74,-220.59 699.49,-201.52 655.41,-190.35"/>
<polygon fill="#63b8ff" stroke="#63b8ff" points="656.41,-186.99 645.86,-187.93 654.69,-193.78 656.41,-186.99"/>
</a>
</g>
</g>
<!-- Node28 -->
<g id="Node000028" class="node">
<title>Node28</title>
<g id="a_Node000028"><a xlink:href="../../d8/d4b/unused_8h.html" target="_top" xlink:title=" ">
<polygon fill="white" stroke="#666666" points="1317.62,-191 1248.38,-191 1248.38,-170.25 1317.62,-170.25 1317.62,-191"/>
<text text-anchor="middle" x="1283" y="-177.5" font-family="Helvetica,sans-Serif" font-size="10.00">fl/unused.h</text>
</a>
</g>
</g>
<!-- Node20&#45;&gt;Node28 -->
<g id="edge64_Node000020_Node000028" class="edge">
<title>Node20&#45;&gt;Node28</title>
<g id="a_edge64_Node000020_Node000028"><a xlink:title=" ">
<path fill="none" stroke="#63b8ff" d="M860.8,-234.28C922.58,-228.72 1093.07,-212.5 1234,-191 1234.99,-190.85 1236,-190.69 1237.01,-190.53"/>
<polygon fill="#63b8ff" stroke="#63b8ff" points="1237.23,-194.04 1246.5,-188.91 1236.05,-187.14 1237.23,-194.04"/>
</a>
</g>
</g>
<!-- Node21&#45;&gt;Node2 -->
<g id="edge52_Node000021_Node000002" class="edge">
<title>Node21&#45;&gt;Node2</title>
<g id="a_edge52_Node000021_Node000002"><a xlink:title=" ">
<path fill="none" stroke="#63b8ff" d="M898.09,-176.04C997.57,-169.65 1185.77,-154.95 1208,-134.25 1236,-108.17 1236.84,-59.86 1234.63,-32.22"/>
<polygon fill="#63b8ff" stroke="#63b8ff" points="1238.15,-32.22 1233.65,-22.63 1231.19,-32.94 1238.15,-32.22"/>
</a>
</g>
</g>
<!-- Node21&#45;&gt;Node4 -->
<g id="edge54_Node000021_Node000004" class="edge">
<title>Node21&#45;&gt;Node4</title>
<g id="a_edge54_Node000021_Node000004"><a xlink:title=" ">
<path fill="none" stroke="#63b8ff" d="M817.69,-169.84C801.18,-161.47 777.17,-149.29 758.29,-139.72"/>
<polygon fill="#63b8ff" stroke="#63b8ff" points="759.99,-136.66 749.49,-135.26 756.83,-142.91 759.99,-136.66"/>
</a>
</g>
</g>
<!-- Node21&#45;&gt;Node6 -->
<g id="edge53_Node000021_Node000006" class="edge">
<title>Node21&#45;&gt;Node6</title>
<g id="a_edge53_Node000021_Node000006"><a xlink:title=" ">
<path fill="none" stroke="#63b8ff" d="M786.59,-169.8C684.04,-149.4 458.6,-102.29 433,-77.5 420.92,-65.8 416.38,-46.98 414.74,-32.4"/>
<polygon fill="#63b8ff" stroke="#63b8ff" points="418.24,-32.2 414.04,-22.48 411.25,-32.7 418.24,-32.2"/>
</a>
</g>
</g>
<!-- Node22&#45;&gt;Node2 -->
<g id="edge56_Node000022_Node000002" class="edge">
<title>Node22&#45;&gt;Node2</title>
<g id="a_edge56_Node000022_Node000002"><a xlink:title=" ">
<path fill="none" stroke="#63b8ff" d="M1024.52,-56.27C1073.08,-45.77 1149.09,-29.32 1194.38,-19.52"/>
<polygon fill="#63b8ff" stroke="#63b8ff" points="1194.96,-22.97 1203.99,-17.44 1193.48,-16.13 1194.96,-22.97"/>
</a>
</g>
</g>
<!-- Node22&#45;&gt;Node6 -->
<g id="edge57_Node000022_Node000006" class="edge">
<title>Node22&#45;&gt;Node6</title>
<g id="a_edge57_Node000022_Node000006"><a xlink:title=" ">
<path fill="none" stroke="#63b8ff" d="M927.61,-61.15C821.86,-50.9 580.61,-27.52 470.58,-16.86"/>
<polygon fill="#63b8ff" stroke="#63b8ff" points="471.2,-13.4 460.91,-15.92 470.53,-20.37 471.2,-13.4"/>
</a>
</g>
</g>
<!-- Node23&#45;&gt;Node2 -->
<g id="edge60_Node000023_Node000002" class="edge">
<title>Node23&#45;&gt;Node2</title>
<g id="a_edge60_Node000023_Node000002"><a xlink:title=" ">
<path fill="none" stroke="#63b8ff" d="M644.29,-177.4C737.28,-168.23 1081.37,-131.22 1175,-77.5 1194.65,-66.22 1210.79,-45.57 1220.82,-30.33"/>
<polygon fill="#63b8ff" stroke="#63b8ff" points="1223.62,-32.45 1225.95,-22.12 1217.68,-28.74 1223.62,-32.45"/>
</a>
</g>
</g>
<!-- Node23&#45;&gt;Node6 -->
<g id="edge63_Node000023_Node000006" class="edge">
<title>Node23&#45;&gt;Node6</title>
<g id="a_edge63_Node000023_Node000006"><a xlink:title=" ">
<path fill="none" stroke="#63b8ff" d="M603.02,-169.92C577.99,-156.56 531.1,-132.05 490,-113.5 450.73,-95.78 424.15,-113.17 400,-77.5 390.76,-63.85 395.87,-45.28 402.37,-31.29"/>
<polygon fill="#63b8ff" stroke="#63b8ff" points="405.39,-33.06 406.93,-22.57 399.19,-29.81 405.39,-33.06"/>
</a>
</g>
</g>
<!-- Node23&#45;&gt;Node10 -->
<g id="edge62_Node000023_Node000010" class="edge">
<title>Node23&#45;&gt;Node10</title>
<g id="a_edge62_Node000023_Node000010"><a xlink:title=" ">
<path fill="none" stroke="#63b8ff" d="M610.6,-170.12C590.08,-151.37 544.14,-109.38 518.05,-85.53"/>
<polygon fill="#63b8ff" stroke="#63b8ff" points="520.58,-83.11 510.84,-78.95 515.86,-88.28 520.58,-83.11"/>
</a>
</g>
</g>
<!-- Node23&#45;&gt;Node12 -->
<g id="edge59_Node000023_Node000012" class="edge">
<title>Node23&#45;&gt;Node12</title>
<g id="a_edge59_Node000023_Node000012"><a xlink:title=" ">
<path fill="none" stroke="#63b8ff" d="M597.7,-175.86C540.03,-166.55 390.2,-142.35 319.71,-130.97"/>
<polygon fill="#63b8ff" stroke="#63b8ff" points="320.63,-127.57 310.2,-129.43 319.51,-134.48 320.63,-127.57"/>
</a>
</g>
</g>
<!-- Node23&#45;&gt;Node14 -->
<g id="edge61_Node000023_Node000014" class="edge">
<title>Node23&#45;&gt;Node14</title>
<g id="a_edge61_Node000023_Node000014"><a xlink:title=" ">
<path fill="none" stroke="#63b8ff" d="M597.75,-173.13C563.6,-163.59 499.64,-145.72 459.86,-134.61"/>
<polygon fill="#63b8ff" stroke="#63b8ff" points="460.87,-131.26 450.29,-131.94 458.98,-138 460.87,-131.26"/>
</a>
</g>
</g>
<!-- Node29&#45;&gt;Node2 -->
<g id="edge67_Node000029_Node000002" class="edge">
<title>Node29&#45;&gt;Node2</title>
<g id="a_edge67_Node000029_Node000002"><a xlink:title=" ">
<path fill="none" stroke="#63b8ff" d="M1573.32,-340.24C1561.01,-321.52 1536,-278.54 1536,-238.38 1536,-238.38 1536,-238.38 1536,-122.88 1536,-82.59 1509.33,-76.12 1474,-56.75 1408.59,-20.89 1319.9,-12.84 1270.07,-11.34"/>
<polygon fill="#63b8ff" stroke="#63b8ff" points="1270.45,-7.85 1260.38,-11.13 1270.3,-14.85 1270.45,-7.85"/>
</a>
</g>
</g>
<!-- Node30 -->
<g id="Node000030" class="node">
<title>Node30</title>
<g id="a_Node000030"><a xlink:href="../../d4/d7a/lib8static_8h.html" target="_top" xlink:title="Defines static inlining macros for lib8tion functions.">
<polygon fill="white" stroke="#666666" points="1673.88,-304.5 1564.12,-304.5 1564.12,-283.75 1673.88,-283.75 1673.88,-304.5"/>
<text text-anchor="middle" x="1619" y="-291" font-family="Helvetica,sans-Serif" font-size="10.00">lib8tion/lib8static.h</text>
</a>
</g>
</g>
<!-- Node29&#45;&gt;Node30 -->
<g id="edge68_Node000029_Node000030" class="edge">
<title>Node29&#45;&gt;Node30</title>
<g id="a_edge68_Node000029_Node000030"><a xlink:title=" ">
<path fill="none" stroke="#63b8ff" d="M1586.97,-340.09C1592.13,-332.85 1599.32,-322.76 1605.57,-313.97"/>
<polygon fill="#63b8ff" stroke="#63b8ff" points="1608.26,-316.24 1611.21,-306.06 1602.56,-312.18 1608.26,-316.24"/>
</a>
</g>
</g>
<!-- Node31&#45;&gt;Node2 -->
<g id="edge70_Node000031_Node000002" class="edge">
<title>Node31&#45;&gt;Node2</title>
<g id="a_edge70_Node000031_Node000002"><a xlink:title=" ">
<path fill="none" stroke="#63b8ff" d="M1152.02,-178.05C1180.5,-174.78 1224.92,-164.76 1246,-134.25 1267.37,-103.32 1252.96,-57.22 1241.72,-31.17"/>
<polygon fill="#63b8ff" stroke="#63b8ff" points="1245.05,-30.04 1237.69,-22.41 1238.69,-32.96 1245.05,-30.04"/>
</a>
</g>
</g>
<!-- Node31&#45;&gt;Node4 -->
<g id="edge71_Node000031_Node000004" class="edge">
<title>Node31&#45;&gt;Node4</title>
<g id="a_edge71_Node000031_Node000004"><a xlink:title=" ">
<path fill="none" stroke="#63b8ff" d="M1099.95,-176.03C1030.55,-166.46 841.15,-140.34 763.21,-129.59"/>
<polygon fill="#63b8ff" stroke="#63b8ff" points="764,-126.17 753.61,-128.27 763.04,-133.1 764,-126.17"/>
</a>
</g>
</g>
<!-- Node31&#45;&gt;Node6 -->
<g id="edge72_Node000031_Node000006" class="edge">
<title>Node31&#45;&gt;Node6</title>
<g id="a_edge72_Node000031_Node000006"><a xlink:title=" ">
<path fill="none" stroke="#63b8ff" d="M1122.57,-170.07C1113.38,-146.03 1085.67,-83.08 1039,-56.75 990.22,-29.23 615.52,-16.63 470.79,-12.75"/>
<polygon fill="#63b8ff" stroke="#63b8ff" points="471.15,-9.25 461.06,-12.49 470.97,-16.25 471.15,-9.25"/>
</a>
</g>
</g>
<!-- Node32 -->
<g id="Node000032" class="node">
<title>Node32</title>
<g id="a_Node000032"><a xlink:href="../../d2/d19/qfx_8h.html" target="_top" xlink:title=" ">
<polygon fill="white" stroke="#666666" points="1166.25,-77.5 1085.75,-77.5 1085.75,-56.75 1166.25,-56.75 1166.25,-77.5"/>
<text text-anchor="middle" x="1126" y="-64" font-family="Helvetica,sans-Serif" font-size="10.00">lib8tion/qfx.h</text>
</a>
</g>
</g>
<!-- Node31&#45;&gt;Node32 -->
<g id="edge73_Node000031_Node000032" class="edge">
<title>Node31&#45;&gt;Node32</title>
<g id="a_edge73_Node000031_Node000032"><a xlink:title=" ">
<path fill="none" stroke="#63b8ff" d="M1126,-170.12C1126,-152.35 1126,-113.72 1126,-89.43"/>
<polygon fill="#63b8ff" stroke="#63b8ff" points="1129.5,-89.44 1126,-79.44 1122.5,-89.44 1129.5,-89.44"/>
</a>
</g>
</g>
<!-- Node32&#45;&gt;Node2 -->
<g id="edge74_Node000032_Node000002" class="edge">
<title>Node32&#45;&gt;Node2</title>
<g id="a_edge74_Node000032_Node000002"><a xlink:title=" ">
<path fill="none" stroke="#63b8ff" d="M1144.95,-56.34C1161.08,-48.01 1184.5,-35.91 1202.99,-26.36"/>
<polygon fill="#63b8ff" stroke="#63b8ff" points="1204.59,-29.47 1211.87,-21.77 1201.38,-23.25 1204.59,-29.47"/>
</a>
</g>
</g>
<!-- Node32&#45;&gt;Node6 -->
<g id="edge75_Node000032_Node000006" class="edge">
<title>Node32&#45;&gt;Node6</title>
<g id="a_edge75_Node000032_Node000006"><a xlink:title=" ">
<path fill="none" stroke="#63b8ff" d="M1085.38,-58.61C1080.87,-57.92 1076.35,-57.28 1072,-56.75 850.54,-29.96 585.1,-17.67 470.85,-13.32"/>
<polygon fill="#63b8ff" stroke="#63b8ff" points="471.26,-9.83 461.14,-12.96 471,-16.83 471.26,-9.83"/>
</a>
</g>
</g>
</g>
</svg>
