<?xml version="1.0" encoding="UTF-8" standalone="no"?>
<!DOCTYPE svg PUBLIC "-//W3C//DTD SVG 1.1//EN"
 "http://www.w3.org/Graphics/SVG/1.1/DTD/svg11.dtd">
<!-- Generated by graphviz version 12.2.1 (20241206.2353)
 -->
<!-- Title: fl::Str::append Pages: 1 -->
<svg width="258pt" height="119pt"
 viewBox="0.00 0.00 257.50 119.12" xmlns="http://www.w3.org/2000/svg" xmlns:xlink="http://www.w3.org/1999/xlink">
<g id="graph0" class="graph" transform="scale(1 1) rotate(0) translate(4 115.12)">
<title>fl::Str::append</title>
<!-- Node1 -->
<g id="Node000001" class="node">
<title>Node1</title>
<g id="a_Node000001"><a xlink:title=" ">
<polygon fill="#999999" stroke="#666666" points="83.5,-72.12 0,-72.12 0,-51.38 83.5,-51.38 83.5,-72.12"/>
<text text-anchor="middle" x="41.75" y="-58.62" font-family="Helvetica,sans-Serif" font-size="10.00">fl::Str::append</text>
</a>
</g>
</g>
<!-- Node2 -->
<g id="Node000002" class="node">
<title>Node2</title>
<g id="a_Node000002"><a xlink:href="../../dc/d96/classfl_1_1_str_n.html#a67296b774f8201293edbbabbd1b642cb" target="_top" xlink:title=" ">
<polygon fill="white" stroke="#666666" points="223.62,-111.12 145.38,-111.12 145.38,-90.38 223.62,-90.38 223.62,-111.12"/>
<text text-anchor="middle" x="184.5" y="-97.62" font-family="Helvetica,sans-Serif" font-size="10.00">fl::StrN::c_str</text>
</a>
</g>
</g>
<!-- Node1&#45;&gt;Node2 -->
<g id="edge1_Node000001_Node000002" class="edge">
<title>Node1&#45;&gt;Node2</title>
<g id="a_edge1_Node000001_Node000002"><a xlink:title=" ">
<path fill="none" stroke="#63b8ff" d="M81.96,-72.61C98.1,-77.09 117,-82.32 134.07,-87.05"/>
<polygon fill="#63b8ff" stroke="#63b8ff" points="132.96,-90.38 143.53,-89.68 134.83,-83.63 132.96,-90.38"/>
</a>
</g>
</g>
<!-- Node3 -->
<g id="Node000003" class="node">
<title>Node3</title>
<g id="a_Node000003"><a xlink:href="../../dc/d96/classfl_1_1_str_n.html#a83aba4b6220dd9ffce346c7e62133b48" target="_top" xlink:title=" ">
<polygon fill="white" stroke="#666666" points="221.75,-72.12 147.25,-72.12 147.25,-51.38 221.75,-51.38 221.75,-72.12"/>
<text text-anchor="middle" x="184.5" y="-58.62" font-family="Helvetica,sans-Serif" font-size="10.00">fl::StrN::size</text>
</a>
</g>
</g>
<!-- Node1&#45;&gt;Node3 -->
<g id="edge2_Node000001_Node000003" class="edge">
<title>Node1&#45;&gt;Node3</title>
<g id="a_edge2_Node000001_Node000003"><a xlink:title=" ">
<path fill="none" stroke="#63b8ff" d="M83.84,-61.75C100.06,-61.75 118.8,-61.75 135.63,-61.75"/>
<polygon fill="#63b8ff" stroke="#63b8ff" points="135.4,-65.25 145.4,-61.75 135.4,-58.25 135.4,-65.25"/>
</a>
</g>
</g>
<!-- Node4 -->
<g id="Node000004" class="node">
<title>Node4</title>
<g id="a_Node000004"><a xlink:href="../../dc/d96/classfl_1_1_str_n.html#a270fb921e74601bc45cc8513e8a075f7" target="_top" xlink:title=" ">
<polygon fill="white" stroke="#666666" points="249.5,-33.5 119.5,-33.5 119.5,0 249.5,0 249.5,-33.5"/>
<text text-anchor="start" x="127.5" y="-20" font-family="Helvetica,sans-Serif" font-size="10.00">fl::StrN&lt; FASTLED_STR</text>
<text text-anchor="middle" x="184.5" y="-7.25" font-family="Helvetica,sans-Serif" font-size="10.00">_INLINED_SIZE &gt;::write</text>
</a>
</g>
</g>
<!-- Node1&#45;&gt;Node4 -->
<g id="edge3_Node000001_Node000004" class="edge">
<title>Node1&#45;&gt;Node4</title>
<g id="a_edge3_Node000001_Node000004"><a xlink:title=" ">
<path fill="none" stroke="#63b8ff" d="M76.46,-50.97C89.29,-46.87 104.37,-42.05 119.1,-37.34"/>
<polygon fill="#63b8ff" stroke="#63b8ff" points="119.83,-40.78 128.29,-34.4 117.69,-34.11 119.83,-40.78"/>
</a>
</g>
</g>
</g>
</svg>
