<?xml version="1.0" encoding="UTF-8" standalone="no"?>
<!DOCTYPE svg PUBLIC "-//W3C//DTD SVG 1.1//EN"
 "http://www.w3.org/Graphics/SVG/1.1/DTD/svg11.dtd">
<!-- Generated by graphviz version 12.2.1 (20241206.2353)
 -->
<!-- Title: /home/runner/work/FastLED/FastLED/src/fl/json.h Pages: 1 -->
<svg width="1483pt" height="124pt"
 viewBox="0.00 0.00 1482.62 123.75" xmlns="http://www.w3.org/2000/svg" xmlns:xlink="http://www.w3.org/1999/xlink">
<g id="graph0" class="graph" transform="scale(1 1) rotate(0) translate(4 119.75)">
<title>/home/runner/work/FastLED/FastLED/src/fl/json.h</title>
<!-- Node1 -->
<g id="Node000001" class="node">
<title>Node1</title>
<g id="a_Node000001"><a xlink:title=" ">
<polygon fill="#999999" stroke="#666666" points="849,-115.75 699.5,-115.75 699.5,-82.25 849,-82.25 849,-115.75"/>
<text text-anchor="start" x="707.5" y="-102.25" font-family="Helvetica,sans-Serif" font-size="10.00">/home/runner/work/FastLED</text>
<text text-anchor="middle" x="774.25" y="-89.5" font-family="Helvetica,sans-Serif" font-size="10.00">/FastLED/src/fl/json.h</text>
</a>
</g>
</g>
<!-- Node2 -->
<g id="Node000002" class="node">
<title>Node2</title>
<g id="a_Node000002"><a xlink:href="../../d1/ddb/_chromancer_8ino.html" target="_top" xlink:title=" ">
<polygon fill="white" stroke="#666666" points="170.5,-46.25 0,-46.25 0,0 170.5,0 170.5,-46.25"/>
<text text-anchor="start" x="8" y="-32.75" font-family="Helvetica,sans-Serif" font-size="10.00">/home/runner/work/FastLED</text>
<text text-anchor="start" x="8" y="-20" font-family="Helvetica,sans-Serif" font-size="10.00">/FastLED/examples/Chromancer</text>
<text text-anchor="middle" x="85.25" y="-7.25" font-family="Helvetica,sans-Serif" font-size="10.00">/Chromancer.ino</text>
</a>
</g>
</g>
<!-- Node1&#45;&gt;Node2 -->
<g id="edge1_Node000001_Node000002" class="edge">
<title>Node1&#45;&gt;Node2</title>
<g id="a_edge1_Node000001_Node000002"><a xlink:title=" ">
<path fill="none" stroke="#63b8ff" d="M687.87,-94.4C571.67,-88.67 358.84,-75.04 179.25,-46.25 176.52,-45.81 173.75,-45.34 170.96,-44.84"/>
<polygon fill="#63b8ff" stroke="#63b8ff" points="687.48,-97.89 697.64,-94.88 687.82,-90.9 687.48,-97.89"/>
</a>
</g>
</g>
<!-- Node3 -->
<g id="Node000003" class="node">
<title>Node3</title>
<g id="a_Node000003"><a xlink:href="../../dd/d96/_fx_animartrix_8ino.html" target="_top" xlink:title=" ">
<polygon fill="white" stroke="#666666" points="363.75,-46.25 188.75,-46.25 188.75,0 363.75,0 363.75,-46.25"/>
<text text-anchor="start" x="196.75" y="-32.75" font-family="Helvetica,sans-Serif" font-size="10.00">/home/runner/work/FastLED</text>
<text text-anchor="start" x="196.75" y="-20" font-family="Helvetica,sans-Serif" font-size="10.00">/FastLED/examples/FxAnimartrix</text>
<text text-anchor="middle" x="276.25" y="-7.25" font-family="Helvetica,sans-Serif" font-size="10.00">/FxAnimartrix.ino</text>
</a>
</g>
</g>
<!-- Node1&#45;&gt;Node3 -->
<g id="edge2_Node000001_Node000003" class="edge">
<title>Node1&#45;&gt;Node3</title>
<g id="a_edge2_Node000001_Node000003"><a xlink:title=" ">
<path fill="none" stroke="#63b8ff" d="M688.08,-89.3C606.63,-80.5 481.16,-65.47 373.25,-46.25 370.27,-45.72 367.25,-45.16 364.2,-44.57"/>
<polygon fill="#63b8ff" stroke="#63b8ff" points="687.46,-92.75 697.77,-90.34 688.2,-85.79 687.46,-92.75"/>
</a>
</g>
</g>
<!-- Node4 -->
<g id="Node000004" class="node">
<title>Node4</title>
<g id="a_Node000004"><a xlink:href="../../d3/dac/_fx_noise_ring_8ino.html" target="_top" xlink:title=" ">
<polygon fill="white" stroke="#666666" points="554.62,-46.25 381.88,-46.25 381.88,0 554.62,0 554.62,-46.25"/>
<text text-anchor="start" x="389.88" y="-32.75" font-family="Helvetica,sans-Serif" font-size="10.00">/home/runner/work/FastLED</text>
<text text-anchor="start" x="389.88" y="-20" font-family="Helvetica,sans-Serif" font-size="10.00">/FastLED/examples/FxNoiseRing</text>
<text text-anchor="middle" x="468.25" y="-7.25" font-family="Helvetica,sans-Serif" font-size="10.00">/FxNoiseRing.ino</text>
</a>
</g>
</g>
<!-- Node1&#45;&gt;Node4 -->
<g id="edge3_Node000001_Node000004" class="edge">
<title>Node1&#45;&gt;Node4</title>
<g id="a_edge3_Node000001_Node000004"><a xlink:title=" ">
<path fill="none" stroke="#63b8ff" d="M696.1,-79.13C653.01,-68.73 599.42,-55.79 555.03,-45.08"/>
<polygon fill="#63b8ff" stroke="#63b8ff" points="695.08,-82.49 705.63,-81.43 696.73,-75.68 695.08,-82.49"/>
</a>
</g>
</g>
<!-- Node5 -->
<g id="Node000005" class="node">
<title>Node5</title>
<g id="a_Node000005"><a xlink:href="../../dc/d4d/_wasm_screen_coords_8ino.html" target="_top" xlink:title="Simple test for screen coordinates in the web compiled version of FastLED.">
<polygon fill="white" stroke="#666666" points="780.25,-46.25 572.25,-46.25 572.25,0 780.25,0 780.25,-46.25"/>
<text text-anchor="start" x="580.25" y="-32.75" font-family="Helvetica,sans-Serif" font-size="10.00">/home/runner/work/FastLED</text>
<text text-anchor="start" x="580.25" y="-20" font-family="Helvetica,sans-Serif" font-size="10.00">/FastLED/examples/WasmScreenCoords</text>
<text text-anchor="middle" x="676.25" y="-7.25" font-family="Helvetica,sans-Serif" font-size="10.00">/WasmScreenCoords.ino</text>
</a>
</g>
</g>
<!-- Node1&#45;&gt;Node5 -->
<g id="edge4_Node000001_Node000005" class="edge">
<title>Node1&#45;&gt;Node5</title>
<g id="a_edge4_Node000001_Node000005"><a xlink:title=" ">
<path fill="none" stroke="#63b8ff" d="M744.14,-75.3C732.03,-66.17 718.1,-55.67 706.02,-46.57"/>
<polygon fill="#63b8ff" stroke="#63b8ff" points="741.68,-77.83 751.78,-81.06 745.9,-72.24 741.68,-77.83"/>
</a>
</g>
</g>
<!-- Node6 -->
<g id="Node000006" class="node">
<title>Node6</title>
<g id="a_Node000006"><a xlink:href="../../d7/dd3/wasm_8ino.html" target="_top" xlink:title="Demonstrates an advanced ino file with multiple effects and UI elements.">
<polygon fill="white" stroke="#666666" points="948,-46.25 798.5,-46.25 798.5,0 948,0 948,-46.25"/>
<text text-anchor="start" x="806.5" y="-32.75" font-family="Helvetica,sans-Serif" font-size="10.00">/home/runner/work/FastLED</text>
<text text-anchor="start" x="806.5" y="-20" font-family="Helvetica,sans-Serif" font-size="10.00">/FastLED/examples/wasm</text>
<text text-anchor="middle" x="873.25" y="-7.25" font-family="Helvetica,sans-Serif" font-size="10.00">/wasm.ino</text>
</a>
</g>
</g>
<!-- Node1&#45;&gt;Node6 -->
<g id="edge5_Node000001_Node000006" class="edge">
<title>Node1&#45;&gt;Node6</title>
<g id="a_edge5_Node000001_Node000006"><a xlink:title=" ">
<path fill="none" stroke="#63b8ff" d="M804.67,-75.3C816.9,-66.17 830.97,-55.67 843.17,-46.57"/>
<polygon fill="#63b8ff" stroke="#63b8ff" points="802.87,-72.28 796.94,-81.07 807.05,-77.89 802.87,-72.28"/>
</a>
</g>
</g>
<!-- Node7 -->
<g id="Node000007" class="node">
<title>Node7</title>
<g id="a_Node000007"><a xlink:href="../../d4/d37/file__system_8cpp.html" target="_top" xlink:title=" ">
<polygon fill="white" stroke="#666666" points="1128.75,-39.88 965.75,-39.88 965.75,-6.38 1128.75,-6.38 1128.75,-39.88"/>
<text text-anchor="start" x="973.75" y="-26.38" font-family="Helvetica,sans-Serif" font-size="10.00">/home/runner/work/FastLED</text>
<text text-anchor="middle" x="1047.25" y="-13.62" font-family="Helvetica,sans-Serif" font-size="10.00">/FastLED/src/fl/file_system.cpp</text>
</a>
</g>
</g>
<!-- Node1&#45;&gt;Node7 -->
<g id="edge6_Node000001_Node000007" class="edge">
<title>Node1&#45;&gt;Node7</title>
<g id="a_edge6_Node000001_Node000007"><a xlink:title=" ">
<path fill="none" stroke="#63b8ff" d="M845.12,-78.82C889.31,-66.86 945.55,-51.65 987.48,-40.3"/>
<polygon fill="#63b8ff" stroke="#63b8ff" points="844.36,-75.4 835.62,-81.39 846.19,-82.16 844.36,-75.4"/>
</a>
</g>
</g>
<!-- Node8 -->
<g id="Node000008" class="node">
<title>Node8</title>
<g id="a_Node000008"><a xlink:href="../../dd/d55/json_8cpp.html" target="_top" xlink:title=" ">
<polygon fill="white" stroke="#666666" points="1296,-39.88 1146.5,-39.88 1146.5,-6.38 1296,-6.38 1296,-39.88"/>
<text text-anchor="start" x="1154.5" y="-26.38" font-family="Helvetica,sans-Serif" font-size="10.00">/home/runner/work/FastLED</text>
<text text-anchor="middle" x="1221.25" y="-13.62" font-family="Helvetica,sans-Serif" font-size="10.00">/FastLED/src/fl/json.cpp</text>
</a>
</g>
</g>
<!-- Node1&#45;&gt;Node8 -->
<g id="edge7_Node000001_Node000008" class="edge">
<title>Node1&#45;&gt;Node8</title>
<g id="a_edge7_Node000001_Node000008"><a xlink:title=" ">
<path fill="none" stroke="#63b8ff" d="M860.41,-88.69C934.48,-79.98 1043.95,-65.45 1138.25,-46.25 1146.58,-44.55 1155.31,-42.52 1163.86,-40.37"/>
<polygon fill="#63b8ff" stroke="#63b8ff" points="860.32,-85.17 850.79,-89.81 861.13,-92.13 860.32,-85.17"/>
</a>
</g>
</g>
<!-- Node9 -->
<g id="Node000009" class="node">
<title>Node9</title>
<g id="a_Node000009"><a xlink:href="../../d9/d6f/screenmap_8cpp.html" target="_top" xlink:title=" ">
<polygon fill="white" stroke="#666666" points="1474.62,-39.88 1313.88,-39.88 1313.88,-6.38 1474.62,-6.38 1474.62,-39.88"/>
<text text-anchor="start" x="1321.88" y="-26.38" font-family="Helvetica,sans-Serif" font-size="10.00">/home/runner/work/FastLED</text>
<text text-anchor="middle" x="1394.25" y="-13.62" font-family="Helvetica,sans-Serif" font-size="10.00">/FastLED/src/fl/screenmap.cpp</text>
</a>
</g>
</g>
<!-- Node1&#45;&gt;Node9 -->
<g id="edge8_Node000001_Node000009" class="edge">
<title>Node1&#45;&gt;Node9</title>
<g id="a_edge8_Node000001_Node000009"><a xlink:title=" ">
<path fill="none" stroke="#63b8ff" d="M860.68,-93.48C966.19,-87.06 1149.8,-73 1305.25,-46.25 1314.66,-44.63 1324.56,-42.55 1334.18,-40.32"/>
<polygon fill="#63b8ff" stroke="#63b8ff" points="860.74,-89.97 850.97,-94.06 861.16,-96.95 860.74,-89.97"/>
</a>
</g>
</g>
</g>
</svg>
