<?xml version="1.0" encoding="UTF-8" standalone="no"?>
<!DOCTYPE svg PUBLIC "-//W3C//DTD SVG 1.1//EN"
 "http://www.w3.org/Graphics/SVG/1.1/DTD/svg11.dtd">
<!-- Generated by graphviz version 12.2.1 (20241206.2353)
 -->
<!-- Title: fl::RectangularDrawBuffer::onQueuingStart Pages: 1 -->
<svg width="647pt" height="146pt"
 viewBox="0.00 0.00 646.50 145.75" xmlns="http://www.w3.org/2000/svg" xmlns:xlink="http://www.w3.org/1999/xlink">
<g id="graph0" class="graph" transform="scale(1 1) rotate(0) translate(4 141.75)">
<title>fl::RectangularDrawBuffer::onQueuingStart</title>
<!-- Node1 -->
<g id="Node000001" class="node">
<title>Node1</title>
<g id="a_Node000001"><a xlink:title=" ">
<polygon fill="#999999" stroke="#666666" points="141.25,-85.12 0,-85.12 0,-51.62 141.25,-51.62 141.25,-85.12"/>
<text text-anchor="start" x="8" y="-71.62" font-family="Helvetica,sans-Serif" font-size="10.00">fl::RectangularDrawBuffer</text>
<text text-anchor="middle" x="70.62" y="-58.88" font-family="Helvetica,sans-Serif" font-size="10.00">::onQueuingStart</text>
</a>
</g>
</g>
<!-- Node2 -->
<g id="Node000002" class="node">
<title>Node2</title>
<g id="a_Node000002"><a xlink:href="../../d2/df3/classfl_1_1_fixed_map.html#ab76fa7695063cb6e172b328113382e4b" target="_top" xlink:title=" ">
<polygon fill="white" stroke="#666666" points="287.38,-137.75 182.88,-137.75 182.88,-117 287.38,-117 287.38,-137.75"/>
<text text-anchor="middle" x="235.12" y="-124.25" font-family="Helvetica,sans-Serif" font-size="10.00">fl::FixedMap::clear</text>
</a>
</g>
</g>
<!-- Node1&#45;&gt;Node2 -->
<g id="edge1_Node000001_Node000002" class="edge">
<title>Node1&#45;&gt;Node2</title>
<g id="a_edge1_Node000001_Node000002"><a xlink:title=" ">
<path fill="none" stroke="#63b8ff" d="M117.84,-85.62C136.3,-92.46 157.76,-100.35 177.25,-107.38 182.22,-109.17 187.44,-111.03 192.62,-112.86"/>
<polygon fill="#63b8ff" stroke="#63b8ff" points="191.08,-116.03 201.67,-116.06 193.41,-109.43 191.08,-116.03"/>
</a>
</g>
</g>
<!-- Node5 -->
<g id="Node000005" class="node">
<title>Node5</title>
<g id="a_Node000005"><a xlink:href="../../db/ddd/classfl_1_1_heap_vector.html#a6ba2193ee3a2e6f0e8c819bb4c16cc39" target="_top" xlink:title=" ">
<polygon fill="white" stroke="#666666" points="292.25,-98.75 178,-98.75 178,-78 292.25,-78 292.25,-98.75"/>
<text text-anchor="middle" x="235.12" y="-85.25" font-family="Helvetica,sans-Serif" font-size="10.00">fl::HeapVector::clear</text>
</a>
</g>
</g>
<!-- Node1&#45;&gt;Node5 -->
<g id="edge4_Node000001_Node000005" class="edge">
<title>Node1&#45;&gt;Node5</title>
<g id="a_edge4_Node000001_Node000005"><a xlink:title=" ">
<path fill="none" stroke="#63b8ff" d="M141.48,-76.97C149.67,-77.98 158.01,-79.01 166.17,-80.01"/>
<polygon fill="#63b8ff" stroke="#63b8ff" points="165.69,-83.48 176.04,-81.23 166.55,-76.53 165.69,-83.48"/>
</a>
</g>
</g>
<!-- Node7 -->
<g id="Node000007" class="node">
<title>Node7</title>
<g id="a_Node000007"><a xlink:href="../../d3/d92/classfl_1_1scoped__array.html#ac726846a84175cb31ff545082729900c" target="_top" xlink:title=" ">
<polygon fill="white" stroke="#666666" points="292.25,-59.75 178,-59.75 178,-39 292.25,-39 292.25,-59.75"/>
<text text-anchor="middle" x="235.12" y="-46.25" font-family="Helvetica,sans-Serif" font-size="10.00">fl::scoped_array::get</text>
</a>
</g>
</g>
<!-- Node1&#45;&gt;Node7 -->
<g id="edge6_Node000001_Node000007" class="edge">
<title>Node1&#45;&gt;Node7</title>
<g id="a_edge6_Node000001_Node000007"><a xlink:title=" ">
<path fill="none" stroke="#63b8ff" d="M141.48,-60.21C149.67,-59.25 158.01,-58.27 166.17,-57.32"/>
<polygon fill="#63b8ff" stroke="#63b8ff" points="166.52,-60.8 176.04,-56.17 165.7,-53.85 166.52,-60.8"/>
</a>
</g>
</g>
<!-- Node8 -->
<g id="Node000008" class="node">
<title>Node8</title>
<g id="a_Node000008"><a xlink:href="../../db/ddd/classfl_1_1_heap_vector.html#ac653df54573cb42c284ace274c4daff9" target="_top" xlink:title=" ">
<polygon fill="white" stroke="#666666" points="293,-20.75 177.25,-20.75 177.25,0 293,0 293,-20.75"/>
<text text-anchor="middle" x="235.12" y="-7.25" font-family="Helvetica,sans-Serif" font-size="10.00">fl::HeapVector::swap</text>
</a>
</g>
</g>
<!-- Node1&#45;&gt;Node8 -->
<g id="edge7_Node000001_Node000008" class="edge">
<title>Node1&#45;&gt;Node8</title>
<g id="a_edge7_Node000001_Node000008"><a xlink:title=" ">
<path fill="none" stroke="#63b8ff" d="M119.18,-51.18C137.34,-44.64 158.25,-37.13 177.25,-30.38 182.23,-28.6 187.45,-26.76 192.63,-24.93"/>
<polygon fill="#63b8ff" stroke="#63b8ff" points="193.42,-28.36 201.69,-21.74 191.09,-21.76 193.42,-28.36"/>
</a>
</g>
</g>
<!-- Node3 -->
<g id="Node000003" class="node">
<title>Node3</title>
<g id="a_Node000003"><a xlink:href="../../d3/d73/classfl_1_1_fixed_vector.html#a624562170056be2d8e67a9a577c130b8" target="_top" xlink:title=" ">
<polygon fill="white" stroke="#666666" points="454.5,-137.75 340.25,-137.75 340.25,-117 454.5,-117 454.5,-137.75"/>
<text text-anchor="middle" x="397.38" y="-124.25" font-family="Helvetica,sans-Serif" font-size="10.00">fl::FixedVector::clear</text>
</a>
</g>
</g>
<!-- Node2&#45;&gt;Node3 -->
<g id="edge2_Node000002_Node000003" class="edge">
<title>Node2&#45;&gt;Node3</title>
<g id="a_edge2_Node000002_Node000003"><a xlink:title=" ">
<path fill="none" stroke="#63b8ff" d="M287.71,-127.38C300.72,-127.38 314.89,-127.38 328.56,-127.38"/>
<polygon fill="#63b8ff" stroke="#63b8ff" points="328.38,-130.88 338.38,-127.38 328.38,-123.88 328.38,-130.88"/>
</a>
</g>
</g>
<!-- Node4 -->
<g id="Node000004" class="node">
<title>Node4</title>
<g id="a_Node000004"><a xlink:href="../../d3/d73/classfl_1_1_fixed_vector.html#a86ca6e866b11e1089e3ac0c043f00e0b" target="_top" xlink:title=" ">
<polygon fill="white" stroke="#666666" points="638.5,-137.75 501.75,-137.75 501.75,-117 638.5,-117 638.5,-137.75"/>
<text text-anchor="middle" x="570.12" y="-124.25" font-family="Helvetica,sans-Serif" font-size="10.00">fl::FixedVector::pop_back</text>
</a>
</g>
</g>
<!-- Node3&#45;&gt;Node4 -->
<g id="edge3_Node000003_Node000004" class="edge">
<title>Node3&#45;&gt;Node4</title>
<g id="a_edge3_Node000003_Node000004"><a xlink:title=" ">
<path fill="none" stroke="#63b8ff" d="M454.76,-127.38C466.09,-127.38 478.21,-127.38 490.15,-127.38"/>
<polygon fill="#63b8ff" stroke="#63b8ff" points="490,-130.88 500,-127.38 490,-123.88 490,-130.88"/>
</a>
</g>
</g>
<!-- Node6 -->
<g id="Node000006" class="node">
<title>Node6</title>
<g id="a_Node000006"><a xlink:href="../../db/ddd/classfl_1_1_heap_vector.html#a6bdcbbf21b478646961663a3e43acff4" target="_top" xlink:title=" ">
<polygon fill="white" stroke="#666666" points="465.75,-98.75 329,-98.75 329,-78 465.75,-78 465.75,-98.75"/>
<text text-anchor="middle" x="397.38" y="-85.25" font-family="Helvetica,sans-Serif" font-size="10.00">fl::HeapVector::pop_back</text>
</a>
</g>
</g>
<!-- Node5&#45;&gt;Node6 -->
<g id="edge5_Node000005_Node000006" class="edge">
<title>Node5&#45;&gt;Node6</title>
<g id="a_edge5_Node000005_Node000006"><a xlink:title=" ">
<path fill="none" stroke="#63b8ff" d="M292.62,-88.38C300.61,-88.38 308.95,-88.38 317.27,-88.38"/>
<polygon fill="#63b8ff" stroke="#63b8ff" points="317.06,-91.88 327.06,-88.38 317.06,-84.88 317.06,-91.88"/>
</a>
</g>
</g>
</g>
</svg>
