<?xml version="1.0" encoding="UTF-8" standalone="no"?>
<!DOCTYPE svg PUBLIC "-//W3C//DTD SVG 1.1//EN"
 "http://www.w3.org/Graphics/SVG/1.1/DTD/svg11.dtd">
<!-- Generated by graphviz version 12.2.1 (20241206.2353)
 -->
<!-- Title: fl::RectangularDrawBuffer::onQueuingDone Pages: 1 -->
<svg width="657pt" height="337pt"
 viewBox="0.00 0.00 657.00 337.12" xmlns="http://www.w3.org/2000/svg" xmlns:xlink="http://www.w3.org/1999/xlink">
<g id="graph0" class="graph" transform="scale(1 1) rotate(0) translate(4 333.12)">
<title>fl::RectangularDrawBuffer::onQueuingDone</title>
<!-- Node1 -->
<g id="Node000001" class="node">
<title>Node1</title>
<g id="a_Node000001"><a xlink:title=" ">
<polygon fill="#999999" stroke="#666666" points="141.25,-164.12 0,-164.12 0,-130.62 141.25,-130.62 141.25,-164.12"/>
<text text-anchor="start" x="8" y="-150.62" font-family="Helvetica,sans-Serif" font-size="10.00">fl::RectangularDrawBuffer</text>
<text text-anchor="middle" x="70.62" y="-137.88" font-family="Helvetica,sans-Serif" font-size="10.00">::onQueuingDone</text>
</a>
</g>
</g>
<!-- Node2 -->
<g id="Node000002" class="node">
<title>Node2</title>
<g id="a_Node000002"><a xlink:href="../../d1/de2/classfl_1_1_large_block_allocator.html#ad856621afa5c3bb9e8d417157f2c3d38" target="_top" xlink:title=" ">
<polygon fill="white" stroke="#666666" points="310.62,-329.12 185.12,-329.12 185.12,-295.62 310.62,-295.62 310.62,-329.12"/>
<text text-anchor="start" x="193.12" y="-315.62" font-family="Helvetica,sans-Serif" font-size="10.00">fl::LargeBlockAllocator</text>
<text text-anchor="middle" x="247.88" y="-302.88" font-family="Helvetica,sans-Serif" font-size="10.00">::Alloc</text>
</a>
</g>
</g>
<!-- Node1&#45;&gt;Node2 -->
<g id="edge1_Node000001_Node000002" class="edge">
<title>Node1&#45;&gt;Node2</title>
<g id="a_edge1_Node000001_Node000002"><a xlink:title=" ">
<path fill="none" stroke="#63b8ff" d="M81.24,-164.36C97.71,-192.14 133.76,-247.55 177.25,-281.38 181.17,-284.43 185.45,-287.25 189.88,-289.85"/>
<polygon fill="#63b8ff" stroke="#63b8ff" points="187.98,-292.8 198.44,-294.46 191.29,-286.64 187.98,-292.8"/>
</a>
</g>
</g>
<!-- Node4 -->
<g id="Node000004" class="node">
<title>Node4</title>
<g id="a_Node000004"><a xlink:href="../../db/ddd/classfl_1_1_heap_vector.html#aa52c25ba94c35ea3f05df279ee5a225b" target="_top" xlink:title=" ">
<polygon fill="white" stroke="#666666" points="649,-213.75 531.75,-213.75 531.75,-193 649,-193 649,-213.75"/>
<text text-anchor="middle" x="590.38" y="-200.25" font-family="Helvetica,sans-Serif" font-size="10.00">fl::HeapVector::begin</text>
</a>
</g>
</g>
<!-- Node1&#45;&gt;Node4 -->
<g id="edge3_Node000001_Node000004" class="edge">
<title>Node1&#45;&gt;Node4</title>
<g id="a_edge3_Node000001_Node000004"><a xlink:title=" ">
<path fill="none" stroke="#63b8ff" d="M82.82,-164.3C99.86,-188.35 134.86,-231.37 177.25,-248.38 202.65,-258.56 491.18,-242.36 495.75,-241.38 517.48,-236.69 540.63,-227.33 558.48,-219.08"/>
<polygon fill="#63b8ff" stroke="#63b8ff" points="559.96,-222.25 567.48,-214.78 556.95,-215.93 559.96,-222.25"/>
</a>
</g>
</g>
<!-- Node5 -->
<g id="Node000005" class="node">
<title>Node5</title>
<g id="a_Node000005"><a xlink:href="../../db/ddd/classfl_1_1_heap_vector.html#a85dba959a3cb0e1c8a5584b9b957443e" target="_top" xlink:title=" ">
<polygon fill="white" stroke="#666666" points="644.5,-152.75 536.25,-152.75 536.25,-132 644.5,-132 644.5,-152.75"/>
<text text-anchor="middle" x="590.38" y="-139.25" font-family="Helvetica,sans-Serif" font-size="10.00">fl::HeapVector::end</text>
</a>
</g>
</g>
<!-- Node1&#45;&gt;Node5 -->
<g id="edge4_Node000001_Node000005" class="edge">
<title>Node1&#45;&gt;Node5</title>
<g id="a_edge4_Node000001_Node000005"><a xlink:title=" ">
<path fill="none" stroke="#63b8ff" d="M106.35,-130.14C126.51,-121.1 152.7,-110.97 177.25,-106.38 202.35,-101.67 491.1,-108.54 495.75,-109.38 516.12,-113.04 537.98,-120.52 555.45,-127.44"/>
<polygon fill="#63b8ff" stroke="#63b8ff" points="553.72,-130.52 564.3,-131.06 556.37,-124.04 553.72,-130.52"/>
</a>
</g>
</g>
<!-- Node6 -->
<g id="Node000006" class="node">
<title>Node6</title>
<g id="a_Node000006"><a xlink:href="../../d1/de2/classfl_1_1_large_block_allocator.html#ad9d7253fbb523baa27ea1d0d406aacc1" target="_top" xlink:title=" ">
<polygon fill="white" stroke="#666666" points="310.62,-239.12 185.12,-239.12 185.12,-205.62 310.62,-205.62 310.62,-239.12"/>
<text text-anchor="start" x="193.12" y="-225.62" font-family="Helvetica,sans-Serif" font-size="10.00">fl::LargeBlockAllocator</text>
<text text-anchor="middle" x="247.88" y="-212.88" font-family="Helvetica,sans-Serif" font-size="10.00">::Free</text>
</a>
</g>
</g>
<!-- Node1&#45;&gt;Node6 -->
<g id="edge5_Node000001_Node000006" class="edge">
<title>Node1&#45;&gt;Node6</title>
<g id="a_edge5_Node000001_Node000006"><a xlink:title=" ">
<path fill="none" stroke="#63b8ff" d="M107.01,-164.62C127.38,-174.34 153.56,-186.48 177.25,-196.38 181.04,-197.96 184.97,-199.56 188.95,-201.13"/>
<polygon fill="#63b8ff" stroke="#63b8ff" points="187.49,-204.32 198.08,-204.69 190.04,-197.8 187.49,-204.32"/>
</a>
</g>
</g>
<!-- Node8 -->
<g id="Node000008" class="node">
<title>Node8</title>
<g id="a_Node000008"><a xlink:href="../../d3/d92/classfl_1_1scoped__array.html#ac726846a84175cb31ff545082729900c" target="_top" xlink:title=" ">
<polygon fill="white" stroke="#666666" points="305,-135.75 190.75,-135.75 190.75,-115 305,-115 305,-135.75"/>
<text text-anchor="middle" x="247.88" y="-122.25" font-family="Helvetica,sans-Serif" font-size="10.00">fl::scoped_array::get</text>
</a>
</g>
</g>
<!-- Node1&#45;&gt;Node8 -->
<g id="edge7_Node000001_Node000008" class="edge">
<title>Node1&#45;&gt;Node8</title>
<g id="a_edge7_Node000001_Node000008"><a xlink:title=" ">
<path fill="none" stroke="#63b8ff" d="M141.64,-138.59C154.05,-137.03 166.95,-135.41 179.29,-133.86"/>
<polygon fill="#63b8ff" stroke="#63b8ff" points="179.45,-137.37 188.94,-132.65 178.58,-130.42 179.45,-137.37"/>
</a>
</g>
</g>
<!-- Node9 -->
<g id="Node000009" class="node">
<title>Node9</title>
<g id="a_Node000009"><a xlink:href="../../de/d10/classfl_1_1_rectangular_draw_buffer.html#a106bb52955940f3087ecf12131090458" target="_top" xlink:title=" ">
<polygon fill="white" stroke="#666666" points="318.5,-187.12 177.25,-187.12 177.25,-153.62 318.5,-153.62 318.5,-187.12"/>
<text text-anchor="start" x="185.25" y="-173.62" font-family="Helvetica,sans-Serif" font-size="10.00">fl::RectangularDrawBuffer</text>
<text text-anchor="middle" x="247.88" y="-160.88" font-family="Helvetica,sans-Serif" font-size="10.00">::getBlockInfo</text>
</a>
</g>
</g>
<!-- Node1&#45;&gt;Node9 -->
<g id="edge8_Node000001_Node000009" class="edge">
<title>Node1&#45;&gt;Node9</title>
<g id="a_edge8_Node000001_Node000009"><a xlink:title=" ">
<path fill="none" stroke="#63b8ff" d="M141.64,-156.56C149.55,-157.6 157.65,-158.67 165.69,-159.72"/>
<polygon fill="#63b8ff" stroke="#63b8ff" points="165.1,-163.17 175.47,-161 166.01,-156.23 165.1,-163.17"/>
</a>
</g>
</g>
<!-- Node12 -->
<g id="Node000012" class="node">
<title>Node12</title>
<g id="a_Node000012"><a xlink:href="../../d3/d92/classfl_1_1scoped__array.html#a9b968a7427441d9c8abac6707a95bb9f" target="_top" xlink:title=" ">
<polygon fill="white" stroke="#666666" points="315.12,-59.75 180.62,-59.75 180.62,-39 315.12,-39 315.12,-59.75"/>
<text text-anchor="middle" x="247.88" y="-46.25" font-family="Helvetica,sans-Serif" font-size="10.00">fl::scoped_array::release</text>
</a>
</g>
</g>
<!-- Node1&#45;&gt;Node12 -->
<g id="edge13_Node000001_Node000012" class="edge">
<title>Node1&#45;&gt;Node12</title>
<g id="a_edge13_Node000001_Node000012"><a xlink:title=" ">
<path fill="none" stroke="#63b8ff" d="M92.36,-130.21C112.89,-113.87 145.73,-89.44 177.25,-73.38 183.98,-69.94 191.32,-66.81 198.63,-64.03"/>
<polygon fill="#63b8ff" stroke="#63b8ff" points="199.58,-67.41 207.8,-60.73 197.21,-60.82 199.58,-67.41"/>
</a>
</g>
</g>
<!-- Node13 -->
<g id="Node000013" class="node">
<title>Node13</title>
<g id="a_Node000013"><a xlink:href="../../d3/d92/classfl_1_1scoped__array.html#a180c38277d717e2554aba0d1e594cd3a" target="_top" xlink:title=" ">
<polygon fill="white" stroke="#666666" points="309.5,-20.75 186.25,-20.75 186.25,0 309.5,0 309.5,-20.75"/>
<text text-anchor="middle" x="247.88" y="-7.25" font-family="Helvetica,sans-Serif" font-size="10.00">fl::scoped_array::reset</text>
</a>
</g>
</g>
<!-- Node1&#45;&gt;Node13 -->
<g id="edge14_Node000001_Node000013" class="edge">
<title>Node1&#45;&gt;Node13</title>
<g id="a_edge14_Node000001_Node000013"><a xlink:title=" ">
<path fill="none" stroke="#63b8ff" d="M82.41,-130.31C99.44,-104.76 135,-56.75 177.25,-30.38 180,-28.66 182.9,-27.08 185.9,-25.64"/>
<polygon fill="#63b8ff" stroke="#63b8ff" points="187.11,-28.93 194.97,-21.82 184.39,-22.48 187.11,-28.93"/>
</a>
</g>
</g>
<!-- Node3 -->
<g id="Node000003" class="node">
<title>Node3</title>
<g id="a_Node000003"><a xlink:href="../../d4/d36/namespacefl.html#abbfba8ffcb35eb85959e52bc168242b2" target="_top" xlink:title=" ">
<polygon fill="white" stroke="#666666" points="486,-322.75 364.25,-322.75 364.25,-302 486,-302 486,-322.75"/>
<text text-anchor="middle" x="425.12" y="-309.25" font-family="Helvetica,sans-Serif" font-size="10.00">fl::LargeBlockAllocate</text>
</a>
</g>
</g>
<!-- Node2&#45;&gt;Node3 -->
<g id="edge2_Node000002_Node000003" class="edge">
<title>Node2&#45;&gt;Node3</title>
<g id="a_edge2_Node000002_Node000003"><a xlink:title=" ">
<path fill="none" stroke="#63b8ff" d="M310.66,-312.38C324.13,-312.38 338.5,-312.38 352.33,-312.38"/>
<polygon fill="#63b8ff" stroke="#63b8ff" points="352.27,-315.88 362.27,-312.38 352.27,-308.88 352.27,-315.88"/>
</a>
</g>
</g>
<!-- Node7 -->
<g id="Node000007" class="node">
<title>Node7</title>
<g id="a_Node000007"><a xlink:href="../../d4/d36/namespacefl.html#ab2b85462a826ee1c562964e9639eaa76" target="_top" xlink:title=" ">
<polygon fill="white" stroke="#666666" points="492.38,-232.75 357.88,-232.75 357.88,-212 492.38,-212 492.38,-232.75"/>
<text text-anchor="middle" x="425.12" y="-219.25" font-family="Helvetica,sans-Serif" font-size="10.00">fl::LargeBlockDeallocate</text>
</a>
</g>
</g>
<!-- Node6&#45;&gt;Node7 -->
<g id="edge6_Node000006_Node000007" class="edge">
<title>Node6&#45;&gt;Node7</title>
<g id="a_edge6_Node000006_Node000007"><a xlink:title=" ">
<path fill="none" stroke="#63b8ff" d="M310.66,-222.38C322.16,-222.38 334.31,-222.38 346.23,-222.38"/>
<polygon fill="#63b8ff" stroke="#63b8ff" points="346.03,-225.88 356.03,-222.38 346.03,-218.88 346.03,-225.88"/>
</a>
</g>
</g>
<!-- Node10 -->
<g id="Node000010" class="node">
<title>Node10</title>
<g id="a_Node000010"><a xlink:href="../../de/d10/classfl_1_1_rectangular_draw_buffer.html#a87f728161573a58fb2bef6c684281bc8" target="_top" xlink:title=" ">
<polygon fill="white" stroke="#666666" points="495.75,-190.12 354.5,-190.12 354.5,-156.62 495.75,-156.62 495.75,-190.12"/>
<text text-anchor="start" x="362.5" y="-176.62" font-family="Helvetica,sans-Serif" font-size="10.00">fl::RectangularDrawBuffer</text>
<text text-anchor="middle" x="425.12" y="-163.88" font-family="Helvetica,sans-Serif" font-size="10.00">::getMaxBytesInStrip</text>
</a>
</g>
</g>
<!-- Node9&#45;&gt;Node10 -->
<g id="edge9_Node000009_Node000010" class="edge">
<title>Node9&#45;&gt;Node10</title>
<g id="a_edge9_Node000009_Node000010"><a xlink:title=" ">
<path fill="none" stroke="#63b8ff" d="M318.89,-171.57C326.8,-171.71 334.9,-171.85 342.94,-171.99"/>
<polygon fill="#63b8ff" stroke="#63b8ff" points="342.65,-175.48 352.7,-172.15 342.77,-168.48 342.65,-175.48"/>
</a>
</g>
</g>
<!-- Node11 -->
<g id="Node000011" class="node">
<title>Node11</title>
<g id="a_Node000011"><a xlink:href="../../db/ddd/classfl_1_1_heap_vector.html#a37e5c0526e1be1bdc4c17139ac026939" target="_top" xlink:title=" ">
<polygon fill="white" stroke="#666666" points="480,-138.75 370.25,-138.75 370.25,-118 480,-118 480,-138.75"/>
<text text-anchor="middle" x="425.12" y="-125.25" font-family="Helvetica,sans-Serif" font-size="10.00">fl::HeapVector::size</text>
</a>
</g>
</g>
<!-- Node9&#45;&gt;Node11 -->
<g id="edge12_Node000009_Node000011" class="edge">
<title>Node9&#45;&gt;Node11</title>
<g id="a_edge12_Node000009_Node000011"><a xlink:title=" ">
<path fill="none" stroke="#63b8ff" d="M318.89,-153.59C335.16,-149.7 352.27,-145.6 367.85,-141.86"/>
<polygon fill="#63b8ff" stroke="#63b8ff" points="368.52,-145.3 377.42,-139.57 366.88,-138.49 368.52,-145.3"/>
</a>
</g>
</g>
<!-- Node10&#45;&gt;Node4 -->
<g id="edge10_Node000010_Node000004" class="edge">
<title>Node10&#45;&gt;Node4</title>
<g id="a_edge10_Node000010_Node000004"><a xlink:title=" ">
<path fill="none" stroke="#63b8ff" d="M495.83,-186.18C503.9,-187.67 512.13,-189.18 520.19,-190.66"/>
<polygon fill="#63b8ff" stroke="#63b8ff" points="519.49,-194.09 529.96,-192.46 520.76,-187.21 519.49,-194.09"/>
</a>
</g>
</g>
<!-- Node10&#45;&gt;Node5 -->
<g id="edge11_Node000010_Node000005" class="edge">
<title>Node10&#45;&gt;Node5</title>
<g id="a_edge11_Node000010_Node000005"><a xlink:title=" ">
<path fill="none" stroke="#63b8ff" d="M495.83,-160.14C505.55,-158.29 515.5,-156.4 525.11,-154.58"/>
<polygon fill="#63b8ff" stroke="#63b8ff" points="525.54,-158.06 534.71,-152.75 524.24,-151.18 525.54,-158.06"/>
</a>
</g>
</g>
</g>
</svg>
