<?xml version="1.0" encoding="UTF-8" standalone="no"?>
<!DOCTYPE svg PUBLIC "-//W3C//DTD SVG 1.1//EN"
 "http://www.w3.org/Graphics/SVG/1.1/DTD/svg11.dtd">
<!-- Generated by graphviz version 12.2.1 (20241206.2353)
 -->
<!-- Title: /home/runner/work/FastLED/FastLED/src/file_system.h Pages: 1 -->
<svg width="702pt" height="382pt"
 viewBox="0.00 0.00 702.00 382.00" xmlns="http://www.w3.org/2000/svg" xmlns:xlink="http://www.w3.org/1999/xlink">
<g id="graph0" class="graph" transform="scale(1 1) rotate(0) translate(4 378)">
<title>/home/runner/work/FastLED/FastLED/src/file_system.h</title>
<!-- Node1 -->
<g id="Node000001" class="node">
<title>Node1</title>
<g id="a_Node000001"><a xlink:title=" ">
<polygon fill="#999999" stroke="#666666" points="357.75,-374 208.25,-374 208.25,-340.5 357.75,-340.5 357.75,-374"/>
<text text-anchor="start" x="216.25" y="-360.5" font-family="Helvetica,sans-Serif" font-size="10.00">/home/runner/work/FastLED</text>
<text text-anchor="middle" x="283" y="-347.75" font-family="Helvetica,sans-Serif" font-size="10.00">/FastLED/src/file_system.h</text>
</a>
</g>
</g>
<!-- Node2 -->
<g id="Node000002" class="node">
<title>Node2</title>
<g id="a_Node000002"><a xlink:href="../../d9/d28/fl_2file__system_8h.html" target="_top" xlink:title=" ">
<polygon fill="white" stroke="#666666" points="328.12,-304.5 237.88,-304.5 237.88,-283.75 328.12,-283.75 328.12,-304.5"/>
<text text-anchor="middle" x="283" y="-291" font-family="Helvetica,sans-Serif" font-size="10.00">fl/file_system.h</text>
</a>
</g>
</g>
<!-- Node1&#45;&gt;Node2 -->
<g id="edge1_Node000001_Node000002" class="edge">
<title>Node1&#45;&gt;Node2</title>
<g id="a_edge1_Node000001_Node000002"><a xlink:title=" ">
<path fill="none" stroke="#63b8ff" d="M283,-340.19C283,-332.85 283,-324.07 283,-316.21"/>
<polygon fill="#63b8ff" stroke="#63b8ff" points="286.5,-316.48 283,-306.48 279.5,-316.48 286.5,-316.48"/>
</a>
</g>
</g>
<!-- Node3 -->
<g id="Node000003" class="node">
<title>Node3</title>
<g id="a_Node000003"><a xlink:title=" ">
<polygon fill="#e0e0e0" stroke="#999999" points="625.38,-20.75 572.62,-20.75 572.62,0 625.38,0 625.38,-20.75"/>
<text text-anchor="middle" x="599" y="-7.25" font-family="Helvetica,sans-Serif" font-size="10.00">stdint.h</text>
</a>
</g>
</g>
<!-- Node2&#45;&gt;Node3 -->
<g id="edge2_Node000002_Node000003" class="edge">
<title>Node2&#45;&gt;Node3</title>
<g id="a_edge2_Node000002_Node000003"><a xlink:title=" ">
<path fill="none" stroke="#63b8ff" d="M328.55,-290.42C435.56,-282.81 694,-256.67 694,-181.62 694,-181.62 694,-181.62 694,-122.88 694,-80.56 653.87,-46.15 625.77,-27.24"/>
<polygon fill="#63b8ff" stroke="#63b8ff" points="628,-24.51 617.7,-22.04 624.2,-30.4 628,-24.51"/>
</a>
</g>
</g>
<!-- Node4 -->
<g id="Node000004" class="node">
<title>Node4</title>
<g id="a_Node000004"><a xlink:title=" ">
<polygon fill="#e0e0e0" stroke="#999999" points="65.5,-20.75 10.5,-20.75 10.5,0 65.5,0 65.5,-20.75"/>
<text text-anchor="middle" x="38" y="-7.25" font-family="Helvetica,sans-Serif" font-size="10.00">stddef.h</text>
</a>
</g>
</g>
<!-- Node2&#45;&gt;Node4 -->
<g id="edge3_Node000002_Node000004" class="edge">
<title>Node2&#45;&gt;Node4</title>
<g id="a_edge3_Node000002_Node000004"><a xlink:title=" ">
<path fill="none" stroke="#63b8ff" d="M237.63,-287.71C197.42,-281.71 137.82,-269.81 90,-247.75 44.93,-226.96 0,-231.26 0,-181.62 0,-181.62 0,-181.62 0,-122.88 0,-89.26 15.66,-52.85 26.88,-31.09"/>
<polygon fill="#63b8ff" stroke="#63b8ff" points="29.86,-32.94 31.51,-22.47 23.69,-29.62 29.86,-32.94"/>
</a>
</g>
</g>
<!-- Node5 -->
<g id="Node000005" class="node">
<title>Node5</title>
<g id="a_Node000005"><a xlink:href="../../df/d2a/namespace_8h.html" target="_top" xlink:title="Implements the FastLED namespace macros.">
<polygon fill="white" stroke="#666666" points="343.12,-20.75 252.88,-20.75 252.88,0 343.12,0 343.12,-20.75"/>
<text text-anchor="middle" x="298" y="-7.25" font-family="Helvetica,sans-Serif" font-size="10.00">fl/namespace.h</text>
</a>
</g>
</g>
<!-- Node2&#45;&gt;Node5 -->
<g id="edge4_Node000002_Node000005" class="edge">
<title>Node2&#45;&gt;Node5</title>
<g id="a_edge4_Node000002_Node000005"><a xlink:title=" ">
<path fill="none" stroke="#63b8ff" d="M237.57,-288.69C176.64,-279.95 76,-254.49 76,-181.62 76,-181.62 76,-181.62 76,-122.88 76,-92.3 72.74,-77.71 95,-56.75 115.88,-37.09 189,-24.35 241.5,-17.52"/>
<polygon fill="#63b8ff" stroke="#63b8ff" points="241.71,-21.03 251.19,-16.3 240.83,-14.08 241.71,-21.03"/>
</a>
</g>
</g>
<!-- Node6 -->
<g id="Node000006" class="node">
<title>Node6</title>
<g id="a_Node000006"><a xlink:href="../../d7/df1/fl_2ptr_8h.html" target="_top" xlink:title=" ">
<polygon fill="white" stroke="#666666" points="241.38,-134.25 194.62,-134.25 194.62,-113.5 241.38,-113.5 241.38,-134.25"/>
<text text-anchor="middle" x="218" y="-120.75" font-family="Helvetica,sans-Serif" font-size="10.00">fl/ptr.h</text>
</a>
</g>
</g>
<!-- Node2&#45;&gt;Node6 -->
<g id="edge5_Node000002_Node000006" class="edge">
<title>Node2&#45;&gt;Node6</title>
<g id="a_edge5_Node000002_Node000006"><a xlink:title=" ">
<path fill="none" stroke="#63b8ff" d="M279.32,-283.6C269.04,-257 239.89,-181.52 225.8,-145.07"/>
<polygon fill="#63b8ff" stroke="#63b8ff" points="229.22,-144.2 222.35,-136.13 222.69,-146.72 229.22,-144.2"/>
</a>
</g>
</g>
<!-- Node9 -->
<g id="Node000009" class="node">
<title>Node9</title>
<g id="a_Node000009"><a xlink:href="../../dd/d78/video_8h.html" target="_top" xlink:title=" ">
<polygon fill="white" stroke="#666666" points="458.38,-247.75 393.62,-247.75 393.62,-227 458.38,-227 458.38,-247.75"/>
<text text-anchor="middle" x="426" y="-234.25" font-family="Helvetica,sans-Serif" font-size="10.00">fx/video.h</text>
</a>
</g>
</g>
<!-- Node2&#45;&gt;Node9 -->
<g id="edge14_Node000002_Node000009" class="edge">
<title>Node2&#45;&gt;Node9</title>
<g id="a_edge14_Node000002_Node000009"><a xlink:title=" ">
<path fill="none" stroke="#63b8ff" d="M308.57,-283.34C331.24,-274.66 364.6,-261.88 389.98,-252.17"/>
<polygon fill="#63b8ff" stroke="#63b8ff" points="391.15,-255.46 399.24,-248.62 388.65,-248.93 391.15,-255.46"/>
</a>
</g>
</g>
<!-- Node23 -->
<g id="Node000023" class="node">
<title>Node23</title>
<g id="a_Node000023"><a xlink:href="../../dc/d0e/fl_2str_8h.html" target="_top" xlink:title=" ">
<polygon fill="#fff0f0" stroke="red" points="345,-191 299,-191 299,-170.25 345,-170.25 345,-191"/>
<text text-anchor="middle" x="322" y="-177.5" font-family="Helvetica,sans-Serif" font-size="10.00">fl/str.h</text>
</a>
</g>
</g>
<!-- Node2&#45;&gt;Node23 -->
<g id="edge30_Node000002_Node000023" class="edge">
<title>Node2&#45;&gt;Node23</title>
<g id="a_edge30_Node000002_Node000023"><a xlink:title=" ">
<path fill="none" stroke="#63b8ff" d="M286.33,-283.62C292.6,-265.69 306.3,-226.5 314.78,-202.26"/>
<polygon fill="#63b8ff" stroke="#63b8ff" points="318.07,-203.45 318.07,-192.85 311.47,-201.14 318.07,-203.45"/>
</a>
</g>
</g>
<!-- Node6&#45;&gt;Node4 -->
<g id="edge6_Node000006_Node000004" class="edge">
<title>Node6&#45;&gt;Node4</title>
<g id="a_edge6_Node000006_Node000004"><a xlink:title=" ">
<path fill="none" stroke="#63b8ff" d="M194.59,-117.98C168.55,-111.72 126.05,-99.03 95,-77.5 76.58,-64.73 60.42,-44.65 50.06,-29.96"/>
<polygon fill="#63b8ff" stroke="#63b8ff" points="53.21,-28.38 44.7,-22.07 47.42,-32.31 53.21,-28.38"/>
</a>
</g>
</g>
<!-- Node6&#45;&gt;Node5 -->
<g id="edge7_Node000006_Node000005" class="edge">
<title>Node6&#45;&gt;Node5</title>
<g id="a_edge7_Node000006_Node000005"><a xlink:title=" ">
<path fill="none" stroke="#63b8ff" d="M219.81,-113.13C222.71,-99.51 229.39,-74.46 242,-56.75 250.06,-45.44 261.66,-35.4 272.22,-27.66"/>
<polygon fill="#63b8ff" stroke="#63b8ff" points="274.02,-30.67 280.24,-22.1 270.03,-24.92 274.02,-30.67"/>
</a>
</g>
</g>
<!-- Node7 -->
<g id="Node000007" class="node">
<title>Node7</title>
<g id="a_Node000007"><a xlink:href="../../df/d28/fl_2scoped__ptr_8h.html" target="_top" xlink:title=" ">
<polygon fill="white" stroke="#666666" points="190.25,-77.5 103.75,-77.5 103.75,-56.75 190.25,-56.75 190.25,-77.5"/>
<text text-anchor="middle" x="147" y="-64" font-family="Helvetica,sans-Serif" font-size="10.00">fl/scoped_ptr.h</text>
</a>
</g>
</g>
<!-- Node6&#45;&gt;Node7 -->
<g id="edge8_Node000006_Node000007" class="edge">
<title>Node6&#45;&gt;Node7</title>
<g id="a_edge8_Node000006_Node000007"><a xlink:title=" ">
<path fill="none" stroke="#63b8ff" d="M205.31,-113.09C195.11,-105.22 180.56,-94 168.54,-84.74"/>
<polygon fill="#63b8ff" stroke="#63b8ff" points="170.84,-82.09 160.78,-78.75 166.56,-87.63 170.84,-82.09"/>
</a>
</g>
</g>
<!-- Node8 -->
<g id="Node000008" class="node">
<title>Node8</title>
<g id="a_Node000008"><a xlink:href="../../d8/d0c/template__magic_8h.html" target="_top" xlink:title=" ">
<polygon fill="white" stroke="#666666" points="397.75,-77.5 284.25,-77.5 284.25,-56.75 397.75,-56.75 397.75,-77.5"/>
<text text-anchor="middle" x="341" y="-64" font-family="Helvetica,sans-Serif" font-size="10.00">fl/template_magic.h</text>
</a>
</g>
</g>
<!-- Node6&#45;&gt;Node8 -->
<g id="edge11_Node000006_Node000008" class="edge">
<title>Node6&#45;&gt;Node8</title>
<g id="a_edge11_Node000006_Node000008"><a xlink:title=" ">
<path fill="none" stroke="#63b8ff" d="M239.99,-113.09C259.14,-104.56 287.16,-92.09 308.83,-82.44"/>
<polygon fill="#63b8ff" stroke="#63b8ff" points="310.11,-85.71 317.82,-78.44 307.26,-79.31 310.11,-85.71"/>
</a>
</g>
</g>
<!-- Node7&#45;&gt;Node4 -->
<g id="edge9_Node000007_Node000004" class="edge">
<title>Node7&#45;&gt;Node4</title>
<g id="a_edge9_Node000007_Node000004"><a xlink:title=" ">
<path fill="none" stroke="#63b8ff" d="M127.51,-56.34C110.85,-47.97 86.62,-35.79 67.56,-26.22"/>
<polygon fill="#63b8ff" stroke="#63b8ff" points="69.18,-23.12 58.67,-21.76 66.04,-29.37 69.18,-23.12"/>
</a>
</g>
</g>
<!-- Node7&#45;&gt;Node5 -->
<g id="edge10_Node000007_Node000005" class="edge">
<title>Node7&#45;&gt;Node5</title>
<g id="a_edge10_Node000007_Node000005"><a xlink:title=" ">
<path fill="none" stroke="#63b8ff" d="M174,-56.34C198.08,-47.61 233.58,-34.73 260.43,-25"/>
<polygon fill="#63b8ff" stroke="#63b8ff" points="261.35,-28.39 269.56,-21.69 258.97,-21.8 261.35,-28.39"/>
</a>
</g>
</g>
<!-- Node8&#45;&gt;Node3 -->
<g id="edge12_Node000008_Node000003" class="edge">
<title>Node8&#45;&gt;Node3</title>
<g id="a_edge12_Node000008_Node000003"><a xlink:title=" ">
<path fill="none" stroke="#63b8ff" d="M387.42,-56.27C437.18,-45.72 515.2,-29.16 561.3,-19.37"/>
<polygon fill="#63b8ff" stroke="#63b8ff" points="561.76,-22.86 570.82,-17.36 560.31,-16.01 561.76,-22.86"/>
</a>
</g>
</g>
<!-- Node8&#45;&gt;Node5 -->
<g id="edge13_Node000008_Node000005" class="edge">
<title>Node8&#45;&gt;Node5</title>
<g id="a_edge13_Node000008_Node000005"><a xlink:title=" ">
<path fill="none" stroke="#63b8ff" d="M333.31,-56.34C327.56,-49.02 319.53,-38.79 312.58,-29.94"/>
<polygon fill="#63b8ff" stroke="#63b8ff" points="315.49,-27.97 306.56,-22.27 309.98,-32.3 315.49,-27.97"/>
</a>
</g>
</g>
<!-- Node9&#45;&gt;Node3 -->
<g id="edge15_Node000009_Node000003" class="edge">
<title>Node9&#45;&gt;Node3</title>
<g id="a_edge15_Node000009_Node000003"><a xlink:title=" ">
<path fill="none" stroke="#63b8ff" d="M458.65,-229.45C483.41,-222.88 517.14,-210.98 541,-191 586.44,-152.96 594.83,-134.52 611,-77.5 615.29,-62.37 611.74,-44.85 607.41,-31.65"/>
<polygon fill="#63b8ff" stroke="#63b8ff" points="610.72,-30.49 603.95,-22.34 604.16,-32.94 610.72,-30.49"/>
</a>
</g>
</g>
<!-- Node9&#45;&gt;Node5 -->
<g id="edge16_Node000009_Node000005" class="edge">
<title>Node9&#45;&gt;Node5</title>
<g id="a_edge16_Node000009_Node000005"><a xlink:title=" ">
<path fill="none" stroke="#63b8ff" d="M428.11,-226.59C433.82,-197.42 446.56,-109.79 407,-56.75 394.28,-39.7 373.96,-29.01 354.29,-22.34"/>
<polygon fill="#63b8ff" stroke="#63b8ff" points="355.52,-19.05 344.93,-19.47 353.47,-25.75 355.52,-19.05"/>
</a>
</g>
</g>
<!-- Node9&#45;&gt;Node6 -->
<g id="edge17_Node000009_Node000006" class="edge">
<title>Node9&#45;&gt;Node6</title>
<g id="a_edge17_Node000009_Node000006"><a xlink:title=" ">
<path fill="none" stroke="#63b8ff" d="M393.32,-229.57C364.7,-222.68 322.7,-210.27 290,-191 267.96,-178.01 246.92,-157.4 233.33,-142.64"/>
<polygon fill="#63b8ff" stroke="#63b8ff" points="236.18,-140.57 226.91,-135.45 230.97,-145.24 236.18,-140.57"/>
</a>
</g>
</g>
<!-- Node10 -->
<g id="Node000010" class="node">
<title>Node10</title>
<g id="a_Node000010"><a xlink:href="../../da/d81/fx1d_8h.html" target="_top" xlink:title=" ">
<polygon fill="#fff0f0" stroke="red" points="551.75,-77.5 492.25,-77.5 492.25,-56.75 551.75,-56.75 551.75,-77.5"/>
<text text-anchor="middle" x="522" y="-64" font-family="Helvetica,sans-Serif" font-size="10.00">fx/fx1d.h</text>
</a>
</g>
</g>
<!-- Node9&#45;&gt;Node10 -->
<g id="edge18_Node000009_Node000010" class="edge">
<title>Node9&#45;&gt;Node10</title>
<g id="a_edge18_Node000009_Node000010"><a xlink:title=" ">
<path fill="none" stroke="#63b8ff" d="M458.62,-230.52C480.93,-224.64 508.93,-213.12 523,-191 542.87,-159.77 535.34,-114.42 528.43,-88.45"/>
<polygon fill="#63b8ff" stroke="#63b8ff" points="531.88,-87.77 525.73,-79.15 525.16,-89.73 531.88,-87.77"/>
</a>
</g>
</g>
<!-- Node29 -->
<g id="Node000029" class="node">
<title>Node29</title>
<g id="a_Node000029"><a xlink:href="../../de/df7/time_8h.html" target="_top" xlink:title=" ">
<polygon fill="#fff0f0" stroke="red" points="514.12,-191 453.88,-191 453.88,-170.25 514.12,-170.25 514.12,-191"/>
<text text-anchor="middle" x="484" y="-177.5" font-family="Helvetica,sans-Serif" font-size="10.00">fx/time.h</text>
</a>
</g>
</g>
<!-- Node9&#45;&gt;Node29 -->
<g id="edge21_Node000009_Node000029" class="edge">
<title>Node9&#45;&gt;Node29</title>
<g id="a_edge21_Node000009_Node000029"><a xlink:title=" ">
<path fill="none" stroke="#63b8ff" d="M436.37,-226.59C444.45,-218.96 455.88,-208.17 465.52,-199.07"/>
<polygon fill="#63b8ff" stroke="#63b8ff" points="467.75,-201.78 472.62,-192.37 462.95,-196.69 467.75,-201.78"/>
</a>
</g>
</g>
<!-- Node9&#45;&gt;Node23 -->
<g id="edge25_Node000009_Node000023" class="edge">
<title>Node9&#45;&gt;Node23</title>
<g id="a_edge25_Node000009_Node000023"><a xlink:title=" ">
<path fill="none" stroke="#63b8ff" d="M407.41,-226.59C391.58,-218.26 368.6,-206.16 350.46,-196.61"/>
<polygon fill="#63b8ff" stroke="#63b8ff" points="352.25,-193.59 341.77,-192.03 348.99,-199.79 352.25,-193.59"/>
</a>
</g>
</g>
<!-- Node10&#45;&gt;Node3 -->
<g id="edge19_Node000010_Node000003" class="edge">
<title>Node10&#45;&gt;Node3</title>
<g id="a_edge19_Node000010_Node000003"><a xlink:title=" ">
<path fill="none" stroke="#63b8ff" d="M535.77,-56.34C546.93,-48.4 562.92,-37.03 576.02,-27.71"/>
<polygon fill="#63b8ff" stroke="#63b8ff" points="578,-30.6 584.12,-21.96 573.94,-24.9 578,-30.6"/>
</a>
</g>
</g>
<!-- Node10&#45;&gt;Node5 -->
<g id="edge20_Node000010_Node000005" class="edge">
<title>Node10&#45;&gt;Node5</title>
<g id="a_edge20_Node000010_Node000005"><a xlink:title=" ">
<path fill="none" stroke="#63b8ff" d="M491.79,-58.74C455.32,-49.83 393.4,-34.69 349.38,-23.93"/>
<polygon fill="#63b8ff" stroke="#63b8ff" points="350.33,-20.56 339.78,-21.59 348.67,-27.36 350.33,-20.56"/>
</a>
</g>
</g>
<!-- Node29&#45;&gt;Node3 -->
<g id="edge22_Node000029_Node000003" class="edge">
<title>Node29&#45;&gt;Node3</title>
<g id="a_edge22_Node000029_Node000003"><a xlink:title=" ">
<path fill="none" stroke="#63b8ff" d="M500.68,-169.93C525.98,-154.19 573.3,-120.46 594,-77.5 600.74,-63.51 601.77,-45.9 601.23,-32.38"/>
<polygon fill="#63b8ff" stroke="#63b8ff" points="604.72,-32.13 600.48,-22.42 597.74,-32.65 604.72,-32.13"/>
</a>
</g>
</g>
<!-- Node29&#45;&gt;Node5 -->
<g id="edge24_Node000029_Node000005" class="edge">
<title>Node29&#45;&gt;Node5</title>
<g id="a_edge24_Node000029_Node000005"><a xlink:title=" ">
<path fill="none" stroke="#63b8ff" d="M483.35,-169.77C481.28,-146.67 472.92,-88.55 440,-56.75 417.08,-34.61 383.35,-23.27 354.51,-17.46"/>
<polygon fill="#63b8ff" stroke="#63b8ff" points="355.28,-14.04 344.81,-15.7 354.03,-20.93 355.28,-14.04"/>
</a>
</g>
</g>
<!-- Node29&#45;&gt;Node6 -->
<g id="edge23_Node000029_Node000006" class="edge">
<title>Node29&#45;&gt;Node6</title>
<g id="a_edge23_Node000029_Node000006"><a xlink:title=" ">
<path fill="none" stroke="#63b8ff" d="M453.49,-173.34C403.63,-163.08 305.01,-142.78 252.61,-132"/>
<polygon fill="#63b8ff" stroke="#63b8ff" points="253.54,-128.62 243.04,-130.03 252.13,-135.47 253.54,-128.62"/>
</a>
</g>
</g>
<!-- Node23&#45;&gt;Node3 -->
<g id="edge26_Node000023_Node000003" class="edge">
<title>Node23&#45;&gt;Node3</title>
<g id="a_edge26_Node000023_Node000003"><a xlink:title=" ">
<path fill="none" stroke="#63b8ff" d="M345.39,-174.87C391.52,-164.46 495.4,-135.8 561,-77.5 575.06,-65.01 585.21,-46.02 591.47,-31.6"/>
<polygon fill="#63b8ff" stroke="#63b8ff" points="594.6,-33.2 595.09,-22.62 588.1,-30.58 594.6,-33.2"/>
</a>
</g>
</g>
<!-- Node23&#45;&gt;Node5 -->
<g id="edge29_Node000023_Node000005" class="edge">
<title>Node23&#45;&gt;Node5</title>
<g id="a_edge29_Node000023_Node000005"><a xlink:title=" ">
<path fill="none" stroke="#63b8ff" d="M315.82,-169.98C304.98,-152.43 282.94,-113.72 275,-77.5 273.03,-68.49 272.86,-65.72 275,-56.75 277.15,-47.76 281.39,-38.53 285.64,-30.77"/>
<polygon fill="#63b8ff" stroke="#63b8ff" points="288.61,-32.64 290.69,-22.25 282.58,-29.07 288.61,-32.64"/>
</a>
</g>
</g>
<!-- Node23&#45;&gt;Node6 -->
<g id="edge27_Node000023_Node000006" class="edge">
<title>Node23&#45;&gt;Node6</title>
<g id="a_edge27_Node000023_Node000006"><a xlink:title=" ">
<path fill="none" stroke="#63b8ff" d="M303.41,-169.84C287.58,-161.51 264.6,-149.41 246.46,-139.86"/>
<polygon fill="#63b8ff" stroke="#63b8ff" points="248.25,-136.84 237.77,-135.28 244.99,-143.04 248.25,-136.84"/>
</a>
</g>
</g>
<!-- Node23&#45;&gt;Node8 -->
<g id="edge28_Node000023_Node000008" class="edge">
<title>Node23&#45;&gt;Node8</title>
<g id="a_edge28_Node000023_Node000008"><a xlink:title=" ">
<path fill="none" stroke="#63b8ff" d="M323.62,-170.12C326.66,-152.27 333.29,-113.36 337.43,-89.09"/>
<polygon fill="#63b8ff" stroke="#63b8ff" points="340.85,-89.86 339.08,-79.42 333.95,-88.69 340.85,-89.86"/>
</a>
</g>
</g>
</g>
</svg>
