<?xml version="1.0" encoding="UTF-8" standalone="no"?>
<!DOCTYPE svg PUBLIC "-//W3C//DTD SVG 1.1//EN"
 "http://www.w3.org/Graphics/SVG/1.1/DTD/svg11.dtd">
<!-- Generated by graphviz version 12.2.1 (20241206.2353)
 -->
<!-- Title: CLEDController::head Pages: 1 -->
<svg width="704pt" height="600pt"
 viewBox="0.00 0.00 704.25 599.50" xmlns="http://www.w3.org/2000/svg" xmlns:xlink="http://www.w3.org/1999/xlink">
<g id="graph0" class="graph" transform="scale(1 1) rotate(0) translate(4 595.5)">
<title>CLEDController::head</title>
<!-- Node1 -->
<g id="Node000001" class="node">
<title>Node1</title>
<g id="a_Node000001"><a xlink:title="Get the first LED controller in the linked list of controllers.">
<polygon fill="#999999" stroke="#666666" points="696.25,-423.12 576.75,-423.12 576.75,-402.38 696.25,-402.38 696.25,-423.12"/>
<text text-anchor="middle" x="636.5" y="-409.62" font-family="Helvetica,sans-Serif" font-size="10.00">CLEDController::head</text>
</a>
</g>
</g>
<!-- Node2 -->
<g id="Node000002" class="node">
<title>Node2</title>
<g id="a_Node000002"><a xlink:href="../../d3/d1d/group___power.html#gaeb674bb1095873cfaab1bc2796541020" target="_top" xlink:title="Determines the highest brightness level you can use and still stay under the specified power budget f...">
<polygon fill="white" stroke="#666666" points="540.75,-591.5 397.25,-591.5 397.25,-558 540.75,-558 540.75,-591.5"/>
<text text-anchor="start" x="405.25" y="-578" font-family="Helvetica,sans-Serif" font-size="10.00">calculate_max_brightness</text>
<text text-anchor="middle" x="469" y="-565.25" font-family="Helvetica,sans-Serif" font-size="10.00">_for_power_mW</text>
</a>
</g>
</g>
<!-- Node1&#45;&gt;Node2 -->
<g id="edge1_Node000001_Node000002" class="edge">
<title>Node1&#45;&gt;Node2</title>
<g id="a_edge1_Node000001_Node000002"><a xlink:title=" ">
<path fill="none" stroke="#63b8ff" d="M626.04,-433.66C611.64,-463.26 581.56,-517.26 540.75,-548.75 536.4,-552.11 531.57,-555.06 526.54,-557.66"/>
<polygon fill="#63b8ff" stroke="#63b8ff" points="629.03,-435.52 630.13,-424.98 622.7,-432.53 629.03,-435.52"/>
</a>
</g>
</g>
<!-- Node3 -->
<g id="Node000003" class="node">
<title>Node3</title>
<g id="a_Node000003"><a xlink:href="../../dd/dbb/class_c_fast_l_e_d.html#ac4f613f1b3e618528dca3189df88ce80" target="_top" xlink:title="Clear out the local data array.">
<polygon fill="white" stroke="#666666" points="526.12,-540.12 411.88,-540.12 411.88,-519.38 526.12,-519.38 526.12,-540.12"/>
<text text-anchor="middle" x="469" y="-526.62" font-family="Helvetica,sans-Serif" font-size="10.00">CFastLED::clearData</text>
</a>
</g>
</g>
<!-- Node1&#45;&gt;Node3 -->
<g id="edge2_Node000001_Node000003" class="edge">
<title>Node1&#45;&gt;Node3</title>
<g id="a_edge2_Node000001_Node000003"><a xlink:title=" ">
<path fill="none" stroke="#63b8ff" d="M621.21,-432.68C604.39,-454.71 574.44,-489.72 540.75,-509.75 534.61,-513.4 527.76,-516.41 520.82,-518.89"/>
<polygon fill="#63b8ff" stroke="#63b8ff" points="623.92,-434.9 627.08,-424.79 618.3,-430.73 623.92,-434.9"/>
</a>
</g>
</g>
<!-- Node5 -->
<g id="Node000005" class="node">
<title>Node5</title>
<g id="a_Node000005"><a xlink:href="../../dd/dbb/class_c_fast_l_e_d.html#ae5730545ea18b1f5228172f9d246beb6" target="_top" xlink:title="Get how many controllers have been registered.">
<polygon fill="white" stroke="#666666" points="516,-501.12 422,-501.12 422,-480.38 516,-480.38 516,-501.12"/>
<text text-anchor="middle" x="469" y="-487.62" font-family="Helvetica,sans-Serif" font-size="10.00">CFastLED::count</text>
</a>
</g>
</g>
<!-- Node1&#45;&gt;Node5 -->
<g id="edge4_Node000001_Node000005" class="edge">
<title>Node1&#45;&gt;Node5</title>
<g id="a_edge4_Node000001_Node000005"><a xlink:title=" ">
<path fill="none" stroke="#63b8ff" d="M611.35,-430.1C592.78,-442.79 566.1,-459.66 540.75,-470.75 532.68,-474.28 523.82,-477.36 515.18,-479.98"/>
<polygon fill="#63b8ff" stroke="#63b8ff" points="613.33,-432.99 619.53,-424.4 609.33,-427.25 613.33,-432.99"/>
</a>
</g>
</g>
<!-- Node6 -->
<g id="Node000006" class="node">
<title>Node6</title>
<g id="a_Node000006"><a xlink:href="../../dd/dbb/class_c_fast_l_e_d.html#a646128b7d8c14b5020b285dbc8bc713b" target="_top" xlink:title="Get a reference to a registered controller.">
<polygon fill="white" stroke="#666666" points="526.88,-462.12 411.12,-462.12 411.12,-441.38 526.88,-441.38 526.88,-462.12"/>
<text text-anchor="middle" x="469" y="-448.62" font-family="Helvetica,sans-Serif" font-size="10.00">CFastLED::operator[]</text>
</a>
</g>
</g>
<!-- Node1&#45;&gt;Node6 -->
<g id="edge5_Node000001_Node000006" class="edge">
<title>Node1&#45;&gt;Node6</title>
<g id="a_edge5_Node000001_Node000006"><a xlink:title=" ">
<path fill="none" stroke="#63b8ff" d="M578.38,-426.21C558.05,-431 535.43,-436.33 516.14,-440.88"/>
<polygon fill="#63b8ff" stroke="#63b8ff" points="579,-429.66 587.93,-423.96 577.39,-422.85 579,-429.66"/>
</a>
</g>
</g>
<!-- Node7 -->
<g id="Node000007" class="node">
<title>Node7</title>
<g id="a_Node000007"><a xlink:href="../../dd/dbb/class_c_fast_l_e_d.html#ad266c3e649cc12a6dc49a1e229acc282" target="_top" xlink:title="Set a global color correction.">
<polygon fill="white" stroke="#666666" points="535.12,-423.12 402.88,-423.12 402.88,-402.38 535.12,-402.38 535.12,-423.12"/>
<text text-anchor="middle" x="469" y="-409.62" font-family="Helvetica,sans-Serif" font-size="10.00">CFastLED::setCorrection</text>
</a>
</g>
</g>
<!-- Node1&#45;&gt;Node7 -->
<g id="edge6_Node000001_Node000007" class="edge">
<title>Node1&#45;&gt;Node7</title>
<g id="a_edge6_Node000001_Node000007"><a xlink:title=" ">
<path fill="none" stroke="#63b8ff" d="M565.21,-412.75C555.32,-412.75 545.18,-412.75 535.38,-412.75"/>
<polygon fill="#63b8ff" stroke="#63b8ff" points="565.17,-416.25 575.17,-412.75 565.17,-409.25 565.17,-416.25"/>
</a>
</g>
</g>
<!-- Node8 -->
<g id="Node000008" class="node">
<title>Node8</title>
<g id="a_Node000008"><a xlink:href="../../dd/dbb/class_c_fast_l_e_d.html#a7ae5d3864df01101d82d242c123ffb36" target="_top" xlink:title="Set the dithering mode.">
<polygon fill="white" stroke="#666666" points="525,-345.12 413,-345.12 413,-324.38 525,-324.38 525,-345.12"/>
<text text-anchor="middle" x="469" y="-331.62" font-family="Helvetica,sans-Serif" font-size="10.00">CFastLED::setDither</text>
</a>
</g>
</g>
<!-- Node1&#45;&gt;Node8 -->
<g id="edge7_Node000001_Node000008" class="edge">
<title>Node1&#45;&gt;Node8</title>
<g id="a_edge7_Node000001_Node000008"><a xlink:title=" ">
<path fill="none" stroke="#63b8ff" d="M611.35,-395.4C592.78,-382.71 566.1,-365.84 540.75,-354.75 532.68,-351.22 523.82,-348.14 515.18,-345.52"/>
<polygon fill="#63b8ff" stroke="#63b8ff" points="609.33,-398.25 619.53,-401.1 613.33,-392.51 609.33,-398.25"/>
</a>
</g>
</g>
<!-- Node10 -->
<g id="Node000010" class="node">
<title>Node10</title>
<g id="a_Node000010"><a xlink:href="../../dd/dbb/class_c_fast_l_e_d.html#a28c2dfb0ec592db03f3063ade135f19f" target="_top" xlink:title="Set a global color temperature.">
<polygon fill="white" stroke="#666666" points="540.75,-306.12 397.25,-306.12 397.25,-285.38 540.75,-285.38 540.75,-306.12"/>
<text text-anchor="middle" x="469" y="-292.62" font-family="Helvetica,sans-Serif" font-size="10.00">CFastLED::setTemperature</text>
</a>
</g>
</g>
<!-- Node1&#45;&gt;Node10 -->
<g id="edge9_Node000001_Node000010" class="edge">
<title>Node1&#45;&gt;Node10</title>
<g id="a_edge9_Node000001_Node000010"><a xlink:title=" ">
<path fill="none" stroke="#63b8ff" d="M621.21,-392.82C604.39,-370.79 574.44,-335.78 540.75,-315.75 534.61,-312.1 527.76,-309.09 520.82,-306.61"/>
<polygon fill="#63b8ff" stroke="#63b8ff" points="618.3,-394.77 627.08,-400.71 623.92,-390.6 618.3,-394.77"/>
</a>
</g>
</g>
<!-- Node12 -->
<g id="Node000012" class="node">
<title>Node12</title>
<g id="a_Node000012"><a xlink:href="../../dd/dbb/class_c_fast_l_e_d.html#a83afdd1e2a21f33ac4f8d2610d6e331b" target="_top" xlink:title="Update all our controllers with the current led colors, using the passed in brightness.">
<polygon fill="white" stroke="#666666" points="515.25,-170.12 422.75,-170.12 422.75,-149.38 515.25,-149.38 515.25,-170.12"/>
<text text-anchor="middle" x="469" y="-156.62" font-family="Helvetica,sans-Serif" font-size="10.00">CFastLED::show</text>
</a>
</g>
</g>
<!-- Node1&#45;&gt;Node12 -->
<g id="edge11_Node000001_Node000012" class="edge">
<title>Node1&#45;&gt;Node12</title>
<g id="a_edge11_Node000001_Node000012"><a xlink:title=" ">
<path fill="none" stroke="#63b8ff" d="M622.09,-392.26C588.65,-341.13 502.4,-209.28 477.08,-170.58"/>
<polygon fill="#63b8ff" stroke="#63b8ff" points="619.16,-394.16 627.56,-400.61 625.01,-390.33 619.16,-394.16"/>
</a>
</g>
</g>
<!-- Node26 -->
<g id="Node000026" class="node">
<title>Node26</title>
<g id="a_Node000026"><a xlink:href="../../dd/dbb/class_c_fast_l_e_d.html#a7315b060d295bad5fbd32e50eaaf02b0" target="_top" xlink:title="Set all leds on all controllers to the given color/scale.">
<polygon fill="white" stroke="#666666" points="528,-384.12 410,-384.12 410,-363.38 528,-363.38 528,-384.12"/>
<text text-anchor="middle" x="469" y="-370.62" font-family="Helvetica,sans-Serif" font-size="10.00">CFastLED::showColor</text>
</a>
</g>
</g>
<!-- Node1&#45;&gt;Node26 -->
<g id="edge25_Node000001_Node000026" class="edge">
<title>Node1&#45;&gt;Node26</title>
<g id="a_edge25_Node000001_Node000026"><a xlink:title=" ">
<path fill="none" stroke="#63b8ff" d="M578.38,-399.29C558.05,-394.5 535.43,-389.17 516.14,-384.62"/>
<polygon fill="#63b8ff" stroke="#63b8ff" points="577.39,-402.65 587.93,-401.54 579,-395.84 577.39,-402.65"/>
</a>
</g>
</g>
<!-- Node4 -->
<g id="Node000004" class="node">
<title>Node4</title>
<g id="a_Node000004"><a xlink:href="../../dd/dbb/class_c_fast_l_e_d.html#aeb7bd3e8f2dbced6284a2182191d5fcb" target="_top" xlink:title="Clear the leds, wiping the local array of data.">
<polygon fill="white" stroke="#666666" points="323.38,-462.12 232.38,-462.12 232.38,-441.38 323.38,-441.38 323.38,-462.12"/>
<text text-anchor="middle" x="277.88" y="-448.62" font-family="Helvetica,sans-Serif" font-size="10.00">CFastLED::clear</text>
</a>
</g>
</g>
<!-- Node3&#45;&gt;Node4 -->
<g id="edge3_Node000003_Node000004" class="edge">
<title>Node3&#45;&gt;Node4</title>
<g id="a_edge3_Node000003_Node000004"><a xlink:title=" ">
<path fill="none" stroke="#63b8ff" d="M414.01,-515.58C408.3,-513.76 402.63,-511.81 397.25,-509.75 361.13,-495.92 321.11,-475.08 298.08,-462.5"/>
<polygon fill="#63b8ff" stroke="#63b8ff" points="412.91,-518.91 423.5,-518.48 414.95,-512.21 412.91,-518.91"/>
</a>
</g>
</g>
<!-- Node9 -->
<g id="Node000009" class="node">
<title>Node9</title>
<g id="a_Node000009"><a xlink:href="../../d8/d2c/_fire2023_8ino.html#a4fc01d736fe50cf5b977f755b675f11d" target="_top" xlink:title=" ">
<polygon fill="white" stroke="#666666" points="299.38,-345.12 256.38,-345.12 256.38,-324.38 299.38,-324.38 299.38,-345.12"/>
<text text-anchor="middle" x="277.88" y="-331.62" font-family="Helvetica,sans-Serif" font-size="10.00">setup</text>
</a>
</g>
</g>
<!-- Node8&#45;&gt;Node9 -->
<g id="edge8_Node000008_Node000009" class="edge">
<title>Node8&#45;&gt;Node9</title>
<g id="a_edge8_Node000008_Node000009"><a xlink:title=" ">
<path fill="none" stroke="#63b8ff" d="M401.16,-334.75C365.41,-334.75 323.86,-334.75 299.56,-334.75"/>
<polygon fill="#63b8ff" stroke="#63b8ff" points="401.02,-338.25 411.02,-334.75 401.02,-331.25 401.02,-338.25"/>
</a>
</g>
</g>
<!-- Node11 -->
<g id="Node000011" class="node">
<title>Node11</title>
<g id="a_Node000011"><a xlink:href="../../d7/d22/_color_temperature_8ino.html#afe461d27b9c48d5921c00d521181f12f" target="_top" xlink:title=" ">
<polygon fill="white" stroke="#666666" points="296.38,-306.12 259.38,-306.12 259.38,-285.38 296.38,-285.38 296.38,-306.12"/>
<text text-anchor="middle" x="277.88" y="-292.62" font-family="Helvetica,sans-Serif" font-size="10.00">loop</text>
</a>
</g>
</g>
<!-- Node10&#45;&gt;Node11 -->
<g id="edge10_Node000010_Node000011" class="edge">
<title>Node10&#45;&gt;Node11</title>
<g id="a_edge10_Node000010_Node000011"><a xlink:title=" ">
<path fill="none" stroke="#63b8ff" d="M385.6,-295.75C352.38,-295.75 317.12,-295.75 296.59,-295.75"/>
<polygon fill="#63b8ff" stroke="#63b8ff" points="385.26,-299.25 395.26,-295.75 385.26,-292.25 385.26,-299.25"/>
</a>
</g>
</g>
<!-- Node13 -->
<g id="Node000013" class="node">
<title>Node13</title>
<g id="a_Node000013"><a xlink:href="../../d5/d4d/_blink_parallel_8ino.html#a29584c4a240c144644e81dfab0090635" target="_top" xlink:title=" ">
<polygon fill="white" stroke="#666666" points="297.88,-267.12 257.88,-267.12 257.88,-246.38 297.88,-246.38 297.88,-267.12"/>
<text text-anchor="middle" x="277.88" y="-253.62" font-family="Helvetica,sans-Serif" font-size="10.00">blink</text>
</a>
</g>
</g>
<!-- Node12&#45;&gt;Node13 -->
<g id="edge12_Node000012_Node000013" class="edge">
<title>Node12&#45;&gt;Node13</title>
<g id="a_edge12_Node000012_Node000013"><a xlink:title=" ">
<path fill="none" stroke="#63b8ff" d="M448.07,-177.81C427.67,-195.35 394.37,-221.5 361.25,-236.75 340.8,-246.17 315.37,-251.47 298.22,-254.22"/>
<polygon fill="#63b8ff" stroke="#63b8ff" points="450.13,-180.65 455.34,-171.42 445.52,-175.39 450.13,-180.65"/>
</a>
</g>
</g>
<!-- Node15 -->
<g id="Node000015" class="node">
<title>Node15</title>
<g id="a_Node000015"><a xlink:href="../../d5/db2/_octo_w_s2811_8ino.html#a87dad6cde22368918813bc56504b0dee" target="_top" xlink:title=" ">
<polygon fill="white" stroke="#666666" points="310.25,-228.12 245.5,-228.12 245.5,-207.38 310.25,-207.38 310.25,-228.12"/>
<text text-anchor="middle" x="277.88" y="-214.62" font-family="Helvetica,sans-Serif" font-size="10.00">colorWipe</text>
</a>
</g>
</g>
<!-- Node12&#45;&gt;Node15 -->
<g id="edge14_Node000012_Node000015" class="edge">
<title>Node12&#45;&gt;Node15</title>
<g id="a_edge14_Node000012_Node000015"><a xlink:title=" ">
<path fill="none" stroke="#63b8ff" d="M429.53,-174.53C409.36,-182.01 384.15,-190.91 361.25,-197.75 344.61,-202.72 325.81,-207.35 310.37,-210.91"/>
<polygon fill="#63b8ff" stroke="#63b8ff" points="430.61,-177.87 438.75,-171.08 428.16,-171.31 430.61,-177.87"/>
</a>
</g>
</g>
<!-- Node17 -->
<g id="Node000017" class="node">
<title>Node17</title>
<g id="a_Node000017"><a xlink:href="../../d1/d3a/_r_g_b_w_emulated_8ino.html#a7786953e7de2513a3589a490e1e3355a" target="_top" xlink:title=" ">
<polygon fill="white" stroke="#666666" points="314.38,-189.12 241.38,-189.12 241.38,-168.38 314.38,-168.38 314.38,-189.12"/>
<text text-anchor="middle" x="277.88" y="-175.62" font-family="Helvetica,sans-Serif" font-size="10.00">fillAndShow</text>
</a>
</g>
</g>
<!-- Node12&#45;&gt;Node17 -->
<g id="edge16_Node000012_Node000017" class="edge">
<title>Node12&#45;&gt;Node17</title>
<g id="a_edge16_Node000012_Node000017"><a xlink:title=" ">
<path fill="none" stroke="#63b8ff" d="M411.47,-165.43C380.06,-168.58 341.94,-172.41 314.65,-175.16"/>
<polygon fill="#63b8ff" stroke="#63b8ff" points="411.59,-168.93 421.19,-164.45 410.89,-161.97 411.59,-168.93"/>
</a>
</g>
</g>
<!-- Node19 -->
<g id="Node000019" class="node">
<title>Node19</title>
<g id="a_Node000019"><a xlink:href="../../dd/d0f/_apa102_8ino.html#afe461d27b9c48d5921c00d521181f12f" target="_top" xlink:title=" ">
<polygon fill="white" stroke="#666666" points="296.38,-150.12 259.38,-150.12 259.38,-129.38 296.38,-129.38 296.38,-150.12"/>
<text text-anchor="middle" x="277.88" y="-136.62" font-family="Helvetica,sans-Serif" font-size="10.00">loop</text>
</a>
</g>
</g>
<!-- Node12&#45;&gt;Node19 -->
<g id="edge18_Node000012_Node000019" class="edge">
<title>Node12&#45;&gt;Node19</title>
<g id="a_edge18_Node000012_Node000019"><a xlink:title=" ">
<path fill="none" stroke="#63b8ff" d="M411.43,-153.77C372.24,-149.62 322.6,-144.37 296.6,-141.62"/>
<polygon fill="#63b8ff" stroke="#63b8ff" points="410.88,-157.23 421.19,-154.8 411.62,-150.27 410.88,-157.23"/>
</a>
</g>
</g>
<!-- Node20 -->
<g id="Node000020" class="node">
<title>Node20</title>
<g id="a_Node000020"><a xlink:href="../../d4/df6/class_led_rope_t_c_l.html#a2c5c772faf24596d5be70d96581e7454" target="_top" xlink:title=" ">
<polygon fill="white" stroke="#666666" points="361.25,-111.12 194.5,-111.12 194.5,-90.38 361.25,-90.38 361.25,-111.12"/>
<text text-anchor="middle" x="277.88" y="-97.62" font-family="Helvetica,sans-Serif" font-size="10.00">LedRopeTCL::RawCommitDraw</text>
</a>
</g>
</g>
<!-- Node12&#45;&gt;Node20 -->
<g id="edge19_Node000012_Node000020" class="edge">
<title>Node12&#45;&gt;Node20</title>
<g id="a_edge19_Node000012_Node000020"><a xlink:title=" ">
<path fill="none" stroke="#63b8ff" d="M430.4,-144.84C410.1,-137.09 384.51,-127.8 361.25,-120.75 350.41,-117.46 338.63,-114.34 327.47,-111.59"/>
<polygon fill="#63b8ff" stroke="#63b8ff" points="429.08,-148.08 439.67,-148.42 431.6,-141.55 429.08,-148.08"/>
</a>
</g>
</g>
<!-- Node24 -->
<g id="Node000024" class="node">
<title>Node24</title>
<g id="a_Node000024"><a xlink:href="../../d1/ddb/_chromancer_8ino.html#a4fc01d736fe50cf5b977f755b675f11d" target="_top" xlink:title=" ">
<polygon fill="white" stroke="#666666" points="299.38,-72.12 256.38,-72.12 256.38,-51.38 299.38,-51.38 299.38,-72.12"/>
<text text-anchor="middle" x="277.88" y="-58.62" font-family="Helvetica,sans-Serif" font-size="10.00">setup</text>
</a>
</g>
</g>
<!-- Node12&#45;&gt;Node24 -->
<g id="edge23_Node000012_Node000024" class="edge">
<title>Node12&#45;&gt;Node24</title>
<g id="a_edge23_Node000012_Node000024"><a xlink:title=" ">
<path fill="none" stroke="#63b8ff" d="M448.11,-141.45C427.75,-123.67 394.47,-97.17 361.25,-81.75 341.36,-72.52 316.72,-67.26 299.59,-64.47"/>
<polygon fill="#63b8ff" stroke="#63b8ff" points="445.58,-143.88 455.38,-147.92 450.24,-138.66 445.58,-143.88"/>
</a>
</g>
</g>
<!-- Node25 -->
<g id="Node000025" class="node">
<title>Node25</title>
<g id="a_Node000025"><a xlink:href="../../d3/d1d/group___power.html#ga510b6ca1ea6da7f0f89dcf353f19ffde" target="_top" xlink:title="Similar to CFastLED::show(), but pre&#45;adjusts brightness to keep below the power threshold.">
<polygon fill="white" stroke="#666666" points="347.75,-33.5 208,-33.5 208,0 347.75,0 347.75,-33.5"/>
<text text-anchor="start" x="216" y="-20" font-family="Helvetica,sans-Serif" font-size="10.00">show_at_max_brightness</text>
<text text-anchor="middle" x="277.88" y="-7.25" font-family="Helvetica,sans-Serif" font-size="10.00">_for_power</text>
</a>
</g>
</g>
<!-- Node12&#45;&gt;Node25 -->
<g id="edge24_Node000012_Node000025" class="edge">
<title>Node12&#45;&gt;Node25</title>
<g id="a_edge24_Node000012_Node000025"><a xlink:title=" ">
<path fill="none" stroke="#63b8ff" d="M454.82,-139.71C436.71,-113.71 401.75,-68.62 361.25,-42.75 356.07,-39.44 350.43,-36.52 344.62,-33.96"/>
<polygon fill="#63b8ff" stroke="#63b8ff" points="451.74,-141.41 460.26,-147.72 457.53,-137.48 451.74,-141.41"/>
</a>
</g>
</g>
<!-- Node14 -->
<g id="Node000014" class="node">
<title>Node14</title>
<g id="a_Node000014"><a xlink:href="../../d5/d4d/_blink_parallel_8ino.html#afe461d27b9c48d5921c00d521181f12f" target="_top" xlink:title=" ">
<polygon fill="white" stroke="#666666" points="97.75,-267.12 60.75,-267.12 60.75,-246.38 97.75,-246.38 97.75,-267.12"/>
<text text-anchor="middle" x="79.25" y="-253.62" font-family="Helvetica,sans-Serif" font-size="10.00">loop</text>
</a>
</g>
</g>
<!-- Node13&#45;&gt;Node14 -->
<g id="edge13_Node000013_Node000014" class="edge">
<title>Node13&#45;&gt;Node14</title>
<g id="a_edge13_Node000013_Node000014"><a xlink:title=" ">
<path fill="none" stroke="#63b8ff" d="M246.34,-256.75C204.78,-256.75 131.73,-256.75 98.11,-256.75"/>
<polygon fill="#63b8ff" stroke="#63b8ff" points="246.15,-260.25 256.15,-256.75 246.15,-253.25 246.15,-260.25"/>
</a>
</g>
</g>
<!-- Node16 -->
<g id="Node000016" class="node">
<title>Node16</title>
<g id="a_Node000016"><a xlink:href="../../d5/db2/_octo_w_s2811_8ino.html#afe461d27b9c48d5921c00d521181f12f" target="_top" xlink:title=" ">
<polygon fill="white" stroke="#666666" points="97.75,-228.12 60.75,-228.12 60.75,-207.38 97.75,-207.38 97.75,-228.12"/>
<text text-anchor="middle" x="79.25" y="-214.62" font-family="Helvetica,sans-Serif" font-size="10.00">loop</text>
</a>
</g>
</g>
<!-- Node15&#45;&gt;Node16 -->
<g id="edge15_Node000015_Node000016" class="edge">
<title>Node15&#45;&gt;Node16</title>
<g id="a_edge15_Node000015_Node000016"><a xlink:title=" ">
<path fill="none" stroke="#63b8ff" d="M233.91,-217.75C191.51,-217.75 128.74,-217.75 98.22,-217.75"/>
<polygon fill="#63b8ff" stroke="#63b8ff" points="233.77,-221.25 243.77,-217.75 233.77,-214.25 233.77,-221.25"/>
</a>
</g>
</g>
<!-- Node18 -->
<g id="Node000018" class="node">
<title>Node18</title>
<g id="a_Node000018"><a xlink:href="../../d1/d3a/_r_g_b_w_emulated_8ino.html#afe461d27b9c48d5921c00d521181f12f" target="_top" xlink:title=" ">
<polygon fill="white" stroke="#666666" points="97.75,-189.12 60.75,-189.12 60.75,-168.38 97.75,-168.38 97.75,-189.12"/>
<text text-anchor="middle" x="79.25" y="-175.62" font-family="Helvetica,sans-Serif" font-size="10.00">loop</text>
</a>
</g>
</g>
<!-- Node17&#45;&gt;Node18 -->
<g id="edge17_Node000017_Node000018" class="edge">
<title>Node17&#45;&gt;Node18</title>
<g id="a_edge17_Node000017_Node000018"><a xlink:title=" ">
<path fill="none" stroke="#63b8ff" d="M229.85,-178.75C187.58,-178.75 127.75,-178.75 98.2,-178.75"/>
<polygon fill="#63b8ff" stroke="#63b8ff" points="229.75,-182.25 239.75,-178.75 229.75,-175.25 229.75,-182.25"/>
</a>
</g>
</g>
<!-- Node21 -->
<g id="Node000021" class="node">
<title>Node21</title>
<g id="a_Node000021"><a xlink:href="../../d4/df6/class_led_rope_t_c_l.html#a842cac2350fad4c68d21d232f6a8a4c0" target="_top" xlink:title=" ">
<polygon fill="white" stroke="#666666" points="132.62,-150.12 25.88,-150.12 25.88,-129.38 132.62,-129.38 132.62,-150.12"/>
<text text-anchor="middle" x="79.25" y="-136.62" font-family="Helvetica,sans-Serif" font-size="10.00">LedRopeTCL::Draw</text>
</a>
</g>
</g>
<!-- Node20&#45;&gt;Node21 -->
<g id="edge20_Node000020_Node000021" class="edge">
<title>Node20&#45;&gt;Node21</title>
<g id="a_edge20_Node000020_Node000021"><a xlink:title=" ">
<path fill="none" stroke="#63b8ff" d="M211.07,-113.8C185.68,-118.84 157.03,-124.52 133.03,-129.28"/>
<polygon fill="#63b8ff" stroke="#63b8ff" points="211.49,-117.29 220.62,-111.91 210.13,-110.42 211.49,-117.29"/>
</a>
</g>
</g>
<!-- Node22 -->
<g id="Node000022" class="node">
<title>Node22</title>
<g id="a_Node000022"><a xlink:href="../../d4/df6/class_led_rope_t_c_l.html#af19abbbe43110da5fd09c169d9ab9307" target="_top" xlink:title=" ">
<polygon fill="white" stroke="#666666" points="149.88,-111.12 8.62,-111.12 8.62,-90.38 149.88,-90.38 149.88,-111.12"/>
<text text-anchor="middle" x="79.25" y="-97.62" font-family="Helvetica,sans-Serif" font-size="10.00">LedRopeTCL::DrawRepeat</text>
</a>
</g>
</g>
<!-- Node20&#45;&gt;Node22 -->
<g id="edge21_Node000020_Node000022" class="edge">
<title>Node20&#45;&gt;Node22</title>
<g id="a_edge21_Node000020_Node000022"><a xlink:title=" ">
<path fill="none" stroke="#63b8ff" d="M182.7,-100.75C171.76,-100.75 160.75,-100.75 150.22,-100.75"/>
<polygon fill="#63b8ff" stroke="#63b8ff" points="182.54,-104.25 192.54,-100.75 182.54,-97.25 182.54,-104.25"/>
</a>
</g>
</g>
<!-- Node23 -->
<g id="Node000023" class="node">
<title>Node23</title>
<g id="a_Node000023"><a xlink:href="../../d4/df6/class_led_rope_t_c_l.html#a90f6e3d74b585d37be799107d77421c8" target="_top" xlink:title=" ">
<polygon fill="white" stroke="#666666" points="158.5,-72.5 0,-72.5 0,-39 158.5,-39 158.5,-72.5"/>
<text text-anchor="start" x="8" y="-59" font-family="Helvetica,sans-Serif" font-size="10.00">LedRopeTCL::DrawSequential</text>
<text text-anchor="middle" x="79.25" y="-46.25" font-family="Helvetica,sans-Serif" font-size="10.00">Repeat</text>
</a>
</g>
</g>
<!-- Node20&#45;&gt;Node23 -->
<g id="edge22_Node000020_Node000023" class="edge">
<title>Node20&#45;&gt;Node23</title>
<g id="a_edge22_Node000020_Node000023"><a xlink:title=" ">
<path fill="none" stroke="#63b8ff" d="M218.73,-87.44C198.87,-82.9 176.37,-77.75 155.37,-72.94"/>
<polygon fill="#63b8ff" stroke="#63b8ff" points="217.77,-90.81 228.3,-89.63 219.34,-83.99 217.77,-90.81"/>
</a>
</g>
</g>
<!-- Node26&#45;&gt;Node4 -->
<g id="edge26_Node000026_Node000004" class="edge">
<title>Node26&#45;&gt;Node4</title>
<g id="a_edge26_Node000026_Node000004"><a xlink:title=" ">
<path fill="none" stroke="#63b8ff" d="M414.01,-387.92C408.3,-389.74 402.63,-391.69 397.25,-393.75 361.13,-407.58 321.11,-428.42 298.08,-441"/>
<polygon fill="#63b8ff" stroke="#63b8ff" points="414.95,-391.29 423.5,-385.02 412.91,-384.59 414.95,-391.29"/>
</a>
</g>
</g>
</g>
</svg>
