<?xml version="1.0" encoding="UTF-8" standalone="no"?>
<!DOCTYPE svg PUBLIC "-//W3C//DTD SVG 1.1//EN"
 "http://www.w3.org/Graphics/SVG/1.1/DTD/svg11.dtd">
<!-- Generated by graphviz version 12.2.1 (20241206.2353)
 -->
<!-- Title: CLEDController::show Pages: 1 -->
<svg width="706pt" height="314pt"
 viewBox="0.00 0.00 705.75 313.75" xmlns="http://www.w3.org/2000/svg" xmlns:xlink="http://www.w3.org/1999/xlink">
<g id="graph0" class="graph" transform="scale(1 1) rotate(0) translate(4 309.75)">
<title>CLEDController::show</title>
<!-- Node1 -->
<g id="Node000001" class="node">
<title>Node1</title>
<g id="a_Node000001"><a xlink:title="Write the passed in RGB data out to the LEDs managed by this controller.">
<polygon fill="#999999" stroke="#666666" points="697.75,-125.75 576.75,-125.75 576.75,-105 697.75,-105 697.75,-125.75"/>
<text text-anchor="middle" x="637.25" y="-112.25" font-family="Helvetica,sans-Serif" font-size="10.00">CLEDController::show</text>
</a>
</g>
</g>
<!-- Node2 -->
<g id="Node000002" class="node">
<title>Node2</title>
<g id="a_Node000002"><a xlink:href="../../d6/d2c/class_c_l_e_d_controller.html#abc7283545360463878e52698e58d4af4" target="_top" xlink:title=" ">
<polygon fill="white" stroke="#666666" points="540.75,-148.75 382.25,-148.75 382.25,-128 540.75,-128 540.75,-148.75"/>
<text text-anchor="middle" x="461.5" y="-135.25" font-family="Helvetica,sans-Serif" font-size="10.00">CLEDController::showInternal</text>
</a>
</g>
</g>
<!-- Node1&#45;&gt;Node2 -->
<g id="edge1_Node000001_Node000002" class="edge">
<title>Node1&#45;&gt;Node2</title>
<g id="a_edge1_Node000001_Node000002"><a xlink:title=" ">
<path fill="none" stroke="#63b8ff" d="M565.05,-124.8C557.17,-125.84 549.1,-126.91 541.12,-127.97"/>
<polygon fill="#63b8ff" stroke="#63b8ff" points="565.5,-128.27 574.95,-123.49 564.58,-121.33 565.5,-128.27"/>
</a>
</g>
</g>
<!-- Node3 -->
<g id="Node000003" class="node">
<title>Node3</title>
<g id="a_Node000003"><a xlink:href="../../d6/d2c/class_c_l_e_d_controller.html#ac5355e980ac13d9ae97561f183f73990" target="_top" xlink:title="Write the data to the LEDs managed by this controller.">
<polygon fill="white" stroke="#666666" points="533.25,-110.12 389.75,-110.12 389.75,-76.62 533.25,-76.62 533.25,-110.12"/>
<text text-anchor="start" x="397.75" y="-96.62" font-family="Helvetica,sans-Serif" font-size="10.00">CLEDController::showLeds</text>
<text text-anchor="middle" x="461.5" y="-83.88" font-family="Helvetica,sans-Serif" font-size="10.00">Internal</text>
</a>
</g>
</g>
<!-- Node1&#45;&gt;Node3 -->
<g id="edge2_Node000001_Node000003" class="edge">
<title>Node1&#45;&gt;Node3</title>
<g id="a_edge2_Node000001_Node000003"><a xlink:title=" ">
<path fill="none" stroke="#63b8ff" d="M565.24,-106.38C554.76,-105.06 543.96,-103.69 533.49,-102.36"/>
<polygon fill="#63b8ff" stroke="#63b8ff" points="564.59,-109.83 574.95,-107.61 565.47,-102.89 564.59,-109.83"/>
</a>
</g>
</g>
<!-- Node4 -->
<g id="Node000004" class="node">
<title>Node4</title>
<g id="a_Node000004"><a xlink:href="../../dd/dbb/class_c_fast_l_e_d.html#a83afdd1e2a21f33ac4f8d2610d6e331b" target="_top" xlink:title="Update all our controllers with the current led colors, using the passed in brightness.">
<polygon fill="white" stroke="#666666" points="320.75,-168.75 228.25,-168.75 228.25,-148 320.75,-148 320.75,-168.75"/>
<text text-anchor="middle" x="274.5" y="-155.25" font-family="Helvetica,sans-Serif" font-size="10.00">CFastLED::show</text>
</a>
</g>
</g>
<!-- Node3&#45;&gt;Node4 -->
<g id="edge3_Node000003_Node000004" class="edge">
<title>Node3&#45;&gt;Node4</title>
<g id="a_edge3_Node000003_Node000004"><a xlink:title=" ">
<path fill="none" stroke="#63b8ff" d="M397.58,-114.1C392.39,-115.87 387.23,-117.64 382.25,-119.38 355.79,-128.6 325.84,-139.59 304.41,-147.55"/>
<polygon fill="#63b8ff" stroke="#63b8ff" points="398.45,-117.5 406.8,-110.99 396.21,-110.87 398.45,-117.5"/>
</a>
</g>
</g>
<!-- Node18 -->
<g id="Node000018" class="node">
<title>Node18</title>
<g id="a_Node000018"><a xlink:href="../../d6/d2c/class_c_l_e_d_controller.html#a3b699c9cf0829d15fdc7ceb1d5166412" target="_top" xlink:title=" ">
<polygon fill="white" stroke="#666666" points="346.25,-84.75 202.75,-84.75 202.75,-64 346.25,-64 346.25,-84.75"/>
<text text-anchor="middle" x="274.5" y="-71.25" font-family="Helvetica,sans-Serif" font-size="10.00">CLEDController::showLeds</text>
</a>
</g>
</g>
<!-- Node3&#45;&gt;Node18 -->
<g id="edge11_Node000003_Node000018" class="edge">
<title>Node3&#45;&gt;Node18</title>
<g id="a_edge11_Node000003_Node000018"><a xlink:title=" ">
<path fill="none" stroke="#63b8ff" d="M378.18,-84.92C367.65,-83.84 356.94,-82.74 346.61,-81.68"/>
<polygon fill="#63b8ff" stroke="#63b8ff" points="377.69,-88.39 388,-85.93 378.41,-81.43 377.69,-88.39"/>
</a>
</g>
</g>
<!-- Node5 -->
<g id="Node000005" class="node">
<title>Node5</title>
<g id="a_Node000005"><a xlink:href="../../d5/d4d/_blink_parallel_8ino.html#a29584c4a240c144644e81dfab0090635" target="_top" xlink:title=" ">
<polygon fill="#fff0f0" stroke="red" points="103.38,-305.75 63.38,-305.75 63.38,-285 103.38,-285 103.38,-305.75"/>
<text text-anchor="middle" x="83.38" y="-292.25" font-family="Helvetica,sans-Serif" font-size="10.00">blink</text>
</a>
</g>
</g>
<!-- Node4&#45;&gt;Node5 -->
<g id="edge4_Node000004_Node000005" class="edge">
<title>Node4&#45;&gt;Node5</title>
<g id="a_edge4_Node000004_Node000005"><a xlink:title=" ">
<path fill="none" stroke="#63b8ff" d="M260.84,-178.43C243.1,-204.83 208.31,-250.76 166.75,-275.38 147.12,-287 121.06,-291.88 103.56,-293.92"/>
<polygon fill="#63b8ff" stroke="#63b8ff" points="263.61,-180.6 266.15,-170.31 257.75,-176.77 263.61,-180.6"/>
</a>
</g>
</g>
<!-- Node7 -->
<g id="Node000007" class="node">
<title>Node7</title>
<g id="a_Node000007"><a xlink:href="../../d5/db2/_octo_w_s2811_8ino.html#a87dad6cde22368918813bc56504b0dee" target="_top" xlink:title=" ">
<polygon fill="#fff0f0" stroke="red" points="115.75,-266.75 51,-266.75 51,-246 115.75,-246 115.75,-266.75"/>
<text text-anchor="middle" x="83.38" y="-253.25" font-family="Helvetica,sans-Serif" font-size="10.00">colorWipe</text>
</a>
</g>
</g>
<!-- Node4&#45;&gt;Node7 -->
<g id="edge5_Node000004_Node000007" class="edge">
<title>Node4&#45;&gt;Node7</title>
<g id="a_edge5_Node000004_Node000007"><a xlink:title=" ">
<path fill="none" stroke="#63b8ff" d="M253.61,-176.68C233.25,-194.45 199.97,-220.95 166.75,-236.38 150.73,-243.81 131.63,-248.67 115.86,-251.73"/>
<polygon fill="#63b8ff" stroke="#63b8ff" points="255.74,-179.47 260.88,-170.2 251.08,-174.24 255.74,-179.47"/>
</a>
</g>
</g>
<!-- Node9 -->
<g id="Node000009" class="node">
<title>Node9</title>
<g id="a_Node000009"><a xlink:href="../../d1/d3a/_r_g_b_w_emulated_8ino.html#a7786953e7de2513a3589a490e1e3355a" target="_top" xlink:title=" ">
<polygon fill="#fff0f0" stroke="red" points="119.88,-227.75 46.88,-227.75 46.88,-207 119.88,-207 119.88,-227.75"/>
<text text-anchor="middle" x="83.38" y="-214.25" font-family="Helvetica,sans-Serif" font-size="10.00">fillAndShow</text>
</a>
</g>
</g>
<!-- Node4&#45;&gt;Node9 -->
<g id="edge6_Node000004_Node000009" class="edge">
<title>Node4&#45;&gt;Node9</title>
<g id="a_edge6_Node000004_Node000009"><a xlink:title=" ">
<path fill="none" stroke="#63b8ff" d="M235.9,-173.28C215.6,-181.03 190.01,-190.33 166.75,-197.38 151.68,-201.94 134.82,-206.18 120.29,-209.58"/>
<polygon fill="#63b8ff" stroke="#63b8ff" points="237.1,-176.57 245.17,-169.71 234.58,-170.04 237.1,-176.57"/>
</a>
</g>
</g>
<!-- Node11 -->
<g id="Node000011" class="node">
<title>Node11</title>
<g id="a_Node000011"><a xlink:href="../../dd/d0f/_apa102_8ino.html#afe461d27b9c48d5921c00d521181f12f" target="_top" xlink:title=" ">
<polygon fill="white" stroke="#666666" points="101.88,-188.75 64.88,-188.75 64.88,-168 101.88,-168 101.88,-188.75"/>
<text text-anchor="middle" x="83.38" y="-175.25" font-family="Helvetica,sans-Serif" font-size="10.00">loop</text>
</a>
</g>
</g>
<!-- Node4&#45;&gt;Node11 -->
<g id="edge7_Node000004_Node000011" class="edge">
<title>Node4&#45;&gt;Node11</title>
<g id="a_edge7_Node000004_Node000011"><a xlink:title=" ">
<path fill="none" stroke="#63b8ff" d="M216.93,-164.36C177.74,-168.5 128.1,-173.75 102.1,-176.5"/>
<polygon fill="#63b8ff" stroke="#63b8ff" points="217.12,-167.86 226.69,-163.32 216.38,-160.9 217.12,-167.86"/>
</a>
</g>
</g>
<!-- Node12 -->
<g id="Node000012" class="node">
<title>Node12</title>
<g id="a_Node000012"><a xlink:href="../../d4/df6/class_led_rope_t_c_l.html#a2c5c772faf24596d5be70d96581e7454" target="_top" xlink:title=" ">
<polygon fill="#fff0f0" stroke="red" points="166.75,-149.75 0,-149.75 0,-129 166.75,-129 166.75,-149.75"/>
<text text-anchor="middle" x="83.38" y="-136.25" font-family="Helvetica,sans-Serif" font-size="10.00">LedRopeTCL::RawCommitDraw</text>
</a>
</g>
</g>
<!-- Node4&#45;&gt;Node12 -->
<g id="edge8_Node000004_Node000012" class="edge">
<title>Node4&#45;&gt;Node12</title>
<g id="a_edge8_Node000004_Node000012"><a xlink:title=" ">
<path fill="none" stroke="#63b8ff" d="M217.08,-152.71C201.36,-151.13 183.94,-149.38 167.04,-147.68"/>
<polygon fill="#63b8ff" stroke="#63b8ff" points="216.39,-156.16 226.69,-153.67 217.09,-149.19 216.39,-156.16"/>
</a>
</g>
</g>
<!-- Node16 -->
<g id="Node000016" class="node">
<title>Node16</title>
<g id="a_Node000016"><a xlink:href="../../d1/ddb/_chromancer_8ino.html#a4fc01d736fe50cf5b977f755b675f11d" target="_top" xlink:title=" ">
<polygon fill="white" stroke="#666666" points="104.88,-110.75 61.88,-110.75 61.88,-90 104.88,-90 104.88,-110.75"/>
<text text-anchor="middle" x="83.38" y="-97.25" font-family="Helvetica,sans-Serif" font-size="10.00">setup</text>
</a>
</g>
</g>
<!-- Node4&#45;&gt;Node16 -->
<g id="edge9_Node000004_Node000016" class="edge">
<title>Node4&#45;&gt;Node16</title>
<g id="a_edge9_Node000004_Node000016"><a xlink:title=" ">
<path fill="none" stroke="#63b8ff" d="M235.03,-143.59C214.86,-136.12 189.65,-127.21 166.75,-120.38 146.02,-114.19 121.94,-108.51 105.18,-104.8"/>
<polygon fill="#63b8ff" stroke="#63b8ff" points="233.66,-146.81 244.25,-147.04 236.11,-140.26 233.66,-146.81"/>
</a>
</g>
</g>
<!-- Node17 -->
<g id="Node000017" class="node">
<title>Node17</title>
<g id="a_Node000017"><a xlink:href="../../d3/d1d/group___power.html#ga510b6ca1ea6da7f0f89dcf353f19ffde" target="_top" xlink:title="Similar to CFastLED::show(), but pre&#45;adjusts brightness to keep below the power threshold.">
<polygon fill="white" stroke="#666666" points="153.25,-72.12 13.5,-72.12 13.5,-38.62 153.25,-38.62 153.25,-72.12"/>
<text text-anchor="start" x="21.5" y="-58.62" font-family="Helvetica,sans-Serif" font-size="10.00">show_at_max_brightness</text>
<text text-anchor="middle" x="83.38" y="-45.88" font-family="Helvetica,sans-Serif" font-size="10.00">_for_power</text>
</a>
</g>
</g>
<!-- Node4&#45;&gt;Node17 -->
<g id="edge10_Node000004_Node000017" class="edge">
<title>Node4&#45;&gt;Node17</title>
<g id="a_edge10_Node000004_Node000017"><a xlink:title=" ">
<path fill="none" stroke="#63b8ff" d="M253,-140.51C232.41,-123.33 199.16,-97.65 166.75,-81.38 160.32,-78.15 153.4,-75.21 146.41,-72.58"/>
<polygon fill="#63b8ff" stroke="#63b8ff" points="250.48,-142.96 260.37,-146.76 255.01,-137.62 250.48,-142.96"/>
</a>
</g>
</g>
<!-- Node19 -->
<g id="Node000019" class="node">
<title>Node19</title>
<g id="a_Node000019"><a xlink:href="../../d6/d2c/class_c_l_e_d_controller.html#a6cd8a28d7585fba96407c9678c00d588" target="_top" xlink:title="Clear out/zero out the given number of LEDs.">
<polygon fill="white" stroke="#666666" points="154.38,-20.75 12.38,-20.75 12.38,0 154.38,0 154.38,-20.75"/>
<text text-anchor="middle" x="83.38" y="-7.25" font-family="Helvetica,sans-Serif" font-size="10.00">CLEDController::clearLeds</text>
</a>
</g>
</g>
<!-- Node18&#45;&gt;Node19 -->
<g id="edge12_Node000018_Node000019" class="edge">
<title>Node18&#45;&gt;Node19</title>
<g id="a_edge12_Node000018_Node000019"><a xlink:title=" ">
<path fill="none" stroke="#63b8ff" d="M240.8,-58.86C219.95,-49.4 192.17,-37.6 166.75,-29.38 157.39,-26.35 147.29,-23.61 137.48,-21.2"/>
<polygon fill="#63b8ff" stroke="#63b8ff" points="239.1,-61.93 249.65,-62.93 242.03,-55.57 239.1,-61.93"/>
</a>
</g>
</g>
</g>
</svg>
