<?xml version="1.0" encoding="UTF-8" standalone="no"?>
<!DOCTYPE svg PUBLIC "-//W3C//DTD SVG 1.1//EN"
 "http://www.w3.org/Graphics/SVG/1.1/DTD/svg11.dtd">
<!-- Generated by graphviz version 12.2.1 (20241206.2353)
 -->
<!-- Title: CLEDController::getDither Pages: 1 -->
<svg width="739pt" height="417pt"
 viewBox="0.00 0.00 738.75 417.12" xmlns="http://www.w3.org/2000/svg" xmlns:xlink="http://www.w3.org/1999/xlink">
<g id="graph0" class="graph" transform="scale(1 1) rotate(0) translate(4 413.12)">
<title>CLEDController::getDither</title>
<!-- Node1 -->
<g id="Node000001" class="node">
<title>Node1</title>
<g id="a_Node000001"><a xlink:title="Get the dithering option currently set for this controller.">
<polygon fill="#999999" stroke="#666666" points="730.75,-79.12 589.5,-79.12 589.5,-58.38 730.75,-58.38 730.75,-79.12"/>
<text text-anchor="middle" x="660.12" y="-65.62" font-family="Helvetica,sans-Serif" font-size="10.00">CLEDController::getDither</text>
</a>
</g>
</g>
<!-- Node2 -->
<g id="Node000002" class="node">
<title>Node2</title>
<g id="a_Node000002"><a xlink:href="../../d6/d2c/class_c_l_e_d_controller.html#af9962ef739bdb3b590ee66f3780765d6" target="_top" xlink:title=" ">
<polygon fill="white" stroke="#666666" points="553.5,-124.12 382.25,-124.12 382.25,-103.38 553.5,-103.38 553.5,-124.12"/>
<text text-anchor="middle" x="467.88" y="-110.62" font-family="Helvetica,sans-Serif" font-size="10.00">CLEDController::beginShowLeds</text>
</a>
</g>
</g>
<!-- Node1&#45;&gt;Node2 -->
<g id="edge1_Node000001_Node000002" class="edge">
<title>Node1&#45;&gt;Node2</title>
<g id="a_edge1_Node000001_Node000002"><a xlink:title=" ">
<path fill="none" stroke="#63b8ff" d="M604.9,-82.32C588.41,-86.39 570.23,-90.81 553.5,-94.75 541.92,-97.47 529.43,-100.33 517.69,-102.97"/>
<polygon fill="#63b8ff" stroke="#63b8ff" points="605.67,-85.74 614.54,-79.94 603.99,-78.94 605.67,-85.74"/>
</a>
</g>
</g>
<!-- Node21 -->
<g id="Node000021" class="node">
<title>Node21</title>
<g id="a_Node000021"><a xlink:href="../../d0/dc9/class_c_pixel_l_e_d_controller.html#a12a891e205028cffb6ce21857850416c" target="_top" xlink:title="Write the passed in RGB data out to the LEDs managed by this controller.">
<polygon fill="white" stroke="#666666" points="524.25,-85.5 411.5,-85.5 411.5,-52 524.25,-52 524.25,-85.5"/>
<text text-anchor="start" x="419.5" y="-72" font-family="Helvetica,sans-Serif" font-size="10.00">CPixelLEDController</text>
<text text-anchor="middle" x="467.88" y="-59.25" font-family="Helvetica,sans-Serif" font-size="10.00">::show</text>
</a>
</g>
</g>
<!-- Node1&#45;&gt;Node21 -->
<g id="edge14_Node000001_Node000021" class="edge">
<title>Node1&#45;&gt;Node21</title>
<g id="a_edge14_Node000001_Node000021"><a xlink:title=" ">
<path fill="none" stroke="#63b8ff" d="M577.72,-68.75C559.76,-68.75 541.14,-68.75 524.49,-68.75"/>
<polygon fill="#63b8ff" stroke="#63b8ff" points="577.58,-72.25 587.58,-68.75 577.58,-65.25 577.58,-72.25"/>
</a>
</g>
</g>
<!-- Node22 -->
<g id="Node000022" class="node">
<title>Node22</title>
<g id="a_Node000022"><a xlink:href="../../d0/dc9/class_c_pixel_l_e_d_controller.html#aa4c1675ad3be1055251ea482be2d7a15" target="_top" xlink:title="Set all the LEDs on the controller to a given color.">
<polygon fill="white" stroke="#666666" points="524.25,-33.5 411.5,-33.5 411.5,0 524.25,0 524.25,-33.5"/>
<text text-anchor="start" x="419.5" y="-20" font-family="Helvetica,sans-Serif" font-size="10.00">CPixelLEDController</text>
<text text-anchor="middle" x="467.88" y="-7.25" font-family="Helvetica,sans-Serif" font-size="10.00">::showColor</text>
</a>
</g>
</g>
<!-- Node1&#45;&gt;Node22 -->
<g id="edge15_Node000001_Node000022" class="edge">
<title>Node1&#45;&gt;Node22</title>
<g id="a_edge15_Node000001_Node000022"><a xlink:title=" ">
<path fill="none" stroke="#63b8ff" d="M608.61,-54.94C582.7,-47.86 551.08,-39.22 524.48,-31.95"/>
<polygon fill="#63b8ff" stroke="#63b8ff" points="607.68,-58.32 618.25,-57.58 609.52,-51.56 607.68,-58.32"/>
</a>
</g>
</g>
<!-- Node3 -->
<g id="Node000003" class="node">
<title>Node3</title>
<g id="a_Node000003"><a xlink:href="../../dd/dbb/class_c_fast_l_e_d.html#a83afdd1e2a21f33ac4f8d2610d6e331b" target="_top" xlink:title="Update all our controllers with the current led colors, using the passed in brightness.">
<polygon fill="white" stroke="#666666" points="320.75,-272.12 228.25,-272.12 228.25,-251.38 320.75,-251.38 320.75,-272.12"/>
<text text-anchor="middle" x="274.5" y="-258.62" font-family="Helvetica,sans-Serif" font-size="10.00">CFastLED::show</text>
</a>
</g>
</g>
<!-- Node2&#45;&gt;Node3 -->
<g id="edge2_Node000002_Node000003" class="edge">
<title>Node2&#45;&gt;Node3</title>
<g id="a_edge2_Node000002_Node000003"><a xlink:title=" ">
<path fill="none" stroke="#63b8ff" d="M444.11,-131.36C404.04,-162.35 322.07,-225.73 289.4,-251"/>
<polygon fill="#63b8ff" stroke="#63b8ff" points="446.15,-134.21 451.91,-125.32 441.86,-128.67 446.15,-134.21"/>
</a>
</g>
</g>
<!-- Node17 -->
<g id="Node000017" class="node">
<title>Node17</title>
<g id="a_Node000017"><a xlink:href="../../dd/dbb/class_c_fast_l_e_d.html#a7315b060d295bad5fbd32e50eaaf02b0" target="_top" xlink:title="Set all leds on all controllers to the given color/scale.">
<polygon fill="white" stroke="#666666" points="333.5,-124.12 215.5,-124.12 215.5,-103.38 333.5,-103.38 333.5,-124.12"/>
<text text-anchor="middle" x="274.5" y="-110.62" font-family="Helvetica,sans-Serif" font-size="10.00">CFastLED::showColor</text>
</a>
</g>
</g>
<!-- Node2&#45;&gt;Node17 -->
<g id="edge10_Node000002_Node000017" class="edge">
<title>Node2&#45;&gt;Node17</title>
<g id="a_edge10_Node000002_Node000017"><a xlink:title=" ">
<path fill="none" stroke="#63b8ff" d="M370.41,-113.75C357.96,-113.75 345.52,-113.75 333.95,-113.75"/>
<polygon fill="#63b8ff" stroke="#63b8ff" points="370.31,-117.25 380.31,-113.75 370.31,-110.25 370.31,-117.25"/>
</a>
</g>
</g>
<!-- Node19 -->
<g id="Node000019" class="node">
<title>Node19</title>
<g id="a_Node000019"><a xlink:href="../../d6/d2c/class_c_l_e_d_controller.html#a3b699c9cf0829d15fdc7ceb1d5166412" target="_top" xlink:title=" ">
<polygon fill="white" stroke="#666666" points="346.25,-85.12 202.75,-85.12 202.75,-64.38 346.25,-64.38 346.25,-85.12"/>
<text text-anchor="middle" x="274.5" y="-71.62" font-family="Helvetica,sans-Serif" font-size="10.00">CLEDController::showLeds</text>
</a>
</g>
</g>
<!-- Node2&#45;&gt;Node19 -->
<g id="edge12_Node000002_Node000019" class="edge">
<title>Node2&#45;&gt;Node19</title>
<g id="a_edge12_Node000002_Node000019"><a xlink:title=" ">
<path fill="none" stroke="#63b8ff" d="M402.45,-100.62C378.53,-95.75 351.68,-90.27 328.85,-85.62"/>
<polygon fill="#63b8ff" stroke="#63b8ff" points="401.59,-104.02 412.08,-102.58 402.98,-97.16 401.59,-104.02"/>
</a>
</g>
</g>
<!-- Node4 -->
<g id="Node000004" class="node">
<title>Node4</title>
<g id="a_Node000004"><a xlink:href="../../d5/d4d/_blink_parallel_8ino.html#a29584c4a240c144644e81dfab0090635" target="_top" xlink:title=" ">
<polygon fill="#fff0f0" stroke="red" points="103.38,-409.12 63.38,-409.12 63.38,-388.38 103.38,-388.38 103.38,-409.12"/>
<text text-anchor="middle" x="83.38" y="-395.62" font-family="Helvetica,sans-Serif" font-size="10.00">blink</text>
</a>
</g>
</g>
<!-- Node3&#45;&gt;Node4 -->
<g id="edge3_Node000003_Node000004" class="edge">
<title>Node3&#45;&gt;Node4</title>
<g id="a_edge3_Node000003_Node000004"><a xlink:title=" ">
<path fill="none" stroke="#63b8ff" d="M260.84,-281.81C243.1,-308.2 208.31,-354.13 166.75,-378.75 147.12,-390.37 121.06,-395.25 103.56,-397.29"/>
<polygon fill="#63b8ff" stroke="#63b8ff" points="263.61,-283.97 266.15,-273.69 257.75,-280.14 263.61,-283.97"/>
</a>
</g>
</g>
<!-- Node6 -->
<g id="Node000006" class="node">
<title>Node6</title>
<g id="a_Node000006"><a xlink:href="../../d5/db2/_octo_w_s2811_8ino.html#a87dad6cde22368918813bc56504b0dee" target="_top" xlink:title=" ">
<polygon fill="#fff0f0" stroke="red" points="115.75,-370.12 51,-370.12 51,-349.38 115.75,-349.38 115.75,-370.12"/>
<text text-anchor="middle" x="83.38" y="-356.62" font-family="Helvetica,sans-Serif" font-size="10.00">colorWipe</text>
</a>
</g>
</g>
<!-- Node3&#45;&gt;Node6 -->
<g id="edge4_Node000003_Node000006" class="edge">
<title>Node3&#45;&gt;Node6</title>
<g id="a_edge4_Node000003_Node000006"><a xlink:title=" ">
<path fill="none" stroke="#63b8ff" d="M253.61,-280.05C233.25,-297.83 199.97,-324.33 166.75,-339.75 150.73,-347.19 131.63,-352.05 115.86,-355.11"/>
<polygon fill="#63b8ff" stroke="#63b8ff" points="255.74,-282.84 260.88,-273.58 251.08,-277.62 255.74,-282.84"/>
</a>
</g>
</g>
<!-- Node8 -->
<g id="Node000008" class="node">
<title>Node8</title>
<g id="a_Node000008"><a xlink:href="../../d1/d3a/_r_g_b_w_emulated_8ino.html#a7786953e7de2513a3589a490e1e3355a" target="_top" xlink:title=" ">
<polygon fill="#fff0f0" stroke="red" points="119.88,-331.12 46.88,-331.12 46.88,-310.38 119.88,-310.38 119.88,-331.12"/>
<text text-anchor="middle" x="83.38" y="-317.62" font-family="Helvetica,sans-Serif" font-size="10.00">fillAndShow</text>
</a>
</g>
</g>
<!-- Node3&#45;&gt;Node8 -->
<g id="edge5_Node000003_Node000008" class="edge">
<title>Node3&#45;&gt;Node8</title>
<g id="a_edge5_Node000003_Node000008"><a xlink:title=" ">
<path fill="none" stroke="#63b8ff" d="M235.9,-276.66C215.6,-284.41 190.01,-293.7 166.75,-300.75 151.68,-305.32 134.82,-309.56 120.29,-312.95"/>
<polygon fill="#63b8ff" stroke="#63b8ff" points="237.1,-279.95 245.17,-273.08 234.58,-273.42 237.1,-279.95"/>
</a>
</g>
</g>
<!-- Node10 -->
<g id="Node000010" class="node">
<title>Node10</title>
<g id="a_Node000010"><a xlink:href="../../dd/d0f/_apa102_8ino.html#afe461d27b9c48d5921c00d521181f12f" target="_top" xlink:title=" ">
<polygon fill="white" stroke="#666666" points="101.88,-292.12 64.88,-292.12 64.88,-271.38 101.88,-271.38 101.88,-292.12"/>
<text text-anchor="middle" x="83.38" y="-278.62" font-family="Helvetica,sans-Serif" font-size="10.00">loop</text>
</a>
</g>
</g>
<!-- Node3&#45;&gt;Node10 -->
<g id="edge6_Node000003_Node000010" class="edge">
<title>Node3&#45;&gt;Node10</title>
<g id="a_edge6_Node000003_Node000010"><a xlink:title=" ">
<path fill="none" stroke="#63b8ff" d="M216.93,-267.73C177.74,-271.88 128.1,-277.13 102.1,-279.88"/>
<polygon fill="#63b8ff" stroke="#63b8ff" points="217.12,-271.23 226.69,-266.7 216.38,-264.27 217.12,-271.23"/>
</a>
</g>
</g>
<!-- Node11 -->
<g id="Node000011" class="node">
<title>Node11</title>
<g id="a_Node000011"><a xlink:href="../../d4/df6/class_led_rope_t_c_l.html#a2c5c772faf24596d5be70d96581e7454" target="_top" xlink:title=" ">
<polygon fill="#fff0f0" stroke="red" points="166.75,-253.12 0,-253.12 0,-232.38 166.75,-232.38 166.75,-253.12"/>
<text text-anchor="middle" x="83.38" y="-239.62" font-family="Helvetica,sans-Serif" font-size="10.00">LedRopeTCL::RawCommitDraw</text>
</a>
</g>
</g>
<!-- Node3&#45;&gt;Node11 -->
<g id="edge7_Node000003_Node000011" class="edge">
<title>Node3&#45;&gt;Node11</title>
<g id="a_edge7_Node000003_Node000011"><a xlink:title=" ">
<path fill="none" stroke="#63b8ff" d="M217.08,-256.08C201.36,-254.5 183.94,-252.75 167.04,-251.06"/>
<polygon fill="#63b8ff" stroke="#63b8ff" points="216.39,-259.53 226.69,-257.05 217.09,-252.57 216.39,-259.53"/>
</a>
</g>
</g>
<!-- Node15 -->
<g id="Node000015" class="node">
<title>Node15</title>
<g id="a_Node000015"><a xlink:href="../../d1/ddb/_chromancer_8ino.html#a4fc01d736fe50cf5b977f755b675f11d" target="_top" xlink:title=" ">
<polygon fill="white" stroke="#666666" points="104.88,-214.12 61.88,-214.12 61.88,-193.38 104.88,-193.38 104.88,-214.12"/>
<text text-anchor="middle" x="83.38" y="-200.62" font-family="Helvetica,sans-Serif" font-size="10.00">setup</text>
</a>
</g>
</g>
<!-- Node3&#45;&gt;Node15 -->
<g id="edge8_Node000003_Node000015" class="edge">
<title>Node3&#45;&gt;Node15</title>
<g id="a_edge8_Node000003_Node000015"><a xlink:title=" ">
<path fill="none" stroke="#63b8ff" d="M235.03,-246.97C214.86,-239.49 189.65,-230.59 166.75,-223.75 146.02,-217.56 121.94,-211.89 105.18,-208.17"/>
<polygon fill="#63b8ff" stroke="#63b8ff" points="233.66,-250.19 244.25,-250.42 236.11,-243.63 233.66,-250.19"/>
</a>
</g>
</g>
<!-- Node16 -->
<g id="Node000016" class="node">
<title>Node16</title>
<g id="a_Node000016"><a xlink:href="../../d3/d1d/group___power.html#ga510b6ca1ea6da7f0f89dcf353f19ffde" target="_top" xlink:title="Similar to CFastLED::show(), but pre&#45;adjusts brightness to keep below the power threshold.">
<polygon fill="white" stroke="#666666" points="153.25,-175.5 13.5,-175.5 13.5,-142 153.25,-142 153.25,-175.5"/>
<text text-anchor="start" x="21.5" y="-162" font-family="Helvetica,sans-Serif" font-size="10.00">show_at_max_brightness</text>
<text text-anchor="middle" x="83.38" y="-149.25" font-family="Helvetica,sans-Serif" font-size="10.00">_for_power</text>
</a>
</g>
</g>
<!-- Node3&#45;&gt;Node16 -->
<g id="edge9_Node000003_Node000016" class="edge">
<title>Node3&#45;&gt;Node16</title>
<g id="a_edge9_Node000003_Node000016"><a xlink:title=" ">
<path fill="none" stroke="#63b8ff" d="M253,-243.89C232.41,-226.71 199.16,-201.02 166.75,-184.75 160.32,-181.52 153.4,-178.59 146.41,-175.95"/>
<polygon fill="#63b8ff" stroke="#63b8ff" points="250.48,-246.34 260.37,-250.14 255.01,-241 250.48,-246.34"/>
</a>
</g>
</g>
<!-- Node18 -->
<g id="Node000018" class="node">
<title>Node18</title>
<g id="a_Node000018"><a xlink:href="../../dd/dbb/class_c_fast_l_e_d.html#aeb7bd3e8f2dbced6284a2182191d5fcb" target="_top" xlink:title="Clear the leds, wiping the local array of data.">
<polygon fill="white" stroke="#666666" points="128.88,-124.12 37.88,-124.12 37.88,-103.38 128.88,-103.38 128.88,-124.12"/>
<text text-anchor="middle" x="83.38" y="-110.62" font-family="Helvetica,sans-Serif" font-size="10.00">CFastLED::clear</text>
</a>
</g>
</g>
<!-- Node17&#45;&gt;Node18 -->
<g id="edge11_Node000017_Node000018" class="edge">
<title>Node17&#45;&gt;Node18</title>
<g id="a_edge11_Node000017_Node000018"><a xlink:title=" ">
<path fill="none" stroke="#63b8ff" d="M203.95,-113.75C179.01,-113.75 151.56,-113.75 129.26,-113.75"/>
<polygon fill="#63b8ff" stroke="#63b8ff" points="203.7,-117.25 213.7,-113.75 203.7,-110.25 203.7,-117.25"/>
</a>
</g>
</g>
<!-- Node20 -->
<g id="Node000020" class="node">
<title>Node20</title>
<g id="a_Node000020"><a xlink:href="../../d6/d2c/class_c_l_e_d_controller.html#a6cd8a28d7585fba96407c9678c00d588" target="_top" xlink:title="Clear out/zero out the given number of LEDs.">
<polygon fill="white" stroke="#666666" points="154.38,-85.12 12.38,-85.12 12.38,-64.38 154.38,-64.38 154.38,-85.12"/>
<text text-anchor="middle" x="83.38" y="-71.62" font-family="Helvetica,sans-Serif" font-size="10.00">CLEDController::clearLeds</text>
</a>
</g>
</g>
<!-- Node19&#45;&gt;Node20 -->
<g id="edge13_Node000019_Node000020" class="edge">
<title>Node19&#45;&gt;Node20</title>
<g id="a_edge13_Node000019_Node000020"><a xlink:title=" ">
<path fill="none" stroke="#63b8ff" d="M190.8,-74.75C178.73,-74.75 166.39,-74.75 154.6,-74.75"/>
<polygon fill="#63b8ff" stroke="#63b8ff" points="190.76,-78.25 200.76,-74.75 190.76,-71.25 190.76,-78.25"/>
</a>
</g>
</g>
</g>
</svg>
