<?xml version="1.0" encoding="UTF-8" standalone="no"?>
<!DOCTYPE svg PUBLIC "-//W3C//DTD SVG 1.1//EN"
 "http://www.w3.org/Graphics/SVG/1.1/DTD/svg11.dtd">
<!-- Generated by graphviz version 12.2.1 (20241206.2353)
 -->
<!-- Title: CLEDController::getAdjustment Pages: 1 -->
<svg width="551pt" height="94pt"
 viewBox="0.00 0.00 551.00 93.50" xmlns="http://www.w3.org/2000/svg" xmlns:xlink="http://www.w3.org/1999/xlink">
<g id="graph0" class="graph" transform="scale(1 1) rotate(0) translate(4 89.5)">
<title>CLEDController::getAdjustment</title>
<!-- Node1 -->
<g id="Node000001" class="node">
<title>Node1</title>
<g id="a_Node000001"><a xlink:title="Get the combined brightness/color adjustment for this controller.">
<polygon fill="#999999" stroke="#666666" points="543,-53.12 375.5,-53.12 375.5,-32.38 543,-32.38 543,-53.12"/>
<text text-anchor="middle" x="459.25" y="-39.62" font-family="Helvetica,sans-Serif" font-size="10.00">CLEDController::getAdjustment</text>
</a>
</g>
</g>
<!-- Node2 -->
<g id="Node000002" class="node">
<title>Node2</title>
<g id="a_Node000002"><a xlink:href="../../d6/d2c/class_c_l_e_d_controller.html#a6f174d3b4ceacf75eb761c93e78ebff7" target="_top" xlink:title=" ">
<polygon fill="white" stroke="#666666" points="339.5,-53.12 148.75,-53.12 148.75,-32.38 339.5,-32.38 339.5,-53.12"/>
<text text-anchor="middle" x="244.12" y="-39.62" font-family="Helvetica,sans-Serif" font-size="10.00">CLEDController::getAdjustmentData</text>
</a>
</g>
</g>
<!-- Node1&#45;&gt;Node2 -->
<g id="edge1_Node000001_Node000002" class="edge">
<title>Node1&#45;&gt;Node2</title>
<g id="a_edge1_Node000001_Node000002"><a xlink:title=" ">
<path fill="none" stroke="#63b8ff" d="M363.74,-42.75C355.84,-42.75 347.85,-42.75 339.94,-42.75"/>
<polygon fill="#63b8ff" stroke="#63b8ff" points="363.73,-46.25 373.73,-42.75 363.73,-39.25 363.73,-46.25"/>
</a>
</g>
</g>
<!-- Node3 -->
<g id="Node000003" class="node">
<title>Node3</title>
<g id="a_Node000003"><a xlink:href="../../d0/dc9/class_c_pixel_l_e_d_controller.html#a12a891e205028cffb6ce21857850416c" target="_top" xlink:title="Write the passed in RGB data out to the LEDs managed by this controller.">
<polygon fill="white" stroke="#666666" points="112.75,-85.5 0,-85.5 0,-52 112.75,-52 112.75,-85.5"/>
<text text-anchor="start" x="8" y="-72" font-family="Helvetica,sans-Serif" font-size="10.00">CPixelLEDController</text>
<text text-anchor="middle" x="56.38" y="-59.25" font-family="Helvetica,sans-Serif" font-size="10.00">::show</text>
</a>
</g>
</g>
<!-- Node2&#45;&gt;Node3 -->
<g id="edge2_Node000002_Node000003" class="edge">
<title>Node2&#45;&gt;Node3</title>
<g id="a_edge2_Node000002_Node000003"><a xlink:title=" ">
<path fill="none" stroke="#63b8ff" d="M154.47,-55.16C140.4,-57.13 126.21,-59.11 113.18,-60.94"/>
<polygon fill="#63b8ff" stroke="#63b8ff" points="154.78,-58.65 164.2,-53.8 153.81,-51.72 154.78,-58.65"/>
</a>
</g>
</g>
<!-- Node4 -->
<g id="Node000004" class="node">
<title>Node4</title>
<g id="a_Node000004"><a xlink:href="../../d0/dc9/class_c_pixel_l_e_d_controller.html#aa4c1675ad3be1055251ea482be2d7a15" target="_top" xlink:title="Set all the LEDs on the controller to a given color.">
<polygon fill="white" stroke="#666666" points="112.75,-33.5 0,-33.5 0,0 112.75,0 112.75,-33.5"/>
<text text-anchor="start" x="8" y="-20" font-family="Helvetica,sans-Serif" font-size="10.00">CPixelLEDController</text>
<text text-anchor="middle" x="56.38" y="-7.25" font-family="Helvetica,sans-Serif" font-size="10.00">::showColor</text>
</a>
</g>
</g>
<!-- Node2&#45;&gt;Node4 -->
<g id="edge3_Node000002_Node000004" class="edge">
<title>Node2&#45;&gt;Node4</title>
<g id="a_edge3_Node000002_Node000004"><a xlink:title=" ">
<path fill="none" stroke="#63b8ff" d="M154.47,-30.34C140.4,-28.37 126.21,-26.39 113.18,-24.56"/>
<polygon fill="#63b8ff" stroke="#63b8ff" points="153.81,-33.78 164.2,-31.7 154.78,-26.85 153.81,-33.78"/>
</a>
</g>
</g>
</g>
</svg>
