<?xml version="1.0" encoding="UTF-8" standalone="no"?>
<!DOCTYPE svg PUBLIC "-//W3C//DTD SVG 1.1//EN"
 "http://www.w3.org/Graphics/SVG/1.1/DTD/svg11.dtd">
<!-- Generated by graphviz version 12.2.1 (20241206.2353)
 -->
<!-- Title: CLEDController::setRgbw Pages: 1 -->
<svg width="329pt" height="80pt"
 viewBox="0.00 0.00 328.75 80.12" xmlns="http://www.w3.org/2000/svg" xmlns:xlink="http://www.w3.org/1999/xlink">
<g id="graph0" class="graph" transform="scale(1 1) rotate(0) translate(4 76.12)">
<title>CLEDController::setRgbw</title>
<!-- Node1 -->
<g id="Node000001" class="node">
<title>Node1</title>
<g id="a_Node000001"><a xlink:title=" ">
<polygon fill="#999999" stroke="#666666" points="320.75,-42.75 183.25,-42.75 183.25,-22 320.75,-22 320.75,-42.75"/>
<text text-anchor="middle" x="252" y="-29.25" font-family="Helvetica,sans-Serif" font-size="10.00">CLEDController::setRgbw</text>
</a>
</g>
</g>
<!-- Node2 -->
<g id="Node000002" class="node">
<title>Node2</title>
<g id="a_Node000002"><a xlink:href="../../d4/d28/group___chipsets.html#ad119f2555688176da39dc9f8e18479c0" target="_top" xlink:title=" ">
<polygon fill="white" stroke="#666666" points="147.25,-72.12 0,-72.12 0,-38.62 147.25,-38.62 147.25,-72.12"/>
<text text-anchor="start" x="8" y="-58.62" font-family="Helvetica,sans-Serif" font-size="10.00">RGBWEmulatedController</text>
<text text-anchor="middle" x="73.62" y="-45.88" font-family="Helvetica,sans-Serif" font-size="10.00">::RGBWEmulatedController</text>
</a>
</g>
</g>
<!-- Node1&#45;&gt;Node2 -->
<g id="edge1_Node000001_Node000002" class="edge">
<title>Node1&#45;&gt;Node2</title>
<g id="a_edge1_Node000001_Node000002"><a xlink:title=" ">
<path fill="none" stroke="#63b8ff" d="M171.6,-42.73C163.61,-43.77 155.52,-44.83 147.6,-45.86"/>
<polygon fill="#63b8ff" stroke="#63b8ff" points="171.84,-46.23 181.31,-41.46 170.94,-39.29 171.84,-46.23"/>
</a>
</g>
</g>
<!-- Node3 -->
<g id="Node000003" class="node">
<title>Node3</title>
<g id="a_Node000003"><a xlink:href="../../d1/d8f/_fx_demo_reel100_8ino.html#a4fc01d736fe50cf5b977f755b675f11d" target="_top" xlink:title=" ">
<polygon fill="white" stroke="#666666" points="95.12,-20.75 52.12,-20.75 52.12,0 95.12,0 95.12,-20.75"/>
<text text-anchor="middle" x="73.62" y="-7.25" font-family="Helvetica,sans-Serif" font-size="10.00">setup</text>
</a>
</g>
</g>
<!-- Node1&#45;&gt;Node3 -->
<g id="edge2_Node000001_Node000003" class="edge">
<title>Node1&#45;&gt;Node3</title>
<g id="a_edge2_Node000001_Node000003"><a xlink:title=" ">
<path fill="none" stroke="#63b8ff" d="M171.72,-22.49C143.63,-18.98 114.34,-15.33 95.37,-12.96"/>
<polygon fill="#63b8ff" stroke="#63b8ff" points="170.95,-25.92 181.31,-23.68 171.82,-18.97 170.95,-25.92"/>
</a>
</g>
</g>
</g>
</svg>
