<?xml version="1.0" encoding="UTF-8" standalone="no"?>
<!DOCTYPE svg PUBLIC "-//W3C//DTD SVG 1.1//EN"
 "http://www.w3.org/Graphics/SVG/1.1/DTD/svg11.dtd">
<!-- Generated by graphviz version 12.2.1 (20241206.2353)
 -->
<!-- Title: fl::Slice::Slice Pages: 1 -->
<svg width="204pt" height="68pt"
 viewBox="0.00 0.00 204.25 67.75" xmlns="http://www.w3.org/2000/svg" xmlns:xlink="http://www.w3.org/1999/xlink">
<g id="graph0" class="graph" transform="scale(1 1) rotate(0) translate(4 63.75)">
<title>fl::Slice::Slice</title>
<!-- Node1 -->
<g id="Node000001" class="node">
<title>Node1</title>
<g id="a_Node000001"><a xlink:title=" ">
<polygon fill="#999999" stroke="#666666" points="196.25,-39.75 115.75,-39.75 115.75,-19 196.25,-19 196.25,-39.75"/>
<text text-anchor="middle" x="156" y="-26.25" font-family="Helvetica,sans-Serif" font-size="10.00">fl::Slice::Slice</text>
</a>
</g>
</g>
<!-- Node2 -->
<g id="Node000002" class="node">
<title>Node2</title>
<g id="a_Node000002"><a xlink:href="../../d8/de4/classfl_1_1_slice.html#a0b8f8ae6b3992725ca3d066549520075" target="_top" xlink:title=" ">
<polygon fill="white" stroke="#666666" points="79.75,-59.75 0,-59.75 0,-39 79.75,-39 79.75,-59.75"/>
<text text-anchor="middle" x="39.88" y="-46.25" font-family="Helvetica,sans-Serif" font-size="10.00">fl::Slice::slice</text>
</a>
</g>
</g>
<!-- Node1&#45;&gt;Node2 -->
<g id="edge1_Node000001_Node000002" class="edge">
<title>Node1&#45;&gt;Node2</title>
<g id="a_edge1_Node000001_Node000002"><a xlink:title=" ">
<path fill="none" stroke="#63b8ff" d="M104.14,-38.29C96.05,-39.71 87.78,-41.15 80.01,-42.52"/>
<polygon fill="#63b8ff" stroke="#63b8ff" points="104.67,-41.75 113.91,-36.58 103.46,-34.85 104.67,-41.75"/>
</a>
</g>
</g>
<!-- Node3 -->
<g id="Node000003" class="node">
<title>Node3</title>
<g id="a_Node000003"><a xlink:href="../../d8/de4/classfl_1_1_slice.html#a3d3cee4aebda755a1232261ccb0ae09c" target="_top" xlink:title=" ">
<polygon fill="white" stroke="#666666" points="79.75,-20.75 0,-20.75 0,0 79.75,0 79.75,-20.75"/>
<text text-anchor="middle" x="39.88" y="-7.25" font-family="Helvetica,sans-Serif" font-size="10.00">fl::Slice::slice</text>
</a>
</g>
</g>
<!-- Node1&#45;&gt;Node3 -->
<g id="edge2_Node000001_Node000003" class="edge">
<title>Node1&#45;&gt;Node3</title>
<g id="a_edge2_Node000001_Node000003"><a xlink:title=" ">
<path fill="none" stroke="#63b8ff" d="M104.14,-20.91C96.05,-19.56 87.78,-18.18 80.01,-16.89"/>
<polygon fill="#63b8ff" stroke="#63b8ff" points="103.47,-24.34 113.91,-22.53 104.62,-17.44 103.47,-24.34"/>
</a>
</g>
</g>
</g>
</svg>
