<?xml version="1.0" encoding="UTF-8" standalone="no"?>
<!DOCTYPE svg PUBLIC "-//W3C//DTD SVG 1.1//EN"
 "http://www.w3.org/Graphics/SVG/1.1/DTD/svg11.dtd">
<!-- Generated by graphviz version 12.2.1 (20241206.2353)
 -->
<!-- Title: Selectable Pages: 1 -->
<svg width="146pt" height="142pt"
 viewBox="0.00 0.00 145.88 142.25" xmlns="http://www.w3.org/2000/svg" xmlns:xlink="http://www.w3.org/1999/xlink">
<g id="graph0" class="graph" transform="scale(1 1) rotate(0) translate(4 138.25)">
<title>Selectable</title>
<!-- Node1 -->
<g id="Node000001" class="node">
<title>Node1</title>
<g id="a_Node000001"><a xlink:title="Abstract class for &quot;selectable&quot; things.">
<polygon fill="#999999" stroke="#666666" points="100.38,-134.25 33.38,-134.25 33.38,-113.5 100.38,-113.5 100.38,-134.25"/>
<text text-anchor="middle" x="66.88" y="-120.75" font-family="Helvetica,sans-Serif" font-size="10.00">Selectable</text>
</a>
</g>
</g>
<!-- Node2 -->
<g id="Node000002" class="node">
<title>Node2</title>
<g id="a_Node000002"><a xlink:href="../../d7/d68/class_pin.html" target="_top" xlink:title="Naive fallback solution for low level pin access.">
<polygon fill="white" stroke="#666666" points="82.38,-77.5 51.38,-77.5 51.38,-56.75 82.38,-56.75 82.38,-77.5"/>
<text text-anchor="middle" x="66.88" y="-64" font-family="Helvetica,sans-Serif" font-size="10.00">Pin</text>
</a>
</g>
</g>
<!-- Node1&#45;&gt;Node2 -->
<g id="edge1_Node000001_Node000002" class="edge">
<title>Node1&#45;&gt;Node2</title>
<g id="a_edge1_Node000001_Node000002"><a xlink:title=" ">
<path fill="none" stroke="#63b8ff" d="M66.88,-101.63C66.88,-93.41 66.88,-84.43 66.88,-77.83"/>
<polygon fill="#63b8ff" stroke="#63b8ff" points="63.38,-101.57 66.88,-111.57 70.38,-101.57 63.38,-101.57"/>
</a>
</g>
</g>
<!-- Node3 -->
<g id="Node000003" class="node">
<title>Node3</title>
<g id="a_Node000003"><a xlink:href="../../d8/dd7/class_input_pin.html" target="_top" xlink:title="I/O pin initially set to INPUT.">
<polygon fill="white" stroke="#666666" points="55.75,-20.75 0,-20.75 0,0 55.75,0 55.75,-20.75"/>
<text text-anchor="middle" x="27.88" y="-7.25" font-family="Helvetica,sans-Serif" font-size="10.00">InputPin</text>
</a>
</g>
</g>
<!-- Node2&#45;&gt;Node3 -->
<g id="edge2_Node000002_Node000003" class="edge">
<title>Node2&#45;&gt;Node3</title>
<g id="a_edge2_Node000002_Node000003"><a xlink:title=" ">
<path fill="none" stroke="#63b8ff" d="M53.38,-47.17C47.11,-38.38 39.93,-28.3 34.79,-21.08"/>
<polygon fill="#63b8ff" stroke="#63b8ff" points="50.37,-48.99 59.02,-55.1 56.07,-44.93 50.37,-48.99"/>
</a>
</g>
</g>
<!-- Node4 -->
<g id="Node000004" class="node">
<title>Node4</title>
<g id="a_Node000004"><a xlink:href="../../d6/db0/class_output_pin.html" target="_top" xlink:title="I/O pin initially set to OUTPUT.">
<polygon fill="white" stroke="#666666" points="137.88,-20.75 73.88,-20.75 73.88,0 137.88,0 137.88,-20.75"/>
<text text-anchor="middle" x="105.88" y="-7.25" font-family="Helvetica,sans-Serif" font-size="10.00">OutputPin</text>
</a>
</g>
</g>
<!-- Node2&#45;&gt;Node4 -->
<g id="edge3_Node000002_Node000004" class="edge">
<title>Node2&#45;&gt;Node4</title>
<g id="a_edge3_Node000002_Node000004"><a xlink:title=" ">
<path fill="none" stroke="#63b8ff" d="M80.37,-47.17C86.64,-38.38 93.82,-28.3 98.96,-21.08"/>
<polygon fill="#63b8ff" stroke="#63b8ff" points="77.68,-44.93 74.73,-55.1 83.38,-48.99 77.68,-44.93"/>
</a>
</g>
</g>
</g>
</svg>
