<?xml version="1.0" encoding="UTF-8" standalone="no"?>
<!DOCTYPE svg PUBLIC "-//W3C//DTD SVG 1.1//EN"
 "http://www.w3.org/Graphics/SVG/1.1/DTD/svg11.dtd">
<!-- Generated by graphviz version 12.2.1 (20241206.2353)
 -->
<!-- Title: fl::HeapVector&lt; T &gt; Pages: 1 -->
<svg width="450pt" height="211pt"
 viewBox="0.00 0.00 449.50 210.75" xmlns="http://www.w3.org/2000/svg" xmlns:xlink="http://www.w3.org/1999/xlink">
<g id="graph0" class="graph" transform="scale(1 1) rotate(0) translate(4 206.75)">
<title>fl::HeapVector&lt; T &gt;</title>
<!-- Node1 -->
<g id="Node000001" class="node">
<title>Node1</title>
<g id="a_Node000001"><a xlink:title=" ">
<polygon fill="#999999" stroke="#666666" points="112.75,-114.75 0,-114.75 0,-94 112.75,-94 112.75,-114.75"/>
<text text-anchor="middle" x="56.38" y="-101.25" font-family="Helvetica,sans-Serif" font-size="10.00">fl::HeapVector&lt; T &gt;</text>
</a>
</g>
</g>
<!-- Node2 -->
<g id="Node000002" class="node">
<title>Node2</title>
<g id="a_Node000002"><a xlink:href="../../db/ddd/classfl_1_1_heap_vector.html" target="_top" xlink:title=" ">
<polygon fill="white" stroke="#666666" points="431.38,-202.75 296.88,-202.75 296.88,-182 431.38,-182 431.38,-202.75"/>
<text text-anchor="middle" x="364.12" y="-189.25" font-family="Helvetica,sans-Serif" font-size="10.00">fl::HeapVector&lt; CRGB &gt;</text>
</a>
</g>
</g>
<!-- Node1&#45;&gt;Node2 -->
<g id="edge1_Node000001_Node000002" class="edge">
<title>Node1&#45;&gt;Node2</title>
<g id="a_edge1_Node000001_Node000002"><a xlink:title=" ">
<path fill="none" stroke="orange" stroke-dasharray="5,2" d="M77.82,-122.37C91.78,-133.66 111.22,-147.52 130.75,-155.38 183.99,-176.81 248.79,-185.86 296.42,-189.66"/>
<polygon fill="orange" stroke="orange" points="80.18,-119.78 70.26,-116.05 75.68,-125.15 80.18,-119.78"/>
</a>
</g>
<text text-anchor="middle" x="199.75" y="-189.97" font-family="Helvetica,sans-Serif" font-size="10.00" fill="grey"> &lt; CRGB &gt;</text>
</g>
<!-- Node3 -->
<g id="Node000003" class="node">
<title>Node3</title>
<g id="a_Node000003"><a xlink:href="../../db/ddd/classfl_1_1_heap_vector.html" target="_top" xlink:title=" ">
<polygon fill="white" stroke="#666666" points="431,-164.12 297.25,-164.12 297.25,-130.62 431,-130.62 431,-164.12"/>
<text text-anchor="start" x="305.25" y="-150.62" font-family="Helvetica,sans-Serif" font-size="10.00">fl::HeapVector&lt; fl</text>
<text text-anchor="middle" x="364.12" y="-137.88" font-family="Helvetica,sans-Serif" font-size="10.00">::HeapVector&lt; float &gt; &gt;</text>
</a>
</g>
</g>
<!-- Node1&#45;&gt;Node3 -->
<g id="edge2_Node000001_Node000003" class="edge">
<title>Node1&#45;&gt;Node3</title>
<g id="a_edge2_Node000001_Node000003"><a xlink:title=" ">
<path fill="none" stroke="orange" stroke-dasharray="5,2" d="M114.8,-117.46C120.18,-118.52 125.56,-119.51 130.75,-120.38 186.44,-129.66 250.16,-136.82 296.77,-141.43"/>
<polygon fill="orange" stroke="orange" points="115.8,-114.1 105.3,-115.53 114.4,-120.96 115.8,-114.1"/>
</a>
</g>
<text text-anchor="middle" x="199.75" y="-141.78" font-family="Helvetica,sans-Serif" font-size="10.00" fill="grey"> &lt; fl::HeapVector&lt; float &gt; &gt;</text>
</g>
<!-- Node4 -->
<g id="Node000004" class="node">
<title>Node4</title>
<g id="a_Node000004"><a xlink:href="../../db/ddd/classfl_1_1_heap_vector.html" target="_top" xlink:title=" ">
<polygon fill="white" stroke="#666666" points="428.38,-112.75 299.88,-112.75 299.88,-92 428.38,-92 428.38,-112.75"/>
<text text-anchor="middle" x="364.12" y="-99.25" font-family="Helvetica,sans-Serif" font-size="10.00">fl::HeapVector&lt; float &gt;</text>
</a>
</g>
</g>
<!-- Node1&#45;&gt;Node4 -->
<g id="edge3_Node000001_Node000004" class="edge">
<title>Node1&#45;&gt;Node4</title>
<g id="a_edge3_Node000001_Node000004"><a xlink:title=" ">
<path fill="none" stroke="orange" stroke-dasharray="5,2" d="M124.57,-103.94C176.69,-103.59 248.43,-103.13 299.6,-102.79"/>
<polygon fill="orange" stroke="orange" points="124.59,-100.44 114.61,-104 124.63,-107.44 124.59,-100.44"/>
</a>
</g>
<text text-anchor="middle" x="199.75" y="-107.14" font-family="Helvetica,sans-Serif" font-size="10.00" fill="grey"> &lt; float &gt;</text>
</g>
<!-- Node5 -->
<g id="Node000005" class="node">
<title>Node5</title>
<g id="a_Node000005"><a xlink:href="../../db/ddd/classfl_1_1_heap_vector.html" target="_top" xlink:title=" ">
<polygon fill="white" stroke="#666666" points="431.75,-72.12 296.5,-72.12 296.5,-38.62 431.75,-38.62 431.75,-72.12"/>
<text text-anchor="start" x="304.5" y="-58.62" font-family="Helvetica,sans-Serif" font-size="10.00">fl::HeapVector&lt; fl</text>
<text text-anchor="middle" x="364.12" y="-45.88" font-family="Helvetica,sans-Serif" font-size="10.00">::SortedHeapMap::Pair &gt;</text>
</a>
</g>
</g>
<!-- Node1&#45;&gt;Node5 -->
<g id="edge4_Node000001_Node000005" class="edge">
<title>Node1&#45;&gt;Node5</title>
<g id="a_edge4_Node000001_Node000005"><a xlink:title=" ">
<path fill="none" stroke="orange" stroke-dasharray="5,2" d="M88.42,-88.93C101.22,-83.24 116.4,-77.34 130.75,-73.88 185.44,-60.68 249.24,-56.36 296.15,-55.17"/>
<polygon fill="orange" stroke="orange" points="87.28,-85.6 79.66,-92.97 90.21,-91.96 87.28,-85.6"/>
</a>
</g>
<text text-anchor="start" x="147.62" y="-89.88" font-family="Helvetica,sans-Serif" font-size="10.00" fill="grey"> &lt; fl::SortedHeapMap</text>
<text text-anchor="middle" x="199.75" y="-77.12" font-family="Helvetica,sans-Serif" font-size="10.00" fill="grey">::Pair &gt;</text>
</g>
<!-- Node6 -->
<g id="Node000006" class="node">
<title>Node6</title>
<g id="a_Node000006"><a xlink:href="../../db/ddd/classfl_1_1_heap_vector.html" target="_top" xlink:title=" ">
<polygon fill="white" stroke="#666666" points="441.5,-20.75 286.75,-20.75 286.75,0 441.5,0 441.5,-20.75"/>
<text text-anchor="middle" x="364.12" y="-7.25" font-family="Helvetica,sans-Serif" font-size="10.00">fl::HeapVector&lt; DrawItem &gt;</text>
</a>
</g>
</g>
<!-- Node1&#45;&gt;Node6 -->
<g id="edge5_Node000001_Node000006" class="edge">
<title>Node1&#45;&gt;Node6</title>
<g id="a_edge5_Node000001_Node000006"><a xlink:title=" ">
<path fill="none" stroke="orange" stroke-dasharray="5,2" d="M73.01,-85.37C86.59,-70.29 107.67,-50.05 130.75,-39.62 179.48,-17.62 239.46,-10.5 286.28,-8.79"/>
<polygon fill="orange" stroke="orange" points="70.45,-82.97 66.56,-92.83 75.75,-87.56 70.45,-82.97"/>
</a>
</g>
<text text-anchor="middle" x="199.75" y="-42.88" font-family="Helvetica,sans-Serif" font-size="10.00" fill="grey"> &lt; DrawItem &gt;</text>
</g>
</g>
</svg>
