<?xml version="1.0" encoding="UTF-8" standalone="no"?>
<!DOCTYPE svg PUBLIC "-//W3C//DTD SVG 1.1//EN"
 "http://www.w3.org/Graphics/SVG/1.1/DTD/svg11.dtd">
<!-- Generated by graphviz version 12.2.1 (20241206.2353)
 -->
<!-- Title: fl::__builtin_five_bit_hd_gamma_bitshift Pages: 1 -->
<svg width="465pt" height="193pt"
 viewBox="0.00 0.00 464.75 193.12" xmlns="http://www.w3.org/2000/svg" xmlns:xlink="http://www.w3.org/1999/xlink">
<g id="graph0" class="graph" transform="scale(1 1) rotate(0) translate(4 189.12)">
<title>fl::__builtin_five_bit_hd_gamma_bitshift</title>
<!-- Node1 -->
<g id="Node000001" class="node">
<title>Node1</title>
<g id="a_Node000001"><a xlink:title=" ">
<polygon fill="#999999" stroke="#666666" points="133,-78.5 0,-78.5 0,-45 133,-45 133,-78.5"/>
<text text-anchor="start" x="8" y="-65" font-family="Helvetica,sans-Serif" font-size="10.00">fl::__builtin_five</text>
<text text-anchor="middle" x="66.5" y="-52.25" font-family="Helvetica,sans-Serif" font-size="10.00">_bit_hd_gamma_bitshift</text>
</a>
</g>
</g>
<!-- Node2 -->
<g id="Node000002" class="node">
<title>Node2</title>
<g id="a_Node000002"><a xlink:href="../../d4/d36/namespacefl.html#aae9d44cd34c016ac8522f638f4b2624d" target="_top" xlink:title=" ">
<polygon fill="white" stroke="#666666" points="282.5,-110.12 179.5,-110.12 179.5,-89.38 282.5,-89.38 282.5,-110.12"/>
<text text-anchor="middle" x="231" y="-96.62" font-family="Helvetica,sans-Serif" font-size="10.00">fl::five_bit_bitshift</text>
</a>
</g>
</g>
<!-- Node1&#45;&gt;Node2 -->
<g id="edge1_Node000001_Node000002" class="edge">
<title>Node1&#45;&gt;Node2</title>
<g id="a_edge1_Node000001_Node000002"><a xlink:title=" ">
<path fill="none" stroke="#63b8ff" d="M133.13,-77.1C146.21,-80.16 159.85,-83.35 172.63,-86.33"/>
<polygon fill="#63b8ff" stroke="#63b8ff" points="171.59,-89.69 182.12,-88.55 173.18,-82.87 171.59,-89.69"/>
</a>
</g>
</g>
<!-- Node6 -->
<g id="Node000006" class="node">
<title>Node6</title>
<g id="a_Node000006"><a xlink:href="../../d0/da8/group___scaling.html#gaa51d5b048c2a4a20a00bddcdc257daaf" target="_top" xlink:title="Scale a 16&#45;bit unsigned value by an 8&#45;bit value, which is treated as the numerator of a fraction whos...">
<polygon fill="white" stroke="#666666" points="428.62,-68.12 357.12,-68.12 357.12,-47.38 428.62,-47.38 428.62,-68.12"/>
<text text-anchor="middle" x="392.88" y="-54.62" font-family="Helvetica,sans-Serif" font-size="10.00">scale16by8</text>
</a>
</g>
</g>
<!-- Node1&#45;&gt;Node6 -->
<g id="edge9_Node000001_Node000006" class="edge">
<title>Node1&#45;&gt;Node6</title>
<g id="a_edge9_Node000001_Node000006"><a xlink:title=" ">
<path fill="none" stroke="#63b8ff" d="M133.14,-60.94C196.23,-60.16 289.95,-59.01 345.58,-58.32"/>
<polygon fill="#63b8ff" stroke="#63b8ff" points="345.38,-61.82 355.33,-58.2 345.29,-54.82 345.38,-61.82"/>
</a>
</g>
</g>
<!-- Node7 -->
<g id="Node000007" class="node">
<title>Node7</title>
<g id="a_Node000007"><a xlink:href="../../d4/d36/namespacefl.html#abeb8d8ef178da3a4dbbed27dc6c0c3c7" target="_top" xlink:title=" ">
<polygon fill="white" stroke="#666666" points="293,-33.5 169,-33.5 169,0 293,0 293,-33.5"/>
<text text-anchor="start" x="177" y="-20" font-family="Helvetica,sans-Serif" font-size="10.00">fl::five_bit_hd_gamma</text>
<text text-anchor="middle" x="231" y="-7.25" font-family="Helvetica,sans-Serif" font-size="10.00">_function</text>
</a>
</g>
</g>
<!-- Node1&#45;&gt;Node7 -->
<g id="edge6_Node000001_Node000007" class="edge">
<title>Node1&#45;&gt;Node7</title>
<g id="a_edge6_Node000001_Node000007"><a xlink:title=" ">
<path fill="none" stroke="#63b8ff" d="M129.4,-44.61C138.62,-42.06 148.19,-39.41 157.6,-36.8"/>
<polygon fill="#63b8ff" stroke="#63b8ff" points="158.38,-40.21 167.08,-34.17 156.51,-33.47 158.38,-40.21"/>
</a>
</g>
</g>
<!-- Node3 -->
<g id="Node000003" class="node">
<title>Node3</title>
<g id="a_Node000003"><a xlink:href="../../dc/d3e/group___dimming.html#gade4149bdb99e2307d4236e5e90031f94" target="_top" xlink:title=" ">
<polygon fill="white" stroke="#666666" points="456.75,-185.12 329,-185.12 329,-164.38 456.75,-164.38 456.75,-185.12"/>
<text text-anchor="middle" x="392.88" y="-171.62" font-family="Helvetica,sans-Serif" font-size="10.00">brightness_bitshifter16</text>
</a>
</g>
</g>
<!-- Node2&#45;&gt;Node3 -->
<g id="edge2_Node000002_Node000003" class="edge">
<title>Node2&#45;&gt;Node3</title>
<g id="a_edge2_Node000002_Node000003"><a xlink:title=" ">
<path fill="none" stroke="#63b8ff" d="M248.62,-110.59C267.51,-122.58 299.55,-141.88 329,-154.75 333.37,-156.66 337.98,-158.48 342.64,-160.18"/>
<polygon fill="#63b8ff" stroke="#63b8ff" points="341.48,-163.48 352.07,-163.45 343.77,-156.87 341.48,-163.48"/>
</a>
</g>
</g>
<!-- Node4 -->
<g id="Node000004" class="node">
<title>Node4</title>
<g id="a_Node000004"><a xlink:href="../../dc/d3e/group___dimming.html#gaacc037b326dc7b77b87708e5bf403c59" target="_top" xlink:title=" ">
<polygon fill="white" stroke="#666666" points="453.75,-146.12 332,-146.12 332,-125.38 453.75,-125.38 453.75,-146.12"/>
<text text-anchor="middle" x="392.88" y="-132.62" font-family="Helvetica,sans-Serif" font-size="10.00">brightness_bitshifter8</text>
</a>
</g>
</g>
<!-- Node2&#45;&gt;Node4 -->
<g id="edge3_Node000002_Node000004" class="edge">
<title>Node2&#45;&gt;Node4</title>
<g id="a_edge3_Node000002_Node000004"><a xlink:title=" ">
<path fill="none" stroke="#63b8ff" d="M279.97,-110.55C296.49,-114.27 315.2,-118.48 332.52,-122.38"/>
<polygon fill="#63b8ff" stroke="#63b8ff" points="331.66,-125.78 342.19,-124.56 333.2,-118.95 331.66,-125.78"/>
</a>
</g>
</g>
<!-- Node5 -->
<g id="Node000005" class="node">
<title>Node5</title>
<g id="a_Node000005"><a xlink:href="../../d1/d12/group__intmap.html#ga43a52eb77959095c09b86f6d514eee5e" target="_top" xlink:title=" ">
<polygon fill="white" stroke="#666666" points="430.88,-107.12 354.88,-107.12 354.88,-86.38 430.88,-86.38 430.88,-107.12"/>
<text text-anchor="middle" x="392.88" y="-93.62" font-family="Helvetica,sans-Serif" font-size="10.00">map16_to_8</text>
</a>
</g>
</g>
<!-- Node2&#45;&gt;Node5 -->
<g id="edge4_Node000002_Node000005" class="edge">
<title>Node2&#45;&gt;Node5</title>
<g id="a_edge4_Node000002_Node000005"><a xlink:title=" ">
<path fill="none" stroke="#63b8ff" d="M282.59,-98.8C301.99,-98.44 324.09,-98.02 343.3,-97.66"/>
<polygon fill="#63b8ff" stroke="#63b8ff" points="343.1,-101.17 353.03,-97.48 342.97,-94.17 343.1,-101.17"/>
</a>
</g>
</g>
<!-- Node2&#45;&gt;Node6 -->
<g id="edge5_Node000002_Node000006" class="edge">
<title>Node2&#45;&gt;Node6</title>
<g id="a_edge5_Node000002_Node000006"><a xlink:title=" ">
<path fill="none" stroke="#63b8ff" d="M273.17,-88.93C295.43,-83.09 322.99,-75.85 345.95,-69.82"/>
<polygon fill="#63b8ff" stroke="#63b8ff" points="346.56,-73.27 355.34,-67.35 344.78,-66.5 346.56,-73.27"/>
</a>
</g>
</g>
<!-- Node7&#45;&gt;Node6 -->
<g id="edge8_Node000007_Node000006" class="edge">
<title>Node7&#45;&gt;Node6</title>
<g id="a_edge8_Node000007_Node000006"><a xlink:title=" ">
<path fill="none" stroke="#63b8ff" d="M293.35,-32.48C310.81,-36.96 329.52,-41.76 345.9,-45.96"/>
<polygon fill="#63b8ff" stroke="#63b8ff" points="344.79,-49.29 355.35,-48.38 346.53,-42.51 344.79,-49.29"/>
</a>
</g>
</g>
<!-- Node8 -->
<g id="Node000008" class="node">
<title>Node8</title>
<g id="a_Node000008"><a xlink:href="../../d1/d12/group__intmap.html#gab217a118917847ecb8148cdc41fa6e07" target="_top" xlink:title=" ">
<polygon fill="white" stroke="#666666" points="430.88,-27.12 354.88,-27.12 354.88,-6.38 430.88,-6.38 430.88,-27.12"/>
<text text-anchor="middle" x="392.88" y="-13.62" font-family="Helvetica,sans-Serif" font-size="10.00">map8_to_16</text>
</a>
</g>
</g>
<!-- Node7&#45;&gt;Node8 -->
<g id="edge7_Node000007_Node000008" class="edge">
<title>Node7&#45;&gt;Node8</title>
<g id="a_edge7_Node000007_Node000008"><a xlink:title=" ">
<path fill="none" stroke="#63b8ff" d="M293.35,-16.75C309.94,-16.75 327.65,-16.75 343.41,-16.75"/>
<polygon fill="#63b8ff" stroke="#63b8ff" points="342.99,-20.25 352.99,-16.75 342.99,-13.25 342.99,-20.25"/>
</a>
</g>
</g>
</g>
</svg>
