<?xml version="1.0" encoding="UTF-8" standalone="no"?>
<!DOCTYPE svg PUBLIC "-//W3C//DTD SVG 1.1//EN"
 "http://www.w3.org/Graphics/SVG/1.1/DTD/svg11.dtd">
<!-- Generated by graphviz version 12.2.1 (20241206.2353)
 -->
<!-- Title: fl::bilinearExpandArbitraryFloat Pages: 1 -->
<svg width="470pt" height="204pt"
 viewBox="0.00 0.00 470.00 203.75" xmlns="http://www.w3.org/2000/svg" xmlns:xlink="http://www.w3.org/1999/xlink">
<g id="graph0" class="graph" transform="scale(1 1) rotate(0) translate(4 199.75)">
<title>fl::bilinearExpandArbitraryFloat</title>
<!-- Node1 -->
<g id="Node000001" class="node">
<title>Node1</title>
<g id="a_Node000001"><a xlink:title=" ">
<polygon fill="#999999" stroke="#666666" points="143.5,-124.12 0,-124.12 0,-90.62 143.5,-90.62 143.5,-124.12"/>
<text text-anchor="start" x="8" y="-110.62" font-family="Helvetica,sans-Serif" font-size="10.00">fl::bilinearExpandArbitrary</text>
<text text-anchor="middle" x="71.75" y="-97.88" font-family="Helvetica,sans-Serif" font-size="10.00">Float</text>
</a>
</g>
</g>
<!-- Node2 -->
<g id="Node000002" class="node">
<title>Node2</title>
<g id="a_Node000002"><a xlink:href="../../d4/d36/namespacefl.html#adc9d7b1babde9b079710372109bd3ffb" target="_top" xlink:title=" ">
<polygon fill="white" stroke="#666666" points="322.25,-195.75 179.5,-195.75 179.5,-175 322.25,-175 322.25,-195.75"/>
<text text-anchor="middle" x="250.88" y="-182.25" font-family="Helvetica,sans-Serif" font-size="10.00">fl::bilinearInterpolateFloat</text>
</a>
</g>
</g>
<!-- Node1&#45;&gt;Node2 -->
<g id="edge1_Node000001_Node000002" class="edge">
<title>Node1&#45;&gt;Node2</title>
<g id="a_edge1_Node000001_Node000002"><a xlink:title=" ">
<path fill="none" stroke="#63b8ff" d="M100.02,-124.38C121.12,-136.99 151.38,-153.9 179.5,-165.38 184.66,-167.48 190.12,-169.45 195.62,-171.27"/>
<polygon fill="#63b8ff" stroke="#63b8ff" points="194.16,-174.48 204.75,-174.13 196.25,-167.8 194.16,-174.48"/>
</a>
</g>
</g>
<!-- Node3 -->
<g id="Node000003" class="node">
<title>Node3</title>
<g id="a_Node000003"><a xlink:href="../../d0/dce/classfl_1_1_x_y_map.html#abcc25dd0cecf6ebc8a7a97ddaf96e798" target="_top" xlink:title=" ">
<polygon fill="white" stroke="#666666" points="308.75,-156.75 193,-156.75 193,-136 308.75,-136 308.75,-156.75"/>
<text text-anchor="middle" x="250.88" y="-143.25" font-family="Helvetica,sans-Serif" font-size="10.00">fl::XYMap::getHeight</text>
</a>
</g>
</g>
<!-- Node1&#45;&gt;Node3 -->
<g id="edge2_Node000001_Node000003" class="edge">
<title>Node1&#45;&gt;Node3</title>
<g id="a_edge2_Node000001_Node000003"><a xlink:title=" ">
<path fill="none" stroke="#63b8ff" d="M143.77,-123.01C158.96,-126.36 174.86,-129.86 189.6,-133.1"/>
<polygon fill="#63b8ff" stroke="#63b8ff" points="188.61,-136.47 199.13,-135.2 190.11,-129.63 188.61,-136.47"/>
</a>
</g>
</g>
<!-- Node4 -->
<g id="Node000004" class="node">
<title>Node4</title>
<g id="a_Node000004"><a xlink:href="../../d0/dce/classfl_1_1_x_y_map.html#af55d7352857170df1d30ac1dc1991e68" target="_top" xlink:title=" ">
<polygon fill="white" stroke="#666666" points="304.25,-117.75 197.5,-117.75 197.5,-97 304.25,-97 304.25,-117.75"/>
<text text-anchor="middle" x="250.88" y="-104.25" font-family="Helvetica,sans-Serif" font-size="10.00">fl::XYMap::getTotal</text>
</a>
</g>
</g>
<!-- Node1&#45;&gt;Node4 -->
<g id="edge3_Node000001_Node000004" class="edge">
<title>Node1&#45;&gt;Node4</title>
<g id="a_edge3_Node000001_Node000004"><a xlink:title=" ">
<path fill="none" stroke="#63b8ff" d="M143.77,-107.38C157.68,-107.38 172.2,-107.38 185.86,-107.38"/>
<polygon fill="#63b8ff" stroke="#63b8ff" points="185.59,-110.88 195.59,-107.38 185.59,-103.88 185.59,-110.88"/>
</a>
</g>
</g>
<!-- Node5 -->
<g id="Node000005" class="node">
<title>Node5</title>
<g id="a_Node000005"><a xlink:href="../../d0/dce/classfl_1_1_x_y_map.html#a3a8ae645192828b625d3beb40672e9b8" target="_top" xlink:title=" ">
<polygon fill="white" stroke="#666666" points="306.88,-78.75 194.88,-78.75 194.88,-58 306.88,-58 306.88,-78.75"/>
<text text-anchor="middle" x="250.88" y="-65.25" font-family="Helvetica,sans-Serif" font-size="10.00">fl::XYMap::getWidth</text>
</a>
</g>
</g>
<!-- Node1&#45;&gt;Node5 -->
<g id="edge4_Node000001_Node000005" class="edge">
<title>Node1&#45;&gt;Node5</title>
<g id="a_edge4_Node000001_Node000005"><a xlink:title=" ">
<path fill="none" stroke="#63b8ff" d="M143.77,-91.74C158.96,-88.39 174.86,-84.89 189.6,-81.65"/>
<polygon fill="#63b8ff" stroke="#63b8ff" points="190.11,-85.12 199.13,-79.55 188.61,-78.28 190.11,-85.12"/>
</a>
</g>
</g>
<!-- Node6 -->
<g id="Node000006" class="node">
<title>Node6</title>
<g id="a_Node000006"><a xlink:href="../../d0/dce/classfl_1_1_x_y_map.html#aaeab9d4f2c66f6e681415479493578c2" target="_top" xlink:title=" ">
<polygon fill="white" stroke="#666666" points="314.38,-39.75 187.38,-39.75 187.38,-19 314.38,-19 314.38,-39.75"/>
<text text-anchor="middle" x="250.88" y="-26.25" font-family="Helvetica,sans-Serif" font-size="10.00">fl::XYMap::mapToIndex</text>
</a>
</g>
</g>
<!-- Node1&#45;&gt;Node6 -->
<g id="edge5_Node000001_Node000006" class="edge">
<title>Node1&#45;&gt;Node6</title>
<g id="a_edge5_Node000001_Node000006"><a xlink:title=" ">
<path fill="none" stroke="#63b8ff" d="M100.02,-90.37C121.12,-77.76 151.38,-60.85 179.5,-49.38 184.66,-47.27 190.12,-45.3 195.62,-43.48"/>
<polygon fill="#63b8ff" stroke="#63b8ff" points="196.25,-46.95 204.75,-40.62 194.16,-40.27 196.25,-46.95"/>
</a>
</g>
</g>
<!-- Node7 -->
<g id="Node000007" class="node">
<title>Node7</title>
<g id="a_Node000007"><a xlink:href="../../d4/d36/namespacefl.html#aabd143143924c6bddbe62e4b21688e76" target="_top" xlink:title=" ">
<polygon fill="white" stroke="#666666" points="462,-59.75 358.25,-59.75 358.25,-39 462,-39 462,-59.75"/>
<text text-anchor="middle" x="410.12" y="-46.25" font-family="Helvetica,sans-Serif" font-size="10.00">fl::xy_line_by_line</text>
</a>
</g>
</g>
<!-- Node6&#45;&gt;Node7 -->
<g id="edge6_Node000006_Node000007" class="edge">
<title>Node6&#45;&gt;Node7</title>
<g id="a_edge6_Node000006_Node000007"><a xlink:title=" ">
<path fill="none" stroke="#63b8ff" d="M314.48,-37.34C325.04,-38.68 336.01,-40.08 346.58,-41.42"/>
<polygon fill="#63b8ff" stroke="#63b8ff" points="345.98,-44.87 356.34,-42.66 346.87,-37.93 345.98,-44.87"/>
</a>
</g>
</g>
<!-- Node8 -->
<g id="Node000008" class="node">
<title>Node8</title>
<g id="a_Node000008"><a xlink:href="../../d4/d36/namespacefl.html#a44d29156c0decceaf2ff1970ddbdde7c" target="_top" xlink:title=" ">
<polygon fill="white" stroke="#666666" points="458.62,-20.75 361.62,-20.75 361.62,0 458.62,0 458.62,-20.75"/>
<text text-anchor="middle" x="410.12" y="-7.25" font-family="Helvetica,sans-Serif" font-size="10.00">fl::xy_serpentine</text>
</a>
</g>
</g>
<!-- Node6&#45;&gt;Node8 -->
<g id="edge7_Node000006_Node000008" class="edge">
<title>Node6&#45;&gt;Node8</title>
<g id="a_edge7_Node000006_Node000008"><a xlink:title=" ">
<path fill="none" stroke="#63b8ff" d="M314.48,-21.81C326.17,-20.4 338.35,-18.93 349.94,-17.53"/>
<polygon fill="#63b8ff" stroke="#63b8ff" points="350.27,-21.01 359.78,-16.34 349.43,-14.06 350.27,-21.01"/>
</a>
</g>
</g>
</g>
</svg>
