<?xml version="1.0" encoding="UTF-8" standalone="no"?>
<!DOCTYPE svg PUBLIC "-//W3C//DTD SVG 1.1//EN"
 "http://www.w3.org/Graphics/SVG/1.1/DTD/svg11.dtd">
<!-- Generated by graphviz version 12.2.1 (20241206.2353)
 -->
<!-- Title: fl::five_bit_hd_gamma_function Pages: 1 -->
<svg width="244pt" height="68pt"
 viewBox="0.00 0.00 244.00 67.75" xmlns="http://www.w3.org/2000/svg" xmlns:xlink="http://www.w3.org/1999/xlink">
<g id="graph0" class="graph" transform="scale(1 1) rotate(0) translate(4 63.75)">
<title>fl::five_bit_hd_gamma_function</title>
<!-- Node1 -->
<g id="Node000001" class="node">
<title>Node1</title>
<g id="a_Node000001"><a xlink:title=" ">
<polygon fill="#999999" stroke="#666666" points="124,-46.12 0,-46.12 0,-12.62 124,-12.62 124,-46.12"/>
<text text-anchor="start" x="8" y="-32.62" font-family="Helvetica,sans-Serif" font-size="10.00">fl::five_bit_hd_gamma</text>
<text text-anchor="middle" x="62" y="-19.88" font-family="Helvetica,sans-Serif" font-size="10.00">_function</text>
</a>
</g>
</g>
<!-- Node2 -->
<g id="Node000002" class="node">
<title>Node2</title>
<g id="a_Node000002"><a xlink:href="../../d1/d12/group__intmap.html#gab217a118917847ecb8148cdc41fa6e07" target="_top" xlink:title=" ">
<polygon fill="white" stroke="#666666" points="236,-59.75 160,-59.75 160,-39 236,-39 236,-59.75"/>
<text text-anchor="middle" x="198" y="-46.25" font-family="Helvetica,sans-Serif" font-size="10.00">map8_to_16</text>
</a>
</g>
</g>
<!-- Node1&#45;&gt;Node2 -->
<g id="edge1_Node000001_Node000002" class="edge">
<title>Node1&#45;&gt;Node2</title>
<g id="a_edge1_Node000001_Node000002"><a xlink:title=" ">
<path fill="none" stroke="#63b8ff" d="M124.12,-38.5C132.28,-39.72 140.56,-40.95 148.47,-42.13"/>
<polygon fill="#63b8ff" stroke="#63b8ff" points="147.83,-45.57 158.23,-43.59 148.86,-38.65 147.83,-45.57"/>
</a>
</g>
</g>
<!-- Node3 -->
<g id="Node000003" class="node">
<title>Node3</title>
<g id="a_Node000003"><a xlink:href="../../d0/da8/group___scaling.html#gaa51d5b048c2a4a20a00bddcdc257daaf" target="_top" xlink:title="Scale a 16&#45;bit unsigned value by an 8&#45;bit value, which is treated as the numerator of a fraction whos...">
<polygon fill="white" stroke="#666666" points="233.75,-20.75 162.25,-20.75 162.25,0 233.75,0 233.75,-20.75"/>
<text text-anchor="middle" x="198" y="-7.25" font-family="Helvetica,sans-Serif" font-size="10.00">scale16by8</text>
</a>
</g>
</g>
<!-- Node1&#45;&gt;Node3 -->
<g id="edge2_Node000001_Node000003" class="edge">
<title>Node1&#45;&gt;Node3</title>
<g id="a_edge2_Node000001_Node000003"><a xlink:title=" ">
<path fill="none" stroke="#63b8ff" d="M124.12,-20.71C133.04,-19.44 142.1,-18.16 150.66,-16.95"/>
<polygon fill="#63b8ff" stroke="#63b8ff" points="151.06,-20.42 160.47,-15.55 150.08,-13.49 151.06,-20.42"/>
</a>
</g>
</g>
</g>
</svg>
