<?xml version="1.0" encoding="UTF-8" standalone="no"?>
<!DOCTYPE svg PUBLIC "-//W3C//DTD SVG 1.1//EN"
 "http://www.w3.org/Graphics/SVG/1.1/DTD/svg11.dtd">
<!-- Generated by graphviz version 12.2.1 (20241206.2353)
 -->
<!-- Title: fl::bilinearExpandArbitrary Pages: 1 -->
<svg width="454pt" height="204pt"
 viewBox="0.00 0.00 454.25 203.75" xmlns="http://www.w3.org/2000/svg" xmlns:xlink="http://www.w3.org/1999/xlink">
<g id="graph0" class="graph" transform="scale(1 1) rotate(0) translate(4 199.75)">
<title>fl::bilinearExpandArbitrary</title>
<!-- Node1 -->
<g id="Node000001" class="node">
<title>Node1</title>
<g id="a_Node000001"><a xlink:title="Performs bilinear interpolation for upscaling an image.">
<polygon fill="#999999" stroke="#666666" points="143.5,-117.75 0,-117.75 0,-97 143.5,-97 143.5,-117.75"/>
<text text-anchor="middle" x="71.75" y="-104.25" font-family="Helvetica,sans-Serif" font-size="10.00">fl::bilinearExpandArbitrary</text>
</a>
</g>
</g>
<!-- Node2 -->
<g id="Node000002" class="node">
<title>Node2</title>
<g id="a_Node000002"><a xlink:href="../../d4/d36/namespacefl.html#a2e4fe67035df871b23df6b907ca338c8" target="_top" xlink:title=" ">
<polygon fill="white" stroke="#666666" points="302,-195.75 184,-195.75 184,-175 302,-175 302,-195.75"/>
<text text-anchor="middle" x="243" y="-182.25" font-family="Helvetica,sans-Serif" font-size="10.00">fl::bilinearInterpolate</text>
</a>
</g>
</g>
<!-- Node1&#45;&gt;Node2 -->
<g id="edge1_Node000001_Node000002" class="edge">
<title>Node1&#45;&gt;Node2</title>
<g id="a_edge1_Node000001_Node000002"><a xlink:title=" ">
<path fill="none" stroke="#63b8ff" d="M90,-118.07C110.7,-130.58 146.72,-151.37 179.5,-165.38 184.04,-167.32 188.84,-169.17 193.67,-170.92"/>
<polygon fill="#63b8ff" stroke="#63b8ff" points="192.21,-174.12 202.8,-174.06 194.49,-167.5 192.21,-174.12"/>
</a>
</g>
</g>
<!-- Node3 -->
<g id="Node000003" class="node">
<title>Node3</title>
<g id="a_Node000003"><a xlink:href="../../d0/dce/classfl_1_1_x_y_map.html#abcc25dd0cecf6ebc8a7a97ddaf96e798" target="_top" xlink:title=" ">
<polygon fill="white" stroke="#666666" points="300.88,-156.75 185.12,-156.75 185.12,-136 300.88,-136 300.88,-156.75"/>
<text text-anchor="middle" x="243" y="-143.25" font-family="Helvetica,sans-Serif" font-size="10.00">fl::XYMap::getHeight</text>
</a>
</g>
</g>
<!-- Node1&#45;&gt;Node3 -->
<g id="edge2_Node000001_Node000003" class="edge">
<title>Node1&#45;&gt;Node3</title>
<g id="a_edge2_Node000001_Node000003"><a xlink:title=" ">
<path fill="none" stroke="#63b8ff" d="M119.9,-118.24C139.71,-122.8 162.96,-128.16 183.83,-132.97"/>
<polygon fill="#63b8ff" stroke="#63b8ff" points="182.81,-136.33 193.34,-135.16 184.38,-129.51 182.81,-136.33"/>
</a>
</g>
</g>
<!-- Node4 -->
<g id="Node000004" class="node">
<title>Node4</title>
<g id="a_Node000004"><a xlink:href="../../d0/dce/classfl_1_1_x_y_map.html#af55d7352857170df1d30ac1dc1991e68" target="_top" xlink:title=" ">
<polygon fill="white" stroke="#666666" points="296.38,-117.75 189.62,-117.75 189.62,-97 296.38,-97 296.38,-117.75"/>
<text text-anchor="middle" x="243" y="-104.25" font-family="Helvetica,sans-Serif" font-size="10.00">fl::XYMap::getTotal</text>
</a>
</g>
</g>
<!-- Node1&#45;&gt;Node4 -->
<g id="edge3_Node000001_Node000004" class="edge">
<title>Node1&#45;&gt;Node4</title>
<g id="a_edge3_Node000001_Node000004"><a xlink:title=" ">
<path fill="none" stroke="#63b8ff" d="M143.55,-107.38C154.91,-107.38 166.61,-107.38 177.81,-107.38"/>
<polygon fill="#63b8ff" stroke="#63b8ff" points="177.74,-110.88 187.74,-107.38 177.74,-103.88 177.74,-110.88"/>
</a>
</g>
</g>
<!-- Node5 -->
<g id="Node000005" class="node">
<title>Node5</title>
<g id="a_Node000005"><a xlink:href="../../d0/dce/classfl_1_1_x_y_map.html#a3a8ae645192828b625d3beb40672e9b8" target="_top" xlink:title=" ">
<polygon fill="white" stroke="#666666" points="299,-78.75 187,-78.75 187,-58 299,-58 299,-78.75"/>
<text text-anchor="middle" x="243" y="-65.25" font-family="Helvetica,sans-Serif" font-size="10.00">fl::XYMap::getWidth</text>
</a>
</g>
</g>
<!-- Node1&#45;&gt;Node5 -->
<g id="edge4_Node000001_Node000005" class="edge">
<title>Node1&#45;&gt;Node5</title>
<g id="a_edge4_Node000001_Node000005"><a xlink:title=" ">
<path fill="none" stroke="#63b8ff" d="M119.9,-96.51C139.71,-91.95 162.96,-86.59 183.83,-81.78"/>
<polygon fill="#63b8ff" stroke="#63b8ff" points="184.38,-85.24 193.34,-79.59 182.81,-78.42 184.38,-85.24"/>
</a>
</g>
</g>
<!-- Node6 -->
<g id="Node000006" class="node">
<title>Node6</title>
<g id="a_Node000006"><a xlink:href="../../d0/dce/classfl_1_1_x_y_map.html#aaeab9d4f2c66f6e681415479493578c2" target="_top" xlink:title=" ">
<polygon fill="white" stroke="#666666" points="306.5,-39.75 179.5,-39.75 179.5,-19 306.5,-19 306.5,-39.75"/>
<text text-anchor="middle" x="243" y="-26.25" font-family="Helvetica,sans-Serif" font-size="10.00">fl::XYMap::mapToIndex</text>
</a>
</g>
</g>
<!-- Node1&#45;&gt;Node6 -->
<g id="edge5_Node000001_Node000006" class="edge">
<title>Node1&#45;&gt;Node6</title>
<g id="a_edge5_Node000001_Node000006"><a xlink:title=" ">
<path fill="none" stroke="#63b8ff" d="M90,-96.68C110.7,-84.17 146.72,-63.38 179.5,-49.38 184.04,-47.43 188.84,-45.58 193.67,-43.83"/>
<polygon fill="#63b8ff" stroke="#63b8ff" points="194.49,-47.25 202.8,-40.69 192.21,-40.63 194.49,-47.25"/>
</a>
</g>
</g>
<!-- Node7 -->
<g id="Node000007" class="node">
<title>Node7</title>
<g id="a_Node000007"><a xlink:href="../../d4/d36/namespacefl.html#aabd143143924c6bddbe62e4b21688e76" target="_top" xlink:title=" ">
<polygon fill="white" stroke="#666666" points="446.25,-59.75 342.5,-59.75 342.5,-39 446.25,-39 446.25,-59.75"/>
<text text-anchor="middle" x="394.38" y="-46.25" font-family="Helvetica,sans-Serif" font-size="10.00">fl::xy_line_by_line</text>
</a>
</g>
</g>
<!-- Node6&#45;&gt;Node7 -->
<g id="edge6_Node000006_Node000007" class="edge">
<title>Node6&#45;&gt;Node7</title>
<g id="a_edge6_Node000006_Node000007"><a xlink:title=" ">
<path fill="none" stroke="#63b8ff" d="M306.92,-37.8C314.94,-38.87 323.14,-39.97 331.15,-41.04"/>
<polygon fill="#63b8ff" stroke="#63b8ff" points="330.43,-44.48 340.8,-42.34 331.36,-37.54 330.43,-44.48"/>
</a>
</g>
</g>
<!-- Node8 -->
<g id="Node000008" class="node">
<title>Node8</title>
<g id="a_Node000008"><a xlink:href="../../d4/d36/namespacefl.html#a44d29156c0decceaf2ff1970ddbdde7c" target="_top" xlink:title=" ">
<polygon fill="white" stroke="#666666" points="442.88,-20.75 345.88,-20.75 345.88,0 442.88,0 442.88,-20.75"/>
<text text-anchor="middle" x="394.38" y="-7.25" font-family="Helvetica,sans-Serif" font-size="10.00">fl::xy_serpentine</text>
</a>
</g>
</g>
<!-- Node6&#45;&gt;Node8 -->
<g id="edge7_Node000006_Node000008" class="edge">
<title>Node6&#45;&gt;Node8</title>
<g id="a_edge7_Node000006_Node000008"><a xlink:title=" ">
<path fill="none" stroke="#63b8ff" d="M306.92,-21.37C316,-20.22 325.32,-19.03 334.32,-17.89"/>
<polygon fill="#63b8ff" stroke="#63b8ff" points="334.53,-21.39 344.01,-16.65 333.65,-14.44 334.53,-21.39"/>
</a>
</g>
</g>
</g>
</svg>
