<?xml version="1.0" encoding="UTF-8" standalone="no"?>
<!DOCTYPE svg PUBLIC "-//W3C//DTD SVG 1.1//EN"
 "http://www.w3.org/Graphics/SVG/1.1/DTD/svg11.dtd">
<!-- Generated by graphviz version 12.2.1 (20241206.2353)
 -->
<!-- Title: pacifica_one_layer Pages: 1 -->
<svg width="598pt" height="172pt"
 viewBox="0.00 0.00 598.00 171.75" xmlns="http://www.w3.org/2000/svg" xmlns:xlink="http://www.w3.org/1999/xlink">
<g id="graph0" class="graph" transform="scale(1 1) rotate(0) translate(4 167.75)">
<title>pacifica_one_layer</title>
<!-- Node1 -->
<g id="Node000001" class="node">
<title>Node1</title>
<g id="a_Node000001"><a xlink:title=" ">
<polygon fill="#999999" stroke="#666666" points="106.75,-77.75 0,-77.75 0,-57 106.75,-57 106.75,-77.75"/>
<text text-anchor="middle" x="53.38" y="-64.25" font-family="Helvetica,sans-Serif" font-size="10.00">pacifica_one_layer</text>
</a>
</g>
</g>
<!-- Node2 -->
<g id="Node000002" class="node">
<title>Node2</title>
<g id="a_Node000002"><a xlink:href="../../d2/d73/group___palette_colors.html#gac46e65aff3dd6519b33e27f0998f17cd" target="_top" xlink:title="Get a color from a palette.">
<polygon fill="white" stroke="#666666" points="242.75,-97.75 142.75,-97.75 142.75,-77 242.75,-77 242.75,-97.75"/>
<text text-anchor="middle" x="192.75" y="-84.25" font-family="Helvetica,sans-Serif" font-size="10.00">ColorFromPalette</text>
</a>
</g>
</g>
<!-- Node1&#45;&gt;Node2 -->
<g id="edge1_Node000001_Node000002" class="edge">
<title>Node1&#45;&gt;Node2</title>
<g id="a_edge1_Node000001_Node000002"><a xlink:title=" ">
<path fill="none" stroke="#63b8ff" d="M107.09,-75.05C115.01,-76.2 123.23,-77.4 131.3,-78.57"/>
<polygon fill="#63b8ff" stroke="#63b8ff" points="130.66,-82.02 141.06,-79.99 131.67,-75.09 130.66,-82.02"/>
</a>
</g>
</g>
<!-- Node11 -->
<g id="Node000011" class="node">
<title>Node11</title>
<g id="a_Node000011"><a xlink:href="../../d0/da8/group___scaling.html#ga1ff8ac00ad78e22acc7bb7445bfdb145" target="_top" xlink:title="Scale a 16&#45;bit unsigned value by an 16&#45;bit value, which is treated as the numerator of a fraction who...">
<polygon fill="white" stroke="#666666" points="219.5,-58.75 166,-58.75 166,-38 219.5,-38 219.5,-58.75"/>
<text text-anchor="middle" x="192.75" y="-45.25" font-family="Helvetica,sans-Serif" font-size="10.00">scale16</text>
</a>
</g>
</g>
<!-- Node1&#45;&gt;Node11 -->
<g id="edge11_Node000001_Node000011" class="edge">
<title>Node1&#45;&gt;Node11</title>
<g id="a_edge11_Node000001_Node000011"><a xlink:title=" ">
<path fill="none" stroke="#63b8ff" d="M107.09,-60.08C122.98,-57.89 140.06,-55.52 154.7,-53.5"/>
<polygon fill="#63b8ff" stroke="#63b8ff" points="154.91,-57 164.34,-52.17 153.96,-50.07 154.91,-57"/>
</a>
</g>
</g>
<!-- Node3 -->
<g id="Node000003" class="node">
<title>Node3</title>
<g id="a_Node000003"><a xlink:href="../../dc/db8/group___color_blends.html#ga4f06b4423f71f77346aaf5dabe7dd05c" target="_top" xlink:title="Computes a new color blended some fraction of the way between two other colors.">
<polygon fill="white" stroke="#666666" points="322.12,-135.75 279.12,-135.75 279.12,-115 322.12,-115 322.12,-135.75"/>
<text text-anchor="middle" x="300.62" y="-122.25" font-family="Helvetica,sans-Serif" font-size="10.00">blend</text>
</a>
</g>
</g>
<!-- Node2&#45;&gt;Node3 -->
<g id="edge2_Node000002_Node000003" class="edge">
<title>Node2&#45;&gt;Node3</title>
<g id="a_edge2_Node000002_Node000003"><a xlink:title=" ">
<path fill="none" stroke="#63b8ff" d="M223.81,-98.16C237.7,-103.15 254.2,-109.07 268.25,-114.11"/>
<polygon fill="#63b8ff" stroke="#63b8ff" points="266.88,-117.34 277.47,-117.42 269.24,-110.75 266.88,-117.34"/>
</a>
</g>
</g>
<!-- Node6 -->
<g id="Node000006" class="node">
<title>Node6</title>
<g id="a_Node000006"><a xlink:href="../../d0/da5/group___scaling_dirty.html#ga3fade00fb4cf5b937b973128198a7a79" target="_top" xlink:title="Clean up the r1 register after a series of *LEAVING_R1_DIRTY calls.">
<polygon fill="white" stroke="#666666" points="552.88,-163.75 480.62,-163.75 480.62,-143 552.88,-143 552.88,-163.75"/>
<text text-anchor="middle" x="516.75" y="-150.25" font-family="Helvetica,sans-Serif" font-size="10.00">cleanup_R1</text>
</a>
</g>
</g>
<!-- Node2&#45;&gt;Node6 -->
<g id="edge6_Node000002_Node000006" class="edge">
<title>Node2&#45;&gt;Node6</title>
<g id="a_edge6_Node000002_Node000006"><a xlink:title=" ">
<path fill="none" stroke="#63b8ff" d="M205.28,-98.23C220.65,-111.92 249.35,-134.82 278.75,-144.38 342.06,-164.96 419.92,-163.13 468.71,-158.99"/>
<polygon fill="#63b8ff" stroke="#63b8ff" points="469.02,-162.48 478.66,-158.07 468.38,-155.51 469.02,-162.48"/>
</a>
</g>
</g>
<!-- Node7 -->
<g id="Node000007" class="node">
<title>Node7</title>
<g id="a_Node000007"><a xlink:href="../../d0/da5/group___scaling_dirty.html#ga7386235cada3aca429b189681d2ec56d" target="_top" xlink:title="This version of scale8() does not clean up the R1 register on AVR.">
<polygon fill="white" stroke="#666666" points="590,-115.75 443.5,-115.75 443.5,-95 590,-95 590,-115.75"/>
<text text-anchor="middle" x="516.75" y="-102.25" font-family="Helvetica,sans-Serif" font-size="10.00">scale8_LEAVING_R1_DIRTY</text>
</a>
</g>
</g>
<!-- Node2&#45;&gt;Node7 -->
<g id="edge10_Node000002_Node000007" class="edge">
<title>Node2&#45;&gt;Node7</title>
<g id="a_edge10_Node000002_Node000007"><a xlink:title=" ">
<path fill="none" stroke="#63b8ff" d="M243.01,-90.13C293.15,-92.93 371.85,-97.33 431.84,-100.68"/>
<polygon fill="#63b8ff" stroke="#63b8ff" points="431.51,-104.17 441.68,-101.23 431.9,-97.18 431.51,-104.17"/>
</a>
</g>
</g>
<!-- Node8 -->
<g id="Node000008" class="node">
<title>Node8</title>
<g id="a_Node000008"><a xlink:href="../../da/d2d/colorutils_8cpp.html#ab445fd8641e95a3bbd1417d9783f6170" target="_top" xlink:title="Helper function to divide a number by 16, aka four logical shift right (LSR)&#39;s.">
<polygon fill="white" stroke="#666666" points="321,-59.75 280.25,-59.75 280.25,-39 321,-39 321,-59.75"/>
<text text-anchor="middle" x="300.62" y="-46.25" font-family="Helvetica,sans-Serif" font-size="10.00">lsrX4</text>
</a>
</g>
</g>
<!-- Node2&#45;&gt;Node8 -->
<g id="edge7_Node000002_Node000008" class="edge">
<title>Node2&#45;&gt;Node8</title>
<g id="a_edge7_Node000002_Node000008"><a xlink:title=" ">
<path fill="none" stroke="#63b8ff" d="M223.81,-76.59C237.99,-71.5 254.88,-65.43 269.12,-60.32"/>
<polygon fill="#63b8ff" stroke="#63b8ff" points="270.22,-63.65 278.45,-56.98 267.85,-57.06 270.22,-63.65"/>
</a>
</g>
</g>
<!-- Node9 -->
<g id="Node000009" class="node">
<title>Node9</title>
<g id="a_Node000009"><a xlink:href="../../d6/d19/group___linear_interpolation.html#gaf65357c7aeca9778e5a2f80a6bac2b5d" target="_top" xlink:title="Map from one full&#45;range 8&#45;bit value into a narrower range of 8&#45;bit values, possibly a range of hues.">
<polygon fill="white" stroke="#666666" points="322.5,-20.75 278.75,-20.75 278.75,0 322.5,0 322.5,-20.75"/>
<text text-anchor="middle" x="300.62" y="-7.25" font-family="Helvetica,sans-Serif" font-size="10.00">map8</text>
</a>
</g>
</g>
<!-- Node2&#45;&gt;Node9 -->
<g id="edge8_Node000002_Node000009" class="edge">
<title>Node2&#45;&gt;Node9</title>
<g id="a_edge8_Node000002_Node000009"><a xlink:title=" ">
<path fill="none" stroke="#63b8ff" d="M225.83,-76.51C231.68,-73.92 237.57,-70.87 242.75,-67.38 261.77,-54.55 262.46,-46.54 278.75,-30.38 279.24,-29.89 279.74,-29.4 280.24,-28.9"/>
<polygon fill="#63b8ff" stroke="#63b8ff" points="282.67,-31.42 287.42,-21.94 277.8,-26.39 282.67,-31.42"/>
</a>
</g>
</g>
<!-- Node4 -->
<g id="Node000004" class="node">
<title>Node4</title>
<g id="a_Node000004"><a xlink:href="../../dc/db8/group___color_blends.html#ga325120664a9c9b41abceee65303b0c4e" target="_top" xlink:title="Destructively modifies one color, blending in a given fraction of an overlay color.">
<polygon fill="#fff0f0" stroke="red" points="407.5,-135.75 358.5,-135.75 358.5,-115 407.5,-115 407.5,-135.75"/>
<text text-anchor="middle" x="383" y="-122.25" font-family="Helvetica,sans-Serif" font-size="10.00">nblend</text>
</a>
</g>
</g>
<!-- Node3&#45;&gt;Node4 -->
<g id="edge3_Node000003_Node000004" class="edge">
<title>Node3&#45;&gt;Node4</title>
<g id="a_edge3_Node000003_Node000004"><a xlink:title=" ">
<path fill="none" stroke="#63b8ff" d="M322.32,-125.38C329.78,-125.38 338.43,-125.38 346.78,-125.38"/>
<polygon fill="#63b8ff" stroke="#63b8ff" points="346.73,-128.88 356.73,-125.38 346.73,-121.88 346.73,-128.88"/>
</a>
</g>
</g>
<!-- Node4&#45;&gt;Node6 -->
<g id="edge4_Node000004_Node000006" class="edge">
<title>Node4&#45;&gt;Node6</title>
<g id="a_edge4_Node000004_Node000006"><a xlink:title=" ">
<path fill="none" stroke="#63b8ff" d="M407.86,-130.45C424.88,-134.06 448.32,-139.04 469,-143.44"/>
<polygon fill="#63b8ff" stroke="#63b8ff" points="468.16,-146.84 478.67,-145.49 469.62,-139.99 468.16,-146.84"/>
</a>
</g>
</g>
<!-- Node4&#45;&gt;Node7 -->
<g id="edge5_Node000004_Node000007" class="edge">
<title>Node4&#45;&gt;Node7</title>
<g id="a_edge5_Node000004_Node000007"><a xlink:title=" ">
<path fill="none" stroke="#63b8ff" d="M407.86,-121.75C415.29,-120.62 423.95,-119.31 433.07,-117.93"/>
<polygon fill="#63b8ff" stroke="#63b8ff" points="433.51,-121.4 442.87,-116.44 432.46,-114.48 433.51,-121.4"/>
</a>
</g>
</g>
<!-- Node10 -->
<g id="Node000010" class="node">
<title>Node10</title>
<g id="a_Node000010"><a xlink:href="../../d0/da8/group___scaling.html#gad7535ccda9c92470c4e6ee0265585555" target="_top" xlink:title="Scale one byte by a second one, which is treated as the numerator of a fraction whose denominator is ...">
<polygon fill="white" stroke="#666666" points="406.75,-20.75 359.25,-20.75 359.25,0 406.75,0 406.75,-20.75"/>
<text text-anchor="middle" x="383" y="-7.25" font-family="Helvetica,sans-Serif" font-size="10.00">scale8</text>
</a>
</g>
</g>
<!-- Node9&#45;&gt;Node10 -->
<g id="edge9_Node000009_Node000010" class="edge">
<title>Node9&#45;&gt;Node10</title>
<g id="a_edge9_Node000009_Node000010"><a xlink:title=" ">
<path fill="none" stroke="#63b8ff" d="M322.74,-10.38C330.27,-10.38 338.95,-10.38 347.31,-10.38"/>
<polygon fill="#63b8ff" stroke="#63b8ff" points="347.25,-13.88 357.25,-10.38 347.25,-6.88 347.25,-13.88"/>
</a>
</g>
</g>
</g>
</svg>
