<?xml version="1.0" encoding="UTF-8" standalone="no"?>
<!DOCTYPE svg PUBLIC "-//W3C//DTD SVG 1.1//EN"
 "http://www.w3.org/Graphics/SVG/1.1/DTD/svg11.dtd">
<!-- Generated by graphviz version 12.2.1 (20241206.2353)
 -->
<!-- Title: fl::SortedHeapVector::find Pages: 1 -->
<svg width="300pt" height="80pt"
 viewBox="0.00 0.00 299.50 80.12" xmlns="http://www.w3.org/2000/svg" xmlns:xlink="http://www.w3.org/1999/xlink">
<g id="graph0" class="graph" transform="scale(1 1) rotate(0) translate(4 76.12)">
<title>fl::SortedHeapVector::find</title>
<!-- Node1 -->
<g id="Node000001" class="node">
<title>Node1</title>
<g id="a_Node000001"><a xlink:title=" ">
<polygon fill="#999999" stroke="#666666" points="115.75,-55.5 0,-55.5 0,-22 115.75,-22 115.75,-55.5"/>
<text text-anchor="start" x="8" y="-42" font-family="Helvetica,sans-Serif" font-size="10.00">fl::SortedHeapVector</text>
<text text-anchor="middle" x="57.88" y="-29.25" font-family="Helvetica,sans-Serif" font-size="10.00">::find</text>
</a>
</g>
</g>
<!-- Node2 -->
<g id="Node000002" class="node">
<title>Node2</title>
<g id="a_Node000002"><a xlink:href="../../d0/d5c/classfl_1_1_sorted_heap_vector.html#a3b8f9f60eb6333c0a0cdb889eb43714b" target="_top" xlink:title=" ">
<polygon fill="white" stroke="#666666" points="291.5,-72.12 151.75,-72.12 151.75,-51.38 291.5,-51.38 291.5,-72.12"/>
<text text-anchor="middle" x="221.62" y="-58.62" font-family="Helvetica,sans-Serif" font-size="10.00">fl::SortedHeapVector::end</text>
</a>
</g>
</g>
<!-- Node1&#45;&gt;Node2 -->
<g id="edge1_Node000001_Node000002" class="edge">
<title>Node1&#45;&gt;Node2</title>
<g id="a_edge1_Node000001_Node000002"><a xlink:title=" ">
<path fill="none" stroke="#63b8ff" d="M115.9,-46.86C123.78,-47.98 131.99,-49.15 140.2,-50.31"/>
<polygon fill="#63b8ff" stroke="#63b8ff" points="139.46,-53.74 149.85,-51.69 140.44,-46.81 139.46,-53.74"/>
</a>
</g>
</g>
<!-- Node3 -->
<g id="Node000003" class="node">
<title>Node3</title>
<g id="a_Node000003"><a xlink:href="../../d0/d5c/classfl_1_1_sorted_heap_vector.html#a227f79bc7eb5d95ff281a673b313ca1f" target="_top" xlink:title=" ">
<polygon fill="white" stroke="#666666" points="279.5,-33.5 163.75,-33.5 163.75,0 279.5,0 279.5,-33.5"/>
<text text-anchor="start" x="171.75" y="-20" font-family="Helvetica,sans-Serif" font-size="10.00">fl::SortedHeapVector</text>
<text text-anchor="middle" x="221.62" y="-7.25" font-family="Helvetica,sans-Serif" font-size="10.00">::lower_bound</text>
</a>
</g>
</g>
<!-- Node1&#45;&gt;Node3 -->
<g id="edge2_Node000001_Node000003" class="edge">
<title>Node1&#45;&gt;Node3</title>
<g id="a_edge2_Node000001_Node000003"><a xlink:title=" ">
<path fill="none" stroke="#63b8ff" d="M115.9,-30.99C127.55,-29.41 139.92,-27.73 151.93,-26.09"/>
<polygon fill="#63b8ff" stroke="#63b8ff" points="152.36,-29.57 161.8,-24.75 151.41,-22.63 152.36,-29.57"/>
</a>
</g>
</g>
</g>
</svg>
