<?xml version="1.0" encoding="UTF-8" standalone="no"?>
<!DOCTYPE svg PUBLIC "-//W3C//DTD SVG 1.1//EN"
 "http://www.w3.org/Graphics/SVG/1.1/DTD/svg11.dtd">
<!-- Generated by graphviz version 12.2.1 (20241206.2353)
 -->
<!-- Title: fl::SortedHeapVector::erase Pages: 1 -->
<svg width="451pt" height="80pt"
 viewBox="0.00 0.00 451.25 80.12" xmlns="http://www.w3.org/2000/svg" xmlns:xlink="http://www.w3.org/1999/xlink">
<g id="graph0" class="graph" transform="scale(1 1) rotate(0) translate(4 76.12)">
<title>fl::SortedHeapVector::erase</title>
<!-- Node1 -->
<g id="Node000001" class="node">
<title>Node1</title>
<g id="a_Node000001"><a xlink:title=" ">
<polygon fill="#999999" stroke="#666666" points="115.75,-55.5 0,-55.5 0,-22 115.75,-22 115.75,-55.5"/>
<text text-anchor="start" x="8" y="-42" font-family="Helvetica,sans-Serif" font-size="10.00">fl::SortedHeapVector</text>
<text text-anchor="middle" x="57.88" y="-29.25" font-family="Helvetica,sans-Serif" font-size="10.00">::erase</text>
</a>
</g>
</g>
<!-- Node2 -->
<g id="Node000002" class="node">
<title>Node2</title>
<g id="a_Node000002"><a xlink:href="../../d0/d5c/classfl_1_1_sorted_heap_vector.html#a3b8f9f60eb6333c0a0cdb889eb43714b" target="_top" xlink:title=" ">
<polygon fill="white" stroke="#666666" points="443.25,-72.12 303.5,-72.12 303.5,-51.38 443.25,-51.38 443.25,-72.12"/>
<text text-anchor="middle" x="373.38" y="-58.62" font-family="Helvetica,sans-Serif" font-size="10.00">fl::SortedHeapVector::end</text>
</a>
</g>
</g>
<!-- Node1&#45;&gt;Node2 -->
<g id="edge1_Node000001_Node000002" class="edge">
<title>Node1&#45;&gt;Node2</title>
<g id="a_edge1_Node000001_Node000002"><a xlink:title=" ">
<path fill="none" stroke="#63b8ff" d="M116.01,-42.94C165.15,-46.55 236.58,-51.79 291.57,-55.82"/>
<polygon fill="#63b8ff" stroke="#63b8ff" points="291.3,-59.31 301.53,-56.55 291.81,-52.33 291.3,-59.31"/>
</a>
</g>
</g>
<!-- Node3 -->
<g id="Node000003" class="node">
<title>Node3</title>
<g id="a_Node000003"><a xlink:href="../../d0/d5c/classfl_1_1_sorted_heap_vector.html#af215d06940274e9ca30be0f1d5950e50" target="_top" xlink:title=" ">
<polygon fill="white" stroke="#666666" points="267.5,-33.5 151.75,-33.5 151.75,0 267.5,0 267.5,-33.5"/>
<text text-anchor="start" x="159.75" y="-20" font-family="Helvetica,sans-Serif" font-size="10.00">fl::SortedHeapVector</text>
<text text-anchor="middle" x="209.62" y="-7.25" font-family="Helvetica,sans-Serif" font-size="10.00">::find</text>
</a>
</g>
</g>
<!-- Node1&#45;&gt;Node3 -->
<g id="edge2_Node000001_Node000003" class="edge">
<title>Node1&#45;&gt;Node3</title>
<g id="a_edge2_Node000001_Node000003"><a xlink:title=" ">
<path fill="none" stroke="#63b8ff" d="M115.92,-30.37C123.99,-29.18 132.35,-27.96 140.6,-26.74"/>
<polygon fill="#63b8ff" stroke="#63b8ff" points="140.86,-30.24 150.24,-25.33 139.84,-23.32 140.86,-30.24"/>
</a>
</g>
</g>
<!-- Node3&#45;&gt;Node2 -->
<g id="edge3_Node000003_Node000002" class="edge">
<title>Node3&#45;&gt;Node2</title>
<g id="a_edge3_Node000003_Node000002"><a xlink:title=" ">
<path fill="none" stroke="#63b8ff" d="M267.59,-32.73C279.46,-36.05 291.88,-39.52 303.5,-42.75 309.48,-44.41 315.74,-46.15 321.96,-47.87"/>
<polygon fill="#63b8ff" stroke="#63b8ff" points="321,-51.23 331.57,-50.52 322.87,-44.49 321,-51.23"/>
</a>
</g>
</g>
<!-- Node4 -->
<g id="Node000004" class="node">
<title>Node4</title>
<g id="a_Node000004"><a xlink:href="../../d0/d5c/classfl_1_1_sorted_heap_vector.html#a227f79bc7eb5d95ff281a673b313ca1f" target="_top" xlink:title=" ">
<polygon fill="white" stroke="#666666" points="431.25,-33.5 315.5,-33.5 315.5,0 431.25,0 431.25,-33.5"/>
<text text-anchor="start" x="323.5" y="-20" font-family="Helvetica,sans-Serif" font-size="10.00">fl::SortedHeapVector</text>
<text text-anchor="middle" x="373.38" y="-7.25" font-family="Helvetica,sans-Serif" font-size="10.00">::lower_bound</text>
</a>
</g>
</g>
<!-- Node3&#45;&gt;Node4 -->
<g id="edge4_Node000003_Node000004" class="edge">
<title>Node3&#45;&gt;Node4</title>
<g id="a_edge4_Node000003_Node000004"><a xlink:title=" ">
<path fill="none" stroke="#63b8ff" d="M267.65,-16.75C279.3,-16.75 291.67,-16.75 303.68,-16.75"/>
<polygon fill="#63b8ff" stroke="#63b8ff" points="303.53,-20.25 313.53,-16.75 303.53,-13.25 303.53,-20.25"/>
</a>
</g>
</g>
</g>
</svg>
