<?xml version="1.0" encoding="UTF-8" standalone="no"?>
<!DOCTYPE svg PUBLIC "-//W3C//DTD SVG 1.1//EN"
 "http://www.w3.org/Graphics/SVG/1.1/DTD/svg11.dtd">
<!-- Generated by graphviz version 12.2.1 (20241206.2353)
 -->
<!-- Title: fl::SortedHeapVector::end Pages: 1 -->
<svg width="475pt" height="184pt"
 viewBox="0.00 0.00 474.50 183.50" xmlns="http://www.w3.org/2000/svg" xmlns:xlink="http://www.w3.org/1999/xlink">
<g id="graph0" class="graph" transform="scale(1 1) rotate(0) translate(4 179.5)">
<title>fl::SortedHeapVector::end</title>
<!-- Node1 -->
<g id="Node000001" class="node">
<title>Node1</title>
<g id="a_Node000001"><a xlink:title=" ">
<polygon fill="#999999" stroke="#666666" points="466.5,-94.12 326.75,-94.12 326.75,-73.38 466.5,-73.38 466.5,-94.12"/>
<text text-anchor="middle" x="396.62" y="-80.62" font-family="Helvetica,sans-Serif" font-size="10.00">fl::SortedHeapVector::end</text>
</a>
</g>
</g>
<!-- Node2 -->
<g id="Node000002" class="node">
<title>Node2</title>
<g id="a_Node000002"><a xlink:href="../../d0/d5c/classfl_1_1_sorted_heap_vector.html#a29585576851f357c58eb7081d33a0be4" target="_top" xlink:title=" ">
<polygon fill="white" stroke="#666666" points="127.38,-175.5 11.62,-175.5 11.62,-142 127.38,-142 127.38,-175.5"/>
<text text-anchor="start" x="19.62" y="-162" font-family="Helvetica,sans-Serif" font-size="10.00">fl::SortedHeapVector</text>
<text text-anchor="middle" x="69.5" y="-149.25" font-family="Helvetica,sans-Serif" font-size="10.00">::erase</text>
</a>
</g>
</g>
<!-- Node1&#45;&gt;Node2 -->
<g id="edge1_Node000001_Node000002" class="edge">
<title>Node1&#45;&gt;Node2</title>
<g id="a_edge1_Node000001_Node000002"><a xlink:title=" ">
<path fill="none" stroke="#63b8ff" d="M367.43,-99.95C346.85,-111.01 317.91,-125.02 290.75,-132.75 236.68,-148.14 172.65,-154.43 127.6,-157"/>
<polygon fill="#63b8ff" stroke="#63b8ff" points="368.98,-103.1 376.05,-95.21 365.6,-96.96 368.98,-103.1"/>
</a>
</g>
</g>
<!-- Node3 -->
<g id="Node000003" class="node">
<title>Node3</title>
<g id="a_Node000003"><a xlink:href="../../d0/d5c/classfl_1_1_sorted_heap_vector.html#af215d06940274e9ca30be0f1d5950e50" target="_top" xlink:title=" ">
<polygon fill="white" stroke="#666666" points="290.75,-123.5 175,-123.5 175,-90 290.75,-90 290.75,-123.5"/>
<text text-anchor="start" x="183" y="-110" font-family="Helvetica,sans-Serif" font-size="10.00">fl::SortedHeapVector</text>
<text text-anchor="middle" x="232.88" y="-97.25" font-family="Helvetica,sans-Serif" font-size="10.00">::find</text>
</a>
</g>
</g>
<!-- Node1&#45;&gt;Node3 -->
<g id="edge2_Node000001_Node000003" class="edge">
<title>Node1&#45;&gt;Node3</title>
<g id="a_edge2_Node000001_Node000003"><a xlink:title=" ">
<path fill="none" stroke="#63b8ff" d="M315.38,-95.16C307.16,-96.33 298.92,-97.5 291.02,-98.62"/>
<polygon fill="#63b8ff" stroke="#63b8ff" points="315.65,-98.66 325.06,-93.78 314.67,-91.73 315.65,-98.66"/>
</a>
</g>
</g>
<!-- Node5 -->
<g id="Node000005" class="node">
<title>Node5</title>
<g id="a_Node000005"><a xlink:href="../../d0/d5c/classfl_1_1_sorted_heap_vector.html#a45fa0115fc388f68ad96ffad229851d0" target="_top" xlink:title=" ">
<polygon fill="white" stroke="#666666" points="139,-72.12 0,-72.12 0,-51.38 139,-51.38 139,-72.12"/>
<text text-anchor="middle" x="69.5" y="-58.62" font-family="Helvetica,sans-Serif" font-size="10.00">fl::SortedHeapVector::has</text>
</a>
</g>
</g>
<!-- Node1&#45;&gt;Node5 -->
<g id="edge6_Node000001_Node000005" class="edge">
<title>Node1&#45;&gt;Node5</title>
<g id="a_edge6_Node000001_Node000005"><a xlink:title=" ">
<path fill="none" stroke="#63b8ff" d="M315.02,-78.3C261.08,-74.65 190.82,-69.89 139.46,-66.42"/>
<polygon fill="#63b8ff" stroke="#63b8ff" points="314.55,-81.77 324.77,-78.96 315.03,-74.79 314.55,-81.77"/>
</a>
</g>
</g>
<!-- Node6 -->
<g id="Node000006" class="node">
<title>Node6</title>
<g id="a_Node000006"><a xlink:href="../../d0/d5c/classfl_1_1_sorted_heap_vector.html#acb8ebcc1fd72df0caf56c72b8c5de708" target="_top" xlink:title=" ">
<polygon fill="white" stroke="#666666" points="290.75,-33.5 175,-33.5 175,0 290.75,0 290.75,-33.5"/>
<text text-anchor="start" x="183" y="-20" font-family="Helvetica,sans-Serif" font-size="10.00">fl::SortedHeapVector</text>
<text text-anchor="middle" x="232.88" y="-7.25" font-family="Helvetica,sans-Serif" font-size="10.00">::insert</text>
</a>
</g>
</g>
<!-- Node1&#45;&gt;Node6 -->
<g id="edge7_Node000001_Node000006" class="edge">
<title>Node1&#45;&gt;Node6</title>
<g id="a_edge7_Node000001_Node000006"><a xlink:title=" ">
<path fill="none" stroke="#63b8ff" d="M359.16,-68.65C334.24,-58.32 301.17,-44.62 275.26,-33.89"/>
<polygon fill="#63b8ff" stroke="#63b8ff" points="357.66,-71.81 368.24,-72.41 360.34,-65.35 357.66,-71.81"/>
</a>
</g>
</g>
<!-- Node3&#45;&gt;Node2 -->
<g id="edge3_Node000003_Node000002" class="edge">
<title>Node3&#45;&gt;Node2</title>
<g id="a_edge3_Node000003_Node000002"><a xlink:title=" ">
<path fill="none" stroke="#63b8ff" d="M167.69,-127.43C153.21,-132.1 137.99,-137 124.01,-141.51"/>
<polygon fill="#63b8ff" stroke="#63b8ff" points="168.7,-130.78 177.15,-124.39 166.56,-124.12 168.7,-130.78"/>
</a>
</g>
</g>
<!-- Node4 -->
<g id="Node000004" class="node">
<title>Node4</title>
<g id="a_Node000004"><a xlink:href="../../d0/d5c/classfl_1_1_sorted_heap_vector.html#aee15dac04ee1b3b3d46c8cecb1eb3920" target="_top" xlink:title=" ">
<polygon fill="white" stroke="#666666" points="127.38,-123.5 11.62,-123.5 11.62,-90 127.38,-90 127.38,-123.5"/>
<text text-anchor="start" x="19.62" y="-110" font-family="Helvetica,sans-Serif" font-size="10.00">fl::SortedHeapVector</text>
<text text-anchor="middle" x="69.5" y="-97.25" font-family="Helvetica,sans-Serif" font-size="10.00">::find</text>
</a>
</g>
</g>
<!-- Node3&#45;&gt;Node4 -->
<g id="edge4_Node000003_Node000004" class="edge">
<title>Node3&#45;&gt;Node4</title>
<g id="a_edge4_Node000003_Node000004"><a xlink:title=" ">
<path fill="none" stroke="#63b8ff" d="M163.29,-106.75C151.42,-106.75 139.19,-106.75 127.66,-106.75"/>
<polygon fill="#63b8ff" stroke="#63b8ff" points="163.01,-110.25 173.01,-106.75 163.01,-103.25 163.01,-110.25"/>
</a>
</g>
</g>
<!-- Node3&#45;&gt;Node5 -->
<g id="edge5_Node000003_Node000005" class="edge">
<title>Node3&#45;&gt;Node5</title>
<g id="a_edge5_Node000003_Node000005"><a xlink:title=" ">
<path fill="none" stroke="#63b8ff" d="M163.94,-87.71C155.54,-85.36 147.07,-83 139,-80.75 129.49,-78.1 119.23,-75.25 109.63,-72.59"/>
<polygon fill="#63b8ff" stroke="#63b8ff" points="162.87,-91.05 173.45,-90.37 164.76,-84.31 162.87,-91.05"/>
</a>
</g>
</g>
</g>
</svg>
