<?xml version="1.0" encoding="UTF-8" standalone="no"?>
<!DOCTYPE svg PUBLIC "-//W3C//DTD SVG 1.1//EN"
 "http://www.w3.org/Graphics/SVG/1.1/DTD/svg11.dtd">
<!-- Generated by graphviz version 12.2.1 (20241206.2353)
 -->
<!-- Title: fl::SortedHeapVector::has Pages: 1 -->
<svg width="475pt" height="80pt"
 viewBox="0.00 0.00 474.50 80.12" xmlns="http://www.w3.org/2000/svg" xmlns:xlink="http://www.w3.org/1999/xlink">
<g id="graph0" class="graph" transform="scale(1 1) rotate(0) translate(4 76.12)">
<title>fl::SortedHeapVector::has</title>
<!-- Node1 -->
<g id="Node000001" class="node">
<title>Node1</title>
<g id="a_Node000001"><a xlink:title=" ">
<polygon fill="#999999" stroke="#666666" points="139,-49.12 0,-49.12 0,-28.38 139,-28.38 139,-49.12"/>
<text text-anchor="middle" x="69.5" y="-35.62" font-family="Helvetica,sans-Serif" font-size="10.00">fl::SortedHeapVector::has</text>
</a>
</g>
</g>
<!-- Node2 -->
<g id="Node000002" class="node">
<title>Node2</title>
<g id="a_Node000002"><a xlink:href="../../d0/d5c/classfl_1_1_sorted_heap_vector.html#a3b8f9f60eb6333c0a0cdb889eb43714b" target="_top" xlink:title=" ">
<polygon fill="white" stroke="#666666" points="466.5,-72.12 326.75,-72.12 326.75,-51.38 466.5,-51.38 466.5,-72.12"/>
<text text-anchor="middle" x="396.62" y="-58.62" font-family="Helvetica,sans-Serif" font-size="10.00">fl::SortedHeapVector::end</text>
</a>
</g>
</g>
<!-- Node1&#45;&gt;Node2 -->
<g id="edge1_Node000001_Node000002" class="edge">
<title>Node1&#45;&gt;Node2</title>
<g id="a_edge1_Node000001_Node000002"><a xlink:title=" ">
<path fill="none" stroke="#63b8ff" d="M139.45,-43.63C190.87,-47.27 261.26,-52.24 315.24,-56.06"/>
<polygon fill="#63b8ff" stroke="#63b8ff" points="314.76,-59.54 324.98,-56.75 315.26,-52.56 314.76,-59.54"/>
</a>
</g>
</g>
<!-- Node3 -->
<g id="Node000003" class="node">
<title>Node3</title>
<g id="a_Node000003"><a xlink:href="../../d0/d5c/classfl_1_1_sorted_heap_vector.html#af215d06940274e9ca30be0f1d5950e50" target="_top" xlink:title=" ">
<polygon fill="white" stroke="#666666" points="290.75,-33.5 175,-33.5 175,0 290.75,0 290.75,-33.5"/>
<text text-anchor="start" x="183" y="-20" font-family="Helvetica,sans-Serif" font-size="10.00">fl::SortedHeapVector</text>
<text text-anchor="middle" x="232.88" y="-7.25" font-family="Helvetica,sans-Serif" font-size="10.00">::find</text>
</a>
</g>
</g>
<!-- Node1&#45;&gt;Node3 -->
<g id="edge2_Node000001_Node000003" class="edge">
<title>Node1&#45;&gt;Node3</title>
<g id="a_edge2_Node000001_Node000003"><a xlink:title=" ">
<path fill="none" stroke="#63b8ff" d="M139.41,-29.36C147.44,-28.26 155.64,-27.14 163.66,-26.05"/>
<polygon fill="#63b8ff" stroke="#63b8ff" points="163.93,-29.55 173.36,-24.73 162.98,-22.61 163.93,-29.55"/>
</a>
</g>
</g>
<!-- Node3&#45;&gt;Node2 -->
<g id="edge3_Node000003_Node000002" class="edge">
<title>Node3&#45;&gt;Node2</title>
<g id="a_edge3_Node000003_Node000002"><a xlink:title=" ">
<path fill="none" stroke="#63b8ff" d="M290.84,-32.73C302.71,-36.05 315.13,-39.52 326.75,-42.75 332.73,-44.41 338.99,-46.15 345.21,-47.87"/>
<polygon fill="#63b8ff" stroke="#63b8ff" points="344.25,-51.23 354.82,-50.52 346.12,-44.49 344.25,-51.23"/>
</a>
</g>
</g>
<!-- Node4 -->
<g id="Node000004" class="node">
<title>Node4</title>
<g id="a_Node000004"><a xlink:href="../../d0/d5c/classfl_1_1_sorted_heap_vector.html#a227f79bc7eb5d95ff281a673b313ca1f" target="_top" xlink:title=" ">
<polygon fill="white" stroke="#666666" points="454.5,-33.5 338.75,-33.5 338.75,0 454.5,0 454.5,-33.5"/>
<text text-anchor="start" x="346.75" y="-20" font-family="Helvetica,sans-Serif" font-size="10.00">fl::SortedHeapVector</text>
<text text-anchor="middle" x="396.62" y="-7.25" font-family="Helvetica,sans-Serif" font-size="10.00">::lower_bound</text>
</a>
</g>
</g>
<!-- Node3&#45;&gt;Node4 -->
<g id="edge4_Node000003_Node000004" class="edge">
<title>Node3&#45;&gt;Node4</title>
<g id="a_edge4_Node000003_Node000004"><a xlink:title=" ">
<path fill="none" stroke="#63b8ff" d="M290.9,-16.75C302.55,-16.75 314.92,-16.75 326.93,-16.75"/>
<polygon fill="#63b8ff" stroke="#63b8ff" points="326.78,-20.25 336.78,-16.75 326.78,-13.25 326.78,-20.25"/>
</a>
</g>
</g>
</g>
</svg>
