<?xml version="1.0" encoding="UTF-8" standalone="no"?>
<!DOCTYPE svg PUBLIC "-//W3C//DTD SVG 1.1//EN"
 "http://www.w3.org/Graphics/SVG/1.1/DTD/svg11.dtd">
<!-- Generated by graphviz version 12.2.1 (20241206.2353)
 -->
<!-- Title: fl::FrameInterpolator::needsFrame Pages: 1 -->
<svg width="464pt" height="80pt"
 viewBox="0.00 0.00 464.00 80.12" xmlns="http://www.w3.org/2000/svg" xmlns:xlink="http://www.w3.org/1999/xlink">
<g id="graph0" class="graph" transform="scale(1 1) rotate(0) translate(4 76.12)">
<title>fl::FrameInterpolator::needsFrame</title>
<!-- Node1 -->
<g id="Node000001" class="node">
<title>Node1</title>
<g id="a_Node000001"><a xlink:title=" ">
<polygon fill="#999999" stroke="#666666" points="115.75,-49.12 0,-49.12 0,-15.62 115.75,-15.62 115.75,-49.12"/>
<text text-anchor="start" x="8" y="-35.62" font-family="Helvetica,sans-Serif" font-size="10.00">fl::FrameInterpolator</text>
<text text-anchor="middle" x="57.88" y="-22.88" font-family="Helvetica,sans-Serif" font-size="10.00">::needsFrame</text>
</a>
</g>
</g>
<!-- Node2 -->
<g id="Node000002" class="node">
<title>Node2</title>
<g id="a_Node000002"><a xlink:href="../../d4/da0/classfl_1_1_frame_tracker.html#a5a51fc95e9fd4c8ac218fbd14b59bb50" target="_top" xlink:title=" ">
<polygon fill="white" stroke="#666666" points="278.75,-72.12 163.75,-72.12 163.75,-38.62 278.75,-38.62 278.75,-72.12"/>
<text text-anchor="start" x="171.75" y="-58.62" font-family="Helvetica,sans-Serif" font-size="10.00">fl::FrameTracker::get</text>
<text text-anchor="middle" x="221.25" y="-45.88" font-family="Helvetica,sans-Serif" font-size="10.00">_interval_frames</text>
</a>
</g>
</g>
<!-- Node1&#45;&gt;Node2 -->
<g id="edge1_Node000001_Node000002" class="edge">
<title>Node1&#45;&gt;Node2</title>
<g id="a_edge1_Node000001_Node000002"><a xlink:title=" ">
<path fill="none" stroke="#63b8ff" d="M116.22,-40.55C127.83,-42.2 140.13,-43.96 152.07,-45.66"/>
<polygon fill="#63b8ff" stroke="#63b8ff" points="151.46,-49.11 161.86,-47.05 152.45,-42.18 151.46,-49.11"/>
</a>
</g>
</g>
<!-- Node3 -->
<g id="Node000003" class="node">
<title>Node3</title>
<g id="a_Node000003"><a xlink:href="../../d8/d94/classfl_1_1_frame_interpolator.html#a61e39bebb1c92fea6f613e7f14a4d4af" target="_top" xlink:title=" ">
<polygon fill="white" stroke="#666666" points="290.75,-20.75 151.75,-20.75 151.75,0 290.75,0 290.75,-20.75"/>
<text text-anchor="middle" x="221.25" y="-7.25" font-family="Helvetica,sans-Serif" font-size="10.00">fl::FrameInterpolator::has</text>
</a>
</g>
</g>
<!-- Node1&#45;&gt;Node3 -->
<g id="edge2_Node000001_Node000003" class="edge">
<title>Node1&#45;&gt;Node3</title>
<g id="a_edge2_Node000001_Node000003"><a xlink:title=" ">
<path fill="none" stroke="#63b8ff" d="M116.22,-24.56C123.98,-23.5 132.06,-22.4 140.12,-21.3"/>
<polygon fill="#63b8ff" stroke="#63b8ff" points="140.55,-24.77 149.99,-19.95 139.61,-17.84 140.55,-24.77"/>
</a>
</g>
</g>
<!-- Node4 -->
<g id="Node000004" class="node">
<title>Node4</title>
<g id="a_Node000004"><a xlink:href="../../dc/d45/classfl_1_1_sorted_heap_map.html#a0d32564de9839a97d3e3792ba89cd6c1" target="_top" xlink:title=" ">
<polygon fill="white" stroke="#666666" points="456,-20.75 326.75,-20.75 326.75,0 456,0 456,-20.75"/>
<text text-anchor="middle" x="391.38" y="-7.25" font-family="Helvetica,sans-Serif" font-size="10.00">fl::SortedHeapMap::has</text>
</a>
</g>
</g>
<!-- Node3&#45;&gt;Node4 -->
<g id="edge3_Node000003_Node000004" class="edge">
<title>Node3&#45;&gt;Node4</title>
<g id="a_edge3_Node000003_Node000004"><a xlink:title=" ">
<path fill="none" stroke="#63b8ff" d="M291.12,-10.38C299.07,-10.38 307.21,-10.38 315.24,-10.38"/>
<polygon fill="#63b8ff" stroke="#63b8ff" points="314.97,-13.88 324.97,-10.38 314.97,-6.88 314.97,-13.88"/>
</a>
</g>
</g>
</g>
</svg>
