<?xml version="1.0" encoding="UTF-8" standalone="no"?>
<!DOCTYPE svg PUBLIC "-//W3C//DTD SVG 1.1//EN"
 "http://www.w3.org/Graphics/SVG/1.1/DTD/svg11.dtd">
<!-- Generated by graphviz version 12.2.1 (20241206.2353)
 -->
<!-- Title: fl::FrameInterpolator::get Pages: 1 -->
<svg width="312pt" height="68pt"
 viewBox="0.00 0.00 311.50 67.75" xmlns="http://www.w3.org/2000/svg" xmlns:xlink="http://www.w3.org/1999/xlink">
<g id="graph0" class="graph" transform="scale(1 1) rotate(0) translate(4 63.75)">
<title>fl::FrameInterpolator::get</title>
<!-- Node1 -->
<g id="Node000001" class="node">
<title>Node1</title>
<g id="a_Node000001"><a xlink:title=" ">
<polygon fill="#999999" stroke="#666666" points="137.5,-39.75 0,-39.75 0,-19 137.5,-19 137.5,-39.75"/>
<text text-anchor="middle" x="68.75" y="-26.25" font-family="Helvetica,sans-Serif" font-size="10.00">fl::FrameInterpolator::get</text>
</a>
</g>
</g>
<!-- Node2 -->
<g id="Node000002" class="node">
<title>Node2</title>
<g id="a_Node000002"><a xlink:href="../../dc/d45/classfl_1_1_sorted_heap_map.html#a3f3869508af03f1c0a8d00e1b96143d1" target="_top" xlink:title=" ">
<polygon fill="white" stroke="#666666" points="303.5,-59.75 173.5,-59.75 173.5,-39 303.5,-39 303.5,-59.75"/>
<text text-anchor="middle" x="238.5" y="-46.25" font-family="Helvetica,sans-Serif" font-size="10.00">fl::SortedHeapMap::end</text>
</a>
</g>
</g>
<!-- Node1&#45;&gt;Node2 -->
<g id="edge1_Node000001_Node000002" class="edge">
<title>Node1&#45;&gt;Node2</title>
<g id="a_edge1_Node000001_Node000002"><a xlink:title=" ">
<path fill="none" stroke="#63b8ff" d="M137.98,-37.51C145.87,-38.45 153.96,-39.41 161.94,-40.37"/>
<polygon fill="#63b8ff" stroke="#63b8ff" points="161.28,-43.81 171.62,-41.52 162.11,-36.86 161.28,-43.81"/>
</a>
</g>
</g>
<!-- Node3 -->
<g id="Node000003" class="node">
<title>Node3</title>
<g id="a_Node000003"><a xlink:href="../../dc/d45/classfl_1_1_sorted_heap_map.html#aa530d894d889d2095f44fdf5f1529558" target="_top" xlink:title=" ">
<polygon fill="white" stroke="#666666" points="303.5,-20.75 173.5,-20.75 173.5,0 303.5,0 303.5,-20.75"/>
<text text-anchor="middle" x="238.5" y="-7.25" font-family="Helvetica,sans-Serif" font-size="10.00">fl::SortedHeapMap::find</text>
</a>
</g>
</g>
<!-- Node1&#45;&gt;Node3 -->
<g id="edge2_Node000001_Node000003" class="edge">
<title>Node1&#45;&gt;Node3</title>
<g id="a_edge2_Node000001_Node000003"><a xlink:title=" ">
<path fill="none" stroke="#63b8ff" d="M137.98,-21.65C145.87,-20.75 153.96,-19.84 161.94,-18.93"/>
<polygon fill="#63b8ff" stroke="#63b8ff" points="162.08,-22.44 171.62,-17.84 161.29,-15.48 162.08,-22.44"/>
</a>
</g>
</g>
</g>
</svg>
