<?xml version="1.0" encoding="UTF-8" standalone="no"?>
<!DOCTYPE svg PUBLIC "-//W3C//DTD SVG 1.1//EN"
 "http://www.w3.org/Graphics/SVG/1.1/DTD/svg11.dtd">
<!-- Generated by graphviz version 12.2.1 (20241206.2353)
 -->
<!-- Title: fl::FrameInterpolator::get_oldest_frame_number Pages: 1 -->
<svg width="306pt" height="94pt"
 viewBox="0.00 0.00 306.25 93.50" xmlns="http://www.w3.org/2000/svg" xmlns:xlink="http://www.w3.org/1999/xlink">
<g id="graph0" class="graph" transform="scale(1 1) rotate(0) translate(4 89.5)">
<title>fl::FrameInterpolator::get_oldest_frame_number</title>
<!-- Node1 -->
<g id="Node000001" class="node">
<title>Node1</title>
<g id="a_Node000001"><a xlink:title=" ">
<polygon fill="#999999" stroke="#666666" points="150.25,-59.5 0,-59.5 0,-26 150.25,-26 150.25,-59.5"/>
<text text-anchor="start" x="8" y="-46" font-family="Helvetica,sans-Serif" font-size="10.00">fl::FrameInterpolator</text>
<text text-anchor="middle" x="75.12" y="-33.25" font-family="Helvetica,sans-Serif" font-size="10.00">::get_oldest_frame_number</text>
</a>
</g>
</g>
<!-- Node2 -->
<g id="Node000002" class="node">
<title>Node2</title>
<g id="a_Node000002"><a xlink:href="../../dc/d45/classfl_1_1_sorted_heap_map.html#ad3ea6a448212462d63239fe3c6727d1b" target="_top" xlink:title=" ">
<polygon fill="white" stroke="#666666" points="298.25,-85.5 186.25,-85.5 186.25,-52 298.25,-52 298.25,-85.5"/>
<text text-anchor="start" x="194.25" y="-72" font-family="Helvetica,sans-Serif" font-size="10.00">fl::SortedHeapMap::</text>
<text text-anchor="middle" x="242.25" y="-59.25" font-family="Helvetica,sans-Serif" font-size="10.00">empty</text>
</a>
</g>
</g>
<!-- Node1&#45;&gt;Node2 -->
<g id="edge1_Node000001_Node000002" class="edge">
<title>Node1&#45;&gt;Node2</title>
<g id="a_edge1_Node000001_Node000002"><a xlink:title=" ">
<path fill="none" stroke="#63b8ff" d="M150.48,-54.46C158.62,-55.74 166.87,-57.04 174.91,-58.3"/>
<polygon fill="#63b8ff" stroke="#63b8ff" points="174.19,-61.73 184.61,-59.83 175.28,-54.82 174.19,-61.73"/>
</a>
</g>
</g>
<!-- Node3 -->
<g id="Node000003" class="node">
<title>Node3</title>
<g id="a_Node000003"><a xlink:href="../../dc/d45/classfl_1_1_sorted_heap_map.html#aa46eeea1ad3fdf6b1a0da0bc344cdece" target="_top" xlink:title=" ">
<polygon fill="white" stroke="#666666" points="298.25,-33.5 186.25,-33.5 186.25,0 298.25,0 298.25,-33.5"/>
<text text-anchor="start" x="194.25" y="-20" font-family="Helvetica,sans-Serif" font-size="10.00">fl::SortedHeapMap::</text>
<text text-anchor="middle" x="242.25" y="-7.25" font-family="Helvetica,sans-Serif" font-size="10.00">front</text>
</a>
</g>
</g>
<!-- Node1&#45;&gt;Node3 -->
<g id="edge2_Node000001_Node000003" class="edge">
<title>Node1&#45;&gt;Node3</title>
<g id="a_edge2_Node000001_Node000003"><a xlink:title=" ">
<path fill="none" stroke="#63b8ff" d="M150.48,-31.04C158.62,-29.76 166.87,-28.46 174.91,-27.2"/>
<polygon fill="#63b8ff" stroke="#63b8ff" points="175.28,-30.68 184.61,-25.67 174.19,-23.77 175.28,-30.68"/>
</a>
</g>
</g>
</g>
</svg>
