<?xml version="1.0" encoding="UTF-8" standalone="no"?>
<!DOCTYPE svg PUBLIC "-//W3C//DTD SVG 1.1//EN"
 "http://www.w3.org/Graphics/SVG/1.1/DTD/svg11.dtd">
<!-- Generated by graphviz version 12.2.1 (20241206.2353)
 -->
<!-- Title: fl::FrameInterpolator::erase Pages: 1 -->
<svg width="290pt" height="119pt"
 viewBox="0.00 0.00 289.75 118.75" xmlns="http://www.w3.org/2000/svg" xmlns:xlink="http://www.w3.org/1999/xlink">
<g id="graph0" class="graph" transform="scale(1 1) rotate(0) translate(4 114.75)">
<title>fl::FrameInterpolator::erase</title>
<!-- Node1 -->
<g id="Node000001" class="node">
<title>Node1</title>
<g id="a_Node000001"><a xlink:title=" ">
<polygon fill="#999999" stroke="#666666" points="115.75,-72.12 0,-72.12 0,-38.62 115.75,-38.62 115.75,-72.12"/>
<text text-anchor="start" x="8" y="-58.62" font-family="Helvetica,sans-Serif" font-size="10.00">fl::FrameInterpolator</text>
<text text-anchor="middle" x="57.88" y="-45.88" font-family="Helvetica,sans-Serif" font-size="10.00">::erase</text>
</a>
</g>
</g>
<!-- Node2 -->
<g id="Node000002" class="node">
<title>Node2</title>
<g id="a_Node000002"><a xlink:href="../../dc/d45/classfl_1_1_sorted_heap_map.html#a3f3869508af03f1c0a8d00e1b96143d1" target="_top" xlink:title=" ">
<polygon fill="white" stroke="#666666" points="281.75,-110.75 151.75,-110.75 151.75,-90 281.75,-90 281.75,-110.75"/>
<text text-anchor="middle" x="216.75" y="-97.25" font-family="Helvetica,sans-Serif" font-size="10.00">fl::SortedHeapMap::end</text>
</a>
</g>
</g>
<!-- Node1&#45;&gt;Node2 -->
<g id="edge1_Node000001_Node000002" class="edge">
<title>Node1&#45;&gt;Node2</title>
<g id="a_edge1_Node000001_Node000002"><a xlink:title=" ">
<path fill="none" stroke="#63b8ff" d="M115.95,-71.75C132.75,-76.57 150.97,-81.79 167.18,-86.44"/>
<polygon fill="#63b8ff" stroke="#63b8ff" points="166.01,-89.75 176.59,-89.14 167.94,-83.02 166.01,-89.75"/>
</a>
</g>
</g>
<!-- Node3 -->
<g id="Node000003" class="node">
<title>Node3</title>
<g id="a_Node000003"><a xlink:href="../../dc/d45/classfl_1_1_sorted_heap_map.html#a27a40d0b76c9c1ca01d9c792a1133446" target="_top" xlink:title=" ">
<polygon fill="white" stroke="#666666" points="272.75,-72.12 160.75,-72.12 160.75,-38.62 272.75,-38.62 272.75,-72.12"/>
<text text-anchor="start" x="168.75" y="-58.62" font-family="Helvetica,sans-Serif" font-size="10.00">fl::SortedHeapMap::</text>
<text text-anchor="middle" x="216.75" y="-45.88" font-family="Helvetica,sans-Serif" font-size="10.00">erase</text>
</a>
</g>
</g>
<!-- Node1&#45;&gt;Node3 -->
<g id="edge2_Node000001_Node000003" class="edge">
<title>Node1&#45;&gt;Node3</title>
<g id="a_edge2_Node000001_Node000003"><a xlink:title=" ">
<path fill="none" stroke="#63b8ff" d="M115.95,-55.38C126.68,-55.38 137.99,-55.38 148.98,-55.38"/>
<polygon fill="#63b8ff" stroke="#63b8ff" points="148.77,-58.88 158.77,-55.38 148.77,-51.88 148.77,-58.88"/>
</a>
</g>
</g>
<!-- Node4 -->
<g id="Node000004" class="node">
<title>Node4</title>
<g id="a_Node000004"><a xlink:href="../../dc/d45/classfl_1_1_sorted_heap_map.html#aa530d894d889d2095f44fdf5f1529558" target="_top" xlink:title=" ">
<polygon fill="white" stroke="#666666" points="281.75,-20.75 151.75,-20.75 151.75,0 281.75,0 281.75,-20.75"/>
<text text-anchor="middle" x="216.75" y="-7.25" font-family="Helvetica,sans-Serif" font-size="10.00">fl::SortedHeapMap::find</text>
</a>
</g>
</g>
<!-- Node1&#45;&gt;Node4 -->
<g id="edge3_Node000001_Node000004" class="edge">
<title>Node1&#45;&gt;Node4</title>
<g id="a_edge3_Node000001_Node000004"><a xlink:title=" ">
<path fill="none" stroke="#63b8ff" d="M115.95,-39C132.75,-34.18 150.97,-28.96 167.18,-24.31"/>
<polygon fill="#63b8ff" stroke="#63b8ff" points="167.94,-27.73 176.59,-21.61 166.01,-21 167.94,-27.73"/>
</a>
</g>
</g>
</g>
</svg>
