<?xml version="1.0" encoding="UTF-8" standalone="no"?>
<!DOCTYPE svg PUBLIC "-//W3C//DTD SVG 1.1//EN"
 "http://www.w3.org/Graphics/SVG/1.1/DTD/svg11.dtd">
<!-- Generated by graphviz version 12.2.1 (20241206.2353)
 -->
<!-- Title: /home/runner/work/FastLED/FastLED/src/fx/2d/animartrix.hpp Pages: 1 -->
<svg width="1588pt" height="439pt"
 viewBox="0.00 0.00 1588.00 438.75" xmlns="http://www.w3.org/2000/svg" xmlns:xlink="http://www.w3.org/1999/xlink">
<g id="graph0" class="graph" transform="scale(1 1) rotate(0) translate(4 434.75)">
<title>/home/runner/work/FastLED/FastLED/src/fx/2d/animartrix.hpp</title>
<!-- Node1 -->
<g id="Node000001" class="node">
<title>Node1</title>
<g id="a_Node000001"><a xlink:title=" ">
<polygon fill="#999999" stroke="#666666" points="631.62,-430.75 454.38,-430.75 454.38,-397.25 631.62,-397.25 631.62,-430.75"/>
<text text-anchor="start" x="462.38" y="-417.25" font-family="Helvetica,sans-Serif" font-size="10.00">/home/runner/work/FastLED</text>
<text text-anchor="middle" x="543" y="-404.5" font-family="Helvetica,sans-Serif" font-size="10.00">/FastLED/src/fx/2d/animartrix.hpp</text>
</a>
</g>
</g>
<!-- Node2 -->
<g id="Node000002" class="node">
<title>Node2</title>
<g id="a_Node000002"><a xlink:href="../../db/dd1/crgb_8h.html" target="_top" xlink:title="Defines the red, green, and blue (RGB) pixel struct.">
<polygon fill="white" stroke="#666666" points="961,-134.25 915,-134.25 915,-113.5 961,-113.5 961,-134.25"/>
<text text-anchor="middle" x="938" y="-120.75" font-family="Helvetica,sans-Serif" font-size="10.00">crgb.h</text>
</a>
</g>
</g>
<!-- Node1&#45;&gt;Node2 -->
<g id="edge1_Node000001_Node000002" class="edge">
<title>Node1&#45;&gt;Node2</title>
<g id="a_edge1_Node000001_Node000002"><a xlink:title=" ">
<path fill="none" stroke="#63b8ff" d="M631.86,-412.16C883.02,-408.61 1580,-390.2 1580,-295.12 1580,-295.12 1580,-295.12 1580,-236.38 1580,-170.36 1510.53,-188.19 1447,-170.25 1357.35,-144.94 1072.29,-130.62 972.73,-126.29"/>
<polygon fill="#63b8ff" stroke="#63b8ff" points="972.92,-122.8 962.77,-125.87 972.62,-129.79 972.92,-122.8"/>
</a>
</g>
</g>
<!-- Node5 -->
<g id="Node000005" class="node">
<title>Node5</title>
<g id="a_Node000005"><a xlink:href="../../df/d2a/namespace_8h.html" target="_top" xlink:title="Implements the FastLED namespace macros.">
<polygon fill="white" stroke="#666666" points="582.12,-20.75 491.88,-20.75 491.88,0 582.12,0 582.12,-20.75"/>
<text text-anchor="middle" x="537" y="-7.25" font-family="Helvetica,sans-Serif" font-size="10.00">fl/namespace.h</text>
</a>
</g>
</g>
<!-- Node1&#45;&gt;Node5 -->
<g id="edge66_Node000001_Node000005" class="edge">
<title>Node1&#45;&gt;Node5</title>
<g id="a_edge66_Node000001_Node000005"><a xlink:title=" ">
<path fill="none" stroke="#63b8ff" d="M453.94,-411.83C299.9,-407.36 0,-386.89 0,-295.12 0,-295.12 0,-295.12 0,-122.88 0,-25.51 342.68,-12.55 480.55,-11.28"/>
<polygon fill="#63b8ff" stroke="#63b8ff" points="480.19,-14.78 490.16,-11.21 480.14,-7.78 480.19,-14.78"/>
</a>
</g>
</g>
<!-- Node10 -->
<g id="Node000010" class="node">
<title>Node10</title>
<g id="a_Node000010"><a xlink:href="../../d9/d43/fx2d_8h.html" target="_top" xlink:title=" ">
<polygon fill="white" stroke="#666666" points="714.75,-361.25 655.25,-361.25 655.25,-340.5 714.75,-340.5 714.75,-361.25"/>
<text text-anchor="middle" x="685" y="-347.75" font-family="Helvetica,sans-Serif" font-size="10.00">fx/fx2d.h</text>
</a>
</g>
</g>
<!-- Node1&#45;&gt;Node10 -->
<g id="edge16_Node000001_Node000010" class="edge">
<title>Node1&#45;&gt;Node10</title>
<g id="a_edge16_Node000001_Node000010"><a xlink:title=" ">
<path fill="none" stroke="#63b8ff" d="M580.68,-396.78C602.79,-387.26 630.48,-375.35 651.77,-366.18"/>
<polygon fill="#63b8ff" stroke="#63b8ff" points="653.07,-369.43 660.87,-362.26 650.3,-363 653.07,-369.43"/>
</a>
</g>
</g>
<!-- Node11 -->
<g id="Node000011" class="node">
<title>Node11</title>
<g id="a_Node000011"><a xlink:href="../../d6/dc9/fl_2xymap_8h.html" target="_top" xlink:title=" ">
<polygon fill="white" stroke="#666666" points="420.88,-304.5 353.12,-304.5 353.12,-283.75 420.88,-283.75 420.88,-304.5"/>
<text text-anchor="middle" x="387" y="-291" font-family="Helvetica,sans-Serif" font-size="10.00">fl/xymap.h</text>
</a>
</g>
</g>
<!-- Node1&#45;&gt;Node11 -->
<g id="edge73_Node000001_Node000011" class="edge">
<title>Node1&#45;&gt;Node11</title>
<g id="a_edge73_Node000001_Node000011"><a xlink:title=" ">
<path fill="none" stroke="#63b8ff" d="M521.64,-396.86C491.97,-374.44 438.59,-334.1 408.73,-311.54"/>
<polygon fill="#63b8ff" stroke="#63b8ff" points="411.21,-309.04 401.13,-305.8 406.99,-314.62 411.21,-309.04"/>
</a>
</g>
</g>
<!-- Node14 -->
<g id="Node000014" class="node">
<title>Node14</title>
<g id="a_Node000014"><a xlink:href="../../d7/df1/fl_2ptr_8h.html" target="_top" xlink:title=" ">
<polygon fill="#fff0f0" stroke="red" points="340.38,-134.25 293.62,-134.25 293.62,-113.5 340.38,-113.5 340.38,-134.25"/>
<text text-anchor="middle" x="317" y="-120.75" font-family="Helvetica,sans-Serif" font-size="10.00">fl/ptr.h</text>
</a>
</g>
</g>
<!-- Node1&#45;&gt;Node14 -->
<g id="edge67_Node000001_Node000014" class="edge">
<title>Node1&#45;&gt;Node14</title>
<g id="a_edge67_Node000001_Node000014"><a xlink:title=" ">
<path fill="none" stroke="#63b8ff" d="M530.74,-397C500.82,-358 421.57,-255.05 354,-170.25 346.9,-161.34 338.92,-151.53 332.19,-143.32"/>
<polygon fill="#63b8ff" stroke="#63b8ff" points="335.02,-141.24 325.96,-135.73 329.61,-145.68 335.02,-141.24"/>
</a>
</g>
</g>
<!-- Node16 -->
<g id="Node000016" class="node">
<title>Node16</title>
<g id="a_Node000016"><a xlink:href="../../df/d28/fl_2scoped__ptr_8h.html" target="_top" xlink:title=" ">
<polygon fill="#fff0f0" stroke="red" points="266.25,-77.5 179.75,-77.5 179.75,-56.75 266.25,-56.75 266.25,-77.5"/>
<text text-anchor="middle" x="223" y="-64" font-family="Helvetica,sans-Serif" font-size="10.00">fl/scoped_ptr.h</text>
</a>
</g>
</g>
<!-- Node1&#45;&gt;Node16 -->
<g id="edge68_Node000001_Node000016" class="edge">
<title>Node1&#45;&gt;Node16</title>
<g id="a_edge68_Node000001_Node000016"><a xlink:title=" ">
<path fill="none" stroke="#63b8ff" d="M453.98,-409.68C312.71,-401.95 53,-376.66 53,-295.12 53,-295.12 53,-295.12 53,-236.38 53,-160.36 139.93,-107.02 189.47,-82.8"/>
<polygon fill="#63b8ff" stroke="#63b8ff" points="190.81,-86.04 198.35,-78.59 187.82,-79.71 190.81,-86.04"/>
</a>
</g>
</g>
<!-- Node28 -->
<g id="Node000028" class="node">
<title>Node28</title>
<g id="a_Node000028"><a xlink:href="../../d6/d01/dbg_8h.html" target="_top" xlink:title=" ">
<polygon fill="white" stroke="#666666" points="832,-361.25 780,-361.25 780,-340.5 832,-340.5 832,-361.25"/>
<text text-anchor="middle" x="806" y="-347.75" font-family="Helvetica,sans-Serif" font-size="10.00">fl/dbg.h</text>
</a>
</g>
</g>
<!-- Node1&#45;&gt;Node28 -->
<g id="edge69_Node000001_Node000028" class="edge">
<title>Node1&#45;&gt;Node28</title>
<g id="a_edge69_Node000001_Node000028"><a xlink:title=" ">
<path fill="none" stroke="#63b8ff" d="M612.79,-396.78C662.76,-385.17 728.1,-369.98 768.55,-360.58"/>
<polygon fill="#63b8ff" stroke="#63b8ff" points="769.09,-364.05 778.04,-358.37 767.5,-357.23 769.09,-364.05"/>
</a>
</g>
</g>
<!-- Node30 -->
<g id="Node000030" class="node">
<title>Node30</title>
<g id="a_Node000030"><a xlink:href="../../d3/d3b/animartrix__detail_8hpp.html" target="_top" xlink:title=" ">
<polygon fill="white" stroke="#666666" points="748.5,-191 627.5,-191 627.5,-170.25 748.5,-170.25 748.5,-191"/>
<text text-anchor="middle" x="688" y="-177.5" font-family="Helvetica,sans-Serif" font-size="10.00">animartrix_detail.hpp</text>
</a>
</g>
</g>
<!-- Node1&#45;&gt;Node30 -->
<g id="edge74_Node000001_Node000030" class="edge">
<title>Node1&#45;&gt;Node30</title>
<g id="a_edge74_Node000001_Node000030"><a xlink:title=" ">
<path fill="none" stroke="#63b8ff" d="M552.97,-397.1C578.86,-355.78 648.16,-245.19 676.09,-200.63"/>
<polygon fill="#63b8ff" stroke="#63b8ff" points="678.96,-202.64 681.31,-192.31 673.03,-198.92 678.96,-202.64"/>
</a>
</g>
</g>
<!-- Node3 -->
<g id="Node000003" class="node">
<title>Node3</title>
<g id="a_Node000003"><a xlink:title=" ">
<polygon fill="#e0e0e0" stroke="#999999" points="1201.38,-20.75 1148.62,-20.75 1148.62,0 1201.38,0 1201.38,-20.75"/>
<text text-anchor="middle" x="1175" y="-7.25" font-family="Helvetica,sans-Serif" font-size="10.00">stdint.h</text>
</a>
</g>
</g>
<!-- Node2&#45;&gt;Node3 -->
<g id="edge2_Node000002_Node000003" class="edge">
<title>Node2&#45;&gt;Node3</title>
<g id="a_edge2_Node000002_Node000003"><a xlink:title=" ">
<path fill="none" stroke="#63b8ff" d="M961.32,-123.35C1001.22,-123.01 1083.43,-117.11 1137,-77.5 1152.29,-66.19 1162.38,-46.76 1168.3,-31.88"/>
<polygon fill="#63b8ff" stroke="#63b8ff" points="1171.55,-33.18 1171.65,-22.59 1164.97,-30.81 1171.55,-33.18"/>
</a>
</g>
</g>
<!-- Node4 -->
<g id="Node000004" class="node">
<title>Node4</title>
<g id="a_Node000004"><a xlink:href="../../d8/dd0/chsv_8h.html" target="_top" xlink:title="Defines the hue, saturation, and value (HSV) pixel struct.">
<polygon fill="white" stroke="#666666" points="1128.38,-77.5 1081.62,-77.5 1081.62,-56.75 1128.38,-56.75 1128.38,-77.5"/>
<text text-anchor="middle" x="1105" y="-64" font-family="Helvetica,sans-Serif" font-size="10.00">chsv.h</text>
</a>
</g>
</g>
<!-- Node2&#45;&gt;Node4 -->
<g id="edge3_Node000002_Node000004" class="edge">
<title>Node2&#45;&gt;Node4</title>
<g id="a_edge3_Node000002_Node000004"><a xlink:title=" ">
<path fill="none" stroke="#63b8ff" d="M961.22,-115.26C989.52,-105.98 1037.6,-90.22 1070.3,-79.5"/>
<polygon fill="#63b8ff" stroke="#63b8ff" points="1071.32,-82.85 1079.73,-76.41 1069.14,-76.2 1071.32,-82.85"/>
</a>
</g>
</g>
<!-- Node2&#45;&gt;Node5 -->
<g id="edge6_Node000002_Node000005" class="edge">
<title>Node2&#45;&gt;Node5</title>
<g id="a_edge6_Node000002_Node000005"><a xlink:title=" ">
<path fill="none" stroke="#63b8ff" d="M939.29,-113.12C940.61,-98.53 940.63,-71.21 925,-56.75 901.15,-34.69 695.63,-20.23 593.76,-14.35"/>
<polygon fill="#63b8ff" stroke="#63b8ff" points="594.15,-10.87 583.97,-13.8 593.75,-17.86 594.15,-10.87"/>
</a>
</g>
</g>
<!-- Node6 -->
<g id="Node000006" class="node">
<title>Node6</title>
<g id="a_Node000006"><a xlink:href="../../d2/d6b/src_2color_8h.html" target="_top" xlink:title="Contains definitions for color correction and temperature.">
<polygon fill="white" stroke="#666666" points="916.12,-77.5 867.88,-77.5 867.88,-56.75 916.12,-56.75 916.12,-77.5"/>
<text text-anchor="middle" x="892" y="-64" font-family="Helvetica,sans-Serif" font-size="10.00">color.h</text>
</a>
</g>
</g>
<!-- Node2&#45;&gt;Node6 -->
<g id="edge7_Node000002_Node000006" class="edge">
<title>Node2&#45;&gt;Node6</title>
<g id="a_edge7_Node000002_Node000006"><a xlink:title=" ">
<path fill="none" stroke="#63b8ff" d="M929.78,-113.09C923.56,-105.69 914.85,-95.32 907.36,-86.41"/>
<polygon fill="#63b8ff" stroke="#63b8ff" points="910.24,-84.39 901.13,-78.99 904.88,-88.9 910.24,-84.39"/>
</a>
</g>
</g>
<!-- Node7 -->
<g id="Node000007" class="node">
<title>Node7</title>
<g id="a_Node000007"><a xlink:href="../../d9/ddf/lib8tion_2types_8h.html" target="_top" xlink:title="Defines fractional types used for lib8tion functions.">
<polygon fill="white" stroke="#666666" points="1063.88,-77.5 972.12,-77.5 972.12,-56.75 1063.88,-56.75 1063.88,-77.5"/>
<text text-anchor="middle" x="1018" y="-64" font-family="Helvetica,sans-Serif" font-size="10.00">lib8tion/types.h</text>
</a>
</g>
</g>
<!-- Node2&#45;&gt;Node7 -->
<g id="edge9_Node000002_Node000007" class="edge">
<title>Node2&#45;&gt;Node7</title>
<g id="a_edge9_Node000002_Node000007"><a xlink:title=" ">
<path fill="none" stroke="#63b8ff" d="M952.3,-113.09C964.02,-105.07 980.84,-93.56 994.53,-84.19"/>
<polygon fill="#63b8ff" stroke="#63b8ff" points="996.3,-87.22 1002.57,-78.68 992.34,-81.44 996.3,-87.22"/>
</a>
</g>
</g>
<!-- Node8 -->
<g id="Node000008" class="node">
<title>Node8</title>
<g id="a_Node000008"><a xlink:href="../../d8/d2d/fl_2force__inline_8h.html" target="_top" xlink:title=" ">
<polygon fill="white" stroke="#666666" points="375.5,-77.5 284.5,-77.5 284.5,-56.75 375.5,-56.75 375.5,-77.5"/>
<text text-anchor="middle" x="330" y="-64" font-family="Helvetica,sans-Serif" font-size="10.00">fl/force_inline.h</text>
</a>
</g>
</g>
<!-- Node2&#45;&gt;Node8 -->
<g id="edge12_Node000002_Node000008" class="edge">
<title>Node2&#45;&gt;Node8</title>
<g id="a_edge12_Node000002_Node000008"><a xlink:title=" ">
<path fill="none" stroke="#63b8ff" d="M914.54,-120.76C826.73,-112.86 515.94,-84.87 386.86,-73.25"/>
<polygon fill="#63b8ff" stroke="#63b8ff" points="387.46,-69.79 377.19,-72.37 386.83,-76.76 387.46,-69.79"/>
</a>
</g>
</g>
<!-- Node9 -->
<g id="Node000009" class="node">
<title>Node9</title>
<g id="a_Node000009"><a xlink:href="../../d8/d0c/template__magic_8h.html" target="_top" xlink:title=" ">
<polygon fill="white" stroke="#666666" points="697.75,-77.5 584.25,-77.5 584.25,-56.75 697.75,-56.75 697.75,-77.5"/>
<text text-anchor="middle" x="641" y="-64" font-family="Helvetica,sans-Serif" font-size="10.00">fl/template_magic.h</text>
</a>
</g>
</g>
<!-- Node2&#45;&gt;Node9 -->
<g id="edge13_Node000002_Node000009" class="edge">
<title>Node2&#45;&gt;Node9</title>
<g id="a_edge13_Node000002_Node000009"><a xlink:title=" ">
<path fill="none" stroke="#63b8ff" d="M914.69,-118.58C870.1,-110.36 771.27,-92.14 705.39,-79.99"/>
<polygon fill="#63b8ff" stroke="#63b8ff" points="706.26,-76.6 695.79,-78.23 704.99,-83.48 706.26,-76.6"/>
</a>
</g>
</g>
<!-- Node4&#45;&gt;Node3 -->
<g id="edge4_Node000004_Node000003" class="edge">
<title>Node4&#45;&gt;Node3</title>
<g id="a_edge4_Node000004_Node000003"><a xlink:title=" ">
<path fill="none" stroke="#63b8ff" d="M1117.51,-56.34C1127.57,-48.47 1141.91,-37.25 1153.76,-27.99"/>
<polygon fill="#63b8ff" stroke="#63b8ff" points="1155.68,-30.93 1161.4,-22.01 1151.37,-25.41 1155.68,-30.93"/>
</a>
</g>
</g>
<!-- Node4&#45;&gt;Node5 -->
<g id="edge5_Node000004_Node000005" class="edge">
<title>Node4&#45;&gt;Node5</title>
<g id="a_edge5_Node000004_Node000005"><a xlink:title=" ">
<path fill="none" stroke="#63b8ff" d="M1081.36,-58.63C1078.56,-57.91 1075.73,-57.26 1073,-56.75 900.54,-24.53 692.55,-15.16 594.05,-12.46"/>
<polygon fill="#63b8ff" stroke="#63b8ff" points="594.19,-8.96 584.1,-12.2 594.01,-15.96 594.19,-8.96"/>
</a>
</g>
</g>
<!-- Node6&#45;&gt;Node5 -->
<g id="edge8_Node000006_Node000005" class="edge">
<title>Node6&#45;&gt;Node5</title>
<g id="a_edge8_Node000006_Node000005"><a xlink:title=" ">
<path fill="none" stroke="#63b8ff" d="M867.55,-59.71C863.06,-58.64 858.4,-57.61 854,-56.75 763.58,-39.17 657.41,-25.34 593.76,-17.77"/>
<polygon fill="#63b8ff" stroke="#63b8ff" points="594.23,-14.3 583.89,-16.61 593.41,-21.25 594.23,-14.3"/>
</a>
</g>
</g>
<!-- Node7&#45;&gt;Node3 -->
<g id="edge10_Node000007_Node000003" class="edge">
<title>Node7&#45;&gt;Node3</title>
<g id="a_edge10_Node000007_Node000003"><a xlink:title=" ">
<path fill="none" stroke="#63b8ff" d="M1046.07,-56.34C1071.61,-47.43 1109.5,-34.22 1137.6,-24.42"/>
<polygon fill="#63b8ff" stroke="#63b8ff" points="1138.5,-27.81 1146.79,-21.21 1136.2,-21.2 1138.5,-27.81"/>
</a>
</g>
</g>
<!-- Node7&#45;&gt;Node5 -->
<g id="edge11_Node000007_Node000005" class="edge">
<title>Node7&#45;&gt;Node5</title>
<g id="a_edge11_Node000007_Node000005"><a xlink:title=" ">
<path fill="none" stroke="#63b8ff" d="M971.84,-58.69C967.17,-58 962.49,-57.34 958,-56.75 828.1,-39.61 675.01,-24.34 593.98,-16.65"/>
<polygon fill="#63b8ff" stroke="#63b8ff" points="594.36,-13.17 584.07,-15.71 593.7,-20.14 594.36,-13.17"/>
</a>
</g>
</g>
<!-- Node9&#45;&gt;Node3 -->
<g id="edge14_Node000009_Node000003" class="edge">
<title>Node9&#45;&gt;Node3</title>
<g id="a_edge14_Node000009_Node000003"><a xlink:title=" ">
<path fill="none" stroke="#63b8ff" d="M697.95,-58.43C702.7,-57.84 707.43,-57.28 712,-56.75 869.6,-38.63 1057.92,-21.6 1137.04,-14.66"/>
<polygon fill="#63b8ff" stroke="#63b8ff" points="1137.18,-18.16 1146.84,-13.8 1136.57,-11.19 1137.18,-18.16"/>
</a>
</g>
</g>
<!-- Node9&#45;&gt;Node5 -->
<g id="edge15_Node000009_Node000005" class="edge">
<title>Node9&#45;&gt;Node5</title>
<g id="a_edge15_Node000009_Node000005"><a xlink:title=" ">
<path fill="none" stroke="#63b8ff" d="M622.41,-56.34C606.58,-48.01 583.6,-35.91 565.46,-26.36"/>
<polygon fill="#63b8ff" stroke="#63b8ff" points="567.25,-23.34 556.77,-21.78 563.99,-29.54 567.25,-23.34"/>
</a>
</g>
</g>
<!-- Node10&#45;&gt;Node3 -->
<g id="edge17_Node000010_Node000003" class="edge">
<title>Node10&#45;&gt;Node3</title>
<g id="a_edge17_Node000010_Node000003"><a xlink:title=" ">
<path fill="none" stroke="#63b8ff" d="M715,-346.38C866.68,-328.63 1542,-249.03 1542,-238.38 1542,-238.38 1542,-238.38 1542,-122.88 1542,-85.49 1522.38,-75.45 1490,-56.75 1443.54,-29.92 1286.32,-17.69 1213.1,-13.34"/>
<polygon fill="#63b8ff" stroke="#63b8ff" points="1213.38,-9.85 1203.2,-12.77 1212.98,-16.84 1213.38,-9.85"/>
</a>
</g>
</g>
<!-- Node10&#45;&gt;Node5 -->
<g id="edge41_Node000010_Node000005" class="edge">
<title>Node10&#45;&gt;Node5</title>
<g id="a_edge41_Node000010_Node000005"><a xlink:title=" ">
<path fill="none" stroke="#63b8ff" d="M693.83,-340.11C724.22,-305.31 819.42,-185.6 760,-113.5 706.73,-48.86 643.14,-126.22 575,-77.5 559.53,-66.44 549.46,-46.98 543.6,-32.02"/>
<polygon fill="#63b8ff" stroke="#63b8ff" points="546.92,-30.93 540.28,-22.67 540.32,-33.26 546.92,-30.93"/>
</a>
</g>
</g>
<!-- Node10&#45;&gt;Node11 -->
<g id="edge18_Node000010_Node000011" class="edge">
<title>Node10&#45;&gt;Node11</title>
<g id="a_edge18_Node000010_Node000011"><a xlink:title=" ">
<path fill="none" stroke="#63b8ff" d="M654.79,-344.32C602.24,-334.67 493.76,-314.74 432.22,-303.43"/>
<polygon fill="#63b8ff" stroke="#63b8ff" points="432.89,-300 422.42,-301.63 431.62,-306.88 432.89,-300"/>
</a>
</g>
</g>
<!-- Node10&#45;&gt;Node14 -->
<g id="edge65_Node000010_Node000014" class="edge">
<title>Node10&#45;&gt;Node14</title>
<g id="a_edge65_Node000010_Node000014"><a xlink:title=" ">
<path fill="none" stroke="#63b8ff" d="M673.41,-340.21C647.02,-318.47 580.04,-264.64 519,-227 461.71,-191.66 390.65,-157.89 349.89,-139.41"/>
<polygon fill="#63b8ff" stroke="#63b8ff" points="351.42,-136.26 340.86,-135.35 348.54,-142.64 351.42,-136.26"/>
</a>
</g>
</g>
<!-- Node19 -->
<g id="Node000019" class="node">
<title>Node19</title>
<g id="a_Node000019"><a xlink:href="../../d2/d0c/fx_8h.html" target="_top" xlink:title=" ">
<polygon fill="white" stroke="#666666" points="961.75,-247.75 914.25,-247.75 914.25,-227 961.75,-227 961.75,-247.75"/>
<text text-anchor="middle" x="938" y="-234.25" font-family="Helvetica,sans-Serif" font-size="10.00">fx/fx.h</text>
</a>
</g>
</g>
<!-- Node10&#45;&gt;Node19 -->
<g id="edge42_Node000010_Node000019" class="edge">
<title>Node10&#45;&gt;Node19</title>
<g id="a_edge42_Node000010_Node000019"><a xlink:title=" ">
<path fill="none" stroke="#63b8ff" d="M708.21,-340.08C729.72,-330.97 762.59,-316.97 791,-304.5 830.94,-286.97 876.73,-266.28 906.45,-252.77"/>
<polygon fill="#63b8ff" stroke="#63b8ff" points="907.6,-256.09 915.25,-248.76 904.7,-249.72 907.6,-256.09"/>
</a>
</g>
</g>
<!-- Node11&#45;&gt;Node2 -->
<g id="edge21_Node000011_Node000002" class="edge">
<title>Node11&#45;&gt;Node2</title>
<g id="a_edge21_Node000011_Node000002"><a xlink:title=" ">
<path fill="none" stroke="#63b8ff" d="M421.3,-284.7C487.09,-268.33 635.38,-230.32 758,-191 809.57,-174.46 868.28,-152.24 904.24,-138.24"/>
<polygon fill="#63b8ff" stroke="#63b8ff" points="905.18,-141.63 913.22,-134.72 902.63,-135.11 905.18,-141.63"/>
</a>
</g>
</g>
<!-- Node11&#45;&gt;Node3 -->
<g id="edge19_Node000011_Node000003" class="edge">
<title>Node11&#45;&gt;Node3</title>
<g id="a_edge19_Node000011_Node000003"><a xlink:title=" ">
<path fill="none" stroke="#63b8ff" d="M421.35,-293.39C609.22,-294.38 1504,-293.26 1504,-181.62 1504,-181.62 1504,-181.62 1504,-122.88 1504,-88.3 1491.81,-75.87 1463,-56.75 1422.54,-29.89 1280.91,-17.8 1212.52,-13.43"/>
<polygon fill="#63b8ff" stroke="#63b8ff" points="1213.12,-9.96 1202.93,-12.84 1212.69,-16.95 1213.12,-9.96"/>
</a>
</g>
</g>
<!-- Node11&#45;&gt;Node5 -->
<g id="edge40_Node000011_Node000005" class="edge">
<title>Node11&#45;&gt;Node5</title>
<g id="a_edge40_Node000011_Node000005"><a xlink:title=" ">
<path fill="none" stroke="#63b8ff" d="M352.7,-292.78C312.18,-290.73 244.52,-281.91 199,-247.75 127.94,-194.42 77.44,-119.84 140,-56.75 163.51,-33.04 376.21,-19.33 480.23,-13.99"/>
<polygon fill="#63b8ff" stroke="#63b8ff" points="480.13,-17.5 489.94,-13.5 479.78,-10.51 480.13,-17.5"/>
</a>
</g>
</g>
<!-- Node11&#45;&gt;Node8 -->
<g id="edge22_Node000011_Node000008" class="edge">
<title>Node11&#45;&gt;Node8</title>
<g id="a_edge22_Node000011_Node000008"><a xlink:title=" ">
<path fill="none" stroke="#63b8ff" d="M352.66,-289.99C318.22,-285.41 264.96,-274.33 227,-247.75 201.51,-229.91 195.58,-220.61 186,-191 168.6,-137.22 239.58,-100.24 288.04,-81.76"/>
<polygon fill="#63b8ff" stroke="#63b8ff" points="288.99,-85.14 297.18,-78.41 286.58,-78.57 288.99,-85.14"/>
</a>
</g>
</g>
<!-- Node12 -->
<g id="Node000012" class="node">
<title>Node12</title>
<g id="a_Node000012"><a xlink:title=" ">
<polygon fill="#e0e0e0" stroke="#999999" points="411.38,-134.25 358.62,-134.25 358.62,-113.5 411.38,-113.5 411.38,-134.25"/>
<text text-anchor="middle" x="385" y="-120.75" font-family="Helvetica,sans-Serif" font-size="10.00">string.h</text>
</a>
</g>
</g>
<!-- Node11&#45;&gt;Node12 -->
<g id="edge20_Node000011_Node000012" class="edge">
<title>Node11&#45;&gt;Node12</title>
<g id="a_edge20_Node000011_Node000012"><a xlink:title=" ">
<path fill="none" stroke="#63b8ff" d="M386.89,-283.6C386.57,-257.23 385.69,-182.83 385.25,-146.03"/>
<polygon fill="#63b8ff" stroke="#63b8ff" points="388.75,-146.19 385.14,-136.23 381.75,-146.27 388.75,-146.19"/>
</a>
</g>
</g>
<!-- Node13 -->
<g id="Node000013" class="node">
<title>Node13</title>
<g id="a_Node000013"><a xlink:href="../../d3/db6/fl_2lut_8h.html" target="_top" xlink:title=" ">
<polygon fill="#fff0f0" stroke="red" points="241.38,-191 194.62,-191 194.62,-170.25 241.38,-170.25 241.38,-191"/>
<text text-anchor="middle" x="218" y="-177.5" font-family="Helvetica,sans-Serif" font-size="10.00">fl/lut.h</text>
</a>
</g>
</g>
<!-- Node11&#45;&gt;Node13 -->
<g id="edge23_Node000011_Node000013" class="edge">
<title>Node11&#45;&gt;Node13</title>
<g id="a_edge23_Node000011_Node000013"><a xlink:title=" ">
<path fill="none" stroke="#63b8ff" d="M352.82,-290.16C321.49,-285.75 275.6,-274.82 246,-247.75 232.92,-235.79 225.73,-216.71 221.93,-202.12"/>
<polygon fill="#63b8ff" stroke="#63b8ff" points="225.4,-201.64 219.8,-192.64 218.57,-203.17 225.4,-201.64"/>
</a>
</g>
</g>
<!-- Node11&#45;&gt;Node14 -->
<g id="edge32_Node000011_Node000014" class="edge">
<title>Node11&#45;&gt;Node14</title>
<g id="a_edge32_Node000011_Node000014"><a xlink:title=" ">
<path fill="none" stroke="#63b8ff" d="M383.04,-283.6C371.97,-257 340.57,-181.52 325.4,-145.07"/>
<polygon fill="#63b8ff" stroke="#63b8ff" points="328.75,-144 321.68,-136.11 322.29,-146.69 328.75,-144"/>
</a>
</g>
</g>
<!-- Node18 -->
<g id="Node000018" class="node">
<title>Node18</title>
<g id="a_Node000018"><a xlink:href="../../d5/d22/fl_2xmap_8h.html" target="_top" xlink:title=" ">
<polygon fill="white" stroke="#666666" points="316.88,-247.75 255.12,-247.75 255.12,-227 316.88,-227 316.88,-247.75"/>
<text text-anchor="middle" x="286" y="-234.25" font-family="Helvetica,sans-Serif" font-size="10.00">fl/xmap.h</text>
</a>
</g>
</g>
<!-- Node11&#45;&gt;Node18 -->
<g id="edge33_Node000011_Node000018" class="edge">
<title>Node11&#45;&gt;Node18</title>
<g id="a_edge33_Node000011_Node000018"><a xlink:title=" ">
<path fill="none" stroke="#63b8ff" d="M368.94,-283.34C353.58,-275.01 331.26,-262.91 313.64,-253.36"/>
<polygon fill="#63b8ff" stroke="#63b8ff" points="315.69,-250.49 305.23,-248.8 312.35,-256.64 315.69,-250.49"/>
</a>
</g>
</g>
<!-- Node13&#45;&gt;Node3 -->
<g id="edge24_Node000013_Node000003" class="edge">
<title>Node13&#45;&gt;Node3</title>
<g id="a_edge24_Node000013_Node000003"><a xlink:title=" ">
<path fill="none" stroke="#63b8ff" d="M241.78,-174.64C294.43,-163.6 424.81,-136.28 534,-113.5 610.88,-97.46 634.16,-106.87 707,-77.5 723.07,-71.02 723.62,-62.41 740,-56.75 813.05,-31.51 1045,-17.72 1136.94,-13.13"/>
<polygon fill="#63b8ff" stroke="#63b8ff" points="1136.87,-16.64 1146.68,-12.65 1136.52,-9.65 1136.87,-16.64"/>
</a>
</g>
</g>
<!-- Node13&#45;&gt;Node5 -->
<g id="edge31_Node000013_Node000005" class="edge">
<title>Node13&#45;&gt;Node5</title>
<g id="a_edge31_Node000013_Node000005"><a xlink:title=" ">
<path fill="none" stroke="#63b8ff" d="M208.21,-169.81C186.91,-147.28 140.6,-91.15 171,-56.75 191.12,-33.99 382.56,-20.04 480.25,-14.34"/>
<polygon fill="#63b8ff" stroke="#63b8ff" points="480.38,-17.84 490.17,-13.78 479.98,-10.85 480.38,-17.84"/>
</a>
</g>
</g>
<!-- Node13&#45;&gt;Node8 -->
<g id="edge30_Node000013_Node000008" class="edge">
<title>Node13&#45;&gt;Node8</title>
<g id="a_edge30_Node000013_Node000008"><a xlink:title=" ">
<path fill="none" stroke="#63b8ff" d="M220.98,-170.06C225.69,-156.2 236,-130.35 252,-113.5 264.06,-100.79 280.48,-90.53 295.13,-83"/>
<polygon fill="#63b8ff" stroke="#63b8ff" points="296.59,-86.18 304.05,-78.66 293.53,-79.89 296.59,-86.18"/>
</a>
</g>
</g>
<!-- Node13&#45;&gt;Node14 -->
<g id="edge25_Node000013_Node000014" class="edge">
<title>Node13&#45;&gt;Node14</title>
<g id="a_edge25_Node000013_Node000014"><a xlink:title=" ">
<path fill="none" stroke="#63b8ff" d="M235.7,-169.84C250.62,-161.58 272.23,-149.63 289.42,-140.13"/>
<polygon fill="#63b8ff" stroke="#63b8ff" points="291.07,-143.21 298.13,-135.31 287.68,-137.09 291.07,-143.21"/>
</a>
</g>
</g>
<!-- Node14&#45;&gt;Node5 -->
<g id="edge26_Node000014_Node000005" class="edge">
<title>Node14&#45;&gt;Node5</title>
<g id="a_edge26_Node000014_Node000005"><a xlink:title=" ">
<path fill="none" stroke="#63b8ff" d="M331.7,-113.19C352.6,-99.65 392.33,-74.69 428,-56.75 451.39,-44.99 478.58,-33.67 499.95,-25.28"/>
<polygon fill="#63b8ff" stroke="#63b8ff" points="501.07,-28.59 509.13,-21.71 498.54,-22.07 501.07,-28.59"/>
</a>
</g>
</g>
<!-- Node14&#45;&gt;Node9 -->
<g id="edge29_Node000014_Node000009" class="edge">
<title>Node14&#45;&gt;Node9</title>
<g id="a_edge29_Node000014_Node000009"><a xlink:title=" ">
<path fill="none" stroke="#63b8ff" d="M340.71,-115.77C343.82,-114.94 346.97,-114.16 350,-113.5 425.66,-96.92 513.68,-84.07 572.93,-76.35"/>
<polygon fill="#63b8ff" stroke="#63b8ff" points="573.05,-79.86 582.52,-75.11 572.15,-72.92 573.05,-79.86"/>
</a>
</g>
</g>
<!-- Node14&#45;&gt;Node16 -->
<g id="edge27_Node000014_Node000016" class="edge">
<title>Node14&#45;&gt;Node16</title>
<g id="a_edge27_Node000014_Node000016"><a xlink:title=" ">
<path fill="none" stroke="#63b8ff" d="M300.19,-113.09C286.03,-104.83 265.51,-92.88 249.19,-83.38"/>
<polygon fill="#63b8ff" stroke="#63b8ff" points="251.37,-80.6 240.97,-78.59 247.85,-86.65 251.37,-80.6"/>
</a>
</g>
</g>
<!-- Node16&#45;&gt;Node5 -->
<g id="edge28_Node000016_Node000005" class="edge">
<title>Node16&#45;&gt;Node5</title>
<g id="a_edge28_Node000016_Node000005"><a xlink:title=" ">
<path fill="none" stroke="#63b8ff" d="M266.69,-58.23C269.5,-57.72 272.29,-57.23 275,-56.75 345.73,-44.25 427.26,-30.18 480.34,-21.07"/>
<polygon fill="#63b8ff" stroke="#63b8ff" points="480.79,-24.55 490.05,-19.41 479.61,-17.65 480.79,-24.55"/>
</a>
</g>
</g>
<!-- Node18&#45;&gt;Node3 -->
<g id="edge34_Node000018_Node000003" class="edge">
<title>Node18&#45;&gt;Node3</title>
<g id="a_edge34_Node000018_Node000003"><a xlink:title=" ">
<path fill="none" stroke="#63b8ff" d="M317.24,-236.13C456.08,-234.82 1017.99,-227.33 1190,-191 1258.93,-176.44 1280.15,-174.45 1338,-134.25 1371.66,-110.86 1413.79,-88.61 1388,-56.75 1366.39,-30.06 1268.19,-18.4 1212.98,-13.88"/>
<polygon fill="#63b8ff" stroke="#63b8ff" points="1213.32,-10.39 1203.08,-13.11 1212.78,-17.37 1213.32,-10.39"/>
</a>
</g>
</g>
<!-- Node18&#45;&gt;Node5 -->
<g id="edge39_Node000018_Node000005" class="edge">
<title>Node18&#45;&gt;Node5</title>
<g id="a_edge39_Node000018_Node000005"><a xlink:title=" ">
<path fill="none" stroke="#63b8ff" d="M254.68,-229.04C232.79,-222.44 204.32,-210.68 186,-191 144.41,-146.32 116.48,-102.4 157,-56.75 178.05,-33.03 379.1,-19.45 479.92,-14.08"/>
<polygon fill="#63b8ff" stroke="#63b8ff" points="480.1,-17.58 489.9,-13.56 479.73,-10.59 480.1,-17.58"/>
</a>
</g>
</g>
<!-- Node18&#45;&gt;Node8 -->
<g id="edge36_Node000018_Node000008" class="edge">
<title>Node18&#45;&gt;Node8</title>
<g id="a_edge36_Node000018_Node000008"><a xlink:title=" ">
<path fill="none" stroke="#63b8ff" d="M283.47,-226.65C278.41,-205.23 268.84,-152.76 285,-113.5 289.58,-102.38 298.34,-92.55 306.93,-84.9"/>
<polygon fill="#63b8ff" stroke="#63b8ff" points="308.95,-87.77 314.46,-78.72 304.51,-82.36 308.95,-87.77"/>
</a>
</g>
</g>
<!-- Node18&#45;&gt;Node12 -->
<g id="edge35_Node000018_Node000012" class="edge">
<title>Node18&#45;&gt;Node12</title>
<g id="a_edge35_Node000018_Node000012"><a xlink:title=" ">
<path fill="none" stroke="#63b8ff" d="M294.44,-226.87C310.87,-208.36 347.4,-167.22 368.7,-143.23"/>
<polygon fill="#63b8ff" stroke="#63b8ff" points="371.27,-145.61 375.29,-135.81 366.04,-140.96 371.27,-145.61"/>
</a>
</g>
</g>
<!-- Node18&#45;&gt;Node13 -->
<g id="edge37_Node000018_Node000013" class="edge">
<title>Node18&#45;&gt;Node13</title>
<g id="a_edge37_Node000018_Node000013"><a xlink:title=" ">
<path fill="none" stroke="#63b8ff" d="M273.84,-226.59C264.17,-218.8 250.42,-207.72 238.98,-198.51"/>
<polygon fill="#63b8ff" stroke="#63b8ff" points="241.21,-195.82 231.23,-192.28 236.82,-201.28 241.21,-195.82"/>
</a>
</g>
</g>
<!-- Node18&#45;&gt;Node14 -->
<g id="edge38_Node000018_Node000014" class="edge">
<title>Node18&#45;&gt;Node14</title>
<g id="a_edge38_Node000018_Node000014"><a xlink:title=" ">
<path fill="none" stroke="#63b8ff" d="M288.64,-226.87C293.63,-208.94 304.52,-169.75 311.26,-145.51"/>
<polygon fill="#63b8ff" stroke="#63b8ff" points="314.56,-146.71 313.87,-136.13 307.82,-144.83 314.56,-146.71"/>
</a>
</g>
</g>
<!-- Node19&#45;&gt;Node2 -->
<g id="edge44_Node000019_Node000002" class="edge">
<title>Node19&#45;&gt;Node2</title>
<g id="a_edge44_Node000019_Node000002"><a xlink:title=" ">
<path fill="none" stroke="#63b8ff" d="M938,-226.87C938,-209.1 938,-170.47 938,-146.18"/>
<polygon fill="#63b8ff" stroke="#63b8ff" points="941.5,-146.19 938,-136.19 934.5,-146.19 941.5,-146.19"/>
</a>
</g>
</g>
<!-- Node19&#45;&gt;Node3 -->
<g id="edge43_Node000019_Node000003" class="edge">
<title>Node19&#45;&gt;Node3</title>
<g id="a_edge43_Node000019_Node000003"><a xlink:title=" ">
<path fill="none" stroke="#63b8ff" d="M962.09,-236.09C1058.62,-234.71 1413.91,-227.17 1447,-191 1458.3,-178.65 1500.33,-122.82 1442,-56.75 1412.35,-23.17 1278.9,-14.44 1212.61,-12.17"/>
<polygon fill="#63b8ff" stroke="#63b8ff" points="1213.05,-8.68 1202.95,-11.87 1212.83,-15.68 1213.05,-8.68"/>
</a>
</g>
</g>
<!-- Node19&#45;&gt;Node5 -->
<g id="edge45_Node000019_Node000005" class="edge">
<title>Node19&#45;&gt;Node5</title>
<g id="a_edge45_Node000019_Node000005"><a xlink:title=" ">
<path fill="none" stroke="#63b8ff" d="M928.99,-226.63C900.08,-195.99 805.71,-101.08 707,-56.75 670.7,-40.45 627.32,-28.99 593.47,-21.66"/>
<polygon fill="#63b8ff" stroke="#63b8ff" points="594.36,-18.27 583.86,-19.65 592.93,-25.13 594.36,-18.27"/>
</a>
</g>
</g>
<!-- Node19&#45;&gt;Node14 -->
<g id="edge46_Node000019_Node000014" class="edge">
<title>Node19&#45;&gt;Node14</title>
<g id="a_edge46_Node000019_Node000014"><a xlink:title=" ">
<path fill="none" stroke="#63b8ff" d="M914.01,-229.41C910.35,-228.5 906.59,-227.66 903,-227 749.65,-198.74 707.21,-220 554,-191 480.68,-177.12 397.06,-151.39 351.34,-136.45"/>
<polygon fill="#63b8ff" stroke="#63b8ff" points="352.6,-133.18 342,-133.37 350.41,-139.82 352.6,-133.18"/>
</a>
</g>
</g>
<!-- Node20 -->
<g id="Node000020" class="node">
<title>Node20</title>
<g id="a_Node000020"><a xlink:href="../../db/ded/draw__context_8h.html" target="_top" xlink:title=" ">
<polygon fill="white" stroke="#666666" points="1180.88,-191 1059.12,-191 1059.12,-170.25 1180.88,-170.25 1180.88,-191"/>
<text text-anchor="middle" x="1120" y="-177.5" font-family="Helvetica,sans-Serif" font-size="10.00">detail/draw_context.h</text>
</a>
</g>
</g>
<!-- Node19&#45;&gt;Node20 -->
<g id="edge47_Node000019_Node000020" class="edge">
<title>Node19&#45;&gt;Node20</title>
<g id="a_edge47_Node000019_Node000020"><a xlink:title=" ">
<path fill="none" stroke="#63b8ff" d="M962.17,-229.1C991.35,-220.33 1040.96,-205.4 1076.79,-194.63"/>
<polygon fill="#63b8ff" stroke="#63b8ff" points="1077.4,-198.09 1085.97,-191.86 1075.39,-191.39 1077.4,-198.09"/>
</a>
</g>
</g>
<!-- Node21 -->
<g id="Node000021" class="node">
<title>Node21</title>
<g id="a_Node000021"><a xlink:href="../../d7/df7/transition_8h.html" target="_top" xlink:title=" ">
<polygon fill="white" stroke="#666666" points="1362.12,-77.5 1259.88,-77.5 1259.88,-56.75 1362.12,-56.75 1362.12,-77.5"/>
<text text-anchor="middle" x="1311" y="-64" font-family="Helvetica,sans-Serif" font-size="10.00">detail/transition.h</text>
</a>
</g>
</g>
<!-- Node19&#45;&gt;Node21 -->
<g id="edge51_Node000019_Node000021" class="edge">
<title>Node19&#45;&gt;Node21</title>
<g id="a_edge51_Node000019_Node000021"><a xlink:title=" ">
<path fill="none" stroke="#63b8ff" d="M962.12,-236.75C1008.87,-236.51 1113.91,-231.11 1190,-191 1237.91,-165.75 1278.53,-114.83 1298.24,-87.13"/>
<polygon fill="#63b8ff" stroke="#63b8ff" points="1301.06,-89.21 1303.88,-78.99 1295.3,-85.22 1301.06,-89.21"/>
</a>
</g>
</g>
<!-- Node22 -->
<g id="Node000022" class="node">
<title>Node22</title>
<g id="a_Node000022"><a xlink:href="../../dc/d0e/fl_2str_8h.html" target="_top" xlink:title=" ">
<polygon fill="#fff0f0" stroke="red" points="609,-191 563,-191 563,-170.25 609,-170.25 609,-191"/>
<text text-anchor="middle" x="586" y="-177.5" font-family="Helvetica,sans-Serif" font-size="10.00">fl/str.h</text>
</a>
</g>
</g>
<!-- Node19&#45;&gt;Node22 -->
<g id="edge54_Node000019_Node000022" class="edge">
<title>Node19&#45;&gt;Node22</title>
<g id="a_edge54_Node000019_Node000022"><a xlink:title=" ">
<path fill="none" stroke="#63b8ff" d="M914,-229.49C910.33,-228.57 906.58,-227.7 903,-227 781.69,-203.18 745.69,-215.7 620.51,-190.98"/>
<polygon fill="#63b8ff" stroke="#63b8ff" points="621.31,-187.57 610.81,-189.02 619.92,-194.43 621.31,-187.57"/>
</a>
</g>
</g>
<!-- Node27 -->
<g id="Node000027" class="node">
<title>Node27</title>
<g id="a_Node000027"><a xlink:href="../../d8/d4b/unused_8h.html" target="_top" xlink:title=" ">
<polygon fill="white" stroke="#666666" points="1437.62,-191 1368.38,-191 1368.38,-170.25 1437.62,-170.25 1437.62,-191"/>
<text text-anchor="middle" x="1403" y="-177.5" font-family="Helvetica,sans-Serif" font-size="10.00">fl/unused.h</text>
</a>
</g>
</g>
<!-- Node19&#45;&gt;Node27 -->
<g id="edge64_Node000019_Node000027" class="edge">
<title>Node19&#45;&gt;Node27</title>
<g id="a_edge64_Node000019_Node000027"><a xlink:title=" ">
<path fill="none" stroke="#63b8ff" d="M962,-234.44C1025.95,-229.13 1205.64,-213.25 1354,-191 1354.99,-190.85 1356,-190.7 1357.01,-190.54"/>
<polygon fill="#63b8ff" stroke="#63b8ff" points="1357.23,-194.05 1366.5,-188.93 1356.06,-187.15 1357.23,-194.05"/>
</a>
</g>
</g>
<!-- Node20&#45;&gt;Node2 -->
<g id="edge50_Node000020_Node000002" class="edge">
<title>Node20&#45;&gt;Node2</title>
<g id="a_edge50_Node000020_Node000002"><a xlink:title=" ">
<path fill="none" stroke="#63b8ff" d="M1087.46,-169.84C1054.99,-160.07 1005.3,-145.12 972.25,-135.18"/>
<polygon fill="#63b8ff" stroke="#63b8ff" points="973.34,-131.85 962.75,-132.32 971.32,-138.55 973.34,-131.85"/>
</a>
</g>
</g>
<!-- Node20&#45;&gt;Node3 -->
<g id="edge48_Node000020_Node000003" class="edge">
<title>Node20&#45;&gt;Node3</title>
<g id="a_edge48_Node000020_Node000003"><a xlink:title=" ">
<path fill="none" stroke="#63b8ff" d="M1181.1,-174.18C1241.28,-165.15 1329.98,-141.17 1371,-77.5 1408.25,-19.69 1280.09,-11.37 1213.15,-10.84"/>
<polygon fill="#63b8ff" stroke="#63b8ff" points="1213.32,-7.34 1203.31,-10.83 1213.31,-14.34 1213.32,-7.34"/>
</a>
</g>
</g>
<!-- Node20&#45;&gt;Node5 -->
<g id="edge49_Node000020_Node000005" class="edge">
<title>Node20&#45;&gt;Node5</title>
<g id="a_edge49_Node000020_Node000005"><a xlink:title=" ">
<path fill="none" stroke="#63b8ff" d="M1125.9,-169.79C1138.89,-146.71 1166.58,-88.65 1137,-56.75 1100.51,-17.4 736.07,-11.99 593.63,-11.38"/>
<polygon fill="#63b8ff" stroke="#63b8ff" points="593.68,-7.88 583.67,-11.35 593.65,-14.88 593.68,-7.88"/>
</a>
</g>
</g>
<!-- Node21&#45;&gt;Node3 -->
<g id="edge52_Node000021_Node000003" class="edge">
<title>Node21&#45;&gt;Node3</title>
<g id="a_edge52_Node000021_Node000003"><a xlink:title=" ">
<path fill="none" stroke="#63b8ff" d="M1286.69,-56.34C1265.22,-47.69 1233.68,-35 1209.59,-25.3"/>
<polygon fill="#63b8ff" stroke="#63b8ff" points="1211.09,-22.13 1200.51,-21.64 1208.48,-28.63 1211.09,-22.13"/>
</a>
</g>
</g>
<!-- Node21&#45;&gt;Node5 -->
<g id="edge53_Node000021_Node000005" class="edge">
<title>Node21&#45;&gt;Node5</title>
<g id="a_edge53_Node000021_Node000005"><a xlink:title=" ">
<path fill="none" stroke="#63b8ff" d="M1259.6,-58.33C1255.01,-57.75 1250.42,-57.21 1246,-56.75 1004.09,-31.6 714.2,-18.28 593.77,-13.48"/>
<polygon fill="#63b8ff" stroke="#63b8ff" points="593.95,-9.98 583.82,-13.09 593.68,-16.98 593.95,-9.98"/>
</a>
</g>
</g>
<!-- Node22&#45;&gt;Node3 -->
<g id="edge56_Node000022_Node000003" class="edge">
<title>Node22&#45;&gt;Node3</title>
<g id="a_edge56_Node000022_Node000003"><a xlink:title=" ">
<path fill="none" stroke="#63b8ff" d="M609.31,-172.46C612.55,-171.62 615.84,-170.86 619,-170.25 773.01,-140.71 816.19,-164.83 970,-134.25 1056.44,-117.07 1099.81,-141.88 1160,-77.5 1171.32,-65.4 1174.72,-46.61 1175.5,-32.15"/>
<polygon fill="#63b8ff" stroke="#63b8ff" points="1178.99,-32.39 1175.61,-22.35 1172,-32.3 1178.99,-32.39"/>
</a>
</g>
</g>
<!-- Node22&#45;&gt;Node5 -->
<g id="edge63_Node000022_Node000005" class="edge">
<title>Node22&#45;&gt;Node5</title>
<g id="a_edge63_Node000022_Node000005"><a xlink:title=" ">
<path fill="none" stroke="#63b8ff" d="M571.77,-169.78C549.91,-153.59 509.33,-118.98 497,-77.5 494.37,-68.66 493.74,-65.38 497,-56.75 501.03,-46.07 508.85,-36.28 516.52,-28.55"/>
<polygon fill="#63b8ff" stroke="#63b8ff" points="518.55,-31.44 523.48,-22.06 513.78,-26.32 518.55,-31.44"/>
</a>
</g>
</g>
<!-- Node22&#45;&gt;Node9 -->
<g id="edge58_Node000022_Node000009" class="edge">
<title>Node22&#45;&gt;Node9</title>
<g id="a_edge58_Node000022_Node000009"><a xlink:title=" ">
<path fill="none" stroke="#63b8ff" d="M593.34,-169.92C599.87,-160.99 609.38,-147.2 616,-134.25 623.53,-119.53 630.06,-101.98 634.56,-88.67"/>
<polygon fill="#63b8ff" stroke="#63b8ff" points="637.85,-89.86 637.62,-79.27 631.19,-87.69 637.85,-89.86"/>
</a>
</g>
</g>
<!-- Node22&#45;&gt;Node12 -->
<g id="edge55_Node000022_Node000012" class="edge">
<title>Node22&#45;&gt;Node12</title>
<g id="a_edge55_Node000022_Node000012"><a xlink:title=" ">
<path fill="none" stroke="#63b8ff" d="M562.55,-173.24C528.19,-163.88 463.8,-146.34 422.73,-135.15"/>
<polygon fill="#63b8ff" stroke="#63b8ff" points="423.84,-131.83 413.27,-132.57 422,-138.58 423.84,-131.83"/>
</a>
</g>
</g>
<!-- Node22&#45;&gt;Node14 -->
<g id="edge57_Node000022_Node000014" class="edge">
<title>Node22&#45;&gt;Node14</title>
<g id="a_edge57_Node000022_Node000014"><a xlink:title=" ">
<path fill="none" stroke="#63b8ff" d="M562.74,-175.84C522.08,-169.09 435.22,-154 351.92,-134.53"/>
<polygon fill="#63b8ff" stroke="#63b8ff" points="352.74,-131.13 342.2,-132.23 351.13,-137.94 352.74,-131.13"/>
</a>
</g>
</g>
<!-- Node23 -->
<g id="Node000023" class="node">
<title>Node23</title>
<g id="a_Node000023"><a xlink:href="../../d6/d68/vector_8h.html" target="_top" xlink:title=" ">
<polygon fill="#fff0f0" stroke="red" points="607,-134.25 543,-134.25 543,-113.5 607,-113.5 607,-134.25"/>
<text text-anchor="middle" x="575" y="-120.75" font-family="Helvetica,sans-Serif" font-size="10.00">fl/vector.h</text>
</a>
</g>
</g>
<!-- Node22&#45;&gt;Node23 -->
<g id="edge59_Node000022_Node000023" class="edge">
<title>Node22&#45;&gt;Node23</title>
<g id="a_edge59_Node000022_Node000023"><a xlink:title=" ">
<path fill="none" stroke="#63b8ff" d="M584.03,-169.84C582.69,-163.14 580.85,-154.01 579.19,-145.73"/>
<polygon fill="#63b8ff" stroke="#63b8ff" points="582.65,-145.18 577.25,-136.06 575.79,-146.56 582.65,-145.18"/>
</a>
</g>
</g>
<!-- Node23&#45;&gt;Node3 -->
<g id="edge60_Node000023_Node000003" class="edge">
<title>Node23&#45;&gt;Node3</title>
<g id="a_edge60_Node000023_Node000003"><a xlink:title=" ">
<path fill="none" stroke="#63b8ff" d="M607.35,-115.4C640.92,-107.31 694.74,-93.42 740,-77.5 761.92,-69.79 765.55,-62.78 788,-56.75 912.75,-23.25 1066.72,-14.48 1136.9,-12.19"/>
<polygon fill="#63b8ff" stroke="#63b8ff" points="1136.82,-15.69 1146.71,-11.89 1136.61,-8.69 1136.82,-15.69"/>
</a>
</g>
</g>
<!-- Node23&#45;&gt;Node5 -->
<g id="edge61_Node000023_Node000005" class="edge">
<title>Node23&#45;&gt;Node5</title>
<g id="a_edge61_Node000023_Node000005"><a xlink:title=" ">
<path fill="none" stroke="#63b8ff" d="M547.33,-113.01C531.58,-105.8 513.21,-94.31 504,-77.5 495.19,-61.41 506.52,-42.66 518.24,-29.25"/>
<polygon fill="#63b8ff" stroke="#63b8ff" points="520.77,-31.66 525.13,-22.01 515.7,-26.84 520.77,-31.66"/>
</a>
</g>
</g>
<!-- Node23&#45;&gt;Node16 -->
<g id="edge62_Node000023_Node000016" class="edge">
<title>Node23&#45;&gt;Node16</title>
<g id="a_edge62_Node000023_Node000016"><a xlink:title=" ">
<path fill="none" stroke="#63b8ff" d="M542.55,-118.27C489.4,-110.67 380.21,-94.78 277.84,-77.94"/>
<polygon fill="#63b8ff" stroke="#63b8ff" points="278.61,-74.52 268.17,-76.34 277.47,-81.42 278.61,-74.52"/>
</a>
</g>
</g>
<!-- Node29 -->
<g id="Node000029" class="node">
<title>Node29</title>
<g id="a_Node000029"><a xlink:href="../../d8/d00/strstream_8h.html" target="_top" xlink:title=" ">
<polygon fill="white" stroke="#666666" points="893.62,-247.75 812.38,-247.75 812.38,-227 893.62,-227 893.62,-247.75"/>
<text text-anchor="middle" x="853" y="-234.25" font-family="Helvetica,sans-Serif" font-size="10.00">fl/strstream.h</text>
</a>
</g>
</g>
<!-- Node28&#45;&gt;Node29 -->
<g id="edge70_Node000028_Node000029" class="edge">
<title>Node28&#45;&gt;Node29</title>
<g id="a_edge70_Node000028_Node000029"><a xlink:title=" ">
<path fill="none" stroke="#63b8ff" d="M810.01,-340.37C817.6,-322.36 834.23,-282.89 844.44,-258.68"/>
<polygon fill="#63b8ff" stroke="#63b8ff" points="847.62,-260.14 848.28,-249.57 841.17,-257.43 847.62,-260.14"/>
</a>
</g>
</g>
<!-- Node29&#45;&gt;Node2 -->
<g id="edge71_Node000029_Node000002" class="edge">
<title>Node29&#45;&gt;Node2</title>
<g id="a_edge71_Node000029_Node000002"><a xlink:title=" ">
<path fill="none" stroke="#63b8ff" d="M860.25,-226.87C874.29,-208.45 905.44,-167.59 923.76,-143.55"/>
<polygon fill="#63b8ff" stroke="#63b8ff" points="926.33,-145.95 929.61,-135.88 920.77,-141.71 926.33,-145.95"/>
</a>
</g>
</g>
<!-- Node29&#45;&gt;Node22 -->
<g id="edge72_Node000029_Node000022" class="edge">
<title>Node29&#45;&gt;Node22</title>
<g id="a_edge72_Node000029_Node000022"><a xlink:title=" ">
<path fill="none" stroke="#63b8ff" d="M812.19,-229.55C767.52,-221.84 693.57,-208.37 620.19,-191.11"/>
<polygon fill="#63b8ff" stroke="#63b8ff" points="621.38,-187.79 610.84,-188.88 619.76,-194.6 621.38,-187.79"/>
</a>
</g>
</g>
<!-- Node30&#45;&gt;Node2 -->
<g id="edge79_Node000030_Node000002" class="edge">
<title>Node30&#45;&gt;Node2</title>
<g id="a_edge79_Node000030_Node000002"><a xlink:title=" ">
<path fill="none" stroke="#63b8ff" d="M732.98,-169.77C782.02,-159.03 859.4,-142.09 903.75,-132.38"/>
<polygon fill="#63b8ff" stroke="#63b8ff" points="904.3,-135.84 913.32,-130.28 902.8,-129 904.3,-135.84"/>
</a>
</g>
</g>
<!-- Node30&#45;&gt;Node3 -->
<g id="edge77_Node000030_Node000003" class="edge">
<title>Node30&#45;&gt;Node3</title>
<g id="a_edge77_Node000030_Node000003"><a xlink:title=" ">
<path fill="none" stroke="#63b8ff" d="M704.61,-169.82C719.41,-160.93 741.51,-147.26 760,-134.25 805.7,-102.09 807.61,-78.69 859,-56.75 953.14,-16.57 1075.92,-10.75 1137.01,-10.62"/>
<polygon fill="#63b8ff" stroke="#63b8ff" points="1136.86,-14.12 1146.87,-10.66 1136.88,-7.12 1136.86,-14.12"/>
</a>
</g>
</g>
<!-- Node30&#45;&gt;Node5 -->
<g id="edge80_Node000030_Node000005" class="edge">
<title>Node30&#45;&gt;Node5</title>
<g id="a_edge80_Node000030_Node000005"><a xlink:title=" ">
<path fill="none" stroke="#63b8ff" d="M679.41,-170.15C666.59,-156.4 641.25,-130.69 616,-113.5 585.77,-92.91 562.55,-107.75 542,-77.5 533.08,-64.38 532.32,-46.22 533.51,-32.25"/>
<polygon fill="#63b8ff" stroke="#63b8ff" points="536.98,-32.73 534.79,-22.37 530.04,-31.84 536.98,-32.73"/>
</a>
</g>
</g>
<!-- Node30&#45;&gt;Node8 -->
<g id="edge78_Node000030_Node000008" class="edge">
<title>Node30&#45;&gt;Node8</title>
<g id="a_edge78_Node000030_Node000008"><a xlink:title=" ">
<path fill="none" stroke="#63b8ff" d="M653.67,-169.8C622.41,-160.78 575.01,-146.93 534,-134.25 476.94,-116.6 411.29,-95.11 370.22,-81.51"/>
<polygon fill="#63b8ff" stroke="#63b8ff" points="371.34,-78.2 360.75,-78.38 369.14,-84.84 371.34,-78.2"/>
</a>
</g>
</g>
<!-- Node30&#45;&gt;Node23 -->
<g id="edge75_Node000030_Node000023" class="edge">
<title>Node30&#45;&gt;Node23</title>
<g id="a_edge75_Node000030_Node000023"><a xlink:title=" ">
<path fill="none" stroke="#63b8ff" d="M667.8,-169.84C650.44,-161.43 625.17,-149.18 605.37,-139.59"/>
<polygon fill="#63b8ff" stroke="#63b8ff" points="606.91,-136.45 596.39,-135.24 603.86,-142.75 606.91,-136.45"/>
</a>
</g>
</g>
<!-- Node31 -->
<g id="Node000031" class="node">
<title>Node31</title>
<g id="a_Node000031"><a xlink:title=" ">
<polygon fill="#e0e0e0" stroke="#999999" points="751.25,-134.25 700.75,-134.25 700.75,-113.5 751.25,-113.5 751.25,-134.25"/>
<text text-anchor="middle" x="726" y="-120.75" font-family="Helvetica,sans-Serif" font-size="10.00">math.h</text>
</a>
</g>
</g>
<!-- Node30&#45;&gt;Node31 -->
<g id="edge76_Node000030_Node000031" class="edge">
<title>Node30&#45;&gt;Node31</title>
<g id="a_edge76_Node000030_Node000031"><a xlink:title=" ">
<path fill="none" stroke="#63b8ff" d="M694.79,-169.84C699.77,-162.67 706.67,-152.73 712.72,-144.01"/>
<polygon fill="#63b8ff" stroke="#63b8ff" points="715.58,-146.03 718.4,-135.82 709.82,-142.04 715.58,-146.03"/>
</a>
</g>
</g>
</g>
</svg>
