<?xml version="1.0" encoding="UTF-8" standalone="no"?>
<!DOCTYPE svg PUBLIC "-//W3C//DTD SVG 1.1//EN"
 "http://www.w3.org/Graphics/SVG/1.1/DTD/svg11.dtd">
<!-- Generated by graphviz version 12.2.1 (20241206.2353)
 -->
<!-- Title: beatsin88 Pages: 1 -->
<svg width="162pt" height="68pt"
 viewBox="0.00 0.00 161.50 67.75" xmlns="http://www.w3.org/2000/svg" xmlns:xlink="http://www.w3.org/1999/xlink">
<g id="graph0" class="graph" transform="scale(1 1) rotate(0) translate(4 63.75)">
<title>beatsin88</title>
<!-- Node1 -->
<g id="Node000001" class="node">
<title>Node1</title>
<g id="a_Node000001"><a xlink:title="Generates a 16&#45;bit sine wave at a given BPM that oscillates within a given range.">
<polygon fill="#999999" stroke="#666666" points="64,-39.75 0,-39.75 0,-19 64,-19 64,-39.75"/>
<text text-anchor="middle" x="32" y="-26.25" font-family="Helvetica,sans-Serif" font-size="10.00">beatsin88</text>
</a>
</g>
</g>
<!-- Node2 -->
<g id="Node000002" class="node">
<title>Node2</title>
<g id="a_Node000002"><a xlink:href="../../d6/d6c/group___beat_generators.html#ga1b48fc520db5f40910caf79974992395" target="_top" xlink:title="Generates a 16&#45;bit &quot;sawtooth&quot; wave at a given BPM, with BPM specified in Q8.8 fixed&#45;point format.">
<polygon fill="white" stroke="#666666" points="151.62,-59.75 101.88,-59.75 101.88,-39 151.62,-39 151.62,-59.75"/>
<text text-anchor="middle" x="126.75" y="-46.25" font-family="Helvetica,sans-Serif" font-size="10.00">beat88</text>
</a>
</g>
</g>
<!-- Node1&#45;&gt;Node2 -->
<g id="edge1_Node000001_Node000002" class="edge">
<title>Node1&#45;&gt;Node2</title>
<g id="a_edge1_Node000001_Node000002"><a xlink:title=" ">
<path fill="none" stroke="#63b8ff" d="M64.4,-36.15C72.71,-37.94 81.74,-39.88 90.25,-41.72"/>
<polygon fill="#63b8ff" stroke="#63b8ff" points="89.43,-45.12 99.94,-43.81 90.9,-38.28 89.43,-45.12"/>
</a>
</g>
</g>
<!-- Node3 -->
<g id="Node000003" class="node">
<title>Node3</title>
<g id="a_Node000003"><a xlink:href="../../d0/da8/group___scaling.html#ga1ff8ac00ad78e22acc7bb7445bfdb145" target="_top" xlink:title="Scale a 16&#45;bit unsigned value by an 16&#45;bit value, which is treated as the numerator of a fraction who...">
<polygon fill="white" stroke="#666666" points="153.5,-20.75 100,-20.75 100,0 153.5,0 153.5,-20.75"/>
<text text-anchor="middle" x="126.75" y="-7.25" font-family="Helvetica,sans-Serif" font-size="10.00">scale16</text>
</a>
</g>
</g>
<!-- Node1&#45;&gt;Node3 -->
<g id="edge2_Node000001_Node000003" class="edge">
<title>Node1&#45;&gt;Node3</title>
<g id="a_edge2_Node000001_Node000003"><a xlink:title=" ">
<path fill="none" stroke="#63b8ff" d="M64.4,-22.94C72.1,-21.37 80.41,-19.66 88.36,-18.03"/>
<polygon fill="#63b8ff" stroke="#63b8ff" points="89.05,-21.47 98.15,-16.03 87.65,-14.61 89.05,-21.47"/>
</a>
</g>
</g>
</g>
</svg>
