<?xml version="1.0" encoding="UTF-8" standalone="no"?>
<!DOCTYPE svg PUBLIC "-//W3C//DTD SVG 1.1//EN"
 "http://www.w3.org/Graphics/SVG/1.1/DTD/svg11.dtd">
<!-- Generated by graphviz version 12.2.1 (20241206.2353)
 -->
<!-- Title: beatsin88 Pages: 1 -->
<svg width="288pt" height="146pt"
 viewBox="0.00 0.00 287.75 145.75" xmlns="http://www.w3.org/2000/svg" xmlns:xlink="http://www.w3.org/1999/xlink">
<g id="graph0" class="graph" transform="scale(1 1) rotate(0) translate(4 141.75)">
<title>beatsin88</title>
<!-- Node1 -->
<g id="Node000001" class="node">
<title>Node1</title>
<g id="a_Node000001"><a xlink:title="Generates a 16&#45;bit sine wave at a given BPM that oscillates within a given range.">
<polygon fill="#999999" stroke="#666666" points="279.75,-78.75 215.75,-78.75 215.75,-58 279.75,-58 279.75,-78.75"/>
<text text-anchor="middle" x="247.75" y="-65.25" font-family="Helvetica,sans-Serif" font-size="10.00">beatsin88</text>
</a>
</g>
</g>
<!-- Node2 -->
<g id="Node000002" class="node">
<title>Node2</title>
<g id="a_Node000002"><a xlink:href="../../d2/db2/classfl_1_1_pacifica.html#a264d0c1db5db60028b6fab87af13d700" target="_top" xlink:title=" ">
<polygon fill="white" stroke="#666666" points="173.75,-137.75 79,-137.75 79,-117 173.75,-117 173.75,-137.75"/>
<text text-anchor="middle" x="126.38" y="-124.25" font-family="Helvetica,sans-Serif" font-size="10.00">fl::Pacifica::draw</text>
</a>
</g>
</g>
<!-- Node1&#45;&gt;Node2 -->
<g id="edge1_Node000001_Node000002" class="edge">
<title>Node1&#45;&gt;Node2</title>
<g id="a_edge1_Node000001_Node000002"><a xlink:title=" ">
<path fill="none" stroke="#63b8ff" d="M220.57,-84.94C208.41,-92.29 193.6,-100.75 179.75,-107.38 172.9,-110.65 165.36,-113.79 158.19,-116.56"/>
<polygon fill="#63b8ff" stroke="#63b8ff" points="222.11,-88.1 228.8,-79.89 218.45,-82.14 222.11,-88.1"/>
</a>
</g>
</g>
<!-- Node4 -->
<g id="Node000004" class="node">
<title>Node4</title>
<g id="a_Node000004"><a xlink:href="../../df/d11/classfl_1_1_pride2015.html#a331b131b082d622bbd9208bf05308d0d" target="_top" xlink:title=" ">
<polygon fill="white" stroke="#666666" points="179.75,-98.75 73,-98.75 73,-78 179.75,-78 179.75,-98.75"/>
<text text-anchor="middle" x="126.38" y="-85.25" font-family="Helvetica,sans-Serif" font-size="10.00">fl::Pride2015::draw</text>
</a>
</g>
</g>
<!-- Node1&#45;&gt;Node4 -->
<g id="edge3_Node000001_Node000004" class="edge">
<title>Node1&#45;&gt;Node4</title>
<g id="a_edge3_Node000001_Node000004"><a xlink:title=" ">
<path fill="none" stroke="#63b8ff" d="M204.06,-75.53C196.33,-76.82 188.2,-78.19 180.22,-79.52"/>
<polygon fill="#63b8ff" stroke="#63b8ff" points="204.61,-78.98 213.89,-73.88 203.45,-72.08 204.61,-78.98"/>
</a>
</g>
</g>
<!-- Node6 -->
<g id="Node000006" class="node">
<title>Node6</title>
<g id="a_Node000006"><a xlink:href="../../dc/d25/_pacifica_8ino.html#a158d427a947ef0a715c7ffd916346acc" target="_top" xlink:title=" ">
<polygon fill="white" stroke="#666666" points="166.25,-59.75 86.5,-59.75 86.5,-39 166.25,-39 166.25,-59.75"/>
<text text-anchor="middle" x="126.38" y="-46.25" font-family="Helvetica,sans-Serif" font-size="10.00">pacifica_loop</text>
</a>
</g>
</g>
<!-- Node1&#45;&gt;Node6 -->
<g id="edge5_Node000001_Node000006" class="edge">
<title>Node1&#45;&gt;Node6</title>
<g id="a_edge5_Node000001_Node000006"><a xlink:title=" ">
<path fill="none" stroke="#63b8ff" d="M204.08,-61.58C191.88,-59.64 178.64,-57.53 166.65,-55.63"/>
<polygon fill="#63b8ff" stroke="#63b8ff" points="203.47,-65.03 213.89,-63.15 204.57,-58.12 203.47,-65.03"/>
</a>
</g>
</g>
<!-- Node8 -->
<g id="Node000008" class="node">
<title>Node8</title>
<g id="a_Node000008"><a xlink:href="../../d0/dce/_pride2015_8ino.html#a6e24bc1de16730062b4d4be6ad4f8e3b" target="_top" xlink:title=" ">
<polygon fill="white" stroke="#666666" points="146.75,-20.75 106,-20.75 106,0 146.75,0 146.75,-20.75"/>
<text text-anchor="middle" x="126.38" y="-7.25" font-family="Helvetica,sans-Serif" font-size="10.00">pride</text>
</a>
</g>
</g>
<!-- Node1&#45;&gt;Node8 -->
<g id="edge7_Node000001_Node000008" class="edge">
<title>Node1&#45;&gt;Node8</title>
<g id="a_edge7_Node000001_Node000008"><a xlink:title=" ">
<path fill="none" stroke="#63b8ff" d="M219.66,-51.77C207.65,-44.74 193.22,-36.72 179.75,-30.38 169.18,-25.4 157.02,-20.69 147.07,-17.1"/>
<polygon fill="#63b8ff" stroke="#63b8ff" points="217.82,-54.75 228.2,-56.86 221.4,-48.73 217.82,-54.75"/>
</a>
</g>
</g>
<!-- Node3 -->
<g id="Node000003" class="node">
<title>Node3</title>
<g id="a_Node000003"><a xlink:href="../../dc/ded/_fx_pacifica_8ino.html#afe461d27b9c48d5921c00d521181f12f" target="_top" xlink:title=" ">
<polygon fill="white" stroke="#666666" points="37,-137.75 0,-137.75 0,-117 37,-117 37,-137.75"/>
<text text-anchor="middle" x="18.5" y="-124.25" font-family="Helvetica,sans-Serif" font-size="10.00">loop</text>
</a>
</g>
</g>
<!-- Node2&#45;&gt;Node3 -->
<g id="edge2_Node000002_Node000003" class="edge">
<title>Node2&#45;&gt;Node3</title>
<g id="a_edge2_Node000002_Node000003"><a xlink:title=" ">
<path fill="none" stroke="#63b8ff" d="M67.27,-127.38C56.39,-127.38 45.81,-127.38 37.39,-127.38"/>
<polygon fill="#63b8ff" stroke="#63b8ff" points="67.11,-130.88 77.11,-127.38 67.11,-123.88 67.11,-130.88"/>
</a>
</g>
</g>
<!-- Node5 -->
<g id="Node000005" class="node">
<title>Node5</title>
<g id="a_Node000005"><a xlink:href="../../d2/db0/_fx_pride2015_8ino.html#afe461d27b9c48d5921c00d521181f12f" target="_top" xlink:title=" ">
<polygon fill="white" stroke="#666666" points="37,-98.75 0,-98.75 0,-78 37,-78 37,-98.75"/>
<text text-anchor="middle" x="18.5" y="-85.25" font-family="Helvetica,sans-Serif" font-size="10.00">loop</text>
</a>
</g>
</g>
<!-- Node4&#45;&gt;Node5 -->
<g id="edge4_Node000004_Node000005" class="edge">
<title>Node4&#45;&gt;Node5</title>
<g id="a_edge4_Node000004_Node000005"><a xlink:title=" ">
<path fill="none" stroke="#63b8ff" d="M61.36,-88.38C52.49,-88.38 44.05,-88.38 37.11,-88.38"/>
<polygon fill="#63b8ff" stroke="#63b8ff" points="61.23,-91.88 71.23,-88.38 61.23,-84.88 61.23,-91.88"/>
</a>
</g>
</g>
<!-- Node7 -->
<g id="Node000007" class="node">
<title>Node7</title>
<g id="a_Node000007"><a xlink:href="../../dc/d25/_pacifica_8ino.html#afe461d27b9c48d5921c00d521181f12f" target="_top" xlink:title=" ">
<polygon fill="white" stroke="#666666" points="37,-59.75 0,-59.75 0,-39 37,-39 37,-59.75"/>
<text text-anchor="middle" x="18.5" y="-46.25" font-family="Helvetica,sans-Serif" font-size="10.00">loop</text>
</a>
</g>
</g>
<!-- Node6&#45;&gt;Node7 -->
<g id="edge6_Node000006_Node000007" class="edge">
<title>Node6&#45;&gt;Node7</title>
<g id="a_edge6_Node000006_Node000007"><a xlink:title=" ">
<path fill="none" stroke="#63b8ff" d="M75.07,-49.38C61.59,-49.38 47.9,-49.38 37.47,-49.38"/>
<polygon fill="#63b8ff" stroke="#63b8ff" points="74.74,-52.88 84.74,-49.38 74.74,-45.88 74.74,-52.88"/>
</a>
</g>
</g>
</g>
</svg>
