<?xml version="1.0" encoding="UTF-8" standalone="no"?>
<!DOCTYPE svg PUBLIC "-//W3C//DTD SVG 1.1//EN"
 "http://www.w3.org/Graphics/SVG/1.1/DTD/svg11.dtd">
<!-- Generated by graphviz version 12.2.1 (20241206.2353)
 -->
<!-- Title: beatsin8 Pages: 1 -->
<svg width="586pt" height="266pt"
 viewBox="0.00 0.00 585.75 266.31" xmlns="http://www.w3.org/2000/svg" xmlns:xlink="http://www.w3.org/1999/xlink">
<g id="graph0" class="graph" transform="scale(1 1) rotate(0) translate(4 262.31)">
<title>beatsin8</title>
<!-- Node1 -->
<g id="Node000001" class="node">
<title>Node1</title>
<g id="a_Node000001"><a xlink:title="Generates an 8&#45;bit sine wave at a given BPM that oscillates within a given range.">
<polygon fill="#999999" stroke="#666666" points="577.75,-143.31 519.75,-143.31 519.75,-122.56 577.75,-122.56 577.75,-143.31"/>
<text text-anchor="middle" x="548.75" y="-129.81" font-family="Helvetica,sans-Serif" font-size="10.00">beatsin8</text>
</a>
</g>
</g>
<!-- Node2 -->
<g id="Node000002" class="node">
<title>Node2</title>
<g id="a_Node000002"><a xlink:href="../../d5/d25/_demo_reel100_8ino.html#a4875f6d9a2b0f08d3cf221974234121b" target="_top" xlink:title=" ">
<polygon fill="white" stroke="#666666" points="436.88,-258.31 399.12,-258.31 399.12,-237.56 436.88,-237.56 436.88,-258.31"/>
<text text-anchor="middle" x="418" y="-244.81" font-family="Helvetica,sans-Serif" font-size="10.00">bpm</text>
</a>
</g>
</g>
<!-- Node1&#45;&gt;Node2 -->
<g id="edge1_Node000001_Node000002" class="edge">
<title>Node1&#45;&gt;Node2</title>
<g id="a_edge1_Node000001_Node000002"><a xlink:title=" ">
<path fill="none" stroke="#63b8ff" d="M538.8,-153.89C528.55,-175.48 509.73,-208.64 483.75,-227.94 470.05,-238.11 451.1,-243.17 437.24,-245.65"/>
<polygon fill="#63b8ff" stroke="#63b8ff" points="541.94,-155.45 542.87,-144.89 535.56,-152.56 541.94,-155.45"/>
</a>
</g>
</g>
<!-- Node5 -->
<g id="Node000005" class="node">
<title>Node5</title>
<g id="a_Node000005"><a xlink:href="../../d1/d60/classfl_1_1_demo_reel100.html#a72cc7eea48cf0be16b34fee7d4da64f4" target="_top" xlink:title=" ">
<polygon fill="white" stroke="#666666" points="480.38,-219.31 355.62,-219.31 355.62,-198.56 480.38,-198.56 480.38,-219.31"/>
<text text-anchor="middle" x="418" y="-205.81" font-family="Helvetica,sans-Serif" font-size="10.00">fl::DemoReel100::bpm</text>
</a>
</g>
</g>
<!-- Node1&#45;&gt;Node5 -->
<g id="edge4_Node000001_Node000005" class="edge">
<title>Node1&#45;&gt;Node5</title>
<g id="a_edge4_Node000001_Node000005"><a xlink:title=" ">
<path fill="none" stroke="#63b8ff" d="M528.44,-151.45C516.34,-162.31 500,-175.66 483.75,-184.94 474.69,-190.11 464.31,-194.54 454.55,-198.13"/>
<polygon fill="#63b8ff" stroke="#63b8ff" points="530.7,-154.13 535.68,-144.77 525.96,-148.98 530.7,-154.13"/>
</a>
</g>
</g>
<!-- Node6 -->
<g id="Node000006" class="node">
<title>Node6</title>
<g id="a_Node000006"><a xlink:href="../../d2/db2/classfl_1_1_pacifica.html#a264d0c1db5db60028b6fab87af13d700" target="_top" xlink:title=" ">
<polygon fill="white" stroke="#666666" points="287,-127.31 192.25,-127.31 192.25,-106.56 287,-106.56 287,-127.31"/>
<text text-anchor="middle" x="239.62" y="-113.81" font-family="Helvetica,sans-Serif" font-size="10.00">fl::Pacifica::draw</text>
</a>
</g>
</g>
<!-- Node1&#45;&gt;Node6 -->
<g id="edge5_Node000001_Node000006" class="edge">
<title>Node1&#45;&gt;Node6</title>
<g id="a_edge5_Node000001_Node000006"><a xlink:title=" ">
<path fill="none" stroke="#63b8ff" d="M508.44,-146.54C500.37,-148.78 491.86,-150.76 483.75,-151.94 425.91,-160.34 410.02,-160.78 352.25,-151.94 322.34,-147.36 289.43,-136.25 267.15,-127.77"/>
<polygon fill="#63b8ff" stroke="#63b8ff" points="509.44,-149.89 518.02,-143.68 507.44,-143.19 509.44,-149.89"/>
</a>
</g>
</g>
<!-- Node8 -->
<g id="Node000008" class="node">
<title>Node8</title>
<g id="a_Node000008"><a xlink:href="../../dd/d61/_fx_water_8ino.html#afe461d27b9c48d5921c00d521181f12f" target="_top" xlink:title=" ">
<polygon fill="white" stroke="#666666" points="436.5,-143.31 399.5,-143.31 399.5,-122.56 436.5,-122.56 436.5,-143.31"/>
<text text-anchor="middle" x="418" y="-129.81" font-family="Helvetica,sans-Serif" font-size="10.00">loop</text>
</a>
</g>
</g>
<!-- Node1&#45;&gt;Node8 -->
<g id="edge7_Node000001_Node000008" class="edge">
<title>Node1&#45;&gt;Node8</title>
<g id="a_edge7_Node000001_Node000008"><a xlink:title=" ">
<path fill="none" stroke="#63b8ff" d="M508.3,-132.94C484.48,-132.94 455.26,-132.94 436.88,-132.94"/>
<polygon fill="#63b8ff" stroke="#63b8ff" points="507.98,-136.44 517.98,-132.94 507.98,-129.44 507.98,-136.44"/>
</a>
</g>
</g>
<!-- Node9 -->
<g id="Node000009" class="node">
<title>Node9</title>
<g id="a_Node000009"><a xlink:href="../../d2/db2/classfl_1_1_pacifica.html#abbe1bbf6675103bb2857b13cad156aa4" target="_top" xlink:title=" ">
<polygon fill="white" stroke="#666666" points="472.12,-104.69 363.88,-104.69 363.88,-71.19 472.12,-71.19 472.12,-104.69"/>
<text text-anchor="start" x="371.88" y="-91.19" font-family="Helvetica,sans-Serif" font-size="10.00">fl::Pacifica::pacifica</text>
<text text-anchor="middle" x="418" y="-78.44" font-family="Helvetica,sans-Serif" font-size="10.00">_add_whitecaps</text>
</a>
</g>
</g>
<!-- Node1&#45;&gt;Node9 -->
<g id="edge8_Node000001_Node000009" class="edge">
<title>Node1&#45;&gt;Node9</title>
<g id="a_edge8_Node000001_Node000009"><a xlink:title=" ">
<path fill="none" stroke="#63b8ff" d="M508.75,-119.31C495.98,-114.84 481.63,-109.83 468.21,-105.14"/>
<polygon fill="#63b8ff" stroke="#63b8ff" points="507.47,-122.57 518.07,-122.56 509.78,-115.96 507.47,-122.57"/>
</a>
</g>
</g>
<!-- Node10 -->
<g id="Node000010" class="node">
<title>Node10</title>
<g id="a_Node000010"><a xlink:href="../../dc/d25/_pacifica_8ino.html#a638fb6ae6610fed66077161e7e044f26" target="_top" xlink:title=" ">
<polygon fill="white" stroke="#666666" points="483.75,-53.31 352.25,-53.31 352.25,-32.56 483.75,-32.56 483.75,-53.31"/>
<text text-anchor="middle" x="418" y="-39.81" font-family="Helvetica,sans-Serif" font-size="10.00">pacifica_add_whitecaps</text>
</a>
</g>
</g>
<!-- Node1&#45;&gt;Node10 -->
<g id="edge9_Node000001_Node000010" class="edge">
<title>Node1&#45;&gt;Node10</title>
<g id="a_edge9_Node000001_Node000010"><a xlink:title=" ">
<path fill="none" stroke="#63b8ff" d="M534.54,-113.01C522.94,-97.01 504.69,-75.1 483.75,-61.94 478.59,-58.69 472.86,-55.99 467,-53.73"/>
<polygon fill="#63b8ff" stroke="#63b8ff" points="531.41,-114.64 540,-120.84 537.15,-110.64 531.41,-114.64"/>
</a>
</g>
</g>
<!-- Node11 -->
<g id="Node000011" class="node">
<title>Node11</title>
<g id="a_Node000011"><a xlink:href="../../dc/d25/_pacifica_8ino.html#a158d427a947ef0a715c7ffd916346acc" target="_top" xlink:title=" ">
<polygon fill="white" stroke="#666666" points="279.5,-34.31 199.75,-34.31 199.75,-13.56 279.5,-13.56 279.5,-34.31"/>
<text text-anchor="middle" x="239.62" y="-20.81" font-family="Helvetica,sans-Serif" font-size="10.00">pacifica_loop</text>
</a>
</g>
</g>
<!-- Node1&#45;&gt;Node11 -->
<g id="edge13_Node000001_Node000011" class="edge">
<title>Node1&#45;&gt;Node11</title>
<g id="a_edge13_Node000001_Node000011"><a xlink:title=" ">
<path fill="none" stroke="#63b8ff" d="M542.15,-111.39C534.09,-85.34 516.47,-42.67 483.75,-23.94 419.28,12.97 328.54,-0.87 278.13,-13.12"/>
<polygon fill="#63b8ff" stroke="#63b8ff" points="538.76,-112.25 544.87,-120.9 545.49,-110.33 538.76,-112.25"/>
</a>
</g>
</g>
<!-- Node3 -->
<g id="Node000003" class="node">
<title>Node3</title>
<g id="a_Node000003"><a xlink:href="../../d1/d60/classfl_1_1_demo_reel100.html#aad4b41d93c1a9f7acecea8b49cda7078" target="_top" xlink:title=" ">
<polygon fill="white" stroke="#666666" points="316.25,-258.31 163,-258.31 163,-237.56 316.25,-237.56 316.25,-258.31"/>
<text text-anchor="middle" x="239.62" y="-244.81" font-family="Helvetica,sans-Serif" font-size="10.00">fl::DemoReel100::runPattern</text>
</a>
</g>
</g>
<!-- Node2&#45;&gt;Node3 -->
<g id="edge2_Node000002_Node000003" class="edge">
<title>Node2&#45;&gt;Node3</title>
<g id="a_edge2_Node000002_Node000003"><a xlink:title=" ">
<path fill="none" stroke="#63b8ff" d="M387.38,-247.94C367.94,-247.94 341.58,-247.94 316.56,-247.94"/>
<polygon fill="#63b8ff" stroke="#63b8ff" points="387.28,-251.44 397.28,-247.94 387.28,-244.44 387.28,-251.44"/>
</a>
</g>
</g>
<!-- Node4 -->
<g id="Node000004" class="node">
<title>Node4</title>
<g id="a_Node000004"><a xlink:href="../../d1/d60/classfl_1_1_demo_reel100.html#a5f66b8a2f16f89f0180bd6e27f1563c6" target="_top" xlink:title=" ">
<polygon fill="white" stroke="#666666" points="127,-258.31 0,-258.31 0,-237.56 127,-237.56 127,-258.31"/>
<text text-anchor="middle" x="63.5" y="-244.81" font-family="Helvetica,sans-Serif" font-size="10.00">fl::DemoReel100::draw</text>
</a>
</g>
</g>
<!-- Node3&#45;&gt;Node4 -->
<g id="edge3_Node000003_Node000004" class="edge">
<title>Node3&#45;&gt;Node4</title>
<g id="a_edge3_Node000003_Node000004"><a xlink:title=" ">
<path fill="none" stroke="#63b8ff" d="M151.19,-247.94C143.18,-247.94 135.16,-247.94 127.42,-247.94"/>
<polygon fill="#63b8ff" stroke="#63b8ff" points="150.99,-251.44 160.99,-247.94 150.99,-244.44 150.99,-251.44"/>
</a>
</g>
</g>
<!-- Node7 -->
<g id="Node000007" class="node">
<title>Node7</title>
<g id="a_Node000007"><a xlink:href="../../dc/ded/_fx_pacifica_8ino.html#afe461d27b9c48d5921c00d521181f12f" target="_top" xlink:title=" ">
<polygon fill="white" stroke="#666666" points="82,-127.31 45,-127.31 45,-106.56 82,-106.56 82,-127.31"/>
<text text-anchor="middle" x="63.5" y="-113.81" font-family="Helvetica,sans-Serif" font-size="10.00">loop</text>
</a>
</g>
</g>
<!-- Node6&#45;&gt;Node7 -->
<g id="edge6_Node000006_Node000007" class="edge">
<title>Node6&#45;&gt;Node7</title>
<g id="a_edge6_Node000006_Node000007"><a xlink:title=" ">
<path fill="none" stroke="#63b8ff" d="M180.64,-116.94C146.39,-116.94 105.35,-116.94 82.37,-116.94"/>
<polygon fill="#63b8ff" stroke="#63b8ff" points="180.45,-120.44 190.45,-116.94 180.45,-113.44 180.45,-120.44"/>
</a>
</g>
</g>
<!-- Node10&#45;&gt;Node6 -->
<g id="edge10_Node000010_Node000006" class="edge">
<title>Node10&#45;&gt;Node6</title>
<g id="a_edge10_Node000010_Node000006"><a xlink:title=" ">
<path fill="none" stroke="#63b8ff" d="M365.61,-57.13C361.06,-58.65 356.55,-60.26 352.25,-61.94 318.84,-74.96 281.82,-94.22 259.92,-106.15"/>
<polygon fill="#63b8ff" stroke="#63b8ff" points="366.32,-60.57 374.79,-54.2 364.19,-53.91 366.32,-60.57"/>
</a>
</g>
</g>
<!-- Node10&#45;&gt;Node11 -->
<g id="edge11_Node000010_Node000011" class="edge">
<title>Node10&#45;&gt;Node11</title>
<g id="a_edge11_Node000010_Node000011"><a xlink:title=" ">
<path fill="none" stroke="#63b8ff" d="M340.65,-34.71C319.7,-32.46 297.85,-30.1 279.93,-28.17"/>
<polygon fill="#63b8ff" stroke="#63b8ff" points="340,-38.16 350.32,-35.75 340.75,-31.2 340,-38.16"/>
</a>
</g>
</g>
<!-- Node12 -->
<g id="Node000012" class="node">
<title>Node12</title>
<g id="a_Node000012"><a xlink:href="../../dc/d25/_pacifica_8ino.html#afe461d27b9c48d5921c00d521181f12f" target="_top" xlink:title=" ">
<polygon fill="white" stroke="#666666" points="82,-34.31 45,-34.31 45,-13.56 82,-13.56 82,-34.31"/>
<text text-anchor="middle" x="63.5" y="-20.81" font-family="Helvetica,sans-Serif" font-size="10.00">loop</text>
</a>
</g>
</g>
<!-- Node11&#45;&gt;Node12 -->
<g id="edge12_Node000011_Node000012" class="edge">
<title>Node11&#45;&gt;Node12</title>
<g id="a_edge12_Node000011_Node000012"><a xlink:title=" ">
<path fill="none" stroke="#63b8ff" d="M188.36,-23.94C152.7,-23.94 106.93,-23.94 82.23,-23.94"/>
<polygon fill="#63b8ff" stroke="#63b8ff" points="188.03,-27.44 198.03,-23.94 188.03,-20.44 188.03,-27.44"/>
</a>
</g>
</g>
</g>
</svg>
