<?xml version="1.0" encoding="UTF-8" standalone="no"?>
<!DOCTYPE svg PUBLIC "-//W3C//DTD SVG 1.1//EN"
 "http://www.w3.org/Graphics/SVG/1.1/DTD/svg11.dtd">
<!-- Generated by graphviz version 12.2.1 (20241206.2353)
 -->
<!-- Title: beat88 Pages: 1 -->
<svg width="713pt" height="541pt"
 viewBox="0.00 0.00 713.25 541.08" xmlns="http://www.w3.org/2000/svg" xmlns:xlink="http://www.w3.org/1999/xlink">
<g id="graph0" class="graph" transform="scale(1 1) rotate(0) translate(4 537.08)">
<title>beat88</title>
<!-- Node1 -->
<g id="Node000001" class="node">
<title>Node1</title>
<g id="a_Node000001"><a xlink:title="Generates a 16&#45;bit &quot;sawtooth&quot; wave at a given BPM, with BPM specified in Q8.8 fixed&#45;point format.">
<polygon fill="#999999" stroke="#666666" points="705.25,-135.75 655.5,-135.75 655.5,-115 705.25,-115 705.25,-135.75"/>
<text text-anchor="middle" x="680.38" y="-122.25" font-family="Helvetica,sans-Serif" font-size="10.00">beat88</text>
</a>
</g>
</g>
<!-- Node2 -->
<g id="Node000002" class="node">
<title>Node2</title>
<g id="a_Node000002"><a xlink:href="../../d6/d6c/group___beat_generators.html#gade6acbf6fd3c9d346148bccfcafb2fe2" target="_top" xlink:title="Generates a 16&#45;bit &quot;sawtooth&quot; wave at a given BPM.">
<polygon fill="white" stroke="#666666" points="619.5,-231.75 569.75,-231.75 569.75,-211 619.5,-211 619.5,-231.75"/>
<text text-anchor="middle" x="594.62" y="-218.25" font-family="Helvetica,sans-Serif" font-size="10.00">beat16</text>
</a>
</g>
</g>
<!-- Node1&#45;&gt;Node2 -->
<g id="edge1_Node000001_Node000002" class="edge">
<title>Node1&#45;&gt;Node2</title>
<g id="a_edge1_Node000001_Node000002"><a xlink:title=" ">
<path fill="none" stroke="#63b8ff" d="M662.63,-144.57C645.31,-164.43 618.87,-194.73 604.95,-210.69"/>
<polygon fill="#63b8ff" stroke="#63b8ff" points="665.16,-146.99 669.1,-137.16 659.89,-142.39 665.16,-146.99"/>
</a>
</g>
</g>
<!-- Node21 -->
<g id="Node000021" class="node">
<title>Node21</title>
<g id="a_Node000021"><a xlink:href="../../d6/d6c/group___beat_generators.html#gaf917825ff26c8e1174c5b674a2f3c631" target="_top" xlink:title="Generates a 16&#45;bit sine wave at a given BPM that oscillates within a given range.">
<polygon fill="white" stroke="#666666" points="316.88,-39.75 252.88,-39.75 252.88,-19 316.88,-19 316.88,-39.75"/>
<text text-anchor="middle" x="284.88" y="-26.25" font-family="Helvetica,sans-Serif" font-size="10.00">beatsin88</text>
</a>
</g>
</g>
<!-- Node1&#45;&gt;Node21 -->
<g id="edge23_Node000001_Node000021" class="edge">
<title>Node1&#45;&gt;Node21</title>
<g id="a_edge23_Node000001_Node000021"><a xlink:title=" ">
<path fill="none" stroke="#63b8ff" d="M644.19,-116.79C568.16,-98.24 389.61,-54.68 317.2,-37.02"/>
<polygon fill="#63b8ff" stroke="#63b8ff" points="643.04,-120.11 653.59,-119.08 644.7,-113.31 643.04,-120.11"/>
</a>
</g>
</g>
<!-- Node3 -->
<g id="Node000003" class="node">
<title>Node3</title>
<g id="a_Node000003"><a xlink:href="../../d6/d6c/group___beat_generators.html#ga12014943214a72eec31433d9682d4ebe" target="_top" xlink:title="Generates an 8&#45;bit &quot;sawtooth&quot; wave at a given BPM.">
<polygon fill="white" stroke="#666666" points="533.75,-412.75 490,-412.75 490,-392 533.75,-392 533.75,-412.75"/>
<text text-anchor="middle" x="511.88" y="-399.25" font-family="Helvetica,sans-Serif" font-size="10.00">beat8</text>
</a>
</g>
</g>
<!-- Node2&#45;&gt;Node3 -->
<g id="edge2_Node000002_Node000003" class="edge">
<title>Node2&#45;&gt;Node3</title>
<g id="a_edge2_Node000002_Node000003"><a xlink:title=" ">
<path fill="none" stroke="#63b8ff" d="M584.29,-242.29C566.99,-281.08 530.51,-362.85 517.56,-391.88"/>
<polygon fill="#63b8ff" stroke="#63b8ff" points="587.32,-244.1 588.2,-233.54 580.93,-241.24 587.32,-244.1"/>
</a>
</g>
</g>
<!-- Node9 -->
<g id="Node000009" class="node">
<title>Node9</title>
<g id="a_Node000009"><a xlink:href="../../d2/db2/classfl_1_1_pacifica.html#a264d0c1db5db60028b6fab87af13d700" target="_top" xlink:title=" ">
<polygon fill="#fff0f0" stroke="red" points="173.75,-231.75 79,-231.75 79,-211 173.75,-211 173.75,-231.75"/>
<text text-anchor="middle" x="126.38" y="-218.25" font-family="Helvetica,sans-Serif" font-size="10.00">fl::Pacifica::draw</text>
</a>
</g>
</g>
<!-- Node2&#45;&gt;Node9 -->
<g id="edge21_Node000002_Node000009" class="edge">
<title>Node2&#45;&gt;Node9</title>
<g id="a_edge21_Node000002_Node000009"><a xlink:title=" ">
<path fill="none" stroke="#63b8ff" d="M571.46,-203.6C531.1,-172.51 441.68,-109.38 354,-86.38 294.57,-70.79 269.8,-57.16 215.75,-86.38 165.23,-113.68 138.95,-183.82 130.48,-210.69"/>
<polygon fill="#63b8ff" stroke="#63b8ff" points="569.18,-206.26 579.22,-209.66 573.49,-200.75 569.18,-206.26"/>
</a>
</g>
</g>
<!-- Node14 -->
<g id="Node000014" class="node">
<title>Node14</title>
<g id="a_Node000014"><a xlink:href="../../dc/d25/_pacifica_8ino.html#a158d427a947ef0a715c7ffd916346acc" target="_top" xlink:title=" ">
<polygon fill="#fff0f0" stroke="red" points="166.25,-473.75 86.5,-473.75 86.5,-453 166.25,-453 166.25,-473.75"/>
<text text-anchor="middle" x="126.38" y="-460.25" font-family="Helvetica,sans-Serif" font-size="10.00">pacifica_loop</text>
</a>
</g>
</g>
<!-- Node2&#45;&gt;Node14 -->
<g id="edge22_Node000002_Node000014" class="edge">
<title>Node2&#45;&gt;Node14</title>
<g id="a_edge22_Node000002_Node000014"><a xlink:title=" ">
<path fill="none" stroke="#63b8ff" d="M592.16,-243.56C588.5,-283.17 575.97,-366.97 533.75,-421.38 508.39,-454.06 490.17,-449.3 454,-469.38 359.32,-521.93 319.63,-550.97 215.75,-520.38 185.1,-511.35 155.06,-488.03 139.11,-474.17"/>
<polygon fill="#63b8ff" stroke="#63b8ff" points="595.64,-243.9 592.95,-233.65 588.66,-243.34 595.64,-243.9"/>
</a>
</g>
</g>
<!-- Node16 -->
<g id="Node000016" class="node">
<title>Node16</title>
<g id="a_Node000016"><a xlink:href="../../d6/d6c/group___beat_generators.html#gaa46e5de1c4c27833359e7a97a18c839b" target="_top" xlink:title="Generates a 16&#45;bit sine wave at a given BPM that oscillates within a given range.">
<polygon fill="white" stroke="#666666" points="454,-231.75 390,-231.75 390,-211 454,-211 454,-231.75"/>
<text text-anchor="middle" x="422" y="-218.25" font-family="Helvetica,sans-Serif" font-size="10.00">beatsin16</text>
</a>
</g>
</g>
<!-- Node2&#45;&gt;Node16 -->
<g id="edge13_Node000002_Node000016" class="edge">
<title>Node2&#45;&gt;Node16</title>
<g id="a_edge13_Node000002_Node000016"><a xlink:title=" ">
<path fill="none" stroke="#63b8ff" d="M558.09,-221.38C527.41,-221.38 483.53,-221.38 454.2,-221.38"/>
<polygon fill="#63b8ff" stroke="#63b8ff" points="558.03,-224.88 568.03,-221.38 558.03,-217.88 558.03,-224.88"/>
</a>
</g>
</g>
<!-- Node4 -->
<g id="Node000004" class="node">
<title>Node4</title>
<g id="a_Node000004"><a xlink:href="../../d6/d6c/group___beat_generators.html#gaecd7cbfc2640407cabf75afcc7d9ddf4" target="_top" xlink:title="Generates an 8&#45;bit sine wave at a given BPM that oscillates within a given range.">
<polygon fill="#fff0f0" stroke="red" points="451,-432.75 393,-432.75 393,-412 451,-412 451,-432.75"/>
<text text-anchor="middle" x="422" y="-419.25" font-family="Helvetica,sans-Serif" font-size="10.00">beatsin8</text>
</a>
</g>
</g>
<!-- Node3&#45;&gt;Node4 -->
<g id="edge3_Node000003_Node000004" class="edge">
<title>Node3&#45;&gt;Node4</title>
<g id="a_edge3_Node000003_Node000004"><a xlink:title=" ">
<path fill="none" stroke="#63b8ff" d="M478.45,-409.75C469.57,-411.78 460.02,-413.95 451.38,-415.92"/>
<polygon fill="#63b8ff" stroke="#63b8ff" points="479.15,-413.18 488.13,-407.55 477.6,-406.36 479.15,-413.18"/>
</a>
</g>
</g>
<!-- Node12 -->
<g id="Node000012" class="node">
<title>Node12</title>
<g id="a_Node000012"><a xlink:href="../../d2/db2/classfl_1_1_pacifica.html#abbe1bbf6675103bb2857b13cad156aa4" target="_top" xlink:title=" ">
<polygon fill="white" stroke="#666666" points="339,-397.12 230.75,-397.12 230.75,-363.62 339,-363.62 339,-397.12"/>
<text text-anchor="start" x="238.75" y="-383.62" font-family="Helvetica,sans-Serif" font-size="10.00">fl::Pacifica::pacifica</text>
<text text-anchor="middle" x="284.88" y="-370.88" font-family="Helvetica,sans-Serif" font-size="10.00">_add_whitecaps</text>
</a>
</g>
</g>
<!-- Node3&#45;&gt;Node12 -->
<g id="edge11_Node000003_Node000012" class="edge">
<title>Node3&#45;&gt;Node12</title>
<g id="a_edge11_Node000003_Node000012"><a xlink:title=" ">
<path fill="none" stroke="#63b8ff" d="M478.31,-399.19C441.93,-395.63 382.47,-389.82 339.26,-385.59"/>
<polygon fill="#63b8ff" stroke="#63b8ff" points="477.91,-402.67 488.2,-400.16 478.59,-395.7 477.91,-402.67"/>
</a>
</g>
</g>
<!-- Node13 -->
<g id="Node000013" class="node">
<title>Node13</title>
<g id="a_Node000013"><a xlink:href="../../dc/d25/_pacifica_8ino.html#a638fb6ae6610fed66077161e7e044f26" target="_top" xlink:title=" ">
<polygon fill="white" stroke="#666666" points="350.62,-511.75 219.12,-511.75 219.12,-491 350.62,-491 350.62,-511.75"/>
<text text-anchor="middle" x="284.88" y="-498.25" font-family="Helvetica,sans-Serif" font-size="10.00">pacifica_add_whitecaps</text>
</a>
</g>
</g>
<!-- Node3&#45;&gt;Node13 -->
<g id="edge12_Node000003_Node000013" class="edge">
<title>Node3&#45;&gt;Node13</title>
<g id="a_edge12_Node000003_Node000013"><a xlink:title=" ">
<path fill="none" stroke="#63b8ff" d="M488.51,-419.7C478.36,-427.03 465.96,-435.27 454,-441.38 411.77,-462.93 359.96,-480.15 325.11,-490.52"/>
<polygon fill="#63b8ff" stroke="#63b8ff" points="490.32,-422.71 496.26,-413.94 486.14,-417.09 490.32,-422.71"/>
</a>
</g>
</g>
<!-- Node4&#45;&gt;Node9 -->
<g id="edge4_Node000004_Node000009" class="edge">
<title>Node4&#45;&gt;Node9</title>
<g id="a_edge4_Node000004_Node000009"><a xlink:title=" ">
<path fill="none" stroke="#63b8ff" d="M381.36,-430.21C336.98,-436.68 264.85,-440.07 215.75,-406.38 153.53,-363.68 133.76,-264.83 128.8,-232.11"/>
<polygon fill="#63b8ff" stroke="#63b8ff" points="381.74,-433.69 391.06,-428.66 380.64,-426.78 381.74,-433.69"/>
</a>
</g>
</g>
<!-- Node11 -->
<g id="Node000011" class="node">
<title>Node11</title>
<g id="a_Node000011"><a xlink:href="../../dd/d61/_fx_water_8ino.html#afe461d27b9c48d5921c00d521181f12f" target="_top" xlink:title=" ">
<polygon fill="white" stroke="#666666" points="303.38,-345.75 266.38,-345.75 266.38,-325 303.38,-325 303.38,-345.75"/>
<text text-anchor="middle" x="284.88" y="-332.25" font-family="Helvetica,sans-Serif" font-size="10.00">loop</text>
</a>
</g>
</g>
<!-- Node4&#45;&gt;Node11 -->
<g id="edge5_Node000004_Node000011" class="edge">
<title>Node4&#45;&gt;Node11</title>
<g id="a_edge5_Node000004_Node000011"><a xlink:title=" ">
<path fill="none" stroke="#63b8ff" d="M406.63,-403C394.29,-387.67 375.17,-366.85 354,-354.38 338.34,-345.15 318.02,-340.24 303.66,-337.74"/>
<polygon fill="#63b8ff" stroke="#63b8ff" points="403.57,-404.77 412.47,-410.51 409.1,-400.47 403.57,-404.77"/>
</a>
</g>
</g>
<!-- Node4&#45;&gt;Node12 -->
<g id="edge6_Node000004_Node000012" class="edge">
<title>Node4&#45;&gt;Node12</title>
<g id="a_edge6_Node000004_Node000012"><a xlink:title=" ">
<path fill="none" stroke="#63b8ff" d="M381.97,-410.24C368.65,-406.1 353.52,-401.4 339.27,-396.97"/>
<polygon fill="#63b8ff" stroke="#63b8ff" points="380.64,-413.5 391.23,-413.12 382.72,-406.81 380.64,-413.5"/>
</a>
</g>
</g>
<!-- Node4&#45;&gt;Node13 -->
<g id="edge7_Node000004_Node000013" class="edge">
<title>Node4&#45;&gt;Node13</title>
<g id="a_edge7_Node000004_Node000013"><a xlink:title=" ">
<path fill="none" stroke="#63b8ff" d="M402.16,-440.89C389.41,-452.61 371.73,-467.39 354,-477.38 344.71,-482.61 334.08,-487.01 324.03,-490.56"/>
<polygon fill="#63b8ff" stroke="#63b8ff" points="404.54,-443.46 409.4,-434.04 399.73,-438.37 404.54,-443.46"/>
</a>
</g>
</g>
<!-- Node4&#45;&gt;Node14 -->
<g id="edge10_Node000004_Node000014" class="edge">
<title>Node4&#45;&gt;Node14</title>
<g id="a_edge10_Node000004_Node000014"><a xlink:title=" ">
<path fill="none" stroke="#63b8ff" d="M381.5,-433.39C372.51,-435.62 362.97,-437.77 354,-439.38 288.76,-451.04 211.88,-457.72 166.51,-460.94"/>
<polygon fill="#63b8ff" stroke="#63b8ff" points="382.23,-436.82 391.04,-430.94 380.48,-430.04 382.23,-436.82"/>
</a>
</g>
</g>
<!-- Node13&#45;&gt;Node9 -->
<g id="edge8_Node000013_Node000009" class="edge">
<title>Node13&#45;&gt;Node9</title>
<g id="a_edge8_Node000013_Node000009"><a xlink:title=" ">
<path fill="none" stroke="#63b8ff" d="M259.66,-483.82C245.36,-472.45 227.75,-456.59 215.75,-439.38 166.24,-368.35 138.12,-265.46 129.92,-232.19"/>
<polygon fill="#63b8ff" stroke="#63b8ff" points="257.23,-486.37 267.29,-489.69 261.5,-480.82 257.23,-486.37"/>
</a>
</g>
</g>
<!-- Node13&#45;&gt;Node14 -->
<g id="edge9_Node000013_Node000014" class="edge">
<title>Node13&#45;&gt;Node14</title>
<g id="a_edge9_Node000013_Node000014"><a xlink:title=" ">
<path fill="none" stroke="#63b8ff" d="M228.38,-487.9C207.96,-482.94 185.27,-477.43 166.58,-472.9"/>
<polygon fill="#63b8ff" stroke="#63b8ff" points="227.43,-491.27 237.98,-490.23 229.08,-484.47 227.43,-491.27"/>
</a>
</g>
</g>
<!-- Node16&#45;&gt;Node9 -->
<g id="edge14_Node000016_Node000009" class="edge">
<title>Node16&#45;&gt;Node9</title>
<g id="a_edge14_Node000016_Node000009"><a xlink:title=" ">
<path fill="none" stroke="#63b8ff" d="M378.28,-221.38C323.95,-221.38 230.45,-221.38 174.22,-221.38"/>
<polygon fill="#63b8ff" stroke="#63b8ff" points="378.06,-224.88 388.06,-221.38 378.06,-217.88 378.06,-224.88"/>
</a>
</g>
</g>
<!-- Node16&#45;&gt;Node11 -->
<g id="edge17_Node000016_Node000011" class="edge">
<title>Node16&#45;&gt;Node11</title>
<g id="a_edge17_Node000016_Node000011"><a xlink:title=" ">
<path fill="none" stroke="#63b8ff" d="M410.27,-242.26C398.86,-262.56 379.01,-292.95 354,-311.38 338.96,-322.45 318.35,-328.77 303.75,-332.11"/>
<polygon fill="#63b8ff" stroke="#63b8ff" points="413.34,-243.95 415.01,-233.49 407.18,-240.63 413.34,-243.95"/>
</a>
</g>
</g>
<!-- Node16&#45;&gt;Node14 -->
<g id="edge18_Node000016_Node000014" class="edge">
<title>Node16&#45;&gt;Node14</title>
<g id="a_edge18_Node000016_Node000014"><a xlink:title=" ">
<path fill="none" stroke="#63b8ff" d="M403.33,-240.23C390.68,-252.7 372.65,-268.51 354,-278.38 297.67,-308.17 266.52,-277.87 215.75,-316.38 167.11,-353.26 139.7,-425.34 130.71,-452.59"/>
<polygon fill="#63b8ff" stroke="#63b8ff" points="405.6,-242.91 410.11,-233.32 400.6,-238 405.6,-242.91"/>
</a>
</g>
</g>
<!-- Node17 -->
<g id="Node000017" class="node">
<title>Node17</title>
<g id="a_Node000017"><a xlink:href="../../d1/d60/classfl_1_1_demo_reel100.html#ad98699eb2a5f15302d2b95e07f2f69d2" target="_top" xlink:title=" ">
<polygon fill="white" stroke="#666666" points="351.38,-269.75 218.38,-269.75 218.38,-249 351.38,-249 351.38,-269.75"/>
<text text-anchor="middle" x="284.88" y="-256.25" font-family="Helvetica,sans-Serif" font-size="10.00">fl::DemoReel100::juggle</text>
</a>
</g>
</g>
<!-- Node16&#45;&gt;Node17 -->
<g id="edge15_Node000016_Node000017" class="edge">
<title>Node16&#45;&gt;Node17</title>
<g id="a_edge15_Node000016_Node000017"><a xlink:title=" ">
<path fill="none" stroke="#63b8ff" d="M378.66,-233.28C361.26,-238.18 341.25,-243.8 324.28,-248.57"/>
<polygon fill="#63b8ff" stroke="#63b8ff" points="379.52,-236.67 388.2,-230.6 377.63,-229.94 379.52,-236.67"/>
</a>
</g>
</g>
<!-- Node18 -->
<g id="Node000018" class="node">
<title>Node18</title>
<g id="a_Node000018"><a xlink:href="../../d5/d25/_demo_reel100_8ino.html#a4cf4b428065fac16dc28a16e2f9004e1" target="_top" xlink:title=" ">
<polygon fill="#fff0f0" stroke="red" points="307.88,-193.75 261.88,-193.75 261.88,-173 307.88,-173 307.88,-193.75"/>
<text text-anchor="middle" x="284.88" y="-180.25" font-family="Helvetica,sans-Serif" font-size="10.00">juggle</text>
</a>
</g>
</g>
<!-- Node16&#45;&gt;Node18 -->
<g id="edge16_Node000016_Node000018" class="edge">
<title>Node16&#45;&gt;Node18</title>
<g id="a_edge16_Node000016_Node000018"><a xlink:title=" ">
<path fill="none" stroke="#63b8ff" d="M378.64,-209.46C355.3,-202.9 327.28,-195.02 308.19,-189.65"/>
<polygon fill="#63b8ff" stroke="#63b8ff" points="377.63,-212.81 388.2,-212.15 379.52,-206.08 377.63,-212.81"/>
</a>
</g>
</g>
<!-- Node19 -->
<g id="Node000019" class="node">
<title>Node19</title>
<g id="a_Node000019"><a xlink:href="../../d1/d60/classfl_1_1_demo_reel100.html#a3ff4d3fc05b6e3a158d49d65cd954e1d" target="_top" xlink:title=" ">
<polygon fill="white" stroke="#666666" points="354,-154.75 215.75,-154.75 215.75,-134 354,-134 354,-154.75"/>
<text text-anchor="middle" x="284.88" y="-141.25" font-family="Helvetica,sans-Serif" font-size="10.00">fl::DemoReel100::sinelon</text>
</a>
</g>
</g>
<!-- Node16&#45;&gt;Node19 -->
<g id="edge19_Node000016_Node000019" class="edge">
<title>Node16&#45;&gt;Node19</title>
<g id="a_edge19_Node000016_Node000019"><a xlink:title=" ">
<path fill="none" stroke="#63b8ff" d="M403.27,-202.63C390.6,-190.2 372.56,-174.4 354,-164.38 347.28,-160.74 339.81,-157.7 332.36,-155.17"/>
<polygon fill="#63b8ff" stroke="#63b8ff" points="400.55,-204.85 410.07,-209.5 405.53,-199.93 400.55,-204.85"/>
</a>
</g>
</g>
<!-- Node20 -->
<g id="Node000020" class="node">
<title>Node20</title>
<g id="a_Node000020"><a xlink:href="../../d5/d25/_demo_reel100_8ino.html#ae67f05643df1798b39ca5b88496dcebf" target="_top" xlink:title=" ">
<polygon fill="#fff0f0" stroke="red" points="310.5,-115.75 259.25,-115.75 259.25,-95 310.5,-95 310.5,-115.75"/>
<text text-anchor="middle" x="284.88" y="-102.25" font-family="Helvetica,sans-Serif" font-size="10.00">sinelon</text>
</a>
</g>
</g>
<!-- Node16&#45;&gt;Node20 -->
<g id="edge20_Node000016_Node000020" class="edge">
<title>Node16&#45;&gt;Node20</title>
<g id="a_edge20_Node000016_Node000020"><a xlink:title=" ">
<path fill="none" stroke="#63b8ff" d="M411.65,-200.43C400.82,-178.56 380.98,-144.78 354,-125.38 341.39,-116.31 324.69,-111.32 310.98,-108.59"/>
<polygon fill="#63b8ff" stroke="#63b8ff" points="408.39,-201.73 415.82,-209.28 414.72,-198.74 408.39,-201.73"/>
</a>
</g>
</g>
<!-- Node21&#45;&gt;Node9 -->
<g id="edge24_Node000021_Node000009" class="edge">
<title>Node21&#45;&gt;Node9</title>
<g id="a_edge24_Node000021_Node000009"><a xlink:title=" ">
<path fill="none" stroke="#63b8ff" d="M241.73,-38.73C232.45,-42.21 223.18,-46.95 215.75,-53.38 163.88,-98.19 137.96,-181.09 130.06,-210.6"/>
<polygon fill="#63b8ff" stroke="#63b8ff" points="242.67,-42.1 251.08,-35.66 240.48,-35.45 242.67,-42.1"/>
</a>
</g>
</g>
<!-- Node21&#45;&gt;Node14 -->
<g id="edge27_Node000021_Node000014" class="edge">
<title>Node21&#45;&gt;Node14</title>
<g id="a_edge27_Node000021_Node000014"><a xlink:title=" ">
<path fill="none" stroke="#63b8ff" d="M256.04,-46.34C241.94,-56.32 225.73,-70.16 215.75,-86.38 178.9,-146.23 195.79,-171.94 179.75,-240.38 160.61,-322.07 137.44,-420.59 129.89,-452.7"/>
<polygon fill="#63b8ff" stroke="#63b8ff" points="257.77,-49.4 264.11,-40.92 253.86,-43.59 257.77,-49.4"/>
</a>
</g>
</g>
<!-- Node22 -->
<g id="Node000022" class="node">
<title>Node22</title>
<g id="a_Node000022"><a xlink:href="../../df/d11/classfl_1_1_pride2015.html#a331b131b082d622bbd9208bf05308d0d" target="_top" xlink:title=" ">
<polygon fill="white" stroke="#666666" points="179.75,-59.75 73,-59.75 73,-39 179.75,-39 179.75,-59.75"/>
<text text-anchor="middle" x="126.38" y="-46.25" font-family="Helvetica,sans-Serif" font-size="10.00">fl::Pride2015::draw</text>
</a>
</g>
</g>
<!-- Node21&#45;&gt;Node22 -->
<g id="edge25_Node000021_Node000022" class="edge">
<title>Node21&#45;&gt;Node22</title>
<g id="a_edge25_Node000021_Node000022"><a xlink:title=" ">
<path fill="none" stroke="#63b8ff" d="M241.35,-34.81C222.49,-37.22 200.11,-40.08 180.19,-42.63"/>
<polygon fill="#63b8ff" stroke="#63b8ff" points="241.6,-38.31 251.08,-33.57 240.72,-31.36 241.6,-38.31"/>
</a>
</g>
</g>
<!-- Node24 -->
<g id="Node000024" class="node">
<title>Node24</title>
<g id="a_Node000024"><a xlink:href="../../d0/dce/_pride2015_8ino.html#a6e24bc1de16730062b4d4be6ad4f8e3b" target="_top" xlink:title=" ">
<polygon fill="white" stroke="#666666" points="146.75,-20.75 106,-20.75 106,0 146.75,0 146.75,-20.75"/>
<text text-anchor="middle" x="126.38" y="-7.25" font-family="Helvetica,sans-Serif" font-size="10.00">pride</text>
</a>
</g>
</g>
<!-- Node21&#45;&gt;Node24 -->
<g id="edge28_Node000021_Node000024" class="edge">
<title>Node21&#45;&gt;Node24</title>
<g id="a_edge28_Node000021_Node000024"><a xlink:title=" ">
<path fill="none" stroke="#63b8ff" d="M241.35,-24.21C210.71,-20.49 170.77,-15.64 147.22,-12.78"/>
<polygon fill="#63b8ff" stroke="#63b8ff" points="240.73,-27.66 251.08,-25.39 241.57,-20.71 240.73,-27.66"/>
</a>
</g>
</g>
<!-- Node23 -->
<g id="Node000023" class="node">
<title>Node23</title>
<g id="a_Node000023"><a xlink:href="../../d2/db0/_fx_pride2015_8ino.html#afe461d27b9c48d5921c00d521181f12f" target="_top" xlink:title=" ">
<polygon fill="white" stroke="#666666" points="37,-59.75 0,-59.75 0,-39 37,-39 37,-59.75"/>
<text text-anchor="middle" x="18.5" y="-46.25" font-family="Helvetica,sans-Serif" font-size="10.00">loop</text>
</a>
</g>
</g>
<!-- Node22&#45;&gt;Node23 -->
<g id="edge26_Node000022_Node000023" class="edge">
<title>Node22&#45;&gt;Node23</title>
<g id="a_edge26_Node000022_Node000023"><a xlink:title=" ">
<path fill="none" stroke="#63b8ff" d="M61.36,-49.38C52.49,-49.38 44.05,-49.38 37.11,-49.38"/>
<polygon fill="#63b8ff" stroke="#63b8ff" points="61.23,-52.88 71.23,-49.38 61.23,-45.88 61.23,-52.88"/>
</a>
</g>
</g>
</g>
</svg>
