<?xml version="1.0" encoding="UTF-8" standalone="no"?>
<!DOCTYPE svg PUBLIC "-//W3C//DTD SVG 1.1//EN"
 "http://www.w3.org/Graphics/SVG/1.1/DTD/svg11.dtd">
<!-- Generated by graphviz version 12.2.1 (20241206.2353)
 -->
<!-- Title: Pin::hi Pages: 1 -->
<svg width="234pt" height="132pt"
 viewBox="0.00 0.00 233.50 131.50" xmlns="http://www.w3.org/2000/svg" xmlns:xlink="http://www.w3.org/1999/xlink">
<g id="graph0" class="graph" transform="scale(1 1) rotate(0) translate(4 127.5)">
<title>Pin::hi</title>
<!-- Node1 -->
<g id="Node000001" class="node">
<title>Node1</title>
<g id="a_Node000001"><a xlink:title="Set the pin state to HIGH">
<polygon fill="#999999" stroke="#666666" points="225.5,-72.12 179.5,-72.12 179.5,-51.38 225.5,-51.38 225.5,-72.12"/>
<text text-anchor="middle" x="202.5" y="-58.62" font-family="Helvetica,sans-Serif" font-size="10.00">Pin::hi</text>
</a>
</g>
</g>
<!-- Node2 -->
<g id="Node000002" class="node">
<title>Node2</title>
<g id="a_Node000002"><a xlink:href="../../d3/d1d/group___power.html#gaeb674bb1095873cfaab1bc2796541020" target="_top" xlink:title="Determines the highest brightness level you can use and still stay under the specified power budget f...">
<polygon fill="white" stroke="#666666" points="143.5,-123.5 0,-123.5 0,-90 143.5,-90 143.5,-123.5"/>
<text text-anchor="start" x="8" y="-110" font-family="Helvetica,sans-Serif" font-size="10.00">calculate_max_brightness</text>
<text text-anchor="middle" x="71.75" y="-97.25" font-family="Helvetica,sans-Serif" font-size="10.00">_for_power_mW</text>
</a>
</g>
</g>
<!-- Node1&#45;&gt;Node2 -->
<g id="edge1_Node000001_Node000002" class="edge">
<title>Node1&#45;&gt;Node2</title>
<g id="a_edge1_Node000001_Node000002"><a xlink:title=" ">
<path fill="none" stroke="#63b8ff" d="M168.37,-73.33C154.22,-78.28 137.41,-84.15 121.86,-89.59"/>
<polygon fill="#63b8ff" stroke="#63b8ff" points="169.36,-76.69 177.64,-70.09 167.05,-70.08 169.36,-76.69"/>
</a>
</g>
</g>
<!-- Node3 -->
<g id="Node000003" class="node">
<title>Node3</title>
<g id="a_Node000003"><a xlink:href="../../d7/d68/class_pin.html#ae9ccf38d18d904e2ba7881c4b5af3fd0" target="_top" xlink:title="Set the pin state to HIGH">
<polygon fill="white" stroke="#666666" points="104.88,-72.12 38.62,-72.12 38.62,-51.38 104.88,-51.38 104.88,-72.12"/>
<text text-anchor="middle" x="71.75" y="-58.62" font-family="Helvetica,sans-Serif" font-size="10.00">Pin::select</text>
</a>
</g>
</g>
<!-- Node1&#45;&gt;Node3 -->
<g id="edge2_Node000001_Node000003" class="edge">
<title>Node1&#45;&gt;Node3</title>
<g id="a_edge2_Node000001_Node000003"><a xlink:title=" ">
<path fill="none" stroke="#63b8ff" d="M167.72,-61.75C148.35,-61.75 124.17,-61.75 105.05,-61.75"/>
<polygon fill="#63b8ff" stroke="#63b8ff" points="167.56,-65.25 177.56,-61.75 167.56,-58.25 167.56,-65.25"/>
</a>
</g>
</g>
<!-- Node4 -->
<g id="Node000004" class="node">
<title>Node4</title>
<g id="a_Node000004"><a xlink:href="../../d3/d25/classfl_1_1_digital_pin_impl.html#a8a4517a0b4a1cd30f8864c6b11abeb95" target="_top" xlink:title=" ">
<polygon fill="white" stroke="#666666" points="120.25,-33.5 23.25,-33.5 23.25,0 120.25,0 120.25,-33.5"/>
<text text-anchor="start" x="31.25" y="-20" font-family="Helvetica,sans-Serif" font-size="10.00">fl::DigitalPinImpl</text>
<text text-anchor="middle" x="71.75" y="-7.25" font-family="Helvetica,sans-Serif" font-size="10.00">::write</text>
</a>
</g>
</g>
<!-- Node1&#45;&gt;Node4 -->
<g id="edge3_Node000001_Node000004" class="edge">
<title>Node1&#45;&gt;Node4</title>
<g id="a_edge3_Node000001_Node000004"><a xlink:title=" ">
<path fill="none" stroke="#63b8ff" d="M168.54,-50.23C153.94,-45.13 136.49,-39.03 120.51,-33.44"/>
<polygon fill="#63b8ff" stroke="#63b8ff" points="167.05,-53.42 177.64,-53.41 169.36,-46.81 167.05,-53.42"/>
</a>
</g>
</g>
</g>
</svg>
