<?xml version="1.0" encoding="UTF-8" standalone="no"?>
<!DOCTYPE svg PUBLIC "-//W3C//DTD SVG 1.1//EN"
 "http://www.w3.org/Graphics/SVG/1.1/DTD/svg11.dtd">
<!-- Generated by graphviz version 12.2.1 (20241206.2353)
 -->
<!-- Title: Pin::port Pages: 1 -->
<svg width="171pt" height="107pt"
 viewBox="0.00 0.00 171.25 106.75" xmlns="http://www.w3.org/2000/svg" xmlns:xlink="http://www.w3.org/1999/xlink">
<g id="graph0" class="graph" transform="scale(1 1) rotate(0) translate(4 102.75)">
<title>Pin::port</title>
<!-- Node1 -->
<g id="Node000001" class="node">
<title>Node1</title>
<g id="a_Node000001"><a xlink:title="Get the output state of the port.">
<polygon fill="#999999" stroke="#666666" points="163.25,-59.75 106.75,-59.75 106.75,-39 163.25,-39 163.25,-59.75"/>
<text text-anchor="middle" x="135" y="-46.25" font-family="Helvetica,sans-Serif" font-size="10.00">Pin::port</text>
</a>
</g>
</g>
<!-- Node2 -->
<g id="Node000002" class="node">
<title>Node2</title>
<g id="a_Node000002"><a xlink:href="../../d7/d68/class_pin.html#a182ab9f12ccc742d2f790b8b394e0adb" target="_top" xlink:title="Set the state of a port.">
<polygon fill="white" stroke="#666666" points="70.75,-98.75 0,-98.75 0,-78 70.75,-78 70.75,-98.75"/>
<text text-anchor="middle" x="35.38" y="-85.25" font-family="Helvetica,sans-Serif" font-size="10.00">Pin::fastset</text>
</a>
</g>
</g>
<!-- Node1&#45;&gt;Node2 -->
<g id="edge1_Node000001_Node000002" class="edge">
<title>Node1&#45;&gt;Node2</title>
<g id="a_edge1_Node000001_Node000002"><a xlink:title=" ">
<path fill="none" stroke="#63b8ff" d="M96.22,-64.47C85.28,-68.84 73.56,-73.52 63.42,-77.57"/>
<polygon fill="#63b8ff" stroke="#63b8ff" points="97.41,-67.76 105.4,-60.8 94.82,-61.26 97.41,-67.76"/>
</a>
</g>
</g>
<!-- Node3 -->
<g id="Node000003" class="node">
<title>Node3</title>
<g id="a_Node000003"><a xlink:href="../../d7/d68/class_pin.html#a60e2715b756d236bf8efdffae663b568" target="_top" xlink:title="Set the same pin on another port to HIGH">
<polygon fill="white" stroke="#666666" points="58.38,-59.75 12.38,-59.75 12.38,-39 58.38,-39 58.38,-59.75"/>
<text text-anchor="middle" x="35.38" y="-46.25" font-family="Helvetica,sans-Serif" font-size="10.00">Pin::hi</text>
</a>
</g>
</g>
<!-- Node1&#45;&gt;Node3 -->
<g id="edge2_Node000001_Node000003" class="edge">
<title>Node1&#45;&gt;Node3</title>
<g id="a_edge2_Node000001_Node000003"><a xlink:title=" ">
<path fill="none" stroke="#63b8ff" d="M94.83,-49.38C82.5,-49.38 69.3,-49.38 58.58,-49.38"/>
<polygon fill="#63b8ff" stroke="#63b8ff" points="94.77,-52.88 104.77,-49.38 94.77,-45.88 94.77,-52.88"/>
</a>
</g>
</g>
<!-- Node4 -->
<g id="Node000004" class="node">
<title>Node4</title>
<g id="a_Node000004"><a xlink:href="../../d7/d68/class_pin.html#a2047664cea46b16584f6fc9e26b4ed90" target="_top" xlink:title="Set the same pin on another port to LOW">
<polygon fill="white" stroke="#666666" points="58.38,-20.75 12.38,-20.75 12.38,0 58.38,0 58.38,-20.75"/>
<text text-anchor="middle" x="35.38" y="-7.25" font-family="Helvetica,sans-Serif" font-size="10.00">Pin::lo</text>
</a>
</g>
</g>
<!-- Node1&#45;&gt;Node4 -->
<g id="edge3_Node000001_Node000004" class="edge">
<title>Node1&#45;&gt;Node4</title>
<g id="a_edge3_Node000001_Node000004"><a xlink:title=" ">
<path fill="none" stroke="#63b8ff" d="M96.47,-34.38C83.76,-29.3 69.97,-23.8 58.81,-19.34"/>
<polygon fill="#63b8ff" stroke="#63b8ff" points="94.82,-37.49 105.4,-37.95 97.41,-30.99 94.82,-37.49"/>
</a>
</g>
</g>
</g>
</svg>
