<?xml version="1.0" encoding="UTF-8" standalone="no"?>
<!DOCTYPE svg PUBLIC "-//W3C//DTD SVG 1.1//EN"
 "http://www.w3.org/Graphics/SVG/1.1/DTD/svg11.dtd">
<!-- Generated by graphviz version 12.2.1 (20241206.2353)
 -->
<!-- Title: delaycycles Pages: 1 -->
<svg width="222pt" height="47pt"
 viewBox="0.00 0.00 221.50 46.75" xmlns="http://www.w3.org/2000/svg" xmlns:xlink="http://www.w3.org/1999/xlink">
<g id="graph0" class="graph" transform="scale(1 1) rotate(0) translate(4 42.75)">
<title>delaycycles</title>
<!-- Node1 -->
<g id="Node000001" class="node">
<title>Node1</title>
<g id="a_Node000001"><a xlink:title="Delay N clock cycles.">
<polygon fill="#999999" stroke="#666666" points="213.5,-20.75 139.75,-20.75 139.75,0 213.5,0 213.5,-20.75"/>
<text text-anchor="middle" x="176.62" y="-7.25" font-family="Helvetica,sans-Serif" font-size="10.00">delaycycles</text>
</a>
</g>
</g>
<!-- Node1&#45;&gt;Node1 -->
<g id="edge1_Node000001_Node000001" class="edge">
<title>Node1&#45;&gt;Node1</title>
<g id="a_edge1_Node000001_Node000001"><a xlink:title=" ">
<path fill="none" stroke="#63b8ff" d="M198.58,-32.24C195.67,-36.08 188.35,-38.75 176.62,-38.75 155.18,-38.75 148.48,-29.81 156.52,-21.15"/>
<polygon fill="#63b8ff" stroke="#63b8ff" points="202.07,-31.93 196.98,-22.64 195.17,-33.08 202.07,-31.93"/>
</a>
</g>
</g>
<!-- Node2 -->
<g id="Node000002" class="node">
<title>Node2</title>
<g id="a_Node000002"><a xlink:href="../../d0/da8/fastled__delay_8h.html#a76328edb9ea1a1f017567ff835247d2d" target="_top" xlink:title="A variant of delaycycles that will always delay at least one cycle.">
<polygon fill="white" stroke="#666666" points="103.75,-20.75 0,-20.75 0,0 103.75,0 103.75,-20.75"/>
<text text-anchor="middle" x="51.88" y="-7.25" font-family="Helvetica,sans-Serif" font-size="10.00">delaycycles_min1</text>
</a>
</g>
</g>
<!-- Node1&#45;&gt;Node2 -->
<g id="edge2_Node000001_Node000002" class="edge">
<title>Node1&#45;&gt;Node2</title>
<g id="a_edge2_Node000001_Node000002"><a xlink:title=" ">
<path fill="none" stroke="#63b8ff" d="M127.97,-10.38C120.19,-10.38 112.1,-10.38 104.24,-10.38"/>
<polygon fill="#63b8ff" stroke="#63b8ff" points="127.95,-13.88 137.95,-10.38 127.95,-6.88 127.95,-13.88"/>
</a>
</g>
</g>
</g>
</svg>
