<?xml version="1.0" encoding="UTF-8" standalone="no"?>
<!DOCTYPE svg PUBLIC "-//W3C//DTD SVG 1.1//EN"
 "http://www.w3.org/Graphics/SVG/1.1/DTD/svg11.dtd">
<!-- Generated by graphviz version 12.2.1 (20241206.2353)
 -->
<!-- Title: scale8_video Pages: 1 -->
<svg width="432pt" height="263pt"
 viewBox="0.00 0.00 432.00 262.75" xmlns="http://www.w3.org/2000/svg" xmlns:xlink="http://www.w3.org/1999/xlink">
<g id="graph0" class="graph" transform="scale(1 1) rotate(0) translate(4 258.75)">
<title>scale8_video</title>
<!-- Node1 -->
<g id="Node000001" class="node">
<title>Node1</title>
<g id="a_Node000001"><a xlink:title="The &quot;video&quot; version of scale8() guarantees that the output will be only be zero if one or both of the...">
<polygon fill="#999999" stroke="#666666" points="424,-137.75 344.25,-137.75 344.25,-117 424,-117 424,-137.75"/>
<text text-anchor="middle" x="384.12" y="-124.25" font-family="Helvetica,sans-Serif" font-size="10.00">scale8_video</text>
</a>
</g>
</g>
<!-- Node2 -->
<g id="Node000002" class="node">
<title>Node2</title>
<g id="a_Node000002"><a xlink:href="../../dc/d3e/group___dimming.html#gad21876a676bcf26c47f957faed23f9bb" target="_top" xlink:title="Brighten a value (inverse of dim8_video())">
<polygon fill="white" stroke="#666666" points="305.62,-254.75 210.88,-254.75 210.88,-234 305.62,-234 305.62,-254.75"/>
<text text-anchor="middle" x="258.25" y="-241.25" font-family="Helvetica,sans-Serif" font-size="10.00">brighten8_video</text>
</a>
</g>
</g>
<!-- Node1&#45;&gt;Node2 -->
<g id="edge1_Node000001_Node000002" class="edge">
<title>Node1&#45;&gt;Node2</title>
<g id="a_edge1_Node000001_Node000002"><a xlink:title=" ">
<path fill="none" stroke="#63b8ff" d="M371.68,-148.01C358.77,-169.63 335.91,-203.33 308.25,-224.38 303.57,-227.94 298.17,-230.97 292.7,-233.51"/>
<polygon fill="#63b8ff" stroke="#63b8ff" points="374.62,-149.92 376.59,-139.51 368.56,-146.42 374.62,-149.92"/>
</a>
</g>
</g>
<!-- Node3 -->
<g id="Node000003" class="node">
<title>Node3</title>
<g id="a_Node000003"><a xlink:href="../../d2/d73/group___palette_colors.html#gafdfc20fbf9b8e4b71e010a654ec27891" target="_top" xlink:title="Get a color from a palette.">
<polygon fill="white" stroke="#666666" points="308.25,-215.75 208.25,-215.75 208.25,-195 308.25,-195 308.25,-215.75"/>
<text text-anchor="middle" x="258.25" y="-202.25" font-family="Helvetica,sans-Serif" font-size="10.00">ColorFromPalette</text>
</a>
</g>
</g>
<!-- Node1&#45;&gt;Node3 -->
<g id="edge2_Node000001_Node000003" class="edge">
<title>Node1&#45;&gt;Node3</title>
<g id="a_edge2_Node000001_Node000003"><a xlink:title=" ">
<path fill="none" stroke="#63b8ff" d="M363.05,-145.37C348.55,-157.73 328.11,-173.92 308.25,-185.38 302.36,-188.77 295.78,-191.88 289.4,-194.57"/>
<polygon fill="#63b8ff" stroke="#63b8ff" points="365.26,-148.08 370.51,-138.88 360.67,-142.8 365.26,-148.08"/>
</a>
</g>
</g>
<!-- Node4 -->
<g id="Node000004" class="node">
<title>Node4</title>
<g id="a_Node000004"><a xlink:href="../../d2/d73/group___palette_colors.html#ga79c94ea554455e72eabab172cc15456f" target="_top" xlink:title="Get a color from a palette.">
<polygon fill="white" stroke="#666666" points="308.25,-176.75 208.25,-176.75 208.25,-156 308.25,-156 308.25,-176.75"/>
<text text-anchor="middle" x="258.25" y="-163.25" font-family="Helvetica,sans-Serif" font-size="10.00">ColorFromPalette</text>
</a>
</g>
</g>
<!-- Node1&#45;&gt;Node4 -->
<g id="edge3_Node000001_Node000004" class="edge">
<title>Node1&#45;&gt;Node4</title>
<g id="a_edge3_Node000001_Node000004"><a xlink:title=" ">
<path fill="none" stroke="#63b8ff" d="M337.77,-141.65C323.17,-146.25 307.24,-151.27 293.57,-155.57"/>
<polygon fill="#63b8ff" stroke="#63b8ff" points="338.69,-145.03 347.18,-138.69 336.59,-138.36 338.69,-145.03"/>
</a>
</g>
</g>
<!-- Node5 -->
<g id="Node000005" class="node">
<title>Node5</title>
<g id="a_Node000005"><a xlink:href="../../d2/d73/group___palette_colors.html#ga1684ed7eb860c68a915d03e94250e58a" target="_top" xlink:title="Get a color from a palette.">
<polygon fill="white" stroke="#666666" points="308.25,-137.75 208.25,-137.75 208.25,-117 308.25,-117 308.25,-137.75"/>
<text text-anchor="middle" x="258.25" y="-124.25" font-family="Helvetica,sans-Serif" font-size="10.00">ColorFromPalette</text>
</a>
</g>
</g>
<!-- Node1&#45;&gt;Node5 -->
<g id="edge4_Node000001_Node000005" class="edge">
<title>Node1&#45;&gt;Node5</title>
<g id="a_edge4_Node000001_Node000005"><a xlink:title=" ">
<path fill="none" stroke="#63b8ff" d="M332.6,-127.38C324.69,-127.38 316.53,-127.38 308.65,-127.38"/>
<polygon fill="#63b8ff" stroke="#63b8ff" points="332.42,-130.88 342.42,-127.38 332.42,-123.88 332.42,-130.88"/>
</a>
</g>
</g>
<!-- Node6 -->
<g id="Node000006" class="node">
<title>Node6</title>
<g id="a_Node000006"><a xlink:href="../../dc/d3e/group___dimming.html#ga40a13446a2022dc489be8b2a8f2fa494" target="_top" xlink:title="Adjust a scaling value for dimming for video (value will never go below 1)">
<polygon fill="white" stroke="#666666" points="294.75,-98.75 221.75,-98.75 221.75,-78 294.75,-78 294.75,-98.75"/>
<text text-anchor="middle" x="258.25" y="-85.25" font-family="Helvetica,sans-Serif" font-size="10.00">dim8_video</text>
</a>
</g>
</g>
<!-- Node1&#45;&gt;Node6 -->
<g id="edge5_Node000001_Node000006" class="edge">
<title>Node1&#45;&gt;Node6</title>
<g id="a_edge5_Node000001_Node000006"><a xlink:title=" ">
<path fill="none" stroke="#63b8ff" d="M337.77,-113.1C323.17,-108.5 307.24,-103.48 293.57,-99.18"/>
<polygon fill="#63b8ff" stroke="#63b8ff" points="336.59,-116.39 347.18,-116.06 338.69,-109.72 336.59,-116.39"/>
</a>
</g>
</g>
<!-- Node7 -->
<g id="Node000007" class="node">
<title>Node7</title>
<g id="a_Node000007"><a xlink:href="../../da/de3/group___color_fills.html#gac5c6b83ec07d310385a430f9f0336530" target="_top" xlink:title="Approximates a &quot;black body radiation&quot; spectrum for a given &quot;heat&quot; level.">
<polygon fill="white" stroke="#666666" points="290.62,-59.75 225.88,-59.75 225.88,-39 290.62,-39 290.62,-59.75"/>
<text text-anchor="middle" x="258.25" y="-46.25" font-family="Helvetica,sans-Serif" font-size="10.00">HeatColor</text>
</a>
</g>
</g>
<!-- Node1&#45;&gt;Node7 -->
<g id="edge6_Node000001_Node000007" class="edge">
<title>Node1&#45;&gt;Node7</title>
<g id="a_edge6_Node000001_Node000007"><a xlink:title=" ">
<path fill="none" stroke="#63b8ff" d="M363.05,-109.38C348.55,-97.02 328.11,-80.83 308.25,-69.38 302.36,-65.98 295.78,-62.87 289.4,-60.18"/>
<polygon fill="#63b8ff" stroke="#63b8ff" points="360.67,-111.95 370.51,-115.87 365.26,-106.67 360.67,-111.95"/>
</a>
</g>
</g>
<!-- Node10 -->
<g id="Node000010" class="node">
<title>Node10</title>
<g id="a_Node000010"><a xlink:href="../../df/d9d/hsv2rgb_8cpp.html#a06ee0f21e1bf430ea547244f6ed4add8" target="_top" xlink:title=" ">
<polygon fill="white" stroke="#666666" points="307.88,-20.75 208.62,-20.75 208.62,0 307.88,0 307.88,-20.75"/>
<text text-anchor="middle" x="258.25" y="-7.25" font-family="Helvetica,sans-Serif" font-size="10.00">hsv2rgb_rainbow</text>
</a>
</g>
</g>
<!-- Node1&#45;&gt;Node10 -->
<g id="edge9_Node000001_Node000010" class="edge">
<title>Node1&#45;&gt;Node10</title>
<g id="a_edge9_Node000001_Node000010"><a xlink:title=" ">
<path fill="none" stroke="#63b8ff" d="M371.68,-106.74C358.77,-85.12 335.91,-51.42 308.25,-30.38 303.57,-26.81 298.17,-23.78 292.7,-21.24"/>
<polygon fill="#63b8ff" stroke="#63b8ff" points="368.56,-108.33 376.59,-115.24 374.62,-104.83 368.56,-108.33"/>
</a>
</g>
</g>
<!-- Node8 -->
<g id="Node000008" class="node">
<title>Node8</title>
<g id="a_Node000008"><a xlink:href="../../d4/d26/_fire2012_8ino.html#a381ceb87530dc5fee1be3e77d33b3a53" target="_top" xlink:title=" ">
<polygon fill="white" stroke="#666666" points="151.62,-59.75 93.62,-59.75 93.62,-39 151.62,-39 151.62,-59.75"/>
<text text-anchor="middle" x="122.62" y="-46.25" font-family="Helvetica,sans-Serif" font-size="10.00">Fire2012</text>
</a>
</g>
</g>
<!-- Node7&#45;&gt;Node8 -->
<g id="edge7_Node000007_Node000008" class="edge">
<title>Node7&#45;&gt;Node8</title>
<g id="a_edge7_Node000007_Node000008"><a xlink:title=" ">
<path fill="none" stroke="#63b8ff" d="M214.33,-49.38C193.89,-49.38 170.01,-49.38 151.88,-49.38"/>
<polygon fill="#63b8ff" stroke="#63b8ff" points="214.07,-52.88 224.07,-49.38 214.07,-45.88 214.07,-52.88"/>
</a>
</g>
</g>
<!-- Node9 -->
<g id="Node000009" class="node">
<title>Node9</title>
<g id="a_Node000009"><a xlink:href="../../d4/d26/_fire2012_8ino.html#afe461d27b9c48d5921c00d521181f12f" target="_top" xlink:title=" ">
<polygon fill="white" stroke="#666666" points="37,-59.75 0,-59.75 0,-39 37,-39 37,-59.75"/>
<text text-anchor="middle" x="18.5" y="-46.25" font-family="Helvetica,sans-Serif" font-size="10.00">loop</text>
</a>
</g>
</g>
<!-- Node8&#45;&gt;Node9 -->
<g id="edge8_Node000008_Node000009" class="edge">
<title>Node8&#45;&gt;Node9</title>
<g id="a_edge8_Node000008_Node000009"><a xlink:title=" ">
<path fill="none" stroke="#63b8ff" d="M81.77,-49.38C66.35,-49.38 49.5,-49.38 37.22,-49.38"/>
<polygon fill="#63b8ff" stroke="#63b8ff" points="81.66,-52.88 91.66,-49.38 81.66,-45.88 81.66,-52.88"/>
</a>
</g>
</g>
<!-- Node11 -->
<g id="Node000011" class="node">
<title>Node11</title>
<g id="a_Node000011"><a xlink:href="../../dd/dc7/group___h_s_v2_r_g_b.html#gaf722826b0b5d16450ca3da28382e7eb3" target="_top" xlink:title="Forward declaration of hsv2rgb_rainbow here, to avoid circular dependencies.">
<polygon fill="white" stroke="#666666" points="172.25,-20.75 73,-20.75 73,0 172.25,0 172.25,-20.75"/>
<text text-anchor="middle" x="122.62" y="-7.25" font-family="Helvetica,sans-Serif" font-size="10.00">hsv2rgb_rainbow</text>
</a>
</g>
</g>
<!-- Node10&#45;&gt;Node11 -->
<g id="edge10_Node000010_Node000011" class="edge">
<title>Node10&#45;&gt;Node11</title>
<g id="a_edge10_Node000010_Node000011"><a xlink:title=" ">
<path fill="none" stroke="#63b8ff" d="M196.9,-10.38C188.77,-10.38 180.51,-10.38 172.62,-10.38"/>
<polygon fill="#63b8ff" stroke="#63b8ff" points="196.74,-13.88 206.74,-10.38 196.74,-6.88 196.74,-13.88"/>
</a>
</g>
</g>
</g>
</svg>
