<?xml version="1.0" encoding="UTF-8" standalone="no"?>
<!DOCTYPE svg PUBLIC "-//W3C//DTD SVG 1.1//EN"
 "http://www.w3.org/Graphics/SVG/1.1/DTD/svg11.dtd">
<!-- Generated by graphviz version 12.2.1 (20241206.2353)
 -->
<!-- Title: scale16 Pages: 1 -->
<svg width="569pt" height="380pt"
 viewBox="0.00 0.00 569.25 379.75" xmlns="http://www.w3.org/2000/svg" xmlns:xlink="http://www.w3.org/1999/xlink">
<g id="graph0" class="graph" transform="scale(1 1) rotate(0) translate(4 375.75)">
<title>scale16</title>
<!-- Node1 -->
<g id="Node000001" class="node">
<title>Node1</title>
<g id="a_Node000001"><a xlink:title="Scale a 16&#45;bit unsigned value by an 16&#45;bit value, which is treated as the numerator of a fraction who...">
<polygon fill="#999999" stroke="#666666" points="561.25,-180.75 507.75,-180.75 507.75,-160 561.25,-160 561.25,-180.75"/>
<text text-anchor="middle" x="534.5" y="-167.25" font-family="Helvetica,sans-Serif" font-size="10.00">scale16</text>
</a>
</g>
</g>
<!-- Node2 -->
<g id="Node000002" class="node">
<title>Node2</title>
<g id="a_Node000002"><a xlink:href="../../d6/d6c/group___beat_generators.html#gaa46e5de1c4c27833359e7a97a18c839b" target="_top" xlink:title="Generates a 16&#45;bit sine wave at a given BPM that oscillates within a given range.">
<polygon fill="white" stroke="#666666" points="449.62,-200.75 385.62,-200.75 385.62,-180 449.62,-180 449.62,-200.75"/>
<text text-anchor="middle" x="417.62" y="-187.25" font-family="Helvetica,sans-Serif" font-size="10.00">beatsin16</text>
</a>
</g>
</g>
<!-- Node1&#45;&gt;Node2 -->
<g id="edge1_Node000001_Node000002" class="edge">
<title>Node1&#45;&gt;Node2</title>
<g id="a_edge1_Node000001_Node000002"><a xlink:title=" ">
<path fill="none" stroke="#63b8ff" d="M496.45,-176.83C481.43,-179.44 464.27,-182.43 449.9,-184.93"/>
<polygon fill="#63b8ff" stroke="#63b8ff" points="496.69,-180.34 505.94,-175.17 495.49,-173.44 496.69,-180.34"/>
</a>
</g>
</g>
<!-- Node14 -->
<g id="Node000014" class="node">
<title>Node14</title>
<g id="a_Node000014"><a xlink:href="../../d6/d6c/group___beat_generators.html#gaf917825ff26c8e1174c5b674a2f3c631" target="_top" xlink:title="Generates a 16&#45;bit sine wave at a given BPM that oscillates within a given range.">
<polygon fill="white" stroke="#666666" points="449.62,-329.75 385.62,-329.75 385.62,-309 449.62,-309 449.62,-329.75"/>
<text text-anchor="middle" x="417.62" y="-316.25" font-family="Helvetica,sans-Serif" font-size="10.00">beatsin88</text>
</a>
</g>
</g>
<!-- Node1&#45;&gt;Node14 -->
<g id="edge13_Node000001_Node000014" class="edge">
<title>Node1&#45;&gt;Node14</title>
<g id="a_edge13_Node000001_Node000014"><a xlink:title=" ">
<path fill="none" stroke="#63b8ff" d="M528.72,-191.94C521.29,-220.56 504.34,-270.89 471.75,-300.38 465.65,-305.9 457.83,-309.84 450.08,-312.65"/>
<polygon fill="#63b8ff" stroke="#63b8ff" points="532.03,-193.15 530.98,-182.6 525.22,-191.5 532.03,-193.15"/>
</a>
</g>
</g>
<!-- Node18 -->
<g id="Node000018" class="node">
<title>Node18</title>
<g id="a_Node000018"><a xlink:href="../../d4/dfe/group___easing.html#ga095436838e41397fad4dd50bb81f7ae8" target="_top" xlink:title="16&#45;bit quadratic ease&#45;in / ease&#45;out function.">
<polygon fill="white" stroke="#666666" points="469.12,-161.75 366.12,-161.75 366.12,-141 469.12,-141 469.12,-161.75"/>
<text text-anchor="middle" x="417.62" y="-148.25" font-family="Helvetica,sans-Serif" font-size="10.00">ease16InOutQuad</text>
</a>
</g>
</g>
<!-- Node1&#45;&gt;Node18 -->
<g id="edge19_Node000001_Node000018" class="edge">
<title>Node1&#45;&gt;Node18</title>
<g id="a_edge19_Node000001_Node000018"><a xlink:title=" ">
<path fill="none" stroke="#63b8ff" d="M496.29,-164.22C487.74,-162.81 478.51,-161.28 469.5,-159.79"/>
<polygon fill="#63b8ff" stroke="#63b8ff" points="495.5,-167.64 505.94,-165.82 496.65,-160.73 495.5,-167.64"/>
</a>
</g>
</g>
<!-- Node19 -->
<g id="Node000019" class="node">
<title>Node19</title>
<g id="a_Node000019"><a xlink:href="../../de/da4/group___noise_fill.html#ga8fdd92f7a3a96d6f131300cc79c933f6" target="_top" xlink:title="Fill a 2D 16&#45;bit buffer with noise, using inoise16()">
<polygon fill="white" stroke="#666666" points="471,-104.75 364.25,-104.75 364.25,-84 471,-84 471,-104.75"/>
<text text-anchor="middle" x="417.62" y="-91.25" font-family="Helvetica,sans-Serif" font-size="10.00">fill_raw_2dnoise16</text>
</a>
</g>
</g>
<!-- Node1&#45;&gt;Node19 -->
<g id="edge20_Node000001_Node000019" class="edge">
<title>Node1&#45;&gt;Node19</title>
<g id="a_edge20_Node000001_Node000019"><a xlink:title=" ">
<path fill="none" stroke="#63b8ff" d="M508.01,-153.51C485.66,-138.73 453.86,-117.69 434.83,-105.1"/>
<polygon fill="#63b8ff" stroke="#63b8ff" points="505.99,-156.37 516.26,-158.97 509.86,-150.54 505.99,-156.37"/>
</a>
</g>
</g>
<!-- Node20 -->
<g id="Node000020" class="node">
<title>Node20</title>
<g id="a_Node000020"><a xlink:href="../../d6/d19/group___linear_interpolation.html#gad4b09aba4e188e14d3e71d1c9f77f1a5" target="_top" xlink:title="Linear interpolation between two signed 15&#45;bit values, with 8&#45;bit fraction.">
<polygon fill="white" stroke="#666666" points="453,-65.75 382.25,-65.75 382.25,-45 453,-45 453,-65.75"/>
<text text-anchor="middle" x="417.62" y="-52.25" font-family="Helvetica,sans-Serif" font-size="10.00">lerp15by16</text>
</a>
</g>
</g>
<!-- Node1&#45;&gt;Node20 -->
<g id="edge22_Node000001_Node000020" class="edge">
<title>Node1&#45;&gt;Node20</title>
<g id="a_edge22_Node000001_Node000020"><a xlink:title=" ">
<path fill="none" stroke="#63b8ff" d="M524.66,-149.39C514.69,-128.04 496.57,-95.33 471.75,-75.38 466.37,-71.05 459.97,-67.6 453.49,-64.86"/>
<polygon fill="#63b8ff" stroke="#63b8ff" points="521.36,-150.57 528.63,-158.28 527.75,-147.72 521.36,-150.57"/>
</a>
</g>
</g>
<!-- Node21 -->
<g id="Node000021" class="node">
<title>Node21</title>
<g id="a_Node000021"><a xlink:href="../../d6/d19/group___linear_interpolation.html#ga7c02960d0f26e90054c7312e5f9a55b3" target="_top" xlink:title="Linear interpolation between two unsigned 16&#45;bit values, with 16&#45;bit fraction.">
<polygon fill="white" stroke="#666666" points="453,-24.75 382.25,-24.75 382.25,-4 453,-4 453,-24.75"/>
<text text-anchor="middle" x="417.62" y="-11.25" font-family="Helvetica,sans-Serif" font-size="10.00">lerp16by16</text>
</a>
</g>
</g>
<!-- Node1&#45;&gt;Node21 -->
<g id="edge23_Node000001_Node000021" class="edge">
<title>Node1&#45;&gt;Node21</title>
<g id="a_edge23_Node000001_Node000021"><a xlink:title=" ">
<path fill="none" stroke="#63b8ff" d="M528.79,-148.82C521.39,-119.68 504.39,-67.76 471.75,-36.38 466.57,-31.39 460.1,-27.47 453.48,-24.41"/>
<polygon fill="#63b8ff" stroke="#63b8ff" points="525.33,-149.4 531.05,-158.32 532.14,-147.78 525.33,-149.4"/>
</a>
</g>
</g>
<!-- Node23 -->
<g id="Node000023" class="node">
<title>Node23</title>
<g id="a_Node000023"><a xlink:href="../../d2/db2/classfl_1_1_pacifica.html#ac949d5e9a88b724a060954658b892ebc" target="_top" xlink:title=" ">
<polygon fill="white" stroke="#666666" points="471.75,-291.12 363.5,-291.12 363.5,-257.62 471.75,-257.62 471.75,-291.12"/>
<text text-anchor="start" x="371.5" y="-277.62" font-family="Helvetica,sans-Serif" font-size="10.00">fl::Pacifica::pacifica</text>
<text text-anchor="middle" x="417.62" y="-264.88" font-family="Helvetica,sans-Serif" font-size="10.00">_one_layer</text>
</a>
</g>
</g>
<!-- Node1&#45;&gt;Node23 -->
<g id="edge25_Node000001_Node000023" class="edge">
<title>Node1&#45;&gt;Node23</title>
<g id="a_edge25_Node000001_Node000023"><a xlink:title=" ">
<path fill="none" stroke="#63b8ff" d="M521.04,-190.81C509.83,-207.91 492.02,-232.04 471.75,-248.38 467.75,-251.6 463.29,-254.55 458.7,-257.22"/>
<polygon fill="#63b8ff" stroke="#63b8ff" points="523.92,-192.81 526.33,-182.49 518.01,-189.06 523.92,-192.81"/>
</a>
</g>
</g>
<!-- Node24 -->
<g id="Node000024" class="node">
<title>Node24</title>
<g id="a_Node000024"><a xlink:href="../../dc/d25/_pacifica_8ino.html#a74ff76f68b211ed517ba9110d1084302" target="_top" xlink:title=" ">
<polygon fill="white" stroke="#666666" points="471,-239.75 364.25,-239.75 364.25,-219 471,-219 471,-239.75"/>
<text text-anchor="middle" x="417.62" y="-226.25" font-family="Helvetica,sans-Serif" font-size="10.00">pacifica_one_layer</text>
</a>
</g>
</g>
<!-- Node1&#45;&gt;Node24 -->
<g id="edge27_Node000001_Node000024" class="edge">
<title>Node1&#45;&gt;Node24</title>
<g id="a_edge27_Node000001_Node000024"><a xlink:title=" ">
<path fill="none" stroke="#63b8ff" d="M508.87,-187.55C497.82,-194.83 484.44,-203.06 471.75,-209.38 465.04,-212.71 457.64,-215.83 450.54,-218.56"/>
<polygon fill="#63b8ff" stroke="#63b8ff" points="510.68,-190.55 517.02,-182.07 506.77,-184.75 510.68,-190.55"/>
</a>
</g>
</g>
<!-- Node3 -->
<g id="Node000003" class="node">
<title>Node3</title>
<g id="a_Node000003"><a xlink:href="../../d2/db2/classfl_1_1_pacifica.html#a264d0c1db5db60028b6fab87af13d700" target="_top" xlink:title=" ">
<polygon fill="white" stroke="#666666" points="305.75,-293.75 211,-293.75 211,-273 305.75,-273 305.75,-293.75"/>
<text text-anchor="middle" x="258.38" y="-280.25" font-family="Helvetica,sans-Serif" font-size="10.00">fl::Pacifica::draw</text>
</a>
</g>
</g>
<!-- Node2&#45;&gt;Node3 -->
<g id="edge2_Node000002_Node000003" class="edge">
<title>Node2&#45;&gt;Node3</title>
<g id="a_edge2_Node000002_Node000003"><a xlink:title=" ">
<path fill="none" stroke="#63b8ff" d="M374.91,-203.17C370.86,-205.25 366.97,-207.64 363.5,-210.38 341.13,-227.99 350.51,-246.6 327.5,-263.38 321.12,-268.02 313.68,-271.6 306.1,-274.34"/>
<polygon fill="#63b8ff" stroke="#63b8ff" points="376.06,-206.48 383.78,-199.22 373.22,-200.09 376.06,-206.48"/>
</a>
</g>
</g>
<!-- Node5 -->
<g id="Node000005" class="node">
<title>Node5</title>
<g id="a_Node000005"><a xlink:href="../../d1/d60/classfl_1_1_demo_reel100.html#ad98699eb2a5f15302d2b95e07f2f69d2" target="_top" xlink:title=" ">
<polygon fill="white" stroke="#666666" points="324.88,-215.75 191.88,-215.75 191.88,-195 324.88,-195 324.88,-215.75"/>
<text text-anchor="middle" x="258.38" y="-202.25" font-family="Helvetica,sans-Serif" font-size="10.00">fl::DemoReel100::juggle</text>
</a>
</g>
</g>
<!-- Node2&#45;&gt;Node5 -->
<g id="edge4_Node000002_Node000005" class="edge">
<title>Node2&#45;&gt;Node5</title>
<g id="a_edge4_Node000002_Node000005"><a xlink:title=" ">
<path fill="none" stroke="#63b8ff" d="M374.15,-194.43C359.09,-195.86 341.76,-197.52 325.21,-199.1"/>
<polygon fill="#63b8ff" stroke="#63b8ff" points="374.05,-197.95 383.67,-193.52 373.39,-190.98 374.05,-197.95"/>
</a>
</g>
</g>
<!-- Node6 -->
<g id="Node000006" class="node">
<title>Node6</title>
<g id="a_Node000006"><a xlink:href="../../d5/d25/_demo_reel100_8ino.html#a4cf4b428065fac16dc28a16e2f9004e1" target="_top" xlink:title=" ">
<polygon fill="white" stroke="#666666" points="281.38,-176.75 235.38,-176.75 235.38,-156 281.38,-156 281.38,-176.75"/>
<text text-anchor="middle" x="258.38" y="-163.25" font-family="Helvetica,sans-Serif" font-size="10.00">juggle</text>
</a>
</g>
</g>
<!-- Node2&#45;&gt;Node6 -->
<g id="edge5_Node000002_Node000006" class="edge">
<title>Node2&#45;&gt;Node6</title>
<g id="a_edge5_Node000002_Node000006"><a xlink:title=" ">
<path fill="none" stroke="#63b8ff" d="M373.83,-183.84C344.04,-179.3 305.52,-173.42 281.64,-169.77"/>
<polygon fill="#63b8ff" stroke="#63b8ff" points="373.27,-187.3 383.68,-185.35 374.33,-180.38 373.27,-187.3"/>
</a>
</g>
</g>
<!-- Node9 -->
<g id="Node000009" class="node">
<title>Node9</title>
<g id="a_Node000009"><a xlink:href="../../dd/d61/_fx_water_8ino.html#afe461d27b9c48d5921c00d521181f12f" target="_top" xlink:title=" ">
<polygon fill="white" stroke="#666666" points="276.88,-98.75 239.88,-98.75 239.88,-78 276.88,-78 276.88,-98.75"/>
<text text-anchor="middle" x="258.38" y="-85.25" font-family="Helvetica,sans-Serif" font-size="10.00">loop</text>
</a>
</g>
</g>
<!-- Node2&#45;&gt;Node9 -->
<g id="edge7_Node000002_Node000009" class="edge">
<title>Node2&#45;&gt;Node9</title>
<g id="a_edge7_Node000002_Node000009"><a xlink:title=" ">
<path fill="none" stroke="#63b8ff" d="M374.85,-177.91C370.79,-175.76 366.91,-173.26 363.5,-170.38 339.18,-149.79 352.57,-128.04 327.5,-108.38 312.95,-96.96 292.06,-92.06 277.26,-89.95"/>
<polygon fill="#63b8ff" stroke="#63b8ff" points="373.25,-181.02 383.81,-181.94 376.12,-174.64 373.25,-181.02"/>
</a>
</g>
</g>
<!-- Node10 -->
<g id="Node000010" class="node">
<title>Node10</title>
<g id="a_Node000010"><a xlink:href="../../dc/d25/_pacifica_8ino.html#a158d427a947ef0a715c7ffd916346acc" target="_top" xlink:title=" ">
<polygon fill="white" stroke="#666666" points="298.25,-254.75 218.5,-254.75 218.5,-234 298.25,-234 298.25,-254.75"/>
<text text-anchor="middle" x="258.38" y="-241.25" font-family="Helvetica,sans-Serif" font-size="10.00">pacifica_loop</text>
</a>
</g>
</g>
<!-- Node2&#45;&gt;Node10 -->
<g id="edge8_Node000002_Node000010" class="edge">
<title>Node2&#45;&gt;Node10</title>
<g id="a_edge8_Node000002_Node000010"><a xlink:title=" ">
<path fill="none" stroke="#63b8ff" d="M377.1,-205.2C372.51,-206.94 367.9,-208.69 363.5,-210.38 347.47,-216.51 343.75,-218.84 327.5,-224.38 318.17,-227.55 308.01,-230.7 298.46,-233.52"/>
<polygon fill="#63b8ff" stroke="#63b8ff" points="378.12,-208.56 386.24,-201.75 375.65,-202.01 378.12,-208.56"/>
</a>
</g>
</g>
<!-- Node12 -->
<g id="Node000012" class="node">
<title>Node12</title>
<g id="a_Node000012"><a xlink:href="../../d1/d60/classfl_1_1_demo_reel100.html#a3ff4d3fc05b6e3a158d49d65cd954e1d" target="_top" xlink:title=" ">
<polygon fill="white" stroke="#666666" points="327.5,-59.75 189.25,-59.75 189.25,-39 327.5,-39 327.5,-59.75"/>
<text text-anchor="middle" x="258.38" y="-46.25" font-family="Helvetica,sans-Serif" font-size="10.00">fl::DemoReel100::sinelon</text>
</a>
</g>
</g>
<!-- Node2&#45;&gt;Node12 -->
<g id="edge10_Node000002_Node000012" class="edge">
<title>Node2&#45;&gt;Node12</title>
<g id="a_edge10_Node000002_Node000012"><a xlink:title=" ">
<path fill="none" stroke="#63b8ff" d="M375.07,-178.96C370.82,-176.61 366.84,-173.78 363.5,-170.38 330.1,-136.38 362.14,-102.1 327.5,-69.38 323.56,-65.65 318.96,-62.62 314.04,-60.14"/>
<polygon fill="#63b8ff" stroke="#63b8ff" points="373.39,-182.04 383.94,-183 376.29,-175.67 373.39,-182.04"/>
</a>
</g>
</g>
<!-- Node13 -->
<g id="Node000013" class="node">
<title>Node13</title>
<g id="a_Node000013"><a xlink:href="../../d5/d25/_demo_reel100_8ino.html#ae67f05643df1798b39ca5b88496dcebf" target="_top" xlink:title=" ">
<polygon fill="white" stroke="#666666" points="284,-137.75 232.75,-137.75 232.75,-117 284,-117 284,-137.75"/>
<text text-anchor="middle" x="258.38" y="-124.25" font-family="Helvetica,sans-Serif" font-size="10.00">sinelon</text>
</a>
</g>
</g>
<!-- Node2&#45;&gt;Node13 -->
<g id="edge11_Node000002_Node000013" class="edge">
<title>Node2&#45;&gt;Node13</title>
<g id="a_edge11_Node000002_Node000013"><a xlink:title=" ">
<path fill="none" stroke="#63b8ff" d="M374.92,-175.63C371.01,-173.96 367.15,-172.2 363.5,-170.38 346.52,-161.87 344.78,-155.24 327.5,-147.38 313.7,-141.1 297.43,-136.23 284.26,-132.88"/>
<polygon fill="#63b8ff" stroke="#63b8ff" points="373.27,-178.74 383.86,-179.24 375.89,-172.25 373.27,-178.74"/>
</a>
</g>
</g>
<!-- Node4 -->
<g id="Node000004" class="node">
<title>Node4</title>
<g id="a_Node000004"><a xlink:href="../../dc/ded/_fx_pacifica_8ino.html#afe461d27b9c48d5921c00d521181f12f" target="_top" xlink:title=" ">
<polygon fill="white" stroke="#666666" points="95.12,-293.75 58.12,-293.75 58.12,-273 95.12,-273 95.12,-293.75"/>
<text text-anchor="middle" x="76.62" y="-280.25" font-family="Helvetica,sans-Serif" font-size="10.00">loop</text>
</a>
</g>
</g>
<!-- Node3&#45;&gt;Node4 -->
<g id="edge3_Node000003_Node000004" class="edge">
<title>Node3&#45;&gt;Node4</title>
<g id="a_edge3_Node000003_Node000004"><a xlink:title=" ">
<path fill="none" stroke="#63b8ff" d="M199.24,-283.38C163.25,-283.38 119.47,-283.38 95.48,-283.38"/>
<polygon fill="#63b8ff" stroke="#63b8ff" points="199.1,-286.88 209.1,-283.38 199.1,-279.88 199.1,-286.88"/>
</a>
</g>
</g>
<!-- Node7 -->
<g id="Node000007" class="node">
<title>Node7</title>
<g id="a_Node000007"><a xlink:href="../../d1/d60/classfl_1_1_demo_reel100.html#aad4b41d93c1a9f7acecea8b49cda7078" target="_top" xlink:title=" ">
<polygon fill="#fff0f0" stroke="red" points="153.25,-157.75 0,-157.75 0,-137 153.25,-137 153.25,-157.75"/>
<text text-anchor="middle" x="76.62" y="-144.25" font-family="Helvetica,sans-Serif" font-size="10.00">fl::DemoReel100::runPattern</text>
</a>
</g>
</g>
<!-- Node6&#45;&gt;Node7 -->
<g id="edge6_Node000006_Node000007" class="edge">
<title>Node6&#45;&gt;Node7</title>
<g id="a_edge6_Node000006_Node000007"><a xlink:title=" ">
<path fill="none" stroke="#63b8ff" d="M223.76,-162.82C203.91,-160.72 177.93,-157.98 153.39,-155.38"/>
<polygon fill="#63b8ff" stroke="#63b8ff" points="223.16,-166.28 233.47,-163.85 223.89,-159.32 223.16,-166.28"/>
</a>
</g>
</g>
<!-- Node11 -->
<g id="Node000011" class="node">
<title>Node11</title>
<g id="a_Node000011"><a xlink:href="../../dc/d25/_pacifica_8ino.html#afe461d27b9c48d5921c00d521181f12f" target="_top" xlink:title=" ">
<polygon fill="white" stroke="#666666" points="95.12,-254.75 58.12,-254.75 58.12,-234 95.12,-234 95.12,-254.75"/>
<text text-anchor="middle" x="76.62" y="-241.25" font-family="Helvetica,sans-Serif" font-size="10.00">loop</text>
</a>
</g>
</g>
<!-- Node10&#45;&gt;Node11 -->
<g id="edge9_Node000010_Node000011" class="edge">
<title>Node10&#45;&gt;Node11</title>
<g id="a_edge9_Node000010_Node000011"><a xlink:title=" ">
<path fill="none" stroke="#63b8ff" d="M207.18,-244.38C169.82,-244.38 121.02,-244.38 95.28,-244.38"/>
<polygon fill="#63b8ff" stroke="#63b8ff" points="206.86,-247.88 216.86,-244.38 206.86,-240.88 206.86,-247.88"/>
</a>
</g>
</g>
<!-- Node13&#45;&gt;Node7 -->
<g id="edge12_Node000013_Node000007" class="edge">
<title>Node13&#45;&gt;Node7</title>
<g id="a_edge12_Node000013_Node000007"><a xlink:title=" ">
<path fill="none" stroke="#63b8ff" d="M221.04,-131.42C201.66,-133.57 177.04,-136.31 153.69,-138.91"/>
<polygon fill="#63b8ff" stroke="#63b8ff" points="221.33,-134.91 230.88,-130.32 220.55,-127.95 221.33,-134.91"/>
</a>
</g>
</g>
<!-- Node14&#45;&gt;Node3 -->
<g id="edge14_Node000014_Node000003" class="edge">
<title>Node14&#45;&gt;Node3</title>
<g id="a_edge14_Node000014_Node000003"><a xlink:title=" ">
<path fill="none" stroke="#63b8ff" d="M374,-309.62C352.96,-304.8 327.53,-298.98 305.98,-294.04"/>
<polygon fill="#63b8ff" stroke="#63b8ff" points="373.18,-313.02 383.71,-311.84 374.74,-306.2 373.18,-313.02"/>
</a>
</g>
</g>
<!-- Node14&#45;&gt;Node10 -->
<g id="edge17_Node000014_Node000010" class="edge">
<title>Node14&#45;&gt;Node10</title>
<g id="a_edge17_Node000014_Node000010"><a xlink:title=" ">
<path fill="none" stroke="#63b8ff" d="M374.75,-306.42C370.83,-304.61 367.02,-302.6 363.5,-300.38 344.38,-288.27 346.96,-275.92 327.5,-264.38 318.7,-259.15 308.45,-255.22 298.61,-252.28"/>
<polygon fill="#63b8ff" stroke="#63b8ff" points="373.23,-309.58 383.81,-310.15 375.89,-303.11 373.23,-309.58"/>
</a>
</g>
</g>
<!-- Node15 -->
<g id="Node000015" class="node">
<title>Node15</title>
<g id="a_Node000015"><a xlink:href="../../df/d11/classfl_1_1_pride2015.html#a331b131b082d622bbd9208bf05308d0d" target="_top" xlink:title=" ">
<polygon fill="white" stroke="#666666" points="311.75,-371.75 205,-371.75 205,-351 311.75,-351 311.75,-371.75"/>
<text text-anchor="middle" x="258.38" y="-358.25" font-family="Helvetica,sans-Serif" font-size="10.00">fl::Pride2015::draw</text>
</a>
</g>
</g>
<!-- Node14&#45;&gt;Node15 -->
<g id="edge15_Node000014_Node000015" class="edge">
<title>Node14&#45;&gt;Node15</title>
<g id="a_edge15_Node000014_Node000015"><a xlink:title=" ">
<path fill="none" stroke="#63b8ff" d="M374.33,-330.67C351.26,-336.83 322.84,-344.42 300.03,-350.52"/>
<polygon fill="#63b8ff" stroke="#63b8ff" points="374.96,-334.13 383.72,-328.16 373.15,-327.36 374.96,-334.13"/>
</a>
</g>
</g>
<!-- Node17 -->
<g id="Node000017" class="node">
<title>Node17</title>
<g id="a_Node000017"><a xlink:href="../../d0/dce/_pride2015_8ino.html#a6e24bc1de16730062b4d4be6ad4f8e3b" target="_top" xlink:title=" ">
<polygon fill="white" stroke="#666666" points="278.75,-332.75 238,-332.75 238,-312 278.75,-312 278.75,-332.75"/>
<text text-anchor="middle" x="258.38" y="-319.25" font-family="Helvetica,sans-Serif" font-size="10.00">pride</text>
</a>
</g>
</g>
<!-- Node14&#45;&gt;Node17 -->
<g id="edge18_Node000014_Node000017" class="edge">
<title>Node14&#45;&gt;Node17</title>
<g id="a_edge18_Node000014_Node000017"><a xlink:title=" ">
<path fill="none" stroke="#63b8ff" d="M373.83,-320.19C342.85,-320.78 302.44,-321.55 278.86,-322"/>
<polygon fill="#63b8ff" stroke="#63b8ff" points="373.74,-323.69 383.67,-320 373.6,-316.7 373.74,-323.69"/>
</a>
</g>
</g>
<!-- Node16 -->
<g id="Node000016" class="node">
<title>Node16</title>
<g id="a_Node000016"><a xlink:href="../../d2/db0/_fx_pride2015_8ino.html#afe461d27b9c48d5921c00d521181f12f" target="_top" xlink:title=" ">
<polygon fill="white" stroke="#666666" points="95.12,-371.75 58.12,-371.75 58.12,-351 95.12,-351 95.12,-371.75"/>
<text text-anchor="middle" x="76.62" y="-358.25" font-family="Helvetica,sans-Serif" font-size="10.00">loop</text>
</a>
</g>
</g>
<!-- Node15&#45;&gt;Node16 -->
<g id="edge16_Node000015_Node000016" class="edge">
<title>Node15&#45;&gt;Node16</title>
<g id="a_edge16_Node000015_Node000016"><a xlink:title=" ">
<path fill="none" stroke="#63b8ff" d="M193.83,-361.38C159.01,-361.38 118.42,-361.38 95.6,-361.38"/>
<polygon fill="#63b8ff" stroke="#63b8ff" points="193.39,-364.88 203.39,-361.38 193.39,-357.88 193.39,-364.88"/>
</a>
</g>
</g>
<!-- Node19&#45;&gt;Node19 -->
<g id="edge21_Node000019_Node000019" class="edge">
<title>Node19&#45;&gt;Node19</title>
<g id="a_edge21_Node000019_Node000019"><a xlink:title=" ">
<path fill="none" stroke="#63b8ff" d="M437.95,-116.56C435.07,-120.23 428.3,-122.75 417.62,-122.75 397.54,-122.75 391.26,-113.81 398.79,-105.15"/>
<polygon fill="#63b8ff" stroke="#63b8ff" points="441.42,-116.11 436.65,-106.65 434.48,-117.02 441.42,-116.11"/>
</a>
</g>
</g>
<!-- Node22 -->
<g id="Node000022" class="node">
<title>Node22</title>
<g id="a_Node000022"><a xlink:href="../../db/d87/group___pixel_types.html#a50b3dca085a99aa549c19ef0aabe3c5c" target="_top" xlink:title="Return a new CRGB object after performing a linear interpolation between this object and the passed i...">
<polygon fill="white" stroke="#666666" points="298.62,-20.75 218.12,-20.75 218.12,0 298.62,0 298.62,-20.75"/>
<text text-anchor="middle" x="258.38" y="-7.25" font-family="Helvetica,sans-Serif" font-size="10.00">CRGB::lerp16</text>
</a>
</g>
</g>
<!-- Node21&#45;&gt;Node22 -->
<g id="edge24_Node000021_Node000022" class="edge">
<title>Node21&#45;&gt;Node22</title>
<g id="a_edge24_Node000021_Node000022"><a xlink:title=" ">
<path fill="none" stroke="#63b8ff" d="M370.7,-13.21C347.99,-12.63 320.87,-11.94 299.07,-11.38"/>
<polygon fill="#63b8ff" stroke="#63b8ff" points="370.52,-16.7 380.6,-13.46 370.7,-9.71 370.52,-16.7"/>
</a>
</g>
</g>
<!-- Node23&#45;&gt;Node3 -->
<g id="edge26_Node000023_Node000003" class="edge">
<title>Node23&#45;&gt;Node3</title>
<g id="a_edge26_Node000023_Node000003"><a xlink:title=" ">
<path fill="none" stroke="#63b8ff" d="M352.32,-278.06C336.89,-278.94 320.7,-279.87 306.24,-280.69"/>
<polygon fill="#63b8ff" stroke="#63b8ff" points="352.09,-281.57 361.88,-277.51 351.69,-274.59 352.09,-281.57"/>
</a>
</g>
</g>
<!-- Node24&#45;&gt;Node10 -->
<g id="edge28_Node000024_Node000010" class="edge">
<title>Node24&#45;&gt;Node10</title>
<g id="a_edge28_Node000024_Node000010"><a xlink:title=" ">
<path fill="none" stroke="#63b8ff" d="M352.57,-235.49C334.2,-237.24 314.73,-239.1 298.36,-240.66"/>
<polygon fill="#63b8ff" stroke="#63b8ff" points="352.7,-238.99 362.32,-234.56 352.03,-232.02 352.7,-238.99"/>
</a>
</g>
</g>
</g>
</svg>
