<?xml version="1.0" encoding="UTF-8" standalone="no"?>
<!DOCTYPE svg PUBLIC "-//W3C//DTD SVG 1.1//EN"
 "http://www.w3.org/Graphics/SVG/1.1/DTD/svg11.dtd">
<!-- Generated by graphviz version 12.2.1 (20241206.2353)
 -->
<!-- Title: nscale8x3_video Pages: 1 -->
<svg width="638pt" height="197pt"
 viewBox="0.00 0.00 637.50 196.75" xmlns="http://www.w3.org/2000/svg" xmlns:xlink="http://www.w3.org/1999/xlink">
<g id="graph0" class="graph" transform="scale(1 1) rotate(0) translate(4 192.75)">
<title>nscale8x3_video</title>
<!-- Node1 -->
<g id="Node000001" class="node">
<title>Node1</title>
<g id="a_Node000001"><a xlink:title="Scale three one&#45;byte values by a fourth one, which is treated as the numerator of a fraction whose de...">
<polygon fill="#999999" stroke="#666666" points="629.5,-123.75 531.75,-123.75 531.75,-103 629.5,-103 629.5,-123.75"/>
<text text-anchor="middle" x="580.62" y="-110.25" font-family="Helvetica,sans-Serif" font-size="10.00">nscale8x3_video</text>
</a>
</g>
</g>
<!-- Node2 -->
<g id="Node000002" class="node">
<title>Node2</title>
<g id="a_Node000002"><a xlink:href="../../d2/d73/group___palette_colors.html#ga59c2f3e8a12b9eef789c37ae4d5f0182" target="_top" xlink:title="Same as ColorFromPalette, but higher precision.">
<polygon fill="white" stroke="#666666" points="495.75,-182.75 350,-182.75 350,-162 495.75,-162 495.75,-182.75"/>
<text text-anchor="middle" x="422.88" y="-169.25" font-family="Helvetica,sans-Serif" font-size="10.00">ColorFromPaletteExtended</text>
</a>
</g>
</g>
<!-- Node1&#45;&gt;Node2 -->
<g id="edge1_Node000001_Node000002" class="edge">
<title>Node1&#45;&gt;Node2</title>
<g id="a_edge1_Node000001_Node000002"><a xlink:title=" ">
<path fill="none" stroke="#63b8ff" d="M548.85,-129.16C533.21,-136.81 513.75,-145.74 495.75,-152.38 486.64,-155.74 476.69,-158.84 467.19,-161.56"/>
<polygon fill="#63b8ff" stroke="#63b8ff" points="550.25,-132.38 557.65,-124.8 547.13,-126.11 550.25,-132.38"/>
</a>
</g>
</g>
<!-- Node3 -->
<g id="Node000003" class="node">
<title>Node3</title>
<g id="a_Node000003"><a xlink:href="../../db/d87/group___pixel_types.html#a3b098899b112c2c9a7ad7490992e0d84" target="_top" xlink:title="fadeLightBy is a synonym for nscale8_video(), as a fade instead of a scale">
<polygon fill="white" stroke="#666666" points="477,-143.75 368.75,-143.75 368.75,-123 477,-123 477,-143.75"/>
<text text-anchor="middle" x="422.88" y="-130.25" font-family="Helvetica,sans-Serif" font-size="10.00">CRGB::fadeLightBy</text>
</a>
</g>
</g>
<!-- Node1&#45;&gt;Node3 -->
<g id="edge2_Node000001_Node000003" class="edge">
<title>Node1&#45;&gt;Node3</title>
<g id="a_edge2_Node000001_Node000003"><a xlink:title=" ">
<path fill="none" stroke="#63b8ff" d="M520.5,-120.97C506.34,-122.79 491.31,-124.72 477.42,-126.5"/>
<polygon fill="#63b8ff" stroke="#63b8ff" points="520.65,-124.48 530.12,-119.73 519.76,-117.53 520.65,-124.48"/>
</a>
</g>
</g>
<!-- Node4 -->
<g id="Node000004" class="node">
<title>Node4</title>
<g id="a_Node000004"><a xlink:href="../../db/d87/group___pixel_types.html#a0441d6094ab8f98d800ec789c36b4461" target="_top" xlink:title="Scale down a RGB to N/256ths of it&#39;s current brightness using &quot;video&quot; dimming rules.">
<polygon fill="white" stroke="#666666" points="482.62,-104.75 363.12,-104.75 363.12,-84 482.62,-84 482.62,-104.75"/>
<text text-anchor="middle" x="422.88" y="-91.25" font-family="Helvetica,sans-Serif" font-size="10.00">CRGB::nscale8_video</text>
</a>
</g>
</g>
<!-- Node1&#45;&gt;Node4 -->
<g id="edge3_Node000001_Node000004" class="edge">
<title>Node1&#45;&gt;Node4</title>
<g id="a_edge3_Node000001_Node000004"><a xlink:title=" ">
<path fill="none" stroke="#63b8ff" d="M520.55,-106.17C508.25,-104.67 495.28,-103.09 482.98,-101.58"/>
<polygon fill="#63b8ff" stroke="#63b8ff" points="519.77,-109.6 530.12,-107.34 520.62,-102.65 519.77,-109.6"/>
</a>
</g>
</g>
<!-- Node15 -->
<g id="Node000015" class="node">
<title>Node15</title>
<g id="a_Node000015"><a xlink:href="../../db/d87/group___pixel_types.html#ac7a79509725b4d54f710e757a15f2a97" target="_top" xlink:title="%= is a synonym for nscale8_video().">
<polygon fill="white" stroke="#666666" points="477.38,-65.75 368.38,-65.75 368.38,-45 477.38,-45 477.38,-65.75"/>
<text text-anchor="middle" x="422.88" y="-52.25" font-family="Helvetica,sans-Serif" font-size="10.00">CRGB::operator%=</text>
</a>
</g>
</g>
<!-- Node1&#45;&gt;Node15 -->
<g id="edge13_Node000001_Node000015" class="edge">
<title>Node1&#45;&gt;Node15</title>
<g id="a_edge13_Node000001_Node000015"><a xlink:title=" ">
<path fill="none" stroke="#63b8ff" d="M548.17,-97.73C532.63,-90.36 513.45,-81.8 495.75,-75.38 486.5,-72.01 476.4,-68.89 466.78,-66.15"/>
<polygon fill="#63b8ff" stroke="#63b8ff" points="546.39,-100.76 556.92,-101.94 549.43,-94.45 546.39,-100.76"/>
</a>
</g>
</g>
<!-- Node5 -->
<g id="Node000005" class="node">
<title>Node5</title>
<g id="a_Node000005"><a xlink:href="../../de/db5/classfl_1_1_twinkle_fox.html#a67375829d0da55e17d3f74ac9817914d" target="_top" xlink:title=" ">
<polygon fill="white" stroke="#666666" points="314,-188.75 148,-188.75 148,-168 314,-168 314,-188.75"/>
<text text-anchor="middle" x="231" y="-175.25" font-family="Helvetica,sans-Serif" font-size="10.00">fl::TwinkleFox::drawTwinkleFox</text>
</a>
</g>
</g>
<!-- Node4&#45;&gt;Node5 -->
<g id="edge4_Node000004_Node000005" class="edge">
<title>Node4&#45;&gt;Node5</title>
<g id="a_edge4_Node000004_Node000005"><a xlink:title=" ">
<path fill="none" stroke="#63b8ff" d="M358.04,-109.77C355.25,-111.18 352.56,-112.71 350,-114.38 328.84,-128.18 335.38,-144.91 314,-158.38 308.05,-162.12 301.45,-165.17 294.65,-167.65"/>
<polygon fill="#63b8ff" stroke="#63b8ff" points="359.29,-113.04 367.05,-105.83 356.49,-106.63 359.29,-113.04"/>
</a>
</g>
</g>
<!-- Node8 -->
<g id="Node000008" class="node">
<title>Node8</title>
<g id="a_Node000008"><a xlink:href="../../d4/dd0/_twinkle_fox_8ino.html#a6d0a3407d4b43c23c7bdd4aac9fc76fd" target="_top" xlink:title=" ">
<polygon fill="white" stroke="#666666" points="272,-149.75 190,-149.75 190,-129 272,-129 272,-149.75"/>
<text text-anchor="middle" x="231" y="-136.25" font-family="Helvetica,sans-Serif" font-size="10.00">drawTwinkles</text>
</a>
</g>
</g>
<!-- Node4&#45;&gt;Node8 -->
<g id="edge6_Node000004_Node000008" class="edge">
<title>Node4&#45;&gt;Node8</title>
<g id="a_edge6_Node000004_Node000008"><a xlink:title=" ">
<path fill="none" stroke="#63b8ff" d="M366.49,-107.82C349.65,-111.89 331.07,-116.34 314,-120.38 300.49,-123.57 285.71,-127.01 272.47,-130.07"/>
<polygon fill="#63b8ff" stroke="#63b8ff" points="366.91,-111.32 375.81,-105.57 365.27,-104.52 366.91,-111.32"/>
</a>
</g>
</g>
<!-- Node10 -->
<g id="Node000010" class="node">
<title>Node10</title>
<g id="a_Node000010"><a xlink:href="../../d2/d73/group___palette_colors.html#gaf34a692bbec05b697dc9c06d8bb0f74f" target="_top" xlink:title="Maps an array of palette color indexes into an array of LED colors.">
<polygon fill="white" stroke="#666666" points="292.62,-111.12 169.38,-111.12 169.38,-77.62 292.62,-77.62 292.62,-111.12"/>
<text text-anchor="start" x="177.38" y="-97.62" font-family="Helvetica,sans-Serif" font-size="10.00">map_data_into_colors</text>
<text text-anchor="middle" x="231" y="-84.88" font-family="Helvetica,sans-Serif" font-size="10.00">_through_palette</text>
</a>
</g>
</g>
<!-- Node4&#45;&gt;Node10 -->
<g id="edge8_Node000004_Node000010" class="edge">
<title>Node4&#45;&gt;Node10</title>
<g id="a_edge8_Node000004_Node000010"><a xlink:title=" ">
<path fill="none" stroke="#63b8ff" d="M351.42,-94.38C332.22,-94.38 311.59,-94.38 292.97,-94.38"/>
<polygon fill="#63b8ff" stroke="#63b8ff" points="351.32,-97.88 361.32,-94.38 351.32,-90.88 351.32,-97.88"/>
</a>
</g>
</g>
<!-- Node11 -->
<g id="Node000011" class="node">
<title>Node11</title>
<g id="a_Node000011"><a xlink:href="../../d3/d1c/group___color_fades.html#ga956be37436f2b9c06c99d24263ef8e83" target="_top" xlink:title="Scale the brightness of an array of pixels all at once.">
<polygon fill="white" stroke="#666666" points="273.88,-59.75 188.12,-59.75 188.12,-39 273.88,-39 273.88,-59.75"/>
<text text-anchor="middle" x="231" y="-46.25" font-family="Helvetica,sans-Serif" font-size="10.00">nscale8_video</text>
</a>
</g>
</g>
<!-- Node4&#45;&gt;Node11 -->
<g id="edge9_Node000004_Node000011" class="edge">
<title>Node4&#45;&gt;Node11</title>
<g id="a_edge9_Node000004_Node000011"><a xlink:title=" ">
<path fill="none" stroke="#63b8ff" d="M366.49,-80.93C349.65,-76.86 331.07,-72.41 314,-68.38 301.06,-65.32 286.96,-62.03 274.15,-59.07"/>
<polygon fill="#63b8ff" stroke="#63b8ff" points="365.27,-84.23 375.81,-83.18 366.91,-77.43 365.27,-84.23"/>
</a>
</g>
</g>
<!-- Node14 -->
<g id="Node000014" class="node">
<title>Node14</title>
<g id="a_Node000014"><a xlink:href="../../db/d87/group___pixel_types.html#ga3dab64b7dfff8c31e3ec8c3c20eec465" target="_top" xlink:title="Scale using CRGB::nscale8_video()">
<polygon fill="white" stroke="#666666" points="264.5,-20.75 197.5,-20.75 197.5,0 264.5,0 264.5,-20.75"/>
<text text-anchor="middle" x="231" y="-7.25" font-family="Helvetica,sans-Serif" font-size="10.00">operator%</text>
</a>
</g>
</g>
<!-- Node4&#45;&gt;Node14 -->
<g id="edge12_Node000004_Node000014" class="edge">
<title>Node4&#45;&gt;Node14</title>
<g id="a_edge12_Node000004_Node000014"><a xlink:title=" ">
<path fill="none" stroke="#63b8ff" d="M358.04,-78.98C355.25,-77.57 352.56,-76.04 350,-74.38 328.84,-60.57 335.38,-43.84 314,-30.38 299.25,-21.08 280.49,-16.11 264.64,-13.44"/>
<polygon fill="#63b8ff" stroke="#63b8ff" points="356.49,-82.12 367.05,-82.92 359.29,-75.71 356.49,-82.12"/>
</a>
</g>
</g>
<!-- Node6 -->
<g id="Node000006" class="node">
<title>Node6</title>
<g id="a_Node000006"><a xlink:href="../../de/db5/classfl_1_1_twinkle_fox.html#ab5d3d43b11bed65afbd407071ee85eb8" target="_top" xlink:title=" ">
<polygon fill="#fff0f0" stroke="red" points="112,-188.75 0,-188.75 0,-168 112,-168 112,-188.75"/>
<text text-anchor="middle" x="56" y="-175.25" font-family="Helvetica,sans-Serif" font-size="10.00">fl::TwinkleFox::draw</text>
</a>
</g>
</g>
<!-- Node5&#45;&gt;Node6 -->
<g id="edge5_Node000005_Node000006" class="edge">
<title>Node5&#45;&gt;Node6</title>
<g id="a_edge5_Node000005_Node000006"><a xlink:title=" ">
<path fill="none" stroke="#63b8ff" d="M136.29,-178.38C128.05,-178.38 119.9,-178.38 112.14,-178.38"/>
<polygon fill="#63b8ff" stroke="#63b8ff" points="136.04,-181.88 146.04,-178.38 136.04,-174.88 136.04,-181.88"/>
</a>
</g>
</g>
<!-- Node9 -->
<g id="Node000009" class="node">
<title>Node9</title>
<g id="a_Node000009"><a xlink:href="../../d4/dd0/_twinkle_fox_8ino.html#afe461d27b9c48d5921c00d521181f12f" target="_top" xlink:title=" ">
<polygon fill="white" stroke="#666666" points="74.5,-149.75 37.5,-149.75 37.5,-129 74.5,-129 74.5,-149.75"/>
<text text-anchor="middle" x="56" y="-136.25" font-family="Helvetica,sans-Serif" font-size="10.00">loop</text>
</a>
</g>
</g>
<!-- Node8&#45;&gt;Node9 -->
<g id="edge7_Node000008_Node000009" class="edge">
<title>Node8&#45;&gt;Node9</title>
<g id="a_edge7_Node000008_Node000009"><a xlink:title=" ">
<path fill="none" stroke="#63b8ff" d="M178.37,-139.38C143.27,-139.38 98.98,-139.38 74.78,-139.38"/>
<polygon fill="#63b8ff" stroke="#63b8ff" points="178.36,-142.88 188.36,-139.38 178.36,-135.88 178.36,-142.88"/>
</a>
</g>
</g>
<!-- Node12 -->
<g id="Node000012" class="node">
<title>Node12</title>
<g id="a_Node000012"><a xlink:href="../../d3/d1c/group___color_fades.html#gaff656b0046fac0d40b8eb02941ce1755" target="_top" xlink:title="Reduce the brightness of an array of pixels all at once.">
<polygon fill="white" stroke="#666666" points="91,-78.75 21,-78.75 21,-58 91,-58 91,-78.75"/>
<text text-anchor="middle" x="56" y="-65.25" font-family="Helvetica,sans-Serif" font-size="10.00">fade_video</text>
</a>
</g>
</g>
<!-- Node11&#45;&gt;Node12 -->
<g id="edge10_Node000011_Node000012" class="edge">
<title>Node11&#45;&gt;Node12</title>
<g id="a_edge10_Node000011_Node000012"><a xlink:title=" ">
<path fill="none" stroke="#63b8ff" d="M176.54,-55.25C148.78,-58.3 115.67,-61.93 91.34,-64.6"/>
<polygon fill="#63b8ff" stroke="#63b8ff" points="176.62,-58.76 186.17,-54.19 175.85,-51.8 176.62,-58.76"/>
</a>
</g>
</g>
<!-- Node13 -->
<g id="Node000013" class="node">
<title>Node13</title>
<g id="a_Node000013"><a xlink:href="../../d3/d1c/group___color_fades.html#gac1e25878d16efa6112d907738f525773" target="_top" xlink:title="Reduce the brightness of an array of pixels all at once.">
<polygon fill="white" stroke="#666666" points="93.25,-39.75 18.75,-39.75 18.75,-19 93.25,-19 93.25,-39.75"/>
<text text-anchor="middle" x="56" y="-26.25" font-family="Helvetica,sans-Serif" font-size="10.00">fadeLightBy</text>
</a>
</g>
</g>
<!-- Node11&#45;&gt;Node13 -->
<g id="edge11_Node000011_Node000013" class="edge">
<title>Node11&#45;&gt;Node13</title>
<g id="a_edge11_Node000011_Node000013"><a xlink:title=" ">
<path fill="none" stroke="#63b8ff" d="M176.49,-43.19C149.59,-40.08 117.68,-36.39 93.61,-33.61"/>
<polygon fill="#63b8ff" stroke="#63b8ff" points="175.84,-46.64 186.18,-44.31 176.64,-39.68 175.84,-46.64"/>
</a>
</g>
</g>
</g>
</svg>
