<?xml version="1.0" encoding="UTF-8" standalone="no"?>
<!DOCTYPE svg PUBLIC "-//W3C//DTD SVG 1.1//EN"
 "http://www.w3.org/Graphics/SVG/1.1/DTD/svg11.dtd">
<!-- Generated by graphviz version 12.2.1 (20241206.2353)
 -->
<!-- Title: nscale8x2_video Pages: 1 -->
<svg width="275pt" height="80pt"
 viewBox="0.00 0.00 274.75 80.12" xmlns="http://www.w3.org/2000/svg" xmlns:xlink="http://www.w3.org/1999/xlink">
<g id="graph0" class="graph" transform="scale(1 1) rotate(0) translate(4 76.12)">
<title>nscale8x2_video</title>
<!-- Node1 -->
<g id="Node000001" class="node">
<title>Node1</title>
<g id="a_Node000001"><a xlink:title="Scale two one&#45;byte values by a third one, which is treated as the numerator of a fraction whose demom...">
<polygon fill="#999999" stroke="#666666" points="97.75,-49.12 0,-49.12 0,-28.38 97.75,-28.38 97.75,-49.12"/>
<text text-anchor="middle" x="48.88" y="-35.62" font-family="Helvetica,sans-Serif" font-size="10.00">nscale8x2_video</text>
</a>
</g>
</g>
<!-- Node2 -->
<g id="Node000002" class="node">
<title>Node2</title>
<g id="a_Node000002"><a xlink:href="../../d0/da5/group___scaling_dirty.html#ga3fade00fb4cf5b937b973128198a7a79" target="_top" xlink:title="Clean up the r1 register after a series of *LEAVING_R1_DIRTY calls.">
<polygon fill="white" stroke="#666666" points="236.38,-72.12 164.12,-72.12 164.12,-51.38 236.38,-51.38 236.38,-72.12"/>
<text text-anchor="middle" x="200.25" y="-58.62" font-family="Helvetica,sans-Serif" font-size="10.00">cleanup_R1</text>
</a>
</g>
</g>
<!-- Node1&#45;&gt;Node2 -->
<g id="edge1_Node000001_Node000002" class="edge">
<title>Node1&#45;&gt;Node2</title>
<g id="a_edge1_Node000001_Node000002"><a xlink:title=" ">
<path fill="none" stroke="#63b8ff" d="M97.96,-46.15C115.59,-48.87 135.5,-51.93 152.97,-54.62"/>
<polygon fill="#63b8ff" stroke="#63b8ff" points="152.13,-58.04 162.55,-56.1 153.2,-51.12 152.13,-58.04"/>
</a>
</g>
</g>
<!-- Node3 -->
<g id="Node000003" class="node">
<title>Node3</title>
<g id="a_Node000003"><a xlink:href="../../d0/da5/group___scaling_dirty.html#gadfd26d9b154f5ec79dbffe612dafd146" target="_top" xlink:title="In place modifying version of scale8_video() that does not clean up the R1 register on AVR.">
<polygon fill="white" stroke="#666666" points="266.75,-33.5 133.75,-33.5 133.75,0 266.75,0 266.75,-33.5"/>
<text text-anchor="start" x="141.75" y="-20" font-family="Helvetica,sans-Serif" font-size="10.00">nscale8_video_LEAVING</text>
<text text-anchor="middle" x="200.25" y="-7.25" font-family="Helvetica,sans-Serif" font-size="10.00">_R1_DIRTY</text>
</a>
</g>
</g>
<!-- Node1&#45;&gt;Node3 -->
<g id="edge2_Node000001_Node000003" class="edge">
<title>Node1&#45;&gt;Node3</title>
<g id="a_edge2_Node000001_Node000003"><a xlink:title=" ">
<path fill="none" stroke="#63b8ff" d="M97.96,-31.67C105.7,-30.53 113.88,-29.32 122.1,-28.11"/>
<polygon fill="#63b8ff" stroke="#63b8ff" points="122.41,-31.6 131.79,-26.69 121.39,-24.68 122.41,-31.6"/>
</a>
</g>
</g>
</g>
</svg>
