<?xml version="1.0" encoding="UTF-8" standalone="no"?>
<!DOCTYPE svg PUBLIC "-//W3C//DTD SVG 1.1//EN"
 "http://www.w3.org/Graphics/SVG/1.1/DTD/svg11.dtd">
<!-- Generated by graphviz version 12.2.1 (20241206.2353)
 -->
<!-- Title: fl::FixedMap::lowest Pages: 1 -->
<svg width="418pt" height="68pt"
 viewBox="0.00 0.00 417.50 67.75" xmlns="http://www.w3.org/2000/svg" xmlns:xlink="http://www.w3.org/1999/xlink">
<g id="graph0" class="graph" transform="scale(1 1) rotate(0) translate(4 63.75)">
<title>fl::FixedMap::lowest</title>
<!-- Node1 -->
<g id="Node000001" class="node">
<title>Node1</title>
<g id="a_Node000001"><a xlink:title=" ">
<polygon fill="#999999" stroke="#666666" points="112.75,-39.75 0,-39.75 0,-19 112.75,-19 112.75,-39.75"/>
<text text-anchor="middle" x="56.38" y="-26.25" font-family="Helvetica,sans-Serif" font-size="10.00">fl::FixedMap::lowest</text>
</a>
</g>
</g>
<!-- Node1&#45;&gt;Node1 -->
<g id="edge5_Node000001_Node000001" class="edge">
<title>Node1&#45;&gt;Node1</title>
<g id="a_edge5_Node000001_Node000001"><a xlink:title=" ">
<path fill="none" stroke="#63b8ff" d="M32.83,-40.15C23.41,-48.81 31.26,-57.75 56.38,-57.75 70.11,-57.75 78.68,-55.08 82.09,-51.24"/>
<polygon fill="#63b8ff" stroke="#63b8ff" points="85.56,-50.78 80.21,-41.63 78.69,-52.12 85.56,-50.78"/>
</a>
</g>
</g>
<!-- Node2 -->
<g id="Node000002" class="node">
<title>Node2</title>
<g id="a_Node000002"><a xlink:href="../../d2/df3/classfl_1_1_fixed_map.html#a5bcfb52c7949403994eed767316e237b" target="_top" xlink:title=" ">
<polygon fill="white" stroke="#666666" points="256.25,-59.75 148.75,-59.75 148.75,-39 256.25,-39 256.25,-59.75"/>
<text text-anchor="middle" x="202.5" y="-46.25" font-family="Helvetica,sans-Serif" font-size="10.00">fl::FixedMap::begin</text>
</a>
</g>
</g>
<!-- Node1&#45;&gt;Node2 -->
<g id="edge1_Node000001_Node000002" class="edge">
<title>Node1&#45;&gt;Node2</title>
<g id="a_edge1_Node000001_Node000002"><a xlink:title=" ">
<path fill="none" stroke="#63b8ff" d="M113.1,-37.11C120.96,-38.2 129.09,-39.33 137.1,-40.44"/>
<polygon fill="#63b8ff" stroke="#63b8ff" points="136.41,-43.88 146.79,-41.78 137.37,-36.94 136.41,-43.88"/>
</a>
</g>
</g>
<!-- Node4 -->
<g id="Node000004" class="node">
<title>Node4</title>
<g id="a_Node000004"><a xlink:href="../../d2/df3/classfl_1_1_fixed_map.html#a25851b559aa5ae81d52c0c5792d10bf5" target="_top" xlink:title=" ">
<polygon fill="white" stroke="#666666" points="251.75,-20.75 153.25,-20.75 153.25,0 251.75,0 251.75,-20.75"/>
<text text-anchor="middle" x="202.5" y="-7.25" font-family="Helvetica,sans-Serif" font-size="10.00">fl::FixedMap::end</text>
</a>
</g>
</g>
<!-- Node1&#45;&gt;Node4 -->
<g id="edge3_Node000001_Node000004" class="edge">
<title>Node1&#45;&gt;Node4</title>
<g id="a_edge3_Node000001_Node000004"><a xlink:title=" ">
<path fill="none" stroke="#63b8ff" d="M113.1,-22.03C122.45,-20.8 132.18,-19.51 141.63,-18.27"/>
<polygon fill="#63b8ff" stroke="#63b8ff" points="142.01,-21.75 151.46,-16.97 141.09,-14.81 142.01,-21.75"/>
</a>
</g>
</g>
<!-- Node3 -->
<g id="Node000003" class="node">
<title>Node3</title>
<g id="a_Node000003"><a xlink:href="../../d3/d73/classfl_1_1_fixed_vector.html#a7ae4440fe977cc6495819cac64b7ad1a" target="_top" xlink:title=" ">
<polygon fill="white" stroke="#666666" points="409.5,-59.75 292.25,-59.75 292.25,-39 409.5,-39 409.5,-59.75"/>
<text text-anchor="middle" x="350.88" y="-46.25" font-family="Helvetica,sans-Serif" font-size="10.00">fl::FixedVector::begin</text>
</a>
</g>
</g>
<!-- Node2&#45;&gt;Node3 -->
<g id="edge2_Node000002_Node000003" class="edge">
<title>Node2&#45;&gt;Node3</title>
<g id="a_edge2_Node000002_Node000003"><a xlink:title=" ">
<path fill="none" stroke="#63b8ff" d="M256.34,-49.38C264.25,-49.38 272.5,-49.38 280.68,-49.38"/>
<polygon fill="#63b8ff" stroke="#63b8ff" points="280.64,-52.88 290.64,-49.38 280.64,-45.88 280.64,-52.88"/>
</a>
</g>
</g>
<!-- Node5 -->
<g id="Node000005" class="node">
<title>Node5</title>
<g id="a_Node000005"><a xlink:href="../../d3/d73/classfl_1_1_fixed_vector.html#af8f3eb485dff77110efec26993f206c4" target="_top" xlink:title=" ">
<polygon fill="white" stroke="#666666" points="405,-20.75 296.75,-20.75 296.75,0 405,0 405,-20.75"/>
<text text-anchor="middle" x="350.88" y="-7.25" font-family="Helvetica,sans-Serif" font-size="10.00">fl::FixedVector::end</text>
</a>
</g>
</g>
<!-- Node4&#45;&gt;Node5 -->
<g id="edge4_Node000004_Node000005" class="edge">
<title>Node4&#45;&gt;Node5</title>
<g id="a_edge4_Node000004_Node000005"><a xlink:title=" ">
<path fill="none" stroke="#63b8ff" d="M252.24,-10.38C262.73,-10.38 273.98,-10.38 284.98,-10.38"/>
<polygon fill="#63b8ff" stroke="#63b8ff" points="284.79,-13.88 294.79,-10.38 284.79,-6.88 284.79,-13.88"/>
</a>
</g>
</g>
</g>
</svg>
