<?xml version="1.0" encoding="UTF-8" standalone="no"?>
<!DOCTYPE svg PUBLIC "-//W3C//DTD SVG 1.1//EN"
 "http://www.w3.org/Graphics/SVG/1.1/DTD/svg11.dtd">
<!-- Generated by graphviz version 12.2.1 (20241206.2353)
 -->
<!-- Title: fl::FixedMap::empty Pages: 1 -->
<svg width="503pt" height="146pt"
 viewBox="0.00 0.00 502.50 145.75" xmlns="http://www.w3.org/2000/svg" xmlns:xlink="http://www.w3.org/1999/xlink">
<g id="graph0" class="graph" transform="scale(1 1) rotate(0) translate(4 141.75)">
<title>fl::FixedMap::empty</title>
<!-- Node1 -->
<g id="Node000001" class="node">
<title>Node1</title>
<g id="a_Node000001"><a xlink:title=" ">
<polygon fill="#999999" stroke="#666666" points="494.5,-78.75 382.5,-78.75 382.5,-58 494.5,-58 494.5,-78.75"/>
<text text-anchor="middle" x="438.5" y="-65.25" font-family="Helvetica,sans-Serif" font-size="10.00">fl::FixedMap::empty</text>
</a>
</g>
</g>
<!-- Node2 -->
<g id="Node000002" class="node">
<title>Node2</title>
<g id="a_Node000002"><a xlink:href="../../d4/d60/classfl_1_1_fx_engine.html#a1e840a27e09686190e44844b3f062642" target="_top" xlink:title="Adds a new effect to the engine.">
<polygon fill="white" stroke="#666666" points="346.5,-137.75 237.5,-137.75 237.5,-117 346.5,-117 346.5,-137.75"/>
<text text-anchor="middle" x="292" y="-124.25" font-family="Helvetica,sans-Serif" font-size="10.00">fl::FxEngine::addFx</text>
</a>
</g>
</g>
<!-- Node1&#45;&gt;Node2 -->
<g id="edge1_Node000001_Node000002" class="edge">
<title>Node1&#45;&gt;Node2</title>
<g id="a_edge1_Node000001_Node000002"><a xlink:title=" ">
<path fill="none" stroke="#63b8ff" d="M402.79,-83.71C385.89,-91.06 365.21,-99.87 346.5,-107.38 338.86,-110.44 330.55,-113.62 322.81,-116.52"/>
<polygon fill="#63b8ff" stroke="#63b8ff" points="404.15,-86.93 411.91,-79.72 401.34,-80.52 404.15,-86.93"/>
</a>
</g>
</g>
<!-- Node4 -->
<g id="Node000004" class="node">
<title>Node4</title>
<g id="a_Node000004"><a xlink:href="../../d4/d60/classfl_1_1_fx_engine.html#aa0b3b17d66712b3c2184d8c59c6b55f1" target="_top" xlink:title="Renders the current effect or transition to the output buffer.">
<polygon fill="white" stroke="#666666" points="343.5,-98.75 240.5,-98.75 240.5,-78 343.5,-78 343.5,-98.75"/>
<text text-anchor="middle" x="292" y="-85.25" font-family="Helvetica,sans-Serif" font-size="10.00">fl::FxEngine::draw</text>
</a>
</g>
</g>
<!-- Node1&#45;&gt;Node4 -->
<g id="edge3_Node000001_Node000004" class="edge">
<title>Node1&#45;&gt;Node4</title>
<g id="a_edge3_Node000001_Node000004"><a xlink:title=" ">
<path fill="none" stroke="#63b8ff" d="M370.7,-77.62C361.66,-78.87 352.5,-80.14 343.81,-81.34"/>
<polygon fill="#63b8ff" stroke="#63b8ff" points="371.12,-81.1 380.55,-76.26 370.16,-74.16 371.12,-81.1"/>
</a>
</g>
</g>
<!-- Node6 -->
<g id="Node000006" class="node">
<title>Node6</title>
<g id="a_Node000006"><a xlink:href="../../d2/df3/classfl_1_1_fixed_map.html#a86e9680f024d9fb7a7fa9f96a90f4a1e" target="_top" xlink:title=" ">
<polygon fill="white" stroke="#666666" points="343.12,-59.75 240.88,-59.75 240.88,-39 343.12,-39 343.12,-59.75"/>
<text text-anchor="middle" x="292" y="-46.25" font-family="Helvetica,sans-Serif" font-size="10.00">fl::FixedMap::next</text>
</a>
</g>
</g>
<!-- Node1&#45;&gt;Node6 -->
<g id="edge5_Node000001_Node000006" class="edge">
<title>Node1&#45;&gt;Node6</title>
<g id="a_edge5_Node000001_Node000006"><a xlink:title=" ">
<path fill="none" stroke="#63b8ff" d="M370.86,-59.61C361.6,-58.4 352.23,-57.16 343.34,-55.99"/>
<polygon fill="#63b8ff" stroke="#63b8ff" points="370.17,-63.05 380.55,-60.89 371.09,-56.11 370.17,-63.05"/>
</a>
</g>
</g>
<!-- Node10 -->
<g id="Node000010" class="node">
<title>Node10</title>
<g id="a_Node000010"><a xlink:href="../../d2/df3/classfl_1_1_fixed_map.html#a35706a466e8c68cf3c5e9b8c94f8e17d" target="_top" xlink:title=" ">
<polygon fill="white" stroke="#666666" points="343.12,-20.75 240.88,-20.75 240.88,0 343.12,0 343.12,-20.75"/>
<text text-anchor="middle" x="292" y="-7.25" font-family="Helvetica,sans-Serif" font-size="10.00">fl::FixedMap::prev</text>
</a>
</g>
</g>
<!-- Node1&#45;&gt;Node10 -->
<g id="edge9_Node000001_Node000010" class="edge">
<title>Node1&#45;&gt;Node10</title>
<g id="a_edge9_Node000001_Node000010"><a xlink:title=" ">
<path fill="none" stroke="#63b8ff" d="M402.04,-53.2C385.27,-46.12 364.91,-37.66 346.5,-30.38 338.75,-27.31 330.33,-24.1 322.51,-21.18"/>
<polygon fill="#63b8ff" stroke="#63b8ff" points="400.53,-56.36 411.1,-57.04 403.26,-49.92 400.53,-56.36"/>
</a>
</g>
</g>
<!-- Node3 -->
<g id="Node000003" class="node">
<title>Node3</title>
<g id="a_Node000003"><a xlink:href="../../d6/d35/_fx_engine_8ino.html#a4fc01d736fe50cf5b977f755b675f11d" target="_top" xlink:title=" ">
<polygon fill="white" stroke="#666666" points="158.75,-137.75 115.75,-137.75 115.75,-117 158.75,-117 158.75,-137.75"/>
<text text-anchor="middle" x="137.25" y="-124.25" font-family="Helvetica,sans-Serif" font-size="10.00">setup</text>
</a>
</g>
</g>
<!-- Node2&#45;&gt;Node3 -->
<g id="edge2_Node000002_Node000003" class="edge">
<title>Node2&#45;&gt;Node3</title>
<g id="a_edge2_Node000002_Node000003"><a xlink:title=" ">
<path fill="none" stroke="#63b8ff" d="M225.89,-127.38C201.88,-127.38 176.35,-127.38 159.08,-127.38"/>
<polygon fill="#63b8ff" stroke="#63b8ff" points="225.63,-130.88 235.63,-127.38 225.63,-123.88 225.63,-130.88"/>
</a>
</g>
</g>
<!-- Node5 -->
<g id="Node000005" class="node">
<title>Node5</title>
<g id="a_Node000005"><a xlink:href="../../dd/d96/_fx_animartrix_8ino.html#afe461d27b9c48d5921c00d521181f12f" target="_top" xlink:title=" ">
<polygon fill="white" stroke="#666666" points="155.75,-98.75 118.75,-98.75 118.75,-78 155.75,-78 155.75,-98.75"/>
<text text-anchor="middle" x="137.25" y="-85.25" font-family="Helvetica,sans-Serif" font-size="10.00">loop</text>
</a>
</g>
</g>
<!-- Node4&#45;&gt;Node5 -->
<g id="edge4_Node000004_Node000005" class="edge">
<title>Node4&#45;&gt;Node5</title>
<g id="a_edge4_Node000004_Node000005"><a xlink:title=" ">
<path fill="none" stroke="#63b8ff" d="M228.69,-88.38C202.48,-88.38 173.98,-88.38 156.12,-88.38"/>
<polygon fill="#63b8ff" stroke="#63b8ff" points="228.62,-91.88 238.62,-88.38 228.62,-84.88 228.62,-91.88"/>
</a>
</g>
</g>
<!-- Node7 -->
<g id="Node000007" class="node">
<title>Node7</title>
<g id="a_Node000007"><a xlink:href="../../d4/d60/classfl_1_1_fx_engine.html#a478ed2a69d36050013ef81ffb59799a0" target="_top" xlink:title="Transitions to the next effect in the sequence.">
<polygon fill="white" stroke="#666666" points="193.62,-59.75 80.88,-59.75 80.88,-39 193.62,-39 193.62,-59.75"/>
<text text-anchor="middle" x="137.25" y="-46.25" font-family="Helvetica,sans-Serif" font-size="10.00">fl::FxEngine::nextFx</text>
</a>
</g>
</g>
<!-- Node6&#45;&gt;Node7 -->
<g id="edge6_Node000006_Node000007" class="edge">
<title>Node6&#45;&gt;Node7</title>
<g id="a_edge6_Node000006_Node000007"><a xlink:title=" ">
<path fill="none" stroke="#63b8ff" d="M229.11,-49.38C217.46,-49.38 205.35,-49.38 193.91,-49.38"/>
<polygon fill="#63b8ff" stroke="#63b8ff" points="229.05,-52.88 239.05,-49.38 229.05,-45.88 229.05,-52.88"/>
</a>
</g>
</g>
<!-- Node9 -->
<g id="Node000009" class="node">
<title>Node9</title>
<g id="a_Node000009"><a xlink:href="../../d4/d60/classfl_1_1_fx_engine.html#acb1a08ee3735bf9269d8a60370b02315" target="_top" xlink:title="Requests removal of an effect from the engine, which might not happen immediately (for example the Fx...">
<polygon fill="white" stroke="#666666" points="201.5,-20.75 73,-20.75 73,0 201.5,0 201.5,-20.75"/>
<text text-anchor="middle" x="137.25" y="-7.25" font-family="Helvetica,sans-Serif" font-size="10.00">fl::FxEngine::removeFx</text>
</a>
</g>
</g>
<!-- Node6&#45;&gt;Node9 -->
<g id="edge8_Node000006_Node000009" class="edge">
<title>Node6&#45;&gt;Node9</title>
<g id="a_edge8_Node000006_Node000009"><a xlink:title=" ">
<path fill="none" stroke="#63b8ff" d="M237.49,-35.71C218.94,-30.98 198.39,-25.73 180.84,-21.25"/>
<polygon fill="#63b8ff" stroke="#63b8ff" points="236.43,-39.05 246.98,-38.14 238.16,-32.27 236.43,-39.05"/>
</a>
</g>
</g>
<!-- Node8 -->
<g id="Node000008" class="node">
<title>Node8</title>
<g id="a_Node000008"><a xlink:href="../../d6/d35/_fx_engine_8ino.html#afe461d27b9c48d5921c00d521181f12f" target="_top" xlink:title=" ">
<polygon fill="white" stroke="#666666" points="37,-59.75 0,-59.75 0,-39 37,-39 37,-59.75"/>
<text text-anchor="middle" x="18.5" y="-46.25" font-family="Helvetica,sans-Serif" font-size="10.00">loop</text>
</a>
</g>
</g>
<!-- Node7&#45;&gt;Node8 -->
<g id="edge7_Node000007_Node000008" class="edge">
<title>Node7&#45;&gt;Node8</title>
<g id="a_edge7_Node000007_Node000008"><a xlink:title=" ">
<path fill="none" stroke="#63b8ff" d="M69.28,-49.38C57.54,-49.38 46.28,-49.38 37.45,-49.38"/>
<polygon fill="#63b8ff" stroke="#63b8ff" points="69.1,-52.88 79.1,-49.38 69.1,-45.88 69.1,-52.88"/>
</a>
</g>
</g>
</g>
</svg>
