<?xml version="1.0" encoding="UTF-8" standalone="no"?>
<!DOCTYPE svg PUBLIC "-//W3C//DTD SVG 1.1//EN"
 "http://www.w3.org/Graphics/SVG/1.1/DTD/svg11.dtd">
<!-- Generated by graphviz version 12.2.1 (20241206.2353)
 -->
<!-- Title: fl::FixedMap::get Pages: 1 -->
<svg width="669pt" height="82pt"
 viewBox="0.00 0.00 669.25 81.61" xmlns="http://www.w3.org/2000/svg" xmlns:xlink="http://www.w3.org/1999/xlink">
<g id="graph0" class="graph" transform="scale(1 1) rotate(0) translate(4 77.61)">
<title>fl::FixedMap::get</title>
<!-- Node1 -->
<g id="Node000001" class="node">
<title>Node1</title>
<g id="a_Node000001"><a xlink:title=" ">
<polygon fill="#999999" stroke="#666666" points="96.25,-58.75 0,-58.75 0,-38 96.25,-38 96.25,-58.75"/>
<text text-anchor="middle" x="48.12" y="-45.25" font-family="Helvetica,sans-Serif" font-size="10.00">fl::FixedMap::get</text>
</a>
</g>
</g>
<!-- Node2 -->
<g id="Node000002" class="node">
<title>Node2</title>
<g id="a_Node000002"><a xlink:href="../../d2/df3/classfl_1_1_fixed_map.html#a25851b559aa5ae81d52c0c5792d10bf5" target="_top" xlink:title=" ">
<polygon fill="white" stroke="#666666" points="503.5,-59.75 405,-59.75 405,-39 503.5,-39 503.5,-59.75"/>
<text text-anchor="middle" x="454.25" y="-46.25" font-family="Helvetica,sans-Serif" font-size="10.00">fl::FixedMap::end</text>
</a>
</g>
</g>
<!-- Node1&#45;&gt;Node2 -->
<g id="edge1_Node000001_Node000002" class="edge">
<title>Node1&#45;&gt;Node2</title>
<g id="a_edge1_Node000001_Node000002"><a xlink:title=" ">
<path fill="none" stroke="#63b8ff" d="M88.14,-59.19C101.96,-62.52 117.69,-65.73 132.25,-67.38 234.85,-78.95 261.68,-71.79 364.5,-62.38 373.86,-61.52 383.75,-60.34 393.38,-59.05"/>
<polygon fill="#63b8ff" stroke="#63b8ff" points="393.62,-62.55 403.04,-57.69 392.65,-55.61 393.62,-62.55"/>
</a>
</g>
</g>
<!-- Node4 -->
<g id="Node000004" class="node">
<title>Node4</title>
<g id="a_Node000004"><a xlink:href="../../d2/df3/classfl_1_1_fixed_map.html#a85134d13ee9474e0ac60284e965ccbb3" target="_top" xlink:title=" ">
<polygon fill="white" stroke="#666666" points="364.5,-20.75 266,-20.75 266,0 364.5,0 364.5,-20.75"/>
<text text-anchor="middle" x="315.25" y="-7.25" font-family="Helvetica,sans-Serif" font-size="10.00">fl::FixedMap::find</text>
</a>
</g>
</g>
<!-- Node1&#45;&gt;Node4 -->
<g id="edge3_Node000001_Node000004" class="edge">
<title>Node1&#45;&gt;Node4</title>
<g id="a_edge3_Node000001_Node000004"><a xlink:title=" ">
<path fill="none" stroke="#63b8ff" d="M92.07,-37.52C104.93,-34.55 119.11,-31.56 132.25,-29.38 172.83,-22.64 218.92,-17.86 254.57,-14.78"/>
<polygon fill="#63b8ff" stroke="#63b8ff" points="254.58,-18.29 264.25,-13.96 253.99,-11.31 254.58,-18.29"/>
</a>
</g>
</g>
<!-- Node7 -->
<g id="Node000007" class="node">
<title>Node7</title>
<g id="a_Node000007"><a xlink:href="../../d2/df3/classfl_1_1_fixed_map.html#a460e3d43563610531faa13038b8f3682" target="_top" xlink:title=" ">
<polygon fill="white" stroke="#666666" points="230,-58.75 132.25,-58.75 132.25,-38 230,-38 230,-58.75"/>
<text text-anchor="middle" x="181.12" y="-45.25" font-family="Helvetica,sans-Serif" font-size="10.00">fl::FixedMap::has</text>
</a>
</g>
</g>
<!-- Node1&#45;&gt;Node7 -->
<g id="edge7_Node000001_Node000007" class="edge">
<title>Node1&#45;&gt;Node7</title>
<g id="a_edge7_Node000001_Node000007"><a xlink:title=" ">
<path fill="none" stroke="#63b8ff" d="M96.42,-48.38C104.29,-48.38 112.54,-48.38 120.67,-48.38"/>
<polygon fill="#63b8ff" stroke="#63b8ff" points="120.51,-51.88 130.51,-48.38 120.51,-44.88 120.51,-51.88"/>
</a>
</g>
</g>
<!-- Node3 -->
<g id="Node000003" class="node">
<title>Node3</title>
<g id="a_Node000003"><a xlink:href="../../d3/d73/classfl_1_1_fixed_vector.html#af8f3eb485dff77110efec26993f206c4" target="_top" xlink:title=" ">
<polygon fill="white" stroke="#666666" points="656.75,-59.75 548.5,-59.75 548.5,-39 656.75,-39 656.75,-59.75"/>
<text text-anchor="middle" x="602.62" y="-46.25" font-family="Helvetica,sans-Serif" font-size="10.00">fl::FixedVector::end</text>
</a>
</g>
</g>
<!-- Node2&#45;&gt;Node3 -->
<g id="edge2_Node000002_Node000003" class="edge">
<title>Node2&#45;&gt;Node3</title>
<g id="a_edge2_Node000002_Node000003"><a xlink:title=" ">
<path fill="none" stroke="#63b8ff" d="M503.99,-49.38C514.48,-49.38 525.73,-49.38 536.73,-49.38"/>
<polygon fill="#63b8ff" stroke="#63b8ff" points="536.54,-52.88 546.54,-49.38 536.54,-45.88 536.54,-52.88"/>
</a>
</g>
</g>
<!-- Node4&#45;&gt;Node2 -->
<g id="edge6_Node000004_Node000002" class="edge">
<title>Node4&#45;&gt;Node2</title>
<g id="a_edge6_Node000004_Node000002"><a xlink:title=" ">
<path fill="none" stroke="#63b8ff" d="M354.41,-21.24C369.85,-25.63 387.87,-30.76 404.26,-35.43"/>
<polygon fill="#63b8ff" stroke="#63b8ff" points="403.26,-38.78 413.84,-38.16 405.18,-32.05 403.26,-38.78"/>
</a>
</g>
</g>
<!-- Node5 -->
<g id="Node000005" class="node">
<title>Node5</title>
<g id="a_Node000005"><a xlink:href="../../d2/df3/classfl_1_1_fixed_map.html#a5bcfb52c7949403994eed767316e237b" target="_top" xlink:title=" ">
<polygon fill="white" stroke="#666666" points="508,-20.75 400.5,-20.75 400.5,0 508,0 508,-20.75"/>
<text text-anchor="middle" x="454.25" y="-7.25" font-family="Helvetica,sans-Serif" font-size="10.00">fl::FixedMap::begin</text>
</a>
</g>
</g>
<!-- Node4&#45;&gt;Node5 -->
<g id="edge4_Node000004_Node000005" class="edge">
<title>Node4&#45;&gt;Node5</title>
<g id="a_edge4_Node000004_Node000005"><a xlink:title=" ">
<path fill="none" stroke="#63b8ff" d="M364.94,-10.38C372.67,-10.38 380.78,-10.38 388.81,-10.38"/>
<polygon fill="#63b8ff" stroke="#63b8ff" points="388.55,-13.88 398.55,-10.38 388.55,-6.88 388.55,-13.88"/>
</a>
</g>
</g>
<!-- Node6 -->
<g id="Node000006" class="node">
<title>Node6</title>
<g id="a_Node000006"><a xlink:href="../../d3/d73/classfl_1_1_fixed_vector.html#a7ae4440fe977cc6495819cac64b7ad1a" target="_top" xlink:title=" ">
<polygon fill="white" stroke="#666666" points="661.25,-20.75 544,-20.75 544,0 661.25,0 661.25,-20.75"/>
<text text-anchor="middle" x="602.62" y="-7.25" font-family="Helvetica,sans-Serif" font-size="10.00">fl::FixedVector::begin</text>
</a>
</g>
</g>
<!-- Node5&#45;&gt;Node6 -->
<g id="edge5_Node000005_Node000006" class="edge">
<title>Node5&#45;&gt;Node6</title>
<g id="a_edge5_Node000005_Node000006"><a xlink:title=" ">
<path fill="none" stroke="#63b8ff" d="M508.09,-10.38C516,-10.38 524.25,-10.38 532.43,-10.38"/>
<polygon fill="#63b8ff" stroke="#63b8ff" points="532.39,-13.88 542.39,-10.38 532.39,-6.88 532.39,-13.88"/>
</a>
</g>
</g>
<!-- Node7&#45;&gt;Node2 -->
<g id="edge8_Node000007_Node000002" class="edge">
<title>Node7&#45;&gt;Node2</title>
<g id="a_edge8_Node000007_Node000002"><a xlink:title=" ">
<path fill="none" stroke="#63b8ff" d="M230.28,-48.55C275.79,-48.72 344.19,-48.97 393.23,-49.15"/>
<polygon fill="#63b8ff" stroke="#63b8ff" points="393.1,-52.65 403.11,-49.19 393.13,-45.65 393.1,-52.65"/>
</a>
</g>
</g>
<!-- Node7&#45;&gt;Node4 -->
<g id="edge9_Node000007_Node000004" class="edge">
<title>Node7&#45;&gt;Node4</title>
<g id="a_edge9_Node000007_Node000004"><a xlink:title=" ">
<path fill="none" stroke="#63b8ff" d="M219.63,-37.59C234,-33.46 250.6,-28.68 265.84,-24.3"/>
<polygon fill="#63b8ff" stroke="#63b8ff" points="266.55,-27.74 275.19,-21.61 264.62,-21.01 266.55,-27.74"/>
</a>
</g>
</g>
</g>
</svg>
