<?xml version="1.0" encoding="UTF-8" standalone="no"?>
<!DOCTYPE svg PUBLIC "-//W3C//DTD SVG 1.1//EN"
 "http://www.w3.org/Graphics/SVG/1.1/DTD/svg11.dtd">
<!-- Generated by graphviz version 12.2.1 (20241206.2353)
 -->
<!-- Title: fl::FixedMap::lowest Pages: 1 -->
<svg width="270pt" height="47pt"
 viewBox="0.00 0.00 269.50 46.75" xmlns="http://www.w3.org/2000/svg" xmlns:xlink="http://www.w3.org/1999/xlink">
<g id="graph0" class="graph" transform="scale(1 1) rotate(0) translate(4 42.75)">
<title>fl::FixedMap::lowest</title>
<!-- Node1 -->
<g id="Node000001" class="node">
<title>Node1</title>
<g id="a_Node000001"><a xlink:title=" ">
<polygon fill="#999999" stroke="#666666" points="261.5,-20.75 148.75,-20.75 148.75,0 261.5,0 261.5,-20.75"/>
<text text-anchor="middle" x="205.12" y="-7.25" font-family="Helvetica,sans-Serif" font-size="10.00">fl::FixedMap::lowest</text>
</a>
</g>
</g>
<!-- Node1&#45;&gt;Node1 -->
<g id="edge1_Node000001_Node000001" class="edge">
<title>Node1&#45;&gt;Node1</title>
<g id="a_edge1_Node000001_Node000001"><a xlink:title=" ">
<path fill="none" stroke="#63b8ff" d="M231.3,-32.24C227.83,-36.08 219.11,-38.75 205.12,-38.75 179.56,-38.75 171.57,-29.81 181.16,-21.15"/>
<polygon fill="#63b8ff" stroke="#63b8ff" points="234.77,-31.76 229.39,-22.63 227.91,-33.12 234.77,-31.76"/>
</a>
</g>
</g>
<!-- Node2 -->
<g id="Node000002" class="node">
<title>Node2</title>
<g id="a_Node000002"><a xlink:href="../../d2/df3/classfl_1_1_fixed_map.html#a66dd6159f6d84daf24be85c42a225a91" target="_top" xlink:title=" ">
<polygon fill="white" stroke="#666666" points="112.75,-20.75 0,-20.75 0,0 112.75,0 112.75,-20.75"/>
<text text-anchor="middle" x="56.38" y="-7.25" font-family="Helvetica,sans-Serif" font-size="10.00">fl::FixedMap::lowest</text>
</a>
</g>
</g>
<!-- Node1&#45;&gt;Node2 -->
<g id="edge2_Node000001_Node000002" class="edge">
<title>Node1&#45;&gt;Node2</title>
<g id="a_edge2_Node000001_Node000002"><a xlink:title=" ">
<path fill="none" stroke="#63b8ff" d="M137.26,-10.38C129.12,-10.38 120.88,-10.38 112.93,-10.38"/>
<polygon fill="#63b8ff" stroke="#63b8ff" points="137.13,-13.88 147.13,-10.38 137.13,-6.88 137.13,-13.88"/>
</a>
</g>
</g>
</g>
</svg>
