<?xml version="1.0" encoding="UTF-8" standalone="no"?>
<!DOCTYPE svg PUBLIC "-//W3C//DTD SVG 1.1//EN"
 "http://www.w3.org/Graphics/SVG/1.1/DTD/svg11.dtd">
<!-- Generated by graphviz version 12.2.1 (20241206.2353)
 -->
<!-- Title: fl::FixedMap::has Pages: 1 -->
<svg width="498pt" height="224pt"
 viewBox="0.00 0.00 498.00 223.75" xmlns="http://www.w3.org/2000/svg" xmlns:xlink="http://www.w3.org/1999/xlink">
<g id="graph0" class="graph" transform="scale(1 1) rotate(0) translate(4 219.75)">
<title>fl::FixedMap::has</title>
<!-- Node1 -->
<g id="Node000001" class="node">
<title>Node1</title>
<g id="a_Node000001"><a xlink:title=" ">
<polygon fill="#999999" stroke="#666666" points="490,-117.75 392.25,-117.75 392.25,-97 490,-97 490,-117.75"/>
<text text-anchor="middle" x="441.12" y="-104.25" font-family="Helvetica,sans-Serif" font-size="10.00">fl::FixedMap::has</text>
</a>
</g>
</g>
<!-- Node2 -->
<g id="Node000002" class="node">
<title>Node2</title>
<g id="a_Node000002"><a xlink:href="../../d2/df3/classfl_1_1_fixed_map.html#a07b3eefb41dacb2032f572d6a70ff58c" target="_top" xlink:title=" ">
<polygon fill="white" stroke="#666666" points="349.88,-215.75 228.12,-215.75 228.12,-195 349.88,-195 349.88,-215.75"/>
<text text-anchor="middle" x="289" y="-202.25" font-family="Helvetica,sans-Serif" font-size="10.00">fl::FixedMap::contains</text>
</a>
</g>
</g>
<!-- Node1&#45;&gt;Node2 -->
<g id="edge1_Node000001_Node000002" class="edge">
<title>Node1&#45;&gt;Node2</title>
<g id="a_edge1_Node000001_Node000002"><a xlink:title=" ">
<path fill="none" stroke="#63b8ff" d="M424.25,-126.48C408.64,-144.12 383.27,-169.86 356.25,-185.38 349.89,-189.02 342.81,-192.07 335.69,-194.59"/>
<polygon fill="#63b8ff" stroke="#63b8ff" points="426.61,-129.1 430.49,-119.24 421.31,-124.53 426.61,-129.1"/>
</a>
</g>
</g>
<!-- Node3 -->
<g id="Node000003" class="node">
<title>Node3</title>
<g id="a_Node000003"><a xlink:href="../../d2/df3/classfl_1_1_fixed_map.html#aad1402bd34a5c134fa39bc0593ffd5ba" target="_top" xlink:title=" ">
<polygon fill="white" stroke="#666666" points="337.12,-176.75 240.88,-176.75 240.88,-156 337.12,-156 337.12,-176.75"/>
<text text-anchor="middle" x="289" y="-163.25" font-family="Helvetica,sans-Serif" font-size="10.00">fl::FixedMap::get</text>
</a>
</g>
</g>
<!-- Node1&#45;&gt;Node3 -->
<g id="edge2_Node000001_Node000003" class="edge">
<title>Node1&#45;&gt;Node3</title>
<g id="a_edge2_Node000001_Node000003"><a xlink:title=" ">
<path fill="none" stroke="#63b8ff" d="M408.97,-123.15C393.36,-130.72 374.05,-139.59 356.25,-146.38 347.61,-149.67 338.17,-152.79 329.2,-155.55"/>
<polygon fill="#63b8ff" stroke="#63b8ff" points="410.32,-126.38 417.75,-118.83 407.23,-120.1 410.32,-126.38"/>
</a>
</g>
</g>
<!-- Node4 -->
<g id="Node000004" class="node">
<title>Node4</title>
<g id="a_Node000004"><a xlink:href="../../d4/d60/classfl_1_1_fx_engine.html#ad7719f0e21da65b52ba415978a2a9f41" target="_top" xlink:title="Retrieves an effect from the engine without removing it.">
<polygon fill="white" stroke="#666666" points="342.38,-137.75 235.62,-137.75 235.62,-117 342.38,-117 342.38,-137.75"/>
<text text-anchor="middle" x="289" y="-124.25" font-family="Helvetica,sans-Serif" font-size="10.00">fl::FxEngine::getFx</text>
</a>
</g>
</g>
<!-- Node1&#45;&gt;Node4 -->
<g id="edge3_Node000001_Node000004" class="edge">
<title>Node1&#45;&gt;Node4</title>
<g id="a_edge3_Node000001_Node000004"><a xlink:title=" ">
<path fill="none" stroke="#63b8ff" d="M380.52,-115.32C368,-116.98 354.89,-118.73 342.65,-120.36"/>
<polygon fill="#63b8ff" stroke="#63b8ff" points="380.85,-118.8 390.3,-114.01 379.92,-111.86 380.85,-118.8"/>
</a>
</g>
</g>
<!-- Node5 -->
<g id="Node000005" class="node">
<title>Node5</title>
<g id="a_Node000005"><a xlink:href="../../d2/d78/classfl_1_1_screen_map.html#a01e5310537235df9e8dc911692339a9b" target="_top" xlink:title=" ">
<polygon fill="white" stroke="#666666" points="356.25,-98.75 221.75,-98.75 221.75,-78 356.25,-78 356.25,-98.75"/>
<text text-anchor="middle" x="289" y="-85.25" font-family="Helvetica,sans-Serif" font-size="10.00">fl::ScreenMap::ParseJson</text>
</a>
</g>
</g>
<!-- Node1&#45;&gt;Node5 -->
<g id="edge4_Node000001_Node000005" class="edge">
<title>Node1&#45;&gt;Node5</title>
<g id="a_edge4_Node000001_Node000005"><a xlink:title=" ">
<path fill="none" stroke="#63b8ff" d="M380.49,-99.83C372.63,-98.83 364.53,-97.81 356.56,-96.8"/>
<polygon fill="#63b8ff" stroke="#63b8ff" points="379.94,-103.29 390.3,-101.07 380.82,-96.34 379.94,-103.29"/>
</a>
</g>
</g>
<!-- Node6 -->
<g id="Node000006" class="node">
<title>Node6</title>
<g id="a_Node000006"><a xlink:href="../../d4/d60/classfl_1_1_fx_engine.html#acb1a08ee3735bf9269d8a60370b02315" target="_top" xlink:title="Requests removal of an effect from the engine, which might not happen immediately (for example the Fx...">
<polygon fill="white" stroke="#666666" points="353.25,-59.75 224.75,-59.75 224.75,-39 353.25,-39 353.25,-59.75"/>
<text text-anchor="middle" x="289" y="-46.25" font-family="Helvetica,sans-Serif" font-size="10.00">fl::FxEngine::removeFx</text>
</a>
</g>
</g>
<!-- Node1&#45;&gt;Node6 -->
<g id="edge5_Node000001_Node000006" class="edge">
<title>Node1&#45;&gt;Node6</title>
<g id="a_edge5_Node000001_Node000006"><a xlink:title=" ">
<path fill="none" stroke="#63b8ff" d="M408.28,-91.75C392.78,-84.45 373.76,-75.95 356.25,-69.38 347.48,-66.08 337.9,-62.94 328.82,-60.16"/>
<polygon fill="#63b8ff" stroke="#63b8ff" points="406.49,-94.77 417.02,-95.92 409.5,-88.45 406.49,-94.77"/>
</a>
</g>
</g>
<!-- Node7 -->
<g id="Node000007" class="node">
<title>Node7</title>
<g id="a_Node000007"><a xlink:href="../../d4/d60/classfl_1_1_fx_engine.html#a855db03914c4e3f49b575a9c745026fe" target="_top" xlink:title="Sets the next effect to transition to.">
<polygon fill="white" stroke="#666666" points="353.62,-20.75 224.38,-20.75 224.38,0 353.62,0 353.62,-20.75"/>
<text text-anchor="middle" x="289" y="-7.25" font-family="Helvetica,sans-Serif" font-size="10.00">fl::FxEngine::setNextFx</text>
</a>
</g>
</g>
<!-- Node1&#45;&gt;Node7 -->
<g id="edge6_Node000001_Node000007" class="edge">
<title>Node1&#45;&gt;Node7</title>
<g id="a_edge6_Node000001_Node000007"><a xlink:title=" ">
<path fill="none" stroke="#63b8ff" d="M423.94,-88.24C408.27,-70.84 383.01,-45.63 356.25,-30.38 349.88,-26.75 342.79,-23.71 335.67,-21.19"/>
<polygon fill="#63b8ff" stroke="#63b8ff" points="421,-90.19 430.22,-95.39 426.26,-85.57 421,-90.19"/>
</a>
</g>
</g>
<!-- Node8 -->
<g id="Node000008" class="node">
<title>Node8</title>
<g id="a_Node000008"><a xlink:href="../../d4/d60/classfl_1_1_fx_engine.html#a478ed2a69d36050013ef81ffb59799a0" target="_top" xlink:title="Transitions to the next effect in the sequence.">
<polygon fill="white" stroke="#666666" points="185.75,-20.75 73,-20.75 73,0 185.75,0 185.75,-20.75"/>
<text text-anchor="middle" x="129.38" y="-7.25" font-family="Helvetica,sans-Serif" font-size="10.00">fl::FxEngine::nextFx</text>
</a>
</g>
</g>
<!-- Node7&#45;&gt;Node8 -->
<g id="edge7_Node000007_Node000008" class="edge">
<title>Node7&#45;&gt;Node8</title>
<g id="a_edge7_Node000007_Node000008"><a xlink:title=" ">
<path fill="none" stroke="#63b8ff" d="M212.55,-10.38C203.55,-10.38 194.49,-10.38 185.84,-10.38"/>
<polygon fill="#63b8ff" stroke="#63b8ff" points="212.37,-13.88 222.37,-10.38 212.37,-6.88 212.37,-13.88"/>
</a>
</g>
</g>
<!-- Node9 -->
<g id="Node000009" class="node">
<title>Node9</title>
<g id="a_Node000009"><a xlink:href="../../d6/d35/_fx_engine_8ino.html#afe461d27b9c48d5921c00d521181f12f" target="_top" xlink:title=" ">
<polygon fill="white" stroke="#666666" points="37,-20.75 0,-20.75 0,0 37,0 37,-20.75"/>
<text text-anchor="middle" x="18.5" y="-7.25" font-family="Helvetica,sans-Serif" font-size="10.00">loop</text>
</a>
</g>
</g>
<!-- Node8&#45;&gt;Node9 -->
<g id="edge8_Node000008_Node000009" class="edge">
<title>Node8&#45;&gt;Node9</title>
<g id="a_edge8_Node000008_Node000009"><a xlink:title=" ">
<path fill="none" stroke="#63b8ff" d="M61.39,-10.38C52.63,-10.38 44.32,-10.38 37.46,-10.38"/>
<polygon fill="#63b8ff" stroke="#63b8ff" points="61.15,-13.88 71.15,-10.38 61.15,-6.88 61.15,-13.88"/>
</a>
</g>
</g>
</g>
</svg>
