<?xml version="1.0" encoding="UTF-8" standalone="no"?>
<!DOCTYPE svg PUBLIC "-//W3C//DTD SVG 1.1//EN"
 "http://www.w3.org/Graphics/SVG/1.1/DTD/svg11.dtd">
<!-- Generated by graphviz version 12.2.1 (20241206.2353)
 -->
<!-- Title: fl::FixedMap::prev Pages: 1 -->
<svg width="569pt" height="181pt"
 viewBox="0.00 0.00 569.25 180.75" xmlns="http://www.w3.org/2000/svg" xmlns:xlink="http://www.w3.org/1999/xlink">
<g id="graph0" class="graph" transform="scale(1 1) rotate(0) translate(4 176.75)">
<title>fl::FixedMap::prev</title>
<!-- Node1 -->
<g id="Node000001" class="node">
<title>Node1</title>
<g id="a_Node000001"><a xlink:title=" ">
<polygon fill="#999999" stroke="#666666" points="102.25,-96.75 0,-96.75 0,-76 102.25,-76 102.25,-96.75"/>
<text text-anchor="middle" x="51.12" y="-83.25" font-family="Helvetica,sans-Serif" font-size="10.00">fl::FixedMap::prev</text>
</a>
</g>
</g>
<!-- Node2 -->
<g id="Node000002" class="node">
<title>Node2</title>
<g id="a_Node000002"><a xlink:href="../../d2/df3/classfl_1_1_fixed_map.html#a5bcfb52c7949403994eed767316e237b" target="_top" xlink:title=" ">
<polygon fill="white" stroke="#666666" points="400.88,-124.75 293.38,-124.75 293.38,-104 400.88,-104 400.88,-124.75"/>
<text text-anchor="middle" x="347.12" y="-111.25" font-family="Helvetica,sans-Serif" font-size="10.00">fl::FixedMap::begin</text>
</a>
</g>
</g>
<!-- Node1&#45;&gt;Node2 -->
<g id="edge1_Node000001_Node000002" class="edge">
<title>Node1&#45;&gt;Node2</title>
<g id="a_edge1_Node000001_Node000002"><a xlink:title=" ">
<path fill="none" stroke="#63b8ff" d="M94.36,-97.23C108.25,-100.38 123.83,-103.49 138.25,-105.38 185.95,-111.62 240.27,-113.8 281.42,-114.46"/>
<polygon fill="#63b8ff" stroke="#63b8ff" points="281.37,-117.96 291.42,-114.59 281.47,-110.96 281.37,-117.96"/>
</a>
</g>
</g>
<!-- Node4 -->
<g id="Node000004" class="node">
<title>Node4</title>
<g id="a_Node000004"><a xlink:href="../../d2/df3/classfl_1_1_fixed_map.html#aaa4e5e58299a89ab5a6784b011b2b2a7" target="_top" xlink:title=" ">
<polygon fill="white" stroke="#666666" points="250.25,-172.75 138.25,-172.75 138.25,-152 250.25,-152 250.25,-172.75"/>
<text text-anchor="middle" x="194.25" y="-159.25" font-family="Helvetica,sans-Serif" font-size="10.00">fl::FixedMap::empty</text>
</a>
</g>
</g>
<!-- Node1&#45;&gt;Node4 -->
<g id="edge3_Node000001_Node000004" class="edge">
<title>Node1&#45;&gt;Node4</title>
<g id="a_edge3_Node000001_Node000004"><a xlink:title=" ">
<path fill="none" stroke="#63b8ff" d="M68.58,-97.21C85.65,-108.22 113.27,-125.46 138.25,-138.38 144.06,-141.38 150.33,-144.35 156.48,-147.13"/>
<polygon fill="#63b8ff" stroke="#63b8ff" points="154.67,-150.16 165.24,-150.98 157.49,-143.75 154.67,-150.16"/>
</a>
</g>
</g>
<!-- Node6 -->
<g id="Node000006" class="node">
<title>Node6</title>
<g id="a_Node000006"><a xlink:href="../../d2/df3/classfl_1_1_fixed_map.html#a25851b559aa5ae81d52c0c5792d10bf5" target="_top" xlink:title=" ">
<polygon fill="white" stroke="#666666" points="396.38,-67.75 297.88,-67.75 297.88,-47 396.38,-47 396.38,-67.75"/>
<text text-anchor="middle" x="347.12" y="-54.25" font-family="Helvetica,sans-Serif" font-size="10.00">fl::FixedMap::end</text>
</a>
</g>
</g>
<!-- Node1&#45;&gt;Node6 -->
<g id="edge5_Node000001_Node000006" class="edge">
<title>Node1&#45;&gt;Node6</title>
<g id="a_edge5_Node000001_Node000006"><a xlink:title=" ">
<path fill="none" stroke="#63b8ff" d="M94.36,-75.56C108.25,-72.41 123.83,-69.3 138.25,-67.38 187.85,-60.76 244.61,-58.38 286.28,-57.58"/>
<polygon fill="#63b8ff" stroke="#63b8ff" points="286.16,-61.08 296.1,-57.42 286.04,-54.08 286.16,-61.08"/>
</a>
</g>
</g>
<!-- Node8 -->
<g id="Node000008" class="node">
<title>Node8</title>
<g id="a_Node000008"><a xlink:href="../../d2/df3/classfl_1_1_fixed_map.html#a85134d13ee9474e0ac60284e965ccbb3" target="_top" xlink:title=" ">
<polygon fill="white" stroke="#666666" points="243.5,-96.75 145,-96.75 145,-76 243.5,-76 243.5,-96.75"/>
<text text-anchor="middle" x="194.25" y="-83.25" font-family="Helvetica,sans-Serif" font-size="10.00">fl::FixedMap::find</text>
</a>
</g>
</g>
<!-- Node1&#45;&gt;Node8 -->
<g id="edge7_Node000001_Node000008" class="edge">
<title>Node1&#45;&gt;Node8</title>
<g id="a_edge7_Node000001_Node000008"><a xlink:title=" ">
<path fill="none" stroke="#63b8ff" d="M102.68,-86.38C112.67,-86.38 123.26,-86.38 133.53,-86.38"/>
<polygon fill="#63b8ff" stroke="#63b8ff" points="133.43,-89.88 143.43,-86.38 133.43,-82.88 133.43,-89.88"/>
</a>
</g>
</g>
<!-- Node9 -->
<g id="Node000009" class="node">
<title>Node9</title>
<g id="a_Node000009"><a xlink:href="../../d3/d73/classfl_1_1_fixed_vector.html#a1481ce4fe3255eceeefc7f876743a929" target="_top" xlink:title=" ">
<polygon fill="white" stroke="#666666" points="249.12,-20.75 139.38,-20.75 139.38,0 249.12,0 249.12,-20.75"/>
<text text-anchor="middle" x="194.25" y="-7.25" font-family="Helvetica,sans-Serif" font-size="10.00">fl::FixedVector::size</text>
</a>
</g>
</g>
<!-- Node1&#45;&gt;Node9 -->
<g id="edge10_Node000001_Node000009" class="edge">
<title>Node1&#45;&gt;Node9</title>
<g id="a_edge10_Node000001_Node000009"><a xlink:title=" ">
<path fill="none" stroke="#63b8ff" d="M68.58,-75.54C85.65,-64.53 113.27,-47.29 138.25,-34.38 144.06,-31.37 150.33,-28.4 156.48,-25.62"/>
<polygon fill="#63b8ff" stroke="#63b8ff" points="157.49,-29 165.24,-21.77 154.67,-22.59 157.49,-29"/>
</a>
</g>
</g>
<!-- Node3 -->
<g id="Node000003" class="node">
<title>Node3</title>
<g id="a_Node000003"><a xlink:href="../../d3/d73/classfl_1_1_fixed_vector.html#a7ae4440fe977cc6495819cac64b7ad1a" target="_top" xlink:title=" ">
<polygon fill="white" stroke="#666666" points="561.25,-124.75 444,-124.75 444,-104 561.25,-104 561.25,-124.75"/>
<text text-anchor="middle" x="502.62" y="-111.25" font-family="Helvetica,sans-Serif" font-size="10.00">fl::FixedVector::begin</text>
</a>
</g>
</g>
<!-- Node2&#45;&gt;Node3 -->
<g id="edge2_Node000002_Node000003" class="edge">
<title>Node2&#45;&gt;Node3</title>
<g id="a_edge2_Node000002_Node000003"><a xlink:title=" ">
<path fill="none" stroke="#63b8ff" d="M400.95,-114.38C411.08,-114.38 421.82,-114.38 432.37,-114.38"/>
<polygon fill="#63b8ff" stroke="#63b8ff" points="432.2,-117.88 442.2,-114.38 432.2,-110.88 432.2,-117.88"/>
</a>
</g>
</g>
<!-- Node5 -->
<g id="Node000005" class="node">
<title>Node5</title>
<g id="a_Node000005"><a xlink:href="../../d3/d73/classfl_1_1_fixed_vector.html#aa9b4bb53ec2f9d7ed6c2d237b22489b5" target="_top" xlink:title=" ">
<polygon fill="white" stroke="#666666" points="408,-172.75 286.25,-172.75 286.25,-152 408,-152 408,-172.75"/>
<text text-anchor="middle" x="347.12" y="-159.25" font-family="Helvetica,sans-Serif" font-size="10.00">fl::FixedVector::empty</text>
</a>
</g>
</g>
<!-- Node4&#45;&gt;Node5 -->
<g id="edge4_Node000004_Node000005" class="edge">
<title>Node4&#45;&gt;Node5</title>
<g id="a_edge4_Node000004_Node000005"><a xlink:title=" ">
<path fill="none" stroke="#63b8ff" d="M250.57,-162.38C258.4,-162.38 266.55,-162.38 274.63,-162.38"/>
<polygon fill="#63b8ff" stroke="#63b8ff" points="274.47,-165.88 284.47,-162.38 274.47,-158.88 274.47,-165.88"/>
</a>
</g>
</g>
<!-- Node7 -->
<g id="Node000007" class="node">
<title>Node7</title>
<g id="a_Node000007"><a xlink:href="../../d3/d73/classfl_1_1_fixed_vector.html#af8f3eb485dff77110efec26993f206c4" target="_top" xlink:title=" ">
<polygon fill="white" stroke="#666666" points="556.75,-67.75 448.5,-67.75 448.5,-47 556.75,-47 556.75,-67.75"/>
<text text-anchor="middle" x="502.62" y="-54.25" font-family="Helvetica,sans-Serif" font-size="10.00">fl::FixedVector::end</text>
</a>
</g>
</g>
<!-- Node6&#45;&gt;Node7 -->
<g id="edge6_Node000006_Node000007" class="edge">
<title>Node6&#45;&gt;Node7</title>
<g id="a_edge6_Node000006_Node000007"><a xlink:title=" ">
<path fill="none" stroke="#63b8ff" d="M396.69,-57.38C409.46,-57.38 423.43,-57.38 436.89,-57.38"/>
<polygon fill="#63b8ff" stroke="#63b8ff" points="436.53,-60.88 446.53,-57.38 436.53,-53.88 436.53,-60.88"/>
</a>
</g>
</g>
<!-- Node8&#45;&gt;Node2 -->
<g id="edge8_Node000008_Node000002" class="edge">
<title>Node8&#45;&gt;Node2</title>
<g id="a_edge8_Node000008_Node000002"><a xlink:title=" ">
<path fill="none" stroke="#63b8ff" d="M243.82,-95.39C255.94,-97.64 269.14,-100.09 281.89,-102.45"/>
<polygon fill="#63b8ff" stroke="#63b8ff" points="280.99,-105.85 291.46,-104.23 282.27,-98.96 280.99,-105.85"/>
</a>
</g>
</g>
<!-- Node8&#45;&gt;Node6 -->
<g id="edge9_Node000008_Node000006" class="edge">
<title>Node8&#45;&gt;Node6</title>
<g id="a_edge9_Node000008_Node000006"><a xlink:title=" ">
<path fill="none" stroke="#63b8ff" d="M243.82,-77.04C257.34,-74.44 272.2,-71.58 286.29,-68.88"/>
<polygon fill="#63b8ff" stroke="#63b8ff" points="286.74,-72.35 295.9,-67.03 285.42,-65.48 286.74,-72.35"/>
</a>
</g>
</g>
</g>
</svg>
