<?xml version="1.0" encoding="UTF-8" standalone="no"?>
<!DOCTYPE svg PUBLIC "-//W3C//DTD SVG 1.1//EN"
 "http://www.w3.org/Graphics/SVG/1.1/DTD/svg11.dtd">
<!-- Generated by graphviz version 12.2.1 (20241206.2353)
 -->
<!-- Title: fl::FixedMap::insert Pages: 1 -->
<svg width="571pt" height="185pt"
 viewBox="0.00 0.00 570.75 184.75" xmlns="http://www.w3.org/2000/svg" xmlns:xlink="http://www.w3.org/1999/xlink">
<g id="graph0" class="graph" transform="scale(1 1) rotate(0) translate(4 180.75)">
<title>fl::FixedMap::insert</title>
<!-- Node1 -->
<g id="Node000001" class="node">
<title>Node1</title>
<g id="a_Node000001"><a xlink:title=" ">
<polygon fill="#999999" stroke="#666666" points="562.75,-98.75 454.5,-98.75 454.5,-78 562.75,-78 562.75,-98.75"/>
<text text-anchor="middle" x="508.62" y="-85.25" font-family="Helvetica,sans-Serif" font-size="10.00">fl::FixedMap::insert</text>
</a>
</g>
</g>
<!-- Node2 -->
<g id="Node000002" class="node">
<title>Node2</title>
<g id="a_Node000002"><a xlink:href="../../d4/d60/classfl_1_1_fx_engine.html#a1e840a27e09686190e44844b3f062642" target="_top" xlink:title="Adds a new effect to the engine.">
<polygon fill="white" stroke="#666666" points="405.75,-156.75 296.75,-156.75 296.75,-136 405.75,-136 405.75,-156.75"/>
<text text-anchor="middle" x="351.25" y="-143.25" font-family="Helvetica,sans-Serif" font-size="10.00">fl::FxEngine::addFx</text>
</a>
</g>
</g>
<!-- Node1&#45;&gt;Node2 -->
<g id="edge1_Node000001_Node000002" class="edge">
<title>Node1&#45;&gt;Node2</title>
<g id="a_edge1_Node000001_Node000002"><a xlink:title=" ">
<path fill="none" stroke="#63b8ff" d="M468.09,-103.13C441.01,-113.24 405.7,-126.42 381.22,-135.56"/>
<polygon fill="#63b8ff" stroke="#63b8ff" points="469.2,-106.45 477.35,-99.68 466.75,-99.9 469.2,-106.45"/>
</a>
</g>
</g>
<!-- Node4 -->
<g id="Node000004" class="node">
<title>Node4</title>
<g id="a_Node000004"><a xlink:href="../../d2/d78/classfl_1_1_screen_map.html#a9f8cd0b572681ab80ae7a5f781957279" target="_top" xlink:title=" ">
<polygon fill="white" stroke="#666666" points="418.5,-98.75 284,-98.75 284,-78 418.5,-78 418.5,-98.75"/>
<text text-anchor="middle" x="351.25" y="-85.25" font-family="Helvetica,sans-Serif" font-size="10.00">fl::ScreenMap::ParseJson</text>
</a>
</g>
</g>
<!-- Node1&#45;&gt;Node4 -->
<g id="edge3_Node000001_Node000004" class="edge">
<title>Node1&#45;&gt;Node4</title>
<g id="a_edge3_Node000001_Node000004"><a xlink:title=" ">
<path fill="none" stroke="#63b8ff" d="M442.8,-88.38C434.93,-88.38 426.89,-88.38 419,-88.38"/>
<polygon fill="#63b8ff" stroke="#63b8ff" points="442.64,-91.88 452.64,-88.38 442.64,-84.88 442.64,-91.88"/>
</a>
</g>
</g>
<!-- Node10 -->
<g id="Node000010" class="node">
<title>Node10</title>
<g id="a_Node000010"><a xlink:href="../../d2/df3/classfl_1_1_fixed_map.html#aa0d6bdcd0a910553c308d92c6ead41b0" target="_top" xlink:title=" ">
<polygon fill="white" stroke="#666666" points="408.38,-59.75 294.12,-59.75 294.12,-39 408.38,-39 408.38,-59.75"/>
<text text-anchor="middle" x="351.25" y="-46.25" font-family="Helvetica,sans-Serif" font-size="10.00">fl::FixedMap::update</text>
</a>
</g>
</g>
<!-- Node1&#45;&gt;Node10 -->
<g id="edge9_Node000001_Node000010" class="edge">
<title>Node1&#45;&gt;Node10</title>
<g id="a_edge9_Node000001_Node000010"><a xlink:title=" ">
<path fill="none" stroke="#63b8ff" d="M453.2,-74.71C434.32,-69.98 413.43,-64.73 395.57,-60.25"/>
<polygon fill="#63b8ff" stroke="#63b8ff" points="452.33,-78.1 462.88,-77.14 454.03,-71.31 452.33,-78.1"/>
</a>
</g>
</g>
<!-- Node3 -->
<g id="Node000003" class="node">
<title>Node3</title>
<g id="a_Node000003"><a xlink:href="../../d6/d35/_fx_engine_8ino.html#a4fc01d736fe50cf5b977f755b675f11d" target="_top" xlink:title=" ">
<polygon fill="white" stroke="#666666" points="185,-176.75 142,-176.75 142,-156 185,-156 185,-176.75"/>
<text text-anchor="middle" x="163.5" y="-163.25" font-family="Helvetica,sans-Serif" font-size="10.00">setup</text>
</a>
</g>
</g>
<!-- Node2&#45;&gt;Node3 -->
<g id="edge2_Node000002_Node000003" class="edge">
<title>Node2&#45;&gt;Node3</title>
<g id="a_edge2_Node000002_Node000003"><a xlink:title=" ">
<path fill="none" stroke="#63b8ff" d="M285.4,-153.36C250.42,-157.12 209.58,-161.52 185.44,-164.12"/>
<polygon fill="#63b8ff" stroke="#63b8ff" points="285.45,-156.87 295.02,-152.32 284.7,-149.91 285.45,-156.87"/>
</a>
</g>
</g>
<!-- Node5 -->
<g id="Node000005" class="node">
<title>Node5</title>
<g id="a_Node000005"><a xlink:href="../../d2/d78/classfl_1_1_screen_map.html#a01e5310537235df9e8dc911692339a9b" target="_top" xlink:title=" ">
<polygon fill="white" stroke="#666666" points="230.75,-137.75 96.25,-137.75 96.25,-117 230.75,-117 230.75,-137.75"/>
<text text-anchor="middle" x="163.5" y="-124.25" font-family="Helvetica,sans-Serif" font-size="10.00">fl::ScreenMap::ParseJson</text>
</a>
</g>
</g>
<!-- Node4&#45;&gt;Node5 -->
<g id="edge4_Node000004_Node000005" class="edge">
<title>Node4&#45;&gt;Node5</title>
<g id="a_edge4_Node000004_Node000005"><a xlink:title=" ">
<path fill="none" stroke="#63b8ff" d="M287.4,-101.57C264.26,-106.43 238.34,-111.87 216.29,-116.5"/>
<polygon fill="#63b8ff" stroke="#63b8ff" points="287.96,-105.03 297.03,-99.55 286.52,-98.18 287.96,-105.03"/>
</a>
</g>
</g>
<!-- Node6 -->
<g id="Node000006" class="node">
<title>Node6</title>
<g id="a_Node000006"><a xlink:href="../../df/d37/classfl_1_1_file_system.html#a456623ea357257e417994ecb4daf7408" target="_top" xlink:title=" ">
<polygon fill="white" stroke="#666666" points="245.38,-98.75 81.62,-98.75 81.62,-78 245.38,-78 245.38,-98.75"/>
<text text-anchor="middle" x="163.5" y="-85.25" font-family="Helvetica,sans-Serif" font-size="10.00">fl::FileSystem::readScreenMap</text>
</a>
</g>
</g>
<!-- Node4&#45;&gt;Node6 -->
<g id="edge5_Node000004_Node000006" class="edge">
<title>Node4&#45;&gt;Node6</title>
<g id="a_edge5_Node000004_Node000006"><a xlink:title=" ">
<path fill="none" stroke="#63b8ff" d="M272.33,-88.38C263.56,-88.38 254.62,-88.38 245.81,-88.38"/>
<polygon fill="#63b8ff" stroke="#63b8ff" points="272.2,-91.88 282.2,-88.38 272.2,-84.88 272.2,-91.88"/>
</a>
</g>
</g>
<!-- Node8 -->
<g id="Node000008" class="node">
<title>Node8</title>
<g id="a_Node000008"><a xlink:href="../../df/d37/classfl_1_1_file_system.html#a65df0d1c647d87b65a58e66e630b071d" target="_top" xlink:title=" ">
<polygon fill="white" stroke="#666666" points="248,-59.75 79,-59.75 79,-39 248,-39 248,-59.75"/>
<text text-anchor="middle" x="163.5" y="-46.25" font-family="Helvetica,sans-Serif" font-size="10.00">fl::FileSystem::readScreenMaps</text>
</a>
</g>
</g>
<!-- Node4&#45;&gt;Node8 -->
<g id="edge7_Node000004_Node000008" class="edge">
<title>Node4&#45;&gt;Node8</title>
<g id="a_edge7_Node000004_Node000008"><a xlink:title=" ">
<path fill="none" stroke="#63b8ff" d="M287.4,-75.18C264.26,-70.32 238.34,-64.88 216.29,-60.25"/>
<polygon fill="#63b8ff" stroke="#63b8ff" points="286.52,-78.57 297.03,-77.2 287.96,-71.72 286.52,-78.57"/>
</a>
</g>
</g>
<!-- Node9 -->
<g id="Node000009" class="node">
<title>Node9</title>
<g id="a_Node000009"><a xlink:href="../../d1/ddb/_chromancer_8ino.html#a4fc01d736fe50cf5b977f755b675f11d" target="_top" xlink:title=" ">
<polygon fill="white" stroke="#666666" points="185,-20.75 142,-20.75 142,0 185,0 185,-20.75"/>
<text text-anchor="middle" x="163.5" y="-7.25" font-family="Helvetica,sans-Serif" font-size="10.00">setup</text>
</a>
</g>
</g>
<!-- Node4&#45;&gt;Node9 -->
<g id="edge8_Node000004_Node000009" class="edge">
<title>Node4&#45;&gt;Node9</title>
<g id="a_edge8_Node000004_Node000009"><a xlink:title=" ">
<path fill="none" stroke="#63b8ff" d="M292.75,-73.11C289.72,-71.67 286.78,-70.09 284,-68.38 264.2,-56.16 268.15,-42.01 248,-30.38 228.51,-19.12 202.96,-14.18 185.28,-12.03"/>
<polygon fill="#63b8ff" stroke="#63b8ff" points="291.33,-76.32 301.91,-76.97 294.05,-69.87 291.33,-76.32"/>
</a>
</g>
</g>
<!-- Node7 -->
<g id="Node000007" class="node">
<title>Node7</title>
<g id="a_Node000007"><a xlink:href="../../d7/d35/_fx_sd_card_8ino.html#a4fc01d736fe50cf5b977f755b675f11d" target="_top" xlink:title=" ">
<polygon fill="white" stroke="#666666" points="43,-98.75 0,-98.75 0,-78 43,-78 43,-98.75"/>
<text text-anchor="middle" x="21.5" y="-85.25" font-family="Helvetica,sans-Serif" font-size="10.00">setup</text>
</a>
</g>
</g>
<!-- Node6&#45;&gt;Node7 -->
<g id="edge6_Node000006_Node000007" class="edge">
<title>Node6&#45;&gt;Node7</title>
<g id="a_edge6_Node000006_Node000007"><a xlink:title=" ">
<path fill="none" stroke="#63b8ff" d="M70.05,-88.38C60.14,-88.38 50.91,-88.38 43.26,-88.38"/>
<polygon fill="#63b8ff" stroke="#63b8ff" points="69.95,-91.88 79.95,-88.38 69.95,-84.88 69.95,-91.88"/>
</a>
</g>
</g>
</g>
</svg>
