<?xml version="1.0" encoding="UTF-8" standalone="no"?>
<!DOCTYPE svg PUBLIC "-//W3C//DTD SVG 1.1//EN"
 "http://www.w3.org/Graphics/SVG/1.1/DTD/svg11.dtd">
<!-- Generated by graphviz version 12.2.1 (20241206.2353)
 -->
<!-- Title: fl::FixedMap::begin Pages: 1 -->
<svg width="792pt" height="584pt"
 viewBox="0.00 0.00 792.25 583.50" xmlns="http://www.w3.org/2000/svg" xmlns:xlink="http://www.w3.org/1999/xlink">
<g id="graph0" class="graph" transform="scale(1 1) rotate(0) translate(4 579.5)">
<title>fl::FixedMap::begin</title>
<!-- Node1 -->
<g id="Node000001" class="node">
<title>Node1</title>
<g id="a_Node000001"><a xlink:title=" ">
<polygon fill="#999999" stroke="#666666" points="784.25,-172.89 676.75,-172.89 676.75,-152.14 784.25,-152.14 784.25,-172.89"/>
<text text-anchor="middle" x="730.5" y="-159.39" font-family="Helvetica,sans-Serif" font-size="10.00">fl::FixedMap::begin</text>
</a>
</g>
</g>
<!-- Node2 -->
<g id="Node000002" class="node">
<title>Node2</title>
<g id="a_Node000002"><a xlink:href="../../d2/df3/classfl_1_1_fixed_map.html#a85134d13ee9474e0ac60284e965ccbb3" target="_top" xlink:title=" ">
<polygon fill="white" stroke="#666666" points="631.75,-299.89 533.25,-299.89 533.25,-279.14 631.75,-279.14 631.75,-299.89"/>
<text text-anchor="middle" x="582.5" y="-286.39" font-family="Helvetica,sans-Serif" font-size="10.00">fl::FixedMap::find</text>
</a>
</g>
</g>
<!-- Node1&#45;&gt;Node2 -->
<g id="edge1_Node000001_Node000002" class="edge">
<title>Node1&#45;&gt;Node2</title>
<g id="a_edge1_Node000001_Node000002"><a xlink:title=" ">
<path fill="none" stroke="#63b8ff" d="M710.32,-180.67C692.55,-197.33 665.26,-222.52 640.75,-243.52 626.23,-255.96 609.07,-269.61 597.35,-278.79"/>
<polygon fill="#63b8ff" stroke="#63b8ff" points="712.23,-183.67 717.12,-174.27 707.43,-178.58 712.23,-183.67"/>
</a>
</g>
</g>
<!-- Node25 -->
<g id="Node000025" class="node">
<title>Node25</title>
<g id="a_Node000025"><a xlink:href="../../d2/df3/classfl_1_1_fixed_map.html#a86e9680f024d9fb7a7fa9f96a90f4a1e" target="_top" xlink:title=" ">
<polygon fill="white" stroke="#666666" points="465.75,-517.89 363.5,-517.89 363.5,-497.14 465.75,-497.14 465.75,-517.89"/>
<text text-anchor="middle" x="414.62" y="-504.39" font-family="Helvetica,sans-Serif" font-size="10.00">fl::FixedMap::next</text>
</a>
</g>
</g>
<!-- Node1&#45;&gt;Node25 -->
<g id="edge39_Node000001_Node000025" class="edge">
<title>Node1&#45;&gt;Node25</title>
<g id="a_edge39_Node000001_Node000025"><a xlink:title=" ">
<path fill="none" stroke="#63b8ff" d="M720.64,-183.33C694.59,-241.84 612.17,-408.62 488.25,-487.52 481.52,-491.8 473.87,-495.18 466.13,-497.84"/>
<polygon fill="#63b8ff" stroke="#63b8ff" points="723.7,-185.08 724.49,-174.52 717.28,-182.28 723.7,-185.08"/>
</a>
</g>
</g>
<!-- Node28 -->
<g id="Node000028" class="node">
<title>Node28</title>
<g id="a_Node000028"><a xlink:href="../../d2/df3/classfl_1_1_fixed_map.html#a35706a466e8c68cf3c5e9b8c94f8e17d" target="_top" xlink:title=" ">
<polygon fill="white" stroke="#666666" points="465.75,-145.89 363.5,-145.89 363.5,-125.14 465.75,-125.14 465.75,-145.89"/>
<text text-anchor="middle" x="414.62" y="-132.39" font-family="Helvetica,sans-Serif" font-size="10.00">fl::FixedMap::prev</text>
</a>
</g>
</g>
<!-- Node1&#45;&gt;Node28 -->
<g id="edge40_Node000001_Node000028" class="edge">
<title>Node1&#45;&gt;Node28</title>
<g id="a_edge40_Node000001_Node000028"><a xlink:title=" ">
<path fill="none" stroke="#63b8ff" d="M705.84,-179.54C688.7,-190.79 664.46,-204.52 640.75,-210.52 590.55,-223.22 570.22,-234.34 524.25,-210.52 499.62,-197.75 510.54,-176.03 488.25,-159.52 480.78,-153.98 471.97,-149.68 463.1,-146.35"/>
<polygon fill="#63b8ff" stroke="#63b8ff" points="707.5,-182.65 713.81,-174.13 703.57,-176.85 707.5,-182.65"/>
</a>
</g>
</g>
<!-- Node29 -->
<g id="Node000029" class="node">
<title>Node29</title>
<g id="a_Node000029"><a xlink:href="../../d2/df3/classfl_1_1_fixed_map.html#a8bcf77d4d868a69200434b127876d928" target="_top" xlink:title=" ">
<polygon fill="white" stroke="#666666" points="631.75,-201.89 533.25,-201.89 533.25,-181.14 631.75,-181.14 631.75,-201.89"/>
<text text-anchor="middle" x="582.5" y="-188.39" font-family="Helvetica,sans-Serif" font-size="10.00">fl::FixedMap::find</text>
</a>
</g>
</g>
<!-- Node1&#45;&gt;Node29 -->
<g id="edge30_Node000001_Node000029" class="edge">
<title>Node1&#45;&gt;Node29</title>
<g id="a_edge30_Node000001_Node000029"><a xlink:title=" ">
<path fill="none" stroke="#63b8ff" d="M665.32,-175.26C654.13,-177.49 642.66,-179.77 631.98,-181.89"/>
<polygon fill="#63b8ff" stroke="#63b8ff" points="665.77,-178.74 674.89,-173.36 664.4,-171.88 665.77,-178.74"/>
</a>
</g>
</g>
<!-- Node30 -->
<g id="Node000030" class="node">
<title>Node30</title>
<g id="a_Node000030"><a xlink:href="../../d2/df3/classfl_1_1_fixed_map.html#a8e3ea2bf1427c91405418b7b1a629f47" target="_top" xlink:title=" ">
<polygon fill="white" stroke="#666666" points="640.75,-144.89 524.25,-144.89 524.25,-124.14 640.75,-124.14 640.75,-144.89"/>
<text text-anchor="middle" x="582.5" y="-131.39" font-family="Helvetica,sans-Serif" font-size="10.00">fl::FixedMap::highest</text>
</a>
</g>
</g>
<!-- Node1&#45;&gt;Node30 -->
<g id="edge31_Node000001_Node000030" class="edge">
<title>Node1&#45;&gt;Node30</title>
<g id="a_edge31_Node000001_Node000030"><a xlink:title=" ">
<path fill="none" stroke="#63b8ff" d="M665.32,-150.21C656.81,-148.58 648.14,-146.91 639.78,-145.31"/>
<polygon fill="#63b8ff" stroke="#63b8ff" points="664.41,-153.6 674.89,-152.04 665.73,-146.72 664.41,-153.6"/>
</a>
</g>
</g>
<!-- Node31 -->
<g id="Node000031" class="node">
<title>Node31</title>
<g id="a_Node000031"><a xlink:href="../../d2/df3/classfl_1_1_fixed_map.html#a6c64dfe45f7f5f20f5c7cf0990c7e140" target="_top" xlink:title=" ">
<polygon fill="white" stroke="#666666" points="472.88,-106.89 356.38,-106.89 356.38,-86.14 472.88,-86.14 472.88,-106.89"/>
<text text-anchor="middle" x="414.62" y="-93.39" font-family="Helvetica,sans-Serif" font-size="10.00">fl::FixedMap::highest</text>
</a>
</g>
</g>
<!-- Node1&#45;&gt;Node31 -->
<g id="edge34_Node000001_Node000031" class="edge">
<title>Node1&#45;&gt;Node31</title>
<g id="a_edge34_Node000001_Node000031"><a xlink:title=" ">
<path fill="none" stroke="#63b8ff" d="M704.69,-145.87C687.51,-135.25 663.68,-122.25 640.75,-115.52 585.43,-99.27 519.41,-95.42 473.22,-95.08"/>
<polygon fill="#63b8ff" stroke="#63b8ff" points="702.39,-148.56 712.71,-150.98 706.15,-142.65 702.39,-148.56"/>
</a>
</g>
</g>
<!-- Node32 -->
<g id="Node000032" class="node">
<title>Node32</title>
<g id="a_Node000032"><a xlink:href="../../d2/df3/classfl_1_1_fixed_map.html#a3df8268f2e6f56bf468676209b3de6fe" target="_top" xlink:title=" ">
<polygon fill="white" stroke="#666666" points="638.88,-50.89 526.12,-50.89 526.12,-30.14 638.88,-30.14 638.88,-50.89"/>
<text text-anchor="middle" x="582.5" y="-37.39" font-family="Helvetica,sans-Serif" font-size="10.00">fl::FixedMap::lowest</text>
</a>
</g>
</g>
<!-- Node1&#45;&gt;Node32 -->
<g id="edge35_Node000001_Node000032" class="edge">
<title>Node1&#45;&gt;Node32</title>
<g id="a_edge35_Node000001_Node000032"><a xlink:title=" ">
<path fill="none" stroke="#63b8ff" d="M710.01,-143.91C692.36,-127.31 665.41,-102.59 640.75,-82.52 626.98,-71.31 610.59,-59.42 598.88,-51.16"/>
<polygon fill="#63b8ff" stroke="#63b8ff" points="707.57,-146.41 717.24,-150.74 712.38,-141.33 707.57,-146.41"/>
</a>
</g>
</g>
<!-- Node33 -->
<g id="Node000033" class="node">
<title>Node33</title>
<g id="a_Node000033"><a xlink:href="../../d2/df3/classfl_1_1_fixed_map.html#a66dd6159f6d84daf24be85c42a225a91" target="_top" xlink:title=" ">
<polygon fill="white" stroke="#666666" points="471,-31.89 358.25,-31.89 358.25,-11.14 471,-11.14 471,-31.89"/>
<text text-anchor="middle" x="414.62" y="-18.39" font-family="Helvetica,sans-Serif" font-size="10.00">fl::FixedMap::lowest</text>
</a>
</g>
</g>
<!-- Node1&#45;&gt;Node33 -->
<g id="edge38_Node000001_Node000033" class="edge">
<title>Node1&#45;&gt;Node33</title>
<g id="a_edge38_Node000001_Node000033"><a xlink:title=" ">
<path fill="none" stroke="#63b8ff" d="M723.35,-141.15C712.66,-108.47 687.21,-47.17 640.75,-21.52 582.58,10.6 502.39,0.06 455.08,-10.64"/>
<polygon fill="#63b8ff" stroke="#63b8ff" points="719.89,-141.81 726.19,-150.33 726.58,-139.74 719.89,-141.81"/>
</a>
</g>
</g>
<!-- Node3 -->
<g id="Node000003" class="node">
<title>Node3</title>
<g id="a_Node000003"><a xlink:href="../../d2/df3/classfl_1_1_fixed_map.html#aad1402bd34a5c134fa39bc0593ffd5ba" target="_top" xlink:title=" ">
<polygon fill="white" stroke="#666666" points="285.88,-285.89 189.62,-285.89 189.62,-265.14 285.88,-265.14 285.88,-285.89"/>
<text text-anchor="middle" x="237.75" y="-272.39" font-family="Helvetica,sans-Serif" font-size="10.00">fl::FixedMap::get</text>
</a>
</g>
</g>
<!-- Node2&#45;&gt;Node3 -->
<g id="edge2_Node000002_Node000003" class="edge">
<title>Node2&#45;&gt;Node3</title>
<g id="a_edge2_Node000002_Node000003"><a xlink:title=" ">
<path fill="none" stroke="#63b8ff" d="M526.45,-302.64C513.97,-305.08 500.71,-307.26 488.25,-308.52 423.14,-315.08 405.65,-318.69 341,-308.52 327,-306.31 293.57,-295.09 268.73,-286.34"/>
<polygon fill="#63b8ff" stroke="#63b8ff" points="527.09,-306.08 536.18,-300.64 525.68,-299.22 527.09,-306.08"/>
</a>
</g>
</g>
<!-- Node4 -->
<g id="Node000004" class="node">
<title>Node4</title>
<g id="a_Node000004"><a xlink:href="../../d2/df3/classfl_1_1_fixed_map.html#ac2c703c3d250cdb2c30101766c1810d6" target="_top" xlink:title=" ">
<polygon fill="white" stroke="#666666" points="462.75,-478.89 366.5,-478.89 366.5,-458.14 462.75,-458.14 462.75,-478.89"/>
<text text-anchor="middle" x="414.62" y="-465.39" font-family="Helvetica,sans-Serif" font-size="10.00">fl::FixedMap::get</text>
</a>
</g>
</g>
<!-- Node2&#45;&gt;Node4 -->
<g id="edge3_Node000002_Node000004" class="edge">
<title>Node2&#45;&gt;Node4</title>
<g id="a_edge3_Node000002_Node000004"><a xlink:title=" ">
<path fill="none" stroke="#63b8ff" d="M570.54,-309.88C550.97,-345.65 510.05,-417.76 488.25,-436.52 477.59,-445.68 463.9,-452.62 451.28,-457.66"/>
<polygon fill="#63b8ff" stroke="#63b8ff" points="573.46,-311.83 575.16,-301.38 567.31,-308.49 573.46,-311.83"/>
</a>
</g>
</g>
<!-- Node10 -->
<g id="Node000010" class="node">
<title>Node10</title>
<g id="a_Node000010"><a xlink:href="../../de/d10/classfl_1_1_rectangular_draw_buffer.html#ad2a4686bb98c39141431b31ba9d58150" target="_top" xlink:title=" ">
<polygon fill="white" stroke="#666666" points="488.25,-427.27 341,-427.27 341,-393.77 488.25,-393.77 488.25,-427.27"/>
<text text-anchor="start" x="349" y="-413.77" font-family="Helvetica,sans-Serif" font-size="10.00">fl::RectangularDrawBuffer</text>
<text text-anchor="middle" x="414.62" y="-401.02" font-family="Helvetica,sans-Serif" font-size="10.00">::getLedsBufferBytesForPin</text>
</a>
</g>
</g>
<!-- Node2&#45;&gt;Node10 -->
<g id="edge8_Node000002_Node000010" class="edge">
<title>Node2&#45;&gt;Node10</title>
<g id="a_edge8_Node000002_Node000010"><a xlink:title=" ">
<path fill="none" stroke="#63b8ff" d="M566.67,-309.25C549.78,-330.48 520.35,-363.98 488.25,-384.52 483.06,-387.84 477.39,-390.8 471.58,-393.44"/>
<polygon fill="#63b8ff" stroke="#63b8ff" points="569.41,-311.42 572.78,-301.37 563.88,-307.13 569.41,-311.42"/>
</a>
</g>
</g>
<!-- Node11 -->
<g id="Node000011" class="node">
<title>Node11</title>
<g id="a_Node000011"><a xlink:href="../../d2/df3/classfl_1_1_fixed_map.html#a460e3d43563610531faa13038b8f3682" target="_top" xlink:title=" ">
<polygon fill="white" stroke="#666666" points="463.5,-375.89 365.75,-375.89 365.75,-355.14 463.5,-355.14 463.5,-375.89"/>
<text text-anchor="middle" x="414.62" y="-362.39" font-family="Helvetica,sans-Serif" font-size="10.00">fl::FixedMap::has</text>
</a>
</g>
</g>
<!-- Node2&#45;&gt;Node11 -->
<g id="edge9_Node000002_Node000011" class="edge">
<title>Node2&#45;&gt;Node11</title>
<g id="a_edge9_Node000002_Node000011"><a xlink:title=" ">
<path fill="none" stroke="#63b8ff" d="M554.81,-306.18C536.53,-317.15 511.48,-331.31 488.25,-341.52 476.94,-346.48 464.27,-351.01 452.71,-354.76"/>
<polygon fill="#63b8ff" stroke="#63b8ff" points="556.46,-309.28 563.18,-301.09 552.82,-303.3 556.46,-309.28"/>
</a>
</g>
</g>
<!-- Node17 -->
<g id="Node000017" class="node">
<title>Node17</title>
<g id="a_Node000017"><a xlink:href="../../d2/df3/classfl_1_1_fixed_map.html#a0c2f74febc0761d26128a3a63d225cf2" target="_top" xlink:title=" ">
<polygon fill="white" stroke="#666666" points="468.75,-221.89 360.5,-221.89 360.5,-201.14 468.75,-201.14 468.75,-221.89"/>
<text text-anchor="middle" x="414.62" y="-208.39" font-family="Helvetica,sans-Serif" font-size="10.00">fl::FixedMap::insert</text>
</a>
</g>
</g>
<!-- Node2&#45;&gt;Node17 -->
<g id="edge17_Node000002_Node000017" class="edge">
<title>Node2&#45;&gt;Node17</title>
<g id="a_edge17_Node000002_Node000017"><a xlink:title=" ">
<path fill="none" stroke="#63b8ff" d="M557.8,-272.1C539.56,-259.37 513.3,-242.48 488.25,-231.52 480.22,-228 471.42,-224.96 462.8,-222.38"/>
<polygon fill="#63b8ff" stroke="#63b8ff" points="555.64,-274.86 565.82,-277.8 559.7,-269.15 555.64,-274.86"/>
</a>
</g>
</g>
<!-- Node24 -->
<g id="Node000024" class="node">
<title>Node24</title>
<g id="a_Node000024"><a xlink:href="../../d2/df3/classfl_1_1_fixed_map.html#aa0d6bdcd0a910553c308d92c6ead41b0" target="_top" xlink:title=" ">
<polygon fill="white" stroke="#666666" points="294.88,-168.89 180.62,-168.89 180.62,-148.14 294.88,-148.14 294.88,-168.89"/>
<text text-anchor="middle" x="237.75" y="-155.39" font-family="Helvetica,sans-Serif" font-size="10.00">fl::FixedMap::update</text>
</a>
</g>
</g>
<!-- Node2&#45;&gt;Node24 -->
<g id="edge29_Node000002_Node000024" class="edge">
<title>Node2&#45;&gt;Node24</title>
<g id="a_edge29_Node000002_Node000024"><a xlink:title=" ">
<path fill="none" stroke="#63b8ff" d="M562.95,-271.04C551.67,-259.73 537.02,-244.89 524.25,-231.52 507.96,-214.45 509.17,-203.42 488.25,-192.52 427.68,-160.95 348.1,-155.25 295.28,-155.6"/>
<polygon fill="#63b8ff" stroke="#63b8ff" points="560.22,-273.26 569.77,-277.86 565.17,-268.31 560.22,-273.26"/>
</a>
</g>
</g>
<!-- Node2&#45;&gt;Node25 -->
<g id="edge23_Node000002_Node000025" class="edge">
<title>Node2&#45;&gt;Node25</title>
<g id="a_edge23_Node000002_Node000025"><a xlink:title=" ">
<path fill="none" stroke="#63b8ff" d="M569.58,-310.09C557.47,-331.38 538.51,-365.75 524.25,-396.52 505.96,-435.98 520.62,-458.47 488.25,-487.52 481.92,-493.19 474.13,-497.28 466.02,-500.21"/>
<polygon fill="#63b8ff" stroke="#63b8ff" points="572.54,-311.97 574.48,-301.56 566.46,-308.49 572.54,-311.97"/>
</a>
</g>
</g>
<!-- Node26 -->
<g id="Node000026" class="node">
<title>Node26</title>
<g id="a_Node000026"><a xlink:href="../../d2/df3/classfl_1_1_fixed_map.html#a5c2aef379d79a375b2dd6ed22bef7beb" target="_top" xlink:title=" ">
<polygon fill="white" stroke="#666666" points="479.25,-299.89 350,-299.89 350,-279.14 479.25,-279.14 479.25,-299.89"/>
<text text-anchor="middle" x="414.62" y="-286.39" font-family="Helvetica,sans-Serif" font-size="10.00">fl::FixedMap::operator[]</text>
</a>
</g>
</g>
<!-- Node2&#45;&gt;Node26 -->
<g id="edge26_Node000002_Node000026" class="edge">
<title>Node2&#45;&gt;Node26</title>
<g id="a_edge26_Node000002_Node000026"><a xlink:title=" ">
<path fill="none" stroke="#63b8ff" d="M521.8,-289.52C508.08,-289.52 493.44,-289.52 479.54,-289.52"/>
<polygon fill="#63b8ff" stroke="#63b8ff" points="521.56,-293.02 531.56,-289.52 521.56,-286.02 521.56,-293.02"/>
</a>
</g>
</g>
<!-- Node27 -->
<g id="Node000027" class="node">
<title>Node27</title>
<g id="a_Node000027"><a xlink:href="../../d2/df3/classfl_1_1_fixed_map.html#aa32e21164660946c105d35b3d20ee3bc" target="_top" xlink:title=" ">
<polygon fill="white" stroke="#666666" points="479.25,-260.89 350,-260.89 350,-240.14 479.25,-240.14 479.25,-260.89"/>
<text text-anchor="middle" x="414.62" y="-247.39" font-family="Helvetica,sans-Serif" font-size="10.00">fl::FixedMap::operator[]</text>
</a>
</g>
</g>
<!-- Node2&#45;&gt;Node27 -->
<g id="edge27_Node000002_Node000027" class="edge">
<title>Node2&#45;&gt;Node27</title>
<g id="a_edge27_Node000002_Node000027"><a xlink:title=" ">
<path fill="none" stroke="#63b8ff" d="M524.25,-276.06C503.87,-271.26 481.21,-265.94 461.87,-261.39"/>
<polygon fill="#63b8ff" stroke="#63b8ff" points="523.29,-279.42 533.82,-278.31 524.89,-272.61 523.29,-279.42"/>
</a>
</g>
</g>
<!-- Node2&#45;&gt;Node28 -->
<g id="edge28_Node000002_Node000028" class="edge">
<title>Node2&#45;&gt;Node28</title>
<g id="a_edge28_Node000002_Node000028"><a xlink:title=" ">
<path fill="none" stroke="#63b8ff" d="M554.56,-272.16C544.06,-264.38 532.57,-254.48 524.25,-243.52 499.69,-211.17 518.18,-186.98 488.25,-159.52 481.89,-153.68 474.08,-149.26 465.96,-145.91"/>
<polygon fill="#63b8ff" stroke="#63b8ff" points="552.38,-274.9 562.57,-277.8 556.41,-269.18 552.38,-274.9"/>
</a>
</g>
</g>
<!-- Node5 -->
<g id="Node000005" class="node">
<title>Node5</title>
<g id="a_Node000005"><a xlink:href="../../d4/d60/classfl_1_1_fx_engine.html#aa0b3b17d66712b3c2184d8c59c6b55f1" target="_top" xlink:title="Renders the current effect or transition to the output buffer.">
<polygon fill="#fff0f0" stroke="red" points="289.25,-478.89 186.25,-478.89 186.25,-458.14 289.25,-458.14 289.25,-478.89"/>
<text text-anchor="middle" x="237.75" y="-465.39" font-family="Helvetica,sans-Serif" font-size="10.00">fl::FxEngine::draw</text>
</a>
</g>
</g>
<!-- Node4&#45;&gt;Node5 -->
<g id="edge4_Node000004_Node000005" class="edge">
<title>Node4&#45;&gt;Node5</title>
<g id="a_edge4_Node000004_Node000005"><a xlink:title=" ">
<path fill="none" stroke="#63b8ff" d="M354.83,-468.52C333.64,-468.52 309.92,-468.52 289.48,-468.52"/>
<polygon fill="#63b8ff" stroke="#63b8ff" points="354.79,-472.02 364.79,-468.52 354.79,-465.02 354.79,-472.02"/>
</a>
</g>
</g>
<!-- Node7 -->
<g id="Node000007" class="node">
<title>Node7</title>
<g id="a_Node000007"><a xlink:href="../../d4/d60/classfl_1_1_fx_engine.html#ad7719f0e21da65b52ba415978a2a9f41" target="_top" xlink:title="Retrieves an effect from the engine without removing it.">
<polygon fill="white" stroke="#666666" points="291.12,-439.89 184.38,-439.89 184.38,-419.14 291.12,-419.14 291.12,-439.89"/>
<text text-anchor="middle" x="237.75" y="-426.39" font-family="Helvetica,sans-Serif" font-size="10.00">fl::FxEngine::getFx</text>
</a>
</g>
</g>
<!-- Node4&#45;&gt;Node7 -->
<g id="edge5_Node000004_Node000007" class="edge">
<title>Node4&#45;&gt;Node7</title>
<g id="a_edge5_Node000004_Node000007"><a xlink:title=" ">
<path fill="none" stroke="#63b8ff" d="M355.08,-455.46C333.08,-450.55 308.33,-445.03 287.33,-440.35"/>
<polygon fill="#63b8ff" stroke="#63b8ff" points="354.3,-458.87 364.82,-457.63 355.83,-452.04 354.3,-458.87"/>
</a>
</g>
</g>
<!-- Node8 -->
<g id="Node000008" class="node">
<title>Node8</title>
<g id="a_Node000008"><a xlink:href="../../d4/d60/classfl_1_1_fx_engine.html#acb1a08ee3735bf9269d8a60370b02315" target="_top" xlink:title="Requests removal of an effect from the engine, which might not happen immediately (for example the Fx...">
<polygon fill="white" stroke="#666666" points="302,-517.89 173.5,-517.89 173.5,-497.14 302,-497.14 302,-517.89"/>
<text text-anchor="middle" x="237.75" y="-504.39" font-family="Helvetica,sans-Serif" font-size="10.00">fl::FxEngine::removeFx</text>
</a>
</g>
</g>
<!-- Node4&#45;&gt;Node8 -->
<g id="edge6_Node000004_Node000008" class="edge">
<title>Node4&#45;&gt;Node8</title>
<g id="a_edge6_Node000004_Node000008"><a xlink:title=" ">
<path fill="none" stroke="#63b8ff" d="M355.08,-481.57C333.08,-486.48 308.33,-492 287.33,-496.68"/>
<polygon fill="#63b8ff" stroke="#63b8ff" points="355.83,-484.99 364.82,-479.4 354.3,-478.16 355.83,-484.99"/>
</a>
</g>
</g>
<!-- Node9 -->
<g id="Node000009" class="node">
<title>Node9</title>
<g id="a_Node000009"><a xlink:href="../../d1/ddb/_chromancer_8ino.html#a4fc01d736fe50cf5b977f755b675f11d" target="_top" xlink:title=" ">
<polygon fill="white" stroke="#666666" points="88.75,-346.89 45.75,-346.89 45.75,-326.14 88.75,-326.14 88.75,-346.89"/>
<text text-anchor="middle" x="67.25" y="-333.39" font-family="Helvetica,sans-Serif" font-size="10.00">setup</text>
</a>
</g>
</g>
<!-- Node4&#45;&gt;Node9 -->
<g id="edge7_Node000004_Node000009" class="edge">
<title>Node4&#45;&gt;Node9</title>
<g id="a_edge7_Node000004_Node000009"><a xlink:title=" ">
<path fill="none" stroke="#63b8ff" d="M355.71,-481.31C350.58,-483.37 345.59,-485.76 341,-488.52 321.05,-500.49 326.37,-517.32 305,-526.52 250.09,-550.14 217.15,-563.89 170.5,-526.52 113.28,-480.67 181.12,-422.11 134.5,-365.52 123.16,-351.76 104.02,-344.34 89.22,-340.46"/>
<polygon fill="#63b8ff" stroke="#63b8ff" points="356.7,-484.67 364.94,-478.02 354.35,-478.08 356.7,-484.67"/>
</a>
</g>
</g>
<!-- Node11&#45;&gt;Node3 -->
<g id="edge11_Node000011_Node000003" class="edge">
<title>Node11&#45;&gt;Node3</title>
<g id="a_edge11_Node000011_Node000003"><a xlink:title=" ">
<path fill="none" stroke="#63b8ff" d="M357.53,-350.47C351.73,-347.9 346.1,-344.94 341,-341.52 320.58,-327.82 325.22,-313.5 305,-299.52 297.15,-294.09 287.93,-289.74 278.91,-286.32"/>
<polygon fill="#63b8ff" stroke="#63b8ff" points="356.08,-353.66 366.67,-354.11 358.67,-347.16 356.08,-353.66"/>
</a>
</g>
</g>
<!-- Node11&#45;&gt;Node7 -->
<g id="edge12_Node000011_Node000007" class="edge">
<title>Node11&#45;&gt;Node7</title>
<g id="a_edge12_Node000011_Node000007"><a xlink:title=" ">
<path fill="none" stroke="#63b8ff" d="M354.56,-379.07C349.9,-380.71 345.33,-382.52 341,-384.52 323.31,-392.66 322.54,-401.04 305,-409.52 297.64,-413.07 289.52,-416.15 281.56,-418.75"/>
<polygon fill="#63b8ff" stroke="#63b8ff" points="355.63,-382.4 364.08,-376.01 353.49,-375.74 355.63,-382.4"/>
</a>
</g>
</g>
<!-- Node11&#45;&gt;Node8 -->
<g id="edge14_Node000011_Node000008" class="edge">
<title>Node11&#45;&gt;Node8</title>
<g id="a_edge14_Node000011_Node000008"><a xlink:title=" ">
<path fill="none" stroke="#63b8ff" d="M354.71,-375.34C349.72,-377.78 345.04,-380.79 341,-384.52 305.36,-417.4 340.02,-453.97 305,-487.52 301.1,-491.26 296.52,-494.3 291.62,-496.77"/>
<polygon fill="#63b8ff" stroke="#63b8ff" points="355.92,-378.63 363.91,-371.67 353.32,-372.13 355.92,-378.63"/>
</a>
</g>
</g>
<!-- Node12 -->
<g id="Node000012" class="node">
<title>Node12</title>
<g id="a_Node000012"><a xlink:href="../../d2/df3/classfl_1_1_fixed_map.html#a07b3eefb41dacb2032f572d6a70ff58c" target="_top" xlink:title=" ">
<polygon fill="white" stroke="#666666" points="298.62,-400.89 176.88,-400.89 176.88,-380.14 298.62,-380.14 298.62,-400.89"/>
<text text-anchor="middle" x="237.75" y="-387.39" font-family="Helvetica,sans-Serif" font-size="10.00">fl::FixedMap::contains</text>
</a>
</g>
</g>
<!-- Node11&#45;&gt;Node12 -->
<g id="edge10_Node000011_Node000012" class="edge">
<title>Node11&#45;&gt;Node12</title>
<g id="a_edge10_Node000011_Node000012"><a xlink:title=" ">
<path fill="none" stroke="#63b8ff" d="M354,-374.04C336.25,-376.58 316.8,-379.36 299.02,-381.9"/>
<polygon fill="#63b8ff" stroke="#63b8ff" points="354.47,-377.51 363.88,-372.63 353.48,-370.58 354.47,-377.51"/>
</a>
</g>
</g>
<!-- Node13 -->
<g id="Node000013" class="node">
<title>Node13</title>
<g id="a_Node000013"><a xlink:href="../../d2/d78/classfl_1_1_screen_map.html#a01e5310537235df9e8dc911692339a9b" target="_top" xlink:title=" ">
<polygon fill="white" stroke="#666666" points="134.5,-289.89 0,-289.89 0,-269.14 134.5,-269.14 134.5,-289.89"/>
<text text-anchor="middle" x="67.25" y="-276.39" font-family="Helvetica,sans-Serif" font-size="10.00">fl::ScreenMap::ParseJson</text>
</a>
</g>
</g>
<!-- Node11&#45;&gt;Node13 -->
<g id="edge13_Node000011_Node000013" class="edge">
<title>Node11&#45;&gt;Node13</title>
<g id="a_edge13_Node000011_Node000013"><a xlink:title=" ">
<path fill="none" stroke="#63b8ff" d="M369.73,-351.36C350.03,-345.23 326.45,-338.17 305,-332.52 242.68,-316.1 170.29,-300.37 122.12,-290.38"/>
<polygon fill="#63b8ff" stroke="#63b8ff" points="368.5,-354.65 379.09,-354.31 370.6,-347.97 368.5,-354.65"/>
</a>
</g>
</g>
<!-- Node14 -->
<g id="Node000014" class="node">
<title>Node14</title>
<g id="a_Node000014"><a xlink:href="../../d4/d60/classfl_1_1_fx_engine.html#a855db03914c4e3f49b575a9c745026fe" target="_top" xlink:title="Sets the next effect to transition to.">
<polygon fill="white" stroke="#666666" points="302.38,-361.89 173.12,-361.89 173.12,-341.14 302.38,-341.14 302.38,-361.89"/>
<text text-anchor="middle" x="237.75" y="-348.39" font-family="Helvetica,sans-Serif" font-size="10.00">fl::FxEngine::setNextFx</text>
</a>
</g>
</g>
<!-- Node11&#45;&gt;Node14 -->
<g id="edge15_Node000011_Node000014" class="edge">
<title>Node11&#45;&gt;Node14</title>
<g id="a_edge15_Node000011_Node000014"><a xlink:title=" ">
<path fill="none" stroke="#63b8ff" d="M354.15,-360.75C337.54,-359.42 319.42,-357.97 302.56,-356.62"/>
<polygon fill="#63b8ff" stroke="#63b8ff" points="353.62,-364.22 363.87,-361.53 354.18,-357.25 353.62,-364.22"/>
</a>
</g>
</g>
<!-- Node15 -->
<g id="Node000015" class="node">
<title>Node15</title>
<g id="a_Node000015"><a xlink:href="../../d4/d60/classfl_1_1_fx_engine.html#a478ed2a69d36050013ef81ffb59799a0" target="_top" xlink:title="Transitions to the next effect in the sequence.">
<polygon fill="#fff0f0" stroke="red" points="123.62,-394.89 10.88,-394.89 10.88,-374.14 123.62,-374.14 123.62,-394.89"/>
<text text-anchor="middle" x="67.25" y="-381.39" font-family="Helvetica,sans-Serif" font-size="10.00">fl::FxEngine::nextFx</text>
</a>
</g>
</g>
<!-- Node14&#45;&gt;Node15 -->
<g id="edge16_Node000014_Node000015" class="edge">
<title>Node14&#45;&gt;Node15</title>
<g id="a_edge16_Node000014_Node000015"><a xlink:title=" ">
<path fill="none" stroke="#63b8ff" d="M170.45,-364.5C154.92,-367.54 138.54,-370.75 123.55,-373.69"/>
<polygon fill="#63b8ff" stroke="#63b8ff" points="170.95,-367.97 180.09,-362.61 169.61,-361.1 170.95,-367.97"/>
</a>
</g>
</g>
<!-- Node18 -->
<g id="Node000018" class="node">
<title>Node18</title>
<g id="a_Node000018"><a xlink:href="../../d4/d60/classfl_1_1_fx_engine.html#a1e840a27e09686190e44844b3f062642" target="_top" xlink:title="Adds a new effect to the engine.">
<polygon fill="#fff0f0" stroke="red" points="292.25,-207.89 183.25,-207.89 183.25,-187.14 292.25,-187.14 292.25,-207.89"/>
<text text-anchor="middle" x="237.75" y="-194.39" font-family="Helvetica,sans-Serif" font-size="10.00">fl::FxEngine::addFx</text>
</a>
</g>
</g>
<!-- Node17&#45;&gt;Node18 -->
<g id="edge18_Node000017_Node000018" class="edge">
<title>Node17&#45;&gt;Node18</title>
<g id="a_edge18_Node000017_Node000018"><a xlink:title=" ">
<path fill="none" stroke="#63b8ff" d="M348.92,-206.34C330.44,-204.86 310.51,-203.26 292.75,-201.84"/>
<polygon fill="#63b8ff" stroke="#63b8ff" points="348.45,-209.81 358.7,-207.12 349.01,-202.83 348.45,-209.81"/>
</a>
</g>
</g>
<!-- Node20 -->
<g id="Node000020" class="node">
<title>Node20</title>
<g id="a_Node000020"><a xlink:href="../../d2/d78/classfl_1_1_screen_map.html#a9f8cd0b572681ab80ae7a5f781957279" target="_top" xlink:title=" ">
<polygon fill="#fff0f0" stroke="red" points="305,-246.89 170.5,-246.89 170.5,-226.14 305,-226.14 305,-246.89"/>
<text text-anchor="middle" x="237.75" y="-233.39" font-family="Helvetica,sans-Serif" font-size="10.00">fl::ScreenMap::ParseJson</text>
</a>
</g>
</g>
<!-- Node17&#45;&gt;Node20 -->
<g id="edge19_Node000017_Node000020" class="edge">
<title>Node17&#45;&gt;Node20</title>
<g id="a_edge19_Node000017_Node000020"><a xlink:title=" ">
<path fill="none" stroke="#63b8ff" d="M349.03,-220.75C334.81,-222.78 319.73,-224.94 305.44,-226.98"/>
<polygon fill="#63b8ff" stroke="#63b8ff" points="349.3,-224.25 358.71,-219.37 348.31,-217.32 349.3,-224.25"/>
</a>
</g>
</g>
<!-- Node17&#45;&gt;Node24 -->
<g id="edge22_Node000017_Node000024" class="edge">
<title>Node17&#45;&gt;Node24</title>
<g id="a_edge22_Node000017_Node000024"><a xlink:title=" ">
<path fill="none" stroke="#63b8ff" d="M367.03,-197.34C347.82,-191.5 325.34,-184.68 305,-178.52 295.11,-175.52 284.39,-172.28 274.51,-169.3"/>
<polygon fill="#63b8ff" stroke="#63b8ff" points="365.88,-200.65 376.47,-200.21 367.92,-193.95 365.88,-200.65"/>
</a>
</g>
</g>
<!-- Node20&#45;&gt;Node9 -->
<g id="edge21_Node000020_Node000009" class="edge">
<title>Node20&#45;&gt;Node9</title>
<g id="a_edge21_Node000020_Node000009"><a xlink:title=" ">
<path fill="none" stroke="#63b8ff" d="M178.54,-251.91C175.75,-253.32 173.05,-254.85 170.5,-256.52 149.9,-269.94 153.44,-282.84 134.5,-298.52 120.61,-310.02 102.78,-320.02 89.12,-326.87"/>
<polygon fill="#63b8ff" stroke="#63b8ff" points="179.81,-255.18 187.56,-247.95 177,-248.77 179.81,-255.18"/>
</a>
</g>
</g>
<!-- Node20&#45;&gt;Node13 -->
<g id="edge20_Node000020_Node000013" class="edge">
<title>Node20&#45;&gt;Node13</title>
<g id="a_edge20_Node000020_Node000013"><a xlink:title=" ">
<path fill="none" stroke="#63b8ff" d="M183.09,-250.21C159.71,-256.18 132.71,-263.07 110.76,-268.67"/>
<polygon fill="#63b8ff" stroke="#63b8ff" points="183.94,-253.61 192.76,-247.74 182.21,-246.82 183.94,-253.61"/>
</a>
</g>
</g>
<!-- Node25&#45;&gt;Node8 -->
<g id="edge25_Node000025_Node000008" class="edge">
<title>Node25&#45;&gt;Node8</title>
<g id="a_edge25_Node000025_Node000008"><a xlink:title=" ">
<path fill="none" stroke="#63b8ff" d="M351.64,-507.52C335.63,-507.52 318.38,-507.52 302.29,-507.52"/>
<polygon fill="#63b8ff" stroke="#63b8ff" points="351.53,-511.02 361.53,-507.52 351.53,-504.02 351.53,-511.02"/>
</a>
</g>
</g>
<!-- Node25&#45;&gt;Node15 -->
<g id="edge24_Node000025_Node000015" class="edge">
<title>Node25&#45;&gt;Node15</title>
<g id="a_edge24_Node000025_Node000015"><a xlink:title=" ">
<path fill="none" stroke="#63b8ff" d="M387.75,-524.19C341.23,-551.86 241.68,-600.36 170.5,-559.52 105.8,-522.38 78.14,-426.74 70.54,-394.96"/>
<polygon fill="#63b8ff" stroke="#63b8ff" points="389.36,-527.31 396.07,-519.11 385.71,-521.33 389.36,-527.31"/>
</a>
</g>
</g>
<!-- Node30&#45;&gt;Node30 -->
<g id="edge32_Node000030_Node000030" class="edge">
<title>Node30&#45;&gt;Node30</title>
<g id="a_edge32_Node000030_Node000030"><a xlink:title=" ">
<path fill="none" stroke="#63b8ff" d="M608.54,-156.38C605.09,-160.22 596.41,-162.89 582.5,-162.89 557.06,-162.89 549.11,-153.95 558.65,-145.29"/>
<polygon fill="#63b8ff" stroke="#63b8ff" points="612.02,-155.9 606.64,-146.77 605.15,-157.26 612.02,-155.9"/>
</a>
</g>
</g>
<!-- Node30&#45;&gt;Node31 -->
<g id="edge33_Node000030_Node000031" class="edge">
<title>Node30&#45;&gt;Node31</title>
<g id="a_edge33_Node000030_Node000031"><a xlink:title=" ">
<path fill="none" stroke="#63b8ff" d="M523.34,-121.19C503.54,-116.66 481.67,-111.65 462.83,-107.33"/>
<polygon fill="#63b8ff" stroke="#63b8ff" points="522.41,-124.57 532.94,-123.39 523.97,-117.75 522.41,-124.57"/>
</a>
</g>
</g>
<!-- Node32&#45;&gt;Node32 -->
<g id="edge36_Node000032_Node000032" class="edge">
<title>Node32&#45;&gt;Node32</title>
<g id="a_edge36_Node000032_Node000032"><a xlink:title=" ">
<path fill="none" stroke="#63b8ff" d="M608.54,-62.38C605.09,-66.22 596.41,-68.89 582.5,-68.89 557.06,-68.89 549.11,-59.95 558.65,-51.29"/>
<polygon fill="#63b8ff" stroke="#63b8ff" points="612.02,-61.9 606.64,-52.77 605.15,-63.26 612.02,-61.9"/>
</a>
</g>
</g>
<!-- Node32&#45;&gt;Node33 -->
<g id="edge37_Node000032_Node000033" class="edge">
<title>Node32&#45;&gt;Node33</title>
<g id="a_edge37_Node000032_Node000033"><a xlink:title=" ">
<path fill="none" stroke="#63b8ff" d="M514.52,-32.84C500.23,-31.21 485.28,-29.49 471.46,-27.91"/>
<polygon fill="#63b8ff" stroke="#63b8ff" points="513.97,-36.3 524.3,-33.96 514.76,-29.35 513.97,-36.3"/>
</a>
</g>
</g>
</g>
</svg>
