<?xml version="1.0" encoding="UTF-8" standalone="no"?>
<!DOCTYPE svg PUBLIC "-//W3C//DTD SVG 1.1//EN"
 "http://www.w3.org/Graphics/SVG/1.1/DTD/svg11.dtd">
<!-- Generated by graphviz version 12.2.1 (20241206.2353)
 -->
<!-- Title: fl::FixedMap::highest Pages: 1 -->
<svg width="574pt" height="86pt"
 viewBox="0.00 0.00 573.75 85.75" xmlns="http://www.w3.org/2000/svg" xmlns:xlink="http://www.w3.org/1999/xlink">
<g id="graph0" class="graph" transform="scale(1 1) rotate(0) translate(4 81.75)">
<title>fl::FixedMap::highest</title>
<!-- Node1 -->
<g id="Node000001" class="node">
<title>Node1</title>
<g id="a_Node000001"><a xlink:title=" ">
<polygon fill="#999999" stroke="#666666" points="116.5,-39.75 0,-39.75 0,-19 116.5,-19 116.5,-39.75"/>
<text text-anchor="middle" x="58.25" y="-26.25" font-family="Helvetica,sans-Serif" font-size="10.00">fl::FixedMap::highest</text>
</a>
</g>
</g>
<!-- Node2 -->
<g id="Node000002" class="node">
<title>Node2</title>
<g id="a_Node000002"><a xlink:href="../../d2/df3/classfl_1_1_fixed_map.html#a5bcfb52c7949403994eed767316e237b" target="_top" xlink:title=" ">
<polygon fill="white" stroke="#666666" points="412.5,-77.75 305,-77.75 305,-57 412.5,-57 412.5,-77.75"/>
<text text-anchor="middle" x="358.75" y="-64.25" font-family="Helvetica,sans-Serif" font-size="10.00">fl::FixedMap::begin</text>
</a>
</g>
</g>
<!-- Node1&#45;&gt;Node2 -->
<g id="edge1_Node000001_Node000002" class="edge">
<title>Node1&#45;&gt;Node2</title>
<g id="a_edge1_Node000001_Node000002"><a xlink:title=" ">
<path fill="none" stroke="#63b8ff" d="M80.05,-40.24C98.51,-49.24 126.51,-61.34 152.5,-66.38 199.09,-75.4 252.75,-75.3 293.51,-73.14"/>
<polygon fill="#63b8ff" stroke="#63b8ff" points="293.64,-76.64 303.41,-72.55 293.22,-69.65 293.64,-76.64"/>
</a>
</g>
</g>
<!-- Node4 -->
<g id="Node000004" class="node">
<title>Node4</title>
<g id="a_Node000004"><a xlink:href="../../d2/df3/classfl_1_1_fixed_map.html#a25851b559aa5ae81d52c0c5792d10bf5" target="_top" xlink:title=" ">
<polygon fill="white" stroke="#666666" points="408,-20.75 309.5,-20.75 309.5,0 408,0 408,-20.75"/>
<text text-anchor="middle" x="358.75" y="-7.25" font-family="Helvetica,sans-Serif" font-size="10.00">fl::FixedMap::end</text>
</a>
</g>
</g>
<!-- Node1&#45;&gt;Node4 -->
<g id="edge3_Node000001_Node000004" class="edge">
<title>Node1&#45;&gt;Node4</title>
<g id="a_edge3_Node000001_Node000004"><a xlink:title=" ">
<path fill="none" stroke="#63b8ff" d="M103.09,-18.55C118.59,-15.23 136.23,-12.02 152.5,-10.38 201.17,-5.47 256.66,-5.82 297.66,-7.21"/>
<polygon fill="#63b8ff" stroke="#63b8ff" points="297.46,-10.7 307.58,-7.58 297.72,-3.71 297.46,-10.7"/>
</a>
</g>
</g>
<!-- Node6 -->
<g id="Node000006" class="node">
<title>Node6</title>
<g id="a_Node000006"><a xlink:href="../../d2/df3/classfl_1_1_fixed_map.html#a8e3ea2bf1427c91405418b7b1a629f47" target="_top" xlink:title=" ">
<polygon fill="white" stroke="#666666" points="269,-39.75 152.5,-39.75 152.5,-19 269,-19 269,-39.75"/>
<text text-anchor="middle" x="210.75" y="-26.25" font-family="Helvetica,sans-Serif" font-size="10.00">fl::FixedMap::highest</text>
</a>
</g>
</g>
<!-- Node1&#45;&gt;Node6 -->
<g id="edge5_Node000001_Node000006" class="edge">
<title>Node1&#45;&gt;Node6</title>
<g id="a_edge5_Node000001_Node000006"><a xlink:title=" ">
<path fill="none" stroke="#63b8ff" d="M116.58,-29.38C124.48,-29.38 132.67,-29.38 140.75,-29.38"/>
<polygon fill="#63b8ff" stroke="#63b8ff" points="140.57,-32.88 150.57,-29.38 140.57,-25.88 140.57,-32.88"/>
</a>
</g>
</g>
<!-- Node3 -->
<g id="Node000003" class="node">
<title>Node3</title>
<g id="a_Node000003"><a xlink:href="../../d3/d73/classfl_1_1_fixed_vector.html#a7ae4440fe977cc6495819cac64b7ad1a" target="_top" xlink:title=" ">
<polygon fill="white" stroke="#666666" points="565.75,-77.75 448.5,-77.75 448.5,-57 565.75,-57 565.75,-77.75"/>
<text text-anchor="middle" x="507.12" y="-64.25" font-family="Helvetica,sans-Serif" font-size="10.00">fl::FixedVector::begin</text>
</a>
</g>
</g>
<!-- Node2&#45;&gt;Node3 -->
<g id="edge2_Node000002_Node000003" class="edge">
<title>Node2&#45;&gt;Node3</title>
<g id="a_edge2_Node000002_Node000003"><a xlink:title=" ">
<path fill="none" stroke="#63b8ff" d="M412.59,-67.38C420.5,-67.38 428.75,-67.38 436.93,-67.38"/>
<polygon fill="#63b8ff" stroke="#63b8ff" points="436.89,-70.88 446.89,-67.38 436.89,-63.88 436.89,-70.88"/>
</a>
</g>
</g>
<!-- Node5 -->
<g id="Node000005" class="node">
<title>Node5</title>
<g id="a_Node000005"><a xlink:href="../../d3/d73/classfl_1_1_fixed_vector.html#af8f3eb485dff77110efec26993f206c4" target="_top" xlink:title=" ">
<polygon fill="white" stroke="#666666" points="561.25,-20.75 453,-20.75 453,0 561.25,0 561.25,-20.75"/>
<text text-anchor="middle" x="507.12" y="-7.25" font-family="Helvetica,sans-Serif" font-size="10.00">fl::FixedVector::end</text>
</a>
</g>
</g>
<!-- Node4&#45;&gt;Node5 -->
<g id="edge4_Node000004_Node000005" class="edge">
<title>Node4&#45;&gt;Node5</title>
<g id="a_edge4_Node000004_Node000005"><a xlink:title=" ">
<path fill="none" stroke="#63b8ff" d="M408.49,-10.38C418.98,-10.38 430.23,-10.38 441.23,-10.38"/>
<polygon fill="#63b8ff" stroke="#63b8ff" points="441.04,-13.88 451.04,-10.38 441.04,-6.88 441.04,-13.88"/>
</a>
</g>
</g>
<!-- Node6&#45;&gt;Node2 -->
<g id="edge6_Node000006_Node000002" class="edge">
<title>Node6&#45;&gt;Node2</title>
<g id="a_edge6_Node000006_Node000002"><a xlink:title=" ">
<path fill="none" stroke="#63b8ff" d="M253.2,-40.16C269.38,-44.37 288.12,-49.25 305.23,-53.71"/>
<polygon fill="#63b8ff" stroke="#63b8ff" points="304.18,-57.05 314.73,-56.18 305.94,-50.27 304.18,-57.05"/>
</a>
</g>
</g>
<!-- Node6&#45;&gt;Node4 -->
<g id="edge7_Node000006_Node000004" class="edge">
<title>Node6&#45;&gt;Node4</title>
<g id="a_edge7_Node000006_Node000004"><a xlink:title=" ">
<path fill="none" stroke="#63b8ff" d="M269.45,-21.87C278.86,-20.64 288.62,-19.37 298.07,-18.14"/>
<polygon fill="#63b8ff" stroke="#63b8ff" points="298.44,-21.62 307.91,-16.86 297.54,-14.68 298.44,-21.62"/>
</a>
</g>
</g>
<!-- Node6&#45;&gt;Node6 -->
<g id="edge8_Node000006_Node000006" class="edge">
<title>Node6&#45;&gt;Node6</title>
<g id="a_edge8_Node000006_Node000006"><a xlink:title=" ">
<path fill="none" stroke="#63b8ff" d="M186.9,-40.15C177.36,-48.81 185.31,-57.75 210.75,-57.75 224.66,-57.75 233.34,-55.08 236.79,-51.24"/>
<polygon fill="#63b8ff" stroke="#63b8ff" points="240.27,-50.76 234.89,-41.63 233.4,-52.12 240.27,-50.76"/>
</a>
</g>
</g>
</g>
</svg>
