<?xml version="1.0" encoding="UTF-8" standalone="no"?>
<!DOCTYPE svg PUBLIC "-//W3C//DTD SVG 1.1//EN"
 "http://www.w3.org/Graphics/SVG/1.1/DTD/svg11.dtd">
<!-- Generated by graphviz version 12.2.1 (20241206.2353)
 -->
<!-- Title: fl::FixedMap::clear Pages: 1 -->
<svg width="436pt" height="29pt"
 viewBox="0.00 0.00 435.50 28.75" xmlns="http://www.w3.org/2000/svg" xmlns:xlink="http://www.w3.org/1999/xlink">
<g id="graph0" class="graph" transform="scale(1 1) rotate(0) translate(4 24.75)">
<title>fl::FixedMap::clear</title>
<!-- Node1 -->
<g id="Node000001" class="node">
<title>Node1</title>
<g id="a_Node000001"><a xlink:title=" ">
<polygon fill="#999999" stroke="#666666" points="104.5,-20.75 0,-20.75 0,0 104.5,0 104.5,-20.75"/>
<text text-anchor="middle" x="52.25" y="-7.25" font-family="Helvetica,sans-Serif" font-size="10.00">fl::FixedMap::clear</text>
</a>
</g>
</g>
<!-- Node2 -->
<g id="Node000002" class="node">
<title>Node2</title>
<g id="a_Node000002"><a xlink:href="../../d3/d73/classfl_1_1_fixed_vector.html#a624562170056be2d8e67a9a577c130b8" target="_top" xlink:title=" ">
<polygon fill="white" stroke="#666666" points="254.75,-20.75 140.5,-20.75 140.5,0 254.75,0 254.75,-20.75"/>
<text text-anchor="middle" x="197.62" y="-7.25" font-family="Helvetica,sans-Serif" font-size="10.00">fl::FixedVector::clear</text>
</a>
</g>
</g>
<!-- Node1&#45;&gt;Node2 -->
<g id="edge1_Node000001_Node000002" class="edge">
<title>Node1&#45;&gt;Node2</title>
<g id="a_edge1_Node000001_Node000002"><a xlink:title=" ">
<path fill="none" stroke="#63b8ff" d="M104.61,-10.38C112.47,-10.38 120.69,-10.38 128.84,-10.38"/>
<polygon fill="#63b8ff" stroke="#63b8ff" points="128.77,-13.88 138.77,-10.38 128.77,-6.88 128.77,-13.88"/>
</a>
</g>
</g>
<!-- Node3 -->
<g id="Node000003" class="node">
<title>Node3</title>
<g id="a_Node000003"><a xlink:href="../../d3/d73/classfl_1_1_fixed_vector.html#a86ca6e866b11e1089e3ac0c043f00e0b" target="_top" xlink:title=" ">
<polygon fill="white" stroke="#666666" points="427.5,-20.75 290.75,-20.75 290.75,0 427.5,0 427.5,-20.75"/>
<text text-anchor="middle" x="359.12" y="-7.25" font-family="Helvetica,sans-Serif" font-size="10.00">fl::FixedVector::pop_back</text>
</a>
</g>
</g>
<!-- Node2&#45;&gt;Node3 -->
<g id="edge2_Node000002_Node000003" class="edge">
<title>Node2&#45;&gt;Node3</title>
<g id="a_edge2_Node000002_Node000003"><a xlink:title=" ">
<path fill="none" stroke="#63b8ff" d="M254.86,-10.38C262.66,-10.38 270.79,-10.38 278.92,-10.38"/>
<polygon fill="#63b8ff" stroke="#63b8ff" points="278.85,-13.88 288.85,-10.38 278.85,-6.88 278.85,-13.88"/>
</a>
</g>
</g>
</g>
</svg>
