<?xml version="1.0" encoding="UTF-8" standalone="no"?>
<!DOCTYPE svg PUBLIC "-//W3C//DTD SVG 1.1//EN"
 "http://www.w3.org/Graphics/SVG/1.1/DTD/svg11.dtd">
<!-- Generated by graphviz version 12.2.1 (20241206.2353)
 -->
<!-- Title: Graphical Class Hierarchy Pages: 1 -->
<svg width="336pt" height="490pt"
 viewBox="0.00 0.00 336.25 489.88" xmlns="http://www.w3.org/2000/svg" xmlns:xlink="http://www.w3.org/1999/xlink">
<g id="graph0" class="graph" transform="scale(1 1) rotate(0) translate(4 485.88)">
<title>Graphical Class Hierarchy</title>
<!-- Node0 -->
<g id="Node000000" class="node">
<title>Node0</title>
<g id="a_Node000000"><a xlink:href="dc/d57/class_a_v_r_software_s_p_i_output.html" target="_top" xlink:title=" ">
<polygon fill="white" stroke="#666666" points="148.75,-270.25 0,-270.25 0,-224 148.75,-224 148.75,-270.25"/>
<text text-anchor="start" x="8" y="-256.75" font-family="Helvetica,sans-Serif" font-size="10.00">AVRSoftwareSPIOutput</text>
<text text-anchor="start" x="8" y="-244" font-family="Helvetica,sans-Serif" font-size="10.00">&lt; _DATA_PIN, _CLOCK_PIN,</text>
<text text-anchor="middle" x="74.38" y="-231.25" font-family="Helvetica,sans-Serif" font-size="10.00"> _SPI_CLOCK_DIVIDER &gt;</text>
</a>
</g>
</g>
<!-- Node1 -->
<g id="Node000001" class="node">
<title>Node1</title>
<g id="a_Node000001"><a xlink:href="d3/d97/class_s_p_i_output.html" target="_top" xlink:title=" ">
<polygon fill="white" stroke="#666666" points="327.88,-481.88 185.12,-481.88 185.12,-448.38 327.88,-448.38 327.88,-481.88"/>
<text text-anchor="start" x="193.12" y="-468.38" font-family="Helvetica,sans-Serif" font-size="10.00">SPIOutput&lt; DATA_PIN,</text>
<text text-anchor="middle" x="256.5" y="-455.62" font-family="Helvetica,sans-Serif" font-size="10.00"> CLOCK_PIN, SPI_SPEED &gt;</text>
</a>
</g>
</g>
<!-- Node0&#45;&gt;Node1 -->
<g id="edge2_Node000000_Node000001" class="edge">
<title>Node0&#45;&gt;Node1</title>
<g id="a_edge2_Node000000_Node000001"><a xlink:title=" ">
<path fill="none" stroke="#63b8ff" d="M86.55,-281.37C102.11,-323.99 134.22,-396.34 184.75,-439.12 188.74,-442.51 193.22,-445.47 197.92,-448.05"/>
<polygon fill="#63b8ff" stroke="#63b8ff" points="89.92,-280.39 83.28,-272.13 83.32,-282.73 89.92,-280.39"/>
</a>
</g>
</g>
<!-- Node2 -->
<g id="Node000002" class="node">
<title>Node2</title>
<g id="a_Node000002"><a xlink:href="d3/d97/class_s_p_i_output.html" target="_top" xlink:title=" ">
<polygon fill="white" stroke="#666666" points="324.12,-430.25 188.88,-430.25 188.88,-384 324.12,-384 324.12,-430.25"/>
<text text-anchor="start" x="196.88" y="-416.75" font-family="Helvetica,sans-Serif" font-size="10.00">SPIOutput&lt; DATA_PIN,</text>
<text text-anchor="start" x="196.88" y="-404" font-family="Helvetica,sans-Serif" font-size="10.00"> CLOCK_PIN, DATA_RATE</text>
<text text-anchor="middle" x="256.5" y="-391.25" font-family="Helvetica,sans-Serif" font-size="10.00">_MHZ(6) &gt;</text>
</a>
</g>
</g>
<!-- Node0&#45;&gt;Node2 -->
<g id="edge3_Node000000_Node000002" class="edge">
<title>Node0&#45;&gt;Node2</title>
<g id="a_edge3_Node000000_Node000002"><a xlink:title=" ">
<path fill="none" stroke="#63b8ff" d="M97.25,-280.09C117.3,-308.28 149.21,-348.43 184.75,-375.12 188.74,-378.12 193.05,-380.92 197.51,-383.51"/>
<polygon fill="#63b8ff" stroke="#63b8ff" points="100.12,-278.09 91.53,-271.89 94.38,-282.1 100.12,-278.09"/>
</a>
</g>
</g>
<!-- Node3 -->
<g id="Node000003" class="node">
<title>Node3</title>
<g id="a_Node000003"><a xlink:href="d3/d97/class_s_p_i_output.html" target="_top" xlink:title=" ">
<polygon fill="white" stroke="#666666" points="324.12,-366.25 188.88,-366.25 188.88,-320 324.12,-320 324.12,-366.25"/>
<text text-anchor="start" x="196.88" y="-352.75" font-family="Helvetica,sans-Serif" font-size="10.00">SPIOutput&lt; DATA_PIN,</text>
<text text-anchor="start" x="196.88" y="-340" font-family="Helvetica,sans-Serif" font-size="10.00"> CLOCK_PIN, DATA_RATE</text>
<text text-anchor="middle" x="256.5" y="-327.25" font-family="Helvetica,sans-Serif" font-size="10.00">_MHZ(12) &gt;</text>
</a>
</g>
</g>
<!-- Node0&#45;&gt;Node3 -->
<g id="edge4_Node000000_Node000003" class="edge">
<title>Node0&#45;&gt;Node3</title>
<g id="a_edge4_Node000000_Node000003"><a xlink:title=" ">
<path fill="none" stroke="#63b8ff" d="M123.17,-276.55C142.1,-287.82 164.21,-300.51 184.75,-311.12 190.26,-313.97 196.07,-316.83 201.9,-319.6"/>
<polygon fill="#63b8ff" stroke="#63b8ff" points="124.97,-273.55 114.59,-271.41 121.37,-279.55 124.97,-273.55"/>
</a>
</g>
</g>
<!-- Node4 -->
<g id="Node000004" class="node">
<title>Node4</title>
<g id="a_Node000004"><a xlink:href="d3/d97/class_s_p_i_output.html" target="_top" xlink:title=" ">
<polygon fill="white" stroke="#666666" points="324.12,-302.25 188.88,-302.25 188.88,-256 324.12,-256 324.12,-302.25"/>
<text text-anchor="start" x="196.88" y="-288.75" font-family="Helvetica,sans-Serif" font-size="10.00">SPIOutput&lt; DATA_PIN,</text>
<text text-anchor="start" x="196.88" y="-276" font-family="Helvetica,sans-Serif" font-size="10.00"> CLOCK_PIN, DATA_RATE</text>
<text text-anchor="middle" x="256.5" y="-263.25" font-family="Helvetica,sans-Serif" font-size="10.00">_MHZ(10) &gt;</text>
</a>
</g>
</g>
<!-- Node0&#45;&gt;Node4 -->
<g id="edge5_Node000000_Node000004" class="edge">
<title>Node0&#45;&gt;Node4</title>
<g id="a_edge5_Node000000_Node000004"><a xlink:title=" ">
<path fill="none" stroke="#63b8ff" d="M160.23,-262.2C169.71,-263.88 179.27,-265.58 188.49,-267.22"/>
<polygon fill="#63b8ff" stroke="#63b8ff" points="161.11,-258.8 150.65,-260.5 159.88,-265.69 161.11,-258.8"/>
</a>
</g>
</g>
<!-- Node5 -->
<g id="Node000005" class="node">
<title>Node5</title>
<g id="a_Node000005"><a xlink:href="d3/d97/class_s_p_i_output.html" target="_top" xlink:title=" ">
<polygon fill="white" stroke="#666666" points="324.12,-238.25 188.88,-238.25 188.88,-192 324.12,-192 324.12,-238.25"/>
<text text-anchor="start" x="196.88" y="-224.75" font-family="Helvetica,sans-Serif" font-size="10.00">SPIOutput&lt; DATA_PIN,</text>
<text text-anchor="start" x="196.88" y="-212" font-family="Helvetica,sans-Serif" font-size="10.00"> CLOCK_PIN, DATA_RATE</text>
<text text-anchor="middle" x="256.5" y="-199.25" font-family="Helvetica,sans-Serif" font-size="10.00">_MHZ(16) &gt;</text>
</a>
</g>
</g>
<!-- Node0&#45;&gt;Node5 -->
<g id="edge6_Node000000_Node000005" class="edge">
<title>Node0&#45;&gt;Node5</title>
<g id="a_edge6_Node000000_Node000005"><a xlink:title=" ">
<path fill="none" stroke="#63b8ff" d="M160.23,-232.05C169.71,-230.37 179.27,-228.67 188.49,-227.03"/>
<polygon fill="#63b8ff" stroke="#63b8ff" points="159.88,-228.56 150.65,-233.75 161.11,-235.45 159.88,-228.56"/>
</a>
</g>
</g>
<!-- Node6 -->
<g id="Node000006" class="node">
<title>Node6</title>
<g id="a_Node000006"><a xlink:href="d3/d97/class_s_p_i_output.html" target="_top" xlink:title=" ">
<polygon fill="white" stroke="#666666" points="324.12,-174.25 188.88,-174.25 188.88,-128 324.12,-128 324.12,-174.25"/>
<text text-anchor="start" x="196.88" y="-160.75" font-family="Helvetica,sans-Serif" font-size="10.00">SPIOutput&lt; DATA_PIN,</text>
<text text-anchor="start" x="196.88" y="-148" font-family="Helvetica,sans-Serif" font-size="10.00"> CLOCK_PIN, DATA_RATE</text>
<text text-anchor="middle" x="256.5" y="-135.25" font-family="Helvetica,sans-Serif" font-size="10.00">_MHZ(1) &gt;</text>
</a>
</g>
</g>
<!-- Node0&#45;&gt;Node6 -->
<g id="edge7_Node000000_Node000006" class="edge">
<title>Node0&#45;&gt;Node6</title>
<g id="a_edge7_Node000000_Node000006"><a xlink:title=" ">
<path fill="none" stroke="#63b8ff" d="M123.17,-217.7C142.1,-206.43 164.21,-193.74 184.75,-183.12 190.26,-180.28 196.07,-177.42 201.9,-174.65"/>
<polygon fill="#63b8ff" stroke="#63b8ff" points="121.37,-214.7 114.59,-222.84 124.97,-220.7 121.37,-214.7"/>
</a>
</g>
</g>
<!-- Node7 -->
<g id="Node000007" class="node">
<title>Node7</title>
<g id="a_Node000007"><a xlink:href="d3/d97/class_s_p_i_output.html" target="_top" xlink:title="Hardware SPI output.">
<polygon fill="white" stroke="#666666" points="328.25,-110.25 184.75,-110.25 184.75,-64 328.25,-64 328.25,-110.25"/>
<text text-anchor="start" x="192.75" y="-96.75" font-family="Helvetica,sans-Serif" font-size="10.00">SPIOutput&lt; _DATA_PIN,</text>
<text text-anchor="start" x="192.75" y="-84" font-family="Helvetica,sans-Serif" font-size="10.00"> _CLOCK_PIN, _SPI_CLOCK</text>
<text text-anchor="middle" x="256.5" y="-71.25" font-family="Helvetica,sans-Serif" font-size="10.00">_DIVIDER &gt;</text>
</a>
</g>
</g>
<!-- Node0&#45;&gt;Node7 -->
<g id="edge8_Node000000_Node000007" class="edge">
<title>Node0&#45;&gt;Node7</title>
<g id="a_edge8_Node000000_Node000007"><a xlink:title=" ">
<path fill="none" stroke="#63b8ff" d="M97.25,-214.16C117.3,-185.97 149.21,-145.82 184.75,-119.12 188.74,-116.13 193.05,-113.33 197.51,-110.74"/>
<polygon fill="#63b8ff" stroke="#63b8ff" points="94.38,-212.15 91.53,-222.36 100.12,-216.16 94.38,-212.15"/>
</a>
</g>
</g>
<!-- Node8 -->
<g id="Node000008" class="node">
<title>Node8</title>
<g id="a_Node000008"><a xlink:href="d9/d35/class_software_s_p_i_output.html" target="_top" xlink:title="Software SPI output.">
<polygon fill="white" stroke="#666666" points="326.75,-46.25 186.25,-46.25 186.25,0 326.75,0 326.75,-46.25"/>
<text text-anchor="start" x="194.25" y="-32.75" font-family="Helvetica,sans-Serif" font-size="10.00">SoftwareSPIOutput&lt;</text>
<text text-anchor="start" x="194.25" y="-20" font-family="Helvetica,sans-Serif" font-size="10.00"> _DATA_PIN, _CLOCK_PIN,</text>
<text text-anchor="middle" x="256.5" y="-7.25" font-family="Helvetica,sans-Serif" font-size="10.00"> _SPI_CLOCK_DIVIDER &gt;</text>
</a>
</g>
</g>
<!-- Node0&#45;&gt;Node8 -->
<g id="edge9_Node000000_Node000008" class="edge">
<title>Node0&#45;&gt;Node8</title>
<g id="a_edge9_Node000000_Node000008"><a xlink:title=" ">
<path fill="none" stroke="#63b8ff" d="M87.19,-213.12C103.32,-171.06 135.94,-99.59 184.75,-55.12 188.14,-52.04 191.87,-49.21 195.81,-46.62"/>
<polygon fill="#63b8ff" stroke="#63b8ff" points="84,-211.64 83.79,-222.23 90.56,-214.08 84,-211.64"/>
</a>
</g>
</g>
</g>
</svg>
