<?xml version="1.0" encoding="UTF-8" standalone="no"?>
<!DOCTYPE svg PUBLIC "-//W3C//DTD SVG 1.1//EN"
 "http://www.w3.org/Graphics/SVG/1.1/DTD/svg11.dtd">
<!-- Generated by graphviz version 12.2.1 (20241206.2353)
 -->
<!-- Title: Graphical Class Hierarchy Pages: 1 -->
<svg width="242pt" height="68pt"
 viewBox="0.00 0.00 242.00 67.75" xmlns="http://www.w3.org/2000/svg" xmlns:xlink="http://www.w3.org/1999/xlink">
<g id="graph0" class="graph" transform="scale(1 1) rotate(0) translate(4 63.75)">
<title>Graphical Class Hierarchy</title>
<!-- Node0 -->
<g id="Node000000" class="node">
<title>Node0</title>
<g id="a_Node000000"><a xlink:href="dd/da1/class_selectable.html" target="_top" xlink:title="Abstract class for &quot;selectable&quot; things.">
<polygon fill="white" stroke="#666666" points="67,-39.75 0,-39.75 0,-19 67,-19 67,-39.75"/>
<text text-anchor="middle" x="33.5" y="-26.25" font-family="Helvetica,sans-Serif" font-size="10.00">Selectable</text>
</a>
</g>
</g>
<!-- Node1 -->
<g id="Node000001" class="node">
<title>Node1</title>
<g id="a_Node000001"><a xlink:href="d7/d68/class_pin.html" target="_top" xlink:title="Naive fallback solution for low level pin access.">
<polygon fill="white" stroke="#666666" points="134,-39.75 103,-39.75 103,-19 134,-19 134,-39.75"/>
<text text-anchor="middle" x="118.5" y="-26.25" font-family="Helvetica,sans-Serif" font-size="10.00">Pin</text>
</a>
</g>
</g>
<!-- Node0&#45;&gt;Node1 -->
<g id="edge168_Node000000_Node000001" class="edge">
<title>Node0&#45;&gt;Node1</title>
<g id="a_edge168_Node000000_Node000001"><a xlink:title=" ">
<path fill="none" stroke="#63b8ff" d="M78.74,-29.38C87.46,-29.38 96.03,-29.38 102.88,-29.38"/>
<polygon fill="#63b8ff" stroke="#63b8ff" points="78.82,-25.88 68.82,-29.38 78.82,-32.88 78.82,-25.88"/>
</a>
</g>
</g>
<!-- Node2 -->
<g id="Node000002" class="node">
<title>Node2</title>
<g id="a_Node000002"><a xlink:href="d8/dd7/class_input_pin.html" target="_top" xlink:title="I/O pin initially set to INPUT.">
<polygon fill="white" stroke="#666666" points="229.88,-59.75 174.12,-59.75 174.12,-39 229.88,-39 229.88,-59.75"/>
<text text-anchor="middle" x="202" y="-46.25" font-family="Helvetica,sans-Serif" font-size="10.00">InputPin</text>
</a>
</g>
</g>
<!-- Node1&#45;&gt;Node2 -->
<g id="edge169_Node000001_Node000002" class="edge">
<title>Node1&#45;&gt;Node2</title>
<g id="a_edge169_Node000001_Node000002"><a xlink:title=" ">
<path fill="none" stroke="#63b8ff" d="M145.54,-35.77C154.61,-37.99 164.8,-40.49 173.95,-42.74"/>
<polygon fill="#63b8ff" stroke="#63b8ff" points="146.46,-32.39 135.92,-33.4 144.8,-39.19 146.46,-32.39"/>
</a>
</g>
</g>
<!-- Node3 -->
<g id="Node000003" class="node">
<title>Node3</title>
<g id="a_Node000003"><a xlink:href="d6/db0/class_output_pin.html" target="_top" xlink:title="I/O pin initially set to OUTPUT.">
<polygon fill="white" stroke="#666666" points="234,-20.75 170,-20.75 170,0 234,0 234,-20.75"/>
<text text-anchor="middle" x="202" y="-7.25" font-family="Helvetica,sans-Serif" font-size="10.00">OutputPin</text>
</a>
</g>
</g>
<!-- Node1&#45;&gt;Node3 -->
<g id="edge170_Node000001_Node000003" class="edge">
<title>Node1&#45;&gt;Node3</title>
<g id="a_edge170_Node000001_Node000003"><a xlink:title=" ">
<path fill="none" stroke="#63b8ff" d="M145.61,-23.29C153.25,-21.51 161.68,-19.54 169.6,-17.69"/>
<polygon fill="#63b8ff" stroke="#63b8ff" points="144.87,-19.87 135.92,-25.55 146.46,-26.68 144.87,-19.87"/>
</a>
</g>
</g>
</g>
</svg>
