<?xml version="1.0" encoding="UTF-8" standalone="no"?>
<!DOCTYPE svg PUBLIC "-//W3C//DTD SVG 1.1//EN"
 "http://www.w3.org/Graphics/SVG/1.1/DTD/svg11.dtd">
<!-- Generated by graphviz version 12.2.1 (20241206.2353)
 -->
<!-- Title: fl::NoisePalette Pages: 1 -->
<svg width="511pt" height="250pt"
 viewBox="0.00 0.00 510.75 250.00" xmlns="http://www.w3.org/2000/svg" xmlns:xlink="http://www.w3.org/1999/xlink">
<g id="graph0" class="graph" transform="scale(1 1) rotate(0) translate(4 246)">
<title>fl::NoisePalette</title>
<!-- Node1 -->
<g id="Node000001" class="node">
<title>Node1</title>
<g id="a_Node000001"><a xlink:title=" ">
<polygon fill="#999999" stroke="#666666" points="350.75,-20.75 261.25,-20.75 261.25,0 350.75,0 350.75,-20.75"/>
<text text-anchor="middle" x="306" y="-7.25" font-family="Helvetica,sans-Serif" font-size="10.00">fl::NoisePalette</text>
</a>
</g>
</g>
<!-- Node2 -->
<g id="Node000002" class="node">
<title>Node2</title>
<g id="a_Node000002"><a xlink:href="../../d7/d3e/classfl_1_1_fx2d.html" target="_top" xlink:title=" ">
<polygon fill="white" stroke="#666666" points="130,-90.25 78,-90.25 78,-69.5 130,-69.5 130,-90.25"/>
<text text-anchor="middle" x="104" y="-76.75" font-family="Helvetica,sans-Serif" font-size="10.00">fl::Fx2d</text>
</a>
</g>
</g>
<!-- Node2&#45;&gt;Node1 -->
<g id="edge1_Node000001_Node000002" class="edge">
<title>Node2&#45;&gt;Node1</title>
<g id="a_edge1_Node000001_Node000002"><a xlink:title=" ">
<path fill="none" stroke="#63b8ff" d="M141.3,-66.41C180.35,-53.36 240.85,-33.14 276.64,-21.19"/>
<polygon fill="#63b8ff" stroke="#63b8ff" points="140.22,-63.08 131.84,-69.57 142.44,-69.72 140.22,-63.08"/>
</a>
</g>
</g>
<!-- Node3 -->
<g id="Node000003" class="node">
<title>Node3</title>
<g id="a_Node000003"><a xlink:href="../../da/d5d/classfl_1_1_fx.html" target="_top" xlink:title=" ">
<polygon fill="white" stroke="#666666" points="55,-166.12 15,-166.12 15,-145.38 55,-145.38 55,-166.12"/>
<text text-anchor="middle" x="35" y="-152.62" font-family="Helvetica,sans-Serif" font-size="10.00">fl::Fx</text>
</a>
</g>
</g>
<!-- Node3&#45;&gt;Node2 -->
<g id="edge2_Node000002_Node000003" class="edge">
<title>Node3&#45;&gt;Node2</title>
<g id="a_edge2_Node000002_Node000003"><a xlink:title=" ">
<path fill="none" stroke="#63b8ff" d="M51.77,-136.79C65.47,-122.13 84.29,-101.98 95.2,-90.3"/>
<polygon fill="#63b8ff" stroke="#63b8ff" points="49.32,-134.29 45.05,-143.99 54.44,-139.07 49.32,-134.29"/>
</a>
</g>
</g>
<!-- Node4 -->
<g id="Node000004" class="node">
<title>Node4</title>
<g id="a_Node000004"><a xlink:href="../../d6/d16/classfl_1_1_referent.html" target="_top" xlink:title=" ">
<polygon fill="#fff0f0" stroke="red" points="70,-242 0,-242 0,-221.25 70,-221.25 70,-242"/>
<text text-anchor="middle" x="35" y="-228.5" font-family="Helvetica,sans-Serif" font-size="10.00">fl::Referent</text>
</a>
</g>
</g>
<!-- Node4&#45;&gt;Node3 -->
<g id="edge3_Node000003_Node000004" class="edge">
<title>Node4&#45;&gt;Node3</title>
<g id="a_edge3_Node000003_Node000004"><a xlink:title=" ">
<path fill="none" stroke="#63b8ff" d="M35,-209.7C35,-195.38 35,-177.08 35,-166.18"/>
<polygon fill="#63b8ff" stroke="#63b8ff" points="31.5,-209.45 35,-219.45 38.5,-209.45 31.5,-209.45"/>
</a>
</g>
</g>
<!-- Node11 -->
<g id="Node000011" class="node">
<title>Node11</title>
<g id="a_Node000011"><a xlink:href="../../d0/dce/classfl_1_1_x_y_map.html" target="_top" xlink:title=" ">
<polygon fill="white" stroke="#666666" points="134.88,-166.12 73.12,-166.12 73.12,-145.38 134.88,-145.38 134.88,-166.12"/>
<text text-anchor="middle" x="104" y="-152.62" font-family="Helvetica,sans-Serif" font-size="10.00">fl::XYMap</text>
</a>
</g>
</g>
<!-- Node11&#45;&gt;Node2 -->
<g id="edge4_Node000002_Node000011" class="edge">
<title>Node11&#45;&gt;Node2</title>
<g id="a_edge4_Node000002_Node000011"><a xlink:title=" ">
<path fill="none" stroke="#9a32cd" stroke-dasharray="5,2" d="M104,-133.82C104,-119.5 104,-101.21 104,-90.3"/>
<polygon fill="#9a32cd" stroke="#9a32cd" points="100.5,-133.58 104,-143.58 107.5,-133.58 100.5,-133.58"/>
</a>
</g>
<text text-anchor="middle" x="127.25" y="-111.5" font-family="Helvetica,sans-Serif" font-size="10.00" fill="grey"> mXyMap</text>
</g>
<!-- Node12 -->
<g id="Node000012" class="node">
<title>Node12</title>
<g id="a_Node000012"><a xlink:href="../../d3/d92/classfl_1_1scoped__array.html" target="_top" xlink:title=" ">
<polygon fill="white" stroke="#666666" points="380.75,-90.25 231.25,-90.25 231.25,-69.5 380.75,-69.5 380.75,-90.25"/>
<text text-anchor="middle" x="306" y="-76.75" font-family="Helvetica,sans-Serif" font-size="10.00">fl::scoped_array&lt; uint8_t &gt;</text>
</a>
</g>
</g>
<!-- Node12&#45;&gt;Node1 -->
<g id="edge5_Node000001_Node000012" class="edge">
<title>Node12&#45;&gt;Node1</title>
<g id="a_edge5_Node000001_Node000012"><a xlink:title=" ">
<path fill="none" stroke="#9a32cd" stroke-dasharray="5,2" d="M306,-58.07C306,-45.72 306,-30.65 306,-21.03"/>
<polygon fill="#9a32cd" stroke="#9a32cd" points="302.5,-57.69 306,-67.69 309.5,-57.69 302.5,-57.69"/>
</a>
</g>
<text text-anchor="middle" x="320.62" y="-42" font-family="Helvetica,sans-Serif" font-size="10.00" fill="grey"> noise</text>
</g>
<!-- Node13 -->
<g id="Node000013" class="node">
<title>Node13</title>
<g id="a_Node000013"><a xlink:href="../../df/db6/structfl_1_1_array_deleter.html" target="_top" xlink:title=" ">
<polygon fill="white" stroke="#666666" points="299.25,-166.12 152.75,-166.12 152.75,-145.38 299.25,-145.38 299.25,-166.12"/>
<text text-anchor="middle" x="226" y="-152.62" font-family="Helvetica,sans-Serif" font-size="10.00">fl::ArrayDeleter&lt; uint8_t &gt;</text>
</a>
</g>
</g>
<!-- Node13&#45;&gt;Node12 -->
<g id="edge6_Node000012_Node000013" class="edge">
<title>Node13&#45;&gt;Node12</title>
<g id="a_edge6_Node000012_Node000013"><a xlink:title=" ">
<path fill="none" stroke="#9a32cd" stroke-dasharray="5,2" d="M244.5,-137.66C260.35,-123.03 282.6,-102.48 295.54,-90.54"/>
<polygon fill="#9a32cd" stroke="#9a32cd" points="242.54,-134.71 237.57,-144.07 247.29,-139.85 242.54,-134.71"/>
</a>
</g>
<text text-anchor="middle" x="296.89" y="-111.5" font-family="Helvetica,sans-Serif" font-size="10.00" fill="grey"> deleter_</text>
</g>
<!-- Node14 -->
<g id="Node000014" class="node">
<title>Node14</title>
<g id="a_Node000014"><a xlink:href="../../df/db6/structfl_1_1_array_deleter.html" target="_top" xlink:title=" ">
<polygon fill="white" stroke="#666666" points="285.38,-242 166.62,-242 166.62,-221.25 285.38,-221.25 285.38,-242"/>
<text text-anchor="middle" x="226" y="-228.5" font-family="Helvetica,sans-Serif" font-size="10.00">fl::ArrayDeleter&lt; T &gt;</text>
</a>
</g>
</g>
<!-- Node14&#45;&gt;Node13 -->
<g id="edge7_Node000013_Node000014" class="edge">
<title>Node14&#45;&gt;Node13</title>
<g id="a_edge7_Node000013_Node000014"><a xlink:title=" ">
<path fill="none" stroke="orange" stroke-dasharray="5,2" d="M226,-209.7C226,-195.38 226,-177.08 226,-166.18"/>
<polygon fill="orange" stroke="orange" points="222.5,-209.45 226,-219.45 229.5,-209.45 222.5,-209.45"/>
</a>
</g>
<text text-anchor="middle" x="255.62" y="-193.75" font-family="Helvetica,sans-Serif" font-size="10.00" fill="grey"> &lt; uint8_t &gt;</text>
</g>
<!-- Node15 -->
<g id="Node000015" class="node">
<title>Node15</title>
<g id="a_Node000015"><a xlink:href="../../d3/d92/classfl_1_1scoped__array.html" target="_top" xlink:title=" ">
<polygon fill="white" stroke="#666666" points="430.75,-172.5 317.25,-172.5 317.25,-139 430.75,-139 430.75,-172.5"/>
<text text-anchor="start" x="325.25" y="-159" font-family="Helvetica,sans-Serif" font-size="10.00">fl::scoped_array&lt; T,</text>
<text text-anchor="middle" x="374" y="-146.25" font-family="Helvetica,sans-Serif" font-size="10.00"> Deleter &gt;</text>
</a>
</g>
</g>
<!-- Node15&#45;&gt;Node12 -->
<g id="edge8_Node000012_Node000015" class="edge">
<title>Node15&#45;&gt;Node12</title>
<g id="a_edge8_Node000012_Node000015"><a xlink:title=" ">
<path fill="none" stroke="orange" stroke-dasharray="5,2" d="M351.77,-130.6C339.13,-116.86 324.01,-100.44 314.71,-90.33"/>
<polygon fill="orange" stroke="orange" points="348.87,-132.62 358.22,-137.61 354.02,-127.88 348.87,-132.62"/>
</a>
</g>
<text text-anchor="middle" x="371.66" y="-111.5" font-family="Helvetica,sans-Serif" font-size="10.00" fill="grey"> &lt; uint8_t &gt;</text>
</g>
<!-- Node16 -->
<g id="Node000016" class="node">
<title>Node16</title>
<g id="a_Node000016"><a xlink:href="../../d6/d39/group___palette_classes.html#d2/dc4/class_c_r_g_b_palette16" target="_top" xlink:title="RGB color palette with 16 discrete values.">
<polygon fill="white" stroke="#666666" points="502.75,-90.25 413.25,-90.25 413.25,-69.5 502.75,-69.5 502.75,-90.25"/>
<text text-anchor="middle" x="458" y="-76.75" font-family="Helvetica,sans-Serif" font-size="10.00">CRGBPalette16</text>
</a>
</g>
</g>
<!-- Node16&#45;&gt;Node1 -->
<g id="edge9_Node000001_Node000016" class="edge">
<title>Node16&#45;&gt;Node1</title>
<g id="a_edge9_Node000001_Node000016"><a xlink:title=" ">
<path fill="none" stroke="#9a32cd" stroke-dasharray="5,2" d="M425.73,-64.55C396.37,-51.51 353.81,-32.6 328.13,-21.2"/>
<polygon fill="#9a32cd" stroke="#9a32cd" points="423.95,-67.59 434.51,-68.45 426.8,-61.19 423.95,-67.59"/>
</a>
</g>
<text text-anchor="middle" x="431.24" y="-42" font-family="Helvetica,sans-Serif" font-size="10.00" fill="grey"> currentPalette</text>
</g>
<!-- Node17 -->
<g id="Node000017" class="node">
<title>Node17</title>
<g id="a_Node000017"><a xlink:href="../../db/d87/group___pixel_types.html#d7/d82/struct_c_r_g_b" target="_top" xlink:title="Representation of an RGB pixel (Red, Green, Blue)">
<polygon fill="white" stroke="#666666" points="492.88,-166.12 449.12,-166.12 449.12,-145.38 492.88,-145.38 492.88,-166.12"/>
<text text-anchor="middle" x="471" y="-152.62" font-family="Helvetica,sans-Serif" font-size="10.00">CRGB</text>
</a>
</g>
</g>
<!-- Node17&#45;&gt;Node16 -->
<g id="edge10_Node000016_Node000017" class="edge">
<title>Node17&#45;&gt;Node16</title>
<g id="a_edge10_Node000016_Node000017"><a xlink:title=" ">
<path fill="none" stroke="#9a32cd" stroke-dasharray="5,2" d="M467.32,-133.82C464.8,-119.5 461.58,-101.21 459.66,-90.3"/>
<polygon fill="#9a32cd" stroke="#9a32cd" points="463.86,-134.36 469.04,-143.6 470.75,-133.15 463.86,-134.36"/>
</a>
</g>
<text text-anchor="middle" x="483.26" y="-111.5" font-family="Helvetica,sans-Serif" font-size="10.00" fill="grey"> entries</text>
</g>
</g>
</svg>
