<?xml version="1.0" encoding="UTF-8" standalone="no"?>
<!DOCTYPE svg PUBLIC "-//W3C//DTD SVG 1.1//EN"
 "http://www.w3.org/Graphics/SVG/1.1/DTD/svg11.dtd">
<!-- Generated by graphviz version 12.2.1 (20241206.2353)
 -->
<!-- Title: fl::FileSystem::openRead Pages: 1 -->
<svg width="605pt" height="135pt"
 viewBox="0.00 0.00 604.50 134.75" xmlns="http://www.w3.org/2000/svg" xmlns:xlink="http://www.w3.org/1999/xlink">
<g id="graph0" class="graph" transform="scale(1 1) rotate(0) translate(4 130.75)">
<title>fl::FileSystem::openRead</title>
<!-- Node1 -->
<g id="Node000001" class="node">
<title>Node1</title>
<g id="a_Node000001"><a xlink:title=" ">
<polygon fill="#999999" stroke="#666666" points="596.5,-97.75 459.75,-97.75 459.75,-77 596.5,-77 596.5,-97.75"/>
<text text-anchor="middle" x="528.12" y="-84.25" font-family="Helvetica,sans-Serif" font-size="10.00">fl::FileSystem::openRead</text>
</a>
</g>
</g>
<!-- Node2 -->
<g id="Node000002" class="node">
<title>Node2</title>
<g id="a_Node000002"><a xlink:href="../../df/d37/classfl_1_1_file_system.html#a439dd053cfdc593891b34738cacc5e17" target="_top" xlink:title=" ">
<polygon fill="white" stroke="#666666" points="423.75,-126.75 284,-126.75 284,-106 423.75,-106 423.75,-126.75"/>
<text text-anchor="middle" x="353.88" y="-113.25" font-family="Helvetica,sans-Serif" font-size="10.00">fl::FileSystem::openVideo</text>
</a>
</g>
</g>
<!-- Node1&#45;&gt;Node2 -->
<g id="edge1_Node000001_Node000002" class="edge">
<title>Node1&#45;&gt;Node2</title>
<g id="a_edge1_Node000001_Node000002"><a xlink:title=" ">
<path fill="none" stroke="#63b8ff" d="M451.82,-100.05C441,-101.88 429.94,-103.74 419.36,-105.52"/>
<polygon fill="#63b8ff" stroke="#63b8ff" points="452.21,-103.54 461.49,-98.42 451.05,-96.63 452.21,-103.54"/>
</a>
</g>
</g>
<!-- Node4 -->
<g id="Node000004" class="node">
<title>Node4</title>
<g id="a_Node000004"><a xlink:href="../../df/d37/classfl_1_1_file_system.html#a82a9d7df7ecee5b816624186ac493bb6" target="_top" xlink:title=" ">
<polygon fill="white" stroke="#666666" points="418.88,-78.75 288.88,-78.75 288.88,-58 418.88,-58 418.88,-78.75"/>
<text text-anchor="middle" x="353.88" y="-65.25" font-family="Helvetica,sans-Serif" font-size="10.00">fl::FileSystem::readText</text>
</a>
</g>
</g>
<!-- Node1&#45;&gt;Node4 -->
<g id="edge3_Node000001_Node000004" class="edge">
<title>Node1&#45;&gt;Node4</title>
<g id="a_edge3_Node000001_Node000004"><a xlink:title=" ">
<path fill="none" stroke="#63b8ff" d="M448.21,-78.67C438.49,-77.6 428.64,-76.51 419.17,-75.47"/>
<polygon fill="#63b8ff" stroke="#63b8ff" points="447.71,-82.14 458.04,-79.75 448.48,-75.18 447.71,-82.14"/>
</a>
</g>
</g>
<!-- Node3 -->
<g id="Node000003" class="node">
<title>Node3</title>
<g id="a_Node000003"><a xlink:href="../../d7/d35/_fx_sd_card_8ino.html#a4fc01d736fe50cf5b977f755b675f11d" target="_top" xlink:title=" ">
<polygon fill="white" stroke="#666666" points="43,-97.75 0,-97.75 0,-77 43,-77 43,-97.75"/>
<text text-anchor="middle" x="21.5" y="-84.25" font-family="Helvetica,sans-Serif" font-size="10.00">setup</text>
</a>
</g>
</g>
<!-- Node2&#45;&gt;Node3 -->
<g id="edge2_Node000002_Node000003" class="edge">
<title>Node2&#45;&gt;Node3</title>
<g id="a_edge2_Node000002_Node000003"><a xlink:title=" ">
<path fill="none" stroke="#63b8ff" d="M272.16,-120.18C217.23,-121.2 143.16,-119.48 79,-107.38 66.83,-105.08 53.77,-100.6 43.27,-96.45"/>
<polygon fill="#63b8ff" stroke="#63b8ff" points="272.15,-123.68 282.06,-119.96 271.99,-116.68 272.15,-123.68"/>
</a>
</g>
</g>
<!-- Node5 -->
<g id="Node000005" class="node">
<title>Node5</title>
<g id="a_Node000005"><a xlink:href="../../df/d37/classfl_1_1_file_system.html#a88cf3b9e800613fb6086a90037b43297" target="_top" xlink:title=" ">
<polygon fill="white" stroke="#666666" points="228.5,-98.75 98.5,-98.75 98.5,-78 228.5,-78 228.5,-98.75"/>
<text text-anchor="middle" x="163.5" y="-85.25" font-family="Helvetica,sans-Serif" font-size="10.00">fl::FileSystem::readJson</text>
</a>
</g>
</g>
<!-- Node4&#45;&gt;Node5 -->
<g id="edge4_Node000004_Node000005" class="edge">
<title>Node4&#45;&gt;Node5</title>
<g id="a_edge4_Node000004_Node000005"><a xlink:title=" ">
<path fill="none" stroke="#63b8ff" d="M277.55,-76.37C261.41,-78.09 244.51,-79.88 228.83,-81.54"/>
<polygon fill="#63b8ff" stroke="#63b8ff" points="277.49,-79.9 287.07,-75.36 276.76,-72.94 277.49,-79.9"/>
</a>
</g>
</g>
<!-- Node6 -->
<g id="Node000006" class="node">
<title>Node6</title>
<g id="a_Node000006"><a xlink:href="../../df/d37/classfl_1_1_file_system.html#a456623ea357257e417994ecb4daf7408" target="_top" xlink:title=" ">
<polygon fill="white" stroke="#666666" points="245.38,-59.75 81.62,-59.75 81.62,-39 245.38,-39 245.38,-59.75"/>
<text text-anchor="middle" x="163.5" y="-46.25" font-family="Helvetica,sans-Serif" font-size="10.00">fl::FileSystem::readScreenMap</text>
</a>
</g>
</g>
<!-- Node4&#45;&gt;Node6 -->
<g id="edge5_Node000004_Node000006" class="edge">
<title>Node4&#45;&gt;Node6</title>
<g id="a_edge5_Node000004_Node000006"><a xlink:title=" ">
<path fill="none" stroke="#63b8ff" d="M277.44,-60.77C267.05,-59.72 256.33,-58.64 245.83,-57.58"/>
<polygon fill="#63b8ff" stroke="#63b8ff" points="276.77,-64.22 287.07,-61.74 277.47,-57.25 276.77,-64.22"/>
</a>
</g>
</g>
<!-- Node7 -->
<g id="Node000007" class="node">
<title>Node7</title>
<g id="a_Node000007"><a xlink:href="../../df/d37/classfl_1_1_file_system.html#a65df0d1c647d87b65a58e66e630b071d" target="_top" xlink:title=" ">
<polygon fill="white" stroke="#666666" points="248,-20.75 79,-20.75 79,0 248,0 248,-20.75"/>
<text text-anchor="middle" x="163.5" y="-7.25" font-family="Helvetica,sans-Serif" font-size="10.00">fl::FileSystem::readScreenMaps</text>
</a>
</g>
</g>
<!-- Node4&#45;&gt;Node7 -->
<g id="edge7_Node000004_Node000007" class="edge">
<title>Node4&#45;&gt;Node7</title>
<g id="a_edge7_Node000004_Node000007"><a xlink:title=" ">
<path fill="none" stroke="#63b8ff" d="M314.83,-53.42C295.08,-45.95 270.43,-37.1 248,-30.38 237.01,-27.08 225.07,-23.95 213.76,-21.2"/>
<polygon fill="#63b8ff" stroke="#63b8ff" points="313.55,-56.68 324.14,-56.98 316.05,-50.14 313.55,-56.68"/>
</a>
</g>
</g>
<!-- Node6&#45;&gt;Node3 -->
<g id="edge6_Node000006_Node000003" class="edge">
<title>Node6&#45;&gt;Node3</title>
<g id="a_edge6_Node000006_Node000003"><a xlink:title=" ">
<path fill="none" stroke="#63b8ff" d="M103.51,-62.93C95.26,-65 86.9,-67.17 79,-69.38 67.1,-72.69 53.94,-76.85 43.32,-80.34"/>
<polygon fill="#63b8ff" stroke="#63b8ff" points="104.31,-66.34 113.19,-60.56 102.64,-59.54 104.31,-66.34"/>
</a>
</g>
</g>
</g>
</svg>
