<?xml version="1.0" encoding="UTF-8" standalone="no"?>
<!DOCTYPE svg PUBLIC "-//W3C//DTD SVG 1.1//EN"
 "http://www.w3.org/Graphics/SVG/1.1/DTD/svg11.dtd">
<!-- Generated by graphviz version 12.2.1 (20241206.2353)
 -->
<!-- Title: fl::FileSystem::readJson Pages: 1 -->
<svg width="643pt" height="200pt"
 viewBox="0.00 0.00 642.75 199.55" xmlns="http://www.w3.org/2000/svg" xmlns:xlink="http://www.w3.org/1999/xlink">
<g id="graph0" class="graph" transform="scale(1 1) rotate(0) translate(4 195.55)">
<title>fl::FileSystem::readJson</title>
<!-- Node1 -->
<g id="Node000001" class="node">
<title>Node1</title>
<g id="a_Node000001"><a xlink:title=" ">
<polygon fill="#999999" stroke="#666666" points="130,-175.75 0,-175.75 0,-155 130,-155 130,-175.75"/>
<text text-anchor="middle" x="65" y="-162.25" font-family="Helvetica,sans-Serif" font-size="10.00">fl::FileSystem::readJson</text>
</a>
</g>
</g>
<!-- Node2 -->
<g id="Node000002" class="node">
<title>Node2</title>
<g id="a_Node000002"><a xlink:href="../../dc/d96/classfl_1_1_str_n.html#a67296b774f8201293edbbabbd1b642cb" target="_top" xlink:title=" ">
<polygon fill="white" stroke="#666666" points="608.88,-175.75 530.62,-175.75 530.62,-155 608.88,-155 608.88,-175.75"/>
<text text-anchor="middle" x="569.75" y="-162.25" font-family="Helvetica,sans-Serif" font-size="10.00">fl::StrN::c_str</text>
</a>
</g>
</g>
<!-- Node1&#45;&gt;Node2 -->
<g id="edge1_Node000001_Node000002" class="edge">
<title>Node1&#45;&gt;Node2</title>
<g id="a_edge1_Node000001_Node000002"><a xlink:title=" ">
<path fill="none" stroke="#63b8ff" d="M113.3,-176.25C129.87,-179.55 148.67,-182.74 166,-184.38 299.98,-196.99 334.65,-190.67 468.75,-179.38 485.2,-177.99 503.07,-175.73 519.1,-173.43"/>
<polygon fill="#63b8ff" stroke="#63b8ff" points="519.52,-176.9 528.9,-171.97 518.49,-169.98 519.52,-176.9"/>
</a>
</g>
</g>
<!-- Node3 -->
<g id="Node000003" class="node">
<title>Node3</title>
<g id="a_Node000003"><a xlink:href="../../d4/d36/namespacefl.html#a2cd426a3d9c9d79c491b313912f3bcc0" target="_top" xlink:title=" ">
<polygon fill="white" stroke="#666666" points="268.62,-175.75 193.38,-175.75 193.38,-155 268.62,-155 268.62,-175.75"/>
<text text-anchor="middle" x="231" y="-162.25" font-family="Helvetica,sans-Serif" font-size="10.00">fl::parseJson</text>
</a>
</g>
</g>
<!-- Node1&#45;&gt;Node3 -->
<g id="edge2_Node000001_Node000003" class="edge">
<title>Node1&#45;&gt;Node3</title>
<g id="a_edge2_Node000001_Node000003"><a xlink:title=" ">
<path fill="none" stroke="#63b8ff" d="M130.35,-165.38C147.53,-165.38 165.8,-165.38 181.95,-165.38"/>
<polygon fill="#63b8ff" stroke="#63b8ff" points="181.76,-168.88 191.76,-165.38 181.76,-161.88 181.76,-168.88"/>
</a>
</g>
</g>
<!-- Node4 -->
<g id="Node000004" class="node">
<title>Node4</title>
<g id="a_Node000004"><a xlink:href="../../df/d37/classfl_1_1_file_system.html#a82a9d7df7ecee5b816624186ac493bb6" target="_top" xlink:title=" ">
<polygon fill="white" stroke="#666666" points="296,-98.75 166,-98.75 166,-78 296,-78 296,-98.75"/>
<text text-anchor="middle" x="231" y="-85.25" font-family="Helvetica,sans-Serif" font-size="10.00">fl::FileSystem::readText</text>
</a>
</g>
</g>
<!-- Node1&#45;&gt;Node4 -->
<g id="edge4_Node000001_Node000004" class="edge">
<title>Node1&#45;&gt;Node4</title>
<g id="a_edge4_Node000001_Node000004"><a xlink:title=" ">
<path fill="none" stroke="#63b8ff" d="M89.15,-154.51C117.23,-141.32 164.78,-119 196.77,-103.98"/>
<polygon fill="#63b8ff" stroke="#63b8ff" points="198.03,-107.25 205.6,-99.83 195.06,-100.91 198.03,-107.25"/>
</a>
</g>
</g>
<!-- Node3&#45;&gt;Node2 -->
<g id="edge3_Node000003_Node000002" class="edge">
<title>Node3&#45;&gt;Node2</title>
<g id="a_edge3_Node000003_Node000002"><a xlink:title=" ">
<path fill="none" stroke="#63b8ff" d="M269,-165.38C329.73,-165.38 450.6,-165.38 518.84,-165.38"/>
<polygon fill="#63b8ff" stroke="#63b8ff" points="518.62,-168.88 528.62,-165.38 518.62,-161.88 518.62,-168.88"/>
</a>
</g>
</g>
<!-- Node5 -->
<g id="Node000005" class="node">
<title>Node5</title>
<g id="a_Node000005"><a xlink:href="../../d2/d24/classfl_1_1_str.html#a97d4bf05a42a1a889ad82e8008d0ef19" target="_top" xlink:title=" ">
<polygon fill="white" stroke="#666666" points="442.12,-59.75 358.62,-59.75 358.62,-39 442.12,-39 442.12,-59.75"/>
<text text-anchor="middle" x="400.38" y="-46.25" font-family="Helvetica,sans-Serif" font-size="10.00">fl::Str::append</text>
</a>
</g>
</g>
<!-- Node4&#45;&gt;Node5 -->
<g id="edge5_Node000004_Node000005" class="edge">
<title>Node4&#45;&gt;Node5</title>
<g id="a_edge5_Node000004_Node000005"><a xlink:title=" ">
<path fill="none" stroke="#63b8ff" d="M278.62,-77.51C299.87,-72.56 325.12,-66.68 347.02,-61.57"/>
<polygon fill="#63b8ff" stroke="#63b8ff" points="347.71,-65.01 356.66,-59.33 346.12,-58.19 347.71,-65.01"/>
</a>
</g>
</g>
<!-- Node7 -->
<g id="Node000007" class="node">
<title>Node7</title>
<g id="a_Node000007"><a xlink:href="../../df/d37/classfl_1_1_file_system.html#a0a8fc3906ce050f295125645c0c55b12" target="_top" xlink:title=" ">
<polygon fill="white" stroke="#666666" points="468.75,-20.75 332,-20.75 332,0 468.75,0 468.75,-20.75"/>
<text text-anchor="middle" x="400.38" y="-7.25" font-family="Helvetica,sans-Serif" font-size="10.00">fl::FileSystem::openRead</text>
</a>
</g>
</g>
<!-- Node4&#45;&gt;Node7 -->
<g id="edge7_Node000004_Node000007" class="edge">
<title>Node4&#45;&gt;Node7</title>
<g id="a_edge7_Node000004_Node000007"><a xlink:title=" ">
<path fill="none" stroke="#63b8ff" d="M247.67,-77.71C266.85,-65.03 300.67,-43.88 332,-30.38 336.6,-28.39 341.46,-26.53 346.37,-24.8"/>
<polygon fill="#63b8ff" stroke="#63b8ff" points="347.31,-28.18 355.7,-21.72 345.11,-21.53 347.31,-28.18"/>
</a>
</g>
</g>
<!-- Node8 -->
<g id="Node000008" class="node">
<title>Node8</title>
<g id="a_Node000008"><a xlink:href="../../dc/d96/classfl_1_1_str_n.html#ad6657ab909ff44f8cce48cf6083190c7" target="_top" xlink:title=" ">
<polygon fill="white" stroke="#666666" points="446.25,-137.75 354.5,-137.75 354.5,-117 446.25,-117 446.25,-137.75"/>
<text text-anchor="middle" x="400.38" y="-124.25" font-family="Helvetica,sans-Serif" font-size="10.00">fl::StrN::reserve</text>
</a>
</g>
</g>
<!-- Node4&#45;&gt;Node8 -->
<g id="edge8_Node000004_Node000008" class="edge">
<title>Node4&#45;&gt;Node8</title>
<g id="a_edge8_Node000004_Node000008"><a xlink:title=" ">
<path fill="none" stroke="#63b8ff" d="M278.62,-99.24C298.63,-103.9 322.18,-109.39 343.14,-114.27"/>
<polygon fill="#63b8ff" stroke="#63b8ff" points="342.15,-117.63 352.68,-116.5 343.74,-110.82 342.15,-117.63"/>
</a>
</g>
</g>
<!-- Node9 -->
<g id="Node000009" class="node">
<title>Node9</title>
<g id="a_Node000009"><a xlink:href="../../dc/d96/classfl_1_1_str_n.html#a83aba4b6220dd9ffce346c7e62133b48" target="_top" xlink:title=" ">
<polygon fill="white" stroke="#666666" points="437.62,-98.75 363.12,-98.75 363.12,-78 437.62,-78 437.62,-98.75"/>
<text text-anchor="middle" x="400.38" y="-85.25" font-family="Helvetica,sans-Serif" font-size="10.00">fl::StrN::size</text>
</a>
</g>
</g>
<!-- Node4&#45;&gt;Node9 -->
<g id="edge10_Node000004_Node000009" class="edge">
<title>Node4&#45;&gt;Node9</title>
<g id="a_edge10_Node000004_Node000009"><a xlink:title=" ">
<path fill="none" stroke="#63b8ff" d="M296.23,-88.38C314.51,-88.38 334.1,-88.38 351.24,-88.38"/>
<polygon fill="#63b8ff" stroke="#63b8ff" points="351.16,-91.88 361.16,-88.38 351.16,-84.88 351.16,-91.88"/>
</a>
</g>
</g>
<!-- Node6 -->
<g id="Node000006" class="node">
<title>Node6</title>
<g id="a_Node000006"><a xlink:href="../../dc/d96/classfl_1_1_str_n.html#a270fb921e74601bc45cc8513e8a075f7" target="_top" xlink:title=" ">
<polygon fill="white" stroke="#666666" points="634.75,-66.12 504.75,-66.12 504.75,-32.62 634.75,-32.62 634.75,-66.12"/>
<text text-anchor="start" x="512.75" y="-52.62" font-family="Helvetica,sans-Serif" font-size="10.00">fl::StrN&lt; FASTLED_STR</text>
<text text-anchor="middle" x="569.75" y="-39.88" font-family="Helvetica,sans-Serif" font-size="10.00">_INLINED_SIZE &gt;::write</text>
</a>
</g>
</g>
<!-- Node5&#45;&gt;Node6 -->
<g id="edge6_Node000005_Node000006" class="edge">
<title>Node5&#45;&gt;Node6</title>
<g id="a_edge6_Node000005_Node000006"><a xlink:title=" ">
<path fill="none" stroke="#63b8ff" d="M442.32,-49.38C457.64,-49.38 475.58,-49.38 493.04,-49.38"/>
<polygon fill="#63b8ff" stroke="#63b8ff" points="492.91,-52.88 502.91,-49.38 492.91,-45.88 492.91,-52.88"/>
</a>
</g>
</g>
<!-- Node8&#45;&gt;Node2 -->
<g id="edge9_Node000008_Node000002" class="edge">
<title>Node8&#45;&gt;Node2</title>
<g id="a_edge9_Node000008_Node000002"><a xlink:title=" ">
<path fill="none" stroke="#63b8ff" d="M446.67,-137.66C469.13,-142.76 496.31,-148.93 519.31,-154.15"/>
<polygon fill="#63b8ff" stroke="#63b8ff" points="518.23,-157.49 528.76,-156.29 519.78,-150.67 518.23,-157.49"/>
</a>
</g>
</g>
</g>
</svg>
