<?xml version="1.0" encoding="UTF-8" standalone="no"?>
<!DOCTYPE svg PUBLIC "-//W3C//DTD SVG 1.1//EN"
 "http://www.w3.org/Graphics/SVG/1.1/DTD/svg11.dtd">
<!-- Generated by graphviz version 12.2.1 (20241206.2353)
 -->
<!-- Title: /home/runner/work/FastLED/FastLED/src/fx/fx2d.h Pages: 1 -->
<svg width="1563pt" height="382pt"
 viewBox="0.00 0.00 1563.00 382.00" xmlns="http://www.w3.org/2000/svg" xmlns:xlink="http://www.w3.org/1999/xlink">
<g id="graph0" class="graph" transform="scale(1 1) rotate(0) translate(4 378)">
<title>/home/runner/work/FastLED/FastLED/src/fx/fx2d.h</title>
<!-- Node1 -->
<g id="Node000001" class="node">
<title>Node1</title>
<g id="a_Node000001"><a xlink:title=" ">
<polygon fill="#999999" stroke="#666666" points="548.75,-374 399.25,-374 399.25,-340.5 548.75,-340.5 548.75,-374"/>
<text text-anchor="start" x="407.25" y="-360.5" font-family="Helvetica,sans-Serif" font-size="10.00">/home/runner/work/FastLED</text>
<text text-anchor="middle" x="474" y="-347.75" font-family="Helvetica,sans-Serif" font-size="10.00">/FastLED/src/fx/fx2d.h</text>
</a>
</g>
</g>
<!-- Node2 -->
<g id="Node000002" class="node">
<title>Node2</title>
<g id="a_Node000002"><a xlink:title=" ">
<polygon fill="#e0e0e0" stroke="#999999" points="1265.38,-20.75 1212.62,-20.75 1212.62,0 1265.38,0 1265.38,-20.75"/>
<text text-anchor="middle" x="1239" y="-7.25" font-family="Helvetica,sans-Serif" font-size="10.00">stdint.h</text>
</a>
</g>
</g>
<!-- Node1&#45;&gt;Node2 -->
<g id="edge1_Node000001_Node000002" class="edge">
<title>Node1&#45;&gt;Node2</title>
<g id="a_edge1_Node000001_Node000002"><a xlink:title=" ">
<path fill="none" stroke="#63b8ff" d="M549.16,-355.95C794.3,-353.99 1555,-339.73 1555,-238.38 1555,-238.38 1555,-238.38 1555,-122.88 1555,-72.52 1509.15,-76.89 1463,-56.75 1401.24,-29.8 1322.85,-18.63 1277.06,-14.18"/>
<polygon fill="#63b8ff" stroke="#63b8ff" points="1277.39,-10.69 1267.12,-13.27 1276.76,-17.66 1277.39,-10.69"/>
</a>
</g>
</g>
<!-- Node3 -->
<g id="Node000003" class="node">
<title>Node3</title>
<g id="a_Node000003"><a xlink:href="../../d6/dc9/fl_2xymap_8h.html" target="_top" xlink:title=" ">
<polygon fill="white" stroke="#666666" points="349.88,-304.5 282.12,-304.5 282.12,-283.75 349.88,-283.75 349.88,-304.5"/>
<text text-anchor="middle" x="316" y="-291" font-family="Helvetica,sans-Serif" font-size="10.00">fl/xymap.h</text>
</a>
</g>
</g>
<!-- Node1&#45;&gt;Node3 -->
<g id="edge2_Node000001_Node000003" class="edge">
<title>Node1&#45;&gt;Node3</title>
<g id="a_edge2_Node000001_Node000003"><a xlink:title=" ">
<path fill="none" stroke="#63b8ff" d="M432.07,-340.03C407.13,-330.38 375.82,-318.27 352,-309.05"/>
<polygon fill="#63b8ff" stroke="#63b8ff" points="353.31,-305.81 342.72,-305.46 350.78,-312.33 353.31,-305.81"/>
</a>
</g>
</g>
<!-- Node7 -->
<g id="Node000007" class="node">
<title>Node7</title>
<g id="a_Node000007"><a xlink:href="../../df/d2a/namespace_8h.html" target="_top" xlink:title="Implements the FastLED namespace macros.">
<polygon fill="white" stroke="#666666" points="595.12,-20.75 504.88,-20.75 504.88,0 595.12,0 595.12,-20.75"/>
<text text-anchor="middle" x="550" y="-7.25" font-family="Helvetica,sans-Serif" font-size="10.00">fl/namespace.h</text>
</a>
</g>
</g>
<!-- Node1&#45;&gt;Node7 -->
<g id="edge39_Node000001_Node000007" class="edge">
<title>Node1&#45;&gt;Node7</title>
<g id="a_edge39_Node000001_Node000007"><a xlink:title=" ">
<path fill="none" stroke="#63b8ff" d="M454.82,-340.03C432.31,-319.07 398,-280.26 398,-238.38 398,-238.38 398,-238.38 398,-122.88 398,-70.72 456.9,-40.29 501.37,-24.75"/>
<polygon fill="#63b8ff" stroke="#63b8ff" points="502.21,-28.16 510.6,-21.68 500.01,-21.52 502.21,-28.16"/>
</a>
</g>
</g>
<!-- Node13 -->
<g id="Node000013" class="node">
<title>Node13</title>
<g id="a_Node000013"><a xlink:href="../../d7/df1/fl_2ptr_8h.html" target="_top" xlink:title=" ">
<polygon fill="#fff0f0" stroke="red" points="472.38,-134.25 425.62,-134.25 425.62,-113.5 472.38,-113.5 472.38,-134.25"/>
<text text-anchor="middle" x="449" y="-120.75" font-family="Helvetica,sans-Serif" font-size="10.00">fl/ptr.h</text>
</a>
</g>
</g>
<!-- Node1&#45;&gt;Node13 -->
<g id="edge63_Node000001_Node000013" class="edge">
<title>Node1&#45;&gt;Node13</title>
<g id="a_edge63_Node000001_Node000013"><a xlink:title=" ">
<path fill="none" stroke="#63b8ff" d="M472.28,-340.35C467.87,-299.56 456.17,-191.24 451.24,-145.6"/>
<polygon fill="#63b8ff" stroke="#63b8ff" points="454.73,-145.35 450.18,-135.78 447.77,-146.1 454.73,-145.35"/>
</a>
</g>
</g>
<!-- Node18 -->
<g id="Node000018" class="node">
<title>Node18</title>
<g id="a_Node000018"><a xlink:href="../../d2/d0c/fx_8h.html" target="_top" xlink:title=" ">
<polygon fill="white" stroke="#666666" points="793.75,-247.75 746.25,-247.75 746.25,-227 793.75,-227 793.75,-247.75"/>
<text text-anchor="middle" x="770" y="-234.25" font-family="Helvetica,sans-Serif" font-size="10.00">fx/fx.h</text>
</a>
</g>
</g>
<!-- Node1&#45;&gt;Node18 -->
<g id="edge40_Node000001_Node000018" class="edge">
<title>Node1&#45;&gt;Node18</title>
<g id="a_edge40_Node000001_Node000018"><a xlink:title=" ">
<path fill="none" stroke="#63b8ff" d="M514.54,-340.11C573.05,-316.81 680.18,-274.14 735.26,-252.21"/>
<polygon fill="#63b8ff" stroke="#63b8ff" points="736.47,-255.49 744.47,-248.54 733.88,-248.99 736.47,-255.49"/>
</a>
</g>
</g>
<!-- Node3&#45;&gt;Node2 -->
<g id="edge3_Node000003_Node000002" class="edge">
<title>Node3&#45;&gt;Node2</title>
<g id="a_edge3_Node000003_Node000002"><a xlink:title=" ">
<path fill="none" stroke="#63b8ff" d="M350.33,-291.78C546.51,-283.9 1517,-241.86 1517,-181.62 1517,-181.62 1517,-181.62 1517,-122.88 1517,-71.68 1352.55,-33.28 1276.62,-18.27"/>
<polygon fill="#63b8ff" stroke="#63b8ff" points="1277.62,-14.91 1267.14,-16.44 1276.29,-21.78 1277.62,-14.91"/>
</a>
</g>
</g>
<!-- Node4 -->
<g id="Node000004" class="node">
<title>Node4</title>
<g id="a_Node000004"><a xlink:title=" ">
<polygon fill="#e0e0e0" stroke="#999999" points="287.38,-77.5 234.62,-77.5 234.62,-56.75 287.38,-56.75 287.38,-77.5"/>
<text text-anchor="middle" x="261" y="-64" font-family="Helvetica,sans-Serif" font-size="10.00">string.h</text>
</a>
</g>
</g>
<!-- Node3&#45;&gt;Node4 -->
<g id="edge4_Node000003_Node000004" class="edge">
<title>Node3&#45;&gt;Node4</title>
<g id="a_edge4_Node000003_Node000004"><a xlink:title=" ">
<path fill="none" stroke="#63b8ff" d="M281.76,-287.21C259.16,-281.34 231.19,-269.87 217,-247.75 184,-196.32 224.38,-122.09 247.28,-87.38"/>
<polygon fill="#63b8ff" stroke="#63b8ff" points="250.12,-89.42 252.87,-79.19 244.34,-85.48 250.12,-89.42"/>
</a>
</g>
</g>
<!-- Node5 -->
<g id="Node000005" class="node">
<title>Node5</title>
<g id="a_Node000005"><a xlink:href="../../db/dd1/crgb_8h.html" target="_top" xlink:title="Defines the red, green, and blue (RGB) pixel struct.">
<polygon fill="white" stroke="#666666" points="882,-134.25 836,-134.25 836,-113.5 882,-113.5 882,-134.25"/>
<text text-anchor="middle" x="859" y="-120.75" font-family="Helvetica,sans-Serif" font-size="10.00">crgb.h</text>
</a>
</g>
</g>
<!-- Node3&#45;&gt;Node5 -->
<g id="edge5_Node000003_Node000005" class="edge">
<title>Node3&#45;&gt;Node5</title>
<g id="a_edge5_Node000003_Node000005"><a xlink:title=" ">
<path fill="none" stroke="#63b8ff" d="M347.54,-283.35C442.69,-253.87 726.35,-165.98 824.85,-135.46"/>
<polygon fill="#63b8ff" stroke="#63b8ff" points="825.7,-138.86 834.21,-132.56 823.62,-132.17 825.7,-138.86"/>
</a>
</g>
</g>
<!-- Node3&#45;&gt;Node7 -->
<g id="edge38_Node000003_Node000007" class="edge">
<title>Node3&#45;&gt;Node7</title>
<g id="a_edge38_Node000003_Node000007"><a xlink:title=" ">
<path fill="none" stroke="#63b8ff" d="M281.88,-288.49C200.17,-276.45 0,-240.89 0,-181.62 0,-181.62 0,-181.62 0,-122.88 0,-84.65 21.17,-74.54 55,-56.75 129.78,-17.42 379.79,-11.71 493.2,-11.2"/>
<polygon fill="#63b8ff" stroke="#63b8ff" points="493.21,-14.7 503.19,-11.17 493.18,-7.7 493.21,-14.7"/>
</a>
</g>
</g>
<!-- Node10 -->
<g id="Node000010" class="node">
<title>Node10</title>
<g id="a_Node000010"><a xlink:href="../../d8/d2d/fl_2force__inline_8h.html" target="_top" xlink:title=" ">
<polygon fill="white" stroke="#666666" points="171.5,-77.5 80.5,-77.5 80.5,-56.75 171.5,-56.75 171.5,-77.5"/>
<text text-anchor="middle" x="126" y="-64" font-family="Helvetica,sans-Serif" font-size="10.00">fl/force_inline.h</text>
</a>
</g>
</g>
<!-- Node3&#45;&gt;Node10 -->
<g id="edge20_Node000003_Node000010" class="edge">
<title>Node3&#45;&gt;Node10</title>
<g id="a_edge20_Node000003_Node000010"><a xlink:title=" ">
<path fill="none" stroke="#63b8ff" d="M281.84,-286.52C257.45,-280.24 225.32,-268.55 204,-247.75 157.85,-202.73 137.27,-125.84 129.7,-89"/>
<polygon fill="#63b8ff" stroke="#63b8ff" points="133.15,-88.41 127.83,-79.25 126.28,-89.73 133.15,-88.41"/>
</a>
</g>
</g>
<!-- Node12 -->
<g id="Node000012" class="node">
<title>Node12</title>
<g id="a_Node000012"><a xlink:href="../../d3/db6/fl_2lut_8h.html" target="_top" xlink:title=" ">
<polygon fill="white" stroke="#666666" points="332.38,-191 285.62,-191 285.62,-170.25 332.38,-170.25 332.38,-191"/>
<text text-anchor="middle" x="309" y="-177.5" font-family="Helvetica,sans-Serif" font-size="10.00">fl/lut.h</text>
</a>
</g>
</g>
<!-- Node3&#45;&gt;Node12 -->
<g id="edge21_Node000003_Node000012" class="edge">
<title>Node3&#45;&gt;Node12</title>
<g id="a_edge21_Node000003_Node000012"><a xlink:title=" ">
<path fill="none" stroke="#63b8ff" d="M315.4,-283.62C314.28,-265.77 311.84,-226.86 310.32,-202.59"/>
<polygon fill="#63b8ff" stroke="#63b8ff" points="313.83,-202.7 309.71,-192.94 306.84,-203.14 313.83,-202.7"/>
</a>
</g>
</g>
<!-- Node3&#45;&gt;Node13 -->
<g id="edge30_Node000003_Node000013" class="edge">
<title>Node3&#45;&gt;Node13</title>
<g id="a_edge30_Node000003_Node000013"><a xlink:title=" ">
<path fill="none" stroke="#63b8ff" d="M323.53,-283.6C344.83,-256.66 405.78,-179.56 434.14,-143.67"/>
<polygon fill="#63b8ff" stroke="#63b8ff" points="436.83,-145.92 440.28,-135.9 431.33,-141.58 436.83,-145.92"/>
</a>
</g>
</g>
<!-- Node17 -->
<g id="Node000017" class="node">
<title>Node17</title>
<g id="a_Node000017"><a xlink:href="../../d5/d22/fl_2xmap_8h.html" target="_top" xlink:title=" ">
<polygon fill="white" stroke="#666666" points="287.88,-247.75 226.12,-247.75 226.12,-227 287.88,-227 287.88,-247.75"/>
<text text-anchor="middle" x="257" y="-234.25" font-family="Helvetica,sans-Serif" font-size="10.00">fl/xmap.h</text>
</a>
</g>
</g>
<!-- Node3&#45;&gt;Node17 -->
<g id="edge31_Node000003_Node000017" class="edge">
<title>Node3&#45;&gt;Node17</title>
<g id="a_edge31_Node000003_Node000017"><a xlink:title=" ">
<path fill="none" stroke="#63b8ff" d="M305.45,-283.34C297.23,-275.71 285.6,-264.92 275.8,-255.82"/>
<polygon fill="#63b8ff" stroke="#63b8ff" points="278.28,-253.34 268.57,-249.11 273.52,-258.48 278.28,-253.34"/>
</a>
</g>
</g>
<!-- Node5&#45;&gt;Node2 -->
<g id="edge6_Node000005_Node000002" class="edge">
<title>Node5&#45;&gt;Node2</title>
<g id="a_edge6_Node000005_Node000002"><a xlink:title=" ">
<path fill="none" stroke="#63b8ff" d="M882.41,-121.71C947.64,-118.15 1130.05,-105.84 1182,-77.5 1201.89,-66.65 1217.99,-45.92 1227.94,-30.55"/>
<polygon fill="#63b8ff" stroke="#63b8ff" points="1230.79,-32.6 1233.03,-22.25 1224.82,-28.94 1230.79,-32.6"/>
</a>
</g>
</g>
<!-- Node6 -->
<g id="Node000006" class="node">
<title>Node6</title>
<g id="a_Node000006"><a xlink:href="../../d8/dd0/chsv_8h.html" target="_top" xlink:title="Defines the hue, saturation, and value (HSV) pixel struct.">
<polygon fill="white" stroke="#666666" points="1052.38,-77.5 1005.62,-77.5 1005.62,-56.75 1052.38,-56.75 1052.38,-77.5"/>
<text text-anchor="middle" x="1029" y="-64" font-family="Helvetica,sans-Serif" font-size="10.00">chsv.h</text>
</a>
</g>
</g>
<!-- Node5&#45;&gt;Node6 -->
<g id="edge7_Node000005_Node000006" class="edge">
<title>Node5&#45;&gt;Node6</title>
<g id="a_edge7_Node000005_Node000006"><a xlink:title=" ">
<path fill="none" stroke="#63b8ff" d="M882.28,-115.38C911.28,-106.04 961.09,-90 994.52,-79.23"/>
<polygon fill="#63b8ff" stroke="#63b8ff" points="995.29,-82.66 1003.74,-76.26 993.15,-75.99 995.29,-82.66"/>
</a>
</g>
</g>
<!-- Node5&#45;&gt;Node7 -->
<g id="edge10_Node000005_Node000007" class="edge">
<title>Node5&#45;&gt;Node7</title>
<g id="a_edge10_Node000005_Node000007"><a xlink:title=" ">
<path fill="none" stroke="#63b8ff" d="M835.61,-115.11C811.13,-106.73 771.79,-92.56 739,-77.5 721.51,-69.47 718.75,-64.17 701,-56.75 668.86,-43.32 631.37,-32.03 601.78,-24.07"/>
<polygon fill="#63b8ff" stroke="#63b8ff" points="602.88,-20.74 592.32,-21.57 601.09,-27.51 602.88,-20.74"/>
</a>
</g>
</g>
<!-- Node8 -->
<g id="Node000008" class="node">
<title>Node8</title>
<g id="a_Node000008"><a xlink:href="../../d2/d6b/src_2color_8h.html" target="_top" xlink:title="Contains definitions for color correction and temperature.">
<polygon fill="white" stroke="#666666" points="796.12,-77.5 747.88,-77.5 747.88,-56.75 796.12,-56.75 796.12,-77.5"/>
<text text-anchor="middle" x="772" y="-64" font-family="Helvetica,sans-Serif" font-size="10.00">color.h</text>
</a>
</g>
</g>
<!-- Node5&#45;&gt;Node8 -->
<g id="edge11_Node000005_Node000008" class="edge">
<title>Node5&#45;&gt;Node8</title>
<g id="a_edge11_Node000005_Node000008"><a xlink:title=" ">
<path fill="none" stroke="#63b8ff" d="M843.45,-113.09C830.58,-104.99 812.06,-93.33 797.09,-83.92"/>
<polygon fill="#63b8ff" stroke="#63b8ff" points="799.03,-81 788.7,-78.63 795.3,-86.92 799.03,-81"/>
</a>
</g>
</g>
<!-- Node9 -->
<g id="Node000009" class="node">
<title>Node9</title>
<g id="a_Node000009"><a xlink:href="../../d9/ddf/lib8tion_2types_8h.html" target="_top" xlink:title="Defines fractional types used for lib8tion functions.">
<polygon fill="white" stroke="#666666" points="987.88,-77.5 896.12,-77.5 896.12,-56.75 987.88,-56.75 987.88,-77.5"/>
<text text-anchor="middle" x="942" y="-64" font-family="Helvetica,sans-Serif" font-size="10.00">lib8tion/types.h</text>
</a>
</g>
</g>
<!-- Node5&#45;&gt;Node9 -->
<g id="edge13_Node000005_Node000009" class="edge">
<title>Node5&#45;&gt;Node9</title>
<g id="a_edge13_Node000005_Node000009"><a xlink:title=" ">
<path fill="none" stroke="#63b8ff" d="M873.84,-113.09C886.11,-104.99 903.79,-93.33 918.06,-83.92"/>
<polygon fill="#63b8ff" stroke="#63b8ff" points="919.61,-87.09 926.03,-78.66 915.75,-81.25 919.61,-87.09"/>
</a>
</g>
</g>
<!-- Node5&#45;&gt;Node10 -->
<g id="edge16_Node000005_Node000010" class="edge">
<title>Node5&#45;&gt;Node10</title>
<g id="a_edge16_Node000005_Node000010"><a xlink:title=" ">
<path fill="none" stroke="#63b8ff" d="M835.71,-119.35C822.12,-117.39 804.62,-115.04 789,-113.5 539.48,-88.84 475.96,-97.2 226,-77.5 212.01,-76.4 196.93,-75.06 182.83,-73.75"/>
<polygon fill="#63b8ff" stroke="#63b8ff" points="183.57,-70.3 173.28,-72.85 182.91,-77.27 183.57,-70.3"/>
</a>
</g>
</g>
<!-- Node11 -->
<g id="Node000011" class="node">
<title>Node11</title>
<g id="a_Node000011"><a xlink:href="../../d8/d0c/template__magic_8h.html" target="_top" xlink:title=" ">
<polygon fill="white" stroke="#666666" points="691.75,-77.5 578.25,-77.5 578.25,-56.75 691.75,-56.75 691.75,-77.5"/>
<text text-anchor="middle" x="635" y="-64" font-family="Helvetica,sans-Serif" font-size="10.00">fl/template_magic.h</text>
</a>
</g>
</g>
<!-- Node5&#45;&gt;Node11 -->
<g id="edge17_Node000005_Node000011" class="edge">
<title>Node5&#45;&gt;Node11</title>
<g id="a_edge17_Node000005_Node000011"><a xlink:title=" ">
<path fill="none" stroke="#63b8ff" d="M835.52,-116.89C831.03,-115.75 826.37,-114.58 822,-113.5 776.45,-102.2 724.59,-89.64 687.05,-80.61"/>
<polygon fill="#63b8ff" stroke="#63b8ff" points="687.9,-77.21 677.36,-78.27 686.26,-84.02 687.9,-77.21"/>
</a>
</g>
</g>
<!-- Node6&#45;&gt;Node2 -->
<g id="edge8_Node000006_Node000002" class="edge">
<title>Node6&#45;&gt;Node2</title>
<g id="a_edge8_Node000006_Node000002"><a xlink:title=" ">
<path fill="none" stroke="#63b8ff" d="M1052.77,-59.29C1055.87,-58.42 1059.01,-57.56 1062,-56.75 1109.95,-43.8 1165.45,-29.72 1201.33,-20.73"/>
<polygon fill="#63b8ff" stroke="#63b8ff" points="1201.93,-24.19 1210.79,-18.37 1200.24,-17.4 1201.93,-24.19"/>
</a>
</g>
</g>
<!-- Node6&#45;&gt;Node7 -->
<g id="edge9_Node000006_Node000007" class="edge">
<title>Node6&#45;&gt;Node7</title>
<g id="a_edge9_Node000006_Node000007"><a xlink:title=" ">
<path fill="none" stroke="#63b8ff" d="M1005.35,-58.67C1002.56,-57.95 999.73,-57.28 997,-56.75 858.31,-29.63 692.04,-18.17 606.7,-13.79"/>
<polygon fill="#63b8ff" stroke="#63b8ff" points="607.12,-10.31 596.96,-13.3 606.78,-17.3 607.12,-10.31"/>
</a>
</g>
</g>
<!-- Node8&#45;&gt;Node7 -->
<g id="edge12_Node000008_Node000007" class="edge">
<title>Node8&#45;&gt;Node7</title>
<g id="a_edge12_Node000008_Node000007"><a xlink:title=" ">
<path fill="none" stroke="#63b8ff" d="M747.39,-60.06C712.14,-51.36 646.47,-35.17 600.59,-23.85"/>
<polygon fill="#63b8ff" stroke="#63b8ff" points="601.69,-20.52 591.15,-21.52 600.02,-27.32 601.69,-20.52"/>
</a>
</g>
</g>
<!-- Node9&#45;&gt;Node2 -->
<g id="edge14_Node000009_Node000002" class="edge">
<title>Node9&#45;&gt;Node2</title>
<g id="a_edge14_Node000009_Node000002"><a xlink:title=" ">
<path fill="none" stroke="#63b8ff" d="M988.08,-57.63C1046.67,-46.83 1146.74,-28.38 1201.12,-18.36"/>
<polygon fill="#63b8ff" stroke="#63b8ff" points="1201.63,-21.82 1210.83,-16.57 1200.36,-14.94 1201.63,-21.82"/>
</a>
</g>
</g>
<!-- Node9&#45;&gt;Node7 -->
<g id="edge15_Node000009_Node000007" class="edge">
<title>Node9&#45;&gt;Node7</title>
<g id="a_edge15_Node000009_Node000007"><a xlink:title=" ">
<path fill="none" stroke="#63b8ff" d="M895.81,-58.13C892.83,-57.65 889.87,-57.19 887,-56.75 788.66,-41.75 673.78,-26.84 606.73,-18.4"/>
<polygon fill="#63b8ff" stroke="#63b8ff" points="607.45,-14.96 597.09,-17.19 606.57,-21.91 607.45,-14.96"/>
</a>
</g>
</g>
<!-- Node11&#45;&gt;Node2 -->
<g id="edge18_Node000011_Node000002" class="edge">
<title>Node11&#45;&gt;Node2</title>
<g id="a_edge18_Node000011_Node000002"><a xlink:title=" ">
<path fill="none" stroke="#63b8ff" d="M692.09,-60.95C814.29,-49.87 1098.39,-24.12 1201.1,-14.81"/>
<polygon fill="#63b8ff" stroke="#63b8ff" points="1201.27,-18.31 1210.91,-13.92 1200.64,-11.34 1201.27,-18.31"/>
</a>
</g>
</g>
<!-- Node11&#45;&gt;Node7 -->
<g id="edge19_Node000011_Node000007" class="edge">
<title>Node11&#45;&gt;Node7</title>
<g id="a_edge19_Node000011_Node000007"><a xlink:title=" ">
<path fill="none" stroke="#63b8ff" d="M619.8,-56.34C607.23,-48.24 589.14,-36.58 574.52,-27.17"/>
<polygon fill="#63b8ff" stroke="#63b8ff" points="576.64,-24.37 566.34,-21.9 572.85,-30.26 576.64,-24.37"/>
</a>
</g>
</g>
<!-- Node12&#45;&gt;Node2 -->
<g id="edge22_Node000012_Node000002" class="edge">
<title>Node12&#45;&gt;Node2</title>
<g id="a_edge22_Node000012_Node000002"><a xlink:title=" ">
<path fill="none" stroke="#63b8ff" d="M332.76,-178.4C468.03,-171.21 1137.61,-132.99 1209,-77.5 1223.15,-66.5 1230.84,-47.32 1234.88,-32.44"/>
<polygon fill="#63b8ff" stroke="#63b8ff" points="1238.28,-33.23 1237.13,-22.7 1231.46,-31.65 1238.28,-33.23"/>
</a>
</g>
</g>
<!-- Node12&#45;&gt;Node7 -->
<g id="edge29_Node000012_Node000007" class="edge">
<title>Node12&#45;&gt;Node7</title>
<g id="a_edge29_Node000012_Node000007"><a xlink:title=" ">
<path fill="none" stroke="#63b8ff" d="M316.17,-170.09C322.87,-161.05 333.01,-146.99 341,-134.25 361.94,-100.88 353.02,-81.07 384,-56.75 415.14,-32.3 458.53,-21.01 493.13,-15.8"/>
<polygon fill="#63b8ff" stroke="#63b8ff" points="493.56,-19.27 503,-14.46 492.62,-12.34 493.56,-19.27"/>
</a>
</g>
</g>
<!-- Node12&#45;&gt;Node10 -->
<g id="edge26_Node000012_Node000010" class="edge">
<title>Node12&#45;&gt;Node10</title>
<g id="a_edge26_Node000012_Node000010"><a xlink:title=" ">
<path fill="none" stroke="#63b8ff" d="M293.08,-169.93C261.31,-150.57 189.8,-107 151.45,-83.63"/>
<polygon fill="#63b8ff" stroke="#63b8ff" points="153.67,-80.88 143.31,-78.67 150.02,-86.86 153.67,-80.88"/>
</a>
</g>
</g>
<!-- Node12&#45;&gt;Node13 -->
<g id="edge23_Node000012_Node000013" class="edge">
<title>Node12&#45;&gt;Node13</title>
<g id="a_edge23_Node000012_Node000013"><a xlink:title=" ">
<path fill="none" stroke="#63b8ff" d="M332.75,-170.34C355.17,-161.57 389.06,-148.31 414.47,-138.38"/>
<polygon fill="#63b8ff" stroke="#63b8ff" points="415.69,-141.66 423.72,-134.76 413.14,-135.14 415.69,-141.66"/>
</a>
</g>
</g>
<!-- Node16 -->
<g id="Node000016" class="node">
<title>Node16</title>
<g id="a_Node000016"><a xlink:href="../../d2/d6f/fl_2allocator_8h.html" target="_top" xlink:title=" ">
<polygon fill="#fff0f0" stroke="red" points="332,-134.25 256,-134.25 256,-113.5 332,-113.5 332,-134.25"/>
<text text-anchor="middle" x="294" y="-120.75" font-family="Helvetica,sans-Serif" font-size="10.00">fl/allocator.h</text>
</a>
</g>
</g>
<!-- Node12&#45;&gt;Node16 -->
<g id="edge27_Node000012_Node000016" class="edge">
<title>Node12&#45;&gt;Node16</title>
<g id="a_edge27_Node000012_Node000016"><a xlink:title=" ">
<path fill="none" stroke="#63b8ff" d="M306.32,-169.84C304.46,-163.06 301.92,-153.8 299.63,-145.44"/>
<polygon fill="#63b8ff" stroke="#63b8ff" points="303.08,-144.76 297.06,-136.04 296.33,-146.61 303.08,-144.76"/>
</a>
</g>
</g>
<!-- Node13&#45;&gt;Node7 -->
<g id="edge24_Node000013_Node000007" class="edge">
<title>Node13&#45;&gt;Node7</title>
<g id="a_edge24_Node000013_Node000007"><a xlink:title=" ">
<path fill="none" stroke="#63b8ff" d="M448.05,-113.31C447.19,-99.46 447.59,-73.62 460,-56.75 470.55,-42.41 486.92,-32.31 502.83,-25.33"/>
<polygon fill="#63b8ff" stroke="#63b8ff" points="503.77,-28.72 511.74,-21.75 501.16,-22.23 503.77,-28.72"/>
</a>
</g>
</g>
<!-- Node13&#45;&gt;Node11 -->
<g id="edge25_Node000013_Node000011" class="edge">
<title>Node13&#45;&gt;Node11</title>
<g id="a_edge25_Node000013_Node000011"><a xlink:title=" ">
<path fill="none" stroke="#63b8ff" d="M472.56,-115.94C502.15,-107.23 553.52,-92.11 590.59,-81.2"/>
<polygon fill="#63b8ff" stroke="#63b8ff" points="591.53,-84.57 600.14,-78.39 589.56,-77.85 591.53,-84.57"/>
</a>
</g>
</g>
<!-- Node16&#45;&gt;Node4 -->
<g id="edge28_Node000016_Node000004" class="edge">
<title>Node16&#45;&gt;Node4</title>
<g id="a_edge28_Node000016_Node000004"><a xlink:title=" ">
<path fill="none" stroke="#63b8ff" d="M288.1,-113.09C283.83,-106 277.92,-96.19 272.7,-87.54"/>
<polygon fill="#63b8ff" stroke="#63b8ff" points="275.79,-85.88 267.63,-79.12 269.79,-89.5 275.79,-85.88"/>
</a>
</g>
</g>
<!-- Node17&#45;&gt;Node2 -->
<g id="edge32_Node000017_Node000002" class="edge">
<title>Node17&#45;&gt;Node2</title>
<g id="a_edge32_Node000017_Node000002"><a xlink:title=" ">
<path fill="none" stroke="#63b8ff" d="M288.37,-235.14C451.46,-228.45 1198.22,-194.68 1280,-134.25 1309.45,-112.49 1325.38,-88.99 1308,-56.75 1300.86,-43.51 1287.98,-33.5 1275.26,-26.29"/>
<polygon fill="#63b8ff" stroke="#63b8ff" points="1277.05,-23.28 1266.56,-21.8 1273.84,-29.5 1277.05,-23.28"/>
</a>
</g>
</g>
<!-- Node17&#45;&gt;Node4 -->
<g id="edge33_Node000017_Node000004" class="edge">
<title>Node17&#45;&gt;Node4</title>
<g id="a_edge33_Node000017_Node000004"><a xlink:title=" ">
<path fill="none" stroke="#63b8ff" d="M254.72,-226.76C250.12,-205.99 240.68,-155.4 247,-113.5 248.27,-105.06 250.81,-96.01 253.38,-88.24"/>
<polygon fill="#63b8ff" stroke="#63b8ff" points="256.58,-89.69 256.63,-79.09 249.98,-87.34 256.58,-89.69"/>
</a>
</g>
</g>
<!-- Node17&#45;&gt;Node7 -->
<g id="edge37_Node000017_Node000007" class="edge">
<title>Node17&#45;&gt;Node7</title>
<g id="a_edge37_Node000017_Node000007"><a xlink:title=" ">
<path fill="none" stroke="#63b8ff" d="M231.83,-226.52C167.9,-200.14 8.62,-125.32 71,-56.75 98.94,-26.04 372.44,-15.66 493.19,-12.56"/>
<polygon fill="#63b8ff" stroke="#63b8ff" points="492.97,-16.06 502.88,-12.32 492.79,-9.07 492.97,-16.06"/>
</a>
</g>
</g>
<!-- Node17&#45;&gt;Node10 -->
<g id="edge34_Node000017_Node000010" class="edge">
<title>Node17&#45;&gt;Node10</title>
<g id="a_edge34_Node000017_Node000010"><a xlink:title=" ">
<path fill="none" stroke="#63b8ff" d="M249.58,-226.85C228.6,-199.91 168.57,-122.81 140.63,-86.92"/>
<polygon fill="#63b8ff" stroke="#63b8ff" points="143.5,-84.9 134.59,-79.16 137.98,-89.2 143.5,-84.9"/>
</a>
</g>
</g>
<!-- Node17&#45;&gt;Node12 -->
<g id="edge35_Node000017_Node000012" class="edge">
<title>Node17&#45;&gt;Node12</title>
<g id="a_edge35_Node000017_Node000012"><a xlink:title=" ">
<path fill="none" stroke="#63b8ff" d="M266.3,-226.59C273.4,-219.11 283.37,-208.61 291.9,-199.63"/>
<polygon fill="#63b8ff" stroke="#63b8ff" points="294.39,-202.09 298.74,-192.43 289.32,-197.27 294.39,-202.09"/>
</a>
</g>
</g>
<!-- Node17&#45;&gt;Node13 -->
<g id="edge36_Node000017_Node000013" class="edge">
<title>Node17&#45;&gt;Node13</title>
<g id="a_edge36_Node000017_Node000013"><a xlink:title=" ">
<path fill="none" stroke="#63b8ff" d="M275.84,-226.57C292.97,-217.57 318.88,-203.73 341,-191 369.95,-174.33 402.58,-154.16 424.32,-140.51"/>
<polygon fill="#63b8ff" stroke="#63b8ff" points="425.9,-143.65 432.5,-135.36 422.17,-137.73 425.9,-143.65"/>
</a>
</g>
</g>
<!-- Node18&#45;&gt;Node2 -->
<g id="edge41_Node000018_Node000002" class="edge">
<title>Node18&#45;&gt;Node2</title>
<g id="a_edge41_Node000018_Node000002"><a xlink:title=" ">
<path fill="none" stroke="#63b8ff" d="M794.15,-236.43C900.98,-236.41 1327.47,-233.64 1367,-191 1407.56,-147.24 1401.43,-105.48 1367,-56.75 1346.82,-28.19 1307.06,-17.49 1277.18,-13.55"/>
<polygon fill="#63b8ff" stroke="#63b8ff" points="1277.7,-10.08 1267.38,-12.47 1276.94,-17.04 1277.7,-10.08"/>
</a>
</g>
</g>
<!-- Node18&#45;&gt;Node5 -->
<g id="edge42_Node000018_Node000005" class="edge">
<title>Node18&#45;&gt;Node5</title>
<g id="a_edge42_Node000018_Node000005"><a xlink:title=" ">
<path fill="none" stroke="#63b8ff" d="M770.64,-226.92C772.01,-213.2 776.2,-187.52 789,-170.25 798.39,-157.58 812.46,-147.48 825.52,-140.05"/>
<polygon fill="#63b8ff" stroke="#63b8ff" points="827.14,-143.16 834.34,-135.38 823.86,-136.97 827.14,-143.16"/>
</a>
</g>
</g>
<!-- Node18&#45;&gt;Node7 -->
<g id="edge43_Node000018_Node000007" class="edge">
<title>Node18&#45;&gt;Node7</title>
<g id="a_edge43_Node000018_Node000007"><a xlink:title=" ">
<path fill="none" stroke="#63b8ff" d="M746.04,-233.83C698.66,-228.35 595.31,-214.04 569,-191 522.26,-150.07 517.19,-117.55 530,-56.75 531.84,-48.03 535.45,-38.95 539.12,-31.22"/>
<polygon fill="#63b8ff" stroke="#63b8ff" points="542.18,-32.91 543.62,-22.41 535.95,-29.73 542.18,-32.91"/>
</a>
</g>
</g>
<!-- Node18&#45;&gt;Node13 -->
<g id="edge44_Node000018_Node000013" class="edge">
<title>Node18&#45;&gt;Node13</title>
<g id="a_edge44_Node000018_Node000013"><a xlink:title=" ">
<path fill="none" stroke="#63b8ff" d="M746.01,-235.31C702.4,-232.6 607.96,-223.2 536,-191 509.41,-179.1 483.41,-157.68 466.87,-142.45"/>
<polygon fill="#63b8ff" stroke="#63b8ff" points="469.47,-140.1 459.8,-135.76 464.66,-145.18 469.47,-140.1"/>
</a>
</g>
</g>
<!-- Node19 -->
<g id="Node000019" class="node">
<title>Node19</title>
<g id="a_Node000019"><a xlink:href="../../db/ded/draw__context_8h.html" target="_top" xlink:title=" ">
<polygon fill="white" stroke="#666666" points="919.88,-191 798.12,-191 798.12,-170.25 919.88,-170.25 919.88,-191"/>
<text text-anchor="middle" x="859" y="-177.5" font-family="Helvetica,sans-Serif" font-size="10.00">detail/draw_context.h</text>
</a>
</g>
</g>
<!-- Node18&#45;&gt;Node19 -->
<g id="edge45_Node000018_Node000019" class="edge">
<title>Node18&#45;&gt;Node19</title>
<g id="a_edge45_Node000018_Node000019"><a xlink:title=" ">
<path fill="none" stroke="#63b8ff" d="M785.91,-226.59C799.2,-218.41 818.39,-206.61 833.77,-197.15"/>
<polygon fill="#63b8ff" stroke="#63b8ff" points="835.25,-200.34 841.94,-192.12 831.59,-194.38 835.25,-200.34"/>
</a>
</g>
</g>
<!-- Node20 -->
<g id="Node000020" class="node">
<title>Node20</title>
<g id="a_Node000020"><a xlink:href="../../d7/df7/transition_8h.html" target="_top" xlink:title=" ">
<polygon fill="white" stroke="#666666" points="1173.12,-77.5 1070.88,-77.5 1070.88,-56.75 1173.12,-56.75 1173.12,-77.5"/>
<text text-anchor="middle" x="1122" y="-64" font-family="Helvetica,sans-Serif" font-size="10.00">detail/transition.h</text>
</a>
</g>
</g>
<!-- Node18&#45;&gt;Node20 -->
<g id="edge49_Node000018_Node000020" class="edge">
<title>Node18&#45;&gt;Node20</title>
<g id="a_edge49_Node000018_Node000020"><a xlink:title=" ">
<path fill="none" stroke="#63b8ff" d="M794.19,-231.75C826.03,-225.16 883.31,-211.54 929,-191 995.61,-161.06 1066.09,-110.75 1100.52,-84.77"/>
<polygon fill="#63b8ff" stroke="#63b8ff" points="1102.59,-87.59 1108.43,-78.75 1098.35,-82.02 1102.59,-87.59"/>
</a>
</g>
</g>
<!-- Node21 -->
<g id="Node000021" class="node">
<title>Node21</title>
<g id="a_Node000021"><a xlink:href="../../dc/d0e/fl_2str_8h.html" target="_top" xlink:title=" ">
<polygon fill="white" stroke="#666666" points="624,-191 578,-191 578,-170.25 624,-170.25 624,-191"/>
<text text-anchor="middle" x="601" y="-177.5" font-family="Helvetica,sans-Serif" font-size="10.00">fl/str.h</text>
</a>
</g>
</g>
<!-- Node18&#45;&gt;Node21 -->
<g id="edge52_Node000018_Node000021" class="edge">
<title>Node18&#45;&gt;Node21</title>
<g id="a_edge52_Node000018_Node000021"><a xlink:title=" ">
<path fill="none" stroke="#63b8ff" d="M745.79,-228.53C716.8,-219.14 668.07,-203.35 635.24,-192.72"/>
<polygon fill="#63b8ff" stroke="#63b8ff" points="636.38,-189.41 625.79,-189.66 634.23,-196.07 636.38,-189.41"/>
</a>
</g>
</g>
<!-- Node26 -->
<g id="Node000026" class="node">
<title>Node26</title>
<g id="a_Node000026"><a xlink:href="../../d8/d4b/unused_8h.html" target="_top" xlink:title=" ">
<polygon fill="white" stroke="#666666" points="1488.62,-191 1419.38,-191 1419.38,-170.25 1488.62,-170.25 1488.62,-191"/>
<text text-anchor="middle" x="1454" y="-177.5" font-family="Helvetica,sans-Serif" font-size="10.00">fl/unused.h</text>
</a>
</g>
</g>
<!-- Node18&#45;&gt;Node26 -->
<g id="edge62_Node000018_Node000026" class="edge">
<title>Node18&#45;&gt;Node26</title>
<g id="a_edge62_Node000018_Node000026"><a xlink:title=" ">
<path fill="none" stroke="#63b8ff" d="M794.03,-235.68C878.29,-233.01 1168.01,-222.03 1405,-191 1406,-190.87 1407,-190.73 1408.01,-190.59"/>
<polygon fill="#63b8ff" stroke="#63b8ff" points="1408.2,-194.1 1417.52,-189.07 1407.1,-187.19 1408.2,-194.1"/>
</a>
</g>
</g>
<!-- Node19&#45;&gt;Node2 -->
<g id="edge46_Node000019_Node000002" class="edge">
<title>Node19&#45;&gt;Node2</title>
<g id="a_edge46_Node000019_Node000002"><a xlink:title=" ">
<path fill="none" stroke="#63b8ff" d="M920.17,-178.75C1016.59,-176.37 1198.55,-167.46 1253,-134.25 1285.75,-114.27 1306.88,-91.67 1291,-56.75 1285.66,-45.01 1275.63,-35.13 1265.78,-27.61"/>
<polygon fill="#63b8ff" stroke="#63b8ff" points="1268,-24.89 1257.8,-22.01 1263.98,-30.62 1268,-24.89"/>
</a>
</g>
</g>
<!-- Node19&#45;&gt;Node5 -->
<g id="edge48_Node000019_Node000005" class="edge">
<title>Node19&#45;&gt;Node5</title>
<g id="a_edge48_Node000019_Node000005"><a xlink:title=" ">
<path fill="none" stroke="#63b8ff" d="M859,-169.84C859,-163.22 859,-154.22 859,-146.02"/>
<polygon fill="#63b8ff" stroke="#63b8ff" points="862.5,-146.09 859,-136.09 855.5,-146.09 862.5,-146.09"/>
</a>
</g>
</g>
<!-- Node19&#45;&gt;Node7 -->
<g id="edge47_Node000019_Node000007" class="edge">
<title>Node19&#45;&gt;Node7</title>
<g id="a_edge47_Node000019_Node000007"><a xlink:title=" ">
<path fill="none" stroke="#63b8ff" d="M852.05,-170.11C840.67,-155.34 816.57,-127.14 789,-113.5 700.2,-69.55 643.05,-143.32 569,-77.5 556.31,-66.22 551.85,-47.07 550.4,-32.27"/>
<polygon fill="#63b8ff" stroke="#63b8ff" points="553.91,-32.43 549.86,-22.65 546.93,-32.83 553.91,-32.43"/>
</a>
</g>
</g>
<!-- Node20&#45;&gt;Node2 -->
<g id="edge50_Node000020_Node000002" class="edge">
<title>Node20&#45;&gt;Node2</title>
<g id="a_edge50_Node000020_Node000002"><a xlink:title=" ">
<path fill="none" stroke="#63b8ff" d="M1142.92,-56.34C1160.97,-47.89 1187.3,-35.57 1207.84,-25.96"/>
<polygon fill="#63b8ff" stroke="#63b8ff" points="1209.32,-29.13 1216.89,-21.72 1206.35,-22.79 1209.32,-29.13"/>
</a>
</g>
</g>
<!-- Node20&#45;&gt;Node7 -->
<g id="edge51_Node000020_Node000007" class="edge">
<title>Node20&#45;&gt;Node7</title>
<g id="a_edge51_Node000020_Node000007"><a xlink:title=" ">
<path fill="none" stroke="#63b8ff" d="M1070.45,-57.96C1067.25,-57.53 1064.08,-57.12 1061,-56.75 896.55,-36.83 701.32,-21.91 606.85,-15.23"/>
<polygon fill="#63b8ff" stroke="#63b8ff" points="607.29,-11.75 597.07,-14.54 606.8,-18.74 607.29,-11.75"/>
</a>
</g>
</g>
<!-- Node21&#45;&gt;Node2 -->
<g id="edge54_Node000021_Node000002" class="edge">
<title>Node21&#45;&gt;Node2</title>
<g id="a_edge54_Node000021_Node000002"><a xlink:title=" ">
<path fill="none" stroke="#63b8ff" d="M624.32,-178.47C733.4,-173.02 1188.99,-149.39 1215,-134.25 1241.23,-118.98 1244.17,-106.54 1253,-77.5 1257.64,-62.22 1253.39,-44.49 1248.39,-31.24"/>
<polygon fill="#63b8ff" stroke="#63b8ff" points="1251.73,-30.15 1244.6,-22.32 1245.29,-32.89 1251.73,-30.15"/>
</a>
</g>
</g>
<!-- Node21&#45;&gt;Node4 -->
<g id="edge53_Node000021_Node000004" class="edge">
<title>Node21&#45;&gt;Node4</title>
<g id="a_edge53_Node000021_Node000004"><a xlink:title=" ">
<path fill="none" stroke="#63b8ff" d="M586.54,-169.76C564.65,-155.29 521.39,-128.41 481,-113.5 419.37,-90.76 343.59,-78.3 298.97,-72.44"/>
<polygon fill="#63b8ff" stroke="#63b8ff" points="299.65,-68.99 289.29,-71.21 298.77,-75.94 299.65,-68.99"/>
</a>
</g>
</g>
<!-- Node21&#45;&gt;Node7 -->
<g id="edge60_Node000021_Node000007" class="edge">
<title>Node21&#45;&gt;Node7</title>
<g id="a_edge60_Node000021_Node000007"><a xlink:title=" ">
<path fill="none" stroke="#63b8ff" d="M592.02,-169.87C576.92,-152.73 547.05,-115.44 536,-77.5 531.53,-62.16 535.78,-44.44 540.73,-31.21"/>
<polygon fill="#63b8ff" stroke="#63b8ff" points="543.82,-32.87 544.47,-22.3 537.37,-30.16 543.82,-32.87"/>
</a>
</g>
</g>
<!-- Node21&#45;&gt;Node11 -->
<g id="edge56_Node000021_Node000011" class="edge">
<title>Node21&#45;&gt;Node11</title>
<g id="a_edge56_Node000021_Node000011"><a xlink:title=" ">
<path fill="none" stroke="#63b8ff" d="M603.9,-170.12C609.37,-152.19 621.32,-113 628.71,-88.76"/>
<polygon fill="#63b8ff" stroke="#63b8ff" points="632,-89.96 631.57,-79.37 625.31,-87.92 632,-89.96"/>
</a>
</g>
</g>
<!-- Node21&#45;&gt;Node13 -->
<g id="edge55_Node000021_Node000013" class="edge">
<title>Node21&#45;&gt;Node13</title>
<g id="a_edge55_Node000021_Node000013"><a xlink:title=" ">
<path fill="none" stroke="#63b8ff" d="M577.58,-171.19C552.44,-162.13 512.24,-147.65 483.48,-137.29"/>
<polygon fill="#63b8ff" stroke="#63b8ff" points="484.71,-134.02 474.12,-133.92 482.34,-140.6 484.71,-134.02"/>
</a>
</g>
</g>
<!-- Node22 -->
<g id="Node000022" class="node">
<title>Node22</title>
<g id="a_Node000022"><a xlink:href="../../d6/d68/vector_8h.html" target="_top" xlink:title=" ">
<polygon fill="#fff0f0" stroke="red" points="878,-77.5 814,-77.5 814,-56.75 878,-56.75 878,-77.5"/>
<text text-anchor="middle" x="846" y="-64" font-family="Helvetica,sans-Serif" font-size="10.00">fl/vector.h</text>
</a>
</g>
</g>
<!-- Node21&#45;&gt;Node22 -->
<g id="edge57_Node000021_Node000022" class="edge">
<title>Node21&#45;&gt;Node22</title>
<g id="a_edge57_Node000021_Node000022"><a xlink:title=" ">
<path fill="none" stroke="#63b8ff" d="M608.49,-169.94C620.23,-155.44 644.38,-128.23 671,-113.5 682.57,-107.1 754.72,-89.47 802.69,-78.16"/>
<polygon fill="#63b8ff" stroke="#63b8ff" points="803.31,-81.61 812.25,-75.92 801.71,-74.8 803.31,-81.61"/>
</a>
</g>
</g>
<!-- Node25 -->
<g id="Node000025" class="node">
<title>Node25</title>
<g id="a_Node000025"><a xlink:href="../../d0/d19/fl_2math__macros_8h.html" target="_top" xlink:title=" ">
<polygon fill="white" stroke="#666666" points="780.38,-134.25 679.62,-134.25 679.62,-113.5 780.38,-113.5 780.38,-134.25"/>
<text text-anchor="middle" x="730" y="-120.75" font-family="Helvetica,sans-Serif" font-size="10.00">fl/math_macros.h</text>
</a>
</g>
</g>
<!-- Node21&#45;&gt;Node25 -->
<g id="edge61_Node000021_Node000025" class="edge">
<title>Node21&#45;&gt;Node25</title>
<g id="a_edge61_Node000021_Node000025"><a xlink:title=" ">
<path fill="none" stroke="#63b8ff" d="M624.06,-169.84C644.24,-161.27 673.8,-148.73 696.57,-139.06"/>
<polygon fill="#63b8ff" stroke="#63b8ff" points="697.91,-142.3 705.74,-135.17 695.17,-135.85 697.91,-142.3"/>
</a>
</g>
</g>
<!-- Node22&#45;&gt;Node2 -->
<g id="edge58_Node000022_Node000002" class="edge">
<title>Node22&#45;&gt;Node2</title>
<g id="a_edge58_Node000022_Node000002"><a xlink:title=" ">
<path fill="none" stroke="#63b8ff" d="M878.17,-58.46C881.15,-57.84 884.12,-57.26 887,-56.75 1000.64,-36.48 1136.46,-21.58 1201.14,-15.04"/>
<polygon fill="#63b8ff" stroke="#63b8ff" points="1201.26,-18.55 1210.87,-14.07 1200.57,-11.58 1201.26,-18.55"/>
</a>
</g>
</g>
<!-- Node22&#45;&gt;Node7 -->
<g id="edge59_Node000022_Node000007" class="edge">
<title>Node22&#45;&gt;Node7</title>
<g id="a_edge59_Node000022_Node000007"><a xlink:title=" ">
<path fill="none" stroke="#63b8ff" d="M813.8,-58.61C810.83,-57.96 807.86,-57.33 805,-56.75 736.99,-42.93 658.31,-29.28 606.54,-20.62"/>
<polygon fill="#63b8ff" stroke="#63b8ff" points="607.2,-17.19 596.76,-18.99 606.05,-24.09 607.2,-17.19"/>
</a>
</g>
</g>
</g>
</svg>
