<?xml version="1.0" encoding="UTF-8" standalone="no"?>
<!DOCTYPE svg PUBLIC "-//W3C//DTD SVG 1.1//EN"
 "http://www.w3.org/Graphics/SVG/1.1/DTD/svg11.dtd">
<!-- Generated by graphviz version 12.2.1 (20241206.2353)
 -->
<!-- Title: /home/runner/work/FastLED/FastLED/src/fx/video/frame_interpolator.cpp Pages: 1 -->
<svg width="1241pt" height="395pt"
 viewBox="0.00 0.00 1241.25 394.75" xmlns="http://www.w3.org/2000/svg" xmlns:xlink="http://www.w3.org/1999/xlink">
<g id="graph0" class="graph" transform="scale(1 1) rotate(0) translate(4 390.75)">
<title>/home/runner/work/FastLED/FastLED/src/fx/video/frame_interpolator.cpp</title>
<!-- Node1 -->
<g id="Node000001" class="node">
<title>Node1</title>
<g id="a_Node000001"><a xlink:title=" ">
<polygon fill="#999999" stroke="#666666" points="1079.75,-386.75 930.25,-386.75 930.25,-340.5 1079.75,-340.5 1079.75,-386.75"/>
<text text-anchor="start" x="938.25" y="-373.25" font-family="Helvetica,sans-Serif" font-size="10.00">/home/runner/work/FastLED</text>
<text text-anchor="start" x="938.25" y="-360.5" font-family="Helvetica,sans-Serif" font-size="10.00">/FastLED/src/fx/video/frame</text>
<text text-anchor="middle" x="1005" y="-347.75" font-family="Helvetica,sans-Serif" font-size="10.00">_interpolator.cpp</text>
</a>
</g>
</g>
<!-- Node2 -->
<g id="Node000002" class="node">
<title>Node2</title>
<g id="a_Node000002"><a xlink:href="../../d3/dda/frame__interpolator_8h.html" target="_top" xlink:title=" ">
<polygon fill="white" stroke="#666666" points="583.25,-304.5 424.75,-304.5 424.75,-283.75 583.25,-283.75 583.25,-304.5"/>
<text text-anchor="middle" x="504" y="-291" font-family="Helvetica,sans-Serif" font-size="10.00">fx/video/frame_interpolator.h</text>
</a>
</g>
</g>
<!-- Node1&#45;&gt;Node2 -->
<g id="edge1_Node000001_Node000002" class="edge">
<title>Node1&#45;&gt;Node2</title>
<g id="a_edge1_Node000001_Node000002"><a xlink:title=" ">
<path fill="none" stroke="#63b8ff" d="M930,-352.52C838.45,-340.19 684.06,-319.38 588.43,-306.5"/>
<polygon fill="#63b8ff" stroke="#63b8ff" points="588.95,-303.04 578.57,-305.17 588.01,-309.98 588.95,-303.04"/>
</a>
</g>
</g>
<!-- Node6 -->
<g id="Node000006" class="node">
<title>Node6</title>
<g id="a_Node000006"><a xlink:href="../../df/d2a/namespace_8h.html" target="_top" xlink:title="Implements the FastLED namespace macros.">
<polygon fill="white" stroke="#666666" points="385.12,-20.75 294.88,-20.75 294.88,0 385.12,0 385.12,-20.75"/>
<text text-anchor="middle" x="340" y="-7.25" font-family="Helvetica,sans-Serif" font-size="10.00">fl/namespace.h</text>
</a>
</g>
</g>
<!-- Node1&#45;&gt;Node6 -->
<g id="edge55_Node000001_Node000006" class="edge">
<title>Node1&#45;&gt;Node6</title>
<g id="a_edge55_Node000001_Node000006"><a xlink:title=" ">
<path fill="none" stroke="#63b8ff" d="M929.87,-361.22C696.55,-355.87 0,-332.05 0,-238.38 0,-238.38 0,-238.38 0,-122.88 0,-82.89 25.79,-75.69 61,-56.75 98.46,-36.6 213.12,-22.93 283.25,-16.21"/>
<polygon fill="#63b8ff" stroke="#63b8ff" points="283.39,-19.71 293.02,-15.29 282.74,-12.74 283.39,-19.71"/>
</a>
</g>
</g>
<!-- Node26 -->
<g id="Node000026" class="node">
<title>Node26</title>
<g id="a_Node000026"><a xlink:href="../../d3/dfa/pixel__stream_8h.html" target="_top" xlink:title=" ">
<polygon fill="white" stroke="#666666" points="788.38,-247.75 657.62,-247.75 657.62,-227 788.38,-227 788.38,-247.75"/>
<text text-anchor="middle" x="723" y="-234.25" font-family="Helvetica,sans-Serif" font-size="10.00">fx/video/pixel_stream.h</text>
</a>
</g>
</g>
<!-- Node1&#45;&gt;Node26 -->
<g id="edge53_Node000001_Node000026" class="edge">
<title>Node1&#45;&gt;Node26</title>
<g id="a_edge53_Node000001_Node000026"><a xlink:title=" ">
<path fill="none" stroke="#63b8ff" d="M953.93,-340.12C896.24,-314.7 804.06,-274.09 755.45,-252.67"/>
<polygon fill="#63b8ff" stroke="#63b8ff" points="757.15,-249.6 746.58,-248.77 754.32,-256 757.15,-249.6"/>
</a>
</g>
</g>
<!-- Node42 -->
<g id="Node000042" class="node">
<title>Node42</title>
<g id="a_Node000042"><a xlink:href="../../d9/d43/circular__buffer_8h.html" target="_top" xlink:title=" ">
<polygon fill="white" stroke="#666666" points="1056.5,-191 953.5,-191 953.5,-170.25 1056.5,-170.25 1056.5,-191"/>
<text text-anchor="middle" x="1005" y="-177.5" font-family="Helvetica,sans-Serif" font-size="10.00">fl/circular_buffer.h</text>
</a>
</g>
</g>
<!-- Node1&#45;&gt;Node42 -->
<g id="edge47_Node000001_Node000042" class="edge">
<title>Node1&#45;&gt;Node42</title>
<g id="a_edge47_Node000001_Node000042"><a xlink:title=" ">
<path fill="none" stroke="#63b8ff" d="M1005,-340.07C1005,-304.77 1005,-236.99 1005,-202.66"/>
<polygon fill="#63b8ff" stroke="#63b8ff" points="1008.5,-202.79 1005,-192.79 1001.5,-202.79 1008.5,-202.79"/>
</a>
</g>
</g>
<!-- Node25 -->
<g id="Node000025" class="node">
<title>Node25</title>
<g id="a_Node000025"><a xlink:href="../../d0/d19/fl_2math__macros_8h.html" target="_top" xlink:title=" ">
<polygon fill="white" stroke="#666666" points="1208.38,-134.25 1107.62,-134.25 1107.62,-113.5 1208.38,-113.5 1208.38,-134.25"/>
<text text-anchor="middle" x="1158" y="-120.75" font-family="Helvetica,sans-Serif" font-size="10.00">fl/math_macros.h</text>
</a>
</g>
</g>
<!-- Node1&#45;&gt;Node25 -->
<g id="edge54_Node000001_Node000025" class="edge">
<title>Node1&#45;&gt;Node25</title>
<g id="a_edge54_Node000001_Node000025"><a xlink:title=" ">
<path fill="none" stroke="#63b8ff" d="M1019.39,-340.26C1049.29,-293.8 1117.67,-187.55 1145.68,-144.01"/>
<polygon fill="#63b8ff" stroke="#63b8ff" points="1148.6,-145.95 1151.07,-135.64 1142.71,-142.16 1148.6,-145.95"/>
</a>
</g>
</g>
<!-- Node15 -->
<g id="Node000015" class="node">
<title>Node15</title>
<g id="a_Node000015"><a xlink:href="../../d6/d01/dbg_8h.html" target="_top" xlink:title=" ">
<polygon fill="#fff0f0" stroke="red" points="1165,-304.5 1113,-304.5 1113,-283.75 1165,-283.75 1165,-304.5"/>
<text text-anchor="middle" x="1139" y="-291" font-family="Helvetica,sans-Serif" font-size="10.00">fl/dbg.h</text>
</a>
</g>
</g>
<!-- Node1&#45;&gt;Node15 -->
<g id="edge56_Node000001_Node000015" class="edge">
<title>Node1&#45;&gt;Node15</title>
<g id="a_edge56_Node000001_Node000015"><a xlink:title=" ">
<path fill="none" stroke="#63b8ff" d="M1049.62,-340.15C1069.29,-330.24 1091.87,-318.87 1109.41,-310.03"/>
<polygon fill="#63b8ff" stroke="#63b8ff" points="1110.91,-313.2 1118.26,-305.57 1107.76,-306.94 1110.91,-313.2"/>
</a>
</g>
</g>
<!-- Node43 -->
<g id="Node000043" class="node">
<title>Node43</title>
<g id="a_Node000043"><a xlink:title=" ">
<polygon fill="#e0e0e0" stroke="#999999" points="1233.25,-304.5 1182.75,-304.5 1182.75,-283.75 1233.25,-283.75 1233.25,-304.5"/>
<text text-anchor="middle" x="1208" y="-291" font-family="Helvetica,sans-Serif" font-size="10.00">math.h</text>
</a>
</g>
</g>
<!-- Node1&#45;&gt;Node43 -->
<g id="edge57_Node000001_Node000043" class="edge">
<title>Node1&#45;&gt;Node43</title>
<g id="a_edge57_Node000001_Node000043"><a xlink:title=" ">
<path fill="none" stroke="#63b8ff" d="M1072.88,-340.05C1105.9,-329.07 1144.28,-316.31 1171.68,-307.2"/>
<polygon fill="#63b8ff" stroke="#63b8ff" points="1172.51,-310.61 1180.9,-304.14 1170.31,-303.97 1172.51,-310.61"/>
</a>
</g>
</g>
<!-- Node3 -->
<g id="Node000003" class="node">
<title>Node3</title>
<g id="a_Node000003"><a xlink:href="../../dc/db7/map_8h.html" target="_top" xlink:title=" ">
<polygon fill="white" stroke="#666666" points="437.88,-191 382.12,-191 382.12,-170.25 437.88,-170.25 437.88,-191"/>
<text text-anchor="middle" x="410" y="-177.5" font-family="Helvetica,sans-Serif" font-size="10.00">fl/map.h</text>
</a>
</g>
</g>
<!-- Node2&#45;&gt;Node3 -->
<g id="edge2_Node000002_Node000003" class="edge">
<title>Node2&#45;&gt;Node3</title>
<g id="a_edge2_Node000002_Node000003"><a xlink:title=" ">
<path fill="none" stroke="#63b8ff" d="M492.99,-283.56C483.09,-274.72 468.39,-260.99 457,-247.75 444.12,-232.78 431.24,-214.36 422.24,-200.77"/>
<polygon fill="#63b8ff" stroke="#63b8ff" points="425.38,-199.19 416.99,-192.72 419.52,-203.01 425.38,-199.19"/>
</a>
</g>
</g>
<!-- Node2&#45;&gt;Node6 -->
<g id="edge46_Node000002_Node000006" class="edge">
<title>Node2&#45;&gt;Node6</title>
<g id="a_edge46_Node000002_Node000006"><a xlink:title=" ">
<path fill="none" stroke="#63b8ff" d="M424.42,-290.34C291.33,-283.49 38,-260.13 38,-181.62 38,-181.62 38,-181.62 38,-122.88 38,-80.4 69.29,-76.3 107,-56.75 162.55,-27.95 234.17,-17.35 283.25,-13.5"/>
<polygon fill="#63b8ff" stroke="#63b8ff" points="283.36,-17 293.09,-12.8 282.87,-10.01 283.36,-17"/>
</a>
</g>
</g>
<!-- Node2&#45;&gt;Node26 -->
<g id="edge17_Node000002_Node000026" class="edge">
<title>Node2&#45;&gt;Node26</title>
<g id="a_edge17_Node000002_Node000026"><a xlink:title=" ">
<path fill="none" stroke="#63b8ff" d="M543.41,-283.27C579.57,-274.23 633.34,-260.79 672.62,-250.97"/>
<polygon fill="#63b8ff" stroke="#63b8ff" points="673.22,-254.43 682.07,-248.61 671.52,-247.64 673.22,-254.43"/>
</a>
</g>
</g>
<!-- Node40 -->
<g id="Node000040" class="node">
<title>Node40</title>
<g id="a_Node000040"><a xlink:href="../../df/d7d/frame_8h.html" target="_top" xlink:title=" ">
<polygon fill="#fff0f0" stroke="red" points="642.5,-191 575.5,-191 575.5,-170.25 642.5,-170.25 642.5,-191"/>
<text text-anchor="middle" x="609" y="-177.5" font-family="Helvetica,sans-Serif" font-size="10.00">fx/frame.h</text>
</a>
</g>
</g>
<!-- Node2&#45;&gt;Node40 -->
<g id="edge42_Node000002_Node000040" class="edge">
<title>Node2&#45;&gt;Node40</title>
<g id="a_edge42_Node000002_Node000040"><a xlink:title=" ">
<path fill="none" stroke="#63b8ff" d="M512.95,-283.62C530.45,-265.03 569.46,-223.61 592.01,-199.66"/>
<polygon fill="#63b8ff" stroke="#63b8ff" points="594.43,-202.21 598.73,-192.53 589.33,-197.41 594.43,-202.21"/>
</a>
</g>
</g>
<!-- Node41 -->
<g id="Node000041" class="node">
<title>Node41</title>
<g id="a_Node000041"><a xlink:href="../../d2/df7/frame__tracker_8h.html" target="_top" xlink:title=" ">
<polygon fill="white" stroke="#666666" points="541.62,-77.5 406.38,-77.5 406.38,-56.75 541.62,-56.75 541.62,-77.5"/>
<text text-anchor="middle" x="474" y="-64" font-family="Helvetica,sans-Serif" font-size="10.00">fx/video/frame_tracker.h</text>
</a>
</g>
</g>
<!-- Node2&#45;&gt;Node41 -->
<g id="edge43_Node000002_Node000041" class="edge">
<title>Node2&#45;&gt;Node41</title>
<g id="a_edge43_Node000002_Node000041"><a xlink:title=" ">
<path fill="none" stroke="#63b8ff" d="M502.71,-283.46C498.2,-249.63 483.06,-136.11 476.78,-88.94"/>
<polygon fill="#63b8ff" stroke="#63b8ff" points="480.28,-88.71 475.48,-79.26 473.34,-89.63 480.28,-88.71"/>
</a>
</g>
</g>
<!-- Node4 -->
<g id="Node000004" class="node">
<title>Node4</title>
<g id="a_Node000004"><a xlink:title=" ">
<polygon fill="#e0e0e0" stroke="#999999" points="785.38,-20.75 732.62,-20.75 732.62,0 785.38,0 785.38,-20.75"/>
<text text-anchor="middle" x="759" y="-7.25" font-family="Helvetica,sans-Serif" font-size="10.00">stdint.h</text>
</a>
</g>
</g>
<!-- Node3&#45;&gt;Node4 -->
<g id="edge3_Node000003_Node000004" class="edge">
<title>Node3&#45;&gt;Node4</title>
<g id="a_edge3_Node000003_Node000004"><a xlink:title=" ">
<path fill="none" stroke="#63b8ff" d="M436.99,-169.82C460.68,-161.04 495.93,-147.53 526,-134.25 545.05,-125.84 548.41,-120.54 568,-113.5 633.74,-89.88 664.97,-119.23 721,-77.5 736.25,-66.14 746.35,-46.72 752.28,-31.85"/>
<polygon fill="#63b8ff" stroke="#63b8ff" points="755.52,-33.17 755.64,-22.57 748.94,-30.78 755.52,-33.17"/>
</a>
</g>
</g>
<!-- Node5 -->
<g id="Node000005" class="node">
<title>Node5</title>
<g id="a_Node000005"><a xlink:title=" ">
<polygon fill="#e0e0e0" stroke="#999999" points="861.5,-77.5 806.5,-77.5 806.5,-56.75 861.5,-56.75 861.5,-77.5"/>
<text text-anchor="middle" x="834" y="-64" font-family="Helvetica,sans-Serif" font-size="10.00">stddef.h</text>
</a>
</g>
</g>
<!-- Node3&#45;&gt;Node5 -->
<g id="edge4_Node000003_Node000005" class="edge">
<title>Node3&#45;&gt;Node5</title>
<g id="a_edge4_Node000003_Node000005"><a xlink:title=" ">
<path fill="none" stroke="#63b8ff" d="M438.1,-171.17C481.62,-158.17 568.03,-132.77 642,-113.5 694.94,-99.71 756.57,-85.46 795.43,-76.7"/>
<polygon fill="#63b8ff" stroke="#63b8ff" points="795.77,-80.21 804.76,-74.6 794.24,-73.38 795.77,-80.21"/>
</a>
</g>
</g>
<!-- Node3&#45;&gt;Node6 -->
<g id="edge5_Node000003_Node000006" class="edge">
<title>Node3&#45;&gt;Node6</title>
<g id="a_edge5_Node000003_Node000006"><a xlink:title=" ">
<path fill="none" stroke="#63b8ff" d="M382,-179.42C318.15,-178.29 164.79,-171.67 133,-134.25 122.14,-121.47 115.66,-82.28 138,-56.75 156.85,-35.2 230.47,-22.9 283.39,-16.68"/>
<polygon fill="#63b8ff" stroke="#63b8ff" points="283.62,-20.18 293.17,-15.58 282.84,-13.22 283.62,-20.18"/>
</a>
</g>
</g>
<!-- Node7 -->
<g id="Node000007" class="node">
<title>Node7</title>
<g id="a_Node000007"><a xlink:href="../../d6/d68/vector_8h.html" target="_top" xlink:title=" ">
<polygon fill="#fff0f0" stroke="red" points="442,-134.25 378,-134.25 378,-113.5 442,-113.5 442,-134.25"/>
<text text-anchor="middle" x="410" y="-120.75" font-family="Helvetica,sans-Serif" font-size="10.00">fl/vector.h</text>
</a>
</g>
</g>
<!-- Node3&#45;&gt;Node7 -->
<g id="edge6_Node000003_Node000007" class="edge">
<title>Node3&#45;&gt;Node7</title>
<g id="a_edge6_Node000003_Node000007"><a xlink:title=" ">
<path fill="none" stroke="#63b8ff" d="M410,-169.84C410,-163.22 410,-154.22 410,-146.02"/>
<polygon fill="#63b8ff" stroke="#63b8ff" points="413.5,-146.09 410,-136.09 406.5,-146.09 413.5,-146.09"/>
</a>
</g>
</g>
<!-- Node10 -->
<g id="Node000010" class="node">
<title>Node10</title>
<g id="a_Node000010"><a xlink:href="../../d1/d22/insert__result_8h.html" target="_top" xlink:title=" ">
<polygon fill="white" stroke="#666666" points="274.38,-77.5 179.62,-77.5 179.62,-56.75 274.38,-56.75 274.38,-77.5"/>
<text text-anchor="middle" x="227" y="-64" font-family="Helvetica,sans-Serif" font-size="10.00">fl/insert_result.h</text>
</a>
</g>
</g>
<!-- Node3&#45;&gt;Node10 -->
<g id="edge14_Node000003_Node000010" class="edge">
<title>Node3&#45;&gt;Node10</title>
<g id="a_edge14_Node000003_Node000010"><a xlink:title=" ">
<path fill="none" stroke="#63b8ff" d="M394.08,-169.93C362.31,-150.57 290.8,-107 252.45,-83.63"/>
<polygon fill="#63b8ff" stroke="#63b8ff" points="254.67,-80.88 244.31,-78.67 251.02,-86.86 254.67,-80.88"/>
</a>
</g>
</g>
<!-- Node11 -->
<g id="Node000011" class="node">
<title>Node11</title>
<g id="a_Node000011"><a xlink:href="../../d8/d0c/template__magic_8h.html" target="_top" xlink:title=" ">
<polygon fill="white" stroke="#666666" points="711.75,-77.5 598.25,-77.5 598.25,-56.75 711.75,-56.75 711.75,-77.5"/>
<text text-anchor="middle" x="655" y="-64" font-family="Helvetica,sans-Serif" font-size="10.00">fl/template_magic.h</text>
</a>
</g>
</g>
<!-- Node3&#45;&gt;Node11 -->
<g id="edge11_Node000003_Node000011" class="edge">
<title>Node3&#45;&gt;Node11</title>
<g id="a_edge11_Node000003_Node000011"><a xlink:title=" ">
<path fill="none" stroke="#63b8ff" d="M426.35,-169.9C449.57,-156.3 493.68,-131.28 533,-113.5 559.57,-101.48 590.36,-90.05 614.36,-81.67"/>
<polygon fill="#63b8ff" stroke="#63b8ff" points="615.47,-84.99 623.78,-78.42 613.18,-78.37 615.47,-84.99"/>
</a>
</g>
</g>
<!-- Node12 -->
<g id="Node000012" class="node">
<title>Node12</title>
<g id="a_Node000012"><a xlink:href="../../d3/d41/pair_8h.html" target="_top" xlink:title=" ">
<polygon fill="white" stroke="#666666" points="194,-134.25 142,-134.25 142,-113.5 194,-113.5 194,-134.25"/>
<text text-anchor="middle" x="168" y="-120.75" font-family="Helvetica,sans-Serif" font-size="10.00">fl/pair.h</text>
</a>
</g>
</g>
<!-- Node3&#45;&gt;Node12 -->
<g id="edge15_Node000003_Node000012" class="edge">
<title>Node3&#45;&gt;Node12</title>
<g id="a_edge15_Node000003_Node000012"><a xlink:title=" ">
<path fill="none" stroke="#63b8ff" d="M381.78,-173.87C343.88,-166.04 274.18,-151.33 205.37,-134.75"/>
<polygon fill="#63b8ff" stroke="#63b8ff" points="206.35,-131.38 195.81,-132.43 204.7,-138.19 206.35,-131.38"/>
</a>
</g>
</g>
<!-- Node13 -->
<g id="Node000013" class="node">
<title>Node13</title>
<g id="a_Node000013"><a xlink:href="../../dc/da7/assert_8h.html" target="_top" xlink:title=" ">
<polygon fill="#fff0f0" stroke="red" points="276,-134.25 212,-134.25 212,-113.5 276,-113.5 276,-134.25"/>
<text text-anchor="middle" x="244" y="-120.75" font-family="Helvetica,sans-Serif" font-size="10.00">fl/assert.h</text>
</a>
</g>
</g>
<!-- Node3&#45;&gt;Node13 -->
<g id="edge16_Node000003_Node000013" class="edge">
<title>Node3&#45;&gt;Node13</title>
<g id="a_edge16_Node000003_Node000013"><a xlink:title=" ">
<path fill="none" stroke="#63b8ff" d="M381.84,-170.34C355.07,-161.51 314.51,-148.13 284.31,-138.17"/>
<polygon fill="#63b8ff" stroke="#63b8ff" points="285.73,-134.95 275.14,-135.14 283.54,-141.6 285.73,-134.95"/>
</a>
</g>
</g>
<!-- Node7&#45;&gt;Node4 -->
<g id="edge7_Node000007_Node000004" class="edge">
<title>Node7&#45;&gt;Node4</title>
<g id="a_edge7_Node000007_Node000004"><a xlink:title=" ">
<path fill="none" stroke="#63b8ff" d="M442.27,-114.37C471.26,-106.29 514.73,-93.07 551,-77.5 568.68,-69.91 571.13,-63.89 589,-56.75 632.96,-39.18 686,-26.25 721.01,-18.79"/>
<polygon fill="#63b8ff" stroke="#63b8ff" points="721.6,-22.24 730.67,-16.77 720.17,-15.39 721.6,-22.24"/>
</a>
</g>
</g>
<!-- Node7&#45;&gt;Node5 -->
<g id="edge8_Node000007_Node000005" class="edge">
<title>Node7&#45;&gt;Node5</title>
<g id="a_edge8_Node000007_Node000005"><a xlink:title=" ">
<path fill="none" stroke="#63b8ff" d="M442.22,-118.71C518.83,-108.82 711.68,-83.92 794.84,-73.18"/>
<polygon fill="#63b8ff" stroke="#63b8ff" points="795.08,-76.68 804.55,-71.93 794.18,-69.74 795.08,-76.68"/>
</a>
</g>
</g>
<!-- Node7&#45;&gt;Node6 -->
<g id="edge9_Node000007_Node000006" class="edge">
<title>Node7&#45;&gt;Node6</title>
<g id="a_edge9_Node000007_Node000006"><a xlink:title=" ">
<path fill="none" stroke="#63b8ff" d="M377.86,-114.48C359.19,-107.77 337.21,-96.29 326,-77.5 317.56,-63.34 322.59,-44.82 328.86,-30.98"/>
<polygon fill="#63b8ff" stroke="#63b8ff" points="331.81,-32.9 333.23,-22.4 325.57,-29.72 331.81,-32.9"/>
</a>
</g>
</g>
<!-- Node7&#45;&gt;Node10 -->
<g id="edge10_Node000007_Node000010" class="edge">
<title>Node7&#45;&gt;Node10</title>
<g id="a_edge10_Node000007_Node000010"><a xlink:title=" ">
<path fill="none" stroke="#63b8ff" d="M377.7,-113.21C347.93,-104.3 303.49,-91.01 270.58,-81.16"/>
<polygon fill="#63b8ff" stroke="#63b8ff" points="271.93,-77.91 261.35,-78.4 269.92,-84.62 271.93,-77.91"/>
</a>
</g>
</g>
<!-- Node11&#45;&gt;Node4 -->
<g id="edge12_Node000011_Node000004" class="edge">
<title>Node11&#45;&gt;Node4</title>
<g id="a_edge12_Node000011_Node000004"><a xlink:title=" ">
<path fill="none" stroke="#63b8ff" d="M673.59,-56.34C689.42,-48.01 712.4,-35.91 730.54,-26.36"/>
<polygon fill="#63b8ff" stroke="#63b8ff" points="732.01,-29.54 739.23,-21.78 728.75,-23.34 732.01,-29.54"/>
</a>
</g>
</g>
<!-- Node11&#45;&gt;Node6 -->
<g id="edge13_Node000011_Node000006" class="edge">
<title>Node11&#45;&gt;Node6</title>
<g id="a_edge13_Node000011_Node000006"><a xlink:title=" ">
<path fill="none" stroke="#63b8ff" d="M598.32,-56.27C541.32,-46.37 453.91,-31.17 396.85,-21.26"/>
<polygon fill="#63b8ff" stroke="#63b8ff" points="397.45,-17.81 387,-19.54 396.25,-24.7 397.45,-17.81"/>
</a>
</g>
</g>
<!-- Node26&#45;&gt;Node6 -->
<g id="edge18_Node000026_Node000006" class="edge">
<title>Node26&#45;&gt;Node6</title>
<g id="a_edge18_Node000026_Node000006"><a xlink:title=" ">
<path fill="none" stroke="#63b8ff" d="M657.36,-235.71C515.34,-232.7 187.01,-216.78 121,-134.25 111.84,-122.8 98.43,-85.21 122,-56.75 142.22,-32.32 226.06,-20.57 283.67,-15.28"/>
<polygon fill="#63b8ff" stroke="#63b8ff" points="283.65,-18.79 293.31,-14.44 283.04,-11.82 283.65,-18.79"/>
</a>
</g>
</g>
<!-- Node17 -->
<g id="Node000017" class="node">
<title>Node17</title>
<g id="a_Node000017"><a xlink:href="../../db/dd1/crgb_8h.html" target="_top" xlink:title="Defines the red, green, and blue (RGB) pixel struct.">
<polygon fill="#fff0f0" stroke="red" points="697,-134.25 651,-134.25 651,-113.5 697,-113.5 697,-134.25"/>
<text text-anchor="middle" x="674" y="-120.75" font-family="Helvetica,sans-Serif" font-size="10.00">crgb.h</text>
</a>
</g>
</g>
<!-- Node26&#45;&gt;Node17 -->
<g id="edge19_Node000026_Node000017" class="edge">
<title>Node26&#45;&gt;Node17</title>
<g id="a_edge19_Node000026_Node000017"><a xlink:title=" ">
<path fill="none" stroke="#63b8ff" d="M714.16,-226.65C706.68,-217.92 696.21,-204.44 690,-191 683.39,-176.7 679.32,-159.35 676.95,-146.01"/>
<polygon fill="#63b8ff" stroke="#63b8ff" points="680.41,-145.51 675.39,-136.18 673.5,-146.6 680.41,-145.51"/>
</a>
</g>
</g>
<!-- Node24 -->
<g id="Node000024" class="node">
<title>Node24</title>
<g id="a_Node000024"><a xlink:href="../../d7/df1/fl_2ptr_8h.html" target="_top" xlink:title=" ">
<polygon fill="#fff0f0" stroke="red" points="824.38,-134.25 777.62,-134.25 777.62,-113.5 824.38,-113.5 824.38,-134.25"/>
<text text-anchor="middle" x="801" y="-120.75" font-family="Helvetica,sans-Serif" font-size="10.00">fl/ptr.h</text>
</a>
</g>
</g>
<!-- Node26&#45;&gt;Node24 -->
<g id="edge23_Node000026_Node000024" class="edge">
<title>Node26&#45;&gt;Node24</title>
<g id="a_edge23_Node000026_Node000024"><a xlink:title=" ">
<path fill="none" stroke="#63b8ff" d="M752.28,-226.58C768.71,-219.44 787.9,-208.01 798,-191 806,-177.54 806.33,-159.67 804.89,-145.9"/>
<polygon fill="#63b8ff" stroke="#63b8ff" points="808.38,-145.54 803.46,-136.15 801.45,-146.55 808.38,-145.54"/>
</a>
</g>
</g>
<!-- Node27 -->
<g id="Node000027" class="node">
<title>Node27</title>
<g id="a_Node000027"><a xlink:href="../../dd/d2b/bytestream_8h.html" target="_top" xlink:title=" ">
<polygon fill="white" stroke="#666666" points="789.12,-191 698.88,-191 698.88,-170.25 789.12,-170.25 789.12,-191"/>
<text text-anchor="middle" x="744" y="-177.5" font-family="Helvetica,sans-Serif" font-size="10.00">fl/bytestream.h</text>
</a>
</g>
</g>
<!-- Node26&#45;&gt;Node27 -->
<g id="edge27_Node000026_Node000027" class="edge">
<title>Node26&#45;&gt;Node27</title>
<g id="a_edge27_Node000026_Node000027"><a xlink:title=" ">
<path fill="none" stroke="#63b8ff" d="M726.75,-226.59C729.38,-219.74 732.99,-210.34 736.22,-201.9"/>
<polygon fill="#63b8ff" stroke="#63b8ff" points="739.42,-203.33 739.74,-192.74 732.89,-200.82 739.42,-203.33"/>
</a>
</g>
</g>
<!-- Node28 -->
<g id="Node000028" class="node">
<title>Node28</title>
<g id="a_Node000028"><a xlink:href="../../d9/d28/fl_2file__system_8h.html" target="_top" xlink:title=" ">
<polygon fill="#fff0f0" stroke="red" points="935.12,-191 844.88,-191 844.88,-170.25 935.12,-170.25 935.12,-191"/>
<text text-anchor="middle" x="890" y="-177.5" font-family="Helvetica,sans-Serif" font-size="10.00">fl/file_system.h</text>
</a>
</g>
</g>
<!-- Node26&#45;&gt;Node28 -->
<g id="edge33_Node000026_Node000028" class="edge">
<title>Node26&#45;&gt;Node28</title>
<g id="a_edge33_Node000026_Node000028"><a xlink:title=" ">
<path fill="none" stroke="#63b8ff" d="M752.86,-226.59C779.73,-217.78 819.45,-204.75 849.24,-194.99"/>
<polygon fill="#63b8ff" stroke="#63b8ff" points="850.27,-198.33 858.68,-191.89 848.09,-191.68 850.27,-198.33"/>
</a>
</g>
</g>
<!-- Node26&#45;&gt;Node40 -->
<g id="edge38_Node000026_Node000040" class="edge">
<title>Node26&#45;&gt;Node40</title>
<g id="a_edge38_Node000026_Node000040"><a xlink:title=" ">
<path fill="none" stroke="#63b8ff" d="M702.62,-226.59C685.03,-218.14 659.37,-205.82 639.37,-196.21"/>
<polygon fill="#63b8ff" stroke="#63b8ff" points="641.1,-193.16 630.57,-191.98 638.07,-199.47 641.1,-193.16"/>
</a>
</g>
</g>
<!-- Node17&#45;&gt;Node4 -->
<g id="edge20_Node000017_Node000004" class="edge">
<title>Node17&#45;&gt;Node4</title>
<g id="a_edge20_Node000017_Node000004"><a xlink:title=" ">
<path fill="none" stroke="#63b8ff" d="M697.19,-116.38C715.91,-109.83 741.17,-97.73 754,-77.5 762.4,-64.25 763.28,-46.37 762.26,-32.54"/>
<polygon fill="#63b8ff" stroke="#63b8ff" points="765.75,-32.27 761.12,-22.73 758.79,-33.07 765.75,-32.27"/>
</a>
</g>
</g>
<!-- Node17&#45;&gt;Node6 -->
<g id="edge21_Node000017_Node000006" class="edge">
<title>Node17&#45;&gt;Node6</title>
<g id="a_edge21_Node000017_Node000006"><a xlink:title=" ">
<path fill="none" stroke="#63b8ff" d="M650.77,-119.99C588.15,-112.1 419.1,-89.89 397,-77.5 377.23,-66.42 361.12,-45.73 351.12,-30.43"/>
<polygon fill="#63b8ff" stroke="#63b8ff" points="354.25,-28.84 346.01,-22.18 348.3,-32.52 354.25,-28.84"/>
</a>
</g>
</g>
<!-- Node17&#45;&gt;Node11 -->
<g id="edge22_Node000017_Node000011" class="edge">
<title>Node17&#45;&gt;Node11</title>
<g id="a_edge22_Node000017_Node000011"><a xlink:title=" ">
<path fill="none" stroke="#63b8ff" d="M670.6,-113.09C668.25,-106.31 665.04,-97.05 662.14,-88.69"/>
<polygon fill="#63b8ff" stroke="#63b8ff" points="665.45,-87.56 658.86,-79.26 658.84,-89.85 665.45,-87.56"/>
</a>
</g>
</g>
<!-- Node24&#45;&gt;Node5 -->
<g id="edge24_Node000024_Node000005" class="edge">
<title>Node24&#45;&gt;Node5</title>
<g id="a_edge24_Node000024_Node000005"><a xlink:title=" ">
<path fill="none" stroke="#63b8ff" d="M806.9,-113.09C811.17,-106 817.08,-96.19 822.3,-87.54"/>
<polygon fill="#63b8ff" stroke="#63b8ff" points="825.21,-89.5 827.37,-79.12 819.21,-85.88 825.21,-89.5"/>
</a>
</g>
</g>
<!-- Node24&#45;&gt;Node6 -->
<g id="edge25_Node000024_Node000006" class="edge">
<title>Node24&#45;&gt;Node6</title>
<g id="a_edge25_Node000024_Node000006"><a xlink:title=" ">
<path fill="none" stroke="#63b8ff" d="M824.47,-113.25C851.72,-100.76 890.56,-78.05 871,-56.75 839.41,-22.35 527.35,-13.99 396.88,-11.99"/>
<polygon fill="#63b8ff" stroke="#63b8ff" points="397.13,-8.49 387.08,-11.85 397.03,-15.49 397.13,-8.49"/>
</a>
</g>
</g>
<!-- Node24&#45;&gt;Node11 -->
<g id="edge26_Node000024_Node000011" class="edge">
<title>Node24&#45;&gt;Node11</title>
<g id="a_edge26_Node000024_Node000011"><a xlink:title=" ">
<path fill="none" stroke="#63b8ff" d="M777.22,-113.96C754.07,-105.27 718.55,-91.96 691.76,-81.91"/>
<polygon fill="#63b8ff" stroke="#63b8ff" points="693.25,-78.73 682.66,-78.5 690.79,-85.28 693.25,-78.73"/>
</a>
</g>
</g>
<!-- Node27&#45;&gt;Node4 -->
<g id="edge29_Node000027_Node000004" class="edge">
<title>Node27&#45;&gt;Node4</title>
<g id="a_edge29_Node000027_Node000004"><a xlink:title=" ">
<path fill="none" stroke="#63b8ff" d="M773.63,-169.76C809.67,-155.84 868.15,-126.5 888,-77.5 904.26,-37.35 840.34,-21.3 796.71,-15.09"/>
<polygon fill="#63b8ff" stroke="#63b8ff" points="797.44,-11.65 787.07,-13.84 796.54,-18.6 797.44,-11.65"/>
</a>
</g>
</g>
<!-- Node27&#45;&gt;Node5 -->
<g id="edge28_Node000027_Node000005" class="edge">
<title>Node27&#45;&gt;Node5</title>
<g id="a_edge28_Node000027_Node000005"><a xlink:title=" ">
<path fill="none" stroke="#63b8ff" d="M745.81,-169.75C748.74,-155.97 755.58,-130.74 769,-113.5 778.38,-101.45 791.83,-91.32 804.07,-83.72"/>
<polygon fill="#63b8ff" stroke="#63b8ff" points="805.79,-86.77 812.65,-78.7 802.25,-80.73 805.79,-86.77"/>
</a>
</g>
</g>
<!-- Node27&#45;&gt;Node6 -->
<g id="edge30_Node000027_Node000006" class="edge">
<title>Node27&#45;&gt;Node6</title>
<g id="a_edge30_Node000027_Node000006"><a xlink:title=" ">
<path fill="none" stroke="#63b8ff" d="M699.58,-169.79C605.85,-148.72 394.36,-99.37 369,-77.5 355.5,-65.86 348.05,-46.75 344.1,-32.06"/>
<polygon fill="#63b8ff" stroke="#63b8ff" points="347.55,-31.45 341.88,-22.5 340.73,-33.03 347.55,-31.45"/>
</a>
</g>
</g>
<!-- Node27&#45;&gt;Node17 -->
<g id="edge32_Node000027_Node000017" class="edge">
<title>Node27&#45;&gt;Node17</title>
<g id="a_edge32_Node000027_Node000017"><a xlink:title=" ">
<path fill="none" stroke="#63b8ff" d="M731.49,-169.84C721.43,-161.97 707.09,-150.75 695.24,-141.49"/>
<polygon fill="#63b8ff" stroke="#63b8ff" points="697.63,-138.91 687.6,-135.51 693.32,-144.43 697.63,-138.91"/>
</a>
</g>
</g>
<!-- Node27&#45;&gt;Node24 -->
<g id="edge31_Node000027_Node000024" class="edge">
<title>Node27&#45;&gt;Node24</title>
<g id="a_edge31_Node000027_Node000024"><a xlink:title=" ">
<path fill="none" stroke="#63b8ff" d="M754.19,-169.84C762.13,-162.21 773.37,-151.42 782.84,-142.32"/>
<polygon fill="#63b8ff" stroke="#63b8ff" points="785.02,-145.08 789.81,-135.63 780.17,-140.03 785.02,-145.08"/>
</a>
</g>
</g>
<!-- Node28&#45;&gt;Node4 -->
<g id="edge34_Node000028_Node000004" class="edge">
<title>Node28&#45;&gt;Node4</title>
<g id="a_edge34_Node000028_Node000004"><a xlink:title=" ">
<path fill="none" stroke="#63b8ff" d="M907.56,-169.86C919.73,-162.01 934.96,-149.74 942,-134.25 957.96,-99.15 934,-79.68 903,-56.75 871.61,-33.53 827.99,-21.97 797,-16.36"/>
<polygon fill="#63b8ff" stroke="#63b8ff" points="797.73,-12.93 787.29,-14.74 796.58,-19.84 797.73,-12.93"/>
</a>
</g>
</g>
<!-- Node28&#45;&gt;Node5 -->
<g id="edge35_Node000028_Node000005" class="edge">
<title>Node28&#45;&gt;Node5</title>
<g id="a_edge35_Node000028_Node000005"><a xlink:title=" ">
<path fill="none" stroke="#63b8ff" d="M885.23,-170.12C876.14,-152.02 856.18,-112.28 844.03,-88.1"/>
<polygon fill="#63b8ff" stroke="#63b8ff" points="847.22,-86.64 839.6,-79.28 840.96,-89.78 847.22,-86.64"/>
</a>
</g>
</g>
<!-- Node28&#45;&gt;Node6 -->
<g id="edge36_Node000028_Node000006" class="edge">
<title>Node28&#45;&gt;Node6</title>
<g id="a_edge36_Node000028_Node000006"><a xlink:title=" ">
<path fill="none" stroke="#63b8ff" d="M893.58,-170.07C901.51,-147.11 917.59,-88.37 888,-56.75 854.88,-21.36 529.45,-13.56 396.32,-11.85"/>
<polygon fill="#63b8ff" stroke="#63b8ff" points="396.74,-8.36 386.7,-11.74 396.66,-15.36 396.74,-8.36"/>
</a>
</g>
</g>
<!-- Node28&#45;&gt;Node24 -->
<g id="edge37_Node000028_Node000024" class="edge">
<title>Node28&#45;&gt;Node24</title>
<g id="a_edge37_Node000028_Node000024"><a xlink:title=" ">
<path fill="none" stroke="#63b8ff" d="M874.09,-169.84C860.8,-161.66 841.61,-149.86 826.23,-140.4"/>
<polygon fill="#63b8ff" stroke="#63b8ff" points="828.41,-137.63 818.06,-135.37 824.75,-143.59 828.41,-137.63"/>
</a>
</g>
</g>
<!-- Node40&#45;&gt;Node6 -->
<g id="edge39_Node000040_Node000006" class="edge">
<title>Node40&#45;&gt;Node6</title>
<g id="a_edge39_Node000040_Node000006"><a xlink:title=" ">
<path fill="none" stroke="#63b8ff" d="M575.01,-174.21C528.31,-166.55 441.82,-151.53 369,-134.25 357.87,-131.61 177.89,-86.64 171,-77.5 139.02,-35.07 222.5,-19.85 283.21,-14.4"/>
<polygon fill="#63b8ff" stroke="#63b8ff" points="283.44,-17.89 293.12,-13.59 282.87,-10.91 283.44,-17.89"/>
</a>
</g>
</g>
<!-- Node40&#45;&gt;Node17 -->
<g id="edge40_Node000040_Node000017" class="edge">
<title>Node40&#45;&gt;Node17</title>
<g id="a_edge40_Node000040_Node000017"><a xlink:title=" ">
<path fill="none" stroke="#63b8ff" d="M620.62,-169.84C629.86,-162.05 643.01,-150.97 653.95,-141.76"/>
<polygon fill="#63b8ff" stroke="#63b8ff" points="655.93,-144.67 661.32,-135.55 651.42,-139.32 655.93,-144.67"/>
</a>
</g>
</g>
<!-- Node40&#45;&gt;Node24 -->
<g id="edge41_Node000040_Node000024" class="edge">
<title>Node40&#45;&gt;Node24</title>
<g id="a_edge41_Node000040_Node000024"><a xlink:title=" ">
<path fill="none" stroke="#63b8ff" d="M642.88,-169.96C677.66,-160.05 731.5,-144.69 766.5,-134.71"/>
<polygon fill="#63b8ff" stroke="#63b8ff" points="767.04,-138.2 775.7,-132.09 765.12,-131.47 767.04,-138.2"/>
</a>
</g>
</g>
<!-- Node41&#45;&gt;Node4 -->
<g id="edge44_Node000041_Node000004" class="edge">
<title>Node41&#45;&gt;Node4</title>
<g id="a_edge44_Node000041_Node000004"><a xlink:title=" ">
<path fill="none" stroke="#63b8ff" d="M525.28,-56.27C581.63,-45.45 670.81,-28.32 721.15,-18.65"/>
<polygon fill="#63b8ff" stroke="#63b8ff" points="721.53,-22.14 730.69,-16.81 720.21,-15.26 721.53,-22.14"/>
</a>
</g>
</g>
<!-- Node41&#45;&gt;Node6 -->
<g id="edge45_Node000041_Node000006" class="edge">
<title>Node41&#45;&gt;Node6</title>
<g id="a_edge45_Node000041_Node000006"><a xlink:title=" ">
<path fill="none" stroke="#63b8ff" d="M450.04,-56.34C428.99,-47.73 398.1,-35.11 374.4,-25.43"/>
<polygon fill="#63b8ff" stroke="#63b8ff" points="375.73,-22.19 365.15,-21.65 373.08,-28.67 375.73,-22.19"/>
</a>
</g>
</g>
<!-- Node42&#45;&gt;Node4 -->
<g id="edge49_Node000042_Node000004" class="edge">
<title>Node42&#45;&gt;Node4</title>
<g id="a_edge49_Node000042_Node000004"><a xlink:title=" ">
<path fill="none" stroke="#63b8ff" d="M1022.23,-169.78C1034.17,-161.89 1049.11,-149.6 1056,-134.25 1070.1,-102.83 1078.44,-82.88 1056,-56.75 1023,-18.33 869.17,-12.09 796.81,-11.31"/>
<polygon fill="#63b8ff" stroke="#63b8ff" points="797.06,-7.82 787.03,-11.24 797.01,-14.82 797.06,-7.82"/>
</a>
</g>
</g>
<!-- Node42&#45;&gt;Node5 -->
<g id="edge48_Node000042_Node000005" class="edge">
<title>Node42&#45;&gt;Node5</title>
<g id="a_edge48_Node000042_Node000005"><a xlink:title=" ">
<path fill="none" stroke="#63b8ff" d="M990.12,-169.93C960.56,-150.65 894.19,-107.37 858.24,-83.93"/>
<polygon fill="#63b8ff" stroke="#63b8ff" points="860.52,-81.24 850.23,-78.71 856.7,-87.1 860.52,-81.24"/>
</a>
</g>
</g>
<!-- Node42&#45;&gt;Node6 -->
<g id="edge50_Node000042_Node000006" class="edge">
<title>Node42&#45;&gt;Node6</title>
<g id="a_edge50_Node000042_Node000006"><a xlink:title=" ">
<path fill="none" stroke="#63b8ff" d="M1000.83,-170.07C989.78,-146.01 957.13,-83.03 908,-56.75 863.66,-33.03 531.45,-18.37 396.62,-13.34"/>
<polygon fill="#63b8ff" stroke="#63b8ff" points="396.98,-9.85 386.86,-12.98 396.72,-16.84 396.98,-9.85"/>
</a>
</g>
</g>
<!-- Node42&#45;&gt;Node24 -->
<g id="edge51_Node000042_Node000024" class="edge">
<title>Node42&#45;&gt;Node24</title>
<g id="a_edge51_Node000042_Node000024"><a xlink:title=" ">
<path fill="none" stroke="#63b8ff" d="M968.53,-169.84C930.83,-159.72 872.41,-144.04 835.47,-134.13"/>
<polygon fill="#63b8ff" stroke="#63b8ff" points="836.76,-130.85 826.2,-131.64 834.95,-137.61 836.76,-130.85"/>
</a>
</g>
</g>
<!-- Node42&#45;&gt;Node25 -->
<g id="edge52_Node000042_Node000025" class="edge">
<title>Node42&#45;&gt;Node25</title>
<g id="a_edge52_Node000042_Node000025"><a xlink:title=" ">
<path fill="none" stroke="#63b8ff" d="M1032.35,-169.84C1056.75,-161.11 1092.72,-148.23 1119.93,-138.5"/>
<polygon fill="#63b8ff" stroke="#63b8ff" points="1120.96,-141.85 1129.2,-135.18 1118.61,-135.25 1120.96,-141.85"/>
</a>
</g>
</g>
</g>
</svg>
