<?xml version="1.0" encoding="UTF-8" standalone="no"?>
<!DOCTYPE svg PUBLIC "-//W3C//DTD SVG 1.1//EN"
 "http://www.w3.org/Graphics/SVG/1.1/DTD/svg11.dtd">
<!-- Generated by graphviz version 12.2.1 (20241206.2353)
 -->
<!-- Title: /home/runner/work/FastLED/FastLED/src/fx/video/pixel_stream.h Pages: 1 -->
<svg width="1389pt" height="395pt"
 viewBox="0.00 0.00 1388.82 394.75" xmlns="http://www.w3.org/2000/svg" xmlns:xlink="http://www.w3.org/1999/xlink">
<g id="graph0" class="graph" transform="scale(1 1) rotate(0) translate(4 390.75)">
<title>/home/runner/work/FastLED/FastLED/src/fx/video/pixel_stream.h</title>
<!-- Node1 -->
<g id="Node000001" class="node">
<title>Node1</title>
<g id="a_Node000001"><a xlink:title=" ">
<polygon fill="#999999" stroke="#666666" points="637.75,-386.75 488.25,-386.75 488.25,-340.5 637.75,-340.5 637.75,-386.75"/>
<text text-anchor="start" x="496.25" y="-373.25" font-family="Helvetica,sans-Serif" font-size="10.00">/home/runner/work/FastLED</text>
<text text-anchor="start" x="496.25" y="-360.5" font-family="Helvetica,sans-Serif" font-size="10.00">/FastLED/src/fx/video/pixel</text>
<text text-anchor="middle" x="563" y="-347.75" font-family="Helvetica,sans-Serif" font-size="10.00">_stream.h</text>
</a>
</g>
</g>
<!-- Node2 -->
<g id="Node000002" class="node">
<title>Node2</title>
<g id="a_Node000002"><a xlink:href="../../df/d2a/namespace_8h.html" target="_top" xlink:title="Implements the FastLED namespace macros.">
<polygon fill="white" stroke="#666666" points="619.12,-20.75 528.88,-20.75 528.88,0 619.12,0 619.12,-20.75"/>
<text text-anchor="middle" x="574" y="-7.25" font-family="Helvetica,sans-Serif" font-size="10.00">fl/namespace.h</text>
</a>
</g>
</g>
<!-- Node1&#45;&gt;Node2 -->
<g id="edge1_Node000001_Node000002" class="edge">
<title>Node1&#45;&gt;Node2</title>
<g id="a_edge1_Node000001_Node000002"><a xlink:title=" ">
<path fill="none" stroke="#63b8ff" d="M591.49,-340.23C616.86,-317.56 650,-279.98 650,-238.38 650,-238.38 650,-238.38 650,-179.62 650,-127.64 612.98,-125.49 593,-77.5 586.81,-62.64 581.88,-45.1 578.59,-31.82"/>
<polygon fill="#63b8ff" stroke="#63b8ff" points="582.09,-31.43 576.39,-22.5 575.28,-33.04 582.09,-31.43"/>
</a>
</g>
</g>
<!-- Node3 -->
<g id="Node000003" class="node">
<title>Node3</title>
<g id="a_Node000003"><a xlink:href="../../db/dd1/crgb_8h.html" target="_top" xlink:title="Defines the red, green, and blue (RGB) pixel struct.">
<polygon fill="white" stroke="#666666" points="890,-134.25 844,-134.25 844,-113.5 890,-113.5 890,-134.25"/>
<text text-anchor="middle" x="867" y="-120.75" font-family="Helvetica,sans-Serif" font-size="10.00">crgb.h</text>
</a>
</g>
</g>
<!-- Node1&#45;&gt;Node3 -->
<g id="edge2_Node000001_Node000003" class="edge">
<title>Node1&#45;&gt;Node3</title>
<g id="a_edge2_Node000001_Node000003"><a xlink:title=" ">
<path fill="none" stroke="#63b8ff" d="M620.94,-340.12C642.28,-330.6 666.08,-318.47 686,-304.5 755.91,-255.48 823.22,-178.37 852.16,-143.32"/>
<polygon fill="#63b8ff" stroke="#63b8ff" points="854.7,-145.73 858.32,-135.78 849.28,-141.31 854.7,-145.73"/>
</a>
</g>
</g>
<!-- Node10 -->
<g id="Node000010" class="node">
<title>Node10</title>
<g id="a_Node000010"><a xlink:href="../../d7/df1/fl_2ptr_8h.html" target="_top" xlink:title=" ">
<polygon fill="white" stroke="#666666" points="341.38,-134.25 294.62,-134.25 294.62,-113.5 341.38,-113.5 341.38,-134.25"/>
<text text-anchor="middle" x="318" y="-120.75" font-family="Helvetica,sans-Serif" font-size="10.00">fl/ptr.h</text>
</a>
</g>
</g>
<!-- Node1&#45;&gt;Node10 -->
<g id="edge17_Node000001_Node000010" class="edge">
<title>Node1&#45;&gt;Node10</title>
<g id="a_edge17_Node000001_Node000010"><a xlink:title=" ">
<path fill="none" stroke="#63b8ff" d="M488.02,-342.34C460.43,-333.08 429.68,-320.53 404,-304.5 348.68,-269.96 328.39,-253.85 311,-191 306.85,-176.01 309.01,-158.48 311.99,-145.23"/>
<polygon fill="#63b8ff" stroke="#63b8ff" points="315.27,-146.5 314.41,-135.94 308.5,-144.73 315.27,-146.5"/>
</a>
</g>
</g>
<!-- Node13 -->
<g id="Node000013" class="node">
<title>Node13</title>
<g id="a_Node000013"><a xlink:href="../../dd/d2b/bytestream_8h.html" target="_top" xlink:title=" ">
<polygon fill="white" stroke="#666666" points="779.12,-191 688.88,-191 688.88,-170.25 779.12,-170.25 779.12,-191"/>
<text text-anchor="middle" x="734" y="-177.5" font-family="Helvetica,sans-Serif" font-size="10.00">fl/bytestream.h</text>
</a>
</g>
</g>
<!-- Node1&#45;&gt;Node13 -->
<g id="edge24_Node000001_Node000013" class="edge">
<title>Node1&#45;&gt;Node13</title>
<g id="a_edge24_Node000001_Node000013"><a xlink:title=" ">
<path fill="none" stroke="#63b8ff" d="M614.16,-340.01C631.38,-330.72 649.8,-318.77 664,-304.5 694.19,-274.17 715.72,-228.18 726.39,-201.91"/>
<polygon fill="#63b8ff" stroke="#63b8ff" points="729.58,-203.36 729.97,-192.77 723.06,-200.81 729.58,-203.36"/>
</a>
</g>
</g>
<!-- Node14 -->
<g id="Node000014" class="node">
<title>Node14</title>
<g id="a_Node000014"><a xlink:href="../../d9/d28/fl_2file__system_8h.html" target="_top" xlink:title=" ">
<polygon fill="white" stroke="#666666" points="503.12,-304.5 412.88,-304.5 412.88,-283.75 503.12,-283.75 503.12,-304.5"/>
<text text-anchor="middle" x="458" y="-291" font-family="Helvetica,sans-Serif" font-size="10.00">fl/file_system.h</text>
</a>
</g>
</g>
<!-- Node1&#45;&gt;Node14 -->
<g id="edge30_Node000001_Node000014" class="edge">
<title>Node1&#45;&gt;Node14</title>
<g id="a_edge30_Node000001_Node000014"><a xlink:title=" ">
<path fill="none" stroke="#63b8ff" d="M528.04,-340.15C513.2,-330.61 496.26,-319.72 482.76,-311.04"/>
<polygon fill="#63b8ff" stroke="#63b8ff" points="484.77,-308.17 474.46,-305.71 480.98,-314.06 484.77,-308.17"/>
</a>
</g>
</g>
<!-- Node32 -->
<g id="Node000032" class="node">
<title>Node32</title>
<g id="a_Node000032"><a xlink:href="../../df/d7d/frame_8h.html" target="_top" xlink:title=" ">
<polygon fill="white" stroke="#666666" points="210.5,-191 143.5,-191 143.5,-170.25 210.5,-170.25 210.5,-191"/>
<text text-anchor="middle" x="177" y="-177.5" font-family="Helvetica,sans-Serif" font-size="10.00">fx/frame.h</text>
</a>
</g>
</g>
<!-- Node1&#45;&gt;Node32 -->
<g id="edge53_Node000001_Node000032" class="edge">
<title>Node1&#45;&gt;Node32</title>
<g id="a_edge53_Node000001_Node000032"><a xlink:title=" ">
<path fill="none" stroke="#63b8ff" d="M487.87,-357.93C401.66,-351.14 267.13,-335.79 228,-304.5 196.25,-279.1 184.05,-230.53 179.52,-202.67"/>
<polygon fill="#63b8ff" stroke="#63b8ff" points="183.02,-202.39 178.16,-192.98 176.09,-203.37 183.02,-202.39"/>
</a>
</g>
</g>
<!-- Node3&#45;&gt;Node2 -->
<g id="edge7_Node000003_Node000002" class="edge">
<title>Node3&#45;&gt;Node2</title>
<g id="a_edge7_Node000003_Node000002"><a xlink:title=" ">
<path fill="none" stroke="#63b8ff" d="M853.94,-113.13C834.17,-98.81 795,-72.11 758,-56.75 716.83,-39.66 667.7,-27.95 630.57,-20.71"/>
<polygon fill="#63b8ff" stroke="#63b8ff" points="631.42,-17.31 620.94,-18.89 630.11,-24.19 631.42,-17.31"/>
</a>
</g>
</g>
<!-- Node4 -->
<g id="Node000004" class="node">
<title>Node4</title>
<g id="a_Node000004"><a xlink:title=" ">
<polygon fill="#e0e0e0" stroke="#999999" points="1263.38,-20.75 1210.62,-20.75 1210.62,0 1263.38,0 1263.38,-20.75"/>
<text text-anchor="middle" x="1237" y="-7.25" font-family="Helvetica,sans-Serif" font-size="10.00">stdint.h</text>
</a>
</g>
</g>
<!-- Node3&#45;&gt;Node4 -->
<g id="edge3_Node000003_Node000004" class="edge">
<title>Node3&#45;&gt;Node4</title>
<g id="a_edge3_Node000003_Node000004"><a xlink:title=" ">
<path fill="none" stroke="#63b8ff" d="M890.15,-122.97C939.97,-122.38 1060.21,-116.63 1151,-77.5 1177.85,-65.93 1203.76,-44.07 1220,-28.66"/>
<polygon fill="#63b8ff" stroke="#63b8ff" points="1222.18,-31.42 1226.89,-21.93 1217.29,-26.42 1222.18,-31.42"/>
</a>
</g>
</g>
<!-- Node5 -->
<g id="Node000005" class="node">
<title>Node5</title>
<g id="a_Node000005"><a xlink:href="../../d8/dd0/chsv_8h.html" target="_top" xlink:title="Defines the hue, saturation, and value (HSV) pixel struct.">
<polygon fill="white" stroke="#666666" points="923.38,-77.5 876.62,-77.5 876.62,-56.75 923.38,-56.75 923.38,-77.5"/>
<text text-anchor="middle" x="900" y="-64" font-family="Helvetica,sans-Serif" font-size="10.00">chsv.h</text>
</a>
</g>
</g>
<!-- Node3&#45;&gt;Node5 -->
<g id="edge4_Node000003_Node000005" class="edge">
<title>Node3&#45;&gt;Node5</title>
<g id="a_edge4_Node000003_Node000005"><a xlink:title=" ">
<path fill="none" stroke="#63b8ff" d="M872.9,-113.09C877.17,-106 883.08,-96.19 888.3,-87.54"/>
<polygon fill="#63b8ff" stroke="#63b8ff" points="891.21,-89.5 893.37,-79.12 885.21,-85.88 891.21,-89.5"/>
</a>
</g>
</g>
<!-- Node6 -->
<g id="Node000006" class="node">
<title>Node6</title>
<g id="a_Node000006"><a xlink:href="../../d2/d6b/src_2color_8h.html" target="_top" xlink:title="Contains definitions for color correction and temperature.">
<polygon fill="white" stroke="#666666" points="858.12,-77.5 809.88,-77.5 809.88,-56.75 858.12,-56.75 858.12,-77.5"/>
<text text-anchor="middle" x="834" y="-64" font-family="Helvetica,sans-Serif" font-size="10.00">color.h</text>
</a>
</g>
</g>
<!-- Node3&#45;&gt;Node6 -->
<g id="edge8_Node000003_Node000006" class="edge">
<title>Node3&#45;&gt;Node6</title>
<g id="a_edge8_Node000003_Node000006"><a xlink:title=" ">
<path fill="none" stroke="#63b8ff" d="M861.1,-113.09C856.83,-106 850.92,-96.19 845.7,-87.54"/>
<polygon fill="#63b8ff" stroke="#63b8ff" points="848.79,-85.88 840.63,-79.12 842.79,-89.5 848.79,-85.88"/>
</a>
</g>
</g>
<!-- Node7 -->
<g id="Node000007" class="node">
<title>Node7</title>
<g id="a_Node000007"><a xlink:href="../../d9/ddf/lib8tion_2types_8h.html" target="_top" xlink:title="Defines fractional types used for lib8tion functions.">
<polygon fill="white" stroke="#666666" points="1032.88,-77.5 941.12,-77.5 941.12,-56.75 1032.88,-56.75 1032.88,-77.5"/>
<text text-anchor="middle" x="987" y="-64" font-family="Helvetica,sans-Serif" font-size="10.00">lib8tion/types.h</text>
</a>
</g>
</g>
<!-- Node3&#45;&gt;Node7 -->
<g id="edge10_Node000003_Node000007" class="edge">
<title>Node3&#45;&gt;Node7</title>
<g id="a_edge10_Node000003_Node000007"><a xlink:title=" ">
<path fill="none" stroke="#63b8ff" d="M888.45,-113.09C907.05,-104.6 934.22,-92.2 955.33,-82.58"/>
<polygon fill="#63b8ff" stroke="#63b8ff" points="956.71,-85.79 964.36,-78.46 953.8,-79.42 956.71,-85.79"/>
</a>
</g>
</g>
<!-- Node8 -->
<g id="Node000008" class="node">
<title>Node8</title>
<g id="a_Node000008"><a xlink:href="../../d8/d2d/fl_2force__inline_8h.html" target="_top" xlink:title=" ">
<polygon fill="white" stroke="#666666" points="1141.5,-77.5 1050.5,-77.5 1050.5,-56.75 1141.5,-56.75 1141.5,-77.5"/>
<text text-anchor="middle" x="1096" y="-64" font-family="Helvetica,sans-Serif" font-size="10.00">fl/force_inline.h</text>
</a>
</g>
</g>
<!-- Node3&#45;&gt;Node8 -->
<g id="edge13_Node000003_Node000008" class="edge">
<title>Node3&#45;&gt;Node8</title>
<g id="a_edge13_Node000003_Node000008"><a xlink:title=" ">
<path fill="none" stroke="#63b8ff" d="M890.22,-117.32C926.01,-108.77 995.57,-92.14 1043.85,-80.59"/>
<polygon fill="#63b8ff" stroke="#63b8ff" points="1044.64,-84 1053.55,-78.27 1043.01,-77.2 1044.64,-84"/>
</a>
</g>
</g>
<!-- Node9 -->
<g id="Node000009" class="node">
<title>Node9</title>
<g id="a_Node000009"><a xlink:href="../../d8/d0c/template__magic_8h.html" target="_top" xlink:title=" ">
<polygon fill="white" stroke="#666666" points="715.75,-77.5 602.25,-77.5 602.25,-56.75 715.75,-56.75 715.75,-77.5"/>
<text text-anchor="middle" x="659" y="-64" font-family="Helvetica,sans-Serif" font-size="10.00">fl/template_magic.h</text>
</a>
</g>
</g>
<!-- Node3&#45;&gt;Node9 -->
<g id="edge14_Node000003_Node000009" class="edge">
<title>Node3&#45;&gt;Node9</title>
<g id="a_edge14_Node000003_Node000009"><a xlink:title=" ">
<path fill="none" stroke="#63b8ff" d="M843.54,-116.7C810.68,-108.05 750.16,-92.12 707.4,-80.86"/>
<polygon fill="#63b8ff" stroke="#63b8ff" points="708.42,-77.51 697.86,-78.35 706.64,-84.28 708.42,-77.51"/>
</a>
</g>
</g>
<!-- Node5&#45;&gt;Node2 -->
<g id="edge6_Node000005_Node000002" class="edge">
<title>Node5&#45;&gt;Node2</title>
<g id="a_edge6_Node000005_Node000002"><a xlink:title=" ">
<path fill="none" stroke="#63b8ff" d="M876.3,-59.01C873.18,-58.19 870.03,-57.41 867,-56.75 785.68,-38.97 690.17,-25.55 630.86,-18.07"/>
<polygon fill="#63b8ff" stroke="#63b8ff" points="631.35,-14.61 621,-16.84 630.49,-21.55 631.35,-14.61"/>
</a>
</g>
</g>
<!-- Node5&#45;&gt;Node4 -->
<g id="edge5_Node000005_Node000004" class="edge">
<title>Node5&#45;&gt;Node4</title>
<g id="a_edge5_Node000005_Node000004"><a xlink:title=" ">
<path fill="none" stroke="#63b8ff" d="M923.67,-58.8C926.46,-58.05 929.29,-57.35 932,-56.75 1027.14,-35.84 1141.13,-21.73 1199.1,-15.32"/>
<polygon fill="#63b8ff" stroke="#63b8ff" points="1199.19,-18.83 1208.75,-14.27 1198.43,-11.87 1199.19,-18.83"/>
</a>
</g>
</g>
<!-- Node6&#45;&gt;Node2 -->
<g id="edge9_Node000006_Node000002" class="edge">
<title>Node6&#45;&gt;Node2</title>
<g id="a_edge9_Node000006_Node000002"><a xlink:title=" ">
<path fill="none" stroke="#63b8ff" d="M809.5,-59.93C805.02,-58.84 800.37,-57.74 796,-56.75 740.05,-44.13 675.81,-31.17 630.88,-22.35"/>
<polygon fill="#63b8ff" stroke="#63b8ff" points="631.58,-18.92 621.09,-20.43 630.24,-25.79 631.58,-18.92"/>
</a>
</g>
</g>
<!-- Node7&#45;&gt;Node2 -->
<g id="edge12_Node000007_Node000002" class="edge">
<title>Node7&#45;&gt;Node2</title>
<g id="a_edge12_Node000007_Node000002"><a xlink:title=" ">
<path fill="none" stroke="#63b8ff" d="M940.81,-58.1C937.83,-57.63 934.87,-57.18 932,-56.75 825.9,-40.99 701.58,-26.01 630.88,-17.82"/>
<polygon fill="#63b8ff" stroke="#63b8ff" points="631.42,-14.36 621.08,-16.69 630.61,-21.32 631.42,-14.36"/>
</a>
</g>
</g>
<!-- Node7&#45;&gt;Node4 -->
<g id="edge11_Node000007_Node000004" class="edge">
<title>Node7&#45;&gt;Node4</title>
<g id="a_edge11_Node000007_Node000004"><a xlink:title=" ">
<path fill="none" stroke="#63b8ff" d="M1031.98,-56.27C1079.83,-45.79 1154.67,-29.41 1199.46,-19.6"/>
<polygon fill="#63b8ff" stroke="#63b8ff" points="1199.94,-23.07 1208.96,-17.52 1198.44,-16.24 1199.94,-23.07"/>
</a>
</g>
</g>
<!-- Node9&#45;&gt;Node2 -->
<g id="edge16_Node000009_Node000002" class="edge">
<title>Node9&#45;&gt;Node2</title>
<g id="a_edge16_Node000009_Node000002"><a xlink:title=" ">
<path fill="none" stroke="#63b8ff" d="M643.8,-56.34C631.23,-48.24 613.14,-36.58 598.52,-27.17"/>
<polygon fill="#63b8ff" stroke="#63b8ff" points="600.64,-24.37 590.34,-21.9 596.85,-30.26 600.64,-24.37"/>
</a>
</g>
</g>
<!-- Node9&#45;&gt;Node4 -->
<g id="edge15_Node000009_Node000004" class="edge">
<title>Node9&#45;&gt;Node4</title>
<g id="a_edge15_Node000009_Node000004"><a xlink:title=" ">
<path fill="none" stroke="#63b8ff" d="M716,-60.73C833.55,-49.59 1100.13,-24.34 1199.09,-14.97"/>
<polygon fill="#63b8ff" stroke="#63b8ff" points="1199.17,-18.47 1208.8,-14.05 1198.51,-11.5 1199.17,-18.47"/>
</a>
</g>
</g>
<!-- Node10&#45;&gt;Node2 -->
<g id="edge19_Node000010_Node000002" class="edge">
<title>Node10&#45;&gt;Node2</title>
<g id="a_edge19_Node000010_Node000002"><a xlink:title=" ">
<path fill="none" stroke="#63b8ff" d="M322.88,-113.04C330.71,-98.36 347.5,-70.91 370,-56.75 414.44,-28.78 473.84,-17.94 517.07,-13.79"/>
<polygon fill="#63b8ff" stroke="#63b8ff" points="517.36,-17.28 527.03,-12.94 516.76,-10.3 517.36,-17.28"/>
</a>
</g>
</g>
<!-- Node10&#45;&gt;Node9 -->
<g id="edge23_Node000010_Node000009" class="edge">
<title>Node10&#45;&gt;Node9</title>
<g id="a_edge23_Node000010_Node000009"><a xlink:title=" ">
<path fill="none" stroke="#63b8ff" d="M341.71,-119.07C392.6,-110.9 513.91,-91.42 590.93,-79.05"/>
<polygon fill="#63b8ff" stroke="#63b8ff" points="591.14,-82.57 600.46,-77.52 590.03,-75.65 591.14,-82.57"/>
</a>
</g>
</g>
<!-- Node11 -->
<g id="Node000011" class="node">
<title>Node11</title>
<g id="a_Node000011"><a xlink:title=" ">
<polygon fill="#e0e0e0" stroke="#999999" points="231.5,-20.75 176.5,-20.75 176.5,0 231.5,0 231.5,-20.75"/>
<text text-anchor="middle" x="204" y="-7.25" font-family="Helvetica,sans-Serif" font-size="10.00">stddef.h</text>
</a>
</g>
</g>
<!-- Node10&#45;&gt;Node11 -->
<g id="edge18_Node000010_Node000011" class="edge">
<title>Node10&#45;&gt;Node11</title>
<g id="a_edge18_Node000010_Node000011"><a xlink:title=" ">
<path fill="none" stroke="#63b8ff" d="M294.27,-117.48C272.67,-111.35 241.42,-99.26 223,-77.5 212.26,-64.81 207.58,-46.36 205.55,-32.18"/>
<polygon fill="#63b8ff" stroke="#63b8ff" points="209.06,-32.14 204.52,-22.56 202.1,-32.88 209.06,-32.14"/>
</a>
</g>
</g>
<!-- Node12 -->
<g id="Node000012" class="node">
<title>Node12</title>
<g id="a_Node000012"><a xlink:href="../../df/d28/fl_2scoped__ptr_8h.html" target="_top" xlink:title=" ">
<polygon fill="white" stroke="#666666" points="318.25,-77.5 231.75,-77.5 231.75,-56.75 318.25,-56.75 318.25,-77.5"/>
<text text-anchor="middle" x="275" y="-64" font-family="Helvetica,sans-Serif" font-size="10.00">fl/scoped_ptr.h</text>
</a>
</g>
</g>
<!-- Node10&#45;&gt;Node12 -->
<g id="edge20_Node000010_Node000012" class="edge">
<title>Node10&#45;&gt;Node12</title>
<g id="a_edge20_Node000010_Node000012"><a xlink:title=" ">
<path fill="none" stroke="#63b8ff" d="M310.31,-113.09C304.56,-105.77 296.53,-95.54 289.58,-86.69"/>
<polygon fill="#63b8ff" stroke="#63b8ff" points="292.49,-84.72 283.56,-79.02 286.98,-89.05 292.49,-84.72"/>
</a>
</g>
</g>
<!-- Node12&#45;&gt;Node2 -->
<g id="edge22_Node000012_Node000002" class="edge">
<title>Node12&#45;&gt;Node2</title>
<g id="a_edge22_Node000012_Node000002"><a xlink:title=" ">
<path fill="none" stroke="#63b8ff" d="M318.48,-58.16C371.02,-48.54 459.54,-32.33 517.37,-21.74"/>
<polygon fill="#63b8ff" stroke="#63b8ff" points="517.81,-25.22 527.02,-19.98 516.55,-18.34 517.81,-25.22"/>
</a>
</g>
</g>
<!-- Node12&#45;&gt;Node11 -->
<g id="edge21_Node000012_Node000011" class="edge">
<title>Node12&#45;&gt;Node11</title>
<g id="a_edge21_Node000012_Node000011"><a xlink:title=" ">
<path fill="none" stroke="#63b8ff" d="M262.31,-56.34C252.11,-48.47 237.56,-37.25 225.54,-27.99"/>
<polygon fill="#63b8ff" stroke="#63b8ff" points="227.84,-25.34 217.78,-22 223.56,-30.88 227.84,-25.34"/>
</a>
</g>
</g>
<!-- Node13&#45;&gt;Node2 -->
<g id="edge27_Node000013_Node000002" class="edge">
<title>Node13&#45;&gt;Node2</title>
<g id="a_edge27_Node000013_Node000002"><a xlink:title=" ">
<path fill="none" stroke="#63b8ff" d="M736.58,-170.03C742.01,-147.47 752.03,-90.46 725,-56.75 702.56,-28.77 663.52,-17.54 630.76,-13.25"/>
<polygon fill="#63b8ff" stroke="#63b8ff" points="631.3,-9.79 620.98,-12.17 630.53,-16.75 631.3,-9.79"/>
</a>
</g>
</g>
<!-- Node13&#45;&gt;Node3 -->
<g id="edge29_Node000013_Node000003" class="edge">
<title>Node13&#45;&gt;Node3</title>
<g id="a_edge29_Node000013_Node000003"><a xlink:title=" ">
<path fill="none" stroke="#63b8ff" d="M757.78,-169.84C778.81,-161.18 809.72,-148.46 833.29,-138.75"/>
<polygon fill="#63b8ff" stroke="#63b8ff" points="834.56,-142.01 842.47,-134.97 831.89,-135.54 834.56,-142.01"/>
</a>
</g>
</g>
<!-- Node13&#45;&gt;Node4 -->
<g id="edge26_Node000013_Node000004" class="edge">
<title>Node13&#45;&gt;Node4</title>
<g id="a_edge26_Node000013_Node000004"><a xlink:title=" ">
<path fill="none" stroke="#63b8ff" d="M779.45,-178.82C890.41,-176.36 1172.42,-166.97 1260,-134.25 1305.78,-117.15 1364.55,-97.78 1338,-56.75 1324.06,-35.21 1297.21,-23.8 1274.69,-17.81"/>
<polygon fill="#63b8ff" stroke="#63b8ff" points="1275.75,-14.46 1265.21,-15.56 1274.13,-21.27 1275.75,-14.46"/>
</a>
</g>
</g>
<!-- Node13&#45;&gt;Node10 -->
<g id="edge28_Node000013_Node000010" class="edge">
<title>Node13&#45;&gt;Node10</title>
<g id="a_edge28_Node000013_Node000010"><a xlink:title=" ">
<path fill="none" stroke="#63b8ff" d="M688.69,-173.66C604.94,-162.64 427.62,-139.3 352.64,-129.43"/>
<polygon fill="#63b8ff" stroke="#63b8ff" points="353.39,-126 343.01,-128.17 352.47,-132.94 353.39,-126"/>
</a>
</g>
</g>
<!-- Node13&#45;&gt;Node11 -->
<g id="edge25_Node000013_Node000011" class="edge">
<title>Node13&#45;&gt;Node11</title>
<g id="a_edge25_Node000013_Node000011"><a xlink:title=" ">
<path fill="none" stroke="#63b8ff" d="M703.21,-169.85C612.06,-140.91 343.63,-55.7 242.84,-23.7"/>
<polygon fill="#63b8ff" stroke="#63b8ff" points="243.98,-20.4 233.39,-20.71 241.86,-27.07 243.98,-20.4"/>
</a>
</g>
</g>
<!-- Node14&#45;&gt;Node2 -->
<g id="edge33_Node000014_Node000002" class="edge">
<title>Node14&#45;&gt;Node2</title>
<g id="a_edge33_Node000014_Node000002"><a xlink:title=" ">
<path fill="none" stroke="#63b8ff" d="M471.23,-283.39C493.49,-265.77 536,-226.27 536,-181.62 536,-181.62 536,-181.62 536,-122.88 536,-89.26 551.66,-52.85 562.88,-31.09"/>
<polygon fill="#63b8ff" stroke="#63b8ff" points="565.86,-32.94 567.51,-22.47 559.69,-29.62 565.86,-32.94"/>
</a>
</g>
</g>
<!-- Node14&#45;&gt;Node4 -->
<g id="edge31_Node000014_Node000004" class="edge">
<title>Node14&#45;&gt;Node4</title>
<g id="a_edge31_Node000014_Node000004"><a xlink:title=" ">
<path fill="none" stroke="#63b8ff" d="M503.56,-289.71C662.92,-277.05 1193.21,-228.52 1331,-134.25 1363.33,-112.13 1395.9,-88.54 1373,-56.75 1350.84,-25.99 1306.91,-15.77 1274.96,-12.54"/>
<polygon fill="#63b8ff" stroke="#63b8ff" points="1275.55,-9.08 1265.3,-11.76 1274.99,-16.05 1275.55,-9.08"/>
</a>
</g>
</g>
<!-- Node14&#45;&gt;Node10 -->
<g id="edge34_Node000014_Node000010" class="edge">
<title>Node14&#45;&gt;Node10</title>
<g id="a_edge34_Node000014_Node000010"><a xlink:title=" ">
<path fill="none" stroke="#63b8ff" d="M434.22,-283.33C402,-268.62 345.68,-237.52 321,-191 313.66,-177.17 313.28,-159.32 314.54,-145.66"/>
<polygon fill="#63b8ff" stroke="#63b8ff" points="317.97,-146.39 315.8,-136.02 311.03,-145.48 317.97,-146.39"/>
</a>
</g>
</g>
<!-- Node14&#45;&gt;Node11 -->
<g id="edge32_Node000014_Node000011" class="edge">
<title>Node14&#45;&gt;Node11</title>
<g id="a_edge32_Node000014_Node000011"><a xlink:title=" ">
<path fill="none" stroke="#63b8ff" d="M412.41,-291.67C296.57,-286.75 0,-265.92 0,-181.62 0,-181.62 0,-181.62 0,-122.88 0,-48.52 105.64,-23.44 164.88,-15.22"/>
<polygon fill="#63b8ff" stroke="#63b8ff" points="165.09,-18.72 174.56,-13.98 164.2,-11.78 165.09,-18.72"/>
</a>
</g>
</g>
<!-- Node15 -->
<g id="Node000015" class="node">
<title>Node15</title>
<g id="a_Node000015"><a xlink:href="../../dd/d78/video_8h.html" target="_top" xlink:title=" ">
<polygon fill="white" stroke="#666666" points="490.38,-247.75 425.62,-247.75 425.62,-227 490.38,-227 490.38,-247.75"/>
<text text-anchor="middle" x="458" y="-234.25" font-family="Helvetica,sans-Serif" font-size="10.00">fx/video.h</text>
</a>
</g>
</g>
<!-- Node14&#45;&gt;Node15 -->
<g id="edge35_Node000014_Node000015" class="edge">
<title>Node14&#45;&gt;Node15</title>
<g id="a_edge35_Node000014_Node000015"><a xlink:title=" ">
<path fill="none" stroke="#63b8ff" d="M458,-283.34C458,-276.72 458,-267.72 458,-259.52"/>
<polygon fill="#63b8ff" stroke="#63b8ff" points="461.5,-259.59 458,-249.59 454.5,-259.59 461.5,-259.59"/>
</a>
</g>
</g>
<!-- Node24 -->
<g id="Node000024" class="node">
<title>Node24</title>
<g id="a_Node000024"><a xlink:href="../../dc/d0e/fl_2str_8h.html" target="_top" xlink:title=" ">
<polygon fill="#fff0f0" stroke="red" points="392,-191 346,-191 346,-170.25 392,-170.25 392,-191"/>
<text text-anchor="middle" x="369" y="-177.5" font-family="Helvetica,sans-Serif" font-size="10.00">fl/str.h</text>
</a>
</g>
</g>
<!-- Node14&#45;&gt;Node24 -->
<g id="edge52_Node000014_Node000024" class="edge">
<title>Node14&#45;&gt;Node24</title>
<g id="a_edge52_Node000014_Node000024"><a xlink:title=" ">
<path fill="none" stroke="#63b8ff" d="M448.56,-283.3C440.04,-274.29 427.3,-260.45 417,-247.75 404.47,-232.3 391.26,-213.93 381.88,-200.48"/>
<polygon fill="#63b8ff" stroke="#63b8ff" points="384.95,-198.76 376.39,-192.53 379.19,-202.74 384.95,-198.76"/>
</a>
</g>
</g>
<!-- Node15&#45;&gt;Node2 -->
<g id="edge37_Node000015_Node000002" class="edge">
<title>Node15&#45;&gt;Node2</title>
<g id="a_edge37_Node000015_Node000002"><a xlink:title=" ">
<path fill="none" stroke="#63b8ff" d="M462.86,-226.79C467.36,-217.71 474.08,-203.62 479,-191 501.76,-132.63 487.58,-109.1 522,-56.75 529.28,-45.67 539.98,-35.7 549.79,-27.94"/>
<polygon fill="#63b8ff" stroke="#63b8ff" points="551.65,-30.91 557.56,-22.12 547.46,-25.31 551.65,-30.91"/>
</a>
</g>
</g>
<!-- Node15&#45;&gt;Node4 -->
<g id="edge36_Node000015_Node000004" class="edge">
<title>Node15&#45;&gt;Node4</title>
<g id="a_edge36_Node000015_Node000004"><a xlink:title=" ">
<path fill="none" stroke="#63b8ff" d="M490.78,-234.15C593.29,-227.11 906.92,-204.98 1008,-191 1138.53,-172.94 1182.88,-196.53 1299,-134.25 1336.45,-114.16 1379.06,-91.78 1355,-56.75 1337.17,-30.79 1302.25,-19.67 1275,-14.92"/>
<polygon fill="#63b8ff" stroke="#63b8ff" points="1275.78,-11.5 1265.37,-13.47 1274.74,-18.42 1275.78,-11.5"/>
</a>
</g>
</g>
<!-- Node15&#45;&gt;Node10 -->
<g id="edge38_Node000015_Node000010" class="edge">
<title>Node15&#45;&gt;Node10</title>
<g id="a_edge38_Node000015_Node000010"><a xlink:title=" ">
<path fill="none" stroke="#63b8ff" d="M425.23,-232.29C397.96,-227.2 359.99,-215.88 337,-191 325.71,-178.79 321.08,-160.3 319.21,-145.98"/>
<polygon fill="#63b8ff" stroke="#63b8ff" points="322.71,-145.87 318.31,-136.23 315.74,-146.51 322.71,-145.87"/>
</a>
</g>
</g>
<!-- Node16 -->
<g id="Node000016" class="node">
<title>Node16</title>
<g id="a_Node000016"><a xlink:href="../../da/d81/fx1d_8h.html" target="_top" xlink:title=" ">
<polygon fill="#fff0f0" stroke="red" points="1295.75,-77.5 1236.25,-77.5 1236.25,-56.75 1295.75,-56.75 1295.75,-77.5"/>
<text text-anchor="middle" x="1266" y="-64" font-family="Helvetica,sans-Serif" font-size="10.00">fx/fx1d.h</text>
</a>
</g>
</g>
<!-- Node15&#45;&gt;Node16 -->
<g id="edge39_Node000015_Node000016" class="edge">
<title>Node15&#45;&gt;Node16</title>
<g id="a_edge39_Node000015_Node000016"><a xlink:title=" ">
<path fill="none" stroke="#63b8ff" d="M490.58,-233.61C628.35,-221.72 1158.87,-173.68 1222,-134.25 1239.15,-123.54 1251.09,-103.41 1258.16,-88.16"/>
<polygon fill="#63b8ff" stroke="#63b8ff" points="1261.33,-89.65 1262.03,-79.08 1254.89,-86.9 1261.33,-89.65"/>
</a>
</g>
</g>
<!-- Node30 -->
<g id="Node000030" class="node">
<title>Node30</title>
<g id="a_Node000030"><a xlink:href="../../de/df7/time_8h.html" target="_top" xlink:title=" ">
<polygon fill="#fff0f0" stroke="red" points="470.12,-191 409.88,-191 409.88,-170.25 470.12,-170.25 470.12,-191"/>
<text text-anchor="middle" x="440" y="-177.5" font-family="Helvetica,sans-Serif" font-size="10.00">fx/time.h</text>
</a>
</g>
</g>
<!-- Node15&#45;&gt;Node30 -->
<g id="edge42_Node000015_Node000030" class="edge">
<title>Node15&#45;&gt;Node30</title>
<g id="a_edge42_Node000015_Node000030"><a xlink:title=" ">
<path fill="none" stroke="#63b8ff" d="M454.78,-226.59C452.56,-219.81 449.51,-210.55 446.76,-202.19"/>
<polygon fill="#63b8ff" stroke="#63b8ff" points="450.11,-201.17 443.66,-192.77 443.46,-203.36 450.11,-201.17"/>
</a>
</g>
</g>
<!-- Node15&#45;&gt;Node24 -->
<g id="edge46_Node000015_Node000024" class="edge">
<title>Node15&#45;&gt;Node24</title>
<g id="a_edge46_Node000015_Node000024"><a xlink:title=" ">
<path fill="none" stroke="#63b8ff" d="M442.09,-226.59C428.8,-218.41 409.61,-206.61 394.23,-197.15"/>
<polygon fill="#63b8ff" stroke="#63b8ff" points="396.41,-194.38 386.06,-192.12 392.75,-200.34 396.41,-194.38"/>
</a>
</g>
</g>
<!-- Node16&#45;&gt;Node2 -->
<g id="edge41_Node000016_Node000002" class="edge">
<title>Node16&#45;&gt;Node2</title>
<g id="a_edge41_Node000016_Node000002"><a xlink:title=" ">
<path fill="none" stroke="#63b8ff" d="M1236.22,-63.67C1213,-61.77 1179.95,-59.07 1151,-56.75 960.28,-41.48 734.06,-23.82 630.66,-15.78"/>
<polygon fill="#63b8ff" stroke="#63b8ff" points="631.01,-12.29 620.77,-15.01 630.47,-19.27 631.01,-12.29"/>
</a>
</g>
</g>
<!-- Node16&#45;&gt;Node4 -->
<g id="edge40_Node000016_Node000004" class="edge">
<title>Node16&#45;&gt;Node4</title>
<g id="a_edge40_Node000016_Node000004"><a xlink:title=" ">
<path fill="none" stroke="#63b8ff" d="M1260.82,-56.34C1257.1,-49.33 1251.98,-39.66 1247.44,-31.08"/>
<polygon fill="#63b8ff" stroke="#63b8ff" points="1250.62,-29.61 1242.85,-22.42 1244.44,-32.89 1250.62,-29.61"/>
</a>
</g>
</g>
<!-- Node30&#45;&gt;Node2 -->
<g id="edge45_Node000030_Node000002" class="edge">
<title>Node30&#45;&gt;Node2</title>
<g id="a_edge45_Node000030_Node000002"><a xlink:title=" ">
<path fill="none" stroke="#63b8ff" d="M437.16,-169.82C431.29,-147.3 420.38,-91.2 446,-56.75 462.74,-34.24 491.58,-22.85 517.65,-17.11"/>
<polygon fill="#63b8ff" stroke="#63b8ff" points="517.97,-20.61 527.12,-15.27 516.64,-13.74 517.97,-20.61"/>
</a>
</g>
</g>
<!-- Node30&#45;&gt;Node4 -->
<g id="edge43_Node000030_Node000004" class="edge">
<title>Node30&#45;&gt;Node4</title>
<g id="a_edge43_Node000030_Node000004"><a xlink:title=" ">
<path fill="none" stroke="#63b8ff" d="M470.5,-178.31C610.44,-172.24 1185.84,-146.59 1222,-134.25 1232.57,-130.64 1299.79,-87.38 1305,-77.5 1316.06,-56.53 1293.18,-38.24 1271.03,-26.24"/>
<polygon fill="#63b8ff" stroke="#63b8ff" points="1272.89,-23.26 1262.38,-21.87 1269.73,-29.5 1272.89,-23.26"/>
</a>
</g>
</g>
<!-- Node30&#45;&gt;Node10 -->
<g id="edge44_Node000030_Node000010" class="edge">
<title>Node30&#45;&gt;Node10</title>
<g id="a_edge44_Node000030_Node000010"><a xlink:title=" ">
<path fill="none" stroke="#63b8ff" d="M418.19,-169.84C399.19,-161.31 371.4,-148.84 349.91,-139.19"/>
<polygon fill="#63b8ff" stroke="#63b8ff" points="351.56,-136.1 341,-135.2 348.69,-142.49 351.56,-136.1"/>
</a>
</g>
</g>
<!-- Node24&#45;&gt;Node2 -->
<g id="edge51_Node000024_Node000002" class="edge">
<title>Node24&#45;&gt;Node2</title>
<g id="a_edge51_Node000024_Node000002"><a xlink:title=" ">
<path fill="none" stroke="#63b8ff" d="M371.12,-170.05C376.72,-147.03 394.07,-88.2 431,-56.75 455.25,-36.1 488.95,-24.83 517.55,-18.68"/>
<polygon fill="#63b8ff" stroke="#63b8ff" points="518.02,-22.16 527.15,-16.79 516.66,-15.29 518.02,-22.16"/>
</a>
</g>
</g>
<!-- Node24&#45;&gt;Node4 -->
<g id="edge48_Node000024_Node000004" class="edge">
<title>Node24&#45;&gt;Node4</title>
<g id="a_edge48_Node000024_Node000004"><a xlink:title=" ">
<path fill="none" stroke="#63b8ff" d="M392.28,-172.18C395.19,-171.44 398.15,-170.76 401,-170.25 744.99,-108.16 881.73,-256.45 1182,-77.5 1201.18,-66.07 1216.71,-45.44 1226.32,-30.25"/>
<polygon fill="#63b8ff" stroke="#63b8ff" points="1229.08,-32.46 1231.22,-22.08 1223.07,-28.86 1229.08,-32.46"/>
</a>
</g>
</g>
<!-- Node24&#45;&gt;Node9 -->
<g id="edge50_Node000024_Node000009" class="edge">
<title>Node24&#45;&gt;Node9</title>
<g id="a_edge50_Node000024_Node000009"><a xlink:title=" ">
<path fill="none" stroke="#63b8ff" d="M392.24,-170.69C442.73,-151.28 562.71,-105.15 623.05,-81.95"/>
<polygon fill="#63b8ff" stroke="#63b8ff" points="624.1,-85.29 632.18,-78.44 621.59,-78.76 624.1,-85.29"/>
</a>
</g>
</g>
<!-- Node24&#45;&gt;Node10 -->
<g id="edge49_Node000024_Node000010" class="edge">
<title>Node24&#45;&gt;Node10</title>
<g id="a_edge49_Node000024_Node000010"><a xlink:title=" ">
<path fill="none" stroke="#63b8ff" d="M359.88,-169.84C352.92,-162.36 343.13,-151.86 334.77,-142.88"/>
<polygon fill="#63b8ff" stroke="#63b8ff" points="337.45,-140.62 328.07,-135.69 332.33,-145.39 337.45,-140.62"/>
</a>
</g>
</g>
<!-- Node18 -->
<g id="Node000018" class="node">
<title>Node18</title>
<g id="a_Node000018"><a xlink:title=" ">
<polygon fill="#e0e0e0" stroke="#999999" points="138.38,-77.5 85.62,-77.5 85.62,-56.75 138.38,-56.75 138.38,-77.5"/>
<text text-anchor="middle" x="112" y="-64" font-family="Helvetica,sans-Serif" font-size="10.00">string.h</text>
</a>
</g>
</g>
<!-- Node24&#45;&gt;Node18 -->
<g id="edge47_Node000024_Node000018" class="edge">
<title>Node24&#45;&gt;Node18</title>
<g id="a_edge47_Node000024_Node000018"><a xlink:title=" ">
<path fill="none" stroke="#63b8ff" d="M346.64,-169.93C301.27,-150.24 198.17,-105.51 145.03,-82.46"/>
<polygon fill="#63b8ff" stroke="#63b8ff" points="146.44,-79.25 135.88,-78.48 143.66,-85.68 146.44,-79.25"/>
</a>
</g>
</g>
<!-- Node32&#45;&gt;Node2 -->
<g id="edge55_Node000032_Node000002" class="edge">
<title>Node32&#45;&gt;Node2</title>
<g id="a_edge55_Node000032_Node000002"><a xlink:title=" ">
<path fill="none" stroke="#63b8ff" d="M177.42,-170.05C179,-146.51 186.59,-85.63 223,-56.75 267.34,-21.58 429.64,-13.53 517.16,-11.78"/>
<polygon fill="#63b8ff" stroke="#63b8ff" points="517.03,-15.28 526.96,-11.61 516.9,-8.28 517.03,-15.28"/>
</a>
</g>
</g>
<!-- Node32&#45;&gt;Node3 -->
<g id="edge56_Node000032_Node000003" class="edge">
<title>Node32&#45;&gt;Node3</title>
<g id="a_edge56_Node000032_Node000003"><a xlink:title=" ">
<path fill="none" stroke="#63b8ff" d="M210.75,-176.95C327.68,-167.67 714.75,-136.96 832.63,-127.6"/>
<polygon fill="#63b8ff" stroke="#63b8ff" points="832.6,-131.12 842.29,-126.84 832.05,-124.14 832.6,-131.12"/>
</a>
</g>
</g>
<!-- Node32&#45;&gt;Node10 -->
<g id="edge57_Node000032_Node000010" class="edge">
<title>Node32&#45;&gt;Node10</title>
<g id="a_edge57_Node000032_Node000010"><a xlink:title=" ">
<path fill="none" stroke="#63b8ff" d="M202.21,-169.84C224.98,-161 258.68,-147.91 283.86,-138.13"/>
<polygon fill="#63b8ff" stroke="#63b8ff" points="284.95,-141.46 293.01,-134.58 282.42,-134.94 284.95,-141.46"/>
</a>
</g>
</g>
<!-- Node32&#45;&gt;Node18 -->
<g id="edge54_Node000032_Node000018" class="edge">
<title>Node32&#45;&gt;Node18</title>
<g id="a_edge54_Node000032_Node000018"><a xlink:title=" ">
<path fill="none" stroke="#63b8ff" d="M171.46,-170.12C160.86,-151.94 137.53,-111.92 123.45,-87.77"/>
<polygon fill="#63b8ff" stroke="#63b8ff" points="126.54,-86.11 118.48,-79.23 120.49,-89.63 126.54,-86.11"/>
</a>
</g>
</g>
<!-- Node20 -->
<g id="Node000020" class="node">
<title>Node20</title>
<g id="a_Node000020"><a xlink:href="../../d2/d6f/fl_2allocator_8h.html" target="_top" xlink:title=" ">
<polygon fill="white" stroke="#666666" points="104,-134.25 28,-134.25 28,-113.5 104,-113.5 104,-134.25"/>
<text text-anchor="middle" x="66" y="-120.75" font-family="Helvetica,sans-Serif" font-size="10.00">fl/allocator.h</text>
</a>
</g>
</g>
<!-- Node32&#45;&gt;Node20 -->
<g id="edge58_Node000032_Node000020" class="edge">
<title>Node32&#45;&gt;Node20</title>
<g id="a_edge58_Node000032_Node000020"><a xlink:title=" ">
<path fill="none" stroke="#63b8ff" d="M157.16,-169.84C140.11,-161.43 115.28,-149.18 95.84,-139.59"/>
<polygon fill="#63b8ff" stroke="#63b8ff" points="97.55,-136.53 87.03,-135.25 94.45,-142.81 97.55,-136.53"/>
</a>
</g>
</g>
<!-- Node20&#45;&gt;Node11 -->
<g id="edge59_Node000020_Node000011" class="edge">
<title>Node20&#45;&gt;Node11</title>
<g id="a_edge59_Node000020_Node000011"><a xlink:title=" ">
<path fill="none" stroke="#63b8ff" d="M64.78,-113.1C63.58,-98.98 63.57,-72.82 77,-56.75 98.64,-30.86 136.18,-19.74 164.84,-14.96"/>
<polygon fill="#63b8ff" stroke="#63b8ff" points="165.23,-18.44 174.63,-13.55 164.23,-11.52 165.23,-18.44"/>
</a>
</g>
</g>
<!-- Node20&#45;&gt;Node18 -->
<g id="edge60_Node000020_Node000018" class="edge">
<title>Node20&#45;&gt;Node18</title>
<g id="a_edge60_Node000020_Node000018"><a xlink:title=" ">
<path fill="none" stroke="#63b8ff" d="M74.22,-113.09C80.44,-105.69 89.15,-95.32 96.64,-86.41"/>
<polygon fill="#63b8ff" stroke="#63b8ff" points="99.12,-88.9 102.87,-78.99 93.76,-84.39 99.12,-88.9"/>
</a>
</g>
</g>
</g>
</svg>
