<?xml version="1.0" encoding="UTF-8" standalone="no"?>
<!DOCTYPE svg PUBLIC "-//W3C//DTD SVG 1.1//EN"
 "http://www.w3.org/Graphics/SVG/1.1/DTD/svg11.dtd">
<!-- Generated by graphviz version 12.2.1 (20241206.2353)
 -->
<!-- Title: /home/runner/work/FastLED/FastLED/src/fx/frame.h Pages: 1 -->
<svg width="854pt" height="212pt"
 viewBox="0.00 0.00 853.99 211.75" xmlns="http://www.w3.org/2000/svg" xmlns:xlink="http://www.w3.org/1999/xlink">
<g id="graph0" class="graph" transform="scale(1 1) rotate(0) translate(4 207.75)">
<title>/home/runner/work/FastLED/FastLED/src/fx/frame.h</title>
<!-- Node1 -->
<g id="Node000001" class="node">
<title>Node1</title>
<g id="a_Node000001"><a xlink:title=" ">
<polygon fill="#999999" stroke="#666666" points="293.12,-203.75 143.62,-203.75 143.62,-170.25 293.12,-170.25 293.12,-203.75"/>
<text text-anchor="start" x="151.62" y="-190.25" font-family="Helvetica,sans-Serif" font-size="10.00">/home/runner/work/FastLED</text>
<text text-anchor="middle" x="218.38" y="-177.5" font-family="Helvetica,sans-Serif" font-size="10.00">/FastLED/src/fx/frame.h</text>
</a>
</g>
</g>
<!-- Node2 -->
<g id="Node000002" class="node">
<title>Node2</title>
<g id="a_Node000002"><a xlink:title=" ">
<polygon fill="#e0e0e0" stroke="#999999" points="52.75,-77.5 0,-77.5 0,-56.75 52.75,-56.75 52.75,-77.5"/>
<text text-anchor="middle" x="26.38" y="-64" font-family="Helvetica,sans-Serif" font-size="10.00">string.h</text>
</a>
</g>
</g>
<!-- Node1&#45;&gt;Node2 -->
<g id="edge1_Node000001_Node000002" class="edge">
<title>Node1&#45;&gt;Node2</title>
<g id="a_edge1_Node000001_Node000002"><a xlink:title=" ">
<path fill="none" stroke="#63b8ff" d="M143.13,-179.78C109.19,-173.27 71.06,-160.22 45.38,-134.25 33.55,-122.3 28.99,-103.5 27.27,-88.99"/>
<polygon fill="#63b8ff" stroke="#63b8ff" points="30.77,-88.84 26.5,-79.14 23.79,-89.38 30.77,-88.84"/>
</a>
</g>
</g>
<!-- Node3 -->
<g id="Node000003" class="node">
<title>Node3</title>
<g id="a_Node000003"><a xlink:href="../../df/d2a/namespace_8h.html" target="_top" xlink:title="Implements the FastLED namespace macros.">
<polygon fill="white" stroke="#666666" points="444.5,-20.75 354.25,-20.75 354.25,0 444.5,0 444.5,-20.75"/>
<text text-anchor="middle" x="399.38" y="-7.25" font-family="Helvetica,sans-Serif" font-size="10.00">fl/namespace.h</text>
</a>
</g>
</g>
<!-- Node1&#45;&gt;Node3 -->
<g id="edge2_Node000001_Node000003" class="edge">
<title>Node1&#45;&gt;Node3</title>
<g id="a_edge2_Node000001_Node000003"><a xlink:title=" ">
<path fill="none" stroke="#63b8ff" d="M227.6,-169.99C243.33,-143.75 277.55,-91.07 317.38,-56.75 331.7,-44.41 349.91,-33.92 365.53,-26.15"/>
<polygon fill="#63b8ff" stroke="#63b8ff" points="366.97,-29.34 374.49,-21.87 363.95,-23.03 366.97,-29.34"/>
</a>
</g>
</g>
<!-- Node4 -->
<g id="Node000004" class="node">
<title>Node4</title>
<g id="a_Node000004"><a xlink:href="../../db/dd1/crgb_8h.html" target="_top" xlink:title="Defines the red, green, and blue (RGB) pixel struct.">
<polygon fill="white" stroke="#666666" points="582.38,-134.25 536.38,-134.25 536.38,-113.5 582.38,-113.5 582.38,-134.25"/>
<text text-anchor="middle" x="559.38" y="-120.75" font-family="Helvetica,sans-Serif" font-size="10.00">crgb.h</text>
</a>
</g>
</g>
<!-- Node1&#45;&gt;Node4 -->
<g id="edge3_Node000001_Node000004" class="edge">
<title>Node1&#45;&gt;Node4</title>
<g id="a_edge3_Node000001_Node000004"><a xlink:title=" ">
<path fill="none" stroke="#63b8ff" d="M293.21,-172.59C365.2,-159.68 470.85,-140.74 524.84,-131.07"/>
<polygon fill="#63b8ff" stroke="#63b8ff" points="525.45,-134.51 534.67,-129.3 524.21,-127.62 525.45,-134.51"/>
</a>
</g>
</g>
<!-- Node11 -->
<g id="Node000011" class="node">
<title>Node11</title>
<g id="a_Node000011"><a xlink:href="../../d7/df1/fl_2ptr_8h.html" target="_top" xlink:title=" ">
<polygon fill="white" stroke="#666666" points="241.75,-134.25 195,-134.25 195,-113.5 241.75,-113.5 241.75,-134.25"/>
<text text-anchor="middle" x="218.38" y="-120.75" font-family="Helvetica,sans-Serif" font-size="10.00">fl/ptr.h</text>
</a>
</g>
</g>
<!-- Node1&#45;&gt;Node11 -->
<g id="edge18_Node000001_Node000011" class="edge">
<title>Node1&#45;&gt;Node11</title>
<g id="a_edge18_Node000001_Node000011"><a xlink:title=" ">
<path fill="none" stroke="#63b8ff" d="M218.38,-169.94C218.38,-162.6 218.38,-153.82 218.38,-145.96"/>
<polygon fill="#63b8ff" stroke="#63b8ff" points="221.88,-146.23 218.38,-136.23 214.88,-146.23 221.88,-146.23"/>
</a>
</g>
</g>
<!-- Node14 -->
<g id="Node000014" class="node">
<title>Node14</title>
<g id="a_Node000014"><a xlink:href="../../d2/d6f/fl_2allocator_8h.html" target="_top" xlink:title=" ">
<polygon fill="white" stroke="#666666" points="130.38,-134.25 54.38,-134.25 54.38,-113.5 130.38,-113.5 130.38,-134.25"/>
<text text-anchor="middle" x="92.38" y="-120.75" font-family="Helvetica,sans-Serif" font-size="10.00">fl/allocator.h</text>
</a>
</g>
</g>
<!-- Node1&#45;&gt;Node14 -->
<g id="edge25_Node000001_Node000014" class="edge">
<title>Node1&#45;&gt;Node14</title>
<g id="a_edge25_Node000001_Node000014"><a xlink:title=" ">
<path fill="none" stroke="#63b8ff" d="M184.94,-169.78C165.68,-160.44 141.66,-148.78 122.91,-139.69"/>
<polygon fill="#63b8ff" stroke="#63b8ff" points="124.44,-136.54 113.92,-135.33 121.39,-142.84 124.44,-136.54"/>
</a>
</g>
</g>
<!-- Node4&#45;&gt;Node3 -->
<g id="edge8_Node000004_Node000003" class="edge">
<title>Node4&#45;&gt;Node3</title>
<g id="a_edge8_Node000004_Node000003"><a xlink:title=" ">
<path fill="none" stroke="#63b8ff" d="M555.37,-113.44C548.91,-99.28 534.92,-72.5 515.38,-56.75 497.16,-42.08 473.64,-31.7 452.54,-24.61"/>
<polygon fill="#63b8ff" stroke="#63b8ff" points="453.8,-21.34 443.21,-21.66 451.68,-28.02 453.8,-21.34"/>
</a>
</g>
</g>
<!-- Node5 -->
<g id="Node000005" class="node">
<title>Node5</title>
<g id="a_Node000005"><a xlink:title=" ">
<polygon fill="#e0e0e0" stroke="#999999" points="654.75,-20.75 602,-20.75 602,0 654.75,0 654.75,-20.75"/>
<text text-anchor="middle" x="628.38" y="-7.25" font-family="Helvetica,sans-Serif" font-size="10.00">stdint.h</text>
</a>
</g>
</g>
<!-- Node4&#45;&gt;Node5 -->
<g id="edge4_Node000004_Node000005" class="edge">
<title>Node4&#45;&gt;Node5</title>
<g id="a_edge4_Node000004_Node000005"><a xlink:title=" ">
<path fill="none" stroke="#63b8ff" d="M582.79,-122.74C643.54,-121.85 803.8,-115.85 836.38,-77.5 884.25,-21.15 738.28,-12.28 666.17,-11.25"/>
<polygon fill="#63b8ff" stroke="#63b8ff" points="666.41,-7.76 656.38,-11.16 666.34,-14.76 666.41,-7.76"/>
</a>
</g>
</g>
<!-- Node6 -->
<g id="Node000006" class="node">
<title>Node6</title>
<g id="a_Node000006"><a xlink:href="../../d8/dd0/chsv_8h.html" target="_top" xlink:title="Defines the hue, saturation, and value (HSV) pixel struct.">
<polygon fill="white" stroke="#666666" points="608.75,-77.5 562,-77.5 562,-56.75 608.75,-56.75 608.75,-77.5"/>
<text text-anchor="middle" x="585.38" y="-64" font-family="Helvetica,sans-Serif" font-size="10.00">chsv.h</text>
</a>
</g>
</g>
<!-- Node4&#45;&gt;Node6 -->
<g id="edge5_Node000004_Node000006" class="edge">
<title>Node4&#45;&gt;Node6</title>
<g id="a_edge5_Node000004_Node000006"><a xlink:title=" ">
<path fill="none" stroke="#63b8ff" d="M564.02,-113.09C567.31,-106.16 571.84,-96.62 575.88,-88.11"/>
<polygon fill="#63b8ff" stroke="#63b8ff" points="578.99,-89.73 580.12,-79.2 572.67,-86.73 578.99,-89.73"/>
</a>
</g>
</g>
<!-- Node7 -->
<g id="Node000007" class="node">
<title>Node7</title>
<g id="a_Node000007"><a xlink:href="../../d2/d6b/src_2color_8h.html" target="_top" xlink:title="Contains definitions for color correction and temperature.">
<polygon fill="white" stroke="#666666" points="374.5,-77.5 326.25,-77.5 326.25,-56.75 374.5,-56.75 374.5,-77.5"/>
<text text-anchor="middle" x="350.38" y="-64" font-family="Helvetica,sans-Serif" font-size="10.00">color.h</text>
</a>
</g>
</g>
<!-- Node4&#45;&gt;Node7 -->
<g id="edge9_Node000004_Node000007" class="edge">
<title>Node4&#45;&gt;Node7</title>
<g id="a_edge9_Node000004_Node000007"><a xlink:title=" ">
<path fill="none" stroke="#63b8ff" d="M535.98,-117.04C504.2,-109.07 445.33,-94.15 385.95,-78.15"/>
<polygon fill="#63b8ff" stroke="#63b8ff" points="386.89,-74.78 376.33,-75.55 385.07,-81.54 386.89,-74.78"/>
</a>
</g>
</g>
<!-- Node8 -->
<g id="Node000008" class="node">
<title>Node8</title>
<g id="a_Node000008"><a xlink:href="../../d9/ddf/lib8tion_2types_8h.html" target="_top" xlink:title="Defines fractional types used for lib8tion functions.">
<polygon fill="white" stroke="#666666" points="718.25,-77.5 626.5,-77.5 626.5,-56.75 718.25,-56.75 718.25,-77.5"/>
<text text-anchor="middle" x="672.38" y="-64" font-family="Helvetica,sans-Serif" font-size="10.00">lib8tion/types.h</text>
</a>
</g>
</g>
<!-- Node4&#45;&gt;Node8 -->
<g id="edge11_Node000004_Node000008" class="edge">
<title>Node4&#45;&gt;Node8</title>
<g id="a_edge11_Node000004_Node000008"><a xlink:title=" ">
<path fill="none" stroke="#63b8ff" d="M579.58,-113.09C596.93,-104.68 622.21,-92.43 642,-82.84"/>
<polygon fill="#63b8ff" stroke="#63b8ff" points="643.51,-86 650.99,-78.49 640.46,-79.7 643.51,-86"/>
</a>
</g>
</g>
<!-- Node9 -->
<g id="Node000009" class="node">
<title>Node9</title>
<g id="a_Node000009"><a xlink:href="../../d8/d2d/fl_2force__inline_8h.html" target="_top" xlink:title=" ">
<polygon fill="white" stroke="#666666" points="826.88,-77.5 735.88,-77.5 735.88,-56.75 826.88,-56.75 826.88,-77.5"/>
<text text-anchor="middle" x="781.38" y="-64" font-family="Helvetica,sans-Serif" font-size="10.00">fl/force_inline.h</text>
</a>
</g>
</g>
<!-- Node4&#45;&gt;Node9 -->
<g id="edge14_Node000004_Node000009" class="edge">
<title>Node4&#45;&gt;Node9</title>
<g id="a_edge14_Node000004_Node000009"><a xlink:title=" ">
<path fill="none" stroke="#63b8ff" d="M582.71,-117.12C617.58,-108.52 684.12,-92.11 730.54,-80.66"/>
<polygon fill="#63b8ff" stroke="#63b8ff" points="731.24,-84.09 740.12,-78.3 729.57,-77.3 731.24,-84.09"/>
</a>
</g>
</g>
<!-- Node10 -->
<g id="Node000010" class="node">
<title>Node10</title>
<g id="a_Node000010"><a xlink:href="../../d8/d0c/template__magic_8h.html" target="_top" xlink:title=" ">
<polygon fill="white" stroke="#666666" points="506.12,-77.5 392.62,-77.5 392.62,-56.75 506.12,-56.75 506.12,-77.5"/>
<text text-anchor="middle" x="449.38" y="-64" font-family="Helvetica,sans-Serif" font-size="10.00">fl/template_magic.h</text>
</a>
</g>
</g>
<!-- Node4&#45;&gt;Node10 -->
<g id="edge15_Node000004_Node000010" class="edge">
<title>Node4&#45;&gt;Node10</title>
<g id="a_edge15_Node000004_Node000010"><a xlink:title=" ">
<path fill="none" stroke="#63b8ff" d="M539.71,-113.09C522.82,-104.68 498.21,-92.43 478.94,-82.84"/>
<polygon fill="#63b8ff" stroke="#63b8ff" points="480.74,-79.83 470.23,-78.5 477.62,-86.09 480.74,-79.83"/>
</a>
</g>
</g>
<!-- Node6&#45;&gt;Node3 -->
<g id="edge7_Node000006_Node000003" class="edge">
<title>Node6&#45;&gt;Node3</title>
<g id="a_edge7_Node000006_Node000003"><a xlink:title=" ">
<path fill="none" stroke="#63b8ff" d="M561.82,-59.19C532.23,-50.48 480.85,-35.36 443.79,-24.45"/>
<polygon fill="#63b8ff" stroke="#63b8ff" points="444.82,-21.1 434.24,-21.64 442.84,-27.82 444.82,-21.1"/>
</a>
</g>
</g>
<!-- Node6&#45;&gt;Node5 -->
<g id="edge6_Node000006_Node000005" class="edge">
<title>Node6&#45;&gt;Node5</title>
<g id="a_edge6_Node000006_Node000005"><a xlink:title=" ">
<path fill="none" stroke="#63b8ff" d="M593.06,-56.34C598.81,-49.02 606.84,-38.79 613.79,-29.94"/>
<polygon fill="#63b8ff" stroke="#63b8ff" points="616.4,-32.3 619.82,-22.27 610.89,-27.97 616.4,-32.3"/>
</a>
</g>
</g>
<!-- Node7&#45;&gt;Node3 -->
<g id="edge10_Node000007_Node000003" class="edge">
<title>Node7&#45;&gt;Node3</title>
<g id="a_edge10_Node000007_Node000003"><a xlink:title=" ">
<path fill="none" stroke="#63b8ff" d="M359.14,-56.34C365.82,-48.86 375.23,-38.36 383.26,-29.38"/>
<polygon fill="#63b8ff" stroke="#63b8ff" points="385.62,-31.99 389.68,-22.21 380.4,-27.32 385.62,-31.99"/>
</a>
</g>
</g>
<!-- Node8&#45;&gt;Node3 -->
<g id="edge13_Node000008_Node000003" class="edge">
<title>Node8&#45;&gt;Node3</title>
<g id="a_edge13_Node000008_Node000003"><a xlink:title=" ">
<path fill="none" stroke="#63b8ff" d="M626.06,-56.84C578.97,-47.39 505.95,-32.75 455.57,-22.64"/>
<polygon fill="#63b8ff" stroke="#63b8ff" points="456.53,-19.27 446.03,-20.73 455.15,-26.13 456.53,-19.27"/>
</a>
</g>
</g>
<!-- Node8&#45;&gt;Node5 -->
<g id="edge12_Node000008_Node000005" class="edge">
<title>Node8&#45;&gt;Node5</title>
<g id="a_edge12_Node000008_Node000005"><a xlink:title=" ">
<path fill="none" stroke="#63b8ff" d="M664.51,-56.34C658.63,-49.02 650.41,-38.79 643.3,-29.94"/>
<polygon fill="#63b8ff" stroke="#63b8ff" points="646.11,-27.86 637.12,-22.26 640.66,-32.25 646.11,-27.86"/>
</a>
</g>
</g>
<!-- Node10&#45;&gt;Node3 -->
<g id="edge17_Node000010_Node000003" class="edge">
<title>Node10&#45;&gt;Node3</title>
<g id="a_edge17_Node000010_Node000003"><a xlink:title=" ">
<path fill="none" stroke="#63b8ff" d="M440.44,-56.34C433.61,-48.86 424.01,-38.36 415.82,-29.38"/>
<polygon fill="#63b8ff" stroke="#63b8ff" points="418.59,-27.22 409.26,-22.2 413.42,-31.94 418.59,-27.22"/>
</a>
</g>
</g>
<!-- Node10&#45;&gt;Node5 -->
<g id="edge16_Node000010_Node000005" class="edge">
<title>Node10&#45;&gt;Node5</title>
<g id="a_edge16_Node000010_Node000005"><a xlink:title=" ">
<path fill="none" stroke="#63b8ff" d="M481.38,-56.34C512.05,-46.95 558.35,-32.79 590.77,-22.88"/>
<polygon fill="#63b8ff" stroke="#63b8ff" points="591.63,-26.28 600.16,-20 589.58,-19.58 591.63,-26.28"/>
</a>
</g>
</g>
<!-- Node11&#45;&gt;Node3 -->
<g id="edge20_Node000011_Node000003" class="edge">
<title>Node11&#45;&gt;Node3</title>
<g id="a_edge20_Node000011_Node000003"><a xlink:title=" ">
<path fill="none" stroke="#63b8ff" d="M225.92,-113.09C237.26,-98.96 259.97,-72.78 284.38,-56.75 305.4,-42.94 331.28,-32.27 353.16,-24.75"/>
<polygon fill="#63b8ff" stroke="#63b8ff" points="354.03,-28.15 362.43,-21.69 351.83,-21.5 354.03,-28.15"/>
</a>
</g>
</g>
<!-- Node11&#45;&gt;Node10 -->
<g id="edge24_Node000011_Node000010" class="edge">
<title>Node11&#45;&gt;Node10</title>
<g id="a_edge24_Node000011_Node000010"><a xlink:title=" ">
<path fill="none" stroke="#63b8ff" d="M242.23,-117.22C278.48,-108.63 348.36,-92.07 396.87,-80.57"/>
<polygon fill="#63b8ff" stroke="#63b8ff" points="397.4,-84.04 406.32,-78.33 395.78,-77.23 397.4,-84.04"/>
</a>
</g>
</g>
<!-- Node12 -->
<g id="Node000012" class="node">
<title>Node12</title>
<g id="a_Node000012"><a xlink:title=" ">
<polygon fill="#e0e0e0" stroke="#999999" points="145.88,-20.75 90.88,-20.75 90.88,0 145.88,0 145.88,-20.75"/>
<text text-anchor="middle" x="118.38" y="-7.25" font-family="Helvetica,sans-Serif" font-size="10.00">stddef.h</text>
</a>
</g>
</g>
<!-- Node11&#45;&gt;Node12 -->
<g id="edge19_Node000011_Node000012" class="edge">
<title>Node11&#45;&gt;Node12</title>
<g id="a_edge19_Node000011_Node000012"><a xlink:title=" ">
<path fill="none" stroke="#63b8ff" d="M194.83,-115.3C176.61,-108.28 152.09,-96.07 137.38,-77.5 127.05,-64.47 122.33,-46.05 120.18,-31.96"/>
<polygon fill="#63b8ff" stroke="#63b8ff" points="123.71,-31.96 119.05,-22.45 116.76,-32.79 123.71,-31.96"/>
</a>
</g>
</g>
<!-- Node13 -->
<g id="Node000013" class="node">
<title>Node13</title>
<g id="a_Node000013"><a xlink:href="../../df/d28/fl_2scoped__ptr_8h.html" target="_top" xlink:title=" ">
<polygon fill="white" stroke="#666666" points="232.62,-77.5 146.12,-77.5 146.12,-56.75 232.62,-56.75 232.62,-77.5"/>
<text text-anchor="middle" x="189.38" y="-64" font-family="Helvetica,sans-Serif" font-size="10.00">fl/scoped_ptr.h</text>
</a>
</g>
</g>
<!-- Node11&#45;&gt;Node13 -->
<g id="edge21_Node000011_Node000013" class="edge">
<title>Node11&#45;&gt;Node13</title>
<g id="a_edge21_Node000011_Node000013"><a xlink:title=" ">
<path fill="none" stroke="#63b8ff" d="M213.19,-113.09C209.48,-106.08 204.36,-96.41 199.81,-87.83"/>
<polygon fill="#63b8ff" stroke="#63b8ff" points="203,-86.36 195.22,-79.17 196.81,-89.64 203,-86.36"/>
</a>
</g>
</g>
<!-- Node13&#45;&gt;Node3 -->
<g id="edge23_Node000013_Node000003" class="edge">
<title>Node13&#45;&gt;Node3</title>
<g id="a_edge23_Node000013_Node000003"><a xlink:title=" ">
<path fill="none" stroke="#63b8ff" d="M226.92,-56.34C261.6,-47.29 313.31,-33.81 351.06,-23.97"/>
<polygon fill="#63b8ff" stroke="#63b8ff" points="351.54,-27.46 360.34,-21.55 349.78,-20.69 351.54,-27.46"/>
</a>
</g>
</g>
<!-- Node13&#45;&gt;Node12 -->
<g id="edge22_Node000013_Node000012" class="edge">
<title>Node13&#45;&gt;Node12</title>
<g id="a_edge22_Node000013_Node000012"><a xlink:title=" ">
<path fill="none" stroke="#63b8ff" d="M176.68,-56.34C166.48,-48.47 151.93,-37.25 139.92,-27.99"/>
<polygon fill="#63b8ff" stroke="#63b8ff" points="142.21,-25.34 132.16,-22 137.94,-30.88 142.21,-25.34"/>
</a>
</g>
</g>
<!-- Node14&#45;&gt;Node2 -->
<g id="edge27_Node000014_Node000002" class="edge">
<title>Node14&#45;&gt;Node2</title>
<g id="a_edge27_Node000014_Node000002"><a xlink:title=" ">
<path fill="none" stroke="#63b8ff" d="M80.58,-113.09C71.19,-105.3 57.84,-94.22 46.73,-85.01"/>
<polygon fill="#63b8ff" stroke="#63b8ff" points="49.17,-82.49 39.24,-78.79 44.7,-87.87 49.17,-82.49"/>
</a>
</g>
</g>
<!-- Node14&#45;&gt;Node12 -->
<g id="edge26_Node000014_Node000012" class="edge">
<title>Node14&#45;&gt;Node12</title>
<g id="a_edge26_Node000014_Node000012"><a xlink:title=" ">
<path fill="none" stroke="#63b8ff" d="M93.73,-113.38C95.66,-100.47 99.51,-76.7 104.38,-56.75 106.38,-48.55 109.02,-39.65 111.46,-31.93"/>
<polygon fill="#63b8ff" stroke="#63b8ff" points="114.78,-33.05 114.56,-22.46 108.13,-30.87 114.78,-33.05"/>
</a>
</g>
</g>
</g>
</svg>
