<?xml version="1.0" encoding="UTF-8" standalone="no"?>
<!DOCTYPE svg PUBLIC "-//W3C//DTD SVG 1.1//EN"
 "http://www.w3.org/Graphics/SVG/1.1/DTD/svg11.dtd">
<!-- Generated by graphviz version 12.2.1 (20241206.2353)
 -->
<!-- Title: inoise8_raw Pages: 1 -->
<svg width="501pt" height="224pt"
 viewBox="0.00 0.00 501.00 223.75" xmlns="http://www.w3.org/2000/svg" xmlns:xlink="http://www.w3.org/1999/xlink">
<g id="graph0" class="graph" transform="scale(1 1) rotate(0) translate(4 219.75)">
<title>inoise8_raw</title>
<!-- Node1 -->
<g id="Node000001" class="node">
<title>Node1</title>
<g id="a_Node000001"><a xlink:title="8&#45;bit, fixed point implementation of Perlin&#39;s noise without scaling.">
<polygon fill="#999999" stroke="#666666" points="493,-117.75 418.5,-117.75 418.5,-97 493,-97 493,-117.75"/>
<text text-anchor="middle" x="455.75" y="-104.25" font-family="Helvetica,sans-Serif" font-size="10.00">inoise8_raw</text>
</a>
</g>
</g>
<!-- Node2 -->
<g id="Node000002" class="node">
<title>Node2</title>
<g id="a_Node000002"><a xlink:href="../../d8/df9/group___noise_generation.html#gab9d952a5258caa93c05ebdde0140cf0e" target="_top" xlink:title="8&#45;Bit, fixed point implementation of Perlin&#39;s noise.">
<polygon fill="white" stroke="#666666" points="382.5,-156.75 331.25,-156.75 331.25,-136 382.5,-136 382.5,-156.75"/>
<text text-anchor="middle" x="356.88" y="-143.25" font-family="Helvetica,sans-Serif" font-size="10.00">inoise8</text>
</a>
</g>
</g>
<!-- Node1&#45;&gt;Node2 -->
<g id="edge1_Node000001_Node000002" class="edge">
<title>Node1&#45;&gt;Node2</title>
<g id="a_edge1_Node000001_Node000002"><a xlink:title=" ">
<path fill="none" stroke="#63b8ff" d="M417.43,-122.4C405.8,-127.08 393.28,-132.12 382.72,-136.37"/>
<polygon fill="#63b8ff" stroke="#63b8ff" points="418.39,-125.79 426.36,-118.8 415.78,-119.29 418.39,-125.79"/>
</a>
</g>
</g>
<!-- Node3 -->
<g id="Node000003" class="node">
<title>Node3</title>
<g id="a_Node000003"><a xlink:href="../../d8/df9/group___noise_generation.html#ga9641aa87f0a5557f73004fb73f81bba5" target="_top" xlink:title="8&#45;Bit, fixed point implementation of Perlin&#39;s noise.">
<polygon fill="white" stroke="#666666" points="382.5,-117.75 331.25,-117.75 331.25,-97 382.5,-97 382.5,-117.75"/>
<text text-anchor="middle" x="356.88" y="-104.25" font-family="Helvetica,sans-Serif" font-size="10.00">inoise8</text>
</a>
</g>
</g>
<!-- Node1&#45;&gt;Node3 -->
<g id="edge2_Node000001_Node000003" class="edge">
<title>Node1&#45;&gt;Node3</title>
<g id="a_edge2_Node000001_Node000003"><a xlink:title=" ">
<path fill="none" stroke="#63b8ff" d="M406.88,-107.38C398.55,-107.38 390.2,-107.38 382.81,-107.38"/>
<polygon fill="#63b8ff" stroke="#63b8ff" points="406.61,-110.88 416.61,-107.38 406.61,-103.88 406.61,-110.88"/>
</a>
</g>
</g>
<!-- Node4 -->
<g id="Node000004" class="node">
<title>Node4</title>
<g id="a_Node000004"><a xlink:href="../../d8/df9/group___noise_generation.html#gaa521ccca6038d7b5e881fe2e8f35d3bc" target="_top" xlink:title="8&#45;Bit, fixed point implementation of Perlin&#39;s noise.">
<polygon fill="white" stroke="#666666" points="382.5,-78.75 331.25,-78.75 331.25,-58 382.5,-58 382.5,-78.75"/>
<text text-anchor="middle" x="356.88" y="-65.25" font-family="Helvetica,sans-Serif" font-size="10.00">inoise8</text>
</a>
</g>
</g>
<!-- Node1&#45;&gt;Node4 -->
<g id="edge3_Node000001_Node000004" class="edge">
<title>Node1&#45;&gt;Node4</title>
<g id="a_edge3_Node000001_Node000004"><a xlink:title=" ">
<path fill="none" stroke="#63b8ff" d="M417.43,-92.35C405.8,-87.67 393.28,-82.63 382.72,-78.38"/>
<polygon fill="#63b8ff" stroke="#63b8ff" points="415.78,-95.46 426.36,-95.95 418.39,-88.96 415.78,-95.46"/>
</a>
</g>
</g>
<!-- Node5 -->
<g id="Node000005" class="node">
<title>Node5</title>
<g id="a_Node000005"><a xlink:href="../../de/da4/group___noise_fill.html#ga3dc6c55a3f8495a7bc6dc0124434c688" target="_top" xlink:title="Fill a 2D 8&#45;bit buffer with noise, using inoise8()">
<polygon fill="white" stroke="#666666" points="275.75,-137.75 175,-137.75 175,-117 275.75,-117 275.75,-137.75"/>
<text text-anchor="middle" x="225.38" y="-124.25" font-family="Helvetica,sans-Serif" font-size="10.00">fill_raw_2dnoise8</text>
</a>
</g>
</g>
<!-- Node4&#45;&gt;Node5 -->
<g id="edge4_Node000004_Node000005" class="edge">
<title>Node4&#45;&gt;Node5</title>
<g id="a_edge4_Node000004_Node000005"><a xlink:title=" ">
<path fill="none" stroke="#63b8ff" d="M332.4,-85.74C321.52,-93.19 308.16,-101.5 295.25,-107.38 287.54,-110.88 279.07,-113.94 270.78,-116.53"/>
<polygon fill="#63b8ff" stroke="#63b8ff" points="334.22,-88.74 340.37,-80.12 330.18,-83.02 334.22,-88.74"/>
</a>
</g>
</g>
<!-- Node10 -->
<g id="Node000010" class="node">
<title>Node10</title>
<g id="a_Node000010"><a xlink:href="../../de/da4/group___noise_fill.html#ga1e4dba9289b03333697e70d4b7f3b006" target="_top" xlink:title="Fill a 1D 8&#45;bit buffer with noise, using inoise8()">
<polygon fill="white" stroke="#666666" points="269.75,-98.75 181,-98.75 181,-78 269.75,-78 269.75,-98.75"/>
<text text-anchor="middle" x="225.38" y="-85.25" font-family="Helvetica,sans-Serif" font-size="10.00">fill_raw_noise8</text>
</a>
</g>
</g>
<!-- Node4&#45;&gt;Node10 -->
<g id="edge9_Node000004_Node000010" class="edge">
<title>Node4&#45;&gt;Node10</title>
<g id="a_edge9_Node000004_Node000010"><a xlink:title=" ">
<path fill="none" stroke="#63b8ff" d="M319.75,-73.95C304.36,-76.33 286.28,-79.12 270.15,-81.61"/>
<polygon fill="#63b8ff" stroke="#63b8ff" points="320.06,-77.45 329.41,-72.46 318.99,-70.53 320.06,-77.45"/>
</a>
</g>
</g>
<!-- Node13 -->
<g id="Node000013" class="node">
<title>Node13</title>
<g id="a_Node000013"><a xlink:href="../../da/dda/_noise_plus_palette_8ino.html#a695b396822bbfb2d9b29c121cf13e8f3" target="_top" xlink:title=" ">
<polygon fill="white" stroke="#666666" points="255.5,-59.75 195.25,-59.75 195.25,-39 255.5,-39 255.5,-59.75"/>
<text text-anchor="middle" x="225.38" y="-46.25" font-family="Helvetica,sans-Serif" font-size="10.00">fillnoise8</text>
</a>
</g>
</g>
<!-- Node4&#45;&gt;Node13 -->
<g id="edge12_Node000004_Node000013" class="edge">
<title>Node4&#45;&gt;Node13</title>
<g id="a_edge12_Node000004_Node000013"><a xlink:title=" ">
<path fill="none" stroke="#63b8ff" d="M319.65,-63.06C299.5,-60.1 274.75,-56.47 255.8,-53.69"/>
<polygon fill="#63b8ff" stroke="#63b8ff" points="319.01,-66.5 329.41,-64.49 320.02,-59.58 319.01,-66.5"/>
</a>
</g>
</g>
<!-- Node14 -->
<g id="Node000014" class="node">
<title>Node14</title>
<g id="a_Node000014"><a xlink:href="../../d9/d41/classfl_1_1_noise_palette.html#a22d1820b5a78e9ccfb4123ef9161f738" target="_top" xlink:title=" ">
<polygon fill="white" stroke="#666666" points="295.25,-20.75 155.5,-20.75 155.5,0 295.25,0 295.25,-20.75"/>
<text text-anchor="middle" x="225.38" y="-7.25" font-family="Helvetica,sans-Serif" font-size="10.00">fl::NoisePalette::fillnoise8</text>
</a>
</g>
</g>
<!-- Node4&#45;&gt;Node14 -->
<g id="edge13_Node000004_Node000014" class="edge">
<title>Node4&#45;&gt;Node14</title>
<g id="a_edge13_Node000004_Node000014"><a xlink:title=" ">
<path fill="none" stroke="#63b8ff" d="M332.34,-51.48C321.45,-44.24 308.1,-36.13 295.25,-30.38 287.41,-26.86 278.79,-23.79 270.39,-21.18"/>
<polygon fill="#63b8ff" stroke="#63b8ff" points="330.09,-54.19 340.32,-56.95 334.05,-48.41 330.09,-54.19"/>
</a>
</g>
</g>
<!-- Node5&#45;&gt;Node5 -->
<g id="edge7_Node000005_Node000005" class="edge">
<title>Node5&#45;&gt;Node5</title>
<g id="a_edge7_Node000005_Node000005"><a xlink:title=" ">
<path fill="none" stroke="#63b8ff" d="M248.51,-149.24C245.45,-153.08 237.74,-155.75 225.38,-155.75 202.77,-155.75 195.71,-146.81 204.19,-138.15"/>
<polygon fill="#63b8ff" stroke="#63b8ff" points="252.01,-148.88 246.83,-139.64 245.11,-150.09 252.01,-148.88"/>
</a>
</g>
</g>
<!-- Node6 -->
<g id="Node000006" class="node">
<title>Node6</title>
<g id="a_Node000006"><a xlink:href="../../de/da4/group___noise_fill.html#ga714a0f305e385a60d81a40d1f98b53fc" target="_top" xlink:title="Fill an LED matrix with random colors, using 16&#45;bit noise.">
<polygon fill="#fff0f0" stroke="red" points="101.5,-215.75 18,-215.75 18,-195 101.5,-195 101.5,-215.75"/>
<text text-anchor="middle" x="59.75" y="-202.25" font-family="Helvetica,sans-Serif" font-size="10.00">fill_2dnoise16</text>
</a>
</g>
</g>
<!-- Node5&#45;&gt;Node6 -->
<g id="edge5_Node000005_Node000006" class="edge">
<title>Node5&#45;&gt;Node6</title>
<g id="a_edge5_Node000005_Node000006"><a xlink:title=" ">
<path fill="none" stroke="#63b8ff" d="M197.33,-144.08C176.54,-156.48 146.84,-173.27 119.5,-185.38 112.01,-188.69 103.79,-191.8 95.93,-194.53"/>
<polygon fill="#63b8ff" stroke="#63b8ff" points="199,-147.16 205.75,-138.99 195.38,-141.16 199,-147.16"/>
</a>
</g>
</g>
<!-- Node8 -->
<g id="Node000008" class="node">
<title>Node8</title>
<g id="a_Node000008"><a xlink:href="../../de/da4/group___noise_fill.html#ga6fcc17e60eac4b9dbb620f7e354177f1" target="_top" xlink:title="Fill an LED matrix with random colors, using 8&#45;bit noise.">
<polygon fill="white" stroke="#666666" points="98.5,-176.75 21,-176.75 21,-156 98.5,-156 98.5,-176.75"/>
<text text-anchor="middle" x="59.75" y="-163.25" font-family="Helvetica,sans-Serif" font-size="10.00">fill_2dnoise8</text>
</a>
</g>
</g>
<!-- Node5&#45;&gt;Node8 -->
<g id="edge6_Node000005_Node000008" class="edge">
<title>Node5&#45;&gt;Node8</title>
<g id="a_edge6_Node000005_Node000008"><a xlink:title=" ">
<path fill="none" stroke="#63b8ff" d="M167.88,-140.84C145.1,-146.27 119.41,-152.39 98.9,-157.28"/>
<polygon fill="#63b8ff" stroke="#63b8ff" points="168.41,-144.31 177.32,-138.59 166.78,-137.5 168.41,-144.31"/>
</a>
</g>
</g>
<!-- Node9 -->
<g id="Node000009" class="node">
<title>Node9</title>
<g id="a_Node000009"><a xlink:href="../../de/da4/group___noise_fill.html#gaaa7d79bb9fdaf2c6b315c61c2c951142" target="_top" xlink:title=" ">
<polygon fill="white" stroke="#666666" points="110.12,-137.75 9.38,-137.75 9.38,-117 110.12,-117 110.12,-137.75"/>
<text text-anchor="middle" x="59.75" y="-124.25" font-family="Helvetica,sans-Serif" font-size="10.00">fill_raw_2dnoise8</text>
</a>
</g>
</g>
<!-- Node5&#45;&gt;Node9 -->
<g id="edge8_Node000005_Node000009" class="edge">
<title>Node5&#45;&gt;Node9</title>
<g id="a_edge8_Node000005_Node000009"><a xlink:title=" ">
<path fill="none" stroke="#63b8ff" d="M163.56,-127.38C146.05,-127.38 127.15,-127.38 110.4,-127.38"/>
<polygon fill="#63b8ff" stroke="#63b8ff" points="163.32,-130.88 173.32,-127.38 163.32,-123.88 163.32,-130.88"/>
</a>
</g>
</g>
<!-- Node11 -->
<g id="Node000011" class="node">
<title>Node11</title>
<g id="a_Node000011"><a xlink:href="../../de/da4/group___noise_fill.html#ga8bf5ab0f87a6bb79204754ef2a62f960" target="_top" xlink:title="Fill an LED array with random colors, using 16&#45;bit noise.">
<polygon fill="white" stroke="#666666" points="95.5,-98.75 24,-98.75 24,-78 95.5,-78 95.5,-98.75"/>
<text text-anchor="middle" x="59.75" y="-85.25" font-family="Helvetica,sans-Serif" font-size="10.00">fill_noise16</text>
</a>
</g>
</g>
<!-- Node10&#45;&gt;Node11 -->
<g id="edge10_Node000010_Node000011" class="edge">
<title>Node10&#45;&gt;Node11</title>
<g id="a_edge10_Node000010_Node000011"><a xlink:title=" ">
<path fill="none" stroke="#63b8ff" d="M169.31,-88.38C145.07,-88.38 117.3,-88.38 95.91,-88.38"/>
<polygon fill="#63b8ff" stroke="#63b8ff" points="169.01,-91.88 179.01,-88.38 169.01,-84.88 169.01,-91.88"/>
</a>
</g>
</g>
<!-- Node12 -->
<g id="Node000012" class="node">
<title>Node12</title>
<g id="a_Node000012"><a xlink:href="../../de/da4/group___noise_fill.html#ga7967fd7b1a7230a0f7428347c70dac3e" target="_top" xlink:title="Fill an LED array with random colors, using 8&#45;bit noise.">
<polygon fill="white" stroke="#666666" points="92.5,-59.75 27,-59.75 27,-39 92.5,-39 92.5,-59.75"/>
<text text-anchor="middle" x="59.75" y="-46.25" font-family="Helvetica,sans-Serif" font-size="10.00">fill_noise8</text>
</a>
</g>
</g>
<!-- Node10&#45;&gt;Node12 -->
<g id="edge11_Node000010_Node000012" class="edge">
<title>Node10&#45;&gt;Node12</title>
<g id="a_edge11_Node000010_Node000012"><a xlink:title=" ">
<path fill="none" stroke="#63b8ff" d="M169.5,-75.3C144.01,-69.22 114.59,-62.21 92.78,-57.01"/>
<polygon fill="#63b8ff" stroke="#63b8ff" points="168.52,-78.66 179.05,-77.57 170.14,-71.85 168.52,-78.66"/>
</a>
</g>
</g>
<!-- Node15 -->
<g id="Node000015" class="node">
<title>Node15</title>
<g id="a_Node000015"><a xlink:href="../../d9/d41/classfl_1_1_noise_palette.html#afc6cd594830dfdd146c45e7ab1d1905d" target="_top" xlink:title=" ">
<polygon fill="#fff0f0" stroke="red" points="119.5,-20.75 0,-20.75 0,0 119.5,0 119.5,-20.75"/>
<text text-anchor="middle" x="59.75" y="-7.25" font-family="Helvetica,sans-Serif" font-size="10.00">fl::NoisePalette::draw</text>
</a>
</g>
</g>
<!-- Node14&#45;&gt;Node15 -->
<g id="edge14_Node000014_Node000015" class="edge">
<title>Node14&#45;&gt;Node15</title>
<g id="a_edge14_Node000014_Node000015"><a xlink:title=" ">
<path fill="none" stroke="#63b8ff" d="M144.05,-10.38C135.94,-10.38 127.82,-10.38 120,-10.38"/>
<polygon fill="#63b8ff" stroke="#63b8ff" points="143.94,-13.88 153.94,-10.38 143.94,-6.88 143.94,-13.88"/>
</a>
</g>
</g>
</g>
</svg>
