<?xml version="1.0" encoding="UTF-8" standalone="no"?>
<!DOCTYPE svg PUBLIC "-//W3C//DTD SVG 1.1//EN"
 "http://www.w3.org/Graphics/SVG/1.1/DTD/svg11.dtd">
<!-- Generated by graphviz version 12.2.1 (20241206.2353)
 -->
<!-- Title: inoise16_raw Pages: 1 -->
<svg width="528pt" height="299pt"
 viewBox="0.00 0.00 528.00 298.75" xmlns="http://www.w3.org/2000/svg" xmlns:xlink="http://www.w3.org/1999/xlink">
<g id="graph0" class="graph" transform="scale(1 1) rotate(0) translate(4 294.75)">
<title>inoise16_raw</title>
<!-- Node1 -->
<g id="Node000001" class="node">
<title>Node1</title>
<g id="a_Node000001"><a xlink:title="16&#45;bit, fixed point implementation of Perlin&#39;s noise without scaling.">
<polygon fill="#999999" stroke="#666666" points="520,-176.75 439.5,-176.75 439.5,-156 520,-156 520,-176.75"/>
<text text-anchor="middle" x="479.75" y="-163.25" font-family="Helvetica,sans-Serif" font-size="10.00">inoise16_raw</text>
</a>
</g>
</g>
<!-- Node2 -->
<g id="Node000002" class="node">
<title>Node2</title>
<g id="a_Node000002"><a xlink:href="../../d8/df9/group___noise_generation.html#ga34b2848203803e1c7a2de01d7dbcea63" target="_top" xlink:title="16&#45;bit, fixed point implementation of Perlin&#39;s noise.">
<polygon fill="white" stroke="#666666" points="403.5,-215.75 346.25,-215.75 346.25,-195 403.5,-195 403.5,-215.75"/>
<text text-anchor="middle" x="374.88" y="-202.25" font-family="Helvetica,sans-Serif" font-size="10.00">inoise16</text>
</a>
</g>
</g>
<!-- Node1&#45;&gt;Node2 -->
<g id="edge1_Node000001_Node000002" class="edge">
<title>Node1&#45;&gt;Node2</title>
<g id="a_edge1_Node000001_Node000002"><a xlink:title=" ">
<path fill="none" stroke="#63b8ff" d="M439.47,-181.26C427.54,-185.79 414.68,-190.66 403.67,-194.84"/>
<polygon fill="#63b8ff" stroke="#63b8ff" points="440.57,-184.59 448.68,-177.78 438.09,-178.05 440.57,-184.59"/>
</a>
</g>
</g>
<!-- Node3 -->
<g id="Node000003" class="node">
<title>Node3</title>
<g id="a_Node000003"><a xlink:href="../../d8/df9/group___noise_generation.html#gad5f2a2fa9858003b0d692d3700423f39" target="_top" xlink:title="16&#45;bit, fixed point implementation of Perlin&#39;s noise.">
<polygon fill="white" stroke="#666666" points="403.5,-176.75 346.25,-176.75 346.25,-156 403.5,-156 403.5,-176.75"/>
<text text-anchor="middle" x="374.88" y="-163.25" font-family="Helvetica,sans-Serif" font-size="10.00">inoise16</text>
</a>
</g>
</g>
<!-- Node1&#45;&gt;Node3 -->
<g id="edge2_Node000001_Node000003" class="edge">
<title>Node1&#45;&gt;Node3</title>
<g id="a_edge2_Node000001_Node000003"><a xlink:title=" ">
<path fill="none" stroke="#63b8ff" d="M427.76,-166.38C419.55,-166.38 411.32,-166.38 403.92,-166.38"/>
<polygon fill="#63b8ff" stroke="#63b8ff" points="427.76,-169.88 437.76,-166.38 427.76,-162.88 427.76,-169.88"/>
</a>
</g>
</g>
<!-- Node4 -->
<g id="Node000004" class="node">
<title>Node4</title>
<g id="a_Node000004"><a xlink:href="../../d8/df9/group___noise_generation.html#ga94be5ce8402e6147209f94d6006e8f00" target="_top" xlink:title="16&#45;bit, fixed point implementation of Perlin&#39;s noise.">
<polygon fill="white" stroke="#666666" points="403.5,-137.75 346.25,-137.75 346.25,-117 403.5,-117 403.5,-137.75"/>
<text text-anchor="middle" x="374.88" y="-124.25" font-family="Helvetica,sans-Serif" font-size="10.00">inoise16</text>
</a>
</g>
</g>
<!-- Node1&#45;&gt;Node4 -->
<g id="edge3_Node000001_Node000004" class="edge">
<title>Node1&#45;&gt;Node4</title>
<g id="a_edge3_Node000001_Node000004"><a xlink:title=" ">
<path fill="none" stroke="#63b8ff" d="M439.47,-151.49C427.54,-146.96 414.68,-142.09 403.67,-137.91"/>
<polygon fill="#63b8ff" stroke="#63b8ff" points="438.09,-154.7 448.68,-154.97 440.57,-148.16 438.09,-154.7"/>
</a>
</g>
</g>
<!-- Node5 -->
<g id="Node000005" class="node">
<title>Node5</title>
<g id="a_Node000005"><a xlink:href="../../d3/dac/_fx_noise_ring_8ino.html#a7a1cdb28d8d83f314435a3a1dc13f17f" target="_top" xlink:title=" ">
<polygon fill="white" stroke="#666666" points="264.5,-290.75 224.5,-290.75 224.5,-270 264.5,-270 264.5,-290.75"/>
<text text-anchor="middle" x="244.5" y="-277.25" font-family="Helvetica,sans-Serif" font-size="10.00">draw</text>
</a>
</g>
</g>
<!-- Node4&#45;&gt;Node5 -->
<g id="edge4_Node000004_Node000005" class="edge">
<title>Node4&#45;&gt;Node5</title>
<g id="a_edge4_Node000004_Node000005"><a xlink:title=" ">
<path fill="none" stroke="#63b8ff" d="M347.22,-146.1C346.89,-146.52 346.56,-146.94 346.25,-147.38 315.35,-190.08 347.69,-223.27 310.25,-260.38 298.22,-272.3 279.23,-277.14 264.93,-279.09"/>
<polygon fill="#63b8ff" stroke="#63b8ff" points="349.59,-148.68 354.36,-139.22 344.73,-143.64 349.59,-148.68"/>
</a>
</g>
</g>
<!-- Node7 -->
<g id="Node000007" class="node">
<title>Node7</title>
<g id="a_Node000007"><a xlink:href="../../de/da4/group___noise_fill.html#ga8fdd92f7a3a96d6f131300cc79c933f6" target="_top" xlink:title="Fill a 2D 16&#45;bit buffer with noise, using inoise16()">
<polygon fill="white" stroke="#666666" points="297.88,-233.75 191.12,-233.75 191.12,-213 297.88,-213 297.88,-233.75"/>
<text text-anchor="middle" x="244.5" y="-220.25" font-family="Helvetica,sans-Serif" font-size="10.00">fill_raw_2dnoise16</text>
</a>
</g>
</g>
<!-- Node4&#45;&gt;Node7 -->
<g id="edge6_Node000004_Node000007" class="edge">
<title>Node4&#45;&gt;Node7</title>
<g id="a_edge6_Node000004_Node000007"><a xlink:title=" ">
<path fill="none" stroke="#63b8ff" d="M348.42,-145.2C347.67,-145.92 346.94,-146.64 346.25,-147.38 325.91,-168.87 333.81,-185.48 310.25,-203.38 305.38,-207.08 299.81,-210.1 294.04,-212.56"/>
<polygon fill="#63b8ff" stroke="#63b8ff" points="350.37,-148.13 355.82,-139.04 345.9,-142.75 350.37,-148.13"/>
</a>
</g>
</g>
<!-- Node8 -->
<g id="Node000008" class="node">
<title>Node8</title>
<g id="a_Node000008"><a xlink:href="../../de/da4/group___noise_fill.html#ga20a2ff725bc56666c206d54deb372586" target="_top" xlink:title="Fill a 2D 8&#45;bit buffer with noise, using inoise16()">
<polygon fill="white" stroke="#666666" points="310.25,-176.75 178.75,-176.75 178.75,-156 310.25,-156 310.25,-176.75"/>
<text text-anchor="middle" x="244.5" y="-163.25" font-family="Helvetica,sans-Serif" font-size="10.00">fill_raw_2dnoise16into8</text>
</a>
</g>
</g>
<!-- Node4&#45;&gt;Node8 -->
<g id="edge8_Node000004_Node000008" class="edge">
<title>Node4&#45;&gt;Node8</title>
<g id="a_edge8_Node000004_Node000008"><a xlink:title=" ">
<path fill="none" stroke="#63b8ff" d="M335.21,-139.12C318.03,-144.34 297.94,-150.45 281.12,-155.55"/>
<polygon fill="#63b8ff" stroke="#63b8ff" points="336.02,-142.53 344.57,-136.28 333.99,-135.84 336.02,-142.53"/>
</a>
</g>
</g>
<!-- Node12 -->
<g id="Node000012" class="node">
<title>Node12</title>
<g id="a_Node000012"><a xlink:href="../../de/da4/group___noise_fill.html#ga9db885e8cd887367fbf17e70f7d6b7fd" target="_top" xlink:title="Fill a 1D 8&#45;bit buffer with noise, using inoise16()">
<polygon fill="white" stroke="#666666" points="304.25,-137.75 184.75,-137.75 184.75,-117 304.25,-117 304.25,-137.75"/>
<text text-anchor="middle" x="244.5" y="-124.25" font-family="Helvetica,sans-Serif" font-size="10.00">fill_raw_noise16into8</text>
</a>
</g>
</g>
<!-- Node4&#45;&gt;Node12 -->
<g id="edge12_Node000004_Node000012" class="edge">
<title>Node4&#45;&gt;Node12</title>
<g id="a_edge12_Node000004_Node000012"><a xlink:title=" ">
<path fill="none" stroke="#63b8ff" d="M334.57,-127.38C325.12,-127.38 314.81,-127.38 304.66,-127.38"/>
<polygon fill="#63b8ff" stroke="#63b8ff" points="334.51,-130.88 344.51,-127.38 334.51,-123.88 334.51,-130.88"/>
</a>
</g>
</g>
<!-- Node14 -->
<g id="Node000014" class="node">
<title>Node14</title>
<g id="a_Node000014"><a xlink:href="../../d8/d2c/_fire2023_8ino.html#abe327b12b434120ecf20ae3f46800983" target="_top" xlink:title=" ">
<polygon fill="white" stroke="#666666" points="273.5,-98.75 215.5,-98.75 215.5,-78 273.5,-78 273.5,-98.75"/>
<text text-anchor="middle" x="244.5" y="-85.25" font-family="Helvetica,sans-Serif" font-size="10.00">Fire2023</text>
</a>
</g>
</g>
<!-- Node4&#45;&gt;Node14 -->
<g id="edge14_Node000004_Node000014" class="edge">
<title>Node4&#45;&gt;Node14</title>
<g id="a_edge14_Node000004_Node000014"><a xlink:title=" ">
<path fill="none" stroke="#63b8ff" d="M335.19,-115.62C315.42,-109.62 291.79,-102.44 273.74,-96.96"/>
<polygon fill="#63b8ff" stroke="#63b8ff" points="333.99,-118.91 344.57,-118.47 336.02,-112.22 333.99,-118.91"/>
</a>
</g>
</g>
<!-- Node16 -->
<g id="Node000016" class="node">
<title>Node16</title>
<g id="a_Node000016"><a xlink:href="../../db/d0d/_r_g_b_w_8ino.html#afe461d27b9c48d5921c00d521181f12f" target="_top" xlink:title=" ">
<polygon fill="white" stroke="#666666" points="263,-59.75 226,-59.75 226,-39 263,-39 263,-59.75"/>
<text text-anchor="middle" x="244.5" y="-46.25" font-family="Helvetica,sans-Serif" font-size="10.00">loop</text>
</a>
</g>
</g>
<!-- Node4&#45;&gt;Node16 -->
<g id="edge16_Node000004_Node000016" class="edge">
<title>Node4&#45;&gt;Node16</title>
<g id="a_edge16_Node000004_Node000016"><a xlink:title=" ">
<path fill="none" stroke="#63b8ff" d="M357.3,-108.4C345.35,-95.76 328.21,-79.64 310.25,-69.38 295.54,-60.97 276.89,-55.69 263.39,-52.68"/>
<polygon fill="#63b8ff" stroke="#63b8ff" points="354.68,-110.72 364.01,-115.74 359.85,-106 354.68,-110.72"/>
</a>
</g>
</g>
<!-- Node17 -->
<g id="Node000017" class="node">
<title>Node17</title>
<g id="a_Node000017"><a xlink:href="../../da/d7a/struct_noise_generator.html#addecf502634007f361b656342ffd1621" target="_top" xlink:title=" ">
<polygon fill="white" stroke="#666666" points="307.25,-20.75 181.75,-20.75 181.75,0 307.25,0 307.25,-20.75"/>
<text text-anchor="middle" x="244.5" y="-7.25" font-family="Helvetica,sans-Serif" font-size="10.00">NoiseGenerator::Value</text>
</a>
</g>
</g>
<!-- Node4&#45;&gt;Node17 -->
<g id="edge17_Node000004_Node000017" class="edge">
<title>Node4&#45;&gt;Node17</title>
<g id="a_edge17_Node000004_Node000017"><a xlink:title=" ">
<path fill="none" stroke="#63b8ff" d="M365.26,-106.29C355.22,-84.25 336.56,-50.17 310.25,-30.38 305.36,-26.7 299.79,-23.69 294.01,-21.23"/>
<polygon fill="#63b8ff" stroke="#63b8ff" points="361.94,-107.41 369.13,-115.19 368.36,-104.62 361.94,-107.41"/>
</a>
</g>
</g>
<!-- Node6 -->
<g id="Node000006" class="node">
<title>Node6</title>
<g id="a_Node000006"><a xlink:href="../../d3/dac/_fx_noise_ring_8ino.html#afe461d27b9c48d5921c00d521181f12f" target="_top" xlink:title=" ">
<polygon fill="white" stroke="#666666" points="89.88,-290.75 52.88,-290.75 52.88,-270 89.88,-270 89.88,-290.75"/>
<text text-anchor="middle" x="71.38" y="-277.25" font-family="Helvetica,sans-Serif" font-size="10.00">loop</text>
</a>
</g>
</g>
<!-- Node5&#45;&gt;Node6 -->
<g id="edge5_Node000005_Node000006" class="edge">
<title>Node5&#45;&gt;Node6</title>
<g id="a_edge5_Node000005_Node000006"><a xlink:title=" ">
<path fill="none" stroke="#63b8ff" d="M213.03,-280.38C177.35,-280.38 119.44,-280.38 90.31,-280.38"/>
<polygon fill="#63b8ff" stroke="#63b8ff" points="212.69,-283.88 222.69,-280.38 212.69,-276.88 212.69,-283.88"/>
</a>
</g>
</g>
<!-- Node7&#45;&gt;Node7 -->
<g id="edge7_Node000007_Node000007" class="edge">
<title>Node7&#45;&gt;Node7</title>
<g id="a_edge7_Node000007_Node000007"><a xlink:title=" ">
<path fill="none" stroke="#63b8ff" d="M267.44,-245.24C264.4,-249.08 256.75,-251.75 244.5,-251.75 222.09,-251.75 215.09,-242.81 223.49,-234.15"/>
<polygon fill="#63b8ff" stroke="#63b8ff" points="270.93,-244.89 265.77,-235.64 264.04,-246.09 270.93,-244.89"/>
</a>
</g>
</g>
<!-- Node8&#45;&gt;Node8 -->
<g id="edge10_Node000008_Node000008" class="edge">
<title>Node8&#45;&gt;Node8</title>
<g id="a_edge10_Node000008_Node000008"><a xlink:title=" ">
<path fill="none" stroke="#63b8ff" d="M267.44,-188.24C264.4,-192.08 256.75,-194.75 244.5,-194.75 222.09,-194.75 215.09,-185.81 223.49,-177.15"/>
<polygon fill="#63b8ff" stroke="#63b8ff" points="270.93,-187.89 265.77,-178.64 264.04,-189.09 270.93,-187.89"/>
</a>
</g>
</g>
<!-- Node9 -->
<g id="Node000009" class="node">
<title>Node9</title>
<g id="a_Node000009"><a xlink:href="../../de/da4/group___noise_fill.html#ga714a0f305e385a60d81a40d1f98b53fc" target="_top" xlink:title="Fill an LED matrix with random colors, using 16&#45;bit noise.">
<polygon fill="#fff0f0" stroke="red" points="113.12,-215.75 29.62,-215.75 29.62,-195 113.12,-195 113.12,-215.75"/>
<text text-anchor="middle" x="71.38" y="-202.25" font-family="Helvetica,sans-Serif" font-size="10.00">fill_2dnoise16</text>
</a>
</g>
</g>
<!-- Node8&#45;&gt;Node9 -->
<g id="edge9_Node000008_Node000009" class="edge">
<title>Node8&#45;&gt;Node9</title>
<g id="a_edge9_Node000008_Node000009"><a xlink:title=" ">
<path fill="none" stroke="#63b8ff" d="M184.91,-179.73C161.38,-185.09 134.81,-191.15 113.4,-196.03"/>
<polygon fill="#63b8ff" stroke="#63b8ff" points="185.38,-183.21 194.36,-177.58 183.83,-176.38 185.38,-183.21"/>
</a>
</g>
</g>
<!-- Node11 -->
<g id="Node000011" class="node">
<title>Node11</title>
<g id="a_Node000011"><a xlink:href="../../d6/de8/noise_8cpp.html#a46bde35765a7eddbd1049fe49429e94e" target="_top" xlink:title=" ">
<polygon fill="white" stroke="#666666" points="137.12,-176.75 5.62,-176.75 5.62,-156 137.12,-156 137.12,-176.75"/>
<text text-anchor="middle" x="71.38" y="-163.25" font-family="Helvetica,sans-Serif" font-size="10.00">fill_raw_2dnoise16into8</text>
</a>
</g>
</g>
<!-- Node8&#45;&gt;Node11 -->
<g id="edge11_Node000008_Node000011" class="edge">
<title>Node8&#45;&gt;Node11</title>
<g id="a_edge11_Node000008_Node000011"><a xlink:title=" ">
<path fill="none" stroke="#63b8ff" d="M166.86,-166.38C157.02,-166.38 147.01,-166.38 137.38,-166.38"/>
<polygon fill="#63b8ff" stroke="#63b8ff" points="166.8,-169.88 176.8,-166.38 166.8,-162.88 166.8,-169.88"/>
</a>
</g>
</g>
<!-- Node13 -->
<g id="Node000013" class="node">
<title>Node13</title>
<g id="a_Node000013"><a xlink:href="../../de/da4/group___noise_fill.html#ga8bf5ab0f87a6bb79204754ef2a62f960" target="_top" xlink:title="Fill an LED array with random colors, using 16&#45;bit noise.">
<polygon fill="white" stroke="#666666" points="107.12,-137.75 35.62,-137.75 35.62,-117 107.12,-117 107.12,-137.75"/>
<text text-anchor="middle" x="71.38" y="-124.25" font-family="Helvetica,sans-Serif" font-size="10.00">fill_noise16</text>
</a>
</g>
</g>
<!-- Node12&#45;&gt;Node13 -->
<g id="edge13_Node000012_Node000013" class="edge">
<title>Node12&#45;&gt;Node13</title>
<g id="a_edge13_Node000012_Node000013"><a xlink:title=" ">
<path fill="none" stroke="#63b8ff" d="M173.27,-127.38C150.57,-127.38 126.39,-127.38 107.4,-127.38"/>
<polygon fill="#63b8ff" stroke="#63b8ff" points="173.09,-130.88 183.09,-127.38 173.09,-123.88 173.09,-130.88"/>
</a>
</g>
</g>
<!-- Node15 -->
<g id="Node000015" class="node">
<title>Node15</title>
<g id="a_Node000015"><a xlink:href="../../d8/d2c/_fire2023_8ino.html#afe461d27b9c48d5921c00d521181f12f" target="_top" xlink:title=" ">
<polygon fill="white" stroke="#666666" points="89.88,-98.75 52.88,-98.75 52.88,-78 89.88,-78 89.88,-98.75"/>
<text text-anchor="middle" x="71.38" y="-85.25" font-family="Helvetica,sans-Serif" font-size="10.00">loop</text>
</a>
</g>
</g>
<!-- Node14&#45;&gt;Node15 -->
<g id="edge15_Node000014_Node000015" class="edge">
<title>Node14&#45;&gt;Node15</title>
<g id="a_edge15_Node000014_Node000015"><a xlink:title=" ">
<path fill="none" stroke="#63b8ff" d="M204.19,-88.38C168.33,-88.38 116.97,-88.38 90.18,-88.38"/>
<polygon fill="#63b8ff" stroke="#63b8ff" points="203.73,-91.88 213.73,-88.38 203.73,-84.88 203.73,-91.88"/>
</a>
</g>
</g>
<!-- Node18 -->
<g id="Node000018" class="node">
<title>Node18</title>
<g id="a_Node000018"><a xlink:href="../../da/d7a/struct_noise_generator.html#a62be308aab8c1d496976934e35bf648b" target="_top" xlink:title=" ">
<polygon fill="#fff0f0" stroke="red" points="142.75,-20.75 0,-20.75 0,0 142.75,0 142.75,-20.75"/>
<text text-anchor="middle" x="71.38" y="-7.25" font-family="Helvetica,sans-Serif" font-size="10.00">NoiseGenerator::LedValue</text>
</a>
</g>
</g>
<!-- Node17&#45;&gt;Node18 -->
<g id="edge18_Node000017_Node000018" class="edge">
<title>Node17&#45;&gt;Node18</title>
<g id="a_edge18_Node000017_Node000018"><a xlink:title=" ">
<path fill="none" stroke="#63b8ff" d="M170.39,-10.38C161.33,-10.38 152.09,-10.38 143.07,-10.38"/>
<polygon fill="#63b8ff" stroke="#63b8ff" points="170.21,-13.88 180.21,-10.38 170.21,-6.88 170.21,-13.88"/>
</a>
</g>
</g>
</g>
</svg>
