<?xml version="1.0" encoding="UTF-8" standalone="no"?>
<!DOCTYPE svg PUBLIC "-//W3C//DTD SVG 1.1//EN"
 "http://www.w3.org/Graphics/SVG/1.1/DTD/svg11.dtd">
<!-- Generated by graphviz version 12.2.1 (20241206.2353)
 -->
<!-- Title: inoise16 Pages: 1 -->
<svg width="560pt" height="299pt"
 viewBox="0.00 0.00 560.25 298.75" xmlns="http://www.w3.org/2000/svg" xmlns:xlink="http://www.w3.org/1999/xlink">
<g id="graph0" class="graph" transform="scale(1 1) rotate(0) translate(4 294.75)">
<title>inoise16</title>
<!-- Node1 -->
<g id="Node000001" class="node">
<title>Node1</title>
<g id="a_Node000001"><a xlink:title="16&#45;bit, fixed point implementation of Perlin&#39;s noise.">
<polygon fill="#999999" stroke="#666666" points="552.25,-137.75 495,-137.75 495,-117 552.25,-117 552.25,-137.75"/>
<text text-anchor="middle" x="523.62" y="-124.25" font-family="Helvetica,sans-Serif" font-size="10.00">inoise16</text>
</a>
</g>
</g>
<!-- Node2 -->
<g id="Node000002" class="node">
<title>Node2</title>
<g id="a_Node000002"><a xlink:href="../../d3/dac/_fx_noise_ring_8ino.html#a7a1cdb28d8d83f314435a3a1dc13f17f" target="_top" xlink:title=" ">
<polygon fill="white" stroke="#666666" points="413.25,-290.75 373.25,-290.75 373.25,-270 413.25,-270 413.25,-290.75"/>
<text text-anchor="middle" x="393.25" y="-277.25" font-family="Helvetica,sans-Serif" font-size="10.00">draw</text>
</a>
</g>
</g>
<!-- Node1&#45;&gt;Node2 -->
<g id="edge1_Node000001_Node000002" class="edge">
<title>Node1&#45;&gt;Node2</title>
<g id="a_edge1_Node000001_Node000002"><a xlink:title=" ">
<path fill="none" stroke="#63b8ff" d="M517.95,-149.22C510.53,-178.67 493.25,-230.81 459,-260.38 446.26,-271.37 427.55,-276.32 413.52,-278.55"/>
<polygon fill="#63b8ff" stroke="#63b8ff" points="521.34,-150.13 520.21,-139.6 514.52,-148.54 521.34,-150.13"/>
</a>
</g>
</g>
<!-- Node4 -->
<g id="Node000004" class="node">
<title>Node4</title>
<g id="a_Node000004"><a xlink:href="../../de/da4/group___noise_fill.html#ga8fdd92f7a3a96d6f131300cc79c933f6" target="_top" xlink:title="Fill a 2D 16&#45;bit buffer with noise, using inoise16()">
<polygon fill="white" stroke="#666666" points="446.62,-233.75 339.88,-233.75 339.88,-213 446.62,-213 446.62,-233.75"/>
<text text-anchor="middle" x="393.25" y="-220.25" font-family="Helvetica,sans-Serif" font-size="10.00">fill_raw_2dnoise16</text>
</a>
</g>
</g>
<!-- Node1&#45;&gt;Node4 -->
<g id="edge3_Node000001_Node000004" class="edge">
<title>Node1&#45;&gt;Node4</title>
<g id="a_edge3_Node000001_Node000004"><a xlink:title=" ">
<path fill="none" stroke="#63b8ff" d="M510.34,-147.8C499.02,-164.96 480.72,-188.94 459,-203.38 453.51,-207.02 447.33,-210.03 441.01,-212.51"/>
<polygon fill="#63b8ff" stroke="#63b8ff" points="513.25,-149.74 515.64,-139.42 507.34,-145.99 513.25,-149.74"/>
</a>
</g>
</g>
<!-- Node5 -->
<g id="Node000005" class="node">
<title>Node5</title>
<g id="a_Node000005"><a xlink:href="../../de/da4/group___noise_fill.html#ga20a2ff725bc56666c206d54deb372586" target="_top" xlink:title="Fill a 2D 8&#45;bit buffer with noise, using inoise16()">
<polygon fill="white" stroke="#666666" points="459,-176.75 327.5,-176.75 327.5,-156 459,-156 459,-176.75"/>
<text text-anchor="middle" x="393.25" y="-163.25" font-family="Helvetica,sans-Serif" font-size="10.00">fill_raw_2dnoise16into8</text>
</a>
</g>
</g>
<!-- Node1&#45;&gt;Node5 -->
<g id="edge5_Node000001_Node000005" class="edge">
<title>Node1&#45;&gt;Node5</title>
<g id="a_edge5_Node000001_Node000005"><a xlink:title=" ">
<path fill="none" stroke="#63b8ff" d="M483.96,-139.12C466.78,-144.34 446.69,-150.45 429.87,-155.55"/>
<polygon fill="#63b8ff" stroke="#63b8ff" points="484.77,-142.53 493.32,-136.28 482.74,-135.84 484.77,-142.53"/>
</a>
</g>
</g>
<!-- Node9 -->
<g id="Node000009" class="node">
<title>Node9</title>
<g id="a_Node000009"><a xlink:href="../../de/da4/group___noise_fill.html#ga9db885e8cd887367fbf17e70f7d6b7fd" target="_top" xlink:title="Fill a 1D 8&#45;bit buffer with noise, using inoise16()">
<polygon fill="white" stroke="#666666" points="453,-137.75 333.5,-137.75 333.5,-117 453,-117 453,-137.75"/>
<text text-anchor="middle" x="393.25" y="-124.25" font-family="Helvetica,sans-Serif" font-size="10.00">fill_raw_noise16into8</text>
</a>
</g>
</g>
<!-- Node1&#45;&gt;Node9 -->
<g id="edge10_Node000001_Node000009" class="edge">
<title>Node1&#45;&gt;Node9</title>
<g id="a_edge10_Node000001_Node000009"><a xlink:title=" ">
<path fill="none" stroke="#63b8ff" d="M483.32,-127.38C473.87,-127.38 463.56,-127.38 453.41,-127.38"/>
<polygon fill="#63b8ff" stroke="#63b8ff" points="483.26,-130.88 493.26,-127.38 483.26,-123.88 483.26,-130.88"/>
</a>
</g>
</g>
<!-- Node11 -->
<g id="Node000011" class="node">
<title>Node11</title>
<g id="a_Node000011"><a xlink:href="../../d8/d2c/_fire2023_8ino.html#abe327b12b434120ecf20ae3f46800983" target="_top" xlink:title=" ">
<polygon fill="white" stroke="#666666" points="422.25,-98.75 364.25,-98.75 364.25,-78 422.25,-78 422.25,-98.75"/>
<text text-anchor="middle" x="393.25" y="-85.25" font-family="Helvetica,sans-Serif" font-size="10.00">Fire2023</text>
</a>
</g>
</g>
<!-- Node1&#45;&gt;Node11 -->
<g id="edge12_Node000001_Node000011" class="edge">
<title>Node1&#45;&gt;Node11</title>
<g id="a_edge12_Node000001_Node000011"><a xlink:title=" ">
<path fill="none" stroke="#63b8ff" d="M483.94,-115.62C464.17,-109.62 440.54,-102.44 422.49,-96.96"/>
<polygon fill="#63b8ff" stroke="#63b8ff" points="482.74,-118.91 493.32,-118.47 484.77,-112.22 482.74,-118.91"/>
</a>
</g>
</g>
<!-- Node13 -->
<g id="Node000013" class="node">
<title>Node13</title>
<g id="a_Node000013"><a xlink:href="../../db/d0d/_r_g_b_w_8ino.html#afe461d27b9c48d5921c00d521181f12f" target="_top" xlink:title=" ">
<polygon fill="white" stroke="#666666" points="411.75,-59.75 374.75,-59.75 374.75,-39 411.75,-39 411.75,-59.75"/>
<text text-anchor="middle" x="393.25" y="-46.25" font-family="Helvetica,sans-Serif" font-size="10.00">loop</text>
</a>
</g>
</g>
<!-- Node1&#45;&gt;Node13 -->
<g id="edge14_Node000001_Node000013" class="edge">
<title>Node1&#45;&gt;Node13</title>
<g id="a_edge14_Node000001_Node000013"><a xlink:title=" ">
<path fill="none" stroke="#63b8ff" d="M506.05,-108.4C494.1,-95.76 476.96,-79.64 459,-69.38 444.29,-60.97 425.64,-55.69 412.14,-52.68"/>
<polygon fill="#63b8ff" stroke="#63b8ff" points="503.43,-110.72 512.76,-115.74 508.6,-106 503.43,-110.72"/>
</a>
</g>
</g>
<!-- Node14 -->
<g id="Node000014" class="node">
<title>Node14</title>
<g id="a_Node000014"><a xlink:href="../../da/d7a/struct_noise_generator.html#addecf502634007f361b656342ffd1621" target="_top" xlink:title=" ">
<polygon fill="white" stroke="#666666" points="456,-20.75 330.5,-20.75 330.5,0 456,0 456,-20.75"/>
<text text-anchor="middle" x="393.25" y="-7.25" font-family="Helvetica,sans-Serif" font-size="10.00">NoiseGenerator::Value</text>
</a>
</g>
</g>
<!-- Node1&#45;&gt;Node14 -->
<g id="edge15_Node000001_Node000014" class="edge">
<title>Node1&#45;&gt;Node14</title>
<g id="a_edge15_Node000001_Node000014"><a xlink:title=" ">
<path fill="none" stroke="#63b8ff" d="M514.01,-106.29C503.97,-84.25 485.31,-50.17 459,-30.38 454.11,-26.7 448.54,-23.69 442.76,-21.23"/>
<polygon fill="#63b8ff" stroke="#63b8ff" points="510.69,-107.41 517.88,-115.19 517.11,-104.62 510.69,-107.41"/>
</a>
</g>
</g>
<!-- Node3 -->
<g id="Node000003" class="node">
<title>Node3</title>
<g id="a_Node000003"><a xlink:href="../../d3/dac/_fx_noise_ring_8ino.html#afe461d27b9c48d5921c00d521181f12f" target="_top" xlink:title=" ">
<polygon fill="white" stroke="#666666" points="238.62,-290.75 201.62,-290.75 201.62,-270 238.62,-270 238.62,-290.75"/>
<text text-anchor="middle" x="220.12" y="-277.25" font-family="Helvetica,sans-Serif" font-size="10.00">loop</text>
</a>
</g>
</g>
<!-- Node2&#45;&gt;Node3 -->
<g id="edge2_Node000002_Node000003" class="edge">
<title>Node2&#45;&gt;Node3</title>
<g id="a_edge2_Node000002_Node000003"><a xlink:title=" ">
<path fill="none" stroke="#63b8ff" d="M361.78,-280.38C326.1,-280.38 268.19,-280.38 239.06,-280.38"/>
<polygon fill="#63b8ff" stroke="#63b8ff" points="361.44,-283.88 371.44,-280.38 361.44,-276.88 361.44,-283.88"/>
</a>
</g>
</g>
<!-- Node4&#45;&gt;Node4 -->
<g id="edge4_Node000004_Node000004" class="edge">
<title>Node4&#45;&gt;Node4</title>
<g id="a_edge4_Node000004_Node000004"><a xlink:title=" ">
<path fill="none" stroke="#63b8ff" d="M416.19,-245.24C413.15,-249.08 405.5,-251.75 393.25,-251.75 370.84,-251.75 363.84,-242.81 372.24,-234.15"/>
<polygon fill="#63b8ff" stroke="#63b8ff" points="419.68,-244.89 414.52,-235.64 412.79,-246.09 419.68,-244.89"/>
</a>
</g>
</g>
<!-- Node5&#45;&gt;Node5 -->
<g id="edge8_Node000005_Node000005" class="edge">
<title>Node5&#45;&gt;Node5</title>
<g id="a_edge8_Node000005_Node000005"><a xlink:title=" ">
<path fill="none" stroke="#63b8ff" d="M416.19,-188.24C413.15,-192.08 405.5,-194.75 393.25,-194.75 370.84,-194.75 363.84,-185.81 372.24,-177.15"/>
<polygon fill="#63b8ff" stroke="#63b8ff" points="419.68,-187.89 414.52,-178.64 412.79,-189.09 419.68,-187.89"/>
</a>
</g>
</g>
<!-- Node6 -->
<g id="Node000006" class="node">
<title>Node6</title>
<g id="a_Node000006"><a xlink:href="../../de/da4/group___noise_fill.html#ga714a0f305e385a60d81a40d1f98b53fc" target="_top" xlink:title="Fill an LED matrix with random colors, using 16&#45;bit noise.">
<polygon fill="white" stroke="#666666" points="261.88,-215.75 178.38,-215.75 178.38,-195 261.88,-195 261.88,-215.75"/>
<text text-anchor="middle" x="220.12" y="-202.25" font-family="Helvetica,sans-Serif" font-size="10.00">fill_2dnoise16</text>
</a>
</g>
</g>
<!-- Node5&#45;&gt;Node6 -->
<g id="edge6_Node000005_Node000006" class="edge">
<title>Node5&#45;&gt;Node6</title>
<g id="a_edge6_Node000005_Node000006"><a xlink:title=" ">
<path fill="none" stroke="#63b8ff" d="M333.66,-179.73C310.13,-185.09 283.56,-191.15 262.15,-196.03"/>
<polygon fill="#63b8ff" stroke="#63b8ff" points="334.13,-183.21 343.11,-177.58 332.58,-176.38 334.13,-183.21"/>
</a>
</g>
</g>
<!-- Node8 -->
<g id="Node000008" class="node">
<title>Node8</title>
<g id="a_Node000008"><a xlink:href="../../d6/de8/noise_8cpp.html#a46bde35765a7eddbd1049fe49429e94e" target="_top" xlink:title=" ">
<polygon fill="white" stroke="#666666" points="285.88,-176.75 154.38,-176.75 154.38,-156 285.88,-156 285.88,-176.75"/>
<text text-anchor="middle" x="220.12" y="-163.25" font-family="Helvetica,sans-Serif" font-size="10.00">fill_raw_2dnoise16into8</text>
</a>
</g>
</g>
<!-- Node5&#45;&gt;Node8 -->
<g id="edge9_Node000005_Node000008" class="edge">
<title>Node5&#45;&gt;Node8</title>
<g id="a_edge9_Node000005_Node000008"><a xlink:title=" ">
<path fill="none" stroke="#63b8ff" d="M315.61,-166.38C305.77,-166.38 295.76,-166.38 286.13,-166.38"/>
<polygon fill="#63b8ff" stroke="#63b8ff" points="315.55,-169.88 325.55,-166.38 315.55,-162.88 315.55,-169.88"/>
</a>
</g>
</g>
<!-- Node7 -->
<g id="Node000007" class="node">
<title>Node7</title>
<g id="a_Node000007"><a xlink:href="../../d7/ddc/_noise_playground_8ino.html#afe461d27b9c48d5921c00d521181f12f" target="_top" xlink:title=" ">
<polygon fill="white" stroke="#666666" points="74.88,-215.75 37.88,-215.75 37.88,-195 74.88,-195 74.88,-215.75"/>
<text text-anchor="middle" x="56.38" y="-202.25" font-family="Helvetica,sans-Serif" font-size="10.00">loop</text>
</a>
</g>
</g>
<!-- Node6&#45;&gt;Node7 -->
<g id="edge7_Node000006_Node000007" class="edge">
<title>Node6&#45;&gt;Node7</title>
<g id="a_edge7_Node000006_Node000007"><a xlink:title=" ">
<path fill="none" stroke="#63b8ff" d="M166.64,-205.38C135.17,-205.38 97.14,-205.38 75.26,-205.38"/>
<polygon fill="#63b8ff" stroke="#63b8ff" points="166.38,-208.88 176.38,-205.38 166.38,-201.88 166.38,-208.88"/>
</a>
</g>
</g>
<!-- Node10 -->
<g id="Node000010" class="node">
<title>Node10</title>
<g id="a_Node000010"><a xlink:href="../../de/da4/group___noise_fill.html#ga8bf5ab0f87a6bb79204754ef2a62f960" target="_top" xlink:title="Fill an LED array with random colors, using 16&#45;bit noise.">
<polygon fill="white" stroke="#666666" points="255.88,-137.75 184.38,-137.75 184.38,-117 255.88,-117 255.88,-137.75"/>
<text text-anchor="middle" x="220.12" y="-124.25" font-family="Helvetica,sans-Serif" font-size="10.00">fill_noise16</text>
</a>
</g>
</g>
<!-- Node9&#45;&gt;Node10 -->
<g id="edge11_Node000009_Node000010" class="edge">
<title>Node9&#45;&gt;Node10</title>
<g id="a_edge11_Node000009_Node000010"><a xlink:title=" ">
<path fill="none" stroke="#63b8ff" d="M322.02,-127.38C299.32,-127.38 275.14,-127.38 256.15,-127.38"/>
<polygon fill="#63b8ff" stroke="#63b8ff" points="321.84,-130.88 331.84,-127.38 321.84,-123.88 321.84,-130.88"/>
</a>
</g>
</g>
<!-- Node12 -->
<g id="Node000012" class="node">
<title>Node12</title>
<g id="a_Node000012"><a xlink:href="../../d8/d2c/_fire2023_8ino.html#afe461d27b9c48d5921c00d521181f12f" target="_top" xlink:title=" ">
<polygon fill="white" stroke="#666666" points="238.62,-98.75 201.62,-98.75 201.62,-78 238.62,-78 238.62,-98.75"/>
<text text-anchor="middle" x="220.12" y="-85.25" font-family="Helvetica,sans-Serif" font-size="10.00">loop</text>
</a>
</g>
</g>
<!-- Node11&#45;&gt;Node12 -->
<g id="edge13_Node000011_Node000012" class="edge">
<title>Node11&#45;&gt;Node12</title>
<g id="a_edge13_Node000011_Node000012"><a xlink:title=" ">
<path fill="none" stroke="#63b8ff" d="M352.94,-88.38C317.08,-88.38 265.72,-88.38 238.93,-88.38"/>
<polygon fill="#63b8ff" stroke="#63b8ff" points="352.48,-91.88 362.48,-88.38 352.48,-84.88 352.48,-91.88"/>
</a>
</g>
</g>
<!-- Node15 -->
<g id="Node000015" class="node">
<title>Node15</title>
<g id="a_Node000015"><a xlink:href="../../da/d7a/struct_noise_generator.html#a62be308aab8c1d496976934e35bf648b" target="_top" xlink:title=" ">
<polygon fill="white" stroke="#666666" points="291.5,-20.75 148.75,-20.75 148.75,0 291.5,0 291.5,-20.75"/>
<text text-anchor="middle" x="220.12" y="-7.25" font-family="Helvetica,sans-Serif" font-size="10.00">NoiseGenerator::LedValue</text>
</a>
</g>
</g>
<!-- Node14&#45;&gt;Node15 -->
<g id="edge16_Node000014_Node000015" class="edge">
<title>Node14&#45;&gt;Node15</title>
<g id="a_edge16_Node000014_Node000015"><a xlink:title=" ">
<path fill="none" stroke="#63b8ff" d="M319.14,-10.38C310.08,-10.38 300.84,-10.38 291.82,-10.38"/>
<polygon fill="#63b8ff" stroke="#63b8ff" points="318.96,-13.88 328.96,-10.38 318.96,-6.88 318.96,-13.88"/>
</a>
</g>
</g>
<!-- Node16 -->
<g id="Node000016" class="node">
<title>Node16</title>
<g id="a_Node000016"><a xlink:href="../../d5/d3c/classfl_1_1_noise_wave.html#abf3bfdd53d5670da6de1511479ef6864" target="_top" xlink:title=" ">
<polygon fill="white" stroke="#666666" points="112.75,-20.75 0,-20.75 0,0 112.75,0 112.75,-20.75"/>
<text text-anchor="middle" x="56.38" y="-7.25" font-family="Helvetica,sans-Serif" font-size="10.00">fl::NoiseWave::draw</text>
</a>
</g>
</g>
<!-- Node15&#45;&gt;Node16 -->
<g id="edge17_Node000015_Node000016" class="edge">
<title>Node15&#45;&gt;Node16</title>
<g id="a_edge17_Node000015_Node000016"><a xlink:title=" ">
<path fill="none" stroke="#63b8ff" d="M137.14,-10.38C128.98,-10.38 120.83,-10.38 113.03,-10.38"/>
<polygon fill="#63b8ff" stroke="#63b8ff" points="137.14,-13.88 147.14,-10.38 137.14,-6.88 137.14,-13.88"/>
</a>
</g>
</g>
</g>
</svg>
