<?xml version="1.0" encoding="UTF-8" standalone="no"?>
<!DOCTYPE svg PUBLIC "-//W3C//DTD SVG 1.1//EN"
 "http://www.w3.org/Graphics/SVG/1.1/DTD/svg11.dtd">
<!-- Generated by graphviz version 12.2.1 (20241206.2353)
 -->
<!-- Title: inoise8 Pages: 1 -->
<svg width="464pt" height="224pt"
 viewBox="0.00 0.00 463.50 223.75" xmlns="http://www.w3.org/2000/svg" xmlns:xlink="http://www.w3.org/1999/xlink">
<g id="graph0" class="graph" transform="scale(1 1) rotate(0) translate(4 219.75)">
<title>inoise8</title>
<!-- Node1 -->
<g id="Node000001" class="node">
<title>Node1</title>
<g id="a_Node000001"><a xlink:title="8&#45;Bit, fixed point implementation of Perlin&#39;s noise.">
<polygon fill="#999999" stroke="#666666" points="455.5,-78.75 404.25,-78.75 404.25,-58 455.5,-58 455.5,-78.75"/>
<text text-anchor="middle" x="429.88" y="-65.25" font-family="Helvetica,sans-Serif" font-size="10.00">inoise8</text>
</a>
</g>
</g>
<!-- Node2 -->
<g id="Node000002" class="node">
<title>Node2</title>
<g id="a_Node000002"><a xlink:href="../../de/da4/group___noise_fill.html#ga3dc6c55a3f8495a7bc6dc0124434c688" target="_top" xlink:title="Fill a 2D 8&#45;bit buffer with noise, using inoise8()">
<polygon fill="white" stroke="#666666" points="348.75,-137.75 248,-137.75 248,-117 348.75,-117 348.75,-137.75"/>
<text text-anchor="middle" x="298.38" y="-124.25" font-family="Helvetica,sans-Serif" font-size="10.00">fill_raw_2dnoise8</text>
</a>
</g>
</g>
<!-- Node1&#45;&gt;Node2 -->
<g id="edge1_Node000001_Node000002" class="edge">
<title>Node1&#45;&gt;Node2</title>
<g id="a_edge1_Node000001_Node000002"><a xlink:title=" ">
<path fill="none" stroke="#63b8ff" d="M405.4,-85.74C394.52,-93.19 381.16,-101.5 368.25,-107.38 360.54,-110.88 352.07,-113.94 343.78,-116.53"/>
<polygon fill="#63b8ff" stroke="#63b8ff" points="407.22,-88.74 413.37,-80.12 403.18,-83.02 407.22,-88.74"/>
</a>
</g>
</g>
<!-- Node7 -->
<g id="Node000007" class="node">
<title>Node7</title>
<g id="a_Node000007"><a xlink:href="../../de/da4/group___noise_fill.html#ga1e4dba9289b03333697e70d4b7f3b006" target="_top" xlink:title="Fill a 1D 8&#45;bit buffer with noise, using inoise8()">
<polygon fill="white" stroke="#666666" points="342.75,-98.75 254,-98.75 254,-78 342.75,-78 342.75,-98.75"/>
<text text-anchor="middle" x="298.38" y="-85.25" font-family="Helvetica,sans-Serif" font-size="10.00">fill_raw_noise8</text>
</a>
</g>
</g>
<!-- Node1&#45;&gt;Node7 -->
<g id="edge7_Node000001_Node000007" class="edge">
<title>Node1&#45;&gt;Node7</title>
<g id="a_edge7_Node000001_Node000007"><a xlink:title=" ">
<path fill="none" stroke="#63b8ff" d="M392.75,-73.95C377.36,-76.33 359.28,-79.12 343.15,-81.61"/>
<polygon fill="#63b8ff" stroke="#63b8ff" points="393.06,-77.45 402.41,-72.46 391.99,-70.53 393.06,-77.45"/>
</a>
</g>
</g>
<!-- Node10 -->
<g id="Node000010" class="node">
<title>Node10</title>
<g id="a_Node000010"><a xlink:href="../../da/dda/_noise_plus_palette_8ino.html#a695b396822bbfb2d9b29c121cf13e8f3" target="_top" xlink:title=" ">
<polygon fill="white" stroke="#666666" points="328.5,-59.75 268.25,-59.75 268.25,-39 328.5,-39 328.5,-59.75"/>
<text text-anchor="middle" x="298.38" y="-46.25" font-family="Helvetica,sans-Serif" font-size="10.00">fillnoise8</text>
</a>
</g>
</g>
<!-- Node1&#45;&gt;Node10 -->
<g id="edge10_Node000001_Node000010" class="edge">
<title>Node1&#45;&gt;Node10</title>
<g id="a_edge10_Node000001_Node000010"><a xlink:title=" ">
<path fill="none" stroke="#63b8ff" d="M392.65,-63.06C372.5,-60.1 347.75,-56.47 328.8,-53.69"/>
<polygon fill="#63b8ff" stroke="#63b8ff" points="392.01,-66.5 402.41,-64.49 393.02,-59.58 392.01,-66.5"/>
</a>
</g>
</g>
<!-- Node11 -->
<g id="Node000011" class="node">
<title>Node11</title>
<g id="a_Node000011"><a xlink:href="../../d9/d41/classfl_1_1_noise_palette.html#a22d1820b5a78e9ccfb4123ef9161f738" target="_top" xlink:title=" ">
<polygon fill="white" stroke="#666666" points="368.25,-20.75 228.5,-20.75 228.5,0 368.25,0 368.25,-20.75"/>
<text text-anchor="middle" x="298.38" y="-7.25" font-family="Helvetica,sans-Serif" font-size="10.00">fl::NoisePalette::fillnoise8</text>
</a>
</g>
</g>
<!-- Node1&#45;&gt;Node11 -->
<g id="edge11_Node000001_Node000011" class="edge">
<title>Node1&#45;&gt;Node11</title>
<g id="a_edge11_Node000001_Node000011"><a xlink:title=" ">
<path fill="none" stroke="#63b8ff" d="M405.34,-51.48C394.45,-44.24 381.1,-36.13 368.25,-30.38 360.41,-26.86 351.79,-23.79 343.39,-21.18"/>
<polygon fill="#63b8ff" stroke="#63b8ff" points="403.09,-54.19 413.32,-56.95 407.05,-48.41 403.09,-54.19"/>
</a>
</g>
</g>
<!-- Node2&#45;&gt;Node2 -->
<g id="edge5_Node000002_Node000002" class="edge">
<title>Node2&#45;&gt;Node2</title>
<g id="a_edge5_Node000002_Node000002"><a xlink:title=" ">
<path fill="none" stroke="#63b8ff" d="M321.51,-149.24C318.45,-153.08 310.74,-155.75 298.38,-155.75 275.77,-155.75 268.71,-146.81 277.19,-138.15"/>
<polygon fill="#63b8ff" stroke="#63b8ff" points="325.01,-148.88 319.83,-139.64 318.11,-150.09 325.01,-148.88"/>
</a>
</g>
</g>
<!-- Node3 -->
<g id="Node000003" class="node">
<title>Node3</title>
<g id="a_Node000003"><a xlink:href="../../de/da4/group___noise_fill.html#ga714a0f305e385a60d81a40d1f98b53fc" target="_top" xlink:title="Fill an LED matrix with random colors, using 16&#45;bit noise.">
<polygon fill="white" stroke="#666666" points="174.5,-215.75 91,-215.75 91,-195 174.5,-195 174.5,-215.75"/>
<text text-anchor="middle" x="132.75" y="-202.25" font-family="Helvetica,sans-Serif" font-size="10.00">fill_2dnoise16</text>
</a>
</g>
</g>
<!-- Node2&#45;&gt;Node3 -->
<g id="edge2_Node000002_Node000003" class="edge">
<title>Node2&#45;&gt;Node3</title>
<g id="a_edge2_Node000002_Node000003"><a xlink:title=" ">
<path fill="none" stroke="#63b8ff" d="M270.33,-144.08C249.54,-156.48 219.84,-173.27 192.5,-185.38 185.01,-188.69 176.79,-191.8 168.93,-194.53"/>
<polygon fill="#63b8ff" stroke="#63b8ff" points="272,-147.16 278.75,-138.99 268.38,-141.16 272,-147.16"/>
</a>
</g>
</g>
<!-- Node5 -->
<g id="Node000005" class="node">
<title>Node5</title>
<g id="a_Node000005"><a xlink:href="../../de/da4/group___noise_fill.html#ga6fcc17e60eac4b9dbb620f7e354177f1" target="_top" xlink:title="Fill an LED matrix with random colors, using 8&#45;bit noise.">
<polygon fill="white" stroke="#666666" points="171.5,-176.75 94,-176.75 94,-156 171.5,-156 171.5,-176.75"/>
<text text-anchor="middle" x="132.75" y="-163.25" font-family="Helvetica,sans-Serif" font-size="10.00">fill_2dnoise8</text>
</a>
</g>
</g>
<!-- Node2&#45;&gt;Node5 -->
<g id="edge4_Node000002_Node000005" class="edge">
<title>Node2&#45;&gt;Node5</title>
<g id="a_edge4_Node000002_Node000005"><a xlink:title=" ">
<path fill="none" stroke="#63b8ff" d="M240.88,-140.84C218.1,-146.27 192.41,-152.39 171.9,-157.28"/>
<polygon fill="#63b8ff" stroke="#63b8ff" points="241.41,-144.31 250.32,-138.59 239.78,-137.5 241.41,-144.31"/>
</a>
</g>
</g>
<!-- Node6 -->
<g id="Node000006" class="node">
<title>Node6</title>
<g id="a_Node000006"><a xlink:href="../../de/da4/group___noise_fill.html#gaaa7d79bb9fdaf2c6b315c61c2c951142" target="_top" xlink:title=" ">
<polygon fill="white" stroke="#666666" points="183.12,-137.75 82.38,-137.75 82.38,-117 183.12,-117 183.12,-137.75"/>
<text text-anchor="middle" x="132.75" y="-124.25" font-family="Helvetica,sans-Serif" font-size="10.00">fill_raw_2dnoise8</text>
</a>
</g>
</g>
<!-- Node2&#45;&gt;Node6 -->
<g id="edge6_Node000002_Node000006" class="edge">
<title>Node2&#45;&gt;Node6</title>
<g id="a_edge6_Node000002_Node000006"><a xlink:title=" ">
<path fill="none" stroke="#63b8ff" d="M236.56,-127.38C219.05,-127.38 200.15,-127.38 183.4,-127.38"/>
<polygon fill="#63b8ff" stroke="#63b8ff" points="236.32,-130.88 246.32,-127.38 236.32,-123.88 236.32,-130.88"/>
</a>
</g>
</g>
<!-- Node4 -->
<g id="Node000004" class="node">
<title>Node4</title>
<g id="a_Node000004"><a xlink:href="../../d7/ddc/_noise_playground_8ino.html#afe461d27b9c48d5921c00d521181f12f" target="_top" xlink:title=" ">
<polygon fill="white" stroke="#666666" points="37,-215.75 0,-215.75 0,-195 37,-195 37,-215.75"/>
<text text-anchor="middle" x="18.5" y="-202.25" font-family="Helvetica,sans-Serif" font-size="10.00">loop</text>
</a>
</g>
</g>
<!-- Node3&#45;&gt;Node4 -->
<g id="edge3_Node000003_Node000004" class="edge">
<title>Node3&#45;&gt;Node4</title>
<g id="a_edge3_Node000003_Node000004"><a xlink:title=" ">
<path fill="none" stroke="#63b8ff" d="M79.25,-205.38C64.23,-205.38 48.86,-205.38 37.48,-205.38"/>
<polygon fill="#63b8ff" stroke="#63b8ff" points="79.08,-208.88 89.08,-205.38 79.08,-201.88 79.08,-208.88"/>
</a>
</g>
</g>
<!-- Node8 -->
<g id="Node000008" class="node">
<title>Node8</title>
<g id="a_Node000008"><a xlink:href="../../de/da4/group___noise_fill.html#ga8bf5ab0f87a6bb79204754ef2a62f960" target="_top" xlink:title="Fill an LED array with random colors, using 16&#45;bit noise.">
<polygon fill="white" stroke="#666666" points="168.5,-98.75 97,-98.75 97,-78 168.5,-78 168.5,-98.75"/>
<text text-anchor="middle" x="132.75" y="-85.25" font-family="Helvetica,sans-Serif" font-size="10.00">fill_noise16</text>
</a>
</g>
</g>
<!-- Node7&#45;&gt;Node8 -->
<g id="edge8_Node000007_Node000008" class="edge">
<title>Node7&#45;&gt;Node8</title>
<g id="a_edge8_Node000007_Node000008"><a xlink:title=" ">
<path fill="none" stroke="#63b8ff" d="M242.31,-88.38C218.07,-88.38 190.3,-88.38 168.91,-88.38"/>
<polygon fill="#63b8ff" stroke="#63b8ff" points="242.01,-91.88 252.01,-88.38 242.01,-84.88 242.01,-91.88"/>
</a>
</g>
</g>
<!-- Node9 -->
<g id="Node000009" class="node">
<title>Node9</title>
<g id="a_Node000009"><a xlink:href="../../de/da4/group___noise_fill.html#ga7967fd7b1a7230a0f7428347c70dac3e" target="_top" xlink:title="Fill an LED array with random colors, using 8&#45;bit noise.">
<polygon fill="white" stroke="#666666" points="165.5,-59.75 100,-59.75 100,-39 165.5,-39 165.5,-59.75"/>
<text text-anchor="middle" x="132.75" y="-46.25" font-family="Helvetica,sans-Serif" font-size="10.00">fill_noise8</text>
</a>
</g>
</g>
<!-- Node7&#45;&gt;Node9 -->
<g id="edge9_Node000007_Node000009" class="edge">
<title>Node7&#45;&gt;Node9</title>
<g id="a_edge9_Node000007_Node000009"><a xlink:title=" ">
<path fill="none" stroke="#63b8ff" d="M242.5,-75.3C217.01,-69.22 187.59,-62.21 165.78,-57.01"/>
<polygon fill="#63b8ff" stroke="#63b8ff" points="241.52,-78.66 252.05,-77.57 243.14,-71.85 241.52,-78.66"/>
</a>
</g>
</g>
<!-- Node12 -->
<g id="Node000012" class="node">
<title>Node12</title>
<g id="a_Node000012"><a xlink:href="../../d9/d41/classfl_1_1_noise_palette.html#afc6cd594830dfdd146c45e7ab1d1905d" target="_top" xlink:title=" ">
<polygon fill="white" stroke="#666666" points="192.5,-20.75 73,-20.75 73,0 192.5,0 192.5,-20.75"/>
<text text-anchor="middle" x="132.75" y="-7.25" font-family="Helvetica,sans-Serif" font-size="10.00">fl::NoisePalette::draw</text>
</a>
</g>
</g>
<!-- Node11&#45;&gt;Node12 -->
<g id="edge12_Node000011_Node000012" class="edge">
<title>Node11&#45;&gt;Node12</title>
<g id="a_edge12_Node000011_Node000012"><a xlink:title=" ">
<path fill="none" stroke="#63b8ff" d="M217.05,-10.38C208.94,-10.38 200.82,-10.38 193,-10.38"/>
<polygon fill="#63b8ff" stroke="#63b8ff" points="216.94,-13.88 226.94,-10.38 216.94,-6.88 216.94,-13.88"/>
</a>
</g>
</g>
<!-- Node13 -->
<g id="Node000013" class="node">
<title>Node13</title>
<g id="a_Node000013"><a xlink:href="../../df/d43/_overclock_8ino.html#afe461d27b9c48d5921c00d521181f12f" target="_top" xlink:title=" ">
<polygon fill="white" stroke="#666666" points="37,-20.75 0,-20.75 0,0 37,0 37,-20.75"/>
<text text-anchor="middle" x="18.5" y="-7.25" font-family="Helvetica,sans-Serif" font-size="10.00">loop</text>
</a>
</g>
</g>
<!-- Node12&#45;&gt;Node13 -->
<g id="edge13_Node000012_Node000013" class="edge">
<title>Node12&#45;&gt;Node13</title>
<g id="a_edge13_Node000012_Node000013"><a xlink:title=" ">
<path fill="none" stroke="#63b8ff" d="M61.32,-10.38C52.51,-10.38 44.21,-10.38 37.36,-10.38"/>
<polygon fill="#63b8ff" stroke="#63b8ff" points="61.15,-13.88 71.15,-10.38 61.15,-6.88 61.15,-13.88"/>
</a>
</g>
</g>
</g>
</svg>
