<?xml version="1.0" encoding="UTF-8" standalone="no"?>
<!DOCTYPE svg PUBLIC "-//W3C//DTD SVG 1.1//EN"
 "http://www.w3.org/Graphics/SVG/1.1/DTD/svg11.dtd">
<!-- Generated by graphviz version 12.2.1 (20241206.2353)
 -->
<!-- Title: snoise16 Pages: 1 -->
<svg width="141pt" height="47pt"
 viewBox="0.00 0.00 141.25 46.75" xmlns="http://www.w3.org/2000/svg" xmlns:xlink="http://www.w3.org/1999/xlink">
<g id="graph0" class="graph" transform="scale(1 1) rotate(0) translate(4 42.75)">
<title>snoise16</title>
<!-- Node1 -->
<g id="Node000001" class="node">
<title>Node1</title>
<g id="a_Node000001"><a xlink:title=" ">
<polygon fill="#999999" stroke="#666666" points="59.5,-20.75 0,-20.75 0,0 59.5,0 59.5,-20.75"/>
<text text-anchor="middle" x="29.75" y="-7.25" font-family="Helvetica,sans-Serif" font-size="10.00">snoise16</text>
</a>
</g>
</g>
<!-- Node2 -->
<g id="Node000002" class="node">
<title>Node2</title>
<g id="a_Node000002"><a xlink:href="../../d0/d66/simplex_8cpp.html#a6eeb34a4a071402b8046417a9aa96e97" target="_top" xlink:title=" ">
<polygon fill="white" stroke="#666666" points="133.25,-20.75 95.5,-20.75 95.5,0 133.25,0 133.25,-20.75"/>
<text text-anchor="middle" x="114.38" y="-7.25" font-family="Helvetica,sans-Serif" font-size="10.00">grad</text>
</a>
</g>
</g>
<!-- Node1&#45;&gt;Node2 -->
<g id="edge1_Node000001_Node000002" class="edge">
<title>Node1&#45;&gt;Node2</title>
<g id="a_edge1_Node000001_Node000002"><a xlink:title=" ">
<path fill="none" stroke="#63b8ff" d="M59.65,-10.38C67.56,-10.38 76.14,-10.38 84.07,-10.38"/>
<polygon fill="#63b8ff" stroke="#63b8ff" points="83.93,-13.88 93.93,-10.38 83.93,-6.88 83.93,-13.88"/>
</a>
</g>
</g>
<!-- Node2&#45;&gt;Node2 -->
<g id="edge2_Node000002_Node000002" class="edge">
<title>Node2&#45;&gt;Node2</title>
<g id="a_edge2_Node000002_Node000002"><a xlink:title=" ">
<path fill="none" stroke="#63b8ff" d="M100.74,-21.15C95.28,-29.81 99.83,-38.75 114.38,-38.75 122.1,-38.75 127.01,-36.23 129.09,-32.56"/>
<polygon fill="#63b8ff" stroke="#63b8ff" points="132.58,-32.28 128.15,-22.65 125.61,-32.94 132.58,-32.28"/>
</a>
</g>
</g>
</g>
</svg>
