<?xml version="1.0" encoding="UTF-8" standalone="no"?>
<!DOCTYPE svg PUBLIC "-//W3C//DTD SVG 1.1//EN"
 "http://www.w3.org/Graphics/SVG/1.1/DTD/svg11.dtd">
<!-- Generated by graphviz version 12.2.1 (20241206.2353)
 -->
<!-- Title: inoise8 Pages: 1 -->
<svg width="428pt" height="126pt"
 viewBox="0.00 0.00 427.50 125.75" xmlns="http://www.w3.org/2000/svg" xmlns:xlink="http://www.w3.org/1999/xlink">
<g id="graph0" class="graph" transform="scale(1 1) rotate(0) translate(4 121.75)">
<title>inoise8</title>
<!-- Node1 -->
<g id="Node000001" class="node">
<title>Node1</title>
<g id="a_Node000001"><a xlink:title="8&#45;Bit, fixed point implementation of Perlin&#39;s noise.">
<polygon fill="#999999" stroke="#666666" points="51.25,-39.75 0,-39.75 0,-19 51.25,-19 51.25,-39.75"/>
<text text-anchor="middle" x="25.62" y="-26.25" font-family="Helvetica,sans-Serif" font-size="10.00">inoise8</text>
</a>
</g>
</g>
<!-- Node2 -->
<g id="Node000002" class="node">
<title>Node2</title>
<g id="a_Node000002"><a xlink:href="../../d8/df9/group___noise_generation.html#ga6c57ed3ea69e819c29602578ecbabd71" target="_top" xlink:title="8&#45;bit, fixed point implementation of Perlin&#39;s noise without scaling.">
<polygon fill="white" stroke="#666666" points="161.75,-59.75 87.25,-59.75 87.25,-39 161.75,-39 161.75,-59.75"/>
<text text-anchor="middle" x="124.5" y="-46.25" font-family="Helvetica,sans-Serif" font-size="10.00">inoise8_raw</text>
</a>
</g>
</g>
<!-- Node1&#45;&gt;Node2 -->
<g id="edge1_Node000001_Node000002" class="edge">
<title>Node1&#45;&gt;Node2</title>
<g id="a_edge1_Node000001_Node000002"><a xlink:title=" ">
<path fill="none" stroke="#63b8ff" d="M51.57,-34.53C58.97,-36.05 67.34,-37.78 75.68,-39.5"/>
<polygon fill="#63b8ff" stroke="#63b8ff" points="74.96,-42.93 85.46,-41.52 76.38,-36.07 74.96,-42.93"/>
</a>
</g>
</g>
<!-- Node8 -->
<g id="Node000008" class="node">
<title>Node8</title>
<g id="a_Node000008"><a xlink:href="../../d5/d98/group___math.html#ga07133b3085824d0fcd4f5086d286c4b5" target="_top" xlink:title="Add one byte to another, saturating at 0xFF.">
<polygon fill="white" stroke="#666666" points="147.5,-20.75 101.5,-20.75 101.5,0 147.5,0 147.5,-20.75"/>
<text text-anchor="middle" x="124.5" y="-7.25" font-family="Helvetica,sans-Serif" font-size="10.00">qadd8</text>
</a>
</g>
</g>
<!-- Node1&#45;&gt;Node8 -->
<g id="edge7_Node000001_Node000008" class="edge">
<title>Node1&#45;&gt;Node8</title>
<g id="a_edge7_Node000001_Node000008"><a xlink:title=" ">
<path fill="none" stroke="#63b8ff" d="M51.57,-24.48C63.33,-22.18 77.53,-19.39 90.2,-16.91"/>
<polygon fill="#63b8ff" stroke="#63b8ff" points="90.66,-20.38 99.8,-15.02 89.31,-13.51 90.66,-20.38"/>
</a>
</g>
</g>
<!-- Node3 -->
<g id="Node000003" class="node">
<title>Node3</title>
<g id="a_Node000003"><a xlink:href="../../d6/de8/noise_8cpp.html#a07165473858feff9f2415a77bf841731" target="_top" xlink:title=" ">
<polygon fill="white" stroke="#666666" points="249,-78.75 205.25,-78.75 205.25,-58 249,-58 249,-78.75"/>
<text text-anchor="middle" x="227.12" y="-65.25" font-family="Helvetica,sans-Serif" font-size="10.00">grad8</text>
</a>
</g>
</g>
<!-- Node2&#45;&gt;Node3 -->
<g id="edge2_Node000002_Node000003" class="edge">
<title>Node2&#45;&gt;Node3</title>
<g id="a_edge2_Node000002_Node000003"><a xlink:title=" ">
<path fill="none" stroke="#63b8ff" d="M162.11,-56.29C172.45,-58.24 183.63,-60.35 193.7,-62.25"/>
<polygon fill="#63b8ff" stroke="#63b8ff" points="192.94,-65.67 203.42,-64.09 194.24,-58.79 192.94,-65.67"/>
</a>
</g>
</g>
<!-- Node6 -->
<g id="Node000006" class="node">
<title>Node6</title>
<g id="a_Node000006"><a xlink:href="../../d6/de8/noise_8cpp.html#ad89cf56a81ef482a0027a47eada176bb" target="_top" xlink:title=" ">
<polygon fill="white" stroke="#666666" points="256.5,-39.75 197.75,-39.75 197.75,-19 256.5,-19 256.5,-39.75"/>
<text text-anchor="middle" x="227.12" y="-26.25" font-family="Helvetica,sans-Serif" font-size="10.00">lerp7by8</text>
</a>
</g>
</g>
<!-- Node2&#45;&gt;Node6 -->
<g id="edge5_Node000002_Node000006" class="edge">
<title>Node2&#45;&gt;Node6</title>
<g id="a_edge5_Node000002_Node000006"><a xlink:title=" ">
<path fill="none" stroke="#63b8ff" d="M162.11,-42.1C169.89,-40.55 178.14,-38.91 186.04,-37.34"/>
<polygon fill="#63b8ff" stroke="#63b8ff" points="186.66,-40.79 195.78,-35.41 185.29,-33.92 186.66,-40.79"/>
</a>
</g>
</g>
<!-- Node4 -->
<g id="Node000004" class="node">
<title>Node4</title>
<g id="a_Node000004"><a xlink:href="../../d5/d98/group___math.html#gad7af6a5b49aef34ab79e850ddb7d7911" target="_top" xlink:title="Calculate an integer average of two signed 7&#45;bit integers (int8_t).">
<polygon fill="white" stroke="#666666" points="376,-117.75 336,-117.75 336,-97 376,-97 376,-117.75"/>
<text text-anchor="middle" x="356" y="-104.25" font-family="Helvetica,sans-Serif" font-size="10.00">avg7</text>
</a>
</g>
</g>
<!-- Node3&#45;&gt;Node4 -->
<g id="edge3_Node000003_Node000004" class="edge">
<title>Node3&#45;&gt;Node4</title>
<g id="a_edge3_Node000003_Node000004"><a xlink:title=" ">
<path fill="none" stroke="#63b8ff" d="M249.36,-74.9C270,-81.25 301.55,-90.94 324.79,-98.09"/>
<polygon fill="#63b8ff" stroke="#63b8ff" points="323.74,-101.43 334.33,-101.02 325.8,-94.74 323.74,-101.43"/>
</a>
</g>
</g>
<!-- Node5 -->
<g id="Node000005" class="node">
<title>Node5</title>
<g id="a_Node000005"><a xlink:href="../../d6/de8/noise_8cpp.html#a7e9b66e76fd89c94ccb6f26fd713bdca" target="_top" xlink:title=" ">
<polygon fill="white" stroke="#666666" points="419.5,-78.75 292.5,-78.75 292.5,-58 419.5,-58 419.5,-78.75"/>
<text text-anchor="middle" x="356" y="-65.25" font-family="Helvetica,sans-Serif" font-size="10.00">selectBasedOnHashBit</text>
</a>
</g>
</g>
<!-- Node3&#45;&gt;Node5 -->
<g id="edge4_Node000003_Node000005" class="edge">
<title>Node3&#45;&gt;Node5</title>
<g id="a_edge4_Node000003_Node000005"><a xlink:title=" ">
<path fill="none" stroke="#63b8ff" d="M249.36,-68.38C258.25,-68.38 269.16,-68.38 280.56,-68.38"/>
<polygon fill="#63b8ff" stroke="#63b8ff" points="280.55,-71.88 290.55,-68.38 280.55,-64.88 280.55,-71.88"/>
</a>
</g>
</g>
<!-- Node7 -->
<g id="Node000007" class="node">
<title>Node7</title>
<g id="a_Node000007"><a xlink:href="../../d0/da8/group___scaling.html#gad7535ccda9c92470c4e6ee0265585555" target="_top" xlink:title="Scale one byte by a second one, which is treated as the numerator of a fraction whose denominator is ...">
<polygon fill="white" stroke="#666666" points="379.75,-39.75 332.25,-39.75 332.25,-19 379.75,-19 379.75,-39.75"/>
<text text-anchor="middle" x="356" y="-26.25" font-family="Helvetica,sans-Serif" font-size="10.00">scale8</text>
</a>
</g>
</g>
<!-- Node6&#45;&gt;Node7 -->
<g id="edge6_Node000006_Node000007" class="edge">
<title>Node6&#45;&gt;Node7</title>
<g id="a_edge6_Node000006_Node000007"><a xlink:title=" ">
<path fill="none" stroke="#63b8ff" d="M256.91,-29.38C275.77,-29.38 300.52,-29.38 320.44,-29.38"/>
<polygon fill="#63b8ff" stroke="#63b8ff" points="320.31,-32.88 330.31,-29.38 320.31,-25.88 320.31,-32.88"/>
</a>
</g>
</g>
</g>
</svg>
