<?xml version="1.0" encoding="UTF-8" standalone="no"?>
<!DOCTYPE svg PUBLIC "-//W3C//DTD SVG 1.1//EN"
 "http://www.w3.org/Graphics/SVG/1.1/DTD/svg11.dtd">
<!-- Generated by graphviz version 12.2.1 (20241206.2353)
 -->
<!-- Title: /home/runner/work/FastLED/FastLED/src/fx/time.h Pages: 1 -->
<svg width="1835pt" height="402pt"
 viewBox="0.00 0.00 1834.88 401.75" xmlns="http://www.w3.org/2000/svg" xmlns:xlink="http://www.w3.org/1999/xlink">
<g id="graph0" class="graph" transform="scale(1 1) rotate(0) translate(4 397.75)">
<title>/home/runner/work/FastLED/FastLED/src/fx/time.h</title>
<!-- Node1 -->
<g id="Node000001" class="node">
<title>Node1</title>
<g id="a_Node000001"><a xlink:title=" ">
<polygon fill="#999999" stroke="#666666" points="948.75,-393.75 799.25,-393.75 799.25,-360.25 948.75,-360.25 948.75,-393.75"/>
<text text-anchor="start" x="807.25" y="-380.25" font-family="Helvetica,sans-Serif" font-size="10.00">/home/runner/work/FastLED</text>
<text text-anchor="middle" x="874" y="-367.5" font-family="Helvetica,sans-Serif" font-size="10.00">/FastLED/src/fx/time.h</text>
</a>
</g>
</g>
<!-- Node2 -->
<g id="Node000002" class="node">
<title>Node2</title>
<g id="a_Node000002"><a xlink:href="../../d6/dc7/noisepalette_8h.html" target="_top" xlink:title="Demonstrates how to mix noise generation with color palettes on a 2D LED matrix.">
<polygon fill="white" stroke="#666666" points="630.5,-254.75 455.5,-254.75 455.5,-221.25 630.5,-221.25 630.5,-254.75"/>
<text text-anchor="start" x="463.5" y="-241.25" font-family="Helvetica,sans-Serif" font-size="10.00">/home/runner/work/FastLED</text>
<text text-anchor="middle" x="543" y="-228.5" font-family="Helvetica,sans-Serif" font-size="10.00">/FastLED/src/fx/2d/noisepalette.h</text>
</a>
</g>
</g>
<!-- Node1&#45;&gt;Node2 -->
<g id="edge1_Node000001_Node000002" class="edge">
<title>Node1&#45;&gt;Node2</title>
<g id="a_edge1_Node000001_Node000002"><a xlink:title=" ">
<path fill="none" stroke="#63b8ff" d="M824.49,-355.51C758.32,-328.12 642.42,-280.15 582.05,-255.16"/>
<polygon fill="#63b8ff" stroke="#63b8ff" points="823.08,-358.71 833.66,-359.3 825.76,-352.24 823.08,-358.71"/>
</a>
</g>
</g>
<!-- Node8 -->
<g id="Node000008" class="node">
<title>Node8</title>
<g id="a_Node000008"><a xlink:href="../../d9/d3c/fx__engine_8h.html" target="_top" xlink:title=" ">
<polygon fill="white" stroke="#666666" points="897.75,-254.75 748.25,-254.75 748.25,-221.25 897.75,-221.25 897.75,-254.75"/>
<text text-anchor="start" x="756.25" y="-241.25" font-family="Helvetica,sans-Serif" font-size="10.00">/home/runner/work/FastLED</text>
<text text-anchor="middle" x="823" y="-228.5" font-family="Helvetica,sans-Serif" font-size="10.00">/FastLED/src/fx/fx_engine.h</text>
</a>
</g>
</g>
<!-- Node1&#45;&gt;Node8 -->
<g id="edge7_Node000001_Node000008" class="edge">
<title>Node1&#45;&gt;Node8</title>
<g id="a_edge7_Node000001_Node000008"><a xlink:title=" ">
<path fill="none" stroke="#63b8ff" d="M855.84,-350.42C850.76,-342.35 845.64,-333.19 842,-324.25 832.62,-301.22 827.46,-272.71 824.97,-255.19"/>
<polygon fill="#63b8ff" stroke="#63b8ff" points="852.88,-352.29 861.3,-358.71 858.72,-348.44 852.88,-352.29"/>
</a>
</g>
</g>
<!-- Node11 -->
<g id="Node000011" class="node">
<title>Node11</title>
<g id="a_Node000011"><a xlink:href="../../de/daf/time_8cpp.html" target="_top" xlink:title=" ">
<polygon fill="white" stroke="#666666" points="1000.75,-324.25 851.25,-324.25 851.25,-290.75 1000.75,-290.75 1000.75,-324.25"/>
<text text-anchor="start" x="859.25" y="-310.75" font-family="Helvetica,sans-Serif" font-size="10.00">/home/runner/work/FastLED</text>
<text text-anchor="middle" x="926" y="-298" font-family="Helvetica,sans-Serif" font-size="10.00">/FastLED/src/fx/time.cpp</text>
</a>
</g>
</g>
<!-- Node1&#45;&gt;Node11 -->
<g id="edge13_Node000001_Node000011" class="edge">
<title>Node1&#45;&gt;Node11</title>
<g id="a_edge13_Node000001_Node000011"><a xlink:title=" ">
<path fill="none" stroke="#63b8ff" d="M893.16,-351.13C900.05,-342.19 907.63,-332.35 913.77,-324.38"/>
<polygon fill="#63b8ff" stroke="#63b8ff" points="890.58,-348.75 887.25,-358.8 896.12,-353.02 890.58,-348.75"/>
</a>
</g>
</g>
<!-- Node12 -->
<g id="Node000012" class="node">
<title>Node12</title>
<g id="a_Node000012"><a xlink:href="../../dd/d78/video_8h.html" target="_top" xlink:title=" ">
<polygon fill="white" stroke="#666666" points="1180.75,-324.25 1031.25,-324.25 1031.25,-290.75 1180.75,-290.75 1180.75,-324.25"/>
<text text-anchor="start" x="1039.25" y="-310.75" font-family="Helvetica,sans-Serif" font-size="10.00">/home/runner/work/FastLED</text>
<text text-anchor="middle" x="1106" y="-298" font-family="Helvetica,sans-Serif" font-size="10.00">/FastLED/src/fx/video.h</text>
</a>
</g>
</g>
<!-- Node1&#45;&gt;Node12 -->
<g id="edge14_Node000001_Node000012" class="edge">
<title>Node1&#45;&gt;Node12</title>
<g id="a_edge14_Node000001_Node000012"><a xlink:title=" ">
<path fill="none" stroke="#63b8ff" d="M940.59,-356.63C975.38,-346.5 1017.47,-334.26 1050.48,-324.65"/>
<polygon fill="#63b8ff" stroke="#63b8ff" points="939.65,-353.25 931.02,-359.41 941.6,-359.98 939.65,-353.25"/>
</a>
</g>
</g>
<!-- Node3 -->
<g id="Node000003" class="node">
<title>Node3</title>
<g id="a_Node000003"><a xlink:href="../../d6/d35/_fx_engine_8ino.html" target="_top" xlink:title="Demonstrates how to use the FxEngine to switch between different effects on a 2D LED matrix.">
<polygon fill="white" stroke="#666666" points="706.12,-185.25 549.88,-185.25 549.88,-139 706.12,-139 706.12,-185.25"/>
<text text-anchor="start" x="557.88" y="-171.75" font-family="Helvetica,sans-Serif" font-size="10.00">/home/runner/work/FastLED</text>
<text text-anchor="start" x="557.88" y="-159" font-family="Helvetica,sans-Serif" font-size="10.00">/FastLED/examples/FxEngine</text>
<text text-anchor="middle" x="628" y="-146.25" font-family="Helvetica,sans-Serif" font-size="10.00">/FxEngine.ino</text>
</a>
</g>
</g>
<!-- Node2&#45;&gt;Node3 -->
<g id="edge2_Node000002_Node000003" class="edge">
<title>Node2&#45;&gt;Node3</title>
<g id="a_edge2_Node000002_Node000003"><a xlink:title=" ">
<path fill="none" stroke="#63b8ff" d="M570.05,-213.49C580.33,-204.56 592.01,-194.4 602.18,-185.57"/>
<polygon fill="#63b8ff" stroke="#63b8ff" points="567.84,-210.78 562.59,-219.98 572.43,-216.06 567.84,-210.78"/>
</a>
</g>
</g>
<!-- Node4 -->
<g id="Node000004" class="node">
<title>Node4</title>
<g id="a_Node000004"><a xlink:href="../../d7/d35/_fx_sd_card_8ino.html" target="_top" xlink:title=" ">
<polygon fill="white" stroke="#666666" points="1074.88,-185.25 917.12,-185.25 917.12,-139 1074.88,-139 1074.88,-185.25"/>
<text text-anchor="start" x="925.12" y="-171.75" font-family="Helvetica,sans-Serif" font-size="10.00">/home/runner/work/FastLED</text>
<text text-anchor="start" x="925.12" y="-159" font-family="Helvetica,sans-Serif" font-size="10.00">/FastLED/examples/FxSdCard</text>
<text text-anchor="middle" x="996" y="-146.25" font-family="Helvetica,sans-Serif" font-size="10.00">/FxSdCard.ino</text>
</a>
</g>
</g>
<!-- Node2&#45;&gt;Node4 -->
<g id="edge3_Node000002_Node000004" class="edge">
<title>Node2&#45;&gt;Node4</title>
<g id="a_edge3_Node000002_Node000004"><a xlink:title=" ">
<path fill="none" stroke="#63b8ff" d="M641.86,-225.97C715.79,-217.01 819.17,-202.97 909,-185.25 911.6,-184.74 914.24,-184.2 916.9,-183.63"/>
<polygon fill="#63b8ff" stroke="#63b8ff" points="641.72,-222.46 632.21,-227.13 642.56,-229.41 641.72,-222.46"/>
</a>
</g>
</g>
<!-- Node5 -->
<g id="Node000005" class="node">
<title>Node5</title>
<g id="a_Node000005"><a xlink:href="../../df/d43/_overclock_8ino.html" target="_top" xlink:title="Demonstrates how to overclock a FastLED setup.">
<polygon fill="white" stroke="#666666" points="160,-185.25 0,-185.25 0,-139 160,-139 160,-185.25"/>
<text text-anchor="start" x="8" y="-171.75" font-family="Helvetica,sans-Serif" font-size="10.00">/home/runner/work/FastLED</text>
<text text-anchor="start" x="8" y="-159" font-family="Helvetica,sans-Serif" font-size="10.00">/FastLED/examples/Overclock</text>
<text text-anchor="middle" x="80" y="-146.25" font-family="Helvetica,sans-Serif" font-size="10.00">/Overclock.ino</text>
</a>
</g>
</g>
<!-- Node2&#45;&gt;Node5 -->
<g id="edge4_Node000002_Node000005" class="edge">
<title>Node2&#45;&gt;Node5</title>
<g id="a_edge4_Node000002_Node000005"><a xlink:title=" ">
<path fill="none" stroke="#63b8ff" d="M443.89,-226.19C368.23,-217.24 261.59,-203.11 169,-185.25 166.19,-184.71 163.33,-184.13 160.45,-183.53"/>
<polygon fill="#63b8ff" stroke="#63b8ff" points="443.44,-229.67 453.78,-227.35 444.26,-222.71 443.44,-229.67"/>
</a>
</g>
</g>
<!-- Node6 -->
<g id="Node000006" class="node">
<title>Node6</title>
<g id="a_Node000006"><a xlink:href="../../d7/dd3/wasm_8ino.html" target="_top" xlink:title="Demonstrates an advanced ino file with multiple effects and UI elements.">
<polygon fill="white" stroke="#666666" points="531.75,-185.25 382.25,-185.25 382.25,-139 531.75,-139 531.75,-185.25"/>
<text text-anchor="start" x="390.25" y="-171.75" font-family="Helvetica,sans-Serif" font-size="10.00">/home/runner/work/FastLED</text>
<text text-anchor="start" x="390.25" y="-159" font-family="Helvetica,sans-Serif" font-size="10.00">/FastLED/examples/wasm</text>
<text text-anchor="middle" x="457" y="-146.25" font-family="Helvetica,sans-Serif" font-size="10.00">/wasm.ino</text>
</a>
</g>
</g>
<!-- Node2&#45;&gt;Node6 -->
<g id="edge5_Node000002_Node000006" class="edge">
<title>Node2&#45;&gt;Node6</title>
<g id="a_edge5_Node000002_Node000006"><a xlink:title=" ">
<path fill="none" stroke="#63b8ff" d="M515.63,-213.49C505.23,-204.56 493.41,-194.4 483.13,-185.57"/>
<polygon fill="#63b8ff" stroke="#63b8ff" points="513.32,-216.12 523.19,-219.98 517.89,-210.81 513.32,-216.12"/>
</a>
</g>
</g>
<!-- Node7 -->
<g id="Node000007" class="node">
<title>Node7</title>
<g id="a_Node000007"><a xlink:href="../../d6/d66/noisepalette_8cpp.html" target="_top" xlink:title=" ">
<polygon fill="white" stroke="#666666" points="364.12,-178.88 177.88,-178.88 177.88,-145.38 364.12,-145.38 364.12,-178.88"/>
<text text-anchor="start" x="185.88" y="-165.38" font-family="Helvetica,sans-Serif" font-size="10.00">/home/runner/work/FastLED</text>
<text text-anchor="middle" x="271" y="-152.62" font-family="Helvetica,sans-Serif" font-size="10.00">/FastLED/src/fx/2d/noisepalette.cpp</text>
</a>
</g>
</g>
<!-- Node2&#45;&gt;Node7 -->
<g id="edge6_Node000002_Node000007" class="edge">
<title>Node2&#45;&gt;Node7</title>
<g id="a_edge6_Node000002_Node000007"><a xlink:title=" ">
<path fill="none" stroke="#63b8ff" d="M472.39,-217.82C428.36,-205.86 372.33,-190.65 330.55,-179.3"/>
<polygon fill="#63b8ff" stroke="#63b8ff" points="471.28,-221.15 481.85,-220.39 473.11,-214.39 471.28,-221.15"/>
</a>
</g>
</g>
<!-- Node8&#45;&gt;Node3 -->
<g id="edge9_Node000008_Node000003" class="edge">
<title>Node8&#45;&gt;Node3</title>
<g id="a_edge9_Node000008_Node000003"><a xlink:title=" ">
<path fill="none" stroke="#63b8ff" d="M769.67,-216.8C744.29,-207.18 713.85,-195.65 687.71,-185.74"/>
<polygon fill="#63b8ff" stroke="#63b8ff" points="768.2,-219.98 778.79,-220.25 770.68,-213.44 768.2,-219.98"/>
</a>
</g>
</g>
<!-- Node8&#45;&gt;Node4 -->
<g id="edge10_Node000008_Node000004" class="edge">
<title>Node8&#45;&gt;Node4</title>
<g id="a_edge10_Node000008_Node000004"><a xlink:title=" ">
<path fill="none" stroke="#63b8ff" d="M871.53,-216.28C893.79,-206.77 920.25,-195.47 943.03,-185.74"/>
<polygon fill="#63b8ff" stroke="#63b8ff" points="870.18,-213.05 862.36,-220.19 872.93,-219.49 870.18,-213.05"/>
</a>
</g>
</g>
<!-- Node8&#45;&gt;Node6 -->
<g id="edge11_Node000008_Node000006" class="edge">
<title>Node8&#45;&gt;Node6</title>
<g id="a_edge11_Node000008_Node000006"><a xlink:title=" ">
<path fill="none" stroke="#63b8ff" d="M736.58,-222.89C680.59,-213.32 606.22,-199.8 541,-185.25 538.06,-184.59 535.06,-183.9 532.04,-183.19"/>
<polygon fill="#63b8ff" stroke="#63b8ff" points="735.94,-226.33 746.38,-224.56 737.11,-219.43 735.94,-226.33"/>
</a>
</g>
</g>
<!-- Node9 -->
<g id="Node000009" class="node">
<title>Node9</title>
<g id="a_Node000009"><a xlink:href="../../dd/d96/_fx_animartrix_8ino.html" target="_top" xlink:title=" ">
<polygon fill="white" stroke="#666666" points="899.5,-185.25 724.5,-185.25 724.5,-139 899.5,-139 899.5,-185.25"/>
<text text-anchor="start" x="732.5" y="-171.75" font-family="Helvetica,sans-Serif" font-size="10.00">/home/runner/work/FastLED</text>
<text text-anchor="start" x="732.5" y="-159" font-family="Helvetica,sans-Serif" font-size="10.00">/FastLED/examples/FxAnimartrix</text>
<text text-anchor="middle" x="812" y="-146.25" font-family="Helvetica,sans-Serif" font-size="10.00">/FxAnimartrix.ino</text>
</a>
</g>
</g>
<!-- Node8&#45;&gt;Node9 -->
<g id="edge8_Node000008_Node000009" class="edge">
<title>Node8&#45;&gt;Node9</title>
<g id="a_edge8_Node000008_Node000009"><a xlink:title=" ">
<path fill="none" stroke="#63b8ff" d="M818.93,-209.64C817.75,-201.71 816.47,-193.16 815.34,-185.57"/>
<polygon fill="#63b8ff" stroke="#63b8ff" points="815.46,-210.1 820.39,-219.47 822.38,-209.07 815.46,-210.1"/>
</a>
</g>
</g>
<!-- Node10 -->
<g id="Node000010" class="node">
<title>Node10</title>
<g id="a_Node000010"><a xlink:href="../../df/d8e/fx__engine_8cpp.html" target="_top" xlink:title=" ">
<polygon fill="white" stroke="#666666" points="1251.25,-178.88 1092.75,-178.88 1092.75,-145.38 1251.25,-145.38 1251.25,-178.88"/>
<text text-anchor="start" x="1100.75" y="-165.38" font-family="Helvetica,sans-Serif" font-size="10.00">/home/runner/work/FastLED</text>
<text text-anchor="middle" x="1172" y="-152.62" font-family="Helvetica,sans-Serif" font-size="10.00">/FastLED/src/fx/fx_engine.cpp</text>
</a>
</g>
</g>
<!-- Node8&#45;&gt;Node10 -->
<g id="edge12_Node000008_Node000010" class="edge">
<title>Node8&#45;&gt;Node10</title>
<g id="a_edge12_Node000008_Node000010"><a xlink:title=" ">
<path fill="none" stroke="#63b8ff" d="M909.33,-221.02C960.28,-211.3 1025.97,-198.29 1084,-185.25 1092.15,-183.42 1100.69,-181.4 1109.12,-179.34"/>
<polygon fill="#63b8ff" stroke="#63b8ff" points="908.69,-217.58 899.51,-222.88 909.99,-224.46 908.69,-217.58"/>
</a>
</g>
</g>
<!-- Node12&#45;&gt;Node4 -->
<g id="edge15_Node000012_Node000004" class="edge">
<title>Node12&#45;&gt;Node4</title>
<g id="a_edge15_Node000012_Node000004"><a xlink:title=" ">
<path fill="none" stroke="#63b8ff" d="M1086.79,-281.46C1066.01,-254.38 1033.19,-211.6 1013.22,-185.57"/>
<polygon fill="#63b8ff" stroke="#63b8ff" points="1083.81,-283.33 1092.67,-289.13 1089.36,-279.07 1083.81,-283.33"/>
</a>
</g>
</g>
<!-- Node12&#45;&gt;Node8 -->
<g id="edge26_Node000012_Node000008" class="edge">
<title>Node12&#45;&gt;Node8</title>
<g id="a_edge26_Node000012_Node000008"><a xlink:title=" ">
<path fill="none" stroke="#63b8ff" d="M1027.24,-287.72C984.34,-277.48 931.78,-264.95 890.72,-255.15"/>
<polygon fill="#63b8ff" stroke="#63b8ff" points="1026.2,-291.07 1036.74,-289.98 1027.83,-284.26 1026.2,-291.07"/>
</a>
</g>
</g>
<!-- Node12&#45;&gt;Node10 -->
<g id="edge25_Node000012_Node000010" class="edge">
<title>Node12&#45;&gt;Node10</title>
<g id="a_edge25_Node000012_Node000010"><a xlink:title=" ">
<path fill="none" stroke="#63b8ff" d="M1118.24,-279.91C1131.87,-250.3 1153.46,-203.39 1164.69,-179.02"/>
<polygon fill="#63b8ff" stroke="#63b8ff" points="1115.08,-278.41 1114.08,-288.96 1121.44,-281.34 1115.08,-278.41"/>
</a>
</g>
</g>
<!-- Node13 -->
<g id="Node000013" class="node">
<title>Node13</title>
<g id="a_Node000013"><a xlink:href="../../d9/d28/fl_2file__system_8h.html" target="_top" xlink:title=" ">
<polygon fill="white" stroke="#666666" points="1513.88,-254.75 1362.12,-254.75 1362.12,-221.25 1513.88,-221.25 1513.88,-254.75"/>
<text text-anchor="start" x="1370.12" y="-241.25" font-family="Helvetica,sans-Serif" font-size="10.00">/home/runner/work/FastLED</text>
<text text-anchor="middle" x="1438" y="-228.5" font-family="Helvetica,sans-Serif" font-size="10.00">/FastLED/src/fl/file_system.h</text>
</a>
</g>
</g>
<!-- Node12&#45;&gt;Node13 -->
<g id="edge16_Node000012_Node000013" class="edge">
<title>Node12&#45;&gt;Node13</title>
<g id="a_edge16_Node000012_Node000013"><a xlink:title=" ">
<path fill="none" stroke="#63b8ff" d="M1191.9,-289.04C1244.4,-278.36 1310.97,-264.83 1361.63,-254.53"/>
<polygon fill="#63b8ff" stroke="#63b8ff" points="1191.51,-285.54 1182.4,-290.97 1192.9,-292.4 1191.51,-285.54"/>
</a>
</g>
</g>
<!-- Node17 -->
<g id="Node000017" class="node">
<title>Node17</title>
<g id="a_Node000017"><a xlink:href="../../d0/d05/video_8cpp.html" target="_top" xlink:title=" ">
<polygon fill="white" stroke="#666666" points="1710.75,-33.5 1561.25,-33.5 1561.25,0 1710.75,0 1710.75,-33.5"/>
<text text-anchor="start" x="1569.25" y="-20" font-family="Helvetica,sans-Serif" font-size="10.00">/home/runner/work/FastLED</text>
<text text-anchor="middle" x="1636" y="-7.25" font-family="Helvetica,sans-Serif" font-size="10.00">/FastLED/src/fx/video.cpp</text>
</a>
</g>
</g>
<!-- Node12&#45;&gt;Node17 -->
<g id="edge27_Node000012_Node000017" class="edge">
<title>Node12&#45;&gt;Node17</title>
<g id="a_edge27_Node000012_Node000017"><a xlink:title=" ">
<path fill="none" stroke="#63b8ff" d="M1192.48,-305.46C1364.41,-301.31 1739.2,-281.21 1815,-185.25 1864.4,-122.71 1745.77,-62.05 1678.48,-33.97"/>
<polygon fill="#63b8ff" stroke="#63b8ff" points="1192.63,-301.95 1182.71,-305.68 1192.79,-308.95 1192.63,-301.95"/>
</a>
</g>
</g>
<!-- Node13&#45;&gt;Node4 -->
<g id="edge17_Node000013_Node000004" class="edge">
<title>Node13&#45;&gt;Node4</title>
<g id="a_edge17_Node000013_Node000004"><a xlink:title=" ">
<path fill="none" stroke="#63b8ff" d="M1350.41,-226.7C1278.51,-217.65 1174.22,-203.14 1084,-185.25 1081.06,-184.67 1078.08,-184.05 1075.07,-183.41"/>
<polygon fill="#63b8ff" stroke="#63b8ff" points="1349.8,-230.15 1360.16,-227.92 1350.67,-223.21 1349.8,-230.15"/>
</a>
</g>
</g>
<!-- Node14 -->
<g id="Node000014" class="node">
<title>Node14</title>
<g id="a_Node000014"><a xlink:href="../../d6/d8d/file__system_8h.html" target="_top" xlink:title=" ">
<polygon fill="white" stroke="#666666" points="1805.75,-178.88 1656.25,-178.88 1656.25,-145.38 1805.75,-145.38 1805.75,-178.88"/>
<text text-anchor="start" x="1664.25" y="-165.38" font-family="Helvetica,sans-Serif" font-size="10.00">/home/runner/work/FastLED</text>
<text text-anchor="middle" x="1731" y="-152.62" font-family="Helvetica,sans-Serif" font-size="10.00">/FastLED/src/file_system.h</text>
</a>
</g>
</g>
<!-- Node13&#45;&gt;Node14 -->
<g id="edge18_Node000013_Node000014" class="edge">
<title>Node13&#45;&gt;Node14</title>
<g id="a_edge18_Node000013_Node000014"><a xlink:title=" ">
<path fill="none" stroke="#63b8ff" d="M1513.44,-217.98C1560.88,-206.02 1621.43,-190.75 1666.6,-179.36"/>
<polygon fill="#63b8ff" stroke="#63b8ff" points="1512.61,-214.58 1503.77,-220.42 1514.32,-221.37 1512.61,-214.58"/>
</a>
</g>
</g>
<!-- Node15 -->
<g id="Node000015" class="node">
<title>Node15</title>
<g id="a_Node000015"><a xlink:href="../../d4/d37/file__system_8cpp.html" target="_top" xlink:title=" ">
<polygon fill="white" stroke="#666666" points="1432.5,-178.88 1269.5,-178.88 1269.5,-145.38 1432.5,-145.38 1432.5,-178.88"/>
<text text-anchor="start" x="1277.5" y="-165.38" font-family="Helvetica,sans-Serif" font-size="10.00">/home/runner/work/FastLED</text>
<text text-anchor="middle" x="1351" y="-152.62" font-family="Helvetica,sans-Serif" font-size="10.00">/FastLED/src/fl/file_system.cpp</text>
</a>
</g>
</g>
<!-- Node13&#45;&gt;Node15 -->
<g id="edge19_Node000013_Node000015" class="edge">
<title>Node13&#45;&gt;Node15</title>
<g id="a_edge19_Node000013_Node000015"><a xlink:title=" ">
<path fill="none" stroke="#63b8ff" d="M1410.41,-213.57C1397.18,-202.34 1381.69,-189.19 1369.84,-179.12"/>
<polygon fill="#63b8ff" stroke="#63b8ff" points="1408.08,-216.19 1417.97,-219.99 1412.61,-210.85 1408.08,-216.19"/>
</a>
</g>
</g>
<!-- Node16 -->
<g id="Node000016" class="node">
<title>Node16</title>
<g id="a_Node000016"><a xlink:href="../../d3/dfa/pixel__stream_8h.html" target="_top" xlink:title=" ">
<polygon fill="#fff0f0" stroke="red" points="1599.75,-185.25 1450.25,-185.25 1450.25,-139 1599.75,-139 1599.75,-185.25"/>
<text text-anchor="start" x="1458.25" y="-171.75" font-family="Helvetica,sans-Serif" font-size="10.00">/home/runner/work/FastLED</text>
<text text-anchor="start" x="1458.25" y="-159" font-family="Helvetica,sans-Serif" font-size="10.00">/FastLED/src/fx/video/pixel</text>
<text text-anchor="middle" x="1525" y="-146.25" font-family="Helvetica,sans-Serif" font-size="10.00">_stream.h</text>
</a>
</g>
</g>
<!-- Node13&#45;&gt;Node16 -->
<g id="edge20_Node000013_Node000016" class="edge">
<title>Node13&#45;&gt;Node16</title>
<g id="a_edge20_Node000013_Node000016"><a xlink:title=" ">
<path fill="none" stroke="#63b8ff" d="M1465.37,-213.76C1475.97,-204.76 1488.06,-194.49 1498.57,-185.57"/>
<polygon fill="#63b8ff" stroke="#63b8ff" points="1463.39,-210.85 1458.03,-219.99 1467.92,-216.19 1463.39,-210.85"/>
</a>
</g>
</g>
<!-- Node20 -->
<g id="Node000020" class="node">
<title>Node20</title>
<g id="a_Node000020"><a xlink:href="../../d5/d82/video__impl_8h.html" target="_top" xlink:title=" ">
<polygon fill="#fff0f0" stroke="red" points="1727.62,-103 1544.38,-103 1544.38,-69.5 1727.62,-69.5 1727.62,-103"/>
<text text-anchor="start" x="1552.38" y="-89.5" font-family="Helvetica,sans-Serif" font-size="10.00">/home/runner/work/FastLED</text>
<text text-anchor="middle" x="1636" y="-76.75" font-family="Helvetica,sans-Serif" font-size="10.00">/FastLED/src/fx/video/video_impl.h</text>
</a>
</g>
</g>
<!-- Node13&#45;&gt;Node20 -->
<g id="edge24_Node000013_Node000020" class="edge">
<title>Node13&#45;&gt;Node20</title>
<g id="a_edge24_Node000013_Node000020"><a xlink:title=" ">
<path fill="none" stroke="#63b8ff" d="M1525.23,-227.93C1555.29,-220.71 1586.92,-207.89 1609,-185.25 1630.69,-163.01 1635.32,-125.03 1636.09,-103.47"/>
<polygon fill="#63b8ff" stroke="#63b8ff" points="1524.74,-224.46 1515.73,-230.02 1526.25,-231.29 1524.74,-224.46"/>
</a>
</g>
</g>
<!-- Node16&#45;&gt;Node17 -->
<g id="edge21_Node000016_Node000017" class="edge">
<title>Node16&#45;&gt;Node17</title>
<g id="a_edge21_Node000016_Node000017"><a xlink:title=" ">
<path fill="none" stroke="#63b8ff" d="M1521.28,-127.5C1520.93,-108.89 1523.48,-86.23 1535,-69.5 1546.17,-53.27 1564.03,-41.83 1581.64,-33.9"/>
<polygon fill="#63b8ff" stroke="#63b8ff" points="1517.77,-127.42 1521.77,-137.23 1524.76,-127.07 1517.77,-127.42"/>
</a>
</g>
</g>
<!-- Node16&#45;&gt;Node20 -->
<g id="edge22_Node000016_Node000020" class="edge">
<title>Node16&#45;&gt;Node20</title>
<g id="a_edge22_Node000016_Node000020"><a xlink:title=" ">
<path fill="none" stroke="#63b8ff" d="M1568.38,-132.25C1583.14,-122.43 1599.1,-111.81 1611.8,-103.35"/>
<polygon fill="#63b8ff" stroke="#63b8ff" points="1566.55,-129.27 1560.17,-137.72 1570.43,-135.09 1566.55,-129.27"/>
</a>
</g>
</g>
<!-- Node20&#45;&gt;Node17 -->
<g id="edge23_Node000020_Node000017" class="edge">
<title>Node20&#45;&gt;Node17</title>
<g id="a_edge23_Node000020_Node000017"><a xlink:title=" ">
<path fill="none" stroke="#63b8ff" d="M1636,-57.81C1636,-49.59 1636,-40.84 1636,-33.63"/>
<polygon fill="#63b8ff" stroke="#63b8ff" points="1632.5,-57.74 1636,-67.74 1639.5,-57.74 1632.5,-57.74"/>
</a>
</g>
</g>
</g>
</svg>
