<?xml version="1.0" encoding="UTF-8" standalone="no"?>
<!DOCTYPE svg PUBLIC "-//W3C//DTD SVG 1.1//EN"
 "http://www.w3.org/Graphics/SVG/1.1/DTD/svg11.dtd">
<!-- Generated by graphviz version 12.2.1 (20241206.2353)
 -->
<!-- Title: ToggleButton::Read_Internal Pages: 1 -->
<svg width="422pt" height="42pt"
 viewBox="0.00 0.00 422.00 41.50" xmlns="http://www.w3.org/2000/svg" xmlns:xlink="http://www.w3.org/1999/xlink">
<g id="graph0" class="graph" transform="scale(1 1) rotate(0) translate(4 37.5)">
<title>ToggleButton::Read_Internal</title>
<!-- Node1 -->
<g id="Node000001" class="node">
<title>Node1</title>
<g id="a_Node000001"><a xlink:title=" ">
<polygon fill="#999999" stroke="#666666" points="414,-33.5 303.5,-33.5 303.5,0 414,0 414,-33.5"/>
<text text-anchor="start" x="311.5" y="-20" font-family="Helvetica,sans-Serif" font-size="10.00">ToggleButton::Read</text>
<text text-anchor="middle" x="358.75" y="-7.25" font-family="Helvetica,sans-Serif" font-size="10.00">_Internal</text>
</a>
</g>
</g>
<!-- Node2 -->
<g id="Node000002" class="node">
<title>Node2</title>
<g id="a_Node000002"><a xlink:href="../../d8/ddd/class_toggle_button.html#ae1977ade86af1a8cd8c2a2dec156ef5c" target="_top" xlink:title=" ">
<polygon fill="white" stroke="#666666" points="267.5,-27.12 146.5,-27.12 146.5,-6.38 267.5,-6.38 267.5,-27.12"/>
<text text-anchor="middle" x="207" y="-13.62" font-family="Helvetica,sans-Serif" font-size="10.00">ToggleButton::Update</text>
</a>
</g>
</g>
<!-- Node1&#45;&gt;Node2 -->
<g id="edge1_Node000001_Node000002" class="edge">
<title>Node1&#45;&gt;Node2</title>
<g id="a_edge1_Node000001_Node000002"><a xlink:title=" ">
<path fill="none" stroke="#63b8ff" d="M292,-16.75C283.93,-16.75 275.73,-16.75 267.76,-16.75"/>
<polygon fill="#63b8ff" stroke="#63b8ff" points="291.75,-20.25 301.75,-16.75 291.75,-13.25 291.75,-20.25"/>
</a>
</g>
</g>
<!-- Node3 -->
<g id="Node000003" class="node">
<title>Node3</title>
<g id="a_Node000003"><a xlink:href="../../d8/ddd/class_toggle_button.html#ad4bd7a41c9910536af48054e50786deb" target="_top" xlink:title=" ">
<polygon fill="white" stroke="#666666" points="110.5,-27.12 0,-27.12 0,-6.38 110.5,-6.38 110.5,-27.12"/>
<text text-anchor="middle" x="55.25" y="-13.62" font-family="Helvetica,sans-Serif" font-size="10.00">ToggleButton::Read</text>
</a>
</g>
</g>
<!-- Node2&#45;&gt;Node3 -->
<g id="edge2_Node000002_Node000003" class="edge">
<title>Node2&#45;&gt;Node3</title>
<g id="a_edge2_Node000002_Node000003"><a xlink:title=" ">
<path fill="none" stroke="#63b8ff" d="M134.98,-16.75C126.85,-16.75 118.67,-16.75 110.8,-16.75"/>
<polygon fill="#63b8ff" stroke="#63b8ff" points="134.87,-20.25 144.87,-16.75 134.87,-13.25 134.87,-20.25"/>
</a>
</g>
</g>
</g>
</svg>
