<?xml version="1.0" encoding="UTF-8" standalone="no"?>
<!DOCTYPE svg PUBLIC "-//W3C//DTD SVG 1.1//EN"
 "http://www.w3.org/Graphics/SVG/1.1/DTD/svg11.dtd">
<!-- Generated by graphviz version 12.2.1 (20241206.2353)
 -->
<!-- Title: /home/runner/work/FastLED/FastLED/src/lib8tion/scale8.h Pages: 1 -->
<svg width="541pt" height="212pt"
 viewBox="0.00 0.00 541.43 211.75" xmlns="http://www.w3.org/2000/svg" xmlns:xlink="http://www.w3.org/1999/xlink">
<g id="graph0" class="graph" transform="scale(1 1) rotate(0) translate(4 207.75)">
<title>/home/runner/work/FastLED/FastLED/src/lib8tion/scale8.h</title>
<!-- Node1 -->
<g id="Node000001" class="node">
<title>Node1</title>
<g id="a_Node000001"><a xlink:title="Fast, efficient 8&#45;bit scaling functions specifically designed for high&#45;performance LED programming.">
<polygon fill="#999999" stroke="#666666" points="404.72,-203.75 246.97,-203.75 246.97,-170.25 404.72,-170.25 404.72,-203.75"/>
<text text-anchor="start" x="254.97" y="-190.25" font-family="Helvetica,sans-Serif" font-size="10.00">/home/runner/work/FastLED</text>
<text text-anchor="middle" x="325.85" y="-177.5" font-family="Helvetica,sans-Serif" font-size="10.00">/FastLED/src/lib8tion/scale8.h</text>
</a>
</g>
</g>
<!-- Node2 -->
<g id="Node000002" class="node">
<title>Node2</title>
<g id="a_Node000002"><a xlink:href="../../d4/d7a/lib8static_8h.html" target="_top" xlink:title="Defines static inlining macros for lib8tion functions.">
<polygon fill="white" stroke="#666666" points="284.85,-134.25 214.85,-134.25 214.85,-113.5 284.85,-113.5 284.85,-134.25"/>
<text text-anchor="middle" x="249.85" y="-120.75" font-family="Helvetica,sans-Serif" font-size="10.00">lib8static.h</text>
</a>
</g>
</g>
<!-- Node1&#45;&gt;Node2 -->
<g id="edge1_Node000001_Node000002" class="edge">
<title>Node1&#45;&gt;Node2</title>
<g id="a_edge1_Node000001_Node000002"><a xlink:title=" ">
<path fill="none" stroke="#63b8ff" d="M305.88,-169.94C295.13,-161.3 281.87,-150.63 270.96,-141.85"/>
<polygon fill="#63b8ff" stroke="#63b8ff" points="273.25,-139.21 263.26,-135.67 268.86,-144.66 273.25,-139.21"/>
</a>
</g>
</g>
<!-- Node3 -->
<g id="Node000003" class="node">
<title>Node3</title>
<g id="a_Node000003"><a xlink:href="../../db/dd1/crgb_8h.html" target="_top" xlink:title="Defines the red, green, and blue (RGB) pixel struct.">
<polygon fill="white" stroke="#666666" points="348.85,-134.25 302.85,-134.25 302.85,-113.5 348.85,-113.5 348.85,-134.25"/>
<text text-anchor="middle" x="325.85" y="-120.75" font-family="Helvetica,sans-Serif" font-size="10.00">crgb.h</text>
</a>
</g>
</g>
<!-- Node1&#45;&gt;Node3 -->
<g id="edge2_Node000001_Node000003" class="edge">
<title>Node1&#45;&gt;Node3</title>
<g id="a_edge2_Node000001_Node000003"><a xlink:title=" ">
<path fill="none" stroke="#63b8ff" d="M325.85,-169.94C325.85,-162.6 325.85,-153.82 325.85,-145.96"/>
<polygon fill="#63b8ff" stroke="#63b8ff" points="329.35,-146.23 325.85,-136.23 322.35,-146.23 329.35,-146.23"/>
</a>
</g>
</g>
<!-- Node6 -->
<g id="Node000006" class="node">
<title>Node6</title>
<g id="a_Node000006"><a xlink:href="../../df/d2a/namespace_8h.html" target="_top" xlink:title="Implements the FastLED namespace macros.">
<polygon fill="white" stroke="#666666" points="451.97,-20.75 361.72,-20.75 361.72,0 451.97,0 451.97,-20.75"/>
<text text-anchor="middle" x="406.85" y="-7.25" font-family="Helvetica,sans-Serif" font-size="10.00">fl/namespace.h</text>
</a>
</g>
</g>
<!-- Node1&#45;&gt;Node6 -->
<g id="edge17_Node000001_Node000006" class="edge">
<title>Node1&#45;&gt;Node6</title>
<g id="a_edge17_Node000001_Node000006"><a xlink:title=" ">
<path fill="none" stroke="#63b8ff" d="M392.41,-169.89C439.57,-154.63 499.47,-126.51 528.85,-77.5 547.19,-46.9 503.49,-29.58 463.39,-20.41"/>
<polygon fill="#63b8ff" stroke="#63b8ff" points="464.22,-17.01 453.71,-18.35 462.76,-23.85 464.22,-17.01"/>
</a>
</g>
</g>
<!-- Node4 -->
<g id="Node000004" class="node">
<title>Node4</title>
<g id="a_Node000004"><a xlink:title=" ">
<polygon fill="#e0e0e0" stroke="#999999" points="241.22,-20.75 188.47,-20.75 188.47,0 241.22,0 241.22,-20.75"/>
<text text-anchor="middle" x="214.85" y="-7.25" font-family="Helvetica,sans-Serif" font-size="10.00">stdint.h</text>
</a>
</g>
</g>
<!-- Node3&#45;&gt;Node4 -->
<g id="edge3_Node000003_Node000004" class="edge">
<title>Node3&#45;&gt;Node4</title>
<g id="a_edge3_Node000003_Node000004"><a xlink:title=" ">
<path fill="none" stroke="#63b8ff" d="M302.54,-115.58C299.63,-114.81 296.68,-114.09 293.85,-113.5 231.57,-100.52 51.91,-125.23 9.85,-77.5 -38.28,-22.88 105.32,-13.09 176.89,-11.54"/>
<polygon fill="#63b8ff" stroke="#63b8ff" points="176.68,-15.04 186.62,-11.37 176.56,-8.04 176.68,-15.04"/>
</a>
</g>
</g>
<!-- Node5 -->
<g id="Node000005" class="node">
<title>Node5</title>
<g id="a_Node000005"><a xlink:href="../../d8/dd0/chsv_8h.html" target="_top" xlink:title="Defines the hue, saturation, and value (HSV) pixel struct.">
<polygon fill="white" stroke="#666666" points="306.22,-77.5 259.47,-77.5 259.47,-56.75 306.22,-56.75 306.22,-77.5"/>
<text text-anchor="middle" x="282.85" y="-64" font-family="Helvetica,sans-Serif" font-size="10.00">chsv.h</text>
</a>
</g>
</g>
<!-- Node3&#45;&gt;Node5 -->
<g id="edge4_Node000003_Node000005" class="edge">
<title>Node3&#45;&gt;Node5</title>
<g id="a_edge4_Node000003_Node000005"><a xlink:title=" ">
<path fill="none" stroke="#63b8ff" d="M318.16,-113.09C312.41,-105.77 304.38,-95.54 297.43,-86.69"/>
<polygon fill="#63b8ff" stroke="#63b8ff" points="300.33,-84.72 291.4,-79.02 294.83,-89.05 300.33,-84.72"/>
</a>
</g>
</g>
<!-- Node3&#45;&gt;Node6 -->
<g id="edge7_Node000003_Node000006" class="edge">
<title>Node3&#45;&gt;Node6</title>
<g id="a_edge7_Node000003_Node000006"><a xlink:title=" ">
<path fill="none" stroke="#63b8ff" d="M348.96,-119.53C372.62,-114.74 408.2,-103.44 424.85,-77.5 433.96,-63.3 427.45,-44.53 419.83,-30.62"/>
<polygon fill="#63b8ff" stroke="#63b8ff" points="423,-29.1 414.81,-22.38 417.02,-32.74 423,-29.1"/>
</a>
</g>
</g>
<!-- Node7 -->
<g id="Node000007" class="node">
<title>Node7</title>
<g id="a_Node000007"><a xlink:href="../../d2/d6b/src_2color_8h.html" target="_top" xlink:title="Contains definitions for color correction and temperature.">
<polygon fill="white" stroke="#666666" points="519.97,-77.5 471.72,-77.5 471.72,-56.75 519.97,-56.75 519.97,-77.5"/>
<text text-anchor="middle" x="495.85" y="-64" font-family="Helvetica,sans-Serif" font-size="10.00">color.h</text>
</a>
</g>
</g>
<!-- Node3&#45;&gt;Node7 -->
<g id="edge8_Node000003_Node000007" class="edge">
<title>Node3&#45;&gt;Node7</title>
<g id="a_edge8_Node000003_Node000007"><a xlink:title=" ">
<path fill="none" stroke="#63b8ff" d="M349.13,-115.38C377.97,-106.09 427.37,-90.18 460.8,-79.41"/>
<polygon fill="#63b8ff" stroke="#63b8ff" points="461.59,-82.84 470.03,-76.44 459.44,-76.17 461.59,-82.84"/>
</a>
</g>
</g>
<!-- Node8 -->
<g id="Node000008" class="node">
<title>Node8</title>
<g id="a_Node000008"><a xlink:href="../../d9/ddf/lib8tion_2types_8h.html" target="_top" xlink:title="Defines fractional types used for lib8tion functions.">
<polygon fill="white" stroke="#666666" points="415.72,-77.5 323.97,-77.5 323.97,-56.75 415.72,-56.75 415.72,-77.5"/>
<text text-anchor="middle" x="369.85" y="-64" font-family="Helvetica,sans-Serif" font-size="10.00">lib8tion/types.h</text>
</a>
</g>
</g>
<!-- Node3&#45;&gt;Node8 -->
<g id="edge10_Node000003_Node000008" class="edge">
<title>Node3&#45;&gt;Node8</title>
<g id="a_edge10_Node000003_Node000008"><a xlink:title=" ">
<path fill="none" stroke="#63b8ff" d="M333.71,-113.09C339.59,-105.77 347.81,-95.54 354.93,-86.69"/>
<polygon fill="#63b8ff" stroke="#63b8ff" points="357.56,-89 361.1,-79.01 352.11,-84.61 357.56,-89"/>
</a>
</g>
</g>
<!-- Node9 -->
<g id="Node000009" class="node">
<title>Node9</title>
<g id="a_Node000009"><a xlink:href="../../d8/d2d/fl_2force__inline_8h.html" target="_top" xlink:title=" ">
<polygon fill="white" stroke="#666666" points="241.35,-77.5 150.35,-77.5 150.35,-56.75 241.35,-56.75 241.35,-77.5"/>
<text text-anchor="middle" x="195.85" y="-64" font-family="Helvetica,sans-Serif" font-size="10.00">fl/force_inline.h</text>
</a>
</g>
</g>
<!-- Node3&#45;&gt;Node9 -->
<g id="edge13_Node000003_Node000009" class="edge">
<title>Node3&#45;&gt;Node9</title>
<g id="a_edge13_Node000003_Node000009"><a xlink:title=" ">
<path fill="none" stroke="#63b8ff" d="M302.6,-113.09C282.18,-104.48 252.21,-91.86 229.22,-82.18"/>
<polygon fill="#63b8ff" stroke="#63b8ff" points="230.86,-79.07 220.28,-78.42 228.14,-85.52 230.86,-79.07"/>
</a>
</g>
</g>
<!-- Node10 -->
<g id="Node000010" class="node">
<title>Node10</title>
<g id="a_Node000010"><a xlink:href="../../d8/d0c/template__magic_8h.html" target="_top" xlink:title=" ">
<polygon fill="white" stroke="#666666" points="132.6,-77.5 19.1,-77.5 19.1,-56.75 132.6,-56.75 132.6,-77.5"/>
<text text-anchor="middle" x="75.85" y="-64" font-family="Helvetica,sans-Serif" font-size="10.00">fl/template_magic.h</text>
</a>
</g>
</g>
<!-- Node3&#45;&gt;Node10 -->
<g id="edge14_Node000003_Node000010" class="edge">
<title>Node3&#45;&gt;Node10</title>
<g id="a_edge14_Node000003_Node000010"><a xlink:title=" ">
<path fill="none" stroke="#63b8ff" d="M302.49,-115.8C299.59,-114.99 296.65,-114.2 293.85,-113.5 242.55,-100.67 183.84,-88.6 140.28,-80.13"/>
<polygon fill="#63b8ff" stroke="#63b8ff" points="140.94,-76.7 130.46,-78.24 139.62,-83.57 140.94,-76.7"/>
</a>
</g>
</g>
<!-- Node5&#45;&gt;Node4 -->
<g id="edge5_Node000005_Node000004" class="edge">
<title>Node5&#45;&gt;Node4</title>
<g id="a_edge5_Node000005_Node000004"><a xlink:title=" ">
<path fill="none" stroke="#63b8ff" d="M270.69,-56.34C261.02,-48.55 247.26,-37.47 235.82,-28.26"/>
<polygon fill="#63b8ff" stroke="#63b8ff" points="238.06,-25.57 228.08,-22.03 233.67,-31.03 238.06,-25.57"/>
</a>
</g>
</g>
<!-- Node5&#45;&gt;Node6 -->
<g id="edge6_Node000005_Node000006" class="edge">
<title>Node5&#45;&gt;Node6</title>
<g id="a_edge6_Node000005_Node000006"><a xlink:title=" ">
<path fill="none" stroke="#63b8ff" d="M305.01,-56.34C324.32,-47.81 352.57,-35.34 374.42,-25.69"/>
<polygon fill="#63b8ff" stroke="#63b8ff" points="375.75,-28.93 383.48,-21.69 372.92,-22.53 375.75,-28.93"/>
</a>
</g>
</g>
<!-- Node7&#45;&gt;Node6 -->
<g id="edge9_Node000007_Node000006" class="edge">
<title>Node7&#45;&gt;Node6</title>
<g id="a_edge9_Node000007_Node000006"><a xlink:title=" ">
<path fill="none" stroke="#63b8ff" d="M479.93,-56.34C466.65,-48.16 447.46,-36.36 432.08,-26.9"/>
<polygon fill="#63b8ff" stroke="#63b8ff" points="434.26,-24.13 423.91,-21.87 430.59,-30.09 434.26,-24.13"/>
</a>
</g>
</g>
<!-- Node8&#45;&gt;Node4 -->
<g id="edge11_Node000008_Node000004" class="edge">
<title>Node8&#45;&gt;Node4</title>
<g id="a_edge11_Node000008_Node000004"><a xlink:title=" ">
<path fill="none" stroke="#63b8ff" d="M342.14,-56.34C317.11,-47.5 280.07,-34.41 252.39,-24.64"/>
<polygon fill="#63b8ff" stroke="#63b8ff" points="253.56,-21.34 242.97,-21.31 251.23,-27.94 253.56,-21.34"/>
</a>
</g>
</g>
<!-- Node8&#45;&gt;Node6 -->
<g id="edge12_Node000008_Node000006" class="edge">
<title>Node8&#45;&gt;Node6</title>
<g id="a_edge12_Node000008_Node000006"><a xlink:title=" ">
<path fill="none" stroke="#63b8ff" d="M376.46,-56.34C381.3,-49.17 388.02,-39.23 393.92,-30.51"/>
<polygon fill="#63b8ff" stroke="#63b8ff" points="396.74,-32.58 399.44,-22.33 390.94,-28.66 396.74,-32.58"/>
</a>
</g>
</g>
<!-- Node10&#45;&gt;Node4 -->
<g id="edge15_Node000010_Node000004" class="edge">
<title>Node10&#45;&gt;Node4</title>
<g id="a_edge15_Node000010_Node000004"><a xlink:title=" ">
<path fill="none" stroke="#63b8ff" d="M100.7,-56.34C122.74,-47.66 155.16,-34.88 179.83,-25.17"/>
<polygon fill="#63b8ff" stroke="#63b8ff" points="180.78,-28.55 188.8,-21.63 178.22,-22.04 180.78,-28.55"/>
</a>
</g>
</g>
<!-- Node10&#45;&gt;Node6 -->
<g id="edge16_Node000010_Node000006" class="edge">
<title>Node10&#45;&gt;Node6</title>
<g id="a_edge16_Node000010_Node000006"><a xlink:title=" ">
<path fill="none" stroke="#63b8ff" d="M132.75,-56.71C193.52,-46.66 289.28,-30.82 350.03,-20.77"/>
<polygon fill="#63b8ff" stroke="#63b8ff" points="350.53,-24.24 359.83,-19.15 349.39,-17.33 350.53,-24.24"/>
</a>
</g>
</g>
</g>
</svg>
