<?xml version="1.0" encoding="UTF-8" standalone="no"?>
<!DOCTYPE svg PUBLIC "-//W3C//DTD SVG 1.1//EN"
 "http://www.w3.org/Graphics/SVG/1.1/DTD/svg11.dtd">
<!-- Generated by graphviz version 12.2.1 (20241206.2353)
 -->
<!-- Title: wu_water Pages: 1 -->
<svg width="153pt" height="68pt"
 viewBox="0.00 0.00 153.25 67.75" xmlns="http://www.w3.org/2000/svg" xmlns:xlink="http://www.w3.org/1999/xlink">
<g id="graph0" class="graph" transform="scale(1 1) rotate(0) translate(4 63.75)">
<title>wu_water</title>
<!-- Node1 -->
<g id="Node000001" class="node">
<title>Node1</title>
<g id="a_Node000001"><a xlink:title=" ">
<polygon fill="#999999" stroke="#666666" points="63.25,-39.75 0,-39.75 0,-19 63.25,-19 63.25,-39.75"/>
<text text-anchor="middle" x="31.62" y="-26.25" font-family="Helvetica,sans-Serif" font-size="10.00">wu_water</text>
</a>
</g>
</g>
<!-- Node2 -->
<g id="Node000002" class="node">
<title>Node2</title>
<g id="a_Node000002"><a xlink:href="../../d5/d98/group___math.html#ga07133b3085824d0fcd4f5086d286c4b5" target="_top" xlink:title="Add one byte to another, saturating at 0xFF.">
<polygon fill="white" stroke="#666666" points="145.25,-59.75 99.25,-59.75 99.25,-39 145.25,-39 145.25,-59.75"/>
<text text-anchor="middle" x="122.25" y="-46.25" font-family="Helvetica,sans-Serif" font-size="10.00">qadd8</text>
</a>
</g>
</g>
<!-- Node1&#45;&gt;Node2 -->
<g id="edge1_Node000001_Node000002" class="edge">
<title>Node1&#45;&gt;Node2</title>
<g id="a_edge1_Node000001_Node000002"><a xlink:title=" ">
<path fill="none" stroke="#63b8ff" d="M63.62,-36.37C71.4,-38.13 79.79,-40.02 87.69,-41.8"/>
<polygon fill="#63b8ff" stroke="#63b8ff" points="86.78,-45.19 97.31,-43.97 88.33,-38.36 86.78,-45.19"/>
</a>
</g>
</g>
<!-- Node3 -->
<g id="Node000003" class="node">
<title>Node3</title>
<g id="a_Node000003"><a xlink:href="../../d7/dfa/_p_j_r_c_spectrum_analyzer_8ino.html#a310eea447890e3471c6b27fd79dc94fc" target="_top" xlink:title=" ">
<polygon fill="white" stroke="#666666" points="136.65,-20.75 107.85,-20.75 107.85,0 136.65,0 136.65,-20.75"/>
<text text-anchor="middle" x="122.25" y="-7.25" font-family="Helvetica,sans-Serif" font-size="10.00">xy</text>
</a>
</g>
</g>
<!-- Node1&#45;&gt;Node3 -->
<g id="edge2_Node000001_Node000003" class="edge">
<title>Node1&#45;&gt;Node3</title>
<g id="a_edge2_Node000001_Node000003"><a xlink:title=" ">
<path fill="none" stroke="#63b8ff" d="M63.62,-22.73C74.38,-20.42 86.3,-17.87 96.5,-15.68"/>
<polygon fill="#63b8ff" stroke="#63b8ff" points="96.97,-19.16 106.01,-13.64 95.5,-12.32 96.97,-19.16"/>
</a>
</g>
</g>
</g>
</svg>
