<?xml version="1.0" encoding="UTF-8" standalone="no"?>
<!DOCTYPE svg PUBLIC "-//W3C//DTD SVG 1.1//EN"
 "http://www.w3.org/Graphics/SVG/1.1/DTD/svg11.dtd">
<!-- Generated by graphviz version 12.2.1 (20241206.2353)
 -->
<!-- Title: MyColorFromPaletteExtended Pages: 1 -->
<svg width="617pt" height="153pt"
 viewBox="0.00 0.00 616.75 152.90" xmlns="http://www.w3.org/2000/svg" xmlns:xlink="http://www.w3.org/1999/xlink">
<g id="graph0" class="graph" transform="scale(1 1) rotate(0) translate(4 148.9)">
<title>MyColorFromPaletteExtended</title>
<!-- Node1 -->
<g id="Node000001" class="node">
<title>Node1</title>
<g id="a_Node000001"><a xlink:title=" ">
<polygon fill="#999999" stroke="#666666" points="160.75,-56.54 0,-56.54 0,-35.79 160.75,-35.79 160.75,-56.54"/>
<text text-anchor="middle" x="80.38" y="-43.04" font-family="Helvetica,sans-Serif" font-size="10.00">MyColorFromPaletteExtended</text>
</a>
</g>
</g>
<!-- Node2 -->
<g id="Node000002" class="node">
<title>Node2</title>
<g id="a_Node000002"><a xlink:href="../../dc/db8/group___color_blends.html#ga4f06b4423f71f77346aaf5dabe7dd05c" target="_top" xlink:title="Computes a new color blended some fraction of the way between two other colors.">
<polygon fill="white" stroke="#666666" points="239.75,-94.54 196.75,-94.54 196.75,-73.79 239.75,-73.79 239.75,-94.54"/>
<text text-anchor="middle" x="218.25" y="-81.04" font-family="Helvetica,sans-Serif" font-size="10.00">blend</text>
</a>
</g>
</g>
<!-- Node1&#45;&gt;Node2 -->
<g id="edge1_Node000001_Node000002" class="edge">
<title>Node1&#45;&gt;Node2</title>
<g id="a_edge1_Node000001_Node000002"><a xlink:title=" ">
<path fill="none" stroke="#63b8ff" d="M119.95,-56.95C140.58,-62.72 165.68,-69.74 185.22,-75.2"/>
<polygon fill="#63b8ff" stroke="#63b8ff" points="184.26,-78.57 194.83,-77.89 186.14,-71.83 184.26,-78.57"/>
</a>
</g>
</g>
<!-- Node5 -->
<g id="Node000005" class="node">
<title>Node5</title>
<g id="a_Node000005"><a xlink:href="../../d0/da5/group___scaling_dirty.html#ga3fade00fb4cf5b937b973128198a7a79" target="_top" xlink:title="Clean up the r1 register after a series of *LEAVING_R1_DIRTY calls.">
<polygon fill="white" stroke="#666666" points="571.62,-122.54 499.38,-122.54 499.38,-101.79 571.62,-101.79 571.62,-122.54"/>
<text text-anchor="middle" x="535.5" y="-109.04" font-family="Helvetica,sans-Serif" font-size="10.00">cleanup_R1</text>
</a>
</g>
</g>
<!-- Node1&#45;&gt;Node5 -->
<g id="edge8_Node000001_Node000005" class="edge">
<title>Node1&#45;&gt;Node5</title>
<g id="a_edge8_Node000001_Node000005"><a xlink:title=" ">
<path fill="none" stroke="#63b8ff" d="M99.57,-56.85C121.82,-69.51 160.95,-90.48 196.75,-103.16 294.14,-137.65 323.76,-153.2 426.25,-140.16 447.82,-137.42 471.24,-131.71 490.76,-126.17"/>
<polygon fill="#63b8ff" stroke="#63b8ff" points="491.7,-129.54 500.31,-123.37 489.73,-122.82 491.7,-129.54"/>
</a>
</g>
</g>
<!-- Node6 -->
<g id="Node000006" class="node">
<title>Node6</title>
<g id="a_Node000006"><a xlink:href="../../d0/da5/group___scaling_dirty.html#ga7386235cada3aca429b189681d2ec56d" target="_top" xlink:title="This version of scale8() does not clean up the R1 register on AVR.">
<polygon fill="white" stroke="#666666" points="608.75,-65.54 462.25,-65.54 462.25,-44.79 608.75,-44.79 608.75,-65.54"/>
<text text-anchor="middle" x="535.5" y="-52.04" font-family="Helvetica,sans-Serif" font-size="10.00">scale8_LEAVING_R1_DIRTY</text>
</a>
</g>
</g>
<!-- Node1&#45;&gt;Node6 -->
<g id="edge12_Node000001_Node000006" class="edge">
<title>Node1&#45;&gt;Node6</title>
<g id="a_edge12_Node000001_Node000006"><a xlink:title=" ">
<path fill="none" stroke="#63b8ff" d="M115.49,-35.39C177.78,-17.26 313.9,15.18 426.25,-8.16 454.74,-14.08 484.93,-27.89 506.17,-39.02"/>
<polygon fill="#63b8ff" stroke="#63b8ff" points="504.32,-42 514.78,-43.67 507.64,-35.84 504.32,-42"/>
</a>
</g>
</g>
<!-- Node7 -->
<g id="Node000007" class="node">
<title>Node7</title>
<g id="a_Node000007"><a xlink:href="../../d0/da8/group___scaling.html#ga39bf87e5526120889086cab19ac749b1" target="_top" xlink:title="Scale three one&#45;byte values by a fourth one, which is treated as the numerator of a fraction whose de...">
<polygon fill="white" stroke="#666666" points="426.25,-37.54 360.75,-37.54 360.75,-16.79 426.25,-16.79 426.25,-37.54"/>
<text text-anchor="middle" x="393.5" y="-24.04" font-family="Helvetica,sans-Serif" font-size="10.00">nscale8x3</text>
</a>
</g>
</g>
<!-- Node1&#45;&gt;Node7 -->
<g id="edge9_Node000001_Node000007" class="edge">
<title>Node1&#45;&gt;Node7</title>
<g id="a_edge9_Node000001_Node000007"><a xlink:title=" ">
<path fill="none" stroke="#63b8ff" d="M161.09,-41.29C220.97,-37.64 300.7,-32.77 349.22,-29.8"/>
<polygon fill="#63b8ff" stroke="#63b8ff" points="349.28,-33.31 359.05,-29.2 348.86,-26.32 349.28,-33.31"/>
</a>
</g>
</g>
<!-- Node3 -->
<g id="Node000003" class="node">
<title>Node3</title>
<g id="a_Node000003"><a xlink:href="../../dc/db8/group___color_blends.html#ga325120664a9c9b41abceee65303b0c4e" target="_top" xlink:title="Destructively modifies one color, blending in a given fraction of an overlay color.">
<polygon fill="white" stroke="#666666" points="324.75,-94.54 275.75,-94.54 275.75,-73.79 324.75,-73.79 324.75,-94.54"/>
<text text-anchor="middle" x="300.25" y="-81.04" font-family="Helvetica,sans-Serif" font-size="10.00">nblend</text>
</a>
</g>
</g>
<!-- Node2&#45;&gt;Node3 -->
<g id="edge2_Node000002_Node000003" class="edge">
<title>Node2&#45;&gt;Node3</title>
<g id="a_edge2_Node000002_Node000003"><a xlink:title=" ">
<path fill="none" stroke="#63b8ff" d="M239.85,-84.16C247.22,-84.16 255.74,-84.16 263.98,-84.16"/>
<polygon fill="#63b8ff" stroke="#63b8ff" points="263.8,-87.66 273.8,-84.16 263.8,-80.66 263.8,-87.66"/>
</a>
</g>
</g>
<!-- Node4 -->
<g id="Node000004" class="node">
<title>Node4</title>
<g id="a_Node000004"><a xlink:href="../../d5/d98/group___math.html#ga9a604de042246d6c87fdbfdd5578f377" target="_top" xlink:title="Blend a variable proportion (0&#45;255) of one byte to another.">
<polygon fill="white" stroke="#666666" points="418,-113.54 369,-113.54 369,-92.79 418,-92.79 418,-113.54"/>
<text text-anchor="middle" x="393.5" y="-100.04" font-family="Helvetica,sans-Serif" font-size="10.00">blend8</text>
</a>
</g>
</g>
<!-- Node3&#45;&gt;Node4 -->
<g id="edge3_Node000003_Node000004" class="edge">
<title>Node3&#45;&gt;Node4</title>
<g id="a_edge3_Node000003_Node000004"><a xlink:title=" ">
<path fill="none" stroke="#63b8ff" d="M325.22,-89.15C335.07,-91.2 346.68,-93.62 357.45,-95.86"/>
<polygon fill="#63b8ff" stroke="#63b8ff" points="356.7,-99.28 367.2,-97.89 358.13,-92.43 356.7,-99.28"/>
</a>
</g>
</g>
<!-- Node3&#45;&gt;Node5 -->
<g id="edge6_Node000003_Node000005" class="edge">
<title>Node3&#45;&gt;Node5</title>
<g id="a_edge6_Node000003_Node000005"><a xlink:title=" ">
<path fill="none" stroke="#63b8ff" d="M313.43,-94.93C324.78,-104.19 342.63,-116.87 360.75,-122.16 402.62,-134.39 452.53,-129.65 488.09,-123.18"/>
<polygon fill="#63b8ff" stroke="#63b8ff" points="488.47,-126.68 497.62,-121.33 487.13,-119.8 488.47,-126.68"/>
</a>
</g>
</g>
<!-- Node3&#45;&gt;Node6 -->
<g id="edge7_Node000003_Node000006" class="edge">
<title>Node3&#45;&gt;Node6</title>
<g id="a_edge7_Node000003_Node000006"><a xlink:title=" ">
<path fill="none" stroke="#63b8ff" d="M324.9,-81.22C354.26,-77.57 405.93,-71.15 450.62,-65.59"/>
<polygon fill="#63b8ff" stroke="#63b8ff" points="450.82,-69.09 460.32,-64.39 449.96,-62.15 450.82,-69.09"/>
</a>
</g>
</g>
<!-- Node4&#45;&gt;Node5 -->
<g id="edge4_Node000004_Node000005" class="edge">
<title>Node4&#45;&gt;Node5</title>
<g id="a_edge4_Node000004_Node000005"><a xlink:title=" ">
<path fill="none" stroke="#63b8ff" d="M418.25,-104.69C437.2,-105.91 464.34,-107.65 487.64,-109.15"/>
<polygon fill="#63b8ff" stroke="#63b8ff" points="487.34,-112.64 497.54,-109.79 487.79,-105.65 487.34,-112.64"/>
</a>
</g>
</g>
<!-- Node4&#45;&gt;Node6 -->
<g id="edge5_Node000004_Node000006" class="edge">
<title>Node4&#45;&gt;Node6</title>
<g id="a_edge5_Node000004_Node000006"><a xlink:title=" ">
<path fill="none" stroke="#63b8ff" d="M418.25,-95.02C438.48,-88.08 468.03,-77.95 492.28,-69.64"/>
<polygon fill="#63b8ff" stroke="#63b8ff" points="493.24,-73.01 501.56,-66.46 490.97,-66.39 493.24,-73.01"/>
</a>
</g>
</g>
<!-- Node7&#45;&gt;Node5 -->
<g id="edge10_Node000007_Node000005" class="edge">
<title>Node7&#45;&gt;Node5</title>
<g id="a_edge10_Node000007_Node000005"><a xlink:title=" ">
<path fill="none" stroke="#63b8ff" d="M408.96,-37.96C422.44,-47.85 443.28,-62.65 462.25,-74.16 475.03,-81.92 489.54,-89.73 502.19,-96.24"/>
<polygon fill="#63b8ff" stroke="#63b8ff" points="500.45,-99.28 510.95,-100.69 503.62,-93.04 500.45,-99.28"/>
</a>
</g>
</g>
<!-- Node7&#45;&gt;Node6 -->
<g id="edge11_Node000007_Node000006" class="edge">
<title>Node7&#45;&gt;Node6</title>
<g id="a_edge11_Node000007_Node000006"><a xlink:title=" ">
<path fill="none" stroke="#63b8ff" d="M426.62,-33.59C439.29,-36.12 454.34,-39.13 469.1,-42.08"/>
<polygon fill="#63b8ff" stroke="#63b8ff" points="468.32,-45.5 478.82,-44.03 469.7,-38.63 468.32,-45.5"/>
</a>
</g>
</g>
</g>
</svg>
