<?xml version="1.0" encoding="UTF-8" standalone="no"?>
<!DOCTYPE svg PUBLIC "-//W3C//DTD SVG 1.1//EN"
 "http://www.w3.org/Graphics/SVG/1.1/DTD/svg11.dtd">
<!-- Generated by graphviz version 12.2.1 (20241206.2353)
 -->
<!-- Title: APA102ControllerHD&lt; DATA_PIN, CLOCK_PIN, RGB_ORDER, SPI_SPEED &gt; Pages: 1 -->
<svg width="1586pt" height="228pt"
 viewBox="0.00 0.00 1586.00 228.38" xmlns="http://www.w3.org/2000/svg" xmlns:xlink="http://www.w3.org/1999/xlink">
<g id="graph0" class="graph" transform="scale(1 1) rotate(0) translate(4 224.38)">
<title>APA102ControllerHD&lt; DATA_PIN, CLOCK_PIN, RGB_ORDER, SPI_SPEED &gt;</title>
<!-- Node1 -->
<g id="Node000001" class="node">
<title>Node1</title>
<g id="a_Node000001"><a xlink:title="APA102 high definition controller class.">
<polygon fill="#999999" stroke="#666666" points="1578,-105.88 1429.25,-105.88 1429.25,-59.62 1578,-59.62 1578,-105.88"/>
<text text-anchor="start" x="1437.25" y="-92.38" font-family="Helvetica,sans-Serif" font-size="10.00">APA102ControllerHD</text>
<text text-anchor="start" x="1437.25" y="-79.62" font-family="Helvetica,sans-Serif" font-size="10.00">&lt; DATA_PIN, CLOCK_PIN,</text>
<text text-anchor="middle" x="1503.62" y="-66.88" font-family="Helvetica,sans-Serif" font-size="10.00"> RGB_ORDER, SPI_SPEED &gt;</text>
</a>
</g>
</g>
<!-- Node2 -->
<g id="Node000002" class="node">
<title>Node2</title>
<g id="a_Node000002"><a xlink:href="../../df/d0d/group___clocked_chipsets.html" target="_top" xlink:title=" ">
<polygon fill="white" stroke="#666666" points="1392.25,-125 1220.25,-125 1220.25,-40.5 1392.25,-40.5 1392.25,-125"/>
<text text-anchor="start" x="1228.25" y="-111.5" font-family="Helvetica,sans-Serif" font-size="10.00">APA102Controller&lt; DATA</text>
<text text-anchor="start" x="1228.25" y="-98.75" font-family="Helvetica,sans-Serif" font-size="10.00">_PIN, CLOCK_PIN, RGB,</text>
<text text-anchor="start" x="1228.25" y="-86" font-family="Helvetica,sans-Serif" font-size="10.00"> DATA_RATE_MHZ(6), fl::</text>
<text text-anchor="start" x="1228.25" y="-73.25" font-family="Helvetica,sans-Serif" font-size="10.00">kFiveBitGammaCorrectionMode</text>
<text text-anchor="start" x="1228.25" y="-60.5" font-family="Helvetica,sans-Serif" font-size="10.00">_BitShift, uint32_t(0x00000000)</text>
<text text-anchor="middle" x="1306.25" y="-47.75" font-family="Helvetica,sans-Serif" font-size="10.00">, uint32_t(0x00000000)&gt;</text>
</a>
</g>
</g>
<!-- Node2&#45;&gt;Node1 -->
<g id="edge1_Node000001_Node000002" class="edge">
<title>Node2&#45;&gt;Node1</title>
<g id="a_edge1_Node000001_Node000002"><a xlink:title=" ">
<path fill="none" stroke="#63b8ff" d="M1404.07,-82.75C1412.46,-82.75 1420.86,-82.75 1429.02,-82.75"/>
<polygon fill="#63b8ff" stroke="#63b8ff" points="1404.17,-79.25 1394.17,-82.75 1404.17,-86.25 1404.17,-79.25"/>
</a>
</g>
</g>
<!-- Node3 -->
<g id="Node000003" class="node">
<title>Node3</title>
<g id="a_Node000003"><a xlink:href="../../d0/dc9/class_c_pixel_l_e_d_controller.html" target="_top" xlink:title="Template extension of the CLEDController class.">
<polygon fill="white" stroke="#666666" points="780.5,-195.88 651.25,-195.88 651.25,-149.62 780.5,-149.62 780.5,-195.88"/>
<text text-anchor="start" x="659.25" y="-182.38" font-family="Helvetica,sans-Serif" font-size="10.00">CPixelLEDController</text>
<text text-anchor="start" x="659.25" y="-169.62" font-family="Helvetica,sans-Serif" font-size="10.00">&lt; RGB_ORDER, LANES,</text>
<text text-anchor="middle" x="715.88" y="-156.88" font-family="Helvetica,sans-Serif" font-size="10.00"> MASK &gt;</text>
</a>
</g>
</g>
<!-- Node3&#45;&gt;Node2 -->
<g id="edge2_Node000002_Node000003" class="edge">
<title>Node3&#45;&gt;Node2</title>
<g id="a_edge2_Node000002_Node000003"><a xlink:title=" ">
<path fill="none" stroke="#63b8ff" d="M792.04,-181.45C889.35,-190.02 1062.97,-196.04 1202.25,-150.75 1219.77,-145.05 1237.15,-135.51 1252.5,-125.34"/>
<polygon fill="#63b8ff" stroke="#63b8ff" points="792.63,-177.99 782.35,-180.56 791.99,-184.96 792.63,-177.99"/>
</a>
</g>
</g>
<!-- Node4 -->
<g id="Node000004" class="node">
<title>Node4</title>
<g id="a_Node000004"><a xlink:href="../../d6/d2c/class_c_l_e_d_controller.html" target="_top" xlink:title="Base definition for an LED controller.">
<polygon fill="#fff0f0" stroke="red" points="302.25,-164.12 212.75,-164.12 212.75,-143.38 302.25,-143.38 302.25,-164.12"/>
<text text-anchor="middle" x="257.5" y="-150.62" font-family="Helvetica,sans-Serif" font-size="10.00">CLEDController</text>
</a>
</g>
</g>
<!-- Node4&#45;&gt;Node3 -->
<g id="edge3_Node000003_Node000004" class="edge">
<title>Node4&#45;&gt;Node3</title>
<g id="a_edge3_Node000003_Node000004"><a xlink:title=" ">
<path fill="none" stroke="#63b8ff" d="M314,-156.29C325.02,-156.78 336.5,-157.29 347.25,-157.75 453.67,-162.32 577.43,-167.3 650.79,-170.22"/>
<polygon fill="#63b8ff" stroke="#63b8ff" points="314.4,-152.8 304.25,-155.85 314.08,-159.8 314.4,-152.8"/>
</a>
</g>
</g>
<!-- Node4&#45;&gt;Node4 -->
<g id="edge4_Node000004_Node000004" class="edge">
<title>Node4&#45;&gt;Node4</title>
<g id="a_edge4_Node000004_Node000004"><a xlink:title=" ">
<path fill="none" stroke="#9a32cd" stroke-dasharray="5,2" d="M241.81,-175.94C244.03,-179.6 249.26,-182.12 257.5,-182.12 273.01,-182.12 277.86,-173.18 272.04,-164.52"/>
<polygon fill="#9a32cd" stroke="#9a32cd" points="245.29,-176.33 242.81,-166.03 238.32,-175.63 245.29,-176.33"/>
</a>
</g>
<text text-anchor="middle" x="257.5" y="-210.88" font-family="Helvetica,sans-Serif" font-size="10.00" fill="grey"> m_pHead</text>
<text text-anchor="middle" x="257.5" y="-198.12" font-family="Helvetica,sans-Serif" font-size="10.00" fill="grey">m_pNext</text>
<text text-anchor="middle" x="257.5" y="-185.38" font-family="Helvetica,sans-Serif" font-size="10.00" fill="grey">m_pTail</text>
</g>
<!-- Node13 -->
<g id="Node000013" class="node">
<title>Node13</title>
<g id="a_Node000013"><a xlink:href="../../d0/dc9/class_c_pixel_l_e_d_controller.html" target="_top" xlink:title=" ">
<polygon fill="#fff0f0" stroke="red" points="618.25,-149.5 505.5,-149.5 505.5,-116 618.25,-116 618.25,-149.5"/>
<text text-anchor="start" x="513.5" y="-136" font-family="Helvetica,sans-Serif" font-size="10.00">CPixelLEDController</text>
<text text-anchor="middle" x="561.88" y="-123.25" font-family="Helvetica,sans-Serif" font-size="10.00">&lt; RGB &gt;</text>
</a>
</g>
</g>
<!-- Node4&#45;&gt;Node13 -->
<g id="edge11_Node000013_Node000004" class="edge">
<title>Node4&#45;&gt;Node13</title>
<g id="a_edge11_Node000013_Node000004"><a xlink:title=" ">
<path fill="none" stroke="#63b8ff" d="M313.95,-149.9C368.26,-146.13 450.57,-140.41 505.02,-136.63"/>
<polygon fill="#63b8ff" stroke="#63b8ff" points="313.71,-146.41 303.98,-150.59 314.2,-153.39 313.71,-146.41"/>
</a>
</g>
</g>
<!-- Node7 -->
<g id="Node000007" class="node">
<title>Node7</title>
<g id="a_Node000007"><a xlink:href="../../d3/d97/class_s_p_i_output.html" target="_top" xlink:title=" ">
<polygon fill="white" stroke="#666666" points="633.25,-33.5 490.5,-33.5 490.5,0 633.25,0 633.25,-33.5"/>
<text text-anchor="start" x="498.5" y="-20" font-family="Helvetica,sans-Serif" font-size="10.00">SPIOutput&lt; DATA_PIN,</text>
<text text-anchor="middle" x="561.88" y="-7.25" font-family="Helvetica,sans-Serif" font-size="10.00"> CLOCK_PIN, SPI_SPEED &gt;</text>
</a>
</g>
</g>
<!-- Node7&#45;&gt;Node2 -->
<g id="edge5_Node000002_Node000007" class="edge">
<title>Node7&#45;&gt;Node2</title>
<g id="a_edge5_Node000002_Node000007"><a xlink:title=" ">
<path fill="none" stroke="#9a32cd" stroke-dasharray="5,2" d="M644.98,-16.36C733.64,-16.69 878.92,-19.42 1003.5,-32 1076.97,-39.42 1159.61,-53.74 1219.81,-65.29"/>
<polygon fill="#9a32cd" stroke="#9a32cd" points="645.18,-12.86 635.17,-16.33 645.16,-19.86 645.18,-12.86"/>
</a>
</g>
<text text-anchor="middle" x="901" y="-35.25" font-family="Helvetica,sans-Serif" font-size="10.00" fill="grey"> mSPI</text>
</g>
<!-- Node8 -->
<g id="Node000008" class="node">
<title>Node8</title>
<g id="a_Node000008"><a xlink:href="../../dc/d57/class_a_v_r_software_s_p_i_output.html" target="_top" xlink:title=" ">
<polygon fill="#fff0f0" stroke="red" points="148.75,-73.88 0,-73.88 0,-27.62 148.75,-27.62 148.75,-73.88"/>
<text text-anchor="start" x="8" y="-60.38" font-family="Helvetica,sans-Serif" font-size="10.00">AVRSoftwareSPIOutput</text>
<text text-anchor="start" x="8" y="-47.62" font-family="Helvetica,sans-Serif" font-size="10.00">&lt; _DATA_PIN, _CLOCK_PIN,</text>
<text text-anchor="middle" x="74.38" y="-34.88" font-family="Helvetica,sans-Serif" font-size="10.00"> _SPI_CLOCK_DIVIDER &gt;</text>
</a>
</g>
</g>
<!-- Node8&#45;&gt;Node7 -->
<g id="edge6_Node000007_Node000008" class="edge">
<title>Node8&#45;&gt;Node7</title>
<g id="a_edge6_Node000007_Node000008"><a xlink:title=" ">
<path fill="none" stroke="#63b8ff" d="M157.82,-24.42C167.17,-22.16 176.61,-20.19 185.75,-18.75 290.77,-2.17 414.39,-5.92 490.19,-10.82"/>
<polygon fill="#63b8ff" stroke="#63b8ff" points="157.22,-20.96 148.39,-26.82 158.94,-27.75 157.22,-20.96"/>
</a>
</g>
</g>
<!-- Node11 -->
<g id="Node000011" class="node">
<title>Node11</title>
<g id="a_Node000011"><a xlink:href="../../d3/d97/class_s_p_i_output.html" target="_top" xlink:title="Hardware SPI output.">
<polygon fill="white" stroke="#666666" points="329.25,-73.88 185.75,-73.88 185.75,-27.62 329.25,-27.62 329.25,-73.88"/>
<text text-anchor="start" x="193.75" y="-60.38" font-family="Helvetica,sans-Serif" font-size="10.00">SPIOutput&lt; _DATA_PIN,</text>
<text text-anchor="start" x="193.75" y="-47.62" font-family="Helvetica,sans-Serif" font-size="10.00"> _CLOCK_PIN, _SPI_CLOCK</text>
<text text-anchor="middle" x="257.5" y="-34.88" font-family="Helvetica,sans-Serif" font-size="10.00">_DIVIDER &gt;</text>
</a>
</g>
</g>
<!-- Node8&#45;&gt;Node11 -->
<g id="edge8_Node000011_Node000008" class="edge">
<title>Node8&#45;&gt;Node11</title>
<g id="a_edge8_Node000011_Node000008"><a xlink:title=" ">
<path fill="none" stroke="#63b8ff" d="M160.43,-50.75C168.83,-50.75 177.3,-50.75 185.53,-50.75"/>
<polygon fill="#63b8ff" stroke="#63b8ff" points="160.56,-47.25 150.56,-50.75 160.56,-54.25 160.56,-47.25"/>
</a>
</g>
</g>
<!-- Node15 -->
<g id="Node000015" class="node">
<title>Node15</title>
<g id="a_Node000015"><a xlink:href="../../d3/d97/class_s_p_i_output.html" target="_top" xlink:title=" ">
<polygon fill="white" stroke="#666666" points="629.5,-97.88 494.25,-97.88 494.25,-51.62 629.5,-51.62 629.5,-97.88"/>
<text text-anchor="start" x="502.25" y="-84.38" font-family="Helvetica,sans-Serif" font-size="10.00">SPIOutput&lt; DATA_PIN,</text>
<text text-anchor="start" x="502.25" y="-71.62" font-family="Helvetica,sans-Serif" font-size="10.00"> CLOCK_PIN, DATA_RATE</text>
<text text-anchor="middle" x="561.88" y="-58.88" font-family="Helvetica,sans-Serif" font-size="10.00">_MHZ(6) &gt;</text>
</a>
</g>
</g>
<!-- Node8&#45;&gt;Node15 -->
<g id="edge13_Node000015_Node000008" class="edge">
<title>Node8&#45;&gt;Node15</title>
<g id="a_edge13_Node000015_Node000008"><a xlink:title=" ">
<path fill="none" stroke="#63b8ff" d="M160,-77.1C168.65,-79.24 177.34,-81.18 185.75,-82.75 311.18,-106.14 345.85,-112.28 472.5,-96.75 479.56,-95.88 486.87,-94.64 494.12,-93.19"/>
<polygon fill="#63b8ff" stroke="#63b8ff" points="161.13,-73.77 150.58,-74.66 159.38,-80.55 161.13,-73.77"/>
</a>
</g>
</g>
<!-- Node11&#45;&gt;Node7 -->
<g id="edge7_Node000007_Node000011" class="edge">
<title>Node11&#45;&gt;Node7</title>
<g id="a_edge7_Node000007_Node000011"><a xlink:title=" ">
<path fill="none" stroke="orange" stroke-dasharray="5,2" d="M340.64,-29.33C342.86,-28.94 345.07,-28.58 347.25,-28.25 394.62,-21.04 448.49,-18.18 490.29,-17.11"/>
<polygon fill="orange" stroke="orange" points="340.11,-25.87 330.95,-31.18 341.42,-32.75 340.11,-25.87"/>
</a>
</g>
<text text-anchor="start" x="347.25" y="-44.25" font-family="Helvetica,sans-Serif" font-size="10.00" fill="grey"> &lt; DATA_PIN, CLOCK_PIN,</text>
<text text-anchor="middle" x="409.88" y="-31.5" font-family="Helvetica,sans-Serif" font-size="10.00" fill="grey"> SPI_SPEED &gt;</text>
</g>
<!-- Node11&#45;&gt;Node15 -->
<g id="edge14_Node000015_Node000011" class="edge">
<title>Node11&#45;&gt;Node15</title>
<g id="a_edge14_Node000015_Node000011"><a xlink:title=" ">
<path fill="none" stroke="orange" stroke-dasharray="5,2" d="M340.71,-57.27C388.75,-61.09 448.62,-65.84 493.8,-69.43"/>
<polygon fill="orange" stroke="orange" points="341.15,-53.8 330.9,-56.5 340.59,-60.78 341.15,-53.8"/>
</a>
</g>
<text text-anchor="start" x="347.25" y="-83.66" font-family="Helvetica,sans-Serif" font-size="10.00" fill="grey"> &lt; DATA_PIN, CLOCK_PIN,</text>
<text text-anchor="middle" x="409.88" y="-70.91" font-family="Helvetica,sans-Serif" font-size="10.00" fill="grey"> DATA_RATE_MHZ(6) &gt;</text>
</g>
<!-- Node12 -->
<g id="Node000012" class="node">
<title>Node12</title>
<g id="a_Node000012"><a xlink:href="../../df/d0d/group___clocked_chipsets.html#d4/d96/class_a_p_a102_controller" target="_top" xlink:title="APA102 controller class.">
<polygon fill="white" stroke="#666666" points="1003.5,-112.25 798.5,-112.25 798.5,-53.25 1003.5,-53.25 1003.5,-112.25"/>
<text text-anchor="start" x="806.5" y="-98.75" font-family="Helvetica,sans-Serif" font-size="10.00">APA102Controller&lt; DATA</text>
<text text-anchor="start" x="806.5" y="-86" font-family="Helvetica,sans-Serif" font-size="10.00">_PIN, CLOCK_PIN, RGB_ORDER,</text>
<text text-anchor="start" x="806.5" y="-73.25" font-family="Helvetica,sans-Serif" font-size="10.00"> SPI_SPEED, GAMMA_CORRECTION</text>
<text text-anchor="middle" x="901" y="-60.5" font-family="Helvetica,sans-Serif" font-size="10.00">_MODE, START_FRAME, END_FRAME &gt;</text>
</a>
</g>
</g>
<!-- Node12&#45;&gt;Node2 -->
<g id="edge9_Node000002_Node000012" class="edge">
<title>Node12&#45;&gt;Node2</title>
<g id="a_edge9_Node000002_Node000012"><a xlink:title=" ">
<path fill="none" stroke="orange" stroke-dasharray="5,2" d="M1014.87,-82.75C1079.85,-82.75 1160.19,-82.75 1219.89,-82.75"/>
<polygon fill="orange" stroke="orange" points="1015.27,-79.25 1005.27,-82.75 1015.27,-86.25 1015.27,-79.25"/>
</a>
</g>
<text text-anchor="start" x="1021.5" y="-137" font-family="Helvetica,sans-Serif" font-size="10.00" fill="grey"> &lt; DATA_PIN, CLOCK_PIN,</text>
<text text-anchor="start" x="1021.5" y="-124.25" font-family="Helvetica,sans-Serif" font-size="10.00" fill="grey"> RGB, DATA_RATE_MHZ(6)</text>
<text text-anchor="start" x="1021.5" y="-111.5" font-family="Helvetica,sans-Serif" font-size="10.00" fill="grey">, fl::kFiveBitGammaCorrection</text>
<text text-anchor="start" x="1021.5" y="-98.75" font-family="Helvetica,sans-Serif" font-size="10.00" fill="grey">Mode_BitShift, uint32_t(0x00000000)</text>
<text text-anchor="middle" x="1111.88" y="-86" font-family="Helvetica,sans-Serif" font-size="10.00" fill="grey">, uint32_t(0x00000000)&gt;</text>
</g>
<!-- Node13&#45;&gt;Node12 -->
<g id="edge10_Node000012_Node000013" class="edge">
<title>Node13&#45;&gt;Node12</title>
<g id="a_edge10_Node000012_Node000013"><a xlink:title=" ">
<path fill="none" stroke="#63b8ff" d="M629.76,-122.83C677.88,-115.69 743.64,-105.94 798.25,-97.84"/>
<polygon fill="#63b8ff" stroke="#63b8ff" points="629.42,-119.34 620.04,-124.27 630.45,-126.27 629.42,-119.34"/>
</a>
</g>
</g>
<!-- Node15&#45;&gt;Node12 -->
<g id="edge12_Node000012_Node000015" class="edge">
<title>Node15&#45;&gt;Node12</title>
<g id="a_edge12_Node000012_Node000015"><a xlink:title=" ">
<path fill="none" stroke="#9a32cd" stroke-dasharray="5,2" d="M641.17,-76.61C687.93,-77.72 747.83,-79.14 798.23,-80.34"/>
<polygon fill="#9a32cd" stroke="#9a32cd" points="641.48,-73.11 631.4,-76.38 641.31,-80.11 641.48,-73.11"/>
</a>
</g>
<text text-anchor="middle" x="715.88" y="-82.95" font-family="Helvetica,sans-Serif" font-size="10.00" fill="grey"> mSPI</text>
</g>
</g>
</svg>
