<?xml version="1.0" encoding="UTF-8" standalone="no"?>
<!DOCTYPE svg PUBLIC "-//W3C//DTD SVG 1.1//EN"
 "http://www.w3.org/Graphics/SVG/1.1/DTD/svg11.dtd">
<!-- Generated by graphviz version 12.2.1 (20241206.2353)
 -->
<!-- Title: /home/runner/work/FastLED/FastLED/src/fl/inplacenew.h Pages: 1 -->
<svg width="2943pt" height="522pt"
 viewBox="0.00 0.00 2943.00 522.25" xmlns="http://www.w3.org/2000/svg" xmlns:xlink="http://www.w3.org/1999/xlink">
<g id="graph0" class="graph" transform="scale(1 1) rotate(0) translate(4 518.25)">
<title>/home/runner/work/FastLED/FastLED/src/fl/inplacenew.h</title>
<!-- Node1 -->
<g id="Node000001" class="node">
<title>Node1</title>
<g id="a_Node000001"><a xlink:title=" ">
<polygon fill="#999999" stroke="#666666" points="1183.5,-514.25 1033.25,-514.25 1033.25,-480.75 1183.5,-480.75 1183.5,-514.25"/>
<text text-anchor="start" x="1041.25" y="-500.75" font-family="Helvetica,sans-Serif" font-size="10.00">/home/runner/work/FastLED</text>
<text text-anchor="middle" x="1108.38" y="-488" font-family="Helvetica,sans-Serif" font-size="10.00">/FastLED/src/fl/inplacenew.h</text>
</a>
</g>
</g>
<!-- Node2 -->
<g id="Node000002" class="node">
<title>Node2</title>
<g id="a_Node000002"><a xlink:href="../../d6/d68/vector_8h.html" target="_top" xlink:title=" ">
<polygon fill="white" stroke="#666666" points="1183.12,-444.75 1033.62,-444.75 1033.62,-411.25 1183.12,-411.25 1183.12,-444.75"/>
<text text-anchor="start" x="1041.62" y="-431.25" font-family="Helvetica,sans-Serif" font-size="10.00">/home/runner/work/FastLED</text>
<text text-anchor="middle" x="1108.38" y="-418.5" font-family="Helvetica,sans-Serif" font-size="10.00">/FastLED/src/fl/vector.h</text>
</a>
</g>
</g>
<!-- Node1&#45;&gt;Node2 -->
<g id="edge1_Node000001_Node000002" class="edge">
<title>Node1&#45;&gt;Node2</title>
<g id="a_edge1_Node000001_Node000002"><a xlink:title=" ">
<path fill="none" stroke="#63b8ff" d="M1108.38,-469.06C1108.38,-460.84 1108.38,-452.09 1108.38,-444.88"/>
<polygon fill="#63b8ff" stroke="#63b8ff" points="1104.88,-468.99 1108.38,-478.99 1111.88,-468.99 1104.88,-468.99"/>
</a>
</g>
</g>
<!-- Node3 -->
<g id="Node000003" class="node">
<title>Node3</title>
<g id="a_Node000003"><a xlink:href="../../d8/d2c/_fire2023_8ino.html" target="_top" xlink:title=" ">
<polygon fill="white" stroke="#666666" points="374,-46.25 220.75,-46.25 220.75,0 374,0 374,-46.25"/>
<text text-anchor="start" x="228.75" y="-32.75" font-family="Helvetica,sans-Serif" font-size="10.00">/home/runner/work/FastLED</text>
<text text-anchor="start" x="228.75" y="-20" font-family="Helvetica,sans-Serif" font-size="10.00">/FastLED/examples/Fire2023</text>
<text text-anchor="middle" x="297.38" y="-7.25" font-family="Helvetica,sans-Serif" font-size="10.00">/Fire2023.ino</text>
</a>
</g>
</g>
<!-- Node2&#45;&gt;Node3 -->
<g id="edge2_Node000002_Node000003" class="edge">
<title>Node2&#45;&gt;Node3</title>
<g id="a_edge2_Node000002_Node000003"><a xlink:title=" ">
<path fill="none" stroke="#63b8ff" d="M1022.14,-420.15C806.18,-401.83 259.38,-347.85 259.38,-270.88 259.38,-270.88 259.38,-270.88 259.38,-186.62 259.38,-135.49 277.44,-77.62 288.66,-46.61"/>
<polygon fill="#63b8ff" stroke="#63b8ff" points="1021.64,-423.62 1031.9,-420.97 1022.23,-416.64 1021.64,-423.62"/>
</a>
</g>
</g>
<!-- Node4 -->
<g id="Node000004" class="node">
<title>Node4</title>
<g id="a_Node000004"><a xlink:href="../../d9/d7e/_led_rope_t_c_l_8h.html" target="_top" xlink:title=" ">
<polygon fill="white" stroke="#666666" points="231.75,-210.75 29,-210.75 29,-164.5 231.75,-164.5 231.75,-210.75"/>
<text text-anchor="start" x="37" y="-197.25" font-family="Helvetica,sans-Serif" font-size="10.00">/home/runner/work/FastLED</text>
<text text-anchor="start" x="37" y="-184.5" font-family="Helvetica,sans-Serif" font-size="10.00">/FastLED/examples/LuminescentGrand</text>
<text text-anchor="middle" x="130.38" y="-171.75" font-family="Helvetica,sans-Serif" font-size="10.00">/arduino/LedRopeTCL.h</text>
</a>
</g>
</g>
<!-- Node2&#45;&gt;Node4 -->
<g id="edge3_Node000002_Node000004" class="edge">
<title>Node2&#45;&gt;Node4</title>
<g id="a_edge3_Node000002_Node000004"><a xlink:title=" ">
<path fill="none" stroke="#63b8ff" d="M1021.98,-426.3C816.5,-424.01 310.83,-414.42 245.38,-375.25 182.84,-337.83 149.51,-251.96 136.69,-211.07"/>
<polygon fill="#63b8ff" stroke="#63b8ff" points="1021.76,-429.8 1031.8,-426.41 1021.84,-422.8 1021.76,-429.8"/>
</a>
</g>
</g>
<!-- Node6 -->
<g id="Node000006" class="node">
<title>Node6</title>
<g id="a_Node000006"><a xlink:href="../../dc/dd9/fl_2engine__events_8h.html" target="_top" xlink:title=" ">
<polygon fill="white" stroke="#666666" points="706.12,-210.75 556.62,-210.75 556.62,-164.5 706.12,-164.5 706.12,-210.75"/>
<text text-anchor="start" x="564.62" y="-197.25" font-family="Helvetica,sans-Serif" font-size="10.00">/home/runner/work/FastLED</text>
<text text-anchor="start" x="564.62" y="-184.5" font-family="Helvetica,sans-Serif" font-size="10.00">/FastLED/src/fl/engine</text>
<text text-anchor="middle" x="631.38" y="-171.75" font-family="Helvetica,sans-Serif" font-size="10.00">_events.h</text>
</a>
</g>
</g>
<!-- Node2&#45;&gt;Node6 -->
<g id="edge5_Node000002_Node000006" class="edge">
<title>Node2&#45;&gt;Node6</title>
<g id="a_edge5_Node000002_Node000006"><a xlink:title=" ">
<path fill="none" stroke="#63b8ff" d="M1021.89,-413.32C902.93,-392.65 698.07,-349.76 650.38,-293 631.06,-270.01 628.64,-233.98 629.43,-210.84"/>
<polygon fill="#63b8ff" stroke="#63b8ff" points="1021.19,-416.75 1031.64,-415 1022.38,-409.86 1021.19,-416.75"/>
</a>
</g>
</g>
<!-- Node120 -->
<g id="Node000120" class="node">
<title>Node120</title>
<g id="a_Node000120"><a xlink:href="../../dc/db7/map_8h.html" target="_top" xlink:title=" ">
<polygon fill="white" stroke="#666666" points="1183.12,-368.88 1033.62,-368.88 1033.62,-335.38 1183.12,-335.38 1183.12,-368.88"/>
<text text-anchor="start" x="1041.62" y="-355.38" font-family="Helvetica,sans-Serif" font-size="10.00">/home/runner/work/FastLED</text>
<text text-anchor="middle" x="1108.38" y="-342.62" font-family="Helvetica,sans-Serif" font-size="10.00">/FastLED/src/fl/map.h</text>
</a>
</g>
</g>
<!-- Node2&#45;&gt;Node120 -->
<g id="edge17_Node000002_Node000120" class="edge">
<title>Node2&#45;&gt;Node120</title>
<g id="a_edge17_Node000002_Node000120"><a xlink:title=" ">
<path fill="none" stroke="#63b8ff" d="M1108.38,-399.61C1108.38,-389.35 1108.38,-378.02 1108.38,-369.12"/>
<polygon fill="#63b8ff" stroke="#63b8ff" points="1104.88,-399.46 1108.38,-409.46 1111.88,-399.46 1104.88,-399.46"/>
</a>
</g>
</g>
<!-- Node121 -->
<g id="Node000121" class="node">
<title>Node121</title>
<g id="a_Node000121"><a xlink:href="../../d9/df3/rectangular__draw__buffer_8h.html" target="_top" xlink:title=" ">
<polygon fill="#fff0f0" stroke="red" points="809.12,-293 659.62,-293 659.62,-246.75 809.12,-246.75 809.12,-293"/>
<text text-anchor="start" x="667.62" y="-279.5" font-family="Helvetica,sans-Serif" font-size="10.00">/home/runner/work/FastLED</text>
<text text-anchor="start" x="667.62" y="-266.75" font-family="Helvetica,sans-Serif" font-size="10.00">/FastLED/src/fl/rectangular</text>
<text text-anchor="middle" x="734.38" y="-254" font-family="Helvetica,sans-Serif" font-size="10.00">_draw_buffer.h</text>
</a>
</g>
</g>
<!-- Node2&#45;&gt;Node121 -->
<g id="edge31_Node000002_Node000121" class="edge">
<title>Node2&#45;&gt;Node121</title>
<g id="a_edge31_Node000002_Node000121"><a xlink:title=" ">
<path fill="none" stroke="#63b8ff" d="M1059.45,-406.58C989.43,-377.35 861.09,-323.77 788.37,-293.42"/>
<polygon fill="#63b8ff" stroke="#63b8ff" points="1057.79,-409.67 1068.36,-410.3 1060.48,-403.21 1057.79,-409.67"/>
</a>
</g>
</g>
<!-- Node123 -->
<g id="Node000123" class="node">
<title>Node123</title>
<g id="a_Node000123"><a xlink:href="../../d9/d6f/screenmap_8cpp.html" target="_top" xlink:title=" ">
<polygon fill="white" stroke="#666666" points="1128.75,-204.38 968,-204.38 968,-170.88 1128.75,-170.88 1128.75,-204.38"/>
<text text-anchor="start" x="976" y="-190.88" font-family="Helvetica,sans-Serif" font-size="10.00">/home/runner/work/FastLED</text>
<text text-anchor="middle" x="1048.38" y="-178.12" font-family="Helvetica,sans-Serif" font-size="10.00">/FastLED/src/fl/screenmap.cpp</text>
</a>
</g>
</g>
<!-- Node2&#45;&gt;Node123 -->
<g id="edge32_Node000002_Node000123" class="edge">
<title>Node2&#45;&gt;Node123</title>
<g id="a_edge32_Node000002_Node000123"><a xlink:title=" ">
<path fill="none" stroke="#63b8ff" d="M1054.92,-405.22C1042.75,-397.62 1031.36,-387.76 1024.38,-375.25 993,-319.06 1024.12,-238.84 1040.14,-204.84"/>
<polygon fill="#63b8ff" stroke="#63b8ff" points="1053.04,-408.18 1063.46,-410.1 1056.51,-402.1 1053.04,-408.18"/>
</a>
</g>
</g>
<!-- Node135 -->
<g id="Node000135" class="node">
<title>Node135</title>
<g id="a_Node000135"><a xlink:href="../../d4/d13/set_8h.html" target="_top" xlink:title=" ">
<polygon fill="white" stroke="#666666" points="1351.12,-368.88 1201.62,-368.88 1201.62,-335.38 1351.12,-335.38 1351.12,-368.88"/>
<text text-anchor="start" x="1209.62" y="-355.38" font-family="Helvetica,sans-Serif" font-size="10.00">/home/runner/work/FastLED</text>
<text text-anchor="middle" x="1276.38" y="-342.62" font-family="Helvetica,sans-Serif" font-size="10.00">/FastLED/src/fl/set.h</text>
</a>
</g>
</g>
<!-- Node2&#45;&gt;Node135 -->
<g id="edge33_Node000002_Node000135" class="edge">
<title>Node2&#45;&gt;Node135</title>
<g id="a_edge33_Node000002_Node000135"><a xlink:title=" ">
<path fill="none" stroke="#63b8ff" d="M1155.48,-406.28C1182.1,-394.58 1214.88,-380.16 1239.59,-369.3"/>
<polygon fill="#63b8ff" stroke="#63b8ff" points="1154.37,-402.95 1146.63,-410.18 1157.19,-409.36 1154.37,-402.95"/>
</a>
</g>
</g>
<!-- Node136 -->
<g id="Node000136" class="node">
<title>Node136</title>
<g id="a_Node000136"><a xlink:href="../../dc/d0e/fl_2str_8h.html" target="_top" xlink:title=" ">
<polygon fill="white" stroke="#666666" points="1701.12,-368.88 1551.62,-368.88 1551.62,-335.38 1701.12,-335.38 1701.12,-368.88"/>
<text text-anchor="start" x="1559.62" y="-355.38" font-family="Helvetica,sans-Serif" font-size="10.00">/home/runner/work/FastLED</text>
<text text-anchor="middle" x="1626.38" y="-342.62" font-family="Helvetica,sans-Serif" font-size="10.00">/FastLED/src/fl/str.h</text>
</a>
</g>
</g>
<!-- Node2&#45;&gt;Node136 -->
<g id="edge34_Node000002_Node000136" class="edge">
<title>Node2&#45;&gt;Node136</title>
<g id="a_edge34_Node000002_Node000136"><a xlink:title=" ">
<path fill="none" stroke="#63b8ff" d="M1194.65,-414.7C1294.31,-400.48 1456.65,-377.33 1551.3,-363.83"/>
<polygon fill="#63b8ff" stroke="#63b8ff" points="1194.32,-411.21 1184.92,-416.08 1195.31,-418.14 1194.32,-411.21"/>
</a>
</g>
</g>
<!-- Node151 -->
<g id="Node000151" class="node">
<title>Node151</title>
<g id="a_Node000151"><a xlink:href="../../d5/d6b/fx__compositor_8h.html" target="_top" xlink:title=" ">
<polygon fill="white" stroke="#666666" points="2598.12,-128.5 2448.62,-128.5 2448.62,-82.25 2598.12,-82.25 2598.12,-128.5"/>
<text text-anchor="start" x="2456.62" y="-115" font-family="Helvetica,sans-Serif" font-size="10.00">/home/runner/work/FastLED</text>
<text text-anchor="start" x="2456.62" y="-102.25" font-family="Helvetica,sans-Serif" font-size="10.00">/FastLED/src/fx/detail</text>
<text text-anchor="middle" x="2523.38" y="-89.5" font-family="Helvetica,sans-Serif" font-size="10.00">/fx_compositor.h</text>
</a>
</g>
</g>
<!-- Node2&#45;&gt;Node151 -->
<g id="edge59_Node000002_Node000151" class="edge">
<title>Node2&#45;&gt;Node151</title>
<g id="a_edge59_Node000002_Node000151"><a xlink:title=" ">
<path fill="none" stroke="#63b8ff" d="M1194.75,-424.53C1481.76,-415.51 2390.89,-380.25 2486.38,-293 2532.71,-250.67 2530.65,-168.37 2526.5,-128.75"/>
<polygon fill="#63b8ff" stroke="#63b8ff" points="1194.98,-421.02 1185.1,-424.83 1195.2,-428.01 1194.98,-421.02"/>
</a>
</g>
</g>
<!-- Node150 -->
<g id="Node000150" class="node">
<title>Node150</title>
<g id="a_Node000150"><a xlink:href="../../d7/d2f/fx__layer_8h.html" target="_top" xlink:title=" ">
<polygon fill="white" stroke="#666666" points="2804.12,-210.75 2654.62,-210.75 2654.62,-164.5 2804.12,-164.5 2804.12,-210.75"/>
<text text-anchor="start" x="2662.62" y="-197.25" font-family="Helvetica,sans-Serif" font-size="10.00">/home/runner/work/FastLED</text>
<text text-anchor="start" x="2662.62" y="-184.5" font-family="Helvetica,sans-Serif" font-size="10.00">/FastLED/src/fx/detail</text>
<text text-anchor="middle" x="2729.38" y="-171.75" font-family="Helvetica,sans-Serif" font-size="10.00">/fx_layer.h</text>
</a>
</g>
</g>
<!-- Node2&#45;&gt;Node150 -->
<g id="edge60_Node000002_Node000150" class="edge">
<title>Node2&#45;&gt;Node150</title>
<g id="a_edge60_Node000002_Node000150"><a xlink:title=" ">
<path fill="none" stroke="#63b8ff" d="M1194.62,-425.91C1483.68,-421.98 2407.46,-407.04 2537.38,-375.25 2620.07,-355.01 2658.61,-360.59 2710.38,-293 2728.52,-269.31 2731.31,-233.81 2730.91,-210.93"/>
<polygon fill="#63b8ff" stroke="#63b8ff" points="1194.84,-422.41 1184.89,-426.04 1194.93,-429.41 1194.84,-422.41"/>
</a>
</g>
</g>
<!-- Node161 -->
<g id="Node000161" class="node">
<title>Node161</title>
<g id="a_Node000161"><a xlink:href="../../d3/d3b/animartrix__detail_8hpp.html" target="_top" xlink:title=" ">
<polygon fill="white" stroke="#666666" points="2918.5,-375.25 2762.25,-375.25 2762.25,-329 2918.5,-329 2918.5,-375.25"/>
<text text-anchor="start" x="2770.25" y="-361.75" font-family="Helvetica,sans-Serif" font-size="10.00">/home/runner/work/FastLED</text>
<text text-anchor="start" x="2770.25" y="-349" font-family="Helvetica,sans-Serif" font-size="10.00">/FastLED/src/fx/2d/animartrix</text>
<text text-anchor="middle" x="2840.38" y="-336.25" font-family="Helvetica,sans-Serif" font-size="10.00">_detail.hpp</text>
</a>
</g>
</g>
<!-- Node2&#45;&gt;Node161 -->
<g id="edge57_Node000002_Node000161" class="edge">
<title>Node2&#45;&gt;Node161</title>
<g id="a_edge57_Node000002_Node000161"><a xlink:title=" ">
<path fill="none" stroke="#63b8ff" d="M1194.92,-426.46C1487.69,-424.29 2439.7,-414.32 2743.38,-375.25 2749.46,-374.47 2755.72,-373.48 2761.99,-372.35"/>
<polygon fill="#63b8ff" stroke="#63b8ff" points="1195.02,-422.96 1185.05,-426.53 1195.08,-429.96 1195.02,-422.96"/>
</a>
</g>
</g>
<!-- Node5 -->
<g id="Node000005" class="node">
<title>Node5</title>
<g id="a_Node000005"><a xlink:href="../../d6/dc9/_led_rope_t_c_l_8cpp.html" target="_top" xlink:title=" ">
<polygon fill="white" stroke="#666666" points="202.75,-46.25 0,-46.25 0,0 202.75,0 202.75,-46.25"/>
<text text-anchor="start" x="8" y="-32.75" font-family="Helvetica,sans-Serif" font-size="10.00">/home/runner/work/FastLED</text>
<text text-anchor="start" x="8" y="-20" font-family="Helvetica,sans-Serif" font-size="10.00">/FastLED/examples/LuminescentGrand</text>
<text text-anchor="middle" x="101.38" y="-7.25" font-family="Helvetica,sans-Serif" font-size="10.00">/arduino/LedRopeTCL.cpp</text>
</a>
</g>
</g>
<!-- Node4&#45;&gt;Node5 -->
<g id="edge4_Node000004_Node000005" class="edge">
<title>Node4&#45;&gt;Node5</title>
<g id="a_edge4_Node000004_Node000005"><a xlink:title=" ">
<path fill="none" stroke="#63b8ff" d="M124.38,-153.03C118.69,-121.13 110.29,-74.09 105.37,-46.53"/>
<polygon fill="#63b8ff" stroke="#63b8ff" points="120.87,-153.31 126.08,-162.54 127.77,-152.08 120.87,-153.31"/>
</a>
</g>
</g>
<!-- Node7 -->
<g id="Node000007" class="node">
<title>Node7</title>
<g id="a_Node000007"><a xlink:href="../../d6/dda/_fast_l_e_d_8cpp.html" target="_top" xlink:title="Central source file for FastLED, implements the CFastLED class/object.">
<polygon fill="white" stroke="#666666" points="541.12,-39.88 391.62,-39.88 391.62,-6.38 541.12,-6.38 541.12,-39.88"/>
<text text-anchor="start" x="399.62" y="-26.38" font-family="Helvetica,sans-Serif" font-size="10.00">/home/runner/work/FastLED</text>
<text text-anchor="middle" x="466.38" y="-13.62" font-family="Helvetica,sans-Serif" font-size="10.00">/FastLED/src/FastLED.cpp</text>
</a>
</g>
</g>
<!-- Node6&#45;&gt;Node7 -->
<g id="edge6_Node000006_Node000007" class="edge">
<title>Node6&#45;&gt;Node7</title>
<g id="a_edge6_Node000006_Node000007"><a xlink:title=" ">
<path fill="none" stroke="#63b8ff" d="M544.86,-180.18C472.75,-172.8 378.12,-157.74 354.38,-128.5 341.42,-112.54 343.7,-99.82 354.38,-82.25 366.38,-62.5 387.51,-49.16 408.21,-40.29"/>
<polygon fill="#63b8ff" stroke="#63b8ff" points="544.43,-183.66 554.72,-181.16 545.11,-176.69 544.43,-183.66"/>
</a>
</g>
</g>
<!-- Node8 -->
<g id="Node000008" class="node">
<title>Node8</title>
<g id="a_Node000008"><a xlink:href="../../db/d97/_fast_l_e_d_8h.html" target="_top" xlink:title="central include file for FastLED, defines the CFastLED class/object">
<polygon fill="#fff0f0" stroke="red" points="513.12,-122.12 363.62,-122.12 363.62,-88.62 513.12,-88.62 513.12,-122.12"/>
<text text-anchor="start" x="371.62" y="-108.62" font-family="Helvetica,sans-Serif" font-size="10.00">/home/runner/work/FastLED</text>
<text text-anchor="middle" x="438.38" y="-95.88" font-family="Helvetica,sans-Serif" font-size="10.00">/FastLED/src/FastLED.h</text>
</a>
</g>
</g>
<!-- Node6&#45;&gt;Node8 -->
<g id="edge7_Node000006_Node000008" class="edge">
<title>Node6&#45;&gt;Node8</title>
<g id="a_edge7_Node000006_Node000008"><a xlink:title=" ">
<path fill="none" stroke="#63b8ff" d="M566.81,-159.78C537.14,-147.44 502.92,-133.21 477.26,-122.55"/>
<polygon fill="#63b8ff" stroke="#63b8ff" points="565.13,-162.87 575.7,-163.48 567.81,-156.41 565.13,-162.87"/>
</a>
</g>
</g>
<!-- Node69 -->
<g id="Node000069" class="node">
<title>Node69</title>
<g id="a_Node000069"><a xlink:href="../../db/d6d/cled__controller_8h.html" target="_top" xlink:title="base definitions used by led controllers for writing out led data">
<polygon fill="#fff0f0" stroke="red" points="964.25,-39.88 806.5,-39.88 806.5,-6.38 964.25,-6.38 964.25,-39.88"/>
<text text-anchor="start" x="814.5" y="-26.38" font-family="Helvetica,sans-Serif" font-size="10.00">/home/runner/work/FastLED</text>
<text text-anchor="middle" x="885.38" y="-13.62" font-family="Helvetica,sans-Serif" font-size="10.00">/FastLED/src/cled_controller.h</text>
</a>
</g>
</g>
<!-- Node6&#45;&gt;Node69 -->
<g id="edge14_Node000006_Node000069" class="edge">
<title>Node6&#45;&gt;Node69</title>
<g id="a_edge14_Node000006_Node000069"><a xlink:title=" ">
<path fill="none" stroke="#63b8ff" d="M717.7,-175.22C776.01,-165.72 845.96,-150.23 866.38,-128.5 888.95,-104.47 889.24,-63.02 887.38,-40.25"/>
<polygon fill="#63b8ff" stroke="#63b8ff" points="717.4,-171.72 708.08,-176.75 718.5,-178.64 717.4,-171.72"/>
</a>
</g>
</g>
<!-- Node118 -->
<g id="Node000118" class="node">
<title>Node118</title>
<g id="a_Node000118"><a xlink:href="../../db/dc0/engine__events_8h.html" target="_top" xlink:title=" ">
<polygon fill="white" stroke="#666666" points="689.25,-122.12 531.5,-122.12 531.5,-88.62 689.25,-88.62 689.25,-122.12"/>
<text text-anchor="start" x="539.5" y="-108.62" font-family="Helvetica,sans-Serif" font-size="10.00">/home/runner/work/FastLED</text>
<text text-anchor="middle" x="610.38" y="-95.88" font-family="Helvetica,sans-Serif" font-size="10.00">/FastLED/src/engine_events.h</text>
</a>
</g>
</g>
<!-- Node6&#45;&gt;Node118 -->
<g id="edge15_Node000006_Node000118" class="edge">
<title>Node6&#45;&gt;Node118</title>
<g id="a_edge15_Node000006_Node000118"><a xlink:title=" ">
<path fill="none" stroke="#63b8ff" d="M622.62,-153.16C619.84,-142.55 616.9,-131.31 614.6,-122.5"/>
<polygon fill="#63b8ff" stroke="#63b8ff" points="619.22,-154.02 625.14,-162.81 626,-152.25 619.22,-154.02"/>
</a>
</g>
</g>
<!-- Node119 -->
<g id="Node000119" class="node">
<title>Node119</title>
<g id="a_Node000119"><a xlink:href="../../d5/d7d/engine__events_8cpp.html" target="_top" xlink:title=" ">
<polygon fill="white" stroke="#666666" points="857.12,-128.5 707.62,-128.5 707.62,-82.25 857.12,-82.25 857.12,-128.5"/>
<text text-anchor="start" x="715.62" y="-115" font-family="Helvetica,sans-Serif" font-size="10.00">/home/runner/work/FastLED</text>
<text text-anchor="start" x="715.62" y="-102.25" font-family="Helvetica,sans-Serif" font-size="10.00">/FastLED/src/fl/engine</text>
<text text-anchor="middle" x="782.38" y="-89.5" font-family="Helvetica,sans-Serif" font-size="10.00">_events.cpp</text>
</a>
</g>
</g>
<!-- Node6&#45;&gt;Node119 -->
<g id="edge16_Node000006_Node000119" class="edge">
<title>Node6&#45;&gt;Node119</title>
<g id="a_edge16_Node000006_Node000119"><a xlink:title=" ">
<path fill="none" stroke="#63b8ff" d="M683.8,-158.76C702.16,-149.01 722.53,-138.18 739.97,-128.91"/>
<polygon fill="#63b8ff" stroke="#63b8ff" points="682.36,-155.56 675.18,-163.35 685.65,-161.74 682.36,-155.56"/>
</a>
</g>
</g>
<!-- Node8&#45;&gt;Node3 -->
<g id="edge9_Node000008_Node000003" class="edge">
<title>Node8&#45;&gt;Node3</title>
<g id="a_edge9_Node000008_Node000003"><a xlink:title=" ">
<path fill="none" stroke="#63b8ff" d="M400.06,-82.57C380.53,-71.45 356.81,-57.95 337.09,-46.73"/>
<polygon fill="#63b8ff" stroke="#63b8ff" points="398.1,-85.48 408.53,-87.39 401.57,-79.4 398.1,-85.48"/>
</a>
</g>
</g>
<!-- Node8&#45;&gt;Node5 -->
<g id="edge10_Node000008_Node000005" class="edge">
<title>Node8&#45;&gt;Node5</title>
<g id="a_edge10_Node000008_Node000005"><a xlink:title=" ">
<path fill="none" stroke="#63b8ff" d="M359.06,-85.49C310.34,-73.88 247.64,-58.95 196.29,-46.73"/>
<polygon fill="#63b8ff" stroke="#63b8ff" points="358.17,-88.87 368.71,-87.78 359.79,-82.06 358.17,-88.87"/>
</a>
</g>
</g>
<!-- Node8&#45;&gt;Node7 -->
<g id="edge11_Node000008_Node000007" class="edge">
<title>Node8&#45;&gt;Node7</title>
<g id="a_edge11_Node000008_Node000007"><a xlink:title=" ">
<path fill="none" stroke="#63b8ff" d="M447.75,-77.51C452.05,-65.19 457,-51 460.72,-40.34"/>
<polygon fill="#63b8ff" stroke="#63b8ff" points="444.53,-76.11 444.54,-86.71 451.14,-78.42 444.53,-76.11"/>
</a>
</g>
</g>
<!-- Node17 -->
<g id="Node000017" class="node">
<title>Node17</title>
<g id="a_Node000017"><a xlink:href="../../d1/ddb/_chromancer_8ino.html" target="_top" xlink:title=" ">
<polygon fill="white" stroke="#666666" points="1186.62,-46.25 1016.12,-46.25 1016.12,0 1186.62,0 1186.62,-46.25"/>
<text text-anchor="start" x="1024.12" y="-32.75" font-family="Helvetica,sans-Serif" font-size="10.00">/home/runner/work/FastLED</text>
<text text-anchor="start" x="1024.12" y="-20" font-family="Helvetica,sans-Serif" font-size="10.00">/FastLED/examples/Chromancer</text>
<text text-anchor="middle" x="1101.38" y="-7.25" font-family="Helvetica,sans-Serif" font-size="10.00">/Chromancer.ino</text>
</a>
</g>
</g>
<!-- Node8&#45;&gt;Node17 -->
<g id="edge8_Node000008_Node000017" class="edge">
<title>Node8&#45;&gt;Node17</title>
<g id="a_edge8_Node000008_Node000017"><a xlink:title=" ">
<path fill="none" stroke="#63b8ff" d="M505.18,-85.64C510.97,-84.36 516.76,-83.21 522.38,-82.25 720.61,-48.51 773.87,-71.4 973.38,-46.25 987.14,-44.52 1001.67,-42.34 1015.82,-40.03"/>
<polygon fill="#63b8ff" stroke="#63b8ff" points="504.52,-82.2 495.57,-87.87 506.11,-89.02 504.52,-82.2"/>
</a>
</g>
</g>
<!-- Node8&#45;&gt;Node69 -->
<g id="edge12_Node000008_Node000069" class="edge">
<title>Node8&#45;&gt;Node69</title>
<g id="a_edge12_Node000008_Node000069"><a xlink:title=" ">
<path fill="none" stroke="#63b8ff" d="M507.75,-85.53C512.69,-84.37 517.6,-83.26 522.38,-82.25 619.32,-61.77 732.19,-44.76 806.01,-34.53"/>
<polygon fill="#63b8ff" stroke="#63b8ff" points="507.31,-82.04 498.42,-87.8 508.96,-88.84 507.31,-82.04"/>
</a>
</g>
</g>
<!-- Node94 -->
<g id="Node000094" class="node">
<title>Node94</title>
<g id="a_Node000094"><a xlink:href="../../d1/df6/twinklefox_8h.html" target="_top" xlink:title=" ">
<polygon fill="#fff0f0" stroke="red" points="1416.38,-39.88 1250.38,-39.88 1250.38,-6.38 1416.38,-6.38 1416.38,-39.88"/>
<text text-anchor="start" x="1258.38" y="-26.38" font-family="Helvetica,sans-Serif" font-size="10.00">/home/runner/work/FastLED</text>
<text text-anchor="middle" x="1333.38" y="-13.62" font-family="Helvetica,sans-Serif" font-size="10.00">/FastLED/src/fx/1d/twinklefox.h</text>
</a>
</g>
</g>
<!-- Node8&#45;&gt;Node94 -->
<g id="edge13_Node000008_Node000094" class="edge">
<title>Node8&#45;&gt;Node94</title>
<g id="a_edge13_Node000008_Node000094"><a xlink:title=" ">
<path fill="none" stroke="#63b8ff" d="M504.14,-85.7C510.27,-84.37 516.42,-83.18 522.38,-82.25 818.3,-35.86 897.52,-78 1195.38,-46.25 1213.11,-44.36 1232.04,-41.73 1250.01,-38.94"/>
<polygon fill="#63b8ff" stroke="#63b8ff" points="503.59,-82.23 494.63,-87.89 505.17,-89.05 503.59,-82.23"/>
</a>
</g>
</g>
<!-- Node120&#45;&gt;Node17 -->
<g id="edge18_Node000120_Node000017" class="edge">
<title>Node120&#45;&gt;Node17</title>
<g id="a_edge18_Node000120_Node000017"><a xlink:title=" ">
<path fill="none" stroke="#63b8ff" d="M1106.68,-323.89C1106.15,-314.15 1105.64,-303.09 1105.38,-293 1104.85,-272.45 1098.07,-265.96 1105.38,-246.75 1112.98,-226.74 1129.77,-230.76 1137.38,-210.75 1144.68,-191.54 1139.95,-184.89 1137.38,-164.5 1132.02,-122.07 1117.9,-74.09 1109.02,-46.64"/>
<polygon fill="#63b8ff" stroke="#63b8ff" points="1103.18,-324.05 1107.25,-333.83 1110.17,-323.65 1103.18,-324.05"/>
</a>
</g>
</g>
<!-- Node120&#45;&gt;Node121 -->
<g id="edge19_Node000120_Node000121" class="edge">
<title>Node120&#45;&gt;Node121</title>
<g id="a_edge19_Node000120_Node000121"><a xlink:title=" ">
<path fill="none" stroke="#63b8ff" d="M1022.02,-335.22C964.2,-324.22 886.49,-308.78 818.38,-293 815.44,-292.32 812.44,-291.61 809.43,-290.88"/>
<polygon fill="#63b8ff" stroke="#63b8ff" points="1021.34,-338.65 1031.82,-337.07 1022.64,-331.77 1021.34,-338.65"/>
</a>
</g>
</g>
<!-- Node120&#45;&gt;Node123 -->
<g id="edge20_Node000120_Node000123" class="edge">
<title>Node120&#45;&gt;Node123</title>
<g id="a_edge20_Node000120_Node000123"><a xlink:title=" ">
<path fill="none" stroke="#63b8ff" d="M1087,-325.94C1079.75,-316.2 1072.25,-304.62 1067.38,-293 1054.98,-263.45 1050.66,-225.85 1049.16,-204.79"/>
<polygon fill="#63b8ff" stroke="#63b8ff" points="1084.23,-328.07 1093.15,-333.8 1089.75,-323.76 1084.23,-328.07"/>
</a>
</g>
</g>
<!-- Node124 -->
<g id="Node000124" class="node">
<title>Node124</title>
<g id="a_Node000124"><a xlink:href="../../d7/d0d/fl_2screenmap_8h.html" target="_top" xlink:title=" ">
<polygon fill="#fff0f0" stroke="red" points="977.12,-286.62 827.62,-286.62 827.62,-253.12 977.12,-253.12 977.12,-286.62"/>
<text text-anchor="start" x="835.62" y="-273.12" font-family="Helvetica,sans-Serif" font-size="10.00">/home/runner/work/FastLED</text>
<text text-anchor="middle" x="902.38" y="-260.38" font-family="Helvetica,sans-Serif" font-size="10.00">/FastLED/src/fl/screenmap.h</text>
</a>
</g>
</g>
<!-- Node120&#45;&gt;Node124 -->
<g id="edge21_Node000120_Node000124" class="edge">
<title>Node120&#45;&gt;Node124</title>
<g id="a_edge21_Node000120_Node000124"><a xlink:title=" ">
<path fill="none" stroke="#63b8ff" d="M1056.25,-330.82C1021.48,-317.27 976.37,-299.7 944,-287.09"/>
<polygon fill="#63b8ff" stroke="#63b8ff" points="1054.69,-333.97 1065.28,-334.34 1057.23,-327.44 1054.69,-333.97"/>
</a>
</g>
</g>
<!-- Node128 -->
<g id="Node000128" class="node">
<title>Node128</title>
<g id="a_Node000128"><a xlink:href="../../d9/d3c/fx__engine_8h.html" target="_top" xlink:title=" ">
<polygon fill="#fff0f0" stroke="red" points="2598.12,-39.88 2448.62,-39.88 2448.62,-6.38 2598.12,-6.38 2598.12,-39.88"/>
<text text-anchor="start" x="2456.62" y="-26.38" font-family="Helvetica,sans-Serif" font-size="10.00">/home/runner/work/FastLED</text>
<text text-anchor="middle" x="2523.38" y="-13.62" font-family="Helvetica,sans-Serif" font-size="10.00">/FastLED/src/fx/fx_engine.h</text>
</a>
</g>
</g>
<!-- Node120&#45;&gt;Node128 -->
<g id="edge28_Node000120_Node000128" class="edge">
<title>Node120&#45;&gt;Node128</title>
<g id="a_edge28_Node000120_Node000128"><a xlink:title=" ">
<path fill="none" stroke="#63b8ff" d="M1109.17,-323.69C1111.33,-300.23 1118.09,-267.11 1138.38,-246.75 1230.51,-154.25 1292.56,-191.1 1420.38,-164.5 1802.37,-85 2268.75,-43.53 2448.14,-29.6"/>
<polygon fill="#63b8ff" stroke="#63b8ff" points="1105.7,-323.25 1108.52,-333.46 1112.68,-323.71 1105.7,-323.25"/>
</a>
</g>
</g>
<!-- Node130 -->
<g id="Node000130" class="node">
<title>Node130</title>
<g id="a_Node000130"><a xlink:href="../../d3/dda/frame__interpolator_8h.html" target="_top" xlink:title=" ">
<polygon fill="#fff0f0" stroke="red" points="1297.12,-293 1147.62,-293 1147.62,-246.75 1297.12,-246.75 1297.12,-293"/>
<text text-anchor="start" x="1155.62" y="-279.5" font-family="Helvetica,sans-Serif" font-size="10.00">/home/runner/work/FastLED</text>
<text text-anchor="start" x="1155.62" y="-266.75" font-family="Helvetica,sans-Serif" font-size="10.00">/FastLED/src/fx/video/frame</text>
<text text-anchor="middle" x="1222.38" y="-254" font-family="Helvetica,sans-Serif" font-size="10.00">_interpolator.h</text>
</a>
</g>
</g>
<!-- Node120&#45;&gt;Node130 -->
<g id="edge29_Node000120_Node000130" class="edge">
<title>Node120&#45;&gt;Node130</title>
<g id="a_edge29_Node000120_Node000130"><a xlink:title=" ">
<path fill="none" stroke="#63b8ff" d="M1140.67,-328.39C1156.2,-317.46 1174.76,-304.39 1190.27,-293.48"/>
<polygon fill="#63b8ff" stroke="#63b8ff" points="1138.84,-325.4 1132.68,-334.01 1142.87,-331.12 1138.84,-325.4"/>
</a>
</g>
</g>
<!-- Node124&#45;&gt;Node3 -->
<g id="edge23_Node000124_Node000003" class="edge">
<title>Node124&#45;&gt;Node3</title>
<g id="a_edge23_Node000124_Node000003"><a xlink:title=" ">
<path fill="none" stroke="#63b8ff" d="M833.56,-250.01C828.44,-248.83 823.34,-247.73 818.38,-246.75 604.09,-204.47 497.29,-281.46 341.38,-128.5 318.49,-106.05 306.91,-69.88 301.52,-46.55"/>
<polygon fill="#63b8ff" stroke="#63b8ff" points="832.75,-253.41 843.28,-252.33 834.37,-246.6 832.75,-253.41"/>
</a>
</g>
</g>
<!-- Node124&#45;&gt;Node4 -->
<g id="edge24_Node000124_Node000004" class="edge">
<title>Node124&#45;&gt;Node4</title>
<g id="a_edge24_Node000124_Node000004"><a xlink:title=" ">
<path fill="none" stroke="#63b8ff" d="M836.31,-250.22C830.28,-248.9 824.23,-247.71 818.38,-246.75 583.19,-208.23 520.37,-235.82 283.38,-210.75 266.69,-208.99 249.04,-206.76 231.88,-204.41"/>
<polygon fill="#63b8ff" stroke="#63b8ff" points="835.11,-253.54 845.65,-252.39 836.7,-246.72 835.11,-253.54"/>
</a>
</g>
</g>
<!-- Node124&#45;&gt;Node6 -->
<g id="edge26_Node000124_Node000006" class="edge">
<title>Node124&#45;&gt;Node6</title>
<g id="a_edge26_Node000124_Node000006"><a xlink:title=" ">
<path fill="none" stroke="#63b8ff" d="M836.5,-249.37C797.21,-237.73 747.22,-222.93 706.42,-210.85"/>
<polygon fill="#63b8ff" stroke="#63b8ff" points="835.5,-252.72 846.08,-252.21 837.49,-246.01 835.5,-252.72"/>
</a>
</g>
</g>
<!-- Node124&#45;&gt;Node17 -->
<g id="edge22_Node000124_Node000017" class="edge">
<title>Node124&#45;&gt;Node17</title>
<g id="a_edge22_Node000124_Node000017"><a xlink:title=" ">
<path fill="none" stroke="#63b8ff" d="M914.08,-242.61C924.44,-220.7 940.78,-189.19 959.38,-164.5 994.1,-118.4 1043.72,-72.88 1074.17,-46.7"/>
<polygon fill="#63b8ff" stroke="#63b8ff" points="911.02,-240.89 909.99,-251.43 917.37,-243.83 911.02,-240.89"/>
</a>
</g>
</g>
<!-- Node124&#45;&gt;Node69 -->
<g id="edge25_Node000124_Node000069" class="edge">
<title>Node124&#45;&gt;Node69</title>
<g id="a_edge25_Node000124_Node000069"><a xlink:title=" ">
<path fill="none" stroke="#63b8ff" d="M900.82,-241.79C898.69,-205.46 894.64,-138.97 890.38,-82.25 889.3,-67.91 887.88,-51.59 886.83,-39.91"/>
<polygon fill="#63b8ff" stroke="#63b8ff" points="897.3,-241.6 901.38,-251.38 904.29,-241.19 897.3,-241.6"/>
</a>
</g>
</g>
<!-- Node124&#45;&gt;Node123 -->
<g id="edge27_Node000124_Node000123" class="edge">
<title>Node124&#45;&gt;Node123</title>
<g id="a_edge27_Node000124_Node000123"><a xlink:title=" ">
<path fill="none" stroke="#63b8ff" d="M941.89,-247.15C966.16,-233.82 996.72,-217.02 1018.87,-204.84"/>
<polygon fill="#63b8ff" stroke="#63b8ff" points="940.32,-244.02 933.25,-251.91 943.7,-250.16 940.32,-244.02"/>
</a>
</g>
</g>
<!-- Node131 -->
<g id="Node000131" class="node">
<title>Node131</title>
<g id="a_Node000131"><a xlink:href="../../d0/d05/video_8cpp.html" target="_top" xlink:title=" ">
<polygon fill="white" stroke="#666666" points="1579.12,-204.38 1429.62,-204.38 1429.62,-170.88 1579.12,-170.88 1579.12,-204.38"/>
<text text-anchor="start" x="1437.62" y="-190.88" font-family="Helvetica,sans-Serif" font-size="10.00">/home/runner/work/FastLED</text>
<text text-anchor="middle" x="1504.38" y="-178.12" font-family="Helvetica,sans-Serif" font-size="10.00">/FastLED/src/fx/video.cpp</text>
</a>
</g>
</g>
<!-- Node130&#45;&gt;Node131 -->
<g id="edge30_Node000130_Node000131" class="edge">
<title>Node130&#45;&gt;Node131</title>
<g id="a_edge30_Node000130_Node000131"><a xlink:title=" ">
<path fill="none" stroke="#63b8ff" d="M1308.56,-244.35C1353.74,-231.49 1407.83,-216.1 1447.69,-204.76"/>
<polygon fill="#63b8ff" stroke="#63b8ff" points="1307.69,-240.96 1299.03,-247.06 1309.61,-247.69 1307.69,-240.96"/>
</a>
</g>
</g>
<!-- Node136&#45;&gt;Node17 -->
<g id="edge35_Node000136_Node000017" class="edge">
<title>Node136&#45;&gt;Node17</title>
<g id="a_edge35_Node000136_Node000017"><a xlink:title=" ">
<path fill="none" stroke="#63b8ff" d="M1539.89,-337.03C1499.27,-328.12 1451.15,-314.18 1411.38,-293 1346.45,-258.43 1184.56,-104.68 1124.38,-46.52"/>
<polygon fill="#63b8ff" stroke="#63b8ff" points="1539.15,-340.45 1549.66,-339.09 1540.6,-333.6 1539.15,-340.45"/>
</a>
</g>
</g>
<!-- Node136&#45;&gt;Node94 -->
<g id="edge43_Node000136_Node000094" class="edge">
<title>Node136&#45;&gt;Node94</title>
<g id="a_edge43_Node000136_Node000094"><a xlink:title=" ">
<path fill="none" stroke="#63b8ff" d="M1540.18,-339.99C1507.46,-331.81 1472.16,-317.62 1447.38,-293 1377.35,-223.44 1423.33,-169.6 1377.38,-82.25 1369.24,-66.79 1357.09,-51.11 1347.62,-39.94"/>
<polygon fill="#63b8ff" stroke="#63b8ff" points="1539.14,-343.35 1549.68,-342.2 1540.73,-336.53 1539.14,-343.35"/>
</a>
</g>
</g>
<!-- Node136&#45;&gt;Node123 -->
<g id="edge39_Node000136_Node000123" class="edge">
<title>Node136&#45;&gt;Node123</title>
<g id="a_edge39_Node000136_Node000123"><a xlink:title=" ">
<path fill="none" stroke="#63b8ff" d="M1540,-346.54C1482.8,-340.36 1407.83,-326.03 1349.38,-293 1324.94,-279.19 1330.71,-260.74 1306.38,-246.75 1252.04,-215.52 1182.3,-201.07 1129.02,-194.38"/>
<polygon fill="#63b8ff" stroke="#63b8ff" points="1539.39,-350 1549.69,-347.52 1540.09,-343.03 1539.39,-350"/>
</a>
</g>
</g>
<!-- Node136&#45;&gt;Node124 -->
<g id="edge40_Node000136_Node000124" class="edge">
<title>Node136&#45;&gt;Node124</title>
<g id="a_edge40_Node000136_Node000124"><a xlink:title=" ">
<path fill="none" stroke="#63b8ff" d="M1539.97,-341.55C1396.79,-325.68 1112.77,-294.2 977.45,-279.2"/>
<polygon fill="#63b8ff" stroke="#63b8ff" points="1539.45,-345.01 1549.78,-342.63 1540.22,-338.05 1539.45,-345.01"/>
</a>
</g>
</g>
<!-- Node136&#45;&gt;Node131 -->
<g id="edge51_Node000136_Node000131" class="edge">
<title>Node136&#45;&gt;Node131</title>
<g id="a_edge51_Node000136_Node000131"><a xlink:title=" ">
<path fill="none" stroke="#63b8ff" d="M1540.48,-342.09C1509.42,-334.19 1477.35,-319.65 1458.38,-293 1438.16,-264.61 1467.48,-225.92 1487.78,-204.52"/>
<polygon fill="#63b8ff" stroke="#63b8ff" points="1539.4,-345.43 1549.93,-344.27 1540.97,-338.61 1539.4,-345.43"/>
</a>
</g>
</g>
<!-- Node106 -->
<g id="Node000106" class="node">
<title>Node106</title>
<g id="a_Node000106"><a xlink:href="../../d0/d4b/crgb_8hpp.html" target="_top" xlink:title="Defines utility functions for the red, green, and blue (RGB) pixel struct.">
<polygon fill="#fff0f0" stroke="red" points="1785.12,-286.62 1635.62,-286.62 1635.62,-253.12 1785.12,-253.12 1785.12,-286.62"/>
<text text-anchor="start" x="1643.62" y="-273.12" font-family="Helvetica,sans-Serif" font-size="10.00">/home/runner/work/FastLED</text>
<text text-anchor="middle" x="1710.38" y="-260.38" font-family="Helvetica,sans-Serif" font-size="10.00">/FastLED/src/crgb.hpp</text>
</a>
</g>
</g>
<!-- Node136&#45;&gt;Node106 -->
<g id="edge36_Node000136_Node000106" class="edge">
<title>Node136&#45;&gt;Node106</title>
<g id="a_edge36_Node000136_Node000106"><a xlink:title=" ">
<path fill="none" stroke="#63b8ff" d="M1651.38,-327.23C1664.94,-314.28 1681.34,-298.61 1693.4,-287.09"/>
<polygon fill="#63b8ff" stroke="#63b8ff" points="1649.28,-324.4 1644.47,-333.84 1654.12,-329.46 1649.28,-324.4"/>
</a>
</g>
</g>
<!-- Node137 -->
<g id="Node000137" class="node">
<title>Node137</title>
<g id="a_Node000137"><a xlink:href="../../d9/d28/fl_2file__system_8h.html" target="_top" xlink:title=" ">
<polygon fill="#fff0f0" stroke="red" points="2318.25,-204.38 2166.5,-204.38 2166.5,-170.88 2318.25,-170.88 2318.25,-204.38"/>
<text text-anchor="start" x="2174.5" y="-190.88" font-family="Helvetica,sans-Serif" font-size="10.00">/home/runner/work/FastLED</text>
<text text-anchor="middle" x="2242.38" y="-178.12" font-family="Helvetica,sans-Serif" font-size="10.00">/FastLED/src/fl/file_system.h</text>
</a>
</g>
</g>
<!-- Node136&#45;&gt;Node137 -->
<g id="edge37_Node000136_Node000137" class="edge">
<title>Node136&#45;&gt;Node137</title>
<g id="a_edge37_Node000136_Node000137"><a xlink:title=" ">
<path fill="none" stroke="#63b8ff" d="M1712.86,-351.66C1917.05,-352.01 2415.75,-347.25 2466.38,-293 2516.06,-239.75 2401.37,-211.23 2318.44,-198.05"/>
<polygon fill="#63b8ff" stroke="#63b8ff" points="1713.12,-348.16 1703.11,-351.63 1713.11,-355.16 1713.12,-348.16"/>
</a>
</g>
</g>
<!-- Node141 -->
<g id="Node000141" class="node">
<title>Node141</title>
<g id="a_Node000141"><a xlink:href="../../dd/d55/json_8cpp.html" target="_top" xlink:title=" ">
<polygon fill="white" stroke="#666666" points="1953.12,-286.62 1803.62,-286.62 1803.62,-253.12 1953.12,-253.12 1953.12,-286.62"/>
<text text-anchor="start" x="1811.62" y="-273.12" font-family="Helvetica,sans-Serif" font-size="10.00">/home/runner/work/FastLED</text>
<text text-anchor="middle" x="1878.38" y="-260.38" font-family="Helvetica,sans-Serif" font-size="10.00">/FastLED/src/fl/json.cpp</text>
</a>
</g>
</g>
<!-- Node136&#45;&gt;Node141 -->
<g id="edge38_Node000136_Node000141" class="edge">
<title>Node136&#45;&gt;Node141</title>
<g id="a_edge38_Node000136_Node000141"><a xlink:title=" ">
<path fill="none" stroke="#63b8ff" d="M1688.22,-331.43C1731.01,-317.8 1787.26,-299.89 1827.45,-287.09"/>
<polygon fill="#63b8ff" stroke="#63b8ff" points="1687.28,-328.06 1678.81,-334.43 1689.4,-334.73 1687.28,-328.06"/>
</a>
</g>
</g>
<!-- Node142 -->
<g id="Node000142" class="node">
<title>Node142</title>
<g id="a_Node000142"><a xlink:href="../../d1/d1f/str_8cpp.html" target="_top" xlink:title=" ">
<polygon fill="white" stroke="#666666" points="2121.12,-286.62 1971.62,-286.62 1971.62,-253.12 2121.12,-253.12 2121.12,-286.62"/>
<text text-anchor="start" x="1979.62" y="-273.12" font-family="Helvetica,sans-Serif" font-size="10.00">/home/runner/work/FastLED</text>
<text text-anchor="middle" x="2046.38" y="-260.38" font-family="Helvetica,sans-Serif" font-size="10.00">/FastLED/src/fl/str.cpp</text>
</a>
</g>
</g>
<!-- Node136&#45;&gt;Node142 -->
<g id="edge41_Node000136_Node000142" class="edge">
<title>Node136&#45;&gt;Node142</title>
<g id="a_edge41_Node000136_Node000142"><a xlink:title=" ">
<path fill="none" stroke="#63b8ff" d="M1712.56,-338.31C1780.67,-327.68 1877.99,-311.38 1962.38,-293 1970.48,-291.24 1978.98,-289.21 1987.33,-287.11"/>
<polygon fill="#63b8ff" stroke="#63b8ff" points="1712.31,-334.81 1702.96,-339.8 1713.38,-341.73 1712.31,-334.81"/>
</a>
</g>
</g>
<!-- Node143 -->
<g id="Node000143" class="node">
<title>Node143</title>
<g id="a_Node000143"><a xlink:href="../../d8/d00/strstream_8h.html" target="_top" xlink:title=" ">
<polygon fill="#fff0f0" stroke="red" points="2289.12,-286.62 2139.62,-286.62 2139.62,-253.12 2289.12,-253.12 2289.12,-286.62"/>
<text text-anchor="start" x="2147.62" y="-273.12" font-family="Helvetica,sans-Serif" font-size="10.00">/home/runner/work/FastLED</text>
<text text-anchor="middle" x="2214.38" y="-260.38" font-family="Helvetica,sans-Serif" font-size="10.00">/FastLED/src/fl/strstream.h</text>
</a>
</g>
</g>
<!-- Node136&#45;&gt;Node143 -->
<g id="edge42_Node000136_Node000143" class="edge">
<title>Node136&#45;&gt;Node143</title>
<g id="a_edge42_Node000136_Node000143"><a xlink:title=" ">
<path fill="none" stroke="#63b8ff" d="M1712.94,-344.92C1813.79,-336.82 1985.15,-320.36 2130.38,-293 2139.12,-291.35 2148.29,-289.29 2157.24,-287.09"/>
<polygon fill="#63b8ff" stroke="#63b8ff" points="1712.8,-341.42 1703.1,-345.7 1713.35,-348.4 1712.8,-341.42"/>
</a>
</g>
</g>
<!-- Node155 -->
<g id="Node000155" class="node">
<title>Node155</title>
<g id="a_Node000155"><a xlink:href="../../d2/d0c/fx_8h.html" target="_top" xlink:title=" ">
<polygon fill="#fff0f0" stroke="red" points="2701.12,-286.62 2551.62,-286.62 2551.62,-253.12 2701.12,-253.12 2701.12,-286.62"/>
<text text-anchor="start" x="2559.62" y="-273.12" font-family="Helvetica,sans-Serif" font-size="10.00">/home/runner/work/FastLED</text>
<text text-anchor="middle" x="2626.38" y="-260.38" font-family="Helvetica,sans-Serif" font-size="10.00">/FastLED/src/fx/fx.h</text>
</a>
</g>
</g>
<!-- Node136&#45;&gt;Node155 -->
<g id="edge44_Node000136_Node000155" class="edge">
<title>Node136&#45;&gt;Node155</title>
<g id="a_edge44_Node000136_Node000155"><a xlink:title=" ">
<path fill="none" stroke="#63b8ff" d="M1712.8,-348.41C1869.88,-342.79 2212.47,-327.44 2499.38,-293 2516.26,-290.97 2534.32,-288.2 2551.36,-285.3"/>
<polygon fill="#63b8ff" stroke="#63b8ff" points="1712.74,-344.91 1702.87,-348.76 1712.99,-351.9 1712.74,-344.91"/>
</a>
</g>
</g>
<!-- Node157 -->
<g id="Node000157" class="node">
<title>Node157</title>
<g id="a_Node000157"><a xlink:href="../../dd/d78/video_8h.html" target="_top" xlink:title=" ">
<polygon fill="#fff0f0" stroke="red" points="1617.12,-286.62 1467.62,-286.62 1467.62,-253.12 1617.12,-253.12 1617.12,-286.62"/>
<text text-anchor="start" x="1475.62" y="-273.12" font-family="Helvetica,sans-Serif" font-size="10.00">/home/runner/work/FastLED</text>
<text text-anchor="middle" x="1542.38" y="-260.38" font-family="Helvetica,sans-Serif" font-size="10.00">/FastLED/src/fx/video.h</text>
</a>
</g>
</g>
<!-- Node136&#45;&gt;Node157 -->
<g id="edge52_Node000136_Node000157" class="edge">
<title>Node136&#45;&gt;Node157</title>
<g id="a_edge52_Node000136_Node000157"><a xlink:title=" ">
<path fill="none" stroke="#63b8ff" d="M1601.37,-327.23C1587.81,-314.28 1571.41,-298.61 1559.35,-287.09"/>
<polygon fill="#63b8ff" stroke="#63b8ff" points="1598.63,-329.46 1608.28,-333.84 1603.47,-324.4 1598.63,-329.46"/>
</a>
</g>
</g>
<!-- Node160 -->
<g id="Node000160" class="node">
<title>Node160</title>
<g id="a_Node000160"><a xlink:href="../../d1/d93/str_8h.html" target="_top" xlink:title=" ">
<polygon fill="white" stroke="#666666" points="2457.12,-286.62 2307.62,-286.62 2307.62,-253.12 2457.12,-253.12 2457.12,-286.62"/>
<text text-anchor="start" x="2315.62" y="-273.12" font-family="Helvetica,sans-Serif" font-size="10.00">/home/runner/work/FastLED</text>
<text text-anchor="middle" x="2382.38" y="-260.38" font-family="Helvetica,sans-Serif" font-size="10.00">/FastLED/src/str.h</text>
</a>
</g>
</g>
<!-- Node136&#45;&gt;Node160 -->
<g id="edge56_Node000136_Node000160" class="edge">
<title>Node136&#45;&gt;Node160</title>
<g id="a_edge56_Node000136_Node000160"><a xlink:title=" ">
<path fill="none" stroke="#63b8ff" d="M1712.8,-348.38C1841.32,-343.23 2090.06,-329.17 2298.38,-293 2307.44,-291.43 2316.95,-289.35 2326.19,-287.09"/>
<polygon fill="#63b8ff" stroke="#63b8ff" points="1712.86,-344.87 1703.01,-348.76 1713.14,-351.87 1712.86,-344.87"/>
</a>
</g>
</g>
<!-- Node155&#45;&gt;Node128 -->
<g id="edge50_Node000155_Node000128" class="edge">
<title>Node155&#45;&gt;Node128</title>
<g id="a_edge50_Node000155_Node000128"><a xlink:title=" ">
<path fill="none" stroke="#63b8ff" d="M2630.35,-241.5C2634.52,-203.06 2636.89,-132.22 2607.38,-82.25 2596.46,-63.77 2577.1,-49.78 2559.71,-40.15"/>
<polygon fill="#63b8ff" stroke="#63b8ff" points="2626.9,-240.92 2629.16,-251.27 2633.85,-241.76 2626.9,-240.92"/>
</a>
</g>
</g>
<!-- Node155&#45;&gt;Node151 -->
<g id="edge45_Node000155_Node000151" class="edge">
<title>Node155&#45;&gt;Node151</title>
<g id="a_edge45_Node000155_Node000151"><a xlink:title=" ">
<path fill="none" stroke="#63b8ff" d="M2610.16,-243.3C2590.22,-211.84 2556.69,-158.94 2537.67,-128.94"/>
<polygon fill="#63b8ff" stroke="#63b8ff" points="2607,-244.85 2615.31,-251.42 2612.91,-241.1 2607,-244.85"/>
</a>
</g>
</g>
<!-- Node155&#45;&gt;Node150 -->
<g id="edge47_Node000155_Node000150" class="edge">
<title>Node155&#45;&gt;Node150</title>
<g id="a_edge47_Node000155_Node000150"><a xlink:title=" ">
<path fill="none" stroke="#63b8ff" d="M2655.95,-245.83C2669.9,-234.96 2686.49,-222.04 2700.37,-211.23"/>
<polygon fill="#63b8ff" stroke="#63b8ff" points="2654.15,-242.8 2648.41,-251.7 2658.45,-248.32 2654.15,-242.8"/>
</a>
</g>
</g>
<!-- Node151&#45;&gt;Node128 -->
<g id="edge46_Node000151_Node000128" class="edge">
<title>Node151&#45;&gt;Node128</title>
<g id="a_edge46_Node000151_Node000128"><a xlink:title=" ">
<path fill="none" stroke="#63b8ff" d="M2523.38,-70.57C2523.38,-60.07 2523.38,-48.97 2523.38,-40.25"/>
<polygon fill="#63b8ff" stroke="#63b8ff" points="2519.88,-70.51 2523.38,-80.51 2526.88,-70.51 2519.88,-70.51"/>
</a>
</g>
</g>
<!-- Node150&#45;&gt;Node128 -->
<g id="edge49_Node000150_Node000128" class="edge">
<title>Node150&#45;&gt;Node128</title>
<g id="a_edge49_Node000150_Node000128"><a xlink:title=" ">
<path fill="none" stroke="#63b8ff" d="M2707.92,-155.23C2691.41,-132.79 2666.98,-103.02 2640.38,-82.25 2617.85,-64.66 2589.15,-50.31 2565.82,-40.26"/>
<polygon fill="#63b8ff" stroke="#63b8ff" points="2704.92,-157.05 2713.6,-163.12 2710.59,-152.96 2704.92,-157.05"/>
</a>
</g>
</g>
<!-- Node150&#45;&gt;Node151 -->
<g id="edge48_Node000150_Node000151" class="edge">
<title>Node150&#45;&gt;Node151</title>
<g id="a_edge48_Node000150_Node000151"><a xlink:title=" ">
<path fill="none" stroke="#63b8ff" d="M2660.97,-159.98C2635.13,-149.91 2606.01,-138.57 2581.23,-128.91"/>
<polygon fill="#63b8ff" stroke="#63b8ff" points="2659.45,-163.14 2670.03,-163.51 2661.99,-156.62 2659.45,-163.14"/>
</a>
</g>
</g>
<!-- Node157&#45;&gt;Node128 -->
<g id="edge54_Node000157_Node000128" class="edge">
<title>Node157&#45;&gt;Node128</title>
<g id="a_edge54_Node000157_Node000128"><a xlink:title=" ">
<path fill="none" stroke="#63b8ff" d="M1614.26,-249.87C1618.36,-248.81 1622.42,-247.76 1626.38,-246.75 1936.3,-167.48 2307.55,-76.65 2456.62,-40.35"/>
<polygon fill="#63b8ff" stroke="#63b8ff" points="1613.63,-246.42 1604.83,-252.32 1615.39,-253.19 1613.63,-246.42"/>
</a>
</g>
</g>
<!-- Node157&#45;&gt;Node131 -->
<g id="edge55_Node000157_Node000131" class="edge">
<title>Node157&#45;&gt;Node131</title>
<g id="a_edge55_Node000157_Node000131"><a xlink:title=" ">
<path fill="none" stroke="#63b8ff" d="M1529.83,-242.38C1523.96,-229.98 1517.15,-215.6 1512.05,-204.84"/>
<polygon fill="#63b8ff" stroke="#63b8ff" points="1526.59,-243.73 1534.04,-251.27 1532.92,-240.73 1526.59,-243.73"/>
</a>
</g>
</g>
<!-- Node157&#45;&gt;Node137 -->
<g id="edge53_Node000157_Node000137" class="edge">
<title>Node157&#45;&gt;Node137</title>
<g id="a_edge53_Node000157_Node000137"><a xlink:title=" ">
<path fill="none" stroke="#63b8ff" d="M1609.48,-250.16C1615.17,-248.89 1620.86,-247.73 1626.38,-246.75 1819.13,-212.51 2049.64,-197.56 2166.45,-191.79"/>
<polygon fill="#63b8ff" stroke="#63b8ff" points="1608.98,-246.68 1600.05,-252.38 1610.58,-253.5 1608.98,-246.68"/>
</a>
</g>
</g>
<!-- Node153 -->
<g id="Node000153" class="node">
<title>Node153</title>
<g id="a_Node000153"><a xlink:href="../../d3/dc3/animartrix_8hpp.html" target="_top" xlink:title=" ">
<polygon fill="#fff0f0" stroke="red" points="2935,-286.62 2757.75,-286.62 2757.75,-253.12 2935,-253.12 2935,-286.62"/>
<text text-anchor="start" x="2765.75" y="-273.12" font-family="Helvetica,sans-Serif" font-size="10.00">/home/runner/work/FastLED</text>
<text text-anchor="middle" x="2846.38" y="-260.38" font-family="Helvetica,sans-Serif" font-size="10.00">/FastLED/src/fx/2d/animartrix.hpp</text>
</a>
</g>
</g>
<!-- Node161&#45;&gt;Node153 -->
<g id="edge58_Node000161_Node000153" class="edge">
<title>Node161&#45;&gt;Node153</title>
<g id="a_edge58_Node000161_Node000153"><a xlink:title=" ">
<path fill="none" stroke="#63b8ff" d="M2842.9,-317.32C2843.69,-306.82 2844.52,-295.72 2845.17,-287"/>
<polygon fill="#63b8ff" stroke="#63b8ff" points="2839.41,-317.03 2842.16,-327.26 2846.4,-317.55 2839.41,-317.03"/>
</a>
</g>
</g>
</g>
</svg>
