<?xml version="1.0" encoding="UTF-8" standalone="no"?>
<!DOCTYPE svg PUBLIC "-//W3C//DTD SVG 1.1//EN"
 "http://www.w3.org/Graphics/SVG/1.1/DTD/svg11.dtd">
<!-- Generated by graphviz version 12.2.1 (20241206.2353)
 -->
<!-- Title: WS2803Controller&lt; DATA_PIN, CLOCK_PIN, RGB_ORDER, SPI_SPEED &gt; Pages: 1 -->
<svg width="1501pt" height="293pt"
 viewBox="0.00 0.00 1501.25 293.00" xmlns="http://www.w3.org/2000/svg" xmlns:xlink="http://www.w3.org/1999/xlink">
<g id="graph0" class="graph" transform="scale(1 1) rotate(0) translate(4 289)">
<title>WS2803Controller&lt; DATA_PIN, CLOCK_PIN, RGB_ORDER, SPI_SPEED &gt;</title>
<!-- Node1 -->
<g id="Node000001" class="node">
<title>Node1</title>
<g id="a_Node000001"><a xlink:title="WS2803 controller class.">
<polygon fill="#999999" stroke="#666666" points="1493.25,-137.5 1325,-137.5 1325,-91.25 1493.25,-91.25 1493.25,-137.5"/>
<text text-anchor="start" x="1333" y="-124" font-family="Helvetica,sans-Serif" font-size="10.00">WS2803Controller&lt; DATA</text>
<text text-anchor="start" x="1333" y="-111.25" font-family="Helvetica,sans-Serif" font-size="10.00">_PIN, CLOCK_PIN, RGB_ORDER,</text>
<text text-anchor="middle" x="1409.12" y="-98.5" font-family="Helvetica,sans-Serif" font-size="10.00"> SPI_SPEED &gt;</text>
</a>
</g>
</g>
<!-- Node2 -->
<g id="Node000002" class="node">
<title>Node2</title>
<g id="a_Node000002"><a xlink:href="../../df/d0d/group___clocked_chipsets.html" target="_top" xlink:title=" ">
<polygon fill="white" stroke="#666666" points="1288,-137.5 1147.5,-137.5 1147.5,-91.25 1288,-91.25 1288,-137.5"/>
<text text-anchor="start" x="1155.5" y="-124" font-family="Helvetica,sans-Serif" font-size="10.00">WS2801Controller&lt; DATA</text>
<text text-anchor="start" x="1155.5" y="-111.25" font-family="Helvetica,sans-Serif" font-size="10.00">_PIN, CLOCK_PIN, RGB,</text>
<text text-anchor="middle" x="1217.75" y="-98.5" font-family="Helvetica,sans-Serif" font-size="10.00"> DATA_RATE_MHZ(25) &gt;</text>
</a>
</g>
</g>
<!-- Node2&#45;&gt;Node1 -->
<g id="edge1_Node000001_Node000002" class="edge">
<title>Node2&#45;&gt;Node1</title>
<g id="a_edge1_Node000001_Node000002"><a xlink:title=" ">
<path fill="none" stroke="#63b8ff" d="M1299.96,-114.38C1308.17,-114.38 1316.52,-114.38 1324.76,-114.38"/>
<polygon fill="#63b8ff" stroke="#63b8ff" points="1299.97,-110.88 1289.97,-114.38 1299.97,-117.88 1299.97,-110.88"/>
</a>
</g>
</g>
<!-- Node3 -->
<g id="Node000003" class="node">
<title>Node3</title>
<g id="a_Node000003"><a xlink:href="../../d0/dc9/class_c_pixel_l_e_d_controller.html" target="_top" xlink:title="Template extension of the CLEDController class.">
<polygon fill="white" stroke="#666666" points="780.5,-237.5 651.25,-237.5 651.25,-191.25 780.5,-191.25 780.5,-237.5"/>
<text text-anchor="start" x="659.25" y="-224" font-family="Helvetica,sans-Serif" font-size="10.00">CPixelLEDController</text>
<text text-anchor="start" x="659.25" y="-211.25" font-family="Helvetica,sans-Serif" font-size="10.00">&lt; RGB_ORDER, LANES,</text>
<text text-anchor="middle" x="715.88" y="-198.5" font-family="Helvetica,sans-Serif" font-size="10.00"> MASK &gt;</text>
</a>
</g>
</g>
<!-- Node3&#45;&gt;Node2 -->
<g id="edge2_Node000002_Node000003" class="edge">
<title>Node3&#45;&gt;Node2</title>
<g id="a_edge2_Node000002_Node000003"><a xlink:title=" ">
<path fill="none" stroke="#63b8ff" d="M792.15,-207.66C875.69,-199.02 1013.98,-181.2 1129.5,-149.38 1140.67,-146.3 1152.36,-142.23 1163.41,-137.97"/>
<polygon fill="#63b8ff" stroke="#63b8ff" points="791.83,-204.17 782.24,-208.66 792.54,-211.14 791.83,-204.17"/>
</a>
</g>
</g>
<!-- Node4 -->
<g id="Node000004" class="node">
<title>Node4</title>
<g id="a_Node000004"><a xlink:href="../../d6/d2c/class_c_l_e_d_controller.html" target="_top" xlink:title="Base definition for an LED controller.">
<polygon fill="#fff0f0" stroke="red" points="302.25,-228.75 212.75,-228.75 212.75,-208 302.25,-208 302.25,-228.75"/>
<text text-anchor="middle" x="257.5" y="-215.25" font-family="Helvetica,sans-Serif" font-size="10.00">CLEDController</text>
</a>
</g>
</g>
<!-- Node4&#45;&gt;Node3 -->
<g id="edge3_Node000003_Node000004" class="edge">
<title>Node4&#45;&gt;Node3</title>
<g id="a_edge3_Node000003_Node000004"><a xlink:title=" ">
<path fill="none" stroke="#63b8ff" d="M314.16,-217.89C399.28,-217.14 561.35,-215.72 651.1,-214.93"/>
<polygon fill="#63b8ff" stroke="#63b8ff" points="314.16,-214.39 304.19,-217.97 314.22,-221.39 314.16,-214.39"/>
</a>
</g>
</g>
<!-- Node4&#45;&gt;Node4 -->
<g id="edge4_Node000004_Node000004" class="edge">
<title>Node4&#45;&gt;Node4</title>
<g id="a_edge4_Node000004_Node000004"><a xlink:title=" ">
<path fill="none" stroke="#9a32cd" stroke-dasharray="5,2" d="M241.81,-240.56C244.03,-244.23 249.26,-246.75 257.5,-246.75 273.01,-246.75 277.86,-237.81 272.04,-229.15"/>
<polygon fill="#9a32cd" stroke="#9a32cd" points="245.29,-240.95 242.81,-230.65 238.32,-240.25 245.29,-240.95"/>
</a>
</g>
<text text-anchor="middle" x="257.5" y="-275.5" font-family="Helvetica,sans-Serif" font-size="10.00" fill="grey"> m_pHead</text>
<text text-anchor="middle" x="257.5" y="-262.75" font-family="Helvetica,sans-Serif" font-size="10.00" fill="grey">m_pNext</text>
<text text-anchor="middle" x="257.5" y="-250" font-family="Helvetica,sans-Serif" font-size="10.00" fill="grey">m_pTail</text>
</g>
<!-- Node15 -->
<g id="Node000015" class="node">
<title>Node15</title>
<g id="a_Node000015"><a xlink:href="../../d0/dc9/class_c_pixel_l_e_d_controller.html" target="_top" xlink:title=" ">
<polygon fill="#fff0f0" stroke="red" points="618.25,-199.12 505.5,-199.12 505.5,-165.62 618.25,-165.62 618.25,-199.12"/>
<text text-anchor="start" x="513.5" y="-185.62" font-family="Helvetica,sans-Serif" font-size="10.00">CPixelLEDController</text>
<text text-anchor="middle" x="561.88" y="-172.88" font-family="Helvetica,sans-Serif" font-size="10.00">&lt; RGB &gt;</text>
</a>
</g>
</g>
<!-- Node4&#45;&gt;Node15 -->
<g id="edge13_Node000015_Node000004" class="edge">
<title>Node4&#45;&gt;Node15</title>
<g id="a_edge13_Node000015_Node000004"><a xlink:title=" ">
<path fill="none" stroke="#63b8ff" d="M313.61,-211.81C367.91,-205.35 450.46,-195.52 505.02,-189.02"/>
<polygon fill="#63b8ff" stroke="#63b8ff" points="313.49,-208.3 303.97,-212.96 314.31,-215.25 313.49,-208.3"/>
</a>
</g>
</g>
<!-- Node7 -->
<g id="Node000007" class="node">
<title>Node7</title>
<g id="a_Node000007"><a xlink:href="../../d3/d97/class_s_p_i_output.html" target="_top" xlink:title=" ">
<polygon fill="white" stroke="#666666" points="633.25,-147.12 490.5,-147.12 490.5,-113.62 633.25,-113.62 633.25,-147.12"/>
<text text-anchor="start" x="498.5" y="-133.62" font-family="Helvetica,sans-Serif" font-size="10.00">SPIOutput&lt; DATA_PIN,</text>
<text text-anchor="middle" x="561.88" y="-120.88" font-family="Helvetica,sans-Serif" font-size="10.00"> CLOCK_PIN, SPI_SPEED &gt;</text>
</a>
</g>
</g>
<!-- Node7&#45;&gt;Node2 -->
<g id="edge5_Node000002_Node000007" class="edge">
<title>Node7&#45;&gt;Node2</title>
<g id="a_edge5_Node000002_Node000007"><a xlink:title=" ">
<path fill="none" stroke="#9a32cd" stroke-dasharray="5,2" d="M644.95,-130.72C755.2,-130.81 957.23,-129.64 1129.5,-121.38 1135.27,-121.1 1141.25,-120.75 1147.24,-120.36"/>
<polygon fill="#9a32cd" stroke="#9a32cd" points="645.11,-127.22 635.1,-130.71 645.1,-134.22 645.11,-127.22"/>
</a>
</g>
<text text-anchor="middle" x="882.62" y="-133.19" font-family="Helvetica,sans-Serif" font-size="10.00" fill="grey"> mSPI</text>
</g>
<!-- Node8 -->
<g id="Node000008" class="node">
<title>Node8</title>
<g id="a_Node000008"><a xlink:href="../../dc/d57/class_a_v_r_software_s_p_i_output.html" target="_top" xlink:title=" ">
<polygon fill="#fff0f0" stroke="red" points="148.75,-132.5 0,-132.5 0,-86.25 148.75,-86.25 148.75,-132.5"/>
<text text-anchor="start" x="8" y="-119" font-family="Helvetica,sans-Serif" font-size="10.00">AVRSoftwareSPIOutput</text>
<text text-anchor="start" x="8" y="-106.25" font-family="Helvetica,sans-Serif" font-size="10.00">&lt; _DATA_PIN, _CLOCK_PIN,</text>
<text text-anchor="middle" x="74.38" y="-93.5" font-family="Helvetica,sans-Serif" font-size="10.00"> _SPI_CLOCK_DIVIDER &gt;</text>
</a>
</g>
</g>
<!-- Node8&#45;&gt;Node7 -->
<g id="edge6_Node000007_Node000008" class="edge">
<title>Node8&#45;&gt;Node7</title>
<g id="a_edge6_Node000007_Node000008"><a xlink:title=" ">
<path fill="none" stroke="#63b8ff" d="M159.77,-135.78C168.49,-137.92 177.26,-139.85 185.75,-141.38 311.29,-163.98 345.98,-169.57 472.5,-153.38 482.56,-152.09 493.12,-150.01 503.29,-147.61"/>
<polygon fill="#63b8ff" stroke="#63b8ff" points="160.81,-132.43 150.25,-133.33 159.07,-139.21 160.81,-132.43"/>
</a>
</g>
</g>
<!-- Node11 -->
<g id="Node000011" class="node">
<title>Node11</title>
<g id="a_Node000011"><a xlink:href="../../d3/d97/class_s_p_i_output.html" target="_top" xlink:title="Hardware SPI output.">
<polygon fill="white" stroke="#666666" points="329.25,-132.5 185.75,-132.5 185.75,-86.25 329.25,-86.25 329.25,-132.5"/>
<text text-anchor="start" x="193.75" y="-119" font-family="Helvetica,sans-Serif" font-size="10.00">SPIOutput&lt; _DATA_PIN,</text>
<text text-anchor="start" x="193.75" y="-106.25" font-family="Helvetica,sans-Serif" font-size="10.00"> _CLOCK_PIN, _SPI_CLOCK</text>
<text text-anchor="middle" x="257.5" y="-93.5" font-family="Helvetica,sans-Serif" font-size="10.00">_DIVIDER &gt;</text>
</a>
</g>
</g>
<!-- Node8&#45;&gt;Node11 -->
<g id="edge8_Node000011_Node000008" class="edge">
<title>Node8&#45;&gt;Node11</title>
<g id="a_edge8_Node000011_Node000008"><a xlink:title=" ">
<path fill="none" stroke="#63b8ff" d="M160.43,-109.38C168.83,-109.38 177.3,-109.38 185.53,-109.38"/>
<polygon fill="#63b8ff" stroke="#63b8ff" points="160.56,-105.88 150.56,-109.38 160.56,-112.88 160.56,-105.88"/>
</a>
</g>
</g>
<!-- Node17 -->
<g id="Node000017" class="node">
<title>Node17</title>
<g id="a_Node000017"><a xlink:href="../../d3/d97/class_s_p_i_output.html" target="_top" xlink:title=" ">
<polygon fill="white" stroke="#666666" points="629.5,-95.5 494.25,-95.5 494.25,-49.25 629.5,-49.25 629.5,-95.5"/>
<text text-anchor="start" x="502.25" y="-82" font-family="Helvetica,sans-Serif" font-size="10.00">SPIOutput&lt; DATA_PIN,</text>
<text text-anchor="start" x="502.25" y="-69.25" font-family="Helvetica,sans-Serif" font-size="10.00"> CLOCK_PIN, DATA_RATE</text>
<text text-anchor="middle" x="561.88" y="-56.5" font-family="Helvetica,sans-Serif" font-size="10.00">_MHZ(1) &gt;</text>
</a>
</g>
</g>
<!-- Node8&#45;&gt;Node17 -->
<g id="edge15_Node000017_Node000008" class="edge">
<title>Node8&#45;&gt;Node17</title>
<g id="a_edge15_Node000017_Node000008"><a xlink:title=" ">
<path fill="none" stroke="#63b8ff" d="M158.57,-82.98C167.68,-80.77 176.86,-78.83 185.75,-77.38 292.44,-59.86 418.5,-62.95 493.94,-67.3"/>
<polygon fill="#63b8ff" stroke="#63b8ff" points="157.83,-79.56 149.01,-85.41 159.56,-86.34 157.83,-79.56"/>
</a>
</g>
</g>
<!-- Node11&#45;&gt;Node7 -->
<g id="edge7_Node000007_Node000011" class="edge">
<title>Node11&#45;&gt;Node7</title>
<g id="a_edge7_Node000007_Node000011"><a xlink:title=" ">
<path fill="none" stroke="orange" stroke-dasharray="5,2" d="M340.72,-115.09C387.48,-118.33 445.45,-122.36 490.16,-125.46"/>
<polygon fill="orange" stroke="orange" points="341.12,-111.6 330.9,-114.4 340.64,-118.59 341.12,-111.6"/>
</a>
</g>
<text text-anchor="start" x="347.25" y="-140.17" font-family="Helvetica,sans-Serif" font-size="10.00" fill="grey"> &lt; DATA_PIN, CLOCK_PIN,</text>
<text text-anchor="middle" x="409.88" y="-127.42" font-family="Helvetica,sans-Serif" font-size="10.00" fill="grey"> SPI_SPEED &gt;</text>
</g>
<!-- Node11&#45;&gt;Node17 -->
<g id="edge16_Node000017_Node000011" class="edge">
<title>Node11&#45;&gt;Node17</title>
<g id="a_edge16_Node000017_Node000011"><a xlink:title=" ">
<path fill="none" stroke="orange" stroke-dasharray="5,2" d="M340.64,-87.03C342.86,-86.61 345.07,-86.23 347.25,-85.88 396.04,-77.95 451.79,-74.62 494.1,-73.24"/>
<polygon fill="orange" stroke="orange" points="340.04,-83.58 330.93,-88.98 341.42,-90.44 340.04,-83.58"/>
</a>
</g>
<text text-anchor="start" x="347.25" y="-101.88" font-family="Helvetica,sans-Serif" font-size="10.00" fill="grey"> &lt; DATA_PIN, CLOCK_PIN,</text>
<text text-anchor="middle" x="409.88" y="-89.12" font-family="Helvetica,sans-Serif" font-size="10.00" fill="grey"> DATA_RATE_MHZ(1) &gt;</text>
</g>
<!-- Node12 -->
<g id="Node000012" class="node">
<title>Node12</title>
<g id="a_Node000012"><a xlink:href="../../d1/d6d/class_c_min_wait.html" target="_top" xlink:title=" ">
<polygon fill="white" stroke="#666666" points="616.38,-20.75 507.38,-20.75 507.38,0 616.38,0 616.38,-20.75"/>
<text text-anchor="middle" x="561.88" y="-7.25" font-family="Helvetica,sans-Serif" font-size="10.00">CMinWait&lt; 1000 &gt;</text>
</a>
</g>
</g>
<!-- Node12&#45;&gt;Node2 -->
<g id="edge9_Node000002_Node000012" class="edge">
<title>Node12&#45;&gt;Node2</title>
<g id="a_edge9_Node000002_Node000012"><a xlink:title=" ">
<path fill="none" stroke="#9a32cd" stroke-dasharray="5,2" d="M628.25,-9.39C708.52,-9.19 848.55,-12.15 966.75,-31.62 1040.89,-43.84 1058.6,-52.49 1129.5,-77.38 1140.83,-81.35 1152.8,-86.07 1164.11,-90.78"/>
<polygon fill="#9a32cd" stroke="#9a32cd" points="628.35,-5.89 618.37,-9.43 628.38,-12.89 628.35,-5.89"/>
</a>
</g>
<text text-anchor="middle" x="882.62" y="-34.88" font-family="Helvetica,sans-Serif" font-size="10.00" fill="grey"> mWaitDelay</text>
</g>
<!-- Node14 -->
<g id="Node000014" class="node">
<title>Node14</title>
<g id="a_Node000014"><a xlink:href="../../df/d0d/group___clocked_chipsets.html#d9/d95/class_w_s2801_controller" target="_top" xlink:title="WS2801 controller class.">
<polygon fill="white" stroke="#666666" points="966.75,-99.5 798.5,-99.5 798.5,-53.25 966.75,-53.25 966.75,-99.5"/>
<text text-anchor="start" x="806.5" y="-86" font-family="Helvetica,sans-Serif" font-size="10.00">WS2801Controller&lt; DATA</text>
<text text-anchor="start" x="806.5" y="-73.25" font-family="Helvetica,sans-Serif" font-size="10.00">_PIN, CLOCK_PIN, RGB_ORDER,</text>
<text text-anchor="middle" x="882.62" y="-60.5" font-family="Helvetica,sans-Serif" font-size="10.00"> SPI_SPEED &gt;</text>
</a>
</g>
</g>
<!-- Node12&#45;&gt;Node14 -->
<g id="edge17_Node000014_Node000012" class="edge">
<title>Node12&#45;&gt;Node14</title>
<g id="a_edge17_Node000014_Node000012"><a xlink:title=" ">
<path fill="none" stroke="#9a32cd" stroke-dasharray="5,2" d="M626.3,-23.51C675.59,-33.71 744.39,-47.96 798.15,-59.09"/>
<polygon fill="#9a32cd" stroke="#9a32cd" points="627.14,-20.11 616.64,-21.51 625.72,-26.96 627.14,-20.11"/>
</a>
</g>
<text text-anchor="middle" x="715.88" y="-58.28" font-family="Helvetica,sans-Serif" font-size="10.00" fill="grey"> mWaitDelay</text>
</g>
<!-- Node13 -->
<g id="Node000013" class="node">
<title>Node13</title>
<g id="a_Node000013"><a xlink:href="../../d1/d6d/class_c_min_wait.html" target="_top" xlink:title="Class to ensure that a minimum amount of time has kicked since the last time run &#45; and delay if not e...">
<polygon fill="white" stroke="#666666" points="312.38,-20.75 202.62,-20.75 202.62,0 312.38,0 312.38,-20.75"/>
<text text-anchor="middle" x="257.5" y="-7.25" font-family="Helvetica,sans-Serif" font-size="10.00">CMinWait&lt; WAIT &gt;</text>
</a>
</g>
</g>
<!-- Node13&#45;&gt;Node12 -->
<g id="edge10_Node000012_Node000013" class="edge">
<title>Node13&#45;&gt;Node12</title>
<g id="a_edge10_Node000012_Node000013"><a xlink:title=" ">
<path fill="none" stroke="orange" stroke-dasharray="5,2" d="M323.88,-10.38C378.62,-10.38 455.8,-10.38 507.03,-10.38"/>
<polygon fill="orange" stroke="orange" points="324.07,-6.88 314.07,-10.38 324.07,-13.88 324.07,-6.88"/>
</a>
</g>
<text text-anchor="middle" x="409.88" y="-13.62" font-family="Helvetica,sans-Serif" font-size="10.00" fill="grey"> &lt; 1000 &gt;</text>
</g>
<!-- Node14&#45;&gt;Node2 -->
<g id="edge11_Node000002_Node000014" class="edge">
<title>Node14&#45;&gt;Node2</title>
<g id="a_edge11_Node000002_Node000014"><a xlink:title=" ">
<path fill="none" stroke="orange" stroke-dasharray="5,2" d="M978.43,-81.01C1024.23,-83.99 1079.89,-88.68 1129.5,-95.88 1135.32,-96.72 1141.34,-97.72 1147.36,-98.81"/>
<polygon fill="orange" stroke="orange" points="978.72,-77.52 968.52,-80.39 978.28,-84.51 978.72,-77.52"/>
</a>
</g>
<text text-anchor="start" x="984.75" y="-111.88" font-family="Helvetica,sans-Serif" font-size="10.00" fill="grey"> &lt; DATA_PIN, CLOCK_PIN,</text>
<text text-anchor="middle" x="1057.12" y="-99.12" font-family="Helvetica,sans-Serif" font-size="10.00" fill="grey"> RGB, DATA_RATE_MHZ(25) &gt;</text>
</g>
<!-- Node15&#45;&gt;Node14 -->
<g id="edge12_Node000014_Node000015" class="edge">
<title>Node15&#45;&gt;Node14</title>
<g id="a_edge12_Node000014_Node000015"><a xlink:title=" ">
<path fill="none" stroke="#63b8ff" d="M625.11,-161.68C678.42,-143.95 755.16,-118.43 810.8,-99.93"/>
<polygon fill="#63b8ff" stroke="#63b8ff" points="624.26,-158.27 615.88,-164.75 626.47,-164.91 624.26,-158.27"/>
</a>
</g>
</g>
<!-- Node17&#45;&gt;Node14 -->
<g id="edge14_Node000014_Node000017" class="edge">
<title>Node17&#45;&gt;Node14</title>
<g id="a_edge14_Node000014_Node000017"><a xlink:title=" ">
<path fill="none" stroke="#9a32cd" stroke-dasharray="5,2" d="M641.19,-73.36C688.82,-73.96 749.6,-74.72 798.14,-75.33"/>
<polygon fill="#9a32cd" stroke="#9a32cd" points="641.25,-69.86 631.21,-73.23 641.16,-76.86 641.25,-69.86"/>
</a>
</g>
<text text-anchor="middle" x="715.88" y="-78.33" font-family="Helvetica,sans-Serif" font-size="10.00" fill="grey"> mSPI</text>
</g>
</g>
</svg>
