<?xml version="1.0" encoding="UTF-8" standalone="no"?>
<!DOCTYPE svg PUBLIC "-//W3C//DTD SVG 1.1//EN"
 "http://www.w3.org/Graphics/SVG/1.1/DTD/svg11.dtd">
<!-- Generated by graphviz version 12.2.1 (20241206.2353)
 -->
<!-- Title: nblend Pages: 1 -->
<svg width="240pt" height="107pt"
 viewBox="0.00 0.00 239.50 106.75" xmlns="http://www.w3.org/2000/svg" xmlns:xlink="http://www.w3.org/1999/xlink">
<g id="graph0" class="graph" transform="scale(1 1) rotate(0) translate(4 102.75)">
<title>nblend</title>
<!-- Node1 -->
<g id="Node000001" class="node">
<title>Node1</title>
<g id="a_Node000001"><a xlink:title="Destructively modifies one color, blending in a given fraction of an overlay color.">
<polygon fill="#999999" stroke="#666666" points="49,-59.75 0,-59.75 0,-39 49,-39 49,-59.75"/>
<text text-anchor="middle" x="24.5" y="-46.25" font-family="Helvetica,sans-Serif" font-size="10.00">nblend</text>
</a>
</g>
</g>
<!-- Node2 -->
<g id="Node000002" class="node">
<title>Node2</title>
<g id="a_Node000002"><a xlink:href="../../d0/da5/group___scaling_dirty.html#ga3fade00fb4cf5b937b973128198a7a79" target="_top" xlink:title="Clean up the r1 register after a series of *LEAVING_R1_DIRTY calls.">
<polygon fill="white" stroke="#666666" points="194.38,-98.75 122.12,-98.75 122.12,-78 194.38,-78 194.38,-98.75"/>
<text text-anchor="middle" x="158.25" y="-85.25" font-family="Helvetica,sans-Serif" font-size="10.00">cleanup_R1</text>
</a>
</g>
</g>
<!-- Node1&#45;&gt;Node2 -->
<g id="edge1_Node000001_Node000002" class="edge">
<title>Node1&#45;&gt;Node2</title>
<g id="a_edge1_Node000001_Node000002"><a xlink:title=" ">
<path fill="none" stroke="#63b8ff" d="M49.46,-57.26C60.29,-60.76 73.26,-64.88 85,-68.38 93.33,-70.86 102.22,-73.4 110.82,-75.81"/>
<polygon fill="#63b8ff" stroke="#63b8ff" points="109.86,-79.18 120.43,-78.48 111.73,-72.43 109.86,-79.18"/>
</a>
</g>
</g>
<!-- Node3 -->
<g id="Node000003" class="node">
<title>Node3</title>
<g id="a_Node000003"><a xlink:href="../../d0/da8/group___scaling.html#gad7535ccda9c92470c4e6ee0265585555" target="_top" xlink:title="Scale one byte by a second one, which is treated as the numerator of a fraction whose denominator is ...">
<polygon fill="white" stroke="#666666" points="182,-59.75 134.5,-59.75 134.5,-39 182,-39 182,-59.75"/>
<text text-anchor="middle" x="158.25" y="-46.25" font-family="Helvetica,sans-Serif" font-size="10.00">scale8</text>
</a>
</g>
</g>
<!-- Node1&#45;&gt;Node3 -->
<g id="edge2_Node000001_Node000003" class="edge">
<title>Node1&#45;&gt;Node3</title>
<g id="a_edge2_Node000001_Node000003"><a xlink:title=" ">
<path fill="none" stroke="#63b8ff" d="M49.36,-49.38C69.82,-49.38 99.56,-49.38 122.63,-49.38"/>
<polygon fill="#63b8ff" stroke="#63b8ff" points="122.5,-52.88 132.5,-49.38 122.5,-45.88 122.5,-52.88"/>
</a>
</g>
</g>
<!-- Node4 -->
<g id="Node000004" class="node">
<title>Node4</title>
<g id="a_Node000004"><a xlink:href="../../d0/da5/group___scaling_dirty.html#ga7386235cada3aca429b189681d2ec56d" target="_top" xlink:title="This version of scale8() does not clean up the R1 register on AVR.">
<polygon fill="white" stroke="#666666" points="231.5,-20.75 85,-20.75 85,0 231.5,0 231.5,-20.75"/>
<text text-anchor="middle" x="158.25" y="-7.25" font-family="Helvetica,sans-Serif" font-size="10.00">scale8_LEAVING_R1_DIRTY</text>
</a>
</g>
</g>
<!-- Node1&#45;&gt;Node4 -->
<g id="edge3_Node000001_Node000004" class="edge">
<title>Node1&#45;&gt;Node4</title>
<g id="a_edge3_Node000001_Node000004"><a xlink:title=" ">
<path fill="none" stroke="#63b8ff" d="M49.46,-41.49C60.29,-37.99 73.26,-33.87 85,-30.38 91.79,-28.35 98.97,-26.28 106.05,-24.28"/>
<polygon fill="#63b8ff" stroke="#63b8ff" points="106.9,-27.68 115.59,-21.61 105.01,-20.94 106.9,-27.68"/>
</a>
</g>
</g>
</g>
</svg>
