<?xml version="1.0" encoding="UTF-8" standalone="no"?>
<!DOCTYPE svg PUBLIC "-//W3C//DTD SVG 1.1//EN"
 "http://www.w3.org/Graphics/SVG/1.1/DTD/svg11.dtd">
<!-- Generated by graphviz version 12.2.1 (20241206.2353)
 -->
<!-- Title: blend Pages: 1 -->
<svg width="483pt" height="77pt"
 viewBox="0.00 0.00 482.50 76.75" xmlns="http://www.w3.org/2000/svg" xmlns:xlink="http://www.w3.org/1999/xlink">
<g id="graph0" class="graph" transform="scale(1 1) rotate(0) translate(4 72.75)">
<title>blend</title>
<!-- Node1 -->
<g id="Node000001" class="node">
<title>Node1</title>
<g id="a_Node000001"><a xlink:title="Computes a new blended array of colors, each some fraction of the way between corresponding elements ...">
<polygon fill="#999999" stroke="#666666" points="43,-40.75 0,-40.75 0,-20 43,-20 43,-40.75"/>
<text text-anchor="middle" x="21.5" y="-27.25" font-family="Helvetica,sans-Serif" font-size="10.00">blend</text>
</a>
</g>
</g>
<!-- Node2 -->
<g id="Node000002" class="node">
<title>Node2</title>
<g id="a_Node000002"><a xlink:href="../../dc/db8/group___color_blends.html#ga4f06b4423f71f77346aaf5dabe7dd05c" target="_top" xlink:title="Computes a new color blended some fraction of the way between two other colors.">
<polygon fill="white" stroke="#666666" points="122,-40.75 79,-40.75 79,-20 122,-20 122,-40.75"/>
<text text-anchor="middle" x="100.5" y="-27.25" font-family="Helvetica,sans-Serif" font-size="10.00">blend</text>
</a>
</g>
</g>
<!-- Node1&#45;&gt;Node2 -->
<g id="edge1_Node000001_Node000002" class="edge">
<title>Node1&#45;&gt;Node2</title>
<g id="a_edge1_Node000001_Node000002"><a xlink:title=" ">
<path fill="none" stroke="#63b8ff" d="M43.13,-30.38C50.5,-30.38 58.98,-30.38 67.09,-30.38"/>
<polygon fill="#63b8ff" stroke="#63b8ff" points="67.03,-33.88 77.03,-30.38 67.03,-26.88 67.03,-33.88"/>
</a>
</g>
</g>
<!-- Node3 -->
<g id="Node000003" class="node">
<title>Node3</title>
<g id="a_Node000003"><a xlink:href="../../dc/db8/group___color_blends.html#ga325120664a9c9b41abceee65303b0c4e" target="_top" xlink:title="Destructively modifies one color, blending in a given fraction of an overlay color.">
<polygon fill="white" stroke="#666666" points="207,-40.75 158,-40.75 158,-20 207,-20 207,-40.75"/>
<text text-anchor="middle" x="182.5" y="-27.25" font-family="Helvetica,sans-Serif" font-size="10.00">nblend</text>
</a>
</g>
</g>
<!-- Node2&#45;&gt;Node3 -->
<g id="edge2_Node000002_Node000003" class="edge">
<title>Node2&#45;&gt;Node3</title>
<g id="a_edge2_Node000002_Node000003"><a xlink:title=" ">
<path fill="none" stroke="#63b8ff" d="M122.1,-30.38C129.47,-30.38 137.99,-30.38 146.23,-30.38"/>
<polygon fill="#63b8ff" stroke="#63b8ff" points="146.05,-33.88 156.05,-30.38 146.05,-26.88 146.05,-33.88"/>
</a>
</g>
</g>
<!-- Node4 -->
<g id="Node000004" class="node">
<title>Node4</title>
<g id="a_Node000004"><a xlink:href="../../d5/d98/group___math.html#ga9a604de042246d6c87fdbfdd5578f377" target="_top" xlink:title="Blend a variable proportion (0&#45;255) of one byte to another.">
<polygon fill="white" stroke="#666666" points="292,-40.75 243,-40.75 243,-20 292,-20 292,-40.75"/>
<text text-anchor="middle" x="267.5" y="-27.25" font-family="Helvetica,sans-Serif" font-size="10.00">blend8</text>
</a>
</g>
</g>
<!-- Node3&#45;&gt;Node4 -->
<g id="edge3_Node000003_Node000004" class="edge">
<title>Node3&#45;&gt;Node4</title>
<g id="a_edge3_Node000003_Node000004"><a xlink:title=" ">
<path fill="none" stroke="#63b8ff" d="M207.06,-30.38C214.53,-30.38 222.96,-30.38 231.08,-30.38"/>
<polygon fill="#63b8ff" stroke="#63b8ff" points="231.08,-33.88 241.08,-30.38 231.08,-26.88 231.08,-33.88"/>
</a>
</g>
</g>
<!-- Node5 -->
<g id="Node000005" class="node">
<title>Node5</title>
<g id="a_Node000005"><a xlink:href="../../d0/da5/group___scaling_dirty.html#ga3fade00fb4cf5b937b973128198a7a79" target="_top" xlink:title="Clean up the r1 register after a series of *LEAVING_R1_DIRTY calls.">
<polygon fill="white" stroke="#666666" points="437.38,-68.75 365.12,-68.75 365.12,-48 437.38,-48 437.38,-68.75"/>
<text text-anchor="middle" x="401.25" y="-55.25" font-family="Helvetica,sans-Serif" font-size="10.00">cleanup_R1</text>
</a>
</g>
</g>
<!-- Node3&#45;&gt;Node5 -->
<g id="edge6_Node000003_Node000005" class="edge">
<title>Node3&#45;&gt;Node5</title>
<g id="a_edge6_Node000003_Node000005"><a xlink:title=" ">
<path fill="none" stroke="#63b8ff" d="M207.46,-39.55C218.18,-43.25 231.06,-47.16 243,-49.38 279.6,-56.15 321.73,-58.27 353.17,-58.76"/>
<polygon fill="#63b8ff" stroke="#63b8ff" points="353.11,-62.26 363.15,-58.86 353.18,-55.26 353.11,-62.26"/>
</a>
</g>
</g>
<!-- Node6 -->
<g id="Node000006" class="node">
<title>Node6</title>
<g id="a_Node000006"><a xlink:href="../../d0/da5/group___scaling_dirty.html#ga7386235cada3aca429b189681d2ec56d" target="_top" xlink:title="This version of scale8() does not clean up the R1 register on AVR.">
<polygon fill="white" stroke="#666666" points="474.5,-20.75 328,-20.75 328,0 474.5,0 474.5,-20.75"/>
<text text-anchor="middle" x="401.25" y="-7.25" font-family="Helvetica,sans-Serif" font-size="10.00">scale8_LEAVING_R1_DIRTY</text>
</a>
</g>
</g>
<!-- Node3&#45;&gt;Node6 -->
<g id="edge7_Node000003_Node000006" class="edge">
<title>Node3&#45;&gt;Node6</title>
<g id="a_edge7_Node000003_Node000006"><a xlink:title=" ">
<path fill="none" stroke="#63b8ff" d="M207.41,-20.91C218.12,-17.16 231.01,-13.28 243,-11.38 266.63,-7.62 292.52,-6.31 316.34,-6.23"/>
<polygon fill="#63b8ff" stroke="#63b8ff" points="316.33,-9.73 326.34,-6.27 316.36,-2.73 316.33,-9.73"/>
</a>
</g>
</g>
<!-- Node4&#45;&gt;Node5 -->
<g id="edge4_Node000004_Node000005" class="edge">
<title>Node4&#45;&gt;Node5</title>
<g id="a_edge4_Node000004_Node000005"><a xlink:title=" ">
<path fill="none" stroke="#63b8ff" d="M292.36,-35.45C309.38,-39.06 332.82,-44.04 353.5,-48.44"/>
<polygon fill="#63b8ff" stroke="#63b8ff" points="352.66,-51.84 363.17,-50.49 354.12,-44.99 352.66,-51.84"/>
</a>
</g>
</g>
<!-- Node4&#45;&gt;Node6 -->
<g id="edge5_Node000004_Node000006" class="edge">
<title>Node4&#45;&gt;Node6</title>
<g id="a_edge5_Node000004_Node000006"><a xlink:title=" ">
<path fill="none" stroke="#63b8ff" d="M292.36,-26.75C299.79,-25.62 308.45,-24.31 317.57,-22.93"/>
<polygon fill="#63b8ff" stroke="#63b8ff" points="318.01,-26.4 327.37,-21.44 316.96,-19.48 318.01,-26.4"/>
</a>
</g>
</g>
</g>
</svg>
