<?xml version="1.0" encoding="UTF-8" standalone="no"?>
<!DOCTYPE svg PUBLIC "-//W3C//DTD SVG 1.1//EN"
 "http://www.w3.org/Graphics/SVG/1.1/DTD/svg11.dtd">
<!-- Generated by graphviz version 12.2.1 (20241206.2353)
 -->
<!-- Title: nblend Pages: 1 -->
<svg width="796pt" height="933pt"
 viewBox="0.00 0.00 796.00 932.75" xmlns="http://www.w3.org/2000/svg" xmlns:xlink="http://www.w3.org/1999/xlink">
<g id="graph0" class="graph" transform="scale(1 1) rotate(0) translate(4 928.75)">
<title>nblend</title>
<!-- Node1 -->
<g id="Node000001" class="node">
<title>Node1</title>
<g id="a_Node000001"><a xlink:title="Destructively modifies one color, blending in a given fraction of an overlay color.">
<polygon fill="#999999" stroke="#666666" points="788,-362.75 739,-362.75 739,-342 788,-342 788,-362.75"/>
<text text-anchor="middle" x="763.5" y="-349.25" font-family="Helvetica,sans-Serif" font-size="10.00">nblend</text>
</a>
</g>
</g>
<!-- Node2 -->
<g id="Node000002" class="node">
<title>Node2</title>
<g id="a_Node000002"><a xlink:href="../../dc/db8/group___color_blends.html#ga0d242048cc8978be5ea70a6c33402721" target="_top" xlink:title="Computes a new color blended some fraction of the way between two other colors.">
<polygon fill="white" stroke="#666666" points="671.12,-460.75 628.12,-460.75 628.12,-440 671.12,-440 671.12,-460.75"/>
<text text-anchor="middle" x="649.62" y="-447.25" font-family="Helvetica,sans-Serif" font-size="10.00">blend</text>
</a>
</g>
</g>
<!-- Node1&#45;&gt;Node2 -->
<g id="edge1_Node000001_Node000002" class="edge">
<title>Node1&#45;&gt;Node2</title>
<g id="a_edge1_Node000001_Node000002"><a xlink:title=" ">
<path fill="none" stroke="#63b8ff" d="M751.19,-373.02C740.72,-390.43 723.67,-414.92 703,-430.38 693.72,-437.31 681.75,-442.12 671.6,-445.28"/>
<polygon fill="#63b8ff" stroke="#63b8ff" points="754.11,-374.95 756.08,-364.54 748.05,-371.46 754.11,-374.95"/>
</a>
</g>
</g>
<!-- Node3 -->
<g id="Node000003" class="node">
<title>Node3</title>
<g id="a_Node000003"><a xlink:href="../../dc/db8/group___color_blends.html#ga4f06b4423f71f77346aaf5dabe7dd05c" target="_top" xlink:title="Computes a new color blended some fraction of the way between two other colors.">
<polygon fill="white" stroke="#666666" points="671.12,-421.75 628.12,-421.75 628.12,-401 671.12,-401 671.12,-421.75"/>
<text text-anchor="middle" x="649.62" y="-408.25" font-family="Helvetica,sans-Serif" font-size="10.00">blend</text>
</a>
</g>
</g>
<!-- Node1&#45;&gt;Node3 -->
<g id="edge2_Node000001_Node000003" class="edge">
<title>Node1&#45;&gt;Node3</title>
<g id="a_edge2_Node000001_Node000003"><a xlink:title=" ">
<path fill="none" stroke="#63b8ff" d="M738.5,-369.8C727.93,-377.03 715.17,-385.16 703,-391.38 692.95,-396.51 681.25,-401.1 671.46,-404.58"/>
<polygon fill="#63b8ff" stroke="#63b8ff" points="740.45,-372.71 746.64,-364.11 736.44,-366.98 740.45,-372.71"/>
</a>
</g>
</g>
<!-- Node62 -->
<g id="Node000062" class="node">
<title>Node62</title>
<g id="a_Node000062"><a xlink:href="../../df/d11/classfl_1_1_pride2015.html#a331b131b082d622bbd9208bf05308d0d" target="_top" xlink:title=" ">
<polygon fill="white" stroke="#666666" points="703,-382.75 596.25,-382.75 596.25,-362 703,-362 703,-382.75"/>
<text text-anchor="middle" x="649.62" y="-369.25" font-family="Helvetica,sans-Serif" font-size="10.00">fl::Pride2015::draw</text>
</a>
</g>
</g>
<!-- Node1&#45;&gt;Node62 -->
<g id="edge42_Node000001_Node000062" class="edge">
<title>Node1&#45;&gt;Node62</title>
<g id="a_edge42_Node000001_Node000062"><a xlink:title=" ">
<path fill="none" stroke="#63b8ff" d="M727.36,-358.66C719.65,-360.04 711.32,-361.52 703.09,-363"/>
<polygon fill="#63b8ff" stroke="#63b8ff" points="727.78,-362.14 737.01,-356.93 726.55,-355.25 727.78,-362.14"/>
</a>
</g>
</g>
<!-- Node64 -->
<g id="Node000064" class="node">
<title>Node64</title>
<g id="a_Node000064"><a xlink:href="../../dc/db8/group___color_blends.html#ga2885fdebac696423812b10db0f45cb70" target="_top" xlink:title="Destructively blends a given fraction of a color array into an existing color array.">
<polygon fill="white" stroke="#666666" points="674.12,-343.75 625.12,-343.75 625.12,-323 674.12,-323 674.12,-343.75"/>
<text text-anchor="middle" x="649.62" y="-330.25" font-family="Helvetica,sans-Serif" font-size="10.00">nblend</text>
</a>
</g>
</g>
<!-- Node1&#45;&gt;Node64 -->
<g id="edge44_Node000001_Node000064" class="edge">
<title>Node1&#45;&gt;Node64</title>
<g id="a_edge44_Node000001_Node000064"><a xlink:title=" ">
<path fill="none" stroke="#63b8ff" d="M727.21,-346.38C710.07,-343.47 689.91,-340.05 674.59,-337.44"/>
<polygon fill="#63b8ff" stroke="#63b8ff" points="726.56,-349.82 737.01,-348.05 727.74,-342.92 726.56,-349.82"/>
</a>
</g>
</g>
<!-- Node65 -->
<g id="Node000065" class="node">
<title>Node65</title>
<g id="a_Node000065"><a xlink:href="../../dc/db8/group___color_blends.html#ga930e843c33436435516637e3fc701a28" target="_top" xlink:title="Destructively blends a given fraction of a color array into an existing color array.">
<polygon fill="white" stroke="#666666" points="674.12,-304.75 625.12,-304.75 625.12,-284 674.12,-284 674.12,-304.75"/>
<text text-anchor="middle" x="649.62" y="-291.25" font-family="Helvetica,sans-Serif" font-size="10.00">nblend</text>
</a>
</g>
</g>
<!-- Node1&#45;&gt;Node65 -->
<g id="edge45_Node000001_Node000065" class="edge">
<title>Node1&#45;&gt;Node65</title>
<g id="a_edge45_Node000001_Node000065"><a xlink:title=" ">
<path fill="none" stroke="#63b8ff" d="M738.45,-335.43C727.87,-328.4 715.11,-320.48 703,-314.38 693.96,-309.82 683.62,-305.67 674.53,-302.34"/>
<polygon fill="#63b8ff" stroke="#63b8ff" points="736.35,-338.24 746.58,-340.96 740.28,-332.45 736.35,-338.24"/>
</a>
</g>
</g>
<!-- Node66 -->
<g id="Node000066" class="node">
<title>Node66</title>
<g id="a_Node000066"><a xlink:href="../../d0/dce/_pride2015_8ino.html#a6e24bc1de16730062b4d4be6ad4f8e3b" target="_top" xlink:title=" ">
<polygon fill="white" stroke="#666666" points="670,-265.75 629.25,-265.75 629.25,-245 670,-245 670,-265.75"/>
<text text-anchor="middle" x="649.62" y="-252.25" font-family="Helvetica,sans-Serif" font-size="10.00">pride</text>
</a>
</g>
</g>
<!-- Node1&#45;&gt;Node66 -->
<g id="edge46_Node000001_Node000066" class="edge">
<title>Node1&#45;&gt;Node66</title>
<g id="a_edge46_Node000001_Node000066"><a xlink:title=" ">
<path fill="none" stroke="#63b8ff" d="M751.13,-332C740.62,-314.82 723.55,-290.64 703,-275.38 693.31,-268.18 680.72,-263.26 670.31,-260.1"/>
<polygon fill="#63b8ff" stroke="#63b8ff" points="747.95,-333.5 756.03,-340.35 753.99,-329.96 747.95,-333.5"/>
</a>
</g>
</g>
<!-- Node4 -->
<g id="Node000004" class="node">
<title>Node4</title>
<g id="a_Node000004"><a xlink:href="../../dc/db8/group___color_blends.html#ga7b2413e9940cad26227c41d222aecd94" target="_top" xlink:title="Computes a new blended array of colors, each some fraction of the way between corresponding elements ...">
<polygon fill="white" stroke="#666666" points="501.38,-690.75 458.38,-690.75 458.38,-670 501.38,-670 501.38,-690.75"/>
<text text-anchor="middle" x="479.88" y="-677.25" font-family="Helvetica,sans-Serif" font-size="10.00">blend</text>
</a>
</g>
</g>
<!-- Node3&#45;&gt;Node4 -->
<g id="edge3_Node000003_Node000004" class="edge">
<title>Node3&#45;&gt;Node4</title>
<g id="a_edge3_Node000003_Node000004"><a xlink:title=" ">
<path fill="none" stroke="#63b8ff" d="M616.88,-417.55C609.1,-420.52 601.5,-424.9 596.25,-431.38 531.39,-511.42 629.72,-584.29 560.25,-660.38 545.49,-676.54 519.77,-680.49 501.61,-681.08"/>
<polygon fill="#63b8ff" stroke="#63b8ff" points="617.8,-420.93 626.35,-414.68 615.76,-414.24 617.8,-420.93"/>
</a>
</g>
</g>
<!-- Node5 -->
<g id="Node000005" class="node">
<title>Node5</title>
<g id="a_Node000005"><a xlink:href="../../dc/db8/group___color_blends.html#ga2d29cff459b964cc51fbfe94db78f931" target="_top" xlink:title="Computes a new blended array of colors, each some fraction of the way between corresponding elements ...">
<polygon fill="white" stroke="#666666" points="501.38,-651.75 458.38,-651.75 458.38,-631 501.38,-631 501.38,-651.75"/>
<text text-anchor="middle" x="479.88" y="-638.25" font-family="Helvetica,sans-Serif" font-size="10.00">blend</text>
</a>
</g>
</g>
<!-- Node3&#45;&gt;Node5 -->
<g id="edge4_Node000003_Node000005" class="edge">
<title>Node3&#45;&gt;Node5</title>
<g id="a_edge4_Node000003_Node000005"><a xlink:title=" ">
<path fill="none" stroke="#63b8ff" d="M616.83,-417.73C609.11,-420.7 601.56,-425.03 596.25,-431.38 541.1,-497.3 619.19,-558.82 560.25,-621.38 545.34,-637.2 519.9,-641.25 501.84,-641.95"/>
<polygon fill="#63b8ff" stroke="#63b8ff" points="617.68,-421.14 626.2,-414.84 615.62,-414.45 617.68,-421.14"/>
</a>
</g>
</g>
<!-- Node6 -->
<g id="Node000006" class="node">
<title>Node6</title>
<g id="a_Node000006"><a xlink:href="../../d2/d73/group___palette_colors.html#gafdfc20fbf9b8e4b71e010a654ec27891" target="_top" xlink:title="Get a color from a palette.">
<polygon fill="white" stroke="#666666" points="529.88,-612.75 429.88,-612.75 429.88,-592 529.88,-592 529.88,-612.75"/>
<text text-anchor="middle" x="479.88" y="-599.25" font-family="Helvetica,sans-Serif" font-size="10.00">ColorFromPalette</text>
</a>
</g>
</g>
<!-- Node3&#45;&gt;Node6 -->
<g id="edge5_Node000003_Node000006" class="edge">
<title>Node3&#45;&gt;Node6</title>
<g id="a_edge5_Node000003_Node000006"><a xlink:title=" ">
<path fill="none" stroke="#63b8ff" d="M617.03,-417.9C609.31,-420.86 601.7,-425.16 596.25,-431.38 550.76,-483.24 608.72,-533.28 560.25,-582.38 552.16,-590.57 541.25,-595.58 530.1,-598.6"/>
<polygon fill="#63b8ff" stroke="#63b8ff" points="617.87,-421.31 626.37,-414.99 615.79,-414.62 617.87,-421.31"/>
</a>
</g>
</g>
<!-- Node7 -->
<g id="Node000007" class="node">
<title>Node7</title>
<g id="a_Node000007"><a xlink:href="../../d2/d73/group___palette_colors.html#ga1684ed7eb860c68a915d03e94250e58a" target="_top" xlink:title="Get a color from a palette.">
<polygon fill="white" stroke="#666666" points="529.88,-573.75 429.88,-573.75 429.88,-553 529.88,-553 529.88,-573.75"/>
<text text-anchor="middle" x="479.88" y="-560.25" font-family="Helvetica,sans-Serif" font-size="10.00">ColorFromPalette</text>
</a>
</g>
</g>
<!-- Node3&#45;&gt;Node7 -->
<g id="edge6_Node000003_Node000007" class="edge">
<title>Node3&#45;&gt;Node7</title>
<g id="a_edge6_Node000003_Node000007"><a xlink:title=" ">
<path fill="none" stroke="#63b8ff" d="M616.94,-418.41C609.36,-421.36 601.86,-425.52 596.25,-431.38 561.25,-467.91 596.53,-504.1 560.25,-539.38 551.99,-547.4 541.14,-552.76 530.13,-556.33"/>
<polygon fill="#63b8ff" stroke="#63b8ff" points="617.98,-421.75 626.43,-415.35 615.84,-415.08 617.98,-421.75"/>
</a>
</g>
</g>
<!-- Node8 -->
<g id="Node000008" class="node">
<title>Node8</title>
<g id="a_Node000008"><a xlink:href="../../d2/d73/group___palette_colors.html#gac46e65aff3dd6519b33e27f0998f17cd" target="_top" xlink:title="Get a color from a palette.">
<polygon fill="white" stroke="#666666" points="529.88,-497.75 429.88,-497.75 429.88,-477 529.88,-477 529.88,-497.75"/>
<text text-anchor="middle" x="479.88" y="-484.25" font-family="Helvetica,sans-Serif" font-size="10.00">ColorFromPalette</text>
</a>
</g>
</g>
<!-- Node3&#45;&gt;Node8 -->
<g id="edge7_Node000003_Node000008" class="edge">
<title>Node3&#45;&gt;Node8</title>
<g id="a_edge7_Node000003_Node000008"><a xlink:title=" ">
<path fill="none" stroke="#63b8ff" d="M616.95,-421.35C609.91,-424.14 602.64,-427.5 596.25,-431.38 577.95,-442.49 578.93,-452.92 560.25,-463.38 550.58,-468.79 539.54,-473.12 528.84,-476.52"/>
<polygon fill="#63b8ff" stroke="#63b8ff" points="618.07,-424.67 626.26,-417.95 615.66,-418.1 618.07,-424.67"/>
</a>
</g>
</g>
<!-- Node14 -->
<g id="Node000014" class="node">
<title>Node14</title>
<g id="a_Node000014"><a xlink:href="../../d4/dd0/_twinkle_fox_8ino.html#a6d0a3407d4b43c23c7bdd4aac9fc76fd" target="_top" xlink:title=" ">
<polygon fill="#fff0f0" stroke="red" points="124,-769.75 42,-769.75 42,-749 124,-749 124,-769.75"/>
<text text-anchor="middle" x="83" y="-756.25" font-family="Helvetica,sans-Serif" font-size="10.00">drawTwinkles</text>
</a>
</g>
</g>
<!-- Node3&#45;&gt;Node14 -->
<g id="edge36_Node000003_Node000014" class="edge">
<title>Node3&#45;&gt;Node14</title>
<g id="a_edge36_Node000003_Node000014"><a xlink:title=" ">
<path fill="none" stroke="#63b8ff" d="M617.06,-419.05C609.6,-421.98 602.12,-425.97 596.25,-431.38 569.05,-456.42 589.05,-483.19 560.25,-506.38 503.06,-552.41 448.27,-489.5 399.5,-544.38 352.99,-596.71 415.76,-810.78 363.5,-857.38 309.92,-905.14 269.51,-881.75 202,-857.38 152.91,-839.65 109.82,-791.62 92.32,-770.08"/>
<polygon fill="#63b8ff" stroke="#63b8ff" points="617.97,-422.43 626.34,-415.95 615.75,-415.79 617.97,-422.43"/>
</a>
</g>
</g>
<!-- Node17 -->
<g id="Node000017" class="node">
<title>Node17</title>
<g id="a_Node000017"><a xlink:href="../../de/db5/classfl_1_1_twinkle_fox.html#a67375829d0da55e17d3f74ac9817914d" target="_top" xlink:title=" ">
<polygon fill="#fff0f0" stroke="red" points="166,-81.75 0,-81.75 0,-61 166,-61 166,-81.75"/>
<text text-anchor="middle" x="83" y="-68.25" font-family="Helvetica,sans-Serif" font-size="10.00">fl::TwinkleFox::drawTwinkleFox</text>
</a>
</g>
</g>
<!-- Node3&#45;&gt;Node17 -->
<g id="edge35_Node000003_Node000017" class="edge">
<title>Node3&#45;&gt;Node17</title>
<g id="a_edge35_Node000003_Node000017"><a xlink:title=" ">
<path fill="none" stroke="#63b8ff" d="M616.98,-419.24C557.14,-433.25 430.62,-458.56 399.5,-430.38 339.42,-375.96 423.58,-121.79 363.5,-67.38 292.64,-3.2 165.32,-40.16 110.4,-60.61"/>
<polygon fill="#63b8ff" stroke="#63b8ff" points="617.62,-422.68 626.54,-416.96 616,-415.87 617.62,-422.68"/>
</a>
</g>
</g>
<!-- Node51 -->
<g id="Node000051" class="node">
<title>Node51</title>
<g id="a_Node000051"><a xlink:href="../../d2/d73/group___palette_colors.html#gae5e137a13a4b6145fe40007328d398f4" target="_top" xlink:title="Get a color from a palette.">
<polygon fill="white" stroke="#666666" points="529.88,-421.75 429.88,-421.75 429.88,-401 529.88,-401 529.88,-421.75"/>
<text text-anchor="middle" x="479.88" y="-408.25" font-family="Helvetica,sans-Serif" font-size="10.00">ColorFromPalette</text>
</a>
</g>
</g>
<!-- Node3&#45;&gt;Node51 -->
<g id="edge29_Node000003_Node000051" class="edge">
<title>Node3&#45;&gt;Node51</title>
<g id="a_edge29_Node000003_Node000051"><a xlink:title=" ">
<path fill="none" stroke="#63b8ff" d="M616.25,-411.38C591.86,-411.38 558.01,-411.38 530.26,-411.38"/>
<polygon fill="#63b8ff" stroke="#63b8ff" points="616.21,-414.88 626.2,-411.38 616.2,-407.88 616.21,-414.88"/>
</a>
</g>
</g>
<!-- Node52 -->
<g id="Node000052" class="node">
<title>Node52</title>
<g id="a_Node000052"><a xlink:href="../../d2/d73/group___palette_colors.html#ga0a1bd774cd65ee7b85a20c11212bbd95" target="_top" xlink:title="Get a color from a palette.">
<polygon fill="white" stroke="#666666" points="529.88,-382.75 429.88,-382.75 429.88,-362 529.88,-362 529.88,-382.75"/>
<text text-anchor="middle" x="479.88" y="-369.25" font-family="Helvetica,sans-Serif" font-size="10.00">ColorFromPalette</text>
</a>
</g>
</g>
<!-- Node3&#45;&gt;Node52 -->
<g id="edge30_Node000003_Node000052" class="edge">
<title>Node3&#45;&gt;Node52</title>
<g id="a_edge30_Node000003_Node000052"><a xlink:title=" ">
<path fill="none" stroke="#63b8ff" d="M616.58,-403.92C591.35,-398.06 555.83,-389.8 527.46,-383.21"/>
<polygon fill="#63b8ff" stroke="#63b8ff" points="615.71,-407.32 626.24,-406.17 617.3,-400.5 615.71,-407.32"/>
</a>
</g>
</g>
<!-- Node53 -->
<g id="Node000053" class="node">
<title>Node53</title>
<g id="a_Node000053"><a xlink:href="../../d2/d73/group___palette_colors.html#gaea6bd3ab3ec62d88e2dcc7ab2486dcd4" target="_top" xlink:title="Get a color from a palette.">
<polygon fill="white" stroke="#666666" points="529.88,-343.75 429.88,-343.75 429.88,-323 529.88,-323 529.88,-343.75"/>
<text text-anchor="middle" x="479.88" y="-330.25" font-family="Helvetica,sans-Serif" font-size="10.00">ColorFromPalette</text>
</a>
</g>
</g>
<!-- Node3&#45;&gt;Node53 -->
<g id="edge31_Node000003_Node000053" class="edge">
<title>Node3&#45;&gt;Node53</title>
<g id="a_edge31_Node000003_Node000053"><a xlink:title=" ">
<path fill="none" stroke="#63b8ff" d="M616.88,-401.87C609.79,-399.04 602.52,-395.56 596.25,-391.38 576.9,-378.46 580.33,-365.13 560.25,-353.38 551.05,-347.99 540.43,-344.04 530.01,-341.16"/>
<polygon fill="#63b8ff" stroke="#63b8ff" points="615.68,-405.16 626.28,-405.25 618.06,-398.57 615.68,-405.16"/>
</a>
</g>
</g>
<!-- Node54 -->
<g id="Node000054" class="node">
<title>Node54</title>
<g id="a_Node000054"><a xlink:href="../../d2/d73/group___palette_colors.html#ga61f55da5eb81ddc50f7855b26fb0d69b" target="_top" xlink:title="Same as ColorFromPalette, but with uint16_t index to give greater precision.">
<polygon fill="white" stroke="#666666" points="552.75,-304.75 407,-304.75 407,-284 552.75,-284 552.75,-304.75"/>
<text text-anchor="middle" x="479.88" y="-291.25" font-family="Helvetica,sans-Serif" font-size="10.00">ColorFromPaletteExtended</text>
</a>
</g>
</g>
<!-- Node3&#45;&gt;Node54 -->
<g id="edge32_Node000003_Node000054" class="edge">
<title>Node3&#45;&gt;Node54</title>
<g id="a_edge32_Node000003_Node000054"><a xlink:title=" ">
<path fill="none" stroke="#63b8ff" d="M617.02,-403.75C609.56,-400.81 602.09,-396.81 596.25,-391.38 568.59,-365.65 589.38,-338.43 560.25,-314.38 555.76,-310.67 550.67,-307.63 545.29,-305.15"/>
<polygon fill="#63b8ff" stroke="#63b8ff" points="615.72,-407 626.31,-406.84 617.93,-400.36 615.72,-407"/>
</a>
</g>
</g>
<!-- Node55 -->
<g id="Node000055" class="node">
<title>Node55</title>
<g id="a_Node000055"><a xlink:href="../../d2/d73/group___palette_colors.html#ga681c8340a30e692e7bbfec5a104cc80f" target="_top" xlink:title=" ">
<polygon fill="white" stroke="#666666" points="552.75,-265.75 407,-265.75 407,-245 552.75,-245 552.75,-265.75"/>
<text text-anchor="middle" x="479.88" y="-252.25" font-family="Helvetica,sans-Serif" font-size="10.00">ColorFromPaletteExtended</text>
</a>
</g>
</g>
<!-- Node3&#45;&gt;Node55 -->
<g id="edge33_Node000003_Node000055" class="edge">
<title>Node3&#45;&gt;Node55</title>
<g id="a_edge33_Node000003_Node000055"><a xlink:title=" ">
<path fill="none" stroke="#63b8ff" d="M616.85,-404.42C609.28,-401.47 601.8,-397.29 596.25,-391.38 559.32,-352.01 599.44,-312.5 560.25,-275.38 556.33,-271.66 551.82,-268.61 546.99,-266.1"/>
<polygon fill="#63b8ff" stroke="#63b8ff" points="615.76,-407.75 626.36,-407.47 617.9,-401.08 615.76,-407.75"/>
</a>
</g>
</g>
<!-- Node56 -->
<g id="Node000056" class="node">
<title>Node56</title>
<g id="a_Node000056"><a xlink:href="../../d2/d73/group___palette_colors.html#ga59c2f3e8a12b9eef789c37ae4d5f0182" target="_top" xlink:title="Same as ColorFromPalette, but higher precision.">
<polygon fill="white" stroke="#666666" points="552.75,-226.75 407,-226.75 407,-206 552.75,-206 552.75,-226.75"/>
<text text-anchor="middle" x="479.88" y="-213.25" font-family="Helvetica,sans-Serif" font-size="10.00">ColorFromPaletteExtended</text>
</a>
</g>
</g>
<!-- Node3&#45;&gt;Node56 -->
<g id="edge34_Node000003_Node000056" class="edge">
<title>Node3&#45;&gt;Node56</title>
<g id="a_edge34_Node000003_Node000056"><a xlink:title=" ">
<path fill="none" stroke="#63b8ff" d="M617.01,-404.87C609.28,-401.91 601.68,-397.61 596.25,-391.38 549.77,-338.07 609.79,-286.85 560.25,-236.38 556.67,-232.72 552.52,-229.7 548.04,-227.21"/>
<polygon fill="#63b8ff" stroke="#63b8ff" points="615.76,-408.15 626.35,-407.78 617.85,-401.46 615.76,-408.15"/>
</a>
</g>
</g>
<!-- Node57 -->
<g id="Node000057" class="node">
<title>Node57</title>
<g id="a_Node000057"><a xlink:href="../../de/da4/group___noise_fill.html#ga714a0f305e385a60d81a40d1f98b53fc" target="_top" xlink:title="Fill an LED matrix with random colors, using 16&#45;bit noise.">
<polygon fill="white" stroke="#666666" points="521.62,-187.75 438.12,-187.75 438.12,-167 521.62,-167 521.62,-187.75"/>
<text text-anchor="middle" x="479.88" y="-174.25" font-family="Helvetica,sans-Serif" font-size="10.00">fill_2dnoise16</text>
</a>
</g>
</g>
<!-- Node3&#45;&gt;Node57 -->
<g id="edge37_Node000003_Node000057" class="edge">
<title>Node3&#45;&gt;Node57</title>
<g id="a_edge37_Node000003_Node000057"><a xlink:title=" ">
<path fill="none" stroke="#63b8ff" d="M616.82,-405.03C609.09,-402.07 601.54,-397.73 596.25,-391.38 540.11,-324.01 620.26,-261.32 560.25,-197.38 550.33,-186.81 535.71,-181.48 521.72,-178.91"/>
<polygon fill="#63b8ff" stroke="#63b8ff" points="615.6,-408.32 626.19,-407.92 617.67,-401.63 615.6,-408.32"/>
</a>
</g>
</g>
<!-- Node59 -->
<g id="Node000059" class="node">
<title>Node59</title>
<g id="a_Node000059"><a xlink:href="../../de/da4/group___noise_fill.html#ga6fcc17e60eac4b9dbb620f7e354177f1" target="_top" xlink:title="Fill an LED matrix with random colors, using 8&#45;bit noise.">
<polygon fill="white" stroke="#666666" points="518.62,-148.75 441.12,-148.75 441.12,-128 518.62,-128 518.62,-148.75"/>
<text text-anchor="middle" x="479.88" y="-135.25" font-family="Helvetica,sans-Serif" font-size="10.00">fill_2dnoise8</text>
</a>
</g>
</g>
<!-- Node3&#45;&gt;Node59 -->
<g id="edge39_Node000003_Node000059" class="edge">
<title>Node3&#45;&gt;Node59</title>
<g id="a_edge39_Node000003_Node000059"><a xlink:title=" ">
<path fill="none" stroke="#63b8ff" d="M616.87,-405.21C609.08,-402.24 601.49,-397.86 596.25,-391.38 530.39,-309.88 630.8,-235.85 560.25,-158.38 549.82,-146.92 533.88,-141.6 519.02,-139.26"/>
<polygon fill="#63b8ff" stroke="#63b8ff" points="615.75,-408.52 626.34,-408.08 617.79,-401.83 615.75,-408.52"/>
</a>
</g>
</g>
<!-- Node60 -->
<g id="Node000060" class="node">
<title>Node60</title>
<g id="a_Node000060"><a xlink:href="../../dd/d61/_fx_water_8ino.html#aa04e7c98cb0803818832555bf128fb57" target="_top" xlink:title=" ">
<polygon fill="white" stroke="#666666" points="560.25,-826.75 399.5,-826.75 399.5,-806 560.25,-806 560.25,-826.75"/>
<text text-anchor="middle" x="479.88" y="-813.25" font-family="Helvetica,sans-Serif" font-size="10.00">MyColorFromPaletteExtended</text>
</a>
</g>
</g>
<!-- Node3&#45;&gt;Node60 -->
<g id="edge40_Node000003_Node000060" class="edge">
<title>Node3&#45;&gt;Node60</title>
<g id="a_edge40_Node000003_Node000060"><a xlink:title=" ">
<path fill="none" stroke="#63b8ff" d="M616.79,-417.48C609,-420.44 601.42,-424.84 596.25,-431.38 521.64,-525.59 603.13,-587.1 560.25,-699.38 543.61,-742.94 507.95,-786.29 490.66,-805.74"/>
<polygon fill="#63b8ff" stroke="#63b8ff" points="617.71,-420.85 626.27,-414.61 615.68,-414.15 617.71,-420.85"/>
</a>
</g>
</g>
<!-- Node9 -->
<g id="Node000009" class="node">
<title>Node9</title>
<g id="a_Node000009"><a xlink:href="../../d5/d25/_demo_reel100_8ino.html#a4875f6d9a2b0f08d3cf221974234121b" target="_top" xlink:title=" ">
<polygon fill="#fff0f0" stroke="red" points="301.62,-731.75 263.88,-731.75 263.88,-711 301.62,-711 301.62,-731.75"/>
<text text-anchor="middle" x="282.75" y="-718.25" font-family="Helvetica,sans-Serif" font-size="10.00">bpm</text>
</a>
</g>
</g>
<!-- Node8&#45;&gt;Node9 -->
<g id="edge8_Node000008_Node000009" class="edge">
<title>Node8&#45;&gt;Node9</title>
<g id="a_edge8_Node000008_Node000009"><a xlink:title=" ">
<path fill="none" stroke="#63b8ff" d="M419,-497.5C411.65,-500.9 404.86,-505.41 399.5,-511.38 342.04,-575.29 422.47,-638.85 363.5,-701.38 347.73,-718.09 320.25,-721.69 302.03,-722.06"/>
<polygon fill="#63b8ff" stroke="#63b8ff" points="420.17,-500.8 428.24,-493.94 417.65,-494.27 420.17,-500.8"/>
</a>
</g>
</g>
<!-- Node12 -->
<g id="Node000012" class="node">
<title>Node12</title>
<g id="a_Node000012"><a xlink:href="../../d1/d60/classfl_1_1_demo_reel100.html#a72cc7eea48cf0be16b34fee7d4da64f4" target="_top" xlink:title=" ">
<polygon fill="white" stroke="#666666" points="345.12,-692.75 220.38,-692.75 220.38,-672 345.12,-672 345.12,-692.75"/>
<text text-anchor="middle" x="282.75" y="-679.25" font-family="Helvetica,sans-Serif" font-size="10.00">fl::DemoReel100::bpm</text>
</a>
</g>
</g>
<!-- Node8&#45;&gt;Node12 -->
<g id="edge9_Node000008_Node000012" class="edge">
<title>Node8&#45;&gt;Node12</title>
<g id="a_edge9_Node000008_Node000012"><a xlink:title=" ">
<path fill="none" stroke="#63b8ff" d="M418.98,-497.86C411.7,-501.21 404.94,-505.61 399.5,-511.38 352.19,-561.59 412,-613.31 363.5,-662.38 358.38,-667.55 352.14,-671.46 345.42,-674.4"/>
<polygon fill="#63b8ff" stroke="#63b8ff" points="420.04,-501.2 428.11,-494.33 417.52,-494.67 420.04,-501.2"/>
</a>
</g>
</g>
<!-- Node13 -->
<g id="Node000013" class="node">
<title>Node13</title>
<g id="a_Node000013"><a xlink:href="../../d4/dd0/_twinkle_fox_8ino.html#aff322ac4b9956a48a5d4e90853178b9f" target="_top" xlink:title=" ">
<polygon fill="white" stroke="#666666" points="340.25,-653.75 225.25,-653.75 225.25,-633 340.25,-633 340.25,-653.75"/>
<text text-anchor="middle" x="282.75" y="-640.25" font-family="Helvetica,sans-Serif" font-size="10.00">computeOneTwinkle</text>
</a>
</g>
</g>
<!-- Node8&#45;&gt;Node13 -->
<g id="edge10_Node000008_Node000013" class="edge">
<title>Node8&#45;&gt;Node13</title>
<g id="a_edge10_Node000008_Node000013"><a xlink:title=" ">
<path fill="none" stroke="#63b8ff" d="M418.86,-498.49C411.72,-501.75 405.02,-505.95 399.5,-511.38 362.21,-548.02 401.66,-587.63 363.5,-623.38 357.04,-629.43 349.03,-633.72 340.61,-636.75"/>
<polygon fill="#63b8ff" stroke="#63b8ff" points="420.08,-501.77 428.15,-494.91 417.56,-495.24 420.08,-501.77"/>
</a>
</g>
</g>
<!-- Node16 -->
<g id="Node000016" class="node">
<title>Node16</title>
<g id="a_Node000016"><a xlink:href="../../de/db5/classfl_1_1_twinkle_fox.html#a39614750a1a87e8a8be19c36f6c48677" target="_top" xlink:title=" ">
<polygon fill="white" stroke="#666666" points="357.88,-110.12 207.62,-110.12 207.62,-76.62 357.88,-76.62 357.88,-110.12"/>
<text text-anchor="start" x="215.62" y="-96.62" font-family="Helvetica,sans-Serif" font-size="10.00">fl::TwinkleFox::computeOne</text>
<text text-anchor="middle" x="282.75" y="-83.88" font-family="Helvetica,sans-Serif" font-size="10.00">Twinkle</text>
</a>
</g>
</g>
<!-- Node8&#45;&gt;Node16 -->
<g id="edge12_Node000008_Node000016" class="edge">
<title>Node8&#45;&gt;Node16</title>
<g id="a_edge12_Node000008_Node000016"><a xlink:title=" ">
<path fill="none" stroke="#63b8ff" d="M419.05,-477.89C411.58,-474.41 404.73,-469.71 399.5,-463.38 301.56,-344.89 460.16,-238.91 363.5,-119.38 360.75,-115.98 357.55,-113.02 354.05,-110.44"/>
<polygon fill="#63b8ff" stroke="#63b8ff" points="417.55,-481.06 428.14,-481.38 420.06,-474.53 417.55,-481.06"/>
</a>
</g>
</g>
<!-- Node20 -->
<g id="Node000020" class="node">
<title>Node20</title>
<g id="a_Node000020"><a xlink:href="../../d5/d9b/classfl_1_1_fire2012.html#a39d20a6dc4f3a771b8b12696db9c4a15" target="_top" xlink:title=" ">
<polygon fill="white" stroke="#666666" points="332.75,-614.75 232.75,-614.75 232.75,-594 332.75,-594 332.75,-614.75"/>
<text text-anchor="middle" x="282.75" y="-601.25" font-family="Helvetica,sans-Serif" font-size="10.00">fl::Fire2012::draw</text>
</a>
</g>
</g>
<!-- Node8&#45;&gt;Node20 -->
<g id="edge14_Node000008_Node000020" class="edge">
<title>Node8&#45;&gt;Node20</title>
<g id="a_edge14_Node000008_Node000020"><a xlink:title=" ">
<path fill="none" stroke="#63b8ff" d="M419.04,-499.51C411.98,-502.61 405.26,-506.5 399.5,-511.38 371.9,-534.77 391.65,-561.65 363.5,-584.38 354.84,-591.37 344.05,-595.96 333.24,-598.96"/>
<polygon fill="#63b8ff" stroke="#63b8ff" points="420.02,-502.88 428.13,-496.06 417.53,-496.34 420.02,-502.88"/>
</a>
</g>
</g>
<!-- Node21 -->
<g id="Node000021" class="node">
<title>Node21</title>
<g id="a_Node000021"><a xlink:href="../../d2/d73/group___palette_colors.html#gac3c3f6bd497b7916177d7cb95aa5a76c" target="_top" xlink:title="Fill a range of LEDs with a sequence of entries from a palette.">
<polygon fill="white" stroke="#666666" points="316.62,-575.75 248.88,-575.75 248.88,-555 316.62,-555 316.62,-575.75"/>
<text text-anchor="middle" x="282.75" y="-562.25" font-family="Helvetica,sans-Serif" font-size="10.00">fill_palette</text>
</a>
</g>
</g>
<!-- Node8&#45;&gt;Node21 -->
<g id="edge15_Node000008_Node000021" class="edge">
<title>Node8&#45;&gt;Node21</title>
<g id="a_edge15_Node000008_Node000021"><a xlink:title=" ">
<path fill="none" stroke="#63b8ff" d="M419.94,-501.8C412.84,-504.52 405.86,-507.69 399.5,-511.38 380.46,-522.41 382.8,-534.8 363.5,-545.38 349.23,-553.19 331.85,-558.02 316.97,-560.96"/>
<polygon fill="#63b8ff" stroke="#63b8ff" points="420.67,-505.26 428.95,-498.65 418.35,-498.65 420.67,-505.26"/>
</a>
</g>
</g>
<!-- Node22 -->
<g id="Node000022" class="node">
<title>Node22</title>
<g id="a_Node000022"><a xlink:href="../../d2/d73/group___palette_colors.html#ga08fe42a864e3a7ee802d89a9b72d97c1" target="_top" xlink:title="Fill a range of LEDs with a sequence of entries from a palette, so that the entire palette smoothly c...">
<polygon fill="white" stroke="#666666" points="337.25,-536.75 228.25,-536.75 228.25,-516 337.25,-516 337.25,-536.75"/>
<text text-anchor="middle" x="282.75" y="-523.25" font-family="Helvetica,sans-Serif" font-size="10.00">fill_palette_circular</text>
</a>
</g>
</g>
<!-- Node8&#45;&gt;Node22 -->
<g id="edge16_Node000008_Node000022" class="edge">
<title>Node8&#45;&gt;Node22</title>
<g id="a_edge16_Node000008_Node000022"><a xlink:title=" ">
<path fill="none" stroke="#63b8ff" d="M418.23,-499.5C392.45,-504.65 362.64,-510.61 337.65,-515.6"/>
<polygon fill="#63b8ff" stroke="#63b8ff" points="418.78,-502.96 427.9,-497.56 417.41,-496.09 418.78,-502.96"/>
</a>
</g>
</g>
<!-- Node23 -->
<g id="Node000023" class="node">
<title>Node23</title>
<g id="a_Node000023"><a xlink:href="../../d1/dc5/_color_palette_8ino.html#ae6b0ecfd96a40d5cec6d0dba0a3685fe" target="_top" xlink:title=" ">
<polygon fill="#fff0f0" stroke="red" points="354.5,-497.75 211,-497.75 211,-477 354.5,-477 354.5,-497.75"/>
<text text-anchor="middle" x="282.75" y="-484.25" font-family="Helvetica,sans-Serif" font-size="10.00">FillLEDsFromPaletteColors</text>
</a>
</g>
</g>
<!-- Node8&#45;&gt;Node23 -->
<g id="edge17_Node000008_Node000023" class="edge">
<title>Node8&#45;&gt;Node23</title>
<g id="a_edge17_Node000008_Node000023"><a xlink:title=" ">
<path fill="none" stroke="#63b8ff" d="M417.93,-487.38C397.96,-487.38 375.59,-487.38 354.92,-487.38"/>
<polygon fill="#63b8ff" stroke="#63b8ff" points="417.87,-490.88 427.87,-487.38 417.87,-483.88 417.87,-490.88"/>
</a>
</g>
</g>
<!-- Node25 -->
<g id="Node000025" class="node">
<title>Node25</title>
<g id="a_Node000025"><a xlink:href="../../db/d92/_fire2012_with_palette_8ino.html#af5890ba18cb2066c5a24a358de991a89" target="_top" xlink:title=" ">
<polygon fill="#fff0f0" stroke="red" points="339.88,-458.75 225.62,-458.75 225.62,-438 339.88,-438 339.88,-458.75"/>
<text text-anchor="middle" x="282.75" y="-445.25" font-family="Helvetica,sans-Serif" font-size="10.00">Fire2012WithPalette</text>
</a>
</g>
</g>
<!-- Node8&#45;&gt;Node25 -->
<g id="edge18_Node000008_Node000025" class="edge">
<title>Node8&#45;&gt;Node25</title>
<g id="a_edge18_Node000008_Node000025"><a xlink:title=" ">
<path fill="none" stroke="#63b8ff" d="M418.28,-475.26C392.61,-470.13 362.93,-464.2 337.99,-459.22"/>
<polygon fill="#63b8ff" stroke="#63b8ff" points="417.41,-478.66 427.9,-477.19 418.78,-471.79 417.41,-478.66"/>
</a>
</g>
</g>
<!-- Node27 -->
<g id="Node000027" class="node">
<title>Node27</title>
<g id="a_Node000027"><a xlink:href="../../d8/d2c/_fire2023_8ino.html#abe327b12b434120ecf20ae3f46800983" target="_top" xlink:title=" ">
<polygon fill="#fff0f0" stroke="red" points="311.75,-419.75 253.75,-419.75 253.75,-399 311.75,-399 311.75,-419.75"/>
<text text-anchor="middle" x="282.75" y="-406.25" font-family="Helvetica,sans-Serif" font-size="10.00">Fire2023</text>
</a>
</g>
</g>
<!-- Node8&#45;&gt;Node27 -->
<g id="edge19_Node000008_Node000027" class="edge">
<title>Node8&#45;&gt;Node27</title>
<g id="a_edge19_Node000008_Node000027"><a xlink:title=" ">
<path fill="none" stroke="#63b8ff" d="M419.94,-472.95C412.84,-470.23 405.86,-467.06 399.5,-463.38 380.46,-452.34 382.8,-439.95 363.5,-429.38 347.6,-420.66 327.85,-415.67 311.98,-412.86"/>
<polygon fill="#63b8ff" stroke="#63b8ff" points="418.35,-476.1 428.95,-476.1 420.67,-469.49 418.35,-476.1"/>
</a>
</g>
</g>
<!-- Node29 -->
<g id="Node000029" class="node">
<title>Node29</title>
<g id="a_Node000029"><a xlink:href="../../d2/d73/group___palette_colors.html#gaf34a692bbec05b697dc9c06d8bb0f74f" target="_top" xlink:title="Maps an array of palette color indexes into an array of LED colors.">
<polygon fill="white" stroke="#666666" points="344.38,-381.12 221.12,-381.12 221.12,-347.62 344.38,-347.62 344.38,-381.12"/>
<text text-anchor="start" x="229.12" y="-367.62" font-family="Helvetica,sans-Serif" font-size="10.00">map_data_into_colors</text>
<text text-anchor="middle" x="282.75" y="-354.88" font-family="Helvetica,sans-Serif" font-size="10.00">_through_palette</text>
</a>
</g>
</g>
<!-- Node8&#45;&gt;Node29 -->
<g id="edge20_Node000008_Node000029" class="edge">
<title>Node8&#45;&gt;Node29</title>
<g id="a_edge20_Node000008_Node000029"><a xlink:title=" ">
<path fill="none" stroke="#63b8ff" d="M419.04,-475.24C411.98,-472.14 405.26,-468.25 399.5,-463.38 371.9,-439.98 390.84,-414.06 363.5,-390.38 358,-385.61 351.6,-381.71 344.87,-378.53"/>
<polygon fill="#63b8ff" stroke="#63b8ff" points="417.53,-478.41 428.13,-478.69 420.02,-471.87 417.53,-478.41"/>
</a>
</g>
</g>
<!-- Node30 -->
<g id="Node000030" class="node">
<title>Node30</title>
<g id="a_Node000030"><a xlink:href="../../d9/d41/classfl_1_1_noise_palette.html#a546f14f524f7a1b965c872ddad7be8a4" target="_top" xlink:title=" ">
<polygon fill="white" stroke="#666666" points="355.25,-329.12 210.25,-329.12 210.25,-295.62 355.25,-295.62 355.25,-329.12"/>
<text text-anchor="start" x="218.25" y="-315.62" font-family="Helvetica,sans-Serif" font-size="10.00">fl::NoisePalette::mapNoise</text>
<text text-anchor="middle" x="282.75" y="-302.88" font-family="Helvetica,sans-Serif" font-size="10.00">ToLEDsUsingPalette</text>
</a>
</g>
</g>
<!-- Node8&#45;&gt;Node30 -->
<g id="edge21_Node000008_Node000030" class="edge">
<title>Node8&#45;&gt;Node30</title>
<g id="a_edge21_Node000008_Node000030"><a xlink:title=" ">
<path fill="none" stroke="#63b8ff" d="M418.71,-476.42C411.59,-473.14 404.94,-468.88 399.5,-463.38 358.89,-422.23 403.66,-379.96 363.5,-338.38 360.26,-335.02 356.59,-332.1 352.64,-329.56"/>
<polygon fill="#63b8ff" stroke="#63b8ff" points="417.38,-479.66 427.97,-480.02 419.92,-473.13 417.38,-479.66"/>
</a>
</g>
</g>
<!-- Node31 -->
<g id="Node000031" class="node">
<title>Node31</title>
<g id="a_Node000031"><a xlink:href="../../da/dda/_noise_plus_palette_8ino.html#a280e07fce1769d79d75e63ce6236a918" target="_top" xlink:title=" ">
<polygon fill="#fff0f0" stroke="red" points="363.5,-277.75 202,-277.75 202,-257 363.5,-257 363.5,-277.75"/>
<text text-anchor="middle" x="282.75" y="-264.25" font-family="Helvetica,sans-Serif" font-size="10.00">mapNoiseToLEDsUsingPalette</text>
</a>
</g>
</g>
<!-- Node8&#45;&gt;Node31 -->
<g id="edge22_Node000008_Node000031" class="edge">
<title>Node8&#45;&gt;Node31</title>
<g id="a_edge22_Node000008_Node000031"><a xlink:title=" ">
<path fill="none" stroke="#63b8ff" d="M419.07,-477.18C411.72,-473.79 404.9,-469.31 399.5,-463.38 345.43,-404.03 419.31,-344.07 363.5,-286.38 360.33,-283.1 356.71,-280.35 352.8,-278.04"/>
<polygon fill="#63b8ff" stroke="#63b8ff" points="417.73,-480.42 428.32,-480.74 420.24,-473.88 417.73,-480.42"/>
</a>
</g>
</g>
<!-- Node35 -->
<g id="Node000035" class="node">
<title>Node35</title>
<g id="a_Node000035"><a xlink:href="../../d2/db2/classfl_1_1_pacifica.html#ac949d5e9a88b724a060954658b892ebc" target="_top" xlink:title=" ">
<polygon fill="#fff0f0" stroke="red" points="336.88,-239.12 228.62,-239.12 228.62,-205.62 336.88,-205.62 336.88,-239.12"/>
<text text-anchor="start" x="236.62" y="-225.62" font-family="Helvetica,sans-Serif" font-size="10.00">fl::Pacifica::pacifica</text>
<text text-anchor="middle" x="282.75" y="-212.88" font-family="Helvetica,sans-Serif" font-size="10.00">_one_layer</text>
</a>
</g>
</g>
<!-- Node8&#45;&gt;Node35 -->
<g id="edge23_Node000008_Node000035" class="edge">
<title>Node8&#45;&gt;Node35</title>
<g id="a_edge23_Node000008_Node000035"><a xlink:title=" ">
<path fill="none" stroke="#63b8ff" d="M418.88,-477.35C411.55,-473.94 404.8,-469.4 399.5,-463.38 335.5,-390.63 426.71,-321.8 363.5,-248.38 356.56,-240.32 347.1,-234.74 337.11,-230.89"/>
<polygon fill="#63b8ff" stroke="#63b8ff" points="417.52,-480.58 428.11,-480.92 420.05,-474.05 417.52,-480.58"/>
</a>
</g>
</g>
<!-- Node38 -->
<g id="Node000038" class="node">
<title>Node38</title>
<g id="a_Node000038"><a xlink:href="../../dc/d25/_pacifica_8ino.html#a74ff76f68b211ed517ba9110d1084302" target="_top" xlink:title=" ">
<polygon fill="#fff0f0" stroke="red" points="336.12,-187.75 229.38,-187.75 229.38,-167 336.12,-167 336.12,-187.75"/>
<text text-anchor="middle" x="282.75" y="-174.25" font-family="Helvetica,sans-Serif" font-size="10.00">pacifica_one_layer</text>
</a>
</g>
</g>
<!-- Node8&#45;&gt;Node38 -->
<g id="edge24_Node000008_Node000038" class="edge">
<title>Node8&#45;&gt;Node38</title>
<g id="a_edge24_Node000008_Node000038"><a xlink:title=" ">
<path fill="none" stroke="#63b8ff" d="M419.22,-477.75C411.72,-474.29 404.83,-469.63 399.5,-463.38 321.85,-372.23 443.84,-285.16 363.5,-196.38 356.34,-188.46 346.53,-183.55 336.23,-180.57"/>
<polygon fill="#63b8ff" stroke="#63b8ff" points="417.73,-480.93 428.32,-481.23 420.23,-474.39 417.73,-480.93"/>
</a>
</g>
</g>
<!-- Node41 -->
<g id="Node000041" class="node">
<title>Node41</title>
<g id="a_Node000041"><a xlink:href="../../d6/d0a/group___palette_upscale.html#gab25990089da4e6e2179c52bf84371ef6" target="_top" xlink:title="Convert a 16&#45;entry palette to a 256&#45;entry palette.">
<polygon fill="white" stroke="#666666" points="327.12,-148.75 238.38,-148.75 238.38,-128 327.12,-128 327.12,-148.75"/>
<text text-anchor="middle" x="282.75" y="-135.25" font-family="Helvetica,sans-Serif" font-size="10.00">UpscalePalette</text>
</a>
</g>
</g>
<!-- Node8&#45;&gt;Node41 -->
<g id="edge25_Node000008_Node000041" class="edge">
<title>Node8&#45;&gt;Node41</title>
<g id="a_edge25_Node000008_Node000041"><a xlink:title=" ">
<path fill="none" stroke="#63b8ff" d="M419.13,-477.83C411.64,-474.35 404.78,-469.67 399.5,-463.38 311.85,-358.74 453.64,-260.88 363.5,-158.38 354.36,-147.98 340.69,-142.59 327.25,-139.9"/>
<polygon fill="#63b8ff" stroke="#63b8ff" points="417.63,-481 428.22,-481.31 420.14,-474.47 417.63,-481"/>
</a>
</g>
</g>
<!-- Node42 -->
<g id="Node000042" class="node">
<title>Node42</title>
<g id="a_Node000042"><a xlink:href="../../d6/d0a/group___palette_upscale.html#ga7ece2048e58a7d25a494d9856b2218bd" target="_top" xlink:title="Convert a 32&#45;entry palette to a 256&#45;entry palette.">
<polygon fill="white" stroke="#666666" points="327.12,-848.75 238.38,-848.75 238.38,-828 327.12,-828 327.12,-848.75"/>
<text text-anchor="middle" x="282.75" y="-835.25" font-family="Helvetica,sans-Serif" font-size="10.00">UpscalePalette</text>
</a>
</g>
</g>
<!-- Node8&#45;&gt;Node42 -->
<g id="edge26_Node000008_Node000042" class="edge">
<title>Node8&#45;&gt;Node42</title>
<g id="a_edge26_Node000008_Node000042"><a xlink:title=" ">
<path fill="none" stroke="#63b8ff" d="M419.13,-496.92C411.64,-500.39 404.77,-505.08 399.5,-511.38 311.32,-616.72 454.18,-715.17 363.5,-818.38 354.36,-828.78 340.7,-834.17 327.25,-836.85"/>
<polygon fill="#63b8ff" stroke="#63b8ff" points="420.13,-500.28 428.22,-493.43 417.63,-493.74 420.13,-500.28"/>
</a>
</g>
</g>
<!-- Node43 -->
<g id="Node000043" class="node">
<title>Node43</title>
<g id="a_Node000043"><a xlink:href="../../d6/d0a/group___palette_upscale.html#gaa88523d1afb29cf3f75b9b2725ba55d3" target="_top" xlink:title="Convert a 16&#45;entry palette to a 256&#45;entry palette.">
<polygon fill="#fff0f0" stroke="red" points="327.12,-809.75 238.38,-809.75 238.38,-789 327.12,-789 327.12,-809.75"/>
<text text-anchor="middle" x="282.75" y="-796.25" font-family="Helvetica,sans-Serif" font-size="10.00">UpscalePalette</text>
</a>
</g>
</g>
<!-- Node8&#45;&gt;Node43 -->
<g id="edge27_Node000008_Node000043" class="edge">
<title>Node8&#45;&gt;Node43</title>
<g id="a_edge27_Node000008_Node000043"><a xlink:title=" ">
<path fill="none" stroke="#63b8ff" d="M419.22,-497C411.72,-500.46 404.83,-505.12 399.5,-511.38 321.59,-602.88 443.58,-689.76 363.5,-779.38 354.37,-789.59 340.87,-794.96 327.57,-797.68"/>
<polygon fill="#63b8ff" stroke="#63b8ff" points="420.23,-500.36 428.32,-493.52 417.73,-493.82 420.23,-500.36"/>
</a>
</g>
</g>
<!-- Node50 -->
<g id="Node000050" class="node">
<title>Node50</title>
<g id="a_Node000050"><a xlink:href="../../d6/d0a/group___palette_upscale.html#gacd78065e7fb5f0f0997610b67eab968c" target="_top" xlink:title="Convert a 32&#45;entry palette to a 256&#45;entry palette.">
<polygon fill="white" stroke="#666666" points="327.12,-770.75 238.38,-770.75 238.38,-750 327.12,-750 327.12,-770.75"/>
<text text-anchor="middle" x="282.75" y="-757.25" font-family="Helvetica,sans-Serif" font-size="10.00">UpscalePalette</text>
</a>
</g>
</g>
<!-- Node8&#45;&gt;Node50 -->
<g id="edge28_Node000008_Node000050" class="edge">
<title>Node8&#45;&gt;Node50</title>
<g id="a_edge28_Node000008_Node000050"><a xlink:title=" ">
<path fill="none" stroke="#63b8ff" d="M418.82,-497.35C411.51,-500.77 404.77,-505.32 399.5,-511.38 331.83,-589.07 433.01,-664.33 363.5,-740.38 354.25,-750.49 340.73,-755.83 327.43,-758.56"/>
<polygon fill="#63b8ff" stroke="#63b8ff" points="419.99,-500.65 428.05,-493.77 417.46,-494.12 419.99,-500.65"/>
</a>
</g>
</g>
<!-- Node13&#45;&gt;Node14 -->
<g id="edge11_Node000013_Node000014" class="edge">
<title>Node13&#45;&gt;Node14</title>
<g id="a_edge11_Node000013_Node000014"><a xlink:title=" ">
<path fill="none" stroke="#63b8ff" d="M214.46,-657.95C210.17,-659.58 205.98,-661.38 202,-663.38 156.66,-686.08 112.96,-728.73 93.94,-748.63"/>
<polygon fill="#63b8ff" stroke="#63b8ff" points="215.53,-661.28 223.86,-654.73 213.26,-654.66 215.53,-661.28"/>
</a>
</g>
</g>
<!-- Node16&#45;&gt;Node17 -->
<g id="edge13_Node000016_Node000017" class="edge">
<title>Node16&#45;&gt;Node17</title>
<g id="a_edge13_Node000016_Node000017"><a xlink:title=" ">
<path fill="none" stroke="#63b8ff" d="M195.87,-83.82C186.08,-82.73 176.11,-81.62 166.36,-80.54"/>
<polygon fill="#63b8ff" stroke="#63b8ff" points="195.44,-87.29 205.77,-84.92 196.22,-80.34 195.44,-87.29"/>
</a>
</g>
</g>
<!-- Node58 -->
<g id="Node000058" class="node">
<title>Node58</title>
<g id="a_Node000058"><a xlink:href="../../d7/ddc/_noise_playground_8ino.html#afe461d27b9c48d5921c00d521181f12f" target="_top" xlink:title=" ">
<polygon fill="white" stroke="#666666" points="301.25,-20.75 264.25,-20.75 264.25,0 301.25,0 301.25,-20.75"/>
<text text-anchor="middle" x="282.75" y="-7.25" font-family="Helvetica,sans-Serif" font-size="10.00">loop</text>
</a>
</g>
</g>
<!-- Node57&#45;&gt;Node58 -->
<g id="edge38_Node000057_Node000058" class="edge">
<title>Node57&#45;&gt;Node58</title>
<g id="a_edge38_Node000057_Node000058"><a xlink:title=" ">
<path fill="none" stroke="#63b8ff" d="M426.82,-172.41C416.75,-169.34 407.02,-164.61 399.5,-157.38 358.47,-117.87 403.62,-74.8 363.5,-34.38 347,-17.75 319.45,-12.55 301.44,-10.98"/>
<polygon fill="#63b8ff" stroke="#63b8ff" points="425.76,-175.76 436.31,-174.76 427.44,-168.96 425.76,-175.76"/>
</a>
</g>
</g>
<!-- Node61 -->
<g id="Node000061" class="node">
<title>Node61</title>
<g id="a_Node000061"><a xlink:href="../../dd/d61/_fx_water_8ino.html#afe461d27b9c48d5921c00d521181f12f" target="_top" xlink:title=" ">
<polygon fill="white" stroke="#666666" points="301.25,-924.75 264.25,-924.75 264.25,-904 301.25,-904 301.25,-924.75"/>
<text text-anchor="middle" x="282.75" y="-911.25" font-family="Helvetica,sans-Serif" font-size="10.00">loop</text>
</a>
</g>
</g>
<!-- Node60&#45;&gt;Node61 -->
<g id="edge41_Node000060_Node000061" class="edge">
<title>Node60&#45;&gt;Node61</title>
<g id="a_edge41_Node000060_Node000061"><a xlink:title=" ">
<path fill="none" stroke="#63b8ff" d="M455.97,-833.8C433.45,-850.26 397.58,-874.69 363.5,-890.38 343.14,-899.74 318.2,-906.57 301.69,-910.49"/>
<polygon fill="#63b8ff" stroke="#63b8ff" points="457.88,-836.74 463.83,-827.97 453.71,-831.12 457.88,-836.74"/>
</a>
</g>
</g>
<!-- Node63 -->
<g id="Node000063" class="node">
<title>Node63</title>
<g id="a_Node000063"><a xlink:href="../../d2/db0/_fx_pride2015_8ino.html#afe461d27b9c48d5921c00d521181f12f" target="_top" xlink:title=" ">
<polygon fill="white" stroke="#666666" points="498.38,-109.75 461.38,-109.75 461.38,-89 498.38,-89 498.38,-109.75"/>
<text text-anchor="middle" x="479.88" y="-96.25" font-family="Helvetica,sans-Serif" font-size="10.00">loop</text>
</a>
</g>
</g>
<!-- Node62&#45;&gt;Node63 -->
<g id="edge43_Node000062_Node000063" class="edge">
<title>Node62&#45;&gt;Node63</title>
<g id="a_edge43_Node000062_Node000063"><a xlink:title=" ">
<path fill="none" stroke="#63b8ff" d="M598.32,-354.71C597.6,-353.97 596.91,-353.19 596.25,-352.38 530.39,-270.88 630.8,-196.85 560.25,-119.38 544.75,-102.35 517.08,-98.87 498.85,-98.6"/>
<polygon fill="#63b8ff" stroke="#63b8ff" points="595.91,-357.27 605.96,-360.64 600.21,-351.74 595.91,-357.27"/>
</a>
</g>
</g>
</g>
</svg>
