<?xml version="1.0" encoding="UTF-8" standalone="no"?>
<!DOCTYPE svg PUBLIC "-//W3C//DTD SVG 1.1//EN"
 "http://www.w3.org/Graphics/SVG/1.1/DTD/svg11.dtd">
<!-- Generated by graphviz version 12.2.1 (20241206.2353)
 -->
<!-- Title: /home/runner/work/FastLED/FastLED/src/fx/detail/draw_context.h Pages: 1 -->
<svg width="551pt" height="225pt"
 viewBox="0.00 0.00 550.76 224.50" xmlns="http://www.w3.org/2000/svg" xmlns:xlink="http://www.w3.org/1999/xlink">
<g id="graph0" class="graph" transform="scale(1 1) rotate(0) translate(4 220.5)">
<title>/home/runner/work/FastLED/FastLED/src/fx/detail/draw_context.h</title>
<!-- Node1 -->
<g id="Node000001" class="node">
<title>Node1</title>
<g id="a_Node000001"><a xlink:title=" ">
<polygon fill="#999999" stroke="#666666" points="366.59,-216.5 217.09,-216.5 217.09,-170.25 366.59,-170.25 366.59,-216.5"/>
<text text-anchor="start" x="225.09" y="-203" font-family="Helvetica,sans-Serif" font-size="10.00">/home/runner/work/FastLED</text>
<text text-anchor="start" x="225.09" y="-190.25" font-family="Helvetica,sans-Serif" font-size="10.00">/FastLED/src/fx/detail</text>
<text text-anchor="middle" x="291.84" y="-177.5" font-family="Helvetica,sans-Serif" font-size="10.00">/draw_context.h</text>
</a>
</g>
</g>
<!-- Node2 -->
<g id="Node000002" class="node">
<title>Node2</title>
<g id="a_Node000002"><a xlink:title=" ">
<polygon fill="#e0e0e0" stroke="#999999" points="220.22,-20.75 167.47,-20.75 167.47,0 220.22,0 220.22,-20.75"/>
<text text-anchor="middle" x="193.84" y="-7.25" font-family="Helvetica,sans-Serif" font-size="10.00">stdint.h</text>
</a>
</g>
</g>
<!-- Node1&#45;&gt;Node2 -->
<g id="edge1_Node000001_Node000002" class="edge">
<title>Node1&#45;&gt;Node2</title>
<g id="a_edge1_Node000001_Node000002"><a xlink:title=" ">
<path fill="none" stroke="#63b8ff" d="M216.67,-185.06C149.05,-174.04 53.41,-146.47 6.84,-77.5 -29.8,-23.23 91.18,-13.1 155.83,-11.48"/>
<polygon fill="#63b8ff" stroke="#63b8ff" points="155.75,-14.98 165.68,-11.29 155.62,-7.98 155.75,-14.98"/>
</a>
</g>
</g>
<!-- Node3 -->
<g id="Node000003" class="node">
<title>Node3</title>
<g id="a_Node000003"><a xlink:href="../../df/d2a/namespace_8h.html" target="_top" xlink:title="Implements the FastLED namespace macros.">
<polygon fill="white" stroke="#666666" points="460.97,-20.75 370.72,-20.75 370.72,0 460.97,0 460.97,-20.75"/>
<text text-anchor="middle" x="415.84" y="-7.25" font-family="Helvetica,sans-Serif" font-size="10.00">fl/namespace.h</text>
</a>
</g>
</g>
<!-- Node1&#45;&gt;Node3 -->
<g id="edge2_Node000001_Node000003" class="edge">
<title>Node1&#45;&gt;Node3</title>
<g id="a_edge2_Node000001_Node000003"><a xlink:title=" ">
<path fill="none" stroke="#63b8ff" d="M366.83,-179.57C424.52,-165.35 500.5,-136.15 537.84,-77.5 557.06,-47.31 512.91,-29.9 472.45,-20.59"/>
<polygon fill="#63b8ff" stroke="#63b8ff" points="473.18,-17.17 462.67,-18.5 471.72,-24.01 473.18,-17.17"/>
</a>
</g>
</g>
<!-- Node4 -->
<g id="Node000004" class="node">
<title>Node4</title>
<g id="a_Node000004"><a xlink:href="../../db/dd1/crgb_8h.html" target="_top" xlink:title="Defines the red, green, and blue (RGB) pixel struct.">
<polygon fill="white" stroke="#666666" points="314.84,-134.25 268.84,-134.25 268.84,-113.5 314.84,-113.5 314.84,-134.25"/>
<text text-anchor="middle" x="291.84" y="-120.75" font-family="Helvetica,sans-Serif" font-size="10.00">crgb.h</text>
</a>
</g>
</g>
<!-- Node1&#45;&gt;Node4 -->
<g id="edge3_Node000001_Node000004" class="edge">
<title>Node1&#45;&gt;Node4</title>
<g id="a_edge3_Node000001_Node000004"><a xlink:title=" ">
<path fill="none" stroke="#63b8ff" d="M291.84,-169.9C291.84,-162.23 291.84,-153.69 291.84,-146.13"/>
<polygon fill="#63b8ff" stroke="#63b8ff" points="295.34,-146.15 291.84,-136.15 288.34,-146.15 295.34,-146.15"/>
</a>
</g>
</g>
<!-- Node4&#45;&gt;Node2 -->
<g id="edge4_Node000004_Node000002" class="edge">
<title>Node4&#45;&gt;Node2</title>
<g id="a_edge4_Node000004_Node000002"><a xlink:title=" ">
<path fill="none" stroke="#63b8ff" d="M268.77,-122.69C208.88,-121.66 50.92,-115.34 18.84,-77.5 -20.81,-30.71 93.25,-16.97 155.83,-12.98"/>
<polygon fill="#63b8ff" stroke="#63b8ff" points="155.94,-16.48 165.72,-12.41 155.54,-9.49 155.94,-16.48"/>
</a>
</g>
</g>
<!-- Node4&#45;&gt;Node3 -->
<g id="edge8_Node000004_Node000003" class="edge">
<title>Node4&#45;&gt;Node3</title>
<g id="a_edge8_Node000004_Node000003"><a xlink:title=" ">
<path fill="none" stroke="#63b8ff" d="M315.24,-123.18C347.98,-122.19 406.52,-114.91 433.84,-77.5 443.91,-63.72 437.04,-44.62 429.06,-30.49"/>
<polygon fill="#63b8ff" stroke="#63b8ff" points="432.08,-28.72 423.8,-22.11 426.15,-32.44 432.08,-28.72"/>
</a>
</g>
</g>
<!-- Node5 -->
<g id="Node000005" class="node">
<title>Node5</title>
<g id="a_Node000005"><a xlink:href="../../d8/dd0/chsv_8h.html" target="_top" xlink:title="Defines the hue, saturation, and value (HSV) pixel struct.">
<polygon fill="white" stroke="#666666" points="315.22,-77.5 268.47,-77.5 268.47,-56.75 315.22,-56.75 315.22,-77.5"/>
<text text-anchor="middle" x="291.84" y="-64" font-family="Helvetica,sans-Serif" font-size="10.00">chsv.h</text>
</a>
</g>
</g>
<!-- Node4&#45;&gt;Node5 -->
<g id="edge5_Node000004_Node000005" class="edge">
<title>Node4&#45;&gt;Node5</title>
<g id="a_edge5_Node000004_Node000005"><a xlink:title=" ">
<path fill="none" stroke="#63b8ff" d="M291.84,-113.09C291.84,-106.47 291.84,-97.47 291.84,-89.27"/>
<polygon fill="#63b8ff" stroke="#63b8ff" points="295.34,-89.34 291.84,-79.34 288.34,-89.34 295.34,-89.34"/>
</a>
</g>
</g>
<!-- Node6 -->
<g id="Node000006" class="node">
<title>Node6</title>
<g id="a_Node000006"><a xlink:href="../../d2/d6b/src_2color_8h.html" target="_top" xlink:title="Contains definitions for color correction and temperature.">
<polygon fill="white" stroke="#666666" points="528.97,-77.5 480.72,-77.5 480.72,-56.75 528.97,-56.75 528.97,-77.5"/>
<text text-anchor="middle" x="504.84" y="-64" font-family="Helvetica,sans-Serif" font-size="10.00">color.h</text>
</a>
</g>
</g>
<!-- Node4&#45;&gt;Node6 -->
<g id="edge9_Node000004_Node000006" class="edge">
<title>Node4&#45;&gt;Node6</title>
<g id="a_edge9_Node000004_Node000006"><a xlink:title=" ">
<path fill="none" stroke="#63b8ff" d="M315.04,-116.91C352.26,-107.35 425.55,-88.51 469.37,-77.24"/>
<polygon fill="#63b8ff" stroke="#63b8ff" points="470.08,-80.67 478.9,-74.79 468.34,-73.89 470.08,-80.67"/>
</a>
</g>
</g>
<!-- Node7 -->
<g id="Node000007" class="node">
<title>Node7</title>
<g id="a_Node000007"><a xlink:href="../../d9/ddf/lib8tion_2types_8h.html" target="_top" xlink:title="Defines fractional types used for lib8tion functions.">
<polygon fill="white" stroke="#666666" points="424.72,-77.5 332.97,-77.5 332.97,-56.75 424.72,-56.75 424.72,-77.5"/>
<text text-anchor="middle" x="378.84" y="-64" font-family="Helvetica,sans-Serif" font-size="10.00">lib8tion/types.h</text>
</a>
</g>
</g>
<!-- Node4&#45;&gt;Node7 -->
<g id="edge11_Node000004_Node000007" class="edge">
<title>Node4&#45;&gt;Node7</title>
<g id="a_edge11_Node000004_Node000007"><a xlink:title=" ">
<path fill="none" stroke="#63b8ff" d="M307.4,-113.09C320.26,-104.99 338.79,-93.33 353.75,-83.92"/>
<polygon fill="#63b8ff" stroke="#63b8ff" points="355.54,-86.92 362.14,-78.63 351.81,-81 355.54,-86.92"/>
</a>
</g>
</g>
<!-- Node8 -->
<g id="Node000008" class="node">
<title>Node8</title>
<g id="a_Node000008"><a xlink:href="../../d8/d2d/fl_2force__inline_8h.html" target="_top" xlink:title=" ">
<polygon fill="white" stroke="#666666" points="119.34,-77.5 28.34,-77.5 28.34,-56.75 119.34,-56.75 119.34,-77.5"/>
<text text-anchor="middle" x="73.84" y="-64" font-family="Helvetica,sans-Serif" font-size="10.00">fl/force_inline.h</text>
</a>
</g>
</g>
<!-- Node4&#45;&gt;Node8 -->
<g id="edge14_Node000004_Node000008" class="edge">
<title>Node4&#45;&gt;Node8</title>
<g id="a_edge14_Node000004_Node000008"><a xlink:title=" ">
<path fill="none" stroke="#63b8ff" d="M268.51,-117.02C234.29,-108.42 169.62,-92.18 124.24,-80.78"/>
<polygon fill="#63b8ff" stroke="#63b8ff" points="125.17,-77.41 114.61,-78.36 123.46,-84.2 125.17,-77.41"/>
</a>
</g>
</g>
<!-- Node9 -->
<g id="Node000009" class="node">
<title>Node9</title>
<g id="a_Node000009"><a xlink:href="../../d8/d0c/template__magic_8h.html" target="_top" xlink:title=" ">
<polygon fill="white" stroke="#666666" points="250.59,-77.5 137.09,-77.5 137.09,-56.75 250.59,-56.75 250.59,-77.5"/>
<text text-anchor="middle" x="193.84" y="-64" font-family="Helvetica,sans-Serif" font-size="10.00">fl/template_magic.h</text>
</a>
</g>
</g>
<!-- Node4&#45;&gt;Node9 -->
<g id="edge15_Node000004_Node000009" class="edge">
<title>Node4&#45;&gt;Node9</title>
<g id="a_edge15_Node000004_Node000009"><a xlink:title=" ">
<path fill="none" stroke="#63b8ff" d="M274.32,-113.09C259.55,-104.83 238.16,-92.88 221.14,-83.38"/>
<polygon fill="#63b8ff" stroke="#63b8ff" points="222.97,-80.39 212.53,-78.57 219.55,-86.5 222.97,-80.39"/>
</a>
</g>
</g>
<!-- Node5&#45;&gt;Node2 -->
<g id="edge6_Node000005_Node000002" class="edge">
<title>Node5&#45;&gt;Node2</title>
<g id="a_edge6_Node000005_Node000002"><a xlink:title=" ">
<path fill="none" stroke="#63b8ff" d="M274.32,-56.34C259.55,-48.08 238.16,-36.13 221.14,-26.63"/>
<polygon fill="#63b8ff" stroke="#63b8ff" points="222.97,-23.64 212.53,-21.82 219.55,-29.75 222.97,-23.64"/>
</a>
</g>
</g>
<!-- Node5&#45;&gt;Node3 -->
<g id="edge7_Node000005_Node000003" class="edge">
<title>Node5&#45;&gt;Node3</title>
<g id="a_edge7_Node000005_Node000003"><a xlink:title=" ">
<path fill="none" stroke="#63b8ff" d="M314.01,-56.34C333.32,-47.81 361.56,-35.34 383.41,-25.69"/>
<polygon fill="#63b8ff" stroke="#63b8ff" points="384.75,-28.93 392.48,-21.69 381.92,-22.53 384.75,-28.93"/>
</a>
</g>
</g>
<!-- Node6&#45;&gt;Node3 -->
<g id="edge10_Node000006_Node000003" class="edge">
<title>Node6&#45;&gt;Node3</title>
<g id="a_edge10_Node000006_Node000003"><a xlink:title=" ">
<path fill="none" stroke="#63b8ff" d="M488.93,-56.34C475.64,-48.16 456.45,-36.36 441.07,-26.9"/>
<polygon fill="#63b8ff" stroke="#63b8ff" points="443.26,-24.13 432.9,-21.87 439.59,-30.09 443.26,-24.13"/>
</a>
</g>
</g>
<!-- Node7&#45;&gt;Node2 -->
<g id="edge12_Node000007_Node000002" class="edge">
<title>Node7&#45;&gt;Node2</title>
<g id="a_edge12_Node000007_Node000002"><a xlink:title=" ">
<path fill="none" stroke="#63b8ff" d="M345.77,-56.34C313.65,-46.83 264.95,-32.42 231.39,-22.49"/>
<polygon fill="#63b8ff" stroke="#63b8ff" points="232.66,-19.21 222.08,-19.73 230.68,-25.93 232.66,-19.21"/>
</a>
</g>
</g>
<!-- Node7&#45;&gt;Node3 -->
<g id="edge13_Node000007_Node000003" class="edge">
<title>Node7&#45;&gt;Node3</title>
<g id="a_edge13_Node000007_Node000003"><a xlink:title=" ">
<path fill="none" stroke="#63b8ff" d="M385.46,-56.34C390.3,-49.17 397.02,-39.23 402.91,-30.51"/>
<polygon fill="#63b8ff" stroke="#63b8ff" points="405.74,-32.58 408.44,-22.33 399.94,-28.66 405.74,-32.58"/>
</a>
</g>
</g>
<!-- Node9&#45;&gt;Node2 -->
<g id="edge16_Node000009_Node000002" class="edge">
<title>Node9&#45;&gt;Node2</title>
<g id="a_edge16_Node000009_Node000002"><a xlink:title=" ">
<path fill="none" stroke="#63b8ff" d="M193.84,-56.34C193.84,-49.72 193.84,-40.72 193.84,-32.52"/>
<polygon fill="#63b8ff" stroke="#63b8ff" points="197.34,-32.59 193.84,-22.59 190.34,-32.59 197.34,-32.59"/>
</a>
</g>
</g>
<!-- Node9&#45;&gt;Node3 -->
<g id="edge17_Node000009_Node000003" class="edge">
<title>Node9&#45;&gt;Node3</title>
<g id="a_edge17_Node000009_Node000003"><a xlink:title=" ">
<path fill="none" stroke="#63b8ff" d="M233.79,-56.27C270.45,-47.23 324.96,-33.79 364.77,-23.97"/>
<polygon fill="#63b8ff" stroke="#63b8ff" points="365.5,-27.39 374.37,-21.6 363.83,-20.6 365.5,-27.39"/>
</a>
</g>
</g>
</g>
</svg>
