<?xml version="1.0" encoding="UTF-8" standalone="no"?>
<!DOCTYPE svg PUBLIC "-//W3C//DTD SVG 1.1//EN"
 "http://www.w3.org/Graphics/SVG/1.1/DTD/svg11.dtd">
<!-- Generated by graphviz version 12.2.1 (20241206.2353)
 -->
<!-- Title: juggle Pages: 1 -->
<svg width="406pt" height="29pt"
 viewBox="0.00 0.00 406.25 28.75" xmlns="http://www.w3.org/2000/svg" xmlns:xlink="http://www.w3.org/1999/xlink">
<g id="graph0" class="graph" transform="scale(1 1) rotate(0) translate(4 24.75)">
<title>juggle</title>
<!-- Node1 -->
<g id="Node000001" class="node">
<title>Node1</title>
<g id="a_Node000001"><a xlink:title=" ">
<polygon fill="#999999" stroke="#666666" points="398.25,-20.75 352.25,-20.75 352.25,0 398.25,0 398.25,-20.75"/>
<text text-anchor="middle" x="375.25" y="-7.25" font-family="Helvetica,sans-Serif" font-size="10.00">juggle</text>
</a>
</g>
</g>
<!-- Node2 -->
<g id="Node000002" class="node">
<title>Node2</title>
<g id="a_Node000002"><a xlink:href="../../d1/d60/classfl_1_1_demo_reel100.html#aad4b41d93c1a9f7acecea8b49cda7078" target="_top" xlink:title=" ">
<polygon fill="white" stroke="#666666" points="316.25,-20.75 163,-20.75 163,0 316.25,0 316.25,-20.75"/>
<text text-anchor="middle" x="239.62" y="-7.25" font-family="Helvetica,sans-Serif" font-size="10.00">fl::DemoReel100::runPattern</text>
</a>
</g>
</g>
<!-- Node1&#45;&gt;Node2 -->
<g id="edge1_Node000001_Node000002" class="edge">
<title>Node1&#45;&gt;Node2</title>
<g id="a_edge1_Node000001_Node000002"><a xlink:title=" ">
<path fill="none" stroke="#63b8ff" d="M340.57,-10.38C333.18,-10.38 325.05,-10.38 316.73,-10.38"/>
<polygon fill="#63b8ff" stroke="#63b8ff" points="340.37,-13.88 350.37,-10.38 340.37,-6.88 340.37,-13.88"/>
</a>
</g>
</g>
<!-- Node3 -->
<g id="Node000003" class="node">
<title>Node3</title>
<g id="a_Node000003"><a xlink:href="../../d1/d60/classfl_1_1_demo_reel100.html#a5f66b8a2f16f89f0180bd6e27f1563c6" target="_top" xlink:title=" ">
<polygon fill="white" stroke="#666666" points="127,-20.75 0,-20.75 0,0 127,0 127,-20.75"/>
<text text-anchor="middle" x="63.5" y="-7.25" font-family="Helvetica,sans-Serif" font-size="10.00">fl::DemoReel100::draw</text>
</a>
</g>
</g>
<!-- Node2&#45;&gt;Node3 -->
<g id="edge2_Node000002_Node000003" class="edge">
<title>Node2&#45;&gt;Node3</title>
<g id="a_edge2_Node000002_Node000003"><a xlink:title=" ">
<path fill="none" stroke="#63b8ff" d="M151.19,-10.38C143.18,-10.38 135.16,-10.38 127.42,-10.38"/>
<polygon fill="#63b8ff" stroke="#63b8ff" points="150.99,-13.88 160.99,-10.38 150.99,-6.88 150.99,-13.88"/>
</a>
</g>
</g>
</g>
</svg>
