<?xml version="1.0" encoding="UTF-8" standalone="no"?>
<!DOCTYPE svg PUBLIC "-//W3C//DTD SVG 1.1//EN"
 "http://www.w3.org/Graphics/SVG/1.1/DTD/svg11.dtd">
<!-- Generated by graphviz version 12.2.1 (20241206.2353)
 -->
<!-- Title: rainbowWithGlitter Pages: 1 -->
<svg width="325pt" height="107pt"
 viewBox="0.00 0.00 325.25 106.75" xmlns="http://www.w3.org/2000/svg" xmlns:xlink="http://www.w3.org/1999/xlink">
<g id="graph0" class="graph" transform="scale(1 1) rotate(0) translate(4 102.75)">
<title>rainbowWithGlitter</title>
<!-- Node1 -->
<g id="Node000001" class="node">
<title>Node1</title>
<g id="a_Node000001"><a xlink:title=" ">
<polygon fill="#999999" stroke="#666666" points="108.25,-39.75 0,-39.75 0,-19 108.25,-19 108.25,-39.75"/>
<text text-anchor="middle" x="54.12" y="-26.25" font-family="Helvetica,sans-Serif" font-size="10.00">rainbowWithGlitter</text>
</a>
</g>
</g>
<!-- Node2 -->
<g id="Node000002" class="node">
<title>Node2</title>
<g id="a_Node000002"><a xlink:href="../../d5/d25/_demo_reel100_8ino.html#ab00a79f2963c57048ec1d9271fbfb2dd" target="_top" xlink:title=" ">
<polygon fill="white" stroke="#666666" points="209,-59.75 144.25,-59.75 144.25,-39 209,-39 209,-59.75"/>
<text text-anchor="middle" x="176.62" y="-46.25" font-family="Helvetica,sans-Serif" font-size="10.00">addGlitter</text>
</a>
</g>
</g>
<!-- Node1&#45;&gt;Node2 -->
<g id="edge1_Node000001_Node000002" class="edge">
<title>Node1&#45;&gt;Node2</title>
<g id="a_edge1_Node000001_Node000002"><a xlink:title=" ">
<path fill="none" stroke="#63b8ff" d="M108.68,-38.26C116.79,-39.61 125.06,-40.98 132.9,-42.28"/>
<polygon fill="#63b8ff" stroke="#63b8ff" points="132.07,-45.69 142.51,-43.88 133.22,-38.79 132.07,-45.69"/>
</a>
</g>
</g>
<!-- Node5 -->
<g id="Node000005" class="node">
<title>Node5</title>
<g id="a_Node000005"><a xlink:href="../../d5/d25/_demo_reel100_8ino.html#a6784b2bb794bd47a615b7a9be2ebf7db" target="_top" xlink:title=" ">
<polygon fill="white" stroke="#666666" points="204.12,-20.75 149.12,-20.75 149.12,0 204.12,0 204.12,-20.75"/>
<text text-anchor="middle" x="176.62" y="-7.25" font-family="Helvetica,sans-Serif" font-size="10.00">rainbow</text>
</a>
</g>
</g>
<!-- Node1&#45;&gt;Node5 -->
<g id="edge4_Node000001_Node000005" class="edge">
<title>Node1&#45;&gt;Node5</title>
<g id="a_edge4_Node000001_Node000005"><a xlink:title=" ">
<path fill="none" stroke="#63b8ff" d="M108.68,-20.93C118.4,-19.4 128.36,-17.83 137.53,-16.38"/>
<polygon fill="#63b8ff" stroke="#63b8ff" points="137.8,-19.88 147.14,-14.87 136.71,-12.97 137.8,-19.88"/>
</a>
</g>
</g>
<!-- Node3 -->
<g id="Node000003" class="node">
<title>Node3</title>
<g id="a_Node000003"><a xlink:href="../../d2/d0d/group___random.html#ga17034d936ef716efe820e11c1df043b0" target="_top" xlink:title="Generate a 16&#45;bit random number.">
<polygon fill="white" stroke="#666666" points="313.88,-98.75 248.38,-98.75 248.38,-78 313.88,-78 313.88,-98.75"/>
<text text-anchor="middle" x="281.12" y="-85.25" font-family="Helvetica,sans-Serif" font-size="10.00">random16</text>
</a>
</g>
</g>
<!-- Node2&#45;&gt;Node3 -->
<g id="edge2_Node000002_Node000003" class="edge">
<title>Node2&#45;&gt;Node3</title>
<g id="a_edge2_Node000002_Node000003"><a xlink:title=" ">
<path fill="none" stroke="#63b8ff" d="M206.18,-60.24C216.95,-64.34 229.4,-69.08 240.98,-73.48"/>
<polygon fill="#63b8ff" stroke="#63b8ff" points="239.72,-76.75 250.31,-77.03 242.21,-70.2 239.72,-76.75"/>
</a>
</g>
</g>
<!-- Node4 -->
<g id="Node000004" class="node">
<title>Node4</title>
<g id="a_Node000004"><a xlink:href="../../d2/d0d/group___random.html#ga4e63c74426f6516f28470dc1b814aefe" target="_top" xlink:title="Generate an 8&#45;bit random number.">
<polygon fill="white" stroke="#666666" points="310.88,-59.75 251.38,-59.75 251.38,-39 310.88,-39 310.88,-59.75"/>
<text text-anchor="middle" x="281.12" y="-46.25" font-family="Helvetica,sans-Serif" font-size="10.00">random8</text>
</a>
</g>
</g>
<!-- Node2&#45;&gt;Node4 -->
<g id="edge3_Node000002_Node000004" class="edge">
<title>Node2&#45;&gt;Node4</title>
<g id="a_edge3_Node000002_Node000004"><a xlink:title=" ">
<path fill="none" stroke="#63b8ff" d="M209.49,-49.38C219.04,-49.38 229.64,-49.38 239.66,-49.38"/>
<polygon fill="#63b8ff" stroke="#63b8ff" points="239.55,-52.88 249.55,-49.38 239.55,-45.88 239.55,-52.88"/>
</a>
</g>
</g>
<!-- Node6 -->
<g id="Node000006" class="node">
<title>Node6</title>
<g id="a_Node000006"><a xlink:href="../../da/de3/group___color_fills.html#ga0fef54ded2e4748869f1796603433b6b" target="_top" xlink:title="Fill a range of LEDs with a rainbow of colors.">
<polygon fill="white" stroke="#666666" points="317.25,-20.75 245,-20.75 245,0 317.25,0 317.25,-20.75"/>
<text text-anchor="middle" x="281.12" y="-7.25" font-family="Helvetica,sans-Serif" font-size="10.00">fill_rainbow</text>
</a>
</g>
</g>
<!-- Node5&#45;&gt;Node6 -->
<g id="edge5_Node000005_Node000006" class="edge">
<title>Node5&#45;&gt;Node6</title>
<g id="a_edge5_Node000005_Node000006"><a xlink:title=" ">
<path fill="none" stroke="#63b8ff" d="M204.56,-10.38C213.34,-10.38 223.36,-10.38 233.17,-10.38"/>
<polygon fill="#63b8ff" stroke="#63b8ff" points="232.99,-13.88 242.99,-10.38 232.99,-6.88 232.99,-13.88"/>
</a>
</g>
</g>
</g>
</svg>
