<?xml version="1.0" encoding="UTF-8" standalone="no"?>
<!DOCTYPE svg PUBLIC "-//W3C//DTD SVG 1.1//EN"
 "http://www.w3.org/Graphics/SVG/1.1/DTD/svg11.dtd">
<!-- Generated by graphviz version 12.2.1 (20241206.2353)
 -->
<!-- Title: addGlitter Pages: 1 -->
<svg width="174pt" height="68pt"
 viewBox="0.00 0.00 174.25 67.75" xmlns="http://www.w3.org/2000/svg" xmlns:xlink="http://www.w3.org/1999/xlink">
<g id="graph0" class="graph" transform="scale(1 1) rotate(0) translate(4 63.75)">
<title>addGlitter</title>
<!-- Node1 -->
<g id="Node000001" class="node">
<title>Node1</title>
<g id="a_Node000001"><a xlink:title=" ">
<polygon fill="#999999" stroke="#666666" points="64.75,-39.75 0,-39.75 0,-19 64.75,-19 64.75,-39.75"/>
<text text-anchor="middle" x="32.38" y="-26.25" font-family="Helvetica,sans-Serif" font-size="10.00">addGlitter</text>
</a>
</g>
</g>
<!-- Node2 -->
<g id="Node000002" class="node">
<title>Node2</title>
<g id="a_Node000002"><a xlink:href="../../d2/d0d/group___random.html#ga17034d936ef716efe820e11c1df043b0" target="_top" xlink:title="Generate a 16&#45;bit random number.">
<polygon fill="white" stroke="#666666" points="166.25,-59.75 100.75,-59.75 100.75,-39 166.25,-39 166.25,-59.75"/>
<text text-anchor="middle" x="133.5" y="-46.25" font-family="Helvetica,sans-Serif" font-size="10.00">random16</text>
</a>
</g>
</g>
<!-- Node1&#45;&gt;Node2 -->
<g id="edge1_Node000001_Node000002" class="edge">
<title>Node1&#45;&gt;Node2</title>
<g id="a_edge1_Node000001_Node000002"><a xlink:title=" ">
<path fill="none" stroke="#63b8ff" d="M65.01,-35.76C72.71,-37.31 81.08,-39 89.22,-40.64"/>
<polygon fill="#63b8ff" stroke="#63b8ff" points="88.51,-44.07 99,-42.62 89.89,-37.21 88.51,-44.07"/>
</a>
</g>
</g>
<!-- Node3 -->
<g id="Node000003" class="node">
<title>Node3</title>
<g id="a_Node000003"><a xlink:href="../../d2/d0d/group___random.html#ga4e63c74426f6516f28470dc1b814aefe" target="_top" xlink:title="Generate an 8&#45;bit random number.">
<polygon fill="white" stroke="#666666" points="163.25,-20.75 103.75,-20.75 103.75,0 163.25,0 163.25,-20.75"/>
<text text-anchor="middle" x="133.5" y="-7.25" font-family="Helvetica,sans-Serif" font-size="10.00">random8</text>
</a>
</g>
</g>
<!-- Node1&#45;&gt;Node3 -->
<g id="edge2_Node000001_Node000003" class="edge">
<title>Node1&#45;&gt;Node3</title>
<g id="a_edge2_Node000001_Node000003"><a xlink:title=" ">
<path fill="none" stroke="#63b8ff" d="M65.01,-23.31C73.7,-21.65 83.23,-19.82 92.33,-18.08"/>
<polygon fill="#63b8ff" stroke="#63b8ff" points="92.87,-21.54 102.03,-16.22 91.55,-14.66 92.87,-21.54"/>
</a>
</g>
</g>
</g>
</svg>
