<?xml version="1.0" encoding="UTF-8" standalone="no"?>
<!DOCTYPE svg PUBLIC "-//W3C//DTD SVG 1.1//EN"
 "http://www.w3.org/Graphics/SVG/1.1/DTD/svg11.dtd">
<!-- Generated by graphviz version 12.2.1 (20241206.2353)
 -->
<!-- Title: juggle Pages: 1 -->
<svg width="391pt" height="107pt"
 viewBox="0.00 0.00 390.75 106.75" xmlns="http://www.w3.org/2000/svg" xmlns:xlink="http://www.w3.org/1999/xlink">
<g id="graph0" class="graph" transform="scale(1 1) rotate(0) translate(4 102.75)">
<title>juggle</title>
<!-- Node1 -->
<g id="Node000001" class="node">
<title>Node1</title>
<g id="a_Node000001"><a xlink:title=" ">
<polygon fill="#999999" stroke="#666666" points="46,-39.75 0,-39.75 0,-19 46,-19 46,-39.75"/>
<text text-anchor="middle" x="23" y="-26.25" font-family="Helvetica,sans-Serif" font-size="10.00">juggle</text>
</a>
</g>
</g>
<!-- Node2 -->
<g id="Node000002" class="node">
<title>Node2</title>
<g id="a_Node000002"><a xlink:href="../../d6/d6c/group___beat_generators.html#gaa46e5de1c4c27833359e7a97a18c839b" target="_top" xlink:title="Generates a 16&#45;bit sine wave at a given BPM that oscillates within a given range.">
<polygon fill="white" stroke="#666666" points="158,-59.75 94,-59.75 94,-39 158,-39 158,-59.75"/>
<text text-anchor="middle" x="126" y="-46.25" font-family="Helvetica,sans-Serif" font-size="10.00">beatsin16</text>
</a>
</g>
</g>
<!-- Node1&#45;&gt;Node2 -->
<g id="edge1_Node000001_Node000002" class="edge">
<title>Node1&#45;&gt;Node2</title>
<g id="a_edge1_Node000001_Node000002"><a xlink:title=" ">
<path fill="none" stroke="#63b8ff" d="M46.42,-33.81C57.09,-35.93 70.23,-38.53 82.68,-41"/>
<polygon fill="#63b8ff" stroke="#63b8ff" points="81.86,-44.4 92.35,-42.91 83.22,-37.53 81.86,-44.4"/>
</a>
</g>
</g>
<!-- Node6 -->
<g id="Node000006" class="node">
<title>Node6</title>
<g id="a_Node000006"><a xlink:href="../../d3/d1c/group___color_fades.html#ga404d163d8a422cee2df2baac4151ca98" target="_top" xlink:title="Reduce the brightness of an array of pixels all at once.">
<polygon fill="white" stroke="#666666" points="170,-20.75 82,-20.75 82,0 170,0 170,-20.75"/>
<text text-anchor="middle" x="126" y="-7.25" font-family="Helvetica,sans-Serif" font-size="10.00">fadeToBlackBy</text>
</a>
</g>
</g>
<!-- Node1&#45;&gt;Node6 -->
<g id="edge5_Node000001_Node000006" class="edge">
<title>Node1&#45;&gt;Node6</title>
<g id="a_edge5_Node000001_Node000006"><a xlink:title=" ">
<path fill="none" stroke="#63b8ff" d="M46.42,-25.16C53.61,-23.81 61.92,-22.24 70.38,-20.65"/>
<polygon fill="#63b8ff" stroke="#63b8ff" points="70.84,-24.12 80.02,-18.84 69.55,-17.24 70.84,-24.12"/>
</a>
</g>
</g>
<!-- Node3 -->
<g id="Node000003" class="node">
<title>Node3</title>
<g id="a_Node000003"><a xlink:href="../../d6/d6c/group___beat_generators.html#gade6acbf6fd3c9d346148bccfcafb2fe2" target="_top" xlink:title="Generates a 16&#45;bit &quot;sawtooth&quot; wave at a given BPM.">
<polygon fill="white" stroke="#666666" points="257.62,-98.75 207.88,-98.75 207.88,-78 257.62,-78 257.62,-98.75"/>
<text text-anchor="middle" x="232.75" y="-85.25" font-family="Helvetica,sans-Serif" font-size="10.00">beat16</text>
</a>
</g>
</g>
<!-- Node2&#45;&gt;Node3 -->
<g id="edge2_Node000002_Node000003" class="edge">
<title>Node2&#45;&gt;Node3</title>
<g id="a_edge2_Node000002_Node000003"><a xlink:title=" ">
<path fill="none" stroke="#63b8ff" d="M156.18,-60.24C168.85,-64.96 183.8,-70.52 197.04,-75.45"/>
<polygon fill="#63b8ff" stroke="#63b8ff" points="195.66,-78.67 206.25,-78.88 198.1,-72.11 195.66,-78.67"/>
</a>
</g>
</g>
<!-- Node5 -->
<g id="Node000005" class="node">
<title>Node5</title>
<g id="a_Node000005"><a xlink:href="../../d0/da8/group___scaling.html#ga1ff8ac00ad78e22acc7bb7445bfdb145" target="_top" xlink:title="Scale a 16&#45;bit unsigned value by an 16&#45;bit value, which is treated as the numerator of a fraction who...">
<polygon fill="white" stroke="#666666" points="259.5,-59.75 206,-59.75 206,-39 259.5,-39 259.5,-59.75"/>
<text text-anchor="middle" x="232.75" y="-46.25" font-family="Helvetica,sans-Serif" font-size="10.00">scale16</text>
</a>
</g>
</g>
<!-- Node2&#45;&gt;Node5 -->
<g id="edge4_Node000002_Node000005" class="edge">
<title>Node2&#45;&gt;Node5</title>
<g id="a_edge4_Node000002_Node000005"><a xlink:title=" ">
<path fill="none" stroke="#63b8ff" d="M158.43,-49.38C169.73,-49.38 182.58,-49.38 194.34,-49.38"/>
<polygon fill="#63b8ff" stroke="#63b8ff" points="194.12,-52.88 204.12,-49.38 194.12,-45.88 194.12,-52.88"/>
</a>
</g>
</g>
<!-- Node4 -->
<g id="Node000004" class="node">
<title>Node4</title>
<g id="a_Node000004"><a xlink:href="../../d6/d6c/group___beat_generators.html#ga1b48fc520db5f40910caf79974992395" target="_top" xlink:title="Generates a 16&#45;bit &quot;sawtooth&quot; wave at a given BPM, with BPM specified in Q8.8 fixed&#45;point format.">
<polygon fill="white" stroke="#666666" points="364,-98.75 314.25,-98.75 314.25,-78 364,-78 364,-98.75"/>
<text text-anchor="middle" x="339.12" y="-85.25" font-family="Helvetica,sans-Serif" font-size="10.00">beat88</text>
</a>
</g>
</g>
<!-- Node3&#45;&gt;Node4 -->
<g id="edge3_Node000003_Node000004" class="edge">
<title>Node3&#45;&gt;Node4</title>
<g id="a_edge3_Node000003_Node000004"><a xlink:title=" ">
<path fill="none" stroke="#63b8ff" d="M257.96,-88.38C271.26,-88.38 288.01,-88.38 302.76,-88.38"/>
<polygon fill="#63b8ff" stroke="#63b8ff" points="302.53,-91.88 312.53,-88.38 302.53,-84.88 302.53,-91.88"/>
</a>
</g>
</g>
<!-- Node7 -->
<g id="Node000007" class="node">
<title>Node7</title>
<g id="a_Node000007"><a xlink:href="../../d3/d1c/group___color_fades.html#gad0356fc313196732e7cd4e64f506f82b" target="_top" xlink:title="Scale the brightness of an array of pixels all at once.">
<polygon fill="white" stroke="#666666" points="259.5,-20.75 206,-20.75 206,0 259.5,0 259.5,-20.75"/>
<text text-anchor="middle" x="232.75" y="-7.25" font-family="Helvetica,sans-Serif" font-size="10.00">nscale8</text>
</a>
</g>
</g>
<!-- Node6&#45;&gt;Node7 -->
<g id="edge6_Node000006_Node000007" class="edge">
<title>Node6&#45;&gt;Node7</title>
<g id="a_edge6_Node000006_Node000007"><a xlink:title=" ">
<path fill="none" stroke="#63b8ff" d="M170.21,-10.38C178.22,-10.38 186.52,-10.38 194.34,-10.38"/>
<polygon fill="#63b8ff" stroke="#63b8ff" points="194.22,-13.88 204.22,-10.38 194.22,-6.88 194.22,-13.88"/>
</a>
</g>
</g>
<!-- Node8 -->
<g id="Node000008" class="node">
<title>Node8</title>
<g id="a_Node000008"><a xlink:href="../../db/d87/group___pixel_types.html#a5a3c3370a7de840ac31c07f6dc9bdb63" target="_top" xlink:title="Scale down a RGB to N/256ths of its current brightness, using &quot;plain math&quot; dimming rules.">
<polygon fill="#fff0f0" stroke="red" points="382.75,-20.75 295.5,-20.75 295.5,0 382.75,0 382.75,-20.75"/>
<text text-anchor="middle" x="339.12" y="-7.25" font-family="Helvetica,sans-Serif" font-size="10.00">CRGB::nscale8</text>
</a>
</g>
</g>
<!-- Node7&#45;&gt;Node8 -->
<g id="edge7_Node000007_Node000008" class="edge">
<title>Node7&#45;&gt;Node8</title>
<g id="a_edge7_Node000007_Node000008"><a xlink:title=" ">
<path fill="none" stroke="#63b8ff" d="M259.82,-10.38C267.21,-10.38 275.54,-10.38 283.94,-10.38"/>
<polygon fill="#63b8ff" stroke="#63b8ff" points="283.84,-13.88 293.84,-10.38 283.84,-6.88 283.84,-13.88"/>
</a>
</g>
</g>
</g>
</svg>
