<?xml version="1.0" encoding="UTF-8" standalone="no"?>
<!DOCTYPE svg PUBLIC "-//W3C//DTD SVG 1.1//EN"
 "http://www.w3.org/Graphics/SVG/1.1/DTD/svg11.dtd">
<!-- Generated by graphviz version 12.2.1 (20241206.2353)
 -->
<!-- Title: confetti Pages: 1 -->
<svg width="398pt" height="107pt"
 viewBox="0.00 0.00 398.25 106.75" xmlns="http://www.w3.org/2000/svg" xmlns:xlink="http://www.w3.org/1999/xlink">
<g id="graph0" class="graph" transform="scale(1 1) rotate(0) translate(4 102.75)">
<title>confetti</title>
<!-- Node1 -->
<g id="Node000001" class="node">
<title>Node1</title>
<g id="a_Node000001"><a xlink:title=" ">
<polygon fill="#999999" stroke="#666666" points="53.5,-59.75 0,-59.75 0,-39 53.5,-39 53.5,-59.75"/>
<text text-anchor="middle" x="26.75" y="-46.25" font-family="Helvetica,sans-Serif" font-size="10.00">confetti</text>
</a>
</g>
</g>
<!-- Node2 -->
<g id="Node000002" class="node">
<title>Node2</title>
<g id="a_Node000002"><a xlink:href="../../d3/d1c/group___color_fades.html#ga404d163d8a422cee2df2baac4151ca98" target="_top" xlink:title="Reduce the brightness of an array of pixels all at once.">
<polygon fill="white" stroke="#666666" points="177.5,-98.75 89.5,-98.75 89.5,-78 177.5,-78 177.5,-98.75"/>
<text text-anchor="middle" x="133.5" y="-85.25" font-family="Helvetica,sans-Serif" font-size="10.00">fadeToBlackBy</text>
</a>
</g>
</g>
<!-- Node1&#45;&gt;Node2 -->
<g id="edge1_Node000001_Node000002" class="edge">
<title>Node1&#45;&gt;Node2</title>
<g id="a_edge1_Node000001_Node000002"><a xlink:title=" ">
<path fill="none" stroke="#63b8ff" d="M53.91,-59.12C65.65,-63.49 79.76,-68.74 92.77,-73.58"/>
<polygon fill="#63b8ff" stroke="#63b8ff" points="91.34,-76.79 101.93,-76.99 93.78,-70.23 91.34,-76.79"/>
</a>
</g>
</g>
<!-- Node8 -->
<g id="Node000008" class="node">
<title>Node8</title>
<g id="a_Node000008"><a xlink:href="../../d2/d0d/group___random.html#ga17034d936ef716efe820e11c1df043b0" target="_top" xlink:title="Generate a 16&#45;bit random number.">
<polygon fill="white" stroke="#666666" points="166.25,-59.75 100.75,-59.75 100.75,-39 166.25,-39 166.25,-59.75"/>
<text text-anchor="middle" x="133.5" y="-46.25" font-family="Helvetica,sans-Serif" font-size="10.00">random16</text>
</a>
</g>
</g>
<!-- Node1&#45;&gt;Node8 -->
<g id="edge4_Node000001_Node000008" class="edge">
<title>Node1&#45;&gt;Node8</title>
<g id="a_edge4_Node000001_Node000008"><a xlink:title=" ">
<path fill="none" stroke="#63b8ff" d="M53.91,-49.38C64.57,-49.38 77.17,-49.38 89.13,-49.38"/>
<polygon fill="#63b8ff" stroke="#63b8ff" points="88.8,-52.88 98.8,-49.38 88.8,-45.88 88.8,-52.88"/>
</a>
</g>
</g>
<!-- Node9 -->
<g id="Node000009" class="node">
<title>Node9</title>
<g id="a_Node000009"><a xlink:href="../../d2/d0d/group___random.html#ga4e63c74426f6516f28470dc1b814aefe" target="_top" xlink:title="Generate an 8&#45;bit random number.">
<polygon fill="white" stroke="#666666" points="163.25,-20.75 103.75,-20.75 103.75,0 163.25,0 163.25,-20.75"/>
<text text-anchor="middle" x="133.5" y="-7.25" font-family="Helvetica,sans-Serif" font-size="10.00">random8</text>
</a>
</g>
</g>
<!-- Node1&#45;&gt;Node9 -->
<g id="edge5_Node000001_Node000009" class="edge">
<title>Node1&#45;&gt;Node9</title>
<g id="a_edge5_Node000001_Node000009"><a xlink:title=" ">
<path fill="none" stroke="#63b8ff" d="M53.91,-39.63C65.65,-35.26 79.76,-30.01 92.77,-25.17"/>
<polygon fill="#63b8ff" stroke="#63b8ff" points="93.78,-28.52 101.93,-21.76 91.34,-21.96 93.78,-28.52"/>
</a>
</g>
</g>
<!-- Node3 -->
<g id="Node000003" class="node">
<title>Node3</title>
<g id="a_Node000003"><a xlink:href="../../d3/d1c/group___color_fades.html#gad0356fc313196732e7cd4e64f506f82b" target="_top" xlink:title="Scale the brightness of an array of pixels all at once.">
<polygon fill="white" stroke="#666666" points="267,-98.75 213.5,-98.75 213.5,-78 267,-78 267,-98.75"/>
<text text-anchor="middle" x="240.25" y="-85.25" font-family="Helvetica,sans-Serif" font-size="10.00">nscale8</text>
</a>
</g>
</g>
<!-- Node2&#45;&gt;Node3 -->
<g id="edge2_Node000002_Node000003" class="edge">
<title>Node2&#45;&gt;Node3</title>
<g id="a_edge2_Node000002_Node000003"><a xlink:title=" ">
<path fill="none" stroke="#63b8ff" d="M177.71,-88.38C185.72,-88.38 194.02,-88.38 201.84,-88.38"/>
<polygon fill="#63b8ff" stroke="#63b8ff" points="201.72,-91.88 211.72,-88.38 201.72,-84.88 201.72,-91.88"/>
</a>
</g>
</g>
<!-- Node4 -->
<g id="Node000004" class="node">
<title>Node4</title>
<g id="a_Node000004"><a xlink:href="../../db/d87/group___pixel_types.html#a5a3c3370a7de840ac31c07f6dc9bdb63" target="_top" xlink:title="Scale down a RGB to N/256ths of its current brightness, using &quot;plain math&quot; dimming rules.">
<polygon fill="#fff0f0" stroke="red" points="390.25,-98.75 303,-98.75 303,-78 390.25,-78 390.25,-98.75"/>
<text text-anchor="middle" x="346.62" y="-85.25" font-family="Helvetica,sans-Serif" font-size="10.00">CRGB::nscale8</text>
</a>
</g>
</g>
<!-- Node3&#45;&gt;Node4 -->
<g id="edge3_Node000003_Node000004" class="edge">
<title>Node3&#45;&gt;Node4</title>
<g id="a_edge3_Node000003_Node000004"><a xlink:title=" ">
<path fill="none" stroke="#63b8ff" d="M267.32,-88.38C274.71,-88.38 283.04,-88.38 291.44,-88.38"/>
<polygon fill="#63b8ff" stroke="#63b8ff" points="291.34,-91.88 301.34,-88.38 291.34,-84.88 291.34,-91.88"/>
</a>
</g>
</g>
</g>
</svg>
