<?xml version="1.0" encoding="UTF-8" standalone="no"?>
<!DOCTYPE svg PUBLIC "-//W3C//DTD SVG 1.1//EN"
 "http://www.w3.org/Graphics/SVG/1.1/DTD/svg11.dtd">
<!-- Generated by graphviz version 12.2.1 (20241206.2353)
 -->
<!-- Title: fl::scoped_array::get Pages: 1 -->
<svg width="568pt" height="494pt"
 viewBox="0.00 0.00 567.75 493.75" xmlns="http://www.w3.org/2000/svg" xmlns:xlink="http://www.w3.org/1999/xlink">
<g id="graph0" class="graph" transform="scale(1 1) rotate(0) translate(4 489.75)">
<title>fl::scoped_array::get</title>
<!-- Node1 -->
<g id="Node000001" class="node">
<title>Node1</title>
<g id="a_Node000001"><a xlink:title=" ">
<polygon fill="#999999" stroke="#666666" points="559.75,-272.75 445.5,-272.75 445.5,-252 559.75,-252 559.75,-272.75"/>
<text text-anchor="middle" x="502.62" y="-259.25" font-family="Helvetica,sans-Serif" font-size="10.00">fl::scoped_array::get</text>
</a>
</g>
</g>
<!-- Node2 -->
<g id="Node000002" class="node">
<title>Node2</title>
<g id="a_Node000002"><a xlink:href="../../d1/de0/classfl_1_1_frame.html#ac1ae7be31afe8c7d481025ca7236b5d6" target="_top" xlink:title=" ">
<polygon fill="white" stroke="#666666" points="384.75,-485.75 289.25,-485.75 289.25,-465 384.75,-465 384.75,-485.75"/>
<text text-anchor="middle" x="337" y="-472.25" font-family="Helvetica,sans-Serif" font-size="10.00">fl::Frame::Frame</text>
</a>
</g>
</g>
<!-- Node1&#45;&gt;Node2 -->
<g id="edge1_Node000001_Node000002" class="edge">
<title>Node1&#45;&gt;Node2</title>
<g id="a_edge1_Node000001_Node000002"><a xlink:title=" ">
<path fill="none" stroke="#63b8ff" d="M497.42,-284.11C488.53,-324.13 463.98,-409.57 409.5,-455.38 402.5,-461.26 393.88,-465.43 385.08,-468.36"/>
<polygon fill="#63b8ff" stroke="#63b8ff" points="500.81,-285.02 499.43,-274.51 493.96,-283.59 500.81,-285.02"/>
</a>
</g>
</g>
<!-- Node3 -->
<g id="Node000003" class="node">
<title>Node3</title>
<g id="a_Node000003"><a xlink:href="../../d1/de0/classfl_1_1_frame.html#abf096f9e673c5e848233433ed0472467" target="_top" xlink:title=" ">
<polygon fill="white" stroke="#666666" points="381,-446.75 293,-446.75 293,-426 381,-426 381,-446.75"/>
<text text-anchor="middle" x="337" y="-433.25" font-family="Helvetica,sans-Serif" font-size="10.00">fl::Frame::copy</text>
</a>
</g>
</g>
<!-- Node1&#45;&gt;Node3 -->
<g id="edge2_Node000001_Node000003" class="edge">
<title>Node1&#45;&gt;Node3</title>
<g id="a_edge2_Node000001_Node000003"><a xlink:title=" ">
<path fill="none" stroke="#63b8ff" d="M494.57,-284.1C482.56,-317.62 454.93,-381.68 409.5,-416.38 401.3,-422.63 391.25,-426.93 381.3,-429.89"/>
<polygon fill="#63b8ff" stroke="#63b8ff" points="497.87,-285.27 497.8,-274.68 491.25,-283 497.87,-285.27"/>
</a>
</g>
</g>
<!-- Node4 -->
<g id="Node000004" class="node">
<title>Node4</title>
<g id="a_Node000004"><a xlink:href="../../d1/de0/classfl_1_1_frame.html#ab4a8feaf91bd909c471c764c1a5c17e2" target="_top" xlink:title=" ">
<polygon fill="white" stroke="#666666" points="381.38,-407.75 292.62,-407.75 292.62,-387 381.38,-387 381.38,-407.75"/>
<text text-anchor="middle" x="337" y="-394.25" font-family="Helvetica,sans-Serif" font-size="10.00">fl::Frame::draw</text>
</a>
</g>
</g>
<!-- Node1&#45;&gt;Node4 -->
<g id="edge3_Node000001_Node000004" class="edge">
<title>Node1&#45;&gt;Node4</title>
<g id="a_edge3_Node000001_Node000004"><a xlink:title=" ">
<path fill="none" stroke="#63b8ff" d="M490.56,-282.99C475.6,-308.91 446.47,-352.94 409.5,-377.38 401.22,-382.85 391.45,-386.84 381.84,-389.74"/>
<polygon fill="#63b8ff" stroke="#63b8ff" points="493.52,-284.87 495.35,-274.43 487.41,-281.45 493.52,-284.87"/>
</a>
</g>
</g>
<!-- Node6 -->
<g id="Node000006" class="node">
<title>Node6</title>
<g id="a_Node000006"><a xlink:href="../../d5/d79/classfl_1_1_scale_up.html#a4a667682b8d113e18d4c9c95bda93262" target="_top" xlink:title=" ">
<polygon fill="white" stroke="#666666" points="385.88,-368.75 288.12,-368.75 288.12,-348 385.88,-348 385.88,-368.75"/>
<text text-anchor="middle" x="337" y="-355.25" font-family="Helvetica,sans-Serif" font-size="10.00">fl::ScaleUp::draw</text>
</a>
</g>
</g>
<!-- Node1&#45;&gt;Node6 -->
<g id="edge5_Node000001_Node000006" class="edge">
<title>Node1&#45;&gt;Node6</title>
<g id="a_edge5_Node000001_Node000006"><a xlink:title=" ">
<path fill="none" stroke="#63b8ff" d="M483.98,-280.83C466.56,-298.05 438.4,-323.28 409.5,-338.38 402.3,-342.13 394.32,-345.25 386.37,-347.82"/>
<polygon fill="#63b8ff" stroke="#63b8ff" points="486.02,-283.75 490.56,-274.18 481.04,-278.83 486.02,-283.75"/>
</a>
</g>
</g>
<!-- Node7 -->
<g id="Node000007" class="node">
<title>Node7</title>
<g id="a_Node000007"><a xlink:href="../../d9/d41/classfl_1_1_noise_palette.html#a22d1820b5a78e9ccfb4123ef9161f738" target="_top" xlink:title=" ">
<polygon fill="white" stroke="#666666" points="406.88,-272.75 267.12,-272.75 267.12,-252 406.88,-252 406.88,-272.75"/>
<text text-anchor="middle" x="337" y="-259.25" font-family="Helvetica,sans-Serif" font-size="10.00">fl::NoisePalette::fillnoise8</text>
</a>
</g>
</g>
<!-- Node1&#45;&gt;Node7 -->
<g id="edge6_Node000001_Node000007" class="edge">
<title>Node1&#45;&gt;Node7</title>
<g id="a_edge6_Node000001_Node000007"><a xlink:title=" ">
<path fill="none" stroke="#63b8ff" d="M433.87,-262.38C425.05,-262.38 415.99,-262.38 407.14,-262.38"/>
<polygon fill="#63b8ff" stroke="#63b8ff" points="433.8,-265.88 443.8,-262.38 433.8,-258.88 433.8,-265.88"/>
</a>
</g>
</g>
<!-- Node10 -->
<g id="Node000010" class="node">
<title>Node10</title>
<g id="a_Node000010"><a xlink:href="../../d1/de0/classfl_1_1_frame.html#a8a0c8d0a9e5bc93dd87dd70cbd8fdc64" target="_top" xlink:title=" ">
<polygon fill="white" stroke="#666666" points="396,-311.75 278,-311.75 278,-291 396,-291 396,-311.75"/>
<text text-anchor="middle" x="337" y="-298.25" font-family="Helvetica,sans-Serif" font-size="10.00">fl::Frame::interpolate</text>
</a>
</g>
</g>
<!-- Node1&#45;&gt;Node10 -->
<g id="edge9_Node000001_Node000010" class="edge">
<title>Node1&#45;&gt;Node10</title>
<g id="a_edge9_Node000001_Node000010"><a xlink:title=" ">
<path fill="none" stroke="#63b8ff" d="M444.87,-275.9C424.84,-280.68 402.6,-285.98 383.62,-290.5"/>
<polygon fill="#63b8ff" stroke="#63b8ff" points="445.66,-279.31 454.57,-273.59 444.03,-272.5 445.66,-279.31"/>
</a>
</g>
</g>
<!-- Node11 -->
<g id="Node000011" class="node">
<title>Node11</title>
<g id="a_Node000011"><a xlink:href="../../d9/d41/classfl_1_1_noise_palette.html#a546f14f524f7a1b965c872ddad7be8a4" target="_top" xlink:title=" ">
<polygon fill="white" stroke="#666666" points="409.5,-234.12 264.5,-234.12 264.5,-200.62 409.5,-200.62 409.5,-234.12"/>
<text text-anchor="start" x="272.5" y="-220.62" font-family="Helvetica,sans-Serif" font-size="10.00">fl::NoisePalette::mapNoise</text>
<text text-anchor="middle" x="337" y="-207.88" font-family="Helvetica,sans-Serif" font-size="10.00">ToLEDsUsingPalette</text>
</a>
</g>
</g>
<!-- Node1&#45;&gt;Node11 -->
<g id="edge12_Node000001_Node000011" class="edge">
<title>Node1&#45;&gt;Node11</title>
<g id="a_edge12_Node000001_Node000011"><a xlink:title=" ">
<path fill="none" stroke="#63b8ff" d="M451.62,-248.62C435.5,-244.19 417.42,-239.22 400.51,-234.57"/>
<polygon fill="#63b8ff" stroke="#63b8ff" points="450.4,-251.92 460.97,-251.2 452.26,-245.17 450.4,-251.92"/>
</a>
</g>
</g>
<!-- Node12 -->
<g id="Node000012" class="node">
<title>Node12</title>
<g id="a_Node000012"><a xlink:href="../../de/d10/classfl_1_1_rectangular_draw_buffer.html#a793464dde6e4e1a324ab46973615345c" target="_top" xlink:title=" ">
<polygon fill="white" stroke="#666666" points="407.62,-182.12 266.38,-182.12 266.38,-148.62 407.62,-148.62 407.62,-182.12"/>
<text text-anchor="start" x="274.38" y="-168.62" font-family="Helvetica,sans-Serif" font-size="10.00">fl::RectangularDrawBuffer</text>
<text text-anchor="middle" x="337" y="-155.88" font-family="Helvetica,sans-Serif" font-size="10.00">::onQueuingDone</text>
</a>
</g>
</g>
<!-- Node1&#45;&gt;Node12 -->
<g id="edge13_Node000001_Node000012" class="edge">
<title>Node1&#45;&gt;Node12</title>
<g id="a_edge13_Node000001_Node000012"><a xlink:title=" ">
<path fill="none" stroke="#63b8ff" d="M481.83,-244.2C463.99,-228.55 436.47,-206.2 409.5,-191.38 403.71,-188.19 397.46,-185.26 391.14,-182.61"/>
<polygon fill="#63b8ff" stroke="#63b8ff" points="479.31,-246.64 489.1,-250.69 483.97,-241.42 479.31,-246.64"/>
</a>
</g>
</g>
<!-- Node13 -->
<g id="Node000013" class="node">
<title>Node13</title>
<g id="a_Node000013"><a xlink:href="../../de/d10/classfl_1_1_rectangular_draw_buffer.html#a30615bbf72903e16ebc36fb5583ff29a" target="_top" xlink:title=" ">
<polygon fill="white" stroke="#666666" points="407.62,-130.12 266.38,-130.12 266.38,-96.62 407.62,-96.62 407.62,-130.12"/>
<text text-anchor="start" x="274.38" y="-116.62" font-family="Helvetica,sans-Serif" font-size="10.00">fl::RectangularDrawBuffer</text>
<text text-anchor="middle" x="337" y="-103.88" font-family="Helvetica,sans-Serif" font-size="10.00">::onQueuingStart</text>
</a>
</g>
</g>
<!-- Node1&#45;&gt;Node13 -->
<g id="edge14_Node000001_Node000013" class="edge">
<title>Node1&#45;&gt;Node13</title>
<g id="a_edge14_Node000001_Node000013"><a xlink:title=" ">
<path fill="none" stroke="#63b8ff" d="M491.03,-241.54C476.24,-214.41 446.97,-167.18 409.5,-139.38 405.04,-136.07 400.13,-133.15 395.02,-130.58"/>
<polygon fill="#63b8ff" stroke="#63b8ff" points="487.82,-242.96 495.59,-250.16 494.01,-239.69 487.82,-242.96"/>
</a>
</g>
</g>
<!-- Node14 -->
<g id="Node000014" class="node">
<title>Node14</title>
<g id="a_Node000014"><a xlink:href="../../d1/de0/classfl_1_1_frame.html#af87085697e2f19076fa6cd89d995501b" target="_top" xlink:title=" ">
<polygon fill="white" stroke="#666666" points="377.25,-78.75 296.75,-78.75 296.75,-58 377.25,-58 377.25,-78.75"/>
<text text-anchor="middle" x="337" y="-65.25" font-family="Helvetica,sans-Serif" font-size="10.00">fl::Frame::rgb</text>
</a>
</g>
</g>
<!-- Node1&#45;&gt;Node14 -->
<g id="edge15_Node000001_Node000014" class="edge">
<title>Node1&#45;&gt;Node14</title>
<g id="a_edge15_Node000001_Node000014"><a xlink:title=" ">
<path fill="none" stroke="#63b8ff" d="M496.37,-240.81C486.18,-203.67 460.16,-127.75 409.5,-87.38 400.36,-80.09 388.68,-75.58 377.43,-72.8"/>
<polygon fill="#63b8ff" stroke="#63b8ff" points="492.95,-241.55 498.85,-250.34 499.72,-239.78 492.95,-241.55"/>
</a>
</g>
</g>
<!-- Node19 -->
<g id="Node000019" class="node">
<title>Node19</title>
<g id="a_Node000019"><a xlink:href="../../d1/de0/classfl_1_1_frame.html#a82df8e8ec9de16c14bd5449099adde46" target="_top" xlink:title=" ">
<polygon fill="white" stroke="#666666" points="377.25,-39.75 296.75,-39.75 296.75,-19 377.25,-19 377.25,-39.75"/>
<text text-anchor="middle" x="337" y="-26.25" font-family="Helvetica,sans-Serif" font-size="10.00">fl::Frame::rgb</text>
</a>
</g>
</g>
<!-- Node1&#45;&gt;Node19 -->
<g id="edge21_Node000001_Node000019" class="edge">
<title>Node1&#45;&gt;Node19</title>
<g id="a_edge21_Node000001_Node000019"><a xlink:title=" ">
<path fill="none" stroke="#63b8ff" d="M498.48,-240.51C491.11,-197.36 468.62,-100.98 409.5,-49.38 400.57,-41.58 388.82,-36.8 377.44,-33.88"/>
<polygon fill="#63b8ff" stroke="#63b8ff" points="494.99,-240.81 500.01,-250.14 501.9,-239.72 494.99,-240.81"/>
</a>
</g>
</g>
<!-- Node5 -->
<g id="Node000005" class="node">
<title>Node5</title>
<g id="a_Node000005"><a xlink:href="../../d8/d94/classfl_1_1_frame_interpolator.html#a681dd7d646b6b2b75c4035678693206a" target="_top" xlink:title=" ">
<polygon fill="white" stroke="#666666" points="208.62,-369.12 92.88,-369.12 92.88,-335.62 208.62,-335.62 208.62,-369.12"/>
<text text-anchor="start" x="100.88" y="-355.62" font-family="Helvetica,sans-Serif" font-size="10.00">fl::FrameInterpolator</text>
<text text-anchor="middle" x="150.75" y="-342.88" font-family="Helvetica,sans-Serif" font-size="10.00">::draw</text>
</a>
</g>
</g>
<!-- Node4&#45;&gt;Node5 -->
<g id="edge4_Node000004_Node000005" class="edge">
<title>Node4&#45;&gt;Node5</title>
<g id="a_edge4_Node000004_Node000005"><a xlink:title=" ">
<path fill="none" stroke="#63b8ff" d="M281.16,-383.98C258.42,-378.43 232.05,-371.99 209.06,-366.37"/>
<polygon fill="#63b8ff" stroke="#63b8ff" points="280.32,-387.38 290.86,-386.35 281.98,-380.58 280.32,-387.38"/>
</a>
</g>
</g>
<!-- Node8 -->
<g id="Node000008" class="node">
<title>Node8</title>
<g id="a_Node000008"><a xlink:href="../../d9/d41/classfl_1_1_noise_palette.html#afc6cd594830dfdd146c45e7ab1d1905d" target="_top" xlink:title=" ">
<polygon fill="white" stroke="#666666" points="210.5,-272.75 91,-272.75 91,-252 210.5,-252 210.5,-272.75"/>
<text text-anchor="middle" x="150.75" y="-259.25" font-family="Helvetica,sans-Serif" font-size="10.00">fl::NoisePalette::draw</text>
</a>
</g>
</g>
<!-- Node7&#45;&gt;Node8 -->
<g id="edge7_Node000007_Node000008" class="edge">
<title>Node7&#45;&gt;Node8</title>
<g id="a_edge7_Node000007_Node000008"><a xlink:title=" ">
<path fill="none" stroke="#63b8ff" d="M255.47,-262.38C240.42,-262.38 224.95,-262.38 210.71,-262.38"/>
<polygon fill="#63b8ff" stroke="#63b8ff" points="255.35,-265.88 265.35,-262.38 255.35,-258.88 255.35,-265.88"/>
</a>
</g>
</g>
<!-- Node9 -->
<g id="Node000009" class="node">
<title>Node9</title>
<g id="a_Node000009"><a xlink:href="../../df/d43/_overclock_8ino.html#afe461d27b9c48d5921c00d521181f12f" target="_top" xlink:title=" ">
<polygon fill="white" stroke="#666666" points="37,-272.75 0,-272.75 0,-252 37,-252 37,-272.75"/>
<text text-anchor="middle" x="18.5" y="-259.25" font-family="Helvetica,sans-Serif" font-size="10.00">loop</text>
</a>
</g>
</g>
<!-- Node8&#45;&gt;Node9 -->
<g id="edge8_Node000008_Node000009" class="edge">
<title>Node8&#45;&gt;Node9</title>
<g id="a_edge8_Node000008_Node000009"><a xlink:title=" ">
<path fill="none" stroke="#63b8ff" d="M79.33,-262.38C63.72,-262.38 48.51,-262.38 37.34,-262.38"/>
<polygon fill="#63b8ff" stroke="#63b8ff" points="79.21,-265.88 89.21,-262.38 79.21,-258.88 79.21,-265.88"/>
</a>
</g>
</g>
<!-- Node10&#45;&gt;Node5 -->
<g id="edge10_Node000010_Node000005" class="edge">
<title>Node10&#45;&gt;Node5</title>
<g id="a_edge10_Node000010_Node000005"><a xlink:title=" ">
<path fill="none" stroke="#63b8ff" d="M286.01,-315.21C262.21,-321.8 233.62,-329.71 208.96,-336.54"/>
<polygon fill="#63b8ff" stroke="#63b8ff" points="286.76,-318.64 295.47,-312.59 284.9,-311.89 286.76,-318.64"/>
</a>
</g>
</g>
<!-- Node10&#45;&gt;Node10 -->
<g id="edge11_Node000010_Node000010" class="edge">
<title>Node10&#45;&gt;Node10</title>
<g id="a_edge11_Node000010_Node000010"><a xlink:title=" ">
<path fill="none" stroke="#63b8ff" d="M366.14,-323.24C362.28,-327.08 352.57,-329.75 337,-329.75 308.53,-329.75 299.64,-320.81 310.31,-312.15"/>
<polygon fill="#63b8ff" stroke="#63b8ff" points="369.59,-322.63 364.01,-313.62 362.76,-324.15 369.59,-322.63"/>
</a>
</g>
</g>
<!-- Node15 -->
<g id="Node000015" class="node">
<title>Node15</title>
<g id="a_Node000015"><a xlink:href="../../d8/d94/classfl_1_1_frame_interpolator.html#af273dd01aff0df78a5bf87f1fa5662b1" target="_top" xlink:title=" ">
<polygon fill="white" stroke="#666666" points="208.62,-150.12 92.88,-150.12 92.88,-116.62 208.62,-116.62 208.62,-150.12"/>
<text text-anchor="start" x="100.88" y="-136.62" font-family="Helvetica,sans-Serif" font-size="10.00">fl::FrameInterpolator</text>
<text text-anchor="middle" x="150.75" y="-123.88" font-family="Helvetica,sans-Serif" font-size="10.00">::draw</text>
</a>
</g>
</g>
<!-- Node14&#45;&gt;Node15 -->
<g id="edge16_Node000014_Node000015" class="edge">
<title>Node14&#45;&gt;Node15</title>
<g id="a_edge16_Node000014_Node000015"><a xlink:title=" ">
<path fill="none" stroke="#63b8ff" d="M285.4,-80.14C278.29,-82.28 271.14,-84.69 264.5,-87.38 247.53,-94.22 245.24,-99.96 228.5,-107.38 221.42,-110.51 213.85,-113.49 206.31,-116.25"/>
<polygon fill="#63b8ff" stroke="#63b8ff" points="286.34,-83.51 295.01,-77.43 284.43,-76.78 286.34,-83.51"/>
</a>
</g>
</g>
<!-- Node16 -->
<g id="Node000016" class="node">
<title>Node16</title>
<g id="a_Node000016"><a xlink:href="../../d1/de0/classfl_1_1_frame.html#a18b6f7181804a0392e40796f46352115" target="_top" xlink:title=" ">
<polygon fill="white" stroke="#666666" points="209.75,-98.75 91.75,-98.75 91.75,-78 209.75,-78 209.75,-98.75"/>
<text text-anchor="middle" x="150.75" y="-85.25" font-family="Helvetica,sans-Serif" font-size="10.00">fl::Frame::interpolate</text>
</a>
</g>
</g>
<!-- Node14&#45;&gt;Node16 -->
<g id="edge18_Node000014_Node000016" class="edge">
<title>Node14&#45;&gt;Node16</title>
<g id="a_edge18_Node000014_Node000016"><a xlink:title=" ">
<path fill="none" stroke="#63b8ff" d="M285.11,-73.9C261.86,-76.42 234.2,-79.43 210.11,-82.04"/>
<polygon fill="#63b8ff" stroke="#63b8ff" points="285.41,-77.39 294.97,-72.83 284.65,-70.43 285.41,-77.39"/>
</a>
</g>
</g>
<!-- Node17 -->
<g id="Node000017" class="node">
<title>Node17</title>
<g id="a_Node000017"><a xlink:href="../../d8/ddd/classfl_1_1_pixel_stream.html#abbf55c04a45047bcfbdac181130dddaf" target="_top" xlink:title=" ">
<polygon fill="white" stroke="#666666" points="223.25,-59.75 78.25,-59.75 78.25,-39 223.25,-39 223.25,-59.75"/>
<text text-anchor="middle" x="150.75" y="-46.25" font-family="Helvetica,sans-Serif" font-size="10.00">fl::PixelStream::readFrame</text>
</a>
</g>
</g>
<!-- Node14&#45;&gt;Node17 -->
<g id="edge19_Node000014_Node000017" class="edge">
<title>Node14&#45;&gt;Node17</title>
<g id="a_edge19_Node000014_Node000017"><a xlink:title=" ">
<path fill="none" stroke="#63b8ff" d="M285.06,-63.12C266.04,-61.16 244.09,-58.9 223.55,-56.78"/>
<polygon fill="#63b8ff" stroke="#63b8ff" points="284.66,-66.6 294.97,-64.14 285.38,-59.64 284.66,-66.6"/>
</a>
</g>
</g>
<!-- Node18 -->
<g id="Node000018" class="node">
<title>Node18</title>
<g id="a_Node000018"><a xlink:href="../../d8/ddd/classfl_1_1_pixel_stream.html#a3404c466e245a763fcad12da56412d39" target="_top" xlink:title=" ">
<polygon fill="white" stroke="#666666" points="228.5,-20.75 73,-20.75 73,0 228.5,0 228.5,-20.75"/>
<text text-anchor="middle" x="150.75" y="-7.25" font-family="Helvetica,sans-Serif" font-size="10.00">fl::PixelStream::readFrameAt</text>
</a>
</g>
</g>
<!-- Node14&#45;&gt;Node18 -->
<g id="edge20_Node000014_Node000018" class="edge">
<title>Node14&#45;&gt;Node18</title>
<g id="a_edge20_Node000014_Node000018"><a xlink:title=" ">
<path fill="none" stroke="#63b8ff" d="M285.77,-55.64C278.56,-53.43 271.29,-50.99 264.5,-48.38 247.81,-41.94 245.25,-36.66 228.5,-30.38 219.35,-26.94 209.37,-23.87 199.73,-21.23"/>
<polygon fill="#63b8ff" stroke="#63b8ff" points="284.56,-58.93 295.14,-58.38 286.53,-52.21 284.56,-58.93"/>
</a>
</g>
</g>
<!-- Node15&#45;&gt;Node15 -->
<g id="edge17_Node000015_Node000015" class="edge">
<title>Node15&#45;&gt;Node15</title>
<g id="a_edge17_Node000015_Node000015"><a xlink:title=" ">
<path fill="none" stroke="#63b8ff" d="M172.65,-161.84C168.93,-165.62 161.63,-168.12 150.75,-168.12 130.86,-168.12 122.94,-159.74 126.98,-150.54"/>
<polygon fill="#63b8ff" stroke="#63b8ff" points="176.09,-162.47 174.28,-152.03 169.18,-161.32 176.09,-162.47"/>
</a>
</g>
</g>
</g>
</svg>
