<?xml version="1.0" encoding="UTF-8" standalone="no"?>
<!DOCTYPE svg PUBLIC "-//W3C//DTD SVG 1.1//EN"
 "http://www.w3.org/Graphics/SVG/1.1/DTD/svg11.dtd">
<!-- Generated by graphviz version 12.2.1 (20241206.2353)
 -->
<!-- Title: /home/runner/work/FastLED/FastLED/src/fx/video/video_impl.h Pages: 1 -->
<svg width="1905pt" height="496pt"
 viewBox="0.00 0.00 1905.00 495.50" xmlns="http://www.w3.org/2000/svg" xmlns:xlink="http://www.w3.org/1999/xlink">
<g id="graph0" class="graph" transform="scale(1 1) rotate(0) translate(4 491.5)">
<title>/home/runner/work/FastLED/FastLED/src/fx/video/video_impl.h</title>
<!-- Node1 -->
<g id="Node000001" class="node">
<title>Node1</title>
<g id="a_Node000001"><a xlink:title=" ">
<polygon fill="#999999" stroke="#666666" points="962.62,-487.5 779.38,-487.5 779.38,-454 962.62,-454 962.62,-487.5"/>
<text text-anchor="start" x="787.38" y="-474" font-family="Helvetica,sans-Serif" font-size="10.00">/home/runner/work/FastLED</text>
<text text-anchor="middle" x="871" y="-461.25" font-family="Helvetica,sans-Serif" font-size="10.00">/FastLED/src/fx/video/video_impl.h</text>
</a>
</g>
</g>
<!-- Node2 -->
<g id="Node000002" class="node">
<title>Node2</title>
<g id="a_Node000002"><a xlink:title=" ">
<polygon fill="#e0e0e0" stroke="#999999" points="370.38,-20.75 317.62,-20.75 317.62,0 370.38,0 370.38,-20.75"/>
<text text-anchor="middle" x="344" y="-7.25" font-family="Helvetica,sans-Serif" font-size="10.00">stdint.h</text>
</a>
</g>
</g>
<!-- Node1&#45;&gt;Node2 -->
<g id="edge1_Node000001_Node000002" class="edge">
<title>Node1&#45;&gt;Node2</title>
<g id="a_edge1_Node000001_Node000002"><a xlink:title=" ">
<path fill="none" stroke="#63b8ff" d="M779.02,-466.81C555.13,-458.45 0,-429.84 0,-351.88 0,-351.88 0,-351.88 0,-122.88 0,-59.11 216.58,-26.34 306.04,-15.52"/>
<polygon fill="#63b8ff" stroke="#63b8ff" points="306.27,-19.02 315.79,-14.37 305.45,-12.06 306.27,-19.02"/>
</a>
</g>
</g>
<!-- Node3 -->
<g id="Node000003" class="node">
<title>Node3</title>
<g id="a_Node000003"><a xlink:href="../../dd/d2b/bytestream_8h.html" target="_top" xlink:title=" ">
<polygon fill="white" stroke="#666666" points="503.12,-191 412.88,-191 412.88,-170.25 503.12,-170.25 503.12,-191"/>
<text text-anchor="middle" x="458" y="-177.5" font-family="Helvetica,sans-Serif" font-size="10.00">fl/bytestream.h</text>
</a>
</g>
</g>
<!-- Node1&#45;&gt;Node3 -->
<g id="edge2_Node000001_Node000003" class="edge">
<title>Node1&#45;&gt;Node3</title>
<g id="a_edge2_Node000001_Node000003"><a xlink:title=" ">
<path fill="none" stroke="#63b8ff" d="M779.03,-464.7C579.36,-452.5 124,-417.48 124,-351.88 124,-351.88 124,-351.88 124,-293.12 124,-235.34 306.17,-202.09 401.44,-188.65"/>
<polygon fill="#63b8ff" stroke="#63b8ff" points="401.68,-192.15 411.11,-187.32 400.72,-185.22 401.68,-192.15"/>
</a>
</g>
</g>
<!-- Node5 -->
<g id="Node000005" class="node">
<title>Node5</title>
<g id="a_Node000005"><a xlink:href="../../df/d2a/namespace_8h.html" target="_top" xlink:title="Implements the FastLED namespace macros.">
<polygon fill="white" stroke="#666666" points="1429.12,-20.75 1338.88,-20.75 1338.88,0 1429.12,0 1429.12,-20.75"/>
<text text-anchor="middle" x="1384" y="-7.25" font-family="Helvetica,sans-Serif" font-size="10.00">fl/namespace.h</text>
</a>
</g>
</g>
<!-- Node1&#45;&gt;Node5 -->
<g id="edge80_Node000001_Node000005" class="edge">
<title>Node1&#45;&gt;Node5</title>
<g id="a_edge80_Node000001_Node000005"><a xlink:title=" ">
<path fill="none" stroke="#63b8ff" d="M962.95,-468.75C1214.79,-464.79 1897,-445.45 1897,-351.88 1897,-351.88 1897,-351.88 1897,-122.88 1897,-30.33 1574.17,-14.45 1440.7,-11.83"/>
<polygon fill="#63b8ff" stroke="#63b8ff" points="1441.1,-8.34 1431.04,-11.67 1440.98,-15.34 1441.1,-8.34"/>
</a>
</g>
</g>
<!-- Node14 -->
<g id="Node000014" class="node">
<title>Node14</title>
<g id="a_Node000014"><a xlink:href="../../d3/dfa/pixel__stream_8h.html" target="_top" xlink:title=" ">
<polygon fill="white" stroke="#666666" points="867.38,-361.25 736.62,-361.25 736.62,-340.5 867.38,-340.5 867.38,-361.25"/>
<text text-anchor="middle" x="802" y="-347.75" font-family="Helvetica,sans-Serif" font-size="10.00">fx/video/pixel_stream.h</text>
</a>
</g>
</g>
<!-- Node1&#45;&gt;Node14 -->
<g id="edge28_Node000001_Node000014" class="edge">
<title>Node1&#45;&gt;Node14</title>
<g id="a_edge28_Node000001_Node000014"><a xlink:title=" ">
<path fill="none" stroke="#63b8ff" d="M861.69,-453.85C849.18,-432.48 826.95,-394.5 813.43,-371.41"/>
<polygon fill="#63b8ff" stroke="#63b8ff" points="816.58,-369.85 808.51,-362.99 810.54,-373.39 816.58,-369.85"/>
</a>
</g>
</g>
<!-- Node15 -->
<g id="Node000015" class="node">
<title>Node15</title>
<g id="a_Node000015"><a xlink:href="../../d9/d28/fl_2file__system_8h.html" target="_top" xlink:title=" ">
<polygon fill="white" stroke="#666666" points="912.12,-304.5 821.88,-304.5 821.88,-283.75 912.12,-283.75 912.12,-304.5"/>
<text text-anchor="middle" x="867" y="-291" font-family="Helvetica,sans-Serif" font-size="10.00">fl/file_system.h</text>
</a>
</g>
</g>
<!-- Node1&#45;&gt;Node15 -->
<g id="edge79_Node000001_Node000015" class="edge">
<title>Node1&#45;&gt;Node15</title>
<g id="a_edge79_Node000001_Node000015"><a xlink:title=" ">
<path fill="none" stroke="#63b8ff" d="M873.01,-453.79C875.78,-429.34 879.99,-381.17 876,-340.5 875.21,-332.41 873.63,-323.63 872.02,-315.97"/>
<polygon fill="#63b8ff" stroke="#63b8ff" points="875.45,-315.23 869.82,-306.26 868.62,-316.78 875.45,-315.23"/>
</a>
</g>
</g>
<!-- Node34 -->
<g id="Node000034" class="node">
<title>Node34</title>
<g id="a_Node000034"><a xlink:href="../../d3/dda/frame__interpolator_8h.html" target="_top" xlink:title=" ">
<polygon fill="white" stroke="#666666" points="1221.25,-418 1062.75,-418 1062.75,-397.25 1221.25,-397.25 1221.25,-418"/>
<text text-anchor="middle" x="1142" y="-404.5" font-family="Helvetica,sans-Serif" font-size="10.00">fx/video/frame_interpolator.h</text>
</a>
</g>
</g>
<!-- Node1&#45;&gt;Node34 -->
<g id="edge63_Node000001_Node000034" class="edge">
<title>Node1&#45;&gt;Node34</title>
<g id="a_edge63_Node000001_Node000034"><a xlink:title=" ">
<path fill="none" stroke="#63b8ff" d="M942.91,-453.53C988.3,-443.29 1046,-430.28 1087.59,-420.9"/>
<polygon fill="#63b8ff" stroke="#63b8ff" points="1088.13,-424.36 1097.12,-418.75 1086.59,-417.53 1088.13,-424.36"/>
</a>
</g>
</g>
<!-- Node3&#45;&gt;Node2 -->
<g id="edge4_Node000003_Node000002" class="edge">
<title>Node3&#45;&gt;Node2</title>
<g id="a_edge4_Node000003_Node000002"><a xlink:title=" ">
<path fill="none" stroke="#63b8ff" d="M412.57,-172.08C331.32,-157.56 166.46,-123.09 133,-77.5 88.78,-17.26 233.81,-10.4 305.85,-10.57"/>
<polygon fill="#63b8ff" stroke="#63b8ff" points="305.62,-14.07 315.64,-10.64 305.67,-7.07 305.62,-14.07"/>
</a>
</g>
</g>
<!-- Node4 -->
<g id="Node000004" class="node">
<title>Node4</title>
<g id="a_Node000004"><a xlink:title=" ">
<polygon fill="#e0e0e0" stroke="#999999" points="976.5,-20.75 921.5,-20.75 921.5,0 976.5,0 976.5,-20.75"/>
<text text-anchor="middle" x="949" y="-7.25" font-family="Helvetica,sans-Serif" font-size="10.00">stddef.h</text>
</a>
</g>
</g>
<!-- Node3&#45;&gt;Node4 -->
<g id="edge3_Node000003_Node000004" class="edge">
<title>Node3&#45;&gt;Node4</title>
<g id="a_edge3_Node000003_Node000004"><a xlink:title=" ">
<path fill="none" stroke="#63b8ff" d="M456.01,-169.87C451.86,-146.47 445.14,-86.83 477,-56.75 508.23,-27.27 802.17,-15.7 909.78,-12.43"/>
<polygon fill="#63b8ff" stroke="#63b8ff" points="909.67,-15.94 919.56,-12.14 909.46,-8.94 909.67,-15.94"/>
</a>
</g>
</g>
<!-- Node3&#45;&gt;Node5 -->
<g id="edge5_Node000003_Node000005" class="edge">
<title>Node3&#45;&gt;Node5</title>
<g id="a_edge5_Node000003_Node000005"><a xlink:title=" ">
<path fill="none" stroke="#63b8ff" d="M503.54,-179.84C645.85,-180.04 1080.67,-177.05 1214,-134.25 1230.5,-128.95 1230.87,-119.81 1247,-113.5 1328.26,-81.71 1384.24,-144.62 1440,-77.5 1454.37,-60.2 1432.85,-40.55 1412.46,-27.2"/>
<polygon fill="#63b8ff" stroke="#63b8ff" points="1414.34,-24.24 1403.99,-21.98 1410.67,-30.2 1414.34,-24.24"/>
</a>
</g>
</g>
<!-- Node6 -->
<g id="Node000006" class="node">
<title>Node6</title>
<g id="a_Node000006"><a xlink:href="../../d7/df1/fl_2ptr_8h.html" target="_top" xlink:title=" ">
<polygon fill="white" stroke="#666666" points="921.38,-134.25 874.62,-134.25 874.62,-113.5 921.38,-113.5 921.38,-134.25"/>
<text text-anchor="middle" x="898" y="-120.75" font-family="Helvetica,sans-Serif" font-size="10.00">fl/ptr.h</text>
</a>
</g>
</g>
<!-- Node3&#45;&gt;Node6 -->
<g id="edge6_Node000003_Node000006" class="edge">
<title>Node3&#45;&gt;Node6</title>
<g id="a_edge6_Node000003_Node000006"><a xlink:title=" ">
<path fill="none" stroke="#63b8ff" d="M503.43,-173.97C591.56,-163.01 784.02,-139.06 863.05,-129.22"/>
<polygon fill="#63b8ff" stroke="#63b8ff" points="863.31,-132.72 872.8,-128.01 862.44,-125.77 863.31,-132.72"/>
</a>
</g>
</g>
<!-- Node9 -->
<g id="Node000009" class="node">
<title>Node9</title>
<g id="a_Node000009"><a xlink:href="../../db/dd1/crgb_8h.html" target="_top" xlink:title="Defines the red, green, and blue (RGB) pixel struct.">
<polygon fill="white" stroke="#666666" points="750,-134.25 704,-134.25 704,-113.5 750,-113.5 750,-134.25"/>
<text text-anchor="middle" x="727" y="-120.75" font-family="Helvetica,sans-Serif" font-size="10.00">crgb.h</text>
</a>
</g>
</g>
<!-- Node3&#45;&gt;Node9 -->
<g id="edge15_Node000003_Node000009" class="edge">
<title>Node3&#45;&gt;Node9</title>
<g id="a_edge15_Node000003_Node000009"><a xlink:title=" ">
<path fill="none" stroke="#63b8ff" d="M503.33,-170.4C556.72,-159.53 644.24,-141.72 692.45,-131.91"/>
<polygon fill="#63b8ff" stroke="#63b8ff" points="692.95,-135.38 702.05,-129.95 691.55,-128.52 692.95,-135.38"/>
</a>
</g>
</g>
<!-- Node6&#45;&gt;Node4 -->
<g id="edge7_Node000006_Node000004" class="edge">
<title>Node6&#45;&gt;Node4</title>
<g id="a_edge7_Node000006_Node000004"><a xlink:title=" ">
<path fill="none" stroke="#63b8ff" d="M902.35,-113.37C910.62,-95.27 928.8,-55.53 939.86,-31.35"/>
<polygon fill="#63b8ff" stroke="#63b8ff" points="942.91,-33.1 943.89,-22.55 936.55,-30.19 942.91,-33.1"/>
</a>
</g>
</g>
<!-- Node6&#45;&gt;Node5 -->
<g id="edge8_Node000006_Node000005" class="edge">
<title>Node6&#45;&gt;Node5</title>
<g id="a_edge8_Node000006_Node000005"><a xlink:title=" ">
<path fill="none" stroke="#63b8ff" d="M921.66,-116.8C955.16,-108.17 1018.31,-91.83 1072,-77.5 1105.83,-68.47 1113.89,-64.67 1148,-56.75 1208.95,-42.59 1279.49,-29.45 1327.45,-20.99"/>
<polygon fill="#63b8ff" stroke="#63b8ff" points="1327.8,-24.48 1337.05,-19.31 1326.6,-17.59 1327.8,-24.48"/>
</a>
</g>
</g>
<!-- Node7 -->
<g id="Node000007" class="node">
<title>Node7</title>
<g id="a_Node000007"><a xlink:href="../../df/d28/fl_2scoped__ptr_8h.html" target="_top" xlink:title=" ">
<polygon fill="white" stroke="#666666" points="1243.25,-77.5 1156.75,-77.5 1156.75,-56.75 1243.25,-56.75 1243.25,-77.5"/>
<text text-anchor="middle" x="1200" y="-64" font-family="Helvetica,sans-Serif" font-size="10.00">fl/scoped_ptr.h</text>
</a>
</g>
</g>
<!-- Node6&#45;&gt;Node7 -->
<g id="edge9_Node000006_Node000007" class="edge">
<title>Node6&#45;&gt;Node7</title>
<g id="a_edge9_Node000006_Node000007"><a xlink:title=" ">
<path fill="none" stroke="#63b8ff" d="M921.7,-118.58C969.54,-109.9 1078.78,-90.1 1145.28,-78.05"/>
<polygon fill="#63b8ff" stroke="#63b8ff" points="1145.66,-81.53 1154.88,-76.3 1144.42,-74.64 1145.66,-81.53"/>
</a>
</g>
</g>
<!-- Node8 -->
<g id="Node000008" class="node">
<title>Node8</title>
<g id="a_Node000008"><a xlink:href="../../d8/d0c/template__magic_8h.html" target="_top" xlink:title=" ">
<polygon fill="white" stroke="#666666" points="599.75,-77.5 486.25,-77.5 486.25,-56.75 599.75,-56.75 599.75,-77.5"/>
<text text-anchor="middle" x="543" y="-64" font-family="Helvetica,sans-Serif" font-size="10.00">fl/template_magic.h</text>
</a>
</g>
</g>
<!-- Node6&#45;&gt;Node8 -->
<g id="edge12_Node000006_Node000008" class="edge">
<title>Node6&#45;&gt;Node8</title>
<g id="a_edge12_Node000006_Node000008"><a xlink:title=" ">
<path fill="none" stroke="#63b8ff" d="M874.16,-119.2C821.08,-111.01 691.52,-91.03 611.09,-78.63"/>
<polygon fill="#63b8ff" stroke="#63b8ff" points="611.99,-75.22 601.58,-77.16 610.93,-82.14 611.99,-75.22"/>
</a>
</g>
</g>
<!-- Node7&#45;&gt;Node4 -->
<g id="edge10_Node000007_Node000004" class="edge">
<title>Node7&#45;&gt;Node4</title>
<g id="a_edge10_Node000007_Node000004"><a xlink:title=" ">
<path fill="none" stroke="#63b8ff" d="M1156.28,-56.59C1108.73,-46.22 1033.44,-29.79 987.88,-19.86"/>
<polygon fill="#63b8ff" stroke="#63b8ff" points="988.69,-16.45 978.18,-17.74 987.2,-23.29 988.69,-16.45"/>
</a>
</g>
</g>
<!-- Node7&#45;&gt;Node5 -->
<g id="edge11_Node000007_Node000005" class="edge">
<title>Node7&#45;&gt;Node5</title>
<g id="a_edge11_Node000007_Node000005"><a xlink:title=" ">
<path fill="none" stroke="#63b8ff" d="M1232.9,-56.34C1262.89,-47.41 1307.43,-34.16 1340.38,-24.35"/>
<polygon fill="#63b8ff" stroke="#63b8ff" points="1341.04,-27.81 1349.63,-21.6 1339.05,-21.1 1341.04,-27.81"/>
</a>
</g>
</g>
<!-- Node8&#45;&gt;Node2 -->
<g id="edge13_Node000008_Node000002" class="edge">
<title>Node8&#45;&gt;Node2</title>
<g id="a_edge13_Node000008_Node000002"><a xlink:title=" ">
<path fill="none" stroke="#63b8ff" d="M507.42,-56.34C472.01,-46.6 417.88,-31.7 381.73,-21.76"/>
<polygon fill="#63b8ff" stroke="#63b8ff" points="382.7,-18.39 372.13,-19.12 380.85,-25.14 382.7,-18.39"/>
</a>
</g>
</g>
<!-- Node8&#45;&gt;Node5 -->
<g id="edge14_Node000008_Node000005" class="edge">
<title>Node8&#45;&gt;Node5</title>
<g id="a_edge14_Node000008_Node000005"><a xlink:title=" ">
<path fill="none" stroke="#63b8ff" d="M600.2,-57.7C603.17,-57.36 606.12,-57.04 609,-56.75 876.9,-29.93 1198.61,-17.34 1327.02,-13.1"/>
<polygon fill="#63b8ff" stroke="#63b8ff" points="1327.08,-16.6 1336.96,-12.78 1326.85,-9.6 1327.08,-16.6"/>
</a>
</g>
</g>
<!-- Node9&#45;&gt;Node2 -->
<g id="edge16_Node000009_Node000002" class="edge">
<title>Node9&#45;&gt;Node2</title>
<g id="a_edge16_Node000009_Node000002"><a xlink:title=" ">
<path fill="none" stroke="#63b8ff" d="M703.71,-120.86C658.86,-116.49 557.8,-104.32 477,-77.5 437.85,-64.51 395.7,-41.93 369.58,-26.83"/>
<polygon fill="#63b8ff" stroke="#63b8ff" points="371.45,-23.86 361.05,-21.82 367.9,-29.9 371.45,-23.86"/>
</a>
</g>
</g>
<!-- Node9&#45;&gt;Node5 -->
<g id="edge20_Node000009_Node000005" class="edge">
<title>Node9&#45;&gt;Node5</title>
<g id="a_edge20_Node000009_Node000005"><a xlink:title=" ">
<path fill="none" stroke="#63b8ff" d="M750.33,-116.4C798,-103.37 910.19,-73.8 1006,-56.75 1119.19,-36.61 1253.08,-22.89 1327.28,-16.16"/>
<polygon fill="#63b8ff" stroke="#63b8ff" points="1327.51,-19.66 1337.15,-15.28 1326.88,-12.69 1327.51,-19.66"/>
</a>
</g>
</g>
<!-- Node9&#45;&gt;Node8 -->
<g id="edge27_Node000009_Node000008" class="edge">
<title>Node9&#45;&gt;Node8</title>
<g id="a_edge27_Node000009_Node000008"><a xlink:title=" ">
<path fill="none" stroke="#63b8ff" d="M703.7,-115.94C674.43,-107.23 623.6,-92.11 586.94,-81.2"/>
<polygon fill="#63b8ff" stroke="#63b8ff" points="588.09,-77.89 577.5,-78.39 586.09,-84.6 588.09,-77.89"/>
</a>
</g>
</g>
<!-- Node10 -->
<g id="Node000010" class="node">
<title>Node10</title>
<g id="a_Node000010"><a xlink:href="../../d8/dd0/chsv_8h.html" target="_top" xlink:title="Defines the hue, saturation, and value (HSV) pixel struct.">
<polygon fill="white" stroke="#666666" points="664.38,-77.5 617.62,-77.5 617.62,-56.75 664.38,-56.75 664.38,-77.5"/>
<text text-anchor="middle" x="641" y="-64" font-family="Helvetica,sans-Serif" font-size="10.00">chsv.h</text>
</a>
</g>
</g>
<!-- Node9&#45;&gt;Node10 -->
<g id="edge17_Node000009_Node000010" class="edge">
<title>Node9&#45;&gt;Node10</title>
<g id="a_edge17_Node000009_Node000010"><a xlink:title=" ">
<path fill="none" stroke="#63b8ff" d="M711.62,-113.09C698.91,-104.99 680.6,-93.33 665.81,-83.92"/>
<polygon fill="#63b8ff" stroke="#63b8ff" points="667.83,-81.06 657.52,-78.64 664.07,-86.96 667.83,-81.06"/>
</a>
</g>
</g>
<!-- Node11 -->
<g id="Node000011" class="node">
<title>Node11</title>
<g id="a_Node000011"><a xlink:href="../../d2/d6b/src_2color_8h.html" target="_top" xlink:title="Contains definitions for color correction and temperature.">
<polygon fill="white" stroke="#666666" points="1063.12,-77.5 1014.88,-77.5 1014.88,-56.75 1063.12,-56.75 1063.12,-77.5"/>
<text text-anchor="middle" x="1039" y="-64" font-family="Helvetica,sans-Serif" font-size="10.00">color.h</text>
</a>
</g>
</g>
<!-- Node9&#45;&gt;Node11 -->
<g id="edge21_Node000009_Node000011" class="edge">
<title>Node9&#45;&gt;Node11</title>
<g id="a_edge21_Node000009_Node000011"><a xlink:title=" ">
<path fill="none" stroke="#63b8ff" d="M750.21,-119.65C797.56,-112.94 908.67,-96.5 1001,-77.5 1001.82,-77.33 1002.66,-77.16 1003.5,-76.98"/>
<polygon fill="#63b8ff" stroke="#63b8ff" points="1004.09,-80.43 1013.06,-74.79 1002.53,-73.61 1004.09,-80.43"/>
</a>
</g>
</g>
<!-- Node12 -->
<g id="Node000012" class="node">
<title>Node12</title>
<g id="a_Node000012"><a xlink:href="../../d9/ddf/lib8tion_2types_8h.html" target="_top" xlink:title="Defines fractional types used for lib8tion functions.">
<polygon fill="white" stroke="#666666" points="773.88,-77.5 682.12,-77.5 682.12,-56.75 773.88,-56.75 773.88,-77.5"/>
<text text-anchor="middle" x="728" y="-64" font-family="Helvetica,sans-Serif" font-size="10.00">lib8tion/types.h</text>
</a>
</g>
</g>
<!-- Node9&#45;&gt;Node12 -->
<g id="edge23_Node000009_Node000012" class="edge">
<title>Node9&#45;&gt;Node12</title>
<g id="a_edge23_Node000009_Node000012"><a xlink:title=" ">
<path fill="none" stroke="#63b8ff" d="M727.18,-113.09C727.3,-106.47 727.46,-97.47 727.61,-89.27"/>
<polygon fill="#63b8ff" stroke="#63b8ff" points="731.11,-89.4 727.8,-79.34 724.11,-89.28 731.11,-89.4"/>
</a>
</g>
</g>
<!-- Node13 -->
<g id="Node000013" class="node">
<title>Node13</title>
<g id="a_Node000013"><a xlink:href="../../d8/d2d/fl_2force__inline_8h.html" target="_top" xlink:title=" ">
<polygon fill="white" stroke="#666666" points="882.5,-77.5 791.5,-77.5 791.5,-56.75 882.5,-56.75 882.5,-77.5"/>
<text text-anchor="middle" x="837" y="-64" font-family="Helvetica,sans-Serif" font-size="10.00">fl/force_inline.h</text>
</a>
</g>
</g>
<!-- Node9&#45;&gt;Node13 -->
<g id="edge26_Node000009_Node000013" class="edge">
<title>Node9&#45;&gt;Node13</title>
<g id="a_edge26_Node000009_Node000013"><a xlink:title=" ">
<path fill="none" stroke="#63b8ff" d="M746.67,-113.09C763.56,-104.68 788.17,-92.43 807.43,-82.84"/>
<polygon fill="#63b8ff" stroke="#63b8ff" points="808.76,-86.09 816.15,-78.5 805.64,-79.83 808.76,-86.09"/>
</a>
</g>
</g>
<!-- Node10&#45;&gt;Node2 -->
<g id="edge18_Node000010_Node000002" class="edge">
<title>Node10&#45;&gt;Node2</title>
<g id="a_edge18_Node000010_Node000002"><a xlink:title=" ">
<path fill="none" stroke="#63b8ff" d="M617.31,-58.86C614.52,-58.1 611.71,-57.38 609,-56.75 528.84,-38.21 433.43,-23.69 381.78,-16.44"/>
<polygon fill="#63b8ff" stroke="#63b8ff" points="382.42,-13 372.03,-15.09 381.45,-19.93 382.42,-13"/>
</a>
</g>
</g>
<!-- Node10&#45;&gt;Node5 -->
<g id="edge19_Node000010_Node000005" class="edge">
<title>Node10&#45;&gt;Node5</title>
<g id="a_edge19_Node000010_Node000005"><a xlink:title=" ">
<path fill="none" stroke="#63b8ff" d="M664.63,-58.57C667.43,-57.86 670.26,-57.23 673,-56.75 913.73,-14.34 1206.5,-10.37 1327.5,-10.76"/>
<polygon fill="#63b8ff" stroke="#63b8ff" points="1327.14,-14.26 1337.16,-10.81 1327.17,-7.26 1327.14,-14.26"/>
</a>
</g>
</g>
<!-- Node11&#45;&gt;Node5 -->
<g id="edge22_Node000011_Node000005" class="edge">
<title>Node11&#45;&gt;Node5</title>
<g id="a_edge22_Node000011_Node000005"><a xlink:title=" ">
<path fill="none" stroke="#63b8ff" d="M1063.45,-59.73C1067.94,-58.66 1072.6,-57.62 1077,-56.75 1163.84,-39.66 1265.65,-25.82 1327.45,-18.09"/>
<polygon fill="#63b8ff" stroke="#63b8ff" points="1327.52,-21.61 1337.01,-16.91 1326.66,-14.67 1327.52,-21.61"/>
</a>
</g>
</g>
<!-- Node12&#45;&gt;Node2 -->
<g id="edge24_Node000012_Node000002" class="edge">
<title>Node12&#45;&gt;Node2</title>
<g id="a_edge24_Node000012_Node000002"><a xlink:title=" ">
<path fill="none" stroke="#63b8ff" d="M681.8,-58.14C678.83,-57.66 675.87,-57.19 673,-56.75 567.75,-40.53 443.13,-24.1 381.87,-16.2"/>
<polygon fill="#63b8ff" stroke="#63b8ff" points="382.35,-12.73 371.98,-14.93 381.46,-19.68 382.35,-12.73"/>
</a>
</g>
</g>
<!-- Node12&#45;&gt;Node5 -->
<g id="edge25_Node000012_Node000005" class="edge">
<title>Node12&#45;&gt;Node5</title>
<g id="a_edge25_Node000012_Node000005"><a xlink:title=" ">
<path fill="none" stroke="#63b8ff" d="M774.17,-57.93C777.15,-57.5 780.12,-57.1 783,-56.75 982.21,-32.31 1220.29,-19.02 1327.16,-13.89"/>
<polygon fill="#63b8ff" stroke="#63b8ff" points="1327.29,-17.39 1337.11,-13.42 1326.96,-10.4 1327.29,-17.39"/>
</a>
</g>
</g>
<!-- Node14&#45;&gt;Node3 -->
<g id="edge32_Node000014_Node000003" class="edge">
<title>Node14&#45;&gt;Node3</title>
<g id="a_edge32_Node000014_Node000003"><a xlink:title=" ">
<path fill="none" stroke="#63b8ff" d="M782.02,-340.1C724.31,-311.88 557.11,-230.1 488.22,-196.4"/>
<polygon fill="#63b8ff" stroke="#63b8ff" points="489.92,-193.34 479.4,-192.09 486.84,-199.63 489.92,-193.34"/>
</a>
</g>
</g>
<!-- Node14&#45;&gt;Node5 -->
<g id="edge29_Node000014_Node000005" class="edge">
<title>Node14&#45;&gt;Node5</title>
<g id="a_edge29_Node000014_Node000005"><a xlink:title=" ">
<path fill="none" stroke="#63b8ff" d="M867.68,-349.61C1093.04,-347.83 1821,-334.64 1821,-238.38 1821,-238.38 1821,-238.38 1821,-122.88 1821,-74.31 1778.93,-75.19 1734,-56.75 1682.18,-35.48 1525.83,-21.45 1440.71,-15.16"/>
<polygon fill="#63b8ff" stroke="#63b8ff" points="1441.18,-11.69 1430.95,-14.46 1440.67,-18.67 1441.18,-11.69"/>
</a>
</g>
</g>
<!-- Node14&#45;&gt;Node6 -->
<g id="edge31_Node000014_Node000006" class="edge">
<title>Node14&#45;&gt;Node6</title>
<g id="a_edge31_Node000014_Node000006"><a xlink:title=" ">
<path fill="none" stroke="#63b8ff" d="M802.79,-340.28C804.05,-327.24 807,-303.33 813,-283.75 829.25,-230.7 836.99,-218.15 865,-170.25 870.32,-161.15 877.05,-151.63 883.04,-143.67"/>
<polygon fill="#63b8ff" stroke="#63b8ff" points="885.79,-145.83 889.14,-135.78 880.25,-141.55 885.79,-145.83"/>
</a>
</g>
</g>
<!-- Node14&#45;&gt;Node9 -->
<g id="edge30_Node000014_Node000009" class="edge">
<title>Node14&#45;&gt;Node9</title>
<g id="a_edge30_Node000014_Node000009"><a xlink:title=" ">
<path fill="none" stroke="#63b8ff" d="M785.52,-340.16C773.56,-332.17 758.13,-319.72 750,-304.5 722.31,-252.63 722.8,-180.67 725.08,-145.67"/>
<polygon fill="#63b8ff" stroke="#63b8ff" points="728.54,-146.3 725.83,-136.06 721.56,-145.75 728.54,-146.3"/>
</a>
</g>
</g>
<!-- Node14&#45;&gt;Node15 -->
<g id="edge33_Node000014_Node000015" class="edge">
<title>Node14&#45;&gt;Node15</title>
<g id="a_edge33_Node000014_Node000015"><a xlink:title=" ">
<path fill="none" stroke="#63b8ff" d="M813.62,-340.09C822.86,-332.3 836.01,-321.22 846.95,-312.01"/>
<polygon fill="#63b8ff" stroke="#63b8ff" points="848.93,-314.92 854.32,-305.8 844.42,-309.57 848.93,-314.92"/>
</a>
</g>
</g>
<!-- Node33 -->
<g id="Node000033" class="node">
<title>Node33</title>
<g id="a_Node000033"><a xlink:href="../../df/d7d/frame_8h.html" target="_top" xlink:title=" ">
<polygon fill="white" stroke="#666666" points="1463.5,-191 1396.5,-191 1396.5,-170.25 1463.5,-170.25 1463.5,-191"/>
<text text-anchor="middle" x="1430" y="-177.5" font-family="Helvetica,sans-Serif" font-size="10.00">fx/frame.h</text>
</a>
</g>
</g>
<!-- Node14&#45;&gt;Node33 -->
<g id="edge55_Node000014_Node000033" class="edge">
<title>Node14&#45;&gt;Node33</title>
<g id="a_edge55_Node000014_Node000033"><a xlink:title=" ">
<path fill="none" stroke="#63b8ff" d="M838.48,-340.1C946.89,-311.06 1266.93,-225.31 1385.31,-193.6"/>
<polygon fill="#63b8ff" stroke="#63b8ff" points="1385.91,-197.06 1394.67,-191.09 1384.1,-190.3 1385.91,-197.06"/>
</a>
</g>
</g>
<!-- Node15&#45;&gt;Node2 -->
<g id="edge34_Node000015_Node000002" class="edge">
<title>Node15&#45;&gt;Node2</title>
<g id="a_edge34_Node000015_Node000002"><a xlink:title=" ">
<path fill="none" stroke="#63b8ff" d="M821.4,-290.8C745.68,-286.32 589.51,-274.49 460,-247.75 375.36,-230.28 354.81,-221.66 274,-191 217.33,-169.5 195.92,-173.81 150,-134.25 121.08,-109.34 88.75,-86.23 113,-56.75 136.99,-27.59 246.69,-16.89 305.87,-13.19"/>
<polygon fill="#63b8ff" stroke="#63b8ff" points="306.05,-16.68 315.83,-12.61 305.64,-9.69 306.05,-16.68"/>
</a>
</g>
</g>
<!-- Node15&#45;&gt;Node4 -->
<g id="edge35_Node000015_Node000004" class="edge">
<title>Node15&#45;&gt;Node4</title>
<g id="a_edge35_Node000015_Node000004"><a xlink:title=" ">
<path fill="none" stroke="#63b8ff" d="M821.63,-290.12C715.52,-282.06 456.2,-255.97 404,-191 398.22,-183.81 401.94,-179.24 404,-170.25 416.54,-115.62 412.92,-88.68 459,-56.75 495.76,-31.28 800.15,-17.12 909.81,-12.81"/>
<polygon fill="#63b8ff" stroke="#63b8ff" points="909.63,-16.32 919.49,-12.43 909.36,-9.32 909.63,-16.32"/>
</a>
</g>
</g>
<!-- Node15&#45;&gt;Node5 -->
<g id="edge36_Node000015_Node000005" class="edge">
<title>Node15&#45;&gt;Node5</title>
<g id="a_edge36_Node000015_Node000005"><a xlink:title=" ">
<path fill="none" stroke="#63b8ff" d="M912.38,-292.11C1073.98,-287.42 1617.18,-262.23 1719,-134.25 1729.81,-120.66 1736.21,-80.07 1714,-56.75 1677.57,-18.5 1525.13,-11.74 1440.77,-11"/>
<polygon fill="#63b8ff" stroke="#63b8ff" points="1440.87,-7.5 1430.85,-10.94 1440.83,-14.5 1440.87,-7.5"/>
</a>
</g>
</g>
<!-- Node15&#45;&gt;Node6 -->
<g id="edge37_Node000015_Node000006" class="edge">
<title>Node15&#45;&gt;Node6</title>
<g id="a_edge37_Node000015_Node000006"><a xlink:title=" ">
<path fill="none" stroke="#63b8ff" d="M864.06,-283.65C860.47,-270.76 855.31,-247.01 859,-227 864.49,-197.22 878.29,-164.88 887.91,-144.75"/>
<polygon fill="#63b8ff" stroke="#63b8ff" points="890.93,-146.54 892.2,-136.03 884.64,-143.46 890.93,-146.54"/>
</a>
</g>
</g>
<!-- Node16 -->
<g id="Node000016" class="node">
<title>Node16</title>
<g id="a_Node000016"><a xlink:href="../../dd/d78/video_8h.html" target="_top" xlink:title=" ">
<polygon fill="#fff0f0" stroke="red" points="932.38,-247.75 867.62,-247.75 867.62,-227 932.38,-227 932.38,-247.75"/>
<text text-anchor="middle" x="900" y="-234.25" font-family="Helvetica,sans-Serif" font-size="10.00">fx/video.h</text>
</a>
</g>
</g>
<!-- Node15&#45;&gt;Node16 -->
<g id="edge38_Node000015_Node000016" class="edge">
<title>Node15&#45;&gt;Node16</title>
<g id="a_edge38_Node000015_Node000016"><a xlink:title=" ">
<path fill="none" stroke="#63b8ff" d="M872.9,-283.34C877.17,-276.25 883.08,-266.44 888.3,-257.79"/>
<polygon fill="#63b8ff" stroke="#63b8ff" points="891.21,-259.75 893.37,-249.37 885.21,-256.13 891.21,-259.75"/>
</a>
</g>
</g>
<!-- Node25 -->
<g id="Node000025" class="node">
<title>Node25</title>
<g id="a_Node000025"><a xlink:href="../../dc/d0e/fl_2str_8h.html" target="_top" xlink:title=" ">
<polygon fill="#fff0f0" stroke="red" points="979,-191 933,-191 933,-170.25 979,-170.25 979,-191"/>
<text text-anchor="middle" x="956" y="-177.5" font-family="Helvetica,sans-Serif" font-size="10.00">fl/str.h</text>
</a>
</g>
</g>
<!-- Node15&#45;&gt;Node25 -->
<g id="edge54_Node000015_Node000025" class="edge">
<title>Node15&#45;&gt;Node25</title>
<g id="a_edge54_Node000015_Node000025"><a xlink:title=" ">
<path fill="none" stroke="#63b8ff" d="M893.02,-283.38C909.22,-276 929.15,-264.29 941,-247.75 950.45,-234.56 954.07,-216.41 955.4,-202.46"/>
<polygon fill="#63b8ff" stroke="#63b8ff" points="958.89,-202.8 955.99,-192.61 951.9,-202.38 958.89,-202.8"/>
</a>
</g>
</g>
<!-- Node16&#45;&gt;Node2 -->
<g id="edge39_Node000016_Node000002" class="edge">
<title>Node16&#45;&gt;Node2</title>
<g id="a_edge39_Node000016_Node000002"><a xlink:title=" ">
<path fill="none" stroke="#63b8ff" d="M867.18,-236.13C727.16,-234.2 184.06,-217.7 121,-77.5 117.22,-69.09 115.17,-63.89 121,-56.75 143.98,-28.63 248.95,-17.5 306.31,-13.46"/>
<polygon fill="#63b8ff" stroke="#63b8ff" points="306.18,-16.97 315.93,-12.82 305.72,-9.99 306.18,-16.97"/>
</a>
</g>
</g>
<!-- Node16&#45;&gt;Node5 -->
<g id="edge40_Node000016_Node000005" class="edge">
<title>Node16&#45;&gt;Node5</title>
<g id="a_edge40_Node000016_Node000005"><a xlink:title=" ">
<path fill="none" stroke="#63b8ff" d="M932.75,-235.74C1020.36,-233.6 1258.21,-224.75 1328,-191 1371.43,-170 1364.13,-140.66 1404,-113.5 1437.91,-90.41 1466.34,-111.7 1489,-77.5 1505.59,-52.46 1472.97,-35.08 1439.82,-24.45"/>
<polygon fill="#63b8ff" stroke="#63b8ff" points="1441.13,-21.19 1430.55,-21.67 1439.12,-27.89 1441.13,-21.19"/>
</a>
</g>
</g>
<!-- Node16&#45;&gt;Node6 -->
<g id="edge41_Node000016_Node000006" class="edge">
<title>Node16&#45;&gt;Node6</title>
<g id="a_edge41_Node000016_Node000006"><a xlink:title=" ">
<path fill="none" stroke="#63b8ff" d="M899.83,-226.87C899.51,-209.1 898.82,-170.47 898.38,-146.18"/>
<polygon fill="#63b8ff" stroke="#63b8ff" points="901.88,-146.12 898.2,-136.19 894.88,-146.25 901.88,-146.12"/>
</a>
</g>
</g>
<!-- Node16&#45;&gt;Node25 -->
<g id="edge42_Node000016_Node000025" class="edge">
<title>Node16&#45;&gt;Node25</title>
<g id="a_edge42_Node000016_Node000025"><a xlink:title=" ">
<path fill="none" stroke="#63b8ff" d="M910.01,-226.59C917.74,-219.03 928.63,-208.39 937.87,-199.35"/>
<polygon fill="#63b8ff" stroke="#63b8ff" points="940.29,-201.88 944.99,-192.39 935.4,-196.87 940.29,-201.88"/>
</a>
</g>
</g>
<!-- Node25&#45;&gt;Node2 -->
<g id="edge44_Node000025_Node000002" class="edge">
<title>Node25&#45;&gt;Node2</title>
<g id="a_edge44_Node000025_Node000002"><a xlink:title=" ">
<path fill="none" stroke="#63b8ff" d="M932.57,-178.89C833.5,-175.6 451.94,-161.26 406,-134.25 369.22,-112.62 353.58,-61.38 347.49,-32.36"/>
<polygon fill="#63b8ff" stroke="#63b8ff" points="350.94,-31.77 345.65,-22.59 344.06,-33.07 350.94,-31.77"/>
</a>
</g>
</g>
<!-- Node25&#45;&gt;Node5 -->
<g id="edge53_Node000025_Node000005" class="edge">
<title>Node25&#45;&gt;Node5</title>
<g id="a_edge53_Node000025_Node000005"><a xlink:title=" ">
<path fill="none" stroke="#63b8ff" d="M979.14,-176.75C1028.57,-170.44 1148.04,-154.35 1247,-134.25 1250.17,-133.61 1471.01,-80.05 1473,-77.5 1490.37,-55.23 1458.6,-36.77 1428.31,-25.07"/>
<polygon fill="#63b8ff" stroke="#63b8ff" points="1429.76,-21.87 1419.17,-21.73 1427.36,-28.44 1429.76,-21.87"/>
</a>
</g>
</g>
<!-- Node25&#45;&gt;Node6 -->
<g id="edge45_Node000025_Node000006" class="edge">
<title>Node25&#45;&gt;Node6</title>
<g id="a_edge45_Node000025_Node000006"><a xlink:title=" ">
<path fill="none" stroke="#63b8ff" d="M945.63,-169.84C937.55,-162.21 926.12,-151.42 916.48,-142.32"/>
<polygon fill="#63b8ff" stroke="#63b8ff" points="919.05,-139.94 909.38,-135.62 914.25,-145.03 919.05,-139.94"/>
</a>
</g>
</g>
<!-- Node25&#45;&gt;Node8 -->
<g id="edge46_Node000025_Node000008" class="edge">
<title>Node25&#45;&gt;Node8</title>
<g id="a_edge46_Node000025_Node000008"><a xlink:title=" ">
<path fill="none" stroke="#63b8ff" d="M932.51,-178.31C865.17,-174.24 672.72,-160.56 616,-134.25 592.49,-123.34 571.23,-102.18 557.8,-86.72"/>
<polygon fill="#63b8ff" stroke="#63b8ff" points="560.56,-84.57 551.47,-79.14 555.19,-89.06 560.56,-84.57"/>
</a>
</g>
</g>
<!-- Node19 -->
<g id="Node000019" class="node">
<title>Node19</title>
<g id="a_Node000019"><a xlink:title=" ">
<polygon fill="#e0e0e0" stroke="#999999" points="1653.38,-77.5 1600.62,-77.5 1600.62,-56.75 1653.38,-56.75 1653.38,-77.5"/>
<text text-anchor="middle" x="1627" y="-64" font-family="Helvetica,sans-Serif" font-size="10.00">string.h</text>
</a>
</g>
</g>
<!-- Node25&#45;&gt;Node19 -->
<g id="edge43_Node000025_Node000019" class="edge">
<title>Node25&#45;&gt;Node19</title>
<g id="a_edge43_Node000025_Node000019"><a xlink:title=" ">
<path fill="none" stroke="#63b8ff" d="M979.2,-176.86C1033.05,-170.35 1170.66,-153.17 1285,-134.25 1396.21,-115.84 1526.79,-89.18 1589.57,-76.05"/>
<polygon fill="#63b8ff" stroke="#63b8ff" points="1589.93,-79.55 1599,-74.07 1588.49,-72.7 1589.93,-79.55"/>
</a>
</g>
</g>
<!-- Node26 -->
<g id="Node000026" class="node">
<title>Node26</title>
<g id="a_Node000026"><a xlink:href="../../d6/d68/vector_8h.html" target="_top" xlink:title=" ">
<polygon fill="#fff0f0" stroke="red" points="1205,-134.25 1141,-134.25 1141,-113.5 1205,-113.5 1205,-134.25"/>
<text text-anchor="middle" x="1173" y="-120.75" font-family="Helvetica,sans-Serif" font-size="10.00">fl/vector.h</text>
</a>
</g>
</g>
<!-- Node25&#45;&gt;Node26 -->
<g id="edge47_Node000025_Node000026" class="edge">
<title>Node25&#45;&gt;Node26</title>
<g id="a_edge47_Node000025_Node000026"><a xlink:title=" ">
<path fill="none" stroke="#63b8ff" d="M979.22,-173.77C1015.11,-164.71 1084.6,-147.18 1129.88,-135.75"/>
<polygon fill="#63b8ff" stroke="#63b8ff" points="1130.53,-139.2 1139.37,-133.36 1128.81,-132.41 1130.53,-139.2"/>
</a>
</g>
</g>
<!-- Node26&#45;&gt;Node2 -->
<g id="edge48_Node000026_Node000002" class="edge">
<title>Node26&#45;&gt;Node2</title>
<g id="a_edge48_Node000026_Node000002"><a xlink:title=" ">
<path fill="none" stroke="#63b8ff" d="M1162.21,-113.01C1144.76,-97.75 1108.59,-68.92 1072,-56.75 942.07,-13.55 512.18,-10.96 381.81,-11.19"/>
<polygon fill="#63b8ff" stroke="#63b8ff" points="382,-7.69 372.01,-11.22 382.02,-14.69 382,-7.69"/>
</a>
</g>
</g>
<!-- Node26&#45;&gt;Node4 -->
<g id="edge49_Node000026_Node000004" class="edge">
<title>Node26&#45;&gt;Node4</title>
<g id="a_edge49_Node000026_Node000004"><a xlink:title=" ">
<path fill="none" stroke="#63b8ff" d="M1201.01,-113.09C1230.98,-101.13 1271.73,-79.65 1252,-56.75 1218.31,-17.64 1061.5,-11.75 987.65,-11.19"/>
<polygon fill="#63b8ff" stroke="#63b8ff" points="988.07,-7.69 978.06,-11.15 988.04,-14.69 988.07,-7.69"/>
</a>
</g>
</g>
<!-- Node26&#45;&gt;Node5 -->
<g id="edge50_Node000026_Node000005" class="edge">
<title>Node26&#45;&gt;Node5</title>
<g id="a_edge50_Node000026_Node000005"><a xlink:title=" ">
<path fill="none" stroke="#63b8ff" d="M1201.8,-113.05C1224.86,-104.75 1257.74,-91.93 1285,-77.5 1312.84,-62.76 1342.63,-42.13 1362.17,-27.85"/>
<polygon fill="#63b8ff" stroke="#63b8ff" points="1364.22,-30.69 1370.18,-21.93 1360.06,-25.06 1364.22,-30.69"/>
</a>
</g>
</g>
<!-- Node26&#45;&gt;Node7 -->
<g id="edge51_Node000026_Node000007" class="edge">
<title>Node26&#45;&gt;Node7</title>
<g id="a_edge51_Node000026_Node000007"><a xlink:title=" ">
<path fill="none" stroke="#63b8ff" d="M1177.83,-113.09C1181.24,-106.16 1185.95,-96.62 1190.14,-88.11"/>
<polygon fill="#63b8ff" stroke="#63b8ff" points="1193.26,-89.7 1194.55,-79.19 1186.98,-86.61 1193.26,-89.7"/>
</a>
</g>
</g>
<!-- Node28 -->
<g id="Node000028" class="node">
<title>Node28</title>
<g id="a_Node000028"><a xlink:href="../../d1/d22/insert__result_8h.html" target="_top" xlink:title=" ">
<polygon fill="white" stroke="#666666" points="1431.38,-77.5 1336.62,-77.5 1336.62,-56.75 1431.38,-56.75 1431.38,-77.5"/>
<text text-anchor="middle" x="1384" y="-64" font-family="Helvetica,sans-Serif" font-size="10.00">fl/insert_result.h</text>
</a>
</g>
</g>
<!-- Node26&#45;&gt;Node28 -->
<g id="edge52_Node000026_Node000028" class="edge">
<title>Node26&#45;&gt;Node28</title>
<g id="a_edge52_Node000026_Node000028"><a xlink:title=" ">
<path fill="none" stroke="#63b8ff" d="M1205.05,-114.56C1239.64,-105.58 1295.16,-91.18 1335.19,-80.79"/>
<polygon fill="#63b8ff" stroke="#63b8ff" points="1336.03,-84.19 1344.83,-78.29 1334.27,-77.41 1336.03,-84.19"/>
</a>
</g>
</g>
<!-- Node33&#45;&gt;Node5 -->
<g id="edge57_Node000033_Node000005" class="edge">
<title>Node33&#45;&gt;Node5</title>
<g id="a_edge57_Node000033_Node000005"><a xlink:title=" ">
<path fill="none" stroke="#63b8ff" d="M1463.82,-179.24C1530.16,-177.68 1673.56,-170.15 1704,-134.25 1709.96,-127.22 1704.72,-122.69 1704,-113.5 1701.99,-88.04 1713.17,-74.7 1695,-56.75 1660.08,-22.26 1520.65,-13.84 1440.85,-11.88"/>
<polygon fill="#63b8ff" stroke="#63b8ff" points="1441.11,-8.38 1431.04,-11.66 1440.96,-15.38 1441.11,-8.38"/>
</a>
</g>
</g>
<!-- Node33&#45;&gt;Node6 -->
<g id="edge59_Node000033_Node000006" class="edge">
<title>Node33&#45;&gt;Node6</title>
<g id="a_edge59_Node000033_Node000006"><a xlink:title=" ">
<path fill="none" stroke="#63b8ff" d="M1396.32,-176.16C1300.94,-166.34 1029.66,-138.43 932.86,-128.46"/>
<polygon fill="#63b8ff" stroke="#63b8ff" points="933.49,-125.01 923.19,-127.47 932.77,-131.97 933.49,-125.01"/>
</a>
</g>
</g>
<!-- Node33&#45;&gt;Node9 -->
<g id="edge58_Node000033_Node000009" class="edge">
<title>Node33&#45;&gt;Node9</title>
<g id="a_edge58_Node000033_Node000009"><a xlink:title=" ">
<path fill="none" stroke="#63b8ff" d="M1396.01,-176.36C1376.18,-174.49 1350.68,-172.15 1328,-170.25 1112.95,-152.25 854.33,-133.8 761.92,-127.31"/>
<polygon fill="#63b8ff" stroke="#63b8ff" points="762.22,-123.82 752,-126.62 761.73,-130.81 762.22,-123.82"/>
</a>
</g>
</g>
<!-- Node33&#45;&gt;Node19 -->
<g id="edge56_Node000033_Node000019" class="edge">
<title>Node33&#45;&gt;Node19</title>
<g id="a_edge56_Node000033_Node000019"><a xlink:title=" ">
<path fill="none" stroke="#63b8ff" d="M1463.57,-178.86C1526.78,-176.63 1659.71,-167.95 1688,-134.25 1703.07,-116.3 1679.52,-96.68 1657.45,-83.51"/>
<polygon fill="#63b8ff" stroke="#63b8ff" points="1659.31,-80.54 1648.88,-78.69 1655.87,-86.64 1659.31,-80.54"/>
</a>
</g>
</g>
<!-- Node21 -->
<g id="Node000021" class="node">
<title>Node21</title>
<g id="a_Node000021"><a xlink:href="../../d2/d6f/fl_2allocator_8h.html" target="_top" xlink:title=" ">
<polygon fill="white" stroke="#666666" points="1489,-134.25 1413,-134.25 1413,-113.5 1489,-113.5 1489,-134.25"/>
<text text-anchor="middle" x="1451" y="-120.75" font-family="Helvetica,sans-Serif" font-size="10.00">fl/allocator.h</text>
</a>
</g>
</g>
<!-- Node33&#45;&gt;Node21 -->
<g id="edge60_Node000033_Node000021" class="edge">
<title>Node33&#45;&gt;Node21</title>
<g id="a_edge60_Node000033_Node000021"><a xlink:title=" ">
<path fill="none" stroke="#63b8ff" d="M1433.75,-169.84C1436.38,-162.99 1439.99,-153.59 1443.22,-145.15"/>
<polygon fill="#63b8ff" stroke="#63b8ff" points="1446.42,-146.58 1446.74,-135.99 1439.89,-144.07 1446.42,-146.58"/>
</a>
</g>
</g>
<!-- Node21&#45;&gt;Node4 -->
<g id="edge61_Node000021_Node000004" class="edge">
<title>Node21&#45;&gt;Node4</title>
<g id="a_edge61_Node000021_Node000004"><a xlink:title=" ">
<path fill="none" stroke="#63b8ff" d="M1452.66,-113.11C1454.53,-98.51 1455.51,-71.17 1440,-56.75 1407.11,-26.17 1098.2,-15.23 987.9,-12.29"/>
<polygon fill="#63b8ff" stroke="#63b8ff" points="988.26,-8.79 978.18,-12.03 988.08,-15.79 988.26,-8.79"/>
</a>
</g>
</g>
<!-- Node21&#45;&gt;Node19 -->
<g id="edge62_Node000021_Node000019" class="edge">
<title>Node21&#45;&gt;Node19</title>
<g id="a_edge62_Node000021_Node000019"><a xlink:title=" ">
<path fill="none" stroke="#63b8ff" d="M1482.47,-113.09C1512.45,-103.76 1557.62,-89.71 1589.46,-79.8"/>
<polygon fill="#63b8ff" stroke="#63b8ff" points="1590.17,-83.25 1598.68,-76.93 1588.09,-76.56 1590.17,-83.25"/>
</a>
</g>
</g>
<!-- Node34&#45;&gt;Node5 -->
<g id="edge78_Node000034_Node000005" class="edge">
<title>Node34&#45;&gt;Node5</title>
<g id="a_edge78_Node000034_Node000005"><a xlink:title=" ">
<path fill="none" stroke="#63b8ff" d="M1221.47,-402.49C1408.15,-391.71 1859,-359.06 1859,-295.12 1859,-295.12 1859,-295.12 1859,-122.88 1859,-75.71 1819.55,-74.85 1776,-56.75 1716.71,-32.1 1534.11,-19.22 1440.54,-14.09"/>
<polygon fill="#63b8ff" stroke="#63b8ff" points="1441,-10.61 1430.83,-13.57 1440.62,-17.6 1441,-10.61"/>
</a>
</g>
</g>
<!-- Node34&#45;&gt;Node14 -->
<g id="edge73_Node000034_Node000014" class="edge">
<title>Node34&#45;&gt;Node14</title>
<g id="a_edge73_Node000034_Node000014"><a xlink:title=" ">
<path fill="none" stroke="#63b8ff" d="M1080.82,-396.77C1022.87,-387.44 935.8,-373.42 874.41,-363.54"/>
<polygon fill="#63b8ff" stroke="#63b8ff" points="875.18,-360.11 864.75,-361.98 874.07,-367.03 875.18,-360.11"/>
</a>
</g>
</g>
<!-- Node34&#45;&gt;Node33 -->
<g id="edge74_Node000034_Node000033" class="edge">
<title>Node34&#45;&gt;Node33</title>
<g id="a_edge74_Node000034_Node000033"><a xlink:title=" ">
<path fill="none" stroke="#63b8ff" d="M1154.38,-396.96C1199.06,-362.05 1352.38,-242.26 1408.88,-198.13"/>
<polygon fill="#63b8ff" stroke="#63b8ff" points="1410.75,-201.1 1416.48,-192.19 1406.44,-195.59 1410.75,-201.1"/>
</a>
</g>
</g>
<!-- Node35 -->
<g id="Node000035" class="node">
<title>Node35</title>
<g id="a_Node000035"><a xlink:href="../../dc/db7/map_8h.html" target="_top" xlink:title=" ">
<polygon fill="white" stroke="#666666" points="1318.88,-191 1263.12,-191 1263.12,-170.25 1318.88,-170.25 1318.88,-191"/>
<text text-anchor="middle" x="1291" y="-177.5" font-family="Helvetica,sans-Serif" font-size="10.00">fl/map.h</text>
</a>
</g>
</g>
<!-- Node34&#45;&gt;Node35 -->
<g id="edge64_Node000034_Node000035" class="edge">
<title>Node34&#45;&gt;Node35</title>
<g id="a_edge64_Node000034_Node000035"><a xlink:title=" ">
<path fill="none" stroke="#63b8ff" d="M1148.4,-396.96C1171.09,-362.7 1247.91,-246.69 1278.39,-200.67"/>
<polygon fill="#63b8ff" stroke="#63b8ff" points="1281.18,-202.79 1283.79,-192.52 1275.35,-198.92 1281.18,-202.79"/>
</a>
</g>
</g>
<!-- Node41 -->
<g id="Node000041" class="node">
<title>Node41</title>
<g id="a_Node000041"><a xlink:href="../../d2/df7/frame__tracker_8h.html" target="_top" xlink:title=" ">
<polygon fill="white" stroke="#666666" points="277.62,-77.5 142.38,-77.5 142.38,-56.75 277.62,-56.75 277.62,-77.5"/>
<text text-anchor="middle" x="210" y="-64" font-family="Helvetica,sans-Serif" font-size="10.00">fx/video/frame_tracker.h</text>
</a>
</g>
</g>
<!-- Node34&#45;&gt;Node41 -->
<g id="edge75_Node000034_Node000041" class="edge">
<title>Node34&#45;&gt;Node41</title>
<g id="a_edge75_Node000034_Node000041"><a xlink:title=" ">
<path fill="none" stroke="#63b8ff" d="M1062.63,-405.89C829.33,-402.67 162,-385.56 162,-295.12 162,-295.12 162,-295.12 162,-179.62 162,-144.85 181.94,-108.58 196.12,-87.19"/>
<polygon fill="#63b8ff" stroke="#63b8ff" points="198.83,-89.42 201.64,-79.2 193.07,-85.44 198.83,-89.42"/>
</a>
</g>
</g>
<!-- Node35&#45;&gt;Node2 -->
<g id="edge65_Node000035_Node000002" class="edge">
<title>Node35&#45;&gt;Node2</title>
<g id="a_edge65_Node000035_Node000002"><a xlink:title=" ">
<path fill="none" stroke="#63b8ff" d="M1262.91,-178.44C1153.46,-173.71 755.56,-155.39 631,-134.25 536.95,-118.29 508.65,-121.48 424,-77.5 399.67,-64.86 376.01,-43.89 360.81,-28.95"/>
<polygon fill="#63b8ff" stroke="#63b8ff" points="363.48,-26.68 353.96,-22.04 358.51,-31.61 363.48,-26.68"/>
</a>
</g>
</g>
<!-- Node35&#45;&gt;Node4 -->
<g id="edge66_Node000035_Node000004" class="edge">
<title>Node35&#45;&gt;Node4</title>
<g id="a_edge66_Node000035_Node000004"><a xlink:title=" ">
<path fill="none" stroke="#63b8ff" d="M1262.91,-175.22C1208.62,-165.55 1087.5,-138.34 1006,-77.5 988.24,-64.24 972.17,-44.55 961.65,-30.1"/>
<polygon fill="#63b8ff" stroke="#63b8ff" points="964.79,-28.49 956.18,-22.32 959.07,-32.51 964.79,-28.49"/>
</a>
</g>
</g>
<!-- Node35&#45;&gt;Node5 -->
<g id="edge67_Node000035_Node000005" class="edge">
<title>Node35&#45;&gt;Node5</title>
<g id="a_edge67_Node000035_Node000005"><a xlink:title=" ">
<path fill="none" stroke="#63b8ff" d="M1319.17,-176.04C1359.69,-170.31 1436.32,-157.31 1498,-134.25 1516.02,-127.51 1518.2,-120.8 1536,-113.5 1589.89,-91.41 1626.93,-124 1662,-77.5 1667.55,-70.14 1667.97,-63.78 1662,-56.75 1634.19,-24.03 1513.72,-14.85 1440.8,-12.31"/>
<polygon fill="#63b8ff" stroke="#63b8ff" points="1441.15,-8.82 1431.04,-12 1440.93,-15.82 1441.15,-8.82"/>
</a>
</g>
</g>
<!-- Node35&#45;&gt;Node8 -->
<g id="edge69_Node000035_Node000008" class="edge">
<title>Node35&#45;&gt;Node8</title>
<g id="a_edge69_Node000035_Node000008"><a xlink:title=" ">
<path fill="none" stroke="#63b8ff" d="M1262.76,-178.72C1159.79,-175.24 804.78,-161.48 695,-134.25 649.23,-122.9 599.77,-98.98 570.1,-83.24"/>
<polygon fill="#63b8ff" stroke="#63b8ff" points="571.91,-80.24 561.44,-78.57 568.58,-86.4 571.91,-80.24"/>
</a>
</g>
</g>
<!-- Node35&#45;&gt;Node26 -->
<g id="edge68_Node000035_Node000026" class="edge">
<title>Node35&#45;&gt;Node26</title>
<g id="a_edge68_Node000035_Node000026"><a xlink:title=" ">
<path fill="none" stroke="#63b8ff" d="M1269.9,-169.84C1251.61,-161.35 1224.9,-148.95 1204.14,-139.33"/>
<polygon fill="#63b8ff" stroke="#63b8ff" points="1205.83,-136.25 1195.29,-135.22 1202.88,-142.6 1205.83,-136.25"/>
</a>
</g>
</g>
<!-- Node35&#45;&gt;Node28 -->
<g id="edge70_Node000035_Node000028" class="edge">
<title>Node35&#45;&gt;Node28</title>
<g id="a_edge70_Node000035_Node000028"><a xlink:title=" ">
<path fill="none" stroke="#63b8ff" d="M1295.95,-170.09C1303.14,-156.71 1317.32,-131.94 1333,-113.5 1341.84,-103.1 1353.05,-92.87 1362.71,-84.77"/>
<polygon fill="#63b8ff" stroke="#63b8ff" points="1364.65,-87.7 1370.19,-78.67 1360.23,-82.28 1364.65,-87.7"/>
</a>
</g>
</g>
<!-- Node36 -->
<g id="Node000036" class="node">
<title>Node36</title>
<g id="a_Node000036"><a xlink:href="../../d3/d41/pair_8h.html" target="_top" xlink:title=" ">
<polygon fill="white" stroke="#666666" points="1597,-134.25 1545,-134.25 1545,-113.5 1597,-113.5 1597,-134.25"/>
<text text-anchor="middle" x="1571" y="-120.75" font-family="Helvetica,sans-Serif" font-size="10.00">fl/pair.h</text>
</a>
</g>
</g>
<!-- Node35&#45;&gt;Node36 -->
<g id="edge71_Node000035_Node000036" class="edge">
<title>Node35&#45;&gt;Node36</title>
<g id="a_edge71_Node000035_Node000036"><a xlink:title=" ">
<path fill="none" stroke="#63b8ff" d="M1319.16,-174.71C1364.08,-166.78 1454.67,-150.4 1531,-134.25 1531.98,-134.04 1532.97,-133.83 1533.96,-133.61"/>
<polygon fill="#63b8ff" stroke="#63b8ff" points="1534.32,-137.12 1543.31,-131.52 1532.79,-130.29 1534.32,-137.12"/>
</a>
</g>
</g>
<!-- Node37 -->
<g id="Node000037" class="node">
<title>Node37</title>
<g id="a_Node000037"><a xlink:href="../../dc/da7/assert_8h.html" target="_top" xlink:title=" ">
<polygon fill="#fff0f0" stroke="red" points="1679,-134.25 1615,-134.25 1615,-113.5 1679,-113.5 1679,-134.25"/>
<text text-anchor="middle" x="1647" y="-120.75" font-family="Helvetica,sans-Serif" font-size="10.00">fl/assert.h</text>
</a>
</g>
</g>
<!-- Node35&#45;&gt;Node37 -->
<g id="edge72_Node000035_Node000037" class="edge">
<title>Node35&#45;&gt;Node37</title>
<g id="a_edge72_Node000035_Node000037"><a xlink:title=" ">
<path fill="none" stroke="#63b8ff" d="M1319.36,-176.33C1372.93,-169.93 1492.83,-154.82 1603.77,-134.54"/>
<polygon fill="#63b8ff" stroke="#63b8ff" points="1604.14,-138.03 1613.33,-132.77 1602.86,-131.15 1604.14,-138.03"/>
</a>
</g>
</g>
<!-- Node41&#45;&gt;Node2 -->
<g id="edge76_Node000041_Node000002" class="edge">
<title>Node41&#45;&gt;Node2</title>
<g id="a_edge76_Node000041_Node000002"><a xlink:title=" ">
<path fill="none" stroke="#63b8ff" d="M233.96,-56.34C255.01,-47.73 285.9,-35.11 309.6,-25.43"/>
<polygon fill="#63b8ff" stroke="#63b8ff" points="310.92,-28.67 318.85,-21.65 308.27,-22.19 310.92,-28.67"/>
</a>
</g>
</g>
<!-- Node41&#45;&gt;Node5 -->
<g id="edge77_Node000041_Node000005" class="edge">
<title>Node41&#45;&gt;Node5</title>
<g id="a_edge77_Node000041_Node000005"><a xlink:title=" ">
<path fill="none" stroke="#63b8ff" d="M277.76,-62.96C488.79,-53.12 1131.74,-23.14 1327.1,-14.03"/>
<polygon fill="#63b8ff" stroke="#63b8ff" points="1327.17,-17.53 1336.99,-13.57 1326.84,-10.54 1327.17,-17.53"/>
</a>
</g>
</g>
</g>
</svg>
