<?xml version="1.0" encoding="UTF-8" standalone="no"?>
<!DOCTYPE svg PUBLIC "-//W3C//DTD SVG 1.1//EN"
 "http://www.w3.org/Graphics/SVG/1.1/DTD/svg11.dtd">
<!-- Generated by graphviz version 12.2.1 (20241206.2353)
 -->
<!-- Title: TM1803Controller400Khz&lt; DATA_PIN, RGB_ORDER &gt; Pages: 1 -->
<svg width="476pt" height="125pt"
 viewBox="0.00 0.00 475.50 124.75" xmlns="http://www.w3.org/2000/svg" xmlns:xlink="http://www.w3.org/1999/xlink">
<g id="graph0" class="graph" transform="scale(1 1) rotate(0) translate(4 120.75)">
<title>TM1803Controller400Khz&lt; DATA_PIN, RGB_ORDER &gt;</title>
<!-- Node1 -->
<g id="Node000001" class="node">
<title>Node1</title>
<g id="a_Node000001"><a xlink:title="TM1803 controller class.">
<polygon fill="#999999" stroke="#666666" points="152.5,-33.5 0,-33.5 0,0 152.5,0 152.5,-33.5"/>
<text text-anchor="start" x="8" y="-20" font-family="Helvetica,sans-Serif" font-size="10.00">TM1803Controller400Khz</text>
<text text-anchor="middle" x="76.25" y="-7.25" font-family="Helvetica,sans-Serif" font-size="10.00">&lt; DATA_PIN, RGB_ORDER &gt;</text>
</a>
</g>
</g>
<!-- Node1&#45;&gt;Node1 -->
<g id="edge2_Node000001_Node000001" class="edge">
<title>Node1&#45;&gt;Node1</title>
<g id="a_edge2_Node000001_Node000001"><a xlink:title=" ">
<path fill="none" stroke="orange" stroke-dasharray="5,2" d="M164.08,-18.82C168.13,-18.3 170.5,-17.61 170.5,-16.75 170.5,-15.27 163.41,-14.29 152.8,-13.8"/>
<polygon fill="orange" stroke="orange" points="164.01,-15.31 154.31,-19.58 164.55,-22.29 164.01,-15.31"/>
</a>
</g>
<text text-anchor="middle" x="240.25" y="-13.62" font-family="Helvetica,sans-Serif" font-size="10.00" fill="grey"> &lt; DATA_PIN, RGB_ORDER &gt;</text>
</g>
<!-- Node1&#45;&gt;Node1 -->
<g id="edge3_Node000001_Node000001" class="edge">
<title>Node1&#45;&gt;Node1</title>
<g id="a_edge3_Node000001_Node000001"><a xlink:title=" ">
<path fill="none" stroke="orange" stroke-dasharray="5,2" d="M163.89,-22.89C231.17,-24.38 310,-22.33 310,-16.75 310,-10.85 222.14,-8.9 152.77,-10.9"/>
<polygon fill="orange" stroke="orange" points="164.37,-19.4 154.28,-22.64 164.19,-26.4 164.37,-19.4"/>
</a>
</g>
<text text-anchor="middle" x="379.75" y="-13.62" font-family="Helvetica,sans-Serif" font-size="10.00" fill="grey"> &lt; DATA_PIN, RGB_ORDER &gt;</text>
</g>
<!-- Node2 -->
<g id="Node000002" class="node">
<title>Node2</title>
<g id="a_Node000002"><a xlink:title=" ">
<polygon fill="white" stroke="#666666" points="149.88,-116.75 2.62,-116.75 2.62,-70.5 149.88,-70.5 149.88,-116.75"/>
<text text-anchor="start" x="10.62" y="-103.25" font-family="Helvetica,sans-Serif" font-size="10.00">ClocklessController</text>
<text text-anchor="start" x="10.62" y="-90.5" font-family="Helvetica,sans-Serif" font-size="10.00">&lt; DATA_PIN, 6 *FMUL,</text>
<text text-anchor="middle" x="76.25" y="-77.75" font-family="Helvetica,sans-Serif" font-size="10.00"> 9 *FMUL, 6 *FMUL, RGB &gt;</text>
</a>
</g>
</g>
<!-- Node2&#45;&gt;Node1 -->
<g id="edge1_Node000001_Node000002" class="edge">
<title>Node2&#45;&gt;Node1</title>
<g id="a_edge1_Node000001_Node000002"><a xlink:title=" ">
<path fill="none" stroke="#63b8ff" d="M76.25,-58.67C76.25,-49.99 76.25,-41.07 76.25,-33.78"/>
<polygon fill="#63b8ff" stroke="#63b8ff" points="72.75,-58.65 76.25,-68.65 79.75,-58.65 72.75,-58.65"/>
</a>
</g>
</g>
</g>
</svg>
